<?xml version="1.0" encoding="utf-8" standalone="no"?>
<!DOCTYPE svg PUBLIC "-//W3C//DTD SVG 1.1//EN"
  "http://www.w3.org/Graphics/SVG/1.1/DTD/svg11.dtd">
<svg xmlns:xlink="http://www.w3.org/1999/xlink" width="332.39952pt" height="332.39952pt" viewBox="0 0 332.39952 332.39952" xmlns="http://www.w3.org/2000/svg" version="1.1">
 <metadata>
  <rdf:RDF xmlns:dc="http://purl.org/dc/elements/1.1/" xmlns:cc="http://creativecommons.org/ns#" xmlns:rdf="http://www.w3.org/1999/02/22-rdf-syntax-ns#">
   <cc:Work>
    <dc:type rdf:resource="http://purl.org/dc/dcmitype/StillImage"/>
    <dc:date>2026-05-18T20:32:38.443789</dc:date>
    <dc:format>image/svg+xml</dc:format>
    <dc:creator>
     <cc:Agent>
      <dc:title>Matplotlib v3.10.9, https://matplotlib.org/</dc:title>
     </cc:Agent>
    </dc:creator>
   </cc:Work>
  </rdf:RDF>
 </metadata>
 <defs>
  <style type="text/css">*{stroke-linejoin: round; stroke-linecap: butt}</style>
 </defs>
 <g id="figure_1">
  <g id="patch_1">
   <path d="M 0 332.39952 
L 332.39952 332.39952 
L 332.39952 0 
L 0 0 
z
" style="fill: #ffffff"/>
  </g>
  <g id="axes_1">
   <g id="patch_2">
    <path d="M 43.78125 96.747437 
L 325.19952 96.747437 
L 325.19952 7.2 
L 43.78125 7.2 
z
" style="fill: #ffffff"/>
   </g>
   <g id="matplotlib.axis_1">
    <g id="xtick_1">
     <g id="line2d_1">
      <defs>
       <path id="m19302189e4" d="M 0 0 
L 0 3.5 
" style="stroke: #000000; stroke-width: 0.8"/>
      </defs>
      <g>
       <use xlink:href="#m19302189e4" x="56.57299" y="96.747437" style="stroke: #000000; stroke-width: 0.8"/>
      </g>
     </g>
    </g>
    <g id="xtick_2">
     <g id="line2d_2">
      <g>
       <use xlink:href="#m19302189e4" x="88.542369" y="96.747437" style="stroke: #000000; stroke-width: 0.8"/>
      </g>
     </g>
    </g>
    <g id="xtick_3">
     <g id="line2d_3">
      <g>
       <use xlink:href="#m19302189e4" x="120.511749" y="96.747437" style="stroke: #000000; stroke-width: 0.8"/>
      </g>
     </g>
    </g>
    <g id="xtick_4">
     <g id="line2d_4">
      <g>
       <use xlink:href="#m19302189e4" x="152.481129" y="96.747437" style="stroke: #000000; stroke-width: 0.8"/>
      </g>
     </g>
    </g>
    <g id="xtick_5">
     <g id="line2d_5">
      <g>
       <use xlink:href="#m19302189e4" x="184.450508" y="96.747437" style="stroke: #000000; stroke-width: 0.8"/>
      </g>
     </g>
    </g>
    <g id="xtick_6">
     <g id="line2d_6">
      <g>
       <use xlink:href="#m19302189e4" x="216.419888" y="96.747437" style="stroke: #000000; stroke-width: 0.8"/>
      </g>
     </g>
    </g>
    <g id="xtick_7">
     <g id="line2d_7">
      <g>
       <use xlink:href="#m19302189e4" x="248.389268" y="96.747437" style="stroke: #000000; stroke-width: 0.8"/>
      </g>
     </g>
    </g>
    <g id="xtick_8">
     <g id="line2d_8">
      <g>
       <use xlink:href="#m19302189e4" x="280.358648" y="96.747437" style="stroke: #000000; stroke-width: 0.8"/>
      </g>
     </g>
    </g>
    <g id="xtick_9">
     <g id="line2d_9">
      <g>
       <use xlink:href="#m19302189e4" x="312.328027" y="96.747437" style="stroke: #000000; stroke-width: 0.8"/>
      </g>
     </g>
    </g>
   </g>
   <g id="matplotlib.axis_2">
    <g id="ytick_1">
     <g id="line2d_10">
      <defs>
       <path id="m8e4b75d67d" d="M 0 0 
L -3.5 0 
" style="stroke: #000000; stroke-width: 0.8"/>
      </defs>
      <g>
       <use xlink:href="#m8e4b75d67d" x="43.78125" y="92.677099" style="stroke: #000000; stroke-width: 0.8"/>
      </g>
     </g>
     <g id="text_1">
      <!-- 0 -->
      <g transform="translate(30.41875 96.476317) scale(0.1 -0.1)">
       <defs>
        <path id="DejaVuSans-30" d="M 2034 4250 
Q 1547 4250 1301 3770 
Q 1056 3291 1056 2328 
Q 1056 1369 1301 889 
Q 1547 409 2034 409 
Q 2525 409 2770 889 
Q 3016 1369 3016 2328 
Q 3016 3291 2770 3770 
Q 2525 4250 2034 4250 
z
M 2034 4750 
Q 2819 4750 3233 4129 
Q 3647 3509 3647 2328 
Q 3647 1150 3233 529 
Q 2819 -91 2034 -91 
Q 1250 -91 836 529 
Q 422 1150 422 2328 
Q 422 3509 836 4129 
Q 1250 4750 2034 4750 
z
" transform="scale(0.015625)"/>
       </defs>
       <use xlink:href="#DejaVuSans-30"/>
      </g>
     </g>
    </g>
    <g id="ytick_2">
     <g id="line2d_11">
      <g>
       <use xlink:href="#m8e4b75d67d" x="43.78125" y="51.973718" style="stroke: #000000; stroke-width: 0.8"/>
      </g>
     </g>
     <g id="text_2">
      <!-- 5 -->
      <g transform="translate(30.41875 55.772937) scale(0.1 -0.1)">
       <defs>
        <path id="DejaVuSans-35" d="M 691 4666 
L 3169 4666 
L 3169 4134 
L 1269 4134 
L 1269 2991 
Q 1406 3038 1543 3061 
Q 1681 3084 1819 3084 
Q 2600 3084 3056 2656 
Q 3513 2228 3513 1497 
Q 3513 744 3044 326 
Q 2575 -91 1722 -91 
Q 1428 -91 1123 -41 
Q 819 9 494 109 
L 494 744 
Q 775 591 1075 516 
Q 1375 441 1709 441 
Q 2250 441 2565 725 
Q 2881 1009 2881 1497 
Q 2881 1984 2565 2268 
Q 2250 2553 1709 2553 
Q 1456 2553 1204 2497 
Q 953 2441 691 2322 
L 691 4666 
z
" transform="scale(0.015625)"/>
       </defs>
       <use xlink:href="#DejaVuSans-35"/>
      </g>
     </g>
    </g>
    <g id="ytick_3">
     <g id="line2d_12">
      <g>
       <use xlink:href="#m8e4b75d67d" x="43.78125" y="11.270338" style="stroke: #000000; stroke-width: 0.8"/>
      </g>
     </g>
     <g id="text_3">
      <!-- 10 -->
      <g transform="translate(24.05625 15.069557) scale(0.1 -0.1)">
       <defs>
        <path id="DejaVuSans-31" d="M 794 531 
L 1825 531 
L 1825 4091 
L 703 3866 
L 703 4441 
L 1819 4666 
L 2450 4666 
L 2450 531 
L 3481 531 
L 3481 0 
L 794 0 
L 794 531 
z
" transform="scale(0.015625)"/>
       </defs>
       <use xlink:href="#DejaVuSans-31"/>
       <use xlink:href="#DejaVuSans-30" transform="translate(63.623047 0)"/>
      </g>
     </g>
    </g>
    <g id="text_4">
     <!-- Extracellular lactose -->
     <g transform="translate(17.976562 102.945593) rotate(-90) scale(0.1 -0.1)">
      <defs>
       <path id="DejaVuSans-45" d="M 628 4666 
L 3578 4666 
L 3578 4134 
L 1259 4134 
L 1259 2753 
L 3481 2753 
L 3481 2222 
L 1259 2222 
L 1259 531 
L 3634 531 
L 3634 0 
L 628 0 
L 628 4666 
z
" transform="scale(0.015625)"/>
       <path id="DejaVuSans-78" d="M 3513 3500 
L 2247 1797 
L 3578 0 
L 2900 0 
L 1881 1375 
L 863 0 
L 184 0 
L 1544 1831 
L 300 3500 
L 978 3500 
L 1906 2253 
L 2834 3500 
L 3513 3500 
z
" transform="scale(0.015625)"/>
       <path id="DejaVuSans-74" d="M 1172 4494 
L 1172 3500 
L 2356 3500 
L 2356 3053 
L 1172 3053 
L 1172 1153 
Q 1172 725 1289 603 
Q 1406 481 1766 481 
L 2356 481 
L 2356 0 
L 1766 0 
Q 1100 0 847 248 
Q 594 497 594 1153 
L 594 3053 
L 172 3053 
L 172 3500 
L 594 3500 
L 594 4494 
L 1172 4494 
z
" transform="scale(0.015625)"/>
       <path id="DejaVuSans-72" d="M 2631 2963 
Q 2534 3019 2420 3045 
Q 2306 3072 2169 3072 
Q 1681 3072 1420 2755 
Q 1159 2438 1159 1844 
L 1159 0 
L 581 0 
L 581 3500 
L 1159 3500 
L 1159 2956 
Q 1341 3275 1631 3429 
Q 1922 3584 2338 3584 
Q 2397 3584 2469 3576 
Q 2541 3569 2628 3553 
L 2631 2963 
z
" transform="scale(0.015625)"/>
       <path id="DejaVuSans-61" d="M 2194 1759 
Q 1497 1759 1228 1600 
Q 959 1441 959 1056 
Q 959 750 1161 570 
Q 1363 391 1709 391 
Q 2188 391 2477 730 
Q 2766 1069 2766 1631 
L 2766 1759 
L 2194 1759 
z
M 3341 1997 
L 3341 0 
L 2766 0 
L 2766 531 
Q 2569 213 2275 61 
Q 1981 -91 1556 -91 
Q 1019 -91 701 211 
Q 384 513 384 1019 
Q 384 1609 779 1909 
Q 1175 2209 1959 2209 
L 2766 2209 
L 2766 2266 
Q 2766 2663 2505 2880 
Q 2244 3097 1772 3097 
Q 1472 3097 1187 3025 
Q 903 2953 641 2809 
L 641 3341 
Q 956 3463 1253 3523 
Q 1550 3584 1831 3584 
Q 2591 3584 2966 3190 
Q 3341 2797 3341 1997 
z
" transform="scale(0.015625)"/>
       <path id="DejaVuSans-63" d="M 3122 3366 
L 3122 2828 
Q 2878 2963 2633 3030 
Q 2388 3097 2138 3097 
Q 1578 3097 1268 2742 
Q 959 2388 959 1747 
Q 959 1106 1268 751 
Q 1578 397 2138 397 
Q 2388 397 2633 464 
Q 2878 531 3122 666 
L 3122 134 
Q 2881 22 2623 -34 
Q 2366 -91 2075 -91 
Q 1284 -91 818 406 
Q 353 903 353 1747 
Q 353 2603 823 3093 
Q 1294 3584 2113 3584 
Q 2378 3584 2631 3529 
Q 2884 3475 3122 3366 
z
" transform="scale(0.015625)"/>
       <path id="DejaVuSans-65" d="M 3597 1894 
L 3597 1613 
L 953 1613 
Q 991 1019 1311 708 
Q 1631 397 2203 397 
Q 2534 397 2845 478 
Q 3156 559 3463 722 
L 3463 178 
Q 3153 47 2828 -22 
Q 2503 -91 2169 -91 
Q 1331 -91 842 396 
Q 353 884 353 1716 
Q 353 2575 817 3079 
Q 1281 3584 2069 3584 
Q 2775 3584 3186 3129 
Q 3597 2675 3597 1894 
z
M 3022 2063 
Q 3016 2534 2758 2815 
Q 2500 3097 2075 3097 
Q 1594 3097 1305 2825 
Q 1016 2553 972 2059 
L 3022 2063 
z
" transform="scale(0.015625)"/>
       <path id="DejaVuSans-6c" d="M 603 4863 
L 1178 4863 
L 1178 0 
L 603 0 
L 603 4863 
z
" transform="scale(0.015625)"/>
       <path id="DejaVuSans-75" d="M 544 1381 
L 544 3500 
L 1119 3500 
L 1119 1403 
Q 1119 906 1312 657 
Q 1506 409 1894 409 
Q 2359 409 2629 706 
Q 2900 1003 2900 1516 
L 2900 3500 
L 3475 3500 
L 3475 0 
L 2900 0 
L 2900 538 
Q 2691 219 2414 64 
Q 2138 -91 1772 -91 
Q 1169 -91 856 284 
Q 544 659 544 1381 
z
M 1991 3584 
L 1991 3584 
z
" transform="scale(0.015625)"/>
       <path id="DejaVuSans-20" transform="scale(0.015625)"/>
       <path id="DejaVuSans-6f" d="M 1959 3097 
Q 1497 3097 1228 2736 
Q 959 2375 959 1747 
Q 959 1119 1226 758 
Q 1494 397 1959 397 
Q 2419 397 2687 759 
Q 2956 1122 2956 1747 
Q 2956 2369 2687 2733 
Q 2419 3097 1959 3097 
z
M 1959 3584 
Q 2709 3584 3137 3096 
Q 3566 2609 3566 1747 
Q 3566 888 3137 398 
Q 2709 -91 1959 -91 
Q 1206 -91 779 398 
Q 353 888 353 1747 
Q 353 2609 779 3096 
Q 1206 3584 1959 3584 
z
" transform="scale(0.015625)"/>
       <path id="DejaVuSans-73" d="M 2834 3397 
L 2834 2853 
Q 2591 2978 2328 3040 
Q 2066 3103 1784 3103 
Q 1356 3103 1142 2972 
Q 928 2841 928 2578 
Q 928 2378 1081 2264 
Q 1234 2150 1697 2047 
L 1894 2003 
Q 2506 1872 2764 1633 
Q 3022 1394 3022 966 
Q 3022 478 2636 193 
Q 2250 -91 1575 -91 
Q 1294 -91 989 -36 
Q 684 19 347 128 
L 347 722 
Q 666 556 975 473 
Q 1284 391 1588 391 
Q 1994 391 2212 530 
Q 2431 669 2431 922 
Q 2431 1156 2273 1281 
Q 2116 1406 1581 1522 
L 1381 1569 
Q 847 1681 609 1914 
Q 372 2147 372 2553 
Q 372 3047 722 3315 
Q 1072 3584 1716 3584 
Q 2034 3584 2315 3537 
Q 2597 3491 2834 3397 
z
" transform="scale(0.015625)"/>
      </defs>
      <use xlink:href="#DejaVuSans-45"/>
      <use xlink:href="#DejaVuSans-78" transform="translate(63.183594 0)"/>
      <use xlink:href="#DejaVuSans-74" transform="translate(122.363281 0)"/>
      <use xlink:href="#DejaVuSans-72" transform="translate(161.572266 0)"/>
      <use xlink:href="#DejaVuSans-61" transform="translate(202.685547 0)"/>
      <use xlink:href="#DejaVuSans-63" transform="translate(263.964844 0)"/>
      <use xlink:href="#DejaVuSans-65" transform="translate(318.945312 0)"/>
      <use xlink:href="#DejaVuSans-6c" transform="translate(380.46875 0)"/>
      <use xlink:href="#DejaVuSans-6c" transform="translate(408.251953 0)"/>
      <use xlink:href="#DejaVuSans-75" transform="translate(436.035156 0)"/>
      <use xlink:href="#DejaVuSans-6c" transform="translate(499.414062 0)"/>
      <use xlink:href="#DejaVuSans-61" transform="translate(527.197266 0)"/>
      <use xlink:href="#DejaVuSans-72" transform="translate(588.476562 0)"/>
      <use xlink:href="#DejaVuSans-20" transform="translate(629.589844 0)"/>
      <use xlink:href="#DejaVuSans-6c" transform="translate(661.376953 0)"/>
      <use xlink:href="#DejaVuSans-61" transform="translate(689.160156 0)"/>
      <use xlink:href="#DejaVuSans-63" transform="translate(750.439453 0)"/>
      <use xlink:href="#DejaVuSans-74" transform="translate(805.419922 0)"/>
      <use xlink:href="#DejaVuSans-6f" transform="translate(844.628906 0)"/>
      <use xlink:href="#DejaVuSans-73" transform="translate(905.810547 0)"/>
      <use xlink:href="#DejaVuSans-65" transform="translate(957.910156 0)"/>
     </g>
    </g>
   </g>
   <g id="line2d_13">
    <path d="M 56.57299 92.677099 
L 155.205986 92.677099 
L 155.448731 11.270338 
L 155.554708 11.514558 
L 155.861236 12.410033 
L 155.976974 12.817066 
L 155.993501 12.898473 
L 156.198214 13.549727 
L 156.222328 13.631134 
L 156.370796 13.793948 
L 156.5207 13.875354 
L 157.158916 16.073337 
L 157.176376 16.154744 
L 157.460843 16.968811 
L 157.685572 17.294438 
L 157.734417 17.701472 
L 157.852609 18.108506 
L 158.493704 18.189913 
L 158.66336 19.329607 
L 158.85483 20.713522 
L 159.173559 25.109487 
L 159.29238 26.493402 
L 159.430553 27.144656 
L 159.631422 28.609978 
L 159.78129 29.749673 
L 159.805385 29.831079 
L 159.919714 30.156706 
L 160.150885 30.889367 
L 160.345298 30.970774 
L 160.753442 32.354689 
L 160.89196 32.436096 
L 161.012963 32.598909 
L 161.652797 32.680316 
L 161.86531 33.168757 
L 161.946965 33.250163 
L 162.065276 33.738604 
L 162.196306 34.389858 
L 162.295651 34.634078 
L 162.382695 34.715485 
L 162.535051 35.041112 
L 162.636893 35.122519 
L 162.759367 35.285332 
L 163.104434 35.366739 
L 163.382016 36.34362 
L 163.493497 36.587841 
L 163.585225 36.669247 
L 163.806329 37.320501 
L 163.968324 37.401908 
L 164.280384 37.808942 
L 164.347344 37.890349 
L 164.470267 38.053162 
L 164.546493 38.134569 
L 164.690962 38.297383 
L 164.749978 38.378789 
L 164.858604 38.948637 
L 164.889967 39.030043 
L 165.135604 39.762704 
L 165.675741 41.228026 
L 165.82925 42.774754 
L 166.052273 43.507415 
L 166.544572 45.949618 
L 166.725318 47.577753 
L 166.975194 50.18277 
L 167.083137 50.834024 
L 167.300317 51.973718 
L 167.336214 52.055125 
L 167.450596 52.869193 
L 167.482574 52.950599 
L 167.612279 53.601854 
L 167.883931 54.822955 
L 168.053881 55.96265 
L 168.082272 56.044056 
L 168.24059 56.858124 
L 168.353852 57.346565 
L 168.385564 57.427971 
L 168.487922 58.242039 
L 168.523451 58.323446 
L 168.69789 58.730479 
L 168.782553 58.811886 
L 168.866964 58.9747 
L 168.96704 59.056107 
L 169.248168 59.625954 
L 169.283873 59.707361 
L 169.426006 60.277208 
L 169.440389 60.358615 
L 169.551686 60.521428 
L 169.619127 60.602835 
L 169.720539 60.765648 
L 170.007498 60.847055 
L 170.253414 61.172682 
L 170.279118 61.254089 
L 170.626098 61.74253 
L 170.777317 61.823936 
L 170.885148 61.98675 
L 170.983551 62.068157 
L 171.304521 62.800817 
L 171.320831 62.882224 
L 171.453691 63.045038 
L 171.55825 63.126445 
L 171.688756 63.696292 
L 171.734613 63.777699 
L 171.843897 63.940512 
L 171.864028 64.021919 
L 172.040108 64.673173 
L 172.18955 64.75458 
L 172.290391 64.835987 
L 172.339748 64.917393 
L 172.446905 65.161614 
L 172.6844 66.626935 
L 172.722716 66.708342 
L 172.898547 67.196783 
L 172.968118 67.278189 
L 173.069166 67.359596 
L 173.232974 67.441003 
L 173.464702 67.52241 
L 173.608249 67.76663 
L 174.028017 68.25507 
L 174.888273 68.336477 
L 174.99367 68.417884 
L 175.256664 68.499291 
L 175.461893 68.824918 
L 175.501504 68.906325 
L 175.744239 69.313358 
L 175.784983 69.394765 
L 175.994319 69.883206 
L 176.211854 69.964612 
L 176.290894 70.046019 
L 176.5218 70.127426 
L 176.644849 70.290239 
L 177.83379 70.371646 
L 177.855197 70.453053 
L 178.554428 70.53446 
L 178.648212 70.615867 
L 179.145256 70.697273 
L 179.196436 70.941494 
L 179.439186 71.0229 
L 179.638724 71.104307 
L 179.750257 71.267121 
L 179.974254 71.429934 
L 180.323593 71.511341 
L 180.49078 71.999781 
L 180.822452 72.081188 
L 180.885224 72.244002 
L 181.576907 72.325408 
L 181.663716 72.406815 
L 181.858235 72.488222 
L 182.166307 73.139476 
L 182.428433 73.220883 
L 182.53541 73.30229 
L 182.607757 73.627917 
L 182.683615 73.872137 
L 182.825197 73.953544 
L 182.936592 74.197764 
L 183.617123 75.825899 
L 183.711913 75.907306 
L 184.091129 76.31434 
L 184.92152 76.395747 
L 185.021795 76.477153 
L 185.544145 76.55856 
L 185.658867 76.80278 
L 185.698745 76.884187 
L 186.051057 77.372628 
L 186.148415 77.454034 
L 186.256456 77.535441 
L 186.441466 77.861068 
L 186.459589 77.942475 
L 186.596038 78.268102 
L 187.17118 78.675136 
L 187.616662 78.756543 
L 187.718321 79.08217 
L 187.889223 79.163576 
L 188.019891 79.489203 
L 188.15471 79.57061 
L 188.575976 80.221864 
L 188.7512 80.303271 
L 189.0907 80.710305 
L 189.252043 80.791712 
L 189.311707 80.873118 
L 189.444532 80.954525 
L 189.633805 81.280152 
L 189.867986 81.361559 
L 190.099974 81.687186 
L 190.195329 81.768593 
L 190.316623 82.09422 
L 190.590275 82.175627 
L 190.912256 82.501254 
L 191.031308 82.58266 
L 191.091853 82.664067 
L 191.18995 82.745474 
L 191.307644 83.071101 
L 191.402217 83.152508 
L 191.649489 83.396728 
L 191.999163 83.478135 
L 192.127317 83.559541 
L 192.429529 83.640948 
L 192.563389 83.885168 
L 192.651565 83.966575 
L 192.75997 84.047982 
L 192.846112 84.129389 
L 192.958544 84.210796 
L 193.013151 84.292202 
L 193.195133 84.373609 
L 193.47626 84.455016 
L 193.654294 84.617829 
L 193.815216 84.699236 
L 193.879612 84.780643 
L 194.389251 84.86205 
L 194.535332 85.10627 
L 194.57833 85.187677 
L 194.850455 85.269083 
L 195.06806 85.513304 
L 195.375842 85.59471 
L 195.467947 85.676117 
L 195.782731 85.757524 
L 196.345209 85.920338 
L 196.48769 86.083151 
L 200.502481 86.164558 
L 200.69226 86.245965 
L 201.445 86.327371 
L 201.63082 86.408778 
L 203.105664 86.490185 
L 203.359319 86.571592 
L 211.509977 86.652998 
L 211.721323 86.734405 
L 212.421128 86.815812 
L 212.755702 86.978625 
L 213.008758 87.060032 
L 213.095589 87.222846 
L 213.257604 87.304252 
L 213.328338 87.385659 
L 213.692604 87.467066 
L 213.830617 87.548473 
L 214.164751 87.629879 
L 214.37388 87.711286 
L 214.603653 87.792693 
L 214.953363 88.11832 
L 215.173505 88.199727 
L 215.287376 88.36254 
L 215.835366 88.443947 
L 215.972028 88.525354 
L 216.055537 88.606761 
L 216.111102 88.688167 
L 217.005549 88.769574 
L 217.200828 88.850981 
L 218.073054 88.932388 
L 218.138808 89.095201 
L 218.27138 89.176608 
L 218.513644 89.258015 
L 218.81469 89.339421 
L 219.114795 89.665048 
L 219.709329 89.746455 
L 219.859416 89.909269 
L 220.117397 89.990676 
L 220.853026 90.072082 
L 221.088408 90.234896 
L 223.347927 90.316303 
L 223.45519 90.397709 
L 224.019928 90.479116 
L 224.286271 90.560523 
L 224.912486 90.64193 
L 225.010122 90.804743 
L 225.587622 90.88615 
L 226.411117 90.967557 
L 228.505967 91.048963 
L 228.50708 91.13037 
L 229.876853 91.211777 
L 230.049356 91.37459 
L 280.392004 91.455997 
L 280.62679 91.537404 
L 302.546758 91.618811 
L 302.775454 91.700218 
L 304.361643 91.781624 
L 312.40778 91.863031 
L 312.40778 91.863031 
" clip-path="url(#p794aaec35f)" style="fill: none; stroke: #000000; stroke-width: 1.5; stroke-linecap: square"/>
   </g>
   <g id="patch_3">
    <path d="M 43.78125 96.747437 
L 43.78125 7.2 
" style="fill: none; stroke: #000000; stroke-width: 0.8; stroke-linejoin: miter; stroke-linecap: square"/>
   </g>
   <g id="patch_4">
    <path d="M 325.19952 96.747437 
L 325.19952 7.2 
" style="fill: none; stroke: #000000; stroke-width: 0.8; stroke-linejoin: miter; stroke-linecap: square"/>
   </g>
   <g id="patch_5">
    <path d="M 43.78125 96.747437 
L 325.19952 96.747437 
" style="fill: none; stroke: #000000; stroke-width: 0.8; stroke-linejoin: miter; stroke-linecap: square"/>
   </g>
   <g id="patch_6">
    <path d="M 43.78125 7.2 
L 325.19952 7.2 
" style="fill: none; stroke: #000000; stroke-width: 0.8; stroke-linejoin: miter; stroke-linecap: square"/>
   </g>
  </g>
  <g id="axes_2">
   <g id="patch_7">
    <path d="M 43.78125 195.795353 
L 325.19952 195.795353 
L 325.19952 106.247917 
L 43.78125 106.247917 
z
" style="fill: #ffffff"/>
   </g>
   <g id="matplotlib.axis_3">
    <g id="xtick_10">
     <g id="line2d_14">
      <g>
       <use xlink:href="#m19302189e4" x="56.57299" y="195.795353" style="stroke: #000000; stroke-width: 0.8"/>
      </g>
     </g>
    </g>
    <g id="xtick_11">
     <g id="line2d_15">
      <g>
       <use xlink:href="#m19302189e4" x="88.542369" y="195.795353" style="stroke: #000000; stroke-width: 0.8"/>
      </g>
     </g>
    </g>
    <g id="xtick_12">
     <g id="line2d_16">
      <g>
       <use xlink:href="#m19302189e4" x="120.511749" y="195.795353" style="stroke: #000000; stroke-width: 0.8"/>
      </g>
     </g>
    </g>
    <g id="xtick_13">
     <g id="line2d_17">
      <g>
       <use xlink:href="#m19302189e4" x="152.481129" y="195.795353" style="stroke: #000000; stroke-width: 0.8"/>
      </g>
     </g>
    </g>
    <g id="xtick_14">
     <g id="line2d_18">
      <g>
       <use xlink:href="#m19302189e4" x="184.450508" y="195.795353" style="stroke: #000000; stroke-width: 0.8"/>
      </g>
     </g>
    </g>
    <g id="xtick_15">
     <g id="line2d_19">
      <g>
       <use xlink:href="#m19302189e4" x="216.419888" y="195.795353" style="stroke: #000000; stroke-width: 0.8"/>
      </g>
     </g>
    </g>
    <g id="xtick_16">
     <g id="line2d_20">
      <g>
       <use xlink:href="#m19302189e4" x="248.389268" y="195.795353" style="stroke: #000000; stroke-width: 0.8"/>
      </g>
     </g>
    </g>
    <g id="xtick_17">
     <g id="line2d_21">
      <g>
       <use xlink:href="#m19302189e4" x="280.358648" y="195.795353" style="stroke: #000000; stroke-width: 0.8"/>
      </g>
     </g>
    </g>
    <g id="xtick_18">
     <g id="line2d_22">
      <g>
       <use xlink:href="#m19302189e4" x="312.328027" y="195.795353" style="stroke: #000000; stroke-width: 0.8"/>
      </g>
     </g>
    </g>
   </g>
   <g id="matplotlib.axis_4">
    <g id="ytick_4">
     <g id="line2d_23">
      <g>
       <use xlink:href="#m8e4b75d67d" x="43.78125" y="191.725015" style="stroke: #000000; stroke-width: 0.8"/>
      </g>
     </g>
     <g id="text_5">
      <!-- 0 -->
      <g transform="translate(30.41875 195.524234) scale(0.1 -0.1)">
       <use xlink:href="#DejaVuSans-30"/>
      </g>
     </g>
    </g>
    <g id="ytick_5">
     <g id="line2d_24">
      <g>
       <use xlink:href="#m8e4b75d67d" x="43.78125" y="151.021635" style="stroke: #000000; stroke-width: 0.8"/>
      </g>
     </g>
     <g id="text_6">
      <!-- 5 -->
      <g transform="translate(30.41875 154.820854) scale(0.1 -0.1)">
       <use xlink:href="#DejaVuSans-35"/>
      </g>
     </g>
    </g>
    <g id="ytick_6">
     <g id="line2d_25">
      <g>
       <use xlink:href="#m8e4b75d67d" x="43.78125" y="110.318255" style="stroke: #000000; stroke-width: 0.8"/>
      </g>
     </g>
     <g id="text_7">
      <!-- 10 -->
      <g transform="translate(24.05625 114.117473) scale(0.1 -0.1)">
       <use xlink:href="#DejaVuSans-31"/>
       <use xlink:href="#DejaVuSans-30" transform="translate(63.623047 0)"/>
      </g>
     </g>
    </g>
    <g id="text_8">
     <!-- LacY -->
     <g transform="translate(17.976563 162.67476) rotate(-90) scale(0.1 -0.1)">
      <defs>
       <path id="DejaVuSans-4c" d="M 628 4666 
L 1259 4666 
L 1259 531 
L 3531 531 
L 3531 0 
L 628 0 
L 628 4666 
z
" transform="scale(0.015625)"/>
       <path id="DejaVuSans-59" d="M -13 4666 
L 666 4666 
L 1959 2747 
L 3244 4666 
L 3922 4666 
L 2272 2222 
L 2272 0 
L 1638 0 
L 1638 2222 
L -13 4666 
z
" transform="scale(0.015625)"/>
      </defs>
      <use xlink:href="#DejaVuSans-4c"/>
      <use xlink:href="#DejaVuSans-61" transform="translate(55.712891 0)"/>
      <use xlink:href="#DejaVuSans-63" transform="translate(116.992188 0)"/>
      <use xlink:href="#DejaVuSans-59" transform="translate(171.972656 0)"/>
     </g>
    </g>
   </g>
   <g id="line2d_26">
    <path d="M 56.57299 110.318255 
L 56.76123 134.740283 
L 56.765971 126.599607 
L 56.926739 126.599607 
L 57.074199 142.880959 
L 57.193707 151.021635 
L 57.312348 151.021635 
L 57.501144 175.443663 
L 57.586948 175.443663 
L 57.758538 183.584339 
L 58.050578 191.725015 
L 71.602521 191.725015 
L 71.940138 183.584339 
L 72.076826 183.584339 
L 72.787314 191.725015 
L 76.042062 191.725015 
L 76.053784 183.584339 
L 76.358148 191.725015 
L 85.497129 191.725015 
L 85.788334 183.584339 
L 85.938827 191.725015 
L 86.134284 183.584339 
L 86.169617 191.725015 
L 86.430763 183.584339 
L 86.663736 183.584339 
L 86.810594 175.443663 
L 87.008043 167.302987 
L 87.587786 183.584339 
L 87.66657 183.584339 
L 88.317414 191.725015 
L 92.570037 191.725015 
L 92.913008 183.584339 
L 92.946661 175.443663 
L 93.089622 183.584339 
L 93.31168 167.302987 
L 93.394981 167.302987 
L 93.557648 183.584339 
L 93.903648 191.725015 
L 94.778868 191.725015 
L 95.087257 175.443663 
L 95.195917 175.443663 
L 95.584295 191.725015 
L 116.695252 191.725015 
L 116.737543 183.584339 
L 116.979554 175.443663 
L 117.275745 159.162311 
L 117.505121 159.162311 
L 117.711732 167.302987 
L 117.806075 175.443663 
L 118.059096 183.584339 
L 119.395525 183.584339 
L 119.532114 175.443663 
L 119.552375 183.584339 
L 119.607335 175.443663 
L 120.455318 175.443663 
L 120.811113 183.584339 
L 120.988432 183.584339 
L 121.1834 159.162311 
L 121.292411 167.302987 
L 121.948762 167.302987 
L 122.743816 175.443663 
L 122.99323 191.725015 
L 124.70134 191.725015 
L 125.31469 183.584339 
L 125.438067 183.584339 
L 125.708092 191.725015 
L 130.45203 191.725015 
L 130.585929 183.584339 
L 131.255267 183.584339 
L 131.587642 191.725015 
L 132.097786 191.725015 
L 132.114616 183.584339 
L 132.294691 175.443663 
L 132.423799 175.443663 
L 132.698722 191.725015 
L 133.028556 191.725015 
L 133.388596 183.584339 
L 133.64606 191.725015 
L 143.926389 191.725015 
L 144.893817 183.584339 
L 145.495526 191.725015 
L 155.205986 191.725015 
L 155.554708 183.584339 
L 156.296253 183.584339 
L 156.30651 175.443663 
L 156.370796 191.725015 
L 156.460359 191.725015 
L 156.592591 183.584339 
L 157.272209 183.584339 
L 157.35888 175.443663 
L 157.370079 183.584339 
L 157.389246 183.584339 
L 157.428399 191.725015 
L 157.460843 183.584339 
L 157.660604 183.584339 
L 157.746385 175.443663 
L 157.762307 183.584339 
L 157.815809 183.584339 
L 157.913367 191.725015 
L 158.230373 191.725015 
L 158.445811 183.584339 
L 158.564378 175.443663 
L 158.658028 175.443663 
L 158.751352 151.021635 
L 158.778486 159.162311 
L 158.885606 159.162311 
L 158.997217 151.021635 
L 159.040423 151.021635 
L 159.157139 167.302987 
L 159.209141 167.302987 
L 159.321086 159.162311 
L 159.39138 159.162311 
L 159.506682 167.302987 
L 159.939575 167.302987 
L 159.990421 151.021635 
L 160.025534 175.443663 
L 160.035771 175.443663 
L 160.085933 175.443663 
L 160.207716 191.725015 
L 160.284992 191.725015 
L 160.428319 175.443663 
L 160.589981 175.443663 
L 160.700402 183.584339 
L 160.945216 183.584339 
L 161.09527 191.725015 
L 161.60792 191.725015 
L 161.717809 183.584339 
L 161.949749 183.584339 
L 162.065276 175.443663 
L 162.233136 175.443663 
L 162.292594 183.584339 
L 162.342561 175.443663 
L 162.416615 175.443663 
L 162.535051 183.584339 
L 162.65579 183.584339 
L 162.759367 191.725015 
L 163.051986 191.725015 
L 163.155466 183.584339 
L 163.192536 183.584339 
L 163.312566 175.443663 
L 163.584548 175.443663 
L 163.637708 167.302987 
L 163.687212 183.584339 
L 163.737382 183.584339 
L 163.806329 191.725015 
L 163.905915 191.725015 
L 164.052743 183.584339 
L 164.118766 183.584339 
L 164.168673 191.725015 
L 164.222987 183.584339 
L 164.280384 183.584339 
L 164.420227 191.725015 
L 164.458395 191.725015 
L 164.562473 183.584339 
L 164.598914 191.725015 
L 164.667333 183.584339 
L 164.770405 159.162311 
L 164.849851 159.162311 
L 164.948255 167.302987 
L 165.191469 167.302987 
L 165.294106 175.443663 
L 165.423297 175.443663 
L 165.472134 167.302987 
L 165.533105 175.443663 
L 165.685702 175.443663 
L 165.815024 151.021635 
L 165.922453 151.021635 
L 166.075878 167.302987 
L 166.290405 167.302987 
L 166.382479 159.162311 
L 166.466432 159.162311 
L 166.571122 142.880959 
L 166.712199 142.880959 
L 166.712795 151.021635 
L 166.749848 134.740283 
L 166.822699 134.740283 
L 166.854036 134.740283 
L 166.976808 151.021635 
L 167.070897 151.021635 
L 167.182995 159.162311 
L 167.300317 167.302987 
L 167.310423 167.302987 
L 167.426318 159.162311 
L 167.438127 159.162311 
L 167.552239 167.302987 
L 167.596019 167.302987 
L 167.684965 175.443663 
L 167.849645 175.443663 
L 167.939328 151.021635 
L 167.961893 159.162311 
L 167.982063 159.162311 
L 168.011103 151.021635 
L 168.082272 159.162311 
L 168.169018 159.162311 
L 168.205334 151.021635 
L 168.280055 159.162311 
L 168.324132 159.162311 
L 168.444632 151.021635 
L 168.465624 151.021635 
L 168.585236 183.584339 
L 168.655131 183.584339 
L 168.759769 175.443663 
L 169.178774 175.443663 
L 169.202484 167.302987 
L 169.289182 175.443663 
L 169.304556 175.443663 
L 169.337837 167.302987 
L 169.414774 175.443663 
L 169.482888 175.443663 
L 169.590619 183.584339 
L 169.750596 183.584339 
L 169.837065 191.725015 
L 169.962758 191.725015 
L 170.098852 183.584339 
L 170.175199 183.584339 
L 170.279118 175.443663 
L 170.633605 175.443663 
L 170.730435 183.584339 
L 170.823266 183.584339 
L 170.983551 175.443663 
L 171.116162 175.443663 
L 171.225666 167.302987 
L 171.479634 167.302987 
L 171.617313 159.162311 
L 171.732692 175.443663 
L 171.767245 175.443663 
L 171.903286 167.302987 
L 171.993979 175.443663 
L 172.290391 175.443663 
L 172.464868 151.021635 
L 172.504111 151.021635 
L 172.593315 142.880959 
L 172.612626 151.021635 
L 172.650187 151.021635 
L 172.863518 183.584339 
L 173.964594 183.584339 
L 173.984588 175.443663 
L 174.028017 183.584339 
L 174.190885 183.584339 
L 174.288966 191.725015 
L 174.43319 191.725015 
L 174.548649 183.584339 
L 174.662388 191.725015 
L 174.867307 191.725015 
L 174.903083 183.584339 
L 174.99367 191.725015 
L 175.280408 167.302987 
L 175.384451 167.302987 
L 175.425717 175.443663 
L 175.452601 159.162311 
L 175.473203 167.302987 
L 175.660161 167.302987 
L 175.75489 159.162311 
L 175.768019 167.302987 
L 176.010598 167.302987 
L 176.071387 183.584339 
L 176.078472 175.443663 
L 176.221584 175.443663 
L 176.333606 191.725015 
L 176.367496 183.584339 
L 176.6652 183.584339 
L 176.729746 191.725015 
L 177.58579 191.725015 
L 177.754494 183.584339 
L 178.777575 183.584339 
L 178.800638 191.725015 
L 178.970117 183.584339 
L 178.979168 175.443663 
L 179.026189 191.725015 
L 179.033753 183.584339 
L 179.109999 183.584339 
L 179.196436 175.443663 
L 179.374284 175.443663 
L 179.439186 183.584339 
L 180.818609 183.584339 
L 180.82843 175.443663 
L 180.871475 191.725015 
L 180.885224 191.725015 
L 181.444783 191.725015 
L 181.772797 167.302987 
L 181.950832 175.443663 
L 182.122501 175.443663 
L 182.191241 183.584339 
L 182.225078 175.443663 
L 182.354275 191.725015 
L 182.633337 159.162311 
L 182.65622 159.162311 
L 182.732053 167.302987 
L 183.157429 167.302987 
L 183.287134 159.162311 
L 183.595773 159.162311 
L 183.711913 167.302987 
L 183.832174 167.302987 
L 183.999338 191.725015 
L 184.362935 191.725015 
L 184.576663 183.584339 
L 184.821769 183.584339 
L 184.899579 175.443663 
L 184.92152 183.584339 
L 185.021795 183.584339 
L 185.195073 191.725015 
L 185.587178 175.443663 
L 185.975387 175.443663 
L 186.051057 183.584339 
L 186.166455 183.584339 
L 186.561641 151.021635 
L 186.596038 167.302987 
L 186.718803 167.302987 
L 186.826485 175.443663 
L 187.121933 175.443663 
L 187.197781 183.584339 
L 187.361003 183.584339 
L 187.671225 167.302987 
L 187.718321 175.443663 
L 187.770225 167.302987 
L 187.809779 167.302987 
L 187.818081 175.443663 
L 187.899318 167.302987 
L 187.967709 167.302987 
L 188.00157 175.443663 
L 188.019891 167.302987 
L 188.130894 167.302987 
L 188.217651 159.162311 
L 188.310475 159.162311 
L 188.430013 167.302987 
L 188.490089 159.162311 
L 188.522797 167.302987 
L 189.299281 167.302987 
L 189.423075 151.021635 
L 189.477281 151.021635 
L 189.683304 167.302987 
L 189.736569 167.302987 
L 189.867986 159.162311 
L 189.996436 159.162311 
L 190.031763 151.021635 
L 190.099974 159.162311 
L 190.189244 159.162311 
L 190.307598 142.880959 
L 190.316623 142.880959 
L 190.391176 151.021635 
L 190.494328 151.021635 
L 190.6427 159.162311 
L 190.750985 151.021635 
L 190.80891 151.021635 
L 190.912256 167.302987 
L 190.942306 159.162311 
L 190.974317 159.162311 
L 191.043806 167.302987 
L 191.193148 159.162311 
L 191.274487 159.162311 
L 191.371598 167.302987 
L 191.454773 175.443663 
L 191.700701 175.443663 
L 191.726504 183.584339 
L 191.757521 167.302987 
L 191.776355 167.302987 
L 191.802427 167.302987 
L 191.870132 183.584339 
L 192.127317 167.302987 
L 192.163549 175.443663 
L 192.317739 175.443663 
L 192.39994 159.162311 
L 192.44855 167.302987 
L 192.638485 167.302987 
L 192.690242 159.162311 
L 192.845729 159.162311 
L 192.888683 175.443663 
L 192.940452 167.302987 
L 193.639885 167.302987 
L 193.748805 159.162311 
L 193.864953 175.443663 
L 193.879612 175.443663 
L 194.018427 183.584339 
L 196.64946 183.584339 
L 196.702609 191.725015 
L 200.011671 191.725015 
L 200.453151 183.584339 
L 200.563699 175.443663 
L 200.69226 175.443663 
L 200.839327 183.584339 
L 200.992352 175.443663 
L 201.120427 175.443663 
L 201.306369 167.302987 
L 201.505288 183.584339 
L 201.569912 183.584339 
L 201.670764 191.725015 
L 201.938788 183.584339 
L 202.217435 167.302987 
L 202.366407 183.584339 
L 203.279888 183.584339 
L 203.359319 191.725015 
L 211.188948 191.725015 
L 211.509977 175.443663 
L 211.902236 175.443663 
L 212.214646 183.584339 
L 212.421128 159.162311 
L 212.531095 159.162311 
L 212.728639 167.302987 
L 212.855145 159.162311 
L 212.899187 159.162311 
L 212.988085 151.021635 
L 212.99789 159.162311 
L 213.095589 167.302987 
L 213.137325 175.443663 
L 213.163039 167.302987 
L 213.296001 159.162311 
L 213.328338 159.162311 
L 213.492816 175.443663 
L 213.585115 183.584339 
L 213.672581 183.584339 
L 213.769221 167.302987 
L 213.830617 167.302987 
L 214.094934 142.880959 
L 214.164751 151.021635 
L 214.238369 151.021635 
L 214.250469 159.162311 
L 214.403373 167.302987 
L 214.577739 151.021635 
L 214.750763 151.021635 
L 214.874335 167.302987 
L 215.257966 167.302987 
L 215.368072 175.443663 
L 215.95272 175.443663 
L 216.057231 183.584339 
L 216.085832 183.584339 
L 216.111102 175.443663 
L 216.28364 167.302987 
L 216.318292 183.584339 
L 216.507329 183.584339 
L 216.643053 175.443663 
L 216.734743 183.584339 
L 217.380315 183.584339 
L 217.762933 175.443663 
L 217.797436 183.584339 
L 217.799169 175.443663 
L 217.849236 167.302987 
L 217.88391 175.443663 
L 218.374872 175.443663 
L 218.508638 167.302987 
L 218.550241 175.443663 
L 218.588478 167.302987 
L 218.634802 159.162311 
L 218.81469 167.302987 
L 218.923803 167.302987 
L 218.942191 159.162311 
L 218.954605 167.302987 
L 219.114795 159.162311 
L 219.225231 175.443663 
L 219.507182 175.443663 
L 219.606798 167.302987 
L 219.744692 175.443663 
L 220.108688 175.443663 
L 220.117397 167.302987 
L 220.266233 183.584339 
L 220.340163 175.443663 
L 220.461341 175.443663 
L 220.5205 183.584339 
L 220.768601 159.162311 
L 220.77966 151.021635 
L 220.838441 167.302987 
L 220.853026 167.302987 
L 220.905577 167.302987 
L 221.170666 191.725015 
L 221.570347 191.725015 
L 221.744904 183.584339 
L 221.997045 175.443663 
L 222.074099 167.302987 
L 222.194981 167.302987 
L 222.28571 159.162311 
L 222.513548 175.443663 
L 222.648861 183.584339 
L 222.697765 175.443663 
L 222.712255 183.584339 
L 222.820603 191.725015 
L 223.055359 191.725015 
L 223.345773 175.443663 
L 223.45519 183.584339 
L 223.567167 175.443663 
L 223.760223 175.443663 
L 223.918268 167.302987 
L 224.019928 159.162311 
L 224.119982 159.162311 
L 224.159544 167.302987 
L 224.737118 167.302987 
L 225.010122 175.443663 
L 226.03904 175.443663 
L 226.182593 183.584339 
L 226.940868 183.584339 
L 227.061219 175.443663 
L 227.113278 183.584339 
L 227.125232 175.443663 
L 227.175239 167.302987 
L 227.367186 167.302987 
L 227.444385 183.584339 
L 227.584071 175.443663 
L 227.940355 175.443663 
L 228.051629 183.584339 
L 228.192188 167.302987 
L 228.431007 151.021635 
L 228.49829 151.021635 
L 228.50708 159.162311 
L 228.727255 151.021635 
L 228.851647 167.302987 
L 228.894681 159.162311 
L 229.180229 175.443663 
L 229.365101 175.443663 
L 229.573516 183.584339 
L 229.938107 183.584339 
L 230.049356 191.725015 
L 237.62228 191.725015 
L 238.024953 175.443663 
L 238.04793 183.584339 
L 238.582593 183.584339 
L 240.294559 191.725015 
L 241.734739 191.725015 
L 241.943417 175.443663 
L 242.099254 183.584339 
L 242.291468 183.584339 
L 242.436946 191.725015 
L 248.075384 191.725015 
L 248.10115 183.584339 
L 248.713555 183.584339 
L 248.718322 191.725015 
L 272.132725 191.725015 
L 272.670545 183.584339 
L 272.767567 191.725015 
L 279.442901 191.725015 
L 280.187806 183.584339 
L 280.230443 175.443663 
L 280.500944 167.302987 
L 280.618741 175.443663 
L 280.702234 167.302987 
L 280.873998 167.302987 
L 280.882697 175.443663 
L 281.028203 175.443663 
L 281.139985 183.584339 
L 281.688583 191.725015 
L 297.731523 191.725015 
L 298.202938 183.584339 
L 298.475641 175.443663 
L 298.57643 167.302987 
L 298.581642 175.443663 
L 298.687045 183.584339 
L 299.295181 183.584339 
L 299.621016 191.725015 
L 302.077424 191.725015 
L 302.250303 183.584339 
L 303.671257 183.584339 
L 304.361643 191.725015 
L 308.756287 191.725015 
L 308.791968 183.584339 
L 308.794988 191.725015 
L 308.98082 183.584339 
L 309.363701 175.443663 
L 309.59782 191.725015 
L 309.921065 167.302987 
L 310.429629 167.302987 
L 310.569008 175.443663 
L 311.145577 183.584339 
L 311.316055 191.725015 
L 312.40778 191.725015 
L 312.40778 191.725015 
" clip-path="url(#p5e52efc28d)" style="fill: none; stroke: #000000; stroke-width: 1.5; stroke-linecap: square"/>
   </g>
   <g id="patch_8">
    <path d="M 43.78125 195.795353 
L 43.78125 106.247917 
" style="fill: none; stroke: #000000; stroke-width: 0.8; stroke-linejoin: miter; stroke-linecap: square"/>
   </g>
   <g id="patch_9">
    <path d="M 325.19952 195.795353 
L 325.19952 106.247917 
" style="fill: none; stroke: #000000; stroke-width: 0.8; stroke-linejoin: miter; stroke-linecap: square"/>
   </g>
   <g id="patch_10">
    <path d="M 43.78125 195.795353 
L 325.19952 195.795353 
" style="fill: none; stroke: #000000; stroke-width: 0.8; stroke-linejoin: miter; stroke-linecap: square"/>
   </g>
   <g id="patch_11">
    <path d="M 43.78125 106.247917 
L 325.19952 106.247917 
" style="fill: none; stroke: #000000; stroke-width: 0.8; stroke-linejoin: miter; stroke-linecap: square"/>
   </g>
  </g>
  <g id="axes_3">
   <g id="patch_12">
    <path d="M 43.78125 294.84327 
L 325.19952 294.84327 
L 325.19952 205.295833 
L 43.78125 205.295833 
z
" style="fill: #ffffff"/>
   </g>
   <g id="matplotlib.axis_5">
    <g id="xtick_19">
     <g id="line2d_27">
      <g>
       <use xlink:href="#m19302189e4" x="56.57299" y="294.84327" style="stroke: #000000; stroke-width: 0.8"/>
      </g>
     </g>
     <g id="text_9">
      <!-- 0 -->
      <g transform="translate(53.39174 309.441707) scale(0.1 -0.1)">
       <use xlink:href="#DejaVuSans-30"/>
      </g>
     </g>
    </g>
    <g id="xtick_20">
     <g id="line2d_28">
      <g>
       <use xlink:href="#m19302189e4" x="88.542369" y="294.84327" style="stroke: #000000; stroke-width: 0.8"/>
      </g>
     </g>
     <g id="text_10">
      <!-- 100 -->
      <g transform="translate(78.998619 309.441707) scale(0.1 -0.1)">
       <use xlink:href="#DejaVuSans-31"/>
       <use xlink:href="#DejaVuSans-30" transform="translate(63.623047 0)"/>
       <use xlink:href="#DejaVuSans-30" transform="translate(127.246094 0)"/>
      </g>
     </g>
    </g>
    <g id="xtick_21">
     <g id="line2d_29">
      <g>
       <use xlink:href="#m19302189e4" x="120.511749" y="294.84327" style="stroke: #000000; stroke-width: 0.8"/>
      </g>
     </g>
     <g id="text_11">
      <!-- 200 -->
      <g transform="translate(110.967999 309.441707) scale(0.1 -0.1)">
       <defs>
        <path id="DejaVuSans-32" d="M 1228 531 
L 3431 531 
L 3431 0 
L 469 0 
L 469 531 
Q 828 903 1448 1529 
Q 2069 2156 2228 2338 
Q 2531 2678 2651 2914 
Q 2772 3150 2772 3378 
Q 2772 3750 2511 3984 
Q 2250 4219 1831 4219 
Q 1534 4219 1204 4116 
Q 875 4013 500 3803 
L 500 4441 
Q 881 4594 1212 4672 
Q 1544 4750 1819 4750 
Q 2544 4750 2975 4387 
Q 3406 4025 3406 3419 
Q 3406 3131 3298 2873 
Q 3191 2616 2906 2266 
Q 2828 2175 2409 1742 
Q 1991 1309 1228 531 
z
" transform="scale(0.015625)"/>
       </defs>
       <use xlink:href="#DejaVuSans-32"/>
       <use xlink:href="#DejaVuSans-30" transform="translate(63.623047 0)"/>
       <use xlink:href="#DejaVuSans-30" transform="translate(127.246094 0)"/>
      </g>
     </g>
    </g>
    <g id="xtick_22">
     <g id="line2d_30">
      <g>
       <use xlink:href="#m19302189e4" x="152.481129" y="294.84327" style="stroke: #000000; stroke-width: 0.8"/>
      </g>
     </g>
     <g id="text_12">
      <!-- 300 -->
      <g transform="translate(142.937379 309.441707) scale(0.1 -0.1)">
       <defs>
        <path id="DejaVuSans-33" d="M 2597 2516 
Q 3050 2419 3304 2112 
Q 3559 1806 3559 1356 
Q 3559 666 3084 287 
Q 2609 -91 1734 -91 
Q 1441 -91 1130 -33 
Q 819 25 488 141 
L 488 750 
Q 750 597 1062 519 
Q 1375 441 1716 441 
Q 2309 441 2620 675 
Q 2931 909 2931 1356 
Q 2931 1769 2642 2001 
Q 2353 2234 1838 2234 
L 1294 2234 
L 1294 2753 
L 1863 2753 
Q 2328 2753 2575 2939 
Q 2822 3125 2822 3475 
Q 2822 3834 2567 4026 
Q 2313 4219 1838 4219 
Q 1578 4219 1281 4162 
Q 984 4106 628 3988 
L 628 4550 
Q 988 4650 1302 4700 
Q 1616 4750 1894 4750 
Q 2613 4750 3031 4423 
Q 3450 4097 3450 3541 
Q 3450 3153 3228 2886 
Q 3006 2619 2597 2516 
z
" transform="scale(0.015625)"/>
       </defs>
       <use xlink:href="#DejaVuSans-33"/>
       <use xlink:href="#DejaVuSans-30" transform="translate(63.623047 0)"/>
       <use xlink:href="#DejaVuSans-30" transform="translate(127.246094 0)"/>
      </g>
     </g>
    </g>
    <g id="xtick_23">
     <g id="line2d_31">
      <g>
       <use xlink:href="#m19302189e4" x="184.450508" y="294.84327" style="stroke: #000000; stroke-width: 0.8"/>
      </g>
     </g>
     <g id="text_13">
      <!-- 400 -->
      <g transform="translate(174.906758 309.441707) scale(0.1 -0.1)">
       <defs>
        <path id="DejaVuSans-34" d="M 2419 4116 
L 825 1625 
L 2419 1625 
L 2419 4116 
z
M 2253 4666 
L 3047 4666 
L 3047 1625 
L 3713 1625 
L 3713 1100 
L 3047 1100 
L 3047 0 
L 2419 0 
L 2419 1100 
L 313 1100 
L 313 1709 
L 2253 4666 
z
" transform="scale(0.015625)"/>
       </defs>
       <use xlink:href="#DejaVuSans-34"/>
       <use xlink:href="#DejaVuSans-30" transform="translate(63.623047 0)"/>
       <use xlink:href="#DejaVuSans-30" transform="translate(127.246094 0)"/>
      </g>
     </g>
    </g>
    <g id="xtick_24">
     <g id="line2d_32">
      <g>
       <use xlink:href="#m19302189e4" x="216.419888" y="294.84327" style="stroke: #000000; stroke-width: 0.8"/>
      </g>
     </g>
     <g id="text_14">
      <!-- 500 -->
      <g transform="translate(206.876138 309.441707) scale(0.1 -0.1)">
       <use xlink:href="#DejaVuSans-35"/>
       <use xlink:href="#DejaVuSans-30" transform="translate(63.623047 0)"/>
       <use xlink:href="#DejaVuSans-30" transform="translate(127.246094 0)"/>
      </g>
     </g>
    </g>
    <g id="xtick_25">
     <g id="line2d_33">
      <g>
       <use xlink:href="#m19302189e4" x="248.389268" y="294.84327" style="stroke: #000000; stroke-width: 0.8"/>
      </g>
     </g>
     <g id="text_15">
      <!-- 600 -->
      <g transform="translate(238.845518 309.441707) scale(0.1 -0.1)">
       <defs>
        <path id="DejaVuSans-36" d="M 2113 2584 
Q 1688 2584 1439 2293 
Q 1191 2003 1191 1497 
Q 1191 994 1439 701 
Q 1688 409 2113 409 
Q 2538 409 2786 701 
Q 3034 994 3034 1497 
Q 3034 2003 2786 2293 
Q 2538 2584 2113 2584 
z
M 3366 4563 
L 3366 3988 
Q 3128 4100 2886 4159 
Q 2644 4219 2406 4219 
Q 1781 4219 1451 3797 
Q 1122 3375 1075 2522 
Q 1259 2794 1537 2939 
Q 1816 3084 2150 3084 
Q 2853 3084 3261 2657 
Q 3669 2231 3669 1497 
Q 3669 778 3244 343 
Q 2819 -91 2113 -91 
Q 1303 -91 875 529 
Q 447 1150 447 2328 
Q 447 3434 972 4092 
Q 1497 4750 2381 4750 
Q 2619 4750 2861 4703 
Q 3103 4656 3366 4563 
z
" transform="scale(0.015625)"/>
       </defs>
       <use xlink:href="#DejaVuSans-36"/>
       <use xlink:href="#DejaVuSans-30" transform="translate(63.623047 0)"/>
       <use xlink:href="#DejaVuSans-30" transform="translate(127.246094 0)"/>
      </g>
     </g>
    </g>
    <g id="xtick_26">
     <g id="line2d_34">
      <g>
       <use xlink:href="#m19302189e4" x="280.358648" y="294.84327" style="stroke: #000000; stroke-width: 0.8"/>
      </g>
     </g>
     <g id="text_16">
      <!-- 700 -->
      <g transform="translate(270.814898 309.441707) scale(0.1 -0.1)">
       <defs>
        <path id="DejaVuSans-37" d="M 525 4666 
L 3525 4666 
L 3525 4397 
L 1831 0 
L 1172 0 
L 2766 4134 
L 525 4134 
L 525 4666 
z
" transform="scale(0.015625)"/>
       </defs>
       <use xlink:href="#DejaVuSans-37"/>
       <use xlink:href="#DejaVuSans-30" transform="translate(63.623047 0)"/>
       <use xlink:href="#DejaVuSans-30" transform="translate(127.246094 0)"/>
      </g>
     </g>
    </g>
    <g id="xtick_27">
     <g id="line2d_35">
      <g>
       <use xlink:href="#m19302189e4" x="312.328027" y="294.84327" style="stroke: #000000; stroke-width: 0.8"/>
      </g>
     </g>
     <g id="text_17">
      <!-- 800 -->
      <g transform="translate(302.784277 309.441707) scale(0.1 -0.1)">
       <defs>
        <path id="DejaVuSans-38" d="M 2034 2216 
Q 1584 2216 1326 1975 
Q 1069 1734 1069 1313 
Q 1069 891 1326 650 
Q 1584 409 2034 409 
Q 2484 409 2743 651 
Q 3003 894 3003 1313 
Q 3003 1734 2745 1975 
Q 2488 2216 2034 2216 
z
M 1403 2484 
Q 997 2584 770 2862 
Q 544 3141 544 3541 
Q 544 4100 942 4425 
Q 1341 4750 2034 4750 
Q 2731 4750 3128 4425 
Q 3525 4100 3525 3541 
Q 3525 3141 3298 2862 
Q 3072 2584 2669 2484 
Q 3125 2378 3379 2068 
Q 3634 1759 3634 1313 
Q 3634 634 3220 271 
Q 2806 -91 2034 -91 
Q 1263 -91 848 271 
Q 434 634 434 1313 
Q 434 1759 690 2068 
Q 947 2378 1403 2484 
z
M 1172 3481 
Q 1172 3119 1398 2916 
Q 1625 2713 2034 2713 
Q 2441 2713 2670 2916 
Q 2900 3119 2900 3481 
Q 2900 3844 2670 4047 
Q 2441 4250 2034 4250 
Q 1625 4250 1398 4047 
Q 1172 3844 1172 3481 
z
" transform="scale(0.015625)"/>
       </defs>
       <use xlink:href="#DejaVuSans-38"/>
       <use xlink:href="#DejaVuSans-30" transform="translate(63.623047 0)"/>
       <use xlink:href="#DejaVuSans-30" transform="translate(127.246094 0)"/>
      </g>
     </g>
    </g>
    <g id="text_18">
     <!-- Time -->
     <g transform="translate(172.256791 323.119832) scale(0.1 -0.1)">
      <defs>
       <path id="DejaVuSans-54" d="M -19 4666 
L 3928 4666 
L 3928 4134 
L 2272 4134 
L 2272 0 
L 1638 0 
L 1638 4134 
L -19 4134 
L -19 4666 
z
" transform="scale(0.015625)"/>
       <path id="DejaVuSans-69" d="M 603 3500 
L 1178 3500 
L 1178 0 
L 603 0 
L 603 3500 
z
M 603 4863 
L 1178 4863 
L 1178 4134 
L 603 4134 
L 603 4863 
z
" transform="scale(0.015625)"/>
       <path id="DejaVuSans-6d" d="M 3328 2828 
Q 3544 3216 3844 3400 
Q 4144 3584 4550 3584 
Q 5097 3584 5394 3201 
Q 5691 2819 5691 2113 
L 5691 0 
L 5113 0 
L 5113 2094 
Q 5113 2597 4934 2840 
Q 4756 3084 4391 3084 
Q 3944 3084 3684 2787 
Q 3425 2491 3425 1978 
L 3425 0 
L 2847 0 
L 2847 2094 
Q 2847 2600 2669 2842 
Q 2491 3084 2119 3084 
Q 1678 3084 1418 2786 
Q 1159 2488 1159 1978 
L 1159 0 
L 581 0 
L 581 3500 
L 1159 3500 
L 1159 2956 
Q 1356 3278 1631 3431 
Q 1906 3584 2284 3584 
Q 2666 3584 2933 3390 
Q 3200 3197 3328 2828 
z
" transform="scale(0.015625)"/>
      </defs>
      <use xlink:href="#DejaVuSans-54"/>
      <use xlink:href="#DejaVuSans-69" transform="translate(57.958984 0)"/>
      <use xlink:href="#DejaVuSans-6d" transform="translate(85.742188 0)"/>
      <use xlink:href="#DejaVuSans-65" transform="translate(183.154297 0)"/>
     </g>
    </g>
   </g>
   <g id="matplotlib.axis_6">
    <g id="ytick_7">
     <g id="line2d_36">
      <g>
       <use xlink:href="#m8e4b75d67d" x="43.78125" y="290.772932" style="stroke: #000000; stroke-width: 0.8"/>
      </g>
     </g>
     <g id="text_19">
      <!-- 0.0 -->
      <g transform="translate(20.878125 294.572151) scale(0.1 -0.1)">
       <defs>
        <path id="DejaVuSans-2e" d="M 684 794 
L 1344 794 
L 1344 0 
L 684 0 
L 684 794 
z
" transform="scale(0.015625)"/>
       </defs>
       <use xlink:href="#DejaVuSans-30"/>
       <use xlink:href="#DejaVuSans-2e" transform="translate(63.623047 0)"/>
       <use xlink:href="#DejaVuSans-30" transform="translate(95.410156 0)"/>
      </g>
     </g>
    </g>
    <g id="ytick_8">
     <g id="line2d_37">
      <g>
       <use xlink:href="#m8e4b75d67d" x="43.78125" y="250.069552" style="stroke: #000000; stroke-width: 0.8"/>
      </g>
     </g>
     <g id="text_20">
      <!-- 0.5 -->
      <g transform="translate(20.878125 253.86877) scale(0.1 -0.1)">
       <use xlink:href="#DejaVuSans-30"/>
       <use xlink:href="#DejaVuSans-2e" transform="translate(63.623047 0)"/>
       <use xlink:href="#DejaVuSans-35" transform="translate(95.410156 0)"/>
      </g>
     </g>
    </g>
    <g id="ytick_9">
     <g id="line2d_38">
      <g>
       <use xlink:href="#m8e4b75d67d" x="43.78125" y="209.366171" style="stroke: #000000; stroke-width: 0.8"/>
      </g>
     </g>
     <g id="text_21">
      <!-- 1.0 -->
      <g transform="translate(20.878125 213.16539) scale(0.1 -0.1)">
       <use xlink:href="#DejaVuSans-31"/>
       <use xlink:href="#DejaVuSans-2e" transform="translate(63.623047 0)"/>
       <use xlink:href="#DejaVuSans-30" transform="translate(95.410156 0)"/>
      </g>
     </g>
    </g>
    <g id="text_22">
     <!-- Free lac operon -->
     <g transform="translate(14.798438 288.540645) rotate(-90) scale(0.1 -0.1)">
      <defs>
       <path id="DejaVuSans-46" d="M 628 4666 
L 3309 4666 
L 3309 4134 
L 1259 4134 
L 1259 2759 
L 3109 2759 
L 3109 2228 
L 1259 2228 
L 1259 0 
L 628 0 
L 628 4666 
z
" transform="scale(0.015625)"/>
       <path id="DejaVuSans-70" d="M 1159 525 
L 1159 -1331 
L 581 -1331 
L 581 3500 
L 1159 3500 
L 1159 2969 
Q 1341 3281 1617 3432 
Q 1894 3584 2278 3584 
Q 2916 3584 3314 3078 
Q 3713 2572 3713 1747 
Q 3713 922 3314 415 
Q 2916 -91 2278 -91 
Q 1894 -91 1617 61 
Q 1341 213 1159 525 
z
M 3116 1747 
Q 3116 2381 2855 2742 
Q 2594 3103 2138 3103 
Q 1681 3103 1420 2742 
Q 1159 2381 1159 1747 
Q 1159 1113 1420 752 
Q 1681 391 2138 391 
Q 2594 391 2855 752 
Q 3116 1113 3116 1747 
z
" transform="scale(0.015625)"/>
       <path id="DejaVuSans-6e" d="M 3513 2113 
L 3513 0 
L 2938 0 
L 2938 2094 
Q 2938 2591 2744 2837 
Q 2550 3084 2163 3084 
Q 1697 3084 1428 2787 
Q 1159 2491 1159 1978 
L 1159 0 
L 581 0 
L 581 3500 
L 1159 3500 
L 1159 2956 
Q 1366 3272 1645 3428 
Q 1925 3584 2291 3584 
Q 2894 3584 3203 3211 
Q 3513 2838 3513 2113 
z
" transform="scale(0.015625)"/>
      </defs>
      <use xlink:href="#DejaVuSans-46"/>
      <use xlink:href="#DejaVuSans-72" transform="translate(50.269531 0)"/>
      <use xlink:href="#DejaVuSans-65" transform="translate(89.132812 0)"/>
      <use xlink:href="#DejaVuSans-65" transform="translate(150.65625 0)"/>
      <use xlink:href="#DejaVuSans-20" transform="translate(212.179688 0)"/>
      <use xlink:href="#DejaVuSans-6c" transform="translate(243.966797 0)"/>
      <use xlink:href="#DejaVuSans-61" transform="translate(271.75 0)"/>
      <use xlink:href="#DejaVuSans-63" transform="translate(333.029297 0)"/>
      <use xlink:href="#DejaVuSans-20" transform="translate(388.009766 0)"/>
      <use xlink:href="#DejaVuSans-6f" transform="translate(419.796875 0)"/>
      <use xlink:href="#DejaVuSans-70" transform="translate(480.978516 0)"/>
      <use xlink:href="#DejaVuSans-65" transform="translate(544.455078 0)"/>
      <use xlink:href="#DejaVuSans-72" transform="translate(605.978516 0)"/>
      <use xlink:href="#DejaVuSans-6f" transform="translate(644.841797 0)"/>
      <use xlink:href="#DejaVuSans-6e" transform="translate(706.023438 0)"/>
     </g>
    </g>
   </g>
   <g id="line2d_39">
    <path d="M 56.57299 209.366171 
L 57.010911 209.366171 
L 57.134634 290.772932 
L 57.193707 209.366171 
L 57.358283 209.366171 
L 57.501144 290.772932 
L 59.023669 290.772932 
L 60.212864 209.366171 
L 60.303264 290.772932 
L 60.518998 209.366171 
L 60.796741 290.772932 
L 61.451635 209.366171 
L 61.665886 290.772932 
L 62.927068 209.366171 
L 63.19362 290.772932 
L 64.096427 209.366171 
L 64.407464 290.772932 
L 65.697606 209.366171 
L 65.815395 290.772932 
L 69.8936 209.366171 
L 70.328855 290.772932 
L 71.602521 209.366171 
L 71.872503 209.366171 
L 71.940138 290.772932 
L 72.787314 290.772932 
L 73.427453 209.366171 
L 73.958182 290.772932 
L 74.473441 209.366171 
L 74.701593 290.772932 
L 75.551938 209.366171 
L 75.88937 290.772932 
L 76.042874 209.366171 
L 76.053784 290.772932 
L 77.42796 290.772932 
L 77.499443 209.366171 
L 77.625219 290.772932 
L 85.497129 209.366171 
L 86.991938 209.366171 
L 87.008043 290.772932 
L 88.317414 290.772932 
L 92.570037 209.366171 
L 93.31168 209.366171 
L 93.394981 290.772932 
L 94.657217 290.772932 
L 94.889616 209.366171 
L 95.087257 209.366171 
L 95.195917 290.772932 
L 95.584295 290.772932 
L 97.91369 209.366171 
L 97.997434 290.772932 
L 100.41041 209.366171 
L 100.471161 290.772932 
L 104.238515 209.366171 
L 104.371085 290.772932 
L 104.483914 209.366171 
L 104.552323 290.772932 
L 110.985859 209.366171 
L 110.992461 290.772932 
L 114.467368 209.366171 
L 114.679435 290.772932 
L 116.737543 209.366171 
L 117.19202 209.366171 
L 117.275745 290.772932 
L 118.567421 290.772932 
L 119.395525 209.366171 
L 119.607335 209.366171 
L 119.827146 290.772932 
L 120.330265 209.366171 
L 120.811113 209.366171 
L 120.945591 290.772932 
L 121.061632 209.366171 
L 121.181006 209.366171 
L 121.292411 290.772932 
L 122.99323 290.772932 
L 124.70134 209.366171 
L 125.31469 209.366171 
L 125.438067 290.772932 
L 127.361539 290.772932 
L 130.45203 209.366171 
L 130.585929 209.366171 
L 130.697424 290.772932 
L 131.00649 209.366171 
L 131.125422 209.366171 
L 131.255267 290.772932 
L 131.587642 290.772932 
L 132.114616 209.366171 
L 132.294691 209.366171 
L 132.527474 290.772932 
L 132.922879 290.772932 
L 133.028556 209.366171 
L 133.297373 209.366171 
L 133.388596 290.772932 
L 133.64606 290.772932 
L 135.988579 209.366171 
L 136.079749 290.772932 
L 137.795493 209.366171 
L 137.851763 290.772932 
L 138.982987 209.366171 
L 139.28827 290.772932 
L 139.870969 209.366171 
L 139.878716 290.772932 
L 143.926389 209.366171 
L 144.875969 209.366171 
L 144.893817 290.772932 
L 146.282248 290.772932 
L 148.590137 209.366171 
L 148.909932 290.772932 
L 151.247902 209.366171 
L 151.435473 290.772932 
L 155.205986 209.366171 
L 155.478129 209.366171 
L 155.615742 290.772932 
L 155.71301 290.772932 
L 155.864731 209.366171 
L 193.757787 209.366171 
L 193.864953 290.772932 
L 196.898368 290.772932 
L 197.152119 209.366171 
L 197.417103 209.366171 
L 197.43585 290.772932 
L 198.017215 209.366171 
L 198.036955 290.772932 
L 198.281968 290.772932 
L 199.88289 209.366171 
L 202.964329 209.366171 
L 202.96543 290.772932 
L 205.348355 290.772932 
L 211.188948 209.366171 
L 224.348267 209.366171 
L 224.427327 290.772932 
L 226.502116 290.772932 
L 226.940868 209.366171 
L 229.198552 209.366171 
L 229.228919 290.772932 
L 229.573516 290.772932 
L 229.920219 209.366171 
L 230.00249 290.772932 
L 232.353541 290.772932 
L 232.718784 209.366171 
L 233.120311 290.772932 
L 237.62228 209.366171 
L 238.028738 209.366171 
L 238.04793 290.772932 
L 240.294559 290.772932 
L 241.734739 209.366171 
L 242.067604 209.366171 
L 242.099254 290.772932 
L 242.436946 290.772932 
L 247.506196 209.366171 
L 247.530995 290.772932 
L 248.10115 209.366171 
L 248.345137 290.772932 
L 249.035923 290.772932 
L 258.486279 209.366171 
L 258.53886 290.772932 
L 271.607135 209.366171 
L 271.766705 290.772932 
L 272.132725 209.366171 
L 272.601373 209.366171 
L 272.767567 290.772932 
L 277.154944 209.366171 
L 278.042059 290.772932 
L 279.442901 209.366171 
L 280.622485 209.366171 
L 280.702234 290.772932 
L 282.513769 290.772932 
L 288.255874 209.366171 
L 288.367537 290.772932 
L 297.731523 209.366171 
L 298.651309 209.366171 
L 298.687045 290.772932 
L 298.895511 290.772932 
L 299.248713 209.366171 
L 299.295181 290.772932 
L 299.621016 290.772932 
L 301.741471 209.366171 
L 301.967931 290.772932 
L 302.143433 209.366171 
L 302.410758 209.366171 
L 302.513927 290.772932 
L 302.534802 209.366171 
L 302.546758 290.772932 
L 304.698939 290.772932 
L 308.794988 209.366171 
L 309.897052 209.366171 
L 309.921065 290.772932 
L 311.316055 290.772932 
L 311.784663 209.366171 
L 311.864118 290.772932 
L 312.40778 290.772932 
L 312.40778 290.772932 
" clip-path="url(#p4fefa78e98)" style="fill: none; stroke: #000000; stroke-width: 1.5; stroke-linecap: square"/>
   </g>
   <g id="patch_13">
    <path d="M 43.78125 294.84327 
L 43.78125 205.295833 
" style="fill: none; stroke: #000000; stroke-width: 0.8; stroke-linejoin: miter; stroke-linecap: square"/>
   </g>
   <g id="patch_14">
    <path d="M 325.19952 294.84327 
L 325.19952 205.295833 
" style="fill: none; stroke: #000000; stroke-width: 0.8; stroke-linejoin: miter; stroke-linecap: square"/>
   </g>
   <g id="patch_15">
    <path d="M 43.78125 294.84327 
L 325.19952 294.84327 
" style="fill: none; stroke: #000000; stroke-width: 0.8; stroke-linejoin: miter; stroke-linecap: square"/>
   </g>
   <g id="patch_16">
    <path d="M 43.78125 205.295833 
L 325.19952 205.295833 
" style="fill: none; stroke: #000000; stroke-width: 0.8; stroke-linejoin: miter; stroke-linecap: square"/>
   </g>
  </g>
 </g>
 <defs>
  <clipPath id="p794aaec35f">
   <rect x="43.78125" y="7.2" width="281.41827" height="89.547437"/>
  </clipPath>
  <clipPath id="p5e52efc28d">
   <rect x="43.78125" y="106.247917" width="281.41827" height="89.547437"/>
  </clipPath>
  <clipPath id="p4fefa78e98">
   <rect x="43.78125" y="205.295833" width="281.41827" height="89.547437"/>
  </clipPath>
 </defs>
</svg>
