<?xml version="1.0" encoding="utf-8" standalone="no"?>
<!DOCTYPE svg PUBLIC "-//W3C//DTD SVG 1.1//EN"
  "http://www.w3.org/Graphics/SVG/1.1/DTD/svg11.dtd">
<svg xmlns:xlink="http://www.w3.org/1999/xlink" width="332.39952pt" height="332.39952pt" viewBox="0 0 332.39952 332.39952" xmlns="http://www.w3.org/2000/svg" version="1.1">
 <metadata>
  <rdf:RDF xmlns:dc="http://purl.org/dc/elements/1.1/" xmlns:cc="http://creativecommons.org/ns#" xmlns:rdf="http://www.w3.org/1999/02/22-rdf-syntax-ns#">
   <cc:Work>
    <dc:type rdf:resource="http://purl.org/dc/dcmitype/StillImage"/>
    <dc:date>2026-07-13T13:30:33.049716</dc:date>
    <dc:format>image/svg+xml</dc:format>
    <dc:creator>
     <cc:Agent>
      <dc:title>Matplotlib v3.11.0, https://matplotlib.org/</dc:title>
     </cc:Agent>
    </dc:creator>
   </cc:Work>
  </rdf:RDF>
 </metadata>
 <defs>
  <style type="text/css">*{stroke-linejoin: round; stroke-linecap: butt}</style>
 </defs>
 <g id="figure_1">
  <g id="patch_1">
   <path d="M 0 332.39952 
L 332.39952 332.39952 
L 332.39952 0 
L 0 0 
z
" style="fill: #ffffff"/>
  </g>
  <g id="axes_1">
   <g id="patch_2">
    <path d="M 44.103906 96.532593 
L 325.19952 96.532593 
L 325.19952 7.2 
L 44.103906 7.2 
z
" style="fill: #ffffff"/>
   </g>
   <g id="matplotlib.axis_1">
    <g id="xtick_1">
     <g id="line2d_1">
      <defs>
       <path id="m99021eb4ff" d="M 0 0 
L 0 3.5 
" style="stroke: #000000; stroke-width: 0.8"/>
      </defs>
      <g>
       <use xlink:href="#m99021eb4ff" x="56.88098" y="96.532593" style="stroke: #000000; stroke-width: 0.8"/>
      </g>
     </g>
    </g>
    <g id="xtick_2">
     <g id="line2d_2">
      <g>
       <use xlink:href="#m99021eb4ff" x="88.786176" y="96.532593" style="stroke: #000000; stroke-width: 0.8"/>
      </g>
     </g>
    </g>
    <g id="xtick_3">
     <g id="line2d_3">
      <g>
       <use xlink:href="#m99021eb4ff" x="120.691372" y="96.532593" style="stroke: #000000; stroke-width: 0.8"/>
      </g>
     </g>
    </g>
    <g id="xtick_4">
     <g id="line2d_4">
      <g>
       <use xlink:href="#m99021eb4ff" x="152.596568" y="96.532593" style="stroke: #000000; stroke-width: 0.8"/>
      </g>
     </g>
    </g>
    <g id="xtick_5">
     <g id="line2d_5">
      <g>
       <use xlink:href="#m99021eb4ff" x="184.501764" y="96.532593" style="stroke: #000000; stroke-width: 0.8"/>
      </g>
     </g>
    </g>
    <g id="xtick_6">
     <g id="line2d_6">
      <g>
       <use xlink:href="#m99021eb4ff" x="216.40696" y="96.532593" style="stroke: #000000; stroke-width: 0.8"/>
      </g>
     </g>
    </g>
    <g id="xtick_7">
     <g id="line2d_7">
      <g>
       <use xlink:href="#m99021eb4ff" x="248.312157" y="96.532593" style="stroke: #000000; stroke-width: 0.8"/>
      </g>
     </g>
    </g>
    <g id="xtick_8">
     <g id="line2d_8">
      <g>
       <use xlink:href="#m99021eb4ff" x="280.217353" y="96.532593" style="stroke: #000000; stroke-width: 0.8"/>
      </g>
     </g>
    </g>
    <g id="xtick_9">
     <g id="line2d_9">
      <g>
       <use xlink:href="#m99021eb4ff" x="312.122549" y="96.532593" style="stroke: #000000; stroke-width: 0.8"/>
      </g>
     </g>
    </g>
   </g>
   <g id="matplotlib.axis_2">
    <g id="ytick_1">
     <g id="line2d_10">
      <defs>
       <path id="ma032049f4e" d="M 0 0 
L -3.5 0 
" style="stroke: #000000; stroke-width: 0.8"/>
      </defs>
      <g>
       <use xlink:href="#ma032049f4e" x="44.103906" y="92.472021" style="stroke: #000000; stroke-width: 0.8"/>
      </g>
     </g>
     <g id="text_1">
      <!-- 0 -->
      <g transform="translate(30.741406 96.270849) scale(0.1 -0.1)">
       <defs>
        <path id="DejaVuSans-13" d="M 2034 4250 
Q 1547 4250 1301 3770 
Q 1056 3291 1056 2328 
Q 1056 1369 1301 889 
Q 1547 409 2034 409 
Q 2525 409 2770 889 
Q 3016 1369 3016 2328 
Q 3016 3291 2770 3770 
Q 2525 4250 2034 4250 
z
M 2034 4750 
Q 2819 4750 3233 4129 
Q 3647 3509 3647 2328 
Q 3647 1150 3233 529 
Q 2819 -91 2034 -91 
Q 1250 -91 836 529 
Q 422 1150 422 2328 
Q 422 3509 836 4129 
Q 1250 4750 2034 4750 
z
" transform="scale(0.015625)"/>
       </defs>
       <use xlink:href="#DejaVuSans-13"/>
      </g>
     </g>
    </g>
    <g id="ytick_2">
     <g id="line2d_11">
      <g>
       <use xlink:href="#ma032049f4e" x="44.103906" y="51.866296" style="stroke: #000000; stroke-width: 0.8"/>
      </g>
     </g>
     <g id="text_2">
      <!-- 5 -->
      <g transform="translate(30.741406 55.665125) scale(0.1 -0.1)">
       <defs>
        <path id="DejaVuSans-18" d="M 691 4666 
L 3169 4666 
L 3169 4134 
L 1269 4134 
L 1269 2991 
Q 1406 3038 1543 3061 
Q 1681 3084 1819 3084 
Q 2600 3084 3056 2656 
Q 3513 2228 3513 1497 
Q 3513 744 3044 326 
Q 2575 -91 1722 -91 
Q 1428 -91 1123 -41 
Q 819 9 494 109 
L 494 744 
Q 775 591 1075 516 
Q 1375 441 1709 441 
Q 2250 441 2565 725 
Q 2881 1009 2881 1497 
Q 2881 1984 2565 2268 
Q 2250 2553 1709 2553 
Q 1456 2553 1204 2497 
Q 953 2441 691 2322 
L 691 4666 
z
" transform="scale(0.015625)"/>
       </defs>
       <use xlink:href="#DejaVuSans-18"/>
      </g>
     </g>
    </g>
    <g id="ytick_3">
     <g id="line2d_12">
      <g>
       <use xlink:href="#ma032049f4e" x="44.103906" y="11.260572" style="stroke: #000000; stroke-width: 0.8"/>
      </g>
     </g>
     <g id="text_3">
      <!-- 10 -->
      <g transform="translate(24.378906 15.059401) scale(0.1 -0.1)">
       <defs>
        <path id="DejaVuSans-14" d="M 794 531 
L 1825 531 
L 1825 4091 
L 703 3866 
L 703 4441 
L 1819 4666 
L 2450 4666 
L 2450 531 
L 3481 531 
L 3481 0 
L 794 0 
L 794 531 
z
" transform="scale(0.015625)"/>
       </defs>
       <use xlink:href="#DejaVuSans-14"/>
       <use xlink:href="#DejaVuSans-13" transform="translate(63.625 0)"/>
      </g>
     </g>
    </g>
    <g id="text_4">
     <!-- Extracellular lactose -->
     <g transform="translate(17.976563 102.838171) rotate(-90) scale(0.1 -0.1)">
      <defs>
       <path id="DejaVuSans-28" d="M 628 4666 
L 3578 4666 
L 3578 4134 
L 1259 4134 
L 1259 2753 
L 3481 2753 
L 3481 2222 
L 1259 2222 
L 1259 531 
L 3634 531 
L 3634 0 
L 628 0 
L 628 4666 
z
" transform="scale(0.015625)"/>
       <path id="DejaVuSans-5b" d="M 3513 3500 
L 2247 1797 
L 3578 0 
L 2900 0 
L 1881 1375 
L 863 0 
L 184 0 
L 1544 1831 
L 300 3500 
L 978 3500 
L 1906 2253 
L 2834 3500 
L 3513 3500 
z
" transform="scale(0.015625)"/>
       <path id="DejaVuSans-57" d="M 1172 4494 
L 1172 3500 
L 2356 3500 
L 2356 3053 
L 1172 3053 
L 1172 1153 
Q 1172 725 1289 603 
Q 1406 481 1766 481 
L 2356 481 
L 2356 0 
L 1766 0 
Q 1100 0 847 248 
Q 594 497 594 1153 
L 594 3053 
L 172 3053 
L 172 3500 
L 594 3500 
L 594 4494 
L 1172 4494 
z
" transform="scale(0.015625)"/>
       <path id="DejaVuSans-55" d="M 2631 2963 
Q 2534 3019 2420 3045 
Q 2306 3072 2169 3072 
Q 1681 3072 1420 2755 
Q 1159 2438 1159 1844 
L 1159 0 
L 581 0 
L 581 3500 
L 1159 3500 
L 1159 2956 
Q 1341 3275 1631 3429 
Q 1922 3584 2338 3584 
Q 2397 3584 2469 3576 
Q 2541 3569 2628 3553 
L 2631 2963 
z
" transform="scale(0.015625)"/>
       <path id="DejaVuSans-44" d="M 2194 1759 
Q 1497 1759 1228 1600 
Q 959 1441 959 1056 
Q 959 750 1161 570 
Q 1363 391 1709 391 
Q 2188 391 2477 730 
Q 2766 1069 2766 1631 
L 2766 1759 
L 2194 1759 
z
M 3341 1997 
L 3341 0 
L 2766 0 
L 2766 531 
Q 2569 213 2275 61 
Q 1981 -91 1556 -91 
Q 1019 -91 701 211 
Q 384 513 384 1019 
Q 384 1609 779 1909 
Q 1175 2209 1959 2209 
L 2766 2209 
L 2766 2266 
Q 2766 2663 2505 2880 
Q 2244 3097 1772 3097 
Q 1472 3097 1187 3025 
Q 903 2953 641 2809 
L 641 3341 
Q 956 3463 1253 3523 
Q 1550 3584 1831 3584 
Q 2591 3584 2966 3190 
Q 3341 2797 3341 1997 
z
" transform="scale(0.015625)"/>
       <path id="DejaVuSans-46" d="M 3122 3366 
L 3122 2828 
Q 2878 2963 2633 3030 
Q 2388 3097 2138 3097 
Q 1578 3097 1268 2742 
Q 959 2388 959 1747 
Q 959 1106 1268 751 
Q 1578 397 2138 397 
Q 2388 397 2633 464 
Q 2878 531 3122 666 
L 3122 134 
Q 2881 22 2623 -34 
Q 2366 -91 2075 -91 
Q 1284 -91 818 406 
Q 353 903 353 1747 
Q 353 2603 823 3093 
Q 1294 3584 2113 3584 
Q 2378 3584 2631 3529 
Q 2884 3475 3122 3366 
z
" transform="scale(0.015625)"/>
       <path id="DejaVuSans-48" d="M 3597 1894 
L 3597 1613 
L 953 1613 
Q 991 1019 1311 708 
Q 1631 397 2203 397 
Q 2534 397 2845 478 
Q 3156 559 3463 722 
L 3463 178 
Q 3153 47 2828 -22 
Q 2503 -91 2169 -91 
Q 1331 -91 842 396 
Q 353 884 353 1716 
Q 353 2575 817 3079 
Q 1281 3584 2069 3584 
Q 2775 3584 3186 3129 
Q 3597 2675 3597 1894 
z
M 3022 2063 
Q 3016 2534 2758 2815 
Q 2500 3097 2075 3097 
Q 1594 3097 1305 2825 
Q 1016 2553 972 2059 
L 3022 2063 
z
" transform="scale(0.015625)"/>
       <path id="DejaVuSans-4f" d="M 603 4863 
L 1178 4863 
L 1178 0 
L 603 0 
L 603 4863 
z
" transform="scale(0.015625)"/>
       <path id="DejaVuSans-58" d="M 544 1381 
L 544 3500 
L 1119 3500 
L 1119 1403 
Q 1119 906 1312 657 
Q 1506 409 1894 409 
Q 2359 409 2629 706 
Q 2900 1003 2900 1516 
L 2900 3500 
L 3475 3500 
L 3475 0 
L 2900 0 
L 2900 538 
Q 2691 219 2414 64 
Q 2138 -91 1772 -91 
Q 1169 -91 856 284 
Q 544 659 544 1381 
z
M 1991 3584 
L 1991 3584 
z
" transform="scale(0.015625)"/>
       <path id="DejaVuSans-3" transform="scale(0.015625)"/>
       <path id="DejaVuSans-52" d="M 1959 3097 
Q 1497 3097 1228 2736 
Q 959 2375 959 1747 
Q 959 1119 1226 758 
Q 1494 397 1959 397 
Q 2419 397 2687 759 
Q 2956 1122 2956 1747 
Q 2956 2369 2687 2733 
Q 2419 3097 1959 3097 
z
M 1959 3584 
Q 2709 3584 3137 3096 
Q 3566 2609 3566 1747 
Q 3566 888 3137 398 
Q 2709 -91 1959 -91 
Q 1206 -91 779 398 
Q 353 888 353 1747 
Q 353 2609 779 3096 
Q 1206 3584 1959 3584 
z
" transform="scale(0.015625)"/>
       <path id="DejaVuSans-56" d="M 2834 3397 
L 2834 2853 
Q 2591 2978 2328 3040 
Q 2066 3103 1784 3103 
Q 1356 3103 1142 2972 
Q 928 2841 928 2578 
Q 928 2378 1081 2264 
Q 1234 2150 1697 2047 
L 1894 2003 
Q 2506 1872 2764 1633 
Q 3022 1394 3022 966 
Q 3022 478 2636 193 
Q 2250 -91 1575 -91 
Q 1294 -91 989 -36 
Q 684 19 347 128 
L 347 722 
Q 666 556 975 473 
Q 1284 391 1588 391 
Q 1994 391 2212 530 
Q 2431 669 2431 922 
Q 2431 1156 2273 1281 
Q 2116 1406 1581 1522 
L 1381 1569 
Q 847 1681 609 1914 
Q 372 2147 372 2553 
Q 372 3047 722 3315 
Q 1072 3584 1716 3584 
Q 2034 3584 2315 3537 
Q 2597 3491 2834 3397 
z
" transform="scale(0.015625)"/>
      </defs>
      <use xlink:href="#DejaVuSans-28"/>
      <use xlink:href="#DejaVuSans-5b" transform="translate(63.1875 0)"/>
      <use xlink:href="#DejaVuSans-57" transform="translate(122.375 0)"/>
      <use xlink:href="#DejaVuSans-55" transform="translate(161.578125 0)"/>
      <use xlink:href="#DejaVuSans-44" transform="translate(202.6875 0)"/>
      <use xlink:href="#DejaVuSans-46" transform="translate(263.96875 0)"/>
      <use xlink:href="#DejaVuSans-48" transform="translate(318.953125 0)"/>
      <use xlink:href="#DejaVuSans-4f" transform="translate(380.484375 0)"/>
      <use xlink:href="#DejaVuSans-4f" transform="translate(408.265625 0)"/>
      <use xlink:href="#DejaVuSans-58" transform="translate(436.046875 0)"/>
      <use xlink:href="#DejaVuSans-4f" transform="translate(499.421875 0)"/>
      <use xlink:href="#DejaVuSans-44" transform="translate(527.203125 0)"/>
      <use xlink:href="#DejaVuSans-55" transform="translate(588.484375 0)"/>
      <use xlink:href="#DejaVuSans-3" transform="translate(629.59375 0)"/>
      <use xlink:href="#DejaVuSans-4f" transform="translate(661.375 0)"/>
      <use xlink:href="#DejaVuSans-44" transform="translate(689.15625 0)"/>
      <use xlink:href="#DejaVuSans-46" transform="translate(750.4375 0)"/>
      <use xlink:href="#DejaVuSans-57" transform="translate(805.421875 0)"/>
      <use xlink:href="#DejaVuSans-52" transform="translate(844.625 0)"/>
      <use xlink:href="#DejaVuSans-56" transform="translate(905.8125 0)"/>
      <use xlink:href="#DejaVuSans-48" transform="translate(957.90625 0)"/>
     </g>
    </g>
   </g>
   <g id="line2d_13">
    <path d="M 56.88098 92.472021 
L 156.128267 92.472021 
L 156.217293 11.260572 
L 156.884749 11.341784 
L 157.002342 11.66663 
L 157.047121 11.747841 
L 157.193198 13.209647 
L 157.311445 14.833876 
L 157.325262 14.915088 
L 157.46866 16.620528 
L 157.49219 16.701739 
L 158.001363 20.193832 
L 158.27837 20.599889 
L 158.337616 20.6811 
L 158.446704 20.762312 
L 158.896939 20.843523 
L 158.993721 21.249581 
L 159.23157 21.655638 
L 159.331653 22.061695 
L 159.488737 22.142906 
L 159.762179 22.711387 
L 159.825712 23.279867 
L 159.941517 23.604713 
L 160.278923 24.660461 
L 160.328917 24.741673 
L 160.485187 25.472576 
L 160.580398 25.553787 
L 160.696378 25.878633 
L 160.943136 27.015593 
L 161.052857 27.340439 
L 161.111026 27.421651 
L 161.271736 28.314977 
L 161.327801 28.396188 
L 161.81061 31.157377 
L 162.044869 31.644646 
L 162.117855 31.725857 
L 162.228731 32.050703 
L 162.274688 32.131915 
L 162.669805 33.918566 
L 163.126899 35.461584 
L 163.192258 35.542795 
L 163.317003 36.842179 
L 163.347644 36.92339 
L 163.72317 38.466408 
L 164.01571 38.547619 
L 164.120477 38.791253 
L 164.20518 38.872465 
L 164.579306 39.684579 
L 164.662559 39.765791 
L 164.780631 39.928214 
L 164.827524 40.009425 
L 164.943451 40.82154 
L 165.152314 41.227597 
L 165.293376 41.308808 
L 165.495193 41.796077 
L 165.821733 42.52698 
L 166.04932 42.608191 
L 166.149456 43.09546 
L 166.409815 43.826363 
L 166.447279 43.907575 
L 167.511419 49.186319 
L 167.679265 50.40449 
L 170.217593 60.880767 
L 170.582756 60.961979 
L 170.683759 61.286824 
L 170.835803 61.449247 
L 171.028747 61.530459 
L 171.164598 61.936516 
L 171.501101 62.017727 
L 171.624805 62.18015 
L 171.931664 62.261362 
L 172.088806 62.504996 
L 172.395381 63.317111 
L 172.505379 63.966802 
L 172.61272 64.048014 
L 172.785117 64.697705 
L 172.844793 64.778917 
L 172.931769 65.266185 
L 173.020091 65.347397 
L 173.231842 66.159511 
L 173.257518 66.240723 
L 173.376126 66.809203 
L 173.570468 67.702529 
L 173.669152 67.864952 
L 173.747191 67.946163 
L 173.843698 68.189798 
L 173.897702 68.271009 
L 174.008083 68.514643 
L 174.229736 69.245546 
L 174.357872 69.814026 
L 174.549383 70.626141 
L 174.563879 70.707352 
L 174.924743 72.006736 
L 174.982731 72.087947 
L 175.095163 72.575216 
L 175.17524 72.656427 
L 175.282866 72.981273 
L 175.31192 73.062484 
L 175.480178 73.549753 
L 175.775379 73.630965 
L 175.868438 73.712176 
L 176.493651 73.793387 
L 176.654529 74.037022 
L 176.664641 74.118233 
L 176.877084 74.686713 
L 177.077904 74.767925 
L 177.241417 74.930348 
L 177.693033 75.011559 
L 177.984699 75.498828 
L 178.55267 75.580039 
L 178.671446 75.742462 
L 178.707641 75.823674 
L 178.793078 75.904885 
L 178.906342 75.986097 
L 179.003438 76.067308 
L 180.489979 76.148519 
L 180.714266 76.473365 
L 181.457129 76.554577 
L 181.596151 76.717 
L 182.087936 76.798211 
L 182.395054 76.960634 
L 225.592373 77.041845 
L 225.718623 77.447903 
L 225.760651 77.529114 
L 226.018133 77.935171 
L 226.338796 78.016383 
L 226.458753 78.097594 
L 228.330519 78.178806 
L 228.493099 78.341229 
L 228.568752 78.42244 
L 228.666868 78.584863 
L 228.834546 78.666074 
L 229.528287 79.315766 
L 229.733915 79.396977 
L 230.132404 79.640612 
L 230.204746 79.721823 
L 230.564127 79.803035 
L 230.895707 80.209092 
L 231.011837 80.290303 
L 231.52089 81.021206 
L 231.970338 81.102418 
L 232.127222 81.346052 
L 232.347469 81.427264 
L 232.514307 81.508475 
L 233.375968 81.589686 
L 233.502365 81.670898 
L 234.626987 81.752109 
L 234.978036 81.995744 
L 235.360597 82.564224 
L 235.492405 82.807858 
L 235.659666 82.88907 
L 236.549838 83.538761 
L 237.171497 83.619973 
L 237.292061 83.701184 
L 237.486945 83.782396 
L 237.804963 83.863607 
L 238.040793 84.107241 
L 238.189204 84.188453 
L 238.355251 84.269664 
L 238.454857 84.350876 
L 238.658462 84.432087 
L 239.054208 84.675721 
L 239.493442 85.081779 
L 239.731059 85.244202 
L 239.838794 85.325413 
L 239.980904 85.406625 
L 240.20649 85.487836 
L 240.329977 85.73147 
L 240.410245 85.812682 
L 240.509082 85.893893 
L 240.580299 85.975105 
L 240.694637 86.218739 
L 240.747078 86.29995 
L 240.891137 86.381162 
L 240.986507 86.462373 
L 241.124012 86.706008 
L 241.278111 86.787219 
L 241.592546 87.030853 
L 241.757451 87.193276 
L 242.02645 87.274488 
L 242.232638 87.355699 
L 242.946448 87.436911 
L 243.060167 87.599334 
L 243.561799 87.680545 
L 243.698726 87.842968 
L 243.762023 87.924179 
L 243.88874 88.005391 
L 244.149841 88.330237 
L 244.288904 88.411448 
L 244.399681 88.573871 
L 244.895593 88.655082 
L 245.026932 88.736294 
L 245.395123 88.817505 
L 245.557774 88.898717 
L 246.109086 88.979928 
L 246.129252 89.06114 
L 247.406416 89.142351 
L 247.522808 89.223563 
L 248.33407 89.304774 
L 248.359736 89.385985 
L 248.922983 89.467197 
L 249.25626 89.548408 
L 249.887325 89.62962 
L 249.989636 89.710831 
L 250.57765 89.792043 
L 250.694238 89.873254 
L 251.755221 89.954466 
L 251.941364 90.035677 
L 252.956448 90.116889 
L 253.106082 90.1981 
L 253.277284 90.279311 
L 254.302371 90.360523 
L 254.643332 90.522946 
L 255.24401 90.604157 
L 255.291323 90.685369 
L 255.793303 90.847792 
L 257.264448 90.929003 
L 258.383274 91.091426 
L 265.79716 91.172637 
L 265.940377 91.253849 
L 266.370557 91.33506 
L 276.660712 91.416272 
L 276.767548 91.497483 
L 299.205405 91.578695 
L 299.511583 91.659906 
L 312.422447 91.659906 
L 312.422447 91.659906 
" clip-path="url(#p40e53b472e)" style="fill: none; stroke: #000000; stroke-width: 1.5; stroke-linecap: square"/>
   </g>
   <g id="patch_3">
    <path d="M 44.103906 96.532593 
L 44.103906 7.2 
" style="fill: none; stroke: #000000; stroke-width: 0.8; stroke-linejoin: miter; stroke-linecap: square"/>
   </g>
   <g id="patch_4">
    <path d="M 325.19952 96.532593 
L 325.19952 7.2 
" style="fill: none; stroke: #000000; stroke-width: 0.8; stroke-linejoin: miter; stroke-linecap: square"/>
   </g>
   <g id="patch_5">
    <path d="M 44.103906 96.532593 
L 325.19952 96.532593 
" style="fill: none; stroke: #000000; stroke-width: 0.8; stroke-linejoin: miter; stroke-linecap: square"/>
   </g>
   <g id="patch_6">
    <path d="M 44.103906 7.2 
L 325.19952 7.2 
" style="fill: none; stroke: #000000; stroke-width: 0.8; stroke-linejoin: miter; stroke-linecap: square"/>
   </g>
  </g>
  <g id="axes_2">
   <g id="patch_7">
    <path d="M 44.103906 195.365666 
L 325.19952 195.365666 
L 325.19952 106.033073 
L 44.103906 106.033073 
z
" style="fill: #ffffff"/>
   </g>
   <g id="matplotlib.axis_3">
    <g id="xtick_10">
     <g id="line2d_14">
      <g>
       <use xlink:href="#m99021eb4ff" x="56.88098" y="195.365666" style="stroke: #000000; stroke-width: 0.8"/>
      </g>
     </g>
    </g>
    <g id="xtick_11">
     <g id="line2d_15">
      <g>
       <use xlink:href="#m99021eb4ff" x="88.786176" y="195.365666" style="stroke: #000000; stroke-width: 0.8"/>
      </g>
     </g>
    </g>
    <g id="xtick_12">
     <g id="line2d_16">
      <g>
       <use xlink:href="#m99021eb4ff" x="120.691372" y="195.365666" style="stroke: #000000; stroke-width: 0.8"/>
      </g>
     </g>
    </g>
    <g id="xtick_13">
     <g id="line2d_17">
      <g>
       <use xlink:href="#m99021eb4ff" x="152.596568" y="195.365666" style="stroke: #000000; stroke-width: 0.8"/>
      </g>
     </g>
    </g>
    <g id="xtick_14">
     <g id="line2d_18">
      <g>
       <use xlink:href="#m99021eb4ff" x="184.501764" y="195.365666" style="stroke: #000000; stroke-width: 0.8"/>
      </g>
     </g>
    </g>
    <g id="xtick_15">
     <g id="line2d_19">
      <g>
       <use xlink:href="#m99021eb4ff" x="216.40696" y="195.365666" style="stroke: #000000; stroke-width: 0.8"/>
      </g>
     </g>
    </g>
    <g id="xtick_16">
     <g id="line2d_20">
      <g>
       <use xlink:href="#m99021eb4ff" x="248.312157" y="195.365666" style="stroke: #000000; stroke-width: 0.8"/>
      </g>
     </g>
    </g>
    <g id="xtick_17">
     <g id="line2d_21">
      <g>
       <use xlink:href="#m99021eb4ff" x="280.217353" y="195.365666" style="stroke: #000000; stroke-width: 0.8"/>
      </g>
     </g>
    </g>
    <g id="xtick_18">
     <g id="line2d_22">
      <g>
       <use xlink:href="#m99021eb4ff" x="312.122549" y="195.365666" style="stroke: #000000; stroke-width: 0.8"/>
      </g>
     </g>
    </g>
   </g>
   <g id="matplotlib.axis_4">
    <g id="ytick_4">
     <g id="line2d_23">
      <g>
       <use xlink:href="#ma032049f4e" x="44.103906" y="191.305093" style="stroke: #000000; stroke-width: 0.8"/>
      </g>
     </g>
     <g id="text_5">
      <!-- 0 -->
      <g transform="translate(30.741406 195.103922) scale(0.1 -0.1)">
       <use xlink:href="#DejaVuSans-13"/>
      </g>
     </g>
    </g>
    <g id="ytick_5">
     <g id="line2d_24">
      <g>
       <use xlink:href="#ma032049f4e" x="44.103906" y="150.699369" style="stroke: #000000; stroke-width: 0.8"/>
      </g>
     </g>
     <g id="text_6">
      <!-- 5 -->
      <g transform="translate(30.741406 154.498197) scale(0.1 -0.1)">
       <use xlink:href="#DejaVuSans-18"/>
      </g>
     </g>
    </g>
    <g id="ytick_6">
     <g id="line2d_25">
      <g>
       <use xlink:href="#ma032049f4e" x="44.103906" y="110.093645" style="stroke: #000000; stroke-width: 0.8"/>
      </g>
     </g>
     <g id="text_7">
      <!-- 10 -->
      <g transform="translate(24.378906 113.892473) scale(0.1 -0.1)">
       <use xlink:href="#DejaVuSans-14"/>
       <use xlink:href="#DejaVuSans-13" transform="translate(63.625 0)"/>
      </g>
     </g>
    </g>
    <g id="text_8">
     <!-- LacY -->
     <g transform="translate(17.976563 162.352494) rotate(-90) scale(0.1 -0.1)">
      <defs>
       <path id="DejaVuSans-2f" d="M 628 4666 
L 1259 4666 
L 1259 531 
L 3531 531 
L 3531 0 
L 628 0 
L 628 4666 
z
" transform="scale(0.015625)"/>
       <path id="DejaVuSans-3c" d="M -13 4666 
L 666 4666 
L 1959 2747 
L 3244 4666 
L 3922 4666 
L 2272 2222 
L 2272 0 
L 1638 0 
L 1638 2222 
L -13 4666 
z
" transform="scale(0.015625)"/>
      </defs>
      <use xlink:href="#DejaVuSans-2f"/>
      <use xlink:href="#DejaVuSans-44" transform="translate(55.71875 0)"/>
      <use xlink:href="#DejaVuSans-46" transform="translate(117 0)"/>
      <use xlink:href="#DejaVuSans-3c" transform="translate(171.984375 0)"/>
     </g>
    </g>
   </g>
   <g id="line2d_26">
    <path d="M 56.88098 110.093645 
L 56.908101 110.093645 
L 56.962582 118.21479 
L 57.070722 134.45708 
L 57.13105 142.578225 
L 57.28312 142.578225 
L 57.300813 134.45708 
L 57.521348 142.578225 
L 57.663179 142.578225 
L 57.833789 158.820514 
L 58.134617 175.062804 
L 58.200221 191.305093 
L 59.729843 191.305093 
L 59.896424 183.183949 
L 59.939155 191.305093 
L 64.960522 191.305093 
L 65.2834 183.183949 
L 65.393328 191.305093 
L 82.885314 191.305093 
L 83.079674 183.183949 
L 84.87256 191.305093 
L 84.887382 183.183949 
L 85.030554 175.062804 
L 85.035208 166.941659 
L 85.357292 175.062804 
L 85.584202 175.062804 
L 85.703806 191.305093 
L 85.764613 183.183949 
L 85.954794 183.183949 
L 86.093246 191.305093 
L 89.984549 191.305093 
L 90.374256 175.062804 
L 90.375557 166.941659 
L 90.874075 166.941659 
L 90.912734 183.183949 
L 91.684695 183.183949 
L 91.853579 175.062804 
L 92.197788 191.305093 
L 109.198931 191.305093 
L 109.304604 183.183949 
L 109.424283 183.183949 
L 109.563343 191.305093 
L 109.79829 191.305093 
L 109.839766 183.183949 
L 110.255631 183.183949 
L 110.60548 175.062804 
L 110.663814 183.183949 
L 110.839042 183.183949 
L 110.868614 191.305093 
L 119.626353 191.305093 
L 119.804742 183.183949 
L 121.904595 183.183949 
L 123.751718 191.305093 
L 131.518289 191.305093 
L 131.704521 183.183949 
L 131.99203 183.183949 
L 132.099787 191.305093 
L 136.434805 191.305093 
L 136.51852 183.183949 
L 136.540381 191.305093 
L 146.531263 191.305093 
L 146.792061 175.062804 
L 146.812889 183.183949 
L 146.841892 175.062804 
L 146.954983 166.941659 
L 146.960323 175.062804 
L 147.544963 175.062804 
L 148.162036 183.183949 
L 148.407325 183.183949 
L 148.722535 175.062804 
L 148.835399 175.062804 
L 149.90713 191.305093 
L 150.367223 191.305093 
L 150.419096 175.062804 
L 150.519954 175.062804 
L 150.67276 183.183949 
L 150.806457 183.183949 
L 151.349274 191.305093 
L 156.466872 191.305093 
L 156.895085 183.183949 
L 157.135338 150.699369 
L 157.416931 150.699369 
L 157.537019 166.941659 
L 157.586879 166.941659 
L 157.687763 158.820514 
L 157.774727 158.820514 
L 157.884516 175.062804 
L 157.912712 175.062804 
L 158.001363 183.183949 
L 158.353082 183.183949 
L 158.446704 191.305093 
L 158.846333 191.305093 
L 158.947676 183.183949 
L 159.113832 183.183949 
L 159.228377 175.062804 
L 159.36075 175.062804 
L 159.467219 183.183949 
L 159.786846 183.183949 
L 159.899691 175.062804 
L 160.107433 175.062804 
L 160.224971 191.305093 
L 160.278923 191.305093 
L 160.412976 183.183949 
L 160.694493 183.183949 
L 160.801415 175.062804 
L 161.313904 175.062804 
L 161.424885 166.941659 
L 161.508013 166.941659 
L 161.52659 175.062804 
L 161.555116 158.820514 
L 161.609211 158.820514 
L 161.712384 158.820514 
L 161.833629 175.062804 
L 162.237512 175.062804 
L 162.357019 166.941659 
L 162.62152 166.941659 
L 162.732843 175.062804 
L 162.811397 175.062804 
L 162.813861 166.941659 
L 162.913331 175.062804 
L 163.00796 175.062804 
L 163.039385 183.183949 
L 163.106404 175.062804 
L 163.150357 183.183949 
L 163.200056 175.062804 
L 163.336495 158.820514 
L 163.382731 158.820514 
L 163.499572 166.941659 
L 163.559514 166.941659 
L 163.669895 183.183949 
L 163.718069 183.183949 
L 163.776984 191.305093 
L 163.962162 191.305093 
L 164.018144 175.062804 
L 164.066308 183.183949 
L 164.087774 183.183949 
L 164.20518 175.062804 
L 164.420005 175.062804 
L 164.496788 183.183949 
L 164.829461 183.183949 
L 164.943451 166.941659 
L 164.968393 166.941659 
L 165.082543 175.062804 
L 165.250216 175.062804 
L 165.363139 183.183949 
L 165.414285 183.183949 
L 165.46475 175.062804 
L 165.520756 183.183949 
L 166.042923 183.183949 
L 166.149456 175.062804 
L 166.354531 175.062804 
L 166.465226 166.941659 
L 166.616634 166.941659 
L 166.708996 158.820514 
L 166.722212 166.941659 
L 166.806349 166.941659 
L 166.884364 175.062804 
L 166.917159 166.941659 
L 166.955864 166.941659 
L 167.008202 175.062804 
L 167.063383 166.941659 
L 167.091959 166.941659 
L 167.169439 175.062804 
L 167.198569 166.941659 
L 167.30456 166.941659 
L 167.411375 158.820514 
L 167.458296 158.820514 
L 167.575214 150.699369 
L 167.767664 150.699369 
L 167.809796 158.820514 
L 167.877797 150.699369 
L 167.892661 150.699369 
L 168.004472 166.941659 
L 168.013025 175.062804 
L 168.101298 158.820514 
L 168.104486 158.820514 
L 168.735381 158.820514 
L 168.848968 166.941659 
L 169.484575 166.941659 
L 169.613778 158.820514 
L 169.722739 158.820514 
L 169.838197 166.941659 
L 170.064842 166.941659 
L 170.160878 175.062804 
L 170.217593 175.062804 
L 170.355814 183.183949 
L 170.495093 183.183949 
L 170.600032 175.062804 
L 170.705549 175.062804 
L 170.809786 183.183949 
L 171.004576 183.183949 
L 171.056313 175.062804 
L 171.111459 183.183949 
L 171.352126 183.183949 
L 171.511672 175.062804 
L 171.548538 175.062804 
L 171.667004 191.305093 
L 171.833138 191.305093 
L 172.027576 175.062804 
L 172.057707 175.062804 
L 172.131165 166.941659 
L 172.164959 175.062804 
L 172.171178 175.062804 
L 172.28114 166.941659 
L 172.349184 166.941659 
L 172.445832 158.820514 
L 172.90314 158.820514 
L 172.905518 166.941659 
L 173.000382 158.820514 
L 173.09892 158.820514 
L 173.100502 150.699369 
L 173.199144 158.820514 
L 173.516635 158.820514 
L 173.594438 150.699369 
L 173.607549 166.941659 
L 173.62273 166.941659 
L 173.698128 166.941659 
L 173.787094 158.820514 
L 173.793595 166.941659 
L 173.908795 166.941659 
L 173.936832 175.062804 
L 173.995601 158.820514 
L 174.008083 158.820514 
L 174.280588 158.820514 
L 174.312558 150.699369 
L 174.374244 158.820514 
L 174.485202 158.820514 
L 174.585179 150.699369 
L 174.713378 158.820514 
L 174.897808 158.820514 
L 175.013133 166.941659 
L 175.416615 166.941659 
L 175.491142 183.183949 
L 175.516884 175.062804 
L 175.657091 183.183949 
L 175.800027 183.183949 
L 175.918247 191.305093 
L 176.165565 191.305093 
L 176.317297 183.183949 
L 176.342943 191.305093 
L 176.382801 175.062804 
L 176.907978 175.062804 
L 177.030215 183.183949 
L 177.140013 175.062804 
L 177.266897 191.305093 
L 177.455953 191.305093 
L 177.64646 166.941659 
L 177.800117 175.062804 
L 177.984699 175.062804 
L 178.212965 183.183949 
L 178.563721 183.183949 
L 178.715763 166.941659 
L 178.791899 166.941659 
L 178.891308 175.062804 
L 178.979766 175.062804 
L 179.097689 191.305093 
L 179.891663 191.305093 
L 180.019009 175.062804 
L 180.19035 183.183949 
L 180.316339 183.183949 
L 180.347611 191.305093 
L 180.409599 183.183949 
L 180.547642 175.062804 
L 180.668167 183.183949 
L 180.687677 183.183949 
L 180.714266 191.305093 
L 180.79473 183.183949 
L 180.880299 191.305093 
L 181.043248 191.305093 
L 181.080667 183.183949 
L 181.127661 191.305093 
L 181.201236 191.305093 
L 181.334205 183.183949 
L 181.477231 183.183949 
L 181.596151 175.062804 
L 181.618164 183.183949 
L 181.77438 183.183949 
L 182.087936 175.062804 
L 182.17526 175.062804 
L 182.175665 166.941659 
L 182.236164 183.183949 
L 182.285133 183.183949 
L 182.395054 191.305093 
L 220.665758 191.305093 
L 220.784056 183.183949 
L 220.794106 191.305093 
L 225.308549 191.305093 
L 225.800497 175.062804 
L 226.191116 175.062804 
L 226.338796 183.183949 
L 226.386077 183.183949 
L 226.458753 191.305093 
L 228.098059 191.305093 
L 228.216573 183.183949 
L 228.251452 183.183949 
L 228.419602 166.941659 
L 228.493099 166.941659 
L 228.54576 158.820514 
L 228.570905 166.941659 
L 228.666868 166.941659 
L 228.71737 175.062804 
L 228.834546 166.941659 
L 229.291021 166.941659 
L 229.447352 175.062804 
L 229.984103 175.062804 
L 230.011854 183.183949 
L 230.072241 175.062804 
L 230.187007 166.941659 
L 230.511934 166.941659 
L 230.514647 175.062804 
L 230.619364 166.941659 
L 230.856308 166.941659 
L 230.895707 158.820514 
L 231.057494 166.941659 
L 231.34071 166.941659 
L 231.458475 175.062804 
L 232.027777 175.062804 
L 232.035152 166.941659 
L 232.127222 183.183949 
L 232.437743 183.183949 
L 232.514307 191.305093 
L 232.954184 191.305093 
L 233.201691 183.183949 
L 233.228407 191.305093 
L 233.391629 183.183949 
L 233.480118 183.183949 
L 233.595478 175.062804 
L 233.776774 183.183949 
L 234.165142 183.183949 
L 234.21497 175.062804 
L 234.406346 183.183949 
L 234.626987 175.062804 
L 234.832466 175.062804 
L 234.90913 166.941659 
L 234.941955 175.062804 
L 235.05887 175.062804 
L 235.316199 150.699369 
L 235.434166 158.820514 
L 235.556761 158.820514 
L 235.659666 166.941659 
L 235.75348 166.941659 
L 235.783251 183.183949 
L 235.840737 175.062804 
L 235.960905 175.062804 
L 236.02898 166.941659 
L 236.213063 166.941659 
L 236.337733 183.183949 
L 236.444168 183.183949 
L 236.477867 175.062804 
L 236.547443 183.183949 
L 236.549838 191.305093 
L 236.818636 183.183949 
L 236.83921 191.305093 
L 236.918991 183.183949 
L 237.127095 158.820514 
L 237.171497 166.941659 
L 237.197843 166.941659 
L 237.292061 183.183949 
L 237.411 183.183949 
L 237.486945 175.062804 
L 237.98717 175.062804 
L 238.040793 158.820514 
L 238.109341 158.820514 
L 238.189204 175.062804 
L 238.275289 175.062804 
L 238.37383 166.941659 
L 238.507994 166.941659 
L 238.56461 175.062804 
L 238.968071 175.062804 
L 239.054208 166.941659 
L 239.267386 166.941659 
L 239.411892 150.699369 
L 239.493442 158.820514 
L 239.564336 158.820514 
L 239.675084 166.941659 
L 239.731059 158.820514 
L 239.772183 166.941659 
L 239.796071 166.941659 
L 239.838794 175.062804 
L 239.916114 175.062804 
L 239.980904 166.941659 
L 240.221573 175.062804 
L 240.329977 150.699369 
L 240.429677 150.699369 
L 240.496488 166.941659 
L 240.509082 158.820514 
L 240.694637 142.578225 
L 240.790438 142.578225 
L 240.814579 134.45708 
L 240.891137 142.578225 
L 241.03452 142.578225 
L 241.124012 158.820514 
L 241.163767 158.820514 
L 241.226735 142.578225 
L 241.278111 150.699369 
L 241.467767 150.699369 
L 241.487693 158.820514 
L 241.551291 150.699369 
L 241.685867 150.699369 
L 241.818852 166.941659 
L 241.984169 166.941659 
L 242.115047 158.820514 
L 242.122271 158.820514 
L 242.232638 183.183949 
L 242.416111 183.183949 
L 242.602472 191.305093 
L 242.664081 191.305093 
L 242.785291 183.183949 
L 243.039465 183.183949 
L 243.048303 191.305093 
L 243.144989 183.183949 
L 243.218962 183.183949 
L 243.23196 166.941659 
L 243.494344 166.941659 
L 243.561799 158.820514 
L 243.705025 158.820514 
L 243.762023 142.578225 
L 243.924399 142.578225 
L 243.964537 150.699369 
L 244.033303 142.578225 
L 244.09341 142.578225 
L 244.209717 166.941659 
L 244.232588 166.941659 
L 244.331623 175.062804 
L 244.399681 175.062804 
L 244.442217 166.941659 
L 244.525313 175.062804 
L 244.730828 175.062804 
L 244.88929 166.941659 
L 244.993791 175.062804 
L 245.105096 175.062804 
L 245.164891 166.941659 
L 245.448496 158.820514 
L 245.50272 158.820514 
L 245.557774 142.578225 
L 245.588231 150.699369 
L 245.672674 150.699369 
L 245.766031 166.941659 
L 245.874728 166.941659 
L 246.001861 175.062804 
L 246.341112 175.062804 
L 246.393704 166.941659 
L 246.545788 175.062804 
L 246.765806 175.062804 
L 246.942382 166.941659 
L 247.12562 183.183949 
L 247.166796 175.062804 
L 247.205781 183.183949 
L 247.237089 183.183949 
L 247.355224 166.941659 
L 247.457496 150.699369 
L 247.515184 158.820514 
L 247.522808 158.820514 
L 247.663071 166.941659 
L 247.667583 175.062804 
L 247.789105 175.062804 
L 247.878968 166.941659 
L 248.044216 175.062804 
L 248.359736 175.062804 
L 248.78364 150.699369 
L 249.050486 166.941659 
L 249.369704 166.941659 
L 249.522744 158.820514 
L 249.783321 150.699369 
L 249.903016 158.820514 
L 249.982319 150.699369 
L 249.989636 158.820514 
L 250.07313 158.820514 
L 250.263524 175.062804 
L 250.379538 166.941659 
L 250.492222 183.183949 
L 250.596248 166.941659 
L 250.629806 175.062804 
L 250.712839 166.941659 
L 250.760206 175.062804 
L 250.813966 166.941659 
L 251.029284 166.941659 
L 251.258738 175.062804 
L 251.519407 175.062804 
L 251.564698 183.183949 
L 251.852515 183.183949 
L 251.941364 191.305093 
L 251.995092 183.183949 
L 252.27821 175.062804 
L 252.391176 175.062804 
L 252.956448 166.941659 
L 253.071358 166.941659 
L 253.162588 175.062804 
L 253.170972 166.941659 
L 253.277284 175.062804 
L 253.809743 175.062804 
L 253.90608 183.183949 
L 253.912656 175.062804 
L 254.033785 158.820514 
L 254.215699 166.941659 
L 254.302371 158.820514 
L 254.622362 158.820514 
L 254.713431 175.062804 
L 254.74072 166.941659 
L 254.888454 158.820514 
L 255.172425 158.820514 
L 255.291323 166.941659 
L 255.497861 166.941659 
L 255.637448 175.062804 
L 255.776642 166.941659 
L 255.845363 175.062804 
L 256.179647 175.062804 
L 256.261422 166.941659 
L 256.26709 175.062804 
L 256.361951 175.062804 
L 256.364494 183.183949 
L 256.75486 166.941659 
L 256.846795 166.941659 
L 257.038156 158.820514 
L 257.171163 175.062804 
L 257.238059 166.941659 
L 257.264448 175.062804 
L 258.007423 175.062804 
L 258.383274 191.305093 
L 264.694804 191.305093 
L 264.867231 175.062804 
L 264.907667 183.183949 
L 265.052499 191.305093 
L 265.18925 175.062804 
L 265.223234 183.183949 
L 265.311968 183.183949 
L 265.383278 175.062804 
L 265.599996 183.183949 
L 266.236357 183.183949 
L 266.370557 191.305093 
L 270.458075 191.305093 
L 271.021967 183.183949 
L 272.526107 183.183949 
L 273.41372 191.305093 
L 276.352254 191.305093 
L 276.551588 175.062804 
L 276.662674 166.941659 
L 276.767548 166.941659 
L 276.951436 175.062804 
L 277.208108 175.062804 
L 277.270183 183.183949 
L 277.773901 183.183949 
L 278.05648 191.305093 
L 280.864208 191.305093 
L 281.003977 183.183949 
L 281.264281 183.183949 
L 282.986583 191.305093 
L 289.510407 191.305093 
L 289.653045 183.183949 
L 289.769139 191.305093 
L 289.946325 175.062804 
L 290.289424 183.183949 
L 290.808124 191.305093 
L 292.766817 191.305093 
L 293.076018 183.183949 
L 293.400996 183.183949 
L 294.194303 191.305093 
L 298.426398 191.305093 
L 298.782392 183.183949 
L 299.379068 183.183949 
L 299.511583 191.305093 
L 299.737881 183.183949 
L 299.748685 191.305093 
L 304.621141 191.305093 
L 305.066608 175.062804 
L 305.290315 175.062804 
L 306.032566 183.183949 
L 306.154548 191.305093 
L 307.642711 191.305093 
L 307.796888 175.062804 
L 308.159623 183.183949 
L 308.234456 183.183949 
L 308.424755 191.305093 
L 312.422447 191.305093 
L 312.422447 191.305093 
" clip-path="url(#p760029e3a3)" style="fill: none; stroke: #000000; stroke-width: 1.5; stroke-linecap: square"/>
   </g>
   <g id="patch_8">
    <path d="M 44.103906 195.365666 
L 44.103906 106.033073 
" style="fill: none; stroke: #000000; stroke-width: 0.8; stroke-linejoin: miter; stroke-linecap: square"/>
   </g>
   <g id="patch_9">
    <path d="M 325.19952 195.365666 
L 325.19952 106.033073 
" style="fill: none; stroke: #000000; stroke-width: 0.8; stroke-linejoin: miter; stroke-linecap: square"/>
   </g>
   <g id="patch_10">
    <path d="M 44.103906 195.365666 
L 325.19952 195.365666 
" style="fill: none; stroke: #000000; stroke-width: 0.8; stroke-linejoin: miter; stroke-linecap: square"/>
   </g>
   <g id="patch_11">
    <path d="M 44.103906 106.033073 
L 325.19952 106.033073 
" style="fill: none; stroke: #000000; stroke-width: 0.8; stroke-linejoin: miter; stroke-linecap: square"/>
   </g>
  </g>
  <g id="axes_3">
   <g id="patch_12">
    <path d="M 44.103906 294.198739 
L 325.19952 294.198739 
L 325.19952 204.866146 
L 44.103906 204.866146 
z
" style="fill: #ffffff"/>
   </g>
   <g id="matplotlib.axis_5">
    <g id="xtick_19">
     <g id="line2d_27">
      <g>
       <use xlink:href="#m99021eb4ff" x="56.88098" y="294.198739" style="stroke: #000000; stroke-width: 0.8"/>
      </g>
     </g>
     <g id="text_9">
      <!-- 0 -->
      <g transform="translate(53.69973 308.796395) scale(0.1 -0.1)">
       <use xlink:href="#DejaVuSans-13"/>
      </g>
     </g>
    </g>
    <g id="xtick_20">
     <g id="line2d_28">
      <g>
       <use xlink:href="#m99021eb4ff" x="88.786176" y="294.198739" style="stroke: #000000; stroke-width: 0.8"/>
      </g>
     </g>
     <g id="text_10">
      <!-- 100 -->
      <g transform="translate(79.242426 308.796395) scale(0.1 -0.1)">
       <use xlink:href="#DejaVuSans-14"/>
       <use xlink:href="#DejaVuSans-13" transform="translate(63.625 0)"/>
       <use xlink:href="#DejaVuSans-13" transform="translate(127.25 0)"/>
      </g>
     </g>
    </g>
    <g id="xtick_21">
     <g id="line2d_29">
      <g>
       <use xlink:href="#m99021eb4ff" x="120.691372" y="294.198739" style="stroke: #000000; stroke-width: 0.8"/>
      </g>
     </g>
     <g id="text_11">
      <!-- 200 -->
      <g transform="translate(111.147622 308.796395) scale(0.1 -0.1)">
       <defs>
        <path id="DejaVuSans-15" d="M 1228 531 
L 3431 531 
L 3431 0 
L 469 0 
L 469 531 
Q 828 903 1448 1529 
Q 2069 2156 2228 2338 
Q 2531 2678 2651 2914 
Q 2772 3150 2772 3378 
Q 2772 3750 2511 3984 
Q 2250 4219 1831 4219 
Q 1534 4219 1204 4116 
Q 875 4013 500 3803 
L 500 4441 
Q 881 4594 1212 4672 
Q 1544 4750 1819 4750 
Q 2544 4750 2975 4387 
Q 3406 4025 3406 3419 
Q 3406 3131 3298 2873 
Q 3191 2616 2906 2266 
Q 2828 2175 2409 1742 
Q 1991 1309 1228 531 
z
" transform="scale(0.015625)"/>
       </defs>
       <use xlink:href="#DejaVuSans-15"/>
       <use xlink:href="#DejaVuSans-13" transform="translate(63.625 0)"/>
       <use xlink:href="#DejaVuSans-13" transform="translate(127.25 0)"/>
      </g>
     </g>
    </g>
    <g id="xtick_22">
     <g id="line2d_30">
      <g>
       <use xlink:href="#m99021eb4ff" x="152.596568" y="294.198739" style="stroke: #000000; stroke-width: 0.8"/>
      </g>
     </g>
     <g id="text_12">
      <!-- 300 -->
      <g transform="translate(143.052818 308.796395) scale(0.1 -0.1)">
       <defs>
        <path id="DejaVuSans-16" d="M 2597 2516 
Q 3050 2419 3304 2112 
Q 3559 1806 3559 1356 
Q 3559 666 3084 287 
Q 2609 -91 1734 -91 
Q 1441 -91 1130 -33 
Q 819 25 488 141 
L 488 750 
Q 750 597 1062 519 
Q 1375 441 1716 441 
Q 2309 441 2620 675 
Q 2931 909 2931 1356 
Q 2931 1769 2642 2001 
Q 2353 2234 1838 2234 
L 1294 2234 
L 1294 2753 
L 1863 2753 
Q 2328 2753 2575 2939 
Q 2822 3125 2822 3475 
Q 2822 3834 2567 4026 
Q 2313 4219 1838 4219 
Q 1578 4219 1281 4162 
Q 984 4106 628 3988 
L 628 4550 
Q 988 4650 1302 4700 
Q 1616 4750 1894 4750 
Q 2613 4750 3031 4423 
Q 3450 4097 3450 3541 
Q 3450 3153 3228 2886 
Q 3006 2619 2597 2516 
z
" transform="scale(0.015625)"/>
       </defs>
       <use xlink:href="#DejaVuSans-16"/>
       <use xlink:href="#DejaVuSans-13" transform="translate(63.625 0)"/>
       <use xlink:href="#DejaVuSans-13" transform="translate(127.25 0)"/>
      </g>
     </g>
    </g>
    <g id="xtick_23">
     <g id="line2d_31">
      <g>
       <use xlink:href="#m99021eb4ff" x="184.501764" y="294.198739" style="stroke: #000000; stroke-width: 0.8"/>
      </g>
     </g>
     <g id="text_13">
      <!-- 400 -->
      <g transform="translate(174.958014 308.796395) scale(0.1 -0.1)">
       <defs>
        <path id="DejaVuSans-17" d="M 2419 4116 
L 825 1625 
L 2419 1625 
L 2419 4116 
z
M 2253 4666 
L 3047 4666 
L 3047 1625 
L 3713 1625 
L 3713 1100 
L 3047 1100 
L 3047 0 
L 2419 0 
L 2419 1100 
L 313 1100 
L 313 1709 
L 2253 4666 
z
" transform="scale(0.015625)"/>
       </defs>
       <use xlink:href="#DejaVuSans-17"/>
       <use xlink:href="#DejaVuSans-13" transform="translate(63.625 0)"/>
       <use xlink:href="#DejaVuSans-13" transform="translate(127.25 0)"/>
      </g>
     </g>
    </g>
    <g id="xtick_24">
     <g id="line2d_32">
      <g>
       <use xlink:href="#m99021eb4ff" x="216.40696" y="294.198739" style="stroke: #000000; stroke-width: 0.8"/>
      </g>
     </g>
     <g id="text_14">
      <!-- 500 -->
      <g transform="translate(206.86321 308.796395) scale(0.1 -0.1)">
       <use xlink:href="#DejaVuSans-18"/>
       <use xlink:href="#DejaVuSans-13" transform="translate(63.625 0)"/>
       <use xlink:href="#DejaVuSans-13" transform="translate(127.25 0)"/>
      </g>
     </g>
    </g>
    <g id="xtick_25">
     <g id="line2d_33">
      <g>
       <use xlink:href="#m99021eb4ff" x="248.312157" y="294.198739" style="stroke: #000000; stroke-width: 0.8"/>
      </g>
     </g>
     <g id="text_15">
      <!-- 600 -->
      <g transform="translate(238.768407 308.796395) scale(0.1 -0.1)">
       <defs>
        <path id="DejaVuSans-19" d="M 2113 2584 
Q 1688 2584 1439 2293 
Q 1191 2003 1191 1497 
Q 1191 994 1439 701 
Q 1688 409 2113 409 
Q 2538 409 2786 701 
Q 3034 994 3034 1497 
Q 3034 2003 2786 2293 
Q 2538 2584 2113 2584 
z
M 3366 4563 
L 3366 3988 
Q 3128 4100 2886 4159 
Q 2644 4219 2406 4219 
Q 1781 4219 1451 3797 
Q 1122 3375 1075 2522 
Q 1259 2794 1537 2939 
Q 1816 3084 2150 3084 
Q 2853 3084 3261 2657 
Q 3669 2231 3669 1497 
Q 3669 778 3244 343 
Q 2819 -91 2113 -91 
Q 1303 -91 875 529 
Q 447 1150 447 2328 
Q 447 3434 972 4092 
Q 1497 4750 2381 4750 
Q 2619 4750 2861 4703 
Q 3103 4656 3366 4563 
z
" transform="scale(0.015625)"/>
       </defs>
       <use xlink:href="#DejaVuSans-19"/>
       <use xlink:href="#DejaVuSans-13" transform="translate(63.625 0)"/>
       <use xlink:href="#DejaVuSans-13" transform="translate(127.25 0)"/>
      </g>
     </g>
    </g>
    <g id="xtick_26">
     <g id="line2d_34">
      <g>
       <use xlink:href="#m99021eb4ff" x="280.217353" y="294.198739" style="stroke: #000000; stroke-width: 0.8"/>
      </g>
     </g>
     <g id="text_16">
      <!-- 700 -->
      <g transform="translate(270.673603 308.796395) scale(0.1 -0.1)">
       <defs>
        <path id="DejaVuSans-1a" d="M 525 4666 
L 3525 4666 
L 3525 4397 
L 1831 0 
L 1172 0 
L 2766 4134 
L 525 4134 
L 525 4666 
z
" transform="scale(0.015625)"/>
       </defs>
       <use xlink:href="#DejaVuSans-1a"/>
       <use xlink:href="#DejaVuSans-13" transform="translate(63.625 0)"/>
       <use xlink:href="#DejaVuSans-13" transform="translate(127.25 0)"/>
      </g>
     </g>
    </g>
    <g id="xtick_27">
     <g id="line2d_35">
      <g>
       <use xlink:href="#m99021eb4ff" x="312.122549" y="294.198739" style="stroke: #000000; stroke-width: 0.8"/>
      </g>
     </g>
     <g id="text_17">
      <!-- 800 -->
      <g transform="translate(302.578799 308.796395) scale(0.1 -0.1)">
       <defs>
        <path id="DejaVuSans-1b" d="M 2034 2216 
Q 1584 2216 1326 1975 
Q 1069 1734 1069 1313 
Q 1069 891 1326 650 
Q 1584 409 2034 409 
Q 2484 409 2743 651 
Q 3003 894 3003 1313 
Q 3003 1734 2745 1975 
Q 2488 2216 2034 2216 
z
M 1403 2484 
Q 997 2584 770 2862 
Q 544 3141 544 3541 
Q 544 4100 942 4425 
Q 1341 4750 2034 4750 
Q 2731 4750 3128 4425 
Q 3525 4100 3525 3541 
Q 3525 3141 3298 2862 
Q 3072 2584 2669 2484 
Q 3125 2378 3379 2068 
Q 3634 1759 3634 1313 
Q 3634 634 3220 271 
Q 2806 -91 2034 -91 
Q 1263 -91 848 271 
Q 434 634 434 1313 
Q 434 1759 690 2068 
Q 947 2378 1403 2484 
z
M 1172 3481 
Q 1172 3119 1398 2916 
Q 1625 2713 2034 2713 
Q 2441 2713 2670 2916 
Q 2900 3119 2900 3481 
Q 2900 3844 2670 4047 
Q 2441 4250 2034 4250 
Q 1625 4250 1398 4047 
Q 1172 3844 1172 3481 
z
" transform="scale(0.015625)"/>
       </defs>
       <use xlink:href="#DejaVuSans-1b"/>
       <use xlink:href="#DejaVuSans-13" transform="translate(63.625 0)"/>
       <use xlink:href="#DejaVuSans-13" transform="translate(127.25 0)"/>
      </g>
     </g>
    </g>
    <g id="text_18">
     <!-- Time -->
     <g transform="translate(172.415776 322.797176) scale(0.1 -0.1)">
      <defs>
       <path id="DejaVuSans-37" d="M -19 4666 
L 3928 4666 
L 3928 4134 
L 2272 4134 
L 2272 0 
L 1638 0 
L 1638 4134 
L -19 4134 
L -19 4666 
z
" transform="scale(0.015625)"/>
       <path id="DejaVuSans-4c" d="M 603 3500 
L 1178 3500 
L 1178 0 
L 603 0 
L 603 3500 
z
M 603 4863 
L 1178 4863 
L 1178 4134 
L 603 4134 
L 603 4863 
z
" transform="scale(0.015625)"/>
       <path id="DejaVuSans-50" d="M 3328 2828 
Q 3544 3216 3844 3400 
Q 4144 3584 4550 3584 
Q 5097 3584 5394 3201 
Q 5691 2819 5691 2113 
L 5691 0 
L 5113 0 
L 5113 2094 
Q 5113 2597 4934 2840 
Q 4756 3084 4391 3084 
Q 3944 3084 3684 2787 
Q 3425 2491 3425 1978 
L 3425 0 
L 2847 0 
L 2847 2094 
Q 2847 2600 2669 2842 
Q 2491 3084 2119 3084 
Q 1678 3084 1418 2786 
Q 1159 2488 1159 1978 
L 1159 0 
L 581 0 
L 581 3500 
L 1159 3500 
L 1159 2956 
Q 1356 3278 1631 3431 
Q 1906 3584 2284 3584 
Q 2666 3584 2933 3390 
Q 3200 3197 3328 2828 
z
" transform="scale(0.015625)"/>
      </defs>
      <use xlink:href="#DejaVuSans-37"/>
      <use xlink:href="#DejaVuSans-4c" transform="translate(58 0)"/>
      <use xlink:href="#DejaVuSans-50" transform="translate(85.78125 0)"/>
      <use xlink:href="#DejaVuSans-48" transform="translate(183.1875 0)"/>
     </g>
    </g>
   </g>
   <g id="matplotlib.axis_6">
    <g id="ytick_7">
     <g id="line2d_36">
      <g>
       <use xlink:href="#ma032049f4e" x="44.103906" y="290.138166" style="stroke: #000000; stroke-width: 0.8"/>
      </g>
     </g>
     <g id="text_19">
      <!-- 0.0 -->
      <g transform="translate(21.200781 293.936994) scale(0.1 -0.1)">
       <defs>
        <path id="DejaVuSans-11" d="M 684 794 
L 1344 794 
L 1344 0 
L 684 0 
L 684 794 
z
" transform="scale(0.015625)"/>
       </defs>
       <use xlink:href="#DejaVuSans-13"/>
       <use xlink:href="#DejaVuSans-11" transform="translate(63.625 0)"/>
       <use xlink:href="#DejaVuSans-13" transform="translate(95.40625 0)"/>
      </g>
     </g>
    </g>
    <g id="ytick_8">
     <g id="line2d_37">
      <g>
       <use xlink:href="#ma032049f4e" x="44.103906" y="249.532442" style="stroke: #000000; stroke-width: 0.8"/>
      </g>
     </g>
     <g id="text_20">
      <!-- 0.5 -->
      <g transform="translate(21.200781 253.33127) scale(0.1 -0.1)">
       <use xlink:href="#DejaVuSans-13"/>
       <use xlink:href="#DejaVuSans-11" transform="translate(63.625 0)"/>
       <use xlink:href="#DejaVuSans-18" transform="translate(95.40625 0)"/>
      </g>
     </g>
    </g>
    <g id="ytick_9">
     <g id="line2d_38">
      <g>
       <use xlink:href="#ma032049f4e" x="44.103906" y="208.926718" style="stroke: #000000; stroke-width: 0.8"/>
      </g>
     </g>
     <g id="text_21">
      <!-- 1.0 -->
      <g transform="translate(21.200781 212.725546) scale(0.1 -0.1)">
       <use xlink:href="#DejaVuSans-14"/>
       <use xlink:href="#DejaVuSans-11" transform="translate(63.625 0)"/>
       <use xlink:href="#DejaVuSans-13" transform="translate(95.40625 0)"/>
      </g>
     </g>
    </g>
    <g id="text_22">
     <!-- Free lac operon -->
     <g transform="translate(14.798438 288.006661) rotate(-90) scale(0.1 -0.1)">
      <defs>
       <path id="DejaVuSans-29" d="M 628 4666 
L 3309 4666 
L 3309 4134 
L 1259 4134 
L 1259 2759 
L 3109 2759 
L 3109 2228 
L 1259 2228 
L 1259 0 
L 628 0 
L 628 4666 
z
" transform="scale(0.015625)"/>
       <path id="DejaVuSans-53" d="M 1159 525 
L 1159 -1331 
L 581 -1331 
L 581 3500 
L 1159 3500 
L 1159 2969 
Q 1341 3281 1617 3432 
Q 1894 3584 2278 3584 
Q 2916 3584 3314 3078 
Q 3713 2572 3713 1747 
Q 3713 922 3314 415 
Q 2916 -91 2278 -91 
Q 1894 -91 1617 61 
Q 1341 213 1159 525 
z
M 3116 1747 
Q 3116 2381 2855 2742 
Q 2594 3103 2138 3103 
Q 1681 3103 1420 2742 
Q 1159 2381 1159 1747 
Q 1159 1113 1420 752 
Q 1681 391 2138 391 
Q 2594 391 2855 752 
Q 3116 1113 3116 1747 
z
" transform="scale(0.015625)"/>
       <path id="DejaVuSans-51" d="M 3513 2113 
L 3513 0 
L 2938 0 
L 2938 2094 
Q 2938 2591 2744 2837 
Q 2550 3084 2163 3084 
Q 1697 3084 1428 2787 
Q 1159 2491 1159 1978 
L 1159 0 
L 581 0 
L 581 3500 
L 1159 3500 
L 1159 2956 
Q 1366 3272 1645 3428 
Q 1925 3584 2291 3584 
Q 2894 3584 3203 3211 
Q 3513 2838 3513 2113 
z
" transform="scale(0.015625)"/>
      </defs>
      <use xlink:href="#DejaVuSans-29"/>
      <use xlink:href="#DejaVuSans-55" transform="translate(50.234375 0)"/>
      <use xlink:href="#DejaVuSans-48" transform="translate(89.140625 0)"/>
      <use xlink:href="#DejaVuSans-48" transform="translate(150.671875 0)"/>
      <use xlink:href="#DejaVuSans-3" transform="translate(212.203125 0)"/>
      <use xlink:href="#DejaVuSans-4f" transform="translate(243.984375 0)"/>
      <use xlink:href="#DejaVuSans-44" transform="translate(271.765625 0)"/>
      <use xlink:href="#DejaVuSans-46" transform="translate(333.046875 0)"/>
      <use xlink:href="#DejaVuSans-3" transform="translate(388.03125 0)"/>
      <use xlink:href="#DejaVuSans-52" transform="translate(419.8125 0)"/>
      <use xlink:href="#DejaVuSans-53" transform="translate(481 0)"/>
      <use xlink:href="#DejaVuSans-48" transform="translate(544.484375 0)"/>
      <use xlink:href="#DejaVuSans-55" transform="translate(606.015625 0)"/>
      <use xlink:href="#DejaVuSans-52" transform="translate(644.921875 0)"/>
      <use xlink:href="#DejaVuSans-51" transform="translate(706.109375 0)"/>
     </g>
    </g>
   </g>
   <g id="line2d_39">
    <path d="M 56.88098 208.926718 
L 56.962582 290.138166 
L 57.13105 290.138166 
L 57.300813 208.926718 
L 57.419107 208.926718 
L 57.521348 290.138166 
L 58.738934 290.138166 
L 59.729843 208.926718 
L 59.916386 208.926718 
L 59.939155 290.138166 
L 62.363209 290.138166 
L 64.960522 208.926718 
L 65.255736 208.926718 
L 65.393328 290.138166 
L 65.519336 290.138166 
L 72.188935 208.926718 
L 72.358907 290.138166 
L 80.206933 208.926718 
L 80.256023 290.138166 
L 82.885314 208.926718 
L 83.025454 208.926718 
L 83.079674 290.138166 
L 84.821878 290.138166 
L 84.887382 208.926718 
L 85.764613 208.926718 
L 85.954794 290.138166 
L 86.988742 290.138166 
L 89.984549 208.926718 
L 90.525133 208.926718 
L 90.554443 290.138166 
L 90.912734 290.138166 
L 91.79507 208.926718 
L 91.853579 290.138166 
L 92.197788 290.138166 
L 109.290887 208.926718 
L 109.304604 290.138166 
L 109.563343 290.138166 
L 109.839766 208.926718 
L 110.127426 290.138166 
L 110.255631 208.926718 
L 110.663814 208.926718 
L 110.868614 290.138166 
L 111.161566 290.138166 
L 115.328118 208.926718 
L 115.98944 290.138166 
L 117.633208 208.926718 
L 117.948772 290.138166 
L 118.621904 208.926718 
L 118.709321 290.138166 
L 119.719743 208.926718 
L 119.804742 290.138166 
L 123.751718 290.138166 
L 129.776895 208.926718 
L 129.882953 290.138166 
L 131.627057 208.926718 
L 132.078324 208.926718 
L 132.099787 290.138166 
L 133.942012 290.138166 
L 136.540381 208.926718 
L 136.553702 290.138166 
L 139.437788 208.926718 
L 139.480564 290.138166 
L 146.531263 208.926718 
L 147.476578 208.926718 
L 147.544963 290.138166 
L 148.162036 290.138166 
L 148.407325 208.926718 
L 148.722535 208.926718 
L 148.835399 290.138166 
L 149.90713 290.138166 
L 150.419096 208.926718 
L 150.519954 290.138166 
L 151.642223 290.138166 
L 151.653555 208.926718 
L 151.815261 290.138166 
L 156.128267 208.926718 
L 156.217293 290.138166 
L 156.466872 208.926718 
L 182.246102 208.926718 
L 182.357402 290.138166 
L 191.061474 290.138166 
L 195.50419 208.926718 
L 195.564428 290.138166 
L 197.268845 208.926718 
L 197.312131 290.138166 
L 206.916788 208.926718 
L 206.974216 290.138166 
L 211.877588 208.926718 
L 212.267776 290.138166 
L 212.348339 208.926718 
L 212.458932 290.138166 
L 220.665758 208.926718 
L 221.014475 208.926718 
L 221.194616 290.138166 
L 225.308549 208.926718 
L 225.712761 208.926718 
L 225.819877 290.138166 
L 227.111706 290.138166 
L 228.179246 208.926718 
L 257.173582 208.926718 
L 257.264448 290.138166 
L 259.002579 290.138166 
L 264.802102 208.926718 
L 265.562747 208.926718 
L 265.599996 290.138166 
L 267.338825 290.138166 
L 270.458075 208.926718 
L 271.000908 208.926718 
L 271.021967 290.138166 
L 271.375622 290.138166 
L 272.260658 208.926718 
L 272.406526 290.138166 
L 273.41372 290.138166 
L 276.352254 208.926718 
L 276.639374 208.926718 
L 276.767548 290.138166 
L 277.270183 290.138166 
L 277.43819 208.926718 
L 277.456766 290.138166 
L 278.05648 290.138166 
L 280.864208 208.926718 
L 280.998632 208.926718 
L 281.003977 290.138166 
L 282.986583 290.138166 
L 287.248795 208.926718 
L 287.377711 290.138166 
L 289.510407 208.926718 
L 289.920776 208.926718 
L 289.946325 290.138166 
L 290.808124 290.138166 
L 291.15494 208.926718 
L 291.191067 290.138166 
L 291.445199 290.138166 
L 292.766817 208.926718 
L 293.06164 208.926718 
L 293.076018 290.138166 
L 294.194303 290.138166 
L 298.426398 208.926718 
L 298.682949 208.926718 
L 298.782392 290.138166 
L 299.497605 290.138166 
L 299.511583 208.926718 
L 299.748685 208.926718 
L 299.916186 290.138166 
L 300.427303 208.926718 
L 300.459684 290.138166 
L 300.680897 290.138166 
L 300.833406 208.926718 
L 300.883063 290.138166 
L 304.621141 208.926718 
L 305.113015 208.926718 
L 305.123154 290.138166 
L 306.013023 290.138166 
L 306.032566 208.926718 
L 306.154548 208.926718 
L 306.540435 290.138166 
L 307.642711 208.926718 
L 307.765942 208.926718 
L 307.796888 290.138166 
L 308.424755 290.138166 
L 308.708989 208.926718 
L 308.933261 290.138166 
L 312.422447 208.926718 
L 312.422447 208.926718 
" clip-path="url(#p76f0284de2)" style="fill: none; stroke: #000000; stroke-width: 1.5; stroke-linecap: square"/>
   </g>
   <g id="patch_13">
    <path d="M 44.103906 294.198739 
L 44.103906 204.866146 
" style="fill: none; stroke: #000000; stroke-width: 0.8; stroke-linejoin: miter; stroke-linecap: square"/>
   </g>
   <g id="patch_14">
    <path d="M 325.19952 294.198739 
L 325.19952 204.866146 
" style="fill: none; stroke: #000000; stroke-width: 0.8; stroke-linejoin: miter; stroke-linecap: square"/>
   </g>
   <g id="patch_15">
    <path d="M 44.103906 294.198739 
L 325.19952 294.198739 
" style="fill: none; stroke: #000000; stroke-width: 0.8; stroke-linejoin: miter; stroke-linecap: square"/>
   </g>
   <g id="patch_16">
    <path d="M 44.103906 204.866146 
L 325.19952 204.866146 
" style="fill: none; stroke: #000000; stroke-width: 0.8; stroke-linejoin: miter; stroke-linecap: square"/>
   </g>
  </g>
 </g>
 <defs>
  <clipPath id="p40e53b472e">
   <rect x="44.103906" y="7.2" width="281.095614" height="89.332593"/>
  </clipPath>
  <clipPath id="p760029e3a3">
   <rect x="44.103906" y="106.033073" width="281.095614" height="89.332593"/>
  </clipPath>
  <clipPath id="p76f0284de2">
   <rect x="44.103906" y="204.866146" width="281.095614" height="89.332593"/>
  </clipPath>
 </defs>
</svg>
