<?xml version="1.0" encoding="utf-8" standalone="no"?>
<!DOCTYPE svg PUBLIC "-//W3C//DTD SVG 1.1//EN"
  "http://www.w3.org/Graphics/SVG/1.1/DTD/svg11.dtd">
<svg xmlns:xlink="http://www.w3.org/1999/xlink" width="332.39952pt" height="332.39952pt" viewBox="0 0 332.39952 332.39952" xmlns="http://www.w3.org/2000/svg" version="1.1">
 <metadata>
  <rdf:RDF xmlns:dc="http://purl.org/dc/elements/1.1/" xmlns:cc="http://creativecommons.org/ns#" xmlns:rdf="http://www.w3.org/1999/02/22-rdf-syntax-ns#">
   <cc:Work>
    <dc:type rdf:resource="http://purl.org/dc/dcmitype/StillImage"/>
    <dc:date>2026-06-09T15:27:37.718823</dc:date>
    <dc:format>image/svg+xml</dc:format>
    <dc:creator>
     <cc:Agent>
      <dc:title>Matplotlib v3.10.9, https://matplotlib.org/</dc:title>
     </cc:Agent>
    </dc:creator>
   </cc:Work>
  </rdf:RDF>
 </metadata>
 <defs>
  <style type="text/css">*{stroke-linejoin: round; stroke-linecap: butt}</style>
 </defs>
 <g id="figure_1">
  <g id="patch_1">
   <path d="M 0 332.39952 
L 332.39952 332.39952 
L 332.39952 0 
L 0 0 
z
" style="fill: #ffffff"/>
  </g>
  <g id="axes_1">
   <g id="patch_2">
    <path d="M 43.78125 96.747437 
L 325.19952 96.747437 
L 325.19952 7.2 
L 43.78125 7.2 
z
" style="fill: #ffffff"/>
   </g>
   <g id="matplotlib.axis_1">
    <g id="xtick_1">
     <g id="line2d_1">
      <defs>
       <path id="m1f25c57e8a" d="M 0 0 
L 0 3.5 
" style="stroke: #000000; stroke-width: 0.8"/>
      </defs>
      <g>
       <use xlink:href="#m1f25c57e8a" x="56.57299" y="96.747437" style="stroke: #000000; stroke-width: 0.8"/>
      </g>
     </g>
    </g>
    <g id="xtick_2">
     <g id="line2d_2">
      <g>
       <use xlink:href="#m1f25c57e8a" x="88.066002" y="96.747437" style="stroke: #000000; stroke-width: 0.8"/>
      </g>
     </g>
    </g>
    <g id="xtick_3">
     <g id="line2d_3">
      <g>
       <use xlink:href="#m1f25c57e8a" x="119.559015" y="96.747437" style="stroke: #000000; stroke-width: 0.8"/>
      </g>
     </g>
    </g>
    <g id="xtick_4">
     <g id="line2d_4">
      <g>
       <use xlink:href="#m1f25c57e8a" x="151.052027" y="96.747437" style="stroke: #000000; stroke-width: 0.8"/>
      </g>
     </g>
    </g>
    <g id="xtick_5">
     <g id="line2d_5">
      <g>
       <use xlink:href="#m1f25c57e8a" x="182.54504" y="96.747437" style="stroke: #000000; stroke-width: 0.8"/>
      </g>
     </g>
    </g>
    <g id="xtick_6">
     <g id="line2d_6">
      <g>
       <use xlink:href="#m1f25c57e8a" x="214.038053" y="96.747437" style="stroke: #000000; stroke-width: 0.8"/>
      </g>
     </g>
    </g>
    <g id="xtick_7">
     <g id="line2d_7">
      <g>
       <use xlink:href="#m1f25c57e8a" x="245.531065" y="96.747437" style="stroke: #000000; stroke-width: 0.8"/>
      </g>
     </g>
    </g>
    <g id="xtick_8">
     <g id="line2d_8">
      <g>
       <use xlink:href="#m1f25c57e8a" x="277.024078" y="96.747437" style="stroke: #000000; stroke-width: 0.8"/>
      </g>
     </g>
    </g>
    <g id="xtick_9">
     <g id="line2d_9">
      <g>
       <use xlink:href="#m1f25c57e8a" x="308.51709" y="96.747437" style="stroke: #000000; stroke-width: 0.8"/>
      </g>
     </g>
    </g>
   </g>
   <g id="matplotlib.axis_2">
    <g id="ytick_1">
     <g id="line2d_10">
      <defs>
       <path id="mbe1e74b37e" d="M 0 0 
L -3.5 0 
" style="stroke: #000000; stroke-width: 0.8"/>
      </defs>
      <g>
       <use xlink:href="#mbe1e74b37e" x="43.78125" y="92.677099" style="stroke: #000000; stroke-width: 0.8"/>
      </g>
     </g>
     <g id="text_1">
      <!-- 0 -->
      <g transform="translate(30.41875 96.476317) scale(0.1 -0.1)">
       <defs>
        <path id="DejaVuSans-30" d="M 2034 4250 
Q 1547 4250 1301 3770 
Q 1056 3291 1056 2328 
Q 1056 1369 1301 889 
Q 1547 409 2034 409 
Q 2525 409 2770 889 
Q 3016 1369 3016 2328 
Q 3016 3291 2770 3770 
Q 2525 4250 2034 4250 
z
M 2034 4750 
Q 2819 4750 3233 4129 
Q 3647 3509 3647 2328 
Q 3647 1150 3233 529 
Q 2819 -91 2034 -91 
Q 1250 -91 836 529 
Q 422 1150 422 2328 
Q 422 3509 836 4129 
Q 1250 4750 2034 4750 
z
" transform="scale(0.015625)"/>
       </defs>
       <use xlink:href="#DejaVuSans-30"/>
      </g>
     </g>
    </g>
    <g id="ytick_2">
     <g id="line2d_11">
      <g>
       <use xlink:href="#mbe1e74b37e" x="43.78125" y="51.973718" style="stroke: #000000; stroke-width: 0.8"/>
      </g>
     </g>
     <g id="text_2">
      <!-- 5 -->
      <g transform="translate(30.41875 55.772937) scale(0.1 -0.1)">
       <defs>
        <path id="DejaVuSans-35" d="M 691 4666 
L 3169 4666 
L 3169 4134 
L 1269 4134 
L 1269 2991 
Q 1406 3038 1543 3061 
Q 1681 3084 1819 3084 
Q 2600 3084 3056 2656 
Q 3513 2228 3513 1497 
Q 3513 744 3044 326 
Q 2575 -91 1722 -91 
Q 1428 -91 1123 -41 
Q 819 9 494 109 
L 494 744 
Q 775 591 1075 516 
Q 1375 441 1709 441 
Q 2250 441 2565 725 
Q 2881 1009 2881 1497 
Q 2881 1984 2565 2268 
Q 2250 2553 1709 2553 
Q 1456 2553 1204 2497 
Q 953 2441 691 2322 
L 691 4666 
z
" transform="scale(0.015625)"/>
       </defs>
       <use xlink:href="#DejaVuSans-35"/>
      </g>
     </g>
    </g>
    <g id="ytick_3">
     <g id="line2d_12">
      <g>
       <use xlink:href="#mbe1e74b37e" x="43.78125" y="11.270338" style="stroke: #000000; stroke-width: 0.8"/>
      </g>
     </g>
     <g id="text_3">
      <!-- 10 -->
      <g transform="translate(24.05625 15.069557) scale(0.1 -0.1)">
       <defs>
        <path id="DejaVuSans-31" d="M 794 531 
L 1825 531 
L 1825 4091 
L 703 3866 
L 703 4441 
L 1819 4666 
L 2450 4666 
L 2450 531 
L 3481 531 
L 3481 0 
L 794 0 
L 794 531 
z
" transform="scale(0.015625)"/>
       </defs>
       <use xlink:href="#DejaVuSans-31"/>
       <use xlink:href="#DejaVuSans-30" transform="translate(63.623047 0)"/>
      </g>
     </g>
    </g>
    <g id="text_4">
     <!-- Extracellular lactose -->
     <g transform="translate(17.976562 102.945593) rotate(-90) scale(0.1 -0.1)">
      <defs>
       <path id="DejaVuSans-45" d="M 628 4666 
L 3578 4666 
L 3578 4134 
L 1259 4134 
L 1259 2753 
L 3481 2753 
L 3481 2222 
L 1259 2222 
L 1259 531 
L 3634 531 
L 3634 0 
L 628 0 
L 628 4666 
z
" transform="scale(0.015625)"/>
       <path id="DejaVuSans-78" d="M 3513 3500 
L 2247 1797 
L 3578 0 
L 2900 0 
L 1881 1375 
L 863 0 
L 184 0 
L 1544 1831 
L 300 3500 
L 978 3500 
L 1906 2253 
L 2834 3500 
L 3513 3500 
z
" transform="scale(0.015625)"/>
       <path id="DejaVuSans-74" d="M 1172 4494 
L 1172 3500 
L 2356 3500 
L 2356 3053 
L 1172 3053 
L 1172 1153 
Q 1172 725 1289 603 
Q 1406 481 1766 481 
L 2356 481 
L 2356 0 
L 1766 0 
Q 1100 0 847 248 
Q 594 497 594 1153 
L 594 3053 
L 172 3053 
L 172 3500 
L 594 3500 
L 594 4494 
L 1172 4494 
z
" transform="scale(0.015625)"/>
       <path id="DejaVuSans-72" d="M 2631 2963 
Q 2534 3019 2420 3045 
Q 2306 3072 2169 3072 
Q 1681 3072 1420 2755 
Q 1159 2438 1159 1844 
L 1159 0 
L 581 0 
L 581 3500 
L 1159 3500 
L 1159 2956 
Q 1341 3275 1631 3429 
Q 1922 3584 2338 3584 
Q 2397 3584 2469 3576 
Q 2541 3569 2628 3553 
L 2631 2963 
z
" transform="scale(0.015625)"/>
       <path id="DejaVuSans-61" d="M 2194 1759 
Q 1497 1759 1228 1600 
Q 959 1441 959 1056 
Q 959 750 1161 570 
Q 1363 391 1709 391 
Q 2188 391 2477 730 
Q 2766 1069 2766 1631 
L 2766 1759 
L 2194 1759 
z
M 3341 1997 
L 3341 0 
L 2766 0 
L 2766 531 
Q 2569 213 2275 61 
Q 1981 -91 1556 -91 
Q 1019 -91 701 211 
Q 384 513 384 1019 
Q 384 1609 779 1909 
Q 1175 2209 1959 2209 
L 2766 2209 
L 2766 2266 
Q 2766 2663 2505 2880 
Q 2244 3097 1772 3097 
Q 1472 3097 1187 3025 
Q 903 2953 641 2809 
L 641 3341 
Q 956 3463 1253 3523 
Q 1550 3584 1831 3584 
Q 2591 3584 2966 3190 
Q 3341 2797 3341 1997 
z
" transform="scale(0.015625)"/>
       <path id="DejaVuSans-63" d="M 3122 3366 
L 3122 2828 
Q 2878 2963 2633 3030 
Q 2388 3097 2138 3097 
Q 1578 3097 1268 2742 
Q 959 2388 959 1747 
Q 959 1106 1268 751 
Q 1578 397 2138 397 
Q 2388 397 2633 464 
Q 2878 531 3122 666 
L 3122 134 
Q 2881 22 2623 -34 
Q 2366 -91 2075 -91 
Q 1284 -91 818 406 
Q 353 903 353 1747 
Q 353 2603 823 3093 
Q 1294 3584 2113 3584 
Q 2378 3584 2631 3529 
Q 2884 3475 3122 3366 
z
" transform="scale(0.015625)"/>
       <path id="DejaVuSans-65" d="M 3597 1894 
L 3597 1613 
L 953 1613 
Q 991 1019 1311 708 
Q 1631 397 2203 397 
Q 2534 397 2845 478 
Q 3156 559 3463 722 
L 3463 178 
Q 3153 47 2828 -22 
Q 2503 -91 2169 -91 
Q 1331 -91 842 396 
Q 353 884 353 1716 
Q 353 2575 817 3079 
Q 1281 3584 2069 3584 
Q 2775 3584 3186 3129 
Q 3597 2675 3597 1894 
z
M 3022 2063 
Q 3016 2534 2758 2815 
Q 2500 3097 2075 3097 
Q 1594 3097 1305 2825 
Q 1016 2553 972 2059 
L 3022 2063 
z
" transform="scale(0.015625)"/>
       <path id="DejaVuSans-6c" d="M 603 4863 
L 1178 4863 
L 1178 0 
L 603 0 
L 603 4863 
z
" transform="scale(0.015625)"/>
       <path id="DejaVuSans-75" d="M 544 1381 
L 544 3500 
L 1119 3500 
L 1119 1403 
Q 1119 906 1312 657 
Q 1506 409 1894 409 
Q 2359 409 2629 706 
Q 2900 1003 2900 1516 
L 2900 3500 
L 3475 3500 
L 3475 0 
L 2900 0 
L 2900 538 
Q 2691 219 2414 64 
Q 2138 -91 1772 -91 
Q 1169 -91 856 284 
Q 544 659 544 1381 
z
M 1991 3584 
L 1991 3584 
z
" transform="scale(0.015625)"/>
       <path id="DejaVuSans-20" transform="scale(0.015625)"/>
       <path id="DejaVuSans-6f" d="M 1959 3097 
Q 1497 3097 1228 2736 
Q 959 2375 959 1747 
Q 959 1119 1226 758 
Q 1494 397 1959 397 
Q 2419 397 2687 759 
Q 2956 1122 2956 1747 
Q 2956 2369 2687 2733 
Q 2419 3097 1959 3097 
z
M 1959 3584 
Q 2709 3584 3137 3096 
Q 3566 2609 3566 1747 
Q 3566 888 3137 398 
Q 2709 -91 1959 -91 
Q 1206 -91 779 398 
Q 353 888 353 1747 
Q 353 2609 779 3096 
Q 1206 3584 1959 3584 
z
" transform="scale(0.015625)"/>
       <path id="DejaVuSans-73" d="M 2834 3397 
L 2834 2853 
Q 2591 2978 2328 3040 
Q 2066 3103 1784 3103 
Q 1356 3103 1142 2972 
Q 928 2841 928 2578 
Q 928 2378 1081 2264 
Q 1234 2150 1697 2047 
L 1894 2003 
Q 2506 1872 2764 1633 
Q 3022 1394 3022 966 
Q 3022 478 2636 193 
Q 2250 -91 1575 -91 
Q 1294 -91 989 -36 
Q 684 19 347 128 
L 347 722 
Q 666 556 975 473 
Q 1284 391 1588 391 
Q 1994 391 2212 530 
Q 2431 669 2431 922 
Q 2431 1156 2273 1281 
Q 2116 1406 1581 1522 
L 1381 1569 
Q 847 1681 609 1914 
Q 372 2147 372 2553 
Q 372 3047 722 3315 
Q 1072 3584 1716 3584 
Q 2034 3584 2315 3537 
Q 2597 3491 2834 3397 
z
" transform="scale(0.015625)"/>
      </defs>
      <use xlink:href="#DejaVuSans-45"/>
      <use xlink:href="#DejaVuSans-78" transform="translate(63.183594 0)"/>
      <use xlink:href="#DejaVuSans-74" transform="translate(122.363281 0)"/>
      <use xlink:href="#DejaVuSans-72" transform="translate(161.572266 0)"/>
      <use xlink:href="#DejaVuSans-61" transform="translate(202.685547 0)"/>
      <use xlink:href="#DejaVuSans-63" transform="translate(263.964844 0)"/>
      <use xlink:href="#DejaVuSans-65" transform="translate(318.945312 0)"/>
      <use xlink:href="#DejaVuSans-6c" transform="translate(380.46875 0)"/>
      <use xlink:href="#DejaVuSans-6c" transform="translate(408.251953 0)"/>
      <use xlink:href="#DejaVuSans-75" transform="translate(436.035156 0)"/>
      <use xlink:href="#DejaVuSans-6c" transform="translate(499.414062 0)"/>
      <use xlink:href="#DejaVuSans-61" transform="translate(527.197266 0)"/>
      <use xlink:href="#DejaVuSans-72" transform="translate(588.476562 0)"/>
      <use xlink:href="#DejaVuSans-20" transform="translate(629.589844 0)"/>
      <use xlink:href="#DejaVuSans-6c" transform="translate(661.376953 0)"/>
      <use xlink:href="#DejaVuSans-61" transform="translate(689.160156 0)"/>
      <use xlink:href="#DejaVuSans-63" transform="translate(750.439453 0)"/>
      <use xlink:href="#DejaVuSans-74" transform="translate(805.419922 0)"/>
      <use xlink:href="#DejaVuSans-6f" transform="translate(844.628906 0)"/>
      <use xlink:href="#DejaVuSans-73" transform="translate(905.810547 0)"/>
      <use xlink:href="#DejaVuSans-65" transform="translate(957.910156 0)"/>
     </g>
    </g>
   </g>
   <g id="line2d_13">
    <path d="M 56.57299 92.677099 
L 154.5381 92.677099 
L 154.625976 11.270338 
L 155.284809 11.351745 
L 155.400883 11.677372 
L 155.445083 11.758779 
L 155.589273 13.2241 
L 155.707533 14.852235 
L 155.853682 16.643184 
L 155.884403 16.724591 
L 156.386997 20.225082 
L 156.660426 20.632115 
L 156.718906 20.713522 
L 156.826586 20.794929 
L 157.271004 20.876336 
L 157.366536 21.28337 
L 157.615765 21.690403 
L 157.795327 22.01603 
L 157.844031 22.097437 
L 157.940625 22.178844 
L 158.386362 23.481352 
L 158.524834 23.888386 
L 158.861945 25.353708 
L 158.886735 25.435114 
L 159.998778 31.703435 
L 160.030385 31.784842 
L 160.146456 32.273282 
L 160.201254 32.354689 
L 160.312903 32.517503 
L 160.331553 32.598909 
L 160.442872 33.005943 
L 160.728624 34.227045 
L 160.759041 34.308451 
L 160.868751 34.634078 
L 161.542058 39.518484 
L 161.58292 39.599891 
L 161.682533 39.844111 
L 161.849957 39.925518 
L 162.016929 40.658179 
L 162.378539 41.716466 
L 162.489378 42.693348 
L 162.64437 42.774754 
L 162.768261 42.856161 
L 162.794215 42.937568 
L 162.992887 43.507415 
L 163.090717 43.588822 
L 163.219054 43.995856 
L 163.298565 44.077263 
L 163.315783 44.158669 
L 163.430043 44.240076 
L 163.537258 44.89133 
L 163.707877 45.623991 
L 164.272364 49.694329 
L 164.308835 49.775736 
L 164.467506 50.18277 
L 164.650861 50.91543 
L 164.756643 51.322464 
L 164.824742 51.403871 
L 165.107863 52.136532 
L 165.135423 52.217939 
L 165.252542 52.706379 
L 165.412708 53.357633 
L 165.441579 53.43904 
L 165.576983 54.090294 
L 166.164075 56.45109 
L 166.213919 56.532497 
L 166.361116 57.427971 
L 166.385536 57.509378 
L 166.4936 58.404852 
L 166.53267 58.486259 
L 166.70843 60.032988 
L 166.724227 60.114394 
L 167.497656 63.370665 
L 167.560531 63.452072 
L 167.686092 63.696292 
L 167.895241 63.777699 
L 168.063406 63.859105 
L 168.57159 63.940512 
L 168.68188 64.510359 
L 168.818746 64.591766 
L 168.951652 64.917393 
L 169.936326 68.173664 
L 170.011149 68.25507 
L 170.121743 68.580697 
L 170.172972 68.662104 
L 170.370552 69.476172 
L 170.404121 69.557579 
L 170.640699 70.860087 
L 170.684295 70.941494 
L 170.809004 71.918375 
L 170.838095 71.999781 
L 170.973642 72.976663 
L 171.006889 73.058069 
L 171.185837 73.953544 
L 171.281377 74.03495 
L 171.414126 74.279171 
L 171.530654 74.523391 
L 171.622235 74.604798 
L 171.814063 75.256052 
L 171.928224 75.337459 
L 172.105599 75.663086 
L 172.271969 75.744492 
L 172.394222 75.825899 
L 174.600946 75.907306 
L 175.017828 76.395747 
L 175.217617 76.477153 
L 175.722849 76.80278 
L 176.1864 76.884187 
L 176.7417 77.209814 
L 177.377575 77.291221 
L 177.977543 77.616848 
L 178.240602 77.698255 
L 178.476931 78.512322 
L 178.636632 78.593729 
L 178.717267 78.675136 
L 178.905965 78.756543 
L 179.042028 78.919356 
L 179.209442 79.163576 
L 179.272128 79.244983 
L 179.759206 79.977644 
L 179.961431 80.221864 
L 180.081324 80.384678 
L 180.209393 80.466085 
L 180.308701 80.710305 
L 180.428749 80.791712 
L 180.66231 81.442966 
L 180.704348 81.524372 
L 180.856812 81.687186 
L 180.940418 81.768593 
L 181.12466 82.175627 
L 181.33703 82.257033 
L 181.448828 82.419847 
L 181.616295 82.501254 
L 181.731249 82.58266 
L 182.164313 82.664067 
L 182.276916 82.908287 
L 182.414147 82.989694 
L 182.518596 83.233914 
L 182.823239 83.559541 
L 182.890842 83.640948 
L 183.537721 84.455016 
L 183.724908 84.536423 
L 183.913013 84.780643 
L 184.343782 84.86205 
L 184.494374 85.024863 
L 184.751623 85.10627 
L 184.870697 85.187677 
L 185.161374 85.269083 
L 185.40522 85.431897 
L 186.261228 85.513304 
L 186.410187 85.59471 
L 187.026063 85.676117 
L 187.209503 85.757524 
L 187.502353 85.838931 
L 187.561915 85.920338 
L 187.828086 86.001744 
L 187.940621 86.327371 
L 188.052568 86.408778 
L 188.147929 86.571592 
L 188.304618 86.652998 
L 188.45467 86.897219 
L 188.626881 86.978625 
L 189.232899 87.304252 
L 189.300252 87.385659 
L 189.71053 87.467066 
L 189.994376 87.548473 
L 190.635481 87.629879 
L 191.011644 87.8741 
L 191.550319 87.955507 
L 191.695742 88.11832 
L 191.761698 88.199727 
L 191.894435 88.281134 
L 192.161564 88.606761 
L 192.295092 88.688167 
L 192.412205 88.932388 
L 192.91586 89.013794 
L 193.053408 89.095201 
L 193.360054 89.176608 
L 193.605491 89.420828 
L 194.06487 89.502235 
L 194.190648 89.583642 
L 194.384708 89.665048 
L 197.148965 89.746455 
L 197.267568 89.827862 
L 198.555608 89.909269 
L 198.800454 90.072082 
L 207.137153 90.153489 
L 207.241068 90.234896 
L 208.479482 90.316303 
L 208.872799 90.479116 
L 232.770313 90.560523 
L 234.427928 90.64193 
L 287.659758 90.723336 
L 287.827075 90.88615 
L 312.40778 90.967557 
L 312.40778 90.967557 
" clip-path="url(#p0bf57716ff)" style="fill: none; stroke: #000000; stroke-width: 1.5; stroke-linecap: square"/>
   </g>
   <g id="patch_3">
    <path d="M 43.78125 96.747437 
L 43.78125 7.2 
" style="fill: none; stroke: #000000; stroke-width: 0.8; stroke-linejoin: miter; stroke-linecap: square"/>
   </g>
   <g id="patch_4">
    <path d="M 325.19952 96.747437 
L 325.19952 7.2 
" style="fill: none; stroke: #000000; stroke-width: 0.8; stroke-linejoin: miter; stroke-linecap: square"/>
   </g>
   <g id="patch_5">
    <path d="M 43.78125 96.747437 
L 325.19952 96.747437 
" style="fill: none; stroke: #000000; stroke-width: 0.8; stroke-linejoin: miter; stroke-linecap: square"/>
   </g>
   <g id="patch_6">
    <path d="M 43.78125 7.2 
L 325.19952 7.2 
" style="fill: none; stroke: #000000; stroke-width: 0.8; stroke-linejoin: miter; stroke-linecap: square"/>
   </g>
  </g>
  <g id="axes_2">
   <g id="patch_7">
    <path d="M 43.78125 195.795353 
L 325.19952 195.795353 
L 325.19952 106.247917 
L 43.78125 106.247917 
z
" style="fill: #ffffff"/>
   </g>
   <g id="matplotlib.axis_3">
    <g id="xtick_10">
     <g id="line2d_14">
      <g>
       <use xlink:href="#m1f25c57e8a" x="56.57299" y="195.795353" style="stroke: #000000; stroke-width: 0.8"/>
      </g>
     </g>
    </g>
    <g id="xtick_11">
     <g id="line2d_15">
      <g>
       <use xlink:href="#m1f25c57e8a" x="88.066002" y="195.795353" style="stroke: #000000; stroke-width: 0.8"/>
      </g>
     </g>
    </g>
    <g id="xtick_12">
     <g id="line2d_16">
      <g>
       <use xlink:href="#m1f25c57e8a" x="119.559015" y="195.795353" style="stroke: #000000; stroke-width: 0.8"/>
      </g>
     </g>
    </g>
    <g id="xtick_13">
     <g id="line2d_17">
      <g>
       <use xlink:href="#m1f25c57e8a" x="151.052027" y="195.795353" style="stroke: #000000; stroke-width: 0.8"/>
      </g>
     </g>
    </g>
    <g id="xtick_14">
     <g id="line2d_18">
      <g>
       <use xlink:href="#m1f25c57e8a" x="182.54504" y="195.795353" style="stroke: #000000; stroke-width: 0.8"/>
      </g>
     </g>
    </g>
    <g id="xtick_15">
     <g id="line2d_19">
      <g>
       <use xlink:href="#m1f25c57e8a" x="214.038053" y="195.795353" style="stroke: #000000; stroke-width: 0.8"/>
      </g>
     </g>
    </g>
    <g id="xtick_16">
     <g id="line2d_20">
      <g>
       <use xlink:href="#m1f25c57e8a" x="245.531065" y="195.795353" style="stroke: #000000; stroke-width: 0.8"/>
      </g>
     </g>
    </g>
    <g id="xtick_17">
     <g id="line2d_21">
      <g>
       <use xlink:href="#m1f25c57e8a" x="277.024078" y="195.795353" style="stroke: #000000; stroke-width: 0.8"/>
      </g>
     </g>
    </g>
    <g id="xtick_18">
     <g id="line2d_22">
      <g>
       <use xlink:href="#m1f25c57e8a" x="308.51709" y="195.795353" style="stroke: #000000; stroke-width: 0.8"/>
      </g>
     </g>
    </g>
   </g>
   <g id="matplotlib.axis_4">
    <g id="ytick_4">
     <g id="line2d_23">
      <g>
       <use xlink:href="#mbe1e74b37e" x="43.78125" y="191.725015" style="stroke: #000000; stroke-width: 0.8"/>
      </g>
     </g>
     <g id="text_5">
      <!-- 0 -->
      <g transform="translate(30.41875 195.524234) scale(0.1 -0.1)">
       <use xlink:href="#DejaVuSans-30"/>
      </g>
     </g>
    </g>
    <g id="ytick_5">
     <g id="line2d_24">
      <g>
       <use xlink:href="#mbe1e74b37e" x="43.78125" y="151.021635" style="stroke: #000000; stroke-width: 0.8"/>
      </g>
     </g>
     <g id="text_6">
      <!-- 5 -->
      <g transform="translate(30.41875 154.820854) scale(0.1 -0.1)">
       <use xlink:href="#DejaVuSans-35"/>
      </g>
     </g>
    </g>
    <g id="ytick_6">
     <g id="line2d_25">
      <g>
       <use xlink:href="#mbe1e74b37e" x="43.78125" y="110.318255" style="stroke: #000000; stroke-width: 0.8"/>
      </g>
     </g>
     <g id="text_7">
      <!-- 10 -->
      <g transform="translate(24.05625 114.117473) scale(0.1 -0.1)">
       <use xlink:href="#DejaVuSans-31"/>
       <use xlink:href="#DejaVuSans-30" transform="translate(63.623047 0)"/>
      </g>
     </g>
    </g>
    <g id="text_8">
     <!-- LacY -->
     <g transform="translate(17.976563 162.67476) rotate(-90) scale(0.1 -0.1)">
      <defs>
       <path id="DejaVuSans-4c" d="M 628 4666 
L 1259 4666 
L 1259 531 
L 3531 531 
L 3531 0 
L 628 0 
L 628 4666 
z
" transform="scale(0.015625)"/>
       <path id="DejaVuSans-59" d="M -13 4666 
L 666 4666 
L 1959 2747 
L 3244 4666 
L 3922 4666 
L 2272 2222 
L 2272 0 
L 1638 0 
L 1638 2222 
L -13 4666 
z
" transform="scale(0.015625)"/>
      </defs>
      <use xlink:href="#DejaVuSans-4c"/>
      <use xlink:href="#DejaVuSans-61" transform="translate(55.712891 0)"/>
      <use xlink:href="#DejaVuSans-63" transform="translate(116.992188 0)"/>
      <use xlink:href="#DejaVuSans-59" transform="translate(171.972656 0)"/>
     </g>
    </g>
   </g>
   <g id="line2d_26">
    <path d="M 56.57299 110.318255 
L 56.59976 110.318255 
L 56.730619 126.599607 
L 56.819829 142.880959 
L 56.969935 142.880959 
L 56.987399 134.740283 
L 57.205085 142.880959 
L 57.345084 142.880959 
L 57.51349 159.162311 
L 57.810432 175.443663 
L 57.875188 191.725015 
L 59.385048 191.725015 
L 59.549477 183.584339 
L 59.591657 191.725015 
L 64.548152 191.725015 
L 64.866859 183.584339 
L 64.975367 191.725015 
L 82.241373 191.725015 
L 82.433223 183.584339 
L 84.202946 191.725015 
L 84.217577 183.584339 
L 84.358899 175.443663 
L 84.363493 167.302987 
L 84.681416 175.443663 
L 84.905394 175.443663 
L 85.023454 191.725015 
L 85.083475 183.584339 
L 85.271199 183.584339 
L 85.407863 191.725015 
L 89.248894 191.725015 
L 89.633566 175.443663 
L 89.63485 167.302987 
L 90.126927 167.302987 
L 90.165087 183.584339 
L 90.927075 183.584339 
L 91.093777 175.443663 
L 91.43354 191.725015 
L 108.215045 191.725015 
L 108.319352 183.584339 
L 108.437485 183.584339 
L 108.574749 191.725015 
L 108.806661 191.725015 
L 108.847601 183.584339 
L 109.258094 183.584339 
L 109.603422 175.443663 
L 109.661003 183.584339 
L 109.833967 183.584339 
L 109.863157 191.725015 
L 118.507755 191.725015 
L 118.683839 183.584339 
L 120.756564 183.584339 
L 122.579825 191.725015 
L 130.246059 191.725015 
L 130.429885 183.584339 
L 130.713679 183.584339 
L 130.820044 191.725015 
L 135.099058 191.725015 
L 135.181691 183.584339 
L 135.203271 191.725015 
L 145.06508 191.725015 
L 145.322509 175.443663 
L 145.343068 183.584339 
L 145.371696 175.443663 
L 145.483326 167.302987 
L 145.488597 175.443663 
L 146.065684 175.443663 
L 146.674785 183.584339 
L 146.916906 183.584339 
L 147.228043 175.443663 
L 147.339449 175.443663 
L 148.397334 191.725015 
L 148.851484 191.725015 
L 148.902686 175.443663 
L 149.002241 175.443663 
L 149.153073 183.584339 
L 149.285043 183.584339 
L 149.820847 191.725015 
L 154.872331 191.725015 
L 155.295011 183.584339 
L 155.532161 151.021635 
L 155.810116 151.021635 
L 155.928652 167.302987 
L 155.977868 167.302987 
L 156.077449 159.162311 
L 156.163289 159.162311 
L 156.271661 175.443663 
L 156.299492 175.443663 
L 156.386997 183.584339 
L 156.734173 183.584339 
L 156.826586 191.725015 
L 157.221051 191.725015 
L 157.338427 183.584339 
L 157.485094 183.584339 
L 157.599973 175.443663 
L 157.733883 175.443663 
L 157.847137 183.584339 
L 158.435293 183.584339 
L 158.552228 175.443663 
L 158.693071 175.443663 
L 158.801348 183.584339 
L 158.969758 183.584339 
L 159.075258 175.443663 
L 159.174887 175.443663 
L 159.295592 159.162311 
L 159.650236 159.162311 
L 159.770919 175.443663 
L 160.173142 175.443663 
L 160.28001 167.302987 
L 160.30801 167.302987 
L 160.325162 159.162311 
L 160.33874 175.443663 
L 160.417143 167.302987 
L 160.432932 167.302987 
L 160.540833 175.443663 
L 160.773291 175.443663 
L 160.883515 151.021635 
L 160.896908 151.021635 
L 161.005882 142.880959 
L 161.007809 151.021635 
L 161.048058 151.021635 
L 161.165766 159.162311 
L 161.295347 159.162311 
L 161.410009 167.302987 
L 161.485922 167.302987 
L 161.601509 183.584339 
L 161.800733 183.584339 
L 161.869416 167.302987 
L 161.948339 175.443663 
L 161.956044 175.443663 
L 162.061961 167.302987 
L 162.133185 167.302987 
L 162.230695 175.443663 
L 162.388905 175.443663 
L 162.401966 159.162311 
L 162.489378 167.302987 
L 162.612222 175.443663 
L 162.90071 175.443663 
L 162.935235 167.302987 
L 162.940317 183.584339 
L 162.992887 183.584339 
L 163.287117 183.584339 
L 163.315783 175.443663 
L 163.529265 167.302987 
L 163.646056 167.302987 
L 163.763328 151.021635 
L 163.800059 151.021635 
L 163.911082 142.880959 
L 164.025567 159.162311 
L 164.093518 159.162311 
L 164.19181 167.302987 
L 164.235205 167.302987 
L 164.339397 175.443663 
L 164.725017 175.443663 
L 164.799969 183.584339 
L 164.824742 175.443663 
L 164.916675 175.443663 
L 165.029304 167.302987 
L 165.109589 167.302987 
L 165.246859 142.880959 
L 165.259005 151.021635 
L 165.264463 151.021635 
L 165.412708 175.443663 
L 165.532003 167.302987 
L 165.776209 167.302987 
L 165.883065 159.162311 
L 166.028012 159.162311 
L 166.07837 142.880959 
L 166.134713 151.021635 
L 166.29325 151.021635 
L 166.360512 159.162311 
L 166.401999 151.021635 
L 166.767994 151.021635 
L 166.868323 159.162311 
L 166.91006 159.162311 
L 166.993609 142.880959 
L 167.013824 151.021635 
L 167.093333 151.021635 
L 167.169274 159.162311 
L 167.194408 151.021635 
L 167.267574 151.021635 
L 167.383589 159.162311 
L 167.392014 159.162311 
L 167.403322 151.021635 
L 167.497656 167.302987 
L 167.585442 167.302987 
L 167.695279 191.725015 
L 167.724566 191.725015 
L 167.851562 183.584339 
L 167.958863 183.584339 
L 168.063406 191.725015 
L 168.449845 191.725015 
L 168.575203 175.443663 
L 168.585367 175.443663 
L 168.698369 167.302987 
L 169.010463 167.302987 
L 169.171525 151.021635 
L 169.24325 151.021635 
L 169.357522 159.162311 
L 169.437746 159.162311 
L 169.564147 167.302987 
L 169.661499 159.162311 
L 169.713627 159.162311 
L 169.752911 175.443663 
L 169.809291 167.302987 
L 169.855961 167.302987 
L 169.904653 159.162311 
L 169.963372 167.302987 
L 170.020817 167.302987 
L 170.044856 175.443663 
L 170.121743 167.302987 
L 170.18935 167.302987 
L 170.299744 159.162311 
L 170.360925 159.162311 
L 170.47043 151.021635 
L 170.531373 151.021635 
L 170.603076 134.740283 
L 170.640699 142.880959 
L 170.692252 142.880959 
L 170.803648 134.740283 
L 170.856684 134.740283 
L 170.967111 142.880959 
L 171.060189 142.880959 
L 171.17148 159.162311 
L 171.185837 159.162311 
L 171.226878 151.021635 
L 171.244238 167.302987 
L 171.26851 167.302987 
L 171.404237 167.302987 
L 171.518875 175.443663 
L 171.79842 175.443663 
L 171.814063 183.584339 
L 171.828682 167.302987 
L 171.904097 175.443663 
L 171.975654 175.443663 
L 172.083136 167.302987 
L 172.186958 167.302987 
L 172.333483 183.584339 
L 172.394222 183.584339 
L 172.473282 175.443663 
L 172.567932 175.443663 
L 172.652142 191.725015 
L 173.675055 191.725015 
L 173.795213 183.584339 
L 173.915474 191.725015 
L 174.419129 191.725015 
L 174.508072 183.584339 
L 174.65108 183.584339 
L 174.746645 167.302987 
L 174.756567 175.443663 
L 174.859894 175.443663 
L 174.970832 183.584339 
L 175.048645 183.584339 
L 175.080746 191.725015 
L 175.122863 183.584339 
L 175.868525 183.584339 
L 176.1864 175.443663 
L 176.284694 175.443663 
L 176.397656 183.584339 
L 176.565043 183.584339 
L 176.619123 191.725015 
L 177.052485 191.725015 
L 177.377575 175.443663 
L 177.495623 175.443663 
L 177.593172 183.584339 
L 177.685185 183.584339 
L 177.713511 175.443663 
L 177.97207 175.443663 
L 178.060567 183.584339 
L 178.119348 183.584339 
L 178.377657 159.162311 
L 178.650903 159.162311 
L 178.717267 175.443663 
L 178.773043 175.443663 
L 178.884466 167.302987 
L 179.000746 167.302987 
L 179.079719 159.162311 
L 179.106481 167.302987 
L 179.148498 167.302987 
L 179.181495 159.162311 
L 179.259488 167.302987 
L 179.263534 167.302987 
L 179.357794 159.162311 
L 179.523263 159.162311 
L 179.649895 167.302987 
L 179.916029 167.302987 
L 180.000575 151.021635 
L 180.154322 142.880959 
L 180.155727 151.021635 
L 180.259698 142.880959 
L 180.445894 159.162311 
L 180.66231 159.162311 
L 180.785581 151.021635 
L 180.856812 151.021635 
L 181.004909 167.302987 
L 181.110265 167.302987 
L 181.176269 175.443663 
L 181.18237 167.302987 
L 181.635983 167.302987 
L 181.731249 175.443663 
L 181.815028 175.443663 
L 181.917627 167.302987 
L 182.022281 159.162311 
L 182.112299 159.162311 
L 182.214112 167.302987 
L 182.269538 167.302987 
L 182.305359 159.162311 
L 182.775562 159.162311 
L 182.868032 167.302987 
L 182.971063 159.162311 
L 183.111356 159.162311 
L 183.221051 142.880959 
L 183.329698 159.162311 
L 183.440769 159.162311 
L 183.537721 175.443663 
L 183.652447 175.443663 
L 183.759269 167.302987 
L 183.762888 175.443663 
L 184.177856 175.443663 
L 184.286016 167.302987 
L 184.368372 175.443663 
L 184.651889 175.443663 
L 184.724881 167.302987 
L 184.751623 175.443663 
L 184.870697 175.443663 
L 185.030806 183.584339 
L 185.40522 183.584339 
L 185.656703 175.443663 
L 186.010326 175.443663 
L 186.037329 167.302987 
L 186.106504 175.443663 
L 186.2577 175.443663 
L 186.302428 183.584339 
L 186.454704 183.584339 
L 186.601214 191.725015 
L 186.901357 167.302987 
L 187.026063 175.443663 
L 187.119473 175.443663 
L 187.128716 183.584339 
L 187.209503 175.443663 
L 187.418693 183.584339 
L 187.513207 151.021635 
L 187.673612 151.021635 
L 187.74927 167.302987 
L 187.765029 159.162311 
L 187.934076 151.021635 
L 188.325568 151.021635 
L 188.362239 142.880959 
L 188.402331 159.162311 
L 188.41288 159.162311 
L 188.453688 159.162311 
L 188.499535 167.302987 
L 188.529692 159.162311 
L 188.570412 151.021635 
L 188.626881 159.162311 
L 188.851109 159.162311 
L 188.973753 167.302987 
L 189.215231 167.302987 
L 189.300252 175.443663 
L 189.412062 183.584339 
L 189.490292 175.443663 
L 189.554269 183.584339 
L 189.662368 183.584339 
L 189.71053 175.443663 
L 189.837286 175.443663 
L 189.994376 191.725015 
L 190.600581 191.725015 
L 190.717013 183.584339 
L 190.926496 183.584339 
L 190.998954 191.725015 
L 191.011644 183.584339 
L 191.181354 183.584339 
L 191.195807 167.302987 
L 191.479493 167.302987 
L 191.550319 159.162311 
L 191.702261 159.162311 
L 191.761698 142.880959 
L 191.93103 142.880959 
L 191.97219 151.021635 
L 191.982201 142.880959 
L 192.10331 142.880959 
L 192.173238 159.162311 
L 192.216017 151.021635 
L 192.370132 167.302987 
L 192.412205 167.302987 
L 192.459109 159.162311 
L 192.542234 167.302987 
L 192.750739 167.302987 
L 192.909543 159.162311 
L 193.02016 167.302987 
L 193.053408 167.302987 
L 193.169519 151.021635 
L 193.405068 142.880959 
L 193.453543 142.880959 
L 193.558624 126.599607 
L 193.596848 126.599607 
L 193.687884 151.021635 
L 193.839845 142.880959 
L 193.913874 151.021635 
L 194.04453 151.021635 
L 194.057927 159.162311 
L 194.151551 151.021635 
L 194.248852 151.021635 
L 194.317793 159.162311 
L 194.384708 159.162311 
L 194.578956 175.443663 
L 194.702974 183.584339 
L 194.742935 175.443663 
L 194.78096 183.584339 
L 194.849556 191.725015 
L 195.075035 175.443663 
L 195.163113 183.584339 
L 195.166636 175.443663 
L 195.176382 167.302987 
L 195.271891 175.443663 
L 195.494001 183.584339 
L 195.502193 191.725015 
L 195.756493 191.725015 
L 195.938892 183.584339 
L 196.294068 183.584339 
L 196.753875 191.725015 
L 196.815041 183.584339 
L 197.002566 175.443663 
L 197.197113 159.162311 
L 197.267568 167.302987 
L 197.291297 159.162311 
L 197.460713 159.162311 
L 197.487015 167.302987 
L 197.770719 167.302987 
L 197.899048 175.443663 
L 198.141035 183.584339 
L 198.313466 175.443663 
L 198.374085 167.302987 
L 198.632396 159.162311 
L 198.790374 159.162311 
L 198.800454 167.302987 
L 198.995502 167.302987 
L 199.178748 175.443663 
L 199.909016 191.725015 
L 206.934356 191.725015 
L 206.942781 183.584339 
L 207.037135 191.725015 
L 207.164465 183.584339 
L 207.541494 183.584339 
L 207.570404 175.443663 
L 207.690953 175.443663 
L 207.719822 167.302987 
L 207.926724 175.443663 
L 208.21611 167.302987 
L 208.719343 167.302987 
L 208.872799 191.725015 
L 209.443163 191.725015 
L 209.47645 183.584339 
L 209.961742 183.584339 
L 211.198466 191.725015 
L 216.527771 191.725015 
L 216.659633 183.584339 
L 216.692736 191.725015 
L 229.358232 191.725015 
L 229.799476 183.584339 
L 229.893435 191.725015 
L 231.981862 191.725015 
L 232.608061 183.584339 
L 233.667196 183.584339 
L 234.427928 191.725015 
L 238.766485 191.725015 
L 238.818855 183.584339 
L 238.949401 191.725015 
L 256.544186 191.725015 
L 256.570011 183.584339 
L 256.680707 191.725015 
L 256.817798 191.725015 
L 256.903927 183.584339 
L 257.260667 183.584339 
L 257.506674 191.725015 
L 269.797196 191.725015 
L 269.957986 175.443663 
L 270.238457 167.302987 
L 270.289194 159.162311 
L 270.293068 167.302987 
L 270.354948 167.302987 
L 270.356526 175.443663 
L 270.436409 167.302987 
L 270.602043 167.302987 
L 270.721103 175.443663 
L 271.583754 191.725015 
L 272.821169 191.725015 
L 273.123117 183.584339 
L 273.267739 183.584339 
L 273.351767 191.725015 
L 286.749176 191.725015 
L 286.982965 167.302987 
L 287.200188 191.725015 
L 287.333505 175.443663 
L 287.366235 183.584339 
L 287.452312 183.584339 
L 287.52096 175.443663 
L 287.71447 183.584339 
L 287.934635 167.302987 
L 288.032563 183.584339 
L 288.134515 175.443663 
L 288.38726 175.443663 
L 288.404712 167.302987 
L 288.491984 175.443663 
L 288.997526 175.443663 
L 289.133067 183.584339 
L 289.346786 183.584339 
L 289.499947 191.725015 
L 295.008221 191.725015 
L 295.098342 183.584339 
L 295.250986 183.584339 
L 295.336395 191.725015 
L 304.276517 191.725015 
L 304.888535 183.584339 
L 305.197629 167.302987 
L 305.238714 175.443663 
L 305.292254 167.302987 
L 305.313487 167.302987 
L 305.502089 175.443663 
L 305.568954 183.584339 
L 305.950183 191.725015 
L 312.40778 191.725015 
L 312.40778 191.725015 
" clip-path="url(#p598c9021aa)" style="fill: none; stroke: #000000; stroke-width: 1.5; stroke-linecap: square"/>
   </g>
   <g id="patch_8">
    <path d="M 43.78125 195.795353 
L 43.78125 106.247917 
" style="fill: none; stroke: #000000; stroke-width: 0.8; stroke-linejoin: miter; stroke-linecap: square"/>
   </g>
   <g id="patch_9">
    <path d="M 325.19952 195.795353 
L 325.19952 106.247917 
" style="fill: none; stroke: #000000; stroke-width: 0.8; stroke-linejoin: miter; stroke-linecap: square"/>
   </g>
   <g id="patch_10">
    <path d="M 43.78125 195.795353 
L 325.19952 195.795353 
" style="fill: none; stroke: #000000; stroke-width: 0.8; stroke-linejoin: miter; stroke-linecap: square"/>
   </g>
   <g id="patch_11">
    <path d="M 43.78125 106.247917 
L 325.19952 106.247917 
" style="fill: none; stroke: #000000; stroke-width: 0.8; stroke-linejoin: miter; stroke-linecap: square"/>
   </g>
  </g>
  <g id="axes_3">
   <g id="patch_12">
    <path d="M 43.78125 294.84327 
L 325.19952 294.84327 
L 325.19952 205.295833 
L 43.78125 205.295833 
z
" style="fill: #ffffff"/>
   </g>
   <g id="matplotlib.axis_5">
    <g id="xtick_19">
     <g id="line2d_27">
      <g>
       <use xlink:href="#m1f25c57e8a" x="56.57299" y="294.84327" style="stroke: #000000; stroke-width: 0.8"/>
      </g>
     </g>
     <g id="text_9">
      <!-- 0 -->
      <g transform="translate(53.39174 309.441707) scale(0.1 -0.1)">
       <use xlink:href="#DejaVuSans-30"/>
      </g>
     </g>
    </g>
    <g id="xtick_20">
     <g id="line2d_28">
      <g>
       <use xlink:href="#m1f25c57e8a" x="88.066002" y="294.84327" style="stroke: #000000; stroke-width: 0.8"/>
      </g>
     </g>
     <g id="text_10">
      <!-- 100 -->
      <g transform="translate(78.522252 309.441707) scale(0.1 -0.1)">
       <use xlink:href="#DejaVuSans-31"/>
       <use xlink:href="#DejaVuSans-30" transform="translate(63.623047 0)"/>
       <use xlink:href="#DejaVuSans-30" transform="translate(127.246094 0)"/>
      </g>
     </g>
    </g>
    <g id="xtick_21">
     <g id="line2d_29">
      <g>
       <use xlink:href="#m1f25c57e8a" x="119.559015" y="294.84327" style="stroke: #000000; stroke-width: 0.8"/>
      </g>
     </g>
     <g id="text_11">
      <!-- 200 -->
      <g transform="translate(110.015265 309.441707) scale(0.1 -0.1)">
       <defs>
        <path id="DejaVuSans-32" d="M 1228 531 
L 3431 531 
L 3431 0 
L 469 0 
L 469 531 
Q 828 903 1448 1529 
Q 2069 2156 2228 2338 
Q 2531 2678 2651 2914 
Q 2772 3150 2772 3378 
Q 2772 3750 2511 3984 
Q 2250 4219 1831 4219 
Q 1534 4219 1204 4116 
Q 875 4013 500 3803 
L 500 4441 
Q 881 4594 1212 4672 
Q 1544 4750 1819 4750 
Q 2544 4750 2975 4387 
Q 3406 4025 3406 3419 
Q 3406 3131 3298 2873 
Q 3191 2616 2906 2266 
Q 2828 2175 2409 1742 
Q 1991 1309 1228 531 
z
" transform="scale(0.015625)"/>
       </defs>
       <use xlink:href="#DejaVuSans-32"/>
       <use xlink:href="#DejaVuSans-30" transform="translate(63.623047 0)"/>
       <use xlink:href="#DejaVuSans-30" transform="translate(127.246094 0)"/>
      </g>
     </g>
    </g>
    <g id="xtick_22">
     <g id="line2d_30">
      <g>
       <use xlink:href="#m1f25c57e8a" x="151.052027" y="294.84327" style="stroke: #000000; stroke-width: 0.8"/>
      </g>
     </g>
     <g id="text_12">
      <!-- 300 -->
      <g transform="translate(141.508277 309.441707) scale(0.1 -0.1)">
       <defs>
        <path id="DejaVuSans-33" d="M 2597 2516 
Q 3050 2419 3304 2112 
Q 3559 1806 3559 1356 
Q 3559 666 3084 287 
Q 2609 -91 1734 -91 
Q 1441 -91 1130 -33 
Q 819 25 488 141 
L 488 750 
Q 750 597 1062 519 
Q 1375 441 1716 441 
Q 2309 441 2620 675 
Q 2931 909 2931 1356 
Q 2931 1769 2642 2001 
Q 2353 2234 1838 2234 
L 1294 2234 
L 1294 2753 
L 1863 2753 
Q 2328 2753 2575 2939 
Q 2822 3125 2822 3475 
Q 2822 3834 2567 4026 
Q 2313 4219 1838 4219 
Q 1578 4219 1281 4162 
Q 984 4106 628 3988 
L 628 4550 
Q 988 4650 1302 4700 
Q 1616 4750 1894 4750 
Q 2613 4750 3031 4423 
Q 3450 4097 3450 3541 
Q 3450 3153 3228 2886 
Q 3006 2619 2597 2516 
z
" transform="scale(0.015625)"/>
       </defs>
       <use xlink:href="#DejaVuSans-33"/>
       <use xlink:href="#DejaVuSans-30" transform="translate(63.623047 0)"/>
       <use xlink:href="#DejaVuSans-30" transform="translate(127.246094 0)"/>
      </g>
     </g>
    </g>
    <g id="xtick_23">
     <g id="line2d_31">
      <g>
       <use xlink:href="#m1f25c57e8a" x="182.54504" y="294.84327" style="stroke: #000000; stroke-width: 0.8"/>
      </g>
     </g>
     <g id="text_13">
      <!-- 400 -->
      <g transform="translate(173.00129 309.441707) scale(0.1 -0.1)">
       <defs>
        <path id="DejaVuSans-34" d="M 2419 4116 
L 825 1625 
L 2419 1625 
L 2419 4116 
z
M 2253 4666 
L 3047 4666 
L 3047 1625 
L 3713 1625 
L 3713 1100 
L 3047 1100 
L 3047 0 
L 2419 0 
L 2419 1100 
L 313 1100 
L 313 1709 
L 2253 4666 
z
" transform="scale(0.015625)"/>
       </defs>
       <use xlink:href="#DejaVuSans-34"/>
       <use xlink:href="#DejaVuSans-30" transform="translate(63.623047 0)"/>
       <use xlink:href="#DejaVuSans-30" transform="translate(127.246094 0)"/>
      </g>
     </g>
    </g>
    <g id="xtick_24">
     <g id="line2d_32">
      <g>
       <use xlink:href="#m1f25c57e8a" x="214.038053" y="294.84327" style="stroke: #000000; stroke-width: 0.8"/>
      </g>
     </g>
     <g id="text_14">
      <!-- 500 -->
      <g transform="translate(204.494303 309.441707) scale(0.1 -0.1)">
       <use xlink:href="#DejaVuSans-35"/>
       <use xlink:href="#DejaVuSans-30" transform="translate(63.623047 0)"/>
       <use xlink:href="#DejaVuSans-30" transform="translate(127.246094 0)"/>
      </g>
     </g>
    </g>
    <g id="xtick_25">
     <g id="line2d_33">
      <g>
       <use xlink:href="#m1f25c57e8a" x="245.531065" y="294.84327" style="stroke: #000000; stroke-width: 0.8"/>
      </g>
     </g>
     <g id="text_15">
      <!-- 600 -->
      <g transform="translate(235.987315 309.441707) scale(0.1 -0.1)">
       <defs>
        <path id="DejaVuSans-36" d="M 2113 2584 
Q 1688 2584 1439 2293 
Q 1191 2003 1191 1497 
Q 1191 994 1439 701 
Q 1688 409 2113 409 
Q 2538 409 2786 701 
Q 3034 994 3034 1497 
Q 3034 2003 2786 2293 
Q 2538 2584 2113 2584 
z
M 3366 4563 
L 3366 3988 
Q 3128 4100 2886 4159 
Q 2644 4219 2406 4219 
Q 1781 4219 1451 3797 
Q 1122 3375 1075 2522 
Q 1259 2794 1537 2939 
Q 1816 3084 2150 3084 
Q 2853 3084 3261 2657 
Q 3669 2231 3669 1497 
Q 3669 778 3244 343 
Q 2819 -91 2113 -91 
Q 1303 -91 875 529 
Q 447 1150 447 2328 
Q 447 3434 972 4092 
Q 1497 4750 2381 4750 
Q 2619 4750 2861 4703 
Q 3103 4656 3366 4563 
z
" transform="scale(0.015625)"/>
       </defs>
       <use xlink:href="#DejaVuSans-36"/>
       <use xlink:href="#DejaVuSans-30" transform="translate(63.623047 0)"/>
       <use xlink:href="#DejaVuSans-30" transform="translate(127.246094 0)"/>
      </g>
     </g>
    </g>
    <g id="xtick_26">
     <g id="line2d_34">
      <g>
       <use xlink:href="#m1f25c57e8a" x="277.024078" y="294.84327" style="stroke: #000000; stroke-width: 0.8"/>
      </g>
     </g>
     <g id="text_16">
      <!-- 700 -->
      <g transform="translate(267.480328 309.441707) scale(0.1 -0.1)">
       <defs>
        <path id="DejaVuSans-37" d="M 525 4666 
L 3525 4666 
L 3525 4397 
L 1831 0 
L 1172 0 
L 2766 4134 
L 525 4134 
L 525 4666 
z
" transform="scale(0.015625)"/>
       </defs>
       <use xlink:href="#DejaVuSans-37"/>
       <use xlink:href="#DejaVuSans-30" transform="translate(63.623047 0)"/>
       <use xlink:href="#DejaVuSans-30" transform="translate(127.246094 0)"/>
      </g>
     </g>
    </g>
    <g id="xtick_27">
     <g id="line2d_35">
      <g>
       <use xlink:href="#m1f25c57e8a" x="308.51709" y="294.84327" style="stroke: #000000; stroke-width: 0.8"/>
      </g>
     </g>
     <g id="text_17">
      <!-- 800 -->
      <g transform="translate(298.97334 309.441707) scale(0.1 -0.1)">
       <defs>
        <path id="DejaVuSans-38" d="M 2034 2216 
Q 1584 2216 1326 1975 
Q 1069 1734 1069 1313 
Q 1069 891 1326 650 
Q 1584 409 2034 409 
Q 2484 409 2743 651 
Q 3003 894 3003 1313 
Q 3003 1734 2745 1975 
Q 2488 2216 2034 2216 
z
M 1403 2484 
Q 997 2584 770 2862 
Q 544 3141 544 3541 
Q 544 4100 942 4425 
Q 1341 4750 2034 4750 
Q 2731 4750 3128 4425 
Q 3525 4100 3525 3541 
Q 3525 3141 3298 2862 
Q 3072 2584 2669 2484 
Q 3125 2378 3379 2068 
Q 3634 1759 3634 1313 
Q 3634 634 3220 271 
Q 2806 -91 2034 -91 
Q 1263 -91 848 271 
Q 434 634 434 1313 
Q 434 1759 690 2068 
Q 947 2378 1403 2484 
z
M 1172 3481 
Q 1172 3119 1398 2916 
Q 1625 2713 2034 2713 
Q 2441 2713 2670 2916 
Q 2900 3119 2900 3481 
Q 2900 3844 2670 4047 
Q 2441 4250 2034 4250 
Q 1625 4250 1398 4047 
Q 1172 3844 1172 3481 
z
" transform="scale(0.015625)"/>
       </defs>
       <use xlink:href="#DejaVuSans-38"/>
       <use xlink:href="#DejaVuSans-30" transform="translate(63.623047 0)"/>
       <use xlink:href="#DejaVuSans-30" transform="translate(127.246094 0)"/>
      </g>
     </g>
    </g>
    <g id="text_18">
     <!-- Time -->
     <g transform="translate(172.256791 323.119832) scale(0.1 -0.1)">
      <defs>
       <path id="DejaVuSans-54" d="M -19 4666 
L 3928 4666 
L 3928 4134 
L 2272 4134 
L 2272 0 
L 1638 0 
L 1638 4134 
L -19 4134 
L -19 4666 
z
" transform="scale(0.015625)"/>
       <path id="DejaVuSans-69" d="M 603 3500 
L 1178 3500 
L 1178 0 
L 603 0 
L 603 3500 
z
M 603 4863 
L 1178 4863 
L 1178 4134 
L 603 4134 
L 603 4863 
z
" transform="scale(0.015625)"/>
       <path id="DejaVuSans-6d" d="M 3328 2828 
Q 3544 3216 3844 3400 
Q 4144 3584 4550 3584 
Q 5097 3584 5394 3201 
Q 5691 2819 5691 2113 
L 5691 0 
L 5113 0 
L 5113 2094 
Q 5113 2597 4934 2840 
Q 4756 3084 4391 3084 
Q 3944 3084 3684 2787 
Q 3425 2491 3425 1978 
L 3425 0 
L 2847 0 
L 2847 2094 
Q 2847 2600 2669 2842 
Q 2491 3084 2119 3084 
Q 1678 3084 1418 2786 
Q 1159 2488 1159 1978 
L 1159 0 
L 581 0 
L 581 3500 
L 1159 3500 
L 1159 2956 
Q 1356 3278 1631 3431 
Q 1906 3584 2284 3584 
Q 2666 3584 2933 3390 
Q 3200 3197 3328 2828 
z
" transform="scale(0.015625)"/>
      </defs>
      <use xlink:href="#DejaVuSans-54"/>
      <use xlink:href="#DejaVuSans-69" transform="translate(57.958984 0)"/>
      <use xlink:href="#DejaVuSans-6d" transform="translate(85.742188 0)"/>
      <use xlink:href="#DejaVuSans-65" transform="translate(183.154297 0)"/>
     </g>
    </g>
   </g>
   <g id="matplotlib.axis_6">
    <g id="ytick_7">
     <g id="line2d_36">
      <g>
       <use xlink:href="#mbe1e74b37e" x="43.78125" y="290.772932" style="stroke: #000000; stroke-width: 0.8"/>
      </g>
     </g>
     <g id="text_19">
      <!-- 0.0 -->
      <g transform="translate(20.878125 294.572151) scale(0.1 -0.1)">
       <defs>
        <path id="DejaVuSans-2e" d="M 684 794 
L 1344 794 
L 1344 0 
L 684 0 
L 684 794 
z
" transform="scale(0.015625)"/>
       </defs>
       <use xlink:href="#DejaVuSans-30"/>
       <use xlink:href="#DejaVuSans-2e" transform="translate(63.623047 0)"/>
       <use xlink:href="#DejaVuSans-30" transform="translate(95.410156 0)"/>
      </g>
     </g>
    </g>
    <g id="ytick_8">
     <g id="line2d_37">
      <g>
       <use xlink:href="#mbe1e74b37e" x="43.78125" y="250.069552" style="stroke: #000000; stroke-width: 0.8"/>
      </g>
     </g>
     <g id="text_20">
      <!-- 0.5 -->
      <g transform="translate(20.878125 253.86877) scale(0.1 -0.1)">
       <use xlink:href="#DejaVuSans-30"/>
       <use xlink:href="#DejaVuSans-2e" transform="translate(63.623047 0)"/>
       <use xlink:href="#DejaVuSans-35" transform="translate(95.410156 0)"/>
      </g>
     </g>
    </g>
    <g id="ytick_9">
     <g id="line2d_38">
      <g>
       <use xlink:href="#mbe1e74b37e" x="43.78125" y="209.366171" style="stroke: #000000; stroke-width: 0.8"/>
      </g>
     </g>
     <g id="text_21">
      <!-- 1.0 -->
      <g transform="translate(20.878125 213.16539) scale(0.1 -0.1)">
       <use xlink:href="#DejaVuSans-31"/>
       <use xlink:href="#DejaVuSans-2e" transform="translate(63.623047 0)"/>
       <use xlink:href="#DejaVuSans-30" transform="translate(95.410156 0)"/>
      </g>
     </g>
    </g>
    <g id="text_22">
     <!-- Free lac operon -->
     <g transform="translate(14.798438 288.540645) rotate(-90) scale(0.1 -0.1)">
      <defs>
       <path id="DejaVuSans-46" d="M 628 4666 
L 3309 4666 
L 3309 4134 
L 1259 4134 
L 1259 2759 
L 3109 2759 
L 3109 2228 
L 1259 2228 
L 1259 0 
L 628 0 
L 628 4666 
z
" transform="scale(0.015625)"/>
       <path id="DejaVuSans-70" d="M 1159 525 
L 1159 -1331 
L 581 -1331 
L 581 3500 
L 1159 3500 
L 1159 2969 
Q 1341 3281 1617 3432 
Q 1894 3584 2278 3584 
Q 2916 3584 3314 3078 
Q 3713 2572 3713 1747 
Q 3713 922 3314 415 
Q 2916 -91 2278 -91 
Q 1894 -91 1617 61 
Q 1341 213 1159 525 
z
M 3116 1747 
Q 3116 2381 2855 2742 
Q 2594 3103 2138 3103 
Q 1681 3103 1420 2742 
Q 1159 2381 1159 1747 
Q 1159 1113 1420 752 
Q 1681 391 2138 391 
Q 2594 391 2855 752 
Q 3116 1113 3116 1747 
z
" transform="scale(0.015625)"/>
       <path id="DejaVuSans-6e" d="M 3513 2113 
L 3513 0 
L 2938 0 
L 2938 2094 
Q 2938 2591 2744 2837 
Q 2550 3084 2163 3084 
Q 1697 3084 1428 2787 
Q 1159 2491 1159 1978 
L 1159 0 
L 581 0 
L 581 3500 
L 1159 3500 
L 1159 2956 
Q 1366 3272 1645 3428 
Q 1925 3584 2291 3584 
Q 2894 3584 3203 3211 
Q 3513 2838 3513 2113 
z
" transform="scale(0.015625)"/>
      </defs>
      <use xlink:href="#DejaVuSans-46"/>
      <use xlink:href="#DejaVuSans-72" transform="translate(50.269531 0)"/>
      <use xlink:href="#DejaVuSans-65" transform="translate(89.132812 0)"/>
      <use xlink:href="#DejaVuSans-65" transform="translate(150.65625 0)"/>
      <use xlink:href="#DejaVuSans-20" transform="translate(212.179688 0)"/>
      <use xlink:href="#DejaVuSans-6c" transform="translate(243.966797 0)"/>
      <use xlink:href="#DejaVuSans-61" transform="translate(271.75 0)"/>
      <use xlink:href="#DejaVuSans-63" transform="translate(333.029297 0)"/>
      <use xlink:href="#DejaVuSans-20" transform="translate(388.009766 0)"/>
      <use xlink:href="#DejaVuSans-6f" transform="translate(419.796875 0)"/>
      <use xlink:href="#DejaVuSans-70" transform="translate(480.978516 0)"/>
      <use xlink:href="#DejaVuSans-65" transform="translate(544.455078 0)"/>
      <use xlink:href="#DejaVuSans-72" transform="translate(605.978516 0)"/>
      <use xlink:href="#DejaVuSans-6f" transform="translate(644.841797 0)"/>
      <use xlink:href="#DejaVuSans-6e" transform="translate(706.023438 0)"/>
     </g>
    </g>
   </g>
   <g id="line2d_39">
    <path d="M 56.57299 209.366171 
L 56.653538 290.772932 
L 56.819829 290.772932 
L 56.987399 209.366171 
L 57.104165 209.366171 
L 57.205085 290.772932 
L 58.406941 290.772932 
L 59.385048 209.366171 
L 59.569182 209.366171 
L 59.591657 290.772932 
L 61.984394 290.772932 
L 64.548152 209.366171 
L 64.839552 209.366171 
L 64.975367 290.772932 
L 65.099747 290.772932 
L 71.683181 209.366171 
L 71.850957 290.772932 
L 79.597595 209.366171 
L 79.64605 290.772932 
L 82.241373 209.366171 
L 82.379703 209.366171 
L 82.433223 290.772932 
L 84.152919 290.772932 
L 84.217577 209.366171 
L 85.083475 209.366171 
L 85.271199 290.772932 
L 86.29179 290.772932 
L 89.248894 209.366171 
L 89.782494 209.366171 
L 89.811425 290.772932 
L 90.165087 290.772932 
L 91.036024 209.366171 
L 91.093777 290.772932 
L 91.43354 290.772932 
L 108.305813 209.366171 
L 108.319352 290.772932 
L 108.574749 290.772932 
L 108.847601 209.366171 
L 109.131544 290.772932 
L 109.258094 209.366171 
L 109.661003 209.366171 
L 109.863157 290.772932 
L 110.152324 290.772932 
L 114.265048 209.366171 
L 114.917827 290.772932 
L 116.54036 209.366171 
L 116.851846 290.772932 
L 117.516283 209.366171 
L 117.60257 290.772932 
L 118.599939 209.366171 
L 118.683839 290.772932 
L 122.579825 290.772932 
L 128.527162 209.366171 
L 128.63185 290.772932 
L 130.353422 209.366171 
L 130.798858 209.366171 
L 130.820044 290.772932 
L 132.63847 290.772932 
L 135.203271 209.366171 
L 135.216419 290.772932 
L 138.063246 209.366171 
L 138.105469 290.772932 
L 145.06508 209.366171 
L 145.998183 209.366171 
L 146.065684 290.772932 
L 146.674785 290.772932 
L 146.916906 209.366171 
L 147.228043 209.366171 
L 147.339449 290.772932 
L 148.397334 290.772932 
L 148.902686 209.366171 
L 149.002241 290.772932 
L 150.110011 290.772932 
L 150.121197 209.366171 
L 150.280814 290.772932 
L 154.5381 209.366171 
L 154.625976 290.772932 
L 154.872331 209.366171 
L 198.97796 209.366171 
L 198.995502 290.772932 
L 205.032855 290.772932 
L 207.037135 209.366171 
L 208.21611 209.366171 
L 208.479482 290.772932 
L 209.045897 290.772932 
L 209.47645 209.366171 
L 209.623208 290.772932 
L 211.791945 290.772932 
L 213.445751 209.366171 
L 213.499724 290.772932 
L 216.600435 209.366171 
L 216.692736 290.772932 
L 217.312616 290.772932 
L 221.247492 209.366171 
L 221.457267 290.772932 
L 221.772604 209.366171 
L 221.836339 290.772932 
L 229.358232 209.366171 
L 229.887568 209.366171 
L 229.893435 290.772932 
L 230.400832 290.772932 
L 231.981862 209.366171 
L 232.524145 209.366171 
L 232.608061 290.772932 
L 233.605368 290.772932 
L 233.662023 209.366171 
L 233.667196 290.772932 
L 234.427928 290.772932 
L 238.818855 209.366171 
L 238.910829 209.366171 
L 238.949401 290.772932 
L 240.12087 290.772932 
L 256.570011 209.366171 
L 256.673817 209.366171 
L 256.680707 290.772932 
L 256.903927 209.366171 
L 257.260667 290.772932 
L 257.506674 290.772932 
L 263.395091 209.366171 
L 263.415876 290.772932 
L 269.857081 209.366171 
L 270.485287 209.366171 
L 270.602043 290.772932 
L 271.583754 290.772932 
L 272.821169 209.366171 
L 273.029882 209.366171 
L 273.123117 290.772932 
L 273.276139 209.366171 
L 273.351767 290.772932 
L 273.969118 209.366171 
L 274.285042 290.772932 
L 280.309285 209.366171 
L 280.547344 290.772932 
L 284.945599 209.366171 
L 284.965837 290.772932 
L 286.821267 209.366171 
L 288.644452 209.366171 
L 288.755259 290.772932 
L 289.499947 290.772932 
L 291.345641 209.366171 
L 291.382262 290.772932 
L 291.405892 209.366171 
L 291.714379 290.772932 
L 295.098342 209.366171 
L 295.336395 290.772932 
L 295.673598 209.366171 
L 295.696481 290.772932 
L 296.332992 290.772932 
L 298.341276 209.366171 
L 298.479849 290.772932 
L 301.133596 209.366171 
L 301.141826 290.772932 
L 304.276517 209.366171 
L 305.292254 209.366171 
L 305.313487 290.772932 
L 305.950183 290.772932 
L 306.185538 209.366171 
L 306.299041 290.772932 
L 306.58749 290.772932 
L 312.40778 209.366171 
L 312.40778 209.366171 
" clip-path="url(#p05512073cf)" style="fill: none; stroke: #000000; stroke-width: 1.5; stroke-linecap: square"/>
   </g>
   <g id="patch_13">
    <path d="M 43.78125 294.84327 
L 43.78125 205.295833 
" style="fill: none; stroke: #000000; stroke-width: 0.8; stroke-linejoin: miter; stroke-linecap: square"/>
   </g>
   <g id="patch_14">
    <path d="M 325.19952 294.84327 
L 325.19952 205.295833 
" style="fill: none; stroke: #000000; stroke-width: 0.8; stroke-linejoin: miter; stroke-linecap: square"/>
   </g>
   <g id="patch_15">
    <path d="M 43.78125 294.84327 
L 325.19952 294.84327 
" style="fill: none; stroke: #000000; stroke-width: 0.8; stroke-linejoin: miter; stroke-linecap: square"/>
   </g>
   <g id="patch_16">
    <path d="M 43.78125 205.295833 
L 325.19952 205.295833 
" style="fill: none; stroke: #000000; stroke-width: 0.8; stroke-linejoin: miter; stroke-linecap: square"/>
   </g>
  </g>
 </g>
 <defs>
  <clipPath id="p0bf57716ff">
   <rect x="43.78125" y="7.2" width="281.41827" height="89.547437"/>
  </clipPath>
  <clipPath id="p598c9021aa">
   <rect x="43.78125" y="106.247917" width="281.41827" height="89.547437"/>
  </clipPath>
  <clipPath id="p05512073cf">
   <rect x="43.78125" y="205.295833" width="281.41827" height="89.547437"/>
  </clipPath>
 </defs>
</svg>
