<?xml version="1.0" encoding="utf-8" standalone="no"?>
<!DOCTYPE svg PUBLIC "-//W3C//DTD SVG 1.1//EN"
  "http://www.w3.org/Graphics/SVG/1.1/DTD/svg11.dtd">
<svg xmlns:xlink="http://www.w3.org/1999/xlink" width="332.39952pt" height="332.39952pt" viewBox="0 0 332.39952 332.39952" xmlns="http://www.w3.org/2000/svg" version="1.1">
 <metadata>
  <rdf:RDF xmlns:dc="http://purl.org/dc/elements/1.1/" xmlns:cc="http://creativecommons.org/ns#" xmlns:rdf="http://www.w3.org/1999/02/22-rdf-syntax-ns#">
   <cc:Work>
    <dc:type rdf:resource="http://purl.org/dc/dcmitype/StillImage"/>
    <dc:date>2026-05-15T18:51:22.398133</dc:date>
    <dc:format>image/svg+xml</dc:format>
    <dc:creator>
     <cc:Agent>
      <dc:title>Matplotlib v3.10.9, https://matplotlib.org/</dc:title>
     </cc:Agent>
    </dc:creator>
   </cc:Work>
  </rdf:RDF>
 </metadata>
 <defs>
  <style type="text/css">*{stroke-linejoin: round; stroke-linecap: butt}</style>
 </defs>
 <g id="figure_1">
  <g id="patch_1">
   <path d="M 0 332.39952 
L 332.39952 332.39952 
L 332.39952 0 
L 0 0 
z
" style="fill: #ffffff"/>
  </g>
  <g id="axes_1">
   <g id="patch_2">
    <path d="M 43.78125 96.747437 
L 325.19952 96.747437 
L 325.19952 7.2 
L 43.78125 7.2 
z
" style="fill: #ffffff"/>
   </g>
   <g id="matplotlib.axis_1">
    <g id="xtick_1">
     <g id="line2d_1">
      <defs>
       <path id="m8c8b19e625" d="M 0 0 
L 0 3.5 
" style="stroke: #000000; stroke-width: 0.8"/>
      </defs>
      <g>
       <use xlink:href="#m8c8b19e625" x="56.57299" y="96.747437" style="stroke: #000000; stroke-width: 0.8"/>
      </g>
     </g>
    </g>
    <g id="xtick_2">
     <g id="line2d_2">
      <g>
       <use xlink:href="#m8c8b19e625" x="88.255562" y="96.747437" style="stroke: #000000; stroke-width: 0.8"/>
      </g>
     </g>
    </g>
    <g id="xtick_3">
     <g id="line2d_3">
      <g>
       <use xlink:href="#m8c8b19e625" x="119.938134" y="96.747437" style="stroke: #000000; stroke-width: 0.8"/>
      </g>
     </g>
    </g>
    <g id="xtick_4">
     <g id="line2d_4">
      <g>
       <use xlink:href="#m8c8b19e625" x="151.620706" y="96.747437" style="stroke: #000000; stroke-width: 0.8"/>
      </g>
     </g>
    </g>
    <g id="xtick_5">
     <g id="line2d_5">
      <g>
       <use xlink:href="#m8c8b19e625" x="183.303278" y="96.747437" style="stroke: #000000; stroke-width: 0.8"/>
      </g>
     </g>
    </g>
    <g id="xtick_6">
     <g id="line2d_6">
      <g>
       <use xlink:href="#m8c8b19e625" x="214.98585" y="96.747437" style="stroke: #000000; stroke-width: 0.8"/>
      </g>
     </g>
    </g>
    <g id="xtick_7">
     <g id="line2d_7">
      <g>
       <use xlink:href="#m8c8b19e625" x="246.668422" y="96.747437" style="stroke: #000000; stroke-width: 0.8"/>
      </g>
     </g>
    </g>
    <g id="xtick_8">
     <g id="line2d_8">
      <g>
       <use xlink:href="#m8c8b19e625" x="278.350995" y="96.747437" style="stroke: #000000; stroke-width: 0.8"/>
      </g>
     </g>
    </g>
    <g id="xtick_9">
     <g id="line2d_9">
      <g>
       <use xlink:href="#m8c8b19e625" x="310.033567" y="96.747437" style="stroke: #000000; stroke-width: 0.8"/>
      </g>
     </g>
    </g>
   </g>
   <g id="matplotlib.axis_2">
    <g id="ytick_1">
     <g id="line2d_10">
      <defs>
       <path id="md1140de20f" d="M 0 0 
L -3.5 0 
" style="stroke: #000000; stroke-width: 0.8"/>
      </defs>
      <g>
       <use xlink:href="#md1140de20f" x="43.78125" y="92.677099" style="stroke: #000000; stroke-width: 0.8"/>
      </g>
     </g>
     <g id="text_1">
      <!-- 0 -->
      <g transform="translate(30.41875 96.476317) scale(0.1 -0.1)">
       <defs>
        <path id="DejaVuSans-30" d="M 2034 4250 
Q 1547 4250 1301 3770 
Q 1056 3291 1056 2328 
Q 1056 1369 1301 889 
Q 1547 409 2034 409 
Q 2525 409 2770 889 
Q 3016 1369 3016 2328 
Q 3016 3291 2770 3770 
Q 2525 4250 2034 4250 
z
M 2034 4750 
Q 2819 4750 3233 4129 
Q 3647 3509 3647 2328 
Q 3647 1150 3233 529 
Q 2819 -91 2034 -91 
Q 1250 -91 836 529 
Q 422 1150 422 2328 
Q 422 3509 836 4129 
Q 1250 4750 2034 4750 
z
" transform="scale(0.015625)"/>
       </defs>
       <use xlink:href="#DejaVuSans-30"/>
      </g>
     </g>
    </g>
    <g id="ytick_2">
     <g id="line2d_11">
      <g>
       <use xlink:href="#md1140de20f" x="43.78125" y="51.973718" style="stroke: #000000; stroke-width: 0.8"/>
      </g>
     </g>
     <g id="text_2">
      <!-- 5 -->
      <g transform="translate(30.41875 55.772937) scale(0.1 -0.1)">
       <defs>
        <path id="DejaVuSans-35" d="M 691 4666 
L 3169 4666 
L 3169 4134 
L 1269 4134 
L 1269 2991 
Q 1406 3038 1543 3061 
Q 1681 3084 1819 3084 
Q 2600 3084 3056 2656 
Q 3513 2228 3513 1497 
Q 3513 744 3044 326 
Q 2575 -91 1722 -91 
Q 1428 -91 1123 -41 
Q 819 9 494 109 
L 494 744 
Q 775 591 1075 516 
Q 1375 441 1709 441 
Q 2250 441 2565 725 
Q 2881 1009 2881 1497 
Q 2881 1984 2565 2268 
Q 2250 2553 1709 2553 
Q 1456 2553 1204 2497 
Q 953 2441 691 2322 
L 691 4666 
z
" transform="scale(0.015625)"/>
       </defs>
       <use xlink:href="#DejaVuSans-35"/>
      </g>
     </g>
    </g>
    <g id="ytick_3">
     <g id="line2d_12">
      <g>
       <use xlink:href="#md1140de20f" x="43.78125" y="11.270338" style="stroke: #000000; stroke-width: 0.8"/>
      </g>
     </g>
     <g id="text_3">
      <!-- 10 -->
      <g transform="translate(24.05625 15.069557) scale(0.1 -0.1)">
       <defs>
        <path id="DejaVuSans-31" d="M 794 531 
L 1825 531 
L 1825 4091 
L 703 3866 
L 703 4441 
L 1819 4666 
L 2450 4666 
L 2450 531 
L 3481 531 
L 3481 0 
L 794 0 
L 794 531 
z
" transform="scale(0.015625)"/>
       </defs>
       <use xlink:href="#DejaVuSans-31"/>
       <use xlink:href="#DejaVuSans-30" transform="translate(63.623047 0)"/>
      </g>
     </g>
    </g>
    <g id="text_4">
     <!-- Extracellular lactose -->
     <g transform="translate(17.976562 102.945593) rotate(-90) scale(0.1 -0.1)">
      <defs>
       <path id="DejaVuSans-45" d="M 628 4666 
L 3578 4666 
L 3578 4134 
L 1259 4134 
L 1259 2753 
L 3481 2753 
L 3481 2222 
L 1259 2222 
L 1259 531 
L 3634 531 
L 3634 0 
L 628 0 
L 628 4666 
z
" transform="scale(0.015625)"/>
       <path id="DejaVuSans-78" d="M 3513 3500 
L 2247 1797 
L 3578 0 
L 2900 0 
L 1881 1375 
L 863 0 
L 184 0 
L 1544 1831 
L 300 3500 
L 978 3500 
L 1906 2253 
L 2834 3500 
L 3513 3500 
z
" transform="scale(0.015625)"/>
       <path id="DejaVuSans-74" d="M 1172 4494 
L 1172 3500 
L 2356 3500 
L 2356 3053 
L 1172 3053 
L 1172 1153 
Q 1172 725 1289 603 
Q 1406 481 1766 481 
L 2356 481 
L 2356 0 
L 1766 0 
Q 1100 0 847 248 
Q 594 497 594 1153 
L 594 3053 
L 172 3053 
L 172 3500 
L 594 3500 
L 594 4494 
L 1172 4494 
z
" transform="scale(0.015625)"/>
       <path id="DejaVuSans-72" d="M 2631 2963 
Q 2534 3019 2420 3045 
Q 2306 3072 2169 3072 
Q 1681 3072 1420 2755 
Q 1159 2438 1159 1844 
L 1159 0 
L 581 0 
L 581 3500 
L 1159 3500 
L 1159 2956 
Q 1341 3275 1631 3429 
Q 1922 3584 2338 3584 
Q 2397 3584 2469 3576 
Q 2541 3569 2628 3553 
L 2631 2963 
z
" transform="scale(0.015625)"/>
       <path id="DejaVuSans-61" d="M 2194 1759 
Q 1497 1759 1228 1600 
Q 959 1441 959 1056 
Q 959 750 1161 570 
Q 1363 391 1709 391 
Q 2188 391 2477 730 
Q 2766 1069 2766 1631 
L 2766 1759 
L 2194 1759 
z
M 3341 1997 
L 3341 0 
L 2766 0 
L 2766 531 
Q 2569 213 2275 61 
Q 1981 -91 1556 -91 
Q 1019 -91 701 211 
Q 384 513 384 1019 
Q 384 1609 779 1909 
Q 1175 2209 1959 2209 
L 2766 2209 
L 2766 2266 
Q 2766 2663 2505 2880 
Q 2244 3097 1772 3097 
Q 1472 3097 1187 3025 
Q 903 2953 641 2809 
L 641 3341 
Q 956 3463 1253 3523 
Q 1550 3584 1831 3584 
Q 2591 3584 2966 3190 
Q 3341 2797 3341 1997 
z
" transform="scale(0.015625)"/>
       <path id="DejaVuSans-63" d="M 3122 3366 
L 3122 2828 
Q 2878 2963 2633 3030 
Q 2388 3097 2138 3097 
Q 1578 3097 1268 2742 
Q 959 2388 959 1747 
Q 959 1106 1268 751 
Q 1578 397 2138 397 
Q 2388 397 2633 464 
Q 2878 531 3122 666 
L 3122 134 
Q 2881 22 2623 -34 
Q 2366 -91 2075 -91 
Q 1284 -91 818 406 
Q 353 903 353 1747 
Q 353 2603 823 3093 
Q 1294 3584 2113 3584 
Q 2378 3584 2631 3529 
Q 2884 3475 3122 3366 
z
" transform="scale(0.015625)"/>
       <path id="DejaVuSans-65" d="M 3597 1894 
L 3597 1613 
L 953 1613 
Q 991 1019 1311 708 
Q 1631 397 2203 397 
Q 2534 397 2845 478 
Q 3156 559 3463 722 
L 3463 178 
Q 3153 47 2828 -22 
Q 2503 -91 2169 -91 
Q 1331 -91 842 396 
Q 353 884 353 1716 
Q 353 2575 817 3079 
Q 1281 3584 2069 3584 
Q 2775 3584 3186 3129 
Q 3597 2675 3597 1894 
z
M 3022 2063 
Q 3016 2534 2758 2815 
Q 2500 3097 2075 3097 
Q 1594 3097 1305 2825 
Q 1016 2553 972 2059 
L 3022 2063 
z
" transform="scale(0.015625)"/>
       <path id="DejaVuSans-6c" d="M 603 4863 
L 1178 4863 
L 1178 0 
L 603 0 
L 603 4863 
z
" transform="scale(0.015625)"/>
       <path id="DejaVuSans-75" d="M 544 1381 
L 544 3500 
L 1119 3500 
L 1119 1403 
Q 1119 906 1312 657 
Q 1506 409 1894 409 
Q 2359 409 2629 706 
Q 2900 1003 2900 1516 
L 2900 3500 
L 3475 3500 
L 3475 0 
L 2900 0 
L 2900 538 
Q 2691 219 2414 64 
Q 2138 -91 1772 -91 
Q 1169 -91 856 284 
Q 544 659 544 1381 
z
M 1991 3584 
L 1991 3584 
z
" transform="scale(0.015625)"/>
       <path id="DejaVuSans-20" transform="scale(0.015625)"/>
       <path id="DejaVuSans-6f" d="M 1959 3097 
Q 1497 3097 1228 2736 
Q 959 2375 959 1747 
Q 959 1119 1226 758 
Q 1494 397 1959 397 
Q 2419 397 2687 759 
Q 2956 1122 2956 1747 
Q 2956 2369 2687 2733 
Q 2419 3097 1959 3097 
z
M 1959 3584 
Q 2709 3584 3137 3096 
Q 3566 2609 3566 1747 
Q 3566 888 3137 398 
Q 2709 -91 1959 -91 
Q 1206 -91 779 398 
Q 353 888 353 1747 
Q 353 2609 779 3096 
Q 1206 3584 1959 3584 
z
" transform="scale(0.015625)"/>
       <path id="DejaVuSans-73" d="M 2834 3397 
L 2834 2853 
Q 2591 2978 2328 3040 
Q 2066 3103 1784 3103 
Q 1356 3103 1142 2972 
Q 928 2841 928 2578 
Q 928 2378 1081 2264 
Q 1234 2150 1697 2047 
L 1894 2003 
Q 2506 1872 2764 1633 
Q 3022 1394 3022 966 
Q 3022 478 2636 193 
Q 2250 -91 1575 -91 
Q 1294 -91 989 -36 
Q 684 19 347 128 
L 347 722 
Q 666 556 975 473 
Q 1284 391 1588 391 
Q 1994 391 2212 530 
Q 2431 669 2431 922 
Q 2431 1156 2273 1281 
Q 2116 1406 1581 1522 
L 1381 1569 
Q 847 1681 609 1914 
Q 372 2147 372 2553 
Q 372 3047 722 3315 
Q 1072 3584 1716 3584 
Q 2034 3584 2315 3537 
Q 2597 3491 2834 3397 
z
" transform="scale(0.015625)"/>
      </defs>
      <use xlink:href="#DejaVuSans-45"/>
      <use xlink:href="#DejaVuSans-78" transform="translate(63.183594 0)"/>
      <use xlink:href="#DejaVuSans-74" transform="translate(122.363281 0)"/>
      <use xlink:href="#DejaVuSans-72" transform="translate(161.572266 0)"/>
      <use xlink:href="#DejaVuSans-61" transform="translate(202.685547 0)"/>
      <use xlink:href="#DejaVuSans-63" transform="translate(263.964844 0)"/>
      <use xlink:href="#DejaVuSans-65" transform="translate(318.945312 0)"/>
      <use xlink:href="#DejaVuSans-6c" transform="translate(380.46875 0)"/>
      <use xlink:href="#DejaVuSans-6c" transform="translate(408.251953 0)"/>
      <use xlink:href="#DejaVuSans-75" transform="translate(436.035156 0)"/>
      <use xlink:href="#DejaVuSans-6c" transform="translate(499.414062 0)"/>
      <use xlink:href="#DejaVuSans-61" transform="translate(527.197266 0)"/>
      <use xlink:href="#DejaVuSans-72" transform="translate(588.476562 0)"/>
      <use xlink:href="#DejaVuSans-20" transform="translate(629.589844 0)"/>
      <use xlink:href="#DejaVuSans-6c" transform="translate(661.376953 0)"/>
      <use xlink:href="#DejaVuSans-61" transform="translate(689.160156 0)"/>
      <use xlink:href="#DejaVuSans-63" transform="translate(750.439453 0)"/>
      <use xlink:href="#DejaVuSans-74" transform="translate(805.419922 0)"/>
      <use xlink:href="#DejaVuSans-6f" transform="translate(844.628906 0)"/>
      <use xlink:href="#DejaVuSans-73" transform="translate(905.810547 0)"/>
      <use xlink:href="#DejaVuSans-65" transform="translate(957.910156 0)"/>
     </g>
    </g>
   </g>
   <g id="line2d_13">
    <path d="M 56.57299 92.677099 
L 152.563588 92.677099 
L 152.579578 11.270338 
L 152.58604 11.351745 
L 152.83955 11.433152 
L 158.370935 11.514558 
L 158.512889 11.921592 
L 158.610309 12.002999 
L 161.838147 12.084406 
L 161.997992 12.73566 
L 162.070455 12.817066 
L 162.226638 13.305507 
L 162.288271 13.386914 
L 162.465761 13.793948 
L 162.531533 13.875354 
L 162.644215 14.200981 
L 162.767728 14.608015 
L 162.94144 15.015049 
L 163.042659 15.50349 
L 163.125951 15.584896 
L 163.231382 15.829117 
L 163.666965 17.294438 
L 174.053751 17.375845 
L 174.175327 17.782879 
L 180.278812 17.864286 
L 180.495902 18.434133 
L 180.75781 20.225082 
L 180.849475 20.876336 
L 180.896188 20.957743 
L 181.243688 23.725572 
L 181.263785 23.806979 
L 181.405387 25.923555 
L 181.407262 26.004962 
L 181.518173 27.633097 
L 181.566998 27.714504 
L 182.043478 30.889367 
L 182.234794 33.412977 
L 182.345113 34.471265 
L 182.454309 35.773773 
L 182.736343 39.437077 
L 182.762809 39.518484 
L 182.900831 41.309433 
L 182.924048 41.390839 
L 183.05754 41.87928 
L 183.07556 41.960687 
L 183.293969 43.018975 
L 183.311898 43.100381 
L 183.456567 43.344602 
L 183.589554 43.426008 
L 183.821439 44.158669 
L 183.913308 44.565703 
L 183.96926 44.64711 
L 184.119611 45.13555 
L 184.176611 45.216957 
L 184.296854 45.542584 
L 184.40702 45.623991 
L 184.535248 45.786805 
L 184.565042 45.868211 
L 184.685849 46.112432 
L 184.7908 46.193838 
L 184.946549 46.438059 
L 185.049719 46.519465 
L 185.186676 46.926499 
L 185.385936 47.90338 
L 185.426688 47.984787 
L 185.550743 48.636041 
L 185.560955 48.717448 
L 185.710509 49.368702 
L 185.726216 49.450109 
L 185.841247 49.857143 
L 185.875985 49.938549 
L 185.991133 50.345583 
L 186.217733 51.729498 
L 186.231336 51.810905 
L 186.34821 53.19482 
L 186.385401 53.276227 
L 186.521826 54.497328 
L 186.643645 55.229989 
L 186.690225 55.311396 
L 186.817265 55.799836 
L 186.881917 55.881243 
L 187.074811 56.20687 
L 187.12876 56.288277 
L 187.246856 56.939531 
L 187.300461 57.020937 
L 187.442958 57.916412 
L 187.469063 57.997819 
L 187.71552 58.649073 
L 187.751765 58.730479 
L 187.867567 59.707361 
L 188.0301 60.440021 
L 188.065142 60.521428 
L 188.554106 62.638004 
L 188.623894 62.719411 
L 188.837204 62.963631 
L 188.950253 63.045038 
L 189.059633 63.126445 
L 189.185522 63.370665 
L 189.282936 63.452072 
L 189.40019 63.777699 
L 189.417431 63.859105 
L 189.55246 64.347546 
L 189.594628 64.428953 
L 189.705268 64.75458 
L 190.419138 64.835987 
L 190.869763 65.324427 
L 191.255875 65.405834 
L 191.374345 65.650054 
L 191.540976 65.975681 
L 191.591938 66.057088 
L 192.09584 67.196783 
L 192.206966 67.685223 
L 192.271611 67.76663 
L 192.383718 67.929443 
L 193.498988 68.01085 
L 193.620456 68.336477 
L 193.762441 68.417884 
L 193.997989 68.743511 
L 194.250732 68.824918 
L 194.373216 68.987731 
L 194.891262 69.069138 
L 195.050796 69.231952 
L 195.342834 69.557579 
L 195.659605 69.638985 
L 195.893786 70.127426 
L 196.032467 70.208833 
L 196.089578 70.371646 
L 196.235716 70.453053 
L 196.384181 70.697273 
L 196.51741 70.77868 
L 196.710431 71.348527 
L 196.910543 71.429934 
L 197.236458 71.918375 
L 197.341511 71.999781 
L 197.408833 72.081188 
L 197.643515 72.162595 
L 197.874304 72.325408 
L 198.071587 72.406815 
L 198.173572 72.569629 
L 198.221622 72.651036 
L 198.335798 72.813849 
L 199.284978 72.895256 
L 199.323667 72.976663 
L 199.542114 73.058069 
L 199.586489 73.139476 
L 199.892571 73.220883 
L 200.029529 73.465103 
L 200.116838 73.54651 
L 200.241452 73.627917 
L 200.430571 73.709323 
L 200.529706 73.872137 
L 200.724866 74.116357 
L 200.834149 74.279171 
L 200.956563 74.686205 
L 201.173288 74.767611 
L 201.33224 74.930425 
L 211.421881 75.011832 
L 211.700425 75.418865 
L 212.130788 75.988713 
L 212.162453 76.070119 
L 212.374714 76.477153 
L 212.784379 76.55856 
L 212.86632 76.639967 
L 213.098688 76.721374 
L 213.242656 76.80278 
L 213.768824 77.128407 
L 213.996347 77.209814 
L 214.191106 77.372628 
L 214.47468 77.454034 
L 214.590738 77.616848 
L 214.86172 77.942475 
L 215.098818 78.023882 
L 215.608661 78.105288 
L 216.211638 78.593729 
L 216.533377 78.675136 
L 216.705982 79.244983 
L 216.816868 79.32639 
L 217.794756 80.954525 
L 218.006482 81.361559 
L 218.143032 81.442966 
L 218.164931 81.524372 
L 218.342266 81.768593 
L 218.507579 82.33844 
L 218.612547 82.419847 
L 218.745693 82.58266 
L 218.876093 82.664067 
L 219.029905 83.071101 
L 219.06168 83.152508 
L 219.157554 83.315321 
L 219.271103 83.396728 
L 219.885408 83.966575 
L 220.03046 84.047982 
L 220.133674 84.129389 
L 220.195081 84.210796 
L 220.323798 84.536423 
L 220.441245 84.617829 
L 220.561939 84.86205 
L 220.631369 84.943456 
L 220.732011 85.187677 
L 220.879455 85.269083 
L 220.971148 85.35049 
L 221.247392 85.431897 
L 221.950571 85.920338 
L 222.153974 86.001744 
L 222.299649 86.245965 
L 222.377004 86.327371 
L 222.471201 86.408778 
L 222.728386 86.490185 
L 222.828761 86.571592 
L 223.268351 86.652998 
L 223.428843 86.815812 
L 224.629021 86.897219 
L 224.678179 86.978625 
L 224.919922 87.060032 
L 225.037615 87.222846 
L 225.19967 87.304252 
L 225.224484 87.385659 
L 225.36714 87.629879 
L 227.239698 87.711286 
L 227.528567 87.8741 
L 227.801759 87.955507 
L 227.959024 88.199727 
L 228.065149 88.281134 
L 228.068046 88.36254 
L 228.838128 88.443947 
L 229.00759 88.606761 
L 229.536218 88.688167 
L 229.658283 88.769574 
L 230.097737 88.850981 
L 230.344488 88.932388 
L 231.3044 89.013794 
L 231.396097 89.095201 
L 232.458028 89.176608 
L 232.619374 89.420828 
L 233.324563 89.502235 
L 233.423447 89.665048 
L 235.423955 89.746455 
L 235.60456 89.909269 
L 235.763374 89.990676 
L 235.901106 90.072082 
L 237.174281 90.153489 
L 237.326793 90.234896 
L 237.456713 90.316303 
L 237.563008 90.397709 
L 239.829519 90.479116 
L 239.94774 90.560523 
L 241.37074 90.64193 
L 241.642745 90.723336 
L 242.714284 90.804743 
L 242.833422 90.88615 
L 259.397741 90.967557 
L 259.684424 91.048963 
L 295.621564 91.13037 
L 295.759194 91.211777 
L 297.043614 91.293184 
L 297.11225 91.37459 
L 312.40778 91.455997 
L 312.40778 91.455997 
" clip-path="url(#p52c7c8de2d)" style="fill: none; stroke: #000000; stroke-width: 1.5; stroke-linecap: square"/>
   </g>
   <g id="patch_3">
    <path d="M 43.78125 96.747437 
L 43.78125 7.2 
" style="fill: none; stroke: #000000; stroke-width: 0.8; stroke-linejoin: miter; stroke-linecap: square"/>
   </g>
   <g id="patch_4">
    <path d="M 325.19952 96.747437 
L 325.19952 7.2 
" style="fill: none; stroke: #000000; stroke-width: 0.8; stroke-linejoin: miter; stroke-linecap: square"/>
   </g>
   <g id="patch_5">
    <path d="M 43.78125 96.747437 
L 325.19952 96.747437 
" style="fill: none; stroke: #000000; stroke-width: 0.8; stroke-linejoin: miter; stroke-linecap: square"/>
   </g>
   <g id="patch_6">
    <path d="M 43.78125 7.2 
L 325.19952 7.2 
" style="fill: none; stroke: #000000; stroke-width: 0.8; stroke-linejoin: miter; stroke-linecap: square"/>
   </g>
  </g>
  <g id="axes_2">
   <g id="patch_7">
    <path d="M 43.78125 195.795353 
L 325.19952 195.795353 
L 325.19952 106.247917 
L 43.78125 106.247917 
z
" style="fill: #ffffff"/>
   </g>
   <g id="matplotlib.axis_3">
    <g id="xtick_10">
     <g id="line2d_14">
      <g>
       <use xlink:href="#m8c8b19e625" x="56.57299" y="195.795353" style="stroke: #000000; stroke-width: 0.8"/>
      </g>
     </g>
    </g>
    <g id="xtick_11">
     <g id="line2d_15">
      <g>
       <use xlink:href="#m8c8b19e625" x="88.255562" y="195.795353" style="stroke: #000000; stroke-width: 0.8"/>
      </g>
     </g>
    </g>
    <g id="xtick_12">
     <g id="line2d_16">
      <g>
       <use xlink:href="#m8c8b19e625" x="119.938134" y="195.795353" style="stroke: #000000; stroke-width: 0.8"/>
      </g>
     </g>
    </g>
    <g id="xtick_13">
     <g id="line2d_17">
      <g>
       <use xlink:href="#m8c8b19e625" x="151.620706" y="195.795353" style="stroke: #000000; stroke-width: 0.8"/>
      </g>
     </g>
    </g>
    <g id="xtick_14">
     <g id="line2d_18">
      <g>
       <use xlink:href="#m8c8b19e625" x="183.303278" y="195.795353" style="stroke: #000000; stroke-width: 0.8"/>
      </g>
     </g>
    </g>
    <g id="xtick_15">
     <g id="line2d_19">
      <g>
       <use xlink:href="#m8c8b19e625" x="214.98585" y="195.795353" style="stroke: #000000; stroke-width: 0.8"/>
      </g>
     </g>
    </g>
    <g id="xtick_16">
     <g id="line2d_20">
      <g>
       <use xlink:href="#m8c8b19e625" x="246.668422" y="195.795353" style="stroke: #000000; stroke-width: 0.8"/>
      </g>
     </g>
    </g>
    <g id="xtick_17">
     <g id="line2d_21">
      <g>
       <use xlink:href="#m8c8b19e625" x="278.350995" y="195.795353" style="stroke: #000000; stroke-width: 0.8"/>
      </g>
     </g>
    </g>
    <g id="xtick_18">
     <g id="line2d_22">
      <g>
       <use xlink:href="#m8c8b19e625" x="310.033567" y="195.795353" style="stroke: #000000; stroke-width: 0.8"/>
      </g>
     </g>
    </g>
   </g>
   <g id="matplotlib.axis_4">
    <g id="ytick_4">
     <g id="line2d_23">
      <g>
       <use xlink:href="#md1140de20f" x="43.78125" y="191.725015" style="stroke: #000000; stroke-width: 0.8"/>
      </g>
     </g>
     <g id="text_5">
      <!-- 0 -->
      <g transform="translate(30.41875 195.524234) scale(0.1 -0.1)">
       <use xlink:href="#DejaVuSans-30"/>
      </g>
     </g>
    </g>
    <g id="ytick_5">
     <g id="line2d_24">
      <g>
       <use xlink:href="#md1140de20f" x="43.78125" y="151.021635" style="stroke: #000000; stroke-width: 0.8"/>
      </g>
     </g>
     <g id="text_6">
      <!-- 5 -->
      <g transform="translate(30.41875 154.820854) scale(0.1 -0.1)">
       <use xlink:href="#DejaVuSans-35"/>
      </g>
     </g>
    </g>
    <g id="ytick_6">
     <g id="line2d_25">
      <g>
       <use xlink:href="#md1140de20f" x="43.78125" y="110.318255" style="stroke: #000000; stroke-width: 0.8"/>
      </g>
     </g>
     <g id="text_7">
      <!-- 10 -->
      <g transform="translate(24.05625 114.117473) scale(0.1 -0.1)">
       <use xlink:href="#DejaVuSans-31"/>
       <use xlink:href="#DejaVuSans-30" transform="translate(63.623047 0)"/>
      </g>
     </g>
    </g>
    <g id="text_8">
     <!-- LacY -->
     <g transform="translate(17.976563 162.67476) rotate(-90) scale(0.1 -0.1)">
      <defs>
       <path id="DejaVuSans-4c" d="M 628 4666 
L 1259 4666 
L 1259 531 
L 3531 531 
L 3531 0 
L 628 0 
L 628 4666 
z
" transform="scale(0.015625)"/>
       <path id="DejaVuSans-59" d="M -13 4666 
L 666 4666 
L 1959 2747 
L 3244 4666 
L 3922 4666 
L 2272 2222 
L 2272 0 
L 1638 0 
L 1638 2222 
L -13 4666 
z
" transform="scale(0.015625)"/>
      </defs>
      <use xlink:href="#DejaVuSans-4c"/>
      <use xlink:href="#DejaVuSans-61" transform="translate(55.712891 0)"/>
      <use xlink:href="#DejaVuSans-63" transform="translate(116.992188 0)"/>
      <use xlink:href="#DejaVuSans-59" transform="translate(171.972656 0)"/>
     </g>
    </g>
   </g>
   <g id="line2d_26">
    <path d="M 56.57299 110.318255 
L 56.821662 134.740283 
L 56.928026 134.740283 
L 57.019507 142.880959 
L 57.254112 159.162311 
L 57.569369 175.443663 
L 57.662309 175.443663 
L 57.838277 191.725015 
L 58.460159 191.725015 
L 58.468284 183.584339 
L 59.184228 183.584339 
L 59.247505 191.725015 
L 80.64285 191.725015 
L 80.730214 183.584339 
L 81.034082 183.584339 
L 81.18456 175.443663 
L 81.309449 191.725015 
L 87.85759 191.725015 
L 87.911377 183.584339 
L 88.236624 183.584339 
L 88.587071 191.725015 
L 89.318493 191.725015 
L 89.423046 183.584339 
L 89.435503 191.725015 
L 101.189682 191.725015 
L 101.273708 183.584339 
L 101.552981 175.443663 
L 101.807391 183.584339 
L 101.840647 191.725015 
L 102.27509 183.584339 
L 103.863345 183.584339 
L 104.192427 175.443663 
L 104.316541 183.584339 
L 104.766325 191.725015 
L 113.526174 191.725015 
L 113.900807 183.584339 
L 114.070775 191.725015 
L 116.600628 191.725015 
L 116.687193 175.443663 
L 116.861013 175.443663 
L 117.350337 183.584339 
L 117.519243 191.725015 
L 119.743126 191.725015 
L 119.864008 175.443663 
L 119.94784 183.584339 
L 120.196521 183.584339 
L 120.277408 191.725015 
L 121.953556 191.725015 
L 122.502761 183.584339 
L 122.814234 191.725015 
L 128.883831 191.725015 
L 129.119383 183.584339 
L 129.324025 159.162311 
L 129.370833 167.302987 
L 129.439999 167.302987 
L 129.458288 159.162311 
L 129.478424 167.302987 
L 129.579433 175.443663 
L 129.845184 175.443663 
L 130.215511 191.725015 
L 141.515899 191.725015 
L 141.662245 183.584339 
L 141.82527 183.584339 
L 141.973877 191.725015 
L 152.563588 191.725015 
L 152.58604 183.584339 
L 152.686805 183.584339 
L 152.717181 191.725015 
L 157.680864 191.725015 
L 158.266574 183.584339 
L 158.54434 183.584339 
L 158.704563 191.725015 
L 161.697654 191.725015 
L 161.902056 183.584339 
L 163.664895 183.584339 
L 163.722947 191.725015 
L 173.66092 191.725015 
L 174.081208 183.584339 
L 174.175327 183.584339 
L 174.339909 191.725015 
L 179.871646 191.725015 
L 179.930798 183.584339 
L 179.981016 191.725015 
L 180.137916 191.725015 
L 180.349575 183.584339 
L 180.465202 183.584339 
L 180.573015 175.443663 
L 180.672192 175.443663 
L 180.700584 167.302987 
L 180.783163 175.443663 
L 180.849475 175.443663 
L 181.001754 167.302987 
L 181.174131 167.302987 
L 181.267699 159.162311 
L 181.292347 159.162311 
L 181.293261 151.021635 
L 181.402465 159.162311 
L 181.518173 159.162311 
L 181.640838 167.302987 
L 181.649216 167.302987 
L 181.758486 159.162311 
L 181.758763 167.302987 
L 181.846867 167.302987 
L 181.858392 175.443663 
L 181.919623 159.162311 
L 181.941554 159.162311 
L 181.969437 159.162311 
L 182.015373 134.740283 
L 182.085063 151.021635 
L 182.131335 151.021635 
L 182.17475 134.740283 
L 182.234794 151.021635 
L 182.258367 151.021635 
L 182.344302 142.880959 
L 182.368909 151.021635 
L 182.407055 151.021635 
L 182.517566 142.880959 
L 182.616826 142.880959 
L 182.647939 134.740283 
L 182.726716 142.880959 
L 182.760483 142.880959 
L 182.787964 134.740283 
L 182.814728 151.021635 
L 182.869052 151.021635 
L 182.871211 151.021635 
L 182.986865 159.162311 
L 183.181977 159.162311 
L 183.293969 183.584339 
L 183.667761 183.584339 
L 183.785284 175.443663 
L 183.913308 175.443663 
L 184.034858 167.302987 
L 184.059073 167.302987 
L 184.162403 175.443663 
L 184.28703 175.443663 
L 184.397128 183.584339 
L 184.670446 183.584339 
L 184.760128 175.443663 
L 184.864233 175.443663 
L 184.946549 183.584339 
L 185.018029 183.584339 
L 185.149634 175.443663 
L 185.243466 175.443663 
L 185.352285 167.302987 
L 185.73471 167.302987 
L 185.855575 151.021635 
L 185.95658 151.021635 
L 186.077578 159.162311 
L 186.10712 159.162311 
L 186.245967 142.880959 
L 186.401307 142.880959 
L 186.515013 151.021635 
L 186.68868 151.021635 
L 186.79857 159.162311 
L 187.081156 159.162311 
L 187.210811 167.302987 
L 187.563934 167.302987 
L 187.676959 159.162311 
L 187.681287 159.162311 
L 187.703539 167.302987 
L 187.790058 159.162311 
L 188.132755 159.162311 
L 188.243982 167.302987 
L 188.307628 167.302987 
L 188.417815 159.162311 
L 188.504815 151.021635 
L 188.51792 159.162311 
L 188.623894 167.302987 
L 188.760332 167.302987 
L 188.785151 175.443663 
L 188.837204 167.302987 
L 188.882989 159.162311 
L 188.93513 167.302987 
L 189.088067 167.302987 
L 189.11314 175.443663 
L 189.185522 167.302987 
L 189.213124 167.302987 
L 189.217784 159.162311 
L 189.323136 167.302987 
L 189.445133 151.021635 
L 189.447324 151.021635 
L 189.55246 159.162311 
L 189.705268 159.162311 
L 189.82871 191.725015 
L 190.093852 191.725015 
L 190.099952 183.584339 
L 190.164657 191.725015 
L 190.410958 191.725015 
L 190.516447 183.584339 
L 190.583416 175.443663 
L 190.588071 183.584339 
L 190.718691 183.584339 
L 190.80859 191.725015 
L 190.869763 191.725015 
L 191.030636 183.584339 
L 191.513744 183.584339 
L 191.635221 175.443663 
L 191.7949 175.443663 
L 191.916338 151.021635 
L 191.988696 151.021635 
L 192.09783 167.302987 
L 192.178266 167.302987 
L 192.284965 183.584339 
L 192.375925 183.584339 
L 192.443454 191.725015 
L 193.002689 191.725015 
L 193.161398 183.584339 
L 193.505729 183.584339 
L 193.620456 175.443663 
L 193.966767 175.443663 
L 194.095422 183.584339 
L 194.433692 183.584339 
L 194.464443 191.725015 
L 194.514715 183.584339 
L 195.106316 183.584339 
L 195.112426 191.725015 
L 195.169893 183.584339 
L 195.342834 183.584339 
L 195.380139 191.725015 
L 195.394921 183.584339 
L 195.771729 183.584339 
L 195.893786 167.302987 
L 196.058223 175.443663 
L 196.260279 175.443663 
L 196.384181 183.584339 
L 196.479339 183.584339 
L 196.601952 159.162311 
L 196.697479 159.162311 
L 196.787896 167.302987 
L 197.011922 167.302987 
L 197.211879 175.443663 
L 197.236458 175.443663 
L 197.342684 167.302987 
L 197.466995 183.584339 
L 197.58986 183.584339 
L 197.712761 175.443663 
L 197.7178 175.443663 
L 197.874304 183.584339 
L 198.074174 183.584339 
L 198.204214 167.302987 
L 198.242703 183.584339 
L 198.289956 175.443663 
L 198.335798 175.443663 
L 198.452582 183.584339 
L 198.649357 183.584339 
L 198.72286 191.725015 
L 199.17425 191.725015 
L 199.323667 183.584339 
L 200.001954 183.584339 
L 200.139662 175.443663 
L 200.523746 175.443663 
L 200.639918 159.162311 
L 201.070158 159.162311 
L 201.202231 175.443663 
L 201.358876 175.443663 
L 201.475575 183.584339 
L 201.578423 191.725015 
L 211.110843 191.725015 
L 211.556238 167.302987 
L 211.634016 175.443663 
L 211.790385 175.443663 
L 211.832527 167.302987 
L 211.88016 175.443663 
L 211.896971 183.584339 
L 211.947036 159.162311 
L 211.958686 167.302987 
L 212.222162 167.302987 
L 212.294901 175.443663 
L 212.446693 175.443663 
L 212.585069 183.584339 
L 212.86632 183.584339 
L 212.95008 175.443663 
L 213.141104 175.443663 
L 213.34876 167.302987 
L 213.354347 175.443663 
L 213.507461 175.443663 
L 213.707104 191.725015 
L 213.768824 191.725015 
L 213.961829 183.584339 
L 214.035275 183.584339 
L 214.150915 175.443663 
L 214.327668 175.443663 
L 214.463894 183.584339 
L 214.821299 183.584339 
L 214.86172 175.443663 
L 215.057485 175.443663 
L 215.098818 183.584339 
L 215.237202 183.584339 
L 215.409986 167.302987 
L 215.427876 175.443663 
L 215.468982 183.584339 
L 215.580155 183.584339 
L 215.710903 175.443663 
L 215.771898 175.443663 
L 215.828337 167.302987 
L 215.870887 175.443663 
L 215.93853 183.584339 
L 215.950768 175.443663 
L 216.014753 175.443663 
L 216.163324 183.584339 
L 216.211638 183.584339 
L 216.582457 167.302987 
L 216.691732 175.443663 
L 216.692596 167.302987 
L 217.066395 167.302987 
L 217.14 151.021635 
L 217.182259 159.162311 
L 217.298631 167.302987 
L 217.41806 159.162311 
L 217.589101 159.162311 
L 217.700018 134.740283 
L 217.725252 142.880959 
L 217.908794 142.880959 
L 218.041793 159.162311 
L 218.290252 159.162311 
L 218.397779 134.740283 
L 218.406993 134.740283 
L 218.420695 126.599607 
L 218.507579 134.740283 
L 218.673263 159.162311 
L 218.713437 159.162311 
L 218.884811 175.443663 
L 218.992146 175.443663 
L 219.078407 151.021635 
L 219.105882 159.162311 
L 219.157554 167.302987 
L 219.338334 159.162311 
L 219.365972 159.162311 
L 219.477466 167.302987 
L 219.619198 151.021635 
L 219.639089 151.021635 
L 219.639699 142.880959 
L 219.679214 175.443663 
L 219.728313 175.443663 
L 219.803922 183.584339 
L 219.885408 183.584339 
L 220.013579 167.302987 
L 220.066165 167.302987 
L 220.390841 134.740283 
L 220.470144 134.740283 
L 220.595904 151.021635 
L 220.622758 151.021635 
L 220.732011 167.302987 
L 220.782581 159.162311 
L 220.805602 167.302987 
L 220.911683 175.443663 
L 221.372763 175.443663 
L 221.477119 183.584339 
L 221.653138 159.162311 
L 221.821144 167.302987 
L 221.950571 167.302987 
L 221.998924 175.443663 
L 222.099797 167.302987 
L 222.120419 175.443663 
L 222.207726 167.302987 
L 222.286311 167.302987 
L 222.299649 159.162311 
L 222.374825 175.443663 
L 222.383383 175.443663 
L 222.689607 175.443663 
L 222.711159 167.302987 
L 222.773159 175.443663 
L 222.993453 175.443663 
L 223.007587 167.302987 
L 223.104072 175.443663 
L 223.189985 175.443663 
L 223.203071 183.584339 
L 223.259079 167.302987 
L 223.268351 167.302987 
L 223.324704 167.302987 
L 223.428843 183.584339 
L 223.603035 183.584339 
L 223.603853 175.443663 
L 223.707603 183.584339 
L 223.864075 183.584339 
L 223.869525 191.725015 
L 223.90692 175.443663 
L 223.925611 183.584339 
L 224.283346 175.443663 
L 224.461894 175.443663 
L 224.586115 167.302987 
L 224.610063 167.302987 
L 224.678179 159.162311 
L 224.79001 167.302987 
L 224.902604 151.021635 
L 224.936196 151.021635 
L 225.037615 159.162311 
L 225.19967 159.162311 
L 225.36714 183.584339 
L 225.424673 183.584339 
L 225.474942 191.725015 
L 225.497113 183.584339 
L 226.047486 183.584339 
L 226.098836 191.725015 
L 226.86784 191.725015 
L 227.239698 183.584339 
L 227.318324 183.584339 
L 227.564761 167.302987 
L 227.828581 167.302987 
L 227.941797 151.021635 
L 228.010993 151.021635 
L 228.068046 167.302987 
L 228.246382 167.302987 
L 228.373582 159.162311 
L 228.54032 159.162311 
L 228.583741 175.443663 
L 228.814212 167.302987 
L 228.90474 175.443663 
L 228.996584 175.443663 
L 229.126515 159.162311 
L 229.191755 167.302987 
L 229.43142 167.302987 
L 229.566464 183.584339 
L 229.683649 183.584339 
L 229.743061 191.725015 
L 229.931399 175.443663 
L 230.077863 167.302987 
L 230.195862 175.443663 
L 230.270849 183.584339 
L 230.344488 175.443663 
L 230.555935 183.584339 
L 230.685885 175.443663 
L 230.787411 175.443663 
L 230.83604 183.584339 
L 231.091005 183.584339 
L 231.27876 167.302987 
L 231.316339 175.443663 
L 231.376176 167.302987 
L 231.396097 167.302987 
L 231.439425 175.443663 
L 231.505562 167.302987 
L 231.576395 175.443663 
L 231.840981 175.443663 
L 231.866606 167.302987 
L 231.866894 175.443663 
L 232.006554 175.443663 
L 232.033834 183.584339 
L 232.277254 183.584339 
L 232.390123 167.302987 
L 232.518751 167.302987 
L 232.619374 159.162311 
L 232.745302 151.021635 
L 232.79879 159.162311 
L 232.801097 151.021635 
L 233.073956 151.021635 
L 233.179428 159.162311 
L 233.273671 159.162311 
L 233.405266 151.021635 
L 233.451498 159.162311 
L 233.621904 167.302987 
L 233.658688 175.443663 
L 233.785596 175.443663 
L 233.809226 183.584339 
L 234.015328 191.725015 
L 234.226114 191.725015 
L 234.279946 183.584339 
L 234.405286 191.725015 
L 234.717378 183.584339 
L 234.817007 191.725015 
L 235.290634 175.443663 
L 235.362169 183.584339 
L 235.510082 175.443663 
L 235.562368 175.443663 
L 235.666459 167.302987 
L 235.682205 167.302987 
L 235.69126 175.443663 
L 235.788811 167.302987 
L 235.901106 167.302987 
L 235.942925 183.584339 
L 235.985208 175.443663 
L 236.242788 175.443663 
L 236.357554 167.302987 
L 236.535382 159.162311 
L 236.692347 159.162311 
L 236.719096 151.021635 
L 237.052321 175.443663 
L 237.097261 159.162311 
L 237.174281 167.302987 
L 237.229766 167.302987 
L 237.326793 175.443663 
L 237.463635 167.302987 
L 237.774249 167.302987 
L 237.920938 159.162311 
L 238.10396 167.302987 
L 238.463356 175.443663 
L 238.492898 183.584339 
L 238.524151 175.443663 
L 238.679322 167.302987 
L 238.680291 175.443663 
L 238.766791 167.302987 
L 238.844332 159.162311 
L 238.980316 159.162311 
L 239.020282 167.302987 
L 239.215036 175.443663 
L 239.477305 159.162311 
L 239.737979 175.443663 
L 239.935713 175.443663 
L 240.045138 183.584339 
L 240.386591 175.443663 
L 240.626603 175.443663 
L 240.737375 183.584339 
L 240.880711 183.584339 
L 241.18561 175.443663 
L 241.349209 159.162311 
L 241.37074 167.302987 
L 241.596736 167.302987 
L 241.701984 175.443663 
L 241.998718 159.162311 
L 242.220557 167.302987 
L 242.249415 159.162311 
L 242.286813 167.302987 
L 242.340827 167.302987 
L 242.485099 191.725015 
L 242.745523 183.584339 
L 242.833422 175.443663 
L 242.921574 183.584339 
L 243.107877 191.725015 
L 245.663219 191.725015 
L 245.913977 183.584339 
L 245.982861 191.725015 
L 247.399313 191.725015 
L 247.816263 183.584339 
L 247.889479 175.443663 
L 248.042024 183.584339 
L 248.064236 183.584339 
L 248.204198 191.725015 
L 248.982606 191.725015 
L 249.272888 175.443663 
L 249.276855 183.584339 
L 249.362495 175.443663 
L 249.460386 175.443663 
L 249.478546 183.584339 
L 250.841762 183.584339 
L 251.644753 191.725015 
L 254.80911 191.725015 
L 255.003513 183.584339 
L 255.056856 183.584339 
L 255.579506 191.725015 
L 258.278564 191.725015 
L 258.387331 183.584339 
L 258.696824 175.443663 
L 258.744885 167.302987 
L 258.897437 167.302987 
L 259.126358 175.443663 
L 259.128222 183.584339 
L 260.285559 183.584339 
L 260.314604 191.725015 
L 271.961015 191.725015 
L 272.448796 183.584339 
L 272.648077 183.584339 
L 272.801029 191.725015 
L 274.102743 191.725015 
L 274.109489 183.584339 
L 274.351444 191.725015 
L 279.350446 191.725015 
L 279.817899 183.584339 
L 280.714612 191.725015 
L 283.590669 191.725015 
L 283.773714 183.584339 
L 283.899477 183.584339 
L 284.157522 191.725015 
L 288.808721 191.725015 
L 289.170775 183.584339 
L 289.300881 175.443663 
L 289.432552 183.584339 
L 290.025877 191.725015 
L 295.586293 191.725015 
L 295.697222 183.584339 
L 295.906256 183.584339 
L 296.058373 191.725015 
L 296.270391 183.584339 
L 296.281236 175.443663 
L 296.37719 183.584339 
L 296.921883 183.584339 
L 296.949785 191.725015 
L 297.11225 183.584339 
L 297.196386 183.584339 
L 297.326993 191.725015 
L 297.501795 191.725015 
L 297.886983 183.584339 
L 298.083702 191.725015 
L 298.474895 175.443663 
L 299.069639 175.443663 
L 299.17348 167.302987 
L 299.355839 183.584339 
L 299.708321 183.584339 
L 300.006732 191.725015 
L 300.502782 191.725015 
L 300.512458 183.584339 
L 300.745014 175.443663 
L 300.81176 183.584339 
L 301.602296 183.584339 
L 301.653921 191.725015 
L 312.40778 191.725015 
L 312.40778 191.725015 
" clip-path="url(#pa7edb9effd)" style="fill: none; stroke: #000000; stroke-width: 1.5; stroke-linecap: square"/>
   </g>
   <g id="patch_8">
    <path d="M 43.78125 195.795353 
L 43.78125 106.247917 
" style="fill: none; stroke: #000000; stroke-width: 0.8; stroke-linejoin: miter; stroke-linecap: square"/>
   </g>
   <g id="patch_9">
    <path d="M 325.19952 195.795353 
L 325.19952 106.247917 
" style="fill: none; stroke: #000000; stroke-width: 0.8; stroke-linejoin: miter; stroke-linecap: square"/>
   </g>
   <g id="patch_10">
    <path d="M 43.78125 195.795353 
L 325.19952 195.795353 
" style="fill: none; stroke: #000000; stroke-width: 0.8; stroke-linejoin: miter; stroke-linecap: square"/>
   </g>
   <g id="patch_11">
    <path d="M 43.78125 106.247917 
L 325.19952 106.247917 
" style="fill: none; stroke: #000000; stroke-width: 0.8; stroke-linejoin: miter; stroke-linecap: square"/>
   </g>
  </g>
  <g id="axes_3">
   <g id="patch_12">
    <path d="M 43.78125 294.84327 
L 325.19952 294.84327 
L 325.19952 205.295833 
L 43.78125 205.295833 
z
" style="fill: #ffffff"/>
   </g>
   <g id="matplotlib.axis_5">
    <g id="xtick_19">
     <g id="line2d_27">
      <g>
       <use xlink:href="#m8c8b19e625" x="56.57299" y="294.84327" style="stroke: #000000; stroke-width: 0.8"/>
      </g>
     </g>
     <g id="text_9">
      <!-- 0 -->
      <g transform="translate(53.39174 309.441707) scale(0.1 -0.1)">
       <use xlink:href="#DejaVuSans-30"/>
      </g>
     </g>
    </g>
    <g id="xtick_20">
     <g id="line2d_28">
      <g>
       <use xlink:href="#m8c8b19e625" x="88.255562" y="294.84327" style="stroke: #000000; stroke-width: 0.8"/>
      </g>
     </g>
     <g id="text_10">
      <!-- 100 -->
      <g transform="translate(78.711812 309.441707) scale(0.1 -0.1)">
       <use xlink:href="#DejaVuSans-31"/>
       <use xlink:href="#DejaVuSans-30" transform="translate(63.623047 0)"/>
       <use xlink:href="#DejaVuSans-30" transform="translate(127.246094 0)"/>
      </g>
     </g>
    </g>
    <g id="xtick_21">
     <g id="line2d_29">
      <g>
       <use xlink:href="#m8c8b19e625" x="119.938134" y="294.84327" style="stroke: #000000; stroke-width: 0.8"/>
      </g>
     </g>
     <g id="text_11">
      <!-- 200 -->
      <g transform="translate(110.394384 309.441707) scale(0.1 -0.1)">
       <defs>
        <path id="DejaVuSans-32" d="M 1228 531 
L 3431 531 
L 3431 0 
L 469 0 
L 469 531 
Q 828 903 1448 1529 
Q 2069 2156 2228 2338 
Q 2531 2678 2651 2914 
Q 2772 3150 2772 3378 
Q 2772 3750 2511 3984 
Q 2250 4219 1831 4219 
Q 1534 4219 1204 4116 
Q 875 4013 500 3803 
L 500 4441 
Q 881 4594 1212 4672 
Q 1544 4750 1819 4750 
Q 2544 4750 2975 4387 
Q 3406 4025 3406 3419 
Q 3406 3131 3298 2873 
Q 3191 2616 2906 2266 
Q 2828 2175 2409 1742 
Q 1991 1309 1228 531 
z
" transform="scale(0.015625)"/>
       </defs>
       <use xlink:href="#DejaVuSans-32"/>
       <use xlink:href="#DejaVuSans-30" transform="translate(63.623047 0)"/>
       <use xlink:href="#DejaVuSans-30" transform="translate(127.246094 0)"/>
      </g>
     </g>
    </g>
    <g id="xtick_22">
     <g id="line2d_30">
      <g>
       <use xlink:href="#m8c8b19e625" x="151.620706" y="294.84327" style="stroke: #000000; stroke-width: 0.8"/>
      </g>
     </g>
     <g id="text_12">
      <!-- 300 -->
      <g transform="translate(142.076956 309.441707) scale(0.1 -0.1)">
       <defs>
        <path id="DejaVuSans-33" d="M 2597 2516 
Q 3050 2419 3304 2112 
Q 3559 1806 3559 1356 
Q 3559 666 3084 287 
Q 2609 -91 1734 -91 
Q 1441 -91 1130 -33 
Q 819 25 488 141 
L 488 750 
Q 750 597 1062 519 
Q 1375 441 1716 441 
Q 2309 441 2620 675 
Q 2931 909 2931 1356 
Q 2931 1769 2642 2001 
Q 2353 2234 1838 2234 
L 1294 2234 
L 1294 2753 
L 1863 2753 
Q 2328 2753 2575 2939 
Q 2822 3125 2822 3475 
Q 2822 3834 2567 4026 
Q 2313 4219 1838 4219 
Q 1578 4219 1281 4162 
Q 984 4106 628 3988 
L 628 4550 
Q 988 4650 1302 4700 
Q 1616 4750 1894 4750 
Q 2613 4750 3031 4423 
Q 3450 4097 3450 3541 
Q 3450 3153 3228 2886 
Q 3006 2619 2597 2516 
z
" transform="scale(0.015625)"/>
       </defs>
       <use xlink:href="#DejaVuSans-33"/>
       <use xlink:href="#DejaVuSans-30" transform="translate(63.623047 0)"/>
       <use xlink:href="#DejaVuSans-30" transform="translate(127.246094 0)"/>
      </g>
     </g>
    </g>
    <g id="xtick_23">
     <g id="line2d_31">
      <g>
       <use xlink:href="#m8c8b19e625" x="183.303278" y="294.84327" style="stroke: #000000; stroke-width: 0.8"/>
      </g>
     </g>
     <g id="text_13">
      <!-- 400 -->
      <g transform="translate(173.759528 309.441707) scale(0.1 -0.1)">
       <defs>
        <path id="DejaVuSans-34" d="M 2419 4116 
L 825 1625 
L 2419 1625 
L 2419 4116 
z
M 2253 4666 
L 3047 4666 
L 3047 1625 
L 3713 1625 
L 3713 1100 
L 3047 1100 
L 3047 0 
L 2419 0 
L 2419 1100 
L 313 1100 
L 313 1709 
L 2253 4666 
z
" transform="scale(0.015625)"/>
       </defs>
       <use xlink:href="#DejaVuSans-34"/>
       <use xlink:href="#DejaVuSans-30" transform="translate(63.623047 0)"/>
       <use xlink:href="#DejaVuSans-30" transform="translate(127.246094 0)"/>
      </g>
     </g>
    </g>
    <g id="xtick_24">
     <g id="line2d_32">
      <g>
       <use xlink:href="#m8c8b19e625" x="214.98585" y="294.84327" style="stroke: #000000; stroke-width: 0.8"/>
      </g>
     </g>
     <g id="text_14">
      <!-- 500 -->
      <g transform="translate(205.4421 309.441707) scale(0.1 -0.1)">
       <use xlink:href="#DejaVuSans-35"/>
       <use xlink:href="#DejaVuSans-30" transform="translate(63.623047 0)"/>
       <use xlink:href="#DejaVuSans-30" transform="translate(127.246094 0)"/>
      </g>
     </g>
    </g>
    <g id="xtick_25">
     <g id="line2d_33">
      <g>
       <use xlink:href="#m8c8b19e625" x="246.668422" y="294.84327" style="stroke: #000000; stroke-width: 0.8"/>
      </g>
     </g>
     <g id="text_15">
      <!-- 600 -->
      <g transform="translate(237.124672 309.441707) scale(0.1 -0.1)">
       <defs>
        <path id="DejaVuSans-36" d="M 2113 2584 
Q 1688 2584 1439 2293 
Q 1191 2003 1191 1497 
Q 1191 994 1439 701 
Q 1688 409 2113 409 
Q 2538 409 2786 701 
Q 3034 994 3034 1497 
Q 3034 2003 2786 2293 
Q 2538 2584 2113 2584 
z
M 3366 4563 
L 3366 3988 
Q 3128 4100 2886 4159 
Q 2644 4219 2406 4219 
Q 1781 4219 1451 3797 
Q 1122 3375 1075 2522 
Q 1259 2794 1537 2939 
Q 1816 3084 2150 3084 
Q 2853 3084 3261 2657 
Q 3669 2231 3669 1497 
Q 3669 778 3244 343 
Q 2819 -91 2113 -91 
Q 1303 -91 875 529 
Q 447 1150 447 2328 
Q 447 3434 972 4092 
Q 1497 4750 2381 4750 
Q 2619 4750 2861 4703 
Q 3103 4656 3366 4563 
z
" transform="scale(0.015625)"/>
       </defs>
       <use xlink:href="#DejaVuSans-36"/>
       <use xlink:href="#DejaVuSans-30" transform="translate(63.623047 0)"/>
       <use xlink:href="#DejaVuSans-30" transform="translate(127.246094 0)"/>
      </g>
     </g>
    </g>
    <g id="xtick_26">
     <g id="line2d_34">
      <g>
       <use xlink:href="#m8c8b19e625" x="278.350995" y="294.84327" style="stroke: #000000; stroke-width: 0.8"/>
      </g>
     </g>
     <g id="text_16">
      <!-- 700 -->
      <g transform="translate(268.807245 309.441707) scale(0.1 -0.1)">
       <defs>
        <path id="DejaVuSans-37" d="M 525 4666 
L 3525 4666 
L 3525 4397 
L 1831 0 
L 1172 0 
L 2766 4134 
L 525 4134 
L 525 4666 
z
" transform="scale(0.015625)"/>
       </defs>
       <use xlink:href="#DejaVuSans-37"/>
       <use xlink:href="#DejaVuSans-30" transform="translate(63.623047 0)"/>
       <use xlink:href="#DejaVuSans-30" transform="translate(127.246094 0)"/>
      </g>
     </g>
    </g>
    <g id="xtick_27">
     <g id="line2d_35">
      <g>
       <use xlink:href="#m8c8b19e625" x="310.033567" y="294.84327" style="stroke: #000000; stroke-width: 0.8"/>
      </g>
     </g>
     <g id="text_17">
      <!-- 800 -->
      <g transform="translate(300.489817 309.441707) scale(0.1 -0.1)">
       <defs>
        <path id="DejaVuSans-38" d="M 2034 2216 
Q 1584 2216 1326 1975 
Q 1069 1734 1069 1313 
Q 1069 891 1326 650 
Q 1584 409 2034 409 
Q 2484 409 2743 651 
Q 3003 894 3003 1313 
Q 3003 1734 2745 1975 
Q 2488 2216 2034 2216 
z
M 1403 2484 
Q 997 2584 770 2862 
Q 544 3141 544 3541 
Q 544 4100 942 4425 
Q 1341 4750 2034 4750 
Q 2731 4750 3128 4425 
Q 3525 4100 3525 3541 
Q 3525 3141 3298 2862 
Q 3072 2584 2669 2484 
Q 3125 2378 3379 2068 
Q 3634 1759 3634 1313 
Q 3634 634 3220 271 
Q 2806 -91 2034 -91 
Q 1263 -91 848 271 
Q 434 634 434 1313 
Q 434 1759 690 2068 
Q 947 2378 1403 2484 
z
M 1172 3481 
Q 1172 3119 1398 2916 
Q 1625 2713 2034 2713 
Q 2441 2713 2670 2916 
Q 2900 3119 2900 3481 
Q 2900 3844 2670 4047 
Q 2441 4250 2034 4250 
Q 1625 4250 1398 4047 
Q 1172 3844 1172 3481 
z
" transform="scale(0.015625)"/>
       </defs>
       <use xlink:href="#DejaVuSans-38"/>
       <use xlink:href="#DejaVuSans-30" transform="translate(63.623047 0)"/>
       <use xlink:href="#DejaVuSans-30" transform="translate(127.246094 0)"/>
      </g>
     </g>
    </g>
    <g id="text_18">
     <!-- Time -->
     <g transform="translate(172.256791 323.119832) scale(0.1 -0.1)">
      <defs>
       <path id="DejaVuSans-54" d="M -19 4666 
L 3928 4666 
L 3928 4134 
L 2272 4134 
L 2272 0 
L 1638 0 
L 1638 4134 
L -19 4134 
L -19 4666 
z
" transform="scale(0.015625)"/>
       <path id="DejaVuSans-69" d="M 603 3500 
L 1178 3500 
L 1178 0 
L 603 0 
L 603 3500 
z
M 603 4863 
L 1178 4863 
L 1178 4134 
L 603 4134 
L 603 4863 
z
" transform="scale(0.015625)"/>
       <path id="DejaVuSans-6d" d="M 3328 2828 
Q 3544 3216 3844 3400 
Q 4144 3584 4550 3584 
Q 5097 3584 5394 3201 
Q 5691 2819 5691 2113 
L 5691 0 
L 5113 0 
L 5113 2094 
Q 5113 2597 4934 2840 
Q 4756 3084 4391 3084 
Q 3944 3084 3684 2787 
Q 3425 2491 3425 1978 
L 3425 0 
L 2847 0 
L 2847 2094 
Q 2847 2600 2669 2842 
Q 2491 3084 2119 3084 
Q 1678 3084 1418 2786 
Q 1159 2488 1159 1978 
L 1159 0 
L 581 0 
L 581 3500 
L 1159 3500 
L 1159 2956 
Q 1356 3278 1631 3431 
Q 1906 3584 2284 3584 
Q 2666 3584 2933 3390 
Q 3200 3197 3328 2828 
z
" transform="scale(0.015625)"/>
      </defs>
      <use xlink:href="#DejaVuSans-54"/>
      <use xlink:href="#DejaVuSans-69" transform="translate(57.958984 0)"/>
      <use xlink:href="#DejaVuSans-6d" transform="translate(85.742188 0)"/>
      <use xlink:href="#DejaVuSans-65" transform="translate(183.154297 0)"/>
     </g>
    </g>
   </g>
   <g id="matplotlib.axis_6">
    <g id="ytick_7">
     <g id="line2d_36">
      <g>
       <use xlink:href="#md1140de20f" x="43.78125" y="290.772932" style="stroke: #000000; stroke-width: 0.8"/>
      </g>
     </g>
     <g id="text_19">
      <!-- 0.0 -->
      <g transform="translate(20.878125 294.572151) scale(0.1 -0.1)">
       <defs>
        <path id="DejaVuSans-2e" d="M 684 794 
L 1344 794 
L 1344 0 
L 684 0 
L 684 794 
z
" transform="scale(0.015625)"/>
       </defs>
       <use xlink:href="#DejaVuSans-30"/>
       <use xlink:href="#DejaVuSans-2e" transform="translate(63.623047 0)"/>
       <use xlink:href="#DejaVuSans-30" transform="translate(95.410156 0)"/>
      </g>
     </g>
    </g>
    <g id="ytick_8">
     <g id="line2d_37">
      <g>
       <use xlink:href="#md1140de20f" x="43.78125" y="250.069552" style="stroke: #000000; stroke-width: 0.8"/>
      </g>
     </g>
     <g id="text_20">
      <!-- 0.5 -->
      <g transform="translate(20.878125 253.86877) scale(0.1 -0.1)">
       <use xlink:href="#DejaVuSans-30"/>
       <use xlink:href="#DejaVuSans-2e" transform="translate(63.623047 0)"/>
       <use xlink:href="#DejaVuSans-35" transform="translate(95.410156 0)"/>
      </g>
     </g>
    </g>
    <g id="ytick_9">
     <g id="line2d_38">
      <g>
       <use xlink:href="#md1140de20f" x="43.78125" y="209.366171" style="stroke: #000000; stroke-width: 0.8"/>
      </g>
     </g>
     <g id="text_21">
      <!-- 1.0 -->
      <g transform="translate(20.878125 213.16539) scale(0.1 -0.1)">
       <use xlink:href="#DejaVuSans-31"/>
       <use xlink:href="#DejaVuSans-2e" transform="translate(63.623047 0)"/>
       <use xlink:href="#DejaVuSans-30" transform="translate(95.410156 0)"/>
      </g>
     </g>
    </g>
    <g id="text_22">
     <!-- Free lac operon -->
     <g transform="translate(14.798438 288.540645) rotate(-90) scale(0.1 -0.1)">
      <defs>
       <path id="DejaVuSans-46" d="M 628 4666 
L 3309 4666 
L 3309 4134 
L 1259 4134 
L 1259 2759 
L 3109 2759 
L 3109 2228 
L 1259 2228 
L 1259 0 
L 628 0 
L 628 4666 
z
" transform="scale(0.015625)"/>
       <path id="DejaVuSans-70" d="M 1159 525 
L 1159 -1331 
L 581 -1331 
L 581 3500 
L 1159 3500 
L 1159 2969 
Q 1341 3281 1617 3432 
Q 1894 3584 2278 3584 
Q 2916 3584 3314 3078 
Q 3713 2572 3713 1747 
Q 3713 922 3314 415 
Q 2916 -91 2278 -91 
Q 1894 -91 1617 61 
Q 1341 213 1159 525 
z
M 3116 1747 
Q 3116 2381 2855 2742 
Q 2594 3103 2138 3103 
Q 1681 3103 1420 2742 
Q 1159 2381 1159 1747 
Q 1159 1113 1420 752 
Q 1681 391 2138 391 
Q 2594 391 2855 752 
Q 3116 1113 3116 1747 
z
" transform="scale(0.015625)"/>
       <path id="DejaVuSans-6e" d="M 3513 2113 
L 3513 0 
L 2938 0 
L 2938 2094 
Q 2938 2591 2744 2837 
Q 2550 3084 2163 3084 
Q 1697 3084 1428 2787 
Q 1159 2491 1159 1978 
L 1159 0 
L 581 0 
L 581 3500 
L 1159 3500 
L 1159 2956 
Q 1366 3272 1645 3428 
Q 1925 3584 2291 3584 
Q 2894 3584 3203 3211 
Q 3513 2838 3513 2113 
z
" transform="scale(0.015625)"/>
      </defs>
      <use xlink:href="#DejaVuSans-46"/>
      <use xlink:href="#DejaVuSans-72" transform="translate(50.269531 0)"/>
      <use xlink:href="#DejaVuSans-65" transform="translate(89.132812 0)"/>
      <use xlink:href="#DejaVuSans-65" transform="translate(150.65625 0)"/>
      <use xlink:href="#DejaVuSans-20" transform="translate(212.179688 0)"/>
      <use xlink:href="#DejaVuSans-6c" transform="translate(243.966797 0)"/>
      <use xlink:href="#DejaVuSans-61" transform="translate(271.75 0)"/>
      <use xlink:href="#DejaVuSans-63" transform="translate(333.029297 0)"/>
      <use xlink:href="#DejaVuSans-20" transform="translate(388.009766 0)"/>
      <use xlink:href="#DejaVuSans-6f" transform="translate(419.796875 0)"/>
      <use xlink:href="#DejaVuSans-70" transform="translate(480.978516 0)"/>
      <use xlink:href="#DejaVuSans-65" transform="translate(544.455078 0)"/>
      <use xlink:href="#DejaVuSans-72" transform="translate(605.978516 0)"/>
      <use xlink:href="#DejaVuSans-6f" transform="translate(644.841797 0)"/>
      <use xlink:href="#DejaVuSans-6e" transform="translate(706.023438 0)"/>
     </g>
    </g>
   </g>
   <g id="line2d_39">
    <path d="M 56.57299 209.366171 
L 56.955739 209.366171 
L 57.08545 290.772932 
L 57.396642 290.772932 
L 57.569369 209.366171 
L 57.710198 290.772932 
L 58.05145 290.772932 
L 58.342588 209.366171 
L 58.468284 209.366171 
L 58.637038 290.772932 
L 59.247505 290.772932 
L 59.801077 209.366171 
L 59.931653 290.772932 
L 61.92162 209.366171 
L 62.134364 290.772932 
L 62.956714 209.366171 
L 63.025759 290.772932 
L 63.814347 209.366171 
L 63.889441 290.772932 
L 64.047448 209.366171 
L 64.529609 290.772932 
L 74.852561 209.366171 
L 74.85777 290.772932 
L 77.322405 209.366171 
L 78.782136 290.772932 
L 80.730214 209.366171 
L 81.272283 209.366171 
L 81.309449 290.772932 
L 82.646169 290.772932 
L 87.911377 209.366171 
L 88.236624 290.772932 
L 88.587071 290.772932 
L 89.390148 209.366171 
L 89.435503 290.772932 
L 93.493316 290.772932 
L 94.453213 209.366171 
L 94.488327 290.772932 
L 95.035347 209.366171 
L 95.333474 290.772932 
L 101.273708 209.366171 
L 102.27509 209.366171 
L 102.642329 290.772932 
L 103.863345 209.366171 
L 104.29842 209.366171 
L 104.316541 290.772932 
L 104.912384 290.772932 
L 113.526174 209.366171 
L 113.845094 209.366171 
L 113.900807 290.772932 
L 114.070775 290.772932 
L 115.463319 209.366171 
L 115.506308 290.772932 
L 116.687193 209.366171 
L 116.861013 290.772932 
L 117.82169 290.772932 
L 119.853049 209.366171 
L 119.94784 290.772932 
L 120.596684 290.772932 
L 120.79124 209.366171 
L 121.006468 290.772932 
L 121.953556 209.366171 
L 122.416977 209.366171 
L 122.502761 290.772932 
L 122.984534 290.772932 
L 125.859987 209.366171 
L 125.964244 290.772932 
L 127.486996 209.366171 
L 127.923217 290.772932 
L 128.883831 209.366171 
L 129.579433 209.366171 
L 129.845184 290.772932 
L 130.501493 290.772932 
L 134.413349 209.366171 
L 134.51578 290.772932 
L 140.099692 209.366171 
L 140.110839 290.772932 
L 141.101963 209.366171 
L 141.144479 290.772932 
L 141.515899 209.366171 
L 141.662245 209.366171 
L 141.82527 290.772932 
L 142.625635 290.772932 
L 145.761096 209.366171 
L 145.878906 290.772932 
L 152.575454 209.366171 
L 152.686805 290.772932 
L 153.875059 290.772932 
L 157.078465 209.366171 
L 157.301884 290.772932 
L 157.680864 209.366171 
L 158.255295 209.366171 
L 158.370935 290.772932 
L 159.218398 290.772932 
L 160.920063 209.366171 
L 161.15437 290.772932 
L 161.806741 209.366171 
L 162.035472 209.366171 
L 162.162862 290.772932 
L 164.143083 290.772932 
L 166.622296 209.366171 
L 166.727828 290.772932 
L 168.212427 209.366171 
L 168.448539 290.772932 
L 173.66092 209.366171 
L 174.164351 209.366171 
L 174.238588 290.772932 
L 174.963372 290.772932 
L 175.948507 209.366171 
L 176.032749 290.772932 
L 179.366497 290.772932 
L 179.433862 209.366171 
L 179.441508 290.772932 
L 179.981016 209.366171 
L 200.864672 209.366171 
L 200.956563 290.772932 
L 205.835296 290.772932 
L 206.221727 209.366171 
L 206.402427 209.366171 
L 206.412925 290.772932 
L 209.825525 290.772932 
L 210.885142 209.366171 
L 242.890114 209.366171 
L 243.025128 290.772932 
L 244.751986 290.772932 
L 245.663219 209.366171 
L 245.940916 209.366171 
L 245.982861 290.772932 
L 246.490898 290.772932 
L 247.399313 209.366171 
L 247.748249 209.366171 
L 247.807929 290.772932 
L 247.816263 209.366171 
L 247.950802 209.366171 
L 248.064236 290.772932 
L 248.204198 290.772932 
L 248.39086 209.366171 
L 248.552894 290.772932 
L 248.982606 209.366171 
L 249.122658 209.366171 
L 249.181687 290.772932 
L 249.215122 209.366171 
L 249.458967 209.366171 
L 249.478546 290.772932 
L 250.118037 290.772932 
L 250.652455 209.366171 
L 250.841762 290.772932 
L 251.644753 290.772932 
L 254.80911 209.366171 
L 254.935834 209.366171 
L 255.056856 290.772932 
L 255.579506 290.772932 
L 258.387331 209.366171 
L 258.744885 209.366171 
L 258.897437 290.772932 
L 259.64521 290.772932 
L 259.684424 209.366171 
L 260.02677 290.772932 
L 260.314604 290.772932 
L 268.114519 209.366171 
L 268.299931 290.772932 
L 269.479171 209.366171 
L 269.499068 290.772932 
L 271.803647 209.366171 
L 271.934038 290.772932 
L 271.961015 209.366171 
L 272.448796 209.366171 
L 272.514449 290.772932 
L 272.801029 290.772932 
L 274.109489 209.366171 
L 274.351444 209.366171 
L 274.367432 290.772932 
L 275.713862 209.366171 
L 275.789336 290.772932 
L 279.350446 209.366171 
L 279.750104 209.366171 
L 279.817899 290.772932 
L 280.714612 290.772932 
L 282.270344 209.366171 
L 282.309963 290.772932 
L 283.05749 209.366171 
L 283.307061 290.772932 
L 283.590669 209.366171 
L 283.773714 209.366171 
L 283.899477 290.772932 
L 284.31867 290.772932 
L 288.808721 209.366171 
L 289.380613 209.366171 
L 289.432552 290.772932 
L 290.025877 290.772932 
L 292.965824 209.366171 
L 292.977759 290.772932 
L 295.697222 209.366171 
L 298.32888 209.366171 
L 298.474895 290.772932 
L 299.006037 290.772932 
L 299.090928 209.366171 
L 299.274195 290.772932 
L 300.006732 290.772932 
L 300.512458 209.366171 
L 300.728022 209.366171 
L 300.81176 290.772932 
L 305.40038 290.772932 
L 307.680435 209.366171 
L 307.787543 290.772932 
L 312.40778 209.366171 
L 312.40778 209.366171 
" clip-path="url(#pb3cc0232a6)" style="fill: none; stroke: #000000; stroke-width: 1.5; stroke-linecap: square"/>
   </g>
   <g id="patch_13">
    <path d="M 43.78125 294.84327 
L 43.78125 205.295833 
" style="fill: none; stroke: #000000; stroke-width: 0.8; stroke-linejoin: miter; stroke-linecap: square"/>
   </g>
   <g id="patch_14">
    <path d="M 325.19952 294.84327 
L 325.19952 205.295833 
" style="fill: none; stroke: #000000; stroke-width: 0.8; stroke-linejoin: miter; stroke-linecap: square"/>
   </g>
   <g id="patch_15">
    <path d="M 43.78125 294.84327 
L 325.19952 294.84327 
" style="fill: none; stroke: #000000; stroke-width: 0.8; stroke-linejoin: miter; stroke-linecap: square"/>
   </g>
   <g id="patch_16">
    <path d="M 43.78125 205.295833 
L 325.19952 205.295833 
" style="fill: none; stroke: #000000; stroke-width: 0.8; stroke-linejoin: miter; stroke-linecap: square"/>
   </g>
  </g>
 </g>
 <defs>
  <clipPath id="p52c7c8de2d">
   <rect x="43.78125" y="7.2" width="281.41827" height="89.547437"/>
  </clipPath>
  <clipPath id="pa7edb9effd">
   <rect x="43.78125" y="106.247917" width="281.41827" height="89.547437"/>
  </clipPath>
  <clipPath id="pb3cc0232a6">
   <rect x="43.78125" y="205.295833" width="281.41827" height="89.547437"/>
  </clipPath>
 </defs>
</svg>
