<?xml version="1.0" encoding="utf-8" standalone="no"?>
<!DOCTYPE svg PUBLIC "-//W3C//DTD SVG 1.1//EN"
  "http://www.w3.org/Graphics/SVG/1.1/DTD/svg11.dtd">
<svg xmlns:xlink="http://www.w3.org/1999/xlink" width="332.39952pt" height="332.39952pt" viewBox="0 0 332.39952 332.39952" xmlns="http://www.w3.org/2000/svg" version="1.1">
 <metadata>
  <rdf:RDF xmlns:dc="http://purl.org/dc/elements/1.1/" xmlns:cc="http://creativecommons.org/ns#" xmlns:rdf="http://www.w3.org/1999/02/22-rdf-syntax-ns#">
   <cc:Work>
    <dc:type rdf:resource="http://purl.org/dc/dcmitype/StillImage"/>
    <dc:date>2026-07-13T14:53:35.477590</dc:date>
    <dc:format>image/svg+xml</dc:format>
    <dc:creator>
     <cc:Agent>
      <dc:title>Matplotlib v3.11.0, https://matplotlib.org/</dc:title>
     </cc:Agent>
    </dc:creator>
   </cc:Work>
  </rdf:RDF>
 </metadata>
 <defs>
  <style type="text/css">*{stroke-linejoin: round; stroke-linecap: butt}</style>
 </defs>
 <g id="figure_1">
  <g id="patch_1">
   <path d="M 0 332.39952 
L 332.39952 332.39952 
L 332.39952 0 
L 0 0 
z
" style="fill: #ffffff"/>
  </g>
  <g id="axes_1">
   <g id="patch_2">
    <path d="M 44.103906 96.532593 
L 325.19952 96.532593 
L 325.19952 7.2 
L 44.103906 7.2 
z
" style="fill: #ffffff"/>
   </g>
   <g id="matplotlib.axis_1">
    <g id="xtick_1">
     <g id="line2d_1">
      <defs>
       <path id="m602eeb167c" d="M 0 0 
L 0 3.5 
" style="stroke: #000000; stroke-width: 0.8"/>
      </defs>
      <g>
       <use xlink:href="#m602eeb167c" x="56.88098" y="96.532593" style="stroke: #000000; stroke-width: 0.8"/>
      </g>
     </g>
    </g>
    <g id="xtick_2">
     <g id="line2d_2">
      <g>
       <use xlink:href="#m602eeb167c" x="88.805865" y="96.532593" style="stroke: #000000; stroke-width: 0.8"/>
      </g>
     </g>
    </g>
    <g id="xtick_3">
     <g id="line2d_3">
      <g>
       <use xlink:href="#m602eeb167c" x="120.730751" y="96.532593" style="stroke: #000000; stroke-width: 0.8"/>
      </g>
     </g>
    </g>
    <g id="xtick_4">
     <g id="line2d_4">
      <g>
       <use xlink:href="#m602eeb167c" x="152.655637" y="96.532593" style="stroke: #000000; stroke-width: 0.8"/>
      </g>
     </g>
    </g>
    <g id="xtick_5">
     <g id="line2d_5">
      <g>
       <use xlink:href="#m602eeb167c" x="184.580523" y="96.532593" style="stroke: #000000; stroke-width: 0.8"/>
      </g>
     </g>
    </g>
    <g id="xtick_6">
     <g id="line2d_6">
      <g>
       <use xlink:href="#m602eeb167c" x="216.505409" y="96.532593" style="stroke: #000000; stroke-width: 0.8"/>
      </g>
     </g>
    </g>
    <g id="xtick_7">
     <g id="line2d_7">
      <g>
       <use xlink:href="#m602eeb167c" x="248.430295" y="96.532593" style="stroke: #000000; stroke-width: 0.8"/>
      </g>
     </g>
    </g>
    <g id="xtick_8">
     <g id="line2d_8">
      <g>
       <use xlink:href="#m602eeb167c" x="280.35518" y="96.532593" style="stroke: #000000; stroke-width: 0.8"/>
      </g>
     </g>
    </g>
    <g id="xtick_9">
     <g id="line2d_9">
      <g>
       <use xlink:href="#m602eeb167c" x="312.280066" y="96.532593" style="stroke: #000000; stroke-width: 0.8"/>
      </g>
     </g>
    </g>
   </g>
   <g id="matplotlib.axis_2">
    <g id="ytick_1">
     <g id="line2d_10">
      <defs>
       <path id="mbdcf0b7127" d="M 0 0 
L -3.5 0 
" style="stroke: #000000; stroke-width: 0.8"/>
      </defs>
      <g>
       <use xlink:href="#mbdcf0b7127" x="44.103906" y="92.472021" style="stroke: #000000; stroke-width: 0.8"/>
      </g>
     </g>
     <g id="text_1">
      <!-- 0 -->
      <g transform="translate(30.741406 96.270849) scale(0.1 -0.1)">
       <defs>
        <path id="DejaVuSans-13" d="M 2034 4250 
Q 1547 4250 1301 3770 
Q 1056 3291 1056 2328 
Q 1056 1369 1301 889 
Q 1547 409 2034 409 
Q 2525 409 2770 889 
Q 3016 1369 3016 2328 
Q 3016 3291 2770 3770 
Q 2525 4250 2034 4250 
z
M 2034 4750 
Q 2819 4750 3233 4129 
Q 3647 3509 3647 2328 
Q 3647 1150 3233 529 
Q 2819 -91 2034 -91 
Q 1250 -91 836 529 
Q 422 1150 422 2328 
Q 422 3509 836 4129 
Q 1250 4750 2034 4750 
z
" transform="scale(0.015625)"/>
       </defs>
       <use xlink:href="#DejaVuSans-13"/>
      </g>
     </g>
    </g>
    <g id="ytick_2">
     <g id="line2d_11">
      <g>
       <use xlink:href="#mbdcf0b7127" x="44.103906" y="51.866296" style="stroke: #000000; stroke-width: 0.8"/>
      </g>
     </g>
     <g id="text_2">
      <!-- 5 -->
      <g transform="translate(30.741406 55.665125) scale(0.1 -0.1)">
       <defs>
        <path id="DejaVuSans-18" d="M 691 4666 
L 3169 4666 
L 3169 4134 
L 1269 4134 
L 1269 2991 
Q 1406 3038 1543 3061 
Q 1681 3084 1819 3084 
Q 2600 3084 3056 2656 
Q 3513 2228 3513 1497 
Q 3513 744 3044 326 
Q 2575 -91 1722 -91 
Q 1428 -91 1123 -41 
Q 819 9 494 109 
L 494 744 
Q 775 591 1075 516 
Q 1375 441 1709 441 
Q 2250 441 2565 725 
Q 2881 1009 2881 1497 
Q 2881 1984 2565 2268 
Q 2250 2553 1709 2553 
Q 1456 2553 1204 2497 
Q 953 2441 691 2322 
L 691 4666 
z
" transform="scale(0.015625)"/>
       </defs>
       <use xlink:href="#DejaVuSans-18"/>
      </g>
     </g>
    </g>
    <g id="ytick_3">
     <g id="line2d_12">
      <g>
       <use xlink:href="#mbdcf0b7127" x="44.103906" y="11.260572" style="stroke: #000000; stroke-width: 0.8"/>
      </g>
     </g>
     <g id="text_3">
      <!-- 10 -->
      <g transform="translate(24.378906 15.059401) scale(0.1 -0.1)">
       <defs>
        <path id="DejaVuSans-14" d="M 794 531 
L 1825 531 
L 1825 4091 
L 703 3866 
L 703 4441 
L 1819 4666 
L 2450 4666 
L 2450 531 
L 3481 531 
L 3481 0 
L 794 0 
L 794 531 
z
" transform="scale(0.015625)"/>
       </defs>
       <use xlink:href="#DejaVuSans-14"/>
       <use xlink:href="#DejaVuSans-13" transform="translate(63.625 0)"/>
      </g>
     </g>
    </g>
    <g id="text_4">
     <!-- Extracellular lactose -->
     <g transform="translate(17.976563 102.838171) rotate(-90) scale(0.1 -0.1)">
      <defs>
       <path id="DejaVuSans-28" d="M 628 4666 
L 3578 4666 
L 3578 4134 
L 1259 4134 
L 1259 2753 
L 3481 2753 
L 3481 2222 
L 1259 2222 
L 1259 531 
L 3634 531 
L 3634 0 
L 628 0 
L 628 4666 
z
" transform="scale(0.015625)"/>
       <path id="DejaVuSans-5b" d="M 3513 3500 
L 2247 1797 
L 3578 0 
L 2900 0 
L 1881 1375 
L 863 0 
L 184 0 
L 1544 1831 
L 300 3500 
L 978 3500 
L 1906 2253 
L 2834 3500 
L 3513 3500 
z
" transform="scale(0.015625)"/>
       <path id="DejaVuSans-57" d="M 1172 4494 
L 1172 3500 
L 2356 3500 
L 2356 3053 
L 1172 3053 
L 1172 1153 
Q 1172 725 1289 603 
Q 1406 481 1766 481 
L 2356 481 
L 2356 0 
L 1766 0 
Q 1100 0 847 248 
Q 594 497 594 1153 
L 594 3053 
L 172 3053 
L 172 3500 
L 594 3500 
L 594 4494 
L 1172 4494 
z
" transform="scale(0.015625)"/>
       <path id="DejaVuSans-55" d="M 2631 2963 
Q 2534 3019 2420 3045 
Q 2306 3072 2169 3072 
Q 1681 3072 1420 2755 
Q 1159 2438 1159 1844 
L 1159 0 
L 581 0 
L 581 3500 
L 1159 3500 
L 1159 2956 
Q 1341 3275 1631 3429 
Q 1922 3584 2338 3584 
Q 2397 3584 2469 3576 
Q 2541 3569 2628 3553 
L 2631 2963 
z
" transform="scale(0.015625)"/>
       <path id="DejaVuSans-44" d="M 2194 1759 
Q 1497 1759 1228 1600 
Q 959 1441 959 1056 
Q 959 750 1161 570 
Q 1363 391 1709 391 
Q 2188 391 2477 730 
Q 2766 1069 2766 1631 
L 2766 1759 
L 2194 1759 
z
M 3341 1997 
L 3341 0 
L 2766 0 
L 2766 531 
Q 2569 213 2275 61 
Q 1981 -91 1556 -91 
Q 1019 -91 701 211 
Q 384 513 384 1019 
Q 384 1609 779 1909 
Q 1175 2209 1959 2209 
L 2766 2209 
L 2766 2266 
Q 2766 2663 2505 2880 
Q 2244 3097 1772 3097 
Q 1472 3097 1187 3025 
Q 903 2953 641 2809 
L 641 3341 
Q 956 3463 1253 3523 
Q 1550 3584 1831 3584 
Q 2591 3584 2966 3190 
Q 3341 2797 3341 1997 
z
" transform="scale(0.015625)"/>
       <path id="DejaVuSans-46" d="M 3122 3366 
L 3122 2828 
Q 2878 2963 2633 3030 
Q 2388 3097 2138 3097 
Q 1578 3097 1268 2742 
Q 959 2388 959 1747 
Q 959 1106 1268 751 
Q 1578 397 2138 397 
Q 2388 397 2633 464 
Q 2878 531 3122 666 
L 3122 134 
Q 2881 22 2623 -34 
Q 2366 -91 2075 -91 
Q 1284 -91 818 406 
Q 353 903 353 1747 
Q 353 2603 823 3093 
Q 1294 3584 2113 3584 
Q 2378 3584 2631 3529 
Q 2884 3475 3122 3366 
z
" transform="scale(0.015625)"/>
       <path id="DejaVuSans-48" d="M 3597 1894 
L 3597 1613 
L 953 1613 
Q 991 1019 1311 708 
Q 1631 397 2203 397 
Q 2534 397 2845 478 
Q 3156 559 3463 722 
L 3463 178 
Q 3153 47 2828 -22 
Q 2503 -91 2169 -91 
Q 1331 -91 842 396 
Q 353 884 353 1716 
Q 353 2575 817 3079 
Q 1281 3584 2069 3584 
Q 2775 3584 3186 3129 
Q 3597 2675 3597 1894 
z
M 3022 2063 
Q 3016 2534 2758 2815 
Q 2500 3097 2075 3097 
Q 1594 3097 1305 2825 
Q 1016 2553 972 2059 
L 3022 2063 
z
" transform="scale(0.015625)"/>
       <path id="DejaVuSans-4f" d="M 603 4863 
L 1178 4863 
L 1178 0 
L 603 0 
L 603 4863 
z
" transform="scale(0.015625)"/>
       <path id="DejaVuSans-58" d="M 544 1381 
L 544 3500 
L 1119 3500 
L 1119 1403 
Q 1119 906 1312 657 
Q 1506 409 1894 409 
Q 2359 409 2629 706 
Q 2900 1003 2900 1516 
L 2900 3500 
L 3475 3500 
L 3475 0 
L 2900 0 
L 2900 538 
Q 2691 219 2414 64 
Q 2138 -91 1772 -91 
Q 1169 -91 856 284 
Q 544 659 544 1381 
z
M 1991 3584 
L 1991 3584 
z
" transform="scale(0.015625)"/>
       <path id="DejaVuSans-3" transform="scale(0.015625)"/>
       <path id="DejaVuSans-52" d="M 1959 3097 
Q 1497 3097 1228 2736 
Q 959 2375 959 1747 
Q 959 1119 1226 758 
Q 1494 397 1959 397 
Q 2419 397 2687 759 
Q 2956 1122 2956 1747 
Q 2956 2369 2687 2733 
Q 2419 3097 1959 3097 
z
M 1959 3584 
Q 2709 3584 3137 3096 
Q 3566 2609 3566 1747 
Q 3566 888 3137 398 
Q 2709 -91 1959 -91 
Q 1206 -91 779 398 
Q 353 888 353 1747 
Q 353 2609 779 3096 
Q 1206 3584 1959 3584 
z
" transform="scale(0.015625)"/>
       <path id="DejaVuSans-56" d="M 2834 3397 
L 2834 2853 
Q 2591 2978 2328 3040 
Q 2066 3103 1784 3103 
Q 1356 3103 1142 2972 
Q 928 2841 928 2578 
Q 928 2378 1081 2264 
Q 1234 2150 1697 2047 
L 1894 2003 
Q 2506 1872 2764 1633 
Q 3022 1394 3022 966 
Q 3022 478 2636 193 
Q 2250 -91 1575 -91 
Q 1294 -91 989 -36 
Q 684 19 347 128 
L 347 722 
Q 666 556 975 473 
Q 1284 391 1588 391 
Q 1994 391 2212 530 
Q 2431 669 2431 922 
Q 2431 1156 2273 1281 
Q 2116 1406 1581 1522 
L 1381 1569 
Q 847 1681 609 1914 
Q 372 2147 372 2553 
Q 372 3047 722 3315 
Q 1072 3584 1716 3584 
Q 2034 3584 2315 3537 
Q 2597 3491 2834 3397 
z
" transform="scale(0.015625)"/>
      </defs>
      <use xlink:href="#DejaVuSans-28"/>
      <use xlink:href="#DejaVuSans-5b" transform="translate(63.1875 0)"/>
      <use xlink:href="#DejaVuSans-57" transform="translate(122.375 0)"/>
      <use xlink:href="#DejaVuSans-55" transform="translate(161.578125 0)"/>
      <use xlink:href="#DejaVuSans-44" transform="translate(202.6875 0)"/>
      <use xlink:href="#DejaVuSans-46" transform="translate(263.96875 0)"/>
      <use xlink:href="#DejaVuSans-48" transform="translate(318.953125 0)"/>
      <use xlink:href="#DejaVuSans-4f" transform="translate(380.484375 0)"/>
      <use xlink:href="#DejaVuSans-4f" transform="translate(408.265625 0)"/>
      <use xlink:href="#DejaVuSans-58" transform="translate(436.046875 0)"/>
      <use xlink:href="#DejaVuSans-4f" transform="translate(499.421875 0)"/>
      <use xlink:href="#DejaVuSans-44" transform="translate(527.203125 0)"/>
      <use xlink:href="#DejaVuSans-55" transform="translate(588.484375 0)"/>
      <use xlink:href="#DejaVuSans-3" transform="translate(629.59375 0)"/>
      <use xlink:href="#DejaVuSans-4f" transform="translate(661.375 0)"/>
      <use xlink:href="#DejaVuSans-44" transform="translate(689.15625 0)"/>
      <use xlink:href="#DejaVuSans-46" transform="translate(750.4375 0)"/>
      <use xlink:href="#DejaVuSans-57" transform="translate(805.421875 0)"/>
      <use xlink:href="#DejaVuSans-52" transform="translate(844.625 0)"/>
      <use xlink:href="#DejaVuSans-56" transform="translate(905.8125 0)"/>
      <use xlink:href="#DejaVuSans-48" transform="translate(957.90625 0)"/>
     </g>
    </g>
   </g>
   <g id="line2d_13">
    <path d="M 56.88098 92.472021 
L 156.189515 92.472021 
L 156.278597 11.260572 
L 156.946464 11.341784 
L 157.06413 11.66663 
L 157.108936 11.747841 
L 157.255104 13.209647 
L 157.373423 14.833876 
L 157.387249 14.915088 
L 157.530736 16.620528 
L 157.554281 16.701739 
L 158.063767 20.193832 
L 158.335368 20.599889 
L 158.39465 20.6811 
L 158.503806 20.762312 
L 158.954318 20.843523 
L 159.051161 21.249581 
L 159.291914 21.655638 
L 159.392357 22.061695 
L 159.512897 22.142906 
L 159.615623 22.630175 
L 159.645612 22.711387 
L 159.754562 23.604713 
L 159.851773 24.498038 
L 160.190795 25.878633 
L 160.236773 25.959845 
L 160.472888 27.340439 
L 160.671341 28.802245 
L 160.690157 28.883457 
L 160.969586 31.238589 
L 160.997105 31.3198 
L 161.109718 32.050703 
L 161.212533 32.131915 
L 161.323984 32.619183 
L 161.374186 32.700395 
L 161.491747 33.512509 
L 161.518614 33.593721 
L 161.628794 34.080989 
L 161.717436 34.162201 
L 161.923028 35.136738 
L 161.988134 35.21795 
L 162.186507 35.948853 
L 162.758741 36.030064 
L 162.902764 36.517333 
L 162.926518 36.598544 
L 163.095482 37.004601 
L 163.307439 37.085813 
L 163.45195 37.654293 
L 163.599911 37.979139 
L 163.62316 38.06035 
L 163.714649 38.303985 
L 164.246003 39.603368 
L 164.339933 39.847002 
L 164.433477 39.928214 
L 165.175804 43.501517 
L 165.291995 43.582729 
L 165.394834 44.069997 
L 165.519551 44.313632 
L 165.60118 44.394843 
L 165.711247 44.719689 
L 166.477839 46.912398 
L 166.786579 46.99361 
L 166.999883 47.480878 
L 167.053316 47.56209 
L 167.165837 47.805724 
L 167.236715 47.886936 
L 167.506402 48.617839 
L 167.627161 49.023896 
L 167.91225 50.729336 
L 167.986459 50.810548 
L 168.135295 51.297816 
L 168.186604 51.379028 
L 168.453286 52.109931 
L 168.826777 52.191142 
L 169.147692 52.597199 
L 169.651902 52.678411 
L 169.914106 53.16568 
L 170.028023 53.490525 
L 170.164663 53.571737 
L 170.314923 53.815371 
L 170.544857 53.896583 
L 170.758258 54.465063 
L 170.833967 54.546274 
L 171.060936 56.657772 
L 171.08222 56.738983 
L 171.236809 58.606847 
L 171.425217 60.231076 
L 171.496973 60.312287 
L 171.673456 60.799556 
L 171.709045 60.880767 
L 171.854993 61.286824 
L 171.958644 61.774093 
L 172.05848 61.936516 
L 172.154433 62.017727 
L 172.27394 62.18015 
L 172.454844 62.261362 
L 172.595271 62.504996 
L 172.890583 62.829842 
L 173.059153 62.911053 
L 173.162488 63.154688 
L 173.312292 63.479534 
L 173.451788 63.560745 
L 173.626017 64.372859 
L 174.028936 65.753454 
L 174.066245 65.834666 
L 174.190571 66.484357 
L 174.352568 67.134049 
L 174.436938 67.21526 
L 174.539536 67.458894 
L 174.588214 67.540106 
L 174.700527 67.946163 
L 174.74034 68.027375 
L 174.910231 68.758278 
L 174.971497 68.839489 
L 175.130716 69.732815 
L 175.156942 69.814026 
L 175.373799 70.788564 
L 175.413854 70.869775 
L 175.688237 71.844313 
L 175.770678 71.925524 
L 175.885147 72.25037 
L 176.083266 72.900062 
L 177.231409 72.981273 
L 177.470212 73.712176 
L 177.550002 73.793387 
L 177.689453 74.037022 
L 177.800179 74.118233 
L 177.942122 74.199445 
L 178.039702 74.280656 
L 178.202989 74.52429 
L 178.302056 74.605502 
L 178.366853 74.686713 
L 178.523914 74.767925 
L 178.542332 74.849136 
L 179.198264 74.930348 
L 179.275878 75.092771 
L 179.370621 75.173982 
L 179.453411 75.255194 
L 179.613565 75.336405 
L 179.708835 75.417616 
L 179.955378 75.498828 
L 180.475052 76.148519 
L 181.046302 76.635788 
L 181.318413 76.879422 
L 181.42888 77.204268 
L 181.936734 78.016383 
L 182.009803 78.097594 
L 182.221307 78.909709 
L 182.348211 78.99092 
L 182.471756 79.072132 
L 183.014888 79.153343 
L 183.119142 79.234554 
L 184.601308 79.315766 
L 184.655775 79.396977 
L 184.819344 79.478189 
L 185.226739 79.721823 
L 185.348887 79.884246 
L 185.475075 79.965458 
L 185.743136 80.371515 
L 185.830398 80.452726 
L 186.250942 81.346052 
L 186.400792 81.427264 
L 186.597991 81.914532 
L 186.817596 81.995744 
L 186.918125 82.076955 
L 187.930865 82.158167 
L 188.444534 82.239378 
L 188.945215 82.320589 
L 189.233993 82.564224 
L 189.347243 82.88907 
L 189.791055 82.970281 
L 189.834717 83.051493 
L 190.931628 83.701184 
L 191.484656 83.782396 
L 191.61509 83.863607 
L 192.645215 83.944818 
L 192.958136 84.188453 
L 195.126938 84.269664 
L 196.216775 84.675721 
L 197.020151 84.756933 
L 197.18212 84.838144 
L 197.398831 84.919356 
L 197.654513 85.000567 
L 198.171219 85.081779 
L 198.275947 85.244202 
L 198.520599 85.325413 
L 198.640615 85.73147 
L 198.930906 85.812682 
L 199.362001 86.137528 
L 199.795075 86.218739 
L 201.227182 86.29995 
L 206.320491 86.381162 
L 206.418393 86.624796 
L 206.538074 86.706008 
L 206.611634 86.868431 
L 207.393679 86.949642 
L 207.598791 87.112065 
L 207.677982 87.193276 
L 207.985607 87.274488 
L 208.13949 87.518122 
L 208.587867 87.599334 
L 208.653032 87.761757 
L 209.703554 87.842968 
L 209.864916 87.924179 
L 210.359703 88.005391 
L 210.66482 88.249025 
L 211.121409 88.330237 
L 211.244026 88.411448 
L 211.403501 88.49266 
L 211.671236 88.573871 
L 211.751293 88.655082 
L 213.187102 88.736294 
L 213.285444 88.817505 
L 214.088511 88.898717 
L 214.42131 88.979928 
L 215.192412 89.06114 
L 215.413213 89.223563 
L 216.29185 89.304774 
L 216.472324 89.385985 
L 218.360292 89.467197 
L 218.778012 89.62962 
L 219.865284 89.710831 
L 225.314944 90.116889 
L 225.373597 90.279311 
L 225.96728 90.441734 
L 241.402296 90.522946 
L 241.54796 90.604157 
L 241.953365 90.685369 
L 242.08554 90.76658 
L 279.223084 90.847792 
L 279.613597 90.929003 
L 296.290218 91.010214 
L 296.487725 91.091426 
L 297.494436 91.172637 
L 297.608714 91.253849 
L 312.422447 91.253849 
L 312.422447 91.253849 
" clip-path="url(#pa5615c45ae)" style="fill: none; stroke: #000000; stroke-width: 1.5; stroke-linecap: square"/>
   </g>
   <g id="patch_3">
    <path d="M 44.103906 96.532593 
L 44.103906 7.2 
" style="fill: none; stroke: #000000; stroke-width: 0.8; stroke-linejoin: miter; stroke-linecap: square"/>
   </g>
   <g id="patch_4">
    <path d="M 325.19952 96.532593 
L 325.19952 7.2 
" style="fill: none; stroke: #000000; stroke-width: 0.8; stroke-linejoin: miter; stroke-linecap: square"/>
   </g>
   <g id="patch_5">
    <path d="M 44.103906 96.532593 
L 325.19952 96.532593 
" style="fill: none; stroke: #000000; stroke-width: 0.8; stroke-linejoin: miter; stroke-linecap: square"/>
   </g>
   <g id="patch_6">
    <path d="M 44.103906 7.2 
L 325.19952 7.2 
" style="fill: none; stroke: #000000; stroke-width: 0.8; stroke-linejoin: miter; stroke-linecap: square"/>
   </g>
  </g>
  <g id="axes_2">
   <g id="patch_7">
    <path d="M 44.103906 195.365666 
L 325.19952 195.365666 
L 325.19952 106.033073 
L 44.103906 106.033073 
z
" style="fill: #ffffff"/>
   </g>
   <g id="matplotlib.axis_3">
    <g id="xtick_10">
     <g id="line2d_14">
      <g>
       <use xlink:href="#m602eeb167c" x="56.88098" y="195.365666" style="stroke: #000000; stroke-width: 0.8"/>
      </g>
     </g>
    </g>
    <g id="xtick_11">
     <g id="line2d_15">
      <g>
       <use xlink:href="#m602eeb167c" x="88.805865" y="195.365666" style="stroke: #000000; stroke-width: 0.8"/>
      </g>
     </g>
    </g>
    <g id="xtick_12">
     <g id="line2d_16">
      <g>
       <use xlink:href="#m602eeb167c" x="120.730751" y="195.365666" style="stroke: #000000; stroke-width: 0.8"/>
      </g>
     </g>
    </g>
    <g id="xtick_13">
     <g id="line2d_17">
      <g>
       <use xlink:href="#m602eeb167c" x="152.655637" y="195.365666" style="stroke: #000000; stroke-width: 0.8"/>
      </g>
     </g>
    </g>
    <g id="xtick_14">
     <g id="line2d_18">
      <g>
       <use xlink:href="#m602eeb167c" x="184.580523" y="195.365666" style="stroke: #000000; stroke-width: 0.8"/>
      </g>
     </g>
    </g>
    <g id="xtick_15">
     <g id="line2d_19">
      <g>
       <use xlink:href="#m602eeb167c" x="216.505409" y="195.365666" style="stroke: #000000; stroke-width: 0.8"/>
      </g>
     </g>
    </g>
    <g id="xtick_16">
     <g id="line2d_20">
      <g>
       <use xlink:href="#m602eeb167c" x="248.430295" y="195.365666" style="stroke: #000000; stroke-width: 0.8"/>
      </g>
     </g>
    </g>
    <g id="xtick_17">
     <g id="line2d_21">
      <g>
       <use xlink:href="#m602eeb167c" x="280.35518" y="195.365666" style="stroke: #000000; stroke-width: 0.8"/>
      </g>
     </g>
    </g>
    <g id="xtick_18">
     <g id="line2d_22">
      <g>
       <use xlink:href="#m602eeb167c" x="312.280066" y="195.365666" style="stroke: #000000; stroke-width: 0.8"/>
      </g>
     </g>
    </g>
   </g>
   <g id="matplotlib.axis_4">
    <g id="ytick_4">
     <g id="line2d_23">
      <g>
       <use xlink:href="#mbdcf0b7127" x="44.103906" y="191.305093" style="stroke: #000000; stroke-width: 0.8"/>
      </g>
     </g>
     <g id="text_5">
      <!-- 0 -->
      <g transform="translate(30.741406 195.103922) scale(0.1 -0.1)">
       <use xlink:href="#DejaVuSans-13"/>
      </g>
     </g>
    </g>
    <g id="ytick_5">
     <g id="line2d_24">
      <g>
       <use xlink:href="#mbdcf0b7127" x="44.103906" y="150.699369" style="stroke: #000000; stroke-width: 0.8"/>
      </g>
     </g>
     <g id="text_6">
      <!-- 5 -->
      <g transform="translate(30.741406 154.498197) scale(0.1 -0.1)">
       <use xlink:href="#DejaVuSans-18"/>
      </g>
     </g>
    </g>
    <g id="ytick_6">
     <g id="line2d_25">
      <g>
       <use xlink:href="#mbdcf0b7127" x="44.103906" y="110.093645" style="stroke: #000000; stroke-width: 0.8"/>
      </g>
     </g>
     <g id="text_7">
      <!-- 10 -->
      <g transform="translate(24.378906 113.892473) scale(0.1 -0.1)">
       <use xlink:href="#DejaVuSans-14"/>
       <use xlink:href="#DejaVuSans-13" transform="translate(63.625 0)"/>
      </g>
     </g>
    </g>
    <g id="text_8">
     <!-- LacY -->
     <g transform="translate(17.976563 162.352494) rotate(-90) scale(0.1 -0.1)">
      <defs>
       <path id="DejaVuSans-2f" d="M 628 4666 
L 1259 4666 
L 1259 531 
L 3531 531 
L 3531 0 
L 628 0 
L 628 4666 
z
" transform="scale(0.015625)"/>
       <path id="DejaVuSans-3c" d="M -13 4666 
L 666 4666 
L 1959 2747 
L 3244 4666 
L 3922 4666 
L 2272 2222 
L 2272 0 
L 1638 0 
L 1638 2222 
L -13 4666 
z
" transform="scale(0.015625)"/>
      </defs>
      <use xlink:href="#DejaVuSans-2f"/>
      <use xlink:href="#DejaVuSans-44" transform="translate(55.71875 0)"/>
      <use xlink:href="#DejaVuSans-46" transform="translate(117 0)"/>
      <use xlink:href="#DejaVuSans-3c" transform="translate(171.984375 0)"/>
     </g>
    </g>
   </g>
   <g id="line2d_26">
    <path d="M 56.88098 110.093645 
L 56.908117 110.093645 
L 56.962632 118.21479 
L 57.070839 134.45708 
L 57.131205 142.578225 
L 57.283368 142.578225 
L 57.301072 134.45708 
L 57.521743 142.578225 
L 57.663662 142.578225 
L 57.834377 158.820514 
L 58.135391 175.062804 
L 58.201035 191.305093 
L 59.731601 191.305093 
L 59.898285 183.183949 
L 59.941043 191.305093 
L 64.965508 191.305093 
L 65.288586 183.183949 
L 65.398581 191.305093 
L 82.901362 191.305093 
L 83.095842 183.183949 
L 84.889834 191.305093 
L 84.904665 183.183949 
L 85.047926 175.062804 
L 85.052582 166.941659 
L 85.374866 175.062804 
L 85.601915 175.062804 
L 85.721594 191.305093 
L 85.782438 183.183949 
L 85.972736 183.183949 
L 86.111274 191.305093 
L 90.004979 191.305093 
L 90.394926 175.062804 
L 90.396227 166.941659 
L 90.895053 166.941659 
L 90.933736 183.183949 
L 91.706173 183.183949 
L 91.875161 175.062804 
L 92.219583 191.305093 
L 109.231218 191.305093 
L 109.336956 183.183949 
L 109.456709 183.183949 
L 109.595855 191.305093 
L 109.830947 191.305093 
L 109.872448 183.183949 
L 110.28857 183.183949 
L 110.638635 175.062804 
L 110.697005 183.183949 
L 110.872341 183.183949 
L 110.901932 191.305093 
L 119.665075 191.305093 
L 119.843574 183.183949 
L 121.944723 183.183949 
L 123.792986 191.305093 
L 131.56435 191.305093 
L 131.750697 183.183949 
L 132.038383 183.183949 
L 132.146207 191.305093 
L 136.4839 191.305093 
L 136.567667 183.183949 
L 136.589542 191.305093 
L 146.586589 191.305093 
L 146.847548 175.062804 
L 146.868389 183.183949 
L 146.89741 175.062804 
L 147.010571 166.941659 
L 147.015913 175.062804 
L 147.600914 175.062804 
L 148.218368 183.183949 
L 148.463809 183.183949 
L 148.779213 175.062804 
L 148.892147 175.062804 
L 149.964539 191.305093 
L 150.424917 191.305093 
L 150.476821 175.062804 
L 150.577741 175.062804 
L 150.730642 183.183949 
L 150.864421 183.183949 
L 151.407573 191.305093 
L 156.52833 191.305093 
L 156.956807 183.183949 
L 157.197208 150.699369 
L 157.478975 150.699369 
L 157.599137 166.941659 
L 157.649028 166.941659 
L 157.749974 158.820514 
L 157.836991 158.820514 
L 157.946849 175.062804 
L 157.975062 175.062804 
L 158.063767 183.183949 
L 158.410126 183.183949 
L 158.503806 191.305093 
L 158.903681 191.305093 
L 159.005087 183.183949 
L 159.171345 183.183949 
L 159.275502 175.062804 
L 159.42155 175.062804 
L 159.477057 183.183949 
L 159.531577 175.062804 
L 159.637844 175.062804 
L 159.742177 166.941659 
L 159.902293 166.941659 
L 160.027268 183.183949 
L 160.161535 183.183949 
L 160.284673 175.062804 
L 160.433846 175.062804 
L 160.561891 158.820514 
L 160.739108 158.820514 
L 160.807877 150.699369 
L 160.84703 158.820514 
L 160.934511 158.820514 
L 160.985091 150.699369 
L 161.037728 158.820514 
L 161.206481 158.820514 
L 161.315639 175.062804 
L 161.344602 175.062804 
L 161.375143 183.183949 
L 161.383528 166.941659 
L 161.451568 166.941659 
L 161.686782 166.941659 
L 161.7989 175.062804 
L 162.08636 175.062804 
L 162.186507 183.183949 
L 162.286425 183.183949 
L 162.397209 191.305093 
L 162.670447 191.305093 
L 162.819344 183.183949 
L 162.942961 183.183949 
L 163.058247 175.062804 
L 163.095482 175.062804 
L 163.204681 183.183949 
L 163.448358 183.183949 
L 163.501405 175.062804 
L 163.554602 183.183949 
L 163.871714 183.183949 
L 163.989749 175.062804 
L 163.996112 175.062804 
L 164.00398 166.941659 
L 164.078127 175.062804 
L 164.293132 175.062804 
L 164.339933 183.183949 
L 164.403361 175.062804 
L 164.502488 175.062804 
L 164.614003 158.820514 
L 164.636948 158.820514 
L 164.761071 166.941659 
L 164.882509 166.941659 
L 164.979615 158.820514 
L 164.982701 166.941659 
L 165.094224 175.062804 
L 166.128404 175.062804 
L 166.255729 183.183949 
L 166.477839 183.183949 
L 166.603217 191.305093 
L 166.701832 191.305093 
L 166.847663 183.183949 
L 167.381705 183.183949 
L 167.549593 166.941659 
L 167.751838 166.941659 
L 167.762333 175.062804 
L 167.85551 166.941659 
L 168.038054 166.941659 
L 168.135295 158.820514 
L 168.24161 158.820514 
L 168.334826 175.062804 
L 168.373317 175.062804 
L 168.488097 191.305093 
L 168.73679 191.305093 
L 168.872398 183.183949 
L 169.107078 183.183949 
L 169.160363 175.062804 
L 169.186012 183.183949 
L 169.227815 183.183949 
L 169.307563 191.305093 
L 169.523907 191.305093 
L 169.651902 183.183949 
L 169.783902 183.183949 
L 169.90387 175.062804 
L 169.918943 175.062804 
L 170.028023 183.183949 
L 170.475364 183.183949 
L 170.593282 175.062804 
L 170.653185 175.062804 
L 170.774353 158.820514 
L 170.838779 158.820514 
L 170.914263 142.578225 
L 170.943188 150.699369 
L 170.965758 150.699369 
L 171.077778 134.45708 
L 171.334548 134.45708 
L 171.441949 150.699369 
L 171.470512 150.699369 
L 171.610636 166.941659 
L 171.691415 166.941659 
L 171.765208 150.699369 
L 171.812812 158.820514 
L 171.932191 166.941659 
L 172.053813 166.941659 
L 172.162953 175.062804 
L 172.192046 175.062804 
L 172.27394 191.305093 
L 172.38714 191.305093 
L 172.571537 175.062804 
L 172.679064 175.062804 
L 172.794022 183.183949 
L 173.034987 183.183949 
L 173.162488 175.062804 
L 173.328491 175.062804 
L 173.451788 158.820514 
L 173.8322 158.820514 
L 173.882008 166.941659 
L 173.941957 158.820514 
L 174.028936 158.820514 
L 174.137758 150.699369 
L 174.282997 150.699369 
L 174.322111 166.941659 
L 174.39207 158.820514 
L 174.4793 158.820514 
L 174.590419 166.941659 
L 174.623614 166.941659 
L 174.734184 158.820514 
L 174.779441 158.820514 
L 174.787605 150.699369 
L 174.87914 158.820514 
L 174.928307 158.820514 
L 174.959418 150.699369 
L 175.019412 158.820514 
L 175.127517 158.820514 
L 175.224919 150.699369 
L 175.35323 158.820514 
L 175.50741 158.820514 
L 175.618496 166.941659 
L 175.993585 166.941659 
L 176.083266 175.062804 
L 176.22327 183.183949 
L 176.259133 183.183949 
L 176.344257 191.305093 
L 176.869548 191.305093 
L 177.022653 183.183949 
L 177.048315 191.305093 
L 177.0883 175.062804 
L 177.636219 175.062804 
L 177.800179 183.183949 
L 177.883831 183.183949 
L 177.962712 175.062804 
L 178.324826 175.062804 
L 178.366853 183.183949 
L 178.542332 175.062804 
L 178.659487 175.062804 
L 178.766596 183.183949 
L 178.87793 183.183949 
L 178.907995 175.062804 
L 178.975161 183.183949 
L 179.039807 183.183949 
L 179.210163 166.941659 
L 179.274877 166.941659 
L 179.379268 175.062804 
L 179.499369 175.062804 
L 179.51912 183.183949 
L 179.590031 175.062804 
L 179.67455 175.062804 
L 179.708835 183.183949 
L 179.825532 183.183949 
L 179.882972 175.062804 
L 180.006652 183.183949 
L 180.101246 166.941659 
L 180.111331 175.062804 
L 180.21162 175.062804 
L 180.289543 183.183949 
L 180.313309 175.062804 
L 181.033098 175.062804 
L 181.046302 166.941659 
L 181.185647 166.941659 
L 181.296755 150.699369 
L 181.298196 158.820514 
L 181.325872 158.820514 
L 181.42888 150.699369 
L 181.627703 150.699369 
L 181.737243 158.820514 
L 181.857663 158.820514 
L 181.936734 175.062804 
L 181.962459 166.941659 
L 181.985208 166.941659 
L 182.092952 158.820514 
L 182.293089 158.820514 
L 182.479093 191.305093 
L 182.594864 175.062804 
L 182.625851 183.183949 
L 182.703849 183.183949 
L 182.820577 175.062804 
L 182.907979 175.062804 
L 183.014888 183.183949 
L 183.064537 183.183949 
L 183.225496 191.305093 
L 184.455156 191.305093 
L 184.655775 175.062804 
L 185.039173 175.062804 
L 185.06384 183.183949 
L 185.122527 166.941659 
L 185.245176 158.820514 
L 186.072129 158.820514 
L 186.193586 150.699369 
L 186.303634 150.699369 
L 186.427553 158.820514 
L 186.431803 150.699369 
L 186.461472 166.941659 
L 186.522012 166.941659 
L 186.572221 166.941659 
L 186.640248 175.062804 
L 186.646424 166.941659 
L 186.731892 166.941659 
L 186.829463 175.062804 
L 186.901205 175.062804 
L 186.983423 166.941659 
L 186.997723 175.062804 
L 187.160292 183.183949 
L 187.492408 183.183949 
L 187.53407 175.062804 
L 187.700643 183.183949 
L 188.16936 183.183949 
L 188.223436 191.305093 
L 188.602874 191.305093 
L 188.842468 183.183949 
L 188.853087 183.183949 
L 188.945215 158.820514 
L 189.101439 158.820514 
L 189.144245 166.941659 
L 189.656455 166.941659 
L 189.735532 183.183949 
L 189.834717 175.062804 
L 189.948081 175.062804 
L 189.982416 183.183949 
L 190.039665 175.062804 
L 190.158952 175.062804 
L 190.2268 166.941659 
L 190.410288 166.941659 
L 190.534033 183.183949 
L 190.639163 183.183949 
L 190.67239 175.062804 
L 190.741457 183.183949 
L 190.743821 191.305093 
L 191.013643 183.183949 
L 191.12072 183.183949 
L 191.204094 175.062804 
L 191.208286 183.183949 
L 191.368579 183.183949 
L 191.406723 175.062804 
L 191.470459 183.183949 
L 192.574857 183.183949 
L 192.598343 175.062804 
L 192.645215 183.183949 
L 192.958136 183.183949 
L 193.056025 175.062804 
L 193.056664 183.183949 
L 193.280166 183.183949 
L 193.305346 191.305093 
L 193.781014 191.305093 
L 193.85876 183.183949 
L 194.034873 191.305093 
L 194.525599 183.183949 
L 194.666015 191.305093 
L 194.889641 183.183949 
L 195.685367 183.183949 
L 195.695035 175.062804 
L 196.10322 175.062804 
L 196.216775 183.183949 
L 196.477823 183.183949 
L 196.48447 191.305093 
L 196.786839 175.062804 
L 196.973823 175.062804 
L 197.064204 183.183949 
L 197.081994 175.062804 
L 197.110521 175.062804 
L 197.124571 183.183949 
L 197.219758 175.062804 
L 197.325077 175.062804 
L 197.398831 183.183949 
L 197.543985 183.183949 
L 197.576938 175.062804 
L 197.654513 183.183949 
L 197.957012 191.305093 
L 198.114036 191.305093 
L 198.275947 150.699369 
L 198.418948 150.699369 
L 198.451756 158.820514 
L 198.464176 150.699369 
L 198.595304 134.45708 
L 198.740491 142.578225 
L 199.033552 158.820514 
L 199.12686 158.820514 
L 199.220319 175.062804 
L 199.499925 175.062804 
L 199.64533 183.183949 
L 200.533003 183.183949 
L 200.60777 191.305093 
L 204.467333 191.305093 
L 204.973022 183.183949 
L 205.093531 175.062804 
L 205.179171 191.305093 
L 205.464599 191.305093 
L 205.556681 183.183949 
L 205.852564 183.183949 
L 205.928152 175.062804 
L 205.980338 183.183949 
L 205.99562 175.062804 
L 206.163017 166.941659 
L 206.245492 158.820514 
L 206.418393 175.062804 
L 206.477628 175.062804 
L 206.565471 166.941659 
L 206.74122 191.305093 
L 206.854036 191.305093 
L 206.875311 175.062804 
L 207.015547 183.183949 
L 207.299173 183.183949 
L 207.393679 175.062804 
L 207.606817 175.062804 
L 207.677982 166.941659 
L 208.02893 166.941659 
L 208.13949 158.820514 
L 208.236304 158.820514 
L 208.338217 166.941659 
L 208.468026 175.062804 
L 208.502352 175.062804 
L 208.61994 183.183949 
L 209.436058 183.183949 
L 209.630714 166.941659 
L 209.695752 166.941659 
L 209.788325 175.062804 
L 209.919773 183.183949 
L 210.105093 166.941659 
L 210.417381 158.820514 
L 210.47425 158.820514 
L 210.545532 142.578225 
L 210.62495 142.578225 
L 210.717422 134.45708 
L 210.741778 134.45708 
L 210.758529 150.699369 
L 210.84237 134.45708 
L 210.984348 150.699369 
L 211.115209 150.699369 
L 211.211412 142.578225 
L 211.29247 142.578225 
L 211.403501 150.699369 
L 211.478687 150.699369 
L 211.699242 183.183949 
L 211.751293 183.183949 
L 211.843668 175.062804 
L 211.852811 183.183949 
L 211.930403 183.183949 
L 212.104836 191.305093 
L 212.645797 183.183949 
L 212.87035 183.183949 
L 213.029806 175.062804 
L 213.195556 175.062804 
L 213.285444 183.183949 
L 213.428949 183.183949 
L 213.451266 191.305093 
L 213.478393 183.183949 
L 213.55729 183.183949 
L 213.726727 175.062804 
L 213.758701 175.062804 
L 213.943885 158.820514 
L 214.061139 158.820514 
L 214.088511 166.941659 
L 214.42131 166.941659 
L 214.558373 175.062804 
L 214.979317 175.062804 
L 215.192412 158.820514 
L 215.251222 158.820514 
L 215.413213 183.183949 
L 215.794941 183.183949 
L 215.929594 175.062804 
L 216.056372 191.305093 
L 216.146592 183.183949 
L 216.454897 183.183949 
L 216.579824 166.941659 
L 216.736609 175.062804 
L 216.899339 166.941659 
L 216.918976 175.062804 
L 217.057512 175.062804 
L 217.090539 166.941659 
L 217.323114 175.062804 
L 217.592524 175.062804 
L 217.699502 183.183949 
L 218.559915 183.183949 
L 218.626046 191.305093 
L 219.356197 191.305093 
L 219.38994 183.183949 
L 221.505737 183.183949 
L 221.650169 191.305093 
L 222.643056 191.305093 
L 222.957246 183.183949 
L 223.115533 191.305093 
L 223.397797 183.183949 
L 224.123701 183.183949 
L 224.224055 166.941659 
L 224.258671 158.820514 
L 224.443761 166.941659 
L 224.532553 158.820514 
L 224.645574 158.820514 
L 224.662726 150.699369 
L 224.754613 158.820514 
L 224.765273 158.820514 
L 224.813836 166.941659 
L 224.963211 158.820514 
L 225.247356 158.820514 
L 225.373597 166.941659 
L 225.613959 166.941659 
L 225.755322 175.062804 
L 225.897397 166.941659 
L 225.96728 175.062804 
L 226.311908 175.062804 
L 226.396289 166.941659 
L 226.402025 175.062804 
L 226.49951 175.062804 
L 226.502134 183.183949 
L 226.727871 175.062804 
L 226.908832 175.062804 
L 226.914042 183.183949 
L 226.991514 175.062804 
L 227.247621 175.062804 
L 227.294426 183.183949 
L 227.512546 191.305093 
L 227.736556 183.183949 
L 227.822893 191.305093 
L 240.87982 191.305093 
L 241.117619 166.941659 
L 241.3386 191.305093 
L 241.473952 175.062804 
L 241.507232 183.183949 
L 241.594678 183.183949 
L 241.664483 175.062804 
L 241.861479 183.183949 
L 242.08554 166.941659 
L 242.185183 183.183949 
L 242.288877 175.062804 
L 242.546302 175.062804 
L 242.564089 166.941659 
L 242.653096 175.062804 
L 243.168773 175.062804 
L 243.307468 183.183949 
L 243.525654 183.183949 
L 243.682622 191.305093 
L 249.266433 191.305093 
L 249.35779 183.183949 
L 249.513009 183.183949 
L 249.600251 191.305093 
L 258.66297 191.305093 
L 259.283382 183.183949 
L 259.597905 166.941659 
L 259.639798 175.062804 
L 259.694319 166.941659 
L 259.715959 166.941659 
L 259.908697 175.062804 
L 259.976931 183.183949 
L 260.365068 191.305093 
L 270.900848 191.305093 
L 271.186615 183.183949 
L 271.31895 191.305093 
L 279.089293 191.305093 
L 279.223084 183.183949 
L 279.435369 183.183949 
L 279.445991 191.305093 
L 284.321455 191.305093 
L 284.759607 175.062804 
L 284.965867 175.062804 
L 285.618397 183.183949 
L 285.736371 191.305093 
L 287.225452 191.305093 
L 287.378148 175.062804 
L 287.717014 183.183949 
L 287.786668 183.183949 
L 287.955393 191.305093 
L 295.400039 191.305093 
L 295.401635 183.183949 
L 295.855568 183.183949 
L 296.114562 166.941659 
L 296.290218 175.062804 
L 296.356927 175.062804 
L 296.487725 183.183949 
L 296.589762 183.183949 
L 296.628957 175.062804 
L 296.792024 183.183949 
L 296.953073 183.183949 
L 297.212784 175.062804 
L 297.348502 158.820514 
L 297.492989 158.820514 
L 297.545798 166.941659 
L 297.82783 166.941659 
L 297.951292 175.062804 
L 297.993541 191.305093 
L 311.702562 191.305093 
L 312.422447 183.183949 
L 312.422447 183.183949 
" clip-path="url(#p475add2957)" style="fill: none; stroke: #000000; stroke-width: 1.5; stroke-linecap: square"/>
   </g>
   <g id="patch_8">
    <path d="M 44.103906 195.365666 
L 44.103906 106.033073 
" style="fill: none; stroke: #000000; stroke-width: 0.8; stroke-linejoin: miter; stroke-linecap: square"/>
   </g>
   <g id="patch_9">
    <path d="M 325.19952 195.365666 
L 325.19952 106.033073 
" style="fill: none; stroke: #000000; stroke-width: 0.8; stroke-linejoin: miter; stroke-linecap: square"/>
   </g>
   <g id="patch_10">
    <path d="M 44.103906 195.365666 
L 325.19952 195.365666 
" style="fill: none; stroke: #000000; stroke-width: 0.8; stroke-linejoin: miter; stroke-linecap: square"/>
   </g>
   <g id="patch_11">
    <path d="M 44.103906 106.033073 
L 325.19952 106.033073 
" style="fill: none; stroke: #000000; stroke-width: 0.8; stroke-linejoin: miter; stroke-linecap: square"/>
   </g>
  </g>
  <g id="axes_3">
   <g id="patch_12">
    <path d="M 44.103906 294.198739 
L 325.19952 294.198739 
L 325.19952 204.866146 
L 44.103906 204.866146 
z
" style="fill: #ffffff"/>
   </g>
   <g id="matplotlib.axis_5">
    <g id="xtick_19">
     <g id="line2d_27">
      <g>
       <use xlink:href="#m602eeb167c" x="56.88098" y="294.198739" style="stroke: #000000; stroke-width: 0.8"/>
      </g>
     </g>
     <g id="text_9">
      <!-- 0 -->
      <g transform="translate(53.69973 308.796395) scale(0.1 -0.1)">
       <use xlink:href="#DejaVuSans-13"/>
      </g>
     </g>
    </g>
    <g id="xtick_20">
     <g id="line2d_28">
      <g>
       <use xlink:href="#m602eeb167c" x="88.805865" y="294.198739" style="stroke: #000000; stroke-width: 0.8"/>
      </g>
     </g>
     <g id="text_10">
      <!-- 100 -->
      <g transform="translate(79.262115 308.796395) scale(0.1 -0.1)">
       <use xlink:href="#DejaVuSans-14"/>
       <use xlink:href="#DejaVuSans-13" transform="translate(63.625 0)"/>
       <use xlink:href="#DejaVuSans-13" transform="translate(127.25 0)"/>
      </g>
     </g>
    </g>
    <g id="xtick_21">
     <g id="line2d_29">
      <g>
       <use xlink:href="#m602eeb167c" x="120.730751" y="294.198739" style="stroke: #000000; stroke-width: 0.8"/>
      </g>
     </g>
     <g id="text_11">
      <!-- 200 -->
      <g transform="translate(111.187001 308.796395) scale(0.1 -0.1)">
       <defs>
        <path id="DejaVuSans-15" d="M 1228 531 
L 3431 531 
L 3431 0 
L 469 0 
L 469 531 
Q 828 903 1448 1529 
Q 2069 2156 2228 2338 
Q 2531 2678 2651 2914 
Q 2772 3150 2772 3378 
Q 2772 3750 2511 3984 
Q 2250 4219 1831 4219 
Q 1534 4219 1204 4116 
Q 875 4013 500 3803 
L 500 4441 
Q 881 4594 1212 4672 
Q 1544 4750 1819 4750 
Q 2544 4750 2975 4387 
Q 3406 4025 3406 3419 
Q 3406 3131 3298 2873 
Q 3191 2616 2906 2266 
Q 2828 2175 2409 1742 
Q 1991 1309 1228 531 
z
" transform="scale(0.015625)"/>
       </defs>
       <use xlink:href="#DejaVuSans-15"/>
       <use xlink:href="#DejaVuSans-13" transform="translate(63.625 0)"/>
       <use xlink:href="#DejaVuSans-13" transform="translate(127.25 0)"/>
      </g>
     </g>
    </g>
    <g id="xtick_22">
     <g id="line2d_30">
      <g>
       <use xlink:href="#m602eeb167c" x="152.655637" y="294.198739" style="stroke: #000000; stroke-width: 0.8"/>
      </g>
     </g>
     <g id="text_12">
      <!-- 300 -->
      <g transform="translate(143.111887 308.796395) scale(0.1 -0.1)">
       <defs>
        <path id="DejaVuSans-16" d="M 2597 2516 
Q 3050 2419 3304 2112 
Q 3559 1806 3559 1356 
Q 3559 666 3084 287 
Q 2609 -91 1734 -91 
Q 1441 -91 1130 -33 
Q 819 25 488 141 
L 488 750 
Q 750 597 1062 519 
Q 1375 441 1716 441 
Q 2309 441 2620 675 
Q 2931 909 2931 1356 
Q 2931 1769 2642 2001 
Q 2353 2234 1838 2234 
L 1294 2234 
L 1294 2753 
L 1863 2753 
Q 2328 2753 2575 2939 
Q 2822 3125 2822 3475 
Q 2822 3834 2567 4026 
Q 2313 4219 1838 4219 
Q 1578 4219 1281 4162 
Q 984 4106 628 3988 
L 628 4550 
Q 988 4650 1302 4700 
Q 1616 4750 1894 4750 
Q 2613 4750 3031 4423 
Q 3450 4097 3450 3541 
Q 3450 3153 3228 2886 
Q 3006 2619 2597 2516 
z
" transform="scale(0.015625)"/>
       </defs>
       <use xlink:href="#DejaVuSans-16"/>
       <use xlink:href="#DejaVuSans-13" transform="translate(63.625 0)"/>
       <use xlink:href="#DejaVuSans-13" transform="translate(127.25 0)"/>
      </g>
     </g>
    </g>
    <g id="xtick_23">
     <g id="line2d_31">
      <g>
       <use xlink:href="#m602eeb167c" x="184.580523" y="294.198739" style="stroke: #000000; stroke-width: 0.8"/>
      </g>
     </g>
     <g id="text_13">
      <!-- 400 -->
      <g transform="translate(175.036773 308.796395) scale(0.1 -0.1)">
       <defs>
        <path id="DejaVuSans-17" d="M 2419 4116 
L 825 1625 
L 2419 1625 
L 2419 4116 
z
M 2253 4666 
L 3047 4666 
L 3047 1625 
L 3713 1625 
L 3713 1100 
L 3047 1100 
L 3047 0 
L 2419 0 
L 2419 1100 
L 313 1100 
L 313 1709 
L 2253 4666 
z
" transform="scale(0.015625)"/>
       </defs>
       <use xlink:href="#DejaVuSans-17"/>
       <use xlink:href="#DejaVuSans-13" transform="translate(63.625 0)"/>
       <use xlink:href="#DejaVuSans-13" transform="translate(127.25 0)"/>
      </g>
     </g>
    </g>
    <g id="xtick_24">
     <g id="line2d_32">
      <g>
       <use xlink:href="#m602eeb167c" x="216.505409" y="294.198739" style="stroke: #000000; stroke-width: 0.8"/>
      </g>
     </g>
     <g id="text_14">
      <!-- 500 -->
      <g transform="translate(206.961659 308.796395) scale(0.1 -0.1)">
       <use xlink:href="#DejaVuSans-18"/>
       <use xlink:href="#DejaVuSans-13" transform="translate(63.625 0)"/>
       <use xlink:href="#DejaVuSans-13" transform="translate(127.25 0)"/>
      </g>
     </g>
    </g>
    <g id="xtick_25">
     <g id="line2d_33">
      <g>
       <use xlink:href="#m602eeb167c" x="248.430295" y="294.198739" style="stroke: #000000; stroke-width: 0.8"/>
      </g>
     </g>
     <g id="text_15">
      <!-- 600 -->
      <g transform="translate(238.886545 308.796395) scale(0.1 -0.1)">
       <defs>
        <path id="DejaVuSans-19" d="M 2113 2584 
Q 1688 2584 1439 2293 
Q 1191 2003 1191 1497 
Q 1191 994 1439 701 
Q 1688 409 2113 409 
Q 2538 409 2786 701 
Q 3034 994 3034 1497 
Q 3034 2003 2786 2293 
Q 2538 2584 2113 2584 
z
M 3366 4563 
L 3366 3988 
Q 3128 4100 2886 4159 
Q 2644 4219 2406 4219 
Q 1781 4219 1451 3797 
Q 1122 3375 1075 2522 
Q 1259 2794 1537 2939 
Q 1816 3084 2150 3084 
Q 2853 3084 3261 2657 
Q 3669 2231 3669 1497 
Q 3669 778 3244 343 
Q 2819 -91 2113 -91 
Q 1303 -91 875 529 
Q 447 1150 447 2328 
Q 447 3434 972 4092 
Q 1497 4750 2381 4750 
Q 2619 4750 2861 4703 
Q 3103 4656 3366 4563 
z
" transform="scale(0.015625)"/>
       </defs>
       <use xlink:href="#DejaVuSans-19"/>
       <use xlink:href="#DejaVuSans-13" transform="translate(63.625 0)"/>
       <use xlink:href="#DejaVuSans-13" transform="translate(127.25 0)"/>
      </g>
     </g>
    </g>
    <g id="xtick_26">
     <g id="line2d_34">
      <g>
       <use xlink:href="#m602eeb167c" x="280.35518" y="294.198739" style="stroke: #000000; stroke-width: 0.8"/>
      </g>
     </g>
     <g id="text_16">
      <!-- 700 -->
      <g transform="translate(270.81143 308.796395) scale(0.1 -0.1)">
       <defs>
        <path id="DejaVuSans-1a" d="M 525 4666 
L 3525 4666 
L 3525 4397 
L 1831 0 
L 1172 0 
L 2766 4134 
L 525 4134 
L 525 4666 
z
" transform="scale(0.015625)"/>
       </defs>
       <use xlink:href="#DejaVuSans-1a"/>
       <use xlink:href="#DejaVuSans-13" transform="translate(63.625 0)"/>
       <use xlink:href="#DejaVuSans-13" transform="translate(127.25 0)"/>
      </g>
     </g>
    </g>
    <g id="xtick_27">
     <g id="line2d_35">
      <g>
       <use xlink:href="#m602eeb167c" x="312.280066" y="294.198739" style="stroke: #000000; stroke-width: 0.8"/>
      </g>
     </g>
     <g id="text_17">
      <!-- 800 -->
      <g transform="translate(302.736316 308.796395) scale(0.1 -0.1)">
       <defs>
        <path id="DejaVuSans-1b" d="M 2034 2216 
Q 1584 2216 1326 1975 
Q 1069 1734 1069 1313 
Q 1069 891 1326 650 
Q 1584 409 2034 409 
Q 2484 409 2743 651 
Q 3003 894 3003 1313 
Q 3003 1734 2745 1975 
Q 2488 2216 2034 2216 
z
M 1403 2484 
Q 997 2584 770 2862 
Q 544 3141 544 3541 
Q 544 4100 942 4425 
Q 1341 4750 2034 4750 
Q 2731 4750 3128 4425 
Q 3525 4100 3525 3541 
Q 3525 3141 3298 2862 
Q 3072 2584 2669 2484 
Q 3125 2378 3379 2068 
Q 3634 1759 3634 1313 
Q 3634 634 3220 271 
Q 2806 -91 2034 -91 
Q 1263 -91 848 271 
Q 434 634 434 1313 
Q 434 1759 690 2068 
Q 947 2378 1403 2484 
z
M 1172 3481 
Q 1172 3119 1398 2916 
Q 1625 2713 2034 2713 
Q 2441 2713 2670 2916 
Q 2900 3119 2900 3481 
Q 2900 3844 2670 4047 
Q 2441 4250 2034 4250 
Q 1625 4250 1398 4047 
Q 1172 3844 1172 3481 
z
" transform="scale(0.015625)"/>
       </defs>
       <use xlink:href="#DejaVuSans-1b"/>
       <use xlink:href="#DejaVuSans-13" transform="translate(63.625 0)"/>
       <use xlink:href="#DejaVuSans-13" transform="translate(127.25 0)"/>
      </g>
     </g>
    </g>
    <g id="text_18">
     <!-- Time -->
     <g transform="translate(172.415776 322.797176) scale(0.1 -0.1)">
      <defs>
       <path id="DejaVuSans-37" d="M -19 4666 
L 3928 4666 
L 3928 4134 
L 2272 4134 
L 2272 0 
L 1638 0 
L 1638 4134 
L -19 4134 
L -19 4666 
z
" transform="scale(0.015625)"/>
       <path id="DejaVuSans-4c" d="M 603 3500 
L 1178 3500 
L 1178 0 
L 603 0 
L 603 3500 
z
M 603 4863 
L 1178 4863 
L 1178 4134 
L 603 4134 
L 603 4863 
z
" transform="scale(0.015625)"/>
       <path id="DejaVuSans-50" d="M 3328 2828 
Q 3544 3216 3844 3400 
Q 4144 3584 4550 3584 
Q 5097 3584 5394 3201 
Q 5691 2819 5691 2113 
L 5691 0 
L 5113 0 
L 5113 2094 
Q 5113 2597 4934 2840 
Q 4756 3084 4391 3084 
Q 3944 3084 3684 2787 
Q 3425 2491 3425 1978 
L 3425 0 
L 2847 0 
L 2847 2094 
Q 2847 2600 2669 2842 
Q 2491 3084 2119 3084 
Q 1678 3084 1418 2786 
Q 1159 2488 1159 1978 
L 1159 0 
L 581 0 
L 581 3500 
L 1159 3500 
L 1159 2956 
Q 1356 3278 1631 3431 
Q 1906 3584 2284 3584 
Q 2666 3584 2933 3390 
Q 3200 3197 3328 2828 
z
" transform="scale(0.015625)"/>
      </defs>
      <use xlink:href="#DejaVuSans-37"/>
      <use xlink:href="#DejaVuSans-4c" transform="translate(58 0)"/>
      <use xlink:href="#DejaVuSans-50" transform="translate(85.78125 0)"/>
      <use xlink:href="#DejaVuSans-48" transform="translate(183.1875 0)"/>
     </g>
    </g>
   </g>
   <g id="matplotlib.axis_6">
    <g id="ytick_7">
     <g id="line2d_36">
      <g>
       <use xlink:href="#mbdcf0b7127" x="44.103906" y="290.138166" style="stroke: #000000; stroke-width: 0.8"/>
      </g>
     </g>
     <g id="text_19">
      <!-- 0.0 -->
      <g transform="translate(21.200781 293.936994) scale(0.1 -0.1)">
       <defs>
        <path id="DejaVuSans-11" d="M 684 794 
L 1344 794 
L 1344 0 
L 684 0 
L 684 794 
z
" transform="scale(0.015625)"/>
       </defs>
       <use xlink:href="#DejaVuSans-13"/>
       <use xlink:href="#DejaVuSans-11" transform="translate(63.625 0)"/>
       <use xlink:href="#DejaVuSans-13" transform="translate(95.40625 0)"/>
      </g>
     </g>
    </g>
    <g id="ytick_8">
     <g id="line2d_37">
      <g>
       <use xlink:href="#mbdcf0b7127" x="44.103906" y="249.532442" style="stroke: #000000; stroke-width: 0.8"/>
      </g>
     </g>
     <g id="text_20">
      <!-- 0.5 -->
      <g transform="translate(21.200781 253.33127) scale(0.1 -0.1)">
       <use xlink:href="#DejaVuSans-13"/>
       <use xlink:href="#DejaVuSans-11" transform="translate(63.625 0)"/>
       <use xlink:href="#DejaVuSans-18" transform="translate(95.40625 0)"/>
      </g>
     </g>
    </g>
    <g id="ytick_9">
     <g id="line2d_38">
      <g>
       <use xlink:href="#mbdcf0b7127" x="44.103906" y="208.926718" style="stroke: #000000; stroke-width: 0.8"/>
      </g>
     </g>
     <g id="text_21">
      <!-- 1.0 -->
      <g transform="translate(21.200781 212.725546) scale(0.1 -0.1)">
       <use xlink:href="#DejaVuSans-14"/>
       <use xlink:href="#DejaVuSans-11" transform="translate(63.625 0)"/>
       <use xlink:href="#DejaVuSans-13" transform="translate(95.40625 0)"/>
      </g>
     </g>
    </g>
    <g id="text_22">
     <!-- Free lac operon -->
     <g transform="translate(14.798438 288.006661) rotate(-90) scale(0.1 -0.1)">
      <defs>
       <path id="DejaVuSans-29" d="M 628 4666 
L 3309 4666 
L 3309 4134 
L 1259 4134 
L 1259 2759 
L 3109 2759 
L 3109 2228 
L 1259 2228 
L 1259 0 
L 628 0 
L 628 4666 
z
" transform="scale(0.015625)"/>
       <path id="DejaVuSans-53" d="M 1159 525 
L 1159 -1331 
L 581 -1331 
L 581 3500 
L 1159 3500 
L 1159 2969 
Q 1341 3281 1617 3432 
Q 1894 3584 2278 3584 
Q 2916 3584 3314 3078 
Q 3713 2572 3713 1747 
Q 3713 922 3314 415 
Q 2916 -91 2278 -91 
Q 1894 -91 1617 61 
Q 1341 213 1159 525 
z
M 3116 1747 
Q 3116 2381 2855 2742 
Q 2594 3103 2138 3103 
Q 1681 3103 1420 2742 
Q 1159 2381 1159 1747 
Q 1159 1113 1420 752 
Q 1681 391 2138 391 
Q 2594 391 2855 752 
Q 3116 1113 3116 1747 
z
" transform="scale(0.015625)"/>
       <path id="DejaVuSans-51" d="M 3513 2113 
L 3513 0 
L 2938 0 
L 2938 2094 
Q 2938 2591 2744 2837 
Q 2550 3084 2163 3084 
Q 1697 3084 1428 2787 
Q 1159 2491 1159 1978 
L 1159 0 
L 581 0 
L 581 3500 
L 1159 3500 
L 1159 2956 
Q 1366 3272 1645 3428 
Q 1925 3584 2291 3584 
Q 2894 3584 3203 3211 
Q 3513 2838 3513 2113 
z
" transform="scale(0.015625)"/>
      </defs>
      <use xlink:href="#DejaVuSans-29"/>
      <use xlink:href="#DejaVuSans-55" transform="translate(50.234375 0)"/>
      <use xlink:href="#DejaVuSans-48" transform="translate(89.140625 0)"/>
      <use xlink:href="#DejaVuSans-48" transform="translate(150.671875 0)"/>
      <use xlink:href="#DejaVuSans-3" transform="translate(212.203125 0)"/>
      <use xlink:href="#DejaVuSans-4f" transform="translate(243.984375 0)"/>
      <use xlink:href="#DejaVuSans-44" transform="translate(271.765625 0)"/>
      <use xlink:href="#DejaVuSans-46" transform="translate(333.046875 0)"/>
      <use xlink:href="#DejaVuSans-3" transform="translate(388.03125 0)"/>
      <use xlink:href="#DejaVuSans-52" transform="translate(419.8125 0)"/>
      <use xlink:href="#DejaVuSans-53" transform="translate(481 0)"/>
      <use xlink:href="#DejaVuSans-48" transform="translate(544.484375 0)"/>
      <use xlink:href="#DejaVuSans-55" transform="translate(606.015625 0)"/>
      <use xlink:href="#DejaVuSans-52" transform="translate(644.921875 0)"/>
      <use xlink:href="#DejaVuSans-51" transform="translate(706.109375 0)"/>
     </g>
    </g>
   </g>
   <g id="line2d_39">
    <path d="M 56.88098 208.926718 
L 56.962632 290.138166 
L 57.131205 290.138166 
L 57.301072 208.926718 
L 57.419439 208.926718 
L 57.521743 290.138166 
L 58.74008 290.138166 
L 59.731601 208.926718 
L 59.918259 208.926718 
L 59.941043 290.138166 
L 62.366592 290.138166 
L 64.965508 208.926718 
L 65.260904 208.926718 
L 65.398581 290.138166 
L 65.524667 290.138166 
L 72.198382 208.926718 
L 72.368459 290.138166 
L 80.221328 208.926718 
L 80.270448 290.138166 
L 82.901362 208.926718 
L 83.041588 208.926718 
L 83.095842 290.138166 
L 84.839121 290.138166 
L 84.904665 208.926718 
L 85.782438 208.926718 
L 85.972736 290.138166 
L 87.007323 290.138166 
L 90.004979 208.926718 
L 90.545896 208.926718 
L 90.575224 290.138166 
L 90.933736 290.138166 
L 91.816616 208.926718 
L 91.875161 290.138166 
L 92.219583 290.138166 
L 109.323231 208.926718 
L 109.336956 290.138166 
L 109.595855 290.138166 
L 109.872448 208.926718 
L 110.160286 290.138166 
L 110.28857 208.926718 
L 110.697005 208.926718 
L 110.901932 290.138166 
L 111.195064 290.138166 
L 115.364187 208.926718 
L 116.025918 290.138166 
L 117.6707 208.926718 
L 117.986459 290.138166 
L 118.660007 208.926718 
L 118.747477 290.138166 
L 119.758523 208.926718 
L 119.843574 290.138166 
L 123.792986 290.138166 
L 129.821881 208.926718 
L 129.928005 290.138166 
L 131.673185 208.926718 
L 132.12473 208.926718 
L 132.146207 290.138166 
L 133.989569 290.138166 
L 136.589542 208.926718 
L 136.602871 290.138166 
L 139.488736 208.926718 
L 139.531539 290.138166 
L 146.586589 208.926718 
L 147.532488 208.926718 
L 147.600914 290.138166 
L 148.218368 290.138166 
L 148.463809 208.926718 
L 148.779213 208.926718 
L 148.892147 290.138166 
L 149.964539 290.138166 
L 150.476821 208.926718 
L 150.577741 290.138166 
L 151.700703 290.138166 
L 151.712042 208.926718 
L 151.873848 290.138166 
L 156.189515 208.926718 
L 156.278597 290.138166 
L 156.52833 208.926718 
L 199.340722 208.926718 
L 199.362001 290.138166 
L 204.145749 290.138166 
L 204.467333 208.926718 
L 218.263135 208.926718 
L 218.360292 290.138166 
L 218.953483 290.138166 
L 219.38994 208.926718 
L 219.535158 290.138166 
L 221.650169 290.138166 
L 222.643056 208.926718 
L 227.924506 208.926718 
L 228.244761 290.138166 
L 234.351617 208.926718 
L 234.592941 290.138166 
L 239.051511 208.926718 
L 239.072025 290.138166 
L 240.952942 208.926718 
L 242.808387 208.926718 
L 242.921308 290.138166 
L 243.682622 290.138166 
L 245.553627 208.926718 
L 245.59075 290.138166 
L 245.614704 208.926718 
L 245.927421 290.138166 
L 249.35779 208.926718 
L 249.600251 290.138166 
L 249.942077 208.926718 
L 249.965274 290.138166 
L 250.610513 290.138166 
L 252.646338 208.926718 
L 252.786811 290.138166 
L 255.47695 208.926718 
L 255.485293 290.138166 
L 258.66297 208.926718 
L 259.694319 208.926718 
L 259.715959 290.138166 
L 260.365068 290.138166 
L 260.603651 208.926718 
L 260.71871 290.138166 
L 261.011115 290.138166 
L 266.911221 208.926718 
L 266.933663 290.138166 
L 270.900848 208.926718 
L 271.524318 208.926718 
L 271.679544 290.138166 
L 276.095764 208.926718 
L 276.117828 290.138166 
L 279.175143 208.926718 
L 279.211249 290.138166 
L 279.223084 208.926718 
L 279.445991 208.926718 
L 279.613597 290.138166 
L 280.125029 208.926718 
L 280.157429 290.138166 
L 280.378779 290.138166 
L 280.531383 208.926718 
L 280.58107 290.138166 
L 284.321455 208.926718 
L 284.804134 208.926718 
L 284.813809 290.138166 
L 285.60107 290.138166 
L 285.618397 208.926718 
L 285.736371 208.926718 
L 286.122496 290.138166 
L 287.225452 208.926718 
L 287.348455 208.926718 
L 287.378148 290.138166 
L 287.955393 290.138166 
L 288.239801 208.926718 
L 288.464212 290.138166 
L 291.955551 208.926718 
L 292.179093 290.138166 
L 293.005968 208.926718 
L 293.091116 290.138166 
L 295.05092 208.926718 
L 295.303579 290.138166 
L 295.401635 208.926718 
L 295.783024 290.138166 
L 295.855568 208.926718 
L 297.608714 208.926718 
L 297.82783 290.138166 
L 298.703904 290.138166 
L 311.702562 208.926718 
L 312.422447 208.926718 
L 312.422447 208.926718 
" clip-path="url(#p29ae62b72f)" style="fill: none; stroke: #000000; stroke-width: 1.5; stroke-linecap: square"/>
   </g>
   <g id="patch_13">
    <path d="M 44.103906 294.198739 
L 44.103906 204.866146 
" style="fill: none; stroke: #000000; stroke-width: 0.8; stroke-linejoin: miter; stroke-linecap: square"/>
   </g>
   <g id="patch_14">
    <path d="M 325.19952 294.198739 
L 325.19952 204.866146 
" style="fill: none; stroke: #000000; stroke-width: 0.8; stroke-linejoin: miter; stroke-linecap: square"/>
   </g>
   <g id="patch_15">
    <path d="M 44.103906 294.198739 
L 325.19952 294.198739 
" style="fill: none; stroke: #000000; stroke-width: 0.8; stroke-linejoin: miter; stroke-linecap: square"/>
   </g>
   <g id="patch_16">
    <path d="M 44.103906 204.866146 
L 325.19952 204.866146 
" style="fill: none; stroke: #000000; stroke-width: 0.8; stroke-linejoin: miter; stroke-linecap: square"/>
   </g>
  </g>
 </g>
 <defs>
  <clipPath id="pa5615c45ae">
   <rect x="44.103906" y="7.2" width="281.095614" height="89.332593"/>
  </clipPath>
  <clipPath id="p475add2957">
   <rect x="44.103906" y="106.033073" width="281.095614" height="89.332593"/>
  </clipPath>
  <clipPath id="p29ae62b72f">
   <rect x="44.103906" y="204.866146" width="281.095614" height="89.332593"/>
  </clipPath>
 </defs>
</svg>
