<?xml version="1.0" encoding="utf-8" standalone="no"?>
<!DOCTYPE svg PUBLIC "-//W3C//DTD SVG 1.1//EN"
  "http://www.w3.org/Graphics/SVG/1.1/DTD/svg11.dtd">
<svg xmlns:xlink="http://www.w3.org/1999/xlink" width="332.39952pt" height="332.39952pt" viewBox="0 0 332.39952 332.39952" xmlns="http://www.w3.org/2000/svg" version="1.1">
 <metadata>
  <rdf:RDF xmlns:dc="http://purl.org/dc/elements/1.1/" xmlns:cc="http://creativecommons.org/ns#" xmlns:rdf="http://www.w3.org/1999/02/22-rdf-syntax-ns#">
   <cc:Work>
    <dc:type rdf:resource="http://purl.org/dc/dcmitype/StillImage"/>
    <dc:date>2026-07-15T14:24:54.183704</dc:date>
    <dc:format>image/svg+xml</dc:format>
    <dc:creator>
     <cc:Agent>
      <dc:title>Matplotlib v3.11.0, https://matplotlib.org/</dc:title>
     </cc:Agent>
    </dc:creator>
   </cc:Work>
  </rdf:RDF>
 </metadata>
 <defs>
  <style type="text/css">*{stroke-linejoin: round; stroke-linecap: butt}</style>
 </defs>
 <g id="figure_1">
  <g id="patch_1">
   <path d="M 0 332.39952 
L 332.39952 332.39952 
L 332.39952 0 
L 0 0 
z
" style="fill: #ffffff"/>
  </g>
  <g id="axes_1">
   <g id="patch_2">
    <path d="M 44.103906 96.532593 
L 325.19952 96.532593 
L 325.19952 7.2 
L 44.103906 7.2 
z
" style="fill: #ffffff"/>
   </g>
   <g id="matplotlib.axis_1">
    <g id="xtick_1">
     <g id="line2d_1">
      <defs>
       <path id="m8efe72d727" d="M 0 0 
L 0 3.5 
" style="stroke: #000000; stroke-width: 0.8"/>
      </defs>
      <g>
       <use xlink:href="#m8efe72d727" x="56.88098" y="96.532593" style="stroke: #000000; stroke-width: 0.8"/>
      </g>
     </g>
    </g>
    <g id="xtick_2">
     <g id="line2d_2">
      <g>
       <use xlink:href="#m8efe72d727" x="117.700215" y="96.532593" style="stroke: #000000; stroke-width: 0.8"/>
      </g>
     </g>
    </g>
    <g id="xtick_3">
     <g id="line2d_3">
      <g>
       <use xlink:href="#m8efe72d727" x="178.519451" y="96.532593" style="stroke: #000000; stroke-width: 0.8"/>
      </g>
     </g>
    </g>
    <g id="xtick_4">
     <g id="line2d_4">
      <g>
       <use xlink:href="#m8efe72d727" x="239.338686" y="96.532593" style="stroke: #000000; stroke-width: 0.8"/>
      </g>
     </g>
    </g>
    <g id="xtick_5">
     <g id="line2d_5">
      <g>
       <use xlink:href="#m8efe72d727" x="300.157922" y="96.532593" style="stroke: #000000; stroke-width: 0.8"/>
      </g>
     </g>
    </g>
   </g>
   <g id="matplotlib.axis_2">
    <g id="ytick_1">
     <g id="line2d_6">
      <defs>
       <path id="m83d4a31384" d="M 0 0 
L -3.5 0 
" style="stroke: #000000; stroke-width: 0.8"/>
      </defs>
      <g>
       <use xlink:href="#m83d4a31384" x="44.103906" y="92.472021" style="stroke: #000000; stroke-width: 0.8"/>
      </g>
     </g>
     <g id="text_1">
      <!-- 0 -->
      <g transform="translate(30.741406 96.270849) scale(0.1 -0.1)">
       <defs>
        <path id="DejaVuSans-13" d="M 2034 4250 
Q 1547 4250 1301 3770 
Q 1056 3291 1056 2328 
Q 1056 1369 1301 889 
Q 1547 409 2034 409 
Q 2525 409 2770 889 
Q 3016 1369 3016 2328 
Q 3016 3291 2770 3770 
Q 2525 4250 2034 4250 
z
M 2034 4750 
Q 2819 4750 3233 4129 
Q 3647 3509 3647 2328 
Q 3647 1150 3233 529 
Q 2819 -91 2034 -91 
Q 1250 -91 836 529 
Q 422 1150 422 2328 
Q 422 3509 836 4129 
Q 1250 4750 2034 4750 
z
" transform="scale(0.015625)"/>
       </defs>
       <use xlink:href="#DejaVuSans-13"/>
      </g>
     </g>
    </g>
    <g id="ytick_2">
     <g id="line2d_7">
      <g>
       <use xlink:href="#m83d4a31384" x="44.103906" y="51.866296" style="stroke: #000000; stroke-width: 0.8"/>
      </g>
     </g>
     <g id="text_2">
      <!-- 5 -->
      <g transform="translate(30.741406 55.665125) scale(0.1 -0.1)">
       <defs>
        <path id="DejaVuSans-18" d="M 691 4666 
L 3169 4666 
L 3169 4134 
L 1269 4134 
L 1269 2991 
Q 1406 3038 1543 3061 
Q 1681 3084 1819 3084 
Q 2600 3084 3056 2656 
Q 3513 2228 3513 1497 
Q 3513 744 3044 326 
Q 2575 -91 1722 -91 
Q 1428 -91 1123 -41 
Q 819 9 494 109 
L 494 744 
Q 775 591 1075 516 
Q 1375 441 1709 441 
Q 2250 441 2565 725 
Q 2881 1009 2881 1497 
Q 2881 1984 2565 2268 
Q 2250 2553 1709 2553 
Q 1456 2553 1204 2497 
Q 953 2441 691 2322 
L 691 4666 
z
" transform="scale(0.015625)"/>
       </defs>
       <use xlink:href="#DejaVuSans-18"/>
      </g>
     </g>
    </g>
    <g id="ytick_3">
     <g id="line2d_8">
      <g>
       <use xlink:href="#m83d4a31384" x="44.103906" y="11.260572" style="stroke: #000000; stroke-width: 0.8"/>
      </g>
     </g>
     <g id="text_3">
      <!-- 10 -->
      <g transform="translate(24.378906 15.059401) scale(0.1 -0.1)">
       <defs>
        <path id="DejaVuSans-14" d="M 794 531 
L 1825 531 
L 1825 4091 
L 703 3866 
L 703 4441 
L 1819 4666 
L 2450 4666 
L 2450 531 
L 3481 531 
L 3481 0 
L 794 0 
L 794 531 
z
" transform="scale(0.015625)"/>
       </defs>
       <use xlink:href="#DejaVuSans-14"/>
       <use xlink:href="#DejaVuSans-13" transform="translate(63.625 0)"/>
      </g>
     </g>
    </g>
    <g id="text_4">
     <!-- Extracellular lactose -->
     <g transform="translate(17.976563 102.838171) rotate(-90) scale(0.1 -0.1)">
      <defs>
       <path id="DejaVuSans-28" d="M 628 4666 
L 3578 4666 
L 3578 4134 
L 1259 4134 
L 1259 2753 
L 3481 2753 
L 3481 2222 
L 1259 2222 
L 1259 531 
L 3634 531 
L 3634 0 
L 628 0 
L 628 4666 
z
" transform="scale(0.015625)"/>
       <path id="DejaVuSans-5b" d="M 3513 3500 
L 2247 1797 
L 3578 0 
L 2900 0 
L 1881 1375 
L 863 0 
L 184 0 
L 1544 1831 
L 300 3500 
L 978 3500 
L 1906 2253 
L 2834 3500 
L 3513 3500 
z
" transform="scale(0.015625)"/>
       <path id="DejaVuSans-57" d="M 1172 4494 
L 1172 3500 
L 2356 3500 
L 2356 3053 
L 1172 3053 
L 1172 1153 
Q 1172 725 1289 603 
Q 1406 481 1766 481 
L 2356 481 
L 2356 0 
L 1766 0 
Q 1100 0 847 248 
Q 594 497 594 1153 
L 594 3053 
L 172 3053 
L 172 3500 
L 594 3500 
L 594 4494 
L 1172 4494 
z
" transform="scale(0.015625)"/>
       <path id="DejaVuSans-55" d="M 2631 2963 
Q 2534 3019 2420 3045 
Q 2306 3072 2169 3072 
Q 1681 3072 1420 2755 
Q 1159 2438 1159 1844 
L 1159 0 
L 581 0 
L 581 3500 
L 1159 3500 
L 1159 2956 
Q 1341 3275 1631 3429 
Q 1922 3584 2338 3584 
Q 2397 3584 2469 3576 
Q 2541 3569 2628 3553 
L 2631 2963 
z
" transform="scale(0.015625)"/>
       <path id="DejaVuSans-44" d="M 2194 1759 
Q 1497 1759 1228 1600 
Q 959 1441 959 1056 
Q 959 750 1161 570 
Q 1363 391 1709 391 
Q 2188 391 2477 730 
Q 2766 1069 2766 1631 
L 2766 1759 
L 2194 1759 
z
M 3341 1997 
L 3341 0 
L 2766 0 
L 2766 531 
Q 2569 213 2275 61 
Q 1981 -91 1556 -91 
Q 1019 -91 701 211 
Q 384 513 384 1019 
Q 384 1609 779 1909 
Q 1175 2209 1959 2209 
L 2766 2209 
L 2766 2266 
Q 2766 2663 2505 2880 
Q 2244 3097 1772 3097 
Q 1472 3097 1187 3025 
Q 903 2953 641 2809 
L 641 3341 
Q 956 3463 1253 3523 
Q 1550 3584 1831 3584 
Q 2591 3584 2966 3190 
Q 3341 2797 3341 1997 
z
" transform="scale(0.015625)"/>
       <path id="DejaVuSans-46" d="M 3122 3366 
L 3122 2828 
Q 2878 2963 2633 3030 
Q 2388 3097 2138 3097 
Q 1578 3097 1268 2742 
Q 959 2388 959 1747 
Q 959 1106 1268 751 
Q 1578 397 2138 397 
Q 2388 397 2633 464 
Q 2878 531 3122 666 
L 3122 134 
Q 2881 22 2623 -34 
Q 2366 -91 2075 -91 
Q 1284 -91 818 406 
Q 353 903 353 1747 
Q 353 2603 823 3093 
Q 1294 3584 2113 3584 
Q 2378 3584 2631 3529 
Q 2884 3475 3122 3366 
z
" transform="scale(0.015625)"/>
       <path id="DejaVuSans-48" d="M 3597 1894 
L 3597 1613 
L 953 1613 
Q 991 1019 1311 708 
Q 1631 397 2203 397 
Q 2534 397 2845 478 
Q 3156 559 3463 722 
L 3463 178 
Q 3153 47 2828 -22 
Q 2503 -91 2169 -91 
Q 1331 -91 842 396 
Q 353 884 353 1716 
Q 353 2575 817 3079 
Q 1281 3584 2069 3584 
Q 2775 3584 3186 3129 
Q 3597 2675 3597 1894 
z
M 3022 2063 
Q 3016 2534 2758 2815 
Q 2500 3097 2075 3097 
Q 1594 3097 1305 2825 
Q 1016 2553 972 2059 
L 3022 2063 
z
" transform="scale(0.015625)"/>
       <path id="DejaVuSans-4f" d="M 603 4863 
L 1178 4863 
L 1178 0 
L 603 0 
L 603 4863 
z
" transform="scale(0.015625)"/>
       <path id="DejaVuSans-58" d="M 544 1381 
L 544 3500 
L 1119 3500 
L 1119 1403 
Q 1119 906 1312 657 
Q 1506 409 1894 409 
Q 2359 409 2629 706 
Q 2900 1003 2900 1516 
L 2900 3500 
L 3475 3500 
L 3475 0 
L 2900 0 
L 2900 538 
Q 2691 219 2414 64 
Q 2138 -91 1772 -91 
Q 1169 -91 856 284 
Q 544 659 544 1381 
z
M 1991 3584 
L 1991 3584 
z
" transform="scale(0.015625)"/>
       <path id="DejaVuSans-3" transform="scale(0.015625)"/>
       <path id="DejaVuSans-52" d="M 1959 3097 
Q 1497 3097 1228 2736 
Q 959 2375 959 1747 
Q 959 1119 1226 758 
Q 1494 397 1959 397 
Q 2419 397 2687 759 
Q 2956 1122 2956 1747 
Q 2956 2369 2687 2733 
Q 2419 3097 1959 3097 
z
M 1959 3584 
Q 2709 3584 3137 3096 
Q 3566 2609 3566 1747 
Q 3566 888 3137 398 
Q 2709 -91 1959 -91 
Q 1206 -91 779 398 
Q 353 888 353 1747 
Q 353 2609 779 3096 
Q 1206 3584 1959 3584 
z
" transform="scale(0.015625)"/>
       <path id="DejaVuSans-56" d="M 2834 3397 
L 2834 2853 
Q 2591 2978 2328 3040 
Q 2066 3103 1784 3103 
Q 1356 3103 1142 2972 
Q 928 2841 928 2578 
Q 928 2378 1081 2264 
Q 1234 2150 1697 2047 
L 1894 2003 
Q 2506 1872 2764 1633 
Q 3022 1394 3022 966 
Q 3022 478 2636 193 
Q 2250 -91 1575 -91 
Q 1294 -91 989 -36 
Q 684 19 347 128 
L 347 722 
Q 666 556 975 473 
Q 1284 391 1588 391 
Q 1994 391 2212 530 
Q 2431 669 2431 922 
Q 2431 1156 2273 1281 
Q 2116 1406 1581 1522 
L 1381 1569 
Q 847 1681 609 1914 
Q 372 2147 372 2553 
Q 372 3047 722 3315 
Q 1072 3584 1716 3584 
Q 2034 3584 2315 3537 
Q 2597 3491 2834 3397 
z
" transform="scale(0.015625)"/>
      </defs>
      <use xlink:href="#DejaVuSans-28"/>
      <use xlink:href="#DejaVuSans-5b" transform="translate(63.1875 0)"/>
      <use xlink:href="#DejaVuSans-57" transform="translate(122.375 0)"/>
      <use xlink:href="#DejaVuSans-55" transform="translate(161.578125 0)"/>
      <use xlink:href="#DejaVuSans-44" transform="translate(202.6875 0)"/>
      <use xlink:href="#DejaVuSans-46" transform="translate(263.96875 0)"/>
      <use xlink:href="#DejaVuSans-48" transform="translate(318.953125 0)"/>
      <use xlink:href="#DejaVuSans-4f" transform="translate(380.484375 0)"/>
      <use xlink:href="#DejaVuSans-4f" transform="translate(408.265625 0)"/>
      <use xlink:href="#DejaVuSans-58" transform="translate(436.046875 0)"/>
      <use xlink:href="#DejaVuSans-4f" transform="translate(499.421875 0)"/>
      <use xlink:href="#DejaVuSans-44" transform="translate(527.203125 0)"/>
      <use xlink:href="#DejaVuSans-55" transform="translate(588.484375 0)"/>
      <use xlink:href="#DejaVuSans-3" transform="translate(629.59375 0)"/>
      <use xlink:href="#DejaVuSans-4f" transform="translate(661.375 0)"/>
      <use xlink:href="#DejaVuSans-44" transform="translate(689.15625 0)"/>
      <use xlink:href="#DejaVuSans-46" transform="translate(750.4375 0)"/>
      <use xlink:href="#DejaVuSans-57" transform="translate(805.421875 0)"/>
      <use xlink:href="#DejaVuSans-52" transform="translate(844.625 0)"/>
      <use xlink:href="#DejaVuSans-56" transform="translate(905.8125 0)"/>
      <use xlink:href="#DejaVuSans-48" transform="translate(957.90625 0)"/>
     </g>
    </g>
   </g>
   <g id="line2d_9">
    <path d="M 56.88098 92.472021 
L 151.475981 92.472021 
L 151.560834 11.260572 
L 152.197002 11.341784 
L 152.309083 11.66663 
L 152.351763 11.747841 
L 152.490993 13.209647 
L 152.608318 14.915088 
L 152.630216 14.996299 
L 152.757315 16.620528 
L 153.006454 18.97566 
L 153.021788 19.056871 
L 153.117454 19.787774 
L 153.158728 19.868986 
L 153.300351 20.275043 
L 153.393082 20.356255 
L 153.525297 20.599889 
L 153.581765 20.6811 
L 153.68574 20.762312 
L 154.11487 20.843523 
L 154.207115 21.249581 
L 154.436442 21.655638 
L 154.532118 22.061695 
L 154.646937 22.142906 
L 154.766691 22.630175 
L 154.773352 22.711387 
L 154.898763 23.767135 
L 154.917424 23.848347 
L 155.030718 24.822884 
L 155.180991 25.472576 
L 155.239394 25.553787 
L 156.056111 30.18284 
L 156.068199 30.264051 
L 156.176273 30.75132 
L 156.205186 30.832531 
L 156.349385 31.3198 
L 156.398845 31.401012 
L 156.513521 31.644646 
L 156.558558 31.725857 
L 156.646237 31.88828 
L 156.710207 31.969492 
L 156.819749 32.294337 
L 156.925054 32.375549 
L 157.03663 32.862818 
L 157.076873 32.944029 
L 157.715127 34.487047 
L 157.833786 34.568258 
L 157.990185 35.055527 
L 158.637716 35.136738 
L 158.741895 35.21795 
L 158.921899 35.299161 
L 159.267416 36.436121 
L 159.305238 36.517333 
L 159.442963 37.410659 
L 159.791098 37.49187 
L 159.979833 37.573082 
L 160.338858 37.654293 
L 160.453161 37.816716 
L 161.308104 37.897927 
L 161.741016 38.466408 
L 161.839653 38.547619 
L 162.200378 38.953676 
L 162.325419 39.684579 
L 162.449262 40.009425 
L 162.689513 40.171848 
L 163.121601 40.496694 
L 163.529305 40.577905 
L 163.634318 40.902751 
L 163.958684 40.983962 
L 164.066572 41.227597 
L 164.219655 41.9585 
L 164.30315 42.039711 
L 164.439995 42.851826 
L 164.459057 42.933037 
L 165.03367 47.318455 
L 165.318865 49.917222 
L 165.327016 49.998433 
L 165.433235 50.810548 
L 165.481191 50.891759 
L 165.6161 51.379028 
L 165.679112 51.460239 
L 165.919687 51.947508 
L 166.235186 52.028719 
L 166.388369 52.434777 
L 166.423326 52.515988 
L 166.557665 52.759622 
L 166.625454 52.840834 
L 166.779498 53.084468 
L 166.843505 53.16568 
L 166.981297 53.490525 
L 167.029489 53.571737 
L 167.464051 54.708697 
L 167.578173 55.033543 
L 167.664665 55.358389 
L 167.794925 56.901406 
L 167.80694 56.982618 
L 168.057129 59.743807 
L 168.541601 62.667419 
L 168.632511 62.748631 
L 168.77067 63.154688 
L 168.914167 63.235899 
L 169.052138 63.317111 
L 169.440699 63.398322 
L 169.534823 63.560745 
L 169.791368 64.048014 
L 169.897064 64.129225 
L 169.993614 64.291648 
L 170.096114 64.372859 
L 170.212048 64.94134 
L 170.235563 65.022551 
L 170.46637 66.240723 
L 170.479404 66.321934 
L 170.630007 67.296472 
L 170.792998 67.702529 
L 170.864582 67.78374 
L 170.983105 68.108586 
L 171.157377 68.758278 
L 171.16537 68.839489 
L 171.267757 69.164335 
L 171.326637 69.245546 
L 171.479489 70.138872 
L 171.504652 70.220084 
L 171.721866 71.194621 
L 171.766328 71.275833 
L 172.045633 72.331581 
L 172.120399 72.412793 
L 172.230449 72.737639 
L 172.418478 73.38733 
L 173.526688 73.468542 
L 173.682118 73.712176 
L 173.691899 73.793387 
L 173.89658 74.361868 
L 174.022976 74.443079 
L 174.175161 74.605502 
L 174.321832 74.686713 
L 174.481402 74.930348 
L 174.607061 75.011559 
L 174.837362 75.336405 
L 175.383015 75.417616 
L 175.488699 75.498828 
L 175.521286 75.580039 
L 175.586275 75.661251 
L 175.671574 75.742462 
L 175.753823 75.823674 
L 175.91668 75.904885 
L 176.00221 75.986097 
L 176.223851 76.067308 
L 176.365501 76.148519 
L 176.45914 76.229731 
L 176.53864 76.310942 
L 176.836778 76.392154 
L 176.917825 76.554577 
L 177.086715 76.635788 
L 177.166124 76.717 
L 177.563982 77.041845 
L 177.91537 77.123057 
L 177.967577 77.204268 
L 178.202424 77.447903 
L 178.333397 77.772748 
L 178.703492 77.85396 
L 178.798187 77.935171 
L 179.433303 78.584863 
L 179.650745 79.396977 
L 179.796201 79.478189 
L 179.873709 79.5594 
L 180.158204 79.640612 
L 180.275576 79.721823 
L 180.393092 79.803035 
L 180.491808 79.965458 
L 180.562621 80.046669 
L 180.814052 80.371515 
L 180.857401 80.452726 
L 180.991425 80.615149 
L 181.869751 81.264841 
L 181.949129 81.346052 
L 182.02341 81.670898 
L 182.167891 81.995744 
L 182.218451 82.076955 
L 182.374475 82.239378 
L 182.461874 82.320589 
L 182.630555 82.645435 
L 182.758941 82.726647 
L 182.935388 82.807858 
L 183.016312 82.88907 
L 183.500304 82.970281 
L 183.891314 83.376338 
L 183.991114 83.863607 
L 184.121741 83.944818 
L 184.223444 84.188453 
L 184.376393 84.269664 
L 184.521083 84.432087 
L 184.736384 84.756933 
L 185.019811 84.838144 
L 185.142678 85.000567 
L 185.857272 85.081779 
L 186.115424 85.325413 
L 187.970134 85.406625 
L 189.020282 85.812682 
L 189.786357 85.893893 
L 189.931177 85.975105 
L 190.20601 86.056316 
L 190.364215 86.137528 
L 190.434874 86.218739 
L 190.549637 86.381162 
L 190.755876 86.462373 
L 190.922854 86.543585 
L 191.104491 86.624796 
L 191.181348 86.787219 
L 191.387864 86.868431 
L 191.558693 86.949642 
L 191.956752 87.030853 
L 192.107544 87.193276 
L 192.328315 87.274488 
L 192.434324 87.355699 
L 193.090715 87.680545 
L 193.163 87.761757 
L 207.795033 87.842968 
L 207.817641 87.924179 
L 209.336285 88.005391 
L 210.920755 88.249025 
L 211.001436 88.411448 
L 211.188751 88.49266 
L 211.404981 88.573871 
L 212.095213 88.655082 
L 212.622373 88.736294 
L 219.843704 88.817505 
L 219.961371 89.06114 
L 227.196633 89.142351 
L 227.256903 89.223563 
L 227.467429 89.304774 
L 228.052467 89.385985 
L 228.069523 89.467197 
L 228.432263 89.548408 
L 228.598906 89.62962 
L 230.508256 89.710831 
L 230.767327 89.792043 
L 232.083595 89.873254 
L 232.275997 89.954466 
L 259.138241 90.035677 
L 259.292237 90.1981 
L 266.17206 90.279311 
L 266.265842 90.360523 
L 289.447644 90.441734 
L 291.066738 90.522946 
L 312.422447 90.522946 
L 312.422447 90.522946 
" clip-path="url(#p0d1790765d)" style="fill: none; stroke: #000000; stroke-width: 1.5; stroke-linecap: square"/>
   </g>
   <g id="patch_3">
    <path d="M 44.103906 96.532593 
L 44.103906 7.2 
" style="fill: none; stroke: #000000; stroke-width: 0.8; stroke-linejoin: miter; stroke-linecap: square"/>
   </g>
   <g id="patch_4">
    <path d="M 325.19952 96.532593 
L 325.19952 7.2 
" style="fill: none; stroke: #000000; stroke-width: 0.8; stroke-linejoin: miter; stroke-linecap: square"/>
   </g>
   <g id="patch_5">
    <path d="M 44.103906 96.532593 
L 325.19952 96.532593 
" style="fill: none; stroke: #000000; stroke-width: 0.8; stroke-linejoin: miter; stroke-linecap: square"/>
   </g>
   <g id="patch_6">
    <path d="M 44.103906 7.2 
L 325.19952 7.2 
" style="fill: none; stroke: #000000; stroke-width: 0.8; stroke-linejoin: miter; stroke-linecap: square"/>
   </g>
  </g>
  <g id="axes_2">
   <g id="patch_7">
    <path d="M 44.103906 195.365666 
L 325.19952 195.365666 
L 325.19952 106.033073 
L 44.103906 106.033073 
z
" style="fill: #ffffff"/>
   </g>
   <g id="matplotlib.axis_3">
    <g id="xtick_6">
     <g id="line2d_10">
      <g>
       <use xlink:href="#m8efe72d727" x="56.88098" y="195.365666" style="stroke: #000000; stroke-width: 0.8"/>
      </g>
     </g>
    </g>
    <g id="xtick_7">
     <g id="line2d_11">
      <g>
       <use xlink:href="#m8efe72d727" x="117.700215" y="195.365666" style="stroke: #000000; stroke-width: 0.8"/>
      </g>
     </g>
    </g>
    <g id="xtick_8">
     <g id="line2d_12">
      <g>
       <use xlink:href="#m8efe72d727" x="178.519451" y="195.365666" style="stroke: #000000; stroke-width: 0.8"/>
      </g>
     </g>
    </g>
    <g id="xtick_9">
     <g id="line2d_13">
      <g>
       <use xlink:href="#m8efe72d727" x="239.338686" y="195.365666" style="stroke: #000000; stroke-width: 0.8"/>
      </g>
     </g>
    </g>
    <g id="xtick_10">
     <g id="line2d_14">
      <g>
       <use xlink:href="#m8efe72d727" x="300.157922" y="195.365666" style="stroke: #000000; stroke-width: 0.8"/>
      </g>
     </g>
    </g>
   </g>
   <g id="matplotlib.axis_4">
    <g id="ytick_4">
     <g id="line2d_15">
      <g>
       <use xlink:href="#m83d4a31384" x="44.103906" y="191.305093" style="stroke: #000000; stroke-width: 0.8"/>
      </g>
     </g>
     <g id="text_5">
      <!-- 0 -->
      <g transform="translate(30.741406 195.103922) scale(0.1 -0.1)">
       <use xlink:href="#DejaVuSans-13"/>
      </g>
     </g>
    </g>
    <g id="ytick_5">
     <g id="line2d_16">
      <g>
       <use xlink:href="#m83d4a31384" x="44.103906" y="150.699369" style="stroke: #000000; stroke-width: 0.8"/>
      </g>
     </g>
     <g id="text_6">
      <!-- 5 -->
      <g transform="translate(30.741406 154.498197) scale(0.1 -0.1)">
       <use xlink:href="#DejaVuSans-18"/>
      </g>
     </g>
    </g>
    <g id="ytick_6">
     <g id="line2d_17">
      <g>
       <use xlink:href="#m83d4a31384" x="44.103906" y="110.093645" style="stroke: #000000; stroke-width: 0.8"/>
      </g>
     </g>
     <g id="text_7">
      <!-- 10 -->
      <g transform="translate(24.378906 113.892473) scale(0.1 -0.1)">
       <use xlink:href="#DejaVuSans-14"/>
       <use xlink:href="#DejaVuSans-13" transform="translate(63.625 0)"/>
      </g>
     </g>
    </g>
    <g id="text_8">
     <!-- LacY -->
     <g transform="translate(17.976563 162.352494) rotate(-90) scale(0.1 -0.1)">
      <defs>
       <path id="DejaVuSans-2f" d="M 628 4666 
L 1259 4666 
L 1259 531 
L 3531 531 
L 3531 0 
L 628 0 
L 628 4666 
z
" transform="scale(0.015625)"/>
       <path id="DejaVuSans-3c" d="M -13 4666 
L 666 4666 
L 1959 2747 
L 3244 4666 
L 3922 4666 
L 2272 2222 
L 2272 0 
L 1638 0 
L 1638 2222 
L -13 4666 
z
" transform="scale(0.015625)"/>
      </defs>
      <use xlink:href="#DejaVuSans-2f"/>
      <use xlink:href="#DejaVuSans-44" transform="translate(55.71875 0)"/>
      <use xlink:href="#DejaVuSans-46" transform="translate(117 0)"/>
      <use xlink:href="#DejaVuSans-3c" transform="translate(171.984375 0)"/>
     </g>
    </g>
   </g>
   <g id="line2d_18">
    <path d="M 56.88098 110.093645 
L 56.906829 110.093645 
L 57.033186 126.335935 
L 57.119328 142.578225 
L 57.26427 142.578225 
L 57.281133 134.45708 
L 57.49133 142.578225 
L 57.626513 142.578225 
L 57.789125 158.820514 
L 58.075852 175.062804 
L 58.138381 191.305093 
L 59.5963 191.305093 
L 59.755073 183.183949 
L 59.795801 191.305093 
L 64.581788 191.305093 
L 64.889531 183.183949 
L 64.994306 191.305093 
L 81.666342 191.305093 
L 81.851592 183.183949 
L 83.560435 191.305093 
L 83.574562 183.183949 
L 83.711023 175.062804 
L 83.715458 166.941659 
L 84.022445 175.062804 
L 84.238718 175.062804 
L 84.352716 191.305093 
L 84.410672 183.183949 
L 84.591939 183.183949 
L 84.723901 191.305093 
L 88.432797 191.305093 
L 88.804235 175.062804 
L 88.805475 166.941659 
L 89.280625 166.941659 
L 89.317472 183.183949 
L 90.053246 183.183949 
L 90.214214 175.062804 
L 90.542288 191.305093 
L 106.746491 191.305093 
L 106.84721 183.183949 
L 106.961279 183.183949 
L 107.093821 191.305093 
L 107.317754 191.305093 
L 107.357286 183.183949 
L 107.753657 183.183949 
L 108.087106 175.062804 
L 108.142706 183.183949 
L 108.30972 183.183949 
L 108.337906 191.305093 
L 116.68512 191.305093 
L 116.855147 183.183949 
L 118.856568 183.183949 
L 120.617106 191.305093 
L 128.019613 191.305093 
L 128.197115 183.183949 
L 128.471147 183.183949 
L 128.573853 191.305093 
L 132.705664 191.305093 
L 132.785454 183.183949 
L 132.806291 191.305093 
L 142.328843 191.305093 
L 142.577416 175.062804 
L 142.597268 183.183949 
L 142.624911 175.062804 
L 142.732701 166.941659 
L 142.737791 175.062804 
L 143.295025 175.062804 
L 143.883172 183.183949 
L 144.116964 183.183949 
L 144.417398 175.062804 
L 144.524971 175.062804 
L 145.546464 191.305093 
L 145.98499 191.305093 
L 146.034431 175.062804 
L 146.130561 175.062804 
L 146.276205 183.183949 
L 146.403635 183.183949 
L 146.921006 191.305093 
L 151.798714 191.305093 
L 152.206854 183.183949 
L 152.444634 150.699369 
L 152.704238 150.699369 
L 152.821952 166.941659 
L 152.86622 166.941659 
L 152.977876 158.820514 
L 153.045262 158.820514 
L 153.149905 175.062804 
L 153.176779 175.062804 
L 153.261274 183.183949 
L 153.596507 183.183949 
L 153.68574 191.305093 
L 154.066636 191.305093 
L 154.184245 183.183949 
L 154.321595 183.183949 
L 154.436442 175.062804 
L 154.559925 175.062804 
L 154.612798 183.183949 
L 154.669512 175.062804 
L 154.765953 175.062804 
L 154.877131 166.941659 
L 155.01785 166.941659 
L 155.140973 183.183949 
L 155.264787 183.183949 
L 155.382081 175.062804 
L 155.511194 175.062804 
L 155.627087 166.941659 
L 156.004688 166.941659 
L 156.11306 175.062804 
L 156.401614 175.062804 
L 156.467682 183.183949 
L 156.499907 175.062804 
L 156.699706 175.062804 
L 156.808035 183.183949 
L 156.879768 183.183949 
L 156.899225 191.305093 
L 156.958516 183.183949 
L 157.009972 183.183949 
L 157.126143 175.062804 
L 157.35733 175.062804 
L 157.473298 183.183949 
L 157.639665 183.183949 
L 157.64331 191.305093 
L 157.715127 183.183949 
L 157.871739 183.183949 
L 157.927708 175.062804 
L 157.98279 183.183949 
L 158.083251 183.183949 
L 158.119582 191.305093 
L 158.618911 191.305093 
L 158.643437 183.183949 
L 158.717192 191.305093 
L 158.850739 191.305093 
L 158.985454 175.062804 
L 159.451543 175.062804 
L 159.572504 191.305093 
L 159.682706 191.305093 
L 159.790902 175.062804 
L 159.791098 183.183949 
L 159.974813 183.183949 
L 160.060402 191.305093 
L 160.297004 191.305093 
L 160.38789 183.183949 
L 160.497365 191.305093 
L 161.078673 191.305093 
L 161.376501 183.183949 
L 161.698356 183.183949 
L 161.741016 191.305093 
L 161.803909 183.183949 
L 162.282911 183.183949 
L 162.304032 175.062804 
L 162.367316 183.183949 
L 162.51682 183.183949 
L 162.599691 191.305093 
L 162.610244 183.183949 
L 163.109921 183.183949 
L 163.177281 191.305093 
L 163.249708 191.305093 
L 163.427618 183.183949 
L 163.627731 183.183949 
L 163.739418 191.305093 
L 163.765372 191.305093 
L 163.958684 183.183949 
L 164.056488 183.183949 
L 164.158556 175.062804 
L 164.177045 175.062804 
L 164.306771 166.941659 
L 164.531714 166.941659 
L 164.646451 150.699369 
L 164.676059 150.699369 
L 164.792257 142.578225 
L 164.814308 142.578225 
L 164.923598 150.699369 
L 164.98881 150.699369 
L 164.995027 142.578225 
L 165.093978 150.699369 
L 165.327511 150.699369 
L 165.433235 158.820514 
L 165.563895 158.820514 
L 165.652236 166.941659 
L 165.750832 166.941659 
L 165.856629 183.183949 
L 165.912934 183.183949 
L 166.020147 191.305093 
L 166.094193 191.305093 
L 166.245321 183.183949 
L 166.405414 183.183949 
L 166.503162 175.062804 
L 166.706619 175.062804 
L 166.804717 183.183949 
L 167.068568 183.183949 
L 167.203883 175.062804 
L 167.34951 175.062804 
L 167.464051 158.820514 
L 167.566485 158.820514 
L 167.686841 134.45708 
L 167.70005 142.578225 
L 167.732093 142.578225 
L 167.844295 134.45708 
L 167.918841 134.45708 
L 168.020336 126.335935 
L 168.086707 126.335935 
L 168.193756 142.578225 
L 168.217327 142.578225 
L 168.336545 150.699369 
L 168.346236 150.699369 
L 168.378458 142.578225 
L 168.444019 150.699369 
L 168.48467 150.699369 
L 168.57088 166.941659 
L 168.656895 166.941659 
L 168.77067 183.183949 
L 169.00806 183.183949 
L 169.117811 191.305093 
L 169.182187 191.305093 
L 169.25877 183.183949 
L 169.497963 183.183949 
L 169.613639 175.062804 
L 170.070535 175.062804 
L 170.212048 150.699369 
L 170.694128 150.699369 
L 170.729034 166.941659 
L 170.792998 158.820514 
L 170.87664 158.820514 
L 170.983105 166.941659 
L 171.014876 166.941659 
L 171.126767 158.820514 
L 171.164246 158.820514 
L 171.172068 150.699369 
L 171.267757 158.820514 
L 171.285121 158.820514 
L 171.315015 150.699369 
L 171.372646 158.820514 
L 171.476423 158.820514 
L 171.569985 150.699369 
L 171.689707 158.820514 
L 171.861512 158.820514 
L 171.974939 166.941659 
L 172.334756 166.941659 
L 172.418478 175.062804 
L 172.553066 183.183949 
L 172.587717 183.183949 
L 172.669859 191.305093 
L 173.177159 191.305093 
L 173.325208 183.183949 
L 173.350045 191.305093 
L 173.388644 175.062804 
L 173.92644 175.062804 
L 174.086024 183.183949 
L 174.168324 183.183949 
L 174.245933 175.062804 
L 174.481402 175.062804 
L 174.639113 183.183949 
L 174.681079 183.183949 
L 174.774047 175.062804 
L 174.837362 175.062804 
L 175.056165 183.183949 
L 175.393661 183.183949 
L 175.585392 158.820514 
L 175.586275 166.941659 
L 175.753823 175.062804 
L 175.800374 175.062804 
L 175.820412 183.183949 
L 175.892813 175.062804 
L 175.975661 175.062804 
L 175.977391 166.941659 
L 176.00221 183.183949 
L 176.165058 183.183949 
L 176.277993 175.062804 
L 176.360195 175.062804 
L 176.463563 183.183949 
L 176.486912 183.183949 
L 176.53864 191.305093 
L 176.770056 183.183949 
L 177.67465 183.183949 
L 177.695313 175.062804 
L 178.303675 175.062804 
L 178.411294 183.183949 
L 178.646602 183.183949 
L 178.798187 175.062804 
L 178.919332 175.062804 
L 179.01385 166.941659 
L 179.2891 166.941659 
L 179.339542 175.062804 
L 179.379418 166.941659 
L 179.515911 158.820514 
L 179.732173 158.820514 
L 179.873709 183.183949 
L 179.926672 183.183949 
L 179.937812 175.062804 
L 180.031976 183.183949 
L 180.077645 183.183949 
L 180.220308 175.062804 
L 180.374479 158.820514 
L 180.491808 175.062804 
L 180.541903 175.062804 
L 180.628308 150.699369 
L 180.732516 150.699369 
L 180.832808 166.941659 
L 181.132997 166.941659 
L 181.244841 175.062804 
L 181.321172 175.062804 
L 181.445558 166.941659 
L 181.59383 166.941659 
L 181.70641 158.820514 
L 181.738609 158.820514 
L 181.847498 166.941659 
L 181.949129 158.820514 
L 182.174598 158.820514 
L 182.301407 150.699369 
L 182.374475 150.699369 
L 182.48517 158.820514 
L 182.488973 150.699369 
L 182.540019 166.941659 
L 182.663111 166.941659 
L 182.758941 175.062804 
L 182.814947 175.062804 
L 182.886776 183.183949 
L 183.070778 158.820514 
L 183.077621 166.941659 
L 183.274759 166.941659 
L 183.295673 158.820514 
L 183.342841 166.941659 
L 183.628754 166.941659 
L 183.736676 158.820514 
L 183.757288 158.820514 
L 183.805478 142.578225 
L 183.891859 142.578225 
L 183.930243 126.335935 
L 184.007113 134.45708 
L 184.083065 134.45708 
L 184.145501 150.699369 
L 184.203622 150.699369 
L 184.311147 166.941659 
L 184.34678 166.941659 
L 184.451526 158.820514 
L 184.479769 158.820514 
L 184.515528 150.699369 
L 184.551869 166.941659 
L 184.586128 166.941659 
L 184.827656 166.941659 
L 184.941359 175.062804 
L 184.947725 175.062804 
L 184.974168 166.941659 
L 185.029653 175.062804 
L 185.090937 175.062804 
L 185.192059 183.183949 
L 185.664574 183.183949 
L 185.81748 175.062804 
L 185.945576 183.183949 
L 186.544771 183.183949 
L 186.743191 191.305093 
L 187.539403 191.305093 
L 187.741764 183.183949 
L 188.506422 183.183949 
L 188.515725 175.062804 
L 188.910982 175.062804 
L 189.020282 183.183949 
L 189.271467 183.183949 
L 189.277878 191.305093 
L 189.37587 183.183949 
L 189.562435 175.062804 
L 189.821121 175.062804 
L 189.931177 166.941659 
L 189.949104 166.941659 
L 190.085317 175.062804 
L 190.180337 175.062804 
L 190.25348 166.941659 
L 190.456206 175.062804 
L 190.50518 175.062804 
L 190.52123 183.183949 
L 190.555393 166.941659 
L 190.593172 166.941659 
L 190.798244 166.941659 
L 190.922854 183.183949 
L 191.093515 166.941659 
L 191.499091 166.941659 
L 191.558693 158.820514 
L 191.718764 166.941659 
L 191.731487 175.062804 
L 191.982635 166.941659 
L 192.089027 166.941659 
L 192.216071 175.062804 
L 192.376511 150.699369 
L 192.434324 158.820514 
L 192.6741 158.820514 
L 192.80677 166.941659 
L 193.067732 166.941659 
L 193.163 175.062804 
L 193.286753 183.183949 
L 193.375008 175.062804 
L 193.541302 183.183949 
L 194.195878 183.183949 
L 194.208147 191.305093 
L 201.980919 191.305093 
L 202.211216 183.183949 
L 202.564515 191.305093 
L 207.760075 191.305093 
L 207.812436 183.183949 
L 207.817641 191.305093 
L 209.087028 191.305093 
L 209.143052 183.183949 
L 212.423099 183.183949 
L 212.450918 191.305093 
L 213.768865 191.305093 
L 213.856122 183.183949 
L 215.308218 183.183949 
L 215.478492 191.305093 
L 219.406544 191.305093 
L 219.596603 183.183949 
L 219.624702 191.305093 
L 219.800004 175.062804 
L 219.921221 166.941659 
L 220.032673 183.183949 
L 220.128005 183.183949 
L 220.360512 191.305093 
L 225.849144 191.305093 
L 225.991712 175.062804 
L 225.994227 183.183949 
L 226.186109 175.062804 
L 226.345396 183.183949 
L 226.401339 183.183949 
L 226.603715 191.305093 
L 226.908657 175.062804 
L 227.256903 166.941659 
L 227.403096 166.941659 
L 227.467429 142.578225 
L 227.500035 150.699369 
L 227.589924 150.699369 
L 227.634983 142.578225 
L 227.695506 150.699369 
L 227.72864 150.699369 
L 227.752425 166.941659 
L 227.831894 158.820514 
L 227.87382 150.699369 
L 227.894802 158.820514 
L 227.971831 158.820514 
L 228.069523 166.941659 
L 228.241617 166.941659 
L 228.337614 158.820514 
L 228.349975 166.941659 
L 228.371591 166.941659 
L 228.385223 158.820514 
L 228.432263 166.941659 
L 228.512258 166.941659 
L 228.598906 175.062804 
L 228.943268 175.062804 
L 229.020529 166.941659 
L 229.033753 175.062804 
L 229.186858 191.305093 
L 229.775491 191.305093 
L 229.830143 183.183949 
L 229.896138 191.305093 
L 229.902508 183.183949 
L 229.916714 175.062804 
L 230.043343 183.183949 
L 230.365948 183.183949 
L 230.478159 175.062804 
L 230.604639 175.062804 
L 230.777496 183.183949 
L 230.930823 183.183949 
L 231.036194 191.305093 
L 231.735439 191.305093 
L 231.991231 175.062804 
L 232.336264 175.062804 
L 232.528083 183.183949 
L 233.165046 191.305093 
L 239.088547 191.305093 
L 239.606326 183.183949 
L 239.775538 175.062804 
L 239.961659 183.183949 
L 240.085769 183.183949 
L 240.213869 191.305093 
L 242.186538 191.305093 
L 242.339109 183.183949 
L 242.917211 183.183949 
L 242.955017 191.305093 
L 258.323881 191.305093 
L 258.51602 183.183949 
L 258.674163 191.305093 
L 258.819999 183.183949 
L 258.954811 175.062804 
L 259.292237 175.062804 
L 259.375284 183.183949 
L 259.662496 191.305093 
L 264.965786 191.305093 
L 265.237672 166.941659 
L 265.43867 175.062804 
L 265.719707 166.941659 
L 266.210081 166.941659 
L 266.35923 191.305093 
L 266.909973 191.305093 
L 266.942115 183.183949 
L 267.412783 183.183949 
L 268.615809 191.305093 
L 273.76178 191.305093 
L 273.889282 183.183949 
L 273.921483 191.305093 
L 286.151271 191.305093 
L 286.577336 183.183949 
L 286.668325 191.305093 
L 288.684907 191.305093 
L 289.289814 183.183949 
L 290.323432 183.183949 
L 291.066738 191.305093 
L 295.256045 191.305093 
L 295.306612 183.183949 
L 295.432942 191.305093 
L 312.422447 191.305093 
L 312.422447 191.305093 
" clip-path="url(#pbdcafd1ce6)" style="fill: none; stroke: #000000; stroke-width: 1.5; stroke-linecap: square"/>
   </g>
   <g id="patch_8">
    <path d="M 44.103906 195.365666 
L 44.103906 106.033073 
" style="fill: none; stroke: #000000; stroke-width: 0.8; stroke-linejoin: miter; stroke-linecap: square"/>
   </g>
   <g id="patch_9">
    <path d="M 325.19952 195.365666 
L 325.19952 106.033073 
" style="fill: none; stroke: #000000; stroke-width: 0.8; stroke-linejoin: miter; stroke-linecap: square"/>
   </g>
   <g id="patch_10">
    <path d="M 44.103906 195.365666 
L 325.19952 195.365666 
" style="fill: none; stroke: #000000; stroke-width: 0.8; stroke-linejoin: miter; stroke-linecap: square"/>
   </g>
   <g id="patch_11">
    <path d="M 44.103906 106.033073 
L 325.19952 106.033073 
" style="fill: none; stroke: #000000; stroke-width: 0.8; stroke-linejoin: miter; stroke-linecap: square"/>
   </g>
  </g>
  <g id="axes_3">
   <g id="patch_12">
    <path d="M 44.103906 294.198739 
L 325.19952 294.198739 
L 325.19952 204.866146 
L 44.103906 204.866146 
z
" style="fill: #ffffff"/>
   </g>
   <g id="matplotlib.axis_5">
    <g id="xtick_11">
     <g id="line2d_19">
      <g>
       <use xlink:href="#m8efe72d727" x="56.88098" y="294.198739" style="stroke: #000000; stroke-width: 0.8"/>
      </g>
     </g>
     <g id="text_9">
      <!-- 0 -->
      <g transform="translate(53.69973 308.796395) scale(0.1 -0.1)">
       <use xlink:href="#DejaVuSans-13"/>
      </g>
     </g>
    </g>
    <g id="xtick_12">
     <g id="line2d_20">
      <g>
       <use xlink:href="#m8efe72d727" x="117.700215" y="294.198739" style="stroke: #000000; stroke-width: 0.8"/>
      </g>
     </g>
     <g id="text_10">
      <!-- 200 -->
      <g transform="translate(108.156465 308.796395) scale(0.1 -0.1)">
       <defs>
        <path id="DejaVuSans-15" d="M 1228 531 
L 3431 531 
L 3431 0 
L 469 0 
L 469 531 
Q 828 903 1448 1529 
Q 2069 2156 2228 2338 
Q 2531 2678 2651 2914 
Q 2772 3150 2772 3378 
Q 2772 3750 2511 3984 
Q 2250 4219 1831 4219 
Q 1534 4219 1204 4116 
Q 875 4013 500 3803 
L 500 4441 
Q 881 4594 1212 4672 
Q 1544 4750 1819 4750 
Q 2544 4750 2975 4387 
Q 3406 4025 3406 3419 
Q 3406 3131 3298 2873 
Q 3191 2616 2906 2266 
Q 2828 2175 2409 1742 
Q 1991 1309 1228 531 
z
" transform="scale(0.015625)"/>
       </defs>
       <use xlink:href="#DejaVuSans-15"/>
       <use xlink:href="#DejaVuSans-13" transform="translate(63.625 0)"/>
       <use xlink:href="#DejaVuSans-13" transform="translate(127.25 0)"/>
      </g>
     </g>
    </g>
    <g id="xtick_13">
     <g id="line2d_21">
      <g>
       <use xlink:href="#m8efe72d727" x="178.519451" y="294.198739" style="stroke: #000000; stroke-width: 0.8"/>
      </g>
     </g>
     <g id="text_11">
      <!-- 400 -->
      <g transform="translate(168.975701 308.796395) scale(0.1 -0.1)">
       <defs>
        <path id="DejaVuSans-17" d="M 2419 4116 
L 825 1625 
L 2419 1625 
L 2419 4116 
z
M 2253 4666 
L 3047 4666 
L 3047 1625 
L 3713 1625 
L 3713 1100 
L 3047 1100 
L 3047 0 
L 2419 0 
L 2419 1100 
L 313 1100 
L 313 1709 
L 2253 4666 
z
" transform="scale(0.015625)"/>
       </defs>
       <use xlink:href="#DejaVuSans-17"/>
       <use xlink:href="#DejaVuSans-13" transform="translate(63.625 0)"/>
       <use xlink:href="#DejaVuSans-13" transform="translate(127.25 0)"/>
      </g>
     </g>
    </g>
    <g id="xtick_14">
     <g id="line2d_22">
      <g>
       <use xlink:href="#m8efe72d727" x="239.338686" y="294.198739" style="stroke: #000000; stroke-width: 0.8"/>
      </g>
     </g>
     <g id="text_12">
      <!-- 600 -->
      <g transform="translate(229.794936 308.796395) scale(0.1 -0.1)">
       <defs>
        <path id="DejaVuSans-19" d="M 2113 2584 
Q 1688 2584 1439 2293 
Q 1191 2003 1191 1497 
Q 1191 994 1439 701 
Q 1688 409 2113 409 
Q 2538 409 2786 701 
Q 3034 994 3034 1497 
Q 3034 2003 2786 2293 
Q 2538 2584 2113 2584 
z
M 3366 4563 
L 3366 3988 
Q 3128 4100 2886 4159 
Q 2644 4219 2406 4219 
Q 1781 4219 1451 3797 
Q 1122 3375 1075 2522 
Q 1259 2794 1537 2939 
Q 1816 3084 2150 3084 
Q 2853 3084 3261 2657 
Q 3669 2231 3669 1497 
Q 3669 778 3244 343 
Q 2819 -91 2113 -91 
Q 1303 -91 875 529 
Q 447 1150 447 2328 
Q 447 3434 972 4092 
Q 1497 4750 2381 4750 
Q 2619 4750 2861 4703 
Q 3103 4656 3366 4563 
z
" transform="scale(0.015625)"/>
       </defs>
       <use xlink:href="#DejaVuSans-19"/>
       <use xlink:href="#DejaVuSans-13" transform="translate(63.625 0)"/>
       <use xlink:href="#DejaVuSans-13" transform="translate(127.25 0)"/>
      </g>
     </g>
    </g>
    <g id="xtick_15">
     <g id="line2d_23">
      <g>
       <use xlink:href="#m8efe72d727" x="300.157922" y="294.198739" style="stroke: #000000; stroke-width: 0.8"/>
      </g>
     </g>
     <g id="text_13">
      <!-- 800 -->
      <g transform="translate(290.614172 308.796395) scale(0.1 -0.1)">
       <defs>
        <path id="DejaVuSans-1b" d="M 2034 2216 
Q 1584 2216 1326 1975 
Q 1069 1734 1069 1313 
Q 1069 891 1326 650 
Q 1584 409 2034 409 
Q 2484 409 2743 651 
Q 3003 894 3003 1313 
Q 3003 1734 2745 1975 
Q 2488 2216 2034 2216 
z
M 1403 2484 
Q 997 2584 770 2862 
Q 544 3141 544 3541 
Q 544 4100 942 4425 
Q 1341 4750 2034 4750 
Q 2731 4750 3128 4425 
Q 3525 4100 3525 3541 
Q 3525 3141 3298 2862 
Q 3072 2584 2669 2484 
Q 3125 2378 3379 2068 
Q 3634 1759 3634 1313 
Q 3634 634 3220 271 
Q 2806 -91 2034 -91 
Q 1263 -91 848 271 
Q 434 634 434 1313 
Q 434 1759 690 2068 
Q 947 2378 1403 2484 
z
M 1172 3481 
Q 1172 3119 1398 2916 
Q 1625 2713 2034 2713 
Q 2441 2713 2670 2916 
Q 2900 3119 2900 3481 
Q 2900 3844 2670 4047 
Q 2441 4250 2034 4250 
Q 1625 4250 1398 4047 
Q 1172 3844 1172 3481 
z
" transform="scale(0.015625)"/>
       </defs>
       <use xlink:href="#DejaVuSans-1b"/>
       <use xlink:href="#DejaVuSans-13" transform="translate(63.625 0)"/>
       <use xlink:href="#DejaVuSans-13" transform="translate(127.25 0)"/>
      </g>
     </g>
    </g>
    <g id="text_14">
     <!-- Time -->
     <g transform="translate(172.415776 322.797176) scale(0.1 -0.1)">
      <defs>
       <path id="DejaVuSans-37" d="M -19 4666 
L 3928 4666 
L 3928 4134 
L 2272 4134 
L 2272 0 
L 1638 0 
L 1638 4134 
L -19 4134 
L -19 4666 
z
" transform="scale(0.015625)"/>
       <path id="DejaVuSans-4c" d="M 603 3500 
L 1178 3500 
L 1178 0 
L 603 0 
L 603 3500 
z
M 603 4863 
L 1178 4863 
L 1178 4134 
L 603 4134 
L 603 4863 
z
" transform="scale(0.015625)"/>
       <path id="DejaVuSans-50" d="M 3328 2828 
Q 3544 3216 3844 3400 
Q 4144 3584 4550 3584 
Q 5097 3584 5394 3201 
Q 5691 2819 5691 2113 
L 5691 0 
L 5113 0 
L 5113 2094 
Q 5113 2597 4934 2840 
Q 4756 3084 4391 3084 
Q 3944 3084 3684 2787 
Q 3425 2491 3425 1978 
L 3425 0 
L 2847 0 
L 2847 2094 
Q 2847 2600 2669 2842 
Q 2491 3084 2119 3084 
Q 1678 3084 1418 2786 
Q 1159 2488 1159 1978 
L 1159 0 
L 581 0 
L 581 3500 
L 1159 3500 
L 1159 2956 
Q 1356 3278 1631 3431 
Q 1906 3584 2284 3584 
Q 2666 3584 2933 3390 
Q 3200 3197 3328 2828 
z
" transform="scale(0.015625)"/>
      </defs>
      <use xlink:href="#DejaVuSans-37"/>
      <use xlink:href="#DejaVuSans-4c" transform="translate(58 0)"/>
      <use xlink:href="#DejaVuSans-50" transform="translate(85.78125 0)"/>
      <use xlink:href="#DejaVuSans-48" transform="translate(183.1875 0)"/>
     </g>
    </g>
   </g>
   <g id="matplotlib.axis_6">
    <g id="ytick_7">
     <g id="line2d_24">
      <g>
       <use xlink:href="#m83d4a31384" x="44.103906" y="290.138166" style="stroke: #000000; stroke-width: 0.8"/>
      </g>
     </g>
     <g id="text_15">
      <!-- 0.0 -->
      <g transform="translate(21.200781 293.936994) scale(0.1 -0.1)">
       <defs>
        <path id="DejaVuSans-11" d="M 684 794 
L 1344 794 
L 1344 0 
L 684 0 
L 684 794 
z
" transform="scale(0.015625)"/>
       </defs>
       <use xlink:href="#DejaVuSans-13"/>
       <use xlink:href="#DejaVuSans-11" transform="translate(63.625 0)"/>
       <use xlink:href="#DejaVuSans-13" transform="translate(95.40625 0)"/>
      </g>
     </g>
    </g>
    <g id="ytick_8">
     <g id="line2d_25">
      <g>
       <use xlink:href="#m83d4a31384" x="44.103906" y="249.532442" style="stroke: #000000; stroke-width: 0.8"/>
      </g>
     </g>
     <g id="text_16">
      <!-- 0.5 -->
      <g transform="translate(21.200781 253.33127) scale(0.1 -0.1)">
       <use xlink:href="#DejaVuSans-13"/>
       <use xlink:href="#DejaVuSans-11" transform="translate(63.625 0)"/>
       <use xlink:href="#DejaVuSans-18" transform="translate(95.40625 0)"/>
      </g>
     </g>
    </g>
    <g id="ytick_9">
     <g id="line2d_26">
      <g>
       <use xlink:href="#m83d4a31384" x="44.103906" y="208.926718" style="stroke: #000000; stroke-width: 0.8"/>
      </g>
     </g>
     <g id="text_17">
      <!-- 1.0 -->
      <g transform="translate(21.200781 212.725546) scale(0.1 -0.1)">
       <use xlink:href="#DejaVuSans-14"/>
       <use xlink:href="#DejaVuSans-11" transform="translate(63.625 0)"/>
       <use xlink:href="#DejaVuSans-13" transform="translate(95.40625 0)"/>
      </g>
     </g>
    </g>
    <g id="text_18">
     <!-- Free lac operon -->
     <g transform="translate(14.798438 288.006661) rotate(-90) scale(0.1 -0.1)">
      <defs>
       <path id="DejaVuSans-29" d="M 628 4666 
L 3309 4666 
L 3309 4134 
L 1259 4134 
L 1259 2759 
L 3109 2759 
L 3109 2228 
L 1259 2228 
L 1259 0 
L 628 0 
L 628 4666 
z
" transform="scale(0.015625)"/>
       <path id="DejaVuSans-53" d="M 1159 525 
L 1159 -1331 
L 581 -1331 
L 581 3500 
L 1159 3500 
L 1159 2969 
Q 1341 3281 1617 3432 
Q 1894 3584 2278 3584 
Q 2916 3584 3314 3078 
Q 3713 2572 3713 1747 
Q 3713 922 3314 415 
Q 2916 -91 2278 -91 
Q 1894 -91 1617 61 
Q 1341 213 1159 525 
z
M 3116 1747 
Q 3116 2381 2855 2742 
Q 2594 3103 2138 3103 
Q 1681 3103 1420 2742 
Q 1159 2381 1159 1747 
Q 1159 1113 1420 752 
Q 1681 391 2138 391 
Q 2594 391 2855 752 
Q 3116 1113 3116 1747 
z
" transform="scale(0.015625)"/>
       <path id="DejaVuSans-51" d="M 3513 2113 
L 3513 0 
L 2938 0 
L 2938 2094 
Q 2938 2591 2744 2837 
Q 2550 3084 2163 3084 
Q 1697 3084 1428 2787 
Q 1159 2491 1159 1978 
L 1159 0 
L 581 0 
L 581 3500 
L 1159 3500 
L 1159 2956 
Q 1366 3272 1645 3428 
Q 1925 3584 2291 3584 
Q 2894 3584 3203 3211 
Q 3513 2838 3513 2113 
z
" transform="scale(0.015625)"/>
      </defs>
      <use xlink:href="#DejaVuSans-29"/>
      <use xlink:href="#DejaVuSans-55" transform="translate(50.234375 0)"/>
      <use xlink:href="#DejaVuSans-48" transform="translate(89.140625 0)"/>
      <use xlink:href="#DejaVuSans-48" transform="translate(150.671875 0)"/>
      <use xlink:href="#DejaVuSans-3" transform="translate(212.203125 0)"/>
      <use xlink:href="#DejaVuSans-4f" transform="translate(243.984375 0)"/>
      <use xlink:href="#DejaVuSans-44" transform="translate(271.765625 0)"/>
      <use xlink:href="#DejaVuSans-46" transform="translate(333.046875 0)"/>
      <use xlink:href="#DejaVuSans-3" transform="translate(388.03125 0)"/>
      <use xlink:href="#DejaVuSans-52" transform="translate(419.8125 0)"/>
      <use xlink:href="#DejaVuSans-53" transform="translate(481 0)"/>
      <use xlink:href="#DejaVuSans-48" transform="translate(544.484375 0)"/>
      <use xlink:href="#DejaVuSans-55" transform="translate(606.015625 0)"/>
      <use xlink:href="#DejaVuSans-52" transform="translate(644.921875 0)"/>
      <use xlink:href="#DejaVuSans-51" transform="translate(706.109375 0)"/>
     </g>
    </g>
   </g>
   <g id="line2d_27">
    <path d="M 56.88098 208.926718 
L 56.958757 290.138166 
L 57.119328 290.138166 
L 57.281133 208.926718 
L 57.393882 208.926718 
L 57.49133 290.138166 
L 58.651841 290.138166 
L 59.5963 208.926718 
L 59.774099 208.926718 
L 59.795801 290.138166 
L 62.106226 290.138166 
L 64.581788 208.926718 
L 64.863163 208.926718 
L 64.994306 290.138166 
L 65.114407 290.138166 
L 71.471364 208.926718 
L 71.633368 290.138166 
L 79.113513 208.926718 
L 79.160301 290.138166 
L 81.666342 208.926718 
L 81.799913 208.926718 
L 81.851592 290.138166 
L 83.512129 290.138166 
L 83.574562 208.926718 
L 84.410672 208.926718 
L 84.591939 290.138166 
L 85.57742 290.138166 
L 88.432797 208.926718 
L 88.94804 208.926718 
L 88.975976 290.138166 
L 89.317472 290.138166 
L 90.158447 208.926718 
L 90.214214 290.138166 
L 90.542288 290.138166 
L 106.834136 208.926718 
L 106.84721 290.138166 
L 107.093821 290.138166 
L 107.357286 208.926718 
L 107.631461 290.138166 
L 107.753657 208.926718 
L 108.142706 208.926718 
L 108.337906 290.138166 
L 108.617125 290.138166 
L 112.588367 208.926718 
L 113.21869 290.138166 
L 114.785405 208.926718 
L 115.086176 290.138166 
L 115.727755 208.926718 
L 115.811074 290.138166 
L 116.774132 208.926718 
L 116.855147 290.138166 
L 120.617106 290.138166 
L 126.359848 208.926718 
L 126.460935 290.138166 
L 128.123283 208.926718 
L 128.553396 208.926718 
L 128.573853 290.138166 
L 130.329722 290.138166 
L 132.806291 208.926718 
L 132.818988 290.138166 
L 135.56788 208.926718 
L 135.608651 290.138166 
L 142.328843 208.926718 
L 143.229846 208.926718 
L 143.295025 290.138166 
L 143.883172 290.138166 
L 144.116964 208.926718 
L 144.417398 208.926718 
L 144.524971 290.138166 
L 145.546464 290.138166 
L 146.034431 208.926718 
L 146.130561 290.138166 
L 147.200223 290.138166 
L 147.211025 208.926718 
L 147.36515 290.138166 
L 151.475981 208.926718 
L 151.560834 290.138166 
L 151.798714 208.926718 
L 193.445105 208.926718 
L 193.541302 290.138166 
L 196.949183 290.138166 
L 197.182683 208.926718 
L 197.195821 290.138166 
L 197.320297 290.138166 
L 201.980919 208.926718 
L 202.207515 208.926718 
L 202.211216 290.138166 
L 202.498068 290.138166 
L 202.529032 208.926718 
L 202.564515 290.138166 
L 203.122722 290.138166 
L 207.817641 208.926718 
L 208.009873 208.926718 
L 208.053203 290.138166 
L 208.245175 290.138166 
L 209.102897 208.926718 
L 209.143052 290.138166 
L 213.498713 290.138166 
L 213.856122 208.926718 
L 214.24755 290.138166 
L 215.478492 290.138166 
L 219.406544 208.926718 
L 219.869444 208.926718 
L 219.961371 290.138166 
L 221.213621 290.138166 
L 225.936912 208.926718 
L 228.999815 208.926718 
L 229.128111 290.138166 
L 229.653305 290.138166 
L 229.830143 208.926718 
L 232.03924 208.926718 
L 232.155741 290.138166 
L 233.850756 290.138166 
L 239.088547 208.926718 
L 239.961659 208.926718 
L 240.085769 290.138166 
L 241.093445 290.138166 
L 241.941186 208.926718 
L 242.307175 208.926718 
L 242.339109 290.138166 
L 243.63941 290.138166 
L 250.07358 208.926718 
L 250.152852 290.138166 
L 256.275034 208.926718 
L 256.704069 290.138166 
L 258.323881 208.926718 
L 258.954811 208.926718 
L 259.000752 290.138166 
L 260.181411 290.138166 
L 265.064737 208.926718 
L 265.719707 208.926718 
L 265.975776 290.138166 
L 266.526373 290.138166 
L 266.942115 208.926718 
L 267.084259 290.138166 
L 269.188871 290.138166 
L 270.785785 208.926718 
L 270.837901 290.138166 
L 273.831944 208.926718 
L 273.921483 290.138166 
L 274.520037 290.138166 
L 278.31955 208.926718 
L 278.522108 290.138166 
L 278.826597 208.926718 
L 278.88814 290.138166 
L 286.151271 208.926718 
L 286.662659 208.926718 
L 286.668325 290.138166 
L 287.158266 290.138166 
L 288.684907 208.926718 
L 289.208535 208.926718 
L 289.289814 290.138166 
L 290.263061 290.138166 
L 290.318419 208.926718 
L 290.323432 290.138166 
L 291.066738 290.138166 
L 295.306612 208.926718 
L 295.395697 208.926718 
L 295.432942 290.138166 
L 296.564111 290.138166 
L 312.422447 208.926718 
L 312.422447 208.926718 
" clip-path="url(#p5c3cb61a16)" style="fill: none; stroke: #000000; stroke-width: 1.5; stroke-linecap: square"/>
   </g>
   <g id="patch_13">
    <path d="M 44.103906 294.198739 
L 44.103906 204.866146 
" style="fill: none; stroke: #000000; stroke-width: 0.8; stroke-linejoin: miter; stroke-linecap: square"/>
   </g>
   <g id="patch_14">
    <path d="M 325.19952 294.198739 
L 325.19952 204.866146 
" style="fill: none; stroke: #000000; stroke-width: 0.8; stroke-linejoin: miter; stroke-linecap: square"/>
   </g>
   <g id="patch_15">
    <path d="M 44.103906 294.198739 
L 325.19952 294.198739 
" style="fill: none; stroke: #000000; stroke-width: 0.8; stroke-linejoin: miter; stroke-linecap: square"/>
   </g>
   <g id="patch_16">
    <path d="M 44.103906 204.866146 
L 325.19952 204.866146 
" style="fill: none; stroke: #000000; stroke-width: 0.8; stroke-linejoin: miter; stroke-linecap: square"/>
   </g>
  </g>
 </g>
 <defs>
  <clipPath id="p0d1790765d">
   <rect x="44.103906" y="7.2" width="281.095614" height="89.332593"/>
  </clipPath>
  <clipPath id="pbdcafd1ce6">
   <rect x="44.103906" y="106.033073" width="281.095614" height="89.332593"/>
  </clipPath>
  <clipPath id="p5c3cb61a16">
   <rect x="44.103906" y="204.866146" width="281.095614" height="89.332593"/>
  </clipPath>
 </defs>
</svg>
