<?xml version="1.0" encoding="utf-8" standalone="no"?>
<!DOCTYPE svg PUBLIC "-//W3C//DTD SVG 1.1//EN"
  "http://www.w3.org/Graphics/SVG/1.1/DTD/svg11.dtd">
<svg xmlns:xlink="http://www.w3.org/1999/xlink" width="332.39952pt" height="332.39952pt" viewBox="0 0 332.39952 332.39952" xmlns="http://www.w3.org/2000/svg" version="1.1">
 <metadata>
  <rdf:RDF xmlns:dc="http://purl.org/dc/elements/1.1/" xmlns:cc="http://creativecommons.org/ns#" xmlns:rdf="http://www.w3.org/1999/02/22-rdf-syntax-ns#">
   <cc:Work>
    <dc:type rdf:resource="http://purl.org/dc/dcmitype/StillImage"/>
    <dc:date>2026-07-13T20:02:22.724823</dc:date>
    <dc:format>image/svg+xml</dc:format>
    <dc:creator>
     <cc:Agent>
      <dc:title>Matplotlib v3.11.0, https://matplotlib.org/</dc:title>
     </cc:Agent>
    </dc:creator>
   </cc:Work>
  </rdf:RDF>
 </metadata>
 <defs>
  <style type="text/css">*{stroke-linejoin: round; stroke-linecap: butt}</style>
 </defs>
 <g id="figure_1">
  <g id="patch_1">
   <path d="M 0 332.39952 
L 332.39952 332.39952 
L 332.39952 0 
L 0 0 
z
" style="fill: #ffffff"/>
  </g>
  <g id="axes_1">
   <g id="patch_2">
    <path d="M 44.103906 96.532593 
L 325.19952 96.532593 
L 325.19952 7.2 
L 44.103906 7.2 
z
" style="fill: #ffffff"/>
   </g>
   <g id="matplotlib.axis_1">
    <g id="xtick_1">
     <g id="line2d_1">
      <defs>
       <path id="me02b3a51aa" d="M 0 0 
L 0 3.5 
" style="stroke: #000000; stroke-width: 0.8"/>
      </defs>
      <g>
       <use xlink:href="#me02b3a51aa" x="56.88098" y="96.532593" style="stroke: #000000; stroke-width: 0.8"/>
      </g>
     </g>
    </g>
    <g id="xtick_2">
     <g id="line2d_2">
      <g>
       <use xlink:href="#me02b3a51aa" x="88.818949" y="96.532593" style="stroke: #000000; stroke-width: 0.8"/>
      </g>
     </g>
    </g>
    <g id="xtick_3">
     <g id="line2d_3">
      <g>
       <use xlink:href="#me02b3a51aa" x="120.756919" y="96.532593" style="stroke: #000000; stroke-width: 0.8"/>
      </g>
     </g>
    </g>
    <g id="xtick_4">
     <g id="line2d_4">
      <g>
       <use xlink:href="#me02b3a51aa" x="152.694889" y="96.532593" style="stroke: #000000; stroke-width: 0.8"/>
      </g>
     </g>
    </g>
    <g id="xtick_5">
     <g id="line2d_5">
      <g>
       <use xlink:href="#me02b3a51aa" x="184.632858" y="96.532593" style="stroke: #000000; stroke-width: 0.8"/>
      </g>
     </g>
    </g>
    <g id="xtick_6">
     <g id="line2d_6">
      <g>
       <use xlink:href="#me02b3a51aa" x="216.570828" y="96.532593" style="stroke: #000000; stroke-width: 0.8"/>
      </g>
     </g>
    </g>
    <g id="xtick_7">
     <g id="line2d_7">
      <g>
       <use xlink:href="#me02b3a51aa" x="248.508798" y="96.532593" style="stroke: #000000; stroke-width: 0.8"/>
      </g>
     </g>
    </g>
    <g id="xtick_8">
     <g id="line2d_8">
      <g>
       <use xlink:href="#me02b3a51aa" x="280.446768" y="96.532593" style="stroke: #000000; stroke-width: 0.8"/>
      </g>
     </g>
    </g>
    <g id="xtick_9">
     <g id="line2d_9">
      <g>
       <use xlink:href="#me02b3a51aa" x="312.384737" y="96.532593" style="stroke: #000000; stroke-width: 0.8"/>
      </g>
     </g>
    </g>
   </g>
   <g id="matplotlib.axis_2">
    <g id="ytick_1">
     <g id="line2d_10">
      <defs>
       <path id="m2a82756754" d="M 0 0 
L -3.5 0 
" style="stroke: #000000; stroke-width: 0.8"/>
      </defs>
      <g>
       <use xlink:href="#m2a82756754" x="44.103906" y="92.472021" style="stroke: #000000; stroke-width: 0.8"/>
      </g>
     </g>
     <g id="text_1">
      <!-- 0 -->
      <g transform="translate(30.741406 96.270849) scale(0.1 -0.1)">
       <defs>
        <path id="DejaVuSans-13" d="M 2034 4250 
Q 1547 4250 1301 3770 
Q 1056 3291 1056 2328 
Q 1056 1369 1301 889 
Q 1547 409 2034 409 
Q 2525 409 2770 889 
Q 3016 1369 3016 2328 
Q 3016 3291 2770 3770 
Q 2525 4250 2034 4250 
z
M 2034 4750 
Q 2819 4750 3233 4129 
Q 3647 3509 3647 2328 
Q 3647 1150 3233 529 
Q 2819 -91 2034 -91 
Q 1250 -91 836 529 
Q 422 1150 422 2328 
Q 422 3509 836 4129 
Q 1250 4750 2034 4750 
z
" transform="scale(0.015625)"/>
       </defs>
       <use xlink:href="#DejaVuSans-13"/>
      </g>
     </g>
    </g>
    <g id="ytick_2">
     <g id="line2d_11">
      <g>
       <use xlink:href="#m2a82756754" x="44.103906" y="51.866296" style="stroke: #000000; stroke-width: 0.8"/>
      </g>
     </g>
     <g id="text_2">
      <!-- 5 -->
      <g transform="translate(30.741406 55.665125) scale(0.1 -0.1)">
       <defs>
        <path id="DejaVuSans-18" d="M 691 4666 
L 3169 4666 
L 3169 4134 
L 1269 4134 
L 1269 2991 
Q 1406 3038 1543 3061 
Q 1681 3084 1819 3084 
Q 2600 3084 3056 2656 
Q 3513 2228 3513 1497 
Q 3513 744 3044 326 
Q 2575 -91 1722 -91 
Q 1428 -91 1123 -41 
Q 819 9 494 109 
L 494 744 
Q 775 591 1075 516 
Q 1375 441 1709 441 
Q 2250 441 2565 725 
Q 2881 1009 2881 1497 
Q 2881 1984 2565 2268 
Q 2250 2553 1709 2553 
Q 1456 2553 1204 2497 
Q 953 2441 691 2322 
L 691 4666 
z
" transform="scale(0.015625)"/>
       </defs>
       <use xlink:href="#DejaVuSans-18"/>
      </g>
     </g>
    </g>
    <g id="ytick_3">
     <g id="line2d_12">
      <g>
       <use xlink:href="#m2a82756754" x="44.103906" y="11.260572" style="stroke: #000000; stroke-width: 0.8"/>
      </g>
     </g>
     <g id="text_3">
      <!-- 10 -->
      <g transform="translate(24.378906 15.059401) scale(0.1 -0.1)">
       <defs>
        <path id="DejaVuSans-14" d="M 794 531 
L 1825 531 
L 1825 4091 
L 703 3866 
L 703 4441 
L 1819 4666 
L 2450 4666 
L 2450 531 
L 3481 531 
L 3481 0 
L 794 0 
L 794 531 
z
" transform="scale(0.015625)"/>
       </defs>
       <use xlink:href="#DejaVuSans-14"/>
       <use xlink:href="#DejaVuSans-13" transform="translate(63.625 0)"/>
      </g>
     </g>
    </g>
    <g id="text_4">
     <!-- Extracellular lactose -->
     <g transform="translate(17.976563 102.838171) rotate(-90) scale(0.1 -0.1)">
      <defs>
       <path id="DejaVuSans-28" d="M 628 4666 
L 3578 4666 
L 3578 4134 
L 1259 4134 
L 1259 2753 
L 3481 2753 
L 3481 2222 
L 1259 2222 
L 1259 531 
L 3634 531 
L 3634 0 
L 628 0 
L 628 4666 
z
" transform="scale(0.015625)"/>
       <path id="DejaVuSans-5b" d="M 3513 3500 
L 2247 1797 
L 3578 0 
L 2900 0 
L 1881 1375 
L 863 0 
L 184 0 
L 1544 1831 
L 300 3500 
L 978 3500 
L 1906 2253 
L 2834 3500 
L 3513 3500 
z
" transform="scale(0.015625)"/>
       <path id="DejaVuSans-57" d="M 1172 4494 
L 1172 3500 
L 2356 3500 
L 2356 3053 
L 1172 3053 
L 1172 1153 
Q 1172 725 1289 603 
Q 1406 481 1766 481 
L 2356 481 
L 2356 0 
L 1766 0 
Q 1100 0 847 248 
Q 594 497 594 1153 
L 594 3053 
L 172 3053 
L 172 3500 
L 594 3500 
L 594 4494 
L 1172 4494 
z
" transform="scale(0.015625)"/>
       <path id="DejaVuSans-55" d="M 2631 2963 
Q 2534 3019 2420 3045 
Q 2306 3072 2169 3072 
Q 1681 3072 1420 2755 
Q 1159 2438 1159 1844 
L 1159 0 
L 581 0 
L 581 3500 
L 1159 3500 
L 1159 2956 
Q 1341 3275 1631 3429 
Q 1922 3584 2338 3584 
Q 2397 3584 2469 3576 
Q 2541 3569 2628 3553 
L 2631 2963 
z
" transform="scale(0.015625)"/>
       <path id="DejaVuSans-44" d="M 2194 1759 
Q 1497 1759 1228 1600 
Q 959 1441 959 1056 
Q 959 750 1161 570 
Q 1363 391 1709 391 
Q 2188 391 2477 730 
Q 2766 1069 2766 1631 
L 2766 1759 
L 2194 1759 
z
M 3341 1997 
L 3341 0 
L 2766 0 
L 2766 531 
Q 2569 213 2275 61 
Q 1981 -91 1556 -91 
Q 1019 -91 701 211 
Q 384 513 384 1019 
Q 384 1609 779 1909 
Q 1175 2209 1959 2209 
L 2766 2209 
L 2766 2266 
Q 2766 2663 2505 2880 
Q 2244 3097 1772 3097 
Q 1472 3097 1187 3025 
Q 903 2953 641 2809 
L 641 3341 
Q 956 3463 1253 3523 
Q 1550 3584 1831 3584 
Q 2591 3584 2966 3190 
Q 3341 2797 3341 1997 
z
" transform="scale(0.015625)"/>
       <path id="DejaVuSans-46" d="M 3122 3366 
L 3122 2828 
Q 2878 2963 2633 3030 
Q 2388 3097 2138 3097 
Q 1578 3097 1268 2742 
Q 959 2388 959 1747 
Q 959 1106 1268 751 
Q 1578 397 2138 397 
Q 2388 397 2633 464 
Q 2878 531 3122 666 
L 3122 134 
Q 2881 22 2623 -34 
Q 2366 -91 2075 -91 
Q 1284 -91 818 406 
Q 353 903 353 1747 
Q 353 2603 823 3093 
Q 1294 3584 2113 3584 
Q 2378 3584 2631 3529 
Q 2884 3475 3122 3366 
z
" transform="scale(0.015625)"/>
       <path id="DejaVuSans-48" d="M 3597 1894 
L 3597 1613 
L 953 1613 
Q 991 1019 1311 708 
Q 1631 397 2203 397 
Q 2534 397 2845 478 
Q 3156 559 3463 722 
L 3463 178 
Q 3153 47 2828 -22 
Q 2503 -91 2169 -91 
Q 1331 -91 842 396 
Q 353 884 353 1716 
Q 353 2575 817 3079 
Q 1281 3584 2069 3584 
Q 2775 3584 3186 3129 
Q 3597 2675 3597 1894 
z
M 3022 2063 
Q 3016 2534 2758 2815 
Q 2500 3097 2075 3097 
Q 1594 3097 1305 2825 
Q 1016 2553 972 2059 
L 3022 2063 
z
" transform="scale(0.015625)"/>
       <path id="DejaVuSans-4f" d="M 603 4863 
L 1178 4863 
L 1178 0 
L 603 0 
L 603 4863 
z
" transform="scale(0.015625)"/>
       <path id="DejaVuSans-58" d="M 544 1381 
L 544 3500 
L 1119 3500 
L 1119 1403 
Q 1119 906 1312 657 
Q 1506 409 1894 409 
Q 2359 409 2629 706 
Q 2900 1003 2900 1516 
L 2900 3500 
L 3475 3500 
L 3475 0 
L 2900 0 
L 2900 538 
Q 2691 219 2414 64 
Q 2138 -91 1772 -91 
Q 1169 -91 856 284 
Q 544 659 544 1381 
z
M 1991 3584 
L 1991 3584 
z
" transform="scale(0.015625)"/>
       <path id="DejaVuSans-3" transform="scale(0.015625)"/>
       <path id="DejaVuSans-52" d="M 1959 3097 
Q 1497 3097 1228 2736 
Q 959 2375 959 1747 
Q 959 1119 1226 758 
Q 1494 397 1959 397 
Q 2419 397 2687 759 
Q 2956 1122 2956 1747 
Q 2956 2369 2687 2733 
Q 2419 3097 1959 3097 
z
M 1959 3584 
Q 2709 3584 3137 3096 
Q 3566 2609 3566 1747 
Q 3566 888 3137 398 
Q 2709 -91 1959 -91 
Q 1206 -91 779 398 
Q 353 888 353 1747 
Q 353 2609 779 3096 
Q 1206 3584 1959 3584 
z
" transform="scale(0.015625)"/>
       <path id="DejaVuSans-56" d="M 2834 3397 
L 2834 2853 
Q 2591 2978 2328 3040 
Q 2066 3103 1784 3103 
Q 1356 3103 1142 2972 
Q 928 2841 928 2578 
Q 928 2378 1081 2264 
Q 1234 2150 1697 2047 
L 1894 2003 
Q 2506 1872 2764 1633 
Q 3022 1394 3022 966 
Q 3022 478 2636 193 
Q 2250 -91 1575 -91 
Q 1294 -91 989 -36 
Q 684 19 347 128 
L 347 722 
Q 666 556 975 473 
Q 1284 391 1588 391 
Q 1994 391 2212 530 
Q 2431 669 2431 922 
Q 2431 1156 2273 1281 
Q 2116 1406 1581 1522 
L 1381 1569 
Q 847 1681 609 1914 
Q 372 2147 372 2553 
Q 372 3047 722 3315 
Q 1072 3584 1716 3584 
Q 2034 3584 2315 3537 
Q 2597 3491 2834 3397 
z
" transform="scale(0.015625)"/>
      </defs>
      <use xlink:href="#DejaVuSans-28"/>
      <use xlink:href="#DejaVuSans-5b" transform="translate(63.1875 0)"/>
      <use xlink:href="#DejaVuSans-57" transform="translate(122.375 0)"/>
      <use xlink:href="#DejaVuSans-55" transform="translate(161.578125 0)"/>
      <use xlink:href="#DejaVuSans-44" transform="translate(202.6875 0)"/>
      <use xlink:href="#DejaVuSans-46" transform="translate(263.96875 0)"/>
      <use xlink:href="#DejaVuSans-48" transform="translate(318.953125 0)"/>
      <use xlink:href="#DejaVuSans-4f" transform="translate(380.484375 0)"/>
      <use xlink:href="#DejaVuSans-4f" transform="translate(408.265625 0)"/>
      <use xlink:href="#DejaVuSans-58" transform="translate(436.046875 0)"/>
      <use xlink:href="#DejaVuSans-4f" transform="translate(499.421875 0)"/>
      <use xlink:href="#DejaVuSans-44" transform="translate(527.203125 0)"/>
      <use xlink:href="#DejaVuSans-55" transform="translate(588.484375 0)"/>
      <use xlink:href="#DejaVuSans-3" transform="translate(629.59375 0)"/>
      <use xlink:href="#DejaVuSans-4f" transform="translate(661.375 0)"/>
      <use xlink:href="#DejaVuSans-44" transform="translate(689.15625 0)"/>
      <use xlink:href="#DejaVuSans-46" transform="translate(750.4375 0)"/>
      <use xlink:href="#DejaVuSans-57" transform="translate(805.421875 0)"/>
      <use xlink:href="#DejaVuSans-52" transform="translate(844.625 0)"/>
      <use xlink:href="#DejaVuSans-56" transform="translate(905.8125 0)"/>
      <use xlink:href="#DejaVuSans-48" transform="translate(957.90625 0)"/>
     </g>
    </g>
   </g>
   <g id="line2d_13">
    <path d="M 56.88098 92.472021 
L 156.230215 92.472021 
L 156.319333 11.260572 
L 156.987474 11.341784 
L 157.105188 11.66663 
L 157.150013 11.747841 
L 157.29624 13.209647 
L 157.414608 14.833876 
L 157.42844 14.915088 
L 157.571985 16.620528 
L 157.59554 16.701739 
L 158.105235 20.193832 
L 158.507277 20.924735 
L 158.608782 21.005946 
L 158.776189 21.899272 
L 158.7875 21.980484 
L 158.903205 22.711387 
L 158.914041 22.792598 
L 159.04337 24.173193 
L 160.137147 31.076166 
L 160.252206 31.725857 
L 160.274439 31.807069 
L 160.361893 32.375549 
L 160.457276 32.45676 
L 160.569412 33.268875 
L 160.574468 33.350086 
L 160.70689 34.324624 
L 160.711316 34.405835 
L 160.823758 34.811892 
L 161.042456 36.436121 
L 161.083431 36.517333 
L 161.194461 37.573082 
L 161.502089 39.116099 
L 161.535754 39.197311 
L 161.620481 39.359733 
L 161.719709 39.440945 
L 161.834867 39.765791 
L 161.887725 39.847002 
L 161.999688 40.009425 
L 162.219677 40.659117 
L 162.291579 40.740328 
L 162.53901 41.552443 
L 163.539994 41.633654 
L 163.789087 42.52698 
L 163.805657 42.608191 
L 164.373167 45.125746 
L 165.066843 48.455416 
L 165.221321 49.186319 
L 165.328842 49.754799 
L 165.595943 50.810548 
L 165.642742 50.891759 
L 165.730931 51.135393 
L 166.507619 53.490525 
L 166.789329 54.465063 
L 166.819755 54.546274 
L 166.895839 54.708697 
L 167.008085 55.033543 
L 167.129098 55.683235 
L 167.169384 55.764446 
L 167.256238 56.332926 
L 167.290452 56.414138 
L 167.756773 58.76927 
L 167.814824 58.850481 
L 168.045179 60.068653 
L 168.112282 60.149864 
L 168.259211 60.312287 
L 168.546538 60.393499 
L 168.736387 60.799556 
L 168.783927 60.880767 
L 168.895319 61.449247 
L 169.040166 61.530459 
L 169.166677 61.855305 
L 169.301613 61.936516 
L 169.380527 62.098939 
L 169.605738 62.261362 
L 169.685185 62.342573 
L 170.505356 64.129225 
L 170.624209 64.697705 
L 170.649016 64.778917 
L 170.90446 66.0783 
L 170.934682 66.159511 
L 171.077188 66.727991 
L 171.082913 66.809203 
L 171.185222 67.458894 
L 171.286979 67.540106 
L 171.381784 67.78374 
L 171.430381 67.864952 
L 171.544307 68.189798 
L 171.56138 68.271009 
L 171.810296 69.083123 
L 171.832121 69.164335 
L 172.506405 70.463718 
L 172.687791 70.54493 
L 172.783436 70.707352 
L 173.349131 71.357044 
L 173.459434 71.519467 
L 173.864417 71.600678 
L 174.029139 72.087947 
L 174.085188 72.169158 
L 174.381427 72.900062 
L 174.582375 73.143696 
L 174.699416 73.306119 
L 174.822649 73.38733 
L 174.986179 73.874599 
L 175.13295 74.361868 
L 175.193939 74.443079 
L 175.3086 74.686713 
L 175.402078 74.767925 
L 175.658814 75.336405 
L 175.750031 75.417616 
L 175.82725 75.580039 
L 176.437925 75.661251 
L 176.522911 75.742462 
L 176.633161 75.823674 
L 176.72729 75.904885 
L 178.017627 75.986097 
L 178.567273 77.123057 
L 178.688223 77.204268 
L 178.872179 77.691537 
L 179.040891 77.772748 
L 179.119777 77.85396 
L 179.8048 78.584863 
L 179.907798 79.234554 
L 179.960605 79.315766 
L 180.080339 79.478189 
L 180.227833 79.5594 
L 180.33415 79.803035 
L 180.799274 80.533938 
L 180.827046 80.615149 
L 180.937897 80.939995 
L 181.053754 81.021206 
L 181.144128 81.264841 
L 181.253247 81.346052 
L 181.465397 81.995744 
L 181.509778 82.076955 
L 181.652285 82.239378 
L 181.782341 82.320589 
L 181.96348 82.726647 
L 182.469208 82.807858 
L 182.526039 82.88907 
L 183.685434 82.970281 
L 183.856999 83.051493 
L 184.232612 83.132704 
L 184.305259 83.213915 
L 184.456345 83.295127 
L 184.666268 83.45755 
L 184.736518 83.538761 
L 185.340543 83.619973 
L 185.454867 83.782396 
L 185.73308 83.863607 
L 185.930516 84.02603 
L 186.004869 84.107241 
L 186.102255 84.188453 
L 186.475159 84.350876 
L 186.509185 84.432087 
L 186.670837 84.59451 
L 186.983099 84.675721 
L 187.139055 84.838144 
L 187.46762 84.919356 
L 187.509784 85.000567 
L 188.212534 85.081779 
L 188.310818 85.16299 
L 188.886943 85.244202 
L 189.019957 85.325413 
L 189.923296 85.406625 
L 190.099834 85.569047 
L 190.496515 85.650259 
L 190.582621 85.893893 
L 190.980244 85.975105 
L 191.076117 86.218739 
L 191.246741 86.29995 
L 191.386221 86.381162 
L 191.710251 86.462373 
L 191.841299 86.624796 
L 192.348652 86.706008 
L 192.956514 87.030853 
L 193.090375 87.193276 
L 193.409461 87.274488 
L 193.653666 87.355699 
L 194.258773 87.436911 
L 194.646066 87.680545 
L 195.200197 87.761757 
L 195.349448 87.924179 
L 195.41692 88.005391 
L 195.552792 88.086602 
L 195.793277 88.411448 
L 195.962254 88.49266 
L 196.081934 88.736294 
L 196.600243 88.817505 
L 196.741561 88.898717 
L 197.05665 88.979928 
L 197.319212 89.223563 
L 197.797428 89.304774 
L 197.90365 89.385985 
L 198.561956 89.467197 
L 198.76168 89.62962 
L 199.647523 89.710831 
L 199.965481 89.873254 
L 243.075674 89.954466 
L 243.919582 90.035677 
L 244.663133 90.116889 
L 249.987894 90.279311 
L 280.31327 90.360523 
L 281.213111 90.441734 
L 310.711584 90.522946 
L 310.881264 90.685369 
L 312.422447 90.685369 
L 312.422447 90.685369 
" clip-path="url(#p70d766f263)" style="fill: none; stroke: #000000; stroke-width: 1.5; stroke-linecap: square"/>
   </g>
   <g id="patch_3">
    <path d="M 44.103906 96.532593 
L 44.103906 7.2 
" style="fill: none; stroke: #000000; stroke-width: 0.8; stroke-linejoin: miter; stroke-linecap: square"/>
   </g>
   <g id="patch_4">
    <path d="M 325.19952 96.532593 
L 325.19952 7.2 
" style="fill: none; stroke: #000000; stroke-width: 0.8; stroke-linejoin: miter; stroke-linecap: square"/>
   </g>
   <g id="patch_5">
    <path d="M 44.103906 96.532593 
L 325.19952 96.532593 
" style="fill: none; stroke: #000000; stroke-width: 0.8; stroke-linejoin: miter; stroke-linecap: square"/>
   </g>
   <g id="patch_6">
    <path d="M 44.103906 7.2 
L 325.19952 7.2 
" style="fill: none; stroke: #000000; stroke-width: 0.8; stroke-linejoin: miter; stroke-linecap: square"/>
   </g>
  </g>
  <g id="axes_2">
   <g id="patch_7">
    <path d="M 44.103906 195.365666 
L 325.19952 195.365666 
L 325.19952 106.033073 
L 44.103906 106.033073 
z
" style="fill: #ffffff"/>
   </g>
   <g id="matplotlib.axis_3">
    <g id="xtick_10">
     <g id="line2d_14">
      <g>
       <use xlink:href="#me02b3a51aa" x="56.88098" y="195.365666" style="stroke: #000000; stroke-width: 0.8"/>
      </g>
     </g>
    </g>
    <g id="xtick_11">
     <g id="line2d_15">
      <g>
       <use xlink:href="#me02b3a51aa" x="88.818949" y="195.365666" style="stroke: #000000; stroke-width: 0.8"/>
      </g>
     </g>
    </g>
    <g id="xtick_12">
     <g id="line2d_16">
      <g>
       <use xlink:href="#me02b3a51aa" x="120.756919" y="195.365666" style="stroke: #000000; stroke-width: 0.8"/>
      </g>
     </g>
    </g>
    <g id="xtick_13">
     <g id="line2d_17">
      <g>
       <use xlink:href="#me02b3a51aa" x="152.694889" y="195.365666" style="stroke: #000000; stroke-width: 0.8"/>
      </g>
     </g>
    </g>
    <g id="xtick_14">
     <g id="line2d_18">
      <g>
       <use xlink:href="#me02b3a51aa" x="184.632858" y="195.365666" style="stroke: #000000; stroke-width: 0.8"/>
      </g>
     </g>
    </g>
    <g id="xtick_15">
     <g id="line2d_19">
      <g>
       <use xlink:href="#me02b3a51aa" x="216.570828" y="195.365666" style="stroke: #000000; stroke-width: 0.8"/>
      </g>
     </g>
    </g>
    <g id="xtick_16">
     <g id="line2d_20">
      <g>
       <use xlink:href="#me02b3a51aa" x="248.508798" y="195.365666" style="stroke: #000000; stroke-width: 0.8"/>
      </g>
     </g>
    </g>
    <g id="xtick_17">
     <g id="line2d_21">
      <g>
       <use xlink:href="#me02b3a51aa" x="280.446768" y="195.365666" style="stroke: #000000; stroke-width: 0.8"/>
      </g>
     </g>
    </g>
    <g id="xtick_18">
     <g id="line2d_22">
      <g>
       <use xlink:href="#me02b3a51aa" x="312.384737" y="195.365666" style="stroke: #000000; stroke-width: 0.8"/>
      </g>
     </g>
    </g>
   </g>
   <g id="matplotlib.axis_4">
    <g id="ytick_4">
     <g id="line2d_23">
      <g>
       <use xlink:href="#m2a82756754" x="44.103906" y="191.305093" style="stroke: #000000; stroke-width: 0.8"/>
      </g>
     </g>
     <g id="text_5">
      <!-- 0 -->
      <g transform="translate(30.741406 195.103922) scale(0.1 -0.1)">
       <use xlink:href="#DejaVuSans-13"/>
      </g>
     </g>
    </g>
    <g id="ytick_5">
     <g id="line2d_24">
      <g>
       <use xlink:href="#m2a82756754" x="44.103906" y="150.699369" style="stroke: #000000; stroke-width: 0.8"/>
      </g>
     </g>
     <g id="text_6">
      <!-- 5 -->
      <g transform="translate(30.741406 154.498197) scale(0.1 -0.1)">
       <use xlink:href="#DejaVuSans-18"/>
      </g>
     </g>
    </g>
    <g id="ytick_6">
     <g id="line2d_25">
      <g>
       <use xlink:href="#m2a82756754" x="44.103906" y="110.093645" style="stroke: #000000; stroke-width: 0.8"/>
      </g>
     </g>
     <g id="text_7">
      <!-- 10 -->
      <g transform="translate(24.378906 113.892473) scale(0.1 -0.1)">
       <use xlink:href="#DejaVuSans-14"/>
       <use xlink:href="#DejaVuSans-13" transform="translate(63.625 0)"/>
      </g>
     </g>
    </g>
    <g id="text_8">
     <!-- LacY -->
     <g transform="translate(17.976563 162.352494) rotate(-90) scale(0.1 -0.1)">
      <defs>
       <path id="DejaVuSans-2f" d="M 628 4666 
L 1259 4666 
L 1259 531 
L 3531 531 
L 3531 0 
L 628 0 
L 628 4666 
z
" transform="scale(0.015625)"/>
       <path id="DejaVuSans-3c" d="M -13 4666 
L 666 4666 
L 1959 2747 
L 3244 4666 
L 3922 4666 
L 2272 2222 
L 2272 0 
L 1638 0 
L 1638 2222 
L -13 4666 
z
" transform="scale(0.015625)"/>
      </defs>
      <use xlink:href="#DejaVuSans-2f"/>
      <use xlink:href="#DejaVuSans-44" transform="translate(55.71875 0)"/>
      <use xlink:href="#DejaVuSans-46" transform="translate(117 0)"/>
      <use xlink:href="#DejaVuSans-3c" transform="translate(171.984375 0)"/>
     </g>
    </g>
   </g>
   <g id="line2d_26">
    <path d="M 56.88098 110.093645 
L 56.908128 110.093645 
L 56.962666 118.21479 
L 57.070917 134.45708 
L 57.131307 142.578225 
L 57.283533 142.578225 
L 57.301244 134.45708 
L 57.522006 142.578225 
L 57.663983 142.578225 
L 57.834768 158.820514 
L 58.135905 175.062804 
L 58.201576 191.305093 
L 59.732769 191.305093 
L 59.899521 183.183949 
L 59.942297 191.305093 
L 64.968821 191.305093 
L 65.292032 183.183949 
L 65.402072 191.305093 
L 82.912026 191.305093 
L 83.106586 183.183949 
L 84.901313 191.305093 
L 84.91615 183.183949 
L 85.05947 175.062804 
L 85.064128 166.941659 
L 85.386543 175.062804 
L 85.613686 175.062804 
L 85.733414 191.305093 
L 85.794282 183.183949 
L 85.984659 183.183949 
L 86.123254 191.305093 
L 90.018554 191.305093 
L 90.408661 175.062804 
L 90.409963 166.941659 
L 90.908993 166.941659 
L 90.947692 183.183949 
L 91.720446 183.183949 
L 91.889503 175.062804 
L 92.234066 191.305093 
L 109.252673 191.305093 
L 109.358454 183.183949 
L 109.478256 183.183949 
L 109.61746 191.305093 
L 109.852648 191.305093 
L 109.894166 183.183949 
L 110.310459 183.183949 
L 110.660666 175.062804 
L 110.719061 183.183949 
L 110.894469 183.183949 
L 110.924071 191.305093 
L 119.690806 191.305093 
L 119.869378 183.183949 
L 121.971388 183.183949 
L 123.820409 191.305093 
L 131.594958 191.305093 
L 131.781381 183.183949 
L 132.069185 183.183949 
L 132.177053 191.305093 
L 136.516524 191.305093 
L 136.600325 183.183949 
L 136.622209 191.305093 
L 146.623353 191.305093 
L 146.884419 175.062804 
L 146.905269 183.183949 
L 146.934301 175.062804 
L 147.047509 166.941659 
L 147.052854 175.062804 
L 147.638094 175.062804 
L 148.255801 183.183949 
L 148.501343 183.183949 
L 148.816876 175.062804 
L 148.929856 175.062804 
L 150.002688 191.305093 
L 150.463254 191.305093 
L 150.515179 175.062804 
L 150.616141 175.062804 
L 150.769105 183.183949 
L 150.902939 183.183949 
L 151.446313 191.305093 
L 156.569168 191.305093 
L 156.997821 183.183949 
L 157.238321 150.699369 
L 157.520203 150.699369 
L 157.640414 166.941659 
L 157.690326 166.941659 
L 157.791313 158.820514 
L 157.878367 158.820514 
L 157.988269 175.062804 
L 158.016494 175.062804 
L 158.105235 183.183949 
L 158.370243 183.183949 
L 158.422349 175.062804 
L 158.467398 183.183949 
L 158.613941 183.183949 
L 158.727978 166.941659 
L 158.752707 166.941659 
L 158.858793 158.820514 
L 158.970467 158.820514 
L 159.084019 166.941659 
L 159.205217 166.941659 
L 159.314487 183.183949 
L 159.387716 183.183949 
L 159.50814 175.062804 
L 159.644687 175.062804 
L 159.788824 158.820514 
L 159.998989 158.820514 
L 160.11621 150.699369 
L 160.239419 150.699369 
L 160.271421 166.941659 
L 160.354366 158.820514 
L 160.439813 158.820514 
L 160.460361 142.578225 
L 160.546171 158.820514 
L 160.781034 158.820514 
L 160.8076 166.941659 
L 160.843904 150.699369 
L 160.882765 158.820514 
L 160.976252 158.820514 
L 161.058689 175.062804 
L 161.088131 166.941659 
L 161.248189 166.941659 
L 161.291019 158.820514 
L 161.356008 166.941659 
L 161.455991 166.941659 
L 161.57199 183.183949 
L 161.620481 183.183949 
L 161.744574 166.941659 
L 161.77734 175.062804 
L 161.891294 183.183949 
L 161.911901 183.183949 
L 162.031065 166.941659 
L 162.06534 166.941659 
L 162.162734 175.062804 
L 162.331288 175.062804 
L 162.457714 183.183949 
L 162.547517 183.183949 
L 162.690439 191.305093 
L 163.296462 191.305093 
L 163.414412 183.183949 
L 163.827511 183.183949 
L 163.949014 158.820514 
L 163.956149 158.820514 
L 164.044389 166.941659 
L 164.277928 166.941659 
L 164.396508 150.699369 
L 164.490532 150.699369 
L 164.599482 166.941659 
L 164.707384 166.941659 
L 164.812709 175.062804 
L 164.844138 175.062804 
L 164.861644 166.941659 
L 164.953594 175.062804 
L 165.172499 175.062804 
L 165.287135 166.941659 
L 165.315115 166.941659 
L 165.408601 158.820514 
L 165.539953 158.820514 
L 165.560727 166.941659 
L 165.643621 158.820514 
L 165.678894 158.820514 
L 165.769233 175.062804 
L 165.806734 175.062804 
L 165.914365 183.183949 
L 166.116759 183.183949 
L 166.233035 166.941659 
L 166.733925 166.941659 
L 166.778468 150.699369 
L 166.831873 158.820514 
L 167.04283 158.820514 
L 167.13798 166.941659 
L 167.501807 166.941659 
L 167.629707 158.820514 
L 167.737593 158.820514 
L 167.851701 166.941659 
L 168.068137 166.941659 
L 168.158162 175.062804 
L 168.210789 175.062804 
L 168.337252 183.183949 
L 168.461797 183.183949 
L 168.563018 175.062804 
L 168.623705 175.062804 
L 168.746813 166.941659 
L 168.813608 166.941659 
L 168.895319 175.062804 
L 168.940745 175.062804 
L 168.946278 183.183949 
L 169.046748 175.062804 
L 169.155356 175.062804 
L 169.231425 183.183949 
L 169.26542 175.062804 
L 169.44078 175.062804 
L 169.539304 183.183949 
L 169.849672 183.183949 
L 169.968109 175.062804 
L 170.286003 175.062804 
L 170.41972 150.699369 
L 171.077188 150.699369 
L 171.158069 134.45708 
L 171.185222 150.699369 
L 171.326572 150.699369 
L 171.432621 158.820514 
L 171.694996 158.820514 
L 171.803327 166.941659 
L 171.867956 166.941659 
L 171.969676 175.062804 
L 171.977122 166.941659 
L 172.206995 166.941659 
L 172.316362 183.183949 
L 172.324496 175.062804 
L 172.392993 175.062804 
L 172.506405 183.183949 
L 172.574995 183.183949 
L 172.718048 175.062804 
L 172.774582 175.062804 
L 172.869203 183.183949 
L 173.654972 183.183949 
L 173.732742 191.305093 
L 173.849956 191.305093 
L 173.960011 166.941659 
L 174.077199 166.941659 
L 174.189139 158.820514 
L 174.225955 158.820514 
L 174.23029 150.699369 
L 174.326067 166.941659 
L 174.330317 166.941659 
L 174.567054 166.941659 
L 174.669701 175.062804 
L 174.913254 175.062804 
L 175.043882 166.941659 
L 175.13295 166.941659 
L 175.252479 175.062804 
L 175.3086 175.062804 
L 175.431987 166.941659 
L 175.478319 166.941659 
L 175.523819 175.062804 
L 175.547743 166.941659 
L 175.667012 158.820514 
L 175.769348 175.062804 
L 175.930411 175.062804 
L 176.034553 183.183949 
L 176.03871 175.062804 
L 176.127838 175.062804 
L 176.227374 191.305093 
L 176.232247 183.183949 
L 176.288381 183.183949 
L 176.438244 175.062804 
L 176.704588 175.062804 
L 176.816565 191.305093 
L 177.54729 191.305093 
L 177.666451 175.062804 
L 177.853569 183.183949 
L 177.889733 183.183949 
L 178.000354 175.062804 
L 178.048487 183.183949 
L 178.109837 175.062804 
L 178.280521 175.062804 
L 178.417226 158.820514 
L 178.560936 158.820514 
L 178.674526 150.699369 
L 178.774663 150.699369 
L 178.774976 142.578225 
L 178.872179 158.820514 
L 178.905881 158.820514 
L 178.954314 150.699369 
L 178.961762 158.820514 
L 179.080491 166.941659 
L 179.206842 166.941659 
L 179.332156 175.062804 
L 179.435338 166.941659 
L 179.580602 166.941659 
L 179.678489 175.062804 
L 179.936127 126.335935 
L 179.94697 134.45708 
L 179.966987 134.45708 
L 180.080339 158.820514 
L 180.213224 142.578225 
L 180.811709 142.578225 
L 180.915595 134.45708 
L 181.0048 134.45708 
L 181.006048 142.578225 
L 181.099418 134.45708 
L 181.268514 150.699369 
L 181.698964 150.699369 
L 181.855357 166.941659 
L 181.96348 166.941659 
L 182.038229 175.062804 
L 182.111738 175.062804 
L 182.180899 183.183949 
L 182.497991 183.183949 
L 182.526039 191.305093 
L 183.274937 191.305093 
L 183.532079 183.183949 
L 183.856999 183.183949 
L 183.97759 175.062804 
L 184.381554 175.062804 
L 184.456345 183.183949 
L 184.809762 183.183949 
L 184.985985 175.062804 
L 185.177072 175.062804 
L 185.282994 183.183949 
L 185.452889 166.941659 
L 185.53787 175.062804 
L 185.607828 183.183949 
L 185.779229 166.941659 
L 185.845574 166.941659 
L 185.926659 150.699369 
L 186.004869 158.820514 
L 186.054068 158.820514 
L 186.203813 175.062804 
L 186.359124 158.820514 
L 186.361942 166.941659 
L 186.45412 158.820514 
L 186.471584 150.699369 
L 186.534848 166.941659 
L 186.544876 166.941659 
L 186.55406 166.941659 
L 186.670837 175.062804 
L 186.820626 166.941659 
L 186.865156 166.941659 
L 186.911061 175.062804 
L 186.951689 166.941659 
L 187.139055 166.941659 
L 187.139498 175.062804 
L 187.275354 175.062804 
L 187.381046 166.941659 
L 187.509784 175.062804 
L 187.656907 175.062804 
L 187.743483 191.305093 
L 187.868501 183.183949 
L 188.310818 183.183949 
L 188.555799 175.062804 
L 188.867322 175.062804 
L 188.952567 166.941659 
L 188.957244 175.062804 
L 189.005158 175.062804 
L 189.104475 183.183949 
L 189.404345 183.183949 
L 189.557051 191.305093 
L 189.868916 166.941659 
L 190.008225 175.062804 
L 190.099834 175.062804 
L 190.12264 166.941659 
L 190.181417 175.062804 
L 190.470897 183.183949 
L 190.614733 158.820514 
L 190.779858 158.820514 
L 190.87991 175.062804 
L 190.900914 166.941659 
L 191.076117 158.820514 
L 191.246741 166.941659 
L 191.340293 166.941659 
L 191.386221 158.820514 
L 191.519004 166.941659 
L 191.529314 175.062804 
L 191.73161 166.941659 
L 191.813978 166.941659 
L 191.908283 183.183949 
L 192.085892 175.062804 
L 192.160244 175.062804 
L 192.257702 183.183949 
L 192.348652 166.941659 
L 192.977151 166.941659 
L 193.090375 175.062804 
L 193.178063 183.183949 
L 193.280818 175.062804 
L 193.508345 175.062804 
L 193.653666 191.305093 
L 193.918369 191.305093 
L 193.958115 183.183949 
L 194.075277 183.183949 
L 194.222148 191.305093 
L 194.342877 183.183949 
L 194.558555 183.183949 
L 194.633015 191.305093 
L 194.646066 183.183949 
L 194.820567 183.183949 
L 194.835531 166.941659 
L 195.127645 166.941659 
L 195.200197 158.820514 
L 195.35611 158.820514 
L 195.41692 142.578225 
L 195.590128 142.578225 
L 195.632122 150.699369 
L 195.642327 142.578225 
L 195.765717 142.578225 
L 195.837193 158.820514 
L 195.881154 150.699369 
L 195.942919 158.820514 
L 196.00371 158.820514 
L 196.081934 166.941659 
L 196.130021 158.820514 
L 196.215469 166.941659 
L 196.430085 166.941659 
L 196.593746 158.820514 
L 196.707284 166.941659 
L 196.741561 166.941659 
L 196.861207 150.699369 
L 197.102787 142.578225 
L 197.15229 142.578225 
L 197.21438 126.335935 
L 197.283715 126.335935 
L 197.319212 118.21479 
L 197.39256 142.578225 
L 197.40662 150.699369 
L 197.503151 142.578225 
L 197.565035 142.578225 
L 197.641772 150.699369 
L 197.776275 150.699369 
L 197.893196 158.820514 
L 198.019809 158.820514 
L 198.099082 166.941659 
L 198.182182 166.941659 
L 198.426921 175.062804 
L 198.61226 175.062804 
L 198.674625 166.941659 
L 198.701371 175.062804 
L 198.76168 175.062804 
L 198.851021 166.941659 
L 198.862386 175.062804 
L 198.890531 175.062804 
L 198.93538 183.183949 
L 198.949325 166.941659 
L 199.049286 175.062804 
L 199.282402 183.183949 
L 199.291043 191.305093 
L 199.559682 191.305093 
L 199.753124 183.183949 
L 199.965481 183.183949 
L 200.124741 191.305093 
L 210.966855 191.305093 
L 211.304687 183.183949 
L 211.348071 191.305093 
L 219.263216 191.305093 
L 219.714763 183.183949 
L 219.864348 183.183949 
L 220.045312 191.305093 
L 227.081003 191.305093 
L 227.450415 183.183949 
L 227.554073 191.305093 
L 233.0792 191.305093 
L 233.116921 183.183949 
L 233.355074 175.062804 
L 233.544301 183.183949 
L 233.87919 183.183949 
L 234.513834 191.305093 
L 238.833287 191.305093 
L 239.107337 183.183949 
L 239.222672 175.062804 
L 239.392892 191.305093 
L 240.901489 191.305093 
L 241.017492 183.183949 
L 241.188305 191.305093 
L 241.428102 183.183949 
L 241.590163 183.183949 
L 241.615481 191.305093 
L 241.802119 191.305093 
L 241.847242 183.183949 
L 242.126676 183.183949 
L 242.155572 191.305093 
L 242.660301 183.183949 
L 243.692792 183.183949 
L 243.745117 191.305093 
L 243.765051 183.183949 
L 243.820334 183.183949 
L 243.889297 175.062804 
L 243.919582 183.183949 
L 247.020873 183.183949 
L 247.373841 191.305093 
L 249.402072 191.305093 
L 249.590663 183.183949 
L 249.712696 191.305093 
L 260.208827 191.305093 
L 260.358995 183.183949 
L 260.584352 191.305093 
L 275.950612 191.305093 
L 276.278491 183.183949 
L 276.413043 183.183949 
L 276.451389 191.305093 
L 276.632866 183.183949 
L 277.166452 183.183949 
L 277.334107 175.062804 
L 277.414235 183.183949 
L 277.717429 183.183949 
L 277.881153 191.305093 
L 280.001758 191.305093 
L 280.31327 183.183949 
L 280.882042 183.183949 
L 281.213111 191.305093 
L 292.980873 191.305093 
L 293.161294 183.183949 
L 293.24489 166.941659 
L 293.412864 166.941659 
L 293.533607 175.062804 
L 294.408445 191.305093 
L 295.663343 191.305093 
L 295.969558 183.183949 
L 296.116224 183.183949 
L 296.201438 191.305093 
L 309.788136 191.305093 
L 310.025229 166.941659 
L 310.24552 191.305093 
L 310.380721 175.062804 
L 310.413913 183.183949 
L 310.501207 183.183949 
L 310.570824 175.062804 
L 310.767068 183.183949 
L 310.990344 166.941659 
L 311.089655 183.183949 
L 311.193048 175.062804 
L 311.449364 175.062804 
L 311.467063 166.941659 
L 311.555568 175.062804 
L 312.068253 175.062804 
L 312.205709 183.183949 
L 312.422447 183.183949 
L 312.422447 183.183949 
" clip-path="url(#p1dca85cff8)" style="fill: none; stroke: #000000; stroke-width: 1.5; stroke-linecap: square"/>
   </g>
   <g id="patch_8">
    <path d="M 44.103906 195.365666 
L 44.103906 106.033073 
" style="fill: none; stroke: #000000; stroke-width: 0.8; stroke-linejoin: miter; stroke-linecap: square"/>
   </g>
   <g id="patch_9">
    <path d="M 325.19952 195.365666 
L 325.19952 106.033073 
" style="fill: none; stroke: #000000; stroke-width: 0.8; stroke-linejoin: miter; stroke-linecap: square"/>
   </g>
   <g id="patch_10">
    <path d="M 44.103906 195.365666 
L 325.19952 195.365666 
" style="fill: none; stroke: #000000; stroke-width: 0.8; stroke-linejoin: miter; stroke-linecap: square"/>
   </g>
   <g id="patch_11">
    <path d="M 44.103906 106.033073 
L 325.19952 106.033073 
" style="fill: none; stroke: #000000; stroke-width: 0.8; stroke-linejoin: miter; stroke-linecap: square"/>
   </g>
  </g>
  <g id="axes_3">
   <g id="patch_12">
    <path d="M 44.103906 294.198739 
L 325.19952 294.198739 
L 325.19952 204.866146 
L 44.103906 204.866146 
z
" style="fill: #ffffff"/>
   </g>
   <g id="matplotlib.axis_5">
    <g id="xtick_19">
     <g id="line2d_27">
      <g>
       <use xlink:href="#me02b3a51aa" x="56.88098" y="294.198739" style="stroke: #000000; stroke-width: 0.8"/>
      </g>
     </g>
     <g id="text_9">
      <!-- 0 -->
      <g transform="translate(53.69973 308.796395) scale(0.1 -0.1)">
       <use xlink:href="#DejaVuSans-13"/>
      </g>
     </g>
    </g>
    <g id="xtick_20">
     <g id="line2d_28">
      <g>
       <use xlink:href="#me02b3a51aa" x="88.818949" y="294.198739" style="stroke: #000000; stroke-width: 0.8"/>
      </g>
     </g>
     <g id="text_10">
      <!-- 100 -->
      <g transform="translate(79.275199 308.796395) scale(0.1 -0.1)">
       <use xlink:href="#DejaVuSans-14"/>
       <use xlink:href="#DejaVuSans-13" transform="translate(63.625 0)"/>
       <use xlink:href="#DejaVuSans-13" transform="translate(127.25 0)"/>
      </g>
     </g>
    </g>
    <g id="xtick_21">
     <g id="line2d_29">
      <g>
       <use xlink:href="#me02b3a51aa" x="120.756919" y="294.198739" style="stroke: #000000; stroke-width: 0.8"/>
      </g>
     </g>
     <g id="text_11">
      <!-- 200 -->
      <g transform="translate(111.213169 308.796395) scale(0.1 -0.1)">
       <defs>
        <path id="DejaVuSans-15" d="M 1228 531 
L 3431 531 
L 3431 0 
L 469 0 
L 469 531 
Q 828 903 1448 1529 
Q 2069 2156 2228 2338 
Q 2531 2678 2651 2914 
Q 2772 3150 2772 3378 
Q 2772 3750 2511 3984 
Q 2250 4219 1831 4219 
Q 1534 4219 1204 4116 
Q 875 4013 500 3803 
L 500 4441 
Q 881 4594 1212 4672 
Q 1544 4750 1819 4750 
Q 2544 4750 2975 4387 
Q 3406 4025 3406 3419 
Q 3406 3131 3298 2873 
Q 3191 2616 2906 2266 
Q 2828 2175 2409 1742 
Q 1991 1309 1228 531 
z
" transform="scale(0.015625)"/>
       </defs>
       <use xlink:href="#DejaVuSans-15"/>
       <use xlink:href="#DejaVuSans-13" transform="translate(63.625 0)"/>
       <use xlink:href="#DejaVuSans-13" transform="translate(127.25 0)"/>
      </g>
     </g>
    </g>
    <g id="xtick_22">
     <g id="line2d_30">
      <g>
       <use xlink:href="#me02b3a51aa" x="152.694889" y="294.198739" style="stroke: #000000; stroke-width: 0.8"/>
      </g>
     </g>
     <g id="text_12">
      <!-- 300 -->
      <g transform="translate(143.151139 308.796395) scale(0.1 -0.1)">
       <defs>
        <path id="DejaVuSans-16" d="M 2597 2516 
Q 3050 2419 3304 2112 
Q 3559 1806 3559 1356 
Q 3559 666 3084 287 
Q 2609 -91 1734 -91 
Q 1441 -91 1130 -33 
Q 819 25 488 141 
L 488 750 
Q 750 597 1062 519 
Q 1375 441 1716 441 
Q 2309 441 2620 675 
Q 2931 909 2931 1356 
Q 2931 1769 2642 2001 
Q 2353 2234 1838 2234 
L 1294 2234 
L 1294 2753 
L 1863 2753 
Q 2328 2753 2575 2939 
Q 2822 3125 2822 3475 
Q 2822 3834 2567 4026 
Q 2313 4219 1838 4219 
Q 1578 4219 1281 4162 
Q 984 4106 628 3988 
L 628 4550 
Q 988 4650 1302 4700 
Q 1616 4750 1894 4750 
Q 2613 4750 3031 4423 
Q 3450 4097 3450 3541 
Q 3450 3153 3228 2886 
Q 3006 2619 2597 2516 
z
" transform="scale(0.015625)"/>
       </defs>
       <use xlink:href="#DejaVuSans-16"/>
       <use xlink:href="#DejaVuSans-13" transform="translate(63.625 0)"/>
       <use xlink:href="#DejaVuSans-13" transform="translate(127.25 0)"/>
      </g>
     </g>
    </g>
    <g id="xtick_23">
     <g id="line2d_31">
      <g>
       <use xlink:href="#me02b3a51aa" x="184.632858" y="294.198739" style="stroke: #000000; stroke-width: 0.8"/>
      </g>
     </g>
     <g id="text_13">
      <!-- 400 -->
      <g transform="translate(175.089108 308.796395) scale(0.1 -0.1)">
       <defs>
        <path id="DejaVuSans-17" d="M 2419 4116 
L 825 1625 
L 2419 1625 
L 2419 4116 
z
M 2253 4666 
L 3047 4666 
L 3047 1625 
L 3713 1625 
L 3713 1100 
L 3047 1100 
L 3047 0 
L 2419 0 
L 2419 1100 
L 313 1100 
L 313 1709 
L 2253 4666 
z
" transform="scale(0.015625)"/>
       </defs>
       <use xlink:href="#DejaVuSans-17"/>
       <use xlink:href="#DejaVuSans-13" transform="translate(63.625 0)"/>
       <use xlink:href="#DejaVuSans-13" transform="translate(127.25 0)"/>
      </g>
     </g>
    </g>
    <g id="xtick_24">
     <g id="line2d_32">
      <g>
       <use xlink:href="#me02b3a51aa" x="216.570828" y="294.198739" style="stroke: #000000; stroke-width: 0.8"/>
      </g>
     </g>
     <g id="text_14">
      <!-- 500 -->
      <g transform="translate(207.027078 308.796395) scale(0.1 -0.1)">
       <use xlink:href="#DejaVuSans-18"/>
       <use xlink:href="#DejaVuSans-13" transform="translate(63.625 0)"/>
       <use xlink:href="#DejaVuSans-13" transform="translate(127.25 0)"/>
      </g>
     </g>
    </g>
    <g id="xtick_25">
     <g id="line2d_33">
      <g>
       <use xlink:href="#me02b3a51aa" x="248.508798" y="294.198739" style="stroke: #000000; stroke-width: 0.8"/>
      </g>
     </g>
     <g id="text_15">
      <!-- 600 -->
      <g transform="translate(238.965048 308.796395) scale(0.1 -0.1)">
       <defs>
        <path id="DejaVuSans-19" d="M 2113 2584 
Q 1688 2584 1439 2293 
Q 1191 2003 1191 1497 
Q 1191 994 1439 701 
Q 1688 409 2113 409 
Q 2538 409 2786 701 
Q 3034 994 3034 1497 
Q 3034 2003 2786 2293 
Q 2538 2584 2113 2584 
z
M 3366 4563 
L 3366 3988 
Q 3128 4100 2886 4159 
Q 2644 4219 2406 4219 
Q 1781 4219 1451 3797 
Q 1122 3375 1075 2522 
Q 1259 2794 1537 2939 
Q 1816 3084 2150 3084 
Q 2853 3084 3261 2657 
Q 3669 2231 3669 1497 
Q 3669 778 3244 343 
Q 2819 -91 2113 -91 
Q 1303 -91 875 529 
Q 447 1150 447 2328 
Q 447 3434 972 4092 
Q 1497 4750 2381 4750 
Q 2619 4750 2861 4703 
Q 3103 4656 3366 4563 
z
" transform="scale(0.015625)"/>
       </defs>
       <use xlink:href="#DejaVuSans-19"/>
       <use xlink:href="#DejaVuSans-13" transform="translate(63.625 0)"/>
       <use xlink:href="#DejaVuSans-13" transform="translate(127.25 0)"/>
      </g>
     </g>
    </g>
    <g id="xtick_26">
     <g id="line2d_34">
      <g>
       <use xlink:href="#me02b3a51aa" x="280.446768" y="294.198739" style="stroke: #000000; stroke-width: 0.8"/>
      </g>
     </g>
     <g id="text_16">
      <!-- 700 -->
      <g transform="translate(270.903018 308.796395) scale(0.1 -0.1)">
       <defs>
        <path id="DejaVuSans-1a" d="M 525 4666 
L 3525 4666 
L 3525 4397 
L 1831 0 
L 1172 0 
L 2766 4134 
L 525 4134 
L 525 4666 
z
" transform="scale(0.015625)"/>
       </defs>
       <use xlink:href="#DejaVuSans-1a"/>
       <use xlink:href="#DejaVuSans-13" transform="translate(63.625 0)"/>
       <use xlink:href="#DejaVuSans-13" transform="translate(127.25 0)"/>
      </g>
     </g>
    </g>
    <g id="xtick_27">
     <g id="line2d_35">
      <g>
       <use xlink:href="#me02b3a51aa" x="312.384737" y="294.198739" style="stroke: #000000; stroke-width: 0.8"/>
      </g>
     </g>
     <g id="text_17">
      <!-- 800 -->
      <g transform="translate(302.840987 308.796395) scale(0.1 -0.1)">
       <defs>
        <path id="DejaVuSans-1b" d="M 2034 2216 
Q 1584 2216 1326 1975 
Q 1069 1734 1069 1313 
Q 1069 891 1326 650 
Q 1584 409 2034 409 
Q 2484 409 2743 651 
Q 3003 894 3003 1313 
Q 3003 1734 2745 1975 
Q 2488 2216 2034 2216 
z
M 1403 2484 
Q 997 2584 770 2862 
Q 544 3141 544 3541 
Q 544 4100 942 4425 
Q 1341 4750 2034 4750 
Q 2731 4750 3128 4425 
Q 3525 4100 3525 3541 
Q 3525 3141 3298 2862 
Q 3072 2584 2669 2484 
Q 3125 2378 3379 2068 
Q 3634 1759 3634 1313 
Q 3634 634 3220 271 
Q 2806 -91 2034 -91 
Q 1263 -91 848 271 
Q 434 634 434 1313 
Q 434 1759 690 2068 
Q 947 2378 1403 2484 
z
M 1172 3481 
Q 1172 3119 1398 2916 
Q 1625 2713 2034 2713 
Q 2441 2713 2670 2916 
Q 2900 3119 2900 3481 
Q 2900 3844 2670 4047 
Q 2441 4250 2034 4250 
Q 1625 4250 1398 4047 
Q 1172 3844 1172 3481 
z
" transform="scale(0.015625)"/>
       </defs>
       <use xlink:href="#DejaVuSans-1b"/>
       <use xlink:href="#DejaVuSans-13" transform="translate(63.625 0)"/>
       <use xlink:href="#DejaVuSans-13" transform="translate(127.25 0)"/>
      </g>
     </g>
    </g>
    <g id="text_18">
     <!-- Time -->
     <g transform="translate(172.415776 322.797176) scale(0.1 -0.1)">
      <defs>
       <path id="DejaVuSans-37" d="M -19 4666 
L 3928 4666 
L 3928 4134 
L 2272 4134 
L 2272 0 
L 1638 0 
L 1638 4134 
L -19 4134 
L -19 4666 
z
" transform="scale(0.015625)"/>
       <path id="DejaVuSans-4c" d="M 603 3500 
L 1178 3500 
L 1178 0 
L 603 0 
L 603 3500 
z
M 603 4863 
L 1178 4863 
L 1178 4134 
L 603 4134 
L 603 4863 
z
" transform="scale(0.015625)"/>
       <path id="DejaVuSans-50" d="M 3328 2828 
Q 3544 3216 3844 3400 
Q 4144 3584 4550 3584 
Q 5097 3584 5394 3201 
Q 5691 2819 5691 2113 
L 5691 0 
L 5113 0 
L 5113 2094 
Q 5113 2597 4934 2840 
Q 4756 3084 4391 3084 
Q 3944 3084 3684 2787 
Q 3425 2491 3425 1978 
L 3425 0 
L 2847 0 
L 2847 2094 
Q 2847 2600 2669 2842 
Q 2491 3084 2119 3084 
Q 1678 3084 1418 2786 
Q 1159 2488 1159 1978 
L 1159 0 
L 581 0 
L 581 3500 
L 1159 3500 
L 1159 2956 
Q 1356 3278 1631 3431 
Q 1906 3584 2284 3584 
Q 2666 3584 2933 3390 
Q 3200 3197 3328 2828 
z
" transform="scale(0.015625)"/>
      </defs>
      <use xlink:href="#DejaVuSans-37"/>
      <use xlink:href="#DejaVuSans-4c" transform="translate(58 0)"/>
      <use xlink:href="#DejaVuSans-50" transform="translate(85.78125 0)"/>
      <use xlink:href="#DejaVuSans-48" transform="translate(183.1875 0)"/>
     </g>
    </g>
   </g>
   <g id="matplotlib.axis_6">
    <g id="ytick_7">
     <g id="line2d_36">
      <g>
       <use xlink:href="#m2a82756754" x="44.103906" y="290.138166" style="stroke: #000000; stroke-width: 0.8"/>
      </g>
     </g>
     <g id="text_19">
      <!-- 0.0 -->
      <g transform="translate(21.200781 293.936994) scale(0.1 -0.1)">
       <defs>
        <path id="DejaVuSans-11" d="M 684 794 
L 1344 794 
L 1344 0 
L 684 0 
L 684 794 
z
" transform="scale(0.015625)"/>
       </defs>
       <use xlink:href="#DejaVuSans-13"/>
       <use xlink:href="#DejaVuSans-11" transform="translate(63.625 0)"/>
       <use xlink:href="#DejaVuSans-13" transform="translate(95.40625 0)"/>
      </g>
     </g>
    </g>
    <g id="ytick_8">
     <g id="line2d_37">
      <g>
       <use xlink:href="#m2a82756754" x="44.103906" y="249.532442" style="stroke: #000000; stroke-width: 0.8"/>
      </g>
     </g>
     <g id="text_20">
      <!-- 0.5 -->
      <g transform="translate(21.200781 253.33127) scale(0.1 -0.1)">
       <use xlink:href="#DejaVuSans-13"/>
       <use xlink:href="#DejaVuSans-11" transform="translate(63.625 0)"/>
       <use xlink:href="#DejaVuSans-18" transform="translate(95.40625 0)"/>
      </g>
     </g>
    </g>
    <g id="ytick_9">
     <g id="line2d_38">
      <g>
       <use xlink:href="#m2a82756754" x="44.103906" y="208.926718" style="stroke: #000000; stroke-width: 0.8"/>
      </g>
     </g>
     <g id="text_21">
      <!-- 1.0 -->
      <g transform="translate(21.200781 212.725546) scale(0.1 -0.1)">
       <use xlink:href="#DejaVuSans-14"/>
       <use xlink:href="#DejaVuSans-11" transform="translate(63.625 0)"/>
       <use xlink:href="#DejaVuSans-13" transform="translate(95.40625 0)"/>
      </g>
     </g>
    </g>
    <g id="text_22">
     <!-- Free lac operon -->
     <g transform="translate(14.798438 288.006661) rotate(-90) scale(0.1 -0.1)">
      <defs>
       <path id="DejaVuSans-29" d="M 628 4666 
L 3309 4666 
L 3309 4134 
L 1259 4134 
L 1259 2759 
L 3109 2759 
L 3109 2228 
L 1259 2228 
L 1259 0 
L 628 0 
L 628 4666 
z
" transform="scale(0.015625)"/>
       <path id="DejaVuSans-53" d="M 1159 525 
L 1159 -1331 
L 581 -1331 
L 581 3500 
L 1159 3500 
L 1159 2969 
Q 1341 3281 1617 3432 
Q 1894 3584 2278 3584 
Q 2916 3584 3314 3078 
Q 3713 2572 3713 1747 
Q 3713 922 3314 415 
Q 2916 -91 2278 -91 
Q 1894 -91 1617 61 
Q 1341 213 1159 525 
z
M 3116 1747 
Q 3116 2381 2855 2742 
Q 2594 3103 2138 3103 
Q 1681 3103 1420 2742 
Q 1159 2381 1159 1747 
Q 1159 1113 1420 752 
Q 1681 391 2138 391 
Q 2594 391 2855 752 
Q 3116 1113 3116 1747 
z
" transform="scale(0.015625)"/>
       <path id="DejaVuSans-51" d="M 3513 2113 
L 3513 0 
L 2938 0 
L 2938 2094 
Q 2938 2591 2744 2837 
Q 2550 3084 2163 3084 
Q 1697 3084 1428 2787 
Q 1159 2491 1159 1978 
L 1159 0 
L 581 0 
L 581 3500 
L 1159 3500 
L 1159 2956 
Q 1366 3272 1645 3428 
Q 1925 3584 2291 3584 
Q 2894 3584 3203 3211 
Q 3513 2838 3513 2113 
z
" transform="scale(0.015625)"/>
      </defs>
      <use xlink:href="#DejaVuSans-29"/>
      <use xlink:href="#DejaVuSans-55" transform="translate(50.234375 0)"/>
      <use xlink:href="#DejaVuSans-48" transform="translate(89.140625 0)"/>
      <use xlink:href="#DejaVuSans-48" transform="translate(150.671875 0)"/>
      <use xlink:href="#DejaVuSans-3" transform="translate(212.203125 0)"/>
      <use xlink:href="#DejaVuSans-4f" transform="translate(243.984375 0)"/>
      <use xlink:href="#DejaVuSans-44" transform="translate(271.765625 0)"/>
      <use xlink:href="#DejaVuSans-46" transform="translate(333.046875 0)"/>
      <use xlink:href="#DejaVuSans-3" transform="translate(388.03125 0)"/>
      <use xlink:href="#DejaVuSans-52" transform="translate(419.8125 0)"/>
      <use xlink:href="#DejaVuSans-53" transform="translate(481 0)"/>
      <use xlink:href="#DejaVuSans-48" transform="translate(544.484375 0)"/>
      <use xlink:href="#DejaVuSans-55" transform="translate(606.015625 0)"/>
      <use xlink:href="#DejaVuSans-52" transform="translate(644.921875 0)"/>
      <use xlink:href="#DejaVuSans-51" transform="translate(706.109375 0)"/>
     </g>
    </g>
   </g>
   <g id="line2d_39">
    <path d="M 56.88098 208.926718 
L 56.962666 290.138166 
L 57.131307 290.138166 
L 57.301244 208.926718 
L 57.419659 208.926718 
L 57.522006 290.138166 
L 58.740842 290.138166 
L 59.732769 208.926718 
L 59.919504 208.926718 
L 59.942297 290.138166 
L 62.368841 290.138166 
L 64.968821 208.926718 
L 65.264338 208.926718 
L 65.402072 290.138166 
L 65.528209 290.138166 
L 72.204659 208.926718 
L 72.374806 290.138166 
L 80.230894 208.926718 
L 80.280034 290.138166 
L 82.912026 208.926718 
L 83.05231 208.926718 
L 83.106586 290.138166 
L 84.85058 290.138166 
L 84.91615 208.926718 
L 85.794282 208.926718 
L 85.984659 290.138166 
L 87.01967 290.138166 
L 90.018554 208.926718 
L 90.559693 208.926718 
L 90.589033 290.138166 
L 90.947692 290.138166 
L 91.830934 208.926718 
L 91.889503 290.138166 
L 92.234066 290.138166 
L 109.344723 208.926718 
L 109.358454 290.138166 
L 109.61746 290.138166 
L 109.894166 208.926718 
L 110.182121 290.138166 
L 110.310459 208.926718 
L 110.719061 208.926718 
L 110.924071 290.138166 
L 111.217324 290.138166 
L 115.388155 208.926718 
L 116.050157 290.138166 
L 117.695614 208.926718 
L 118.011502 290.138166 
L 118.685326 208.926718 
L 118.772832 290.138166 
L 119.784292 208.926718 
L 119.869378 290.138166 
L 123.820409 290.138166 
L 129.851775 208.926718 
L 129.957942 290.138166 
L 131.703838 208.926718 
L 132.155568 208.926718 
L 132.177053 290.138166 
L 134.021171 290.138166 
L 136.622209 208.926718 
L 136.635543 290.138166 
L 139.522592 208.926718 
L 139.565412 290.138166 
L 146.623353 208.926718 
L 147.56964 208.926718 
L 147.638094 290.138166 
L 148.255801 290.138166 
L 148.501343 208.926718 
L 148.816876 208.926718 
L 148.929856 290.138166 
L 150.002688 290.138166 
L 150.515179 208.926718 
L 150.616141 290.138166 
L 151.739563 290.138166 
L 151.750907 208.926718 
L 151.912779 290.138166 
L 156.230215 208.926718 
L 156.319333 290.138166 
L 156.569168 208.926718 
L 200.106264 208.926718 
L 200.124741 290.138166 
L 201.181372 290.138166 
L 203.384793 208.926718 
L 203.441424 290.138166 
L 203.748921 290.138166 
L 205.597754 208.926718 
L 205.739931 290.138166 
L 207.23952 208.926718 
L 207.300284 290.138166 
L 210.966855 208.926718 
L 211.348071 208.926718 
L 211.568113 290.138166 
L 213.380784 290.138166 
L 219.263216 208.926718 
L 219.714763 208.926718 
L 219.864348 290.138166 
L 221.738912 290.138166 
L 227.081003 208.926718 
L 227.506951 208.926718 
L 227.554073 290.138166 
L 233.116921 208.926718 
L 233.500711 208.926718 
L 233.544301 290.138166 
L 234.797371 290.138166 
L 238.833287 208.926718 
L 239.392892 208.926718 
L 239.472706 290.138166 
L 240.002171 290.138166 
L 240.469389 208.926718 
L 240.627427 290.138166 
L 240.901489 208.926718 
L 242.660301 208.926718 
L 243.075674 290.138166 
L 243.585864 290.138166 
L 243.765051 208.926718 
L 243.919582 208.926718 
L 244.093396 290.138166 
L 247.373841 290.138166 
L 248.847653 208.926718 
L 248.94551 290.138166 
L 249.402072 208.926718 
L 249.712696 208.926718 
L 249.882887 290.138166 
L 249.936185 208.926718 
L 249.987894 290.138166 
L 251.259255 290.138166 
L 260.208827 208.926718 
L 260.354445 208.926718 
L 260.358995 290.138166 
L 260.85158 290.138166 
L 271.850466 208.926718 
L 271.989182 290.138166 
L 274.226976 208.926718 
L 274.562786 290.138166 
L 275.781939 208.926718 
L 275.806358 290.138166 
L 275.950612 208.926718 
L 277.290414 208.926718 
L 277.294759 290.138166 
L 277.358053 208.926718 
L 277.414235 208.926718 
L 277.717429 290.138166 
L 277.881153 290.138166 
L 280.001758 208.926718 
L 280.300338 208.926718 
L 280.31327 290.138166 
L 281.213111 290.138166 
L 292.590469 208.926718 
L 292.725536 290.138166 
L 292.980873 208.926718 
L 293.294459 208.926718 
L 293.412864 290.138166 
L 294.408445 290.138166 
L 295.663343 208.926718 
L 295.875006 208.926718 
L 295.969558 290.138166 
L 296.124742 208.926718 
L 296.201438 290.138166 
L 296.827512 208.926718 
L 297.147899 290.138166 
L 303.257257 208.926718 
L 303.49868 290.138166 
L 307.959077 208.926718 
L 307.9796 290.138166 
L 309.861245 208.926718 
L 311.71019 208.926718 
L 311.822562 290.138166 
L 312.422447 290.138166 
L 312.422447 290.138166 
" clip-path="url(#p44f232eebc)" style="fill: none; stroke: #000000; stroke-width: 1.5; stroke-linecap: square"/>
   </g>
   <g id="patch_13">
    <path d="M 44.103906 294.198739 
L 44.103906 204.866146 
" style="fill: none; stroke: #000000; stroke-width: 0.8; stroke-linejoin: miter; stroke-linecap: square"/>
   </g>
   <g id="patch_14">
    <path d="M 325.19952 294.198739 
L 325.19952 204.866146 
" style="fill: none; stroke: #000000; stroke-width: 0.8; stroke-linejoin: miter; stroke-linecap: square"/>
   </g>
   <g id="patch_15">
    <path d="M 44.103906 294.198739 
L 325.19952 294.198739 
" style="fill: none; stroke: #000000; stroke-width: 0.8; stroke-linejoin: miter; stroke-linecap: square"/>
   </g>
   <g id="patch_16">
    <path d="M 44.103906 204.866146 
L 325.19952 204.866146 
" style="fill: none; stroke: #000000; stroke-width: 0.8; stroke-linejoin: miter; stroke-linecap: square"/>
   </g>
  </g>
 </g>
 <defs>
  <clipPath id="p70d766f263">
   <rect x="44.103906" y="7.2" width="281.095614" height="89.332593"/>
  </clipPath>
  <clipPath id="p1dca85cff8">
   <rect x="44.103906" y="106.033073" width="281.095614" height="89.332593"/>
  </clipPath>
  <clipPath id="p44f232eebc">
   <rect x="44.103906" y="204.866146" width="281.095614" height="89.332593"/>
  </clipPath>
 </defs>
</svg>
