<?xml version="1.0" encoding="utf-8" standalone="no"?>
<!DOCTYPE svg PUBLIC "-//W3C//DTD SVG 1.1//EN"
  "http://www.w3.org/Graphics/SVG/1.1/DTD/svg11.dtd">
<svg xmlns:xlink="http://www.w3.org/1999/xlink" width="332.39952pt" height="332.39952pt" viewBox="0 0 332.39952 332.39952" xmlns="http://www.w3.org/2000/svg" version="1.1">
 <metadata>
  <rdf:RDF xmlns:dc="http://purl.org/dc/elements/1.1/" xmlns:cc="http://creativecommons.org/ns#" xmlns:rdf="http://www.w3.org/1999/02/22-rdf-syntax-ns#">
   <cc:Work>
    <dc:type rdf:resource="http://purl.org/dc/dcmitype/StillImage"/>
    <dc:date>2026-07-13T14:03:19.668830</dc:date>
    <dc:format>image/svg+xml</dc:format>
    <dc:creator>
     <cc:Agent>
      <dc:title>Matplotlib v3.11.0, https://matplotlib.org/</dc:title>
     </cc:Agent>
    </dc:creator>
   </cc:Work>
  </rdf:RDF>
 </metadata>
 <defs>
  <style type="text/css">*{stroke-linejoin: round; stroke-linecap: butt}</style>
 </defs>
 <g id="figure_1">
  <g id="patch_1">
   <path d="M 0 332.39952 
L 332.39952 332.39952 
L 332.39952 0 
L 0 0 
z
" style="fill: #ffffff"/>
  </g>
  <g id="axes_1">
   <g id="patch_2">
    <path d="M 44.103906 96.532593 
L 325.19952 96.532593 
L 325.19952 7.2 
L 44.103906 7.2 
z
" style="fill: #ffffff"/>
   </g>
   <g id="matplotlib.axis_1">
    <g id="xtick_1">
     <g id="line2d_1">
      <defs>
       <path id="mba496ea761" d="M 0 0 
L 0 3.5 
" style="stroke: #000000; stroke-width: 0.8"/>
      </defs>
      <g>
       <use xlink:href="#mba496ea761" x="56.88098" y="96.532593" style="stroke: #000000; stroke-width: 0.8"/>
      </g>
     </g>
    </g>
    <g id="xtick_2">
     <g id="line2d_2">
      <g>
       <use xlink:href="#mba496ea761" x="88.537371" y="96.532593" style="stroke: #000000; stroke-width: 0.8"/>
      </g>
     </g>
    </g>
    <g id="xtick_3">
     <g id="line2d_3">
      <g>
       <use xlink:href="#mba496ea761" x="120.193762" y="96.532593" style="stroke: #000000; stroke-width: 0.8"/>
      </g>
     </g>
    </g>
    <g id="xtick_4">
     <g id="line2d_4">
      <g>
       <use xlink:href="#mba496ea761" x="151.850153" y="96.532593" style="stroke: #000000; stroke-width: 0.8"/>
      </g>
     </g>
    </g>
    <g id="xtick_5">
     <g id="line2d_5">
      <g>
       <use xlink:href="#mba496ea761" x="183.506545" y="96.532593" style="stroke: #000000; stroke-width: 0.8"/>
      </g>
     </g>
    </g>
    <g id="xtick_6">
     <g id="line2d_6">
      <g>
       <use xlink:href="#mba496ea761" x="215.162936" y="96.532593" style="stroke: #000000; stroke-width: 0.8"/>
      </g>
     </g>
    </g>
    <g id="xtick_7">
     <g id="line2d_7">
      <g>
       <use xlink:href="#mba496ea761" x="246.819327" y="96.532593" style="stroke: #000000; stroke-width: 0.8"/>
      </g>
     </g>
    </g>
    <g id="xtick_8">
     <g id="line2d_8">
      <g>
       <use xlink:href="#mba496ea761" x="278.475718" y="96.532593" style="stroke: #000000; stroke-width: 0.8"/>
      </g>
     </g>
    </g>
    <g id="xtick_9">
     <g id="line2d_9">
      <g>
       <use xlink:href="#mba496ea761" x="310.13211" y="96.532593" style="stroke: #000000; stroke-width: 0.8"/>
      </g>
     </g>
    </g>
   </g>
   <g id="matplotlib.axis_2">
    <g id="ytick_1">
     <g id="line2d_10">
      <defs>
       <path id="mdc90878fb3" d="M 0 0 
L -3.5 0 
" style="stroke: #000000; stroke-width: 0.8"/>
      </defs>
      <g>
       <use xlink:href="#mdc90878fb3" x="44.103906" y="92.472021" style="stroke: #000000; stroke-width: 0.8"/>
      </g>
     </g>
     <g id="text_1">
      <!-- 0 -->
      <g transform="translate(30.741406 96.270849) scale(0.1 -0.1)">
       <defs>
        <path id="DejaVuSans-13" d="M 2034 4250 
Q 1547 4250 1301 3770 
Q 1056 3291 1056 2328 
Q 1056 1369 1301 889 
Q 1547 409 2034 409 
Q 2525 409 2770 889 
Q 3016 1369 3016 2328 
Q 3016 3291 2770 3770 
Q 2525 4250 2034 4250 
z
M 2034 4750 
Q 2819 4750 3233 4129 
Q 3647 3509 3647 2328 
Q 3647 1150 3233 529 
Q 2819 -91 2034 -91 
Q 1250 -91 836 529 
Q 422 1150 422 2328 
Q 422 3509 836 4129 
Q 1250 4750 2034 4750 
z
" transform="scale(0.015625)"/>
       </defs>
       <use xlink:href="#DejaVuSans-13"/>
      </g>
     </g>
    </g>
    <g id="ytick_2">
     <g id="line2d_11">
      <g>
       <use xlink:href="#mdc90878fb3" x="44.103906" y="51.866296" style="stroke: #000000; stroke-width: 0.8"/>
      </g>
     </g>
     <g id="text_2">
      <!-- 5 -->
      <g transform="translate(30.741406 55.665125) scale(0.1 -0.1)">
       <defs>
        <path id="DejaVuSans-18" d="M 691 4666 
L 3169 4666 
L 3169 4134 
L 1269 4134 
L 1269 2991 
Q 1406 3038 1543 3061 
Q 1681 3084 1819 3084 
Q 2600 3084 3056 2656 
Q 3513 2228 3513 1497 
Q 3513 744 3044 326 
Q 2575 -91 1722 -91 
Q 1428 -91 1123 -41 
Q 819 9 494 109 
L 494 744 
Q 775 591 1075 516 
Q 1375 441 1709 441 
Q 2250 441 2565 725 
Q 2881 1009 2881 1497 
Q 2881 1984 2565 2268 
Q 2250 2553 1709 2553 
Q 1456 2553 1204 2497 
Q 953 2441 691 2322 
L 691 4666 
z
" transform="scale(0.015625)"/>
       </defs>
       <use xlink:href="#DejaVuSans-18"/>
      </g>
     </g>
    </g>
    <g id="ytick_3">
     <g id="line2d_12">
      <g>
       <use xlink:href="#mdc90878fb3" x="44.103906" y="11.260572" style="stroke: #000000; stroke-width: 0.8"/>
      </g>
     </g>
     <g id="text_3">
      <!-- 10 -->
      <g transform="translate(24.378906 15.059401) scale(0.1 -0.1)">
       <defs>
        <path id="DejaVuSans-14" d="M 794 531 
L 1825 531 
L 1825 4091 
L 703 3866 
L 703 4441 
L 1819 4666 
L 2450 4666 
L 2450 531 
L 3481 531 
L 3481 0 
L 794 0 
L 794 531 
z
" transform="scale(0.015625)"/>
       </defs>
       <use xlink:href="#DejaVuSans-14"/>
       <use xlink:href="#DejaVuSans-13" transform="translate(63.625 0)"/>
      </g>
     </g>
    </g>
    <g id="text_4">
     <!-- Extracellular lactose -->
     <g transform="translate(17.976563 102.838171) rotate(-90) scale(0.1 -0.1)">
      <defs>
       <path id="DejaVuSans-28" d="M 628 4666 
L 3578 4666 
L 3578 4134 
L 1259 4134 
L 1259 2753 
L 3481 2753 
L 3481 2222 
L 1259 2222 
L 1259 531 
L 3634 531 
L 3634 0 
L 628 0 
L 628 4666 
z
" transform="scale(0.015625)"/>
       <path id="DejaVuSans-5b" d="M 3513 3500 
L 2247 1797 
L 3578 0 
L 2900 0 
L 1881 1375 
L 863 0 
L 184 0 
L 1544 1831 
L 300 3500 
L 978 3500 
L 1906 2253 
L 2834 3500 
L 3513 3500 
z
" transform="scale(0.015625)"/>
       <path id="DejaVuSans-57" d="M 1172 4494 
L 1172 3500 
L 2356 3500 
L 2356 3053 
L 1172 3053 
L 1172 1153 
Q 1172 725 1289 603 
Q 1406 481 1766 481 
L 2356 481 
L 2356 0 
L 1766 0 
Q 1100 0 847 248 
Q 594 497 594 1153 
L 594 3053 
L 172 3053 
L 172 3500 
L 594 3500 
L 594 4494 
L 1172 4494 
z
" transform="scale(0.015625)"/>
       <path id="DejaVuSans-55" d="M 2631 2963 
Q 2534 3019 2420 3045 
Q 2306 3072 2169 3072 
Q 1681 3072 1420 2755 
Q 1159 2438 1159 1844 
L 1159 0 
L 581 0 
L 581 3500 
L 1159 3500 
L 1159 2956 
Q 1341 3275 1631 3429 
Q 1922 3584 2338 3584 
Q 2397 3584 2469 3576 
Q 2541 3569 2628 3553 
L 2631 2963 
z
" transform="scale(0.015625)"/>
       <path id="DejaVuSans-44" d="M 2194 1759 
Q 1497 1759 1228 1600 
Q 959 1441 959 1056 
Q 959 750 1161 570 
Q 1363 391 1709 391 
Q 2188 391 2477 730 
Q 2766 1069 2766 1631 
L 2766 1759 
L 2194 1759 
z
M 3341 1997 
L 3341 0 
L 2766 0 
L 2766 531 
Q 2569 213 2275 61 
Q 1981 -91 1556 -91 
Q 1019 -91 701 211 
Q 384 513 384 1019 
Q 384 1609 779 1909 
Q 1175 2209 1959 2209 
L 2766 2209 
L 2766 2266 
Q 2766 2663 2505 2880 
Q 2244 3097 1772 3097 
Q 1472 3097 1187 3025 
Q 903 2953 641 2809 
L 641 3341 
Q 956 3463 1253 3523 
Q 1550 3584 1831 3584 
Q 2591 3584 2966 3190 
Q 3341 2797 3341 1997 
z
" transform="scale(0.015625)"/>
       <path id="DejaVuSans-46" d="M 3122 3366 
L 3122 2828 
Q 2878 2963 2633 3030 
Q 2388 3097 2138 3097 
Q 1578 3097 1268 2742 
Q 959 2388 959 1747 
Q 959 1106 1268 751 
Q 1578 397 2138 397 
Q 2388 397 2633 464 
Q 2878 531 3122 666 
L 3122 134 
Q 2881 22 2623 -34 
Q 2366 -91 2075 -91 
Q 1284 -91 818 406 
Q 353 903 353 1747 
Q 353 2603 823 3093 
Q 1294 3584 2113 3584 
Q 2378 3584 2631 3529 
Q 2884 3475 3122 3366 
z
" transform="scale(0.015625)"/>
       <path id="DejaVuSans-48" d="M 3597 1894 
L 3597 1613 
L 953 1613 
Q 991 1019 1311 708 
Q 1631 397 2203 397 
Q 2534 397 2845 478 
Q 3156 559 3463 722 
L 3463 178 
Q 3153 47 2828 -22 
Q 2503 -91 2169 -91 
Q 1331 -91 842 396 
Q 353 884 353 1716 
Q 353 2575 817 3079 
Q 1281 3584 2069 3584 
Q 2775 3584 3186 3129 
Q 3597 2675 3597 1894 
z
M 3022 2063 
Q 3016 2534 2758 2815 
Q 2500 3097 2075 3097 
Q 1594 3097 1305 2825 
Q 1016 2553 972 2059 
L 3022 2063 
z
" transform="scale(0.015625)"/>
       <path id="DejaVuSans-4f" d="M 603 4863 
L 1178 4863 
L 1178 0 
L 603 0 
L 603 4863 
z
" transform="scale(0.015625)"/>
       <path id="DejaVuSans-58" d="M 544 1381 
L 544 3500 
L 1119 3500 
L 1119 1403 
Q 1119 906 1312 657 
Q 1506 409 1894 409 
Q 2359 409 2629 706 
Q 2900 1003 2900 1516 
L 2900 3500 
L 3475 3500 
L 3475 0 
L 2900 0 
L 2900 538 
Q 2691 219 2414 64 
Q 2138 -91 1772 -91 
Q 1169 -91 856 284 
Q 544 659 544 1381 
z
M 1991 3584 
L 1991 3584 
z
" transform="scale(0.015625)"/>
       <path id="DejaVuSans-3" transform="scale(0.015625)"/>
       <path id="DejaVuSans-52" d="M 1959 3097 
Q 1497 3097 1228 2736 
Q 959 2375 959 1747 
Q 959 1119 1226 758 
Q 1494 397 1959 397 
Q 2419 397 2687 759 
Q 2956 1122 2956 1747 
Q 2956 2369 2687 2733 
Q 2419 3097 1959 3097 
z
M 1959 3584 
Q 2709 3584 3137 3096 
Q 3566 2609 3566 1747 
Q 3566 888 3137 398 
Q 2709 -91 1959 -91 
Q 1206 -91 779 398 
Q 353 888 353 1747 
Q 353 2609 779 3096 
Q 1206 3584 1959 3584 
z
" transform="scale(0.015625)"/>
       <path id="DejaVuSans-56" d="M 2834 3397 
L 2834 2853 
Q 2591 2978 2328 3040 
Q 2066 3103 1784 3103 
Q 1356 3103 1142 2972 
Q 928 2841 928 2578 
Q 928 2378 1081 2264 
Q 1234 2150 1697 2047 
L 1894 2003 
Q 2506 1872 2764 1633 
Q 3022 1394 3022 966 
Q 3022 478 2636 193 
Q 2250 -91 1575 -91 
Q 1294 -91 989 -36 
Q 684 19 347 128 
L 347 722 
Q 666 556 975 473 
Q 1284 391 1588 391 
Q 1994 391 2212 530 
Q 2431 669 2431 922 
Q 2431 1156 2273 1281 
Q 2116 1406 1581 1522 
L 1381 1569 
Q 847 1681 609 1914 
Q 372 2147 372 2553 
Q 372 3047 722 3315 
Q 1072 3584 1716 3584 
Q 2034 3584 2315 3537 
Q 2597 3491 2834 3397 
z
" transform="scale(0.015625)"/>
      </defs>
      <use xlink:href="#DejaVuSans-28"/>
      <use xlink:href="#DejaVuSans-5b" transform="translate(63.1875 0)"/>
      <use xlink:href="#DejaVuSans-57" transform="translate(122.375 0)"/>
      <use xlink:href="#DejaVuSans-55" transform="translate(161.578125 0)"/>
      <use xlink:href="#DejaVuSans-44" transform="translate(202.6875 0)"/>
      <use xlink:href="#DejaVuSans-46" transform="translate(263.96875 0)"/>
      <use xlink:href="#DejaVuSans-48" transform="translate(318.953125 0)"/>
      <use xlink:href="#DejaVuSans-4f" transform="translate(380.484375 0)"/>
      <use xlink:href="#DejaVuSans-4f" transform="translate(408.265625 0)"/>
      <use xlink:href="#DejaVuSans-58" transform="translate(436.046875 0)"/>
      <use xlink:href="#DejaVuSans-4f" transform="translate(499.421875 0)"/>
      <use xlink:href="#DejaVuSans-44" transform="translate(527.203125 0)"/>
      <use xlink:href="#DejaVuSans-55" transform="translate(588.484375 0)"/>
      <use xlink:href="#DejaVuSans-3" transform="translate(629.59375 0)"/>
      <use xlink:href="#DejaVuSans-4f" transform="translate(661.375 0)"/>
      <use xlink:href="#DejaVuSans-44" transform="translate(689.15625 0)"/>
      <use xlink:href="#DejaVuSans-46" transform="translate(750.4375 0)"/>
      <use xlink:href="#DejaVuSans-57" transform="translate(805.421875 0)"/>
      <use xlink:href="#DejaVuSans-52" transform="translate(844.625 0)"/>
      <use xlink:href="#DejaVuSans-56" transform="translate(905.8125 0)"/>
      <use xlink:href="#DejaVuSans-48" transform="translate(957.90625 0)"/>
     </g>
    </g>
   </g>
   <g id="line2d_13">
    <path d="M 56.88098 92.472021 
L 155.354311 92.472021 
L 155.442643 11.260572 
L 156.104893 11.341784 
L 156.22157 11.66663 
L 156.265999 11.747841 
L 156.410938 13.209647 
L 156.528262 14.833876 
L 156.541972 14.915088 
L 156.684251 16.620528 
L 156.707598 16.701739 
L 157.2128 20.193832 
L 157.487647 20.599889 
L 157.546431 20.6811 
L 157.654669 20.762312 
L 158.101392 20.843523 
L 158.19742 21.249581 
L 158.436149 21.655638 
L 158.528385 21.980484 
L 158.669682 22.061695 
L 158.766778 22.142906 
L 159.214826 23.44229 
L 159.354017 23.848347 
L 159.692877 25.310153 
L 159.717795 25.391364 
L 160.835608 31.644646 
L 160.867379 31.725857 
L 160.984052 32.213126 
L 161.039134 32.294337 
L 161.151363 32.45676 
L 161.170109 32.537972 
L 161.282005 32.944029 
L 161.56924 34.162201 
L 161.599815 34.243412 
L 161.710093 34.568258 
L 162.386893 39.440945 
L 162.427968 39.522156 
L 162.528097 39.765791 
L 162.69639 39.847002 
L 162.843404 40.415482 
L 163.068472 41.065174 
L 163.326232 41.633654 
L 163.403548 42.202134 
L 164.281767 42.283346 
L 164.393778 42.445768 
L 164.466089 42.52698 
L 164.613307 43.014249 
L 165.002492 43.501517 
L 165.21697 43.582729 
L 165.335007 44.069997 
L 165.382959 44.151209 
L 165.577061 44.638478 
L 165.759978 45.288169 
L 165.766256 45.369381 
L 165.970026 47.156032 
L 166.03032 47.237244 
L 166.316633 48.617839 
L 166.610803 49.26753 
L 166.67425 49.348742 
L 166.766811 49.754799 
L 167.023299 50.729336 
L 167.148376 51.135393 
L 167.249486 51.216605 
L 167.362342 51.297816 
L 167.501139 51.379028 
L 168.888514 51.460239 
L 168.997025 51.703874 
L 169.045371 51.785085 
L 169.222472 52.840834 
L 169.226277 52.922045 
L 169.403393 53.73416 
L 169.426902 53.815371 
L 169.566061 54.87112 
L 169.598259 54.952331 
L 169.739911 55.764446 
L 169.803354 55.845657 
L 170.048261 59.418961 
L 170.058349 59.500173 
L 170.258152 61.774093 
L 170.466868 62.748631 
L 170.511948 62.829842 
L 170.611779 63.479534 
L 170.667254 63.560745 
L 170.79582 63.966802 
L 170.91184 64.048014 
L 171.163138 64.291648 
L 171.332985 64.372859 
L 171.441149 64.697705 
L 171.681723 65.103762 
L 171.718618 65.184974 
L 171.812063 65.50982 
L 171.857874 65.591031 
L 171.986571 66.403146 
L 172.002019 66.484357 
L 172.160025 67.21526 
L 172.211815 67.296472 
L 172.340212 68.189798 
L 172.36056 68.271009 
L 172.591613 68.758278 
L 172.864957 69.326758 
L 172.882014 69.407969 
L 173.030579 69.814026 
L 173.145429 69.895238 
L 173.246015 69.976449 
L 173.323878 70.057661 
L 173.432591 70.220084 
L 173.465289 70.301295 
L 173.571394 70.626141 
L 173.766102 71.11341 
L 173.840575 71.194621 
L 173.967569 71.763101 
L 173.998697 71.844313 
L 174.210782 72.575216 
L 174.273775 72.656427 
L 174.424463 73.38733 
L 174.652709 73.95581 
L 174.727535 74.037022 
L 174.797995 74.118233 
L 174.938423 74.361868 
L 175.054685 74.605502 
L 175.101905 74.686713 
L 175.236172 75.417616 
L 175.396562 75.904885 
L 175.490715 75.986097 
L 175.599138 76.229731 
L 175.686429 76.310942 
L 175.790876 76.392154 
L 176.213265 76.473365 
L 176.326173 76.554577 
L 176.390655 76.635788 
L 176.499193 76.717 
L 176.607836 76.879422 
L 176.944803 76.960634 
L 177.148571 77.366691 
L 177.238787 77.447903 
L 177.346526 77.691537 
L 177.419609 77.772748 
L 177.578987 78.016383 
L 177.693821 78.097594 
L 178.198937 78.666074 
L 178.438358 78.747286 
L 178.545924 78.909709 
L 178.887099 78.99092 
L 179.033663 79.5594 
L 180.039707 79.640612 
L 180.149077 79.884246 
L 180.280848 79.965458 
L 180.566255 80.290303 
L 180.628521 80.452726 
L 180.745972 80.533938 
L 180.97401 80.858783 
L 181.07207 81.021206 
L 181.238473 81.102418 
L 181.305142 81.264841 
L 181.431484 81.346052 
L 181.561165 81.914532 
L 181.591824 81.995744 
L 181.816152 82.401801 
L 181.996835 82.483012 
L 182.174283 82.88907 
L 182.308881 82.970281 
L 182.614859 83.051493 
L 182.724915 83.132704 
L 183.770997 83.213915 
L 183.965545 83.376338 
L 184.577501 83.45755 
L 184.650852 83.538761 
L 184.843153 83.619973 
L 185.289464 83.944818 
L 185.449844 84.02603 
L 185.554333 84.107241 
L 186.273969 84.188453 
L 186.367646 84.350876 
L 186.562933 84.432087 
L 186.934816 84.59451 
L 186.986948 84.675721 
L 187.139617 84.756933 
L 187.368102 84.838144 
L 188.044244 84.919356 
L 188.200425 85.081779 
L 188.604202 85.16299 
L 188.725365 85.325413 
L 188.962598 85.406625 
L 189.234578 85.569047 
L 189.879994 85.650259 
L 189.976234 85.73147 
L 190.465047 85.812682 
L 190.907377 85.975105 
L 191.115471 86.056316 
L 191.236007 86.137528 
L 191.441527 86.218739 
L 191.557181 86.462373 
L 191.765976 86.543585 
L 191.877225 86.787219 
L 192.465167 86.868431 
L 192.542767 86.949642 
L 192.708571 87.030853 
L 193.330171 87.112065 
L 193.843617 87.355699 
L 194.228271 87.599334 
L 194.405347 87.680545 
L 194.655285 87.761757 
L 195.301929 87.842968 
L 195.700869 88.086602 
L 196.298349 88.167814 
L 196.76579 88.49266 
L 196.8397 88.655082 
L 197.101699 88.736294 
L 197.22225 88.979928 
L 197.747481 89.06114 
L 197.889226 89.142351 
L 198.207128 89.223563 
L 198.459921 89.467197 
L 198.88898 89.548408 
L 199.011091 89.62962 
L 199.156796 89.710831 
L 200.243974 89.792043 
L 200.407254 89.873254 
L 201.123398 89.954466 
L 201.252577 90.035677 
L 202.907245 90.116889 
L 203.199877 90.279311 
L 203.837158 90.360523 
L 203.97801 90.441734 
L 207.782648 90.522946 
L 207.922174 90.604157 
L 208.077839 90.685369 
L 209.349475 90.76658 
L 209.69955 90.929003 
L 212.726298 91.010214 
L 212.868466 91.091426 
L 213.782288 91.172637 
L 217.064427 91.253849 
L 217.203767 91.33506 
L 228.454917 91.416272 
L 228.456909 91.497483 
L 250.834308 91.578695 
L 251.138099 91.659906 
L 268.290396 91.741117 
L 268.493023 91.822329 
L 300.596511 91.90354 
L 300.814684 91.984752 
L 301.826587 92.147175 
L 312.422447 92.147175 
L 312.422447 92.147175 
" clip-path="url(#p18ed2de19c)" style="fill: none; stroke: #000000; stroke-width: 1.5; stroke-linecap: square"/>
   </g>
   <g id="patch_3">
    <path d="M 44.103906 96.532593 
L 44.103906 7.2 
" style="fill: none; stroke: #000000; stroke-width: 0.8; stroke-linejoin: miter; stroke-linecap: square"/>
   </g>
   <g id="patch_4">
    <path d="M 325.19952 96.532593 
L 325.19952 7.2 
" style="fill: none; stroke: #000000; stroke-width: 0.8; stroke-linejoin: miter; stroke-linecap: square"/>
   </g>
   <g id="patch_5">
    <path d="M 44.103906 96.532593 
L 325.19952 96.532593 
" style="fill: none; stroke: #000000; stroke-width: 0.8; stroke-linejoin: miter; stroke-linecap: square"/>
   </g>
   <g id="patch_6">
    <path d="M 44.103906 7.2 
L 325.19952 7.2 
" style="fill: none; stroke: #000000; stroke-width: 0.8; stroke-linejoin: miter; stroke-linecap: square"/>
   </g>
  </g>
  <g id="axes_2">
   <g id="patch_7">
    <path d="M 44.103906 195.365666 
L 325.19952 195.365666 
L 325.19952 106.033073 
L 44.103906 106.033073 
z
" style="fill: #ffffff"/>
   </g>
   <g id="matplotlib.axis_3">
    <g id="xtick_10">
     <g id="line2d_14">
      <g>
       <use xlink:href="#mba496ea761" x="56.88098" y="195.365666" style="stroke: #000000; stroke-width: 0.8"/>
      </g>
     </g>
    </g>
    <g id="xtick_11">
     <g id="line2d_15">
      <g>
       <use xlink:href="#mba496ea761" x="88.537371" y="195.365666" style="stroke: #000000; stroke-width: 0.8"/>
      </g>
     </g>
    </g>
    <g id="xtick_12">
     <g id="line2d_16">
      <g>
       <use xlink:href="#mba496ea761" x="120.193762" y="195.365666" style="stroke: #000000; stroke-width: 0.8"/>
      </g>
     </g>
    </g>
    <g id="xtick_13">
     <g id="line2d_17">
      <g>
       <use xlink:href="#mba496ea761" x="151.850153" y="195.365666" style="stroke: #000000; stroke-width: 0.8"/>
      </g>
     </g>
    </g>
    <g id="xtick_14">
     <g id="line2d_18">
      <g>
       <use xlink:href="#mba496ea761" x="183.506545" y="195.365666" style="stroke: #000000; stroke-width: 0.8"/>
      </g>
     </g>
    </g>
    <g id="xtick_15">
     <g id="line2d_19">
      <g>
       <use xlink:href="#mba496ea761" x="215.162936" y="195.365666" style="stroke: #000000; stroke-width: 0.8"/>
      </g>
     </g>
    </g>
    <g id="xtick_16">
     <g id="line2d_20">
      <g>
       <use xlink:href="#mba496ea761" x="246.819327" y="195.365666" style="stroke: #000000; stroke-width: 0.8"/>
      </g>
     </g>
    </g>
    <g id="xtick_17">
     <g id="line2d_21">
      <g>
       <use xlink:href="#mba496ea761" x="278.475718" y="195.365666" style="stroke: #000000; stroke-width: 0.8"/>
      </g>
     </g>
    </g>
    <g id="xtick_18">
     <g id="line2d_22">
      <g>
       <use xlink:href="#mba496ea761" x="310.13211" y="195.365666" style="stroke: #000000; stroke-width: 0.8"/>
      </g>
     </g>
    </g>
   </g>
   <g id="matplotlib.axis_4">
    <g id="ytick_4">
     <g id="line2d_23">
      <g>
       <use xlink:href="#mdc90878fb3" x="44.103906" y="191.305093" style="stroke: #000000; stroke-width: 0.8"/>
      </g>
     </g>
     <g id="text_5">
      <!-- 0 -->
      <g transform="translate(30.741406 195.103922) scale(0.1 -0.1)">
       <use xlink:href="#DejaVuSans-13"/>
      </g>
     </g>
    </g>
    <g id="ytick_5">
     <g id="line2d_24">
      <g>
       <use xlink:href="#mdc90878fb3" x="44.103906" y="150.699369" style="stroke: #000000; stroke-width: 0.8"/>
      </g>
     </g>
     <g id="text_6">
      <!-- 5 -->
      <g transform="translate(30.741406 154.498197) scale(0.1 -0.1)">
       <use xlink:href="#DejaVuSans-18"/>
      </g>
     </g>
    </g>
    <g id="ytick_6">
     <g id="line2d_25">
      <g>
       <use xlink:href="#mdc90878fb3" x="44.103906" y="110.093645" style="stroke: #000000; stroke-width: 0.8"/>
      </g>
     </g>
     <g id="text_7">
      <!-- 10 -->
      <g transform="translate(24.378906 113.892473) scale(0.1 -0.1)">
       <use xlink:href="#DejaVuSans-14"/>
       <use xlink:href="#DejaVuSans-13" transform="translate(63.625 0)"/>
      </g>
     </g>
    </g>
    <g id="text_8">
     <!-- LacY -->
     <g transform="translate(17.976563 162.352494) rotate(-90) scale(0.1 -0.1)">
      <defs>
       <path id="DejaVuSans-2f" d="M 628 4666 
L 1259 4666 
L 1259 531 
L 3531 531 
L 3531 0 
L 628 0 
L 628 4666 
z
" transform="scale(0.015625)"/>
       <path id="DejaVuSans-3c" d="M -13 4666 
L 666 4666 
L 1959 2747 
L 3244 4666 
L 3922 4666 
L 2272 2222 
L 2272 0 
L 1638 0 
L 1638 2222 
L -13 4666 
z
" transform="scale(0.015625)"/>
      </defs>
      <use xlink:href="#DejaVuSans-2f"/>
      <use xlink:href="#DejaVuSans-44" transform="translate(55.71875 0)"/>
      <use xlink:href="#DejaVuSans-46" transform="translate(117 0)"/>
      <use xlink:href="#DejaVuSans-3c" transform="translate(171.984375 0)"/>
     </g>
    </g>
   </g>
   <g id="line2d_26">
    <path d="M 56.88098 110.093645 
L 56.907889 110.093645 
L 56.961946 118.21479 
L 57.069242 134.45708 
L 57.1291 142.578225 
L 57.279984 142.578225 
L 57.297539 134.45708 
L 57.516354 142.578225 
L 57.65708 142.578225 
L 57.826359 158.820514 
L 58.124841 175.062804 
L 58.189933 191.305093 
L 59.707627 191.305093 
L 59.872909 183.183949 
L 59.915307 191.305093 
L 64.897516 191.305093 
L 65.217876 183.183949 
L 65.326946 191.305093 
L 82.682525 191.305093 
L 82.87537 183.183949 
L 84.654274 191.305093 
L 84.668981 183.183949 
L 84.811036 175.062804 
L 84.815654 166.941659 
L 85.135226 175.062804 
L 85.360366 175.062804 
L 85.479039 191.305093 
L 85.539371 183.183949 
L 85.728069 183.183949 
L 85.865442 191.305093 
L 89.726399 191.305093 
L 90.113067 175.062804 
L 90.114357 166.941659 
L 90.608988 166.941659 
L 90.647346 183.183949 
L 91.413286 183.183949 
L 91.580853 175.062804 
L 91.922379 191.305093 
L 108.790942 191.305093 
L 108.895791 183.183949 
L 109.014536 183.183949 
L 109.152513 191.305093 
L 109.385628 191.305093 
L 109.42678 183.183949 
L 109.839402 183.183949 
L 110.186522 175.062804 
L 110.244402 183.183949 
L 110.418263 183.183949 
L 110.447605 191.305093 
L 119.137048 191.305093 
L 119.314046 183.183949 
L 121.397524 183.183949 
L 123.230243 191.305093 
L 130.936248 191.305093 
L 131.121028 183.183949 
L 131.406295 183.183949 
L 131.513211 191.305093 
L 135.814424 191.305093 
L 135.897486 183.183949 
L 135.919177 191.305093 
L 145.832147 191.305093 
L 146.090912 175.062804 
L 146.111577 183.183949 
L 146.140354 175.062804 
L 146.252563 166.941659 
L 146.257861 175.062804 
L 146.837942 175.062804 
L 147.450203 183.183949 
L 147.69358 183.183949 
L 148.006331 175.062804 
L 148.118315 175.062804 
L 149.181688 191.305093 
L 149.638194 191.305093 
L 149.689661 175.062804 
L 149.789733 175.062804 
L 149.941348 183.183949 
L 150.074002 183.183949 
L 150.612586 191.305093 
L 155.690276 191.305093 
L 156.115149 183.183949 
L 156.353529 150.699369 
L 156.632926 150.699369 
L 156.752077 166.941659 
L 156.801548 166.941659 
L 156.901646 158.820514 
L 156.987932 158.820514 
L 157.096865 175.062804 
L 157.124841 175.062804 
L 157.2128 183.183949 
L 157.561777 183.183949 
L 157.654669 191.305093 
L 158.051181 191.305093 
L 158.169166 183.183949 
L 158.316594 183.183949 
L 158.419875 175.062804 
L 158.558963 175.062804 
L 158.672804 183.183949 
L 159.264012 183.183949 
L 159.381554 175.062804 
L 159.523127 175.062804 
L 159.631966 183.183949 
L 159.80125 183.183949 
L 159.907296 175.062804 
L 160.007443 175.062804 
L 160.128774 158.820514 
L 160.485257 158.820514 
L 160.589284 175.062804 
L 161.010876 175.062804 
L 161.118299 166.941659 
L 161.146444 166.941659 
L 161.163685 158.820514 
L 161.177334 175.062804 
L 161.256143 166.941659 
L 161.272014 166.941659 
L 161.380475 175.062804 
L 161.614139 175.062804 
L 161.724934 150.699369 
L 161.738397 150.699369 
L 161.847936 142.578225 
L 161.84861 150.699369 
L 161.890332 150.699369 
L 162.00865 158.820514 
L 162.138903 158.820514 
L 162.25416 166.941659 
L 162.330466 166.941659 
L 162.446653 183.183949 
L 162.646911 183.183949 
L 162.717158 158.820514 
L 162.795352 175.062804 
L 163.009363 175.062804 
L 163.120859 183.183949 
L 163.20045 183.183949 
L 163.317921 175.062804 
L 163.33621 175.062804 
L 163.4619 183.183949 
L 163.55436 183.183949 
L 163.7139 191.305093 
L 164.019909 191.305093 
L 164.185468 183.183949 
L 164.445904 183.183949 
L 164.502718 175.062804 
L 164.538459 183.183949 
L 164.670277 183.183949 
L 164.741284 191.305093 
L 164.774864 183.183949 
L 165.241532 183.183949 
L 165.352517 175.062804 
L 165.540172 175.062804 
L 165.649159 166.941659 
L 165.696847 166.941659 
L 165.815716 150.699369 
L 165.916967 150.699369 
L 166.03032 166.941659 
L 166.146301 166.941659 
L 166.255871 175.062804 
L 166.340194 175.062804 
L 166.458551 183.183949 
L 166.479821 183.183949 
L 166.566789 175.062804 
L 167.280789 175.062804 
L 167.362342 183.183949 
L 167.430684 183.183949 
L 167.533621 191.305093 
L 168.496643 191.305093 
L 168.76069 183.183949 
L 168.874089 191.305093 
L 168.997025 175.062804 
L 169.093026 175.062804 
L 169.233279 158.820514 
L 169.288627 158.820514 
L 169.403393 150.699369 
L 169.591032 150.699369 
L 169.656436 142.578225 
L 169.699747 150.699369 
L 169.758495 150.699369 
L 169.914196 110.093645 
L 170.179756 110.093645 
L 170.296222 126.335935 
L 170.406429 134.45708 
L 170.433385 126.335935 
L 170.439462 142.578225 
L 170.492614 142.578225 
L 170.531185 142.578225 
L 170.635952 158.820514 
L 170.689498 158.820514 
L 170.804998 183.183949 
L 170.808697 175.062804 
L 170.960184 175.062804 
L 171.07511 183.183949 
L 171.258989 183.183949 
L 171.376913 175.062804 
L 171.502153 175.062804 
L 171.758904 158.820514 
L 171.844832 158.820514 
L 171.973619 142.578225 
L 172.018751 142.578225 
L 172.142552 150.699369 
L 172.321885 150.699369 
L 172.401656 142.578225 
L 172.413193 158.820514 
L 172.431805 158.820514 
L 172.584987 158.820514 
L 172.69012 166.941659 
L 172.940006 166.941659 
L 173.051868 175.062804 
L 173.145737 175.062804 
L 173.273848 183.183949 
L 173.360674 175.062804 
L 173.52227 166.941659 
L 173.682471 166.941659 
L 173.736239 175.062804 
L 173.766102 166.941659 
L 173.861297 166.941659 
L 173.967569 158.820514 
L 174.494979 158.820514 
L 174.59975 175.062804 
L 174.630491 175.062804 
L 174.738606 158.820514 
L 174.756523 166.941659 
L 174.760579 175.062804 
L 174.797995 166.941659 
L 174.928003 166.941659 
L 174.955755 175.062804 
L 175.038692 166.941659 
L 175.099748 166.941659 
L 175.200466 158.820514 
L 175.28337 158.820514 
L 175.337641 166.941659 
L 175.391979 158.820514 
L 175.396562 158.820514 
L 175.51915 175.062804 
L 175.618655 158.820514 
L 175.784747 175.062804 
L 175.950717 175.062804 
L 176.04803 183.183949 
L 176.271142 183.183949 
L 176.396335 150.699369 
L 176.442303 150.699369 
L 176.553956 166.941659 
L 176.671423 183.183949 
L 176.694131 183.183949 
L 176.755397 166.941659 
L 176.775911 183.183949 
L 176.898522 183.183949 
L 176.995975 166.941659 
L 177.123994 166.941659 
L 177.239641 175.062804 
L 177.411765 175.062804 
L 177.525922 166.941659 
L 177.572727 166.941659 
L 177.680814 158.820514 
L 177.747679 158.820514 
L 177.747946 150.699369 
L 177.853906 158.820514 
L 177.941396 158.820514 
L 178.042966 166.941659 
L 178.180811 166.941659 
L 178.318923 183.183949 
L 178.328695 183.183949 
L 178.545924 175.062804 
L 178.611534 175.062804 
L 178.722058 183.183949 
L 178.772522 183.183949 
L 178.926377 175.062804 
L 179.189019 175.062804 
L 179.359002 183.183949 
L 179.465344 175.062804 
L 179.603254 175.062804 
L 179.714024 183.183949 
L 179.803634 183.183949 
L 179.935553 166.941659 
L 179.986411 166.941659 
L 180.081033 150.699369 
L 180.106882 158.820514 
L 180.890577 158.820514 
L 180.987207 150.699369 
L 181.168612 150.699369 
L 181.170397 158.820514 
L 181.276146 150.699369 
L 181.410271 150.699369 
L 181.534016 142.578225 
L 181.905733 142.578225 
L 182.145347 166.941659 
L 182.214079 166.941659 
L 182.308881 183.183949 
L 182.476669 183.183949 
L 182.498512 191.305093 
L 182.577026 183.183949 
L 183.414724 183.183949 
L 183.541044 175.062804 
L 183.61099 175.062804 
L 183.695521 166.941659 
L 183.820284 183.183949 
L 183.911867 183.183949 
L 183.965545 191.305093 
L 184.127389 183.183949 
L 184.791409 183.183949 
L 184.925806 175.062804 
L 185.001242 175.062804 
L 185.075478 166.941659 
L 185.283796 166.941659 
L 185.363906 183.183949 
L 185.524108 175.062804 
L 185.554333 191.305093 
L 185.852984 191.305093 
L 186.049022 183.183949 
L 186.109573 183.183949 
L 186.204364 175.062804 
L 186.319908 158.820514 
L 186.363219 166.941659 
L 186.457207 175.062804 
L 186.483466 175.062804 
L 186.561388 166.941659 
L 186.562933 175.062804 
L 186.671034 175.062804 
L 186.7805 166.941659 
L 186.83421 166.941659 
L 186.912198 158.820514 
L 186.929664 166.941659 
L 187.038229 183.183949 
L 187.747482 183.183949 
L 187.876813 175.062804 
L 187.941783 183.183949 
L 187.959932 175.062804 
L 188.186819 175.062804 
L 188.241341 166.941659 
L 188.241822 175.062804 
L 188.391093 175.062804 
L 188.40237 166.941659 
L 188.448775 175.062804 
L 188.538305 175.062804 
L 188.641621 166.941659 
L 188.725365 166.941659 
L 188.851349 183.183949 
L 189.234578 183.183949 
L 189.523525 175.062804 
L 189.941677 175.062804 
L 189.971047 166.941659 
L 190.046825 183.183949 
L 190.311979 183.183949 
L 190.465047 175.062804 
L 190.607528 175.062804 
L 190.699976 183.183949 
L 190.795176 183.183949 
L 190.883706 175.062804 
L 190.887449 183.183949 
L 190.907377 183.183949 
L 191.075004 166.941659 
L 191.091598 175.062804 
L 191.179331 175.062804 
L 191.236007 166.941659 
L 191.426664 175.062804 
L 191.533722 150.699369 
L 191.675204 150.699369 
L 191.813712 175.062804 
L 191.877225 166.941659 
L 192.027565 175.062804 
L 192.161159 166.941659 
L 192.201668 158.820514 
L 192.322433 166.941659 
L 192.437957 175.062804 
L 192.601853 175.062804 
L 192.708571 183.183949 
L 192.743407 183.183949 
L 192.746607 191.305093 
L 192.999161 183.183949 
L 193.218935 183.183949 
L 193.330171 166.941659 
L 193.650714 166.941659 
L 193.767654 158.820514 
L 193.971584 158.820514 
L 194.079998 175.062804 
L 194.169295 183.183949 
L 194.273543 175.062804 
L 194.505589 175.062804 
L 194.661606 191.305093 
L 194.942069 191.305093 
L 194.984279 183.183949 
L 195.107037 183.183949 
L 195.262688 191.305093 
L 195.389033 183.183949 
L 195.611284 183.183949 
L 195.687542 191.305093 
L 195.700869 183.183949 
L 195.866704 183.183949 
L 195.882162 166.941659 
L 195.998336 175.062804 
L 196.216191 175.062804 
L 196.298349 166.941659 
L 196.503962 166.941659 
L 196.542057 142.578225 
L 196.723641 142.578225 
L 196.76785 150.699369 
L 196.7781 142.578225 
L 196.902015 142.578225 
L 196.974291 158.820514 
L 197.019182 150.699369 
L 197.082156 158.820514 
L 197.143392 158.820514 
L 197.22225 166.941659 
L 197.270949 158.820514 
L 197.358261 166.941659 
L 197.576077 166.941659 
L 197.74093 158.820514 
L 197.854735 166.941659 
L 197.889226 166.941659 
L 198.009924 150.699369 
L 198.253753 142.578225 
L 198.303444 142.578225 
L 198.411422 126.335935 
L 198.450964 126.335935 
L 198.51803 142.578225 
L 198.526796 134.45708 
L 198.599259 126.335935 
L 198.61536 134.45708 
L 198.672625 134.45708 
L 198.743249 142.578225 
L 198.869785 142.578225 
L 198.989826 158.820514 
L 199.079202 158.820514 
L 199.156796 166.941659 
L 199.23746 166.941659 
L 199.558412 183.183949 
L 199.600098 175.062804 
L 199.639587 183.183949 
L 199.671217 183.183949 
L 199.792154 166.941659 
L 199.851919 166.941659 
L 199.907908 175.062804 
L 199.959114 166.941659 
L 200.062018 166.941659 
L 200.067073 175.062804 
L 200.204208 175.062804 
L 200.305746 166.941659 
L 200.495816 175.062804 
L 200.803938 175.062804 
L 200.867851 183.183949 
L 201.252577 166.941659 
L 201.284889 166.941659 
L 201.38157 158.820514 
L 201.718294 175.062804 
L 202.147928 175.062804 
L 202.429416 183.183949 
L 202.635376 175.062804 
L 202.704589 166.941659 
L 202.99183 158.820514 
L 203.11038 158.820514 
L 203.192362 150.699369 
L 203.199877 158.820514 
L 203.285247 158.820514 
L 203.480334 175.062804 
L 203.597558 166.941659 
L 203.73743 183.183949 
L 203.870038 183.183949 
L 203.921237 191.305093 
L 203.970766 183.183949 
L 204.024002 175.062804 
L 204.148913 175.062804 
L 204.297465 183.183949 
L 204.496493 175.062804 
L 204.520396 183.183949 
L 204.691158 183.183949 
L 204.732541 175.062804 
L 204.994476 175.062804 
L 205.021303 183.183949 
L 205.382244 183.183949 
L 205.5273 191.305093 
L 206.353663 183.183949 
L 206.586115 175.062804 
L 206.696387 183.183949 
L 206.715962 183.183949 
L 206.750456 191.305093 
L 207.240869 183.183949 
L 207.382396 175.062804 
L 207.685383 175.062804 
L 207.889639 166.941659 
L 207.980481 175.062804 
L 208.077839 183.183949 
L 208.204611 183.183949 
L 208.392618 175.062804 
L 208.844875 175.062804 
L 208.943734 183.183949 
L 208.950406 175.062804 
L 209.074209 158.820514 
L 209.260886 166.941659 
L 209.349475 158.820514 
L 209.677887 158.820514 
L 209.771604 175.062804 
L 209.799458 166.941659 
L 209.950748 158.820514 
L 210.24215 158.820514 
L 210.42759 175.062804 
L 210.862214 175.062804 
L 210.932748 166.941659 
L 211.086697 175.062804 
L 211.778446 175.062804 
L 211.787615 183.183949 
L 211.959567 191.305093 
L 211.965515 183.183949 
L 212.180704 175.062804 
L 212.641081 158.820514 
L 212.774239 175.062804 
L 212.841602 166.941659 
L 212.868466 175.062804 
L 213.782288 175.062804 
L 214.073148 183.183949 
L 214.120455 191.305093 
L 216.191869 191.305093 
L 216.214146 183.183949 
L 216.495788 166.941659 
L 216.652833 183.183949 
L 216.771264 166.941659 
L 216.80197 175.062804 
L 216.879216 175.062804 
L 216.93901 166.941659 
L 217.113273 183.183949 
L 217.258342 175.062804 
L 217.369701 175.062804 
L 217.463621 183.183949 
L 217.975455 183.183949 
L 218.618764 191.305093 
L 227.806251 191.305093 
L 227.908882 183.183949 
L 228.114283 183.183949 
L 228.456909 158.820514 
L 228.578991 158.820514 
L 228.753881 175.062804 
L 229.008552 175.062804 
L 229.070142 183.183949 
L 229.569933 183.183949 
L 229.850308 191.305093 
L 232.63614 191.305093 
L 232.774819 183.183949 
L 233.033094 183.183949 
L 234.741965 191.305093 
L 241.214914 191.305093 
L 241.35644 183.183949 
L 241.471628 191.305093 
L 241.647433 175.062804 
L 241.987856 183.183949 
L 242.502511 191.305093 
L 244.44593 191.305093 
L 244.752719 183.183949 
L 245.075163 183.183949 
L 245.862284 191.305093 
L 250.061376 191.305093 
L 250.414594 183.183949 
L 251.006616 183.183949 
L 251.138099 191.305093 
L 251.362632 183.183949 
L 251.373351 191.305093 
L 256.207811 191.305093 
L 256.649804 175.062804 
L 256.871767 175.062804 
L 257.608229 183.183949 
L 257.72926 191.305093 
L 259.205818 191.305093 
L 259.358793 175.062804 
L 259.718699 183.183949 
L 259.792948 183.183949 
L 259.981764 191.305093 
L 267.363799 191.305093 
L 267.365382 183.183949 
L 267.83999 183.183949 
L 268.10699 166.941659 
L 268.290396 175.062804 
L 268.359779 175.062804 
L 268.493023 183.183949 
L 268.596677 183.183949 
L 268.637507 175.062804 
L 268.809379 183.183949 
L 268.975378 183.183949 
L 269.245926 175.062804 
L 269.390443 158.820514 
L 269.497341 150.699369 
L 269.498241 158.820514 
L 269.528538 158.820514 
L 269.591508 166.941659 
L 269.790304 166.941659 
L 269.796805 175.062804 
L 269.963816 191.305093 
L 289.041691 191.305093 
L 289.206783 183.183949 
L 289.622412 183.183949 
L 290.149734 191.305093 
L 292.471018 191.305093 
L 292.533898 183.183949 
L 292.712362 175.062804 
L 292.720247 183.183949 
L 292.888733 183.183949 
L 293.063722 191.305093 
L 298.38214 191.305093 
L 298.543277 183.183949 
L 298.757136 183.183949 
L 298.821376 191.305093 
L 300.331755 191.305093 
L 300.596511 183.183949 
L 300.70987 183.183949 
L 300.814684 175.062804 
L 301.349293 175.062804 
L 301.572949 183.183949 
L 301.703211 191.305093 
L 303.537789 191.305093 
L 303.828134 175.062804 
L 303.926912 183.183949 
L 304.230707 158.820514 
L 304.293676 166.941659 
L 304.525501 175.062804 
L 304.634114 166.941659 
L 304.925976 183.183949 
L 305.127174 183.183949 
L 305.231034 191.305093 
L 312.422447 191.305093 
L 312.422447 191.305093 
" clip-path="url(#p9cc6971458)" style="fill: none; stroke: #000000; stroke-width: 1.5; stroke-linecap: square"/>
   </g>
   <g id="patch_8">
    <path d="M 44.103906 195.365666 
L 44.103906 106.033073 
" style="fill: none; stroke: #000000; stroke-width: 0.8; stroke-linejoin: miter; stroke-linecap: square"/>
   </g>
   <g id="patch_9">
    <path d="M 325.19952 195.365666 
L 325.19952 106.033073 
" style="fill: none; stroke: #000000; stroke-width: 0.8; stroke-linejoin: miter; stroke-linecap: square"/>
   </g>
   <g id="patch_10">
    <path d="M 44.103906 195.365666 
L 325.19952 195.365666 
" style="fill: none; stroke: #000000; stroke-width: 0.8; stroke-linejoin: miter; stroke-linecap: square"/>
   </g>
   <g id="patch_11">
    <path d="M 44.103906 106.033073 
L 325.19952 106.033073 
" style="fill: none; stroke: #000000; stroke-width: 0.8; stroke-linejoin: miter; stroke-linecap: square"/>
   </g>
  </g>
  <g id="axes_3">
   <g id="patch_12">
    <path d="M 44.103906 294.198739 
L 325.19952 294.198739 
L 325.19952 204.866146 
L 44.103906 204.866146 
z
" style="fill: #ffffff"/>
   </g>
   <g id="matplotlib.axis_5">
    <g id="xtick_19">
     <g id="line2d_27">
      <g>
       <use xlink:href="#mba496ea761" x="56.88098" y="294.198739" style="stroke: #000000; stroke-width: 0.8"/>
      </g>
     </g>
     <g id="text_9">
      <!-- 0 -->
      <g transform="translate(53.69973 308.796395) scale(0.1 -0.1)">
       <use xlink:href="#DejaVuSans-13"/>
      </g>
     </g>
    </g>
    <g id="xtick_20">
     <g id="line2d_28">
      <g>
       <use xlink:href="#mba496ea761" x="88.537371" y="294.198739" style="stroke: #000000; stroke-width: 0.8"/>
      </g>
     </g>
     <g id="text_10">
      <!-- 100 -->
      <g transform="translate(78.993621 308.796395) scale(0.1 -0.1)">
       <use xlink:href="#DejaVuSans-14"/>
       <use xlink:href="#DejaVuSans-13" transform="translate(63.625 0)"/>
       <use xlink:href="#DejaVuSans-13" transform="translate(127.25 0)"/>
      </g>
     </g>
    </g>
    <g id="xtick_21">
     <g id="line2d_29">
      <g>
       <use xlink:href="#mba496ea761" x="120.193762" y="294.198739" style="stroke: #000000; stroke-width: 0.8"/>
      </g>
     </g>
     <g id="text_11">
      <!-- 200 -->
      <g transform="translate(110.650012 308.796395) scale(0.1 -0.1)">
       <defs>
        <path id="DejaVuSans-15" d="M 1228 531 
L 3431 531 
L 3431 0 
L 469 0 
L 469 531 
Q 828 903 1448 1529 
Q 2069 2156 2228 2338 
Q 2531 2678 2651 2914 
Q 2772 3150 2772 3378 
Q 2772 3750 2511 3984 
Q 2250 4219 1831 4219 
Q 1534 4219 1204 4116 
Q 875 4013 500 3803 
L 500 4441 
Q 881 4594 1212 4672 
Q 1544 4750 1819 4750 
Q 2544 4750 2975 4387 
Q 3406 4025 3406 3419 
Q 3406 3131 3298 2873 
Q 3191 2616 2906 2266 
Q 2828 2175 2409 1742 
Q 1991 1309 1228 531 
z
" transform="scale(0.015625)"/>
       </defs>
       <use xlink:href="#DejaVuSans-15"/>
       <use xlink:href="#DejaVuSans-13" transform="translate(63.625 0)"/>
       <use xlink:href="#DejaVuSans-13" transform="translate(127.25 0)"/>
      </g>
     </g>
    </g>
    <g id="xtick_22">
     <g id="line2d_30">
      <g>
       <use xlink:href="#mba496ea761" x="151.850153" y="294.198739" style="stroke: #000000; stroke-width: 0.8"/>
      </g>
     </g>
     <g id="text_12">
      <!-- 300 -->
      <g transform="translate(142.306403 308.796395) scale(0.1 -0.1)">
       <defs>
        <path id="DejaVuSans-16" d="M 2597 2516 
Q 3050 2419 3304 2112 
Q 3559 1806 3559 1356 
Q 3559 666 3084 287 
Q 2609 -91 1734 -91 
Q 1441 -91 1130 -33 
Q 819 25 488 141 
L 488 750 
Q 750 597 1062 519 
Q 1375 441 1716 441 
Q 2309 441 2620 675 
Q 2931 909 2931 1356 
Q 2931 1769 2642 2001 
Q 2353 2234 1838 2234 
L 1294 2234 
L 1294 2753 
L 1863 2753 
Q 2328 2753 2575 2939 
Q 2822 3125 2822 3475 
Q 2822 3834 2567 4026 
Q 2313 4219 1838 4219 
Q 1578 4219 1281 4162 
Q 984 4106 628 3988 
L 628 4550 
Q 988 4650 1302 4700 
Q 1616 4750 1894 4750 
Q 2613 4750 3031 4423 
Q 3450 4097 3450 3541 
Q 3450 3153 3228 2886 
Q 3006 2619 2597 2516 
z
" transform="scale(0.015625)"/>
       </defs>
       <use xlink:href="#DejaVuSans-16"/>
       <use xlink:href="#DejaVuSans-13" transform="translate(63.625 0)"/>
       <use xlink:href="#DejaVuSans-13" transform="translate(127.25 0)"/>
      </g>
     </g>
    </g>
    <g id="xtick_23">
     <g id="line2d_31">
      <g>
       <use xlink:href="#mba496ea761" x="183.506545" y="294.198739" style="stroke: #000000; stroke-width: 0.8"/>
      </g>
     </g>
     <g id="text_13">
      <!-- 400 -->
      <g transform="translate(173.962795 308.796395) scale(0.1 -0.1)">
       <defs>
        <path id="DejaVuSans-17" d="M 2419 4116 
L 825 1625 
L 2419 1625 
L 2419 4116 
z
M 2253 4666 
L 3047 4666 
L 3047 1625 
L 3713 1625 
L 3713 1100 
L 3047 1100 
L 3047 0 
L 2419 0 
L 2419 1100 
L 313 1100 
L 313 1709 
L 2253 4666 
z
" transform="scale(0.015625)"/>
       </defs>
       <use xlink:href="#DejaVuSans-17"/>
       <use xlink:href="#DejaVuSans-13" transform="translate(63.625 0)"/>
       <use xlink:href="#DejaVuSans-13" transform="translate(127.25 0)"/>
      </g>
     </g>
    </g>
    <g id="xtick_24">
     <g id="line2d_32">
      <g>
       <use xlink:href="#mba496ea761" x="215.162936" y="294.198739" style="stroke: #000000; stroke-width: 0.8"/>
      </g>
     </g>
     <g id="text_14">
      <!-- 500 -->
      <g transform="translate(205.619186 308.796395) scale(0.1 -0.1)">
       <use xlink:href="#DejaVuSans-18"/>
       <use xlink:href="#DejaVuSans-13" transform="translate(63.625 0)"/>
       <use xlink:href="#DejaVuSans-13" transform="translate(127.25 0)"/>
      </g>
     </g>
    </g>
    <g id="xtick_25">
     <g id="line2d_33">
      <g>
       <use xlink:href="#mba496ea761" x="246.819327" y="294.198739" style="stroke: #000000; stroke-width: 0.8"/>
      </g>
     </g>
     <g id="text_15">
      <!-- 600 -->
      <g transform="translate(237.275577 308.796395) scale(0.1 -0.1)">
       <defs>
        <path id="DejaVuSans-19" d="M 2113 2584 
Q 1688 2584 1439 2293 
Q 1191 2003 1191 1497 
Q 1191 994 1439 701 
Q 1688 409 2113 409 
Q 2538 409 2786 701 
Q 3034 994 3034 1497 
Q 3034 2003 2786 2293 
Q 2538 2584 2113 2584 
z
M 3366 4563 
L 3366 3988 
Q 3128 4100 2886 4159 
Q 2644 4219 2406 4219 
Q 1781 4219 1451 3797 
Q 1122 3375 1075 2522 
Q 1259 2794 1537 2939 
Q 1816 3084 2150 3084 
Q 2853 3084 3261 2657 
Q 3669 2231 3669 1497 
Q 3669 778 3244 343 
Q 2819 -91 2113 -91 
Q 1303 -91 875 529 
Q 447 1150 447 2328 
Q 447 3434 972 4092 
Q 1497 4750 2381 4750 
Q 2619 4750 2861 4703 
Q 3103 4656 3366 4563 
z
" transform="scale(0.015625)"/>
       </defs>
       <use xlink:href="#DejaVuSans-19"/>
       <use xlink:href="#DejaVuSans-13" transform="translate(63.625 0)"/>
       <use xlink:href="#DejaVuSans-13" transform="translate(127.25 0)"/>
      </g>
     </g>
    </g>
    <g id="xtick_26">
     <g id="line2d_34">
      <g>
       <use xlink:href="#mba496ea761" x="278.475718" y="294.198739" style="stroke: #000000; stroke-width: 0.8"/>
      </g>
     </g>
     <g id="text_16">
      <!-- 700 -->
      <g transform="translate(268.931968 308.796395) scale(0.1 -0.1)">
       <defs>
        <path id="DejaVuSans-1a" d="M 525 4666 
L 3525 4666 
L 3525 4397 
L 1831 0 
L 1172 0 
L 2766 4134 
L 525 4134 
L 525 4666 
z
" transform="scale(0.015625)"/>
       </defs>
       <use xlink:href="#DejaVuSans-1a"/>
       <use xlink:href="#DejaVuSans-13" transform="translate(63.625 0)"/>
       <use xlink:href="#DejaVuSans-13" transform="translate(127.25 0)"/>
      </g>
     </g>
    </g>
    <g id="xtick_27">
     <g id="line2d_35">
      <g>
       <use xlink:href="#mba496ea761" x="310.13211" y="294.198739" style="stroke: #000000; stroke-width: 0.8"/>
      </g>
     </g>
     <g id="text_17">
      <!-- 800 -->
      <g transform="translate(300.58836 308.796395) scale(0.1 -0.1)">
       <defs>
        <path id="DejaVuSans-1b" d="M 2034 2216 
Q 1584 2216 1326 1975 
Q 1069 1734 1069 1313 
Q 1069 891 1326 650 
Q 1584 409 2034 409 
Q 2484 409 2743 651 
Q 3003 894 3003 1313 
Q 3003 1734 2745 1975 
Q 2488 2216 2034 2216 
z
M 1403 2484 
Q 997 2584 770 2862 
Q 544 3141 544 3541 
Q 544 4100 942 4425 
Q 1341 4750 2034 4750 
Q 2731 4750 3128 4425 
Q 3525 4100 3525 3541 
Q 3525 3141 3298 2862 
Q 3072 2584 2669 2484 
Q 3125 2378 3379 2068 
Q 3634 1759 3634 1313 
Q 3634 634 3220 271 
Q 2806 -91 2034 -91 
Q 1263 -91 848 271 
Q 434 634 434 1313 
Q 434 1759 690 2068 
Q 947 2378 1403 2484 
z
M 1172 3481 
Q 1172 3119 1398 2916 
Q 1625 2713 2034 2713 
Q 2441 2713 2670 2916 
Q 2900 3119 2900 3481 
Q 2900 3844 2670 4047 
Q 2441 4250 2034 4250 
Q 1625 4250 1398 4047 
Q 1172 3844 1172 3481 
z
" transform="scale(0.015625)"/>
       </defs>
       <use xlink:href="#DejaVuSans-1b"/>
       <use xlink:href="#DejaVuSans-13" transform="translate(63.625 0)"/>
       <use xlink:href="#DejaVuSans-13" transform="translate(127.25 0)"/>
      </g>
     </g>
    </g>
    <g id="text_18">
     <!-- Time -->
     <g transform="translate(172.415776 322.797176) scale(0.1 -0.1)">
      <defs>
       <path id="DejaVuSans-37" d="M -19 4666 
L 3928 4666 
L 3928 4134 
L 2272 4134 
L 2272 0 
L 1638 0 
L 1638 4134 
L -19 4134 
L -19 4666 
z
" transform="scale(0.015625)"/>
       <path id="DejaVuSans-4c" d="M 603 3500 
L 1178 3500 
L 1178 0 
L 603 0 
L 603 3500 
z
M 603 4863 
L 1178 4863 
L 1178 4134 
L 603 4134 
L 603 4863 
z
" transform="scale(0.015625)"/>
       <path id="DejaVuSans-50" d="M 3328 2828 
Q 3544 3216 3844 3400 
Q 4144 3584 4550 3584 
Q 5097 3584 5394 3201 
Q 5691 2819 5691 2113 
L 5691 0 
L 5113 0 
L 5113 2094 
Q 5113 2597 4934 2840 
Q 4756 3084 4391 3084 
Q 3944 3084 3684 2787 
Q 3425 2491 3425 1978 
L 3425 0 
L 2847 0 
L 2847 2094 
Q 2847 2600 2669 2842 
Q 2491 3084 2119 3084 
Q 1678 3084 1418 2786 
Q 1159 2488 1159 1978 
L 1159 0 
L 581 0 
L 581 3500 
L 1159 3500 
L 1159 2956 
Q 1356 3278 1631 3431 
Q 1906 3584 2284 3584 
Q 2666 3584 2933 3390 
Q 3200 3197 3328 2828 
z
" transform="scale(0.015625)"/>
      </defs>
      <use xlink:href="#DejaVuSans-37"/>
      <use xlink:href="#DejaVuSans-4c" transform="translate(58 0)"/>
      <use xlink:href="#DejaVuSans-50" transform="translate(85.78125 0)"/>
      <use xlink:href="#DejaVuSans-48" transform="translate(183.1875 0)"/>
     </g>
    </g>
   </g>
   <g id="matplotlib.axis_6">
    <g id="ytick_7">
     <g id="line2d_36">
      <g>
       <use xlink:href="#mdc90878fb3" x="44.103906" y="290.138166" style="stroke: #000000; stroke-width: 0.8"/>
      </g>
     </g>
     <g id="text_19">
      <!-- 0.0 -->
      <g transform="translate(21.200781 293.936994) scale(0.1 -0.1)">
       <defs>
        <path id="DejaVuSans-11" d="M 684 794 
L 1344 794 
L 1344 0 
L 684 0 
L 684 794 
z
" transform="scale(0.015625)"/>
       </defs>
       <use xlink:href="#DejaVuSans-13"/>
       <use xlink:href="#DejaVuSans-11" transform="translate(63.625 0)"/>
       <use xlink:href="#DejaVuSans-13" transform="translate(95.40625 0)"/>
      </g>
     </g>
    </g>
    <g id="ytick_8">
     <g id="line2d_37">
      <g>
       <use xlink:href="#mdc90878fb3" x="44.103906" y="249.532442" style="stroke: #000000; stroke-width: 0.8"/>
      </g>
     </g>
     <g id="text_20">
      <!-- 0.5 -->
      <g transform="translate(21.200781 253.33127) scale(0.1 -0.1)">
       <use xlink:href="#DejaVuSans-13"/>
       <use xlink:href="#DejaVuSans-11" transform="translate(63.625 0)"/>
       <use xlink:href="#DejaVuSans-18" transform="translate(95.40625 0)"/>
      </g>
     </g>
    </g>
    <g id="ytick_9">
     <g id="line2d_38">
      <g>
       <use xlink:href="#mdc90878fb3" x="44.103906" y="208.926718" style="stroke: #000000; stroke-width: 0.8"/>
      </g>
     </g>
     <g id="text_21">
      <!-- 1.0 -->
      <g transform="translate(21.200781 212.725546) scale(0.1 -0.1)">
       <use xlink:href="#DejaVuSans-14"/>
       <use xlink:href="#DejaVuSans-11" transform="translate(63.625 0)"/>
       <use xlink:href="#DejaVuSans-13" transform="translate(95.40625 0)"/>
      </g>
     </g>
    </g>
    <g id="text_22">
     <!-- Free lac operon -->
     <g transform="translate(14.798438 288.006661) rotate(-90) scale(0.1 -0.1)">
      <defs>
       <path id="DejaVuSans-29" d="M 628 4666 
L 3309 4666 
L 3309 4134 
L 1259 4134 
L 1259 2759 
L 3109 2759 
L 3109 2228 
L 1259 2228 
L 1259 0 
L 628 0 
L 628 4666 
z
" transform="scale(0.015625)"/>
       <path id="DejaVuSans-53" d="M 1159 525 
L 1159 -1331 
L 581 -1331 
L 581 3500 
L 1159 3500 
L 1159 2969 
Q 1341 3281 1617 3432 
Q 1894 3584 2278 3584 
Q 2916 3584 3314 3078 
Q 3713 2572 3713 1747 
Q 3713 922 3314 415 
Q 2916 -91 2278 -91 
Q 1894 -91 1617 61 
Q 1341 213 1159 525 
z
M 3116 1747 
Q 3116 2381 2855 2742 
Q 2594 3103 2138 3103 
Q 1681 3103 1420 2742 
Q 1159 2381 1159 1747 
Q 1159 1113 1420 752 
Q 1681 391 2138 391 
Q 2594 391 2855 752 
Q 3116 1113 3116 1747 
z
" transform="scale(0.015625)"/>
       <path id="DejaVuSans-51" d="M 3513 2113 
L 3513 0 
L 2938 0 
L 2938 2094 
Q 2938 2591 2744 2837 
Q 2550 3084 2163 3084 
Q 1697 3084 1428 2787 
Q 1159 2491 1159 1978 
L 1159 0 
L 581 0 
L 581 3500 
L 1159 3500 
L 1159 2956 
Q 1366 3272 1645 3428 
Q 1925 3584 2291 3584 
Q 2894 3584 3203 3211 
Q 3513 2838 3513 2113 
z
" transform="scale(0.015625)"/>
      </defs>
      <use xlink:href="#DejaVuSans-29"/>
      <use xlink:href="#DejaVuSans-55" transform="translate(50.234375 0)"/>
      <use xlink:href="#DejaVuSans-48" transform="translate(89.140625 0)"/>
      <use xlink:href="#DejaVuSans-48" transform="translate(150.671875 0)"/>
      <use xlink:href="#DejaVuSans-3" transform="translate(212.203125 0)"/>
      <use xlink:href="#DejaVuSans-4f" transform="translate(243.984375 0)"/>
      <use xlink:href="#DejaVuSans-44" transform="translate(271.765625 0)"/>
      <use xlink:href="#DejaVuSans-46" transform="translate(333.046875 0)"/>
      <use xlink:href="#DejaVuSans-3" transform="translate(388.03125 0)"/>
      <use xlink:href="#DejaVuSans-52" transform="translate(419.8125 0)"/>
      <use xlink:href="#DejaVuSans-53" transform="translate(481 0)"/>
      <use xlink:href="#DejaVuSans-48" transform="translate(544.484375 0)"/>
      <use xlink:href="#DejaVuSans-55" transform="translate(606.015625 0)"/>
      <use xlink:href="#DejaVuSans-52" transform="translate(644.921875 0)"/>
      <use xlink:href="#DejaVuSans-51" transform="translate(706.109375 0)"/>
     </g>
    </g>
   </g>
   <g id="line2d_39">
    <path d="M 56.88098 208.926718 
L 56.961946 290.138166 
L 57.1291 290.138166 
L 57.297539 208.926718 
L 57.41491 208.926718 
L 57.516354 290.138166 
L 58.724445 290.138166 
L 59.707627 208.926718 
L 59.892715 208.926718 
L 59.915307 290.138166 
L 62.320457 290.138166 
L 64.897516 208.926718 
L 65.190427 208.926718 
L 65.326946 290.138166 
L 65.451972 290.138166 
L 72.069559 208.926718 
L 72.238206 290.138166 
L 80.025032 208.926718 
L 80.073738 290.138166 
L 82.682525 208.926718 
L 82.821573 208.926718 
L 82.87537 290.138166 
L 84.603988 290.138166 
L 84.668981 208.926718 
L 85.539371 208.926718 
L 85.728069 290.138166 
L 86.753954 290.138166 
L 89.726399 208.926718 
L 90.262767 208.926718 
L 90.291849 290.138166 
L 90.647346 290.138166 
L 91.522801 208.926718 
L 91.580853 290.138166 
L 91.922379 290.138166 
L 108.882181 208.926718 
L 108.895791 290.138166 
L 109.152513 290.138166 
L 109.42678 208.926718 
L 109.712196 290.138166 
L 109.839402 208.926718 
L 110.244402 208.926718 
L 110.447605 290.138166 
L 110.738272 290.138166 
L 114.872332 208.926718 
L 115.528497 290.138166 
L 117.159447 208.926718 
L 117.472549 290.138166 
L 118.140433 208.926718 
L 118.227168 290.138166 
L 119.229711 208.926718 
L 119.314046 290.138166 
L 123.230243 290.138166 
L 129.208434 208.926718 
L 129.313665 290.138166 
L 131.044168 208.926718 
L 131.491916 208.926718 
L 131.513211 290.138166 
L 133.341071 290.138166 
L 135.919177 208.926718 
L 135.932394 290.138166 
L 138.793989 208.926718 
L 138.836432 290.138166 
L 145.832147 208.926718 
L 146.770091 208.926718 
L 146.837942 290.138166 
L 147.450203 290.138166 
L 147.69358 208.926718 
L 148.006331 208.926718 
L 148.118315 290.138166 
L 149.181688 290.138166 
L 149.689661 208.926718 
L 149.789733 290.138166 
L 150.90325 290.138166 
L 150.914494 208.926718 
L 151.074939 290.138166 
L 155.354311 208.926718 
L 155.442643 290.138166 
L 155.690276 208.926718 
L 210.31608 208.926718 
L 210.42759 290.138166 
L 210.932748 208.926718 
L 212.776654 208.926718 
L 212.868466 290.138166 
L 215.01675 290.138166 
L 216.214146 208.926718 
L 217.226592 208.926718 
L 217.258342 290.138166 
L 220.794321 290.138166 
L 227.292517 208.926718 
L 227.413504 290.138166 
L 227.908882 208.926718 
L 228.434244 208.926718 
L 228.456909 290.138166 
L 229.070142 290.138166 
L 229.23684 208.926718 
L 229.25527 290.138166 
L 229.850308 290.138166 
L 232.63614 208.926718 
L 232.769516 208.926718 
L 232.774819 290.138166 
L 234.741965 290.138166 
L 238.970939 208.926718 
L 239.09885 290.138166 
L 241.214914 208.926718 
L 241.622083 208.926718 
L 241.647433 290.138166 
L 242.502511 290.138166 
L 242.846623 208.926718 
L 242.882468 290.138166 
L 243.134618 290.138166 
L 244.44593 208.926718 
L 244.738454 208.926718 
L 244.752719 290.138166 
L 245.862284 290.138166 
L 250.061376 208.926718 
L 250.315927 208.926718 
L 250.414594 290.138166 
L 251.12423 290.138166 
L 251.138099 208.926718 
L 251.373351 208.926718 
L 251.539547 290.138166 
L 252.046677 208.926718 
L 252.078806 290.138166 
L 252.298294 290.138166 
L 252.449614 208.926718 
L 252.498884 290.138166 
L 256.207811 208.926718 
L 256.695849 208.926718 
L 256.705909 290.138166 
L 257.588839 290.138166 
L 257.608229 208.926718 
L 257.72926 208.926718 
L 258.112138 290.138166 
L 259.205818 208.926718 
L 259.328088 208.926718 
L 259.358793 290.138166 
L 259.981764 290.138166 
L 260.26378 208.926718 
L 260.486303 290.138166 
L 263.94828 208.926718 
L 264.169941 290.138166 
L 264.989863 208.926718 
L 265.074295 290.138166 
L 267.017616 208.926718 
L 267.26815 290.138166 
L 267.365382 208.926718 
L 267.758807 290.138166 
L 267.83999 208.926718 
L 269.591508 208.926718 
L 269.796805 290.138166 
L 281.926859 290.138166 
L 289.041691 208.926718 
L 289.162309 208.926718 
L 289.206783 290.138166 
L 290.149734 290.138166 
L 292.533898 208.926718 
L 292.720247 208.926718 
L 292.888733 290.138166 
L 293.306904 290.138166 
L 296.115818 208.926718 
L 296.195302 290.138166 
L 298.473937 208.926718 
L 298.543277 208.926718 
L 298.821376 290.138166 
L 299.259993 208.926718 
L 299.574936 290.138166 
L 300.331755 208.926718 
L 300.721325 208.926718 
L 300.814684 290.138166 
L 301.826587 290.138166 
L 303.537789 208.926718 
L 304.743089 208.926718 
L 304.806973 290.138166 
L 305.231034 290.138166 
L 312.422447 208.926718 
L 312.422447 208.926718 
" clip-path="url(#pad7621aa26)" style="fill: none; stroke: #000000; stroke-width: 1.5; stroke-linecap: square"/>
   </g>
   <g id="patch_13">
    <path d="M 44.103906 294.198739 
L 44.103906 204.866146 
" style="fill: none; stroke: #000000; stroke-width: 0.8; stroke-linejoin: miter; stroke-linecap: square"/>
   </g>
   <g id="patch_14">
    <path d="M 325.19952 294.198739 
L 325.19952 204.866146 
" style="fill: none; stroke: #000000; stroke-width: 0.8; stroke-linejoin: miter; stroke-linecap: square"/>
   </g>
   <g id="patch_15">
    <path d="M 44.103906 294.198739 
L 325.19952 294.198739 
" style="fill: none; stroke: #000000; stroke-width: 0.8; stroke-linejoin: miter; stroke-linecap: square"/>
   </g>
   <g id="patch_16">
    <path d="M 44.103906 204.866146 
L 325.19952 204.866146 
" style="fill: none; stroke: #000000; stroke-width: 0.8; stroke-linejoin: miter; stroke-linecap: square"/>
   </g>
  </g>
 </g>
 <defs>
  <clipPath id="p18ed2de19c">
   <rect x="44.103906" y="7.2" width="281.095614" height="89.332593"/>
  </clipPath>
  <clipPath id="p9cc6971458">
   <rect x="44.103906" y="106.033073" width="281.095614" height="89.332593"/>
  </clipPath>
  <clipPath id="pad7621aa26">
   <rect x="44.103906" y="204.866146" width="281.095614" height="89.332593"/>
  </clipPath>
 </defs>
</svg>
