<?xml version="1.0" encoding="utf-8" standalone="no"?>
<!DOCTYPE svg PUBLIC "-//W3C//DTD SVG 1.1//EN"
  "http://www.w3.org/Graphics/SVG/1.1/DTD/svg11.dtd">
<svg xmlns:xlink="http://www.w3.org/1999/xlink" width="332.39952pt" height="332.39952pt" viewBox="0 0 332.39952 332.39952" xmlns="http://www.w3.org/2000/svg" version="1.1">
 <metadata>
  <rdf:RDF xmlns:dc="http://purl.org/dc/elements/1.1/" xmlns:cc="http://creativecommons.org/ns#" xmlns:rdf="http://www.w3.org/1999/02/22-rdf-syntax-ns#">
   <cc:Work>
    <dc:type rdf:resource="http://purl.org/dc/dcmitype/StillImage"/>
    <dc:date>2026-05-18T16:26:32.976160</dc:date>
    <dc:format>image/svg+xml</dc:format>
    <dc:creator>
     <cc:Agent>
      <dc:title>Matplotlib v3.10.9, https://matplotlib.org/</dc:title>
     </cc:Agent>
    </dc:creator>
   </cc:Work>
  </rdf:RDF>
 </metadata>
 <defs>
  <style type="text/css">*{stroke-linejoin: round; stroke-linecap: butt}</style>
 </defs>
 <g id="figure_1">
  <g id="patch_1">
   <path d="M 0 332.39952 
L 332.39952 332.39952 
L 332.39952 0 
L 0 0 
z
" style="fill: #ffffff"/>
  </g>
  <g id="axes_1">
   <g id="patch_2">
    <path d="M 43.78125 96.747437 
L 325.19952 96.747437 
L 325.19952 7.2 
L 43.78125 7.2 
z
" style="fill: #ffffff"/>
   </g>
   <g id="matplotlib.axis_1">
    <g id="xtick_1">
     <g id="line2d_1">
      <defs>
       <path id="md8479fbf61" d="M 0 0 
L 0 3.5 
" style="stroke: #000000; stroke-width: 0.8"/>
      </defs>
      <g>
       <use xlink:href="#md8479fbf61" x="56.57299" y="96.747437" style="stroke: #000000; stroke-width: 0.8"/>
      </g>
     </g>
    </g>
    <g id="xtick_2">
     <g id="line2d_2">
      <g>
       <use xlink:href="#md8479fbf61" x="88.535408" y="96.747437" style="stroke: #000000; stroke-width: 0.8"/>
      </g>
     </g>
    </g>
    <g id="xtick_3">
     <g id="line2d_3">
      <g>
       <use xlink:href="#md8479fbf61" x="120.497826" y="96.747437" style="stroke: #000000; stroke-width: 0.8"/>
      </g>
     </g>
    </g>
    <g id="xtick_4">
     <g id="line2d_4">
      <g>
       <use xlink:href="#md8479fbf61" x="152.460245" y="96.747437" style="stroke: #000000; stroke-width: 0.8"/>
      </g>
     </g>
    </g>
    <g id="xtick_5">
     <g id="line2d_5">
      <g>
       <use xlink:href="#md8479fbf61" x="184.422663" y="96.747437" style="stroke: #000000; stroke-width: 0.8"/>
      </g>
     </g>
    </g>
    <g id="xtick_6">
     <g id="line2d_6">
      <g>
       <use xlink:href="#md8479fbf61" x="216.385081" y="96.747437" style="stroke: #000000; stroke-width: 0.8"/>
      </g>
     </g>
    </g>
    <g id="xtick_7">
     <g id="line2d_7">
      <g>
       <use xlink:href="#md8479fbf61" x="248.3475" y="96.747437" style="stroke: #000000; stroke-width: 0.8"/>
      </g>
     </g>
    </g>
    <g id="xtick_8">
     <g id="line2d_8">
      <g>
       <use xlink:href="#md8479fbf61" x="280.309918" y="96.747437" style="stroke: #000000; stroke-width: 0.8"/>
      </g>
     </g>
    </g>
    <g id="xtick_9">
     <g id="line2d_9">
      <g>
       <use xlink:href="#md8479fbf61" x="312.272336" y="96.747437" style="stroke: #000000; stroke-width: 0.8"/>
      </g>
     </g>
    </g>
   </g>
   <g id="matplotlib.axis_2">
    <g id="ytick_1">
     <g id="line2d_10">
      <defs>
       <path id="m97ac1270da" d="M 0 0 
L -3.5 0 
" style="stroke: #000000; stroke-width: 0.8"/>
      </defs>
      <g>
       <use xlink:href="#m97ac1270da" x="43.78125" y="92.677099" style="stroke: #000000; stroke-width: 0.8"/>
      </g>
     </g>
     <g id="text_1">
      <!-- 0 -->
      <g transform="translate(30.41875 96.476317) scale(0.1 -0.1)">
       <defs>
        <path id="DejaVuSans-30" d="M 2034 4250 
Q 1547 4250 1301 3770 
Q 1056 3291 1056 2328 
Q 1056 1369 1301 889 
Q 1547 409 2034 409 
Q 2525 409 2770 889 
Q 3016 1369 3016 2328 
Q 3016 3291 2770 3770 
Q 2525 4250 2034 4250 
z
M 2034 4750 
Q 2819 4750 3233 4129 
Q 3647 3509 3647 2328 
Q 3647 1150 3233 529 
Q 2819 -91 2034 -91 
Q 1250 -91 836 529 
Q 422 1150 422 2328 
Q 422 3509 836 4129 
Q 1250 4750 2034 4750 
z
" transform="scale(0.015625)"/>
       </defs>
       <use xlink:href="#DejaVuSans-30"/>
      </g>
     </g>
    </g>
    <g id="ytick_2">
     <g id="line2d_11">
      <g>
       <use xlink:href="#m97ac1270da" x="43.78125" y="51.973718" style="stroke: #000000; stroke-width: 0.8"/>
      </g>
     </g>
     <g id="text_2">
      <!-- 5 -->
      <g transform="translate(30.41875 55.772937) scale(0.1 -0.1)">
       <defs>
        <path id="DejaVuSans-35" d="M 691 4666 
L 3169 4666 
L 3169 4134 
L 1269 4134 
L 1269 2991 
Q 1406 3038 1543 3061 
Q 1681 3084 1819 3084 
Q 2600 3084 3056 2656 
Q 3513 2228 3513 1497 
Q 3513 744 3044 326 
Q 2575 -91 1722 -91 
Q 1428 -91 1123 -41 
Q 819 9 494 109 
L 494 744 
Q 775 591 1075 516 
Q 1375 441 1709 441 
Q 2250 441 2565 725 
Q 2881 1009 2881 1497 
Q 2881 1984 2565 2268 
Q 2250 2553 1709 2553 
Q 1456 2553 1204 2497 
Q 953 2441 691 2322 
L 691 4666 
z
" transform="scale(0.015625)"/>
       </defs>
       <use xlink:href="#DejaVuSans-35"/>
      </g>
     </g>
    </g>
    <g id="ytick_3">
     <g id="line2d_12">
      <g>
       <use xlink:href="#m97ac1270da" x="43.78125" y="11.270338" style="stroke: #000000; stroke-width: 0.8"/>
      </g>
     </g>
     <g id="text_3">
      <!-- 10 -->
      <g transform="translate(24.05625 15.069557) scale(0.1 -0.1)">
       <defs>
        <path id="DejaVuSans-31" d="M 794 531 
L 1825 531 
L 1825 4091 
L 703 3866 
L 703 4441 
L 1819 4666 
L 2450 4666 
L 2450 531 
L 3481 531 
L 3481 0 
L 794 0 
L 794 531 
z
" transform="scale(0.015625)"/>
       </defs>
       <use xlink:href="#DejaVuSans-31"/>
       <use xlink:href="#DejaVuSans-30" transform="translate(63.623047 0)"/>
      </g>
     </g>
    </g>
    <g id="text_4">
     <!-- Extracellular lactose -->
     <g transform="translate(17.976562 102.945593) rotate(-90) scale(0.1 -0.1)">
      <defs>
       <path id="DejaVuSans-45" d="M 628 4666 
L 3578 4666 
L 3578 4134 
L 1259 4134 
L 1259 2753 
L 3481 2753 
L 3481 2222 
L 1259 2222 
L 1259 531 
L 3634 531 
L 3634 0 
L 628 0 
L 628 4666 
z
" transform="scale(0.015625)"/>
       <path id="DejaVuSans-78" d="M 3513 3500 
L 2247 1797 
L 3578 0 
L 2900 0 
L 1881 1375 
L 863 0 
L 184 0 
L 1544 1831 
L 300 3500 
L 978 3500 
L 1906 2253 
L 2834 3500 
L 3513 3500 
z
" transform="scale(0.015625)"/>
       <path id="DejaVuSans-74" d="M 1172 4494 
L 1172 3500 
L 2356 3500 
L 2356 3053 
L 1172 3053 
L 1172 1153 
Q 1172 725 1289 603 
Q 1406 481 1766 481 
L 2356 481 
L 2356 0 
L 1766 0 
Q 1100 0 847 248 
Q 594 497 594 1153 
L 594 3053 
L 172 3053 
L 172 3500 
L 594 3500 
L 594 4494 
L 1172 4494 
z
" transform="scale(0.015625)"/>
       <path id="DejaVuSans-72" d="M 2631 2963 
Q 2534 3019 2420 3045 
Q 2306 3072 2169 3072 
Q 1681 3072 1420 2755 
Q 1159 2438 1159 1844 
L 1159 0 
L 581 0 
L 581 3500 
L 1159 3500 
L 1159 2956 
Q 1341 3275 1631 3429 
Q 1922 3584 2338 3584 
Q 2397 3584 2469 3576 
Q 2541 3569 2628 3553 
L 2631 2963 
z
" transform="scale(0.015625)"/>
       <path id="DejaVuSans-61" d="M 2194 1759 
Q 1497 1759 1228 1600 
Q 959 1441 959 1056 
Q 959 750 1161 570 
Q 1363 391 1709 391 
Q 2188 391 2477 730 
Q 2766 1069 2766 1631 
L 2766 1759 
L 2194 1759 
z
M 3341 1997 
L 3341 0 
L 2766 0 
L 2766 531 
Q 2569 213 2275 61 
Q 1981 -91 1556 -91 
Q 1019 -91 701 211 
Q 384 513 384 1019 
Q 384 1609 779 1909 
Q 1175 2209 1959 2209 
L 2766 2209 
L 2766 2266 
Q 2766 2663 2505 2880 
Q 2244 3097 1772 3097 
Q 1472 3097 1187 3025 
Q 903 2953 641 2809 
L 641 3341 
Q 956 3463 1253 3523 
Q 1550 3584 1831 3584 
Q 2591 3584 2966 3190 
Q 3341 2797 3341 1997 
z
" transform="scale(0.015625)"/>
       <path id="DejaVuSans-63" d="M 3122 3366 
L 3122 2828 
Q 2878 2963 2633 3030 
Q 2388 3097 2138 3097 
Q 1578 3097 1268 2742 
Q 959 2388 959 1747 
Q 959 1106 1268 751 
Q 1578 397 2138 397 
Q 2388 397 2633 464 
Q 2878 531 3122 666 
L 3122 134 
Q 2881 22 2623 -34 
Q 2366 -91 2075 -91 
Q 1284 -91 818 406 
Q 353 903 353 1747 
Q 353 2603 823 3093 
Q 1294 3584 2113 3584 
Q 2378 3584 2631 3529 
Q 2884 3475 3122 3366 
z
" transform="scale(0.015625)"/>
       <path id="DejaVuSans-65" d="M 3597 1894 
L 3597 1613 
L 953 1613 
Q 991 1019 1311 708 
Q 1631 397 2203 397 
Q 2534 397 2845 478 
Q 3156 559 3463 722 
L 3463 178 
Q 3153 47 2828 -22 
Q 2503 -91 2169 -91 
Q 1331 -91 842 396 
Q 353 884 353 1716 
Q 353 2575 817 3079 
Q 1281 3584 2069 3584 
Q 2775 3584 3186 3129 
Q 3597 2675 3597 1894 
z
M 3022 2063 
Q 3016 2534 2758 2815 
Q 2500 3097 2075 3097 
Q 1594 3097 1305 2825 
Q 1016 2553 972 2059 
L 3022 2063 
z
" transform="scale(0.015625)"/>
       <path id="DejaVuSans-6c" d="M 603 4863 
L 1178 4863 
L 1178 0 
L 603 0 
L 603 4863 
z
" transform="scale(0.015625)"/>
       <path id="DejaVuSans-75" d="M 544 1381 
L 544 3500 
L 1119 3500 
L 1119 1403 
Q 1119 906 1312 657 
Q 1506 409 1894 409 
Q 2359 409 2629 706 
Q 2900 1003 2900 1516 
L 2900 3500 
L 3475 3500 
L 3475 0 
L 2900 0 
L 2900 538 
Q 2691 219 2414 64 
Q 2138 -91 1772 -91 
Q 1169 -91 856 284 
Q 544 659 544 1381 
z
M 1991 3584 
L 1991 3584 
z
" transform="scale(0.015625)"/>
       <path id="DejaVuSans-20" transform="scale(0.015625)"/>
       <path id="DejaVuSans-6f" d="M 1959 3097 
Q 1497 3097 1228 2736 
Q 959 2375 959 1747 
Q 959 1119 1226 758 
Q 1494 397 1959 397 
Q 2419 397 2687 759 
Q 2956 1122 2956 1747 
Q 2956 2369 2687 2733 
Q 2419 3097 1959 3097 
z
M 1959 3584 
Q 2709 3584 3137 3096 
Q 3566 2609 3566 1747 
Q 3566 888 3137 398 
Q 2709 -91 1959 -91 
Q 1206 -91 779 398 
Q 353 888 353 1747 
Q 353 2609 779 3096 
Q 1206 3584 1959 3584 
z
" transform="scale(0.015625)"/>
       <path id="DejaVuSans-73" d="M 2834 3397 
L 2834 2853 
Q 2591 2978 2328 3040 
Q 2066 3103 1784 3103 
Q 1356 3103 1142 2972 
Q 928 2841 928 2578 
Q 928 2378 1081 2264 
Q 1234 2150 1697 2047 
L 1894 2003 
Q 2506 1872 2764 1633 
Q 3022 1394 3022 966 
Q 3022 478 2636 193 
Q 2250 -91 1575 -91 
Q 1294 -91 989 -36 
Q 684 19 347 128 
L 347 722 
Q 666 556 975 473 
Q 1284 391 1588 391 
Q 1994 391 2212 530 
Q 2431 669 2431 922 
Q 2431 1156 2273 1281 
Q 2116 1406 1581 1522 
L 1381 1569 
Q 847 1681 609 1914 
Q 372 2147 372 2553 
Q 372 3047 722 3315 
Q 1072 3584 1716 3584 
Q 2034 3584 2315 3537 
Q 2597 3491 2834 3397 
z
" transform="scale(0.015625)"/>
      </defs>
      <use xlink:href="#DejaVuSans-45"/>
      <use xlink:href="#DejaVuSans-78" transform="translate(63.183594 0)"/>
      <use xlink:href="#DejaVuSans-74" transform="translate(122.363281 0)"/>
      <use xlink:href="#DejaVuSans-72" transform="translate(161.572266 0)"/>
      <use xlink:href="#DejaVuSans-61" transform="translate(202.685547 0)"/>
      <use xlink:href="#DejaVuSans-63" transform="translate(263.964844 0)"/>
      <use xlink:href="#DejaVuSans-65" transform="translate(318.945312 0)"/>
      <use xlink:href="#DejaVuSans-6c" transform="translate(380.46875 0)"/>
      <use xlink:href="#DejaVuSans-6c" transform="translate(408.251953 0)"/>
      <use xlink:href="#DejaVuSans-75" transform="translate(436.035156 0)"/>
      <use xlink:href="#DejaVuSans-6c" transform="translate(499.414062 0)"/>
      <use xlink:href="#DejaVuSans-61" transform="translate(527.197266 0)"/>
      <use xlink:href="#DejaVuSans-72" transform="translate(588.476562 0)"/>
      <use xlink:href="#DejaVuSans-20" transform="translate(629.589844 0)"/>
      <use xlink:href="#DejaVuSans-6c" transform="translate(661.376953 0)"/>
      <use xlink:href="#DejaVuSans-61" transform="translate(689.160156 0)"/>
      <use xlink:href="#DejaVuSans-63" transform="translate(750.439453 0)"/>
      <use xlink:href="#DejaVuSans-74" transform="translate(805.419922 0)"/>
      <use xlink:href="#DejaVuSans-6f" transform="translate(844.628906 0)"/>
      <use xlink:href="#DejaVuSans-73" transform="translate(905.810547 0)"/>
      <use xlink:href="#DejaVuSans-65" transform="translate(957.910156 0)"/>
     </g>
    </g>
   </g>
   <g id="line2d_13">
    <path d="M 56.57299 92.677099 
L 153.036049 92.677099 
L 153.528753 11.270338 
L 153.732335 11.351745 
L 153.816014 11.595965 
L 153.990855 12.247219 
L 154.042503 12.328626 
L 154.214601 12.817066 
L 154.694116 14.363795 
L 154.898215 14.445202 
L 155.328339 16.23615 
L 155.475299 16.561777 
L 155.553389 16.643184 
L 155.830526 19.329607 
L 155.84702 19.411014 
L 156.108562 20.794929 
L 156.181542 20.876336 
L 156.298962 21.690403 
L 156.33252 21.77181 
L 156.483135 23.074318 
L 156.521081 23.155725 
L 156.695514 24.621047 
L 157.186923 27.144656 
L 157.254067 27.226063 
L 157.602651 28.609978 
L 157.673289 28.691385 
L 157.805463 29.342639 
L 157.860776 29.424046 
L 158.378918 32.598909 
L 158.675834 34.227045 
L 158.817497 35.203926 
L 159.116761 36.669247 
L 159.17511 36.750654 
L 159.469694 39.518484 
L 159.499642 39.599891 
L 159.631994 40.576772 
L 159.642762 40.658179 
L 159.846439 42.611941 
L 159.868451 42.693348 
L 159.9753 43.670229 
L 160.022012 43.751636 
L 160.170458 44.565703 
L 160.227472 44.64711 
L 160.358262 45.379771 
L 160.361441 45.461177 
L 160.552222 46.356652 
L 160.603517 46.438059 
L 160.718324 47.007906 
L 160.86076 47.496346 
L 161.079767 47.577753 
L 161.226642 48.066194 
L 161.283664 48.147601 
L 161.387339 48.310414 
L 161.666303 49.531516 
L 161.775748 50.345583 
L 161.788036 50.42699 
L 162.02154 51.973718 
L 162.210993 53.113413 
L 162.320783 53.846074 
L 162.40835 53.927481 
L 162.522538 54.334514 
L 162.563534 54.415921 
L 162.674908 54.822955 
L 162.723889 54.904362 
L 162.851124 54.985768 
L 163.396621 55.067175 
L 163.50837 55.392802 
L 163.638453 55.474209 
L 163.706629 55.555616 
L 163.819335 55.799836 
L 164.036473 56.369683 
L 164.1196 56.45109 
L 164.728509 57.102344 
L 164.784207 57.183751 
L 165.410282 60.195801 
L 165.945915 63.370665 
L 166.062441 64.021919 
L 166.163235 64.591766 
L 166.190539 64.673173 
L 166.313082 65.324427 
L 166.333669 65.405834 
L 166.490723 65.812868 
L 166.548728 65.894274 
L 166.682214 66.057088 
L 166.94987 66.138495 
L 167.184666 66.382715 
L 167.309527 66.464122 
L 167.404735 66.545528 
L 167.508631 66.626935 
L 167.596324 66.871156 
L 167.760385 66.952562 
L 167.95396 67.441003 
L 168.073616 67.52241 
L 168.276171 68.01085 
L 168.331741 68.092257 
L 168.470911 68.499291 
L 168.690634 68.580697 
L 168.824322 69.150545 
L 168.905096 69.313358 
L 169.616758 69.394765 
L 169.851991 69.720392 
L 170.070393 69.801799 
L 170.151796 70.046019 
L 170.249036 70.127426 
L 170.367801 70.53446 
L 170.545779 70.615867 
L 170.677137 70.697273 
L 171.066365 70.77868 
L 171.310788 71.267121 
L 171.493733 71.674154 
L 171.62611 71.918375 
L 172.318215 71.999781 
L 172.636083 72.651036 
L 172.750381 72.895256 
L 172.815511 72.976663 
L 172.924164 73.058069 
L 173.057763 73.139476 
L 173.499693 73.872137 
L 173.602668 73.953544 
L 173.762047 74.197764 
L 173.93235 74.279171 
L 174.01762 74.360577 
L 174.198128 74.441984 
L 174.983541 75.581679 
L 175.096279 75.744492 
L 175.276253 75.825899 
L 175.605635 76.232933 
L 175.63075 76.31434 
L 175.755618 76.639967 
L 176.016035 77.291221 
L 176.237323 77.372628 
L 176.508255 78.023882 
L 176.63485 78.105288 
L 176.985038 78.756543 
L 177.128461 78.837949 
L 177.2914 79.08217 
L 177.508398 79.163576 
L 177.587871 79.244983 
L 177.727969 79.32639 
L 177.821379 79.407797 
L 178.390953 79.489203 
L 178.521849 79.57061 
L 178.991926 79.652017 
L 179.090131 79.733424 
L 179.215972 79.81483 
L 179.423039 80.059051 
L 179.548212 80.140458 
L 179.651983 80.221864 
L 180.166926 80.303271 
L 180.740994 80.710305 
L 180.943396 80.791712 
L 181.115765 80.954525 
L 181.55506 81.035932 
L 182.056702 81.280152 
L 182.196632 81.361559 
L 182.385403 81.524372 
L 182.570059 81.605779 
L 182.689507 81.849999 
L 183.173755 82.501254 
L 183.26564 82.58266 
L 183.378114 82.745474 
L 183.677588 82.989694 
L 183.753064 83.071101 
L 183.86576 83.233914 
L 184.282731 83.315321 
L 184.747602 84.210796 
L 184.935174 84.292202 
L 185.078954 84.455016 
L 185.216122 84.699236 
L 185.269552 84.780643 
L 185.342269 84.86205 
L 185.761193 84.943456 
L 185.883846 85.024863 
L 186.413615 85.10627 
L 186.524362 85.187677 
L 187.78443 85.269083 
L 188.15216 85.59471 
L 188.303645 85.676117 
L 188.466877 85.757524 
L 188.892863 86.083151 
L 189.038814 86.164558 
L 189.290435 86.571592 
L 189.398147 86.815812 
L 189.772447 86.897219 
L 189.899664 86.978625 
L 190.630444 87.060032 
L 190.729471 87.141439 
L 190.982326 87.385659 
L 191.120849 87.629879 
L 191.163255 87.711286 
L 191.278441 87.8741 
L 191.560577 87.955507 
L 191.711952 88.036913 
L 192.048079 88.11832 
L 192.179679 88.443947 
L 192.335806 88.525354 
L 192.454141 88.606761 
L 192.681185 88.688167 
L 192.87225 88.850981 
L 193.01172 88.932388 
L 194.952437 89.013794 
L 195.057572 89.095201 
L 196.049595 89.176608 
L 196.222774 89.258015 
L 196.894913 89.339421 
L 196.977912 89.420828 
L 197.217992 89.502235 
L 197.297101 89.583642 
L 198.043469 89.665048 
L 198.112966 89.746455 
L 198.468314 89.827862 
L 198.71789 89.909269 
L 199.897756 89.990676 
L 200.098008 90.153489 
L 203.995401 90.234896 
L 204.045908 90.316303 
L 204.487926 90.64193 
L 206.023406 90.723336 
L 206.366578 90.804743 
L 208.518957 90.88615 
L 208.908065 90.967557 
L 213.177654 91.048963 
L 213.40123 91.13037 
L 237.614274 91.211777 
L 237.634559 91.293184 
L 306.999416 91.37459 
L 307.147655 91.455997 
L 312.40778 91.455997 
L 312.40778 91.455997 
" clip-path="url(#pfd2fcf7956)" style="fill: none; stroke: #000000; stroke-width: 1.5; stroke-linecap: square"/>
   </g>
   <g id="patch_3">
    <path d="M 43.78125 96.747437 
L 43.78125 7.2 
" style="fill: none; stroke: #000000; stroke-width: 0.8; stroke-linejoin: miter; stroke-linecap: square"/>
   </g>
   <g id="patch_4">
    <path d="M 325.19952 96.747437 
L 325.19952 7.2 
" style="fill: none; stroke: #000000; stroke-width: 0.8; stroke-linejoin: miter; stroke-linecap: square"/>
   </g>
   <g id="patch_5">
    <path d="M 43.78125 96.747437 
L 325.19952 96.747437 
" style="fill: none; stroke: #000000; stroke-width: 0.8; stroke-linejoin: miter; stroke-linecap: square"/>
   </g>
   <g id="patch_6">
    <path d="M 43.78125 7.2 
L 325.19952 7.2 
" style="fill: none; stroke: #000000; stroke-width: 0.8; stroke-linejoin: miter; stroke-linecap: square"/>
   </g>
  </g>
  <g id="axes_2">
   <g id="patch_7">
    <path d="M 43.78125 195.795353 
L 325.19952 195.795353 
L 325.19952 106.247917 
L 43.78125 106.247917 
z
" style="fill: #ffffff"/>
   </g>
   <g id="matplotlib.axis_3">
    <g id="xtick_10">
     <g id="line2d_14">
      <g>
       <use xlink:href="#md8479fbf61" x="56.57299" y="195.795353" style="stroke: #000000; stroke-width: 0.8"/>
      </g>
     </g>
    </g>
    <g id="xtick_11">
     <g id="line2d_15">
      <g>
       <use xlink:href="#md8479fbf61" x="88.535408" y="195.795353" style="stroke: #000000; stroke-width: 0.8"/>
      </g>
     </g>
    </g>
    <g id="xtick_12">
     <g id="line2d_16">
      <g>
       <use xlink:href="#md8479fbf61" x="120.497826" y="195.795353" style="stroke: #000000; stroke-width: 0.8"/>
      </g>
     </g>
    </g>
    <g id="xtick_13">
     <g id="line2d_17">
      <g>
       <use xlink:href="#md8479fbf61" x="152.460245" y="195.795353" style="stroke: #000000; stroke-width: 0.8"/>
      </g>
     </g>
    </g>
    <g id="xtick_14">
     <g id="line2d_18">
      <g>
       <use xlink:href="#md8479fbf61" x="184.422663" y="195.795353" style="stroke: #000000; stroke-width: 0.8"/>
      </g>
     </g>
    </g>
    <g id="xtick_15">
     <g id="line2d_19">
      <g>
       <use xlink:href="#md8479fbf61" x="216.385081" y="195.795353" style="stroke: #000000; stroke-width: 0.8"/>
      </g>
     </g>
    </g>
    <g id="xtick_16">
     <g id="line2d_20">
      <g>
       <use xlink:href="#md8479fbf61" x="248.3475" y="195.795353" style="stroke: #000000; stroke-width: 0.8"/>
      </g>
     </g>
    </g>
    <g id="xtick_17">
     <g id="line2d_21">
      <g>
       <use xlink:href="#md8479fbf61" x="280.309918" y="195.795353" style="stroke: #000000; stroke-width: 0.8"/>
      </g>
     </g>
    </g>
    <g id="xtick_18">
     <g id="line2d_22">
      <g>
       <use xlink:href="#md8479fbf61" x="312.272336" y="195.795353" style="stroke: #000000; stroke-width: 0.8"/>
      </g>
     </g>
    </g>
   </g>
   <g id="matplotlib.axis_4">
    <g id="ytick_4">
     <g id="line2d_23">
      <g>
       <use xlink:href="#m97ac1270da" x="43.78125" y="191.725015" style="stroke: #000000; stroke-width: 0.8"/>
      </g>
     </g>
     <g id="text_5">
      <!-- 0 -->
      <g transform="translate(30.41875 195.524234) scale(0.1 -0.1)">
       <use xlink:href="#DejaVuSans-30"/>
      </g>
     </g>
    </g>
    <g id="ytick_5">
     <g id="line2d_24">
      <g>
       <use xlink:href="#m97ac1270da" x="43.78125" y="151.021635" style="stroke: #000000; stroke-width: 0.8"/>
      </g>
     </g>
     <g id="text_6">
      <!-- 5 -->
      <g transform="translate(30.41875 154.820854) scale(0.1 -0.1)">
       <use xlink:href="#DejaVuSans-35"/>
      </g>
     </g>
    </g>
    <g id="ytick_6">
     <g id="line2d_25">
      <g>
       <use xlink:href="#m97ac1270da" x="43.78125" y="110.318255" style="stroke: #000000; stroke-width: 0.8"/>
      </g>
     </g>
     <g id="text_7">
      <!-- 10 -->
      <g transform="translate(24.05625 114.117473) scale(0.1 -0.1)">
       <use xlink:href="#DejaVuSans-31"/>
       <use xlink:href="#DejaVuSans-30" transform="translate(63.623047 0)"/>
      </g>
     </g>
    </g>
    <g id="text_8">
     <!-- LacY -->
     <g transform="translate(17.976563 162.67476) rotate(-90) scale(0.1 -0.1)">
      <defs>
       <path id="DejaVuSans-4c" d="M 628 4666 
L 1259 4666 
L 1259 531 
L 3531 531 
L 3531 0 
L 628 0 
L 628 4666 
z
" transform="scale(0.015625)"/>
       <path id="DejaVuSans-59" d="M -13 4666 
L 666 4666 
L 1959 2747 
L 3244 4666 
L 3922 4666 
L 2272 2222 
L 2272 0 
L 1638 0 
L 1638 2222 
L -13 4666 
z
" transform="scale(0.015625)"/>
      </defs>
      <use xlink:href="#DejaVuSans-4c"/>
      <use xlink:href="#DejaVuSans-61" transform="translate(55.712891 0)"/>
      <use xlink:href="#DejaVuSans-63" transform="translate(116.992188 0)"/>
      <use xlink:href="#DejaVuSans-59" transform="translate(171.972656 0)"/>
     </g>
    </g>
   </g>
   <g id="line2d_26">
    <path d="M 56.57299 110.318255 
L 56.635118 110.318255 
L 56.74825 126.599607 
L 56.753225 134.740283 
L 56.956198 142.880959 
L 57.118801 142.880959 
L 57.187991 151.021635 
L 57.424104 151.021635 
L 57.460473 167.302987 
L 57.754209 183.584339 
L 58.313004 183.584339 
L 58.45503 191.725015 
L 75.123133 191.725015 
L 75.573167 183.584339 
L 76.280292 183.584339 
L 76.351844 191.725015 
L 77.445754 191.725015 
L 77.574926 175.443663 
L 77.888673 159.162311 
L 77.957487 175.443663 
L 78.249763 167.302987 
L 78.372011 167.302987 
L 78.484194 175.443663 
L 78.706788 175.443663 
L 79.371734 183.584339 
L 79.745634 191.725015 
L 80.38771 191.725015 
L 80.635144 183.584339 
L 80.703374 191.725015 
L 80.727551 183.584339 
L 80.985971 175.443663 
L 81.047881 183.584339 
L 81.136517 175.443663 
L 81.230254 175.443663 
L 81.422674 183.584339 
L 81.539129 175.443663 
L 81.87509 175.443663 
L 82.555129 191.725015 
L 85.555813 191.725015 
L 85.868085 183.584339 
L 86.127499 183.584339 
L 86.341615 191.725015 
L 100.426061 191.725015 
L 100.552667 183.584339 
L 101.179798 183.584339 
L 101.242815 191.725015 
L 103.753385 191.725015 
L 103.819972 183.584339 
L 104.146225 191.725015 
L 105.075881 191.725015 
L 105.464654 151.021635 
L 105.609172 167.302987 
L 105.75397 167.302987 
L 105.81735 175.443663 
L 105.894599 167.302987 
L 105.904352 175.443663 
L 106.127846 175.443663 
L 106.294107 191.725015 
L 106.500697 183.584339 
L 106.590616 191.725015 
L 106.664435 183.584339 
L 107.14468 183.584339 
L 107.353934 191.725015 
L 108.10939 191.725015 
L 108.224192 183.584339 
L 108.257354 191.725015 
L 118.85633 191.725015 
L 119.009968 183.584339 
L 119.106411 175.443663 
L 119.173062 175.443663 
L 119.20975 183.584339 
L 119.384491 183.584339 
L 120.072401 191.725015 
L 150.524191 191.725015 
L 150.999473 183.584339 
L 151.1538 191.725015 
L 153.528753 191.725015 
L 153.732335 183.584339 
L 153.792115 183.584339 
L 153.88728 175.443663 
L 154.016965 183.584339 
L 154.240391 183.584339 
L 154.354822 175.443663 
L 154.49851 175.443663 
L 154.616501 183.584339 
L 155.0069 183.584339 
L 155.081885 191.725015 
L 155.110452 183.584339 
L 155.178041 183.584339 
L 155.285747 175.443663 
L 155.295472 175.443663 
L 155.343039 183.584339 
L 155.402063 175.443663 
L 155.463386 175.443663 
L 155.573729 159.162311 
L 155.694176 159.162311 
L 155.8082 151.021635 
L 155.830526 151.021635 
L 155.952215 167.302987 
L 155.960931 167.302987 
L 155.982702 159.162311 
L 156.010852 175.443663 
L 156.05137 175.443663 
L 156.199254 175.443663 
L 156.360318 159.162311 
L 156.483135 159.162311 
L 156.598937 167.302987 
L 156.600839 167.302987 
L 156.712196 159.162311 
L 156.738602 159.162311 
L 156.845985 151.021635 
L 156.959348 159.162311 
L 156.98548 159.162311 
L 157.091982 183.584339 
L 157.115227 183.584339 
L 157.228023 175.443663 
L 157.619981 175.443663 
L 157.725372 167.302987 
L 157.7519 167.302987 
L 157.871215 175.443663 
L 157.916112 175.443663 
L 158.03871 167.302987 
L 158.056288 167.302987 
L 158.131315 183.584339 
L 158.185324 175.443663 
L 158.218415 175.443663 
L 158.317792 159.162311 
L 158.355465 159.162311 
L 158.45975 167.302987 
L 158.482535 167.302987 
L 158.59371 175.443663 
L 158.702122 167.302987 
L 158.764745 167.302987 
L 158.876153 159.162311 
L 158.986138 159.162311 
L 159.076271 167.302987 
L 159.095543 159.162311 
L 159.199548 159.162311 
L 159.30516 151.021635 
L 159.475442 151.021635 
L 159.493932 142.880959 
L 159.584836 151.021635 
L 159.747998 151.021635 
L 159.79147 159.162311 
L 159.854267 151.021635 
L 159.887127 151.021635 
L 159.993756 159.162311 
L 160.107507 159.162311 
L 160.223393 175.443663 
L 160.275106 175.443663 
L 160.38678 167.302987 
L 160.507605 167.302987 
L 160.6345 183.584339 
L 160.647242 183.584339 
L 160.759942 175.443663 
L 160.880821 175.443663 
L 161.001954 183.584339 
L 161.37433 183.584339 
L 161.480817 175.443663 
L 161.49564 175.443663 
L 161.608373 159.162311 
L 161.66245 159.162311 
L 161.772425 151.021635 
L 161.821182 151.021635 
L 161.926583 159.162311 
L 161.982078 159.162311 
L 162.042757 167.302987 
L 162.093057 159.162311 
L 162.325298 159.162311 
L 162.44317 175.443663 
L 162.660752 175.443663 
L 162.766863 183.584339 
L 162.968192 183.584339 
L 163.068483 191.725015 
L 163.164462 183.584339 
L 163.638453 183.584339 
L 163.775473 175.443663 
L 163.848744 175.443663 
L 163.953479 183.584339 
L 164.036473 175.443663 
L 164.058296 183.584339 
L 164.768491 183.584339 
L 164.859505 175.443663 
L 164.88858 175.443663 
L 164.956324 151.021635 
L 164.989121 167.302987 
L 165.092011 167.302987 
L 165.220013 159.162311 
L 165.227914 159.162311 
L 165.317075 167.302987 
L 165.330933 159.162311 
L 165.371004 159.162311 
L 165.482674 142.880959 
L 165.810016 142.880959 
L 165.919042 151.021635 
L 166.109752 151.021635 
L 166.22394 167.302987 
L 166.300545 167.302987 
L 166.402704 175.443663 
L 166.490723 175.443663 
L 166.517208 167.302987 
L 166.579324 175.443663 
L 166.682214 183.584339 
L 167.51708 183.584339 
L 167.596324 175.443663 
L 168.567509 175.443663 
L 168.693922 167.302987 
L 168.851784 167.302987 
L 168.905096 191.725015 
L 169.227469 191.725015 
L 169.382535 183.584339 
L 169.407701 183.584339 
L 169.490449 175.443663 
L 169.616758 183.584339 
L 169.717453 183.584339 
L 169.796017 175.443663 
L 169.970166 175.443663 
L 170.04524 191.725015 
L 170.094754 183.584339 
L 170.151796 183.584339 
L 170.324514 175.443663 
L 170.433273 175.443663 
L 170.545779 183.584339 
L 170.830721 183.584339 
L 170.898374 191.725015 
L 170.901052 183.584339 
L 171.129755 183.584339 
L 171.310788 167.302987 
L 171.369425 167.302987 
L 171.490657 159.162311 
L 171.586553 175.443663 
L 171.650756 175.443663 
L 171.784927 183.584339 
L 171.903756 191.725015 
L 172.097987 191.725015 
L 172.221252 183.584339 
L 172.522006 183.584339 
L 172.642262 167.302987 
L 172.803864 167.302987 
L 172.896267 183.584339 
L 172.924164 175.443663 
L 173.15665 175.443663 
L 173.20608 167.302987 
L 173.25883 175.443663 
L 173.513347 175.443663 
L 173.644647 159.162311 
L 173.75097 183.584339 
L 173.896512 183.584339 
L 174.000187 175.443663 
L 174.001485 183.584339 
L 174.01762 183.584339 
L 174.162545 175.443663 
L 174.260765 175.443663 
L 174.350905 159.162311 
L 174.369611 167.302987 
L 174.458649 167.302987 
L 174.467758 175.443663 
L 174.499635 167.302987 
L 174.762901 167.302987 
L 174.898252 159.162311 
L 174.956743 159.162311 
L 175.06797 167.302987 
L 175.082412 167.302987 
L 175.139127 159.162311 
L 175.191627 167.302987 
L 175.216447 167.302987 
L 175.341235 159.162311 
L 175.605635 159.162311 
L 175.732723 167.302987 
L 175.892391 167.302987 
L 176.016035 183.584339 
L 176.045726 183.584339 
L 176.281663 167.302987 
L 176.896356 167.302987 
L 177.017714 175.443663 
L 177.175334 175.443663 
L 177.179672 183.584339 
L 177.2914 183.584339 
L 177.42875 175.443663 
L 177.526911 175.443663 
L 177.587871 183.584339 
L 178.061914 183.584339 
L 178.101339 175.443663 
L 178.155656 183.584339 
L 178.222164 175.443663 
L 178.357826 175.443663 
L 178.410755 167.302987 
L 178.455348 175.443663 
L 178.479611 175.443663 
L 178.56445 159.162311 
L 178.783576 183.584339 
L 178.874471 191.725015 
L 179.090131 183.584339 
L 179.209726 183.584339 
L 179.31356 167.302987 
L 179.348873 167.302987 
L 179.493058 183.584339 
L 179.824776 183.584339 
L 179.933015 175.443663 
L 179.986853 183.584339 
L 180.151152 183.584339 
L 180.274308 175.443663 
L 180.472002 175.443663 
L 180.511111 159.162311 
L 180.572221 175.443663 
L 181.244607 175.443663 
L 181.392202 183.584339 
L 182.175849 183.584339 
L 182.263537 175.443663 
L 182.267018 183.584339 
L 182.385403 175.443663 
L 182.540751 175.443663 
L 182.657535 167.302987 
L 182.803246 167.302987 
L 182.819652 175.443663 
L 182.896368 167.302987 
L 182.957776 167.302987 
L 183.061102 159.162311 
L 183.173755 159.162311 
L 183.307359 151.021635 
L 183.43338 167.302987 
L 183.479628 167.302987 
L 183.60108 159.162311 
L 183.649547 159.162311 
L 183.760498 167.302987 
L 183.798401 167.302987 
L 183.901567 175.443663 
L 184.012395 183.584339 
L 184.019805 175.443663 
L 184.369298 175.443663 
L 184.475666 167.302987 
L 184.580496 167.302987 
L 184.701706 159.162311 
L 184.747602 159.162311 
L 184.889545 167.302987 
L 184.966903 159.162311 
L 184.986564 167.302987 
L 185.206796 167.302987 
L 185.280844 175.443663 
L 185.403166 175.443663 
L 185.42126 183.584339 
L 185.48677 167.302987 
L 185.772868 167.302987 
L 185.886575 183.584339 
L 186.034989 167.302987 
L 186.090065 175.443663 
L 186.122873 175.443663 
L 186.218467 183.584339 
L 186.408257 183.584339 
L 186.524362 175.443663 
L 186.581262 175.443663 
L 186.799854 183.584339 
L 187.073894 167.302987 
L 187.284373 167.302987 
L 187.518049 183.584339 
L 187.722008 183.584339 
L 187.78443 175.443663 
L 188.18749 175.443663 
L 188.246333 159.162311 
L 188.303645 167.302987 
L 188.376361 159.162311 
L 188.413992 167.302987 
L 188.586605 167.302987 
L 188.638046 175.443663 
L 188.892863 175.443663 
L 189.130861 167.302987 
L 189.152063 167.302987 
L 189.311741 159.162311 
L 189.398147 159.162311 
L 189.602985 175.443663 
L 189.726715 175.443663 
L 189.813345 167.302987 
L 189.832404 175.443663 
L 189.899664 175.443663 
L 190.254754 191.725015 
L 190.270911 191.725015 
L 190.52314 167.302987 
L 190.526762 175.443663 
L 190.729471 159.162311 
L 190.951793 159.162311 
L 191.030817 167.302987 
L 191.058283 159.162311 
L 191.101488 167.302987 
L 191.160202 159.162311 
L 191.240296 151.021635 
L 191.260862 159.162311 
L 191.278441 159.162311 
L 191.390963 167.302987 
L 191.533811 151.021635 
L 191.645441 159.162311 
L 191.711952 167.302987 
L 191.725083 159.162311 
L 191.857696 142.880959 
L 192.017793 167.302987 
L 192.025637 159.162311 
L 192.108383 159.162311 
L 192.215364 167.302987 
L 192.228239 167.302987 
L 192.257486 175.443663 
L 192.335806 167.302987 
L 192.410034 167.302987 
L 192.539609 175.443663 
L 192.681038 159.162311 
L 192.781675 167.302987 
L 193.01172 183.584339 
L 193.246764 159.162311 
L 193.281225 167.302987 
L 193.533187 159.162311 
L 193.678293 175.443663 
L 193.71195 175.443663 
L 194.044755 191.725015 
L 194.263538 183.584339 
L 194.421265 183.584339 
L 194.44188 175.443663 
L 194.665757 175.443663 
L 194.797075 183.584339 
L 194.963608 167.302987 
L 195.135941 175.443663 
L 195.261538 175.443663 
L 195.337755 167.302987 
L 195.358701 175.443663 
L 195.406235 183.584339 
L 195.814356 191.725015 
L 196.049595 183.584339 
L 196.106378 183.584339 
L 196.222774 191.725015 
L 196.338159 191.725015 
L 196.461007 183.584339 
L 196.550955 191.725015 
L 196.680557 183.584339 
L 196.712681 183.584339 
L 196.90232 167.302987 
L 197.224819 167.302987 
L 197.397923 183.584339 
L 197.496923 167.302987 
L 197.508013 175.443663 
L 197.834606 175.443663 
L 197.888037 167.302987 
L 198.063515 167.302987 
L 198.112966 159.162311 
L 198.290006 159.162311 
L 198.331391 151.021635 
L 198.397301 159.162311 
L 198.468314 167.302987 
L 198.564999 167.302987 
L 198.612264 159.162311 
L 198.631504 167.302987 
L 198.740119 183.584339 
L 198.89079 175.443663 
L 198.926623 183.584339 
L 198.939009 175.443663 
L 199.140684 167.302987 
L 199.157519 159.162311 
L 199.216992 167.302987 
L 199.471692 151.021635 
L 199.503531 151.021635 
L 199.605662 159.162311 
L 199.677245 151.021635 
L 199.969386 175.443663 
L 200.28584 175.443663 
L 200.300684 183.584339 
L 200.623088 183.584339 
L 200.787459 191.725015 
L 202.527343 191.725015 
L 202.581795 183.584339 
L 202.736621 191.725015 
L 203.666748 183.584339 
L 203.757526 191.725015 
L 203.915305 175.443663 
L 203.924411 167.302987 
L 204.002327 175.443663 
L 204.291761 175.443663 
L 204.386532 167.302987 
L 204.477013 167.302987 
L 204.487926 175.443663 
L 205.272605 175.443663 
L 205.319855 183.584339 
L 205.68958 175.443663 
L 205.71403 183.584339 
L 205.773495 175.443663 
L 205.888441 167.302987 
L 205.99828 175.443663 
L 206.242146 175.443663 
L 206.356769 167.302987 
L 206.366578 175.443663 
L 206.58146 183.584339 
L 206.631361 191.725015 
L 207.22468 191.725015 
L 208.306162 183.584339 
L 208.366546 175.443663 
L 208.507682 175.443663 
L 208.518957 167.302987 
L 208.783118 167.302987 
L 208.908065 175.443663 
L 209.094275 175.443663 
L 209.145168 167.302987 
L 209.285468 175.443663 
L 209.518025 175.443663 
L 209.595772 183.584339 
L 209.781201 183.584339 
L 209.815437 191.725015 
L 210.044634 183.584339 
L 210.200344 183.584339 
L 210.344827 175.443663 
L 210.544794 183.584339 
L 210.600202 183.584339 
L 211.13986 191.725015 
L 211.151872 183.584339 
L 211.183259 191.725015 
L 211.599619 191.725015 
L 212.495711 183.584339 
L 212.735117 183.584339 
L 213.042287 175.443663 
L 213.177654 151.021635 
L 213.370367 151.021635 
L 213.40123 159.162311 
L 213.674296 151.021635 
L 213.82078 159.162311 
L 213.874308 151.021635 
L 213.894208 159.162311 
L 213.972236 159.162311 
L 214.06888 167.302987 
L 214.121836 167.302987 
L 214.367398 183.584339 
L 214.579943 183.584339 
L 215.198038 191.725015 
L 228.178154 191.725015 
L 228.451458 175.443663 
L 228.773062 183.584339 
L 229.830941 183.584339 
L 229.851794 191.725015 
L 237.103837 191.725015 
L 237.317146 183.584339 
L 237.838853 183.584339 
L 238.340829 191.725015 
L 257.536696 191.725015 
L 257.609703 183.584339 
L 257.687314 191.725015 
L 259.58898 191.725015 
L 259.637671 183.584339 
L 259.668602 191.725015 
L 259.869753 183.584339 
L 260.058853 191.725015 
L 267.276358 191.725015 
L 267.368063 183.584339 
L 267.654605 191.725015 
L 285.164393 191.725015 
L 285.296035 183.584339 
L 285.39824 191.725015 
L 286.267778 191.725015 
L 286.649198 167.302987 
L 286.742904 175.443663 
L 286.861215 183.584339 
L 287.216653 191.725015 
L 288.087707 191.725015 
L 288.293411 183.584339 
L 288.724937 175.443663 
L 288.778007 183.584339 
L 288.911052 183.584339 
L 288.943649 191.725015 
L 289.371215 183.584339 
L 289.473893 167.302987 
L 289.740646 191.725015 
L 293.355837 191.725015 
L 293.537628 183.584339 
L 293.743765 183.584339 
L 293.788513 175.443663 
L 294.105248 183.584339 
L 294.210764 175.443663 
L 294.47394 167.302987 
L 294.592237 159.162311 
L 294.669455 159.162311 
L 294.720223 167.302987 
L 294.884791 175.443663 
L 295.424653 183.584339 
L 296.599818 191.725015 
L 300.335312 191.725015 
L 300.392612 183.584339 
L 301.445816 183.584339 
L 303.901877 191.725015 
L 305.938011 191.725015 
L 306.116593 183.584339 
L 306.222323 191.725015 
L 306.663266 191.725015 
L 306.973631 183.584339 
L 307.611959 183.584339 
L 307.893252 191.725015 
L 309.554135 191.725015 
L 310.088886 183.584339 
L 310.620036 191.725015 
L 312.40778 191.725015 
L 312.40778 191.725015 
" clip-path="url(#p5a31c65055)" style="fill: none; stroke: #000000; stroke-width: 1.5; stroke-linecap: square"/>
   </g>
   <g id="patch_8">
    <path d="M 43.78125 195.795353 
L 43.78125 106.247917 
" style="fill: none; stroke: #000000; stroke-width: 0.8; stroke-linejoin: miter; stroke-linecap: square"/>
   </g>
   <g id="patch_9">
    <path d="M 325.19952 195.795353 
L 325.19952 106.247917 
" style="fill: none; stroke: #000000; stroke-width: 0.8; stroke-linejoin: miter; stroke-linecap: square"/>
   </g>
   <g id="patch_10">
    <path d="M 43.78125 195.795353 
L 325.19952 195.795353 
" style="fill: none; stroke: #000000; stroke-width: 0.8; stroke-linejoin: miter; stroke-linecap: square"/>
   </g>
   <g id="patch_11">
    <path d="M 43.78125 106.247917 
L 325.19952 106.247917 
" style="fill: none; stroke: #000000; stroke-width: 0.8; stroke-linejoin: miter; stroke-linecap: square"/>
   </g>
  </g>
  <g id="axes_3">
   <g id="patch_12">
    <path d="M 43.78125 294.84327 
L 325.19952 294.84327 
L 325.19952 205.295833 
L 43.78125 205.295833 
z
" style="fill: #ffffff"/>
   </g>
   <g id="matplotlib.axis_5">
    <g id="xtick_19">
     <g id="line2d_27">
      <g>
       <use xlink:href="#md8479fbf61" x="56.57299" y="294.84327" style="stroke: #000000; stroke-width: 0.8"/>
      </g>
     </g>
     <g id="text_9">
      <!-- 0 -->
      <g transform="translate(53.39174 309.441707) scale(0.1 -0.1)">
       <use xlink:href="#DejaVuSans-30"/>
      </g>
     </g>
    </g>
    <g id="xtick_20">
     <g id="line2d_28">
      <g>
       <use xlink:href="#md8479fbf61" x="88.535408" y="294.84327" style="stroke: #000000; stroke-width: 0.8"/>
      </g>
     </g>
     <g id="text_10">
      <!-- 100 -->
      <g transform="translate(78.991658 309.441707) scale(0.1 -0.1)">
       <use xlink:href="#DejaVuSans-31"/>
       <use xlink:href="#DejaVuSans-30" transform="translate(63.623047 0)"/>
       <use xlink:href="#DejaVuSans-30" transform="translate(127.246094 0)"/>
      </g>
     </g>
    </g>
    <g id="xtick_21">
     <g id="line2d_29">
      <g>
       <use xlink:href="#md8479fbf61" x="120.497826" y="294.84327" style="stroke: #000000; stroke-width: 0.8"/>
      </g>
     </g>
     <g id="text_11">
      <!-- 200 -->
      <g transform="translate(110.954076 309.441707) scale(0.1 -0.1)">
       <defs>
        <path id="DejaVuSans-32" d="M 1228 531 
L 3431 531 
L 3431 0 
L 469 0 
L 469 531 
Q 828 903 1448 1529 
Q 2069 2156 2228 2338 
Q 2531 2678 2651 2914 
Q 2772 3150 2772 3378 
Q 2772 3750 2511 3984 
Q 2250 4219 1831 4219 
Q 1534 4219 1204 4116 
Q 875 4013 500 3803 
L 500 4441 
Q 881 4594 1212 4672 
Q 1544 4750 1819 4750 
Q 2544 4750 2975 4387 
Q 3406 4025 3406 3419 
Q 3406 3131 3298 2873 
Q 3191 2616 2906 2266 
Q 2828 2175 2409 1742 
Q 1991 1309 1228 531 
z
" transform="scale(0.015625)"/>
       </defs>
       <use xlink:href="#DejaVuSans-32"/>
       <use xlink:href="#DejaVuSans-30" transform="translate(63.623047 0)"/>
       <use xlink:href="#DejaVuSans-30" transform="translate(127.246094 0)"/>
      </g>
     </g>
    </g>
    <g id="xtick_22">
     <g id="line2d_30">
      <g>
       <use xlink:href="#md8479fbf61" x="152.460245" y="294.84327" style="stroke: #000000; stroke-width: 0.8"/>
      </g>
     </g>
     <g id="text_12">
      <!-- 300 -->
      <g transform="translate(142.916495 309.441707) scale(0.1 -0.1)">
       <defs>
        <path id="DejaVuSans-33" d="M 2597 2516 
Q 3050 2419 3304 2112 
Q 3559 1806 3559 1356 
Q 3559 666 3084 287 
Q 2609 -91 1734 -91 
Q 1441 -91 1130 -33 
Q 819 25 488 141 
L 488 750 
Q 750 597 1062 519 
Q 1375 441 1716 441 
Q 2309 441 2620 675 
Q 2931 909 2931 1356 
Q 2931 1769 2642 2001 
Q 2353 2234 1838 2234 
L 1294 2234 
L 1294 2753 
L 1863 2753 
Q 2328 2753 2575 2939 
Q 2822 3125 2822 3475 
Q 2822 3834 2567 4026 
Q 2313 4219 1838 4219 
Q 1578 4219 1281 4162 
Q 984 4106 628 3988 
L 628 4550 
Q 988 4650 1302 4700 
Q 1616 4750 1894 4750 
Q 2613 4750 3031 4423 
Q 3450 4097 3450 3541 
Q 3450 3153 3228 2886 
Q 3006 2619 2597 2516 
z
" transform="scale(0.015625)"/>
       </defs>
       <use xlink:href="#DejaVuSans-33"/>
       <use xlink:href="#DejaVuSans-30" transform="translate(63.623047 0)"/>
       <use xlink:href="#DejaVuSans-30" transform="translate(127.246094 0)"/>
      </g>
     </g>
    </g>
    <g id="xtick_23">
     <g id="line2d_31">
      <g>
       <use xlink:href="#md8479fbf61" x="184.422663" y="294.84327" style="stroke: #000000; stroke-width: 0.8"/>
      </g>
     </g>
     <g id="text_13">
      <!-- 400 -->
      <g transform="translate(174.878913 309.441707) scale(0.1 -0.1)">
       <defs>
        <path id="DejaVuSans-34" d="M 2419 4116 
L 825 1625 
L 2419 1625 
L 2419 4116 
z
M 2253 4666 
L 3047 4666 
L 3047 1625 
L 3713 1625 
L 3713 1100 
L 3047 1100 
L 3047 0 
L 2419 0 
L 2419 1100 
L 313 1100 
L 313 1709 
L 2253 4666 
z
" transform="scale(0.015625)"/>
       </defs>
       <use xlink:href="#DejaVuSans-34"/>
       <use xlink:href="#DejaVuSans-30" transform="translate(63.623047 0)"/>
       <use xlink:href="#DejaVuSans-30" transform="translate(127.246094 0)"/>
      </g>
     </g>
    </g>
    <g id="xtick_24">
     <g id="line2d_32">
      <g>
       <use xlink:href="#md8479fbf61" x="216.385081" y="294.84327" style="stroke: #000000; stroke-width: 0.8"/>
      </g>
     </g>
     <g id="text_14">
      <!-- 500 -->
      <g transform="translate(206.841331 309.441707) scale(0.1 -0.1)">
       <use xlink:href="#DejaVuSans-35"/>
       <use xlink:href="#DejaVuSans-30" transform="translate(63.623047 0)"/>
       <use xlink:href="#DejaVuSans-30" transform="translate(127.246094 0)"/>
      </g>
     </g>
    </g>
    <g id="xtick_25">
     <g id="line2d_33">
      <g>
       <use xlink:href="#md8479fbf61" x="248.3475" y="294.84327" style="stroke: #000000; stroke-width: 0.8"/>
      </g>
     </g>
     <g id="text_15">
      <!-- 600 -->
      <g transform="translate(238.80375 309.441707) scale(0.1 -0.1)">
       <defs>
        <path id="DejaVuSans-36" d="M 2113 2584 
Q 1688 2584 1439 2293 
Q 1191 2003 1191 1497 
Q 1191 994 1439 701 
Q 1688 409 2113 409 
Q 2538 409 2786 701 
Q 3034 994 3034 1497 
Q 3034 2003 2786 2293 
Q 2538 2584 2113 2584 
z
M 3366 4563 
L 3366 3988 
Q 3128 4100 2886 4159 
Q 2644 4219 2406 4219 
Q 1781 4219 1451 3797 
Q 1122 3375 1075 2522 
Q 1259 2794 1537 2939 
Q 1816 3084 2150 3084 
Q 2853 3084 3261 2657 
Q 3669 2231 3669 1497 
Q 3669 778 3244 343 
Q 2819 -91 2113 -91 
Q 1303 -91 875 529 
Q 447 1150 447 2328 
Q 447 3434 972 4092 
Q 1497 4750 2381 4750 
Q 2619 4750 2861 4703 
Q 3103 4656 3366 4563 
z
" transform="scale(0.015625)"/>
       </defs>
       <use xlink:href="#DejaVuSans-36"/>
       <use xlink:href="#DejaVuSans-30" transform="translate(63.623047 0)"/>
       <use xlink:href="#DejaVuSans-30" transform="translate(127.246094 0)"/>
      </g>
     </g>
    </g>
    <g id="xtick_26">
     <g id="line2d_34">
      <g>
       <use xlink:href="#md8479fbf61" x="280.309918" y="294.84327" style="stroke: #000000; stroke-width: 0.8"/>
      </g>
     </g>
     <g id="text_16">
      <!-- 700 -->
      <g transform="translate(270.766168 309.441707) scale(0.1 -0.1)">
       <defs>
        <path id="DejaVuSans-37" d="M 525 4666 
L 3525 4666 
L 3525 4397 
L 1831 0 
L 1172 0 
L 2766 4134 
L 525 4134 
L 525 4666 
z
" transform="scale(0.015625)"/>
       </defs>
       <use xlink:href="#DejaVuSans-37"/>
       <use xlink:href="#DejaVuSans-30" transform="translate(63.623047 0)"/>
       <use xlink:href="#DejaVuSans-30" transform="translate(127.246094 0)"/>
      </g>
     </g>
    </g>
    <g id="xtick_27">
     <g id="line2d_35">
      <g>
       <use xlink:href="#md8479fbf61" x="312.272336" y="294.84327" style="stroke: #000000; stroke-width: 0.8"/>
      </g>
     </g>
     <g id="text_17">
      <!-- 800 -->
      <g transform="translate(302.728586 309.441707) scale(0.1 -0.1)">
       <defs>
        <path id="DejaVuSans-38" d="M 2034 2216 
Q 1584 2216 1326 1975 
Q 1069 1734 1069 1313 
Q 1069 891 1326 650 
Q 1584 409 2034 409 
Q 2484 409 2743 651 
Q 3003 894 3003 1313 
Q 3003 1734 2745 1975 
Q 2488 2216 2034 2216 
z
M 1403 2484 
Q 997 2584 770 2862 
Q 544 3141 544 3541 
Q 544 4100 942 4425 
Q 1341 4750 2034 4750 
Q 2731 4750 3128 4425 
Q 3525 4100 3525 3541 
Q 3525 3141 3298 2862 
Q 3072 2584 2669 2484 
Q 3125 2378 3379 2068 
Q 3634 1759 3634 1313 
Q 3634 634 3220 271 
Q 2806 -91 2034 -91 
Q 1263 -91 848 271 
Q 434 634 434 1313 
Q 434 1759 690 2068 
Q 947 2378 1403 2484 
z
M 1172 3481 
Q 1172 3119 1398 2916 
Q 1625 2713 2034 2713 
Q 2441 2713 2670 2916 
Q 2900 3119 2900 3481 
Q 2900 3844 2670 4047 
Q 2441 4250 2034 4250 
Q 1625 4250 1398 4047 
Q 1172 3844 1172 3481 
z
" transform="scale(0.015625)"/>
       </defs>
       <use xlink:href="#DejaVuSans-38"/>
       <use xlink:href="#DejaVuSans-30" transform="translate(63.623047 0)"/>
       <use xlink:href="#DejaVuSans-30" transform="translate(127.246094 0)"/>
      </g>
     </g>
    </g>
    <g id="text_18">
     <!-- Time -->
     <g transform="translate(172.256791 323.119832) scale(0.1 -0.1)">
      <defs>
       <path id="DejaVuSans-54" d="M -19 4666 
L 3928 4666 
L 3928 4134 
L 2272 4134 
L 2272 0 
L 1638 0 
L 1638 4134 
L -19 4134 
L -19 4666 
z
" transform="scale(0.015625)"/>
       <path id="DejaVuSans-69" d="M 603 3500 
L 1178 3500 
L 1178 0 
L 603 0 
L 603 3500 
z
M 603 4863 
L 1178 4863 
L 1178 4134 
L 603 4134 
L 603 4863 
z
" transform="scale(0.015625)"/>
       <path id="DejaVuSans-6d" d="M 3328 2828 
Q 3544 3216 3844 3400 
Q 4144 3584 4550 3584 
Q 5097 3584 5394 3201 
Q 5691 2819 5691 2113 
L 5691 0 
L 5113 0 
L 5113 2094 
Q 5113 2597 4934 2840 
Q 4756 3084 4391 3084 
Q 3944 3084 3684 2787 
Q 3425 2491 3425 1978 
L 3425 0 
L 2847 0 
L 2847 2094 
Q 2847 2600 2669 2842 
Q 2491 3084 2119 3084 
Q 1678 3084 1418 2786 
Q 1159 2488 1159 1978 
L 1159 0 
L 581 0 
L 581 3500 
L 1159 3500 
L 1159 2956 
Q 1356 3278 1631 3431 
Q 1906 3584 2284 3584 
Q 2666 3584 2933 3390 
Q 3200 3197 3328 2828 
z
" transform="scale(0.015625)"/>
      </defs>
      <use xlink:href="#DejaVuSans-54"/>
      <use xlink:href="#DejaVuSans-69" transform="translate(57.958984 0)"/>
      <use xlink:href="#DejaVuSans-6d" transform="translate(85.742188 0)"/>
      <use xlink:href="#DejaVuSans-65" transform="translate(183.154297 0)"/>
     </g>
    </g>
   </g>
   <g id="matplotlib.axis_6">
    <g id="ytick_7">
     <g id="line2d_36">
      <g>
       <use xlink:href="#m97ac1270da" x="43.78125" y="290.772932" style="stroke: #000000; stroke-width: 0.8"/>
      </g>
     </g>
     <g id="text_19">
      <!-- 0.0 -->
      <g transform="translate(20.878125 294.572151) scale(0.1 -0.1)">
       <defs>
        <path id="DejaVuSans-2e" d="M 684 794 
L 1344 794 
L 1344 0 
L 684 0 
L 684 794 
z
" transform="scale(0.015625)"/>
       </defs>
       <use xlink:href="#DejaVuSans-30"/>
       <use xlink:href="#DejaVuSans-2e" transform="translate(63.623047 0)"/>
       <use xlink:href="#DejaVuSans-30" transform="translate(95.410156 0)"/>
      </g>
     </g>
    </g>
    <g id="ytick_8">
     <g id="line2d_37">
      <g>
       <use xlink:href="#m97ac1270da" x="43.78125" y="250.069552" style="stroke: #000000; stroke-width: 0.8"/>
      </g>
     </g>
     <g id="text_20">
      <!-- 0.5 -->
      <g transform="translate(20.878125 253.86877) scale(0.1 -0.1)">
       <use xlink:href="#DejaVuSans-30"/>
       <use xlink:href="#DejaVuSans-2e" transform="translate(63.623047 0)"/>
       <use xlink:href="#DejaVuSans-35" transform="translate(95.410156 0)"/>
      </g>
     </g>
    </g>
    <g id="ytick_9">
     <g id="line2d_38">
      <g>
       <use xlink:href="#m97ac1270da" x="43.78125" y="209.366171" style="stroke: #000000; stroke-width: 0.8"/>
      </g>
     </g>
     <g id="text_21">
      <!-- 1.0 -->
      <g transform="translate(20.878125 213.16539) scale(0.1 -0.1)">
       <use xlink:href="#DejaVuSans-31"/>
       <use xlink:href="#DejaVuSans-2e" transform="translate(63.623047 0)"/>
       <use xlink:href="#DejaVuSans-30" transform="translate(95.410156 0)"/>
      </g>
     </g>
    </g>
    <g id="text_22">
     <!-- Free lac operon -->
     <g transform="translate(14.798438 288.540645) rotate(-90) scale(0.1 -0.1)">
      <defs>
       <path id="DejaVuSans-46" d="M 628 4666 
L 3309 4666 
L 3309 4134 
L 1259 4134 
L 1259 2759 
L 3109 2759 
L 3109 2228 
L 1259 2228 
L 1259 0 
L 628 0 
L 628 4666 
z
" transform="scale(0.015625)"/>
       <path id="DejaVuSans-70" d="M 1159 525 
L 1159 -1331 
L 581 -1331 
L 581 3500 
L 1159 3500 
L 1159 2969 
Q 1341 3281 1617 3432 
Q 1894 3584 2278 3584 
Q 2916 3584 3314 3078 
Q 3713 2572 3713 1747 
Q 3713 922 3314 415 
Q 2916 -91 2278 -91 
Q 1894 -91 1617 61 
Q 1341 213 1159 525 
z
M 3116 1747 
Q 3116 2381 2855 2742 
Q 2594 3103 2138 3103 
Q 1681 3103 1420 2742 
Q 1159 2381 1159 1747 
Q 1159 1113 1420 752 
Q 1681 391 2138 391 
Q 2594 391 2855 752 
Q 3116 1113 3116 1747 
z
" transform="scale(0.015625)"/>
       <path id="DejaVuSans-6e" d="M 3513 2113 
L 3513 0 
L 2938 0 
L 2938 2094 
Q 2938 2591 2744 2837 
Q 2550 3084 2163 3084 
Q 1697 3084 1428 2787 
Q 1159 2491 1159 1978 
L 1159 0 
L 581 0 
L 581 3500 
L 1159 3500 
L 1159 2956 
Q 1366 3272 1645 3428 
Q 1925 3584 2291 3584 
Q 2894 3584 3203 3211 
Q 3513 2838 3513 2113 
z
" transform="scale(0.015625)"/>
      </defs>
      <use xlink:href="#DejaVuSans-46"/>
      <use xlink:href="#DejaVuSans-72" transform="translate(50.269531 0)"/>
      <use xlink:href="#DejaVuSans-65" transform="translate(89.132812 0)"/>
      <use xlink:href="#DejaVuSans-65" transform="translate(150.65625 0)"/>
      <use xlink:href="#DejaVuSans-20" transform="translate(212.179688 0)"/>
      <use xlink:href="#DejaVuSans-6c" transform="translate(243.966797 0)"/>
      <use xlink:href="#DejaVuSans-61" transform="translate(271.75 0)"/>
      <use xlink:href="#DejaVuSans-63" transform="translate(333.029297 0)"/>
      <use xlink:href="#DejaVuSans-20" transform="translate(388.009766 0)"/>
      <use xlink:href="#DejaVuSans-6f" transform="translate(419.796875 0)"/>
      <use xlink:href="#DejaVuSans-70" transform="translate(480.978516 0)"/>
      <use xlink:href="#DejaVuSans-65" transform="translate(544.455078 0)"/>
      <use xlink:href="#DejaVuSans-72" transform="translate(605.978516 0)"/>
      <use xlink:href="#DejaVuSans-6f" transform="translate(644.841797 0)"/>
      <use xlink:href="#DejaVuSans-6e" transform="translate(706.023438 0)"/>
     </g>
    </g>
   </g>
   <g id="line2d_39">
    <path d="M 56.57299 209.366171 
L 56.599294 209.366171 
L 56.727584 290.772932 
L 58.45503 290.772932 
L 63.941831 209.366171 
L 63.99813 290.772932 
L 71.399398 209.366171 
L 71.447021 290.772932 
L 75.123133 209.366171 
L 75.487359 209.366171 
L 75.573167 290.772932 
L 76.351844 209.366171 
L 77.147943 290.772932 
L 77.544073 209.366171 
L 78.192753 209.366171 
L 78.249763 290.772932 
L 79.745634 290.772932 
L 80.38771 209.366171 
L 81.539129 209.366171 
L 81.87509 290.772932 
L 84.047987 290.772932 
L 85.555813 209.366171 
L 85.859129 209.366171 
L 85.868085 290.772932 
L 86.341615 290.772932 
L 100.507911 209.366171 
L 100.552667 290.772932 
L 100.869258 209.366171 
L 100.962403 290.772932 
L 101.242815 290.772932 
L 103.310536 209.366171 
L 103.358513 290.772932 
L 103.810145 209.366171 
L 103.819972 290.772932 
L 104.146225 290.772932 
L 105.1494 209.366171 
L 105.544461 209.366171 
L 105.609172 290.772932 
L 105.764617 290.772932 
L 105.904352 209.366171 
L 106.651558 209.366171 
L 106.664435 290.772932 
L 107.353934 290.772932 
L 107.912045 209.366171 
L 108.426965 209.366171 
L 108.52129 290.772932 
L 113.255083 209.366171 
L 113.345741 290.772932 
L 113.539459 209.366171 
L 113.643425 290.772932 
L 118.85633 209.366171 
L 119.045832 209.366171 
L 119.20975 290.772932 
L 120.072401 290.772932 
L 122.464765 209.366171 
L 122.627787 290.772932 
L 150.524191 209.366171 
L 151.1538 209.366171 
L 151.45708 290.772932 
L 153.036049 290.772932 
L 153.528753 209.366171 
L 187.393627 209.366171 
L 187.518049 290.772932 
L 187.78443 209.366171 
L 200.93131 209.366171 
L 200.962607 290.772932 
L 201.266279 209.366171 
L 214.045231 209.366171 
L 214.121836 290.772932 
L 215.39201 290.772932 
L 217.812339 209.366171 
L 217.839739 290.772932 
L 226.355417 209.366171 
L 226.652484 290.772932 
L 228.282158 209.366171 
L 228.386663 209.366171 
L 228.451458 290.772932 
L 228.773062 290.772932 
L 228.959709 209.366171 
L 228.998896 290.772932 
L 229.851794 290.772932 
L 233.970196 209.366171 
L 234.087867 290.772932 
L 237.103837 209.366171 
L 237.223566 209.366171 
L 237.317146 290.772932 
L 238.340829 290.772932 
L 238.820392 209.366171 
L 239.259343 290.772932 
L 257.553648 209.366171 
L 257.687314 290.772932 
L 257.92146 290.772932 
L 259.668602 209.366171 
L 259.865682 209.366171 
L 259.869753 290.772932 
L 262.192521 290.772932 
L 267.362787 209.366171 
L 267.368063 290.772932 
L 268.18753 290.772932 
L 274.113635 209.366171 
L 274.254296 290.772932 
L 281.013903 209.366171 
L 281.400179 290.772932 
L 282.741215 209.366171 
L 282.793719 290.772932 
L 285.164393 209.366171 
L 285.279141 209.366171 
L 285.39824 290.772932 
L 285.851024 290.772932 
L 286.267778 209.366171 
L 286.627979 209.366171 
L 286.649569 290.772932 
L 286.853046 209.366171 
L 286.861215 290.772932 
L 287.655247 290.772932 
L 287.770574 209.366171 
L 287.780778 290.772932 
L 288.195771 209.366171 
L 289.449845 209.366171 
L 289.557841 290.772932 
L 291.517178 290.772932 
L 293.355837 209.366171 
L 293.656233 209.366171 
L 293.710442 290.772932 
L 293.743765 209.366171 
L 294.529657 209.366171 
L 294.592237 290.772932 
L 296.599818 290.772932 
L 299.766554 209.366171 
L 299.874715 290.772932 
L 300.392612 209.366171 
L 300.668241 290.772932 
L 303.901877 290.772932 
L 305.938011 209.366171 
L 306.973631 209.366171 
L 306.999416 290.772932 
L 307.893252 290.772932 
L 309.554135 209.366171 
L 310.020212 209.366171 
L 310.088886 290.772932 
L 310.620036 290.772932 
L 310.900422 209.366171 
L 310.959103 290.772932 
L 312.017246 209.366171 
L 312.074423 290.772932 
L 312.40778 209.366171 
L 312.40778 209.366171 
" clip-path="url(#padeee4e3bc)" style="fill: none; stroke: #000000; stroke-width: 1.5; stroke-linecap: square"/>
   </g>
   <g id="patch_13">
    <path d="M 43.78125 294.84327 
L 43.78125 205.295833 
" style="fill: none; stroke: #000000; stroke-width: 0.8; stroke-linejoin: miter; stroke-linecap: square"/>
   </g>
   <g id="patch_14">
    <path d="M 325.19952 294.84327 
L 325.19952 205.295833 
" style="fill: none; stroke: #000000; stroke-width: 0.8; stroke-linejoin: miter; stroke-linecap: square"/>
   </g>
   <g id="patch_15">
    <path d="M 43.78125 294.84327 
L 325.19952 294.84327 
" style="fill: none; stroke: #000000; stroke-width: 0.8; stroke-linejoin: miter; stroke-linecap: square"/>
   </g>
   <g id="patch_16">
    <path d="M 43.78125 205.295833 
L 325.19952 205.295833 
" style="fill: none; stroke: #000000; stroke-width: 0.8; stroke-linejoin: miter; stroke-linecap: square"/>
   </g>
  </g>
 </g>
 <defs>
  <clipPath id="pfd2fcf7956">
   <rect x="43.78125" y="7.2" width="281.41827" height="89.547437"/>
  </clipPath>
  <clipPath id="p5a31c65055">
   <rect x="43.78125" y="106.247917" width="281.41827" height="89.547437"/>
  </clipPath>
  <clipPath id="padeee4e3bc">
   <rect x="43.78125" y="205.295833" width="281.41827" height="89.547437"/>
  </clipPath>
 </defs>
</svg>
