<?xml version="1.0" encoding="utf-8" standalone="no"?>
<!DOCTYPE svg PUBLIC "-//W3C//DTD SVG 1.1//EN"
  "http://www.w3.org/Graphics/SVG/1.1/DTD/svg11.dtd">
<svg xmlns:xlink="http://www.w3.org/1999/xlink" width="332.39952pt" height="332.39952pt" viewBox="0 0 332.39952 332.39952" xmlns="http://www.w3.org/2000/svg" version="1.1">
 <metadata>
  <rdf:RDF xmlns:dc="http://purl.org/dc/elements/1.1/" xmlns:cc="http://creativecommons.org/ns#" xmlns:rdf="http://www.w3.org/1999/02/22-rdf-syntax-ns#">
   <cc:Work>
    <dc:type rdf:resource="http://purl.org/dc/dcmitype/StillImage"/>
    <dc:date>2026-07-11T15:37:21.106873</dc:date>
    <dc:format>image/svg+xml</dc:format>
    <dc:creator>
     <cc:Agent>
      <dc:title>Matplotlib v3.11.0, https://matplotlib.org/</dc:title>
     </cc:Agent>
    </dc:creator>
   </cc:Work>
  </rdf:RDF>
 </metadata>
 <defs>
  <style type="text/css">*{stroke-linejoin: round; stroke-linecap: butt}</style>
 </defs>
 <g id="figure_1">
  <g id="patch_1">
   <path d="M 0 332.39952 
L 332.39952 332.39952 
L 332.39952 0 
L 0 0 
z
" style="fill: #ffffff"/>
  </g>
  <g id="axes_1">
   <g id="patch_2">
    <path d="M 44.103906 96.532593 
L 325.19952 96.532593 
L 325.19952 7.2 
L 44.103906 7.2 
z
" style="fill: #ffffff"/>
   </g>
   <g id="matplotlib.axis_1">
    <g id="xtick_1">
     <g id="line2d_1">
      <defs>
       <path id="m4e83f3ed47" d="M 0 0 
L 0 3.5 
" style="stroke: #000000; stroke-width: 0.8"/>
      </defs>
      <g>
       <use xlink:href="#m4e83f3ed47" x="56.88098" y="96.532593" style="stroke: #000000; stroke-width: 0.8"/>
      </g>
     </g>
    </g>
    <g id="xtick_2">
     <g id="line2d_2">
      <g>
       <use xlink:href="#m4e83f3ed47" x="88.535573" y="96.532593" style="stroke: #000000; stroke-width: 0.8"/>
      </g>
     </g>
    </g>
    <g id="xtick_3">
     <g id="line2d_3">
      <g>
       <use xlink:href="#m4e83f3ed47" x="120.190166" y="96.532593" style="stroke: #000000; stroke-width: 0.8"/>
      </g>
     </g>
    </g>
    <g id="xtick_4">
     <g id="line2d_4">
      <g>
       <use xlink:href="#m4e83f3ed47" x="151.84476" y="96.532593" style="stroke: #000000; stroke-width: 0.8"/>
      </g>
     </g>
    </g>
    <g id="xtick_5">
     <g id="line2d_5">
      <g>
       <use xlink:href="#m4e83f3ed47" x="183.499353" y="96.532593" style="stroke: #000000; stroke-width: 0.8"/>
      </g>
     </g>
    </g>
    <g id="xtick_6">
     <g id="line2d_6">
      <g>
       <use xlink:href="#m4e83f3ed47" x="215.153947" y="96.532593" style="stroke: #000000; stroke-width: 0.8"/>
      </g>
     </g>
    </g>
    <g id="xtick_7">
     <g id="line2d_7">
      <g>
       <use xlink:href="#m4e83f3ed47" x="246.80854" y="96.532593" style="stroke: #000000; stroke-width: 0.8"/>
      </g>
     </g>
    </g>
    <g id="xtick_8">
     <g id="line2d_8">
      <g>
       <use xlink:href="#m4e83f3ed47" x="278.463133" y="96.532593" style="stroke: #000000; stroke-width: 0.8"/>
      </g>
     </g>
    </g>
    <g id="xtick_9">
     <g id="line2d_9">
      <g>
       <use xlink:href="#m4e83f3ed47" x="310.117727" y="96.532593" style="stroke: #000000; stroke-width: 0.8"/>
      </g>
     </g>
    </g>
   </g>
   <g id="matplotlib.axis_2">
    <g id="ytick_1">
     <g id="line2d_10">
      <defs>
       <path id="m54551b8718" d="M 0 0 
L -3.5 0 
" style="stroke: #000000; stroke-width: 0.8"/>
      </defs>
      <g>
       <use xlink:href="#m54551b8718" x="44.103906" y="92.472021" style="stroke: #000000; stroke-width: 0.8"/>
      </g>
     </g>
     <g id="text_1">
      <!-- 0 -->
      <g transform="translate(30.741406 96.270849) scale(0.1 -0.1)">
       <defs>
        <path id="DejaVuSans-13" d="M 2034 4250 
Q 1547 4250 1301 3770 
Q 1056 3291 1056 2328 
Q 1056 1369 1301 889 
Q 1547 409 2034 409 
Q 2525 409 2770 889 
Q 3016 1369 3016 2328 
Q 3016 3291 2770 3770 
Q 2525 4250 2034 4250 
z
M 2034 4750 
Q 2819 4750 3233 4129 
Q 3647 3509 3647 2328 
Q 3647 1150 3233 529 
Q 2819 -91 2034 -91 
Q 1250 -91 836 529 
Q 422 1150 422 2328 
Q 422 3509 836 4129 
Q 1250 4750 2034 4750 
z
" transform="scale(0.015625)"/>
       </defs>
       <use xlink:href="#DejaVuSans-13"/>
      </g>
     </g>
    </g>
    <g id="ytick_2">
     <g id="line2d_11">
      <g>
       <use xlink:href="#m54551b8718" x="44.103906" y="51.866296" style="stroke: #000000; stroke-width: 0.8"/>
      </g>
     </g>
     <g id="text_2">
      <!-- 5 -->
      <g transform="translate(30.741406 55.665125) scale(0.1 -0.1)">
       <defs>
        <path id="DejaVuSans-18" d="M 691 4666 
L 3169 4666 
L 3169 4134 
L 1269 4134 
L 1269 2991 
Q 1406 3038 1543 3061 
Q 1681 3084 1819 3084 
Q 2600 3084 3056 2656 
Q 3513 2228 3513 1497 
Q 3513 744 3044 326 
Q 2575 -91 1722 -91 
Q 1428 -91 1123 -41 
Q 819 9 494 109 
L 494 744 
Q 775 591 1075 516 
Q 1375 441 1709 441 
Q 2250 441 2565 725 
Q 2881 1009 2881 1497 
Q 2881 1984 2565 2268 
Q 2250 2553 1709 2553 
Q 1456 2553 1204 2497 
Q 953 2441 691 2322 
L 691 4666 
z
" transform="scale(0.015625)"/>
       </defs>
       <use xlink:href="#DejaVuSans-18"/>
      </g>
     </g>
    </g>
    <g id="ytick_3">
     <g id="line2d_12">
      <g>
       <use xlink:href="#m54551b8718" x="44.103906" y="11.260572" style="stroke: #000000; stroke-width: 0.8"/>
      </g>
     </g>
     <g id="text_3">
      <!-- 10 -->
      <g transform="translate(24.378906 15.059401) scale(0.1 -0.1)">
       <defs>
        <path id="DejaVuSans-14" d="M 794 531 
L 1825 531 
L 1825 4091 
L 703 3866 
L 703 4441 
L 1819 4666 
L 2450 4666 
L 2450 531 
L 3481 531 
L 3481 0 
L 794 0 
L 794 531 
z
" transform="scale(0.015625)"/>
       </defs>
       <use xlink:href="#DejaVuSans-14"/>
       <use xlink:href="#DejaVuSans-13" transform="translate(63.625 0)"/>
      </g>
     </g>
    </g>
    <g id="text_4">
     <!-- Extracellular lactose -->
     <g transform="translate(17.976563 102.838171) rotate(-90) scale(0.1 -0.1)">
      <defs>
       <path id="DejaVuSans-28" d="M 628 4666 
L 3578 4666 
L 3578 4134 
L 1259 4134 
L 1259 2753 
L 3481 2753 
L 3481 2222 
L 1259 2222 
L 1259 531 
L 3634 531 
L 3634 0 
L 628 0 
L 628 4666 
z
" transform="scale(0.015625)"/>
       <path id="DejaVuSans-5b" d="M 3513 3500 
L 2247 1797 
L 3578 0 
L 2900 0 
L 1881 1375 
L 863 0 
L 184 0 
L 1544 1831 
L 300 3500 
L 978 3500 
L 1906 2253 
L 2834 3500 
L 3513 3500 
z
" transform="scale(0.015625)"/>
       <path id="DejaVuSans-57" d="M 1172 4494 
L 1172 3500 
L 2356 3500 
L 2356 3053 
L 1172 3053 
L 1172 1153 
Q 1172 725 1289 603 
Q 1406 481 1766 481 
L 2356 481 
L 2356 0 
L 1766 0 
Q 1100 0 847 248 
Q 594 497 594 1153 
L 594 3053 
L 172 3053 
L 172 3500 
L 594 3500 
L 594 4494 
L 1172 4494 
z
" transform="scale(0.015625)"/>
       <path id="DejaVuSans-55" d="M 2631 2963 
Q 2534 3019 2420 3045 
Q 2306 3072 2169 3072 
Q 1681 3072 1420 2755 
Q 1159 2438 1159 1844 
L 1159 0 
L 581 0 
L 581 3500 
L 1159 3500 
L 1159 2956 
Q 1341 3275 1631 3429 
Q 1922 3584 2338 3584 
Q 2397 3584 2469 3576 
Q 2541 3569 2628 3553 
L 2631 2963 
z
" transform="scale(0.015625)"/>
       <path id="DejaVuSans-44" d="M 2194 1759 
Q 1497 1759 1228 1600 
Q 959 1441 959 1056 
Q 959 750 1161 570 
Q 1363 391 1709 391 
Q 2188 391 2477 730 
Q 2766 1069 2766 1631 
L 2766 1759 
L 2194 1759 
z
M 3341 1997 
L 3341 0 
L 2766 0 
L 2766 531 
Q 2569 213 2275 61 
Q 1981 -91 1556 -91 
Q 1019 -91 701 211 
Q 384 513 384 1019 
Q 384 1609 779 1909 
Q 1175 2209 1959 2209 
L 2766 2209 
L 2766 2266 
Q 2766 2663 2505 2880 
Q 2244 3097 1772 3097 
Q 1472 3097 1187 3025 
Q 903 2953 641 2809 
L 641 3341 
Q 956 3463 1253 3523 
Q 1550 3584 1831 3584 
Q 2591 3584 2966 3190 
Q 3341 2797 3341 1997 
z
" transform="scale(0.015625)"/>
       <path id="DejaVuSans-46" d="M 3122 3366 
L 3122 2828 
Q 2878 2963 2633 3030 
Q 2388 3097 2138 3097 
Q 1578 3097 1268 2742 
Q 959 2388 959 1747 
Q 959 1106 1268 751 
Q 1578 397 2138 397 
Q 2388 397 2633 464 
Q 2878 531 3122 666 
L 3122 134 
Q 2881 22 2623 -34 
Q 2366 -91 2075 -91 
Q 1284 -91 818 406 
Q 353 903 353 1747 
Q 353 2603 823 3093 
Q 1294 3584 2113 3584 
Q 2378 3584 2631 3529 
Q 2884 3475 3122 3366 
z
" transform="scale(0.015625)"/>
       <path id="DejaVuSans-48" d="M 3597 1894 
L 3597 1613 
L 953 1613 
Q 991 1019 1311 708 
Q 1631 397 2203 397 
Q 2534 397 2845 478 
Q 3156 559 3463 722 
L 3463 178 
Q 3153 47 2828 -22 
Q 2503 -91 2169 -91 
Q 1331 -91 842 396 
Q 353 884 353 1716 
Q 353 2575 817 3079 
Q 1281 3584 2069 3584 
Q 2775 3584 3186 3129 
Q 3597 2675 3597 1894 
z
M 3022 2063 
Q 3016 2534 2758 2815 
Q 2500 3097 2075 3097 
Q 1594 3097 1305 2825 
Q 1016 2553 972 2059 
L 3022 2063 
z
" transform="scale(0.015625)"/>
       <path id="DejaVuSans-4f" d="M 603 4863 
L 1178 4863 
L 1178 0 
L 603 0 
L 603 4863 
z
" transform="scale(0.015625)"/>
       <path id="DejaVuSans-58" d="M 544 1381 
L 544 3500 
L 1119 3500 
L 1119 1403 
Q 1119 906 1312 657 
Q 1506 409 1894 409 
Q 2359 409 2629 706 
Q 2900 1003 2900 1516 
L 2900 3500 
L 3475 3500 
L 3475 0 
L 2900 0 
L 2900 538 
Q 2691 219 2414 64 
Q 2138 -91 1772 -91 
Q 1169 -91 856 284 
Q 544 659 544 1381 
z
M 1991 3584 
L 1991 3584 
z
" transform="scale(0.015625)"/>
       <path id="DejaVuSans-3" transform="scale(0.015625)"/>
       <path id="DejaVuSans-52" d="M 1959 3097 
Q 1497 3097 1228 2736 
Q 959 2375 959 1747 
Q 959 1119 1226 758 
Q 1494 397 1959 397 
Q 2419 397 2687 759 
Q 2956 1122 2956 1747 
Q 2956 2369 2687 2733 
Q 2419 3097 1959 3097 
z
M 1959 3584 
Q 2709 3584 3137 3096 
Q 3566 2609 3566 1747 
Q 3566 888 3137 398 
Q 2709 -91 1959 -91 
Q 1206 -91 779 398 
Q 353 888 353 1747 
Q 353 2609 779 3096 
Q 1206 3584 1959 3584 
z
" transform="scale(0.015625)"/>
       <path id="DejaVuSans-56" d="M 2834 3397 
L 2834 2853 
Q 2591 2978 2328 3040 
Q 2066 3103 1784 3103 
Q 1356 3103 1142 2972 
Q 928 2841 928 2578 
Q 928 2378 1081 2264 
Q 1234 2150 1697 2047 
L 1894 2003 
Q 2506 1872 2764 1633 
Q 3022 1394 3022 966 
Q 3022 478 2636 193 
Q 2250 -91 1575 -91 
Q 1294 -91 989 -36 
Q 684 19 347 128 
L 347 722 
Q 666 556 975 473 
Q 1284 391 1588 391 
Q 1994 391 2212 530 
Q 2431 669 2431 922 
Q 2431 1156 2273 1281 
Q 2116 1406 1581 1522 
L 1381 1569 
Q 847 1681 609 1914 
Q 372 2147 372 2553 
Q 372 3047 722 3315 
Q 1072 3584 1716 3584 
Q 2034 3584 2315 3537 
Q 2597 3491 2834 3397 
z
" transform="scale(0.015625)"/>
      </defs>
      <use xlink:href="#DejaVuSans-28"/>
      <use xlink:href="#DejaVuSans-5b" transform="translate(63.1875 0)"/>
      <use xlink:href="#DejaVuSans-57" transform="translate(122.375 0)"/>
      <use xlink:href="#DejaVuSans-55" transform="translate(161.578125 0)"/>
      <use xlink:href="#DejaVuSans-44" transform="translate(202.6875 0)"/>
      <use xlink:href="#DejaVuSans-46" transform="translate(263.96875 0)"/>
      <use xlink:href="#DejaVuSans-48" transform="translate(318.953125 0)"/>
      <use xlink:href="#DejaVuSans-4f" transform="translate(380.484375 0)"/>
      <use xlink:href="#DejaVuSans-4f" transform="translate(408.265625 0)"/>
      <use xlink:href="#DejaVuSans-58" transform="translate(436.046875 0)"/>
      <use xlink:href="#DejaVuSans-4f" transform="translate(499.421875 0)"/>
      <use xlink:href="#DejaVuSans-44" transform="translate(527.203125 0)"/>
      <use xlink:href="#DejaVuSans-55" transform="translate(588.484375 0)"/>
      <use xlink:href="#DejaVuSans-3" transform="translate(629.59375 0)"/>
      <use xlink:href="#DejaVuSans-4f" transform="translate(661.375 0)"/>
      <use xlink:href="#DejaVuSans-44" transform="translate(689.15625 0)"/>
      <use xlink:href="#DejaVuSans-46" transform="translate(750.4375 0)"/>
      <use xlink:href="#DejaVuSans-57" transform="translate(805.421875 0)"/>
      <use xlink:href="#DejaVuSans-52" transform="translate(844.625 0)"/>
      <use xlink:href="#DejaVuSans-56" transform="translate(905.8125 0)"/>
      <use xlink:href="#DejaVuSans-48" transform="translate(957.90625 0)"/>
     </g>
    </g>
   </g>
   <g id="line2d_13">
    <path d="M 56.88098 92.472021 
L 155.348718 92.472021 
L 155.437045 11.260572 
L 156.099258 11.341784 
L 156.215928 11.66663 
L 156.260355 11.747841 
L 156.405285 13.209647 
L 156.522603 14.833876 
L 156.536311 14.915088 
L 156.678583 16.620528 
L 156.701929 16.701739 
L 157.207102 20.193832 
L 157.481933 20.599889 
L 157.540714 20.6811 
L 157.648945 20.762312 
L 158.095644 20.843523 
L 158.191666 21.249581 
L 158.430381 21.655638 
L 158.529974 22.061695 
L 158.649494 22.142906 
L 158.751349 22.630175 
L 158.781085 22.711387 
L 158.889112 23.604713 
L 158.9855 24.498038 
L 159.321652 25.878633 
L 159.367241 25.959845 
L 159.623171 27.421651 
L 159.742819 28.477399 
L 159.756461 28.558611 
L 160.0712 31.157377 
L 160.606054 33.431298 
L 160.732782 34.080989 
L 160.835367 34.162201 
L 161.039219 35.136738 
L 161.103774 35.21795 
L 161.300467 35.948853 
L 161.867857 36.030064 
L 162.01066 36.517333 
L 162.034213 36.598544 
L 162.201746 37.004601 
L 162.411909 37.085813 
L 162.555197 37.654293 
L 162.701905 37.979139 
L 162.724957 38.06035 
L 162.827293 38.303985 
L 163.411605 39.603368 
L 163.522756 39.847002 
L 163.698451 39.928214 
L 164.111858 41.39002 
L 164.248031 41.471231 
L 164.382077 41.633654 
L 164.426848 41.714865 
L 164.617903 42.445768 
L 164.664402 42.52698 
L 164.773364 42.851826 
L 164.930887 43.09546 
L 164.939228 43.176672 
L 164.990277 43.257883 
L 165.226533 43.339094 
L 165.340067 43.745152 
L 165.487545 44.151209 
L 165.572252 44.23242 
L 165.692534 44.638478 
L 165.916913 44.963323 
L 165.995339 45.044535 
L 166.309836 46.912398 
L 166.339996 46.99361 
L 166.451627 47.318455 
L 166.500367 47.399667 
L 166.712133 47.886936 
L 166.791033 47.968147 
L 167.062981 48.617839 
L 167.336668 50.160856 
L 167.392014 50.242067 
L 167.507417 50.729336 
L 167.671657 51.054182 
L 167.816128 51.135393 
L 167.909697 51.297816 
L 168.000443 51.379028 
L 168.105627 51.541451 
L 168.233136 51.703874 
L 168.31148 51.785085 
L 168.429162 51.947508 
L 168.629884 53.003257 
L 168.815617 53.896583 
L 168.838277 53.977794 
L 168.972915 55.033543 
L 169.005236 55.114754 
L 169.164734 55.926869 
L 169.222961 56.00808 
L 169.4006 58.119578 
L 169.423165 58.200789 
L 169.582221 60.231076 
L 169.654328 61.124402 
L 169.803243 62.098939 
L 169.870217 62.18015 
L 169.980025 62.667419 
L 170.025035 62.748631 
L 170.142381 63.479534 
L 170.166036 63.560745 
L 170.354034 64.129225 
L 170.560439 64.291648 
L 170.771477 64.372859 
L 170.863564 65.022551 
L 171.039368 65.103762 
L 171.141368 65.428608 
L 171.206226 65.50982 
L 171.290746 65.915877 
L 171.469127 65.997088 
L 171.581112 66.159511 
L 171.680604 66.240723 
L 171.80656 66.484357 
L 171.869535 66.565569 
L 171.971017 66.971626 
L 172.050866 67.052837 
L 172.192965 67.540106 
L 172.413645 67.621317 
L 172.503822 67.864952 
L 172.600887 67.946163 
L 172.714639 68.108586 
L 172.866125 68.189798 
L 172.969513 68.514643 
L 173.085287 68.595855 
L 173.238731 69.245546 
L 173.301179 69.326758 
L 173.412841 69.895238 
L 173.439085 69.976449 
L 173.56013 70.382507 
L 173.90493 71.763101 
L 174.023393 71.844313 
L 174.164955 72.412793 
L 174.378775 72.981273 
L 174.515709 73.062484 
L 174.625012 73.38733 
L 174.728216 73.549753 
L 174.901381 74.605502 
L 175.014974 75.173982 
L 175.043089 75.255194 
L 175.204351 75.742462 
L 175.284127 75.823674 
L 175.374589 75.904885 
L 175.987484 75.986097 
L 176.124988 76.148519 
L 176.274735 76.229731 
L 176.391761 76.392154 
L 176.516591 76.473365 
L 176.739852 77.123057 
L 176.782909 77.204268 
L 177.02618 77.610326 
L 177.730603 79.234554 
L 177.850416 79.5594 
L 177.973012 79.721823 
L 178.092497 79.884246 
L 178.244784 79.965458 
L 178.381753 80.209092 
L 178.481118 80.290303 
L 178.584808 80.615149 
L 178.640733 80.696361 
L 179.159228 81.833321 
L 179.278133 82.158167 
L 179.772803 83.051493 
L 180.405719 83.132704 
L 180.69573 83.213915 
L 188.503679 83.295127 
L 189.03123 83.863607 
L 189.613929 84.188453 
L 190.501622 84.269664 
L 190.848316 84.350876 
L 191.328844 84.432087 
L 191.794621 84.756933 
L 192.359952 84.838144 
L 192.573192 84.919356 
L 193.541396 85.569047 
L 193.691318 85.73147 
L 193.83865 85.812682 
L 194.022131 85.893893 
L 194.372768 85.975105 
L 194.468708 86.137528 
L 194.691231 86.218739 
L 194.787938 86.543585 
L 194.905585 86.624796 
L 194.995424 86.706008 
L 195.348622 86.787219 
L 195.48544 86.949642 
L 195.665213 87.030853 
L 195.772357 87.112065 
L 196.338591 87.193276 
L 196.623172 87.436911 
L 197.080463 87.518122 
L 197.473963 87.680545 
L 198.264079 87.761757 
L 198.662397 88.005391 
L 199.278601 88.086602 
L 199.453977 88.249025 
L 199.529461 88.330237 
L 199.75932 88.411448 
L 199.880449 88.655082 
L 200.204505 88.736294 
L 200.267534 88.898717 
L 201.126907 88.979928 
L 201.269976 89.06114 
L 201.590265 89.142351 
L 201.855785 89.385985 
L 202.251443 89.467197 
L 202.375385 89.548408 
L 202.507786 89.62962 
L 204.308351 89.710831 
L 204.422368 89.792043 
L 215.638148 89.873254 
L 216.984937 89.954466 
L 233.258728 90.035677 
L 233.360508 90.116889 
L 240.426109 90.1981 
L 240.522751 90.279311 
L 264.639567 90.360523 
L 266.305687 90.441734 
L 312.422447 90.441734 
L 312.422447 90.441734 
" clip-path="url(#p8c0704aa09)" style="fill: none; stroke: #000000; stroke-width: 1.5; stroke-linecap: square"/>
   </g>
   <g id="patch_3">
    <path d="M 44.103906 96.532593 
L 44.103906 7.2 
" style="fill: none; stroke: #000000; stroke-width: 0.8; stroke-linejoin: miter; stroke-linecap: square"/>
   </g>
   <g id="patch_4">
    <path d="M 325.19952 96.532593 
L 325.19952 7.2 
" style="fill: none; stroke: #000000; stroke-width: 0.8; stroke-linejoin: miter; stroke-linecap: square"/>
   </g>
   <g id="patch_5">
    <path d="M 44.103906 96.532593 
L 325.19952 96.532593 
" style="fill: none; stroke: #000000; stroke-width: 0.8; stroke-linejoin: miter; stroke-linecap: square"/>
   </g>
   <g id="patch_6">
    <path d="M 44.103906 7.2 
L 325.19952 7.2 
" style="fill: none; stroke: #000000; stroke-width: 0.8; stroke-linejoin: miter; stroke-linecap: square"/>
   </g>
  </g>
  <g id="axes_2">
   <g id="patch_7">
    <path d="M 44.103906 195.365666 
L 325.19952 195.365666 
L 325.19952 106.033073 
L 44.103906 106.033073 
z
" style="fill: #ffffff"/>
   </g>
   <g id="matplotlib.axis_3">
    <g id="xtick_10">
     <g id="line2d_14">
      <g>
       <use xlink:href="#m4e83f3ed47" x="56.88098" y="195.365666" style="stroke: #000000; stroke-width: 0.8"/>
      </g>
     </g>
    </g>
    <g id="xtick_11">
     <g id="line2d_15">
      <g>
       <use xlink:href="#m4e83f3ed47" x="88.535573" y="195.365666" style="stroke: #000000; stroke-width: 0.8"/>
      </g>
     </g>
    </g>
    <g id="xtick_12">
     <g id="line2d_16">
      <g>
       <use xlink:href="#m4e83f3ed47" x="120.190166" y="195.365666" style="stroke: #000000; stroke-width: 0.8"/>
      </g>
     </g>
    </g>
    <g id="xtick_13">
     <g id="line2d_17">
      <g>
       <use xlink:href="#m4e83f3ed47" x="151.84476" y="195.365666" style="stroke: #000000; stroke-width: 0.8"/>
      </g>
     </g>
    </g>
    <g id="xtick_14">
     <g id="line2d_18">
      <g>
       <use xlink:href="#m4e83f3ed47" x="183.499353" y="195.365666" style="stroke: #000000; stroke-width: 0.8"/>
      </g>
     </g>
    </g>
    <g id="xtick_15">
     <g id="line2d_19">
      <g>
       <use xlink:href="#m4e83f3ed47" x="215.153947" y="195.365666" style="stroke: #000000; stroke-width: 0.8"/>
      </g>
     </g>
    </g>
    <g id="xtick_16">
     <g id="line2d_20">
      <g>
       <use xlink:href="#m4e83f3ed47" x="246.80854" y="195.365666" style="stroke: #000000; stroke-width: 0.8"/>
      </g>
     </g>
    </g>
    <g id="xtick_17">
     <g id="line2d_21">
      <g>
       <use xlink:href="#m4e83f3ed47" x="278.463133" y="195.365666" style="stroke: #000000; stroke-width: 0.8"/>
      </g>
     </g>
    </g>
    <g id="xtick_18">
     <g id="line2d_22">
      <g>
       <use xlink:href="#m4e83f3ed47" x="310.117727" y="195.365666" style="stroke: #000000; stroke-width: 0.8"/>
      </g>
     </g>
    </g>
   </g>
   <g id="matplotlib.axis_4">
    <g id="ytick_4">
     <g id="line2d_23">
      <g>
       <use xlink:href="#m54551b8718" x="44.103906" y="191.305093" style="stroke: #000000; stroke-width: 0.8"/>
      </g>
     </g>
     <g id="text_5">
      <!-- 0 -->
      <g transform="translate(30.741406 195.103922) scale(0.1 -0.1)">
       <use xlink:href="#DejaVuSans-13"/>
      </g>
     </g>
    </g>
    <g id="ytick_5">
     <g id="line2d_24">
      <g>
       <use xlink:href="#m54551b8718" x="44.103906" y="150.699369" style="stroke: #000000; stroke-width: 0.8"/>
      </g>
     </g>
     <g id="text_6">
      <!-- 5 -->
      <g transform="translate(30.741406 154.498197) scale(0.1 -0.1)">
       <use xlink:href="#DejaVuSans-18"/>
      </g>
     </g>
    </g>
    <g id="ytick_6">
     <g id="line2d_25">
      <g>
       <use xlink:href="#m54551b8718" x="44.103906" y="110.093645" style="stroke: #000000; stroke-width: 0.8"/>
      </g>
     </g>
     <g id="text_7">
      <!-- 10 -->
      <g transform="translate(24.378906 113.892473) scale(0.1 -0.1)">
       <use xlink:href="#DejaVuSans-14"/>
       <use xlink:href="#DejaVuSans-13" transform="translate(63.625 0)"/>
      </g>
     </g>
    </g>
    <g id="text_8">
     <!-- LacY -->
     <g transform="translate(17.976563 162.352494) rotate(-90) scale(0.1 -0.1)">
      <defs>
       <path id="DejaVuSans-2f" d="M 628 4666 
L 1259 4666 
L 1259 531 
L 3531 531 
L 3531 0 
L 628 0 
L 628 4666 
z
" transform="scale(0.015625)"/>
       <path id="DejaVuSans-3c" d="M -13 4666 
L 666 4666 
L 1959 2747 
L 3244 4666 
L 3922 4666 
L 2272 2222 
L 2272 0 
L 1638 0 
L 1638 2222 
L -13 4666 
z
" transform="scale(0.015625)"/>
      </defs>
      <use xlink:href="#DejaVuSans-2f"/>
      <use xlink:href="#DejaVuSans-44" transform="translate(55.71875 0)"/>
      <use xlink:href="#DejaVuSans-46" transform="translate(117 0)"/>
      <use xlink:href="#DejaVuSans-3c" transform="translate(171.984375 0)"/>
     </g>
    </g>
   </g>
   <g id="line2d_26">
    <path d="M 56.88098 110.093645 
L 56.907888 110.093645 
L 56.961941 118.21479 
L 57.069232 134.45708 
L 57.129086 142.578225 
L 57.279962 142.578225 
L 57.297515 134.45708 
L 57.516318 142.578225 
L 57.657036 142.578225 
L 57.826305 158.820514 
L 58.124771 175.062804 
L 58.189859 191.305093 
L 59.707466 191.305093 
L 59.872739 183.183949 
L 59.915135 191.305093 
L 64.89706 191.305093 
L 65.217403 183.183949 
L 65.326467 191.305093 
L 82.68106 191.305093 
L 82.873894 183.183949 
L 84.652697 191.305093 
L 84.667402 183.183949 
L 84.80945 175.062804 
L 84.814067 166.941659 
L 85.133622 175.062804 
L 85.358749 175.062804 
L 85.477414 191.305093 
L 85.537743 183.183949 
L 85.72643 183.183949 
L 85.863796 191.305093 
L 89.724534 191.305093 
L 90.111179 175.062804 
L 90.11247 166.941659 
L 90.607072 166.941659 
L 90.645428 183.183949 
L 91.411325 183.183949 
L 91.578883 175.062804 
L 91.920389 191.305093 
L 108.787994 191.305093 
L 108.892837 183.183949 
L 109.011576 183.183949 
L 109.149544 191.305093 
L 109.382646 191.305093 
L 109.423795 183.183949 
L 109.836394 183.183949 
L 110.183495 175.062804 
L 110.241371 183.183949 
L 110.415223 183.183949 
L 110.444563 191.305093 
L 119.133513 191.305093 
L 119.310501 183.183949 
L 121.39386 183.183949 
L 123.226475 191.305093 
L 130.932042 191.305093 
L 131.116812 183.183949 
L 131.402062 183.183949 
L 131.508973 191.305093 
L 135.809941 191.305093 
L 135.892998 183.183949 
L 135.914688 191.305093 
L 145.827095 191.305093 
L 146.085845 175.062804 
L 146.106509 183.183949 
L 146.135284 175.062804 
L 146.247487 166.941659 
L 146.252785 175.062804 
L 146.832833 175.062804 
L 147.445059 183.183949 
L 147.688422 183.183949 
L 148.001155 175.062804 
L 148.113133 175.062804 
L 149.176446 191.305093 
L 149.632926 191.305093 
L 149.68439 175.062804 
L 149.784456 175.062804 
L 149.936063 183.183949 
L 150.068709 183.183949 
L 150.607262 191.305093 
L 155.684664 191.305093 
L 156.109513 183.183949 
L 156.347879 150.699369 
L 156.627261 150.699369 
L 156.746405 166.941659 
L 156.795874 166.941659 
L 156.895965 158.820514 
L 156.982246 158.820514 
L 157.091173 175.062804 
L 157.119148 175.062804 
L 157.207102 183.183949 
L 157.556059 183.183949 
L 157.648945 191.305093 
L 158.045435 191.305093 
L 158.163413 183.183949 
L 158.310833 183.183949 
L 158.414108 175.062804 
L 158.55892 175.062804 
L 158.613957 183.183949 
L 158.668015 175.062804 
L 158.773382 175.062804 
L 158.885113 166.941659 
L 159.035592 166.941659 
L 159.15951 183.183949 
L 159.292639 183.183949 
L 159.414734 175.062804 
L 159.562645 175.062804 
L 159.689606 158.820514 
L 159.865322 158.820514 
L 159.933509 150.699369 
L 159.975695 158.820514 
L 160.059071 158.820514 
L 160.109223 150.699369 
L 160.161414 158.820514 
L 160.328738 158.820514 
L 160.436973 175.062804 
L 160.46569 175.062804 
L 160.495973 183.183949 
L 160.504286 166.941659 
L 160.571751 166.941659 
L 160.804973 166.941659 
L 160.916142 175.062804 
L 161.201168 175.062804 
L 161.300467 183.183949 
L 161.399539 183.183949 
L 161.509385 191.305093 
L 161.780309 191.305093 
L 161.927946 183.183949 
L 162.050516 183.183949 
L 162.164827 175.062804 
L 162.201746 175.062804 
L 162.310021 183.183949 
L 162.551634 183.183949 
L 162.604232 175.062804 
L 162.656979 183.183949 
L 162.995574 183.183949 
L 163.083497 175.062804 
L 163.099087 183.183949 
L 163.179385 183.183949 
L 163.287702 175.062804 
L 163.466433 175.062804 
L 163.547053 183.183949 
L 163.639269 183.183949 
L 163.799019 175.062804 
L 163.864563 175.062804 
L 163.996054 183.183949 
L 164.081712 183.183949 
L 164.16992 175.062804 
L 164.401273 175.062804 
L 164.51869 166.941659 
L 164.555731 166.941659 
L 164.664402 183.183949 
L 165.255223 183.183949 
L 165.369784 175.062804 
L 165.661946 175.062804 
L 165.795431 183.183949 
L 165.916913 183.183949 
L 166.182073 158.820514 
L 166.294949 166.941659 
L 166.313432 166.941659 
L 166.422723 175.062804 
L 166.486443 175.062804 
L 166.59255 183.183949 
L 166.94368 183.183949 
L 167.114247 166.941659 
L 167.324042 166.941659 
L 167.441596 175.062804 
L 167.772286 175.062804 
L 167.848104 183.183949 
L 167.880742 175.062804 
L 168.066591 175.062804 
L 168.172849 183.183949 
L 168.453747 183.183949 
L 168.564261 166.941659 
L 168.617497 166.941659 
L 168.729015 150.699369 
L 169.077033 150.699369 
L 169.119546 158.820514 
L 169.182038 150.699369 
L 169.27479 126.335935 
L 169.307084 134.45708 
L 169.311434 134.45708 
L 169.423165 126.335935 
L 169.486369 126.335935 
L 169.582221 118.21479 
L 169.644723 118.21479 
L 169.761383 134.45708 
L 169.767216 134.45708 
L 169.886003 142.578225 
L 169.922583 142.578225 
L 169.960485 158.820514 
L 170.034562 150.699369 
L 170.114219 142.578225 
L 170.142381 150.699369 
L 170.179843 150.699369 
L 170.291346 166.941659 
L 170.299179 166.941659 
L 170.401741 175.062804 
L 170.537274 191.305093 
L 170.557072 191.305093 
L 170.625758 183.183949 
L 170.696559 183.183949 
L 170.836731 158.820514 
L 170.92405 158.820514 
L 171.040632 166.941659 
L 171.172354 166.941659 
L 171.235089 175.062804 
L 171.275273 166.941659 
L 171.290746 166.941659 
L 171.528978 183.183949 
L 171.604783 183.183949 
L 171.729141 166.941659 
L 171.769846 166.941659 
L 171.876198 175.062804 
L 172.293966 175.062804 
L 172.452247 166.941659 
L 172.463712 166.941659 
L 172.568938 175.062804 
L 172.614545 175.062804 
L 172.714639 183.183949 
L 172.77663 183.183949 
L 172.900952 175.062804 
L 172.921009 175.062804 
L 172.950815 183.183949 
L 172.969513 166.941659 
L 173.150876 166.941659 
L 173.238731 158.820514 
L 173.468179 158.820514 
L 173.600356 166.941659 
L 173.617347 166.941659 
L 173.716122 158.820514 
L 173.897085 158.820514 
L 174.009677 166.941659 
L 174.061591 166.941659 
L 174.196374 158.820514 
L 174.254953 158.820514 
L 174.376167 175.062804 
L 174.396055 175.062804 
L 174.515709 150.699369 
L 174.613739 150.699369 
L 174.616893 142.578225 
L 174.722776 150.699369 
L 174.748865 150.699369 
L 174.865857 142.578225 
L 174.90239 142.578225 
L 175.006123 150.699369 
L 175.009365 142.578225 
L 175.035915 142.578225 
L 175.145923 158.820514 
L 175.187788 158.820514 
L 175.295556 166.941659 
L 175.580045 191.305093 
L 175.690263 183.183949 
L 175.798151 183.183949 
L 175.892292 175.062804 
L 176.124988 175.062804 
L 176.223857 150.699369 
L 176.235348 158.820514 
L 176.305024 158.820514 
L 176.408743 175.062804 
L 176.449677 166.941659 
L 176.466877 166.941659 
L 176.488746 175.062804 
L 176.560845 166.941659 
L 176.739852 166.941659 
L 176.861531 158.820514 
L 176.925442 158.820514 
L 177.02618 150.699369 
L 177.06687 150.699369 
L 177.135887 142.578225 
L 177.171987 150.699369 
L 177.281933 142.578225 
L 177.33928 142.578225 
L 177.451326 150.699369 
L 177.531629 150.699369 
L 177.591969 158.820514 
L 177.62909 150.699369 
L 177.857778 150.699369 
L 177.962974 166.941659 
L 177.973012 158.820514 
L 178.170325 158.820514 
L 178.260313 150.699369 
L 178.281031 158.820514 
L 178.311944 158.820514 
L 178.381753 142.578225 
L 178.483165 142.578225 
L 178.507007 134.45708 
L 178.584808 142.578225 
L 178.711388 142.578225 
L 178.823528 134.45708 
L 178.910506 134.45708 
L 178.992348 126.335935 
L 179.057665 134.45708 
L 179.073167 126.335935 
L 179.40448 126.335935 
L 179.622552 158.820514 
L 179.698047 158.820514 
L 179.772803 166.941659 
L 179.981749 166.941659 
L 180.074504 175.062804 
L 180.333856 175.062804 
L 180.405719 183.183949 
L 180.548946 183.183949 
L 180.66622 191.305093 
L 188.281009 191.305093 
L 188.320682 175.062804 
L 188.438421 166.941659 
L 188.562351 175.062804 
L 188.635004 166.941659 
L 188.974847 166.941659 
L 189.136006 175.062804 
L 189.515116 175.062804 
L 189.633112 183.183949 
L 189.858906 191.305093 
L 190.391761 191.305093 
L 190.501622 183.183949 
L 190.698171 183.183949 
L 190.848316 175.062804 
L 191.274867 175.062804 
L 191.407842 183.183949 
L 191.641243 183.183949 
L 191.718902 166.941659 
L 191.794621 166.941659 
L 191.95771 183.183949 
L 192.101833 175.062804 
L 192.283818 166.941659 
L 192.442883 175.062804 
L 193.016825 175.062804 
L 193.089347 158.820514 
L 193.208271 158.820514 
L 193.322514 150.699369 
L 193.391099 158.820514 
L 193.484222 158.820514 
L 193.578508 166.941659 
L 193.594141 158.820514 
L 193.622723 158.820514 
L 193.691318 166.941659 
L 193.83865 175.062804 
L 193.936725 175.062804 
L 193.960831 166.941659 
L 194.022131 175.062804 
L 194.330683 183.183949 
L 194.468708 142.578225 
L 194.598755 142.578225 
L 194.628885 150.699369 
L 194.640282 142.578225 
L 194.787938 134.45708 
L 194.905585 142.578225 
L 194.995424 142.578225 
L 195.137116 150.699369 
L 195.148173 158.820514 
L 195.372407 150.699369 
L 195.458711 150.699369 
L 195.545478 175.062804 
L 195.772357 175.062804 
L 195.881093 183.183949 
L 195.983857 166.941659 
L 196.623172 166.941659 
L 196.753357 175.062804 
L 196.812156 175.062804 
L 196.930241 183.183949 
L 197.013151 175.062804 
L 197.080463 183.183949 
L 197.194537 183.183949 
L 197.244361 175.062804 
L 197.377169 175.062804 
L 197.542693 191.305093 
L 198.224879 191.305093 
L 198.351022 183.183949 
L 198.572907 183.183949 
L 198.649074 191.305093 
L 198.662397 183.183949 
L 198.84136 183.183949 
L 198.857096 166.941659 
L 198.974564 175.062804 
L 199.195758 175.062804 
L 199.278601 166.941659 
L 199.461298 166.941659 
L 199.529461 150.699369 
L 199.739477 150.699369 
L 199.792997 158.820514 
L 199.805539 150.699369 
L 199.956534 150.699369 
L 200.04716 166.941659 
L 200.103406 158.820514 
L 200.157491 166.941659 
L 200.267534 166.941659 
L 200.410063 175.062804 
L 200.883505 175.062804 
L 200.912905 183.183949 
L 200.962534 166.941659 
L 200.963592 166.941659 
L 201.067629 158.820514 
L 201.197951 166.941659 
L 201.269976 166.941659 
L 201.391942 150.699369 
L 201.637091 142.578225 
L 201.68692 142.578225 
L 201.749676 126.335935 
L 201.819847 126.335935 
L 201.855785 118.21479 
L 201.91637 134.45708 
L 201.925972 134.45708 
L 201.999319 118.21479 
L 202.064361 126.335935 
L 202.126389 134.45708 
L 202.234821 134.45708 
L 202.336579 150.699369 
L 202.507786 166.941659 
L 202.582414 166.941659 
L 202.932585 183.183949 
L 203.048762 175.062804 
L 203.120644 183.183949 
L 203.235777 175.062804 
L 203.330354 191.305093 
L 203.335327 183.183949 
L 203.448711 175.062804 
L 203.719819 175.062804 
L 203.727747 183.183949 
L 203.968883 183.183949 
L 204.14271 175.062804 
L 204.374296 175.062804 
L 204.422368 183.183949 
L 204.685862 191.305093 
L 204.839826 175.062804 
L 205.237116 175.062804 
L 205.434618 183.183949 
L 206.091157 191.305093 
L 212.257168 191.305093 
L 212.796144 183.183949 
L 212.971754 175.062804 
L 213.164659 183.183949 
L 213.293512 183.183949 
L 213.426162 191.305093 
L 215.479592 191.305093 
L 215.638148 183.183949 
L 216.233377 183.183949 
L 216.272525 191.305093 
L 232.270593 191.305093 
L 232.470598 183.183949 
L 232.634718 191.305093 
L 232.786524 183.183949 
L 232.926354 175.062804 
L 233.274707 175.062804 
L 233.360508 183.183949 
L 233.657897 191.305093 
L 239.178305 191.305093 
L 239.46055 166.941659 
L 239.668513 175.062804 
L 239.959384 166.941659 
L 240.4652 166.941659 
L 240.619443 191.305093 
L 241.192733 191.305093 
L 241.226191 183.183949 
L 241.713972 183.183949 
L 242.957042 191.305093 
L 248.31369 191.305093 
L 248.446229 183.183949 
L 248.479502 191.305093 
L 261.20998 191.305093 
L 261.653488 183.183949 
L 261.747929 191.305093 
L 263.847072 191.305093 
L 264.476483 183.183949 
L 265.541052 183.183949 
L 266.305687 191.305093 
L 270.666504 191.305093 
L 270.719142 183.183949 
L 270.850359 191.305093 
L 288.535417 191.305093 
L 288.561375 183.183949 
L 288.672638 191.305093 
L 288.810432 191.305093 
L 288.897003 183.183949 
L 289.255573 183.183949 
L 289.502843 191.305093 
L 301.856424 191.305093 
L 302.018039 175.062804 
L 302.299949 166.941659 
L 302.350946 158.820514 
L 302.354839 166.941659 
L 302.417038 166.941659 
L 302.418624 175.062804 
L 302.498916 166.941659 
L 302.6654 166.941659 
L 302.785071 175.062804 
L 303.652148 191.305093 
L 304.895912 191.305093 
L 305.19941 183.183949 
L 305.344774 183.183949 
L 305.429232 191.305093 
L 312.422447 191.305093 
L 312.422447 191.305093 
" clip-path="url(#p3be58ed75f)" style="fill: none; stroke: #000000; stroke-width: 1.5; stroke-linecap: square"/>
   </g>
   <g id="patch_8">
    <path d="M 44.103906 195.365666 
L 44.103906 106.033073 
" style="fill: none; stroke: #000000; stroke-width: 0.8; stroke-linejoin: miter; stroke-linecap: square"/>
   </g>
   <g id="patch_9">
    <path d="M 325.19952 195.365666 
L 325.19952 106.033073 
" style="fill: none; stroke: #000000; stroke-width: 0.8; stroke-linejoin: miter; stroke-linecap: square"/>
   </g>
   <g id="patch_10">
    <path d="M 44.103906 195.365666 
L 325.19952 195.365666 
" style="fill: none; stroke: #000000; stroke-width: 0.8; stroke-linejoin: miter; stroke-linecap: square"/>
   </g>
   <g id="patch_11">
    <path d="M 44.103906 106.033073 
L 325.19952 106.033073 
" style="fill: none; stroke: #000000; stroke-width: 0.8; stroke-linejoin: miter; stroke-linecap: square"/>
   </g>
  </g>
  <g id="axes_3">
   <g id="patch_12">
    <path d="M 44.103906 294.198739 
L 325.19952 294.198739 
L 325.19952 204.866146 
L 44.103906 204.866146 
z
" style="fill: #ffffff"/>
   </g>
   <g id="matplotlib.axis_5">
    <g id="xtick_19">
     <g id="line2d_27">
      <g>
       <use xlink:href="#m4e83f3ed47" x="56.88098" y="294.198739" style="stroke: #000000; stroke-width: 0.8"/>
      </g>
     </g>
     <g id="text_9">
      <!-- 0 -->
      <g transform="translate(53.69973 308.796395) scale(0.1 -0.1)">
       <use xlink:href="#DejaVuSans-13"/>
      </g>
     </g>
    </g>
    <g id="xtick_20">
     <g id="line2d_28">
      <g>
       <use xlink:href="#m4e83f3ed47" x="88.535573" y="294.198739" style="stroke: #000000; stroke-width: 0.8"/>
      </g>
     </g>
     <g id="text_10">
      <!-- 100 -->
      <g transform="translate(78.991823 308.796395) scale(0.1 -0.1)">
       <use xlink:href="#DejaVuSans-14"/>
       <use xlink:href="#DejaVuSans-13" transform="translate(63.625 0)"/>
       <use xlink:href="#DejaVuSans-13" transform="translate(127.25 0)"/>
      </g>
     </g>
    </g>
    <g id="xtick_21">
     <g id="line2d_29">
      <g>
       <use xlink:href="#m4e83f3ed47" x="120.190166" y="294.198739" style="stroke: #000000; stroke-width: 0.8"/>
      </g>
     </g>
     <g id="text_11">
      <!-- 200 -->
      <g transform="translate(110.646416 308.796395) scale(0.1 -0.1)">
       <defs>
        <path id="DejaVuSans-15" d="M 1228 531 
L 3431 531 
L 3431 0 
L 469 0 
L 469 531 
Q 828 903 1448 1529 
Q 2069 2156 2228 2338 
Q 2531 2678 2651 2914 
Q 2772 3150 2772 3378 
Q 2772 3750 2511 3984 
Q 2250 4219 1831 4219 
Q 1534 4219 1204 4116 
Q 875 4013 500 3803 
L 500 4441 
Q 881 4594 1212 4672 
Q 1544 4750 1819 4750 
Q 2544 4750 2975 4387 
Q 3406 4025 3406 3419 
Q 3406 3131 3298 2873 
Q 3191 2616 2906 2266 
Q 2828 2175 2409 1742 
Q 1991 1309 1228 531 
z
" transform="scale(0.015625)"/>
       </defs>
       <use xlink:href="#DejaVuSans-15"/>
       <use xlink:href="#DejaVuSans-13" transform="translate(63.625 0)"/>
       <use xlink:href="#DejaVuSans-13" transform="translate(127.25 0)"/>
      </g>
     </g>
    </g>
    <g id="xtick_22">
     <g id="line2d_30">
      <g>
       <use xlink:href="#m4e83f3ed47" x="151.84476" y="294.198739" style="stroke: #000000; stroke-width: 0.8"/>
      </g>
     </g>
     <g id="text_12">
      <!-- 300 -->
      <g transform="translate(142.30101 308.796395) scale(0.1 -0.1)">
       <defs>
        <path id="DejaVuSans-16" d="M 2597 2516 
Q 3050 2419 3304 2112 
Q 3559 1806 3559 1356 
Q 3559 666 3084 287 
Q 2609 -91 1734 -91 
Q 1441 -91 1130 -33 
Q 819 25 488 141 
L 488 750 
Q 750 597 1062 519 
Q 1375 441 1716 441 
Q 2309 441 2620 675 
Q 2931 909 2931 1356 
Q 2931 1769 2642 2001 
Q 2353 2234 1838 2234 
L 1294 2234 
L 1294 2753 
L 1863 2753 
Q 2328 2753 2575 2939 
Q 2822 3125 2822 3475 
Q 2822 3834 2567 4026 
Q 2313 4219 1838 4219 
Q 1578 4219 1281 4162 
Q 984 4106 628 3988 
L 628 4550 
Q 988 4650 1302 4700 
Q 1616 4750 1894 4750 
Q 2613 4750 3031 4423 
Q 3450 4097 3450 3541 
Q 3450 3153 3228 2886 
Q 3006 2619 2597 2516 
z
" transform="scale(0.015625)"/>
       </defs>
       <use xlink:href="#DejaVuSans-16"/>
       <use xlink:href="#DejaVuSans-13" transform="translate(63.625 0)"/>
       <use xlink:href="#DejaVuSans-13" transform="translate(127.25 0)"/>
      </g>
     </g>
    </g>
    <g id="xtick_23">
     <g id="line2d_31">
      <g>
       <use xlink:href="#m4e83f3ed47" x="183.499353" y="294.198739" style="stroke: #000000; stroke-width: 0.8"/>
      </g>
     </g>
     <g id="text_13">
      <!-- 400 -->
      <g transform="translate(173.955603 308.796395) scale(0.1 -0.1)">
       <defs>
        <path id="DejaVuSans-17" d="M 2419 4116 
L 825 1625 
L 2419 1625 
L 2419 4116 
z
M 2253 4666 
L 3047 4666 
L 3047 1625 
L 3713 1625 
L 3713 1100 
L 3047 1100 
L 3047 0 
L 2419 0 
L 2419 1100 
L 313 1100 
L 313 1709 
L 2253 4666 
z
" transform="scale(0.015625)"/>
       </defs>
       <use xlink:href="#DejaVuSans-17"/>
       <use xlink:href="#DejaVuSans-13" transform="translate(63.625 0)"/>
       <use xlink:href="#DejaVuSans-13" transform="translate(127.25 0)"/>
      </g>
     </g>
    </g>
    <g id="xtick_24">
     <g id="line2d_32">
      <g>
       <use xlink:href="#m4e83f3ed47" x="215.153947" y="294.198739" style="stroke: #000000; stroke-width: 0.8"/>
      </g>
     </g>
     <g id="text_14">
      <!-- 500 -->
      <g transform="translate(205.610197 308.796395) scale(0.1 -0.1)">
       <use xlink:href="#DejaVuSans-18"/>
       <use xlink:href="#DejaVuSans-13" transform="translate(63.625 0)"/>
       <use xlink:href="#DejaVuSans-13" transform="translate(127.25 0)"/>
      </g>
     </g>
    </g>
    <g id="xtick_25">
     <g id="line2d_33">
      <g>
       <use xlink:href="#m4e83f3ed47" x="246.80854" y="294.198739" style="stroke: #000000; stroke-width: 0.8"/>
      </g>
     </g>
     <g id="text_15">
      <!-- 600 -->
      <g transform="translate(237.26479 308.796395) scale(0.1 -0.1)">
       <defs>
        <path id="DejaVuSans-19" d="M 2113 2584 
Q 1688 2584 1439 2293 
Q 1191 2003 1191 1497 
Q 1191 994 1439 701 
Q 1688 409 2113 409 
Q 2538 409 2786 701 
Q 3034 994 3034 1497 
Q 3034 2003 2786 2293 
Q 2538 2584 2113 2584 
z
M 3366 4563 
L 3366 3988 
Q 3128 4100 2886 4159 
Q 2644 4219 2406 4219 
Q 1781 4219 1451 3797 
Q 1122 3375 1075 2522 
Q 1259 2794 1537 2939 
Q 1816 3084 2150 3084 
Q 2853 3084 3261 2657 
Q 3669 2231 3669 1497 
Q 3669 778 3244 343 
Q 2819 -91 2113 -91 
Q 1303 -91 875 529 
Q 447 1150 447 2328 
Q 447 3434 972 4092 
Q 1497 4750 2381 4750 
Q 2619 4750 2861 4703 
Q 3103 4656 3366 4563 
z
" transform="scale(0.015625)"/>
       </defs>
       <use xlink:href="#DejaVuSans-19"/>
       <use xlink:href="#DejaVuSans-13" transform="translate(63.625 0)"/>
       <use xlink:href="#DejaVuSans-13" transform="translate(127.25 0)"/>
      </g>
     </g>
    </g>
    <g id="xtick_26">
     <g id="line2d_34">
      <g>
       <use xlink:href="#m4e83f3ed47" x="278.463133" y="294.198739" style="stroke: #000000; stroke-width: 0.8"/>
      </g>
     </g>
     <g id="text_16">
      <!-- 700 -->
      <g transform="translate(268.919383 308.796395) scale(0.1 -0.1)">
       <defs>
        <path id="DejaVuSans-1a" d="M 525 4666 
L 3525 4666 
L 3525 4397 
L 1831 0 
L 1172 0 
L 2766 4134 
L 525 4134 
L 525 4666 
z
" transform="scale(0.015625)"/>
       </defs>
       <use xlink:href="#DejaVuSans-1a"/>
       <use xlink:href="#DejaVuSans-13" transform="translate(63.625 0)"/>
       <use xlink:href="#DejaVuSans-13" transform="translate(127.25 0)"/>
      </g>
     </g>
    </g>
    <g id="xtick_27">
     <g id="line2d_35">
      <g>
       <use xlink:href="#m4e83f3ed47" x="310.117727" y="294.198739" style="stroke: #000000; stroke-width: 0.8"/>
      </g>
     </g>
     <g id="text_17">
      <!-- 800 -->
      <g transform="translate(300.573977 308.796395) scale(0.1 -0.1)">
       <defs>
        <path id="DejaVuSans-1b" d="M 2034 2216 
Q 1584 2216 1326 1975 
Q 1069 1734 1069 1313 
Q 1069 891 1326 650 
Q 1584 409 2034 409 
Q 2484 409 2743 651 
Q 3003 894 3003 1313 
Q 3003 1734 2745 1975 
Q 2488 2216 2034 2216 
z
M 1403 2484 
Q 997 2584 770 2862 
Q 544 3141 544 3541 
Q 544 4100 942 4425 
Q 1341 4750 2034 4750 
Q 2731 4750 3128 4425 
Q 3525 4100 3525 3541 
Q 3525 3141 3298 2862 
Q 3072 2584 2669 2484 
Q 3125 2378 3379 2068 
Q 3634 1759 3634 1313 
Q 3634 634 3220 271 
Q 2806 -91 2034 -91 
Q 1263 -91 848 271 
Q 434 634 434 1313 
Q 434 1759 690 2068 
Q 947 2378 1403 2484 
z
M 1172 3481 
Q 1172 3119 1398 2916 
Q 1625 2713 2034 2713 
Q 2441 2713 2670 2916 
Q 2900 3119 2900 3481 
Q 2900 3844 2670 4047 
Q 2441 4250 2034 4250 
Q 1625 4250 1398 4047 
Q 1172 3844 1172 3481 
z
" transform="scale(0.015625)"/>
       </defs>
       <use xlink:href="#DejaVuSans-1b"/>
       <use xlink:href="#DejaVuSans-13" transform="translate(63.625 0)"/>
       <use xlink:href="#DejaVuSans-13" transform="translate(127.25 0)"/>
      </g>
     </g>
    </g>
    <g id="text_18">
     <!-- Time -->
     <g transform="translate(172.415776 322.797176) scale(0.1 -0.1)">
      <defs>
       <path id="DejaVuSans-37" d="M -19 4666 
L 3928 4666 
L 3928 4134 
L 2272 4134 
L 2272 0 
L 1638 0 
L 1638 4134 
L -19 4134 
L -19 4666 
z
" transform="scale(0.015625)"/>
       <path id="DejaVuSans-4c" d="M 603 3500 
L 1178 3500 
L 1178 0 
L 603 0 
L 603 3500 
z
M 603 4863 
L 1178 4863 
L 1178 4134 
L 603 4134 
L 603 4863 
z
" transform="scale(0.015625)"/>
       <path id="DejaVuSans-50" d="M 3328 2828 
Q 3544 3216 3844 3400 
Q 4144 3584 4550 3584 
Q 5097 3584 5394 3201 
Q 5691 2819 5691 2113 
L 5691 0 
L 5113 0 
L 5113 2094 
Q 5113 2597 4934 2840 
Q 4756 3084 4391 3084 
Q 3944 3084 3684 2787 
Q 3425 2491 3425 1978 
L 3425 0 
L 2847 0 
L 2847 2094 
Q 2847 2600 2669 2842 
Q 2491 3084 2119 3084 
Q 1678 3084 1418 2786 
Q 1159 2488 1159 1978 
L 1159 0 
L 581 0 
L 581 3500 
L 1159 3500 
L 1159 2956 
Q 1356 3278 1631 3431 
Q 1906 3584 2284 3584 
Q 2666 3584 2933 3390 
Q 3200 3197 3328 2828 
z
" transform="scale(0.015625)"/>
      </defs>
      <use xlink:href="#DejaVuSans-37"/>
      <use xlink:href="#DejaVuSans-4c" transform="translate(58 0)"/>
      <use xlink:href="#DejaVuSans-50" transform="translate(85.78125 0)"/>
      <use xlink:href="#DejaVuSans-48" transform="translate(183.1875 0)"/>
     </g>
    </g>
   </g>
   <g id="matplotlib.axis_6">
    <g id="ytick_7">
     <g id="line2d_36">
      <g>
       <use xlink:href="#m54551b8718" x="44.103906" y="290.138166" style="stroke: #000000; stroke-width: 0.8"/>
      </g>
     </g>
     <g id="text_19">
      <!-- 0.0 -->
      <g transform="translate(21.200781 293.936994) scale(0.1 -0.1)">
       <defs>
        <path id="DejaVuSans-11" d="M 684 794 
L 1344 794 
L 1344 0 
L 684 0 
L 684 794 
z
" transform="scale(0.015625)"/>
       </defs>
       <use xlink:href="#DejaVuSans-13"/>
       <use xlink:href="#DejaVuSans-11" transform="translate(63.625 0)"/>
       <use xlink:href="#DejaVuSans-13" transform="translate(95.40625 0)"/>
      </g>
     </g>
    </g>
    <g id="ytick_8">
     <g id="line2d_37">
      <g>
       <use xlink:href="#m54551b8718" x="44.103906" y="249.532442" style="stroke: #000000; stroke-width: 0.8"/>
      </g>
     </g>
     <g id="text_20">
      <!-- 0.5 -->
      <g transform="translate(21.200781 253.33127) scale(0.1 -0.1)">
       <use xlink:href="#DejaVuSans-13"/>
       <use xlink:href="#DejaVuSans-11" transform="translate(63.625 0)"/>
       <use xlink:href="#DejaVuSans-18" transform="translate(95.40625 0)"/>
      </g>
     </g>
    </g>
    <g id="ytick_9">
     <g id="line2d_38">
      <g>
       <use xlink:href="#m54551b8718" x="44.103906" y="208.926718" style="stroke: #000000; stroke-width: 0.8"/>
      </g>
     </g>
     <g id="text_21">
      <!-- 1.0 -->
      <g transform="translate(21.200781 212.725546) scale(0.1 -0.1)">
       <use xlink:href="#DejaVuSans-14"/>
       <use xlink:href="#DejaVuSans-11" transform="translate(63.625 0)"/>
       <use xlink:href="#DejaVuSans-13" transform="translate(95.40625 0)"/>
      </g>
     </g>
    </g>
    <g id="text_22">
     <!-- Free lac operon -->
     <g transform="translate(14.798438 288.006661) rotate(-90) scale(0.1 -0.1)">
      <defs>
       <path id="DejaVuSans-29" d="M 628 4666 
L 3309 4666 
L 3309 4134 
L 1259 4134 
L 1259 2759 
L 3109 2759 
L 3109 2228 
L 1259 2228 
L 1259 0 
L 628 0 
L 628 4666 
z
" transform="scale(0.015625)"/>
       <path id="DejaVuSans-53" d="M 1159 525 
L 1159 -1331 
L 581 -1331 
L 581 3500 
L 1159 3500 
L 1159 2969 
Q 1341 3281 1617 3432 
Q 1894 3584 2278 3584 
Q 2916 3584 3314 3078 
Q 3713 2572 3713 1747 
Q 3713 922 3314 415 
Q 2916 -91 2278 -91 
Q 1894 -91 1617 61 
Q 1341 213 1159 525 
z
M 3116 1747 
Q 3116 2381 2855 2742 
Q 2594 3103 2138 3103 
Q 1681 3103 1420 2742 
Q 1159 2381 1159 1747 
Q 1159 1113 1420 752 
Q 1681 391 2138 391 
Q 2594 391 2855 752 
Q 3116 1113 3116 1747 
z
" transform="scale(0.015625)"/>
       <path id="DejaVuSans-51" d="M 3513 2113 
L 3513 0 
L 2938 0 
L 2938 2094 
Q 2938 2591 2744 2837 
Q 2550 3084 2163 3084 
Q 1697 3084 1428 2787 
Q 1159 2491 1159 1978 
L 1159 0 
L 581 0 
L 581 3500 
L 1159 3500 
L 1159 2956 
Q 1366 3272 1645 3428 
Q 1925 3584 2291 3584 
Q 2894 3584 3203 3211 
Q 3513 2838 3513 2113 
z
" transform="scale(0.015625)"/>
      </defs>
      <use xlink:href="#DejaVuSans-29"/>
      <use xlink:href="#DejaVuSans-55" transform="translate(50.234375 0)"/>
      <use xlink:href="#DejaVuSans-48" transform="translate(89.140625 0)"/>
      <use xlink:href="#DejaVuSans-48" transform="translate(150.671875 0)"/>
      <use xlink:href="#DejaVuSans-3" transform="translate(212.203125 0)"/>
      <use xlink:href="#DejaVuSans-4f" transform="translate(243.984375 0)"/>
      <use xlink:href="#DejaVuSans-44" transform="translate(271.765625 0)"/>
      <use xlink:href="#DejaVuSans-46" transform="translate(333.046875 0)"/>
      <use xlink:href="#DejaVuSans-3" transform="translate(388.03125 0)"/>
      <use xlink:href="#DejaVuSans-52" transform="translate(419.8125 0)"/>
      <use xlink:href="#DejaVuSans-53" transform="translate(481 0)"/>
      <use xlink:href="#DejaVuSans-48" transform="translate(544.484375 0)"/>
      <use xlink:href="#DejaVuSans-55" transform="translate(606.015625 0)"/>
      <use xlink:href="#DejaVuSans-52" transform="translate(644.921875 0)"/>
      <use xlink:href="#DejaVuSans-51" transform="translate(706.109375 0)"/>
     </g>
    </g>
   </g>
   <g id="line2d_39">
    <path d="M 56.88098 208.926718 
L 56.961941 290.138166 
L 57.129086 290.138166 
L 57.297515 208.926718 
L 57.41488 208.926718 
L 57.516318 290.138166 
L 58.72434 290.138166 
L 59.707466 208.926718 
L 59.892544 208.926718 
L 59.915135 290.138166 
L 62.320148 290.138166 
L 64.89706 208.926718 
L 65.189955 208.926718 
L 65.326467 290.138166 
L 65.451485 290.138166 
L 72.068697 208.926718 
L 72.237334 290.138166 
L 80.023717 208.926718 
L 80.072421 290.138166 
L 82.68106 208.926718 
L 82.820099 208.926718 
L 82.873894 290.138166 
L 84.602413 290.138166 
L 84.667402 208.926718 
L 85.537743 208.926718 
L 85.72643 290.138166 
L 86.752258 290.138166 
L 89.724534 208.926718 
L 90.260871 208.926718 
L 90.289952 290.138166 
L 90.645428 290.138166 
L 91.520833 208.926718 
L 91.578883 290.138166 
L 91.920389 290.138166 
L 108.879228 208.926718 
L 108.892837 290.138166 
L 109.149544 290.138166 
L 109.423795 208.926718 
L 109.709196 290.138166 
L 109.836394 208.926718 
L 110.241371 208.926718 
L 110.444563 290.138166 
L 110.735213 290.138166 
L 114.869038 208.926718 
L 115.525166 290.138166 
L 117.156023 208.926718 
L 117.469108 290.138166 
L 118.136954 208.926718 
L 118.223683 290.138166 
L 119.22617 208.926718 
L 119.310501 290.138166 
L 123.226475 290.138166 
L 129.204326 208.926718 
L 129.309552 290.138166 
L 131.039956 208.926718 
L 131.487678 208.926718 
L 131.508973 290.138166 
L 133.336728 290.138166 
L 135.914688 208.926718 
L 135.927904 290.138166 
L 138.789337 208.926718 
L 138.831777 290.138166 
L 145.827095 208.926718 
L 146.764985 208.926718 
L 146.832833 290.138166 
L 147.445059 290.138166 
L 147.688422 208.926718 
L 148.001155 208.926718 
L 148.113133 290.138166 
L 149.176446 290.138166 
L 149.68439 208.926718 
L 149.784456 290.138166 
L 150.89791 290.138166 
L 150.909154 208.926718 
L 151.06959 290.138166 
L 155.348718 208.926718 
L 155.437045 290.138166 
L 155.684664 208.926718 
L 179.270137 208.926718 
L 179.370573 290.138166 
L 186.909672 290.138166 
L 188.320682 208.926718 
L 188.905157 208.926718 
L 189.03123 290.138166 
L 189.858906 290.138166 
L 190.501622 208.926718 
L 204.930193 208.926718 
L 205.050639 290.138166 
L 206.80494 290.138166 
L 212.257168 208.926718 
L 213.164659 208.926718 
L 213.293512 290.138166 
L 214.341748 290.138166 
L 215.224196 208.926718 
L 215.605025 208.926718 
L 215.638148 290.138166 
L 216.984937 290.138166 
L 223.682523 208.926718 
L 223.76504 290.138166 
L 230.137866 208.926718 
L 230.584465 290.138166 
L 232.270593 208.926718 
L 232.926354 208.926718 
L 232.97395 290.138166 
L 234.198056 290.138166 
L 239.281307 208.926718 
L 239.959384 208.926718 
L 240.224108 290.138166 
L 240.793429 290.138166 
L 241.226191 208.926718 
L 241.373701 290.138166 
L 243.553566 290.138166 
L 245.215857 208.926718 
L 245.270107 290.138166 
L 248.386727 208.926718 
L 248.479502 290.138166 
L 249.102561 290.138166 
L 253.057627 208.926718 
L 253.268478 290.138166 
L 253.585433 208.926718 
L 253.649495 290.138166 
L 261.20998 208.926718 
L 261.742032 208.926718 
L 261.747929 290.138166 
L 262.257929 290.138166 
L 263.847072 208.926718 
L 264.392136 208.926718 
L 264.476483 290.138166 
L 265.478907 290.138166 
L 265.535853 208.926718 
L 265.541052 290.138166 
L 266.305687 290.138166 
L 270.719142 208.926718 
L 270.811589 208.926718 
L 270.850359 290.138166 
L 272.027838 290.138166 
L 288.561375 208.926718 
L 288.665713 208.926718 
L 288.672638 290.138166 
L 288.897003 208.926718 
L 289.255573 290.138166 
L 289.502843 290.138166 
L 295.421472 208.926718 
L 295.442363 290.138166 
L 301.916616 208.926718 
L 302.548046 208.926718 
L 302.6654 290.138166 
L 303.652148 290.138166 
L 304.895912 208.926718 
L 305.105696 208.926718 
L 305.19941 290.138166 
L 305.353217 208.926718 
L 305.429232 290.138166 
L 306.049751 208.926718 
L 306.367295 290.138166 
L 312.422447 208.926718 
L 312.422447 208.926718 
" clip-path="url(#p18f881aecb)" style="fill: none; stroke: #000000; stroke-width: 1.5; stroke-linecap: square"/>
   </g>
   <g id="patch_13">
    <path d="M 44.103906 294.198739 
L 44.103906 204.866146 
" style="fill: none; stroke: #000000; stroke-width: 0.8; stroke-linejoin: miter; stroke-linecap: square"/>
   </g>
   <g id="patch_14">
    <path d="M 325.19952 294.198739 
L 325.19952 204.866146 
" style="fill: none; stroke: #000000; stroke-width: 0.8; stroke-linejoin: miter; stroke-linecap: square"/>
   </g>
   <g id="patch_15">
    <path d="M 44.103906 294.198739 
L 325.19952 294.198739 
" style="fill: none; stroke: #000000; stroke-width: 0.8; stroke-linejoin: miter; stroke-linecap: square"/>
   </g>
   <g id="patch_16">
    <path d="M 44.103906 204.866146 
L 325.19952 204.866146 
" style="fill: none; stroke: #000000; stroke-width: 0.8; stroke-linejoin: miter; stroke-linecap: square"/>
   </g>
  </g>
 </g>
 <defs>
  <clipPath id="p8c0704aa09">
   <rect x="44.103906" y="7.2" width="281.095614" height="89.332593"/>
  </clipPath>
  <clipPath id="p3be58ed75f">
   <rect x="44.103906" y="106.033073" width="281.095614" height="89.332593"/>
  </clipPath>
  <clipPath id="p18f881aecb">
   <rect x="44.103906" y="204.866146" width="281.095614" height="89.332593"/>
  </clipPath>
 </defs>
</svg>
