<?xml version="1.0" encoding="utf-8" standalone="no"?>
<!DOCTYPE svg PUBLIC "-//W3C//DTD SVG 1.1//EN"
  "http://www.w3.org/Graphics/SVG/1.1/DTD/svg11.dtd">
<svg xmlns:xlink="http://www.w3.org/1999/xlink" width="332.39952pt" height="332.39952pt" viewBox="0 0 332.39952 332.39952" xmlns="http://www.w3.org/2000/svg" version="1.1">
 <metadata>
  <rdf:RDF xmlns:dc="http://purl.org/dc/elements/1.1/" xmlns:cc="http://creativecommons.org/ns#" xmlns:rdf="http://www.w3.org/1999/02/22-rdf-syntax-ns#">
   <cc:Work>
    <dc:type rdf:resource="http://purl.org/dc/dcmitype/StillImage"/>
    <dc:date>2026-05-28T17:04:46.769789</dc:date>
    <dc:format>image/svg+xml</dc:format>
    <dc:creator>
     <cc:Agent>
      <dc:title>Matplotlib v3.10.9, https://matplotlib.org/</dc:title>
     </cc:Agent>
    </dc:creator>
   </cc:Work>
  </rdf:RDF>
 </metadata>
 <defs>
  <style type="text/css">*{stroke-linejoin: round; stroke-linecap: butt}</style>
 </defs>
 <g id="figure_1">
  <g id="patch_1">
   <path d="M 0 332.39952 
L 332.39952 332.39952 
L 332.39952 0 
L 0 0 
z
" style="fill: #ffffff"/>
  </g>
  <g id="axes_1">
   <g id="patch_2">
    <path d="M 43.78125 96.747437 
L 325.19952 96.747437 
L 325.19952 7.2 
L 43.78125 7.2 
z
" style="fill: #ffffff"/>
   </g>
   <g id="matplotlib.axis_1">
    <g id="xtick_1">
     <g id="line2d_1">
      <defs>
       <path id="m57106cdbe0" d="M 0 0 
L 0 3.5 
" style="stroke: #000000; stroke-width: 0.8"/>
      </defs>
      <g>
       <use xlink:href="#m57106cdbe0" x="56.57299" y="96.747437" style="stroke: #000000; stroke-width: 0.8"/>
      </g>
     </g>
    </g>
    <g id="xtick_2">
     <g id="line2d_2">
      <g>
       <use xlink:href="#m57106cdbe0" x="88.400625" y="96.747437" style="stroke: #000000; stroke-width: 0.8"/>
      </g>
     </g>
    </g>
    <g id="xtick_3">
     <g id="line2d_3">
      <g>
       <use xlink:href="#m57106cdbe0" x="120.22826" y="96.747437" style="stroke: #000000; stroke-width: 0.8"/>
      </g>
     </g>
    </g>
    <g id="xtick_4">
     <g id="line2d_4">
      <g>
       <use xlink:href="#m57106cdbe0" x="152.055895" y="96.747437" style="stroke: #000000; stroke-width: 0.8"/>
      </g>
     </g>
    </g>
    <g id="xtick_5">
     <g id="line2d_5">
      <g>
       <use xlink:href="#m57106cdbe0" x="183.88353" y="96.747437" style="stroke: #000000; stroke-width: 0.8"/>
      </g>
     </g>
    </g>
    <g id="xtick_6">
     <g id="line2d_6">
      <g>
       <use xlink:href="#m57106cdbe0" x="215.711165" y="96.747437" style="stroke: #000000; stroke-width: 0.8"/>
      </g>
     </g>
    </g>
    <g id="xtick_7">
     <g id="line2d_7">
      <g>
       <use xlink:href="#m57106cdbe0" x="247.5388" y="96.747437" style="stroke: #000000; stroke-width: 0.8"/>
      </g>
     </g>
    </g>
    <g id="xtick_8">
     <g id="line2d_8">
      <g>
       <use xlink:href="#m57106cdbe0" x="279.366435" y="96.747437" style="stroke: #000000; stroke-width: 0.8"/>
      </g>
     </g>
    </g>
    <g id="xtick_9">
     <g id="line2d_9">
      <g>
       <use xlink:href="#m57106cdbe0" x="311.19407" y="96.747437" style="stroke: #000000; stroke-width: 0.8"/>
      </g>
     </g>
    </g>
   </g>
   <g id="matplotlib.axis_2">
    <g id="ytick_1">
     <g id="line2d_10">
      <defs>
       <path id="m763ee469a3" d="M 0 0 
L -3.5 0 
" style="stroke: #000000; stroke-width: 0.8"/>
      </defs>
      <g>
       <use xlink:href="#m763ee469a3" x="43.78125" y="92.677099" style="stroke: #000000; stroke-width: 0.8"/>
      </g>
     </g>
     <g id="text_1">
      <!-- 0 -->
      <g transform="translate(30.41875 96.476317) scale(0.1 -0.1)">
       <defs>
        <path id="DejaVuSans-30" d="M 2034 4250 
Q 1547 4250 1301 3770 
Q 1056 3291 1056 2328 
Q 1056 1369 1301 889 
Q 1547 409 2034 409 
Q 2525 409 2770 889 
Q 3016 1369 3016 2328 
Q 3016 3291 2770 3770 
Q 2525 4250 2034 4250 
z
M 2034 4750 
Q 2819 4750 3233 4129 
Q 3647 3509 3647 2328 
Q 3647 1150 3233 529 
Q 2819 -91 2034 -91 
Q 1250 -91 836 529 
Q 422 1150 422 2328 
Q 422 3509 836 4129 
Q 1250 4750 2034 4750 
z
" transform="scale(0.015625)"/>
       </defs>
       <use xlink:href="#DejaVuSans-30"/>
      </g>
     </g>
    </g>
    <g id="ytick_2">
     <g id="line2d_11">
      <g>
       <use xlink:href="#m763ee469a3" x="43.78125" y="51.973718" style="stroke: #000000; stroke-width: 0.8"/>
      </g>
     </g>
     <g id="text_2">
      <!-- 5 -->
      <g transform="translate(30.41875 55.772937) scale(0.1 -0.1)">
       <defs>
        <path id="DejaVuSans-35" d="M 691 4666 
L 3169 4666 
L 3169 4134 
L 1269 4134 
L 1269 2991 
Q 1406 3038 1543 3061 
Q 1681 3084 1819 3084 
Q 2600 3084 3056 2656 
Q 3513 2228 3513 1497 
Q 3513 744 3044 326 
Q 2575 -91 1722 -91 
Q 1428 -91 1123 -41 
Q 819 9 494 109 
L 494 744 
Q 775 591 1075 516 
Q 1375 441 1709 441 
Q 2250 441 2565 725 
Q 2881 1009 2881 1497 
Q 2881 1984 2565 2268 
Q 2250 2553 1709 2553 
Q 1456 2553 1204 2497 
Q 953 2441 691 2322 
L 691 4666 
z
" transform="scale(0.015625)"/>
       </defs>
       <use xlink:href="#DejaVuSans-35"/>
      </g>
     </g>
    </g>
    <g id="ytick_3">
     <g id="line2d_12">
      <g>
       <use xlink:href="#m763ee469a3" x="43.78125" y="11.270338" style="stroke: #000000; stroke-width: 0.8"/>
      </g>
     </g>
     <g id="text_3">
      <!-- 10 -->
      <g transform="translate(24.05625 15.069557) scale(0.1 -0.1)">
       <defs>
        <path id="DejaVuSans-31" d="M 794 531 
L 1825 531 
L 1825 4091 
L 703 3866 
L 703 4441 
L 1819 4666 
L 2450 4666 
L 2450 531 
L 3481 531 
L 3481 0 
L 794 0 
L 794 531 
z
" transform="scale(0.015625)"/>
       </defs>
       <use xlink:href="#DejaVuSans-31"/>
       <use xlink:href="#DejaVuSans-30" transform="translate(63.623047 0)"/>
      </g>
     </g>
    </g>
    <g id="text_4">
     <!-- Extracellular lactose -->
     <g transform="translate(17.976562 102.945593) rotate(-90) scale(0.1 -0.1)">
      <defs>
       <path id="DejaVuSans-45" d="M 628 4666 
L 3578 4666 
L 3578 4134 
L 1259 4134 
L 1259 2753 
L 3481 2753 
L 3481 2222 
L 1259 2222 
L 1259 531 
L 3634 531 
L 3634 0 
L 628 0 
L 628 4666 
z
" transform="scale(0.015625)"/>
       <path id="DejaVuSans-78" d="M 3513 3500 
L 2247 1797 
L 3578 0 
L 2900 0 
L 1881 1375 
L 863 0 
L 184 0 
L 1544 1831 
L 300 3500 
L 978 3500 
L 1906 2253 
L 2834 3500 
L 3513 3500 
z
" transform="scale(0.015625)"/>
       <path id="DejaVuSans-74" d="M 1172 4494 
L 1172 3500 
L 2356 3500 
L 2356 3053 
L 1172 3053 
L 1172 1153 
Q 1172 725 1289 603 
Q 1406 481 1766 481 
L 2356 481 
L 2356 0 
L 1766 0 
Q 1100 0 847 248 
Q 594 497 594 1153 
L 594 3053 
L 172 3053 
L 172 3500 
L 594 3500 
L 594 4494 
L 1172 4494 
z
" transform="scale(0.015625)"/>
       <path id="DejaVuSans-72" d="M 2631 2963 
Q 2534 3019 2420 3045 
Q 2306 3072 2169 3072 
Q 1681 3072 1420 2755 
Q 1159 2438 1159 1844 
L 1159 0 
L 581 0 
L 581 3500 
L 1159 3500 
L 1159 2956 
Q 1341 3275 1631 3429 
Q 1922 3584 2338 3584 
Q 2397 3584 2469 3576 
Q 2541 3569 2628 3553 
L 2631 2963 
z
" transform="scale(0.015625)"/>
       <path id="DejaVuSans-61" d="M 2194 1759 
Q 1497 1759 1228 1600 
Q 959 1441 959 1056 
Q 959 750 1161 570 
Q 1363 391 1709 391 
Q 2188 391 2477 730 
Q 2766 1069 2766 1631 
L 2766 1759 
L 2194 1759 
z
M 3341 1997 
L 3341 0 
L 2766 0 
L 2766 531 
Q 2569 213 2275 61 
Q 1981 -91 1556 -91 
Q 1019 -91 701 211 
Q 384 513 384 1019 
Q 384 1609 779 1909 
Q 1175 2209 1959 2209 
L 2766 2209 
L 2766 2266 
Q 2766 2663 2505 2880 
Q 2244 3097 1772 3097 
Q 1472 3097 1187 3025 
Q 903 2953 641 2809 
L 641 3341 
Q 956 3463 1253 3523 
Q 1550 3584 1831 3584 
Q 2591 3584 2966 3190 
Q 3341 2797 3341 1997 
z
" transform="scale(0.015625)"/>
       <path id="DejaVuSans-63" d="M 3122 3366 
L 3122 2828 
Q 2878 2963 2633 3030 
Q 2388 3097 2138 3097 
Q 1578 3097 1268 2742 
Q 959 2388 959 1747 
Q 959 1106 1268 751 
Q 1578 397 2138 397 
Q 2388 397 2633 464 
Q 2878 531 3122 666 
L 3122 134 
Q 2881 22 2623 -34 
Q 2366 -91 2075 -91 
Q 1284 -91 818 406 
Q 353 903 353 1747 
Q 353 2603 823 3093 
Q 1294 3584 2113 3584 
Q 2378 3584 2631 3529 
Q 2884 3475 3122 3366 
z
" transform="scale(0.015625)"/>
       <path id="DejaVuSans-65" d="M 3597 1894 
L 3597 1613 
L 953 1613 
Q 991 1019 1311 708 
Q 1631 397 2203 397 
Q 2534 397 2845 478 
Q 3156 559 3463 722 
L 3463 178 
Q 3153 47 2828 -22 
Q 2503 -91 2169 -91 
Q 1331 -91 842 396 
Q 353 884 353 1716 
Q 353 2575 817 3079 
Q 1281 3584 2069 3584 
Q 2775 3584 3186 3129 
Q 3597 2675 3597 1894 
z
M 3022 2063 
Q 3016 2534 2758 2815 
Q 2500 3097 2075 3097 
Q 1594 3097 1305 2825 
Q 1016 2553 972 2059 
L 3022 2063 
z
" transform="scale(0.015625)"/>
       <path id="DejaVuSans-6c" d="M 603 4863 
L 1178 4863 
L 1178 0 
L 603 0 
L 603 4863 
z
" transform="scale(0.015625)"/>
       <path id="DejaVuSans-75" d="M 544 1381 
L 544 3500 
L 1119 3500 
L 1119 1403 
Q 1119 906 1312 657 
Q 1506 409 1894 409 
Q 2359 409 2629 706 
Q 2900 1003 2900 1516 
L 2900 3500 
L 3475 3500 
L 3475 0 
L 2900 0 
L 2900 538 
Q 2691 219 2414 64 
Q 2138 -91 1772 -91 
Q 1169 -91 856 284 
Q 544 659 544 1381 
z
M 1991 3584 
L 1991 3584 
z
" transform="scale(0.015625)"/>
       <path id="DejaVuSans-20" transform="scale(0.015625)"/>
       <path id="DejaVuSans-6f" d="M 1959 3097 
Q 1497 3097 1228 2736 
Q 959 2375 959 1747 
Q 959 1119 1226 758 
Q 1494 397 1959 397 
Q 2419 397 2687 759 
Q 2956 1122 2956 1747 
Q 2956 2369 2687 2733 
Q 2419 3097 1959 3097 
z
M 1959 3584 
Q 2709 3584 3137 3096 
Q 3566 2609 3566 1747 
Q 3566 888 3137 398 
Q 2709 -91 1959 -91 
Q 1206 -91 779 398 
Q 353 888 353 1747 
Q 353 2609 779 3096 
Q 1206 3584 1959 3584 
z
" transform="scale(0.015625)"/>
       <path id="DejaVuSans-73" d="M 2834 3397 
L 2834 2853 
Q 2591 2978 2328 3040 
Q 2066 3103 1784 3103 
Q 1356 3103 1142 2972 
Q 928 2841 928 2578 
Q 928 2378 1081 2264 
Q 1234 2150 1697 2047 
L 1894 2003 
Q 2506 1872 2764 1633 
Q 3022 1394 3022 966 
Q 3022 478 2636 193 
Q 2250 -91 1575 -91 
Q 1294 -91 989 -36 
Q 684 19 347 128 
L 347 722 
Q 666 556 975 473 
Q 1284 391 1588 391 
Q 1994 391 2212 530 
Q 2431 669 2431 922 
Q 2431 1156 2273 1281 
Q 2116 1406 1581 1522 
L 1381 1569 
Q 847 1681 609 1914 
Q 372 2147 372 2553 
Q 372 3047 722 3315 
Q 1072 3584 1716 3584 
Q 2034 3584 2315 3537 
Q 2597 3491 2834 3397 
z
" transform="scale(0.015625)"/>
      </defs>
      <use xlink:href="#DejaVuSans-45"/>
      <use xlink:href="#DejaVuSans-78" transform="translate(63.183594 0)"/>
      <use xlink:href="#DejaVuSans-74" transform="translate(122.363281 0)"/>
      <use xlink:href="#DejaVuSans-72" transform="translate(161.572266 0)"/>
      <use xlink:href="#DejaVuSans-61" transform="translate(202.685547 0)"/>
      <use xlink:href="#DejaVuSans-63" transform="translate(263.964844 0)"/>
      <use xlink:href="#DejaVuSans-65" transform="translate(318.945312 0)"/>
      <use xlink:href="#DejaVuSans-6c" transform="translate(380.46875 0)"/>
      <use xlink:href="#DejaVuSans-6c" transform="translate(408.251953 0)"/>
      <use xlink:href="#DejaVuSans-75" transform="translate(436.035156 0)"/>
      <use xlink:href="#DejaVuSans-6c" transform="translate(499.414062 0)"/>
      <use xlink:href="#DejaVuSans-61" transform="translate(527.197266 0)"/>
      <use xlink:href="#DejaVuSans-72" transform="translate(588.476562 0)"/>
      <use xlink:href="#DejaVuSans-20" transform="translate(629.589844 0)"/>
      <use xlink:href="#DejaVuSans-6c" transform="translate(661.376953 0)"/>
      <use xlink:href="#DejaVuSans-61" transform="translate(689.160156 0)"/>
      <use xlink:href="#DejaVuSans-63" transform="translate(750.439453 0)"/>
      <use xlink:href="#DejaVuSans-74" transform="translate(805.419922 0)"/>
      <use xlink:href="#DejaVuSans-6f" transform="translate(844.628906 0)"/>
      <use xlink:href="#DejaVuSans-73" transform="translate(905.810547 0)"/>
      <use xlink:href="#DejaVuSans-65" transform="translate(957.910156 0)"/>
     </g>
    </g>
   </g>
   <g id="line2d_13">
    <path d="M 56.57299 92.677099 
L 155.579008 92.677099 
L 155.667818 11.270338 
L 156.333651 11.351745 
L 156.450958 11.677372 
L 156.495628 11.758779 
L 156.64135 13.2241 
L 156.759309 14.852235 
L 156.773093 14.933642 
L 156.916143 16.643184 
L 156.939616 16.724591 
L 157.44755 20.225082 
L 157.723884 20.632115 
L 157.782986 20.713522 
L 157.891809 20.794929 
L 158.340949 20.876336 
L 158.437497 21.28337 
L 158.677517 21.690403 
L 158.777654 22.097437 
L 158.897827 22.178844 
L 159.00024 22.667285 
L 159.030138 22.748691 
L 159.138755 23.644166 
L 159.235671 24.53964 
L 159.57366 25.923555 
L 159.619498 26.004962 
L 159.876827 27.470283 
L 159.994908 28.447165 
L 160.140313 29.749673 
L 160.151587 29.831079 
L 160.275373 30.889367 
L 160.309276 30.970774 
L 160.459235 31.947655 
L 160.489238 32.029062 
L 160.600066 32.354689 
L 160.635909 32.436096 
L 160.774278 32.84313 
L 160.828494 33.33157 
L 160.945708 33.901417 
L 160.967808 33.982824 
L 161.070489 34.227045 
L 161.114476 34.308451 
L 161.628897 36.017993 
L 162.133783 36.0994 
L 162.277367 36.587841 
L 162.301049 36.669247 
L 162.469498 37.076281 
L 162.68081 37.157688 
L 162.824881 37.727535 
L 162.972391 38.053162 
L 162.995569 38.134569 
L 163.098465 38.378789 
L 163.690569 39.681297 
L 163.80328 39.844111 
L 164.071233 40.251145 
L 164.116216 40.902399 
L 164.232887 41.309433 
L 164.59208 41.390839 
L 164.726922 41.63506 
L 164.817013 41.716466 
L 164.92815 42.449127 
L 165.239836 43.751636 
L 165.356788 44.240076 
L 165.41364 44.321483 
L 165.532639 44.89133 
L 165.572688 44.972737 
L 165.802876 46.275245 
L 165.92304 46.926499 
L 165.972438 47.007906 
L 166.071682 47.333533 
L 166.187858 47.41494 
L 166.41502 47.984787 
L 166.464928 48.066194 
L 166.569251 48.310414 
L 166.643593 48.391821 
L 166.988488 49.775736 
L 167.181168 51.159651 
L 167.212644 51.241057 
L 167.345874 51.648091 
L 167.369486 51.729498 
L 167.483408 52.136532 
L 167.524548 52.217939 
L 167.650515 52.462159 
L 167.6745 52.543566 
L 167.783765 52.624972 
L 168.10229 52.706379 
L 168.653955 53.43904 
L 168.918493 53.520447 
L 169.009248 53.68326 
L 169.107762 53.764667 
L 169.388818 54.741548 
L 169.458217 54.822955 
L 169.580096 55.067175 
L 169.734675 55.474209 
L 169.880669 55.555616 
L 170.006346 55.718429 
L 170.207536 56.20687 
L 170.253288 56.288277 
L 170.370483 56.613904 
L 170.434041 56.939531 
L 170.957717 59.788767 
L 171.027234 59.870174 
L 171.24281 61.172682 
L 171.298692 61.254089 
L 171.406706 61.335496 
L 171.463846 61.416903 
L 171.594792 61.579716 
L 171.66231 61.661123 
L 171.823629 62.149563 
L 172.084054 62.23097 
L 172.211462 62.556597 
L 172.23516 62.638004 
L 172.3073 62.719411 
L 172.436472 62.800817 
L 172.584695 63.126445 
L 172.742295 63.207851 
L 172.945482 63.533478 
L 173.166675 63.614885 
L 173.28353 63.940512 
L 173.353956 64.021919 
L 173.591853 65.080207 
L 173.706708 65.161614 
L 173.895418 66.545528 
L 173.975935 66.626935 
L 174.144112 67.196783 
L 174.164416 67.278189 
L 174.310828 67.685223 
L 174.318322 67.76663 
L 174.478718 68.906325 
L 174.580074 68.987731 
L 174.680085 69.313358 
L 174.71366 69.394765 
L 174.819157 69.801799 
L 174.868982 69.883206 
L 175.03275 70.453053 
L 175.163981 71.0229 
L 175.36323 71.918375 
L 175.392247 71.999781 
L 175.536787 72.732442 
L 175.903716 75.093238 
L 175.968967 75.174645 
L 176.073996 75.337459 
L 176.181247 75.418865 
L 176.310781 75.744492 
L 176.370513 75.825899 
L 176.94443 77.372628 
L 177.052977 77.454034 
L 177.177971 77.535441 
L 177.709033 77.616848 
L 177.818619 77.698255 
L 177.896403 77.779661 
L 177.959369 77.861068 
L 178.037123 77.942475 
L 178.141497 78.023882 
L 178.292316 78.105288 
L 178.413666 78.268102 
L 178.668238 78.349509 
L 178.812425 78.512322 
L 178.836546 78.593729 
L 179.001204 78.756543 
L 179.215069 78.837949 
L 179.303309 79.000763 
L 179.487622 79.08217 
L 179.847642 79.407797 
L 179.95584 79.489203 
L 180.21118 79.652017 
L 181.429491 79.733424 
L 181.563667 80.303271 
L 181.819493 80.384678 
L 181.907782 80.466085 
L 182.44795 80.547491 
L 182.564072 80.791712 
L 182.6473 80.873118 
L 183.221757 81.442966 
L 183.272934 81.524372 
L 183.436674 81.687186 
L 183.551999 81.768593 
L 183.800547 82.175627 
L 183.882439 82.257033 
L 184.235743 83.071101 
L 184.387122 83.152508 
L 184.498211 83.559541 
L 184.748055 83.640948 
L 184.800647 83.803762 
L 185.092441 83.885168 
L 185.229599 83.966575 
L 185.943532 84.047982 
L 186.070725 84.210796 
L 186.375553 84.292202 
L 186.896349 84.536423 
L 187.12777 84.699236 
L 187.201789 84.780643 
L 187.82297 84.86205 
L 187.917623 84.943456 
L 188.686084 85.024863 
L 188.758693 85.10627 
L 188.956254 85.269083 
L 189.391527 85.35049 
L 189.525502 85.431897 
L 189.741672 85.513304 
L 189.888701 85.59471 
L 190.800222 85.676117 
L 191.049946 85.920338 
L 191.383553 86.001744 
L 192.288969 86.083151 
L 193.067876 86.327371 
L 194.036383 86.408778 
L 194.48943 86.571592 
L 195.260901 86.652998 
L 195.376589 86.897219 
L 195.700079 86.978625 
L 195.817669 87.304252 
L 195.974924 87.385659 
L 196.092866 87.467066 
L 196.357645 87.548473 
L 196.473828 87.711286 
L 196.924854 87.792693 
L 197.465633 88.11832 
L 197.58421 88.281134 
L 197.907245 88.36254 
L 198.201437 88.443947 
L 199.018465 88.525354 
L 199.129369 88.688167 
L 199.709931 88.769574 
L 200.33949 89.095201 
L 200.414943 89.258015 
L 200.71933 89.339421 
L 200.825702 89.502235 
L 201.629967 89.583642 
L 201.786215 89.665048 
L 202.228964 89.746455 
L 202.425761 89.827862 
L 203.163371 89.909269 
L 203.182221 89.990676 
L 204.825636 90.072082 
L 204.894646 90.153489 
L 206.643725 90.234896 
L 206.769605 90.316303 
L 208.310158 90.397709 
L 208.571465 90.479116 
L 224.619116 90.560523 
L 224.673256 90.64193 
L 235.320099 90.723336 
L 236.652664 90.88615 
L 239.263747 90.967557 
L 239.530697 91.048963 
L 272.797506 91.13037 
L 273.754061 91.211777 
L 303.276462 91.293184 
L 303.334741 91.37459 
L 304.09149 91.455997 
L 304.197762 91.537404 
L 304.480908 91.618811 
L 304.617723 91.700218 
L 305.894211 91.781624 
L 306.097214 91.863031 
L 312.40778 91.944438 
L 312.40778 91.944438 
" clip-path="url(#pd2a36055d0)" style="fill: none; stroke: #000000; stroke-width: 1.5; stroke-linecap: square"/>
   </g>
   <g id="patch_3">
    <path d="M 43.78125 96.747437 
L 43.78125 7.2 
" style="fill: none; stroke: #000000; stroke-width: 0.8; stroke-linejoin: miter; stroke-linecap: square"/>
   </g>
   <g id="patch_4">
    <path d="M 325.19952 96.747437 
L 325.19952 7.2 
" style="fill: none; stroke: #000000; stroke-width: 0.8; stroke-linejoin: miter; stroke-linecap: square"/>
   </g>
   <g id="patch_5">
    <path d="M 43.78125 96.747437 
L 325.19952 96.747437 
" style="fill: none; stroke: #000000; stroke-width: 0.8; stroke-linejoin: miter; stroke-linecap: square"/>
   </g>
   <g id="patch_6">
    <path d="M 43.78125 7.2 
L 325.19952 7.2 
" style="fill: none; stroke: #000000; stroke-width: 0.8; stroke-linejoin: miter; stroke-linecap: square"/>
   </g>
  </g>
  <g id="axes_2">
   <g id="patch_7">
    <path d="M 43.78125 195.795353 
L 325.19952 195.795353 
L 325.19952 106.247917 
L 43.78125 106.247917 
z
" style="fill: #ffffff"/>
   </g>
   <g id="matplotlib.axis_3">
    <g id="xtick_10">
     <g id="line2d_14">
      <g>
       <use xlink:href="#m57106cdbe0" x="56.57299" y="195.795353" style="stroke: #000000; stroke-width: 0.8"/>
      </g>
     </g>
    </g>
    <g id="xtick_11">
     <g id="line2d_15">
      <g>
       <use xlink:href="#m57106cdbe0" x="88.400625" y="195.795353" style="stroke: #000000; stroke-width: 0.8"/>
      </g>
     </g>
    </g>
    <g id="xtick_12">
     <g id="line2d_16">
      <g>
       <use xlink:href="#m57106cdbe0" x="120.22826" y="195.795353" style="stroke: #000000; stroke-width: 0.8"/>
      </g>
     </g>
    </g>
    <g id="xtick_13">
     <g id="line2d_17">
      <g>
       <use xlink:href="#m57106cdbe0" x="152.055895" y="195.795353" style="stroke: #000000; stroke-width: 0.8"/>
      </g>
     </g>
    </g>
    <g id="xtick_14">
     <g id="line2d_18">
      <g>
       <use xlink:href="#m57106cdbe0" x="183.88353" y="195.795353" style="stroke: #000000; stroke-width: 0.8"/>
      </g>
     </g>
    </g>
    <g id="xtick_15">
     <g id="line2d_19">
      <g>
       <use xlink:href="#m57106cdbe0" x="215.711165" y="195.795353" style="stroke: #000000; stroke-width: 0.8"/>
      </g>
     </g>
    </g>
    <g id="xtick_16">
     <g id="line2d_20">
      <g>
       <use xlink:href="#m57106cdbe0" x="247.5388" y="195.795353" style="stroke: #000000; stroke-width: 0.8"/>
      </g>
     </g>
    </g>
    <g id="xtick_17">
     <g id="line2d_21">
      <g>
       <use xlink:href="#m57106cdbe0" x="279.366435" y="195.795353" style="stroke: #000000; stroke-width: 0.8"/>
      </g>
     </g>
    </g>
    <g id="xtick_18">
     <g id="line2d_22">
      <g>
       <use xlink:href="#m57106cdbe0" x="311.19407" y="195.795353" style="stroke: #000000; stroke-width: 0.8"/>
      </g>
     </g>
    </g>
   </g>
   <g id="matplotlib.axis_4">
    <g id="ytick_4">
     <g id="line2d_23">
      <g>
       <use xlink:href="#m763ee469a3" x="43.78125" y="191.725015" style="stroke: #000000; stroke-width: 0.8"/>
      </g>
     </g>
     <g id="text_5">
      <!-- 0 -->
      <g transform="translate(30.41875 195.524234) scale(0.1 -0.1)">
       <use xlink:href="#DejaVuSans-30"/>
      </g>
     </g>
    </g>
    <g id="ytick_5">
     <g id="line2d_24">
      <g>
       <use xlink:href="#m763ee469a3" x="43.78125" y="151.021635" style="stroke: #000000; stroke-width: 0.8"/>
      </g>
     </g>
     <g id="text_6">
      <!-- 5 -->
      <g transform="translate(30.41875 154.820854) scale(0.1 -0.1)">
       <use xlink:href="#DejaVuSans-35"/>
      </g>
     </g>
    </g>
    <g id="ytick_6">
     <g id="line2d_25">
      <g>
       <use xlink:href="#m763ee469a3" x="43.78125" y="110.318255" style="stroke: #000000; stroke-width: 0.8"/>
      </g>
     </g>
     <g id="text_7">
      <!-- 10 -->
      <g transform="translate(24.05625 114.117473) scale(0.1 -0.1)">
       <use xlink:href="#DejaVuSans-31"/>
       <use xlink:href="#DejaVuSans-30" transform="translate(63.623047 0)"/>
      </g>
     </g>
    </g>
    <g id="text_8">
     <!-- LacY -->
     <g transform="translate(17.976563 162.67476) rotate(-90) scale(0.1 -0.1)">
      <defs>
       <path id="DejaVuSans-4c" d="M 628 4666 
L 1259 4666 
L 1259 531 
L 3531 531 
L 3531 0 
L 628 0 
L 628 4666 
z
" transform="scale(0.015625)"/>
       <path id="DejaVuSans-59" d="M -13 4666 
L 666 4666 
L 1959 2747 
L 3244 4666 
L 3922 4666 
L 2272 2222 
L 2272 0 
L 1638 0 
L 1638 2222 
L -13 4666 
z
" transform="scale(0.015625)"/>
      </defs>
      <use xlink:href="#DejaVuSans-4c"/>
      <use xlink:href="#DejaVuSans-61" transform="translate(55.712891 0)"/>
      <use xlink:href="#DejaVuSans-63" transform="translate(116.992188 0)"/>
      <use xlink:href="#DejaVuSans-59" transform="translate(171.972656 0)"/>
     </g>
    </g>
   </g>
   <g id="line2d_26">
    <path d="M 56.57299 110.318255 
L 56.600045 110.318255 
L 56.654393 118.458931 
L 56.762271 134.740283 
L 56.822452 142.880959 
L 56.974153 142.880959 
L 56.991802 134.740283 
L 57.211801 142.880959 
L 57.353288 142.880959 
L 57.523483 159.162311 
L 57.82358 175.443663 
L 57.889024 191.725015 
L 59.414927 191.725015 
L 59.581103 183.584339 
L 59.623731 191.725015 
L 64.632891 191.725015 
L 64.954984 183.584339 
L 65.064644 191.725015 
L 82.514107 191.725015 
L 82.707996 183.584339 
L 84.496523 191.725015 
L 84.511309 183.584339 
L 84.654133 175.443663 
L 84.658775 167.302987 
L 84.980076 175.443663 
L 85.206434 175.443663 
L 85.325748 191.725015 
L 85.386407 183.584339 
L 85.576126 183.584339 
L 85.714242 191.725015 
L 89.596085 191.725015 
L 89.984844 175.443663 
L 89.986142 167.302987 
L 90.483448 167.302987 
L 90.522013 183.584339 
L 91.292097 183.584339 
L 91.460571 175.443663 
L 91.803943 191.725015 
L 108.763757 191.725015 
L 108.869172 183.584339 
L 108.988561 183.584339 
L 109.127283 191.725015 
L 109.361659 191.725015 
L 109.403034 183.584339 
L 109.817888 183.584339 
L 110.166886 175.443663 
L 110.225079 183.584339 
L 110.399881 183.584339 
L 110.429381 191.725015 
L 119.16583 191.725015 
L 119.343785 183.584339 
L 121.438534 183.584339 
L 123.281167 191.725015 
L 131.028857 191.725015 
L 131.214636 183.584339 
L 131.501446 183.584339 
L 131.608941 191.725015 
L 135.93342 191.725015 
L 136.016932 183.584339 
L 136.03874 191.725015 
L 146.005334 191.725015 
L 146.265499 175.443663 
L 146.286276 183.584339 
L 146.315208 175.443663 
L 146.428025 167.302987 
L 146.433351 175.443663 
L 147.01657 175.443663 
L 147.632143 183.584339 
L 147.876836 183.584339 
L 148.191279 175.443663 
L 148.303869 175.443663 
L 149.372994 191.725015 
L 149.83197 191.725015 
L 149.883716 175.443663 
L 149.984329 175.443663 
L 150.136764 183.584339 
L 150.270135 183.584339 
L 150.811632 191.725015 
L 155.91679 191.725015 
L 156.343962 183.584339 
L 156.583631 151.021635 
L 156.86454 151.021635 
L 156.984335 167.302987 
L 157.034074 167.302987 
L 157.134713 159.162311 
L 157.221465 159.162311 
L 157.330988 175.443663 
L 157.359116 175.443663 
L 157.44755 183.584339 
L 157.798415 183.584339 
L 157.891809 191.725015 
L 158.290466 191.725015 
L 158.391563 183.584339 
L 158.557315 183.584339 
L 158.661154 175.443663 
L 158.806758 175.443663 
L 158.862096 183.584339 
L 158.916449 175.443663 
L 159.022393 175.443663 
L 159.126408 167.302987 
L 159.286036 167.302987 
L 159.410631 183.584339 
L 159.544488 183.584339 
L 159.667251 175.443663 
L 159.81597 175.443663 
L 159.943625 159.162311 
L 160.120302 159.162311 
L 160.188862 151.021635 
L 160.231278 159.162311 
L 160.31511 159.162311 
L 160.365536 151.021635 
L 160.418012 159.162311 
L 160.586251 159.162311 
L 160.695077 175.443663 
L 160.723952 175.443663 
L 160.7544 183.584339 
L 160.762759 167.302987 
L 160.830592 167.302987 
L 161.06509 167.302987 
L 161.176866 175.443663 
L 161.463451 175.443663 
L 161.563292 183.584339 
L 161.662905 183.584339 
L 161.773352 191.725015 
L 162.045758 191.725015 
L 162.194201 183.584339 
L 162.317442 183.584339 
L 162.432377 175.443663 
L 162.469498 175.443663 
L 162.578365 183.584339 
L 162.821299 183.584339 
L 162.874184 175.443663 
L 162.927219 183.584339 
L 163.267665 183.584339 
L 163.351651 175.443663 
L 163.378112 183.584339 
L 163.439276 183.584339 
L 163.549426 175.443663 
L 163.722664 175.443663 
L 163.80328 183.584339 
L 163.895367 183.584339 
L 164.055129 175.443663 
L 164.120724 175.443663 
L 164.252339 183.584339 
L 164.33802 183.584339 
L 164.341249 175.443663 
L 164.433513 183.584339 
L 164.625105 183.584339 
L 164.726922 175.443663 
L 164.861953 167.302987 
L 164.97261 175.443663 
L 165.074915 175.443663 
L 165.197419 167.302987 
L 165.825043 167.302987 
L 165.944287 175.443663 
L 166.071682 175.443663 
L 166.207678 183.584339 
L 166.247128 183.584339 
L 166.360326 175.443663 
L 166.471915 183.584339 
L 166.635712 183.584339 
L 166.749214 175.443663 
L 166.757053 175.443663 
L 166.847137 167.302987 
L 167.095175 167.302987 
L 167.105203 175.443663 
L 167.14788 159.162311 
L 167.181168 159.162311 
L 167.332098 159.162311 
L 167.39838 167.302987 
L 167.426016 159.162311 
L 167.50328 159.162311 
L 167.602934 175.443663 
L 167.644709 175.443663 
L 167.739039 191.725015 
L 167.975628 191.725015 
L 168.156345 183.584339 
L 168.767342 183.584339 
L 168.823884 191.725015 
L 169.009248 183.584339 
L 169.096688 183.584339 
L 169.209275 175.443663 
L 170.263505 175.443663 
L 170.370483 167.302987 
L 170.655665 167.302987 
L 170.770107 159.162311 
L 170.89723 159.162311 
L 170.96485 151.021635 
L 170.996724 159.162311 
L 171.115467 159.162311 
L 171.230639 167.302987 
L 171.253363 167.302987 
L 171.347188 175.443663 
L 171.594792 175.443663 
L 171.740458 167.302987 
L 171.807224 167.302987 
L 171.913225 183.584339 
L 172.211462 183.584339 
L 172.3073 175.443663 
L 172.564361 175.443663 
L 172.642211 183.584339 
L 173.015294 183.584339 
L 173.103141 167.302987 
L 173.118323 175.443663 
L 173.151613 175.443663 
L 173.256987 167.302987 
L 173.365945 167.302987 
L 173.474446 159.162311 
L 173.640336 159.162311 
L 173.783974 151.021635 
L 173.868965 151.021635 
L 173.975935 159.162311 
L 174.053883 159.162311 
L 174.172071 167.302987 
L 174.215384 167.302987 
L 174.378829 142.880959 
L 174.494134 142.880959 
L 174.580342 159.162311 
L 174.580931 151.021635 
L 174.644041 142.880959 
L 174.680085 151.021635 
L 174.720732 151.021635 
L 174.819157 159.162311 
L 175.084946 159.162311 
L 175.117629 151.021635 
L 175.180651 159.162311 
L 175.298913 159.162311 
L 175.377813 134.740283 
L 175.41303 142.880959 
L 175.476855 142.880959 
L 175.588929 134.740283 
L 175.623642 134.740283 
L 175.655506 126.599607 
L 175.733296 134.740283 
L 175.863221 134.740283 
L 175.971323 167.302987 
L 175.993315 167.302987 
L 176.047845 151.021635 
L 176.106269 159.162311 
L 176.227614 159.162311 
L 176.34692 167.302987 
L 176.720761 167.302987 
L 176.7988 159.162311 
L 176.805478 167.302987 
L 176.835194 167.302987 
L 176.845333 175.443663 
L 176.94443 167.302987 
L 176.971505 167.302987 
L 177.11343 183.584339 
L 177.177971 183.584339 
L 177.268251 175.443663 
L 177.380802 175.443663 
L 177.481439 183.584339 
L 177.764601 183.584339 
L 177.896625 159.162311 
L 177.958514 159.162311 
L 178.065024 167.302987 
L 178.087512 167.302987 
L 178.141497 175.443663 
L 178.192436 167.302987 
L 178.203351 167.302987 
L 178.241702 151.021635 
L 178.323241 159.162311 
L 178.532076 183.584339 
L 178.618991 183.584339 
L 178.757619 175.443663 
L 178.812425 175.443663 
L 178.930818 183.584339 
L 179.206493 183.584339 
L 179.303309 167.302987 
L 179.355136 167.302987 
L 179.459732 159.162311 
L 179.547283 159.162311 
L 179.613 167.302987 
L 179.640373 159.162311 
L 179.780072 159.162311 
L 179.891659 167.302987 
L 180.04428 167.302987 
L 180.18465 183.584339 
L 180.631631 183.584339 
L 180.703437 191.725015 
L 181.389952 191.725015 
L 181.563667 159.162311 
L 181.643623 159.162311 
L 181.907782 175.443663 
L 181.97885 159.162311 
L 182.010247 175.443663 
L 182.044558 175.443663 
L 182.163678 183.584339 
L 182.291363 175.443663 
L 182.386206 175.443663 
L 182.52735 167.302987 
L 182.550837 167.302987 
L 182.6473 151.021635 
L 182.768007 151.021635 
L 182.880813 167.302987 
L 183.221757 167.302987 
L 183.320773 151.021635 
L 183.65891 151.021635 
L 183.773183 159.162311 
L 183.882439 151.021635 
L 184.088679 151.021635 
L 184.20606 142.880959 
L 184.277605 142.880959 
L 184.452335 159.162311 
L 184.498211 159.162311 
L 184.61504 167.302987 
L 185.117313 167.302987 
L 185.240389 175.443663 
L 185.355871 175.443663 
L 185.388705 167.302987 
L 185.457396 175.443663 
L 185.527121 175.443663 
L 185.611317 167.302987 
L 185.68685 175.443663 
L 185.97537 175.443663 
L 186.07582 183.584339 
L 186.240321 183.584339 
L 186.375553 175.443663 
L 186.816224 175.443663 
L 186.896349 183.584339 
L 187.280759 183.584339 
L 187.475629 175.443663 
L 187.589425 175.443663 
L 187.706936 183.584339 
L 187.89034 167.302987 
L 187.917623 183.584339 
L 188.57154 183.584339 
L 188.748955 167.302987 
L 188.758693 175.443663 
L 188.810154 175.443663 
L 188.883018 183.584339 
L 188.998443 183.584339 
L 189.035414 175.443663 
L 189.114347 183.584339 
L 189.282134 183.584339 
L 189.4502 175.443663 
L 189.632865 167.302987 
L 189.663283 167.302987 
L 189.688469 159.162311 
L 189.741672 167.302987 
L 189.77692 167.302987 
L 189.888701 183.584339 
L 190.536016 183.584339 
L 190.67154 175.443663 
L 190.739637 183.584339 
L 190.758575 175.443663 
L 190.993394 175.443663 
L 191.049441 167.302987 
L 191.049946 175.443663 
L 191.205817 175.443663 
L 191.217444 167.302987 
L 191.265303 175.443663 
L 191.438243 175.443663 
L 191.504054 183.584339 
L 191.730219 183.584339 
L 191.865752 191.725015 
L 192.058294 183.584339 
L 193.35953 183.584339 
L 193.500726 175.443663 
L 193.789686 175.443663 
L 193.85791 183.584339 
L 194.036383 175.443663 
L 194.194047 175.443663 
L 194.299171 183.584339 
L 194.380264 183.584339 
L 194.462152 175.443663 
L 194.48943 183.584339 
L 194.647433 175.443663 
L 194.728259 183.584339 
L 194.843435 175.443663 
L 194.933323 175.443663 
L 194.997611 167.302987 
L 195.24546 183.584339 
L 195.258587 175.443663 
L 195.368023 151.021635 
L 195.391467 159.162311 
L 195.566544 159.162311 
L 195.610702 167.302987 
L 195.628736 159.162311 
L 195.800575 151.021635 
L 196.053038 151.021635 
L 196.092866 142.880959 
L 196.448692 167.302987 
L 196.539725 183.584339 
L 196.829476 167.302987 
L 196.865015 175.443663 
L 196.919156 167.302987 
L 196.924854 159.162311 
L 197.50661 159.162311 
L 197.66593 175.443663 
L 197.851606 175.443663 
L 197.907245 167.302987 
L 198.039532 167.302987 
L 198.201437 191.725015 
L 198.483417 191.725015 
L 198.525855 183.584339 
L 198.650991 183.584339 
L 198.777871 191.725015 
L 198.799135 183.584339 
L 199.119599 183.584339 
L 199.129369 191.725015 
L 199.142404 183.584339 
L 199.319164 183.584339 
L 199.339734 175.443663 
L 199.944294 175.443663 
L 200.076968 151.021635 
L 200.207678 151.021635 
L 200.296379 142.880959 
L 200.31351 151.021635 
L 200.3416 151.021635 
L 200.414943 142.880959 
L 200.478417 142.880959 
L 200.552589 159.162311 
L 200.598997 159.162311 
L 200.72107 167.302987 
L 200.772741 167.302987 
L 200.892665 175.443663 
L 200.968063 175.443663 
L 200.989615 167.302987 
L 201.096093 175.443663 
L 201.364532 175.443663 
L 201.366916 183.584339 
L 201.629967 175.443663 
L 201.757813 175.443663 
L 201.786215 183.584339 
L 201.846378 175.443663 
L 201.888561 175.443663 
L 202.228964 167.302987 
L 202.376033 167.302987 
L 202.425761 159.162311 
L 202.472577 167.302987 
L 202.605738 167.302987 
L 202.669728 159.162311 
L 202.684547 167.302987 
L 202.733038 167.302987 
L 202.802035 159.162311 
L 202.831976 167.302987 
L 202.966539 151.021635 
L 202.989611 159.162311 
L 203.074343 159.162311 
L 203.182221 167.302987 
L 203.385381 167.302987 
L 203.434415 159.162311 
L 203.608292 175.443663 
L 203.713525 167.302987 
L 203.714575 175.443663 
L 203.863526 183.584339 
L 204.39757 183.584339 
L 204.571727 167.302987 
L 204.587426 175.443663 
L 204.624706 175.443663 
L 204.805329 159.162311 
L 204.894646 167.302987 
L 205.03442 167.302987 
L 205.041016 175.443663 
L 205.228882 175.443663 
L 205.366448 167.302987 
L 205.522581 175.443663 
L 205.643169 175.443663 
L 205.721471 183.584339 
L 206.219878 191.725015 
L 206.286449 183.584339 
L 206.48763 175.443663 
L 206.694487 159.162311 
L 206.794995 167.302987 
L 207.034707 167.302987 
L 207.073818 175.443663 
L 207.544955 175.443663 
L 207.749924 183.584339 
L 209.634329 183.584339 
L 209.96187 191.725015 
L 212.853006 191.725015 
L 213.246975 183.584339 
L 213.51992 191.725015 
L 223.568674 191.725015 
L 223.653442 183.584339 
L 223.776815 183.584339 
L 223.974716 191.725015 
L 224.165511 183.584339 
L 224.207848 175.443663 
L 224.386335 183.584339 
L 224.875649 183.584339 
L 225.001304 191.725015 
L 233.810977 191.725015 
L 233.859041 183.584339 
L 234.031257 191.725015 
L 234.076537 183.584339 
L 234.361023 183.584339 
L 234.390554 191.725015 
L 234.895586 183.584339 
L 235.98257 183.584339 
L 236.036052 191.725015 
L 236.055917 183.584339 
L 236.112203 183.584339 
L 236.18269 175.443663 
L 236.213659 183.584339 
L 239.530697 183.584339 
L 239.913225 191.725015 
L 241.934448 191.725015 
L 242.122388 183.584339 
L 242.246659 191.725015 
L 252.70653 191.725015 
L 252.856278 183.584339 
L 253.092949 191.725015 
L 268.406124 191.725015 
L 268.732871 183.584339 
L 268.869891 183.584339 
L 268.909095 191.725015 
L 269.090597 183.584339 
L 269.630725 183.584339 
L 269.803944 175.443663 
L 269.885884 183.584339 
L 270.195893 183.584339 
L 270.373509 191.725015 
L 272.486788 191.725015 
L 272.797506 183.584339 
L 273.394526 183.584339 
L 273.754061 191.725015 
L 285.481168 191.725015 
L 285.660966 183.584339 
L 285.746922 167.302987 
L 285.921307 167.302987 
L 286.051205 175.443663 
L 286.992592 191.725015 
L 288.243155 191.725015 
L 288.550771 183.584339 
L 288.710046 183.584339 
L 288.795188 191.725015 
L 302.334948 191.725015 
L 302.576989 167.302987 
L 302.802093 191.725015 
L 302.938296 175.443663 
L 302.972092 183.584339 
L 303.060417 183.584339 
L 303.131328 175.443663 
L 303.334741 191.725015 
L 303.478102 175.443663 
L 303.585991 159.162311 
L 303.619079 167.302987 
L 303.655667 167.302987 
L 303.720764 159.162311 
L 303.903092 159.162311 
L 303.915218 151.021635 
L 303.981501 159.162311 
L 304.116299 159.162311 
L 304.197762 167.302987 
L 304.258982 159.162311 
L 304.274036 167.302987 
L 304.37691 167.302987 
L 304.464028 151.021635 
L 304.519537 159.162311 
L 304.617723 159.162311 
L 304.717233 151.021635 
L 304.753439 159.162311 
L 305.30102 191.725015 
L 305.60708 175.443663 
L 305.65432 183.584339 
L 306.013858 183.584339 
L 306.066553 175.443663 
L 306.097214 183.584339 
L 306.256191 183.584339 
L 306.362153 175.443663 
L 306.512099 183.584339 
L 306.833607 183.584339 
L 306.974291 175.443663 
L 307.107709 183.584339 
L 307.265862 159.162311 
L 307.337452 159.162311 
L 307.392147 167.302987 
L 307.471197 167.302987 
L 307.587532 183.584339 
L 308.851227 183.584339 
L 309.069692 191.725015 
L 309.194435 191.725015 
L 309.265901 183.584339 
L 309.445976 191.725015 
L 312.40778 191.725015 
L 312.40778 191.725015 
" clip-path="url(#p6f7ec25651)" style="fill: none; stroke: #000000; stroke-width: 1.5; stroke-linecap: square"/>
   </g>
   <g id="patch_8">
    <path d="M 43.78125 195.795353 
L 43.78125 106.247917 
" style="fill: none; stroke: #000000; stroke-width: 0.8; stroke-linejoin: miter; stroke-linecap: square"/>
   </g>
   <g id="patch_9">
    <path d="M 325.19952 195.795353 
L 325.19952 106.247917 
" style="fill: none; stroke: #000000; stroke-width: 0.8; stroke-linejoin: miter; stroke-linecap: square"/>
   </g>
   <g id="patch_10">
    <path d="M 43.78125 195.795353 
L 325.19952 195.795353 
" style="fill: none; stroke: #000000; stroke-width: 0.8; stroke-linejoin: miter; stroke-linecap: square"/>
   </g>
   <g id="patch_11">
    <path d="M 43.78125 106.247917 
L 325.19952 106.247917 
" style="fill: none; stroke: #000000; stroke-width: 0.8; stroke-linejoin: miter; stroke-linecap: square"/>
   </g>
  </g>
  <g id="axes_3">
   <g id="patch_12">
    <path d="M 43.78125 294.84327 
L 325.19952 294.84327 
L 325.19952 205.295833 
L 43.78125 205.295833 
z
" style="fill: #ffffff"/>
   </g>
   <g id="matplotlib.axis_5">
    <g id="xtick_19">
     <g id="line2d_27">
      <g>
       <use xlink:href="#m57106cdbe0" x="56.57299" y="294.84327" style="stroke: #000000; stroke-width: 0.8"/>
      </g>
     </g>
     <g id="text_9">
      <!-- 0 -->
      <g transform="translate(53.39174 309.441707) scale(0.1 -0.1)">
       <use xlink:href="#DejaVuSans-30"/>
      </g>
     </g>
    </g>
    <g id="xtick_20">
     <g id="line2d_28">
      <g>
       <use xlink:href="#m57106cdbe0" x="88.400625" y="294.84327" style="stroke: #000000; stroke-width: 0.8"/>
      </g>
     </g>
     <g id="text_10">
      <!-- 100 -->
      <g transform="translate(78.856875 309.441707) scale(0.1 -0.1)">
       <use xlink:href="#DejaVuSans-31"/>
       <use xlink:href="#DejaVuSans-30" transform="translate(63.623047 0)"/>
       <use xlink:href="#DejaVuSans-30" transform="translate(127.246094 0)"/>
      </g>
     </g>
    </g>
    <g id="xtick_21">
     <g id="line2d_29">
      <g>
       <use xlink:href="#m57106cdbe0" x="120.22826" y="294.84327" style="stroke: #000000; stroke-width: 0.8"/>
      </g>
     </g>
     <g id="text_11">
      <!-- 200 -->
      <g transform="translate(110.68451 309.441707) scale(0.1 -0.1)">
       <defs>
        <path id="DejaVuSans-32" d="M 1228 531 
L 3431 531 
L 3431 0 
L 469 0 
L 469 531 
Q 828 903 1448 1529 
Q 2069 2156 2228 2338 
Q 2531 2678 2651 2914 
Q 2772 3150 2772 3378 
Q 2772 3750 2511 3984 
Q 2250 4219 1831 4219 
Q 1534 4219 1204 4116 
Q 875 4013 500 3803 
L 500 4441 
Q 881 4594 1212 4672 
Q 1544 4750 1819 4750 
Q 2544 4750 2975 4387 
Q 3406 4025 3406 3419 
Q 3406 3131 3298 2873 
Q 3191 2616 2906 2266 
Q 2828 2175 2409 1742 
Q 1991 1309 1228 531 
z
" transform="scale(0.015625)"/>
       </defs>
       <use xlink:href="#DejaVuSans-32"/>
       <use xlink:href="#DejaVuSans-30" transform="translate(63.623047 0)"/>
       <use xlink:href="#DejaVuSans-30" transform="translate(127.246094 0)"/>
      </g>
     </g>
    </g>
    <g id="xtick_22">
     <g id="line2d_30">
      <g>
       <use xlink:href="#m57106cdbe0" x="152.055895" y="294.84327" style="stroke: #000000; stroke-width: 0.8"/>
      </g>
     </g>
     <g id="text_12">
      <!-- 300 -->
      <g transform="translate(142.512145 309.441707) scale(0.1 -0.1)">
       <defs>
        <path id="DejaVuSans-33" d="M 2597 2516 
Q 3050 2419 3304 2112 
Q 3559 1806 3559 1356 
Q 3559 666 3084 287 
Q 2609 -91 1734 -91 
Q 1441 -91 1130 -33 
Q 819 25 488 141 
L 488 750 
Q 750 597 1062 519 
Q 1375 441 1716 441 
Q 2309 441 2620 675 
Q 2931 909 2931 1356 
Q 2931 1769 2642 2001 
Q 2353 2234 1838 2234 
L 1294 2234 
L 1294 2753 
L 1863 2753 
Q 2328 2753 2575 2939 
Q 2822 3125 2822 3475 
Q 2822 3834 2567 4026 
Q 2313 4219 1838 4219 
Q 1578 4219 1281 4162 
Q 984 4106 628 3988 
L 628 4550 
Q 988 4650 1302 4700 
Q 1616 4750 1894 4750 
Q 2613 4750 3031 4423 
Q 3450 4097 3450 3541 
Q 3450 3153 3228 2886 
Q 3006 2619 2597 2516 
z
" transform="scale(0.015625)"/>
       </defs>
       <use xlink:href="#DejaVuSans-33"/>
       <use xlink:href="#DejaVuSans-30" transform="translate(63.623047 0)"/>
       <use xlink:href="#DejaVuSans-30" transform="translate(127.246094 0)"/>
      </g>
     </g>
    </g>
    <g id="xtick_23">
     <g id="line2d_31">
      <g>
       <use xlink:href="#m57106cdbe0" x="183.88353" y="294.84327" style="stroke: #000000; stroke-width: 0.8"/>
      </g>
     </g>
     <g id="text_13">
      <!-- 400 -->
      <g transform="translate(174.33978 309.441707) scale(0.1 -0.1)">
       <defs>
        <path id="DejaVuSans-34" d="M 2419 4116 
L 825 1625 
L 2419 1625 
L 2419 4116 
z
M 2253 4666 
L 3047 4666 
L 3047 1625 
L 3713 1625 
L 3713 1100 
L 3047 1100 
L 3047 0 
L 2419 0 
L 2419 1100 
L 313 1100 
L 313 1709 
L 2253 4666 
z
" transform="scale(0.015625)"/>
       </defs>
       <use xlink:href="#DejaVuSans-34"/>
       <use xlink:href="#DejaVuSans-30" transform="translate(63.623047 0)"/>
       <use xlink:href="#DejaVuSans-30" transform="translate(127.246094 0)"/>
      </g>
     </g>
    </g>
    <g id="xtick_24">
     <g id="line2d_32">
      <g>
       <use xlink:href="#m57106cdbe0" x="215.711165" y="294.84327" style="stroke: #000000; stroke-width: 0.8"/>
      </g>
     </g>
     <g id="text_14">
      <!-- 500 -->
      <g transform="translate(206.167415 309.441707) scale(0.1 -0.1)">
       <use xlink:href="#DejaVuSans-35"/>
       <use xlink:href="#DejaVuSans-30" transform="translate(63.623047 0)"/>
       <use xlink:href="#DejaVuSans-30" transform="translate(127.246094 0)"/>
      </g>
     </g>
    </g>
    <g id="xtick_25">
     <g id="line2d_33">
      <g>
       <use xlink:href="#m57106cdbe0" x="247.5388" y="294.84327" style="stroke: #000000; stroke-width: 0.8"/>
      </g>
     </g>
     <g id="text_15">
      <!-- 600 -->
      <g transform="translate(237.99505 309.441707) scale(0.1 -0.1)">
       <defs>
        <path id="DejaVuSans-36" d="M 2113 2584 
Q 1688 2584 1439 2293 
Q 1191 2003 1191 1497 
Q 1191 994 1439 701 
Q 1688 409 2113 409 
Q 2538 409 2786 701 
Q 3034 994 3034 1497 
Q 3034 2003 2786 2293 
Q 2538 2584 2113 2584 
z
M 3366 4563 
L 3366 3988 
Q 3128 4100 2886 4159 
Q 2644 4219 2406 4219 
Q 1781 4219 1451 3797 
Q 1122 3375 1075 2522 
Q 1259 2794 1537 2939 
Q 1816 3084 2150 3084 
Q 2853 3084 3261 2657 
Q 3669 2231 3669 1497 
Q 3669 778 3244 343 
Q 2819 -91 2113 -91 
Q 1303 -91 875 529 
Q 447 1150 447 2328 
Q 447 3434 972 4092 
Q 1497 4750 2381 4750 
Q 2619 4750 2861 4703 
Q 3103 4656 3366 4563 
z
" transform="scale(0.015625)"/>
       </defs>
       <use xlink:href="#DejaVuSans-36"/>
       <use xlink:href="#DejaVuSans-30" transform="translate(63.623047 0)"/>
       <use xlink:href="#DejaVuSans-30" transform="translate(127.246094 0)"/>
      </g>
     </g>
    </g>
    <g id="xtick_26">
     <g id="line2d_34">
      <g>
       <use xlink:href="#m57106cdbe0" x="279.366435" y="294.84327" style="stroke: #000000; stroke-width: 0.8"/>
      </g>
     </g>
     <g id="text_16">
      <!-- 700 -->
      <g transform="translate(269.822685 309.441707) scale(0.1 -0.1)">
       <defs>
        <path id="DejaVuSans-37" d="M 525 4666 
L 3525 4666 
L 3525 4397 
L 1831 0 
L 1172 0 
L 2766 4134 
L 525 4134 
L 525 4666 
z
" transform="scale(0.015625)"/>
       </defs>
       <use xlink:href="#DejaVuSans-37"/>
       <use xlink:href="#DejaVuSans-30" transform="translate(63.623047 0)"/>
       <use xlink:href="#DejaVuSans-30" transform="translate(127.246094 0)"/>
      </g>
     </g>
    </g>
    <g id="xtick_27">
     <g id="line2d_35">
      <g>
       <use xlink:href="#m57106cdbe0" x="311.19407" y="294.84327" style="stroke: #000000; stroke-width: 0.8"/>
      </g>
     </g>
     <g id="text_17">
      <!-- 800 -->
      <g transform="translate(301.65032 309.441707) scale(0.1 -0.1)">
       <defs>
        <path id="DejaVuSans-38" d="M 2034 2216 
Q 1584 2216 1326 1975 
Q 1069 1734 1069 1313 
Q 1069 891 1326 650 
Q 1584 409 2034 409 
Q 2484 409 2743 651 
Q 3003 894 3003 1313 
Q 3003 1734 2745 1975 
Q 2488 2216 2034 2216 
z
M 1403 2484 
Q 997 2584 770 2862 
Q 544 3141 544 3541 
Q 544 4100 942 4425 
Q 1341 4750 2034 4750 
Q 2731 4750 3128 4425 
Q 3525 4100 3525 3541 
Q 3525 3141 3298 2862 
Q 3072 2584 2669 2484 
Q 3125 2378 3379 2068 
Q 3634 1759 3634 1313 
Q 3634 634 3220 271 
Q 2806 -91 2034 -91 
Q 1263 -91 848 271 
Q 434 634 434 1313 
Q 434 1759 690 2068 
Q 947 2378 1403 2484 
z
M 1172 3481 
Q 1172 3119 1398 2916 
Q 1625 2713 2034 2713 
Q 2441 2713 2670 2916 
Q 2900 3119 2900 3481 
Q 2900 3844 2670 4047 
Q 2441 4250 2034 4250 
Q 1625 4250 1398 4047 
Q 1172 3844 1172 3481 
z
" transform="scale(0.015625)"/>
       </defs>
       <use xlink:href="#DejaVuSans-38"/>
       <use xlink:href="#DejaVuSans-30" transform="translate(63.623047 0)"/>
       <use xlink:href="#DejaVuSans-30" transform="translate(127.246094 0)"/>
      </g>
     </g>
    </g>
    <g id="text_18">
     <!-- Time -->
     <g transform="translate(172.256791 323.119832) scale(0.1 -0.1)">
      <defs>
       <path id="DejaVuSans-54" d="M -19 4666 
L 3928 4666 
L 3928 4134 
L 2272 4134 
L 2272 0 
L 1638 0 
L 1638 4134 
L -19 4134 
L -19 4666 
z
" transform="scale(0.015625)"/>
       <path id="DejaVuSans-69" d="M 603 3500 
L 1178 3500 
L 1178 0 
L 603 0 
L 603 3500 
z
M 603 4863 
L 1178 4863 
L 1178 4134 
L 603 4134 
L 603 4863 
z
" transform="scale(0.015625)"/>
       <path id="DejaVuSans-6d" d="M 3328 2828 
Q 3544 3216 3844 3400 
Q 4144 3584 4550 3584 
Q 5097 3584 5394 3201 
Q 5691 2819 5691 2113 
L 5691 0 
L 5113 0 
L 5113 2094 
Q 5113 2597 4934 2840 
Q 4756 3084 4391 3084 
Q 3944 3084 3684 2787 
Q 3425 2491 3425 1978 
L 3425 0 
L 2847 0 
L 2847 2094 
Q 2847 2600 2669 2842 
Q 2491 3084 2119 3084 
Q 1678 3084 1418 2786 
Q 1159 2488 1159 1978 
L 1159 0 
L 581 0 
L 581 3500 
L 1159 3500 
L 1159 2956 
Q 1356 3278 1631 3431 
Q 1906 3584 2284 3584 
Q 2666 3584 2933 3390 
Q 3200 3197 3328 2828 
z
" transform="scale(0.015625)"/>
      </defs>
      <use xlink:href="#DejaVuSans-54"/>
      <use xlink:href="#DejaVuSans-69" transform="translate(57.958984 0)"/>
      <use xlink:href="#DejaVuSans-6d" transform="translate(85.742188 0)"/>
      <use xlink:href="#DejaVuSans-65" transform="translate(183.154297 0)"/>
     </g>
    </g>
   </g>
   <g id="matplotlib.axis_6">
    <g id="ytick_7">
     <g id="line2d_36">
      <g>
       <use xlink:href="#m763ee469a3" x="43.78125" y="290.772932" style="stroke: #000000; stroke-width: 0.8"/>
      </g>
     </g>
     <g id="text_19">
      <!-- 0.0 -->
      <g transform="translate(20.878125 294.572151) scale(0.1 -0.1)">
       <defs>
        <path id="DejaVuSans-2e" d="M 684 794 
L 1344 794 
L 1344 0 
L 684 0 
L 684 794 
z
" transform="scale(0.015625)"/>
       </defs>
       <use xlink:href="#DejaVuSans-30"/>
       <use xlink:href="#DejaVuSans-2e" transform="translate(63.623047 0)"/>
       <use xlink:href="#DejaVuSans-30" transform="translate(95.410156 0)"/>
      </g>
     </g>
    </g>
    <g id="ytick_8">
     <g id="line2d_37">
      <g>
       <use xlink:href="#m763ee469a3" x="43.78125" y="250.069552" style="stroke: #000000; stroke-width: 0.8"/>
      </g>
     </g>
     <g id="text_20">
      <!-- 0.5 -->
      <g transform="translate(20.878125 253.86877) scale(0.1 -0.1)">
       <use xlink:href="#DejaVuSans-30"/>
       <use xlink:href="#DejaVuSans-2e" transform="translate(63.623047 0)"/>
       <use xlink:href="#DejaVuSans-35" transform="translate(95.410156 0)"/>
      </g>
     </g>
    </g>
    <g id="ytick_9">
     <g id="line2d_38">
      <g>
       <use xlink:href="#m763ee469a3" x="43.78125" y="209.366171" style="stroke: #000000; stroke-width: 0.8"/>
      </g>
     </g>
     <g id="text_21">
      <!-- 1.0 -->
      <g transform="translate(20.878125 213.16539) scale(0.1 -0.1)">
       <use xlink:href="#DejaVuSans-31"/>
       <use xlink:href="#DejaVuSans-2e" transform="translate(63.623047 0)"/>
       <use xlink:href="#DejaVuSans-30" transform="translate(95.410156 0)"/>
      </g>
     </g>
    </g>
    <g id="text_22">
     <!-- Free lac operon -->
     <g transform="translate(14.798438 288.540645) rotate(-90) scale(0.1 -0.1)">
      <defs>
       <path id="DejaVuSans-46" d="M 628 4666 
L 3309 4666 
L 3309 4134 
L 1259 4134 
L 1259 2759 
L 3109 2759 
L 3109 2228 
L 1259 2228 
L 1259 0 
L 628 0 
L 628 4666 
z
" transform="scale(0.015625)"/>
       <path id="DejaVuSans-70" d="M 1159 525 
L 1159 -1331 
L 581 -1331 
L 581 3500 
L 1159 3500 
L 1159 2969 
Q 1341 3281 1617 3432 
Q 1894 3584 2278 3584 
Q 2916 3584 3314 3078 
Q 3713 2572 3713 1747 
Q 3713 922 3314 415 
Q 2916 -91 2278 -91 
Q 1894 -91 1617 61 
Q 1341 213 1159 525 
z
M 3116 1747 
Q 3116 2381 2855 2742 
Q 2594 3103 2138 3103 
Q 1681 3103 1420 2742 
Q 1159 2381 1159 1747 
Q 1159 1113 1420 752 
Q 1681 391 2138 391 
Q 2594 391 2855 752 
Q 3116 1113 3116 1747 
z
" transform="scale(0.015625)"/>
       <path id="DejaVuSans-6e" d="M 3513 2113 
L 3513 0 
L 2938 0 
L 2938 2094 
Q 2938 2591 2744 2837 
Q 2550 3084 2163 3084 
Q 1697 3084 1428 2787 
Q 1159 2491 1159 1978 
L 1159 0 
L 581 0 
L 581 3500 
L 1159 3500 
L 1159 2956 
Q 1366 3272 1645 3428 
Q 1925 3584 2291 3584 
Q 2894 3584 3203 3211 
Q 3513 2838 3513 2113 
z
" transform="scale(0.015625)"/>
      </defs>
      <use xlink:href="#DejaVuSans-46"/>
      <use xlink:href="#DejaVuSans-72" transform="translate(50.269531 0)"/>
      <use xlink:href="#DejaVuSans-65" transform="translate(89.132812 0)"/>
      <use xlink:href="#DejaVuSans-65" transform="translate(150.65625 0)"/>
      <use xlink:href="#DejaVuSans-20" transform="translate(212.179688 0)"/>
      <use xlink:href="#DejaVuSans-6c" transform="translate(243.966797 0)"/>
      <use xlink:href="#DejaVuSans-61" transform="translate(271.75 0)"/>
      <use xlink:href="#DejaVuSans-63" transform="translate(333.029297 0)"/>
      <use xlink:href="#DejaVuSans-20" transform="translate(388.009766 0)"/>
      <use xlink:href="#DejaVuSans-6f" transform="translate(419.796875 0)"/>
      <use xlink:href="#DejaVuSans-70" transform="translate(480.978516 0)"/>
      <use xlink:href="#DejaVuSans-65" transform="translate(544.455078 0)"/>
      <use xlink:href="#DejaVuSans-72" transform="translate(605.978516 0)"/>
      <use xlink:href="#DejaVuSans-6f" transform="translate(644.841797 0)"/>
      <use xlink:href="#DejaVuSans-6e" transform="translate(706.023438 0)"/>
     </g>
    </g>
   </g>
   <g id="line2d_39">
    <path d="M 56.57299 209.366171 
L 56.654393 290.772932 
L 56.822452 290.772932 
L 56.991802 209.366171 
L 57.109808 209.366171 
L 57.211801 290.772932 
L 58.426427 290.772932 
L 59.414927 209.366171 
L 59.601017 209.366171 
L 59.623731 290.772932 
L 62.041892 290.772932 
L 64.632891 209.366171 
L 64.927387 209.366171 
L 65.064644 290.772932 
L 65.190346 290.772932 
L 71.843731 209.366171 
L 72.01329 290.772932 
L 79.842238 209.366171 
L 79.891208 290.772932 
L 82.514107 209.366171 
L 82.653907 209.366171 
L 82.707996 290.772932 
L 84.445964 290.772932 
L 84.511309 209.366171 
L 85.386407 209.366171 
L 85.576126 290.772932 
L 86.607561 290.772932 
L 89.596085 209.366171 
L 90.135354 209.366171 
L 90.164594 290.772932 
L 90.522013 290.772932 
L 91.402204 209.366171 
L 91.460571 290.772932 
L 91.803943 290.772932 
L 108.855489 209.366171 
L 108.869172 290.772932 
L 109.127283 290.772932 
L 109.403034 209.366171 
L 109.689994 290.772932 
L 109.817888 209.366171 
L 110.225079 209.366171 
L 110.429381 290.772932 
L 110.72162 290.772932 
L 114.878043 209.366171 
L 115.537758 290.772932 
L 117.17753 209.366171 
L 117.492327 290.772932 
L 118.163823 209.366171 
L 118.251027 290.772932 
L 119.258993 209.366171 
L 119.343785 290.772932 
L 123.281167 290.772932 
L 129.291696 209.366171 
L 129.397496 290.772932 
L 131.137361 209.366171 
L 131.58753 209.366171 
L 131.608941 290.772932 
L 133.446688 290.772932 
L 136.03874 209.366171 
L 136.052029 290.772932 
L 138.929104 209.366171 
L 138.971776 290.772932 
L 146.005334 209.366171 
L 146.948352 209.366171 
L 147.01657 290.772932 
L 147.632143 290.772932 
L 147.876836 209.366171 
L 148.191279 209.366171 
L 148.303869 290.772932 
L 149.372994 290.772932 
L 149.883716 209.366171 
L 149.984329 290.772932 
L 151.103869 290.772932 
L 151.115174 209.366171 
L 151.276487 290.772932 
L 155.579008 209.366171 
L 155.667818 290.772932 
L 155.91679 209.366171 
L 208.182604 209.366171 
L 208.310158 290.772932 
L 210.886704 290.772932 
L 211.825898 209.366171 
L 212.1012 290.772932 
L 212.853006 209.366171 
L 213.453545 209.366171 
L 213.51992 290.772932 
L 214.587864 290.772932 
L 223.653442 209.366171 
L 224.32607 209.366171 
L 224.386335 290.772932 
L 225.515065 290.772932 
L 231.489299 209.366171 
L 231.739673 290.772932 
L 233.859041 209.366171 
L 234.895586 209.366171 
L 235.320099 290.772932 
L 235.867025 290.772932 
L 236.055917 209.366171 
L 236.213659 209.366171 
L 236.391313 290.772932 
L 239.913225 290.772932 
L 241.381945 209.366171 
L 241.479463 290.772932 
L 241.934448 209.366171 
L 242.246659 209.366171 
L 242.416262 290.772932 
L 242.469377 209.366171 
L 242.520907 290.772932 
L 243.787876 290.772932 
L 252.70653 209.366171 
L 252.851645 209.366171 
L 252.856278 290.772932 
L 253.359254 290.772932 
L 264.320143 209.366171 
L 264.45838 290.772932 
L 266.688443 209.366171 
L 267.023093 290.772932 
L 268.238034 209.366171 
L 268.262369 290.772932 
L 268.406124 209.366171 
L 269.757473 209.366171 
L 269.761959 290.772932 
L 269.828668 209.366171 
L 269.885884 209.366171 
L 270.195893 290.772932 
L 270.373509 290.772932 
L 272.486788 209.366171 
L 272.784337 209.366171 
L 272.797506 290.772932 
L 273.754061 290.772932 
L 285.092114 209.366171 
L 285.226713 290.772932 
L 285.481168 209.366171 
L 285.798193 209.366171 
L 285.921307 290.772932 
L 286.992592 290.772932 
L 288.243155 209.366171 
L 288.454086 209.366171 
L 288.550771 290.772932 
L 288.718757 209.366171 
L 288.795188 290.772932 
L 289.419099 209.366171 
L 289.738379 290.772932 
L 295.826632 209.366171 
L 296.06722 290.772932 
L 300.512209 209.366171 
L 300.532661 290.772932 
L 302.408109 209.366171 
L 307.341031 209.366171 
L 307.492617 290.772932 
L 309.069692 290.772932 
L 309.265901 209.366171 
L 309.443073 209.366171 
L 309.445976 290.772932 
L 309.841456 290.772932 
L 312.40778 209.366171 
L 312.40778 209.366171 
" clip-path="url(#pd6834bb640)" style="fill: none; stroke: #000000; stroke-width: 1.5; stroke-linecap: square"/>
   </g>
   <g id="patch_13">
    <path d="M 43.78125 294.84327 
L 43.78125 205.295833 
" style="fill: none; stroke: #000000; stroke-width: 0.8; stroke-linejoin: miter; stroke-linecap: square"/>
   </g>
   <g id="patch_14">
    <path d="M 325.19952 294.84327 
L 325.19952 205.295833 
" style="fill: none; stroke: #000000; stroke-width: 0.8; stroke-linejoin: miter; stroke-linecap: square"/>
   </g>
   <g id="patch_15">
    <path d="M 43.78125 294.84327 
L 325.19952 294.84327 
" style="fill: none; stroke: #000000; stroke-width: 0.8; stroke-linejoin: miter; stroke-linecap: square"/>
   </g>
   <g id="patch_16">
    <path d="M 43.78125 205.295833 
L 325.19952 205.295833 
" style="fill: none; stroke: #000000; stroke-width: 0.8; stroke-linejoin: miter; stroke-linecap: square"/>
   </g>
  </g>
 </g>
 <defs>
  <clipPath id="pd2a36055d0">
   <rect x="43.78125" y="7.2" width="281.41827" height="89.547437"/>
  </clipPath>
  <clipPath id="p6f7ec25651">
   <rect x="43.78125" y="106.247917" width="281.41827" height="89.547437"/>
  </clipPath>
  <clipPath id="pd6834bb640">
   <rect x="43.78125" y="205.295833" width="281.41827" height="89.547437"/>
  </clipPath>
 </defs>
</svg>
