<?xml version="1.0" encoding="utf-8" standalone="no"?>
<!DOCTYPE svg PUBLIC "-//W3C//DTD SVG 1.1//EN"
  "http://www.w3.org/Graphics/SVG/1.1/DTD/svg11.dtd">
<svg xmlns:xlink="http://www.w3.org/1999/xlink" width="332.39952pt" height="332.39952pt" viewBox="0 0 332.39952 332.39952" xmlns="http://www.w3.org/2000/svg" version="1.1">
 <metadata>
  <rdf:RDF xmlns:dc="http://purl.org/dc/elements/1.1/" xmlns:cc="http://creativecommons.org/ns#" xmlns:rdf="http://www.w3.org/1999/02/22-rdf-syntax-ns#">
   <cc:Work>
    <dc:type rdf:resource="http://purl.org/dc/dcmitype/StillImage"/>
    <dc:date>2026-05-18T16:57:48.263815</dc:date>
    <dc:format>image/svg+xml</dc:format>
    <dc:creator>
     <cc:Agent>
      <dc:title>Matplotlib v3.10.9, https://matplotlib.org/</dc:title>
     </cc:Agent>
    </dc:creator>
   </cc:Work>
  </rdf:RDF>
 </metadata>
 <defs>
  <style type="text/css">*{stroke-linejoin: round; stroke-linecap: butt}</style>
 </defs>
 <g id="figure_1">
  <g id="patch_1">
   <path d="M 0 332.39952 
L 332.39952 332.39952 
L 332.39952 0 
L 0 0 
z
" style="fill: #ffffff"/>
  </g>
  <g id="axes_1">
   <g id="patch_2">
    <path d="M 43.78125 96.747437 
L 325.19952 96.747437 
L 325.19952 7.2 
L 43.78125 7.2 
z
" style="fill: #ffffff"/>
   </g>
   <g id="matplotlib.axis_1">
    <g id="xtick_1">
     <g id="line2d_1">
      <defs>
       <path id="mf1c3b80702" d="M 0 0 
L 0 3.5 
" style="stroke: #000000; stroke-width: 0.8"/>
      </defs>
      <g>
       <use xlink:href="#mf1c3b80702" x="56.57299" y="96.747437" style="stroke: #000000; stroke-width: 0.8"/>
      </g>
     </g>
    </g>
    <g id="xtick_2">
     <g id="line2d_2">
      <g>
       <use xlink:href="#mf1c3b80702" x="88.536337" y="96.747437" style="stroke: #000000; stroke-width: 0.8"/>
      </g>
     </g>
    </g>
    <g id="xtick_3">
     <g id="line2d_3">
      <g>
       <use xlink:href="#mf1c3b80702" x="120.499684" y="96.747437" style="stroke: #000000; stroke-width: 0.8"/>
      </g>
     </g>
    </g>
    <g id="xtick_4">
     <g id="line2d_4">
      <g>
       <use xlink:href="#mf1c3b80702" x="152.463031" y="96.747437" style="stroke: #000000; stroke-width: 0.8"/>
      </g>
     </g>
    </g>
    <g id="xtick_5">
     <g id="line2d_5">
      <g>
       <use xlink:href="#mf1c3b80702" x="184.426378" y="96.747437" style="stroke: #000000; stroke-width: 0.8"/>
      </g>
     </g>
    </g>
    <g id="xtick_6">
     <g id="line2d_6">
      <g>
       <use xlink:href="#mf1c3b80702" x="216.389725" y="96.747437" style="stroke: #000000; stroke-width: 0.8"/>
      </g>
     </g>
    </g>
    <g id="xtick_7">
     <g id="line2d_7">
      <g>
       <use xlink:href="#mf1c3b80702" x="248.353073" y="96.747437" style="stroke: #000000; stroke-width: 0.8"/>
      </g>
     </g>
    </g>
    <g id="xtick_8">
     <g id="line2d_8">
      <g>
       <use xlink:href="#mf1c3b80702" x="280.31642" y="96.747437" style="stroke: #000000; stroke-width: 0.8"/>
      </g>
     </g>
    </g>
    <g id="xtick_9">
     <g id="line2d_9">
      <g>
       <use xlink:href="#mf1c3b80702" x="312.279767" y="96.747437" style="stroke: #000000; stroke-width: 0.8"/>
      </g>
     </g>
    </g>
   </g>
   <g id="matplotlib.axis_2">
    <g id="ytick_1">
     <g id="line2d_10">
      <defs>
       <path id="m9f3e7cc3c3" d="M 0 0 
L -3.5 0 
" style="stroke: #000000; stroke-width: 0.8"/>
      </defs>
      <g>
       <use xlink:href="#m9f3e7cc3c3" x="43.78125" y="92.677099" style="stroke: #000000; stroke-width: 0.8"/>
      </g>
     </g>
     <g id="text_1">
      <!-- 0 -->
      <g transform="translate(30.41875 96.476317) scale(0.1 -0.1)">
       <defs>
        <path id="DejaVuSans-30" d="M 2034 4250 
Q 1547 4250 1301 3770 
Q 1056 3291 1056 2328 
Q 1056 1369 1301 889 
Q 1547 409 2034 409 
Q 2525 409 2770 889 
Q 3016 1369 3016 2328 
Q 3016 3291 2770 3770 
Q 2525 4250 2034 4250 
z
M 2034 4750 
Q 2819 4750 3233 4129 
Q 3647 3509 3647 2328 
Q 3647 1150 3233 529 
Q 2819 -91 2034 -91 
Q 1250 -91 836 529 
Q 422 1150 422 2328 
Q 422 3509 836 4129 
Q 1250 4750 2034 4750 
z
" transform="scale(0.015625)"/>
       </defs>
       <use xlink:href="#DejaVuSans-30"/>
      </g>
     </g>
    </g>
    <g id="ytick_2">
     <g id="line2d_11">
      <g>
       <use xlink:href="#m9f3e7cc3c3" x="43.78125" y="51.973718" style="stroke: #000000; stroke-width: 0.8"/>
      </g>
     </g>
     <g id="text_2">
      <!-- 5 -->
      <g transform="translate(30.41875 55.772937) scale(0.1 -0.1)">
       <defs>
        <path id="DejaVuSans-35" d="M 691 4666 
L 3169 4666 
L 3169 4134 
L 1269 4134 
L 1269 2991 
Q 1406 3038 1543 3061 
Q 1681 3084 1819 3084 
Q 2600 3084 3056 2656 
Q 3513 2228 3513 1497 
Q 3513 744 3044 326 
Q 2575 -91 1722 -91 
Q 1428 -91 1123 -41 
Q 819 9 494 109 
L 494 744 
Q 775 591 1075 516 
Q 1375 441 1709 441 
Q 2250 441 2565 725 
Q 2881 1009 2881 1497 
Q 2881 1984 2565 2268 
Q 2250 2553 1709 2553 
Q 1456 2553 1204 2497 
Q 953 2441 691 2322 
L 691 4666 
z
" transform="scale(0.015625)"/>
       </defs>
       <use xlink:href="#DejaVuSans-35"/>
      </g>
     </g>
    </g>
    <g id="ytick_3">
     <g id="line2d_12">
      <g>
       <use xlink:href="#m9f3e7cc3c3" x="43.78125" y="11.270338" style="stroke: #000000; stroke-width: 0.8"/>
      </g>
     </g>
     <g id="text_3">
      <!-- 10 -->
      <g transform="translate(24.05625 15.069557) scale(0.1 -0.1)">
       <defs>
        <path id="DejaVuSans-31" d="M 794 531 
L 1825 531 
L 1825 4091 
L 703 3866 
L 703 4441 
L 1819 4666 
L 2450 4666 
L 2450 531 
L 3481 531 
L 3481 0 
L 794 0 
L 794 531 
z
" transform="scale(0.015625)"/>
       </defs>
       <use xlink:href="#DejaVuSans-31"/>
       <use xlink:href="#DejaVuSans-30" transform="translate(63.623047 0)"/>
      </g>
     </g>
    </g>
    <g id="text_4">
     <!-- Extracellular lactose -->
     <g transform="translate(17.976562 102.945593) rotate(-90) scale(0.1 -0.1)">
      <defs>
       <path id="DejaVuSans-45" d="M 628 4666 
L 3578 4666 
L 3578 4134 
L 1259 4134 
L 1259 2753 
L 3481 2753 
L 3481 2222 
L 1259 2222 
L 1259 531 
L 3634 531 
L 3634 0 
L 628 0 
L 628 4666 
z
" transform="scale(0.015625)"/>
       <path id="DejaVuSans-78" d="M 3513 3500 
L 2247 1797 
L 3578 0 
L 2900 0 
L 1881 1375 
L 863 0 
L 184 0 
L 1544 1831 
L 300 3500 
L 978 3500 
L 1906 2253 
L 2834 3500 
L 3513 3500 
z
" transform="scale(0.015625)"/>
       <path id="DejaVuSans-74" d="M 1172 4494 
L 1172 3500 
L 2356 3500 
L 2356 3053 
L 1172 3053 
L 1172 1153 
Q 1172 725 1289 603 
Q 1406 481 1766 481 
L 2356 481 
L 2356 0 
L 1766 0 
Q 1100 0 847 248 
Q 594 497 594 1153 
L 594 3053 
L 172 3053 
L 172 3500 
L 594 3500 
L 594 4494 
L 1172 4494 
z
" transform="scale(0.015625)"/>
       <path id="DejaVuSans-72" d="M 2631 2963 
Q 2534 3019 2420 3045 
Q 2306 3072 2169 3072 
Q 1681 3072 1420 2755 
Q 1159 2438 1159 1844 
L 1159 0 
L 581 0 
L 581 3500 
L 1159 3500 
L 1159 2956 
Q 1341 3275 1631 3429 
Q 1922 3584 2338 3584 
Q 2397 3584 2469 3576 
Q 2541 3569 2628 3553 
L 2631 2963 
z
" transform="scale(0.015625)"/>
       <path id="DejaVuSans-61" d="M 2194 1759 
Q 1497 1759 1228 1600 
Q 959 1441 959 1056 
Q 959 750 1161 570 
Q 1363 391 1709 391 
Q 2188 391 2477 730 
Q 2766 1069 2766 1631 
L 2766 1759 
L 2194 1759 
z
M 3341 1997 
L 3341 0 
L 2766 0 
L 2766 531 
Q 2569 213 2275 61 
Q 1981 -91 1556 -91 
Q 1019 -91 701 211 
Q 384 513 384 1019 
Q 384 1609 779 1909 
Q 1175 2209 1959 2209 
L 2766 2209 
L 2766 2266 
Q 2766 2663 2505 2880 
Q 2244 3097 1772 3097 
Q 1472 3097 1187 3025 
Q 903 2953 641 2809 
L 641 3341 
Q 956 3463 1253 3523 
Q 1550 3584 1831 3584 
Q 2591 3584 2966 3190 
Q 3341 2797 3341 1997 
z
" transform="scale(0.015625)"/>
       <path id="DejaVuSans-63" d="M 3122 3366 
L 3122 2828 
Q 2878 2963 2633 3030 
Q 2388 3097 2138 3097 
Q 1578 3097 1268 2742 
Q 959 2388 959 1747 
Q 959 1106 1268 751 
Q 1578 397 2138 397 
Q 2388 397 2633 464 
Q 2878 531 3122 666 
L 3122 134 
Q 2881 22 2623 -34 
Q 2366 -91 2075 -91 
Q 1284 -91 818 406 
Q 353 903 353 1747 
Q 353 2603 823 3093 
Q 1294 3584 2113 3584 
Q 2378 3584 2631 3529 
Q 2884 3475 3122 3366 
z
" transform="scale(0.015625)"/>
       <path id="DejaVuSans-65" d="M 3597 1894 
L 3597 1613 
L 953 1613 
Q 991 1019 1311 708 
Q 1631 397 2203 397 
Q 2534 397 2845 478 
Q 3156 559 3463 722 
L 3463 178 
Q 3153 47 2828 -22 
Q 2503 -91 2169 -91 
Q 1331 -91 842 396 
Q 353 884 353 1716 
Q 353 2575 817 3079 
Q 1281 3584 2069 3584 
Q 2775 3584 3186 3129 
Q 3597 2675 3597 1894 
z
M 3022 2063 
Q 3016 2534 2758 2815 
Q 2500 3097 2075 3097 
Q 1594 3097 1305 2825 
Q 1016 2553 972 2059 
L 3022 2063 
z
" transform="scale(0.015625)"/>
       <path id="DejaVuSans-6c" d="M 603 4863 
L 1178 4863 
L 1178 0 
L 603 0 
L 603 4863 
z
" transform="scale(0.015625)"/>
       <path id="DejaVuSans-75" d="M 544 1381 
L 544 3500 
L 1119 3500 
L 1119 1403 
Q 1119 906 1312 657 
Q 1506 409 1894 409 
Q 2359 409 2629 706 
Q 2900 1003 2900 1516 
L 2900 3500 
L 3475 3500 
L 3475 0 
L 2900 0 
L 2900 538 
Q 2691 219 2414 64 
Q 2138 -91 1772 -91 
Q 1169 -91 856 284 
Q 544 659 544 1381 
z
M 1991 3584 
L 1991 3584 
z
" transform="scale(0.015625)"/>
       <path id="DejaVuSans-20" transform="scale(0.015625)"/>
       <path id="DejaVuSans-6f" d="M 1959 3097 
Q 1497 3097 1228 2736 
Q 959 2375 959 1747 
Q 959 1119 1226 758 
Q 1494 397 1959 397 
Q 2419 397 2687 759 
Q 2956 1122 2956 1747 
Q 2956 2369 2687 2733 
Q 2419 3097 1959 3097 
z
M 1959 3584 
Q 2709 3584 3137 3096 
Q 3566 2609 3566 1747 
Q 3566 888 3137 398 
Q 2709 -91 1959 -91 
Q 1206 -91 779 398 
Q 353 888 353 1747 
Q 353 2609 779 3096 
Q 1206 3584 1959 3584 
z
" transform="scale(0.015625)"/>
       <path id="DejaVuSans-73" d="M 2834 3397 
L 2834 2853 
Q 2591 2978 2328 3040 
Q 2066 3103 1784 3103 
Q 1356 3103 1142 2972 
Q 928 2841 928 2578 
Q 928 2378 1081 2264 
Q 1234 2150 1697 2047 
L 1894 2003 
Q 2506 1872 2764 1633 
Q 3022 1394 3022 966 
Q 3022 478 2636 193 
Q 2250 -91 1575 -91 
Q 1294 -91 989 -36 
Q 684 19 347 128 
L 347 722 
Q 666 556 975 473 
Q 1284 391 1588 391 
Q 1994 391 2212 530 
Q 2431 669 2431 922 
Q 2431 1156 2273 1281 
Q 2116 1406 1581 1522 
L 1381 1569 
Q 847 1681 609 1914 
Q 372 2147 372 2553 
Q 372 3047 722 3315 
Q 1072 3584 1716 3584 
Q 2034 3584 2315 3537 
Q 2597 3491 2834 3397 
z
" transform="scale(0.015625)"/>
      </defs>
      <use xlink:href="#DejaVuSans-45"/>
      <use xlink:href="#DejaVuSans-78" transform="translate(63.183594 0)"/>
      <use xlink:href="#DejaVuSans-74" transform="translate(122.363281 0)"/>
      <use xlink:href="#DejaVuSans-72" transform="translate(161.572266 0)"/>
      <use xlink:href="#DejaVuSans-61" transform="translate(202.685547 0)"/>
      <use xlink:href="#DejaVuSans-63" transform="translate(263.964844 0)"/>
      <use xlink:href="#DejaVuSans-65" transform="translate(318.945312 0)"/>
      <use xlink:href="#DejaVuSans-6c" transform="translate(380.46875 0)"/>
      <use xlink:href="#DejaVuSans-6c" transform="translate(408.251953 0)"/>
      <use xlink:href="#DejaVuSans-75" transform="translate(436.035156 0)"/>
      <use xlink:href="#DejaVuSans-6c" transform="translate(499.414062 0)"/>
      <use xlink:href="#DejaVuSans-61" transform="translate(527.197266 0)"/>
      <use xlink:href="#DejaVuSans-72" transform="translate(588.476562 0)"/>
      <use xlink:href="#DejaVuSans-20" transform="translate(629.589844 0)"/>
      <use xlink:href="#DejaVuSans-6c" transform="translate(661.376953 0)"/>
      <use xlink:href="#DejaVuSans-61" transform="translate(689.160156 0)"/>
      <use xlink:href="#DejaVuSans-63" transform="translate(750.439453 0)"/>
      <use xlink:href="#DejaVuSans-74" transform="translate(805.419922 0)"/>
      <use xlink:href="#DejaVuSans-6f" transform="translate(844.628906 0)"/>
      <use xlink:href="#DejaVuSans-73" transform="translate(905.810547 0)"/>
      <use xlink:href="#DejaVuSans-65" transform="translate(957.910156 0)"/>
     </g>
    </g>
   </g>
   <g id="line2d_13">
    <path d="M 56.57299 92.677099 
L 156.121821 92.677099 
L 156.228719 11.270338 
L 158.721533 11.351745 
L 158.831404 11.758779 
L 158.966544 12.002999 
L 159.127893 12.410033 
L 159.193766 12.491439 
L 159.298108 13.2241 
L 159.457792 13.793948 
L 159.595471 13.875354 
L 159.708553 13.956761 
L 160.05768 14.038168 
L 160.390468 16.480371 
L 160.50705 17.131625 
L 160.533734 17.213032 
L 160.816052 19.00398 
L 161.038424 19.736641 
L 161.155527 20.062268 
L 161.190744 20.143675 
L 161.30725 20.794929 
L 161.350616 20.876336 
L 161.475144 21.201963 
L 161.699941 22.830098 
L 161.81238 23.399945 
L 161.916261 23.888386 
L 162.043476 24.53964 
L 162.188154 25.760741 
L 162.20981 25.842148 
L 162.30966 26.249182 
L 162.335441 26.330589 
L 163.280193 32.191876 
L 164.579392 32.273282 
L 164.883856 32.761723 
L 164.959534 32.84313 
L 165.084662 33.168757 
L 165.221927 33.820011 
L 165.257855 33.901417 
L 165.377003 34.227045 
L 165.455284 34.308451 
L 165.569133 34.796892 
L 165.674989 35.122519 
L 166.119113 35.203926 
L 166.234228 36.180807 
L 166.265992 36.262214 
L 166.371739 37.239095 
L 166.381686 37.320501 
L 166.495007 38.297383 
L 166.606596 38.378789 
L 166.823615 39.518484 
L 167.412816 39.599891 
L 167.522313 39.925518 
L 167.584664 40.006925 
L 167.742052 40.739585 
L 168.317977 43.833042 
L 168.348914 43.914449 
L 168.466248 44.158669 
L 168.501043 44.240076 
L 168.657215 45.054144 
L 168.713357 45.13555 
L 168.84345 45.949618 
L 168.870936 46.031025 
L 169.031773 46.763686 
L 169.062277 46.845092 
L 169.27171 48.473228 
L 169.303399 48.554634 
L 169.475283 49.612922 
L 169.593568 49.694329 
L 169.703016 50.101363 
L 170.746825 50.18277 
L 171.267496 51.159651 
L 171.639082 51.241057 
L 172.19012 53.846074 
L 172.240265 53.927481 
L 172.374102 54.741548 
L 172.495134 54.822955 
L 172.635594 55.229989 
L 172.942079 55.311396 
L 173.0601 55.637023 
L 173.085716 55.718429 
L 173.277764 56.20687 
L 173.33864 56.288277 
L 173.488677 56.69531 
L 173.5425 56.776717 
L 173.661465 56.939531 
L 174.284713 57.020937 
L 174.387974 57.183751 
L 174.656162 57.265158 
L 174.76542 57.427971 
L 175.105582 58.323446 
L 175.220184 58.567666 
L 175.563926 59.381734 
L 175.68244 59.625954 
L 175.907328 59.707361 
L 176.40737 61.74253 
L 176.441642 61.823936 
L 176.603181 62.47519 
L 176.686102 62.556597 
L 176.890082 62.963631 
L 176.965152 63.045038 
L 177.153237 63.859105 
L 177.189081 63.940512 
L 177.316423 64.347546 
L 177.38308 64.428953 
L 177.914499 65.650054 
L 178.066817 65.975681 
L 178.168094 66.057088 
L 178.344456 66.952562 
L 178.459023 67.033969 
L 178.545566 67.115376 
L 178.687494 67.196783 
L 178.906877 67.52241 
L 178.949842 67.603816 
L 179.028867 67.685223 
L 179.166808 67.76663 
L 179.335226 68.173664 
L 179.373864 68.25507 
L 179.829804 68.824918 
L 180.071862 68.906325 
L 180.125572 68.987731 
L 180.204265 69.069138 
L 180.467404 69.313358 
L 180.630757 69.394765 
L 180.717573 69.476172 
L 181.514486 69.557579 
L 181.63592 69.720392 
L 181.943232 69.801799 
L 182.146262 70.127426 
L 182.255851 70.371646 
L 182.350292 70.453053 
L 182.580266 71.104307 
L 182.937766 71.185714 
L 183.968621 71.267121 
L 184.00705 71.348527 
L 184.339795 71.429934 
L 184.562697 71.918375 
L 184.904843 72.651036 
L 185.016336 72.732442 
L 185.146966 72.813849 
L 185.585989 72.895256 
L 185.748503 73.465103 
L 186.060177 73.54651 
L 186.377697 74.197764 
L 186.553752 74.279171 
L 186.598492 74.360577 
L 186.787557 74.441984 
L 186.898082 74.686205 
L 187.191751 75.500272 
L 187.434036 75.581679 
L 187.542588 75.825899 
L 187.626673 75.907306 
L 188.040224 76.55856 
L 188.103506 76.639967 
L 188.239065 76.884187 
L 188.628212 76.965594 
L 188.751613 77.047001 
L 189.013104 77.209814 
L 189.155197 77.291221 
L 189.26944 77.454034 
L 189.437794 77.535441 
L 189.593981 77.616848 
L 189.875899 77.698255 
L 190.085215 77.861068 
L 191.132355 77.942475 
L 191.245533 78.186695 
L 191.322987 78.268102 
L 191.444758 78.430916 
L 192.372969 78.512322 
L 192.437275 78.593729 
L 195.493082 78.675136 
L 195.796734 79.32639 
L 195.897026 79.407797 
L 196.033258 79.57061 
L 196.158559 79.652017 
L 196.447672 80.059051 
L 196.529657 80.140458 
L 196.669197 80.221864 
L 196.937588 80.628898 
L 197.00601 80.710305 
L 197.209313 80.791712 
L 197.377523 81.198745 
L 197.528158 81.280152 
L 197.654802 81.524372 
L 197.823699 81.605779 
L 197.914698 81.687186 
L 199.062155 81.768593 
L 200.727009 82.257033 
L 200.83082 82.501254 
L 200.928479 82.58266 
L 201.300753 83.152508 
L 201.436949 83.233914 
L 201.452349 83.315321 
L 201.611415 83.396728 
L 201.708268 83.559541 
L 202.222722 83.640948 
L 202.349261 83.722355 
L 202.99216 83.803762 
L 203.007984 83.885168 
L 203.653777 83.966575 
L 203.750163 84.210796 
L 204.075063 84.292202 
L 204.463814 85.024863 
L 204.67439 85.10627 
L 204.76271 85.187677 
L 205.063439 85.269083 
L 205.294523 85.676117 
L 205.628503 85.920338 
L 206.995017 86.001744 
L 207.233135 86.245965 
L 207.459185 86.327371 
L 207.812984 86.571592 
L 208.066265 86.652998 
L 208.193632 86.734405 
L 210.337015 86.815812 
L 210.462913 87.060032 
L 210.628742 87.141439 
L 210.706323 87.304252 
L 210.963847 87.385659 
L 211.136192 87.629879 
L 211.39502 87.711286 
L 211.701465 87.8741 
L 212.228994 87.955507 
L 212.421404 88.199727 
L 212.794876 88.281134 
L 212.971385 88.443947 
L 213.121572 88.525354 
L 213.306885 88.606761 
L 213.832479 88.688167 
L 214.512446 88.769574 
L 214.609667 88.850981 
L 215.610522 88.932388 
L 215.712915 89.013794 
L 216.492962 89.095201 
L 216.546899 89.176608 
L 216.797669 89.258015 
L 216.9614 89.420828 
L 217.182804 89.502235 
L 217.354673 89.583642 
L 217.794293 89.665048 
L 217.930999 89.746455 
L 218.106241 89.827862 
L 218.30347 89.909269 
L 218.820525 89.990676 
L 219.296995 90.072082 
L 219.403538 90.153489 
L 219.404144 90.234896 
L 219.67952 90.316303 
L 224.374689 90.397709 
L 224.472335 90.479116 
L 224.954748 90.560523 
L 225.063123 90.64193 
L 225.453665 90.723336 
L 225.648922 90.88615 
L 232.520041 90.967557 
L 232.56389 91.048963 
L 235.240528 91.13037 
L 235.381176 91.293184 
L 256.140919 91.37459 
L 256.25304 91.455997 
L 258.481485 91.537404 
L 258.580925 91.618811 
L 258.721923 91.700218 
L 258.99698 91.781624 
L 259.904025 91.863031 
L 260.170417 92.025845 
L 266.342591 92.107251 
L 266.694905 92.188658 
L 300.307835 92.270065 
L 300.519026 92.351472 
L 312.40778 92.432878 
L 312.40778 92.432878 
" clip-path="url(#pe5f983ff70)" style="fill: none; stroke: #000000; stroke-width: 1.5; stroke-linecap: square"/>
   </g>
   <g id="patch_3">
    <path d="M 43.78125 96.747437 
L 43.78125 7.2 
" style="fill: none; stroke: #000000; stroke-width: 0.8; stroke-linejoin: miter; stroke-linecap: square"/>
   </g>
   <g id="patch_4">
    <path d="M 325.19952 96.747437 
L 325.19952 7.2 
" style="fill: none; stroke: #000000; stroke-width: 0.8; stroke-linejoin: miter; stroke-linecap: square"/>
   </g>
   <g id="patch_5">
    <path d="M 43.78125 96.747437 
L 325.19952 96.747437 
" style="fill: none; stroke: #000000; stroke-width: 0.8; stroke-linejoin: miter; stroke-linecap: square"/>
   </g>
   <g id="patch_6">
    <path d="M 43.78125 7.2 
L 325.19952 7.2 
" style="fill: none; stroke: #000000; stroke-width: 0.8; stroke-linejoin: miter; stroke-linecap: square"/>
   </g>
  </g>
  <g id="axes_2">
   <g id="patch_7">
    <path d="M 43.78125 195.795353 
L 325.19952 195.795353 
L 325.19952 106.247917 
L 43.78125 106.247917 
z
" style="fill: #ffffff"/>
   </g>
   <g id="matplotlib.axis_3">
    <g id="xtick_10">
     <g id="line2d_14">
      <g>
       <use xlink:href="#mf1c3b80702" x="56.57299" y="195.795353" style="stroke: #000000; stroke-width: 0.8"/>
      </g>
     </g>
    </g>
    <g id="xtick_11">
     <g id="line2d_15">
      <g>
       <use xlink:href="#mf1c3b80702" x="88.536337" y="195.795353" style="stroke: #000000; stroke-width: 0.8"/>
      </g>
     </g>
    </g>
    <g id="xtick_12">
     <g id="line2d_16">
      <g>
       <use xlink:href="#mf1c3b80702" x="120.499684" y="195.795353" style="stroke: #000000; stroke-width: 0.8"/>
      </g>
     </g>
    </g>
    <g id="xtick_13">
     <g id="line2d_17">
      <g>
       <use xlink:href="#mf1c3b80702" x="152.463031" y="195.795353" style="stroke: #000000; stroke-width: 0.8"/>
      </g>
     </g>
    </g>
    <g id="xtick_14">
     <g id="line2d_18">
      <g>
       <use xlink:href="#mf1c3b80702" x="184.426378" y="195.795353" style="stroke: #000000; stroke-width: 0.8"/>
      </g>
     </g>
    </g>
    <g id="xtick_15">
     <g id="line2d_19">
      <g>
       <use xlink:href="#mf1c3b80702" x="216.389725" y="195.795353" style="stroke: #000000; stroke-width: 0.8"/>
      </g>
     </g>
    </g>
    <g id="xtick_16">
     <g id="line2d_20">
      <g>
       <use xlink:href="#mf1c3b80702" x="248.353073" y="195.795353" style="stroke: #000000; stroke-width: 0.8"/>
      </g>
     </g>
    </g>
    <g id="xtick_17">
     <g id="line2d_21">
      <g>
       <use xlink:href="#mf1c3b80702" x="280.31642" y="195.795353" style="stroke: #000000; stroke-width: 0.8"/>
      </g>
     </g>
    </g>
    <g id="xtick_18">
     <g id="line2d_22">
      <g>
       <use xlink:href="#mf1c3b80702" x="312.279767" y="195.795353" style="stroke: #000000; stroke-width: 0.8"/>
      </g>
     </g>
    </g>
   </g>
   <g id="matplotlib.axis_4">
    <g id="ytick_4">
     <g id="line2d_23">
      <g>
       <use xlink:href="#m9f3e7cc3c3" x="43.78125" y="191.725015" style="stroke: #000000; stroke-width: 0.8"/>
      </g>
     </g>
     <g id="text_5">
      <!-- 0 -->
      <g transform="translate(30.41875 195.524234) scale(0.1 -0.1)">
       <use xlink:href="#DejaVuSans-30"/>
      </g>
     </g>
    </g>
    <g id="ytick_5">
     <g id="line2d_24">
      <g>
       <use xlink:href="#m9f3e7cc3c3" x="43.78125" y="151.021635" style="stroke: #000000; stroke-width: 0.8"/>
      </g>
     </g>
     <g id="text_6">
      <!-- 5 -->
      <g transform="translate(30.41875 154.820854) scale(0.1 -0.1)">
       <use xlink:href="#DejaVuSans-35"/>
      </g>
     </g>
    </g>
    <g id="ytick_6">
     <g id="line2d_25">
      <g>
       <use xlink:href="#m9f3e7cc3c3" x="43.78125" y="110.318255" style="stroke: #000000; stroke-width: 0.8"/>
      </g>
     </g>
     <g id="text_7">
      <!-- 10 -->
      <g transform="translate(24.05625 114.117473) scale(0.1 -0.1)">
       <use xlink:href="#DejaVuSans-31"/>
       <use xlink:href="#DejaVuSans-30" transform="translate(63.623047 0)"/>
      </g>
     </g>
    </g>
    <g id="text_8">
     <!-- LacY -->
     <g transform="translate(17.976563 162.67476) rotate(-90) scale(0.1 -0.1)">
      <defs>
       <path id="DejaVuSans-4c" d="M 628 4666 
L 1259 4666 
L 1259 531 
L 3531 531 
L 3531 0 
L 628 0 
L 628 4666 
z
" transform="scale(0.015625)"/>
       <path id="DejaVuSans-59" d="M -13 4666 
L 666 4666 
L 1959 2747 
L 3244 4666 
L 3922 4666 
L 2272 2222 
L 2272 0 
L 1638 0 
L 1638 2222 
L -13 4666 
z
" transform="scale(0.015625)"/>
      </defs>
      <use xlink:href="#DejaVuSans-4c"/>
      <use xlink:href="#DejaVuSans-61" transform="translate(55.712891 0)"/>
      <use xlink:href="#DejaVuSans-63" transform="translate(116.992188 0)"/>
      <use xlink:href="#DejaVuSans-59" transform="translate(171.972656 0)"/>
     </g>
    </g>
   </g>
   <g id="line2d_26">
    <path d="M 56.57299 110.318255 
L 56.573334 110.318255 
L 56.670769 118.458931 
L 56.878129 110.318255 
L 57.019912 134.740283 
L 57.032593 134.740283 
L 57.500628 175.443663 
L 57.621115 183.584339 
L 58.882615 183.584339 
L 59.136237 175.443663 
L 59.158645 183.584339 
L 59.597695 183.584339 
L 59.743643 191.725015 
L 69.209028 191.725015 
L 69.234356 183.584339 
L 69.629898 183.584339 
L 69.935771 191.725015 
L 70.394557 183.584339 
L 71.166748 183.584339 
L 71.260397 175.443663 
L 71.532005 191.725015 
L 73.803036 191.725015 
L 74.493211 183.584339 
L 74.511803 175.443663 
L 74.54392 183.584339 
L 74.660301 183.584339 
L 75.344304 191.725015 
L 98.05681 191.725015 
L 98.168019 183.584339 
L 98.488001 183.584339 
L 98.614632 191.725015 
L 101.134692 191.725015 
L 101.190253 183.584339 
L 101.535338 175.443663 
L 101.683622 183.584339 
L 102.886792 183.584339 
L 102.990817 191.725015 
L 103.483173 183.584339 
L 103.862037 191.725015 
L 107.094983 191.725015 
L 107.23978 183.584339 
L 107.292146 183.584339 
L 109.13917 191.725015 
L 116.308634 191.725015 
L 116.687041 183.584339 
L 116.79459 175.443663 
L 116.845087 175.443663 
L 117.234573 191.725015 
L 132.027901 191.725015 
L 132.192298 183.584339 
L 132.676534 191.725015 
L 141.602465 191.725015 
L 141.777099 183.584339 
L 142.200548 175.443663 
L 142.269813 183.584339 
L 142.396656 183.584339 
L 142.716824 191.725015 
L 158.605198 191.725015 
L 158.831404 183.584339 
L 159.599204 183.584339 
L 159.720024 191.725015 
L 159.935384 191.725015 
L 160.098341 175.443663 
L 160.198135 167.302987 
L 160.297103 167.302987 
L 160.344028 175.443663 
L 160.404391 167.302987 
L 160.503061 167.302987 
L 160.608707 175.443663 
L 160.659302 175.443663 
L 160.705104 167.302987 
L 160.766786 175.443663 
L 160.807454 175.443663 
L 160.851855 183.584339 
L 160.915773 175.443663 
L 161.040276 175.443663 
L 161.047148 183.584339 
L 161.149854 175.443663 
L 161.481801 175.443663 
L 161.595185 167.302987 
L 161.65476 167.302987 
L 161.758616 151.021635 
L 161.776446 159.162311 
L 161.785599 159.162311 
L 161.898241 167.302987 
L 161.952522 167.302987 
L 162.039922 175.443663 
L 162.06314 167.302987 
L 162.087885 167.302987 
L 162.161238 183.584339 
L 162.199784 175.443663 
L 162.269881 175.443663 
L 162.381246 167.302987 
L 162.610999 167.302987 
L 162.641425 159.162311 
L 162.669052 175.443663 
L 162.706723 175.443663 
L 162.846754 175.443663 
L 162.956127 167.302987 
L 163.142664 167.302987 
L 163.258435 175.443663 
L 163.375068 175.443663 
L 163.455384 191.725015 
L 164.554437 191.725015 
L 164.675542 183.584339 
L 164.935882 183.584339 
L 165.026618 175.443663 
L 165.602315 175.443663 
L 165.674989 191.725015 
L 165.810524 191.725015 
L 165.945305 175.443663 
L 165.962286 175.443663 
L 166.022937 191.725015 
L 166.081904 183.584339 
L 166.112652 183.584339 
L 166.234228 159.162311 
L 166.355774 159.162311 
L 166.471161 167.302987 
L 166.545054 167.302987 
L 166.674383 175.443663 
L 166.689543 175.443663 
L 166.796796 183.584339 
L 166.827654 183.584339 
L 166.93168 191.725015 
L 167.160725 191.725015 
L 167.294405 183.584339 
L 167.378869 183.584339 
L 167.511665 175.443663 
L 167.555653 183.584339 
L 167.608924 175.443663 
L 167.735112 175.443663 
L 167.851809 159.162311 
L 167.962832 167.302987 
L 167.979437 167.302987 
L 168.097675 175.443663 
L 168.118171 175.443663 
L 168.191652 167.302987 
L 168.222539 175.443663 
L 168.352322 175.443663 
L 168.358275 167.302987 
L 168.460849 175.443663 
L 168.536767 175.443663 
L 168.645322 167.302987 
L 168.84345 167.302987 
L 168.962257 159.162311 
L 169.233833 159.162311 
L 169.340384 151.021635 
L 169.378219 151.021635 
L 169.527023 167.302987 
L 169.578406 167.302987 
L 169.703016 183.584339 
L 169.840883 183.584339 
L 169.956504 191.725015 
L 170.557458 191.725015 
L 170.678382 175.443663 
L 170.688117 183.584339 
L 170.987895 183.584339 
L 171.073113 175.443663 
L 171.098679 183.584339 
L 171.20372 183.584339 
L 171.283755 191.725015 
L 171.419672 191.725015 
L 171.516788 183.584339 
L 171.675315 183.584339 
L 171.79695 167.302987 
L 172.281792 167.302987 
L 172.39231 175.443663 
L 172.551722 175.443663 
L 172.682992 183.584339 
L 173.000612 183.584339 
L 173.104033 175.443663 
L 173.359647 175.443663 
L 173.462618 167.302987 
L 173.46301 175.443663 
L 173.477643 175.443663 
L 173.583434 183.584339 
L 173.630513 183.584339 
L 173.709608 191.725015 
L 173.748691 183.584339 
L 173.803341 191.725015 
L 174.101844 191.725015 
L 174.30367 183.584339 
L 174.603532 183.584339 
L 174.76542 175.443663 
L 175.092106 175.443663 
L 175.137466 167.302987 
L 175.18582 175.443663 
L 175.209394 175.443663 
L 175.308513 167.302987 
L 175.377521 167.302987 
L 175.486383 175.443663 
L 175.599659 175.443663 
L 175.68244 183.584339 
L 175.79414 183.584339 
L 175.93863 175.443663 
L 175.992364 175.443663 
L 176.113615 167.302987 
L 176.194201 175.443663 
L 176.218483 167.302987 
L 176.634767 167.302987 
L 176.669275 175.443663 
L 176.724527 167.302987 
L 176.884209 167.302987 
L 176.926804 175.443663 
L 176.994993 167.302987 
L 177.104455 167.302987 
L 177.193888 159.162311 
L 177.210881 167.302987 
L 177.484636 167.302987 
L 177.591903 159.162311 
L 177.690923 175.443663 
L 177.772471 175.443663 
L 177.853474 167.302987 
L 177.963864 167.302987 
L 178.072226 159.162311 
L 178.158777 167.302987 
L 178.174834 159.162311 
L 178.37538 159.162311 
L 178.473911 167.302987 
L 178.633027 175.443663 
L 178.719415 175.443663 
L 178.840155 167.302987 
L 178.952023 175.443663 
L 178.994393 175.443663 
L 179.07289 183.584339 
L 179.095763 175.443663 
L 180.280217 175.443663 
L 180.351514 183.584339 
L 180.704976 183.584339 
L 180.819822 175.443663 
L 180.922929 191.725015 
L 181.5087 191.725015 
L 181.568864 175.443663 
L 181.601809 183.584339 
L 182.730058 183.584339 
L 182.823933 191.725015 
L 183.392083 191.725015 
L 184.00705 183.584339 
L 184.173553 183.584339 
L 184.255223 191.725015 
L 184.457677 167.302987 
L 184.729259 167.302987 
L 184.73984 159.162311 
L 184.780717 175.443663 
L 184.835022 175.443663 
L 185.078466 175.443663 
L 185.256868 183.584339 
L 185.33442 183.584339 
L 185.349895 191.725015 
L 185.728505 175.443663 
L 186.051754 175.443663 
L 186.123612 167.302987 
L 186.161676 175.443663 
L 186.179218 175.443663 
L 186.28199 167.302987 
L 186.560899 167.302987 
L 186.598492 159.162311 
L 186.748997 159.162311 
L 186.793191 151.021635 
L 186.857248 159.162311 
L 186.962907 159.162311 
L 187.037676 167.302987 
L 187.063561 159.162311 
L 187.10932 159.162311 
L 187.191751 175.443663 
L 187.227294 167.302987 
L 187.708552 167.302987 
L 187.766694 183.584339 
L 187.821187 175.443663 
L 187.895652 175.443663 
L 188.011849 183.584339 
L 188.040224 183.584339 
L 188.186614 175.443663 
L 188.357548 175.443663 
L 188.558125 183.584339 
L 188.599484 175.443663 
L 188.653447 183.584339 
L 188.674727 183.584339 
L 188.751613 175.443663 
L 188.872005 175.443663 
L 188.893453 167.302987 
L 188.944217 175.443663 
L 189.26944 175.443663 
L 189.345685 183.584339 
L 189.495303 175.443663 
L 189.568289 175.443663 
L 189.623214 167.302987 
L 190.040456 167.302987 
L 190.129128 183.584339 
L 190.421137 183.584339 
L 190.520158 175.443663 
L 190.651976 183.584339 
L 191.140066 183.584339 
L 191.310934 175.443663 
L 191.367582 175.443663 
L 191.444758 191.725015 
L 191.707953 191.725015 
L 191.791487 183.584339 
L 191.86578 183.584339 
L 191.878613 191.725015 
L 192.275382 191.725015 
L 192.358838 175.443663 
L 192.374626 183.584339 
L 192.437275 191.725015 
L 194.943717 191.725015 
L 195.517133 175.443663 
L 195.585587 183.584339 
L 195.617759 175.443663 
L 195.752617 175.443663 
L 195.760835 167.302987 
L 195.796734 175.443663 
L 196.237962 175.443663 
L 196.343503 183.584339 
L 196.746796 183.584339 
L 196.82777 175.443663 
L 196.835143 183.584339 
L 196.86505 191.725015 
L 196.919589 175.443663 
L 196.970152 175.443663 
L 197.072901 183.584339 
L 197.243809 167.302987 
L 197.347754 167.302987 
L 197.432468 151.021635 
L 197.458464 159.162311 
L 197.510871 159.162311 
L 197.654802 175.443663 
L 197.689564 175.443663 
L 197.761969 183.584339 
L 197.869396 183.584339 
L 197.914698 191.725015 
L 198.362008 191.725015 
L 198.652561 183.584339 
L 198.667174 191.725015 
L 198.723544 183.584339 
L 199.509071 183.584339 
L 199.617618 191.725015 
L 199.72871 175.443663 
L 199.729627 183.584339 
L 200.251348 183.584339 
L 200.475521 167.302987 
L 200.638468 175.443663 
L 200.779713 175.443663 
L 200.817693 167.302987 
L 200.88039 175.443663 
L 201.337589 175.443663 
L 201.452349 167.302987 
L 201.579544 159.162311 
L 201.708268 175.443663 
L 201.754502 175.443663 
L 201.838031 183.584339 
L 201.890718 183.584339 
L 202.026578 191.725015 
L 202.222722 183.584339 
L 202.281653 183.584339 
L 202.315694 175.443663 
L 202.349261 183.584339 
L 202.618403 183.584339 
L 202.796091 175.443663 
L 203.162475 175.443663 
L 203.182011 167.302987 
L 203.620189 175.443663 
L 203.7151 167.302987 
L 203.749498 167.302987 
L 203.750163 175.443663 
L 203.857268 159.162311 
L 203.88915 159.162311 
L 203.992108 175.443663 
L 204.110794 159.162311 
L 204.522878 159.162311 
L 204.76271 175.443663 
L 204.93434 167.302987 
L 205.150127 159.162311 
L 205.210015 159.162311 
L 205.294523 167.302987 
L 205.429468 167.302987 
L 205.606932 175.443663 
L 205.628503 175.443663 
L 205.853498 191.725015 
L 206.856297 191.725015 
L 207.037901 167.302987 
L 207.188369 167.302987 
L 207.233135 175.443663 
L 207.593481 175.443663 
L 207.637187 183.584339 
L 207.668144 175.443663 
L 207.778936 167.302987 
L 207.964425 167.302987 
L 208.066265 175.443663 
L 208.085565 175.443663 
L 208.193632 191.725015 
L 208.479889 191.725015 
L 208.722833 167.302987 
L 208.762328 175.443663 
L 209.1383 175.443663 
L 209.467656 183.584339 
L 209.489227 191.725015 
L 209.808299 183.584339 
L 209.950403 183.584339 
L 209.97941 175.443663 
L 210.211475 167.302987 
L 210.296461 191.725015 
L 210.309405 183.584339 
L 210.37768 175.443663 
L 210.417234 183.584339 
L 210.462913 183.584339 
L 210.644129 167.302987 
L 210.706323 175.443663 
L 211.054103 175.443663 
L 211.101024 159.162311 
L 211.176111 167.302987 
L 211.371861 167.302987 
L 211.494114 159.162311 
L 211.614627 159.162311 
L 211.68148 151.021635 
L 211.701465 159.162311 
L 211.965425 159.162311 
L 212.079487 167.302987 
L 212.228994 159.162311 
L 212.271179 159.162311 
L 212.421404 151.021635 
L 212.586757 151.021635 
L 212.666758 175.443663 
L 212.772755 175.443663 
L 212.792022 183.584339 
L 212.848077 167.302987 
L 212.895181 167.302987 
L 212.961986 159.162311 
L 212.971385 167.302987 
L 213.09399 175.443663 
L 213.179927 167.302987 
L 213.306885 175.443663 
L 213.569573 175.443663 
L 213.670215 183.584339 
L 213.832479 191.725015 
L 214.254509 183.584339 
L 214.327793 183.584339 
L 214.518575 167.302987 
L 214.586693 167.302987 
L 214.731825 183.584339 
L 214.896612 183.584339 
L 214.926948 175.443663 
L 214.993806 183.584339 
L 215.147242 183.584339 
L 215.232094 191.725015 
L 215.44998 191.725015 
L 215.589218 175.443663 
L 215.617588 175.443663 
L 215.712915 167.302987 
L 215.802511 167.302987 
L 215.895115 159.162311 
L 216.21625 159.162311 
L 216.26638 151.021635 
L 216.282996 159.162311 
L 216.415872 175.443663 
L 216.508163 167.302987 
L 216.647134 183.584339 
L 216.854357 183.584339 
L 216.9614 175.443663 
L 217.136297 167.302987 
L 217.182804 175.443663 
L 217.623904 175.443663 
L 217.833924 159.162311 
L 217.983587 167.302987 
L 218.068602 167.302987 
L 218.207141 175.443663 
L 218.472075 175.443663 
L 218.783641 159.162311 
L 219.119175 159.162311 
L 219.537974 175.443663 
L 219.67952 175.443663 
L 219.791496 183.584339 
L 219.913098 183.584339 
L 220.280955 191.725015 
L 222.631361 191.725015 
L 222.775991 183.584339 
L 223.104769 183.584339 
L 223.399891 191.725015 
L 223.920723 167.302987 
L 224.059331 151.021635 
L 224.101964 151.021635 
L 224.231794 134.740283 
L 224.411124 126.599607 
L 224.453903 134.740283 
L 224.472335 118.458931 
L 224.569774 126.599607 
L 224.806141 134.740283 
L 224.902811 142.880959 
L 224.945589 142.880959 
L 224.962626 134.740283 
L 225.013667 159.162311 
L 225.139325 142.880959 
L 225.16711 151.021635 
L 225.21689 159.162311 
L 225.255247 151.021635 
L 225.349209 151.021635 
L 225.397588 159.162311 
L 225.453665 151.021635 
L 225.648922 151.021635 
L 225.790037 159.162311 
L 225.912391 159.162311 
L 226.033785 175.443663 
L 226.215672 191.725015 
L 232.249654 191.725015 
L 232.433001 183.584339 
L 232.56389 175.443663 
L 232.743289 175.443663 
L 232.753254 183.584339 
L 233.694297 183.584339 
L 234.097801 191.725015 
L 234.751969 191.725015 
L 234.948267 183.584339 
L 235.074572 167.302987 
L 235.205418 175.443663 
L 235.292595 159.162311 
L 235.319821 167.302987 
L 235.381176 167.302987 
L 235.392817 175.443663 
L 235.500328 167.302987 
L 235.803353 175.443663 
L 235.886045 175.443663 
L 235.919821 167.302987 
L 235.957361 175.443663 
L 236.286894 191.725015 
L 236.415124 175.443663 
L 236.418478 183.584339 
L 236.734058 183.584339 
L 236.762051 191.725015 
L 237.681121 191.725015 
L 237.792859 183.584339 
L 237.864223 183.584339 
L 237.867536 191.725015 
L 238.395089 191.725015 
L 238.794173 183.584339 
L 238.897432 175.443663 
L 238.982203 175.443663 
L 239.086158 191.725015 
L 248.794221 191.725015 
L 249.026227 183.584339 
L 249.100564 175.443663 
L 249.156864 183.584339 
L 249.399266 191.725015 
L 252.348963 191.725015 
L 252.73588 175.443663 
L 252.844851 175.443663 
L 252.996123 191.725015 
L 255.592823 191.725015 
L 255.642502 183.584339 
L 256.022574 191.725015 
L 256.25304 167.302987 
L 256.557172 167.302987 
L 256.592748 183.584339 
L 257.214609 183.584339 
L 257.269073 167.302987 
L 257.306462 175.443663 
L 257.450808 183.584339 
L 257.608448 175.443663 
L 257.799652 175.443663 
L 257.88128 167.302987 
L 258.033045 167.302987 
L 258.10084 159.162311 
L 258.160873 167.302987 
L 258.188579 159.162311 
L 258.287586 159.162311 
L 258.39934 142.880959 
L 258.531345 142.880959 
L 258.579029 126.599607 
L 258.580925 142.880959 
L 258.691713 142.880959 
L 258.721923 151.021635 
L 258.845496 151.021635 
L 258.937191 134.740283 
L 258.99698 134.740283 
L 259.18121 142.880959 
L 259.251624 134.740283 
L 259.261854 142.880959 
L 259.328575 151.021635 
L 259.501328 142.880959 
L 259.536116 134.740283 
L 259.571825 142.880959 
L 259.628487 142.880959 
L 259.629527 134.740283 
L 259.645096 142.880959 
L 259.976725 159.162311 
L 260.03354 151.021635 
L 260.048415 167.302987 
L 260.170417 167.302987 
L 260.435217 175.443663 
L 260.672001 175.443663 
L 260.710324 167.302987 
L 260.758368 175.443663 
L 260.829088 183.584339 
L 261.358656 183.584339 
L 261.37627 175.443663 
L 261.976043 175.443663 
L 262.030946 183.584339 
L 262.15433 167.302987 
L 262.441225 167.302987 
L 262.617912 175.443663 
L 262.818136 175.443663 
L 262.961055 159.162311 
L 263.164836 183.584339 
L 263.370277 191.725015 
L 263.55003 183.584339 
L 263.635674 191.725015 
L 263.896387 151.021635 
L 263.907799 159.162311 
L 263.960653 159.162311 
L 264.141832 183.584339 
L 264.468519 183.584339 
L 264.514963 175.443663 
L 264.538189 183.584339 
L 264.677456 183.584339 
L 264.855039 175.443663 
L 264.915725 175.443663 
L 264.928412 183.584339 
L 265.164361 183.584339 
L 265.530352 175.443663 
L 265.675653 142.880959 
L 265.702712 134.740283 
L 265.852938 142.880959 
L 265.939346 151.021635 
L 266.020205 142.880959 
L 266.027936 151.021635 
L 266.12169 151.021635 
L 266.195328 142.880959 
L 266.336278 142.880959 
L 266.342591 151.021635 
L 266.512014 151.021635 
L 266.791591 159.162311 
L 266.814136 159.162311 
L 266.861773 167.302987 
L 266.964054 175.443663 
L 266.987479 167.302987 
L 267.185273 159.162311 
L 267.243316 151.021635 
L 267.534338 175.443663 
L 267.571593 167.302987 
L 267.602896 175.443663 
L 267.977392 175.443663 
L 268.098143 191.725015 
L 268.172216 183.584339 
L 268.374191 183.584339 
L 268.483763 175.443663 
L 268.536168 183.584339 
L 268.628189 191.725015 
L 271.849064 191.725015 
L 271.989109 183.584339 
L 272.422075 191.725015 
L 282.612056 191.725015 
L 282.665492 183.584339 
L 282.934346 191.725015 
L 297.537814 191.725015 
L 297.972376 183.584339 
L 298.097267 191.725015 
L 299.576404 191.725015 
L 299.877635 175.443663 
L 299.972879 167.302987 
L 300.055061 175.443663 
L 300.075777 167.302987 
L 300.147157 159.162311 
L 300.399363 151.021635 
L 300.519026 167.302987 
L 300.678737 167.302987 
L 300.80323 175.443663 
L 301.013785 159.162311 
L 301.140004 167.302987 
L 301.543463 167.302987 
L 301.664708 159.162311 
L 301.690517 167.302987 
L 302.14367 175.443663 
L 302.290166 175.443663 
L 302.30124 183.584339 
L 302.442727 183.584339 
L 303.259742 191.725015 
L 306.856929 191.725015 
L 306.938431 183.584339 
L 307.039122 191.725015 
L 307.16382 183.584339 
L 307.453439 175.443663 
L 307.574908 167.302987 
L 307.78113 167.302987 
L 307.845681 175.443663 
L 307.952305 175.443663 
L 308.278405 183.584339 
L 309.604923 183.584339 
L 309.761939 167.302987 
L 309.871974 167.302987 
L 310.126857 175.443663 
L 310.232129 191.725015 
L 312.40778 191.725015 
L 312.40778 191.725015 
" clip-path="url(#pdf6847ab1a)" style="fill: none; stroke: #000000; stroke-width: 1.5; stroke-linecap: square"/>
   </g>
   <g id="patch_8">
    <path d="M 43.78125 195.795353 
L 43.78125 106.247917 
" style="fill: none; stroke: #000000; stroke-width: 0.8; stroke-linejoin: miter; stroke-linecap: square"/>
   </g>
   <g id="patch_9">
    <path d="M 325.19952 195.795353 
L 325.19952 106.247917 
" style="fill: none; stroke: #000000; stroke-width: 0.8; stroke-linejoin: miter; stroke-linecap: square"/>
   </g>
   <g id="patch_10">
    <path d="M 43.78125 195.795353 
L 325.19952 195.795353 
" style="fill: none; stroke: #000000; stroke-width: 0.8; stroke-linejoin: miter; stroke-linecap: square"/>
   </g>
   <g id="patch_11">
    <path d="M 43.78125 106.247917 
L 325.19952 106.247917 
" style="fill: none; stroke: #000000; stroke-width: 0.8; stroke-linejoin: miter; stroke-linecap: square"/>
   </g>
  </g>
  <g id="axes_3">
   <g id="patch_12">
    <path d="M 43.78125 294.84327 
L 325.19952 294.84327 
L 325.19952 205.295833 
L 43.78125 205.295833 
z
" style="fill: #ffffff"/>
   </g>
   <g id="matplotlib.axis_5">
    <g id="xtick_19">
     <g id="line2d_27">
      <g>
       <use xlink:href="#mf1c3b80702" x="56.57299" y="294.84327" style="stroke: #000000; stroke-width: 0.8"/>
      </g>
     </g>
     <g id="text_9">
      <!-- 0 -->
      <g transform="translate(53.39174 309.441707) scale(0.1 -0.1)">
       <use xlink:href="#DejaVuSans-30"/>
      </g>
     </g>
    </g>
    <g id="xtick_20">
     <g id="line2d_28">
      <g>
       <use xlink:href="#mf1c3b80702" x="88.536337" y="294.84327" style="stroke: #000000; stroke-width: 0.8"/>
      </g>
     </g>
     <g id="text_10">
      <!-- 100 -->
      <g transform="translate(78.992587 309.441707) scale(0.1 -0.1)">
       <use xlink:href="#DejaVuSans-31"/>
       <use xlink:href="#DejaVuSans-30" transform="translate(63.623047 0)"/>
       <use xlink:href="#DejaVuSans-30" transform="translate(127.246094 0)"/>
      </g>
     </g>
    </g>
    <g id="xtick_21">
     <g id="line2d_29">
      <g>
       <use xlink:href="#mf1c3b80702" x="120.499684" y="294.84327" style="stroke: #000000; stroke-width: 0.8"/>
      </g>
     </g>
     <g id="text_11">
      <!-- 200 -->
      <g transform="translate(110.955934 309.441707) scale(0.1 -0.1)">
       <defs>
        <path id="DejaVuSans-32" d="M 1228 531 
L 3431 531 
L 3431 0 
L 469 0 
L 469 531 
Q 828 903 1448 1529 
Q 2069 2156 2228 2338 
Q 2531 2678 2651 2914 
Q 2772 3150 2772 3378 
Q 2772 3750 2511 3984 
Q 2250 4219 1831 4219 
Q 1534 4219 1204 4116 
Q 875 4013 500 3803 
L 500 4441 
Q 881 4594 1212 4672 
Q 1544 4750 1819 4750 
Q 2544 4750 2975 4387 
Q 3406 4025 3406 3419 
Q 3406 3131 3298 2873 
Q 3191 2616 2906 2266 
Q 2828 2175 2409 1742 
Q 1991 1309 1228 531 
z
" transform="scale(0.015625)"/>
       </defs>
       <use xlink:href="#DejaVuSans-32"/>
       <use xlink:href="#DejaVuSans-30" transform="translate(63.623047 0)"/>
       <use xlink:href="#DejaVuSans-30" transform="translate(127.246094 0)"/>
      </g>
     </g>
    </g>
    <g id="xtick_22">
     <g id="line2d_30">
      <g>
       <use xlink:href="#mf1c3b80702" x="152.463031" y="294.84327" style="stroke: #000000; stroke-width: 0.8"/>
      </g>
     </g>
     <g id="text_12">
      <!-- 300 -->
      <g transform="translate(142.919281 309.441707) scale(0.1 -0.1)">
       <defs>
        <path id="DejaVuSans-33" d="M 2597 2516 
Q 3050 2419 3304 2112 
Q 3559 1806 3559 1356 
Q 3559 666 3084 287 
Q 2609 -91 1734 -91 
Q 1441 -91 1130 -33 
Q 819 25 488 141 
L 488 750 
Q 750 597 1062 519 
Q 1375 441 1716 441 
Q 2309 441 2620 675 
Q 2931 909 2931 1356 
Q 2931 1769 2642 2001 
Q 2353 2234 1838 2234 
L 1294 2234 
L 1294 2753 
L 1863 2753 
Q 2328 2753 2575 2939 
Q 2822 3125 2822 3475 
Q 2822 3834 2567 4026 
Q 2313 4219 1838 4219 
Q 1578 4219 1281 4162 
Q 984 4106 628 3988 
L 628 4550 
Q 988 4650 1302 4700 
Q 1616 4750 1894 4750 
Q 2613 4750 3031 4423 
Q 3450 4097 3450 3541 
Q 3450 3153 3228 2886 
Q 3006 2619 2597 2516 
z
" transform="scale(0.015625)"/>
       </defs>
       <use xlink:href="#DejaVuSans-33"/>
       <use xlink:href="#DejaVuSans-30" transform="translate(63.623047 0)"/>
       <use xlink:href="#DejaVuSans-30" transform="translate(127.246094 0)"/>
      </g>
     </g>
    </g>
    <g id="xtick_23">
     <g id="line2d_31">
      <g>
       <use xlink:href="#mf1c3b80702" x="184.426378" y="294.84327" style="stroke: #000000; stroke-width: 0.8"/>
      </g>
     </g>
     <g id="text_13">
      <!-- 400 -->
      <g transform="translate(174.882628 309.441707) scale(0.1 -0.1)">
       <defs>
        <path id="DejaVuSans-34" d="M 2419 4116 
L 825 1625 
L 2419 1625 
L 2419 4116 
z
M 2253 4666 
L 3047 4666 
L 3047 1625 
L 3713 1625 
L 3713 1100 
L 3047 1100 
L 3047 0 
L 2419 0 
L 2419 1100 
L 313 1100 
L 313 1709 
L 2253 4666 
z
" transform="scale(0.015625)"/>
       </defs>
       <use xlink:href="#DejaVuSans-34"/>
       <use xlink:href="#DejaVuSans-30" transform="translate(63.623047 0)"/>
       <use xlink:href="#DejaVuSans-30" transform="translate(127.246094 0)"/>
      </g>
     </g>
    </g>
    <g id="xtick_24">
     <g id="line2d_32">
      <g>
       <use xlink:href="#mf1c3b80702" x="216.389725" y="294.84327" style="stroke: #000000; stroke-width: 0.8"/>
      </g>
     </g>
     <g id="text_14">
      <!-- 500 -->
      <g transform="translate(206.845975 309.441707) scale(0.1 -0.1)">
       <use xlink:href="#DejaVuSans-35"/>
       <use xlink:href="#DejaVuSans-30" transform="translate(63.623047 0)"/>
       <use xlink:href="#DejaVuSans-30" transform="translate(127.246094 0)"/>
      </g>
     </g>
    </g>
    <g id="xtick_25">
     <g id="line2d_33">
      <g>
       <use xlink:href="#mf1c3b80702" x="248.353073" y="294.84327" style="stroke: #000000; stroke-width: 0.8"/>
      </g>
     </g>
     <g id="text_15">
      <!-- 600 -->
      <g transform="translate(238.809323 309.441707) scale(0.1 -0.1)">
       <defs>
        <path id="DejaVuSans-36" d="M 2113 2584 
Q 1688 2584 1439 2293 
Q 1191 2003 1191 1497 
Q 1191 994 1439 701 
Q 1688 409 2113 409 
Q 2538 409 2786 701 
Q 3034 994 3034 1497 
Q 3034 2003 2786 2293 
Q 2538 2584 2113 2584 
z
M 3366 4563 
L 3366 3988 
Q 3128 4100 2886 4159 
Q 2644 4219 2406 4219 
Q 1781 4219 1451 3797 
Q 1122 3375 1075 2522 
Q 1259 2794 1537 2939 
Q 1816 3084 2150 3084 
Q 2853 3084 3261 2657 
Q 3669 2231 3669 1497 
Q 3669 778 3244 343 
Q 2819 -91 2113 -91 
Q 1303 -91 875 529 
Q 447 1150 447 2328 
Q 447 3434 972 4092 
Q 1497 4750 2381 4750 
Q 2619 4750 2861 4703 
Q 3103 4656 3366 4563 
z
" transform="scale(0.015625)"/>
       </defs>
       <use xlink:href="#DejaVuSans-36"/>
       <use xlink:href="#DejaVuSans-30" transform="translate(63.623047 0)"/>
       <use xlink:href="#DejaVuSans-30" transform="translate(127.246094 0)"/>
      </g>
     </g>
    </g>
    <g id="xtick_26">
     <g id="line2d_34">
      <g>
       <use xlink:href="#mf1c3b80702" x="280.31642" y="294.84327" style="stroke: #000000; stroke-width: 0.8"/>
      </g>
     </g>
     <g id="text_16">
      <!-- 700 -->
      <g transform="translate(270.77267 309.441707) scale(0.1 -0.1)">
       <defs>
        <path id="DejaVuSans-37" d="M 525 4666 
L 3525 4666 
L 3525 4397 
L 1831 0 
L 1172 0 
L 2766 4134 
L 525 4134 
L 525 4666 
z
" transform="scale(0.015625)"/>
       </defs>
       <use xlink:href="#DejaVuSans-37"/>
       <use xlink:href="#DejaVuSans-30" transform="translate(63.623047 0)"/>
       <use xlink:href="#DejaVuSans-30" transform="translate(127.246094 0)"/>
      </g>
     </g>
    </g>
    <g id="xtick_27">
     <g id="line2d_35">
      <g>
       <use xlink:href="#mf1c3b80702" x="312.279767" y="294.84327" style="stroke: #000000; stroke-width: 0.8"/>
      </g>
     </g>
     <g id="text_17">
      <!-- 800 -->
      <g transform="translate(302.736017 309.441707) scale(0.1 -0.1)">
       <defs>
        <path id="DejaVuSans-38" d="M 2034 2216 
Q 1584 2216 1326 1975 
Q 1069 1734 1069 1313 
Q 1069 891 1326 650 
Q 1584 409 2034 409 
Q 2484 409 2743 651 
Q 3003 894 3003 1313 
Q 3003 1734 2745 1975 
Q 2488 2216 2034 2216 
z
M 1403 2484 
Q 997 2584 770 2862 
Q 544 3141 544 3541 
Q 544 4100 942 4425 
Q 1341 4750 2034 4750 
Q 2731 4750 3128 4425 
Q 3525 4100 3525 3541 
Q 3525 3141 3298 2862 
Q 3072 2584 2669 2484 
Q 3125 2378 3379 2068 
Q 3634 1759 3634 1313 
Q 3634 634 3220 271 
Q 2806 -91 2034 -91 
Q 1263 -91 848 271 
Q 434 634 434 1313 
Q 434 1759 690 2068 
Q 947 2378 1403 2484 
z
M 1172 3481 
Q 1172 3119 1398 2916 
Q 1625 2713 2034 2713 
Q 2441 2713 2670 2916 
Q 2900 3119 2900 3481 
Q 2900 3844 2670 4047 
Q 2441 4250 2034 4250 
Q 1625 4250 1398 4047 
Q 1172 3844 1172 3481 
z
" transform="scale(0.015625)"/>
       </defs>
       <use xlink:href="#DejaVuSans-38"/>
       <use xlink:href="#DejaVuSans-30" transform="translate(63.623047 0)"/>
       <use xlink:href="#DejaVuSans-30" transform="translate(127.246094 0)"/>
      </g>
     </g>
    </g>
    <g id="text_18">
     <!-- Time -->
     <g transform="translate(172.256791 323.119832) scale(0.1 -0.1)">
      <defs>
       <path id="DejaVuSans-54" d="M -19 4666 
L 3928 4666 
L 3928 4134 
L 2272 4134 
L 2272 0 
L 1638 0 
L 1638 4134 
L -19 4134 
L -19 4666 
z
" transform="scale(0.015625)"/>
       <path id="DejaVuSans-69" d="M 603 3500 
L 1178 3500 
L 1178 0 
L 603 0 
L 603 3500 
z
M 603 4863 
L 1178 4863 
L 1178 4134 
L 603 4134 
L 603 4863 
z
" transform="scale(0.015625)"/>
       <path id="DejaVuSans-6d" d="M 3328 2828 
Q 3544 3216 3844 3400 
Q 4144 3584 4550 3584 
Q 5097 3584 5394 3201 
Q 5691 2819 5691 2113 
L 5691 0 
L 5113 0 
L 5113 2094 
Q 5113 2597 4934 2840 
Q 4756 3084 4391 3084 
Q 3944 3084 3684 2787 
Q 3425 2491 3425 1978 
L 3425 0 
L 2847 0 
L 2847 2094 
Q 2847 2600 2669 2842 
Q 2491 3084 2119 3084 
Q 1678 3084 1418 2786 
Q 1159 2488 1159 1978 
L 1159 0 
L 581 0 
L 581 3500 
L 1159 3500 
L 1159 2956 
Q 1356 3278 1631 3431 
Q 1906 3584 2284 3584 
Q 2666 3584 2933 3390 
Q 3200 3197 3328 2828 
z
" transform="scale(0.015625)"/>
      </defs>
      <use xlink:href="#DejaVuSans-54"/>
      <use xlink:href="#DejaVuSans-69" transform="translate(57.958984 0)"/>
      <use xlink:href="#DejaVuSans-6d" transform="translate(85.742188 0)"/>
      <use xlink:href="#DejaVuSans-65" transform="translate(183.154297 0)"/>
     </g>
    </g>
   </g>
   <g id="matplotlib.axis_6">
    <g id="ytick_7">
     <g id="line2d_36">
      <g>
       <use xlink:href="#m9f3e7cc3c3" x="43.78125" y="290.772932" style="stroke: #000000; stroke-width: 0.8"/>
      </g>
     </g>
     <g id="text_19">
      <!-- 0.0 -->
      <g transform="translate(20.878125 294.572151) scale(0.1 -0.1)">
       <defs>
        <path id="DejaVuSans-2e" d="M 684 794 
L 1344 794 
L 1344 0 
L 684 0 
L 684 794 
z
" transform="scale(0.015625)"/>
       </defs>
       <use xlink:href="#DejaVuSans-30"/>
       <use xlink:href="#DejaVuSans-2e" transform="translate(63.623047 0)"/>
       <use xlink:href="#DejaVuSans-30" transform="translate(95.410156 0)"/>
      </g>
     </g>
    </g>
    <g id="ytick_8">
     <g id="line2d_37">
      <g>
       <use xlink:href="#m9f3e7cc3c3" x="43.78125" y="250.069552" style="stroke: #000000; stroke-width: 0.8"/>
      </g>
     </g>
     <g id="text_20">
      <!-- 0.5 -->
      <g transform="translate(20.878125 253.86877) scale(0.1 -0.1)">
       <use xlink:href="#DejaVuSans-30"/>
       <use xlink:href="#DejaVuSans-2e" transform="translate(63.623047 0)"/>
       <use xlink:href="#DejaVuSans-35" transform="translate(95.410156 0)"/>
      </g>
     </g>
    </g>
    <g id="ytick_9">
     <g id="line2d_38">
      <g>
       <use xlink:href="#m9f3e7cc3c3" x="43.78125" y="209.366171" style="stroke: #000000; stroke-width: 0.8"/>
      </g>
     </g>
     <g id="text_21">
      <!-- 1.0 -->
      <g transform="translate(20.878125 213.16539) scale(0.1 -0.1)">
       <use xlink:href="#DejaVuSans-31"/>
       <use xlink:href="#DejaVuSans-2e" transform="translate(63.623047 0)"/>
       <use xlink:href="#DejaVuSans-30" transform="translate(95.410156 0)"/>
      </g>
     </g>
    </g>
    <g id="text_22">
     <!-- Free lac operon -->
     <g transform="translate(14.798438 288.540645) rotate(-90) scale(0.1 -0.1)">
      <defs>
       <path id="DejaVuSans-46" d="M 628 4666 
L 3309 4666 
L 3309 4134 
L 1259 4134 
L 1259 2759 
L 3109 2759 
L 3109 2228 
L 1259 2228 
L 1259 0 
L 628 0 
L 628 4666 
z
" transform="scale(0.015625)"/>
       <path id="DejaVuSans-70" d="M 1159 525 
L 1159 -1331 
L 581 -1331 
L 581 3500 
L 1159 3500 
L 1159 2969 
Q 1341 3281 1617 3432 
Q 1894 3584 2278 3584 
Q 2916 3584 3314 3078 
Q 3713 2572 3713 1747 
Q 3713 922 3314 415 
Q 2916 -91 2278 -91 
Q 1894 -91 1617 61 
Q 1341 213 1159 525 
z
M 3116 1747 
Q 3116 2381 2855 2742 
Q 2594 3103 2138 3103 
Q 1681 3103 1420 2742 
Q 1159 2381 1159 1747 
Q 1159 1113 1420 752 
Q 1681 391 2138 391 
Q 2594 391 2855 752 
Q 3116 1113 3116 1747 
z
" transform="scale(0.015625)"/>
       <path id="DejaVuSans-6e" d="M 3513 2113 
L 3513 0 
L 2938 0 
L 2938 2094 
Q 2938 2591 2744 2837 
Q 2550 3084 2163 3084 
Q 1697 3084 1428 2787 
Q 1159 2491 1159 1978 
L 1159 0 
L 581 0 
L 581 3500 
L 1159 3500 
L 1159 2956 
Q 1366 3272 1645 3428 
Q 1925 3584 2291 3584 
Q 2894 3584 3203 3211 
Q 3513 2838 3513 2113 
z
" transform="scale(0.015625)"/>
      </defs>
      <use xlink:href="#DejaVuSans-46"/>
      <use xlink:href="#DejaVuSans-72" transform="translate(50.269531 0)"/>
      <use xlink:href="#DejaVuSans-65" transform="translate(89.132812 0)"/>
      <use xlink:href="#DejaVuSans-65" transform="translate(150.65625 0)"/>
      <use xlink:href="#DejaVuSans-20" transform="translate(212.179688 0)"/>
      <use xlink:href="#DejaVuSans-6c" transform="translate(243.966797 0)"/>
      <use xlink:href="#DejaVuSans-61" transform="translate(271.75 0)"/>
      <use xlink:href="#DejaVuSans-63" transform="translate(333.029297 0)"/>
      <use xlink:href="#DejaVuSans-20" transform="translate(388.009766 0)"/>
      <use xlink:href="#DejaVuSans-6f" transform="translate(419.796875 0)"/>
      <use xlink:href="#DejaVuSans-70" transform="translate(480.978516 0)"/>
      <use xlink:href="#DejaVuSans-65" transform="translate(544.455078 0)"/>
      <use xlink:href="#DejaVuSans-72" transform="translate(605.978516 0)"/>
      <use xlink:href="#DejaVuSans-6f" transform="translate(644.841797 0)"/>
      <use xlink:href="#DejaVuSans-6e" transform="translate(706.023438 0)"/>
     </g>
    </g>
   </g>
   <g id="line2d_39">
    <path d="M 56.57299 209.366171 
L 56.868244 209.366171 
L 56.973635 290.772932 
L 57.800486 290.772932 
L 58.882615 209.366171 
L 59.158645 209.366171 
L 59.597695 290.772932 
L 60.193615 290.772932 
L 67.322656 209.366171 
L 67.821937 290.772932 
L 68.967646 209.366171 
L 69.052573 290.772932 
L 69.234356 209.366171 
L 69.345601 290.772932 
L 69.896743 290.772932 
L 69.935771 209.366171 
L 70.394557 209.366171 
L 70.582568 290.772932 
L 70.597644 209.366171 
L 70.691927 290.772932 
L 71.179267 209.366171 
L 71.260397 290.772932 
L 73.331573 290.772932 
L 73.803036 209.366171 
L 74.54392 209.366171 
L 74.660301 290.772932 
L 76.228841 290.772932 
L 83.999433 209.366171 
L 84.001618 290.772932 
L 84.955314 209.366171 
L 84.970963 290.772932 
L 96.814058 209.366171 
L 96.914646 290.772932 
L 98.05681 209.366171 
L 98.168019 209.366171 
L 98.488001 290.772932 
L 99.098848 290.772932 
L 101.190253 209.366171 
L 101.476925 209.366171 
L 101.535338 290.772932 
L 101.683622 290.772932 
L 102.293106 209.366171 
L 103.451574 209.366171 
L 103.483173 290.772932 
L 104.433336 290.772932 
L 104.930246 209.366171 
L 104.96268 290.772932 
L 107.18086 209.366171 
L 107.292146 290.772932 
L 109.13917 290.772932 
L 112.397693 209.366171 
L 112.550686 290.772932 
L 113.247041 209.366171 
L 113.332815 290.772932 
L 116.308634 209.366171 
L 116.79459 209.366171 
L 116.845087 290.772932 
L 117.234573 290.772932 
L 127.052763 209.366171 
L 127.259788 290.772932 
L 132.116022 209.366171 
L 132.192298 290.772932 
L 133.614987 290.772932 
L 140.674451 209.366171 
L 141.025927 290.772932 
L 141.602465 209.366171 
L 142.267813 209.366171 
L 142.269813 290.772932 
L 142.716824 290.772932 
L 143.089096 209.366171 
L 143.110337 290.772932 
L 145.372112 290.772932 
L 156.121821 209.366171 
L 156.228719 290.772932 
L 158.605198 209.366171 
L 162.873805 209.366171 
L 162.974036 290.772932 
L 164.316104 290.772932 
L 164.554437 209.366171 
L 193.908204 209.366171 
L 193.939081 290.772932 
L 194.161532 290.772932 
L 194.227037 209.366171 
L 219.400866 209.366171 
L 219.404144 290.772932 
L 219.651799 290.772932 
L 219.657117 209.366171 
L 219.73402 290.772932 
L 220.280955 290.772932 
L 220.406406 209.366171 
L 220.535437 290.772932 
L 222.024043 290.772932 
L 222.669689 209.366171 
L 225.941355 209.366171 
L 226.033785 290.772932 
L 227.482241 290.772932 
L 232.249654 209.366171 
L 232.490704 209.366171 
L 232.56389 290.772932 
L 232.673182 290.772932 
L 232.704559 209.366171 
L 232.753254 290.772932 
L 233.53021 209.366171 
L 233.694297 290.772932 
L 234.097801 290.772932 
L 234.659486 209.366171 
L 237.174542 209.366171 
L 237.217765 290.772932 
L 237.339049 209.366171 
L 238.897432 209.366171 
L 239.086158 290.772932 
L 240.07942 209.366171 
L 240.118318 290.772932 
L 240.745172 209.366171 
L 240.938425 290.772932 
L 245.349259 209.366171 
L 245.481954 290.772932 
L 248.794221 209.366171 
L 249.08082 209.366171 
L 249.156864 290.772932 
L 250.428871 290.772932 
L 250.739449 209.366171 
L 250.753589 290.772932 
L 251.403035 290.772932 
L 251.639698 209.366171 
L 251.806252 290.772932 
L 252.348963 209.366171 
L 252.616254 209.366171 
L 252.69503 290.772932 
L 252.73588 209.366171 
L 252.894951 290.772932 
L 254.337239 290.772932 
L 255.642502 209.366171 
L 255.924945 209.366171 
L 255.938703 290.772932 
L 256.022574 209.366171 
L 256.25304 209.366171 
L 256.585936 290.772932 
L 257.108864 290.772932 
L 257.306462 209.366171 
L 261.369205 209.366171 
L 261.37627 290.772932 
L 261.844475 209.366171 
L 268.489251 209.366171 
L 268.628189 290.772932 
L 271.08489 290.772932 
L 271.913588 209.366171 
L 271.989109 290.772932 
L 273.028155 290.772932 
L 282.626352 209.366171 
L 282.665492 290.772932 
L 282.829049 290.772932 
L 282.845391 209.366171 
L 282.934346 290.772932 
L 283.83526 290.772932 
L 289.253406 209.366171 
L 289.389144 290.772932 
L 290.17628 209.366171 
L 290.325394 290.772932 
L 297.537814 209.366171 
L 297.955524 209.366171 
L 297.972376 290.772932 
L 298.32404 290.772932 
L 299.576404 209.366171 
L 301.621793 209.366171 
L 301.690517 290.772932 
L 303.259742 290.772932 
L 306.856929 209.366171 
L 307.845681 209.366171 
L 307.952305 290.772932 
L 308.584217 290.772932 
L 309.664997 209.366171 
L 309.745507 209.366171 
L 309.871974 290.772932 
L 311.232488 290.772932 
L 312.40778 209.366171 
L 312.40778 209.366171 
" clip-path="url(#p9365d1d173)" style="fill: none; stroke: #000000; stroke-width: 1.5; stroke-linecap: square"/>
   </g>
   <g id="patch_13">
    <path d="M 43.78125 294.84327 
L 43.78125 205.295833 
" style="fill: none; stroke: #000000; stroke-width: 0.8; stroke-linejoin: miter; stroke-linecap: square"/>
   </g>
   <g id="patch_14">
    <path d="M 325.19952 294.84327 
L 325.19952 205.295833 
" style="fill: none; stroke: #000000; stroke-width: 0.8; stroke-linejoin: miter; stroke-linecap: square"/>
   </g>
   <g id="patch_15">
    <path d="M 43.78125 294.84327 
L 325.19952 294.84327 
" style="fill: none; stroke: #000000; stroke-width: 0.8; stroke-linejoin: miter; stroke-linecap: square"/>
   </g>
   <g id="patch_16">
    <path d="M 43.78125 205.295833 
L 325.19952 205.295833 
" style="fill: none; stroke: #000000; stroke-width: 0.8; stroke-linejoin: miter; stroke-linecap: square"/>
   </g>
  </g>
 </g>
 <defs>
  <clipPath id="pe5f983ff70">
   <rect x="43.78125" y="7.2" width="281.41827" height="89.547437"/>
  </clipPath>
  <clipPath id="pdf6847ab1a">
   <rect x="43.78125" y="106.247917" width="281.41827" height="89.547437"/>
  </clipPath>
  <clipPath id="p9365d1d173">
   <rect x="43.78125" y="205.295833" width="281.41827" height="89.547437"/>
  </clipPath>
 </defs>
</svg>
