<?xml version="1.0" encoding="utf-8" standalone="no"?>
<!DOCTYPE svg PUBLIC "-//W3C//DTD SVG 1.1//EN"
  "http://www.w3.org/Graphics/SVG/1.1/DTD/svg11.dtd">
<svg xmlns:xlink="http://www.w3.org/1999/xlink" width="332.39952pt" height="332.39952pt" viewBox="0 0 332.39952 332.39952" xmlns="http://www.w3.org/2000/svg" version="1.1">
 <metadata>
  <rdf:RDF xmlns:dc="http://purl.org/dc/elements/1.1/" xmlns:cc="http://creativecommons.org/ns#" xmlns:rdf="http://www.w3.org/1999/02/22-rdf-syntax-ns#">
   <cc:Work>
    <dc:type rdf:resource="http://purl.org/dc/dcmitype/StillImage"/>
    <dc:date>2026-05-14T16:21:13.308282</dc:date>
    <dc:format>image/svg+xml</dc:format>
    <dc:creator>
     <cc:Agent>
      <dc:title>Matplotlib v3.10.9, https://matplotlib.org/</dc:title>
     </cc:Agent>
    </dc:creator>
   </cc:Work>
  </rdf:RDF>
 </metadata>
 <defs>
  <style type="text/css">*{stroke-linejoin: round; stroke-linecap: butt}</style>
 </defs>
 <g id="figure_1">
  <g id="patch_1">
   <path d="M 0 332.39952 
L 332.39952 332.39952 
L 332.39952 0 
L 0 0 
z
" style="fill: #ffffff"/>
  </g>
  <g id="axes_1">
   <g id="patch_2">
    <path d="M 43.78125 96.747437 
L 325.19952 96.747437 
L 325.19952 7.2 
L 43.78125 7.2 
z
" style="fill: #ffffff"/>
   </g>
   <g id="matplotlib.axis_1">
    <g id="xtick_1">
     <g id="line2d_1">
      <defs>
       <path id="mb1065140b6" d="M 0 0 
L 0 3.5 
" style="stroke: #000000; stroke-width: 0.8"/>
      </defs>
      <g>
       <use xlink:href="#mb1065140b6" x="56.57299" y="96.747437" style="stroke: #000000; stroke-width: 0.8"/>
      </g>
     </g>
    </g>
    <g id="xtick_2">
     <g id="line2d_2">
      <g>
       <use xlink:href="#mb1065140b6" x="88.37949" y="96.747437" style="stroke: #000000; stroke-width: 0.8"/>
      </g>
     </g>
    </g>
    <g id="xtick_3">
     <g id="line2d_3">
      <g>
       <use xlink:href="#mb1065140b6" x="120.185991" y="96.747437" style="stroke: #000000; stroke-width: 0.8"/>
      </g>
     </g>
    </g>
    <g id="xtick_4">
     <g id="line2d_4">
      <g>
       <use xlink:href="#mb1065140b6" x="151.992492" y="96.747437" style="stroke: #000000; stroke-width: 0.8"/>
      </g>
     </g>
    </g>
    <g id="xtick_5">
     <g id="line2d_5">
      <g>
       <use xlink:href="#mb1065140b6" x="183.798992" y="96.747437" style="stroke: #000000; stroke-width: 0.8"/>
      </g>
     </g>
    </g>
    <g id="xtick_6">
     <g id="line2d_6">
      <g>
       <use xlink:href="#mb1065140b6" x="215.605493" y="96.747437" style="stroke: #000000; stroke-width: 0.8"/>
      </g>
     </g>
    </g>
    <g id="xtick_7">
     <g id="line2d_7">
      <g>
       <use xlink:href="#mb1065140b6" x="247.411994" y="96.747437" style="stroke: #000000; stroke-width: 0.8"/>
      </g>
     </g>
    </g>
    <g id="xtick_8">
     <g id="line2d_8">
      <g>
       <use xlink:href="#mb1065140b6" x="279.218495" y="96.747437" style="stroke: #000000; stroke-width: 0.8"/>
      </g>
     </g>
    </g>
    <g id="xtick_9">
     <g id="line2d_9">
      <g>
       <use xlink:href="#mb1065140b6" x="311.024995" y="96.747437" style="stroke: #000000; stroke-width: 0.8"/>
      </g>
     </g>
    </g>
   </g>
   <g id="matplotlib.axis_2">
    <g id="ytick_1">
     <g id="line2d_10">
      <defs>
       <path id="m4854dc96bc" d="M 0 0 
L -3.5 0 
" style="stroke: #000000; stroke-width: 0.8"/>
      </defs>
      <g>
       <use xlink:href="#m4854dc96bc" x="43.78125" y="92.677099" style="stroke: #000000; stroke-width: 0.8"/>
      </g>
     </g>
     <g id="text_1">
      <!-- 0 -->
      <g transform="translate(30.41875 96.476317) scale(0.1 -0.1)">
       <defs>
        <path id="DejaVuSans-30" d="M 2034 4250 
Q 1547 4250 1301 3770 
Q 1056 3291 1056 2328 
Q 1056 1369 1301 889 
Q 1547 409 2034 409 
Q 2525 409 2770 889 
Q 3016 1369 3016 2328 
Q 3016 3291 2770 3770 
Q 2525 4250 2034 4250 
z
M 2034 4750 
Q 2819 4750 3233 4129 
Q 3647 3509 3647 2328 
Q 3647 1150 3233 529 
Q 2819 -91 2034 -91 
Q 1250 -91 836 529 
Q 422 1150 422 2328 
Q 422 3509 836 4129 
Q 1250 4750 2034 4750 
z
" transform="scale(0.015625)"/>
       </defs>
       <use xlink:href="#DejaVuSans-30"/>
      </g>
     </g>
    </g>
    <g id="ytick_2">
     <g id="line2d_11">
      <g>
       <use xlink:href="#m4854dc96bc" x="43.78125" y="51.973718" style="stroke: #000000; stroke-width: 0.8"/>
      </g>
     </g>
     <g id="text_2">
      <!-- 5 -->
      <g transform="translate(30.41875 55.772937) scale(0.1 -0.1)">
       <defs>
        <path id="DejaVuSans-35" d="M 691 4666 
L 3169 4666 
L 3169 4134 
L 1269 4134 
L 1269 2991 
Q 1406 3038 1543 3061 
Q 1681 3084 1819 3084 
Q 2600 3084 3056 2656 
Q 3513 2228 3513 1497 
Q 3513 744 3044 326 
Q 2575 -91 1722 -91 
Q 1428 -91 1123 -41 
Q 819 9 494 109 
L 494 744 
Q 775 591 1075 516 
Q 1375 441 1709 441 
Q 2250 441 2565 725 
Q 2881 1009 2881 1497 
Q 2881 1984 2565 2268 
Q 2250 2553 1709 2553 
Q 1456 2553 1204 2497 
Q 953 2441 691 2322 
L 691 4666 
z
" transform="scale(0.015625)"/>
       </defs>
       <use xlink:href="#DejaVuSans-35"/>
      </g>
     </g>
    </g>
    <g id="ytick_3">
     <g id="line2d_12">
      <g>
       <use xlink:href="#m4854dc96bc" x="43.78125" y="11.270338" style="stroke: #000000; stroke-width: 0.8"/>
      </g>
     </g>
     <g id="text_3">
      <!-- 10 -->
      <g transform="translate(24.05625 15.069557) scale(0.1 -0.1)">
       <defs>
        <path id="DejaVuSans-31" d="M 794 531 
L 1825 531 
L 1825 4091 
L 703 3866 
L 703 4441 
L 1819 4666 
L 2450 4666 
L 2450 531 
L 3481 531 
L 3481 0 
L 794 0 
L 794 531 
z
" transform="scale(0.015625)"/>
       </defs>
       <use xlink:href="#DejaVuSans-31"/>
       <use xlink:href="#DejaVuSans-30" transform="translate(63.623047 0)"/>
      </g>
     </g>
    </g>
    <g id="text_4">
     <!-- Extracellular lactose -->
     <g transform="translate(17.976562 102.945593) rotate(-90) scale(0.1 -0.1)">
      <defs>
       <path id="DejaVuSans-45" d="M 628 4666 
L 3578 4666 
L 3578 4134 
L 1259 4134 
L 1259 2753 
L 3481 2753 
L 3481 2222 
L 1259 2222 
L 1259 531 
L 3634 531 
L 3634 0 
L 628 0 
L 628 4666 
z
" transform="scale(0.015625)"/>
       <path id="DejaVuSans-78" d="M 3513 3500 
L 2247 1797 
L 3578 0 
L 2900 0 
L 1881 1375 
L 863 0 
L 184 0 
L 1544 1831 
L 300 3500 
L 978 3500 
L 1906 2253 
L 2834 3500 
L 3513 3500 
z
" transform="scale(0.015625)"/>
       <path id="DejaVuSans-74" d="M 1172 4494 
L 1172 3500 
L 2356 3500 
L 2356 3053 
L 1172 3053 
L 1172 1153 
Q 1172 725 1289 603 
Q 1406 481 1766 481 
L 2356 481 
L 2356 0 
L 1766 0 
Q 1100 0 847 248 
Q 594 497 594 1153 
L 594 3053 
L 172 3053 
L 172 3500 
L 594 3500 
L 594 4494 
L 1172 4494 
z
" transform="scale(0.015625)"/>
       <path id="DejaVuSans-72" d="M 2631 2963 
Q 2534 3019 2420 3045 
Q 2306 3072 2169 3072 
Q 1681 3072 1420 2755 
Q 1159 2438 1159 1844 
L 1159 0 
L 581 0 
L 581 3500 
L 1159 3500 
L 1159 2956 
Q 1341 3275 1631 3429 
Q 1922 3584 2338 3584 
Q 2397 3584 2469 3576 
Q 2541 3569 2628 3553 
L 2631 2963 
z
" transform="scale(0.015625)"/>
       <path id="DejaVuSans-61" d="M 2194 1759 
Q 1497 1759 1228 1600 
Q 959 1441 959 1056 
Q 959 750 1161 570 
Q 1363 391 1709 391 
Q 2188 391 2477 730 
Q 2766 1069 2766 1631 
L 2766 1759 
L 2194 1759 
z
M 3341 1997 
L 3341 0 
L 2766 0 
L 2766 531 
Q 2569 213 2275 61 
Q 1981 -91 1556 -91 
Q 1019 -91 701 211 
Q 384 513 384 1019 
Q 384 1609 779 1909 
Q 1175 2209 1959 2209 
L 2766 2209 
L 2766 2266 
Q 2766 2663 2505 2880 
Q 2244 3097 1772 3097 
Q 1472 3097 1187 3025 
Q 903 2953 641 2809 
L 641 3341 
Q 956 3463 1253 3523 
Q 1550 3584 1831 3584 
Q 2591 3584 2966 3190 
Q 3341 2797 3341 1997 
z
" transform="scale(0.015625)"/>
       <path id="DejaVuSans-63" d="M 3122 3366 
L 3122 2828 
Q 2878 2963 2633 3030 
Q 2388 3097 2138 3097 
Q 1578 3097 1268 2742 
Q 959 2388 959 1747 
Q 959 1106 1268 751 
Q 1578 397 2138 397 
Q 2388 397 2633 464 
Q 2878 531 3122 666 
L 3122 134 
Q 2881 22 2623 -34 
Q 2366 -91 2075 -91 
Q 1284 -91 818 406 
Q 353 903 353 1747 
Q 353 2603 823 3093 
Q 1294 3584 2113 3584 
Q 2378 3584 2631 3529 
Q 2884 3475 3122 3366 
z
" transform="scale(0.015625)"/>
       <path id="DejaVuSans-65" d="M 3597 1894 
L 3597 1613 
L 953 1613 
Q 991 1019 1311 708 
Q 1631 397 2203 397 
Q 2534 397 2845 478 
Q 3156 559 3463 722 
L 3463 178 
Q 3153 47 2828 -22 
Q 2503 -91 2169 -91 
Q 1331 -91 842 396 
Q 353 884 353 1716 
Q 353 2575 817 3079 
Q 1281 3584 2069 3584 
Q 2775 3584 3186 3129 
Q 3597 2675 3597 1894 
z
M 3022 2063 
Q 3016 2534 2758 2815 
Q 2500 3097 2075 3097 
Q 1594 3097 1305 2825 
Q 1016 2553 972 2059 
L 3022 2063 
z
" transform="scale(0.015625)"/>
       <path id="DejaVuSans-6c" d="M 603 4863 
L 1178 4863 
L 1178 0 
L 603 0 
L 603 4863 
z
" transform="scale(0.015625)"/>
       <path id="DejaVuSans-75" d="M 544 1381 
L 544 3500 
L 1119 3500 
L 1119 1403 
Q 1119 906 1312 657 
Q 1506 409 1894 409 
Q 2359 409 2629 706 
Q 2900 1003 2900 1516 
L 2900 3500 
L 3475 3500 
L 3475 0 
L 2900 0 
L 2900 538 
Q 2691 219 2414 64 
Q 2138 -91 1772 -91 
Q 1169 -91 856 284 
Q 544 659 544 1381 
z
M 1991 3584 
L 1991 3584 
z
" transform="scale(0.015625)"/>
       <path id="DejaVuSans-20" transform="scale(0.015625)"/>
       <path id="DejaVuSans-6f" d="M 1959 3097 
Q 1497 3097 1228 2736 
Q 959 2375 959 1747 
Q 959 1119 1226 758 
Q 1494 397 1959 397 
Q 2419 397 2687 759 
Q 2956 1122 2956 1747 
Q 2956 2369 2687 2733 
Q 2419 3097 1959 3097 
z
M 1959 3584 
Q 2709 3584 3137 3096 
Q 3566 2609 3566 1747 
Q 3566 888 3137 398 
Q 2709 -91 1959 -91 
Q 1206 -91 779 398 
Q 353 888 353 1747 
Q 353 2609 779 3096 
Q 1206 3584 1959 3584 
z
" transform="scale(0.015625)"/>
       <path id="DejaVuSans-73" d="M 2834 3397 
L 2834 2853 
Q 2591 2978 2328 3040 
Q 2066 3103 1784 3103 
Q 1356 3103 1142 2972 
Q 928 2841 928 2578 
Q 928 2378 1081 2264 
Q 1234 2150 1697 2047 
L 1894 2003 
Q 2506 1872 2764 1633 
Q 3022 1394 3022 966 
Q 3022 478 2636 193 
Q 2250 -91 1575 -91 
Q 1294 -91 989 -36 
Q 684 19 347 128 
L 347 722 
Q 666 556 975 473 
Q 1284 391 1588 391 
Q 1994 391 2212 530 
Q 2431 669 2431 922 
Q 2431 1156 2273 1281 
Q 2116 1406 1581 1522 
L 1381 1569 
Q 847 1681 609 1914 
Q 372 2147 372 2553 
Q 372 3047 722 3315 
Q 1072 3584 1716 3584 
Q 2034 3584 2315 3537 
Q 2597 3491 2834 3397 
z
" transform="scale(0.015625)"/>
      </defs>
      <use xlink:href="#DejaVuSans-45"/>
      <use xlink:href="#DejaVuSans-78" transform="translate(63.183594 0)"/>
      <use xlink:href="#DejaVuSans-74" transform="translate(122.363281 0)"/>
      <use xlink:href="#DejaVuSans-72" transform="translate(161.572266 0)"/>
      <use xlink:href="#DejaVuSans-61" transform="translate(202.685547 0)"/>
      <use xlink:href="#DejaVuSans-63" transform="translate(263.964844 0)"/>
      <use xlink:href="#DejaVuSans-65" transform="translate(318.945312 0)"/>
      <use xlink:href="#DejaVuSans-6c" transform="translate(380.46875 0)"/>
      <use xlink:href="#DejaVuSans-6c" transform="translate(408.251953 0)"/>
      <use xlink:href="#DejaVuSans-75" transform="translate(436.035156 0)"/>
      <use xlink:href="#DejaVuSans-6c" transform="translate(499.414062 0)"/>
      <use xlink:href="#DejaVuSans-61" transform="translate(527.197266 0)"/>
      <use xlink:href="#DejaVuSans-72" transform="translate(588.476562 0)"/>
      <use xlink:href="#DejaVuSans-20" transform="translate(629.589844 0)"/>
      <use xlink:href="#DejaVuSans-6c" transform="translate(661.376953 0)"/>
      <use xlink:href="#DejaVuSans-61" transform="translate(689.160156 0)"/>
      <use xlink:href="#DejaVuSans-63" transform="translate(750.439453 0)"/>
      <use xlink:href="#DejaVuSans-74" transform="translate(805.419922 0)"/>
      <use xlink:href="#DejaVuSans-6f" transform="translate(844.628906 0)"/>
      <use xlink:href="#DejaVuSans-73" transform="translate(905.810547 0)"/>
      <use xlink:href="#DejaVuSans-65" transform="translate(957.910156 0)"/>
     </g>
    </g>
   </g>
   <g id="line2d_13">
    <path d="M 56.57299 92.677099 
L 152.470616 92.677099 
L 154.906422 11.270338 
L 194.164024 11.351745 
L 194.309405 12.002999 
L 194.694948 12.572846 
L 195.516826 12.654253 
L 195.73323 13.631134 
L 195.864251 14.363795 
L 195.909143 14.445202 
L 196.09344 15.584896 
L 196.114919 15.666303 
L 196.307331 16.805998 
L 196.402193 16.887405 
L 196.508429 17.538659 
L 196.588155 17.864286 
L 196.721266 18.434133 
L 196.75721 18.51554 
L 197.087835 21.201963 
L 197.108677 21.28337 
L 197.228282 22.260251 
L 197.262395 22.341657 
L 197.445446 23.155725 
L 197.57233 23.888386 
L 197.584724 23.969793 
L 197.724876 24.946674 
L 197.734086 25.028081 
L 197.845061 25.679335 
L 198.257562 28.202944 
L 198.266708 28.284351 
L 198.376759 29.586859 
L 198.385141 29.668266 
L 198.511734 30.807961 
L 198.516184 30.889367 
L 198.722015 31.866248 
L 198.782554 31.947655 
L 198.937261 32.598909 
L 199.005669 32.680316 
L 199.159418 33.412977 
L 199.189655 33.494384 
L 199.392274 35.610959 
L 199.400728 35.692366 
L 199.621711 38.053162 
L 199.684513 38.134569 
L 199.830632 39.274264 
L 200.319366 42.042094 
L 200.431124 43.344602 
L 200.551966 44.809923 
L 200.567389 44.89133 
L 200.726742 46.519465 
L 200.729695 46.600872 
L 200.91255 48.066194 
L 201.134098 48.880261 
L 201.201695 48.961668 
L 201.309992 49.043075 
L 201.34079 49.124482 
L 201.468329 49.368702 
L 201.630957 49.450109 
L 201.767976 49.938549 
L 201.836304 50.019956 
L 202.1536 51.485278 
L 202.193007 51.566685 
L 202.304877 51.810905 
L 202.402607 51.892312 
L 202.581632 53.113413 
L 202.691414 53.764667 
L 202.961992 55.229989 
L 203.029918 55.311396 
L 203.168903 56.125463 
L 203.226189 56.20687 
L 203.351214 57.265158 
L 203.385382 57.346565 
L 203.520362 58.242039 
L 203.530459 58.323446 
L 203.895716 60.195801 
L 203.985639 60.277208 
L 204.115129 60.765648 
L 204.143752 60.847055 
L 204.268969 61.254089 
L 204.287011 61.335496 
L 204.404744 61.661123 
L 204.420916 61.74253 
L 204.54454 62.23097 
L 204.652938 62.882224 
L 204.684246 62.963631 
L 204.820967 63.533478 
L 204.861812 63.614885 
L 205.527036 64.673173 
L 205.801427 64.75458 
L 205.906121 65.161614 
L 206.013098 65.24302 
L 206.184569 65.405834 
L 206.66706 65.487241 
L 206.864062 65.731461 
L 207.017453 66.138495 
L 207.066548 66.219901 
L 207.179399 66.626935 
L 207.36151 67.685223 
L 207.446415 67.76663 
L 207.597911 68.01085 
L 207.629404 68.092257 
L 207.771574 68.743511 
L 207.809897 68.824918 
L 207.91601 69.150545 
L 208.088623 69.394765 
L 208.178488 69.476172 
L 208.294546 69.801799 
L 208.377046 69.883206 
L 208.493646 70.046019 
L 208.526858 70.127426 
L 208.732626 70.77868 
L 208.83935 70.860087 
L 208.935072 71.185714 
L 209.347476 71.918375 
L 209.826275 71.999781 
L 210.028342 72.244002 
L 210.351189 72.325408 
L 210.590281 72.732442 
L 210.699376 72.813849 
L 210.895527 72.895256 
L 210.951395 72.976663 
L 211.218484 73.058069 
L 211.809302 73.465103 
L 213.131061 73.54651 
L 213.237447 73.709323 
L 213.544172 73.79073 
L 213.715181 74.03495 
L 214.729084 74.116357 
L 214.966721 74.523391 
L 215.050545 74.604798 
L 215.103141 74.686205 
L 215.393169 75.011832 
L 215.507288 75.500272 
L 215.679954 75.581679 
L 215.722436 75.744492 
L 215.993436 75.988713 
L 216.118795 76.232933 
L 216.262138 76.31434 
L 216.406839 76.639967 
L 216.850354 76.721374 
L 216.976944 76.80278 
L 217.191088 76.884187 
L 217.25324 76.965594 
L 217.535169 77.047001 
L 217.627654 77.128407 
L 217.914201 77.209814 
L 218.036451 77.454034 
L 218.180122 77.535441 
L 218.229548 77.616848 
L 218.453079 77.698255 
L 218.807063 78.186695 
L 218.920905 78.268102 
L 219.021603 78.430916 
L 219.207691 78.512322 
L 219.669393 78.837949 
L 219.948663 78.919356 
L 220.449529 79.000763 
L 220.705258 79.163576 
L 220.722759 79.244983 
L 220.805045 79.57061 
L 221.083662 79.652017 
L 221.225192 79.896237 
L 221.415644 80.059051 
L 221.505866 80.140458 
L 221.595438 80.303271 
L 221.662186 80.384678 
L 222.001367 80.628898 
L 223.155783 80.710305 
L 223.362283 80.954525 
L 223.52734 81.035932 
L 223.660473 81.280152 
L 224.019564 81.361559 
L 224.064901 81.442966 
L 224.373764 81.524372 
L 224.801105 81.931406 
L 224.981735 82.012813 
L 224.996184 82.09422 
L 225.643188 82.175627 
L 225.859693 82.33844 
L 226.272307 82.419847 
L 226.37317 82.501254 
L 226.732832 82.826881 
L 227.087316 83.478135 
L 227.529914 83.559541 
L 227.685103 83.640948 
L 228.349558 83.722355 
L 228.474951 83.966575 
L 228.57618 84.047982 
L 228.788832 84.373609 
L 229.040876 84.455016 
L 229.168185 84.536423 
L 229.454042 84.617829 
L 229.809773 84.86205 
L 229.901604 85.024863 
L 229.930973 85.10627 
L 230.037743 85.269083 
L 230.343813 85.35049 
L 230.461966 85.431897 
L 230.639309 85.513304 
L 230.758841 85.59471 
L 231.076273 85.676117 
L 231.231236 85.757524 
L 231.291262 85.838931 
L 231.384527 85.920338 
L 231.809802 86.001744 
L 234.048892 86.083151 
L 234.373665 86.164558 
L 235.31386 86.245965 
L 235.81678 86.490185 
L 235.922688 86.571592 
L 235.990963 86.652998 
L 237.160929 86.734405 
L 238.18928 86.815812 
L 243.044592 86.897219 
L 243.143464 87.060032 
L 243.427551 87.141439 
L 243.613445 87.385659 
L 243.964693 87.467066 
L 244.090368 87.548473 
L 244.755615 87.629879 
L 245.086231 87.711286 
L 245.801017 87.792693 
L 245.994817 87.8741 
L 246.169331 87.955507 
L 246.973804 88.11832 
L 247.116919 88.199727 
L 250.085179 88.281134 
L 250.28264 88.36254 
L 251.377622 88.443947 
L 251.474657 88.525354 
L 251.867954 88.606761 
L 251.939059 88.769574 
L 252.176621 88.850981 
L 253.605726 88.932388 
L 253.84562 89.176608 
L 254.625945 89.258015 
L 254.641907 89.339421 
L 256.399495 89.420828 
L 257.829464 89.502235 
L 288.714702 89.583642 
L 289.499825 89.746455 
L 291.189422 89.827862 
L 291.505024 89.990676 
L 291.808478 90.072082 
L 291.906496 90.153489 
L 292.007741 90.234896 
L 292.453276 90.316303 
L 292.516857 90.397709 
L 293.637511 90.479116 
L 293.723876 90.560523 
L 296.79921 90.64193 
L 296.887475 90.723336 
L 298.539304 90.804743 
L 299.0745 90.88615 
L 312.40778 90.88615 
L 312.40778 90.88615 
" clip-path="url(#p3a107534dc)" style="fill: none; stroke: #000000; stroke-width: 1.5; stroke-linecap: square"/>
   </g>
   <g id="patch_3">
    <path d="M 43.78125 96.747437 
L 43.78125 7.2 
" style="fill: none; stroke: #000000; stroke-width: 0.8; stroke-linejoin: miter; stroke-linecap: square"/>
   </g>
   <g id="patch_4">
    <path d="M 325.19952 96.747437 
L 325.19952 7.2 
" style="fill: none; stroke: #000000; stroke-width: 0.8; stroke-linejoin: miter; stroke-linecap: square"/>
   </g>
   <g id="patch_5">
    <path d="M 43.78125 96.747437 
L 325.19952 96.747437 
" style="fill: none; stroke: #000000; stroke-width: 0.8; stroke-linejoin: miter; stroke-linecap: square"/>
   </g>
   <g id="patch_6">
    <path d="M 43.78125 7.2 
L 325.19952 7.2 
" style="fill: none; stroke: #000000; stroke-width: 0.8; stroke-linejoin: miter; stroke-linecap: square"/>
   </g>
  </g>
  <g id="axes_2">
   <g id="patch_7">
    <path d="M 43.78125 195.795353 
L 325.19952 195.795353 
L 325.19952 106.247917 
L 43.78125 106.247917 
z
" style="fill: #ffffff"/>
   </g>
   <g id="matplotlib.axis_3">
    <g id="xtick_10">
     <g id="line2d_14">
      <g>
       <use xlink:href="#mb1065140b6" x="56.57299" y="195.795353" style="stroke: #000000; stroke-width: 0.8"/>
      </g>
     </g>
    </g>
    <g id="xtick_11">
     <g id="line2d_15">
      <g>
       <use xlink:href="#mb1065140b6" x="88.37949" y="195.795353" style="stroke: #000000; stroke-width: 0.8"/>
      </g>
     </g>
    </g>
    <g id="xtick_12">
     <g id="line2d_16">
      <g>
       <use xlink:href="#mb1065140b6" x="120.185991" y="195.795353" style="stroke: #000000; stroke-width: 0.8"/>
      </g>
     </g>
    </g>
    <g id="xtick_13">
     <g id="line2d_17">
      <g>
       <use xlink:href="#mb1065140b6" x="151.992492" y="195.795353" style="stroke: #000000; stroke-width: 0.8"/>
      </g>
     </g>
    </g>
    <g id="xtick_14">
     <g id="line2d_18">
      <g>
       <use xlink:href="#mb1065140b6" x="183.798992" y="195.795353" style="stroke: #000000; stroke-width: 0.8"/>
      </g>
     </g>
    </g>
    <g id="xtick_15">
     <g id="line2d_19">
      <g>
       <use xlink:href="#mb1065140b6" x="215.605493" y="195.795353" style="stroke: #000000; stroke-width: 0.8"/>
      </g>
     </g>
    </g>
    <g id="xtick_16">
     <g id="line2d_20">
      <g>
       <use xlink:href="#mb1065140b6" x="247.411994" y="195.795353" style="stroke: #000000; stroke-width: 0.8"/>
      </g>
     </g>
    </g>
    <g id="xtick_17">
     <g id="line2d_21">
      <g>
       <use xlink:href="#mb1065140b6" x="279.218495" y="195.795353" style="stroke: #000000; stroke-width: 0.8"/>
      </g>
     </g>
    </g>
    <g id="xtick_18">
     <g id="line2d_22">
      <g>
       <use xlink:href="#mb1065140b6" x="311.024995" y="195.795353" style="stroke: #000000; stroke-width: 0.8"/>
      </g>
     </g>
    </g>
   </g>
   <g id="matplotlib.axis_4">
    <g id="ytick_4">
     <g id="line2d_23">
      <g>
       <use xlink:href="#m4854dc96bc" x="43.78125" y="191.725015" style="stroke: #000000; stroke-width: 0.8"/>
      </g>
     </g>
     <g id="text_5">
      <!-- 0 -->
      <g transform="translate(30.41875 195.524234) scale(0.1 -0.1)">
       <use xlink:href="#DejaVuSans-30"/>
      </g>
     </g>
    </g>
    <g id="ytick_5">
     <g id="line2d_24">
      <g>
       <use xlink:href="#m4854dc96bc" x="43.78125" y="151.021635" style="stroke: #000000; stroke-width: 0.8"/>
      </g>
     </g>
     <g id="text_6">
      <!-- 5 -->
      <g transform="translate(30.41875 154.820854) scale(0.1 -0.1)">
       <use xlink:href="#DejaVuSans-35"/>
      </g>
     </g>
    </g>
    <g id="ytick_6">
     <g id="line2d_25">
      <g>
       <use xlink:href="#m4854dc96bc" x="43.78125" y="110.318255" style="stroke: #000000; stroke-width: 0.8"/>
      </g>
     </g>
     <g id="text_7">
      <!-- 10 -->
      <g transform="translate(24.05625 114.117473) scale(0.1 -0.1)">
       <use xlink:href="#DejaVuSans-31"/>
       <use xlink:href="#DejaVuSans-30" transform="translate(63.623047 0)"/>
      </g>
     </g>
    </g>
    <g id="text_8">
     <!-- LacY -->
     <g transform="translate(17.976563 162.67476) rotate(-90) scale(0.1 -0.1)">
      <defs>
       <path id="DejaVuSans-4c" d="M 628 4666 
L 1259 4666 
L 1259 531 
L 3531 531 
L 3531 0 
L 628 0 
L 628 4666 
z
" transform="scale(0.015625)"/>
       <path id="DejaVuSans-59" d="M -13 4666 
L 666 4666 
L 1959 2747 
L 3244 4666 
L 3922 4666 
L 2272 2222 
L 2272 0 
L 1638 0 
L 1638 2222 
L -13 4666 
z
" transform="scale(0.015625)"/>
      </defs>
      <use xlink:href="#DejaVuSans-4c"/>
      <use xlink:href="#DejaVuSans-61" transform="translate(55.712891 0)"/>
      <use xlink:href="#DejaVuSans-63" transform="translate(116.992188 0)"/>
      <use xlink:href="#DejaVuSans-59" transform="translate(171.972656 0)"/>
     </g>
    </g>
   </g>
   <g id="line2d_26">
    <path d="M 56.57299 110.318255 
L 56.640858 110.318255 
L 56.844766 134.740283 
L 57.094283 151.021635 
L 57.329623 175.443663 
L 57.661658 183.584339 
L 58.618 183.584339 
L 60.148145 191.725015 
L 84.401596 191.725015 
L 84.52056 183.584339 
L 85.165788 183.584339 
L 85.179942 191.725015 
L 91.437506 191.725015 
L 91.62959 183.584339 
L 91.93041 191.725015 
L 92.051195 175.443663 
L 92.116792 175.443663 
L 92.157422 183.584339 
L 93.369932 183.584339 
L 93.738229 191.725015 
L 101.265006 191.725015 
L 101.821806 183.584339 
L 101.851003 191.725015 
L 102.504448 191.725015 
L 102.52192 183.584339 
L 102.761986 183.584339 
L 102.765705 191.725015 
L 103.462886 191.725015 
L 103.558207 183.584339 
L 103.641734 191.725015 
L 104.05347 191.725015 
L 104.175839 183.584339 
L 104.288164 191.725015 
L 104.408057 167.302987 
L 104.416523 175.443663 
L 104.452449 175.443663 
L 104.762874 159.162311 
L 104.767373 167.302987 
L 104.910549 175.443663 
L 105.0529 175.443663 
L 105.138286 183.584339 
L 105.370262 183.584339 
L 106.77076 191.725015 
L 115.158964 191.725015 
L 115.266755 183.584339 
L 115.353335 191.725015 
L 118.354584 191.725015 
L 118.7276 175.443663 
L 118.955743 159.162311 
L 119.042403 167.302987 
L 119.101818 167.302987 
L 119.320241 175.443663 
L 119.892684 183.584339 
L 119.962338 191.725015 
L 122.027043 191.725015 
L 122.22185 175.443663 
L 122.389191 183.584339 
L 122.616244 183.584339 
L 122.852753 191.725015 
L 131.446055 191.725015 
L 131.713037 183.584339 
L 131.798399 191.725015 
L 132.178132 167.302987 
L 132.262159 175.443663 
L 133.151126 191.725015 
L 143.721978 191.725015 
L 144.509474 183.584339 
L 145.064492 183.584339 
L 145.115126 191.725015 
L 148.858663 191.725015 
L 149.285602 175.443663 
L 149.463217 175.443663 
L 150.424313 183.584339 
L 150.750276 167.302987 
L 150.838138 175.443663 
L 151.103589 183.584339 
L 151.428011 183.584339 
L 151.908563 191.725015 
L 193.885472 191.725015 
L 194.182988 183.584339 
L 194.608842 183.584339 
L 194.694948 191.725015 
L 195.139624 191.725015 
L 195.619747 183.584339 
L 195.632233 183.584339 
L 195.749626 175.443663 
L 196.036547 175.443663 
L 196.142886 167.302987 
L 196.27675 167.302987 
L 196.395362 183.584339 
L 196.481467 175.443663 
L 196.49595 183.584339 
L 196.696099 183.584339 
L 196.843225 167.302987 
L 197.031762 167.302987 
L 197.058884 159.162311 
L 197.139529 167.302987 
L 197.587217 167.302987 
L 197.692398 159.162311 
L 197.724876 159.162311 
L 197.835317 167.302987 
L 197.967907 167.302987 
L 198.069515 175.443663 
L 198.18842 175.443663 
L 198.300542 159.162311 
L 198.505458 159.162311 
L 198.617196 167.302987 
L 198.721774 167.302987 
L 198.832274 175.443663 
L 198.987808 175.443663 
L 199.101505 167.302987 
L 199.215667 167.302987 
L 199.351604 142.880959 
L 199.462575 142.880959 
L 199.575493 159.162311 
L 199.595961 159.162311 
L 199.710902 167.302987 
L 199.856852 167.302987 
L 199.861943 175.443663 
L 199.963653 167.302987 
L 199.988559 167.302987 
L 200.039468 159.162311 
L 200.095685 167.302987 
L 200.132579 167.302987 
L 200.248657 151.021635 
L 200.299829 151.021635 
L 200.411699 142.880959 
L 200.525801 142.880959 
L 200.622316 151.021635 
L 200.635514 142.880959 
L 200.753799 142.880959 
L 200.863557 159.162311 
L 200.943581 159.162311 
L 201.057217 175.443663 
L 201.216811 175.443663 
L 201.309992 183.584339 
L 201.423098 183.584339 
L 201.538905 191.725015 
L 201.559075 191.725015 
L 201.697825 175.443663 
L 201.807802 175.443663 
L 201.855912 167.302987 
L 201.901964 175.443663 
L 202.057331 175.443663 
L 202.1536 183.584339 
L 202.283791 183.584339 
L 202.384957 175.443663 
L 202.443891 175.443663 
L 202.561838 167.302987 
L 202.638435 167.302987 
L 202.746583 159.162311 
L 202.81972 159.162311 
L 202.884345 142.880959 
L 202.930564 151.021635 
L 203.044738 151.021635 
L 203.154804 159.162311 
L 203.208751 159.162311 
L 203.315912 142.880959 
L 203.335776 142.880959 
L 203.405828 134.740283 
L 203.438451 142.880959 
L 203.56761 142.880959 
L 203.690425 151.021635 
L 203.722747 151.021635 
L 203.825499 175.443663 
L 203.956482 175.443663 
L 204.06584 167.302987 
L 204.092224 167.302987 
L 204.132703 175.443663 
L 204.199154 167.302987 
L 204.248647 167.302987 
L 204.346301 175.443663 
L 204.50848 175.443663 
L 204.618954 159.162311 
L 204.640849 159.162311 
L 204.735092 151.021635 
L 204.861812 167.302987 
L 204.923895 167.302987 
L 205.043589 175.443663 
L 205.397147 175.443663 
L 205.494594 183.584339 
L 205.550485 183.584339 
L 205.637956 191.725015 
L 205.640364 183.584339 
L 205.700896 183.584339 
L 205.815023 175.443663 
L 205.906121 175.443663 
L 206.013098 183.584339 
L 206.062707 183.584339 
L 206.203114 191.725015 
L 206.513399 191.725015 
L 206.651231 175.443663 
L 206.941198 175.443663 
L 206.963645 151.021635 
L 207.054002 159.162311 
L 207.058988 159.162311 
L 207.176921 151.021635 
L 207.227281 151.021635 
L 207.337773 159.162311 
L 207.398539 159.162311 
L 207.480135 167.302987 
L 207.597911 167.302987 
L 207.721468 159.162311 
L 207.745391 159.162311 
L 207.869038 175.443663 
L 207.876381 175.443663 
L 207.996659 167.302987 
L 208.006342 167.302987 
L 208.14853 159.162311 
L 208.15556 159.162311 
L 208.216792 167.302987 
L 208.249606 159.162311 
L 208.341548 159.162311 
L 208.380377 175.443663 
L 208.440594 167.302987 
L 208.566041 175.443663 
L 208.579199 175.443663 
L 208.709117 159.162311 
L 208.715129 159.162311 
L 208.786828 167.302987 
L 208.822588 159.162311 
L 209.095646 159.162311 
L 209.186748 175.443663 
L 209.328276 175.443663 
L 209.419617 183.584339 
L 209.623762 183.584339 
L 209.673231 175.443663 
L 209.877982 175.443663 
L 209.981153 183.584339 
L 210.419783 183.584339 
L 210.538057 175.443663 
L 210.680824 175.443663 
L 210.791141 183.584339 
L 211.023616 183.584339 
L 211.029001 191.725015 
L 211.107098 183.584339 
L 211.344604 183.584339 
L 211.37907 175.443663 
L 211.449302 183.584339 
L 211.544472 175.443663 
L 211.555728 183.584339 
L 211.721326 183.584339 
L 211.809302 191.725015 
L 212.841582 191.725015 
L 213.093621 167.302987 
L 213.160426 167.302987 
L 213.282547 175.443663 
L 213.450187 175.443663 
L 213.613645 183.584339 
L 213.868638 183.584339 
L 213.965088 191.725015 
L 214.49697 191.725015 
L 214.587032 183.584339 
L 214.821127 159.162311 
L 214.89986 159.162311 
L 215.020144 167.302987 
L 215.330569 167.302987 
L 215.434383 175.443663 
L 215.507288 175.443663 
L 215.54111 167.302987 
L 215.592163 183.584339 
L 215.722436 167.302987 
L 216.042403 167.302987 
L 216.200535 175.443663 
L 216.277921 175.443663 
L 216.374607 167.302987 
L 216.383534 175.443663 
L 216.500899 175.443663 
L 216.682061 191.725015 
L 216.976944 175.443663 
L 216.99619 175.443663 
L 217.128808 191.725015 
L 217.25324 183.584339 
L 217.868865 183.584339 
L 217.963461 167.302987 
L 217.982104 175.443663 
L 218.84507 175.443663 
L 218.957084 167.302987 
L 219.291756 167.302987 
L 219.341822 175.443663 
L 219.419471 175.443663 
L 219.478313 183.584339 
L 219.811 183.584339 
L 219.948663 191.725015 
L 220.164891 183.584339 
L 220.250466 183.584339 
L 220.281054 167.302987 
L 220.344783 175.443663 
L 220.682679 175.443663 
L 220.78084 167.302987 
L 220.860146 167.302987 
L 220.958635 175.443663 
L 221.116833 159.162311 
L 221.225192 167.302987 
L 221.27308 167.302987 
L 221.364887 175.443663 
L 221.37448 167.302987 
L 221.397651 175.443663 
L 221.456766 159.162311 
L 221.502203 159.162311 
L 221.595438 167.302987 
L 221.656676 167.302987 
L 221.768574 175.443663 
L 221.918506 175.443663 
L 222.036015 183.584339 
L 222.617366 183.584339 
L 222.774766 191.725015 
L 223.256281 183.584339 
L 223.660473 183.584339 
L 223.752011 175.443663 
L 223.770211 183.584339 
L 223.801772 183.584339 
L 223.878675 175.443663 
L 223.960528 183.584339 
L 224.064901 175.443663 
L 224.637104 175.443663 
L 224.705811 167.302987 
L 224.845746 175.443663 
L 224.982135 175.443663 
L 224.996184 183.584339 
L 225.422426 183.584339 
L 225.508784 191.725015 
L 225.619175 191.725015 
L 225.724912 183.584339 
L 226.030445 183.584339 
L 226.153189 167.302987 
L 226.240911 167.302987 
L 226.29304 159.162311 
L 226.37317 167.302987 
L 226.8082 167.302987 
L 226.902982 159.162311 
L 226.912044 167.302987 
L 227.087316 167.302987 
L 227.229933 191.725015 
L 227.337763 183.584339 
L 227.568353 183.584339 
L 227.685103 191.725015 
L 227.940331 191.725015 
L 227.970692 183.584339 
L 228.24379 183.584339 
L 228.357086 175.443663 
L 228.421318 175.443663 
L 228.549524 159.162311 
L 228.686754 167.302987 
L 228.788832 175.443663 
L 229.096763 175.443663 
L 229.168185 183.584339 
L 229.309001 175.443663 
L 229.344325 183.584339 
L 229.417829 175.443663 
L 229.839966 175.443663 
L 229.945314 167.302987 
L 230.063785 167.302987 
L 230.209797 159.162311 
L 230.380153 159.162311 
L 230.461966 167.302987 
L 230.522451 167.302987 
L 230.702219 183.584339 
L 230.852842 175.443663 
L 231.0256 175.443663 
L 231.151735 167.302987 
L 231.337907 175.443663 
L 231.58542 175.443663 
L 231.699273 183.584339 
L 231.907898 183.584339 
L 231.920447 191.725015 
L 232.276741 191.725015 
L 232.470738 183.584339 
L 232.582024 191.725015 
L 233.101981 191.725015 
L 233.178293 183.584339 
L 233.313523 183.584339 
L 233.423655 191.725015 
L 233.753539 191.725015 
L 233.898995 183.584339 
L 233.96366 191.725015 
L 234.048892 183.584339 
L 234.223203 183.584339 
L 234.373665 191.725015 
L 234.496249 191.725015 
L 234.515398 183.584339 
L 234.779535 175.443663 
L 235.426719 175.443663 
L 235.551704 167.302987 
L 235.72481 167.302987 
L 235.761217 175.443663 
L 235.81678 167.302987 
L 235.850479 167.302987 
L 235.947388 159.162311 
L 235.990963 159.162311 
L 236.072968 167.302987 
L 236.331298 167.302987 
L 236.442423 175.443663 
L 237.022995 175.443663 
L 237.024551 183.584339 
L 237.598508 183.584339 
L 237.684901 191.725015 
L 241.55525 191.725015 
L 241.744357 183.584339 
L 241.849794 191.725015 
L 242.179465 191.725015 
L 242.61795 183.584339 
L 242.628167 175.443663 
L 242.863042 183.584339 
L 242.926286 175.443663 
L 243.051882 167.302987 
L 243.143464 167.302987 
L 243.292164 159.162311 
L 243.311045 159.162311 
L 243.458648 175.443663 
L 243.559084 159.162311 
L 243.647491 167.302987 
L 243.780476 159.162311 
L 244.204167 159.162311 
L 244.273745 167.302987 
L 244.511663 167.302987 
L 244.687014 175.443663 
L 245.244814 175.443663 
L 245.381536 183.584339 
L 245.393283 175.443663 
L 245.471421 183.584339 
L 245.544033 191.725015 
L 245.676546 183.584339 
L 246.813431 183.584339 
L 246.831812 191.725015 
L 247.103479 175.443663 
L 247.209122 167.302987 
L 247.289545 167.302987 
L 247.364015 191.725015 
L 248.723267 191.725015 
L 248.732352 183.584339 
L 248.923756 191.725015 
L 249.744985 191.725015 
L 249.77594 183.584339 
L 249.981989 175.443663 
L 250.085179 183.584339 
L 250.177609 183.584339 
L 250.28264 191.725015 
L 250.445029 191.725015 
L 250.583947 183.584339 
L 250.849893 167.302987 
L 250.992267 175.443663 
L 251.100872 175.443663 
L 251.132847 159.162311 
L 251.207191 167.302987 
L 251.356028 167.302987 
L 251.474657 159.162311 
L 251.562362 167.302987 
L 251.78025 167.302987 
L 251.939059 175.443663 
L 252.766186 175.443663 
L 252.805893 183.584339 
L 252.938791 183.584339 
L 253.146337 175.443663 
L 253.327428 151.021635 
L 253.415096 151.021635 
L 253.605726 167.302987 
L 253.688759 167.302987 
L 253.823473 159.162311 
L 253.908121 167.302987 
L 254.28736 167.302987 
L 254.423516 175.443663 
L 255.191412 175.443663 
L 255.24852 183.584339 
L 255.7061 183.584339 
L 255.758575 175.443663 
L 256.356449 175.443663 
L 256.399495 183.584339 
L 257.484461 183.584339 
L 257.829464 191.725015 
L 270.025265 191.725015 
L 270.395174 183.584339 
L 270.533722 183.584339 
L 270.633692 191.725015 
L 274.281003 191.725015 
L 274.367698 183.584339 
L 274.43336 191.725015 
L 281.698796 191.725015 
L 282.179843 183.584339 
L 282.260394 191.725015 
L 282.317592 183.584339 
L 282.485869 183.584339 
L 282.701634 191.725015 
L 287.235499 191.725015 
L 287.903096 183.584339 
L 289.499825 183.584339 
L 289.55378 191.725015 
L 290.416884 191.725015 
L 290.504374 183.584339 
L 290.706007 175.443663 
L 290.879441 175.443663 
L 290.900342 183.584339 
L 291.020378 175.443663 
L 291.310145 175.443663 
L 291.343671 167.302987 
L 291.388218 175.443663 
L 291.466523 183.584339 
L 291.616784 167.302987 
L 291.824392 167.302987 
L 291.948198 175.443663 
L 291.960295 167.302987 
L 292.050484 175.443663 
L 292.115146 175.443663 
L 292.257402 167.302987 
L 292.447408 167.302987 
L 292.516857 175.443663 
L 292.590061 175.443663 
L 292.618459 191.725015 
L 292.759226 191.725015 
L 292.887423 175.443663 
L 292.973078 191.725015 
L 293.234548 191.725015 
L 293.494629 175.443663 
L 293.495013 167.302987 
L 293.560565 175.443663 
L 293.669696 175.443663 
L 293.723876 183.584339 
L 294.043494 175.443663 
L 294.173312 191.725015 
L 294.221133 191.725015 
L 294.604555 167.302987 
L 294.81476 183.584339 
L 295.038837 183.584339 
L 295.138174 159.162311 
L 295.193967 167.302987 
L 295.227426 183.584339 
L 295.416843 183.584339 
L 295.483865 175.443663 
L 295.549913 191.725015 
L 295.9526 191.725015 
L 295.981795 183.584339 
L 296.151612 175.443663 
L 296.274204 183.584339 
L 296.300148 183.584339 
L 296.553474 191.725015 
L 296.650612 175.443663 
L 296.793791 175.443663 
L 296.887475 159.162311 
L 297.058756 151.021635 
L 297.111262 159.162311 
L 297.171764 151.021635 
L 297.27574 167.302987 
L 297.362479 159.162311 
L 297.753358 191.725015 
L 297.773351 183.584339 
L 298.06032 191.725015 
L 298.232942 175.443663 
L 298.290026 183.584339 
L 298.854553 183.584339 
L 299.021594 167.302987 
L 299.209974 183.584339 
L 299.451587 183.584339 
L 299.50449 175.443663 
L 299.63133 183.584339 
L 299.915749 183.584339 
L 302.440285 191.725015 
L 312.40778 191.725015 
L 312.40778 191.725015 
" clip-path="url(#p69b0121a00)" style="fill: none; stroke: #000000; stroke-width: 1.5; stroke-linecap: square"/>
   </g>
   <g id="patch_8">
    <path d="M 43.78125 195.795353 
L 43.78125 106.247917 
" style="fill: none; stroke: #000000; stroke-width: 0.8; stroke-linejoin: miter; stroke-linecap: square"/>
   </g>
   <g id="patch_9">
    <path d="M 325.19952 195.795353 
L 325.19952 106.247917 
" style="fill: none; stroke: #000000; stroke-width: 0.8; stroke-linejoin: miter; stroke-linecap: square"/>
   </g>
   <g id="patch_10">
    <path d="M 43.78125 195.795353 
L 325.19952 195.795353 
" style="fill: none; stroke: #000000; stroke-width: 0.8; stroke-linejoin: miter; stroke-linecap: square"/>
   </g>
   <g id="patch_11">
    <path d="M 43.78125 106.247917 
L 325.19952 106.247917 
" style="fill: none; stroke: #000000; stroke-width: 0.8; stroke-linejoin: miter; stroke-linecap: square"/>
   </g>
  </g>
  <g id="axes_3">
   <g id="patch_12">
    <path d="M 43.78125 294.84327 
L 325.19952 294.84327 
L 325.19952 205.295833 
L 43.78125 205.295833 
z
" style="fill: #ffffff"/>
   </g>
   <g id="matplotlib.axis_5">
    <g id="xtick_19">
     <g id="line2d_27">
      <g>
       <use xlink:href="#mb1065140b6" x="56.57299" y="294.84327" style="stroke: #000000; stroke-width: 0.8"/>
      </g>
     </g>
     <g id="text_9">
      <!-- 0 -->
      <g transform="translate(53.39174 309.441707) scale(0.1 -0.1)">
       <use xlink:href="#DejaVuSans-30"/>
      </g>
     </g>
    </g>
    <g id="xtick_20">
     <g id="line2d_28">
      <g>
       <use xlink:href="#mb1065140b6" x="88.37949" y="294.84327" style="stroke: #000000; stroke-width: 0.8"/>
      </g>
     </g>
     <g id="text_10">
      <!-- 100 -->
      <g transform="translate(78.83574 309.441707) scale(0.1 -0.1)">
       <use xlink:href="#DejaVuSans-31"/>
       <use xlink:href="#DejaVuSans-30" transform="translate(63.623047 0)"/>
       <use xlink:href="#DejaVuSans-30" transform="translate(127.246094 0)"/>
      </g>
     </g>
    </g>
    <g id="xtick_21">
     <g id="line2d_29">
      <g>
       <use xlink:href="#mb1065140b6" x="120.185991" y="294.84327" style="stroke: #000000; stroke-width: 0.8"/>
      </g>
     </g>
     <g id="text_11">
      <!-- 200 -->
      <g transform="translate(110.642241 309.441707) scale(0.1 -0.1)">
       <defs>
        <path id="DejaVuSans-32" d="M 1228 531 
L 3431 531 
L 3431 0 
L 469 0 
L 469 531 
Q 828 903 1448 1529 
Q 2069 2156 2228 2338 
Q 2531 2678 2651 2914 
Q 2772 3150 2772 3378 
Q 2772 3750 2511 3984 
Q 2250 4219 1831 4219 
Q 1534 4219 1204 4116 
Q 875 4013 500 3803 
L 500 4441 
Q 881 4594 1212 4672 
Q 1544 4750 1819 4750 
Q 2544 4750 2975 4387 
Q 3406 4025 3406 3419 
Q 3406 3131 3298 2873 
Q 3191 2616 2906 2266 
Q 2828 2175 2409 1742 
Q 1991 1309 1228 531 
z
" transform="scale(0.015625)"/>
       </defs>
       <use xlink:href="#DejaVuSans-32"/>
       <use xlink:href="#DejaVuSans-30" transform="translate(63.623047 0)"/>
       <use xlink:href="#DejaVuSans-30" transform="translate(127.246094 0)"/>
      </g>
     </g>
    </g>
    <g id="xtick_22">
     <g id="line2d_30">
      <g>
       <use xlink:href="#mb1065140b6" x="151.992492" y="294.84327" style="stroke: #000000; stroke-width: 0.8"/>
      </g>
     </g>
     <g id="text_12">
      <!-- 300 -->
      <g transform="translate(142.448742 309.441707) scale(0.1 -0.1)">
       <defs>
        <path id="DejaVuSans-33" d="M 2597 2516 
Q 3050 2419 3304 2112 
Q 3559 1806 3559 1356 
Q 3559 666 3084 287 
Q 2609 -91 1734 -91 
Q 1441 -91 1130 -33 
Q 819 25 488 141 
L 488 750 
Q 750 597 1062 519 
Q 1375 441 1716 441 
Q 2309 441 2620 675 
Q 2931 909 2931 1356 
Q 2931 1769 2642 2001 
Q 2353 2234 1838 2234 
L 1294 2234 
L 1294 2753 
L 1863 2753 
Q 2328 2753 2575 2939 
Q 2822 3125 2822 3475 
Q 2822 3834 2567 4026 
Q 2313 4219 1838 4219 
Q 1578 4219 1281 4162 
Q 984 4106 628 3988 
L 628 4550 
Q 988 4650 1302 4700 
Q 1616 4750 1894 4750 
Q 2613 4750 3031 4423 
Q 3450 4097 3450 3541 
Q 3450 3153 3228 2886 
Q 3006 2619 2597 2516 
z
" transform="scale(0.015625)"/>
       </defs>
       <use xlink:href="#DejaVuSans-33"/>
       <use xlink:href="#DejaVuSans-30" transform="translate(63.623047 0)"/>
       <use xlink:href="#DejaVuSans-30" transform="translate(127.246094 0)"/>
      </g>
     </g>
    </g>
    <g id="xtick_23">
     <g id="line2d_31">
      <g>
       <use xlink:href="#mb1065140b6" x="183.798992" y="294.84327" style="stroke: #000000; stroke-width: 0.8"/>
      </g>
     </g>
     <g id="text_13">
      <!-- 400 -->
      <g transform="translate(174.255242 309.441707) scale(0.1 -0.1)">
       <defs>
        <path id="DejaVuSans-34" d="M 2419 4116 
L 825 1625 
L 2419 1625 
L 2419 4116 
z
M 2253 4666 
L 3047 4666 
L 3047 1625 
L 3713 1625 
L 3713 1100 
L 3047 1100 
L 3047 0 
L 2419 0 
L 2419 1100 
L 313 1100 
L 313 1709 
L 2253 4666 
z
" transform="scale(0.015625)"/>
       </defs>
       <use xlink:href="#DejaVuSans-34"/>
       <use xlink:href="#DejaVuSans-30" transform="translate(63.623047 0)"/>
       <use xlink:href="#DejaVuSans-30" transform="translate(127.246094 0)"/>
      </g>
     </g>
    </g>
    <g id="xtick_24">
     <g id="line2d_32">
      <g>
       <use xlink:href="#mb1065140b6" x="215.605493" y="294.84327" style="stroke: #000000; stroke-width: 0.8"/>
      </g>
     </g>
     <g id="text_14">
      <!-- 500 -->
      <g transform="translate(206.061743 309.441707) scale(0.1 -0.1)">
       <use xlink:href="#DejaVuSans-35"/>
       <use xlink:href="#DejaVuSans-30" transform="translate(63.623047 0)"/>
       <use xlink:href="#DejaVuSans-30" transform="translate(127.246094 0)"/>
      </g>
     </g>
    </g>
    <g id="xtick_25">
     <g id="line2d_33">
      <g>
       <use xlink:href="#mb1065140b6" x="247.411994" y="294.84327" style="stroke: #000000; stroke-width: 0.8"/>
      </g>
     </g>
     <g id="text_15">
      <!-- 600 -->
      <g transform="translate(237.868244 309.441707) scale(0.1 -0.1)">
       <defs>
        <path id="DejaVuSans-36" d="M 2113 2584 
Q 1688 2584 1439 2293 
Q 1191 2003 1191 1497 
Q 1191 994 1439 701 
Q 1688 409 2113 409 
Q 2538 409 2786 701 
Q 3034 994 3034 1497 
Q 3034 2003 2786 2293 
Q 2538 2584 2113 2584 
z
M 3366 4563 
L 3366 3988 
Q 3128 4100 2886 4159 
Q 2644 4219 2406 4219 
Q 1781 4219 1451 3797 
Q 1122 3375 1075 2522 
Q 1259 2794 1537 2939 
Q 1816 3084 2150 3084 
Q 2853 3084 3261 2657 
Q 3669 2231 3669 1497 
Q 3669 778 3244 343 
Q 2819 -91 2113 -91 
Q 1303 -91 875 529 
Q 447 1150 447 2328 
Q 447 3434 972 4092 
Q 1497 4750 2381 4750 
Q 2619 4750 2861 4703 
Q 3103 4656 3366 4563 
z
" transform="scale(0.015625)"/>
       </defs>
       <use xlink:href="#DejaVuSans-36"/>
       <use xlink:href="#DejaVuSans-30" transform="translate(63.623047 0)"/>
       <use xlink:href="#DejaVuSans-30" transform="translate(127.246094 0)"/>
      </g>
     </g>
    </g>
    <g id="xtick_26">
     <g id="line2d_34">
      <g>
       <use xlink:href="#mb1065140b6" x="279.218495" y="294.84327" style="stroke: #000000; stroke-width: 0.8"/>
      </g>
     </g>
     <g id="text_16">
      <!-- 700 -->
      <g transform="translate(269.674745 309.441707) scale(0.1 -0.1)">
       <defs>
        <path id="DejaVuSans-37" d="M 525 4666 
L 3525 4666 
L 3525 4397 
L 1831 0 
L 1172 0 
L 2766 4134 
L 525 4134 
L 525 4666 
z
" transform="scale(0.015625)"/>
       </defs>
       <use xlink:href="#DejaVuSans-37"/>
       <use xlink:href="#DejaVuSans-30" transform="translate(63.623047 0)"/>
       <use xlink:href="#DejaVuSans-30" transform="translate(127.246094 0)"/>
      </g>
     </g>
    </g>
    <g id="xtick_27">
     <g id="line2d_35">
      <g>
       <use xlink:href="#mb1065140b6" x="311.024995" y="294.84327" style="stroke: #000000; stroke-width: 0.8"/>
      </g>
     </g>
     <g id="text_17">
      <!-- 800 -->
      <g transform="translate(301.481245 309.441707) scale(0.1 -0.1)">
       <defs>
        <path id="DejaVuSans-38" d="M 2034 2216 
Q 1584 2216 1326 1975 
Q 1069 1734 1069 1313 
Q 1069 891 1326 650 
Q 1584 409 2034 409 
Q 2484 409 2743 651 
Q 3003 894 3003 1313 
Q 3003 1734 2745 1975 
Q 2488 2216 2034 2216 
z
M 1403 2484 
Q 997 2584 770 2862 
Q 544 3141 544 3541 
Q 544 4100 942 4425 
Q 1341 4750 2034 4750 
Q 2731 4750 3128 4425 
Q 3525 4100 3525 3541 
Q 3525 3141 3298 2862 
Q 3072 2584 2669 2484 
Q 3125 2378 3379 2068 
Q 3634 1759 3634 1313 
Q 3634 634 3220 271 
Q 2806 -91 2034 -91 
Q 1263 -91 848 271 
Q 434 634 434 1313 
Q 434 1759 690 2068 
Q 947 2378 1403 2484 
z
M 1172 3481 
Q 1172 3119 1398 2916 
Q 1625 2713 2034 2713 
Q 2441 2713 2670 2916 
Q 2900 3119 2900 3481 
Q 2900 3844 2670 4047 
Q 2441 4250 2034 4250 
Q 1625 4250 1398 4047 
Q 1172 3844 1172 3481 
z
" transform="scale(0.015625)"/>
       </defs>
       <use xlink:href="#DejaVuSans-38"/>
       <use xlink:href="#DejaVuSans-30" transform="translate(63.623047 0)"/>
       <use xlink:href="#DejaVuSans-30" transform="translate(127.246094 0)"/>
      </g>
     </g>
    </g>
    <g id="text_18">
     <!-- Time -->
     <g transform="translate(172.256791 323.119832) scale(0.1 -0.1)">
      <defs>
       <path id="DejaVuSans-54" d="M -19 4666 
L 3928 4666 
L 3928 4134 
L 2272 4134 
L 2272 0 
L 1638 0 
L 1638 4134 
L -19 4134 
L -19 4666 
z
" transform="scale(0.015625)"/>
       <path id="DejaVuSans-69" d="M 603 3500 
L 1178 3500 
L 1178 0 
L 603 0 
L 603 3500 
z
M 603 4863 
L 1178 4863 
L 1178 4134 
L 603 4134 
L 603 4863 
z
" transform="scale(0.015625)"/>
       <path id="DejaVuSans-6d" d="M 3328 2828 
Q 3544 3216 3844 3400 
Q 4144 3584 4550 3584 
Q 5097 3584 5394 3201 
Q 5691 2819 5691 2113 
L 5691 0 
L 5113 0 
L 5113 2094 
Q 5113 2597 4934 2840 
Q 4756 3084 4391 3084 
Q 3944 3084 3684 2787 
Q 3425 2491 3425 1978 
L 3425 0 
L 2847 0 
L 2847 2094 
Q 2847 2600 2669 2842 
Q 2491 3084 2119 3084 
Q 1678 3084 1418 2786 
Q 1159 2488 1159 1978 
L 1159 0 
L 581 0 
L 581 3500 
L 1159 3500 
L 1159 2956 
Q 1356 3278 1631 3431 
Q 1906 3584 2284 3584 
Q 2666 3584 2933 3390 
Q 3200 3197 3328 2828 
z
" transform="scale(0.015625)"/>
      </defs>
      <use xlink:href="#DejaVuSans-54"/>
      <use xlink:href="#DejaVuSans-69" transform="translate(57.958984 0)"/>
      <use xlink:href="#DejaVuSans-6d" transform="translate(85.742188 0)"/>
      <use xlink:href="#DejaVuSans-65" transform="translate(183.154297 0)"/>
     </g>
    </g>
   </g>
   <g id="matplotlib.axis_6">
    <g id="ytick_7">
     <g id="line2d_36">
      <g>
       <use xlink:href="#m4854dc96bc" x="43.78125" y="290.772932" style="stroke: #000000; stroke-width: 0.8"/>
      </g>
     </g>
     <g id="text_19">
      <!-- 0.0 -->
      <g transform="translate(20.878125 294.572151) scale(0.1 -0.1)">
       <defs>
        <path id="DejaVuSans-2e" d="M 684 794 
L 1344 794 
L 1344 0 
L 684 0 
L 684 794 
z
" transform="scale(0.015625)"/>
       </defs>
       <use xlink:href="#DejaVuSans-30"/>
       <use xlink:href="#DejaVuSans-2e" transform="translate(63.623047 0)"/>
       <use xlink:href="#DejaVuSans-30" transform="translate(95.410156 0)"/>
      </g>
     </g>
    </g>
    <g id="ytick_8">
     <g id="line2d_37">
      <g>
       <use xlink:href="#m4854dc96bc" x="43.78125" y="250.069552" style="stroke: #000000; stroke-width: 0.8"/>
      </g>
     </g>
     <g id="text_20">
      <!-- 0.5 -->
      <g transform="translate(20.878125 253.86877) scale(0.1 -0.1)">
       <use xlink:href="#DejaVuSans-30"/>
       <use xlink:href="#DejaVuSans-2e" transform="translate(63.623047 0)"/>
       <use xlink:href="#DejaVuSans-35" transform="translate(95.410156 0)"/>
      </g>
     </g>
    </g>
    <g id="ytick_9">
     <g id="line2d_38">
      <g>
       <use xlink:href="#m4854dc96bc" x="43.78125" y="209.366171" style="stroke: #000000; stroke-width: 0.8"/>
      </g>
     </g>
     <g id="text_21">
      <!-- 1.0 -->
      <g transform="translate(20.878125 213.16539) scale(0.1 -0.1)">
       <use xlink:href="#DejaVuSans-31"/>
       <use xlink:href="#DejaVuSans-2e" transform="translate(63.623047 0)"/>
       <use xlink:href="#DejaVuSans-30" transform="translate(95.410156 0)"/>
      </g>
     </g>
    </g>
    <g id="text_22">
     <!-- Free lac operon -->
     <g transform="translate(14.798438 288.540645) rotate(-90) scale(0.1 -0.1)">
      <defs>
       <path id="DejaVuSans-46" d="M 628 4666 
L 3309 4666 
L 3309 4134 
L 1259 4134 
L 1259 2759 
L 3109 2759 
L 3109 2228 
L 1259 2228 
L 1259 0 
L 628 0 
L 628 4666 
z
" transform="scale(0.015625)"/>
       <path id="DejaVuSans-70" d="M 1159 525 
L 1159 -1331 
L 581 -1331 
L 581 3500 
L 1159 3500 
L 1159 2969 
Q 1341 3281 1617 3432 
Q 1894 3584 2278 3584 
Q 2916 3584 3314 3078 
Q 3713 2572 3713 1747 
Q 3713 922 3314 415 
Q 2916 -91 2278 -91 
Q 1894 -91 1617 61 
Q 1341 213 1159 525 
z
M 3116 1747 
Q 3116 2381 2855 2742 
Q 2594 3103 2138 3103 
Q 1681 3103 1420 2742 
Q 1159 2381 1159 1747 
Q 1159 1113 1420 752 
Q 1681 391 2138 391 
Q 2594 391 2855 752 
Q 3116 1113 3116 1747 
z
" transform="scale(0.015625)"/>
       <path id="DejaVuSans-6e" d="M 3513 2113 
L 3513 0 
L 2938 0 
L 2938 2094 
Q 2938 2591 2744 2837 
Q 2550 3084 2163 3084 
Q 1697 3084 1428 2787 
Q 1159 2491 1159 1978 
L 1159 0 
L 581 0 
L 581 3500 
L 1159 3500 
L 1159 2956 
Q 1366 3272 1645 3428 
Q 1925 3584 2291 3584 
Q 2894 3584 3203 3211 
Q 3513 2838 3513 2113 
z
" transform="scale(0.015625)"/>
      </defs>
      <use xlink:href="#DejaVuSans-46"/>
      <use xlink:href="#DejaVuSans-72" transform="translate(50.269531 0)"/>
      <use xlink:href="#DejaVuSans-65" transform="translate(89.132812 0)"/>
      <use xlink:href="#DejaVuSans-65" transform="translate(150.65625 0)"/>
      <use xlink:href="#DejaVuSans-20" transform="translate(212.179688 0)"/>
      <use xlink:href="#DejaVuSans-6c" transform="translate(243.966797 0)"/>
      <use xlink:href="#DejaVuSans-61" transform="translate(271.75 0)"/>
      <use xlink:href="#DejaVuSans-63" transform="translate(333.029297 0)"/>
      <use xlink:href="#DejaVuSans-20" transform="translate(388.009766 0)"/>
      <use xlink:href="#DejaVuSans-6f" transform="translate(419.796875 0)"/>
      <use xlink:href="#DejaVuSans-70" transform="translate(480.978516 0)"/>
      <use xlink:href="#DejaVuSans-65" transform="translate(544.455078 0)"/>
      <use xlink:href="#DejaVuSans-72" transform="translate(605.978516 0)"/>
      <use xlink:href="#DejaVuSans-6f" transform="translate(644.841797 0)"/>
      <use xlink:href="#DejaVuSans-6e" transform="translate(706.023438 0)"/>
     </g>
    </g>
   </g>
   <g id="line2d_39">
    <path d="M 56.57299 209.366171 
L 56.675544 290.772932 
L 60.148145 290.772932 
L 83.182435 209.366171 
L 83.480891 290.772932 
L 84.504401 209.366171 
L 84.52056 290.772932 
L 85.179942 290.772932 
L 86.365824 209.366171 
L 86.393322 290.772932 
L 91.437506 209.366171 
L 92.051195 209.366171 
L 92.157422 290.772932 
L 93.738229 290.772932 
L 101.265006 209.366171 
L 101.753793 209.366171 
L 101.851003 290.772932 
L 102.52192 209.366171 
L 102.765705 209.366171 
L 102.948332 290.772932 
L 103.558207 209.366171 
L 104.682901 209.366171 
L 104.767373 290.772932 
L 107.235397 290.772932 
L 110.498984 209.366171 
L 110.681638 290.772932 
L 115.266755 209.366171 
L 115.353335 209.366171 
L 115.681452 290.772932 
L 115.822037 290.772932 
L 118.354584 209.366171 
L 119.042403 209.366171 
L 119.101818 290.772932 
L 120.495277 290.772932 
L 122.099477 209.366171 
L 122.286403 290.772932 
L 122.852753 290.772932 
L 125.746787 209.366171 
L 126.162626 290.772932 
L 127.158675 209.366171 
L 127.162915 290.772932 
L 131.446055 209.366171 
L 132.185353 209.366171 
L 132.262159 290.772932 
L 133.151126 290.772932 
L 136.878775 209.366171 
L 136.900544 290.772932 
L 143.721978 209.366171 
L 144.509474 209.366171 
L 144.930801 290.772932 
L 145.115126 290.772932 
L 145.451925 209.366171 
L 145.657973 290.772932 
L 146.343837 209.366171 
L 146.35087 290.772932 
L 147.309756 209.366171 
L 147.442745 290.772932 
L 147.714726 209.366171 
L 148.298399 290.772932 
L 148.858663 209.366171 
L 149.352804 209.366171 
L 149.463217 290.772932 
L 150.329478 290.772932 
L 150.424313 209.366171 
L 150.751402 209.366171 
L 150.838138 290.772932 
L 151.103589 290.772932 
L 151.41494 209.366171 
L 151.428011 290.772932 
L 152.470616 290.772932 
L 154.906422 209.366171 
L 155.186227 290.772932 
L 160.571085 209.366171 
L 160.632568 290.772932 
L 171.158933 209.366171 
L 171.204746 290.772932 
L 172.192654 209.366171 
L 172.218973 290.772932 
L 193.885472 209.366171 
L 235.986354 209.366171 
L 236.072968 290.772932 
L 241.336184 290.772932 
L 241.55525 209.366171 
L 241.722625 209.366171 
L 241.849794 290.772932 
L 242.028901 290.772932 
L 242.179465 209.366171 
L 247.289593 209.366171 
L 247.364015 290.772932 
L 248.264844 209.366171 
L 248.299094 290.772932 
L 248.497022 290.772932 
L 248.732352 209.366171 
L 250.767272 209.366171 
L 250.911853 290.772932 
L 251.042458 290.772932 
L 251.182046 209.366171 
L 251.408566 209.366171 
L 251.562362 290.772932 
L 252.176621 290.772932 
L 252.805893 209.366171 
L 253.802429 209.366171 
L 253.908121 290.772932 
L 255.196674 290.772932 
L 255.245676 209.366171 
L 255.24852 290.772932 
L 255.758575 209.366171 
L 255.874046 209.366171 
L 255.960896 290.772932 
L 257.829464 290.772932 
L 269.394149 209.366171 
L 269.750301 290.772932 
L 270.025265 209.366171 
L 270.395174 209.366171 
L 270.633692 290.772932 
L 271.365351 209.366171 
L 271.551165 290.772932 
L 274.323983 209.366171 
L 274.43336 290.772932 
L 276.828648 290.772932 
L 280.836772 209.366171 
L 281.107138 290.772932 
L 281.698796 209.366171 
L 282.317592 209.366171 
L 282.485869 290.772932 
L 282.701634 290.772932 
L 287.235499 209.366171 
L 287.903096 209.366171 
L 288.151446 290.772932 
L 289.55378 290.772932 
L 290.504374 209.366171 
L 299.005025 209.366171 
L 299.128288 290.772932 
L 299.336483 290.772932 
L 299.50449 209.366171 
L 299.63133 209.366171 
L 299.915749 290.772932 
L 302.440285 290.772932 
L 307.494452 209.366171 
L 307.566897 290.772932 
L 312.40778 209.366171 
L 312.40778 209.366171 
" clip-path="url(#p038941a7e9)" style="fill: none; stroke: #000000; stroke-width: 1.5; stroke-linecap: square"/>
   </g>
   <g id="patch_13">
    <path d="M 43.78125 294.84327 
L 43.78125 205.295833 
" style="fill: none; stroke: #000000; stroke-width: 0.8; stroke-linejoin: miter; stroke-linecap: square"/>
   </g>
   <g id="patch_14">
    <path d="M 325.19952 294.84327 
L 325.19952 205.295833 
" style="fill: none; stroke: #000000; stroke-width: 0.8; stroke-linejoin: miter; stroke-linecap: square"/>
   </g>
   <g id="patch_15">
    <path d="M 43.78125 294.84327 
L 325.19952 294.84327 
" style="fill: none; stroke: #000000; stroke-width: 0.8; stroke-linejoin: miter; stroke-linecap: square"/>
   </g>
   <g id="patch_16">
    <path d="M 43.78125 205.295833 
L 325.19952 205.295833 
" style="fill: none; stroke: #000000; stroke-width: 0.8; stroke-linejoin: miter; stroke-linecap: square"/>
   </g>
  </g>
 </g>
 <defs>
  <clipPath id="p3a107534dc">
   <rect x="43.78125" y="7.2" width="281.41827" height="89.547437"/>
  </clipPath>
  <clipPath id="p69b0121a00">
   <rect x="43.78125" y="106.247917" width="281.41827" height="89.547437"/>
  </clipPath>
  <clipPath id="p038941a7e9">
   <rect x="43.78125" y="205.295833" width="281.41827" height="89.547437"/>
  </clipPath>
 </defs>
</svg>
