<?xml version="1.0" encoding="UTF-8" standalone="no"?>
<!DOCTYPE svg PUBLIC "-//W3C//DTD SVG 1.1//EN"
 "http://www.w3.org/Graphics/SVG/1.1/DTD/svg11.dtd">
<!-- Generated by graphviz version 2.43.0 (0)
 -->
<!-- Title: %3 Pages: 1 -->
<svg width="218pt" height="188pt"
 viewBox="0.00 0.00 218.00 188.00" xmlns="http://www.w3.org/2000/svg" xmlns:xlink="http://www.w3.org/1999/xlink">
<g id="graph0" class="graph" transform="scale(1 1) rotate(0) translate(4 184)">
<title>%3</title>
<polygon fill="white" stroke="transparent" points="-4,4 -4,-184 214,-184 214,4 -4,4"/>
<!-- A -->
<g id="node1" class="node">
<title>A</title>
<polygon fill="none" stroke="black" points="167,-151 167,-172 184,-172 184,-151 167,-151"/>
<text text-anchor="start" x="170" y="-158.8" font-family="Times,serif" font-weight="bold" font-size="14.00">A</text>
<polygon fill="none" stroke="black" points="184,-151 184,-172 195,-172 195,-151 184,-151"/>
<text text-anchor="start" x="187" y="-157.8" font-family="Times,serif" font-size="14.00">i</text>
</g>
<!-- I -->
<g id="node2" class="node">
<title>I</title>
<polygon fill="none" stroke="black" points="169,-79 169,-100 182,-100 182,-79 169,-79"/>
<text text-anchor="start" x="172" y="-86.8" font-family="Times,serif" font-weight="bold" font-size="14.00">I</text>
<polygon fill="none" stroke="black" points="182,-79 182,-100 197,-100 197,-79 182,-79"/>
<text text-anchor="start" x="185" y="-85.8" font-family="Times,serif" font-size="14.00">o</text>
</g>
<!-- A&#45;&gt;I -->
<g id="edge7" class="edge">
<title>A:i&#45;&gt;I:o</title>
<path fill="none" stroke="black" d="M190,-150C181,-128.22 181,-122.78 190,-101"/>
</g>
<!-- A&#45;&gt;I -->
<g id="edge9" class="edge">
<title>A:i&#45;&gt;I:o</title>
<path fill="none" stroke="black" stroke-dasharray="5,2" d="M190.11,-149.75C198.93,-128.35 198.96,-122.78 190.21,-101.51"/>
</g>
<!-- sink -->
<g id="node7" class="node">
<title>sink</title>
<ellipse fill="black" stroke="white" stroke-width="4" cx="89" cy="-90" rx="4.5" ry="4.5"/>
</g>
<!-- A&#45;&gt;sink -->
<g id="edge3" class="edge">
<title>A&#45;&gt;sink</title>
<path fill="none" stroke="black" d="M158.26,-143.7C139.93,-129.75 114.92,-110.72 100.51,-99.76"/>
<polygon fill="black" stroke="black" points="102.22,-96.66 92.14,-93.39 97.98,-102.23 102.22,-96.66"/>
</g>
<!-- O -->
<g id="node4" class="node">
<title>O</title>
<polygon fill="none" stroke="black" points="165,-7 165,-28 184,-28 184,-7 165,-7"/>
<text text-anchor="start" x="168" y="-14.8" font-family="Times,serif" font-weight="bold" font-size="14.00">O</text>
<polygon fill="none" stroke="black" points="184,-7 184,-28 195,-28 195,-7 184,-7"/>
<text text-anchor="start" x="187" y="-13.8" font-family="Times,serif" font-size="14.00">i</text>
</g>
<!-- I&#45;&gt;O -->
<g id="edge8" class="edge">
<title>I:o&#45;&gt;O:i</title>
<path fill="none" stroke="black" d="M190,-78C181,-56.22 181,-50.78 190,-29"/>
</g>
<!-- I&#45;&gt;O -->
<g id="edge10" class="edge">
<title>I:o&#45;&gt;O:i</title>
<path fill="none" stroke="black" stroke-dasharray="5,2" d="M190.11,-77.75C198.93,-56.35 198.96,-50.78 190.21,-29.51"/>
</g>
<!-- L -->
<g id="node3" class="node">
<title>L</title>
<polygon fill="none" stroke="black" points="14,-151 14,-172 30,-172 30,-151 14,-151"/>
<text text-anchor="start" x="17" y="-158.8" font-family="Times,serif" font-weight="bold" font-size="14.00">L</text>
<polygon fill="none" stroke="black" points="30,-151 30,-172 128,-172 128,-151 30,-151"/>
<text text-anchor="start" x="33" y="-157.8" font-family="Times,serif" font-size="14.00">loc {out→in}</text>
</g>
<!-- L&#45;&gt;sink -->
<g id="edge4" class="edge">
<title>L&#45;&gt;sink</title>
<path fill="none" stroke="black" d="M75.45,-143.7C78.57,-131.57 82.68,-115.59 85.55,-104.42"/>
<polygon fill="black" stroke="black" points="88.97,-105.15 88.08,-94.59 82.2,-103.41 88.97,-105.15"/>
</g>
<!-- Y -->
<g id="node5" class="node">
<title>Y</title>
<polygon fill="none" stroke="black" points="19,-7 19,-28 35,-28 35,-7 19,-7"/>
<text text-anchor="start" x="22" y="-14.8" font-family="Times,serif" font-weight="bold" font-size="14.00">Y</text>
</g>
<!-- Y&#45;&gt;sink -->
<g id="edge5" class="edge">
<title>Y&#45;&gt;sink</title>
<path fill="none" stroke="black" d="M48.06,-36.12C60.52,-48.7 75.17,-65.48 83.41,-76.73"/>
<polygon fill="black" stroke="black" points="80.55,-78.75 88.93,-85.24 86.42,-74.94 80.55,-78.75"/>
</g>
<!-- Z -->
<g id="node6" class="node">
<title>Z</title>
<polygon fill="none" stroke="black" points="91,-7 91,-28 108,-28 108,-7 91,-7"/>
<text text-anchor="start" x="94" y="-14.8" font-family="Times,serif" font-weight="bold" font-size="14.00">Z</text>
</g>
<!-- Z&#45;&gt;sink -->
<g id="edge6" class="edge">
<title>Z&#45;&gt;sink</title>
<path fill="none" stroke="black" d="M102.44,-36.3C101.94,-48.88 99.34,-65.61 96.01,-76.81"/>
<polygon fill="black" stroke="black" points="92.66,-75.76 92.17,-86.34 99.15,-78.37 92.66,-75.76"/>
</g>
<!-- sink&#45;&gt;Y -->
<g id="edge1" class="edge">
<title>sink&#45;&gt;Y</title>
<path fill="none" stroke="black" d="M85.17,-87.27C76.21,-81.3 56.83,-61 42.7,-44.07"/>
<polygon fill="black" stroke="black" points="45.27,-41.68 36.26,-36.11 39.83,-46.09 45.27,-41.68"/>
</g>
<!-- sink&#45;&gt;Z -->
<g id="edge2" class="edge">
<title>sink&#45;&gt;Z</title>
<path fill="none" stroke="black" d="M86.48,-85.99C84.42,-79.1 85.71,-61.59 88.52,-46.2"/>
<polygon fill="black" stroke="black" points="92.02,-46.54 90.68,-36.03 85.17,-45.09 92.02,-46.54"/>
</g>
</g>
</svg>
