<?xml version="1.0" encoding="utf-8" standalone="no"?>
<!DOCTYPE svg PUBLIC "-//W3C//DTD SVG 1.1//EN"
  "http://www.w3.org/Graphics/SVG/1.1/DTD/svg11.dtd">
<svg xmlns:xlink="http://www.w3.org/1999/xlink" width="332.39952pt" height="332.39952pt" viewBox="0 0 332.39952 332.39952" xmlns="http://www.w3.org/2000/svg" version="1.1">
 <metadata>
  <rdf:RDF xmlns:dc="http://purl.org/dc/elements/1.1/" xmlns:cc="http://creativecommons.org/ns#" xmlns:rdf="http://www.w3.org/1999/02/22-rdf-syntax-ns#">
   <cc:Work>
    <dc:type rdf:resource="http://purl.org/dc/dcmitype/StillImage"/>
    <dc:date>2026-05-26T15:23:09.725469</dc:date>
    <dc:format>image/svg+xml</dc:format>
    <dc:creator>
     <cc:Agent>
      <dc:title>Matplotlib v3.10.9, https://matplotlib.org/</dc:title>
     </cc:Agent>
    </dc:creator>
   </cc:Work>
  </rdf:RDF>
 </metadata>
 <defs>
  <style type="text/css">*{stroke-linejoin: round; stroke-linecap: butt}</style>
 </defs>
 <g id="figure_1">
  <g id="patch_1">
   <path d="M 0 332.39952 
L 332.39952 332.39952 
L 332.39952 0 
L 0 0 
z
" style="fill: #ffffff"/>
  </g>
  <g id="axes_1">
   <g id="patch_2">
    <path d="M 43.78125 96.747437 
L 325.19952 96.747437 
L 325.19952 7.2 
L 43.78125 7.2 
z
" style="fill: #ffffff"/>
   </g>
   <g id="matplotlib.axis_1">
    <g id="xtick_1">
     <g id="line2d_1">
      <defs>
       <path id="m5c79863250" d="M 0 0 
L 0 3.5 
" style="stroke: #000000; stroke-width: 0.8"/>
      </defs>
      <g>
       <use xlink:href="#m5c79863250" x="56.57299" y="96.747437" style="stroke: #000000; stroke-width: 0.8"/>
      </g>
     </g>
    </g>
    <g id="xtick_2">
     <g id="line2d_2">
      <g>
       <use xlink:href="#m5c79863250" x="88.535532" y="96.747437" style="stroke: #000000; stroke-width: 0.8"/>
      </g>
     </g>
    </g>
    <g id="xtick_3">
     <g id="line2d_3">
      <g>
       <use xlink:href="#m5c79863250" x="120.498075" y="96.747437" style="stroke: #000000; stroke-width: 0.8"/>
      </g>
     </g>
    </g>
    <g id="xtick_4">
     <g id="line2d_4">
      <g>
       <use xlink:href="#m5c79863250" x="152.460617" y="96.747437" style="stroke: #000000; stroke-width: 0.8"/>
      </g>
     </g>
    </g>
    <g id="xtick_5">
     <g id="line2d_5">
      <g>
       <use xlink:href="#m5c79863250" x="184.42316" y="96.747437" style="stroke: #000000; stroke-width: 0.8"/>
      </g>
     </g>
    </g>
    <g id="xtick_6">
     <g id="line2d_6">
      <g>
       <use xlink:href="#m5c79863250" x="216.385703" y="96.747437" style="stroke: #000000; stroke-width: 0.8"/>
      </g>
     </g>
    </g>
    <g id="xtick_7">
     <g id="line2d_7">
      <g>
       <use xlink:href="#m5c79863250" x="248.348245" y="96.747437" style="stroke: #000000; stroke-width: 0.8"/>
      </g>
     </g>
    </g>
    <g id="xtick_8">
     <g id="line2d_8">
      <g>
       <use xlink:href="#m5c79863250" x="280.310788" y="96.747437" style="stroke: #000000; stroke-width: 0.8"/>
      </g>
     </g>
    </g>
    <g id="xtick_9">
     <g id="line2d_9">
      <g>
       <use xlink:href="#m5c79863250" x="312.27333" y="96.747437" style="stroke: #000000; stroke-width: 0.8"/>
      </g>
     </g>
    </g>
   </g>
   <g id="matplotlib.axis_2">
    <g id="ytick_1">
     <g id="line2d_10">
      <defs>
       <path id="maf87e66a3d" d="M 0 0 
L -3.5 0 
" style="stroke: #000000; stroke-width: 0.8"/>
      </defs>
      <g>
       <use xlink:href="#maf87e66a3d" x="43.78125" y="92.677099" style="stroke: #000000; stroke-width: 0.8"/>
      </g>
     </g>
     <g id="text_1">
      <!-- 0 -->
      <g transform="translate(30.41875 96.476317) scale(0.1 -0.1)">
       <defs>
        <path id="DejaVuSans-30" d="M 2034 4250 
Q 1547 4250 1301 3770 
Q 1056 3291 1056 2328 
Q 1056 1369 1301 889 
Q 1547 409 2034 409 
Q 2525 409 2770 889 
Q 3016 1369 3016 2328 
Q 3016 3291 2770 3770 
Q 2525 4250 2034 4250 
z
M 2034 4750 
Q 2819 4750 3233 4129 
Q 3647 3509 3647 2328 
Q 3647 1150 3233 529 
Q 2819 -91 2034 -91 
Q 1250 -91 836 529 
Q 422 1150 422 2328 
Q 422 3509 836 4129 
Q 1250 4750 2034 4750 
z
" transform="scale(0.015625)"/>
       </defs>
       <use xlink:href="#DejaVuSans-30"/>
      </g>
     </g>
    </g>
    <g id="ytick_2">
     <g id="line2d_11">
      <g>
       <use xlink:href="#maf87e66a3d" x="43.78125" y="51.973718" style="stroke: #000000; stroke-width: 0.8"/>
      </g>
     </g>
     <g id="text_2">
      <!-- 5 -->
      <g transform="translate(30.41875 55.772937) scale(0.1 -0.1)">
       <defs>
        <path id="DejaVuSans-35" d="M 691 4666 
L 3169 4666 
L 3169 4134 
L 1269 4134 
L 1269 2991 
Q 1406 3038 1543 3061 
Q 1681 3084 1819 3084 
Q 2600 3084 3056 2656 
Q 3513 2228 3513 1497 
Q 3513 744 3044 326 
Q 2575 -91 1722 -91 
Q 1428 -91 1123 -41 
Q 819 9 494 109 
L 494 744 
Q 775 591 1075 516 
Q 1375 441 1709 441 
Q 2250 441 2565 725 
Q 2881 1009 2881 1497 
Q 2881 1984 2565 2268 
Q 2250 2553 1709 2553 
Q 1456 2553 1204 2497 
Q 953 2441 691 2322 
L 691 4666 
z
" transform="scale(0.015625)"/>
       </defs>
       <use xlink:href="#DejaVuSans-35"/>
      </g>
     </g>
    </g>
    <g id="ytick_3">
     <g id="line2d_12">
      <g>
       <use xlink:href="#maf87e66a3d" x="43.78125" y="11.270338" style="stroke: #000000; stroke-width: 0.8"/>
      </g>
     </g>
     <g id="text_3">
      <!-- 10 -->
      <g transform="translate(24.05625 15.069557) scale(0.1 -0.1)">
       <defs>
        <path id="DejaVuSans-31" d="M 794 531 
L 1825 531 
L 1825 4091 
L 703 3866 
L 703 4441 
L 1819 4666 
L 2450 4666 
L 2450 531 
L 3481 531 
L 3481 0 
L 794 0 
L 794 531 
z
" transform="scale(0.015625)"/>
       </defs>
       <use xlink:href="#DejaVuSans-31"/>
       <use xlink:href="#DejaVuSans-30" transform="translate(63.623047 0)"/>
      </g>
     </g>
    </g>
    <g id="text_4">
     <!-- Extracellular lactose -->
     <g transform="translate(17.976562 102.945593) rotate(-90) scale(0.1 -0.1)">
      <defs>
       <path id="DejaVuSans-45" d="M 628 4666 
L 3578 4666 
L 3578 4134 
L 1259 4134 
L 1259 2753 
L 3481 2753 
L 3481 2222 
L 1259 2222 
L 1259 531 
L 3634 531 
L 3634 0 
L 628 0 
L 628 4666 
z
" transform="scale(0.015625)"/>
       <path id="DejaVuSans-78" d="M 3513 3500 
L 2247 1797 
L 3578 0 
L 2900 0 
L 1881 1375 
L 863 0 
L 184 0 
L 1544 1831 
L 300 3500 
L 978 3500 
L 1906 2253 
L 2834 3500 
L 3513 3500 
z
" transform="scale(0.015625)"/>
       <path id="DejaVuSans-74" d="M 1172 4494 
L 1172 3500 
L 2356 3500 
L 2356 3053 
L 1172 3053 
L 1172 1153 
Q 1172 725 1289 603 
Q 1406 481 1766 481 
L 2356 481 
L 2356 0 
L 1766 0 
Q 1100 0 847 248 
Q 594 497 594 1153 
L 594 3053 
L 172 3053 
L 172 3500 
L 594 3500 
L 594 4494 
L 1172 4494 
z
" transform="scale(0.015625)"/>
       <path id="DejaVuSans-72" d="M 2631 2963 
Q 2534 3019 2420 3045 
Q 2306 3072 2169 3072 
Q 1681 3072 1420 2755 
Q 1159 2438 1159 1844 
L 1159 0 
L 581 0 
L 581 3500 
L 1159 3500 
L 1159 2956 
Q 1341 3275 1631 3429 
Q 1922 3584 2338 3584 
Q 2397 3584 2469 3576 
Q 2541 3569 2628 3553 
L 2631 2963 
z
" transform="scale(0.015625)"/>
       <path id="DejaVuSans-61" d="M 2194 1759 
Q 1497 1759 1228 1600 
Q 959 1441 959 1056 
Q 959 750 1161 570 
Q 1363 391 1709 391 
Q 2188 391 2477 730 
Q 2766 1069 2766 1631 
L 2766 1759 
L 2194 1759 
z
M 3341 1997 
L 3341 0 
L 2766 0 
L 2766 531 
Q 2569 213 2275 61 
Q 1981 -91 1556 -91 
Q 1019 -91 701 211 
Q 384 513 384 1019 
Q 384 1609 779 1909 
Q 1175 2209 1959 2209 
L 2766 2209 
L 2766 2266 
Q 2766 2663 2505 2880 
Q 2244 3097 1772 3097 
Q 1472 3097 1187 3025 
Q 903 2953 641 2809 
L 641 3341 
Q 956 3463 1253 3523 
Q 1550 3584 1831 3584 
Q 2591 3584 2966 3190 
Q 3341 2797 3341 1997 
z
" transform="scale(0.015625)"/>
       <path id="DejaVuSans-63" d="M 3122 3366 
L 3122 2828 
Q 2878 2963 2633 3030 
Q 2388 3097 2138 3097 
Q 1578 3097 1268 2742 
Q 959 2388 959 1747 
Q 959 1106 1268 751 
Q 1578 397 2138 397 
Q 2388 397 2633 464 
Q 2878 531 3122 666 
L 3122 134 
Q 2881 22 2623 -34 
Q 2366 -91 2075 -91 
Q 1284 -91 818 406 
Q 353 903 353 1747 
Q 353 2603 823 3093 
Q 1294 3584 2113 3584 
Q 2378 3584 2631 3529 
Q 2884 3475 3122 3366 
z
" transform="scale(0.015625)"/>
       <path id="DejaVuSans-65" d="M 3597 1894 
L 3597 1613 
L 953 1613 
Q 991 1019 1311 708 
Q 1631 397 2203 397 
Q 2534 397 2845 478 
Q 3156 559 3463 722 
L 3463 178 
Q 3153 47 2828 -22 
Q 2503 -91 2169 -91 
Q 1331 -91 842 396 
Q 353 884 353 1716 
Q 353 2575 817 3079 
Q 1281 3584 2069 3584 
Q 2775 3584 3186 3129 
Q 3597 2675 3597 1894 
z
M 3022 2063 
Q 3016 2534 2758 2815 
Q 2500 3097 2075 3097 
Q 1594 3097 1305 2825 
Q 1016 2553 972 2059 
L 3022 2063 
z
" transform="scale(0.015625)"/>
       <path id="DejaVuSans-6c" d="M 603 4863 
L 1178 4863 
L 1178 0 
L 603 0 
L 603 4863 
z
" transform="scale(0.015625)"/>
       <path id="DejaVuSans-75" d="M 544 1381 
L 544 3500 
L 1119 3500 
L 1119 1403 
Q 1119 906 1312 657 
Q 1506 409 1894 409 
Q 2359 409 2629 706 
Q 2900 1003 2900 1516 
L 2900 3500 
L 3475 3500 
L 3475 0 
L 2900 0 
L 2900 538 
Q 2691 219 2414 64 
Q 2138 -91 1772 -91 
Q 1169 -91 856 284 
Q 544 659 544 1381 
z
M 1991 3584 
L 1991 3584 
z
" transform="scale(0.015625)"/>
       <path id="DejaVuSans-20" transform="scale(0.015625)"/>
       <path id="DejaVuSans-6f" d="M 1959 3097 
Q 1497 3097 1228 2736 
Q 959 2375 959 1747 
Q 959 1119 1226 758 
Q 1494 397 1959 397 
Q 2419 397 2687 759 
Q 2956 1122 2956 1747 
Q 2956 2369 2687 2733 
Q 2419 3097 1959 3097 
z
M 1959 3584 
Q 2709 3584 3137 3096 
Q 3566 2609 3566 1747 
Q 3566 888 3137 398 
Q 2709 -91 1959 -91 
Q 1206 -91 779 398 
Q 353 888 353 1747 
Q 353 2609 779 3096 
Q 1206 3584 1959 3584 
z
" transform="scale(0.015625)"/>
       <path id="DejaVuSans-73" d="M 2834 3397 
L 2834 2853 
Q 2591 2978 2328 3040 
Q 2066 3103 1784 3103 
Q 1356 3103 1142 2972 
Q 928 2841 928 2578 
Q 928 2378 1081 2264 
Q 1234 2150 1697 2047 
L 1894 2003 
Q 2506 1872 2764 1633 
Q 3022 1394 3022 966 
Q 3022 478 2636 193 
Q 2250 -91 1575 -91 
Q 1294 -91 989 -36 
Q 684 19 347 128 
L 347 722 
Q 666 556 975 473 
Q 1284 391 1588 391 
Q 1994 391 2212 530 
Q 2431 669 2431 922 
Q 2431 1156 2273 1281 
Q 2116 1406 1581 1522 
L 1381 1569 
Q 847 1681 609 1914 
Q 372 2147 372 2553 
Q 372 3047 722 3315 
Q 1072 3584 1716 3584 
Q 2034 3584 2315 3537 
Q 2597 3491 2834 3397 
z
" transform="scale(0.015625)"/>
      </defs>
      <use xlink:href="#DejaVuSans-45"/>
      <use xlink:href="#DejaVuSans-78" transform="translate(63.183594 0)"/>
      <use xlink:href="#DejaVuSans-74" transform="translate(122.363281 0)"/>
      <use xlink:href="#DejaVuSans-72" transform="translate(161.572266 0)"/>
      <use xlink:href="#DejaVuSans-61" transform="translate(202.685547 0)"/>
      <use xlink:href="#DejaVuSans-63" transform="translate(263.964844 0)"/>
      <use xlink:href="#DejaVuSans-65" transform="translate(318.945312 0)"/>
      <use xlink:href="#DejaVuSans-6c" transform="translate(380.46875 0)"/>
      <use xlink:href="#DejaVuSans-6c" transform="translate(408.251953 0)"/>
      <use xlink:href="#DejaVuSans-75" transform="translate(436.035156 0)"/>
      <use xlink:href="#DejaVuSans-6c" transform="translate(499.414062 0)"/>
      <use xlink:href="#DejaVuSans-61" transform="translate(527.197266 0)"/>
      <use xlink:href="#DejaVuSans-72" transform="translate(588.476562 0)"/>
      <use xlink:href="#DejaVuSans-20" transform="translate(629.589844 0)"/>
      <use xlink:href="#DejaVuSans-6c" transform="translate(661.376953 0)"/>
      <use xlink:href="#DejaVuSans-61" transform="translate(689.160156 0)"/>
      <use xlink:href="#DejaVuSans-63" transform="translate(750.439453 0)"/>
      <use xlink:href="#DejaVuSans-74" transform="translate(805.419922 0)"/>
      <use xlink:href="#DejaVuSans-6f" transform="translate(844.628906 0)"/>
      <use xlink:href="#DejaVuSans-73" transform="translate(905.810547 0)"/>
      <use xlink:href="#DejaVuSans-65" transform="translate(957.910156 0)"/>
     </g>
    </g>
   </g>
   <g id="line2d_13">
    <path d="M 56.57299 92.677099 
L 155.998664 92.677099 
L 156.08785 11.270338 
L 156.756505 11.351745 
L 156.87431 11.677372 
L 156.919169 11.758779 
L 157.065509 13.2241 
L 157.183968 14.852235 
L 157.19781 14.933642 
L 157.341466 16.643184 
L 157.365039 16.724591 
L 157.875127 20.225082 
L 158.283402 20.957743 
L 158.384985 21.039149 
L 158.552521 21.934624 
L 158.56384 22.01603 
L 158.679635 22.748691 
L 158.690478 22.830098 
L 158.819908 24.214013 
L 159.914474 31.133588 
L 160.022221 31.703435 
L 160.197442 32.517503 
L 160.23031 32.598909 
L 160.34261 33.168757 
L 160.477579 33.982824 
L 160.60388 34.471265 
L 160.649159 34.552672 
L 160.819518 35.285332 
L 160.893908 35.366739 
L 161.022951 35.85518 
L 161.169028 36.017993 
L 161.59165 36.0994 
L 161.732205 36.587841 
L 161.843143 36.669247 
L 161.946097 36.913468 
L 162.525111 36.994874 
L 162.713019 37.239095 
L 162.852533 37.320501 
L 162.971743 37.564722 
L 163.412209 37.646128 
L 163.536387 37.890349 
L 164.038462 37.971756 
L 164.196149 38.460196 
L 164.306662 38.541603 
L 164.605809 38.948637 
L 164.897474 40.251145 
L 164.94632 40.332552 
L 165.091605 40.576772 
L 165.16852 40.658179 
L 165.272001 41.309433 
L 165.446787 42.204907 
L 165.536168 42.286314 
L 165.682416 43.181788 
L 165.747609 43.263195 
L 165.862794 43.833042 
L 165.886613 43.914449 
L 166.445355 45.949618 
L 166.537498 46.031025 
L 166.649666 46.275245 
L 166.870553 46.682279 
L 167.279971 47.577753 
L 167.376435 47.65916 
L 167.530606 47.90338 
L 167.772624 48.391821 
L 167.90704 49.043075 
L 167.970606 49.124482 
L 168.096116 49.612922 
L 168.108701 49.694329 
L 168.248867 50.019956 
L 168.342462 50.101363 
L 168.447078 50.345583 
L 168.823062 50.834024 
L 168.869572 50.91543 
L 168.981945 51.078244 
L 169.849112 54.497328 
L 169.968829 54.904362 
L 170.044248 54.985768 
L 170.201924 55.718429 
L 170.26704 55.799836 
L 170.486253 56.613904 
L 170.537326 56.69531 
L 171.028219 58.404852 
L 171.549625 59.21892 
L 171.636195 59.300327 
L 171.897762 59.788767 
L 172.208864 60.358615 
L 172.318648 60.440021 
L 172.41297 60.684242 
L 172.53502 60.765648 
L 172.654241 61.172682 
L 172.713159 61.254089 
L 173.011813 61.823936 
L 173.120069 62.23097 
L 173.288617 62.312377 
L 173.462893 62.638004 
L 173.652622 62.719411 
L 174.094166 63.533478 
L 174.143825 63.614885 
L 174.3456 64.591766 
L 174.460016 64.673173 
L 174.623084 65.24302 
L 174.680455 65.324427 
L 174.76906 66.057088 
L 174.850611 66.138495 
L 175.021285 66.708342 
L 175.042144 66.789749 
L 175.197014 67.278189 
L 175.216414 67.359596 
L 175.383245 68.25507 
L 175.390724 68.336477 
L 175.556644 68.743511 
L 175.656742 68.824918 
L 175.748835 68.987731 
L 175.810996 69.069138 
L 175.913207 69.313358 
L 176.451143 70.615867 
L 176.65007 71.429934 
L 176.696213 71.511341 
L 176.792506 71.918375 
L 176.865611 71.999781 
L 176.979331 72.406815 
L 177.569511 74.767611 
L 177.701611 74.849018 
L 177.782372 74.930425 
L 177.91037 75.174645 
L 178.021563 75.418865 
L 178.529235 76.965594 
L 180.49842 77.047001 
L 180.612003 77.209814 
L 181.627395 77.291221 
L 181.786958 77.616848 
L 181.943442 77.698255 
L 182.015076 77.861068 
L 182.285445 77.942475 
L 182.66628 78.268102 
L 183.957454 78.349509 
L 184.187628 78.675136 
L 184.679447 78.756543 
L 184.77789 78.837949 
L 185.290246 78.919356 
L 185.430673 79.163576 
L 185.712301 79.244983 
L 186.022621 79.896237 
L 186.147798 80.221864 
L 186.342587 80.303271 
L 186.447255 80.384678 
L 186.972497 80.466085 
L 187.177269 80.791712 
L 187.364108 80.873118 
L 188.493385 81.524372 
L 188.700859 81.849999 
L 188.802409 81.931406 
L 188.87741 82.09422 
L 189.057815 82.175627 
L 190.047263 83.396728 
L 192.935528 83.478135 
L 193.049288 83.640948 
L 193.617347 84.210796 
L 193.704729 84.292202 
L 194.120497 84.373609 
L 194.402312 84.455016 
L 194.853183 84.536423 
L 194.946586 84.699236 
L 194.990609 84.780643 
L 195.084237 84.86205 
L 195.380967 85.024863 
L 195.593322 85.10627 
L 195.741293 85.187677 
L 196.599829 85.269083 
L 196.867105 85.513304 
L 197.347981 85.59471 
L 197.429188 85.676117 
L 198.015302 85.757524 
L 200.043372 86.408778 
L 200.6959 86.490185 
L 200.810287 86.734405 
L 201.128881 86.815812 
L 201.251885 87.141439 
L 201.400413 87.222846 
L 201.516287 87.304252 
L 201.836482 87.385659 
L 201.976585 87.548473 
L 202.646164 87.629879 
L 204.404884 87.711286 
L 207.971654 87.792693 
L 208.526783 87.8741 
L 211.425404 87.955507 
L 211.499188 88.036913 
L 211.697194 88.11832 
L 211.737602 88.199727 
L 212.112668 88.281134 
L 212.285055 88.36254 
L 212.382487 88.525354 
L 214.018418 88.606761 
L 214.069902 88.688167 
L 214.335097 88.850981 
L 214.856268 88.932388 
L 214.994323 89.013794 
L 215.170685 89.095201 
L 215.678397 89.176608 
L 215.766529 89.258015 
L 216.495245 89.339421 
L 216.57414 89.420828 
L 219.400725 89.502235 
L 219.670829 89.665048 
L 230.696158 89.746455 
L 231.061157 89.827862 
L 231.99547 89.909269 
L 232.087527 89.990676 
L 233.274709 90.072082 
L 238.778686 90.479116 
L 238.837971 90.64193 
L 239.438937 90.804743 
L 240.970561 90.88615 
L 241.092421 90.967557 
L 241.464432 91.048963 
L 242.823388 91.13037 
L 242.984594 91.293184 
L 244.7653 91.37459 
L 244.932353 91.455997 
L 246.69585 91.537404 
L 246.877998 91.618811 
L 248.009092 91.700218 
L 248.254457 91.781624 
L 269.086907 91.863031 
L 269.199705 91.944438 
L 312.40778 91.944438 
L 312.40778 91.944438 
" clip-path="url(#p5ffd4993fc)" style="fill: none; stroke: #000000; stroke-width: 1.5; stroke-linecap: square"/>
   </g>
   <g id="patch_3">
    <path d="M 43.78125 96.747437 
L 43.78125 7.2 
" style="fill: none; stroke: #000000; stroke-width: 0.8; stroke-linejoin: miter; stroke-linecap: square"/>
   </g>
   <g id="patch_4">
    <path d="M 325.19952 96.747437 
L 325.19952 7.2 
" style="fill: none; stroke: #000000; stroke-width: 0.8; stroke-linejoin: miter; stroke-linecap: square"/>
   </g>
   <g id="patch_5">
    <path d="M 43.78125 96.747437 
L 325.19952 96.747437 
" style="fill: none; stroke: #000000; stroke-width: 0.8; stroke-linejoin: miter; stroke-linecap: square"/>
   </g>
   <g id="patch_6">
    <path d="M 43.78125 7.2 
L 325.19952 7.2 
" style="fill: none; stroke: #000000; stroke-width: 0.8; stroke-linejoin: miter; stroke-linecap: square"/>
   </g>
  </g>
  <g id="axes_2">
   <g id="patch_7">
    <path d="M 43.78125 195.795353 
L 325.19952 195.795353 
L 325.19952 106.247917 
L 43.78125 106.247917 
z
" style="fill: #ffffff"/>
   </g>
   <g id="matplotlib.axis_3">
    <g id="xtick_10">
     <g id="line2d_14">
      <g>
       <use xlink:href="#m5c79863250" x="56.57299" y="195.795353" style="stroke: #000000; stroke-width: 0.8"/>
      </g>
     </g>
    </g>
    <g id="xtick_11">
     <g id="line2d_15">
      <g>
       <use xlink:href="#m5c79863250" x="88.535532" y="195.795353" style="stroke: #000000; stroke-width: 0.8"/>
      </g>
     </g>
    </g>
    <g id="xtick_12">
     <g id="line2d_16">
      <g>
       <use xlink:href="#m5c79863250" x="120.498075" y="195.795353" style="stroke: #000000; stroke-width: 0.8"/>
      </g>
     </g>
    </g>
    <g id="xtick_13">
     <g id="line2d_17">
      <g>
       <use xlink:href="#m5c79863250" x="152.460617" y="195.795353" style="stroke: #000000; stroke-width: 0.8"/>
      </g>
     </g>
    </g>
    <g id="xtick_14">
     <g id="line2d_18">
      <g>
       <use xlink:href="#m5c79863250" x="184.42316" y="195.795353" style="stroke: #000000; stroke-width: 0.8"/>
      </g>
     </g>
    </g>
    <g id="xtick_15">
     <g id="line2d_19">
      <g>
       <use xlink:href="#m5c79863250" x="216.385703" y="195.795353" style="stroke: #000000; stroke-width: 0.8"/>
      </g>
     </g>
    </g>
    <g id="xtick_16">
     <g id="line2d_20">
      <g>
       <use xlink:href="#m5c79863250" x="248.348245" y="195.795353" style="stroke: #000000; stroke-width: 0.8"/>
      </g>
     </g>
    </g>
    <g id="xtick_17">
     <g id="line2d_21">
      <g>
       <use xlink:href="#m5c79863250" x="280.310788" y="195.795353" style="stroke: #000000; stroke-width: 0.8"/>
      </g>
     </g>
    </g>
    <g id="xtick_18">
     <g id="line2d_22">
      <g>
       <use xlink:href="#m5c79863250" x="312.27333" y="195.795353" style="stroke: #000000; stroke-width: 0.8"/>
      </g>
     </g>
    </g>
   </g>
   <g id="matplotlib.axis_4">
    <g id="ytick_4">
     <g id="line2d_23">
      <g>
       <use xlink:href="#maf87e66a3d" x="43.78125" y="191.725015" style="stroke: #000000; stroke-width: 0.8"/>
      </g>
     </g>
     <g id="text_5">
      <!-- 0 -->
      <g transform="translate(30.41875 195.524234) scale(0.1 -0.1)">
       <use xlink:href="#DejaVuSans-30"/>
      </g>
     </g>
    </g>
    <g id="ytick_5">
     <g id="line2d_24">
      <g>
       <use xlink:href="#maf87e66a3d" x="43.78125" y="151.021635" style="stroke: #000000; stroke-width: 0.8"/>
      </g>
     </g>
     <g id="text_6">
      <!-- 5 -->
      <g transform="translate(30.41875 154.820854) scale(0.1 -0.1)">
       <use xlink:href="#DejaVuSans-35"/>
      </g>
     </g>
    </g>
    <g id="ytick_6">
     <g id="line2d_25">
      <g>
       <use xlink:href="#maf87e66a3d" x="43.78125" y="110.318255" style="stroke: #000000; stroke-width: 0.8"/>
      </g>
     </g>
     <g id="text_7">
      <!-- 10 -->
      <g transform="translate(24.05625 114.117473) scale(0.1 -0.1)">
       <use xlink:href="#DejaVuSans-31"/>
       <use xlink:href="#DejaVuSans-30" transform="translate(63.623047 0)"/>
      </g>
     </g>
    </g>
    <g id="text_8">
     <!-- LacY -->
     <g transform="translate(17.976563 162.67476) rotate(-90) scale(0.1 -0.1)">
      <defs>
       <path id="DejaVuSans-4c" d="M 628 4666 
L 1259 4666 
L 1259 531 
L 3531 531 
L 3531 0 
L 628 0 
L 628 4666 
z
" transform="scale(0.015625)"/>
       <path id="DejaVuSans-59" d="M -13 4666 
L 666 4666 
L 1959 2747 
L 3244 4666 
L 3922 4666 
L 2272 2222 
L 2272 0 
L 1638 0 
L 1638 2222 
L -13 4666 
z
" transform="scale(0.015625)"/>
      </defs>
      <use xlink:href="#DejaVuSans-4c"/>
      <use xlink:href="#DejaVuSans-61" transform="translate(55.712891 0)"/>
      <use xlink:href="#DejaVuSans-63" transform="translate(116.992188 0)"/>
      <use xlink:href="#DejaVuSans-59" transform="translate(171.972656 0)"/>
     </g>
    </g>
   </g>
   <g id="line2d_26">
    <path d="M 56.57299 110.318255 
L 56.600159 110.318255 
L 56.654739 118.458931 
L 56.763073 134.740283 
L 56.82351 142.880959 
L 56.975853 142.880959 
L 56.993577 134.740283 
L 57.214509 142.880959 
L 57.356595 142.880959 
L 57.527512 159.162311 
L 57.828881 175.443663 
L 57.894602 191.725015 
L 59.426973 191.725015 
L 59.593854 183.584339 
L 59.636662 191.725015 
L 64.667054 191.725015 
L 64.990513 183.584339 
L 65.100638 191.725015 
L 82.624064 191.725015 
L 82.818774 183.584339 
L 84.614882 191.725015 
L 84.62973 183.584339 
L 84.77316 175.443663 
L 84.777822 167.302987 
L 85.100485 175.443663 
L 85.327803 175.443663 
L 85.447623 191.725015 
L 85.508538 183.584339 
L 85.699061 183.584339 
L 85.837763 191.725015 
L 89.73606 191.725015 
L 90.126467 175.443663 
L 90.12777 167.302987 
L 90.627184 167.302987 
L 90.665913 183.584339 
L 91.439261 183.584339 
L 91.608448 175.443663 
L 91.953277 191.725015 
L 108.984978 191.725015 
L 109.09084 183.584339 
L 109.210734 183.584339 
L 109.350045 191.725015 
L 109.585414 191.725015 
L 109.626964 183.584339 
L 110.043577 183.584339 
L 110.394054 175.443663 
L 110.452493 183.584339 
L 110.628036 183.584339 
L 110.657662 191.725015 
L 119.431141 191.725015 
L 119.609851 183.584339 
L 121.713479 183.584339 
L 123.563922 191.725015 
L 131.344452 191.725015 
L 131.531019 183.584339 
L 131.819045 183.584339 
L 131.926995 191.725015 
L 136.269805 191.725015 
L 136.35367 183.584339 
L 136.375571 191.725015 
L 146.38441 191.725015 
L 146.645677 175.443663 
L 146.666543 183.584339 
L 146.695598 175.443663 
L 146.808892 167.302987 
L 146.814241 175.443663 
L 147.399932 175.443663 
L 148.018114 183.584339 
L 148.263845 183.584339 
L 148.579621 175.443663 
L 148.692688 175.443663 
L 149.766345 191.725015 
L 150.227266 191.725015 
L 150.279231 175.443663 
L 150.380271 175.443663 
L 150.533352 183.584339 
L 150.667289 183.584339 
L 151.211081 191.725015 
L 156.337878 191.725015 
L 156.76686 183.584339 
L 157.007545 151.021635 
L 157.289645 151.021635 
L 157.409948 167.302987 
L 157.459898 167.302987 
L 157.560963 159.162311 
L 157.648083 159.162311 
L 157.75807 175.443663 
L 157.786317 175.443663 
L 157.875127 183.584339 
L 158.146263 183.584339 
L 158.198409 175.443663 
L 158.243492 183.584339 
L 158.390147 183.584339 
L 158.504273 167.302987 
L 158.529021 167.302987 
L 158.635188 159.162311 
L 158.746948 159.162311 
L 158.860588 167.302987 
L 158.981879 167.302987 
L 159.091233 183.584339 
L 159.164518 183.584339 
L 159.277975 175.443663 
L 159.403801 175.443663 
L 159.514485 167.302987 
L 159.530947 167.302987 
L 159.660823 159.162311 
L 159.776209 159.162311 
L 159.893521 151.021635 
L 160.016825 151.021635 
L 160.048851 167.302987 
L 160.13186 159.162311 
L 160.217373 159.162311 
L 160.225749 151.021635 
L 160.235301 167.302987 
L 160.318484 167.302987 
L 160.624523 167.302987 
L 160.735874 175.443663 
L 160.785684 175.443663 
L 160.787767 167.302987 
L 160.893908 175.443663 
L 161.088678 175.443663 
L 161.244256 191.725015 
L 161.511669 191.725015 
L 161.646742 183.584339 
L 161.946097 183.584339 
L 161.995047 191.725015 
L 162.479991 191.725015 
L 162.582119 183.584339 
L 162.628058 183.584339 
L 162.713019 191.725015 
L 162.753388 191.725015 
L 162.872957 183.584339 
L 162.965146 183.584339 
L 163.049794 191.725015 
L 163.316349 191.725015 
L 163.437658 183.584339 
L 163.472698 183.584339 
L 163.5818 191.725015 
L 163.894519 191.725015 
L 164.219359 175.443663 
L 164.306662 183.584339 
L 164.514076 183.584339 
L 164.636939 167.302987 
L 164.672689 175.443663 
L 164.758993 175.443663 
L 164.81924 183.584339 
L 164.842125 175.443663 
L 165.066743 175.443663 
L 165.182843 167.302987 
L 165.215914 167.302987 
L 165.327549 183.584339 
L 165.437724 167.302987 
L 166.101407 167.302987 
L 166.217103 175.443663 
L 166.22795 175.443663 
L 166.332702 183.584339 
L 167.088798 183.584339 
L 167.134337 175.443663 
L 167.193125 183.584339 
L 167.731759 183.584339 
L 167.821638 175.443663 
L 168.091805 175.443663 
L 168.198801 167.302987 
L 168.309351 167.302987 
L 168.390488 175.443663 
L 168.597869 175.443663 
L 168.711502 191.725015 
L 168.8791 183.584339 
L 169.006584 183.584339 
L 169.107476 175.443663 
L 169.259812 175.443663 
L 169.46559 159.162311 
L 169.642515 159.162311 
L 169.755722 151.021635 
L 169.839179 151.021635 
L 169.944529 167.302987 
L 170.170279 167.302987 
L 170.286392 175.443663 
L 171.33067 175.443663 
L 171.434606 183.584339 
L 171.93311 183.584339 
L 172.097284 175.443663 
L 172.113429 175.443663 
L 172.12597 183.584339 
L 172.21661 175.443663 
L 172.536857 175.443663 
L 172.654241 167.302987 
L 172.693293 167.302987 
L 172.814583 175.443663 
L 172.992629 175.443663 
L 173.013446 167.302987 
L 173.08148 175.443663 
L 173.424021 175.443663 
L 173.531946 183.584339 
L 173.68781 183.584339 
L 173.761314 159.162311 
L 173.812435 167.302987 
L 173.85237 167.302987 
L 173.922325 175.443663 
L 173.979847 175.443663 
L 174.011553 183.584339 
L 174.070439 175.443663 
L 174.156893 175.443663 
L 174.264926 167.302987 
L 174.468595 167.302987 
L 174.614113 159.162311 
L 174.929468 159.162311 
L 175.050874 167.302987 
L 175.099368 167.302987 
L 175.241588 151.021635 
L 175.344661 151.021635 
L 175.448714 142.880959 
L 175.450682 151.021635 
L 175.556644 159.162311 
L 175.672295 159.162311 
L 175.781355 167.302987 
L 175.823972 167.302987 
L 175.913207 175.443663 
L 176.140362 175.443663 
L 176.173176 159.162311 
L 176.244392 167.302987 
L 176.364925 167.302987 
L 176.468389 159.162311 
L 176.727135 159.162311 
L 176.858992 167.302987 
L 176.886359 167.302987 
L 176.996116 159.162311 
L 177.104221 159.162311 
L 177.177906 151.021635 
L 177.18422 159.162311 
L 177.383483 159.162311 
L 177.464888 151.021635 
L 177.485006 159.162311 
L 177.496902 159.162311 
L 177.617503 175.443663 
L 177.645427 175.443663 
L 177.782372 151.021635 
L 177.899974 151.021635 
L 177.90333 142.880959 
L 178.010564 151.021635 
L 178.015765 151.021635 
L 178.13049 159.162311 
L 178.257912 159.162311 
L 178.317655 167.302987 
L 178.354479 159.162311 
L 178.378283 159.162311 
L 178.503297 183.584339 
L 178.512862 175.443663 
L 178.637525 175.443663 
L 178.825395 191.725015 
L 179.083552 191.725015 
L 179.118946 183.584339 
L 179.305381 183.584339 
L 179.393624 175.443663 
L 179.41544 183.584339 
L 179.559767 183.584339 
L 179.6874 191.725015 
L 180.178878 191.725015 
L 180.20543 175.443663 
L 180.338481 175.443663 
L 180.470903 183.584339 
L 180.594496 175.443663 
L 180.726031 191.725015 
L 181.314502 191.725015 
L 181.44867 183.584339 
L 181.508232 183.584339 
L 181.615926 167.302987 
L 181.620457 175.443663 
L 181.745093 175.443663 
L 181.840681 183.584339 
L 181.916793 175.443663 
L 181.945597 183.584339 
L 182.66126 183.584339 
L 182.774347 191.725015 
L 183.548702 191.725015 
L 183.658565 183.584339 
L 184.086902 183.584339 
L 184.187628 175.443663 
L 184.320376 183.584339 
L 185.147936 183.584339 
L 185.196324 175.443663 
L 185.227471 183.584339 
L 185.307512 183.584339 
L 185.430673 175.443663 
L 185.64313 175.443663 
L 185.712301 183.584339 
L 185.763497 183.584339 
L 186.003823 159.162311 
L 186.147798 159.162311 
L 186.342587 167.302987 
L 186.361907 167.302987 
L 186.447255 175.443663 
L 186.53265 159.162311 
L 186.564976 167.302987 
L 186.645512 183.584339 
L 186.745176 183.584339 
L 186.890725 167.302987 
L 186.946004 167.302987 
L 186.994893 159.162311 
L 187.052885 167.302987 
L 187.077111 167.302987 
L 187.192071 175.443663 
L 187.630642 175.443663 
L 187.632755 183.584339 
L 187.719553 175.443663 
L 187.791617 175.443663 
L 187.801995 183.584339 
L 187.844915 167.302987 
L 187.899829 175.443663 
L 188.277465 175.443663 
L 188.493385 151.021635 
L 188.744347 151.021635 
L 188.970148 167.302987 
L 189.333025 167.302987 
L 189.471088 159.162311 
L 189.59135 159.162311 
L 189.786391 175.443663 
L 189.804882 167.302987 
L 189.832931 175.443663 
L 190.008314 175.443663 
L 190.121731 183.584339 
L 190.357811 183.584339 
L 190.391777 191.725015 
L 190.522216 191.725015 
L 190.640035 175.443663 
L 190.865217 175.443663 
L 190.885065 183.584339 
L 191.018692 191.725015 
L 191.092067 175.443663 
L 191.098539 183.584339 
L 191.256017 191.725015 
L 192.305693 191.725015 
L 192.849001 183.584339 
L 192.966331 175.443663 
L 193.049288 183.584339 
L 193.161266 183.584339 
L 193.257481 159.162311 
L 193.424317 159.162311 
L 193.532365 167.302987 
L 193.930031 167.302987 
L 194.015194 183.584339 
L 194.120497 175.443663 
L 194.24196 175.443663 
L 194.282404 183.584339 
L 194.682484 183.584339 
L 194.780387 175.443663 
L 194.942034 159.162311 
L 194.946586 167.302987 
L 195.040359 167.302987 
L 195.161413 175.443663 
L 195.30138 175.443663 
L 195.484744 167.302987 
L 195.515114 167.302987 
L 195.540243 159.162311 
L 195.593322 167.302987 
L 195.628554 167.302987 
L 195.741293 183.584339 
L 196.531811 183.584339 
L 196.651706 175.443663 
L 196.867105 175.443663 
L 197.033231 159.162311 
L 197.04603 167.302987 
L 197.266649 183.584339 
L 197.38755 183.584339 
L 197.429188 175.443663 
L 197.560295 175.443663 
L 197.666244 183.584339 
L 198.371608 183.584339 
L 198.447264 175.443663 
L 198.587866 175.443663 
L 198.683094 167.302987 
L 198.935254 167.302987 
L 199.023033 175.443663 
L 199.21855 175.443663 
L 199.282568 183.584339 
L 199.452606 175.443663 
L 199.605658 175.443663 
L 199.706712 183.584339 
L 199.814554 183.584339 
L 199.915695 175.443663 
L 199.919818 183.584339 
L 199.942234 183.584339 
L 200.095548 175.443663 
L 200.174369 183.584339 
L 200.286631 175.443663 
L 200.374533 175.443663 
L 200.438025 167.302987 
L 200.680828 183.584339 
L 200.693631 175.443663 
L 200.801797 151.021635 
L 200.825034 159.162311 
L 200.997487 159.162311 
L 201.041099 167.302987 
L 201.058774 159.162311 
L 201.227988 151.021635 
L 201.477045 151.021635 
L 201.516287 142.880959 
L 201.86219 159.162311 
L 201.890713 159.162311 
L 201.976585 175.443663 
L 202.294631 175.443663 
L 202.466676 183.584339 
L 203.527247 183.584339 
L 203.612932 191.725015 
L 206.41631 191.725015 
L 206.587585 183.584339 
L 206.829254 183.584339 
L 207.092522 191.725015 
L 207.356231 183.584339 
L 207.496403 191.725015 
L 207.853855 191.725015 
L 207.971654 183.584339 
L 208.226363 183.584339 
L 208.327963 191.725015 
L 208.842364 159.162311 
L 208.966525 191.725015 
L 209.510817 191.725015 
L 209.594822 183.584339 
L 209.882703 191.725015 
L 210.055671 183.584339 
L 210.436098 191.725015 
L 210.541196 183.584339 
L 210.617996 191.725015 
L 210.696423 175.443663 
L 210.8317 183.584339 
L 211.096256 183.584339 
L 211.137337 175.443663 
L 211.184283 183.584339 
L 211.408713 175.443663 
L 211.499188 151.021635 
L 211.605366 159.162311 
L 211.684324 151.021635 
L 211.71547 159.162311 
L 211.716989 159.162311 
L 211.737602 167.302987 
L 211.998142 167.302987 
L 212.054545 159.162311 
L 212.099638 167.302987 
L 212.157745 167.302987 
L 212.233476 183.584339 
L 212.286683 175.443663 
L 212.333675 175.443663 
L 212.44451 183.584339 
L 212.526883 183.584339 
L 212.550474 175.443663 
L 212.66216 183.584339 
L 212.947302 183.584339 
L 212.949906 191.725015 
L 213.152888 183.584339 
L 213.250786 191.725015 
L 213.397798 183.584339 
L 213.554562 191.725015 
L 213.779834 175.443663 
L 214.069902 167.302987 
L 214.195782 167.302987 
L 214.317496 142.880959 
L 214.360126 142.880959 
L 214.462795 159.162311 
L 214.55524 142.880959 
L 214.572315 151.021635 
L 214.633929 151.021635 
L 214.710412 159.162311 
L 214.849405 159.162311 
L 214.958084 151.021635 
L 215.048213 151.021635 
L 215.109313 159.162311 
L 215.170685 159.162311 
L 215.489374 175.443663 
L 215.50488 167.302987 
L 215.554077 175.443663 
L 215.685052 167.302987 
L 215.754675 183.584339 
L 215.766529 167.302987 
L 215.853354 167.302987 
L 216.038818 175.443663 
L 216.045274 183.584339 
L 216.233937 183.584339 
L 216.370034 175.443663 
L 216.543504 175.443663 
L 216.57414 183.584339 
L 216.714646 183.584339 
L 216.736209 191.725015 
L 216.761771 183.584339 
L 216.839019 183.584339 
L 217.004965 175.443663 
L 217.107933 175.443663 
L 217.136959 183.584339 
L 217.259681 183.584339 
L 217.621332 191.725015 
L 218.158419 191.725015 
L 218.550882 183.584339 
L 218.863612 191.725015 
L 219.112115 183.584339 
L 219.187975 175.443663 
L 219.487373 167.302987 
L 219.659577 167.302987 
L 219.670829 175.443663 
L 219.806322 175.443663 
L 220.168277 191.725015 
L 220.38825 183.584339 
L 220.48673 191.725015 
L 230.39618 191.725015 
L 230.696158 183.584339 
L 230.884702 183.584339 
L 230.913518 175.443663 
L 231.03274 175.443663 
L 231.061157 167.302987 
L 231.263799 175.443663 
L 231.547767 167.302987 
L 232.032229 167.302987 
L 232.182125 191.725015 
L 232.760992 191.725015 
L 232.794776 183.584339 
L 234.938959 183.584339 
L 235.086454 191.725015 
L 236.080513 191.725015 
L 236.395073 183.584339 
L 236.554815 191.725015 
L 236.837554 183.584339 
L 237.569874 183.584339 
L 237.671556 167.302987 
L 237.706668 159.162311 
L 237.894506 167.302987 
L 237.984481 159.162311 
L 238.09918 159.162311 
L 238.117649 151.021635 
L 238.171663 159.162311 
L 238.221115 159.162311 
L 238.270177 167.302987 
L 238.421634 159.162311 
L 238.709932 159.162311 
L 238.837971 167.302987 
L 239.081589 167.302987 
L 239.224967 175.443663 
L 239.368399 167.302987 
L 239.438937 175.443663 
L 239.841632 175.443663 
L 239.849718 183.584339 
L 239.998327 183.584339 
L 240.118136 167.302987 
L 240.332149 167.302987 
L 240.33676 175.443663 
L 240.403761 167.302987 
L 240.627458 167.302987 
L 240.664835 175.443663 
L 240.825309 183.584339 
L 240.965481 175.443663 
L 241.027431 183.584339 
L 241.092421 175.443663 
L 241.269567 175.443663 
L 241.464432 167.302987 
L 241.547172 167.302987 
L 241.651819 191.725015 
L 242.06139 183.584339 
L 242.147569 183.584339 
L 242.202508 191.725015 
L 242.415504 183.584339 
L 242.533477 167.302987 
L 242.563961 175.443663 
L 242.640782 175.443663 
L 242.699944 167.302987 
L 242.871848 183.584339 
L 243.093757 167.302987 
L 243.192482 183.584339 
L 243.294269 175.443663 
L 243.550782 175.443663 
L 243.568495 167.302987 
L 243.65797 175.443663 
L 243.89951 167.302987 
L 244.029856 167.302987 
L 244.21927 183.584339 
L 244.458446 167.302987 
L 244.580953 183.584339 
L 244.738814 175.443663 
L 244.828993 183.584339 
L 244.995068 183.584339 
L 245.171323 175.443663 
L 245.230457 175.443663 
L 245.557762 183.584339 
L 245.655601 175.443663 
L 245.803138 191.725015 
L 246.055237 191.725015 
L 246.221554 183.584339 
L 246.391848 183.584339 
L 246.802993 175.443663 
L 246.850357 167.302987 
L 246.877998 175.443663 
L 247.019995 175.443663 
L 247.115193 167.302987 
L 247.248574 175.443663 
L 247.52708 175.443663 
L 247.643929 167.302987 
L 247.760589 175.443663 
L 247.884012 167.302987 
L 248.002088 159.162311 
L 248.110145 167.302987 
L 248.154839 167.302987 
L 248.180156 159.162311 
L 248.254457 167.302987 
L 248.334335 175.443663 
L 248.605397 175.443663 
L 248.686683 167.302987 
L 248.932429 175.443663 
L 249.010062 167.302987 
L 249.211932 159.162311 
L 249.295312 183.584339 
L 249.33718 175.443663 
L 249.556672 183.584339 
L 249.607802 183.584339 
L 249.619147 175.443663 
L 249.817176 159.162311 
L 249.993321 175.443663 
L 250.133076 167.302987 
L 250.135665 159.162311 
L 250.327453 159.162311 
L 250.742826 183.584339 
L 251.297938 183.584339 
L 251.846287 191.725015 
L 252.015131 183.584339 
L 252.046897 183.584339 
L 252.442287 159.162311 
L 252.527075 151.021635 
L 252.719717 167.302987 
L 252.837797 175.443663 
L 254.15842 175.443663 
L 254.40088 183.584339 
L 254.423213 191.725015 
L 268.07645 191.725015 
L 268.797184 183.584339 
L 269.028915 175.443663 
L 269.1252 183.584339 
L 269.199705 183.584339 
L 269.377195 191.725015 
L 272.807738 191.725015 
L 273.001486 183.584339 
L 273.187031 191.725015 
L 276.357322 191.725015 
L 276.379465 183.584339 
L 276.585283 183.584339 
L 276.649497 191.725015 
L 293.29132 191.725015 
L 293.39953 183.584339 
L 293.514677 183.584339 
L 293.765076 191.725015 
L 300.74335 191.725015 
L 300.972726 183.584339 
L 301.082229 175.443663 
L 301.116394 183.584339 
L 301.296857 167.302987 
L 301.524176 175.443663 
L 301.630859 167.302987 
L 301.915271 183.584339 
L 302.097624 183.584339 
L 302.112215 191.725015 
L 309.986018 191.725015 
L 310.030992 183.584339 
L 310.257129 175.443663 
L 310.428635 183.584339 
L 310.803167 183.584339 
L 311.004892 167.302987 
L 311.11618 191.725015 
L 312.184863 191.725015 
L 312.40778 183.584339 
L 312.40778 183.584339 
" clip-path="url(#p8fa0e858a5)" style="fill: none; stroke: #000000; stroke-width: 1.5; stroke-linecap: square"/>
   </g>
   <g id="patch_8">
    <path d="M 43.78125 195.795353 
L 43.78125 106.247917 
" style="fill: none; stroke: #000000; stroke-width: 0.8; stroke-linejoin: miter; stroke-linecap: square"/>
   </g>
   <g id="patch_9">
    <path d="M 325.19952 195.795353 
L 325.19952 106.247917 
" style="fill: none; stroke: #000000; stroke-width: 0.8; stroke-linejoin: miter; stroke-linecap: square"/>
   </g>
   <g id="patch_10">
    <path d="M 43.78125 195.795353 
L 325.19952 195.795353 
" style="fill: none; stroke: #000000; stroke-width: 0.8; stroke-linejoin: miter; stroke-linecap: square"/>
   </g>
   <g id="patch_11">
    <path d="M 43.78125 106.247917 
L 325.19952 106.247917 
" style="fill: none; stroke: #000000; stroke-width: 0.8; stroke-linejoin: miter; stroke-linecap: square"/>
   </g>
  </g>
  <g id="axes_3">
   <g id="patch_12">
    <path d="M 43.78125 294.84327 
L 325.19952 294.84327 
L 325.19952 205.295833 
L 43.78125 205.295833 
z
" style="fill: #ffffff"/>
   </g>
   <g id="matplotlib.axis_5">
    <g id="xtick_19">
     <g id="line2d_27">
      <g>
       <use xlink:href="#m5c79863250" x="56.57299" y="294.84327" style="stroke: #000000; stroke-width: 0.8"/>
      </g>
     </g>
     <g id="text_9">
      <!-- 0 -->
      <g transform="translate(53.39174 309.441707) scale(0.1 -0.1)">
       <use xlink:href="#DejaVuSans-30"/>
      </g>
     </g>
    </g>
    <g id="xtick_20">
     <g id="line2d_28">
      <g>
       <use xlink:href="#m5c79863250" x="88.535532" y="294.84327" style="stroke: #000000; stroke-width: 0.8"/>
      </g>
     </g>
     <g id="text_10">
      <!-- 100 -->
      <g transform="translate(78.991782 309.441707) scale(0.1 -0.1)">
       <use xlink:href="#DejaVuSans-31"/>
       <use xlink:href="#DejaVuSans-30" transform="translate(63.623047 0)"/>
       <use xlink:href="#DejaVuSans-30" transform="translate(127.246094 0)"/>
      </g>
     </g>
    </g>
    <g id="xtick_21">
     <g id="line2d_29">
      <g>
       <use xlink:href="#m5c79863250" x="120.498075" y="294.84327" style="stroke: #000000; stroke-width: 0.8"/>
      </g>
     </g>
     <g id="text_11">
      <!-- 200 -->
      <g transform="translate(110.954325 309.441707) scale(0.1 -0.1)">
       <defs>
        <path id="DejaVuSans-32" d="M 1228 531 
L 3431 531 
L 3431 0 
L 469 0 
L 469 531 
Q 828 903 1448 1529 
Q 2069 2156 2228 2338 
Q 2531 2678 2651 2914 
Q 2772 3150 2772 3378 
Q 2772 3750 2511 3984 
Q 2250 4219 1831 4219 
Q 1534 4219 1204 4116 
Q 875 4013 500 3803 
L 500 4441 
Q 881 4594 1212 4672 
Q 1544 4750 1819 4750 
Q 2544 4750 2975 4387 
Q 3406 4025 3406 3419 
Q 3406 3131 3298 2873 
Q 3191 2616 2906 2266 
Q 2828 2175 2409 1742 
Q 1991 1309 1228 531 
z
" transform="scale(0.015625)"/>
       </defs>
       <use xlink:href="#DejaVuSans-32"/>
       <use xlink:href="#DejaVuSans-30" transform="translate(63.623047 0)"/>
       <use xlink:href="#DejaVuSans-30" transform="translate(127.246094 0)"/>
      </g>
     </g>
    </g>
    <g id="xtick_22">
     <g id="line2d_30">
      <g>
       <use xlink:href="#m5c79863250" x="152.460617" y="294.84327" style="stroke: #000000; stroke-width: 0.8"/>
      </g>
     </g>
     <g id="text_12">
      <!-- 300 -->
      <g transform="translate(142.916867 309.441707) scale(0.1 -0.1)">
       <defs>
        <path id="DejaVuSans-33" d="M 2597 2516 
Q 3050 2419 3304 2112 
Q 3559 1806 3559 1356 
Q 3559 666 3084 287 
Q 2609 -91 1734 -91 
Q 1441 -91 1130 -33 
Q 819 25 488 141 
L 488 750 
Q 750 597 1062 519 
Q 1375 441 1716 441 
Q 2309 441 2620 675 
Q 2931 909 2931 1356 
Q 2931 1769 2642 2001 
Q 2353 2234 1838 2234 
L 1294 2234 
L 1294 2753 
L 1863 2753 
Q 2328 2753 2575 2939 
Q 2822 3125 2822 3475 
Q 2822 3834 2567 4026 
Q 2313 4219 1838 4219 
Q 1578 4219 1281 4162 
Q 984 4106 628 3988 
L 628 4550 
Q 988 4650 1302 4700 
Q 1616 4750 1894 4750 
Q 2613 4750 3031 4423 
Q 3450 4097 3450 3541 
Q 3450 3153 3228 2886 
Q 3006 2619 2597 2516 
z
" transform="scale(0.015625)"/>
       </defs>
       <use xlink:href="#DejaVuSans-33"/>
       <use xlink:href="#DejaVuSans-30" transform="translate(63.623047 0)"/>
       <use xlink:href="#DejaVuSans-30" transform="translate(127.246094 0)"/>
      </g>
     </g>
    </g>
    <g id="xtick_23">
     <g id="line2d_31">
      <g>
       <use xlink:href="#m5c79863250" x="184.42316" y="294.84327" style="stroke: #000000; stroke-width: 0.8"/>
      </g>
     </g>
     <g id="text_13">
      <!-- 400 -->
      <g transform="translate(174.87941 309.441707) scale(0.1 -0.1)">
       <defs>
        <path id="DejaVuSans-34" d="M 2419 4116 
L 825 1625 
L 2419 1625 
L 2419 4116 
z
M 2253 4666 
L 3047 4666 
L 3047 1625 
L 3713 1625 
L 3713 1100 
L 3047 1100 
L 3047 0 
L 2419 0 
L 2419 1100 
L 313 1100 
L 313 1709 
L 2253 4666 
z
" transform="scale(0.015625)"/>
       </defs>
       <use xlink:href="#DejaVuSans-34"/>
       <use xlink:href="#DejaVuSans-30" transform="translate(63.623047 0)"/>
       <use xlink:href="#DejaVuSans-30" transform="translate(127.246094 0)"/>
      </g>
     </g>
    </g>
    <g id="xtick_24">
     <g id="line2d_32">
      <g>
       <use xlink:href="#m5c79863250" x="216.385703" y="294.84327" style="stroke: #000000; stroke-width: 0.8"/>
      </g>
     </g>
     <g id="text_14">
      <!-- 500 -->
      <g transform="translate(206.841953 309.441707) scale(0.1 -0.1)">
       <use xlink:href="#DejaVuSans-35"/>
       <use xlink:href="#DejaVuSans-30" transform="translate(63.623047 0)"/>
       <use xlink:href="#DejaVuSans-30" transform="translate(127.246094 0)"/>
      </g>
     </g>
    </g>
    <g id="xtick_25">
     <g id="line2d_33">
      <g>
       <use xlink:href="#m5c79863250" x="248.348245" y="294.84327" style="stroke: #000000; stroke-width: 0.8"/>
      </g>
     </g>
     <g id="text_15">
      <!-- 600 -->
      <g transform="translate(238.804495 309.441707) scale(0.1 -0.1)">
       <defs>
        <path id="DejaVuSans-36" d="M 2113 2584 
Q 1688 2584 1439 2293 
Q 1191 2003 1191 1497 
Q 1191 994 1439 701 
Q 1688 409 2113 409 
Q 2538 409 2786 701 
Q 3034 994 3034 1497 
Q 3034 2003 2786 2293 
Q 2538 2584 2113 2584 
z
M 3366 4563 
L 3366 3988 
Q 3128 4100 2886 4159 
Q 2644 4219 2406 4219 
Q 1781 4219 1451 3797 
Q 1122 3375 1075 2522 
Q 1259 2794 1537 2939 
Q 1816 3084 2150 3084 
Q 2853 3084 3261 2657 
Q 3669 2231 3669 1497 
Q 3669 778 3244 343 
Q 2819 -91 2113 -91 
Q 1303 -91 875 529 
Q 447 1150 447 2328 
Q 447 3434 972 4092 
Q 1497 4750 2381 4750 
Q 2619 4750 2861 4703 
Q 3103 4656 3366 4563 
z
" transform="scale(0.015625)"/>
       </defs>
       <use xlink:href="#DejaVuSans-36"/>
       <use xlink:href="#DejaVuSans-30" transform="translate(63.623047 0)"/>
       <use xlink:href="#DejaVuSans-30" transform="translate(127.246094 0)"/>
      </g>
     </g>
    </g>
    <g id="xtick_26">
     <g id="line2d_34">
      <g>
       <use xlink:href="#m5c79863250" x="280.310788" y="294.84327" style="stroke: #000000; stroke-width: 0.8"/>
      </g>
     </g>
     <g id="text_16">
      <!-- 700 -->
      <g transform="translate(270.767038 309.441707) scale(0.1 -0.1)">
       <defs>
        <path id="DejaVuSans-37" d="M 525 4666 
L 3525 4666 
L 3525 4397 
L 1831 0 
L 1172 0 
L 2766 4134 
L 525 4134 
L 525 4666 
z
" transform="scale(0.015625)"/>
       </defs>
       <use xlink:href="#DejaVuSans-37"/>
       <use xlink:href="#DejaVuSans-30" transform="translate(63.623047 0)"/>
       <use xlink:href="#DejaVuSans-30" transform="translate(127.246094 0)"/>
      </g>
     </g>
    </g>
    <g id="xtick_27">
     <g id="line2d_35">
      <g>
       <use xlink:href="#m5c79863250" x="312.27333" y="294.84327" style="stroke: #000000; stroke-width: 0.8"/>
      </g>
     </g>
     <g id="text_17">
      <!-- 800 -->
      <g transform="translate(302.72958 309.441707) scale(0.1 -0.1)">
       <defs>
        <path id="DejaVuSans-38" d="M 2034 2216 
Q 1584 2216 1326 1975 
Q 1069 1734 1069 1313 
Q 1069 891 1326 650 
Q 1584 409 2034 409 
Q 2484 409 2743 651 
Q 3003 894 3003 1313 
Q 3003 1734 2745 1975 
Q 2488 2216 2034 2216 
z
M 1403 2484 
Q 997 2584 770 2862 
Q 544 3141 544 3541 
Q 544 4100 942 4425 
Q 1341 4750 2034 4750 
Q 2731 4750 3128 4425 
Q 3525 4100 3525 3541 
Q 3525 3141 3298 2862 
Q 3072 2584 2669 2484 
Q 3125 2378 3379 2068 
Q 3634 1759 3634 1313 
Q 3634 634 3220 271 
Q 2806 -91 2034 -91 
Q 1263 -91 848 271 
Q 434 634 434 1313 
Q 434 1759 690 2068 
Q 947 2378 1403 2484 
z
M 1172 3481 
Q 1172 3119 1398 2916 
Q 1625 2713 2034 2713 
Q 2441 2713 2670 2916 
Q 2900 3119 2900 3481 
Q 2900 3844 2670 4047 
Q 2441 4250 2034 4250 
Q 1625 4250 1398 4047 
Q 1172 3844 1172 3481 
z
" transform="scale(0.015625)"/>
       </defs>
       <use xlink:href="#DejaVuSans-38"/>
       <use xlink:href="#DejaVuSans-30" transform="translate(63.623047 0)"/>
       <use xlink:href="#DejaVuSans-30" transform="translate(127.246094 0)"/>
      </g>
     </g>
    </g>
    <g id="text_18">
     <!-- Time -->
     <g transform="translate(172.256791 323.119832) scale(0.1 -0.1)">
      <defs>
       <path id="DejaVuSans-54" d="M -19 4666 
L 3928 4666 
L 3928 4134 
L 2272 4134 
L 2272 0 
L 1638 0 
L 1638 4134 
L -19 4134 
L -19 4666 
z
" transform="scale(0.015625)"/>
       <path id="DejaVuSans-69" d="M 603 3500 
L 1178 3500 
L 1178 0 
L 603 0 
L 603 3500 
z
M 603 4863 
L 1178 4863 
L 1178 4134 
L 603 4134 
L 603 4863 
z
" transform="scale(0.015625)"/>
       <path id="DejaVuSans-6d" d="M 3328 2828 
Q 3544 3216 3844 3400 
Q 4144 3584 4550 3584 
Q 5097 3584 5394 3201 
Q 5691 2819 5691 2113 
L 5691 0 
L 5113 0 
L 5113 2094 
Q 5113 2597 4934 2840 
Q 4756 3084 4391 3084 
Q 3944 3084 3684 2787 
Q 3425 2491 3425 1978 
L 3425 0 
L 2847 0 
L 2847 2094 
Q 2847 2600 2669 2842 
Q 2491 3084 2119 3084 
Q 1678 3084 1418 2786 
Q 1159 2488 1159 1978 
L 1159 0 
L 581 0 
L 581 3500 
L 1159 3500 
L 1159 2956 
Q 1356 3278 1631 3431 
Q 1906 3584 2284 3584 
Q 2666 3584 2933 3390 
Q 3200 3197 3328 2828 
z
" transform="scale(0.015625)"/>
      </defs>
      <use xlink:href="#DejaVuSans-54"/>
      <use xlink:href="#DejaVuSans-69" transform="translate(57.958984 0)"/>
      <use xlink:href="#DejaVuSans-6d" transform="translate(85.742188 0)"/>
      <use xlink:href="#DejaVuSans-65" transform="translate(183.154297 0)"/>
     </g>
    </g>
   </g>
   <g id="matplotlib.axis_6">
    <g id="ytick_7">
     <g id="line2d_36">
      <g>
       <use xlink:href="#maf87e66a3d" x="43.78125" y="290.772932" style="stroke: #000000; stroke-width: 0.8"/>
      </g>
     </g>
     <g id="text_19">
      <!-- 0.0 -->
      <g transform="translate(20.878125 294.572151) scale(0.1 -0.1)">
       <defs>
        <path id="DejaVuSans-2e" d="M 684 794 
L 1344 794 
L 1344 0 
L 684 0 
L 684 794 
z
" transform="scale(0.015625)"/>
       </defs>
       <use xlink:href="#DejaVuSans-30"/>
       <use xlink:href="#DejaVuSans-2e" transform="translate(63.623047 0)"/>
       <use xlink:href="#DejaVuSans-30" transform="translate(95.410156 0)"/>
      </g>
     </g>
    </g>
    <g id="ytick_8">
     <g id="line2d_37">
      <g>
       <use xlink:href="#maf87e66a3d" x="43.78125" y="250.069552" style="stroke: #000000; stroke-width: 0.8"/>
      </g>
     </g>
     <g id="text_20">
      <!-- 0.5 -->
      <g transform="translate(20.878125 253.86877) scale(0.1 -0.1)">
       <use xlink:href="#DejaVuSans-30"/>
       <use xlink:href="#DejaVuSans-2e" transform="translate(63.623047 0)"/>
       <use xlink:href="#DejaVuSans-35" transform="translate(95.410156 0)"/>
      </g>
     </g>
    </g>
    <g id="ytick_9">
     <g id="line2d_38">
      <g>
       <use xlink:href="#maf87e66a3d" x="43.78125" y="209.366171" style="stroke: #000000; stroke-width: 0.8"/>
      </g>
     </g>
     <g id="text_21">
      <!-- 1.0 -->
      <g transform="translate(20.878125 213.16539) scale(0.1 -0.1)">
       <use xlink:href="#DejaVuSans-31"/>
       <use xlink:href="#DejaVuSans-2e" transform="translate(63.623047 0)"/>
       <use xlink:href="#DejaVuSans-30" transform="translate(95.410156 0)"/>
      </g>
     </g>
    </g>
    <g id="text_22">
     <!-- Free lac operon -->
     <g transform="translate(14.798438 288.540645) rotate(-90) scale(0.1 -0.1)">
      <defs>
       <path id="DejaVuSans-46" d="M 628 4666 
L 3309 4666 
L 3309 4134 
L 1259 4134 
L 1259 2759 
L 3109 2759 
L 3109 2228 
L 1259 2228 
L 1259 0 
L 628 0 
L 628 4666 
z
" transform="scale(0.015625)"/>
       <path id="DejaVuSans-70" d="M 1159 525 
L 1159 -1331 
L 581 -1331 
L 581 3500 
L 1159 3500 
L 1159 2969 
Q 1341 3281 1617 3432 
Q 1894 3584 2278 3584 
Q 2916 3584 3314 3078 
Q 3713 2572 3713 1747 
Q 3713 922 3314 415 
Q 2916 -91 2278 -91 
Q 1894 -91 1617 61 
Q 1341 213 1159 525 
z
M 3116 1747 
Q 3116 2381 2855 2742 
Q 2594 3103 2138 3103 
Q 1681 3103 1420 2742 
Q 1159 2381 1159 1747 
Q 1159 1113 1420 752 
Q 1681 391 2138 391 
Q 2594 391 2855 752 
Q 3116 1113 3116 1747 
z
" transform="scale(0.015625)"/>
       <path id="DejaVuSans-6e" d="M 3513 2113 
L 3513 0 
L 2938 0 
L 2938 2094 
Q 2938 2591 2744 2837 
Q 2550 3084 2163 3084 
Q 1697 3084 1428 2787 
Q 1159 2491 1159 1978 
L 1159 0 
L 581 0 
L 581 3500 
L 1159 3500 
L 1159 2956 
Q 1366 3272 1645 3428 
Q 1925 3584 2291 3584 
Q 2894 3584 3203 3211 
Q 3513 2838 3513 2113 
z
" transform="scale(0.015625)"/>
      </defs>
      <use xlink:href="#DejaVuSans-46"/>
      <use xlink:href="#DejaVuSans-72" transform="translate(50.269531 0)"/>
      <use xlink:href="#DejaVuSans-65" transform="translate(89.132812 0)"/>
      <use xlink:href="#DejaVuSans-65" transform="translate(150.65625 0)"/>
      <use xlink:href="#DejaVuSans-20" transform="translate(212.179688 0)"/>
      <use xlink:href="#DejaVuSans-6c" transform="translate(243.966797 0)"/>
      <use xlink:href="#DejaVuSans-61" transform="translate(271.75 0)"/>
      <use xlink:href="#DejaVuSans-63" transform="translate(333.029297 0)"/>
      <use xlink:href="#DejaVuSans-20" transform="translate(388.009766 0)"/>
      <use xlink:href="#DejaVuSans-6f" transform="translate(419.796875 0)"/>
      <use xlink:href="#DejaVuSans-70" transform="translate(480.978516 0)"/>
      <use xlink:href="#DejaVuSans-65" transform="translate(544.455078 0)"/>
      <use xlink:href="#DejaVuSans-72" transform="translate(605.978516 0)"/>
      <use xlink:href="#DejaVuSans-6f" transform="translate(644.841797 0)"/>
      <use xlink:href="#DejaVuSans-6e" transform="translate(706.023438 0)"/>
     </g>
    </g>
   </g>
   <g id="line2d_39">
    <path d="M 56.57299 209.366171 
L 56.654739 290.772932 
L 56.82351 290.772932 
L 56.993577 209.366171 
L 57.112084 209.366171 
L 57.214509 290.772932 
L 58.434283 290.772932 
L 59.426973 209.366171 
L 59.613852 209.366171 
L 59.636662 290.772932 
L 62.065073 290.772932 
L 64.667054 209.366171 
L 64.962798 209.366171 
L 65.100638 290.772932 
L 65.226872 290.772932 
L 71.908459 209.366171 
L 72.078737 290.772932 
L 79.940869 209.366171 
L 79.990047 290.772932 
L 82.624064 209.366171 
L 82.764456 209.366171 
L 82.818774 290.772932 
L 84.564109 290.772932 
L 84.62973 209.366171 
L 85.508538 209.366171 
L 85.699061 290.772932 
L 86.734868 290.772932 
L 89.73606 209.366171 
L 90.277615 209.366171 
L 90.306978 290.772932 
L 90.665913 290.772932 
L 91.549834 209.366171 
L 91.608448 290.772932 
L 91.953277 290.772932 
L 109.077099 209.366171 
L 109.09084 290.772932 
L 109.350045 290.772932 
L 109.626964 209.366171 
L 109.915141 290.772932 
L 110.043577 209.366171 
L 110.452493 209.366171 
L 110.657662 290.772932 
L 110.95114 290.772932 
L 115.125181 209.366171 
L 115.787691 290.772932 
L 117.434414 209.366171 
L 117.750545 290.772932 
L 118.424887 209.366171 
L 118.512461 290.772932 
L 119.5247 209.366171 
L 119.609851 290.772932 
L 123.563922 290.772932 
L 129.599928 209.366171 
L 129.706177 290.772932 
L 131.453416 209.366171 
L 131.905494 209.366171 
L 131.926995 290.772932 
L 133.772532 290.772932 
L 136.375571 209.366171 
L 136.388916 290.772932 
L 139.278186 209.366171 
L 139.321039 290.772932 
L 146.38441 209.366171 
L 147.331425 209.366171 
L 147.399932 290.772932 
L 148.018114 290.772932 
L 148.263845 209.366171 
L 148.579621 209.366171 
L 148.692688 290.772932 
L 149.766345 290.772932 
L 150.279231 209.366171 
L 150.380271 290.772932 
L 151.504556 290.772932 
L 151.515909 209.366171 
L 151.677906 290.772932 
L 155.998664 209.366171 
L 156.08785 290.772932 
L 156.337878 209.366171 
L 169.834247 209.366171 
L 169.944529 290.772932 
L 171.763731 290.772932 
L 171.871727 209.366171 
L 202.108797 209.366171 
L 202.133271 290.772932 
L 205.177996 290.772932 
L 206.30766 209.366171 
L 208.947163 209.366171 
L 208.966525 290.772932 
L 209.592943 209.366171 
L 209.594822 290.772932 
L 209.810982 290.772932 
L 209.9504 209.366171 
L 220.966539 209.366171 
L 221.018815 290.772932 
L 221.969482 290.772932 
L 223.551082 209.366171 
L 223.559929 290.772932 
L 224.720851 290.772932 
L 230.39618 209.366171 
L 231.547767 209.366171 
L 231.804491 290.772932 
L 232.357803 290.772932 
L 232.794776 209.366171 
L 232.941037 290.772932 
L 235.086454 290.772932 
L 236.080513 209.366171 
L 250.320888 209.366171 
L 250.327453 290.772932 
L 251.833608 290.772932 
L 251.92365 209.366171 
L 252.509431 209.366171 
L 252.588881 290.772932 
L 254.423213 290.772932 
L 254.849099 209.366171 
L 255.06246 290.772932 
L 268.07645 209.366171 
L 269.299071 209.366171 
L 269.377195 290.772932 
L 270.414598 290.772932 
L 270.744219 209.366171 
L 271.025938 290.772932 
L 271.231176 209.366171 
L 271.334534 290.772932 
L 272.807738 209.366171 
L 272.949542 209.366171 
L 273.001486 290.772932 
L 273.495981 290.772932 
L 275.645287 209.366171 
L 275.922754 290.772932 
L 276.379465 209.366171 
L 276.649497 290.772932 
L 277.380574 290.772932 
L 278.85397 209.366171 
L 279.001046 290.772932 
L 279.412782 209.366171 
L 279.419353 290.772932 
L 280.903589 209.366171 
L 280.961336 290.772932 
L 285.967936 209.366171 
L 286.110279 290.772932 
L 293.330124 209.366171 
L 293.39953 290.772932 
L 293.765076 290.772932 
L 296.431286 209.366171 
L 296.674246 290.772932 
L 300.74335 209.366171 
L 301.737428 209.366171 
L 301.800387 290.772932 
L 302.224071 290.772932 
L 309.485032 209.366171 
L 309.924791 290.772932 
L 310.030992 209.366171 
L 310.382888 209.366171 
L 310.428635 290.772932 
L 310.854317 209.366171 
L 310.988423 209.366171 
L 311.039845 290.772932 
L 311.306587 290.772932 
L 311.314591 209.366171 
L 311.367244 290.772932 
L 311.772764 290.772932 
L 312.184863 209.366171 
L 312.40778 209.366171 
L 312.40778 209.366171 
" clip-path="url(#p30e56d770b)" style="fill: none; stroke: #000000; stroke-width: 1.5; stroke-linecap: square"/>
   </g>
   <g id="patch_13">
    <path d="M 43.78125 294.84327 
L 43.78125 205.295833 
" style="fill: none; stroke: #000000; stroke-width: 0.8; stroke-linejoin: miter; stroke-linecap: square"/>
   </g>
   <g id="patch_14">
    <path d="M 325.19952 294.84327 
L 325.19952 205.295833 
" style="fill: none; stroke: #000000; stroke-width: 0.8; stroke-linejoin: miter; stroke-linecap: square"/>
   </g>
   <g id="patch_15">
    <path d="M 43.78125 294.84327 
L 325.19952 294.84327 
" style="fill: none; stroke: #000000; stroke-width: 0.8; stroke-linejoin: miter; stroke-linecap: square"/>
   </g>
   <g id="patch_16">
    <path d="M 43.78125 205.295833 
L 325.19952 205.295833 
" style="fill: none; stroke: #000000; stroke-width: 0.8; stroke-linejoin: miter; stroke-linecap: square"/>
   </g>
  </g>
 </g>
 <defs>
  <clipPath id="p5ffd4993fc">
   <rect x="43.78125" y="7.2" width="281.41827" height="89.547437"/>
  </clipPath>
  <clipPath id="p8fa0e858a5">
   <rect x="43.78125" y="106.247917" width="281.41827" height="89.547437"/>
  </clipPath>
  <clipPath id="p30e56d770b">
   <rect x="43.78125" y="205.295833" width="281.41827" height="89.547437"/>
  </clipPath>
 </defs>
</svg>
