<?xml version="1.0" encoding="utf-8" standalone="no"?>
<!DOCTYPE svg PUBLIC "-//W3C//DTD SVG 1.1//EN"
  "http://www.w3.org/Graphics/SVG/1.1/DTD/svg11.dtd">
<svg xmlns:xlink="http://www.w3.org/1999/xlink" width="332.39952pt" height="332.39952pt" viewBox="0 0 332.39952 332.39952" xmlns="http://www.w3.org/2000/svg" version="1.1">
 <metadata>
  <rdf:RDF xmlns:dc="http://purl.org/dc/elements/1.1/" xmlns:cc="http://creativecommons.org/ns#" xmlns:rdf="http://www.w3.org/1999/02/22-rdf-syntax-ns#">
   <cc:Work>
    <dc:type rdf:resource="http://purl.org/dc/dcmitype/StillImage"/>
    <dc:date>2026-07-14T14:58:02.335782</dc:date>
    <dc:format>image/svg+xml</dc:format>
    <dc:creator>
     <cc:Agent>
      <dc:title>Matplotlib v3.11.0, https://matplotlib.org/</dc:title>
     </cc:Agent>
    </dc:creator>
   </cc:Work>
  </rdf:RDF>
 </metadata>
 <defs>
  <style type="text/css">*{stroke-linejoin: round; stroke-linecap: butt}</style>
 </defs>
 <g id="figure_1">
  <g id="patch_1">
   <path d="M 0 332.39952 
L 332.39952 332.39952 
L 332.39952 0 
L 0 0 
z
" style="fill: #ffffff"/>
  </g>
  <g id="axes_1">
   <g id="patch_2">
    <path d="M 44.103906 96.532593 
L 325.19952 96.532593 
L 325.19952 7.2 
L 44.103906 7.2 
z
" style="fill: #ffffff"/>
   </g>
   <g id="matplotlib.axis_1">
    <g id="xtick_1">
     <g id="line2d_1">
      <defs>
       <path id="m09a940fef6" d="M 0 0 
L 0 3.5 
" style="stroke: #000000; stroke-width: 0.8"/>
      </defs>
      <g>
       <use xlink:href="#m09a940fef6" x="56.88098" y="96.532593" style="stroke: #000000; stroke-width: 0.8"/>
      </g>
     </g>
    </g>
    <g id="xtick_2">
     <g id="line2d_2">
      <g>
       <use xlink:href="#m09a940fef6" x="88.623949" y="96.532593" style="stroke: #000000; stroke-width: 0.8"/>
      </g>
     </g>
    </g>
    <g id="xtick_3">
     <g id="line2d_3">
      <g>
       <use xlink:href="#m09a940fef6" x="120.366917" y="96.532593" style="stroke: #000000; stroke-width: 0.8"/>
      </g>
     </g>
    </g>
    <g id="xtick_4">
     <g id="line2d_4">
      <g>
       <use xlink:href="#m09a940fef6" x="152.109886" y="96.532593" style="stroke: #000000; stroke-width: 0.8"/>
      </g>
     </g>
    </g>
    <g id="xtick_5">
     <g id="line2d_5">
      <g>
       <use xlink:href="#m09a940fef6" x="183.852855" y="96.532593" style="stroke: #000000; stroke-width: 0.8"/>
      </g>
     </g>
    </g>
    <g id="xtick_6">
     <g id="line2d_6">
      <g>
       <use xlink:href="#m09a940fef6" x="215.595824" y="96.532593" style="stroke: #000000; stroke-width: 0.8"/>
      </g>
     </g>
    </g>
    <g id="xtick_7">
     <g id="line2d_7">
      <g>
       <use xlink:href="#m09a940fef6" x="247.338793" y="96.532593" style="stroke: #000000; stroke-width: 0.8"/>
      </g>
     </g>
    </g>
    <g id="xtick_8">
     <g id="line2d_8">
      <g>
       <use xlink:href="#m09a940fef6" x="279.081762" y="96.532593" style="stroke: #000000; stroke-width: 0.8"/>
      </g>
     </g>
    </g>
    <g id="xtick_9">
     <g id="line2d_9">
      <g>
       <use xlink:href="#m09a940fef6" x="310.824731" y="96.532593" style="stroke: #000000; stroke-width: 0.8"/>
      </g>
     </g>
    </g>
   </g>
   <g id="matplotlib.axis_2">
    <g id="ytick_1">
     <g id="line2d_10">
      <defs>
       <path id="meda9448d61" d="M 0 0 
L -3.5 0 
" style="stroke: #000000; stroke-width: 0.8"/>
      </defs>
      <g>
       <use xlink:href="#meda9448d61" x="44.103906" y="92.472021" style="stroke: #000000; stroke-width: 0.8"/>
      </g>
     </g>
     <g id="text_1">
      <!-- 0 -->
      <g transform="translate(30.741406 96.270849) scale(0.1 -0.1)">
       <defs>
        <path id="DejaVuSans-13" d="M 2034 4250 
Q 1547 4250 1301 3770 
Q 1056 3291 1056 2328 
Q 1056 1369 1301 889 
Q 1547 409 2034 409 
Q 2525 409 2770 889 
Q 3016 1369 3016 2328 
Q 3016 3291 2770 3770 
Q 2525 4250 2034 4250 
z
M 2034 4750 
Q 2819 4750 3233 4129 
Q 3647 3509 3647 2328 
Q 3647 1150 3233 529 
Q 2819 -91 2034 -91 
Q 1250 -91 836 529 
Q 422 1150 422 2328 
Q 422 3509 836 4129 
Q 1250 4750 2034 4750 
z
" transform="scale(0.015625)"/>
       </defs>
       <use xlink:href="#DejaVuSans-13"/>
      </g>
     </g>
    </g>
    <g id="ytick_2">
     <g id="line2d_11">
      <g>
       <use xlink:href="#meda9448d61" x="44.103906" y="51.866296" style="stroke: #000000; stroke-width: 0.8"/>
      </g>
     </g>
     <g id="text_2">
      <!-- 5 -->
      <g transform="translate(30.741406 55.665125) scale(0.1 -0.1)">
       <defs>
        <path id="DejaVuSans-18" d="M 691 4666 
L 3169 4666 
L 3169 4134 
L 1269 4134 
L 1269 2991 
Q 1406 3038 1543 3061 
Q 1681 3084 1819 3084 
Q 2600 3084 3056 2656 
Q 3513 2228 3513 1497 
Q 3513 744 3044 326 
Q 2575 -91 1722 -91 
Q 1428 -91 1123 -41 
Q 819 9 494 109 
L 494 744 
Q 775 591 1075 516 
Q 1375 441 1709 441 
Q 2250 441 2565 725 
Q 2881 1009 2881 1497 
Q 2881 1984 2565 2268 
Q 2250 2553 1709 2553 
Q 1456 2553 1204 2497 
Q 953 2441 691 2322 
L 691 4666 
z
" transform="scale(0.015625)"/>
       </defs>
       <use xlink:href="#DejaVuSans-18"/>
      </g>
     </g>
    </g>
    <g id="ytick_3">
     <g id="line2d_12">
      <g>
       <use xlink:href="#meda9448d61" x="44.103906" y="11.260572" style="stroke: #000000; stroke-width: 0.8"/>
      </g>
     </g>
     <g id="text_3">
      <!-- 10 -->
      <g transform="translate(24.378906 15.059401) scale(0.1 -0.1)">
       <defs>
        <path id="DejaVuSans-14" d="M 794 531 
L 1825 531 
L 1825 4091 
L 703 3866 
L 703 4441 
L 1819 4666 
L 2450 4666 
L 2450 531 
L 3481 531 
L 3481 0 
L 794 0 
L 794 531 
z
" transform="scale(0.015625)"/>
       </defs>
       <use xlink:href="#DejaVuSans-14"/>
       <use xlink:href="#DejaVuSans-13" transform="translate(63.625 0)"/>
      </g>
     </g>
    </g>
    <g id="text_4">
     <!-- Extracellular lactose -->
     <g transform="translate(17.976563 102.838171) rotate(-90) scale(0.1 -0.1)">
      <defs>
       <path id="DejaVuSans-28" d="M 628 4666 
L 3578 4666 
L 3578 4134 
L 1259 4134 
L 1259 2753 
L 3481 2753 
L 3481 2222 
L 1259 2222 
L 1259 531 
L 3634 531 
L 3634 0 
L 628 0 
L 628 4666 
z
" transform="scale(0.015625)"/>
       <path id="DejaVuSans-5b" d="M 3513 3500 
L 2247 1797 
L 3578 0 
L 2900 0 
L 1881 1375 
L 863 0 
L 184 0 
L 1544 1831 
L 300 3500 
L 978 3500 
L 1906 2253 
L 2834 3500 
L 3513 3500 
z
" transform="scale(0.015625)"/>
       <path id="DejaVuSans-57" d="M 1172 4494 
L 1172 3500 
L 2356 3500 
L 2356 3053 
L 1172 3053 
L 1172 1153 
Q 1172 725 1289 603 
Q 1406 481 1766 481 
L 2356 481 
L 2356 0 
L 1766 0 
Q 1100 0 847 248 
Q 594 497 594 1153 
L 594 3053 
L 172 3053 
L 172 3500 
L 594 3500 
L 594 4494 
L 1172 4494 
z
" transform="scale(0.015625)"/>
       <path id="DejaVuSans-55" d="M 2631 2963 
Q 2534 3019 2420 3045 
Q 2306 3072 2169 3072 
Q 1681 3072 1420 2755 
Q 1159 2438 1159 1844 
L 1159 0 
L 581 0 
L 581 3500 
L 1159 3500 
L 1159 2956 
Q 1341 3275 1631 3429 
Q 1922 3584 2338 3584 
Q 2397 3584 2469 3576 
Q 2541 3569 2628 3553 
L 2631 2963 
z
" transform="scale(0.015625)"/>
       <path id="DejaVuSans-44" d="M 2194 1759 
Q 1497 1759 1228 1600 
Q 959 1441 959 1056 
Q 959 750 1161 570 
Q 1363 391 1709 391 
Q 2188 391 2477 730 
Q 2766 1069 2766 1631 
L 2766 1759 
L 2194 1759 
z
M 3341 1997 
L 3341 0 
L 2766 0 
L 2766 531 
Q 2569 213 2275 61 
Q 1981 -91 1556 -91 
Q 1019 -91 701 211 
Q 384 513 384 1019 
Q 384 1609 779 1909 
Q 1175 2209 1959 2209 
L 2766 2209 
L 2766 2266 
Q 2766 2663 2505 2880 
Q 2244 3097 1772 3097 
Q 1472 3097 1187 3025 
Q 903 2953 641 2809 
L 641 3341 
Q 956 3463 1253 3523 
Q 1550 3584 1831 3584 
Q 2591 3584 2966 3190 
Q 3341 2797 3341 1997 
z
" transform="scale(0.015625)"/>
       <path id="DejaVuSans-46" d="M 3122 3366 
L 3122 2828 
Q 2878 2963 2633 3030 
Q 2388 3097 2138 3097 
Q 1578 3097 1268 2742 
Q 959 2388 959 1747 
Q 959 1106 1268 751 
Q 1578 397 2138 397 
Q 2388 397 2633 464 
Q 2878 531 3122 666 
L 3122 134 
Q 2881 22 2623 -34 
Q 2366 -91 2075 -91 
Q 1284 -91 818 406 
Q 353 903 353 1747 
Q 353 2603 823 3093 
Q 1294 3584 2113 3584 
Q 2378 3584 2631 3529 
Q 2884 3475 3122 3366 
z
" transform="scale(0.015625)"/>
       <path id="DejaVuSans-48" d="M 3597 1894 
L 3597 1613 
L 953 1613 
Q 991 1019 1311 708 
Q 1631 397 2203 397 
Q 2534 397 2845 478 
Q 3156 559 3463 722 
L 3463 178 
Q 3153 47 2828 -22 
Q 2503 -91 2169 -91 
Q 1331 -91 842 396 
Q 353 884 353 1716 
Q 353 2575 817 3079 
Q 1281 3584 2069 3584 
Q 2775 3584 3186 3129 
Q 3597 2675 3597 1894 
z
M 3022 2063 
Q 3016 2534 2758 2815 
Q 2500 3097 2075 3097 
Q 1594 3097 1305 2825 
Q 1016 2553 972 2059 
L 3022 2063 
z
" transform="scale(0.015625)"/>
       <path id="DejaVuSans-4f" d="M 603 4863 
L 1178 4863 
L 1178 0 
L 603 0 
L 603 4863 
z
" transform="scale(0.015625)"/>
       <path id="DejaVuSans-58" d="M 544 1381 
L 544 3500 
L 1119 3500 
L 1119 1403 
Q 1119 906 1312 657 
Q 1506 409 1894 409 
Q 2359 409 2629 706 
Q 2900 1003 2900 1516 
L 2900 3500 
L 3475 3500 
L 3475 0 
L 2900 0 
L 2900 538 
Q 2691 219 2414 64 
Q 2138 -91 1772 -91 
Q 1169 -91 856 284 
Q 544 659 544 1381 
z
M 1991 3584 
L 1991 3584 
z
" transform="scale(0.015625)"/>
       <path id="DejaVuSans-3" transform="scale(0.015625)"/>
       <path id="DejaVuSans-52" d="M 1959 3097 
Q 1497 3097 1228 2736 
Q 959 2375 959 1747 
Q 959 1119 1226 758 
Q 1494 397 1959 397 
Q 2419 397 2687 759 
Q 2956 1122 2956 1747 
Q 2956 2369 2687 2733 
Q 2419 3097 1959 3097 
z
M 1959 3584 
Q 2709 3584 3137 3096 
Q 3566 2609 3566 1747 
Q 3566 888 3137 398 
Q 2709 -91 1959 -91 
Q 1206 -91 779 398 
Q 353 888 353 1747 
Q 353 2609 779 3096 
Q 1206 3584 1959 3584 
z
" transform="scale(0.015625)"/>
       <path id="DejaVuSans-56" d="M 2834 3397 
L 2834 2853 
Q 2591 2978 2328 3040 
Q 2066 3103 1784 3103 
Q 1356 3103 1142 2972 
Q 928 2841 928 2578 
Q 928 2378 1081 2264 
Q 1234 2150 1697 2047 
L 1894 2003 
Q 2506 1872 2764 1633 
Q 3022 1394 3022 966 
Q 3022 478 2636 193 
Q 2250 -91 1575 -91 
Q 1294 -91 989 -36 
Q 684 19 347 128 
L 347 722 
Q 666 556 975 473 
Q 1284 391 1588 391 
Q 1994 391 2212 530 
Q 2431 669 2431 922 
Q 2431 1156 2273 1281 
Q 2116 1406 1581 1522 
L 1381 1569 
Q 847 1681 609 1914 
Q 372 2147 372 2553 
Q 372 3047 722 3315 
Q 1072 3584 1716 3584 
Q 2034 3584 2315 3537 
Q 2597 3491 2834 3397 
z
" transform="scale(0.015625)"/>
      </defs>
      <use xlink:href="#DejaVuSans-28"/>
      <use xlink:href="#DejaVuSans-5b" transform="translate(63.1875 0)"/>
      <use xlink:href="#DejaVuSans-57" transform="translate(122.375 0)"/>
      <use xlink:href="#DejaVuSans-55" transform="translate(161.578125 0)"/>
      <use xlink:href="#DejaVuSans-44" transform="translate(202.6875 0)"/>
      <use xlink:href="#DejaVuSans-46" transform="translate(263.96875 0)"/>
      <use xlink:href="#DejaVuSans-48" transform="translate(318.953125 0)"/>
      <use xlink:href="#DejaVuSans-4f" transform="translate(380.484375 0)"/>
      <use xlink:href="#DejaVuSans-4f" transform="translate(408.265625 0)"/>
      <use xlink:href="#DejaVuSans-58" transform="translate(436.046875 0)"/>
      <use xlink:href="#DejaVuSans-4f" transform="translate(499.421875 0)"/>
      <use xlink:href="#DejaVuSans-44" transform="translate(527.203125 0)"/>
      <use xlink:href="#DejaVuSans-55" transform="translate(588.484375 0)"/>
      <use xlink:href="#DejaVuSans-3" transform="translate(629.59375 0)"/>
      <use xlink:href="#DejaVuSans-4f" transform="translate(661.375 0)"/>
      <use xlink:href="#DejaVuSans-44" transform="translate(689.15625 0)"/>
      <use xlink:href="#DejaVuSans-46" transform="translate(750.4375 0)"/>
      <use xlink:href="#DejaVuSans-57" transform="translate(805.421875 0)"/>
      <use xlink:href="#DejaVuSans-52" transform="translate(844.625 0)"/>
      <use xlink:href="#DejaVuSans-56" transform="translate(905.8125 0)"/>
      <use xlink:href="#DejaVuSans-48" transform="translate(957.90625 0)"/>
     </g>
    </g>
   </g>
   <g id="line2d_13">
    <path d="M 56.88098 92.472021 
L 155.623627 92.472021 
L 155.712201 11.260572 
L 156.376263 11.341784 
L 156.493258 11.66663 
L 156.537809 11.747841 
L 156.683144 13.209647 
L 156.800789 14.833876 
L 156.814536 14.915088 
L 156.957205 16.620528 
L 156.980616 16.701739 
L 157.487199 20.193832 
L 157.762798 20.599889 
L 157.821743 20.6811 
L 157.930277 20.762312 
L 158.378222 20.843523 
L 158.474512 21.249581 
L 158.713894 21.655638 
L 158.813765 22.061695 
L 158.954108 22.142906 
L 159.051512 22.224118 
L 159.500999 23.523501 
L 159.640643 23.929558 
L 159.980596 25.391364 
L 160.005591 25.472576 
L 161.127052 31.725857 
L 161.158928 31.807069 
L 161.275997 32.294337 
L 161.331267 32.375549 
L 161.438949 32.537972 
L 161.462698 32.619183 
L 161.57497 33.02524 
L 161.863149 34.243412 
L 161.893824 34.324624 
L 162.004484 34.649469 
L 162.683559 39.522156 
L 162.724763 39.603368 
L 162.825198 39.847002 
L 162.994018 39.928214 
L 163.141531 40.496694 
L 163.367333 41.146385 
L 163.625943 41.714865 
L 163.703509 42.283346 
L 164.584359 42.364557 
L 164.696736 42.52698 
L 164.769282 42.608191 
L 164.916983 43.09546 
L 165.307387 43.582729 
L 165.513668 43.66394 
L 165.621647 44.069997 
L 165.817739 44.476055 
L 165.831015 44.557266 
L 165.944408 44.963323 
L 165.980146 45.044535 
L 166.199749 46.99361 
L 166.309576 47.318455 
L 166.583866 48.617839 
L 166.879839 49.26753 
L 166.943639 49.348742 
L 167.036694 49.754799 
L 167.271245 50.648125 
L 167.569602 51.297816 
L 169.359868 51.379028 
L 169.472166 51.622662 
L 169.521533 51.703874 
L 169.632457 52.109931 
L 169.737037 52.597199 
L 169.846729 53.003257 
L 169.901156 53.084468 
L 170.077775 53.490525 
L 170.124654 53.571737 
L 170.303053 54.383851 
L 170.329515 54.465063 
L 170.473534 55.033543 
L 170.493813 55.114754 
L 170.595682 55.4396 
L 170.69116 55.845657 
L 170.807713 56.495349 
L 170.861763 56.901406 
L 171.123922 59.012904 
L 171.139351 59.094115 
L 171.360233 60.799556 
L 171.378255 60.880767 
L 171.518388 61.368036 
L 171.671397 61.449247 
L 171.850917 62.017727 
L 171.924264 62.098939 
L 172.023865 62.667419 
L 172.731789 64.778917 
L 172.814859 64.860128 
L 172.956041 65.266185 
L 172.980277 65.347397 
L 173.061193 65.834666 
L 173.161863 65.915877 
L 173.385281 66.64678 
L 173.408875 66.727991 
L 173.527967 67.21526 
L 173.668621 67.864952 
L 173.774717 68.271009 
L 173.885826 68.35222 
L 173.987758 68.595855 
L 174.036033 68.677066 
L 174.150843 69.001912 
L 174.229784 69.083123 
L 174.339366 69.570392 
L 174.383033 69.651604 
L 174.68976 71.11341 
L 174.841782 72.087947 
L 174.872204 72.169158 
L 175.128157 73.95581 
L 175.335581 74.52429 
L 175.492734 74.605502 
L 175.720986 74.930348 
L 175.804019 75.011559 
L 175.990433 75.823674 
L 176.064561 75.904885 
L 176.231573 76.310942 
L 176.356913 76.392154 
L 176.52033 76.554577 
L 178.631288 76.635788 
L 179.058105 77.123057 
L 179.261728 77.204268 
L 179.905211 77.610326 
L 179.958676 77.691537 
L 180.619614 78.260017 
L 180.726132 78.341229 
L 181.170395 78.503651 
L 181.776912 78.584863 
L 181.931627 79.234554 
L 182.235404 79.315766 
L 182.315539 79.396977 
L 182.504011 79.478189 
L 182.627318 79.5594 
L 182.750352 79.640612 
L 182.838868 79.803035 
L 182.908533 79.884246 
L 183.063136 80.046669 
L 183.231991 80.12788 
L 183.335877 80.371515 
L 183.454687 80.452726 
L 183.685544 80.777572 
L 183.78457 80.939995 
L 183.952957 81.021206 
L 184.020413 81.183629 
L 184.154872 81.264841 
L 184.266372 81.508475 
L 184.608664 82.239378 
L 184.755144 82.320589 
L 184.936747 82.645435 
L 185.068035 82.726647 
L 185.270268 82.807858 
L 185.394414 82.88907 
L 186.387837 82.970281 
L 186.885784 83.295127 
L 186.983322 83.538761 
L 187.364062 84.107241 
L 187.473897 84.188453 
L 187.726966 84.513299 
L 187.762953 84.59451 
L 187.892526 84.756933 
L 188.215476 84.838144 
L 188.343731 85.000567 
L 189.089656 85.081779 
L 189.359128 85.325413 
L 191.29516 85.406625 
L 192.424748 85.812682 
L 192.88454 85.893893 
L 193.368132 86.056316 
L 194.111158 86.137528 
L 194.228154 86.29995 
L 194.337632 86.381162 
L 194.458218 86.543585 
L 194.582923 86.624796 
L 194.743495 86.868431 
L 194.993379 86.949642 
L 195.161437 87.112065 
L 195.917957 87.193276 
L 195.983929 87.274488 
L 200.071114 87.355699 
L 200.967295 87.599334 
L 201.252147 87.680545 
L 202.280711 87.761757 
L 202.690747 87.842968 
L 203.046776 87.924179 
L 203.136685 88.086602 
L 203.259541 88.167814 
L 203.334558 88.330237 
L 204.12296 88.411448 
L 204.352269 88.573871 
L 204.609517 88.655082 
L 204.665748 88.736294 
L 205.129599 88.817505 
L 210.149012 88.898717 
L 210.268898 88.979928 
L 211.100186 89.06114 
L 211.311957 89.142351 
L 211.813483 89.223563 
L 211.828214 89.304774 
L 212.16775 89.385985 
L 212.337658 89.467197 
L 213.019965 89.548408 
L 213.092897 89.62962 
L 213.807463 89.710831 
L 214.027458 89.792043 
L 215.519913 89.873254 
L 215.968659 89.954466 
L 217.184707 90.035677 
L 217.294434 90.116889 
L 217.910139 90.1981 
L 218.033591 90.279311 
L 220.130279 90.360523 
L 220.473208 90.441734 
L 298.427994 90.522946 
L 298.572828 90.604157 
L 298.975923 90.685369 
L 299.107344 90.76658 
L 312.422447 90.76658 
L 312.422447 90.76658 
" clip-path="url(#pa5726c2729)" style="fill: none; stroke: #000000; stroke-width: 1.5; stroke-linecap: square"/>
   </g>
   <g id="patch_3">
    <path d="M 44.103906 96.532593 
L 44.103906 7.2 
" style="fill: none; stroke: #000000; stroke-width: 0.8; stroke-linejoin: miter; stroke-linecap: square"/>
   </g>
   <g id="patch_4">
    <path d="M 325.19952 96.532593 
L 325.19952 7.2 
" style="fill: none; stroke: #000000; stroke-width: 0.8; stroke-linejoin: miter; stroke-linecap: square"/>
   </g>
   <g id="patch_5">
    <path d="M 44.103906 96.532593 
L 325.19952 96.532593 
" style="fill: none; stroke: #000000; stroke-width: 0.8; stroke-linejoin: miter; stroke-linecap: square"/>
   </g>
   <g id="patch_6">
    <path d="M 44.103906 7.2 
L 325.19952 7.2 
" style="fill: none; stroke: #000000; stroke-width: 0.8; stroke-linejoin: miter; stroke-linecap: square"/>
   </g>
  </g>
  <g id="axes_2">
   <g id="patch_7">
    <path d="M 44.103906 195.365666 
L 325.19952 195.365666 
L 325.19952 106.033073 
L 44.103906 106.033073 
z
" style="fill: #ffffff"/>
   </g>
   <g id="matplotlib.axis_3">
    <g id="xtick_10">
     <g id="line2d_14">
      <g>
       <use xlink:href="#m09a940fef6" x="56.88098" y="195.365666" style="stroke: #000000; stroke-width: 0.8"/>
      </g>
     </g>
    </g>
    <g id="xtick_11">
     <g id="line2d_15">
      <g>
       <use xlink:href="#m09a940fef6" x="88.623949" y="195.365666" style="stroke: #000000; stroke-width: 0.8"/>
      </g>
     </g>
    </g>
    <g id="xtick_12">
     <g id="line2d_16">
      <g>
       <use xlink:href="#m09a940fef6" x="120.366917" y="195.365666" style="stroke: #000000; stroke-width: 0.8"/>
      </g>
     </g>
    </g>
    <g id="xtick_13">
     <g id="line2d_17">
      <g>
       <use xlink:href="#m09a940fef6" x="152.109886" y="195.365666" style="stroke: #000000; stroke-width: 0.8"/>
      </g>
     </g>
    </g>
    <g id="xtick_14">
     <g id="line2d_18">
      <g>
       <use xlink:href="#m09a940fef6" x="183.852855" y="195.365666" style="stroke: #000000; stroke-width: 0.8"/>
      </g>
     </g>
    </g>
    <g id="xtick_15">
     <g id="line2d_19">
      <g>
       <use xlink:href="#m09a940fef6" x="215.595824" y="195.365666" style="stroke: #000000; stroke-width: 0.8"/>
      </g>
     </g>
    </g>
    <g id="xtick_16">
     <g id="line2d_20">
      <g>
       <use xlink:href="#m09a940fef6" x="247.338793" y="195.365666" style="stroke: #000000; stroke-width: 0.8"/>
      </g>
     </g>
    </g>
    <g id="xtick_17">
     <g id="line2d_21">
      <g>
       <use xlink:href="#m09a940fef6" x="279.081762" y="195.365666" style="stroke: #000000; stroke-width: 0.8"/>
      </g>
     </g>
    </g>
    <g id="xtick_18">
     <g id="line2d_22">
      <g>
       <use xlink:href="#m09a940fef6" x="310.824731" y="195.365666" style="stroke: #000000; stroke-width: 0.8"/>
      </g>
     </g>
    </g>
   </g>
   <g id="matplotlib.axis_4">
    <g id="ytick_4">
     <g id="line2d_23">
      <g>
       <use xlink:href="#meda9448d61" x="44.103906" y="191.305093" style="stroke: #000000; stroke-width: 0.8"/>
      </g>
     </g>
     <g id="text_5">
      <!-- 0 -->
      <g transform="translate(30.741406 195.103922) scale(0.1 -0.1)">
       <use xlink:href="#DejaVuSans-13"/>
      </g>
     </g>
    </g>
    <g id="ytick_5">
     <g id="line2d_24">
      <g>
       <use xlink:href="#meda9448d61" x="44.103906" y="150.699369" style="stroke: #000000; stroke-width: 0.8"/>
      </g>
     </g>
     <g id="text_6">
      <!-- 5 -->
      <g transform="translate(30.741406 154.498197) scale(0.1 -0.1)">
       <use xlink:href="#DejaVuSans-18"/>
      </g>
     </g>
    </g>
    <g id="ytick_6">
     <g id="line2d_25">
      <g>
       <use xlink:href="#meda9448d61" x="44.103906" y="110.093645" style="stroke: #000000; stroke-width: 0.8"/>
      </g>
     </g>
     <g id="text_7">
      <!-- 10 -->
      <g transform="translate(24.378906 113.892473) scale(0.1 -0.1)">
       <use xlink:href="#DejaVuSans-14"/>
       <use xlink:href="#DejaVuSans-13" transform="translate(63.625 0)"/>
      </g>
     </g>
    </g>
    <g id="text_8">
     <!-- LacY -->
     <g transform="translate(17.976563 162.352494) rotate(-90) scale(0.1 -0.1)">
      <defs>
       <path id="DejaVuSans-2f" d="M 628 4666 
L 1259 4666 
L 1259 531 
L 3531 531 
L 3531 0 
L 628 0 
L 628 4666 
z
" transform="scale(0.015625)"/>
       <path id="DejaVuSans-3c" d="M -13 4666 
L 666 4666 
L 1959 2747 
L 3244 4666 
L 3922 4666 
L 2272 2222 
L 2272 0 
L 1638 0 
L 1638 2222 
L -13 4666 
z
" transform="scale(0.015625)"/>
      </defs>
      <use xlink:href="#DejaVuSans-2f"/>
      <use xlink:href="#DejaVuSans-44" transform="translate(55.71875 0)"/>
      <use xlink:href="#DejaVuSans-46" transform="translate(117 0)"/>
      <use xlink:href="#DejaVuSans-3c" transform="translate(171.984375 0)"/>
     </g>
    </g>
   </g>
   <g id="line2d_26">
    <path d="M 56.88098 110.093645 
L 56.907963 110.093645 
L 56.962167 118.21479 
L 57.069757 134.45708 
L 57.129779 142.578225 
L 57.281076 142.578225 
L 57.298678 134.45708 
L 57.518092 142.578225 
L 57.659202 142.578225 
L 57.828944 158.820514 
L 58.128243 175.062804 
L 58.193513 191.305093 
L 59.715357 191.305093 
L 59.881091 183.183949 
L 59.923605 191.305093 
L 64.91944 191.305093 
L 65.240677 183.183949 
L 65.350045 191.305093 
L 82.75309 191.305093 
L 82.946463 183.183949 
L 84.730232 191.305093 
L 84.744979 183.183949 
L 84.887423 175.062804 
L 84.892053 166.941659 
L 85.212499 175.062804 
L 85.438255 175.062804 
L 85.557252 191.305093 
L 85.617749 183.183949 
L 85.806963 183.183949 
L 85.944712 191.305093 
L 89.816229 191.305093 
L 90.203954 175.062804 
L 90.205248 166.941659 
L 90.701231 166.941659 
L 90.739694 183.183949 
L 91.507729 183.183949 
L 91.675755 175.062804 
L 92.018214 191.305093 
L 108.932912 191.305093 
L 109.038047 183.183949 
L 109.157118 183.183949 
L 109.295471 191.305093 
L 109.529224 191.305093 
L 109.570488 183.183949 
L 109.984239 183.183949 
L 110.332308 175.062804 
L 110.390346 183.183949 
L 110.564683 183.183949 
L 110.594105 191.305093 
L 119.307314 191.305093 
L 119.484796 183.183949 
L 121.573972 183.183949 
L 123.411703 191.305093 
L 131.138783 191.305093 
L 131.324069 183.183949 
L 131.610115 183.183949 
L 131.717324 191.305093 
L 136.0303 191.305093 
L 136.11359 183.183949 
L 136.13534 191.305093 
L 146.075421 191.305093 
L 146.334893 175.062804 
L 146.355615 183.183949 
L 146.384471 175.062804 
L 146.496987 166.941659 
L 146.502299 175.062804 
L 147.083967 175.062804 
L 147.697902 183.183949 
L 147.941945 183.183949 
L 148.255551 175.062804 
L 148.367842 175.062804 
L 149.434123 191.305093 
L 149.891877 191.305093 
L 149.943486 175.062804 
L 150.043831 175.062804 
L 150.19586 183.183949 
L 150.328877 183.183949 
L 150.868934 191.305093 
L 155.960511 191.305093 
L 156.386547 183.183949 
L 156.625578 150.699369 
L 156.90574 150.699369 
L 157.025217 166.941659 
L 157.074823 166.941659 
L 157.175194 158.820514 
L 157.261716 158.820514 
L 157.370947 175.062804 
L 157.399 175.062804 
L 157.487199 183.183949 
L 157.837131 183.183949 
L 157.930277 191.305093 
L 158.327873 191.305093 
L 158.446181 183.183949 
L 158.594012 183.183949 
L 158.697575 175.062804 
L 158.842792 175.062804 
L 158.95724 183.183949 
L 159.550341 183.183949 
L 159.668272 175.062804 
L 159.810313 175.062804 
L 159.919496 183.183949 
L 160.089303 183.183949 
L 160.195689 175.062804 
L 160.296159 175.062804 
L 160.417893 158.820514 
L 160.775565 158.820514 
L 160.879927 175.062804 
L 161.302913 175.062804 
L 161.410706 166.941659 
L 161.438949 166.941659 
L 161.456251 158.820514 
L 161.469947 175.062804 
L 161.549019 166.941659 
L 161.564944 166.941659 
L 161.673774 175.062804 
L 161.908194 175.062804 
L 162.019377 150.699369 
L 162.032886 150.699369 
L 162.142789 142.578225 
L 162.143465 150.699369 
L 162.185323 150.699369 
L 162.304038 158.820514 
L 162.434737 158.820514 
L 162.550385 166.941659 
L 162.626948 166.941659 
L 162.743505 183.183949 
L 162.944376 183.183949 
L 163.014855 158.820514 
L 163.093312 175.062804 
L 163.308039 175.062804 
L 163.419886 183.183949 
L 163.499729 183.183949 
L 163.617605 175.062804 
L 163.635956 175.062804 
L 163.762045 183.183949 
L 163.854804 183.183949 
L 164.014807 191.305093 
L 164.321653 191.305093 
L 164.487733 183.183949 
L 164.74903 183.183949 
L 164.806037 175.062804 
L 164.841893 183.183949 
L 164.974133 183.183949 
L 165.045337 191.305093 
L 165.079009 183.183949 
L 165.504834 183.183949 
L 165.621647 175.062804 
L 165.817739 175.062804 
L 165.927104 166.941659 
L 165.97496 166.941659 
L 166.094243 150.699369 
L 166.195836 150.699369 
L 166.309576 166.941659 
L 166.425955 166.941659 
L 166.527085 175.062804 
L 166.607568 175.062804 
L 166.726694 183.183949 
L 166.748123 183.183949 
L 166.8356 175.062804 
L 167.565284 175.062804 
L 167.651459 183.183949 
L 167.723819 183.183949 
L 167.835976 191.305093 
L 168.849527 191.305093 
L 169.011016 183.183949 
L 169.03414 191.305093 
L 169.344423 191.305093 
L 169.472166 175.062804 
L 169.751582 175.062804 
L 169.846729 166.941659 
L 169.975436 166.941659 
L 170.077775 175.062804 
L 170.179616 166.941659 
L 170.394621 166.941659 
L 170.471353 150.699369 
L 170.502206 158.820514 
L 170.578672 158.820514 
L 170.691984 150.699369 
L 170.719418 150.699369 
L 170.807713 158.820514 
L 170.96601 158.820514 
L 171.101092 150.699369 
L 171.235402 150.699369 
L 171.334276 142.578225 
L 171.344456 150.699369 
L 171.425236 150.699369 
L 171.545943 166.941659 
L 171.563943 166.941659 
L 171.6345 175.062804 
L 171.671397 166.941659 
L 171.683405 166.941659 
L 171.799295 158.820514 
L 171.873403 166.941659 
L 171.898364 158.820514 
L 171.923021 158.820514 
L 171.989177 134.45708 
L 172.023865 150.699369 
L 172.084185 150.699369 
L 172.197565 158.820514 
L 172.260646 158.820514 
L 172.368438 166.941659 
L 173.309992 166.941659 
L 173.416747 158.820514 
L 173.587795 158.820514 
L 173.690097 150.699369 
L 173.738473 150.699369 
L 173.774717 166.941659 
L 173.84114 158.820514 
L 173.928016 158.820514 
L 174.03822 166.941659 
L 174.268153 166.941659 
L 174.383033 150.699369 
L 174.450654 150.699369 
L 174.550735 158.820514 
L 174.619703 158.820514 
L 174.693232 134.45708 
L 174.728882 142.578225 
L 174.778481 142.578225 
L 174.891636 134.45708 
L 174.912056 134.45708 
L 174.94078 126.335935 
L 175.018288 134.45708 
L 175.126366 134.45708 
L 175.23767 166.941659 
L 175.31089 166.941659 
L 175.387968 175.062804 
L 175.549549 166.941659 
L 175.654402 175.062804 
L 175.777361 175.062804 
L 175.886905 166.941659 
L 176.112548 166.941659 
L 176.158905 158.820514 
L 176.203197 175.062804 
L 176.218073 166.941659 
L 176.324156 166.941659 
L 176.459548 183.183949 
L 176.52033 183.183949 
L 176.596278 175.062804 
L 176.694976 175.062804 
L 176.745975 166.941659 
L 176.802591 175.062804 
L 176.842029 175.062804 
L 176.932958 191.305093 
L 177.699533 191.305093 
L 177.820412 183.183949 
L 177.940317 191.305093 
L 178.446012 191.305093 
L 178.536383 183.183949 
L 178.682529 183.183949 
L 178.780933 166.941659 
L 178.791169 175.062804 
L 178.897237 175.062804 
L 179.010177 183.183949 
L 179.089594 183.183949 
L 179.1224 191.305093 
L 179.16537 183.183949 
L 179.622273 183.183949 
L 179.723584 175.062804 
L 179.791508 175.062804 
L 179.905211 166.941659 
L 180.033794 166.941659 
L 180.121345 175.062804 
L 180.138309 166.941659 
L 180.2785 166.941659 
L 180.338692 158.820514 
L 180.361472 166.941659 
L 180.546394 166.941659 
L 180.697346 183.183949 
L 181.093274 183.183949 
L 181.170395 191.305093 
L 181.542174 191.305093 
L 181.860258 175.062804 
L 182.051635 175.062804 
L 182.168848 166.941659 
L 182.315539 183.183949 
L 182.370566 183.183949 
L 182.475693 175.062804 
L 182.569213 175.062804 
L 182.730895 158.820514 
L 182.838868 175.062804 
L 182.885451 175.062804 
L 182.990506 158.820514 
L 183.601182 158.820514 
L 183.698883 150.699369 
L 183.882172 150.699369 
L 183.88398 158.820514 
L 183.991033 150.699369 
L 184.020413 150.699369 
L 184.131365 158.820514 
L 184.264672 150.699369 
L 184.660374 150.699369 
L 184.812349 166.941659 
L 184.814931 158.820514 
L 184.823963 158.820514 
L 184.936747 166.941659 
L 184.975424 166.941659 
L 185.061216 175.062804 
L 185.068035 166.941659 
L 185.165928 166.941659 
L 185.285588 175.062804 
L 185.502181 175.062804 
L 185.520293 183.183949 
L 186.038888 183.183949 
L 186.1626 175.062804 
L 186.231166 175.062804 
L 186.313854 166.941659 
L 186.387837 175.062804 
L 186.563403 175.062804 
L 186.644107 166.941659 
L 186.701239 166.941659 
L 186.884853 142.578225 
L 186.983322 150.699369 
L 187.163128 150.699369 
L 187.228977 142.578225 
L 187.272073 150.699369 
L 187.36203 150.699369 
L 187.473897 166.941659 
L 187.511467 166.941659 
L 187.621473 158.820514 
L 187.651135 158.820514 
L 187.68873 150.699369 
L 187.726966 166.941659 
L 187.749286 166.941659 
L 188.014896 166.941659 
L 188.107234 175.062804 
L 188.140229 175.062804 
L 188.167832 166.941659 
L 188.22575 175.062804 
L 188.289721 175.062804 
L 188.395277 183.183949 
L 188.88851 183.183949 
L 189.048121 175.062804 
L 189.181832 183.183949 
L 189.8073 183.183949 
L 190.01442 191.305093 
L 190.845543 191.305093 
L 191.056776 183.183949 
L 191.854962 183.183949 
L 191.864674 175.062804 
L 192.312528 175.062804 
L 192.343685 166.941659 
L 192.406877 175.062804 
L 192.530709 183.183949 
L 192.716453 183.183949 
L 192.88454 175.062804 
L 193.0357 175.062804 
L 193.135594 183.183949 
L 193.242089 183.183949 
L 193.341925 175.062804 
L 193.345988 183.183949 
L 193.368132 183.183949 
L 193.51937 175.062804 
L 193.597008 183.183949 
L 193.707828 175.062804 
L 193.794477 175.062804 
L 193.857169 166.941659 
L 194.096266 183.183949 
L 194.10892 175.062804 
L 194.184708 150.699369 
L 194.228154 150.699369 
L 194.337632 158.820514 
L 194.743495 158.820514 
L 194.901458 166.941659 
L 195.019637 166.941659 
L 195.040424 175.062804 
L 195.983929 175.062804 
L 196.107798 183.183949 
L 196.113173 191.305093 
L 199.628133 191.305093 
L 199.659336 183.183949 
L 199.898258 183.183949 
L 200.071114 175.062804 
L 200.547503 175.062804 
L 200.61301 183.183949 
L 200.803358 175.062804 
L 201.190419 175.062804 
L 201.216785 183.183949 
L 201.252147 175.062804 
L 201.372638 183.183949 
L 202.210046 183.183949 
L 202.280711 175.062804 
L 202.470294 175.062804 
L 202.543168 183.183949 
L 202.620284 175.062804 
L 202.67508 183.183949 
L 202.690747 175.062804 
L 202.866516 166.941659 
L 202.954899 158.820514 
L 203.136685 175.062804 
L 203.1975 175.062804 
L 203.287517 166.941659 
L 203.461799 191.305093 
L 203.570002 191.305093 
L 203.591467 175.062804 
L 203.738125 183.183949 
L 204.025761 183.183949 
L 204.12296 175.062804 
L 204.250304 175.062804 
L 204.255422 183.183949 
L 204.311489 166.941659 
L 204.352269 158.820514 
L 204.48989 166.941659 
L 204.592069 158.820514 
L 204.665748 175.062804 
L 205.044177 175.062804 
L 205.129599 166.941659 
L 205.212178 175.062804 
L 205.280449 166.941659 
L 205.313255 175.062804 
L 205.355242 175.062804 
L 205.537018 191.305093 
L 209.756912 191.305093 
L 209.866183 175.062804 
L 209.868661 183.183949 
L 210.055764 175.062804 
L 210.212532 183.183949 
L 210.268898 183.183949 
L 210.464582 191.305093 
L 210.755331 175.062804 
L 211.100186 166.941659 
L 211.24727 166.941659 
L 211.334741 142.578225 
L 211.435308 142.578225 
L 211.550423 158.820514 
L 211.654938 142.578225 
L 211.673874 150.699369 
L 211.74245 150.699369 
L 211.828214 158.820514 
L 211.988197 158.820514 
L 211.993164 150.699369 
L 212.083082 166.941659 
L 212.248884 166.941659 
L 212.337658 175.062804 
L 212.439146 175.062804 
L 212.743831 183.183949 
L 212.808998 183.183949 
L 213.024297 166.941659 
L 213.092897 175.062804 
L 213.171097 166.941659 
L 213.203676 175.062804 
L 213.243385 183.183949 
L 213.255751 166.941659 
L 213.346589 166.941659 
L 213.542326 175.062804 
L 213.549146 183.183949 
L 213.746922 183.183949 
L 213.89081 175.062804 
L 214.027458 183.183949 
L 214.236649 183.183949 
L 214.705281 191.305093 
L 214.766933 183.183949 
L 214.958024 175.062804 
L 215.157168 158.820514 
L 215.25382 166.941659 
L 215.482826 166.941659 
L 215.519913 175.062804 
L 216.162253 175.062804 
L 216.469643 183.183949 
L 216.703573 175.062804 
L 216.778251 166.941659 
L 217.079677 158.820514 
L 217.201738 158.820514 
L 217.286744 150.699369 
L 217.294434 158.820514 
L 217.38214 158.820514 
L 217.58397 175.062804 
L 217.705667 166.941659 
L 217.822236 183.183949 
L 217.929418 166.941659 
L 217.964227 175.062804 
L 218.14676 158.820514 
L 218.240151 166.941659 
L 218.374226 158.820514 
L 218.494005 158.820514 
L 219.052586 183.183949 
L 219.641455 175.062804 
L 219.859546 175.062804 
L 219.981903 183.183949 
L 220.473208 183.183949 
L 221.728982 191.305093 
L 227.100585 191.305093 
L 227.233677 183.183949 
L 227.26729 191.305093 
L 240.03331 191.305093 
L 240.478056 183.183949 
L 240.573035 191.305093 
L 242.678037 191.305093 
L 243.309467 183.183949 
L 244.388405 183.183949 
L 245.164303 191.305093 
L 249.537295 191.305093 
L 249.59008 183.183949 
L 249.721949 191.305093 
L 267.456381 191.305093 
L 267.482412 183.183949 
L 267.594309 191.305093 
L 267.732488 191.305093 
L 267.81943 183.183949 
L 268.180565 183.183949 
L 268.431477 191.305093 
L 280.819548 191.305093 
L 280.98208 175.062804 
L 281.266198 166.941659 
L 281.381735 158.820514 
L 281.383264 166.941659 
L 281.460028 158.820514 
L 281.613011 158.820514 
L 281.620549 166.941659 
L 281.741832 175.062804 
L 282.620599 191.305093 
L 283.867835 191.305093 
L 284.172522 183.183949 
L 284.320027 183.183949 
L 284.404753 191.305093 
L 297.908495 191.305093 
L 298.144939 166.941659 
L 298.364661 191.305093 
L 298.499242 175.062804 
L 298.532332 183.183949 
L 298.61928 183.183949 
L 298.688687 175.062804 
L 298.88456 183.183949 
L 299.107344 166.941659 
L 299.20642 183.183949 
L 299.309523 175.062804 
L 299.565481 175.062804 
L 299.583167 166.941659 
L 299.671666 175.062804 
L 300.184405 175.062804 
L 300.32231 183.183949 
L 300.539252 183.183949 
L 300.695325 191.305093 
L 306.247318 191.305093 
L 306.338155 183.183949 
L 306.492489 183.183949 
L 306.579234 191.305093 
L 312.422447 191.305093 
L 312.422447 191.305093 
" clip-path="url(#pd94919b9cc)" style="fill: none; stroke: #000000; stroke-width: 1.5; stroke-linecap: square"/>
   </g>
   <g id="patch_8">
    <path d="M 44.103906 195.365666 
L 44.103906 106.033073 
" style="fill: none; stroke: #000000; stroke-width: 0.8; stroke-linejoin: miter; stroke-linecap: square"/>
   </g>
   <g id="patch_9">
    <path d="M 325.19952 195.365666 
L 325.19952 106.033073 
" style="fill: none; stroke: #000000; stroke-width: 0.8; stroke-linejoin: miter; stroke-linecap: square"/>
   </g>
   <g id="patch_10">
    <path d="M 44.103906 195.365666 
L 325.19952 195.365666 
" style="fill: none; stroke: #000000; stroke-width: 0.8; stroke-linejoin: miter; stroke-linecap: square"/>
   </g>
   <g id="patch_11">
    <path d="M 44.103906 106.033073 
L 325.19952 106.033073 
" style="fill: none; stroke: #000000; stroke-width: 0.8; stroke-linejoin: miter; stroke-linecap: square"/>
   </g>
  </g>
  <g id="axes_3">
   <g id="patch_12">
    <path d="M 44.103906 294.198739 
L 325.19952 294.198739 
L 325.19952 204.866146 
L 44.103906 204.866146 
z
" style="fill: #ffffff"/>
   </g>
   <g id="matplotlib.axis_5">
    <g id="xtick_19">
     <g id="line2d_27">
      <g>
       <use xlink:href="#m09a940fef6" x="56.88098" y="294.198739" style="stroke: #000000; stroke-width: 0.8"/>
      </g>
     </g>
     <g id="text_9">
      <!-- 0 -->
      <g transform="translate(53.69973 308.796395) scale(0.1 -0.1)">
       <use xlink:href="#DejaVuSans-13"/>
      </g>
     </g>
    </g>
    <g id="xtick_20">
     <g id="line2d_28">
      <g>
       <use xlink:href="#m09a940fef6" x="88.623949" y="294.198739" style="stroke: #000000; stroke-width: 0.8"/>
      </g>
     </g>
     <g id="text_10">
      <!-- 100 -->
      <g transform="translate(79.080199 308.796395) scale(0.1 -0.1)">
       <use xlink:href="#DejaVuSans-14"/>
       <use xlink:href="#DejaVuSans-13" transform="translate(63.625 0)"/>
       <use xlink:href="#DejaVuSans-13" transform="translate(127.25 0)"/>
      </g>
     </g>
    </g>
    <g id="xtick_21">
     <g id="line2d_29">
      <g>
       <use xlink:href="#m09a940fef6" x="120.366917" y="294.198739" style="stroke: #000000; stroke-width: 0.8"/>
      </g>
     </g>
     <g id="text_11">
      <!-- 200 -->
      <g transform="translate(110.823167 308.796395) scale(0.1 -0.1)">
       <defs>
        <path id="DejaVuSans-15" d="M 1228 531 
L 3431 531 
L 3431 0 
L 469 0 
L 469 531 
Q 828 903 1448 1529 
Q 2069 2156 2228 2338 
Q 2531 2678 2651 2914 
Q 2772 3150 2772 3378 
Q 2772 3750 2511 3984 
Q 2250 4219 1831 4219 
Q 1534 4219 1204 4116 
Q 875 4013 500 3803 
L 500 4441 
Q 881 4594 1212 4672 
Q 1544 4750 1819 4750 
Q 2544 4750 2975 4387 
Q 3406 4025 3406 3419 
Q 3406 3131 3298 2873 
Q 3191 2616 2906 2266 
Q 2828 2175 2409 1742 
Q 1991 1309 1228 531 
z
" transform="scale(0.015625)"/>
       </defs>
       <use xlink:href="#DejaVuSans-15"/>
       <use xlink:href="#DejaVuSans-13" transform="translate(63.625 0)"/>
       <use xlink:href="#DejaVuSans-13" transform="translate(127.25 0)"/>
      </g>
     </g>
    </g>
    <g id="xtick_22">
     <g id="line2d_30">
      <g>
       <use xlink:href="#m09a940fef6" x="152.109886" y="294.198739" style="stroke: #000000; stroke-width: 0.8"/>
      </g>
     </g>
     <g id="text_12">
      <!-- 300 -->
      <g transform="translate(142.566136 308.796395) scale(0.1 -0.1)">
       <defs>
        <path id="DejaVuSans-16" d="M 2597 2516 
Q 3050 2419 3304 2112 
Q 3559 1806 3559 1356 
Q 3559 666 3084 287 
Q 2609 -91 1734 -91 
Q 1441 -91 1130 -33 
Q 819 25 488 141 
L 488 750 
Q 750 597 1062 519 
Q 1375 441 1716 441 
Q 2309 441 2620 675 
Q 2931 909 2931 1356 
Q 2931 1769 2642 2001 
Q 2353 2234 1838 2234 
L 1294 2234 
L 1294 2753 
L 1863 2753 
Q 2328 2753 2575 2939 
Q 2822 3125 2822 3475 
Q 2822 3834 2567 4026 
Q 2313 4219 1838 4219 
Q 1578 4219 1281 4162 
Q 984 4106 628 3988 
L 628 4550 
Q 988 4650 1302 4700 
Q 1616 4750 1894 4750 
Q 2613 4750 3031 4423 
Q 3450 4097 3450 3541 
Q 3450 3153 3228 2886 
Q 3006 2619 2597 2516 
z
" transform="scale(0.015625)"/>
       </defs>
       <use xlink:href="#DejaVuSans-16"/>
       <use xlink:href="#DejaVuSans-13" transform="translate(63.625 0)"/>
       <use xlink:href="#DejaVuSans-13" transform="translate(127.25 0)"/>
      </g>
     </g>
    </g>
    <g id="xtick_23">
     <g id="line2d_31">
      <g>
       <use xlink:href="#m09a940fef6" x="183.852855" y="294.198739" style="stroke: #000000; stroke-width: 0.8"/>
      </g>
     </g>
     <g id="text_13">
      <!-- 400 -->
      <g transform="translate(174.309105 308.796395) scale(0.1 -0.1)">
       <defs>
        <path id="DejaVuSans-17" d="M 2419 4116 
L 825 1625 
L 2419 1625 
L 2419 4116 
z
M 2253 4666 
L 3047 4666 
L 3047 1625 
L 3713 1625 
L 3713 1100 
L 3047 1100 
L 3047 0 
L 2419 0 
L 2419 1100 
L 313 1100 
L 313 1709 
L 2253 4666 
z
" transform="scale(0.015625)"/>
       </defs>
       <use xlink:href="#DejaVuSans-17"/>
       <use xlink:href="#DejaVuSans-13" transform="translate(63.625 0)"/>
       <use xlink:href="#DejaVuSans-13" transform="translate(127.25 0)"/>
      </g>
     </g>
    </g>
    <g id="xtick_24">
     <g id="line2d_32">
      <g>
       <use xlink:href="#m09a940fef6" x="215.595824" y="294.198739" style="stroke: #000000; stroke-width: 0.8"/>
      </g>
     </g>
     <g id="text_14">
      <!-- 500 -->
      <g transform="translate(206.052074 308.796395) scale(0.1 -0.1)">
       <use xlink:href="#DejaVuSans-18"/>
       <use xlink:href="#DejaVuSans-13" transform="translate(63.625 0)"/>
       <use xlink:href="#DejaVuSans-13" transform="translate(127.25 0)"/>
      </g>
     </g>
    </g>
    <g id="xtick_25">
     <g id="line2d_33">
      <g>
       <use xlink:href="#m09a940fef6" x="247.338793" y="294.198739" style="stroke: #000000; stroke-width: 0.8"/>
      </g>
     </g>
     <g id="text_15">
      <!-- 600 -->
      <g transform="translate(237.795043 308.796395) scale(0.1 -0.1)">
       <defs>
        <path id="DejaVuSans-19" d="M 2113 2584 
Q 1688 2584 1439 2293 
Q 1191 2003 1191 1497 
Q 1191 994 1439 701 
Q 1688 409 2113 409 
Q 2538 409 2786 701 
Q 3034 994 3034 1497 
Q 3034 2003 2786 2293 
Q 2538 2584 2113 2584 
z
M 3366 4563 
L 3366 3988 
Q 3128 4100 2886 4159 
Q 2644 4219 2406 4219 
Q 1781 4219 1451 3797 
Q 1122 3375 1075 2522 
Q 1259 2794 1537 2939 
Q 1816 3084 2150 3084 
Q 2853 3084 3261 2657 
Q 3669 2231 3669 1497 
Q 3669 778 3244 343 
Q 2819 -91 2113 -91 
Q 1303 -91 875 529 
Q 447 1150 447 2328 
Q 447 3434 972 4092 
Q 1497 4750 2381 4750 
Q 2619 4750 2861 4703 
Q 3103 4656 3366 4563 
z
" transform="scale(0.015625)"/>
       </defs>
       <use xlink:href="#DejaVuSans-19"/>
       <use xlink:href="#DejaVuSans-13" transform="translate(63.625 0)"/>
       <use xlink:href="#DejaVuSans-13" transform="translate(127.25 0)"/>
      </g>
     </g>
    </g>
    <g id="xtick_26">
     <g id="line2d_34">
      <g>
       <use xlink:href="#m09a940fef6" x="279.081762" y="294.198739" style="stroke: #000000; stroke-width: 0.8"/>
      </g>
     </g>
     <g id="text_16">
      <!-- 700 -->
      <g transform="translate(269.538012 308.796395) scale(0.1 -0.1)">
       <defs>
        <path id="DejaVuSans-1a" d="M 525 4666 
L 3525 4666 
L 3525 4397 
L 1831 0 
L 1172 0 
L 2766 4134 
L 525 4134 
L 525 4666 
z
" transform="scale(0.015625)"/>
       </defs>
       <use xlink:href="#DejaVuSans-1a"/>
       <use xlink:href="#DejaVuSans-13" transform="translate(63.625 0)"/>
       <use xlink:href="#DejaVuSans-13" transform="translate(127.25 0)"/>
      </g>
     </g>
    </g>
    <g id="xtick_27">
     <g id="line2d_35">
      <g>
       <use xlink:href="#m09a940fef6" x="310.824731" y="294.198739" style="stroke: #000000; stroke-width: 0.8"/>
      </g>
     </g>
     <g id="text_17">
      <!-- 800 -->
      <g transform="translate(301.280981 308.796395) scale(0.1 -0.1)">
       <defs>
        <path id="DejaVuSans-1b" d="M 2034 2216 
Q 1584 2216 1326 1975 
Q 1069 1734 1069 1313 
Q 1069 891 1326 650 
Q 1584 409 2034 409 
Q 2484 409 2743 651 
Q 3003 894 3003 1313 
Q 3003 1734 2745 1975 
Q 2488 2216 2034 2216 
z
M 1403 2484 
Q 997 2584 770 2862 
Q 544 3141 544 3541 
Q 544 4100 942 4425 
Q 1341 4750 2034 4750 
Q 2731 4750 3128 4425 
Q 3525 4100 3525 3541 
Q 3525 3141 3298 2862 
Q 3072 2584 2669 2484 
Q 3125 2378 3379 2068 
Q 3634 1759 3634 1313 
Q 3634 634 3220 271 
Q 2806 -91 2034 -91 
Q 1263 -91 848 271 
Q 434 634 434 1313 
Q 434 1759 690 2068 
Q 947 2378 1403 2484 
z
M 1172 3481 
Q 1172 3119 1398 2916 
Q 1625 2713 2034 2713 
Q 2441 2713 2670 2916 
Q 2900 3119 2900 3481 
Q 2900 3844 2670 4047 
Q 2441 4250 2034 4250 
Q 1625 4250 1398 4047 
Q 1172 3844 1172 3481 
z
" transform="scale(0.015625)"/>
       </defs>
       <use xlink:href="#DejaVuSans-1b"/>
       <use xlink:href="#DejaVuSans-13" transform="translate(63.625 0)"/>
       <use xlink:href="#DejaVuSans-13" transform="translate(127.25 0)"/>
      </g>
     </g>
    </g>
    <g id="text_18">
     <!-- Time -->
     <g transform="translate(172.415776 322.797176) scale(0.1 -0.1)">
      <defs>
       <path id="DejaVuSans-37" d="M -19 4666 
L 3928 4666 
L 3928 4134 
L 2272 4134 
L 2272 0 
L 1638 0 
L 1638 4134 
L -19 4134 
L -19 4666 
z
" transform="scale(0.015625)"/>
       <path id="DejaVuSans-4c" d="M 603 3500 
L 1178 3500 
L 1178 0 
L 603 0 
L 603 3500 
z
M 603 4863 
L 1178 4863 
L 1178 4134 
L 603 4134 
L 603 4863 
z
" transform="scale(0.015625)"/>
       <path id="DejaVuSans-50" d="M 3328 2828 
Q 3544 3216 3844 3400 
Q 4144 3584 4550 3584 
Q 5097 3584 5394 3201 
Q 5691 2819 5691 2113 
L 5691 0 
L 5113 0 
L 5113 2094 
Q 5113 2597 4934 2840 
Q 4756 3084 4391 3084 
Q 3944 3084 3684 2787 
Q 3425 2491 3425 1978 
L 3425 0 
L 2847 0 
L 2847 2094 
Q 2847 2600 2669 2842 
Q 2491 3084 2119 3084 
Q 1678 3084 1418 2786 
Q 1159 2488 1159 1978 
L 1159 0 
L 581 0 
L 581 3500 
L 1159 3500 
L 1159 2956 
Q 1356 3278 1631 3431 
Q 1906 3584 2284 3584 
Q 2666 3584 2933 3390 
Q 3200 3197 3328 2828 
z
" transform="scale(0.015625)"/>
      </defs>
      <use xlink:href="#DejaVuSans-37"/>
      <use xlink:href="#DejaVuSans-4c" transform="translate(58 0)"/>
      <use xlink:href="#DejaVuSans-50" transform="translate(85.78125 0)"/>
      <use xlink:href="#DejaVuSans-48" transform="translate(183.1875 0)"/>
     </g>
    </g>
   </g>
   <g id="matplotlib.axis_6">
    <g id="ytick_7">
     <g id="line2d_36">
      <g>
       <use xlink:href="#meda9448d61" x="44.103906" y="290.138166" style="stroke: #000000; stroke-width: 0.8"/>
      </g>
     </g>
     <g id="text_19">
      <!-- 0.0 -->
      <g transform="translate(21.200781 293.936994) scale(0.1 -0.1)">
       <defs>
        <path id="DejaVuSans-11" d="M 684 794 
L 1344 794 
L 1344 0 
L 684 0 
L 684 794 
z
" transform="scale(0.015625)"/>
       </defs>
       <use xlink:href="#DejaVuSans-13"/>
       <use xlink:href="#DejaVuSans-11" transform="translate(63.625 0)"/>
       <use xlink:href="#DejaVuSans-13" transform="translate(95.40625 0)"/>
      </g>
     </g>
    </g>
    <g id="ytick_8">
     <g id="line2d_37">
      <g>
       <use xlink:href="#meda9448d61" x="44.103906" y="249.532442" style="stroke: #000000; stroke-width: 0.8"/>
      </g>
     </g>
     <g id="text_20">
      <!-- 0.5 -->
      <g transform="translate(21.200781 253.33127) scale(0.1 -0.1)">
       <use xlink:href="#DejaVuSans-13"/>
       <use xlink:href="#DejaVuSans-11" transform="translate(63.625 0)"/>
       <use xlink:href="#DejaVuSans-18" transform="translate(95.40625 0)"/>
      </g>
     </g>
    </g>
    <g id="ytick_9">
     <g id="line2d_38">
      <g>
       <use xlink:href="#meda9448d61" x="44.103906" y="208.926718" style="stroke: #000000; stroke-width: 0.8"/>
      </g>
     </g>
     <g id="text_21">
      <!-- 1.0 -->
      <g transform="translate(21.200781 212.725546) scale(0.1 -0.1)">
       <use xlink:href="#DejaVuSans-14"/>
       <use xlink:href="#DejaVuSans-11" transform="translate(63.625 0)"/>
       <use xlink:href="#DejaVuSans-13" transform="translate(95.40625 0)"/>
      </g>
     </g>
    </g>
    <g id="text_22">
     <!-- Free lac operon -->
     <g transform="translate(14.798438 288.006661) rotate(-90) scale(0.1 -0.1)">
      <defs>
       <path id="DejaVuSans-29" d="M 628 4666 
L 3309 4666 
L 3309 4134 
L 1259 4134 
L 1259 2759 
L 3109 2759 
L 3109 2228 
L 1259 2228 
L 1259 0 
L 628 0 
L 628 4666 
z
" transform="scale(0.015625)"/>
       <path id="DejaVuSans-53" d="M 1159 525 
L 1159 -1331 
L 581 -1331 
L 581 3500 
L 1159 3500 
L 1159 2969 
Q 1341 3281 1617 3432 
Q 1894 3584 2278 3584 
Q 2916 3584 3314 3078 
Q 3713 2572 3713 1747 
Q 3713 922 3314 415 
Q 2916 -91 2278 -91 
Q 1894 -91 1617 61 
Q 1341 213 1159 525 
z
M 3116 1747 
Q 3116 2381 2855 2742 
Q 2594 3103 2138 3103 
Q 1681 3103 1420 2742 
Q 1159 2381 1159 1747 
Q 1159 1113 1420 752 
Q 1681 391 2138 391 
Q 2594 391 2855 752 
Q 3116 1113 3116 1747 
z
" transform="scale(0.015625)"/>
       <path id="DejaVuSans-51" d="M 3513 2113 
L 3513 0 
L 2938 0 
L 2938 2094 
Q 2938 2591 2744 2837 
Q 2550 3084 2163 3084 
Q 1697 3084 1428 2787 
Q 1159 2491 1159 1978 
L 1159 0 
L 581 0 
L 581 3500 
L 1159 3500 
L 1159 2956 
Q 1366 3272 1645 3428 
Q 1925 3584 2291 3584 
Q 2894 3584 3203 3211 
Q 3513 2838 3513 2113 
z
" transform="scale(0.015625)"/>
      </defs>
      <use xlink:href="#DejaVuSans-29"/>
      <use xlink:href="#DejaVuSans-55" transform="translate(50.234375 0)"/>
      <use xlink:href="#DejaVuSans-48" transform="translate(89.140625 0)"/>
      <use xlink:href="#DejaVuSans-48" transform="translate(150.671875 0)"/>
      <use xlink:href="#DejaVuSans-3" transform="translate(212.203125 0)"/>
      <use xlink:href="#DejaVuSans-4f" transform="translate(243.984375 0)"/>
      <use xlink:href="#DejaVuSans-44" transform="translate(271.765625 0)"/>
      <use xlink:href="#DejaVuSans-46" transform="translate(333.046875 0)"/>
      <use xlink:href="#DejaVuSans-3" transform="translate(388.03125 0)"/>
      <use xlink:href="#DejaVuSans-52" transform="translate(419.8125 0)"/>
      <use xlink:href="#DejaVuSans-53" transform="translate(481 0)"/>
      <use xlink:href="#DejaVuSans-48" transform="translate(544.484375 0)"/>
      <use xlink:href="#DejaVuSans-55" transform="translate(606.015625 0)"/>
      <use xlink:href="#DejaVuSans-52" transform="translate(644.921875 0)"/>
      <use xlink:href="#DejaVuSans-51" transform="translate(706.109375 0)"/>
     </g>
    </g>
   </g>
   <g id="line2d_39">
    <path d="M 56.88098 208.926718 
L 56.962167 290.138166 
L 57.129779 290.138166 
L 57.298678 208.926718 
L 57.41637 208.926718 
L 57.518092 290.138166 
L 58.729486 290.138166 
L 59.715357 208.926718 
L 59.900952 208.926718 
L 59.923605 290.138166 
L 62.335334 290.138166 
L 64.91944 208.926718 
L 65.213153 208.926718 
L 65.350045 290.138166 
L 65.475413 290.138166 
L 72.111099 208.926718 
L 72.280207 290.138166 
L 80.088329 208.926718 
L 80.137169 290.138166 
L 82.75309 208.926718 
L 82.892518 208.926718 
L 82.946463 290.138166 
L 84.679808 290.138166 
L 84.744979 208.926718 
L 85.617749 208.926718 
L 85.806963 290.138166 
L 86.835654 290.138166 
L 89.816229 208.926718 
L 90.354064 208.926718 
L 90.383225 290.138166 
L 90.739694 290.138166 
L 91.617543 208.926718 
L 91.675755 290.138166 
L 92.018214 290.138166 
L 109.0244 208.926718 
L 109.038047 290.138166 
L 109.295471 290.138166 
L 109.570488 208.926718 
L 109.856685 290.138166 
L 109.984239 208.926718 
L 110.390346 208.926718 
L 110.594105 290.138166 
L 110.885567 290.138166 
L 115.030933 208.926718 
L 115.688893 290.138166 
L 117.324304 208.926718 
L 117.638262 290.138166 
L 118.307972 208.926718 
L 118.394944 290.138166 
L 119.400229 208.926718 
L 119.484796 290.138166 
L 123.411703 290.138166 
L 129.406244 208.926718 
L 129.511763 290.138166 
L 131.246999 208.926718 
L 131.69597 208.926718 
L 131.717324 290.138166 
L 133.550183 290.138166 
L 136.13534 208.926718 
L 136.148593 290.138166 
L 139.018014 208.926718 
L 139.060573 290.138166 
L 146.075421 208.926718 
L 147.01593 208.926718 
L 147.083967 290.138166 
L 147.697902 290.138166 
L 147.941945 208.926718 
L 148.255551 208.926718 
L 148.367842 290.138166 
L 149.434123 290.138166 
L 149.943486 208.926718 
L 150.043831 290.138166 
L 151.160393 290.138166 
L 151.171668 208.926718 
L 151.332552 290.138166 
L 155.623627 208.926718 
L 155.712201 290.138166 
L 155.960511 208.926718 
L 194.178789 208.926718 
L 194.267246 290.138166 
L 199.584952 290.138166 
L 199.659336 208.926718 
L 201.24544 208.926718 
L 201.252147 290.138166 
L 201.898465 290.138166 
L 202.280711 208.926718 
L 205.555808 208.926718 
L 205.559158 290.138166 
L 207.337525 290.138166 
L 209.866183 208.926718 
L 219.981903 208.926718 
L 220.130279 290.138166 
L 222.327171 290.138166 
L 223.994103 208.926718 
L 224.048505 290.138166 
L 227.173825 208.926718 
L 227.26729 290.138166 
L 227.892089 290.138166 
L 231.858196 208.926718 
L 232.069636 290.138166 
L 232.387476 208.926718 
L 232.451717 290.138166 
L 240.03331 208.926718 
L 240.56712 208.926718 
L 240.573035 290.138166 
L 241.084458 290.138166 
L 242.678037 208.926718 
L 243.224624 208.926718 
L 243.309467 290.138166 
L 244.325387 290.138166 
L 244.383172 208.926718 
L 244.388405 290.138166 
L 245.164303 290.138166 
L 249.59008 208.926718 
L 249.683071 208.926718 
L 249.721949 290.138166 
L 250.902715 290.138166 
L 267.482412 208.926718 
L 267.587364 208.926718 
L 267.594309 290.138166 
L 267.81943 208.926718 
L 268.180565 290.138166 
L 268.431477 290.138166 
L 274.366629 208.926718 
L 274.387579 290.138166 
L 280.880004 208.926718 
L 281.507558 208.926718 
L 281.620549 290.138166 
L 282.620599 290.138166 
L 283.867835 208.926718 
L 284.078206 208.926718 
L 284.172522 290.138166 
L 284.328525 208.926718 
L 284.404753 290.138166 
L 285.027004 208.926718 
L 285.345435 290.138166 
L 291.417491 208.926718 
L 291.65744 290.138166 
L 296.090604 208.926718 
L 296.111002 290.138166 
L 297.981201 208.926718 
L 299.826073 208.926718 
L 299.93835 290.138166 
L 300.695325 290.138166 
L 302.555669 208.926718 
L 302.592581 290.138166 
L 302.616398 208.926718 
L 302.927333 290.138166 
L 306.338155 208.926718 
L 306.579234 290.138166 
L 306.919113 208.926718 
L 306.942177 290.138166 
L 307.58374 290.138166 
L 309.607964 208.926718 
L 309.747637 290.138166 
L 312.422447 208.926718 
L 312.422447 208.926718 
" clip-path="url(#pf241fc5fa6)" style="fill: none; stroke: #000000; stroke-width: 1.5; stroke-linecap: square"/>
   </g>
   <g id="patch_13">
    <path d="M 44.103906 294.198739 
L 44.103906 204.866146 
" style="fill: none; stroke: #000000; stroke-width: 0.8; stroke-linejoin: miter; stroke-linecap: square"/>
   </g>
   <g id="patch_14">
    <path d="M 325.19952 294.198739 
L 325.19952 204.866146 
" style="fill: none; stroke: #000000; stroke-width: 0.8; stroke-linejoin: miter; stroke-linecap: square"/>
   </g>
   <g id="patch_15">
    <path d="M 44.103906 294.198739 
L 325.19952 294.198739 
" style="fill: none; stroke: #000000; stroke-width: 0.8; stroke-linejoin: miter; stroke-linecap: square"/>
   </g>
   <g id="patch_16">
    <path d="M 44.103906 204.866146 
L 325.19952 204.866146 
" style="fill: none; stroke: #000000; stroke-width: 0.8; stroke-linejoin: miter; stroke-linecap: square"/>
   </g>
  </g>
 </g>
 <defs>
  <clipPath id="pa5726c2729">
   <rect x="44.103906" y="7.2" width="281.095614" height="89.332593"/>
  </clipPath>
  <clipPath id="pd94919b9cc">
   <rect x="44.103906" y="106.033073" width="281.095614" height="89.332593"/>
  </clipPath>
  <clipPath id="pf241fc5fa6">
   <rect x="44.103906" y="204.866146" width="281.095614" height="89.332593"/>
  </clipPath>
 </defs>
</svg>
