<?xml version="1.0" encoding="utf-8" standalone="no"?>
<!DOCTYPE svg PUBLIC "-//W3C//DTD SVG 1.1//EN"
  "http://www.w3.org/Graphics/SVG/1.1/DTD/svg11.dtd">
<svg xmlns:xlink="http://www.w3.org/1999/xlink" width="332.39952pt" height="338.705099pt" viewBox="0 0 332.39952 338.705099" xmlns="http://www.w3.org/2000/svg" version="1.1">
 <metadata>
  <rdf:RDF xmlns:dc="http://purl.org/dc/elements/1.1/" xmlns:cc="http://creativecommons.org/ns#" xmlns:rdf="http://www.w3.org/1999/02/22-rdf-syntax-ns#">
   <cc:Work>
    <dc:type rdf:resource="http://purl.org/dc/dcmitype/StillImage"/>
    <dc:date>2026-07-22T14:37:47.113051</dc:date>
    <dc:format>image/svg+xml</dc:format>
    <dc:creator>
     <cc:Agent>
      <dc:title>Matplotlib v3.11.1, https://matplotlib.org/</dc:title>
     </cc:Agent>
    </dc:creator>
   </cc:Work>
  </rdf:RDF>
 </metadata>
 <defs>
  <style type="text/css">*{stroke-linejoin: round; stroke-linecap: butt}</style>
 </defs>
 <g id="figure_1">
  <g id="patch_1">
   <path d="M 0 338.705099 
L 332.39952 338.705099 
L 332.39952 0 
L 0 0 
z
" style="fill: #ffffff"/>
  </g>
  <g id="axes_1">
   <g id="patch_2">
    <path d="M 44.103906 102.838171 
L 325.19952 102.838171 
L 325.19952 13.505579 
L 44.103906 13.505579 
z
" style="fill: #ffffff"/>
   </g>
   <g id="matplotlib.axis_1">
    <g id="xtick_1">
     <g id="line2d_1">
      <defs>
       <path id="m31300d2548" d="M 0 0 
L 0 3.5 
" style="stroke: #000000; stroke-width: 0.8"/>
      </defs>
      <g>
       <use xlink:href="#m31300d2548" x="56.88098" y="102.838171" style="stroke: #000000; stroke-width: 0.8"/>
      </g>
     </g>
    </g>
    <g id="xtick_2">
     <g id="line2d_2">
      <g>
       <use xlink:href="#m31300d2548" x="88.786065" y="102.838171" style="stroke: #000000; stroke-width: 0.8"/>
      </g>
     </g>
    </g>
    <g id="xtick_3">
     <g id="line2d_3">
      <g>
       <use xlink:href="#m31300d2548" x="120.691151" y="102.838171" style="stroke: #000000; stroke-width: 0.8"/>
      </g>
     </g>
    </g>
    <g id="xtick_4">
     <g id="line2d_4">
      <g>
       <use xlink:href="#m31300d2548" x="152.596237" y="102.838171" style="stroke: #000000; stroke-width: 0.8"/>
      </g>
     </g>
    </g>
    <g id="xtick_5">
     <g id="line2d_5">
      <g>
       <use xlink:href="#m31300d2548" x="184.501322" y="102.838171" style="stroke: #000000; stroke-width: 0.8"/>
      </g>
     </g>
    </g>
    <g id="xtick_6">
     <g id="line2d_6">
      <g>
       <use xlink:href="#m31300d2548" x="216.406408" y="102.838171" style="stroke: #000000; stroke-width: 0.8"/>
      </g>
     </g>
    </g>
    <g id="xtick_7">
     <g id="line2d_7">
      <g>
       <use xlink:href="#m31300d2548" x="248.311494" y="102.838171" style="stroke: #000000; stroke-width: 0.8"/>
      </g>
     </g>
    </g>
    <g id="xtick_8">
     <g id="line2d_8">
      <g>
       <use xlink:href="#m31300d2548" x="280.216579" y="102.838171" style="stroke: #000000; stroke-width: 0.8"/>
      </g>
     </g>
    </g>
    <g id="xtick_9">
     <g id="line2d_9">
      <g>
       <use xlink:href="#m31300d2548" x="312.121665" y="102.838171" style="stroke: #000000; stroke-width: 0.8"/>
      </g>
     </g>
    </g>
   </g>
   <g id="matplotlib.axis_2">
    <g id="ytick_1">
     <g id="line2d_10">
      <defs>
       <path id="m14b289f8b4" d="M 0 0 
L -3.5 0 
" style="stroke: #000000; stroke-width: 0.8"/>
      </defs>
      <g>
       <use xlink:href="#m14b289f8b4" x="44.103906" y="98.777599" style="stroke: #000000; stroke-width: 0.8"/>
      </g>
     </g>
     <g id="text_1">
      <!-- 0 -->
      <g transform="translate(30.741406 102.576427) scale(0.1 -0.1)">
       <defs>
        <path id="DejaVuSans-13" d="M 2034 4250 
Q 1547 4250 1301 3770 
Q 1056 3291 1056 2328 
Q 1056 1369 1301 889 
Q 1547 409 2034 409 
Q 2525 409 2770 889 
Q 3016 1369 3016 2328 
Q 3016 3291 2770 3770 
Q 2525 4250 2034 4250 
z
M 2034 4750 
Q 2819 4750 3233 4129 
Q 3647 3509 3647 2328 
Q 3647 1150 3233 529 
Q 2819 -91 2034 -91 
Q 1250 -91 836 529 
Q 422 1150 422 2328 
Q 422 3509 836 4129 
Q 1250 4750 2034 4750 
z
" transform="scale(0.015625)"/>
       </defs>
       <use xlink:href="#DejaVuSans-13"/>
      </g>
     </g>
    </g>
    <g id="ytick_2">
     <g id="line2d_11">
      <g>
       <use xlink:href="#m14b289f8b4" x="44.103906" y="58.171875" style="stroke: #000000; stroke-width: 0.8"/>
      </g>
     </g>
     <g id="text_2">
      <!-- 5 -->
      <g transform="translate(30.741406 61.970703) scale(0.1 -0.1)">
       <defs>
        <path id="DejaVuSans-18" d="M 691 4666 
L 3169 4666 
L 3169 4134 
L 1269 4134 
L 1269 2991 
Q 1406 3038 1543 3061 
Q 1681 3084 1819 3084 
Q 2600 3084 3056 2656 
Q 3513 2228 3513 1497 
Q 3513 744 3044 326 
Q 2575 -91 1722 -91 
Q 1428 -91 1123 -41 
Q 819 9 494 109 
L 494 744 
Q 775 591 1075 516 
Q 1375 441 1709 441 
Q 2250 441 2565 725 
Q 2881 1009 2881 1497 
Q 2881 1984 2565 2268 
Q 2250 2553 1709 2553 
Q 1456 2553 1204 2497 
Q 953 2441 691 2322 
L 691 4666 
z
" transform="scale(0.015625)"/>
       </defs>
       <use xlink:href="#DejaVuSans-18"/>
      </g>
     </g>
    </g>
    <g id="ytick_3">
     <g id="line2d_12">
      <g>
       <use xlink:href="#m14b289f8b4" x="44.103906" y="17.566151" style="stroke: #000000; stroke-width: 0.8"/>
      </g>
     </g>
     <g id="text_3">
      <!-- 10 -->
      <g transform="translate(24.378906 21.364979) scale(0.1 -0.1)">
       <defs>
        <path id="DejaVuSans-14" d="M 794 531 
L 1825 531 
L 1825 4091 
L 703 3866 
L 703 4441 
L 1819 4666 
L 2450 4666 
L 2450 531 
L 3481 531 
L 3481 0 
L 794 0 
L 794 531 
z
" transform="scale(0.015625)"/>
       </defs>
       <use xlink:href="#DejaVuSans-14"/>
       <use xlink:href="#DejaVuSans-13" transform="translate(63.625 0)"/>
      </g>
     </g>
    </g>
    <g id="text_4">
     <!-- Extracellular lactose -->
     <g transform="translate(17.976563 109.14375) rotate(-90) scale(0.1 -0.1)">
      <defs>
       <path id="DejaVuSans-28" d="M 628 4666 
L 3578 4666 
L 3578 4134 
L 1259 4134 
L 1259 2753 
L 3481 2753 
L 3481 2222 
L 1259 2222 
L 1259 531 
L 3634 531 
L 3634 0 
L 628 0 
L 628 4666 
z
" transform="scale(0.015625)"/>
       <path id="DejaVuSans-5b" d="M 3513 3500 
L 2247 1797 
L 3578 0 
L 2900 0 
L 1881 1375 
L 863 0 
L 184 0 
L 1544 1831 
L 300 3500 
L 978 3500 
L 1906 2253 
L 2834 3500 
L 3513 3500 
z
" transform="scale(0.015625)"/>
       <path id="DejaVuSans-57" d="M 1172 4494 
L 1172 3500 
L 2356 3500 
L 2356 3053 
L 1172 3053 
L 1172 1153 
Q 1172 725 1289 603 
Q 1406 481 1766 481 
L 2356 481 
L 2356 0 
L 1766 0 
Q 1100 0 847 248 
Q 594 497 594 1153 
L 594 3053 
L 172 3053 
L 172 3500 
L 594 3500 
L 594 4494 
L 1172 4494 
z
" transform="scale(0.015625)"/>
       <path id="DejaVuSans-55" d="M 2631 2963 
Q 2534 3019 2420 3045 
Q 2306 3072 2169 3072 
Q 1681 3072 1420 2755 
Q 1159 2438 1159 1844 
L 1159 0 
L 581 0 
L 581 3500 
L 1159 3500 
L 1159 2956 
Q 1341 3275 1631 3429 
Q 1922 3584 2338 3584 
Q 2397 3584 2469 3576 
Q 2541 3569 2628 3553 
L 2631 2963 
z
" transform="scale(0.015625)"/>
       <path id="DejaVuSans-44" d="M 2194 1759 
Q 1497 1759 1228 1600 
Q 959 1441 959 1056 
Q 959 750 1161 570 
Q 1363 391 1709 391 
Q 2188 391 2477 730 
Q 2766 1069 2766 1631 
L 2766 1759 
L 2194 1759 
z
M 3341 1997 
L 3341 0 
L 2766 0 
L 2766 531 
Q 2569 213 2275 61 
Q 1981 -91 1556 -91 
Q 1019 -91 701 211 
Q 384 513 384 1019 
Q 384 1609 779 1909 
Q 1175 2209 1959 2209 
L 2766 2209 
L 2766 2266 
Q 2766 2663 2505 2880 
Q 2244 3097 1772 3097 
Q 1472 3097 1187 3025 
Q 903 2953 641 2809 
L 641 3341 
Q 956 3463 1253 3523 
Q 1550 3584 1831 3584 
Q 2591 3584 2966 3190 
Q 3341 2797 3341 1997 
z
" transform="scale(0.015625)"/>
       <path id="DejaVuSans-46" d="M 3122 3366 
L 3122 2828 
Q 2878 2963 2633 3030 
Q 2388 3097 2138 3097 
Q 1578 3097 1268 2742 
Q 959 2388 959 1747 
Q 959 1106 1268 751 
Q 1578 397 2138 397 
Q 2388 397 2633 464 
Q 2878 531 3122 666 
L 3122 134 
Q 2881 22 2623 -34 
Q 2366 -91 2075 -91 
Q 1284 -91 818 406 
Q 353 903 353 1747 
Q 353 2603 823 3093 
Q 1294 3584 2113 3584 
Q 2378 3584 2631 3529 
Q 2884 3475 3122 3366 
z
" transform="scale(0.015625)"/>
       <path id="DejaVuSans-48" d="M 3597 1894 
L 3597 1613 
L 953 1613 
Q 991 1019 1311 708 
Q 1631 397 2203 397 
Q 2534 397 2845 478 
Q 3156 559 3463 722 
L 3463 178 
Q 3153 47 2828 -22 
Q 2503 -91 2169 -91 
Q 1331 -91 842 396 
Q 353 884 353 1716 
Q 353 2575 817 3079 
Q 1281 3584 2069 3584 
Q 2775 3584 3186 3129 
Q 3597 2675 3597 1894 
z
M 3022 2063 
Q 3016 2534 2758 2815 
Q 2500 3097 2075 3097 
Q 1594 3097 1305 2825 
Q 1016 2553 972 2059 
L 3022 2063 
z
" transform="scale(0.015625)"/>
       <path id="DejaVuSans-4f" d="M 603 4863 
L 1178 4863 
L 1178 0 
L 603 0 
L 603 4863 
z
" transform="scale(0.015625)"/>
       <path id="DejaVuSans-58" d="M 544 1381 
L 544 3500 
L 1119 3500 
L 1119 1403 
Q 1119 906 1312 657 
Q 1506 409 1894 409 
Q 2359 409 2629 706 
Q 2900 1003 2900 1516 
L 2900 3500 
L 3475 3500 
L 3475 0 
L 2900 0 
L 2900 538 
Q 2691 219 2414 64 
Q 2138 -91 1772 -91 
Q 1169 -91 856 284 
Q 544 659 544 1381 
z
M 1991 3584 
L 1991 3584 
z
" transform="scale(0.015625)"/>
       <path id="DejaVuSans-3" transform="scale(0.015625)"/>
       <path id="DejaVuSans-52" d="M 1959 3097 
Q 1497 3097 1228 2736 
Q 959 2375 959 1747 
Q 959 1119 1226 758 
Q 1494 397 1959 397 
Q 2419 397 2687 759 
Q 2956 1122 2956 1747 
Q 2956 2369 2687 2733 
Q 2419 3097 1959 3097 
z
M 1959 3584 
Q 2709 3584 3137 3096 
Q 3566 2609 3566 1747 
Q 3566 888 3137 398 
Q 2709 -91 1959 -91 
Q 1206 -91 779 398 
Q 353 888 353 1747 
Q 353 2609 779 3096 
Q 1206 3584 1959 3584 
z
" transform="scale(0.015625)"/>
       <path id="DejaVuSans-56" d="M 2834 3397 
L 2834 2853 
Q 2591 2978 2328 3040 
Q 2066 3103 1784 3103 
Q 1356 3103 1142 2972 
Q 928 2841 928 2578 
Q 928 2378 1081 2264 
Q 1234 2150 1697 2047 
L 1894 2003 
Q 2506 1872 2764 1633 
Q 3022 1394 3022 966 
Q 3022 478 2636 193 
Q 2250 -91 1575 -91 
Q 1294 -91 989 -36 
Q 684 19 347 128 
L 347 722 
Q 666 556 975 473 
Q 1284 391 1588 391 
Q 1994 391 2212 530 
Q 2431 669 2431 922 
Q 2431 1156 2273 1281 
Q 2116 1406 1581 1522 
L 1381 1569 
Q 847 1681 609 1914 
Q 372 2147 372 2553 
Q 372 3047 722 3315 
Q 1072 3584 1716 3584 
Q 2034 3584 2315 3537 
Q 2597 3491 2834 3397 
z
" transform="scale(0.015625)"/>
      </defs>
      <use xlink:href="#DejaVuSans-28"/>
      <use xlink:href="#DejaVuSans-5b" transform="translate(63.1875 0)"/>
      <use xlink:href="#DejaVuSans-57" transform="translate(122.375 0)"/>
      <use xlink:href="#DejaVuSans-55" transform="translate(161.578125 0)"/>
      <use xlink:href="#DejaVuSans-44" transform="translate(202.6875 0)"/>
      <use xlink:href="#DejaVuSans-46" transform="translate(263.96875 0)"/>
      <use xlink:href="#DejaVuSans-48" transform="translate(318.953125 0)"/>
      <use xlink:href="#DejaVuSans-4f" transform="translate(380.484375 0)"/>
      <use xlink:href="#DejaVuSans-4f" transform="translate(408.265625 0)"/>
      <use xlink:href="#DejaVuSans-58" transform="translate(436.046875 0)"/>
      <use xlink:href="#DejaVuSans-4f" transform="translate(499.421875 0)"/>
      <use xlink:href="#DejaVuSans-44" transform="translate(527.203125 0)"/>
      <use xlink:href="#DejaVuSans-55" transform="translate(588.484375 0)"/>
      <use xlink:href="#DejaVuSans-3" transform="translate(629.59375 0)"/>
      <use xlink:href="#DejaVuSans-4f" transform="translate(661.375 0)"/>
      <use xlink:href="#DejaVuSans-44" transform="translate(689.15625 0)"/>
      <use xlink:href="#DejaVuSans-46" transform="translate(750.4375 0)"/>
      <use xlink:href="#DejaVuSans-57" transform="translate(805.421875 0)"/>
      <use xlink:href="#DejaVuSans-52" transform="translate(844.625 0)"/>
      <use xlink:href="#DejaVuSans-56" transform="translate(905.8125 0)"/>
      <use xlink:href="#DejaVuSans-48" transform="translate(957.90625 0)"/>
     </g>
    </g>
   </g>
   <g id="line2d_13">
    <path d="M 56.88098 98.777599 
L 156.127923 98.777599 
L 156.216949 17.566151 
L 156.884402 17.647362 
L 157.001995 17.972208 
L 157.046774 18.05342 
L 157.19285 19.515226 
L 157.311097 21.139455 
L 157.324914 21.220666 
L 157.466927 22.926107 
L 157.709661 25.200027 
L 157.719541 25.281239 
L 157.834534 26.174564 
L 157.855634 26.255776 
L 158.004251 26.824256 
L 158.015968 26.905467 
L 158.147836 27.311525 
L 158.274021 27.392736 
L 158.85334 30.39756 
L 159.319462 32.265423 
L 159.430844 32.833903 
L 159.702507 34.458132 
L 159.822882 35.351458 
L 160.328041 38.84355 
L 160.342979 38.924762 
L 160.45457 39.574453 
L 160.511612 40.061722 
L 160.636718 40.711414 
L 160.658225 40.792625 
L 160.76608 41.036259 
L 160.791103 41.117471 
L 161.225802 42.660488 
L 161.650998 42.7417 
L 161.853241 43.31018 
L 161.86973 43.391391 
L 162.104963 44.609563 
L 162.221674 45.01562 
L 162.250454 45.096832 
L 162.331294 45.259255 
L 162.43183 45.340466 
L 163.309203 48.101655 
L 163.364478 48.182867 
L 163.495439 48.264078 
L 163.523028 48.34529 
L 163.732133 48.994981 
L 163.815081 49.076193 
L 163.932351 49.563462 
L 164.247484 49.644673 
L 164.499631 50.537999 
L 164.579643 50.61921 
L 164.69394 51.18769 
L 164.732092 51.268902 
L 164.950498 52.568285 
L 165.080461 53.217977 
L 165.202215 53.299188 
L 165.529612 54.598571 
L 165.875953 55.735532 
L 166.079113 57.116126 
L 166.125085 57.197338 
L 166.27993 57.603395 
L 166.305324 57.684606 
L 166.418928 58.090664 
L 166.577252 58.659144 
L 166.617582 58.740355 
L 167.206274 60.283373 
L 167.321943 60.933064 
L 167.373799 61.014276 
L 167.493545 61.420333 
L 167.522016 61.501544 
L 167.640341 61.82639 
L 167.679271 61.907602 
L 167.785968 62.070025 
L 167.868753 62.313659 
L 168.952263 68.160883 
L 168.993199 68.242095 
L 169.13951 68.648152 
L 169.248781 68.729363 
L 169.361589 69.13542 
L 169.63136 69.216632 
L 169.784889 69.297843 
L 170.139419 69.379055 
L 170.249108 69.460266 
L 170.487296 69.622689 
L 170.561441 69.703901 
L 172.301494 75.388702 
L 172.393487 75.469913 
L 172.449945 75.957182 
L 172.54941 76.038394 
L 172.706182 76.769297 
L 172.772878 76.850508 
L 172.888469 77.5002 
L 172.896335 77.581411 
L 173.258103 78.880794 
L 173.31611 78.962006 
L 173.428576 79.368063 
L 173.519279 79.449274 
L 173.632609 79.77412 
L 173.661771 79.855332 
L 173.830405 80.3426 
L 174.388314 80.423812 
L 174.523042 80.748658 
L 174.831414 80.829869 
L 174.980625 81.398349 
L 175.060122 81.479561 
L 175.213328 81.723195 
L 175.259583 81.804406 
L 175.401786 82.129252 
L 175.510894 82.210464 
L 175.621011 82.291675 
L 175.811779 82.372887 
L 176.053022 82.616521 
L 176.771302 82.697732 
L 177.029006 83.10379 
L 177.365153 83.185001 
L 177.457826 83.347424 
L 177.568332 83.428635 
L 177.713151 83.509847 
L 177.958262 83.915904 
L 178.231237 83.997115 
L 178.544875 84.321961 
L 178.693452 84.403173 
L 179.234941 84.890441 
L 179.919835 85.458922 
L 180.042271 86.027402 
L 180.508686 86.108613 
L 180.654417 86.189825 
L 181.841609 86.271036 
L 181.909348 86.352247 
L 182.291204 86.433459 
L 182.378563 86.51467 
L 182.533727 86.595882 
L 182.637343 86.677093 
L 182.980041 86.758305 
L 183.565772 87.001939 
L 183.740003 87.164362 
L 184.032007 87.570419 
L 184.175351 87.651631 
L 184.268004 88.057688 
L 184.55002 88.463745 
L 184.744335 88.544957 
L 184.959079 89.032225 
L 185.138893 89.113437 
L 185.245375 89.27586 
L 186.058718 89.357071 
L 186.429364 89.681917 
L 187.111068 90.656454 
L 187.224446 90.737666 
L 187.416597 90.9813 
L 187.52841 91.062511 
L 187.649607 91.224934 
L 187.942845 91.387357 
L 188.052183 91.468569 
L 188.19703 91.54978 
L 188.356322 91.630992 
L 188.837287 91.712203 
L 189.350844 91.874626 
L 190.295273 91.955837 
L 191.02462 92.199472 
L 192.33789 92.280683 
L 192.485224 92.361895 
L 192.767689 92.443106 
L 192.960842 92.524318 
L 193.723583 92.605529 
L 193.795159 92.68674 
L 194.133156 92.767952 
L 194.256036 93.011586 
L 194.469575 93.092798 
L 194.644988 93.174009 
L 195.056195 93.255221 
L 195.212328 93.417643 
L 195.439933 93.498855 
L 195.550055 93.580066 
L 196.225405 93.904912 
L 196.299895 93.986124 
L 196.764156 94.067335 
L 197.064148 94.148547 
L 197.60996 94.229758 
L 197.727797 94.392181 
L 198.441693 94.473392 
L 198.505987 94.554604 
L 198.681358 94.635815 
L 198.808788 94.798238 
L 199.07471 94.87945 
L 199.180915 95.041872 
L 199.524133 95.123084 
L 199.666753 95.204295 
L 199.94283 95.285507 
L 200.092956 95.366718 
L 200.624546 95.44793 
L 200.638881 95.529141 
L 200.971343 95.610353 
L 201.136414 95.691564 
L 202.638636 95.772775 
L 202.878813 95.935198 
L 221.983477 96.01641 
L 222.797994 96.097621 
L 226.699244 96.178833 
L 226.800187 96.260044 
L 233.903083 96.341256 
L 233.998577 96.422467 
L 258.278473 96.503679 
L 259.162097 96.666101 
L 259.169845 96.747313 
L 303.887962 96.828524 
L 304.033535 96.909736 
L 304.438689 96.990947 
L 304.570782 97.072159 
L 312.422447 97.072159 
L 312.422447 97.072159 
" clip-path="url(#p7060a37fe3)" style="fill: none; stroke: #000000; stroke-width: 1.5; stroke-linecap: square"/>
   </g>
   <g id="patch_3">
    <path d="M 44.103906 102.838171 
L 44.103906 13.505579 
" style="fill: none; stroke: #000000; stroke-width: 0.8; stroke-linejoin: miter; stroke-linecap: square"/>
   </g>
   <g id="patch_4">
    <path d="M 325.19952 102.838171 
L 325.19952 13.505579 
" style="fill: none; stroke: #000000; stroke-width: 0.8; stroke-linejoin: miter; stroke-linecap: square"/>
   </g>
   <g id="patch_5">
    <path d="M 44.103906 102.838171 
L 325.19952 102.838171 
" style="fill: none; stroke: #000000; stroke-width: 0.8; stroke-linejoin: miter; stroke-linecap: square"/>
   </g>
   <g id="patch_6">
    <path d="M 44.103906 13.505579 
L 325.19952 13.505579 
" style="fill: none; stroke: #000000; stroke-width: 0.8; stroke-linejoin: miter; stroke-linecap: square"/>
   </g>
  </g>
  <g id="axes_2">
   <g id="patch_7">
    <path d="M 44.103906 201.671244 
L 325.19952 201.671244 
L 325.19952 112.338651 
L 44.103906 112.338651 
z
" style="fill: #ffffff"/>
   </g>
   <g id="matplotlib.axis_3">
    <g id="xtick_10">
     <g id="line2d_14">
      <g>
       <use xlink:href="#m31300d2548" x="56.88098" y="201.671244" style="stroke: #000000; stroke-width: 0.8"/>
      </g>
     </g>
    </g>
    <g id="xtick_11">
     <g id="line2d_15">
      <g>
       <use xlink:href="#m31300d2548" x="88.786065" y="201.671244" style="stroke: #000000; stroke-width: 0.8"/>
      </g>
     </g>
    </g>
    <g id="xtick_12">
     <g id="line2d_16">
      <g>
       <use xlink:href="#m31300d2548" x="120.691151" y="201.671244" style="stroke: #000000; stroke-width: 0.8"/>
      </g>
     </g>
    </g>
    <g id="xtick_13">
     <g id="line2d_17">
      <g>
       <use xlink:href="#m31300d2548" x="152.596237" y="201.671244" style="stroke: #000000; stroke-width: 0.8"/>
      </g>
     </g>
    </g>
    <g id="xtick_14">
     <g id="line2d_18">
      <g>
       <use xlink:href="#m31300d2548" x="184.501322" y="201.671244" style="stroke: #000000; stroke-width: 0.8"/>
      </g>
     </g>
    </g>
    <g id="xtick_15">
     <g id="line2d_19">
      <g>
       <use xlink:href="#m31300d2548" x="216.406408" y="201.671244" style="stroke: #000000; stroke-width: 0.8"/>
      </g>
     </g>
    </g>
    <g id="xtick_16">
     <g id="line2d_20">
      <g>
       <use xlink:href="#m31300d2548" x="248.311494" y="201.671244" style="stroke: #000000; stroke-width: 0.8"/>
      </g>
     </g>
    </g>
    <g id="xtick_17">
     <g id="line2d_21">
      <g>
       <use xlink:href="#m31300d2548" x="280.216579" y="201.671244" style="stroke: #000000; stroke-width: 0.8"/>
      </g>
     </g>
    </g>
    <g id="xtick_18">
     <g id="line2d_22">
      <g>
       <use xlink:href="#m31300d2548" x="312.121665" y="201.671244" style="stroke: #000000; stroke-width: 0.8"/>
      </g>
     </g>
    </g>
   </g>
   <g id="matplotlib.axis_4">
    <g id="ytick_4">
     <g id="line2d_23">
      <g>
       <use xlink:href="#m14b289f8b4" x="44.103906" y="197.610672" style="stroke: #000000; stroke-width: 0.8"/>
      </g>
     </g>
     <g id="text_5">
      <!-- 0 -->
      <g transform="translate(30.741406 201.4095) scale(0.1 -0.1)">
       <use xlink:href="#DejaVuSans-13"/>
      </g>
     </g>
    </g>
    <g id="ytick_5">
     <g id="line2d_24">
      <g>
       <use xlink:href="#m14b289f8b4" x="44.103906" y="157.004948" style="stroke: #000000; stroke-width: 0.8"/>
      </g>
     </g>
     <g id="text_6">
      <!-- 5 -->
      <g transform="translate(30.741406 160.803776) scale(0.1 -0.1)">
       <use xlink:href="#DejaVuSans-18"/>
      </g>
     </g>
    </g>
    <g id="ytick_6">
     <g id="line2d_25">
      <g>
       <use xlink:href="#m14b289f8b4" x="44.103906" y="116.399224" style="stroke: #000000; stroke-width: 0.8"/>
      </g>
     </g>
     <g id="text_7">
      <!-- 10 -->
      <g transform="translate(24.378906 120.198052) scale(0.1 -0.1)">
       <use xlink:href="#DejaVuSans-14"/>
       <use xlink:href="#DejaVuSans-13" transform="translate(63.625 0)"/>
      </g>
     </g>
    </g>
    <g id="text_8">
     <!-- LacY -->
     <g transform="translate(17.976563 168.658073) rotate(-90) scale(0.1 -0.1)">
      <defs>
       <path id="DejaVuSans-2f" d="M 628 4666 
L 1259 4666 
L 1259 531 
L 3531 531 
L 3531 0 
L 628 0 
L 628 4666 
z
" transform="scale(0.015625)"/>
       <path id="DejaVuSans-3c" d="M -13 4666 
L 666 4666 
L 1959 2747 
L 3244 4666 
L 3922 4666 
L 2272 2222 
L 2272 0 
L 1638 0 
L 1638 2222 
L -13 4666 
z
" transform="scale(0.015625)"/>
      </defs>
      <use xlink:href="#DejaVuSans-2f"/>
      <use xlink:href="#DejaVuSans-44" transform="translate(55.71875 0)"/>
      <use xlink:href="#DejaVuSans-46" transform="translate(117 0)"/>
      <use xlink:href="#DejaVuSans-3c" transform="translate(171.984375 0)"/>
     </g>
    </g>
   </g>
   <g id="line2d_26">
    <path d="M 56.88098 116.399224 
L 56.908101 116.399224 
L 56.962582 124.520369 
L 57.070721 140.762658 
L 57.131049 148.883803 
L 57.283119 148.883803 
L 57.300811 140.762658 
L 57.521346 148.883803 
L 57.663177 148.883803 
L 57.833786 165.126093 
L 58.134613 181.368382 
L 58.200217 197.610672 
L 59.729833 197.610672 
L 59.896413 189.489527 
L 59.939145 197.610672 
L 64.960494 197.610672 
L 65.283371 189.489527 
L 65.393298 197.610672 
L 82.885223 197.610672 
L 83.079584 189.489527 
L 84.872463 197.610672 
L 84.887285 189.489527 
L 85.030456 181.368382 
L 85.03511 173.247238 
L 85.357193 181.368382 
L 85.584102 181.368382 
L 85.703707 197.610672 
L 85.764513 189.489527 
L 85.954693 189.489527 
L 86.093145 197.610672 
L 89.984435 197.610672 
L 90.37414 181.368382 
L 90.375441 173.247238 
L 90.873957 173.247238 
L 90.912616 189.489527 
L 91.684574 189.489527 
L 91.853458 181.368382 
L 92.197666 197.610672 
L 109.19875 197.610672 
L 109.304422 189.489527 
L 109.424101 189.489527 
L 109.563161 197.610672 
L 109.798107 197.610672 
L 109.839582 189.489527 
L 110.255446 189.489527 
L 110.605293 181.368382 
L 110.663628 189.489527 
L 110.838855 189.489527 
L 110.868427 197.610672 
L 119.626136 197.610672 
L 119.804524 189.489527 
L 121.90437 189.489527 
L 123.751487 197.610672 
L 131.518031 197.610672 
L 131.704262 189.489527 
L 131.99177 189.489527 
L 132.099526 197.610672 
L 136.434529 197.610672 
L 136.518244 189.489527 
L 136.540106 197.610672 
L 146.530952 197.610672 
L 146.79175 181.368382 
L 146.812578 189.489527 
L 146.84158 181.368382 
L 146.954671 173.247238 
L 146.960011 181.368382 
L 147.544649 181.368382 
L 148.16172 189.489527 
L 148.407009 189.489527 
L 148.722217 181.368382 
L 148.835081 181.368382 
L 149.906807 197.610672 
L 150.3669 197.610672 
L 150.418772 181.368382 
L 150.51963 181.368382 
L 150.672435 189.489527 
L 150.806132 189.489527 
L 151.348946 197.610672 
L 156.466527 197.610672 
L 156.894738 189.489527 
L 157.134991 157.004948 
L 157.413307 157.004948 
L 157.529756 173.247238 
L 157.562648 173.247238 
L 157.675311 165.126093 
L 157.803059 165.126093 
L 157.915587 181.368382 
L 158.138768 181.368382 
L 158.253287 189.489527 
L 158.385959 173.247238 
L 158.436725 173.247238 
L 158.47466 165.126093 
L 158.535936 173.247238 
L 158.710737 173.247238 
L 158.815568 181.368382 
L 159.05387 181.368382 
L 159.158793 197.610672 
L 159.202907 197.610672 
L 159.345225 181.368382 
L 159.50679 181.368382 
L 159.616623 173.247238 
L 159.632856 173.247238 
L 159.762588 165.126093 
L 159.881344 165.126093 
L 159.989681 157.004948 
L 160.125025 157.004948 
L 160.233308 165.126093 
L 160.338009 157.004948 
L 160.343959 165.126093 
L 160.422544 165.126093 
L 160.530773 173.247238 
L 160.747142 173.247238 
L 160.850381 181.368382 
L 161.200556 181.368382 
L 161.348887 197.610672 
L 161.542806 197.610672 
L 161.666949 189.489527 
L 161.792918 189.489527 
L 161.935976 173.247238 
L 162.128232 173.247238 
L 162.231913 189.489527 
L 162.331294 189.489527 
L 162.482313 173.247238 
L 162.513692 181.368382 
L 162.543481 181.368382 
L 162.624307 173.247238 
L 162.743582 173.247238 
L 162.844346 181.368382 
L 163.007235 181.368382 
L 163.019833 173.247238 
L 163.113176 181.368382 
L 163.150611 181.368382 
L 163.241049 189.489527 
L 163.383904 181.368382 
L 163.656807 181.368382 
L 163.679638 173.247238 
L 163.684439 189.489527 
L 163.732133 189.489527 
L 164.261375 189.489527 
L 164.369694 181.368382 
L 164.584542 181.368382 
L 164.69394 173.247238 
L 164.847583 173.247238 
L 164.941016 165.126093 
L 164.954376 173.247238 
L 165.039357 173.247238 
L 165.118151 181.368382 
L 165.126361 173.247238 
L 165.190507 173.247238 
L 165.243478 181.368382 
L 165.29932 173.247238 
L 165.328284 173.247238 
L 165.439537 181.368382 
L 165.766285 181.368382 
L 165.886317 173.247238 
L 165.987006 173.247238 
L 166.03564 181.368382 
L 166.087192 173.247238 
L 166.27993 173.247238 
L 166.395376 157.004948 
L 166.41127 157.004948 
L 166.522688 181.368382 
L 166.541503 181.368382 
L 166.655392 189.489527 
L 166.838793 189.489527 
L 166.947643 173.247238 
L 167.618569 173.247238 
L 167.63302 181.368382 
L 167.720916 173.247238 
L 168.020699 173.247238 
L 168.17917 157.004948 
L 168.446836 157.004948 
L 168.489429 140.762658 
L 168.55097 148.883803 
L 168.586119 148.883803 
L 168.693604 165.126093 
L 168.832253 165.126093 
L 168.940329 173.247238 
L 168.972914 173.247238 
L 169.067193 165.126093 
L 169.075207 173.247238 
L 169.186993 181.368382 
L 169.294865 181.368382 
L 169.374664 189.489527 
L 169.680498 189.489527 
L 169.784889 197.610672 
L 169.930411 197.610672 
L 170.068481 189.489527 
L 170.213667 189.489527 
L 170.312884 181.368382 
L 170.416786 189.489527 
L 170.525938 189.489527 
L 170.652965 173.247238 
L 170.704012 173.247238 
L 170.817455 165.126093 
L 171.237907 165.126093 
L 171.2403 173.247238 
L 171.335755 165.126093 
L 171.434834 165.126093 
L 171.436426 157.004948 
L 171.542461 165.126093 
L 171.845597 165.126093 
L 171.923815 157.004948 
L 171.936978 173.247238 
L 172.027815 173.247238 
L 172.11719 165.126093 
L 172.123712 173.247238 
L 172.239333 173.247238 
L 172.267405 181.368382 
L 172.326334 165.126093 
L 172.338879 165.126093 
L 172.612244 165.126093 
L 172.644333 157.004948 
L 172.706182 165.126093 
L 172.817375 165.126093 
L 172.91772 157.004948 
L 173.046242 165.126093 
L 173.231148 165.126093 
L 173.346523 173.247238 
L 173.766779 173.247238 
L 173.841378 189.489527 
L 173.867117 181.368382 
L 174.007184 189.489527 
L 174.227427 189.489527 
L 174.475649 181.368382 
L 174.579522 189.489527 
L 174.838644 189.489527 
L 174.980625 181.368382 
L 175.329023 181.368382 
L 175.392887 173.247238 
L 175.439616 181.368382 
L 175.444004 181.368382 
L 175.459698 189.489527 
L 175.537703 181.368382 
L 175.666727 181.368382 
L 175.811779 189.489527 
L 175.899057 189.489527 
L 176.002338 181.368382 
L 176.057312 181.368382 
L 176.203913 189.489527 
L 176.285907 181.368382 
L 176.306917 189.489527 
L 176.434866 189.489527 
L 176.457945 197.610672 
L 176.605896 197.610672 
L 176.693802 189.489527 
L 176.871028 173.247238 
L 176.975814 181.368382 
L 177.029006 181.368382 
L 177.107755 189.489527 
L 177.138333 181.368382 
L 177.214315 181.368382 
L 177.282501 165.126093 
L 177.378895 173.247238 
L 177.401652 173.247238 
L 177.568332 189.489527 
L 177.661034 189.489527 
L 177.76318 181.368382 
L 177.839577 189.489527 
L 177.873187 181.368382 
L 177.902689 181.368382 
L 178.002624 189.489527 
L 178.382046 189.489527 
L 178.474193 181.368382 
L 178.536361 181.368382 
L 178.642039 173.247238 
L 178.76288 173.247238 
L 178.76322 165.126093 
L 178.871437 173.247238 
L 179.015474 173.247238 
L 179.132431 181.368382 
L 179.349185 181.368382 
L 179.484146 189.489527 
L 179.637945 189.489527 
L 179.70543 181.368382 
L 179.738722 189.489527 
L 179.762162 189.489527 
L 179.973335 165.126093 
L 180.042271 165.126093 
L 180.21126 181.368382 
L 180.349729 181.368382 
L 180.480928 189.489527 
L 180.606295 189.489527 
L 180.73942 197.610672 
L 181.524435 197.610672 
L 181.632985 189.489527 
L 181.706077 181.368382 
L 181.847525 189.489527 
L 181.909348 189.489527 
L 182.293134 173.247238 
L 182.376909 173.247238 
L 182.473675 181.368382 
L 182.50416 181.368382 
L 182.637343 189.489527 
L 183.291811 189.489527 
L 183.471839 165.126093 
L 183.867112 165.126093 
L 184.00031 173.247238 
L 184.124313 165.126093 
L 184.397475 165.126093 
L 184.53053 157.004948 
L 184.639878 157.004948 
L 184.772634 165.126093 
L 184.777219 157.004948 
L 184.87617 165.126093 
L 184.931253 165.126093 
L 185.003111 173.247238 
L 185.009584 165.126093 
L 185.10358 165.126093 
L 185.177934 173.247238 
L 185.31434 173.247238 
L 185.321149 165.126093 
L 185.41452 181.368382 
L 185.737864 181.368382 
L 185.77038 173.247238 
L 185.837905 181.368382 
L 185.907014 181.368382 
L 186.058718 173.247238 
L 186.210782 173.247238 
L 186.273795 165.126093 
L 186.301886 173.247238 
L 186.391393 173.247238 
L 186.476366 157.004948 
L 186.937214 157.004948 
L 187.03541 165.126093 
L 187.108542 165.126093 
L 187.136698 173.247238 
L 187.18326 165.126093 
L 187.257818 173.247238 
L 187.289998 165.126093 
L 187.411459 165.126093 
L 187.454985 157.004948 
L 187.499709 173.247238 
L 187.722755 173.247238 
L 187.757197 165.126093 
L 187.815097 173.247238 
L 187.852635 173.247238 
L 187.856322 181.368382 
L 187.951281 173.247238 
L 187.979591 173.247238 
L 188.002838 165.126093 
L 188.085453 173.247238 
L 188.19703 189.489527 
L 188.710264 189.489527 
L 188.723592 181.368382 
L 188.786724 189.489527 
L 189.030798 189.489527 
L 189.106092 181.368382 
L 189.10666 189.489527 
L 189.287048 189.489527 
L 189.350844 181.368382 
L 189.514888 181.368382 
L 189.576612 189.489527 
L 189.786477 189.489527 
L 189.91177 197.610672 
L 190.08162 189.489527 
L 191.290955 189.489527 
L 191.420689 181.368382 
L 191.530693 189.489527 
L 191.782094 189.489527 
L 191.788445 197.610672 
L 191.881465 189.489527 
L 192.067693 181.368382 
L 192.254561 181.368382 
L 192.33789 189.489527 
L 192.403351 189.489527 
L 192.555764 173.247238 
L 192.596246 173.247238 
L 192.767689 189.489527 
L 192.943089 189.489527 
L 192.960842 197.610672 
L 193.159314 189.489527 
L 193.465636 197.610672 
L 193.616285 197.610672 
L 193.795159 165.126093 
L 193.939082 165.126093 
L 194.024152 181.368382 
L 194.239115 173.247238 
L 194.583656 173.247238 
L 194.644988 165.126093 
L 194.810445 173.247238 
L 194.823584 181.368382 
L 195.083083 173.247238 
L 195.193188 173.247238 
L 195.322105 181.368382 
L 195.324223 181.368382 
L 195.489974 157.004948 
L 195.550055 165.126093 
L 195.797392 165.126093 
L 195.933955 173.247238 
L 196.202605 173.247238 
L 196.299895 181.368382 
L 196.426727 189.489527 
L 196.516832 181.368382 
L 196.588801 189.489527 
L 196.711972 189.489527 
L 196.764156 181.368382 
L 197.003525 181.368382 
L 197.062729 189.489527 
L 197.106316 181.368382 
L 197.204034 173.247238 
L 197.294381 197.610672 
L 197.322257 189.489527 
L 197.708591 189.489527 
L 197.81761 197.610672 
L 197.819059 189.489527 
L 197.83368 181.368382 
L 197.953419 189.489527 
L 198.178966 189.489527 
L 198.259562 181.368382 
L 198.428212 173.247238 
L 198.505987 148.883803 
L 198.599725 157.004948 
L 198.709148 148.883803 
L 198.891705 148.883803 
L 198.928371 140.762658 
L 198.997666 148.883803 
L 199.12653 165.126093 
L 199.151216 165.126093 
L 199.180915 157.004948 
L 199.24357 165.126093 
L 199.390556 165.126093 
L 199.39181 173.247238 
L 199.475004 165.126093 
L 199.606393 173.247238 
L 199.698686 173.247238 
L 199.904637 157.004948 
L 200.055005 157.004948 
L 200.092956 148.883803 
L 200.12463 157.004948 
L 200.211812 157.004948 
L 200.255657 148.883803 
L 200.313907 157.004948 
L 200.345622 157.004948 
L 200.368095 165.126093 
L 200.433707 157.004948 
L 200.46973 148.883803 
L 200.488261 157.004948 
L 200.555262 157.004948 
L 200.638881 165.126093 
L 200.79639 165.126093 
L 200.801201 157.004948 
L 200.889224 173.247238 
L 201.049696 173.247238 
L 201.136414 181.368382 
L 201.663798 181.368382 
L 201.751933 197.610672 
L 201.975777 197.610672 
L 202.075556 189.489527 
L 202.19448 181.368382 
L 202.207398 189.489527 
L 202.27106 181.368382 
L 202.350584 181.368382 
L 202.532761 173.247238 
L 202.638636 165.126093 
L 202.698811 165.126093 
L 203.037044 197.610672 
L 203.269215 189.489527 
L 203.410627 189.489527 
L 203.562041 181.368382 
L 203.835786 189.489527 
L 203.925287 189.489527 
L 204.801483 197.610672 
L 221.875656 197.610672 
L 221.983477 189.489527 
L 222.797994 189.489527 
L 223.523863 197.610672 
L 225.187274 197.610672 
L 225.815257 181.368382 
L 226.076599 197.610672 
L 226.229607 189.489527 
L 226.369542 181.368382 
L 226.714978 181.368382 
L 226.800187 189.489527 
L 227.09679 197.610672 
L 232.660883 197.610672 
L 232.943827 173.247238 
L 233.150934 181.368382 
L 233.440795 173.247238 
L 233.941537 173.247238 
L 234.095003 197.610672 
L 234.67283 197.610672 
L 234.706552 189.489527 
L 235.193916 189.489527 
L 236.428664 197.610672 
L 241.827701 197.610672 
L 241.960923 189.489527 
L 241.993973 197.610672 
L 254.825191 197.610672 
L 255.272209 189.489527 
L 255.366854 197.610672 
L 257.482607 197.610672 
L 258.116481 189.489527 
L 259.169845 189.489527 
L 259.399698 197.610672 
L 269.903372 197.610672 
L 270.751383 189.489527 
L 270.919712 181.368382 
L 271.000049 189.489527 
L 271.304032 189.489527 
L 271.469513 197.610672 
L 273.587933 197.610672 
L 273.899164 189.489527 
L 274.471487 189.489527 
L 274.806152 197.610672 
L 286.561797 197.610672 
L 286.742032 189.489527 
L 286.825912 173.247238 
L 286.994679 173.247238 
L 287.116581 181.368382 
L 287.999836 197.610672 
L 289.253442 197.610672 
L 289.559685 189.489527 
L 289.707943 189.489527 
L 289.793102 197.610672 
L 303.36581 197.610672 
L 303.603462 173.247238 
L 303.824306 197.610672 
L 303.959574 181.368382 
L 303.992832 189.489527 
L 304.080225 189.489527 
L 304.149986 181.368382 
L 304.346859 189.489527 
L 304.570782 173.247238 
L 304.670363 189.489527 
L 304.773993 181.368382 
L 305.031258 181.368382 
L 305.049034 173.247238 
L 305.137986 181.368382 
L 305.653343 181.368382 
L 305.791953 189.489527 
L 306.010003 189.489527 
L 306.166873 197.610672 
L 311.747221 197.610672 
L 311.838521 189.489527 
L 311.993644 189.489527 
L 312.080832 197.610672 
L 312.422447 197.610672 
L 312.422447 197.610672 
" clip-path="url(#p3973aa9f9a)" style="fill: none; stroke: #000000; stroke-width: 1.5; stroke-linecap: square"/>
   </g>
   <g id="patch_8">
    <path d="M 44.103906 201.671244 
L 44.103906 112.338651 
" style="fill: none; stroke: #000000; stroke-width: 0.8; stroke-linejoin: miter; stroke-linecap: square"/>
   </g>
   <g id="patch_9">
    <path d="M 325.19952 201.671244 
L 325.19952 112.338651 
" style="fill: none; stroke: #000000; stroke-width: 0.8; stroke-linejoin: miter; stroke-linecap: square"/>
   </g>
   <g id="patch_10">
    <path d="M 44.103906 201.671244 
L 325.19952 201.671244 
" style="fill: none; stroke: #000000; stroke-width: 0.8; stroke-linejoin: miter; stroke-linecap: square"/>
   </g>
   <g id="patch_11">
    <path d="M 44.103906 112.338651 
L 325.19952 112.338651 
" style="fill: none; stroke: #000000; stroke-width: 0.8; stroke-linejoin: miter; stroke-linecap: square"/>
   </g>
  </g>
  <g id="axes_3">
   <g id="patch_12">
    <path d="M 44.103906 300.504317 
L 325.19952 300.504317 
L 325.19952 211.171724 
L 44.103906 211.171724 
z
" style="fill: #ffffff"/>
   </g>
   <g id="matplotlib.axis_5">
    <g id="xtick_19">
     <g id="line2d_27">
      <g>
       <use xlink:href="#m31300d2548" x="56.88098" y="300.504317" style="stroke: #000000; stroke-width: 0.8"/>
      </g>
     </g>
     <g id="text_9">
      <!-- 0 -->
      <g transform="translate(53.69973 315.101974) scale(0.1 -0.1)">
       <use xlink:href="#DejaVuSans-13"/>
      </g>
     </g>
    </g>
    <g id="xtick_20">
     <g id="line2d_28">
      <g>
       <use xlink:href="#m31300d2548" x="88.786065" y="300.504317" style="stroke: #000000; stroke-width: 0.8"/>
      </g>
     </g>
     <g id="text_10">
      <!-- 100 -->
      <g transform="translate(79.242315 315.101974) scale(0.1 -0.1)">
       <use xlink:href="#DejaVuSans-14"/>
       <use xlink:href="#DejaVuSans-13" transform="translate(63.625 0)"/>
       <use xlink:href="#DejaVuSans-13" transform="translate(127.25 0)"/>
      </g>
     </g>
    </g>
    <g id="xtick_21">
     <g id="line2d_29">
      <g>
       <use xlink:href="#m31300d2548" x="120.691151" y="300.504317" style="stroke: #000000; stroke-width: 0.8"/>
      </g>
     </g>
     <g id="text_11">
      <!-- 200 -->
      <g transform="translate(111.147401 315.101974) scale(0.1 -0.1)">
       <defs>
        <path id="DejaVuSans-15" d="M 1228 531 
L 3431 531 
L 3431 0 
L 469 0 
L 469 531 
Q 828 903 1448 1529 
Q 2069 2156 2228 2338 
Q 2531 2678 2651 2914 
Q 2772 3150 2772 3378 
Q 2772 3750 2511 3984 
Q 2250 4219 1831 4219 
Q 1534 4219 1204 4116 
Q 875 4013 500 3803 
L 500 4441 
Q 881 4594 1212 4672 
Q 1544 4750 1819 4750 
Q 2544 4750 2975 4387 
Q 3406 4025 3406 3419 
Q 3406 3131 3298 2873 
Q 3191 2616 2906 2266 
Q 2828 2175 2409 1742 
Q 1991 1309 1228 531 
z
" transform="scale(0.015625)"/>
       </defs>
       <use xlink:href="#DejaVuSans-15"/>
       <use xlink:href="#DejaVuSans-13" transform="translate(63.625 0)"/>
       <use xlink:href="#DejaVuSans-13" transform="translate(127.25 0)"/>
      </g>
     </g>
    </g>
    <g id="xtick_22">
     <g id="line2d_30">
      <g>
       <use xlink:href="#m31300d2548" x="152.596237" y="300.504317" style="stroke: #000000; stroke-width: 0.8"/>
      </g>
     </g>
     <g id="text_12">
      <!-- 300 -->
      <g transform="translate(143.052487 315.101974) scale(0.1 -0.1)">
       <defs>
        <path id="DejaVuSans-16" d="M 2597 2516 
Q 3050 2419 3304 2112 
Q 3559 1806 3559 1356 
Q 3559 666 3084 287 
Q 2609 -91 1734 -91 
Q 1441 -91 1130 -33 
Q 819 25 488 141 
L 488 750 
Q 750 597 1062 519 
Q 1375 441 1716 441 
Q 2309 441 2620 675 
Q 2931 909 2931 1356 
Q 2931 1769 2642 2001 
Q 2353 2234 1838 2234 
L 1294 2234 
L 1294 2753 
L 1863 2753 
Q 2328 2753 2575 2939 
Q 2822 3125 2822 3475 
Q 2822 3834 2567 4026 
Q 2313 4219 1838 4219 
Q 1578 4219 1281 4162 
Q 984 4106 628 3988 
L 628 4550 
Q 988 4650 1302 4700 
Q 1616 4750 1894 4750 
Q 2613 4750 3031 4423 
Q 3450 4097 3450 3541 
Q 3450 3153 3228 2886 
Q 3006 2619 2597 2516 
z
" transform="scale(0.015625)"/>
       </defs>
       <use xlink:href="#DejaVuSans-16"/>
       <use xlink:href="#DejaVuSans-13" transform="translate(63.625 0)"/>
       <use xlink:href="#DejaVuSans-13" transform="translate(127.25 0)"/>
      </g>
     </g>
    </g>
    <g id="xtick_23">
     <g id="line2d_31">
      <g>
       <use xlink:href="#m31300d2548" x="184.501322" y="300.504317" style="stroke: #000000; stroke-width: 0.8"/>
      </g>
     </g>
     <g id="text_13">
      <!-- 400 -->
      <g transform="translate(174.957572 315.101974) scale(0.1 -0.1)">
       <defs>
        <path id="DejaVuSans-17" d="M 2419 4116 
L 825 1625 
L 2419 1625 
L 2419 4116 
z
M 2253 4666 
L 3047 4666 
L 3047 1625 
L 3713 1625 
L 3713 1100 
L 3047 1100 
L 3047 0 
L 2419 0 
L 2419 1100 
L 313 1100 
L 313 1709 
L 2253 4666 
z
" transform="scale(0.015625)"/>
       </defs>
       <use xlink:href="#DejaVuSans-17"/>
       <use xlink:href="#DejaVuSans-13" transform="translate(63.625 0)"/>
       <use xlink:href="#DejaVuSans-13" transform="translate(127.25 0)"/>
      </g>
     </g>
    </g>
    <g id="xtick_24">
     <g id="line2d_32">
      <g>
       <use xlink:href="#m31300d2548" x="216.406408" y="300.504317" style="stroke: #000000; stroke-width: 0.8"/>
      </g>
     </g>
     <g id="text_14">
      <!-- 500 -->
      <g transform="translate(206.862658 315.101974) scale(0.1 -0.1)">
       <use xlink:href="#DejaVuSans-18"/>
       <use xlink:href="#DejaVuSans-13" transform="translate(63.625 0)"/>
       <use xlink:href="#DejaVuSans-13" transform="translate(127.25 0)"/>
      </g>
     </g>
    </g>
    <g id="xtick_25">
     <g id="line2d_33">
      <g>
       <use xlink:href="#m31300d2548" x="248.311494" y="300.504317" style="stroke: #000000; stroke-width: 0.8"/>
      </g>
     </g>
     <g id="text_15">
      <!-- 600 -->
      <g transform="translate(238.767744 315.101974) scale(0.1 -0.1)">
       <defs>
        <path id="DejaVuSans-19" d="M 2113 2584 
Q 1688 2584 1439 2293 
Q 1191 2003 1191 1497 
Q 1191 994 1439 701 
Q 1688 409 2113 409 
Q 2538 409 2786 701 
Q 3034 994 3034 1497 
Q 3034 2003 2786 2293 
Q 2538 2584 2113 2584 
z
M 3366 4563 
L 3366 3988 
Q 3128 4100 2886 4159 
Q 2644 4219 2406 4219 
Q 1781 4219 1451 3797 
Q 1122 3375 1075 2522 
Q 1259 2794 1537 2939 
Q 1816 3084 2150 3084 
Q 2853 3084 3261 2657 
Q 3669 2231 3669 1497 
Q 3669 778 3244 343 
Q 2819 -91 2113 -91 
Q 1303 -91 875 529 
Q 447 1150 447 2328 
Q 447 3434 972 4092 
Q 1497 4750 2381 4750 
Q 2619 4750 2861 4703 
Q 3103 4656 3366 4563 
z
" transform="scale(0.015625)"/>
       </defs>
       <use xlink:href="#DejaVuSans-19"/>
       <use xlink:href="#DejaVuSans-13" transform="translate(63.625 0)"/>
       <use xlink:href="#DejaVuSans-13" transform="translate(127.25 0)"/>
      </g>
     </g>
    </g>
    <g id="xtick_26">
     <g id="line2d_34">
      <g>
       <use xlink:href="#m31300d2548" x="280.216579" y="300.504317" style="stroke: #000000; stroke-width: 0.8"/>
      </g>
     </g>
     <g id="text_16">
      <!-- 700 -->
      <g transform="translate(270.672829 315.101974) scale(0.1 -0.1)">
       <defs>
        <path id="DejaVuSans-1a" d="M 525 4666 
L 3525 4666 
L 3525 4397 
L 1831 0 
L 1172 0 
L 2766 4134 
L 525 4134 
L 525 4666 
z
" transform="scale(0.015625)"/>
       </defs>
       <use xlink:href="#DejaVuSans-1a"/>
       <use xlink:href="#DejaVuSans-13" transform="translate(63.625 0)"/>
       <use xlink:href="#DejaVuSans-13" transform="translate(127.25 0)"/>
      </g>
     </g>
    </g>
    <g id="xtick_27">
     <g id="line2d_35">
      <g>
       <use xlink:href="#m31300d2548" x="312.121665" y="300.504317" style="stroke: #000000; stroke-width: 0.8"/>
      </g>
     </g>
     <g id="text_17">
      <!-- 800 -->
      <g transform="translate(302.577915 315.101974) scale(0.1 -0.1)">
       <defs>
        <path id="DejaVuSans-1b" d="M 2034 2216 
Q 1584 2216 1326 1975 
Q 1069 1734 1069 1313 
Q 1069 891 1326 650 
Q 1584 409 2034 409 
Q 2484 409 2743 651 
Q 3003 894 3003 1313 
Q 3003 1734 2745 1975 
Q 2488 2216 2034 2216 
z
M 1403 2484 
Q 997 2584 770 2862 
Q 544 3141 544 3541 
Q 544 4100 942 4425 
Q 1341 4750 2034 4750 
Q 2731 4750 3128 4425 
Q 3525 4100 3525 3541 
Q 3525 3141 3298 2862 
Q 3072 2584 2669 2484 
Q 3125 2378 3379 2068 
Q 3634 1759 3634 1313 
Q 3634 634 3220 271 
Q 2806 -91 2034 -91 
Q 1263 -91 848 271 
Q 434 634 434 1313 
Q 434 1759 690 2068 
Q 947 2378 1403 2484 
z
M 1172 3481 
Q 1172 3119 1398 2916 
Q 1625 2713 2034 2713 
Q 2441 2713 2670 2916 
Q 2900 3119 2900 3481 
Q 2900 3844 2670 4047 
Q 2441 4250 2034 4250 
Q 1625 4250 1398 4047 
Q 1172 3844 1172 3481 
z
" transform="scale(0.015625)"/>
       </defs>
       <use xlink:href="#DejaVuSans-1b"/>
       <use xlink:href="#DejaVuSans-13" transform="translate(63.625 0)"/>
       <use xlink:href="#DejaVuSans-13" transform="translate(127.25 0)"/>
      </g>
     </g>
    </g>
    <g id="text_18">
     <!-- Time -->
     <g transform="translate(172.415776 329.102755) scale(0.1 -0.1)">
      <defs>
       <path id="DejaVuSans-37" d="M -19 4666 
L 3928 4666 
L 3928 4134 
L 2272 4134 
L 2272 0 
L 1638 0 
L 1638 4134 
L -19 4134 
L -19 4666 
z
" transform="scale(0.015625)"/>
       <path id="DejaVuSans-4c" d="M 603 3500 
L 1178 3500 
L 1178 0 
L 603 0 
L 603 3500 
z
M 603 4863 
L 1178 4863 
L 1178 4134 
L 603 4134 
L 603 4863 
z
" transform="scale(0.015625)"/>
       <path id="DejaVuSans-50" d="M 3328 2828 
Q 3544 3216 3844 3400 
Q 4144 3584 4550 3584 
Q 5097 3584 5394 3201 
Q 5691 2819 5691 2113 
L 5691 0 
L 5113 0 
L 5113 2094 
Q 5113 2597 4934 2840 
Q 4756 3084 4391 3084 
Q 3944 3084 3684 2787 
Q 3425 2491 3425 1978 
L 3425 0 
L 2847 0 
L 2847 2094 
Q 2847 2600 2669 2842 
Q 2491 3084 2119 3084 
Q 1678 3084 1418 2786 
Q 1159 2488 1159 1978 
L 1159 0 
L 581 0 
L 581 3500 
L 1159 3500 
L 1159 2956 
Q 1356 3278 1631 3431 
Q 1906 3584 2284 3584 
Q 2666 3584 2933 3390 
Q 3200 3197 3328 2828 
z
" transform="scale(0.015625)"/>
      </defs>
      <use xlink:href="#DejaVuSans-37"/>
      <use xlink:href="#DejaVuSans-4c" transform="translate(58 0)"/>
      <use xlink:href="#DejaVuSans-50" transform="translate(85.78125 0)"/>
      <use xlink:href="#DejaVuSans-48" transform="translate(183.1875 0)"/>
     </g>
    </g>
   </g>
   <g id="matplotlib.axis_6">
    <g id="ytick_7">
     <g id="line2d_36">
      <g>
       <use xlink:href="#m14b289f8b4" x="44.103906" y="296.443745" style="stroke: #000000; stroke-width: 0.8"/>
      </g>
     </g>
     <g id="text_19">
      <!-- 0.0 -->
      <g transform="translate(21.200781 300.242573) scale(0.1 -0.1)">
       <defs>
        <path id="DejaVuSans-11" d="M 684 794 
L 1344 794 
L 1344 0 
L 684 0 
L 684 794 
z
" transform="scale(0.015625)"/>
       </defs>
       <use xlink:href="#DejaVuSans-13"/>
       <use xlink:href="#DejaVuSans-11" transform="translate(63.625 0)"/>
       <use xlink:href="#DejaVuSans-13" transform="translate(95.40625 0)"/>
      </g>
     </g>
    </g>
    <g id="ytick_8">
     <g id="line2d_37">
      <g>
       <use xlink:href="#m14b289f8b4" x="44.103906" y="255.838021" style="stroke: #000000; stroke-width: 0.8"/>
      </g>
     </g>
     <g id="text_20">
      <!-- 0.5 -->
      <g transform="translate(21.200781 259.636849) scale(0.1 -0.1)">
       <use xlink:href="#DejaVuSans-13"/>
       <use xlink:href="#DejaVuSans-11" transform="translate(63.625 0)"/>
       <use xlink:href="#DejaVuSans-18" transform="translate(95.40625 0)"/>
      </g>
     </g>
    </g>
    <g id="ytick_9">
     <g id="line2d_38">
      <g>
       <use xlink:href="#m14b289f8b4" x="44.103906" y="215.232297" style="stroke: #000000; stroke-width: 0.8"/>
      </g>
     </g>
     <g id="text_21">
      <!-- 1.0 -->
      <g transform="translate(21.200781 219.031125) scale(0.1 -0.1)">
       <use xlink:href="#DejaVuSans-14"/>
       <use xlink:href="#DejaVuSans-11" transform="translate(63.625 0)"/>
       <use xlink:href="#DejaVuSans-13" transform="translate(95.40625 0)"/>
      </g>
     </g>
    </g>
    <g id="text_22">
     <!-- Free lac operon -->
     <g transform="translate(14.798438 294.31224) rotate(-90) scale(0.1 -0.1)">
      <defs>
       <path id="DejaVuSans-29" d="M 628 4666 
L 3309 4666 
L 3309 4134 
L 1259 4134 
L 1259 2759 
L 3109 2759 
L 3109 2228 
L 1259 2228 
L 1259 0 
L 628 0 
L 628 4666 
z
" transform="scale(0.015625)"/>
       <path id="DejaVuSans-53" d="M 1159 525 
L 1159 -1331 
L 581 -1331 
L 581 3500 
L 1159 3500 
L 1159 2969 
Q 1341 3281 1617 3432 
Q 1894 3584 2278 3584 
Q 2916 3584 3314 3078 
Q 3713 2572 3713 1747 
Q 3713 922 3314 415 
Q 2916 -91 2278 -91 
Q 1894 -91 1617 61 
Q 1341 213 1159 525 
z
M 3116 1747 
Q 3116 2381 2855 2742 
Q 2594 3103 2138 3103 
Q 1681 3103 1420 2742 
Q 1159 2381 1159 1747 
Q 1159 1113 1420 752 
Q 1681 391 2138 391 
Q 2594 391 2855 752 
Q 3116 1113 3116 1747 
z
" transform="scale(0.015625)"/>
       <path id="DejaVuSans-51" d="M 3513 2113 
L 3513 0 
L 2938 0 
L 2938 2094 
Q 2938 2591 2744 2837 
Q 2550 3084 2163 3084 
Q 1697 3084 1428 2787 
Q 1159 2491 1159 1978 
L 1159 0 
L 581 0 
L 581 3500 
L 1159 3500 
L 1159 2956 
Q 1366 3272 1645 3428 
Q 1925 3584 2291 3584 
Q 2894 3584 3203 3211 
Q 3513 2838 3513 2113 
z
" transform="scale(0.015625)"/>
      </defs>
      <use xlink:href="#DejaVuSans-29"/>
      <use xlink:href="#DejaVuSans-55" transform="translate(50.234375 0)"/>
      <use xlink:href="#DejaVuSans-48" transform="translate(89.140625 0)"/>
      <use xlink:href="#DejaVuSans-48" transform="translate(150.671875 0)"/>
      <use xlink:href="#DejaVuSans-3" transform="translate(212.203125 0)"/>
      <use xlink:href="#DejaVuSans-4f" transform="translate(243.984375 0)"/>
      <use xlink:href="#DejaVuSans-44" transform="translate(271.765625 0)"/>
      <use xlink:href="#DejaVuSans-46" transform="translate(333.046875 0)"/>
      <use xlink:href="#DejaVuSans-3" transform="translate(388.03125 0)"/>
      <use xlink:href="#DejaVuSans-52" transform="translate(419.8125 0)"/>
      <use xlink:href="#DejaVuSans-53" transform="translate(481 0)"/>
      <use xlink:href="#DejaVuSans-48" transform="translate(544.484375 0)"/>
      <use xlink:href="#DejaVuSans-55" transform="translate(606.015625 0)"/>
      <use xlink:href="#DejaVuSans-52" transform="translate(644.921875 0)"/>
      <use xlink:href="#DejaVuSans-51" transform="translate(706.109375 0)"/>
     </g>
    </g>
   </g>
   <g id="line2d_39">
    <path d="M 56.88098 215.232297 
L 56.962582 296.443745 
L 57.131049 296.443745 
L 57.300811 215.232297 
L 57.419105 215.232297 
L 57.521346 296.443745 
L 58.738927 296.443745 
L 59.729833 215.232297 
L 59.916376 215.232297 
L 59.939145 296.443745 
L 62.36319 296.443745 
L 64.960494 215.232297 
L 65.255707 215.232297 
L 65.393298 296.443745 
L 65.519306 296.443745 
L 72.188882 215.232297 
L 72.358853 296.443745 
L 80.206853 215.232297 
L 80.255942 296.443745 
L 82.885223 215.232297 
L 83.025363 215.232297 
L 83.079584 296.443745 
L 84.821781 296.443745 
L 84.887285 215.232297 
L 85.764513 215.232297 
L 85.954693 296.443745 
L 86.988638 296.443745 
L 89.984435 215.232297 
L 90.525017 215.232297 
L 90.554327 296.443745 
L 90.912616 296.443745 
L 91.794949 215.232297 
L 91.853458 296.443745 
L 92.197666 296.443745 
L 109.290706 215.232297 
L 109.304422 296.443745 
L 109.563161 296.443745 
L 109.839582 215.232297 
L 110.127241 296.443745 
L 110.255446 215.232297 
L 110.663628 215.232297 
L 110.868427 296.443745 
L 111.161378 296.443745 
L 115.327915 215.232297 
L 115.989235 296.443745 
L 117.632998 215.232297 
L 117.94856 296.443745 
L 118.62169 215.232297 
L 118.709107 296.443745 
L 119.719526 215.232297 
L 119.804524 296.443745 
L 123.751487 296.443745 
L 129.776643 215.232297 
L 129.882701 296.443745 
L 131.626798 215.232297 
L 132.078063 215.232297 
L 132.099526 296.443745 
L 133.941745 296.443745 
L 136.540106 215.232297 
L 136.553426 296.443745 
L 139.437502 215.232297 
L 139.480278 296.443745 
L 146.530952 215.232297 
L 147.476265 215.232297 
L 147.544649 296.443745 
L 148.16172 296.443745 
L 148.407009 215.232297 
L 148.722217 215.232297 
L 148.835081 296.443745 
L 149.906807 296.443745 
L 150.418772 215.232297 
L 150.51963 296.443745 
L 151.641894 296.443745 
L 151.653227 215.232297 
L 151.814932 296.443745 
L 156.127923 215.232297 
L 156.216949 296.443745 
L 156.466527 215.232297 
L 201.641425 215.232297 
L 201.751933 296.443745 
L 201.904951 296.443745 
L 202.075556 215.232297 
L 203.835786 215.232297 
L 203.925287 296.443745 
L 209.27779 296.443745 
L 211.758351 215.232297 
L 211.841159 296.443745 
L 216.916727 215.232297 
L 217.088875 296.443745 
L 220.306586 296.443745 
L 221.955289 215.232297 
L 221.983477 296.443745 
L 223.523863 296.443745 
L 225.187274 215.232297 
L 226.369542 215.232297 
L 226.417066 296.443745 
L 227.641224 296.443745 
L 232.7647 215.232297 
L 233.440795 215.232297 
L 233.704 296.443745 
L 234.270365 296.443745 
L 234.706552 215.232297 
L 234.854326 296.443745 
L 237.029909 296.443745 
L 238.705354 215.232297 
L 238.760034 296.443745 
L 241.901316 215.232297 
L 241.993973 296.443745 
L 242.621963 296.443745 
L 246.608326 215.232297 
L 246.820846 296.443745 
L 247.140309 215.232297 
L 247.204878 296.443745 
L 254.825191 215.232297 
L 255.360909 215.232297 
L 255.366854 296.443745 
L 255.880889 296.443745 
L 257.482607 215.232297 
L 258.031985 215.232297 
L 258.116481 296.443745 
L 259.705462 296.443745 
L 262.733745 215.232297 
L 262.782591 296.443745 
L 269.903372 215.232297 
L 270.875668 215.232297 
L 270.88003 296.443745 
L 270.943753 215.232297 
L 271.000049 215.232297 
L 271.304032 296.443745 
L 271.469513 296.443745 
L 273.587933 215.232297 
L 273.886207 215.232297 
L 273.899164 296.443745 
L 274.806152 296.443745 
L 286.171796 215.232297 
L 286.306723 296.443745 
L 286.561797 215.232297 
L 286.87569 215.232297 
L 286.994679 296.443745 
L 287.999836 296.443745 
L 289.253442 215.232297 
L 289.464887 215.232297 
L 289.559685 296.443745 
L 289.716484 215.232297 
L 289.793102 296.443745 
L 290.418531 215.232297 
L 290.738588 296.443745 
L 296.841655 215.232297 
L 297.08283 296.443745 
L 301.538635 215.232297 
L 301.559136 296.443745 
L 303.438887 215.232297 
L 305.293181 215.232297 
L 305.406032 296.443745 
L 306.166873 296.443745 
L 308.036718 215.232297 
L 308.073818 296.443745 
L 308.097757 215.232297 
L 308.41028 296.443745 
L 311.838521 215.232297 
L 312.080832 296.443745 
L 312.422447 215.232297 
L 312.422447 215.232297 
" clip-path="url(#p7b7256fd51)" style="fill: none; stroke: #000000; stroke-width: 1.5; stroke-linecap: square"/>
   </g>
   <g id="patch_13">
    <path d="M 44.103906 300.504317 
L 44.103906 211.171724 
" style="fill: none; stroke: #000000; stroke-width: 0.8; stroke-linejoin: miter; stroke-linecap: square"/>
   </g>
   <g id="patch_14">
    <path d="M 325.19952 300.504317 
L 325.19952 211.171724 
" style="fill: none; stroke: #000000; stroke-width: 0.8; stroke-linejoin: miter; stroke-linecap: square"/>
   </g>
   <g id="patch_15">
    <path d="M 44.103906 300.504317 
L 325.19952 300.504317 
" style="fill: none; stroke: #000000; stroke-width: 0.8; stroke-linejoin: miter; stroke-linecap: square"/>
   </g>
   <g id="patch_16">
    <path d="M 44.103906 211.171724 
L 325.19952 211.171724 
" style="fill: none; stroke: #000000; stroke-width: 0.8; stroke-linejoin: miter; stroke-linecap: square"/>
   </g>
  </g>
 </g>
 <defs>
  <clipPath id="p7060a37fe3">
   <rect x="44.103906" y="13.505579" width="281.095614" height="89.332593"/>
  </clipPath>
  <clipPath id="p3973aa9f9a">
   <rect x="44.103906" y="112.338651" width="281.095614" height="89.332593"/>
  </clipPath>
  <clipPath id="p7b7256fd51">
   <rect x="44.103906" y="211.171724" width="281.095614" height="89.332593"/>
  </clipPath>
 </defs>
</svg>
