<?xml version="1.0" encoding="utf-8" standalone="no"?>
<!DOCTYPE svg PUBLIC "-//W3C//DTD SVG 1.1//EN"
  "http://www.w3.org/Graphics/SVG/1.1/DTD/svg11.dtd">
<svg xmlns:xlink="http://www.w3.org/1999/xlink" width="332.39952pt" height="332.39952pt" viewBox="0 0 332.39952 332.39952" xmlns="http://www.w3.org/2000/svg" version="1.1">
 <metadata>
  <rdf:RDF xmlns:dc="http://purl.org/dc/elements/1.1/" xmlns:cc="http://creativecommons.org/ns#" xmlns:rdf="http://www.w3.org/1999/02/22-rdf-syntax-ns#">
   <cc:Work>
    <dc:type rdf:resource="http://purl.org/dc/dcmitype/StillImage"/>
    <dc:date>2026-07-11T04:15:34.980932</dc:date>
    <dc:format>image/svg+xml</dc:format>
    <dc:creator>
     <cc:Agent>
      <dc:title>Matplotlib v3.11.0, https://matplotlib.org/</dc:title>
     </cc:Agent>
    </dc:creator>
   </cc:Work>
  </rdf:RDF>
 </metadata>
 <defs>
  <style type="text/css">*{stroke-linejoin: round; stroke-linecap: butt}</style>
 </defs>
 <g id="figure_1">
  <g id="patch_1">
   <path d="M 0 332.39952 
L 332.39952 332.39952 
L 332.39952 0 
L 0 0 
z
" style="fill: #ffffff"/>
  </g>
  <g id="axes_1">
   <g id="patch_2">
    <path d="M 44.103906 96.532593 
L 325.19952 96.532593 
L 325.19952 7.2 
L 44.103906 7.2 
z
" style="fill: #ffffff"/>
   </g>
   <g id="matplotlib.axis_1">
    <g id="xtick_1">
     <g id="line2d_1">
      <defs>
       <path id="m7ee041bee3" d="M 0 0 
L 0 3.5 
" style="stroke: #000000; stroke-width: 0.8"/>
      </defs>
      <g>
       <use xlink:href="#m7ee041bee3" x="56.88098" y="96.532593" style="stroke: #000000; stroke-width: 0.8"/>
      </g>
     </g>
    </g>
    <g id="xtick_2">
     <g id="line2d_2">
      <g>
       <use xlink:href="#m7ee041bee3" x="88.789539" y="96.532593" style="stroke: #000000; stroke-width: 0.8"/>
      </g>
     </g>
    </g>
    <g id="xtick_3">
     <g id="line2d_3">
      <g>
       <use xlink:href="#m7ee041bee3" x="120.698098" y="96.532593" style="stroke: #000000; stroke-width: 0.8"/>
      </g>
     </g>
    </g>
    <g id="xtick_4">
     <g id="line2d_4">
      <g>
       <use xlink:href="#m7ee041bee3" x="152.606657" y="96.532593" style="stroke: #000000; stroke-width: 0.8"/>
      </g>
     </g>
    </g>
    <g id="xtick_5">
     <g id="line2d_5">
      <g>
       <use xlink:href="#m7ee041bee3" x="184.515217" y="96.532593" style="stroke: #000000; stroke-width: 0.8"/>
      </g>
     </g>
    </g>
    <g id="xtick_6">
     <g id="line2d_6">
      <g>
       <use xlink:href="#m7ee041bee3" x="216.423776" y="96.532593" style="stroke: #000000; stroke-width: 0.8"/>
      </g>
     </g>
    </g>
    <g id="xtick_7">
     <g id="line2d_7">
      <g>
       <use xlink:href="#m7ee041bee3" x="248.332335" y="96.532593" style="stroke: #000000; stroke-width: 0.8"/>
      </g>
     </g>
    </g>
    <g id="xtick_8">
     <g id="line2d_8">
      <g>
       <use xlink:href="#m7ee041bee3" x="280.240895" y="96.532593" style="stroke: #000000; stroke-width: 0.8"/>
      </g>
     </g>
    </g>
    <g id="xtick_9">
     <g id="line2d_9">
      <g>
       <use xlink:href="#m7ee041bee3" x="312.149454" y="96.532593" style="stroke: #000000; stroke-width: 0.8"/>
      </g>
     </g>
    </g>
   </g>
   <g id="matplotlib.axis_2">
    <g id="ytick_1">
     <g id="line2d_10">
      <defs>
       <path id="m57c2511b70" d="M 0 0 
L -3.5 0 
" style="stroke: #000000; stroke-width: 0.8"/>
      </defs>
      <g>
       <use xlink:href="#m57c2511b70" x="44.103906" y="92.472021" style="stroke: #000000; stroke-width: 0.8"/>
      </g>
     </g>
     <g id="text_1">
      <!-- 0 -->
      <g transform="translate(30.741406 96.270849) scale(0.1 -0.1)">
       <defs>
        <path id="DejaVuSans-13" d="M 2034 4250 
Q 1547 4250 1301 3770 
Q 1056 3291 1056 2328 
Q 1056 1369 1301 889 
Q 1547 409 2034 409 
Q 2525 409 2770 889 
Q 3016 1369 3016 2328 
Q 3016 3291 2770 3770 
Q 2525 4250 2034 4250 
z
M 2034 4750 
Q 2819 4750 3233 4129 
Q 3647 3509 3647 2328 
Q 3647 1150 3233 529 
Q 2819 -91 2034 -91 
Q 1250 -91 836 529 
Q 422 1150 422 2328 
Q 422 3509 836 4129 
Q 1250 4750 2034 4750 
z
" transform="scale(0.015625)"/>
       </defs>
       <use xlink:href="#DejaVuSans-13"/>
      </g>
     </g>
    </g>
    <g id="ytick_2">
     <g id="line2d_11">
      <g>
       <use xlink:href="#m57c2511b70" x="44.103906" y="51.866296" style="stroke: #000000; stroke-width: 0.8"/>
      </g>
     </g>
     <g id="text_2">
      <!-- 5 -->
      <g transform="translate(30.741406 55.665125) scale(0.1 -0.1)">
       <defs>
        <path id="DejaVuSans-18" d="M 691 4666 
L 3169 4666 
L 3169 4134 
L 1269 4134 
L 1269 2991 
Q 1406 3038 1543 3061 
Q 1681 3084 1819 3084 
Q 2600 3084 3056 2656 
Q 3513 2228 3513 1497 
Q 3513 744 3044 326 
Q 2575 -91 1722 -91 
Q 1428 -91 1123 -41 
Q 819 9 494 109 
L 494 744 
Q 775 591 1075 516 
Q 1375 441 1709 441 
Q 2250 441 2565 725 
Q 2881 1009 2881 1497 
Q 2881 1984 2565 2268 
Q 2250 2553 1709 2553 
Q 1456 2553 1204 2497 
Q 953 2441 691 2322 
L 691 4666 
z
" transform="scale(0.015625)"/>
       </defs>
       <use xlink:href="#DejaVuSans-18"/>
      </g>
     </g>
    </g>
    <g id="ytick_3">
     <g id="line2d_12">
      <g>
       <use xlink:href="#m57c2511b70" x="44.103906" y="11.260572" style="stroke: #000000; stroke-width: 0.8"/>
      </g>
     </g>
     <g id="text_3">
      <!-- 10 -->
      <g transform="translate(24.378906 15.059401) scale(0.1 -0.1)">
       <defs>
        <path id="DejaVuSans-14" d="M 794 531 
L 1825 531 
L 1825 4091 
L 703 3866 
L 703 4441 
L 1819 4666 
L 2450 4666 
L 2450 531 
L 3481 531 
L 3481 0 
L 794 0 
L 794 531 
z
" transform="scale(0.015625)"/>
       </defs>
       <use xlink:href="#DejaVuSans-14"/>
       <use xlink:href="#DejaVuSans-13" transform="translate(63.625 0)"/>
      </g>
     </g>
    </g>
    <g id="text_4">
     <!-- Extracellular lactose -->
     <g transform="translate(17.976563 102.838171) rotate(-90) scale(0.1 -0.1)">
      <defs>
       <path id="DejaVuSans-28" d="M 628 4666 
L 3578 4666 
L 3578 4134 
L 1259 4134 
L 1259 2753 
L 3481 2753 
L 3481 2222 
L 1259 2222 
L 1259 531 
L 3634 531 
L 3634 0 
L 628 0 
L 628 4666 
z
" transform="scale(0.015625)"/>
       <path id="DejaVuSans-5b" d="M 3513 3500 
L 2247 1797 
L 3578 0 
L 2900 0 
L 1881 1375 
L 863 0 
L 184 0 
L 1544 1831 
L 300 3500 
L 978 3500 
L 1906 2253 
L 2834 3500 
L 3513 3500 
z
" transform="scale(0.015625)"/>
       <path id="DejaVuSans-57" d="M 1172 4494 
L 1172 3500 
L 2356 3500 
L 2356 3053 
L 1172 3053 
L 1172 1153 
Q 1172 725 1289 603 
Q 1406 481 1766 481 
L 2356 481 
L 2356 0 
L 1766 0 
Q 1100 0 847 248 
Q 594 497 594 1153 
L 594 3053 
L 172 3053 
L 172 3500 
L 594 3500 
L 594 4494 
L 1172 4494 
z
" transform="scale(0.015625)"/>
       <path id="DejaVuSans-55" d="M 2631 2963 
Q 2534 3019 2420 3045 
Q 2306 3072 2169 3072 
Q 1681 3072 1420 2755 
Q 1159 2438 1159 1844 
L 1159 0 
L 581 0 
L 581 3500 
L 1159 3500 
L 1159 2956 
Q 1341 3275 1631 3429 
Q 1922 3584 2338 3584 
Q 2397 3584 2469 3576 
Q 2541 3569 2628 3553 
L 2631 2963 
z
" transform="scale(0.015625)"/>
       <path id="DejaVuSans-44" d="M 2194 1759 
Q 1497 1759 1228 1600 
Q 959 1441 959 1056 
Q 959 750 1161 570 
Q 1363 391 1709 391 
Q 2188 391 2477 730 
Q 2766 1069 2766 1631 
L 2766 1759 
L 2194 1759 
z
M 3341 1997 
L 3341 0 
L 2766 0 
L 2766 531 
Q 2569 213 2275 61 
Q 1981 -91 1556 -91 
Q 1019 -91 701 211 
Q 384 513 384 1019 
Q 384 1609 779 1909 
Q 1175 2209 1959 2209 
L 2766 2209 
L 2766 2266 
Q 2766 2663 2505 2880 
Q 2244 3097 1772 3097 
Q 1472 3097 1187 3025 
Q 903 2953 641 2809 
L 641 3341 
Q 956 3463 1253 3523 
Q 1550 3584 1831 3584 
Q 2591 3584 2966 3190 
Q 3341 2797 3341 1997 
z
" transform="scale(0.015625)"/>
       <path id="DejaVuSans-46" d="M 3122 3366 
L 3122 2828 
Q 2878 2963 2633 3030 
Q 2388 3097 2138 3097 
Q 1578 3097 1268 2742 
Q 959 2388 959 1747 
Q 959 1106 1268 751 
Q 1578 397 2138 397 
Q 2388 397 2633 464 
Q 2878 531 3122 666 
L 3122 134 
Q 2881 22 2623 -34 
Q 2366 -91 2075 -91 
Q 1284 -91 818 406 
Q 353 903 353 1747 
Q 353 2603 823 3093 
Q 1294 3584 2113 3584 
Q 2378 3584 2631 3529 
Q 2884 3475 3122 3366 
z
" transform="scale(0.015625)"/>
       <path id="DejaVuSans-48" d="M 3597 1894 
L 3597 1613 
L 953 1613 
Q 991 1019 1311 708 
Q 1631 397 2203 397 
Q 2534 397 2845 478 
Q 3156 559 3463 722 
L 3463 178 
Q 3153 47 2828 -22 
Q 2503 -91 2169 -91 
Q 1331 -91 842 396 
Q 353 884 353 1716 
Q 353 2575 817 3079 
Q 1281 3584 2069 3584 
Q 2775 3584 3186 3129 
Q 3597 2675 3597 1894 
z
M 3022 2063 
Q 3016 2534 2758 2815 
Q 2500 3097 2075 3097 
Q 1594 3097 1305 2825 
Q 1016 2553 972 2059 
L 3022 2063 
z
" transform="scale(0.015625)"/>
       <path id="DejaVuSans-4f" d="M 603 4863 
L 1178 4863 
L 1178 0 
L 603 0 
L 603 4863 
z
" transform="scale(0.015625)"/>
       <path id="DejaVuSans-58" d="M 544 1381 
L 544 3500 
L 1119 3500 
L 1119 1403 
Q 1119 906 1312 657 
Q 1506 409 1894 409 
Q 2359 409 2629 706 
Q 2900 1003 2900 1516 
L 2900 3500 
L 3475 3500 
L 3475 0 
L 2900 0 
L 2900 538 
Q 2691 219 2414 64 
Q 2138 -91 1772 -91 
Q 1169 -91 856 284 
Q 544 659 544 1381 
z
M 1991 3584 
L 1991 3584 
z
" transform="scale(0.015625)"/>
       <path id="DejaVuSans-3" transform="scale(0.015625)"/>
       <path id="DejaVuSans-52" d="M 1959 3097 
Q 1497 3097 1228 2736 
Q 959 2375 959 1747 
Q 959 1119 1226 758 
Q 1494 397 1959 397 
Q 2419 397 2687 759 
Q 2956 1122 2956 1747 
Q 2956 2369 2687 2733 
Q 2419 3097 1959 3097 
z
M 1959 3584 
Q 2709 3584 3137 3096 
Q 3566 2609 3566 1747 
Q 3566 888 3137 398 
Q 2709 -91 1959 -91 
Q 1206 -91 779 398 
Q 353 888 353 1747 
Q 353 2609 779 3096 
Q 1206 3584 1959 3584 
z
" transform="scale(0.015625)"/>
       <path id="DejaVuSans-56" d="M 2834 3397 
L 2834 2853 
Q 2591 2978 2328 3040 
Q 2066 3103 1784 3103 
Q 1356 3103 1142 2972 
Q 928 2841 928 2578 
Q 928 2378 1081 2264 
Q 1234 2150 1697 2047 
L 1894 2003 
Q 2506 1872 2764 1633 
Q 3022 1394 3022 966 
Q 3022 478 2636 193 
Q 2250 -91 1575 -91 
Q 1294 -91 989 -36 
Q 684 19 347 128 
L 347 722 
Q 666 556 975 473 
Q 1284 391 1588 391 
Q 1994 391 2212 530 
Q 2431 669 2431 922 
Q 2431 1156 2273 1281 
Q 2116 1406 1581 1522 
L 1381 1569 
Q 847 1681 609 1914 
Q 372 2147 372 2553 
Q 372 3047 722 3315 
Q 1072 3584 1716 3584 
Q 2034 3584 2315 3537 
Q 2597 3491 2834 3397 
z
" transform="scale(0.015625)"/>
      </defs>
      <use xlink:href="#DejaVuSans-28"/>
      <use xlink:href="#DejaVuSans-5b" transform="translate(63.1875 0)"/>
      <use xlink:href="#DejaVuSans-57" transform="translate(122.375 0)"/>
      <use xlink:href="#DejaVuSans-55" transform="translate(161.578125 0)"/>
      <use xlink:href="#DejaVuSans-44" transform="translate(202.6875 0)"/>
      <use xlink:href="#DejaVuSans-46" transform="translate(263.96875 0)"/>
      <use xlink:href="#DejaVuSans-48" transform="translate(318.953125 0)"/>
      <use xlink:href="#DejaVuSans-4f" transform="translate(380.484375 0)"/>
      <use xlink:href="#DejaVuSans-4f" transform="translate(408.265625 0)"/>
      <use xlink:href="#DejaVuSans-58" transform="translate(436.046875 0)"/>
      <use xlink:href="#DejaVuSans-4f" transform="translate(499.421875 0)"/>
      <use xlink:href="#DejaVuSans-44" transform="translate(527.203125 0)"/>
      <use xlink:href="#DejaVuSans-55" transform="translate(588.484375 0)"/>
      <use xlink:href="#DejaVuSans-3" transform="translate(629.59375 0)"/>
      <use xlink:href="#DejaVuSans-4f" transform="translate(661.375 0)"/>
      <use xlink:href="#DejaVuSans-44" transform="translate(689.15625 0)"/>
      <use xlink:href="#DejaVuSans-46" transform="translate(750.4375 0)"/>
      <use xlink:href="#DejaVuSans-57" transform="translate(805.421875 0)"/>
      <use xlink:href="#DejaVuSans-52" transform="translate(844.625 0)"/>
      <use xlink:href="#DejaVuSans-56" transform="translate(905.8125 0)"/>
      <use xlink:href="#DejaVuSans-48" transform="translate(957.90625 0)"/>
     </g>
    </g>
   </g>
   <g id="line2d_13">
    <path d="M 56.88098 92.472021 
L 156.138728 92.472021 
L 156.227764 11.260572 
L 156.89529 11.341784 
L 157.012896 11.66663 
L 157.057679 11.747841 
L 157.203772 13.209647 
L 157.322031 14.833876 
L 157.33585 14.915088 
L 157.479263 16.620528 
L 157.502796 16.701739 
L 158.012022 20.193832 
L 158.289058 20.599889 
L 158.34831 20.6811 
L 158.45741 20.762312 
L 158.901484 20.843523 
L 159.003067 21.168369 
L 159.257304 21.574426 
L 159.357338 21.980484 
L 159.477403 22.061695 
L 159.579775 22.548964 
L 159.611947 22.630175 
L 159.743221 23.604713 
L 159.906268 24.904096 
L 159.964184 24.985307 
L 160.090672 25.472576 
L 160.121792 25.553787 
L 160.224413 25.959845 
L 161.147951 30.913743 
L 161.485273 31.563434 
L 161.577172 31.725857 
L 161.64422 31.807069 
L 161.759072 32.131915 
L 161.869514 32.213126 
L 161.979664 32.619183 
L 162.127898 33.268875 
L 162.192234 33.350086 
L 162.317556 33.593721 
L 162.496927 33.999778 
L 162.562162 34.080989 
L 162.671062 34.243412 
L 162.91093 34.324624 
L 163.051103 34.811892 
L 163.213387 35.055527 
L 163.251524 35.136738 
L 163.372244 35.78643 
L 163.398312 35.867641 
L 163.789828 37.49187 
L 163.904208 37.897927 
L 164.516263 37.979139 
L 164.656421 38.466408 
L 165.193957 38.547619 
L 165.472385 39.197311 
L 165.780734 39.684579 
L 165.923804 40.659117 
L 166.048751 40.740328 
L 166.199787 40.983962 
L 166.297117 41.065174 
L 166.382087 41.146385 
L 166.463408 41.227597 
L 166.606332 41.796077 
L 166.674832 41.877288 
L 166.819234 42.283346 
L 166.892345 42.364557 
L 166.942197 42.445768 
L 167.171979 42.52698 
L 167.283798 42.933037 
L 167.429659 43.339094 
L 167.513256 43.420306 
L 167.631889 43.826363 
L 167.852417 44.151209 
L 167.92953 44.23242 
L 168.240704 46.100284 
L 168.270555 46.181495 
L 168.385405 46.668764 
L 168.411021 46.749975 
L 168.751302 48.049358 
L 168.774581 48.13057 
L 168.919781 48.536627 
L 168.98468 48.617839 
L 169.125277 49.592376 
L 169.170123 49.673587 
L 169.289889 50.160856 
L 169.385673 50.242067 
L 169.523967 50.485702 
L 169.581822 50.566913 
L 169.687661 50.648125 
L 169.760701 50.729336 
L 169.853752 50.810548 
L 170.016246 51.054182 
L 170.252397 51.216605 
L 170.580892 51.297816 
L 171.203949 52.678411 
L 171.40376 53.652948 
L 171.476963 53.73416 
L 171.587382 54.383851 
L 171.680536 54.465063 
L 171.829974 55.358389 
L 171.846003 55.4396 
L 171.898955 55.845657 
L 172.158108 57.957155 
L 172.17335 58.038367 
L 172.39165 59.743807 
L 172.409493 59.825018 
L 172.547847 60.312287 
L 172.698198 60.393499 
L 172.884491 60.961979 
L 172.962991 61.04319 
L 173.079028 61.61167 
L 173.230812 61.692882 
L 173.353371 61.855305 
L 173.662018 61.936516 
L 173.739435 62.017727 
L 173.953351 62.098939 
L 174.627187 62.18015 
L 174.726881 62.342573 
L 174.814698 62.423785 
L 175.101183 62.667419 
L 175.427715 62.748631 
L 175.538263 62.992265 
L 175.759619 63.804379 
L 175.837105 63.885591 
L 176.07991 65.022551 
L 176.115741 65.103762 
L 176.231155 65.997088 
L 176.237773 66.0783 
L 176.383891 66.484357 
L 176.44341 66.565569 
L 176.564837 67.134049 
L 176.597492 67.21526 
L 176.760756 67.946163 
L 176.784544 68.027375 
L 176.906107 68.595855 
L 177.098637 69.651604 
L 177.145067 69.732815 
L 177.272084 70.707352 
L 177.455789 71.844313 
L 177.477614 71.925524 
L 177.661314 72.737639 
L 177.945748 72.81885 
L 178.15491 73.062484 
L 178.311493 73.143696 
L 178.435794 73.712176 
L 178.935776 75.092771 
L 179.633986 75.173982 
L 179.727513 75.255194 
L 181.130915 75.336405 
L 181.370218 75.661251 
L 181.605188 75.742462 
L 181.709992 75.904885 
L 182.296139 75.986097 
L 182.861668 76.310942 
L 184.423364 76.392154 
L 184.506292 76.554577 
L 184.738548 76.635788 
L 185.196922 77.85396 
L 185.348516 77.935171 
L 185.483591 78.178806 
L 185.558154 78.260017 
L 186.062623 78.828497 
L 186.183279 78.909709 
L 186.801707 79.5594 
L 186.916291 79.803035 
L 187.301339 80.858783 
L 187.346843 80.939995 
L 187.520258 81.264841 
L 187.606562 81.346052 
L 187.717664 81.427264 
L 187.993409 81.508475 
L 188.101832 81.752109 
L 188.338494 81.833321 
L 188.439537 82.076955 
L 188.520358 82.158167 
L 188.595993 82.239378 
L 189.001717 82.320589 
L 189.17032 82.401801 
L 189.405776 82.483012 
L 189.510113 82.726647 
L 189.657467 82.88907 
L 189.725248 82.970281 
L 189.876316 83.051493 
L 189.91079 83.132704 
L 190.086559 83.376338 
L 190.494542 83.45755 
L 190.684753 83.701184 
L 190.852951 83.782396 
L 190.951623 83.863607 
L 191.190453 83.944818 
L 191.383787 84.107241 
L 191.888245 84.188453 
L 192.006516 84.269664 
L 192.250087 84.350876 
L 192.729908 84.513299 
L 193.003544 84.59451 
L 193.142055 84.675721 
L 193.197915 84.756933 
L 193.286235 85.000567 
L 193.419437 85.081779 
L 193.548503 85.16299 
L 193.702632 85.244202 
L 193.831152 85.406625 
L 194.526278 85.487836 
L 194.903781 85.73147 
L 195.458566 85.812682 
L 196.229796 86.137528 
L 196.296769 86.218739 
L 196.696085 86.29995 
L 196.934308 86.381162 
L 197.365426 86.462373 
L 197.658847 86.706008 
L 198.16934 86.787219 
L 198.305681 86.949642 
L 198.368433 87.112065 
L 198.473435 87.193276 
L 198.687686 87.518122 
L 199.027918 87.599334 
L 199.125601 87.842968 
L 199.45647 87.924179 
L 199.833481 88.086602 
L 200.399794 88.167814 
L 200.403094 88.249025 
L 200.902905 88.330237 
L 201.172663 88.411448 
L 201.776973 88.49266 
L 201.924896 88.573871 
L 202.737927 88.655082 
L 202.819379 88.736294 
L 205.239568 88.817505 
L 205.546987 88.979928 
L 206.255426 89.06114 
L 206.498533 89.223563 
L 207.596039 89.304774 
L 207.807399 89.385985 
L 209.27154 89.467197 
L 209.768557 89.62962 
L 209.88647 89.710831 
L 210.961858 89.792043 
L 211.119044 89.954466 
L 212.279315 90.035677 
L 212.653476 90.1981 
L 213.32466 90.279311 
L 213.383627 90.360523 
L 213.808424 90.441734 
L 216.172006 90.522946 
L 216.522223 90.604157 
L 217.617918 90.685369 
L 217.75078 90.76658 
L 218.685122 90.847792 
L 219.350214 91.010214 
L 252.710185 91.091426 
L 253.102568 91.172637 
L 269.838122 91.253849 
L 270.03775 91.33506 
L 274.262611 91.416272 
L 274.473486 91.497483 
L 308.185643 91.578695 
L 308.424049 91.659906 
L 312.422447 91.659906 
L 312.422447 91.659906 
" clip-path="url(#p3532d9ec68)" style="fill: none; stroke: #000000; stroke-width: 1.5; stroke-linecap: square"/>
   </g>
   <g id="patch_3">
    <path d="M 44.103906 96.532593 
L 44.103906 7.2 
" style="fill: none; stroke: #000000; stroke-width: 0.8; stroke-linejoin: miter; stroke-linecap: square"/>
   </g>
   <g id="patch_4">
    <path d="M 325.19952 96.532593 
L 325.19952 7.2 
" style="fill: none; stroke: #000000; stroke-width: 0.8; stroke-linejoin: miter; stroke-linecap: square"/>
   </g>
   <g id="patch_5">
    <path d="M 44.103906 96.532593 
L 325.19952 96.532593 
" style="fill: none; stroke: #000000; stroke-width: 0.8; stroke-linejoin: miter; stroke-linecap: square"/>
   </g>
   <g id="patch_6">
    <path d="M 44.103906 7.2 
L 325.19952 7.2 
" style="fill: none; stroke: #000000; stroke-width: 0.8; stroke-linejoin: miter; stroke-linecap: square"/>
   </g>
  </g>
  <g id="axes_2">
   <g id="patch_7">
    <path d="M 44.103906 195.365666 
L 325.19952 195.365666 
L 325.19952 106.033073 
L 44.103906 106.033073 
z
" style="fill: #ffffff"/>
   </g>
   <g id="matplotlib.axis_3">
    <g id="xtick_10">
     <g id="line2d_14">
      <g>
       <use xlink:href="#m7ee041bee3" x="56.88098" y="195.365666" style="stroke: #000000; stroke-width: 0.8"/>
      </g>
     </g>
    </g>
    <g id="xtick_11">
     <g id="line2d_15">
      <g>
       <use xlink:href="#m7ee041bee3" x="88.789539" y="195.365666" style="stroke: #000000; stroke-width: 0.8"/>
      </g>
     </g>
    </g>
    <g id="xtick_12">
     <g id="line2d_16">
      <g>
       <use xlink:href="#m7ee041bee3" x="120.698098" y="195.365666" style="stroke: #000000; stroke-width: 0.8"/>
      </g>
     </g>
    </g>
    <g id="xtick_13">
     <g id="line2d_17">
      <g>
       <use xlink:href="#m7ee041bee3" x="152.606657" y="195.365666" style="stroke: #000000; stroke-width: 0.8"/>
      </g>
     </g>
    </g>
    <g id="xtick_14">
     <g id="line2d_18">
      <g>
       <use xlink:href="#m7ee041bee3" x="184.515217" y="195.365666" style="stroke: #000000; stroke-width: 0.8"/>
      </g>
     </g>
    </g>
    <g id="xtick_15">
     <g id="line2d_19">
      <g>
       <use xlink:href="#m7ee041bee3" x="216.423776" y="195.365666" style="stroke: #000000; stroke-width: 0.8"/>
      </g>
     </g>
    </g>
    <g id="xtick_16">
     <g id="line2d_20">
      <g>
       <use xlink:href="#m7ee041bee3" x="248.332335" y="195.365666" style="stroke: #000000; stroke-width: 0.8"/>
      </g>
     </g>
    </g>
    <g id="xtick_17">
     <g id="line2d_21">
      <g>
       <use xlink:href="#m7ee041bee3" x="280.240895" y="195.365666" style="stroke: #000000; stroke-width: 0.8"/>
      </g>
     </g>
    </g>
    <g id="xtick_18">
     <g id="line2d_22">
      <g>
       <use xlink:href="#m7ee041bee3" x="312.149454" y="195.365666" style="stroke: #000000; stroke-width: 0.8"/>
      </g>
     </g>
    </g>
   </g>
   <g id="matplotlib.axis_4">
    <g id="ytick_4">
     <g id="line2d_23">
      <g>
       <use xlink:href="#m57c2511b70" x="44.103906" y="191.305093" style="stroke: #000000; stroke-width: 0.8"/>
      </g>
     </g>
     <g id="text_5">
      <!-- 0 -->
      <g transform="translate(30.741406 195.103922) scale(0.1 -0.1)">
       <use xlink:href="#DejaVuSans-13"/>
      </g>
     </g>
    </g>
    <g id="ytick_5">
     <g id="line2d_24">
      <g>
       <use xlink:href="#m57c2511b70" x="44.103906" y="150.699369" style="stroke: #000000; stroke-width: 0.8"/>
      </g>
     </g>
     <g id="text_6">
      <!-- 5 -->
      <g transform="translate(30.741406 154.498197) scale(0.1 -0.1)">
       <use xlink:href="#DejaVuSans-18"/>
      </g>
     </g>
    </g>
    <g id="ytick_6">
     <g id="line2d_25">
      <g>
       <use xlink:href="#m57c2511b70" x="44.103906" y="110.093645" style="stroke: #000000; stroke-width: 0.8"/>
      </g>
     </g>
     <g id="text_7">
      <!-- 10 -->
      <g transform="translate(24.378906 113.892473) scale(0.1 -0.1)">
       <use xlink:href="#DejaVuSans-14"/>
       <use xlink:href="#DejaVuSans-13" transform="translate(63.625 0)"/>
      </g>
     </g>
    </g>
    <g id="text_8">
     <!-- LacY -->
     <g transform="translate(17.976563 162.352494) rotate(-90) scale(0.1 -0.1)">
      <defs>
       <path id="DejaVuSans-2f" d="M 628 4666 
L 1259 4666 
L 1259 531 
L 3531 531 
L 3531 0 
L 628 0 
L 628 4666 
z
" transform="scale(0.015625)"/>
       <path id="DejaVuSans-3c" d="M -13 4666 
L 666 4666 
L 1959 2747 
L 3244 4666 
L 3922 4666 
L 2272 2222 
L 2272 0 
L 1638 0 
L 1638 2222 
L -13 4666 
z
" transform="scale(0.015625)"/>
      </defs>
      <use xlink:href="#DejaVuSans-2f"/>
      <use xlink:href="#DejaVuSans-44" transform="translate(55.71875 0)"/>
      <use xlink:href="#DejaVuSans-46" transform="translate(117 0)"/>
      <use xlink:href="#DejaVuSans-3c" transform="translate(171.984375 0)"/>
     </g>
    </g>
   </g>
   <g id="line2d_26">
    <path d="M 56.88098 110.093645 
L 56.908103 110.093645 
L 56.96259 118.21479 
L 57.070742 134.45708 
L 57.131077 142.578225 
L 57.283163 142.578225 
L 57.300857 134.45708 
L 57.521416 142.578225 
L 57.663262 142.578225 
L 57.83389 158.820514 
L 58.13475 175.062804 
L 58.20036 191.305093 
L 59.730143 191.305093 
L 59.896742 183.183949 
L 59.939478 191.305093 
L 64.961374 191.305093 
L 65.284286 183.183949 
L 65.394225 191.305093 
L 82.888055 191.305093 
L 83.082436 183.183949 
L 84.875511 191.305093 
L 84.890334 183.183949 
L 85.033521 175.062804 
L 85.038175 166.941659 
L 85.360294 175.062804 
L 85.587227 175.062804 
L 85.706845 191.305093 
L 85.767657 183.183949 
L 85.957859 183.183949 
L 86.096326 191.305093 
L 89.988039 191.305093 
L 90.377786 175.062804 
L 90.379087 166.941659 
L 90.877658 166.941659 
L 90.916321 183.183949 
L 91.688363 183.183949 
L 91.857265 175.062804 
L 92.201511 191.305093 
L 109.204446 191.305093 
L 109.31013 183.183949 
L 109.429821 183.183949 
L 109.568897 191.305093 
L 109.803868 191.305093 
L 109.845348 183.183949 
L 110.261258 183.183949 
L 110.611143 175.062804 
L 110.669483 183.183949 
L 110.84473 183.183949 
L 110.874305 191.305093 
L 119.632967 191.305093 
L 119.811375 183.183949 
L 121.911449 183.183949 
L 123.758767 191.305093 
L 131.526157 191.305093 
L 131.712408 183.183949 
L 131.999947 183.183949 
L 132.107716 191.305093 
L 136.44319 191.305093 
L 136.526914 183.183949 
L 136.548778 191.305093 
L 146.540713 191.305093 
L 146.801539 175.062804 
L 146.822369 183.183949 
L 146.851375 175.062804 
L 146.964478 166.941659 
L 146.969818 175.062804 
L 147.55452 175.062804 
L 148.171658 183.183949 
L 148.416973 183.183949 
L 148.732216 175.062804 
L 148.845092 175.062804 
L 149.916935 191.305093 
L 150.377078 191.305093 
L 150.428955 175.062804 
L 150.529824 175.062804 
L 150.682647 183.183949 
L 150.816358 183.183949 
L 151.359231 191.305093 
L 156.47737 191.305093 
L 156.905627 183.183949 
L 157.145906 150.699369 
L 157.427529 150.699369 
L 157.547629 166.941659 
L 157.597494 166.941659 
L 157.698389 158.820514 
L 157.785362 158.820514 
L 157.895163 175.062804 
L 157.923362 175.062804 
L 158.012022 183.183949 
L 158.363779 183.183949 
L 158.45741 191.305093 
L 158.8512 191.305093 
L 158.952405 183.183949 
L 159.133867 183.183949 
L 159.24096 175.062804 
L 159.386422 175.062804 
L 159.441691 183.183949 
L 159.496021 175.062804 
L 159.628461 175.062804 
L 159.746775 166.941659 
L 159.871444 166.941659 
L 159.99602 183.183949 
L 160.129762 183.183949 
L 160.252473 175.062804 
L 160.387532 175.062804 
L 160.508823 166.941659 
L 160.894634 166.941659 
L 161.011345 175.062804 
L 161.320738 175.062804 
L 161.390009 183.183949 
L 161.423793 175.062804 
L 161.633212 175.062804 
L 161.711848 183.183949 
L 161.822001 183.183949 
L 161.842412 191.305093 
L 161.904596 183.183949 
L 161.958538 183.183949 
L 162.074261 175.062804 
L 162.332133 175.062804 
L 162.437359 183.183949 
L 162.649406 183.183949 
L 162.68387 191.305093 
L 162.775983 191.305093 
L 162.864734 183.183949 
L 162.972826 183.183949 
L 163.074549 166.941659 
L 163.084041 175.062804 
L 163.145937 175.062804 
L 163.201125 183.183949 
L 163.252774 175.062804 
L 163.513197 175.062804 
L 163.614312 166.941659 
L 163.731499 175.062804 
L 163.864432 175.062804 
L 163.98411 191.305093 
L 164.08579 191.305093 
L 164.196799 183.183949 
L 164.197134 191.305093 
L 164.499068 175.062804 
L 164.502937 166.941659 
L 164.584342 183.183949 
L 164.605095 183.183949 
L 164.678386 183.183949 
L 164.790634 191.305093 
L 165.054816 191.305093 
L 165.189552 183.183949 
L 165.294454 175.062804 
L 165.396441 175.062804 
L 165.472385 183.183949 
L 165.658295 183.183949 
L 165.800035 166.941659 
L 165.824014 175.062804 
L 165.923804 175.062804 
L 165.954752 183.183949 
L 166.003913 175.062804 
L 166.248408 175.062804 
L 166.315048 183.183949 
L 166.440751 183.183949 
L 166.505284 175.062804 
L 166.544614 183.183949 
L 167.200167 183.183949 
L 167.313128 175.062804 
L 167.601752 175.062804 
L 167.733153 183.183949 
L 167.852417 183.183949 
L 168.114874 158.820514 
L 168.225944 166.941659 
L 168.244267 166.941659 
L 168.298063 175.062804 
L 168.354517 166.941659 
L 168.383837 166.941659 
L 168.483205 175.062804 
L 168.999538 175.062804 
L 169.103711 166.941659 
L 169.213659 175.062804 
L 169.533789 175.062804 
L 169.606805 183.183949 
L 169.638189 175.062804 
L 169.832936 175.062804 
L 169.943273 183.183949 
L 170.08805 183.183949 
L 170.195958 191.305093 
L 170.450805 191.305093 
L 170.65098 183.183949 
L 170.728312 183.183949 
L 170.84935 175.062804 
L 171.194545 175.062804 
L 171.293038 166.941659 
L 171.430776 166.941659 
L 171.507926 150.699369 
L 171.538394 158.820514 
L 171.617192 158.820514 
L 171.727998 150.699369 
L 171.757171 150.699369 
L 171.846003 158.820514 
L 172.00173 158.820514 
L 172.139958 150.699369 
L 172.268271 150.699369 
L 172.365944 142.578225 
L 172.378674 150.699369 
L 172.455971 150.699369 
L 172.575023 166.941659 
L 172.592771 166.941659 
L 172.662112 175.062804 
L 172.698198 166.941659 
L 172.709965 166.941659 
L 172.823582 158.820514 
L 172.927051 166.941659 
L 173.128293 166.941659 
L 173.239493 175.062804 
L 173.269066 175.062804 
L 173.353371 191.305093 
L 173.470873 191.305093 
L 173.614933 183.183949 
L 173.879101 183.183949 
L 173.953351 191.305093 
L 174.477351 191.305093 
L 174.596566 183.183949 
L 175.425716 183.183949 
L 175.538263 175.062804 
L 175.599539 175.062804 
L 175.759619 158.820514 
L 175.931747 158.820514 
L 176.056316 150.699369 
L 176.067694 150.699369 
L 176.175316 134.45708 
L 176.28966 134.45708 
L 176.383264 150.699369 
L 176.383891 142.578225 
L 176.451944 134.45708 
L 176.484477 142.578225 
L 176.521423 142.578225 
L 176.613166 150.699369 
L 176.689849 150.699369 
L 176.784544 158.820514 
L 176.834046 158.820514 
L 176.940154 150.699369 
L 176.988002 150.699369 
L 177.060132 134.45708 
L 177.098637 142.578225 
L 177.153748 142.578225 
L 177.266616 134.45708 
L 177.3239 134.45708 
L 177.436499 142.578225 
L 177.533787 142.578225 
L 177.640107 166.941659 
L 177.73721 166.941659 
L 177.822687 183.183949 
L 177.936996 183.183949 
L 178.018841 175.062804 
L 178.044683 183.183949 
L 178.298501 183.183949 
L 178.423376 166.941659 
L 178.582949 166.941659 
L 178.68869 150.699369 
L 178.694522 158.820514 
L 178.83423 158.820514 
L 178.935776 166.941659 
L 179.181469 183.183949 
L 179.409013 183.183949 
L 179.506397 175.062804 
L 179.507739 183.183949 
L 179.607057 183.183949 
L 179.710087 175.062804 
L 179.821416 191.305093 
L 180.429159 191.305093 
L 180.515415 183.183949 
L 180.53256 191.305093 
L 180.863616 191.305093 
L 180.961591 183.183949 
L 181.048156 191.305093 
L 181.099722 191.305093 
L 181.228546 183.183949 
L 181.97428 183.183949 
L 182.296139 175.062804 
L 182.395097 175.062804 
L 182.509108 183.183949 
L 182.679491 183.183949 
L 182.734369 191.305093 
L 183.184896 191.305093 
L 183.421968 183.183949 
L 183.478841 191.305093 
L 183.653502 191.305093 
L 183.940816 183.183949 
L 184.059233 191.305093 
L 184.269813 191.305093 
L 184.488175 166.941659 
L 184.567921 166.941659 
L 184.66065 175.062804 
L 184.733863 175.062804 
L 184.839915 158.820514 
L 184.893247 158.820514 
L 185.019582 150.699369 
L 185.052569 150.699369 
L 185.134319 166.941659 
L 185.16224 158.820514 
L 185.18107 158.820514 
L 185.255386 166.941659 
L 185.286455 158.820514 
L 185.309696 158.820514 
L 185.3765 150.699369 
L 185.397017 158.820514 
L 185.455855 158.820514 
L 185.558154 166.941659 
L 186.316064 166.941659 
L 186.410304 150.699369 
L 186.570906 150.699369 
L 186.630595 166.941659 
L 186.671602 158.820514 
L 186.712512 150.699369 
L 186.762805 158.820514 
L 186.952352 158.820514 
L 187.066358 142.578225 
L 187.191829 142.578225 
L 187.301339 150.699369 
L 187.442083 142.578225 
L 187.554243 142.578225 
L 187.557582 134.45708 
L 187.623746 158.820514 
L 187.625499 158.820514 
L 187.717664 158.820514 
L 187.732369 150.699369 
L 187.799751 158.820514 
L 187.837137 158.820514 
L 187.953312 166.941659 
L 188.00774 166.941659 
L 188.101832 175.062804 
L 188.709618 175.062804 
L 188.85934 166.941659 
L 188.978648 183.183949 
L 189.059314 175.062804 
L 189.082491 183.183949 
L 189.17032 183.183949 
L 189.375133 166.941659 
L 189.405908 166.941659 
L 189.472477 158.820514 
L 189.510113 166.941659 
L 189.851614 166.941659 
L 189.939936 158.820514 
L 189.957897 166.941659 
L 190.01779 175.062804 
L 190.462919 175.062804 
L 190.473165 166.941659 
L 190.540252 175.062804 
L 190.648268 175.062804 
L 190.774522 158.820514 
L 190.874734 175.062804 
L 190.951623 175.062804 
L 191.087982 183.183949 
L 191.383787 183.183949 
L 191.595497 175.062804 
L 191.870982 175.062804 
L 191.946775 166.941659 
L 191.95094 175.062804 
L 192.4068 175.062804 
L 192.523033 183.183949 
L 192.543369 183.183949 
L 192.601498 175.062804 
L 192.615643 183.183949 
L 192.814919 183.183949 
L 192.908064 175.062804 
L 192.981744 175.062804 
L 193.044011 166.941659 
L 193.184944 175.062804 
L 193.286235 158.820514 
L 193.445008 158.820514 
L 193.548503 175.062804 
L 193.69045 175.062804 
L 193.762567 183.183949 
L 193.831152 183.183949 
L 193.880385 175.062804 
L 194.015788 183.183949 
L 194.303497 158.820514 
L 194.62649 175.062804 
L 194.770381 175.062804 
L 194.869805 183.183949 
L 194.90093 183.183949 
L 194.903781 191.305093 
L 195.130358 183.183949 
L 195.215696 183.183949 
L 195.338071 191.305093 
L 195.458566 175.062804 
L 196.143357 175.062804 
L 196.198008 166.941659 
L 196.240633 175.062804 
L 196.296769 175.062804 
L 196.407385 183.183949 
L 196.548684 175.062804 
L 196.662591 175.062804 
L 196.804143 166.941659 
L 196.934308 183.183949 
L 197.118537 183.183949 
L 197.23477 175.062804 
L 197.33672 191.305093 
L 197.365426 183.183949 
L 197.637212 183.183949 
L 197.646371 191.305093 
L 197.746041 183.183949 
L 197.823616 183.183949 
L 197.837087 166.941659 
L 198.102062 166.941659 
L 198.16934 158.820514 
L 198.311961 158.820514 
L 198.368433 150.699369 
L 198.514429 150.699369 
L 198.574909 158.820514 
L 198.800151 158.820514 
L 198.854706 166.941659 
L 198.917717 166.941659 
L 198.985577 158.820514 
L 199.027918 166.941659 
L 199.221645 166.941659 
L 199.323212 158.820514 
L 199.619255 158.820514 
L 199.729365 166.941659 
L 199.786838 166.941659 
L 199.900187 175.062804 
L 200.782186 175.062804 
L 200.902905 158.820514 
L 201.029072 158.820514 
L 201.0881 150.699369 
L 201.101654 158.820514 
L 201.146565 158.820514 
L 201.172663 150.699369 
L 201.215152 166.941659 
L 201.239801 166.941659 
L 201.396362 150.699369 
L 201.570589 166.941659 
L 201.747403 166.941659 
L 201.766586 175.062804 
L 201.813264 166.941659 
L 201.871908 166.941659 
L 201.909275 175.062804 
L 201.976707 166.941659 
L 202.054145 166.941659 
L 202.141089 175.062804 
L 202.345669 175.062804 
L 202.46958 191.305093 
L 202.600609 191.305093 
L 202.742939 175.062804 
L 202.76644 183.183949 
L 202.819379 183.183949 
L 202.914668 175.062804 
L 202.924981 183.183949 
L 203.008025 183.183949 
L 203.188297 191.305093 
L 203.757267 183.183949 
L 203.90655 191.305093 
L 204.096456 183.183949 
L 204.556183 183.183949 
L 204.90106 191.305093 
L 204.973362 183.183949 
L 205.171249 175.062804 
L 205.348255 166.941659 
L 205.384332 166.941659 
L 205.546987 150.699369 
L 205.637101 158.820514 
L 205.830292 158.820514 
L 206.029355 166.941659 
L 206.085656 158.820514 
L 206.32755 150.699369 
L 206.498533 166.941659 
L 206.618221 166.941659 
L 206.923049 183.183949 
L 207.111016 175.062804 
L 207.198793 183.183949 
L 207.313114 191.305093 
L 207.433204 183.183949 
L 207.668664 183.183949 
L 207.782832 191.305093 
L 207.936379 175.062804 
L 208.111256 183.183949 
L 208.309533 175.062804 
L 208.332811 183.183949 
L 208.503881 183.183949 
L 208.544866 175.062804 
L 208.798734 175.062804 
L 208.824569 183.183949 
L 209.27154 175.062804 
L 209.792007 175.062804 
L 209.88647 191.305093 
L 209.966853 191.305093 
L 210.020222 183.183949 
L 210.298035 175.062804 
L 210.409387 175.062804 
L 210.888078 166.941659 
L 211.048395 158.820514 
L 211.193961 175.062804 
L 211.288435 183.183949 
L 211.434708 175.062804 
L 211.80142 175.062804 
L 211.87799 183.183949 
L 211.882944 175.062804 
L 211.983283 166.941659 
L 212.183079 175.062804 
L 212.279315 166.941659 
L 212.630101 166.941659 
L 212.734024 183.183949 
L 212.76681 175.062804 
L 212.933983 166.941659 
L 213.244728 166.941659 
L 213.383627 175.062804 
L 213.650336 175.062804 
L 213.939126 191.305093 
L 214.114844 183.183949 
L 214.548961 183.183949 
L 214.558237 191.305093 
L 214.738492 191.305093 
L 214.744088 183.183949 
L 214.94772 175.062804 
L 215.113085 175.062804 
L 215.161237 183.183949 
L 215.522283 183.183949 
L 215.680729 191.305093 
L 215.770283 183.183949 
L 215.929881 183.183949 
L 216.054846 175.062804 
L 216.111574 183.183949 
L 216.16038 175.062804 
L 216.337002 175.062804 
L 216.522223 166.941659 
L 216.600948 166.941659 
L 216.697454 191.305093 
L 217.065644 183.183949 
L 217.144154 183.183949 
L 217.363551 150.699369 
L 217.474706 158.820514 
L 217.561849 150.699369 
L 217.567128 158.820514 
L 217.661943 166.941659 
L 217.736612 166.941659 
L 217.860681 175.062804 
L 219.039015 175.062804 
L 219.139329 183.183949 
L 219.246592 175.062804 
L 219.348218 175.062804 
L 219.350214 183.183949 
L 219.682722 183.183949 
L 220.061961 191.305093 
L 231.960508 191.305093 
L 232.15055 183.183949 
L 232.38199 183.183949 
L 232.5005 175.062804 
L 232.821792 183.183949 
L 233.139784 166.941659 
L 233.182407 175.062804 
L 233.237654 166.941659 
L 233.259636 166.941659 
L 233.526668 175.062804 
L 233.892348 183.183949 
L 234.137441 183.183949 
L 234.285364 191.305093 
L 244.390332 191.305093 
L 244.675953 183.183949 
L 244.809472 191.305093 
L 252.575841 191.305093 
L 252.710185 183.183949 
L 252.924369 183.183949 
L 252.935048 191.305093 
L 257.808018 191.305093 
L 258.248427 175.062804 
L 258.460101 175.062804 
L 259.139806 183.183949 
L 259.25905 191.305093 
L 260.74737 191.305093 
L 260.900499 175.062804 
L 261.246846 183.183949 
L 261.318123 183.183949 
L 261.493418 191.305093 
L 268.934257 191.305093 
L 268.935852 183.183949 
L 269.397373 183.183949 
L 269.659565 166.941659 
L 269.838122 175.062804 
L 269.905849 175.062804 
L 270.03775 183.183949 
L 270.140553 183.183949 
L 270.180366 175.062804 
L 270.346631 183.183949 
L 270.509662 183.183949 
L 270.773472 175.062804 
L 270.912302 158.820514 
L 270.953469 158.820514 
L 271.122828 150.699369 
L 271.203986 158.820514 
L 271.469239 158.820514 
L 271.51015 142.578225 
L 271.578863 158.820514 
L 271.787738 158.820514 
L 272.039317 166.941659 
L 272.180211 166.941659 
L 272.233186 175.062804 
L 272.26794 166.941659 
L 272.441824 166.941659 
L 272.499031 158.820514 
L 272.523315 166.941659 
L 272.65194 175.062804 
L 272.860794 175.062804 
L 272.91048 183.183949 
L 273.078305 166.941659 
L 273.126328 175.062804 
L 273.235074 175.062804 
L 273.422235 166.941659 
L 273.44562 183.183949 
L 273.669967 175.062804 
L 273.689231 183.183949 
L 273.87271 183.183949 
L 273.998742 175.062804 
L 274.085998 183.183949 
L 274.33438 175.062804 
L 274.424668 175.062804 
L 274.520334 183.183949 
L 274.706336 183.183949 
L 274.972875 175.062804 
L 275.111046 183.183949 
L 275.30845 175.062804 
L 275.433222 183.183949 
L 275.487324 183.183949 
L 275.6788 175.062804 
L 275.768764 166.941659 
L 275.966639 175.062804 
L 276.239948 175.062804 
L 276.496852 183.183949 
L 277.039954 183.183949 
L 277.064368 191.305093 
L 286.877137 191.305093 
L 286.880193 183.183949 
L 286.909067 191.305093 
L 287.188099 183.183949 
L 287.388121 191.305093 
L 287.962566 191.305093 
L 288.194292 175.062804 
L 288.236927 191.305093 
L 294.95232 191.305093 
L 295.110567 183.183949 
L 295.127062 191.305093 
L 307.982717 191.305093 
L 308.027833 183.183949 
L 308.424049 183.183949 
L 309.268217 191.305093 
L 312.422447 191.305093 
L 312.422447 191.305093 
" clip-path="url(#p57acc71f3d)" style="fill: none; stroke: #000000; stroke-width: 1.5; stroke-linecap: square"/>
   </g>
   <g id="patch_8">
    <path d="M 44.103906 195.365666 
L 44.103906 106.033073 
" style="fill: none; stroke: #000000; stroke-width: 0.8; stroke-linejoin: miter; stroke-linecap: square"/>
   </g>
   <g id="patch_9">
    <path d="M 325.19952 195.365666 
L 325.19952 106.033073 
" style="fill: none; stroke: #000000; stroke-width: 0.8; stroke-linejoin: miter; stroke-linecap: square"/>
   </g>
   <g id="patch_10">
    <path d="M 44.103906 195.365666 
L 325.19952 195.365666 
" style="fill: none; stroke: #000000; stroke-width: 0.8; stroke-linejoin: miter; stroke-linecap: square"/>
   </g>
   <g id="patch_11">
    <path d="M 44.103906 106.033073 
L 325.19952 106.033073 
" style="fill: none; stroke: #000000; stroke-width: 0.8; stroke-linejoin: miter; stroke-linecap: square"/>
   </g>
  </g>
  <g id="axes_3">
   <g id="patch_12">
    <path d="M 44.103906 294.198739 
L 325.19952 294.198739 
L 325.19952 204.866146 
L 44.103906 204.866146 
z
" style="fill: #ffffff"/>
   </g>
   <g id="matplotlib.axis_5">
    <g id="xtick_19">
     <g id="line2d_27">
      <g>
       <use xlink:href="#m7ee041bee3" x="56.88098" y="294.198739" style="stroke: #000000; stroke-width: 0.8"/>
      </g>
     </g>
     <g id="text_9">
      <!-- 0 -->
      <g transform="translate(53.69973 308.796395) scale(0.1 -0.1)">
       <use xlink:href="#DejaVuSans-13"/>
      </g>
     </g>
    </g>
    <g id="xtick_20">
     <g id="line2d_28">
      <g>
       <use xlink:href="#m7ee041bee3" x="88.789539" y="294.198739" style="stroke: #000000; stroke-width: 0.8"/>
      </g>
     </g>
     <g id="text_10">
      <!-- 100 -->
      <g transform="translate(79.245789 308.796395) scale(0.1 -0.1)">
       <use xlink:href="#DejaVuSans-14"/>
       <use xlink:href="#DejaVuSans-13" transform="translate(63.625 0)"/>
       <use xlink:href="#DejaVuSans-13" transform="translate(127.25 0)"/>
      </g>
     </g>
    </g>
    <g id="xtick_21">
     <g id="line2d_29">
      <g>
       <use xlink:href="#m7ee041bee3" x="120.698098" y="294.198739" style="stroke: #000000; stroke-width: 0.8"/>
      </g>
     </g>
     <g id="text_11">
      <!-- 200 -->
      <g transform="translate(111.154348 308.796395) scale(0.1 -0.1)">
       <defs>
        <path id="DejaVuSans-15" d="M 1228 531 
L 3431 531 
L 3431 0 
L 469 0 
L 469 531 
Q 828 903 1448 1529 
Q 2069 2156 2228 2338 
Q 2531 2678 2651 2914 
Q 2772 3150 2772 3378 
Q 2772 3750 2511 3984 
Q 2250 4219 1831 4219 
Q 1534 4219 1204 4116 
Q 875 4013 500 3803 
L 500 4441 
Q 881 4594 1212 4672 
Q 1544 4750 1819 4750 
Q 2544 4750 2975 4387 
Q 3406 4025 3406 3419 
Q 3406 3131 3298 2873 
Q 3191 2616 2906 2266 
Q 2828 2175 2409 1742 
Q 1991 1309 1228 531 
z
" transform="scale(0.015625)"/>
       </defs>
       <use xlink:href="#DejaVuSans-15"/>
       <use xlink:href="#DejaVuSans-13" transform="translate(63.625 0)"/>
       <use xlink:href="#DejaVuSans-13" transform="translate(127.25 0)"/>
      </g>
     </g>
    </g>
    <g id="xtick_22">
     <g id="line2d_30">
      <g>
       <use xlink:href="#m7ee041bee3" x="152.606657" y="294.198739" style="stroke: #000000; stroke-width: 0.8"/>
      </g>
     </g>
     <g id="text_12">
      <!-- 300 -->
      <g transform="translate(143.062907 308.796395) scale(0.1 -0.1)">
       <defs>
        <path id="DejaVuSans-16" d="M 2597 2516 
Q 3050 2419 3304 2112 
Q 3559 1806 3559 1356 
Q 3559 666 3084 287 
Q 2609 -91 1734 -91 
Q 1441 -91 1130 -33 
Q 819 25 488 141 
L 488 750 
Q 750 597 1062 519 
Q 1375 441 1716 441 
Q 2309 441 2620 675 
Q 2931 909 2931 1356 
Q 2931 1769 2642 2001 
Q 2353 2234 1838 2234 
L 1294 2234 
L 1294 2753 
L 1863 2753 
Q 2328 2753 2575 2939 
Q 2822 3125 2822 3475 
Q 2822 3834 2567 4026 
Q 2313 4219 1838 4219 
Q 1578 4219 1281 4162 
Q 984 4106 628 3988 
L 628 4550 
Q 988 4650 1302 4700 
Q 1616 4750 1894 4750 
Q 2613 4750 3031 4423 
Q 3450 4097 3450 3541 
Q 3450 3153 3228 2886 
Q 3006 2619 2597 2516 
z
" transform="scale(0.015625)"/>
       </defs>
       <use xlink:href="#DejaVuSans-16"/>
       <use xlink:href="#DejaVuSans-13" transform="translate(63.625 0)"/>
       <use xlink:href="#DejaVuSans-13" transform="translate(127.25 0)"/>
      </g>
     </g>
    </g>
    <g id="xtick_23">
     <g id="line2d_31">
      <g>
       <use xlink:href="#m7ee041bee3" x="184.515217" y="294.198739" style="stroke: #000000; stroke-width: 0.8"/>
      </g>
     </g>
     <g id="text_13">
      <!-- 400 -->
      <g transform="translate(174.971467 308.796395) scale(0.1 -0.1)">
       <defs>
        <path id="DejaVuSans-17" d="M 2419 4116 
L 825 1625 
L 2419 1625 
L 2419 4116 
z
M 2253 4666 
L 3047 4666 
L 3047 1625 
L 3713 1625 
L 3713 1100 
L 3047 1100 
L 3047 0 
L 2419 0 
L 2419 1100 
L 313 1100 
L 313 1709 
L 2253 4666 
z
" transform="scale(0.015625)"/>
       </defs>
       <use xlink:href="#DejaVuSans-17"/>
       <use xlink:href="#DejaVuSans-13" transform="translate(63.625 0)"/>
       <use xlink:href="#DejaVuSans-13" transform="translate(127.25 0)"/>
      </g>
     </g>
    </g>
    <g id="xtick_24">
     <g id="line2d_32">
      <g>
       <use xlink:href="#m7ee041bee3" x="216.423776" y="294.198739" style="stroke: #000000; stroke-width: 0.8"/>
      </g>
     </g>
     <g id="text_14">
      <!-- 500 -->
      <g transform="translate(206.880026 308.796395) scale(0.1 -0.1)">
       <use xlink:href="#DejaVuSans-18"/>
       <use xlink:href="#DejaVuSans-13" transform="translate(63.625 0)"/>
       <use xlink:href="#DejaVuSans-13" transform="translate(127.25 0)"/>
      </g>
     </g>
    </g>
    <g id="xtick_25">
     <g id="line2d_33">
      <g>
       <use xlink:href="#m7ee041bee3" x="248.332335" y="294.198739" style="stroke: #000000; stroke-width: 0.8"/>
      </g>
     </g>
     <g id="text_15">
      <!-- 600 -->
      <g transform="translate(238.788585 308.796395) scale(0.1 -0.1)">
       <defs>
        <path id="DejaVuSans-19" d="M 2113 2584 
Q 1688 2584 1439 2293 
Q 1191 2003 1191 1497 
Q 1191 994 1439 701 
Q 1688 409 2113 409 
Q 2538 409 2786 701 
Q 3034 994 3034 1497 
Q 3034 2003 2786 2293 
Q 2538 2584 2113 2584 
z
M 3366 4563 
L 3366 3988 
Q 3128 4100 2886 4159 
Q 2644 4219 2406 4219 
Q 1781 4219 1451 3797 
Q 1122 3375 1075 2522 
Q 1259 2794 1537 2939 
Q 1816 3084 2150 3084 
Q 2853 3084 3261 2657 
Q 3669 2231 3669 1497 
Q 3669 778 3244 343 
Q 2819 -91 2113 -91 
Q 1303 -91 875 529 
Q 447 1150 447 2328 
Q 447 3434 972 4092 
Q 1497 4750 2381 4750 
Q 2619 4750 2861 4703 
Q 3103 4656 3366 4563 
z
" transform="scale(0.015625)"/>
       </defs>
       <use xlink:href="#DejaVuSans-19"/>
       <use xlink:href="#DejaVuSans-13" transform="translate(63.625 0)"/>
       <use xlink:href="#DejaVuSans-13" transform="translate(127.25 0)"/>
      </g>
     </g>
    </g>
    <g id="xtick_26">
     <g id="line2d_34">
      <g>
       <use xlink:href="#m7ee041bee3" x="280.240895" y="294.198739" style="stroke: #000000; stroke-width: 0.8"/>
      </g>
     </g>
     <g id="text_16">
      <!-- 700 -->
      <g transform="translate(270.697145 308.796395) scale(0.1 -0.1)">
       <defs>
        <path id="DejaVuSans-1a" d="M 525 4666 
L 3525 4666 
L 3525 4397 
L 1831 0 
L 1172 0 
L 2766 4134 
L 525 4134 
L 525 4666 
z
" transform="scale(0.015625)"/>
       </defs>
       <use xlink:href="#DejaVuSans-1a"/>
       <use xlink:href="#DejaVuSans-13" transform="translate(63.625 0)"/>
       <use xlink:href="#DejaVuSans-13" transform="translate(127.25 0)"/>
      </g>
     </g>
    </g>
    <g id="xtick_27">
     <g id="line2d_35">
      <g>
       <use xlink:href="#m7ee041bee3" x="312.149454" y="294.198739" style="stroke: #000000; stroke-width: 0.8"/>
      </g>
     </g>
     <g id="text_17">
      <!-- 800 -->
      <g transform="translate(302.605704 308.796395) scale(0.1 -0.1)">
       <defs>
        <path id="DejaVuSans-1b" d="M 2034 2216 
Q 1584 2216 1326 1975 
Q 1069 1734 1069 1313 
Q 1069 891 1326 650 
Q 1584 409 2034 409 
Q 2484 409 2743 651 
Q 3003 894 3003 1313 
Q 3003 1734 2745 1975 
Q 2488 2216 2034 2216 
z
M 1403 2484 
Q 997 2584 770 2862 
Q 544 3141 544 3541 
Q 544 4100 942 4425 
Q 1341 4750 2034 4750 
Q 2731 4750 3128 4425 
Q 3525 4100 3525 3541 
Q 3525 3141 3298 2862 
Q 3072 2584 2669 2484 
Q 3125 2378 3379 2068 
Q 3634 1759 3634 1313 
Q 3634 634 3220 271 
Q 2806 -91 2034 -91 
Q 1263 -91 848 271 
Q 434 634 434 1313 
Q 434 1759 690 2068 
Q 947 2378 1403 2484 
z
M 1172 3481 
Q 1172 3119 1398 2916 
Q 1625 2713 2034 2713 
Q 2441 2713 2670 2916 
Q 2900 3119 2900 3481 
Q 2900 3844 2670 4047 
Q 2441 4250 2034 4250 
Q 1625 4250 1398 4047 
Q 1172 3844 1172 3481 
z
" transform="scale(0.015625)"/>
       </defs>
       <use xlink:href="#DejaVuSans-1b"/>
       <use xlink:href="#DejaVuSans-13" transform="translate(63.625 0)"/>
       <use xlink:href="#DejaVuSans-13" transform="translate(127.25 0)"/>
      </g>
     </g>
    </g>
    <g id="text_18">
     <!-- Time -->
     <g transform="translate(172.415776 322.797176) scale(0.1 -0.1)">
      <defs>
       <path id="DejaVuSans-37" d="M -19 4666 
L 3928 4666 
L 3928 4134 
L 2272 4134 
L 2272 0 
L 1638 0 
L 1638 4134 
L -19 4134 
L -19 4666 
z
" transform="scale(0.015625)"/>
       <path id="DejaVuSans-4c" d="M 603 3500 
L 1178 3500 
L 1178 0 
L 603 0 
L 603 3500 
z
M 603 4863 
L 1178 4863 
L 1178 4134 
L 603 4134 
L 603 4863 
z
" transform="scale(0.015625)"/>
       <path id="DejaVuSans-50" d="M 3328 2828 
Q 3544 3216 3844 3400 
Q 4144 3584 4550 3584 
Q 5097 3584 5394 3201 
Q 5691 2819 5691 2113 
L 5691 0 
L 5113 0 
L 5113 2094 
Q 5113 2597 4934 2840 
Q 4756 3084 4391 3084 
Q 3944 3084 3684 2787 
Q 3425 2491 3425 1978 
L 3425 0 
L 2847 0 
L 2847 2094 
Q 2847 2600 2669 2842 
Q 2491 3084 2119 3084 
Q 1678 3084 1418 2786 
Q 1159 2488 1159 1978 
L 1159 0 
L 581 0 
L 581 3500 
L 1159 3500 
L 1159 2956 
Q 1356 3278 1631 3431 
Q 1906 3584 2284 3584 
Q 2666 3584 2933 3390 
Q 3200 3197 3328 2828 
z
" transform="scale(0.015625)"/>
      </defs>
      <use xlink:href="#DejaVuSans-37"/>
      <use xlink:href="#DejaVuSans-4c" transform="translate(58 0)"/>
      <use xlink:href="#DejaVuSans-50" transform="translate(85.78125 0)"/>
      <use xlink:href="#DejaVuSans-48" transform="translate(183.1875 0)"/>
     </g>
    </g>
   </g>
   <g id="matplotlib.axis_6">
    <g id="ytick_7">
     <g id="line2d_36">
      <g>
       <use xlink:href="#m57c2511b70" x="44.103906" y="290.138166" style="stroke: #000000; stroke-width: 0.8"/>
      </g>
     </g>
     <g id="text_19">
      <!-- 0.0 -->
      <g transform="translate(21.200781 293.936994) scale(0.1 -0.1)">
       <defs>
        <path id="DejaVuSans-11" d="M 684 794 
L 1344 794 
L 1344 0 
L 684 0 
L 684 794 
z
" transform="scale(0.015625)"/>
       </defs>
       <use xlink:href="#DejaVuSans-13"/>
       <use xlink:href="#DejaVuSans-11" transform="translate(63.625 0)"/>
       <use xlink:href="#DejaVuSans-13" transform="translate(95.40625 0)"/>
      </g>
     </g>
    </g>
    <g id="ytick_8">
     <g id="line2d_37">
      <g>
       <use xlink:href="#m57c2511b70" x="44.103906" y="249.532442" style="stroke: #000000; stroke-width: 0.8"/>
      </g>
     </g>
     <g id="text_20">
      <!-- 0.5 -->
      <g transform="translate(21.200781 253.33127) scale(0.1 -0.1)">
       <use xlink:href="#DejaVuSans-13"/>
       <use xlink:href="#DejaVuSans-11" transform="translate(63.625 0)"/>
       <use xlink:href="#DejaVuSans-18" transform="translate(95.40625 0)"/>
      </g>
     </g>
    </g>
    <g id="ytick_9">
     <g id="line2d_38">
      <g>
       <use xlink:href="#m57c2511b70" x="44.103906" y="208.926718" style="stroke: #000000; stroke-width: 0.8"/>
      </g>
     </g>
     <g id="text_21">
      <!-- 1.0 -->
      <g transform="translate(21.200781 212.725546) scale(0.1 -0.1)">
       <use xlink:href="#DejaVuSans-14"/>
       <use xlink:href="#DejaVuSans-11" transform="translate(63.625 0)"/>
       <use xlink:href="#DejaVuSans-13" transform="translate(95.40625 0)"/>
      </g>
     </g>
    </g>
    <g id="text_22">
     <!-- Free lac operon -->
     <g transform="translate(14.798438 288.006661) rotate(-90) scale(0.1 -0.1)">
      <defs>
       <path id="DejaVuSans-29" d="M 628 4666 
L 3309 4666 
L 3309 4134 
L 1259 4134 
L 1259 2759 
L 3109 2759 
L 3109 2228 
L 1259 2228 
L 1259 0 
L 628 0 
L 628 4666 
z
" transform="scale(0.015625)"/>
       <path id="DejaVuSans-53" d="M 1159 525 
L 1159 -1331 
L 581 -1331 
L 581 3500 
L 1159 3500 
L 1159 2969 
Q 1341 3281 1617 3432 
Q 1894 3584 2278 3584 
Q 2916 3584 3314 3078 
Q 3713 2572 3713 1747 
Q 3713 922 3314 415 
Q 2916 -91 2278 -91 
Q 1894 -91 1617 61 
Q 1341 213 1159 525 
z
M 3116 1747 
Q 3116 2381 2855 2742 
Q 2594 3103 2138 3103 
Q 1681 3103 1420 2742 
Q 1159 2381 1159 1747 
Q 1159 1113 1420 752 
Q 1681 391 2138 391 
Q 2594 391 2855 752 
Q 3116 1113 3116 1747 
z
" transform="scale(0.015625)"/>
       <path id="DejaVuSans-51" d="M 3513 2113 
L 3513 0 
L 2938 0 
L 2938 2094 
Q 2938 2591 2744 2837 
Q 2550 3084 2163 3084 
Q 1697 3084 1428 2787 
Q 1159 2491 1159 1978 
L 1159 0 
L 581 0 
L 581 3500 
L 1159 3500 
L 1159 2956 
Q 1366 3272 1645 3428 
Q 1925 3584 2291 3584 
Q 2894 3584 3203 3211 
Q 3513 2838 3513 2113 
z
" transform="scale(0.015625)"/>
      </defs>
      <use xlink:href="#DejaVuSans-29"/>
      <use xlink:href="#DejaVuSans-55" transform="translate(50.234375 0)"/>
      <use xlink:href="#DejaVuSans-48" transform="translate(89.140625 0)"/>
      <use xlink:href="#DejaVuSans-48" transform="translate(150.671875 0)"/>
      <use xlink:href="#DejaVuSans-3" transform="translate(212.203125 0)"/>
      <use xlink:href="#DejaVuSans-4f" transform="translate(243.984375 0)"/>
      <use xlink:href="#DejaVuSans-44" transform="translate(271.765625 0)"/>
      <use xlink:href="#DejaVuSans-46" transform="translate(333.046875 0)"/>
      <use xlink:href="#DejaVuSans-3" transform="translate(388.03125 0)"/>
      <use xlink:href="#DejaVuSans-52" transform="translate(419.8125 0)"/>
      <use xlink:href="#DejaVuSans-53" transform="translate(481 0)"/>
      <use xlink:href="#DejaVuSans-48" transform="translate(544.484375 0)"/>
      <use xlink:href="#DejaVuSans-55" transform="translate(606.015625 0)"/>
      <use xlink:href="#DejaVuSans-52" transform="translate(644.921875 0)"/>
      <use xlink:href="#DejaVuSans-51" transform="translate(706.109375 0)"/>
     </g>
    </g>
   </g>
   <g id="line2d_39">
    <path d="M 56.88098 208.926718 
L 56.96259 290.138166 
L 57.131077 290.138166 
L 57.300857 208.926718 
L 57.419163 208.926718 
L 57.521416 290.138166 
L 58.739129 290.138166 
L 59.730143 208.926718 
L 59.916706 208.926718 
L 59.939478 290.138166 
L 62.363787 290.138166 
L 64.961374 208.926718 
L 65.256618 208.926718 
L 65.394225 290.138166 
L 65.520246 290.138166 
L 72.190548 208.926718 
L 72.360539 290.138166 
L 80.209392 208.926718 
L 80.258487 290.138166 
L 82.888055 208.926718 
L 83.02821 208.926718 
L 83.082436 290.138166 
L 84.824824 290.138166 
L 84.890334 208.926718 
L 85.767657 208.926718 
L 85.957859 290.138166 
L 86.991916 290.138166 
L 89.988039 208.926718 
L 90.528679 208.926718 
L 90.557993 290.138166 
L 90.916321 290.138166 
L 91.79875 208.926718 
L 91.857265 290.138166 
L 92.201511 290.138166 
L 109.296412 208.926718 
L 109.31013 290.138166 
L 109.568897 290.138166 
L 109.845348 208.926718 
L 110.133038 290.138166 
L 110.261258 208.926718 
L 110.669483 208.926718 
L 110.874305 290.138166 
L 111.167288 290.138166 
L 115.334279 208.926718 
L 115.995671 290.138166 
L 117.639612 208.926718 
L 117.955209 290.138166 
L 118.628412 208.926718 
L 118.715838 290.138166 
L 119.726367 208.926718 
L 119.811375 290.138166 
L 123.758767 290.138166 
L 129.784579 208.926718 
L 129.890648 290.138166 
L 131.634936 208.926718 
L 132.08625 208.926718 
L 132.107716 290.138166 
L 133.950135 290.138166 
L 136.548778 208.926718 
L 136.562101 290.138166 
L 139.44649 208.926718 
L 139.489271 290.138166 
L 146.540713 208.926718 
L 147.486128 208.926718 
L 147.55452 290.138166 
L 148.171658 290.138166 
L 148.416973 208.926718 
L 148.732216 208.926718 
L 148.845092 290.138166 
L 149.916935 290.138166 
L 150.428955 208.926718 
L 150.529824 290.138166 
L 151.652211 290.138166 
L 151.663545 208.926718 
L 151.825268 290.138166 
L 156.138728 208.926718 
L 156.227764 290.138166 
L 156.47737 208.926718 
L 199.323212 208.926718 
L 199.45647 290.138166 
L 200.557825 290.138166 
L 200.817748 208.926718 
L 217.5429 208.926718 
L 217.661943 290.138166 
L 218.937043 290.138166 
L 219.039015 208.926718 
L 219.347401 208.926718 
L 219.350214 290.138166 
L 220.975066 290.138166 
L 225.955043 208.926718 
L 226.012157 290.138166 
L 228.062069 208.926718 
L 228.09105 290.138166 
L 232.062247 208.926718 
L 232.15055 290.138166 
L 232.36061 290.138166 
L 232.38199 208.926718 
L 233.237654 208.926718 
L 233.259636 290.138166 
L 233.892348 290.138166 
L 234.107906 208.926718 
L 234.213401 290.138166 
L 234.505657 290.138166 
L 240.402745 208.926718 
L 240.425176 290.138166 
L 244.390332 208.926718 
L 245.014735 208.926718 
L 245.169881 290.138166 
L 249.583843 208.926718 
L 249.605896 290.138166 
L 252.661648 208.926718 
L 252.698076 290.138166 
L 252.710185 208.926718 
L 252.935048 208.926718 
L 253.102568 290.138166 
L 253.613738 208.926718 
L 253.646122 290.138166 
L 253.867358 290.138166 
L 254.019884 208.926718 
L 254.069546 290.138166 
L 257.808018 208.926718 
L 258.293549 208.926718 
L 258.303371 290.138166 
L 259.121805 290.138166 
L 259.139806 208.926718 
L 259.25905 208.926718 
L 259.644977 290.138166 
L 260.74737 208.926718 
L 260.870409 208.926718 
L 260.900499 290.138166 
L 261.493418 290.138166 
L 261.777681 208.926718 
L 262.001977 290.138166 
L 265.49153 208.926718 
L 265.714958 290.138166 
L 266.54141 208.926718 
L 266.626515 290.138166 
L 268.585316 208.926718 
L 268.837846 290.138166 
L 268.935852 208.926718 
L 269.322004 290.138166 
L 269.397373 208.926718 
L 276.396577 208.926718 
L 276.496852 290.138166 
L 277.064368 290.138166 
L 277.73437 208.926718 
L 278.096804 290.138166 
L 286.909067 208.926718 
L 287.333469 208.926718 
L 287.388121 290.138166 
L 288.023672 208.926718 
L 288.176119 208.926718 
L 288.236927 290.138166 
L 288.617722 290.138166 
L 288.632372 208.926718 
L 288.695448 290.138166 
L 288.978599 290.138166 
L 290.480933 208.926718 
L 290.501504 290.138166 
L 295.060682 208.926718 
L 295.127062 290.138166 
L 295.405033 290.138166 
L 297.075107 208.926718 
L 297.421782 290.138166 
L 308.027833 208.926718 
L 308.185643 290.138166 
L 311.192075 290.138166 
L 312.422447 208.926718 
L 312.422447 208.926718 
" clip-path="url(#p666448715f)" style="fill: none; stroke: #000000; stroke-width: 1.5; stroke-linecap: square"/>
   </g>
   <g id="patch_13">
    <path d="M 44.103906 294.198739 
L 44.103906 204.866146 
" style="fill: none; stroke: #000000; stroke-width: 0.8; stroke-linejoin: miter; stroke-linecap: square"/>
   </g>
   <g id="patch_14">
    <path d="M 325.19952 294.198739 
L 325.19952 204.866146 
" style="fill: none; stroke: #000000; stroke-width: 0.8; stroke-linejoin: miter; stroke-linecap: square"/>
   </g>
   <g id="patch_15">
    <path d="M 44.103906 294.198739 
L 325.19952 294.198739 
" style="fill: none; stroke: #000000; stroke-width: 0.8; stroke-linejoin: miter; stroke-linecap: square"/>
   </g>
   <g id="patch_16">
    <path d="M 44.103906 204.866146 
L 325.19952 204.866146 
" style="fill: none; stroke: #000000; stroke-width: 0.8; stroke-linejoin: miter; stroke-linecap: square"/>
   </g>
  </g>
 </g>
 <defs>
  <clipPath id="p3532d9ec68">
   <rect x="44.103906" y="7.2" width="281.095614" height="89.332593"/>
  </clipPath>
  <clipPath id="p57acc71f3d">
   <rect x="44.103906" y="106.033073" width="281.095614" height="89.332593"/>
  </clipPath>
  <clipPath id="p666448715f">
   <rect x="44.103906" y="204.866146" width="281.095614" height="89.332593"/>
  </clipPath>
 </defs>
</svg>
