<?xml version="1.0" encoding="utf-8" standalone="no"?>
<!DOCTYPE svg PUBLIC "-//W3C//DTD SVG 1.1//EN"
  "http://www.w3.org/Graphics/SVG/1.1/DTD/svg11.dtd">
<svg xmlns:xlink="http://www.w3.org/1999/xlink" width="332.39952pt" height="332.39952pt" viewBox="0 0 332.39952 332.39952" xmlns="http://www.w3.org/2000/svg" version="1.1">
 <metadata>
  <rdf:RDF xmlns:dc="http://purl.org/dc/elements/1.1/" xmlns:cc="http://creativecommons.org/ns#" xmlns:rdf="http://www.w3.org/1999/02/22-rdf-syntax-ns#">
   <cc:Work>
    <dc:type rdf:resource="http://purl.org/dc/dcmitype/StillImage"/>
    <dc:date>2026-07-10T14:32:01.836221</dc:date>
    <dc:format>image/svg+xml</dc:format>
    <dc:creator>
     <cc:Agent>
      <dc:title>Matplotlib v3.11.0, https://matplotlib.org/</dc:title>
     </cc:Agent>
    </dc:creator>
   </cc:Work>
  </rdf:RDF>
 </metadata>
 <defs>
  <style type="text/css">*{stroke-linejoin: round; stroke-linecap: butt}</style>
 </defs>
 <g id="figure_1">
  <g id="patch_1">
   <path d="M 0 332.39952 
L 332.39952 332.39952 
L 332.39952 0 
L 0 0 
z
" style="fill: #ffffff"/>
  </g>
  <g id="axes_1">
   <g id="patch_2">
    <path d="M 44.103906 96.532593 
L 325.19952 96.532593 
L 325.19952 7.2 
L 44.103906 7.2 
z
" style="fill: #ffffff"/>
   </g>
   <g id="matplotlib.axis_1">
    <g id="xtick_1">
     <g id="line2d_1">
      <defs>
       <path id="m062ededf1b" d="M 0 0 
L 0 3.5 
" style="stroke: #000000; stroke-width: 0.8"/>
      </defs>
      <g>
       <use xlink:href="#m062ededf1b" x="56.88098" y="96.532593" style="stroke: #000000; stroke-width: 0.8"/>
      </g>
     </g>
    </g>
    <g id="xtick_2">
     <g id="line2d_2">
      <g>
       <use xlink:href="#m062ededf1b" x="88.543411" y="96.532593" style="stroke: #000000; stroke-width: 0.8"/>
      </g>
     </g>
    </g>
    <g id="xtick_3">
     <g id="line2d_3">
      <g>
       <use xlink:href="#m062ededf1b" x="120.205842" y="96.532593" style="stroke: #000000; stroke-width: 0.8"/>
      </g>
     </g>
    </g>
    <g id="xtick_4">
     <g id="line2d_4">
      <g>
       <use xlink:href="#m062ededf1b" x="151.868273" y="96.532593" style="stroke: #000000; stroke-width: 0.8"/>
      </g>
     </g>
    </g>
    <g id="xtick_5">
     <g id="line2d_5">
      <g>
       <use xlink:href="#m062ededf1b" x="183.530705" y="96.532593" style="stroke: #000000; stroke-width: 0.8"/>
      </g>
     </g>
    </g>
    <g id="xtick_6">
     <g id="line2d_6">
      <g>
       <use xlink:href="#m062ededf1b" x="215.193136" y="96.532593" style="stroke: #000000; stroke-width: 0.8"/>
      </g>
     </g>
    </g>
    <g id="xtick_7">
     <g id="line2d_7">
      <g>
       <use xlink:href="#m062ededf1b" x="246.855567" y="96.532593" style="stroke: #000000; stroke-width: 0.8"/>
      </g>
     </g>
    </g>
    <g id="xtick_8">
     <g id="line2d_8">
      <g>
       <use xlink:href="#m062ededf1b" x="278.517998" y="96.532593" style="stroke: #000000; stroke-width: 0.8"/>
      </g>
     </g>
    </g>
    <g id="xtick_9">
     <g id="line2d_9">
      <g>
       <use xlink:href="#m062ededf1b" x="310.18043" y="96.532593" style="stroke: #000000; stroke-width: 0.8"/>
      </g>
     </g>
    </g>
   </g>
   <g id="matplotlib.axis_2">
    <g id="ytick_1">
     <g id="line2d_10">
      <defs>
       <path id="maf2c71c175" d="M 0 0 
L -3.5 0 
" style="stroke: #000000; stroke-width: 0.8"/>
      </defs>
      <g>
       <use xlink:href="#maf2c71c175" x="44.103906" y="92.472021" style="stroke: #000000; stroke-width: 0.8"/>
      </g>
     </g>
     <g id="text_1">
      <!-- 0 -->
      <g transform="translate(30.741406 96.270849) scale(0.1 -0.1)">
       <defs>
        <path id="DejaVuSans-13" d="M 2034 4250 
Q 1547 4250 1301 3770 
Q 1056 3291 1056 2328 
Q 1056 1369 1301 889 
Q 1547 409 2034 409 
Q 2525 409 2770 889 
Q 3016 1369 3016 2328 
Q 3016 3291 2770 3770 
Q 2525 4250 2034 4250 
z
M 2034 4750 
Q 2819 4750 3233 4129 
Q 3647 3509 3647 2328 
Q 3647 1150 3233 529 
Q 2819 -91 2034 -91 
Q 1250 -91 836 529 
Q 422 1150 422 2328 
Q 422 3509 836 4129 
Q 1250 4750 2034 4750 
z
" transform="scale(0.015625)"/>
       </defs>
       <use xlink:href="#DejaVuSans-13"/>
      </g>
     </g>
    </g>
    <g id="ytick_2">
     <g id="line2d_11">
      <g>
       <use xlink:href="#maf2c71c175" x="44.103906" y="51.866296" style="stroke: #000000; stroke-width: 0.8"/>
      </g>
     </g>
     <g id="text_2">
      <!-- 5 -->
      <g transform="translate(30.741406 55.665125) scale(0.1 -0.1)">
       <defs>
        <path id="DejaVuSans-18" d="M 691 4666 
L 3169 4666 
L 3169 4134 
L 1269 4134 
L 1269 2991 
Q 1406 3038 1543 3061 
Q 1681 3084 1819 3084 
Q 2600 3084 3056 2656 
Q 3513 2228 3513 1497 
Q 3513 744 3044 326 
Q 2575 -91 1722 -91 
Q 1428 -91 1123 -41 
Q 819 9 494 109 
L 494 744 
Q 775 591 1075 516 
Q 1375 441 1709 441 
Q 2250 441 2565 725 
Q 2881 1009 2881 1497 
Q 2881 1984 2565 2268 
Q 2250 2553 1709 2553 
Q 1456 2553 1204 2497 
Q 953 2441 691 2322 
L 691 4666 
z
" transform="scale(0.015625)"/>
       </defs>
       <use xlink:href="#DejaVuSans-18"/>
      </g>
     </g>
    </g>
    <g id="ytick_3">
     <g id="line2d_12">
      <g>
       <use xlink:href="#maf2c71c175" x="44.103906" y="11.260572" style="stroke: #000000; stroke-width: 0.8"/>
      </g>
     </g>
     <g id="text_3">
      <!-- 10 -->
      <g transform="translate(24.378906 15.059401) scale(0.1 -0.1)">
       <defs>
        <path id="DejaVuSans-14" d="M 794 531 
L 1825 531 
L 1825 4091 
L 703 3866 
L 703 4441 
L 1819 4666 
L 2450 4666 
L 2450 531 
L 3481 531 
L 3481 0 
L 794 0 
L 794 531 
z
" transform="scale(0.015625)"/>
       </defs>
       <use xlink:href="#DejaVuSans-14"/>
       <use xlink:href="#DejaVuSans-13" transform="translate(63.625 0)"/>
      </g>
     </g>
    </g>
    <g id="text_4">
     <!-- Extracellular lactose -->
     <g transform="translate(17.976563 102.838171) rotate(-90) scale(0.1 -0.1)">
      <defs>
       <path id="DejaVuSans-28" d="M 628 4666 
L 3578 4666 
L 3578 4134 
L 1259 4134 
L 1259 2753 
L 3481 2753 
L 3481 2222 
L 1259 2222 
L 1259 531 
L 3634 531 
L 3634 0 
L 628 0 
L 628 4666 
z
" transform="scale(0.015625)"/>
       <path id="DejaVuSans-5b" d="M 3513 3500 
L 2247 1797 
L 3578 0 
L 2900 0 
L 1881 1375 
L 863 0 
L 184 0 
L 1544 1831 
L 300 3500 
L 978 3500 
L 1906 2253 
L 2834 3500 
L 3513 3500 
z
" transform="scale(0.015625)"/>
       <path id="DejaVuSans-57" d="M 1172 4494 
L 1172 3500 
L 2356 3500 
L 2356 3053 
L 1172 3053 
L 1172 1153 
Q 1172 725 1289 603 
Q 1406 481 1766 481 
L 2356 481 
L 2356 0 
L 1766 0 
Q 1100 0 847 248 
Q 594 497 594 1153 
L 594 3053 
L 172 3053 
L 172 3500 
L 594 3500 
L 594 4494 
L 1172 4494 
z
" transform="scale(0.015625)"/>
       <path id="DejaVuSans-55" d="M 2631 2963 
Q 2534 3019 2420 3045 
Q 2306 3072 2169 3072 
Q 1681 3072 1420 2755 
Q 1159 2438 1159 1844 
L 1159 0 
L 581 0 
L 581 3500 
L 1159 3500 
L 1159 2956 
Q 1341 3275 1631 3429 
Q 1922 3584 2338 3584 
Q 2397 3584 2469 3576 
Q 2541 3569 2628 3553 
L 2631 2963 
z
" transform="scale(0.015625)"/>
       <path id="DejaVuSans-44" d="M 2194 1759 
Q 1497 1759 1228 1600 
Q 959 1441 959 1056 
Q 959 750 1161 570 
Q 1363 391 1709 391 
Q 2188 391 2477 730 
Q 2766 1069 2766 1631 
L 2766 1759 
L 2194 1759 
z
M 3341 1997 
L 3341 0 
L 2766 0 
L 2766 531 
Q 2569 213 2275 61 
Q 1981 -91 1556 -91 
Q 1019 -91 701 211 
Q 384 513 384 1019 
Q 384 1609 779 1909 
Q 1175 2209 1959 2209 
L 2766 2209 
L 2766 2266 
Q 2766 2663 2505 2880 
Q 2244 3097 1772 3097 
Q 1472 3097 1187 3025 
Q 903 2953 641 2809 
L 641 3341 
Q 956 3463 1253 3523 
Q 1550 3584 1831 3584 
Q 2591 3584 2966 3190 
Q 3341 2797 3341 1997 
z
" transform="scale(0.015625)"/>
       <path id="DejaVuSans-46" d="M 3122 3366 
L 3122 2828 
Q 2878 2963 2633 3030 
Q 2388 3097 2138 3097 
Q 1578 3097 1268 2742 
Q 959 2388 959 1747 
Q 959 1106 1268 751 
Q 1578 397 2138 397 
Q 2388 397 2633 464 
Q 2878 531 3122 666 
L 3122 134 
Q 2881 22 2623 -34 
Q 2366 -91 2075 -91 
Q 1284 -91 818 406 
Q 353 903 353 1747 
Q 353 2603 823 3093 
Q 1294 3584 2113 3584 
Q 2378 3584 2631 3529 
Q 2884 3475 3122 3366 
z
" transform="scale(0.015625)"/>
       <path id="DejaVuSans-48" d="M 3597 1894 
L 3597 1613 
L 953 1613 
Q 991 1019 1311 708 
Q 1631 397 2203 397 
Q 2534 397 2845 478 
Q 3156 559 3463 722 
L 3463 178 
Q 3153 47 2828 -22 
Q 2503 -91 2169 -91 
Q 1331 -91 842 396 
Q 353 884 353 1716 
Q 353 2575 817 3079 
Q 1281 3584 2069 3584 
Q 2775 3584 3186 3129 
Q 3597 2675 3597 1894 
z
M 3022 2063 
Q 3016 2534 2758 2815 
Q 2500 3097 2075 3097 
Q 1594 3097 1305 2825 
Q 1016 2553 972 2059 
L 3022 2063 
z
" transform="scale(0.015625)"/>
       <path id="DejaVuSans-4f" d="M 603 4863 
L 1178 4863 
L 1178 0 
L 603 0 
L 603 4863 
z
" transform="scale(0.015625)"/>
       <path id="DejaVuSans-58" d="M 544 1381 
L 544 3500 
L 1119 3500 
L 1119 1403 
Q 1119 906 1312 657 
Q 1506 409 1894 409 
Q 2359 409 2629 706 
Q 2900 1003 2900 1516 
L 2900 3500 
L 3475 3500 
L 3475 0 
L 2900 0 
L 2900 538 
Q 2691 219 2414 64 
Q 2138 -91 1772 -91 
Q 1169 -91 856 284 
Q 544 659 544 1381 
z
M 1991 3584 
L 1991 3584 
z
" transform="scale(0.015625)"/>
       <path id="DejaVuSans-3" transform="scale(0.015625)"/>
       <path id="DejaVuSans-52" d="M 1959 3097 
Q 1497 3097 1228 2736 
Q 959 2375 959 1747 
Q 959 1119 1226 758 
Q 1494 397 1959 397 
Q 2419 397 2687 759 
Q 2956 1122 2956 1747 
Q 2956 2369 2687 2733 
Q 2419 3097 1959 3097 
z
M 1959 3584 
Q 2709 3584 3137 3096 
Q 3566 2609 3566 1747 
Q 3566 888 3137 398 
Q 2709 -91 1959 -91 
Q 1206 -91 779 398 
Q 353 888 353 1747 
Q 353 2609 779 3096 
Q 1206 3584 1959 3584 
z
" transform="scale(0.015625)"/>
       <path id="DejaVuSans-56" d="M 2834 3397 
L 2834 2853 
Q 2591 2978 2328 3040 
Q 2066 3103 1784 3103 
Q 1356 3103 1142 2972 
Q 928 2841 928 2578 
Q 928 2378 1081 2264 
Q 1234 2150 1697 2047 
L 1894 2003 
Q 2506 1872 2764 1633 
Q 3022 1394 3022 966 
Q 3022 478 2636 193 
Q 2250 -91 1575 -91 
Q 1294 -91 989 -36 
Q 684 19 347 128 
L 347 722 
Q 666 556 975 473 
Q 1284 391 1588 391 
Q 1994 391 2212 530 
Q 2431 669 2431 922 
Q 2431 1156 2273 1281 
Q 2116 1406 1581 1522 
L 1381 1569 
Q 847 1681 609 1914 
Q 372 2147 372 2553 
Q 372 3047 722 3315 
Q 1072 3584 1716 3584 
Q 2034 3584 2315 3537 
Q 2597 3491 2834 3397 
z
" transform="scale(0.015625)"/>
      </defs>
      <use xlink:href="#DejaVuSans-28"/>
      <use xlink:href="#DejaVuSans-5b" transform="translate(63.1875 0)"/>
      <use xlink:href="#DejaVuSans-57" transform="translate(122.375 0)"/>
      <use xlink:href="#DejaVuSans-55" transform="translate(161.578125 0)"/>
      <use xlink:href="#DejaVuSans-44" transform="translate(202.6875 0)"/>
      <use xlink:href="#DejaVuSans-46" transform="translate(263.96875 0)"/>
      <use xlink:href="#DejaVuSans-48" transform="translate(318.953125 0)"/>
      <use xlink:href="#DejaVuSans-4f" transform="translate(380.484375 0)"/>
      <use xlink:href="#DejaVuSans-4f" transform="translate(408.265625 0)"/>
      <use xlink:href="#DejaVuSans-58" transform="translate(436.046875 0)"/>
      <use xlink:href="#DejaVuSans-4f" transform="translate(499.421875 0)"/>
      <use xlink:href="#DejaVuSans-44" transform="translate(527.203125 0)"/>
      <use xlink:href="#DejaVuSans-55" transform="translate(588.484375 0)"/>
      <use xlink:href="#DejaVuSans-3" transform="translate(629.59375 0)"/>
      <use xlink:href="#DejaVuSans-4f" transform="translate(661.375 0)"/>
      <use xlink:href="#DejaVuSans-44" transform="translate(689.15625 0)"/>
      <use xlink:href="#DejaVuSans-46" transform="translate(750.4375 0)"/>
      <use xlink:href="#DejaVuSans-57" transform="translate(805.421875 0)"/>
      <use xlink:href="#DejaVuSans-52" transform="translate(844.625 0)"/>
      <use xlink:href="#DejaVuSans-56" transform="translate(905.8125 0)"/>
      <use xlink:href="#DejaVuSans-48" transform="translate(957.90625 0)"/>
     </g>
    </g>
   </g>
   <g id="line2d_13">
    <path d="M 56.88098 92.472021 
L 155.373099 92.472021 
L 155.461449 11.260572 
L 156.123825 11.341784 
L 156.240524 11.66663 
L 156.284962 11.747841 
L 156.429928 13.209647 
L 156.547275 14.833876 
L 156.560987 14.915088 
L 156.703294 16.620528 
L 156.726645 16.701739 
L 157.231943 20.193832 
L 157.506843 20.599889 
L 157.565638 20.6811 
L 157.673896 20.762312 
L 158.120705 20.843523 
L 158.216751 21.249581 
L 158.443193 21.655638 
L 158.62784 22.873809 
L 158.633654 22.955021 
L 158.753005 23.929558 
L 159.181876 25.959845 
L 159.198609 26.041056 
L 159.31596 26.690748 
L 159.340697 26.771959 
L 159.471532 27.665285 
L 159.498367 27.746496 
L 159.774848 30.75132 
L 160.070875 32.375549 
L 160.084411 32.45676 
L 160.195455 33.02524 
L 160.237874 33.106452 
L 160.381415 34.080989 
L 160.54525 34.568258 
L 160.78102 35.299161 
L 160.843644 35.380372 
L 160.991567 35.78643 
L 161.142895 35.948853 
L 161.580784 36.030064 
L 161.729052 36.517333 
L 161.753239 36.598544 
L 161.91087 37.085813 
L 162.022302 37.573082 
L 162.29452 38.710042 
L 162.394469 38.791253 
L 163.010163 41.39002 
L 163.121332 41.714865 
L 163.212798 41.796077 
L 163.362045 42.039711 
L 163.446021 42.120923 
L 163.544983 42.770614 
L 164.205637 45.613015 
L 164.358988 47.074821 
L 164.438291 47.156032 
L 164.733345 48.617839 
L 165.689931 52.191142 
L 165.7316 52.272354 
L 166.549621 54.383851 
L 166.688801 54.87112 
L 166.70912 54.952331 
L 166.814113 55.195966 
L 166.885604 55.4396 
L 167.135059 56.657772 
L 167.193901 56.738983 
L 167.368604 57.957155 
L 167.389257 58.038367 
L 167.573525 58.850481 
L 167.745756 59.175327 
L 168.013873 59.90623 
L 168.131494 59.987441 
L 168.250268 60.149864 
L 168.391673 60.312287 
L 168.666663 60.393499 
L 168.808945 60.555921 
L 169.129522 60.637133 
L 169.262774 61.124402 
L 169.47093 61.205613 
L 169.604196 61.530459 
L 169.870593 61.61167 
L 169.980037 61.855305 
L 170.222926 62.829842 
L 170.384393 63.235899 
L 170.428415 63.317111 
L 170.540028 63.723168 
L 170.5591 63.804379 
L 170.693271 64.454071 
L 170.868246 65.266185 
L 170.891794 65.347397 
L 171.024654 65.997088 
L 171.040395 66.0783 
L 171.142115 66.64678 
L 171.419324 67.21526 
L 171.495883 67.296472 
L 171.607247 67.702529 
L 171.646711 67.78374 
L 171.789683 68.189798 
L 171.810112 68.271009 
L 172.190781 69.895238 
L 172.313797 70.463718 
L 172.339678 70.54493 
L 172.7363 72.81885 
L 172.77681 72.900062 
L 172.896518 73.143696 
L 173.02948 73.224907 
L 173.144912 73.549753 
L 173.247407 73.630965 
L 173.799139 74.930348 
L 174.062187 75.011559 
L 174.286638 75.173982 
L 177.368152 75.255194 
L 177.564881 75.336405 
L 177.686394 75.417616 
L 177.768334 75.498828 
L 178.106993 75.580039 
L 178.194535 75.742462 
L 178.380139 75.823674 
L 178.466041 75.904885 
L 178.904198 76.229731 
L 179.281668 76.310942 
L 179.421507 76.554577 
L 179.4461 76.635788 
L 179.575502 76.879422 
L 179.680912 76.960634 
L 179.774701 77.041845 
L 180.616653 77.772748 
L 180.768313 78.341229 
L 180.940661 78.42244 
L 181.049875 78.503651 
L 181.189211 78.584863 
L 181.477846 78.666074 
L 181.563277 78.828497 
L 181.640124 78.909709 
L 182.028142 79.153343 
L 182.16165 79.234554 
L 182.244702 79.396977 
L 182.391901 79.478189 
L 183.003645 79.965458 
L 183.084487 80.12788 
L 183.22536 80.209092 
L 183.341695 80.371515 
L 183.714149 81.264841 
L 183.843516 81.346052 
L 184.017418 81.833321 
L 184.207063 81.914532 
L 184.291059 81.995744 
L 184.855928 82.076955 
L 185.420862 82.726647 
L 185.712401 83.051493 
L 185.798096 83.132704 
L 185.901414 83.376338 
L 186.033722 83.45755 
L 186.195469 83.782396 
L 186.223978 83.863607 
L 186.360613 84.02603 
L 186.54999 84.107241 
L 186.732331 84.432087 
L 186.875722 84.513299 
L 187.330942 84.59451 
L 187.854034 84.756933 
L 189.409914 84.838144 
L 189.533072 85.000567 
L 190.287578 85.081779 
L 190.469057 85.16299 
L 191.217242 85.244202 
L 191.354787 85.325413 
L 191.60145 85.406625 
L 191.781672 85.487836 
L 192.285506 85.569047 
L 192.448706 85.73147 
L 193.399482 85.812682 
L 193.483776 85.893893 
L 193.978568 85.975105 
L 194.199681 86.056316 
L 194.683418 86.137528 
L 194.839139 86.29995 
L 195.342215 86.381162 
L 195.34769 86.462373 
L 195.761385 86.787219 
L 195.877214 86.868431 
L 195.991197 86.949642 
L 196.175123 87.030853 
L 196.467156 87.112065 
L 196.671621 87.355699 
L 197.246845 87.436911 
L 197.385481 87.599334 
L 197.449131 87.680545 
L 197.527588 87.761757 
L 197.745305 88.086602 
L 198.182031 88.167814 
L 198.289636 88.330237 
L 199.001487 88.411448 
L 199.156816 88.49266 
L 199.49972 88.573871 
L 199.771178 88.817505 
L 200.181287 88.898717 
L 200.334888 89.06114 
L 200.944134 89.142351 
L 201.02917 89.223563 
L 202.515518 89.304774 
L 202.650087 89.385985 
L 204.221672 89.467197 
L 204.521163 89.62962 
L 215.57192 89.710831 
L 216.388293 89.792043 
L 217.110789 89.873254 
L 222.304755 90.035677 
L 252.346156 90.116889 
L 253.215085 90.1981 
L 282.410164 90.279311 
L 282.553839 90.360523 
L 283.223804 90.441734 
L 283.334776 90.522946 
L 290.492422 90.604157 
L 290.61188 90.685369 
L 312.422447 90.76658 
L 312.422447 90.76658 
" clip-path="url(#p0ba755d355)" style="fill: none; stroke: #000000; stroke-width: 1.5; stroke-linecap: square"/>
   </g>
   <g id="patch_3">
    <path d="M 44.103906 96.532593 
L 44.103906 7.2 
" style="fill: none; stroke: #000000; stroke-width: 0.8; stroke-linejoin: miter; stroke-linecap: square"/>
   </g>
   <g id="patch_4">
    <path d="M 325.19952 96.532593 
L 325.19952 7.2 
" style="fill: none; stroke: #000000; stroke-width: 0.8; stroke-linejoin: miter; stroke-linecap: square"/>
   </g>
   <g id="patch_5">
    <path d="M 44.103906 96.532593 
L 325.19952 96.532593 
" style="fill: none; stroke: #000000; stroke-width: 0.8; stroke-linejoin: miter; stroke-linecap: square"/>
   </g>
   <g id="patch_6">
    <path d="M 44.103906 7.2 
L 325.19952 7.2 
" style="fill: none; stroke: #000000; stroke-width: 0.8; stroke-linejoin: miter; stroke-linecap: square"/>
   </g>
  </g>
  <g id="axes_2">
   <g id="patch_7">
    <path d="M 44.103906 195.365666 
L 325.19952 195.365666 
L 325.19952 106.033073 
L 44.103906 106.033073 
z
" style="fill: #ffffff"/>
   </g>
   <g id="matplotlib.axis_3">
    <g id="xtick_10">
     <g id="line2d_14">
      <g>
       <use xlink:href="#m062ededf1b" x="56.88098" y="195.365666" style="stroke: #000000; stroke-width: 0.8"/>
      </g>
     </g>
    </g>
    <g id="xtick_11">
     <g id="line2d_15">
      <g>
       <use xlink:href="#m062ededf1b" x="88.543411" y="195.365666" style="stroke: #000000; stroke-width: 0.8"/>
      </g>
     </g>
    </g>
    <g id="xtick_12">
     <g id="line2d_16">
      <g>
       <use xlink:href="#m062ededf1b" x="120.205842" y="195.365666" style="stroke: #000000; stroke-width: 0.8"/>
      </g>
     </g>
    </g>
    <g id="xtick_13">
     <g id="line2d_17">
      <g>
       <use xlink:href="#m062ededf1b" x="151.868273" y="195.365666" style="stroke: #000000; stroke-width: 0.8"/>
      </g>
     </g>
    </g>
    <g id="xtick_14">
     <g id="line2d_18">
      <g>
       <use xlink:href="#m062ededf1b" x="183.530705" y="195.365666" style="stroke: #000000; stroke-width: 0.8"/>
      </g>
     </g>
    </g>
    <g id="xtick_15">
     <g id="line2d_19">
      <g>
       <use xlink:href="#m062ededf1b" x="215.193136" y="195.365666" style="stroke: #000000; stroke-width: 0.8"/>
      </g>
     </g>
    </g>
    <g id="xtick_16">
     <g id="line2d_20">
      <g>
       <use xlink:href="#m062ededf1b" x="246.855567" y="195.365666" style="stroke: #000000; stroke-width: 0.8"/>
      </g>
     </g>
    </g>
    <g id="xtick_17">
     <g id="line2d_21">
      <g>
       <use xlink:href="#m062ededf1b" x="278.517998" y="195.365666" style="stroke: #000000; stroke-width: 0.8"/>
      </g>
     </g>
    </g>
    <g id="xtick_18">
     <g id="line2d_22">
      <g>
       <use xlink:href="#m062ededf1b" x="310.18043" y="195.365666" style="stroke: #000000; stroke-width: 0.8"/>
      </g>
     </g>
    </g>
   </g>
   <g id="matplotlib.axis_4">
    <g id="ytick_4">
     <g id="line2d_23">
      <g>
       <use xlink:href="#maf2c71c175" x="44.103906" y="191.305093" style="stroke: #000000; stroke-width: 0.8"/>
      </g>
     </g>
     <g id="text_5">
      <!-- 0 -->
      <g transform="translate(30.741406 195.103922) scale(0.1 -0.1)">
       <use xlink:href="#DejaVuSans-13"/>
      </g>
     </g>
    </g>
    <g id="ytick_5">
     <g id="line2d_24">
      <g>
       <use xlink:href="#maf2c71c175" x="44.103906" y="150.699369" style="stroke: #000000; stroke-width: 0.8"/>
      </g>
     </g>
     <g id="text_6">
      <!-- 5 -->
      <g transform="translate(30.741406 154.498197) scale(0.1 -0.1)">
       <use xlink:href="#DejaVuSans-18"/>
      </g>
     </g>
    </g>
    <g id="ytick_6">
     <g id="line2d_25">
      <g>
       <use xlink:href="#maf2c71c175" x="44.103906" y="110.093645" style="stroke: #000000; stroke-width: 0.8"/>
      </g>
     </g>
     <g id="text_7">
      <!-- 10 -->
      <g transform="translate(24.378906 113.892473) scale(0.1 -0.1)">
       <use xlink:href="#DejaVuSans-14"/>
       <use xlink:href="#DejaVuSans-13" transform="translate(63.625 0)"/>
      </g>
     </g>
    </g>
    <g id="text_8">
     <!-- LacY -->
     <g transform="translate(17.976563 162.352494) rotate(-90) scale(0.1 -0.1)">
      <defs>
       <path id="DejaVuSans-2f" d="M 628 4666 
L 1259 4666 
L 1259 531 
L 3531 531 
L 3531 0 
L 628 0 
L 628 4666 
z
" transform="scale(0.015625)"/>
       <path id="DejaVuSans-3c" d="M -13 4666 
L 666 4666 
L 1959 2747 
L 3244 4666 
L 3922 4666 
L 2272 2222 
L 2272 0 
L 1638 0 
L 1638 2222 
L -13 4666 
z
" transform="scale(0.015625)"/>
      </defs>
      <use xlink:href="#DejaVuSans-2f"/>
      <use xlink:href="#DejaVuSans-44" transform="translate(55.71875 0)"/>
      <use xlink:href="#DejaVuSans-46" transform="translate(117 0)"/>
      <use xlink:href="#DejaVuSans-3c" transform="translate(171.984375 0)"/>
     </g>
    </g>
   </g>
   <g id="line2d_26">
    <path d="M 56.88098 110.093645 
L 56.907894 110.093645 
L 56.961961 118.21479 
L 57.069278 134.45708 
L 57.129147 142.578225 
L 57.28006 142.578225 
L 57.297618 134.45708 
L 57.516476 142.578225 
L 57.657228 142.578225 
L 57.826539 158.820514 
L 58.125079 175.062804 
L 58.190183 191.305093 
L 59.708166 191.305093 
L 59.87348 183.183949 
L 59.915886 191.305093 
L 64.899045 191.305093 
L 65.219467 183.183949 
L 65.328558 191.305093 
L 82.687448 191.305093 
L 82.88033 183.183949 
L 84.659574 191.305093 
L 84.674283 183.183949 
L 84.816365 175.062804 
L 84.820984 166.941659 
L 85.140617 175.062804 
L 85.3658 175.062804 
L 85.484495 191.305093 
L 85.544839 183.183949 
L 85.733573 183.183949 
L 85.870972 191.305093 
L 89.732666 191.305093 
L 90.119407 175.062804 
L 90.120698 166.941659 
L 90.615423 166.941659 
L 90.653788 183.183949 
L 91.419875 183.183949 
L 91.587474 175.062804 
L 91.929065 191.305093 
L 108.800847 191.305093 
L 108.905715 183.183949 
L 109.024483 183.183949 
L 109.162486 191.305093 
L 109.395645 191.305093 
L 109.436805 183.183949 
L 109.849507 183.183949 
L 110.196693 175.062804 
L 110.254584 183.183949 
L 110.428478 183.183949 
L 110.457825 191.305093 
L 119.148927 191.305093 
L 119.325959 183.183949 
L 121.409834 183.183949 
L 123.242903 191.305093 
L 130.950378 191.305093 
L 131.135193 183.183949 
L 131.420514 183.183949 
L 131.527451 191.305093 
L 135.829484 191.305093 
L 135.912562 183.183949 
L 135.934257 191.305093 
L 145.849119 191.305093 
L 146.107933 175.062804 
L 146.128602 183.183949 
L 146.157384 175.062804 
L 146.269615 166.941659 
L 146.274914 175.062804 
L 146.855105 175.062804 
L 147.467483 183.183949 
L 147.710907 183.183949 
L 148.023717 175.062804 
L 148.135723 175.062804 
L 149.199299 191.305093 
L 149.655892 191.305093 
L 149.707369 175.062804 
L 149.80746 175.062804 
L 149.959104 183.183949 
L 150.091783 183.183949 
L 150.630469 191.305093 
L 155.709129 191.305093 
L 156.134083 183.183949 
L 156.372508 150.699369 
L 156.651959 150.699369 
L 156.771133 166.941659 
L 156.820613 166.941659 
L 156.920729 158.820514 
L 157.007032 158.820514 
L 157.115986 175.062804 
L 157.143967 175.062804 
L 157.231943 183.183949 
L 157.580987 183.183949 
L 157.673896 191.305093 
L 158.070484 191.305093 
L 158.188491 183.183949 
L 158.335947 183.183949 
L 158.453079 158.820514 
L 158.62784 158.820514 
L 158.726874 166.941659 
L 158.871209 166.941659 
L 158.982809 183.183949 
L 159.131754 183.183949 
L 159.253432 175.062804 
L 159.335487 175.062804 
L 159.43889 158.820514 
L 159.482684 158.820514 
L 159.599786 150.699369 
L 159.721347 150.699369 
L 159.836049 158.820514 
L 159.841542 158.820514 
L 159.952287 150.699369 
L 160.079105 150.699369 
L 160.190936 166.941659 
L 160.50095 166.941659 
L 160.603246 175.062804 
L 160.677462 175.062804 
L 160.78102 183.183949 
L 160.896285 183.183949 
L 160.942053 175.062804 
L 160.991567 183.183949 
L 161.121631 183.183949 
L 161.233613 191.305093 
L 161.491854 191.305093 
L 161.627423 183.183949 
L 161.768718 183.183949 
L 161.91087 166.941659 
L 162.101709 166.941659 
L 162.214125 183.183949 
L 162.29452 183.183949 
L 162.444602 166.941659 
L 162.475764 175.062804 
L 162.505356 175.062804 
L 162.585594 166.941659 
L 162.70399 166.941659 
L 162.804115 175.062804 
L 162.96599 175.062804 
L 162.978336 158.820514 
L 163.067679 166.941659 
L 163.18901 175.062804 
L 163.467847 175.062804 
L 163.567571 166.941659 
L 163.577 175.062804 
L 163.679785 175.062804 
L 163.886743 166.941659 
L 164.117087 166.941659 
L 164.230371 150.699369 
L 164.324826 150.699369 
L 164.438291 166.941659 
L 164.552004 166.941659 
L 164.660606 175.062804 
L 164.706794 175.062804 
L 164.724235 166.941659 
L 164.815759 175.062804 
L 165.03366 175.062804 
L 165.147832 166.941659 
L 165.175714 166.941659 
L 165.268946 158.820514 
L 165.400027 158.820514 
L 165.408243 166.941659 
L 165.501268 158.820514 
L 165.518726 158.820514 
L 165.632014 175.062804 
L 165.652396 175.062804 
L 165.769233 183.183949 
L 165.943052 183.183949 
L 166.050866 175.062804 
L 166.215489 175.062804 
L 166.287216 183.183949 
L 166.323177 175.062804 
L 166.386425 175.062804 
L 166.500311 166.941659 
L 166.60216 166.941659 
L 166.690275 150.699369 
L 166.716148 158.820514 
L 166.966796 158.820514 
L 167.055181 166.941659 
L 167.609863 166.941659 
L 167.716099 175.062804 
L 167.86268 175.062804 
L 167.982869 183.183949 
L 168.013873 183.183949 
L 168.195351 166.941659 
L 168.209833 166.941659 
L 168.391673 183.183949 
L 168.843329 183.183949 
L 168.969353 175.062804 
L 169.061943 183.183949 
L 169.134299 183.183949 
L 169.2563 175.062804 
L 169.36171 175.062804 
L 169.367682 183.183949 
L 169.47093 175.062804 
L 169.502468 175.062804 
L 169.617523 191.305093 
L 169.694739 191.305093 
L 169.823646 183.183949 
L 169.980037 166.941659 
L 170.115363 166.941659 
L 170.222926 158.820514 
L 170.61045 158.820514 
L 170.715365 150.699369 
L 170.751116 150.699369 
L 170.868246 158.820514 
L 170.93787 158.820514 
L 171.04926 150.699369 
L 171.1932 150.699369 
L 171.23199 166.941659 
L 171.301365 158.820514 
L 171.38783 158.820514 
L 171.49807 166.941659 
L 171.531002 166.941659 
L 171.646711 158.820514 
L 171.692587 158.820514 
L 171.797698 166.941659 
L 171.805127 166.941659 
L 171.834283 158.820514 
L 171.912773 166.941659 
L 171.949166 166.941659 
L 172.058535 158.820514 
L 172.114077 158.820514 
L 172.164732 150.699369 
L 172.212872 158.820514 
L 172.268007 158.820514 
L 172.383279 150.699369 
L 172.479556 150.699369 
L 172.593427 142.578225 
L 172.703073 142.578225 
L 172.814471 166.941659 
L 172.842299 166.941659 
L 172.956264 158.820514 
L 173.081676 158.820514 
L 173.182317 166.941659 
L 173.511292 166.941659 
L 173.616341 175.062804 
L 173.66588 175.062804 
L 173.742739 166.941659 
L 173.750492 175.062804 
L 173.786358 175.062804 
L 173.84657 183.183949 
L 174.110957 183.183949 
L 174.130765 175.062804 
L 174.195692 183.183949 
L 174.369803 183.183949 
L 174.622019 191.305093 
L 177.153634 191.305093 
L 177.284902 175.062804 
L 177.430647 183.183949 
L 177.516758 175.062804 
L 177.59382 175.062804 
L 177.699824 183.183949 
L 177.711129 183.183949 
L 177.768334 191.305093 
L 178.033512 183.183949 
L 179.03302 183.183949 
L 179.056189 175.062804 
L 179.26096 175.062804 
L 179.375019 158.820514 
L 179.421507 166.941659 
L 179.485497 158.820514 
L 179.49035 158.820514 
L 179.597599 175.062804 
L 179.883813 175.062804 
L 179.969087 183.183949 
L 180.050685 183.183949 
L 180.171929 175.062804 
L 180.350729 175.062804 
L 180.439598 183.183949 
L 180.518475 183.183949 
L 180.622929 166.941659 
L 180.801107 166.941659 
L 180.890024 158.820514 
L 180.911316 166.941659 
L 180.951869 166.941659 
L 181.049875 175.062804 
L 181.078003 175.062804 
L 181.189211 183.183949 
L 181.244153 183.183949 
L 181.369901 166.941659 
L 181.41835 166.941659 
L 181.461061 158.820514 
L 181.514088 166.941659 
L 181.535896 166.941659 
L 181.640124 175.062804 
L 182.587945 175.062804 
L 182.702934 158.820514 
L 183.340177 158.820514 
L 183.448613 150.699369 
L 183.555911 150.699369 
L 183.68047 142.578225 
L 183.760254 142.578225 
L 183.949884 158.820514 
L 183.994255 158.820514 
L 184.054112 166.941659 
L 184.095935 158.820514 
L 184.134829 158.820514 
L 184.216691 166.941659 
L 184.277304 166.941659 
L 184.346134 150.699369 
L 184.355352 158.820514 
L 184.455213 166.941659 
L 184.636635 166.941659 
L 184.658126 158.820514 
L 184.706273 166.941659 
L 184.753046 166.941659 
L 184.855928 158.820514 
L 185.022829 158.820514 
L 185.118281 166.941659 
L 185.179468 150.699369 
L 185.307065 150.699369 
L 185.404151 158.820514 
L 185.708086 158.820514 
L 185.814827 166.941659 
L 185.942298 158.820514 
L 186.006495 158.820514 
L 186.135464 150.699369 
L 186.139035 150.699369 
L 186.168096 142.578225 
L 186.240388 150.699369 
L 186.35849 150.699369 
L 186.45219 166.941659 
L 186.604596 158.820514 
L 186.636375 158.820514 
L 186.732331 183.183949 
L 187.088929 183.183949 
L 187.215717 175.062804 
L 187.330942 183.183949 
L 187.977963 183.183949 
L 188.129748 191.305093 
L 188.836617 191.305093 
L 189.012198 183.183949 
L 190.255624 183.183949 
L 190.381339 175.062804 
L 190.469057 183.183949 
L 190.702169 183.183949 
L 190.707977 191.305093 
L 190.792262 183.183949 
L 190.964314 175.062804 
L 191.138449 175.062804 
L 191.217242 183.183949 
L 191.277599 183.183949 
L 191.419533 166.941659 
L 191.456968 166.941659 
L 191.60145 175.062804 
L 191.697522 175.062804 
L 191.72122 166.941659 
L 191.781672 175.062804 
L 192.099397 183.183949 
L 192.221704 166.941659 
L 192.448706 166.941659 
L 192.596448 183.183949 
L 193.012002 183.183949 
L 193.049521 191.305093 
L 193.203634 191.305093 
L 193.483776 183.183949 
L 193.781259 183.183949 
L 193.978568 175.062804 
L 194.124488 175.062804 
L 194.199681 166.941659 
L 194.387507 175.062804 
L 194.402956 183.183949 
L 194.707862 175.062804 
L 194.839139 175.062804 
L 194.962957 183.183949 
L 194.989063 175.062804 
L 194.991037 183.183949 
L 195.091691 183.183949 
L 195.254891 166.941659 
L 195.289339 175.062804 
L 195.34769 166.941659 
L 195.492384 166.941659 
L 195.622648 158.820514 
L 195.743544 158.820514 
L 195.849408 166.941659 
L 195.965392 166.941659 
L 196.079178 158.820514 
L 196.137853 158.820514 
L 196.175123 166.941659 
L 196.291172 166.941659 
L 196.370957 158.820514 
L 196.444849 183.183949 
L 196.523451 175.062804 
L 196.565325 175.062804 
L 196.65681 166.941659 
L 196.668142 175.062804 
L 196.671621 183.183949 
L 196.897075 183.183949 
L 196.91057 166.941659 
L 197.178738 166.941659 
L 197.246845 158.820514 
L 197.391813 158.820514 
L 197.501373 150.699369 
L 197.569235 150.699369 
L 197.630414 158.820514 
L 197.859374 158.820514 
L 197.914947 166.941659 
L 197.979617 166.941659 
L 197.996384 175.062804 
L 198.06202 166.941659 
L 198.118948 166.941659 
L 198.235989 175.062804 
L 198.358747 183.183949 
L 198.438453 183.183949 
L 198.56997 175.062804 
L 198.810033 175.062804 
L 198.994342 166.941659 
L 199.078617 175.062804 
L 199.156816 175.062804 
L 199.290746 158.820514 
L 199.548474 150.699369 
L 199.599584 150.699369 
L 199.663549 134.45708 
L 199.734893 134.45708 
L 199.840211 126.335935 
L 199.843064 134.45708 
L 199.855123 142.578225 
L 199.92875 126.335935 
L 199.943028 134.45708 
L 199.993674 134.45708 
L 200.055732 142.578225 
L 200.164524 142.578225 
L 200.281684 150.699369 
L 200.334451 150.699369 
L 200.394343 158.820514 
L 200.454123 158.820514 
L 200.762191 175.062804 
L 200.777225 166.941659 
L 200.824682 175.062804 
L 200.95057 166.941659 
L 201.017814 183.183949 
L 201.02917 166.941659 
L 201.292595 166.941659 
L 201.297832 175.062804 
L 201.443098 175.062804 
L 201.549522 166.941659 
L 201.818243 183.183949 
L 202.124543 183.183949 
L 202.160007 191.305093 
L 202.21065 183.183949 
L 202.441092 166.941659 
L 202.561578 158.820514 
L 202.650087 166.941659 
L 202.856553 166.941659 
L 202.889455 175.062804 
L 203.910748 175.062804 
L 204.221672 166.941659 
L 204.336552 166.941659 
L 204.521163 183.183949 
L 204.647081 175.062804 
L 204.656794 183.183949 
L 204.928437 183.183949 
L 205.098421 191.305093 
L 211.676469 191.305093 
L 211.999332 183.183949 
L 212.011015 191.305093 
L 213.427472 191.305093 
L 213.542474 183.183949 
L 213.710296 191.305093 
L 213.948025 183.183949 
L 214.107539 183.183949 
L 214.132443 191.305093 
L 214.31747 191.305093 
L 214.362073 183.183949 
L 214.636609 183.183949 
L 214.664952 191.305093 
L 215.164481 183.183949 
L 216.16555 183.183949 
L 216.216875 191.305093 
L 216.236637 183.183949 
L 216.290949 183.183949 
L 216.358592 175.062804 
L 216.388293 183.183949 
L 219.376095 183.183949 
L 219.714354 191.305093 
L 221.725086 191.305093 
L 221.912051 183.183949 
L 222.031931 191.305093 
L 232.437509 191.305093 
L 232.58634 183.183949 
L 232.804966 191.305093 
L 248.038656 191.305093 
L 248.363707 183.183949 
L 248.495886 183.183949 
L 248.533493 191.305093 
L 248.713134 183.183949 
L 249.238623 183.183949 
L 249.402373 175.062804 
L 249.480952 183.183949 
L 249.778298 183.183949 
L 249.935139 191.305093 
L 252.037448 191.305093 
L 252.346156 183.183949 
L 252.898062 183.183949 
L 253.215085 191.305093 
L 264.881323 191.305093 
L 265.060187 183.183949 
L 265.141982 166.941659 
L 265.305696 166.941659 
L 265.421733 175.062804 
L 266.262431 191.305093 
L 267.506502 191.305093 
L 267.809071 183.183949 
L 267.949514 183.183949 
L 268.033902 191.305093 
L 281.503384 191.305093 
L 281.736083 166.941659 
L 281.952191 191.305093 
L 282.085617 175.062804 
L 282.118225 183.183949 
L 282.204211 183.183949 
L 282.272594 175.062804 
L 282.519341 191.305093 
L 282.675532 166.941659 
L 282.690174 175.062804 
L 282.752321 175.062804 
L 282.825674 166.941659 
L 283.022281 166.941659 
L 283.035459 158.820514 
L 283.105201 166.941659 
L 283.249512 166.941659 
L 283.334776 175.062804 
L 283.398999 166.941659 
L 283.414704 175.062804 
L 283.822119 175.062804 
L 283.901598 183.183949 
L 284.649083 183.183949 
L 284.845111 191.305093 
L 285.773899 191.305093 
L 285.840471 183.183949 
L 286.046455 183.183949 
L 287.241234 191.305093 
L 289.998785 191.305093 
L 290.234706 183.183949 
L 291.000489 183.183949 
L 291.248073 191.305093 
L 302.21887 191.305093 
L 302.284448 183.183949 
L 302.529228 175.062804 
L 302.624977 175.062804 
L 302.732117 183.183949 
L 303.004362 183.183949 
L 303.545092 191.305093 
L 312.422447 191.305093 
L 312.422447 191.305093 
" clip-path="url(#pf22273cf09)" style="fill: none; stroke: #000000; stroke-width: 1.5; stroke-linecap: square"/>
   </g>
   <g id="patch_8">
    <path d="M 44.103906 195.365666 
L 44.103906 106.033073 
" style="fill: none; stroke: #000000; stroke-width: 0.8; stroke-linejoin: miter; stroke-linecap: square"/>
   </g>
   <g id="patch_9">
    <path d="M 325.19952 195.365666 
L 325.19952 106.033073 
" style="fill: none; stroke: #000000; stroke-width: 0.8; stroke-linejoin: miter; stroke-linecap: square"/>
   </g>
   <g id="patch_10">
    <path d="M 44.103906 195.365666 
L 325.19952 195.365666 
" style="fill: none; stroke: #000000; stroke-width: 0.8; stroke-linejoin: miter; stroke-linecap: square"/>
   </g>
   <g id="patch_11">
    <path d="M 44.103906 106.033073 
L 325.19952 106.033073 
" style="fill: none; stroke: #000000; stroke-width: 0.8; stroke-linejoin: miter; stroke-linecap: square"/>
   </g>
  </g>
  <g id="axes_3">
   <g id="patch_12">
    <path d="M 44.103906 294.198739 
L 325.19952 294.198739 
L 325.19952 204.866146 
L 44.103906 204.866146 
z
" style="fill: #ffffff"/>
   </g>
   <g id="matplotlib.axis_5">
    <g id="xtick_19">
     <g id="line2d_27">
      <g>
       <use xlink:href="#m062ededf1b" x="56.88098" y="294.198739" style="stroke: #000000; stroke-width: 0.8"/>
      </g>
     </g>
     <g id="text_9">
      <!-- 0 -->
      <g transform="translate(53.69973 308.796395) scale(0.1 -0.1)">
       <use xlink:href="#DejaVuSans-13"/>
      </g>
     </g>
    </g>
    <g id="xtick_20">
     <g id="line2d_28">
      <g>
       <use xlink:href="#m062ededf1b" x="88.543411" y="294.198739" style="stroke: #000000; stroke-width: 0.8"/>
      </g>
     </g>
     <g id="text_10">
      <!-- 100 -->
      <g transform="translate(78.999661 308.796395) scale(0.1 -0.1)">
       <use xlink:href="#DejaVuSans-14"/>
       <use xlink:href="#DejaVuSans-13" transform="translate(63.625 0)"/>
       <use xlink:href="#DejaVuSans-13" transform="translate(127.25 0)"/>
      </g>
     </g>
    </g>
    <g id="xtick_21">
     <g id="line2d_29">
      <g>
       <use xlink:href="#m062ededf1b" x="120.205842" y="294.198739" style="stroke: #000000; stroke-width: 0.8"/>
      </g>
     </g>
     <g id="text_11">
      <!-- 200 -->
      <g transform="translate(110.662092 308.796395) scale(0.1 -0.1)">
       <defs>
        <path id="DejaVuSans-15" d="M 1228 531 
L 3431 531 
L 3431 0 
L 469 0 
L 469 531 
Q 828 903 1448 1529 
Q 2069 2156 2228 2338 
Q 2531 2678 2651 2914 
Q 2772 3150 2772 3378 
Q 2772 3750 2511 3984 
Q 2250 4219 1831 4219 
Q 1534 4219 1204 4116 
Q 875 4013 500 3803 
L 500 4441 
Q 881 4594 1212 4672 
Q 1544 4750 1819 4750 
Q 2544 4750 2975 4387 
Q 3406 4025 3406 3419 
Q 3406 3131 3298 2873 
Q 3191 2616 2906 2266 
Q 2828 2175 2409 1742 
Q 1991 1309 1228 531 
z
" transform="scale(0.015625)"/>
       </defs>
       <use xlink:href="#DejaVuSans-15"/>
       <use xlink:href="#DejaVuSans-13" transform="translate(63.625 0)"/>
       <use xlink:href="#DejaVuSans-13" transform="translate(127.25 0)"/>
      </g>
     </g>
    </g>
    <g id="xtick_22">
     <g id="line2d_30">
      <g>
       <use xlink:href="#m062ededf1b" x="151.868273" y="294.198739" style="stroke: #000000; stroke-width: 0.8"/>
      </g>
     </g>
     <g id="text_12">
      <!-- 300 -->
      <g transform="translate(142.324523 308.796395) scale(0.1 -0.1)">
       <defs>
        <path id="DejaVuSans-16" d="M 2597 2516 
Q 3050 2419 3304 2112 
Q 3559 1806 3559 1356 
Q 3559 666 3084 287 
Q 2609 -91 1734 -91 
Q 1441 -91 1130 -33 
Q 819 25 488 141 
L 488 750 
Q 750 597 1062 519 
Q 1375 441 1716 441 
Q 2309 441 2620 675 
Q 2931 909 2931 1356 
Q 2931 1769 2642 2001 
Q 2353 2234 1838 2234 
L 1294 2234 
L 1294 2753 
L 1863 2753 
Q 2328 2753 2575 2939 
Q 2822 3125 2822 3475 
Q 2822 3834 2567 4026 
Q 2313 4219 1838 4219 
Q 1578 4219 1281 4162 
Q 984 4106 628 3988 
L 628 4550 
Q 988 4650 1302 4700 
Q 1616 4750 1894 4750 
Q 2613 4750 3031 4423 
Q 3450 4097 3450 3541 
Q 3450 3153 3228 2886 
Q 3006 2619 2597 2516 
z
" transform="scale(0.015625)"/>
       </defs>
       <use xlink:href="#DejaVuSans-16"/>
       <use xlink:href="#DejaVuSans-13" transform="translate(63.625 0)"/>
       <use xlink:href="#DejaVuSans-13" transform="translate(127.25 0)"/>
      </g>
     </g>
    </g>
    <g id="xtick_23">
     <g id="line2d_31">
      <g>
       <use xlink:href="#m062ededf1b" x="183.530705" y="294.198739" style="stroke: #000000; stroke-width: 0.8"/>
      </g>
     </g>
     <g id="text_13">
      <!-- 400 -->
      <g transform="translate(173.986955 308.796395) scale(0.1 -0.1)">
       <defs>
        <path id="DejaVuSans-17" d="M 2419 4116 
L 825 1625 
L 2419 1625 
L 2419 4116 
z
M 2253 4666 
L 3047 4666 
L 3047 1625 
L 3713 1625 
L 3713 1100 
L 3047 1100 
L 3047 0 
L 2419 0 
L 2419 1100 
L 313 1100 
L 313 1709 
L 2253 4666 
z
" transform="scale(0.015625)"/>
       </defs>
       <use xlink:href="#DejaVuSans-17"/>
       <use xlink:href="#DejaVuSans-13" transform="translate(63.625 0)"/>
       <use xlink:href="#DejaVuSans-13" transform="translate(127.25 0)"/>
      </g>
     </g>
    </g>
    <g id="xtick_24">
     <g id="line2d_32">
      <g>
       <use xlink:href="#m062ededf1b" x="215.193136" y="294.198739" style="stroke: #000000; stroke-width: 0.8"/>
      </g>
     </g>
     <g id="text_14">
      <!-- 500 -->
      <g transform="translate(205.649386 308.796395) scale(0.1 -0.1)">
       <use xlink:href="#DejaVuSans-18"/>
       <use xlink:href="#DejaVuSans-13" transform="translate(63.625 0)"/>
       <use xlink:href="#DejaVuSans-13" transform="translate(127.25 0)"/>
      </g>
     </g>
    </g>
    <g id="xtick_25">
     <g id="line2d_33">
      <g>
       <use xlink:href="#m062ededf1b" x="246.855567" y="294.198739" style="stroke: #000000; stroke-width: 0.8"/>
      </g>
     </g>
     <g id="text_15">
      <!-- 600 -->
      <g transform="translate(237.311817 308.796395) scale(0.1 -0.1)">
       <defs>
        <path id="DejaVuSans-19" d="M 2113 2584 
Q 1688 2584 1439 2293 
Q 1191 2003 1191 1497 
Q 1191 994 1439 701 
Q 1688 409 2113 409 
Q 2538 409 2786 701 
Q 3034 994 3034 1497 
Q 3034 2003 2786 2293 
Q 2538 2584 2113 2584 
z
M 3366 4563 
L 3366 3988 
Q 3128 4100 2886 4159 
Q 2644 4219 2406 4219 
Q 1781 4219 1451 3797 
Q 1122 3375 1075 2522 
Q 1259 2794 1537 2939 
Q 1816 3084 2150 3084 
Q 2853 3084 3261 2657 
Q 3669 2231 3669 1497 
Q 3669 778 3244 343 
Q 2819 -91 2113 -91 
Q 1303 -91 875 529 
Q 447 1150 447 2328 
Q 447 3434 972 4092 
Q 1497 4750 2381 4750 
Q 2619 4750 2861 4703 
Q 3103 4656 3366 4563 
z
" transform="scale(0.015625)"/>
       </defs>
       <use xlink:href="#DejaVuSans-19"/>
       <use xlink:href="#DejaVuSans-13" transform="translate(63.625 0)"/>
       <use xlink:href="#DejaVuSans-13" transform="translate(127.25 0)"/>
      </g>
     </g>
    </g>
    <g id="xtick_26">
     <g id="line2d_34">
      <g>
       <use xlink:href="#m062ededf1b" x="278.517998" y="294.198739" style="stroke: #000000; stroke-width: 0.8"/>
      </g>
     </g>
     <g id="text_16">
      <!-- 700 -->
      <g transform="translate(268.974248 308.796395) scale(0.1 -0.1)">
       <defs>
        <path id="DejaVuSans-1a" d="M 525 4666 
L 3525 4666 
L 3525 4397 
L 1831 0 
L 1172 0 
L 2766 4134 
L 525 4134 
L 525 4666 
z
" transform="scale(0.015625)"/>
       </defs>
       <use xlink:href="#DejaVuSans-1a"/>
       <use xlink:href="#DejaVuSans-13" transform="translate(63.625 0)"/>
       <use xlink:href="#DejaVuSans-13" transform="translate(127.25 0)"/>
      </g>
     </g>
    </g>
    <g id="xtick_27">
     <g id="line2d_35">
      <g>
       <use xlink:href="#m062ededf1b" x="310.18043" y="294.198739" style="stroke: #000000; stroke-width: 0.8"/>
      </g>
     </g>
     <g id="text_17">
      <!-- 800 -->
      <g transform="translate(300.63668 308.796395) scale(0.1 -0.1)">
       <defs>
        <path id="DejaVuSans-1b" d="M 2034 2216 
Q 1584 2216 1326 1975 
Q 1069 1734 1069 1313 
Q 1069 891 1326 650 
Q 1584 409 2034 409 
Q 2484 409 2743 651 
Q 3003 894 3003 1313 
Q 3003 1734 2745 1975 
Q 2488 2216 2034 2216 
z
M 1403 2484 
Q 997 2584 770 2862 
Q 544 3141 544 3541 
Q 544 4100 942 4425 
Q 1341 4750 2034 4750 
Q 2731 4750 3128 4425 
Q 3525 4100 3525 3541 
Q 3525 3141 3298 2862 
Q 3072 2584 2669 2484 
Q 3125 2378 3379 2068 
Q 3634 1759 3634 1313 
Q 3634 634 3220 271 
Q 2806 -91 2034 -91 
Q 1263 -91 848 271 
Q 434 634 434 1313 
Q 434 1759 690 2068 
Q 947 2378 1403 2484 
z
M 1172 3481 
Q 1172 3119 1398 2916 
Q 1625 2713 2034 2713 
Q 2441 2713 2670 2916 
Q 2900 3119 2900 3481 
Q 2900 3844 2670 4047 
Q 2441 4250 2034 4250 
Q 1625 4250 1398 4047 
Q 1172 3844 1172 3481 
z
" transform="scale(0.015625)"/>
       </defs>
       <use xlink:href="#DejaVuSans-1b"/>
       <use xlink:href="#DejaVuSans-13" transform="translate(63.625 0)"/>
       <use xlink:href="#DejaVuSans-13" transform="translate(127.25 0)"/>
      </g>
     </g>
    </g>
    <g id="text_18">
     <!-- Time -->
     <g transform="translate(172.415776 322.797176) scale(0.1 -0.1)">
      <defs>
       <path id="DejaVuSans-37" d="M -19 4666 
L 3928 4666 
L 3928 4134 
L 2272 4134 
L 2272 0 
L 1638 0 
L 1638 4134 
L -19 4134 
L -19 4666 
z
" transform="scale(0.015625)"/>
       <path id="DejaVuSans-4c" d="M 603 3500 
L 1178 3500 
L 1178 0 
L 603 0 
L 603 3500 
z
M 603 4863 
L 1178 4863 
L 1178 4134 
L 603 4134 
L 603 4863 
z
" transform="scale(0.015625)"/>
       <path id="DejaVuSans-50" d="M 3328 2828 
Q 3544 3216 3844 3400 
Q 4144 3584 4550 3584 
Q 5097 3584 5394 3201 
Q 5691 2819 5691 2113 
L 5691 0 
L 5113 0 
L 5113 2094 
Q 5113 2597 4934 2840 
Q 4756 3084 4391 3084 
Q 3944 3084 3684 2787 
Q 3425 2491 3425 1978 
L 3425 0 
L 2847 0 
L 2847 2094 
Q 2847 2600 2669 2842 
Q 2491 3084 2119 3084 
Q 1678 3084 1418 2786 
Q 1159 2488 1159 1978 
L 1159 0 
L 581 0 
L 581 3500 
L 1159 3500 
L 1159 2956 
Q 1356 3278 1631 3431 
Q 1906 3584 2284 3584 
Q 2666 3584 2933 3390 
Q 3200 3197 3328 2828 
z
" transform="scale(0.015625)"/>
      </defs>
      <use xlink:href="#DejaVuSans-37"/>
      <use xlink:href="#DejaVuSans-4c" transform="translate(58 0)"/>
      <use xlink:href="#DejaVuSans-50" transform="translate(85.78125 0)"/>
      <use xlink:href="#DejaVuSans-48" transform="translate(183.1875 0)"/>
     </g>
    </g>
   </g>
   <g id="matplotlib.axis_6">
    <g id="ytick_7">
     <g id="line2d_36">
      <g>
       <use xlink:href="#maf2c71c175" x="44.103906" y="290.138166" style="stroke: #000000; stroke-width: 0.8"/>
      </g>
     </g>
     <g id="text_19">
      <!-- 0.0 -->
      <g transform="translate(21.200781 293.936994) scale(0.1 -0.1)">
       <defs>
        <path id="DejaVuSans-11" d="M 684 794 
L 1344 794 
L 1344 0 
L 684 0 
L 684 794 
z
" transform="scale(0.015625)"/>
       </defs>
       <use xlink:href="#DejaVuSans-13"/>
       <use xlink:href="#DejaVuSans-11" transform="translate(63.625 0)"/>
       <use xlink:href="#DejaVuSans-13" transform="translate(95.40625 0)"/>
      </g>
     </g>
    </g>
    <g id="ytick_8">
     <g id="line2d_37">
      <g>
       <use xlink:href="#maf2c71c175" x="44.103906" y="249.532442" style="stroke: #000000; stroke-width: 0.8"/>
      </g>
     </g>
     <g id="text_20">
      <!-- 0.5 -->
      <g transform="translate(21.200781 253.33127) scale(0.1 -0.1)">
       <use xlink:href="#DejaVuSans-13"/>
       <use xlink:href="#DejaVuSans-11" transform="translate(63.625 0)"/>
       <use xlink:href="#DejaVuSans-18" transform="translate(95.40625 0)"/>
      </g>
     </g>
    </g>
    <g id="ytick_9">
     <g id="line2d_38">
      <g>
       <use xlink:href="#maf2c71c175" x="44.103906" y="208.926718" style="stroke: #000000; stroke-width: 0.8"/>
      </g>
     </g>
     <g id="text_21">
      <!-- 1.0 -->
      <g transform="translate(21.200781 212.725546) scale(0.1 -0.1)">
       <use xlink:href="#DejaVuSans-14"/>
       <use xlink:href="#DejaVuSans-11" transform="translate(63.625 0)"/>
       <use xlink:href="#DejaVuSans-13" transform="translate(95.40625 0)"/>
      </g>
     </g>
    </g>
    <g id="text_22">
     <!-- Free lac operon -->
     <g transform="translate(14.798438 288.006661) rotate(-90) scale(0.1 -0.1)">
      <defs>
       <path id="DejaVuSans-29" d="M 628 4666 
L 3309 4666 
L 3309 4134 
L 1259 4134 
L 1259 2759 
L 3109 2759 
L 3109 2228 
L 1259 2228 
L 1259 0 
L 628 0 
L 628 4666 
z
" transform="scale(0.015625)"/>
       <path id="DejaVuSans-53" d="M 1159 525 
L 1159 -1331 
L 581 -1331 
L 581 3500 
L 1159 3500 
L 1159 2969 
Q 1341 3281 1617 3432 
Q 1894 3584 2278 3584 
Q 2916 3584 3314 3078 
Q 3713 2572 3713 1747 
Q 3713 922 3314 415 
Q 2916 -91 2278 -91 
Q 1894 -91 1617 61 
Q 1341 213 1159 525 
z
M 3116 1747 
Q 3116 2381 2855 2742 
Q 2594 3103 2138 3103 
Q 1681 3103 1420 2742 
Q 1159 2381 1159 1747 
Q 1159 1113 1420 752 
Q 1681 391 2138 391 
Q 2594 391 2855 752 
Q 3116 1113 3116 1747 
z
" transform="scale(0.015625)"/>
       <path id="DejaVuSans-51" d="M 3513 2113 
L 3513 0 
L 2938 0 
L 2938 2094 
Q 2938 2591 2744 2837 
Q 2550 3084 2163 3084 
Q 1697 3084 1428 2787 
Q 1159 2491 1159 1978 
L 1159 0 
L 581 0 
L 581 3500 
L 1159 3500 
L 1159 2956 
Q 1366 3272 1645 3428 
Q 1925 3584 2291 3584 
Q 2894 3584 3203 3211 
Q 3513 2838 3513 2113 
z
" transform="scale(0.015625)"/>
      </defs>
      <use xlink:href="#DejaVuSans-29"/>
      <use xlink:href="#DejaVuSans-55" transform="translate(50.234375 0)"/>
      <use xlink:href="#DejaVuSans-48" transform="translate(89.140625 0)"/>
      <use xlink:href="#DejaVuSans-48" transform="translate(150.671875 0)"/>
      <use xlink:href="#DejaVuSans-3" transform="translate(212.203125 0)"/>
      <use xlink:href="#DejaVuSans-4f" transform="translate(243.984375 0)"/>
      <use xlink:href="#DejaVuSans-44" transform="translate(271.765625 0)"/>
      <use xlink:href="#DejaVuSans-46" transform="translate(333.046875 0)"/>
      <use xlink:href="#DejaVuSans-3" transform="translate(388.03125 0)"/>
      <use xlink:href="#DejaVuSans-52" transform="translate(419.8125 0)"/>
      <use xlink:href="#DejaVuSans-53" transform="translate(481 0)"/>
      <use xlink:href="#DejaVuSans-48" transform="translate(544.484375 0)"/>
      <use xlink:href="#DejaVuSans-55" transform="translate(606.015625 0)"/>
      <use xlink:href="#DejaVuSans-52" transform="translate(644.921875 0)"/>
      <use xlink:href="#DejaVuSans-51" transform="translate(706.109375 0)"/>
     </g>
    </g>
   </g>
   <g id="line2d_39">
    <path d="M 56.88098 208.926718 
L 56.961961 290.138166 
L 57.129147 290.138166 
L 57.297618 208.926718 
L 57.415012 208.926718 
L 57.516476 290.138166 
L 58.724796 290.138166 
L 59.708166 208.926718 
L 59.89329 208.926718 
L 59.915886 290.138166 
L 62.321495 290.138166 
L 64.899045 208.926718 
L 65.192012 208.926718 
L 65.328558 290.138166 
L 65.453607 290.138166 
L 72.072457 208.926718 
L 72.241136 290.138166 
L 80.029447 208.926718 
L 80.078164 290.138166 
L 82.687448 208.926718 
L 82.826522 208.926718 
L 82.88033 290.138166 
L 84.609277 290.138166 
L 84.674283 208.926718 
L 85.544839 208.926718 
L 85.733573 290.138166 
L 86.759654 290.138166 
L 89.732666 208.926718 
L 90.269137 208.926718 
L 90.298224 290.138166 
L 90.653788 290.138166 
L 91.52941 208.926718 
L 91.587474 290.138166 
L 91.929065 290.138166 
L 108.892103 208.926718 
L 108.905715 290.138166 
L 109.162486 290.138166 
L 109.436805 208.926718 
L 109.722276 290.138166 
L 109.849507 208.926718 
L 110.254584 208.926718 
L 110.457825 290.138166 
L 110.748548 290.138166 
L 114.883397 208.926718 
L 115.539687 290.138166 
L 117.170948 208.926718 
L 117.48411 290.138166 
L 118.152121 208.926718 
L 118.238872 290.138166 
L 119.241607 208.926718 
L 119.325959 290.138166 
L 123.242903 290.138166 
L 129.222234 208.926718 
L 129.327485 290.138166 
L 131.058319 208.926718 
L 131.506151 208.926718 
L 131.527451 290.138166 
L 133.355659 290.138166 
L 135.934257 208.926718 
L 135.947477 290.138166 
L 138.809618 208.926718 
L 138.852069 290.138166 
L 145.849119 208.926718 
L 146.787241 208.926718 
L 146.855105 290.138166 
L 147.467483 290.138166 
L 147.710907 208.926718 
L 148.023717 208.926718 
L 148.135723 290.138166 
L 149.199299 290.138166 
L 149.707369 208.926718 
L 149.80746 290.138166 
L 150.921189 290.138166 
L 150.932436 208.926718 
L 151.092911 290.138166 
L 155.373099 208.926718 
L 155.461449 290.138166 
L 155.709129 208.926718 
L 192.215578 208.926718 
L 192.312803 290.138166 
L 193.049521 290.138166 
L 193.203634 208.926718 
L 204.909353 208.926718 
L 204.928437 290.138166 
L 210.30345 290.138166 
L 211.676469 208.926718 
L 211.942265 208.926718 
L 212.011015 290.138166 
L 212.535912 290.138166 
L 212.9991 208.926718 
L 213.155775 290.138166 
L 213.427472 208.926718 
L 215.164481 208.926718 
L 215.57192 290.138166 
L 216.062965 290.138166 
L 216.236637 208.926718 
L 216.388293 208.926718 
L 216.55878 290.138166 
L 219.714354 290.138166 
L 221.175451 208.926718 
L 221.272463 290.138166 
L 221.725086 208.926718 
L 222.031931 208.926718 
L 222.200654 290.138166 
L 222.253492 208.926718 
L 222.304755 290.138166 
L 223.565148 290.138166 
L 232.437509 208.926718 
L 232.581871 208.926718 
L 232.58634 290.138166 
L 233.069888 290.138166 
L 243.973884 208.926718 
L 244.111403 290.138166 
L 246.329891 208.926718 
L 246.662804 290.138166 
L 247.871439 208.926718 
L 247.895647 290.138166 
L 248.038656 208.926718 
L 249.360194 208.926718 
L 249.364438 290.138166 
L 249.425763 208.926718 
L 249.480952 208.926718 
L 249.778298 290.138166 
L 249.935139 290.138166 
L 252.037448 208.926718 
L 252.333453 208.926718 
L 252.346156 290.138166 
L 253.215085 290.138166 
L 264.494288 208.926718 
L 264.628189 290.138166 
L 264.881323 208.926718 
L 265.190366 208.926718 
L 265.305696 290.138166 
L 266.262431 290.138166 
L 267.506502 208.926718 
L 267.716339 208.926718 
L 267.809071 290.138166 
L 267.957868 208.926718 
L 268.033902 290.138166 
L 268.654575 208.926718 
L 268.972198 290.138166 
L 275.028848 208.926718 
L 275.268189 290.138166 
L 279.690105 208.926718 
L 279.710451 290.138166 
L 281.575737 208.926718 
L 283.485585 208.926718 
L 283.487619 290.138166 
L 284.254589 290.138166 
L 284.387537 208.926718 
L 284.398129 290.138166 
L 284.845111 290.138166 
L 285.837424 208.926718 
L 285.840471 290.138166 
L 288.651161 290.138166 
L 289.998785 208.926718 
L 290.579573 208.926718 
L 290.61188 290.138166 
L 291.248073 290.138166 
L 300.101836 208.926718 
L 300.291133 290.138166 
L 301.366682 208.926718 
L 301.433389 290.138166 
L 302.284448 208.926718 
L 302.890746 208.926718 
L 303.004362 290.138166 
L 303.545092 290.138166 
L 303.982744 208.926718 
L 304.130095 290.138166 
L 305.832988 208.926718 
L 305.890282 290.138166 
L 306.04287 208.926718 
L 306.379734 290.138166 
L 306.926527 208.926718 
L 307.282514 290.138166 
L 307.490798 208.926718 
L 307.642966 290.138166 
L 308.446324 208.926718 
L 308.512183 290.138166 
L 308.663532 208.926718 
L 308.712811 290.138166 
L 312.422447 208.926718 
L 312.422447 208.926718 
" clip-path="url(#pbff03cf433)" style="fill: none; stroke: #000000; stroke-width: 1.5; stroke-linecap: square"/>
   </g>
   <g id="patch_13">
    <path d="M 44.103906 294.198739 
L 44.103906 204.866146 
" style="fill: none; stroke: #000000; stroke-width: 0.8; stroke-linejoin: miter; stroke-linecap: square"/>
   </g>
   <g id="patch_14">
    <path d="M 325.19952 294.198739 
L 325.19952 204.866146 
" style="fill: none; stroke: #000000; stroke-width: 0.8; stroke-linejoin: miter; stroke-linecap: square"/>
   </g>
   <g id="patch_15">
    <path d="M 44.103906 294.198739 
L 325.19952 294.198739 
" style="fill: none; stroke: #000000; stroke-width: 0.8; stroke-linejoin: miter; stroke-linecap: square"/>
   </g>
   <g id="patch_16">
    <path d="M 44.103906 204.866146 
L 325.19952 204.866146 
" style="fill: none; stroke: #000000; stroke-width: 0.8; stroke-linejoin: miter; stroke-linecap: square"/>
   </g>
  </g>
 </g>
 <defs>
  <clipPath id="p0ba755d355">
   <rect x="44.103906" y="7.2" width="281.095614" height="89.332593"/>
  </clipPath>
  <clipPath id="pf22273cf09">
   <rect x="44.103906" y="106.033073" width="281.095614" height="89.332593"/>
  </clipPath>
  <clipPath id="pbff03cf433">
   <rect x="44.103906" y="204.866146" width="281.095614" height="89.332593"/>
  </clipPath>
 </defs>
</svg>
