<?xml version="1.0" encoding="utf-8" standalone="no"?>
<!DOCTYPE svg PUBLIC "-//W3C//DTD SVG 1.1//EN"
  "http://www.w3.org/Graphics/SVG/1.1/DTD/svg11.dtd">
<svg xmlns:xlink="http://www.w3.org/1999/xlink" width="421.513408pt" height="310.86825pt" viewBox="0 0 421.513408 310.86825" xmlns="http://www.w3.org/2000/svg" version="1.1">
 <metadata>
  <rdf:RDF xmlns:dc="http://purl.org/dc/elements/1.1/" xmlns:cc="http://creativecommons.org/ns#" xmlns:rdf="http://www.w3.org/1999/02/22-rdf-syntax-ns#">
   <cc:Work>
    <dc:type rdf:resource="http://purl.org/dc/dcmitype/StillImage"/>
    <dc:date>2026-05-18T16:27:23.744287</dc:date>
    <dc:format>image/svg+xml</dc:format>
    <dc:creator>
     <cc:Agent>
      <dc:title>Matplotlib v3.10.9, https://matplotlib.org/</dc:title>
     </cc:Agent>
    </dc:creator>
   </cc:Work>
  </rdf:RDF>
 </metadata>
 <defs>
  <style type="text/css">*{stroke-linejoin: round; stroke-linecap: butt}</style>
 </defs>
 <g id="figure_1">
  <g id="patch_1">
   <path d="M 0 310.86825 
L 421.513408 310.86825 
L 421.513408 0 
L 0 0 
z
" style="fill: #ffffff"/>
  </g>
  <g id="axes_1">
   <g id="patch_2">
    <path d="M 46.965625 273.312 
L 404.085625 273.312 
L 404.085625 7.2 
L 46.965625 7.2 
z
" style="fill: #ffffff"/>
   </g>
   <g id="matplotlib.axis_1">
    <g id="xtick_1">
     <g id="line2d_1">
      <defs>
       <path id="m484b3a709a" d="M 0 0 
L 0 3.5 
" style="stroke: #000000; stroke-width: 0.8"/>
      </defs>
      <g>
       <use xlink:href="#m484b3a709a" x="46.965625" y="273.312" style="stroke: #000000; stroke-width: 0.8"/>
      </g>
     </g>
     <g id="text_1">
      <!-- 0.00 -->
      <g transform="translate(35.832813 287.910437) scale(0.1 -0.1)">
       <defs>
        <path id="DejaVuSans-30" d="M 2034 4250 
Q 1547 4250 1301 3770 
Q 1056 3291 1056 2328 
Q 1056 1369 1301 889 
Q 1547 409 2034 409 
Q 2525 409 2770 889 
Q 3016 1369 3016 2328 
Q 3016 3291 2770 3770 
Q 2525 4250 2034 4250 
z
M 2034 4750 
Q 2819 4750 3233 4129 
Q 3647 3509 3647 2328 
Q 3647 1150 3233 529 
Q 2819 -91 2034 -91 
Q 1250 -91 836 529 
Q 422 1150 422 2328 
Q 422 3509 836 4129 
Q 1250 4750 2034 4750 
z
" transform="scale(0.015625)"/>
        <path id="DejaVuSans-2e" d="M 684 794 
L 1344 794 
L 1344 0 
L 684 0 
L 684 794 
z
" transform="scale(0.015625)"/>
       </defs>
       <use xlink:href="#DejaVuSans-30"/>
       <use xlink:href="#DejaVuSans-2e" transform="translate(63.623047 0)"/>
       <use xlink:href="#DejaVuSans-30" transform="translate(95.410156 0)"/>
       <use xlink:href="#DejaVuSans-30" transform="translate(159.033203 0)"/>
      </g>
     </g>
    </g>
    <g id="xtick_2">
     <g id="line2d_2">
      <g>
       <use xlink:href="#m484b3a709a" x="91.492496" y="273.312" style="stroke: #000000; stroke-width: 0.8"/>
      </g>
     </g>
     <g id="text_2">
      <!-- 0.25 -->
      <g transform="translate(80.359684 287.910437) scale(0.1 -0.1)">
       <defs>
        <path id="DejaVuSans-32" d="M 1228 531 
L 3431 531 
L 3431 0 
L 469 0 
L 469 531 
Q 828 903 1448 1529 
Q 2069 2156 2228 2338 
Q 2531 2678 2651 2914 
Q 2772 3150 2772 3378 
Q 2772 3750 2511 3984 
Q 2250 4219 1831 4219 
Q 1534 4219 1204 4116 
Q 875 4013 500 3803 
L 500 4441 
Q 881 4594 1212 4672 
Q 1544 4750 1819 4750 
Q 2544 4750 2975 4387 
Q 3406 4025 3406 3419 
Q 3406 3131 3298 2873 
Q 3191 2616 2906 2266 
Q 2828 2175 2409 1742 
Q 1991 1309 1228 531 
z
" transform="scale(0.015625)"/>
        <path id="DejaVuSans-35" d="M 691 4666 
L 3169 4666 
L 3169 4134 
L 1269 4134 
L 1269 2991 
Q 1406 3038 1543 3061 
Q 1681 3084 1819 3084 
Q 2600 3084 3056 2656 
Q 3513 2228 3513 1497 
Q 3513 744 3044 326 
Q 2575 -91 1722 -91 
Q 1428 -91 1123 -41 
Q 819 9 494 109 
L 494 744 
Q 775 591 1075 516 
Q 1375 441 1709 441 
Q 2250 441 2565 725 
Q 2881 1009 2881 1497 
Q 2881 1984 2565 2268 
Q 2250 2553 1709 2553 
Q 1456 2553 1204 2497 
Q 953 2441 691 2322 
L 691 4666 
z
" transform="scale(0.015625)"/>
       </defs>
       <use xlink:href="#DejaVuSans-30"/>
       <use xlink:href="#DejaVuSans-2e" transform="translate(63.623047 0)"/>
       <use xlink:href="#DejaVuSans-32" transform="translate(95.410156 0)"/>
       <use xlink:href="#DejaVuSans-35" transform="translate(159.033203 0)"/>
      </g>
     </g>
    </g>
    <g id="xtick_3">
     <g id="line2d_3">
      <g>
       <use xlink:href="#m484b3a709a" x="136.019368" y="273.312" style="stroke: #000000; stroke-width: 0.8"/>
      </g>
     </g>
     <g id="text_3">
      <!-- 0.50 -->
      <g transform="translate(124.886555 287.910437) scale(0.1 -0.1)">
       <use xlink:href="#DejaVuSans-30"/>
       <use xlink:href="#DejaVuSans-2e" transform="translate(63.623047 0)"/>
       <use xlink:href="#DejaVuSans-35" transform="translate(95.410156 0)"/>
       <use xlink:href="#DejaVuSans-30" transform="translate(159.033203 0)"/>
      </g>
     </g>
    </g>
    <g id="xtick_4">
     <g id="line2d_4">
      <g>
       <use xlink:href="#m484b3a709a" x="180.546239" y="273.312" style="stroke: #000000; stroke-width: 0.8"/>
      </g>
     </g>
     <g id="text_4">
      <!-- 0.75 -->
      <g transform="translate(169.413426 287.910437) scale(0.1 -0.1)">
       <defs>
        <path id="DejaVuSans-37" d="M 525 4666 
L 3525 4666 
L 3525 4397 
L 1831 0 
L 1172 0 
L 2766 4134 
L 525 4134 
L 525 4666 
z
" transform="scale(0.015625)"/>
       </defs>
       <use xlink:href="#DejaVuSans-30"/>
       <use xlink:href="#DejaVuSans-2e" transform="translate(63.623047 0)"/>
       <use xlink:href="#DejaVuSans-37" transform="translate(95.410156 0)"/>
       <use xlink:href="#DejaVuSans-35" transform="translate(159.033203 0)"/>
      </g>
     </g>
    </g>
    <g id="xtick_5">
     <g id="line2d_5">
      <g>
       <use xlink:href="#m484b3a709a" x="225.07311" y="273.312" style="stroke: #000000; stroke-width: 0.8"/>
      </g>
     </g>
     <g id="text_5">
      <!-- 1.00 -->
      <g transform="translate(213.940298 287.910437) scale(0.1 -0.1)">
       <defs>
        <path id="DejaVuSans-31" d="M 794 531 
L 1825 531 
L 1825 4091 
L 703 3866 
L 703 4441 
L 1819 4666 
L 2450 4666 
L 2450 531 
L 3481 531 
L 3481 0 
L 794 0 
L 794 531 
z
" transform="scale(0.015625)"/>
       </defs>
       <use xlink:href="#DejaVuSans-31"/>
       <use xlink:href="#DejaVuSans-2e" transform="translate(63.623047 0)"/>
       <use xlink:href="#DejaVuSans-30" transform="translate(95.410156 0)"/>
       <use xlink:href="#DejaVuSans-30" transform="translate(159.033203 0)"/>
      </g>
     </g>
    </g>
    <g id="xtick_6">
     <g id="line2d_6">
      <g>
       <use xlink:href="#m484b3a709a" x="269.599981" y="273.312" style="stroke: #000000; stroke-width: 0.8"/>
      </g>
     </g>
     <g id="text_6">
      <!-- 1.25 -->
      <g transform="translate(258.467169 287.910437) scale(0.1 -0.1)">
       <use xlink:href="#DejaVuSans-31"/>
       <use xlink:href="#DejaVuSans-2e" transform="translate(63.623047 0)"/>
       <use xlink:href="#DejaVuSans-32" transform="translate(95.410156 0)"/>
       <use xlink:href="#DejaVuSans-35" transform="translate(159.033203 0)"/>
      </g>
     </g>
    </g>
    <g id="xtick_7">
     <g id="line2d_7">
      <g>
       <use xlink:href="#m484b3a709a" x="314.126853" y="273.312" style="stroke: #000000; stroke-width: 0.8"/>
      </g>
     </g>
     <g id="text_7">
      <!-- 1.50 -->
      <g transform="translate(302.99404 287.910437) scale(0.1 -0.1)">
       <use xlink:href="#DejaVuSans-31"/>
       <use xlink:href="#DejaVuSans-2e" transform="translate(63.623047 0)"/>
       <use xlink:href="#DejaVuSans-35" transform="translate(95.410156 0)"/>
       <use xlink:href="#DejaVuSans-30" transform="translate(159.033203 0)"/>
      </g>
     </g>
    </g>
    <g id="xtick_8">
     <g id="line2d_8">
      <g>
       <use xlink:href="#m484b3a709a" x="358.653724" y="273.312" style="stroke: #000000; stroke-width: 0.8"/>
      </g>
     </g>
     <g id="text_8">
      <!-- 1.75 -->
      <g transform="translate(347.520911 287.910437) scale(0.1 -0.1)">
       <use xlink:href="#DejaVuSans-31"/>
       <use xlink:href="#DejaVuSans-2e" transform="translate(63.623047 0)"/>
       <use xlink:href="#DejaVuSans-37" transform="translate(95.410156 0)"/>
       <use xlink:href="#DejaVuSans-35" transform="translate(159.033203 0)"/>
      </g>
     </g>
    </g>
    <g id="xtick_9">
     <g id="line2d_9">
      <g>
       <use xlink:href="#m484b3a709a" x="403.180595" y="273.312" style="stroke: #000000; stroke-width: 0.8"/>
      </g>
     </g>
     <g id="text_9">
      <!-- 2.00 -->
      <g transform="translate(392.047783 287.910437) scale(0.1 -0.1)">
       <use xlink:href="#DejaVuSans-32"/>
       <use xlink:href="#DejaVuSans-2e" transform="translate(63.623047 0)"/>
       <use xlink:href="#DejaVuSans-30" transform="translate(95.410156 0)"/>
       <use xlink:href="#DejaVuSans-30" transform="translate(159.033203 0)"/>
      </g>
     </g>
    </g>
    <g id="text_10">
     <!-- Time -->
     <g transform="translate(213.292031 301.588562) scale(0.1 -0.1)">
      <defs>
       <path id="DejaVuSans-54" d="M -19 4666 
L 3928 4666 
L 3928 4134 
L 2272 4134 
L 2272 0 
L 1638 0 
L 1638 4134 
L -19 4134 
L -19 4666 
z
" transform="scale(0.015625)"/>
       <path id="DejaVuSans-69" d="M 603 3500 
L 1178 3500 
L 1178 0 
L 603 0 
L 603 3500 
z
M 603 4863 
L 1178 4863 
L 1178 4134 
L 603 4134 
L 603 4863 
z
" transform="scale(0.015625)"/>
       <path id="DejaVuSans-6d" d="M 3328 2828 
Q 3544 3216 3844 3400 
Q 4144 3584 4550 3584 
Q 5097 3584 5394 3201 
Q 5691 2819 5691 2113 
L 5691 0 
L 5113 0 
L 5113 2094 
Q 5113 2597 4934 2840 
Q 4756 3084 4391 3084 
Q 3944 3084 3684 2787 
Q 3425 2491 3425 1978 
L 3425 0 
L 2847 0 
L 2847 2094 
Q 2847 2600 2669 2842 
Q 2491 3084 2119 3084 
Q 1678 3084 1418 2786 
Q 1159 2488 1159 1978 
L 1159 0 
L 581 0 
L 581 3500 
L 1159 3500 
L 1159 2956 
Q 1356 3278 1631 3431 
Q 1906 3584 2284 3584 
Q 2666 3584 2933 3390 
Q 3200 3197 3328 2828 
z
" transform="scale(0.015625)"/>
       <path id="DejaVuSans-65" d="M 3597 1894 
L 3597 1613 
L 953 1613 
Q 991 1019 1311 708 
Q 1631 397 2203 397 
Q 2534 397 2845 478 
Q 3156 559 3463 722 
L 3463 178 
Q 3153 47 2828 -22 
Q 2503 -91 2169 -91 
Q 1331 -91 842 396 
Q 353 884 353 1716 
Q 353 2575 817 3079 
Q 1281 3584 2069 3584 
Q 2775 3584 3186 3129 
Q 3597 2675 3597 1894 
z
M 3022 2063 
Q 3016 2534 2758 2815 
Q 2500 3097 2075 3097 
Q 1594 3097 1305 2825 
Q 1016 2553 972 2059 
L 3022 2063 
z
" transform="scale(0.015625)"/>
      </defs>
      <use xlink:href="#DejaVuSans-54"/>
      <use xlink:href="#DejaVuSans-69" transform="translate(57.958984 0)"/>
      <use xlink:href="#DejaVuSans-6d" transform="translate(85.742188 0)"/>
      <use xlink:href="#DejaVuSans-65" transform="translate(183.154297 0)"/>
     </g>
    </g>
   </g>
   <g id="matplotlib.axis_2">
    <g id="ytick_1">
     <g id="line2d_10">
      <defs>
       <path id="m1cffcdea22" d="M 0 0 
L -3.5 0 
" style="stroke: #000000; stroke-width: 0.8"/>
      </defs>
      <g>
       <use xlink:href="#m1cffcdea22" x="46.965625" y="273.312" style="stroke: #000000; stroke-width: 0.8"/>
      </g>
     </g>
     <g id="text_11">
      <!-- 0 -->
      <g transform="translate(33.603125 277.111219) scale(0.1 -0.1)">
       <use xlink:href="#DejaVuSans-30"/>
      </g>
     </g>
    </g>
    <g id="ytick_2">
     <g id="line2d_11">
      <g>
       <use xlink:href="#m1cffcdea22" x="46.965625" y="236.352" style="stroke: #000000; stroke-width: 0.8"/>
      </g>
     </g>
     <g id="text_12">
      <!-- 20 -->
      <g transform="translate(27.240625 240.151219) scale(0.1 -0.1)">
       <use xlink:href="#DejaVuSans-32"/>
       <use xlink:href="#DejaVuSans-30" transform="translate(63.623047 0)"/>
      </g>
     </g>
    </g>
    <g id="ytick_3">
     <g id="line2d_12">
      <g>
       <use xlink:href="#m1cffcdea22" x="46.965625" y="199.392" style="stroke: #000000; stroke-width: 0.8"/>
      </g>
     </g>
     <g id="text_13">
      <!-- 40 -->
      <g transform="translate(27.240625 203.191219) scale(0.1 -0.1)">
       <defs>
        <path id="DejaVuSans-34" d="M 2419 4116 
L 825 1625 
L 2419 1625 
L 2419 4116 
z
M 2253 4666 
L 3047 4666 
L 3047 1625 
L 3713 1625 
L 3713 1100 
L 3047 1100 
L 3047 0 
L 2419 0 
L 2419 1100 
L 313 1100 
L 313 1709 
L 2253 4666 
z
" transform="scale(0.015625)"/>
       </defs>
       <use xlink:href="#DejaVuSans-34"/>
       <use xlink:href="#DejaVuSans-30" transform="translate(63.623047 0)"/>
      </g>
     </g>
    </g>
    <g id="ytick_4">
     <g id="line2d_13">
      <g>
       <use xlink:href="#m1cffcdea22" x="46.965625" y="162.432" style="stroke: #000000; stroke-width: 0.8"/>
      </g>
     </g>
     <g id="text_14">
      <!-- 60 -->
      <g transform="translate(27.240625 166.231219) scale(0.1 -0.1)">
       <defs>
        <path id="DejaVuSans-36" d="M 2113 2584 
Q 1688 2584 1439 2293 
Q 1191 2003 1191 1497 
Q 1191 994 1439 701 
Q 1688 409 2113 409 
Q 2538 409 2786 701 
Q 3034 994 3034 1497 
Q 3034 2003 2786 2293 
Q 2538 2584 2113 2584 
z
M 3366 4563 
L 3366 3988 
Q 3128 4100 2886 4159 
Q 2644 4219 2406 4219 
Q 1781 4219 1451 3797 
Q 1122 3375 1075 2522 
Q 1259 2794 1537 2939 
Q 1816 3084 2150 3084 
Q 2853 3084 3261 2657 
Q 3669 2231 3669 1497 
Q 3669 778 3244 343 
Q 2819 -91 2113 -91 
Q 1303 -91 875 529 
Q 447 1150 447 2328 
Q 447 3434 972 4092 
Q 1497 4750 2381 4750 
Q 2619 4750 2861 4703 
Q 3103 4656 3366 4563 
z
" transform="scale(0.015625)"/>
       </defs>
       <use xlink:href="#DejaVuSans-36"/>
       <use xlink:href="#DejaVuSans-30" transform="translate(63.623047 0)"/>
      </g>
     </g>
    </g>
    <g id="ytick_5">
     <g id="line2d_14">
      <g>
       <use xlink:href="#m1cffcdea22" x="46.965625" y="125.472" style="stroke: #000000; stroke-width: 0.8"/>
      </g>
     </g>
     <g id="text_15">
      <!-- 80 -->
      <g transform="translate(27.240625 129.271219) scale(0.1 -0.1)">
       <defs>
        <path id="DejaVuSans-38" d="M 2034 2216 
Q 1584 2216 1326 1975 
Q 1069 1734 1069 1313 
Q 1069 891 1326 650 
Q 1584 409 2034 409 
Q 2484 409 2743 651 
Q 3003 894 3003 1313 
Q 3003 1734 2745 1975 
Q 2488 2216 2034 2216 
z
M 1403 2484 
Q 997 2584 770 2862 
Q 544 3141 544 3541 
Q 544 4100 942 4425 
Q 1341 4750 2034 4750 
Q 2731 4750 3128 4425 
Q 3525 4100 3525 3541 
Q 3525 3141 3298 2862 
Q 3072 2584 2669 2484 
Q 3125 2378 3379 2068 
Q 3634 1759 3634 1313 
Q 3634 634 3220 271 
Q 2806 -91 2034 -91 
Q 1263 -91 848 271 
Q 434 634 434 1313 
Q 434 1759 690 2068 
Q 947 2378 1403 2484 
z
M 1172 3481 
Q 1172 3119 1398 2916 
Q 1625 2713 2034 2713 
Q 2441 2713 2670 2916 
Q 2900 3119 2900 3481 
Q 2900 3844 2670 4047 
Q 2441 4250 2034 4250 
Q 1625 4250 1398 4047 
Q 1172 3844 1172 3481 
z
" transform="scale(0.015625)"/>
       </defs>
       <use xlink:href="#DejaVuSans-38"/>
       <use xlink:href="#DejaVuSans-30" transform="translate(63.623047 0)"/>
      </g>
     </g>
    </g>
    <g id="ytick_6">
     <g id="line2d_15">
      <g>
       <use xlink:href="#m1cffcdea22" x="46.965625" y="88.512" style="stroke: #000000; stroke-width: 0.8"/>
      </g>
     </g>
     <g id="text_16">
      <!-- 100 -->
      <g transform="translate(20.878125 92.311219) scale(0.1 -0.1)">
       <use xlink:href="#DejaVuSans-31"/>
       <use xlink:href="#DejaVuSans-30" transform="translate(63.623047 0)"/>
       <use xlink:href="#DejaVuSans-30" transform="translate(127.246094 0)"/>
      </g>
     </g>
    </g>
    <g id="ytick_7">
     <g id="line2d_16">
      <g>
       <use xlink:href="#m1cffcdea22" x="46.965625" y="51.552" style="stroke: #000000; stroke-width: 0.8"/>
      </g>
     </g>
     <g id="text_17">
      <!-- 120 -->
      <g transform="translate(20.878125 55.351219) scale(0.1 -0.1)">
       <use xlink:href="#DejaVuSans-31"/>
       <use xlink:href="#DejaVuSans-32" transform="translate(63.623047 0)"/>
       <use xlink:href="#DejaVuSans-30" transform="translate(127.246094 0)"/>
      </g>
     </g>
    </g>
    <g id="ytick_8">
     <g id="line2d_17">
      <g>
       <use xlink:href="#m1cffcdea22" x="46.965625" y="14.592" style="stroke: #000000; stroke-width: 0.8"/>
      </g>
     </g>
     <g id="text_18">
      <!-- 140 -->
      <g transform="translate(20.878125 18.391219) scale(0.1 -0.1)">
       <use xlink:href="#DejaVuSans-31"/>
       <use xlink:href="#DejaVuSans-34" transform="translate(63.623047 0)"/>
       <use xlink:href="#DejaVuSans-30" transform="translate(127.246094 0)"/>
      </g>
     </g>
    </g>
    <g id="text_19">
     <!-- Observable -->
     <g transform="translate(14.798438 168.766156) rotate(-90) scale(0.1 -0.1)">
      <defs>
       <path id="DejaVuSans-4f" d="M 2522 4238 
Q 1834 4238 1429 3725 
Q 1025 3213 1025 2328 
Q 1025 1447 1429 934 
Q 1834 422 2522 422 
Q 3209 422 3611 934 
Q 4013 1447 4013 2328 
Q 4013 3213 3611 3725 
Q 3209 4238 2522 4238 
z
M 2522 4750 
Q 3503 4750 4090 4092 
Q 4678 3434 4678 2328 
Q 4678 1225 4090 567 
Q 3503 -91 2522 -91 
Q 1538 -91 948 565 
Q 359 1222 359 2328 
Q 359 3434 948 4092 
Q 1538 4750 2522 4750 
z
" transform="scale(0.015625)"/>
       <path id="DejaVuSans-62" d="M 3116 1747 
Q 3116 2381 2855 2742 
Q 2594 3103 2138 3103 
Q 1681 3103 1420 2742 
Q 1159 2381 1159 1747 
Q 1159 1113 1420 752 
Q 1681 391 2138 391 
Q 2594 391 2855 752 
Q 3116 1113 3116 1747 
z
M 1159 2969 
Q 1341 3281 1617 3432 
Q 1894 3584 2278 3584 
Q 2916 3584 3314 3078 
Q 3713 2572 3713 1747 
Q 3713 922 3314 415 
Q 2916 -91 2278 -91 
Q 1894 -91 1617 61 
Q 1341 213 1159 525 
L 1159 0 
L 581 0 
L 581 4863 
L 1159 4863 
L 1159 2969 
z
" transform="scale(0.015625)"/>
       <path id="DejaVuSans-73" d="M 2834 3397 
L 2834 2853 
Q 2591 2978 2328 3040 
Q 2066 3103 1784 3103 
Q 1356 3103 1142 2972 
Q 928 2841 928 2578 
Q 928 2378 1081 2264 
Q 1234 2150 1697 2047 
L 1894 2003 
Q 2506 1872 2764 1633 
Q 3022 1394 3022 966 
Q 3022 478 2636 193 
Q 2250 -91 1575 -91 
Q 1294 -91 989 -36 
Q 684 19 347 128 
L 347 722 
Q 666 556 975 473 
Q 1284 391 1588 391 
Q 1994 391 2212 530 
Q 2431 669 2431 922 
Q 2431 1156 2273 1281 
Q 2116 1406 1581 1522 
L 1381 1569 
Q 847 1681 609 1914 
Q 372 2147 372 2553 
Q 372 3047 722 3315 
Q 1072 3584 1716 3584 
Q 2034 3584 2315 3537 
Q 2597 3491 2834 3397 
z
" transform="scale(0.015625)"/>
       <path id="DejaVuSans-72" d="M 2631 2963 
Q 2534 3019 2420 3045 
Q 2306 3072 2169 3072 
Q 1681 3072 1420 2755 
Q 1159 2438 1159 1844 
L 1159 0 
L 581 0 
L 581 3500 
L 1159 3500 
L 1159 2956 
Q 1341 3275 1631 3429 
Q 1922 3584 2338 3584 
Q 2397 3584 2469 3576 
Q 2541 3569 2628 3553 
L 2631 2963 
z
" transform="scale(0.015625)"/>
       <path id="DejaVuSans-76" d="M 191 3500 
L 800 3500 
L 1894 563 
L 2988 3500 
L 3597 3500 
L 2284 0 
L 1503 0 
L 191 3500 
z
" transform="scale(0.015625)"/>
       <path id="DejaVuSans-61" d="M 2194 1759 
Q 1497 1759 1228 1600 
Q 959 1441 959 1056 
Q 959 750 1161 570 
Q 1363 391 1709 391 
Q 2188 391 2477 730 
Q 2766 1069 2766 1631 
L 2766 1759 
L 2194 1759 
z
M 3341 1997 
L 3341 0 
L 2766 0 
L 2766 531 
Q 2569 213 2275 61 
Q 1981 -91 1556 -91 
Q 1019 -91 701 211 
Q 384 513 384 1019 
Q 384 1609 779 1909 
Q 1175 2209 1959 2209 
L 2766 2209 
L 2766 2266 
Q 2766 2663 2505 2880 
Q 2244 3097 1772 3097 
Q 1472 3097 1187 3025 
Q 903 2953 641 2809 
L 641 3341 
Q 956 3463 1253 3523 
Q 1550 3584 1831 3584 
Q 2591 3584 2966 3190 
Q 3341 2797 3341 1997 
z
" transform="scale(0.015625)"/>
       <path id="DejaVuSans-6c" d="M 603 4863 
L 1178 4863 
L 1178 0 
L 603 0 
L 603 4863 
z
" transform="scale(0.015625)"/>
      </defs>
      <use xlink:href="#DejaVuSans-4f"/>
      <use xlink:href="#DejaVuSans-62" transform="translate(78.710938 0)"/>
      <use xlink:href="#DejaVuSans-73" transform="translate(142.1875 0)"/>
      <use xlink:href="#DejaVuSans-65" transform="translate(194.287109 0)"/>
      <use xlink:href="#DejaVuSans-72" transform="translate(255.810547 0)"/>
      <use xlink:href="#DejaVuSans-76" transform="translate(296.923828 0)"/>
      <use xlink:href="#DejaVuSans-61" transform="translate(356.103516 0)"/>
      <use xlink:href="#DejaVuSans-62" transform="translate(417.382812 0)"/>
      <use xlink:href="#DejaVuSans-6c" transform="translate(480.859375 0)"/>
      <use xlink:href="#DejaVuSans-65" transform="translate(508.642578 0)"/>
     </g>
    </g>
   </g>
   <g id="line2d_18">
    <path d="M 46.965625 273.312 
L 47.140125 258.528 
L 47.579437 217.872 
L 47.691437 214.176 
L 47.779764 208.632 
L 48.694027 177.216 
L 48.942901 175.368 
L 49.105879 171.672 
L 49.495239 169.824 
L 49.498855 167.976 
L 49.634311 166.128 
L 49.648051 164.28 
L 49.86937 160.584 
L 49.909026 158.736 
L 50.234791 156.888 
L 50.978132 147.648 
L 51.574538 145.8 
L 51.77019 142.104 
L 51.981673 140.256 
L 52.552036 138.408 
L 52.783623 136.56 
L 53.187132 134.712 
L 53.318485 132.864 
L 54.350367 129.168 
L 56.313297 125.472 
L 57.781939 123.624 
L 58.076465 121.776 
L 58.516024 119.928 
L 60.036928 121.776 
L 60.343231 123.624 
L 60.391545 119.928 
L 61.202061 118.08 
L 61.289321 116.232 
L 61.300741 118.08 
L 61.416081 119.928 
L 61.48969 118.08 
L 61.783343 116.232 
L 61.868478 118.08 
L 63.108387 116.232 
L 63.50231 114.384 
L 63.92997 110.688 
L 64.706959 112.536 
L 64.898488 114.384 
L 65.355159 116.232 
L 65.544232 114.384 
L 66.76734 116.232 
L 68.363877 114.384 
L 68.520233 116.232 
L 68.974573 114.384 
L 68.977988 112.536 
L 69.757525 110.688 
L 69.805654 112.536 
L 69.854734 110.688 
L 70.720269 108.84 
L 71.122163 110.688 
L 71.505846 108.84 
L 71.671169 110.688 
L 71.816417 108.84 
L 73.470826 110.688 
L 74.044438 108.84 
L 74.104836 110.688 
L 74.752521 106.992 
L 74.847893 108.84 
L 75.575595 106.992 
L 77.927302 108.84 
L 81.942338 112.536 
L 83.184038 114.384 
L 83.2043 116.232 
L 83.554566 114.384 
L 84.347068 116.232 
L 85.314054 114.384 
L 85.389133 110.688 
L 85.608749 112.536 
L 85.723087 110.688 
L 86.401856 108.84 
L 86.662533 106.992 
L 88.703923 108.84 
L 90.210584 106.992 
L 93.271364 105.144 
L 94.50608 103.296 
L 94.520137 101.448 
L 94.973105 99.6 
L 95.518226 101.448 
L 101.140108 99.6 
L 102.255278 101.448 
L 103.140821 103.296 
L 103.554218 101.448 
L 104.164241 99.6 
L 105.108745 101.448 
L 106.281347 103.296 
L 106.965769 101.448 
L 108.568296 103.296 
L 108.849254 105.144 
L 109.032556 103.296 
L 109.068714 101.448 
L 109.85674 99.6 
L 109.909389 97.752 
L 111.257872 99.6 
L 115.733713 101.448 
L 116.032753 103.296 
L 116.353724 101.448 
L 116.816963 103.296 
L 117.389558 101.448 
L 119.686159 99.6 
L 122.958867 101.448 
L 124.408428 103.296 
L 125.883929 101.448 
L 126.583292 99.6 
L 127.679668 97.752 
L 128.651898 101.448 
L 130.946066 103.296 
L 132.285818 105.144 
L 132.510785 103.296 
L 133.550343 105.144 
L 135.683011 103.296 
L 136.048221 101.448 
L 138.210706 103.296 
L 138.383508 101.448 
L 139.013367 103.296 
L 139.165722 105.144 
L 141.918273 106.992 
L 142.31171 108.84 
L 143.439466 106.992 
L 143.50106 105.144 
L 144.315959 106.992 
L 144.489017 105.144 
L 145.523026 103.296 
L 145.560908 105.144 
L 146.225521 103.296 
L 147.287599 101.448 
L 148.652595 103.296 
L 148.977643 101.448 
L 150.378624 103.296 
L 152.85273 105.144 
L 155.122507 103.296 
L 156.956133 105.144 
L 158.068547 106.992 
L 158.985122 108.84 
L 159.109785 106.992 
L 160.277408 105.144 
L 165.526824 103.296 
L 166.819326 101.448 
L 167.288073 103.296 
L 169.30811 105.144 
L 169.571457 103.296 
L 170.361956 105.144 
L 171.098006 103.296 
L 172.071448 105.144 
L 172.780817 106.992 
L 172.914321 108.84 
L 173.548673 106.992 
L 175.98023 108.84 
L 176.88906 106.992 
L 176.918683 108.84 
L 178.067158 106.992 
L 181.338516 108.84 
L 181.928769 110.688 
L 182.570296 108.84 
L 184.150697 110.688 
L 184.469746 108.84 
L 185.688477 106.992 
L 189.702757 105.144 
L 189.8803 106.992 
L 191.443325 105.144 
L 191.974622 108.84 
L 191.981754 110.688 
L 192.357696 112.536 
L 192.715861 110.688 
L 193.88405 112.536 
L 193.946998 110.688 
L 196.425646 112.536 
L 196.654123 110.688 
L 198.567058 114.384 
L 198.598929 112.536 
L 199.141509 114.384 
L 199.389063 112.536 
L 200.560028 108.84 
L 200.830447 110.688 
L 201.297831 112.536 
L 201.475228 114.384 
L 201.485165 116.232 
L 201.779008 114.384 
L 203.783886 110.688 
L 204.441882 108.84 
L 204.688665 106.992 
L 206.277408 108.84 
L 206.752221 106.992 
L 207.675845 105.144 
L 208.445389 106.992 
L 210.446749 105.144 
L 212.213586 103.296 
L 213.246241 105.144 
L 213.733882 106.992 
L 215.090199 108.84 
L 216.081713 105.144 
L 217.838361 106.992 
L 219.80715 105.144 
L 219.843831 103.296 
L 219.99498 105.144 
L 224.31996 103.296 
L 224.62928 105.144 
L 226.923716 103.296 
L 226.93036 101.448 
L 227.096505 97.752 
L 227.180528 94.056 
L 227.407615 92.208 
L 227.433442 90.36 
L 227.584711 88.512 
L 227.598973 86.664 
L 227.918095 81.12 
L 228.03024 75.576 
L 228.181821 68.184 
L 228.375163 66.336 
L 228.52921 62.64 
L 228.555793 64.488 
L 228.739994 62.64 
L 229.08401 64.488 
L 229.424765 55.248 
L 229.595642 53.4 
L 229.996526 51.552 
L 231.315211 42.312 
L 231.317823 46.008 
L 231.667345 44.16 
L 232.006388 38.616 
L 232.296786 36.768 
L 232.376503 34.92 
L 233.369641 33.072 
L 234.785422 31.224 
L 235.011409 33.072 
L 235.229788 31.224 
L 236.201126 29.376 
L 236.573148 25.68 
L 237.094791 23.832 
L 237.850127 25.68 
L 238.14769 23.832 
L 238.271644 21.984 
L 238.274609 23.832 
L 238.591513 25.68 
L 239.162922 23.832 
L 239.575319 25.68 
L 239.749444 23.832 
L 239.791027 21.984 
L 240.032613 20.136 
L 240.824079 16.44 
L 241.606104 18.288 
L 241.743444 16.44 
L 241.857794 18.288 
L 243.50893 16.44 
L 245.744012 18.288 
L 246.533473 16.44 
L 247.247769 18.288 
L 248.11358 20.136 
L 248.5481 18.288 
L 250.144376 16.44 
L 251.264636 18.288 
L 252.80449 20.136 
L 253.739632 18.288 
L 258.017589 20.136 
L 258.114956 21.984 
L 258.409111 20.136 
L 258.549733 18.288 
L 259.489708 20.136 
L 259.534301 21.984 
L 259.665177 18.288 
L 259.710426 20.136 
L 260.716666 21.984 
L 261.17673 20.136 
L 262.622008 23.832 
L 263.162714 18.288 
L 266.182648 16.44 
L 266.926027 18.288 
L 268.772475 20.136 
L 270.055593 21.984 
L 270.127607 20.136 
L 271.189769 23.832 
L 271.204882 25.68 
L 271.449013 23.832 
L 271.671919 25.68 
L 272.670339 27.528 
L 273.47267 23.832 
L 274.082636 25.68 
L 274.1425 27.528 
L 275.26875 31.224 
L 275.435797 29.376 
L 276.162859 27.528 
L 276.454636 25.68 
L 276.611646 23.832 
L 277.703279 25.68 
L 277.801091 27.528 
L 278.5792 29.376 
L 278.966527 27.528 
L 279.59187 25.68 
L 280.902741 27.528 
L 281.283407 23.832 
L 281.954971 21.984 
L 281.983169 23.832 
L 282.909999 21.984 
L 283.171915 23.832 
L 284.309852 21.984 
L 284.377036 20.136 
L 284.636072 21.984 
L 285.34645 23.832 
L 287.515283 21.984 
L 287.664654 20.136 
L 288.036356 18.288 
L 288.62717 23.832 
L 289.735822 21.984 
L 289.761497 23.832 
L 290.278654 21.984 
L 291.572736 20.136 
L 292.610237 21.984 
L 293.456982 23.832 
L 294.194809 21.984 
L 294.701978 20.136 
L 295.423481 23.832 
L 295.864339 21.984 
L 296.055447 23.832 
L 296.058077 21.984 
L 296.28263 23.832 
L 296.971965 21.984 
L 297.262525 23.832 
L 297.666014 25.68 
L 298.812219 27.528 
L 300.26415 23.832 
L 300.496394 21.984 
L 300.653104 23.832 
L 300.660545 25.68 
L 301.466836 23.832 
L 301.913031 21.984 
L 302.193642 18.288 
L 303.249433 20.136 
L 303.899709 21.984 
L 304.166468 20.136 
L 304.242277 21.984 
L 306.230911 23.832 
L 307.62439 21.984 
L 307.935027 18.288 
L 308.49746 20.136 
L 308.938067 21.984 
L 309.115957 20.136 
L 310.210606 18.288 
L 310.485223 16.44 
L 310.838093 18.288 
L 311.054575 16.44 
L 312.338772 14.592 
L 313.745113 16.44 
L 314.352236 14.592 
L 314.885931 10.896 
L 315.126708 9.048 
L 316.436837 14.592 
L 316.572551 12.744 
L 317.949163 10.896 
L 318.047839 9.048 
L 318.550222 10.896 
L 318.670774 9.048 
L 321.167497 10.896 
L 322.970415 12.744 
L 324.094696 14.592 
L 324.951643 16.44 
L 327.327586 14.592 
L 328.092159 16.44 
L 328.664753 14.592 
L 329.0729 12.744 
L 330.092264 10.896 
L 330.128342 12.744 
L 332.75509 14.592 
L 333.494373 12.744 
L 333.684404 10.896 
L 333.871425 12.744 
L 334.328759 10.896 
L 334.989721 12.744 
L 335.267334 14.592 
L 337.413732 16.44 
L 337.998478 20.136 
L 339.661915 18.288 
L 339.714535 16.44 
L 339.988296 12.744 
L 340.061568 10.896 
L 342.440969 9.048 
L 342.805213 7.2 
L 343.020736 9.048 
L 343.056652 7.2 
L 344.246728 9.048 
L 344.302404 10.896 
L 345.682835 9.048 
L 347.565515 10.896 
L 350.319596 9.048 
L 350.824874 10.896 
L 352.004804 12.744 
L 352.006075 10.896 
L 352.899214 12.744 
L 353.07955 14.592 
L 357.699172 16.44 
L 358.171142 18.288 
L 358.330639 16.44 
L 360.846808 21.984 
L 361.555268 23.832 
L 361.673074 21.984 
L 362.25793 18.288 
L 363.367908 16.44 
L 363.369557 18.288 
L 363.523195 16.44 
L 363.648037 18.288 
L 363.742709 16.44 
L 363.891872 18.288 
L 365.505178 20.136 
L 365.931433 18.288 
L 367.067616 20.136 
L 368.715626 18.288 
L 369.12561 20.136 
L 369.204719 21.984 
L 371.284776 23.832 
L 372.420807 21.984 
L 373.277209 23.832 
L 373.652073 21.984 
L 373.930489 23.832 
L 375.67004 25.68 
L 375.829219 29.376 
L 376.39726 31.224 
L 376.699399 33.072 
L 376.778539 31.224 
L 378.770607 29.376 
L 379.335521 27.528 
L 380.425641 25.68 
L 380.493442 27.528 
L 380.687671 25.68 
L 380.956239 27.528 
L 381.31445 23.832 
L 381.99379 25.68 
L 382.04125 23.832 
L 382.521703 20.136 
L 383.234837 18.288 
L 383.765944 16.44 
L 383.821601 18.288 
L 385.053918 20.136 
L 385.962812 18.288 
L 387.216601 20.136 
L 387.227466 21.984 
L 387.691544 18.288 
L 388.083411 20.136 
L 388.111717 18.288 
L 390.107808 16.44 
L 390.815835 14.592 
L 391.079838 12.744 
L 391.755567 10.896 
L 394.805759 9.048 
L 396.29363 10.896 
L 396.685761 9.048 
L 396.825012 10.896 
L 400.322523 12.744 
L 401.984974 10.896 
L 402.283187 12.744 
L 402.989688 9.048 
L 403.129204 10.896 
L 404.085625 9.048 
L 404.085625 9.048 
" clip-path="url(#p7b2b2b21fd)" style="fill: none; stroke: #1f77b4; stroke-width: 1.5; stroke-linecap: square"/>
   </g>
   <g id="line2d_19">
    <path d="M 226.93036 167.976 
L 227.096505 171.672 
L 227.180528 175.368 
L 227.407615 177.216 
L 227.433442 179.064 
L 227.584711 180.912 
L 227.598973 182.76 
L 227.918095 188.304 
L 228.03024 193.848 
L 228.181821 201.24 
L 228.375163 203.088 
L 228.52921 206.784 
L 228.555793 204.936 
L 228.739994 206.784 
L 229.08401 204.936 
L 229.424765 214.176 
L 229.595642 216.024 
L 229.996526 217.872 
L 231.315211 227.112 
L 231.317823 223.416 
L 231.667345 225.264 
L 232.006388 230.808 
L 232.296786 232.656 
L 232.376503 234.504 
L 233.369641 236.352 
L 234.785422 238.2 
L 235.011409 236.352 
L 235.229788 238.2 
L 236.201126 240.048 
L 236.573148 243.744 
L 237.094791 245.592 
L 237.850127 243.744 
L 238.14769 245.592 
L 238.271644 247.44 
L 238.274609 245.592 
L 238.591513 243.744 
L 239.162922 245.592 
L 239.575319 243.744 
L 239.749444 245.592 
L 239.791027 247.44 
L 240.032613 249.288 
L 240.824079 252.984 
L 241.606104 251.136 
L 241.743444 252.984 
L 241.857794 251.136 
L 243.50893 252.984 
L 245.744012 251.136 
L 246.533473 252.984 
L 247.247769 251.136 
L 248.11358 249.288 
L 248.5481 251.136 
L 250.144376 252.984 
L 251.264636 251.136 
L 252.80449 249.288 
L 253.739632 251.136 
L 258.017589 249.288 
L 258.114956 247.44 
L 258.409111 249.288 
L 258.549733 251.136 
L 259.489708 249.288 
L 259.534301 247.44 
L 259.665177 251.136 
L 259.710426 249.288 
L 260.716666 247.44 
L 261.17673 249.288 
L 262.622008 245.592 
L 263.162714 251.136 
L 266.182648 252.984 
L 266.926027 251.136 
L 268.772475 249.288 
L 270.055593 247.44 
L 270.127607 249.288 
L 271.189769 245.592 
L 271.204882 243.744 
L 271.449013 245.592 
L 271.671919 243.744 
L 272.670339 241.896 
L 273.47267 245.592 
L 274.082636 243.744 
L 274.1425 241.896 
L 275.26875 238.2 
L 275.435797 240.048 
L 276.162859 241.896 
L 276.454636 243.744 
L 276.611646 245.592 
L 277.703279 243.744 
L 277.801091 241.896 
L 278.5792 240.048 
L 278.966527 241.896 
L 279.59187 243.744 
L 280.902741 241.896 
L 281.283407 245.592 
L 281.954971 247.44 
L 281.983169 245.592 
L 282.909999 247.44 
L 283.171915 245.592 
L 284.309852 247.44 
L 284.377036 249.288 
L 284.636072 247.44 
L 285.34645 245.592 
L 287.515283 247.44 
L 287.664654 249.288 
L 288.036356 251.136 
L 288.62717 245.592 
L 289.735822 247.44 
L 289.761497 245.592 
L 290.278654 247.44 
L 291.572736 249.288 
L 292.610237 247.44 
L 293.456982 245.592 
L 294.194809 247.44 
L 294.701978 249.288 
L 295.423481 245.592 
L 295.864339 247.44 
L 296.055447 245.592 
L 296.058077 247.44 
L 296.28263 245.592 
L 296.971965 247.44 
L 297.262525 245.592 
L 297.666014 243.744 
L 298.812219 241.896 
L 300.26415 245.592 
L 300.496394 247.44 
L 300.653104 245.592 
L 300.660545 243.744 
L 301.466836 245.592 
L 301.913031 247.44 
L 302.193642 251.136 
L 303.249433 249.288 
L 303.899709 247.44 
L 304.166468 249.288 
L 304.242277 247.44 
L 306.230911 245.592 
L 307.62439 247.44 
L 307.935027 251.136 
L 308.49746 249.288 
L 308.938067 247.44 
L 309.115957 249.288 
L 310.210606 251.136 
L 310.485223 252.984 
L 310.838093 251.136 
L 311.054575 252.984 
L 312.338772 254.832 
L 313.745113 252.984 
L 314.352236 254.832 
L 314.885931 258.528 
L 315.126708 260.376 
L 316.436837 254.832 
L 316.572551 256.68 
L 317.949163 258.528 
L 318.047839 260.376 
L 318.550222 258.528 
L 318.670774 260.376 
L 321.167497 258.528 
L 322.970415 256.68 
L 324.094696 254.832 
L 324.951643 252.984 
L 327.327586 254.832 
L 328.092159 252.984 
L 328.664753 254.832 
L 329.0729 256.68 
L 330.092264 258.528 
L 330.128342 256.68 
L 332.75509 254.832 
L 333.494373 256.68 
L 333.684404 258.528 
L 333.871425 256.68 
L 334.328759 258.528 
L 334.989721 256.68 
L 335.267334 254.832 
L 337.413732 252.984 
L 337.998478 249.288 
L 339.661915 251.136 
L 339.714535 252.984 
L 339.988296 256.68 
L 340.061568 258.528 
L 342.440969 260.376 
L 342.805213 262.224 
L 343.020736 260.376 
L 343.056652 262.224 
L 344.246728 260.376 
L 344.302404 258.528 
L 345.682835 260.376 
L 347.565515 258.528 
L 350.319596 260.376 
L 350.824874 258.528 
L 352.004804 256.68 
L 352.006075 258.528 
L 352.899214 256.68 
L 353.07955 254.832 
L 357.699172 252.984 
L 358.171142 251.136 
L 358.330639 252.984 
L 360.846808 247.44 
L 361.555268 245.592 
L 361.673074 247.44 
L 362.25793 251.136 
L 363.367908 252.984 
L 363.369557 251.136 
L 363.523195 252.984 
L 363.648037 251.136 
L 363.742709 252.984 
L 363.891872 251.136 
L 365.505178 249.288 
L 365.931433 251.136 
L 367.067616 249.288 
L 368.715626 251.136 
L 369.12561 249.288 
L 369.204719 247.44 
L 371.284776 245.592 
L 372.420807 247.44 
L 373.277209 245.592 
L 373.652073 247.44 
L 373.930489 245.592 
L 375.67004 243.744 
L 375.829219 240.048 
L 376.39726 238.2 
L 376.699399 236.352 
L 376.778539 238.2 
L 378.770607 240.048 
L 379.335521 241.896 
L 380.425641 243.744 
L 380.493442 241.896 
L 380.687671 243.744 
L 380.956239 241.896 
L 381.31445 245.592 
L 381.99379 243.744 
L 382.04125 245.592 
L 382.521703 249.288 
L 383.234837 251.136 
L 383.765944 252.984 
L 383.821601 251.136 
L 385.053918 249.288 
L 385.962812 251.136 
L 387.216601 249.288 
L 387.227466 247.44 
L 387.691544 251.136 
L 388.083411 249.288 
L 388.111717 251.136 
L 390.107808 252.984 
L 390.815835 254.832 
L 391.079838 256.68 
L 391.755567 258.528 
L 394.805759 260.376 
L 396.29363 258.528 
L 396.685761 260.376 
L 396.825012 258.528 
L 400.322523 256.68 
L 401.984974 258.528 
L 402.283187 256.68 
L 402.989688 260.376 
L 403.129204 258.528 
L 404.085625 260.376 
L 404.085625 260.376 
" clip-path="url(#p7b2b2b21fd)" style="fill: none; stroke: #ff7f0e; stroke-width: 1.5; stroke-linecap: square"/>
   </g>
   <g id="line2d_20">
    <path d="M 226.923716 273.312 
L 226.923716 7.2 
" clip-path="url(#p7b2b2b21fd)" style="fill: none; stroke-dasharray: 1.5,2.475; stroke-dashoffset: 0; stroke: #000000; stroke-width: 1.5"/>
   </g>
   <g id="line2d_21">
    <path d="M 312.338772 273.312 
L 312.338772 7.2 
" clip-path="url(#p7b2b2b21fd)" style="fill: none; stroke-dasharray: 1.5,2.475; stroke-dashoffset: 0; stroke: #000000; stroke-width: 1.5"/>
   </g>
   <g id="line2d_22">
    <path d="M 403.180595 273.312 
L 403.180595 7.2 
" clip-path="url(#p7b2b2b21fd)" style="fill: none; stroke-dasharray: 1.5,2.475; stroke-dashoffset: 0; stroke: #000000; stroke-width: 1.5"/>
   </g>
   <g id="patch_3">
    <path d="M 46.965625 273.312 
L 46.965625 7.2 
" style="fill: none; stroke: #000000; stroke-width: 0.8; stroke-linejoin: miter; stroke-linecap: square"/>
   </g>
   <g id="patch_4">
    <path d="M 404.085625 273.312 
L 404.085625 7.2 
" style="fill: none; stroke: #000000; stroke-width: 0.8; stroke-linejoin: miter; stroke-linecap: square"/>
   </g>
   <g id="patch_5">
    <path d="M 46.965625 273.312 
L 404.085625 273.312 
" style="fill: none; stroke: #000000; stroke-width: 0.8; stroke-linejoin: miter; stroke-linecap: square"/>
   </g>
   <g id="patch_6">
    <path d="M 46.965625 7.2 
L 404.085625 7.2 
" style="fill: none; stroke: #000000; stroke-width: 0.8; stroke-linejoin: miter; stroke-linecap: square"/>
   </g>
   <g id="legend_1">
    <g id="patch_7">
     <path d="M 53.965625 44.55625 
L 99.667188 44.55625 
Q 101.667188 44.55625 101.667188 42.55625 
L 101.667188 14.2 
Q 101.667188 12.2 99.667188 12.2 
L 53.965625 12.2 
Q 51.965625 12.2 51.965625 14.2 
L 51.965625 42.55625 
Q 51.965625 44.55625 53.965625 44.55625 
z
" style="fill: #ffffff; opacity: 0.8; stroke: #cccccc; stroke-linejoin: miter"/>
    </g>
    <g id="line2d_23">
     <path d="M 55.965625 20.298437 
L 65.965625 20.298437 
L 75.965625 20.298437 
" style="fill: none; stroke: #1f77b4; stroke-width: 1.5; stroke-linecap: square"/>
    </g>
    <g id="text_20">
     <!-- AB -->
     <g transform="translate(83.965625 23.798437) scale(0.1 -0.1)">
      <defs>
       <path id="DejaVuSans-41" d="M 2188 4044 
L 1331 1722 
L 3047 1722 
L 2188 4044 
z
M 1831 4666 
L 2547 4666 
L 4325 0 
L 3669 0 
L 3244 1197 
L 1141 1197 
L 716 0 
L 50 0 
L 1831 4666 
z
" transform="scale(0.015625)"/>
       <path id="DejaVuSans-42" d="M 1259 2228 
L 1259 519 
L 2272 519 
Q 2781 519 3026 730 
Q 3272 941 3272 1375 
Q 3272 1813 3026 2020 
Q 2781 2228 2272 2228 
L 1259 2228 
z
M 1259 4147 
L 1259 2741 
L 2194 2741 
Q 2656 2741 2882 2914 
Q 3109 3088 3109 3444 
Q 3109 3797 2882 3972 
Q 2656 4147 2194 4147 
L 1259 4147 
z
M 628 4666 
L 2241 4666 
Q 2963 4666 3353 4366 
Q 3744 4066 3744 3513 
Q 3744 3084 3544 2831 
Q 3344 2578 2956 2516 
Q 3422 2416 3680 2098 
Q 3938 1781 3938 1306 
Q 3938 681 3513 340 
Q 3088 0 2303 0 
L 628 0 
L 628 4666 
z
" transform="scale(0.015625)"/>
      </defs>
      <use xlink:href="#DejaVuSans-41"/>
      <use xlink:href="#DejaVuSans-42" transform="translate(68.408203 0)"/>
     </g>
    </g>
    <g id="line2d_24">
     <path d="M 55.965625 34.976562 
L 65.965625 34.976562 
L 75.965625 34.976562 
" style="fill: none; stroke: #ff7f0e; stroke-width: 1.5; stroke-linecap: square"/>
    </g>
    <g id="text_21">
     <!-- A -->
     <g transform="translate(83.965625 38.476562) scale(0.1 -0.1)">
      <use xlink:href="#DejaVuSans-41"/>
     </g>
    </g>
   </g>
  </g>
 </g>
 <defs>
  <clipPath id="p7b2b2b21fd">
   <rect x="46.965625" y="7.2" width="357.12" height="266.112"/>
  </clipPath>
 </defs>
</svg>
