<?xml version="1.0" encoding="utf-8" standalone="no"?>
<!DOCTYPE svg PUBLIC "-//W3C//DTD SVG 1.1//EN"
  "http://www.w3.org/Graphics/SVG/1.1/DTD/svg11.dtd">
<svg xmlns:xlink="http://www.w3.org/1999/xlink" width="332.39952pt" height="332.39952pt" viewBox="0 0 332.39952 332.39952" xmlns="http://www.w3.org/2000/svg" version="1.1">
 <metadata>
  <rdf:RDF xmlns:dc="http://purl.org/dc/elements/1.1/" xmlns:cc="http://creativecommons.org/ns#" xmlns:rdf="http://www.w3.org/1999/02/22-rdf-syntax-ns#">
   <cc:Work>
    <dc:type rdf:resource="http://purl.org/dc/dcmitype/StillImage"/>
    <dc:date>2026-06-09T14:33:08.954211</dc:date>
    <dc:format>image/svg+xml</dc:format>
    <dc:creator>
     <cc:Agent>
      <dc:title>Matplotlib v3.10.9, https://matplotlib.org/</dc:title>
     </cc:Agent>
    </dc:creator>
   </cc:Work>
  </rdf:RDF>
 </metadata>
 <defs>
  <style type="text/css">*{stroke-linejoin: round; stroke-linecap: butt}</style>
 </defs>
 <g id="figure_1">
  <g id="patch_1">
   <path d="M 0 332.39952 
L 332.39952 332.39952 
L 332.39952 0 
L 0 0 
z
" style="fill: #ffffff"/>
  </g>
  <g id="axes_1">
   <g id="patch_2">
    <path d="M 43.78125 96.747437 
L 325.19952 96.747437 
L 325.19952 7.2 
L 43.78125 7.2 
z
" style="fill: #ffffff"/>
   </g>
   <g id="matplotlib.axis_1">
    <g id="xtick_1">
     <g id="line2d_1">
      <defs>
       <path id="me03e150b1f" d="M 0 0 
L 0 3.5 
" style="stroke: #000000; stroke-width: 0.8"/>
      </defs>
      <g>
       <use xlink:href="#me03e150b1f" x="56.57299" y="96.747437" style="stroke: #000000; stroke-width: 0.8"/>
      </g>
     </g>
    </g>
    <g id="xtick_2">
     <g id="line2d_2">
      <g>
       <use xlink:href="#me03e150b1f" x="88.517891" y="96.747437" style="stroke: #000000; stroke-width: 0.8"/>
      </g>
     </g>
    </g>
    <g id="xtick_3">
     <g id="line2d_3">
      <g>
       <use xlink:href="#me03e150b1f" x="120.462792" y="96.747437" style="stroke: #000000; stroke-width: 0.8"/>
      </g>
     </g>
    </g>
    <g id="xtick_4">
     <g id="line2d_4">
      <g>
       <use xlink:href="#me03e150b1f" x="152.407693" y="96.747437" style="stroke: #000000; stroke-width: 0.8"/>
      </g>
     </g>
    </g>
    <g id="xtick_5">
     <g id="line2d_5">
      <g>
       <use xlink:href="#me03e150b1f" x="184.352595" y="96.747437" style="stroke: #000000; stroke-width: 0.8"/>
      </g>
     </g>
    </g>
    <g id="xtick_6">
     <g id="line2d_6">
      <g>
       <use xlink:href="#me03e150b1f" x="216.297496" y="96.747437" style="stroke: #000000; stroke-width: 0.8"/>
      </g>
     </g>
    </g>
    <g id="xtick_7">
     <g id="line2d_7">
      <g>
       <use xlink:href="#me03e150b1f" x="248.242397" y="96.747437" style="stroke: #000000; stroke-width: 0.8"/>
      </g>
     </g>
    </g>
    <g id="xtick_8">
     <g id="line2d_8">
      <g>
       <use xlink:href="#me03e150b1f" x="280.187298" y="96.747437" style="stroke: #000000; stroke-width: 0.8"/>
      </g>
     </g>
    </g>
    <g id="xtick_9">
     <g id="line2d_9">
      <g>
       <use xlink:href="#me03e150b1f" x="312.1322" y="96.747437" style="stroke: #000000; stroke-width: 0.8"/>
      </g>
     </g>
    </g>
   </g>
   <g id="matplotlib.axis_2">
    <g id="ytick_1">
     <g id="line2d_10">
      <defs>
       <path id="m5d7348170f" d="M 0 0 
L -3.5 0 
" style="stroke: #000000; stroke-width: 0.8"/>
      </defs>
      <g>
       <use xlink:href="#m5d7348170f" x="43.78125" y="92.677099" style="stroke: #000000; stroke-width: 0.8"/>
      </g>
     </g>
     <g id="text_1">
      <!-- 0 -->
      <g transform="translate(30.41875 96.476317) scale(0.1 -0.1)">
       <defs>
        <path id="DejaVuSans-30" d="M 2034 4250 
Q 1547 4250 1301 3770 
Q 1056 3291 1056 2328 
Q 1056 1369 1301 889 
Q 1547 409 2034 409 
Q 2525 409 2770 889 
Q 3016 1369 3016 2328 
Q 3016 3291 2770 3770 
Q 2525 4250 2034 4250 
z
M 2034 4750 
Q 2819 4750 3233 4129 
Q 3647 3509 3647 2328 
Q 3647 1150 3233 529 
Q 2819 -91 2034 -91 
Q 1250 -91 836 529 
Q 422 1150 422 2328 
Q 422 3509 836 4129 
Q 1250 4750 2034 4750 
z
" transform="scale(0.015625)"/>
       </defs>
       <use xlink:href="#DejaVuSans-30"/>
      </g>
     </g>
    </g>
    <g id="ytick_2">
     <g id="line2d_11">
      <g>
       <use xlink:href="#m5d7348170f" x="43.78125" y="51.973718" style="stroke: #000000; stroke-width: 0.8"/>
      </g>
     </g>
     <g id="text_2">
      <!-- 5 -->
      <g transform="translate(30.41875 55.772937) scale(0.1 -0.1)">
       <defs>
        <path id="DejaVuSans-35" d="M 691 4666 
L 3169 4666 
L 3169 4134 
L 1269 4134 
L 1269 2991 
Q 1406 3038 1543 3061 
Q 1681 3084 1819 3084 
Q 2600 3084 3056 2656 
Q 3513 2228 3513 1497 
Q 3513 744 3044 326 
Q 2575 -91 1722 -91 
Q 1428 -91 1123 -41 
Q 819 9 494 109 
L 494 744 
Q 775 591 1075 516 
Q 1375 441 1709 441 
Q 2250 441 2565 725 
Q 2881 1009 2881 1497 
Q 2881 1984 2565 2268 
Q 2250 2553 1709 2553 
Q 1456 2553 1204 2497 
Q 953 2441 691 2322 
L 691 4666 
z
" transform="scale(0.015625)"/>
       </defs>
       <use xlink:href="#DejaVuSans-35"/>
      </g>
     </g>
    </g>
    <g id="ytick_3">
     <g id="line2d_12">
      <g>
       <use xlink:href="#m5d7348170f" x="43.78125" y="11.270338" style="stroke: #000000; stroke-width: 0.8"/>
      </g>
     </g>
     <g id="text_3">
      <!-- 10 -->
      <g transform="translate(24.05625 15.069557) scale(0.1 -0.1)">
       <defs>
        <path id="DejaVuSans-31" d="M 794 531 
L 1825 531 
L 1825 4091 
L 703 3866 
L 703 4441 
L 1819 4666 
L 2450 4666 
L 2450 531 
L 3481 531 
L 3481 0 
L 794 0 
L 794 531 
z
" transform="scale(0.015625)"/>
       </defs>
       <use xlink:href="#DejaVuSans-31"/>
       <use xlink:href="#DejaVuSans-30" transform="translate(63.623047 0)"/>
      </g>
     </g>
    </g>
    <g id="text_4">
     <!-- Extracellular lactose -->
     <g transform="translate(17.976562 102.945593) rotate(-90) scale(0.1 -0.1)">
      <defs>
       <path id="DejaVuSans-45" d="M 628 4666 
L 3578 4666 
L 3578 4134 
L 1259 4134 
L 1259 2753 
L 3481 2753 
L 3481 2222 
L 1259 2222 
L 1259 531 
L 3634 531 
L 3634 0 
L 628 0 
L 628 4666 
z
" transform="scale(0.015625)"/>
       <path id="DejaVuSans-78" d="M 3513 3500 
L 2247 1797 
L 3578 0 
L 2900 0 
L 1881 1375 
L 863 0 
L 184 0 
L 1544 1831 
L 300 3500 
L 978 3500 
L 1906 2253 
L 2834 3500 
L 3513 3500 
z
" transform="scale(0.015625)"/>
       <path id="DejaVuSans-74" d="M 1172 4494 
L 1172 3500 
L 2356 3500 
L 2356 3053 
L 1172 3053 
L 1172 1153 
Q 1172 725 1289 603 
Q 1406 481 1766 481 
L 2356 481 
L 2356 0 
L 1766 0 
Q 1100 0 847 248 
Q 594 497 594 1153 
L 594 3053 
L 172 3053 
L 172 3500 
L 594 3500 
L 594 4494 
L 1172 4494 
z
" transform="scale(0.015625)"/>
       <path id="DejaVuSans-72" d="M 2631 2963 
Q 2534 3019 2420 3045 
Q 2306 3072 2169 3072 
Q 1681 3072 1420 2755 
Q 1159 2438 1159 1844 
L 1159 0 
L 581 0 
L 581 3500 
L 1159 3500 
L 1159 2956 
Q 1341 3275 1631 3429 
Q 1922 3584 2338 3584 
Q 2397 3584 2469 3576 
Q 2541 3569 2628 3553 
L 2631 2963 
z
" transform="scale(0.015625)"/>
       <path id="DejaVuSans-61" d="M 2194 1759 
Q 1497 1759 1228 1600 
Q 959 1441 959 1056 
Q 959 750 1161 570 
Q 1363 391 1709 391 
Q 2188 391 2477 730 
Q 2766 1069 2766 1631 
L 2766 1759 
L 2194 1759 
z
M 3341 1997 
L 3341 0 
L 2766 0 
L 2766 531 
Q 2569 213 2275 61 
Q 1981 -91 1556 -91 
Q 1019 -91 701 211 
Q 384 513 384 1019 
Q 384 1609 779 1909 
Q 1175 2209 1959 2209 
L 2766 2209 
L 2766 2266 
Q 2766 2663 2505 2880 
Q 2244 3097 1772 3097 
Q 1472 3097 1187 3025 
Q 903 2953 641 2809 
L 641 3341 
Q 956 3463 1253 3523 
Q 1550 3584 1831 3584 
Q 2591 3584 2966 3190 
Q 3341 2797 3341 1997 
z
" transform="scale(0.015625)"/>
       <path id="DejaVuSans-63" d="M 3122 3366 
L 3122 2828 
Q 2878 2963 2633 3030 
Q 2388 3097 2138 3097 
Q 1578 3097 1268 2742 
Q 959 2388 959 1747 
Q 959 1106 1268 751 
Q 1578 397 2138 397 
Q 2388 397 2633 464 
Q 2878 531 3122 666 
L 3122 134 
Q 2881 22 2623 -34 
Q 2366 -91 2075 -91 
Q 1284 -91 818 406 
Q 353 903 353 1747 
Q 353 2603 823 3093 
Q 1294 3584 2113 3584 
Q 2378 3584 2631 3529 
Q 2884 3475 3122 3366 
z
" transform="scale(0.015625)"/>
       <path id="DejaVuSans-65" d="M 3597 1894 
L 3597 1613 
L 953 1613 
Q 991 1019 1311 708 
Q 1631 397 2203 397 
Q 2534 397 2845 478 
Q 3156 559 3463 722 
L 3463 178 
Q 3153 47 2828 -22 
Q 2503 -91 2169 -91 
Q 1331 -91 842 396 
Q 353 884 353 1716 
Q 353 2575 817 3079 
Q 1281 3584 2069 3584 
Q 2775 3584 3186 3129 
Q 3597 2675 3597 1894 
z
M 3022 2063 
Q 3016 2534 2758 2815 
Q 2500 3097 2075 3097 
Q 1594 3097 1305 2825 
Q 1016 2553 972 2059 
L 3022 2063 
z
" transform="scale(0.015625)"/>
       <path id="DejaVuSans-6c" d="M 603 4863 
L 1178 4863 
L 1178 0 
L 603 0 
L 603 4863 
z
" transform="scale(0.015625)"/>
       <path id="DejaVuSans-75" d="M 544 1381 
L 544 3500 
L 1119 3500 
L 1119 1403 
Q 1119 906 1312 657 
Q 1506 409 1894 409 
Q 2359 409 2629 706 
Q 2900 1003 2900 1516 
L 2900 3500 
L 3475 3500 
L 3475 0 
L 2900 0 
L 2900 538 
Q 2691 219 2414 64 
Q 2138 -91 1772 -91 
Q 1169 -91 856 284 
Q 544 659 544 1381 
z
M 1991 3584 
L 1991 3584 
z
" transform="scale(0.015625)"/>
       <path id="DejaVuSans-20" transform="scale(0.015625)"/>
       <path id="DejaVuSans-6f" d="M 1959 3097 
Q 1497 3097 1228 2736 
Q 959 2375 959 1747 
Q 959 1119 1226 758 
Q 1494 397 1959 397 
Q 2419 397 2687 759 
Q 2956 1122 2956 1747 
Q 2956 2369 2687 2733 
Q 2419 3097 1959 3097 
z
M 1959 3584 
Q 2709 3584 3137 3096 
Q 3566 2609 3566 1747 
Q 3566 888 3137 398 
Q 2709 -91 1959 -91 
Q 1206 -91 779 398 
Q 353 888 353 1747 
Q 353 2609 779 3096 
Q 1206 3584 1959 3584 
z
" transform="scale(0.015625)"/>
       <path id="DejaVuSans-73" d="M 2834 3397 
L 2834 2853 
Q 2591 2978 2328 3040 
Q 2066 3103 1784 3103 
Q 1356 3103 1142 2972 
Q 928 2841 928 2578 
Q 928 2378 1081 2264 
Q 1234 2150 1697 2047 
L 1894 2003 
Q 2506 1872 2764 1633 
Q 3022 1394 3022 966 
Q 3022 478 2636 193 
Q 2250 -91 1575 -91 
Q 1294 -91 989 -36 
Q 684 19 347 128 
L 347 722 
Q 666 556 975 473 
Q 1284 391 1588 391 
Q 1994 391 2212 530 
Q 2431 669 2431 922 
Q 2431 1156 2273 1281 
Q 2116 1406 1581 1522 
L 1381 1569 
Q 847 1681 609 1914 
Q 372 2147 372 2553 
Q 372 3047 722 3315 
Q 1072 3584 1716 3584 
Q 2034 3584 2315 3537 
Q 2597 3491 2834 3397 
z
" transform="scale(0.015625)"/>
      </defs>
      <use xlink:href="#DejaVuSans-45"/>
      <use xlink:href="#DejaVuSans-78" transform="translate(63.183594 0)"/>
      <use xlink:href="#DejaVuSans-74" transform="translate(122.363281 0)"/>
      <use xlink:href="#DejaVuSans-72" transform="translate(161.572266 0)"/>
      <use xlink:href="#DejaVuSans-61" transform="translate(202.685547 0)"/>
      <use xlink:href="#DejaVuSans-63" transform="translate(263.964844 0)"/>
      <use xlink:href="#DejaVuSans-65" transform="translate(318.945312 0)"/>
      <use xlink:href="#DejaVuSans-6c" transform="translate(380.46875 0)"/>
      <use xlink:href="#DejaVuSans-6c" transform="translate(408.251953 0)"/>
      <use xlink:href="#DejaVuSans-75" transform="translate(436.035156 0)"/>
      <use xlink:href="#DejaVuSans-6c" transform="translate(499.414062 0)"/>
      <use xlink:href="#DejaVuSans-61" transform="translate(527.197266 0)"/>
      <use xlink:href="#DejaVuSans-72" transform="translate(588.476562 0)"/>
      <use xlink:href="#DejaVuSans-20" transform="translate(629.589844 0)"/>
      <use xlink:href="#DejaVuSans-6c" transform="translate(661.376953 0)"/>
      <use xlink:href="#DejaVuSans-61" transform="translate(689.160156 0)"/>
      <use xlink:href="#DejaVuSans-63" transform="translate(750.439453 0)"/>
      <use xlink:href="#DejaVuSans-74" transform="translate(805.419922 0)"/>
      <use xlink:href="#DejaVuSans-6f" transform="translate(844.628906 0)"/>
      <use xlink:href="#DejaVuSans-73" transform="translate(905.810547 0)"/>
      <use xlink:href="#DejaVuSans-65" transform="translate(957.910156 0)"/>
     </g>
    </g>
   </g>
   <g id="line2d_13">
    <path d="M 56.57299 92.677099 
L 155.943787 92.677099 
L 156.032924 11.270338 
L 156.70121 11.351745 
L 156.81895 11.677372 
L 156.863785 11.758779 
L 157.010044 13.2241 
L 157.128437 14.852235 
L 157.142272 14.933642 
L 157.285848 16.643184 
L 157.309408 16.724591 
L 157.819214 20.225082 
L 157.924238 20.306488 
L 158.028405 20.632115 
L 158.140548 20.713522 
L 158.249772 20.794929 
L 158.700567 20.876336 
L 158.79747 21.28337 
L 159.051091 21.690403 
L 159.233484 22.01603 
L 159.255946 22.097437 
L 159.358938 22.585878 
L 159.388998 22.667285 
L 159.498148 23.562759 
L 159.595544 24.458233 
L 159.934627 25.760741 
L 159.970007 25.842148 
L 160.089643 26.574809 
L 160.123217 26.656216 
L 160.253651 27.470283 
L 160.322541 27.55169 
L 160.733332 30.156706 
L 160.768117 30.238113 
L 160.912742 30.889367 
L 160.935676 30.970774 
L 161.057726 31.214994 
L 161.247896 31.703435 
L 161.295207 31.784842 
L 161.387312 31.947655 
L 161.454512 32.029062 
L 161.569585 32.354689 
L 161.680206 32.436096 
L 161.790582 32.84313 
L 161.930221 33.494384 
L 161.994537 33.57579 
L 162.119748 33.820011 
L 162.298673 34.227045 
L 162.35847 34.308451 
L 162.458172 34.471265 
L 162.640564 34.552672 
L 162.811562 35.203926 
L 162.956766 35.285332 
L 163.064904 35.773773 
L 163.350261 37.076281 
L 163.485762 37.483315 
L 163.693969 38.134569 
L 164.253681 38.215976 
L 164.385903 38.62301 
L 164.726193 38.704416 
L 165.088199 39.518484 
L 165.183308 39.599891 
L 165.296941 40.983806 
L 165.369976 41.065212 
L 165.525062 41.472246 
L 165.585197 41.960687 
L 165.760819 43.018975 
L 165.892358 43.100381 
L 165.995125 43.588822 
L 166.119777 43.833042 
L 166.201346 43.914449 
L 166.311336 44.240076 
L 167.078199 46.438059 
L 167.388869 46.519465 
L 167.547809 46.763686 
L 167.666239 46.845092 
L 167.748448 46.926499 
L 167.904633 47.41494 
L 168.216166 48.717448 
L 168.380064 50.18277 
L 168.414755 50.264176 
L 168.529221 50.67121 
L 168.800301 51.485278 
L 168.995718 51.729498 
L 169.314017 51.810905 
L 169.683495 52.380752 
L 169.793895 52.462159 
L 169.956142 52.624972 
L 170.195676 52.706379 
L 170.514152 53.764667 
L 170.582599 53.846074 
L 170.698285 54.008887 
L 170.882014 54.578735 
L 171.061295 54.660141 
L 171.193642 55.067175 
L 171.238435 55.148582 
L 171.380047 55.555616 
L 171.401663 55.637023 
L 171.463497 55.96265 
L 171.86099 58.079225 
L 172.007877 58.649073 
L 172.733526 60.684242 
L 173.075367 60.765648 
L 173.188126 61.091276 
L 173.332968 61.254089 
L 173.587779 61.335496 
L 173.713512 61.579716 
L 173.798018 61.661123 
L 173.934466 61.823936 
L 174.145798 61.905343 
L 174.323361 62.149563 
L 174.40085 62.23097 
L 174.522686 62.312377 
L 174.596237 62.393784 
L 174.695582 62.719411 
L 174.948514 63.126445 
L 175.009331 63.207851 
L 175.237658 64.347546 
L 175.331366 64.428953 
L 175.553147 65.650054 
L 175.645607 65.731461 
L 175.86602 66.545528 
L 175.892682 66.626935 
L 176.051104 67.52241 
L 176.102235 67.603816 
L 176.237031 68.173664 
L 176.364178 68.25507 
L 176.481349 68.743511 
L 176.514013 68.824918 
L 177.077931 71.999781 
L 177.212444 72.651036 
L 177.230228 72.732442 
L 177.355588 73.30229 
L 177.399404 73.383696 
L 177.515866 74.360577 
L 177.66286 74.767611 
L 177.805125 74.849018 
L 177.93866 75.174645 
L 178.049845 75.256052 
L 178.64856 76.639967 
L 178.77888 76.721374 
L 178.914174 76.80278 
L 180.428999 76.884187 
L 180.541366 77.047001 
L 181.865127 77.128407 
L 182.149501 77.698255 
L 182.325622 78.105288 
L 182.40183 78.186695 
L 182.580139 78.268102 
L 182.775937 78.837949 
L 182.843877 78.919356 
L 182.956049 79.08217 
L 183.277682 79.733424 
L 183.410401 80.221864 
L 183.597788 80.303271 
L 183.717064 80.384678 
L 183.83435 80.466085 
L 183.967216 80.628898 
L 184.142788 80.954525 
L 184.806636 81.687186 
L 184.885401 81.768593 
L 185.106735 81.931406 
L 185.278112 82.012813 
L 185.345997 82.175627 
L 185.481325 82.257033 
L 185.580207 82.419847 
L 185.942556 83.152508 
L 186.019245 83.233914 
L 186.202432 83.640948 
L 186.465352 83.722355 
L 186.571634 83.803762 
L 187.347996 83.885168 
L 187.973302 84.047982 
L 188.407305 84.129389 
L 188.47954 84.210796 
L 188.666591 84.292202 
L 188.892958 84.455016 
L 188.966219 84.536423 
L 189.572766 84.617829 
L 189.66639 84.699236 
L 190.416388 84.780643 
L 190.487652 84.86205 
L 190.681706 85.024863 
L 191.108967 85.10627 
L 191.240432 85.187677 
L 191.452465 85.269083 
L 191.597652 85.35049 
L 192.487376 85.431897 
L 192.734105 85.676117 
L 193.06165 85.757524 
L 193.940231 85.838931 
L 194.535825 86.083151 
L 195.883709 86.164558 
L 196.034251 86.245965 
L 196.322818 86.327371 
L 196.522052 86.408778 
L 197.3081 86.490185 
L 197.369031 86.571592 
L 197.669945 86.652998 
L 197.791231 86.897219 
L 197.921542 87.060032 
L 198.004231 87.141439 
L 198.121853 87.222846 
L 198.622335 87.304252 
L 198.78147 87.385659 
L 199.653928 87.467066 
L 200.366623 87.955507 
L 201.290886 88.036913 
L 201.428685 88.36254 
L 202.042105 88.443947 
L 202.203658 88.606761 
L 202.401285 88.688167 
L 202.540709 88.932388 
L 202.718564 89.013794 
L 202.839609 89.258015 
L 203.368253 89.339421 
L 203.523527 89.420828 
L 204.091443 89.502235 
L 204.388337 89.665048 
L 213.713211 89.746455 
L 213.853362 89.909269 
L 215.304425 89.990676 
L 215.424534 90.072082 
L 247.690239 90.153489 
L 250.75007 90.316303 
L 263.522085 90.397709 
L 263.553236 90.479116 
L 275.073649 90.560523 
L 275.661853 90.64193 
L 282.382675 90.804743 
L 311.474454 90.88615 
L 312.40778 90.967557 
L 312.40778 90.967557 
" clip-path="url(#p1ff8176469)" style="fill: none; stroke: #000000; stroke-width: 1.5; stroke-linecap: square"/>
   </g>
   <g id="patch_3">
    <path d="M 43.78125 96.747437 
L 43.78125 7.2 
" style="fill: none; stroke: #000000; stroke-width: 0.8; stroke-linejoin: miter; stroke-linecap: square"/>
   </g>
   <g id="patch_4">
    <path d="M 325.19952 96.747437 
L 325.19952 7.2 
" style="fill: none; stroke: #000000; stroke-width: 0.8; stroke-linejoin: miter; stroke-linecap: square"/>
   </g>
   <g id="patch_5">
    <path d="M 43.78125 96.747437 
L 325.19952 96.747437 
" style="fill: none; stroke: #000000; stroke-width: 0.8; stroke-linejoin: miter; stroke-linecap: square"/>
   </g>
   <g id="patch_6">
    <path d="M 43.78125 7.2 
L 325.19952 7.2 
" style="fill: none; stroke: #000000; stroke-width: 0.8; stroke-linejoin: miter; stroke-linecap: square"/>
   </g>
  </g>
  <g id="axes_2">
   <g id="patch_7">
    <path d="M 43.78125 195.795353 
L 325.19952 195.795353 
L 325.19952 106.247917 
L 43.78125 106.247917 
z
" style="fill: #ffffff"/>
   </g>
   <g id="matplotlib.axis_3">
    <g id="xtick_10">
     <g id="line2d_14">
      <g>
       <use xlink:href="#me03e150b1f" x="56.57299" y="195.795353" style="stroke: #000000; stroke-width: 0.8"/>
      </g>
     </g>
    </g>
    <g id="xtick_11">
     <g id="line2d_15">
      <g>
       <use xlink:href="#me03e150b1f" x="88.517891" y="195.795353" style="stroke: #000000; stroke-width: 0.8"/>
      </g>
     </g>
    </g>
    <g id="xtick_12">
     <g id="line2d_16">
      <g>
       <use xlink:href="#me03e150b1f" x="120.462792" y="195.795353" style="stroke: #000000; stroke-width: 0.8"/>
      </g>
     </g>
    </g>
    <g id="xtick_13">
     <g id="line2d_17">
      <g>
       <use xlink:href="#me03e150b1f" x="152.407693" y="195.795353" style="stroke: #000000; stroke-width: 0.8"/>
      </g>
     </g>
    </g>
    <g id="xtick_14">
     <g id="line2d_18">
      <g>
       <use xlink:href="#me03e150b1f" x="184.352595" y="195.795353" style="stroke: #000000; stroke-width: 0.8"/>
      </g>
     </g>
    </g>
    <g id="xtick_15">
     <g id="line2d_19">
      <g>
       <use xlink:href="#me03e150b1f" x="216.297496" y="195.795353" style="stroke: #000000; stroke-width: 0.8"/>
      </g>
     </g>
    </g>
    <g id="xtick_16">
     <g id="line2d_20">
      <g>
       <use xlink:href="#me03e150b1f" x="248.242397" y="195.795353" style="stroke: #000000; stroke-width: 0.8"/>
      </g>
     </g>
    </g>
    <g id="xtick_17">
     <g id="line2d_21">
      <g>
       <use xlink:href="#me03e150b1f" x="280.187298" y="195.795353" style="stroke: #000000; stroke-width: 0.8"/>
      </g>
     </g>
    </g>
    <g id="xtick_18">
     <g id="line2d_22">
      <g>
       <use xlink:href="#me03e150b1f" x="312.1322" y="195.795353" style="stroke: #000000; stroke-width: 0.8"/>
      </g>
     </g>
    </g>
   </g>
   <g id="matplotlib.axis_4">
    <g id="ytick_4">
     <g id="line2d_23">
      <g>
       <use xlink:href="#m5d7348170f" x="43.78125" y="191.725015" style="stroke: #000000; stroke-width: 0.8"/>
      </g>
     </g>
     <g id="text_5">
      <!-- 0 -->
      <g transform="translate(30.41875 195.524234) scale(0.1 -0.1)">
       <use xlink:href="#DejaVuSans-30"/>
      </g>
     </g>
    </g>
    <g id="ytick_5">
     <g id="line2d_24">
      <g>
       <use xlink:href="#m5d7348170f" x="43.78125" y="151.021635" style="stroke: #000000; stroke-width: 0.8"/>
      </g>
     </g>
     <g id="text_6">
      <!-- 5 -->
      <g transform="translate(30.41875 154.820854) scale(0.1 -0.1)">
       <use xlink:href="#DejaVuSans-35"/>
      </g>
     </g>
    </g>
    <g id="ytick_6">
     <g id="line2d_25">
      <g>
       <use xlink:href="#m5d7348170f" x="43.78125" y="110.318255" style="stroke: #000000; stroke-width: 0.8"/>
      </g>
     </g>
     <g id="text_7">
      <!-- 10 -->
      <g transform="translate(24.05625 114.117473) scale(0.1 -0.1)">
       <use xlink:href="#DejaVuSans-31"/>
       <use xlink:href="#DejaVuSans-30" transform="translate(63.623047 0)"/>
      </g>
     </g>
    </g>
    <g id="text_8">
     <!-- LacY -->
     <g transform="translate(17.976563 162.67476) rotate(-90) scale(0.1 -0.1)">
      <defs>
       <path id="DejaVuSans-4c" d="M 628 4666 
L 1259 4666 
L 1259 531 
L 3531 531 
L 3531 0 
L 628 0 
L 628 4666 
z
" transform="scale(0.015625)"/>
       <path id="DejaVuSans-59" d="M -13 4666 
L 666 4666 
L 1959 2747 
L 3244 4666 
L 3922 4666 
L 2272 2222 
L 2272 0 
L 1638 0 
L 1638 2222 
L -13 4666 
z
" transform="scale(0.015625)"/>
      </defs>
      <use xlink:href="#DejaVuSans-4c"/>
      <use xlink:href="#DejaVuSans-61" transform="translate(55.712891 0)"/>
      <use xlink:href="#DejaVuSans-63" transform="translate(116.992188 0)"/>
      <use xlink:href="#DejaVuSans-59" transform="translate(171.972656 0)"/>
     </g>
    </g>
   </g>
   <g id="line2d_26">
    <path d="M 56.57299 110.318255 
L 56.600144 110.318255 
L 56.654693 118.458931 
L 56.762968 134.740283 
L 56.823371 142.880959 
L 56.975631 142.880959 
L 56.993345 134.740283 
L 57.214155 142.880959 
L 57.356163 142.880959 
L 57.526985 159.162311 
L 57.828188 175.443663 
L 57.893873 191.725015 
L 59.425398 191.725015 
L 59.592186 183.584339 
L 59.634971 191.725015 
L 64.662587 191.725015 
L 64.985867 183.584339 
L 65.095931 191.725015 
L 82.609685 191.725015 
L 82.804288 183.584339 
L 84.599405 191.725015 
L 84.614245 183.584339 
L 84.757595 175.443663 
L 84.762255 167.302987 
L 85.08474 175.443663 
L 85.311932 175.443663 
L 85.431686 191.725015 
L 85.492567 183.584339 
L 85.682985 183.584339 
L 85.82161 191.725015 
L 89.717756 191.725015 
L 90.107947 175.443663 
L 90.10925 167.302987 
L 90.608388 167.302987 
L 90.647096 183.584339 
L 91.420017 183.584339 
L 91.589111 175.443663 
L 91.933749 191.725015 
L 108.956049 191.725015 
L 109.061853 183.584339 
L 109.181681 183.584339 
L 109.320915 191.725015 
L 109.556154 191.725015 
L 109.597681 183.584339 
L 110.014065 183.584339 
L 110.364348 175.443663 
L 110.422755 183.584339 
L 110.598201 183.584339 
L 110.62781 191.725015 
L 119.396448 191.725015 
L 119.575059 183.584339 
L 121.677525 183.584339 
L 123.526947 191.725015 
L 131.303183 191.725015 
L 131.489647 183.584339 
L 131.777513 183.584339 
L 131.885404 191.725015 
L 136.225817 191.725015 
L 136.309636 183.584339 
L 136.331525 191.725015 
L 146.33484 191.725015 
L 146.595963 175.443663 
L 146.616817 183.584339 
L 146.645856 175.443663 
L 146.759088 167.302987 
L 146.764434 175.443663 
L 147.349801 175.443663 
L 147.967642 183.584339 
L 148.213237 183.584339 
L 148.528839 175.443663 
L 148.641844 175.443663 
L 149.714908 191.725015 
L 150.175574 191.725015 
L 150.227511 175.443663 
L 150.328495 175.443663 
L 150.481491 183.584339 
L 150.615355 183.584339 
L 151.158847 191.725015 
L 156.282814 191.725015 
L 156.711559 183.584339 
L 156.952111 151.021635 
L 157.234055 151.021635 
L 157.354292 167.302987 
L 157.404215 167.302987 
L 157.505224 159.162311 
L 157.592296 159.162311 
L 157.702222 175.443663 
L 157.730453 175.443663 
L 157.838183 183.584339 
L 158.156034 183.584339 
L 158.249772 191.725015 
L 158.649898 191.725015 
L 158.751368 183.584339 
L 158.91773 183.584339 
L 159.031067 175.443663 
L 159.164301 175.443663 
L 159.220011 183.584339 
L 159.274673 175.443663 
L 159.381215 175.443663 
L 159.48574 167.302987 
L 159.646156 167.302987 
L 159.771467 183.584339 
L 159.906192 183.584339 
L 160.029661 175.443663 
L 160.179205 175.443663 
L 160.298267 167.302987 
L 160.7033 167.302987 
L 160.820262 175.443663 
L 161.130339 175.443663 
L 161.199743 183.584339 
L 161.233595 175.443663 
L 161.443482 175.443663 
L 161.522271 183.584339 
L 161.632634 183.584339 
L 161.653073 191.725015 
L 161.715358 183.584339 
L 161.769411 183.584339 
L 161.885382 175.443663 
L 162.134306 175.443663 
L 162.239244 183.584339 
L 162.438105 183.584339 
L 162.441935 191.725015 
L 162.517377 183.584339 
L 162.685761 183.584339 
L 162.73801 167.302987 
L 162.795159 183.584339 
L 162.903015 183.584339 
L 162.998393 175.443663 
L 163.233396 175.443663 
L 163.328749 167.302987 
L 163.34023 175.443663 
L 163.606077 175.443663 
L 163.727815 191.725015 
L 163.827216 191.725015 
L 163.93598 183.584339 
L 163.93631 191.725015 
L 164.234005 167.302987 
L 164.311566 175.443663 
L 164.419253 183.584339 
L 164.434 183.584339 
L 164.573402 191.725015 
L 164.716507 191.725015 
L 164.832056 175.443663 
L 164.913475 175.443663 
L 165.016374 183.584339 
L 165.105983 183.584339 
L 165.296941 159.162311 
L 165.318273 167.302987 
L 165.379063 167.302987 
L 165.486255 159.162311 
L 165.580164 159.162311 
L 165.694704 175.443663 
L 166.72817 175.443663 
L 166.85568 183.584339 
L 167.078199 183.584339 
L 167.204221 191.725015 
L 167.303693 191.725015 
L 167.450098 183.584339 
L 167.592518 183.584339 
L 167.666239 191.725015 
L 167.822999 183.584339 
L 167.833219 183.584339 
L 167.946961 175.443663 
L 168.014676 175.443663 
L 168.106334 167.302987 
L 168.245404 159.162311 
L 168.559035 159.162311 
L 168.609692 167.302987 
L 168.655163 159.162311 
L 168.707826 159.162311 
L 168.800301 175.443663 
L 168.839305 175.443663 
L 168.925011 191.725015 
L 169.225002 191.725015 
L 169.359255 183.584339 
L 169.915005 183.584339 
L 169.965216 191.725015 
L 170.140686 183.584339 
L 170.2262 183.584339 
L 170.336782 175.443663 
L 171.328063 175.443663 
L 171.463497 167.302987 
L 172.051484 167.302987 
L 172.1139 159.162311 
L 172.153701 167.302987 
L 172.461718 167.302987 
L 172.573353 175.443663 
L 172.640921 175.443663 
L 172.785154 183.584339 
L 172.989175 183.584339 
L 173.120267 175.443663 
L 173.212566 175.443663 
L 173.332968 183.584339 
L 173.671378 183.584339 
L 173.762025 191.725015 
L 173.778996 183.584339 
L 174.582129 183.584339 
L 174.729308 159.162311 
L 174.857054 175.443663 
L 174.992061 175.443663 
L 175.116889 159.162311 
L 175.483129 159.162311 
L 175.52905 151.021635 
L 175.553147 159.162311 
L 175.727425 159.162311 
L 175.729081 151.021635 
L 175.832288 159.162311 
L 175.896983 159.162311 
L 175.945408 151.021635 
L 175.999809 159.162311 
L 176.088603 159.162311 
L 176.198357 151.021635 
L 176.283501 159.162311 
L 176.317388 159.162311 
L 176.392135 134.740283 
L 176.430546 142.880959 
L 176.474254 142.880959 
L 176.581965 151.021635 
L 176.722681 151.021635 
L 176.839066 142.880959 
L 176.866787 142.880959 
L 176.977795 126.599607 
L 177.099413 134.740283 
L 177.255547 134.740283 
L 177.372232 142.880959 
L 177.379727 142.880959 
L 177.500937 134.740283 
L 177.609111 159.162311 
L 177.61942 159.162311 
L 177.66286 151.021635 
L 177.682069 167.302987 
L 177.723266 167.302987 
L 178.320232 167.302987 
L 178.339772 183.584339 
L 178.427103 175.443663 
L 178.510264 175.443663 
L 178.582675 167.302987 
L 178.619535 175.443663 
L 178.802097 175.443663 
L 178.914174 183.584339 
L 179.030234 183.584339 
L 179.300912 191.725015 
L 180.113925 191.725015 
L 180.140067 175.443663 
L 180.271349 175.443663 
L 180.401913 183.584339 
L 180.524047 175.443663 
L 180.65367 191.725015 
L 181.248383 191.725015 
L 181.359589 183.584339 
L 181.47258 191.725015 
L 181.758534 175.443663 
L 181.805256 183.584339 
L 181.865127 175.443663 
L 182.213899 175.443663 
L 182.330259 167.302987 
L 182.353862 167.302987 
L 182.461855 151.021635 
L 182.668569 151.021635 
L 182.746049 142.880959 
L 182.775937 151.021635 
L 182.896598 151.021635 
L 182.907861 142.880959 
L 182.956049 151.021635 
L 183.128309 151.021635 
L 183.23368 159.162311 
L 183.369715 159.162311 
L 183.451587 151.021635 
L 183.669805 167.302987 
L 183.717064 167.302987 
L 183.83435 159.162311 
L 183.915971 159.162311 
L 183.986066 151.021635 
L 184.005716 159.162311 
L 184.038014 159.162311 
L 184.063631 151.021635 
L 184.142788 159.162311 
L 184.437108 159.162311 
L 184.469168 151.021635 
L 184.537419 159.162311 
L 184.549271 159.162311 
L 184.586656 167.302987 
L 184.952896 167.302987 
L 185.064168 159.162311 
L 185.208716 159.162311 
L 185.31643 151.021635 
L 185.345997 151.021635 
L 185.480003 159.162311 
L 185.580207 151.021635 
L 185.755493 151.021635 
L 185.871713 142.880959 
L 185.942556 142.880959 
L 186.086458 159.162311 
L 186.202432 159.162311 
L 186.279538 167.302987 
L 186.285586 159.162311 
L 186.375007 159.162311 
L 186.478018 167.302987 
L 186.660771 167.302987 
L 186.752362 175.443663 
L 187.006806 175.443663 
L 187.037772 167.302987 
L 187.103436 175.443663 
L 187.24881 175.443663 
L 187.347996 183.584339 
L 187.552617 183.584339 
L 187.599636 191.725015 
L 187.736305 191.725015 
L 187.783955 183.584339 
L 187.83562 191.725015 
L 187.973302 183.584339 
L 189.043919 183.584339 
L 189.234405 175.443663 
L 189.344349 175.443663 
L 189.459046 183.584339 
L 189.639354 167.302987 
L 189.66639 183.584339 
L 190.304842 183.584339 
L 190.478102 167.302987 
L 190.487652 175.443663 
L 190.538091 175.443663 
L 190.61013 183.584339 
L 190.723357 183.584339 
L 190.759507 175.443663 
L 190.83436 183.584339 
L 191.000974 183.584339 
L 191.166701 175.443663 
L 191.345756 167.302987 
L 191.375624 167.302987 
L 191.400292 159.162311 
L 191.452465 167.302987 
L 191.487222 167.302987 
L 191.597652 183.584339 
L 192.229458 183.584339 
L 192.361454 175.443663 
L 192.42806 183.584339 
L 192.446563 175.443663 
L 192.678055 175.443663 
L 192.733611 167.302987 
L 192.734105 175.443663 
L 192.88692 175.443663 
L 192.898422 167.302987 
L 192.945774 175.443663 
L 193.115077 175.443663 
L 193.179371 183.584339 
L 193.399409 183.584339 
L 193.531127 191.725015 
L 193.715977 183.584339 
L 194.809953 183.584339 
L 194.942332 175.443663 
L 195.054892 183.584339 
L 195.312859 183.584339 
L 195.31941 191.725015 
L 195.417203 183.584339 
L 195.608558 175.443663 
L 195.798915 175.443663 
L 195.883709 183.584339 
L 195.951022 183.584339 
L 196.106421 167.302987 
L 196.147595 167.302987 
L 196.322818 183.584339 
L 196.503715 183.584339 
L 196.522052 191.725015 
L 196.731231 183.584339 
L 197.046291 191.725015 
L 197.208632 191.725015 
L 197.345622 151.021635 
L 197.369031 159.162311 
L 197.543617 159.162311 
L 197.581248 167.302987 
L 197.746095 159.162311 
L 198.121853 159.162311 
L 198.300347 167.302987 
L 198.314643 175.443663 
L 198.676413 175.443663 
L 198.78147 191.725015 
L 198.891411 183.584339 
L 198.939032 191.725015 
L 199.100108 191.725015 
L 199.3875 183.584339 
L 199.557285 167.302987 
L 199.593258 175.443663 
L 199.653928 167.302987 
L 199.790354 167.302987 
L 199.900709 151.021635 
L 200.022827 151.021635 
L 200.141741 167.302987 
L 200.179899 167.302987 
L 200.339374 175.443663 
L 200.478614 175.443663 
L 200.644896 191.725015 
L 200.938023 191.725015 
L 200.982195 183.584339 
L 201.109262 183.584339 
L 201.267526 191.725015 
L 201.403838 175.443663 
L 201.472336 175.443663 
L 201.5818 183.584339 
L 201.663303 183.584339 
L 201.678002 167.302987 
L 201.969284 167.302987 
L 202.042105 159.162311 
L 202.124695 159.162311 
L 202.165866 167.302987 
L 202.203658 142.880959 
L 202.312189 142.880959 
L 202.386793 134.740283 
L 202.422776 142.880959 
L 202.424519 142.880959 
L 202.538689 134.740283 
L 202.635845 151.021635 
L 202.76047 159.162311 
L 202.839609 167.302987 
L 202.888378 159.162311 
L 202.975749 167.302987 
L 203.194342 167.302987 
L 203.361604 159.162311 
L 203.461555 167.302987 
L 204.388337 167.302987 
L 204.566027 183.584339 
L 204.735642 191.725015 
L 208.717486 191.725015 
L 209.060831 175.443663 
L 209.755994 183.584339 
L 209.766793 191.725015 
L 213.622609 191.725015 
L 213.994417 167.302987 
L 214.127949 159.162311 
L 214.328855 183.584339 
L 214.406808 183.584339 
L 214.456334 191.725015 
L 215.196034 191.725015 
L 215.321403 175.443663 
L 215.424534 183.584339 
L 215.739011 183.584339 
L 215.76945 191.725015 
L 225.723827 191.725015 
L 226.19642 183.584339 
L 226.494737 183.584339 
L 226.75101 191.725015 
L 236.300119 191.725015 
L 236.372617 183.584339 
L 236.742333 191.725015 
L 245.25706 191.725015 
L 245.447707 175.443663 
L 245.610947 175.443663 
L 245.761457 167.302987 
L 246.379626 183.584339 
L 249.088364 183.584339 
L 249.386132 191.725015 
L 251.504646 191.725015 
L 251.900067 183.584339 
L 252.172127 191.725015 
L 262.257905 191.725015 
L 262.342984 183.584339 
L 262.465683 183.584339 
L 262.662178 191.725015 
L 262.853675 183.584339 
L 262.895781 175.443663 
L 263.07282 183.584339 
L 263.553236 183.584339 
L 263.67733 191.725015 
L 272.519462 191.725015 
L 272.567703 183.584339 
L 272.738967 191.725015 
L 272.784278 183.584339 
L 273.067192 183.584339 
L 273.096511 191.725015 
L 273.602513 183.584339 
L 274.667555 183.584339 
L 274.720651 191.725015 
L 274.740589 183.584339 
L 274.796562 183.584339 
L 274.86654 175.443663 
L 274.897278 183.584339 
L 278.124847 183.584339 
L 278.494907 191.725015 
L 280.523577 191.725015 
L 280.712209 183.584339 
L 280.83578 191.725015 
L 291.33419 191.725015 
L 291.484446 183.584339 
L 291.716631 191.725015 
L 307.086227 191.725015 
L 307.414177 183.584339 
L 307.550425 183.584339 
L 307.589341 191.725015 
L 307.771227 183.584339 
L 308.309706 183.584339 
L 308.480852 175.443663 
L 308.562182 183.584339 
L 308.869901 183.584339 
L 309.04165 191.725015 
L 311.162714 191.725015 
L 311.474454 183.584339 
L 312.060287 183.584339 
L 312.40778 191.725015 
L 312.40778 191.725015 
" clip-path="url(#p46ed785eee)" style="fill: none; stroke: #000000; stroke-width: 1.5; stroke-linecap: square"/>
   </g>
   <g id="patch_8">
    <path d="M 43.78125 195.795353 
L 43.78125 106.247917 
" style="fill: none; stroke: #000000; stroke-width: 0.8; stroke-linejoin: miter; stroke-linecap: square"/>
   </g>
   <g id="patch_9">
    <path d="M 325.19952 195.795353 
L 325.19952 106.247917 
" style="fill: none; stroke: #000000; stroke-width: 0.8; stroke-linejoin: miter; stroke-linecap: square"/>
   </g>
   <g id="patch_10">
    <path d="M 43.78125 195.795353 
L 325.19952 195.795353 
" style="fill: none; stroke: #000000; stroke-width: 0.8; stroke-linejoin: miter; stroke-linecap: square"/>
   </g>
   <g id="patch_11">
    <path d="M 43.78125 106.247917 
L 325.19952 106.247917 
" style="fill: none; stroke: #000000; stroke-width: 0.8; stroke-linejoin: miter; stroke-linecap: square"/>
   </g>
  </g>
  <g id="axes_3">
   <g id="patch_12">
    <path d="M 43.78125 294.84327 
L 325.19952 294.84327 
L 325.19952 205.295833 
L 43.78125 205.295833 
z
" style="fill: #ffffff"/>
   </g>
   <g id="matplotlib.axis_5">
    <g id="xtick_19">
     <g id="line2d_27">
      <g>
       <use xlink:href="#me03e150b1f" x="56.57299" y="294.84327" style="stroke: #000000; stroke-width: 0.8"/>
      </g>
     </g>
     <g id="text_9">
      <!-- 0 -->
      <g transform="translate(53.39174 309.441707) scale(0.1 -0.1)">
       <use xlink:href="#DejaVuSans-30"/>
      </g>
     </g>
    </g>
    <g id="xtick_20">
     <g id="line2d_28">
      <g>
       <use xlink:href="#me03e150b1f" x="88.517891" y="294.84327" style="stroke: #000000; stroke-width: 0.8"/>
      </g>
     </g>
     <g id="text_10">
      <!-- 100 -->
      <g transform="translate(78.974141 309.441707) scale(0.1 -0.1)">
       <use xlink:href="#DejaVuSans-31"/>
       <use xlink:href="#DejaVuSans-30" transform="translate(63.623047 0)"/>
       <use xlink:href="#DejaVuSans-30" transform="translate(127.246094 0)"/>
      </g>
     </g>
    </g>
    <g id="xtick_21">
     <g id="line2d_29">
      <g>
       <use xlink:href="#me03e150b1f" x="120.462792" y="294.84327" style="stroke: #000000; stroke-width: 0.8"/>
      </g>
     </g>
     <g id="text_11">
      <!-- 200 -->
      <g transform="translate(110.919042 309.441707) scale(0.1 -0.1)">
       <defs>
        <path id="DejaVuSans-32" d="M 1228 531 
L 3431 531 
L 3431 0 
L 469 0 
L 469 531 
Q 828 903 1448 1529 
Q 2069 2156 2228 2338 
Q 2531 2678 2651 2914 
Q 2772 3150 2772 3378 
Q 2772 3750 2511 3984 
Q 2250 4219 1831 4219 
Q 1534 4219 1204 4116 
Q 875 4013 500 3803 
L 500 4441 
Q 881 4594 1212 4672 
Q 1544 4750 1819 4750 
Q 2544 4750 2975 4387 
Q 3406 4025 3406 3419 
Q 3406 3131 3298 2873 
Q 3191 2616 2906 2266 
Q 2828 2175 2409 1742 
Q 1991 1309 1228 531 
z
" transform="scale(0.015625)"/>
       </defs>
       <use xlink:href="#DejaVuSans-32"/>
       <use xlink:href="#DejaVuSans-30" transform="translate(63.623047 0)"/>
       <use xlink:href="#DejaVuSans-30" transform="translate(127.246094 0)"/>
      </g>
     </g>
    </g>
    <g id="xtick_22">
     <g id="line2d_30">
      <g>
       <use xlink:href="#me03e150b1f" x="152.407693" y="294.84327" style="stroke: #000000; stroke-width: 0.8"/>
      </g>
     </g>
     <g id="text_12">
      <!-- 300 -->
      <g transform="translate(142.863943 309.441707) scale(0.1 -0.1)">
       <defs>
        <path id="DejaVuSans-33" d="M 2597 2516 
Q 3050 2419 3304 2112 
Q 3559 1806 3559 1356 
Q 3559 666 3084 287 
Q 2609 -91 1734 -91 
Q 1441 -91 1130 -33 
Q 819 25 488 141 
L 488 750 
Q 750 597 1062 519 
Q 1375 441 1716 441 
Q 2309 441 2620 675 
Q 2931 909 2931 1356 
Q 2931 1769 2642 2001 
Q 2353 2234 1838 2234 
L 1294 2234 
L 1294 2753 
L 1863 2753 
Q 2328 2753 2575 2939 
Q 2822 3125 2822 3475 
Q 2822 3834 2567 4026 
Q 2313 4219 1838 4219 
Q 1578 4219 1281 4162 
Q 984 4106 628 3988 
L 628 4550 
Q 988 4650 1302 4700 
Q 1616 4750 1894 4750 
Q 2613 4750 3031 4423 
Q 3450 4097 3450 3541 
Q 3450 3153 3228 2886 
Q 3006 2619 2597 2516 
z
" transform="scale(0.015625)"/>
       </defs>
       <use xlink:href="#DejaVuSans-33"/>
       <use xlink:href="#DejaVuSans-30" transform="translate(63.623047 0)"/>
       <use xlink:href="#DejaVuSans-30" transform="translate(127.246094 0)"/>
      </g>
     </g>
    </g>
    <g id="xtick_23">
     <g id="line2d_31">
      <g>
       <use xlink:href="#me03e150b1f" x="184.352595" y="294.84327" style="stroke: #000000; stroke-width: 0.8"/>
      </g>
     </g>
     <g id="text_13">
      <!-- 400 -->
      <g transform="translate(174.808845 309.441707) scale(0.1 -0.1)">
       <defs>
        <path id="DejaVuSans-34" d="M 2419 4116 
L 825 1625 
L 2419 1625 
L 2419 4116 
z
M 2253 4666 
L 3047 4666 
L 3047 1625 
L 3713 1625 
L 3713 1100 
L 3047 1100 
L 3047 0 
L 2419 0 
L 2419 1100 
L 313 1100 
L 313 1709 
L 2253 4666 
z
" transform="scale(0.015625)"/>
       </defs>
       <use xlink:href="#DejaVuSans-34"/>
       <use xlink:href="#DejaVuSans-30" transform="translate(63.623047 0)"/>
       <use xlink:href="#DejaVuSans-30" transform="translate(127.246094 0)"/>
      </g>
     </g>
    </g>
    <g id="xtick_24">
     <g id="line2d_32">
      <g>
       <use xlink:href="#me03e150b1f" x="216.297496" y="294.84327" style="stroke: #000000; stroke-width: 0.8"/>
      </g>
     </g>
     <g id="text_14">
      <!-- 500 -->
      <g transform="translate(206.753746 309.441707) scale(0.1 -0.1)">
       <use xlink:href="#DejaVuSans-35"/>
       <use xlink:href="#DejaVuSans-30" transform="translate(63.623047 0)"/>
       <use xlink:href="#DejaVuSans-30" transform="translate(127.246094 0)"/>
      </g>
     </g>
    </g>
    <g id="xtick_25">
     <g id="line2d_33">
      <g>
       <use xlink:href="#me03e150b1f" x="248.242397" y="294.84327" style="stroke: #000000; stroke-width: 0.8"/>
      </g>
     </g>
     <g id="text_15">
      <!-- 600 -->
      <g transform="translate(238.698647 309.441707) scale(0.1 -0.1)">
       <defs>
        <path id="DejaVuSans-36" d="M 2113 2584 
Q 1688 2584 1439 2293 
Q 1191 2003 1191 1497 
Q 1191 994 1439 701 
Q 1688 409 2113 409 
Q 2538 409 2786 701 
Q 3034 994 3034 1497 
Q 3034 2003 2786 2293 
Q 2538 2584 2113 2584 
z
M 3366 4563 
L 3366 3988 
Q 3128 4100 2886 4159 
Q 2644 4219 2406 4219 
Q 1781 4219 1451 3797 
Q 1122 3375 1075 2522 
Q 1259 2794 1537 2939 
Q 1816 3084 2150 3084 
Q 2853 3084 3261 2657 
Q 3669 2231 3669 1497 
Q 3669 778 3244 343 
Q 2819 -91 2113 -91 
Q 1303 -91 875 529 
Q 447 1150 447 2328 
Q 447 3434 972 4092 
Q 1497 4750 2381 4750 
Q 2619 4750 2861 4703 
Q 3103 4656 3366 4563 
z
" transform="scale(0.015625)"/>
       </defs>
       <use xlink:href="#DejaVuSans-36"/>
       <use xlink:href="#DejaVuSans-30" transform="translate(63.623047 0)"/>
       <use xlink:href="#DejaVuSans-30" transform="translate(127.246094 0)"/>
      </g>
     </g>
    </g>
    <g id="xtick_26">
     <g id="line2d_34">
      <g>
       <use xlink:href="#me03e150b1f" x="280.187298" y="294.84327" style="stroke: #000000; stroke-width: 0.8"/>
      </g>
     </g>
     <g id="text_16">
      <!-- 700 -->
      <g transform="translate(270.643548 309.441707) scale(0.1 -0.1)">
       <defs>
        <path id="DejaVuSans-37" d="M 525 4666 
L 3525 4666 
L 3525 4397 
L 1831 0 
L 1172 0 
L 2766 4134 
L 525 4134 
L 525 4666 
z
" transform="scale(0.015625)"/>
       </defs>
       <use xlink:href="#DejaVuSans-37"/>
       <use xlink:href="#DejaVuSans-30" transform="translate(63.623047 0)"/>
       <use xlink:href="#DejaVuSans-30" transform="translate(127.246094 0)"/>
      </g>
     </g>
    </g>
    <g id="xtick_27">
     <g id="line2d_35">
      <g>
       <use xlink:href="#me03e150b1f" x="312.1322" y="294.84327" style="stroke: #000000; stroke-width: 0.8"/>
      </g>
     </g>
     <g id="text_17">
      <!-- 800 -->
      <g transform="translate(302.58845 309.441707) scale(0.1 -0.1)">
       <defs>
        <path id="DejaVuSans-38" d="M 2034 2216 
Q 1584 2216 1326 1975 
Q 1069 1734 1069 1313 
Q 1069 891 1326 650 
Q 1584 409 2034 409 
Q 2484 409 2743 651 
Q 3003 894 3003 1313 
Q 3003 1734 2745 1975 
Q 2488 2216 2034 2216 
z
M 1403 2484 
Q 997 2584 770 2862 
Q 544 3141 544 3541 
Q 544 4100 942 4425 
Q 1341 4750 2034 4750 
Q 2731 4750 3128 4425 
Q 3525 4100 3525 3541 
Q 3525 3141 3298 2862 
Q 3072 2584 2669 2484 
Q 3125 2378 3379 2068 
Q 3634 1759 3634 1313 
Q 3634 634 3220 271 
Q 2806 -91 2034 -91 
Q 1263 -91 848 271 
Q 434 634 434 1313 
Q 434 1759 690 2068 
Q 947 2378 1403 2484 
z
M 1172 3481 
Q 1172 3119 1398 2916 
Q 1625 2713 2034 2713 
Q 2441 2713 2670 2916 
Q 2900 3119 2900 3481 
Q 2900 3844 2670 4047 
Q 2441 4250 2034 4250 
Q 1625 4250 1398 4047 
Q 1172 3844 1172 3481 
z
" transform="scale(0.015625)"/>
       </defs>
       <use xlink:href="#DejaVuSans-38"/>
       <use xlink:href="#DejaVuSans-30" transform="translate(63.623047 0)"/>
       <use xlink:href="#DejaVuSans-30" transform="translate(127.246094 0)"/>
      </g>
     </g>
    </g>
    <g id="text_18">
     <!-- Time -->
     <g transform="translate(172.256791 323.119832) scale(0.1 -0.1)">
      <defs>
       <path id="DejaVuSans-54" d="M -19 4666 
L 3928 4666 
L 3928 4134 
L 2272 4134 
L 2272 0 
L 1638 0 
L 1638 4134 
L -19 4134 
L -19 4666 
z
" transform="scale(0.015625)"/>
       <path id="DejaVuSans-69" d="M 603 3500 
L 1178 3500 
L 1178 0 
L 603 0 
L 603 3500 
z
M 603 4863 
L 1178 4863 
L 1178 4134 
L 603 4134 
L 603 4863 
z
" transform="scale(0.015625)"/>
       <path id="DejaVuSans-6d" d="M 3328 2828 
Q 3544 3216 3844 3400 
Q 4144 3584 4550 3584 
Q 5097 3584 5394 3201 
Q 5691 2819 5691 2113 
L 5691 0 
L 5113 0 
L 5113 2094 
Q 5113 2597 4934 2840 
Q 4756 3084 4391 3084 
Q 3944 3084 3684 2787 
Q 3425 2491 3425 1978 
L 3425 0 
L 2847 0 
L 2847 2094 
Q 2847 2600 2669 2842 
Q 2491 3084 2119 3084 
Q 1678 3084 1418 2786 
Q 1159 2488 1159 1978 
L 1159 0 
L 581 0 
L 581 3500 
L 1159 3500 
L 1159 2956 
Q 1356 3278 1631 3431 
Q 1906 3584 2284 3584 
Q 2666 3584 2933 3390 
Q 3200 3197 3328 2828 
z
" transform="scale(0.015625)"/>
      </defs>
      <use xlink:href="#DejaVuSans-54"/>
      <use xlink:href="#DejaVuSans-69" transform="translate(57.958984 0)"/>
      <use xlink:href="#DejaVuSans-6d" transform="translate(85.742188 0)"/>
      <use xlink:href="#DejaVuSans-65" transform="translate(183.154297 0)"/>
     </g>
    </g>
   </g>
   <g id="matplotlib.axis_6">
    <g id="ytick_7">
     <g id="line2d_36">
      <g>
       <use xlink:href="#m5d7348170f" x="43.78125" y="290.772932" style="stroke: #000000; stroke-width: 0.8"/>
      </g>
     </g>
     <g id="text_19">
      <!-- 0.0 -->
      <g transform="translate(20.878125 294.572151) scale(0.1 -0.1)">
       <defs>
        <path id="DejaVuSans-2e" d="M 684 794 
L 1344 794 
L 1344 0 
L 684 0 
L 684 794 
z
" transform="scale(0.015625)"/>
       </defs>
       <use xlink:href="#DejaVuSans-30"/>
       <use xlink:href="#DejaVuSans-2e" transform="translate(63.623047 0)"/>
       <use xlink:href="#DejaVuSans-30" transform="translate(95.410156 0)"/>
      </g>
     </g>
    </g>
    <g id="ytick_8">
     <g id="line2d_37">
      <g>
       <use xlink:href="#m5d7348170f" x="43.78125" y="250.069552" style="stroke: #000000; stroke-width: 0.8"/>
      </g>
     </g>
     <g id="text_20">
      <!-- 0.5 -->
      <g transform="translate(20.878125 253.86877) scale(0.1 -0.1)">
       <use xlink:href="#DejaVuSans-30"/>
       <use xlink:href="#DejaVuSans-2e" transform="translate(63.623047 0)"/>
       <use xlink:href="#DejaVuSans-35" transform="translate(95.410156 0)"/>
      </g>
     </g>
    </g>
    <g id="ytick_9">
     <g id="line2d_38">
      <g>
       <use xlink:href="#m5d7348170f" x="43.78125" y="209.366171" style="stroke: #000000; stroke-width: 0.8"/>
      </g>
     </g>
     <g id="text_21">
      <!-- 1.0 -->
      <g transform="translate(20.878125 213.16539) scale(0.1 -0.1)">
       <use xlink:href="#DejaVuSans-31"/>
       <use xlink:href="#DejaVuSans-2e" transform="translate(63.623047 0)"/>
       <use xlink:href="#DejaVuSans-30" transform="translate(95.410156 0)"/>
      </g>
     </g>
    </g>
    <g id="text_22">
     <!-- Free lac operon -->
     <g transform="translate(14.798438 288.540645) rotate(-90) scale(0.1 -0.1)">
      <defs>
       <path id="DejaVuSans-46" d="M 628 4666 
L 3309 4666 
L 3309 4134 
L 1259 4134 
L 1259 2759 
L 3109 2759 
L 3109 2228 
L 1259 2228 
L 1259 0 
L 628 0 
L 628 4666 
z
" transform="scale(0.015625)"/>
       <path id="DejaVuSans-70" d="M 1159 525 
L 1159 -1331 
L 581 -1331 
L 581 3500 
L 1159 3500 
L 1159 2969 
Q 1341 3281 1617 3432 
Q 1894 3584 2278 3584 
Q 2916 3584 3314 3078 
Q 3713 2572 3713 1747 
Q 3713 922 3314 415 
Q 2916 -91 2278 -91 
Q 1894 -91 1617 61 
Q 1341 213 1159 525 
z
M 3116 1747 
Q 3116 2381 2855 2742 
Q 2594 3103 2138 3103 
Q 1681 3103 1420 2742 
Q 1159 2381 1159 1747 
Q 1159 1113 1420 752 
Q 1681 391 2138 391 
Q 2594 391 2855 752 
Q 3116 1113 3116 1747 
z
" transform="scale(0.015625)"/>
       <path id="DejaVuSans-6e" d="M 3513 2113 
L 3513 0 
L 2938 0 
L 2938 2094 
Q 2938 2591 2744 2837 
Q 2550 3084 2163 3084 
Q 1697 3084 1428 2787 
Q 1159 2491 1159 1978 
L 1159 0 
L 581 0 
L 581 3500 
L 1159 3500 
L 1159 2956 
Q 1366 3272 1645 3428 
Q 1925 3584 2291 3584 
Q 2894 3584 3203 3211 
Q 3513 2838 3513 2113 
z
" transform="scale(0.015625)"/>
      </defs>
      <use xlink:href="#DejaVuSans-46"/>
      <use xlink:href="#DejaVuSans-72" transform="translate(50.269531 0)"/>
      <use xlink:href="#DejaVuSans-65" transform="translate(89.132812 0)"/>
      <use xlink:href="#DejaVuSans-65" transform="translate(150.65625 0)"/>
      <use xlink:href="#DejaVuSans-20" transform="translate(212.179688 0)"/>
      <use xlink:href="#DejaVuSans-6c" transform="translate(243.966797 0)"/>
      <use xlink:href="#DejaVuSans-61" transform="translate(271.75 0)"/>
      <use xlink:href="#DejaVuSans-63" transform="translate(333.029297 0)"/>
      <use xlink:href="#DejaVuSans-20" transform="translate(388.009766 0)"/>
      <use xlink:href="#DejaVuSans-6f" transform="translate(419.796875 0)"/>
      <use xlink:href="#DejaVuSans-70" transform="translate(480.978516 0)"/>
      <use xlink:href="#DejaVuSans-65" transform="translate(544.455078 0)"/>
      <use xlink:href="#DejaVuSans-72" transform="translate(605.978516 0)"/>
      <use xlink:href="#DejaVuSans-6f" transform="translate(644.841797 0)"/>
      <use xlink:href="#DejaVuSans-6e" transform="translate(706.023438 0)"/>
     </g>
    </g>
   </g>
   <g id="line2d_39">
    <path d="M 56.57299 209.366171 
L 56.654693 290.772932 
L 56.823371 290.772932 
L 56.993345 209.366171 
L 57.111786 209.366171 
L 57.214155 290.772932 
L 58.433256 290.772932 
L 59.425398 209.366171 
L 59.612174 209.366171 
L 59.634971 290.772932 
L 62.062042 290.772932 
L 64.662587 209.366171 
L 64.958168 209.366171 
L 65.095931 290.772932 
L 65.222096 290.772932 
L 71.899995 209.366171 
L 72.070179 290.772932 
L 79.927972 209.366171 
L 79.977122 290.772932 
L 82.609685 209.366171 
L 82.75 209.366171 
L 82.804288 290.772932 
L 84.54866 290.772932 
L 84.614245 209.366171 
L 85.492567 209.366171 
L 85.682985 290.772932 
L 86.718221 290.772932 
L 89.717756 209.366171 
L 90.259012 209.366171 
L 90.288359 290.772932 
L 90.647096 290.772932 
L 91.530529 209.366171 
L 91.589111 290.772932 
L 91.933749 290.772932 
L 109.04812 209.366171 
L 109.061853 290.772932 
L 109.320915 290.772932 
L 109.597681 209.366171 
L 109.885699 290.772932 
L 110.014065 209.366171 
L 110.422755 209.366171 
L 110.62781 290.772932 
L 110.921126 290.772932 
L 115.092863 209.366171 
L 115.755009 290.772932 
L 117.400823 209.366171 
L 117.716779 290.772932 
L 118.390749 209.366171 
L 118.478274 290.772932 
L 119.489954 209.366171 
L 119.575059 290.772932 
L 123.526947 290.772932 
L 129.559622 209.366171 
L 129.665812 290.772932 
L 131.412087 209.366171 
L 131.863915 209.366171 
L 131.885404 290.772932 
L 133.729922 290.772932 
L 136.331525 209.366171 
L 136.344863 290.772932 
L 139.232538 209.366171 
L 139.275367 290.772932 
L 146.33484 209.366171 
L 147.281332 209.366171 
L 147.349801 290.772932 
L 147.967642 290.772932 
L 148.213237 209.366171 
L 148.528839 209.366171 
L 148.641844 290.772932 
L 149.714908 290.772932 
L 150.227511 209.366171 
L 150.328495 290.772932 
L 151.45216 290.772932 
L 151.463507 209.366171 
L 151.625414 290.772932 
L 155.943787 209.366171 
L 156.032924 290.772932 
L 156.282814 209.366171 
L 203.721987 209.366171 
L 203.820843 290.772932 
L 207.802767 290.772932 
L 208.717486 209.366171 
L 209.0423 209.366171 
L 209.060831 290.772932 
L 212.474774 290.772932 
L 213.713211 209.366171 
L 214.244006 209.366171 
L 214.328855 290.772932 
L 215.003502 290.772932 
L 215.301841 209.366171 
L 215.411966 290.772932 
L 215.76945 290.772932 
L 222.218162 209.366171 
L 222.30163 290.772932 
L 225.723827 209.366171 
L 226.181845 209.366171 
L 226.19642 290.772932 
L 226.75101 290.772932 
L 236.346454 209.366171 
L 236.372617 290.772932 
L 237.209716 290.772932 
L 241.617513 209.366171 
L 241.705312 290.772932 
L 242.320439 209.366171 
L 242.412901 290.772932 
L 245.332056 209.366171 
L 245.650525 209.366171 
L 245.761457 290.772932 
L 249.531099 290.772932 
L 250.473754 209.366171 
L 250.75007 290.772932 
L 251.504646 209.366171 
L 252.105508 209.366171 
L 252.172127 290.772932 
L 253.244006 290.772932 
L 262.342984 209.366171 
L 263.012885 209.366171 
L 263.07282 290.772932 
L 264.192984 290.772932 
L 270.18923 209.366171 
L 270.440526 290.772932 
L 272.567703 209.366171 
L 273.602513 209.366171 
L 274.023976 290.772932 
L 274.55563 290.772932 
L 274.740589 209.366171 
L 274.897278 209.366171 
L 275.073649 290.772932 
L 278.494907 290.772932 
L 279.969038 209.366171 
L 280.066916 290.772932 
L 280.523577 209.366171 
L 280.83578 209.366171 
L 281.006008 290.772932 
L 281.059318 209.366171 
L 281.111038 290.772932 
L 282.382675 290.772932 
L 291.33419 209.366171 
L 291.479839 209.366171 
L 291.484446 290.772932 
L 291.983918 290.772932 
L 302.985191 209.366171 
L 303.123937 290.772932 
L 305.362217 209.366171 
L 305.6981 290.772932 
L 306.917517 209.366171 
L 306.941941 290.772932 
L 307.086227 209.366171 
L 308.435518 209.366171 
L 308.439952 290.772932 
L 308.50529 209.366171 
L 308.562182 209.366171 
L 308.869901 290.772932 
L 309.04165 290.772932 
L 311.162714 209.366171 
L 311.461359 209.366171 
L 311.474454 290.772932 
L 312.40778 290.772932 
L 312.40778 290.772932 
" clip-path="url(#p527e942cb1)" style="fill: none; stroke: #000000; stroke-width: 1.5; stroke-linecap: square"/>
   </g>
   <g id="patch_13">
    <path d="M 43.78125 294.84327 
L 43.78125 205.295833 
" style="fill: none; stroke: #000000; stroke-width: 0.8; stroke-linejoin: miter; stroke-linecap: square"/>
   </g>
   <g id="patch_14">
    <path d="M 325.19952 294.84327 
L 325.19952 205.295833 
" style="fill: none; stroke: #000000; stroke-width: 0.8; stroke-linejoin: miter; stroke-linecap: square"/>
   </g>
   <g id="patch_15">
    <path d="M 43.78125 294.84327 
L 325.19952 294.84327 
" style="fill: none; stroke: #000000; stroke-width: 0.8; stroke-linejoin: miter; stroke-linecap: square"/>
   </g>
   <g id="patch_16">
    <path d="M 43.78125 205.295833 
L 325.19952 205.295833 
" style="fill: none; stroke: #000000; stroke-width: 0.8; stroke-linejoin: miter; stroke-linecap: square"/>
   </g>
  </g>
 </g>
 <defs>
  <clipPath id="p1ff8176469">
   <rect x="43.78125" y="7.2" width="281.41827" height="89.547437"/>
  </clipPath>
  <clipPath id="p46ed785eee">
   <rect x="43.78125" y="106.247917" width="281.41827" height="89.547437"/>
  </clipPath>
  <clipPath id="p527e942cb1">
   <rect x="43.78125" y="205.295833" width="281.41827" height="89.547437"/>
  </clipPath>
 </defs>
</svg>
