<?xml version="1.0" encoding="utf-8" standalone="no"?>
<!DOCTYPE svg PUBLIC "-//W3C//DTD SVG 1.1//EN"
  "http://www.w3.org/Graphics/SVG/1.1/DTD/svg11.dtd">
<svg xmlns:xlink="http://www.w3.org/1999/xlink" width="332.39952pt" height="338.705099pt" viewBox="0 0 332.39952 338.705099" xmlns="http://www.w3.org/2000/svg" version="1.1">
 <metadata>
  <rdf:RDF xmlns:dc="http://purl.org/dc/elements/1.1/" xmlns:cc="http://creativecommons.org/ns#" xmlns:rdf="http://www.w3.org/1999/02/22-rdf-syntax-ns#">
   <cc:Work>
    <dc:type rdf:resource="http://purl.org/dc/dcmitype/StillImage"/>
    <dc:date>2026-07-22T15:20:05.974969</dc:date>
    <dc:format>image/svg+xml</dc:format>
    <dc:creator>
     <cc:Agent>
      <dc:title>Matplotlib v3.11.1, https://matplotlib.org/</dc:title>
     </cc:Agent>
    </dc:creator>
   </cc:Work>
  </rdf:RDF>
 </metadata>
 <defs>
  <style type="text/css">*{stroke-linejoin: round; stroke-linecap: butt}</style>
 </defs>
 <g id="figure_1">
  <g id="patch_1">
   <path d="M 0 338.705099 
L 332.39952 338.705099 
L 332.39952 0 
L 0 0 
z
" style="fill: #ffffff"/>
  </g>
  <g id="axes_1">
   <g id="patch_2">
    <path d="M 44.103906 102.838171 
L 325.19952 102.838171 
L 325.19952 13.505579 
L 44.103906 13.505579 
z
" style="fill: #ffffff"/>
   </g>
   <g id="matplotlib.axis_1">
    <g id="xtick_1">
     <g id="line2d_1">
      <defs>
       <path id="m4d3dda1c57" d="M 0 0 
L 0 3.5 
" style="stroke: #000000; stroke-width: 0.8"/>
      </defs>
      <g>
       <use xlink:href="#m4d3dda1c57" x="56.88098" y="102.838171" style="stroke: #000000; stroke-width: 0.8"/>
      </g>
     </g>
    </g>
    <g id="xtick_2">
     <g id="line2d_2">
      <g>
       <use xlink:href="#m4d3dda1c57" x="119.066242" y="102.838171" style="stroke: #000000; stroke-width: 0.8"/>
      </g>
     </g>
    </g>
    <g id="xtick_3">
     <g id="line2d_3">
      <g>
       <use xlink:href="#m4d3dda1c57" x="181.251505" y="102.838171" style="stroke: #000000; stroke-width: 0.8"/>
      </g>
     </g>
    </g>
    <g id="xtick_4">
     <g id="line2d_4">
      <g>
       <use xlink:href="#m4d3dda1c57" x="243.436768" y="102.838171" style="stroke: #000000; stroke-width: 0.8"/>
      </g>
     </g>
    </g>
    <g id="xtick_5">
     <g id="line2d_5">
      <g>
       <use xlink:href="#m4d3dda1c57" x="305.622031" y="102.838171" style="stroke: #000000; stroke-width: 0.8"/>
      </g>
     </g>
    </g>
   </g>
   <g id="matplotlib.axis_2">
    <g id="ytick_1">
     <g id="line2d_6">
      <defs>
       <path id="m79c5b4da5b" d="M 0 0 
L -3.5 0 
" style="stroke: #000000; stroke-width: 0.8"/>
      </defs>
      <g>
       <use xlink:href="#m79c5b4da5b" x="44.103906" y="98.777599" style="stroke: #000000; stroke-width: 0.8"/>
      </g>
     </g>
     <g id="text_1">
      <!-- 0 -->
      <g transform="translate(30.741406 102.576427) scale(0.1 -0.1)">
       <defs>
        <path id="DejaVuSans-13" d="M 2034 4250 
Q 1547 4250 1301 3770 
Q 1056 3291 1056 2328 
Q 1056 1369 1301 889 
Q 1547 409 2034 409 
Q 2525 409 2770 889 
Q 3016 1369 3016 2328 
Q 3016 3291 2770 3770 
Q 2525 4250 2034 4250 
z
M 2034 4750 
Q 2819 4750 3233 4129 
Q 3647 3509 3647 2328 
Q 3647 1150 3233 529 
Q 2819 -91 2034 -91 
Q 1250 -91 836 529 
Q 422 1150 422 2328 
Q 422 3509 836 4129 
Q 1250 4750 2034 4750 
z
" transform="scale(0.015625)"/>
       </defs>
       <use xlink:href="#DejaVuSans-13"/>
      </g>
     </g>
    </g>
    <g id="ytick_2">
     <g id="line2d_7">
      <g>
       <use xlink:href="#m79c5b4da5b" x="44.103906" y="58.171875" style="stroke: #000000; stroke-width: 0.8"/>
      </g>
     </g>
     <g id="text_2">
      <!-- 5 -->
      <g transform="translate(30.741406 61.970703) scale(0.1 -0.1)">
       <defs>
        <path id="DejaVuSans-18" d="M 691 4666 
L 3169 4666 
L 3169 4134 
L 1269 4134 
L 1269 2991 
Q 1406 3038 1543 3061 
Q 1681 3084 1819 3084 
Q 2600 3084 3056 2656 
Q 3513 2228 3513 1497 
Q 3513 744 3044 326 
Q 2575 -91 1722 -91 
Q 1428 -91 1123 -41 
Q 819 9 494 109 
L 494 744 
Q 775 591 1075 516 
Q 1375 441 1709 441 
Q 2250 441 2565 725 
Q 2881 1009 2881 1497 
Q 2881 1984 2565 2268 
Q 2250 2553 1709 2553 
Q 1456 2553 1204 2497 
Q 953 2441 691 2322 
L 691 4666 
z
" transform="scale(0.015625)"/>
       </defs>
       <use xlink:href="#DejaVuSans-18"/>
      </g>
     </g>
    </g>
    <g id="ytick_3">
     <g id="line2d_8">
      <g>
       <use xlink:href="#m79c5b4da5b" x="44.103906" y="17.566151" style="stroke: #000000; stroke-width: 0.8"/>
      </g>
     </g>
     <g id="text_3">
      <!-- 10 -->
      <g transform="translate(24.378906 21.364979) scale(0.1 -0.1)">
       <defs>
        <path id="DejaVuSans-14" d="M 794 531 
L 1825 531 
L 1825 4091 
L 703 3866 
L 703 4441 
L 1819 4666 
L 2450 4666 
L 2450 531 
L 3481 531 
L 3481 0 
L 794 0 
L 794 531 
z
" transform="scale(0.015625)"/>
       </defs>
       <use xlink:href="#DejaVuSans-14"/>
       <use xlink:href="#DejaVuSans-13" transform="translate(63.625 0)"/>
      </g>
     </g>
    </g>
    <g id="text_4">
     <!-- Extracellular lactose -->
     <g transform="translate(17.976563 109.14375) rotate(-90) scale(0.1 -0.1)">
      <defs>
       <path id="DejaVuSans-28" d="M 628 4666 
L 3578 4666 
L 3578 4134 
L 1259 4134 
L 1259 2753 
L 3481 2753 
L 3481 2222 
L 1259 2222 
L 1259 531 
L 3634 531 
L 3634 0 
L 628 0 
L 628 4666 
z
" transform="scale(0.015625)"/>
       <path id="DejaVuSans-5b" d="M 3513 3500 
L 2247 1797 
L 3578 0 
L 2900 0 
L 1881 1375 
L 863 0 
L 184 0 
L 1544 1831 
L 300 3500 
L 978 3500 
L 1906 2253 
L 2834 3500 
L 3513 3500 
z
" transform="scale(0.015625)"/>
       <path id="DejaVuSans-57" d="M 1172 4494 
L 1172 3500 
L 2356 3500 
L 2356 3053 
L 1172 3053 
L 1172 1153 
Q 1172 725 1289 603 
Q 1406 481 1766 481 
L 2356 481 
L 2356 0 
L 1766 0 
Q 1100 0 847 248 
Q 594 497 594 1153 
L 594 3053 
L 172 3053 
L 172 3500 
L 594 3500 
L 594 4494 
L 1172 4494 
z
" transform="scale(0.015625)"/>
       <path id="DejaVuSans-55" d="M 2631 2963 
Q 2534 3019 2420 3045 
Q 2306 3072 2169 3072 
Q 1681 3072 1420 2755 
Q 1159 2438 1159 1844 
L 1159 0 
L 581 0 
L 581 3500 
L 1159 3500 
L 1159 2956 
Q 1341 3275 1631 3429 
Q 1922 3584 2338 3584 
Q 2397 3584 2469 3576 
Q 2541 3569 2628 3553 
L 2631 2963 
z
" transform="scale(0.015625)"/>
       <path id="DejaVuSans-44" d="M 2194 1759 
Q 1497 1759 1228 1600 
Q 959 1441 959 1056 
Q 959 750 1161 570 
Q 1363 391 1709 391 
Q 2188 391 2477 730 
Q 2766 1069 2766 1631 
L 2766 1759 
L 2194 1759 
z
M 3341 1997 
L 3341 0 
L 2766 0 
L 2766 531 
Q 2569 213 2275 61 
Q 1981 -91 1556 -91 
Q 1019 -91 701 211 
Q 384 513 384 1019 
Q 384 1609 779 1909 
Q 1175 2209 1959 2209 
L 2766 2209 
L 2766 2266 
Q 2766 2663 2505 2880 
Q 2244 3097 1772 3097 
Q 1472 3097 1187 3025 
Q 903 2953 641 2809 
L 641 3341 
Q 956 3463 1253 3523 
Q 1550 3584 1831 3584 
Q 2591 3584 2966 3190 
Q 3341 2797 3341 1997 
z
" transform="scale(0.015625)"/>
       <path id="DejaVuSans-46" d="M 3122 3366 
L 3122 2828 
Q 2878 2963 2633 3030 
Q 2388 3097 2138 3097 
Q 1578 3097 1268 2742 
Q 959 2388 959 1747 
Q 959 1106 1268 751 
Q 1578 397 2138 397 
Q 2388 397 2633 464 
Q 2878 531 3122 666 
L 3122 134 
Q 2881 22 2623 -34 
Q 2366 -91 2075 -91 
Q 1284 -91 818 406 
Q 353 903 353 1747 
Q 353 2603 823 3093 
Q 1294 3584 2113 3584 
Q 2378 3584 2631 3529 
Q 2884 3475 3122 3366 
z
" transform="scale(0.015625)"/>
       <path id="DejaVuSans-48" d="M 3597 1894 
L 3597 1613 
L 953 1613 
Q 991 1019 1311 708 
Q 1631 397 2203 397 
Q 2534 397 2845 478 
Q 3156 559 3463 722 
L 3463 178 
Q 3153 47 2828 -22 
Q 2503 -91 2169 -91 
Q 1331 -91 842 396 
Q 353 884 353 1716 
Q 353 2575 817 3079 
Q 1281 3584 2069 3584 
Q 2775 3584 3186 3129 
Q 3597 2675 3597 1894 
z
M 3022 2063 
Q 3016 2534 2758 2815 
Q 2500 3097 2075 3097 
Q 1594 3097 1305 2825 
Q 1016 2553 972 2059 
L 3022 2063 
z
" transform="scale(0.015625)"/>
       <path id="DejaVuSans-4f" d="M 603 4863 
L 1178 4863 
L 1178 0 
L 603 0 
L 603 4863 
z
" transform="scale(0.015625)"/>
       <path id="DejaVuSans-58" d="M 544 1381 
L 544 3500 
L 1119 3500 
L 1119 1403 
Q 1119 906 1312 657 
Q 1506 409 1894 409 
Q 2359 409 2629 706 
Q 2900 1003 2900 1516 
L 2900 3500 
L 3475 3500 
L 3475 0 
L 2900 0 
L 2900 538 
Q 2691 219 2414 64 
Q 2138 -91 1772 -91 
Q 1169 -91 856 284 
Q 544 659 544 1381 
z
M 1991 3584 
L 1991 3584 
z
" transform="scale(0.015625)"/>
       <path id="DejaVuSans-3" transform="scale(0.015625)"/>
       <path id="DejaVuSans-52" d="M 1959 3097 
Q 1497 3097 1228 2736 
Q 959 2375 959 1747 
Q 959 1119 1226 758 
Q 1494 397 1959 397 
Q 2419 397 2687 759 
Q 2956 1122 2956 1747 
Q 2956 2369 2687 2733 
Q 2419 3097 1959 3097 
z
M 1959 3584 
Q 2709 3584 3137 3096 
Q 3566 2609 3566 1747 
Q 3566 888 3137 398 
Q 2709 -91 1959 -91 
Q 1206 -91 779 398 
Q 353 888 353 1747 
Q 353 2609 779 3096 
Q 1206 3584 1959 3584 
z
" transform="scale(0.015625)"/>
       <path id="DejaVuSans-56" d="M 2834 3397 
L 2834 2853 
Q 2591 2978 2328 3040 
Q 2066 3103 1784 3103 
Q 1356 3103 1142 2972 
Q 928 2841 928 2578 
Q 928 2378 1081 2264 
Q 1234 2150 1697 2047 
L 1894 2003 
Q 2506 1872 2764 1633 
Q 3022 1394 3022 966 
Q 3022 478 2636 193 
Q 2250 -91 1575 -91 
Q 1294 -91 989 -36 
Q 684 19 347 128 
L 347 722 
Q 666 556 975 473 
Q 1284 391 1588 391 
Q 1994 391 2212 530 
Q 2431 669 2431 922 
Q 2431 1156 2273 1281 
Q 2116 1406 1581 1522 
L 1381 1569 
Q 847 1681 609 1914 
Q 372 2147 372 2553 
Q 372 3047 722 3315 
Q 1072 3584 1716 3584 
Q 2034 3584 2315 3537 
Q 2597 3491 2834 3397 
z
" transform="scale(0.015625)"/>
      </defs>
      <use xlink:href="#DejaVuSans-28"/>
      <use xlink:href="#DejaVuSans-5b" transform="translate(63.1875 0)"/>
      <use xlink:href="#DejaVuSans-57" transform="translate(122.375 0)"/>
      <use xlink:href="#DejaVuSans-55" transform="translate(161.578125 0)"/>
      <use xlink:href="#DejaVuSans-44" transform="translate(202.6875 0)"/>
      <use xlink:href="#DejaVuSans-46" transform="translate(263.96875 0)"/>
      <use xlink:href="#DejaVuSans-48" transform="translate(318.953125 0)"/>
      <use xlink:href="#DejaVuSans-4f" transform="translate(380.484375 0)"/>
      <use xlink:href="#DejaVuSans-4f" transform="translate(408.265625 0)"/>
      <use xlink:href="#DejaVuSans-58" transform="translate(436.046875 0)"/>
      <use xlink:href="#DejaVuSans-4f" transform="translate(499.421875 0)"/>
      <use xlink:href="#DejaVuSans-44" transform="translate(527.203125 0)"/>
      <use xlink:href="#DejaVuSans-55" transform="translate(588.484375 0)"/>
      <use xlink:href="#DejaVuSans-3" transform="translate(629.59375 0)"/>
      <use xlink:href="#DejaVuSans-4f" transform="translate(661.375 0)"/>
      <use xlink:href="#DejaVuSans-44" transform="translate(689.15625 0)"/>
      <use xlink:href="#DejaVuSans-46" transform="translate(750.4375 0)"/>
      <use xlink:href="#DejaVuSans-57" transform="translate(805.421875 0)"/>
      <use xlink:href="#DejaVuSans-52" transform="translate(844.625 0)"/>
      <use xlink:href="#DejaVuSans-56" transform="translate(905.8125 0)"/>
      <use xlink:href="#DejaVuSans-48" transform="translate(957.90625 0)"/>
     </g>
    </g>
   </g>
   <g id="line2d_9">
    <path d="M 56.88098 98.777599 
L 153.600627 98.777599 
L 153.687386 17.566151 
L 154.337842 17.647362 
L 154.452441 17.972208 
L 154.496079 18.05342 
L 154.638436 19.515226 
L 154.756814 21.220666 
L 154.780787 21.301878 
L 154.906883 22.926107 
L 154.929814 23.007318 
L 155.512781 27.230313 
L 155.579519 27.311525 
L 155.699211 27.473948 
L 155.738715 27.555159 
L 155.864874 28.286062 
L 156.020392 28.854542 
L 156.047486 28.935754 
L 156.165169 29.747868 
L 156.179904 29.82908 
L 156.300699 30.478771 
L 156.328657 30.559983 
L 156.444305 31.290886 
L 156.485789 31.372097 
L 156.612542 31.53452 
L 156.653107 31.615731 
L 156.792054 32.590269 
L 157.099419 34.458132 
L 157.216729 35.351458 
L 157.711139 38.84355 
L 157.723582 38.924762 
L 157.832332 39.574453 
L 157.887921 40.061722 
L 158.009841 40.711414 
L 158.0308 40.792625 
L 158.143672 41.036259 
L 158.327603 42.010797 
L 158.396367 42.092008 
L 158.522023 42.498066 
L 158.652778 42.660488 
L 158.998293 42.7417 
L 159.195386 43.31018 
L 159.211455 43.391391 
L 159.440698 44.609563 
L 159.554436 45.01562 
L 159.582484 45.096832 
L 159.661265 45.259255 
L 159.759241 45.340466 
L 160.610712 48.101655 
L 160.66458 48.182867 
L 160.792205 48.264078 
L 160.819092 48.34529 
L 161.022872 48.994981 
L 161.103707 49.076193 
L 161.22817 49.563462 
L 161.5251 49.644673 
L 161.770826 50.537999 
L 161.848801 50.61921 
L 161.970866 51.18769 
L 161.997367 51.268902 
L 162.213991 52.649497 
L 162.373595 53.217977 
L 162.455519 53.299188 
L 162.828946 54.842206 
L 162.860088 54.923417 
L 162.946345 55.329474 
L 163.043952 55.410686 
L 163.160405 56.2228 
L 163.16925 56.304012 
L 163.292447 57.034915 
L 163.387524 57.278549 
L 164.163054 59.55247 
L 164.262988 59.633681 
L 164.400161 59.877315 
L 164.531074 59.958527 
L 164.615447 60.039738 
L 164.7524 60.608218 
L 164.807249 60.68943 
L 164.90032 60.933064 
L 164.945294 61.014276 
L 165.06386 61.25791 
L 165.123 61.339121 
L 165.266232 61.745179 
L 165.451831 61.82639 
L 165.618585 62.39487 
L 165.653622 62.476082 
L 165.758631 62.719716 
L 166.667926 67.348769 
L 167.047715 67.42998 
L 167.280116 67.99846 
L 167.465794 68.079672 
L 167.681905 68.56694 
L 167.802415 68.648152 
L 167.919578 68.810575 
L 168.272349 68.891786 
L 168.41348 69.13542 
L 168.462885 69.216632 
L 168.696702 70.028746 
L 168.859305 70.597227 
L 168.963109 70.678438 
L 169.189067 71.977821 
L 169.25639 72.059033 
L 169.53029 73.683262 
L 169.54554 73.764473 
L 169.643236 74.495376 
L 169.890447 75.145068 
L 169.95858 75.226279 
L 170.079245 75.632336 
L 170.136893 75.713548 
L 170.300932 76.119605 
L 170.345725 76.200816 
L 170.445154 76.363239 
L 170.597183 76.688085 
L 170.64364 76.769297 
L 170.751237 77.094142 
L 170.955058 77.581411 
L 171.046716 77.662623 
L 171.171199 78.06868 
L 171.441527 78.962006 
L 171.663797 79.043217 
L 171.788839 79.611697 
L 172.005432 80.180177 
L 172.106588 80.261389 
L 172.197096 80.3426 
L 172.368935 80.586235 
L 172.45421 80.748658 
L 172.521669 80.829869 
L 173.293336 82.778944 
L 173.866825 82.860155 
L 173.968816 82.941367 
L 174.105123 83.022578 
L 174.169822 83.10379 
L 174.253472 83.185001 
L 174.364547 83.266212 
L 175.7364 83.347424 
L 175.859366 83.67227 
L 175.898175 83.753481 
L 176.068643 83.997115 
L 176.165415 84.078327 
L 176.413701 84.321961 
L 176.560559 84.403173 
L 176.723542 84.971653 
L 176.802324 85.052864 
L 176.941623 85.37771 
L 177.289156 86.027402 
L 177.40205 86.595882 
L 177.543404 86.677093 
L 177.665119 86.839516 
L 178.163694 86.920728 
L 178.281312 87.001939 
L 179.562358 87.083151 
L 179.663654 87.245573 
L 179.852848 87.326785 
L 180.155023 87.651631 
L 180.318393 87.732842 
L 180.382911 87.895265 
L 180.506973 87.976476 
L 180.622836 88.057688 
L 180.686312 88.138899 
L 181.697624 89.357071 
L 181.99355 89.438283 
L 182.109753 89.519494 
L 184.164527 89.600705 
L 184.264517 89.681917 
L 184.815709 90.250397 
L 184.916848 90.331608 
L 185.265364 90.41282 
L 185.30948 90.494031 
L 185.579523 90.575243 
L 186.010291 90.656454 
L 186.10032 90.818877 
L 186.142818 90.900089 
L 186.233273 90.9813 
L 186.518637 91.143723 
L 186.722523 91.224934 
L 186.876658 91.306146 
L 187.10683 91.387357 
L 187.789925 91.468569 
L 187.945411 91.630992 
L 188.296834 91.712203 
L 188.418174 91.874626 
L 188.655561 91.955837 
L 188.928807 92.11826 
L 189.580192 92.199472 
L 189.676813 92.280683 
L 190.170405 92.361895 
L 190.617139 92.524318 
L 191.283822 92.605529 
L 191.404562 92.849163 
L 191.657798 92.930375 
L 191.763856 93.255221 
L 191.870205 93.336432 
L 191.960751 93.498855 
L 192.146314 93.580066 
L 192.28863 93.742489 
L 192.674879 93.823701 
L 193.435479 94.148547 
L 193.505582 94.229758 
L 193.93582 94.310969 
L 194.232672 94.392181 
L 194.892069 94.473392 
L 195.280076 94.717027 
L 195.88542 94.798238 
L 196.357049 95.123084 
L 196.463055 95.285507 
L 196.682054 95.366718 
L 196.769189 95.529141 
L 197.419175 95.610353 
L 197.579286 95.691564 
L 197.941207 95.772775 
L 198.099425 95.853987 
L 198.672817 95.935198 
L 198.689022 96.01641 
L 199.471823 96.097621 
L 199.593007 96.178833 
L 201.632966 96.260044 
L 201.751572 96.341256 
L 203.446811 96.422467 
L 203.74244 96.58489 
L 204.388838 96.666101 
L 204.531391 96.747313 
L 212.269636 96.828524 
L 212.608947 96.909736 
L 289.076489 96.990947 
L 289.219083 97.072159 
L 290.171768 97.15337 
L 290.554843 97.315793 
L 291.2366 97.397004 
L 291.286211 97.478216 
L 293.710384 97.559427 
L 294.038519 97.803062 
L 296.103144 97.884273 
L 296.220821 97.965485 
L 299.774886 98.046696 
L 299.878862 98.127907 
L 312.422447 98.209119 
L 312.422447 98.209119 
" clip-path="url(#p97f2d08269)" style="fill: none; stroke: #000000; stroke-width: 1.5; stroke-linecap: square"/>
   </g>
   <g id="patch_3">
    <path d="M 44.103906 102.838171 
L 44.103906 13.505579 
" style="fill: none; stroke: #000000; stroke-width: 0.8; stroke-linejoin: miter; stroke-linecap: square"/>
   </g>
   <g id="patch_4">
    <path d="M 325.19952 102.838171 
L 325.19952 13.505579 
" style="fill: none; stroke: #000000; stroke-width: 0.8; stroke-linejoin: miter; stroke-linecap: square"/>
   </g>
   <g id="patch_5">
    <path d="M 44.103906 102.838171 
L 325.19952 102.838171 
" style="fill: none; stroke: #000000; stroke-width: 0.8; stroke-linejoin: miter; stroke-linecap: square"/>
   </g>
   <g id="patch_6">
    <path d="M 44.103906 13.505579 
L 325.19952 13.505579 
" style="fill: none; stroke: #000000; stroke-width: 0.8; stroke-linejoin: miter; stroke-linecap: square"/>
   </g>
  </g>
  <g id="axes_2">
   <g id="patch_7">
    <path d="M 44.103906 201.671244 
L 325.19952 201.671244 
L 325.19952 112.338651 
L 44.103906 112.338651 
z
" style="fill: #ffffff"/>
   </g>
   <g id="matplotlib.axis_3">
    <g id="xtick_6">
     <g id="line2d_10">
      <g>
       <use xlink:href="#m4d3dda1c57" x="56.88098" y="201.671244" style="stroke: #000000; stroke-width: 0.8"/>
      </g>
     </g>
    </g>
    <g id="xtick_7">
     <g id="line2d_11">
      <g>
       <use xlink:href="#m4d3dda1c57" x="119.066242" y="201.671244" style="stroke: #000000; stroke-width: 0.8"/>
      </g>
     </g>
    </g>
    <g id="xtick_8">
     <g id="line2d_12">
      <g>
       <use xlink:href="#m4d3dda1c57" x="181.251505" y="201.671244" style="stroke: #000000; stroke-width: 0.8"/>
      </g>
     </g>
    </g>
    <g id="xtick_9">
     <g id="line2d_13">
      <g>
       <use xlink:href="#m4d3dda1c57" x="243.436768" y="201.671244" style="stroke: #000000; stroke-width: 0.8"/>
      </g>
     </g>
    </g>
    <g id="xtick_10">
     <g id="line2d_14">
      <g>
       <use xlink:href="#m4d3dda1c57" x="305.622031" y="201.671244" style="stroke: #000000; stroke-width: 0.8"/>
      </g>
     </g>
    </g>
   </g>
   <g id="matplotlib.axis_4">
    <g id="ytick_4">
     <g id="line2d_15">
      <g>
       <use xlink:href="#m79c5b4da5b" x="44.103906" y="197.610672" style="stroke: #000000; stroke-width: 0.8"/>
      </g>
     </g>
     <g id="text_5">
      <!-- 0 -->
      <g transform="translate(30.741406 201.4095) scale(0.1 -0.1)">
       <use xlink:href="#DejaVuSans-13"/>
      </g>
     </g>
    </g>
    <g id="ytick_5">
     <g id="line2d_16">
      <g>
       <use xlink:href="#m79c5b4da5b" x="44.103906" y="157.004948" style="stroke: #000000; stroke-width: 0.8"/>
      </g>
     </g>
     <g id="text_6">
      <!-- 5 -->
      <g transform="translate(30.741406 160.803776) scale(0.1 -0.1)">
       <use xlink:href="#DejaVuSans-18"/>
      </g>
     </g>
    </g>
    <g id="ytick_6">
     <g id="line2d_17">
      <g>
       <use xlink:href="#m79c5b4da5b" x="44.103906" y="116.399224" style="stroke: #000000; stroke-width: 0.8"/>
      </g>
     </g>
     <g id="text_7">
      <!-- 10 -->
      <g transform="translate(24.378906 120.198052) scale(0.1 -0.1)">
       <use xlink:href="#DejaVuSans-14"/>
       <use xlink:href="#DejaVuSans-13" transform="translate(63.625 0)"/>
      </g>
     </g>
    </g>
    <g id="text_8">
     <!-- LacY -->
     <g transform="translate(17.976563 168.658073) rotate(-90) scale(0.1 -0.1)">
      <defs>
       <path id="DejaVuSans-2f" d="M 628 4666 
L 1259 4666 
L 1259 531 
L 3531 531 
L 3531 0 
L 628 0 
L 628 4666 
z
" transform="scale(0.015625)"/>
       <path id="DejaVuSans-3c" d="M -13 4666 
L 666 4666 
L 1959 2747 
L 3244 4666 
L 3922 4666 
L 2272 2222 
L 2272 0 
L 1638 0 
L 1638 2222 
L -13 4666 
z
" transform="scale(0.015625)"/>
      </defs>
      <use xlink:href="#DejaVuSans-2f"/>
      <use xlink:href="#DejaVuSans-44" transform="translate(55.71875 0)"/>
      <use xlink:href="#DejaVuSans-46" transform="translate(117 0)"/>
      <use xlink:href="#DejaVuSans-3c" transform="translate(171.984375 0)"/>
     </g>
    </g>
   </g>
   <g id="line2d_18">
    <path d="M 56.88098 116.399224 
L 56.90741 116.399224 
L 57.036605 132.641513 
L 57.124681 148.883803 
L 57.272879 148.883803 
L 57.29012 140.762658 
L 57.505039 148.883803 
L 57.643258 148.883803 
L 57.809523 165.126093 
L 58.10269 181.368382 
L 58.166623 197.610672 
L 59.657288 197.610672 
L 59.819626 189.489527 
L 59.861269 197.610672 
L 64.754751 197.610672 
L 65.069407 189.489527 
L 65.176534 197.610672 
L 82.223033 197.610672 
L 82.412443 189.489527 
L 84.159668 197.610672 
L 84.174112 189.489527 
L 84.313638 181.368382 
L 84.318173 173.247238 
L 84.632054 181.368382 
L 84.853185 181.368382 
L 84.969744 197.610672 
L 85.029001 189.489527 
L 85.214339 189.489527 
L 85.349266 197.610672 
L 89.141464 197.610672 
L 89.521246 181.368382 
L 89.522513 173.247238 
L 90.008335 173.247238 
L 90.04601 189.489527 
L 90.79831 189.489527 
L 90.962893 181.368382 
L 91.298336 197.610672 
L 107.866492 197.610672 
L 107.969473 189.489527 
L 108.086104 189.489527 
L 108.221624 197.610672 
L 108.450587 197.610672 
L 108.491006 189.489527 
L 108.89628 189.489527 
L 109.237219 181.368382 
L 109.294067 189.489527 
L 109.464833 189.489527 
L 109.493652 197.610672 
L 118.028347 197.610672 
L 118.202193 189.489527 
L 120.248567 189.489527 
L 122.048648 197.610672 
L 129.617419 197.610672 
L 129.798908 189.489527 
L 130.079094 189.489527 
L 130.184107 197.610672 
L 134.40872 197.610672 
L 134.490303 189.489527 
L 134.511608 197.610672 
L 144.24804 197.610672 
L 144.502197 181.368382 
L 144.522494 189.489527 
L 144.550758 181.368382 
L 144.660969 173.247238 
L 144.666173 181.368382 
L 145.235923 181.368382 
L 145.83728 189.489527 
L 146.076323 189.489527 
L 146.383505 181.368382 
L 146.493495 181.368382 
L 147.53793 197.610672 
L 147.986306 197.610672 
L 148.036857 181.368382 
L 148.135147 181.368382 
L 148.284062 189.489527 
L 148.414353 189.489527 
L 148.943345 197.610672 
L 153.930609 197.610672 
L 154.347915 189.489527 
L 154.591037 157.004948 
L 154.856471 157.004948 
L 154.976829 173.247238 
L 155.022091 173.247238 
L 155.120405 165.126093 
L 155.261317 165.126093 
L 155.370843 181.368382 
L 155.587955 181.368382 
L 155.699211 189.489527 
L 155.828279 173.247238 
L 155.877686 173.247238 
L 155.914613 165.126093 
L 155.974252 173.247238 
L 156.144376 173.247238 
L 156.256361 181.368382 
L 156.4673 181.368382 
L 156.569551 197.610672 
L 156.612542 197.610672 
L 156.751235 181.368382 
L 156.908686 181.368382 
L 157.015723 173.247238 
L 157.031542 173.247238 
L 157.157971 165.126093 
L 157.273702 165.126093 
L 157.382833 157.004948 
L 157.511178 157.004948 
L 157.616704 165.126093 
L 157.718738 157.004948 
L 157.72666 165.126093 
L 157.801121 165.126093 
L 157.906594 173.247238 
L 158.117453 173.247238 
L 158.218063 181.368382 
L 158.559321 181.368382 
L 158.703875 197.610672 
L 158.892856 197.610672 
L 159.030513 189.489527 
L 159.136599 189.489527 
L 159.276013 173.247238 
L 159.463374 173.247238 
L 159.582484 189.489527 
L 159.661265 189.489527 
L 159.808438 173.247238 
L 159.839019 181.368382 
L 159.868049 181.368382 
L 159.983401 173.247238 
L 160.060278 173.247238 
L 160.157692 181.368382 
L 160.316433 181.368382 
L 160.328711 173.247238 
L 160.419677 181.368382 
L 160.456158 181.368382 
L 160.544294 189.489527 
L 160.683511 181.368382 
L 160.949464 181.368382 
L 160.971714 173.247238 
L 160.976392 189.489527 
L 161.043707 189.489527 
L 161.538637 189.489527 
L 161.644198 181.368382 
L 161.853574 181.368382 
L 161.960187 173.247238 
L 162.109917 173.247238 
L 162.200971 165.126093 
L 162.213991 173.247238 
L 162.296808 173.247238 
L 162.373595 181.368382 
L 162.405912 173.247238 
L 162.444109 173.247238 
L 162.495731 181.368382 
L 162.554537 173.247238 
L 162.578378 173.247238 
L 162.686797 181.368382 
L 162.993614 181.368382 
L 163.110589 173.247238 
L 163.208714 173.247238 
L 163.25611 181.368382 
L 163.306349 173.247238 
L 163.496871 173.247238 
L 163.603627 165.126093 
L 163.638875 165.126093 
L 163.727877 173.247238 
L 163.765345 173.247238 
L 163.865967 189.489527 
L 164.070084 189.489527 
L 164.163054 181.368382 
L 164.356002 181.368382 
L 164.465477 197.610672 
L 164.678425 181.368382 
L 165.897738 181.368382 
L 166.002908 173.247238 
L 166.175641 173.247238 
L 166.299275 165.126093 
L 166.332352 165.126093 
L 166.378161 148.883803 
L 166.446157 157.004948 
L 166.484784 157.004948 
L 166.601295 173.247238 
L 166.667926 173.247238 
L 166.835 189.489527 
L 167.033606 189.489527 
L 167.139313 173.247238 
L 167.195613 173.247238 
L 167.319802 189.489527 
L 167.458631 189.489527 
L 167.570731 181.368382 
L 167.675083 181.368382 
L 167.681905 189.489527 
L 167.761723 181.368382 
L 167.839321 181.368382 
L 167.919578 197.610672 
L 168.091683 197.610672 
L 168.194974 189.489527 
L 168.282988 189.489527 
L 168.400807 173.247238 
L 168.41348 181.368382 
L 168.440539 181.368382 
L 168.549588 173.247238 
L 168.616996 173.247238 
L 168.712724 165.126093 
L 169.163642 165.126093 
L 169.274733 157.004948 
L 169.331685 157.004948 
L 169.462402 140.762658 
L 169.683283 140.762658 
L 169.775656 157.004948 
L 169.863333 157.004948 
L 169.972604 165.126093 
L 170.016702 165.126093 
L 170.127308 173.247238 
L 170.163391 173.247238 
L 170.184923 165.126093 
L 170.267489 173.247238 
L 170.345981 173.247238 
L 170.479949 181.368382 
L 170.645089 181.368382 
L 170.77732 173.247238 
L 170.863686 173.247238 
L 170.948656 181.368382 
L 170.959678 173.247238 
L 171.430942 173.247238 
L 171.532942 181.368382 
L 171.648777 181.368382 
L 171.77021 165.126093 
L 171.850027 165.126093 
L 171.959588 181.368382 
L 172.005432 181.368382 
L 172.121788 173.247238 
L 172.149769 181.368382 
L 172.197096 173.247238 
L 172.356439 173.247238 
L 172.389823 181.368382 
L 172.45421 173.247238 
L 172.803616 173.247238 
L 172.824436 165.126093 
L 172.909711 173.247238 
L 173.037842 173.247238 
L 173.050253 181.368382 
L 173.147745 173.247238 
L 173.266641 173.247238 
L 173.38769 189.489527 
L 173.931347 189.489527 
L 174.058317 173.247238 
L 174.168944 165.126093 
L 174.279421 181.368382 
L 174.312576 181.368382 
L 174.424595 197.610672 
L 174.947673 197.610672 
L 175.050302 189.489527 
L 175.155729 197.610672 
L 175.265319 189.489527 
L 175.365045 197.610672 
L 175.571787 197.610672 
L 175.784858 181.368382 
L 176.152753 181.368382 
L 176.259665 173.247238 
L 176.413701 173.247238 
L 176.424717 165.126093 
L 176.546677 165.126093 
L 176.629986 148.883803 
L 176.654588 157.004948 
L 176.662795 157.004948 
L 176.78026 148.883803 
L 176.899981 148.883803 
L 177.020593 157.004948 
L 177.109999 157.004948 
L 177.1997 165.126093 
L 177.228484 165.126093 
L 177.338903 157.004948 
L 177.428099 157.004948 
L 177.501183 148.883803 
L 177.526838 157.004948 
L 177.55244 157.004948 
L 177.665119 189.489527 
L 177.821425 189.489527 
L 177.943955 181.368382 
L 178.042417 181.368382 
L 178.163694 189.489527 
L 178.217301 189.489527 
L 178.281312 197.610672 
L 179.286314 197.610672 
L 179.413712 181.368382 
L 179.949368 181.368382 
L 180.050938 165.126093 
L 180.221052 157.004948 
L 180.247337 157.004948 
L 180.249153 165.126093 
L 180.35341 157.004948 
L 180.382911 157.004948 
L 180.601489 173.247238 
L 180.952999 173.247238 
L 181.08677 165.126093 
L 181.203239 165.126093 
L 181.348641 173.247238 
L 181.353696 165.126093 
L 181.419906 181.368382 
L 181.588396 181.368382 
L 181.697624 189.489527 
L 181.842138 189.489527 
L 181.865986 197.610672 
L 181.947557 189.489527 
L 182.258369 189.489527 
L 182.285469 197.610672 
L 182.474929 197.610672 
L 182.556193 181.368382 
L 182.667006 181.368382 
L 182.679885 189.489527 
L 182.884266 189.489527 
L 182.996673 197.610672 
L 183.541793 197.610672 
L 184.070182 189.489527 
L 184.18395 181.368382 
L 184.264517 189.489527 
L 184.373198 189.489527 
L 184.466598 165.126093 
L 184.628277 165.126093 
L 184.73318 173.247238 
L 185.127076 173.247238 
L 185.208656 189.489527 
L 185.30948 181.368382 
L 185.425935 181.368382 
L 185.464853 189.489527 
L 185.84619 189.489527 
L 185.940518 181.368382 
L 186.095921 165.126093 
L 186.10032 173.247238 
L 186.190935 173.247238 
L 186.339996 181.368382 
L 186.442397 181.368382 
L 186.618171 173.247238 
L 186.647375 173.247238 
L 186.671508 165.126093 
L 186.756478 173.247238 
L 186.864887 189.489527 
L 187.490438 189.489527 
L 187.621297 181.368382 
L 187.686751 189.489527 
L 187.70506 181.368382 
L 187.931887 181.368382 
L 187.986365 165.126093 
L 188.056702 165.126093 
L 188.140518 181.368382 
L 188.230493 181.368382 
L 188.334481 173.247238 
L 188.418174 173.247238 
L 188.544548 189.489527 
L 188.928807 189.489527 
L 189.221125 181.368382 
L 189.642047 181.368382 
L 189.671595 173.247238 
L 189.74786 189.489527 
L 190.015805 189.489527 
L 190.170405 181.368382 
L 190.313334 181.368382 
L 190.406356 189.489527 
L 190.503034 189.489527 
L 190.593155 181.368382 
L 190.596941 189.489527 
L 190.617139 189.489527 
L 190.738862 181.368382 
L 190.809685 189.489527 
L 190.909599 181.368382 
L 190.98915 181.368382 
L 191.048371 173.247238 
L 191.270393 189.489527 
L 191.281755 181.368382 
L 191.391636 157.004948 
L 191.548911 157.004948 
L 191.586071 165.126093 
L 191.60007 157.004948 
L 191.763856 148.883803 
L 191.935302 148.883803 
L 191.960751 140.762658 
L 192.034978 148.883803 
L 192.146314 157.004948 
L 192.199005 157.004948 
L 192.304357 181.368382 
L 192.481966 181.368382 
L 192.572575 189.489527 
L 192.674879 173.247238 
L 193.31645 173.247238 
L 193.447048 181.368382 
L 193.505582 181.368382 
L 193.623711 189.489527 
L 193.706083 181.368382 
L 193.773274 189.489527 
L 193.8865 189.489527 
L 193.93582 181.368382 
L 194.068277 181.368382 
L 194.232672 197.610672 
L 194.854789 197.610672 
L 194.976711 189.489527 
L 195.192944 189.489527 
L 195.267162 197.610672 
L 195.280076 189.489527 
L 195.454594 189.489527 
L 195.470029 173.247238 
L 195.586342 181.368382 
L 195.803609 181.368382 
L 195.88542 173.247238 
L 196.090581 173.247238 
L 196.128805 148.883803 
L 196.23822 157.004948 
L 196.319471 148.883803 
L 196.348536 157.004948 
L 196.358884 157.004948 
L 196.47584 148.883803 
L 196.578898 157.004948 
L 196.725885 173.247238 
L 196.822961 181.368382 
L 196.887836 181.368382 
L 196.90633 173.247238 
L 197.000267 181.368382 
L 197.231791 181.368382 
L 197.352287 173.247238 
L 197.498657 181.368382 
L 197.579286 181.368382 
L 197.72076 165.126093 
L 197.992901 157.004948 
L 198.045582 157.004948 
L 198.099425 140.762658 
L 198.129436 148.883803 
L 198.259224 148.883803 
L 198.384898 165.126093 
L 198.500282 148.883803 
L 198.520749 157.004948 
L 198.595193 157.004948 
L 198.689022 165.126093 
L 198.854891 165.126093 
L 198.87227 173.247238 
L 198.914586 165.126093 
L 198.969323 165.126093 
L 198.989469 173.247238 
L 199.027313 157.004948 
L 199.063211 165.126093 
L 199.237264 173.247238 
L 199.365154 173.247238 
L 199.505681 181.368382 
L 199.52293 181.368382 
L 199.593007 189.489527 
L 199.78343 173.247238 
L 199.812223 181.368382 
L 199.850615 189.489527 
L 199.862557 173.247238 
L 199.950979 173.247238 
L 200.141293 181.368382 
L 200.147876 189.489527 
L 200.336933 189.489527 
L 200.475006 181.368382 
L 200.607695 189.489527 
L 200.807466 189.489527 
L 201.249497 197.610672 
L 201.30586 189.489527 
L 201.487707 181.368382 
L 201.681087 165.126093 
L 201.775234 173.247238 
L 201.997577 173.247238 
L 202.033532 181.368382 
L 202.651734 181.368382 
L 202.946765 189.489527 
L 203.167531 181.368382 
L 203.239418 173.247238 
L 203.532631 165.126093 
L 203.6519 165.126093 
L 203.734908 157.004948 
L 203.74244 165.126093 
L 203.828158 165.126093 
L 204.025036 181.368382 
L 204.143277 173.247238 
L 204.256644 189.489527 
L 204.422195 189.489527 
L 204.531391 197.610672 
L 209.786583 197.610672 
L 209.873444 181.368382 
L 210.00614 189.489527 
L 210.373669 189.489527 
L 210.414206 197.610672 
L 211.078918 189.489527 
L 211.203945 189.489527 
L 211.786665 181.368382 
L 212.002666 181.368382 
L 212.123403 189.489527 
L 212.608947 189.489527 
L 213.857489 197.610672 
L 219.119041 197.610672 
L 219.24977 189.489527 
L 219.283189 197.610672 
L 231.787664 197.610672 
L 232.223299 189.489527 
L 232.316871 197.610672 
L 234.378747 197.610672 
L 234.997755 189.489527 
L 236.077678 189.489527 
L 236.856216 197.610672 
L 241.139616 197.610672 
L 241.19132 189.489527 
L 241.321053 197.610672 
L 258.692149 197.610672 
L 258.717646 189.489527 
L 258.827889 197.610672 
L 258.963237 197.610672 
L 259.048654 189.489527 
L 259.405502 189.489527 
L 259.657267 197.610672 
L 271.791537 197.610672 
L 271.951664 181.368382 
L 272.232787 173.247238 
L 272.347392 165.126093 
L 272.348912 173.247238 
L 272.425071 165.126093 
L 272.57709 165.126093 
L 272.584644 173.247238 
L 272.706024 181.368382 
L 273.585549 197.610672 
L 274.807232 197.610672 
L 275.106354 189.489527 
L 275.254361 189.489527 
L 275.337412 197.610672 
L 288.564495 197.610672 
L 288.797682 173.247238 
L 289.014439 197.610672 
L 289.146669 181.368382 
L 289.17928 189.489527 
L 289.264816 189.489527 
L 289.333225 181.368382 
L 289.580281 197.610672 
L 289.736025 173.247238 
L 289.750781 181.368382 
L 289.813348 181.368382 
L 289.887489 173.247238 
L 290.087115 173.247238 
L 290.100541 165.126093 
L 290.171768 173.247238 
L 290.317865 173.247238 
L 290.40273 181.368382 
L 290.466802 173.247238 
L 290.482539 181.368382 
L 290.527201 181.368382 
L 290.623749 173.247238 
L 290.731351 189.489527 
L 290.8669 181.368382 
L 290.945469 189.489527 
L 291.089915 189.489527 
L 291.240832 181.368382 
L 291.286211 189.489527 
L 291.571526 189.489527 
L 291.665987 181.368382 
L 291.808373 197.610672 
L 292.05361 197.610672 
L 292.215147 189.489527 
L 292.380089 189.489527 
L 292.777098 181.368382 
L 292.822709 173.247238 
L 292.849265 181.368382 
L 292.986081 181.368382 
L 293.077561 173.247238 
L 293.205523 181.368382 
L 293.473252 181.368382 
L 293.585237 173.247238 
L 293.696953 181.368382 
L 293.819092 173.247238 
L 293.822914 173.247238 
L 293.935241 165.126093 
L 294.036545 173.247238 
L 294.038519 165.126093 
L 294.094361 165.126093 
L 294.113413 157.004948 
L 294.172169 165.126093 
L 294.397613 181.368382 
L 294.441379 181.368382 
L 294.510018 173.247238 
L 294.718675 173.247238 
L 294.831419 181.368382 
L 294.863581 181.368382 
L 294.943648 197.610672 
L 295.00698 189.489527 
L 295.285168 189.489527 
L 295.542605 165.126093 
L 295.736142 181.368382 
L 295.898031 173.247238 
L 295.900878 165.126093 
L 296.166075 165.126093 
L 296.361235 181.368382 
L 296.604654 165.126093 
L 296.882911 189.489527 
L 297.044536 189.489527 
L 297.307313 181.368382 
L 297.446963 165.126093 
L 297.488137 165.126093 
L 297.659412 157.004948 
L 297.741294 165.126093 
L 298.007937 157.004948 
L 298.069269 173.247238 
L 298.078537 165.126093 
L 298.153197 173.247238 
L 298.407921 173.247238 
L 298.721621 181.368382 
L 298.901727 181.368382 
L 298.971827 189.489527 
L 299.019893 181.368382 
L 299.245659 181.368382 
L 299.324824 173.247238 
L 299.355938 181.368382 
L 299.52232 173.247238 
L 299.663782 173.247238 
L 299.723414 165.126093 
L 299.774886 173.247238 
L 299.807619 173.247238 
L 299.878862 165.126093 
L 299.958016 165.126093 
L 299.976535 181.368382 
L 300.141075 181.368382 
L 300.181039 189.489527 
L 300.514405 189.489527 
L 300.698161 197.610672 
L 302.141807 197.610672 
L 302.215787 189.489527 
L 302.449197 173.247238 
L 302.62058 173.247238 
L 302.722978 181.368382 
L 302.79186 181.368382 
L 302.853031 189.489527 
L 302.981831 189.489527 
L 303.205467 181.368382 
L 303.362603 189.489527 
L 303.502738 181.368382 
L 303.545804 189.489527 
L 303.778551 181.368382 
L 304.072279 189.489527 
L 304.220882 181.368382 
L 304.440122 189.489527 
L 304.657906 197.610672 
L 312.422447 197.610672 
L 312.422447 197.610672 
" clip-path="url(#p7ca2757489)" style="fill: none; stroke: #000000; stroke-width: 1.5; stroke-linecap: square"/>
   </g>
   <g id="patch_8">
    <path d="M 44.103906 201.671244 
L 44.103906 112.338651 
" style="fill: none; stroke: #000000; stroke-width: 0.8; stroke-linejoin: miter; stroke-linecap: square"/>
   </g>
   <g id="patch_9">
    <path d="M 325.19952 201.671244 
L 325.19952 112.338651 
" style="fill: none; stroke: #000000; stroke-width: 0.8; stroke-linejoin: miter; stroke-linecap: square"/>
   </g>
   <g id="patch_10">
    <path d="M 44.103906 201.671244 
L 325.19952 201.671244 
" style="fill: none; stroke: #000000; stroke-width: 0.8; stroke-linejoin: miter; stroke-linecap: square"/>
   </g>
   <g id="patch_11">
    <path d="M 44.103906 112.338651 
L 325.19952 112.338651 
" style="fill: none; stroke: #000000; stroke-width: 0.8; stroke-linejoin: miter; stroke-linecap: square"/>
   </g>
  </g>
  <g id="axes_3">
   <g id="patch_12">
    <path d="M 44.103906 300.504317 
L 325.19952 300.504317 
L 325.19952 211.171724 
L 44.103906 211.171724 
z
" style="fill: #ffffff"/>
   </g>
   <g id="matplotlib.axis_5">
    <g id="xtick_11">
     <g id="line2d_19">
      <g>
       <use xlink:href="#m4d3dda1c57" x="56.88098" y="300.504317" style="stroke: #000000; stroke-width: 0.8"/>
      </g>
     </g>
     <g id="text_9">
      <!-- 0 -->
      <g transform="translate(53.69973 315.101974) scale(0.1 -0.1)">
       <use xlink:href="#DejaVuSans-13"/>
      </g>
     </g>
    </g>
    <g id="xtick_12">
     <g id="line2d_20">
      <g>
       <use xlink:href="#m4d3dda1c57" x="119.066242" y="300.504317" style="stroke: #000000; stroke-width: 0.8"/>
      </g>
     </g>
     <g id="text_10">
      <!-- 200 -->
      <g transform="translate(109.522492 315.101974) scale(0.1 -0.1)">
       <defs>
        <path id="DejaVuSans-15" d="M 1228 531 
L 3431 531 
L 3431 0 
L 469 0 
L 469 531 
Q 828 903 1448 1529 
Q 2069 2156 2228 2338 
Q 2531 2678 2651 2914 
Q 2772 3150 2772 3378 
Q 2772 3750 2511 3984 
Q 2250 4219 1831 4219 
Q 1534 4219 1204 4116 
Q 875 4013 500 3803 
L 500 4441 
Q 881 4594 1212 4672 
Q 1544 4750 1819 4750 
Q 2544 4750 2975 4387 
Q 3406 4025 3406 3419 
Q 3406 3131 3298 2873 
Q 3191 2616 2906 2266 
Q 2828 2175 2409 1742 
Q 1991 1309 1228 531 
z
" transform="scale(0.015625)"/>
       </defs>
       <use xlink:href="#DejaVuSans-15"/>
       <use xlink:href="#DejaVuSans-13" transform="translate(63.625 0)"/>
       <use xlink:href="#DejaVuSans-13" transform="translate(127.25 0)"/>
      </g>
     </g>
    </g>
    <g id="xtick_13">
     <g id="line2d_21">
      <g>
       <use xlink:href="#m4d3dda1c57" x="181.251505" y="300.504317" style="stroke: #000000; stroke-width: 0.8"/>
      </g>
     </g>
     <g id="text_11">
      <!-- 400 -->
      <g transform="translate(171.707755 315.101974) scale(0.1 -0.1)">
       <defs>
        <path id="DejaVuSans-17" d="M 2419 4116 
L 825 1625 
L 2419 1625 
L 2419 4116 
z
M 2253 4666 
L 3047 4666 
L 3047 1625 
L 3713 1625 
L 3713 1100 
L 3047 1100 
L 3047 0 
L 2419 0 
L 2419 1100 
L 313 1100 
L 313 1709 
L 2253 4666 
z
" transform="scale(0.015625)"/>
       </defs>
       <use xlink:href="#DejaVuSans-17"/>
       <use xlink:href="#DejaVuSans-13" transform="translate(63.625 0)"/>
       <use xlink:href="#DejaVuSans-13" transform="translate(127.25 0)"/>
      </g>
     </g>
    </g>
    <g id="xtick_14">
     <g id="line2d_22">
      <g>
       <use xlink:href="#m4d3dda1c57" x="243.436768" y="300.504317" style="stroke: #000000; stroke-width: 0.8"/>
      </g>
     </g>
     <g id="text_12">
      <!-- 600 -->
      <g transform="translate(233.893018 315.101974) scale(0.1 -0.1)">
       <defs>
        <path id="DejaVuSans-19" d="M 2113 2584 
Q 1688 2584 1439 2293 
Q 1191 2003 1191 1497 
Q 1191 994 1439 701 
Q 1688 409 2113 409 
Q 2538 409 2786 701 
Q 3034 994 3034 1497 
Q 3034 2003 2786 2293 
Q 2538 2584 2113 2584 
z
M 3366 4563 
L 3366 3988 
Q 3128 4100 2886 4159 
Q 2644 4219 2406 4219 
Q 1781 4219 1451 3797 
Q 1122 3375 1075 2522 
Q 1259 2794 1537 2939 
Q 1816 3084 2150 3084 
Q 2853 3084 3261 2657 
Q 3669 2231 3669 1497 
Q 3669 778 3244 343 
Q 2819 -91 2113 -91 
Q 1303 -91 875 529 
Q 447 1150 447 2328 
Q 447 3434 972 4092 
Q 1497 4750 2381 4750 
Q 2619 4750 2861 4703 
Q 3103 4656 3366 4563 
z
" transform="scale(0.015625)"/>
       </defs>
       <use xlink:href="#DejaVuSans-19"/>
       <use xlink:href="#DejaVuSans-13" transform="translate(63.625 0)"/>
       <use xlink:href="#DejaVuSans-13" transform="translate(127.25 0)"/>
      </g>
     </g>
    </g>
    <g id="xtick_15">
     <g id="line2d_23">
      <g>
       <use xlink:href="#m4d3dda1c57" x="305.622031" y="300.504317" style="stroke: #000000; stroke-width: 0.8"/>
      </g>
     </g>
     <g id="text_13">
      <!-- 800 -->
      <g transform="translate(296.078281 315.101974) scale(0.1 -0.1)">
       <defs>
        <path id="DejaVuSans-1b" d="M 2034 2216 
Q 1584 2216 1326 1975 
Q 1069 1734 1069 1313 
Q 1069 891 1326 650 
Q 1584 409 2034 409 
Q 2484 409 2743 651 
Q 3003 894 3003 1313 
Q 3003 1734 2745 1975 
Q 2488 2216 2034 2216 
z
M 1403 2484 
Q 997 2584 770 2862 
Q 544 3141 544 3541 
Q 544 4100 942 4425 
Q 1341 4750 2034 4750 
Q 2731 4750 3128 4425 
Q 3525 4100 3525 3541 
Q 3525 3141 3298 2862 
Q 3072 2584 2669 2484 
Q 3125 2378 3379 2068 
Q 3634 1759 3634 1313 
Q 3634 634 3220 271 
Q 2806 -91 2034 -91 
Q 1263 -91 848 271 
Q 434 634 434 1313 
Q 434 1759 690 2068 
Q 947 2378 1403 2484 
z
M 1172 3481 
Q 1172 3119 1398 2916 
Q 1625 2713 2034 2713 
Q 2441 2713 2670 2916 
Q 2900 3119 2900 3481 
Q 2900 3844 2670 4047 
Q 2441 4250 2034 4250 
Q 1625 4250 1398 4047 
Q 1172 3844 1172 3481 
z
" transform="scale(0.015625)"/>
       </defs>
       <use xlink:href="#DejaVuSans-1b"/>
       <use xlink:href="#DejaVuSans-13" transform="translate(63.625 0)"/>
       <use xlink:href="#DejaVuSans-13" transform="translate(127.25 0)"/>
      </g>
     </g>
    </g>
    <g id="text_14">
     <!-- Time -->
     <g transform="translate(172.415776 329.102755) scale(0.1 -0.1)">
      <defs>
       <path id="DejaVuSans-37" d="M -19 4666 
L 3928 4666 
L 3928 4134 
L 2272 4134 
L 2272 0 
L 1638 0 
L 1638 4134 
L -19 4134 
L -19 4666 
z
" transform="scale(0.015625)"/>
       <path id="DejaVuSans-4c" d="M 603 3500 
L 1178 3500 
L 1178 0 
L 603 0 
L 603 3500 
z
M 603 4863 
L 1178 4863 
L 1178 4134 
L 603 4134 
L 603 4863 
z
" transform="scale(0.015625)"/>
       <path id="DejaVuSans-50" d="M 3328 2828 
Q 3544 3216 3844 3400 
Q 4144 3584 4550 3584 
Q 5097 3584 5394 3201 
Q 5691 2819 5691 2113 
L 5691 0 
L 5113 0 
L 5113 2094 
Q 5113 2597 4934 2840 
Q 4756 3084 4391 3084 
Q 3944 3084 3684 2787 
Q 3425 2491 3425 1978 
L 3425 0 
L 2847 0 
L 2847 2094 
Q 2847 2600 2669 2842 
Q 2491 3084 2119 3084 
Q 1678 3084 1418 2786 
Q 1159 2488 1159 1978 
L 1159 0 
L 581 0 
L 581 3500 
L 1159 3500 
L 1159 2956 
Q 1356 3278 1631 3431 
Q 1906 3584 2284 3584 
Q 2666 3584 2933 3390 
Q 3200 3197 3328 2828 
z
" transform="scale(0.015625)"/>
      </defs>
      <use xlink:href="#DejaVuSans-37"/>
      <use xlink:href="#DejaVuSans-4c" transform="translate(58 0)"/>
      <use xlink:href="#DejaVuSans-50" transform="translate(85.78125 0)"/>
      <use xlink:href="#DejaVuSans-48" transform="translate(183.1875 0)"/>
     </g>
    </g>
   </g>
   <g id="matplotlib.axis_6">
    <g id="ytick_7">
     <g id="line2d_24">
      <g>
       <use xlink:href="#m79c5b4da5b" x="44.103906" y="296.443745" style="stroke: #000000; stroke-width: 0.8"/>
      </g>
     </g>
     <g id="text_15">
      <!-- 0.0 -->
      <g transform="translate(21.200781 300.242573) scale(0.1 -0.1)">
       <defs>
        <path id="DejaVuSans-11" d="M 684 794 
L 1344 794 
L 1344 0 
L 684 0 
L 684 794 
z
" transform="scale(0.015625)"/>
       </defs>
       <use xlink:href="#DejaVuSans-13"/>
       <use xlink:href="#DejaVuSans-11" transform="translate(63.625 0)"/>
       <use xlink:href="#DejaVuSans-13" transform="translate(95.40625 0)"/>
      </g>
     </g>
    </g>
    <g id="ytick_8">
     <g id="line2d_25">
      <g>
       <use xlink:href="#m79c5b4da5b" x="44.103906" y="255.838021" style="stroke: #000000; stroke-width: 0.8"/>
      </g>
     </g>
     <g id="text_16">
      <!-- 0.5 -->
      <g transform="translate(21.200781 259.636849) scale(0.1 -0.1)">
       <use xlink:href="#DejaVuSans-13"/>
       <use xlink:href="#DejaVuSans-11" transform="translate(63.625 0)"/>
       <use xlink:href="#DejaVuSans-18" transform="translate(95.40625 0)"/>
      </g>
     </g>
    </g>
    <g id="ytick_9">
     <g id="line2d_26">
      <g>
       <use xlink:href="#m79c5b4da5b" x="44.103906" y="215.232297" style="stroke: #000000; stroke-width: 0.8"/>
      </g>
     </g>
     <g id="text_17">
      <!-- 1.0 -->
      <g transform="translate(21.200781 219.031125) scale(0.1 -0.1)">
       <use xlink:href="#DejaVuSans-14"/>
       <use xlink:href="#DejaVuSans-11" transform="translate(63.625 0)"/>
       <use xlink:href="#DejaVuSans-13" transform="translate(95.40625 0)"/>
      </g>
     </g>
    </g>
    <g id="text_18">
     <!-- Free lac operon -->
     <g transform="translate(14.798438 294.31224) rotate(-90) scale(0.1 -0.1)">
      <defs>
       <path id="DejaVuSans-29" d="M 628 4666 
L 3309 4666 
L 3309 4134 
L 1259 4134 
L 1259 2759 
L 3109 2759 
L 3109 2228 
L 1259 2228 
L 1259 0 
L 628 0 
L 628 4666 
z
" transform="scale(0.015625)"/>
       <path id="DejaVuSans-53" d="M 1159 525 
L 1159 -1331 
L 581 -1331 
L 581 3500 
L 1159 3500 
L 1159 2969 
Q 1341 3281 1617 3432 
Q 1894 3584 2278 3584 
Q 2916 3584 3314 3078 
Q 3713 2572 3713 1747 
Q 3713 922 3314 415 
Q 2916 -91 2278 -91 
Q 1894 -91 1617 61 
Q 1341 213 1159 525 
z
M 3116 1747 
Q 3116 2381 2855 2742 
Q 2594 3103 2138 3103 
Q 1681 3103 1420 2742 
Q 1159 2381 1159 1747 
Q 1159 1113 1420 752 
Q 1681 391 2138 391 
Q 2594 391 2855 752 
Q 3116 1113 3116 1747 
z
" transform="scale(0.015625)"/>
       <path id="DejaVuSans-51" d="M 3513 2113 
L 3513 0 
L 2938 0 
L 2938 2094 
Q 2938 2591 2744 2837 
Q 2550 3084 2163 3084 
Q 1697 3084 1428 2787 
Q 1159 2491 1159 1978 
L 1159 0 
L 581 0 
L 581 3500 
L 1159 3500 
L 1159 2956 
Q 1366 3272 1645 3428 
Q 1925 3584 2291 3584 
Q 2894 3584 3203 3211 
Q 3513 2838 3513 2113 
z
" transform="scale(0.015625)"/>
      </defs>
      <use xlink:href="#DejaVuSans-29"/>
      <use xlink:href="#DejaVuSans-55" transform="translate(50.234375 0)"/>
      <use xlink:href="#DejaVuSans-48" transform="translate(89.140625 0)"/>
      <use xlink:href="#DejaVuSans-48" transform="translate(150.671875 0)"/>
      <use xlink:href="#DejaVuSans-3" transform="translate(212.203125 0)"/>
      <use xlink:href="#DejaVuSans-4f" transform="translate(243.984375 0)"/>
      <use xlink:href="#DejaVuSans-44" transform="translate(271.765625 0)"/>
      <use xlink:href="#DejaVuSans-46" transform="translate(333.046875 0)"/>
      <use xlink:href="#DejaVuSans-3" transform="translate(388.03125 0)"/>
      <use xlink:href="#DejaVuSans-52" transform="translate(419.8125 0)"/>
      <use xlink:href="#DejaVuSans-53" transform="translate(481 0)"/>
      <use xlink:href="#DejaVuSans-48" transform="translate(544.484375 0)"/>
      <use xlink:href="#DejaVuSans-55" transform="translate(606.015625 0)"/>
      <use xlink:href="#DejaVuSans-52" transform="translate(644.921875 0)"/>
      <use xlink:href="#DejaVuSans-51" transform="translate(706.109375 0)"/>
     </g>
    </g>
   </g>
   <g id="line2d_27">
    <path d="M 56.88098 215.232297 
L 56.960504 296.443745 
L 57.124681 296.443745 
L 57.29012 215.232297 
L 57.405402 215.232297 
L 57.505039 296.443745 
L 58.691615 296.443745 
L 59.657288 215.232297 
L 59.83908 215.232297 
L 59.861269 296.443745 
L 62.223587 296.443745 
L 64.754751 215.232297 
L 65.042446 215.232297 
L 65.176534 296.443745 
L 65.299333 296.443745 
L 71.79907 215.232297 
L 71.964714 296.443745 
L 79.612866 215.232297 
L 79.660705 296.443745 
L 82.223033 215.232297 
L 82.359604 215.232297 
L 82.412443 296.443745 
L 84.110277 296.443745 
L 84.174112 215.232297 
L 85.029001 215.232297 
L 85.214339 296.443745 
L 86.221955 296.443745 
L 89.141464 215.232297 
L 89.66828 215.232297 
L 89.696844 296.443745 
L 90.04601 296.443745 
L 90.905874 215.232297 
L 90.962893 296.443745 
L 91.298336 296.443745 
L 107.956106 215.232297 
L 107.969473 296.443745 
L 108.221624 296.443745 
L 108.491006 215.232297 
L 108.77134 296.443745 
L 108.89628 215.232297 
L 109.294067 215.232297 
L 109.493652 296.443745 
L 109.779142 296.443745 
L 113.83958 215.232297 
L 114.48406 296.443745 
L 116.085964 215.232297 
L 116.393491 296.443745 
L 117.04948 215.232297 
L 117.13467 296.443745 
L 118.119359 215.232297 
L 118.202193 296.443745 
L 122.048648 296.443745 
L 127.920374 215.232297 
L 128.023732 296.443745 
L 129.723417 215.232297 
L 130.16319 215.232297 
L 130.184107 296.443745 
L 131.979414 296.443745 
L 134.511608 215.232297 
L 134.524589 296.443745 
L 137.335223 215.232297 
L 137.37691 296.443745 
L 144.24804 215.232297 
L 145.16928 215.232297 
L 145.235923 296.443745 
L 145.83728 296.443745 
L 146.076323 215.232297 
L 146.383505 215.232297 
L 146.493495 296.443745 
L 147.53793 296.443745 
L 148.036857 215.232297 
L 148.135147 296.443745 
L 149.228834 296.443745 
L 149.239878 215.232297 
L 149.397465 296.443745 
L 153.600627 215.232297 
L 153.687386 296.443745 
L 153.930609 215.232297 
L 204.52626 215.232297 
L 204.531391 296.443745 
L 207.340665 296.443745 
L 209.873444 215.232297 
L 212.123403 215.232297 
L 212.269636 296.443745 
L 214.443423 296.443745 
L 216.076204 215.232297 
L 216.129491 296.443745 
L 219.190781 215.232297 
L 219.283189 296.443745 
L 219.895188 296.443745 
L 223.780039 215.232297 
L 223.987147 296.443745 
L 224.298475 215.232297 
L 224.3614 296.443745 
L 231.787664 215.232297 
L 232.311078 215.232297 
L 232.316871 296.443745 
L 232.817817 296.443745 
L 234.378747 215.232297 
L 234.914136 215.232297 
L 234.997755 296.443745 
L 236.014533 296.443745 
L 236.072514 215.232297 
L 236.077678 296.443745 
L 236.856216 296.443745 
L 241.19132 215.232297 
L 241.282971 215.232297 
L 241.321053 296.443745 
L 242.477628 296.443745 
L 258.717646 215.232297 
L 258.821087 215.232297 
L 258.827889 296.443745 
L 259.048654 215.232297 
L 259.405502 296.443745 
L 259.657267 296.443745 
L 265.470823 215.232297 
L 265.491344 296.443745 
L 271.850944 215.232297 
L 272.472262 215.232297 
L 272.584644 296.443745 
L 273.585549 296.443745 
L 274.807232 215.232297 
L 275.013293 215.232297 
L 275.106354 296.443745 
L 275.262746 215.232297 
L 275.337412 296.443745 
L 275.946915 215.232297 
L 276.258821 296.443745 
L 282.206476 215.232297 
L 282.441509 296.443745 
L 286.783848 215.232297 
L 286.803828 296.443745 
L 288.635795 215.232297 
L 299.878862 215.232297 
L 299.976535 296.443745 
L 300.698161 296.443745 
L 302.215787 215.232297 
L 304.356734 215.232297 
L 304.440122 296.443745 
L 305.157554 296.443745 
L 305.326461 215.232297 
L 305.359104 296.443745 
L 312.422447 215.232297 
L 312.422447 215.232297 
" clip-path="url(#p565c8d344f)" style="fill: none; stroke: #000000; stroke-width: 1.5; stroke-linecap: square"/>
   </g>
   <g id="patch_13">
    <path d="M 44.103906 300.504317 
L 44.103906 211.171724 
" style="fill: none; stroke: #000000; stroke-width: 0.8; stroke-linejoin: miter; stroke-linecap: square"/>
   </g>
   <g id="patch_14">
    <path d="M 325.19952 300.504317 
L 325.19952 211.171724 
" style="fill: none; stroke: #000000; stroke-width: 0.8; stroke-linejoin: miter; stroke-linecap: square"/>
   </g>
   <g id="patch_15">
    <path d="M 44.103906 300.504317 
L 325.19952 300.504317 
" style="fill: none; stroke: #000000; stroke-width: 0.8; stroke-linejoin: miter; stroke-linecap: square"/>
   </g>
   <g id="patch_16">
    <path d="M 44.103906 211.171724 
L 325.19952 211.171724 
" style="fill: none; stroke: #000000; stroke-width: 0.8; stroke-linejoin: miter; stroke-linecap: square"/>
   </g>
  </g>
 </g>
 <defs>
  <clipPath id="p97f2d08269">
   <rect x="44.103906" y="13.505579" width="281.095614" height="89.332593"/>
  </clipPath>
  <clipPath id="p7ca2757489">
   <rect x="44.103906" y="112.338651" width="281.095614" height="89.332593"/>
  </clipPath>
  <clipPath id="p565c8d344f">
   <rect x="44.103906" y="211.171724" width="281.095614" height="89.332593"/>
  </clipPath>
 </defs>
</svg>
