<?xml version="1.0" encoding="utf-8" standalone="no"?>
<!DOCTYPE svg PUBLIC "-//W3C//DTD SVG 1.1//EN"
  "http://www.w3.org/Graphics/SVG/1.1/DTD/svg11.dtd">
<svg xmlns:xlink="http://www.w3.org/1999/xlink" width="332.39952pt" height="332.39952pt" viewBox="0 0 332.39952 332.39952" xmlns="http://www.w3.org/2000/svg" version="1.1">
 <metadata>
  <rdf:RDF xmlns:dc="http://purl.org/dc/elements/1.1/" xmlns:cc="http://creativecommons.org/ns#" xmlns:rdf="http://www.w3.org/1999/02/22-rdf-syntax-ns#">
   <cc:Work>
    <dc:type rdf:resource="http://purl.org/dc/dcmitype/StillImage"/>
    <dc:date>2026-07-10T16:32:24.340109</dc:date>
    <dc:format>image/svg+xml</dc:format>
    <dc:creator>
     <cc:Agent>
      <dc:title>Matplotlib v3.11.0, https://matplotlib.org/</dc:title>
     </cc:Agent>
    </dc:creator>
   </cc:Work>
  </rdf:RDF>
 </metadata>
 <defs>
  <style type="text/css">*{stroke-linejoin: round; stroke-linecap: butt}</style>
 </defs>
 <g id="figure_1">
  <g id="patch_1">
   <path d="M 0 332.39952 
L 332.39952 332.39952 
L 332.39952 0 
L 0 0 
z
" style="fill: #ffffff"/>
  </g>
  <g id="axes_1">
   <g id="patch_2">
    <path d="M 44.103906 96.532593 
L 325.19952 96.532593 
L 325.19952 7.2 
L 44.103906 7.2 
z
" style="fill: #ffffff"/>
   </g>
   <g id="matplotlib.axis_1">
    <g id="xtick_1">
     <g id="line2d_1">
      <defs>
       <path id="m15b3778bb3" d="M 0 0 
L 0 3.5 
" style="stroke: #000000; stroke-width: 0.8"/>
      </defs>
      <g>
       <use xlink:href="#m15b3778bb3" x="56.88098" y="96.532593" style="stroke: #000000; stroke-width: 0.8"/>
      </g>
     </g>
    </g>
    <g id="xtick_2">
     <g id="line2d_2">
      <g>
       <use xlink:href="#m15b3778bb3" x="88.18305" y="96.532593" style="stroke: #000000; stroke-width: 0.8"/>
      </g>
     </g>
    </g>
    <g id="xtick_3">
     <g id="line2d_3">
      <g>
       <use xlink:href="#m15b3778bb3" x="119.485121" y="96.532593" style="stroke: #000000; stroke-width: 0.8"/>
      </g>
     </g>
    </g>
    <g id="xtick_4">
     <g id="line2d_4">
      <g>
       <use xlink:href="#m15b3778bb3" x="150.787192" y="96.532593" style="stroke: #000000; stroke-width: 0.8"/>
      </g>
     </g>
    </g>
    <g id="xtick_5">
     <g id="line2d_5">
      <g>
       <use xlink:href="#m15b3778bb3" x="182.089263" y="96.532593" style="stroke: #000000; stroke-width: 0.8"/>
      </g>
     </g>
    </g>
    <g id="xtick_6">
     <g id="line2d_6">
      <g>
       <use xlink:href="#m15b3778bb3" x="213.391334" y="96.532593" style="stroke: #000000; stroke-width: 0.8"/>
      </g>
     </g>
    </g>
    <g id="xtick_7">
     <g id="line2d_7">
      <g>
       <use xlink:href="#m15b3778bb3" x="244.693405" y="96.532593" style="stroke: #000000; stroke-width: 0.8"/>
      </g>
     </g>
    </g>
    <g id="xtick_8">
     <g id="line2d_8">
      <g>
       <use xlink:href="#m15b3778bb3" x="275.995476" y="96.532593" style="stroke: #000000; stroke-width: 0.8"/>
      </g>
     </g>
    </g>
    <g id="xtick_9">
     <g id="line2d_9">
      <g>
       <use xlink:href="#m15b3778bb3" x="307.297547" y="96.532593" style="stroke: #000000; stroke-width: 0.8"/>
      </g>
     </g>
    </g>
   </g>
   <g id="matplotlib.axis_2">
    <g id="ytick_1">
     <g id="line2d_10">
      <defs>
       <path id="m653be76dea" d="M 0 0 
L -3.5 0 
" style="stroke: #000000; stroke-width: 0.8"/>
      </defs>
      <g>
       <use xlink:href="#m653be76dea" x="44.103906" y="92.472021" style="stroke: #000000; stroke-width: 0.8"/>
      </g>
     </g>
     <g id="text_1">
      <!-- 0 -->
      <g transform="translate(30.741406 96.270849) scale(0.1 -0.1)">
       <defs>
        <path id="DejaVuSans-13" d="M 2034 4250 
Q 1547 4250 1301 3770 
Q 1056 3291 1056 2328 
Q 1056 1369 1301 889 
Q 1547 409 2034 409 
Q 2525 409 2770 889 
Q 3016 1369 3016 2328 
Q 3016 3291 2770 3770 
Q 2525 4250 2034 4250 
z
M 2034 4750 
Q 2819 4750 3233 4129 
Q 3647 3509 3647 2328 
Q 3647 1150 3233 529 
Q 2819 -91 2034 -91 
Q 1250 -91 836 529 
Q 422 1150 422 2328 
Q 422 3509 836 4129 
Q 1250 4750 2034 4750 
z
" transform="scale(0.015625)"/>
       </defs>
       <use xlink:href="#DejaVuSans-13"/>
      </g>
     </g>
    </g>
    <g id="ytick_2">
     <g id="line2d_11">
      <g>
       <use xlink:href="#m653be76dea" x="44.103906" y="51.866296" style="stroke: #000000; stroke-width: 0.8"/>
      </g>
     </g>
     <g id="text_2">
      <!-- 5 -->
      <g transform="translate(30.741406 55.665125) scale(0.1 -0.1)">
       <defs>
        <path id="DejaVuSans-18" d="M 691 4666 
L 3169 4666 
L 3169 4134 
L 1269 4134 
L 1269 2991 
Q 1406 3038 1543 3061 
Q 1681 3084 1819 3084 
Q 2600 3084 3056 2656 
Q 3513 2228 3513 1497 
Q 3513 744 3044 326 
Q 2575 -91 1722 -91 
Q 1428 -91 1123 -41 
Q 819 9 494 109 
L 494 744 
Q 775 591 1075 516 
Q 1375 441 1709 441 
Q 2250 441 2565 725 
Q 2881 1009 2881 1497 
Q 2881 1984 2565 2268 
Q 2250 2553 1709 2553 
Q 1456 2553 1204 2497 
Q 953 2441 691 2322 
L 691 4666 
z
" transform="scale(0.015625)"/>
       </defs>
       <use xlink:href="#DejaVuSans-18"/>
      </g>
     </g>
    </g>
    <g id="ytick_3">
     <g id="line2d_12">
      <g>
       <use xlink:href="#m653be76dea" x="44.103906" y="11.260572" style="stroke: #000000; stroke-width: 0.8"/>
      </g>
     </g>
     <g id="text_3">
      <!-- 10 -->
      <g transform="translate(24.378906 15.059401) scale(0.1 -0.1)">
       <defs>
        <path id="DejaVuSans-14" d="M 794 531 
L 1825 531 
L 1825 4091 
L 703 3866 
L 703 4441 
L 1819 4666 
L 2450 4666 
L 2450 531 
L 3481 531 
L 3481 0 
L 794 0 
L 794 531 
z
" transform="scale(0.015625)"/>
       </defs>
       <use xlink:href="#DejaVuSans-14"/>
       <use xlink:href="#DejaVuSans-13" transform="translate(63.625 0)"/>
      </g>
     </g>
    </g>
    <g id="text_4">
     <!-- Extracellular lactose -->
     <g transform="translate(17.976563 102.838171) rotate(-90) scale(0.1 -0.1)">
      <defs>
       <path id="DejaVuSans-28" d="M 628 4666 
L 3578 4666 
L 3578 4134 
L 1259 4134 
L 1259 2753 
L 3481 2753 
L 3481 2222 
L 1259 2222 
L 1259 531 
L 3634 531 
L 3634 0 
L 628 0 
L 628 4666 
z
" transform="scale(0.015625)"/>
       <path id="DejaVuSans-5b" d="M 3513 3500 
L 2247 1797 
L 3578 0 
L 2900 0 
L 1881 1375 
L 863 0 
L 184 0 
L 1544 1831 
L 300 3500 
L 978 3500 
L 1906 2253 
L 2834 3500 
L 3513 3500 
z
" transform="scale(0.015625)"/>
       <path id="DejaVuSans-57" d="M 1172 4494 
L 1172 3500 
L 2356 3500 
L 2356 3053 
L 1172 3053 
L 1172 1153 
Q 1172 725 1289 603 
Q 1406 481 1766 481 
L 2356 481 
L 2356 0 
L 1766 0 
Q 1100 0 847 248 
Q 594 497 594 1153 
L 594 3053 
L 172 3053 
L 172 3500 
L 594 3500 
L 594 4494 
L 1172 4494 
z
" transform="scale(0.015625)"/>
       <path id="DejaVuSans-55" d="M 2631 2963 
Q 2534 3019 2420 3045 
Q 2306 3072 2169 3072 
Q 1681 3072 1420 2755 
Q 1159 2438 1159 1844 
L 1159 0 
L 581 0 
L 581 3500 
L 1159 3500 
L 1159 2956 
Q 1341 3275 1631 3429 
Q 1922 3584 2338 3584 
Q 2397 3584 2469 3576 
Q 2541 3569 2628 3553 
L 2631 2963 
z
" transform="scale(0.015625)"/>
       <path id="DejaVuSans-44" d="M 2194 1759 
Q 1497 1759 1228 1600 
Q 959 1441 959 1056 
Q 959 750 1161 570 
Q 1363 391 1709 391 
Q 2188 391 2477 730 
Q 2766 1069 2766 1631 
L 2766 1759 
L 2194 1759 
z
M 3341 1997 
L 3341 0 
L 2766 0 
L 2766 531 
Q 2569 213 2275 61 
Q 1981 -91 1556 -91 
Q 1019 -91 701 211 
Q 384 513 384 1019 
Q 384 1609 779 1909 
Q 1175 2209 1959 2209 
L 2766 2209 
L 2766 2266 
Q 2766 2663 2505 2880 
Q 2244 3097 1772 3097 
Q 1472 3097 1187 3025 
Q 903 2953 641 2809 
L 641 3341 
Q 956 3463 1253 3523 
Q 1550 3584 1831 3584 
Q 2591 3584 2966 3190 
Q 3341 2797 3341 1997 
z
" transform="scale(0.015625)"/>
       <path id="DejaVuSans-46" d="M 3122 3366 
L 3122 2828 
Q 2878 2963 2633 3030 
Q 2388 3097 2138 3097 
Q 1578 3097 1268 2742 
Q 959 2388 959 1747 
Q 959 1106 1268 751 
Q 1578 397 2138 397 
Q 2388 397 2633 464 
Q 2878 531 3122 666 
L 3122 134 
Q 2881 22 2623 -34 
Q 2366 -91 2075 -91 
Q 1284 -91 818 406 
Q 353 903 353 1747 
Q 353 2603 823 3093 
Q 1294 3584 2113 3584 
Q 2378 3584 2631 3529 
Q 2884 3475 3122 3366 
z
" transform="scale(0.015625)"/>
       <path id="DejaVuSans-48" d="M 3597 1894 
L 3597 1613 
L 953 1613 
Q 991 1019 1311 708 
Q 1631 397 2203 397 
Q 2534 397 2845 478 
Q 3156 559 3463 722 
L 3463 178 
Q 3153 47 2828 -22 
Q 2503 -91 2169 -91 
Q 1331 -91 842 396 
Q 353 884 353 1716 
Q 353 2575 817 3079 
Q 1281 3584 2069 3584 
Q 2775 3584 3186 3129 
Q 3597 2675 3597 1894 
z
M 3022 2063 
Q 3016 2534 2758 2815 
Q 2500 3097 2075 3097 
Q 1594 3097 1305 2825 
Q 1016 2553 972 2059 
L 3022 2063 
z
" transform="scale(0.015625)"/>
       <path id="DejaVuSans-4f" d="M 603 4863 
L 1178 4863 
L 1178 0 
L 603 0 
L 603 4863 
z
" transform="scale(0.015625)"/>
       <path id="DejaVuSans-58" d="M 544 1381 
L 544 3500 
L 1119 3500 
L 1119 1403 
Q 1119 906 1312 657 
Q 1506 409 1894 409 
Q 2359 409 2629 706 
Q 2900 1003 2900 1516 
L 2900 3500 
L 3475 3500 
L 3475 0 
L 2900 0 
L 2900 538 
Q 2691 219 2414 64 
Q 2138 -91 1772 -91 
Q 1169 -91 856 284 
Q 544 659 544 1381 
z
M 1991 3584 
L 1991 3584 
z
" transform="scale(0.015625)"/>
       <path id="DejaVuSans-3" transform="scale(0.015625)"/>
       <path id="DejaVuSans-52" d="M 1959 3097 
Q 1497 3097 1228 2736 
Q 959 2375 959 1747 
Q 959 1119 1226 758 
Q 1494 397 1959 397 
Q 2419 397 2687 759 
Q 2956 1122 2956 1747 
Q 2956 2369 2687 2733 
Q 2419 3097 1959 3097 
z
M 1959 3584 
Q 2709 3584 3137 3096 
Q 3566 2609 3566 1747 
Q 3566 888 3137 398 
Q 2709 -91 1959 -91 
Q 1206 -91 779 398 
Q 353 888 353 1747 
Q 353 2609 779 3096 
Q 1206 3584 1959 3584 
z
" transform="scale(0.015625)"/>
       <path id="DejaVuSans-56" d="M 2834 3397 
L 2834 2853 
Q 2591 2978 2328 3040 
Q 2066 3103 1784 3103 
Q 1356 3103 1142 2972 
Q 928 2841 928 2578 
Q 928 2378 1081 2264 
Q 1234 2150 1697 2047 
L 1894 2003 
Q 2506 1872 2764 1633 
Q 3022 1394 3022 966 
Q 3022 478 2636 193 
Q 2250 -91 1575 -91 
Q 1294 -91 989 -36 
Q 684 19 347 128 
L 347 722 
Q 666 556 975 473 
Q 1284 391 1588 391 
Q 1994 391 2212 530 
Q 2431 669 2431 922 
Q 2431 1156 2273 1281 
Q 2116 1406 1581 1522 
L 1381 1569 
Q 847 1681 609 1914 
Q 372 2147 372 2553 
Q 372 3047 722 3315 
Q 1072 3584 1716 3584 
Q 2034 3584 2315 3537 
Q 2597 3491 2834 3397 
z
" transform="scale(0.015625)"/>
      </defs>
      <use xlink:href="#DejaVuSans-28"/>
      <use xlink:href="#DejaVuSans-5b" transform="translate(63.1875 0)"/>
      <use xlink:href="#DejaVuSans-57" transform="translate(122.375 0)"/>
      <use xlink:href="#DejaVuSans-55" transform="translate(161.578125 0)"/>
      <use xlink:href="#DejaVuSans-44" transform="translate(202.6875 0)"/>
      <use xlink:href="#DejaVuSans-46" transform="translate(263.96875 0)"/>
      <use xlink:href="#DejaVuSans-48" transform="translate(318.953125 0)"/>
      <use xlink:href="#DejaVuSans-4f" transform="translate(380.484375 0)"/>
      <use xlink:href="#DejaVuSans-4f" transform="translate(408.265625 0)"/>
      <use xlink:href="#DejaVuSans-58" transform="translate(436.046875 0)"/>
      <use xlink:href="#DejaVuSans-4f" transform="translate(499.421875 0)"/>
      <use xlink:href="#DejaVuSans-44" transform="translate(527.203125 0)"/>
      <use xlink:href="#DejaVuSans-55" transform="translate(588.484375 0)"/>
      <use xlink:href="#DejaVuSans-3" transform="translate(629.59375 0)"/>
      <use xlink:href="#DejaVuSans-4f" transform="translate(661.375 0)"/>
      <use xlink:href="#DejaVuSans-44" transform="translate(689.15625 0)"/>
      <use xlink:href="#DejaVuSans-46" transform="translate(750.4375 0)"/>
      <use xlink:href="#DejaVuSans-57" transform="translate(805.421875 0)"/>
      <use xlink:href="#DejaVuSans-52" transform="translate(844.625 0)"/>
      <use xlink:href="#DejaVuSans-56" transform="translate(905.8125 0)"/>
      <use xlink:href="#DejaVuSans-48" transform="translate(957.90625 0)"/>
     </g>
    </g>
   </g>
   <g id="line2d_13">
    <path d="M 56.88098 92.472021 
L 154.252129 92.472021 
L 154.339472 11.260572 
L 154.99431 11.341784 
L 155.109681 11.66663 
L 155.153613 11.747841 
L 155.296929 13.209647 
L 155.414472 14.833876 
L 155.559735 16.620528 
L 155.590269 16.701739 
L 156.089816 20.193832 
L 156.361587 20.599889 
L 156.419713 20.6811 
L 156.526739 20.762312 
L 156.968463 20.843523 
L 157.063416 21.249581 
L 157.299473 21.655638 
L 157.397956 22.061695 
L 157.516145 22.142906 
L 157.638654 22.630175 
L 157.646271 22.711387 
L 157.753095 23.604713 
L 157.84841 24.498038 
L 158.180818 25.878633 
L 158.225899 25.959845 
L 158.541597 27.746496 
L 158.685632 29.04588 
L 158.69167 29.127091 
L 158.840377 30.588897 
L 159.125824 32.050703 
L 159.182622 32.131915 
L 159.2919 32.619183 
L 159.341122 32.700395 
L 159.461436 33.512509 
L 159.482732 33.593721 
L 159.590763 34.080989 
L 159.677675 34.162201 
L 159.879257 35.136738 
L 159.943093 35.21795 
L 160.137596 35.948853 
L 160.668649 36.030064 
L 160.816815 36.517333 
L 160.832401 36.598544 
L 160.997384 37.004601 
L 161.20413 37.085813 
L 161.345131 37.654293 
L 161.500293 37.979139 
L 161.655266 38.385196 
L 161.796799 38.466408 
L 162.064906 39.603368 
L 162.166454 40.009425 
L 162.378951 40.577905 
L 162.492838 41.471231 
L 162.673784 41.633654 
L 162.729472 41.714865 
L 162.870437 41.9585 
L 162.939613 42.039711 
L 163.040948 42.52698 
L 163.0848 42.608191 
L 163.188117 42.933037 
L 163.369963 43.339094 
L 163.576338 43.420306 
L 163.694521 43.907575 
L 163.825513 44.23242 
L 163.906447 44.313632 
L 164.021259 44.719689 
L 164.232425 45.044535 
L 164.30489 45.125746 
L 164.573683 46.831187 
L 164.678241 46.912398 
L 165.188743 49.186319 
L 165.28327 49.26753 
L 165.397731 50.079645 
L 165.565215 50.891759 
L 165.696447 50.972971 
L 166.090659 51.541451 
L 166.123895 51.622662 
L 166.231053 51.785085 
L 166.365392 51.947508 
L 166.596217 52.109931 
L 166.916077 52.191142 
L 167.132188 52.678411 
L 167.237676 52.922045 
L 167.298832 53.003257 
L 167.486422 53.409314 
L 167.54242 53.490525 
L 167.77775 54.627486 
L 167.785816 54.708697 
L 167.995657 55.683235 
L 168.030009 55.764446 
L 168.14841 56.738983 
L 168.45364 59.500173 
L 168.489392 59.581384 
L 168.574725 60.149864 
L 168.723286 61.04319 
L 168.774736 61.124402 
L 168.896048 61.449247 
L 168.925283 61.530459 
L 169.08379 61.936516 
L 169.15235 62.017727 
L 169.27106 62.504996 
L 169.457062 62.586208 
L 169.579133 62.748631 
L 170.85562 62.829842 
L 171.115815 63.317111 
L 171.216169 63.479534 
L 171.310423 63.560745 
L 171.446156 63.885591 
L 171.481797 63.966802 
L 171.67432 64.778917 
L 171.750285 64.860128 
L 171.942927 65.672243 
L 171.993687 65.753454 
L 172.128029 66.321934 
L 172.28524 66.971626 
L 172.465893 67.540106 
L 172.551323 67.621317 
L 172.665895 67.78374 
L 172.698801 67.864952 
L 172.810784 68.108586 
L 173.017706 68.677066 
L 173.124802 68.839489 
L 173.262918 68.920701 
L 173.356954 69.083123 
L 173.496628 69.164335 
L 173.572747 69.326758 
L 173.7313 69.407969 
L 173.851286 69.976449 
L 173.876852 70.057661 
L 174.011342 70.463718 
L 174.016189 70.54493 
L 174.135192 71.194621 
L 174.167172 71.275833 
L 174.354427 72.087947 
L 174.377104 72.169158 
L 174.513739 72.900062 
L 174.68001 73.468542 
L 174.744443 73.549753 
L 174.821923 73.630965 
L 174.975845 73.874599 
L 175.08884 74.037022 
L 175.398966 75.092771 
L 175.50065 75.173982 
L 175.608846 75.580039 
L 175.677004 75.661251 
L 175.790349 75.823674 
L 175.922544 75.904885 
L 176.02638 75.986097 
L 177.203324 76.067308 
L 177.222088 76.148519 
L 178.004523 76.229731 
L 178.084861 76.392154 
L 178.258547 76.473365 
L 178.450196 76.635788 
L 178.562718 76.717 
L 178.649843 76.798211 
L 178.970622 76.879422 
L 179.042534 77.041845 
L 179.31805 77.123057 
L 179.706578 77.447903 
L 181.093005 77.529114 
L 181.341069 77.935171 
L 182.128941 78.016383 
L 182.255391 78.178806 
L 182.744526 78.503651 
L 182.857825 79.153343 
L 182.885939 79.234554 
L 182.990644 79.396977 
L 183.173015 79.478189 
L 183.274005 79.5594 
L 183.49797 79.640612 
L 183.620089 79.721823 
L 183.742092 79.803035 
L 183.844374 79.965458 
L 183.91775 80.046669 
L 184.177782 80.371515 
L 184.222904 80.452726 
L 184.361581 80.615149 
L 185.272867 81.264841 
L 185.354939 81.346052 
L 185.431892 81.670898 
L 185.550983 81.914532 
L 185.749729 82.239378 
L 185.893248 82.320589 
L 185.984327 82.483012 
L 186.102536 82.645435 
L 186.352148 82.726647 
L 186.450293 82.807858 
L 187.483405 82.88907 
L 188.225452 83.295127 
L 188.332281 83.538761 
L 188.607714 83.863607 
L 188.679242 83.944818 
L 189.490192 84.675721 
L 189.748307 84.756933 
L 189.890622 84.838144 
L 190.050034 84.919356 
L 190.58161 85.000567 
L 190.730024 85.16299 
L 190.965203 85.244202 
L 190.99733 85.325413 
L 191.364204 85.406625 
L 191.674009 85.650259 
L 192.045137 85.73147 
L 192.148125 85.812682 
L 192.589693 85.893893 
L 193.019619 86.056316 
L 196.77098 86.137528 
L 196.927417 86.218739 
L 197.041117 86.29995 
L 197.3728 86.381162 
L 197.50966 86.624796 
L 198.138508 86.706008 
L 198.502257 86.949642 
L 198.828142 87.030853 
L 198.980855 87.193276 
L 199.0707 87.274488 
L 199.249512 87.518122 
L 199.367355 87.599334 
L 199.521667 87.680545 
L 199.758752 87.761757 
L 199.883937 88.167814 
L 200.511255 88.249025 
L 200.942516 88.573871 
L 201.055186 88.736294 
L 201.226977 88.817505 
L 201.306092 88.979928 
L 201.848347 89.06114 
L 201.984884 89.142351 
L 202.290993 89.223563 
L 202.54808 89.467197 
L 203.014431 89.548408 
L 203.142941 89.62962 
L 205.512368 89.710831 
L 205.625115 89.792043 
L 216.71599 89.873254 
L 218.04778 89.954466 
L 234.140338 90.035677 
L 234.240984 90.116889 
L 241.227899 90.1981 
L 241.323464 90.279311 
L 265.171703 90.360523 
L 266.819268 90.441734 
L 312.422447 90.441734 
L 312.422447 90.441734 
" clip-path="url(#p5b12f4075d)" style="fill: none; stroke: #000000; stroke-width: 1.5; stroke-linecap: square"/>
   </g>
   <g id="patch_3">
    <path d="M 44.103906 96.532593 
L 44.103906 7.2 
" style="fill: none; stroke: #000000; stroke-width: 0.8; stroke-linejoin: miter; stroke-linecap: square"/>
   </g>
   <g id="patch_4">
    <path d="M 325.19952 96.532593 
L 325.19952 7.2 
" style="fill: none; stroke: #000000; stroke-width: 0.8; stroke-linejoin: miter; stroke-linecap: square"/>
   </g>
   <g id="patch_5">
    <path d="M 44.103906 96.532593 
L 325.19952 96.532593 
" style="fill: none; stroke: #000000; stroke-width: 0.8; stroke-linejoin: miter; stroke-linecap: square"/>
   </g>
   <g id="patch_6">
    <path d="M 44.103906 7.2 
L 325.19952 7.2 
" style="fill: none; stroke: #000000; stroke-width: 0.8; stroke-linejoin: miter; stroke-linecap: square"/>
   </g>
  </g>
  <g id="axes_2">
   <g id="patch_7">
    <path d="M 44.103906 195.365666 
L 325.19952 195.365666 
L 325.19952 106.033073 
L 44.103906 106.033073 
z
" style="fill: #ffffff"/>
   </g>
   <g id="matplotlib.axis_3">
    <g id="xtick_10">
     <g id="line2d_14">
      <g>
       <use xlink:href="#m15b3778bb3" x="56.88098" y="195.365666" style="stroke: #000000; stroke-width: 0.8"/>
      </g>
     </g>
    </g>
    <g id="xtick_11">
     <g id="line2d_15">
      <g>
       <use xlink:href="#m15b3778bb3" x="88.18305" y="195.365666" style="stroke: #000000; stroke-width: 0.8"/>
      </g>
     </g>
    </g>
    <g id="xtick_12">
     <g id="line2d_16">
      <g>
       <use xlink:href="#m15b3778bb3" x="119.485121" y="195.365666" style="stroke: #000000; stroke-width: 0.8"/>
      </g>
     </g>
    </g>
    <g id="xtick_13">
     <g id="line2d_17">
      <g>
       <use xlink:href="#m15b3778bb3" x="150.787192" y="195.365666" style="stroke: #000000; stroke-width: 0.8"/>
      </g>
     </g>
    </g>
    <g id="xtick_14">
     <g id="line2d_18">
      <g>
       <use xlink:href="#m15b3778bb3" x="182.089263" y="195.365666" style="stroke: #000000; stroke-width: 0.8"/>
      </g>
     </g>
    </g>
    <g id="xtick_15">
     <g id="line2d_19">
      <g>
       <use xlink:href="#m15b3778bb3" x="213.391334" y="195.365666" style="stroke: #000000; stroke-width: 0.8"/>
      </g>
     </g>
    </g>
    <g id="xtick_16">
     <g id="line2d_20">
      <g>
       <use xlink:href="#m15b3778bb3" x="244.693405" y="195.365666" style="stroke: #000000; stroke-width: 0.8"/>
      </g>
     </g>
    </g>
    <g id="xtick_17">
     <g id="line2d_21">
      <g>
       <use xlink:href="#m15b3778bb3" x="275.995476" y="195.365666" style="stroke: #000000; stroke-width: 0.8"/>
      </g>
     </g>
    </g>
    <g id="xtick_18">
     <g id="line2d_22">
      <g>
       <use xlink:href="#m15b3778bb3" x="307.297547" y="195.365666" style="stroke: #000000; stroke-width: 0.8"/>
      </g>
     </g>
    </g>
   </g>
   <g id="matplotlib.axis_4">
    <g id="ytick_4">
     <g id="line2d_23">
      <g>
       <use xlink:href="#m653be76dea" x="44.103906" y="191.305093" style="stroke: #000000; stroke-width: 0.8"/>
      </g>
     </g>
     <g id="text_5">
      <!-- 0 -->
      <g transform="translate(30.741406 195.103922) scale(0.1 -0.1)">
       <use xlink:href="#DejaVuSans-13"/>
      </g>
     </g>
    </g>
    <g id="ytick_5">
     <g id="line2d_24">
      <g>
       <use xlink:href="#m653be76dea" x="44.103906" y="150.699369" style="stroke: #000000; stroke-width: 0.8"/>
      </g>
     </g>
     <g id="text_6">
      <!-- 5 -->
      <g transform="translate(30.741406 154.498197) scale(0.1 -0.1)">
       <use xlink:href="#DejaVuSans-18"/>
      </g>
     </g>
    </g>
    <g id="ytick_6">
     <g id="line2d_25">
      <g>
       <use xlink:href="#m653be76dea" x="44.103906" y="110.093645" style="stroke: #000000; stroke-width: 0.8"/>
      </g>
     </g>
     <g id="text_7">
      <!-- 10 -->
      <g transform="translate(24.378906 113.892473) scale(0.1 -0.1)">
       <use xlink:href="#DejaVuSans-14"/>
       <use xlink:href="#DejaVuSans-13" transform="translate(63.625 0)"/>
      </g>
     </g>
    </g>
    <g id="text_8">
     <!-- LacY -->
     <g transform="translate(17.976563 162.352494) rotate(-90) scale(0.1 -0.1)">
      <defs>
       <path id="DejaVuSans-2f" d="M 628 4666 
L 1259 4666 
L 1259 531 
L 3531 531 
L 3531 0 
L 628 0 
L 628 4666 
z
" transform="scale(0.015625)"/>
       <path id="DejaVuSans-3c" d="M -13 4666 
L 666 4666 
L 1959 2747 
L 3244 4666 
L 3922 4666 
L 2272 2222 
L 2272 0 
L 1638 0 
L 1638 2222 
L -13 4666 
z
" transform="scale(0.015625)"/>
      </defs>
      <use xlink:href="#DejaVuSans-2f"/>
      <use xlink:href="#DejaVuSans-44" transform="translate(55.71875 0)"/>
      <use xlink:href="#DejaVuSans-46" transform="translate(117 0)"/>
      <use xlink:href="#DejaVuSans-3c" transform="translate(171.984375 0)"/>
     </g>
    </g>
   </g>
   <g id="line2d_26">
    <path d="M 56.88098 110.093645 
L 56.907588 110.093645 
L 57.037653 126.335935 
L 57.126323 142.578225 
L 57.275518 142.578225 
L 57.292876 134.45708 
L 57.509243 142.578225 
L 57.648393 142.578225 
L 57.815777 158.820514 
L 58.110919 175.062804 
L 58.175283 191.305093 
L 59.675989 191.305093 
L 59.839421 183.183949 
L 59.881345 191.305093 
L 64.807789 191.305093 
L 65.124564 183.183949 
L 65.232413 191.305093 
L 82.393736 191.305093 
L 82.584423 183.183949 
L 84.343416 191.305093 
L 84.357958 183.183949 
L 84.498424 175.062804 
L 84.502989 166.941659 
L 84.818985 175.062804 
L 85.041605 175.062804 
L 85.158949 191.305093 
L 85.218606 183.183949 
L 85.405192 183.183949 
L 85.541027 191.305093 
L 89.358771 191.305093 
L 89.74111 175.062804 
L 89.742386 166.941659 
L 90.23148 166.941659 
L 90.269409 183.183949 
L 91.026777 183.183949 
L 91.192468 175.062804 
L 91.530171 191.305093 
L 108.20993 191.305093 
L 108.313605 183.183949 
L 108.431021 183.183949 
L 108.567453 191.305093 
L 108.797959 191.305093 
L 108.83865 183.183949 
L 109.246655 183.183949 
L 109.589889 175.062804 
L 109.647121 183.183949 
L 109.819037 183.183949 
L 109.84805 191.305093 
L 118.440235 191.305093 
L 118.615252 183.183949 
L 120.67541 183.183949 
L 122.487616 191.305093 
L 130.10737 191.305093 
L 130.290082 183.183949 
L 130.572155 183.183949 
L 130.677875 191.305093 
L 134.930945 191.305093 
L 135.013078 183.183949 
L 135.034526 191.305093 
L 144.836543 191.305093 
L 145.092412 175.062804 
L 145.112846 183.183949 
L 145.141301 175.062804 
L 145.252254 166.941659 
L 145.257493 175.062804 
L 145.831081 175.062804 
L 146.436489 183.183949 
L 146.677142 183.183949 
L 146.986392 175.062804 
L 147.097123 175.062804 
L 148.148594 191.305093 
L 148.59999 191.305093 
L 148.650882 175.062804 
L 148.749834 175.062804 
L 148.899751 183.183949 
L 149.030921 183.183949 
L 149.563476 191.305093 
L 154.584333 191.305093 
L 155.004451 183.183949 
L 155.240163 150.699369 
L 155.516433 150.699369 
L 155.63425 166.941659 
L 155.683168 166.941659 
L 155.782145 158.820514 
L 155.867465 158.820514 
L 155.975179 175.062804 
L 156.002842 175.062804 
L 156.089816 183.183949 
L 156.434887 183.183949 
L 156.526739 191.305093 
L 156.918813 191.305093 
L 157.035478 183.183949 
L 157.181256 183.183949 
L 157.296331 175.062804 
L 157.42658 175.062804 
L 157.481004 183.183949 
L 157.537293 175.062804 
L 157.638654 175.062804 
L 157.74914 166.941659 
L 157.897944 166.941659 
L 158.020481 183.183949 
L 158.152128 183.183949 
L 158.272864 175.062804 
L 158.419127 175.062804 
L 158.557086 158.820514 
L 158.718433 158.820514 
L 158.785861 150.699369 
L 158.827577 158.820514 
L 158.910025 158.820514 
L 158.959618 150.699369 
L 159.011228 158.820514 
L 159.176689 158.820514 
L 159.283718 175.062804 
L 159.312115 175.062804 
L 159.342061 183.183949 
L 159.350281 166.941659 
L 159.416995 166.941659 
L 159.64762 166.941659 
L 159.75755 175.062804 
L 160.039403 175.062804 
L 160.137596 183.183949 
L 160.209271 183.183949 
L 160.317195 191.305093 
L 160.582727 191.305093 
L 160.727784 183.183949 
L 160.848445 183.183949 
L 160.961007 175.062804 
L 160.997384 175.062804 
L 161.103954 183.183949 
L 161.341618 183.183949 
L 161.393499 175.062804 
L 161.452276 183.183949 
L 161.778974 183.183949 
L 161.900995 166.941659 
L 162.116137 166.941659 
L 162.219983 175.062804 
L 162.38811 175.062804 
L 162.402117 166.941659 
L 162.492838 175.062804 
L 162.52893 175.062804 
L 162.663463 183.183949 
L 162.700587 183.183949 
L 162.795232 175.062804 
L 162.840151 175.062804 
L 162.958463 166.941659 
L 162.978105 166.941659 
L 163.0848 183.183949 
L 163.60332 183.183949 
L 163.712509 175.062804 
L 163.992111 175.062804 
L 164.128149 183.183949 
L 164.232425 183.183949 
L 164.437695 166.941659 
L 164.524968 166.941659 
L 164.534063 158.820514 
L 164.62484 166.941659 
L 164.665915 166.941659 
L 164.72199 175.062804 
L 164.776361 166.941659 
L 164.803261 166.941659 
L 164.913819 175.062804 
L 165.234717 175.062804 
L 165.347513 166.941659 
L 165.442151 166.941659 
L 165.552355 175.062804 
L 165.89119 175.062804 
L 165.966645 183.183949 
L 165.999143 175.062804 
L 166.190529 175.062804 
L 166.293768 183.183949 
L 166.435868 183.183949 
L 166.549508 191.305093 
L 166.788831 191.305093 
L 166.969718 183.183949 
L 167.116475 183.183949 
L 167.237676 166.941659 
L 167.258574 166.941659 
L 167.373414 175.062804 
L 167.53087 175.062804 
L 167.634356 166.941659 
L 167.670973 166.941659 
L 167.785816 150.699369 
L 168.04103 150.699369 
L 168.14841 142.578225 
L 168.45952 142.578225 
L 168.571289 150.699369 
L 168.587299 150.699369 
L 168.600377 158.820514 
L 168.634744 142.578225 
L 168.697869 150.699369 
L 168.723286 150.699369 
L 168.870758 166.941659 
L 168.88216 166.941659 
L 168.992734 158.820514 
L 169.109472 175.062804 
L 169.49503 175.062804 
L 169.579133 191.305093 
L 169.93051 191.305093 
L 170.046603 183.183949 
L 170.125034 183.183949 
L 170.231481 191.305093 
L 170.814098 191.305093 
L 170.935259 183.183949 
L 170.986911 183.183949 
L 171.139327 175.062804 
L 171.307324 175.062804 
L 171.409463 166.941659 
L 171.647129 166.941659 
L 171.750285 158.820514 
L 172.273538 158.820514 
L 172.365317 142.578225 
L 172.376903 158.820514 
L 172.565675 158.820514 
L 172.669091 166.941659 
L 172.712582 166.941659 
L 172.810784 175.062804 
L 172.87423 175.062804 
L 172.998812 166.941659 
L 173.030546 166.941659 
L 173.124802 175.062804 
L 173.26332 175.062804 
L 173.381642 183.183949 
L 173.572747 183.183949 
L 173.881833 150.699369 
L 173.93372 158.820514 
L 174.001567 158.820514 
L 174.114606 150.699369 
L 174.21896 150.699369 
L 174.241442 142.578225 
L 174.329844 150.699369 
L 174.525564 150.699369 
L 174.63415 166.941659 
L 174.702359 166.941659 
L 174.756489 158.820514 
L 174.780277 175.062804 
L 174.8082 166.941659 
L 174.964524 166.941659 
L 175.082391 175.062804 
L 175.189258 175.062804 
L 175.319659 166.941659 
L 175.59985 166.941659 
L 175.715926 175.062804 
L 175.904433 175.062804 
L 175.936602 166.941659 
L 175.961683 183.183949 
L 176.318097 183.183949 
L 176.452067 191.305093 
L 177.191154 191.305093 
L 177.222088 183.183949 
L 177.374762 183.183949 
L 177.377139 191.305093 
L 177.581443 191.305093 
L 177.709477 183.183949 
L 177.897426 183.183949 
L 178.020751 175.062804 
L 178.067752 175.062804 
L 178.162948 166.941659 
L 178.194463 166.941659 
L 178.305076 175.062804 
L 178.320384 166.941659 
L 178.372078 175.062804 
L 178.450196 191.305093 
L 178.515644 183.183949 
L 178.604844 183.183949 
L 178.649843 191.305093 
L 178.844707 191.305093 
L 178.972827 183.183949 
L 179.701439 183.183949 
L 179.772612 191.305093 
L 180.665887 191.305093 
L 180.783831 183.183949 
L 181.19023 183.183949 
L 181.310897 175.062804 
L 181.42304 183.183949 
L 181.554767 175.062804 
L 181.599467 191.305093 
L 181.85137 175.062804 
L 181.935304 183.183949 
L 182.159529 175.062804 
L 182.255391 183.183949 
L 182.498748 183.183949 
L 182.576668 175.062804 
L 182.68041 175.062804 
L 182.857825 158.820514 
L 182.990644 158.820514 
L 183.173015 166.941659 
L 183.190998 166.941659 
L 183.274005 183.183949 
L 183.451283 175.062804 
L 183.562517 175.062804 
L 183.722816 158.820514 
L 183.844374 175.062804 
L 183.896306 175.062804 
L 183.985645 150.699369 
L 184.093338 150.699369 
L 184.1974 166.941659 
L 184.508536 166.941659 
L 184.624786 175.062804 
L 184.704154 175.062804 
L 184.833345 166.941659 
L 184.986964 166.941659 
L 185.089876 158.820514 
L 185.137091 158.820514 
L 185.249837 166.941659 
L 185.354939 158.820514 
L 185.588176 158.820514 
L 185.749729 142.578225 
L 185.781352 142.578225 
L 185.924744 166.941659 
L 186.038299 166.941659 
L 186.102536 175.062804 
L 186.256311 175.062804 
L 186.364439 166.941659 
L 186.536786 166.941659 
L 186.648139 183.183949 
L 187.275975 183.183949 
L 187.483405 175.062804 
L 187.65094 175.062804 
L 187.690422 183.183949 
L 187.901636 183.183949 
L 188.089344 150.699369 
L 188.224429 150.699369 
L 188.332281 158.820514 
L 188.53228 158.820514 
L 188.605402 150.699369 
L 188.634458 158.820514 
L 188.756732 158.820514 
L 188.781977 175.062804 
L 188.831468 166.941659 
L 188.932156 175.062804 
L 189.055551 166.941659 
L 189.142523 150.699369 
L 189.176351 158.820514 
L 189.281498 175.062804 
L 189.490192 175.062804 
L 189.549107 166.941659 
L 189.552344 175.062804 
L 189.667727 175.062804 
L 189.693682 166.941659 
L 189.748307 175.062804 
L 189.780948 175.062804 
L 189.890622 183.183949 
L 190.303096 183.183949 
L 190.423138 175.062804 
L 190.48468 183.183949 
L 190.501632 175.062804 
L 190.719321 175.062804 
L 190.818488 150.699369 
L 190.981304 166.941659 
L 191.112467 166.941659 
L 191.249628 175.062804 
L 192.112929 175.062804 
L 192.142844 166.941659 
L 192.220319 175.062804 
L 192.391251 175.062804 
L 192.444196 183.183949 
L 192.589693 175.062804 
L 192.727345 175.062804 
L 192.845524 183.183949 
L 192.86854 183.183949 
L 192.936159 175.062804 
L 192.952002 183.183949 
L 193.233939 183.183949 
L 193.283804 191.305093 
L 196.371204 191.305093 
L 196.676436 175.062804 
L 196.77098 166.941659 
L 196.971827 166.941659 
L 197.141937 183.183949 
L 197.382793 158.820514 
L 197.452127 158.820514 
L 197.459524 150.699369 
L 197.560095 158.820514 
L 197.702881 158.820514 
L 197.906548 166.941659 
L 197.923389 175.062804 
L 198.242428 166.941659 
L 198.389625 166.941659 
L 198.502257 183.183949 
L 198.664102 175.062804 
L 198.858182 150.699369 
L 198.980855 150.699369 
L 199.096372 142.578225 
L 199.155066 142.578225 
L 199.275852 150.699369 
L 199.34638 150.699369 
L 199.468761 142.578225 
L 199.490911 142.578225 
L 199.620226 158.820514 
L 199.689819 150.699369 
L 199.720965 158.820514 
L 199.815521 166.941659 
L 199.903536 166.941659 
L 200.081863 191.305093 
L 200.099675 175.062804 
L 200.432512 175.062804 
L 200.511255 166.941659 
L 200.677967 166.941659 
L 200.73129 142.578225 
L 200.835738 142.578225 
L 200.952646 134.45708 
L 201.055186 134.45708 
L 201.17128 158.820514 
L 201.271819 158.820514 
L 201.347874 166.941659 
L 201.394466 158.820514 
L 201.47731 166.941659 
L 201.684245 166.941659 
L 201.84205 158.820514 
L 201.951892 166.941659 
L 201.984884 166.941659 
L 202.100448 150.699369 
L 202.336115 142.578225 
L 202.384565 142.578225 
L 202.475023 126.335935 
L 202.498671 134.45708 
L 202.544675 134.45708 
L 202.562611 150.699369 
L 202.651658 142.578225 
L 202.741558 150.699369 
L 202.82992 158.820514 
L 202.98958 158.820514 
L 203.109583 166.941659 
L 203.233325 166.941659 
L 203.234424 175.062804 
L 203.393083 183.183949 
L 203.811789 183.183949 
L 203.997678 191.305093 
L 204.151923 183.183949 
L 204.266806 175.062804 
L 204.337887 183.183949 
L 204.451739 175.062804 
L 204.545262 191.305093 
L 204.562423 175.062804 
L 204.930389 175.062804 
L 204.938229 183.183949 
L 205.17668 183.183949 
L 205.348572 175.062804 
L 205.577579 175.062804 
L 205.625115 183.183949 
L 205.885674 191.305093 
L 206.037923 175.062804 
L 206.430789 175.062804 
L 206.626091 183.183949 
L 207.275319 191.305093 
L 213.372662 191.305093 
L 213.905636 183.183949 
L 214.07929 175.062804 
L 214.270047 183.183949 
L 214.397465 183.183949 
L 214.528638 191.305093 
L 216.5592 191.305093 
L 216.71599 183.183949 
L 217.30459 183.183949 
L 217.343302 191.305093 
L 233.163207 191.305093 
L 233.360985 183.183949 
L 233.523277 191.305093 
L 233.673393 183.183949 
L 233.811665 175.062804 
L 234.156138 175.062804 
L 234.240984 183.183949 
L 234.535061 191.305093 
L 239.993991 191.305093 
L 240.273093 166.941659 
L 240.47874 175.062804 
L 240.766372 166.941659 
L 241.266554 166.941659 
L 241.41908 191.305093 
L 241.985986 191.305093 
L 242.019071 183.183949 
L 242.50142 183.183949 
L 243.730646 191.305093 
L 249.02764 191.305093 
L 249.158702 183.183949 
L 249.191605 191.305093 
L 261.780309 191.305093 
L 262.218878 183.183949 
L 262.312268 191.305093 
L 264.388033 191.305093 
L 265.010435 183.183949 
L 266.063148 183.183949 
L 266.819268 191.305093 
L 271.131521 191.305093 
L 271.183572 183.183949 
L 271.313328 191.305093 
L 288.801435 191.305093 
L 288.827104 183.183949 
L 288.937128 191.305093 
L 289.073388 191.305093 
L 289.158995 183.183949 
L 289.513572 183.183949 
L 289.758088 191.305093 
L 301.974093 191.305093 
L 302.133908 175.062804 
L 302.412678 166.941659 
L 302.463108 158.820514 
L 302.466958 166.941659 
L 302.528463 166.941659 
L 302.530032 175.062804 
L 302.60943 166.941659 
L 302.774059 166.941659 
L 302.892398 175.062804 
L 303.749818 191.305093 
L 304.979731 191.305093 
L 305.279849 183.183949 
L 305.423594 183.183949 
L 305.507112 191.305093 
L 312.422447 191.305093 
L 312.422447 191.305093 
" clip-path="url(#p8fb370ab09)" style="fill: none; stroke: #000000; stroke-width: 1.5; stroke-linecap: square"/>
   </g>
   <g id="patch_8">
    <path d="M 44.103906 195.365666 
L 44.103906 106.033073 
" style="fill: none; stroke: #000000; stroke-width: 0.8; stroke-linejoin: miter; stroke-linecap: square"/>
   </g>
   <g id="patch_9">
    <path d="M 325.19952 195.365666 
L 325.19952 106.033073 
" style="fill: none; stroke: #000000; stroke-width: 0.8; stroke-linejoin: miter; stroke-linecap: square"/>
   </g>
   <g id="patch_10">
    <path d="M 44.103906 195.365666 
L 325.19952 195.365666 
" style="fill: none; stroke: #000000; stroke-width: 0.8; stroke-linejoin: miter; stroke-linecap: square"/>
   </g>
   <g id="patch_11">
    <path d="M 44.103906 106.033073 
L 325.19952 106.033073 
" style="fill: none; stroke: #000000; stroke-width: 0.8; stroke-linejoin: miter; stroke-linecap: square"/>
   </g>
  </g>
  <g id="axes_3">
   <g id="patch_12">
    <path d="M 44.103906 294.198739 
L 325.19952 294.198739 
L 325.19952 204.866146 
L 44.103906 204.866146 
z
" style="fill: #ffffff"/>
   </g>
   <g id="matplotlib.axis_5">
    <g id="xtick_19">
     <g id="line2d_27">
      <g>
       <use xlink:href="#m15b3778bb3" x="56.88098" y="294.198739" style="stroke: #000000; stroke-width: 0.8"/>
      </g>
     </g>
     <g id="text_9">
      <!-- 0 -->
      <g transform="translate(53.69973 308.796395) scale(0.1 -0.1)">
       <use xlink:href="#DejaVuSans-13"/>
      </g>
     </g>
    </g>
    <g id="xtick_20">
     <g id="line2d_28">
      <g>
       <use xlink:href="#m15b3778bb3" x="88.18305" y="294.198739" style="stroke: #000000; stroke-width: 0.8"/>
      </g>
     </g>
     <g id="text_10">
      <!-- 100 -->
      <g transform="translate(78.6393 308.796395) scale(0.1 -0.1)">
       <use xlink:href="#DejaVuSans-14"/>
       <use xlink:href="#DejaVuSans-13" transform="translate(63.625 0)"/>
       <use xlink:href="#DejaVuSans-13" transform="translate(127.25 0)"/>
      </g>
     </g>
    </g>
    <g id="xtick_21">
     <g id="line2d_29">
      <g>
       <use xlink:href="#m15b3778bb3" x="119.485121" y="294.198739" style="stroke: #000000; stroke-width: 0.8"/>
      </g>
     </g>
     <g id="text_11">
      <!-- 200 -->
      <g transform="translate(109.941371 308.796395) scale(0.1 -0.1)">
       <defs>
        <path id="DejaVuSans-15" d="M 1228 531 
L 3431 531 
L 3431 0 
L 469 0 
L 469 531 
Q 828 903 1448 1529 
Q 2069 2156 2228 2338 
Q 2531 2678 2651 2914 
Q 2772 3150 2772 3378 
Q 2772 3750 2511 3984 
Q 2250 4219 1831 4219 
Q 1534 4219 1204 4116 
Q 875 4013 500 3803 
L 500 4441 
Q 881 4594 1212 4672 
Q 1544 4750 1819 4750 
Q 2544 4750 2975 4387 
Q 3406 4025 3406 3419 
Q 3406 3131 3298 2873 
Q 3191 2616 2906 2266 
Q 2828 2175 2409 1742 
Q 1991 1309 1228 531 
z
" transform="scale(0.015625)"/>
       </defs>
       <use xlink:href="#DejaVuSans-15"/>
       <use xlink:href="#DejaVuSans-13" transform="translate(63.625 0)"/>
       <use xlink:href="#DejaVuSans-13" transform="translate(127.25 0)"/>
      </g>
     </g>
    </g>
    <g id="xtick_22">
     <g id="line2d_30">
      <g>
       <use xlink:href="#m15b3778bb3" x="150.787192" y="294.198739" style="stroke: #000000; stroke-width: 0.8"/>
      </g>
     </g>
     <g id="text_12">
      <!-- 300 -->
      <g transform="translate(141.243442 308.796395) scale(0.1 -0.1)">
       <defs>
        <path id="DejaVuSans-16" d="M 2597 2516 
Q 3050 2419 3304 2112 
Q 3559 1806 3559 1356 
Q 3559 666 3084 287 
Q 2609 -91 1734 -91 
Q 1441 -91 1130 -33 
Q 819 25 488 141 
L 488 750 
Q 750 597 1062 519 
Q 1375 441 1716 441 
Q 2309 441 2620 675 
Q 2931 909 2931 1356 
Q 2931 1769 2642 2001 
Q 2353 2234 1838 2234 
L 1294 2234 
L 1294 2753 
L 1863 2753 
Q 2328 2753 2575 2939 
Q 2822 3125 2822 3475 
Q 2822 3834 2567 4026 
Q 2313 4219 1838 4219 
Q 1578 4219 1281 4162 
Q 984 4106 628 3988 
L 628 4550 
Q 988 4650 1302 4700 
Q 1616 4750 1894 4750 
Q 2613 4750 3031 4423 
Q 3450 4097 3450 3541 
Q 3450 3153 3228 2886 
Q 3006 2619 2597 2516 
z
" transform="scale(0.015625)"/>
       </defs>
       <use xlink:href="#DejaVuSans-16"/>
       <use xlink:href="#DejaVuSans-13" transform="translate(63.625 0)"/>
       <use xlink:href="#DejaVuSans-13" transform="translate(127.25 0)"/>
      </g>
     </g>
    </g>
    <g id="xtick_23">
     <g id="line2d_31">
      <g>
       <use xlink:href="#m15b3778bb3" x="182.089263" y="294.198739" style="stroke: #000000; stroke-width: 0.8"/>
      </g>
     </g>
     <g id="text_13">
      <!-- 400 -->
      <g transform="translate(172.545513 308.796395) scale(0.1 -0.1)">
       <defs>
        <path id="DejaVuSans-17" d="M 2419 4116 
L 825 1625 
L 2419 1625 
L 2419 4116 
z
M 2253 4666 
L 3047 4666 
L 3047 1625 
L 3713 1625 
L 3713 1100 
L 3047 1100 
L 3047 0 
L 2419 0 
L 2419 1100 
L 313 1100 
L 313 1709 
L 2253 4666 
z
" transform="scale(0.015625)"/>
       </defs>
       <use xlink:href="#DejaVuSans-17"/>
       <use xlink:href="#DejaVuSans-13" transform="translate(63.625 0)"/>
       <use xlink:href="#DejaVuSans-13" transform="translate(127.25 0)"/>
      </g>
     </g>
    </g>
    <g id="xtick_24">
     <g id="line2d_32">
      <g>
       <use xlink:href="#m15b3778bb3" x="213.391334" y="294.198739" style="stroke: #000000; stroke-width: 0.8"/>
      </g>
     </g>
     <g id="text_14">
      <!-- 500 -->
      <g transform="translate(203.847584 308.796395) scale(0.1 -0.1)">
       <use xlink:href="#DejaVuSans-18"/>
       <use xlink:href="#DejaVuSans-13" transform="translate(63.625 0)"/>
       <use xlink:href="#DejaVuSans-13" transform="translate(127.25 0)"/>
      </g>
     </g>
    </g>
    <g id="xtick_25">
     <g id="line2d_33">
      <g>
       <use xlink:href="#m15b3778bb3" x="244.693405" y="294.198739" style="stroke: #000000; stroke-width: 0.8"/>
      </g>
     </g>
     <g id="text_15">
      <!-- 600 -->
      <g transform="translate(235.149655 308.796395) scale(0.1 -0.1)">
       <defs>
        <path id="DejaVuSans-19" d="M 2113 2584 
Q 1688 2584 1439 2293 
Q 1191 2003 1191 1497 
Q 1191 994 1439 701 
Q 1688 409 2113 409 
Q 2538 409 2786 701 
Q 3034 994 3034 1497 
Q 3034 2003 2786 2293 
Q 2538 2584 2113 2584 
z
M 3366 4563 
L 3366 3988 
Q 3128 4100 2886 4159 
Q 2644 4219 2406 4219 
Q 1781 4219 1451 3797 
Q 1122 3375 1075 2522 
Q 1259 2794 1537 2939 
Q 1816 3084 2150 3084 
Q 2853 3084 3261 2657 
Q 3669 2231 3669 1497 
Q 3669 778 3244 343 
Q 2819 -91 2113 -91 
Q 1303 -91 875 529 
Q 447 1150 447 2328 
Q 447 3434 972 4092 
Q 1497 4750 2381 4750 
Q 2619 4750 2861 4703 
Q 3103 4656 3366 4563 
z
" transform="scale(0.015625)"/>
       </defs>
       <use xlink:href="#DejaVuSans-19"/>
       <use xlink:href="#DejaVuSans-13" transform="translate(63.625 0)"/>
       <use xlink:href="#DejaVuSans-13" transform="translate(127.25 0)"/>
      </g>
     </g>
    </g>
    <g id="xtick_26">
     <g id="line2d_34">
      <g>
       <use xlink:href="#m15b3778bb3" x="275.995476" y="294.198739" style="stroke: #000000; stroke-width: 0.8"/>
      </g>
     </g>
     <g id="text_16">
      <!-- 700 -->
      <g transform="translate(266.451726 308.796395) scale(0.1 -0.1)">
       <defs>
        <path id="DejaVuSans-1a" d="M 525 4666 
L 3525 4666 
L 3525 4397 
L 1831 0 
L 1172 0 
L 2766 4134 
L 525 4134 
L 525 4666 
z
" transform="scale(0.015625)"/>
       </defs>
       <use xlink:href="#DejaVuSans-1a"/>
       <use xlink:href="#DejaVuSans-13" transform="translate(63.625 0)"/>
       <use xlink:href="#DejaVuSans-13" transform="translate(127.25 0)"/>
      </g>
     </g>
    </g>
    <g id="xtick_27">
     <g id="line2d_35">
      <g>
       <use xlink:href="#m15b3778bb3" x="307.297547" y="294.198739" style="stroke: #000000; stroke-width: 0.8"/>
      </g>
     </g>
     <g id="text_17">
      <!-- 800 -->
      <g transform="translate(297.753797 308.796395) scale(0.1 -0.1)">
       <defs>
        <path id="DejaVuSans-1b" d="M 2034 2216 
Q 1584 2216 1326 1975 
Q 1069 1734 1069 1313 
Q 1069 891 1326 650 
Q 1584 409 2034 409 
Q 2484 409 2743 651 
Q 3003 894 3003 1313 
Q 3003 1734 2745 1975 
Q 2488 2216 2034 2216 
z
M 1403 2484 
Q 997 2584 770 2862 
Q 544 3141 544 3541 
Q 544 4100 942 4425 
Q 1341 4750 2034 4750 
Q 2731 4750 3128 4425 
Q 3525 4100 3525 3541 
Q 3525 3141 3298 2862 
Q 3072 2584 2669 2484 
Q 3125 2378 3379 2068 
Q 3634 1759 3634 1313 
Q 3634 634 3220 271 
Q 2806 -91 2034 -91 
Q 1263 -91 848 271 
Q 434 634 434 1313 
Q 434 1759 690 2068 
Q 947 2378 1403 2484 
z
M 1172 3481 
Q 1172 3119 1398 2916 
Q 1625 2713 2034 2713 
Q 2441 2713 2670 2916 
Q 2900 3119 2900 3481 
Q 2900 3844 2670 4047 
Q 2441 4250 2034 4250 
Q 1625 4250 1398 4047 
Q 1172 3844 1172 3481 
z
" transform="scale(0.015625)"/>
       </defs>
       <use xlink:href="#DejaVuSans-1b"/>
       <use xlink:href="#DejaVuSans-13" transform="translate(63.625 0)"/>
       <use xlink:href="#DejaVuSans-13" transform="translate(127.25 0)"/>
      </g>
     </g>
    </g>
    <g id="text_18">
     <!-- Time -->
     <g transform="translate(172.415776 322.797176) scale(0.1 -0.1)">
      <defs>
       <path id="DejaVuSans-37" d="M -19 4666 
L 3928 4666 
L 3928 4134 
L 2272 4134 
L 2272 0 
L 1638 0 
L 1638 4134 
L -19 4134 
L -19 4666 
z
" transform="scale(0.015625)"/>
       <path id="DejaVuSans-4c" d="M 603 3500 
L 1178 3500 
L 1178 0 
L 603 0 
L 603 3500 
z
M 603 4863 
L 1178 4863 
L 1178 4134 
L 603 4134 
L 603 4863 
z
" transform="scale(0.015625)"/>
       <path id="DejaVuSans-50" d="M 3328 2828 
Q 3544 3216 3844 3400 
Q 4144 3584 4550 3584 
Q 5097 3584 5394 3201 
Q 5691 2819 5691 2113 
L 5691 0 
L 5113 0 
L 5113 2094 
Q 5113 2597 4934 2840 
Q 4756 3084 4391 3084 
Q 3944 3084 3684 2787 
Q 3425 2491 3425 1978 
L 3425 0 
L 2847 0 
L 2847 2094 
Q 2847 2600 2669 2842 
Q 2491 3084 2119 3084 
Q 1678 3084 1418 2786 
Q 1159 2488 1159 1978 
L 1159 0 
L 581 0 
L 581 3500 
L 1159 3500 
L 1159 2956 
Q 1356 3278 1631 3431 
Q 1906 3584 2284 3584 
Q 2666 3584 2933 3390 
Q 3200 3197 3328 2828 
z
" transform="scale(0.015625)"/>
      </defs>
      <use xlink:href="#DejaVuSans-37"/>
      <use xlink:href="#DejaVuSans-4c" transform="translate(58 0)"/>
      <use xlink:href="#DejaVuSans-50" transform="translate(85.78125 0)"/>
      <use xlink:href="#DejaVuSans-48" transform="translate(183.1875 0)"/>
     </g>
    </g>
   </g>
   <g id="matplotlib.axis_6">
    <g id="ytick_7">
     <g id="line2d_36">
      <g>
       <use xlink:href="#m653be76dea" x="44.103906" y="290.138166" style="stroke: #000000; stroke-width: 0.8"/>
      </g>
     </g>
     <g id="text_19">
      <!-- 0.0 -->
      <g transform="translate(21.200781 293.936994) scale(0.1 -0.1)">
       <defs>
        <path id="DejaVuSans-11" d="M 684 794 
L 1344 794 
L 1344 0 
L 684 0 
L 684 794 
z
" transform="scale(0.015625)"/>
       </defs>
       <use xlink:href="#DejaVuSans-13"/>
       <use xlink:href="#DejaVuSans-11" transform="translate(63.625 0)"/>
       <use xlink:href="#DejaVuSans-13" transform="translate(95.40625 0)"/>
      </g>
     </g>
    </g>
    <g id="ytick_8">
     <g id="line2d_37">
      <g>
       <use xlink:href="#m653be76dea" x="44.103906" y="249.532442" style="stroke: #000000; stroke-width: 0.8"/>
      </g>
     </g>
     <g id="text_20">
      <!-- 0.5 -->
      <g transform="translate(21.200781 253.33127) scale(0.1 -0.1)">
       <use xlink:href="#DejaVuSans-13"/>
       <use xlink:href="#DejaVuSans-11" transform="translate(63.625 0)"/>
       <use xlink:href="#DejaVuSans-18" transform="translate(95.40625 0)"/>
      </g>
     </g>
    </g>
    <g id="ytick_9">
     <g id="line2d_38">
      <g>
       <use xlink:href="#m653be76dea" x="44.103906" y="208.926718" style="stroke: #000000; stroke-width: 0.8"/>
      </g>
     </g>
     <g id="text_21">
      <!-- 1.0 -->
      <g transform="translate(21.200781 212.725546) scale(0.1 -0.1)">
       <use xlink:href="#DejaVuSans-14"/>
       <use xlink:href="#DejaVuSans-11" transform="translate(63.625 0)"/>
       <use xlink:href="#DejaVuSans-13" transform="translate(95.40625 0)"/>
      </g>
     </g>
    </g>
    <g id="text_22">
     <!-- Free lac operon -->
     <g transform="translate(14.798438 288.006661) rotate(-90) scale(0.1 -0.1)">
      <defs>
       <path id="DejaVuSans-29" d="M 628 4666 
L 3309 4666 
L 3309 4134 
L 1259 4134 
L 1259 2759 
L 3109 2759 
L 3109 2228 
L 1259 2228 
L 1259 0 
L 628 0 
L 628 4666 
z
" transform="scale(0.015625)"/>
       <path id="DejaVuSans-53" d="M 1159 525 
L 1159 -1331 
L 581 -1331 
L 581 3500 
L 1159 3500 
L 1159 2969 
Q 1341 3281 1617 3432 
Q 1894 3584 2278 3584 
Q 2916 3584 3314 3078 
Q 3713 2572 3713 1747 
Q 3713 922 3314 415 
Q 2916 -91 2278 -91 
Q 1894 -91 1617 61 
Q 1341 213 1159 525 
z
M 3116 1747 
Q 3116 2381 2855 2742 
Q 2594 3103 2138 3103 
Q 1681 3103 1420 2742 
Q 1159 2381 1159 1747 
Q 1159 1113 1420 752 
Q 1681 391 2138 391 
Q 2594 391 2855 752 
Q 3116 1113 3116 1747 
z
" transform="scale(0.015625)"/>
       <path id="DejaVuSans-51" d="M 3513 2113 
L 3513 0 
L 2938 0 
L 2938 2094 
Q 2938 2591 2744 2837 
Q 2550 3084 2163 3084 
Q 1697 3084 1428 2787 
Q 1159 2491 1159 1978 
L 1159 0 
L 581 0 
L 581 3500 
L 1159 3500 
L 1159 2956 
Q 1366 3272 1645 3428 
Q 1925 3584 2291 3584 
Q 2894 3584 3203 3211 
Q 3513 2838 3513 2113 
z
" transform="scale(0.015625)"/>
      </defs>
      <use xlink:href="#DejaVuSans-29"/>
      <use xlink:href="#DejaVuSans-55" transform="translate(50.234375 0)"/>
      <use xlink:href="#DejaVuSans-48" transform="translate(89.140625 0)"/>
      <use xlink:href="#DejaVuSans-48" transform="translate(150.671875 0)"/>
      <use xlink:href="#DejaVuSans-3" transform="translate(212.203125 0)"/>
      <use xlink:href="#DejaVuSans-4f" transform="translate(243.984375 0)"/>
      <use xlink:href="#DejaVuSans-44" transform="translate(271.765625 0)"/>
      <use xlink:href="#DejaVuSans-46" transform="translate(333.046875 0)"/>
      <use xlink:href="#DejaVuSans-3" transform="translate(388.03125 0)"/>
      <use xlink:href="#DejaVuSans-52" transform="translate(419.8125 0)"/>
      <use xlink:href="#DejaVuSans-53" transform="translate(481 0)"/>
      <use xlink:href="#DejaVuSans-48" transform="translate(544.484375 0)"/>
      <use xlink:href="#DejaVuSans-55" transform="translate(606.015625 0)"/>
      <use xlink:href="#DejaVuSans-52" transform="translate(644.921875 0)"/>
      <use xlink:href="#DejaVuSans-51" transform="translate(706.109375 0)"/>
     </g>
    </g>
   </g>
   <g id="line2d_39">
    <path d="M 56.88098 208.926718 
L 56.961039 290.138166 
L 57.126323 290.138166 
L 57.292876 208.926718 
L 57.408934 208.926718 
L 57.509243 290.138166 
L 58.703811 290.138166 
L 59.675989 208.926718 
L 59.859006 208.926718 
L 59.881345 290.138166 
L 62.259575 290.138166 
L 64.807789 208.926718 
L 65.097422 208.926718 
L 65.232413 290.138166 
L 65.356039 290.138166 
L 71.899558 208.926718 
L 72.066317 290.138166 
L 79.765987 208.926718 
L 79.814149 290.138166 
L 82.393736 208.926718 
L 82.531227 208.926718 
L 82.584423 290.138166 
L 84.293693 290.138166 
L 84.357958 208.926718 
L 85.218606 208.926718 
L 85.405192 290.138166 
L 86.419595 290.138166 
L 89.358771 208.926718 
L 89.889135 208.926718 
L 89.917891 290.138166 
L 90.269409 290.138166 
L 91.135065 208.926718 
L 91.192468 290.138166 
L 91.530171 290.138166 
L 108.300147 208.926718 
L 108.313605 290.138166 
L 108.567453 290.138166 
L 108.83865 208.926718 
L 109.120872 290.138166 
L 109.246655 208.926718 
L 109.647121 208.926718 
L 109.84805 290.138166 
L 110.135464 290.138166 
L 114.223252 208.926718 
L 114.872073 290.138166 
L 116.484768 208.926718 
L 116.794366 290.138166 
L 117.454774 208.926718 
L 117.540538 290.138166 
L 118.53186 208.926718 
L 118.615252 290.138166 
L 122.487616 290.138166 
L 128.398895 208.926718 
L 128.502948 290.138166 
L 130.214082 208.926718 
L 130.656818 208.926718 
L 130.677875 290.138166 
L 132.485276 290.138166 
L 135.034526 208.926718 
L 135.047595 290.138166 
L 137.877161 208.926718 
L 137.919129 290.138166 
L 144.836543 208.926718 
L 145.763989 208.926718 
L 145.831081 290.138166 
L 146.436489 290.138166 
L 146.677142 208.926718 
L 146.986392 208.926718 
L 147.097123 290.138166 
L 148.148594 290.138166 
L 148.650882 208.926718 
L 148.749834 290.138166 
L 149.850887 290.138166 
L 149.862006 208.926718 
L 150.020655 290.138166 
L 154.252129 208.926718 
L 154.339472 290.138166 
L 154.584333 208.926718 
L 193.248443 208.926718 
L 193.283804 290.138166 
L 196.273401 290.138166 
L 196.371204 208.926718 
L 206.127284 208.926718 
L 206.246389 290.138166 
L 207.981153 290.138166 
L 213.372662 208.926718 
L 214.270047 208.926718 
L 214.397465 290.138166 
L 215.434027 290.138166 
L 216.306648 208.926718 
L 216.683235 208.926718 
L 216.71599 290.138166 
L 218.04778 290.138166 
L 224.670778 208.926718 
L 224.752377 290.138166 
L 231.054231 208.926718 
L 231.495857 290.138166 
L 233.163207 208.926718 
L 233.811665 208.926718 
L 233.858731 290.138166 
L 235.069205 290.138166 
L 240.095846 208.926718 
L 240.766372 208.926718 
L 241.028147 290.138166 
L 241.591128 290.138166 
L 242.019071 208.926718 
L 242.164938 290.138166 
L 244.320527 290.138166 
L 245.964306 208.926718 
L 246.017952 290.138166 
L 249.099863 208.926718 
L 249.191605 290.138166 
L 249.807726 290.138166 
L 253.718745 208.926718 
L 253.927248 290.138166 
L 254.240673 208.926718 
L 254.304022 290.138166 
L 261.780309 208.926718 
L 262.306436 208.926718 
L 262.312268 290.138166 
L 262.816588 290.138166 
L 264.388033 208.926718 
L 264.927028 208.926718 
L 265.010435 290.138166 
L 266.001695 290.138166 
L 266.058007 208.926718 
L 266.063148 290.138166 
L 266.819268 290.138166 
L 271.183572 208.926718 
L 271.274989 208.926718 
L 271.313328 290.138166 
L 272.477694 290.138166 
L 288.827104 208.926718 
L 288.930281 208.926718 
L 288.937128 290.138166 
L 289.158995 208.926718 
L 289.513572 290.138166 
L 289.758088 290.138166 
L 295.610804 208.926718 
L 295.631462 290.138166 
L 302.033615 208.926718 
L 302.658012 208.926718 
L 302.774059 290.138166 
L 303.749818 290.138166 
L 304.979731 208.926718 
L 305.187179 208.926718 
L 305.279849 290.138166 
L 305.431943 208.926718 
L 305.507112 290.138166 
L 306.120721 208.926718 
L 306.434728 290.138166 
L 312.422447 208.926718 
L 312.422447 208.926718 
" clip-path="url(#p63023030a6)" style="fill: none; stroke: #000000; stroke-width: 1.5; stroke-linecap: square"/>
   </g>
   <g id="patch_13">
    <path d="M 44.103906 294.198739 
L 44.103906 204.866146 
" style="fill: none; stroke: #000000; stroke-width: 0.8; stroke-linejoin: miter; stroke-linecap: square"/>
   </g>
   <g id="patch_14">
    <path d="M 325.19952 294.198739 
L 325.19952 204.866146 
" style="fill: none; stroke: #000000; stroke-width: 0.8; stroke-linejoin: miter; stroke-linecap: square"/>
   </g>
   <g id="patch_15">
    <path d="M 44.103906 294.198739 
L 325.19952 294.198739 
" style="fill: none; stroke: #000000; stroke-width: 0.8; stroke-linejoin: miter; stroke-linecap: square"/>
   </g>
   <g id="patch_16">
    <path d="M 44.103906 204.866146 
L 325.19952 204.866146 
" style="fill: none; stroke: #000000; stroke-width: 0.8; stroke-linejoin: miter; stroke-linecap: square"/>
   </g>
  </g>
 </g>
 <defs>
  <clipPath id="p5b12f4075d">
   <rect x="44.103906" y="7.2" width="281.095614" height="89.332593"/>
  </clipPath>
  <clipPath id="p8fb370ab09">
   <rect x="44.103906" y="106.033073" width="281.095614" height="89.332593"/>
  </clipPath>
  <clipPath id="p63023030a6">
   <rect x="44.103906" y="204.866146" width="281.095614" height="89.332593"/>
  </clipPath>
 </defs>
</svg>
