<?xml version="1.0" encoding="utf-8" standalone="no"?>
<!DOCTYPE svg PUBLIC "-//W3C//DTD SVG 1.1//EN"
  "http://www.w3.org/Graphics/SVG/1.1/DTD/svg11.dtd">
<svg xmlns:xlink="http://www.w3.org/1999/xlink" width="332.39952pt" height="332.39952pt" viewBox="0 0 332.39952 332.39952" xmlns="http://www.w3.org/2000/svg" version="1.1">
 <metadata>
  <rdf:RDF xmlns:dc="http://purl.org/dc/elements/1.1/" xmlns:cc="http://creativecommons.org/ns#" xmlns:rdf="http://www.w3.org/1999/02/22-rdf-syntax-ns#">
   <cc:Work>
    <dc:type rdf:resource="http://purl.org/dc/dcmitype/StillImage"/>
    <dc:date>2026-06-09T15:20:37.771980</dc:date>
    <dc:format>image/svg+xml</dc:format>
    <dc:creator>
     <cc:Agent>
      <dc:title>Matplotlib v3.10.9, https://matplotlib.org/</dc:title>
     </cc:Agent>
    </dc:creator>
   </cc:Work>
  </rdf:RDF>
 </metadata>
 <defs>
  <style type="text/css">*{stroke-linejoin: round; stroke-linecap: butt}</style>
 </defs>
 <g id="figure_1">
  <g id="patch_1">
   <path d="M 0 332.39952 
L 332.39952 332.39952 
L 332.39952 0 
L 0 0 
z
" style="fill: #ffffff"/>
  </g>
  <g id="axes_1">
   <g id="patch_2">
    <path d="M 43.78125 96.747437 
L 325.19952 96.747437 
L 325.19952 7.2 
L 43.78125 7.2 
z
" style="fill: #ffffff"/>
   </g>
   <g id="matplotlib.axis_1">
    <g id="xtick_1">
     <g id="line2d_1">
      <defs>
       <path id="m5264415e0a" d="M 0 0 
L 0 3.5 
" style="stroke: #000000; stroke-width: 0.8"/>
      </defs>
      <g>
       <use xlink:href="#m5264415e0a" x="56.57299" y="96.747437" style="stroke: #000000; stroke-width: 0.8"/>
      </g>
     </g>
    </g>
    <g id="xtick_2">
     <g id="line2d_2">
      <g>
       <use xlink:href="#m5264415e0a" x="88.4906" y="96.747437" style="stroke: #000000; stroke-width: 0.8"/>
      </g>
     </g>
    </g>
    <g id="xtick_3">
     <g id="line2d_3">
      <g>
       <use xlink:href="#m5264415e0a" x="120.40821" y="96.747437" style="stroke: #000000; stroke-width: 0.8"/>
      </g>
     </g>
    </g>
    <g id="xtick_4">
     <g id="line2d_4">
      <g>
       <use xlink:href="#m5264415e0a" x="152.325821" y="96.747437" style="stroke: #000000; stroke-width: 0.8"/>
      </g>
     </g>
    </g>
    <g id="xtick_5">
     <g id="line2d_5">
      <g>
       <use xlink:href="#m5264415e0a" x="184.243431" y="96.747437" style="stroke: #000000; stroke-width: 0.8"/>
      </g>
     </g>
    </g>
    <g id="xtick_6">
     <g id="line2d_6">
      <g>
       <use xlink:href="#m5264415e0a" x="216.161042" y="96.747437" style="stroke: #000000; stroke-width: 0.8"/>
      </g>
     </g>
    </g>
    <g id="xtick_7">
     <g id="line2d_7">
      <g>
       <use xlink:href="#m5264415e0a" x="248.078652" y="96.747437" style="stroke: #000000; stroke-width: 0.8"/>
      </g>
     </g>
    </g>
    <g id="xtick_8">
     <g id="line2d_8">
      <g>
       <use xlink:href="#m5264415e0a" x="279.996262" y="96.747437" style="stroke: #000000; stroke-width: 0.8"/>
      </g>
     </g>
    </g>
    <g id="xtick_9">
     <g id="line2d_9">
      <g>
       <use xlink:href="#m5264415e0a" x="311.913873" y="96.747437" style="stroke: #000000; stroke-width: 0.8"/>
      </g>
     </g>
    </g>
   </g>
   <g id="matplotlib.axis_2">
    <g id="ytick_1">
     <g id="line2d_10">
      <defs>
       <path id="me9bc7d239d" d="M 0 0 
L -3.5 0 
" style="stroke: #000000; stroke-width: 0.8"/>
      </defs>
      <g>
       <use xlink:href="#me9bc7d239d" x="43.78125" y="92.677099" style="stroke: #000000; stroke-width: 0.8"/>
      </g>
     </g>
     <g id="text_1">
      <!-- 0 -->
      <g transform="translate(30.41875 96.476317) scale(0.1 -0.1)">
       <defs>
        <path id="DejaVuSans-30" d="M 2034 4250 
Q 1547 4250 1301 3770 
Q 1056 3291 1056 2328 
Q 1056 1369 1301 889 
Q 1547 409 2034 409 
Q 2525 409 2770 889 
Q 3016 1369 3016 2328 
Q 3016 3291 2770 3770 
Q 2525 4250 2034 4250 
z
M 2034 4750 
Q 2819 4750 3233 4129 
Q 3647 3509 3647 2328 
Q 3647 1150 3233 529 
Q 2819 -91 2034 -91 
Q 1250 -91 836 529 
Q 422 1150 422 2328 
Q 422 3509 836 4129 
Q 1250 4750 2034 4750 
z
" transform="scale(0.015625)"/>
       </defs>
       <use xlink:href="#DejaVuSans-30"/>
      </g>
     </g>
    </g>
    <g id="ytick_2">
     <g id="line2d_11">
      <g>
       <use xlink:href="#me9bc7d239d" x="43.78125" y="51.973718" style="stroke: #000000; stroke-width: 0.8"/>
      </g>
     </g>
     <g id="text_2">
      <!-- 5 -->
      <g transform="translate(30.41875 55.772937) scale(0.1 -0.1)">
       <defs>
        <path id="DejaVuSans-35" d="M 691 4666 
L 3169 4666 
L 3169 4134 
L 1269 4134 
L 1269 2991 
Q 1406 3038 1543 3061 
Q 1681 3084 1819 3084 
Q 2600 3084 3056 2656 
Q 3513 2228 3513 1497 
Q 3513 744 3044 326 
Q 2575 -91 1722 -91 
Q 1428 -91 1123 -41 
Q 819 9 494 109 
L 494 744 
Q 775 591 1075 516 
Q 1375 441 1709 441 
Q 2250 441 2565 725 
Q 2881 1009 2881 1497 
Q 2881 1984 2565 2268 
Q 2250 2553 1709 2553 
Q 1456 2553 1204 2497 
Q 953 2441 691 2322 
L 691 4666 
z
" transform="scale(0.015625)"/>
       </defs>
       <use xlink:href="#DejaVuSans-35"/>
      </g>
     </g>
    </g>
    <g id="ytick_3">
     <g id="line2d_12">
      <g>
       <use xlink:href="#me9bc7d239d" x="43.78125" y="11.270338" style="stroke: #000000; stroke-width: 0.8"/>
      </g>
     </g>
     <g id="text_3">
      <!-- 10 -->
      <g transform="translate(24.05625 15.069557) scale(0.1 -0.1)">
       <defs>
        <path id="DejaVuSans-31" d="M 794 531 
L 1825 531 
L 1825 4091 
L 703 3866 
L 703 4441 
L 1819 4666 
L 2450 4666 
L 2450 531 
L 3481 531 
L 3481 0 
L 794 0 
L 794 531 
z
" transform="scale(0.015625)"/>
       </defs>
       <use xlink:href="#DejaVuSans-31"/>
       <use xlink:href="#DejaVuSans-30" transform="translate(63.623047 0)"/>
      </g>
     </g>
    </g>
    <g id="text_4">
     <!-- Extracellular lactose -->
     <g transform="translate(17.976562 102.945593) rotate(-90) scale(0.1 -0.1)">
      <defs>
       <path id="DejaVuSans-45" d="M 628 4666 
L 3578 4666 
L 3578 4134 
L 1259 4134 
L 1259 2753 
L 3481 2753 
L 3481 2222 
L 1259 2222 
L 1259 531 
L 3634 531 
L 3634 0 
L 628 0 
L 628 4666 
z
" transform="scale(0.015625)"/>
       <path id="DejaVuSans-78" d="M 3513 3500 
L 2247 1797 
L 3578 0 
L 2900 0 
L 1881 1375 
L 863 0 
L 184 0 
L 1544 1831 
L 300 3500 
L 978 3500 
L 1906 2253 
L 2834 3500 
L 3513 3500 
z
" transform="scale(0.015625)"/>
       <path id="DejaVuSans-74" d="M 1172 4494 
L 1172 3500 
L 2356 3500 
L 2356 3053 
L 1172 3053 
L 1172 1153 
Q 1172 725 1289 603 
Q 1406 481 1766 481 
L 2356 481 
L 2356 0 
L 1766 0 
Q 1100 0 847 248 
Q 594 497 594 1153 
L 594 3053 
L 172 3053 
L 172 3500 
L 594 3500 
L 594 4494 
L 1172 4494 
z
" transform="scale(0.015625)"/>
       <path id="DejaVuSans-72" d="M 2631 2963 
Q 2534 3019 2420 3045 
Q 2306 3072 2169 3072 
Q 1681 3072 1420 2755 
Q 1159 2438 1159 1844 
L 1159 0 
L 581 0 
L 581 3500 
L 1159 3500 
L 1159 2956 
Q 1341 3275 1631 3429 
Q 1922 3584 2338 3584 
Q 2397 3584 2469 3576 
Q 2541 3569 2628 3553 
L 2631 2963 
z
" transform="scale(0.015625)"/>
       <path id="DejaVuSans-61" d="M 2194 1759 
Q 1497 1759 1228 1600 
Q 959 1441 959 1056 
Q 959 750 1161 570 
Q 1363 391 1709 391 
Q 2188 391 2477 730 
Q 2766 1069 2766 1631 
L 2766 1759 
L 2194 1759 
z
M 3341 1997 
L 3341 0 
L 2766 0 
L 2766 531 
Q 2569 213 2275 61 
Q 1981 -91 1556 -91 
Q 1019 -91 701 211 
Q 384 513 384 1019 
Q 384 1609 779 1909 
Q 1175 2209 1959 2209 
L 2766 2209 
L 2766 2266 
Q 2766 2663 2505 2880 
Q 2244 3097 1772 3097 
Q 1472 3097 1187 3025 
Q 903 2953 641 2809 
L 641 3341 
Q 956 3463 1253 3523 
Q 1550 3584 1831 3584 
Q 2591 3584 2966 3190 
Q 3341 2797 3341 1997 
z
" transform="scale(0.015625)"/>
       <path id="DejaVuSans-63" d="M 3122 3366 
L 3122 2828 
Q 2878 2963 2633 3030 
Q 2388 3097 2138 3097 
Q 1578 3097 1268 2742 
Q 959 2388 959 1747 
Q 959 1106 1268 751 
Q 1578 397 2138 397 
Q 2388 397 2633 464 
Q 2878 531 3122 666 
L 3122 134 
Q 2881 22 2623 -34 
Q 2366 -91 2075 -91 
Q 1284 -91 818 406 
Q 353 903 353 1747 
Q 353 2603 823 3093 
Q 1294 3584 2113 3584 
Q 2378 3584 2631 3529 
Q 2884 3475 3122 3366 
z
" transform="scale(0.015625)"/>
       <path id="DejaVuSans-65" d="M 3597 1894 
L 3597 1613 
L 953 1613 
Q 991 1019 1311 708 
Q 1631 397 2203 397 
Q 2534 397 2845 478 
Q 3156 559 3463 722 
L 3463 178 
Q 3153 47 2828 -22 
Q 2503 -91 2169 -91 
Q 1331 -91 842 396 
Q 353 884 353 1716 
Q 353 2575 817 3079 
Q 1281 3584 2069 3584 
Q 2775 3584 3186 3129 
Q 3597 2675 3597 1894 
z
M 3022 2063 
Q 3016 2534 2758 2815 
Q 2500 3097 2075 3097 
Q 1594 3097 1305 2825 
Q 1016 2553 972 2059 
L 3022 2063 
z
" transform="scale(0.015625)"/>
       <path id="DejaVuSans-6c" d="M 603 4863 
L 1178 4863 
L 1178 0 
L 603 0 
L 603 4863 
z
" transform="scale(0.015625)"/>
       <path id="DejaVuSans-75" d="M 544 1381 
L 544 3500 
L 1119 3500 
L 1119 1403 
Q 1119 906 1312 657 
Q 1506 409 1894 409 
Q 2359 409 2629 706 
Q 2900 1003 2900 1516 
L 2900 3500 
L 3475 3500 
L 3475 0 
L 2900 0 
L 2900 538 
Q 2691 219 2414 64 
Q 2138 -91 1772 -91 
Q 1169 -91 856 284 
Q 544 659 544 1381 
z
M 1991 3584 
L 1991 3584 
z
" transform="scale(0.015625)"/>
       <path id="DejaVuSans-20" transform="scale(0.015625)"/>
       <path id="DejaVuSans-6f" d="M 1959 3097 
Q 1497 3097 1228 2736 
Q 959 2375 959 1747 
Q 959 1119 1226 758 
Q 1494 397 1959 397 
Q 2419 397 2687 759 
Q 2956 1122 2956 1747 
Q 2956 2369 2687 2733 
Q 2419 3097 1959 3097 
z
M 1959 3584 
Q 2709 3584 3137 3096 
Q 3566 2609 3566 1747 
Q 3566 888 3137 398 
Q 2709 -91 1959 -91 
Q 1206 -91 779 398 
Q 353 888 353 1747 
Q 353 2609 779 3096 
Q 1206 3584 1959 3584 
z
" transform="scale(0.015625)"/>
       <path id="DejaVuSans-73" d="M 2834 3397 
L 2834 2853 
Q 2591 2978 2328 3040 
Q 2066 3103 1784 3103 
Q 1356 3103 1142 2972 
Q 928 2841 928 2578 
Q 928 2378 1081 2264 
Q 1234 2150 1697 2047 
L 1894 2003 
Q 2506 1872 2764 1633 
Q 3022 1394 3022 966 
Q 3022 478 2636 193 
Q 2250 -91 1575 -91 
Q 1294 -91 989 -36 
Q 684 19 347 128 
L 347 722 
Q 666 556 975 473 
Q 1284 391 1588 391 
Q 1994 391 2212 530 
Q 2431 669 2431 922 
Q 2431 1156 2273 1281 
Q 2116 1406 1581 1522 
L 1381 1569 
Q 847 1681 609 1914 
Q 372 2147 372 2553 
Q 372 3047 722 3315 
Q 1072 3584 1716 3584 
Q 2034 3584 2315 3537 
Q 2597 3491 2834 3397 
z
" transform="scale(0.015625)"/>
      </defs>
      <use xlink:href="#DejaVuSans-45"/>
      <use xlink:href="#DejaVuSans-78" transform="translate(63.183594 0)"/>
      <use xlink:href="#DejaVuSans-74" transform="translate(122.363281 0)"/>
      <use xlink:href="#DejaVuSans-72" transform="translate(161.572266 0)"/>
      <use xlink:href="#DejaVuSans-61" transform="translate(202.685547 0)"/>
      <use xlink:href="#DejaVuSans-63" transform="translate(263.964844 0)"/>
      <use xlink:href="#DejaVuSans-65" transform="translate(318.945312 0)"/>
      <use xlink:href="#DejaVuSans-6c" transform="translate(380.46875 0)"/>
      <use xlink:href="#DejaVuSans-6c" transform="translate(408.251953 0)"/>
      <use xlink:href="#DejaVuSans-75" transform="translate(436.035156 0)"/>
      <use xlink:href="#DejaVuSans-6c" transform="translate(499.414062 0)"/>
      <use xlink:href="#DejaVuSans-61" transform="translate(527.197266 0)"/>
      <use xlink:href="#DejaVuSans-72" transform="translate(588.476562 0)"/>
      <use xlink:href="#DejaVuSans-20" transform="translate(629.589844 0)"/>
      <use xlink:href="#DejaVuSans-6c" transform="translate(661.376953 0)"/>
      <use xlink:href="#DejaVuSans-61" transform="translate(689.160156 0)"/>
      <use xlink:href="#DejaVuSans-63" transform="translate(750.439453 0)"/>
      <use xlink:href="#DejaVuSans-74" transform="translate(805.419922 0)"/>
      <use xlink:href="#DejaVuSans-6f" transform="translate(844.628906 0)"/>
      <use xlink:href="#DejaVuSans-73" transform="translate(905.810547 0)"/>
      <use xlink:href="#DejaVuSans-65" transform="translate(957.910156 0)"/>
     </g>
    </g>
   </g>
   <g id="line2d_13">
    <path d="M 56.57299 92.677099 
L 155.858893 92.677099 
L 155.947955 11.270338 
L 156.61567 11.351745 
L 156.733309 11.677372 
L 156.778105 11.758779 
L 156.924239 13.2241 
L 157.042532 14.852235 
L 157.056354 14.933642 
L 157.199808 16.643184 
L 157.223348 16.724591 
L 157.732718 20.225082 
L 158.009834 20.632115 
L 158.069102 20.713522 
L 158.178233 20.794929 
L 158.628643 20.876336 
L 158.725463 21.28337 
L 158.966162 21.690403 
L 159.066582 22.097437 
L 159.187095 22.178844 
L 159.289797 22.667285 
L 159.319779 22.748691 
L 159.428704 23.644166 
L 159.525894 24.53964 
L 159.864838 25.923555 
L 159.910806 26.004962 
L 160.146867 27.388877 
L 160.345275 28.854198 
L 160.364087 28.935605 
L 160.643451 31.296401 
L 160.670964 31.377808 
L 160.783552 32.110469 
L 160.886343 32.191876 
L 160.991816 32.680316 
L 161.041821 32.761723 
L 161.159121 33.57579 
L 161.185937 33.657197 
L 161.295873 34.145638 
L 161.358146 34.227045 
L 161.527321 35.203926 
L 161.597309 35.285332 
L 161.736832 35.773773 
L 161.893277 35.936586 
L 162.373469 36.017993 
L 162.496945 36.425027 
L 162.75114 36.913468 
L 162.930093 36.994874 
L 163.074811 37.564722 
L 163.114026 37.646128 
L 163.171281 37.727535 
L 163.467014 37.808942 
L 163.578882 37.971756 
L 165.17513 38.053162 
L 165.98994 39.925518 
L 166.11747 40.169738 
L 166.555601 40.820992 
L 166.831953 41.716466 
L 166.930171 42.042094 
L 167.299758 43.426008 
L 167.320889 43.507415 
L 168.059565 48.473228 
L 168.182852 49.694329 
L 168.341321 50.91543 
L 169.459878 55.555616 
L 169.553517 55.96265 
L 169.653347 56.532497 
L 169.764007 57.427971 
L 169.932917 58.893293 
L 169.947643 58.9747 
L 170.092896 59.625954 
L 170.115846 59.707361 
L 170.276042 60.847055 
L 170.323252 60.928462 
L 170.442498 61.172682 
L 170.455112 61.254089 
L 170.602545 61.74253 
L 170.681087 62.312377 
L 170.780576 62.47519 
L 170.813286 62.556597 
L 170.942879 62.719411 
L 171.142227 62.800817 
L 171.309857 62.882224 
L 171.854094 62.963631 
L 172.048207 63.452072 
L 172.25492 63.533478 
L 172.363533 63.859105 
L 172.493027 63.940512 
L 172.602689 64.428953 
L 172.741348 64.510359 
L 172.956278 64.9988 
L 172.996744 65.080207 
L 173.121998 65.24302 
L 173.198636 65.324427 
L 173.327604 65.975681 
L 173.378103 66.057088 
L 173.543361 66.708342 
L 173.6684 66.789749 
L 173.76483 67.033969 
L 173.818895 67.115376 
L 173.93459 67.359596 
L 174.252874 68.25507 
L 174.300149 68.336477 
L 174.511659 69.069138 
L 174.562136 69.150545 
L 174.760868 69.557579 
L 174.853668 69.638985 
L 175.129557 70.290239 
L 175.216434 70.371646 
L 175.478816 71.511341 
L 175.496465 71.592748 
L 175.69267 72.406815 
L 176.421411 72.488222 
L 176.545034 72.569629 
L 176.625716 72.651036 
L 177.095353 73.627917 
L 177.299167 73.709323 
L 177.573209 74.03495 
L 177.685361 74.116357 
L 177.841316 74.279171 
L 178.6091 74.360577 
L 178.724784 74.523391 
L 178.762201 74.604798 
L 178.835523 74.686205 
L 178.93004 74.767611 
L 179.012599 74.849018 
L 179.144679 74.930425 
L 179.235396 75.093238 
L 179.324988 75.174645 
L 179.459127 75.337459 
L 179.633401 75.418865 
L 180.012782 75.907306 
L 180.689966 76.31434 
L 181.022417 76.395747 
L 181.473658 76.721374 
L 182.994963 76.80278 
L 183.574916 77.372628 
L 183.688485 77.942475 
L 183.800333 78.023882 
L 183.909164 78.186695 
L 184.199324 78.268102 
L 184.30866 78.430916 
L 184.386016 78.512322 
L 184.976045 79.244983 
L 185.03862 79.32639 
L 185.176068 79.652017 
L 185.326698 79.733424 
L 185.439024 79.977644 
L 185.549869 80.059051 
L 185.800894 80.710305 
L 185.856463 80.791712 
L 186.027478 80.954525 
L 186.118214 81.035932 
L 186.313982 81.442966 
L 186.492949 81.524372 
L 186.58869 81.687186 
L 186.677415 81.768593 
L 186.798748 81.849999 
L 186.997306 81.931406 
L 187.118756 82.257033 
L 187.264792 82.501254 
L 187.373451 82.908287 
L 187.524547 82.989694 
L 187.743557 83.152508 
L 187.892515 83.233914 
L 188.318756 83.722355 
L 188.587086 83.803762 
L 188.718727 84.047982 
L 189.26854 84.129389 
L 189.474699 84.292202 
L 191.160101 84.373609 
L 191.864525 84.617829 
L 192.626398 84.780643 
L 193.132049 84.86205 
L 193.268407 84.943456 
L 193.510299 85.024863 
L 193.687514 85.10627 
L 194.03939 85.187677 
L 194.21571 85.35049 
L 194.772072 85.431897 
L 194.88537 85.513304 
L 195.570727 85.59471 
L 195.614451 85.676117 
L 196.409225 85.757524 
L 196.794341 86.001744 
L 197.137592 86.083151 
L 197.142909 86.164558 
L 198.188263 86.652998 
L 198.750034 86.734405 
L 199.131046 86.978625 
L 199.748413 87.060032 
L 200.562575 87.629879 
L 200.97192 87.711286 
L 201.034665 87.8741 
L 201.858578 87.955507 
L 202.027611 88.036913 
L 202.402685 88.11832 
L 202.493331 88.281134 
L 202.639865 88.36254 
L 202.889735 88.443947 
L 203.363252 88.525354 
L 203.488666 88.606761 
L 204.179691 88.688167 
L 204.259563 88.769574 
L 204.404206 88.850981 
L 204.517311 88.932388 
L 205.186258 89.013794 
L 205.283435 89.095201 
L 206.074734 89.176608 
L 206.402744 89.258015 
L 207.15887 89.339421 
L 207.378071 89.502235 
L 208.242537 89.583642 
L 208.417959 89.665048 
L 210.706118 89.746455 
L 210.943408 89.909269 
L 212.055054 89.990676 
L 212.214955 90.153489 
L 213.291581 90.234896 
L 213.691975 90.397709 
L 214.209064 90.479116 
L 214.325741 90.560523 
L 239.849737 90.64193 
L 239.994997 90.723336 
L 240.39883 90.804743 
L 240.530411 90.88615 
L 277.641953 90.967557 
L 278.031696 91.048963 
L 294.682928 91.13037 
L 294.879661 91.211777 
L 295.880301 91.293184 
L 295.994029 91.37459 
L 312.40778 91.455997 
L 312.40778 91.455997 
" clip-path="url(#p274e7edd4c)" style="fill: none; stroke: #000000; stroke-width: 1.5; stroke-linecap: square"/>
   </g>
   <g id="patch_3">
    <path d="M 43.78125 96.747437 
L 43.78125 7.2 
" style="fill: none; stroke: #000000; stroke-width: 0.8; stroke-linejoin: miter; stroke-linecap: square"/>
   </g>
   <g id="patch_4">
    <path d="M 325.19952 96.747437 
L 325.19952 7.2 
" style="fill: none; stroke: #000000; stroke-width: 0.8; stroke-linejoin: miter; stroke-linecap: square"/>
   </g>
   <g id="patch_5">
    <path d="M 43.78125 96.747437 
L 325.19952 96.747437 
" style="fill: none; stroke: #000000; stroke-width: 0.8; stroke-linejoin: miter; stroke-linecap: square"/>
   </g>
   <g id="patch_6">
    <path d="M 43.78125 7.2 
L 325.19952 7.2 
" style="fill: none; stroke: #000000; stroke-width: 0.8; stroke-linejoin: miter; stroke-linecap: square"/>
   </g>
  </g>
  <g id="axes_2">
   <g id="patch_7">
    <path d="M 43.78125 195.795353 
L 325.19952 195.795353 
L 325.19952 106.247917 
L 43.78125 106.247917 
z
" style="fill: #ffffff"/>
   </g>
   <g id="matplotlib.axis_3">
    <g id="xtick_10">
     <g id="line2d_14">
      <g>
       <use xlink:href="#m5264415e0a" x="56.57299" y="195.795353" style="stroke: #000000; stroke-width: 0.8"/>
      </g>
     </g>
    </g>
    <g id="xtick_11">
     <g id="line2d_15">
      <g>
       <use xlink:href="#m5264415e0a" x="88.4906" y="195.795353" style="stroke: #000000; stroke-width: 0.8"/>
      </g>
     </g>
    </g>
    <g id="xtick_12">
     <g id="line2d_16">
      <g>
       <use xlink:href="#m5264415e0a" x="120.40821" y="195.795353" style="stroke: #000000; stroke-width: 0.8"/>
      </g>
     </g>
    </g>
    <g id="xtick_13">
     <g id="line2d_17">
      <g>
       <use xlink:href="#m5264415e0a" x="152.325821" y="195.795353" style="stroke: #000000; stroke-width: 0.8"/>
      </g>
     </g>
    </g>
    <g id="xtick_14">
     <g id="line2d_18">
      <g>
       <use xlink:href="#m5264415e0a" x="184.243431" y="195.795353" style="stroke: #000000; stroke-width: 0.8"/>
      </g>
     </g>
    </g>
    <g id="xtick_15">
     <g id="line2d_19">
      <g>
       <use xlink:href="#m5264415e0a" x="216.161042" y="195.795353" style="stroke: #000000; stroke-width: 0.8"/>
      </g>
     </g>
    </g>
    <g id="xtick_16">
     <g id="line2d_20">
      <g>
       <use xlink:href="#m5264415e0a" x="248.078652" y="195.795353" style="stroke: #000000; stroke-width: 0.8"/>
      </g>
     </g>
    </g>
    <g id="xtick_17">
     <g id="line2d_21">
      <g>
       <use xlink:href="#m5264415e0a" x="279.996262" y="195.795353" style="stroke: #000000; stroke-width: 0.8"/>
      </g>
     </g>
    </g>
    <g id="xtick_18">
     <g id="line2d_22">
      <g>
       <use xlink:href="#m5264415e0a" x="311.913873" y="195.795353" style="stroke: #000000; stroke-width: 0.8"/>
      </g>
     </g>
    </g>
   </g>
   <g id="matplotlib.axis_4">
    <g id="ytick_4">
     <g id="line2d_23">
      <g>
       <use xlink:href="#me9bc7d239d" x="43.78125" y="191.725015" style="stroke: #000000; stroke-width: 0.8"/>
      </g>
     </g>
     <g id="text_5">
      <!-- 0 -->
      <g transform="translate(30.41875 195.524234) scale(0.1 -0.1)">
       <use xlink:href="#DejaVuSans-30"/>
      </g>
     </g>
    </g>
    <g id="ytick_5">
     <g id="line2d_24">
      <g>
       <use xlink:href="#me9bc7d239d" x="43.78125" y="151.021635" style="stroke: #000000; stroke-width: 0.8"/>
      </g>
     </g>
     <g id="text_6">
      <!-- 5 -->
      <g transform="translate(30.41875 154.820854) scale(0.1 -0.1)">
       <use xlink:href="#DejaVuSans-35"/>
      </g>
     </g>
    </g>
    <g id="ytick_6">
     <g id="line2d_25">
      <g>
       <use xlink:href="#me9bc7d239d" x="43.78125" y="110.318255" style="stroke: #000000; stroke-width: 0.8"/>
      </g>
     </g>
     <g id="text_7">
      <!-- 10 -->
      <g transform="translate(24.05625 114.117473) scale(0.1 -0.1)">
       <use xlink:href="#DejaVuSans-31"/>
       <use xlink:href="#DejaVuSans-30" transform="translate(63.623047 0)"/>
      </g>
     </g>
    </g>
    <g id="text_8">
     <!-- LacY -->
     <g transform="translate(17.976563 162.67476) rotate(-90) scale(0.1 -0.1)">
      <defs>
       <path id="DejaVuSans-4c" d="M 628 4666 
L 1259 4666 
L 1259 531 
L 3531 531 
L 3531 0 
L 628 0 
L 628 4666 
z
" transform="scale(0.015625)"/>
       <path id="DejaVuSans-59" d="M -13 4666 
L 666 4666 
L 1959 2747 
L 3244 4666 
L 3922 4666 
L 2272 2222 
L 2272 0 
L 1638 0 
L 1638 2222 
L -13 4666 
z
" transform="scale(0.015625)"/>
      </defs>
      <use xlink:href="#DejaVuSans-4c"/>
      <use xlink:href="#DejaVuSans-61" transform="translate(55.712891 0)"/>
      <use xlink:href="#DejaVuSans-63" transform="translate(116.992188 0)"/>
      <use xlink:href="#DejaVuSans-59" transform="translate(171.972656 0)"/>
     </g>
    </g>
   </g>
   <g id="line2d_26">
    <path d="M 56.57299 110.318255 
L 56.600121 110.318255 
L 56.654624 118.458931 
L 56.762806 134.740283 
L 56.823157 142.880959 
L 56.975287 142.880959 
L 56.992986 134.740283 
L 57.213607 142.880959 
L 57.355494 142.880959 
L 57.52617 159.162311 
L 57.827115 175.443663 
L 57.892744 191.725015 
L 59.422961 191.725015 
L 59.589607 183.584339 
L 59.632355 191.725015 
L 64.655676 191.725015 
L 64.97868 183.584339 
L 65.08865 191.725015 
L 82.587442 191.725015 
L 82.781878 183.584339 
L 84.575461 191.725015 
L 84.590289 183.584339 
L 84.733517 175.443663 
L 84.738172 167.302987 
L 85.060382 175.443663 
L 85.28738 175.443663 
L 85.407031 191.725015 
L 85.467861 183.584339 
L 85.658116 183.584339 
L 85.796623 191.725015 
L 89.68944 191.725015 
L 90.079298 175.443663 
L 90.080599 167.302987 
L 90.579311 167.302987 
L 90.617986 183.584339 
L 91.390247 183.584339 
L 91.559196 175.443663 
L 91.90354 191.725015 
L 108.911298 191.725015 
L 109.017011 183.584339 
L 109.136737 183.584339 
L 109.275852 191.725015 
L 109.51089 191.725015 
L 109.552382 183.584339 
L 109.968409 183.584339 
L 110.318394 175.443663 
L 110.376751 183.584339 
L 110.552047 183.584339 
L 110.581631 191.725015 
L 119.342777 191.725015 
L 119.521235 183.584339 
L 121.621906 183.584339 
L 123.469748 191.725015 
L 131.23934 191.725015 
L 131.425645 183.584339 
L 131.713265 183.584339 
L 131.821064 191.725015 
L 136.157769 191.725015 
L 136.241516 183.584339 
L 136.263387 191.725015 
L 146.258155 191.725015 
L 146.519055 175.443663 
L 146.539891 183.584339 
L 146.568905 175.443663 
L 146.682041 167.302987 
L 146.687382 175.443663 
L 147.27225 175.443663 
L 147.889563 183.584339 
L 148.134948 183.584339 
L 148.45028 175.443663 
L 148.563188 175.443663 
L 149.635336 191.725015 
L 150.095609 191.725015 
L 150.147501 175.443663 
L 150.248398 175.443663 
L 150.401264 183.584339 
L 150.535013 183.584339 
L 151.078041 191.725015 
L 156.197631 191.725015 
L 156.62601 183.584339 
L 156.866356 151.021635 
L 157.148059 151.021635 
L 157.268194 167.302987 
L 157.318073 167.302987 
L 157.418996 159.162311 
L 157.505994 159.162311 
L 157.615827 175.443663 
L 157.644033 175.443663 
L 157.732718 183.584339 
L 158.084575 183.584339 
L 158.178233 191.725015 
L 158.578017 191.725015 
L 158.6794 183.584339 
L 158.84562 183.584339 
L 158.949753 175.443663 
L 159.095769 175.443663 
L 159.151263 183.584339 
L 159.20577 175.443663 
L 159.312013 175.443663 
L 159.416322 167.302987 
L 159.576402 167.302987 
L 159.701349 183.584339 
L 159.835584 183.584339 
L 159.958694 175.443663 
L 160.107834 175.443663 
L 160.235849 159.162311 
L 160.413026 159.162311 
L 160.481779 151.021635 
L 160.520924 159.162311 
L 160.608385 159.162311 
L 160.658953 151.021635 
L 160.711578 159.162311 
L 160.880292 159.162311 
L 160.991816 175.443663 
L 161.012371 175.443663 
L 161.042774 183.584339 
L 161.051129 167.302987 
L 161.11902 167.302987 
L 161.484938 167.302987 
L 161.597309 175.443663 
L 161.685379 175.443663 
L 161.782102 183.584339 
L 161.870874 183.584339 
L 161.97318 191.725015 
L 162.278061 191.725015 
L 162.422487 183.584339 
L 162.570303 183.584339 
L 162.683687 175.443663 
L 162.720595 175.443663 
L 162.828645 183.584339 
L 163.161049 183.584339 
L 163.270703 191.725015 
L 163.412525 191.725015 
L 163.540334 183.584339 
L 163.571468 183.584339 
L 163.672133 191.725015 
L 164.246137 191.725015 
L 164.259667 183.584339 
L 164.342883 191.725015 
L 164.708693 191.725015 
L 164.712635 183.584339 
L 164.760065 191.725015 
L 165.160719 191.725015 
L 165.287368 175.443663 
L 165.403817 175.443663 
L 165.488222 183.584339 
L 165.933907 183.584339 
L 165.955704 175.443663 
L 166.025585 183.584339 
L 166.194 183.584339 
L 166.268578 191.725015 
L 166.305014 183.584339 
L 166.323937 183.584339 
L 166.474276 167.302987 
L 166.540102 167.302987 
L 166.635261 175.443663 
L 166.730215 175.443663 
L 166.831953 183.584339 
L 166.998208 183.584339 
L 167.072847 167.302987 
L 167.538938 167.302987 
L 167.661735 151.021635 
L 167.779271 151.021635 
L 167.871426 167.302987 
L 167.889656 151.021635 
L 167.921041 151.021635 
L 168.027132 142.880959 
L 168.217294 142.880959 
L 168.314905 151.021635 
L 168.40817 151.021635 
L 168.464589 159.162311 
L 168.506456 151.021635 
L 168.53615 151.021635 
L 168.551599 142.880959 
L 168.581672 159.162311 
L 168.627756 159.162311 
L 168.713815 175.443663 
L 168.73609 167.302987 
L 169.064106 167.302987 
L 169.170791 159.162311 
L 169.31572 159.162311 
L 169.366063 142.880959 
L 169.422297 151.021635 
L 169.5803 151.021635 
L 169.647422 159.162311 
L 169.687563 151.021635 
L 170.024843 151.021635 
L 170.139407 159.162311 
L 170.159403 159.162311 
L 170.241617 142.880959 
L 170.261906 151.021635 
L 170.341563 151.021635 
L 170.417473 159.162311 
L 170.442498 151.021635 
L 170.515444 151.021635 
L 170.631284 159.162311 
L 170.639702 159.162311 
L 170.650989 151.021635 
L 170.745067 167.302987 
L 170.832584 167.302987 
L 170.942879 191.725015 
L 170.972216 191.725015 
L 171.098776 183.584339 
L 171.205439 183.584339 
L 171.309857 191.725015 
L 171.694337 191.725015 
L 171.803074 183.584339 
L 171.843628 183.584339 
L 171.963239 175.443663 
L 172.794275 175.443663 
L 172.858901 167.302987 
L 172.882945 175.443663 
L 173.166395 175.443663 
L 173.327604 159.162311 
L 173.498857 159.162311 
L 173.543361 175.443663 
L 173.590465 167.302987 
L 173.619467 167.302987 
L 173.708173 159.162311 
L 173.714677 167.302987 
L 173.829998 167.302987 
L 173.858194 175.443663 
L 173.93459 167.302987 
L 174.169051 167.302987 
L 174.276494 159.162311 
L 174.400263 167.302987 
L 174.5543 167.302987 
L 174.661258 175.443663 
L 174.708801 175.443663 
L 174.7752 183.584339 
L 174.811121 175.443663 
L 175.210175 175.443663 
L 175.310946 159.162311 
L 175.450879 151.021635 
L 175.569818 151.021635 
L 175.671055 175.443663 
L 175.69267 175.443663 
L 175.811014 183.584339 
L 175.872872 183.584339 
L 175.990657 191.725015 
L 176.238071 191.725015 
L 176.388831 183.584339 
L 176.414062 191.725015 
L 176.453488 175.443663 
L 176.988143 175.443663 
L 177.145345 183.584339 
L 177.353529 183.584339 
L 177.411734 167.302987 
L 177.464777 175.443663 
L 177.491101 175.443663 
L 177.601027 167.302987 
L 177.749215 183.584339 
L 177.900201 175.443663 
L 177.998961 175.443663 
L 178.09675 191.725015 
L 178.531103 191.725015 
L 178.619913 183.584339 
L 178.770151 167.302987 
L 178.834527 167.302987 
L 178.938668 175.443663 
L 179.159738 175.443663 
L 179.210004 167.302987 
L 179.235396 175.443663 
L 179.459127 175.443663 
L 179.501999 167.302987 
L 179.547576 183.584339 
L 179.553612 183.584339 
L 179.798689 183.584339 
L 179.870852 175.443663 
L 179.897504 183.584339 
L 180.689966 183.584339 
L 181.022417 175.443663 
L 181.123492 175.443663 
L 181.199733 183.584339 
L 181.416747 183.584339 
L 181.473658 191.725015 
L 181.949107 191.725015 
L 182.199398 183.584339 
L 182.258377 191.725015 
L 182.442282 191.725015 
L 182.796215 183.584339 
L 182.843936 175.443663 
L 182.877422 183.584339 
L 182.96946 183.584339 
L 182.994963 175.443663 
L 183.289523 175.443663 
L 183.385685 183.584339 
L 183.419953 183.584339 
L 183.700488 151.021635 
L 183.809418 151.021635 
L 183.909164 175.443663 
L 183.971261 175.443663 
L 184.102681 167.302987 
L 184.152331 167.302987 
L 184.17657 159.162311 
L 184.244998 167.302987 
L 184.274241 167.302987 
L 184.363889 175.443663 
L 184.367715 167.302987 
L 184.48196 159.162311 
L 185.018581 159.162311 
L 185.104183 151.021635 
L 185.263417 151.021635 
L 185.265032 159.162311 
L 185.359168 151.021635 
L 185.475968 151.021635 
L 185.660825 159.162311 
L 185.810919 159.162311 
L 185.947088 151.021635 
L 186.027478 151.021635 
L 186.142837 159.162311 
L 186.14619 151.021635 
L 186.240792 159.162311 
L 186.298356 159.162311 
L 186.371289 167.302987 
L 186.376995 159.162311 
L 186.46108 159.162311 
L 186.577817 167.302987 
L 186.721545 142.880959 
L 186.765577 142.880959 
L 186.829418 151.021635 
L 186.864612 142.880959 
L 187.008623 142.880959 
L 187.078398 151.021635 
L 187.118756 142.880959 
L 187.462275 142.880959 
L 187.575785 159.162311 
L 187.639834 159.162311 
L 187.790212 167.302987 
L 188.31539 167.302987 
L 188.408748 175.443663 
L 188.521236 159.162311 
L 188.558519 167.302987 
L 188.650939 167.302987 
L 188.724781 183.584339 
L 189.077 183.584339 
L 189.201913 175.443663 
L 189.315059 183.584339 
L 189.949686 183.584339 
L 190.097664 191.725015 
L 190.784959 191.725015 
L 190.954875 183.584339 
L 192.165308 183.584339 
L 192.287345 175.443663 
L 192.389326 183.584339 
L 192.620651 183.584339 
L 192.626398 191.725015 
L 192.711362 183.584339 
L 192.881957 175.443663 
L 193.053639 175.443663 
L 193.132049 183.584339 
L 193.191868 183.584339 
L 193.331918 167.302987 
L 193.368538 167.302987 
L 193.510299 175.443663 
L 193.604423 175.443663 
L 193.627751 167.302987 
L 193.687514 175.443663 
L 194.000622 183.584339 
L 194.126901 167.302987 
L 194.348359 167.302987 
L 194.491928 183.584339 
L 194.88537 183.584339 
L 194.920537 191.725015 
L 195.058866 191.725015 
L 195.327596 183.584339 
L 195.614451 183.584339 
L 195.805897 175.443663 
L 195.946136 175.443663 
L 196.01901 167.302987 
L 196.202149 175.443663 
L 196.217247 183.584339 
L 196.516589 175.443663 
L 196.645503 175.443663 
L 196.766784 183.584339 
L 196.792412 175.443663 
L 196.794341 183.584339 
L 196.893017 183.584339 
L 197.051847 167.302987 
L 197.085604 175.443663 
L 197.142909 167.302987 
L 197.285247 167.302987 
L 197.313305 159.162311 
L 197.385877 167.302987 
L 197.515045 167.302987 
L 197.605522 175.443663 
L 197.712915 183.584339 
L 197.788774 175.443663 
L 197.850537 183.584339 
L 197.980913 183.584339 
L 198.129133 175.443663 
L 198.226781 175.443663 
L 198.282161 183.584339 
L 198.47557 183.584339 
L 198.59655 175.443663 
L 198.713809 191.725015 
L 198.750034 183.584339 
L 199.044516 183.584339 
L 199.118036 191.725015 
L 199.131046 183.584339 
L 199.640407 183.584339 
L 199.87082 167.302987 
L 199.923026 175.443663 
L 199.958141 167.302987 
L 200.599748 167.302987 
L 200.606426 175.443663 
L 200.686637 167.302987 
L 200.73805 167.302987 
L 200.859662 175.443663 
L 200.891844 175.443663 
L 201.018708 183.584339 
L 201.165247 183.584339 
L 201.190137 175.443663 
L 201.304515 183.584339 
L 201.610672 183.584339 
L 201.858578 175.443663 
L 202.072055 175.443663 
L 202.223471 159.162311 
L 202.552167 159.162311 
L 202.639865 151.021635 
L 202.740344 151.021635 
L 202.788917 142.880959 
L 202.835267 151.021635 
L 202.855456 142.880959 
L 202.889735 159.162311 
L 202.908457 159.162311 
L 203.011873 142.880959 
L 203.030299 151.021635 
L 203.097703 151.021635 
L 203.182078 159.162311 
L 203.339135 159.162311 
L 203.455807 167.302987 
L 203.476381 167.302987 
L 203.595451 159.162311 
L 203.670693 167.302987 
L 203.905572 167.302987 
L 204.091826 183.584339 
L 204.134476 183.584339 
L 204.184544 175.443663 
L 204.207605 183.584339 
L 204.259563 183.584339 
L 204.410911 175.443663 
L 204.928893 175.443663 
L 205.050664 167.302987 
L 205.44683 191.725015 
L 205.608846 175.443663 
L 205.749278 175.443663 
L 205.931658 159.162311 
L 206.047677 159.162311 
L 206.074734 167.302987 
L 206.402744 167.302987 
L 206.537576 175.443663 
L 206.948531 175.443663 
L 207.15887 159.162311 
L 207.21728 159.162311 
L 207.378071 183.584339 
L 207.753877 183.584339 
L 207.886711 175.443663 
L 208.012116 191.725015 
L 208.100771 183.584339 
L 208.401103 183.584339 
L 208.523686 167.302987 
L 208.67885 175.443663 
L 208.750384 175.443663 
L 208.83037 191.725015 
L 209.063519 191.725015 
L 209.120379 183.584339 
L 209.455285 183.584339 
L 209.491189 191.725015 
L 210.076059 183.584339 
L 210.821192 183.584339 
L 210.943408 191.725015 
L 211.02731 191.725015 
L 211.083838 183.584339 
L 211.373623 175.443663 
L 211.487047 175.443663 
L 211.979712 167.302987 
L 212.142952 159.162311 
L 212.291414 175.443663 
L 212.388208 183.584339 
L 212.538609 175.443663 
L 212.913756 175.443663 
L 212.992419 183.584339 
L 212.997545 175.443663 
L 213.100141 167.302987 
L 213.206858 167.302987 
L 213.291581 159.162311 
L 213.603409 159.162311 
L 213.691975 175.443663 
L 213.718678 167.302987 
L 213.86288 159.162311 
L 214.139632 159.162311 
L 214.247437 167.302987 
L 214.325741 167.302987 
L 214.407896 175.443663 
L 214.624147 183.584339 
L 214.849283 183.584339 
L 214.93062 191.725015 
L 222.969175 191.725015 
L 223.085471 175.443663 
L 223.306354 175.443663 
L 223.52129 183.584339 
L 224.706023 191.725015 
L 224.876402 183.584339 
L 224.914989 191.725015 
L 239.32897 191.725015 
L 239.565911 167.302987 
L 239.786063 191.725015 
L 239.921177 175.443663 
L 239.954348 183.584339 
L 240.041586 183.584339 
L 240.111159 175.443663 
L 240.307278 183.584339 
L 240.530411 167.302987 
L 240.62966 183.584339 
L 240.732986 175.443663 
L 240.989139 175.443663 
L 241.006827 167.302987 
L 241.095275 175.443663 
L 241.607633 175.443663 
L 241.745001 183.584339 
L 241.961601 183.584339 
L 242.116827 191.725015 
L 247.699366 191.725015 
L 247.790702 183.584339 
L 247.945404 183.584339 
L 248.031965 191.725015 
L 257.092619 191.725015 
L 257.712889 183.584339 
L 258.026151 167.302987 
L 258.067789 175.443663 
L 258.122051 167.302987 
L 258.14357 167.302987 
L 258.334715 175.443663 
L 258.402481 183.584339 
L 258.78885 191.725015 
L 269.322229 191.725015 
L 269.607931 183.584339 
L 269.739823 191.725015 
L 277.508396 191.725015 
L 277.641953 183.584339 
L 277.853529 183.584339 
L 277.864129 191.725015 
L 282.738482 191.725015 
L 283.175717 175.443663 
L 283.380158 175.443663 
L 284.023855 183.584339 
L 284.141365 191.725015 
L 285.630107 191.725015 
L 285.7826 175.443663 
L 286.118913 183.584339 
L 286.188016 183.584339 
L 286.354593 191.725015 
L 293.797543 191.725015 
L 293.799138 183.584339 
L 294.250443 183.584339 
L 294.508286 167.302987 
L 294.682928 175.443663 
L 294.749278 175.443663 
L 294.879661 183.584339 
L 294.981405 183.584339 
L 295.020382 175.443663 
L 295.182347 183.584339 
L 295.342683 183.584339 
L 295.600954 175.443663 
L 295.735612 159.162311 
L 295.878863 159.162311 
L 295.931376 167.302987 
L 296.212073 167.302987 
L 296.334071 175.443663 
L 296.375954 191.725015 
L 310.081851 191.725015 
L 310.801572 183.584339 
L 311.028583 175.443663 
L 311.122497 183.584339 
L 311.196227 183.584339 
L 311.371836 191.725015 
L 312.40778 191.725015 
L 312.40778 191.725015 
" clip-path="url(#p4ddd38a40d)" style="fill: none; stroke: #000000; stroke-width: 1.5; stroke-linecap: square"/>
   </g>
   <g id="patch_8">
    <path d="M 43.78125 195.795353 
L 43.78125 106.247917 
" style="fill: none; stroke: #000000; stroke-width: 0.8; stroke-linejoin: miter; stroke-linecap: square"/>
   </g>
   <g id="patch_9">
    <path d="M 325.19952 195.795353 
L 325.19952 106.247917 
" style="fill: none; stroke: #000000; stroke-width: 0.8; stroke-linejoin: miter; stroke-linecap: square"/>
   </g>
   <g id="patch_10">
    <path d="M 43.78125 195.795353 
L 325.19952 195.795353 
" style="fill: none; stroke: #000000; stroke-width: 0.8; stroke-linejoin: miter; stroke-linecap: square"/>
   </g>
   <g id="patch_11">
    <path d="M 43.78125 106.247917 
L 325.19952 106.247917 
" style="fill: none; stroke: #000000; stroke-width: 0.8; stroke-linejoin: miter; stroke-linecap: square"/>
   </g>
  </g>
  <g id="axes_3">
   <g id="patch_12">
    <path d="M 43.78125 294.84327 
L 325.19952 294.84327 
L 325.19952 205.295833 
L 43.78125 205.295833 
z
" style="fill: #ffffff"/>
   </g>
   <g id="matplotlib.axis_5">
    <g id="xtick_19">
     <g id="line2d_27">
      <g>
       <use xlink:href="#m5264415e0a" x="56.57299" y="294.84327" style="stroke: #000000; stroke-width: 0.8"/>
      </g>
     </g>
     <g id="text_9">
      <!-- 0 -->
      <g transform="translate(53.39174 309.441707) scale(0.1 -0.1)">
       <use xlink:href="#DejaVuSans-30"/>
      </g>
     </g>
    </g>
    <g id="xtick_20">
     <g id="line2d_28">
      <g>
       <use xlink:href="#m5264415e0a" x="88.4906" y="294.84327" style="stroke: #000000; stroke-width: 0.8"/>
      </g>
     </g>
     <g id="text_10">
      <!-- 100 -->
      <g transform="translate(78.94685 309.441707) scale(0.1 -0.1)">
       <use xlink:href="#DejaVuSans-31"/>
       <use xlink:href="#DejaVuSans-30" transform="translate(63.623047 0)"/>
       <use xlink:href="#DejaVuSans-30" transform="translate(127.246094 0)"/>
      </g>
     </g>
    </g>
    <g id="xtick_21">
     <g id="line2d_29">
      <g>
       <use xlink:href="#m5264415e0a" x="120.40821" y="294.84327" style="stroke: #000000; stroke-width: 0.8"/>
      </g>
     </g>
     <g id="text_11">
      <!-- 200 -->
      <g transform="translate(110.86446 309.441707) scale(0.1 -0.1)">
       <defs>
        <path id="DejaVuSans-32" d="M 1228 531 
L 3431 531 
L 3431 0 
L 469 0 
L 469 531 
Q 828 903 1448 1529 
Q 2069 2156 2228 2338 
Q 2531 2678 2651 2914 
Q 2772 3150 2772 3378 
Q 2772 3750 2511 3984 
Q 2250 4219 1831 4219 
Q 1534 4219 1204 4116 
Q 875 4013 500 3803 
L 500 4441 
Q 881 4594 1212 4672 
Q 1544 4750 1819 4750 
Q 2544 4750 2975 4387 
Q 3406 4025 3406 3419 
Q 3406 3131 3298 2873 
Q 3191 2616 2906 2266 
Q 2828 2175 2409 1742 
Q 1991 1309 1228 531 
z
" transform="scale(0.015625)"/>
       </defs>
       <use xlink:href="#DejaVuSans-32"/>
       <use xlink:href="#DejaVuSans-30" transform="translate(63.623047 0)"/>
       <use xlink:href="#DejaVuSans-30" transform="translate(127.246094 0)"/>
      </g>
     </g>
    </g>
    <g id="xtick_22">
     <g id="line2d_30">
      <g>
       <use xlink:href="#m5264415e0a" x="152.325821" y="294.84327" style="stroke: #000000; stroke-width: 0.8"/>
      </g>
     </g>
     <g id="text_12">
      <!-- 300 -->
      <g transform="translate(142.782071 309.441707) scale(0.1 -0.1)">
       <defs>
        <path id="DejaVuSans-33" d="M 2597 2516 
Q 3050 2419 3304 2112 
Q 3559 1806 3559 1356 
Q 3559 666 3084 287 
Q 2609 -91 1734 -91 
Q 1441 -91 1130 -33 
Q 819 25 488 141 
L 488 750 
Q 750 597 1062 519 
Q 1375 441 1716 441 
Q 2309 441 2620 675 
Q 2931 909 2931 1356 
Q 2931 1769 2642 2001 
Q 2353 2234 1838 2234 
L 1294 2234 
L 1294 2753 
L 1863 2753 
Q 2328 2753 2575 2939 
Q 2822 3125 2822 3475 
Q 2822 3834 2567 4026 
Q 2313 4219 1838 4219 
Q 1578 4219 1281 4162 
Q 984 4106 628 3988 
L 628 4550 
Q 988 4650 1302 4700 
Q 1616 4750 1894 4750 
Q 2613 4750 3031 4423 
Q 3450 4097 3450 3541 
Q 3450 3153 3228 2886 
Q 3006 2619 2597 2516 
z
" transform="scale(0.015625)"/>
       </defs>
       <use xlink:href="#DejaVuSans-33"/>
       <use xlink:href="#DejaVuSans-30" transform="translate(63.623047 0)"/>
       <use xlink:href="#DejaVuSans-30" transform="translate(127.246094 0)"/>
      </g>
     </g>
    </g>
    <g id="xtick_23">
     <g id="line2d_31">
      <g>
       <use xlink:href="#m5264415e0a" x="184.243431" y="294.84327" style="stroke: #000000; stroke-width: 0.8"/>
      </g>
     </g>
     <g id="text_13">
      <!-- 400 -->
      <g transform="translate(174.699681 309.441707) scale(0.1 -0.1)">
       <defs>
        <path id="DejaVuSans-34" d="M 2419 4116 
L 825 1625 
L 2419 1625 
L 2419 4116 
z
M 2253 4666 
L 3047 4666 
L 3047 1625 
L 3713 1625 
L 3713 1100 
L 3047 1100 
L 3047 0 
L 2419 0 
L 2419 1100 
L 313 1100 
L 313 1709 
L 2253 4666 
z
" transform="scale(0.015625)"/>
       </defs>
       <use xlink:href="#DejaVuSans-34"/>
       <use xlink:href="#DejaVuSans-30" transform="translate(63.623047 0)"/>
       <use xlink:href="#DejaVuSans-30" transform="translate(127.246094 0)"/>
      </g>
     </g>
    </g>
    <g id="xtick_24">
     <g id="line2d_32">
      <g>
       <use xlink:href="#m5264415e0a" x="216.161042" y="294.84327" style="stroke: #000000; stroke-width: 0.8"/>
      </g>
     </g>
     <g id="text_14">
      <!-- 500 -->
      <g transform="translate(206.617292 309.441707) scale(0.1 -0.1)">
       <use xlink:href="#DejaVuSans-35"/>
       <use xlink:href="#DejaVuSans-30" transform="translate(63.623047 0)"/>
       <use xlink:href="#DejaVuSans-30" transform="translate(127.246094 0)"/>
      </g>
     </g>
    </g>
    <g id="xtick_25">
     <g id="line2d_33">
      <g>
       <use xlink:href="#m5264415e0a" x="248.078652" y="294.84327" style="stroke: #000000; stroke-width: 0.8"/>
      </g>
     </g>
     <g id="text_15">
      <!-- 600 -->
      <g transform="translate(238.534902 309.441707) scale(0.1 -0.1)">
       <defs>
        <path id="DejaVuSans-36" d="M 2113 2584 
Q 1688 2584 1439 2293 
Q 1191 2003 1191 1497 
Q 1191 994 1439 701 
Q 1688 409 2113 409 
Q 2538 409 2786 701 
Q 3034 994 3034 1497 
Q 3034 2003 2786 2293 
Q 2538 2584 2113 2584 
z
M 3366 4563 
L 3366 3988 
Q 3128 4100 2886 4159 
Q 2644 4219 2406 4219 
Q 1781 4219 1451 3797 
Q 1122 3375 1075 2522 
Q 1259 2794 1537 2939 
Q 1816 3084 2150 3084 
Q 2853 3084 3261 2657 
Q 3669 2231 3669 1497 
Q 3669 778 3244 343 
Q 2819 -91 2113 -91 
Q 1303 -91 875 529 
Q 447 1150 447 2328 
Q 447 3434 972 4092 
Q 1497 4750 2381 4750 
Q 2619 4750 2861 4703 
Q 3103 4656 3366 4563 
z
" transform="scale(0.015625)"/>
       </defs>
       <use xlink:href="#DejaVuSans-36"/>
       <use xlink:href="#DejaVuSans-30" transform="translate(63.623047 0)"/>
       <use xlink:href="#DejaVuSans-30" transform="translate(127.246094 0)"/>
      </g>
     </g>
    </g>
    <g id="xtick_26">
     <g id="line2d_34">
      <g>
       <use xlink:href="#m5264415e0a" x="279.996262" y="294.84327" style="stroke: #000000; stroke-width: 0.8"/>
      </g>
     </g>
     <g id="text_16">
      <!-- 700 -->
      <g transform="translate(270.452512 309.441707) scale(0.1 -0.1)">
       <defs>
        <path id="DejaVuSans-37" d="M 525 4666 
L 3525 4666 
L 3525 4397 
L 1831 0 
L 1172 0 
L 2766 4134 
L 525 4134 
L 525 4666 
z
" transform="scale(0.015625)"/>
       </defs>
       <use xlink:href="#DejaVuSans-37"/>
       <use xlink:href="#DejaVuSans-30" transform="translate(63.623047 0)"/>
       <use xlink:href="#DejaVuSans-30" transform="translate(127.246094 0)"/>
      </g>
     </g>
    </g>
    <g id="xtick_27">
     <g id="line2d_35">
      <g>
       <use xlink:href="#m5264415e0a" x="311.913873" y="294.84327" style="stroke: #000000; stroke-width: 0.8"/>
      </g>
     </g>
     <g id="text_17">
      <!-- 800 -->
      <g transform="translate(302.370123 309.441707) scale(0.1 -0.1)">
       <defs>
        <path id="DejaVuSans-38" d="M 2034 2216 
Q 1584 2216 1326 1975 
Q 1069 1734 1069 1313 
Q 1069 891 1326 650 
Q 1584 409 2034 409 
Q 2484 409 2743 651 
Q 3003 894 3003 1313 
Q 3003 1734 2745 1975 
Q 2488 2216 2034 2216 
z
M 1403 2484 
Q 997 2584 770 2862 
Q 544 3141 544 3541 
Q 544 4100 942 4425 
Q 1341 4750 2034 4750 
Q 2731 4750 3128 4425 
Q 3525 4100 3525 3541 
Q 3525 3141 3298 2862 
Q 3072 2584 2669 2484 
Q 3125 2378 3379 2068 
Q 3634 1759 3634 1313 
Q 3634 634 3220 271 
Q 2806 -91 2034 -91 
Q 1263 -91 848 271 
Q 434 634 434 1313 
Q 434 1759 690 2068 
Q 947 2378 1403 2484 
z
M 1172 3481 
Q 1172 3119 1398 2916 
Q 1625 2713 2034 2713 
Q 2441 2713 2670 2916 
Q 2900 3119 2900 3481 
Q 2900 3844 2670 4047 
Q 2441 4250 2034 4250 
Q 1625 4250 1398 4047 
Q 1172 3844 1172 3481 
z
" transform="scale(0.015625)"/>
       </defs>
       <use xlink:href="#DejaVuSans-38"/>
       <use xlink:href="#DejaVuSans-30" transform="translate(63.623047 0)"/>
       <use xlink:href="#DejaVuSans-30" transform="translate(127.246094 0)"/>
      </g>
     </g>
    </g>
    <g id="text_18">
     <!-- Time -->
     <g transform="translate(172.256791 323.119832) scale(0.1 -0.1)">
      <defs>
       <path id="DejaVuSans-54" d="M -19 4666 
L 3928 4666 
L 3928 4134 
L 2272 4134 
L 2272 0 
L 1638 0 
L 1638 4134 
L -19 4134 
L -19 4666 
z
" transform="scale(0.015625)"/>
       <path id="DejaVuSans-69" d="M 603 3500 
L 1178 3500 
L 1178 0 
L 603 0 
L 603 3500 
z
M 603 4863 
L 1178 4863 
L 1178 4134 
L 603 4134 
L 603 4863 
z
" transform="scale(0.015625)"/>
       <path id="DejaVuSans-6d" d="M 3328 2828 
Q 3544 3216 3844 3400 
Q 4144 3584 4550 3584 
Q 5097 3584 5394 3201 
Q 5691 2819 5691 2113 
L 5691 0 
L 5113 0 
L 5113 2094 
Q 5113 2597 4934 2840 
Q 4756 3084 4391 3084 
Q 3944 3084 3684 2787 
Q 3425 2491 3425 1978 
L 3425 0 
L 2847 0 
L 2847 2094 
Q 2847 2600 2669 2842 
Q 2491 3084 2119 3084 
Q 1678 3084 1418 2786 
Q 1159 2488 1159 1978 
L 1159 0 
L 581 0 
L 581 3500 
L 1159 3500 
L 1159 2956 
Q 1356 3278 1631 3431 
Q 1906 3584 2284 3584 
Q 2666 3584 2933 3390 
Q 3200 3197 3328 2828 
z
" transform="scale(0.015625)"/>
      </defs>
      <use xlink:href="#DejaVuSans-54"/>
      <use xlink:href="#DejaVuSans-69" transform="translate(57.958984 0)"/>
      <use xlink:href="#DejaVuSans-6d" transform="translate(85.742188 0)"/>
      <use xlink:href="#DejaVuSans-65" transform="translate(183.154297 0)"/>
     </g>
    </g>
   </g>
   <g id="matplotlib.axis_6">
    <g id="ytick_7">
     <g id="line2d_36">
      <g>
       <use xlink:href="#me9bc7d239d" x="43.78125" y="290.772932" style="stroke: #000000; stroke-width: 0.8"/>
      </g>
     </g>
     <g id="text_19">
      <!-- 0.0 -->
      <g transform="translate(20.878125 294.572151) scale(0.1 -0.1)">
       <defs>
        <path id="DejaVuSans-2e" d="M 684 794 
L 1344 794 
L 1344 0 
L 684 0 
L 684 794 
z
" transform="scale(0.015625)"/>
       </defs>
       <use xlink:href="#DejaVuSans-30"/>
       <use xlink:href="#DejaVuSans-2e" transform="translate(63.623047 0)"/>
       <use xlink:href="#DejaVuSans-30" transform="translate(95.410156 0)"/>
      </g>
     </g>
    </g>
    <g id="ytick_8">
     <g id="line2d_37">
      <g>
       <use xlink:href="#me9bc7d239d" x="43.78125" y="250.069552" style="stroke: #000000; stroke-width: 0.8"/>
      </g>
     </g>
     <g id="text_20">
      <!-- 0.5 -->
      <g transform="translate(20.878125 253.86877) scale(0.1 -0.1)">
       <use xlink:href="#DejaVuSans-30"/>
       <use xlink:href="#DejaVuSans-2e" transform="translate(63.623047 0)"/>
       <use xlink:href="#DejaVuSans-35" transform="translate(95.410156 0)"/>
      </g>
     </g>
    </g>
    <g id="ytick_9">
     <g id="line2d_38">
      <g>
       <use xlink:href="#me9bc7d239d" x="43.78125" y="209.366171" style="stroke: #000000; stroke-width: 0.8"/>
      </g>
     </g>
     <g id="text_21">
      <!-- 1.0 -->
      <g transform="translate(20.878125 213.16539) scale(0.1 -0.1)">
       <use xlink:href="#DejaVuSans-31"/>
       <use xlink:href="#DejaVuSans-2e" transform="translate(63.623047 0)"/>
       <use xlink:href="#DejaVuSans-30" transform="translate(95.410156 0)"/>
      </g>
     </g>
    </g>
    <g id="text_22">
     <!-- Free lac operon -->
     <g transform="translate(14.798438 288.540645) rotate(-90) scale(0.1 -0.1)">
      <defs>
       <path id="DejaVuSans-46" d="M 628 4666 
L 3309 4666 
L 3309 4134 
L 1259 4134 
L 1259 2759 
L 3109 2759 
L 3109 2228 
L 1259 2228 
L 1259 0 
L 628 0 
L 628 4666 
z
" transform="scale(0.015625)"/>
       <path id="DejaVuSans-70" d="M 1159 525 
L 1159 -1331 
L 581 -1331 
L 581 3500 
L 1159 3500 
L 1159 2969 
Q 1341 3281 1617 3432 
Q 1894 3584 2278 3584 
Q 2916 3584 3314 3078 
Q 3713 2572 3713 1747 
Q 3713 922 3314 415 
Q 2916 -91 2278 -91 
Q 1894 -91 1617 61 
Q 1341 213 1159 525 
z
M 3116 1747 
Q 3116 2381 2855 2742 
Q 2594 3103 2138 3103 
Q 1681 3103 1420 2742 
Q 1159 2381 1159 1747 
Q 1159 1113 1420 752 
Q 1681 391 2138 391 
Q 2594 391 2855 752 
Q 3116 1113 3116 1747 
z
" transform="scale(0.015625)"/>
       <path id="DejaVuSans-6e" d="M 3513 2113 
L 3513 0 
L 2938 0 
L 2938 2094 
Q 2938 2591 2744 2837 
Q 2550 3084 2163 3084 
Q 1697 3084 1428 2787 
Q 1159 2491 1159 1978 
L 1159 0 
L 581 0 
L 581 3500 
L 1159 3500 
L 1159 2956 
Q 1366 3272 1645 3428 
Q 1925 3584 2291 3584 
Q 2894 3584 3203 3211 
Q 3513 2838 3513 2113 
z
" transform="scale(0.015625)"/>
      </defs>
      <use xlink:href="#DejaVuSans-46"/>
      <use xlink:href="#DejaVuSans-72" transform="translate(50.269531 0)"/>
      <use xlink:href="#DejaVuSans-65" transform="translate(89.132812 0)"/>
      <use xlink:href="#DejaVuSans-65" transform="translate(150.65625 0)"/>
      <use xlink:href="#DejaVuSans-20" transform="translate(212.179688 0)"/>
      <use xlink:href="#DejaVuSans-6c" transform="translate(243.966797 0)"/>
      <use xlink:href="#DejaVuSans-61" transform="translate(271.75 0)"/>
      <use xlink:href="#DejaVuSans-63" transform="translate(333.029297 0)"/>
      <use xlink:href="#DejaVuSans-20" transform="translate(388.009766 0)"/>
      <use xlink:href="#DejaVuSans-6f" transform="translate(419.796875 0)"/>
      <use xlink:href="#DejaVuSans-70" transform="translate(480.978516 0)"/>
      <use xlink:href="#DejaVuSans-65" transform="translate(544.455078 0)"/>
      <use xlink:href="#DejaVuSans-72" transform="translate(605.978516 0)"/>
      <use xlink:href="#DejaVuSans-6f" transform="translate(644.841797 0)"/>
      <use xlink:href="#DejaVuSans-6e" transform="translate(706.023438 0)"/>
     </g>
    </g>
   </g>
   <g id="line2d_39">
    <path d="M 56.57299 209.366171 
L 56.654624 290.772932 
L 56.823157 290.772932 
L 56.992986 209.366171 
L 57.111326 209.366171 
L 57.213607 290.772932 
L 58.431666 290.772932 
L 59.422961 209.366171 
L 59.609577 209.366171 
L 59.632355 290.772932 
L 62.057352 290.772932 
L 64.655676 209.366171 
L 64.951004 209.366171 
L 65.08865 290.772932 
L 65.214707 290.772932 
L 71.886901 209.366171 
L 72.056939 290.772932 
L 79.908019 209.366171 
L 79.957128 290.772932 
L 82.587442 209.366171 
L 82.727637 209.366171 
L 82.781878 290.772932 
L 84.52476 290.772932 
L 84.590289 209.366171 
L 85.467861 209.366171 
L 85.658116 290.772932 
L 86.692467 290.772932 
L 89.68944 209.366171 
L 90.230234 209.366171 
L 90.259556 290.772932 
L 90.617986 290.772932 
L 91.500665 209.366171 
L 91.559196 290.772932 
L 91.90354 290.772932 
L 109.00329 209.366171 
L 109.017011 290.772932 
L 109.275852 290.772932 
L 109.552382 209.366171 
L 109.840154 290.772932 
L 109.968409 209.366171 
L 110.376751 209.366171 
L 110.581631 290.772932 
L 110.874696 290.772932 
L 115.042869 209.366171 
L 115.704449 290.772932 
L 117.348857 209.366171 
L 117.664543 290.772932 
L 118.337937 209.366171 
L 118.425388 290.772932 
L 119.436204 209.366171 
L 119.521235 290.772932 
L 123.469748 290.772932 
L 129.497269 209.366171 
L 129.603368 290.772932 
L 131.348151 209.366171 
L 131.799593 209.366171 
L 131.821064 290.772932 
L 133.664006 290.772932 
L 136.263387 209.366171 
L 136.276713 290.772932 
L 139.161921 209.366171 
L 139.204714 290.772932 
L 146.258155 209.366171 
L 147.203839 209.366171 
L 147.27225 290.772932 
L 147.889563 290.772932 
L 148.134948 209.366171 
L 148.45028 209.366171 
L 148.563188 290.772932 
L 149.635336 290.772932 
L 150.147501 209.366171 
L 150.248398 290.772932 
L 151.371104 290.772932 
L 151.382441 209.366171 
L 151.54421 290.772932 
L 155.858893 209.366171 
L 155.947955 290.772932 
L 156.197631 209.366171 
L 194.121098 209.366171 
L 194.21571 290.772932 
L 194.920537 290.772932 
L 195.058866 209.366171 
L 214.247437 209.366171 
L 214.407896 290.772932 
L 219.363061 290.772932 
L 222.973373 209.366171 
L 223.148769 209.366171 
L 223.306354 290.772932 
L 224.68744 290.772932 
L 224.706023 209.366171 
L 225.084212 209.366171 
L 225.218587 290.772932 
L 225.377879 209.366171 
L 225.440172 290.772932 
L 225.674286 209.366171 
L 225.750933 290.772932 
L 226.376608 209.366171 
L 226.696791 290.772932 
L 232.802254 209.366171 
L 233.043523 290.772932 
L 237.501077 209.366171 
L 237.521587 290.772932 
L 239.402033 209.366171 
L 241.249799 209.366171 
L 241.362099 290.772932 
L 242.116827 290.772932 
L 243.987406 209.366171 
L 244.024521 290.772932 
L 244.048469 209.366171 
L 244.361115 290.772932 
L 247.790702 209.366171 
L 248.031965 290.772932 
L 248.373714 209.366171 
L 248.396905 290.772932 
L 249.041998 290.772932 
L 251.077358 209.366171 
L 251.217799 290.772932 
L 253.907325 209.366171 
L 253.915666 290.772932 
L 257.092619 209.366171 
L 258.122051 209.366171 
L 258.14357 290.772932 
L 258.78885 290.772932 
L 259.027379 209.366171 
L 259.142412 290.772932 
L 259.43475 290.772932 
L 265.333511 209.366171 
L 265.355948 290.772932 
L 269.322229 209.366171 
L 269.945145 209.366171 
L 270.100335 290.772932 
L 274.515549 209.366171 
L 274.537608 290.772932 
L 277.594227 209.366171 
L 277.630212 290.772932 
L 277.641953 209.366171 
L 277.864129 209.366171 
L 278.031696 290.772932 
L 278.543011 209.366171 
L 278.575405 290.772932 
L 278.796704 290.772932 
L 278.949273 209.366171 
L 278.998949 290.772932 
L 282.738482 209.366171 
L 283.220031 209.366171 
L 283.229654 290.772932 
L 284.006748 290.772932 
L 284.023855 209.366171 
L 284.141365 209.366171 
L 284.527402 290.772932 
L 285.630107 209.366171 
L 285.753049 209.366171 
L 285.7826 290.772932 
L 286.354593 290.772932 
L 286.638937 209.366171 
L 286.863296 290.772932 
L 290.35384 209.366171 
L 290.57733 290.772932 
L 291.404017 209.366171 
L 291.489146 290.772932 
L 293.448503 209.366171 
L 293.701104 290.772932 
L 293.799138 209.366171 
L 294.178822 290.772932 
L 294.250443 209.366171 
L 295.994029 209.366171 
L 296.212073 290.772932 
L 297.086155 290.772932 
L 310.081851 209.366171 
L 311.293821 209.366171 
L 311.371836 290.772932 
L 312.40778 290.772932 
L 312.40778 290.772932 
" clip-path="url(#p62381639a6)" style="fill: none; stroke: #000000; stroke-width: 1.5; stroke-linecap: square"/>
   </g>
   <g id="patch_13">
    <path d="M 43.78125 294.84327 
L 43.78125 205.295833 
" style="fill: none; stroke: #000000; stroke-width: 0.8; stroke-linejoin: miter; stroke-linecap: square"/>
   </g>
   <g id="patch_14">
    <path d="M 325.19952 294.84327 
L 325.19952 205.295833 
" style="fill: none; stroke: #000000; stroke-width: 0.8; stroke-linejoin: miter; stroke-linecap: square"/>
   </g>
   <g id="patch_15">
    <path d="M 43.78125 294.84327 
L 325.19952 294.84327 
" style="fill: none; stroke: #000000; stroke-width: 0.8; stroke-linejoin: miter; stroke-linecap: square"/>
   </g>
   <g id="patch_16">
    <path d="M 43.78125 205.295833 
L 325.19952 205.295833 
" style="fill: none; stroke: #000000; stroke-width: 0.8; stroke-linejoin: miter; stroke-linecap: square"/>
   </g>
  </g>
 </g>
 <defs>
  <clipPath id="p274e7edd4c">
   <rect x="43.78125" y="7.2" width="281.41827" height="89.547437"/>
  </clipPath>
  <clipPath id="p4ddd38a40d">
   <rect x="43.78125" y="106.247917" width="281.41827" height="89.547437"/>
  </clipPath>
  <clipPath id="p62381639a6">
   <rect x="43.78125" y="205.295833" width="281.41827" height="89.547437"/>
  </clipPath>
 </defs>
</svg>
