<?xml version="1.0" encoding="utf-8" standalone="no"?>
<!DOCTYPE svg PUBLIC "-//W3C//DTD SVG 1.1//EN"
  "http://www.w3.org/Graphics/SVG/1.1/DTD/svg11.dtd">
<svg xmlns:xlink="http://www.w3.org/1999/xlink" width="332.39952pt" height="332.39952pt" viewBox="0 0 332.39952 332.39952" xmlns="http://www.w3.org/2000/svg" version="1.1">
 <metadata>
  <rdf:RDF xmlns:dc="http://purl.org/dc/elements/1.1/" xmlns:cc="http://creativecommons.org/ns#" xmlns:rdf="http://www.w3.org/1999/02/22-rdf-syntax-ns#">
   <cc:Work>
    <dc:type rdf:resource="http://purl.org/dc/dcmitype/StillImage"/>
    <dc:date>2026-05-15T18:57:51.526719</dc:date>
    <dc:format>image/svg+xml</dc:format>
    <dc:creator>
     <cc:Agent>
      <dc:title>Matplotlib v3.10.9, https://matplotlib.org/</dc:title>
     </cc:Agent>
    </dc:creator>
   </cc:Work>
  </rdf:RDF>
 </metadata>
 <defs>
  <style type="text/css">*{stroke-linejoin: round; stroke-linecap: butt}</style>
 </defs>
 <g id="figure_1">
  <g id="patch_1">
   <path d="M 0 332.39952 
L 332.39952 332.39952 
L 332.39952 0 
L 0 0 
z
" style="fill: #ffffff"/>
  </g>
  <g id="axes_1">
   <g id="patch_2">
    <path d="M 43.78125 96.747437 
L 325.19952 96.747437 
L 325.19952 7.2 
L 43.78125 7.2 
z
" style="fill: #ffffff"/>
   </g>
   <g id="matplotlib.axis_1">
    <g id="xtick_1">
     <g id="line2d_1">
      <defs>
       <path id="mf1ee267865" d="M 0 0 
L 0 3.5 
" style="stroke: #000000; stroke-width: 0.8"/>
      </defs>
      <g>
       <use xlink:href="#mf1ee267865" x="56.57299" y="96.747437" style="stroke: #000000; stroke-width: 0.8"/>
      </g>
     </g>
    </g>
    <g id="xtick_2">
     <g id="line2d_2">
      <g>
       <use xlink:href="#mf1ee267865" x="88.249681" y="96.747437" style="stroke: #000000; stroke-width: 0.8"/>
      </g>
     </g>
    </g>
    <g id="xtick_3">
     <g id="line2d_3">
      <g>
       <use xlink:href="#mf1ee267865" x="119.926373" y="96.747437" style="stroke: #000000; stroke-width: 0.8"/>
      </g>
     </g>
    </g>
    <g id="xtick_4">
     <g id="line2d_4">
      <g>
       <use xlink:href="#mf1ee267865" x="151.603065" y="96.747437" style="stroke: #000000; stroke-width: 0.8"/>
      </g>
     </g>
    </g>
    <g id="xtick_5">
     <g id="line2d_5">
      <g>
       <use xlink:href="#mf1ee267865" x="183.279757" y="96.747437" style="stroke: #000000; stroke-width: 0.8"/>
      </g>
     </g>
    </g>
    <g id="xtick_6">
     <g id="line2d_6">
      <g>
       <use xlink:href="#mf1ee267865" x="214.956449" y="96.747437" style="stroke: #000000; stroke-width: 0.8"/>
      </g>
     </g>
    </g>
    <g id="xtick_7">
     <g id="line2d_7">
      <g>
       <use xlink:href="#mf1ee267865" x="246.633141" y="96.747437" style="stroke: #000000; stroke-width: 0.8"/>
      </g>
     </g>
    </g>
    <g id="xtick_8">
     <g id="line2d_8">
      <g>
       <use xlink:href="#mf1ee267865" x="278.309833" y="96.747437" style="stroke: #000000; stroke-width: 0.8"/>
      </g>
     </g>
    </g>
    <g id="xtick_9">
     <g id="line2d_9">
      <g>
       <use xlink:href="#mf1ee267865" x="309.986525" y="96.747437" style="stroke: #000000; stroke-width: 0.8"/>
      </g>
     </g>
    </g>
   </g>
   <g id="matplotlib.axis_2">
    <g id="ytick_1">
     <g id="line2d_10">
      <defs>
       <path id="mf106a57c73" d="M 0 0 
L -3.5 0 
" style="stroke: #000000; stroke-width: 0.8"/>
      </defs>
      <g>
       <use xlink:href="#mf106a57c73" x="43.78125" y="92.677099" style="stroke: #000000; stroke-width: 0.8"/>
      </g>
     </g>
     <g id="text_1">
      <!-- 0 -->
      <g transform="translate(30.41875 96.476317) scale(0.1 -0.1)">
       <defs>
        <path id="DejaVuSans-30" d="M 2034 4250 
Q 1547 4250 1301 3770 
Q 1056 3291 1056 2328 
Q 1056 1369 1301 889 
Q 1547 409 2034 409 
Q 2525 409 2770 889 
Q 3016 1369 3016 2328 
Q 3016 3291 2770 3770 
Q 2525 4250 2034 4250 
z
M 2034 4750 
Q 2819 4750 3233 4129 
Q 3647 3509 3647 2328 
Q 3647 1150 3233 529 
Q 2819 -91 2034 -91 
Q 1250 -91 836 529 
Q 422 1150 422 2328 
Q 422 3509 836 4129 
Q 1250 4750 2034 4750 
z
" transform="scale(0.015625)"/>
       </defs>
       <use xlink:href="#DejaVuSans-30"/>
      </g>
     </g>
    </g>
    <g id="ytick_2">
     <g id="line2d_11">
      <g>
       <use xlink:href="#mf106a57c73" x="43.78125" y="51.973718" style="stroke: #000000; stroke-width: 0.8"/>
      </g>
     </g>
     <g id="text_2">
      <!-- 5 -->
      <g transform="translate(30.41875 55.772937) scale(0.1 -0.1)">
       <defs>
        <path id="DejaVuSans-35" d="M 691 4666 
L 3169 4666 
L 3169 4134 
L 1269 4134 
L 1269 2991 
Q 1406 3038 1543 3061 
Q 1681 3084 1819 3084 
Q 2600 3084 3056 2656 
Q 3513 2228 3513 1497 
Q 3513 744 3044 326 
Q 2575 -91 1722 -91 
Q 1428 -91 1123 -41 
Q 819 9 494 109 
L 494 744 
Q 775 591 1075 516 
Q 1375 441 1709 441 
Q 2250 441 2565 725 
Q 2881 1009 2881 1497 
Q 2881 1984 2565 2268 
Q 2250 2553 1709 2553 
Q 1456 2553 1204 2497 
Q 953 2441 691 2322 
L 691 4666 
z
" transform="scale(0.015625)"/>
       </defs>
       <use xlink:href="#DejaVuSans-35"/>
      </g>
     </g>
    </g>
    <g id="ytick_3">
     <g id="line2d_12">
      <g>
       <use xlink:href="#mf106a57c73" x="43.78125" y="11.270338" style="stroke: #000000; stroke-width: 0.8"/>
      </g>
     </g>
     <g id="text_3">
      <!-- 10 -->
      <g transform="translate(24.05625 15.069557) scale(0.1 -0.1)">
       <defs>
        <path id="DejaVuSans-31" d="M 794 531 
L 1825 531 
L 1825 4091 
L 703 3866 
L 703 4441 
L 1819 4666 
L 2450 4666 
L 2450 531 
L 3481 531 
L 3481 0 
L 794 0 
L 794 531 
z
" transform="scale(0.015625)"/>
       </defs>
       <use xlink:href="#DejaVuSans-31"/>
       <use xlink:href="#DejaVuSans-30" transform="translate(63.623047 0)"/>
      </g>
     </g>
    </g>
    <g id="text_4">
     <!-- Extracellular lactose -->
     <g transform="translate(17.976562 102.945593) rotate(-90) scale(0.1 -0.1)">
      <defs>
       <path id="DejaVuSans-45" d="M 628 4666 
L 3578 4666 
L 3578 4134 
L 1259 4134 
L 1259 2753 
L 3481 2753 
L 3481 2222 
L 1259 2222 
L 1259 531 
L 3634 531 
L 3634 0 
L 628 0 
L 628 4666 
z
" transform="scale(0.015625)"/>
       <path id="DejaVuSans-78" d="M 3513 3500 
L 2247 1797 
L 3578 0 
L 2900 0 
L 1881 1375 
L 863 0 
L 184 0 
L 1544 1831 
L 300 3500 
L 978 3500 
L 1906 2253 
L 2834 3500 
L 3513 3500 
z
" transform="scale(0.015625)"/>
       <path id="DejaVuSans-74" d="M 1172 4494 
L 1172 3500 
L 2356 3500 
L 2356 3053 
L 1172 3053 
L 1172 1153 
Q 1172 725 1289 603 
Q 1406 481 1766 481 
L 2356 481 
L 2356 0 
L 1766 0 
Q 1100 0 847 248 
Q 594 497 594 1153 
L 594 3053 
L 172 3053 
L 172 3500 
L 594 3500 
L 594 4494 
L 1172 4494 
z
" transform="scale(0.015625)"/>
       <path id="DejaVuSans-72" d="M 2631 2963 
Q 2534 3019 2420 3045 
Q 2306 3072 2169 3072 
Q 1681 3072 1420 2755 
Q 1159 2438 1159 1844 
L 1159 0 
L 581 0 
L 581 3500 
L 1159 3500 
L 1159 2956 
Q 1341 3275 1631 3429 
Q 1922 3584 2338 3584 
Q 2397 3584 2469 3576 
Q 2541 3569 2628 3553 
L 2631 2963 
z
" transform="scale(0.015625)"/>
       <path id="DejaVuSans-61" d="M 2194 1759 
Q 1497 1759 1228 1600 
Q 959 1441 959 1056 
Q 959 750 1161 570 
Q 1363 391 1709 391 
Q 2188 391 2477 730 
Q 2766 1069 2766 1631 
L 2766 1759 
L 2194 1759 
z
M 3341 1997 
L 3341 0 
L 2766 0 
L 2766 531 
Q 2569 213 2275 61 
Q 1981 -91 1556 -91 
Q 1019 -91 701 211 
Q 384 513 384 1019 
Q 384 1609 779 1909 
Q 1175 2209 1959 2209 
L 2766 2209 
L 2766 2266 
Q 2766 2663 2505 2880 
Q 2244 3097 1772 3097 
Q 1472 3097 1187 3025 
Q 903 2953 641 2809 
L 641 3341 
Q 956 3463 1253 3523 
Q 1550 3584 1831 3584 
Q 2591 3584 2966 3190 
Q 3341 2797 3341 1997 
z
" transform="scale(0.015625)"/>
       <path id="DejaVuSans-63" d="M 3122 3366 
L 3122 2828 
Q 2878 2963 2633 3030 
Q 2388 3097 2138 3097 
Q 1578 3097 1268 2742 
Q 959 2388 959 1747 
Q 959 1106 1268 751 
Q 1578 397 2138 397 
Q 2388 397 2633 464 
Q 2878 531 3122 666 
L 3122 134 
Q 2881 22 2623 -34 
Q 2366 -91 2075 -91 
Q 1284 -91 818 406 
Q 353 903 353 1747 
Q 353 2603 823 3093 
Q 1294 3584 2113 3584 
Q 2378 3584 2631 3529 
Q 2884 3475 3122 3366 
z
" transform="scale(0.015625)"/>
       <path id="DejaVuSans-65" d="M 3597 1894 
L 3597 1613 
L 953 1613 
Q 991 1019 1311 708 
Q 1631 397 2203 397 
Q 2534 397 2845 478 
Q 3156 559 3463 722 
L 3463 178 
Q 3153 47 2828 -22 
Q 2503 -91 2169 -91 
Q 1331 -91 842 396 
Q 353 884 353 1716 
Q 353 2575 817 3079 
Q 1281 3584 2069 3584 
Q 2775 3584 3186 3129 
Q 3597 2675 3597 1894 
z
M 3022 2063 
Q 3016 2534 2758 2815 
Q 2500 3097 2075 3097 
Q 1594 3097 1305 2825 
Q 1016 2553 972 2059 
L 3022 2063 
z
" transform="scale(0.015625)"/>
       <path id="DejaVuSans-6c" d="M 603 4863 
L 1178 4863 
L 1178 0 
L 603 0 
L 603 4863 
z
" transform="scale(0.015625)"/>
       <path id="DejaVuSans-75" d="M 544 1381 
L 544 3500 
L 1119 3500 
L 1119 1403 
Q 1119 906 1312 657 
Q 1506 409 1894 409 
Q 2359 409 2629 706 
Q 2900 1003 2900 1516 
L 2900 3500 
L 3475 3500 
L 3475 0 
L 2900 0 
L 2900 538 
Q 2691 219 2414 64 
Q 2138 -91 1772 -91 
Q 1169 -91 856 284 
Q 544 659 544 1381 
z
M 1991 3584 
L 1991 3584 
z
" transform="scale(0.015625)"/>
       <path id="DejaVuSans-20" transform="scale(0.015625)"/>
       <path id="DejaVuSans-6f" d="M 1959 3097 
Q 1497 3097 1228 2736 
Q 959 2375 959 1747 
Q 959 1119 1226 758 
Q 1494 397 1959 397 
Q 2419 397 2687 759 
Q 2956 1122 2956 1747 
Q 2956 2369 2687 2733 
Q 2419 3097 1959 3097 
z
M 1959 3584 
Q 2709 3584 3137 3096 
Q 3566 2609 3566 1747 
Q 3566 888 3137 398 
Q 2709 -91 1959 -91 
Q 1206 -91 779 398 
Q 353 888 353 1747 
Q 353 2609 779 3096 
Q 1206 3584 1959 3584 
z
" transform="scale(0.015625)"/>
       <path id="DejaVuSans-73" d="M 2834 3397 
L 2834 2853 
Q 2591 2978 2328 3040 
Q 2066 3103 1784 3103 
Q 1356 3103 1142 2972 
Q 928 2841 928 2578 
Q 928 2378 1081 2264 
Q 1234 2150 1697 2047 
L 1894 2003 
Q 2506 1872 2764 1633 
Q 3022 1394 3022 966 
Q 3022 478 2636 193 
Q 2250 -91 1575 -91 
Q 1294 -91 989 -36 
Q 684 19 347 128 
L 347 722 
Q 666 556 975 473 
Q 1284 391 1588 391 
Q 1994 391 2212 530 
Q 2431 669 2431 922 
Q 2431 1156 2273 1281 
Q 2116 1406 1581 1522 
L 1381 1569 
Q 847 1681 609 1914 
Q 372 2147 372 2553 
Q 372 3047 722 3315 
Q 1072 3584 1716 3584 
Q 2034 3584 2315 3537 
Q 2597 3491 2834 3397 
z
" transform="scale(0.015625)"/>
      </defs>
      <use xlink:href="#DejaVuSans-45"/>
      <use xlink:href="#DejaVuSans-78" transform="translate(63.183594 0)"/>
      <use xlink:href="#DejaVuSans-74" transform="translate(122.363281 0)"/>
      <use xlink:href="#DejaVuSans-72" transform="translate(161.572266 0)"/>
      <use xlink:href="#DejaVuSans-61" transform="translate(202.685547 0)"/>
      <use xlink:href="#DejaVuSans-63" transform="translate(263.964844 0)"/>
      <use xlink:href="#DejaVuSans-65" transform="translate(318.945312 0)"/>
      <use xlink:href="#DejaVuSans-6c" transform="translate(380.46875 0)"/>
      <use xlink:href="#DejaVuSans-6c" transform="translate(408.251953 0)"/>
      <use xlink:href="#DejaVuSans-75" transform="translate(436.035156 0)"/>
      <use xlink:href="#DejaVuSans-6c" transform="translate(499.414062 0)"/>
      <use xlink:href="#DejaVuSans-61" transform="translate(527.197266 0)"/>
      <use xlink:href="#DejaVuSans-72" transform="translate(588.476562 0)"/>
      <use xlink:href="#DejaVuSans-20" transform="translate(629.589844 0)"/>
      <use xlink:href="#DejaVuSans-6c" transform="translate(661.376953 0)"/>
      <use xlink:href="#DejaVuSans-61" transform="translate(689.160156 0)"/>
      <use xlink:href="#DejaVuSans-63" transform="translate(750.439453 0)"/>
      <use xlink:href="#DejaVuSans-74" transform="translate(805.419922 0)"/>
      <use xlink:href="#DejaVuSans-6f" transform="translate(844.628906 0)"/>
      <use xlink:href="#DejaVuSans-73" transform="translate(905.810547 0)"/>
      <use xlink:href="#DejaVuSans-65" transform="translate(957.910156 0)"/>
     </g>
    </g>
   </g>
   <g id="line2d_13">
    <path d="M 56.57299 92.677099 
L 153.022134 92.677099 
L 153.131502 11.270338 
L 155.570782 11.351745 
L 155.683221 11.595965 
L 155.801915 12.165812 
L 155.882795 12.247219 
L 156.160346 13.793948 
L 156.700175 16.154744 
L 156.84255 16.480371 
L 156.888514 16.561777 
L 156.996947 16.724591 
L 157.120934 16.805998 
L 157.263327 17.131625 
L 157.314208 17.213032 
L 157.72966 18.596946 
L 157.863246 18.678353 
L 158.116781 19.492421 
L 158.162953 19.573828 
L 158.260352 19.818048 
L 159.060616 19.899455 
L 159.219778 20.225082 
L 159.496043 20.957743 
L 159.615066 21.77181 
L 160.306509 26.819029 
L 160.488208 27.30747 
L 161.285357 27.388877 
L 161.377065 27.877317 
L 161.433988 27.958724 
L 161.558671 28.284351 
L 161.61396 28.365758 
L 162.456141 32.761723 
L 162.65707 35.285332 
L 162.691541 35.366739 
L 162.801951 36.750654 
L 162.848515 36.832061 
L 162.97931 38.460196 
L 163.144333 39.762704 
L 163.620046 41.146619 
L 163.785439 41.228026 
L 163.932219 41.87928 
L 163.95847 41.960687 
L 164.066081 42.286314 
L 164.094596 42.367721 
L 164.387869 43.507415 
L 164.435443 43.588822 
L 164.573219 43.995856 
L 164.701961 44.077263 
L 165.088905 44.972737 
L 165.820019 45.054144 
L 166.414066 47.65916 
L 166.555497 48.473228 
L 166.587946 48.554634 
L 166.708379 49.205888 
L 166.79622 49.287295 
L 166.914003 49.531516 
L 166.986518 49.612922 
L 167.36778 51.403871 
L 167.426289 51.485278 
L 167.590525 52.055125 
L 167.616411 52.136532 
L 167.863912 52.706379 
L 168.036939 53.927481 
L 168.110554 54.008887 
L 168.261106 54.741548 
L 168.282957 54.822955 
L 168.39862 55.392802 
L 168.498355 55.474209 
L 168.72448 56.125463 
L 168.865412 56.613904 
L 168.875591 56.69531 
L 169.028766 57.020937 
L 169.109307 57.102344 
L 169.221672 57.427971 
L 169.396926 57.753598 
L 169.494679 57.835005 
L 169.607218 58.079225 
L 169.676935 58.160632 
L 170.313294 58.242039 
L 170.426942 58.404852 
L 170.462987 58.486259 
L 170.559127 58.567666 
L 171.979744 58.649073 
L 172.152954 58.9747 
L 172.232997 59.056107 
L 172.408942 59.300327 
L 172.597755 59.381734 
L 173.048185 60.114394 
L 173.173575 60.521428 
L 173.193129 60.602835 
L 174.399698 65.894274 
L 174.5486 65.975681 
L 174.676357 66.301308 
L 174.809192 66.382715 
L 174.963551 66.789749 
L 174.982708 66.871156 
L 175.409106 68.092257 
L 175.500499 68.173664 
L 175.610617 68.417884 
L 175.966862 68.906325 
L 176.104584 68.987731 
L 176.230697 69.313358 
L 176.30092 69.394765 
L 176.469662 70.127426 
L 176.486865 70.208833 
L 176.610116 71.0229 
L 176.701389 71.348527 
L 176.768976 71.429934 
L 176.878712 71.674154 
L 177.412035 71.755561 
L 177.788959 72.976663 
L 177.834847 73.058069 
L 178.357663 73.872137 
L 178.36963 73.953544 
L 178.529109 74.197764 
L 178.562674 74.279171 
L 178.713745 74.523391 
L 178.819791 74.604798 
L 178.932144 75.174645 
L 178.947769 75.256052 
L 179.382717 76.721374 
L 179.592869 77.616848 
L 180.1094 78.837949 
L 180.284375 78.919356 
L 180.483882 79.32639 
L 180.514763 79.407797 
L 180.618097 79.57061 
L 180.697152 79.652017 
L 180.798169 79.733424 
L 180.858797 79.81483 
L 181.086875 79.977644 
L 181.246777 80.059051 
L 181.451973 80.466085 
L 181.552188 80.547491 
L 181.663116 80.791712 
L 181.696302 80.873118 
L 181.845993 81.117339 
L 182.159245 81.442966 
L 182.591268 81.524372 
L 183.59038 82.09422 
L 183.767616 82.33844 
L 183.924486 82.419847 
L 184.061598 82.58266 
L 184.327606 82.664067 
L 184.55022 83.233914 
L 184.72604 83.315321 
L 184.824757 83.396728 
L 184.956101 83.559541 
L 185.107605 83.640948 
L 185.265726 83.966575 
L 185.332473 84.047982 
L 185.412464 84.129389 
L 187.939353 84.210796 
L 188.087067 84.292202 
L 188.519347 84.373609 
L 188.680187 84.455016 
L 189.067888 84.536423 
L 189.159908 84.699236 
L 189.74193 84.780643 
L 189.863196 85.10627 
L 190.149774 85.757524 
L 190.388424 85.838931 
L 190.483387 86.083151 
L 190.827299 86.164558 
L 191.198928 86.245965 
L 191.288402 86.327371 
L 191.393935 86.408778 
L 191.685735 86.490185 
L 192.85322 86.978625 
L 193.520886 87.060032 
L 194.058632 87.385659 
L 194.319823 88.036913 
L 194.77548 88.11832 
L 195.108754 88.443947 
L 195.400817 88.525354 
L 195.54378 88.606761 
L 195.696563 88.688167 
L 196.202428 89.013794 
L 196.407751 89.095201 
L 196.543176 89.176608 
L 197.450922 89.258015 
L 197.687052 89.339421 
L 199.714408 89.420828 
L 199.827645 89.502235 
L 200.641503 89.583642 
L 200.742252 89.746455 
L 201.049644 89.827862 
L 201.331905 89.909269 
L 202.530736 89.990676 
L 202.675476 90.072082 
L 204.97826 90.153489 
L 205.743348 90.316303 
L 224.131992 90.397709 
L 224.262151 90.479116 
L 227.959837 90.560523 
L 228.199288 90.64193 
L 258.048311 90.723336 
L 258.223062 90.804743 
L 260.515199 90.88615 
L 260.518081 90.967557 
L 312.40778 90.967557 
L 312.40778 90.967557 
" clip-path="url(#pd9e4026620)" style="fill: none; stroke: #000000; stroke-width: 1.5; stroke-linecap: square"/>
   </g>
   <g id="patch_3">
    <path d="M 43.78125 96.747437 
L 43.78125 7.2 
" style="fill: none; stroke: #000000; stroke-width: 0.8; stroke-linejoin: miter; stroke-linecap: square"/>
   </g>
   <g id="patch_4">
    <path d="M 325.19952 96.747437 
L 325.19952 7.2 
" style="fill: none; stroke: #000000; stroke-width: 0.8; stroke-linejoin: miter; stroke-linecap: square"/>
   </g>
   <g id="patch_5">
    <path d="M 43.78125 96.747437 
L 325.19952 96.747437 
" style="fill: none; stroke: #000000; stroke-width: 0.8; stroke-linejoin: miter; stroke-linecap: square"/>
   </g>
   <g id="patch_6">
    <path d="M 43.78125 7.2 
L 325.19952 7.2 
" style="fill: none; stroke: #000000; stroke-width: 0.8; stroke-linejoin: miter; stroke-linecap: square"/>
   </g>
  </g>
  <g id="axes_2">
   <g id="patch_7">
    <path d="M 43.78125 195.795353 
L 325.19952 195.795353 
L 325.19952 106.247917 
L 43.78125 106.247917 
z
" style="fill: #ffffff"/>
   </g>
   <g id="matplotlib.axis_3">
    <g id="xtick_10">
     <g id="line2d_14">
      <g>
       <use xlink:href="#mf1ee267865" x="56.57299" y="195.795353" style="stroke: #000000; stroke-width: 0.8"/>
      </g>
     </g>
    </g>
    <g id="xtick_11">
     <g id="line2d_15">
      <g>
       <use xlink:href="#mf1ee267865" x="88.249681" y="195.795353" style="stroke: #000000; stroke-width: 0.8"/>
      </g>
     </g>
    </g>
    <g id="xtick_12">
     <g id="line2d_16">
      <g>
       <use xlink:href="#mf1ee267865" x="119.926373" y="195.795353" style="stroke: #000000; stroke-width: 0.8"/>
      </g>
     </g>
    </g>
    <g id="xtick_13">
     <g id="line2d_17">
      <g>
       <use xlink:href="#mf1ee267865" x="151.603065" y="195.795353" style="stroke: #000000; stroke-width: 0.8"/>
      </g>
     </g>
    </g>
    <g id="xtick_14">
     <g id="line2d_18">
      <g>
       <use xlink:href="#mf1ee267865" x="183.279757" y="195.795353" style="stroke: #000000; stroke-width: 0.8"/>
      </g>
     </g>
    </g>
    <g id="xtick_15">
     <g id="line2d_19">
      <g>
       <use xlink:href="#mf1ee267865" x="214.956449" y="195.795353" style="stroke: #000000; stroke-width: 0.8"/>
      </g>
     </g>
    </g>
    <g id="xtick_16">
     <g id="line2d_20">
      <g>
       <use xlink:href="#mf1ee267865" x="246.633141" y="195.795353" style="stroke: #000000; stroke-width: 0.8"/>
      </g>
     </g>
    </g>
    <g id="xtick_17">
     <g id="line2d_21">
      <g>
       <use xlink:href="#mf1ee267865" x="278.309833" y="195.795353" style="stroke: #000000; stroke-width: 0.8"/>
      </g>
     </g>
    </g>
    <g id="xtick_18">
     <g id="line2d_22">
      <g>
       <use xlink:href="#mf1ee267865" x="309.986525" y="195.795353" style="stroke: #000000; stroke-width: 0.8"/>
      </g>
     </g>
    </g>
   </g>
   <g id="matplotlib.axis_4">
    <g id="ytick_4">
     <g id="line2d_23">
      <g>
       <use xlink:href="#mf106a57c73" x="43.78125" y="191.725015" style="stroke: #000000; stroke-width: 0.8"/>
      </g>
     </g>
     <g id="text_5">
      <!-- 0 -->
      <g transform="translate(30.41875 195.524234) scale(0.1 -0.1)">
       <use xlink:href="#DejaVuSans-30"/>
      </g>
     </g>
    </g>
    <g id="ytick_5">
     <g id="line2d_24">
      <g>
       <use xlink:href="#mf106a57c73" x="43.78125" y="151.021635" style="stroke: #000000; stroke-width: 0.8"/>
      </g>
     </g>
     <g id="text_6">
      <!-- 5 -->
      <g transform="translate(30.41875 154.820854) scale(0.1 -0.1)">
       <use xlink:href="#DejaVuSans-35"/>
      </g>
     </g>
    </g>
    <g id="ytick_6">
     <g id="line2d_25">
      <g>
       <use xlink:href="#mf106a57c73" x="43.78125" y="110.318255" style="stroke: #000000; stroke-width: 0.8"/>
      </g>
     </g>
     <g id="text_7">
      <!-- 10 -->
      <g transform="translate(24.05625 114.117473) scale(0.1 -0.1)">
       <use xlink:href="#DejaVuSans-31"/>
       <use xlink:href="#DejaVuSans-30" transform="translate(63.623047 0)"/>
      </g>
     </g>
    </g>
    <g id="text_8">
     <!-- LacY -->
     <g transform="translate(17.976563 162.67476) rotate(-90) scale(0.1 -0.1)">
      <defs>
       <path id="DejaVuSans-4c" d="M 628 4666 
L 1259 4666 
L 1259 531 
L 3531 531 
L 3531 0 
L 628 0 
L 628 4666 
z
" transform="scale(0.015625)"/>
       <path id="DejaVuSans-59" d="M -13 4666 
L 666 4666 
L 1959 2747 
L 3244 4666 
L 3922 4666 
L 2272 2222 
L 2272 0 
L 1638 0 
L 1638 2222 
L -13 4666 
z
" transform="scale(0.015625)"/>
      </defs>
      <use xlink:href="#DejaVuSans-4c"/>
      <use xlink:href="#DejaVuSans-61" transform="translate(55.712891 0)"/>
      <use xlink:href="#DejaVuSans-63" transform="translate(116.992188 0)"/>
      <use xlink:href="#DejaVuSans-59" transform="translate(171.972656 0)"/>
     </g>
    </g>
   </g>
   <g id="line2d_26">
    <path d="M 56.57299 110.318255 
L 56.671935 134.740283 
L 56.798408 134.740283 
L 56.932562 159.162311 
L 57.319693 175.443663 
L 57.324516 183.584339 
L 57.533395 183.584339 
L 57.842515 191.725015 
L 66.093808 191.725015 
L 66.176432 183.584339 
L 66.920721 191.725015 
L 69.642228 191.725015 
L 69.718365 183.584339 
L 70.621607 191.725015 
L 76.475533 191.725015 
L 76.492136 183.584339 
L 76.649019 183.584339 
L 76.768554 191.725015 
L 83.252337 191.725015 
L 83.798728 183.584339 
L 83.987105 175.443663 
L 84.137451 167.302987 
L 84.388246 183.584339 
L 84.661522 191.725015 
L 98.117118 191.725015 
L 98.2165 183.584339 
L 98.375736 167.302987 
L 98.511474 183.584339 
L 98.829014 183.584339 
L 98.974234 191.725015 
L 99.063669 175.443663 
L 99.250251 175.443663 
L 99.260863 183.584339 
L 99.539294 191.725015 
L 99.927975 191.725015 
L 100.538123 175.443663 
L 100.649625 159.162311 
L 100.84997 167.302987 
L 100.912742 175.443663 
L 101.106968 175.443663 
L 101.157785 183.584339 
L 101.713509 183.584339 
L 102.896915 191.725015 
L 111.644603 191.725015 
L 111.718442 183.584339 
L 112.035407 183.584339 
L 112.314691 191.725015 
L 116.105591 191.725015 
L 116.164738 175.443663 
L 116.225876 183.584339 
L 116.61281 191.725015 
L 120.370161 191.725015 
L 120.399887 183.584339 
L 120.528601 183.584339 
L 120.604949 191.725015 
L 122.168872 191.725015 
L 122.265246 183.584339 
L 122.448846 183.584339 
L 122.992084 191.725015 
L 137.747962 191.725015 
L 138.111021 183.584339 
L 138.499032 183.584339 
L 138.858819 191.725015 
L 155.281979 191.725015 
L 155.665312 183.584339 
L 155.870256 183.584339 
L 155.942831 159.162311 
L 155.988517 167.302987 
L 156.050556 167.302987 
L 156.160346 175.443663 
L 156.246106 175.443663 
L 156.354112 183.584339 
L 158.187197 183.584339 
L 158.260352 191.725015 
L 158.659007 191.725015 
L 159.122238 183.584339 
L 159.217774 183.584339 
L 159.3294 175.443663 
L 159.343497 175.443663 
L 159.459201 167.302987 
L 159.911441 167.302987 
L 159.983188 159.162311 
L 160.019565 167.302987 
L 160.236012 167.302987 
L 160.346393 183.584339 
L 160.395844 183.584339 
L 160.45922 175.443663 
L 160.487089 191.725015 
L 160.498335 191.725015 
L 161.116614 191.725015 
L 161.285478 183.584339 
L 161.574334 183.584339 
L 161.698452 175.443663 
L 161.887055 175.443663 
L 161.933459 183.584339 
L 161.975269 175.443663 
L 162.214399 175.443663 
L 162.327808 167.302987 
L 162.372852 167.302987 
L 162.494916 142.880959 
L 162.692336 142.880959 
L 162.801951 159.162311 
L 162.982903 159.162311 
L 163.090991 175.443663 
L 163.378589 175.443663 
L 163.469328 183.584339 
L 163.485381 175.443663 
L 163.572261 175.443663 
L 163.680441 183.584339 
L 163.79163 183.584339 
L 163.898243 175.443663 
L 163.932219 175.443663 
L 164.049783 167.302987 
L 164.266896 167.302987 
L 164.378251 175.443663 
L 164.445246 175.443663 
L 164.509718 167.302987 
L 164.547759 175.443663 
L 164.573219 175.443663 
L 164.600135 183.584339 
L 164.642003 175.443663 
L 164.777884 167.302987 
L 164.827385 167.302987 
L 164.964404 183.584339 
L 165.183841 183.584339 
L 165.398614 191.725015 
L 165.772143 191.725015 
L 165.859228 183.584339 
L 166.021208 183.584339 
L 166.129845 175.443663 
L 166.353753 175.443663 
L 166.429599 159.162311 
L 166.463641 167.302987 
L 166.469457 167.302987 
L 166.474295 175.443663 
L 166.563433 167.302987 
L 166.665196 167.302987 
L 166.772016 175.443663 
L 166.867294 175.443663 
L 166.936482 183.584339 
L 166.975694 175.443663 
L 166.98456 175.443663 
L 167.093988 167.302987 
L 167.109294 167.302987 
L 167.114424 159.162311 
L 167.216432 167.302987 
L 167.230034 167.302987 
L 167.330341 175.443663 
L 167.415426 175.443663 
L 167.487149 159.162311 
L 167.527061 167.302987 
L 167.910499 167.302987 
L 167.972863 159.162311 
L 168.013392 167.302987 
L 168.096085 167.302987 
L 168.196008 159.162311 
L 168.199494 167.302987 
L 168.22073 175.443663 
L 168.309022 167.302987 
L 168.440955 167.302987 
L 168.539857 175.443663 
L 168.593054 175.443663 
L 168.70999 159.162311 
L 168.763604 159.162311 
L 168.875591 175.443663 
L 169.028766 175.443663 
L 169.147093 167.302987 
L 169.160953 167.302987 
L 169.261064 175.443663 
L 169.322014 175.443663 
L 169.396926 183.584339 
L 169.624832 183.584339 
L 169.676935 191.725015 
L 169.801756 191.725015 
L 169.889818 183.584339 
L 170.031611 183.584339 
L 170.147405 191.725015 
L 170.220561 191.725015 
L 170.354653 175.443663 
L 170.368247 183.584339 
L 170.483486 183.584339 
L 170.559127 191.725015 
L 171.733759 191.725015 
L 172.062882 175.443663 
L 172.111684 175.443663 
L 172.182679 167.302987 
L 172.369035 183.584339 
L 172.823312 183.584339 
L 172.924151 175.443663 
L 173.007702 175.443663 
L 173.054506 167.302987 
L 173.117791 175.443663 
L 173.342427 175.443663 
L 173.467814 151.021635 
L 173.546665 159.162311 
L 173.556313 142.880959 
L 173.574512 142.880959 
L 173.659766 142.880959 
L 173.701274 134.740283 
L 173.761686 142.880959 
L 173.787998 142.880959 
L 173.796187 134.740283 
L 173.889017 159.162311 
L 174.003691 159.162311 
L 174.038198 167.302987 
L 174.06078 151.021635 
L 174.104935 151.021635 
L 174.264932 151.021635 
L 174.366085 167.302987 
L 174.485608 159.162311 
L 174.501701 159.162311 
L 174.582395 175.443663 
L 174.711918 175.443663 
L 174.721522 167.302987 
L 174.81844 175.443663 
L 174.850201 175.443663 
L 175.006023 167.302987 
L 175.140115 167.302987 
L 175.226323 159.162311 
L 175.230901 167.302987 
L 176.144564 167.302987 
L 176.267751 151.021635 
L 176.398311 151.021635 
L 176.410304 142.880959 
L 176.486865 159.162311 
L 176.506343 151.021635 
L 176.634495 151.021635 
L 176.701389 159.162311 
L 176.812396 159.162311 
L 176.926895 183.584339 
L 176.993395 183.584339 
L 177.050886 175.443663 
L 177.269519 183.584339 
L 177.611495 151.021635 
L 177.742078 159.162311 
L 177.788959 159.162311 
L 177.905315 151.021635 
L 177.985475 151.021635 
L 178.097669 167.302987 
L 178.274993 167.302987 
L 178.38598 151.021635 
L 178.48662 151.021635 
L 178.497055 142.880959 
L 178.553001 167.302987 
L 178.562674 167.302987 
L 178.589727 167.302987 
L 178.694845 159.162311 
L 178.839234 126.599607 
L 178.840274 134.740283 
L 178.866556 134.740283 
L 178.977406 126.599607 
L 179.028384 126.599607 
L 179.058629 110.318255 
L 179.132806 126.599607 
L 179.171014 126.599607 
L 179.273935 110.318255 
L 179.285732 118.458931 
L 179.320886 118.458931 
L 179.436617 126.599607 
L 179.554185 126.599607 
L 179.698036 159.162311 
L 179.751641 159.162311 
L 179.756243 151.021635 
L 179.819131 167.302987 
L 179.847716 167.302987 
L 179.924975 167.302987 
L 180.033651 175.443663 
L 180.213746 159.162311 
L 180.272308 159.162311 
L 180.358434 151.021635 
L 180.40783 142.880959 
L 180.457368 151.021635 
L 180.741974 151.021635 
L 180.858797 175.443663 
L 181.02503 175.443663 
L 181.032967 167.302987 
L 181.086875 175.443663 
L 181.141207 175.443663 
L 181.246777 167.302987 
L 181.780712 167.302987 
L 181.93903 159.162311 
L 181.964275 159.162311 
L 182.14556 183.584339 
L 182.414143 183.584339 
L 182.420136 175.443663 
L 182.446634 191.725015 
L 182.516022 183.584339 
L 182.783907 183.584339 
L 182.84532 191.725015 
L 182.901761 191.725015 
L 183.039749 183.584339 
L 183.073685 183.584339 
L 183.177169 167.302987 
L 183.295066 183.584339 
L 183.325415 175.443663 
L 183.423038 175.443663 
L 183.539535 167.302987 
L 183.641332 167.302987 
L 183.767616 175.443663 
L 184.000421 175.443663 
L 184.142526 167.302987 
L 184.16042 167.302987 
L 184.233207 175.443663 
L 184.393036 167.302987 
L 184.410098 167.302987 
L 184.55022 159.162311 
L 184.652722 159.162311 
L 184.761953 142.880959 
L 184.784504 151.021635 
L 184.894713 151.021635 
L 184.981345 159.162311 
L 185.456707 159.162311 
L 185.57038 183.584339 
L 185.840951 183.584339 
L 185.905787 191.725015 
L 187.832091 191.725015 
L 188.029621 183.584339 
L 188.087067 191.725015 
L 188.369848 191.725015 
L 188.396618 183.584339 
L 188.76595 183.584339 
L 188.92646 175.443663 
L 189.027201 175.443663 
L 189.07735 167.302987 
L 189.084927 175.443663 
L 189.332259 175.443663 
L 189.344499 183.584339 
L 189.421933 175.443663 
L 189.570895 159.162311 
L 189.61473 159.162311 
L 189.625933 167.302987 
L 189.699365 159.162311 
L 189.848351 159.162311 
L 189.936849 167.302987 
L 189.950557 159.162311 
L 190.055997 151.021635 
L 190.149774 151.021635 
L 190.29798 159.162311 
L 190.363088 151.021635 
L 190.394784 167.302987 
L 190.593251 167.302987 
L 190.827299 183.584339 
L 191.087691 183.584339 
L 191.301639 175.443663 
L 191.315878 175.443663 
L 191.323334 167.302987 
L 191.421804 175.443663 
L 191.894758 175.443663 
L 191.961797 167.302987 
L 192.454349 167.302987 
L 192.599939 175.443663 
L 192.623211 167.302987 
L 192.727196 167.302987 
L 192.85322 175.443663 
L 192.972899 175.443663 
L 193.111505 167.302987 
L 193.146703 167.302987 
L 193.161871 175.443663 
L 193.327002 167.302987 
L 193.520886 175.443663 
L 194.125051 175.443663 
L 194.212837 167.302987 
L 194.517512 167.302987 
L 194.564755 175.443663 
L 194.611903 167.302987 
L 194.665482 167.302987 
L 194.716579 175.443663 
L 194.77548 167.302987 
L 194.83376 167.302987 
L 194.945247 151.021635 
L 195.029787 151.021635 
L 195.209357 167.302987 
L 195.428616 167.302987 
L 195.470534 175.443663 
L 195.509265 167.302987 
L 195.658347 167.302987 
L 195.799625 159.162311 
L 195.880199 159.162311 
L 195.880904 151.021635 
L 196.053167 151.021635 
L 196.172788 167.302987 
L 196.196978 159.162311 
L 196.202428 167.302987 
L 196.346337 167.302987 
L 196.484152 175.443663 
L 196.86896 175.443663 
L 196.900643 183.584339 
L 196.950576 175.443663 
L 197.048915 167.302987 
L 197.268322 167.302987 
L 197.442009 159.162311 
L 197.450285 167.302987 
L 197.553088 159.162311 
L 197.640836 159.162311 
L 197.877541 183.584339 
L 197.990322 175.443663 
L 198.580284 175.443663 
L 198.60333 183.584339 
L 198.722732 175.443663 
L 198.95683 167.302987 
L 199.015357 183.584339 
L 199.060229 175.443663 
L 199.193471 191.725015 
L 199.471333 183.584339 
L 199.536469 191.725015 
L 199.811397 167.302987 
L 199.895697 175.443663 
L 200.145366 151.021635 
L 200.324777 175.443663 
L 200.383084 175.443663 
L 200.559448 167.302987 
L 200.635608 167.302987 
L 200.742252 175.443663 
L 200.816874 175.443663 
L 200.914401 167.302987 
L 200.934294 167.302987 
L 201.049644 175.443663 
L 201.243557 175.443663 
L 201.367339 183.584339 
L 201.451574 183.584339 
L 201.494507 191.725015 
L 201.527254 183.584339 
L 201.645899 183.584339 
L 201.907966 175.443663 
L 202.010462 167.302987 
L 202.060847 167.302987 
L 202.285144 175.443663 
L 202.440263 159.162311 
L 202.481797 159.162311 
L 202.615408 183.584339 
L 202.705184 183.584339 
L 202.807744 191.725015 
L 202.949465 191.725015 
L 202.956253 183.584339 
L 203.328291 191.725015 
L 203.616438 191.725015 
L 204.084018 183.584339 
L 204.202847 175.443663 
L 204.357181 175.443663 
L 204.473627 183.584339 
L 204.544092 175.443663 
L 205.283181 175.443663 
L 205.304203 183.584339 
L 205.427328 175.443663 
L 205.488141 183.584339 
L 205.577524 175.443663 
L 205.592005 183.584339 
L 205.714827 183.584339 
L 205.740832 175.443663 
L 205.786089 183.584339 
L 205.997339 183.584339 
L 206.0179 175.443663 
L 206.094378 183.584339 
L 206.365779 183.584339 
L 206.724772 191.725015 
L 210.578386 191.725015 
L 210.819802 183.584339 
L 211.009645 191.725015 
L 214.399442 191.725015 
L 214.508469 183.584339 
L 214.714403 183.584339 
L 214.858632 191.725015 
L 216.154159 191.725015 
L 216.440846 183.584339 
L 216.637651 191.725015 
L 223.74803 191.725015 
L 223.78458 183.584339 
L 224.105959 175.443663 
L 224.131992 183.584339 
L 225.076277 183.584339 
L 225.130358 191.725015 
L 226.589584 191.725015 
L 226.735546 175.443663 
L 226.898145 159.162311 
L 226.899115 167.302987 
L 227.456772 167.302987 
L 227.703296 183.584339 
L 228.042082 183.584339 
L 228.090005 175.443663 
L 228.134143 183.584339 
L 228.191586 183.584339 
L 228.24324 191.725015 
L 247.550554 191.725015 
L 247.96249 183.584339 
L 248.079753 175.443663 
L 248.365052 183.584339 
L 248.413177 191.725015 
L 253.585566 191.725015 
L 253.643313 183.584339 
L 253.928149 191.725015 
L 257.697309 191.725015 
L 258.035026 183.584339 
L 258.120614 167.302987 
L 258.223062 183.584339 
L 258.363906 183.584339 
L 259.005817 191.725015 
L 260.038097 191.725015 
L 260.434838 183.584339 
L 260.475958 183.584339 
L 260.518081 175.443663 
L 260.723881 183.584339 
L 260.771888 191.725015 
L 260.980887 183.584339 
L 261.287441 167.302987 
L 261.454722 183.584339 
L 262.992774 191.725015 
L 292.907172 191.725015 
L 293.120587 183.584339 
L 293.22152 191.725015 
L 297.313352 191.725015 
L 297.412481 175.443663 
L 297.586838 183.584339 
L 297.627575 191.725015 
L 305.938305 191.725015 
L 306.392063 183.584339 
L 306.869726 191.725015 
L 308.020692 191.725015 
L 308.234327 183.584339 
L 308.312989 191.725015 
L 312.40778 191.725015 
L 312.40778 191.725015 
" clip-path="url(#p5f0b2a4613)" style="fill: none; stroke: #000000; stroke-width: 1.5; stroke-linecap: square"/>
   </g>
   <g id="patch_8">
    <path d="M 43.78125 195.795353 
L 43.78125 106.247917 
" style="fill: none; stroke: #000000; stroke-width: 0.8; stroke-linejoin: miter; stroke-linecap: square"/>
   </g>
   <g id="patch_9">
    <path d="M 325.19952 195.795353 
L 325.19952 106.247917 
" style="fill: none; stroke: #000000; stroke-width: 0.8; stroke-linejoin: miter; stroke-linecap: square"/>
   </g>
   <g id="patch_10">
    <path d="M 43.78125 195.795353 
L 325.19952 195.795353 
" style="fill: none; stroke: #000000; stroke-width: 0.8; stroke-linejoin: miter; stroke-linecap: square"/>
   </g>
   <g id="patch_11">
    <path d="M 43.78125 106.247917 
L 325.19952 106.247917 
" style="fill: none; stroke: #000000; stroke-width: 0.8; stroke-linejoin: miter; stroke-linecap: square"/>
   </g>
  </g>
  <g id="axes_3">
   <g id="patch_12">
    <path d="M 43.78125 294.84327 
L 325.19952 294.84327 
L 325.19952 205.295833 
L 43.78125 205.295833 
z
" style="fill: #ffffff"/>
   </g>
   <g id="matplotlib.axis_5">
    <g id="xtick_19">
     <g id="line2d_27">
      <g>
       <use xlink:href="#mf1ee267865" x="56.57299" y="294.84327" style="stroke: #000000; stroke-width: 0.8"/>
      </g>
     </g>
     <g id="text_9">
      <!-- 0 -->
      <g transform="translate(53.39174 309.441707) scale(0.1 -0.1)">
       <use xlink:href="#DejaVuSans-30"/>
      </g>
     </g>
    </g>
    <g id="xtick_20">
     <g id="line2d_28">
      <g>
       <use xlink:href="#mf1ee267865" x="88.249681" y="294.84327" style="stroke: #000000; stroke-width: 0.8"/>
      </g>
     </g>
     <g id="text_10">
      <!-- 100 -->
      <g transform="translate(78.705931 309.441707) scale(0.1 -0.1)">
       <use xlink:href="#DejaVuSans-31"/>
       <use xlink:href="#DejaVuSans-30" transform="translate(63.623047 0)"/>
       <use xlink:href="#DejaVuSans-30" transform="translate(127.246094 0)"/>
      </g>
     </g>
    </g>
    <g id="xtick_21">
     <g id="line2d_29">
      <g>
       <use xlink:href="#mf1ee267865" x="119.926373" y="294.84327" style="stroke: #000000; stroke-width: 0.8"/>
      </g>
     </g>
     <g id="text_11">
      <!-- 200 -->
      <g transform="translate(110.382623 309.441707) scale(0.1 -0.1)">
       <defs>
        <path id="DejaVuSans-32" d="M 1228 531 
L 3431 531 
L 3431 0 
L 469 0 
L 469 531 
Q 828 903 1448 1529 
Q 2069 2156 2228 2338 
Q 2531 2678 2651 2914 
Q 2772 3150 2772 3378 
Q 2772 3750 2511 3984 
Q 2250 4219 1831 4219 
Q 1534 4219 1204 4116 
Q 875 4013 500 3803 
L 500 4441 
Q 881 4594 1212 4672 
Q 1544 4750 1819 4750 
Q 2544 4750 2975 4387 
Q 3406 4025 3406 3419 
Q 3406 3131 3298 2873 
Q 3191 2616 2906 2266 
Q 2828 2175 2409 1742 
Q 1991 1309 1228 531 
z
" transform="scale(0.015625)"/>
       </defs>
       <use xlink:href="#DejaVuSans-32"/>
       <use xlink:href="#DejaVuSans-30" transform="translate(63.623047 0)"/>
       <use xlink:href="#DejaVuSans-30" transform="translate(127.246094 0)"/>
      </g>
     </g>
    </g>
    <g id="xtick_22">
     <g id="line2d_30">
      <g>
       <use xlink:href="#mf1ee267865" x="151.603065" y="294.84327" style="stroke: #000000; stroke-width: 0.8"/>
      </g>
     </g>
     <g id="text_12">
      <!-- 300 -->
      <g transform="translate(142.059315 309.441707) scale(0.1 -0.1)">
       <defs>
        <path id="DejaVuSans-33" d="M 2597 2516 
Q 3050 2419 3304 2112 
Q 3559 1806 3559 1356 
Q 3559 666 3084 287 
Q 2609 -91 1734 -91 
Q 1441 -91 1130 -33 
Q 819 25 488 141 
L 488 750 
Q 750 597 1062 519 
Q 1375 441 1716 441 
Q 2309 441 2620 675 
Q 2931 909 2931 1356 
Q 2931 1769 2642 2001 
Q 2353 2234 1838 2234 
L 1294 2234 
L 1294 2753 
L 1863 2753 
Q 2328 2753 2575 2939 
Q 2822 3125 2822 3475 
Q 2822 3834 2567 4026 
Q 2313 4219 1838 4219 
Q 1578 4219 1281 4162 
Q 984 4106 628 3988 
L 628 4550 
Q 988 4650 1302 4700 
Q 1616 4750 1894 4750 
Q 2613 4750 3031 4423 
Q 3450 4097 3450 3541 
Q 3450 3153 3228 2886 
Q 3006 2619 2597 2516 
z
" transform="scale(0.015625)"/>
       </defs>
       <use xlink:href="#DejaVuSans-33"/>
       <use xlink:href="#DejaVuSans-30" transform="translate(63.623047 0)"/>
       <use xlink:href="#DejaVuSans-30" transform="translate(127.246094 0)"/>
      </g>
     </g>
    </g>
    <g id="xtick_23">
     <g id="line2d_31">
      <g>
       <use xlink:href="#mf1ee267865" x="183.279757" y="294.84327" style="stroke: #000000; stroke-width: 0.8"/>
      </g>
     </g>
     <g id="text_13">
      <!-- 400 -->
      <g transform="translate(173.736007 309.441707) scale(0.1 -0.1)">
       <defs>
        <path id="DejaVuSans-34" d="M 2419 4116 
L 825 1625 
L 2419 1625 
L 2419 4116 
z
M 2253 4666 
L 3047 4666 
L 3047 1625 
L 3713 1625 
L 3713 1100 
L 3047 1100 
L 3047 0 
L 2419 0 
L 2419 1100 
L 313 1100 
L 313 1709 
L 2253 4666 
z
" transform="scale(0.015625)"/>
       </defs>
       <use xlink:href="#DejaVuSans-34"/>
       <use xlink:href="#DejaVuSans-30" transform="translate(63.623047 0)"/>
       <use xlink:href="#DejaVuSans-30" transform="translate(127.246094 0)"/>
      </g>
     </g>
    </g>
    <g id="xtick_24">
     <g id="line2d_32">
      <g>
       <use xlink:href="#mf1ee267865" x="214.956449" y="294.84327" style="stroke: #000000; stroke-width: 0.8"/>
      </g>
     </g>
     <g id="text_14">
      <!-- 500 -->
      <g transform="translate(205.412699 309.441707) scale(0.1 -0.1)">
       <use xlink:href="#DejaVuSans-35"/>
       <use xlink:href="#DejaVuSans-30" transform="translate(63.623047 0)"/>
       <use xlink:href="#DejaVuSans-30" transform="translate(127.246094 0)"/>
      </g>
     </g>
    </g>
    <g id="xtick_25">
     <g id="line2d_33">
      <g>
       <use xlink:href="#mf1ee267865" x="246.633141" y="294.84327" style="stroke: #000000; stroke-width: 0.8"/>
      </g>
     </g>
     <g id="text_15">
      <!-- 600 -->
      <g transform="translate(237.089391 309.441707) scale(0.1 -0.1)">
       <defs>
        <path id="DejaVuSans-36" d="M 2113 2584 
Q 1688 2584 1439 2293 
Q 1191 2003 1191 1497 
Q 1191 994 1439 701 
Q 1688 409 2113 409 
Q 2538 409 2786 701 
Q 3034 994 3034 1497 
Q 3034 2003 2786 2293 
Q 2538 2584 2113 2584 
z
M 3366 4563 
L 3366 3988 
Q 3128 4100 2886 4159 
Q 2644 4219 2406 4219 
Q 1781 4219 1451 3797 
Q 1122 3375 1075 2522 
Q 1259 2794 1537 2939 
Q 1816 3084 2150 3084 
Q 2853 3084 3261 2657 
Q 3669 2231 3669 1497 
Q 3669 778 3244 343 
Q 2819 -91 2113 -91 
Q 1303 -91 875 529 
Q 447 1150 447 2328 
Q 447 3434 972 4092 
Q 1497 4750 2381 4750 
Q 2619 4750 2861 4703 
Q 3103 4656 3366 4563 
z
" transform="scale(0.015625)"/>
       </defs>
       <use xlink:href="#DejaVuSans-36"/>
       <use xlink:href="#DejaVuSans-30" transform="translate(63.623047 0)"/>
       <use xlink:href="#DejaVuSans-30" transform="translate(127.246094 0)"/>
      </g>
     </g>
    </g>
    <g id="xtick_26">
     <g id="line2d_34">
      <g>
       <use xlink:href="#mf1ee267865" x="278.309833" y="294.84327" style="stroke: #000000; stroke-width: 0.8"/>
      </g>
     </g>
     <g id="text_16">
      <!-- 700 -->
      <g transform="translate(268.766083 309.441707) scale(0.1 -0.1)">
       <defs>
        <path id="DejaVuSans-37" d="M 525 4666 
L 3525 4666 
L 3525 4397 
L 1831 0 
L 1172 0 
L 2766 4134 
L 525 4134 
L 525 4666 
z
" transform="scale(0.015625)"/>
       </defs>
       <use xlink:href="#DejaVuSans-37"/>
       <use xlink:href="#DejaVuSans-30" transform="translate(63.623047 0)"/>
       <use xlink:href="#DejaVuSans-30" transform="translate(127.246094 0)"/>
      </g>
     </g>
    </g>
    <g id="xtick_27">
     <g id="line2d_35">
      <g>
       <use xlink:href="#mf1ee267865" x="309.986525" y="294.84327" style="stroke: #000000; stroke-width: 0.8"/>
      </g>
     </g>
     <g id="text_17">
      <!-- 800 -->
      <g transform="translate(300.442775 309.441707) scale(0.1 -0.1)">
       <defs>
        <path id="DejaVuSans-38" d="M 2034 2216 
Q 1584 2216 1326 1975 
Q 1069 1734 1069 1313 
Q 1069 891 1326 650 
Q 1584 409 2034 409 
Q 2484 409 2743 651 
Q 3003 894 3003 1313 
Q 3003 1734 2745 1975 
Q 2488 2216 2034 2216 
z
M 1403 2484 
Q 997 2584 770 2862 
Q 544 3141 544 3541 
Q 544 4100 942 4425 
Q 1341 4750 2034 4750 
Q 2731 4750 3128 4425 
Q 3525 4100 3525 3541 
Q 3525 3141 3298 2862 
Q 3072 2584 2669 2484 
Q 3125 2378 3379 2068 
Q 3634 1759 3634 1313 
Q 3634 634 3220 271 
Q 2806 -91 2034 -91 
Q 1263 -91 848 271 
Q 434 634 434 1313 
Q 434 1759 690 2068 
Q 947 2378 1403 2484 
z
M 1172 3481 
Q 1172 3119 1398 2916 
Q 1625 2713 2034 2713 
Q 2441 2713 2670 2916 
Q 2900 3119 2900 3481 
Q 2900 3844 2670 4047 
Q 2441 4250 2034 4250 
Q 1625 4250 1398 4047 
Q 1172 3844 1172 3481 
z
" transform="scale(0.015625)"/>
       </defs>
       <use xlink:href="#DejaVuSans-38"/>
       <use xlink:href="#DejaVuSans-30" transform="translate(63.623047 0)"/>
       <use xlink:href="#DejaVuSans-30" transform="translate(127.246094 0)"/>
      </g>
     </g>
    </g>
    <g id="text_18">
     <!-- Time -->
     <g transform="translate(172.256791 323.119832) scale(0.1 -0.1)">
      <defs>
       <path id="DejaVuSans-54" d="M -19 4666 
L 3928 4666 
L 3928 4134 
L 2272 4134 
L 2272 0 
L 1638 0 
L 1638 4134 
L -19 4134 
L -19 4666 
z
" transform="scale(0.015625)"/>
       <path id="DejaVuSans-69" d="M 603 3500 
L 1178 3500 
L 1178 0 
L 603 0 
L 603 3500 
z
M 603 4863 
L 1178 4863 
L 1178 4134 
L 603 4134 
L 603 4863 
z
" transform="scale(0.015625)"/>
       <path id="DejaVuSans-6d" d="M 3328 2828 
Q 3544 3216 3844 3400 
Q 4144 3584 4550 3584 
Q 5097 3584 5394 3201 
Q 5691 2819 5691 2113 
L 5691 0 
L 5113 0 
L 5113 2094 
Q 5113 2597 4934 2840 
Q 4756 3084 4391 3084 
Q 3944 3084 3684 2787 
Q 3425 2491 3425 1978 
L 3425 0 
L 2847 0 
L 2847 2094 
Q 2847 2600 2669 2842 
Q 2491 3084 2119 3084 
Q 1678 3084 1418 2786 
Q 1159 2488 1159 1978 
L 1159 0 
L 581 0 
L 581 3500 
L 1159 3500 
L 1159 2956 
Q 1356 3278 1631 3431 
Q 1906 3584 2284 3584 
Q 2666 3584 2933 3390 
Q 3200 3197 3328 2828 
z
" transform="scale(0.015625)"/>
      </defs>
      <use xlink:href="#DejaVuSans-54"/>
      <use xlink:href="#DejaVuSans-69" transform="translate(57.958984 0)"/>
      <use xlink:href="#DejaVuSans-6d" transform="translate(85.742188 0)"/>
      <use xlink:href="#DejaVuSans-65" transform="translate(183.154297 0)"/>
     </g>
    </g>
   </g>
   <g id="matplotlib.axis_6">
    <g id="ytick_7">
     <g id="line2d_36">
      <g>
       <use xlink:href="#mf106a57c73" x="43.78125" y="290.772932" style="stroke: #000000; stroke-width: 0.8"/>
      </g>
     </g>
     <g id="text_19">
      <!-- 0.0 -->
      <g transform="translate(20.878125 294.572151) scale(0.1 -0.1)">
       <defs>
        <path id="DejaVuSans-2e" d="M 684 794 
L 1344 794 
L 1344 0 
L 684 0 
L 684 794 
z
" transform="scale(0.015625)"/>
       </defs>
       <use xlink:href="#DejaVuSans-30"/>
       <use xlink:href="#DejaVuSans-2e" transform="translate(63.623047 0)"/>
       <use xlink:href="#DejaVuSans-30" transform="translate(95.410156 0)"/>
      </g>
     </g>
    </g>
    <g id="ytick_8">
     <g id="line2d_37">
      <g>
       <use xlink:href="#mf106a57c73" x="43.78125" y="250.069552" style="stroke: #000000; stroke-width: 0.8"/>
      </g>
     </g>
     <g id="text_20">
      <!-- 0.5 -->
      <g transform="translate(20.878125 253.86877) scale(0.1 -0.1)">
       <use xlink:href="#DejaVuSans-30"/>
       <use xlink:href="#DejaVuSans-2e" transform="translate(63.623047 0)"/>
       <use xlink:href="#DejaVuSans-35" transform="translate(95.410156 0)"/>
      </g>
     </g>
    </g>
    <g id="ytick_9">
     <g id="line2d_38">
      <g>
       <use xlink:href="#mf106a57c73" x="43.78125" y="209.366171" style="stroke: #000000; stroke-width: 0.8"/>
      </g>
     </g>
     <g id="text_21">
      <!-- 1.0 -->
      <g transform="translate(20.878125 213.16539) scale(0.1 -0.1)">
       <use xlink:href="#DejaVuSans-31"/>
       <use xlink:href="#DejaVuSans-2e" transform="translate(63.623047 0)"/>
       <use xlink:href="#DejaVuSans-30" transform="translate(95.410156 0)"/>
      </g>
     </g>
    </g>
    <g id="text_22">
     <!-- Free lac operon -->
     <g transform="translate(14.798438 288.540645) rotate(-90) scale(0.1 -0.1)">
      <defs>
       <path id="DejaVuSans-46" d="M 628 4666 
L 3309 4666 
L 3309 4134 
L 1259 4134 
L 1259 2759 
L 3109 2759 
L 3109 2228 
L 1259 2228 
L 1259 0 
L 628 0 
L 628 4666 
z
" transform="scale(0.015625)"/>
       <path id="DejaVuSans-70" d="M 1159 525 
L 1159 -1331 
L 581 -1331 
L 581 3500 
L 1159 3500 
L 1159 2969 
Q 1341 3281 1617 3432 
Q 1894 3584 2278 3584 
Q 2916 3584 3314 3078 
Q 3713 2572 3713 1747 
Q 3713 922 3314 415 
Q 2916 -91 2278 -91 
Q 1894 -91 1617 61 
Q 1341 213 1159 525 
z
M 3116 1747 
Q 3116 2381 2855 2742 
Q 2594 3103 2138 3103 
Q 1681 3103 1420 2742 
Q 1159 2381 1159 1747 
Q 1159 1113 1420 752 
Q 1681 391 2138 391 
Q 2594 391 2855 752 
Q 3116 1113 3116 1747 
z
" transform="scale(0.015625)"/>
       <path id="DejaVuSans-6e" d="M 3513 2113 
L 3513 0 
L 2938 0 
L 2938 2094 
Q 2938 2591 2744 2837 
Q 2550 3084 2163 3084 
Q 1697 3084 1428 2787 
Q 1159 2491 1159 1978 
L 1159 0 
L 581 0 
L 581 3500 
L 1159 3500 
L 1159 2956 
Q 1366 3272 1645 3428 
Q 1925 3584 2291 3584 
Q 2894 3584 3203 3211 
Q 3513 2838 3513 2113 
z
" transform="scale(0.015625)"/>
      </defs>
      <use xlink:href="#DejaVuSans-46"/>
      <use xlink:href="#DejaVuSans-72" transform="translate(50.269531 0)"/>
      <use xlink:href="#DejaVuSans-65" transform="translate(89.132812 0)"/>
      <use xlink:href="#DejaVuSans-65" transform="translate(150.65625 0)"/>
      <use xlink:href="#DejaVuSans-20" transform="translate(212.179688 0)"/>
      <use xlink:href="#DejaVuSans-6c" transform="translate(243.966797 0)"/>
      <use xlink:href="#DejaVuSans-61" transform="translate(271.75 0)"/>
      <use xlink:href="#DejaVuSans-63" transform="translate(333.029297 0)"/>
      <use xlink:href="#DejaVuSans-20" transform="translate(388.009766 0)"/>
      <use xlink:href="#DejaVuSans-6f" transform="translate(419.796875 0)"/>
      <use xlink:href="#DejaVuSans-70" transform="translate(480.978516 0)"/>
      <use xlink:href="#DejaVuSans-65" transform="translate(544.455078 0)"/>
      <use xlink:href="#DejaVuSans-72" transform="translate(605.978516 0)"/>
      <use xlink:href="#DejaVuSans-6f" transform="translate(644.841797 0)"/>
      <use xlink:href="#DejaVuSans-6e" transform="translate(706.023438 0)"/>
     </g>
    </g>
   </g>
   <g id="line2d_39">
    <path d="M 56.57299 209.366171 
L 56.671935 209.366171 
L 56.868369 290.772932 
L 58.213646 290.772932 
L 58.387375 209.366171 
L 58.394726 290.772932 
L 66.174322 209.366171 
L 66.176432 290.772932 
L 67.153713 290.772932 
L 69.681637 209.366171 
L 69.718365 290.772932 
L 70.621607 290.772932 
L 75.501903 209.366171 
L 75.536842 290.772932 
L 76.492136 209.366171 
L 76.649019 290.772932 
L 77.116205 290.772932 
L 78.369443 209.366171 
L 78.475038 290.772932 
L 79.749122 209.366171 
L 79.836823 290.772932 
L 82.159348 209.366171 
L 82.375106 290.772932 
L 83.252337 209.366171 
L 84.229975 209.366171 
L 84.388246 290.772932 
L 85.137694 290.772932 
L 86.280163 209.366171 
L 86.499549 290.772932 
L 86.59746 209.366171 
L 86.603852 290.772932 
L 87.413891 209.366171 
L 87.551624 290.772932 
L 98.2165 209.366171 
L 98.288338 209.366171 
L 98.447734 290.772932 
L 98.666602 290.772932 
L 98.829014 209.366171 
L 99.063669 209.366171 
L 99.260863 290.772932 
L 99.539294 290.772932 
L 99.927975 209.366171 
L 100.584398 209.366171 
L 100.649625 290.772932 
L 102.896915 290.772932 
L 104.334065 209.366171 
L 104.583551 290.772932 
L 111.718442 209.366171 
L 112.035407 290.772932 
L 112.314691 290.772932 
L 115.902191 209.366171 
L 115.970312 290.772932 
L 116.164738 209.366171 
L 116.225548 209.366171 
L 116.225876 290.772932 
L 116.913804 290.772932 
L 120.399887 209.366171 
L 120.604949 290.772932 
L 120.889569 290.772932 
L 121.237418 209.366171 
L 121.703935 290.772932 
L 122.184183 209.366171 
L 122.265246 290.772932 
L 122.992084 290.772932 
L 130.660665 209.366171 
L 130.843792 290.772932 
L 137.747962 209.366171 
L 138.111021 209.366171 
L 138.25256 290.772932 
L 138.858819 290.772932 
L 142.163379 209.366171 
L 142.697313 290.772932 
L 153.022134 209.366171 
L 153.131502 290.772932 
L 155.281979 209.366171 
L 156.017695 209.366171 
L 156.120596 290.772932 
L 158.461966 290.772932 
L 158.571639 209.366171 
L 206.014044 209.366171 
L 206.02662 290.772932 
L 206.094378 209.366171 
L 206.328179 209.366171 
L 206.365779 290.772932 
L 209.8549 290.772932 
L 210.578386 209.366171 
L 211.160041 209.366171 
L 211.182638 290.772932 
L 212.873101 209.366171 
L 212.937745 290.772932 
L 214.508469 209.366171 
L 214.714403 290.772932 
L 214.858632 290.772932 
L 216.154159 209.366171 
L 216.360659 209.366171 
L 216.440846 290.772932 
L 216.880775 290.772932 
L 223.78458 209.366171 
L 223.998116 209.366171 
L 224.131992 290.772932 
L 226.488201 290.772932 
L 226.608469 209.366171 
L 226.938571 209.366171 
L 226.962167 290.772932 
L 227.703296 290.772932 
L 228.042082 209.366171 
L 228.176563 209.366171 
L 228.24324 290.772932 
L 247.550554 209.366171 
L 248.014352 209.366171 
L 248.079753 290.772932 
L 248.702787 290.772932 
L 253.643313 209.366171 
L 253.928149 209.366171 
L 254.579995 290.772932 
L 256.19919 290.772932 
L 256.855106 209.366171 
L 256.898129 290.772932 
L 257.697309 209.366171 
L 258.208141 209.366171 
L 258.223062 290.772932 
L 259.242679 290.772932 
L 260.038097 209.366171 
L 261.427984 209.366171 
L 261.454722 290.772932 
L 270.318361 290.772932 
L 292.907172 209.366171 
L 293.069395 209.366171 
L 293.22152 290.772932 
L 295.404418 290.772932 
L 297.412481 209.366171 
L 297.627575 209.366171 
L 297.784459 290.772932 
L 298.697161 290.772932 
L 305.938305 209.366171 
L 306.33143 209.366171 
L 306.392063 290.772932 
L 307.455029 290.772932 
L 308.130925 209.366171 
L 308.163046 209.366171 
L 308.312989 290.772932 
L 309.869407 209.366171 
L 309.97159 290.772932 
L 312.40778 209.366171 
L 312.40778 209.366171 
" clip-path="url(#pce383ed45b)" style="fill: none; stroke: #000000; stroke-width: 1.5; stroke-linecap: square"/>
   </g>
   <g id="patch_13">
    <path d="M 43.78125 294.84327 
L 43.78125 205.295833 
" style="fill: none; stroke: #000000; stroke-width: 0.8; stroke-linejoin: miter; stroke-linecap: square"/>
   </g>
   <g id="patch_14">
    <path d="M 325.19952 294.84327 
L 325.19952 205.295833 
" style="fill: none; stroke: #000000; stroke-width: 0.8; stroke-linejoin: miter; stroke-linecap: square"/>
   </g>
   <g id="patch_15">
    <path d="M 43.78125 294.84327 
L 325.19952 294.84327 
" style="fill: none; stroke: #000000; stroke-width: 0.8; stroke-linejoin: miter; stroke-linecap: square"/>
   </g>
   <g id="patch_16">
    <path d="M 43.78125 205.295833 
L 325.19952 205.295833 
" style="fill: none; stroke: #000000; stroke-width: 0.8; stroke-linejoin: miter; stroke-linecap: square"/>
   </g>
  </g>
 </g>
 <defs>
  <clipPath id="pd9e4026620">
   <rect x="43.78125" y="7.2" width="281.41827" height="89.547437"/>
  </clipPath>
  <clipPath id="p5f0b2a4613">
   <rect x="43.78125" y="106.247917" width="281.41827" height="89.547437"/>
  </clipPath>
  <clipPath id="pce383ed45b">
   <rect x="43.78125" y="205.295833" width="281.41827" height="89.547437"/>
  </clipPath>
 </defs>
</svg>
