<?xml version="1.0" encoding="utf-8" standalone="no"?>
<!DOCTYPE svg PUBLIC "-//W3C//DTD SVG 1.1//EN"
  "http://www.w3.org/Graphics/SVG/1.1/DTD/svg11.dtd">
<svg xmlns:xlink="http://www.w3.org/1999/xlink" width="332.39952pt" height="332.39952pt" viewBox="0 0 332.39952 332.39952" xmlns="http://www.w3.org/2000/svg" version="1.1">
 <metadata>
  <rdf:RDF xmlns:dc="http://purl.org/dc/elements/1.1/" xmlns:cc="http://creativecommons.org/ns#" xmlns:rdf="http://www.w3.org/1999/02/22-rdf-syntax-ns#">
   <cc:Work>
    <dc:type rdf:resource="http://purl.org/dc/dcmitype/StillImage"/>
    <dc:date>2026-06-12T15:42:25.200695</dc:date>
    <dc:format>image/svg+xml</dc:format>
    <dc:creator>
     <cc:Agent>
      <dc:title>Matplotlib v3.11.0, https://matplotlib.org/</dc:title>
     </cc:Agent>
    </dc:creator>
   </cc:Work>
  </rdf:RDF>
 </metadata>
 <defs>
  <style type="text/css">*{stroke-linejoin: round; stroke-linecap: butt}</style>
 </defs>
 <g id="figure_1">
  <g id="patch_1">
   <path d="M 0 332.39952 
L 332.39952 332.39952 
L 332.39952 0 
L 0 0 
z
" style="fill: #ffffff"/>
  </g>
  <g id="axes_1">
   <g id="patch_2">
    <path d="M 44.103906 96.532593 
L 325.19952 96.532593 
L 325.19952 7.2 
L 44.103906 7.2 
z
" style="fill: #ffffff"/>
   </g>
   <g id="matplotlib.axis_1">
    <g id="xtick_1">
     <g id="line2d_1">
      <defs>
       <path id="ma45679a0f7" d="M 0 0 
L 0 3.5 
" style="stroke: #000000; stroke-width: 0.8"/>
      </defs>
      <g>
       <use xlink:href="#ma45679a0f7" x="56.88098" y="96.532593" style="stroke: #000000; stroke-width: 0.8"/>
      </g>
     </g>
    </g>
    <g id="xtick_2">
     <g id="line2d_2">
      <g>
       <use xlink:href="#ma45679a0f7" x="118.779141" y="96.532593" style="stroke: #000000; stroke-width: 0.8"/>
      </g>
     </g>
    </g>
    <g id="xtick_3">
     <g id="line2d_3">
      <g>
       <use xlink:href="#ma45679a0f7" x="180.677303" y="96.532593" style="stroke: #000000; stroke-width: 0.8"/>
      </g>
     </g>
    </g>
    <g id="xtick_4">
     <g id="line2d_4">
      <g>
       <use xlink:href="#ma45679a0f7" x="242.575465" y="96.532593" style="stroke: #000000; stroke-width: 0.8"/>
      </g>
     </g>
    </g>
    <g id="xtick_5">
     <g id="line2d_5">
      <g>
       <use xlink:href="#ma45679a0f7" x="304.473626" y="96.532593" style="stroke: #000000; stroke-width: 0.8"/>
      </g>
     </g>
    </g>
   </g>
   <g id="matplotlib.axis_2">
    <g id="ytick_1">
     <g id="line2d_6">
      <defs>
       <path id="m3859562314" d="M 0 0 
L -3.5 0 
" style="stroke: #000000; stroke-width: 0.8"/>
      </defs>
      <g>
       <use xlink:href="#m3859562314" x="44.103906" y="92.472021" style="stroke: #000000; stroke-width: 0.8"/>
      </g>
     </g>
     <g id="text_1">
      <!-- 0 -->
      <g transform="translate(30.741406 96.270849) scale(0.1 -0.1)">
       <defs>
        <path id="DejaVuSans-13" d="M 2034 4250 
Q 1547 4250 1301 3770 
Q 1056 3291 1056 2328 
Q 1056 1369 1301 889 
Q 1547 409 2034 409 
Q 2525 409 2770 889 
Q 3016 1369 3016 2328 
Q 3016 3291 2770 3770 
Q 2525 4250 2034 4250 
z
M 2034 4750 
Q 2819 4750 3233 4129 
Q 3647 3509 3647 2328 
Q 3647 1150 3233 529 
Q 2819 -91 2034 -91 
Q 1250 -91 836 529 
Q 422 1150 422 2328 
Q 422 3509 836 4129 
Q 1250 4750 2034 4750 
z
" transform="scale(0.015625)"/>
       </defs>
       <use xlink:href="#DejaVuSans-13"/>
      </g>
     </g>
    </g>
    <g id="ytick_2">
     <g id="line2d_7">
      <g>
       <use xlink:href="#m3859562314" x="44.103906" y="51.866296" style="stroke: #000000; stroke-width: 0.8"/>
      </g>
     </g>
     <g id="text_2">
      <!-- 5 -->
      <g transform="translate(30.741406 55.665125) scale(0.1 -0.1)">
       <defs>
        <path id="DejaVuSans-18" d="M 691 4666 
L 3169 4666 
L 3169 4134 
L 1269 4134 
L 1269 2991 
Q 1406 3038 1543 3061 
Q 1681 3084 1819 3084 
Q 2600 3084 3056 2656 
Q 3513 2228 3513 1497 
Q 3513 744 3044 326 
Q 2575 -91 1722 -91 
Q 1428 -91 1123 -41 
Q 819 9 494 109 
L 494 744 
Q 775 591 1075 516 
Q 1375 441 1709 441 
Q 2250 441 2565 725 
Q 2881 1009 2881 1497 
Q 2881 1984 2565 2268 
Q 2250 2553 1709 2553 
Q 1456 2553 1204 2497 
Q 953 2441 691 2322 
L 691 4666 
z
" transform="scale(0.015625)"/>
       </defs>
       <use xlink:href="#DejaVuSans-18"/>
      </g>
     </g>
    </g>
    <g id="ytick_3">
     <g id="line2d_8">
      <g>
       <use xlink:href="#m3859562314" x="44.103906" y="11.260572" style="stroke: #000000; stroke-width: 0.8"/>
      </g>
     </g>
     <g id="text_3">
      <!-- 10 -->
      <g transform="translate(24.378906 15.059401) scale(0.1 -0.1)">
       <defs>
        <path id="DejaVuSans-14" d="M 794 531 
L 1825 531 
L 1825 4091 
L 703 3866 
L 703 4441 
L 1819 4666 
L 2450 4666 
L 2450 531 
L 3481 531 
L 3481 0 
L 794 0 
L 794 531 
z
" transform="scale(0.015625)"/>
       </defs>
       <use xlink:href="#DejaVuSans-14"/>
       <use xlink:href="#DejaVuSans-13" transform="translate(63.625 0)"/>
      </g>
     </g>
    </g>
    <g id="text_4">
     <!-- Extracellular lactose -->
     <g transform="translate(17.976563 102.838171) rotate(-90) scale(0.1 -0.1)">
      <defs>
       <path id="DejaVuSans-28" d="M 628 4666 
L 3578 4666 
L 3578 4134 
L 1259 4134 
L 1259 2753 
L 3481 2753 
L 3481 2222 
L 1259 2222 
L 1259 531 
L 3634 531 
L 3634 0 
L 628 0 
L 628 4666 
z
" transform="scale(0.015625)"/>
       <path id="DejaVuSans-5b" d="M 3513 3500 
L 2247 1797 
L 3578 0 
L 2900 0 
L 1881 1375 
L 863 0 
L 184 0 
L 1544 1831 
L 300 3500 
L 978 3500 
L 1906 2253 
L 2834 3500 
L 3513 3500 
z
" transform="scale(0.015625)"/>
       <path id="DejaVuSans-57" d="M 1172 4494 
L 1172 3500 
L 2356 3500 
L 2356 3053 
L 1172 3053 
L 1172 1153 
Q 1172 725 1289 603 
Q 1406 481 1766 481 
L 2356 481 
L 2356 0 
L 1766 0 
Q 1100 0 847 248 
Q 594 497 594 1153 
L 594 3053 
L 172 3053 
L 172 3500 
L 594 3500 
L 594 4494 
L 1172 4494 
z
" transform="scale(0.015625)"/>
       <path id="DejaVuSans-55" d="M 2631 2963 
Q 2534 3019 2420 3045 
Q 2306 3072 2169 3072 
Q 1681 3072 1420 2755 
Q 1159 2438 1159 1844 
L 1159 0 
L 581 0 
L 581 3500 
L 1159 3500 
L 1159 2956 
Q 1341 3275 1631 3429 
Q 1922 3584 2338 3584 
Q 2397 3584 2469 3576 
Q 2541 3569 2628 3553 
L 2631 2963 
z
" transform="scale(0.015625)"/>
       <path id="DejaVuSans-44" d="M 2194 1759 
Q 1497 1759 1228 1600 
Q 959 1441 959 1056 
Q 959 750 1161 570 
Q 1363 391 1709 391 
Q 2188 391 2477 730 
Q 2766 1069 2766 1631 
L 2766 1759 
L 2194 1759 
z
M 3341 1997 
L 3341 0 
L 2766 0 
L 2766 531 
Q 2569 213 2275 61 
Q 1981 -91 1556 -91 
Q 1019 -91 701 211 
Q 384 513 384 1019 
Q 384 1609 779 1909 
Q 1175 2209 1959 2209 
L 2766 2209 
L 2766 2266 
Q 2766 2663 2505 2880 
Q 2244 3097 1772 3097 
Q 1472 3097 1187 3025 
Q 903 2953 641 2809 
L 641 3341 
Q 956 3463 1253 3523 
Q 1550 3584 1831 3584 
Q 2591 3584 2966 3190 
Q 3341 2797 3341 1997 
z
" transform="scale(0.015625)"/>
       <path id="DejaVuSans-46" d="M 3122 3366 
L 3122 2828 
Q 2878 2963 2633 3030 
Q 2388 3097 2138 3097 
Q 1578 3097 1268 2742 
Q 959 2388 959 1747 
Q 959 1106 1268 751 
Q 1578 397 2138 397 
Q 2388 397 2633 464 
Q 2878 531 3122 666 
L 3122 134 
Q 2881 22 2623 -34 
Q 2366 -91 2075 -91 
Q 1284 -91 818 406 
Q 353 903 353 1747 
Q 353 2603 823 3093 
Q 1294 3584 2113 3584 
Q 2378 3584 2631 3529 
Q 2884 3475 3122 3366 
z
" transform="scale(0.015625)"/>
       <path id="DejaVuSans-48" d="M 3597 1894 
L 3597 1613 
L 953 1613 
Q 991 1019 1311 708 
Q 1631 397 2203 397 
Q 2534 397 2845 478 
Q 3156 559 3463 722 
L 3463 178 
Q 3153 47 2828 -22 
Q 2503 -91 2169 -91 
Q 1331 -91 842 396 
Q 353 884 353 1716 
Q 353 2575 817 3079 
Q 1281 3584 2069 3584 
Q 2775 3584 3186 3129 
Q 3597 2675 3597 1894 
z
M 3022 2063 
Q 3016 2534 2758 2815 
Q 2500 3097 2075 3097 
Q 1594 3097 1305 2825 
Q 1016 2553 972 2059 
L 3022 2063 
z
" transform="scale(0.015625)"/>
       <path id="DejaVuSans-4f" d="M 603 4863 
L 1178 4863 
L 1178 0 
L 603 0 
L 603 4863 
z
" transform="scale(0.015625)"/>
       <path id="DejaVuSans-58" d="M 544 1381 
L 544 3500 
L 1119 3500 
L 1119 1403 
Q 1119 906 1312 657 
Q 1506 409 1894 409 
Q 2359 409 2629 706 
Q 2900 1003 2900 1516 
L 2900 3500 
L 3475 3500 
L 3475 0 
L 2900 0 
L 2900 538 
Q 2691 219 2414 64 
Q 2138 -91 1772 -91 
Q 1169 -91 856 284 
Q 544 659 544 1381 
z
M 1991 3584 
L 1991 3584 
z
" transform="scale(0.015625)"/>
       <path id="DejaVuSans-3" transform="scale(0.015625)"/>
       <path id="DejaVuSans-52" d="M 1959 3097 
Q 1497 3097 1228 2736 
Q 959 2375 959 1747 
Q 959 1119 1226 758 
Q 1494 397 1959 397 
Q 2419 397 2687 759 
Q 2956 1122 2956 1747 
Q 2956 2369 2687 2733 
Q 2419 3097 1959 3097 
z
M 1959 3584 
Q 2709 3584 3137 3096 
Q 3566 2609 3566 1747 
Q 3566 888 3137 398 
Q 2709 -91 1959 -91 
Q 1206 -91 779 398 
Q 353 888 353 1747 
Q 353 2609 779 3096 
Q 1206 3584 1959 3584 
z
" transform="scale(0.015625)"/>
       <path id="DejaVuSans-56" d="M 2834 3397 
L 2834 2853 
Q 2591 2978 2328 3040 
Q 2066 3103 1784 3103 
Q 1356 3103 1142 2972 
Q 928 2841 928 2578 
Q 928 2378 1081 2264 
Q 1234 2150 1697 2047 
L 1894 2003 
Q 2506 1872 2764 1633 
Q 3022 1394 3022 966 
Q 3022 478 2636 193 
Q 2250 -91 1575 -91 
Q 1294 -91 989 -36 
Q 684 19 347 128 
L 347 722 
Q 666 556 975 473 
Q 1284 391 1588 391 
Q 1994 391 2212 530 
Q 2431 669 2431 922 
Q 2431 1156 2273 1281 
Q 2116 1406 1581 1522 
L 1381 1569 
Q 847 1681 609 1914 
Q 372 2147 372 2553 
Q 372 3047 722 3315 
Q 1072 3584 1716 3584 
Q 2034 3584 2315 3537 
Q 2597 3491 2834 3397 
z
" transform="scale(0.015625)"/>
      </defs>
      <use xlink:href="#DejaVuSans-28"/>
      <use xlink:href="#DejaVuSans-5b" transform="translate(63.1875 0)"/>
      <use xlink:href="#DejaVuSans-57" transform="translate(122.375 0)"/>
      <use xlink:href="#DejaVuSans-55" transform="translate(161.578125 0)"/>
      <use xlink:href="#DejaVuSans-44" transform="translate(202.6875 0)"/>
      <use xlink:href="#DejaVuSans-46" transform="translate(263.96875 0)"/>
      <use xlink:href="#DejaVuSans-48" transform="translate(318.953125 0)"/>
      <use xlink:href="#DejaVuSans-4f" transform="translate(380.484375 0)"/>
      <use xlink:href="#DejaVuSans-4f" transform="translate(408.265625 0)"/>
      <use xlink:href="#DejaVuSans-58" transform="translate(436.046875 0)"/>
      <use xlink:href="#DejaVuSans-4f" transform="translate(499.421875 0)"/>
      <use xlink:href="#DejaVuSans-44" transform="translate(527.203125 0)"/>
      <use xlink:href="#DejaVuSans-55" transform="translate(588.484375 0)"/>
      <use xlink:href="#DejaVuSans-3" transform="translate(629.59375 0)"/>
      <use xlink:href="#DejaVuSans-4f" transform="translate(661.375 0)"/>
      <use xlink:href="#DejaVuSans-44" transform="translate(689.15625 0)"/>
      <use xlink:href="#DejaVuSans-46" transform="translate(750.4375 0)"/>
      <use xlink:href="#DejaVuSans-57" transform="translate(805.421875 0)"/>
      <use xlink:href="#DejaVuSans-52" transform="translate(844.625 0)"/>
      <use xlink:href="#DejaVuSans-56" transform="translate(905.8125 0)"/>
      <use xlink:href="#DejaVuSans-48" transform="translate(957.90625 0)"/>
     </g>
    </g>
   </g>
   <g id="line2d_9">
    <path d="M 56.88098 92.472021 
L 153.154085 92.472021 
L 153.240444 11.260572 
L 153.887897 11.341784 
L 154.001966 11.66663 
L 154.045403 11.747841 
L 154.187103 13.209647 
L 154.304934 14.915088 
L 154.328797 14.996299 
L 154.45431 16.620528 
L 154.477135 16.701739 
L 154.971049 20.193832 
L 155.239755 20.599889 
L 155.297226 20.6811 
L 155.403045 20.762312 
L 155.839787 20.843523 
L 155.93367 21.249581 
L 156.167064 21.655638 
L 156.264437 22.061695 
L 156.381293 22.142906 
L 156.503172 22.630175 
L 156.509951 22.711387 
L 156.634132 23.685924 
L 156.792645 24.985307 
L 156.848978 25.066519 
L 156.972042 25.553787 
L 157.002344 25.634999 
L 157.10219 26.041056 
L 157.600445 29.776783 
L 157.720814 30.832531 
L 157.753781 30.913743 
L 157.899601 31.88828 
L 157.928776 31.969492 
L 158.036544 32.294337 
L 158.071398 32.375549 
L 158.205947 32.781606 
L 158.258667 33.268875 
L 158.372646 33.837355 
L 158.394135 33.918566 
L 158.493982 34.162201 
L 158.536755 34.243412 
L 159.036976 35.948853 
L 159.527926 36.030064 
L 159.676129 36.517333 
L 159.690574 36.598544 
L 159.854374 37.004601 
L 160.059852 37.085813 
L 160.200829 37.654293 
L 160.236678 37.735504 
L 160.292489 37.816716 
L 160.581847 37.897927 
L 160.690981 38.06035 
L 162.398373 38.141562 
L 162.60784 38.710042 
L 162.718277 38.872465 
L 163.101144 39.359733 
L 163.163303 39.765791 
L 163.240051 40.253059 
L 163.399952 40.334271 
L 163.511242 40.415482 
L 163.606866 40.496694 
L 163.831986 41.065174 
L 163.927265 41.471231 
L 164.108294 42.120923 
L 164.148778 42.202134 
L 164.25672 42.689403 
L 164.33188 42.770614 
L 164.441177 43.420306 
L 164.570332 43.907575 
L 164.665846 44.23242 
L 164.849398 45.450592 
L 165.016234 46.668764 
L 165.138637 47.805724 
L 165.292628 49.186319 
L 166.475334 59.500173 
L 166.591455 60.47471 
L 166.834099 62.098939 
L 166.877106 62.18015 
L 167.006786 62.586208 
L 167.072434 63.154688 
L 167.186164 63.560745 
L 167.241744 63.641956 
L 167.345518 63.885591 
L 167.564634 63.966802 
L 167.679528 64.048014 
L 167.839341 64.535282 
L 167.969057 64.616494 
L 168.079762 64.860128 
L 168.191867 64.94134 
L 168.306907 65.184974 
L 168.486493 65.50982 
L 168.545668 65.591031 
L 168.664363 65.753454 
L 168.828827 65.834666 
L 168.986282 66.0783 
L 169.081602 66.159511 
L 169.23832 66.565569 
L 169.465663 66.64678 
L 169.557687 66.809203 
L 169.640215 66.890414 
L 169.930229 67.946163 
L 170.045948 68.35222 
L 170.099643 68.433432 
L 170.241317 69.245546 
L 170.529527 70.301295 
L 170.720911 71.032198 
L 170.849735 71.844313 
L 170.884339 71.925524 
L 171.08696 72.900062 
L 171.197501 72.981273 
L 171.328947 73.224907 
L 171.416843 73.38733 
L 171.480017 73.468542 
L 172.079702 75.011559 
L 172.26592 75.092771 
L 172.387739 75.173982 
L 172.845661 75.255194 
L 172.950951 75.336405 
L 173.011271 75.417616 
L 173.117133 75.498828 
L 173.241883 75.661251 
L 173.411548 75.742462 
L 173.541538 75.904885 
L 173.736681 75.986097 
L 173.84111 76.148519 
L 173.962803 76.310942 
L 174.194505 76.392154 
L 174.442079 76.635788 
L 174.716988 76.717 
L 175.570366 77.691537 
L 175.637067 77.772748 
L 175.893954 78.503651 
L 176.087918 78.584863 
L 176.205552 78.666074 
L 176.746367 78.747286 
L 176.846825 78.828497 
L 178.282729 78.909709 
L 178.335044 78.99092 
L 178.492419 79.072132 
L 179.186755 79.478189 
L 179.510755 79.884246 
L 179.642013 79.965458 
L 180.048127 80.858783 
L 180.251307 80.939995 
L 180.472665 81.427264 
L 180.729274 81.508475 
L 180.856245 81.589686 
L 182.019069 81.670898 
L 182.721247 82.076955 
L 182.82791 82.239378 
L 182.866436 82.320589 
L 182.954458 82.564224 
L 183.0433 82.645435 
L 183.361487 82.726647 
L 183.402795 82.807858 
L 184.43188 83.45755 
L 184.947145 83.538761 
L 185.068681 83.619973 
L 185.286211 83.701184 
L 185.925775 83.782396 
L 186.074902 83.944818 
L 186.404014 84.02603 
L 186.517646 84.188453 
L 186.716335 84.269664 
L 187.102507 84.513299 
L 187.529744 84.919356 
L 187.760816 85.081779 
L 187.86587 85.16299 
L 188.004791 85.244202 
L 188.225101 85.325413 
L 188.354321 85.569047 
L 188.470425 85.73147 
L 188.581784 85.812682 
L 188.703485 86.056316 
L 189.025269 86.137528 
L 189.482275 86.543585 
L 189.764712 86.624796 
L 189.946517 86.868431 
L 190.238013 86.949642 
L 190.515968 87.030853 
L 194.321781 87.112065 
L 195.581978 87.599334 
L 195.633822 87.680545 
L 195.697074 87.842968 
L 196.632771 87.924179 
L 196.726934 88.005391 
L 197.385898 88.086602 
L 197.705717 88.330237 
L 198.181919 88.411448 
L 198.307529 88.49266 
L 198.441391 88.573871 
L 198.833002 88.655082 
L 199.006926 88.736294 
L 199.737633 88.817505 
L 199.813337 88.898717 
L 200.489986 88.979928 
L 200.672047 89.06114 
L 201.053681 89.142351 
L 201.411874 89.304774 
L 202.25794 89.385985 
L 202.43923 89.467197 
L 204.033726 89.548408 
L 204.819125 89.62962 
L 205.516174 89.710831 
L 210.540681 89.873254 
L 239.891137 89.954466 
L 240.726084 90.035677 
L 269.232904 90.116889 
L 269.394586 90.279311 
L 270.180165 90.360523 
L 270.321117 90.441734 
L 270.919223 90.522946 
L 271.055492 90.604157 
L 272.13283 90.685369 
L 272.283631 90.76658 
L 273.126961 90.847792 
L 273.39348 91.091426 
L 274.968394 91.172637 
L 275.498191 91.33506 
L 279.716292 91.416272 
L 279.920826 91.497483 
L 312.422447 91.578695 
L 312.422447 91.578695 
" clip-path="url(#p25f4b008dc)" style="fill: none; stroke: #000000; stroke-width: 1.5; stroke-linecap: square"/>
   </g>
   <g id="patch_3">
    <path d="M 44.103906 96.532593 
L 44.103906 7.2 
" style="fill: none; stroke: #000000; stroke-width: 0.8; stroke-linejoin: miter; stroke-linecap: square"/>
   </g>
   <g id="patch_4">
    <path d="M 325.19952 96.532593 
L 325.19952 7.2 
" style="fill: none; stroke: #000000; stroke-width: 0.8; stroke-linejoin: miter; stroke-linecap: square"/>
   </g>
   <g id="patch_5">
    <path d="M 44.103906 96.532593 
L 325.19952 96.532593 
" style="fill: none; stroke: #000000; stroke-width: 0.8; stroke-linejoin: miter; stroke-linecap: square"/>
   </g>
   <g id="patch_6">
    <path d="M 44.103906 7.2 
L 325.19952 7.2 
" style="fill: none; stroke: #000000; stroke-width: 0.8; stroke-linejoin: miter; stroke-linecap: square"/>
   </g>
  </g>
  <g id="axes_2">
   <g id="patch_7">
    <path d="M 44.103906 195.365666 
L 325.19952 195.365666 
L 325.19952 106.033073 
L 44.103906 106.033073 
z
" style="fill: #ffffff"/>
   </g>
   <g id="matplotlib.axis_3">
    <g id="xtick_6">
     <g id="line2d_10">
      <g>
       <use xlink:href="#ma45679a0f7" x="56.88098" y="195.365666" style="stroke: #000000; stroke-width: 0.8"/>
      </g>
     </g>
    </g>
    <g id="xtick_7">
     <g id="line2d_11">
      <g>
       <use xlink:href="#ma45679a0f7" x="118.779141" y="195.365666" style="stroke: #000000; stroke-width: 0.8"/>
      </g>
     </g>
    </g>
    <g id="xtick_8">
     <g id="line2d_12">
      <g>
       <use xlink:href="#ma45679a0f7" x="180.677303" y="195.365666" style="stroke: #000000; stroke-width: 0.8"/>
      </g>
     </g>
    </g>
    <g id="xtick_9">
     <g id="line2d_13">
      <g>
       <use xlink:href="#ma45679a0f7" x="242.575465" y="195.365666" style="stroke: #000000; stroke-width: 0.8"/>
      </g>
     </g>
    </g>
    <g id="xtick_10">
     <g id="line2d_14">
      <g>
       <use xlink:href="#ma45679a0f7" x="304.473626" y="195.365666" style="stroke: #000000; stroke-width: 0.8"/>
      </g>
     </g>
    </g>
   </g>
   <g id="matplotlib.axis_4">
    <g id="ytick_4">
     <g id="line2d_15">
      <g>
       <use xlink:href="#m3859562314" x="44.103906" y="191.305093" style="stroke: #000000; stroke-width: 0.8"/>
      </g>
     </g>
     <g id="text_5">
      <!-- 0 -->
      <g transform="translate(30.741406 195.103922) scale(0.1 -0.1)">
       <use xlink:href="#DejaVuSans-13"/>
      </g>
     </g>
    </g>
    <g id="ytick_5">
     <g id="line2d_16">
      <g>
       <use xlink:href="#m3859562314" x="44.103906" y="150.699369" style="stroke: #000000; stroke-width: 0.8"/>
      </g>
     </g>
     <g id="text_6">
      <!-- 5 -->
      <g transform="translate(30.741406 154.498197) scale(0.1 -0.1)">
       <use xlink:href="#DejaVuSans-18"/>
      </g>
     </g>
    </g>
    <g id="ytick_6">
     <g id="line2d_17">
      <g>
       <use xlink:href="#m3859562314" x="44.103906" y="110.093645" style="stroke: #000000; stroke-width: 0.8"/>
      </g>
     </g>
     <g id="text_7">
      <!-- 10 -->
      <g transform="translate(24.378906 113.892473) scale(0.1 -0.1)">
       <use xlink:href="#DejaVuSans-14"/>
       <use xlink:href="#DejaVuSans-13" transform="translate(63.625 0)"/>
      </g>
     </g>
    </g>
    <g id="text_8">
     <!-- LacY -->
     <g transform="translate(17.976563 162.352494) rotate(-90) scale(0.1 -0.1)">
      <defs>
       <path id="DejaVuSans-2f" d="M 628 4666 
L 1259 4666 
L 1259 531 
L 3531 531 
L 3531 0 
L 628 0 
L 628 4666 
z
" transform="scale(0.015625)"/>
       <path id="DejaVuSans-3c" d="M -13 4666 
L 666 4666 
L 1959 2747 
L 3244 4666 
L 3922 4666 
L 2272 2222 
L 2272 0 
L 1638 0 
L 1638 2222 
L -13 4666 
z
" transform="scale(0.015625)"/>
      </defs>
      <use xlink:href="#DejaVuSans-2f"/>
      <use xlink:href="#DejaVuSans-44" transform="translate(55.71875 0)"/>
      <use xlink:href="#DejaVuSans-46" transform="translate(117 0)"/>
      <use xlink:href="#DejaVuSans-3c" transform="translate(171.984375 0)"/>
     </g>
    </g>
   </g>
   <g id="line2d_18">
    <path d="M 56.88098 110.093645 
L 56.907288 110.093645 
L 57.035887 126.335935 
L 57.123556 142.578225 
L 57.271069 142.578225 
L 57.288231 134.45708 
L 57.502158 142.578225 
L 57.639739 142.578225 
L 57.805236 158.820514 
L 58.097049 175.062804 
L 58.160687 191.305093 
L 59.64447 191.305093 
L 59.806059 183.183949 
L 59.84751 191.305093 
L 64.718399 191.305093 
L 65.031602 183.183949 
L 65.138235 191.305093 
L 82.106032 191.305093 
L 82.294568 183.183949 
L 84.033725 191.305093 
L 84.048103 183.183949 
L 84.186985 175.062804 
L 84.191499 166.941659 
L 84.503931 175.062804 
L 84.724041 175.062804 
L 84.840062 191.305093 
L 84.899046 183.183949 
L 85.083528 183.183949 
L 85.217831 191.305093 
L 88.992522 191.305093 
L 89.37055 175.062804 
L 89.371812 166.941659 
L 89.85539 166.941659 
L 89.892891 183.183949 
L 90.641718 183.183949 
L 90.805541 175.062804 
L 91.139436 191.305093 
L 107.631099 191.305093 
L 107.733605 183.183949 
L 107.849697 183.183949 
L 107.984591 191.305093 
L 108.212497 191.305093 
L 108.252729 183.183949 
L 108.656133 183.183949 
L 108.995497 175.062804 
L 109.052083 183.183949 
L 109.22206 183.183949 
L 109.250746 191.305093 
L 117.746038 191.305093 
L 117.919081 183.183949 
L 119.956007 183.183949 
L 121.747777 191.305093 
L 129.281604 191.305093 
L 129.462255 183.183949 
L 129.741148 183.183949 
L 129.845676 191.305093 
L 134.050785 191.305093 
L 134.131991 183.183949 
L 134.153197 191.305093 
L 143.844678 191.305093 
L 144.097661 175.062804 
L 144.117865 183.183949 
L 144.145999 175.062804 
L 144.255701 166.941659 
L 144.26088 175.062804 
L 144.828 175.062804 
L 145.426581 183.183949 
L 145.66452 183.183949 
L 145.970283 175.062804 
L 146.079766 175.062804 
L 147.119379 191.305093 
L 147.565685 191.305093 
L 147.616003 175.062804 
L 147.713839 175.062804 
L 147.862066 183.183949 
L 147.991756 183.183949 
L 148.518306 191.305093 
L 153.482543 191.305093 
L 153.897924 183.183949 
L 154.139922 150.699369 
L 154.404132 150.699369 
L 154.523934 166.941659 
L 154.568986 166.941659 
L 154.682624 158.820514 
L 154.751205 158.820514 
L 154.857705 175.062804 
L 154.885055 175.062804 
L 154.971049 183.183949 
L 155.312229 183.183949 
L 155.403045 191.305093 
L 155.790698 191.305093 
L 155.906046 183.183949 
L 156.05018 183.183949 
L 156.163958 175.062804 
L 156.292738 175.062804 
L 156.346549 183.183949 
L 156.403053 175.062804 
L 156.502421 175.062804 
L 156.611661 166.941659 
L 156.758786 166.941659 
L 156.879942 183.183949 
L 157.010104 183.183949 
L 157.129478 175.062804 
L 157.274092 175.062804 
L 157.411973 158.820514 
L 157.570024 158.820514 
L 157.636691 150.699369 
L 157.677936 158.820514 
L 157.759454 158.820514 
L 157.808489 150.699369 
L 157.869643 158.820514 
L 158.023111 158.820514 
L 158.128933 175.062804 
L 158.15701 175.062804 
L 158.186618 183.183949 
L 158.194746 166.941659 
L 158.260707 166.941659 
L 158.488732 166.941659 
L 158.597422 175.062804 
L 158.876096 175.062804 
L 158.973182 183.183949 
L 159.070046 183.183949 
L 159.182504 191.305093 
L 159.44233 191.305093 
L 159.586676 183.183949 
L 159.706514 183.183949 
L 159.818277 175.062804 
L 159.854374 175.062804 
L 159.960235 183.183949 
L 160.282511 183.183949 
L 160.403586 191.305093 
L 160.528487 191.305093 
L 160.653371 183.183949 
L 160.683743 183.183949 
L 160.782217 191.305093 
L 161.346102 191.305093 
L 161.359448 183.183949 
L 161.441386 191.305093 
L 161.802582 191.305093 
L 161.806484 183.183949 
L 161.852916 191.305093 
L 162.194848 191.305093 
L 162.454987 183.183949 
L 162.575669 175.062804 
L 162.636343 175.062804 
L 162.718277 183.183949 
L 163.151064 183.183949 
L 163.172227 175.062804 
L 163.240051 183.183949 
L 163.403525 183.183949 
L 163.475886 191.305093 
L 163.511242 183.183949 
L 163.529616 183.183949 
L 163.675649 166.941659 
L 163.739572 166.941659 
L 163.831986 175.062804 
L 163.924193 175.062804 
L 164.022933 183.183949 
L 164.184263 183.183949 
L 164.25672 166.941659 
L 164.709354 166.941659 
L 164.828611 150.699369 
L 164.942744 150.699369 
L 165.032214 166.941659 
L 165.04991 150.699369 
L 165.080376 150.699369 
L 165.19511 142.578225 
L 165.367981 142.578225 
L 165.482086 150.699369 
L 165.556597 150.699369 
L 165.609019 158.820514 
L 165.662767 150.699369 
L 165.676516 150.699369 
L 165.754505 134.45708 
L 165.801137 142.578225 
L 165.824317 142.578225 
L 165.938233 134.45708 
L 166.15938 134.45708 
L 166.275831 118.21479 
L 166.389009 126.335935 
L 166.42858 126.335935 
L 166.540364 118.21479 
L 166.547923 118.21479 
L 166.661042 134.45708 
L 166.694404 134.45708 
L 166.799674 150.699369 
L 166.864884 150.699369 
L 166.926841 142.578225 
L 166.934859 158.820514 
L 166.962882 158.820514 
L 167.037038 158.820514 
L 167.114212 150.699369 
L 167.140567 158.820514 
L 167.176122 158.820514 
L 167.289003 175.062804 
L 167.345518 175.062804 
L 167.45969 191.305093 
L 167.462252 183.183949 
L 167.571225 183.183949 
L 167.696652 166.941659 
L 167.850447 166.941659 
L 167.969634 175.062804 
L 168.112039 175.062804 
L 168.158287 183.183949 
L 168.21975 175.062804 
L 168.24822 175.062804 
L 168.249218 166.941659 
L 168.356436 175.062804 
L 168.643713 175.062804 
L 168.742178 183.183949 
L 168.945397 183.183949 
L 169.054192 175.062804 
L 169.626898 175.062804 
L 169.62811 183.183949 
L 169.735407 166.941659 
L 169.788243 166.941659 
L 169.900448 158.820514 
L 169.914066 158.820514 
L 169.935298 150.699369 
L 170.0196 158.820514 
L 170.061705 158.820514 
L 170.173723 150.699369 
L 170.265613 150.699369 
L 170.379745 166.941659 
L 170.481398 166.941659 
L 170.582622 158.820514 
L 170.672664 158.820514 
L 170.828581 142.578225 
L 170.95149 142.578225 
L 171.061961 166.941659 
L 171.08696 166.941659 
L 171.197501 158.820514 
L 171.319153 158.820514 
L 171.416843 166.941659 
L 171.736156 166.941659 
L 171.838074 175.062804 
L 171.886142 175.062804 
L 171.973224 166.941659 
L 171.980729 175.062804 
L 172.015399 175.062804 
L 172.027216 183.183949 
L 172.079702 175.062804 
L 172.176013 175.062804 
L 172.320972 183.183949 
L 172.387739 183.183949 
L 172.474449 175.062804 
L 172.582214 175.062804 
L 172.688752 183.183949 
L 172.899341 183.183949 
L 173.016824 158.820514 
L 173.061824 158.820514 
L 173.165487 166.941659 
L 173.282316 183.183949 
L 173.304627 183.183949 
L 173.359099 158.820514 
L 173.411548 166.941659 
L 173.443989 166.941659 
L 173.644903 183.183949 
L 173.656548 183.183949 
L 173.754356 175.062804 
L 173.766051 183.183949 
L 173.903098 183.183949 
L 173.928849 191.305093 
L 174.001727 183.183949 
L 174.339863 183.183949 
L 174.442079 175.062804 
L 174.528664 175.062804 
L 174.779381 166.941659 
L 174.850848 175.062804 
L 174.879491 166.941659 
L 174.963309 166.941659 
L 175.108703 158.820514 
L 175.184012 158.820514 
L 175.242587 166.941659 
L 175.452116 166.941659 
L 175.541445 175.062804 
L 175.606537 175.062804 
L 175.709924 166.941659 
L 176.019326 166.941659 
L 176.189786 183.183949 
L 176.205552 183.183949 
L 176.212453 191.305093 
L 176.262527 183.183949 
L 176.321233 175.062804 
L 176.35046 183.183949 
L 176.423926 183.183949 
L 176.533904 175.062804 
L 176.643396 175.062804 
L 176.746367 183.183949 
L 176.794155 183.183949 
L 176.949928 191.305093 
L 178.142003 191.305093 
L 178.335044 175.062804 
L 178.702933 175.062804 
L 178.726547 183.183949 
L 178.78293 166.941659 
L 179.640274 166.941659 
L 179.731147 158.820514 
L 179.893801 158.820514 
L 180.027462 150.699369 
L 180.144935 150.699369 
L 180.2808 158.820514 
L 180.285507 150.699369 
L 180.319209 166.941659 
L 180.387129 166.941659 
L 180.444104 166.941659 
L 180.518994 175.062804 
L 180.525886 166.941659 
L 180.623152 166.941659 
L 180.745119 175.062804 
L 180.967722 175.062804 
L 180.98704 183.183949 
L 181.572222 183.183949 
L 181.620446 175.062804 
L 181.805621 183.183949 
L 182.019069 175.062804 
L 182.187541 175.062804 
L 182.222151 183.183949 
L 182.290788 175.062804 
L 182.308821 175.062804 
L 182.385008 183.183949 
L 182.484517 183.183949 
L 182.72016 158.820514 
L 182.82791 166.941659 
L 183.23608 166.941659 
L 183.309953 183.183949 
L 183.402795 175.062804 
L 183.508925 175.062804 
L 183.541437 183.183949 
L 183.595829 175.062804 
L 183.707623 175.062804 
L 183.842091 166.941659 
L 183.945039 166.941659 
L 184.061589 183.183949 
L 184.159879 183.183949 
L 184.190793 175.062804 
L 184.255522 183.183949 
L 184.257729 191.305093 
L 184.50866 183.183949 
L 184.607743 183.183949 
L 184.685475 175.062804 
L 184.689409 183.183949 
L 184.839231 183.183949 
L 184.874607 175.062804 
L 184.947145 183.183949 
L 185.64602 183.183949 
L 185.768595 175.062804 
L 185.829443 183.183949 
L 185.846699 175.062804 
L 186.061933 175.062804 
L 186.173488 158.820514 
L 186.180658 158.820514 
L 186.258445 175.062804 
L 186.342633 175.062804 
L 186.438773 166.941659 
L 186.569409 166.941659 
L 186.624739 175.062804 
L 187.018628 175.062804 
L 187.102507 166.941659 
L 187.31022 166.941659 
L 187.450503 150.699369 
L 187.529744 158.820514 
L 187.598602 158.820514 
L 187.706342 166.941659 
L 187.760816 158.820514 
L 187.800794 166.941659 
L 187.824085 166.941659 
L 187.86587 175.062804 
L 187.941623 175.062804 
L 188.004791 166.941659 
L 188.239857 175.062804 
L 188.354321 150.699369 
L 188.441909 150.699369 
L 188.506801 166.941659 
L 188.567007 158.820514 
L 188.589795 158.820514 
L 188.64011 150.699369 
L 188.694304 158.820514 
L 188.816539 158.820514 
L 188.848204 150.699369 
L 189.112625 166.941659 
L 189.20698 166.941659 
L 189.315982 175.062804 
L 189.455949 150.699369 
L 189.509325 158.820514 
L 189.715604 158.820514 
L 189.736789 166.941659 
L 189.804127 158.820514 
L 189.946517 158.820514 
L 190.091528 175.062804 
L 190.238013 166.941659 
L 190.362011 166.941659 
L 190.515968 191.305093 
L 193.122547 191.305093 
L 193.162065 183.183949 
L 193.171072 191.305093 
L 193.590305 191.305093 
L 193.67299 183.183949 
L 193.795663 191.305093 
L 193.816391 175.062804 
L 193.953377 183.183949 
L 194.229686 183.183949 
L 194.321781 175.062804 
L 194.566264 175.062804 
L 194.598212 166.941659 
L 194.85781 166.941659 
L 194.859233 175.062804 
L 194.918332 166.941659 
L 195.390746 166.941659 
L 195.517203 175.062804 
L 195.550619 175.062804 
L 195.680521 183.183949 
L 195.932021 183.183949 
L 195.959078 175.062804 
L 196.079667 183.183949 
L 196.362404 183.183949 
L 196.40345 175.062804 
L 196.40547 183.183949 
L 196.555542 175.062804 
L 196.726934 183.183949 
L 196.881954 191.305093 
L 197.105246 175.062804 
L 197.385898 166.941659 
L 197.507066 166.941659 
L 197.581434 150.699369 
L 197.664335 150.699369 
L 197.760921 142.578225 
L 197.78631 142.578225 
L 197.803937 158.820514 
L 197.892669 142.578225 
L 198.028782 158.820514 
L 198.175334 158.820514 
L 198.245472 150.699369 
L 198.266289 158.820514 
L 198.368982 158.820514 
L 198.441391 166.941659 
L 198.780376 166.941659 
L 198.792038 158.820514 
L 198.833002 166.941659 
L 198.92918 166.941659 
L 198.994605 183.183949 
L 199.006926 166.941659 
L 199.0955 175.062804 
L 199.301345 175.062804 
L 199.307483 183.183949 
L 199.488052 183.183949 
L 199.617703 175.062804 
L 199.783977 175.062804 
L 199.813337 183.183949 
L 200.124441 183.183949 
L 200.328695 166.941659 
L 200.41267 150.699369 
L 200.560873 158.820514 
L 201.148841 158.820514 
L 201.306479 175.062804 
L 201.411874 166.941659 
L 201.521585 175.062804 
L 201.673343 183.183949 
L 201.766618 183.183949 
L 201.899337 175.062804 
L 202.023733 191.305093 
L 202.112795 183.183949 
L 202.421613 183.183949 
L 202.546196 166.941659 
L 202.700781 175.062804 
L 202.863143 166.941659 
L 202.882698 175.062804 
L 203.02111 175.062804 
L 203.054151 166.941659 
L 203.263565 166.941659 
L 203.28438 175.062804 
L 203.556288 175.062804 
L 203.638251 183.183949 
L 204.602741 183.183949 
L 204.652557 191.305093 
L 204.671873 183.183949 
L 204.724645 183.183949 
L 204.7903 175.062804 
L 204.819125 183.183949 
L 207.685896 183.183949 
L 208.009347 191.305093 
L 209.974778 191.305093 
L 210.15753 183.183949 
L 210.274003 191.305093 
L 220.445145 191.305093 
L 220.590597 183.183949 
L 220.801287 191.305093 
L 235.691764 191.305093 
L 236.009491 183.183949 
L 236.137914 183.183949 
L 236.174414 191.305093 
L 236.349834 183.183949 
L 236.861231 183.183949 
L 237.019738 175.062804 
L 237.095999 183.183949 
L 237.384577 183.183949 
L 237.534515 191.305093 
L 239.589459 191.305093 
L 239.891137 183.183949 
L 240.423089 183.183949 
L 240.726084 191.305093 
L 252.129483 191.305093 
L 252.304317 183.183949 
L 252.38358 166.941659 
L 252.541827 166.941659 
L 252.652981 175.062804 
L 253.458285 191.305093 
L 254.674328 191.305093 
L 254.969438 183.183949 
L 255.103666 183.183949 
L 255.186095 191.305093 
L 268.352111 191.305093 
L 268.578071 166.941659 
L 268.787851 191.305093 
L 268.917881 175.062804 
L 268.949564 183.183949 
L 269.033254 183.183949 
L 269.09969 175.062804 
L 269.285929 183.183949 
L 269.498143 166.941659 
L 269.592615 183.183949 
L 269.691175 175.062804 
L 269.933832 175.062804 
L 269.950536 166.941659 
L 270.033783 175.062804 
L 270.391102 175.062804 
L 270.674363 158.820514 
L 270.773093 175.062804 
L 270.897584 166.941659 
L 270.971342 175.062804 
L 271.105331 175.062804 
L 271.243514 166.941659 
L 271.293522 175.062804 
L 271.602238 183.183949 
L 271.746696 175.062804 
L 271.81876 183.183949 
L 271.931375 183.183949 
L 272.01043 191.305093 
L 272.499324 158.820514 
L 272.619702 166.941659 
L 272.688163 158.820514 
L 272.861019 166.941659 
L 272.966919 166.941659 
L 273.038577 158.820514 
L 273.117859 166.941659 
L 273.126961 158.820514 
L 273.208796 158.820514 
L 273.287009 150.699369 
L 273.292051 158.820514 
L 273.39348 158.820514 
L 273.431758 150.699369 
L 273.486285 158.820514 
L 273.695838 175.062804 
L 273.769617 175.062804 
L 273.949404 183.183949 
L 274.025659 183.183949 
L 274.07134 175.062804 
L 274.263926 175.062804 
L 274.34301 183.183949 
L 274.603956 166.941659 
L 274.756146 175.062804 
L 274.80863 175.062804 
L 274.96564 166.941659 
L 274.968394 158.820514 
L 275.224777 158.820514 
L 275.414425 175.062804 
L 275.64963 158.820514 
L 275.918064 183.183949 
L 276.076192 183.183949 
L 276.33207 175.062804 
L 276.466725 158.820514 
L 276.506655 158.820514 
L 276.670921 150.699369 
L 276.749639 158.820514 
L 277.006915 158.820514 
L 277.046597 142.578225 
L 277.113243 158.820514 
L 277.315837 158.820514 
L 277.559851 166.941659 
L 277.696509 166.941659 
L 277.747891 175.062804 
L 277.781599 166.941659 
L 277.950255 166.941659 
L 278.005742 158.820514 
L 278.029296 166.941659 
L 278.154053 175.062804 
L 278.356627 175.062804 
L 278.404819 183.183949 
L 278.567598 166.941659 
L 278.614177 175.062804 
L 278.719652 175.062804 
L 278.901186 166.941659 
L 278.923867 183.183949 
L 279.141469 175.062804 
L 279.160153 183.183949 
L 279.338115 183.183949 
L 279.460357 175.062804 
L 279.54499 183.183949 
L 279.785903 175.062804 
L 279.873476 175.062804 
L 279.966265 183.183949 
L 280.146675 183.183949 
L 280.405198 175.062804 
L 280.539214 183.183949 
L 280.730683 175.062804 
L 280.851703 183.183949 
L 280.904178 183.183949 
L 281.089897 175.062804 
L 281.177156 166.941659 
L 281.478373 175.062804 
L 281.634171 175.062804 
L 281.88335 183.183949 
L 282.410121 183.183949 
L 282.433801 191.305093 
L 291.951504 191.305093 
L 291.954468 183.183949 
L 291.982473 191.305093 
L 292.253115 183.183949 
L 292.447122 191.305093 
L 293.004295 191.305093 
L 293.229053 175.062804 
L 293.270406 191.305093 
L 299.783869 191.305093 
L 299.937358 183.183949 
L 299.953356 191.305093 
L 312.422447 191.305093 
L 312.422447 191.305093 
" clip-path="url(#p19c1871824)" style="fill: none; stroke: #000000; stroke-width: 1.5; stroke-linecap: square"/>
   </g>
   <g id="patch_8">
    <path d="M 44.103906 195.365666 
L 44.103906 106.033073 
" style="fill: none; stroke: #000000; stroke-width: 0.8; stroke-linejoin: miter; stroke-linecap: square"/>
   </g>
   <g id="patch_9">
    <path d="M 325.19952 195.365666 
L 325.19952 106.033073 
" style="fill: none; stroke: #000000; stroke-width: 0.8; stroke-linejoin: miter; stroke-linecap: square"/>
   </g>
   <g id="patch_10">
    <path d="M 44.103906 195.365666 
L 325.19952 195.365666 
" style="fill: none; stroke: #000000; stroke-width: 0.8; stroke-linejoin: miter; stroke-linecap: square"/>
   </g>
   <g id="patch_11">
    <path d="M 44.103906 106.033073 
L 325.19952 106.033073 
" style="fill: none; stroke: #000000; stroke-width: 0.8; stroke-linejoin: miter; stroke-linecap: square"/>
   </g>
  </g>
  <g id="axes_3">
   <g id="patch_12">
    <path d="M 44.103906 294.198739 
L 325.19952 294.198739 
L 325.19952 204.866146 
L 44.103906 204.866146 
z
" style="fill: #ffffff"/>
   </g>
   <g id="matplotlib.axis_5">
    <g id="xtick_11">
     <g id="line2d_19">
      <g>
       <use xlink:href="#ma45679a0f7" x="56.88098" y="294.198739" style="stroke: #000000; stroke-width: 0.8"/>
      </g>
     </g>
     <g id="text_9">
      <!-- 0 -->
      <g transform="translate(53.69973 308.796395) scale(0.1 -0.1)">
       <use xlink:href="#DejaVuSans-13"/>
      </g>
     </g>
    </g>
    <g id="xtick_12">
     <g id="line2d_20">
      <g>
       <use xlink:href="#ma45679a0f7" x="118.779141" y="294.198739" style="stroke: #000000; stroke-width: 0.8"/>
      </g>
     </g>
     <g id="text_10">
      <!-- 200 -->
      <g transform="translate(109.235391 308.796395) scale(0.1 -0.1)">
       <defs>
        <path id="DejaVuSans-15" d="M 1228 531 
L 3431 531 
L 3431 0 
L 469 0 
L 469 531 
Q 828 903 1448 1529 
Q 2069 2156 2228 2338 
Q 2531 2678 2651 2914 
Q 2772 3150 2772 3378 
Q 2772 3750 2511 3984 
Q 2250 4219 1831 4219 
Q 1534 4219 1204 4116 
Q 875 4013 500 3803 
L 500 4441 
Q 881 4594 1212 4672 
Q 1544 4750 1819 4750 
Q 2544 4750 2975 4387 
Q 3406 4025 3406 3419 
Q 3406 3131 3298 2873 
Q 3191 2616 2906 2266 
Q 2828 2175 2409 1742 
Q 1991 1309 1228 531 
z
" transform="scale(0.015625)"/>
       </defs>
       <use xlink:href="#DejaVuSans-15"/>
       <use xlink:href="#DejaVuSans-13" transform="translate(63.625 0)"/>
       <use xlink:href="#DejaVuSans-13" transform="translate(127.25 0)"/>
      </g>
     </g>
    </g>
    <g id="xtick_13">
     <g id="line2d_21">
      <g>
       <use xlink:href="#ma45679a0f7" x="180.677303" y="294.198739" style="stroke: #000000; stroke-width: 0.8"/>
      </g>
     </g>
     <g id="text_11">
      <!-- 400 -->
      <g transform="translate(171.133553 308.796395) scale(0.1 -0.1)">
       <defs>
        <path id="DejaVuSans-17" d="M 2419 4116 
L 825 1625 
L 2419 1625 
L 2419 4116 
z
M 2253 4666 
L 3047 4666 
L 3047 1625 
L 3713 1625 
L 3713 1100 
L 3047 1100 
L 3047 0 
L 2419 0 
L 2419 1100 
L 313 1100 
L 313 1709 
L 2253 4666 
z
" transform="scale(0.015625)"/>
       </defs>
       <use xlink:href="#DejaVuSans-17"/>
       <use xlink:href="#DejaVuSans-13" transform="translate(63.625 0)"/>
       <use xlink:href="#DejaVuSans-13" transform="translate(127.25 0)"/>
      </g>
     </g>
    </g>
    <g id="xtick_14">
     <g id="line2d_22">
      <g>
       <use xlink:href="#ma45679a0f7" x="242.575465" y="294.198739" style="stroke: #000000; stroke-width: 0.8"/>
      </g>
     </g>
     <g id="text_12">
      <!-- 600 -->
      <g transform="translate(233.031715 308.796395) scale(0.1 -0.1)">
       <defs>
        <path id="DejaVuSans-19" d="M 2113 2584 
Q 1688 2584 1439 2293 
Q 1191 2003 1191 1497 
Q 1191 994 1439 701 
Q 1688 409 2113 409 
Q 2538 409 2786 701 
Q 3034 994 3034 1497 
Q 3034 2003 2786 2293 
Q 2538 2584 2113 2584 
z
M 3366 4563 
L 3366 3988 
Q 3128 4100 2886 4159 
Q 2644 4219 2406 4219 
Q 1781 4219 1451 3797 
Q 1122 3375 1075 2522 
Q 1259 2794 1537 2939 
Q 1816 3084 2150 3084 
Q 2853 3084 3261 2657 
Q 3669 2231 3669 1497 
Q 3669 778 3244 343 
Q 2819 -91 2113 -91 
Q 1303 -91 875 529 
Q 447 1150 447 2328 
Q 447 3434 972 4092 
Q 1497 4750 2381 4750 
Q 2619 4750 2861 4703 
Q 3103 4656 3366 4563 
z
" transform="scale(0.015625)"/>
       </defs>
       <use xlink:href="#DejaVuSans-19"/>
       <use xlink:href="#DejaVuSans-13" transform="translate(63.625 0)"/>
       <use xlink:href="#DejaVuSans-13" transform="translate(127.25 0)"/>
      </g>
     </g>
    </g>
    <g id="xtick_15">
     <g id="line2d_23">
      <g>
       <use xlink:href="#ma45679a0f7" x="304.473626" y="294.198739" style="stroke: #000000; stroke-width: 0.8"/>
      </g>
     </g>
     <g id="text_13">
      <!-- 800 -->
      <g transform="translate(294.929876 308.796395) scale(0.1 -0.1)">
       <defs>
        <path id="DejaVuSans-1b" d="M 2034 2216 
Q 1584 2216 1326 1975 
Q 1069 1734 1069 1313 
Q 1069 891 1326 650 
Q 1584 409 2034 409 
Q 2484 409 2743 651 
Q 3003 894 3003 1313 
Q 3003 1734 2745 1975 
Q 2488 2216 2034 2216 
z
M 1403 2484 
Q 997 2584 770 2862 
Q 544 3141 544 3541 
Q 544 4100 942 4425 
Q 1341 4750 2034 4750 
Q 2731 4750 3128 4425 
Q 3525 4100 3525 3541 
Q 3525 3141 3298 2862 
Q 3072 2584 2669 2484 
Q 3125 2378 3379 2068 
Q 3634 1759 3634 1313 
Q 3634 634 3220 271 
Q 2806 -91 2034 -91 
Q 1263 -91 848 271 
Q 434 634 434 1313 
Q 434 1759 690 2068 
Q 947 2378 1403 2484 
z
M 1172 3481 
Q 1172 3119 1398 2916 
Q 1625 2713 2034 2713 
Q 2441 2713 2670 2916 
Q 2900 3119 2900 3481 
Q 2900 3844 2670 4047 
Q 2441 4250 2034 4250 
Q 1625 4250 1398 4047 
Q 1172 3844 1172 3481 
z
" transform="scale(0.015625)"/>
       </defs>
       <use xlink:href="#DejaVuSans-1b"/>
       <use xlink:href="#DejaVuSans-13" transform="translate(63.625 0)"/>
       <use xlink:href="#DejaVuSans-13" transform="translate(127.25 0)"/>
      </g>
     </g>
    </g>
    <g id="text_14">
     <!-- Time -->
     <g transform="translate(172.415776 322.797176) scale(0.1 -0.1)">
      <defs>
       <path id="DejaVuSans-37" d="M -19 4666 
L 3928 4666 
L 3928 4134 
L 2272 4134 
L 2272 0 
L 1638 0 
L 1638 4134 
L -19 4134 
L -19 4666 
z
" transform="scale(0.015625)"/>
       <path id="DejaVuSans-4c" d="M 603 3500 
L 1178 3500 
L 1178 0 
L 603 0 
L 603 3500 
z
M 603 4863 
L 1178 4863 
L 1178 4134 
L 603 4134 
L 603 4863 
z
" transform="scale(0.015625)"/>
       <path id="DejaVuSans-50" d="M 3328 2828 
Q 3544 3216 3844 3400 
Q 4144 3584 4550 3584 
Q 5097 3584 5394 3201 
Q 5691 2819 5691 2113 
L 5691 0 
L 5113 0 
L 5113 2094 
Q 5113 2597 4934 2840 
Q 4756 3084 4391 3084 
Q 3944 3084 3684 2787 
Q 3425 2491 3425 1978 
L 3425 0 
L 2847 0 
L 2847 2094 
Q 2847 2600 2669 2842 
Q 2491 3084 2119 3084 
Q 1678 3084 1418 2786 
Q 1159 2488 1159 1978 
L 1159 0 
L 581 0 
L 581 3500 
L 1159 3500 
L 1159 2956 
Q 1356 3278 1631 3431 
Q 1906 3584 2284 3584 
Q 2666 3584 2933 3390 
Q 3200 3197 3328 2828 
z
" transform="scale(0.015625)"/>
      </defs>
      <use xlink:href="#DejaVuSans-37"/>
      <use xlink:href="#DejaVuSans-4c" transform="translate(58 0)"/>
      <use xlink:href="#DejaVuSans-50" transform="translate(85.78125 0)"/>
      <use xlink:href="#DejaVuSans-48" transform="translate(183.1875 0)"/>
     </g>
    </g>
   </g>
   <g id="matplotlib.axis_6">
    <g id="ytick_7">
     <g id="line2d_24">
      <g>
       <use xlink:href="#m3859562314" x="44.103906" y="290.138166" style="stroke: #000000; stroke-width: 0.8"/>
      </g>
     </g>
     <g id="text_15">
      <!-- 0.0 -->
      <g transform="translate(21.200781 293.936994) scale(0.1 -0.1)">
       <defs>
        <path id="DejaVuSans-11" d="M 684 794 
L 1344 794 
L 1344 0 
L 684 0 
L 684 794 
z
" transform="scale(0.015625)"/>
       </defs>
       <use xlink:href="#DejaVuSans-13"/>
       <use xlink:href="#DejaVuSans-11" transform="translate(63.625 0)"/>
       <use xlink:href="#DejaVuSans-13" transform="translate(95.40625 0)"/>
      </g>
     </g>
    </g>
    <g id="ytick_8">
     <g id="line2d_25">
      <g>
       <use xlink:href="#m3859562314" x="44.103906" y="249.532442" style="stroke: #000000; stroke-width: 0.8"/>
      </g>
     </g>
     <g id="text_16">
      <!-- 0.5 -->
      <g transform="translate(21.200781 253.33127) scale(0.1 -0.1)">
       <use xlink:href="#DejaVuSans-13"/>
       <use xlink:href="#DejaVuSans-11" transform="translate(63.625 0)"/>
       <use xlink:href="#DejaVuSans-18" transform="translate(95.40625 0)"/>
      </g>
     </g>
    </g>
    <g id="ytick_9">
     <g id="line2d_26">
      <g>
       <use xlink:href="#m3859562314" x="44.103906" y="208.926718" style="stroke: #000000; stroke-width: 0.8"/>
      </g>
     </g>
     <g id="text_17">
      <!-- 1.0 -->
      <g transform="translate(21.200781 212.725546) scale(0.1 -0.1)">
       <use xlink:href="#DejaVuSans-14"/>
       <use xlink:href="#DejaVuSans-11" transform="translate(63.625 0)"/>
       <use xlink:href="#DejaVuSans-13" transform="translate(95.40625 0)"/>
      </g>
     </g>
    </g>
    <g id="text_18">
     <!-- Free lac operon -->
     <g transform="translate(14.798438 288.006661) rotate(-90) scale(0.1 -0.1)">
      <defs>
       <path id="DejaVuSans-29" d="M 628 4666 
L 3309 4666 
L 3309 4134 
L 1259 4134 
L 1259 2759 
L 3109 2759 
L 3109 2228 
L 1259 2228 
L 1259 0 
L 628 0 
L 628 4666 
z
" transform="scale(0.015625)"/>
       <path id="DejaVuSans-53" d="M 1159 525 
L 1159 -1331 
L 581 -1331 
L 581 3500 
L 1159 3500 
L 1159 2969 
Q 1341 3281 1617 3432 
Q 1894 3584 2278 3584 
Q 2916 3584 3314 3078 
Q 3713 2572 3713 1747 
Q 3713 922 3314 415 
Q 2916 -91 2278 -91 
Q 1894 -91 1617 61 
Q 1341 213 1159 525 
z
M 3116 1747 
Q 3116 2381 2855 2742 
Q 2594 3103 2138 3103 
Q 1681 3103 1420 2742 
Q 1159 2381 1159 1747 
Q 1159 1113 1420 752 
Q 1681 391 2138 391 
Q 2594 391 2855 752 
Q 3116 1113 3116 1747 
z
" transform="scale(0.015625)"/>
       <path id="DejaVuSans-51" d="M 3513 2113 
L 3513 0 
L 2938 0 
L 2938 2094 
Q 2938 2591 2744 2837 
Q 2550 3084 2163 3084 
Q 1697 3084 1428 2787 
Q 1159 2491 1159 1978 
L 1159 0 
L 581 0 
L 581 3500 
L 1159 3500 
L 1159 2956 
Q 1366 3272 1645 3428 
Q 1925 3584 2291 3584 
Q 2894 3584 3203 3211 
Q 3513 2838 3513 2113 
z
" transform="scale(0.015625)"/>
      </defs>
      <use xlink:href="#DejaVuSans-29"/>
      <use xlink:href="#DejaVuSans-55" transform="translate(50.234375 0)"/>
      <use xlink:href="#DejaVuSans-48" transform="translate(89.140625 0)"/>
      <use xlink:href="#DejaVuSans-48" transform="translate(150.671875 0)"/>
      <use xlink:href="#DejaVuSans-3" transform="translate(212.203125 0)"/>
      <use xlink:href="#DejaVuSans-4f" transform="translate(243.984375 0)"/>
      <use xlink:href="#DejaVuSans-44" transform="translate(271.765625 0)"/>
      <use xlink:href="#DejaVuSans-46" transform="translate(333.046875 0)"/>
      <use xlink:href="#DejaVuSans-3" transform="translate(388.03125 0)"/>
      <use xlink:href="#DejaVuSans-52" transform="translate(419.8125 0)"/>
      <use xlink:href="#DejaVuSans-53" transform="translate(481 0)"/>
      <use xlink:href="#DejaVuSans-48" transform="translate(544.484375 0)"/>
      <use xlink:href="#DejaVuSans-55" transform="translate(606.015625 0)"/>
      <use xlink:href="#DejaVuSans-52" transform="translate(644.921875 0)"/>
      <use xlink:href="#DejaVuSans-51" transform="translate(706.109375 0)"/>
     </g>
    </g>
   </g>
   <g id="line2d_27">
    <path d="M 56.88098 208.926718 
L 56.960136 290.138166 
L 57.123556 290.138166 
L 57.288231 208.926718 
L 57.40298 208.926718 
L 57.502158 290.138166 
L 58.683256 290.138166 
L 59.64447 208.926718 
L 59.825423 208.926718 
L 59.84751 290.138166 
L 62.198921 290.138166 
L 64.718399 208.926718 
L 65.004766 208.926718 
L 65.138235 290.138166 
L 65.260467 290.138166 
L 71.730195 208.926718 
L 71.895074 290.138166 
L 79.507915 208.926718 
L 79.555534 290.138166 
L 82.106032 208.926718 
L 82.241972 208.926718 
L 82.294568 290.138166 
L 83.984563 290.138166 
L 84.048103 208.926718 
L 84.899046 208.926718 
L 85.083528 290.138166 
L 86.086491 290.138166 
L 88.992522 208.926718 
L 89.516906 208.926718 
L 89.545338 290.138166 
L 89.892891 290.138166 
L 90.748786 208.926718 
L 90.805541 290.138166 
L 91.139436 290.138166 
L 107.720299 208.926718 
L 107.733605 290.138166 
L 107.984591 290.138166 
L 108.252729 208.926718 
L 108.531769 290.138166 
L 108.656133 208.926718 
L 109.052083 208.926718 
L 109.250746 290.138166 
L 109.534919 290.138166 
L 113.57661 208.926718 
L 114.218114 290.138166 
L 115.812623 208.926718 
L 116.11873 290.138166 
L 116.77169 208.926718 
L 116.856487 290.138166 
L 117.83663 208.926718 
L 117.919081 290.138166 
L 121.747777 290.138166 
L 127.592395 208.926718 
L 127.695275 290.138166 
L 129.387113 208.926718 
L 129.824856 208.926718 
L 129.845676 290.138166 
L 131.632695 290.138166 
L 134.153197 208.926718 
L 134.166119 290.138166 
L 136.963776 208.926718 
L 137.005271 290.138166 
L 143.844678 208.926718 
L 144.761665 208.926718 
L 144.828 290.138166 
L 145.426581 290.138166 
L 145.66452 208.926718 
L 145.970283 208.926718 
L 146.079766 290.138166 
L 147.119379 290.138166 
L 147.616003 208.926718 
L 147.713839 290.138166 
L 148.802476 290.138166 
L 148.813469 208.926718 
L 148.970329 290.138166 
L 153.154085 208.926718 
L 153.240444 290.138166 
L 153.482543 208.926718 
L 190.169563 208.926718 
L 190.238013 290.138166 
L 192.670497 290.138166 
L 192.818488 208.926718 
L 203.638251 208.926718 
L 204.033726 290.138166 
L 204.504577 290.138166 
L 204.671873 208.926718 
L 204.819125 208.926718 
L 204.984602 290.138166 
L 208.009347 290.138166 
L 209.437525 208.926718 
L 209.532352 290.138166 
L 209.974778 208.926718 
L 210.274003 208.926718 
L 210.438924 290.138166 
L 210.490573 208.926718 
L 210.540681 290.138166 
L 211.772677 290.138166 
L 220.445145 208.926718 
L 220.586254 208.926718 
L 220.590597 290.138166 
L 221.060241 290.138166 
L 231.71857 208.926718 
L 231.852992 290.138166 
L 234.021497 208.926718 
L 234.34691 290.138166 
L 235.528314 208.926718 
L 235.551977 290.138166 
L 235.691764 208.926718 
L 236.979218 208.926718 
L 236.983326 290.138166 
L 237.042379 208.926718 
L 237.095999 208.926718 
L 237.384577 290.138166 
L 237.534515 290.138166 
L 239.589459 208.926718 
L 239.878795 208.926718 
L 239.891137 290.138166 
L 240.726084 290.138166 
L 251.751167 208.926718 
L 251.882051 290.138166 
L 252.129483 208.926718 
L 252.430393 208.926718 
L 252.541827 290.138166 
L 253.458285 290.138166 
L 254.674328 208.926718 
L 254.879437 208.926718 
L 254.969438 290.138166 
L 255.111774 208.926718 
L 255.186095 290.138166 
L 255.792784 208.926718 
L 256.103251 290.138166 
L 262.023446 208.926718 
L 262.257394 290.138166 
L 266.579685 208.926718 
L 266.599572 290.138166 
L 268.422753 208.926718 
L 281.78609 208.926718 
L 281.88335 290.138166 
L 282.433801 290.138166 
L 283.083656 208.926718 
L 283.435193 290.138166 
L 291.982473 208.926718 
L 292.394114 208.926718 
L 292.447122 290.138166 
L 293.063563 208.926718 
L 293.211426 208.926718 
L 293.270406 290.138166 
L 293.63975 290.138166 
L 293.653959 208.926718 
L 293.715139 290.138166 
L 293.989775 290.138166 
L 295.446935 208.926718 
L 295.466887 290.138166 
L 299.888973 208.926718 
L 299.953356 290.138166 
L 300.222969 290.138166 
L 301.842825 208.926718 
L 302.179075 290.138166 
L 312.422447 208.926718 
L 312.422447 208.926718 
" clip-path="url(#p84c03b0f2f)" style="fill: none; stroke: #000000; stroke-width: 1.5; stroke-linecap: square"/>
   </g>
   <g id="patch_13">
    <path d="M 44.103906 294.198739 
L 44.103906 204.866146 
" style="fill: none; stroke: #000000; stroke-width: 0.8; stroke-linejoin: miter; stroke-linecap: square"/>
   </g>
   <g id="patch_14">
    <path d="M 325.19952 294.198739 
L 325.19952 204.866146 
" style="fill: none; stroke: #000000; stroke-width: 0.8; stroke-linejoin: miter; stroke-linecap: square"/>
   </g>
   <g id="patch_15">
    <path d="M 44.103906 294.198739 
L 325.19952 294.198739 
" style="fill: none; stroke: #000000; stroke-width: 0.8; stroke-linejoin: miter; stroke-linecap: square"/>
   </g>
   <g id="patch_16">
    <path d="M 44.103906 204.866146 
L 325.19952 204.866146 
" style="fill: none; stroke: #000000; stroke-width: 0.8; stroke-linejoin: miter; stroke-linecap: square"/>
   </g>
  </g>
 </g>
 <defs>
  <clipPath id="p25f4b008dc">
   <rect x="44.103906" y="7.2" width="281.095614" height="89.332593"/>
  </clipPath>
  <clipPath id="p19c1871824">
   <rect x="44.103906" y="106.033073" width="281.095614" height="89.332593"/>
  </clipPath>
  <clipPath id="p84c03b0f2f">
   <rect x="44.103906" y="204.866146" width="281.095614" height="89.332593"/>
  </clipPath>
 </defs>
</svg>
