<?xml version="1.0" encoding="utf-8" standalone="no"?>
<!DOCTYPE svg PUBLIC "-//W3C//DTD SVG 1.1//EN"
  "http://www.w3.org/Graphics/SVG/1.1/DTD/svg11.dtd">
<svg xmlns:xlink="http://www.w3.org/1999/xlink" width="332.39952pt" height="338.705099pt" viewBox="0 0 332.39952 338.705099" xmlns="http://www.w3.org/2000/svg" version="1.1">
 <metadata>
  <rdf:RDF xmlns:dc="http://purl.org/dc/elements/1.1/" xmlns:cc="http://creativecommons.org/ns#" xmlns:rdf="http://www.w3.org/1999/02/22-rdf-syntax-ns#">
   <cc:Work>
    <dc:type rdf:resource="http://purl.org/dc/dcmitype/StillImage"/>
    <dc:date>2026-07-21T19:21:33.871744</dc:date>
    <dc:format>image/svg+xml</dc:format>
    <dc:creator>
     <cc:Agent>
      <dc:title>Matplotlib v3.11.1, https://matplotlib.org/</dc:title>
     </cc:Agent>
    </dc:creator>
   </cc:Work>
  </rdf:RDF>
 </metadata>
 <defs>
  <style type="text/css">*{stroke-linejoin: round; stroke-linecap: butt}</style>
 </defs>
 <g id="figure_1">
  <g id="patch_1">
   <path d="M 0 338.705099 
L 332.39952 338.705099 
L 332.39952 0 
L 0 0 
z
" style="fill: #ffffff"/>
  </g>
  <g id="axes_1">
   <g id="patch_2">
    <path d="M 44.103906 102.838171 
L 325.19952 102.838171 
L 325.19952 13.505579 
L 44.103906 13.505579 
z
" style="fill: #ffffff"/>
   </g>
   <g id="matplotlib.axis_1">
    <g id="xtick_1">
     <g id="line2d_1">
      <defs>
       <path id="maaae07fb8b" d="M 0 0 
L 0 3.5 
" style="stroke: #000000; stroke-width: 0.8"/>
      </defs>
      <g>
       <use xlink:href="#maaae07fb8b" x="56.88098" y="102.838171" style="stroke: #000000; stroke-width: 0.8"/>
      </g>
     </g>
    </g>
    <g id="xtick_2">
     <g id="line2d_2">
      <g>
       <use xlink:href="#maaae07fb8b" x="119.123111" y="102.838171" style="stroke: #000000; stroke-width: 0.8"/>
      </g>
     </g>
    </g>
    <g id="xtick_3">
     <g id="line2d_3">
      <g>
       <use xlink:href="#maaae07fb8b" x="181.365243" y="102.838171" style="stroke: #000000; stroke-width: 0.8"/>
      </g>
     </g>
    </g>
    <g id="xtick_4">
     <g id="line2d_4">
      <g>
       <use xlink:href="#maaae07fb8b" x="243.607374" y="102.838171" style="stroke: #000000; stroke-width: 0.8"/>
      </g>
     </g>
    </g>
    <g id="xtick_5">
     <g id="line2d_5">
      <g>
       <use xlink:href="#maaae07fb8b" x="305.849506" y="102.838171" style="stroke: #000000; stroke-width: 0.8"/>
      </g>
     </g>
    </g>
   </g>
   <g id="matplotlib.axis_2">
    <g id="ytick_1">
     <g id="line2d_6">
      <defs>
       <path id="m88fbfec537" d="M 0 0 
L -3.5 0 
" style="stroke: #000000; stroke-width: 0.8"/>
      </defs>
      <g>
       <use xlink:href="#m88fbfec537" x="44.103906" y="98.777599" style="stroke: #000000; stroke-width: 0.8"/>
      </g>
     </g>
     <g id="text_1">
      <!-- 0 -->
      <g transform="translate(30.741406 102.576427) scale(0.1 -0.1)">
       <defs>
        <path id="DejaVuSans-13" d="M 2034 4250 
Q 1547 4250 1301 3770 
Q 1056 3291 1056 2328 
Q 1056 1369 1301 889 
Q 1547 409 2034 409 
Q 2525 409 2770 889 
Q 3016 1369 3016 2328 
Q 3016 3291 2770 3770 
Q 2525 4250 2034 4250 
z
M 2034 4750 
Q 2819 4750 3233 4129 
Q 3647 3509 3647 2328 
Q 3647 1150 3233 529 
Q 2819 -91 2034 -91 
Q 1250 -91 836 529 
Q 422 1150 422 2328 
Q 422 3509 836 4129 
Q 1250 4750 2034 4750 
z
" transform="scale(0.015625)"/>
       </defs>
       <use xlink:href="#DejaVuSans-13"/>
      </g>
     </g>
    </g>
    <g id="ytick_2">
     <g id="line2d_7">
      <g>
       <use xlink:href="#m88fbfec537" x="44.103906" y="58.171875" style="stroke: #000000; stroke-width: 0.8"/>
      </g>
     </g>
     <g id="text_2">
      <!-- 5 -->
      <g transform="translate(30.741406 61.970703) scale(0.1 -0.1)">
       <defs>
        <path id="DejaVuSans-18" d="M 691 4666 
L 3169 4666 
L 3169 4134 
L 1269 4134 
L 1269 2991 
Q 1406 3038 1543 3061 
Q 1681 3084 1819 3084 
Q 2600 3084 3056 2656 
Q 3513 2228 3513 1497 
Q 3513 744 3044 326 
Q 2575 -91 1722 -91 
Q 1428 -91 1123 -41 
Q 819 9 494 109 
L 494 744 
Q 775 591 1075 516 
Q 1375 441 1709 441 
Q 2250 441 2565 725 
Q 2881 1009 2881 1497 
Q 2881 1984 2565 2268 
Q 2250 2553 1709 2553 
Q 1456 2553 1204 2497 
Q 953 2441 691 2322 
L 691 4666 
z
" transform="scale(0.015625)"/>
       </defs>
       <use xlink:href="#DejaVuSans-18"/>
      </g>
     </g>
    </g>
    <g id="ytick_3">
     <g id="line2d_8">
      <g>
       <use xlink:href="#m88fbfec537" x="44.103906" y="17.566151" style="stroke: #000000; stroke-width: 0.8"/>
      </g>
     </g>
     <g id="text_3">
      <!-- 10 -->
      <g transform="translate(24.378906 21.364979) scale(0.1 -0.1)">
       <defs>
        <path id="DejaVuSans-14" d="M 794 531 
L 1825 531 
L 1825 4091 
L 703 3866 
L 703 4441 
L 1819 4666 
L 2450 4666 
L 2450 531 
L 3481 531 
L 3481 0 
L 794 0 
L 794 531 
z
" transform="scale(0.015625)"/>
       </defs>
       <use xlink:href="#DejaVuSans-14"/>
       <use xlink:href="#DejaVuSans-13" transform="translate(63.625 0)"/>
      </g>
     </g>
    </g>
    <g id="text_4">
     <!-- Extracellular lactose -->
     <g transform="translate(17.976563 109.14375) rotate(-90) scale(0.1 -0.1)">
      <defs>
       <path id="DejaVuSans-28" d="M 628 4666 
L 3578 4666 
L 3578 4134 
L 1259 4134 
L 1259 2753 
L 3481 2753 
L 3481 2222 
L 1259 2222 
L 1259 531 
L 3634 531 
L 3634 0 
L 628 0 
L 628 4666 
z
" transform="scale(0.015625)"/>
       <path id="DejaVuSans-5b" d="M 3513 3500 
L 2247 1797 
L 3578 0 
L 2900 0 
L 1881 1375 
L 863 0 
L 184 0 
L 1544 1831 
L 300 3500 
L 978 3500 
L 1906 2253 
L 2834 3500 
L 3513 3500 
z
" transform="scale(0.015625)"/>
       <path id="DejaVuSans-57" d="M 1172 4494 
L 1172 3500 
L 2356 3500 
L 2356 3053 
L 1172 3053 
L 1172 1153 
Q 1172 725 1289 603 
Q 1406 481 1766 481 
L 2356 481 
L 2356 0 
L 1766 0 
Q 1100 0 847 248 
Q 594 497 594 1153 
L 594 3053 
L 172 3053 
L 172 3500 
L 594 3500 
L 594 4494 
L 1172 4494 
z
" transform="scale(0.015625)"/>
       <path id="DejaVuSans-55" d="M 2631 2963 
Q 2534 3019 2420 3045 
Q 2306 3072 2169 3072 
Q 1681 3072 1420 2755 
Q 1159 2438 1159 1844 
L 1159 0 
L 581 0 
L 581 3500 
L 1159 3500 
L 1159 2956 
Q 1341 3275 1631 3429 
Q 1922 3584 2338 3584 
Q 2397 3584 2469 3576 
Q 2541 3569 2628 3553 
L 2631 2963 
z
" transform="scale(0.015625)"/>
       <path id="DejaVuSans-44" d="M 2194 1759 
Q 1497 1759 1228 1600 
Q 959 1441 959 1056 
Q 959 750 1161 570 
Q 1363 391 1709 391 
Q 2188 391 2477 730 
Q 2766 1069 2766 1631 
L 2766 1759 
L 2194 1759 
z
M 3341 1997 
L 3341 0 
L 2766 0 
L 2766 531 
Q 2569 213 2275 61 
Q 1981 -91 1556 -91 
Q 1019 -91 701 211 
Q 384 513 384 1019 
Q 384 1609 779 1909 
Q 1175 2209 1959 2209 
L 2766 2209 
L 2766 2266 
Q 2766 2663 2505 2880 
Q 2244 3097 1772 3097 
Q 1472 3097 1187 3025 
Q 903 2953 641 2809 
L 641 3341 
Q 956 3463 1253 3523 
Q 1550 3584 1831 3584 
Q 2591 3584 2966 3190 
Q 3341 2797 3341 1997 
z
" transform="scale(0.015625)"/>
       <path id="DejaVuSans-46" d="M 3122 3366 
L 3122 2828 
Q 2878 2963 2633 3030 
Q 2388 3097 2138 3097 
Q 1578 3097 1268 2742 
Q 959 2388 959 1747 
Q 959 1106 1268 751 
Q 1578 397 2138 397 
Q 2388 397 2633 464 
Q 2878 531 3122 666 
L 3122 134 
Q 2881 22 2623 -34 
Q 2366 -91 2075 -91 
Q 1284 -91 818 406 
Q 353 903 353 1747 
Q 353 2603 823 3093 
Q 1294 3584 2113 3584 
Q 2378 3584 2631 3529 
Q 2884 3475 3122 3366 
z
" transform="scale(0.015625)"/>
       <path id="DejaVuSans-48" d="M 3597 1894 
L 3597 1613 
L 953 1613 
Q 991 1019 1311 708 
Q 1631 397 2203 397 
Q 2534 397 2845 478 
Q 3156 559 3463 722 
L 3463 178 
Q 3153 47 2828 -22 
Q 2503 -91 2169 -91 
Q 1331 -91 842 396 
Q 353 884 353 1716 
Q 353 2575 817 3079 
Q 1281 3584 2069 3584 
Q 2775 3584 3186 3129 
Q 3597 2675 3597 1894 
z
M 3022 2063 
Q 3016 2534 2758 2815 
Q 2500 3097 2075 3097 
Q 1594 3097 1305 2825 
Q 1016 2553 972 2059 
L 3022 2063 
z
" transform="scale(0.015625)"/>
       <path id="DejaVuSans-4f" d="M 603 4863 
L 1178 4863 
L 1178 0 
L 603 0 
L 603 4863 
z
" transform="scale(0.015625)"/>
       <path id="DejaVuSans-58" d="M 544 1381 
L 544 3500 
L 1119 3500 
L 1119 1403 
Q 1119 906 1312 657 
Q 1506 409 1894 409 
Q 2359 409 2629 706 
Q 2900 1003 2900 1516 
L 2900 3500 
L 3475 3500 
L 3475 0 
L 2900 0 
L 2900 538 
Q 2691 219 2414 64 
Q 2138 -91 1772 -91 
Q 1169 -91 856 284 
Q 544 659 544 1381 
z
M 1991 3584 
L 1991 3584 
z
" transform="scale(0.015625)"/>
       <path id="DejaVuSans-3" transform="scale(0.015625)"/>
       <path id="DejaVuSans-52" d="M 1959 3097 
Q 1497 3097 1228 2736 
Q 959 2375 959 1747 
Q 959 1119 1226 758 
Q 1494 397 1959 397 
Q 2419 397 2687 759 
Q 2956 1122 2956 1747 
Q 2956 2369 2687 2733 
Q 2419 3097 1959 3097 
z
M 1959 3584 
Q 2709 3584 3137 3096 
Q 3566 2609 3566 1747 
Q 3566 888 3137 398 
Q 2709 -91 1959 -91 
Q 1206 -91 779 398 
Q 353 888 353 1747 
Q 353 2609 779 3096 
Q 1206 3584 1959 3584 
z
" transform="scale(0.015625)"/>
       <path id="DejaVuSans-56" d="M 2834 3397 
L 2834 2853 
Q 2591 2978 2328 3040 
Q 2066 3103 1784 3103 
Q 1356 3103 1142 2972 
Q 928 2841 928 2578 
Q 928 2378 1081 2264 
Q 1234 2150 1697 2047 
L 1894 2003 
Q 2506 1872 2764 1633 
Q 3022 1394 3022 966 
Q 3022 478 2636 193 
Q 2250 -91 1575 -91 
Q 1294 -91 989 -36 
Q 684 19 347 128 
L 347 722 
Q 666 556 975 473 
Q 1284 391 1588 391 
Q 1994 391 2212 530 
Q 2431 669 2431 922 
Q 2431 1156 2273 1281 
Q 2116 1406 1581 1522 
L 1381 1569 
Q 847 1681 609 1914 
Q 372 2147 372 2553 
Q 372 3047 722 3315 
Q 1072 3584 1716 3584 
Q 2034 3584 2315 3537 
Q 2597 3491 2834 3397 
z
" transform="scale(0.015625)"/>
      </defs>
      <use xlink:href="#DejaVuSans-28"/>
      <use xlink:href="#DejaVuSans-5b" transform="translate(63.1875 0)"/>
      <use xlink:href="#DejaVuSans-57" transform="translate(122.375 0)"/>
      <use xlink:href="#DejaVuSans-55" transform="translate(161.578125 0)"/>
      <use xlink:href="#DejaVuSans-44" transform="translate(202.6875 0)"/>
      <use xlink:href="#DejaVuSans-46" transform="translate(263.96875 0)"/>
      <use xlink:href="#DejaVuSans-48" transform="translate(318.953125 0)"/>
      <use xlink:href="#DejaVuSans-4f" transform="translate(380.484375 0)"/>
      <use xlink:href="#DejaVuSans-4f" transform="translate(408.265625 0)"/>
      <use xlink:href="#DejaVuSans-58" transform="translate(436.046875 0)"/>
      <use xlink:href="#DejaVuSans-4f" transform="translate(499.421875 0)"/>
      <use xlink:href="#DejaVuSans-44" transform="translate(527.203125 0)"/>
      <use xlink:href="#DejaVuSans-55" transform="translate(588.484375 0)"/>
      <use xlink:href="#DejaVuSans-3" transform="translate(629.59375 0)"/>
      <use xlink:href="#DejaVuSans-4f" transform="translate(661.375 0)"/>
      <use xlink:href="#DejaVuSans-44" transform="translate(689.15625 0)"/>
      <use xlink:href="#DejaVuSans-46" transform="translate(750.4375 0)"/>
      <use xlink:href="#DejaVuSans-57" transform="translate(805.421875 0)"/>
      <use xlink:href="#DejaVuSans-52" transform="translate(844.625 0)"/>
      <use xlink:href="#DejaVuSans-56" transform="translate(905.8125 0)"/>
      <use xlink:href="#DejaVuSans-48" transform="translate(957.90625 0)"/>
     </g>
    </g>
   </g>
   <g id="line2d_9">
    <path d="M 56.88098 98.777599 
L 153.689077 98.777599 
L 153.775916 17.566151 
L 154.426967 17.647362 
L 154.541671 17.972208 
L 154.585349 18.05342 
L 154.727836 19.515226 
L 154.846322 21.220666 
L 154.870317 21.301878 
L 154.996528 22.926107 
L 155.01948 23.007318 
L 155.516139 26.49941 
L 155.786338 26.905467 
L 155.844128 26.986679 
L 155.950535 27.06789 
L 156.389704 27.149102 
L 156.484108 27.555159 
L 156.7188 27.961216 
L 156.816714 28.367274 
L 156.934219 28.448485 
L 157.056776 28.935754 
L 157.063593 29.016965 
L 157.188463 29.991503 
L 157.347857 31.290886 
L 157.404503 31.372097 
L 157.528251 31.859366 
L 157.558722 31.940577 
L 157.659122 32.346635 
L 158.160146 36.082361 
L 158.281184 37.13811 
L 158.314334 37.219321 
L 158.474819 38.356282 
L 158.515789 38.437493 
L 158.777363 39.899299 
L 158.791558 39.980511 
L 158.926426 40.467779 
L 158.975488 40.548991 
L 159.164633 41.442317 
L 159.227062 41.523528 
L 159.417201 42.254431 
L 159.95153 42.335643 
L 160.097468 42.822911 
L 160.110698 42.904123 
L 160.268381 43.391391 
L 160.379246 43.87866 
L 160.653888 45.01562 
L 160.759742 45.096832 
L 161.33526 47.451964 
L 161.447003 48.182867 
L 161.572287 48.264078 
L 161.723888 48.507713 
L 161.816403 48.588924 
L 161.907934 48.994981 
L 161.988257 49.076193 
L 162.111921 49.563462 
L 162.256452 49.644673 
L 162.498398 50.537999 
L 162.571098 50.61921 
L 162.684342 51.106479 
L 162.721318 51.18769 
L 162.936968 52.568285 
L 163.103921 53.136765 
L 163.177521 53.217977 
L 163.561826 54.842206 
L 163.586527 54.923417 
L 163.672062 55.329474 
L 163.767876 55.410686 
L 163.85925 55.816743 
L 163.968698 56.385223 
L 164.067015 57.034915 
L 164.103893 57.116126 
L 164.257201 57.522183 
L 164.282978 57.603395 
L 164.400046 58.090664 
L 164.418362 58.171875 
L 164.552836 58.659144 
L 164.646503 58.740355 
L 166.522466 62.638505 
L 166.636067 63.694253 
L 166.64603 63.775465 
L 166.84537 65.562117 
L 166.877969 65.643328 
L 167.07438 67.105134 
L 167.126091 67.186346 
L 167.248355 67.511192 
L 167.277893 67.592403 
L 167.437897 67.99846 
L 167.490035 68.079672 
L 167.604201 68.648152 
L 167.753586 68.729363 
L 167.832077 68.972998 
L 167.92975 69.054209 
L 168.043385 69.216632 
L 168.139892 69.297843 
L 168.247264 69.622689 
L 168.284761 69.703901 
L 168.684067 70.597227 
L 168.689336 70.678438 
L 168.800474 70.922072 
L 168.91587 71.003284 
L 169.039791 71.246918 
L 169.260533 71.32813 
L 169.365246 71.571764 
L 169.690361 71.652975 
L 169.768812 71.734187 
L 170.282204 71.815398 
L 170.394088 72.059033 
L 170.420697 72.140244 
L 170.575774 72.708724 
L 170.689055 72.789936 
L 170.791763 73.195993 
L 170.845295 73.277204 
L 170.954953 73.683262 
L 171.172549 74.414165 
L 171.195817 74.495376 
L 171.317306 75.145068 
L 171.491297 76.038394 
L 171.535561 76.119605 
L 171.684617 76.688085 
L 171.757906 76.769297 
L 172.090212 77.743834 
L 172.192256 77.825045 
L 172.312684 78.149891 
L 172.370116 78.231103 
L 172.53774 78.63716 
L 172.70164 78.799583 
L 172.807744 78.880794 
L 172.94045 79.043217 
L 173.15147 79.286852 
L 173.250994 79.449274 
L 173.330959 79.530486 
L 174.06197 81.154715 
L 174.252229 81.235926 
L 174.403467 81.398349 
L 175.135382 81.479561 
L 175.248259 81.641984 
L 175.285073 81.723195 
L 175.357089 81.804406 
L 175.449447 81.885618 
L 175.530152 81.966829 
L 175.686063 82.048041 
L 175.762966 82.129252 
L 175.944349 82.210464 
L 176.446724 82.860155 
L 176.998584 83.347424 
L 177.283205 83.591058 
L 177.369211 83.834693 
L 177.546892 83.915904 
L 177.682017 84.078327 
L 177.797071 84.159538 
L 178.204918 84.565596 
L 178.414375 85.37771 
L 178.540538 85.458922 
L 178.66086 85.540133 
L 178.790884 85.621344 
L 180.255005 85.702556 
L 180.876913 86.108613 
L 180.897399 86.189825 
L 181.408586 86.352247 
L 181.809532 86.433459 
L 181.904658 86.595882 
L 182.136447 86.677093 
L 182.244289 86.758305 
L 182.348957 86.839516 
L 182.510367 87.164362 
L 182.712211 87.326785 
L 182.85115 87.407996 
L 183.088422 87.570419 
L 183.748889 87.651631 
L 183.798608 87.732842 
L 184.010253 87.814054 
L 184.170951 87.895265 
L 184.990574 87.976476 
L 185.112781 88.057688 
L 186.876605 88.138899 
L 186.964801 88.301322 
L 187.339279 88.869802 
L 187.444701 89.113437 
L 187.579347 89.194648 
L 187.788501 89.27586 
L 188.174608 89.357071 
L 188.404413 89.681917 
L 188.476598 89.763128 
L 188.920428 90.250397 
L 189.317703 90.331608 
L 189.485605 90.575243 
L 189.785677 90.656454 
L 189.901285 90.818877 
L 190.130328 90.900089 
L 190.393194 91.062511 
L 191.010822 91.143723 
L 191.102719 91.224934 
L 191.49182 91.306146 
L 192.665463 91.630992 
L 192.945427 91.712203 
L 193.102816 91.874626 
L 193.986369 91.955837 
L 194.0668 92.037049 
L 194.538199 92.11826 
L 194.749363 92.199472 
L 195.215699 92.280683 
L 195.366324 92.443106 
L 195.850509 92.524318 
L 195.855776 92.605529 
L 196.256862 92.930375 
L 196.371912 93.011586 
L 196.621049 93.174009 
L 196.937567 93.255221 
L 197.136103 93.498855 
L 197.678965 93.580066 
L 197.811071 93.742489 
L 197.918777 93.823701 
L 198.152874 94.229758 
L 198.567204 94.310969 
L 198.672412 94.473392 
L 199.097229 94.554604 
L 199.213245 94.635815 
L 199.369435 94.717027 
L 199.546172 94.960661 
L 199.983643 95.041872 
L 200.107332 95.123084 
L 200.290593 95.204295 
L 200.787469 95.285507 
L 200.869154 95.366718 
L 202.283243 95.44793 
L 202.406861 95.529141 
L 203.769888 95.610353 
L 204.055854 95.772775 
L 205.096828 95.853987 
L 205.313154 95.935198 
L 207.095494 96.01641 
L 207.453118 96.178833 
L 208.435371 96.260044 
L 208.59325 96.422467 
L 209.652534 96.503679 
L 210.048144 96.666101 
L 210.558917 96.747313 
L 210.604703 96.828524 
L 211.089297 96.990947 
L 213.520346 97.072159 
L 214.420358 97.15337 
L 216.409084 97.234582 
L 216.521553 97.397004 
L 223.389288 97.478216 
L 223.853614 97.72185 
L 226.206058 97.803062 
L 226.414493 97.884273 
L 227.708891 97.965485 
L 228.067456 98.046696 
L 255.883543 98.127907 
L 255.955715 98.209119 
L 261.431001 98.29033 
L 262.425793 98.452753 
L 312.422447 98.452753 
L 312.422447 98.452753 
" clip-path="url(#p4a8cba250f)" style="fill: none; stroke: #000000; stroke-width: 1.5; stroke-linecap: square"/>
   </g>
   <g id="patch_3">
    <path d="M 44.103906 102.838171 
L 44.103906 13.505579 
" style="fill: none; stroke: #000000; stroke-width: 0.8; stroke-linejoin: miter; stroke-linecap: square"/>
   </g>
   <g id="patch_4">
    <path d="M 325.19952 102.838171 
L 325.19952 13.505579 
" style="fill: none; stroke: #000000; stroke-width: 0.8; stroke-linejoin: miter; stroke-linecap: square"/>
   </g>
   <g id="patch_5">
    <path d="M 44.103906 102.838171 
L 325.19952 102.838171 
" style="fill: none; stroke: #000000; stroke-width: 0.8; stroke-linejoin: miter; stroke-linecap: square"/>
   </g>
   <g id="patch_6">
    <path d="M 44.103906 13.505579 
L 325.19952 13.505579 
" style="fill: none; stroke: #000000; stroke-width: 0.8; stroke-linejoin: miter; stroke-linecap: square"/>
   </g>
  </g>
  <g id="axes_2">
   <g id="patch_7">
    <path d="M 44.103906 201.671244 
L 325.19952 201.671244 
L 325.19952 112.338651 
L 44.103906 112.338651 
z
" style="fill: #ffffff"/>
   </g>
   <g id="matplotlib.axis_3">
    <g id="xtick_6">
     <g id="line2d_10">
      <g>
       <use xlink:href="#maaae07fb8b" x="56.88098" y="201.671244" style="stroke: #000000; stroke-width: 0.8"/>
      </g>
     </g>
    </g>
    <g id="xtick_7">
     <g id="line2d_11">
      <g>
       <use xlink:href="#maaae07fb8b" x="119.123111" y="201.671244" style="stroke: #000000; stroke-width: 0.8"/>
      </g>
     </g>
    </g>
    <g id="xtick_8">
     <g id="line2d_12">
      <g>
       <use xlink:href="#maaae07fb8b" x="181.365243" y="201.671244" style="stroke: #000000; stroke-width: 0.8"/>
      </g>
     </g>
    </g>
    <g id="xtick_9">
     <g id="line2d_13">
      <g>
       <use xlink:href="#maaae07fb8b" x="243.607374" y="201.671244" style="stroke: #000000; stroke-width: 0.8"/>
      </g>
     </g>
    </g>
    <g id="xtick_10">
     <g id="line2d_14">
      <g>
       <use xlink:href="#maaae07fb8b" x="305.849506" y="201.671244" style="stroke: #000000; stroke-width: 0.8"/>
      </g>
     </g>
    </g>
   </g>
   <g id="matplotlib.axis_4">
    <g id="ytick_4">
     <g id="line2d_15">
      <g>
       <use xlink:href="#m88fbfec537" x="44.103906" y="197.610672" style="stroke: #000000; stroke-width: 0.8"/>
      </g>
     </g>
     <g id="text_5">
      <!-- 0 -->
      <g transform="translate(30.741406 201.4095) scale(0.1 -0.1)">
       <use xlink:href="#DejaVuSans-13"/>
      </g>
     </g>
    </g>
    <g id="ytick_5">
     <g id="line2d_16">
      <g>
       <use xlink:href="#m88fbfec537" x="44.103906" y="157.004948" style="stroke: #000000; stroke-width: 0.8"/>
      </g>
     </g>
     <g id="text_6">
      <!-- 5 -->
      <g transform="translate(30.741406 160.803776) scale(0.1 -0.1)">
       <use xlink:href="#DejaVuSans-18"/>
      </g>
     </g>
    </g>
    <g id="ytick_6">
     <g id="line2d_17">
      <g>
       <use xlink:href="#m88fbfec537" x="44.103906" y="116.399224" style="stroke: #000000; stroke-width: 0.8"/>
      </g>
     </g>
     <g id="text_7">
      <!-- 10 -->
      <g transform="translate(24.378906 120.198052) scale(0.1 -0.1)">
       <use xlink:href="#DejaVuSans-14"/>
       <use xlink:href="#DejaVuSans-13" transform="translate(63.625 0)"/>
      </g>
     </g>
    </g>
    <g id="text_8">
     <!-- LacY -->
     <g transform="translate(17.976563 168.658073) rotate(-90) scale(0.1 -0.1)">
      <defs>
       <path id="DejaVuSans-2f" d="M 628 4666 
L 1259 4666 
L 1259 531 
L 3531 531 
L 3531 0 
L 628 0 
L 628 4666 
z
" transform="scale(0.015625)"/>
       <path id="DejaVuSans-3c" d="M -13 4666 
L 666 4666 
L 1959 2747 
L 3244 4666 
L 3922 4666 
L 2272 2222 
L 2272 0 
L 1638 0 
L 1638 2222 
L -13 4666 
z
" transform="scale(0.015625)"/>
      </defs>
      <use xlink:href="#DejaVuSans-2f"/>
      <use xlink:href="#DejaVuSans-44" transform="translate(55.71875 0)"/>
      <use xlink:href="#DejaVuSans-46" transform="translate(117 0)"/>
      <use xlink:href="#DejaVuSans-3c" transform="translate(171.984375 0)"/>
     </g>
    </g>
   </g>
   <g id="line2d_18">
    <path d="M 56.88098 116.399224 
L 56.907434 116.399224 
L 57.036747 132.641513 
L 57.124904 148.883803 
L 57.273237 148.883803 
L 57.290494 140.762658 
L 57.50561 148.883803 
L 57.643955 148.883803 
L 57.810372 165.126093 
L 58.103807 181.368382 
L 58.167798 197.610672 
L 59.659827 197.610672 
L 59.822314 189.489527 
L 59.863995 197.610672 
L 64.761952 197.610672 
L 65.076895 189.489527 
L 65.184121 197.610672 
L 82.246208 197.610672 
L 82.435792 189.489527 
L 84.184614 197.610672 
L 84.199072 189.489527 
L 84.338725 181.368382 
L 84.343264 173.247238 
L 84.657433 181.368382 
L 84.878766 181.368382 
L 84.995431 197.610672 
L 85.054743 189.489527 
L 85.24025 189.489527 
L 85.3753 197.610672 
L 89.170967 197.610672 
L 89.551095 181.368382 
L 89.552364 173.247238 
L 90.03863 173.247238 
L 90.07634 189.489527 
L 90.829328 189.489527 
L 90.994061 181.368382 
L 91.329811 197.610672 
L 107.913119 197.610672 
L 108.016194 189.489527 
L 108.132932 189.489527 
L 108.268575 197.610672 
L 108.497748 197.610672 
L 108.538204 189.489527 
L 108.943849 189.489527 
L 109.285099 181.368382 
L 109.342 189.489527 
L 109.512921 189.489527 
L 109.541766 197.610672 
L 118.084267 197.610672 
L 118.258272 189.489527 
L 120.306517 189.489527 
L 122.108244 197.610672 
L 129.683937 197.610672 
L 129.865592 189.489527 
L 130.146034 189.489527 
L 130.251143 197.610672 
L 134.479619 197.610672 
L 134.561277 189.489527 
L 134.582601 197.610672 
L 144.327938 197.610672 
L 144.582327 181.368382 
L 144.602643 189.489527 
L 144.630933 181.368382 
L 144.741245 173.247238 
L 144.746453 181.368382 
L 145.316724 181.368382 
L 145.918632 189.489527 
L 146.157893 189.489527 
L 146.465355 181.368382 
L 146.575446 181.368382 
L 147.620837 197.610672 
L 148.069623 197.610672 
L 148.12022 181.368382 
L 148.218599 181.368382 
L 148.36765 189.489527 
L 148.498061 189.489527 
L 149.027537 197.610672 
L 154.019361 197.610672 
L 154.43705 189.489527 
L 154.671398 157.004948 
L 154.946071 157.004948 
L 155.066538 173.247238 
L 155.111842 173.247238 
L 155.210246 165.126093 
L 155.295073 165.126093 
L 155.402164 181.368382 
L 155.429667 181.368382 
L 155.516139 189.489527 
L 155.859214 189.489527 
L 155.950535 197.610672 
L 156.340342 197.610672 
L 156.456332 189.489527 
L 156.601266 189.489527 
L 156.715676 181.368382 
L 156.845172 181.368382 
L 156.899282 189.489527 
L 156.9561 181.368382 
L 157.05602 181.368382 
L 157.165867 173.247238 
L 157.31381 173.247238 
L 157.435639 189.489527 
L 157.566525 189.489527 
L 157.686562 181.368382 
L 157.83198 181.368382 
L 157.970291 165.126093 
L 158.129556 165.126093 
L 158.196593 157.004948 
L 158.238068 165.126093 
L 158.320039 165.126093 
L 158.369346 157.004948 
L 158.427623 165.126093 
L 158.438666 165.126093 
L 158.545634 157.004948 
L 158.553455 157.004948 
L 158.664275 173.247238 
L 158.948666 173.247238 
L 159.047162 181.368382 
L 159.321434 181.368382 
L 159.417201 189.489527 
L 159.512433 189.489527 
L 159.621248 197.610672 
L 159.869183 197.610672 
L 160.008944 189.489527 
L 160.126272 189.489527 
L 160.268381 173.247238 
L 160.458154 173.247238 
L 160.570136 189.489527 
L 160.653888 189.489527 
L 160.812511 173.247238 
L 160.838599 181.368382 
L 160.877321 181.368382 
L 160.988726 173.247238 
L 161.066935 173.247238 
L 161.166647 181.368382 
L 161.327665 181.368382 
L 161.339892 165.126093 
L 161.428262 173.247238 
L 161.548614 181.368382 
L 161.834972 181.368382 
L 161.857095 173.247238 
L 161.861757 189.489527 
L 161.928641 189.489527 
L 162.269743 189.489527 
L 162.374328 181.368382 
L 162.575558 181.368382 
L 162.684342 173.247238 
L 162.833256 173.247238 
L 162.923992 165.126093 
L 162.936968 173.247238 
L 163.019502 173.247238 
L 163.095962 181.368382 
L 163.128144 173.247238 
L 163.166167 173.247238 
L 163.217525 181.368382 
L 163.276078 173.247238 
L 163.298336 173.247238 
L 163.405621 181.368382 
L 163.924376 181.368382 
L 164.03038 173.247238 
L 164.257201 173.247238 
L 164.363709 165.126093 
L 164.3989 165.126093 
L 164.487703 173.247238 
L 164.525073 173.247238 
L 164.625361 189.489527 
L 164.828687 189.489527 
L 164.921371 181.368382 
L 165.113545 181.368382 
L 165.222565 197.610672 
L 165.43464 181.368382 
L 166.404109 181.368382 
L 166.64603 148.883803 
L 166.826444 148.883803 
L 166.835017 157.004948 
L 166.934927 148.883803 
L 166.941889 148.883803 
L 167.048889 157.004948 
L 167.07438 157.004948 
L 167.222803 173.247238 
L 167.234335 173.247238 
L 167.34584 165.126093 
L 167.437897 181.368382 
L 167.460329 173.247238 
L 167.652739 173.247238 
L 167.771298 189.489527 
L 167.964626 189.489527 
L 168.075397 165.126093 
L 168.105277 165.126093 
L 168.200237 181.368382 
L 168.215595 173.247238 
L 168.535342 173.247238 
L 168.629667 181.368382 
L 168.867387 181.368382 
L 168.975289 189.489527 
L 169.040252 189.489527 
L 169.068689 173.247238 
L 169.143819 189.489527 
L 169.726487 189.489527 
L 169.825654 197.610672 
L 170.123809 197.610672 
L 170.284237 189.489527 
L 170.337189 189.489527 
L 170.474818 165.126093 
L 170.689404 165.126093 
L 170.771147 148.883803 
L 170.791763 157.004948 
L 170.853507 157.004948 
L 170.954953 165.126093 
L 171.063445 165.126093 
L 171.172549 173.247238 
L 171.189954 173.247238 
L 171.307725 157.004948 
L 171.436027 157.004948 
L 171.553177 173.247238 
L 171.870649 173.247238 
L 171.975014 181.368382 
L 172.489382 181.368382 
L 172.587095 189.489527 
L 172.61512 189.489527 
L 172.68362 197.610672 
L 172.717421 189.489527 
L 172.865594 173.247238 
L 172.94045 181.368382 
L 173.136505 181.368382 
L 173.176844 189.489527 
L 173.234415 181.368382 
L 173.860925 181.368382 
L 173.922312 173.247238 
L 173.971616 181.368382 
L 173.986722 189.489527 
L 174.06197 181.368382 
L 174.169596 173.247238 
L 174.314147 189.489527 
L 174.461039 181.368382 
L 174.557554 181.368382 
L 174.652194 197.610672 
L 175.060322 197.610672 
L 175.182667 181.368382 
L 175.292882 173.247238 
L 175.356111 173.247238 
L 175.457876 181.368382 
L 175.574953 181.368382 
L 175.594196 189.489527 
L 175.686063 181.368382 
L 175.74385 181.368382 
L 175.745153 173.247238 
L 175.842314 181.368382 
L 175.874433 181.368382 
L 175.993399 189.489527 
L 176.085249 173.247238 
L 176.095009 181.368382 
L 176.191995 181.368382 
L 176.267213 189.489527 
L 176.300309 181.368382 
L 176.985851 181.368382 
L 176.998584 173.247238 
L 177.133864 173.247238 
L 177.20373 165.126093 
L 177.206536 173.247238 
L 177.349717 173.247238 
L 177.417671 181.368382 
L 177.579685 173.247238 
L 177.714611 173.247238 
L 177.797071 181.368382 
L 177.988485 181.368382 
L 178.054174 173.247238 
L 178.087241 181.368382 
L 178.132876 181.368382 
L 178.287421 165.126093 
L 178.485781 165.126093 
L 178.64593 189.489527 
L 178.655392 181.368382 
L 178.697198 197.610672 
L 178.740695 197.610672 
L 179.447282 197.610672 
L 179.56387 189.489527 
L 179.620608 189.489527 
L 179.687432 197.610672 
L 179.891462 197.610672 
L 180.401844 181.368382 
L 180.565098 181.368382 
L 180.636425 189.489527 
L 180.659248 181.368382 
L 181.090273 181.368382 
L 181.209446 189.489527 
L 181.369745 189.489527 
L 181.408586 181.368382 
L 181.741322 181.368382 
L 181.848738 173.247238 
L 181.904658 173.247238 
L 182.096859 181.368382 
L 182.142115 173.247238 
L 182.348957 181.368382 
L 182.697564 181.368382 
L 182.8148 189.489527 
L 183.174023 189.489527 
L 183.311508 181.368382 
L 183.55037 197.610672 
L 183.760893 181.368382 
L 183.798608 189.489527 
L 184.097169 189.489527 
L 184.170951 197.610672 
L 184.588958 197.610672 
L 184.823281 189.489527 
L 184.848993 197.610672 
L 185.005684 189.489527 
L 185.091312 189.489527 
L 185.190647 181.368382 
L 185.196974 189.489527 
L 185.21015 189.489527 
L 185.342761 197.610672 
L 185.415358 181.368382 
L 185.421597 189.489527 
L 185.578677 197.610672 
L 186.247635 197.610672 
L 186.594375 189.489527 
L 186.636075 181.368382 
L 186.827073 181.368382 
L 186.89947 173.247238 
L 186.930679 181.368382 
L 187.039921 181.368382 
L 187.136417 165.126093 
L 187.254304 165.126093 
L 187.303496 148.883803 
L 187.378459 157.004948 
L 187.495195 157.004948 
L 187.579347 173.247238 
L 187.6624 173.247238 
L 187.691181 189.489527 
L 187.863119 189.489527 
L 188.077342 173.247238 
L 188.128369 173.247238 
L 188.203648 165.126093 
L 188.230175 173.247238 
L 188.581276 173.247238 
L 188.6937 165.126093 
L 188.771187 181.368382 
L 189.282518 181.368382 
L 189.294302 173.247238 
L 189.367827 181.368382 
L 189.485605 181.368382 
L 189.603256 165.126093 
L 189.723111 181.368382 
L 189.745611 173.247238 
L 189.901285 173.247238 
L 190.022267 189.489527 
L 190.393194 189.489527 
L 190.67096 181.368382 
L 191.069948 181.368382 
L 191.097805 173.247238 
L 191.170086 181.368382 
L 191.328853 181.368382 
L 191.37763 189.489527 
L 191.733799 189.489527 
L 191.854413 197.610672 
L 192.143349 181.368382 
L 192.381811 181.368382 
L 192.404556 173.247238 
L 192.462864 181.368382 
L 192.766879 189.489527 
L 192.883862 173.247238 
L 193.102816 173.247238 
L 193.244687 189.489527 
L 193.634222 189.489527 
L 193.669124 197.610672 
L 193.804001 197.610672 
L 194.0668 189.489527 
L 194.349566 189.489527 
L 194.538199 181.368382 
L 194.677296 181.368382 
L 194.749363 173.247238 
L 194.930474 181.368382 
L 194.94536 189.489527 
L 195.244407 181.368382 
L 195.366324 181.368382 
L 195.485491 189.489527 
L 195.510689 181.368382 
L 195.512591 189.489527 
L 195.60947 189.489527 
L 195.765997 173.247238 
L 195.799309 181.368382 
L 195.855776 173.247238 
L 195.996013 173.247238 
L 196.122782 165.126093 
L 196.239569 165.126093 
L 196.342539 173.247238 
L 196.454673 173.247238 
L 196.564491 165.126093 
L 196.621049 165.126093 
L 196.656941 173.247238 
L 196.76846 173.247238 
L 196.845235 165.126093 
L 196.879537 173.247238 
L 196.916196 189.489527 
L 196.992015 181.368382 
L 197.032682 181.368382 
L 197.121735 173.247238 
L 197.132737 181.368382 
L 197.136103 189.489527 
L 197.346876 189.489527 
L 197.457772 173.247238 
L 197.613748 173.247238 
L 197.678965 165.126093 
L 197.817171 165.126093 
L 197.943774 157.004948 
L 197.98389 157.004948 
L 198.042881 165.126093 
L 198.262563 165.126093 
L 198.376451 173.247238 
L 198.392249 181.368382 
L 198.483446 173.247238 
L 198.507591 173.247238 
L 198.614766 181.368382 
L 198.672412 173.247238 
L 198.950257 173.247238 
L 199.531103 132.641513 
L 199.567481 132.641513 
L 199.654116 148.883803 
L 199.727004 132.641513 
L 199.791118 140.762658 
L 199.852467 148.883803 
L 199.967017 148.883803 
L 200.069651 165.126093 
L 200.16341 165.126093 
L 200.225888 173.247238 
L 200.290593 173.247238 
L 200.514394 181.368382 
L 200.613277 181.368382 
L 200.627784 173.247238 
L 200.673343 181.368382 
L 200.793628 173.247238 
L 200.85828 189.489527 
L 200.869154 173.247238 
L 201.121532 173.247238 
L 201.126529 181.368382 
L 201.264908 181.368382 
L 201.366224 173.247238 
L 201.62343 189.489527 
L 201.913239 189.489527 
L 201.946553 197.610672 
L 201.993564 189.489527 
L 202.212031 173.247238 
L 202.388357 165.126093 
L 202.577086 165.126093 
L 202.603567 173.247238 
L 202.922746 173.247238 
L 203.053912 181.368382 
L 203.476938 181.368382 
L 203.879016 173.247238 
L 204.055854 189.489527 
L 204.176297 181.368382 
L 204.296211 189.489527 
L 204.660249 189.489527 
L 204.811381 197.610672 
L 204.931478 189.489527 
L 205.171049 189.489527 
L 205.287862 197.610672 
L 205.447414 181.368382 
L 205.5275 189.489527 
L 205.690222 181.368382 
L 205.735229 181.368382 
L 205.758727 189.489527 
L 205.931931 189.489527 
L 205.97356 181.368382 
L 206.231066 181.368382 
L 206.257439 189.489527 
L 206.71638 181.368382 
L 207.245806 181.368382 
L 207.341112 197.610672 
L 207.42292 197.610672 
L 207.478227 189.489527 
L 207.763579 181.368382 
L 207.874988 181.368382 
L 208.360977 173.247238 
L 208.522149 165.126093 
L 208.66872 181.368382 
L 208.764024 189.489527 
L 208.91156 181.368382 
L 209.280699 181.368382 
L 209.358236 189.489527 
L 209.363269 181.368382 
L 209.464307 173.247238 
L 209.568971 173.247238 
L 209.652534 165.126093 
L 209.960567 165.126093 
L 210.048144 181.368382 
L 210.074467 173.247238 
L 210.216799 165.126093 
L 210.490171 165.126093 
L 210.604703 173.247238 
L 210.804082 173.247238 
L 210.938525 181.368382 
L 211.073204 173.247238 
L 211.139704 181.368382 
L 211.461981 181.368382 
L 211.54079 173.247238 
L 211.546247 181.368382 
L 211.637812 181.368382 
L 211.640263 189.489527 
L 211.848172 181.368382 
L 212.017182 181.368382 
L 212.072245 189.489527 
L 212.441469 189.489527 
L 212.509 197.610672 
L 212.538114 189.489527 
L 212.667482 189.489527 
L 212.745431 181.368382 
L 212.780899 189.489527 
L 214.224549 189.489527 
L 214.420358 197.610672 
L 215.435985 197.610672 
L 215.779015 189.489527 
L 215.853602 181.368382 
L 215.897494 189.489527 
L 216.059516 181.368382 
L 216.161254 165.126093 
L 216.18833 173.247238 
L 216.254574 173.247238 
L 216.304079 165.126093 
L 216.521553 181.368382 
L 216.625623 181.368382 
L 216.712332 189.489527 
L 217.1545 189.489527 
L 217.744415 197.610672 
L 222.634202 197.610672 
L 222.699296 189.489527 
L 222.923892 189.489527 
L 223.085126 197.610672 
L 223.525531 173.247238 
L 223.658212 181.368382 
L 223.752571 181.368382 
L 223.853614 189.489527 
L 224.067851 189.489527 
L 224.666653 197.610672 
L 224.963614 189.489527 
L 225.063414 181.368382 
L 225.212705 197.610672 
L 225.469536 197.610672 
L 225.63991 189.489527 
L 225.759356 189.489527 
L 225.827694 197.610672 
L 226.314866 189.489527 
L 226.329132 189.489527 
L 226.383203 181.368382 
L 226.414493 189.489527 
L 226.578355 189.489527 
L 226.686758 181.368382 
L 226.840665 189.489527 
L 227.17721 189.489527 
L 227.327775 181.368382 
L 227.465756 189.489527 
L 227.627734 165.126093 
L 227.851708 165.126093 
L 227.941895 157.004948 
L 228.067456 173.247238 
L 228.283372 181.368382 
L 228.354845 173.247238 
L 228.569465 173.247238 
L 228.636659 165.126093 
L 228.809321 157.004948 
L 228.881816 181.368382 
L 228.916268 173.247238 
L 229.144109 181.368382 
L 229.258032 173.247238 
L 229.341654 165.126093 
L 229.539441 181.368382 
L 229.704741 173.247238 
L 229.707654 165.126093 
L 229.923202 165.126093 
L 230.06342 173.247238 
L 230.18763 173.247238 
L 230.196582 181.368382 
L 230.459337 189.489527 
L 230.715826 189.489527 
L 230.918377 197.610672 
L 232.173432 197.610672 
L 232.412272 189.489527 
L 232.621767 181.368382 
L 232.646575 189.489527 
L 232.857598 197.610672 
L 233.076467 197.610672 
L 233.470993 189.489527 
L 233.634745 173.247238 
L 233.749414 165.126093 
L 233.848675 181.368382 
L 234.061009 181.368382 
L 234.06883 189.489527 
L 234.295617 197.610672 
L 255.260042 197.610672 
L 255.609768 189.489527 
L 255.810266 173.247238 
L 255.955715 181.368382 
L 256.085816 173.247238 
L 256.091976 181.368382 
L 256.217503 181.368382 
L 256.393251 189.489527 
L 256.629269 197.610672 
L 259.039593 197.610672 
L 259.198005 189.489527 
L 259.408248 189.489527 
L 259.471401 197.610672 
L 260.956239 197.610672 
L 261.216518 189.489527 
L 261.32796 189.489527 
L 261.431001 181.368382 
L 261.95657 181.368382 
L 262.176443 189.489527 
L 262.304503 197.610672 
L 264.108058 197.610672 
L 264.393492 181.368382 
L 264.4906 189.489527 
L 264.789257 165.126093 
L 264.851162 173.247238 
L 265.079066 181.368382 
L 265.185843 173.247238 
L 265.47277 189.489527 
L 265.670565 189.489527 
L 265.772669 197.610672 
L 273.330268 197.610672 
L 273.374058 189.489527 
L 273.597862 181.368382 
L 273.768484 189.489527 
L 274.144274 189.489527 
L 274.34467 173.247238 
L 274.455774 197.610672 
L 275.496322 197.610672 
L 275.71337 189.489527 
L 275.87587 197.610672 
L 284.346355 197.610672 
L 284.861369 189.489527 
L 285.007641 173.247238 
L 285.039378 173.247238 
L 285.136999 181.368382 
L 285.536377 189.489527 
L 286.296488 189.489527 
L 286.958922 197.610672 
L 301.454642 197.610672 
L 301.645357 181.368382 
L 301.784423 189.489527 
L 302.039452 189.489527 
L 302.205133 197.610672 
L 312.422447 197.610672 
L 312.422447 197.610672 
" clip-path="url(#pe01245e16a)" style="fill: none; stroke: #000000; stroke-width: 1.5; stroke-linecap: square"/>
   </g>
   <g id="patch_8">
    <path d="M 44.103906 201.671244 
L 44.103906 112.338651 
" style="fill: none; stroke: #000000; stroke-width: 0.8; stroke-linejoin: miter; stroke-linecap: square"/>
   </g>
   <g id="patch_9">
    <path d="M 325.19952 201.671244 
L 325.19952 112.338651 
" style="fill: none; stroke: #000000; stroke-width: 0.8; stroke-linejoin: miter; stroke-linecap: square"/>
   </g>
   <g id="patch_10">
    <path d="M 44.103906 201.671244 
L 325.19952 201.671244 
" style="fill: none; stroke: #000000; stroke-width: 0.8; stroke-linejoin: miter; stroke-linecap: square"/>
   </g>
   <g id="patch_11">
    <path d="M 44.103906 112.338651 
L 325.19952 112.338651 
" style="fill: none; stroke: #000000; stroke-width: 0.8; stroke-linejoin: miter; stroke-linecap: square"/>
   </g>
  </g>
  <g id="axes_3">
   <g id="patch_12">
    <path d="M 44.103906 300.504317 
L 325.19952 300.504317 
L 325.19952 211.171724 
L 44.103906 211.171724 
z
" style="fill: #ffffff"/>
   </g>
   <g id="matplotlib.axis_5">
    <g id="xtick_11">
     <g id="line2d_19">
      <g>
       <use xlink:href="#maaae07fb8b" x="56.88098" y="300.504317" style="stroke: #000000; stroke-width: 0.8"/>
      </g>
     </g>
     <g id="text_9">
      <!-- 0 -->
      <g transform="translate(53.69973 315.101974) scale(0.1 -0.1)">
       <use xlink:href="#DejaVuSans-13"/>
      </g>
     </g>
    </g>
    <g id="xtick_12">
     <g id="line2d_20">
      <g>
       <use xlink:href="#maaae07fb8b" x="119.123111" y="300.504317" style="stroke: #000000; stroke-width: 0.8"/>
      </g>
     </g>
     <g id="text_10">
      <!-- 200 -->
      <g transform="translate(109.579361 315.101974) scale(0.1 -0.1)">
       <defs>
        <path id="DejaVuSans-15" d="M 1228 531 
L 3431 531 
L 3431 0 
L 469 0 
L 469 531 
Q 828 903 1448 1529 
Q 2069 2156 2228 2338 
Q 2531 2678 2651 2914 
Q 2772 3150 2772 3378 
Q 2772 3750 2511 3984 
Q 2250 4219 1831 4219 
Q 1534 4219 1204 4116 
Q 875 4013 500 3803 
L 500 4441 
Q 881 4594 1212 4672 
Q 1544 4750 1819 4750 
Q 2544 4750 2975 4387 
Q 3406 4025 3406 3419 
Q 3406 3131 3298 2873 
Q 3191 2616 2906 2266 
Q 2828 2175 2409 1742 
Q 1991 1309 1228 531 
z
" transform="scale(0.015625)"/>
       </defs>
       <use xlink:href="#DejaVuSans-15"/>
       <use xlink:href="#DejaVuSans-13" transform="translate(63.625 0)"/>
       <use xlink:href="#DejaVuSans-13" transform="translate(127.25 0)"/>
      </g>
     </g>
    </g>
    <g id="xtick_13">
     <g id="line2d_21">
      <g>
       <use xlink:href="#maaae07fb8b" x="181.365243" y="300.504317" style="stroke: #000000; stroke-width: 0.8"/>
      </g>
     </g>
     <g id="text_11">
      <!-- 400 -->
      <g transform="translate(171.821493 315.101974) scale(0.1 -0.1)">
       <defs>
        <path id="DejaVuSans-17" d="M 2419 4116 
L 825 1625 
L 2419 1625 
L 2419 4116 
z
M 2253 4666 
L 3047 4666 
L 3047 1625 
L 3713 1625 
L 3713 1100 
L 3047 1100 
L 3047 0 
L 2419 0 
L 2419 1100 
L 313 1100 
L 313 1709 
L 2253 4666 
z
" transform="scale(0.015625)"/>
       </defs>
       <use xlink:href="#DejaVuSans-17"/>
       <use xlink:href="#DejaVuSans-13" transform="translate(63.625 0)"/>
       <use xlink:href="#DejaVuSans-13" transform="translate(127.25 0)"/>
      </g>
     </g>
    </g>
    <g id="xtick_14">
     <g id="line2d_22">
      <g>
       <use xlink:href="#maaae07fb8b" x="243.607374" y="300.504317" style="stroke: #000000; stroke-width: 0.8"/>
      </g>
     </g>
     <g id="text_12">
      <!-- 600 -->
      <g transform="translate(234.063624 315.101974) scale(0.1 -0.1)">
       <defs>
        <path id="DejaVuSans-19" d="M 2113 2584 
Q 1688 2584 1439 2293 
Q 1191 2003 1191 1497 
Q 1191 994 1439 701 
Q 1688 409 2113 409 
Q 2538 409 2786 701 
Q 3034 994 3034 1497 
Q 3034 2003 2786 2293 
Q 2538 2584 2113 2584 
z
M 3366 4563 
L 3366 3988 
Q 3128 4100 2886 4159 
Q 2644 4219 2406 4219 
Q 1781 4219 1451 3797 
Q 1122 3375 1075 2522 
Q 1259 2794 1537 2939 
Q 1816 3084 2150 3084 
Q 2853 3084 3261 2657 
Q 3669 2231 3669 1497 
Q 3669 778 3244 343 
Q 2819 -91 2113 -91 
Q 1303 -91 875 529 
Q 447 1150 447 2328 
Q 447 3434 972 4092 
Q 1497 4750 2381 4750 
Q 2619 4750 2861 4703 
Q 3103 4656 3366 4563 
z
" transform="scale(0.015625)"/>
       </defs>
       <use xlink:href="#DejaVuSans-19"/>
       <use xlink:href="#DejaVuSans-13" transform="translate(63.625 0)"/>
       <use xlink:href="#DejaVuSans-13" transform="translate(127.25 0)"/>
      </g>
     </g>
    </g>
    <g id="xtick_15">
     <g id="line2d_23">
      <g>
       <use xlink:href="#maaae07fb8b" x="305.849506" y="300.504317" style="stroke: #000000; stroke-width: 0.8"/>
      </g>
     </g>
     <g id="text_13">
      <!-- 800 -->
      <g transform="translate(296.305756 315.101974) scale(0.1 -0.1)">
       <defs>
        <path id="DejaVuSans-1b" d="M 2034 2216 
Q 1584 2216 1326 1975 
Q 1069 1734 1069 1313 
Q 1069 891 1326 650 
Q 1584 409 2034 409 
Q 2484 409 2743 651 
Q 3003 894 3003 1313 
Q 3003 1734 2745 1975 
Q 2488 2216 2034 2216 
z
M 1403 2484 
Q 997 2584 770 2862 
Q 544 3141 544 3541 
Q 544 4100 942 4425 
Q 1341 4750 2034 4750 
Q 2731 4750 3128 4425 
Q 3525 4100 3525 3541 
Q 3525 3141 3298 2862 
Q 3072 2584 2669 2484 
Q 3125 2378 3379 2068 
Q 3634 1759 3634 1313 
Q 3634 634 3220 271 
Q 2806 -91 2034 -91 
Q 1263 -91 848 271 
Q 434 634 434 1313 
Q 434 1759 690 2068 
Q 947 2378 1403 2484 
z
M 1172 3481 
Q 1172 3119 1398 2916 
Q 1625 2713 2034 2713 
Q 2441 2713 2670 2916 
Q 2900 3119 2900 3481 
Q 2900 3844 2670 4047 
Q 2441 4250 2034 4250 
Q 1625 4250 1398 4047 
Q 1172 3844 1172 3481 
z
" transform="scale(0.015625)"/>
       </defs>
       <use xlink:href="#DejaVuSans-1b"/>
       <use xlink:href="#DejaVuSans-13" transform="translate(63.625 0)"/>
       <use xlink:href="#DejaVuSans-13" transform="translate(127.25 0)"/>
      </g>
     </g>
    </g>
    <g id="text_14">
     <!-- Time -->
     <g transform="translate(172.415776 329.102755) scale(0.1 -0.1)">
      <defs>
       <path id="DejaVuSans-37" d="M -19 4666 
L 3928 4666 
L 3928 4134 
L 2272 4134 
L 2272 0 
L 1638 0 
L 1638 4134 
L -19 4134 
L -19 4666 
z
" transform="scale(0.015625)"/>
       <path id="DejaVuSans-4c" d="M 603 3500 
L 1178 3500 
L 1178 0 
L 603 0 
L 603 3500 
z
M 603 4863 
L 1178 4863 
L 1178 4134 
L 603 4134 
L 603 4863 
z
" transform="scale(0.015625)"/>
       <path id="DejaVuSans-50" d="M 3328 2828 
Q 3544 3216 3844 3400 
Q 4144 3584 4550 3584 
Q 5097 3584 5394 3201 
Q 5691 2819 5691 2113 
L 5691 0 
L 5113 0 
L 5113 2094 
Q 5113 2597 4934 2840 
Q 4756 3084 4391 3084 
Q 3944 3084 3684 2787 
Q 3425 2491 3425 1978 
L 3425 0 
L 2847 0 
L 2847 2094 
Q 2847 2600 2669 2842 
Q 2491 3084 2119 3084 
Q 1678 3084 1418 2786 
Q 1159 2488 1159 1978 
L 1159 0 
L 581 0 
L 581 3500 
L 1159 3500 
L 1159 2956 
Q 1356 3278 1631 3431 
Q 1906 3584 2284 3584 
Q 2666 3584 2933 3390 
Q 3200 3197 3328 2828 
z
" transform="scale(0.015625)"/>
      </defs>
      <use xlink:href="#DejaVuSans-37"/>
      <use xlink:href="#DejaVuSans-4c" transform="translate(58 0)"/>
      <use xlink:href="#DejaVuSans-50" transform="translate(85.78125 0)"/>
      <use xlink:href="#DejaVuSans-48" transform="translate(183.1875 0)"/>
     </g>
    </g>
   </g>
   <g id="matplotlib.axis_6">
    <g id="ytick_7">
     <g id="line2d_24">
      <g>
       <use xlink:href="#m88fbfec537" x="44.103906" y="296.443745" style="stroke: #000000; stroke-width: 0.8"/>
      </g>
     </g>
     <g id="text_15">
      <!-- 0.0 -->
      <g transform="translate(21.200781 300.242573) scale(0.1 -0.1)">
       <defs>
        <path id="DejaVuSans-11" d="M 684 794 
L 1344 794 
L 1344 0 
L 684 0 
L 684 794 
z
" transform="scale(0.015625)"/>
       </defs>
       <use xlink:href="#DejaVuSans-13"/>
       <use xlink:href="#DejaVuSans-11" transform="translate(63.625 0)"/>
       <use xlink:href="#DejaVuSans-13" transform="translate(95.40625 0)"/>
      </g>
     </g>
    </g>
    <g id="ytick_8">
     <g id="line2d_25">
      <g>
       <use xlink:href="#m88fbfec537" x="44.103906" y="255.838021" style="stroke: #000000; stroke-width: 0.8"/>
      </g>
     </g>
     <g id="text_16">
      <!-- 0.5 -->
      <g transform="translate(21.200781 259.636849) scale(0.1 -0.1)">
       <use xlink:href="#DejaVuSans-13"/>
       <use xlink:href="#DejaVuSans-11" transform="translate(63.625 0)"/>
       <use xlink:href="#DejaVuSans-18" transform="translate(95.40625 0)"/>
      </g>
     </g>
    </g>
    <g id="ytick_9">
     <g id="line2d_26">
      <g>
       <use xlink:href="#m88fbfec537" x="44.103906" y="215.232297" style="stroke: #000000; stroke-width: 0.8"/>
      </g>
     </g>
     <g id="text_17">
      <!-- 1.0 -->
      <g transform="translate(21.200781 219.031125) scale(0.1 -0.1)">
       <use xlink:href="#DejaVuSans-14"/>
       <use xlink:href="#DejaVuSans-11" transform="translate(63.625 0)"/>
       <use xlink:href="#DejaVuSans-13" transform="translate(95.40625 0)"/>
      </g>
     </g>
    </g>
    <g id="text_18">
     <!-- Free lac operon -->
     <g transform="translate(14.798438 294.31224) rotate(-90) scale(0.1 -0.1)">
      <defs>
       <path id="DejaVuSans-29" d="M 628 4666 
L 3309 4666 
L 3309 4134 
L 1259 4134 
L 1259 2759 
L 3109 2759 
L 3109 2228 
L 1259 2228 
L 1259 0 
L 628 0 
L 628 4666 
z
" transform="scale(0.015625)"/>
       <path id="DejaVuSans-53" d="M 1159 525 
L 1159 -1331 
L 581 -1331 
L 581 3500 
L 1159 3500 
L 1159 2969 
Q 1341 3281 1617 3432 
Q 1894 3584 2278 3584 
Q 2916 3584 3314 3078 
Q 3713 2572 3713 1747 
Q 3713 922 3314 415 
Q 2916 -91 2278 -91 
Q 1894 -91 1617 61 
Q 1341 213 1159 525 
z
M 3116 1747 
Q 3116 2381 2855 2742 
Q 2594 3103 2138 3103 
Q 1681 3103 1420 2742 
Q 1159 2381 1159 1747 
Q 1159 1113 1420 752 
Q 1681 391 2138 391 
Q 2594 391 2855 752 
Q 3116 1113 3116 1747 
z
" transform="scale(0.015625)"/>
       <path id="DejaVuSans-51" d="M 3513 2113 
L 3513 0 
L 2938 0 
L 2938 2094 
Q 2938 2591 2744 2837 
Q 2550 3084 2163 3084 
Q 1697 3084 1428 2787 
Q 1159 2491 1159 1978 
L 1159 0 
L 581 0 
L 581 3500 
L 1159 3500 
L 1159 2956 
Q 1366 3272 1645 3428 
Q 1925 3584 2291 3584 
Q 2894 3584 3203 3211 
Q 3513 2838 3513 2113 
z
" transform="scale(0.015625)"/>
      </defs>
      <use xlink:href="#DejaVuSans-29"/>
      <use xlink:href="#DejaVuSans-55" transform="translate(50.234375 0)"/>
      <use xlink:href="#DejaVuSans-48" transform="translate(89.140625 0)"/>
      <use xlink:href="#DejaVuSans-48" transform="translate(150.671875 0)"/>
      <use xlink:href="#DejaVuSans-3" transform="translate(212.203125 0)"/>
      <use xlink:href="#DejaVuSans-4f" transform="translate(243.984375 0)"/>
      <use xlink:href="#DejaVuSans-44" transform="translate(271.765625 0)"/>
      <use xlink:href="#DejaVuSans-46" transform="translate(333.046875 0)"/>
      <use xlink:href="#DejaVuSans-3" transform="translate(388.03125 0)"/>
      <use xlink:href="#DejaVuSans-52" transform="translate(419.8125 0)"/>
      <use xlink:href="#DejaVuSans-53" transform="translate(481 0)"/>
      <use xlink:href="#DejaVuSans-48" transform="translate(544.484375 0)"/>
      <use xlink:href="#DejaVuSans-55" transform="translate(606.015625 0)"/>
      <use xlink:href="#DejaVuSans-52" transform="translate(644.921875 0)"/>
      <use xlink:href="#DejaVuSans-51" transform="translate(706.109375 0)"/>
     </g>
    </g>
   </g>
   <g id="line2d_27">
    <path d="M 56.88098 215.232297 
L 56.960576 296.443745 
L 57.124904 296.443745 
L 57.290494 215.232297 
L 57.405881 215.232297 
L 57.50561 296.443745 
L 58.693271 296.443745 
L 59.659827 215.232297 
L 59.841785 215.232297 
L 59.863995 296.443745 
L 62.228473 296.443745 
L 64.761952 215.232297 
L 65.04991 215.232297 
L 65.184121 296.443745 
L 65.307032 296.443745 
L 71.812713 215.232297 
L 71.978508 296.443745 
L 79.633654 215.232297 
L 79.681537 296.443745 
L 82.246208 215.232297 
L 82.382904 215.232297 
L 82.435792 296.443745 
L 84.135178 296.443745 
L 84.199072 215.232297 
L 85.054743 215.232297 
L 85.24025 296.443745 
L 86.248787 296.443745 
L 89.170967 215.232297 
L 89.698265 215.232297 
L 89.726854 296.443745 
L 90.07634 296.443745 
L 90.93699 215.232297 
L 90.994061 296.443745 
L 91.329811 296.443745 
L 108.002815 215.232297 
L 108.016194 296.443745 
L 108.268575 296.443745 
L 108.538204 215.232297 
L 108.818794 296.443745 
L 108.943849 215.232297 
L 109.342 215.232297 
L 109.541766 296.443745 
L 109.827518 296.443745 
L 113.891669 215.232297 
L 114.536738 296.443745 
L 116.140108 215.232297 
L 116.447916 296.443745 
L 117.104505 215.232297 
L 117.189773 296.443745 
L 118.175362 215.232297 
L 118.258272 296.443745 
L 122.108244 296.443745 
L 127.98534 215.232297 
L 128.088792 296.443745 
L 129.790032 215.232297 
L 130.230207 215.232297 
L 130.251143 296.443745 
L 132.048092 296.443745 
L 134.582601 215.232297 
L 134.595595 296.443745 
L 137.408799 215.232297 
L 137.450524 296.443745 
L 144.327938 215.232297 
L 145.250021 215.232297 
L 145.316724 296.443745 
L 145.918632 296.443745 
L 146.157893 215.232297 
L 146.465355 215.232297 
L 146.575446 296.443745 
L 147.620837 296.443745 
L 148.12022 215.232297 
L 148.218599 296.443745 
L 149.313286 296.443745 
L 149.32434 215.232297 
L 149.482072 296.443745 
L 153.689077 215.232297 
L 153.775916 296.443745 
L 154.019361 215.232297 
L 177.178086 215.232297 
L 177.29638 296.443745 
L 177.401293 215.232297 
L 192.878171 215.232297 
L 192.971694 296.443745 
L 193.669124 296.443745 
L 193.804001 215.232297 
L 212.67011 215.232297 
L 212.780899 296.443745 
L 213.399101 215.232297 
L 213.520346 296.443745 
L 214.997981 296.443745 
L 215.435985 215.232297 
L 216.494788 215.232297 
L 216.625623 296.443745 
L 219.170259 296.443745 
L 222.364413 215.232297 
L 222.441149 296.443745 
L 222.699296 215.232297 
L 229.915289 215.232297 
L 229.923202 296.443745 
L 230.918377 296.443745 
L 232.173432 215.232297 
L 233.848675 215.232297 
L 234.06883 296.443745 
L 241.224855 296.443745 
L 255.260042 215.232297 
L 256.091976 215.232297 
L 256.307357 296.443745 
L 256.889735 296.443745 
L 259.129838 215.232297 
L 259.198005 215.232297 
L 259.471401 296.443745 
L 259.902601 215.232297 
L 260.212218 296.443745 
L 260.956239 215.232297 
L 261.339221 215.232297 
L 261.431001 296.443745 
L 262.425793 296.443745 
L 264.108058 215.232297 
L 265.292975 215.232297 
L 265.355779 296.443745 
L 265.772669 296.443745 
L 272.842471 215.232297 
L 273.270653 296.443745 
L 273.374058 215.232297 
L 273.723312 215.232297 
L 273.768484 296.443745 
L 274.19478 215.232297 
L 274.328207 215.232297 
L 274.455774 296.443745 
L 274.641168 296.443745 
L 274.648961 215.232297 
L 274.700228 296.443745 
L 275.095072 296.443745 
L 275.496322 215.232297 
L 275.782902 215.232297 
L 275.87587 296.443745 
L 277.502537 215.232297 
L 277.583979 296.443745 
L 284.346355 215.232297 
L 285.007641 215.232297 
L 285.136999 296.443745 
L 286.958922 296.443745 
L 292.461962 215.232297 
L 293.018792 296.443745 
L 301.454642 215.232297 
L 301.721652 215.232297 
L 301.784423 296.443745 
L 302.13707 296.443745 
L 302.205133 215.232297 
L 302.30634 296.443745 
L 302.599691 296.443745 
L 312.422447 215.232297 
L 312.422447 215.232297 
" clip-path="url(#p0335387e86)" style="fill: none; stroke: #000000; stroke-width: 1.5; stroke-linecap: square"/>
   </g>
   <g id="patch_13">
    <path d="M 44.103906 300.504317 
L 44.103906 211.171724 
" style="fill: none; stroke: #000000; stroke-width: 0.8; stroke-linejoin: miter; stroke-linecap: square"/>
   </g>
   <g id="patch_14">
    <path d="M 325.19952 300.504317 
L 325.19952 211.171724 
" style="fill: none; stroke: #000000; stroke-width: 0.8; stroke-linejoin: miter; stroke-linecap: square"/>
   </g>
   <g id="patch_15">
    <path d="M 44.103906 300.504317 
L 325.19952 300.504317 
" style="fill: none; stroke: #000000; stroke-width: 0.8; stroke-linejoin: miter; stroke-linecap: square"/>
   </g>
   <g id="patch_16">
    <path d="M 44.103906 211.171724 
L 325.19952 211.171724 
" style="fill: none; stroke: #000000; stroke-width: 0.8; stroke-linejoin: miter; stroke-linecap: square"/>
   </g>
  </g>
 </g>
 <defs>
  <clipPath id="p4a8cba250f">
   <rect x="44.103906" y="13.505579" width="281.095614" height="89.332593"/>
  </clipPath>
  <clipPath id="pe01245e16a">
   <rect x="44.103906" y="112.338651" width="281.095614" height="89.332593"/>
  </clipPath>
  <clipPath id="p0335387e86">
   <rect x="44.103906" y="211.171724" width="281.095614" height="89.332593"/>
  </clipPath>
 </defs>
</svg>
