<?xml version="1.0" encoding="utf-8" standalone="no"?>
<!DOCTYPE svg PUBLIC "-//W3C//DTD SVG 1.1//EN"
  "http://www.w3.org/Graphics/SVG/1.1/DTD/svg11.dtd">
<svg xmlns:xlink="http://www.w3.org/1999/xlink" width="332.39952pt" height="332.39952pt" viewBox="0 0 332.39952 332.39952" xmlns="http://www.w3.org/2000/svg" version="1.1">
 <metadata>
  <rdf:RDF xmlns:dc="http://purl.org/dc/elements/1.1/" xmlns:cc="http://creativecommons.org/ns#" xmlns:rdf="http://www.w3.org/1999/02/22-rdf-syntax-ns#">
   <cc:Work>
    <dc:type rdf:resource="http://purl.org/dc/dcmitype/StillImage"/>
    <dc:date>2026-07-10T15:50:19.260267</dc:date>
    <dc:format>image/svg+xml</dc:format>
    <dc:creator>
     <cc:Agent>
      <dc:title>Matplotlib v3.11.0, https://matplotlib.org/</dc:title>
     </cc:Agent>
    </dc:creator>
   </cc:Work>
  </rdf:RDF>
 </metadata>
 <defs>
  <style type="text/css">*{stroke-linejoin: round; stroke-linecap: butt}</style>
 </defs>
 <g id="figure_1">
  <g id="patch_1">
   <path d="M 0 332.39952 
L 332.39952 332.39952 
L 332.39952 0 
L 0 0 
z
" style="fill: #ffffff"/>
  </g>
  <g id="axes_1">
   <g id="patch_2">
    <path d="M 44.103906 96.532593 
L 325.19952 96.532593 
L 325.19952 7.2 
L 44.103906 7.2 
z
" style="fill: #ffffff"/>
   </g>
   <g id="matplotlib.axis_1">
    <g id="xtick_1">
     <g id="line2d_1">
      <defs>
       <path id="md306f2361e" d="M 0 0 
L 0 3.5 
" style="stroke: #000000; stroke-width: 0.8"/>
      </defs>
      <g>
       <use xlink:href="#md306f2361e" x="56.88098" y="96.532593" style="stroke: #000000; stroke-width: 0.8"/>
      </g>
     </g>
    </g>
    <g id="xtick_2">
     <g id="line2d_2">
      <g>
       <use xlink:href="#md306f2361e" x="88.820537" y="96.532593" style="stroke: #000000; stroke-width: 0.8"/>
      </g>
     </g>
    </g>
    <g id="xtick_3">
     <g id="line2d_3">
      <g>
       <use xlink:href="#md306f2361e" x="120.760094" y="96.532593" style="stroke: #000000; stroke-width: 0.8"/>
      </g>
     </g>
    </g>
    <g id="xtick_4">
     <g id="line2d_4">
      <g>
       <use xlink:href="#md306f2361e" x="152.699651" y="96.532593" style="stroke: #000000; stroke-width: 0.8"/>
      </g>
     </g>
    </g>
    <g id="xtick_5">
     <g id="line2d_5">
      <g>
       <use xlink:href="#md306f2361e" x="184.639208" y="96.532593" style="stroke: #000000; stroke-width: 0.8"/>
      </g>
     </g>
    </g>
    <g id="xtick_6">
     <g id="line2d_6">
      <g>
       <use xlink:href="#md306f2361e" x="216.578765" y="96.532593" style="stroke: #000000; stroke-width: 0.8"/>
      </g>
     </g>
    </g>
    <g id="xtick_7">
     <g id="line2d_7">
      <g>
       <use xlink:href="#md306f2361e" x="248.518322" y="96.532593" style="stroke: #000000; stroke-width: 0.8"/>
      </g>
     </g>
    </g>
    <g id="xtick_8">
     <g id="line2d_8">
      <g>
       <use xlink:href="#md306f2361e" x="280.457879" y="96.532593" style="stroke: #000000; stroke-width: 0.8"/>
      </g>
     </g>
    </g>
    <g id="xtick_9">
     <g id="line2d_9">
      <g>
       <use xlink:href="#md306f2361e" x="312.397436" y="96.532593" style="stroke: #000000; stroke-width: 0.8"/>
      </g>
     </g>
    </g>
   </g>
   <g id="matplotlib.axis_2">
    <g id="ytick_1">
     <g id="line2d_10">
      <defs>
       <path id="m2134979bf7" d="M 0 0 
L -3.5 0 
" style="stroke: #000000; stroke-width: 0.8"/>
      </defs>
      <g>
       <use xlink:href="#m2134979bf7" x="44.103906" y="92.472021" style="stroke: #000000; stroke-width: 0.8"/>
      </g>
     </g>
     <g id="text_1">
      <!-- 0 -->
      <g transform="translate(30.741406 96.270849) scale(0.1 -0.1)">
       <defs>
        <path id="DejaVuSans-13" d="M 2034 4250 
Q 1547 4250 1301 3770 
Q 1056 3291 1056 2328 
Q 1056 1369 1301 889 
Q 1547 409 2034 409 
Q 2525 409 2770 889 
Q 3016 1369 3016 2328 
Q 3016 3291 2770 3770 
Q 2525 4250 2034 4250 
z
M 2034 4750 
Q 2819 4750 3233 4129 
Q 3647 3509 3647 2328 
Q 3647 1150 3233 529 
Q 2819 -91 2034 -91 
Q 1250 -91 836 529 
Q 422 1150 422 2328 
Q 422 3509 836 4129 
Q 1250 4750 2034 4750 
z
" transform="scale(0.015625)"/>
       </defs>
       <use xlink:href="#DejaVuSans-13"/>
      </g>
     </g>
    </g>
    <g id="ytick_2">
     <g id="line2d_11">
      <g>
       <use xlink:href="#m2134979bf7" x="44.103906" y="51.866296" style="stroke: #000000; stroke-width: 0.8"/>
      </g>
     </g>
     <g id="text_2">
      <!-- 5 -->
      <g transform="translate(30.741406 55.665125) scale(0.1 -0.1)">
       <defs>
        <path id="DejaVuSans-18" d="M 691 4666 
L 3169 4666 
L 3169 4134 
L 1269 4134 
L 1269 2991 
Q 1406 3038 1543 3061 
Q 1681 3084 1819 3084 
Q 2600 3084 3056 2656 
Q 3513 2228 3513 1497 
Q 3513 744 3044 326 
Q 2575 -91 1722 -91 
Q 1428 -91 1123 -41 
Q 819 9 494 109 
L 494 744 
Q 775 591 1075 516 
Q 1375 441 1709 441 
Q 2250 441 2565 725 
Q 2881 1009 2881 1497 
Q 2881 1984 2565 2268 
Q 2250 2553 1709 2553 
Q 1456 2553 1204 2497 
Q 953 2441 691 2322 
L 691 4666 
z
" transform="scale(0.015625)"/>
       </defs>
       <use xlink:href="#DejaVuSans-18"/>
      </g>
     </g>
    </g>
    <g id="ytick_3">
     <g id="line2d_12">
      <g>
       <use xlink:href="#m2134979bf7" x="44.103906" y="11.260572" style="stroke: #000000; stroke-width: 0.8"/>
      </g>
     </g>
     <g id="text_3">
      <!-- 10 -->
      <g transform="translate(24.378906 15.059401) scale(0.1 -0.1)">
       <defs>
        <path id="DejaVuSans-14" d="M 794 531 
L 1825 531 
L 1825 4091 
L 703 3866 
L 703 4441 
L 1819 4666 
L 2450 4666 
L 2450 531 
L 3481 531 
L 3481 0 
L 794 0 
L 794 531 
z
" transform="scale(0.015625)"/>
       </defs>
       <use xlink:href="#DejaVuSans-14"/>
       <use xlink:href="#DejaVuSans-13" transform="translate(63.625 0)"/>
      </g>
     </g>
    </g>
    <g id="text_4">
     <!-- Extracellular lactose -->
     <g transform="translate(17.976563 102.838171) rotate(-90) scale(0.1 -0.1)">
      <defs>
       <path id="DejaVuSans-28" d="M 628 4666 
L 3578 4666 
L 3578 4134 
L 1259 4134 
L 1259 2753 
L 3481 2753 
L 3481 2222 
L 1259 2222 
L 1259 531 
L 3634 531 
L 3634 0 
L 628 0 
L 628 4666 
z
" transform="scale(0.015625)"/>
       <path id="DejaVuSans-5b" d="M 3513 3500 
L 2247 1797 
L 3578 0 
L 2900 0 
L 1881 1375 
L 863 0 
L 184 0 
L 1544 1831 
L 300 3500 
L 978 3500 
L 1906 2253 
L 2834 3500 
L 3513 3500 
z
" transform="scale(0.015625)"/>
       <path id="DejaVuSans-57" d="M 1172 4494 
L 1172 3500 
L 2356 3500 
L 2356 3053 
L 1172 3053 
L 1172 1153 
Q 1172 725 1289 603 
Q 1406 481 1766 481 
L 2356 481 
L 2356 0 
L 1766 0 
Q 1100 0 847 248 
Q 594 497 594 1153 
L 594 3053 
L 172 3053 
L 172 3500 
L 594 3500 
L 594 4494 
L 1172 4494 
z
" transform="scale(0.015625)"/>
       <path id="DejaVuSans-55" d="M 2631 2963 
Q 2534 3019 2420 3045 
Q 2306 3072 2169 3072 
Q 1681 3072 1420 2755 
Q 1159 2438 1159 1844 
L 1159 0 
L 581 0 
L 581 3500 
L 1159 3500 
L 1159 2956 
Q 1341 3275 1631 3429 
Q 1922 3584 2338 3584 
Q 2397 3584 2469 3576 
Q 2541 3569 2628 3553 
L 2631 2963 
z
" transform="scale(0.015625)"/>
       <path id="DejaVuSans-44" d="M 2194 1759 
Q 1497 1759 1228 1600 
Q 959 1441 959 1056 
Q 959 750 1161 570 
Q 1363 391 1709 391 
Q 2188 391 2477 730 
Q 2766 1069 2766 1631 
L 2766 1759 
L 2194 1759 
z
M 3341 1997 
L 3341 0 
L 2766 0 
L 2766 531 
Q 2569 213 2275 61 
Q 1981 -91 1556 -91 
Q 1019 -91 701 211 
Q 384 513 384 1019 
Q 384 1609 779 1909 
Q 1175 2209 1959 2209 
L 2766 2209 
L 2766 2266 
Q 2766 2663 2505 2880 
Q 2244 3097 1772 3097 
Q 1472 3097 1187 3025 
Q 903 2953 641 2809 
L 641 3341 
Q 956 3463 1253 3523 
Q 1550 3584 1831 3584 
Q 2591 3584 2966 3190 
Q 3341 2797 3341 1997 
z
" transform="scale(0.015625)"/>
       <path id="DejaVuSans-46" d="M 3122 3366 
L 3122 2828 
Q 2878 2963 2633 3030 
Q 2388 3097 2138 3097 
Q 1578 3097 1268 2742 
Q 959 2388 959 1747 
Q 959 1106 1268 751 
Q 1578 397 2138 397 
Q 2388 397 2633 464 
Q 2878 531 3122 666 
L 3122 134 
Q 2881 22 2623 -34 
Q 2366 -91 2075 -91 
Q 1284 -91 818 406 
Q 353 903 353 1747 
Q 353 2603 823 3093 
Q 1294 3584 2113 3584 
Q 2378 3584 2631 3529 
Q 2884 3475 3122 3366 
z
" transform="scale(0.015625)"/>
       <path id="DejaVuSans-48" d="M 3597 1894 
L 3597 1613 
L 953 1613 
Q 991 1019 1311 708 
Q 1631 397 2203 397 
Q 2534 397 2845 478 
Q 3156 559 3463 722 
L 3463 178 
Q 3153 47 2828 -22 
Q 2503 -91 2169 -91 
Q 1331 -91 842 396 
Q 353 884 353 1716 
Q 353 2575 817 3079 
Q 1281 3584 2069 3584 
Q 2775 3584 3186 3129 
Q 3597 2675 3597 1894 
z
M 3022 2063 
Q 3016 2534 2758 2815 
Q 2500 3097 2075 3097 
Q 1594 3097 1305 2825 
Q 1016 2553 972 2059 
L 3022 2063 
z
" transform="scale(0.015625)"/>
       <path id="DejaVuSans-4f" d="M 603 4863 
L 1178 4863 
L 1178 0 
L 603 0 
L 603 4863 
z
" transform="scale(0.015625)"/>
       <path id="DejaVuSans-58" d="M 544 1381 
L 544 3500 
L 1119 3500 
L 1119 1403 
Q 1119 906 1312 657 
Q 1506 409 1894 409 
Q 2359 409 2629 706 
Q 2900 1003 2900 1516 
L 2900 3500 
L 3475 3500 
L 3475 0 
L 2900 0 
L 2900 538 
Q 2691 219 2414 64 
Q 2138 -91 1772 -91 
Q 1169 -91 856 284 
Q 544 659 544 1381 
z
M 1991 3584 
L 1991 3584 
z
" transform="scale(0.015625)"/>
       <path id="DejaVuSans-3" transform="scale(0.015625)"/>
       <path id="DejaVuSans-52" d="M 1959 3097 
Q 1497 3097 1228 2736 
Q 959 2375 959 1747 
Q 959 1119 1226 758 
Q 1494 397 1959 397 
Q 2419 397 2687 759 
Q 2956 1122 2956 1747 
Q 2956 2369 2687 2733 
Q 2419 3097 1959 3097 
z
M 1959 3584 
Q 2709 3584 3137 3096 
Q 3566 2609 3566 1747 
Q 3566 888 3137 398 
Q 2709 -91 1959 -91 
Q 1206 -91 779 398 
Q 353 888 353 1747 
Q 353 2609 779 3096 
Q 1206 3584 1959 3584 
z
" transform="scale(0.015625)"/>
       <path id="DejaVuSans-56" d="M 2834 3397 
L 2834 2853 
Q 2591 2978 2328 3040 
Q 2066 3103 1784 3103 
Q 1356 3103 1142 2972 
Q 928 2841 928 2578 
Q 928 2378 1081 2264 
Q 1234 2150 1697 2047 
L 1894 2003 
Q 2506 1872 2764 1633 
Q 3022 1394 3022 966 
Q 3022 478 2636 193 
Q 2250 -91 1575 -91 
Q 1294 -91 989 -36 
Q 684 19 347 128 
L 347 722 
Q 666 556 975 473 
Q 1284 391 1588 391 
Q 1994 391 2212 530 
Q 2431 669 2431 922 
Q 2431 1156 2273 1281 
Q 2116 1406 1581 1522 
L 1381 1569 
Q 847 1681 609 1914 
Q 372 2147 372 2553 
Q 372 3047 722 3315 
Q 1072 3584 1716 3584 
Q 2034 3584 2315 3537 
Q 2597 3491 2834 3397 
z
" transform="scale(0.015625)"/>
      </defs>
      <use xlink:href="#DejaVuSans-28"/>
      <use xlink:href="#DejaVuSans-5b" transform="translate(63.1875 0)"/>
      <use xlink:href="#DejaVuSans-57" transform="translate(122.375 0)"/>
      <use xlink:href="#DejaVuSans-55" transform="translate(161.578125 0)"/>
      <use xlink:href="#DejaVuSans-44" transform="translate(202.6875 0)"/>
      <use xlink:href="#DejaVuSans-46" transform="translate(263.96875 0)"/>
      <use xlink:href="#DejaVuSans-48" transform="translate(318.953125 0)"/>
      <use xlink:href="#DejaVuSans-4f" transform="translate(380.484375 0)"/>
      <use xlink:href="#DejaVuSans-4f" transform="translate(408.265625 0)"/>
      <use xlink:href="#DejaVuSans-58" transform="translate(436.046875 0)"/>
      <use xlink:href="#DejaVuSans-4f" transform="translate(499.421875 0)"/>
      <use xlink:href="#DejaVuSans-44" transform="translate(527.203125 0)"/>
      <use xlink:href="#DejaVuSans-55" transform="translate(588.484375 0)"/>
      <use xlink:href="#DejaVuSans-3" transform="translate(629.59375 0)"/>
      <use xlink:href="#DejaVuSans-4f" transform="translate(661.375 0)"/>
      <use xlink:href="#DejaVuSans-44" transform="translate(689.15625 0)"/>
      <use xlink:href="#DejaVuSans-46" transform="translate(750.4375 0)"/>
      <use xlink:href="#DejaVuSans-57" transform="translate(805.421875 0)"/>
      <use xlink:href="#DejaVuSans-52" transform="translate(844.625 0)"/>
      <use xlink:href="#DejaVuSans-56" transform="translate(905.8125 0)"/>
      <use xlink:href="#DejaVuSans-48" transform="translate(957.90625 0)"/>
     </g>
    </g>
   </g>
   <g id="line2d_13">
    <path d="M 56.88098 92.472021 
L 156.235153 92.472021 
L 156.324275 11.260572 
L 156.99245 11.341784 
L 157.11017 11.66663 
L 157.154997 11.747841 
L 157.301231 13.209647 
L 157.419605 14.833876 
L 157.433437 14.915088 
L 157.57699 16.620528 
L 157.600545 16.701739 
L 158.110266 20.193832 
L 158.387572 20.599889 
L 158.446882 20.6811 
L 158.556088 20.762312 
L 159.006807 20.843523 
L 159.103694 21.249581 
L 159.341799 21.655638 
L 159.441989 22.061695 
L 159.562227 22.142906 
L 159.670286 22.548964 
L 159.702393 22.630175 
L 159.830058 23.767135 
L 159.849626 23.848347 
L 159.962195 24.741673 
L 160.110386 25.391364 
L 160.152962 25.472576 
L 160.789396 29.289514 
L 160.901787 30.426474 
L 161.126356 31.807069 
L 161.156445 31.88828 
L 161.26758 32.213126 
L 161.303527 32.294337 
L 161.442307 32.700395 
L 161.496682 33.187663 
L 161.614246 33.756144 
L 161.636412 33.837355 
L 161.739375 34.080989 
L 161.783489 34.162201 
L 162.299475 35.867641 
L 162.806096 35.948853 
L 162.950119 36.436121 
L 162.973873 36.517333 
L 163.142799 36.92339 
L 163.354738 37.004601 
L 163.499243 37.573082 
L 163.647211 37.897927 
L 163.67046 37.979139 
L 163.773677 38.222773 
L 164.362909 39.522156 
L 164.467897 39.928214 
L 164.66623 40.496694 
L 164.773537 41.146385 
L 165.023556 41.552443 
L 165.174355 41.633654 
L 165.313147 41.796077 
L 165.365093 41.877288 
L 165.618131 42.689403 
L 165.635582 42.770614 
L 165.810218 43.014249 
L 166.00117 43.09546 
L 166.111759 43.501517 
L 166.25658 43.907575 
L 166.339505 43.988786 
L 166.457155 44.394843 
L 166.674316 44.719689 
L 166.748763 44.8009 
L 167.020917 46.506341 
L 168.250246 50.810548 
L 168.370683 50.891759 
L 168.465568 51.054182 
L 168.559994 51.135393 
L 168.669494 51.379028 
L 168.798256 51.541451 
L 169.635517 53.003257 
L 169.766878 53.490525 
L 170.211255 54.87112 
L 170.348232 54.952331 
L 170.460671 55.114754 
L 170.644538 55.602023 
L 170.67554 55.683235 
L 170.784005 55.926869 
L 170.812579 56.00808 
L 170.896506 56.332926 
L 171.597089 59.256538 
L 171.646717 59.33775 
L 171.860493 60.555921 
L 171.935895 60.637133 
L 172.030289 60.799556 
L 172.411229 60.880767 
L 172.518435 61.04319 
L 172.665374 61.286824 
L 172.965435 61.368036 
L 173.132388 61.61167 
L 173.349397 61.936516 
L 173.650561 62.017727 
L 173.830082 62.261362 
L 173.908322 62.342573 
L 174.031343 62.423785 
L 174.105616 62.504996 
L 174.205521 62.829842 
L 174.460515 63.235899 
L 174.52183 63.317111 
L 174.75141 64.454071 
L 174.845721 64.535282 
L 175.069008 65.753454 
L 175.162218 65.834666 
L 175.384195 66.64678 
L 175.411033 66.727991 
L 175.564647 67.621317 
L 175.621809 67.702529 
L 175.757311 68.271009 
L 175.885313 68.35222 
L 176.003167 68.839489 
L 176.043934 68.920701 
L 176.423649 70.950987 
L 176.532994 71.763101 
L 176.571888 71.844313 
L 176.696316 72.656427 
L 176.893651 73.549753 
L 176.926907 73.630965 
L 177.03744 74.443079 
L 177.226132 74.930348 
L 177.314225 75.011559 
L 178.070066 76.879422 
L 178.235428 76.960634 
L 178.36435 77.041845 
L 178.913816 77.123057 
L 179.026926 77.204268 
L 179.092854 77.28548 
L 179.156389 77.366691 
L 179.235045 77.447903 
L 179.344991 77.529114 
L 180.03992 77.610326 
L 180.447094 78.666074 
L 180.659183 78.747286 
L 180.822117 79.234554 
L 180.950584 79.315766 
L 181.017338 79.396977 
L 181.617709 80.12788 
L 181.758093 80.696361 
L 181.843773 80.777572 
L 181.943238 80.939995 
L 182.325648 81.021206 
L 182.480964 81.102418 
L 182.947057 81.183629 
L 183.056987 81.264841 
L 183.152668 81.508475 
L 183.256194 81.589686 
L 183.936616 82.320589 
L 184.143292 82.970281 
L 184.181172 83.051493 
L 184.317172 83.213915 
L 184.392486 83.295127 
L 184.557063 83.619973 
L 184.680108 83.701184 
L 185.109508 83.782396 
L 185.177078 83.863607 
L 186.568982 83.944818 
L 186.759178 84.02603 
L 187.17554 84.107241 
L 187.282016 84.188453 
L 187.309921 84.269664 
L 187.65661 84.513299 
L 188.015777 84.59451 
L 188.109794 84.675721 
L 188.862735 84.756933 
L 188.934482 84.838144 
L 189.129267 85.000567 
L 189.558148 85.081779 
L 189.69033 85.16299 
L 189.903726 85.244202 
L 190.0494 85.325413 
L 190.943011 85.406625 
L 191.23168 85.73147 
L 191.621669 85.812682 
L 191.916066 85.975105 
L 191.951168 86.056316 
L 192.013769 86.137528 
L 192.421031 86.218739 
L 192.541981 86.29995 
L 192.828648 86.381162 
L 193.416046 86.543585 
L 194.068039 86.624796 
L 194.22119 86.949642 
L 194.568775 87.030853 
L 194.665303 87.274488 
L 194.830236 87.355699 
L 194.962166 87.436911 
L 195.273582 87.518122 
L 195.400616 87.680545 
L 195.839892 87.761757 
L 196.643424 88.086602 
L 196.717123 88.167814 
L 197.17139 88.249025 
L 197.47219 88.330237 
L 198.082986 88.411448 
L 198.477127 88.655082 
L 199.177262 88.736294 
L 199.693144 89.06114 
L 199.765824 89.223563 
L 200.048291 89.304774 
L 200.139369 89.467197 
L 201.577599 89.548408 
L 201.63054 89.62962 
L 201.788763 89.710831 
L 202.673554 89.792043 
L 202.696285 89.873254 
L 206.940891 89.954466 
L 207.068458 90.035677 
L 208.477178 90.116889 
L 208.737712 90.279311 
L 217.272015 90.360523 
L 218.585937 90.522946 
L 221.15079 90.604157 
L 221.413021 90.685369 
L 254.770075 90.76658 
L 255.711982 90.847792 
L 285.300386 90.929003 
L 285.47301 91.091426 
L 287.306288 91.172637 
L 287.477726 91.253849 
L 289.306256 91.33506 
L 289.468567 91.416272 
L 290.454984 91.497483 
L 290.634804 91.578695 
L 294.653646 91.659906 
L 296.342595 91.741117 
L 312.422447 91.822329 
L 312.422447 91.822329 
" clip-path="url(#p8a43caef5c)" style="fill: none; stroke: #000000; stroke-width: 1.5; stroke-linecap: square"/>
   </g>
   <g id="patch_3">
    <path d="M 44.103906 96.532593 
L 44.103906 7.2 
" style="fill: none; stroke: #000000; stroke-width: 0.8; stroke-linejoin: miter; stroke-linecap: square"/>
   </g>
   <g id="patch_4">
    <path d="M 325.19952 96.532593 
L 325.19952 7.2 
" style="fill: none; stroke: #000000; stroke-width: 0.8; stroke-linejoin: miter; stroke-linecap: square"/>
   </g>
   <g id="patch_5">
    <path d="M 44.103906 96.532593 
L 325.19952 96.532593 
" style="fill: none; stroke: #000000; stroke-width: 0.8; stroke-linejoin: miter; stroke-linecap: square"/>
   </g>
   <g id="patch_6">
    <path d="M 44.103906 7.2 
L 325.19952 7.2 
" style="fill: none; stroke: #000000; stroke-width: 0.8; stroke-linejoin: miter; stroke-linecap: square"/>
   </g>
  </g>
  <g id="axes_2">
   <g id="patch_7">
    <path d="M 44.103906 195.365666 
L 325.19952 195.365666 
L 325.19952 106.033073 
L 44.103906 106.033073 
z
" style="fill: #ffffff"/>
   </g>
   <g id="matplotlib.axis_3">
    <g id="xtick_10">
     <g id="line2d_14">
      <g>
       <use xlink:href="#md306f2361e" x="56.88098" y="195.365666" style="stroke: #000000; stroke-width: 0.8"/>
      </g>
     </g>
    </g>
    <g id="xtick_11">
     <g id="line2d_15">
      <g>
       <use xlink:href="#md306f2361e" x="88.820537" y="195.365666" style="stroke: #000000; stroke-width: 0.8"/>
      </g>
     </g>
    </g>
    <g id="xtick_12">
     <g id="line2d_16">
      <g>
       <use xlink:href="#md306f2361e" x="120.760094" y="195.365666" style="stroke: #000000; stroke-width: 0.8"/>
      </g>
     </g>
    </g>
    <g id="xtick_13">
     <g id="line2d_17">
      <g>
       <use xlink:href="#md306f2361e" x="152.699651" y="195.365666" style="stroke: #000000; stroke-width: 0.8"/>
      </g>
     </g>
    </g>
    <g id="xtick_14">
     <g id="line2d_18">
      <g>
       <use xlink:href="#md306f2361e" x="184.639208" y="195.365666" style="stroke: #000000; stroke-width: 0.8"/>
      </g>
     </g>
    </g>
    <g id="xtick_15">
     <g id="line2d_19">
      <g>
       <use xlink:href="#md306f2361e" x="216.578765" y="195.365666" style="stroke: #000000; stroke-width: 0.8"/>
      </g>
     </g>
    </g>
    <g id="xtick_16">
     <g id="line2d_20">
      <g>
       <use xlink:href="#md306f2361e" x="248.518322" y="195.365666" style="stroke: #000000; stroke-width: 0.8"/>
      </g>
     </g>
    </g>
    <g id="xtick_17">
     <g id="line2d_21">
      <g>
       <use xlink:href="#md306f2361e" x="280.457879" y="195.365666" style="stroke: #000000; stroke-width: 0.8"/>
      </g>
     </g>
    </g>
    <g id="xtick_18">
     <g id="line2d_22">
      <g>
       <use xlink:href="#md306f2361e" x="312.397436" y="195.365666" style="stroke: #000000; stroke-width: 0.8"/>
      </g>
     </g>
    </g>
   </g>
   <g id="matplotlib.axis_4">
    <g id="ytick_4">
     <g id="line2d_23">
      <g>
       <use xlink:href="#m2134979bf7" x="44.103906" y="191.305093" style="stroke: #000000; stroke-width: 0.8"/>
      </g>
     </g>
     <g id="text_5">
      <!-- 0 -->
      <g transform="translate(30.741406 195.103922) scale(0.1 -0.1)">
       <use xlink:href="#DejaVuSans-13"/>
      </g>
     </g>
    </g>
    <g id="ytick_5">
     <g id="line2d_24">
      <g>
       <use xlink:href="#m2134979bf7" x="44.103906" y="150.699369" style="stroke: #000000; stroke-width: 0.8"/>
      </g>
     </g>
     <g id="text_6">
      <!-- 5 -->
      <g transform="translate(30.741406 154.498197) scale(0.1 -0.1)">
       <use xlink:href="#DejaVuSans-18"/>
      </g>
     </g>
    </g>
    <g id="ytick_6">
     <g id="line2d_25">
      <g>
       <use xlink:href="#m2134979bf7" x="44.103906" y="110.093645" style="stroke: #000000; stroke-width: 0.8"/>
      </g>
     </g>
     <g id="text_7">
      <!-- 10 -->
      <g transform="translate(24.378906 113.892473) scale(0.1 -0.1)">
       <use xlink:href="#DejaVuSans-14"/>
       <use xlink:href="#DejaVuSans-13" transform="translate(63.625 0)"/>
      </g>
     </g>
    </g>
    <g id="text_8">
     <!-- LacY -->
     <g transform="translate(17.976563 162.352494) rotate(-90) scale(0.1 -0.1)">
      <defs>
       <path id="DejaVuSans-2f" d="M 628 4666 
L 1259 4666 
L 1259 531 
L 3531 531 
L 3531 0 
L 628 0 
L 628 4666 
z
" transform="scale(0.015625)"/>
       <path id="DejaVuSans-3c" d="M -13 4666 
L 666 4666 
L 1959 2747 
L 3244 4666 
L 3922 4666 
L 2272 2222 
L 2272 0 
L 1638 0 
L 1638 2222 
L -13 4666 
z
" transform="scale(0.015625)"/>
      </defs>
      <use xlink:href="#DejaVuSans-2f"/>
      <use xlink:href="#DejaVuSans-44" transform="translate(55.71875 0)"/>
      <use xlink:href="#DejaVuSans-46" transform="translate(117 0)"/>
      <use xlink:href="#DejaVuSans-3c" transform="translate(171.984375 0)"/>
     </g>
    </g>
   </g>
   <g id="line2d_26">
    <path d="M 56.88098 110.093645 
L 56.90813 110.093645 
L 56.96267 118.21479 
L 57.070926 134.45708 
L 57.13132 142.578225 
L 57.283553 142.578225 
L 57.301265 134.45708 
L 57.522038 142.578225 
L 57.664022 142.578225 
L 57.834815 158.820514 
L 58.135968 175.062804 
L 58.201642 191.305093 
L 59.732911 191.305093 
L 59.899671 183.183949 
L 59.942449 191.305093 
L 64.969223 191.305093 
L 65.29245 183.183949 
L 65.402495 191.305093 
L 82.913319 191.305093 
L 83.10789 183.183949 
L 84.902706 191.305093 
L 84.917544 183.183949 
L 85.06087 175.062804 
L 85.065529 166.941659 
L 85.38796 175.062804 
L 85.615114 175.062804 
L 85.734848 191.305093 
L 85.795719 183.183949 
L 85.986105 183.183949 
L 86.124707 191.305093 
L 90.020201 191.305093 
L 90.410327 175.062804 
L 90.411629 166.941659 
L 90.910684 166.941659 
L 90.949385 183.183949 
L 91.722177 183.183949 
L 91.891243 175.062804 
L 92.235823 191.305093 
L 109.255276 191.305093 
L 109.361062 183.183949 
L 109.48087 183.183949 
L 109.620081 191.305093 
L 109.855281 191.305093 
L 109.896801 183.183949 
L 110.313114 183.183949 
L 110.663339 175.062804 
L 110.721737 183.183949 
L 110.897153 183.183949 
L 110.926757 191.305093 
L 119.693928 191.305093 
L 119.872509 183.183949 
L 121.974624 183.183949 
L 123.823736 191.305093 
L 131.598671 191.305093 
L 131.785104 183.183949 
L 132.072922 183.183949 
L 132.180795 191.305093 
L 136.520482 191.305093 
L 136.604287 183.183949 
L 136.626172 191.305093 
L 146.627813 191.305093 
L 146.888893 175.062804 
L 146.909743 183.183949 
L 146.938777 175.062804 
L 147.05199 166.941659 
L 147.057335 175.062804 
L 147.642605 175.062804 
L 148.260343 183.183949 
L 148.505897 183.183949 
L 148.821445 175.062804 
L 148.934431 175.062804 
L 150.007316 191.305093 
L 150.467905 191.305093 
L 150.519833 175.062804 
L 150.6208 175.062804 
L 150.773771 183.183949 
L 150.907612 183.183949 
L 151.451013 191.305093 
L 156.574123 191.305093 
L 157.002797 183.183949 
L 157.243309 150.699369 
L 157.525205 150.699369 
L 157.645422 166.941659 
L 157.695336 166.941659 
L 157.796329 158.820514 
L 157.883386 158.820514 
L 157.993294 175.062804 
L 158.02152 175.062804 
L 158.110266 183.183949 
L 158.462365 183.183949 
L 158.556088 191.305093 
L 158.956146 191.305093 
L 159.057599 183.183949 
L 159.223933 183.183949 
L 159.338602 175.062804 
L 159.471118 175.062804 
L 159.526461 183.183949 
L 159.580871 175.062804 
L 159.694105 175.062804 
L 159.80335 166.941659 
L 159.954915 166.941659 
L 160.079652 183.183949 
L 160.213566 183.183949 
L 160.336452 175.062804 
L 160.485349 175.062804 
L 160.623861 158.820514 
L 160.786428 158.820514 
L 160.855191 150.699369 
L 160.894341 158.820514 
L 160.98181 158.820514 
L 161.032385 150.699369 
L 161.085013 158.820514 
L 161.253727 158.820514 
L 161.362869 175.062804 
L 161.391829 175.062804 
L 161.42237 183.183949 
L 161.430755 166.941659 
L 161.498787 166.941659 
L 161.733961 166.941659 
L 161.84606 175.062804 
L 162.133504 175.062804 
L 162.233664 183.183949 
L 162.333589 183.183949 
L 162.444423 191.305093 
L 162.717787 191.305093 
L 162.866697 183.183949 
L 162.990315 183.183949 
L 163.105573 175.062804 
L 163.142799 175.062804 
L 163.251992 183.183949 
L 163.495651 183.183949 
L 163.548695 175.062804 
L 163.601898 183.183949 
L 163.943404 183.183949 
L 164.032064 175.062804 
L 164.047785 183.183949 
L 164.128775 183.183949 
L 164.237979 175.062804 
L 164.581659 175.062804 
L 164.585357 183.183949 
L 164.632398 166.941659 
L 164.68044 166.941659 
L 164.80624 175.062804 
L 164.80794 175.062804 
L 164.838538 183.183949 
L 164.886997 175.062804 
L 165.127211 175.062804 
L 165.191804 183.183949 
L 165.387725 183.183949 
L 165.389646 191.305093 
L 165.495593 183.183949 
L 166.028921 183.183949 
L 166.140855 175.062804 
L 166.427281 175.062804 
L 166.567037 183.183949 
L 166.674316 183.183949 
L 166.930158 158.820514 
L 167.042196 166.941659 
L 167.060485 166.941659 
L 167.114084 175.062804 
L 167.170436 166.941659 
L 167.199694 166.941659 
L 167.298632 175.062804 
L 167.650447 175.062804 
L 167.77115 166.941659 
L 167.872346 166.941659 
L 167.984501 175.062804 
L 168.326742 175.062804 
L 168.402716 183.183949 
L 168.435424 175.062804 
L 168.628603 175.062804 
L 168.729408 183.183949 
L 168.86618 183.183949 
L 168.974598 191.305093 
L 169.020301 191.305093 
L 169.134812 183.183949 
L 169.289691 183.183949 
L 169.387364 175.062804 
L 169.667753 175.062804 
L 169.786449 166.941659 
L 170.096896 166.941659 
L 170.211255 175.062804 
L 170.913073 175.062804 
L 171.02494 166.941659 
L 171.504965 166.941659 
L 171.569604 158.820514 
L 171.611157 166.941659 
L 171.925308 166.941659 
L 172.030289 175.062804 
L 172.082315 175.062804 
L 172.226841 183.183949 
L 172.431382 183.183949 
L 172.562975 175.062804 
L 172.6392 175.062804 
L 172.750053 183.183949 
L 173.170364 183.183949 
L 173.26223 191.305093 
L 173.279438 183.183949 
L 174.091377 183.183949 
L 174.239487 158.820514 
L 174.368239 175.062804 
L 174.504411 175.062804 
L 174.630126 158.820514 
L 174.998522 158.820514 
L 175.044736 150.699369 
L 175.069008 158.820514 
L 175.244567 158.820514 
L 175.246236 150.699369 
L 175.350284 158.820514 
L 175.415367 158.820514 
L 175.464127 150.699369 
L 175.518893 158.820514 
L 175.608104 158.820514 
L 175.71843 150.699369 
L 175.804082 158.820514 
L 175.838209 158.820514 
L 175.913424 134.45708 
L 175.95205 142.578225 
L 175.996041 142.578225 
L 176.085496 150.699369 
L 176.240869 150.699369 
L 176.357865 142.578225 
L 176.385707 142.578225 
L 176.497237 126.335935 
L 176.619548 134.45708 
L 176.788411 134.45708 
L 176.902451 142.578225 
L 176.957754 142.578225 
L 177.035703 134.45708 
L 177.059939 142.578225 
L 177.154916 158.820514 
L 177.174957 150.699369 
L 177.198795 150.699369 
L 177.343256 175.062804 
L 177.401781 175.062804 
L 177.508642 166.941659 
L 177.927893 166.941659 
L 177.97662 158.820514 
L 178.023478 175.062804 
L 178.023879 175.062804 
L 178.124744 166.941659 
L 178.152307 166.941659 
L 178.297554 183.183949 
L 178.36435 183.183949 
L 178.45737 175.062804 
L 178.572713 175.062804 
L 178.677014 183.183949 
L 178.971529 183.183949 
L 179.099741 158.820514 
L 179.155527 158.820514 
L 179.263246 166.941659 
L 179.286027 166.941659 
L 179.412993 183.183949 
L 179.437296 183.183949 
L 179.476845 175.062804 
L 179.504587 183.183949 
L 179.6598 183.183949 
L 179.742952 191.305093 
L 179.868706 183.183949 
L 179.972453 183.183949 
L 180.122157 166.941659 
L 180.363981 166.941659 
L 180.481857 158.820514 
L 180.543447 158.820514 
L 180.669886 142.578225 
L 180.731167 142.578225 
L 180.811817 134.45708 
L 180.83781 142.578225 
L 180.88045 142.578225 
L 180.982424 166.941659 
L 181.096814 166.941659 
L 181.21743 175.062804 
L 181.389175 175.062804 
L 181.447059 166.941659 
L 181.494674 175.062804 
L 181.512897 175.062804 
L 181.68773 150.699369 
L 181.743334 150.699369 
L 181.851514 142.578225 
L 181.85406 150.699369 
L 181.971605 175.062804 
L 182.057729 175.062804 
L 182.149728 166.941659 
L 182.241667 166.941659 
L 182.361482 175.062804 
L 182.511009 183.183949 
L 182.52744 183.183949 
L 182.7289 175.062804 
L 183.095166 158.820514 
L 183.392031 158.820514 
L 183.502052 150.699369 
L 183.669244 142.578225 
L 183.714105 150.699369 
L 183.760079 134.45708 
L 183.781915 134.45708 
L 183.951985 150.699369 
L 184.143292 150.699369 
L 184.254017 142.578225 
L 184.317172 142.578225 
L 184.53067 166.941659 
L 184.589917 166.941659 
L 184.680108 175.062804 
L 184.726408 175.062804 
L 184.838863 183.183949 
L 185.727731 183.183949 
L 185.727933 191.305093 
L 186.037961 191.305093 
L 186.397793 183.183949 
L 186.759178 183.183949 
L 186.894565 175.062804 
L 187.499484 175.062804 
L 187.57035 166.941659 
L 187.812278 166.941659 
L 187.901574 183.183949 
L 188.082675 166.941659 
L 188.109794 183.183949 
L 188.750694 183.183949 
L 188.924864 166.941659 
L 188.934482 175.062804 
L 188.98521 175.062804 
L 189.057413 183.183949 
L 189.171016 183.183949 
L 189.207304 175.062804 
L 189.285138 183.183949 
L 189.449825 183.183949 
L 189.616158 175.062804 
L 189.796253 166.941659 
L 189.826322 166.941659 
L 189.851175 158.820514 
L 189.903726 166.941659 
L 189.93867 166.941659 
L 190.0494 183.183949 
L 190.683788 183.183949 
L 190.816365 175.062804 
L 190.883387 183.183949 
L 190.901962 175.062804 
L 191.134448 175.062804 
L 191.23168 150.699369 
L 191.406393 166.941659 
L 191.548543 166.941659 
L 191.698399 175.062804 
L 192.148032 175.062804 
L 192.239593 166.941659 
L 192.474862 166.941659 
L 192.541981 158.820514 
L 192.554194 166.941659 
L 192.692832 166.941659 
L 192.731455 175.062804 
L 193.021224 175.062804 
L 193.159867 183.183949 
L 193.184018 183.183949 
L 193.255399 175.062804 
L 193.271997 183.183949 
L 193.52719 183.183949 
L 193.646389 175.062804 
L 193.739089 175.062804 
L 193.812914 166.941659 
L 194.09812 175.062804 
L 194.18992 150.699369 
L 194.380057 150.699369 
L 194.475331 166.941659 
L 194.494273 158.820514 
L 194.665303 150.699369 
L 194.830236 158.820514 
L 194.91832 158.820514 
L 194.962166 150.699369 
L 195.091664 158.820514 
L 195.10157 166.941659 
L 195.294417 158.820514 
L 195.374296 158.820514 
L 195.448613 175.062804 
L 195.635463 175.062804 
L 195.731126 183.183949 
L 195.839892 166.941659 
L 196.517548 166.941659 
L 196.655669 175.062804 
L 196.717123 175.062804 
L 196.84216 183.183949 
L 196.929377 175.062804 
L 197.000313 183.183949 
L 197.119889 183.183949 
L 197.17139 175.062804 
L 197.407824 175.062804 
L 197.47219 191.305093 
L 197.736906 191.305093 
L 197.776654 183.183949 
L 197.89694 183.183949 
L 198.045925 191.305093 
L 198.168865 183.183949 
L 198.388572 183.183949 
L 198.46404 191.305093 
L 198.477127 183.183949 
L 198.655013 183.183949 
L 198.675782 175.062804 
L 199.082187 175.062804 
L 199.177262 166.941659 
L 199.407404 166.941659 
L 199.449791 142.578225 
L 199.569876 142.578225 
L 199.652093 134.45708 
L 199.668433 142.578225 
L 199.695139 142.578225 
L 199.813058 134.45708 
L 199.82742 134.45708 
L 199.939 150.699369 
L 200.094023 166.941659 
L 200.195593 175.062804 
L 200.264351 175.062804 
L 200.283965 166.941659 
L 200.383366 175.062804 
L 200.626983 175.062804 
L 200.629152 183.183949 
L 200.784026 175.062804 
L 200.95163 183.183949 
L 201.107088 191.305093 
L 201.330464 175.062804 
L 201.63054 166.941659 
L 201.788763 166.941659 
L 201.844347 158.820514 
L 201.888469 166.941659 
L 202.086026 166.941659 
L 202.161706 175.062804 
L 202.196458 166.941659 
L 202.244165 166.941659 
L 202.280646 175.062804 
L 202.443705 158.820514 
L 202.470137 166.941659 
L 202.568709 166.941659 
L 202.696285 175.062804 
L 202.924199 175.062804 
L 202.984246 166.941659 
L 203.13931 183.183949 
L 203.159566 175.062804 
L 203.224285 175.062804 
L 203.322412 166.941659 
L 203.452615 175.062804 
L 203.887663 175.062804 
L 203.979408 191.305093 
L 204.203494 191.305093 
L 204.304027 183.183949 
L 204.442989 166.941659 
L 204.484854 175.062804 
L 204.531299 183.183949 
L 204.545711 166.941659 
L 204.647699 166.941659 
L 204.871989 175.062804 
L 204.880128 183.183949 
L 205.126221 183.183949 
L 205.304416 175.062804 
L 205.483893 183.183949 
L 205.640181 183.183949 
L 205.746847 191.305093 
L 206.500085 191.305093 
L 206.572458 183.183949 
L 206.781585 175.062804 
L 206.992224 158.820514 
L 207.068458 166.941659 
L 207.094317 158.820514 
L 207.278284 158.820514 
L 207.307092 166.941659 
L 207.614357 166.941659 
L 207.75543 175.062804 
L 208.022631 183.183949 
L 208.214387 175.062804 
L 208.280619 166.941659 
L 208.559877 158.820514 
L 208.726903 158.820514 
L 208.737712 166.941659 
L 208.961096 166.941659 
L 209.089443 175.062804 
L 209.377951 175.062804 
L 209.609912 183.183949 
L 210.174992 191.305093 
L 213.474686 191.305093 
L 213.814257 183.183949 
L 214.179424 191.305093 
L 215.078787 191.305093 
L 215.194796 183.183949 
L 215.368228 191.305093 
L 215.608038 183.183949 
L 215.772078 183.183949 
L 215.797733 191.305093 
L 215.98438 191.305093 
L 216.029729 183.183949 
L 216.313464 183.183949 
L 216.342884 191.305093 
L 216.849096 183.183949 
L 217.922437 183.183949 
L 217.975717 191.305093 
L 217.995651 183.183949 
L 218.051787 183.183949 
L 218.122008 175.062804 
L 218.152855 183.183949 
L 221.413021 183.183949 
L 221.787531 191.305093 
L 223.815862 191.305093 
L 224.004463 183.183949 
L 224.128396 191.305093 
L 234.62505 191.305093 
L 234.775295 183.183949 
L 235.0092 191.305093 
L 250.376224 191.305093 
L 250.70412 183.183949 
L 250.840768 183.183949 
L 250.879821 191.305093 
L 251.06177 183.183949 
L 251.601367 183.183949 
L 251.773376 175.062804 
L 251.854994 183.183949 
L 252.163797 183.183949 
L 252.337637 191.305093 
L 254.458346 191.305093 
L 254.770075 183.183949 
L 255.360204 183.183949 
L 255.711982 191.305093 
L 267.480328 191.305093 
L 267.660758 183.183949 
L 267.74624 166.941659 
L 267.919174 166.941659 
L 268.046631 175.062804 
L 268.970255 191.305093 
L 270.225216 191.305093 
L 270.533193 183.183949 
L 270.689033 183.183949 
L 270.77441 191.305093 
L 284.361783 191.305093 
L 284.602982 166.941659 
L 284.827247 191.305093 
L 284.963502 175.062804 
L 284.997207 183.183949 
L 285.085456 183.183949 
L 285.15617 175.062804 
L 285.356661 183.183949 
L 285.584408 166.941659 
L 285.68562 183.183949 
L 285.790758 175.062804 
L 286.053279 175.062804 
L 286.071465 166.941659 
L 286.162734 175.062804 
L 286.409425 166.941659 
L 286.542346 166.941659 
L 286.736626 183.183949 
L 286.882866 175.062804 
L 286.990883 166.941659 
L 287.116291 183.183949 
L 287.279193 175.062804 
L 287.37161 183.183949 
L 287.542385 183.183949 
L 287.724335 175.062804 
L 287.784546 175.062804 
L 288.118179 183.183949 
L 288.219797 175.062804 
L 288.371755 191.305093 
L 288.686406 191.305093 
L 288.753759 183.183949 
L 288.996432 175.062804 
L 289.046627 183.183949 
L 289.400991 175.062804 
L 289.443556 166.941659 
L 289.468567 175.062804 
L 289.595236 175.062804 
L 289.68106 166.941659 
L 289.902275 175.062804 
L 290.042618 175.062804 
L 290.140908 166.941659 
L 290.243897 175.062804 
L 290.355492 166.941659 
L 290.449104 158.820514 
L 290.454984 166.941659 
L 290.57339 166.941659 
L 290.634804 158.820514 
L 290.76188 166.941659 
L 290.976285 175.062804 
L 291.047215 166.941659 
L 291.263009 166.941659 
L 291.379104 175.062804 
L 291.412341 175.062804 
L 291.495069 191.305093 
L 291.560127 183.183949 
L 291.778844 183.183949 
L 291.819961 191.305093 
L 291.832332 183.183949 
L 291.964012 183.183949 
L 292.069539 175.062804 
L 292.31654 191.305093 
L 292.546335 183.183949 
L 292.549973 175.062804 
L 292.820971 166.941659 
L 293.036296 183.183949 
L 293.237844 166.941659 
L 293.334195 166.941659 
L 293.38182 158.820514 
L 293.629684 183.183949 
L 293.766064 183.183949 
L 293.977317 175.062804 
L 293.997962 166.941659 
L 294.000636 175.062804 
L 294.155827 175.062804 
L 294.288831 166.941659 
L 294.403522 175.062804 
L 294.653646 183.183949 
L 295.725772 183.183949 
L 295.992252 191.305093 
L 296.342595 191.305093 
L 297.426314 183.183949 
L 298.055324 191.305093 
L 298.477587 183.183949 
L 298.564825 191.305093 
L 298.627441 183.183949 
L 298.904336 183.183949 
L 299.006609 175.062804 
L 299.044149 183.183949 
L 299.250769 175.062804 
L 299.464446 175.062804 
L 299.515562 183.183949 
L 299.686772 166.941659 
L 299.736132 175.062804 
L 299.847417 175.062804 
L 300.039964 166.941659 
L 300.063995 175.062804 
L 300.284662 166.941659 
L 300.303896 175.062804 
L 300.484703 175.062804 
L 300.608207 166.941659 
L 300.695243 175.062804 
L 300.940615 166.941659 
L 301.044014 166.941659 
L 301.148626 175.062804 
L 301.218809 175.062804 
L 301.281351 183.183949 
L 301.4133 183.183949 
L 301.641737 175.062804 
L 301.802024 183.183949 
L 301.945256 175.062804 
L 301.989185 183.183949 
L 302.227159 175.062804 
L 302.527478 183.183949 
L 302.679537 175.062804 
L 302.903709 183.183949 
L 303.125529 191.305093 
L 311.602192 191.305093 
L 311.647134 183.183949 
L 311.873841 175.062804 
L 312.045956 183.183949 
L 312.422447 183.183949 
L 312.422447 183.183949 
" clip-path="url(#pc4ad5d664a)" style="fill: none; stroke: #000000; stroke-width: 1.5; stroke-linecap: square"/>
   </g>
   <g id="patch_8">
    <path d="M 44.103906 195.365666 
L 44.103906 106.033073 
" style="fill: none; stroke: #000000; stroke-width: 0.8; stroke-linejoin: miter; stroke-linecap: square"/>
   </g>
   <g id="patch_9">
    <path d="M 325.19952 195.365666 
L 325.19952 106.033073 
" style="fill: none; stroke: #000000; stroke-width: 0.8; stroke-linejoin: miter; stroke-linecap: square"/>
   </g>
   <g id="patch_10">
    <path d="M 44.103906 195.365666 
L 325.19952 195.365666 
" style="fill: none; stroke: #000000; stroke-width: 0.8; stroke-linejoin: miter; stroke-linecap: square"/>
   </g>
   <g id="patch_11">
    <path d="M 44.103906 106.033073 
L 325.19952 106.033073 
" style="fill: none; stroke: #000000; stroke-width: 0.8; stroke-linejoin: miter; stroke-linecap: square"/>
   </g>
  </g>
  <g id="axes_3">
   <g id="patch_12">
    <path d="M 44.103906 294.198739 
L 325.19952 294.198739 
L 325.19952 204.866146 
L 44.103906 204.866146 
z
" style="fill: #ffffff"/>
   </g>
   <g id="matplotlib.axis_5">
    <g id="xtick_19">
     <g id="line2d_27">
      <g>
       <use xlink:href="#md306f2361e" x="56.88098" y="294.198739" style="stroke: #000000; stroke-width: 0.8"/>
      </g>
     </g>
     <g id="text_9">
      <!-- 0 -->
      <g transform="translate(53.69973 308.796395) scale(0.1 -0.1)">
       <use xlink:href="#DejaVuSans-13"/>
      </g>
     </g>
    </g>
    <g id="xtick_20">
     <g id="line2d_28">
      <g>
       <use xlink:href="#md306f2361e" x="88.820537" y="294.198739" style="stroke: #000000; stroke-width: 0.8"/>
      </g>
     </g>
     <g id="text_10">
      <!-- 100 -->
      <g transform="translate(79.276787 308.796395) scale(0.1 -0.1)">
       <use xlink:href="#DejaVuSans-14"/>
       <use xlink:href="#DejaVuSans-13" transform="translate(63.625 0)"/>
       <use xlink:href="#DejaVuSans-13" transform="translate(127.25 0)"/>
      </g>
     </g>
    </g>
    <g id="xtick_21">
     <g id="line2d_29">
      <g>
       <use xlink:href="#md306f2361e" x="120.760094" y="294.198739" style="stroke: #000000; stroke-width: 0.8"/>
      </g>
     </g>
     <g id="text_11">
      <!-- 200 -->
      <g transform="translate(111.216344 308.796395) scale(0.1 -0.1)">
       <defs>
        <path id="DejaVuSans-15" d="M 1228 531 
L 3431 531 
L 3431 0 
L 469 0 
L 469 531 
Q 828 903 1448 1529 
Q 2069 2156 2228 2338 
Q 2531 2678 2651 2914 
Q 2772 3150 2772 3378 
Q 2772 3750 2511 3984 
Q 2250 4219 1831 4219 
Q 1534 4219 1204 4116 
Q 875 4013 500 3803 
L 500 4441 
Q 881 4594 1212 4672 
Q 1544 4750 1819 4750 
Q 2544 4750 2975 4387 
Q 3406 4025 3406 3419 
Q 3406 3131 3298 2873 
Q 3191 2616 2906 2266 
Q 2828 2175 2409 1742 
Q 1991 1309 1228 531 
z
" transform="scale(0.015625)"/>
       </defs>
       <use xlink:href="#DejaVuSans-15"/>
       <use xlink:href="#DejaVuSans-13" transform="translate(63.625 0)"/>
       <use xlink:href="#DejaVuSans-13" transform="translate(127.25 0)"/>
      </g>
     </g>
    </g>
    <g id="xtick_22">
     <g id="line2d_30">
      <g>
       <use xlink:href="#md306f2361e" x="152.699651" y="294.198739" style="stroke: #000000; stroke-width: 0.8"/>
      </g>
     </g>
     <g id="text_12">
      <!-- 300 -->
      <g transform="translate(143.155901 308.796395) scale(0.1 -0.1)">
       <defs>
        <path id="DejaVuSans-16" d="M 2597 2516 
Q 3050 2419 3304 2112 
Q 3559 1806 3559 1356 
Q 3559 666 3084 287 
Q 2609 -91 1734 -91 
Q 1441 -91 1130 -33 
Q 819 25 488 141 
L 488 750 
Q 750 597 1062 519 
Q 1375 441 1716 441 
Q 2309 441 2620 675 
Q 2931 909 2931 1356 
Q 2931 1769 2642 2001 
Q 2353 2234 1838 2234 
L 1294 2234 
L 1294 2753 
L 1863 2753 
Q 2328 2753 2575 2939 
Q 2822 3125 2822 3475 
Q 2822 3834 2567 4026 
Q 2313 4219 1838 4219 
Q 1578 4219 1281 4162 
Q 984 4106 628 3988 
L 628 4550 
Q 988 4650 1302 4700 
Q 1616 4750 1894 4750 
Q 2613 4750 3031 4423 
Q 3450 4097 3450 3541 
Q 3450 3153 3228 2886 
Q 3006 2619 2597 2516 
z
" transform="scale(0.015625)"/>
       </defs>
       <use xlink:href="#DejaVuSans-16"/>
       <use xlink:href="#DejaVuSans-13" transform="translate(63.625 0)"/>
       <use xlink:href="#DejaVuSans-13" transform="translate(127.25 0)"/>
      </g>
     </g>
    </g>
    <g id="xtick_23">
     <g id="line2d_31">
      <g>
       <use xlink:href="#md306f2361e" x="184.639208" y="294.198739" style="stroke: #000000; stroke-width: 0.8"/>
      </g>
     </g>
     <g id="text_13">
      <!-- 400 -->
      <g transform="translate(175.095458 308.796395) scale(0.1 -0.1)">
       <defs>
        <path id="DejaVuSans-17" d="M 2419 4116 
L 825 1625 
L 2419 1625 
L 2419 4116 
z
M 2253 4666 
L 3047 4666 
L 3047 1625 
L 3713 1625 
L 3713 1100 
L 3047 1100 
L 3047 0 
L 2419 0 
L 2419 1100 
L 313 1100 
L 313 1709 
L 2253 4666 
z
" transform="scale(0.015625)"/>
       </defs>
       <use xlink:href="#DejaVuSans-17"/>
       <use xlink:href="#DejaVuSans-13" transform="translate(63.625 0)"/>
       <use xlink:href="#DejaVuSans-13" transform="translate(127.25 0)"/>
      </g>
     </g>
    </g>
    <g id="xtick_24">
     <g id="line2d_32">
      <g>
       <use xlink:href="#md306f2361e" x="216.578765" y="294.198739" style="stroke: #000000; stroke-width: 0.8"/>
      </g>
     </g>
     <g id="text_14">
      <!-- 500 -->
      <g transform="translate(207.035015 308.796395) scale(0.1 -0.1)">
       <use xlink:href="#DejaVuSans-18"/>
       <use xlink:href="#DejaVuSans-13" transform="translate(63.625 0)"/>
       <use xlink:href="#DejaVuSans-13" transform="translate(127.25 0)"/>
      </g>
     </g>
    </g>
    <g id="xtick_25">
     <g id="line2d_33">
      <g>
       <use xlink:href="#md306f2361e" x="248.518322" y="294.198739" style="stroke: #000000; stroke-width: 0.8"/>
      </g>
     </g>
     <g id="text_15">
      <!-- 600 -->
      <g transform="translate(238.974572 308.796395) scale(0.1 -0.1)">
       <defs>
        <path id="DejaVuSans-19" d="M 2113 2584 
Q 1688 2584 1439 2293 
Q 1191 2003 1191 1497 
Q 1191 994 1439 701 
Q 1688 409 2113 409 
Q 2538 409 2786 701 
Q 3034 994 3034 1497 
Q 3034 2003 2786 2293 
Q 2538 2584 2113 2584 
z
M 3366 4563 
L 3366 3988 
Q 3128 4100 2886 4159 
Q 2644 4219 2406 4219 
Q 1781 4219 1451 3797 
Q 1122 3375 1075 2522 
Q 1259 2794 1537 2939 
Q 1816 3084 2150 3084 
Q 2853 3084 3261 2657 
Q 3669 2231 3669 1497 
Q 3669 778 3244 343 
Q 2819 -91 2113 -91 
Q 1303 -91 875 529 
Q 447 1150 447 2328 
Q 447 3434 972 4092 
Q 1497 4750 2381 4750 
Q 2619 4750 2861 4703 
Q 3103 4656 3366 4563 
z
" transform="scale(0.015625)"/>
       </defs>
       <use xlink:href="#DejaVuSans-19"/>
       <use xlink:href="#DejaVuSans-13" transform="translate(63.625 0)"/>
       <use xlink:href="#DejaVuSans-13" transform="translate(127.25 0)"/>
      </g>
     </g>
    </g>
    <g id="xtick_26">
     <g id="line2d_34">
      <g>
       <use xlink:href="#md306f2361e" x="280.457879" y="294.198739" style="stroke: #000000; stroke-width: 0.8"/>
      </g>
     </g>
     <g id="text_16">
      <!-- 700 -->
      <g transform="translate(270.914129 308.796395) scale(0.1 -0.1)">
       <defs>
        <path id="DejaVuSans-1a" d="M 525 4666 
L 3525 4666 
L 3525 4397 
L 1831 0 
L 1172 0 
L 2766 4134 
L 525 4134 
L 525 4666 
z
" transform="scale(0.015625)"/>
       </defs>
       <use xlink:href="#DejaVuSans-1a"/>
       <use xlink:href="#DejaVuSans-13" transform="translate(63.625 0)"/>
       <use xlink:href="#DejaVuSans-13" transform="translate(127.25 0)"/>
      </g>
     </g>
    </g>
    <g id="xtick_27">
     <g id="line2d_35">
      <g>
       <use xlink:href="#md306f2361e" x="312.397436" y="294.198739" style="stroke: #000000; stroke-width: 0.8"/>
      </g>
     </g>
     <g id="text_17">
      <!-- 800 -->
      <g transform="translate(302.853686 308.796395) scale(0.1 -0.1)">
       <defs>
        <path id="DejaVuSans-1b" d="M 2034 2216 
Q 1584 2216 1326 1975 
Q 1069 1734 1069 1313 
Q 1069 891 1326 650 
Q 1584 409 2034 409 
Q 2484 409 2743 651 
Q 3003 894 3003 1313 
Q 3003 1734 2745 1975 
Q 2488 2216 2034 2216 
z
M 1403 2484 
Q 997 2584 770 2862 
Q 544 3141 544 3541 
Q 544 4100 942 4425 
Q 1341 4750 2034 4750 
Q 2731 4750 3128 4425 
Q 3525 4100 3525 3541 
Q 3525 3141 3298 2862 
Q 3072 2584 2669 2484 
Q 3125 2378 3379 2068 
Q 3634 1759 3634 1313 
Q 3634 634 3220 271 
Q 2806 -91 2034 -91 
Q 1263 -91 848 271 
Q 434 634 434 1313 
Q 434 1759 690 2068 
Q 947 2378 1403 2484 
z
M 1172 3481 
Q 1172 3119 1398 2916 
Q 1625 2713 2034 2713 
Q 2441 2713 2670 2916 
Q 2900 3119 2900 3481 
Q 2900 3844 2670 4047 
Q 2441 4250 2034 4250 
Q 1625 4250 1398 4047 
Q 1172 3844 1172 3481 
z
" transform="scale(0.015625)"/>
       </defs>
       <use xlink:href="#DejaVuSans-1b"/>
       <use xlink:href="#DejaVuSans-13" transform="translate(63.625 0)"/>
       <use xlink:href="#DejaVuSans-13" transform="translate(127.25 0)"/>
      </g>
     </g>
    </g>
    <g id="text_18">
     <!-- Time -->
     <g transform="translate(172.415776 322.797176) scale(0.1 -0.1)">
      <defs>
       <path id="DejaVuSans-37" d="M -19 4666 
L 3928 4666 
L 3928 4134 
L 2272 4134 
L 2272 0 
L 1638 0 
L 1638 4134 
L -19 4134 
L -19 4666 
z
" transform="scale(0.015625)"/>
       <path id="DejaVuSans-4c" d="M 603 3500 
L 1178 3500 
L 1178 0 
L 603 0 
L 603 3500 
z
M 603 4863 
L 1178 4863 
L 1178 4134 
L 603 4134 
L 603 4863 
z
" transform="scale(0.015625)"/>
       <path id="DejaVuSans-50" d="M 3328 2828 
Q 3544 3216 3844 3400 
Q 4144 3584 4550 3584 
Q 5097 3584 5394 3201 
Q 5691 2819 5691 2113 
L 5691 0 
L 5113 0 
L 5113 2094 
Q 5113 2597 4934 2840 
Q 4756 3084 4391 3084 
Q 3944 3084 3684 2787 
Q 3425 2491 3425 1978 
L 3425 0 
L 2847 0 
L 2847 2094 
Q 2847 2600 2669 2842 
Q 2491 3084 2119 3084 
Q 1678 3084 1418 2786 
Q 1159 2488 1159 1978 
L 1159 0 
L 581 0 
L 581 3500 
L 1159 3500 
L 1159 2956 
Q 1356 3278 1631 3431 
Q 1906 3584 2284 3584 
Q 2666 3584 2933 3390 
Q 3200 3197 3328 2828 
z
" transform="scale(0.015625)"/>
      </defs>
      <use xlink:href="#DejaVuSans-37"/>
      <use xlink:href="#DejaVuSans-4c" transform="translate(58 0)"/>
      <use xlink:href="#DejaVuSans-50" transform="translate(85.78125 0)"/>
      <use xlink:href="#DejaVuSans-48" transform="translate(183.1875 0)"/>
     </g>
    </g>
   </g>
   <g id="matplotlib.axis_6">
    <g id="ytick_7">
     <g id="line2d_36">
      <g>
       <use xlink:href="#m2134979bf7" x="44.103906" y="290.138166" style="stroke: #000000; stroke-width: 0.8"/>
      </g>
     </g>
     <g id="text_19">
      <!-- 0.0 -->
      <g transform="translate(21.200781 293.936994) scale(0.1 -0.1)">
       <defs>
        <path id="DejaVuSans-11" d="M 684 794 
L 1344 794 
L 1344 0 
L 684 0 
L 684 794 
z
" transform="scale(0.015625)"/>
       </defs>
       <use xlink:href="#DejaVuSans-13"/>
       <use xlink:href="#DejaVuSans-11" transform="translate(63.625 0)"/>
       <use xlink:href="#DejaVuSans-13" transform="translate(95.40625 0)"/>
      </g>
     </g>
    </g>
    <g id="ytick_8">
     <g id="line2d_37">
      <g>
       <use xlink:href="#m2134979bf7" x="44.103906" y="249.532442" style="stroke: #000000; stroke-width: 0.8"/>
      </g>
     </g>
     <g id="text_20">
      <!-- 0.5 -->
      <g transform="translate(21.200781 253.33127) scale(0.1 -0.1)">
       <use xlink:href="#DejaVuSans-13"/>
       <use xlink:href="#DejaVuSans-11" transform="translate(63.625 0)"/>
       <use xlink:href="#DejaVuSans-18" transform="translate(95.40625 0)"/>
      </g>
     </g>
    </g>
    <g id="ytick_9">
     <g id="line2d_38">
      <g>
       <use xlink:href="#m2134979bf7" x="44.103906" y="208.926718" style="stroke: #000000; stroke-width: 0.8"/>
      </g>
     </g>
     <g id="text_21">
      <!-- 1.0 -->
      <g transform="translate(21.200781 212.725546) scale(0.1 -0.1)">
       <use xlink:href="#DejaVuSans-14"/>
       <use xlink:href="#DejaVuSans-11" transform="translate(63.625 0)"/>
       <use xlink:href="#DejaVuSans-13" transform="translate(95.40625 0)"/>
      </g>
     </g>
    </g>
    <g id="text_22">
     <!-- Free lac operon -->
     <g transform="translate(14.798438 288.006661) rotate(-90) scale(0.1 -0.1)">
      <defs>
       <path id="DejaVuSans-29" d="M 628 4666 
L 3309 4666 
L 3309 4134 
L 1259 4134 
L 1259 2759 
L 3109 2759 
L 3109 2228 
L 1259 2228 
L 1259 0 
L 628 0 
L 628 4666 
z
" transform="scale(0.015625)"/>
       <path id="DejaVuSans-53" d="M 1159 525 
L 1159 -1331 
L 581 -1331 
L 581 3500 
L 1159 3500 
L 1159 2969 
Q 1341 3281 1617 3432 
Q 1894 3584 2278 3584 
Q 2916 3584 3314 3078 
Q 3713 2572 3713 1747 
Q 3713 922 3314 415 
Q 2916 -91 2278 -91 
Q 1894 -91 1617 61 
Q 1341 213 1159 525 
z
M 3116 1747 
Q 3116 2381 2855 2742 
Q 2594 3103 2138 3103 
Q 1681 3103 1420 2742 
Q 1159 2381 1159 1747 
Q 1159 1113 1420 752 
Q 1681 391 2138 391 
Q 2594 391 2855 752 
Q 3116 1113 3116 1747 
z
" transform="scale(0.015625)"/>
       <path id="DejaVuSans-51" d="M 3513 2113 
L 3513 0 
L 2938 0 
L 2938 2094 
Q 2938 2591 2744 2837 
Q 2550 3084 2163 3084 
Q 1697 3084 1428 2787 
Q 1159 2491 1159 1978 
L 1159 0 
L 581 0 
L 581 3500 
L 1159 3500 
L 1159 2956 
Q 1366 3272 1645 3428 
Q 1925 3584 2291 3584 
Q 2894 3584 3203 3211 
Q 3513 2838 3513 2113 
z
" transform="scale(0.015625)"/>
      </defs>
      <use xlink:href="#DejaVuSans-29"/>
      <use xlink:href="#DejaVuSans-55" transform="translate(50.234375 0)"/>
      <use xlink:href="#DejaVuSans-48" transform="translate(89.140625 0)"/>
      <use xlink:href="#DejaVuSans-48" transform="translate(150.671875 0)"/>
      <use xlink:href="#DejaVuSans-3" transform="translate(212.203125 0)"/>
      <use xlink:href="#DejaVuSans-4f" transform="translate(243.984375 0)"/>
      <use xlink:href="#DejaVuSans-44" transform="translate(271.765625 0)"/>
      <use xlink:href="#DejaVuSans-46" transform="translate(333.046875 0)"/>
      <use xlink:href="#DejaVuSans-3" transform="translate(388.03125 0)"/>
      <use xlink:href="#DejaVuSans-52" transform="translate(419.8125 0)"/>
      <use xlink:href="#DejaVuSans-53" transform="translate(481 0)"/>
      <use xlink:href="#DejaVuSans-48" transform="translate(544.484375 0)"/>
      <use xlink:href="#DejaVuSans-55" transform="translate(606.015625 0)"/>
      <use xlink:href="#DejaVuSans-52" transform="translate(644.921875 0)"/>
      <use xlink:href="#DejaVuSans-51" transform="translate(706.109375 0)"/>
     </g>
    </g>
   </g>
   <g id="line2d_39">
    <path d="M 56.88098 208.926718 
L 56.96267 290.138166 
L 57.13132 290.138166 
L 57.301265 208.926718 
L 57.419686 208.926718 
L 57.522038 290.138166 
L 58.740935 290.138166 
L 59.732911 208.926718 
L 59.919655 208.926718 
L 59.942449 290.138166 
L 62.369113 290.138166 
L 64.969223 208.926718 
L 65.264755 208.926718 
L 65.402495 290.138166 
L 65.528639 290.138166 
L 72.205421 208.926718 
L 72.375576 290.138166 
L 80.232055 208.926718 
L 80.281197 290.138166 
L 82.913319 208.926718 
L 83.053611 208.926718 
L 83.10789 290.138166 
L 84.85197 290.138166 
L 84.917544 208.926718 
L 85.795719 208.926718 
L 85.986105 290.138166 
L 87.021168 290.138166 
L 90.020201 208.926718 
L 90.561367 208.926718 
L 90.590709 290.138166 
L 90.949385 290.138166 
L 91.832671 208.926718 
L 91.891243 290.138166 
L 92.235823 290.138166 
L 109.347331 208.926718 
L 109.361062 290.138166 
L 109.620081 290.138166 
L 109.896801 208.926718 
L 110.184771 290.138166 
L 110.313114 208.926718 
L 110.721737 208.926718 
L 110.926757 290.138166 
L 111.220024 290.138166 
L 115.391063 208.926718 
L 116.053098 290.138166 
L 117.698637 208.926718 
L 118.01454 290.138166 
L 118.688397 208.926718 
L 118.775908 290.138166 
L 119.787419 208.926718 
L 119.872509 290.138166 
L 123.823736 290.138166 
L 129.855402 208.926718 
L 129.961574 290.138166 
L 131.707557 208.926718 
L 132.159309 208.926718 
L 132.180795 290.138166 
L 134.025005 290.138166 
L 136.626172 208.926718 
L 136.639507 290.138166 
L 139.526699 208.926718 
L 139.569522 290.138166 
L 146.627813 208.926718 
L 147.574147 208.926718 
L 147.642605 290.138166 
L 148.260343 290.138166 
L 148.505897 208.926718 
L 148.821445 208.926718 
L 148.934431 290.138166 
L 150.007316 290.138166 
L 150.519833 208.926718 
L 150.6208 290.138166 
L 151.744278 290.138166 
L 151.755622 208.926718 
L 151.917502 290.138166 
L 156.235153 208.926718 
L 156.324275 290.138166 
L 156.574123 208.926718 
L 203.864842 208.926718 
L 203.979408 290.138166 
L 204.132592 290.138166 
L 204.304027 208.926718 
L 208.940044 208.926718 
L 208.961096 290.138166 
L 212.08965 290.138166 
L 213.474686 208.926718 
L 213.742809 208.926718 
L 213.814257 290.138166 
L 214.179424 290.138166 
L 214.646665 208.926718 
L 214.804711 290.138166 
L 215.078787 208.926718 
L 216.849096 208.926718 
L 217.272015 290.138166 
L 217.809214 290.138166 
L 217.995651 208.926718 
L 218.152855 208.926718 
L 218.329837 290.138166 
L 221.787531 290.138166 
L 223.261416 208.926718 
L 223.359277 290.138166 
L 223.815862 208.926718 
L 224.128396 208.926718 
L 224.298596 290.138166 
L 224.351897 208.926718 
L 224.403609 290.138166 
L 225.675033 290.138166 
L 234.62505 208.926718 
L 234.770675 208.926718 
L 234.775295 290.138166 
L 235.276442 290.138166 
L 246.275875 208.926718 
L 246.414598 290.138166 
L 248.652503 208.926718 
L 248.98833 290.138166 
L 250.207543 208.926718 
L 250.231963 290.138166 
L 250.376224 208.926718 
L 251.727622 208.926718 
L 251.732078 290.138166 
L 251.797934 208.926718 
L 251.854994 208.926718 
L 252.163797 290.138166 
L 252.337637 290.138166 
L 254.458346 208.926718 
L 254.756942 208.926718 
L 254.770075 290.138166 
L 255.711982 290.138166 
L 267.089906 208.926718 
L 267.224979 290.138166 
L 267.480328 208.926718 
L 267.79714 208.926718 
L 267.919174 290.138166 
L 268.970255 290.138166 
L 270.225216 208.926718 
L 270.436889 208.926718 
L 270.533193 290.138166 
L 270.69771 208.926718 
L 270.77441 290.138166 
L 271.400515 208.926718 
L 271.720917 290.138166 
L 277.830579 208.926718 
L 278.072014 290.138166 
L 282.532633 208.926718 
L 282.553157 290.138166 
L 284.435112 208.926718 
L 294.209225 208.926718 
L 294.288831 290.138166 
L 295.992252 290.138166 
L 296.205042 208.926718 
L 302.818327 208.926718 
L 302.903709 290.138166 
L 303.638787 290.138166 
L 303.812294 208.926718 
L 303.845826 290.138166 
L 311.101566 208.926718 
L 311.541009 290.138166 
L 311.647134 208.926718 
L 312.000114 208.926718 
L 312.045956 290.138166 
L 312.422447 208.926718 
L 312.422447 208.926718 
" clip-path="url(#p540ba44b41)" style="fill: none; stroke: #000000; stroke-width: 1.5; stroke-linecap: square"/>
   </g>
   <g id="patch_13">
    <path d="M 44.103906 294.198739 
L 44.103906 204.866146 
" style="fill: none; stroke: #000000; stroke-width: 0.8; stroke-linejoin: miter; stroke-linecap: square"/>
   </g>
   <g id="patch_14">
    <path d="M 325.19952 294.198739 
L 325.19952 204.866146 
" style="fill: none; stroke: #000000; stroke-width: 0.8; stroke-linejoin: miter; stroke-linecap: square"/>
   </g>
   <g id="patch_15">
    <path d="M 44.103906 294.198739 
L 325.19952 294.198739 
" style="fill: none; stroke: #000000; stroke-width: 0.8; stroke-linejoin: miter; stroke-linecap: square"/>
   </g>
   <g id="patch_16">
    <path d="M 44.103906 204.866146 
L 325.19952 204.866146 
" style="fill: none; stroke: #000000; stroke-width: 0.8; stroke-linejoin: miter; stroke-linecap: square"/>
   </g>
  </g>
 </g>
 <defs>
  <clipPath id="p8a43caef5c">
   <rect x="44.103906" y="7.2" width="281.095614" height="89.332593"/>
  </clipPath>
  <clipPath id="pc4ad5d664a">
   <rect x="44.103906" y="106.033073" width="281.095614" height="89.332593"/>
  </clipPath>
  <clipPath id="p540ba44b41">
   <rect x="44.103906" y="204.866146" width="281.095614" height="89.332593"/>
  </clipPath>
 </defs>
</svg>
