<?xml version="1.0" encoding="utf-8" standalone="no"?>
<!DOCTYPE svg PUBLIC "-//W3C//DTD SVG 1.1//EN"
  "http://www.w3.org/Graphics/SVG/1.1/DTD/svg11.dtd">
<svg xmlns:xlink="http://www.w3.org/1999/xlink" width="332.39952pt" height="332.39952pt" viewBox="0 0 332.39952 332.39952" xmlns="http://www.w3.org/2000/svg" version="1.1">
 <metadata>
  <rdf:RDF xmlns:dc="http://purl.org/dc/elements/1.1/" xmlns:cc="http://creativecommons.org/ns#" xmlns:rdf="http://www.w3.org/1999/02/22-rdf-syntax-ns#">
   <cc:Work>
    <dc:type rdf:resource="http://purl.org/dc/dcmitype/StillImage"/>
    <dc:date>2026-07-10T15:23:27.026475</dc:date>
    <dc:format>image/svg+xml</dc:format>
    <dc:creator>
     <cc:Agent>
      <dc:title>Matplotlib v3.11.0, https://matplotlib.org/</dc:title>
     </cc:Agent>
    </dc:creator>
   </cc:Work>
  </rdf:RDF>
 </metadata>
 <defs>
  <style type="text/css">*{stroke-linejoin: round; stroke-linecap: butt}</style>
 </defs>
 <g id="figure_1">
  <g id="patch_1">
   <path d="M 0 332.39952 
L 332.39952 332.39952 
L 332.39952 0 
L 0 0 
z
" style="fill: #ffffff"/>
  </g>
  <g id="axes_1">
   <g id="patch_2">
    <path d="M 44.103906 96.532593 
L 325.19952 96.532593 
L 325.19952 7.2 
L 44.103906 7.2 
z
" style="fill: #ffffff"/>
   </g>
   <g id="matplotlib.axis_1">
    <g id="xtick_1">
     <g id="line2d_1">
      <defs>
       <path id="ma7bf406b13" d="M 0 0 
L 0 3.5 
" style="stroke: #000000; stroke-width: 0.8"/>
      </defs>
      <g>
       <use xlink:href="#ma7bf406b13" x="56.88098" y="96.532593" style="stroke: #000000; stroke-width: 0.8"/>
      </g>
     </g>
    </g>
    <g id="xtick_2">
     <g id="line2d_2">
      <g>
       <use xlink:href="#ma7bf406b13" x="88.793235" y="96.532593" style="stroke: #000000; stroke-width: 0.8"/>
      </g>
     </g>
    </g>
    <g id="xtick_3">
     <g id="line2d_3">
      <g>
       <use xlink:href="#ma7bf406b13" x="120.70549" y="96.532593" style="stroke: #000000; stroke-width: 0.8"/>
      </g>
     </g>
    </g>
    <g id="xtick_4">
     <g id="line2d_4">
      <g>
       <use xlink:href="#ma7bf406b13" x="152.617745" y="96.532593" style="stroke: #000000; stroke-width: 0.8"/>
      </g>
     </g>
    </g>
    <g id="xtick_5">
     <g id="line2d_5">
      <g>
       <use xlink:href="#ma7bf406b13" x="184.53" y="96.532593" style="stroke: #000000; stroke-width: 0.8"/>
      </g>
     </g>
    </g>
    <g id="xtick_6">
     <g id="line2d_6">
      <g>
       <use xlink:href="#ma7bf406b13" x="216.442255" y="96.532593" style="stroke: #000000; stroke-width: 0.8"/>
      </g>
     </g>
    </g>
    <g id="xtick_7">
     <g id="line2d_7">
      <g>
       <use xlink:href="#ma7bf406b13" x="248.35451" y="96.532593" style="stroke: #000000; stroke-width: 0.8"/>
      </g>
     </g>
    </g>
    <g id="xtick_8">
     <g id="line2d_8">
      <g>
       <use xlink:href="#ma7bf406b13" x="280.266766" y="96.532593" style="stroke: #000000; stroke-width: 0.8"/>
      </g>
     </g>
    </g>
    <g id="xtick_9">
     <g id="line2d_9">
      <g>
       <use xlink:href="#ma7bf406b13" x="312.179021" y="96.532593" style="stroke: #000000; stroke-width: 0.8"/>
      </g>
     </g>
    </g>
   </g>
   <g id="matplotlib.axis_2">
    <g id="ytick_1">
     <g id="line2d_10">
      <defs>
       <path id="m14aab64116" d="M 0 0 
L -3.5 0 
" style="stroke: #000000; stroke-width: 0.8"/>
      </defs>
      <g>
       <use xlink:href="#m14aab64116" x="44.103906" y="92.472021" style="stroke: #000000; stroke-width: 0.8"/>
      </g>
     </g>
     <g id="text_1">
      <!-- 0 -->
      <g transform="translate(30.741406 96.270849) scale(0.1 -0.1)">
       <defs>
        <path id="DejaVuSans-13" d="M 2034 4250 
Q 1547 4250 1301 3770 
Q 1056 3291 1056 2328 
Q 1056 1369 1301 889 
Q 1547 409 2034 409 
Q 2525 409 2770 889 
Q 3016 1369 3016 2328 
Q 3016 3291 2770 3770 
Q 2525 4250 2034 4250 
z
M 2034 4750 
Q 2819 4750 3233 4129 
Q 3647 3509 3647 2328 
Q 3647 1150 3233 529 
Q 2819 -91 2034 -91 
Q 1250 -91 836 529 
Q 422 1150 422 2328 
Q 422 3509 836 4129 
Q 1250 4750 2034 4750 
z
" transform="scale(0.015625)"/>
       </defs>
       <use xlink:href="#DejaVuSans-13"/>
      </g>
     </g>
    </g>
    <g id="ytick_2">
     <g id="line2d_11">
      <g>
       <use xlink:href="#m14aab64116" x="44.103906" y="51.866296" style="stroke: #000000; stroke-width: 0.8"/>
      </g>
     </g>
     <g id="text_2">
      <!-- 5 -->
      <g transform="translate(30.741406 55.665125) scale(0.1 -0.1)">
       <defs>
        <path id="DejaVuSans-18" d="M 691 4666 
L 3169 4666 
L 3169 4134 
L 1269 4134 
L 1269 2991 
Q 1406 3038 1543 3061 
Q 1681 3084 1819 3084 
Q 2600 3084 3056 2656 
Q 3513 2228 3513 1497 
Q 3513 744 3044 326 
Q 2575 -91 1722 -91 
Q 1428 -91 1123 -41 
Q 819 9 494 109 
L 494 744 
Q 775 591 1075 516 
Q 1375 441 1709 441 
Q 2250 441 2565 725 
Q 2881 1009 2881 1497 
Q 2881 1984 2565 2268 
Q 2250 2553 1709 2553 
Q 1456 2553 1204 2497 
Q 953 2441 691 2322 
L 691 4666 
z
" transform="scale(0.015625)"/>
       </defs>
       <use xlink:href="#DejaVuSans-18"/>
      </g>
     </g>
    </g>
    <g id="ytick_3">
     <g id="line2d_12">
      <g>
       <use xlink:href="#m14aab64116" x="44.103906" y="11.260572" style="stroke: #000000; stroke-width: 0.8"/>
      </g>
     </g>
     <g id="text_3">
      <!-- 10 -->
      <g transform="translate(24.378906 15.059401) scale(0.1 -0.1)">
       <defs>
        <path id="DejaVuSans-14" d="M 794 531 
L 1825 531 
L 1825 4091 
L 703 3866 
L 703 4441 
L 1819 4666 
L 2450 4666 
L 2450 531 
L 3481 531 
L 3481 0 
L 794 0 
L 794 531 
z
" transform="scale(0.015625)"/>
       </defs>
       <use xlink:href="#DejaVuSans-14"/>
       <use xlink:href="#DejaVuSans-13" transform="translate(63.625 0)"/>
      </g>
     </g>
    </g>
    <g id="text_4">
     <!-- Extracellular lactose -->
     <g transform="translate(17.976563 102.838171) rotate(-90) scale(0.1 -0.1)">
      <defs>
       <path id="DejaVuSans-28" d="M 628 4666 
L 3578 4666 
L 3578 4134 
L 1259 4134 
L 1259 2753 
L 3481 2753 
L 3481 2222 
L 1259 2222 
L 1259 531 
L 3634 531 
L 3634 0 
L 628 0 
L 628 4666 
z
" transform="scale(0.015625)"/>
       <path id="DejaVuSans-5b" d="M 3513 3500 
L 2247 1797 
L 3578 0 
L 2900 0 
L 1881 1375 
L 863 0 
L 184 0 
L 1544 1831 
L 300 3500 
L 978 3500 
L 1906 2253 
L 2834 3500 
L 3513 3500 
z
" transform="scale(0.015625)"/>
       <path id="DejaVuSans-57" d="M 1172 4494 
L 1172 3500 
L 2356 3500 
L 2356 3053 
L 1172 3053 
L 1172 1153 
Q 1172 725 1289 603 
Q 1406 481 1766 481 
L 2356 481 
L 2356 0 
L 1766 0 
Q 1100 0 847 248 
Q 594 497 594 1153 
L 594 3053 
L 172 3053 
L 172 3500 
L 594 3500 
L 594 4494 
L 1172 4494 
z
" transform="scale(0.015625)"/>
       <path id="DejaVuSans-55" d="M 2631 2963 
Q 2534 3019 2420 3045 
Q 2306 3072 2169 3072 
Q 1681 3072 1420 2755 
Q 1159 2438 1159 1844 
L 1159 0 
L 581 0 
L 581 3500 
L 1159 3500 
L 1159 2956 
Q 1341 3275 1631 3429 
Q 1922 3584 2338 3584 
Q 2397 3584 2469 3576 
Q 2541 3569 2628 3553 
L 2631 2963 
z
" transform="scale(0.015625)"/>
       <path id="DejaVuSans-44" d="M 2194 1759 
Q 1497 1759 1228 1600 
Q 959 1441 959 1056 
Q 959 750 1161 570 
Q 1363 391 1709 391 
Q 2188 391 2477 730 
Q 2766 1069 2766 1631 
L 2766 1759 
L 2194 1759 
z
M 3341 1997 
L 3341 0 
L 2766 0 
L 2766 531 
Q 2569 213 2275 61 
Q 1981 -91 1556 -91 
Q 1019 -91 701 211 
Q 384 513 384 1019 
Q 384 1609 779 1909 
Q 1175 2209 1959 2209 
L 2766 2209 
L 2766 2266 
Q 2766 2663 2505 2880 
Q 2244 3097 1772 3097 
Q 1472 3097 1187 3025 
Q 903 2953 641 2809 
L 641 3341 
Q 956 3463 1253 3523 
Q 1550 3584 1831 3584 
Q 2591 3584 2966 3190 
Q 3341 2797 3341 1997 
z
" transform="scale(0.015625)"/>
       <path id="DejaVuSans-46" d="M 3122 3366 
L 3122 2828 
Q 2878 2963 2633 3030 
Q 2388 3097 2138 3097 
Q 1578 3097 1268 2742 
Q 959 2388 959 1747 
Q 959 1106 1268 751 
Q 1578 397 2138 397 
Q 2388 397 2633 464 
Q 2878 531 3122 666 
L 3122 134 
Q 2881 22 2623 -34 
Q 2366 -91 2075 -91 
Q 1284 -91 818 406 
Q 353 903 353 1747 
Q 353 2603 823 3093 
Q 1294 3584 2113 3584 
Q 2378 3584 2631 3529 
Q 2884 3475 3122 3366 
z
" transform="scale(0.015625)"/>
       <path id="DejaVuSans-48" d="M 3597 1894 
L 3597 1613 
L 953 1613 
Q 991 1019 1311 708 
Q 1631 397 2203 397 
Q 2534 397 2845 478 
Q 3156 559 3463 722 
L 3463 178 
Q 3153 47 2828 -22 
Q 2503 -91 2169 -91 
Q 1331 -91 842 396 
Q 353 884 353 1716 
Q 353 2575 817 3079 
Q 1281 3584 2069 3584 
Q 2775 3584 3186 3129 
Q 3597 2675 3597 1894 
z
M 3022 2063 
Q 3016 2534 2758 2815 
Q 2500 3097 2075 3097 
Q 1594 3097 1305 2825 
Q 1016 2553 972 2059 
L 3022 2063 
z
" transform="scale(0.015625)"/>
       <path id="DejaVuSans-4f" d="M 603 4863 
L 1178 4863 
L 1178 0 
L 603 0 
L 603 4863 
z
" transform="scale(0.015625)"/>
       <path id="DejaVuSans-58" d="M 544 1381 
L 544 3500 
L 1119 3500 
L 1119 1403 
Q 1119 906 1312 657 
Q 1506 409 1894 409 
Q 2359 409 2629 706 
Q 2900 1003 2900 1516 
L 2900 3500 
L 3475 3500 
L 3475 0 
L 2900 0 
L 2900 538 
Q 2691 219 2414 64 
Q 2138 -91 1772 -91 
Q 1169 -91 856 284 
Q 544 659 544 1381 
z
M 1991 3584 
L 1991 3584 
z
" transform="scale(0.015625)"/>
       <path id="DejaVuSans-3" transform="scale(0.015625)"/>
       <path id="DejaVuSans-52" d="M 1959 3097 
Q 1497 3097 1228 2736 
Q 959 2375 959 1747 
Q 959 1119 1226 758 
Q 1494 397 1959 397 
Q 2419 397 2687 759 
Q 2956 1122 2956 1747 
Q 2956 2369 2687 2733 
Q 2419 3097 1959 3097 
z
M 1959 3584 
Q 2709 3584 3137 3096 
Q 3566 2609 3566 1747 
Q 3566 888 3137 398 
Q 2709 -91 1959 -91 
Q 1206 -91 779 398 
Q 353 888 353 1747 
Q 353 2609 779 3096 
Q 1206 3584 1959 3584 
z
" transform="scale(0.015625)"/>
       <path id="DejaVuSans-56" d="M 2834 3397 
L 2834 2853 
Q 2591 2978 2328 3040 
Q 2066 3103 1784 3103 
Q 1356 3103 1142 2972 
Q 928 2841 928 2578 
Q 928 2378 1081 2264 
Q 1234 2150 1697 2047 
L 1894 2003 
Q 2506 1872 2764 1633 
Q 3022 1394 3022 966 
Q 3022 478 2636 193 
Q 2250 -91 1575 -91 
Q 1294 -91 989 -36 
Q 684 19 347 128 
L 347 722 
Q 666 556 975 473 
Q 1284 391 1588 391 
Q 1994 391 2212 530 
Q 2431 669 2431 922 
Q 2431 1156 2273 1281 
Q 2116 1406 1581 1522 
L 1381 1569 
Q 847 1681 609 1914 
Q 372 2147 372 2553 
Q 372 3047 722 3315 
Q 1072 3584 1716 3584 
Q 2034 3584 2315 3537 
Q 2597 3491 2834 3397 
z
" transform="scale(0.015625)"/>
      </defs>
      <use xlink:href="#DejaVuSans-28"/>
      <use xlink:href="#DejaVuSans-5b" transform="translate(63.1875 0)"/>
      <use xlink:href="#DejaVuSans-57" transform="translate(122.375 0)"/>
      <use xlink:href="#DejaVuSans-55" transform="translate(161.578125 0)"/>
      <use xlink:href="#DejaVuSans-44" transform="translate(202.6875 0)"/>
      <use xlink:href="#DejaVuSans-46" transform="translate(263.96875 0)"/>
      <use xlink:href="#DejaVuSans-48" transform="translate(318.953125 0)"/>
      <use xlink:href="#DejaVuSans-4f" transform="translate(380.484375 0)"/>
      <use xlink:href="#DejaVuSans-4f" transform="translate(408.265625 0)"/>
      <use xlink:href="#DejaVuSans-58" transform="translate(436.046875 0)"/>
      <use xlink:href="#DejaVuSans-4f" transform="translate(499.421875 0)"/>
      <use xlink:href="#DejaVuSans-44" transform="translate(527.203125 0)"/>
      <use xlink:href="#DejaVuSans-55" transform="translate(588.484375 0)"/>
      <use xlink:href="#DejaVuSans-3" transform="translate(629.59375 0)"/>
      <use xlink:href="#DejaVuSans-4f" transform="translate(661.375 0)"/>
      <use xlink:href="#DejaVuSans-44" transform="translate(689.15625 0)"/>
      <use xlink:href="#DejaVuSans-46" transform="translate(750.4375 0)"/>
      <use xlink:href="#DejaVuSans-57" transform="translate(805.421875 0)"/>
      <use xlink:href="#DejaVuSans-52" transform="translate(844.625 0)"/>
      <use xlink:href="#DejaVuSans-56" transform="translate(905.8125 0)"/>
      <use xlink:href="#DejaVuSans-48" transform="translate(957.90625 0)"/>
     </g>
    </g>
   </g>
   <g id="line2d_13">
    <path d="M 56.88098 92.472021 
L 156.150225 92.472021 
L 156.239271 11.260572 
L 156.906874 11.341784 
L 157.024494 11.66663 
L 157.069282 11.747841 
L 157.215392 13.209647 
L 157.333665 14.833876 
L 157.347485 14.915088 
L 157.490915 16.620528 
L 157.51445 16.701739 
L 158.023735 20.193832 
L 158.300804 20.599889 
L 158.360063 20.6811 
L 158.469176 20.762312 
L 158.91951 20.843523 
L 159.016314 21.249581 
L 159.256972 21.655638 
L 159.357375 22.061695 
L 159.477868 22.142906 
L 159.580553 22.630175 
L 159.61053 22.711387 
L 159.719437 23.604713 
L 159.81661 24.498038 
L 160.155498 25.878633 
L 160.201457 25.959845 
L 160.437479 27.340439 
L 160.635853 28.802245 
L 160.654662 28.883457 
L 160.93398 31.238589 
L 160.961488 31.3198 
L 161.074057 32.050703 
L 161.176831 32.131915 
L 161.288238 32.619183 
L 161.33842 32.700395 
L 161.455934 33.512509 
L 161.482791 33.593721 
L 161.592927 34.080989 
L 161.694263 34.162201 
L 162.211307 35.867641 
L 162.721496 35.948853 
L 162.866057 36.436121 
L 162.889903 36.517333 
L 163.059386 36.92339 
L 163.272252 37.004601 
L 163.417345 37.573082 
L 163.565664 37.897927 
L 163.588998 37.979139 
L 163.67862 38.06035 
L 165.481055 38.141562 
L 166.01006 38.872465 
L 166.278964 39.034888 
L 166.497067 39.116099 
L 166.623431 40.090636 
L 166.74432 40.334271 
L 166.830971 40.415482 
L 166.955672 40.740328 
L 167.202609 41.552443 
L 167.249791 41.633654 
L 167.461278 41.796077 
L 167.931135 41.877288 
L 167.986038 42.039711 
L 168.22069 42.120923 
L 168.364058 42.770614 
L 168.443992 42.851826 
L 168.570286 43.257883 
L 168.676179 43.339094 
L 168.91097 44.313632 
L 169.092495 45.613015 
L 169.117608 45.694226 
L 169.242691 45.856649 
L 169.534238 46.749975 
L 169.553982 46.831187 
L 169.773895 47.237244 
L 169.906494 47.805724 
L 170.126854 49.023896 
L 170.255388 49.754799 
L 170.372241 49.998433 
L 170.948989 51.379028 
L 171.278942 51.460239 
L 171.591511 52.272354 
L 171.803654 53.409314 
L 171.836329 53.490525 
L 171.936455 54.059006 
L 171.991539 54.140217 
L 172.12971 54.627486 
L 172.191907 54.708697 
L 172.381195 56.332926 
L 172.407164 56.414138 
L 172.556406 58.119578 
L 173.29901 61.855305 
L 173.364788 61.936516 
L 173.497346 62.261362 
L 174.964677 62.342573 
L 175.086391 62.667419 
L 175.271601 62.748631 
L 175.395291 63.154688 
L 175.443276 63.235899 
L 175.62427 63.966802 
L 175.711275 64.048014 
L 175.862787 64.372859 
L 176.202228 65.672243 
L 176.222804 65.753454 
L 176.353429 66.321934 
L 176.475659 66.403146 
L 176.591659 67.052837 
L 176.63721 67.134049 
L 176.811658 68.027375 
L 176.954961 69.001912 
L 177.057976 69.489181 
L 177.086458 69.570392 
L 177.202097 69.976449 
L 177.454298 71.11341 
L 177.59327 71.194621 
L 177.714125 71.844313 
L 177.923205 72.412793 
L 178.041643 72.494004 
L 178.202888 72.737639 
L 178.303636 72.900062 
L 178.376228 72.981273 
L 178.501776 73.549753 
L 178.609854 74.199445 
L 178.663875 74.280656 
L 178.827397 74.930348 
L 178.909523 75.011559 
L 178.988454 75.173982 
L 179.390961 75.255194 
L 179.504227 75.498828 
L 180.714432 75.580039 
L 180.810572 75.742462 
L 182.05558 76.798211 
L 182.181692 76.879422 
L 182.786567 77.366691 
L 182.909769 77.935171 
L 183.140125 78.016383 
L 183.219548 78.097594 
L 183.70554 78.178806 
L 183.776774 78.260017 
L 183.879614 78.341229 
L 185.359047 78.42244 
L 185.412399 78.503651 
L 185.573218 78.584863 
L 185.913893 78.828497 
L 185.976328 78.909709 
L 186.248641 78.99092 
L 186.340169 79.234554 
L 186.524478 79.315766 
L 186.62865 79.478189 
L 186.72807 79.5594 
L 187.255686 80.615149 
L 187.332529 80.696361 
L 187.424067 81.021206 
L 187.566371 81.102418 
L 187.694426 81.183629 
L 187.793377 81.264841 
L 188.495948 81.346052 
L 189.03622 81.833321 
L 189.144501 82.076955 
L 189.600794 82.645435 
L 189.720564 82.726647 
L 189.901526 82.970281 
L 190.004777 83.051493 
L 190.119536 83.213915 
L 190.381978 83.376338 
L 190.56389 83.45755 
L 190.702538 83.538761 
L 190.855658 83.619973 
L 191.358364 83.701184 
L 191.52435 83.863607 
L 191.826363 83.944818 
L 191.977188 84.188453 
L 192.076714 84.269664 
L 192.168077 84.350876 
L 192.34288 84.432087 
L 192.529306 84.675721 
L 192.919878 85.244202 
L 193.126067 85.325413 
L 193.215531 85.569047 
L 193.350684 85.650259 
L 193.481329 85.73147 
L 193.636409 85.812682 
L 193.764241 85.975105 
L 194.462801 86.056316 
L 194.674899 86.29995 
L 194.96038 86.381162 
L 194.964605 86.462373 
L 195.336082 86.787219 
L 195.44141 86.868431 
L 195.683788 87.030853 
L 196.064028 87.112065 
L 196.158083 87.355699 
L 196.624306 87.436911 
L 196.756601 87.599334 
L 196.818217 87.680545 
L 196.940888 87.761757 
L 197.19702 88.086602 
L 197.331266 88.167814 
L 197.440037 88.330237 
L 197.876814 88.411448 
L 197.991825 88.49266 
L 198.30396 88.573871 
L 198.549821 88.817505 
L 199.201239 88.898717 
L 199.364909 88.979928 
L 199.940222 89.06114 
L 200.012591 89.223563 
L 200.950866 89.304774 
L 201.047996 89.385985 
L 201.94022 89.467197 
L 202.476838 89.548408 
L 203.811478 89.62962 
L 203.943121 89.710831 
L 204.808832 89.792043 
L 204.992739 89.873254 
L 207.390377 89.954466 
L 207.796236 90.1981 
L 209.120642 90.279311 
L 209.257168 90.360523 
L 212.507624 90.441734 
L 212.869345 90.604157 
L 213.511632 90.685369 
L 213.568607 90.76658 
L 214.19557 90.929003 
L 231.475222 91.010214 
L 231.533523 91.091426 
L 232.28835 91.172637 
L 232.394567 91.253849 
L 232.677469 91.33506 
L 232.813758 91.416272 
L 234.049501 91.497483 
L 234.221471 91.578695 
L 235.264732 91.659906 
L 235.583164 91.741117 
L 265.093118 91.822329 
L 265.167125 91.90354 
L 270.781609 91.984752 
L 271.801691 92.147175 
L 312.422447 92.147175 
L 312.422447 92.147175 
" clip-path="url(#p65c4a54c6f)" style="fill: none; stroke: #000000; stroke-width: 1.5; stroke-linecap: square"/>
   </g>
   <g id="patch_3">
    <path d="M 44.103906 96.532593 
L 44.103906 7.2 
" style="fill: none; stroke: #000000; stroke-width: 0.8; stroke-linejoin: miter; stroke-linecap: square"/>
   </g>
   <g id="patch_4">
    <path d="M 325.19952 96.532593 
L 325.19952 7.2 
" style="fill: none; stroke: #000000; stroke-width: 0.8; stroke-linejoin: miter; stroke-linecap: square"/>
   </g>
   <g id="patch_5">
    <path d="M 44.103906 96.532593 
L 325.19952 96.532593 
" style="fill: none; stroke: #000000; stroke-width: 0.8; stroke-linejoin: miter; stroke-linecap: square"/>
   </g>
   <g id="patch_6">
    <path d="M 44.103906 7.2 
L 325.19952 7.2 
" style="fill: none; stroke: #000000; stroke-width: 0.8; stroke-linejoin: miter; stroke-linecap: square"/>
   </g>
  </g>
  <g id="axes_2">
   <g id="patch_7">
    <path d="M 44.103906 195.365666 
L 325.19952 195.365666 
L 325.19952 106.033073 
L 44.103906 106.033073 
z
" style="fill: #ffffff"/>
   </g>
   <g id="matplotlib.axis_3">
    <g id="xtick_10">
     <g id="line2d_14">
      <g>
       <use xlink:href="#ma7bf406b13" x="56.88098" y="195.365666" style="stroke: #000000; stroke-width: 0.8"/>
      </g>
     </g>
    </g>
    <g id="xtick_11">
     <g id="line2d_15">
      <g>
       <use xlink:href="#ma7bf406b13" x="88.793235" y="195.365666" style="stroke: #000000; stroke-width: 0.8"/>
      </g>
     </g>
    </g>
    <g id="xtick_12">
     <g id="line2d_16">
      <g>
       <use xlink:href="#ma7bf406b13" x="120.70549" y="195.365666" style="stroke: #000000; stroke-width: 0.8"/>
      </g>
     </g>
    </g>
    <g id="xtick_13">
     <g id="line2d_17">
      <g>
       <use xlink:href="#ma7bf406b13" x="152.617745" y="195.365666" style="stroke: #000000; stroke-width: 0.8"/>
      </g>
     </g>
    </g>
    <g id="xtick_14">
     <g id="line2d_18">
      <g>
       <use xlink:href="#ma7bf406b13" x="184.53" y="195.365666" style="stroke: #000000; stroke-width: 0.8"/>
      </g>
     </g>
    </g>
    <g id="xtick_15">
     <g id="line2d_19">
      <g>
       <use xlink:href="#ma7bf406b13" x="216.442255" y="195.365666" style="stroke: #000000; stroke-width: 0.8"/>
      </g>
     </g>
    </g>
    <g id="xtick_16">
     <g id="line2d_20">
      <g>
       <use xlink:href="#ma7bf406b13" x="248.35451" y="195.365666" style="stroke: #000000; stroke-width: 0.8"/>
      </g>
     </g>
    </g>
    <g id="xtick_17">
     <g id="line2d_21">
      <g>
       <use xlink:href="#ma7bf406b13" x="280.266766" y="195.365666" style="stroke: #000000; stroke-width: 0.8"/>
      </g>
     </g>
    </g>
    <g id="xtick_18">
     <g id="line2d_22">
      <g>
       <use xlink:href="#ma7bf406b13" x="312.179021" y="195.365666" style="stroke: #000000; stroke-width: 0.8"/>
      </g>
     </g>
    </g>
   </g>
   <g id="matplotlib.axis_4">
    <g id="ytick_4">
     <g id="line2d_23">
      <g>
       <use xlink:href="#m14aab64116" x="44.103906" y="191.305093" style="stroke: #000000; stroke-width: 0.8"/>
      </g>
     </g>
     <g id="text_5">
      <!-- 0 -->
      <g transform="translate(30.741406 195.103922) scale(0.1 -0.1)">
       <use xlink:href="#DejaVuSans-13"/>
      </g>
     </g>
    </g>
    <g id="ytick_5">
     <g id="line2d_24">
      <g>
       <use xlink:href="#m14aab64116" x="44.103906" y="150.699369" style="stroke: #000000; stroke-width: 0.8"/>
      </g>
     </g>
     <g id="text_6">
      <!-- 5 -->
      <g transform="translate(30.741406 154.498197) scale(0.1 -0.1)">
       <use xlink:href="#DejaVuSans-18"/>
      </g>
     </g>
    </g>
    <g id="ytick_6">
     <g id="line2d_25">
      <g>
       <use xlink:href="#m14aab64116" x="44.103906" y="110.093645" style="stroke: #000000; stroke-width: 0.8"/>
      </g>
     </g>
     <g id="text_7">
      <!-- 10 -->
      <g transform="translate(24.378906 113.892473) scale(0.1 -0.1)">
       <use xlink:href="#DejaVuSans-14"/>
       <use xlink:href="#DejaVuSans-13" transform="translate(63.625 0)"/>
      </g>
     </g>
    </g>
    <g id="text_8">
     <!-- LacY -->
     <g transform="translate(17.976563 162.352494) rotate(-90) scale(0.1 -0.1)">
      <defs>
       <path id="DejaVuSans-2f" d="M 628 4666 
L 1259 4666 
L 1259 531 
L 3531 531 
L 3531 0 
L 628 0 
L 628 4666 
z
" transform="scale(0.015625)"/>
       <path id="DejaVuSans-3c" d="M -13 4666 
L 666 4666 
L 1959 2747 
L 3244 4666 
L 3922 4666 
L 2272 2222 
L 2272 0 
L 1638 0 
L 1638 2222 
L -13 4666 
z
" transform="scale(0.015625)"/>
      </defs>
      <use xlink:href="#DejaVuSans-2f"/>
      <use xlink:href="#DejaVuSans-44" transform="translate(55.71875 0)"/>
      <use xlink:href="#DejaVuSans-46" transform="translate(117 0)"/>
      <use xlink:href="#DejaVuSans-3c" transform="translate(171.984375 0)"/>
     </g>
    </g>
   </g>
   <g id="line2d_26">
    <path d="M 56.88098 110.093645 
L 56.908107 110.093645 
L 56.9626 118.21479 
L 57.070764 134.45708 
L 57.131106 142.578225 
L 57.283209 142.578225 
L 57.300905 134.45708 
L 57.52149 142.578225 
L 57.663352 142.578225 
L 57.834 158.820514 
L 58.134895 175.062804 
L 58.200513 191.305093 
L 59.730473 191.305093 
L 59.897091 183.183949 
L 59.939832 191.305093 
L 64.96231 191.305093 
L 65.285259 183.183949 
L 65.395211 191.305093 
L 82.891067 191.305093 
L 83.085471 183.183949 
L 84.878753 191.305093 
L 84.893578 183.183949 
L 85.036782 175.062804 
L 85.041437 166.941659 
L 85.363592 175.062804 
L 85.590552 175.062804 
L 85.710183 191.305093 
L 85.771003 183.183949 
L 85.961226 183.183949 
L 86.09971 191.305093 
L 89.991874 191.305093 
L 90.381666 175.062804 
L 90.382967 166.941659 
L 90.881596 166.941659 
L 90.920264 183.183949 
L 91.692395 183.183949 
L 91.861316 175.062804 
L 92.205602 191.305093 
L 109.210506 191.305093 
L 109.316202 183.183949 
L 109.435908 183.183949 
L 109.574999 191.305093 
L 109.809998 191.305093 
L 109.851483 183.183949 
L 110.26744 183.183949 
L 110.617366 175.062804 
L 110.675714 183.183949 
L 110.85098 183.183949 
L 110.880559 191.305093 
L 119.640235 191.305093 
L 119.818664 183.183949 
L 121.918982 183.183949 
L 123.766514 191.305093 
L 131.534802 191.305093 
L 131.721076 183.183949 
L 132.008648 183.183949 
L 132.116429 191.305093 
L 136.452406 191.305093 
L 136.536139 183.183949 
L 136.558006 191.305093 
L 146.551098 191.305093 
L 146.811954 175.062804 
L 146.832786 183.183949 
L 146.861796 175.062804 
L 146.974912 166.941659 
L 146.980253 175.062804 
L 147.565022 175.062804 
L 148.182231 183.183949 
L 148.427576 183.183949 
L 148.742854 175.062804 
L 148.855744 175.062804 
L 149.927711 191.305093 
L 150.387907 191.305093 
L 150.439791 175.062804 
L 150.540671 175.062804 
L 150.693512 183.183949 
L 150.827238 183.183949 
L 151.370175 191.305093 
L 156.488905 191.305093 
L 156.917213 183.183949 
L 157.157519 150.699369 
L 157.439175 150.699369 
L 157.559289 166.941659 
L 157.60916 166.941659 
L 157.710066 158.820514 
L 157.797049 158.820514 
L 157.906863 175.062804 
L 157.935065 175.062804 
L 158.023735 183.183949 
L 158.375533 183.183949 
L 158.469176 191.305093 
L 158.868892 191.305093 
L 158.970258 183.183949 
L 159.13645 183.183949 
L 159.240566 175.062804 
L 159.386557 175.062804 
L 159.442042 183.183949 
L 159.49654 175.062804 
L 159.602765 175.062804 
L 159.707056 166.941659 
L 159.867109 166.941659 
L 159.992035 183.183949 
L 160.126248 183.183949 
L 160.249338 175.062804 
L 160.398452 175.062804 
L 160.526446 158.820514 
L 160.703593 158.820514 
L 160.772335 150.699369 
L 160.811473 158.820514 
L 160.898919 158.820514 
L 160.949479 150.699369 
L 161.002095 158.820514 
L 161.170781 158.820514 
L 161.279897 175.062804 
L 161.308848 175.062804 
L 161.339377 183.183949 
L 161.347758 166.941659 
L 161.415772 166.941659 
L 161.650893 166.941659 
L 161.756967 175.062804 
L 162.044912 175.062804 
L 162.145311 183.183949 
L 162.245531 183.183949 
L 162.356992 191.305093 
L 162.632588 191.305093 
L 162.782339 183.183949 
L 162.906411 183.183949 
L 163.022058 175.062804 
L 163.059386 175.062804 
L 163.168999 183.183949 
L 163.413745 183.183949 
L 163.466879 175.062804 
L 163.520213 183.183949 
L 163.671199 183.183949 
L 163.771855 191.305093 
L 164.345763 191.305093 
L 164.35929 183.183949 
L 164.442503 191.305093 
L 165.265674 191.305093 
L 165.55067 183.183949 
L 166.118359 183.183949 
L 166.151646 191.305093 
L 166.446234 191.305093 
L 166.563312 175.062804 
L 166.685733 175.062804 
L 166.719374 183.183949 
L 166.764778 175.062804 
L 166.812755 175.062804 
L 166.904974 166.941659 
L 166.93662 166.941659 
L 167.029824 175.062804 
L 167.132733 175.062804 
L 167.230467 183.183949 
L 167.313106 183.183949 
L 167.398489 191.305093 
L 167.534291 191.305093 
L 167.594579 183.183949 
L 167.638136 191.305093 
L 167.926424 191.305093 
L 167.986038 183.183949 
L 168.312213 175.062804 
L 168.775781 175.062804 
L 168.892991 166.941659 
L 168.994941 166.941659 
L 169.080757 158.820514 
L 169.105635 166.941659 
L 169.229077 166.941659 
L 169.345947 175.062804 
L 169.424282 175.062804 
L 169.534238 183.183949 
L 169.728245 183.183949 
L 169.85235 166.941659 
L 170.168541 166.941659 
L 170.17902 175.062804 
L 170.272043 166.941659 
L 170.454216 166.941659 
L 170.551193 158.820514 
L 170.65713 158.820514 
L 170.75026 175.062804 
L 170.789595 175.062804 
L 170.87656 191.305093 
L 171.187049 191.305093 
L 171.322165 183.183949 
L 171.433561 183.183949 
L 171.550376 166.941659 
L 171.572377 166.941659 
L 171.690896 158.820514 
L 171.959241 158.820514 
L 171.999023 150.699369 
L 172.066832 158.820514 
L 172.12971 158.820514 
L 172.263193 134.45708 
L 172.377647 142.578225 
L 172.662393 142.578225 
L 172.754009 134.45708 
L 172.769802 142.578225 
L 172.791237 142.578225 
L 172.897995 134.45708 
L 172.90729 134.45708 
L 173.021655 142.578225 
L 173.03053 142.578225 
L 173.153924 166.941659 
L 173.392767 166.941659 
L 173.504832 183.183949 
L 173.594673 183.183949 
L 173.685296 191.305093 
L 174.871466 191.305093 
L 175.086391 175.062804 
L 175.228114 175.062804 
L 175.31501 166.941659 
L 175.599239 166.941659 
L 175.600294 158.820514 
L 175.691862 166.941659 
L 175.807208 166.941659 
L 175.876962 175.062804 
L 175.909188 166.941659 
L 176.057099 166.941659 
L 176.173175 158.820514 
L 176.20961 158.820514 
L 176.315954 150.699369 
L 176.318261 158.820514 
L 176.430718 158.820514 
L 176.502662 134.45708 
L 176.54668 142.578225 
L 176.567185 142.578225 
L 176.676678 150.699369 
L 176.798033 150.699369 
L 176.913885 142.578225 
L 176.991207 142.578225 
L 177.108188 158.820514 
L 177.44718 158.820514 
L 177.554627 166.941659 
L 177.602551 166.941659 
L 177.732608 158.820514 
L 177.754754 158.820514 
L 177.857152 175.062804 
L 177.886787 175.062804 
L 177.977946 158.820514 
L 177.998192 166.941659 
L 178.438105 166.941659 
L 178.584715 150.699369 
L 178.609854 150.699369 
L 178.738991 158.820514 
L 178.751709 158.820514 
L 178.798274 166.941659 
L 178.827397 158.820514 
L 178.917528 150.699369 
L 178.93 158.820514 
L 179.038852 166.941659 
L 179.066746 166.941659 
L 179.155125 183.183949 
L 179.267507 183.183949 
L 179.398295 158.820514 
L 179.439395 158.820514 
L 179.545261 166.941659 
L 179.677516 183.183949 
L 179.712528 175.062804 
L 179.736887 191.305093 
L 180.024374 191.305093 
L 180.097476 183.183949 
L 180.112654 191.305093 
L 180.402371 191.305093 
L 180.490288 183.183949 
L 180.512593 191.305093 
L 180.612922 191.305093 
L 180.693032 175.062804 
L 180.739303 183.183949 
L 181.08931 183.183949 
L 181.176362 175.062804 
L 181.234256 175.062804 
L 181.348502 166.941659 
L 181.443887 166.941659 
L 181.518503 175.062804 
L 181.548247 166.941659 
L 181.707631 166.941659 
L 181.813976 175.062804 
L 182.05558 175.062804 
L 182.181692 183.183949 
L 182.352658 183.183949 
L 182.474517 175.062804 
L 182.56277 183.183949 
L 182.637784 183.183949 
L 182.790553 175.062804 
L 182.798402 175.062804 
L 182.940404 158.820514 
L 182.983504 158.820514 
L 183.219548 175.062804 
L 183.283218 158.820514 
L 183.310987 175.062804 
L 183.34253 175.062804 
L 183.447583 183.183949 
L 183.559813 175.062804 
L 183.671413 175.062804 
L 183.776774 183.183949 
L 183.825629 183.183949 
L 183.985926 191.305093 
L 185.2151 191.305093 
L 185.412399 175.062804 
L 185.787158 175.062804 
L 185.811146 183.183949 
L 185.868664 166.941659 
L 186.593294 166.941659 
L 186.72807 158.820514 
L 186.963717 158.820514 
L 187.082502 150.699369 
L 187.189772 150.699369 
L 187.31034 158.820514 
L 187.314477 150.699369 
L 187.34344 166.941659 
L 187.403122 166.941659 
L 187.452572 166.941659 
L 187.51981 175.062804 
L 187.525904 166.941659 
L 187.610058 166.941659 
L 187.706074 175.062804 
L 187.776768 175.062804 
L 187.857255 158.820514 
L 187.868214 166.941659 
L 187.988973 175.062804 
L 188.219607 175.062804 
L 188.247424 166.941659 
L 188.306079 175.062804 
L 188.365808 175.062804 
L 188.495948 166.941659 
L 188.701379 166.941659 
L 188.83202 175.062804 
L 188.923018 158.820514 
L 189.416793 158.820514 
L 189.520318 166.941659 
L 189.598133 166.941659 
L 189.628495 175.062804 
L 189.677121 166.941659 
L 189.751913 166.941659 
L 189.861109 158.820514 
L 189.896737 158.820514 
L 189.936539 150.699369 
L 189.977613 166.941659 
L 190.004777 166.941659 
L 190.22103 166.941659 
L 190.314681 175.062804 
L 190.470755 166.941659 
L 190.496995 166.941659 
L 190.518374 158.820514 
L 190.595148 166.941659 
L 190.702538 183.183949 
L 191.259305 183.183949 
L 191.358364 175.062804 
L 191.544144 175.062804 
L 191.758768 158.820514 
L 191.85748 166.941659 
L 191.950262 158.820514 
L 191.95174 166.941659 
L 192.064011 166.941659 
L 192.168077 158.820514 
L 192.401794 158.820514 
L 192.529306 142.578225 
L 192.622836 142.578225 
L 192.743959 158.820514 
L 192.755133 158.820514 
L 192.899877 166.941659 
L 192.913546 166.941659 
L 192.919878 175.062804 
L 192.97091 166.941659 
L 193.112957 175.062804 
L 193.215531 158.820514 
L 193.376699 158.820514 
L 193.481329 175.062804 
L 193.624151 175.062804 
L 193.696043 183.183949 
L 193.764241 183.183949 
L 193.813348 175.062804 
L 193.949241 183.183949 
L 194.238061 158.820514 
L 194.361458 175.062804 
L 194.462801 166.941659 
L 194.600895 166.941659 
L 194.674899 183.183949 
L 195.086349 158.820514 
L 195.11128 158.820514 
L 195.130959 166.941659 
L 195.193288 150.699369 
L 195.320634 150.699369 
L 195.44141 158.820514 
L 195.511266 158.820514 
L 195.631857 150.699369 
L 195.653593 150.699369 
L 195.781281 166.941659 
L 195.84993 158.820514 
L 195.880577 166.941659 
L 196.004728 175.062804 
L 196.158083 175.062804 
L 196.294021 183.183949 
L 196.40396 166.941659 
L 196.558777 166.941659 
L 196.624306 158.820514 
L 196.762758 158.820514 
L 196.918945 142.578225 
L 196.975788 142.578225 
L 197.015143 150.699369 
L 197.082687 142.578225 
L 197.141879 142.578225 
L 197.255076 166.941659 
L 197.27707 166.941659 
L 197.373213 175.062804 
L 197.440037 175.062804 
L 197.561557 166.941659 
L 197.737471 166.941659 
L 197.871391 158.820514 
L 197.963849 166.941659 
L 198.056824 166.941659 
L 198.263202 150.699369 
L 198.400163 150.699369 
L 198.514027 134.45708 
L 198.597837 158.820514 
L 198.709957 150.699369 
L 198.776233 150.699369 
L 198.858946 158.820514 
L 199.012988 158.820514 
L 199.108506 166.941659 
L 199.509361 166.941659 
L 199.61056 175.062804 
L 199.730384 175.062804 
L 199.749567 166.941659 
L 199.804449 175.062804 
L 199.945813 158.820514 
L 199.974161 166.941659 
L 200.129123 183.183949 
L 200.640872 183.183949 
L 200.795236 175.062804 
L 200.959229 175.062804 
L 201.047996 183.183949 
L 201.188695 183.183949 
L 201.210324 191.305093 
L 201.235846 183.183949 
L 201.3132 183.183949 
L 201.479863 175.062804 
L 201.622629 175.062804 
L 201.736769 166.941659 
L 201.89713 175.062804 
L 201.94022 183.183949 
L 203.178683 183.183949 
L 203.292295 175.062804 
L 203.67996 166.941659 
L 203.834446 175.062804 
L 203.943121 166.941659 
L 204.0563 175.062804 
L 204.212406 183.183949 
L 204.30787 183.183949 
L 204.443687 175.062804 
L 204.570906 191.305093 
L 204.661233 183.183949 
L 204.97492 183.183949 
L 205.103218 166.941659 
L 205.263085 175.062804 
L 205.336703 175.062804 
L 205.420674 183.183949 
L 205.635028 191.305093 
L 205.694893 183.183949 
L 206.048987 183.183949 
L 206.087437 191.305093 
L 206.717191 183.183949 
L 206.837648 183.183949 
L 207.390377 175.062804 
L 207.503114 175.062804 
L 207.641569 166.941659 
L 207.757809 175.062804 
L 209.257168 175.062804 
L 209.588959 191.305093 
L 210.581454 191.305093 
L 210.89552 183.183949 
L 211.057603 191.305093 
L 211.340187 183.183949 
L 212.082722 183.183949 
L 212.186749 166.941659 
L 212.22275 158.820514 
L 212.415558 166.941659 
L 212.507624 158.820514 
L 212.846859 158.820514 
L 212.945259 175.062804 
L 212.975232 166.941659 
L 213.13386 158.820514 
L 213.43483 158.820514 
L 213.568607 166.941659 
L 213.823385 166.941659 
L 213.973848 175.062804 
L 214.122602 166.941659 
L 214.19557 175.062804 
L 214.564668 183.183949 
L 214.684729 175.062804 
L 214.801791 175.062804 
L 214.805045 183.183949 
L 215.090239 175.062804 
L 215.314598 175.062804 
L 215.411343 183.183949 
L 215.936317 175.062804 
L 216.291958 191.305093 
L 230.534326 191.305093 
L 230.77616 166.941659 
L 231.001045 191.305093 
L 231.137396 175.062804 
L 231.171177 183.183949 
L 231.259543 183.183949 
L 231.330419 175.062804 
L 231.533523 191.305093 
L 231.677187 175.062804 
L 231.784846 158.820514 
L 231.817847 166.941659 
L 231.854324 166.941659 
L 231.919188 158.820514 
L 232.100778 158.820514 
L 232.112847 150.699369 
L 232.178806 158.820514 
L 232.313137 158.820514 
L 232.394567 166.941659 
L 232.455734 158.820514 
L 232.470764 166.941659 
L 232.573621 166.941659 
L 232.660669 150.699369 
L 232.715963 158.820514 
L 232.813758 158.820514 
L 232.912756 150.699369 
L 232.948852 158.820514 
L 233.495502 191.305093 
L 233.710737 183.183949 
L 233.77237 183.183949 
L 234.150452 175.062804 
L 234.19519 166.941659 
L 234.221471 175.062804 
L 234.354904 183.183949 
L 234.447283 175.062804 
L 234.684523 175.062804 
L 234.834587 183.183949 
L 234.945024 175.062804 
L 235.057638 183.183949 
L 235.194668 158.820514 
L 235.390625 158.820514 
L 235.470419 150.699369 
L 235.583164 158.820514 
L 235.768901 166.941659 
L 235.830284 158.820514 
L 236.012402 158.820514 
L 236.070508 150.699369 
L 236.217545 142.578225 
L 236.28053 166.941659 
L 236.308977 158.820514 
L 236.508795 166.941659 
L 236.554715 166.941659 
L 236.644895 158.820514 
L 236.883008 175.062804 
L 236.886787 166.941659 
L 237.151166 166.941659 
L 237.546163 183.183949 
L 237.563597 191.305093 
L 240.780226 191.305093 
L 241.025138 183.183949 
L 241.239959 175.062804 
L 241.265398 183.183949 
L 241.481786 191.305093 
L 241.706219 191.305093 
L 242.110775 183.183949 
L 242.27869 166.941659 
L 242.396274 158.820514 
L 242.498059 175.062804 
L 242.715791 175.062804 
L 242.723811 183.183949 
L 242.956364 191.305093 
L 264.453766 191.305093 
L 264.812383 183.183949 
L 265.017978 166.941659 
L 265.167125 175.062804 
L 265.300533 166.941659 
L 265.30685 175.062804 
L 265.435568 175.062804 
L 265.615784 183.183949 
L 265.857803 191.305093 
L 268.329404 191.305093 
L 268.491843 183.183949 
L 268.707431 183.183949 
L 268.77219 191.305093 
L 270.294777 191.305093 
L 270.561673 183.183949 
L 270.675948 183.183949 
L 270.781609 175.062804 
L 271.320539 175.062804 
L 271.546003 183.183949 
L 271.677318 191.305093 
L 273.526724 191.305093 
L 273.819416 175.062804 
L 273.918992 183.183949 
L 274.225242 158.820514 
L 274.28872 166.941659 
L 274.522419 175.062804 
L 274.63191 166.941659 
L 274.926131 183.183949 
L 275.128955 183.183949 
L 275.233655 191.305093 
L 282.98339 191.305093 
L 283.028294 183.183949 
L 283.257788 175.062804 
L 283.432747 183.183949 
L 283.81809 183.183949 
L 284.023581 166.941659 
L 284.13751 191.305093 
L 285.204512 191.305093 
L 285.427078 183.183949 
L 285.593709 191.305093 
L 294.279538 191.305093 
L 294.807646 183.183949 
L 294.957637 166.941659 
L 294.990181 166.941659 
L 295.090283 175.062804 
L 295.499815 183.183949 
L 296.27925 183.183949 
L 296.958525 191.305093 
L 311.822769 191.305093 
L 312.018332 175.062804 
L 312.160934 183.183949 
L 312.422447 183.183949 
L 312.422447 183.183949 
" clip-path="url(#p0ce660deb1)" style="fill: none; stroke: #000000; stroke-width: 1.5; stroke-linecap: square"/>
   </g>
   <g id="patch_8">
    <path d="M 44.103906 195.365666 
L 44.103906 106.033073 
" style="fill: none; stroke: #000000; stroke-width: 0.8; stroke-linejoin: miter; stroke-linecap: square"/>
   </g>
   <g id="patch_9">
    <path d="M 325.19952 195.365666 
L 325.19952 106.033073 
" style="fill: none; stroke: #000000; stroke-width: 0.8; stroke-linejoin: miter; stroke-linecap: square"/>
   </g>
   <g id="patch_10">
    <path d="M 44.103906 195.365666 
L 325.19952 195.365666 
" style="fill: none; stroke: #000000; stroke-width: 0.8; stroke-linejoin: miter; stroke-linecap: square"/>
   </g>
   <g id="patch_11">
    <path d="M 44.103906 106.033073 
L 325.19952 106.033073 
" style="fill: none; stroke: #000000; stroke-width: 0.8; stroke-linejoin: miter; stroke-linecap: square"/>
   </g>
  </g>
  <g id="axes_3">
   <g id="patch_12">
    <path d="M 44.103906 294.198739 
L 325.19952 294.198739 
L 325.19952 204.866146 
L 44.103906 204.866146 
z
" style="fill: #ffffff"/>
   </g>
   <g id="matplotlib.axis_5">
    <g id="xtick_19">
     <g id="line2d_27">
      <g>
       <use xlink:href="#ma7bf406b13" x="56.88098" y="294.198739" style="stroke: #000000; stroke-width: 0.8"/>
      </g>
     </g>
     <g id="text_9">
      <!-- 0 -->
      <g transform="translate(53.69973 308.796395) scale(0.1 -0.1)">
       <use xlink:href="#DejaVuSans-13"/>
      </g>
     </g>
    </g>
    <g id="xtick_20">
     <g id="line2d_28">
      <g>
       <use xlink:href="#ma7bf406b13" x="88.793235" y="294.198739" style="stroke: #000000; stroke-width: 0.8"/>
      </g>
     </g>
     <g id="text_10">
      <!-- 100 -->
      <g transform="translate(79.249485 308.796395) scale(0.1 -0.1)">
       <use xlink:href="#DejaVuSans-14"/>
       <use xlink:href="#DejaVuSans-13" transform="translate(63.625 0)"/>
       <use xlink:href="#DejaVuSans-13" transform="translate(127.25 0)"/>
      </g>
     </g>
    </g>
    <g id="xtick_21">
     <g id="line2d_29">
      <g>
       <use xlink:href="#ma7bf406b13" x="120.70549" y="294.198739" style="stroke: #000000; stroke-width: 0.8"/>
      </g>
     </g>
     <g id="text_11">
      <!-- 200 -->
      <g transform="translate(111.16174 308.796395) scale(0.1 -0.1)">
       <defs>
        <path id="DejaVuSans-15" d="M 1228 531 
L 3431 531 
L 3431 0 
L 469 0 
L 469 531 
Q 828 903 1448 1529 
Q 2069 2156 2228 2338 
Q 2531 2678 2651 2914 
Q 2772 3150 2772 3378 
Q 2772 3750 2511 3984 
Q 2250 4219 1831 4219 
Q 1534 4219 1204 4116 
Q 875 4013 500 3803 
L 500 4441 
Q 881 4594 1212 4672 
Q 1544 4750 1819 4750 
Q 2544 4750 2975 4387 
Q 3406 4025 3406 3419 
Q 3406 3131 3298 2873 
Q 3191 2616 2906 2266 
Q 2828 2175 2409 1742 
Q 1991 1309 1228 531 
z
" transform="scale(0.015625)"/>
       </defs>
       <use xlink:href="#DejaVuSans-15"/>
       <use xlink:href="#DejaVuSans-13" transform="translate(63.625 0)"/>
       <use xlink:href="#DejaVuSans-13" transform="translate(127.25 0)"/>
      </g>
     </g>
    </g>
    <g id="xtick_22">
     <g id="line2d_30">
      <g>
       <use xlink:href="#ma7bf406b13" x="152.617745" y="294.198739" style="stroke: #000000; stroke-width: 0.8"/>
      </g>
     </g>
     <g id="text_12">
      <!-- 300 -->
      <g transform="translate(143.073995 308.796395) scale(0.1 -0.1)">
       <defs>
        <path id="DejaVuSans-16" d="M 2597 2516 
Q 3050 2419 3304 2112 
Q 3559 1806 3559 1356 
Q 3559 666 3084 287 
Q 2609 -91 1734 -91 
Q 1441 -91 1130 -33 
Q 819 25 488 141 
L 488 750 
Q 750 597 1062 519 
Q 1375 441 1716 441 
Q 2309 441 2620 675 
Q 2931 909 2931 1356 
Q 2931 1769 2642 2001 
Q 2353 2234 1838 2234 
L 1294 2234 
L 1294 2753 
L 1863 2753 
Q 2328 2753 2575 2939 
Q 2822 3125 2822 3475 
Q 2822 3834 2567 4026 
Q 2313 4219 1838 4219 
Q 1578 4219 1281 4162 
Q 984 4106 628 3988 
L 628 4550 
Q 988 4650 1302 4700 
Q 1616 4750 1894 4750 
Q 2613 4750 3031 4423 
Q 3450 4097 3450 3541 
Q 3450 3153 3228 2886 
Q 3006 2619 2597 2516 
z
" transform="scale(0.015625)"/>
       </defs>
       <use xlink:href="#DejaVuSans-16"/>
       <use xlink:href="#DejaVuSans-13" transform="translate(63.625 0)"/>
       <use xlink:href="#DejaVuSans-13" transform="translate(127.25 0)"/>
      </g>
     </g>
    </g>
    <g id="xtick_23">
     <g id="line2d_31">
      <g>
       <use xlink:href="#ma7bf406b13" x="184.53" y="294.198739" style="stroke: #000000; stroke-width: 0.8"/>
      </g>
     </g>
     <g id="text_13">
      <!-- 400 -->
      <g transform="translate(174.98625 308.796395) scale(0.1 -0.1)">
       <defs>
        <path id="DejaVuSans-17" d="M 2419 4116 
L 825 1625 
L 2419 1625 
L 2419 4116 
z
M 2253 4666 
L 3047 4666 
L 3047 1625 
L 3713 1625 
L 3713 1100 
L 3047 1100 
L 3047 0 
L 2419 0 
L 2419 1100 
L 313 1100 
L 313 1709 
L 2253 4666 
z
" transform="scale(0.015625)"/>
       </defs>
       <use xlink:href="#DejaVuSans-17"/>
       <use xlink:href="#DejaVuSans-13" transform="translate(63.625 0)"/>
       <use xlink:href="#DejaVuSans-13" transform="translate(127.25 0)"/>
      </g>
     </g>
    </g>
    <g id="xtick_24">
     <g id="line2d_32">
      <g>
       <use xlink:href="#ma7bf406b13" x="216.442255" y="294.198739" style="stroke: #000000; stroke-width: 0.8"/>
      </g>
     </g>
     <g id="text_14">
      <!-- 500 -->
      <g transform="translate(206.898505 308.796395) scale(0.1 -0.1)">
       <use xlink:href="#DejaVuSans-18"/>
       <use xlink:href="#DejaVuSans-13" transform="translate(63.625 0)"/>
       <use xlink:href="#DejaVuSans-13" transform="translate(127.25 0)"/>
      </g>
     </g>
    </g>
    <g id="xtick_25">
     <g id="line2d_33">
      <g>
       <use xlink:href="#ma7bf406b13" x="248.35451" y="294.198739" style="stroke: #000000; stroke-width: 0.8"/>
      </g>
     </g>
     <g id="text_15">
      <!-- 600 -->
      <g transform="translate(238.81076 308.796395) scale(0.1 -0.1)">
       <defs>
        <path id="DejaVuSans-19" d="M 2113 2584 
Q 1688 2584 1439 2293 
Q 1191 2003 1191 1497 
Q 1191 994 1439 701 
Q 1688 409 2113 409 
Q 2538 409 2786 701 
Q 3034 994 3034 1497 
Q 3034 2003 2786 2293 
Q 2538 2584 2113 2584 
z
M 3366 4563 
L 3366 3988 
Q 3128 4100 2886 4159 
Q 2644 4219 2406 4219 
Q 1781 4219 1451 3797 
Q 1122 3375 1075 2522 
Q 1259 2794 1537 2939 
Q 1816 3084 2150 3084 
Q 2853 3084 3261 2657 
Q 3669 2231 3669 1497 
Q 3669 778 3244 343 
Q 2819 -91 2113 -91 
Q 1303 -91 875 529 
Q 447 1150 447 2328 
Q 447 3434 972 4092 
Q 1497 4750 2381 4750 
Q 2619 4750 2861 4703 
Q 3103 4656 3366 4563 
z
" transform="scale(0.015625)"/>
       </defs>
       <use xlink:href="#DejaVuSans-19"/>
       <use xlink:href="#DejaVuSans-13" transform="translate(63.625 0)"/>
       <use xlink:href="#DejaVuSans-13" transform="translate(127.25 0)"/>
      </g>
     </g>
    </g>
    <g id="xtick_26">
     <g id="line2d_34">
      <g>
       <use xlink:href="#ma7bf406b13" x="280.266766" y="294.198739" style="stroke: #000000; stroke-width: 0.8"/>
      </g>
     </g>
     <g id="text_16">
      <!-- 700 -->
      <g transform="translate(270.723016 308.796395) scale(0.1 -0.1)">
       <defs>
        <path id="DejaVuSans-1a" d="M 525 4666 
L 3525 4666 
L 3525 4397 
L 1831 0 
L 1172 0 
L 2766 4134 
L 525 4134 
L 525 4666 
z
" transform="scale(0.015625)"/>
       </defs>
       <use xlink:href="#DejaVuSans-1a"/>
       <use xlink:href="#DejaVuSans-13" transform="translate(63.625 0)"/>
       <use xlink:href="#DejaVuSans-13" transform="translate(127.25 0)"/>
      </g>
     </g>
    </g>
    <g id="xtick_27">
     <g id="line2d_35">
      <g>
       <use xlink:href="#ma7bf406b13" x="312.179021" y="294.198739" style="stroke: #000000; stroke-width: 0.8"/>
      </g>
     </g>
     <g id="text_17">
      <!-- 800 -->
      <g transform="translate(302.635271 308.796395) scale(0.1 -0.1)">
       <defs>
        <path id="DejaVuSans-1b" d="M 2034 2216 
Q 1584 2216 1326 1975 
Q 1069 1734 1069 1313 
Q 1069 891 1326 650 
Q 1584 409 2034 409 
Q 2484 409 2743 651 
Q 3003 894 3003 1313 
Q 3003 1734 2745 1975 
Q 2488 2216 2034 2216 
z
M 1403 2484 
Q 997 2584 770 2862 
Q 544 3141 544 3541 
Q 544 4100 942 4425 
Q 1341 4750 2034 4750 
Q 2731 4750 3128 4425 
Q 3525 4100 3525 3541 
Q 3525 3141 3298 2862 
Q 3072 2584 2669 2484 
Q 3125 2378 3379 2068 
Q 3634 1759 3634 1313 
Q 3634 634 3220 271 
Q 2806 -91 2034 -91 
Q 1263 -91 848 271 
Q 434 634 434 1313 
Q 434 1759 690 2068 
Q 947 2378 1403 2484 
z
M 1172 3481 
Q 1172 3119 1398 2916 
Q 1625 2713 2034 2713 
Q 2441 2713 2670 2916 
Q 2900 3119 2900 3481 
Q 2900 3844 2670 4047 
Q 2441 4250 2034 4250 
Q 1625 4250 1398 4047 
Q 1172 3844 1172 3481 
z
" transform="scale(0.015625)"/>
       </defs>
       <use xlink:href="#DejaVuSans-1b"/>
       <use xlink:href="#DejaVuSans-13" transform="translate(63.625 0)"/>
       <use xlink:href="#DejaVuSans-13" transform="translate(127.25 0)"/>
      </g>
     </g>
    </g>
    <g id="text_18">
     <!-- Time -->
     <g transform="translate(172.415776 322.797176) scale(0.1 -0.1)">
      <defs>
       <path id="DejaVuSans-37" d="M -19 4666 
L 3928 4666 
L 3928 4134 
L 2272 4134 
L 2272 0 
L 1638 0 
L 1638 4134 
L -19 4134 
L -19 4666 
z
" transform="scale(0.015625)"/>
       <path id="DejaVuSans-4c" d="M 603 3500 
L 1178 3500 
L 1178 0 
L 603 0 
L 603 3500 
z
M 603 4863 
L 1178 4863 
L 1178 4134 
L 603 4134 
L 603 4863 
z
" transform="scale(0.015625)"/>
       <path id="DejaVuSans-50" d="M 3328 2828 
Q 3544 3216 3844 3400 
Q 4144 3584 4550 3584 
Q 5097 3584 5394 3201 
Q 5691 2819 5691 2113 
L 5691 0 
L 5113 0 
L 5113 2094 
Q 5113 2597 4934 2840 
Q 4756 3084 4391 3084 
Q 3944 3084 3684 2787 
Q 3425 2491 3425 1978 
L 3425 0 
L 2847 0 
L 2847 2094 
Q 2847 2600 2669 2842 
Q 2491 3084 2119 3084 
Q 1678 3084 1418 2786 
Q 1159 2488 1159 1978 
L 1159 0 
L 581 0 
L 581 3500 
L 1159 3500 
L 1159 2956 
Q 1356 3278 1631 3431 
Q 1906 3584 2284 3584 
Q 2666 3584 2933 3390 
Q 3200 3197 3328 2828 
z
" transform="scale(0.015625)"/>
      </defs>
      <use xlink:href="#DejaVuSans-37"/>
      <use xlink:href="#DejaVuSans-4c" transform="translate(58 0)"/>
      <use xlink:href="#DejaVuSans-50" transform="translate(85.78125 0)"/>
      <use xlink:href="#DejaVuSans-48" transform="translate(183.1875 0)"/>
     </g>
    </g>
   </g>
   <g id="matplotlib.axis_6">
    <g id="ytick_7">
     <g id="line2d_36">
      <g>
       <use xlink:href="#m14aab64116" x="44.103906" y="290.138166" style="stroke: #000000; stroke-width: 0.8"/>
      </g>
     </g>
     <g id="text_19">
      <!-- 0.0 -->
      <g transform="translate(21.200781 293.936994) scale(0.1 -0.1)">
       <defs>
        <path id="DejaVuSans-11" d="M 684 794 
L 1344 794 
L 1344 0 
L 684 0 
L 684 794 
z
" transform="scale(0.015625)"/>
       </defs>
       <use xlink:href="#DejaVuSans-13"/>
       <use xlink:href="#DejaVuSans-11" transform="translate(63.625 0)"/>
       <use xlink:href="#DejaVuSans-13" transform="translate(95.40625 0)"/>
      </g>
     </g>
    </g>
    <g id="ytick_8">
     <g id="line2d_37">
      <g>
       <use xlink:href="#m14aab64116" x="44.103906" y="249.532442" style="stroke: #000000; stroke-width: 0.8"/>
      </g>
     </g>
     <g id="text_20">
      <!-- 0.5 -->
      <g transform="translate(21.200781 253.33127) scale(0.1 -0.1)">
       <use xlink:href="#DejaVuSans-13"/>
       <use xlink:href="#DejaVuSans-11" transform="translate(63.625 0)"/>
       <use xlink:href="#DejaVuSans-18" transform="translate(95.40625 0)"/>
      </g>
     </g>
    </g>
    <g id="ytick_9">
     <g id="line2d_38">
      <g>
       <use xlink:href="#m14aab64116" x="44.103906" y="208.926718" style="stroke: #000000; stroke-width: 0.8"/>
      </g>
     </g>
     <g id="text_21">
      <!-- 1.0 -->
      <g transform="translate(21.200781 212.725546) scale(0.1 -0.1)">
       <use xlink:href="#DejaVuSans-14"/>
       <use xlink:href="#DejaVuSans-11" transform="translate(63.625 0)"/>
       <use xlink:href="#DejaVuSans-13" transform="translate(95.40625 0)"/>
      </g>
     </g>
    </g>
    <g id="text_22">
     <!-- Free lac operon -->
     <g transform="translate(14.798438 288.006661) rotate(-90) scale(0.1 -0.1)">
      <defs>
       <path id="DejaVuSans-29" d="M 628 4666 
L 3309 4666 
L 3309 4134 
L 1259 4134 
L 1259 2759 
L 3109 2759 
L 3109 2228 
L 1259 2228 
L 1259 0 
L 628 0 
L 628 4666 
z
" transform="scale(0.015625)"/>
       <path id="DejaVuSans-53" d="M 1159 525 
L 1159 -1331 
L 581 -1331 
L 581 3500 
L 1159 3500 
L 1159 2969 
Q 1341 3281 1617 3432 
Q 1894 3584 2278 3584 
Q 2916 3584 3314 3078 
Q 3713 2572 3713 1747 
Q 3713 922 3314 415 
Q 2916 -91 2278 -91 
Q 1894 -91 1617 61 
Q 1341 213 1159 525 
z
M 3116 1747 
Q 3116 2381 2855 2742 
Q 2594 3103 2138 3103 
Q 1681 3103 1420 2742 
Q 1159 2381 1159 1747 
Q 1159 1113 1420 752 
Q 1681 391 2138 391 
Q 2594 391 2855 752 
Q 3116 1113 3116 1747 
z
" transform="scale(0.015625)"/>
       <path id="DejaVuSans-51" d="M 3513 2113 
L 3513 0 
L 2938 0 
L 2938 2094 
Q 2938 2591 2744 2837 
Q 2550 3084 2163 3084 
Q 1697 3084 1428 2787 
Q 1159 2491 1159 1978 
L 1159 0 
L 581 0 
L 581 3500 
L 1159 3500 
L 1159 2956 
Q 1366 3272 1645 3428 
Q 1925 3584 2291 3584 
Q 2894 3584 3203 3211 
Q 3513 2838 3513 2113 
z
" transform="scale(0.015625)"/>
      </defs>
      <use xlink:href="#DejaVuSans-29"/>
      <use xlink:href="#DejaVuSans-55" transform="translate(50.234375 0)"/>
      <use xlink:href="#DejaVuSans-48" transform="translate(89.140625 0)"/>
      <use xlink:href="#DejaVuSans-48" transform="translate(150.671875 0)"/>
      <use xlink:href="#DejaVuSans-3" transform="translate(212.203125 0)"/>
      <use xlink:href="#DejaVuSans-4f" transform="translate(243.984375 0)"/>
      <use xlink:href="#DejaVuSans-44" transform="translate(271.765625 0)"/>
      <use xlink:href="#DejaVuSans-46" transform="translate(333.046875 0)"/>
      <use xlink:href="#DejaVuSans-3" transform="translate(388.03125 0)"/>
      <use xlink:href="#DejaVuSans-52" transform="translate(419.8125 0)"/>
      <use xlink:href="#DejaVuSans-53" transform="translate(481 0)"/>
      <use xlink:href="#DejaVuSans-48" transform="translate(544.484375 0)"/>
      <use xlink:href="#DejaVuSans-55" transform="translate(606.015625 0)"/>
      <use xlink:href="#DejaVuSans-52" transform="translate(644.921875 0)"/>
      <use xlink:href="#DejaVuSans-51" transform="translate(706.109375 0)"/>
     </g>
    </g>
   </g>
   <g id="line2d_39">
    <path d="M 56.88098 208.926718 
L 56.9626 290.138166 
L 57.131106 290.138166 
L 57.300905 208.926718 
L 57.419226 208.926718 
L 57.52149 290.138166 
L 58.739345 290.138166 
L 59.730473 208.926718 
L 59.917058 208.926718 
L 59.939832 290.138166 
L 62.364422 290.138166 
L 64.96231 208.926718 
L 65.257588 208.926718 
L 65.395211 290.138166 
L 65.521247 290.138166 
L 72.192322 208.926718 
L 72.362331 290.138166 
L 80.212094 208.926718 
L 80.261195 290.138166 
L 82.891067 208.926718 
L 83.031238 208.926718 
L 83.085471 290.138166 
L 84.82806 290.138166 
L 84.893578 208.926718 
L 85.771003 208.926718 
L 85.961226 290.138166 
L 86.995404 290.138166 
L 89.991874 208.926718 
L 90.532577 208.926718 
L 90.561894 290.138166 
L 90.920264 290.138166 
L 91.802794 208.926718 
L 91.861316 290.138166 
L 92.205602 290.138166 
L 109.302483 208.926718 
L 109.316202 290.138166 
L 109.574999 290.138166 
L 109.851483 208.926718 
L 110.139206 290.138166 
L 110.26744 208.926718 
L 110.675714 208.926718 
L 110.880559 290.138166 
L 111.173575 290.138166 
L 115.341049 208.926718 
L 116.002518 290.138166 
L 117.64665 208.926718 
L 117.962283 290.138166 
L 118.635564 208.926718 
L 118.723 290.138166 
L 119.733646 208.926718 
L 119.818664 290.138166 
L 123.766514 290.138166 
L 129.793023 208.926718 
L 129.899105 290.138166 
L 131.643595 208.926718 
L 132.094961 208.926718 
L 132.116429 290.138166 
L 133.959062 290.138166 
L 136.558006 208.926718 
L 136.57133 290.138166 
L 139.456054 208.926718 
L 139.498839 290.138166 
L 146.551098 208.926718 
L 147.496622 208.926718 
L 147.565022 290.138166 
L 148.182231 290.138166 
L 148.427576 208.926718 
L 148.742854 208.926718 
L 148.855744 290.138166 
L 149.927711 290.138166 
L 150.439791 208.926718 
L 150.540671 290.138166 
L 151.663188 290.138166 
L 151.674523 208.926718 
L 151.836265 290.138166 
L 156.150225 208.926718 
L 156.239271 290.138166 
L 156.488905 208.926718 
L 207.757809 208.926718 
L 207.796236 290.138166 
L 209.588959 290.138166 
L 210.581454 208.926718 
L 216.291958 208.926718 
L 216.426311 290.138166 
L 216.585576 208.926718 
L 216.647858 290.138166 
L 216.881933 208.926718 
L 216.958568 290.138166 
L 217.584137 208.926718 
L 217.904266 290.138166 
L 224.008705 208.926718 
L 224.249934 290.138166 
L 228.70674 208.926718 
L 228.727247 290.138166 
L 230.607637 208.926718 
L 237.144154 208.926718 
L 237.151166 290.138166 
L 239.493264 290.138166 
L 240.780226 208.926718 
L 242.498059 208.926718 
L 242.723811 290.138166 
L 250.061763 290.138166 
L 264.453766 208.926718 
L 265.30685 208.926718 
L 265.527707 290.138166 
L 266.124891 290.138166 
L 268.421943 208.926718 
L 268.491843 208.926718 
L 268.77219 290.138166 
L 269.214353 208.926718 
L 269.531841 290.138166 
L 270.294777 208.926718 
L 270.687496 208.926718 
L 270.781609 290.138166 
L 271.801691 290.138166 
L 273.526724 208.926718 
L 274.741766 208.926718 
L 274.806166 290.138166 
L 275.233655 290.138166 
L 282.483192 208.926718 
L 282.92226 290.138166 
L 283.028294 208.926718 
L 283.386427 208.926718 
L 283.432747 290.138166 
L 283.869881 208.926718 
L 284.0067 208.926718 
L 284.059515 290.138166 
L 284.327617 290.138166 
L 284.335609 208.926718 
L 284.388179 290.138166 
L 284.793061 290.138166 
L 285.204512 208.926718 
L 285.498377 208.926718 
L 285.593709 290.138166 
L 287.26173 208.926718 
L 287.345244 290.138166 
L 294.279538 208.926718 
L 294.957637 208.926718 
L 295.090283 290.138166 
L 296.958525 290.138166 
L 302.601468 208.926718 
L 303.172455 290.138166 
L 311.822769 208.926718 
L 312.096567 208.926718 
L 312.160934 290.138166 
L 312.422447 290.138166 
L 312.422447 290.138166 
" clip-path="url(#pafb2fc34b6)" style="fill: none; stroke: #000000; stroke-width: 1.5; stroke-linecap: square"/>
   </g>
   <g id="patch_13">
    <path d="M 44.103906 294.198739 
L 44.103906 204.866146 
" style="fill: none; stroke: #000000; stroke-width: 0.8; stroke-linejoin: miter; stroke-linecap: square"/>
   </g>
   <g id="patch_14">
    <path d="M 325.19952 294.198739 
L 325.19952 204.866146 
" style="fill: none; stroke: #000000; stroke-width: 0.8; stroke-linejoin: miter; stroke-linecap: square"/>
   </g>
   <g id="patch_15">
    <path d="M 44.103906 294.198739 
L 325.19952 294.198739 
" style="fill: none; stroke: #000000; stroke-width: 0.8; stroke-linejoin: miter; stroke-linecap: square"/>
   </g>
   <g id="patch_16">
    <path d="M 44.103906 204.866146 
L 325.19952 204.866146 
" style="fill: none; stroke: #000000; stroke-width: 0.8; stroke-linejoin: miter; stroke-linecap: square"/>
   </g>
  </g>
 </g>
 <defs>
  <clipPath id="p65c4a54c6f">
   <rect x="44.103906" y="7.2" width="281.095614" height="89.332593"/>
  </clipPath>
  <clipPath id="p0ce660deb1">
   <rect x="44.103906" y="106.033073" width="281.095614" height="89.332593"/>
  </clipPath>
  <clipPath id="pafb2fc34b6">
   <rect x="44.103906" y="204.866146" width="281.095614" height="89.332593"/>
  </clipPath>
 </defs>
</svg>
