<?xml version="1.0" encoding="utf-8" standalone="no"?>
<!DOCTYPE svg PUBLIC "-//W3C//DTD SVG 1.1//EN"
  "http://www.w3.org/Graphics/SVG/1.1/DTD/svg11.dtd">
<svg xmlns:xlink="http://www.w3.org/1999/xlink" width="332.39952pt" height="338.705099pt" viewBox="0 0 332.39952 338.705099" xmlns="http://www.w3.org/2000/svg" version="1.1">
 <metadata>
  <rdf:RDF xmlns:dc="http://purl.org/dc/elements/1.1/" xmlns:cc="http://creativecommons.org/ns#" xmlns:rdf="http://www.w3.org/1999/02/22-rdf-syntax-ns#">
   <cc:Work>
    <dc:type rdf:resource="http://purl.org/dc/dcmitype/StillImage"/>
    <dc:date>2026-07-22T04:27:46.524989</dc:date>
    <dc:format>image/svg+xml</dc:format>
    <dc:creator>
     <cc:Agent>
      <dc:title>Matplotlib v3.11.1, https://matplotlib.org/</dc:title>
     </cc:Agent>
    </dc:creator>
   </cc:Work>
  </rdf:RDF>
 </metadata>
 <defs>
  <style type="text/css">*{stroke-linejoin: round; stroke-linecap: butt}</style>
 </defs>
 <g id="figure_1">
  <g id="patch_1">
   <path d="M 0 338.705099 
L 332.39952 338.705099 
L 332.39952 0 
L 0 0 
z
" style="fill: #ffffff"/>
  </g>
  <g id="axes_1">
   <g id="patch_2">
    <path d="M 44.103906 102.838171 
L 325.19952 102.838171 
L 325.19952 13.505579 
L 44.103906 13.505579 
z
" style="fill: #ffffff"/>
   </g>
   <g id="matplotlib.axis_1">
    <g id="xtick_1">
     <g id="line2d_1">
      <defs>
       <path id="m373ee3c3ba" d="M 0 0 
L 0 3.5 
" style="stroke: #000000; stroke-width: 0.8"/>
      </defs>
      <g>
       <use xlink:href="#m373ee3c3ba" x="56.88098" y="102.838171" style="stroke: #000000; stroke-width: 0.8"/>
      </g>
     </g>
    </g>
    <g id="xtick_2">
     <g id="line2d_2">
      <g>
       <use xlink:href="#m373ee3c3ba" x="88.592671" y="102.838171" style="stroke: #000000; stroke-width: 0.8"/>
      </g>
     </g>
    </g>
    <g id="xtick_3">
     <g id="line2d_3">
      <g>
       <use xlink:href="#m373ee3c3ba" x="120.304362" y="102.838171" style="stroke: #000000; stroke-width: 0.8"/>
      </g>
     </g>
    </g>
    <g id="xtick_4">
     <g id="line2d_4">
      <g>
       <use xlink:href="#m373ee3c3ba" x="152.016054" y="102.838171" style="stroke: #000000; stroke-width: 0.8"/>
      </g>
     </g>
    </g>
    <g id="xtick_5">
     <g id="line2d_5">
      <g>
       <use xlink:href="#m373ee3c3ba" x="183.727745" y="102.838171" style="stroke: #000000; stroke-width: 0.8"/>
      </g>
     </g>
    </g>
    <g id="xtick_6">
     <g id="line2d_6">
      <g>
       <use xlink:href="#m373ee3c3ba" x="215.439436" y="102.838171" style="stroke: #000000; stroke-width: 0.8"/>
      </g>
     </g>
    </g>
    <g id="xtick_7">
     <g id="line2d_7">
      <g>
       <use xlink:href="#m373ee3c3ba" x="247.151128" y="102.838171" style="stroke: #000000; stroke-width: 0.8"/>
      </g>
     </g>
    </g>
    <g id="xtick_8">
     <g id="line2d_8">
      <g>
       <use xlink:href="#m373ee3c3ba" x="278.862819" y="102.838171" style="stroke: #000000; stroke-width: 0.8"/>
      </g>
     </g>
    </g>
    <g id="xtick_9">
     <g id="line2d_9">
      <g>
       <use xlink:href="#m373ee3c3ba" x="310.57451" y="102.838171" style="stroke: #000000; stroke-width: 0.8"/>
      </g>
     </g>
    </g>
   </g>
   <g id="matplotlib.axis_2">
    <g id="ytick_1">
     <g id="line2d_10">
      <defs>
       <path id="me5c8480e2c" d="M 0 0 
L -3.5 0 
" style="stroke: #000000; stroke-width: 0.8"/>
      </defs>
      <g>
       <use xlink:href="#me5c8480e2c" x="44.103906" y="98.777599" style="stroke: #000000; stroke-width: 0.8"/>
      </g>
     </g>
     <g id="text_1">
      <!-- 0 -->
      <g transform="translate(30.741406 102.576427) scale(0.1 -0.1)">
       <defs>
        <path id="DejaVuSans-13" d="M 2034 4250 
Q 1547 4250 1301 3770 
Q 1056 3291 1056 2328 
Q 1056 1369 1301 889 
Q 1547 409 2034 409 
Q 2525 409 2770 889 
Q 3016 1369 3016 2328 
Q 3016 3291 2770 3770 
Q 2525 4250 2034 4250 
z
M 2034 4750 
Q 2819 4750 3233 4129 
Q 3647 3509 3647 2328 
Q 3647 1150 3233 529 
Q 2819 -91 2034 -91 
Q 1250 -91 836 529 
Q 422 1150 422 2328 
Q 422 3509 836 4129 
Q 1250 4750 2034 4750 
z
" transform="scale(0.015625)"/>
       </defs>
       <use xlink:href="#DejaVuSans-13"/>
      </g>
     </g>
    </g>
    <g id="ytick_2">
     <g id="line2d_11">
      <g>
       <use xlink:href="#me5c8480e2c" x="44.103906" y="58.171875" style="stroke: #000000; stroke-width: 0.8"/>
      </g>
     </g>
     <g id="text_2">
      <!-- 5 -->
      <g transform="translate(30.741406 61.970703) scale(0.1 -0.1)">
       <defs>
        <path id="DejaVuSans-18" d="M 691 4666 
L 3169 4666 
L 3169 4134 
L 1269 4134 
L 1269 2991 
Q 1406 3038 1543 3061 
Q 1681 3084 1819 3084 
Q 2600 3084 3056 2656 
Q 3513 2228 3513 1497 
Q 3513 744 3044 326 
Q 2575 -91 1722 -91 
Q 1428 -91 1123 -41 
Q 819 9 494 109 
L 494 744 
Q 775 591 1075 516 
Q 1375 441 1709 441 
Q 2250 441 2565 725 
Q 2881 1009 2881 1497 
Q 2881 1984 2565 2268 
Q 2250 2553 1709 2553 
Q 1456 2553 1204 2497 
Q 953 2441 691 2322 
L 691 4666 
z
" transform="scale(0.015625)"/>
       </defs>
       <use xlink:href="#DejaVuSans-18"/>
      </g>
     </g>
    </g>
    <g id="ytick_3">
     <g id="line2d_12">
      <g>
       <use xlink:href="#me5c8480e2c" x="44.103906" y="17.566151" style="stroke: #000000; stroke-width: 0.8"/>
      </g>
     </g>
     <g id="text_3">
      <!-- 10 -->
      <g transform="translate(24.378906 21.364979) scale(0.1 -0.1)">
       <defs>
        <path id="DejaVuSans-14" d="M 794 531 
L 1825 531 
L 1825 4091 
L 703 3866 
L 703 4441 
L 1819 4666 
L 2450 4666 
L 2450 531 
L 3481 531 
L 3481 0 
L 794 0 
L 794 531 
z
" transform="scale(0.015625)"/>
       </defs>
       <use xlink:href="#DejaVuSans-14"/>
       <use xlink:href="#DejaVuSans-13" transform="translate(63.625 0)"/>
      </g>
     </g>
    </g>
    <g id="text_4">
     <!-- Extracellular lactose -->
     <g transform="translate(17.976563 109.14375) rotate(-90) scale(0.1 -0.1)">
      <defs>
       <path id="DejaVuSans-28" d="M 628 4666 
L 3578 4666 
L 3578 4134 
L 1259 4134 
L 1259 2753 
L 3481 2753 
L 3481 2222 
L 1259 2222 
L 1259 531 
L 3634 531 
L 3634 0 
L 628 0 
L 628 4666 
z
" transform="scale(0.015625)"/>
       <path id="DejaVuSans-5b" d="M 3513 3500 
L 2247 1797 
L 3578 0 
L 2900 0 
L 1881 1375 
L 863 0 
L 184 0 
L 1544 1831 
L 300 3500 
L 978 3500 
L 1906 2253 
L 2834 3500 
L 3513 3500 
z
" transform="scale(0.015625)"/>
       <path id="DejaVuSans-57" d="M 1172 4494 
L 1172 3500 
L 2356 3500 
L 2356 3053 
L 1172 3053 
L 1172 1153 
Q 1172 725 1289 603 
Q 1406 481 1766 481 
L 2356 481 
L 2356 0 
L 1766 0 
Q 1100 0 847 248 
Q 594 497 594 1153 
L 594 3053 
L 172 3053 
L 172 3500 
L 594 3500 
L 594 4494 
L 1172 4494 
z
" transform="scale(0.015625)"/>
       <path id="DejaVuSans-55" d="M 2631 2963 
Q 2534 3019 2420 3045 
Q 2306 3072 2169 3072 
Q 1681 3072 1420 2755 
Q 1159 2438 1159 1844 
L 1159 0 
L 581 0 
L 581 3500 
L 1159 3500 
L 1159 2956 
Q 1341 3275 1631 3429 
Q 1922 3584 2338 3584 
Q 2397 3584 2469 3576 
Q 2541 3569 2628 3553 
L 2631 2963 
z
" transform="scale(0.015625)"/>
       <path id="DejaVuSans-44" d="M 2194 1759 
Q 1497 1759 1228 1600 
Q 959 1441 959 1056 
Q 959 750 1161 570 
Q 1363 391 1709 391 
Q 2188 391 2477 730 
Q 2766 1069 2766 1631 
L 2766 1759 
L 2194 1759 
z
M 3341 1997 
L 3341 0 
L 2766 0 
L 2766 531 
Q 2569 213 2275 61 
Q 1981 -91 1556 -91 
Q 1019 -91 701 211 
Q 384 513 384 1019 
Q 384 1609 779 1909 
Q 1175 2209 1959 2209 
L 2766 2209 
L 2766 2266 
Q 2766 2663 2505 2880 
Q 2244 3097 1772 3097 
Q 1472 3097 1187 3025 
Q 903 2953 641 2809 
L 641 3341 
Q 956 3463 1253 3523 
Q 1550 3584 1831 3584 
Q 2591 3584 2966 3190 
Q 3341 2797 3341 1997 
z
" transform="scale(0.015625)"/>
       <path id="DejaVuSans-46" d="M 3122 3366 
L 3122 2828 
Q 2878 2963 2633 3030 
Q 2388 3097 2138 3097 
Q 1578 3097 1268 2742 
Q 959 2388 959 1747 
Q 959 1106 1268 751 
Q 1578 397 2138 397 
Q 2388 397 2633 464 
Q 2878 531 3122 666 
L 3122 134 
Q 2881 22 2623 -34 
Q 2366 -91 2075 -91 
Q 1284 -91 818 406 
Q 353 903 353 1747 
Q 353 2603 823 3093 
Q 1294 3584 2113 3584 
Q 2378 3584 2631 3529 
Q 2884 3475 3122 3366 
z
" transform="scale(0.015625)"/>
       <path id="DejaVuSans-48" d="M 3597 1894 
L 3597 1613 
L 953 1613 
Q 991 1019 1311 708 
Q 1631 397 2203 397 
Q 2534 397 2845 478 
Q 3156 559 3463 722 
L 3463 178 
Q 3153 47 2828 -22 
Q 2503 -91 2169 -91 
Q 1331 -91 842 396 
Q 353 884 353 1716 
Q 353 2575 817 3079 
Q 1281 3584 2069 3584 
Q 2775 3584 3186 3129 
Q 3597 2675 3597 1894 
z
M 3022 2063 
Q 3016 2534 2758 2815 
Q 2500 3097 2075 3097 
Q 1594 3097 1305 2825 
Q 1016 2553 972 2059 
L 3022 2063 
z
" transform="scale(0.015625)"/>
       <path id="DejaVuSans-4f" d="M 603 4863 
L 1178 4863 
L 1178 0 
L 603 0 
L 603 4863 
z
" transform="scale(0.015625)"/>
       <path id="DejaVuSans-58" d="M 544 1381 
L 544 3500 
L 1119 3500 
L 1119 1403 
Q 1119 906 1312 657 
Q 1506 409 1894 409 
Q 2359 409 2629 706 
Q 2900 1003 2900 1516 
L 2900 3500 
L 3475 3500 
L 3475 0 
L 2900 0 
L 2900 538 
Q 2691 219 2414 64 
Q 2138 -91 1772 -91 
Q 1169 -91 856 284 
Q 544 659 544 1381 
z
M 1991 3584 
L 1991 3584 
z
" transform="scale(0.015625)"/>
       <path id="DejaVuSans-3" transform="scale(0.015625)"/>
       <path id="DejaVuSans-52" d="M 1959 3097 
Q 1497 3097 1228 2736 
Q 959 2375 959 1747 
Q 959 1119 1226 758 
Q 1494 397 1959 397 
Q 2419 397 2687 759 
Q 2956 1122 2956 1747 
Q 2956 2369 2687 2733 
Q 2419 3097 1959 3097 
z
M 1959 3584 
Q 2709 3584 3137 3096 
Q 3566 2609 3566 1747 
Q 3566 888 3137 398 
Q 2709 -91 1959 -91 
Q 1206 -91 779 398 
Q 353 888 353 1747 
Q 353 2609 779 3096 
Q 1206 3584 1959 3584 
z
" transform="scale(0.015625)"/>
       <path id="DejaVuSans-56" d="M 2834 3397 
L 2834 2853 
Q 2591 2978 2328 3040 
Q 2066 3103 1784 3103 
Q 1356 3103 1142 2972 
Q 928 2841 928 2578 
Q 928 2378 1081 2264 
Q 1234 2150 1697 2047 
L 1894 2003 
Q 2506 1872 2764 1633 
Q 3022 1394 3022 966 
Q 3022 478 2636 193 
Q 2250 -91 1575 -91 
Q 1294 -91 989 -36 
Q 684 19 347 128 
L 347 722 
Q 666 556 975 473 
Q 1284 391 1588 391 
Q 1994 391 2212 530 
Q 2431 669 2431 922 
Q 2431 1156 2273 1281 
Q 2116 1406 1581 1522 
L 1381 1569 
Q 847 1681 609 1914 
Q 372 2147 372 2553 
Q 372 3047 722 3315 
Q 1072 3584 1716 3584 
Q 2034 3584 2315 3537 
Q 2597 3491 2834 3397 
z
" transform="scale(0.015625)"/>
      </defs>
      <use xlink:href="#DejaVuSans-28"/>
      <use xlink:href="#DejaVuSans-5b" transform="translate(63.1875 0)"/>
      <use xlink:href="#DejaVuSans-57" transform="translate(122.375 0)"/>
      <use xlink:href="#DejaVuSans-55" transform="translate(161.578125 0)"/>
      <use xlink:href="#DejaVuSans-44" transform="translate(202.6875 0)"/>
      <use xlink:href="#DejaVuSans-46" transform="translate(263.96875 0)"/>
      <use xlink:href="#DejaVuSans-48" transform="translate(318.953125 0)"/>
      <use xlink:href="#DejaVuSans-4f" transform="translate(380.484375 0)"/>
      <use xlink:href="#DejaVuSans-4f" transform="translate(408.265625 0)"/>
      <use xlink:href="#DejaVuSans-58" transform="translate(436.046875 0)"/>
      <use xlink:href="#DejaVuSans-4f" transform="translate(499.421875 0)"/>
      <use xlink:href="#DejaVuSans-44" transform="translate(527.203125 0)"/>
      <use xlink:href="#DejaVuSans-55" transform="translate(588.484375 0)"/>
      <use xlink:href="#DejaVuSans-3" transform="translate(629.59375 0)"/>
      <use xlink:href="#DejaVuSans-4f" transform="translate(661.375 0)"/>
      <use xlink:href="#DejaVuSans-44" transform="translate(689.15625 0)"/>
      <use xlink:href="#DejaVuSans-46" transform="translate(750.4375 0)"/>
      <use xlink:href="#DejaVuSans-57" transform="translate(805.421875 0)"/>
      <use xlink:href="#DejaVuSans-52" transform="translate(844.625 0)"/>
      <use xlink:href="#DejaVuSans-56" transform="translate(905.8125 0)"/>
      <use xlink:href="#DejaVuSans-48" transform="translate(957.90625 0)"/>
     </g>
    </g>
   </g>
   <g id="line2d_13">
    <path d="M 56.88098 98.777599 
L 155.526332 98.777599 
L 155.614819 17.566151 
L 156.278226 17.647362 
L 156.395106 17.972208 
L 156.439614 18.05342 
L 156.584805 19.515226 
L 156.702334 21.139455 
L 156.716068 21.220666 
L 156.858596 22.926107 
L 156.881984 23.007318 
L 157.388068 26.49941 
L 157.663396 26.905467 
L 157.722282 26.986679 
L 157.830709 27.06789 
L 158.278213 27.149102 
L 158.374408 27.555159 
L 158.610814 27.961216 
L 158.71029 28.367274 
L 158.82967 28.448485 
L 158.93146 28.935754 
L 158.961184 29.016965 
L 159.069219 29.910291 
L 159.165607 30.803617 
L 159.501485 32.184212 
L 159.547048 32.265423 
L 159.802883 33.727229 
L 159.918622 34.701766 
L 159.932283 34.782978 
L 160.247415 37.381744 
L 160.782908 39.655665 
L 160.909793 40.305356 
L 161.012485 40.386568 
L 161.216591 41.361105 
L 161.281226 41.442317 
L 161.478194 42.17322 
L 162.042787 42.254431 
L 162.185131 42.7417 
L 162.208606 42.822911 
L 162.375634 43.228969 
L 162.584971 43.31018 
L 162.727747 43.87866 
L 162.874186 44.203506 
L 162.897167 44.284717 
L 162.99925 44.528352 
L 163.534648 45.746523 
L 163.641498 46.071369 
L 163.724767 46.152581 
L 163.86072 46.721061 
L 163.96778 47.451964 
L 164.214274 47.858021 
L 164.362617 47.939233 
L 164.499198 48.101655 
L 164.550203 48.182867 
L 164.799151 48.994981 
L 164.816349 49.076193 
L 164.988078 49.319827 
L 165.175477 49.401039 
L 165.293636 49.888307 
L 165.313079 49.969519 
L 165.427286 50.213153 
L 165.509054 50.294365 
L 165.625039 50.700422 
L 165.838552 51.025268 
L 165.911801 51.106479 
L 166.183452 52.811919 
L 166.289082 52.893131 
L 166.805012 55.167051 
L 166.904517 55.248263 
L 167.019773 55.897954 
L 167.20113 56.872492 
L 167.323467 56.953703 
L 167.664813 57.440972 
L 167.737726 57.522183 
L 167.830576 57.603395 
L 167.992537 57.847029 
L 168.22751 58.009452 
L 168.554943 58.090664 
L 168.774493 58.577932 
L 168.897977 58.902778 
L 168.917154 58.983989 
L 169.129657 60.12095 
L 169.162352 60.202161 
L 169.262583 60.770641 
L 169.317789 60.851853 
L 169.456467 61.339121 
L 169.51565 61.420333 
L 169.706138 63.044562 
L 169.732049 63.125773 
L 169.880865 64.831214 
L 170.732711 69.216632 
L 170.881637 69.297843 
L 170.964393 69.379055 
L 171.440196 69.785112 
L 171.543624 69.866324 
L 171.665683 70.353592 
L 171.907195 70.434804 
L 172.016821 70.840861 
L 172.075479 70.922072 
L 172.196848 71.409341 
L 172.222013 71.490552 
L 172.441916 72.46509 
L 172.50268 72.546301 
L 172.621559 73.114781 
L 172.850593 73.845684 
L 172.939862 73.926896 
L 173.033333 74.008107 
L 173.111262 74.089319 
L 173.221797 74.332953 
L 173.429203 74.414165 
L 174.568741 79.77412 
L 174.868763 79.855332 
L 174.979546 79.936543 
L 175.18288 80.017755 
L 175.306391 80.586235 
L 175.640602 81.235926 
L 175.922956 81.317138 
L 176.149625 81.479561 
L 179.013373 81.560772 
L 179.199558 81.641984 
L 179.602488 81.723195 
L 179.727182 82.048041 
L 179.766465 82.129252 
L 179.861308 82.210464 
L 180.067939 82.616521 
L 180.16898 82.697732 
L 180.307097 82.778944 
L 180.430781 83.022578 
L 180.546539 83.266212 
L 180.828205 83.834693 
L 180.970583 83.915904 
L 181.424163 85.134076 
L 181.92278 85.215287 
L 182.03565 85.37771 
L 182.340511 85.458922 
L 183.057042 86.108613 
L 183.197682 86.271036 
L 183.31504 86.352247 
L 183.426193 86.595882 
L 183.548319 86.677093 
L 183.621226 87.001939 
L 183.76606 87.326785 
L 183.815838 87.407996 
L 183.971479 87.570419 
L 184.057378 87.651631 
L 184.266199 88.138899 
L 184.422437 88.220111 
L 184.537457 88.382534 
L 185.322212 88.463745 
L 185.793263 88.869802 
L 185.890248 89.113437 
L 185.953596 89.194648 
L 186.104278 89.438283 
L 186.2887 89.519494 
L 186.393088 89.763128 
L 186.526815 89.84434 
L 186.69024 90.169186 
L 186.71901 90.250397 
L 186.8569 90.41282 
L 187.048749 90.494031 
L 187.211251 90.818877 
L 187.3413 90.900089 
L 187.774511 90.9813 
L 187.974959 91.143723 
L 188.702209 91.224934 
L 188.770644 91.306146 
L 189.471256 91.387357 
L 189.570835 91.54978 
L 190.486389 91.630992 
L 190.598488 91.712203 
L 191.411168 92.037049 
L 191.753263 92.11826 
L 191.848007 92.280683 
L 192.067059 92.361895 
L 192.162407 92.68674 
L 192.257307 92.767952 
L 192.333324 92.930375 
L 192.56966 93.011586 
L 192.718131 93.174009 
L 192.891717 93.255221 
L 192.995212 93.336432 
L 193.359878 93.580066 
L 193.550785 93.742489 
L 193.797379 93.823701 
L 194.051216 93.904912 
L 194.684953 93.986124 
L 195.059699 94.229758 
L 195.600056 94.310969 
L 195.746838 94.473392 
L 195.813477 94.554604 
L 196.014308 94.635815 
L 196.178813 94.87945 
L 196.599558 94.960661 
L 196.711246 95.123084 
L 198.196323 95.204295 
L 198.250291 95.285507 
L 198.555036 95.529141 
L 199.073396 95.610353 
L 199.176746 95.691564 
L 200.158242 95.772775 
L 200.249151 95.853987 
L 202.085484 95.935198 
L 202.20557 96.01641 
L 203.944891 96.097621 
L 204.243812 96.260044 
L 206.456109 96.341256 
L 206.64307 96.422467 
L 209.124386 96.503679 
L 209.699026 96.58489 
L 215.04588 96.747313 
L 245.17181 96.828524 
L 246.08148 96.909736 
L 275.405112 96.990947 
L 275.574744 97.15337 
L 312.422447 97.234582 
L 312.422447 97.234582 
" clip-path="url(#p9f3098ea22)" style="fill: none; stroke: #000000; stroke-width: 1.5; stroke-linecap: square"/>
   </g>
   <g id="patch_3">
    <path d="M 44.103906 102.838171 
L 44.103906 13.505579 
" style="fill: none; stroke: #000000; stroke-width: 0.8; stroke-linejoin: miter; stroke-linecap: square"/>
   </g>
   <g id="patch_4">
    <path d="M 325.19952 102.838171 
L 325.19952 13.505579 
" style="fill: none; stroke: #000000; stroke-width: 0.8; stroke-linejoin: miter; stroke-linecap: square"/>
   </g>
   <g id="patch_5">
    <path d="M 44.103906 102.838171 
L 325.19952 102.838171 
" style="fill: none; stroke: #000000; stroke-width: 0.8; stroke-linejoin: miter; stroke-linecap: square"/>
   </g>
   <g id="patch_6">
    <path d="M 44.103906 13.505579 
L 325.19952 13.505579 
" style="fill: none; stroke: #000000; stroke-width: 0.8; stroke-linejoin: miter; stroke-linecap: square"/>
   </g>
  </g>
  <g id="axes_2">
   <g id="patch_7">
    <path d="M 44.103906 201.671244 
L 325.19952 201.671244 
L 325.19952 112.338651 
L 44.103906 112.338651 
z
" style="fill: #ffffff"/>
   </g>
   <g id="matplotlib.axis_3">
    <g id="xtick_10">
     <g id="line2d_14">
      <g>
       <use xlink:href="#m373ee3c3ba" x="56.88098" y="201.671244" style="stroke: #000000; stroke-width: 0.8"/>
      </g>
     </g>
    </g>
    <g id="xtick_11">
     <g id="line2d_15">
      <g>
       <use xlink:href="#m373ee3c3ba" x="88.592671" y="201.671244" style="stroke: #000000; stroke-width: 0.8"/>
      </g>
     </g>
    </g>
    <g id="xtick_12">
     <g id="line2d_16">
      <g>
       <use xlink:href="#m373ee3c3ba" x="120.304362" y="201.671244" style="stroke: #000000; stroke-width: 0.8"/>
      </g>
     </g>
    </g>
    <g id="xtick_13">
     <g id="line2d_17">
      <g>
       <use xlink:href="#m373ee3c3ba" x="152.016054" y="201.671244" style="stroke: #000000; stroke-width: 0.8"/>
      </g>
     </g>
    </g>
    <g id="xtick_14">
     <g id="line2d_18">
      <g>
       <use xlink:href="#m373ee3c3ba" x="183.727745" y="201.671244" style="stroke: #000000; stroke-width: 0.8"/>
      </g>
     </g>
    </g>
    <g id="xtick_15">
     <g id="line2d_19">
      <g>
       <use xlink:href="#m373ee3c3ba" x="215.439436" y="201.671244" style="stroke: #000000; stroke-width: 0.8"/>
      </g>
     </g>
    </g>
    <g id="xtick_16">
     <g id="line2d_20">
      <g>
       <use xlink:href="#m373ee3c3ba" x="247.151128" y="201.671244" style="stroke: #000000; stroke-width: 0.8"/>
      </g>
     </g>
    </g>
    <g id="xtick_17">
     <g id="line2d_21">
      <g>
       <use xlink:href="#m373ee3c3ba" x="278.862819" y="201.671244" style="stroke: #000000; stroke-width: 0.8"/>
      </g>
     </g>
    </g>
    <g id="xtick_18">
     <g id="line2d_22">
      <g>
       <use xlink:href="#m373ee3c3ba" x="310.57451" y="201.671244" style="stroke: #000000; stroke-width: 0.8"/>
      </g>
     </g>
    </g>
   </g>
   <g id="matplotlib.axis_4">
    <g id="ytick_4">
     <g id="line2d_23">
      <g>
       <use xlink:href="#me5c8480e2c" x="44.103906" y="197.610672" style="stroke: #000000; stroke-width: 0.8"/>
      </g>
     </g>
     <g id="text_5">
      <!-- 0 -->
      <g transform="translate(30.741406 201.4095) scale(0.1 -0.1)">
       <use xlink:href="#DejaVuSans-13"/>
      </g>
     </g>
    </g>
    <g id="ytick_5">
     <g id="line2d_24">
      <g>
       <use xlink:href="#me5c8480e2c" x="44.103906" y="157.004948" style="stroke: #000000; stroke-width: 0.8"/>
      </g>
     </g>
     <g id="text_6">
      <!-- 5 -->
      <g transform="translate(30.741406 160.803776) scale(0.1 -0.1)">
       <use xlink:href="#DejaVuSans-18"/>
      </g>
     </g>
    </g>
    <g id="ytick_6">
     <g id="line2d_25">
      <g>
       <use xlink:href="#me5c8480e2c" x="44.103906" y="116.399224" style="stroke: #000000; stroke-width: 0.8"/>
      </g>
     </g>
     <g id="text_7">
      <!-- 10 -->
      <g transform="translate(24.378906 120.198052) scale(0.1 -0.1)">
       <use xlink:href="#DejaVuSans-14"/>
       <use xlink:href="#DejaVuSans-13" transform="translate(63.625 0)"/>
      </g>
     </g>
    </g>
    <g id="text_8">
     <!-- LacY -->
     <g transform="translate(17.976563 168.658073) rotate(-90) scale(0.1 -0.1)">
      <defs>
       <path id="DejaVuSans-2f" d="M 628 4666 
L 1259 4666 
L 1259 531 
L 3531 531 
L 3531 0 
L 628 0 
L 628 4666 
z
" transform="scale(0.015625)"/>
       <path id="DejaVuSans-3c" d="M -13 4666 
L 666 4666 
L 1959 2747 
L 3244 4666 
L 3922 4666 
L 2272 2222 
L 2272 0 
L 1638 0 
L 1638 2222 
L -13 4666 
z
" transform="scale(0.015625)"/>
      </defs>
      <use xlink:href="#DejaVuSans-2f"/>
      <use xlink:href="#DejaVuSans-44" transform="translate(55.71875 0)"/>
      <use xlink:href="#DejaVuSans-46" transform="translate(117 0)"/>
      <use xlink:href="#DejaVuSans-3c" transform="translate(171.984375 0)"/>
     </g>
    </g>
   </g>
   <g id="line2d_26">
    <path d="M 56.88098 116.399224 
L 56.907936 116.399224 
L 56.962087 124.520369 
L 57.069571 140.762658 
L 57.129534 148.883803 
L 57.280681 148.883803 
L 57.298266 140.762658 
L 57.517464 148.883803 
L 57.658435 148.883803 
L 57.82801 165.126093 
L 58.127014 181.368382 
L 58.19222 197.610672 
L 59.712565 197.610672 
L 59.878135 189.489527 
L 59.920607 197.610672 
L 64.91152 197.610672 
L 65.23244 189.489527 
L 65.3417 197.610672 
L 82.727597 197.610672 
L 82.920779 189.489527 
L 84.702791 197.610672 
L 84.717523 189.489527 
L 84.859827 181.368382 
L 84.864452 173.247238 
L 85.184583 181.368382 
L 85.410117 181.368382 
L 85.528996 197.610672 
L 85.589434 189.489527 
L 85.778461 189.489527 
L 85.916074 197.610672 
L 89.783777 197.610672 
L 90.171119 181.368382 
L 90.172412 173.247238 
L 90.667907 173.247238 
L 90.706332 189.489527 
L 91.47361 189.489527 
L 91.64147 181.368382 
L 91.983592 197.610672 
L 108.881623 197.610672 
L 108.986655 189.489527 
L 109.105608 189.489527 
L 109.243825 197.610672 
L 109.477347 197.610672 
L 109.518571 189.489527 
L 109.931914 189.489527 
L 110.279641 181.368382 
L 110.337622 189.489527 
L 110.511787 189.489527 
L 110.54118 197.610672 
L 119.245803 197.610672 
L 119.42311 189.489527 
L 121.510227 189.489527 
L 123.346148 197.610672 
L 131.065614 197.610672 
L 131.250717 189.489527 
L 131.536482 189.489527 
L 131.643585 197.610672 
L 135.952311 197.610672 
L 136.035519 189.489527 
L 136.057248 197.610672 
L 145.987534 197.610672 
L 146.246751 181.368382 
L 146.267453 189.489527 
L 146.29628 181.368382 
L 146.408685 173.247238 
L 146.413992 181.368382 
L 146.995086 181.368382 
L 147.608417 189.489527 
L 147.852219 189.489527 
L 148.165516 181.368382 
L 148.277696 181.368382 
L 149.342927 197.610672 
L 149.80023 197.610672 
L 149.851788 181.368382 
L 149.952034 181.368382 
L 150.103914 189.489527 
L 150.2368 189.489527 
L 150.776324 197.610672 
L 155.862884 197.610672 
L 156.2885 189.489527 
L 156.527296 157.004948 
L 156.807181 157.004948 
L 156.926541 173.247238 
L 156.976098 173.247238 
L 157.07637 165.126093 
L 157.162807 165.126093 
L 157.271931 181.368382 
L 157.299956 181.368382 
L 157.388068 189.489527 
L 157.737655 189.489527 
L 157.830709 197.610672 
L 158.227914 197.610672 
L 158.346105 189.489527 
L 158.49379 189.489527 
L 158.60764 181.368382 
L 158.739211 181.368382 
L 158.79416 189.489527 
L 158.848181 181.368382 
L 158.953482 181.368382 
L 159.06522 173.247238 
L 159.215703 173.247238 
L 159.33955 189.489527 
L 159.472508 189.489527 
L 159.594518 181.368382 
L 159.742352 181.368382 
L 159.879876 165.126093 
L 160.041284 165.126093 
L 160.109556 157.004948 
L 160.151795 165.126093 
L 160.235272 165.126093 
L 160.285486 157.004948 
L 160.337739 165.126093 
L 160.505249 165.126093 
L 160.613612 181.368382 
L 160.642366 181.368382 
L 160.672689 189.489527 
L 160.681014 173.247238 
L 160.74856 173.247238 
L 160.982057 173.247238 
L 161.093356 181.368382 
L 161.378749 181.368382 
L 161.478194 189.489527 
L 161.577407 189.489527 
L 161.68745 197.610672 
L 161.955766 197.610672 
L 162.102667 189.489527 
L 162.224851 189.489527 
L 162.338807 181.368382 
L 162.375634 181.368382 
L 162.483543 189.489527 
L 162.72419 189.489527 
L 162.776723 181.368382 
L 162.829372 189.489527 
L 163.16709 189.489527 
L 163.28486 181.368382 
L 163.290663 181.368382 
L 163.297837 173.247238 
L 163.367986 181.368382 
L 163.603625 181.368382 
L 163.655792 189.489527 
L 163.676641 181.368382 
L 163.821269 181.368382 
L 163.875795 173.247238 
L 163.918557 181.368382 
L 164.001766 181.368382 
L 164.031988 189.489527 
L 164.079792 181.368382 
L 164.316393 181.368382 
L 164.379761 189.489527 
L 164.572413 189.489527 
L 164.574302 197.610672 
L 164.678496 189.489527 
L 165.202759 189.489527 
L 165.313079 181.368382 
L 165.595597 181.368382 
L 165.733127 189.489527 
L 165.838552 189.489527 
L 166.046015 173.247238 
L 166.134208 173.247238 
L 166.143399 165.126093 
L 166.235149 173.247238 
L 166.276635 173.247238 
L 166.333297 181.368382 
L 166.387636 173.247238 
L 166.415404 173.247238 
L 166.527168 181.368382 
L 166.987136 181.368382 
L 167.08084 173.247238 
L 167.092724 181.368382 
L 167.511354 181.368382 
L 167.584146 189.489527 
L 167.615435 181.368382 
L 167.809823 181.368382 
L 167.91978 189.489527 
L 168.064117 189.489527 
L 168.17142 197.610672 
L 168.424694 197.610672 
L 168.60945 189.489527 
L 168.758533 189.489527 
L 168.875938 173.247238 
L 168.897977 173.247238 
L 169.016679 165.126093 
L 169.28542 165.126093 
L 169.325291 157.004948 
L 169.39331 165.126093 
L 169.446548 165.126093 
L 169.585602 140.762658 
L 169.70055 148.883803 
L 169.986583 148.883803 
L 170.08074 140.762658 
L 170.097383 148.883803 
L 170.12001 148.883803 
L 170.155248 140.762658 
L 170.217438 157.004948 
L 170.225123 157.004948 
L 170.260294 157.004948 
L 170.276448 165.126093 
L 170.36902 157.004948 
L 170.40246 148.883803 
L 170.470492 157.004948 
L 170.512635 157.004948 
L 170.601965 173.247238 
L 170.690967 173.247238 
L 170.808857 189.489527 
L 171.533812 189.489527 
L 171.648217 181.368382 
L 171.665683 181.368382 
L 171.81224 173.247238 
L 172.024905 173.247238 
L 172.127873 157.004948 
L 172.148373 165.126093 
L 172.291177 165.126093 
L 172.292498 157.004948 
L 172.400785 165.126093 
L 172.637339 165.126093 
L 172.732025 157.004948 
L 172.745831 173.247238 
L 172.953807 173.247238 
L 173.033333 181.368382 
L 173.126804 181.368382 
L 173.221797 189.489527 
L 173.409498 189.489527 
L 173.577743 165.126093 
L 173.646059 165.126093 
L 173.752985 157.004948 
L 173.801122 157.004948 
L 173.873747 140.762658 
L 173.910074 148.883803 
L 173.968289 148.883803 
L 174.078566 140.762658 
L 174.139674 140.762658 
L 174.252906 148.883803 
L 174.357357 148.883803 
L 174.465886 173.247238 
L 174.568741 173.247238 
L 174.655343 189.489527 
L 174.771261 189.489527 
L 174.854334 181.368382 
L 174.880498 189.489527 
L 175.168323 189.489527 
L 175.288876 181.368382 
L 175.511024 181.368382 
L 175.60039 173.247238 
L 175.608188 181.368382 
L 175.644294 181.368382 
L 175.705053 189.489527 
L 175.972252 189.489527 
L 175.992245 181.368382 
L 176.057711 189.489527 
L 176.233732 189.489527 
L 176.488899 197.610672 
L 177.906555 197.610672 
L 178.044169 181.368382 
L 178.197948 197.610672 
L 178.826183 197.610672 
L 178.936772 181.368382 
L 179.199558 197.610672 
L 179.427715 197.610672 
L 179.651601 181.368382 
L 179.939098 181.368382 
L 180.067939 173.247238 
L 180.254493 173.247238 
L 180.307097 165.126093 
L 180.379053 165.126093 
L 180.470257 157.004948 
L 180.482441 165.126093 
L 180.604082 157.004948 
L 180.686199 157.004948 
L 180.806697 165.126093 
L 180.934113 165.126093 
L 181.018114 173.247238 
L 181.045054 165.126093 
L 181.17358 157.004948 
L 181.31865 157.004948 
L 181.474147 181.368382 
L 181.500981 181.368382 
L 181.606141 189.489527 
L 181.657415 189.489527 
L 181.77651 181.368382 
L 181.864698 181.368382 
L 181.89515 173.247238 
L 181.972207 181.368382 
L 182.000215 181.368382 
L 182.131169 189.489527 
L 182.448218 173.247238 
L 182.571086 173.247238 
L 182.624292 181.368382 
L 182.676086 173.247238 
L 182.963129 173.247238 
L 182.979206 181.368382 
L 183.034339 165.126093 
L 183.043632 165.126093 
L 183.165549 157.004948 
L 183.371532 157.004948 
L 183.472105 165.126093 
L 183.772657 165.126093 
L 183.898724 157.004948 
L 183.971479 157.004948 
L 184.080333 165.126093 
L 184.084068 157.004948 
L 184.182627 165.126093 
L 184.207567 165.126093 
L 184.31931 173.247238 
L 184.379759 173.247238 
L 184.470539 181.368382 
L 185.057751 181.368382 
L 185.150338 173.247238 
L 185.202869 173.247238 
L 185.264896 165.126093 
L 185.304394 173.247238 
L 185.456575 173.247238 
L 185.510994 165.126093 
L 185.557275 173.247238 
L 185.601155 173.247238 
L 185.662991 157.004948 
L 185.792212 157.004948 
L 185.890248 165.126093 
L 186.197256 165.126093 
L 186.305634 173.247238 
L 186.434378 165.126093 
L 186.499327 165.126093 
L 186.629596 157.004948 
L 186.633199 157.004948 
L 186.662588 148.883803 
L 186.735562 157.004948 
L 186.854756 157.004948 
L 186.949479 173.247238 
L 187.104119 165.126093 
L 187.136333 165.126093 
L 187.211251 189.489527 
L 188.60532 189.489527 
L 188.642656 181.368382 
L 188.702209 189.489527 
L 188.734875 189.489527 
L 188.770644 181.368382 
L 188.888776 181.368382 
L 188.980748 197.610672 
L 189.121432 189.489527 
L 189.919862 189.489527 
L 190.262795 173.247238 
L 190.285273 165.126093 
L 190.341305 181.368382 
L 190.771781 181.368382 
L 190.84995 189.489527 
L 190.909382 189.489527 
L 191.050484 173.247238 
L 191.087922 173.247238 
L 191.231917 181.368382 
L 191.32735 181.368382 
L 191.350922 173.247238 
L 191.411168 181.368382 
L 191.712033 189.489527 
L 191.848007 148.883803 
L 191.976022 148.883803 
L 192.005733 157.004948 
L 192.016983 148.883803 
L 192.162407 140.762658 
L 192.312606 148.883803 
L 192.333324 148.883803 
L 192.593022 165.126093 
L 192.684537 165.126093 
L 192.788057 181.368382 
L 192.938608 157.004948 
L 192.995212 165.126093 
L 193.219025 165.126093 
L 193.241739 173.247238 
L 193.313583 165.126093 
L 193.466007 165.126093 
L 193.622861 181.368382 
L 193.777209 173.247238 
L 193.912939 173.247238 
L 194.051216 197.610672 
L 194.650852 197.610672 
L 194.766091 189.489527 
L 194.97484 189.489527 
L 195.047088 197.610672 
L 195.059699 189.489527 
L 195.228968 189.489527 
L 195.243392 173.247238 
L 195.528616 173.247238 
L 195.600056 165.126093 
L 195.753412 165.126093 
L 195.813477 148.883803 
L 195.987307 148.883803 
L 196.068471 157.004948 
L 196.289216 157.004948 
L 196.401545 165.126093 
L 196.505322 173.247238 
L 196.532532 173.247238 
L 196.655339 181.368382 
L 196.783053 189.489527 
L 196.868008 189.489527 
L 196.892362 181.368382 
L 197.007686 189.489527 
L 197.458069 189.489527 
L 197.470316 197.610672 
L 197.546012 189.489527 
L 197.784416 189.489527 
L 197.977622 173.247238 
L 198.250291 165.126093 
L 198.375605 165.126093 
L 198.452175 148.883803 
L 198.537058 148.883803 
L 198.636048 140.762658 
L 198.662214 140.762658 
L 198.680214 157.004948 
L 198.769789 140.762658 
L 198.908713 157.004948 
L 199.052915 157.004948 
L 199.166661 165.126093 
L 199.288719 165.126093 
L 199.365661 173.247238 
L 199.445122 173.247238 
L 199.819029 189.489527 
L 199.899271 181.368382 
L 199.91735 189.489527 
L 199.96892 189.489527 
L 200.165179 173.247238 
L 200.197559 181.368382 
L 200.236886 189.489527 
L 200.249151 173.247238 
L 200.339051 173.247238 
L 200.532457 181.368382 
L 200.539205 189.489527 
L 200.735574 189.489527 
L 200.878073 181.368382 
L 201.013836 189.489527 
L 201.221486 189.489527 
L 201.686194 197.610672 
L 201.747785 189.489527 
L 201.9373 181.368382 
L 202.134203 165.126093 
L 202.229608 173.247238 
L 202.455386 173.247238 
L 202.491869 181.368382 
L 203.126068 181.368382 
L 203.429005 189.489527 
L 203.66051 181.368382 
L 203.734252 173.247238 
L 204.031562 165.126093 
L 204.152324 165.126093 
L 204.236208 157.004948 
L 204.243812 165.126093 
L 204.330656 165.126093 
L 204.53036 181.368382 
L 204.65128 173.247238 
L 204.767348 189.489527 
L 205.10388 189.489527 
L 205.137017 197.610672 
L 205.932199 197.610672 
L 206.04738 189.489527 
L 206.21801 197.610672 
L 206.456109 189.489527 
L 206.617799 189.489527 
L 206.64307 197.610672 
L 206.828385 197.610672 
L 206.873276 189.489527 
L 207.152418 189.489527 
L 207.181314 197.610672 
L 207.683041 189.489527 
L 208.723957 189.489527 
L 208.776286 197.610672 
L 208.796079 189.489527 
L 208.851304 189.489527 
L 208.920272 181.368382 
L 208.950562 189.489527 
L 212.090888 189.489527 
L 212.449602 197.610672 
L 214.463462 197.610672 
L 214.650717 189.489527 
L 214.772631 197.610672 
L 225.194399 197.610672 
L 225.34353 189.489527 
L 225.570605 197.610672 
L 240.827997 197.610672 
L 241.153553 189.489527 
L 241.287974 189.489527 
L 241.326325 197.610672 
L 241.506698 189.489527 
L 242.038865 189.489527 
L 242.207024 181.368382 
L 242.287168 189.489527 
L 242.590411 189.489527 
L 242.756846 197.610672 
L 244.862426 197.610672 
L 245.17181 189.489527 
L 245.744835 189.489527 
L 246.08148 197.610672 
L 257.765867 197.610672 
L 257.94501 189.489527 
L 258.028751 173.247238 
L 258.197467 173.247238 
L 258.319932 181.368382 
L 259.207297 197.610672 
L 260.453304 197.610672 
L 260.758035 189.489527 
L 260.90717 189.489527 
L 260.991843 197.610672 
L 274.48228 197.610672 
L 274.719296 173.247238 
L 274.939582 197.610672 
L 275.074237 181.368382 
L 275.107395 189.489527 
L 275.194446 189.489527 
L 275.264 181.368382 
L 275.460514 189.489527 
L 275.683957 173.247238 
L 275.783308 189.489527 
L 275.886653 181.368382 
L 276.143577 181.368382 
L 276.161341 173.247238 
L 276.250294 181.368382 
L 276.76575 181.368382 
L 276.904832 189.489527 
L 277.123108 189.489527 
L 277.28076 197.610672 
L 282.827282 197.610672 
L 282.918029 189.489527 
L 283.072694 189.489527 
L 283.16002 197.610672 
L 292.162219 197.610672 
L 292.778487 189.489527 
L 293.092102 173.247238 
L 293.133962 181.368382 
L 293.188366 173.247238 
L 293.209977 173.247238 
L 293.402993 181.368382 
L 293.471226 189.489527 
L 294.099482 189.489527 
L 294.245649 197.610672 
L 304.288272 197.610672 
L 304.572131 189.489527 
L 304.703994 197.610672 
L 312.422447 197.610672 
L 312.422447 197.610672 
" clip-path="url(#p271d21c7de)" style="fill: none; stroke: #000000; stroke-width: 1.5; stroke-linecap: square"/>
   </g>
   <g id="patch_8">
    <path d="M 44.103906 201.671244 
L 44.103906 112.338651 
" style="fill: none; stroke: #000000; stroke-width: 0.8; stroke-linejoin: miter; stroke-linecap: square"/>
   </g>
   <g id="patch_9">
    <path d="M 325.19952 201.671244 
L 325.19952 112.338651 
" style="fill: none; stroke: #000000; stroke-width: 0.8; stroke-linejoin: miter; stroke-linecap: square"/>
   </g>
   <g id="patch_10">
    <path d="M 44.103906 201.671244 
L 325.19952 201.671244 
" style="fill: none; stroke: #000000; stroke-width: 0.8; stroke-linejoin: miter; stroke-linecap: square"/>
   </g>
   <g id="patch_11">
    <path d="M 44.103906 112.338651 
L 325.19952 112.338651 
" style="fill: none; stroke: #000000; stroke-width: 0.8; stroke-linejoin: miter; stroke-linecap: square"/>
   </g>
  </g>
  <g id="axes_3">
   <g id="patch_12">
    <path d="M 44.103906 300.504317 
L 325.19952 300.504317 
L 325.19952 211.171724 
L 44.103906 211.171724 
z
" style="fill: #ffffff"/>
   </g>
   <g id="matplotlib.axis_5">
    <g id="xtick_19">
     <g id="line2d_27">
      <g>
       <use xlink:href="#m373ee3c3ba" x="56.88098" y="300.504317" style="stroke: #000000; stroke-width: 0.8"/>
      </g>
     </g>
     <g id="text_9">
      <!-- 0 -->
      <g transform="translate(53.69973 315.101974) scale(0.1 -0.1)">
       <use xlink:href="#DejaVuSans-13"/>
      </g>
     </g>
    </g>
    <g id="xtick_20">
     <g id="line2d_28">
      <g>
       <use xlink:href="#m373ee3c3ba" x="88.592671" y="300.504317" style="stroke: #000000; stroke-width: 0.8"/>
      </g>
     </g>
     <g id="text_10">
      <!-- 100 -->
      <g transform="translate(79.048921 315.101974) scale(0.1 -0.1)">
       <use xlink:href="#DejaVuSans-14"/>
       <use xlink:href="#DejaVuSans-13" transform="translate(63.625 0)"/>
       <use xlink:href="#DejaVuSans-13" transform="translate(127.25 0)"/>
      </g>
     </g>
    </g>
    <g id="xtick_21">
     <g id="line2d_29">
      <g>
       <use xlink:href="#m373ee3c3ba" x="120.304362" y="300.504317" style="stroke: #000000; stroke-width: 0.8"/>
      </g>
     </g>
     <g id="text_11">
      <!-- 200 -->
      <g transform="translate(110.760612 315.101974) scale(0.1 -0.1)">
       <defs>
        <path id="DejaVuSans-15" d="M 1228 531 
L 3431 531 
L 3431 0 
L 469 0 
L 469 531 
Q 828 903 1448 1529 
Q 2069 2156 2228 2338 
Q 2531 2678 2651 2914 
Q 2772 3150 2772 3378 
Q 2772 3750 2511 3984 
Q 2250 4219 1831 4219 
Q 1534 4219 1204 4116 
Q 875 4013 500 3803 
L 500 4441 
Q 881 4594 1212 4672 
Q 1544 4750 1819 4750 
Q 2544 4750 2975 4387 
Q 3406 4025 3406 3419 
Q 3406 3131 3298 2873 
Q 3191 2616 2906 2266 
Q 2828 2175 2409 1742 
Q 1991 1309 1228 531 
z
" transform="scale(0.015625)"/>
       </defs>
       <use xlink:href="#DejaVuSans-15"/>
       <use xlink:href="#DejaVuSans-13" transform="translate(63.625 0)"/>
       <use xlink:href="#DejaVuSans-13" transform="translate(127.25 0)"/>
      </g>
     </g>
    </g>
    <g id="xtick_22">
     <g id="line2d_30">
      <g>
       <use xlink:href="#m373ee3c3ba" x="152.016054" y="300.504317" style="stroke: #000000; stroke-width: 0.8"/>
      </g>
     </g>
     <g id="text_12">
      <!-- 300 -->
      <g transform="translate(142.472304 315.101974) scale(0.1 -0.1)">
       <defs>
        <path id="DejaVuSans-16" d="M 2597 2516 
Q 3050 2419 3304 2112 
Q 3559 1806 3559 1356 
Q 3559 666 3084 287 
Q 2609 -91 1734 -91 
Q 1441 -91 1130 -33 
Q 819 25 488 141 
L 488 750 
Q 750 597 1062 519 
Q 1375 441 1716 441 
Q 2309 441 2620 675 
Q 2931 909 2931 1356 
Q 2931 1769 2642 2001 
Q 2353 2234 1838 2234 
L 1294 2234 
L 1294 2753 
L 1863 2753 
Q 2328 2753 2575 2939 
Q 2822 3125 2822 3475 
Q 2822 3834 2567 4026 
Q 2313 4219 1838 4219 
Q 1578 4219 1281 4162 
Q 984 4106 628 3988 
L 628 4550 
Q 988 4650 1302 4700 
Q 1616 4750 1894 4750 
Q 2613 4750 3031 4423 
Q 3450 4097 3450 3541 
Q 3450 3153 3228 2886 
Q 3006 2619 2597 2516 
z
" transform="scale(0.015625)"/>
       </defs>
       <use xlink:href="#DejaVuSans-16"/>
       <use xlink:href="#DejaVuSans-13" transform="translate(63.625 0)"/>
       <use xlink:href="#DejaVuSans-13" transform="translate(127.25 0)"/>
      </g>
     </g>
    </g>
    <g id="xtick_23">
     <g id="line2d_31">
      <g>
       <use xlink:href="#m373ee3c3ba" x="183.727745" y="300.504317" style="stroke: #000000; stroke-width: 0.8"/>
      </g>
     </g>
     <g id="text_13">
      <!-- 400 -->
      <g transform="translate(174.183995 315.101974) scale(0.1 -0.1)">
       <defs>
        <path id="DejaVuSans-17" d="M 2419 4116 
L 825 1625 
L 2419 1625 
L 2419 4116 
z
M 2253 4666 
L 3047 4666 
L 3047 1625 
L 3713 1625 
L 3713 1100 
L 3047 1100 
L 3047 0 
L 2419 0 
L 2419 1100 
L 313 1100 
L 313 1709 
L 2253 4666 
z
" transform="scale(0.015625)"/>
       </defs>
       <use xlink:href="#DejaVuSans-17"/>
       <use xlink:href="#DejaVuSans-13" transform="translate(63.625 0)"/>
       <use xlink:href="#DejaVuSans-13" transform="translate(127.25 0)"/>
      </g>
     </g>
    </g>
    <g id="xtick_24">
     <g id="line2d_32">
      <g>
       <use xlink:href="#m373ee3c3ba" x="215.439436" y="300.504317" style="stroke: #000000; stroke-width: 0.8"/>
      </g>
     </g>
     <g id="text_14">
      <!-- 500 -->
      <g transform="translate(205.895686 315.101974) scale(0.1 -0.1)">
       <use xlink:href="#DejaVuSans-18"/>
       <use xlink:href="#DejaVuSans-13" transform="translate(63.625 0)"/>
       <use xlink:href="#DejaVuSans-13" transform="translate(127.25 0)"/>
      </g>
     </g>
    </g>
    <g id="xtick_25">
     <g id="line2d_33">
      <g>
       <use xlink:href="#m373ee3c3ba" x="247.151128" y="300.504317" style="stroke: #000000; stroke-width: 0.8"/>
      </g>
     </g>
     <g id="text_15">
      <!-- 600 -->
      <g transform="translate(237.607378 315.101974) scale(0.1 -0.1)">
       <defs>
        <path id="DejaVuSans-19" d="M 2113 2584 
Q 1688 2584 1439 2293 
Q 1191 2003 1191 1497 
Q 1191 994 1439 701 
Q 1688 409 2113 409 
Q 2538 409 2786 701 
Q 3034 994 3034 1497 
Q 3034 2003 2786 2293 
Q 2538 2584 2113 2584 
z
M 3366 4563 
L 3366 3988 
Q 3128 4100 2886 4159 
Q 2644 4219 2406 4219 
Q 1781 4219 1451 3797 
Q 1122 3375 1075 2522 
Q 1259 2794 1537 2939 
Q 1816 3084 2150 3084 
Q 2853 3084 3261 2657 
Q 3669 2231 3669 1497 
Q 3669 778 3244 343 
Q 2819 -91 2113 -91 
Q 1303 -91 875 529 
Q 447 1150 447 2328 
Q 447 3434 972 4092 
Q 1497 4750 2381 4750 
Q 2619 4750 2861 4703 
Q 3103 4656 3366 4563 
z
" transform="scale(0.015625)"/>
       </defs>
       <use xlink:href="#DejaVuSans-19"/>
       <use xlink:href="#DejaVuSans-13" transform="translate(63.625 0)"/>
       <use xlink:href="#DejaVuSans-13" transform="translate(127.25 0)"/>
      </g>
     </g>
    </g>
    <g id="xtick_26">
     <g id="line2d_34">
      <g>
       <use xlink:href="#m373ee3c3ba" x="278.862819" y="300.504317" style="stroke: #000000; stroke-width: 0.8"/>
      </g>
     </g>
     <g id="text_16">
      <!-- 700 -->
      <g transform="translate(269.319069 315.101974) scale(0.1 -0.1)">
       <defs>
        <path id="DejaVuSans-1a" d="M 525 4666 
L 3525 4666 
L 3525 4397 
L 1831 0 
L 1172 0 
L 2766 4134 
L 525 4134 
L 525 4666 
z
" transform="scale(0.015625)"/>
       </defs>
       <use xlink:href="#DejaVuSans-1a"/>
       <use xlink:href="#DejaVuSans-13" transform="translate(63.625 0)"/>
       <use xlink:href="#DejaVuSans-13" transform="translate(127.25 0)"/>
      </g>
     </g>
    </g>
    <g id="xtick_27">
     <g id="line2d_35">
      <g>
       <use xlink:href="#m373ee3c3ba" x="310.57451" y="300.504317" style="stroke: #000000; stroke-width: 0.8"/>
      </g>
     </g>
     <g id="text_17">
      <!-- 800 -->
      <g transform="translate(301.03076 315.101974) scale(0.1 -0.1)">
       <defs>
        <path id="DejaVuSans-1b" d="M 2034 2216 
Q 1584 2216 1326 1975 
Q 1069 1734 1069 1313 
Q 1069 891 1326 650 
Q 1584 409 2034 409 
Q 2484 409 2743 651 
Q 3003 894 3003 1313 
Q 3003 1734 2745 1975 
Q 2488 2216 2034 2216 
z
M 1403 2484 
Q 997 2584 770 2862 
Q 544 3141 544 3541 
Q 544 4100 942 4425 
Q 1341 4750 2034 4750 
Q 2731 4750 3128 4425 
Q 3525 4100 3525 3541 
Q 3525 3141 3298 2862 
Q 3072 2584 2669 2484 
Q 3125 2378 3379 2068 
Q 3634 1759 3634 1313 
Q 3634 634 3220 271 
Q 2806 -91 2034 -91 
Q 1263 -91 848 271 
Q 434 634 434 1313 
Q 434 1759 690 2068 
Q 947 2378 1403 2484 
z
M 1172 3481 
Q 1172 3119 1398 2916 
Q 1625 2713 2034 2713 
Q 2441 2713 2670 2916 
Q 2900 3119 2900 3481 
Q 2900 3844 2670 4047 
Q 2441 4250 2034 4250 
Q 1625 4250 1398 4047 
Q 1172 3844 1172 3481 
z
" transform="scale(0.015625)"/>
       </defs>
       <use xlink:href="#DejaVuSans-1b"/>
       <use xlink:href="#DejaVuSans-13" transform="translate(63.625 0)"/>
       <use xlink:href="#DejaVuSans-13" transform="translate(127.25 0)"/>
      </g>
     </g>
    </g>
    <g id="text_18">
     <!-- Time -->
     <g transform="translate(172.415776 329.102755) scale(0.1 -0.1)">
      <defs>
       <path id="DejaVuSans-37" d="M -19 4666 
L 3928 4666 
L 3928 4134 
L 2272 4134 
L 2272 0 
L 1638 0 
L 1638 4134 
L -19 4134 
L -19 4666 
z
" transform="scale(0.015625)"/>
       <path id="DejaVuSans-4c" d="M 603 3500 
L 1178 3500 
L 1178 0 
L 603 0 
L 603 3500 
z
M 603 4863 
L 1178 4863 
L 1178 4134 
L 603 4134 
L 603 4863 
z
" transform="scale(0.015625)"/>
       <path id="DejaVuSans-50" d="M 3328 2828 
Q 3544 3216 3844 3400 
Q 4144 3584 4550 3584 
Q 5097 3584 5394 3201 
Q 5691 2819 5691 2113 
L 5691 0 
L 5113 0 
L 5113 2094 
Q 5113 2597 4934 2840 
Q 4756 3084 4391 3084 
Q 3944 3084 3684 2787 
Q 3425 2491 3425 1978 
L 3425 0 
L 2847 0 
L 2847 2094 
Q 2847 2600 2669 2842 
Q 2491 3084 2119 3084 
Q 1678 3084 1418 2786 
Q 1159 2488 1159 1978 
L 1159 0 
L 581 0 
L 581 3500 
L 1159 3500 
L 1159 2956 
Q 1356 3278 1631 3431 
Q 1906 3584 2284 3584 
Q 2666 3584 2933 3390 
Q 3200 3197 3328 2828 
z
" transform="scale(0.015625)"/>
      </defs>
      <use xlink:href="#DejaVuSans-37"/>
      <use xlink:href="#DejaVuSans-4c" transform="translate(58 0)"/>
      <use xlink:href="#DejaVuSans-50" transform="translate(85.78125 0)"/>
      <use xlink:href="#DejaVuSans-48" transform="translate(183.1875 0)"/>
     </g>
    </g>
   </g>
   <g id="matplotlib.axis_6">
    <g id="ytick_7">
     <g id="line2d_36">
      <g>
       <use xlink:href="#me5c8480e2c" x="44.103906" y="296.443745" style="stroke: #000000; stroke-width: 0.8"/>
      </g>
     </g>
     <g id="text_19">
      <!-- 0.0 -->
      <g transform="translate(21.200781 300.242573) scale(0.1 -0.1)">
       <defs>
        <path id="DejaVuSans-11" d="M 684 794 
L 1344 794 
L 1344 0 
L 684 0 
L 684 794 
z
" transform="scale(0.015625)"/>
       </defs>
       <use xlink:href="#DejaVuSans-13"/>
       <use xlink:href="#DejaVuSans-11" transform="translate(63.625 0)"/>
       <use xlink:href="#DejaVuSans-13" transform="translate(95.40625 0)"/>
      </g>
     </g>
    </g>
    <g id="ytick_8">
     <g id="line2d_37">
      <g>
       <use xlink:href="#me5c8480e2c" x="44.103906" y="255.838021" style="stroke: #000000; stroke-width: 0.8"/>
      </g>
     </g>
     <g id="text_20">
      <!-- 0.5 -->
      <g transform="translate(21.200781 259.636849) scale(0.1 -0.1)">
       <use xlink:href="#DejaVuSans-13"/>
       <use xlink:href="#DejaVuSans-11" transform="translate(63.625 0)"/>
       <use xlink:href="#DejaVuSans-18" transform="translate(95.40625 0)"/>
      </g>
     </g>
    </g>
    <g id="ytick_9">
     <g id="line2d_38">
      <g>
       <use xlink:href="#me5c8480e2c" x="44.103906" y="215.232297" style="stroke: #000000; stroke-width: 0.8"/>
      </g>
     </g>
     <g id="text_21">
      <!-- 1.0 -->
      <g transform="translate(21.200781 219.031125) scale(0.1 -0.1)">
       <use xlink:href="#DejaVuSans-14"/>
       <use xlink:href="#DejaVuSans-11" transform="translate(63.625 0)"/>
       <use xlink:href="#DejaVuSans-13" transform="translate(95.40625 0)"/>
      </g>
     </g>
    </g>
    <g id="text_22">
     <!-- Free lac operon -->
     <g transform="translate(14.798438 294.31224) rotate(-90) scale(0.1 -0.1)">
      <defs>
       <path id="DejaVuSans-29" d="M 628 4666 
L 3309 4666 
L 3309 4134 
L 1259 4134 
L 1259 2759 
L 3109 2759 
L 3109 2228 
L 1259 2228 
L 1259 0 
L 628 0 
L 628 4666 
z
" transform="scale(0.015625)"/>
       <path id="DejaVuSans-53" d="M 1159 525 
L 1159 -1331 
L 581 -1331 
L 581 3500 
L 1159 3500 
L 1159 2969 
Q 1341 3281 1617 3432 
Q 1894 3584 2278 3584 
Q 2916 3584 3314 3078 
Q 3713 2572 3713 1747 
Q 3713 922 3314 415 
Q 2916 -91 2278 -91 
Q 1894 -91 1617 61 
Q 1341 213 1159 525 
z
M 3116 1747 
Q 3116 2381 2855 2742 
Q 2594 3103 2138 3103 
Q 1681 3103 1420 2742 
Q 1159 2381 1159 1747 
Q 1159 1113 1420 752 
Q 1681 391 2138 391 
Q 2594 391 2855 752 
Q 3116 1113 3116 1747 
z
" transform="scale(0.015625)"/>
       <path id="DejaVuSans-51" d="M 3513 2113 
L 3513 0 
L 2938 0 
L 2938 2094 
Q 2938 2591 2744 2837 
Q 2550 3084 2163 3084 
Q 1697 3084 1428 2787 
Q 1159 2491 1159 1978 
L 1159 0 
L 581 0 
L 581 3500 
L 1159 3500 
L 1159 2956 
Q 1366 3272 1645 3428 
Q 1925 3584 2291 3584 
Q 2894 3584 3203 3211 
Q 3513 2838 3513 2113 
z
" transform="scale(0.015625)"/>
      </defs>
      <use xlink:href="#DejaVuSans-29"/>
      <use xlink:href="#DejaVuSans-55" transform="translate(50.234375 0)"/>
      <use xlink:href="#DejaVuSans-48" transform="translate(89.140625 0)"/>
      <use xlink:href="#DejaVuSans-48" transform="translate(150.671875 0)"/>
      <use xlink:href="#DejaVuSans-3" transform="translate(212.203125 0)"/>
      <use xlink:href="#DejaVuSans-4f" transform="translate(243.984375 0)"/>
      <use xlink:href="#DejaVuSans-44" transform="translate(271.765625 0)"/>
      <use xlink:href="#DejaVuSans-46" transform="translate(333.046875 0)"/>
      <use xlink:href="#DejaVuSans-3" transform="translate(388.03125 0)"/>
      <use xlink:href="#DejaVuSans-52" transform="translate(419.8125 0)"/>
      <use xlink:href="#DejaVuSans-53" transform="translate(481 0)"/>
      <use xlink:href="#DejaVuSans-48" transform="translate(544.484375 0)"/>
      <use xlink:href="#DejaVuSans-55" transform="translate(606.015625 0)"/>
      <use xlink:href="#DejaVuSans-52" transform="translate(644.921875 0)"/>
      <use xlink:href="#DejaVuSans-51" transform="translate(706.109375 0)"/>
     </g>
    </g>
   </g>
   <g id="line2d_39">
    <path d="M 56.88098 215.232297 
L 56.962087 296.443745 
L 57.129534 296.443745 
L 57.298266 215.232297 
L 57.415843 215.232297 
L 57.517464 296.443745 
L 58.727665 296.443745 
L 59.712565 215.232297 
L 59.897976 215.232297 
L 59.920607 296.443745 
L 62.329959 296.443745 
L 64.91152 215.232297 
L 65.204943 215.232297 
L 65.3417 296.443745 
L 65.466944 296.443745 
L 72.096092 215.232297 
L 72.265033 296.443745 
L 80.065462 215.232297 
L 80.114253 296.443745 
L 82.727597 215.232297 
L 82.866888 215.232297 
L 82.920779 296.443745 
L 84.652417 296.443745 
L 84.717523 215.232297 
L 85.589434 215.232297 
L 85.778461 296.443745 
L 86.806139 296.443745 
L 89.783777 215.232297 
L 90.321081 215.232297 
L 90.350214 296.443745 
L 90.706332 296.443745 
L 91.583316 215.232297 
L 91.64147 296.443745 
L 91.983592 296.443745 
L 108.973021 215.232297 
L 108.986655 296.443745 
L 109.243825 296.443745 
L 109.518571 215.232297 
L 109.804486 296.443745 
L 109.931914 215.232297 
L 110.337622 215.232297 
L 110.54118 296.443745 
L 110.832354 296.443745 
L 114.973636 215.232297 
L 115.630947 296.443745 
L 117.264747 215.232297 
L 117.578396 296.443745 
L 118.247446 215.232297 
L 118.334332 296.443745 
L 119.338627 215.232297 
L 119.42311 296.443745 
L 123.346148 296.443745 
L 129.334782 215.232297 
L 129.440197 296.443745 
L 131.173723 215.232297 
L 131.622252 215.232297 
L 131.643585 296.443745 
L 133.474638 296.443745 
L 136.057248 215.232297 
L 136.070488 296.443745 
L 138.937082 215.232297 
L 138.979598 296.443745 
L 145.987534 215.232297 
L 146.927117 215.232297 
L 146.995086 296.443745 
L 147.608417 296.443745 
L 147.852219 215.232297 
L 148.165516 215.232297 
L 148.277696 296.443745 
L 149.342927 296.443745 
L 149.851788 215.232297 
L 149.952034 296.443745 
L 151.067496 296.443745 
L 151.07876 215.232297 
L 151.239485 296.443745 
L 155.526332 215.232297 
L 155.614819 296.443745 
L 155.862884 215.232297 
L 204.906245 215.232297 
L 204.937865 296.443745 
L 205.660079 296.443745 
L 205.932199 215.232297 
L 207.683041 215.232297 
L 208.098427 296.443745 
L 208.615374 296.443745 
L 208.796079 215.232297 
L 208.950562 215.232297 
L 209.124386 296.443745 
L 212.449602 296.443745 
L 213.912972 215.232297 
L 214.010135 296.443745 
L 214.463462 215.232297 
L 214.772631 215.232297 
L 214.941617 296.443745 
L 214.994538 215.232297 
L 215.04588 296.443745 
L 216.308234 296.443745 
L 225.194399 215.232297 
L 225.338985 215.232297 
L 225.34353 296.443745 
L 225.83594 296.443745 
L 236.7569 215.232297 
L 236.894633 296.443745 
L 239.116573 215.232297 
L 239.450004 296.443745 
L 240.660519 215.232297 
L 240.684764 296.443745 
L 240.827997 215.232297 
L 242.162847 215.232297 
L 242.167204 296.443745 
L 242.23104 215.232297 
L 242.287168 215.232297 
L 242.590411 296.443745 
L 242.756846 296.443745 
L 244.862426 215.232297 
L 245.158891 215.232297 
L 245.17181 296.443745 
L 246.08148 296.443745 
L 257.37823 215.232297 
L 257.512339 296.443745 
L 257.765867 215.232297 
L 258.078488 215.232297 
L 258.197467 296.443745 
L 259.207297 296.443745 
L 260.453304 215.232297 
L 260.663467 215.232297 
L 260.758035 296.443745 
L 260.91569 215.232297 
L 260.991843 296.443745 
L 261.613481 215.232297 
L 261.931598 296.443745 
L 267.997672 215.232297 
L 268.237384 296.443745 
L 272.66618 215.232297 
L 272.686557 296.443745 
L 274.554956 215.232297 
L 276.405283 215.232297 
L 276.518047 296.443745 
L 277.28076 296.443745 
L 279.139271 215.232297 
L 279.176146 296.443745 
L 279.19994 215.232297 
L 279.510569 296.443745 
L 282.918029 215.232297 
L 283.16002 296.443745 
L 283.499564 215.232297 
L 283.522605 296.443745 
L 284.163536 296.443745 
L 286.185765 215.232297 
L 286.3253 296.443745 
L 288.997475 215.232297 
L 289.005762 296.443745 
L 292.162219 215.232297 
L 293.188366 215.232297 
L 293.209977 296.443745 
L 293.858454 296.443745 
L 294.070289 215.232297 
L 294.17413 296.443745 
L 294.464583 296.443745 
L 300.325288 215.232297 
L 300.34758 296.443745 
L 304.288272 215.232297 
L 304.90799 215.232297 
L 305.06218 296.443745 
L 309.448909 215.232297 
L 309.470825 296.443745 
L 312.422447 215.232297 
L 312.422447 215.232297 
" clip-path="url(#p6dfc9f52ac)" style="fill: none; stroke: #000000; stroke-width: 1.5; stroke-linecap: square"/>
   </g>
   <g id="patch_13">
    <path d="M 44.103906 300.504317 
L 44.103906 211.171724 
" style="fill: none; stroke: #000000; stroke-width: 0.8; stroke-linejoin: miter; stroke-linecap: square"/>
   </g>
   <g id="patch_14">
    <path d="M 325.19952 300.504317 
L 325.19952 211.171724 
" style="fill: none; stroke: #000000; stroke-width: 0.8; stroke-linejoin: miter; stroke-linecap: square"/>
   </g>
   <g id="patch_15">
    <path d="M 44.103906 300.504317 
L 325.19952 300.504317 
" style="fill: none; stroke: #000000; stroke-width: 0.8; stroke-linejoin: miter; stroke-linecap: square"/>
   </g>
   <g id="patch_16">
    <path d="M 44.103906 211.171724 
L 325.19952 211.171724 
" style="fill: none; stroke: #000000; stroke-width: 0.8; stroke-linejoin: miter; stroke-linecap: square"/>
   </g>
  </g>
 </g>
 <defs>
  <clipPath id="p9f3098ea22">
   <rect x="44.103906" y="13.505579" width="281.095614" height="89.332593"/>
  </clipPath>
  <clipPath id="p271d21c7de">
   <rect x="44.103906" y="112.338651" width="281.095614" height="89.332593"/>
  </clipPath>
  <clipPath id="p6dfc9f52ac">
   <rect x="44.103906" y="211.171724" width="281.095614" height="89.332593"/>
  </clipPath>
 </defs>
</svg>
