<?xml version="1.0" encoding="utf-8" standalone="no"?>
<!DOCTYPE svg PUBLIC "-//W3C//DTD SVG 1.1//EN"
  "http://www.w3.org/Graphics/SVG/1.1/DTD/svg11.dtd">
<svg xmlns:xlink="http://www.w3.org/1999/xlink" width="421.700606pt" height="310.86825pt" viewBox="0 0 421.700606 310.86825" xmlns="http://www.w3.org/2000/svg" version="1.1">
 <metadata>
  <rdf:RDF xmlns:dc="http://purl.org/dc/elements/1.1/" xmlns:cc="http://creativecommons.org/ns#" xmlns:rdf="http://www.w3.org/1999/02/22-rdf-syntax-ns#">
   <cc:Work>
    <dc:type rdf:resource="http://purl.org/dc/dcmitype/StillImage"/>
    <dc:date>2026-06-09T14:34:08.694660</dc:date>
    <dc:format>image/svg+xml</dc:format>
    <dc:creator>
     <cc:Agent>
      <dc:title>Matplotlib v3.10.9, https://matplotlib.org/</dc:title>
     </cc:Agent>
    </dc:creator>
   </cc:Work>
  </rdf:RDF>
 </metadata>
 <defs>
  <style type="text/css">*{stroke-linejoin: round; stroke-linecap: butt}</style>
 </defs>
 <g id="figure_1">
  <g id="patch_1">
   <path d="M 0 310.86825 
L 421.700606 310.86825 
L 421.700606 0 
L 0 0 
z
" style="fill: #ffffff"/>
  </g>
  <g id="axes_1">
   <g id="patch_2">
    <path d="M 46.965625 273.312 
L 404.085625 273.312 
L 404.085625 7.2 
L 46.965625 7.2 
z
" style="fill: #ffffff"/>
   </g>
   <g id="matplotlib.axis_1">
    <g id="xtick_1">
     <g id="line2d_1">
      <defs>
       <path id="m830098e4da" d="M 0 0 
L 0 3.5 
" style="stroke: #000000; stroke-width: 0.8"/>
      </defs>
      <g>
       <use xlink:href="#m830098e4da" x="46.965625" y="273.312" style="stroke: #000000; stroke-width: 0.8"/>
      </g>
     </g>
     <g id="text_1">
      <!-- 0.00 -->
      <g transform="translate(35.832813 287.910437) scale(0.1 -0.1)">
       <defs>
        <path id="DejaVuSans-30" d="M 2034 4250 
Q 1547 4250 1301 3770 
Q 1056 3291 1056 2328 
Q 1056 1369 1301 889 
Q 1547 409 2034 409 
Q 2525 409 2770 889 
Q 3016 1369 3016 2328 
Q 3016 3291 2770 3770 
Q 2525 4250 2034 4250 
z
M 2034 4750 
Q 2819 4750 3233 4129 
Q 3647 3509 3647 2328 
Q 3647 1150 3233 529 
Q 2819 -91 2034 -91 
Q 1250 -91 836 529 
Q 422 1150 422 2328 
Q 422 3509 836 4129 
Q 1250 4750 2034 4750 
z
" transform="scale(0.015625)"/>
        <path id="DejaVuSans-2e" d="M 684 794 
L 1344 794 
L 1344 0 
L 684 0 
L 684 794 
z
" transform="scale(0.015625)"/>
       </defs>
       <use xlink:href="#DejaVuSans-30"/>
       <use xlink:href="#DejaVuSans-2e" transform="translate(63.623047 0)"/>
       <use xlink:href="#DejaVuSans-30" transform="translate(95.410156 0)"/>
       <use xlink:href="#DejaVuSans-30" transform="translate(159.033203 0)"/>
      </g>
     </g>
    </g>
    <g id="xtick_2">
     <g id="line2d_2">
      <g>
       <use xlink:href="#m830098e4da" x="91.515896" y="273.312" style="stroke: #000000; stroke-width: 0.8"/>
      </g>
     </g>
     <g id="text_2">
      <!-- 0.25 -->
      <g transform="translate(80.383084 287.910437) scale(0.1 -0.1)">
       <defs>
        <path id="DejaVuSans-32" d="M 1228 531 
L 3431 531 
L 3431 0 
L 469 0 
L 469 531 
Q 828 903 1448 1529 
Q 2069 2156 2228 2338 
Q 2531 2678 2651 2914 
Q 2772 3150 2772 3378 
Q 2772 3750 2511 3984 
Q 2250 4219 1831 4219 
Q 1534 4219 1204 4116 
Q 875 4013 500 3803 
L 500 4441 
Q 881 4594 1212 4672 
Q 1544 4750 1819 4750 
Q 2544 4750 2975 4387 
Q 3406 4025 3406 3419 
Q 3406 3131 3298 2873 
Q 3191 2616 2906 2266 
Q 2828 2175 2409 1742 
Q 1991 1309 1228 531 
z
" transform="scale(0.015625)"/>
        <path id="DejaVuSans-35" d="M 691 4666 
L 3169 4666 
L 3169 4134 
L 1269 4134 
L 1269 2991 
Q 1406 3038 1543 3061 
Q 1681 3084 1819 3084 
Q 2600 3084 3056 2656 
Q 3513 2228 3513 1497 
Q 3513 744 3044 326 
Q 2575 -91 1722 -91 
Q 1428 -91 1123 -41 
Q 819 9 494 109 
L 494 744 
Q 775 591 1075 516 
Q 1375 441 1709 441 
Q 2250 441 2565 725 
Q 2881 1009 2881 1497 
Q 2881 1984 2565 2268 
Q 2250 2553 1709 2553 
Q 1456 2553 1204 2497 
Q 953 2441 691 2322 
L 691 4666 
z
" transform="scale(0.015625)"/>
       </defs>
       <use xlink:href="#DejaVuSans-30"/>
       <use xlink:href="#DejaVuSans-2e" transform="translate(63.623047 0)"/>
       <use xlink:href="#DejaVuSans-32" transform="translate(95.410156 0)"/>
       <use xlink:href="#DejaVuSans-35" transform="translate(159.033203 0)"/>
      </g>
     </g>
    </g>
    <g id="xtick_3">
     <g id="line2d_3">
      <g>
       <use xlink:href="#m830098e4da" x="136.066167" y="273.312" style="stroke: #000000; stroke-width: 0.8"/>
      </g>
     </g>
     <g id="text_3">
      <!-- 0.50 -->
      <g transform="translate(124.933355 287.910437) scale(0.1 -0.1)">
       <use xlink:href="#DejaVuSans-30"/>
       <use xlink:href="#DejaVuSans-2e" transform="translate(63.623047 0)"/>
       <use xlink:href="#DejaVuSans-35" transform="translate(95.410156 0)"/>
       <use xlink:href="#DejaVuSans-30" transform="translate(159.033203 0)"/>
      </g>
     </g>
    </g>
    <g id="xtick_4">
     <g id="line2d_4">
      <g>
       <use xlink:href="#m830098e4da" x="180.616438" y="273.312" style="stroke: #000000; stroke-width: 0.8"/>
      </g>
     </g>
     <g id="text_4">
      <!-- 0.75 -->
      <g transform="translate(169.483626 287.910437) scale(0.1 -0.1)">
       <defs>
        <path id="DejaVuSans-37" d="M 525 4666 
L 3525 4666 
L 3525 4397 
L 1831 0 
L 1172 0 
L 2766 4134 
L 525 4134 
L 525 4666 
z
" transform="scale(0.015625)"/>
       </defs>
       <use xlink:href="#DejaVuSans-30"/>
       <use xlink:href="#DejaVuSans-2e" transform="translate(63.623047 0)"/>
       <use xlink:href="#DejaVuSans-37" transform="translate(95.410156 0)"/>
       <use xlink:href="#DejaVuSans-35" transform="translate(159.033203 0)"/>
      </g>
     </g>
    </g>
    <g id="xtick_5">
     <g id="line2d_5">
      <g>
       <use xlink:href="#m830098e4da" x="225.166709" y="273.312" style="stroke: #000000; stroke-width: 0.8"/>
      </g>
     </g>
     <g id="text_5">
      <!-- 1.00 -->
      <g transform="translate(214.033897 287.910437) scale(0.1 -0.1)">
       <defs>
        <path id="DejaVuSans-31" d="M 794 531 
L 1825 531 
L 1825 4091 
L 703 3866 
L 703 4441 
L 1819 4666 
L 2450 4666 
L 2450 531 
L 3481 531 
L 3481 0 
L 794 0 
L 794 531 
z
" transform="scale(0.015625)"/>
       </defs>
       <use xlink:href="#DejaVuSans-31"/>
       <use xlink:href="#DejaVuSans-2e" transform="translate(63.623047 0)"/>
       <use xlink:href="#DejaVuSans-30" transform="translate(95.410156 0)"/>
       <use xlink:href="#DejaVuSans-30" transform="translate(159.033203 0)"/>
      </g>
     </g>
    </g>
    <g id="xtick_6">
     <g id="line2d_6">
      <g>
       <use xlink:href="#m830098e4da" x="269.716981" y="273.312" style="stroke: #000000; stroke-width: 0.8"/>
      </g>
     </g>
     <g id="text_6">
      <!-- 1.25 -->
      <g transform="translate(258.584168 287.910437) scale(0.1 -0.1)">
       <use xlink:href="#DejaVuSans-31"/>
       <use xlink:href="#DejaVuSans-2e" transform="translate(63.623047 0)"/>
       <use xlink:href="#DejaVuSans-32" transform="translate(95.410156 0)"/>
       <use xlink:href="#DejaVuSans-35" transform="translate(159.033203 0)"/>
      </g>
     </g>
    </g>
    <g id="xtick_7">
     <g id="line2d_7">
      <g>
       <use xlink:href="#m830098e4da" x="314.267252" y="273.312" style="stroke: #000000; stroke-width: 0.8"/>
      </g>
     </g>
     <g id="text_7">
      <!-- 1.50 -->
      <g transform="translate(303.134439 287.910437) scale(0.1 -0.1)">
       <use xlink:href="#DejaVuSans-31"/>
       <use xlink:href="#DejaVuSans-2e" transform="translate(63.623047 0)"/>
       <use xlink:href="#DejaVuSans-35" transform="translate(95.410156 0)"/>
       <use xlink:href="#DejaVuSans-30" transform="translate(159.033203 0)"/>
      </g>
     </g>
    </g>
    <g id="xtick_8">
     <g id="line2d_8">
      <g>
       <use xlink:href="#m830098e4da" x="358.817523" y="273.312" style="stroke: #000000; stroke-width: 0.8"/>
      </g>
     </g>
     <g id="text_8">
      <!-- 1.75 -->
      <g transform="translate(347.68471 287.910437) scale(0.1 -0.1)">
       <use xlink:href="#DejaVuSans-31"/>
       <use xlink:href="#DejaVuSans-2e" transform="translate(63.623047 0)"/>
       <use xlink:href="#DejaVuSans-37" transform="translate(95.410156 0)"/>
       <use xlink:href="#DejaVuSans-35" transform="translate(159.033203 0)"/>
      </g>
     </g>
    </g>
    <g id="xtick_9">
     <g id="line2d_9">
      <g>
       <use xlink:href="#m830098e4da" x="403.367794" y="273.312" style="stroke: #000000; stroke-width: 0.8"/>
      </g>
     </g>
     <g id="text_9">
      <!-- 2.00 -->
      <g transform="translate(392.234981 287.910437) scale(0.1 -0.1)">
       <use xlink:href="#DejaVuSans-32"/>
       <use xlink:href="#DejaVuSans-2e" transform="translate(63.623047 0)"/>
       <use xlink:href="#DejaVuSans-30" transform="translate(95.410156 0)"/>
       <use xlink:href="#DejaVuSans-30" transform="translate(159.033203 0)"/>
      </g>
     </g>
    </g>
    <g id="text_10">
     <!-- Time -->
     <g transform="translate(213.292031 301.588562) scale(0.1 -0.1)">
      <defs>
       <path id="DejaVuSans-54" d="M -19 4666 
L 3928 4666 
L 3928 4134 
L 2272 4134 
L 2272 0 
L 1638 0 
L 1638 4134 
L -19 4134 
L -19 4666 
z
" transform="scale(0.015625)"/>
       <path id="DejaVuSans-69" d="M 603 3500 
L 1178 3500 
L 1178 0 
L 603 0 
L 603 3500 
z
M 603 4863 
L 1178 4863 
L 1178 4134 
L 603 4134 
L 603 4863 
z
" transform="scale(0.015625)"/>
       <path id="DejaVuSans-6d" d="M 3328 2828 
Q 3544 3216 3844 3400 
Q 4144 3584 4550 3584 
Q 5097 3584 5394 3201 
Q 5691 2819 5691 2113 
L 5691 0 
L 5113 0 
L 5113 2094 
Q 5113 2597 4934 2840 
Q 4756 3084 4391 3084 
Q 3944 3084 3684 2787 
Q 3425 2491 3425 1978 
L 3425 0 
L 2847 0 
L 2847 2094 
Q 2847 2600 2669 2842 
Q 2491 3084 2119 3084 
Q 1678 3084 1418 2786 
Q 1159 2488 1159 1978 
L 1159 0 
L 581 0 
L 581 3500 
L 1159 3500 
L 1159 2956 
Q 1356 3278 1631 3431 
Q 1906 3584 2284 3584 
Q 2666 3584 2933 3390 
Q 3200 3197 3328 2828 
z
" transform="scale(0.015625)"/>
       <path id="DejaVuSans-65" d="M 3597 1894 
L 3597 1613 
L 953 1613 
Q 991 1019 1311 708 
Q 1631 397 2203 397 
Q 2534 397 2845 478 
Q 3156 559 3463 722 
L 3463 178 
Q 3153 47 2828 -22 
Q 2503 -91 2169 -91 
Q 1331 -91 842 396 
Q 353 884 353 1716 
Q 353 2575 817 3079 
Q 1281 3584 2069 3584 
Q 2775 3584 3186 3129 
Q 3597 2675 3597 1894 
z
M 3022 2063 
Q 3016 2534 2758 2815 
Q 2500 3097 2075 3097 
Q 1594 3097 1305 2825 
Q 1016 2553 972 2059 
L 3022 2063 
z
" transform="scale(0.015625)"/>
      </defs>
      <use xlink:href="#DejaVuSans-54"/>
      <use xlink:href="#DejaVuSans-69" transform="translate(57.958984 0)"/>
      <use xlink:href="#DejaVuSans-6d" transform="translate(85.742188 0)"/>
      <use xlink:href="#DejaVuSans-65" transform="translate(183.154297 0)"/>
     </g>
    </g>
   </g>
   <g id="matplotlib.axis_2">
    <g id="ytick_1">
     <g id="line2d_10">
      <defs>
       <path id="ma5c3d81574" d="M 0 0 
L -3.5 0 
" style="stroke: #000000; stroke-width: 0.8"/>
      </defs>
      <g>
       <use xlink:href="#ma5c3d81574" x="46.965625" y="273.312" style="stroke: #000000; stroke-width: 0.8"/>
      </g>
     </g>
     <g id="text_11">
      <!-- 0 -->
      <g transform="translate(33.603125 277.111219) scale(0.1 -0.1)">
       <use xlink:href="#DejaVuSans-30"/>
      </g>
     </g>
    </g>
    <g id="ytick_2">
     <g id="line2d_11">
      <g>
       <use xlink:href="#ma5c3d81574" x="46.965625" y="236.093538" style="stroke: #000000; stroke-width: 0.8"/>
      </g>
     </g>
     <g id="text_12">
      <!-- 20 -->
      <g transform="translate(27.240625 239.892757) scale(0.1 -0.1)">
       <use xlink:href="#DejaVuSans-32"/>
       <use xlink:href="#DejaVuSans-30" transform="translate(63.623047 0)"/>
      </g>
     </g>
    </g>
    <g id="ytick_3">
     <g id="line2d_12">
      <g>
       <use xlink:href="#ma5c3d81574" x="46.965625" y="198.875077" style="stroke: #000000; stroke-width: 0.8"/>
      </g>
     </g>
     <g id="text_13">
      <!-- 40 -->
      <g transform="translate(27.240625 202.674296) scale(0.1 -0.1)">
       <defs>
        <path id="DejaVuSans-34" d="M 2419 4116 
L 825 1625 
L 2419 1625 
L 2419 4116 
z
M 2253 4666 
L 3047 4666 
L 3047 1625 
L 3713 1625 
L 3713 1100 
L 3047 1100 
L 3047 0 
L 2419 0 
L 2419 1100 
L 313 1100 
L 313 1709 
L 2253 4666 
z
" transform="scale(0.015625)"/>
       </defs>
       <use xlink:href="#DejaVuSans-34"/>
       <use xlink:href="#DejaVuSans-30" transform="translate(63.623047 0)"/>
      </g>
     </g>
    </g>
    <g id="ytick_4">
     <g id="line2d_13">
      <g>
       <use xlink:href="#ma5c3d81574" x="46.965625" y="161.656615" style="stroke: #000000; stroke-width: 0.8"/>
      </g>
     </g>
     <g id="text_14">
      <!-- 60 -->
      <g transform="translate(27.240625 165.455834) scale(0.1 -0.1)">
       <defs>
        <path id="DejaVuSans-36" d="M 2113 2584 
Q 1688 2584 1439 2293 
Q 1191 2003 1191 1497 
Q 1191 994 1439 701 
Q 1688 409 2113 409 
Q 2538 409 2786 701 
Q 3034 994 3034 1497 
Q 3034 2003 2786 2293 
Q 2538 2584 2113 2584 
z
M 3366 4563 
L 3366 3988 
Q 3128 4100 2886 4159 
Q 2644 4219 2406 4219 
Q 1781 4219 1451 3797 
Q 1122 3375 1075 2522 
Q 1259 2794 1537 2939 
Q 1816 3084 2150 3084 
Q 2853 3084 3261 2657 
Q 3669 2231 3669 1497 
Q 3669 778 3244 343 
Q 2819 -91 2113 -91 
Q 1303 -91 875 529 
Q 447 1150 447 2328 
Q 447 3434 972 4092 
Q 1497 4750 2381 4750 
Q 2619 4750 2861 4703 
Q 3103 4656 3366 4563 
z
" transform="scale(0.015625)"/>
       </defs>
       <use xlink:href="#DejaVuSans-36"/>
       <use xlink:href="#DejaVuSans-30" transform="translate(63.623047 0)"/>
      </g>
     </g>
    </g>
    <g id="ytick_5">
     <g id="line2d_14">
      <g>
       <use xlink:href="#ma5c3d81574" x="46.965625" y="124.438154" style="stroke: #000000; stroke-width: 0.8"/>
      </g>
     </g>
     <g id="text_15">
      <!-- 80 -->
      <g transform="translate(27.240625 128.237373) scale(0.1 -0.1)">
       <defs>
        <path id="DejaVuSans-38" d="M 2034 2216 
Q 1584 2216 1326 1975 
Q 1069 1734 1069 1313 
Q 1069 891 1326 650 
Q 1584 409 2034 409 
Q 2484 409 2743 651 
Q 3003 894 3003 1313 
Q 3003 1734 2745 1975 
Q 2488 2216 2034 2216 
z
M 1403 2484 
Q 997 2584 770 2862 
Q 544 3141 544 3541 
Q 544 4100 942 4425 
Q 1341 4750 2034 4750 
Q 2731 4750 3128 4425 
Q 3525 4100 3525 3541 
Q 3525 3141 3298 2862 
Q 3072 2584 2669 2484 
Q 3125 2378 3379 2068 
Q 3634 1759 3634 1313 
Q 3634 634 3220 271 
Q 2806 -91 2034 -91 
Q 1263 -91 848 271 
Q 434 634 434 1313 
Q 434 1759 690 2068 
Q 947 2378 1403 2484 
z
M 1172 3481 
Q 1172 3119 1398 2916 
Q 1625 2713 2034 2713 
Q 2441 2713 2670 2916 
Q 2900 3119 2900 3481 
Q 2900 3844 2670 4047 
Q 2441 4250 2034 4250 
Q 1625 4250 1398 4047 
Q 1172 3844 1172 3481 
z
" transform="scale(0.015625)"/>
       </defs>
       <use xlink:href="#DejaVuSans-38"/>
       <use xlink:href="#DejaVuSans-30" transform="translate(63.623047 0)"/>
      </g>
     </g>
    </g>
    <g id="ytick_6">
     <g id="line2d_15">
      <g>
       <use xlink:href="#ma5c3d81574" x="46.965625" y="87.219692" style="stroke: #000000; stroke-width: 0.8"/>
      </g>
     </g>
     <g id="text_16">
      <!-- 100 -->
      <g transform="translate(20.878125 91.018911) scale(0.1 -0.1)">
       <use xlink:href="#DejaVuSans-31"/>
       <use xlink:href="#DejaVuSans-30" transform="translate(63.623047 0)"/>
       <use xlink:href="#DejaVuSans-30" transform="translate(127.246094 0)"/>
      </g>
     </g>
    </g>
    <g id="ytick_7">
     <g id="line2d_16">
      <g>
       <use xlink:href="#ma5c3d81574" x="46.965625" y="50.001231" style="stroke: #000000; stroke-width: 0.8"/>
      </g>
     </g>
     <g id="text_17">
      <!-- 120 -->
      <g transform="translate(20.878125 53.80045) scale(0.1 -0.1)">
       <use xlink:href="#DejaVuSans-31"/>
       <use xlink:href="#DejaVuSans-32" transform="translate(63.623047 0)"/>
       <use xlink:href="#DejaVuSans-30" transform="translate(127.246094 0)"/>
      </g>
     </g>
    </g>
    <g id="ytick_8">
     <g id="line2d_17">
      <g>
       <use xlink:href="#ma5c3d81574" x="46.965625" y="12.782769" style="stroke: #000000; stroke-width: 0.8"/>
      </g>
     </g>
     <g id="text_18">
      <!-- 140 -->
      <g transform="translate(20.878125 16.581988) scale(0.1 -0.1)">
       <use xlink:href="#DejaVuSans-31"/>
       <use xlink:href="#DejaVuSans-34" transform="translate(63.623047 0)"/>
       <use xlink:href="#DejaVuSans-30" transform="translate(127.246094 0)"/>
      </g>
     </g>
    </g>
    <g id="text_19">
     <!-- Observable -->
     <g transform="translate(14.798438 168.766156) rotate(-90) scale(0.1 -0.1)">
      <defs>
       <path id="DejaVuSans-4f" d="M 2522 4238 
Q 1834 4238 1429 3725 
Q 1025 3213 1025 2328 
Q 1025 1447 1429 934 
Q 1834 422 2522 422 
Q 3209 422 3611 934 
Q 4013 1447 4013 2328 
Q 4013 3213 3611 3725 
Q 3209 4238 2522 4238 
z
M 2522 4750 
Q 3503 4750 4090 4092 
Q 4678 3434 4678 2328 
Q 4678 1225 4090 567 
Q 3503 -91 2522 -91 
Q 1538 -91 948 565 
Q 359 1222 359 2328 
Q 359 3434 948 4092 
Q 1538 4750 2522 4750 
z
" transform="scale(0.015625)"/>
       <path id="DejaVuSans-62" d="M 3116 1747 
Q 3116 2381 2855 2742 
Q 2594 3103 2138 3103 
Q 1681 3103 1420 2742 
Q 1159 2381 1159 1747 
Q 1159 1113 1420 752 
Q 1681 391 2138 391 
Q 2594 391 2855 752 
Q 3116 1113 3116 1747 
z
M 1159 2969 
Q 1341 3281 1617 3432 
Q 1894 3584 2278 3584 
Q 2916 3584 3314 3078 
Q 3713 2572 3713 1747 
Q 3713 922 3314 415 
Q 2916 -91 2278 -91 
Q 1894 -91 1617 61 
Q 1341 213 1159 525 
L 1159 0 
L 581 0 
L 581 4863 
L 1159 4863 
L 1159 2969 
z
" transform="scale(0.015625)"/>
       <path id="DejaVuSans-73" d="M 2834 3397 
L 2834 2853 
Q 2591 2978 2328 3040 
Q 2066 3103 1784 3103 
Q 1356 3103 1142 2972 
Q 928 2841 928 2578 
Q 928 2378 1081 2264 
Q 1234 2150 1697 2047 
L 1894 2003 
Q 2506 1872 2764 1633 
Q 3022 1394 3022 966 
Q 3022 478 2636 193 
Q 2250 -91 1575 -91 
Q 1294 -91 989 -36 
Q 684 19 347 128 
L 347 722 
Q 666 556 975 473 
Q 1284 391 1588 391 
Q 1994 391 2212 530 
Q 2431 669 2431 922 
Q 2431 1156 2273 1281 
Q 2116 1406 1581 1522 
L 1381 1569 
Q 847 1681 609 1914 
Q 372 2147 372 2553 
Q 372 3047 722 3315 
Q 1072 3584 1716 3584 
Q 2034 3584 2315 3537 
Q 2597 3491 2834 3397 
z
" transform="scale(0.015625)"/>
       <path id="DejaVuSans-72" d="M 2631 2963 
Q 2534 3019 2420 3045 
Q 2306 3072 2169 3072 
Q 1681 3072 1420 2755 
Q 1159 2438 1159 1844 
L 1159 0 
L 581 0 
L 581 3500 
L 1159 3500 
L 1159 2956 
Q 1341 3275 1631 3429 
Q 1922 3584 2338 3584 
Q 2397 3584 2469 3576 
Q 2541 3569 2628 3553 
L 2631 2963 
z
" transform="scale(0.015625)"/>
       <path id="DejaVuSans-76" d="M 191 3500 
L 800 3500 
L 1894 563 
L 2988 3500 
L 3597 3500 
L 2284 0 
L 1503 0 
L 191 3500 
z
" transform="scale(0.015625)"/>
       <path id="DejaVuSans-61" d="M 2194 1759 
Q 1497 1759 1228 1600 
Q 959 1441 959 1056 
Q 959 750 1161 570 
Q 1363 391 1709 391 
Q 2188 391 2477 730 
Q 2766 1069 2766 1631 
L 2766 1759 
L 2194 1759 
z
M 3341 1997 
L 3341 0 
L 2766 0 
L 2766 531 
Q 2569 213 2275 61 
Q 1981 -91 1556 -91 
Q 1019 -91 701 211 
Q 384 513 384 1019 
Q 384 1609 779 1909 
Q 1175 2209 1959 2209 
L 2766 2209 
L 2766 2266 
Q 2766 2663 2505 2880 
Q 2244 3097 1772 3097 
Q 1472 3097 1187 3025 
Q 903 2953 641 2809 
L 641 3341 
Q 956 3463 1253 3523 
Q 1550 3584 1831 3584 
Q 2591 3584 2966 3190 
Q 3341 2797 3341 1997 
z
" transform="scale(0.015625)"/>
       <path id="DejaVuSans-6c" d="M 603 4863 
L 1178 4863 
L 1178 0 
L 603 0 
L 603 4863 
z
" transform="scale(0.015625)"/>
      </defs>
      <use xlink:href="#DejaVuSans-4f"/>
      <use xlink:href="#DejaVuSans-62" transform="translate(78.710938 0)"/>
      <use xlink:href="#DejaVuSans-73" transform="translate(142.1875 0)"/>
      <use xlink:href="#DejaVuSans-65" transform="translate(194.287109 0)"/>
      <use xlink:href="#DejaVuSans-72" transform="translate(255.810547 0)"/>
      <use xlink:href="#DejaVuSans-76" transform="translate(296.923828 0)"/>
      <use xlink:href="#DejaVuSans-61" transform="translate(356.103516 0)"/>
      <use xlink:href="#DejaVuSans-62" transform="translate(417.382812 0)"/>
      <use xlink:href="#DejaVuSans-6c" transform="translate(480.859375 0)"/>
      <use xlink:href="#DejaVuSans-65" transform="translate(508.642578 0)"/>
     </g>
    </g>
   </g>
   <g id="line2d_18">
    <path d="M 46.965625 273.312 
L 47.419205 237.954462 
L 47.513989 232.371692 
L 47.622699 217.484308 
L 47.787476 215.623385 
L 48.061676 202.596923 
L 48.189176 198.875077 
L 48.300642 193.292308 
L 48.62579 191.431385 
L 48.736459 183.987692 
L 49.095987 182.126769 
L 49.33425 180.265846 
L 49.441731 174.683077 
L 49.500702 170.961231 
L 49.679441 169.100308 
L 49.741554 167.239385 
L 49.969455 165.378462 
L 50.100287 161.656615 
L 50.424472 157.934769 
L 50.426987 154.212923 
L 50.703417 152.352 
L 50.754179 150.491077 
L 51.060973 152.352 
L 51.083802 148.630154 
L 51.307591 146.769231 
L 51.765365 137.464615 
L 52.949368 135.603692 
L 53.119163 131.881846 
L 53.308838 128.16 
L 53.332188 126.299077 
L 53.421286 128.16 
L 54.043884 126.299077 
L 54.226542 122.577231 
L 55.331756 120.716308 
L 55.612633 118.855385 
L 56.401913 116.994462 
L 56.45535 115.133538 
L 56.77204 113.272615 
L 57.597273 111.411692 
L 60.482979 109.550769 
L 60.878712 107.689846 
L 62.557308 105.828923 
L 62.755185 103.968 
L 63.322918 102.107077 
L 63.651246 103.968 
L 64.257777 105.828923 
L 65.007376 103.968 
L 72.508081 105.828923 
L 75.766017 107.689846 
L 77.368522 105.828923 
L 78.52311 102.107077 
L 79.067287 103.968 
L 79.386558 105.828923 
L 79.955849 103.968 
L 83.223529 105.828923 
L 83.984549 107.689846 
L 84.127262 105.828923 
L 87.376558 107.689846 
L 88.039561 109.550769 
L 88.084776 107.689846 
L 88.677815 109.550769 
L 88.809394 111.411692 
L 88.86752 109.550769 
L 89.561855 111.411692 
L 89.748511 109.550769 
L 91.445945 107.689846 
L 92.21194 109.550769 
L 92.629324 107.689846 
L 93.257086 109.550769 
L 93.432585 111.411692 
L 93.622418 109.550769 
L 94.477935 107.689846 
L 94.800442 109.550769 
L 94.858287 107.689846 
L 100.350588 109.550769 
L 100.409028 107.689846 
L 100.670524 109.550769 
L 102.304667 111.411692 
L 102.625766 109.550769 
L 104.003931 111.411692 
L 104.662384 113.272615 
L 105.333006 111.411692 
L 106.515564 109.550769 
L 107.3519 111.411692 
L 107.539239 107.689846 
L 107.809029 109.550769 
L 109.633757 105.828923 
L 110.262591 107.689846 
L 111.850682 105.828923 
L 112.367382 103.968 
L 112.371062 105.828923 
L 113.321779 103.968 
L 114.722335 105.828923 
L 115.245748 103.968 
L 115.326793 105.828923 
L 117.523978 107.689846 
L 119.050872 109.550769 
L 119.173983 107.689846 
L 119.48672 109.550769 
L 120.708192 111.411692 
L 122.303572 109.550769 
L 122.524061 107.689846 
L 123.809363 109.550769 
L 124.20994 107.689846 
L 124.352408 109.550769 
L 125.888289 111.411692 
L 127.047154 113.272615 
L 127.063014 115.133538 
L 127.295104 116.994462 
L 128.144534 118.855385 
L 129.753432 115.133538 
L 130.935899 116.994462 
L 131.06776 118.855385 
L 131.363204 116.994462 
L 132.194686 115.133538 
L 132.208453 113.272615 
L 132.459885 115.133538 
L 134.418886 113.272615 
L 135.067093 111.411692 
L 137.831455 109.550769 
L 139.982754 107.689846 
L 146.05012 103.968 
L 146.168997 102.107077 
L 147.658529 100.246154 
L 148.828048 102.107077 
L 149.383728 103.968 
L 149.688326 105.828923 
L 149.689914 107.689846 
L 150.346007 109.550769 
L 151.386488 111.411692 
L 151.701754 109.550769 
L 152.54003 107.689846 
L 152.859736 109.550769 
L 153.836837 107.689846 
L 154.150834 105.828923 
L 154.633697 103.968 
L 154.774755 102.107077 
L 157.9955 103.968 
L 160.410582 105.828923 
L 160.746382 107.689846 
L 160.746726 105.828923 
L 161.273754 107.689846 
L 162.176094 105.828923 
L 162.723531 103.968 
L 163.387545 105.828923 
L 164.878579 103.968 
L 164.970381 105.828923 
L 165.910375 103.968 
L 167.677962 105.828923 
L 168.725757 103.968 
L 168.955819 102.107077 
L 169.276614 103.968 
L 171.240321 102.107077 
L 171.851674 103.968 
L 172.075681 105.828923 
L 172.715295 103.968 
L 173.821056 102.107077 
L 175.409056 103.968 
L 175.525826 102.107077 
L 175.746804 103.968 
L 176.502836 102.107077 
L 176.830239 103.968 
L 177.461874 105.828923 
L 178.49483 107.689846 
L 179.262779 109.550769 
L 180.968227 107.689846 
L 182.046239 105.828923 
L 183.711303 107.689846 
L 185.641856 109.550769 
L 186.136316 107.689846 
L 186.377319 109.550769 
L 187.492334 107.689846 
L 188.328609 105.828923 
L 188.40425 103.968 
L 188.732744 102.107077 
L 189.620162 100.246154 
L 189.950216 102.107077 
L 191.35024 100.246154 
L 192.00729 102.107077 
L 192.621247 100.246154 
L 193.305156 102.107077 
L 194.307264 103.968 
L 196.320355 105.828923 
L 196.769281 103.968 
L 197.218402 105.828923 
L 199.019522 107.689846 
L 199.480335 109.550769 
L 200.087101 107.689846 
L 200.298526 105.828923 
L 200.83539 103.968 
L 201.259828 105.828923 
L 201.745703 103.968 
L 202.398382 102.107077 
L 203.510472 100.246154 
L 204.139081 102.107077 
L 204.170467 103.968 
L 204.678952 98.385231 
L 206.642253 100.246154 
L 208.392095 102.107077 
L 208.724183 100.246154 
L 208.748747 102.107077 
L 219.362974 100.246154 
L 221.88592 103.968 
L 224.981643 102.107077 
L 225.005164 100.246154 
L 225.174489 102.107077 
L 225.502251 89.080615 
L 225.71175 87.219692 
L 226.267558 76.054154 
L 226.432869 74.193231 
L 226.44303 76.054154 
L 226.531124 74.193231 
L 226.643059 72.332308 
L 226.769045 74.193231 
L 226.960777 66.749538 
L 227.474267 61.166769 
L 227.534477 59.305846 
L 227.787615 57.444923 
L 227.882488 53.723077 
L 228.070977 51.862154 
L 228.07266 53.723077 
L 228.086626 51.862154 
L 228.546467 44.418462 
L 228.9867 40.696615 
L 229.166561 38.835692 
L 229.844029 35.113846 
L 229.995219 31.392 
L 230.2533 33.252923 
L 230.317312 31.392 
L 230.539907 29.531077 
L 231.900073 27.670154 
L 232.211582 22.087385 
L 232.589695 20.226462 
L 234.554773 18.365538 
L 235.250923 16.504615 
L 236.532741 14.643692 
L 237.945576 16.504615 
L 238.346049 14.643692 
L 238.485722 12.782769 
L 240.587973 14.643692 
L 241.77138 12.782769 
L 241.82853 14.643692 
L 241.866295 12.782769 
L 242.480684 10.921846 
L 246.576453 9.060923 
L 247.827151 10.921846 
L 249.082732 9.060923 
L 249.722303 10.921846 
L 250.191638 12.782769 
L 253.613322 10.921846 
L 254.392182 12.782769 
L 255.392646 14.643692 
L 255.552291 12.782769 
L 256.354247 10.921846 
L 256.507512 9.060923 
L 256.50983 10.921846 
L 257.233019 9.060923 
L 257.460773 10.921846 
L 260.361215 16.504615 
L 261.045138 18.365538 
L 261.367546 16.504615 
L 262.026692 18.365538 
L 263.047175 16.504615 
L 263.161824 14.643692 
L 264.109123 16.504615 
L 264.324313 14.643692 
L 265.124112 16.504615 
L 266.930793 14.643692 
L 267.397416 12.782769 
L 267.427618 14.643692 
L 267.694291 12.782769 
L 267.765401 14.643692 
L 269.004335 16.504615 
L 270.90741 18.365538 
L 271.557087 16.504615 
L 271.583036 18.365538 
L 271.953312 20.226462 
L 273.283275 18.365538 
L 273.795906 20.226462 
L 274.159144 18.365538 
L 274.408189 16.504615 
L 275.109029 18.365538 
L 275.524566 22.087385 
L 276.356011 20.226462 
L 276.681631 18.365538 
L 276.909035 20.226462 
L 277.186968 18.365538 
L 279.768457 20.226462 
L 280.188294 18.365538 
L 280.309274 16.504615 
L 281.201799 18.365538 
L 282.032866 16.504615 
L 282.536363 18.365538 
L 282.872068 20.226462 
L 282.941554 22.087385 
L 283.406223 20.226462 
L 283.498771 18.365538 
L 283.966709 16.504615 
L 287.038455 18.365538 
L 287.398859 16.504615 
L 288.526609 14.643692 
L 289.390821 16.504615 
L 289.592664 18.365538 
L 291.878023 16.504615 
L 292.384394 14.643692 
L 294.131695 16.504615 
L 295.467992 18.365538 
L 295.943993 22.087385 
L 296.294823 23.948308 
L 296.44673 22.087385 
L 296.884391 23.948308 
L 297.574596 20.226462 
L 298.359328 16.504615 
L 298.491436 18.365538 
L 298.985368 16.504615 
L 299.929503 14.643692 
L 300.865289 16.504615 
L 301.91944 14.643692 
L 302.666321 16.504615 
L 305.164795 14.643692 
L 305.190649 16.504615 
L 305.754345 18.365538 
L 306.961561 16.504615 
L 307.433254 14.643692 
L 309.101449 10.921846 
L 309.6103 12.782769 
L 309.917205 14.643692 
L 310.636422 16.504615 
L 311.845189 18.365538 
L 312.123585 16.504615 
L 312.925108 18.365538 
L 314.124018 16.504615 
L 314.168804 18.365538 
L 315.646482 20.226462 
L 316.383677 18.365538 
L 316.444028 20.226462 
L 317.549874 18.365538 
L 318.239485 20.226462 
L 318.264756 22.087385 
L 318.521085 18.365538 
L 319.007088 20.226462 
L 319.10709 18.365538 
L 320.298999 20.226462 
L 320.446889 22.087385 
L 320.680613 18.365538 
L 320.686111 20.226462 
L 321.928555 22.087385 
L 322.013669 20.226462 
L 322.241243 18.365538 
L 322.834494 16.504615 
L 323.016368 18.365538 
L 323.145748 16.504615 
L 323.562887 14.643692 
L 324.144406 16.504615 
L 327.252682 14.643692 
L 329.866887 16.504615 
L 330.069649 18.365538 
L 330.743857 20.226462 
L 330.770849 22.087385 
L 331.11073 23.948308 
L 331.26478 25.809231 
L 332.12178 22.087385 
L 333.174194 25.809231 
L 333.59205 27.670154 
L 333.998247 25.809231 
L 334.243713 23.948308 
L 334.845992 22.087385 
L 335.019102 23.948308 
L 335.107356 22.087385 
L 335.836922 25.809231 
L 337.381954 22.087385 
L 338.194956 23.948308 
L 338.383927 22.087385 
L 340.014446 20.226462 
L 341.837365 22.087385 
L 342.474999 23.948308 
L 344.037436 25.809231 
L 344.229721 27.670154 
L 344.235198 25.809231 
L 344.491342 23.948308 
L 345.001171 22.087385 
L 345.856695 23.948308 
L 345.909094 22.087385 
L 345.921638 23.948308 
L 346.29823 25.809231 
L 346.40389 23.948308 
L 347.197319 25.809231 
L 347.349258 23.948308 
L 347.418054 25.809231 
L 347.571311 23.948308 
L 347.61803 25.809231 
L 347.679595 23.948308 
L 348.186846 25.809231 
L 349.419174 23.948308 
L 350.038692 22.087385 
L 350.664718 18.365538 
L 352.427299 16.504615 
L 352.7198 14.643692 
L 354.780694 16.504615 
L 354.84682 18.365538 
L 355.304718 20.226462 
L 355.543151 18.365538 
L 355.665729 16.504615 
L 356.856322 14.643692 
L 357.601331 16.504615 
L 358.175859 14.643692 
L 359.235127 12.782769 
L 359.383775 16.504615 
L 359.530462 14.643692 
L 360.927203 12.782769 
L 361.04574 14.643692 
L 361.047687 16.504615 
L 361.146449 14.643692 
L 361.344221 12.782769 
L 362.147555 10.921846 
L 362.159573 12.782769 
L 362.515011 9.060923 
L 365.902612 14.643692 
L 365.981755 16.504615 
L 367.819379 14.643692 
L 368.867273 16.504615 
L 369.332996 14.643692 
L 371.611889 12.782769 
L 372.09598 10.921846 
L 373.026055 12.782769 
L 374.811501 10.921846 
L 374.879123 12.782769 
L 374.929567 10.921846 
L 375.734364 12.782769 
L 376.026404 14.643692 
L 376.5447 12.782769 
L 377.235193 10.921846 
L 378.206406 12.782769 
L 378.987851 14.643692 
L 379.862387 12.782769 
L 380.308385 10.921846 
L 380.640625 12.782769 
L 381.039971 10.921846 
L 381.486644 12.782769 
L 381.834793 10.921846 
L 383.892739 9.060923 
L 385.434641 7.2 
L 385.528893 9.060923 
L 386.973608 10.921846 
L 387.68241 12.782769 
L 387.979374 10.921846 
L 388.329622 12.782769 
L 389.359797 14.643692 
L 390.234875 16.504615 
L 391.405731 12.782769 
L 392.199659 10.921846 
L 392.291596 12.782769 
L 392.63179 14.643692 
L 393.216804 16.504615 
L 394.395542 18.365538 
L 395.389099 20.226462 
L 395.94151 18.365538 
L 397.482579 20.226462 
L 397.649626 18.365538 
L 398.35603 16.504615 
L 398.618434 14.643692 
L 400.016055 16.504615 
L 400.339682 14.643692 
L 401.027033 12.782769 
L 402.044903 10.921846 
L 402.481928 9.060923 
L 402.881687 10.921846 
L 404.085625 12.782769 
L 404.085625 12.782769 
" clip-path="url(#p8ec181b0b4)" style="fill: none; stroke: #1f77b4; stroke-width: 1.5; stroke-linecap: square"/>
   </g>
   <g id="line2d_19">
    <path d="M 225.217289 167.239385 
L 225.889306 185.848615 
L 226.03568 187.709538 
L 226.046038 185.848615 
L 226.208564 189.570462 
L 226.432869 193.292308 
L 226.44303 191.431385 
L 226.531124 193.292308 
L 226.643059 195.153231 
L 226.769045 193.292308 
L 226.960777 200.736 
L 227.474267 206.318769 
L 227.534477 208.179692 
L 227.787615 210.040615 
L 227.882488 213.762462 
L 228.070977 215.623385 
L 228.07266 213.762462 
L 228.086626 215.623385 
L 228.546467 223.067077 
L 228.9867 226.788923 
L 229.166561 228.649846 
L 229.844029 232.371692 
L 229.995219 236.093538 
L 230.2533 234.232615 
L 230.317312 236.093538 
L 230.539907 237.954462 
L 231.900073 239.815385 
L 232.211582 245.398154 
L 232.589695 247.259077 
L 234.554773 249.12 
L 235.250923 250.980923 
L 236.532741 252.841846 
L 237.945576 250.980923 
L 238.346049 252.841846 
L 238.485722 254.702769 
L 240.587973 252.841846 
L 241.77138 254.702769 
L 241.82853 252.841846 
L 241.866295 254.702769 
L 242.480684 256.563692 
L 246.576453 258.424615 
L 247.827151 256.563692 
L 249.082732 258.424615 
L 249.722303 256.563692 
L 250.191638 254.702769 
L 253.613322 256.563692 
L 254.392182 254.702769 
L 255.392646 252.841846 
L 255.552291 254.702769 
L 256.354247 256.563692 
L 256.507512 258.424615 
L 256.50983 256.563692 
L 257.233019 258.424615 
L 257.460773 256.563692 
L 260.361215 250.980923 
L 261.045138 249.12 
L 261.367546 250.980923 
L 262.026692 249.12 
L 263.047175 250.980923 
L 263.161824 252.841846 
L 264.109123 250.980923 
L 264.324313 252.841846 
L 265.124112 250.980923 
L 266.930793 252.841846 
L 267.397416 254.702769 
L 267.427618 252.841846 
L 267.694291 254.702769 
L 267.765401 252.841846 
L 269.004335 250.980923 
L 270.90741 249.12 
L 271.557087 250.980923 
L 271.583036 249.12 
L 271.953312 247.259077 
L 273.283275 249.12 
L 273.795906 247.259077 
L 274.159144 249.12 
L 274.408189 250.980923 
L 275.109029 249.12 
L 275.524566 245.398154 
L 276.356011 247.259077 
L 276.681631 249.12 
L 276.909035 247.259077 
L 277.186968 249.12 
L 279.768457 247.259077 
L 280.188294 249.12 
L 280.309274 250.980923 
L 281.201799 249.12 
L 282.032866 250.980923 
L 282.536363 249.12 
L 282.872068 247.259077 
L 282.941554 245.398154 
L 283.406223 247.259077 
L 283.498771 249.12 
L 283.966709 250.980923 
L 287.038455 249.12 
L 287.398859 250.980923 
L 288.526609 252.841846 
L 289.390821 250.980923 
L 289.592664 249.12 
L 291.878023 250.980923 
L 292.384394 252.841846 
L 294.131695 250.980923 
L 295.467992 249.12 
L 295.943993 245.398154 
L 296.294823 243.537231 
L 296.44673 245.398154 
L 296.884391 243.537231 
L 297.574596 247.259077 
L 298.359328 250.980923 
L 298.491436 249.12 
L 298.985368 250.980923 
L 299.929503 252.841846 
L 300.865289 250.980923 
L 301.91944 252.841846 
L 302.666321 250.980923 
L 305.164795 252.841846 
L 305.190649 250.980923 
L 305.754345 249.12 
L 306.961561 250.980923 
L 307.433254 252.841846 
L 309.101449 256.563692 
L 309.6103 254.702769 
L 309.917205 252.841846 
L 310.636422 250.980923 
L 311.845189 249.12 
L 312.123585 250.980923 
L 312.925108 249.12 
L 314.124018 250.980923 
L 314.168804 249.12 
L 315.646482 247.259077 
L 316.383677 249.12 
L 316.444028 247.259077 
L 317.549874 249.12 
L 318.239485 247.259077 
L 318.264756 245.398154 
L 318.521085 249.12 
L 319.007088 247.259077 
L 319.10709 249.12 
L 320.298999 247.259077 
L 320.446889 245.398154 
L 320.680613 249.12 
L 320.686111 247.259077 
L 321.928555 245.398154 
L 322.013669 247.259077 
L 322.241243 249.12 
L 322.834494 250.980923 
L 323.016368 249.12 
L 323.145748 250.980923 
L 323.562887 252.841846 
L 324.144406 250.980923 
L 327.252682 252.841846 
L 329.866887 250.980923 
L 330.069649 249.12 
L 330.743857 247.259077 
L 330.770849 245.398154 
L 331.11073 243.537231 
L 331.26478 241.676308 
L 332.12178 245.398154 
L 333.174194 241.676308 
L 333.59205 239.815385 
L 333.998247 241.676308 
L 334.243713 243.537231 
L 334.845992 245.398154 
L 335.019102 243.537231 
L 335.107356 245.398154 
L 335.836922 241.676308 
L 337.381954 245.398154 
L 338.194956 243.537231 
L 338.383927 245.398154 
L 340.014446 247.259077 
L 341.837365 245.398154 
L 342.474999 243.537231 
L 344.037436 241.676308 
L 344.229721 239.815385 
L 344.235198 241.676308 
L 344.491342 243.537231 
L 345.001171 245.398154 
L 345.856695 243.537231 
L 345.909094 245.398154 
L 345.921638 243.537231 
L 346.29823 241.676308 
L 346.40389 243.537231 
L 347.197319 241.676308 
L 347.349258 243.537231 
L 347.418054 241.676308 
L 347.571311 243.537231 
L 347.61803 241.676308 
L 347.679595 243.537231 
L 348.186846 241.676308 
L 349.419174 243.537231 
L 350.038692 245.398154 
L 350.664718 249.12 
L 352.427299 250.980923 
L 352.7198 252.841846 
L 354.780694 250.980923 
L 354.84682 249.12 
L 355.304718 247.259077 
L 355.543151 249.12 
L 355.665729 250.980923 
L 356.856322 252.841846 
L 357.601331 250.980923 
L 358.175859 252.841846 
L 359.235127 254.702769 
L 359.383775 250.980923 
L 359.530462 252.841846 
L 360.927203 254.702769 
L 361.04574 252.841846 
L 361.047687 250.980923 
L 361.146449 252.841846 
L 361.344221 254.702769 
L 362.147555 256.563692 
L 362.159573 254.702769 
L 362.515011 258.424615 
L 365.902612 252.841846 
L 365.981755 250.980923 
L 367.819379 252.841846 
L 368.867273 250.980923 
L 369.332996 252.841846 
L 371.611889 254.702769 
L 372.09598 256.563692 
L 373.026055 254.702769 
L 374.811501 256.563692 
L 374.879123 254.702769 
L 374.929567 256.563692 
L 375.734364 254.702769 
L 376.026404 252.841846 
L 376.5447 254.702769 
L 377.235193 256.563692 
L 378.206406 254.702769 
L 378.987851 252.841846 
L 379.862387 254.702769 
L 380.308385 256.563692 
L 380.640625 254.702769 
L 381.039971 256.563692 
L 381.486644 254.702769 
L 381.834793 256.563692 
L 383.892739 258.424615 
L 385.434641 260.285538 
L 385.528893 258.424615 
L 386.973608 256.563692 
L 387.68241 254.702769 
L 387.979374 256.563692 
L 388.329622 254.702769 
L 389.359797 252.841846 
L 390.234875 250.980923 
L 391.405731 254.702769 
L 392.199659 256.563692 
L 392.291596 254.702769 
L 392.63179 252.841846 
L 393.216804 250.980923 
L 394.395542 249.12 
L 395.389099 247.259077 
L 395.94151 249.12 
L 397.482579 247.259077 
L 397.649626 249.12 
L 398.35603 250.980923 
L 398.618434 252.841846 
L 400.016055 250.980923 
L 400.339682 252.841846 
L 401.027033 254.702769 
L 402.044903 256.563692 
L 402.481928 258.424615 
L 402.881687 256.563692 
L 404.085625 254.702769 
L 404.085625 254.702769 
" clip-path="url(#p8ec181b0b4)" style="fill: none; stroke: #ff7f0e; stroke-width: 1.5; stroke-linecap: square"/>
   </g>
   <g id="line2d_20">
    <path d="M 225.174489 273.312 
L 225.174489 7.2 
" clip-path="url(#p8ec181b0b4)" style="fill: none; stroke-dasharray: 1.5,2.475; stroke-dashoffset: 0; stroke: #000000; stroke-width: 1.5"/>
   </g>
   <g id="line2d_21">
    <path d="M 238.485722 273.312 
L 238.485722 7.2 
" clip-path="url(#p8ec181b0b4)" style="fill: none; stroke-dasharray: 1.5,2.475; stroke-dashoffset: 0; stroke: #000000; stroke-width: 1.5"/>
   </g>
   <g id="line2d_22">
    <path d="M 403.367794 273.312 
L 403.367794 7.2 
" clip-path="url(#p8ec181b0b4)" style="fill: none; stroke-dasharray: 1.5,2.475; stroke-dashoffset: 0; stroke: #000000; stroke-width: 1.5"/>
   </g>
   <g id="patch_3">
    <path d="M 46.965625 273.312 
L 46.965625 7.2 
" style="fill: none; stroke: #000000; stroke-width: 0.8; stroke-linejoin: miter; stroke-linecap: square"/>
   </g>
   <g id="patch_4">
    <path d="M 404.085625 273.312 
L 404.085625 7.2 
" style="fill: none; stroke: #000000; stroke-width: 0.8; stroke-linejoin: miter; stroke-linecap: square"/>
   </g>
   <g id="patch_5">
    <path d="M 46.965625 273.312 
L 404.085625 273.312 
" style="fill: none; stroke: #000000; stroke-width: 0.8; stroke-linejoin: miter; stroke-linecap: square"/>
   </g>
   <g id="patch_6">
    <path d="M 46.965625 7.2 
L 404.085625 7.2 
" style="fill: none; stroke: #000000; stroke-width: 0.8; stroke-linejoin: miter; stroke-linecap: square"/>
   </g>
   <g id="legend_1">
    <g id="patch_7">
     <path d="M 53.965625 44.55625 
L 99.667188 44.55625 
Q 101.667188 44.55625 101.667188 42.55625 
L 101.667188 14.2 
Q 101.667188 12.2 99.667188 12.2 
L 53.965625 12.2 
Q 51.965625 12.2 51.965625 14.2 
L 51.965625 42.55625 
Q 51.965625 44.55625 53.965625 44.55625 
z
" style="fill: #ffffff; opacity: 0.8; stroke: #cccccc; stroke-linejoin: miter"/>
    </g>
    <g id="line2d_23">
     <path d="M 55.965625 20.298437 
L 65.965625 20.298437 
L 75.965625 20.298437 
" style="fill: none; stroke: #1f77b4; stroke-width: 1.5; stroke-linecap: square"/>
    </g>
    <g id="text_20">
     <!-- AB -->
     <g transform="translate(83.965625 23.798437) scale(0.1 -0.1)">
      <defs>
       <path id="DejaVuSans-41" d="M 2188 4044 
L 1331 1722 
L 3047 1722 
L 2188 4044 
z
M 1831 4666 
L 2547 4666 
L 4325 0 
L 3669 0 
L 3244 1197 
L 1141 1197 
L 716 0 
L 50 0 
L 1831 4666 
z
" transform="scale(0.015625)"/>
       <path id="DejaVuSans-42" d="M 1259 2228 
L 1259 519 
L 2272 519 
Q 2781 519 3026 730 
Q 3272 941 3272 1375 
Q 3272 1813 3026 2020 
Q 2781 2228 2272 2228 
L 1259 2228 
z
M 1259 4147 
L 1259 2741 
L 2194 2741 
Q 2656 2741 2882 2914 
Q 3109 3088 3109 3444 
Q 3109 3797 2882 3972 
Q 2656 4147 2194 4147 
L 1259 4147 
z
M 628 4666 
L 2241 4666 
Q 2963 4666 3353 4366 
Q 3744 4066 3744 3513 
Q 3744 3084 3544 2831 
Q 3344 2578 2956 2516 
Q 3422 2416 3680 2098 
Q 3938 1781 3938 1306 
Q 3938 681 3513 340 
Q 3088 0 2303 0 
L 628 0 
L 628 4666 
z
" transform="scale(0.015625)"/>
      </defs>
      <use xlink:href="#DejaVuSans-41"/>
      <use xlink:href="#DejaVuSans-42" transform="translate(68.408203 0)"/>
     </g>
    </g>
    <g id="line2d_24">
     <path d="M 55.965625 34.976562 
L 65.965625 34.976562 
L 75.965625 34.976562 
" style="fill: none; stroke: #ff7f0e; stroke-width: 1.5; stroke-linecap: square"/>
    </g>
    <g id="text_21">
     <!-- A -->
     <g transform="translate(83.965625 38.476562) scale(0.1 -0.1)">
      <use xlink:href="#DejaVuSans-41"/>
     </g>
    </g>
   </g>
  </g>
 </g>
 <defs>
  <clipPath id="p8ec181b0b4">
   <rect x="46.965625" y="7.2" width="357.12" height="266.112"/>
  </clipPath>
 </defs>
</svg>
