<?xml version="1.0" encoding="utf-8" standalone="no"?>
<!DOCTYPE svg PUBLIC "-//W3C//DTD SVG 1.1//EN"
  "http://www.w3.org/Graphics/SVG/1.1/DTD/svg11.dtd">
<svg xmlns:xlink="http://www.w3.org/1999/xlink" width="332.39952pt" height="332.39952pt" viewBox="0 0 332.39952 332.39952" xmlns="http://www.w3.org/2000/svg" version="1.1">
 <metadata>
  <rdf:RDF xmlns:dc="http://purl.org/dc/elements/1.1/" xmlns:cc="http://creativecommons.org/ns#" xmlns:rdf="http://www.w3.org/1999/02/22-rdf-syntax-ns#">
   <cc:Work>
    <dc:type rdf:resource="http://purl.org/dc/dcmitype/StillImage"/>
    <dc:date>2026-06-10T14:44:23.761773</dc:date>
    <dc:format>image/svg+xml</dc:format>
    <dc:creator>
     <cc:Agent>
      <dc:title>Matplotlib v3.10.9, https://matplotlib.org/</dc:title>
     </cc:Agent>
    </dc:creator>
   </cc:Work>
  </rdf:RDF>
 </metadata>
 <defs>
  <style type="text/css">*{stroke-linejoin: round; stroke-linecap: butt}</style>
 </defs>
 <g id="figure_1">
  <g id="patch_1">
   <path d="M 0 332.39952 
L 332.39952 332.39952 
L 332.39952 0 
L 0 0 
z
" style="fill: #ffffff"/>
  </g>
  <g id="axes_1">
   <g id="patch_2">
    <path d="M 43.78125 96.747437 
L 325.19952 96.747437 
L 325.19952 7.2 
L 43.78125 7.2 
z
" style="fill: #ffffff"/>
   </g>
   <g id="matplotlib.axis_1">
    <g id="xtick_1">
     <g id="line2d_1">
      <defs>
       <path id="mb002cd98f9" d="M 0 0 
L 0 3.5 
" style="stroke: #000000; stroke-width: 0.8"/>
      </defs>
      <g>
       <use xlink:href="#mb002cd98f9" x="56.57299" y="96.747437" style="stroke: #000000; stroke-width: 0.8"/>
      </g>
     </g>
    </g>
    <g id="xtick_2">
     <g id="line2d_2">
      <g>
       <use xlink:href="#mb002cd98f9" x="88.444116" y="96.747437" style="stroke: #000000; stroke-width: 0.8"/>
      </g>
     </g>
    </g>
    <g id="xtick_3">
     <g id="line2d_3">
      <g>
       <use xlink:href="#mb002cd98f9" x="120.315242" y="96.747437" style="stroke: #000000; stroke-width: 0.8"/>
      </g>
     </g>
    </g>
    <g id="xtick_4">
     <g id="line2d_4">
      <g>
       <use xlink:href="#mb002cd98f9" x="152.186368" y="96.747437" style="stroke: #000000; stroke-width: 0.8"/>
      </g>
     </g>
    </g>
    <g id="xtick_5">
     <g id="line2d_5">
      <g>
       <use xlink:href="#mb002cd98f9" x="184.057494" y="96.747437" style="stroke: #000000; stroke-width: 0.8"/>
      </g>
     </g>
    </g>
    <g id="xtick_6">
     <g id="line2d_6">
      <g>
       <use xlink:href="#mb002cd98f9" x="215.92862" y="96.747437" style="stroke: #000000; stroke-width: 0.8"/>
      </g>
     </g>
    </g>
    <g id="xtick_7">
     <g id="line2d_7">
      <g>
       <use xlink:href="#mb002cd98f9" x="247.799746" y="96.747437" style="stroke: #000000; stroke-width: 0.8"/>
      </g>
     </g>
    </g>
    <g id="xtick_8">
     <g id="line2d_8">
      <g>
       <use xlink:href="#mb002cd98f9" x="279.670872" y="96.747437" style="stroke: #000000; stroke-width: 0.8"/>
      </g>
     </g>
    </g>
    <g id="xtick_9">
     <g id="line2d_9">
      <g>
       <use xlink:href="#mb002cd98f9" x="311.541998" y="96.747437" style="stroke: #000000; stroke-width: 0.8"/>
      </g>
     </g>
    </g>
   </g>
   <g id="matplotlib.axis_2">
    <g id="ytick_1">
     <g id="line2d_10">
      <defs>
       <path id="m384ef5834d" d="M 0 0 
L -3.5 0 
" style="stroke: #000000; stroke-width: 0.8"/>
      </defs>
      <g>
       <use xlink:href="#m384ef5834d" x="43.78125" y="92.677099" style="stroke: #000000; stroke-width: 0.8"/>
      </g>
     </g>
     <g id="text_1">
      <!-- 0 -->
      <g transform="translate(30.41875 96.476317) scale(0.1 -0.1)">
       <defs>
        <path id="DejaVuSans-30" d="M 2034 4250 
Q 1547 4250 1301 3770 
Q 1056 3291 1056 2328 
Q 1056 1369 1301 889 
Q 1547 409 2034 409 
Q 2525 409 2770 889 
Q 3016 1369 3016 2328 
Q 3016 3291 2770 3770 
Q 2525 4250 2034 4250 
z
M 2034 4750 
Q 2819 4750 3233 4129 
Q 3647 3509 3647 2328 
Q 3647 1150 3233 529 
Q 2819 -91 2034 -91 
Q 1250 -91 836 529 
Q 422 1150 422 2328 
Q 422 3509 836 4129 
Q 1250 4750 2034 4750 
z
" transform="scale(0.015625)"/>
       </defs>
       <use xlink:href="#DejaVuSans-30"/>
      </g>
     </g>
    </g>
    <g id="ytick_2">
     <g id="line2d_11">
      <g>
       <use xlink:href="#m384ef5834d" x="43.78125" y="51.973718" style="stroke: #000000; stroke-width: 0.8"/>
      </g>
     </g>
     <g id="text_2">
      <!-- 5 -->
      <g transform="translate(30.41875 55.772937) scale(0.1 -0.1)">
       <defs>
        <path id="DejaVuSans-35" d="M 691 4666 
L 3169 4666 
L 3169 4134 
L 1269 4134 
L 1269 2991 
Q 1406 3038 1543 3061 
Q 1681 3084 1819 3084 
Q 2600 3084 3056 2656 
Q 3513 2228 3513 1497 
Q 3513 744 3044 326 
Q 2575 -91 1722 -91 
Q 1428 -91 1123 -41 
Q 819 9 494 109 
L 494 744 
Q 775 591 1075 516 
Q 1375 441 1709 441 
Q 2250 441 2565 725 
Q 2881 1009 2881 1497 
Q 2881 1984 2565 2268 
Q 2250 2553 1709 2553 
Q 1456 2553 1204 2497 
Q 953 2441 691 2322 
L 691 4666 
z
" transform="scale(0.015625)"/>
       </defs>
       <use xlink:href="#DejaVuSans-35"/>
      </g>
     </g>
    </g>
    <g id="ytick_3">
     <g id="line2d_12">
      <g>
       <use xlink:href="#m384ef5834d" x="43.78125" y="11.270338" style="stroke: #000000; stroke-width: 0.8"/>
      </g>
     </g>
     <g id="text_3">
      <!-- 10 -->
      <g transform="translate(24.05625 15.069557) scale(0.1 -0.1)">
       <defs>
        <path id="DejaVuSans-31" d="M 794 531 
L 1825 531 
L 1825 4091 
L 703 3866 
L 703 4441 
L 1819 4666 
L 2450 4666 
L 2450 531 
L 3481 531 
L 3481 0 
L 794 0 
L 794 531 
z
" transform="scale(0.015625)"/>
       </defs>
       <use xlink:href="#DejaVuSans-31"/>
       <use xlink:href="#DejaVuSans-30" transform="translate(63.623047 0)"/>
      </g>
     </g>
    </g>
    <g id="text_4">
     <!-- Extracellular lactose -->
     <g transform="translate(17.976562 102.945593) rotate(-90) scale(0.1 -0.1)">
      <defs>
       <path id="DejaVuSans-45" d="M 628 4666 
L 3578 4666 
L 3578 4134 
L 1259 4134 
L 1259 2753 
L 3481 2753 
L 3481 2222 
L 1259 2222 
L 1259 531 
L 3634 531 
L 3634 0 
L 628 0 
L 628 4666 
z
" transform="scale(0.015625)"/>
       <path id="DejaVuSans-78" d="M 3513 3500 
L 2247 1797 
L 3578 0 
L 2900 0 
L 1881 1375 
L 863 0 
L 184 0 
L 1544 1831 
L 300 3500 
L 978 3500 
L 1906 2253 
L 2834 3500 
L 3513 3500 
z
" transform="scale(0.015625)"/>
       <path id="DejaVuSans-74" d="M 1172 4494 
L 1172 3500 
L 2356 3500 
L 2356 3053 
L 1172 3053 
L 1172 1153 
Q 1172 725 1289 603 
Q 1406 481 1766 481 
L 2356 481 
L 2356 0 
L 1766 0 
Q 1100 0 847 248 
Q 594 497 594 1153 
L 594 3053 
L 172 3053 
L 172 3500 
L 594 3500 
L 594 4494 
L 1172 4494 
z
" transform="scale(0.015625)"/>
       <path id="DejaVuSans-72" d="M 2631 2963 
Q 2534 3019 2420 3045 
Q 2306 3072 2169 3072 
Q 1681 3072 1420 2755 
Q 1159 2438 1159 1844 
L 1159 0 
L 581 0 
L 581 3500 
L 1159 3500 
L 1159 2956 
Q 1341 3275 1631 3429 
Q 1922 3584 2338 3584 
Q 2397 3584 2469 3576 
Q 2541 3569 2628 3553 
L 2631 2963 
z
" transform="scale(0.015625)"/>
       <path id="DejaVuSans-61" d="M 2194 1759 
Q 1497 1759 1228 1600 
Q 959 1441 959 1056 
Q 959 750 1161 570 
Q 1363 391 1709 391 
Q 2188 391 2477 730 
Q 2766 1069 2766 1631 
L 2766 1759 
L 2194 1759 
z
M 3341 1997 
L 3341 0 
L 2766 0 
L 2766 531 
Q 2569 213 2275 61 
Q 1981 -91 1556 -91 
Q 1019 -91 701 211 
Q 384 513 384 1019 
Q 384 1609 779 1909 
Q 1175 2209 1959 2209 
L 2766 2209 
L 2766 2266 
Q 2766 2663 2505 2880 
Q 2244 3097 1772 3097 
Q 1472 3097 1187 3025 
Q 903 2953 641 2809 
L 641 3341 
Q 956 3463 1253 3523 
Q 1550 3584 1831 3584 
Q 2591 3584 2966 3190 
Q 3341 2797 3341 1997 
z
" transform="scale(0.015625)"/>
       <path id="DejaVuSans-63" d="M 3122 3366 
L 3122 2828 
Q 2878 2963 2633 3030 
Q 2388 3097 2138 3097 
Q 1578 3097 1268 2742 
Q 959 2388 959 1747 
Q 959 1106 1268 751 
Q 1578 397 2138 397 
Q 2388 397 2633 464 
Q 2878 531 3122 666 
L 3122 134 
Q 2881 22 2623 -34 
Q 2366 -91 2075 -91 
Q 1284 -91 818 406 
Q 353 903 353 1747 
Q 353 2603 823 3093 
Q 1294 3584 2113 3584 
Q 2378 3584 2631 3529 
Q 2884 3475 3122 3366 
z
" transform="scale(0.015625)"/>
       <path id="DejaVuSans-65" d="M 3597 1894 
L 3597 1613 
L 953 1613 
Q 991 1019 1311 708 
Q 1631 397 2203 397 
Q 2534 397 2845 478 
Q 3156 559 3463 722 
L 3463 178 
Q 3153 47 2828 -22 
Q 2503 -91 2169 -91 
Q 1331 -91 842 396 
Q 353 884 353 1716 
Q 353 2575 817 3079 
Q 1281 3584 2069 3584 
Q 2775 3584 3186 3129 
Q 3597 2675 3597 1894 
z
M 3022 2063 
Q 3016 2534 2758 2815 
Q 2500 3097 2075 3097 
Q 1594 3097 1305 2825 
Q 1016 2553 972 2059 
L 3022 2063 
z
" transform="scale(0.015625)"/>
       <path id="DejaVuSans-6c" d="M 603 4863 
L 1178 4863 
L 1178 0 
L 603 0 
L 603 4863 
z
" transform="scale(0.015625)"/>
       <path id="DejaVuSans-75" d="M 544 1381 
L 544 3500 
L 1119 3500 
L 1119 1403 
Q 1119 906 1312 657 
Q 1506 409 1894 409 
Q 2359 409 2629 706 
Q 2900 1003 2900 1516 
L 2900 3500 
L 3475 3500 
L 3475 0 
L 2900 0 
L 2900 538 
Q 2691 219 2414 64 
Q 2138 -91 1772 -91 
Q 1169 -91 856 284 
Q 544 659 544 1381 
z
M 1991 3584 
L 1991 3584 
z
" transform="scale(0.015625)"/>
       <path id="DejaVuSans-20" transform="scale(0.015625)"/>
       <path id="DejaVuSans-6f" d="M 1959 3097 
Q 1497 3097 1228 2736 
Q 959 2375 959 1747 
Q 959 1119 1226 758 
Q 1494 397 1959 397 
Q 2419 397 2687 759 
Q 2956 1122 2956 1747 
Q 2956 2369 2687 2733 
Q 2419 3097 1959 3097 
z
M 1959 3584 
Q 2709 3584 3137 3096 
Q 3566 2609 3566 1747 
Q 3566 888 3137 398 
Q 2709 -91 1959 -91 
Q 1206 -91 779 398 
Q 353 888 353 1747 
Q 353 2609 779 3096 
Q 1206 3584 1959 3584 
z
" transform="scale(0.015625)"/>
       <path id="DejaVuSans-73" d="M 2834 3397 
L 2834 2853 
Q 2591 2978 2328 3040 
Q 2066 3103 1784 3103 
Q 1356 3103 1142 2972 
Q 928 2841 928 2578 
Q 928 2378 1081 2264 
Q 1234 2150 1697 2047 
L 1894 2003 
Q 2506 1872 2764 1633 
Q 3022 1394 3022 966 
Q 3022 478 2636 193 
Q 2250 -91 1575 -91 
Q 1294 -91 989 -36 
Q 684 19 347 128 
L 347 722 
Q 666 556 975 473 
Q 1284 391 1588 391 
Q 1994 391 2212 530 
Q 2431 669 2431 922 
Q 2431 1156 2273 1281 
Q 2116 1406 1581 1522 
L 1381 1569 
Q 847 1681 609 1914 
Q 372 2147 372 2553 
Q 372 3047 722 3315 
Q 1072 3584 1716 3584 
Q 2034 3584 2315 3537 
Q 2597 3491 2834 3397 
z
" transform="scale(0.015625)"/>
      </defs>
      <use xlink:href="#DejaVuSans-45"/>
      <use xlink:href="#DejaVuSans-78" transform="translate(63.183594 0)"/>
      <use xlink:href="#DejaVuSans-74" transform="translate(122.363281 0)"/>
      <use xlink:href="#DejaVuSans-72" transform="translate(161.572266 0)"/>
      <use xlink:href="#DejaVuSans-61" transform="translate(202.685547 0)"/>
      <use xlink:href="#DejaVuSans-63" transform="translate(263.964844 0)"/>
      <use xlink:href="#DejaVuSans-65" transform="translate(318.945312 0)"/>
      <use xlink:href="#DejaVuSans-6c" transform="translate(380.46875 0)"/>
      <use xlink:href="#DejaVuSans-6c" transform="translate(408.251953 0)"/>
      <use xlink:href="#DejaVuSans-75" transform="translate(436.035156 0)"/>
      <use xlink:href="#DejaVuSans-6c" transform="translate(499.414062 0)"/>
      <use xlink:href="#DejaVuSans-61" transform="translate(527.197266 0)"/>
      <use xlink:href="#DejaVuSans-72" transform="translate(588.476562 0)"/>
      <use xlink:href="#DejaVuSans-20" transform="translate(629.589844 0)"/>
      <use xlink:href="#DejaVuSans-6c" transform="translate(661.376953 0)"/>
      <use xlink:href="#DejaVuSans-61" transform="translate(689.160156 0)"/>
      <use xlink:href="#DejaVuSans-63" transform="translate(750.439453 0)"/>
      <use xlink:href="#DejaVuSans-74" transform="translate(805.419922 0)"/>
      <use xlink:href="#DejaVuSans-6f" transform="translate(844.628906 0)"/>
      <use xlink:href="#DejaVuSans-73" transform="translate(905.810547 0)"/>
      <use xlink:href="#DejaVuSans-65" transform="translate(957.910156 0)"/>
     </g>
    </g>
   </g>
   <g id="line2d_13">
    <path d="M 56.57299 92.677099 
L 155.714295 92.677099 
L 155.803226 11.270338 
L 156.469969 11.351745 
L 156.587437 11.677372 
L 156.632168 11.758779 
L 156.778089 13.2241 
L 156.89621 14.852235 
L 156.910012 14.933642 
L 157.053257 16.643184 
L 157.076762 16.724591 
L 157.585391 20.225082 
L 157.862103 20.632115 
L 157.921285 20.713522 
L 158.030257 20.794929 
L 158.467279 20.876336 
L 158.568744 21.201963 
L 158.825837 21.608997 
L 158.926051 22.01603 
L 159.046332 22.097437 
L 159.148835 22.585878 
L 159.178759 22.667285 
L 159.287469 23.562759 
L 159.384464 24.458233 
L 159.722795 25.842148 
L 159.768673 25.923555 
L 160.02623 27.388877 
L 160.144403 28.365758 
L 160.289932 29.668266 
L 160.301216 29.749673 
L 160.4251 30.807961 
L 160.459029 30.889367 
L 160.609104 31.866248 
L 160.639129 31.947655 
L 160.750026 32.273282 
L 160.785896 32.354689 
L 160.924379 32.761723 
L 160.978638 33.250163 
L 161.09595 33.820011 
L 161.118067 33.901417 
L 161.22081 34.145638 
L 161.264829 34.227045 
L 161.779711 35.936586 
L 162.260842 36.017993 
L 162.403901 36.506434 
L 162.427494 36.587841 
L 162.595362 36.994874 
L 162.805752 37.076281 
L 162.949246 37.646128 
L 163.096421 37.971756 
L 163.119518 38.053162 
L 163.222113 38.297383 
L 163.760203 39.518484 
L 163.86759 39.844111 
L 163.951278 39.925518 
L 164.087915 40.495365 
L 164.195513 41.228026 
L 164.443246 41.63506 
L 164.590719 41.716466 
L 164.727382 41.87928 
L 164.789864 41.960687 
L 164.894982 42.042094 
L 165.028483 42.1235 
L 165.128053 42.367721 
L 165.281893 42.693348 
L 165.334562 42.774754 
L 165.363354 42.856161 
L 165.555809 42.937568 
L 165.66686 43.344602 
L 165.812003 43.751636 
L 165.895154 43.833042 
L 166.013139 44.240076 
L 166.231661 44.565703 
L 166.30815 44.64711 
L 166.608301 46.438059 
L 166.655198 46.519465 
L 166.767738 47.089313 
L 166.79103 47.170719 
L 167.092414 48.391821 
L 167.341169 49.368702 
L 167.448963 50.019956 
L 167.478261 50.101363 
L 167.593696 50.42699 
L 167.765426 50.752617 
L 167.910374 50.834024 
L 168.005408 50.996837 
L 168.099842 51.078244 
L 168.209387 51.322464 
L 168.330116 51.485278 
L 168.468467 51.566685 
L 168.578412 51.648091 
L 168.900446 51.729498 
L 169.10889 52.217939 
L 169.232041 52.543566 
L 169.251195 52.624972 
L 169.463571 53.764667 
L 169.496272 53.846074 
L 169.59649 54.415921 
L 169.65165 54.497328 
L 169.790058 54.985768 
L 169.852415 55.067175 
L 170.042055 56.69531 
L 170.062347 56.776717 
L 170.243124 58.649073 
L 170.65602 61.091276 
L 170.678713 61.172682 
L 170.898954 62.393784 
L 170.99294 62.47519 
L 171.120736 62.882224 
L 171.291478 62.963631 
L 171.768221 63.370665 
L 171.871954 63.452072 
L 171.994338 63.940512 
L 172.131601 64.021919 
L 172.265356 64.347546 
L 173.187426 67.278189 
L 173.439809 67.359596 
L 173.53742 67.441003 
L 173.748541 67.52241 
L 174.288547 69.720392 
L 174.41486 70.453053 
L 174.462485 70.53446 
L 174.591856 71.511341 
L 174.776974 72.651036 
L 174.803011 72.732442 
L 174.997896 73.627917 
L 175.279163 73.709323 
L 175.45343 73.872137 
L 175.694573 73.953544 
L 175.836261 74.523391 
L 176.264852 75.256052 
L 179.880302 75.337459 
L 180.439805 76.395747 
L 180.573281 76.477153 
L 180.803451 76.80278 
L 180.941022 77.209814 
L 181.118171 77.535441 
L 181.189601 77.616848 
L 181.274473 77.779661 
L 181.48652 77.861068 
L 181.852539 79.000763 
L 182.138935 79.08217 
L 182.269106 79.32639 
L 182.377018 79.407797 
L 182.48943 79.57061 
L 182.564277 79.81483 
L 182.64529 79.896237 
L 183.271977 80.791712 
L 183.678399 81.605779 
L 183.743578 81.687186 
L 183.925786 82.09422 
L 184.156319 82.175627 
L 184.274713 82.257033 
L 184.584352 82.33844 
L 185.021401 83.071101 
L 185.173594 83.315321 
L 185.223048 83.396728 
L 185.30389 83.640948 
L 185.42854 83.722355 
L 185.596591 84.047982 
L 185.636785 84.129389 
L 185.792836 84.292202 
L 186.102383 84.373609 
L 186.304874 84.617829 
L 186.609257 84.699236 
L 186.734585 84.86205 
L 186.936468 84.943456 
L 187.032255 85.024863 
L 187.376345 85.10627 
L 187.439451 85.187677 
L 187.936061 85.269083 
L 188.018286 85.35049 
L 188.374931 85.513304 
L 188.938657 85.59471 
L 189.034244 85.838931 
L 189.198122 85.920338 
L 189.29484 86.164558 
L 189.410802 86.245965 
L 189.599084 86.327371 
L 189.746752 86.408778 
L 189.882588 86.571592 
L 190.02826 86.652998 
L 190.13738 86.734405 
L 190.46987 86.815812 
L 190.710132 86.978625 
L 191.000161 87.060032 
L 191.282071 87.222846 
L 191.948034 87.304252 
L 192.178149 87.467066 
L 192.946081 87.548473 
L 193.099231 87.711286 
L 193.167569 87.792693 
L 193.399076 87.8741 
L 193.414241 87.955507 
L 193.695015 88.036913 
L 193.955923 88.11832 
L 194.046671 88.281134 
L 194.59157 88.36254 
L 194.724928 88.443947 
L 195.017899 88.525354 
L 195.271633 88.769574 
L 195.642939 88.850981 
L 195.751185 88.932388 
L 195.905784 89.013794 
L 197.07283 89.095201 
L 197.357699 89.258015 
L 198.252958 89.339421 
L 198.799953 89.420828 
L 199.855796 89.502235 
L 199.958561 89.583642 
L 200.552182 89.665048 
L 200.689106 89.827862 
L 203.16812 89.909269 
L 208.608603 90.316303 
L 208.667157 90.479116 
L 209.25984 90.64193 
L 224.668864 90.723336 
L 224.814283 90.804743 
L 225.782857 90.88615 
L 226.17266 91.048963 
L 226.866709 91.13037 
L 226.917246 91.211777 
L 229.502891 91.293184 
L 229.613098 91.37459 
L 265.499753 91.455997 
L 266.233823 91.700218 
L 308.352397 91.781624 
L 309.474683 91.863031 
L 312.40778 91.863031 
L 312.40778 91.863031 
" clip-path="url(#pe96275984a)" style="fill: none; stroke: #000000; stroke-width: 1.5; stroke-linecap: square"/>
   </g>
   <g id="patch_3">
    <path d="M 43.78125 96.747437 
L 43.78125 7.2 
" style="fill: none; stroke: #000000; stroke-width: 0.8; stroke-linejoin: miter; stroke-linecap: square"/>
   </g>
   <g id="patch_4">
    <path d="M 325.19952 96.747437 
L 325.19952 7.2 
" style="fill: none; stroke: #000000; stroke-width: 0.8; stroke-linejoin: miter; stroke-linecap: square"/>
   </g>
   <g id="patch_5">
    <path d="M 43.78125 96.747437 
L 325.19952 96.747437 
" style="fill: none; stroke: #000000; stroke-width: 0.8; stroke-linejoin: miter; stroke-linecap: square"/>
   </g>
   <g id="patch_6">
    <path d="M 43.78125 7.2 
L 325.19952 7.2 
" style="fill: none; stroke: #000000; stroke-width: 0.8; stroke-linejoin: miter; stroke-linecap: square"/>
   </g>
  </g>
  <g id="axes_2">
   <g id="patch_7">
    <path d="M 43.78125 195.795353 
L 325.19952 195.795353 
L 325.19952 106.247917 
L 43.78125 106.247917 
z
" style="fill: #ffffff"/>
   </g>
   <g id="matplotlib.axis_3">
    <g id="xtick_10">
     <g id="line2d_14">
      <g>
       <use xlink:href="#mb002cd98f9" x="56.57299" y="195.795353" style="stroke: #000000; stroke-width: 0.8"/>
      </g>
     </g>
    </g>
    <g id="xtick_11">
     <g id="line2d_15">
      <g>
       <use xlink:href="#mb002cd98f9" x="88.444116" y="195.795353" style="stroke: #000000; stroke-width: 0.8"/>
      </g>
     </g>
    </g>
    <g id="xtick_12">
     <g id="line2d_16">
      <g>
       <use xlink:href="#mb002cd98f9" x="120.315242" y="195.795353" style="stroke: #000000; stroke-width: 0.8"/>
      </g>
     </g>
    </g>
    <g id="xtick_13">
     <g id="line2d_17">
      <g>
       <use xlink:href="#mb002cd98f9" x="152.186368" y="195.795353" style="stroke: #000000; stroke-width: 0.8"/>
      </g>
     </g>
    </g>
    <g id="xtick_14">
     <g id="line2d_18">
      <g>
       <use xlink:href="#mb002cd98f9" x="184.057494" y="195.795353" style="stroke: #000000; stroke-width: 0.8"/>
      </g>
     </g>
    </g>
    <g id="xtick_15">
     <g id="line2d_19">
      <g>
       <use xlink:href="#mb002cd98f9" x="215.92862" y="195.795353" style="stroke: #000000; stroke-width: 0.8"/>
      </g>
     </g>
    </g>
    <g id="xtick_16">
     <g id="line2d_20">
      <g>
       <use xlink:href="#mb002cd98f9" x="247.799746" y="195.795353" style="stroke: #000000; stroke-width: 0.8"/>
      </g>
     </g>
    </g>
    <g id="xtick_17">
     <g id="line2d_21">
      <g>
       <use xlink:href="#mb002cd98f9" x="279.670872" y="195.795353" style="stroke: #000000; stroke-width: 0.8"/>
      </g>
     </g>
    </g>
    <g id="xtick_18">
     <g id="line2d_22">
      <g>
       <use xlink:href="#mb002cd98f9" x="311.541998" y="195.795353" style="stroke: #000000; stroke-width: 0.8"/>
      </g>
     </g>
    </g>
   </g>
   <g id="matplotlib.axis_4">
    <g id="ytick_4">
     <g id="line2d_23">
      <g>
       <use xlink:href="#m384ef5834d" x="43.78125" y="191.725015" style="stroke: #000000; stroke-width: 0.8"/>
      </g>
     </g>
     <g id="text_5">
      <!-- 0 -->
      <g transform="translate(30.41875 195.524234) scale(0.1 -0.1)">
       <use xlink:href="#DejaVuSans-30"/>
      </g>
     </g>
    </g>
    <g id="ytick_5">
     <g id="line2d_24">
      <g>
       <use xlink:href="#m384ef5834d" x="43.78125" y="151.021635" style="stroke: #000000; stroke-width: 0.8"/>
      </g>
     </g>
     <g id="text_6">
      <!-- 5 -->
      <g transform="translate(30.41875 154.820854) scale(0.1 -0.1)">
       <use xlink:href="#DejaVuSans-35"/>
      </g>
     </g>
    </g>
    <g id="ytick_6">
     <g id="line2d_25">
      <g>
       <use xlink:href="#m384ef5834d" x="43.78125" y="110.318255" style="stroke: #000000; stroke-width: 0.8"/>
      </g>
     </g>
     <g id="text_7">
      <!-- 10 -->
      <g transform="translate(24.05625 114.117473) scale(0.1 -0.1)">
       <use xlink:href="#DejaVuSans-31"/>
       <use xlink:href="#DejaVuSans-30" transform="translate(63.623047 0)"/>
      </g>
     </g>
    </g>
    <g id="text_8">
     <!-- LacY -->
     <g transform="translate(17.976563 162.67476) rotate(-90) scale(0.1 -0.1)">
      <defs>
       <path id="DejaVuSans-4c" d="M 628 4666 
L 1259 4666 
L 1259 531 
L 3531 531 
L 3531 0 
L 628 0 
L 628 4666 
z
" transform="scale(0.015625)"/>
       <path id="DejaVuSans-59" d="M -13 4666 
L 666 4666 
L 1959 2747 
L 3244 4666 
L 3922 4666 
L 2272 2222 
L 2272 0 
L 1638 0 
L 1638 2222 
L -13 4666 
z
" transform="scale(0.015625)"/>
      </defs>
      <use xlink:href="#DejaVuSans-4c"/>
      <use xlink:href="#DejaVuSans-61" transform="translate(55.712891 0)"/>
      <use xlink:href="#DejaVuSans-63" transform="translate(116.992188 0)"/>
      <use xlink:href="#DejaVuSans-59" transform="translate(171.972656 0)"/>
     </g>
    </g>
   </g>
   <g id="line2d_26">
    <path d="M 56.57299 110.318255 
L 56.600082 110.318255 
L 56.654505 118.458931 
L 56.762529 134.740283 
L 56.822793 142.880959 
L 56.974701 142.880959 
L 56.992374 134.740283 
L 57.212674 142.880959 
L 57.354354 142.880959 
L 57.524782 159.162311 
L 57.825289 175.443663 
L 57.890822 191.725015 
L 59.418811 191.725015 
L 59.585214 183.584339 
L 59.6279 191.725015 
L 64.643904 191.725015 
L 64.966438 183.584339 
L 65.076248 191.725015 
L 82.549555 191.725015 
L 82.743708 183.584339 
L 84.534679 191.725015 
L 84.549485 183.584339 
L 84.692504 175.443663 
L 84.697153 167.302987 
L 85.018893 175.443663 
L 85.245561 175.443663 
L 85.365038 191.725015 
L 85.425779 183.584339 
L 85.615757 183.584339 
L 85.754062 191.725015 
L 89.64121 191.725015 
L 90.0305 175.443663 
L 90.031799 167.302987 
L 90.529785 167.302987 
L 90.568403 183.584339 
L 91.339539 183.584339 
L 91.508243 175.443663 
L 91.852085 191.725015 
L 108.835073 191.725015 
L 108.940633 183.584339 
L 109.060184 183.584339 
L 109.199096 191.725015 
L 109.433792 191.725015 
L 109.475224 183.584339 
L 109.890645 183.584339 
L 110.24012 175.443663 
L 110.298392 183.584339 
L 110.473433 183.584339 
L 110.502973 191.725015 
L 119.25136 191.725015 
L 119.429559 183.584339 
L 121.527169 183.584339 
L 123.37232 191.725015 
L 131.130597 191.725015 
L 131.316631 183.584339 
L 131.603832 183.584339 
L 131.711474 191.725015 
L 136.041863 191.725015 
L 136.125488 183.584339 
L 136.147327 191.725015 
L 146.127539 191.725015 
L 146.388059 175.443663 
L 146.408865 183.584339 
L 146.437837 175.443663 
L 146.550807 167.302987 
L 146.556141 175.443663 
L 147.140157 175.443663 
L 147.756571 183.584339 
L 148.001599 183.584339 
L 148.316471 175.443663 
L 148.429215 175.443663 
L 149.499801 191.725015 
L 149.959404 191.725015 
L 150.011221 175.443663 
L 150.111971 175.443663 
L 150.264614 183.584339 
L 150.398168 183.584339 
L 150.940405 191.725015 
L 156.052539 191.725015 
L 156.480294 183.584339 
L 156.720291 151.021635 
L 157.001584 151.021635 
L 157.121543 167.302987 
L 157.17135 167.302987 
L 157.272126 159.162311 
L 157.358997 159.162311 
L 157.468669 175.443663 
L 157.496835 175.443663 
L 157.585391 183.584339 
L 157.936735 183.584339 
L 158.030257 191.725015 
L 158.417055 191.725015 
L 158.518141 183.584339 
L 158.69939 183.584339 
L 158.809462 175.443663 
L 158.955179 175.443663 
L 159.010571 183.584339 
L 159.064971 175.443663 
L 159.171008 175.443663 
L 159.275111 167.302987 
L 159.434872 167.302987 
L 159.559597 183.584339 
L 159.693596 183.584339 
L 159.81647 175.443663 
L 159.965323 175.443663 
L 160.093077 159.162311 
L 160.269905 159.162311 
L 160.33852 151.021635 
L 160.380972 159.162311 
L 160.464869 159.162311 
L 160.515335 151.021635 
L 160.56785 159.162311 
L 160.736203 159.162311 
L 160.845111 175.443663 
L 160.874009 175.443663 
L 160.904485 183.584339 
L 160.912851 167.302987 
L 160.980738 167.302987 
L 161.215408 167.302987 
L 161.327267 175.443663 
L 161.614095 175.443663 
L 161.71404 183.584339 
L 161.813656 183.584339 
L 161.922358 191.725015 
L 162.173384 191.725015 
L 162.321023 183.584339 
L 162.443822 183.584339 
L 162.55835 175.443663 
L 162.595362 175.443663 
L 162.703814 183.584339 
L 162.945671 183.584339 
L 162.998468 175.443663 
L 163.051381 183.584339 
L 163.390797 183.584339 
L 163.50916 175.443663 
L 163.514991 175.443663 
L 163.522201 167.302987 
L 163.592704 175.443663 
L 163.829527 175.443663 
L 163.881956 183.584339 
L 163.90291 175.443663 
L 164.048265 175.443663 
L 164.103066 167.302987 
L 164.146042 175.443663 
L 164.229669 175.443663 
L 164.260043 183.584339 
L 164.308088 175.443663 
L 164.545878 175.443663 
L 164.607861 183.584339 
L 164.799253 183.584339 
L 164.894982 191.725015 
L 165.028483 183.584339 
L 165.583738 183.584339 
L 165.696035 175.443663 
L 165.983173 175.443663 
L 166.123663 183.584339 
L 166.231661 183.584339 
L 166.486342 159.162311 
L 166.493075 159.162311 
L 166.585966 167.302987 
L 166.627459 167.302987 
L 166.684129 175.443663 
L 166.738509 167.302987 
L 166.76629 167.302987 
L 166.878139 175.443663 
L 167.202556 175.443663 
L 167.316734 167.302987 
L 167.412561 167.302987 
L 167.52415 175.443663 
L 167.86635 175.443663 
L 167.942479 183.584339 
L 167.975259 175.443663 
L 168.168441 175.443663 
L 168.272798 183.584339 
L 168.416206 183.584339 
L 168.53119 191.725015 
L 168.772511 191.725015 
L 168.954511 183.584339 
L 169.09309 183.584339 
L 169.210023 167.302987 
L 169.232041 167.302987 
L 169.350681 159.162311 
L 169.619304 159.162311 
L 169.659146 151.021635 
L 169.727059 159.162311 
L 169.790058 159.162311 
L 169.92383 134.740283 
L 170.038503 142.880959 
L 170.313324 142.880959 
L 170.407584 134.740283 
L 170.424256 142.880959 
L 170.446921 142.880959 
L 170.482223 134.740283 
L 170.544484 151.021635 
L 170.552175 151.021635 
L 170.587384 151.021635 
L 170.60356 159.162311 
L 170.696188 151.021635 
L 170.729656 142.880959 
L 170.797751 151.021635 
L 170.8399 151.021635 
L 170.929233 167.302987 
L 171.018178 167.302987 
L 171.136211 183.584339 
L 171.862113 183.584339 
L 171.976819 175.443663 
L 171.994338 175.443663 
L 172.16957 167.302987 
L 172.330765 167.302987 
L 172.42781 151.021635 
L 172.448274 159.162311 
L 172.592163 159.162311 
L 172.710078 167.302987 
L 173.220836 167.302987 
L 173.292114 183.584339 
L 173.626831 183.584339 
L 173.748541 167.302987 
L 173.808769 167.302987 
L 173.922626 159.162311 
L 173.953447 159.162311 
L 173.977674 151.021635 
L 174.058067 159.162311 
L 174.127338 159.162311 
L 174.235458 151.021635 
L 174.302259 151.021635 
L 174.375658 134.740283 
L 174.412371 142.880959 
L 174.471351 142.880959 
L 174.582801 134.740283 
L 174.644522 134.740283 
L 174.75892 142.880959 
L 174.864178 142.880959 
L 174.976004 167.302987 
L 175.063565 167.302987 
L 175.151769 183.584339 
L 175.270078 183.584339 
L 175.354697 175.443663 
L 175.372994 183.584339 
L 175.679627 183.584339 
L 175.801702 175.443663 
L 176.075814 175.443663 
L 176.162182 167.302987 
L 176.170791 175.443663 
L 176.211508 175.443663 
L 176.240051 183.584339 
L 176.264852 175.443663 
L 176.367639 175.443663 
L 176.55686 191.725015 
L 176.790519 191.725015 
L 176.823823 183.584339 
L 176.998623 183.584339 
L 177.156249 175.443663 
L 177.316464 191.725015 
L 178.260835 191.725015 
L 178.393671 175.443663 
L 178.541781 191.725015 
L 179.065281 191.725015 
L 179.174346 183.584339 
L 179.28366 191.725015 
L 179.402387 183.584339 
L 179.510406 191.725015 
L 179.739711 191.725015 
L 179.964179 175.443663 
L 180.25235 175.443663 
L 180.381487 167.302987 
L 180.555395 167.302987 
L 180.672821 159.162311 
L 180.808715 142.880959 
L 180.839457 142.880959 
L 180.957348 151.021635 
L 181.068186 151.021635 
L 181.189601 159.162311 
L 181.33518 159.162311 
L 181.428636 167.302987 
L 181.598394 151.021635 
L 181.604109 151.021635 
L 181.713212 142.880959 
L 181.852539 167.302987 
L 181.878135 167.302987 
L 181.959194 175.443663 
L 181.973147 167.302987 
L 182.012152 167.302987 
L 182.155698 142.880959 
L 182.175411 151.021635 
L 182.747427 151.021635 
L 182.81972 142.880959 
L 182.984356 142.880959 
L 182.985736 151.021635 
L 183.088072 142.880959 
L 183.271977 159.162311 
L 183.485993 159.162311 
L 183.607882 151.021635 
L 183.678399 151.021635 
L 183.806898 159.162311 
L 183.901405 159.162311 
L 184.016136 167.302987 
L 184.063298 167.302987 
L 184.11859 175.443663 
L 184.16439 167.302987 
L 184.214173 167.302987 
L 184.335141 151.021635 
L 184.433207 151.021635 
L 184.550359 142.880959 
L 184.70083 142.880959 
L 184.778584 151.021635 
L 184.785615 134.740283 
L 184.904453 134.740283 
L 184.98824 142.880959 
L 185.173594 142.880959 
L 185.287716 159.162311 
L 185.402664 159.162311 
L 185.529955 151.021635 
L 185.557528 151.021635 
L 185.659888 159.162311 
L 185.825072 159.162311 
L 185.896657 167.302987 
L 185.947027 167.302987 
L 186.102383 159.162311 
L 186.131316 159.162311 
L 186.190174 175.443663 
L 186.473558 175.443663 
L 186.563847 167.302987 
L 186.62915 175.443663 
L 186.734585 175.443663 
L 186.859316 159.162311 
L 186.957671 175.443663 
L 187.032255 175.443663 
L 187.1604 183.584339 
L 187.353791 183.584339 
L 187.439451 175.443663 
L 187.615541 167.302987 
L 187.765673 167.302987 
L 187.785033 159.162311 
L 187.832523 167.302987 
L 188.136711 167.302987 
L 188.282305 183.584339 
L 188.451318 183.584339 
L 188.536703 175.443663 
L 188.621826 175.443663 
L 188.63043 183.584339 
L 188.70427 175.443663 
L 188.9277 183.584339 
L 189.034244 151.021635 
L 189.10539 151.021635 
L 189.152314 167.302987 
L 189.229116 159.162311 
L 189.239211 159.162311 
L 189.35789 151.021635 
L 189.470082 151.021635 
L 189.499498 142.880959 
L 189.770408 159.162311 
L 189.856019 159.162311 
L 189.940278 175.443663 
L 190.095067 167.302987 
L 190.173889 175.443663 
L 190.179971 167.302987 
L 190.414881 167.302987 
L 190.54637 175.443663 
L 190.606325 175.443663 
L 190.710132 167.302987 
L 190.751066 159.162311 
L 190.783037 167.302987 
L 190.822539 167.302987 
L 190.901897 175.443663 
L 190.953894 167.302987 
L 191.000161 175.443663 
L 191.239043 175.443663 
L 191.380821 191.725015 
L 191.917839 191.725015 
L 192.023647 183.584339 
L 192.178149 183.584339 
L 192.283834 191.725015 
L 192.550719 191.725015 
L 192.56682 175.443663 
L 192.871918 175.443663 
L 192.946081 167.302987 
L 193.105986 167.302987 
L 193.167569 151.021635 
L 193.33089 151.021635 
L 193.414241 159.162311 
L 193.640373 159.162311 
L 193.695015 167.302987 
L 193.758151 167.302987 
L 193.774512 175.443663 
L 193.869205 167.302987 
L 193.894193 167.302987 
L 194.00732 175.443663 
L 194.091534 175.443663 
L 194.232678 167.302987 
L 194.433618 167.302987 
L 194.585529 159.162311 
L 194.693052 167.302987 
L 194.724928 167.302987 
L 194.835612 151.021635 
L 195.060827 142.880959 
L 195.107987 142.880959 
L 195.225378 126.599607 
L 195.231192 126.599607 
L 195.306727 118.458931 
L 195.340729 142.880959 
L 195.409554 126.599607 
L 195.470727 134.740283 
L 195.627657 142.880959 
L 195.63789 142.880959 
L 195.693063 134.740283 
L 195.719484 142.880959 
L 195.798259 142.880959 
L 195.905784 151.021635 
L 196.056183 167.302987 
L 196.190404 175.443663 
L 196.199483 175.443663 
L 196.318255 183.584339 
L 196.396659 183.584339 
L 196.449741 191.725015 
L 196.454548 183.584339 
L 196.575455 175.443663 
L 196.816914 175.443663 
L 196.821557 183.584339 
L 197.014186 183.584339 
L 197.152603 175.443663 
L 197.32691 175.443663 
L 197.357699 183.584339 
L 197.499471 183.584339 
L 197.52138 191.725015 
L 197.547641 183.584339 
L 197.625585 183.584339 
L 197.793122 175.443663 
L 197.936384 175.443663 
L 198.050267 167.302987 
L 198.209665 175.443663 
L 198.252958 183.584339 
L 199.189897 183.584339 
L 199.405368 175.443663 
L 199.474674 167.302987 
L 199.755518 159.162311 
L 199.871576 159.162311 
L 199.951252 151.021635 
L 199.958561 159.162311 
L 200.04232 159.162311 
L 200.234008 175.443663 
L 200.351718 167.302987 
L 200.465859 183.584339 
L 200.570894 167.302987 
L 200.604685 175.443663 
L 200.689106 167.302987 
L 200.850162 175.443663 
L 201.048035 175.443663 
L 201.080569 167.302987 
L 201.31049 175.443663 
L 201.57424 175.443663 
L 201.678903 183.584339 
L 202.530408 183.584339 
L 202.567422 191.725015 
L 202.621166 183.584339 
L 202.677535 175.443663 
L 202.693576 183.584339 
L 204.805809 183.584339 
L 204.949998 191.725015 
L 205.941214 191.725015 
L 206.254875 183.584339 
L 206.412896 191.725015 
L 206.694684 183.584339 
L 207.419365 183.584339 
L 207.51955 167.302987 
L 207.554108 159.162311 
L 207.738887 167.302987 
L 207.827529 159.162311 
L 207.94036 159.162311 
L 207.957483 151.021635 
L 208.049215 159.162311 
L 208.059857 159.162311 
L 208.108338 167.302987 
L 208.257461 159.162311 
L 208.541128 159.162311 
L 208.667157 167.302987 
L 208.907114 167.302987 
L 209.048239 175.443663 
L 209.190075 167.302987 
L 209.25984 175.443663 
L 209.603887 175.443663 
L 209.688127 167.302987 
L 209.693853 175.443663 
L 209.791173 175.443663 
L 209.793793 183.584339 
L 210.01915 175.443663 
L 210.199806 175.443663 
L 210.205007 183.584339 
L 210.282349 175.443663 
L 210.538025 175.443663 
L 210.584752 183.584339 
L 210.802504 191.725015 
L 211.026137 183.584339 
L 211.112328 191.725015 
L 224.147268 191.725015 
L 224.384667 167.302987 
L 224.605276 191.725015 
L 224.7404 175.443663 
L 224.773623 183.584339 
L 224.860922 183.584339 
L 224.93061 175.443663 
L 225.1822 191.725015 
L 225.341025 167.302987 
L 225.356019 175.443663 
L 225.419618 175.443663 
L 225.494882 167.302987 
L 225.697215 167.302987 
L 225.710807 159.162311 
L 225.782857 167.302987 
L 225.931082 167.302987 
L 226.017681 175.443663 
L 226.083009 167.302987 
L 226.099032 175.443663 
L 226.144589 175.443663 
L 226.242815 167.302987 
L 226.351903 183.584339 
L 226.490073 175.443663 
L 226.570151 183.584339 
L 226.717471 183.584339 
L 226.871002 175.443663 
L 226.917246 183.584339 
L 227.208664 183.584339 
L 227.304767 175.443663 
L 227.449573 191.725015 
L 227.70095 191.725015 
L 227.866275 183.584339 
L 228.034621 183.584339 
L 228.438594 175.443663 
L 228.484881 167.302987 
L 228.511769 175.443663 
L 228.650688 175.443663 
L 228.743331 167.302987 
L 228.872713 175.443663 
L 228.985749 175.443663 
L 229.143946 183.584339 
L 229.264541 175.443663 
L 229.382423 183.584339 
L 229.506998 175.443663 
L 229.607916 175.443663 
L 229.689196 183.584339 
L 229.870277 183.584339 
L 229.949641 191.725015 
L 240.696923 191.725015 
L 240.806132 183.584339 
L 241.044679 183.584339 
L 242.27957 191.725015 
L 242.416219 191.725015 
L 242.574627 183.584339 
L 242.818599 183.584339 
L 242.905987 191.725015 
L 249.695318 191.725015 
L 249.780959 183.584339 
L 249.809347 191.725015 
L 249.862574 183.584339 
L 249.963291 167.302987 
L 250.021576 167.302987 
L 250.299901 183.584339 
L 250.600595 191.725015 
L 259.766878 191.725015 
L 259.845228 183.584339 
L 260.205361 183.584339 
L 260.635508 191.725015 
L 260.825295 191.725015 
L 261.098399 183.584339 
L 261.566694 183.584339 
L 261.816222 191.725015 
L 265.131342 191.725015 
L 265.378787 183.584339 
L 265.701955 183.584339 
L 265.790023 175.443663 
L 266.22997 175.443663 
L 266.233823 183.584339 
L 266.400168 183.584339 
L 267.058802 191.725015 
L 284.041546 191.725015 
L 284.062951 183.584339 
L 284.411721 191.725015 
L 300.947971 191.725015 
L 301.306125 183.584339 
L 301.484198 175.443663 
L 301.633226 183.584339 
L 301.707269 183.584339 
L 302.217916 191.725015 
L 307.836185 191.725015 
L 307.912696 175.443663 
L 307.947506 183.584339 
L 308.059751 167.302987 
L 308.132925 175.443663 
L 308.328134 175.443663 
L 308.352397 183.584339 
L 309.2648 183.584339 
L 309.474683 191.725015 
L 312.40778 191.725015 
L 312.40778 191.725015 
" clip-path="url(#p69cf08f891)" style="fill: none; stroke: #000000; stroke-width: 1.5; stroke-linecap: square"/>
   </g>
   <g id="patch_8">
    <path d="M 43.78125 195.795353 
L 43.78125 106.247917 
" style="fill: none; stroke: #000000; stroke-width: 0.8; stroke-linejoin: miter; stroke-linecap: square"/>
   </g>
   <g id="patch_9">
    <path d="M 325.19952 195.795353 
L 325.19952 106.247917 
" style="fill: none; stroke: #000000; stroke-width: 0.8; stroke-linejoin: miter; stroke-linecap: square"/>
   </g>
   <g id="patch_10">
    <path d="M 43.78125 195.795353 
L 325.19952 195.795353 
" style="fill: none; stroke: #000000; stroke-width: 0.8; stroke-linejoin: miter; stroke-linecap: square"/>
   </g>
   <g id="patch_11">
    <path d="M 43.78125 106.247917 
L 325.19952 106.247917 
" style="fill: none; stroke: #000000; stroke-width: 0.8; stroke-linejoin: miter; stroke-linecap: square"/>
   </g>
  </g>
  <g id="axes_3">
   <g id="patch_12">
    <path d="M 43.78125 294.84327 
L 325.19952 294.84327 
L 325.19952 205.295833 
L 43.78125 205.295833 
z
" style="fill: #ffffff"/>
   </g>
   <g id="matplotlib.axis_5">
    <g id="xtick_19">
     <g id="line2d_27">
      <g>
       <use xlink:href="#mb002cd98f9" x="56.57299" y="294.84327" style="stroke: #000000; stroke-width: 0.8"/>
      </g>
     </g>
     <g id="text_9">
      <!-- 0 -->
      <g transform="translate(53.39174 309.441707) scale(0.1 -0.1)">
       <use xlink:href="#DejaVuSans-30"/>
      </g>
     </g>
    </g>
    <g id="xtick_20">
     <g id="line2d_28">
      <g>
       <use xlink:href="#mb002cd98f9" x="88.444116" y="294.84327" style="stroke: #000000; stroke-width: 0.8"/>
      </g>
     </g>
     <g id="text_10">
      <!-- 100 -->
      <g transform="translate(78.900366 309.441707) scale(0.1 -0.1)">
       <use xlink:href="#DejaVuSans-31"/>
       <use xlink:href="#DejaVuSans-30" transform="translate(63.623047 0)"/>
       <use xlink:href="#DejaVuSans-30" transform="translate(127.246094 0)"/>
      </g>
     </g>
    </g>
    <g id="xtick_21">
     <g id="line2d_29">
      <g>
       <use xlink:href="#mb002cd98f9" x="120.315242" y="294.84327" style="stroke: #000000; stroke-width: 0.8"/>
      </g>
     </g>
     <g id="text_11">
      <!-- 200 -->
      <g transform="translate(110.771492 309.441707) scale(0.1 -0.1)">
       <defs>
        <path id="DejaVuSans-32" d="M 1228 531 
L 3431 531 
L 3431 0 
L 469 0 
L 469 531 
Q 828 903 1448 1529 
Q 2069 2156 2228 2338 
Q 2531 2678 2651 2914 
Q 2772 3150 2772 3378 
Q 2772 3750 2511 3984 
Q 2250 4219 1831 4219 
Q 1534 4219 1204 4116 
Q 875 4013 500 3803 
L 500 4441 
Q 881 4594 1212 4672 
Q 1544 4750 1819 4750 
Q 2544 4750 2975 4387 
Q 3406 4025 3406 3419 
Q 3406 3131 3298 2873 
Q 3191 2616 2906 2266 
Q 2828 2175 2409 1742 
Q 1991 1309 1228 531 
z
" transform="scale(0.015625)"/>
       </defs>
       <use xlink:href="#DejaVuSans-32"/>
       <use xlink:href="#DejaVuSans-30" transform="translate(63.623047 0)"/>
       <use xlink:href="#DejaVuSans-30" transform="translate(127.246094 0)"/>
      </g>
     </g>
    </g>
    <g id="xtick_22">
     <g id="line2d_30">
      <g>
       <use xlink:href="#mb002cd98f9" x="152.186368" y="294.84327" style="stroke: #000000; stroke-width: 0.8"/>
      </g>
     </g>
     <g id="text_12">
      <!-- 300 -->
      <g transform="translate(142.642618 309.441707) scale(0.1 -0.1)">
       <defs>
        <path id="DejaVuSans-33" d="M 2597 2516 
Q 3050 2419 3304 2112 
Q 3559 1806 3559 1356 
Q 3559 666 3084 287 
Q 2609 -91 1734 -91 
Q 1441 -91 1130 -33 
Q 819 25 488 141 
L 488 750 
Q 750 597 1062 519 
Q 1375 441 1716 441 
Q 2309 441 2620 675 
Q 2931 909 2931 1356 
Q 2931 1769 2642 2001 
Q 2353 2234 1838 2234 
L 1294 2234 
L 1294 2753 
L 1863 2753 
Q 2328 2753 2575 2939 
Q 2822 3125 2822 3475 
Q 2822 3834 2567 4026 
Q 2313 4219 1838 4219 
Q 1578 4219 1281 4162 
Q 984 4106 628 3988 
L 628 4550 
Q 988 4650 1302 4700 
Q 1616 4750 1894 4750 
Q 2613 4750 3031 4423 
Q 3450 4097 3450 3541 
Q 3450 3153 3228 2886 
Q 3006 2619 2597 2516 
z
" transform="scale(0.015625)"/>
       </defs>
       <use xlink:href="#DejaVuSans-33"/>
       <use xlink:href="#DejaVuSans-30" transform="translate(63.623047 0)"/>
       <use xlink:href="#DejaVuSans-30" transform="translate(127.246094 0)"/>
      </g>
     </g>
    </g>
    <g id="xtick_23">
     <g id="line2d_31">
      <g>
       <use xlink:href="#mb002cd98f9" x="184.057494" y="294.84327" style="stroke: #000000; stroke-width: 0.8"/>
      </g>
     </g>
     <g id="text_13">
      <!-- 400 -->
      <g transform="translate(174.513744 309.441707) scale(0.1 -0.1)">
       <defs>
        <path id="DejaVuSans-34" d="M 2419 4116 
L 825 1625 
L 2419 1625 
L 2419 4116 
z
M 2253 4666 
L 3047 4666 
L 3047 1625 
L 3713 1625 
L 3713 1100 
L 3047 1100 
L 3047 0 
L 2419 0 
L 2419 1100 
L 313 1100 
L 313 1709 
L 2253 4666 
z
" transform="scale(0.015625)"/>
       </defs>
       <use xlink:href="#DejaVuSans-34"/>
       <use xlink:href="#DejaVuSans-30" transform="translate(63.623047 0)"/>
       <use xlink:href="#DejaVuSans-30" transform="translate(127.246094 0)"/>
      </g>
     </g>
    </g>
    <g id="xtick_24">
     <g id="line2d_32">
      <g>
       <use xlink:href="#mb002cd98f9" x="215.92862" y="294.84327" style="stroke: #000000; stroke-width: 0.8"/>
      </g>
     </g>
     <g id="text_14">
      <!-- 500 -->
      <g transform="translate(206.38487 309.441707) scale(0.1 -0.1)">
       <use xlink:href="#DejaVuSans-35"/>
       <use xlink:href="#DejaVuSans-30" transform="translate(63.623047 0)"/>
       <use xlink:href="#DejaVuSans-30" transform="translate(127.246094 0)"/>
      </g>
     </g>
    </g>
    <g id="xtick_25">
     <g id="line2d_33">
      <g>
       <use xlink:href="#mb002cd98f9" x="247.799746" y="294.84327" style="stroke: #000000; stroke-width: 0.8"/>
      </g>
     </g>
     <g id="text_15">
      <!-- 600 -->
      <g transform="translate(238.255996 309.441707) scale(0.1 -0.1)">
       <defs>
        <path id="DejaVuSans-36" d="M 2113 2584 
Q 1688 2584 1439 2293 
Q 1191 2003 1191 1497 
Q 1191 994 1439 701 
Q 1688 409 2113 409 
Q 2538 409 2786 701 
Q 3034 994 3034 1497 
Q 3034 2003 2786 2293 
Q 2538 2584 2113 2584 
z
M 3366 4563 
L 3366 3988 
Q 3128 4100 2886 4159 
Q 2644 4219 2406 4219 
Q 1781 4219 1451 3797 
Q 1122 3375 1075 2522 
Q 1259 2794 1537 2939 
Q 1816 3084 2150 3084 
Q 2853 3084 3261 2657 
Q 3669 2231 3669 1497 
Q 3669 778 3244 343 
Q 2819 -91 2113 -91 
Q 1303 -91 875 529 
Q 447 1150 447 2328 
Q 447 3434 972 4092 
Q 1497 4750 2381 4750 
Q 2619 4750 2861 4703 
Q 3103 4656 3366 4563 
z
" transform="scale(0.015625)"/>
       </defs>
       <use xlink:href="#DejaVuSans-36"/>
       <use xlink:href="#DejaVuSans-30" transform="translate(63.623047 0)"/>
       <use xlink:href="#DejaVuSans-30" transform="translate(127.246094 0)"/>
      </g>
     </g>
    </g>
    <g id="xtick_26">
     <g id="line2d_34">
      <g>
       <use xlink:href="#mb002cd98f9" x="279.670872" y="294.84327" style="stroke: #000000; stroke-width: 0.8"/>
      </g>
     </g>
     <g id="text_16">
      <!-- 700 -->
      <g transform="translate(270.127122 309.441707) scale(0.1 -0.1)">
       <defs>
        <path id="DejaVuSans-37" d="M 525 4666 
L 3525 4666 
L 3525 4397 
L 1831 0 
L 1172 0 
L 2766 4134 
L 525 4134 
L 525 4666 
z
" transform="scale(0.015625)"/>
       </defs>
       <use xlink:href="#DejaVuSans-37"/>
       <use xlink:href="#DejaVuSans-30" transform="translate(63.623047 0)"/>
       <use xlink:href="#DejaVuSans-30" transform="translate(127.246094 0)"/>
      </g>
     </g>
    </g>
    <g id="xtick_27">
     <g id="line2d_35">
      <g>
       <use xlink:href="#mb002cd98f9" x="311.541998" y="294.84327" style="stroke: #000000; stroke-width: 0.8"/>
      </g>
     </g>
     <g id="text_17">
      <!-- 800 -->
      <g transform="translate(301.998248 309.441707) scale(0.1 -0.1)">
       <defs>
        <path id="DejaVuSans-38" d="M 2034 2216 
Q 1584 2216 1326 1975 
Q 1069 1734 1069 1313 
Q 1069 891 1326 650 
Q 1584 409 2034 409 
Q 2484 409 2743 651 
Q 3003 894 3003 1313 
Q 3003 1734 2745 1975 
Q 2488 2216 2034 2216 
z
M 1403 2484 
Q 997 2584 770 2862 
Q 544 3141 544 3541 
Q 544 4100 942 4425 
Q 1341 4750 2034 4750 
Q 2731 4750 3128 4425 
Q 3525 4100 3525 3541 
Q 3525 3141 3298 2862 
Q 3072 2584 2669 2484 
Q 3125 2378 3379 2068 
Q 3634 1759 3634 1313 
Q 3634 634 3220 271 
Q 2806 -91 2034 -91 
Q 1263 -91 848 271 
Q 434 634 434 1313 
Q 434 1759 690 2068 
Q 947 2378 1403 2484 
z
M 1172 3481 
Q 1172 3119 1398 2916 
Q 1625 2713 2034 2713 
Q 2441 2713 2670 2916 
Q 2900 3119 2900 3481 
Q 2900 3844 2670 4047 
Q 2441 4250 2034 4250 
Q 1625 4250 1398 4047 
Q 1172 3844 1172 3481 
z
" transform="scale(0.015625)"/>
       </defs>
       <use xlink:href="#DejaVuSans-38"/>
       <use xlink:href="#DejaVuSans-30" transform="translate(63.623047 0)"/>
       <use xlink:href="#DejaVuSans-30" transform="translate(127.246094 0)"/>
      </g>
     </g>
    </g>
    <g id="text_18">
     <!-- Time -->
     <g transform="translate(172.256791 323.119832) scale(0.1 -0.1)">
      <defs>
       <path id="DejaVuSans-54" d="M -19 4666 
L 3928 4666 
L 3928 4134 
L 2272 4134 
L 2272 0 
L 1638 0 
L 1638 4134 
L -19 4134 
L -19 4666 
z
" transform="scale(0.015625)"/>
       <path id="DejaVuSans-69" d="M 603 3500 
L 1178 3500 
L 1178 0 
L 603 0 
L 603 3500 
z
M 603 4863 
L 1178 4863 
L 1178 4134 
L 603 4134 
L 603 4863 
z
" transform="scale(0.015625)"/>
       <path id="DejaVuSans-6d" d="M 3328 2828 
Q 3544 3216 3844 3400 
Q 4144 3584 4550 3584 
Q 5097 3584 5394 3201 
Q 5691 2819 5691 2113 
L 5691 0 
L 5113 0 
L 5113 2094 
Q 5113 2597 4934 2840 
Q 4756 3084 4391 3084 
Q 3944 3084 3684 2787 
Q 3425 2491 3425 1978 
L 3425 0 
L 2847 0 
L 2847 2094 
Q 2847 2600 2669 2842 
Q 2491 3084 2119 3084 
Q 1678 3084 1418 2786 
Q 1159 2488 1159 1978 
L 1159 0 
L 581 0 
L 581 3500 
L 1159 3500 
L 1159 2956 
Q 1356 3278 1631 3431 
Q 1906 3584 2284 3584 
Q 2666 3584 2933 3390 
Q 3200 3197 3328 2828 
z
" transform="scale(0.015625)"/>
      </defs>
      <use xlink:href="#DejaVuSans-54"/>
      <use xlink:href="#DejaVuSans-69" transform="translate(57.958984 0)"/>
      <use xlink:href="#DejaVuSans-6d" transform="translate(85.742188 0)"/>
      <use xlink:href="#DejaVuSans-65" transform="translate(183.154297 0)"/>
     </g>
    </g>
   </g>
   <g id="matplotlib.axis_6">
    <g id="ytick_7">
     <g id="line2d_36">
      <g>
       <use xlink:href="#m384ef5834d" x="43.78125" y="290.772932" style="stroke: #000000; stroke-width: 0.8"/>
      </g>
     </g>
     <g id="text_19">
      <!-- 0.0 -->
      <g transform="translate(20.878125 294.572151) scale(0.1 -0.1)">
       <defs>
        <path id="DejaVuSans-2e" d="M 684 794 
L 1344 794 
L 1344 0 
L 684 0 
L 684 794 
z
" transform="scale(0.015625)"/>
       </defs>
       <use xlink:href="#DejaVuSans-30"/>
       <use xlink:href="#DejaVuSans-2e" transform="translate(63.623047 0)"/>
       <use xlink:href="#DejaVuSans-30" transform="translate(95.410156 0)"/>
      </g>
     </g>
    </g>
    <g id="ytick_8">
     <g id="line2d_37">
      <g>
       <use xlink:href="#m384ef5834d" x="43.78125" y="250.069552" style="stroke: #000000; stroke-width: 0.8"/>
      </g>
     </g>
     <g id="text_20">
      <!-- 0.5 -->
      <g transform="translate(20.878125 253.86877) scale(0.1 -0.1)">
       <use xlink:href="#DejaVuSans-30"/>
       <use xlink:href="#DejaVuSans-2e" transform="translate(63.623047 0)"/>
       <use xlink:href="#DejaVuSans-35" transform="translate(95.410156 0)"/>
      </g>
     </g>
    </g>
    <g id="ytick_9">
     <g id="line2d_38">
      <g>
       <use xlink:href="#m384ef5834d" x="43.78125" y="209.366171" style="stroke: #000000; stroke-width: 0.8"/>
      </g>
     </g>
     <g id="text_21">
      <!-- 1.0 -->
      <g transform="translate(20.878125 213.16539) scale(0.1 -0.1)">
       <use xlink:href="#DejaVuSans-31"/>
       <use xlink:href="#DejaVuSans-2e" transform="translate(63.623047 0)"/>
       <use xlink:href="#DejaVuSans-30" transform="translate(95.410156 0)"/>
      </g>
     </g>
    </g>
    <g id="text_22">
     <!-- Free lac operon -->
     <g transform="translate(14.798438 288.540645) rotate(-90) scale(0.1 -0.1)">
      <defs>
       <path id="DejaVuSans-46" d="M 628 4666 
L 3309 4666 
L 3309 4134 
L 1259 4134 
L 1259 2759 
L 3109 2759 
L 3109 2228 
L 1259 2228 
L 1259 0 
L 628 0 
L 628 4666 
z
" transform="scale(0.015625)"/>
       <path id="DejaVuSans-70" d="M 1159 525 
L 1159 -1331 
L 581 -1331 
L 581 3500 
L 1159 3500 
L 1159 2969 
Q 1341 3281 1617 3432 
Q 1894 3584 2278 3584 
Q 2916 3584 3314 3078 
Q 3713 2572 3713 1747 
Q 3713 922 3314 415 
Q 2916 -91 2278 -91 
Q 1894 -91 1617 61 
Q 1341 213 1159 525 
z
M 3116 1747 
Q 3116 2381 2855 2742 
Q 2594 3103 2138 3103 
Q 1681 3103 1420 2742 
Q 1159 2381 1159 1747 
Q 1159 1113 1420 752 
Q 1681 391 2138 391 
Q 2594 391 2855 752 
Q 3116 1113 3116 1747 
z
" transform="scale(0.015625)"/>
       <path id="DejaVuSans-6e" d="M 3513 2113 
L 3513 0 
L 2938 0 
L 2938 2094 
Q 2938 2591 2744 2837 
Q 2550 3084 2163 3084 
Q 1697 3084 1428 2787 
Q 1159 2491 1159 1978 
L 1159 0 
L 581 0 
L 581 3500 
L 1159 3500 
L 1159 2956 
Q 1366 3272 1645 3428 
Q 1925 3584 2291 3584 
Q 2894 3584 3203 3211 
Q 3513 2838 3513 2113 
z
" transform="scale(0.015625)"/>
      </defs>
      <use xlink:href="#DejaVuSans-46"/>
      <use xlink:href="#DejaVuSans-72" transform="translate(50.269531 0)"/>
      <use xlink:href="#DejaVuSans-65" transform="translate(89.132812 0)"/>
      <use xlink:href="#DejaVuSans-65" transform="translate(150.65625 0)"/>
      <use xlink:href="#DejaVuSans-20" transform="translate(212.179688 0)"/>
      <use xlink:href="#DejaVuSans-6c" transform="translate(243.966797 0)"/>
      <use xlink:href="#DejaVuSans-61" transform="translate(271.75 0)"/>
      <use xlink:href="#DejaVuSans-63" transform="translate(333.029297 0)"/>
      <use xlink:href="#DejaVuSans-20" transform="translate(388.009766 0)"/>
      <use xlink:href="#DejaVuSans-6f" transform="translate(419.796875 0)"/>
      <use xlink:href="#DejaVuSans-70" transform="translate(480.978516 0)"/>
      <use xlink:href="#DejaVuSans-65" transform="translate(544.455078 0)"/>
      <use xlink:href="#DejaVuSans-72" transform="translate(605.978516 0)"/>
      <use xlink:href="#DejaVuSans-6f" transform="translate(644.841797 0)"/>
      <use xlink:href="#DejaVuSans-6e" transform="translate(706.023438 0)"/>
     </g>
    </g>
   </g>
   <g id="line2d_39">
    <path d="M 56.57299 209.366171 
L 56.654505 290.772932 
L 56.822793 290.772932 
L 56.992374 209.366171 
L 57.110542 209.366171 
L 57.212674 290.772932 
L 58.428959 290.772932 
L 59.418811 209.366171 
L 59.605155 209.366171 
L 59.6279 290.772932 
L 62.049365 290.772932 
L 64.643904 209.366171 
L 64.938802 209.366171 
L 65.076248 290.772932 
L 65.202121 290.772932 
L 71.864598 209.366171 
L 72.034389 290.772932 
L 79.874035 209.366171 
L 79.923072 290.772932 
L 82.549555 209.366171 
L 82.689545 209.366171 
L 82.743708 290.772932 
L 84.484051 290.772932 
L 84.549485 209.366171 
L 85.425779 209.366171 
L 85.615757 290.772932 
L 86.648602 290.772932 
L 89.64121 209.366171 
L 90.181216 209.366171 
L 90.210495 290.772932 
L 90.568403 290.772932 
L 91.449797 209.366171 
L 91.508243 290.772932 
L 91.852085 290.772932 
L 108.926931 209.366171 
L 108.940633 290.772932 
L 109.199096 290.772932 
L 109.475224 209.366171 
L 109.762576 290.772932 
L 109.890645 209.366171 
L 110.298392 209.366171 
L 110.502973 290.772932 
L 110.795612 290.772932 
L 114.957715 209.366171 
L 115.618331 290.772932 
L 117.260344 209.366171 
L 117.57557 290.772932 
L 118.247984 209.366171 
L 118.335307 290.772932 
L 119.344651 209.366171 
L 119.429559 290.772932 
L 123.37232 290.772932 
L 129.391063 209.366171 
L 129.497008 290.772932 
L 131.239249 209.366171 
L 131.690034 209.366171 
L 131.711474 290.772932 
L 133.551732 290.772932 
L 136.147327 209.366171 
L 136.160633 290.772932 
L 139.041639 209.366171 
L 139.08437 290.772932 
L 146.127539 209.366171 
L 147.071845 209.366171 
L 147.140157 290.772932 
L 147.756571 290.772932 
L 148.001599 209.366171 
L 148.316471 209.366171 
L 148.429215 290.772932 
L 149.499801 290.772932 
L 150.011221 209.366171 
L 150.111971 290.772932 
L 151.233041 290.772932 
L 151.244362 209.366171 
L 151.405895 290.772932 
L 155.714295 209.366171 
L 155.803226 290.772932 
L 156.052539 209.366171 
L 202.220649 209.366171 
L 202.296899 290.772932 
L 202.438948 290.772932 
L 202.621166 209.366171 
L 202.693576 209.366171 
L 202.838549 290.772932 
L 204.949998 290.772932 
L 205.941214 209.366171 
L 211.21377 209.366171 
L 211.533486 290.772932 
L 217.630058 209.366171 
L 217.870976 290.772932 
L 222.322038 209.366171 
L 222.342518 290.772932 
L 224.220267 209.366171 
L 229.613098 209.366171 
L 229.689196 290.772932 
L 232.371329 290.772932 
L 240.794273 209.366171 
L 240.806132 290.772932 
L 242.27957 290.772932 
L 242.416219 209.366171 
L 242.574627 209.366171 
L 242.905987 290.772932 
L 243.280479 290.772932 
L 243.613776 209.366171 
L 243.678694 290.772932 
L 249.780959 209.366171 
L 249.963291 209.366171 
L 250.130971 290.772932 
L 250.600595 290.772932 
L 259.827122 209.366171 
L 259.845228 290.772932 
L 260.635508 290.772932 
L 260.825295 209.366171 
L 261.024419 209.366171 
L 261.098399 290.772932 
L 261.816222 290.772932 
L 264.207625 209.366171 
L 264.399641 290.772932 
L 265.131342 209.366171 
L 265.765037 209.366171 
L 265.898397 290.772932 
L 267.058802 290.772932 
L 280.888727 209.366171 
L 280.898578 290.772932 
L 284.04934 209.366171 
L 284.062951 290.772932 
L 286.574516 290.772932 
L 300.947971 209.366171 
L 301.568488 209.366171 
L 301.707269 290.772932 
L 302.217916 290.772932 
L 307.947506 209.366171 
L 308.178331 209.366171 
L 308.352397 290.772932 
L 309.474683 290.772932 
L 312.40778 209.366171 
L 312.40778 209.366171 
" clip-path="url(#pdb5f6dec98)" style="fill: none; stroke: #000000; stroke-width: 1.5; stroke-linecap: square"/>
   </g>
   <g id="patch_13">
    <path d="M 43.78125 294.84327 
L 43.78125 205.295833 
" style="fill: none; stroke: #000000; stroke-width: 0.8; stroke-linejoin: miter; stroke-linecap: square"/>
   </g>
   <g id="patch_14">
    <path d="M 325.19952 294.84327 
L 325.19952 205.295833 
" style="fill: none; stroke: #000000; stroke-width: 0.8; stroke-linejoin: miter; stroke-linecap: square"/>
   </g>
   <g id="patch_15">
    <path d="M 43.78125 294.84327 
L 325.19952 294.84327 
" style="fill: none; stroke: #000000; stroke-width: 0.8; stroke-linejoin: miter; stroke-linecap: square"/>
   </g>
   <g id="patch_16">
    <path d="M 43.78125 205.295833 
L 325.19952 205.295833 
" style="fill: none; stroke: #000000; stroke-width: 0.8; stroke-linejoin: miter; stroke-linecap: square"/>
   </g>
  </g>
 </g>
 <defs>
  <clipPath id="pe96275984a">
   <rect x="43.78125" y="7.2" width="281.41827" height="89.547437"/>
  </clipPath>
  <clipPath id="p69cf08f891">
   <rect x="43.78125" y="106.247917" width="281.41827" height="89.547437"/>
  </clipPath>
  <clipPath id="pdb5f6dec98">
   <rect x="43.78125" y="205.295833" width="281.41827" height="89.547437"/>
  </clipPath>
 </defs>
</svg>
