<?xml version="1.0" encoding="utf-8" standalone="no"?>
<!DOCTYPE svg PUBLIC "-//W3C//DTD SVG 1.1//EN"
  "http://www.w3.org/Graphics/SVG/1.1/DTD/svg11.dtd">
<svg xmlns:xlink="http://www.w3.org/1999/xlink" width="332.39952pt" height="338.705099pt" viewBox="0 0 332.39952 338.705099" xmlns="http://www.w3.org/2000/svg" version="1.1">
 <metadata>
  <rdf:RDF xmlns:dc="http://purl.org/dc/elements/1.1/" xmlns:cc="http://creativecommons.org/ns#" xmlns:rdf="http://www.w3.org/1999/02/22-rdf-syntax-ns#">
   <cc:Work>
    <dc:type rdf:resource="http://purl.org/dc/dcmitype/StillImage"/>
    <dc:date>2026-07-21T16:01:41.962269</dc:date>
    <dc:format>image/svg+xml</dc:format>
    <dc:creator>
     <cc:Agent>
      <dc:title>Matplotlib v3.11.1, https://matplotlib.org/</dc:title>
     </cc:Agent>
    </dc:creator>
   </cc:Work>
  </rdf:RDF>
 </metadata>
 <defs>
  <style type="text/css">*{stroke-linejoin: round; stroke-linecap: butt}</style>
 </defs>
 <g id="figure_1">
  <g id="patch_1">
   <path d="M 0 338.705099 
L 332.39952 338.705099 
L 332.39952 0 
L 0 0 
z
" style="fill: #ffffff"/>
  </g>
  <g id="axes_1">
   <g id="patch_2">
    <path d="M 44.103906 102.838171 
L 325.19952 102.838171 
L 325.19952 13.505579 
L 44.103906 13.505579 
z
" style="fill: #ffffff"/>
   </g>
   <g id="matplotlib.axis_1">
    <g id="xtick_1">
     <g id="line2d_1">
      <defs>
       <path id="m96a52eb04d" d="M 0 0 
L 0 3.5 
" style="stroke: #000000; stroke-width: 0.8"/>
      </defs>
      <g>
       <use xlink:href="#m96a52eb04d" x="56.88098" y="102.838171" style="stroke: #000000; stroke-width: 0.8"/>
      </g>
     </g>
    </g>
    <g id="xtick_2">
     <g id="line2d_2">
      <g>
       <use xlink:href="#m96a52eb04d" x="88.812" y="102.838171" style="stroke: #000000; stroke-width: 0.8"/>
      </g>
     </g>
    </g>
    <g id="xtick_3">
     <g id="line2d_3">
      <g>
       <use xlink:href="#m96a52eb04d" x="120.743019" y="102.838171" style="stroke: #000000; stroke-width: 0.8"/>
      </g>
     </g>
    </g>
    <g id="xtick_4">
     <g id="line2d_4">
      <g>
       <use xlink:href="#m96a52eb04d" x="152.674039" y="102.838171" style="stroke: #000000; stroke-width: 0.8"/>
      </g>
     </g>
    </g>
    <g id="xtick_5">
     <g id="line2d_5">
      <g>
       <use xlink:href="#m96a52eb04d" x="184.605059" y="102.838171" style="stroke: #000000; stroke-width: 0.8"/>
      </g>
     </g>
    </g>
    <g id="xtick_6">
     <g id="line2d_6">
      <g>
       <use xlink:href="#m96a52eb04d" x="216.536079" y="102.838171" style="stroke: #000000; stroke-width: 0.8"/>
      </g>
     </g>
    </g>
    <g id="xtick_7">
     <g id="line2d_7">
      <g>
       <use xlink:href="#m96a52eb04d" x="248.467099" y="102.838171" style="stroke: #000000; stroke-width: 0.8"/>
      </g>
     </g>
    </g>
    <g id="xtick_8">
     <g id="line2d_8">
      <g>
       <use xlink:href="#m96a52eb04d" x="280.398119" y="102.838171" style="stroke: #000000; stroke-width: 0.8"/>
      </g>
     </g>
    </g>
    <g id="xtick_9">
     <g id="line2d_9">
      <g>
       <use xlink:href="#m96a52eb04d" x="312.329139" y="102.838171" style="stroke: #000000; stroke-width: 0.8"/>
      </g>
     </g>
    </g>
   </g>
   <g id="matplotlib.axis_2">
    <g id="ytick_1">
     <g id="line2d_10">
      <defs>
       <path id="mdcbf237fe2" d="M 0 0 
L -3.5 0 
" style="stroke: #000000; stroke-width: 0.8"/>
      </defs>
      <g>
       <use xlink:href="#mdcbf237fe2" x="44.103906" y="98.777599" style="stroke: #000000; stroke-width: 0.8"/>
      </g>
     </g>
     <g id="text_1">
      <!-- 0 -->
      <g transform="translate(30.741406 102.576427) scale(0.1 -0.1)">
       <defs>
        <path id="DejaVuSans-13" d="M 2034 4250 
Q 1547 4250 1301 3770 
Q 1056 3291 1056 2328 
Q 1056 1369 1301 889 
Q 1547 409 2034 409 
Q 2525 409 2770 889 
Q 3016 1369 3016 2328 
Q 3016 3291 2770 3770 
Q 2525 4250 2034 4250 
z
M 2034 4750 
Q 2819 4750 3233 4129 
Q 3647 3509 3647 2328 
Q 3647 1150 3233 529 
Q 2819 -91 2034 -91 
Q 1250 -91 836 529 
Q 422 1150 422 2328 
Q 422 3509 836 4129 
Q 1250 4750 2034 4750 
z
" transform="scale(0.015625)"/>
       </defs>
       <use xlink:href="#DejaVuSans-13"/>
      </g>
     </g>
    </g>
    <g id="ytick_2">
     <g id="line2d_11">
      <g>
       <use xlink:href="#mdcbf237fe2" x="44.103906" y="58.171875" style="stroke: #000000; stroke-width: 0.8"/>
      </g>
     </g>
     <g id="text_2">
      <!-- 5 -->
      <g transform="translate(30.741406 61.970703) scale(0.1 -0.1)">
       <defs>
        <path id="DejaVuSans-18" d="M 691 4666 
L 3169 4666 
L 3169 4134 
L 1269 4134 
L 1269 2991 
Q 1406 3038 1543 3061 
Q 1681 3084 1819 3084 
Q 2600 3084 3056 2656 
Q 3513 2228 3513 1497 
Q 3513 744 3044 326 
Q 2575 -91 1722 -91 
Q 1428 -91 1123 -41 
Q 819 9 494 109 
L 494 744 
Q 775 591 1075 516 
Q 1375 441 1709 441 
Q 2250 441 2565 725 
Q 2881 1009 2881 1497 
Q 2881 1984 2565 2268 
Q 2250 2553 1709 2553 
Q 1456 2553 1204 2497 
Q 953 2441 691 2322 
L 691 4666 
z
" transform="scale(0.015625)"/>
       </defs>
       <use xlink:href="#DejaVuSans-18"/>
      </g>
     </g>
    </g>
    <g id="ytick_3">
     <g id="line2d_12">
      <g>
       <use xlink:href="#mdcbf237fe2" x="44.103906" y="17.566151" style="stroke: #000000; stroke-width: 0.8"/>
      </g>
     </g>
     <g id="text_3">
      <!-- 10 -->
      <g transform="translate(24.378906 21.364979) scale(0.1 -0.1)">
       <defs>
        <path id="DejaVuSans-14" d="M 794 531 
L 1825 531 
L 1825 4091 
L 703 3866 
L 703 4441 
L 1819 4666 
L 2450 4666 
L 2450 531 
L 3481 531 
L 3481 0 
L 794 0 
L 794 531 
z
" transform="scale(0.015625)"/>
       </defs>
       <use xlink:href="#DejaVuSans-14"/>
       <use xlink:href="#DejaVuSans-13" transform="translate(63.625 0)"/>
      </g>
     </g>
    </g>
    <g id="text_4">
     <!-- Extracellular lactose -->
     <g transform="translate(17.976563 109.14375) rotate(-90) scale(0.1 -0.1)">
      <defs>
       <path id="DejaVuSans-28" d="M 628 4666 
L 3578 4666 
L 3578 4134 
L 1259 4134 
L 1259 2753 
L 3481 2753 
L 3481 2222 
L 1259 2222 
L 1259 531 
L 3634 531 
L 3634 0 
L 628 0 
L 628 4666 
z
" transform="scale(0.015625)"/>
       <path id="DejaVuSans-5b" d="M 3513 3500 
L 2247 1797 
L 3578 0 
L 2900 0 
L 1881 1375 
L 863 0 
L 184 0 
L 1544 1831 
L 300 3500 
L 978 3500 
L 1906 2253 
L 2834 3500 
L 3513 3500 
z
" transform="scale(0.015625)"/>
       <path id="DejaVuSans-57" d="M 1172 4494 
L 1172 3500 
L 2356 3500 
L 2356 3053 
L 1172 3053 
L 1172 1153 
Q 1172 725 1289 603 
Q 1406 481 1766 481 
L 2356 481 
L 2356 0 
L 1766 0 
Q 1100 0 847 248 
Q 594 497 594 1153 
L 594 3053 
L 172 3053 
L 172 3500 
L 594 3500 
L 594 4494 
L 1172 4494 
z
" transform="scale(0.015625)"/>
       <path id="DejaVuSans-55" d="M 2631 2963 
Q 2534 3019 2420 3045 
Q 2306 3072 2169 3072 
Q 1681 3072 1420 2755 
Q 1159 2438 1159 1844 
L 1159 0 
L 581 0 
L 581 3500 
L 1159 3500 
L 1159 2956 
Q 1341 3275 1631 3429 
Q 1922 3584 2338 3584 
Q 2397 3584 2469 3576 
Q 2541 3569 2628 3553 
L 2631 2963 
z
" transform="scale(0.015625)"/>
       <path id="DejaVuSans-44" d="M 2194 1759 
Q 1497 1759 1228 1600 
Q 959 1441 959 1056 
Q 959 750 1161 570 
Q 1363 391 1709 391 
Q 2188 391 2477 730 
Q 2766 1069 2766 1631 
L 2766 1759 
L 2194 1759 
z
M 3341 1997 
L 3341 0 
L 2766 0 
L 2766 531 
Q 2569 213 2275 61 
Q 1981 -91 1556 -91 
Q 1019 -91 701 211 
Q 384 513 384 1019 
Q 384 1609 779 1909 
Q 1175 2209 1959 2209 
L 2766 2209 
L 2766 2266 
Q 2766 2663 2505 2880 
Q 2244 3097 1772 3097 
Q 1472 3097 1187 3025 
Q 903 2953 641 2809 
L 641 3341 
Q 956 3463 1253 3523 
Q 1550 3584 1831 3584 
Q 2591 3584 2966 3190 
Q 3341 2797 3341 1997 
z
" transform="scale(0.015625)"/>
       <path id="DejaVuSans-46" d="M 3122 3366 
L 3122 2828 
Q 2878 2963 2633 3030 
Q 2388 3097 2138 3097 
Q 1578 3097 1268 2742 
Q 959 2388 959 1747 
Q 959 1106 1268 751 
Q 1578 397 2138 397 
Q 2388 397 2633 464 
Q 2878 531 3122 666 
L 3122 134 
Q 2881 22 2623 -34 
Q 2366 -91 2075 -91 
Q 1284 -91 818 406 
Q 353 903 353 1747 
Q 353 2603 823 3093 
Q 1294 3584 2113 3584 
Q 2378 3584 2631 3529 
Q 2884 3475 3122 3366 
z
" transform="scale(0.015625)"/>
       <path id="DejaVuSans-48" d="M 3597 1894 
L 3597 1613 
L 953 1613 
Q 991 1019 1311 708 
Q 1631 397 2203 397 
Q 2534 397 2845 478 
Q 3156 559 3463 722 
L 3463 178 
Q 3153 47 2828 -22 
Q 2503 -91 2169 -91 
Q 1331 -91 842 396 
Q 353 884 353 1716 
Q 353 2575 817 3079 
Q 1281 3584 2069 3584 
Q 2775 3584 3186 3129 
Q 3597 2675 3597 1894 
z
M 3022 2063 
Q 3016 2534 2758 2815 
Q 2500 3097 2075 3097 
Q 1594 3097 1305 2825 
Q 1016 2553 972 2059 
L 3022 2063 
z
" transform="scale(0.015625)"/>
       <path id="DejaVuSans-4f" d="M 603 4863 
L 1178 4863 
L 1178 0 
L 603 0 
L 603 4863 
z
" transform="scale(0.015625)"/>
       <path id="DejaVuSans-58" d="M 544 1381 
L 544 3500 
L 1119 3500 
L 1119 1403 
Q 1119 906 1312 657 
Q 1506 409 1894 409 
Q 2359 409 2629 706 
Q 2900 1003 2900 1516 
L 2900 3500 
L 3475 3500 
L 3475 0 
L 2900 0 
L 2900 538 
Q 2691 219 2414 64 
Q 2138 -91 1772 -91 
Q 1169 -91 856 284 
Q 544 659 544 1381 
z
M 1991 3584 
L 1991 3584 
z
" transform="scale(0.015625)"/>
       <path id="DejaVuSans-3" transform="scale(0.015625)"/>
       <path id="DejaVuSans-52" d="M 1959 3097 
Q 1497 3097 1228 2736 
Q 959 2375 959 1747 
Q 959 1119 1226 758 
Q 1494 397 1959 397 
Q 2419 397 2687 759 
Q 2956 1122 2956 1747 
Q 2956 2369 2687 2733 
Q 2419 3097 1959 3097 
z
M 1959 3584 
Q 2709 3584 3137 3096 
Q 3566 2609 3566 1747 
Q 3566 888 3137 398 
Q 2709 -91 1959 -91 
Q 1206 -91 779 398 
Q 353 888 353 1747 
Q 353 2609 779 3096 
Q 1206 3584 1959 3584 
z
" transform="scale(0.015625)"/>
       <path id="DejaVuSans-56" d="M 2834 3397 
L 2834 2853 
Q 2591 2978 2328 3040 
Q 2066 3103 1784 3103 
Q 1356 3103 1142 2972 
Q 928 2841 928 2578 
Q 928 2378 1081 2264 
Q 1234 2150 1697 2047 
L 1894 2003 
Q 2506 1872 2764 1633 
Q 3022 1394 3022 966 
Q 3022 478 2636 193 
Q 2250 -91 1575 -91 
Q 1294 -91 989 -36 
Q 684 19 347 128 
L 347 722 
Q 666 556 975 473 
Q 1284 391 1588 391 
Q 1994 391 2212 530 
Q 2431 669 2431 922 
Q 2431 1156 2273 1281 
Q 2116 1406 1581 1522 
L 1381 1569 
Q 847 1681 609 1914 
Q 372 2147 372 2553 
Q 372 3047 722 3315 
Q 1072 3584 1716 3584 
Q 2034 3584 2315 3537 
Q 2597 3491 2834 3397 
z
" transform="scale(0.015625)"/>
      </defs>
      <use xlink:href="#DejaVuSans-28"/>
      <use xlink:href="#DejaVuSans-5b" transform="translate(63.1875 0)"/>
      <use xlink:href="#DejaVuSans-57" transform="translate(122.375 0)"/>
      <use xlink:href="#DejaVuSans-55" transform="translate(161.578125 0)"/>
      <use xlink:href="#DejaVuSans-44" transform="translate(202.6875 0)"/>
      <use xlink:href="#DejaVuSans-46" transform="translate(263.96875 0)"/>
      <use xlink:href="#DejaVuSans-48" transform="translate(318.953125 0)"/>
      <use xlink:href="#DejaVuSans-4f" transform="translate(380.484375 0)"/>
      <use xlink:href="#DejaVuSans-4f" transform="translate(408.265625 0)"/>
      <use xlink:href="#DejaVuSans-58" transform="translate(436.046875 0)"/>
      <use xlink:href="#DejaVuSans-4f" transform="translate(499.421875 0)"/>
      <use xlink:href="#DejaVuSans-44" transform="translate(527.203125 0)"/>
      <use xlink:href="#DejaVuSans-55" transform="translate(588.484375 0)"/>
      <use xlink:href="#DejaVuSans-3" transform="translate(629.59375 0)"/>
      <use xlink:href="#DejaVuSans-4f" transform="translate(661.375 0)"/>
      <use xlink:href="#DejaVuSans-44" transform="translate(689.15625 0)"/>
      <use xlink:href="#DejaVuSans-46" transform="translate(750.4375 0)"/>
      <use xlink:href="#DejaVuSans-57" transform="translate(805.421875 0)"/>
      <use xlink:href="#DejaVuSans-52" transform="translate(844.625 0)"/>
      <use xlink:href="#DejaVuSans-56" transform="translate(905.8125 0)"/>
      <use xlink:href="#DejaVuSans-48" transform="translate(957.90625 0)"/>
     </g>
    </g>
   </g>
   <g id="line2d_13">
    <path d="M 56.88098 98.777599 
L 156.208596 98.777599 
L 156.297695 17.566151 
L 156.965691 17.647362 
L 157.083379 17.972208 
L 157.128194 18.05342 
L 157.27439 19.515226 
L 157.393208 21.220666 
L 157.416857 21.301878 
L 157.545331 22.926107 
L 157.844008 26.174564 
L 157.864226 26.255776 
L 158.026645 27.06789 
L 158.116663 27.149102 
L 158.237184 27.311525 
L 158.32108 27.392736 
L 158.412285 28.042428 
L 158.481317 28.123639 
L 158.687912 29.666657 
L 158.707281 29.747868 
L 158.985489 31.696943 
L 159.018061 31.778154 
L 159.155297 32.590269 
L 159.196258 32.67148 
L 159.580215 34.945401 
L 159.770454 36.56963 
L 159.793265 36.650841 
L 160.042546 38.437493 
L 160.065911 38.518705 
L 160.168699 39.087185 
L 161.453038 45.908946 
L 161.529366 45.990158 
L 161.880927 47.533175 
L 161.984927 48.264078 
L 162.10143 48.34529 
L 162.24969 48.588924 
L 162.353939 49.238616 
L 162.50396 49.644673 
L 162.524448 49.725884 
L 162.547082 49.807096 
L 162.646591 49.888307 
L 162.758502 50.456787 
L 163.063405 51.593748 
L 163.251223 52.893131 
L 163.287239 52.974342 
L 163.396572 53.136765 
L 163.682743 54.273725 
L 163.82062 54.679783 
L 163.920539 54.760994 
L 164.281516 55.65432 
L 164.396905 56.2228 
L 164.409407 56.304012 
L 164.522139 56.872492 
L 164.993632 58.253086 
L 165.048849 58.334298 
L 165.209865 58.902778 
L 165.354758 58.983989 
L 165.507314 59.308835 
L 165.597201 59.390047 
L 165.8255 60.445796 
L 165.883786 60.527007 
L 166.012209 61.095487 
L 166.103728 61.176699 
L 166.267703 62.070025 
L 166.317863 62.151236 
L 166.429776 62.719716 
L 166.780173 64.587579 
L 167.372707 66.130597 
L 167.801065 66.211808 
L 167.909011 66.536654 
L 168.02476 66.617866 
L 168.118917 66.699077 
L 168.212522 66.780288 
L 168.402267 67.186346 
L 168.491833 67.267557 
L 168.603214 67.42998 
L 169.276959 67.511192 
L 169.360321 67.592403 
L 169.960799 67.673614 
L 170.063673 67.917249 
L 170.28994 68.323306 
L 170.422989 68.404517 
L 170.613926 69.13542 
L 170.649647 69.216632 
L 171.565231 71.89661 
L 171.770551 71.977821 
L 171.849484 72.140244 
L 171.962644 72.221456 
L 172.081502 72.46509 
L 172.266933 72.546301 
L 172.35449 73.03357 
L 172.478036 73.114781 
L 172.667432 73.764473 
L 172.76628 74.251742 
L 172.891349 74.901433 
L 172.949901 74.982645 
L 173.639882 78.231103 
L 173.762255 78.312314 
L 173.919866 78.393526 
L 174.149997 78.63716 
L 174.331548 78.718371 
L 174.473301 79.286852 
L 174.549408 79.368063 
L 174.693348 79.611697 
L 174.736706 79.692909 
L 174.910505 80.017755 
L 174.97229 80.098966 
L 175.074918 80.180177 
L 175.367069 80.261389 
L 175.466118 80.423812 
L 176.290162 80.505023 
L 176.426501 80.748658 
L 176.519455 80.829869 
L 176.600393 80.91108 
L 176.728568 80.992292 
L 176.807365 81.154715 
L 176.965456 81.235926 
L 177.122341 81.398349 
L 177.22812 81.479561 
L 177.521984 81.885618 
L 177.766567 81.966829 
L 178.110153 82.291675 
L 178.629025 82.372887 
L 179.187181 82.697732 
L 181.33793 82.778944 
L 181.461399 82.860155 
L 181.686724 82.941367 
L 181.807566 83.509847 
L 181.847298 83.591058 
L 181.966985 83.834693 
L 182.146285 83.915904 
L 182.24855 83.997115 
L 182.535819 84.078327 
L 182.645446 84.159538 
L 182.756888 84.24075 
L 182.844619 84.403173 
L 182.914816 84.484384 
L 183.052212 84.646807 
L 183.129889 84.728019 
L 183.506688 85.215287 
L 183.562023 85.296499 
L 183.635143 85.458922 
L 183.859446 85.540133 
L 183.977054 85.783767 
L 184.163017 85.94619 
L 184.237668 86.027402 
L 184.508979 87.001939 
L 184.706739 87.083151 
L 184.928615 87.570419 
L 185.14106 87.651631 
L 185.198307 87.814054 
L 185.522338 87.895265 
L 185.570741 87.976476 
L 186.913317 88.057688 
L 187.005234 88.138899 
L 187.156123 88.220111 
L 187.462571 88.463745 
L 187.57639 88.788591 
L 188.103918 88.869802 
L 188.214086 89.032225 
L 188.462156 89.113437 
L 188.522375 89.194648 
L 188.837833 89.27586 
L 189.027168 89.438283 
L 189.338112 89.519494 
L 189.448329 89.600705 
L 189.621995 89.681917 
L 189.744221 89.763128 
L 189.905197 89.84434 
L 190.347251 89.925551 
L 190.622573 90.169186 
L 190.947488 90.250397 
L 191.061098 90.41282 
L 191.259084 90.494031 
L 191.644429 90.737666 
L 192.447238 91.143723 
L 192.971197 91.224934 
L 193.599797 91.712203 
L 193.806112 91.793415 
L 193.885993 91.955837 
L 194.055961 92.037049 
L 194.195228 92.11826 
L 194.519018 92.199472 
L 194.650026 92.361895 
L 194.927308 92.443106 
L 195.400919 92.68674 
L 195.830677 93.011586 
L 196.833294 93.092798 
L 197.04944 93.336432 
L 197.843333 93.417643 
L 198.215088 93.742489 
L 198.303814 93.823701 
L 198.324008 93.904912 
L 198.647902 93.986124 
L 199.011152 94.067335 
L 199.073409 94.229758 
L 199.997395 94.310969 
L 200.168433 94.392181 
L 200.549924 94.473392 
L 200.641602 94.635815 
L 200.790178 94.717027 
L 201.044837 94.798238 
L 201.525799 94.87945 
L 201.652968 94.960661 
L 202.265028 95.041872 
L 202.354436 95.123084 
L 202.560085 95.204295 
L 202.672599 95.285507 
L 203.549406 95.366718 
L 203.648671 95.44793 
L 204.464544 95.529141 
L 204.805815 95.610353 
L 205.595361 95.691564 
L 205.843912 95.853987 
L 206.450804 95.935198 
L 206.655216 96.01641 
L 208.690087 96.097621 
L 209.520062 96.178833 
L 210.25353 96.260044 
L 215.519473 96.422467 
L 245.823129 96.503679 
L 246.707067 96.58489 
L 276.165952 96.666101 
L 276.334451 96.828524 
L 277.155799 96.909736 
L 277.302129 96.990947 
L 277.930584 97.072159 
L 278.073061 97.15337 
L 279.622165 97.234582 
L 279.865454 97.315793 
L 281.493093 97.397004 
L 281.850944 97.478216 
L 284.412958 97.559427 
L 284.531117 97.640639 
L 285.612927 97.72185 
L 285.966422 97.803062 
L 312.422447 97.884273 
L 312.422447 97.884273 
" clip-path="url(#p9ae8b1fa97)" style="fill: none; stroke: #000000; stroke-width: 1.5; stroke-linecap: square"/>
   </g>
   <g id="patch_3">
    <path d="M 44.103906 102.838171 
L 44.103906 13.505579 
" style="fill: none; stroke: #000000; stroke-width: 0.8; stroke-linejoin: miter; stroke-linecap: square"/>
   </g>
   <g id="patch_4">
    <path d="M 325.19952 102.838171 
L 325.19952 13.505579 
" style="fill: none; stroke: #000000; stroke-width: 0.8; stroke-linejoin: miter; stroke-linecap: square"/>
   </g>
   <g id="patch_5">
    <path d="M 44.103906 102.838171 
L 325.19952 102.838171 
" style="fill: none; stroke: #000000; stroke-width: 0.8; stroke-linejoin: miter; stroke-linecap: square"/>
   </g>
   <g id="patch_6">
    <path d="M 44.103906 13.505579 
L 325.19952 13.505579 
" style="fill: none; stroke: #000000; stroke-width: 0.8; stroke-linejoin: miter; stroke-linecap: square"/>
   </g>
  </g>
  <g id="axes_2">
   <g id="patch_7">
    <path d="M 44.103906 201.671244 
L 325.19952 201.671244 
L 325.19952 112.338651 
L 44.103906 112.338651 
z
" style="fill: #ffffff"/>
   </g>
   <g id="matplotlib.axis_3">
    <g id="xtick_10">
     <g id="line2d_14">
      <g>
       <use xlink:href="#m96a52eb04d" x="56.88098" y="201.671244" style="stroke: #000000; stroke-width: 0.8"/>
      </g>
     </g>
    </g>
    <g id="xtick_11">
     <g id="line2d_15">
      <g>
       <use xlink:href="#m96a52eb04d" x="88.812" y="201.671244" style="stroke: #000000; stroke-width: 0.8"/>
      </g>
     </g>
    </g>
    <g id="xtick_12">
     <g id="line2d_16">
      <g>
       <use xlink:href="#m96a52eb04d" x="120.743019" y="201.671244" style="stroke: #000000; stroke-width: 0.8"/>
      </g>
     </g>
    </g>
    <g id="xtick_13">
     <g id="line2d_17">
      <g>
       <use xlink:href="#m96a52eb04d" x="152.674039" y="201.671244" style="stroke: #000000; stroke-width: 0.8"/>
      </g>
     </g>
    </g>
    <g id="xtick_14">
     <g id="line2d_18">
      <g>
       <use xlink:href="#m96a52eb04d" x="184.605059" y="201.671244" style="stroke: #000000; stroke-width: 0.8"/>
      </g>
     </g>
    </g>
    <g id="xtick_15">
     <g id="line2d_19">
      <g>
       <use xlink:href="#m96a52eb04d" x="216.536079" y="201.671244" style="stroke: #000000; stroke-width: 0.8"/>
      </g>
     </g>
    </g>
    <g id="xtick_16">
     <g id="line2d_20">
      <g>
       <use xlink:href="#m96a52eb04d" x="248.467099" y="201.671244" style="stroke: #000000; stroke-width: 0.8"/>
      </g>
     </g>
    </g>
    <g id="xtick_17">
     <g id="line2d_21">
      <g>
       <use xlink:href="#m96a52eb04d" x="280.398119" y="201.671244" style="stroke: #000000; stroke-width: 0.8"/>
      </g>
     </g>
    </g>
    <g id="xtick_18">
     <g id="line2d_22">
      <g>
       <use xlink:href="#m96a52eb04d" x="312.329139" y="201.671244" style="stroke: #000000; stroke-width: 0.8"/>
      </g>
     </g>
    </g>
   </g>
   <g id="matplotlib.axis_4">
    <g id="ytick_4">
     <g id="line2d_23">
      <g>
       <use xlink:href="#mdcbf237fe2" x="44.103906" y="197.610672" style="stroke: #000000; stroke-width: 0.8"/>
      </g>
     </g>
     <g id="text_5">
      <!-- 0 -->
      <g transform="translate(30.741406 201.4095) scale(0.1 -0.1)">
       <use xlink:href="#DejaVuSans-13"/>
      </g>
     </g>
    </g>
    <g id="ytick_5">
     <g id="line2d_24">
      <g>
       <use xlink:href="#mdcbf237fe2" x="44.103906" y="157.004948" style="stroke: #000000; stroke-width: 0.8"/>
      </g>
     </g>
     <g id="text_6">
      <!-- 5 -->
      <g transform="translate(30.741406 160.803776) scale(0.1 -0.1)">
       <use xlink:href="#DejaVuSans-18"/>
      </g>
     </g>
    </g>
    <g id="ytick_6">
     <g id="line2d_25">
      <g>
       <use xlink:href="#mdcbf237fe2" x="44.103906" y="116.399224" style="stroke: #000000; stroke-width: 0.8"/>
      </g>
     </g>
     <g id="text_7">
      <!-- 10 -->
      <g transform="translate(24.378906 120.198052) scale(0.1 -0.1)">
       <use xlink:href="#DejaVuSans-14"/>
       <use xlink:href="#DejaVuSans-13" transform="translate(63.625 0)"/>
      </g>
     </g>
    </g>
    <g id="text_8">
     <!-- LacY -->
     <g transform="translate(17.976563 168.658073) rotate(-90) scale(0.1 -0.1)">
      <defs>
       <path id="DejaVuSans-2f" d="M 628 4666 
L 1259 4666 
L 1259 531 
L 3531 531 
L 3531 0 
L 628 0 
L 628 4666 
z
" transform="scale(0.015625)"/>
       <path id="DejaVuSans-3c" d="M -13 4666 
L 666 4666 
L 1959 2747 
L 3244 4666 
L 3922 4666 
L 2272 2222 
L 2272 0 
L 1638 0 
L 1638 2222 
L -13 4666 
z
" transform="scale(0.015625)"/>
      </defs>
      <use xlink:href="#DejaVuSans-2f"/>
      <use xlink:href="#DejaVuSans-44" transform="translate(55.71875 0)"/>
      <use xlink:href="#DejaVuSans-46" transform="translate(117 0)"/>
      <use xlink:href="#DejaVuSans-3c" transform="translate(171.984375 0)"/>
     </g>
    </g>
   </g>
   <g id="line2d_26">
    <path d="M 56.88098 116.399224 
L 56.908123 116.399224 
L 56.962648 124.520369 
L 57.070876 140.762658 
L 57.131253 148.883803 
L 57.283446 148.883803 
L 57.301152 140.762658 
L 57.521866 148.883803 
L 57.663812 148.883803 
L 57.83456 165.126093 
L 58.135632 181.368382 
L 58.201289 197.610672 
L 59.732149 197.610672 
L 59.898865 189.489527 
L 59.941631 197.610672 
L 64.967062 197.610672 
L 65.290201 189.489527 
L 65.400218 197.610672 
L 82.906361 197.610672 
L 83.100879 189.489527 
L 84.895216 197.610672 
L 84.91005 189.489527 
L 85.053338 181.368382 
L 85.057995 173.247238 
L 85.38034 181.368382 
L 85.607434 181.368382 
L 85.727135 197.610672 
L 85.787991 189.489527 
L 85.978326 189.489527 
L 86.116891 197.610672 
L 90.011343 197.610672 
L 90.401365 181.368382 
L 90.402667 173.247238 
L 90.901588 173.247238 
L 90.940279 189.489527 
L 91.712864 189.489527 
L 91.881885 181.368382 
L 92.226373 197.610672 
L 109.241277 197.610672 
L 109.347035 189.489527 
L 109.466811 189.489527 
L 109.605984 197.610672 
L 109.841121 197.610672 
L 109.88263 189.489527 
L 110.298832 189.489527 
L 110.648964 181.368382 
L 110.707346 189.489527 
L 110.882715 189.489527 
L 110.912311 197.610672 
L 119.677138 197.610672 
L 119.855672 189.489527 
L 121.957225 189.489527 
L 123.805843 197.610672 
L 131.5787 197.610672 
L 131.765083 189.489527 
L 132.052824 189.489527 
L 132.160668 197.610672 
L 136.499195 197.610672 
L 136.582978 189.489527 
L 136.604857 197.610672 
L 146.603825 197.610672 
L 146.864834 181.368382 
L 146.885679 189.489527 
L 146.914705 181.368382 
L 147.027888 173.247238 
L 147.033232 181.368382 
L 147.618345 181.368382 
L 148.235918 189.489527 
L 148.481406 189.489527 
L 148.79687 181.368382 
L 148.909826 181.368382 
L 149.982424 197.610672 
L 150.44289 197.610672 
L 150.494804 181.368382 
L 150.595744 181.368382 
L 150.748675 189.489527 
L 150.882479 189.489527 
L 151.425735 197.610672 
L 156.547476 197.610672 
L 156.976035 189.489527 
L 157.216483 157.004948 
L 157.491726 157.004948 
L 157.559965 173.247238 
L 157.60178 165.126093 
L 157.71325 157.004948 
L 157.764422 157.004948 
L 157.874946 181.368382 
L 158.125082 181.368382 
L 158.237184 189.489527 
L 158.310974 189.489527 
L 158.412285 181.368382 
L 158.568342 165.126093 
L 158.681367 165.126093 
L 158.780223 173.247238 
L 158.916512 173.247238 
L 159.040779 189.489527 
L 159.090392 189.489527 
L 159.196258 181.368382 
L 159.340914 181.368382 
L 159.452959 173.247238 
L 159.499284 173.247238 
L 159.618607 165.126093 
L 159.709526 165.126093 
L 159.82645 157.004948 
L 159.949338 157.004948 
L 159.981246 173.247238 
L 160.060105 157.004948 
L 160.066357 157.004948 
L 160.138323 148.883803 
L 160.144463 157.004948 
L 160.241159 165.126093 
L 160.474678 165.126093 
L 160.501052 173.247238 
L 160.53715 157.004948 
L 160.575856 165.126093 
L 160.668936 165.126093 
L 160.750977 181.368382 
L 160.780238 173.247238 
L 160.939394 173.247238 
L 160.981954 165.126093 
L 161.046533 173.247238 
L 161.145908 173.247238 
L 161.261064 189.489527 
L 161.309143 189.489527 
L 161.43235 173.247238 
L 161.464823 181.368382 
L 161.508718 189.489527 
L 161.574428 181.368382 
L 161.656304 181.368382 
L 161.767333 173.247238 
L 161.88722 173.247238 
L 162.004549 181.368382 
L 162.114294 173.247238 
L 162.306095 173.247238 
L 162.417241 189.489527 
L 162.459412 189.489527 
L 162.547082 181.368382 
L 162.676013 181.368382 
L 162.804492 173.247238 
L 163.177484 173.247238 
L 163.296914 181.368382 
L 163.528462 181.368382 
L 163.601458 173.247238 
L 163.636664 181.368382 
L 163.778573 181.368382 
L 163.894124 189.489527 
L 164.114762 189.489527 
L 164.240866 181.368382 
L 164.254021 181.368382 
L 164.368867 173.247238 
L 164.396905 173.247238 
L 164.490618 165.126093 
L 164.622326 165.126093 
L 164.630595 173.247238 
L 164.724092 165.126093 
L 164.741639 165.126093 
L 164.85364 173.247238 
L 164.95575 189.489527 
L 165.168615 189.489527 
L 165.276981 181.368382 
L 165.442438 181.368382 
L 165.514589 189.489527 
L 165.550743 181.368382 
L 165.614308 181.368382 
L 165.728768 173.247238 
L 165.83117 173.247238 
L 165.91966 157.004948 
L 165.941674 165.126093 
L 166.197173 165.126093 
L 166.285971 173.247238 
L 166.844232 173.247238 
L 166.902852 181.368382 
L 167.117349 181.368382 
L 167.135317 189.489527 
L 167.225073 181.368382 
L 167.286876 181.368382 
L 167.380729 189.489527 
L 167.564166 189.489527 
L 167.585749 197.610672 
L 167.632892 189.489527 
L 167.776975 189.489527 
L 167.909011 181.368382 
L 167.947665 181.368382 
L 167.978388 173.247238 
L 168.052195 181.368382 
L 168.180175 189.489527 
L 168.206272 189.489527 
L 168.313379 181.368382 
L 168.527188 181.368382 
L 168.603214 197.610672 
L 169.022729 197.610672 
L 169.140392 181.368382 
L 169.201929 181.368382 
L 169.296261 189.489527 
L 169.360321 189.489527 
L 169.469222 197.610672 
L 169.805646 197.610672 
L 169.933488 189.489527 
L 169.983778 189.489527 
L 170.142927 181.368382 
L 170.317117 181.368382 
L 170.422989 173.247238 
L 170.674699 173.247238 
L 170.785864 165.126093 
L 170.859098 165.126093 
L 170.985219 173.247238 
L 171.511544 173.247238 
L 171.577585 189.489527 
L 171.657212 189.489527 
L 171.815317 173.247238 
L 171.822768 181.368382 
L 171.977288 181.368382 
L 172.081502 189.489527 
L 172.156225 189.489527 
L 172.27934 181.368382 
L 172.336627 181.368382 
L 172.428822 173.247238 
L 172.573584 173.247238 
L 172.667432 157.004948 
L 172.805189 157.004948 
L 172.919896 165.126093 
L 172.99677 165.126093 
L 173.100326 157.004948 
L 173.178548 157.004948 
L 173.285692 148.883803 
L 173.44859 148.883803 
L 173.554367 173.247238 
L 173.655088 173.247238 
L 173.762255 189.489527 
L 173.993951 181.368382 
L 174.120247 189.489527 
L 174.338317 189.489527 
L 174.473301 181.368382 
L 174.801975 181.368382 
L 174.862262 173.247238 
L 174.910505 181.368382 
L 174.925073 189.489527 
L 174.996966 181.368382 
L 175.116991 181.368382 
L 175.251085 197.610672 
L 175.396604 189.489527 
L 175.579328 189.489527 
L 175.694078 197.610672 
L 176.129865 197.610672 
L 176.252132 181.368382 
L 176.362067 173.247238 
L 176.42552 173.247238 
L 176.527944 181.368382 
L 176.743236 181.368382 
L 176.878997 173.247238 
L 176.998802 173.247238 
L 177.009751 165.126093 
L 177.076531 181.368382 
L 177.096275 181.368382 
L 177.182727 189.489527 
L 177.360504 189.489527 
L 177.430931 181.368382 
L 177.456748 189.489527 
L 178.310716 189.489527 
L 178.629025 181.368382 
L 178.727425 181.368382 
L 178.840848 189.489527 
L 179.008733 189.489527 
L 179.062899 197.610672 
L 179.502288 197.610672 
L 179.733721 189.489527 
L 179.789856 197.610672 
L 180.760081 197.610672 
L 181.231248 189.489527 
L 181.43608 181.368382 
L 181.456998 181.368382 
L 181.524341 189.489527 
L 181.574007 189.489527 
L 181.769395 173.247238 
L 181.879136 173.247238 
L 181.966985 165.126093 
L 182.146285 173.247238 
L 182.163996 173.247238 
L 182.24855 189.489527 
L 182.336651 173.247238 
L 182.371665 181.368382 
L 182.458659 189.489527 
L 182.59278 181.368382 
L 182.739723 165.126093 
L 182.75322 173.247238 
L 182.816534 173.247238 
L 182.891424 181.368382 
L 182.907572 173.247238 
L 182.987401 165.126093 
L 183.128713 165.126093 
L 183.234701 173.247238 
L 183.53844 173.247238 
L 183.635143 165.126093 
L 184.137772 165.126093 
L 184.25374 157.004948 
L 184.452447 157.004948 
L 184.535626 148.883803 
L 184.562151 157.004948 
L 184.626872 157.004948 
L 184.780763 173.247238 
L 184.870164 173.247238 
L 184.993863 181.368382 
L 185.549716 181.368382 
L 185.570741 189.489527 
L 186.060209 189.489527 
L 186.060419 197.610672 
L 186.420368 197.610672 
L 186.831753 189.489527 
L 186.930828 181.368382 
L 187.073394 189.489527 
L 187.156123 173.247238 
L 187.33654 173.247238 
L 187.445004 181.368382 
L 187.947652 181.368382 
L 188.048916 189.489527 
L 188.212164 173.247238 
L 188.214086 181.368382 
L 188.294706 181.368382 
L 188.462156 189.489527 
L 188.69112 189.489527 
L 188.829857 173.247238 
L 188.879562 181.368382 
L 188.9946 189.489527 
L 189.027168 189.489527 
L 189.056307 181.368382 
L 189.120574 189.489527 
L 189.252815 189.489527 
L 189.445063 173.247238 
L 189.448329 181.368382 
L 189.552983 173.247238 
L 189.557988 173.247238 
L 189.57841 165.126093 
L 189.649949 173.247238 
L 189.744221 181.368382 
L 190.305845 181.368382 
L 190.441909 189.489527 
L 190.622573 189.489527 
L 190.813558 173.247238 
L 190.866873 173.247238 
L 190.886751 181.368382 
L 190.963955 173.247238 
L 191.112703 173.247238 
L 191.167564 181.368382 
L 191.560469 181.368382 
L 191.644429 173.247238 
L 191.869814 173.247238 
L 191.943321 181.368382 
L 192.104704 181.368382 
L 192.154385 189.489527 
L 192.293194 181.368382 
L 192.425513 181.368382 
L 192.539536 189.489527 
L 192.561712 189.489527 
L 192.626118 181.368382 
L 192.641428 189.489527 
L 192.866558 189.489527 
L 192.971197 181.368382 
L 193.05261 181.368382 
L 193.1194 173.247238 
L 193.329394 181.368382 
L 193.431962 173.247238 
L 193.548356 173.247238 
L 193.667916 189.489527 
L 193.840572 165.126093 
L 193.885993 165.126093 
L 194.055961 173.247238 
L 194.149361 173.247238 
L 194.195228 165.126093 
L 194.327088 173.247238 
L 194.337386 181.368382 
L 194.54036 173.247238 
L 194.622647 173.247238 
L 194.709964 189.489527 
L 194.927308 173.247238 
L 195.223415 173.247238 
L 195.331095 165.126093 
L 195.518597 165.126093 
L 195.645121 181.368382 
L 195.830677 181.368382 
L 195.881187 173.247238 
L 195.997546 173.247238 
L 196.13879 197.610672 
L 196.807153 197.610672 
L 196.897493 189.489527 
L 197.133831 189.489527 
L 197.177334 197.610672 
L 197.374796 197.610672 
L 197.603318 173.247238 
L 197.773693 173.247238 
L 197.843333 165.126093 
L 197.927245 165.126093 
L 197.967145 173.247238 
L 197.995553 165.126093 
L 198.215088 165.126093 
L 198.324008 173.247238 
L 198.641232 173.247238 
L 198.647902 181.368382 
L 198.727527 173.247238 
L 198.778896 173.247238 
L 198.899869 181.368382 
L 198.931816 181.368382 
L 199.057669 189.489527 
L 199.298045 189.489527 
L 199.32314 181.368382 
L 199.438832 189.489527 
L 199.747128 189.489527 
L 199.997395 181.368382 
L 200.213478 181.368382 
L 200.367404 165.126093 
L 200.70103 165.126093 
L 200.790178 157.004948 
L 200.892462 157.004948 
L 200.941972 148.883803 
L 200.989241 157.004948 
L 201.00985 148.883803 
L 201.044837 165.126093 
L 201.063895 165.126093 
L 201.169206 148.883803 
L 201.187981 157.004948 
L 201.256569 157.004948 
L 201.34249 165.126093 
L 201.501293 165.126093 
L 201.619689 173.247238 
L 201.640485 173.247238 
L 201.761599 165.126093 
L 201.837619 173.247238 
L 202.076433 173.247238 
L 202.284952 189.489527 
L 202.354436 181.368382 
L 202.500001 165.126093 
L 202.528652 173.247238 
L 202.687936 189.489527 
L 203.227296 189.489527 
L 203.389887 181.368382 
L 203.557982 181.368382 
L 203.648671 189.489527 
L 203.793073 189.489527 
L 203.815611 197.610672 
L 203.842743 189.489527 
L 203.922134 189.489527 
L 204.08512 181.368382 
L 204.126088 181.368382 
L 204.31568 165.126093 
L 204.436308 165.126093 
L 204.464544 173.247238 
L 204.805815 173.247238 
L 204.94685 181.368382 
L 205.37826 181.368382 
L 205.595361 165.126093 
L 205.655236 165.126093 
L 205.758122 173.247238 
L 205.837261 165.126093 
L 205.843912 173.247238 
L 205.919342 173.247238 
L 206.087823 181.368382 
L 206.178388 181.368382 
L 206.31184 189.489527 
L 206.530173 189.489527 
L 206.655216 197.610672 
L 206.7929 181.368382 
L 206.829835 181.368382 
L 206.927927 189.489527 
L 207.210508 189.489527 
L 207.235688 197.610672 
L 207.422285 197.610672 
L 207.46731 189.489527 
L 207.745006 189.489527 
L 207.773691 197.610672 
L 208.277739 189.489527 
L 209.294732 189.489527 
L 209.346676 197.610672 
L 209.366605 189.489527 
L 209.421543 189.489527 
L 209.490002 181.368382 
L 209.520062 189.489527 
L 212.561769 189.489527 
L 212.906731 197.610672 
L 214.934519 197.610672 
L 215.12307 189.489527 
L 215.244334 197.610672 
L 225.738182 197.610672 
L 225.888289 189.489527 
L 226.110355 197.610672 
L 241.473272 197.610672 
L 241.80108 189.489527 
L 241.934785 189.489527 
L 241.972847 197.610672 
L 242.154102 189.489527 
L 242.685218 189.489527 
L 242.851173 181.368382 
L 242.930705 189.489527 
L 243.231653 189.489527 
L 243.391621 197.610672 
L 245.511764 197.610672 
L 245.823129 189.489527 
L 246.383679 189.489527 
L 246.707067 197.610672 
L 258.472268 197.610672 
L 258.65265 189.489527 
L 258.735498 173.247238 
L 258.901535 173.247238 
L 259.019763 181.368382 
L 259.876345 197.610672 
L 261.13097 197.610672 
L 261.43644 189.489527 
L 261.579703 189.489527 
L 261.664837 197.610672 
L 275.248578 197.610672 
L 275.484034 173.247238 
L 275.702736 197.610672 
L 275.837498 181.368382 
L 275.870482 189.489527 
L 275.957383 189.489527 
L 276.026558 181.368382 
L 276.221116 189.489527 
L 276.44261 173.247238 
L 276.541164 189.489527 
L 276.643854 181.368382 
L 276.897719 181.368382 
L 276.915227 173.247238 
L 277.002655 181.368382 
L 277.375047 181.368382 
L 277.673325 165.126093 
L 277.777401 181.368382 
L 277.907858 173.247238 
L 277.985057 181.368382 
L 278.125272 181.368382 
L 278.270482 173.247238 
L 278.322842 181.368382 
L 278.644475 189.489527 
L 278.740401 181.368382 
L 278.884912 197.610672 
L 279.136762 197.610672 
L 279.302271 189.489527 
L 279.767997 189.489527 
L 279.830276 181.368382 
L 279.865454 189.489527 
L 280.057052 197.610672 
L 280.186594 189.489527 
L 280.372193 197.610672 
L 280.818946 197.610672 
L 281.04074 189.489527 
L 281.211944 197.610672 
L 281.331669 181.368382 
L 281.371982 181.368382 
L 281.493093 173.247238 
L 281.652298 173.247238 
L 281.740073 157.004948 
L 281.850944 165.126093 
L 282.071592 181.368382 
L 282.168838 189.489527 
L 282.748148 189.489527 
L 282.814604 197.610672 
L 283.545441 197.610672 
L 283.76784 181.368382 
L 283.879164 165.126093 
L 283.942197 157.004948 
L 284.093544 173.247238 
L 284.208935 173.247238 
L 284.211776 165.126093 
L 284.476295 165.126093 
L 284.602113 181.368382 
L 284.649144 173.247238 
L 284.711948 181.368382 
L 284.833027 181.368382 
L 284.890624 173.247238 
L 284.994053 173.247238 
L 285.007333 165.126093 
L 285.081781 173.247238 
L 285.233195 173.247238 
L 285.255107 157.004948 
L 285.355575 165.126093 
L 285.388766 165.126093 
L 285.539608 148.883803 
L 285.612927 157.004948 
L 285.878708 157.004948 
L 285.966422 173.247238 
L 286.245417 173.247238 
L 286.591582 181.368382 
L 286.79431 189.489527 
L 286.877641 197.610672 
L 286.937519 189.489527 
L 287.202987 189.489527 
L 287.299739 181.368382 
L 287.335573 189.489527 
L 287.532983 181.368382 
L 287.72994 181.368382 
L 287.778353 189.489527 
L 287.89543 189.489527 
L 287.964546 181.368382 
L 288.094337 189.489527 
L 288.186888 189.489527 
L 288.491497 181.368382 
L 288.525333 197.610672 
L 288.899069 189.489527 
L 288.926139 197.610672 
L 289.211912 197.610672 
L 289.456796 189.489527 
L 289.474526 197.610672 
L 289.534829 189.489527 
L 289.72996 173.247238 
L 289.876432 173.247238 
L 289.959722 181.368382 
L 290.127398 189.489527 
L 290.381556 181.368382 
L 290.516161 189.489527 
L 290.706327 189.489527 
L 290.847402 181.368382 
L 290.890418 189.489527 
L 291.12505 181.368382 
L 291.421144 189.489527 
L 291.571415 181.368382 
L 291.792465 189.489527 
L 292.008728 197.610672 
L 300.483126 197.610672 
L 300.528055 189.489527 
L 300.752516 181.368382 
L 300.922409 189.489527 
L 301.292195 189.489527 
L 301.492133 173.247238 
L 301.602225 197.610672 
L 302.669854 197.610672 
L 302.892552 189.489527 
L 303.057675 197.610672 
L 311.748612 197.610672 
L 312.27703 189.489527 
L 312.422447 173.247238 
L 312.422447 173.247238 
" clip-path="url(#p6e71801dfe)" style="fill: none; stroke: #000000; stroke-width: 1.5; stroke-linecap: square"/>
   </g>
   <g id="patch_8">
    <path d="M 44.103906 201.671244 
L 44.103906 112.338651 
" style="fill: none; stroke: #000000; stroke-width: 0.8; stroke-linejoin: miter; stroke-linecap: square"/>
   </g>
   <g id="patch_9">
    <path d="M 325.19952 201.671244 
L 325.19952 112.338651 
" style="fill: none; stroke: #000000; stroke-width: 0.8; stroke-linejoin: miter; stroke-linecap: square"/>
   </g>
   <g id="patch_10">
    <path d="M 44.103906 201.671244 
L 325.19952 201.671244 
" style="fill: none; stroke: #000000; stroke-width: 0.8; stroke-linejoin: miter; stroke-linecap: square"/>
   </g>
   <g id="patch_11">
    <path d="M 44.103906 112.338651 
L 325.19952 112.338651 
" style="fill: none; stroke: #000000; stroke-width: 0.8; stroke-linejoin: miter; stroke-linecap: square"/>
   </g>
  </g>
  <g id="axes_3">
   <g id="patch_12">
    <path d="M 44.103906 300.504317 
L 325.19952 300.504317 
L 325.19952 211.171724 
L 44.103906 211.171724 
z
" style="fill: #ffffff"/>
   </g>
   <g id="matplotlib.axis_5">
    <g id="xtick_19">
     <g id="line2d_27">
      <g>
       <use xlink:href="#m96a52eb04d" x="56.88098" y="300.504317" style="stroke: #000000; stroke-width: 0.8"/>
      </g>
     </g>
     <g id="text_9">
      <!-- 0 -->
      <g transform="translate(53.69973 315.101974) scale(0.1 -0.1)">
       <use xlink:href="#DejaVuSans-13"/>
      </g>
     </g>
    </g>
    <g id="xtick_20">
     <g id="line2d_28">
      <g>
       <use xlink:href="#m96a52eb04d" x="88.812" y="300.504317" style="stroke: #000000; stroke-width: 0.8"/>
      </g>
     </g>
     <g id="text_10">
      <!-- 100 -->
      <g transform="translate(79.26825 315.101974) scale(0.1 -0.1)">
       <use xlink:href="#DejaVuSans-14"/>
       <use xlink:href="#DejaVuSans-13" transform="translate(63.625 0)"/>
       <use xlink:href="#DejaVuSans-13" transform="translate(127.25 0)"/>
      </g>
     </g>
    </g>
    <g id="xtick_21">
     <g id="line2d_29">
      <g>
       <use xlink:href="#m96a52eb04d" x="120.743019" y="300.504317" style="stroke: #000000; stroke-width: 0.8"/>
      </g>
     </g>
     <g id="text_11">
      <!-- 200 -->
      <g transform="translate(111.199269 315.101974) scale(0.1 -0.1)">
       <defs>
        <path id="DejaVuSans-15" d="M 1228 531 
L 3431 531 
L 3431 0 
L 469 0 
L 469 531 
Q 828 903 1448 1529 
Q 2069 2156 2228 2338 
Q 2531 2678 2651 2914 
Q 2772 3150 2772 3378 
Q 2772 3750 2511 3984 
Q 2250 4219 1831 4219 
Q 1534 4219 1204 4116 
Q 875 4013 500 3803 
L 500 4441 
Q 881 4594 1212 4672 
Q 1544 4750 1819 4750 
Q 2544 4750 2975 4387 
Q 3406 4025 3406 3419 
Q 3406 3131 3298 2873 
Q 3191 2616 2906 2266 
Q 2828 2175 2409 1742 
Q 1991 1309 1228 531 
z
" transform="scale(0.015625)"/>
       </defs>
       <use xlink:href="#DejaVuSans-15"/>
       <use xlink:href="#DejaVuSans-13" transform="translate(63.625 0)"/>
       <use xlink:href="#DejaVuSans-13" transform="translate(127.25 0)"/>
      </g>
     </g>
    </g>
    <g id="xtick_22">
     <g id="line2d_30">
      <g>
       <use xlink:href="#m96a52eb04d" x="152.674039" y="300.504317" style="stroke: #000000; stroke-width: 0.8"/>
      </g>
     </g>
     <g id="text_12">
      <!-- 300 -->
      <g transform="translate(143.130289 315.101974) scale(0.1 -0.1)">
       <defs>
        <path id="DejaVuSans-16" d="M 2597 2516 
Q 3050 2419 3304 2112 
Q 3559 1806 3559 1356 
Q 3559 666 3084 287 
Q 2609 -91 1734 -91 
Q 1441 -91 1130 -33 
Q 819 25 488 141 
L 488 750 
Q 750 597 1062 519 
Q 1375 441 1716 441 
Q 2309 441 2620 675 
Q 2931 909 2931 1356 
Q 2931 1769 2642 2001 
Q 2353 2234 1838 2234 
L 1294 2234 
L 1294 2753 
L 1863 2753 
Q 2328 2753 2575 2939 
Q 2822 3125 2822 3475 
Q 2822 3834 2567 4026 
Q 2313 4219 1838 4219 
Q 1578 4219 1281 4162 
Q 984 4106 628 3988 
L 628 4550 
Q 988 4650 1302 4700 
Q 1616 4750 1894 4750 
Q 2613 4750 3031 4423 
Q 3450 4097 3450 3541 
Q 3450 3153 3228 2886 
Q 3006 2619 2597 2516 
z
" transform="scale(0.015625)"/>
       </defs>
       <use xlink:href="#DejaVuSans-16"/>
       <use xlink:href="#DejaVuSans-13" transform="translate(63.625 0)"/>
       <use xlink:href="#DejaVuSans-13" transform="translate(127.25 0)"/>
      </g>
     </g>
    </g>
    <g id="xtick_23">
     <g id="line2d_31">
      <g>
       <use xlink:href="#m96a52eb04d" x="184.605059" y="300.504317" style="stroke: #000000; stroke-width: 0.8"/>
      </g>
     </g>
     <g id="text_13">
      <!-- 400 -->
      <g transform="translate(175.061309 315.101974) scale(0.1 -0.1)">
       <defs>
        <path id="DejaVuSans-17" d="M 2419 4116 
L 825 1625 
L 2419 1625 
L 2419 4116 
z
M 2253 4666 
L 3047 4666 
L 3047 1625 
L 3713 1625 
L 3713 1100 
L 3047 1100 
L 3047 0 
L 2419 0 
L 2419 1100 
L 313 1100 
L 313 1709 
L 2253 4666 
z
" transform="scale(0.015625)"/>
       </defs>
       <use xlink:href="#DejaVuSans-17"/>
       <use xlink:href="#DejaVuSans-13" transform="translate(63.625 0)"/>
       <use xlink:href="#DejaVuSans-13" transform="translate(127.25 0)"/>
      </g>
     </g>
    </g>
    <g id="xtick_24">
     <g id="line2d_32">
      <g>
       <use xlink:href="#m96a52eb04d" x="216.536079" y="300.504317" style="stroke: #000000; stroke-width: 0.8"/>
      </g>
     </g>
     <g id="text_14">
      <!-- 500 -->
      <g transform="translate(206.992329 315.101974) scale(0.1 -0.1)">
       <use xlink:href="#DejaVuSans-18"/>
       <use xlink:href="#DejaVuSans-13" transform="translate(63.625 0)"/>
       <use xlink:href="#DejaVuSans-13" transform="translate(127.25 0)"/>
      </g>
     </g>
    </g>
    <g id="xtick_25">
     <g id="line2d_33">
      <g>
       <use xlink:href="#m96a52eb04d" x="248.467099" y="300.504317" style="stroke: #000000; stroke-width: 0.8"/>
      </g>
     </g>
     <g id="text_15">
      <!-- 600 -->
      <g transform="translate(238.923349 315.101974) scale(0.1 -0.1)">
       <defs>
        <path id="DejaVuSans-19" d="M 2113 2584 
Q 1688 2584 1439 2293 
Q 1191 2003 1191 1497 
Q 1191 994 1439 701 
Q 1688 409 2113 409 
Q 2538 409 2786 701 
Q 3034 994 3034 1497 
Q 3034 2003 2786 2293 
Q 2538 2584 2113 2584 
z
M 3366 4563 
L 3366 3988 
Q 3128 4100 2886 4159 
Q 2644 4219 2406 4219 
Q 1781 4219 1451 3797 
Q 1122 3375 1075 2522 
Q 1259 2794 1537 2939 
Q 1816 3084 2150 3084 
Q 2853 3084 3261 2657 
Q 3669 2231 3669 1497 
Q 3669 778 3244 343 
Q 2819 -91 2113 -91 
Q 1303 -91 875 529 
Q 447 1150 447 2328 
Q 447 3434 972 4092 
Q 1497 4750 2381 4750 
Q 2619 4750 2861 4703 
Q 3103 4656 3366 4563 
z
" transform="scale(0.015625)"/>
       </defs>
       <use xlink:href="#DejaVuSans-19"/>
       <use xlink:href="#DejaVuSans-13" transform="translate(63.625 0)"/>
       <use xlink:href="#DejaVuSans-13" transform="translate(127.25 0)"/>
      </g>
     </g>
    </g>
    <g id="xtick_26">
     <g id="line2d_34">
      <g>
       <use xlink:href="#m96a52eb04d" x="280.398119" y="300.504317" style="stroke: #000000; stroke-width: 0.8"/>
      </g>
     </g>
     <g id="text_16">
      <!-- 700 -->
      <g transform="translate(270.854369 315.101974) scale(0.1 -0.1)">
       <defs>
        <path id="DejaVuSans-1a" d="M 525 4666 
L 3525 4666 
L 3525 4397 
L 1831 0 
L 1172 0 
L 2766 4134 
L 525 4134 
L 525 4666 
z
" transform="scale(0.015625)"/>
       </defs>
       <use xlink:href="#DejaVuSans-1a"/>
       <use xlink:href="#DejaVuSans-13" transform="translate(63.625 0)"/>
       <use xlink:href="#DejaVuSans-13" transform="translate(127.25 0)"/>
      </g>
     </g>
    </g>
    <g id="xtick_27">
     <g id="line2d_35">
      <g>
       <use xlink:href="#m96a52eb04d" x="312.329139" y="300.504317" style="stroke: #000000; stroke-width: 0.8"/>
      </g>
     </g>
     <g id="text_17">
      <!-- 800 -->
      <g transform="translate(302.785389 315.101974) scale(0.1 -0.1)">
       <defs>
        <path id="DejaVuSans-1b" d="M 2034 2216 
Q 1584 2216 1326 1975 
Q 1069 1734 1069 1313 
Q 1069 891 1326 650 
Q 1584 409 2034 409 
Q 2484 409 2743 651 
Q 3003 894 3003 1313 
Q 3003 1734 2745 1975 
Q 2488 2216 2034 2216 
z
M 1403 2484 
Q 997 2584 770 2862 
Q 544 3141 544 3541 
Q 544 4100 942 4425 
Q 1341 4750 2034 4750 
Q 2731 4750 3128 4425 
Q 3525 4100 3525 3541 
Q 3525 3141 3298 2862 
Q 3072 2584 2669 2484 
Q 3125 2378 3379 2068 
Q 3634 1759 3634 1313 
Q 3634 634 3220 271 
Q 2806 -91 2034 -91 
Q 1263 -91 848 271 
Q 434 634 434 1313 
Q 434 1759 690 2068 
Q 947 2378 1403 2484 
z
M 1172 3481 
Q 1172 3119 1398 2916 
Q 1625 2713 2034 2713 
Q 2441 2713 2670 2916 
Q 2900 3119 2900 3481 
Q 2900 3844 2670 4047 
Q 2441 4250 2034 4250 
Q 1625 4250 1398 4047 
Q 1172 3844 1172 3481 
z
" transform="scale(0.015625)"/>
       </defs>
       <use xlink:href="#DejaVuSans-1b"/>
       <use xlink:href="#DejaVuSans-13" transform="translate(63.625 0)"/>
       <use xlink:href="#DejaVuSans-13" transform="translate(127.25 0)"/>
      </g>
     </g>
    </g>
    <g id="text_18">
     <!-- Time -->
     <g transform="translate(172.415776 329.102755) scale(0.1 -0.1)">
      <defs>
       <path id="DejaVuSans-37" d="M -19 4666 
L 3928 4666 
L 3928 4134 
L 2272 4134 
L 2272 0 
L 1638 0 
L 1638 4134 
L -19 4134 
L -19 4666 
z
" transform="scale(0.015625)"/>
       <path id="DejaVuSans-4c" d="M 603 3500 
L 1178 3500 
L 1178 0 
L 603 0 
L 603 3500 
z
M 603 4863 
L 1178 4863 
L 1178 4134 
L 603 4134 
L 603 4863 
z
" transform="scale(0.015625)"/>
       <path id="DejaVuSans-50" d="M 3328 2828 
Q 3544 3216 3844 3400 
Q 4144 3584 4550 3584 
Q 5097 3584 5394 3201 
Q 5691 2819 5691 2113 
L 5691 0 
L 5113 0 
L 5113 2094 
Q 5113 2597 4934 2840 
Q 4756 3084 4391 3084 
Q 3944 3084 3684 2787 
Q 3425 2491 3425 1978 
L 3425 0 
L 2847 0 
L 2847 2094 
Q 2847 2600 2669 2842 
Q 2491 3084 2119 3084 
Q 1678 3084 1418 2786 
Q 1159 2488 1159 1978 
L 1159 0 
L 581 0 
L 581 3500 
L 1159 3500 
L 1159 2956 
Q 1356 3278 1631 3431 
Q 1906 3584 2284 3584 
Q 2666 3584 2933 3390 
Q 3200 3197 3328 2828 
z
" transform="scale(0.015625)"/>
      </defs>
      <use xlink:href="#DejaVuSans-37"/>
      <use xlink:href="#DejaVuSans-4c" transform="translate(58 0)"/>
      <use xlink:href="#DejaVuSans-50" transform="translate(85.78125 0)"/>
      <use xlink:href="#DejaVuSans-48" transform="translate(183.1875 0)"/>
     </g>
    </g>
   </g>
   <g id="matplotlib.axis_6">
    <g id="ytick_7">
     <g id="line2d_36">
      <g>
       <use xlink:href="#mdcbf237fe2" x="44.103906" y="296.443745" style="stroke: #000000; stroke-width: 0.8"/>
      </g>
     </g>
     <g id="text_19">
      <!-- 0.0 -->
      <g transform="translate(21.200781 300.242573) scale(0.1 -0.1)">
       <defs>
        <path id="DejaVuSans-11" d="M 684 794 
L 1344 794 
L 1344 0 
L 684 0 
L 684 794 
z
" transform="scale(0.015625)"/>
       </defs>
       <use xlink:href="#DejaVuSans-13"/>
       <use xlink:href="#DejaVuSans-11" transform="translate(63.625 0)"/>
       <use xlink:href="#DejaVuSans-13" transform="translate(95.40625 0)"/>
      </g>
     </g>
    </g>
    <g id="ytick_8">
     <g id="line2d_37">
      <g>
       <use xlink:href="#mdcbf237fe2" x="44.103906" y="255.838021" style="stroke: #000000; stroke-width: 0.8"/>
      </g>
     </g>
     <g id="text_20">
      <!-- 0.5 -->
      <g transform="translate(21.200781 259.636849) scale(0.1 -0.1)">
       <use xlink:href="#DejaVuSans-13"/>
       <use xlink:href="#DejaVuSans-11" transform="translate(63.625 0)"/>
       <use xlink:href="#DejaVuSans-18" transform="translate(95.40625 0)"/>
      </g>
     </g>
    </g>
    <g id="ytick_9">
     <g id="line2d_38">
      <g>
       <use xlink:href="#mdcbf237fe2" x="44.103906" y="215.232297" style="stroke: #000000; stroke-width: 0.8"/>
      </g>
     </g>
     <g id="text_21">
      <!-- 1.0 -->
      <g transform="translate(21.200781 219.031125) scale(0.1 -0.1)">
       <use xlink:href="#DejaVuSans-14"/>
       <use xlink:href="#DejaVuSans-11" transform="translate(63.625 0)"/>
       <use xlink:href="#DejaVuSans-13" transform="translate(95.40625 0)"/>
      </g>
     </g>
    </g>
    <g id="text_22">
     <!-- Free lac operon -->
     <g transform="translate(14.798438 294.31224) rotate(-90) scale(0.1 -0.1)">
      <defs>
       <path id="DejaVuSans-29" d="M 628 4666 
L 3309 4666 
L 3309 4134 
L 1259 4134 
L 1259 2759 
L 3109 2759 
L 3109 2228 
L 1259 2228 
L 1259 0 
L 628 0 
L 628 4666 
z
" transform="scale(0.015625)"/>
       <path id="DejaVuSans-53" d="M 1159 525 
L 1159 -1331 
L 581 -1331 
L 581 3500 
L 1159 3500 
L 1159 2969 
Q 1341 3281 1617 3432 
Q 1894 3584 2278 3584 
Q 2916 3584 3314 3078 
Q 3713 2572 3713 1747 
Q 3713 922 3314 415 
Q 2916 -91 2278 -91 
Q 1894 -91 1617 61 
Q 1341 213 1159 525 
z
M 3116 1747 
Q 3116 2381 2855 2742 
Q 2594 3103 2138 3103 
Q 1681 3103 1420 2742 
Q 1159 2381 1159 1747 
Q 1159 1113 1420 752 
Q 1681 391 2138 391 
Q 2594 391 2855 752 
Q 3116 1113 3116 1747 
z
" transform="scale(0.015625)"/>
       <path id="DejaVuSans-51" d="M 3513 2113 
L 3513 0 
L 2938 0 
L 2938 2094 
Q 2938 2591 2744 2837 
Q 2550 3084 2163 3084 
Q 1697 3084 1428 2787 
Q 1159 2491 1159 1978 
L 1159 0 
L 581 0 
L 581 3500 
L 1159 3500 
L 1159 2956 
Q 1366 3272 1645 3428 
Q 1925 3584 2291 3584 
Q 2894 3584 3203 3211 
Q 3513 2838 3513 2113 
z
" transform="scale(0.015625)"/>
      </defs>
      <use xlink:href="#DejaVuSans-29"/>
      <use xlink:href="#DejaVuSans-55" transform="translate(50.234375 0)"/>
      <use xlink:href="#DejaVuSans-48" transform="translate(89.140625 0)"/>
      <use xlink:href="#DejaVuSans-48" transform="translate(150.671875 0)"/>
      <use xlink:href="#DejaVuSans-3" transform="translate(212.203125 0)"/>
      <use xlink:href="#DejaVuSans-4f" transform="translate(243.984375 0)"/>
      <use xlink:href="#DejaVuSans-44" transform="translate(271.765625 0)"/>
      <use xlink:href="#DejaVuSans-46" transform="translate(333.046875 0)"/>
      <use xlink:href="#DejaVuSans-3" transform="translate(388.03125 0)"/>
      <use xlink:href="#DejaVuSans-52" transform="translate(419.8125 0)"/>
      <use xlink:href="#DejaVuSans-53" transform="translate(481 0)"/>
      <use xlink:href="#DejaVuSans-48" transform="translate(544.484375 0)"/>
      <use xlink:href="#DejaVuSans-55" transform="translate(606.015625 0)"/>
      <use xlink:href="#DejaVuSans-52" transform="translate(644.921875 0)"/>
      <use xlink:href="#DejaVuSans-51" transform="translate(706.109375 0)"/>
     </g>
    </g>
   </g>
   <g id="line2d_39">
    <path d="M 56.88098 215.232297 
L 56.962648 296.443745 
L 57.131253 296.443745 
L 57.301152 215.232297 
L 57.419542 215.232297 
L 57.521866 296.443745 
L 58.740437 296.443745 
L 59.732149 215.232297 
L 59.918843 215.232297 
L 59.941631 296.443745 
L 62.367646 296.443745 
L 64.967062 215.232297 
L 65.262514 215.232297 
L 65.400218 296.443745 
L 65.526328 296.443745 
L 72.201325 215.232297 
L 72.371435 296.443745 
L 80.225813 215.232297 
L 80.274942 296.443745 
L 82.906361 215.232297 
L 83.046615 215.232297 
L 83.100879 296.443745 
L 84.844493 296.443745 
L 84.91005 215.232297 
L 85.787991 215.232297 
L 85.978326 296.443745 
L 87.013111 296.443745 
L 90.011343 215.232297 
L 90.552364 215.232297 
L 90.581698 296.443745 
L 90.940279 296.443745 
L 91.823329 215.232297 
L 91.881885 296.443745 
L 92.226373 296.443745 
L 109.333307 215.232297 
L 109.347035 296.443745 
L 109.605984 296.443745 
L 109.88263 215.232297 
L 110.170523 296.443745 
L 110.298832 215.232297 
L 110.707346 215.232297 
L 110.912311 296.443745 
L 111.2055 296.443745 
L 115.375424 215.232297 
L 116.037282 296.443745 
L 117.682381 215.232297 
L 117.998199 296.443745 
L 118.671877 215.232297 
L 118.759364 296.443745 
L 119.770604 215.232297 
L 119.855672 296.443745 
L 123.805843 296.443745 
L 129.835896 215.232297 
L 129.94204 296.443745 
L 131.687556 215.232297 
L 132.139188 215.232297 
L 132.160668 296.443745 
L 134.004385 296.443745 
L 136.604857 215.232297 
L 136.618189 296.443745 
L 139.504609 215.232297 
L 139.54742 296.443745 
L 146.603825 215.232297 
L 147.549906 215.232297 
L 147.618345 296.443745 
L 148.235918 296.443745 
L 148.481406 215.232297 
L 148.79687 215.232297 
L 148.909826 296.443745 
L 149.982424 296.443745 
L 150.494804 215.232297 
L 150.595744 296.443745 
L 151.718921 296.443745 
L 151.730263 215.232297 
L 151.8921 296.443745 
L 156.208596 215.232297 
L 156.297695 296.443745 
L 156.547476 215.232297 
L 171.037452 215.232297 
L 171.133519 296.443745 
L 171.374181 296.443745 
L 171.480312 215.232297 
L 208.277739 215.232297 
L 208.690087 296.443745 
L 209.190152 296.443745 
L 209.366605 215.232297 
L 209.520062 215.232297 
L 209.692605 296.443745 
L 212.906731 296.443745 
L 214.380221 215.232297 
L 214.478057 296.443745 
L 214.934519 215.232297 
L 215.244334 215.232297 
L 215.414488 296.443745 
L 215.467775 215.232297 
L 215.519473 296.443745 
L 216.790557 296.443745 
L 225.738182 215.232297 
L 225.883768 215.232297 
L 225.888289 296.443745 
L 226.377525 296.443745 
L 237.374018 215.232297 
L 237.512704 296.443745 
L 239.750011 215.232297 
L 240.085748 296.443745 
L 241.304636 215.232297 
L 241.329049 296.443745 
L 241.473272 215.232297 
L 242.808261 215.232297 
L 242.812563 296.443745 
L 242.874878 215.232297 
L 242.930705 215.232297 
L 243.231653 296.443745 
L 243.391621 296.443745 
L 245.511764 215.232297 
L 245.81028 215.232297 
L 245.823129 296.443745 
L 246.707067 296.443745 
L 258.08195 215.232297 
L 258.216987 296.443745 
L 258.472268 215.232297 
L 258.784545 215.232297 
L 258.901535 296.443745 
L 259.876345 296.443745 
L 261.13097 215.232297 
L 261.342587 215.232297 
L 261.43644 296.443745 
L 261.588158 215.232297 
L 261.664837 296.443745 
L 262.290775 215.232297 
L 262.611092 296.443745 
L 268.719121 215.232297 
L 268.960491 296.443745 
L 273.419918 215.232297 
L 273.440436 296.443745 
L 275.321587 215.232297 
L 282.167344 215.232297 
L 282.168838 296.443745 
L 283.106506 296.443745 
L 283.431706 215.232297 
L 291.707929 215.232297 
L 291.792465 296.443745 
L 292.521849 296.443745 
L 292.695309 215.232297 
L 292.728833 296.443745 
L 299.982633 215.232297 
L 300.421959 296.443745 
L 300.528055 215.232297 
L 300.87696 215.232297 
L 300.922409 296.443745 
L 301.343011 215.232297 
L 301.47585 215.232297 
L 301.602225 296.443745 
L 301.792444 296.443745 
L 301.800441 215.232297 
L 301.853041 296.443745 
L 302.258161 296.443745 
L 302.669854 215.232297 
L 302.962287 215.232297 
L 303.057675 296.443745 
L 304.726677 215.232297 
L 304.81024 296.443745 
L 311.748612 215.232297 
L 312.422447 215.232297 
L 312.422447 215.232297 
" clip-path="url(#p2532d8a113)" style="fill: none; stroke: #000000; stroke-width: 1.5; stroke-linecap: square"/>
   </g>
   <g id="patch_13">
    <path d="M 44.103906 300.504317 
L 44.103906 211.171724 
" style="fill: none; stroke: #000000; stroke-width: 0.8; stroke-linejoin: miter; stroke-linecap: square"/>
   </g>
   <g id="patch_14">
    <path d="M 325.19952 300.504317 
L 325.19952 211.171724 
" style="fill: none; stroke: #000000; stroke-width: 0.8; stroke-linejoin: miter; stroke-linecap: square"/>
   </g>
   <g id="patch_15">
    <path d="M 44.103906 300.504317 
L 325.19952 300.504317 
" style="fill: none; stroke: #000000; stroke-width: 0.8; stroke-linejoin: miter; stroke-linecap: square"/>
   </g>
   <g id="patch_16">
    <path d="M 44.103906 211.171724 
L 325.19952 211.171724 
" style="fill: none; stroke: #000000; stroke-width: 0.8; stroke-linejoin: miter; stroke-linecap: square"/>
   </g>
  </g>
 </g>
 <defs>
  <clipPath id="p9ae8b1fa97">
   <rect x="44.103906" y="13.505579" width="281.095614" height="89.332593"/>
  </clipPath>
  <clipPath id="p6e71801dfe">
   <rect x="44.103906" y="112.338651" width="281.095614" height="89.332593"/>
  </clipPath>
  <clipPath id="p2532d8a113">
   <rect x="44.103906" y="211.171724" width="281.095614" height="89.332593"/>
  </clipPath>
 </defs>
</svg>
