<?xml version="1.0" encoding="utf-8" standalone="no"?>
<!DOCTYPE svg PUBLIC "-//W3C//DTD SVG 1.1//EN"
  "http://www.w3.org/Graphics/SVG/1.1/DTD/svg11.dtd">
<svg xmlns:xlink="http://www.w3.org/1999/xlink" width="332.39952pt" height="332.39952pt" viewBox="0 0 332.39952 332.39952" xmlns="http://www.w3.org/2000/svg" version="1.1">
 <metadata>
  <rdf:RDF xmlns:dc="http://purl.org/dc/elements/1.1/" xmlns:cc="http://creativecommons.org/ns#" xmlns:rdf="http://www.w3.org/1999/02/22-rdf-syntax-ns#">
   <cc:Work>
    <dc:type rdf:resource="http://purl.org/dc/dcmitype/StillImage"/>
    <dc:date>2026-06-12T15:27:35.446194</dc:date>
    <dc:format>image/svg+xml</dc:format>
    <dc:creator>
     <cc:Agent>
      <dc:title>Matplotlib v3.11.0, https://matplotlib.org/</dc:title>
     </cc:Agent>
    </dc:creator>
   </cc:Work>
  </rdf:RDF>
 </metadata>
 <defs>
  <style type="text/css">*{stroke-linejoin: round; stroke-linecap: butt}</style>
 </defs>
 <g id="figure_1">
  <g id="patch_1">
   <path d="M 0 332.39952 
L 332.39952 332.39952 
L 332.39952 0 
L 0 0 
z
" style="fill: #ffffff"/>
  </g>
  <g id="axes_1">
   <g id="patch_2">
    <path d="M 44.103906 96.532593 
L 325.19952 96.532593 
L 325.19952 7.2 
L 44.103906 7.2 
z
" style="fill: #ffffff"/>
   </g>
   <g id="matplotlib.axis_1">
    <g id="xtick_1">
     <g id="line2d_1">
      <defs>
       <path id="m2a1aece167" d="M 0 0 
L 0 3.5 
" style="stroke: #000000; stroke-width: 0.8"/>
      </defs>
      <g>
       <use xlink:href="#m2a1aece167" x="56.88098" y="96.532593" style="stroke: #000000; stroke-width: 0.8"/>
      </g>
     </g>
    </g>
    <g id="xtick_2">
     <g id="line2d_2">
      <g>
       <use xlink:href="#m2a1aece167" x="88.819902" y="96.532593" style="stroke: #000000; stroke-width: 0.8"/>
      </g>
     </g>
    </g>
    <g id="xtick_3">
     <g id="line2d_3">
      <g>
       <use xlink:href="#m2a1aece167" x="120.758825" y="96.532593" style="stroke: #000000; stroke-width: 0.8"/>
      </g>
     </g>
    </g>
    <g id="xtick_4">
     <g id="line2d_4">
      <g>
       <use xlink:href="#m2a1aece167" x="152.697748" y="96.532593" style="stroke: #000000; stroke-width: 0.8"/>
      </g>
     </g>
    </g>
    <g id="xtick_5">
     <g id="line2d_5">
      <g>
       <use xlink:href="#m2a1aece167" x="184.63667" y="96.532593" style="stroke: #000000; stroke-width: 0.8"/>
      </g>
     </g>
    </g>
    <g id="xtick_6">
     <g id="line2d_6">
      <g>
       <use xlink:href="#m2a1aece167" x="216.575593" y="96.532593" style="stroke: #000000; stroke-width: 0.8"/>
      </g>
     </g>
    </g>
    <g id="xtick_7">
     <g id="line2d_7">
      <g>
       <use xlink:href="#m2a1aece167" x="248.514515" y="96.532593" style="stroke: #000000; stroke-width: 0.8"/>
      </g>
     </g>
    </g>
    <g id="xtick_8">
     <g id="line2d_8">
      <g>
       <use xlink:href="#m2a1aece167" x="280.453438" y="96.532593" style="stroke: #000000; stroke-width: 0.8"/>
      </g>
     </g>
    </g>
    <g id="xtick_9">
     <g id="line2d_9">
      <g>
       <use xlink:href="#m2a1aece167" x="312.392361" y="96.532593" style="stroke: #000000; stroke-width: 0.8"/>
      </g>
     </g>
    </g>
   </g>
   <g id="matplotlib.axis_2">
    <g id="ytick_1">
     <g id="line2d_10">
      <defs>
       <path id="m12296cef36" d="M 0 0 
L -3.5 0 
" style="stroke: #000000; stroke-width: 0.8"/>
      </defs>
      <g>
       <use xlink:href="#m12296cef36" x="44.103906" y="92.472021" style="stroke: #000000; stroke-width: 0.8"/>
      </g>
     </g>
     <g id="text_1">
      <!-- 0 -->
      <g transform="translate(30.741406 96.270849) scale(0.1 -0.1)">
       <defs>
        <path id="DejaVuSans-13" d="M 2034 4250 
Q 1547 4250 1301 3770 
Q 1056 3291 1056 2328 
Q 1056 1369 1301 889 
Q 1547 409 2034 409 
Q 2525 409 2770 889 
Q 3016 1369 3016 2328 
Q 3016 3291 2770 3770 
Q 2525 4250 2034 4250 
z
M 2034 4750 
Q 2819 4750 3233 4129 
Q 3647 3509 3647 2328 
Q 3647 1150 3233 529 
Q 2819 -91 2034 -91 
Q 1250 -91 836 529 
Q 422 1150 422 2328 
Q 422 3509 836 4129 
Q 1250 4750 2034 4750 
z
" transform="scale(0.015625)"/>
       </defs>
       <use xlink:href="#DejaVuSans-13"/>
      </g>
     </g>
    </g>
    <g id="ytick_2">
     <g id="line2d_11">
      <g>
       <use xlink:href="#m12296cef36" x="44.103906" y="51.866296" style="stroke: #000000; stroke-width: 0.8"/>
      </g>
     </g>
     <g id="text_2">
      <!-- 5 -->
      <g transform="translate(30.741406 55.665125) scale(0.1 -0.1)">
       <defs>
        <path id="DejaVuSans-18" d="M 691 4666 
L 3169 4666 
L 3169 4134 
L 1269 4134 
L 1269 2991 
Q 1406 3038 1543 3061 
Q 1681 3084 1819 3084 
Q 2600 3084 3056 2656 
Q 3513 2228 3513 1497 
Q 3513 744 3044 326 
Q 2575 -91 1722 -91 
Q 1428 -91 1123 -41 
Q 819 9 494 109 
L 494 744 
Q 775 591 1075 516 
Q 1375 441 1709 441 
Q 2250 441 2565 725 
Q 2881 1009 2881 1497 
Q 2881 1984 2565 2268 
Q 2250 2553 1709 2553 
Q 1456 2553 1204 2497 
Q 953 2441 691 2322 
L 691 4666 
z
" transform="scale(0.015625)"/>
       </defs>
       <use xlink:href="#DejaVuSans-18"/>
      </g>
     </g>
    </g>
    <g id="ytick_3">
     <g id="line2d_12">
      <g>
       <use xlink:href="#m12296cef36" x="44.103906" y="11.260572" style="stroke: #000000; stroke-width: 0.8"/>
      </g>
     </g>
     <g id="text_3">
      <!-- 10 -->
      <g transform="translate(24.378906 15.059401) scale(0.1 -0.1)">
       <defs>
        <path id="DejaVuSans-14" d="M 794 531 
L 1825 531 
L 1825 4091 
L 703 3866 
L 703 4441 
L 1819 4666 
L 2450 4666 
L 2450 531 
L 3481 531 
L 3481 0 
L 794 0 
L 794 531 
z
" transform="scale(0.015625)"/>
       </defs>
       <use xlink:href="#DejaVuSans-14"/>
       <use xlink:href="#DejaVuSans-13" transform="translate(63.625 0)"/>
      </g>
     </g>
    </g>
    <g id="text_4">
     <!-- Extracellular lactose -->
     <g transform="translate(17.976563 102.838171) rotate(-90) scale(0.1 -0.1)">
      <defs>
       <path id="DejaVuSans-28" d="M 628 4666 
L 3578 4666 
L 3578 4134 
L 1259 4134 
L 1259 2753 
L 3481 2753 
L 3481 2222 
L 1259 2222 
L 1259 531 
L 3634 531 
L 3634 0 
L 628 0 
L 628 4666 
z
" transform="scale(0.015625)"/>
       <path id="DejaVuSans-5b" d="M 3513 3500 
L 2247 1797 
L 3578 0 
L 2900 0 
L 1881 1375 
L 863 0 
L 184 0 
L 1544 1831 
L 300 3500 
L 978 3500 
L 1906 2253 
L 2834 3500 
L 3513 3500 
z
" transform="scale(0.015625)"/>
       <path id="DejaVuSans-57" d="M 1172 4494 
L 1172 3500 
L 2356 3500 
L 2356 3053 
L 1172 3053 
L 1172 1153 
Q 1172 725 1289 603 
Q 1406 481 1766 481 
L 2356 481 
L 2356 0 
L 1766 0 
Q 1100 0 847 248 
Q 594 497 594 1153 
L 594 3053 
L 172 3053 
L 172 3500 
L 594 3500 
L 594 4494 
L 1172 4494 
z
" transform="scale(0.015625)"/>
       <path id="DejaVuSans-55" d="M 2631 2963 
Q 2534 3019 2420 3045 
Q 2306 3072 2169 3072 
Q 1681 3072 1420 2755 
Q 1159 2438 1159 1844 
L 1159 0 
L 581 0 
L 581 3500 
L 1159 3500 
L 1159 2956 
Q 1341 3275 1631 3429 
Q 1922 3584 2338 3584 
Q 2397 3584 2469 3576 
Q 2541 3569 2628 3553 
L 2631 2963 
z
" transform="scale(0.015625)"/>
       <path id="DejaVuSans-44" d="M 2194 1759 
Q 1497 1759 1228 1600 
Q 959 1441 959 1056 
Q 959 750 1161 570 
Q 1363 391 1709 391 
Q 2188 391 2477 730 
Q 2766 1069 2766 1631 
L 2766 1759 
L 2194 1759 
z
M 3341 1997 
L 3341 0 
L 2766 0 
L 2766 531 
Q 2569 213 2275 61 
Q 1981 -91 1556 -91 
Q 1019 -91 701 211 
Q 384 513 384 1019 
Q 384 1609 779 1909 
Q 1175 2209 1959 2209 
L 2766 2209 
L 2766 2266 
Q 2766 2663 2505 2880 
Q 2244 3097 1772 3097 
Q 1472 3097 1187 3025 
Q 903 2953 641 2809 
L 641 3341 
Q 956 3463 1253 3523 
Q 1550 3584 1831 3584 
Q 2591 3584 2966 3190 
Q 3341 2797 3341 1997 
z
" transform="scale(0.015625)"/>
       <path id="DejaVuSans-46" d="M 3122 3366 
L 3122 2828 
Q 2878 2963 2633 3030 
Q 2388 3097 2138 3097 
Q 1578 3097 1268 2742 
Q 959 2388 959 1747 
Q 959 1106 1268 751 
Q 1578 397 2138 397 
Q 2388 397 2633 464 
Q 2878 531 3122 666 
L 3122 134 
Q 2881 22 2623 -34 
Q 2366 -91 2075 -91 
Q 1284 -91 818 406 
Q 353 903 353 1747 
Q 353 2603 823 3093 
Q 1294 3584 2113 3584 
Q 2378 3584 2631 3529 
Q 2884 3475 3122 3366 
z
" transform="scale(0.015625)"/>
       <path id="DejaVuSans-48" d="M 3597 1894 
L 3597 1613 
L 953 1613 
Q 991 1019 1311 708 
Q 1631 397 2203 397 
Q 2534 397 2845 478 
Q 3156 559 3463 722 
L 3463 178 
Q 3153 47 2828 -22 
Q 2503 -91 2169 -91 
Q 1331 -91 842 396 
Q 353 884 353 1716 
Q 353 2575 817 3079 
Q 1281 3584 2069 3584 
Q 2775 3584 3186 3129 
Q 3597 2675 3597 1894 
z
M 3022 2063 
Q 3016 2534 2758 2815 
Q 2500 3097 2075 3097 
Q 1594 3097 1305 2825 
Q 1016 2553 972 2059 
L 3022 2063 
z
" transform="scale(0.015625)"/>
       <path id="DejaVuSans-4f" d="M 603 4863 
L 1178 4863 
L 1178 0 
L 603 0 
L 603 4863 
z
" transform="scale(0.015625)"/>
       <path id="DejaVuSans-58" d="M 544 1381 
L 544 3500 
L 1119 3500 
L 1119 1403 
Q 1119 906 1312 657 
Q 1506 409 1894 409 
Q 2359 409 2629 706 
Q 2900 1003 2900 1516 
L 2900 3500 
L 3475 3500 
L 3475 0 
L 2900 0 
L 2900 538 
Q 2691 219 2414 64 
Q 2138 -91 1772 -91 
Q 1169 -91 856 284 
Q 544 659 544 1381 
z
M 1991 3584 
L 1991 3584 
z
" transform="scale(0.015625)"/>
       <path id="DejaVuSans-3" transform="scale(0.015625)"/>
       <path id="DejaVuSans-52" d="M 1959 3097 
Q 1497 3097 1228 2736 
Q 959 2375 959 1747 
Q 959 1119 1226 758 
Q 1494 397 1959 397 
Q 2419 397 2687 759 
Q 2956 1122 2956 1747 
Q 2956 2369 2687 2733 
Q 2419 3097 1959 3097 
z
M 1959 3584 
Q 2709 3584 3137 3096 
Q 3566 2609 3566 1747 
Q 3566 888 3137 398 
Q 2709 -91 1959 -91 
Q 1206 -91 779 398 
Q 353 888 353 1747 
Q 353 2609 779 3096 
Q 1206 3584 1959 3584 
z
" transform="scale(0.015625)"/>
       <path id="DejaVuSans-56" d="M 2834 3397 
L 2834 2853 
Q 2591 2978 2328 3040 
Q 2066 3103 1784 3103 
Q 1356 3103 1142 2972 
Q 928 2841 928 2578 
Q 928 2378 1081 2264 
Q 1234 2150 1697 2047 
L 1894 2003 
Q 2506 1872 2764 1633 
Q 3022 1394 3022 966 
Q 3022 478 2636 193 
Q 2250 -91 1575 -91 
Q 1294 -91 989 -36 
Q 684 19 347 128 
L 347 722 
Q 666 556 975 473 
Q 1284 391 1588 391 
Q 1994 391 2212 530 
Q 2431 669 2431 922 
Q 2431 1156 2273 1281 
Q 2116 1406 1581 1522 
L 1381 1569 
Q 847 1681 609 1914 
Q 372 2147 372 2553 
Q 372 3047 722 3315 
Q 1072 3584 1716 3584 
Q 2034 3584 2315 3537 
Q 2597 3491 2834 3397 
z
" transform="scale(0.015625)"/>
      </defs>
      <use xlink:href="#DejaVuSans-28"/>
      <use xlink:href="#DejaVuSans-5b" transform="translate(63.1875 0)"/>
      <use xlink:href="#DejaVuSans-57" transform="translate(122.375 0)"/>
      <use xlink:href="#DejaVuSans-55" transform="translate(161.578125 0)"/>
      <use xlink:href="#DejaVuSans-44" transform="translate(202.6875 0)"/>
      <use xlink:href="#DejaVuSans-46" transform="translate(263.96875 0)"/>
      <use xlink:href="#DejaVuSans-48" transform="translate(318.953125 0)"/>
      <use xlink:href="#DejaVuSans-4f" transform="translate(380.484375 0)"/>
      <use xlink:href="#DejaVuSans-4f" transform="translate(408.265625 0)"/>
      <use xlink:href="#DejaVuSans-58" transform="translate(436.046875 0)"/>
      <use xlink:href="#DejaVuSans-4f" transform="translate(499.421875 0)"/>
      <use xlink:href="#DejaVuSans-44" transform="translate(527.203125 0)"/>
      <use xlink:href="#DejaVuSans-55" transform="translate(588.484375 0)"/>
      <use xlink:href="#DejaVuSans-3" transform="translate(629.59375 0)"/>
      <use xlink:href="#DejaVuSans-4f" transform="translate(661.375 0)"/>
      <use xlink:href="#DejaVuSans-44" transform="translate(689.15625 0)"/>
      <use xlink:href="#DejaVuSans-46" transform="translate(750.4375 0)"/>
      <use xlink:href="#DejaVuSans-57" transform="translate(805.421875 0)"/>
      <use xlink:href="#DejaVuSans-52" transform="translate(844.625 0)"/>
      <use xlink:href="#DejaVuSans-56" transform="translate(905.8125 0)"/>
      <use xlink:href="#DejaVuSans-48" transform="translate(957.90625 0)"/>
     </g>
    </g>
   </g>
   <g id="line2d_13">
    <path d="M 56.88098 92.472021 
L 156.233179 92.472021 
L 156.3223 11.260572 
L 156.990461 11.341784 
L 157.108179 11.66663 
L 157.153005 11.747841 
L 157.299236 13.209647 
L 157.417608 14.833876 
L 157.43144 14.915088 
L 157.57499 16.620528 
L 157.598545 16.701739 
L 158.108255 20.193832 
L 158.385556 20.599889 
L 158.444864 20.6811 
L 158.554068 20.762312 
L 159.004778 20.843523 
L 159.101663 21.249581 
L 159.342523 21.655638 
L 159.44301 22.061695 
L 159.563603 22.142906 
L 159.666374 22.630175 
L 159.696376 22.711387 
L 159.805374 23.604713 
L 159.902628 24.498038 
L 160.241799 25.878633 
L 160.287797 25.959845 
L 160.524016 27.340439 
L 160.722556 28.802245 
L 160.741381 28.883457 
L 161.020932 31.238589 
L 161.048463 31.3198 
L 161.161126 32.050703 
L 161.263986 32.131915 
L 161.375486 32.619183 
L 161.42571 32.700395 
L 161.543323 33.512509 
L 161.570201 33.593721 
L 161.68043 34.080989 
L 161.769111 34.162201 
L 161.974794 35.136738 
L 162.039928 35.21795 
L 162.238388 35.948853 
L 162.810874 36.030064 
L 162.95496 36.517333 
L 162.978725 36.598544 
L 163.147763 37.004601 
L 163.359814 37.085813 
L 163.504388 37.654293 
L 163.659593 37.979139 
L 163.703264 38.06035 
L 163.809297 38.222773 
L 163.947403 38.303985 
L 164.243496 38.953676 
L 164.44081 39.197311 
L 164.528649 39.359733 
L 165.001225 39.440945 
L 165.219256 40.253059 
L 165.370488 40.82154 
L 165.497116 40.902751 
L 165.638745 41.065174 
L 165.699104 41.146385 
L 165.784194 41.227597 
L 165.865639 41.308808 
L 166.008778 41.877288 
L 166.077371 41.9585 
L 166.221973 42.364557 
L 166.295197 42.445768 
L 166.345126 42.52698 
L 166.575289 42.608191 
L 166.687286 43.014249 
L 166.833377 43.420306 
L 166.917113 43.501517 
L 167.035944 43.907575 
L 167.256792 44.23242 
L 167.334024 44.313632 
L 167.645688 46.181495 
L 167.675588 46.262707 
L 167.789054 46.749975 
L 167.816282 46.831187 
L 168.157091 48.13057 
L 168.180406 48.211781 
L 168.325827 48.617839 
L 168.390823 48.69905 
L 168.53163 49.673587 
L 168.576538 49.754799 
L 168.696476 50.242067 
L 168.79241 50.323279 
L 168.930937 50.566913 
L 168.988879 50.648125 
L 169.094883 50.729336 
L 169.168047 50.810548 
L 169.261249 50.891759 
L 169.423976 51.135393 
L 169.660399 51.297816 
L 169.990045 51.379028 
L 170.208552 51.866296 
L 170.332072 52.191142 
L 170.351267 52.272354 
L 170.56401 53.409314 
L 170.596769 53.490525 
L 170.697163 54.059006 
L 170.752404 54.140217 
L 170.891032 54.627486 
L 170.950107 54.708697 
L 171.139553 56.332926 
L 171.165544 56.414138 
L 171.314911 58.119578 
L 172.169357 62.504996 
L 172.319069 62.586208 
L 172.402183 62.667419 
L 172.881457 63.073476 
L 173.014785 63.154688 
L 173.147654 63.641956 
L 173.296351 63.723168 
L 173.434684 64.048014 
L 174.012061 66.403146 
L 174.115024 67.052837 
L 174.284291 67.458894 
L 174.402504 67.540106 
L 174.669623 68.027375 
L 174.752539 68.108586 
L 174.932776 68.514643 
L 175.025101 68.595855 
L 175.31576 69.245546 
L 175.430463 69.732815 
L 175.446747 69.814026 
L 175.608984 70.707352 
L 175.651453 70.788564 
L 176.022765 72.81885 
L 176.060013 72.900062 
L 176.193034 73.062484 
L 176.591687 73.143696 
L 176.764433 73.306119 
L 177.024842 73.38733 
L 177.18095 74.037022 
L 177.218831 74.118233 
L 177.359119 74.443079 
L 177.430454 74.52429 
L 177.531818 74.849136 
L 177.742004 74.930348 
L 177.88023 75.011559 
L 177.995831 75.173982 
L 179.903119 75.255194 
L 179.992903 75.417616 
L 180.221221 75.498828 
L 180.32142 75.580039 
L 180.459125 75.661251 
L 180.902515 76.473365 
L 180.961387 76.554577 
L 181.075976 76.717 
L 181.292384 76.798211 
L 181.466767 77.204268 
L 181.605525 77.28548 
L 181.855985 77.529114 
L 181.979809 77.610326 
L 182.428429 78.178806 
L 182.526706 78.828497 
L 182.594697 78.909709 
L 182.709272 79.072132 
L 182.888188 79.153343 
L 183.069551 79.5594 
L 183.195408 79.640612 
L 183.294757 79.803035 
L 183.383994 79.884246 
L 183.582532 80.12788 
L 183.648138 80.209092 
L 183.838863 80.371515 
L 183.999363 80.452726 
L 184.180273 80.696361 
L 184.240118 80.777572 
L 184.921184 81.914532 
L 185.025188 81.995744 
L 185.124683 82.158167 
L 185.474174 82.239378 
L 185.784851 82.726647 
L 185.870344 82.970281 
L 186.117623 83.295127 
L 186.168423 83.376338 
L 186.330973 83.701184 
L 186.405281 83.782396 
L 186.506401 84.02603 
L 186.617877 84.107241 
L 186.734612 84.188453 
L 186.801481 84.269664 
L 186.916641 84.513299 
L 187.03421 84.59451 
L 187.365657 84.675721 
L 187.511477 84.838144 
L 187.819835 84.919356 
L 187.932253 85.000567 
L 188.536006 85.081779 
L 188.666467 85.16299 
L 188.80988 85.244202 
L 189.211371 85.487836 
L 189.471704 85.569047 
L 189.558532 85.73147 
L 189.768017 85.812682 
L 189.875358 86.137528 
L 190.006608 86.218739 
L 190.208442 86.29995 
L 190.353277 86.381162 
L 190.504585 86.624796 
L 190.801184 86.706008 
L 191.979732 87.112065 
L 192.157799 87.193276 
L 192.820944 87.274488 
L 192.934568 87.436911 
L 193.4336 87.518122 
L 193.569475 87.680545 
L 193.632365 87.761757 
L 193.7579 87.842968 
L 194.017732 88.167814 
L 194.155849 88.249025 
L 194.266426 88.411448 
L 194.759661 88.49266 
L 194.881458 88.573871 
L 195.198313 88.655082 
L 195.356518 88.736294 
L 195.912069 88.817505 
L 195.926496 88.898717 
L 196.837054 88.979928 
L 196.957872 89.06114 
L 197.162565 89.142351 
L 197.274224 89.223563 
L 198.135237 89.304774 
L 198.233814 89.385985 
L 216.339223 89.467197 
L 217.137173 89.548408 
L 233.623663 89.62962 
L 233.672845 89.710831 
L 244.310118 89.792043 
L 245.140299 89.873254 
L 245.873948 89.954466 
L 251.141194 90.116889 
L 281.452351 90.1981 
L 282.336508 90.279311 
L 311.802684 90.360523 
L 311.947751 90.441734 
L 312.422447 90.441734 
L 312.422447 90.441734 
" clip-path="url(#p61cd407b67)" style="fill: none; stroke: #000000; stroke-width: 1.5; stroke-linecap: square"/>
   </g>
   <g id="patch_3">
    <path d="M 44.103906 96.532593 
L 44.103906 7.2 
" style="fill: none; stroke: #000000; stroke-width: 0.8; stroke-linejoin: miter; stroke-linecap: square"/>
   </g>
   <g id="patch_4">
    <path d="M 325.19952 96.532593 
L 325.19952 7.2 
" style="fill: none; stroke: #000000; stroke-width: 0.8; stroke-linejoin: miter; stroke-linecap: square"/>
   </g>
   <g id="patch_5">
    <path d="M 44.103906 96.532593 
L 325.19952 96.532593 
" style="fill: none; stroke: #000000; stroke-width: 0.8; stroke-linejoin: miter; stroke-linecap: square"/>
   </g>
   <g id="patch_6">
    <path d="M 44.103906 7.2 
L 325.19952 7.2 
" style="fill: none; stroke: #000000; stroke-width: 0.8; stroke-linejoin: miter; stroke-linecap: square"/>
   </g>
  </g>
  <g id="axes_2">
   <g id="patch_7">
    <path d="M 44.103906 195.365666 
L 325.19952 195.365666 
L 325.19952 106.033073 
L 44.103906 106.033073 
z
" style="fill: #ffffff"/>
   </g>
   <g id="matplotlib.axis_3">
    <g id="xtick_10">
     <g id="line2d_14">
      <g>
       <use xlink:href="#m2a1aece167" x="56.88098" y="195.365666" style="stroke: #000000; stroke-width: 0.8"/>
      </g>
     </g>
    </g>
    <g id="xtick_11">
     <g id="line2d_15">
      <g>
       <use xlink:href="#m2a1aece167" x="88.819902" y="195.365666" style="stroke: #000000; stroke-width: 0.8"/>
      </g>
     </g>
    </g>
    <g id="xtick_12">
     <g id="line2d_16">
      <g>
       <use xlink:href="#m2a1aece167" x="120.758825" y="195.365666" style="stroke: #000000; stroke-width: 0.8"/>
      </g>
     </g>
    </g>
    <g id="xtick_13">
     <g id="line2d_17">
      <g>
       <use xlink:href="#m2a1aece167" x="152.697748" y="195.365666" style="stroke: #000000; stroke-width: 0.8"/>
      </g>
     </g>
    </g>
    <g id="xtick_14">
     <g id="line2d_18">
      <g>
       <use xlink:href="#m2a1aece167" x="184.63667" y="195.365666" style="stroke: #000000; stroke-width: 0.8"/>
      </g>
     </g>
    </g>
    <g id="xtick_15">
     <g id="line2d_19">
      <g>
       <use xlink:href="#m2a1aece167" x="216.575593" y="195.365666" style="stroke: #000000; stroke-width: 0.8"/>
      </g>
     </g>
    </g>
    <g id="xtick_16">
     <g id="line2d_20">
      <g>
       <use xlink:href="#m2a1aece167" x="248.514515" y="195.365666" style="stroke: #000000; stroke-width: 0.8"/>
      </g>
     </g>
    </g>
    <g id="xtick_17">
     <g id="line2d_21">
      <g>
       <use xlink:href="#m2a1aece167" x="280.453438" y="195.365666" style="stroke: #000000; stroke-width: 0.8"/>
      </g>
     </g>
    </g>
    <g id="xtick_18">
     <g id="line2d_22">
      <g>
       <use xlink:href="#m2a1aece167" x="312.392361" y="195.365666" style="stroke: #000000; stroke-width: 0.8"/>
      </g>
     </g>
    </g>
   </g>
   <g id="matplotlib.axis_4">
    <g id="ytick_4">
     <g id="line2d_23">
      <g>
       <use xlink:href="#m12296cef36" x="44.103906" y="191.305093" style="stroke: #000000; stroke-width: 0.8"/>
      </g>
     </g>
     <g id="text_5">
      <!-- 0 -->
      <g transform="translate(30.741406 195.103922) scale(0.1 -0.1)">
       <use xlink:href="#DejaVuSans-13"/>
      </g>
     </g>
    </g>
    <g id="ytick_5">
     <g id="line2d_24">
      <g>
       <use xlink:href="#m12296cef36" x="44.103906" y="150.699369" style="stroke: #000000; stroke-width: 0.8"/>
      </g>
     </g>
     <g id="text_6">
      <!-- 5 -->
      <g transform="translate(30.741406 154.498197) scale(0.1 -0.1)">
       <use xlink:href="#DejaVuSans-18"/>
      </g>
     </g>
    </g>
    <g id="ytick_6">
     <g id="line2d_25">
      <g>
       <use xlink:href="#m12296cef36" x="44.103906" y="110.093645" style="stroke: #000000; stroke-width: 0.8"/>
      </g>
     </g>
     <g id="text_7">
      <!-- 10 -->
      <g transform="translate(24.378906 113.892473) scale(0.1 -0.1)">
       <use xlink:href="#DejaVuSans-14"/>
       <use xlink:href="#DejaVuSans-13" transform="translate(63.625 0)"/>
      </g>
     </g>
    </g>
    <g id="text_8">
     <!-- LacY -->
     <g transform="translate(17.976563 162.352494) rotate(-90) scale(0.1 -0.1)">
      <defs>
       <path id="DejaVuSans-2f" d="M 628 4666 
L 1259 4666 
L 1259 531 
L 3531 531 
L 3531 0 
L 628 0 
L 628 4666 
z
" transform="scale(0.015625)"/>
       <path id="DejaVuSans-3c" d="M -13 4666 
L 666 4666 
L 1959 2747 
L 3244 4666 
L 3922 4666 
L 2272 2222 
L 2272 0 
L 1638 0 
L 1638 2222 
L -13 4666 
z
" transform="scale(0.015625)"/>
      </defs>
      <use xlink:href="#DejaVuSans-2f"/>
      <use xlink:href="#DejaVuSans-44" transform="translate(55.71875 0)"/>
      <use xlink:href="#DejaVuSans-46" transform="translate(117 0)"/>
      <use xlink:href="#DejaVuSans-3c" transform="translate(171.984375 0)"/>
     </g>
    </g>
   </g>
   <g id="line2d_26">
    <path d="M 56.88098 110.093645 
L 56.908129 110.093645 
L 56.962668 118.21479 
L 57.070923 134.45708 
L 57.131315 142.578225 
L 57.283545 142.578225 
L 57.301256 134.45708 
L 57.522025 142.578225 
L 57.664006 142.578225 
L 57.834796 158.820514 
L 58.135943 175.062804 
L 58.201616 191.305093 
L 59.732854 191.305093 
L 59.899611 183.183949 
L 59.942388 191.305093 
L 64.969063 191.305093 
L 65.292282 183.183949 
L 65.402326 191.305093 
L 82.912802 191.305093 
L 83.107369 183.183949 
L 84.902149 191.305093 
L 84.916987 183.183949 
L 85.06031 175.062804 
L 85.064969 166.941659 
L 85.387394 175.062804 
L 85.614543 175.062804 
L 85.734275 191.305093 
L 85.795145 183.183949 
L 85.985527 183.183949 
L 86.124126 191.305093 
L 90.019543 191.305093 
L 90.409661 175.062804 
L 90.410963 166.941659 
L 90.910008 166.941659 
L 90.948709 183.183949 
L 91.721485 183.183949 
L 91.890548 175.062804 
L 92.235121 191.305093 
L 109.254236 191.305093 
L 109.36002 183.183949 
L 109.479825 183.183949 
L 109.619033 191.305093 
L 109.854228 191.305093 
L 109.895748 183.183949 
L 110.312053 183.183949 
L 110.662271 175.062804 
L 110.720667 183.183949 
L 110.89608 183.183949 
L 110.925684 191.305093 
L 119.69268 191.305093 
L 119.871258 183.183949 
L 121.973331 183.183949 
L 123.822406 191.305093 
L 131.597187 191.305093 
L 131.783616 183.183949 
L 132.071429 183.183949 
L 132.179299 191.305093 
L 136.5189 191.305093 
L 136.602703 183.183949 
L 136.624588 191.305093 
L 146.626031 191.305093 
L 146.887105 175.062804 
L 146.907955 183.183949 
L 146.936988 175.062804 
L 147.050199 166.941659 
L 147.055544 175.062804 
L 147.640802 175.062804 
L 148.258527 183.183949 
L 148.504077 183.183949 
L 148.819619 175.062804 
L 148.932603 175.062804 
L 150.005466 191.305093 
L 150.466046 191.305093 
L 150.517973 175.062804 
L 150.618938 175.062804 
L 150.771906 183.183949 
L 150.905744 183.183949 
L 151.449135 191.305093 
L 156.572143 191.305093 
L 157.000808 183.183949 
L 157.241315 150.699369 
L 157.523206 150.699369 
L 157.643421 166.941659 
L 157.693334 166.941659 
L 157.794324 158.820514 
L 157.88138 158.820514 
L 157.991286 175.062804 
L 158.019511 175.062804 
L 158.108255 183.183949 
L 158.460347 183.183949 
L 158.554068 191.305093 
L 158.954119 191.305093 
L 159.055569 183.183949 
L 159.2219 183.183949 
L 159.326103 175.062804 
L 159.472216 175.062804 
L 159.527747 183.183949 
L 159.582291 175.062804 
L 159.688605 175.062804 
L 159.792983 166.941659 
L 159.95317 166.941659 
L 160.0782 183.183949 
L 160.212525 183.183949 
L 160.335718 175.062804 
L 160.484957 175.062804 
L 160.613058 158.820514 
L 160.790353 158.820514 
L 160.859152 150.699369 
L 160.898322 158.820514 
L 160.985842 158.820514 
L 161.036444 150.699369 
L 161.089104 158.820514 
L 161.257931 158.820514 
L 161.367138 175.062804 
L 161.396113 175.062804 
L 161.426668 183.183949 
L 161.435056 166.941659 
L 161.503127 166.941659 
L 161.738444 166.941659 
L 161.850611 175.062804 
L 162.138198 175.062804 
L 162.238388 183.183949 
L 162.33835 183.183949 
L 162.449182 191.305093 
L 162.722541 191.305093 
L 162.871503 183.183949 
L 162.995175 183.183949 
L 163.110512 175.062804 
L 163.147763 175.062804 
L 163.25701 183.183949 
L 163.500794 183.183949 
L 163.553864 175.062804 
L 163.607084 183.183949 
L 163.738768 183.183949 
L 163.765574 175.062804 
L 163.809297 183.183949 
L 163.920496 183.183949 
L 164.014883 166.941659 
L 164.035182 175.062804 
L 164.049297 175.062804 
L 164.15897 183.183949 
L 164.414617 183.183949 
L 164.470197 175.062804 
L 164.49914 191.305093 
L 164.506921 191.305093 
L 164.69616 191.305093 
L 165.001225 183.183949 
L 165.053616 183.183949 
L 165.203705 166.941659 
L 165.219256 175.062804 
L 165.331928 175.062804 
L 165.391268 183.183949 
L 165.413827 175.062804 
L 165.650313 175.062804 
L 165.717061 183.183949 
L 165.842946 183.183949 
L 165.907589 175.062804 
L 165.946976 183.183949 
L 166.603518 183.183949 
L 166.716665 175.062804 
L 167.005756 175.062804 
L 167.137352 183.183949 
L 167.256792 183.183949 
L 167.519662 158.820514 
L 167.630903 166.941659 
L 167.649257 166.941659 
L 167.703137 175.062804 
L 167.759684 166.941659 
L 167.789054 166.941659 
L 167.888576 175.062804 
L 168.405703 175.062804 
L 168.510033 166.941659 
L 168.620136 175.062804 
L 168.940775 175.062804 
L 169.013898 183.183949 
L 169.045329 175.062804 
L 169.240402 175.062804 
L 169.350895 183.183949 
L 169.495886 183.183949 
L 169.603906 191.305093 
L 169.858996 191.305093 
L 170.044778 183.183949 
L 170.192652 183.183949 
L 170.310002 166.941659 
L 170.332072 166.941659 
L 170.450926 158.820514 
L 170.720016 158.820514 
L 170.759909 150.699369 
L 170.827933 158.820514 
L 170.881128 158.820514 
L 171.021453 134.45708 
L 171.136002 142.578225 
L 171.420985 142.578225 
L 171.515399 134.45708 
L 171.527038 142.578225 
L 171.554809 142.578225 
L 171.590172 134.45708 
L 171.652547 150.699369 
L 171.660255 150.699369 
L 171.695539 150.699369 
L 171.711752 158.820514 
L 171.804578 150.699369 
L 171.83811 142.578225 
L 171.906348 150.699369 
L 171.948587 150.699369 
L 172.03815 166.941659 
L 172.12739 166.941659 
L 172.245939 183.183949 
L 173.004203 183.183949 
L 173.119862 175.062804 
L 173.147654 175.062804 
L 173.304049 166.941659 
L 173.500332 166.941659 
L 173.59766 150.699369 
L 173.618179 158.820514 
L 173.761132 158.820514 
L 173.762453 150.699369 
L 173.870872 158.820514 
L 173.936101 158.820514 
L 174.042246 150.699369 
L 174.177627 150.699369 
L 174.284291 166.941659 
L 174.343002 166.941659 
L 174.395268 158.820514 
L 174.429276 166.941659 
L 174.521117 166.941659 
L 174.627198 175.062804 
L 175.075079 175.062804 
L 175.12831 183.183949 
L 175.158907 175.062804 
L 175.287886 158.820514 
L 175.420088 158.820514 
L 175.472049 150.699369 
L 175.521338 158.820514 
L 175.57804 158.820514 
L 175.695993 150.699369 
L 175.794526 150.699369 
L 175.802635 142.578225 
L 175.90133 150.699369 
L 176.039159 150.699369 
L 176.144894 175.062804 
L 176.171696 175.062804 
L 176.274601 183.183949 
L 176.308509 183.183949 
L 176.330387 175.062804 
L 176.417955 183.183949 
L 176.443132 183.183949 
L 176.663524 175.062804 
L 176.764433 183.183949 
L 177.008699 183.183949 
L 177.142944 166.941659 
L 177.250296 166.941659 
L 177.315123 175.062804 
L 177.359119 166.941659 
L 177.465659 166.941659 
L 177.531818 175.062804 
L 177.765375 175.062804 
L 177.88023 183.183949 
L 177.995831 183.183949 
L 178.252685 191.305093 
L 179.135163 191.305093 
L 179.164272 183.183949 
L 179.310276 183.183949 
L 179.312548 191.305093 
L 179.577149 191.305093 
L 179.737698 175.062804 
L 179.785454 175.062804 
L 179.806009 183.183949 
L 179.880254 175.062804 
L 179.965657 175.062804 
L 179.967431 166.941659 
L 179.992903 183.183949 
L 180.160417 183.183949 
L 180.258514 175.062804 
L 180.301367 183.183949 
L 180.365227 175.062804 
L 180.902515 175.062804 
L 181.008321 166.941659 
L 181.156866 166.941659 
L 181.167416 158.820514 
L 181.390773 158.820514 
L 181.491795 150.699369 
L 181.605525 166.941659 
L 181.836944 166.941659 
L 181.961076 175.062804 
L 182.063121 166.941659 
L 182.207132 166.941659 
L 182.304315 175.062804 
L 182.526706 142.578225 
L 182.563061 142.578225 
L 182.709272 166.941659 
L 182.732441 166.941659 
L 182.888188 142.578225 
L 182.902134 142.578225 
L 183.019186 158.820514 
L 183.294757 158.820514 
L 183.336904 166.941659 
L 183.383994 158.820514 
L 183.573394 158.820514 
L 183.648138 166.941659 
L 183.705421 166.941659 
L 183.827384 158.820514 
L 183.922402 158.820514 
L 184.021753 142.578225 
L 184.197068 158.820514 
L 184.441927 158.820514 
L 184.581926 142.578225 
L 184.609598 142.578225 
L 184.728865 158.820514 
L 184.818984 158.820514 
L 184.921184 166.941659 
L 185.112799 166.941659 
L 185.23669 150.699369 
L 185.3989 150.699369 
L 185.540074 142.578225 
L 185.599269 142.578225 
L 185.668249 150.699369 
L 185.70136 142.578225 
L 185.844749 142.578225 
L 185.960776 150.699369 
L 186.081525 150.699369 
L 186.194391 158.820514 
L 186.289037 150.699369 
L 186.42991 134.45708 
L 186.442012 134.45708 
L 186.532525 142.578225 
L 186.594289 142.578225 
L 186.677874 158.820514 
L 186.834611 150.699369 
L 186.916641 175.062804 
L 187.207294 175.062804 
L 187.310534 166.941659 
L 187.389295 175.062804 
L 187.743496 175.062804 
L 187.799705 166.941659 
L 187.819835 183.183949 
L 187.838533 183.183949 
L 187.930774 175.062804 
L 187.932253 183.183949 
L 188.115551 183.183949 
L 188.193571 175.062804 
L 188.341161 166.941659 
L 188.425269 175.062804 
L 188.615008 158.820514 
L 188.658747 150.699369 
L 188.706303 158.820514 
L 188.976705 158.820514 
L 189.087687 183.183949 
L 189.211371 166.941659 
L 189.246289 166.941659 
L 189.444492 175.062804 
L 189.558532 142.578225 
L 189.648485 142.578225 
L 189.707014 158.820514 
L 189.770643 150.699369 
L 190.070605 150.699369 
L 190.104399 142.578225 
L 190.216324 158.820514 
L 190.305943 150.699369 
L 190.43743 150.699369 
L 190.553871 166.941659 
L 190.661553 166.941659 
L 190.801184 175.062804 
L 191.143632 175.062804 
L 191.239189 183.183949 
L 191.362518 183.183949 
L 191.644194 166.941659 
L 191.700596 166.941659 
L 191.784807 175.062804 
L 191.979732 158.820514 
L 192.048547 158.820514 
L 192.157799 183.183949 
L 192.326995 183.183949 
L 192.436861 175.062804 
L 192.539248 191.305093 
L 192.563236 183.183949 
L 192.91387 183.183949 
L 192.922697 191.305093 
L 193.019321 183.183949 
L 193.093138 183.183949 
L 193.106061 166.941659 
L 193.366563 166.941659 
L 193.4336 158.820514 
L 193.575743 158.820514 
L 193.632365 142.578225 
L 193.79335 142.578225 
L 193.833301 150.699369 
L 193.901748 142.578225 
L 193.961622 142.578225 
L 194.077195 166.941659 
L 194.099901 166.941659 
L 194.198491 175.062804 
L 194.266426 175.062804 
L 194.30883 166.941659 
L 194.391357 175.062804 
L 194.595905 175.062804 
L 194.753401 166.941659 
L 194.858335 175.062804 
L 194.918661 175.062804 
L 194.975839 166.941659 
L 195.249958 158.820514 
L 195.303099 158.820514 
L 195.356518 142.578225 
L 195.386141 150.699369 
L 195.515043 150.699369 
L 195.640148 166.941659 
L 195.842712 150.699369 
L 195.926496 158.820514 
L 196.082012 158.820514 
L 196.180049 166.941659 
L 196.656064 166.941659 
L 196.759525 175.062804 
L 196.882358 175.062804 
L 196.901886 166.941659 
L 196.957872 175.062804 
L 197.102525 158.820514 
L 197.131177 166.941659 
L 197.289303 183.183949 
L 197.817198 183.183949 
L 197.976783 175.062804 
L 198.143754 175.062804 
L 198.357084 191.305093 
L 206.978406 191.305093 
L 207.316249 183.183949 
L 207.358864 191.305093 
L 215.274245 191.305093 
L 215.725805 183.183949 
L 216.679493 183.183949 
L 216.918631 191.305093 
L 225.29686 191.305093 
L 225.684306 183.183949 
L 227.063493 183.183949 
L 227.150738 191.305093 
L 232.998817 191.305093 
L 233.190279 183.183949 
L 233.231622 175.062804 
L 233.404567 183.183949 
L 233.864932 183.183949 
L 233.985146 191.305093 
L 242.825624 191.305093 
L 242.873855 183.183949 
L 243.042002 191.305093 
L 243.087039 183.183949 
L 243.364803 183.183949 
L 243.393495 191.305093 
L 243.897669 183.183949 
L 244.914913 183.183949 
L 244.966869 191.305093 
L 244.986804 183.183949 
L 245.041755 183.183949 
L 245.110231 175.062804 
L 245.140299 183.183949 
L 248.182758 183.183949 
L 248.527806 191.305093 
L 250.556096 191.305093 
L 250.744693 183.183949 
L 250.865988 191.305093 
L 261.362433 191.305093 
L 261.512577 183.183949 
L 261.734698 191.305093 
L 277.101417 191.305093 
L 277.429306 183.183949 
L 277.563044 183.183949 
L 277.601116 191.305093 
L 277.782416 183.183949 
L 278.313663 183.183949 
L 278.479659 175.062804 
L 278.559211 183.183949 
L 278.860233 183.183949 
L 279.020241 191.305093 
L 281.140909 191.305093 
L 281.452351 183.183949 
L 282.01304 183.183949 
L 282.336508 191.305093 
L 294.10462 191.305093 
L 294.285046 183.183949 
L 294.367916 166.941659 
L 294.533994 166.941659 
L 294.652251 175.062804 
L 295.509045 191.305093 
L 296.76398 191.305093 
L 297.069526 183.183949 
L 297.212824 183.183949 
L 297.29798 191.305093 
L 310.885083 191.305093 
L 311.120596 166.941659 
L 311.339353 191.305093 
L 311.474148 175.062804 
L 311.50714 183.183949 
L 311.594062 183.183949 
L 311.663254 175.062804 
L 311.912951 191.305093 
L 312.070904 166.941659 
L 312.085737 175.062804 
L 312.148685 175.062804 
L 312.223031 166.941659 
L 312.422447 166.941659 
L 312.422447 166.941659 
" clip-path="url(#p2462b2642e)" style="fill: none; stroke: #000000; stroke-width: 1.5; stroke-linecap: square"/>
   </g>
   <g id="patch_8">
    <path d="M 44.103906 195.365666 
L 44.103906 106.033073 
" style="fill: none; stroke: #000000; stroke-width: 0.8; stroke-linejoin: miter; stroke-linecap: square"/>
   </g>
   <g id="patch_9">
    <path d="M 325.19952 195.365666 
L 325.19952 106.033073 
" style="fill: none; stroke: #000000; stroke-width: 0.8; stroke-linejoin: miter; stroke-linecap: square"/>
   </g>
   <g id="patch_10">
    <path d="M 44.103906 195.365666 
L 325.19952 195.365666 
" style="fill: none; stroke: #000000; stroke-width: 0.8; stroke-linejoin: miter; stroke-linecap: square"/>
   </g>
   <g id="patch_11">
    <path d="M 44.103906 106.033073 
L 325.19952 106.033073 
" style="fill: none; stroke: #000000; stroke-width: 0.8; stroke-linejoin: miter; stroke-linecap: square"/>
   </g>
  </g>
  <g id="axes_3">
   <g id="patch_12">
    <path d="M 44.103906 294.198739 
L 325.19952 294.198739 
L 325.19952 204.866146 
L 44.103906 204.866146 
z
" style="fill: #ffffff"/>
   </g>
   <g id="matplotlib.axis_5">
    <g id="xtick_19">
     <g id="line2d_27">
      <g>
       <use xlink:href="#m2a1aece167" x="56.88098" y="294.198739" style="stroke: #000000; stroke-width: 0.8"/>
      </g>
     </g>
     <g id="text_9">
      <!-- 0 -->
      <g transform="translate(53.69973 308.796395) scale(0.1 -0.1)">
       <use xlink:href="#DejaVuSans-13"/>
      </g>
     </g>
    </g>
    <g id="xtick_20">
     <g id="line2d_28">
      <g>
       <use xlink:href="#m2a1aece167" x="88.819902" y="294.198739" style="stroke: #000000; stroke-width: 0.8"/>
      </g>
     </g>
     <g id="text_10">
      <!-- 100 -->
      <g transform="translate(79.276152 308.796395) scale(0.1 -0.1)">
       <use xlink:href="#DejaVuSans-14"/>
       <use xlink:href="#DejaVuSans-13" transform="translate(63.625 0)"/>
       <use xlink:href="#DejaVuSans-13" transform="translate(127.25 0)"/>
      </g>
     </g>
    </g>
    <g id="xtick_21">
     <g id="line2d_29">
      <g>
       <use xlink:href="#m2a1aece167" x="120.758825" y="294.198739" style="stroke: #000000; stroke-width: 0.8"/>
      </g>
     </g>
     <g id="text_11">
      <!-- 200 -->
      <g transform="translate(111.215075 308.796395) scale(0.1 -0.1)">
       <defs>
        <path id="DejaVuSans-15" d="M 1228 531 
L 3431 531 
L 3431 0 
L 469 0 
L 469 531 
Q 828 903 1448 1529 
Q 2069 2156 2228 2338 
Q 2531 2678 2651 2914 
Q 2772 3150 2772 3378 
Q 2772 3750 2511 3984 
Q 2250 4219 1831 4219 
Q 1534 4219 1204 4116 
Q 875 4013 500 3803 
L 500 4441 
Q 881 4594 1212 4672 
Q 1544 4750 1819 4750 
Q 2544 4750 2975 4387 
Q 3406 4025 3406 3419 
Q 3406 3131 3298 2873 
Q 3191 2616 2906 2266 
Q 2828 2175 2409 1742 
Q 1991 1309 1228 531 
z
" transform="scale(0.015625)"/>
       </defs>
       <use xlink:href="#DejaVuSans-15"/>
       <use xlink:href="#DejaVuSans-13" transform="translate(63.625 0)"/>
       <use xlink:href="#DejaVuSans-13" transform="translate(127.25 0)"/>
      </g>
     </g>
    </g>
    <g id="xtick_22">
     <g id="line2d_30">
      <g>
       <use xlink:href="#m2a1aece167" x="152.697748" y="294.198739" style="stroke: #000000; stroke-width: 0.8"/>
      </g>
     </g>
     <g id="text_12">
      <!-- 300 -->
      <g transform="translate(143.153998 308.796395) scale(0.1 -0.1)">
       <defs>
        <path id="DejaVuSans-16" d="M 2597 2516 
Q 3050 2419 3304 2112 
Q 3559 1806 3559 1356 
Q 3559 666 3084 287 
Q 2609 -91 1734 -91 
Q 1441 -91 1130 -33 
Q 819 25 488 141 
L 488 750 
Q 750 597 1062 519 
Q 1375 441 1716 441 
Q 2309 441 2620 675 
Q 2931 909 2931 1356 
Q 2931 1769 2642 2001 
Q 2353 2234 1838 2234 
L 1294 2234 
L 1294 2753 
L 1863 2753 
Q 2328 2753 2575 2939 
Q 2822 3125 2822 3475 
Q 2822 3834 2567 4026 
Q 2313 4219 1838 4219 
Q 1578 4219 1281 4162 
Q 984 4106 628 3988 
L 628 4550 
Q 988 4650 1302 4700 
Q 1616 4750 1894 4750 
Q 2613 4750 3031 4423 
Q 3450 4097 3450 3541 
Q 3450 3153 3228 2886 
Q 3006 2619 2597 2516 
z
" transform="scale(0.015625)"/>
       </defs>
       <use xlink:href="#DejaVuSans-16"/>
       <use xlink:href="#DejaVuSans-13" transform="translate(63.625 0)"/>
       <use xlink:href="#DejaVuSans-13" transform="translate(127.25 0)"/>
      </g>
     </g>
    </g>
    <g id="xtick_23">
     <g id="line2d_31">
      <g>
       <use xlink:href="#m2a1aece167" x="184.63667" y="294.198739" style="stroke: #000000; stroke-width: 0.8"/>
      </g>
     </g>
     <g id="text_13">
      <!-- 400 -->
      <g transform="translate(175.09292 308.796395) scale(0.1 -0.1)">
       <defs>
        <path id="DejaVuSans-17" d="M 2419 4116 
L 825 1625 
L 2419 1625 
L 2419 4116 
z
M 2253 4666 
L 3047 4666 
L 3047 1625 
L 3713 1625 
L 3713 1100 
L 3047 1100 
L 3047 0 
L 2419 0 
L 2419 1100 
L 313 1100 
L 313 1709 
L 2253 4666 
z
" transform="scale(0.015625)"/>
       </defs>
       <use xlink:href="#DejaVuSans-17"/>
       <use xlink:href="#DejaVuSans-13" transform="translate(63.625 0)"/>
       <use xlink:href="#DejaVuSans-13" transform="translate(127.25 0)"/>
      </g>
     </g>
    </g>
    <g id="xtick_24">
     <g id="line2d_32">
      <g>
       <use xlink:href="#m2a1aece167" x="216.575593" y="294.198739" style="stroke: #000000; stroke-width: 0.8"/>
      </g>
     </g>
     <g id="text_14">
      <!-- 500 -->
      <g transform="translate(207.031843 308.796395) scale(0.1 -0.1)">
       <use xlink:href="#DejaVuSans-18"/>
       <use xlink:href="#DejaVuSans-13" transform="translate(63.625 0)"/>
       <use xlink:href="#DejaVuSans-13" transform="translate(127.25 0)"/>
      </g>
     </g>
    </g>
    <g id="xtick_25">
     <g id="line2d_33">
      <g>
       <use xlink:href="#m2a1aece167" x="248.514515" y="294.198739" style="stroke: #000000; stroke-width: 0.8"/>
      </g>
     </g>
     <g id="text_15">
      <!-- 600 -->
      <g transform="translate(238.970765 308.796395) scale(0.1 -0.1)">
       <defs>
        <path id="DejaVuSans-19" d="M 2113 2584 
Q 1688 2584 1439 2293 
Q 1191 2003 1191 1497 
Q 1191 994 1439 701 
Q 1688 409 2113 409 
Q 2538 409 2786 701 
Q 3034 994 3034 1497 
Q 3034 2003 2786 2293 
Q 2538 2584 2113 2584 
z
M 3366 4563 
L 3366 3988 
Q 3128 4100 2886 4159 
Q 2644 4219 2406 4219 
Q 1781 4219 1451 3797 
Q 1122 3375 1075 2522 
Q 1259 2794 1537 2939 
Q 1816 3084 2150 3084 
Q 2853 3084 3261 2657 
Q 3669 2231 3669 1497 
Q 3669 778 3244 343 
Q 2819 -91 2113 -91 
Q 1303 -91 875 529 
Q 447 1150 447 2328 
Q 447 3434 972 4092 
Q 1497 4750 2381 4750 
Q 2619 4750 2861 4703 
Q 3103 4656 3366 4563 
z
" transform="scale(0.015625)"/>
       </defs>
       <use xlink:href="#DejaVuSans-19"/>
       <use xlink:href="#DejaVuSans-13" transform="translate(63.625 0)"/>
       <use xlink:href="#DejaVuSans-13" transform="translate(127.25 0)"/>
      </g>
     </g>
    </g>
    <g id="xtick_26">
     <g id="line2d_34">
      <g>
       <use xlink:href="#m2a1aece167" x="280.453438" y="294.198739" style="stroke: #000000; stroke-width: 0.8"/>
      </g>
     </g>
     <g id="text_16">
      <!-- 700 -->
      <g transform="translate(270.909688 308.796395) scale(0.1 -0.1)">
       <defs>
        <path id="DejaVuSans-1a" d="M 525 4666 
L 3525 4666 
L 3525 4397 
L 1831 0 
L 1172 0 
L 2766 4134 
L 525 4134 
L 525 4666 
z
" transform="scale(0.015625)"/>
       </defs>
       <use xlink:href="#DejaVuSans-1a"/>
       <use xlink:href="#DejaVuSans-13" transform="translate(63.625 0)"/>
       <use xlink:href="#DejaVuSans-13" transform="translate(127.25 0)"/>
      </g>
     </g>
    </g>
    <g id="xtick_27">
     <g id="line2d_35">
      <g>
       <use xlink:href="#m2a1aece167" x="312.392361" y="294.198739" style="stroke: #000000; stroke-width: 0.8"/>
      </g>
     </g>
     <g id="text_17">
      <!-- 800 -->
      <g transform="translate(302.848611 308.796395) scale(0.1 -0.1)">
       <defs>
        <path id="DejaVuSans-1b" d="M 2034 2216 
Q 1584 2216 1326 1975 
Q 1069 1734 1069 1313 
Q 1069 891 1326 650 
Q 1584 409 2034 409 
Q 2484 409 2743 651 
Q 3003 894 3003 1313 
Q 3003 1734 2745 1975 
Q 2488 2216 2034 2216 
z
M 1403 2484 
Q 997 2584 770 2862 
Q 544 3141 544 3541 
Q 544 4100 942 4425 
Q 1341 4750 2034 4750 
Q 2731 4750 3128 4425 
Q 3525 4100 3525 3541 
Q 3525 3141 3298 2862 
Q 3072 2584 2669 2484 
Q 3125 2378 3379 2068 
Q 3634 1759 3634 1313 
Q 3634 634 3220 271 
Q 2806 -91 2034 -91 
Q 1263 -91 848 271 
Q 434 634 434 1313 
Q 434 1759 690 2068 
Q 947 2378 1403 2484 
z
M 1172 3481 
Q 1172 3119 1398 2916 
Q 1625 2713 2034 2713 
Q 2441 2713 2670 2916 
Q 2900 3119 2900 3481 
Q 2900 3844 2670 4047 
Q 2441 4250 2034 4250 
Q 1625 4250 1398 4047 
Q 1172 3844 1172 3481 
z
" transform="scale(0.015625)"/>
       </defs>
       <use xlink:href="#DejaVuSans-1b"/>
       <use xlink:href="#DejaVuSans-13" transform="translate(63.625 0)"/>
       <use xlink:href="#DejaVuSans-13" transform="translate(127.25 0)"/>
      </g>
     </g>
    </g>
    <g id="text_18">
     <!-- Time -->
     <g transform="translate(172.415776 322.797176) scale(0.1 -0.1)">
      <defs>
       <path id="DejaVuSans-37" d="M -19 4666 
L 3928 4666 
L 3928 4134 
L 2272 4134 
L 2272 0 
L 1638 0 
L 1638 4134 
L -19 4134 
L -19 4666 
z
" transform="scale(0.015625)"/>
       <path id="DejaVuSans-4c" d="M 603 3500 
L 1178 3500 
L 1178 0 
L 603 0 
L 603 3500 
z
M 603 4863 
L 1178 4863 
L 1178 4134 
L 603 4134 
L 603 4863 
z
" transform="scale(0.015625)"/>
       <path id="DejaVuSans-50" d="M 3328 2828 
Q 3544 3216 3844 3400 
Q 4144 3584 4550 3584 
Q 5097 3584 5394 3201 
Q 5691 2819 5691 2113 
L 5691 0 
L 5113 0 
L 5113 2094 
Q 5113 2597 4934 2840 
Q 4756 3084 4391 3084 
Q 3944 3084 3684 2787 
Q 3425 2491 3425 1978 
L 3425 0 
L 2847 0 
L 2847 2094 
Q 2847 2600 2669 2842 
Q 2491 3084 2119 3084 
Q 1678 3084 1418 2786 
Q 1159 2488 1159 1978 
L 1159 0 
L 581 0 
L 581 3500 
L 1159 3500 
L 1159 2956 
Q 1356 3278 1631 3431 
Q 1906 3584 2284 3584 
Q 2666 3584 2933 3390 
Q 3200 3197 3328 2828 
z
" transform="scale(0.015625)"/>
      </defs>
      <use xlink:href="#DejaVuSans-37"/>
      <use xlink:href="#DejaVuSans-4c" transform="translate(58 0)"/>
      <use xlink:href="#DejaVuSans-50" transform="translate(85.78125 0)"/>
      <use xlink:href="#DejaVuSans-48" transform="translate(183.1875 0)"/>
     </g>
    </g>
   </g>
   <g id="matplotlib.axis_6">
    <g id="ytick_7">
     <g id="line2d_36">
      <g>
       <use xlink:href="#m12296cef36" x="44.103906" y="290.138166" style="stroke: #000000; stroke-width: 0.8"/>
      </g>
     </g>
     <g id="text_19">
      <!-- 0.0 -->
      <g transform="translate(21.200781 293.936994) scale(0.1 -0.1)">
       <defs>
        <path id="DejaVuSans-11" d="M 684 794 
L 1344 794 
L 1344 0 
L 684 0 
L 684 794 
z
" transform="scale(0.015625)"/>
       </defs>
       <use xlink:href="#DejaVuSans-13"/>
       <use xlink:href="#DejaVuSans-11" transform="translate(63.625 0)"/>
       <use xlink:href="#DejaVuSans-13" transform="translate(95.40625 0)"/>
      </g>
     </g>
    </g>
    <g id="ytick_8">
     <g id="line2d_37">
      <g>
       <use xlink:href="#m12296cef36" x="44.103906" y="249.532442" style="stroke: #000000; stroke-width: 0.8"/>
      </g>
     </g>
     <g id="text_20">
      <!-- 0.5 -->
      <g transform="translate(21.200781 253.33127) scale(0.1 -0.1)">
       <use xlink:href="#DejaVuSans-13"/>
       <use xlink:href="#DejaVuSans-11" transform="translate(63.625 0)"/>
       <use xlink:href="#DejaVuSans-18" transform="translate(95.40625 0)"/>
      </g>
     </g>
    </g>
    <g id="ytick_9">
     <g id="line2d_38">
      <g>
       <use xlink:href="#m12296cef36" x="44.103906" y="208.926718" style="stroke: #000000; stroke-width: 0.8"/>
      </g>
     </g>
     <g id="text_21">
      <!-- 1.0 -->
      <g transform="translate(21.200781 212.725546) scale(0.1 -0.1)">
       <use xlink:href="#DejaVuSans-14"/>
       <use xlink:href="#DejaVuSans-11" transform="translate(63.625 0)"/>
       <use xlink:href="#DejaVuSans-13" transform="translate(95.40625 0)"/>
      </g>
     </g>
    </g>
    <g id="text_22">
     <!-- Free lac operon -->
     <g transform="translate(14.798438 288.006661) rotate(-90) scale(0.1 -0.1)">
      <defs>
       <path id="DejaVuSans-29" d="M 628 4666 
L 3309 4666 
L 3309 4134 
L 1259 4134 
L 1259 2759 
L 3109 2759 
L 3109 2228 
L 1259 2228 
L 1259 0 
L 628 0 
L 628 4666 
z
" transform="scale(0.015625)"/>
       <path id="DejaVuSans-53" d="M 1159 525 
L 1159 -1331 
L 581 -1331 
L 581 3500 
L 1159 3500 
L 1159 2969 
Q 1341 3281 1617 3432 
Q 1894 3584 2278 3584 
Q 2916 3584 3314 3078 
Q 3713 2572 3713 1747 
Q 3713 922 3314 415 
Q 2916 -91 2278 -91 
Q 1894 -91 1617 61 
Q 1341 213 1159 525 
z
M 3116 1747 
Q 3116 2381 2855 2742 
Q 2594 3103 2138 3103 
Q 1681 3103 1420 2742 
Q 1159 2381 1159 1747 
Q 1159 1113 1420 752 
Q 1681 391 2138 391 
Q 2594 391 2855 752 
Q 3116 1113 3116 1747 
z
" transform="scale(0.015625)"/>
       <path id="DejaVuSans-51" d="M 3513 2113 
L 3513 0 
L 2938 0 
L 2938 2094 
Q 2938 2591 2744 2837 
Q 2550 3084 2163 3084 
Q 1697 3084 1428 2787 
Q 1159 2491 1159 1978 
L 1159 0 
L 581 0 
L 581 3500 
L 1159 3500 
L 1159 2956 
Q 1366 3272 1645 3428 
Q 1925 3584 2291 3584 
Q 2894 3584 3203 3211 
Q 3513 2838 3513 2113 
z
" transform="scale(0.015625)"/>
      </defs>
      <use xlink:href="#DejaVuSans-29"/>
      <use xlink:href="#DejaVuSans-55" transform="translate(50.234375 0)"/>
      <use xlink:href="#DejaVuSans-48" transform="translate(89.140625 0)"/>
      <use xlink:href="#DejaVuSans-48" transform="translate(150.671875 0)"/>
      <use xlink:href="#DejaVuSans-3" transform="translate(212.203125 0)"/>
      <use xlink:href="#DejaVuSans-4f" transform="translate(243.984375 0)"/>
      <use xlink:href="#DejaVuSans-44" transform="translate(271.765625 0)"/>
      <use xlink:href="#DejaVuSans-46" transform="translate(333.046875 0)"/>
      <use xlink:href="#DejaVuSans-3" transform="translate(388.03125 0)"/>
      <use xlink:href="#DejaVuSans-52" transform="translate(419.8125 0)"/>
      <use xlink:href="#DejaVuSans-53" transform="translate(481 0)"/>
      <use xlink:href="#DejaVuSans-48" transform="translate(544.484375 0)"/>
      <use xlink:href="#DejaVuSans-55" transform="translate(606.015625 0)"/>
      <use xlink:href="#DejaVuSans-52" transform="translate(644.921875 0)"/>
      <use xlink:href="#DejaVuSans-51" transform="translate(706.109375 0)"/>
     </g>
    </g>
   </g>
   <g id="line2d_39">
    <path d="M 56.88098 208.926718 
L 56.962668 290.138166 
L 57.131315 290.138166 
L 57.301256 208.926718 
L 57.419675 208.926718 
L 57.522025 290.138166 
L 58.740898 290.138166 
L 59.732854 208.926718 
L 59.919595 208.926718 
L 59.942388 290.138166 
L 62.369004 290.138166 
L 64.969063 208.926718 
L 65.264588 208.926718 
L 65.402326 290.138166 
L 65.528467 290.138166 
L 72.205117 208.926718 
L 72.375268 290.138166 
L 80.231591 208.926718 
L 80.280732 290.138166 
L 82.912802 208.926718 
L 83.053091 208.926718 
L 83.107369 290.138166 
L 84.851414 290.138166 
L 84.916987 208.926718 
L 85.795145 208.926718 
L 85.985527 290.138166 
L 87.020569 290.138166 
L 90.019543 208.926718 
L 90.560698 208.926718 
L 90.590039 290.138166 
L 90.948709 290.138166 
L 91.831977 208.926718 
L 91.890548 290.138166 
L 92.235121 290.138166 
L 109.346289 208.926718 
L 109.36002 290.138166 
L 109.619033 290.138166 
L 109.895748 208.926718 
L 110.183712 290.138166 
L 110.312053 208.926718 
L 110.720667 208.926718 
L 110.925684 290.138166 
L 111.218945 290.138166 
L 115.389901 208.926718 
L 116.051923 290.138166 
L 117.697429 208.926718 
L 118.013326 290.138166 
L 118.68717 208.926718 
L 118.774679 290.138166 
L 119.786169 208.926718 
L 119.871258 290.138166 
L 123.822406 290.138166 
L 129.853952 208.926718 
L 129.960123 290.138166 
L 131.70607 208.926718 
L 132.157814 208.926718 
L 132.179299 290.138166 
L 134.023472 290.138166 
L 136.624588 208.926718 
L 136.637923 290.138166 
L 139.525058 208.926718 
L 139.567879 290.138166 
L 146.626031 208.926718 
L 147.572345 208.926718 
L 147.640802 290.138166 
L 148.258527 290.138166 
L 148.504077 208.926718 
L 148.819619 208.926718 
L 148.932603 290.138166 
L 150.005466 290.138166 
L 150.517973 208.926718 
L 150.618938 290.138166 
L 151.742393 290.138166 
L 151.753738 208.926718 
L 151.915615 290.138166 
L 156.233179 208.926718 
L 156.3223 290.138166 
L 156.572143 208.926718 
L 198.344123 208.926718 
L 198.357084 290.138166 
L 199.760258 290.138166 
L 201.609145 208.926718 
L 201.751326 290.138166 
L 203.25096 208.926718 
L 203.311726 290.138166 
L 206.978406 208.926718 
L 207.358864 208.926718 
L 207.578912 290.138166 
L 209.391638 290.138166 
L 215.274245 208.926718 
L 215.725805 208.926718 
L 215.87274 290.138166 
L 217.051493 290.138166 
L 217.137173 208.926718 
L 217.389934 290.138166 
L 225.29686 208.926718 
L 225.634747 208.926718 
L 225.684306 290.138166 
L 227.517651 290.138166 
L 232.998817 208.926718 
L 233.345715 208.926718 
L 233.404567 290.138166 
L 234.500704 290.138166 
L 240.495828 208.926718 
L 240.747077 290.138166 
L 242.873855 208.926718 
L 243.897669 208.926718 
L 244.310118 290.138166 
L 244.810307 290.138166 
L 244.986804 208.926718 
L 245.140299 208.926718 
L 245.312885 290.138166 
L 248.527806 290.138166 
L 250.001661 208.926718 
L 250.099521 290.138166 
L 250.556096 208.926718 
L 250.865988 208.926718 
L 251.036184 290.138166 
L 251.089484 208.926718 
L 251.141194 290.138166 
L 252.412594 290.138166 
L 261.362433 208.926718 
L 261.508055 208.926718 
L 261.512577 290.138166 
L 262.001934 290.138166 
L 273.001148 208.926718 
L 273.139869 290.138166 
L 275.37773 208.926718 
L 275.71355 290.138166 
L 276.932739 208.926718 
L 276.957158 290.138166 
L 277.101417 208.926718 
L 278.436737 208.926718 
L 278.441039 290.138166 
L 278.50337 208.926718 
L 278.559211 208.926718 
L 278.860233 290.138166 
L 279.020241 290.138166 
L 281.140909 208.926718 
L 281.439498 208.926718 
L 281.452351 290.138166 
L 282.336508 290.138166 
L 293.714205 208.926718 
L 293.849276 290.138166 
L 294.10462 208.926718 
L 294.416974 208.926718 
L 294.533994 290.138166 
L 295.509045 290.138166 
L 296.76398 208.926718 
L 296.975649 208.926718 
L 297.069526 290.138166 
L 297.221281 208.926718 
L 297.29798 290.138166 
L 297.924072 208.926718 
L 298.244468 290.138166 
L 304.354009 208.926718 
L 304.595439 290.138166 
L 309.055969 208.926718 
L 309.076493 290.138166 
L 310.95811 208.926718 
L 312.422447 208.926718 
L 312.422447 208.926718 
" clip-path="url(#pc4ae460c6c)" style="fill: none; stroke: #000000; stroke-width: 1.5; stroke-linecap: square"/>
   </g>
   <g id="patch_13">
    <path d="M 44.103906 294.198739 
L 44.103906 204.866146 
" style="fill: none; stroke: #000000; stroke-width: 0.8; stroke-linejoin: miter; stroke-linecap: square"/>
   </g>
   <g id="patch_14">
    <path d="M 325.19952 294.198739 
L 325.19952 204.866146 
" style="fill: none; stroke: #000000; stroke-width: 0.8; stroke-linejoin: miter; stroke-linecap: square"/>
   </g>
   <g id="patch_15">
    <path d="M 44.103906 294.198739 
L 325.19952 294.198739 
" style="fill: none; stroke: #000000; stroke-width: 0.8; stroke-linejoin: miter; stroke-linecap: square"/>
   </g>
   <g id="patch_16">
    <path d="M 44.103906 204.866146 
L 325.19952 204.866146 
" style="fill: none; stroke: #000000; stroke-width: 0.8; stroke-linejoin: miter; stroke-linecap: square"/>
   </g>
  </g>
 </g>
 <defs>
  <clipPath id="p61cd407b67">
   <rect x="44.103906" y="7.2" width="281.095614" height="89.332593"/>
  </clipPath>
  <clipPath id="p2462b2642e">
   <rect x="44.103906" y="106.033073" width="281.095614" height="89.332593"/>
  </clipPath>
  <clipPath id="pc4ae460c6c">
   <rect x="44.103906" y="204.866146" width="281.095614" height="89.332593"/>
  </clipPath>
 </defs>
</svg>
