<?xml version="1.0" encoding="utf-8" standalone="no"?>
<!DOCTYPE svg PUBLIC "-//W3C//DTD SVG 1.1//EN"
  "http://www.w3.org/Graphics/SVG/1.1/DTD/svg11.dtd">
<svg xmlns:xlink="http://www.w3.org/1999/xlink" width="332.39952pt" height="332.39952pt" viewBox="0 0 332.39952 332.39952" xmlns="http://www.w3.org/2000/svg" version="1.1">
 <metadata>
  <rdf:RDF xmlns:dc="http://purl.org/dc/elements/1.1/" xmlns:cc="http://creativecommons.org/ns#" xmlns:rdf="http://www.w3.org/1999/02/22-rdf-syntax-ns#">
   <cc:Work>
    <dc:type rdf:resource="http://purl.org/dc/dcmitype/StillImage"/>
    <dc:date>2026-07-14T17:20:29.708575</dc:date>
    <dc:format>image/svg+xml</dc:format>
    <dc:creator>
     <cc:Agent>
      <dc:title>Matplotlib v3.11.0, https://matplotlib.org/</dc:title>
     </cc:Agent>
    </dc:creator>
   </cc:Work>
  </rdf:RDF>
 </metadata>
 <defs>
  <style type="text/css">*{stroke-linejoin: round; stroke-linecap: butt}</style>
 </defs>
 <g id="figure_1">
  <g id="patch_1">
   <path d="M 0 332.39952 
L 332.39952 332.39952 
L 332.39952 0 
L 0 0 
z
" style="fill: #ffffff"/>
  </g>
  <g id="axes_1">
   <g id="patch_2">
    <path d="M 44.103906 96.532593 
L 325.19952 96.532593 
L 325.19952 7.2 
L 44.103906 7.2 
z
" style="fill: #ffffff"/>
   </g>
   <g id="matplotlib.axis_1">
    <g id="xtick_1">
     <g id="line2d_1">
      <defs>
       <path id="m9be871834e" d="M 0 0 
L 0 3.5 
" style="stroke: #000000; stroke-width: 0.8"/>
      </defs>
      <g>
       <use xlink:href="#m9be871834e" x="56.88098" y="96.532593" style="stroke: #000000; stroke-width: 0.8"/>
      </g>
     </g>
    </g>
    <g id="xtick_2">
     <g id="line2d_2">
      <g>
       <use xlink:href="#m9be871834e" x="88.786266" y="96.532593" style="stroke: #000000; stroke-width: 0.8"/>
      </g>
     </g>
    </g>
    <g id="xtick_3">
     <g id="line2d_3">
      <g>
       <use xlink:href="#m9be871834e" x="120.691552" y="96.532593" style="stroke: #000000; stroke-width: 0.8"/>
      </g>
     </g>
    </g>
    <g id="xtick_4">
     <g id="line2d_4">
      <g>
       <use xlink:href="#m9be871834e" x="152.596838" y="96.532593" style="stroke: #000000; stroke-width: 0.8"/>
      </g>
     </g>
    </g>
    <g id="xtick_5">
     <g id="line2d_5">
      <g>
       <use xlink:href="#m9be871834e" x="184.502124" y="96.532593" style="stroke: #000000; stroke-width: 0.8"/>
      </g>
     </g>
    </g>
    <g id="xtick_6">
     <g id="line2d_6">
      <g>
       <use xlink:href="#m9be871834e" x="216.40741" y="96.532593" style="stroke: #000000; stroke-width: 0.8"/>
      </g>
     </g>
    </g>
    <g id="xtick_7">
     <g id="line2d_7">
      <g>
       <use xlink:href="#m9be871834e" x="248.312696" y="96.532593" style="stroke: #000000; stroke-width: 0.8"/>
      </g>
     </g>
    </g>
    <g id="xtick_8">
     <g id="line2d_8">
      <g>
       <use xlink:href="#m9be871834e" x="280.217982" y="96.532593" style="stroke: #000000; stroke-width: 0.8"/>
      </g>
     </g>
    </g>
    <g id="xtick_9">
     <g id="line2d_9">
      <g>
       <use xlink:href="#m9be871834e" x="312.123268" y="96.532593" style="stroke: #000000; stroke-width: 0.8"/>
      </g>
     </g>
    </g>
   </g>
   <g id="matplotlib.axis_2">
    <g id="ytick_1">
     <g id="line2d_10">
      <defs>
       <path id="mf94ea3c3c6" d="M 0 0 
L -3.5 0 
" style="stroke: #000000; stroke-width: 0.8"/>
      </defs>
      <g>
       <use xlink:href="#mf94ea3c3c6" x="44.103906" y="92.472021" style="stroke: #000000; stroke-width: 0.8"/>
      </g>
     </g>
     <g id="text_1">
      <!-- 0 -->
      <g transform="translate(30.741406 96.270849) scale(0.1 -0.1)">
       <defs>
        <path id="DejaVuSans-13" d="M 2034 4250 
Q 1547 4250 1301 3770 
Q 1056 3291 1056 2328 
Q 1056 1369 1301 889 
Q 1547 409 2034 409 
Q 2525 409 2770 889 
Q 3016 1369 3016 2328 
Q 3016 3291 2770 3770 
Q 2525 4250 2034 4250 
z
M 2034 4750 
Q 2819 4750 3233 4129 
Q 3647 3509 3647 2328 
Q 3647 1150 3233 529 
Q 2819 -91 2034 -91 
Q 1250 -91 836 529 
Q 422 1150 422 2328 
Q 422 3509 836 4129 
Q 1250 4750 2034 4750 
z
" transform="scale(0.015625)"/>
       </defs>
       <use xlink:href="#DejaVuSans-13"/>
      </g>
     </g>
    </g>
    <g id="ytick_2">
     <g id="line2d_11">
      <g>
       <use xlink:href="#mf94ea3c3c6" x="44.103906" y="51.866296" style="stroke: #000000; stroke-width: 0.8"/>
      </g>
     </g>
     <g id="text_2">
      <!-- 5 -->
      <g transform="translate(30.741406 55.665125) scale(0.1 -0.1)">
       <defs>
        <path id="DejaVuSans-18" d="M 691 4666 
L 3169 4666 
L 3169 4134 
L 1269 4134 
L 1269 2991 
Q 1406 3038 1543 3061 
Q 1681 3084 1819 3084 
Q 2600 3084 3056 2656 
Q 3513 2228 3513 1497 
Q 3513 744 3044 326 
Q 2575 -91 1722 -91 
Q 1428 -91 1123 -41 
Q 819 9 494 109 
L 494 744 
Q 775 591 1075 516 
Q 1375 441 1709 441 
Q 2250 441 2565 725 
Q 2881 1009 2881 1497 
Q 2881 1984 2565 2268 
Q 2250 2553 1709 2553 
Q 1456 2553 1204 2497 
Q 953 2441 691 2322 
L 691 4666 
z
" transform="scale(0.015625)"/>
       </defs>
       <use xlink:href="#DejaVuSans-18"/>
      </g>
     </g>
    </g>
    <g id="ytick_3">
     <g id="line2d_12">
      <g>
       <use xlink:href="#mf94ea3c3c6" x="44.103906" y="11.260572" style="stroke: #000000; stroke-width: 0.8"/>
      </g>
     </g>
     <g id="text_3">
      <!-- 10 -->
      <g transform="translate(24.378906 15.059401) scale(0.1 -0.1)">
       <defs>
        <path id="DejaVuSans-14" d="M 794 531 
L 1825 531 
L 1825 4091 
L 703 3866 
L 703 4441 
L 1819 4666 
L 2450 4666 
L 2450 531 
L 3481 531 
L 3481 0 
L 794 0 
L 794 531 
z
" transform="scale(0.015625)"/>
       </defs>
       <use xlink:href="#DejaVuSans-14"/>
       <use xlink:href="#DejaVuSans-13" transform="translate(63.625 0)"/>
      </g>
     </g>
    </g>
    <g id="text_4">
     <!-- Extracellular lactose -->
     <g transform="translate(17.976563 102.838171) rotate(-90) scale(0.1 -0.1)">
      <defs>
       <path id="DejaVuSans-28" d="M 628 4666 
L 3578 4666 
L 3578 4134 
L 1259 4134 
L 1259 2753 
L 3481 2753 
L 3481 2222 
L 1259 2222 
L 1259 531 
L 3634 531 
L 3634 0 
L 628 0 
L 628 4666 
z
" transform="scale(0.015625)"/>
       <path id="DejaVuSans-5b" d="M 3513 3500 
L 2247 1797 
L 3578 0 
L 2900 0 
L 1881 1375 
L 863 0 
L 184 0 
L 1544 1831 
L 300 3500 
L 978 3500 
L 1906 2253 
L 2834 3500 
L 3513 3500 
z
" transform="scale(0.015625)"/>
       <path id="DejaVuSans-57" d="M 1172 4494 
L 1172 3500 
L 2356 3500 
L 2356 3053 
L 1172 3053 
L 1172 1153 
Q 1172 725 1289 603 
Q 1406 481 1766 481 
L 2356 481 
L 2356 0 
L 1766 0 
Q 1100 0 847 248 
Q 594 497 594 1153 
L 594 3053 
L 172 3053 
L 172 3500 
L 594 3500 
L 594 4494 
L 1172 4494 
z
" transform="scale(0.015625)"/>
       <path id="DejaVuSans-55" d="M 2631 2963 
Q 2534 3019 2420 3045 
Q 2306 3072 2169 3072 
Q 1681 3072 1420 2755 
Q 1159 2438 1159 1844 
L 1159 0 
L 581 0 
L 581 3500 
L 1159 3500 
L 1159 2956 
Q 1341 3275 1631 3429 
Q 1922 3584 2338 3584 
Q 2397 3584 2469 3576 
Q 2541 3569 2628 3553 
L 2631 2963 
z
" transform="scale(0.015625)"/>
       <path id="DejaVuSans-44" d="M 2194 1759 
Q 1497 1759 1228 1600 
Q 959 1441 959 1056 
Q 959 750 1161 570 
Q 1363 391 1709 391 
Q 2188 391 2477 730 
Q 2766 1069 2766 1631 
L 2766 1759 
L 2194 1759 
z
M 3341 1997 
L 3341 0 
L 2766 0 
L 2766 531 
Q 2569 213 2275 61 
Q 1981 -91 1556 -91 
Q 1019 -91 701 211 
Q 384 513 384 1019 
Q 384 1609 779 1909 
Q 1175 2209 1959 2209 
L 2766 2209 
L 2766 2266 
Q 2766 2663 2505 2880 
Q 2244 3097 1772 3097 
Q 1472 3097 1187 3025 
Q 903 2953 641 2809 
L 641 3341 
Q 956 3463 1253 3523 
Q 1550 3584 1831 3584 
Q 2591 3584 2966 3190 
Q 3341 2797 3341 1997 
z
" transform="scale(0.015625)"/>
       <path id="DejaVuSans-46" d="M 3122 3366 
L 3122 2828 
Q 2878 2963 2633 3030 
Q 2388 3097 2138 3097 
Q 1578 3097 1268 2742 
Q 959 2388 959 1747 
Q 959 1106 1268 751 
Q 1578 397 2138 397 
Q 2388 397 2633 464 
Q 2878 531 3122 666 
L 3122 134 
Q 2881 22 2623 -34 
Q 2366 -91 2075 -91 
Q 1284 -91 818 406 
Q 353 903 353 1747 
Q 353 2603 823 3093 
Q 1294 3584 2113 3584 
Q 2378 3584 2631 3529 
Q 2884 3475 3122 3366 
z
" transform="scale(0.015625)"/>
       <path id="DejaVuSans-48" d="M 3597 1894 
L 3597 1613 
L 953 1613 
Q 991 1019 1311 708 
Q 1631 397 2203 397 
Q 2534 397 2845 478 
Q 3156 559 3463 722 
L 3463 178 
Q 3153 47 2828 -22 
Q 2503 -91 2169 -91 
Q 1331 -91 842 396 
Q 353 884 353 1716 
Q 353 2575 817 3079 
Q 1281 3584 2069 3584 
Q 2775 3584 3186 3129 
Q 3597 2675 3597 1894 
z
M 3022 2063 
Q 3016 2534 2758 2815 
Q 2500 3097 2075 3097 
Q 1594 3097 1305 2825 
Q 1016 2553 972 2059 
L 3022 2063 
z
" transform="scale(0.015625)"/>
       <path id="DejaVuSans-4f" d="M 603 4863 
L 1178 4863 
L 1178 0 
L 603 0 
L 603 4863 
z
" transform="scale(0.015625)"/>
       <path id="DejaVuSans-58" d="M 544 1381 
L 544 3500 
L 1119 3500 
L 1119 1403 
Q 1119 906 1312 657 
Q 1506 409 1894 409 
Q 2359 409 2629 706 
Q 2900 1003 2900 1516 
L 2900 3500 
L 3475 3500 
L 3475 0 
L 2900 0 
L 2900 538 
Q 2691 219 2414 64 
Q 2138 -91 1772 -91 
Q 1169 -91 856 284 
Q 544 659 544 1381 
z
M 1991 3584 
L 1991 3584 
z
" transform="scale(0.015625)"/>
       <path id="DejaVuSans-3" transform="scale(0.015625)"/>
       <path id="DejaVuSans-52" d="M 1959 3097 
Q 1497 3097 1228 2736 
Q 959 2375 959 1747 
Q 959 1119 1226 758 
Q 1494 397 1959 397 
Q 2419 397 2687 759 
Q 2956 1122 2956 1747 
Q 2956 2369 2687 2733 
Q 2419 3097 1959 3097 
z
M 1959 3584 
Q 2709 3584 3137 3096 
Q 3566 2609 3566 1747 
Q 3566 888 3137 398 
Q 2709 -91 1959 -91 
Q 1206 -91 779 398 
Q 353 888 353 1747 
Q 353 2609 779 3096 
Q 1206 3584 1959 3584 
z
" transform="scale(0.015625)"/>
       <path id="DejaVuSans-56" d="M 2834 3397 
L 2834 2853 
Q 2591 2978 2328 3040 
Q 2066 3103 1784 3103 
Q 1356 3103 1142 2972 
Q 928 2841 928 2578 
Q 928 2378 1081 2264 
Q 1234 2150 1697 2047 
L 1894 2003 
Q 2506 1872 2764 1633 
Q 3022 1394 3022 966 
Q 3022 478 2636 193 
Q 2250 -91 1575 -91 
Q 1294 -91 989 -36 
Q 684 19 347 128 
L 347 722 
Q 666 556 975 473 
Q 1284 391 1588 391 
Q 1994 391 2212 530 
Q 2431 669 2431 922 
Q 2431 1156 2273 1281 
Q 2116 1406 1581 1522 
L 1381 1569 
Q 847 1681 609 1914 
Q 372 2147 372 2553 
Q 372 3047 722 3315 
Q 1072 3584 1716 3584 
Q 2034 3584 2315 3537 
Q 2597 3491 2834 3397 
z
" transform="scale(0.015625)"/>
      </defs>
      <use xlink:href="#DejaVuSans-28"/>
      <use xlink:href="#DejaVuSans-5b" transform="translate(63.1875 0)"/>
      <use xlink:href="#DejaVuSans-57" transform="translate(122.375 0)"/>
      <use xlink:href="#DejaVuSans-55" transform="translate(161.578125 0)"/>
      <use xlink:href="#DejaVuSans-44" transform="translate(202.6875 0)"/>
      <use xlink:href="#DejaVuSans-46" transform="translate(263.96875 0)"/>
      <use xlink:href="#DejaVuSans-48" transform="translate(318.953125 0)"/>
      <use xlink:href="#DejaVuSans-4f" transform="translate(380.484375 0)"/>
      <use xlink:href="#DejaVuSans-4f" transform="translate(408.265625 0)"/>
      <use xlink:href="#DejaVuSans-58" transform="translate(436.046875 0)"/>
      <use xlink:href="#DejaVuSans-4f" transform="translate(499.421875 0)"/>
      <use xlink:href="#DejaVuSans-44" transform="translate(527.203125 0)"/>
      <use xlink:href="#DejaVuSans-55" transform="translate(588.484375 0)"/>
      <use xlink:href="#DejaVuSans-3" transform="translate(629.59375 0)"/>
      <use xlink:href="#DejaVuSans-4f" transform="translate(661.375 0)"/>
      <use xlink:href="#DejaVuSans-44" transform="translate(689.15625 0)"/>
      <use xlink:href="#DejaVuSans-46" transform="translate(750.4375 0)"/>
      <use xlink:href="#DejaVuSans-57" transform="translate(805.421875 0)"/>
      <use xlink:href="#DejaVuSans-52" transform="translate(844.625 0)"/>
      <use xlink:href="#DejaVuSans-56" transform="translate(905.8125 0)"/>
      <use xlink:href="#DejaVuSans-48" transform="translate(957.90625 0)"/>
     </g>
    </g>
   </g>
   <g id="line2d_13">
    <path d="M 56.88098 92.472021 
L 156.128546 92.472021 
L 156.217573 11.260572 
L 156.88503 11.341784 
L 157.002624 11.66663 
L 157.047403 11.747841 
L 157.193481 13.209647 
L 157.311728 14.833876 
L 157.325545 14.915088 
L 157.468943 16.620528 
L 157.492474 16.701739 
L 158.001648 20.193832 
L 158.278656 20.599889 
L 158.337902 20.6811 
L 158.44699 20.762312 
L 158.897226 20.843523 
L 158.994009 21.249581 
L 159.234615 21.655638 
L 159.334996 22.061695 
L 159.455463 22.142906 
L 159.558125 22.630175 
L 159.588096 22.711387 
L 159.696978 23.604713 
L 159.79413 24.498038 
L 160.132944 25.878633 
L 160.178894 25.959845 
L 160.414864 27.340439 
L 160.613195 28.802245 
L 160.632 28.883457 
L 160.908746 31.238589 
L 160.936216 31.3198 
L 161.042042 32.131915 
L 161.114775 32.213126 
L 161.397049 33.999778 
L 161.444506 34.080989 
L 161.575907 34.487047 
L 161.602593 34.568258 
L 161.780099 35.21795 
L 161.890286 35.299161 
L 162.041582 35.705218 
L 162.196818 35.867641 
L 162.668565 35.948853 
L 162.790778 36.35491 
L 163.130083 37.49187 
L 163.418565 38.62883 
L 163.527374 38.710042 
L 164.151112 41.146385 
L 164.26345 41.552443 
L 164.357731 41.633654 
L 164.490665 41.796077 
L 164.545279 41.877288 
L 164.749349 42.364557 
L 165.07946 43.09546 
L 165.310948 43.176672 
L 165.412199 43.66394 
L 165.596147 43.988786 
L 165.621108 44.069997 
L 165.745768 44.638478 
L 165.772817 44.719689 
L 165.990209 46.019072 
L 166.119709 46.668764 
L 166.240943 46.749975 
L 167.227604 51.785085 
L 167.253167 51.866296 
L 167.381629 52.109931 
L 167.423735 52.191142 
L 167.53603 52.353565 
L 167.851118 53.084468 
L 167.954994 53.16568 
L 168.109973 53.246891 
L 168.270411 53.490525 
L 168.443505 53.571737 
L 168.604732 54.140217 
L 168.803567 54.627486 
L 168.883371 54.708697 
L 169.126952 55.277177 
L 169.325411 55.358389 
L 169.484972 55.845657 
L 169.536884 55.926869 
L 169.673634 56.332926 
L 169.752806 56.657772 
L 170.355002 59.256538 
L 170.750719 60.47471 
L 170.908388 60.961979 
L 171.012317 61.04319 
L 171.334706 61.124402 
L 171.44429 61.286824 
L 171.606499 61.61167 
L 171.881116 61.692882 
L 172.051872 61.936516 
L 172.27364 62.261362 
L 172.581717 62.342573 
L 172.764828 62.586208 
L 172.844434 62.667419 
L 172.96961 62.748631 
L 173.045197 62.829842 
L 173.155859 63.154688 
L 173.404162 63.479534 
L 173.508582 63.560745 
L 173.803569 64.697705 
L 173.913649 64.778917 
L 174.128065 65.915877 
L 174.359092 66.64678 
L 174.71446 68.189798 
L 174.812695 68.595855 
L 174.951903 68.677066 
L 175.044258 68.920701 
L 175.141263 69.001912 
L 175.242596 69.245546 
L 175.6643 69.895238 
L 175.912501 69.976449 
L 176.025961 70.057661 
L 176.090732 70.138872 
L 176.31212 70.463718 
L 176.369256 70.54493 
L 176.469361 70.869775 
L 176.548594 70.950987 
L 176.701511 71.032198 
L 176.806851 71.11341 
L 176.962742 71.357044 
L 177.002774 71.438255 
L 177.137033 72.006736 
L 177.199652 72.087947 
L 177.464964 72.981273 
L 177.499658 73.062484 
L 177.652536 73.793387 
L 177.694916 73.874599 
L 177.845802 74.118233 
L 177.954973 74.199445 
L 178.132417 74.605502 
L 178.143097 74.686713 
L 178.262499 74.930348 
L 178.275881 75.011559 
L 178.410686 75.904885 
L 178.469522 75.986097 
L 178.579731 76.554577 
L 178.725212 76.798211 
L 178.780238 76.879422 
L 178.908109 77.041845 
L 179.284995 77.123057 
L 179.354772 77.204268 
L 180.622383 77.28548 
L 180.73214 77.366691 
L 180.916203 77.447903 
L 181.037727 77.529114 
L 181.245449 77.610326 
L 181.399215 77.691537 
L 181.519943 77.85396 
L 182.194147 77.935171 
L 182.437607 78.178806 
L 182.56441 78.42244 
L 182.777683 78.503651 
L 182.860066 78.584863 
L 183.560066 79.396977 
L 183.688726 79.803035 
L 183.911751 79.884246 
L 184.000326 79.965458 
L 184.543238 80.046669 
L 184.631813 80.209092 
L 184.766139 80.290303 
L 185.03289 80.615149 
L 185.08839 80.696361 
L 185.216519 80.858783 
L 186.200743 81.589686 
L 186.658502 82.239378 
L 187.004471 82.320589 
L 187.04645 82.401801 
L 187.903155 82.483012 
L 187.972198 82.645435 
L 189.299859 82.726647 
L 190.189078 83.213915 
L 190.300082 83.538761 
L 190.454922 83.619973 
L 190.613781 83.701184 
L 190.795682 83.782396 
L 191.321682 83.944818 
L 193.158495 84.02603 
L 193.304542 84.188453 
L 193.755394 84.269664 
L 193.914885 84.432087 
L 194.165522 84.513299 
L 194.331752 84.59451 
L 195.388467 84.675721 
L 195.649265 84.919356 
L 196.023154 85.000567 
L 196.058671 85.081779 
L 196.473194 85.16299 
L 197.264932 85.73147 
L 197.578895 86.056316 
L 198.054076 86.137528 
L 198.198493 86.462373 
L 198.283425 86.543585 
L 198.388518 86.624796 
L 198.464053 86.706008 
L 198.584692 86.949642 
L 198.640187 87.030853 
L 198.792249 87.112065 
L 198.898686 87.193276 
L 199.0415 87.355699 
L 199.41597 87.436911 
L 200.163259 87.761757 
L 200.232052 87.842968 
L 200.648693 87.924179 
L 200.937073 88.005391 
L 201.566406 88.086602 
L 201.946107 88.330237 
L 202.499295 88.411448 
L 202.650577 88.573871 
L 202.719002 88.655082 
L 202.925223 88.736294 
L 202.980178 88.817505 
L 203.407678 88.898717 
L 203.874024 88.979928 
L 203.967256 89.06114 
L 204.846845 89.142351 
L 204.943552 89.223563 
L 205.574255 89.304774 
L 205.762313 89.385985 
L 206.325662 89.467197 
L 206.347542 89.548408 
L 208.050262 89.62962 
L 208.136909 89.710831 
L 208.597325 89.792043 
L 208.672156 89.873254 
L 227.808968 89.954466 
L 228.638302 90.035677 
L 232.579147 90.116889 
L 232.682575 90.1981 
L 239.813644 90.279311 
L 239.912038 90.360523 
L 264.234015 90.441734 
L 265.932743 90.522946 
L 312.422447 90.522946 
L 312.422447 90.522946 
" clip-path="url(#p327048270f)" style="fill: none; stroke: #000000; stroke-width: 1.5; stroke-linecap: square"/>
   </g>
   <g id="patch_3">
    <path d="M 44.103906 96.532593 
L 44.103906 7.2 
" style="fill: none; stroke: #000000; stroke-width: 0.8; stroke-linejoin: miter; stroke-linecap: square"/>
   </g>
   <g id="patch_4">
    <path d="M 325.19952 96.532593 
L 325.19952 7.2 
" style="fill: none; stroke: #000000; stroke-width: 0.8; stroke-linejoin: miter; stroke-linecap: square"/>
   </g>
   <g id="patch_5">
    <path d="M 44.103906 96.532593 
L 325.19952 96.532593 
" style="fill: none; stroke: #000000; stroke-width: 0.8; stroke-linejoin: miter; stroke-linecap: square"/>
   </g>
   <g id="patch_6">
    <path d="M 44.103906 7.2 
L 325.19952 7.2 
" style="fill: none; stroke: #000000; stroke-width: 0.8; stroke-linejoin: miter; stroke-linecap: square"/>
   </g>
  </g>
  <g id="axes_2">
   <g id="patch_7">
    <path d="M 44.103906 195.365666 
L 325.19952 195.365666 
L 325.19952 106.033073 
L 44.103906 106.033073 
z
" style="fill: #ffffff"/>
   </g>
   <g id="matplotlib.axis_3">
    <g id="xtick_10">
     <g id="line2d_14">
      <g>
       <use xlink:href="#m9be871834e" x="56.88098" y="195.365666" style="stroke: #000000; stroke-width: 0.8"/>
      </g>
     </g>
    </g>
    <g id="xtick_11">
     <g id="line2d_15">
      <g>
       <use xlink:href="#m9be871834e" x="88.786266" y="195.365666" style="stroke: #000000; stroke-width: 0.8"/>
      </g>
     </g>
    </g>
    <g id="xtick_12">
     <g id="line2d_16">
      <g>
       <use xlink:href="#m9be871834e" x="120.691552" y="195.365666" style="stroke: #000000; stroke-width: 0.8"/>
      </g>
     </g>
    </g>
    <g id="xtick_13">
     <g id="line2d_17">
      <g>
       <use xlink:href="#m9be871834e" x="152.596838" y="195.365666" style="stroke: #000000; stroke-width: 0.8"/>
      </g>
     </g>
    </g>
    <g id="xtick_14">
     <g id="line2d_18">
      <g>
       <use xlink:href="#m9be871834e" x="184.502124" y="195.365666" style="stroke: #000000; stroke-width: 0.8"/>
      </g>
     </g>
    </g>
    <g id="xtick_15">
     <g id="line2d_19">
      <g>
       <use xlink:href="#m9be871834e" x="216.40741" y="195.365666" style="stroke: #000000; stroke-width: 0.8"/>
      </g>
     </g>
    </g>
    <g id="xtick_16">
     <g id="line2d_20">
      <g>
       <use xlink:href="#m9be871834e" x="248.312696" y="195.365666" style="stroke: #000000; stroke-width: 0.8"/>
      </g>
     </g>
    </g>
    <g id="xtick_17">
     <g id="line2d_21">
      <g>
       <use xlink:href="#m9be871834e" x="280.217982" y="195.365666" style="stroke: #000000; stroke-width: 0.8"/>
      </g>
     </g>
    </g>
    <g id="xtick_18">
     <g id="line2d_22">
      <g>
       <use xlink:href="#m9be871834e" x="312.123268" y="195.365666" style="stroke: #000000; stroke-width: 0.8"/>
      </g>
     </g>
    </g>
   </g>
   <g id="matplotlib.axis_4">
    <g id="ytick_4">
     <g id="line2d_23">
      <g>
       <use xlink:href="#mf94ea3c3c6" x="44.103906" y="191.305093" style="stroke: #000000; stroke-width: 0.8"/>
      </g>
     </g>
     <g id="text_5">
      <!-- 0 -->
      <g transform="translate(30.741406 195.103922) scale(0.1 -0.1)">
       <use xlink:href="#DejaVuSans-13"/>
      </g>
     </g>
    </g>
    <g id="ytick_5">
     <g id="line2d_24">
      <g>
       <use xlink:href="#mf94ea3c3c6" x="44.103906" y="150.699369" style="stroke: #000000; stroke-width: 0.8"/>
      </g>
     </g>
     <g id="text_6">
      <!-- 5 -->
      <g transform="translate(30.741406 154.498197) scale(0.1 -0.1)">
       <use xlink:href="#DejaVuSans-18"/>
      </g>
     </g>
    </g>
    <g id="ytick_6">
     <g id="line2d_25">
      <g>
       <use xlink:href="#mf94ea3c3c6" x="44.103906" y="110.093645" style="stroke: #000000; stroke-width: 0.8"/>
      </g>
     </g>
     <g id="text_7">
      <!-- 10 -->
      <g transform="translate(24.378906 113.892473) scale(0.1 -0.1)">
       <use xlink:href="#DejaVuSans-14"/>
       <use xlink:href="#DejaVuSans-13" transform="translate(63.625 0)"/>
      </g>
     </g>
    </g>
    <g id="text_8">
     <!-- LacY -->
     <g transform="translate(17.976563 162.352494) rotate(-90) scale(0.1 -0.1)">
      <defs>
       <path id="DejaVuSans-2f" d="M 628 4666 
L 1259 4666 
L 1259 531 
L 3531 531 
L 3531 0 
L 628 0 
L 628 4666 
z
" transform="scale(0.015625)"/>
       <path id="DejaVuSans-3c" d="M -13 4666 
L 666 4666 
L 1959 2747 
L 3244 4666 
L 3922 4666 
L 2272 2222 
L 2272 0 
L 1638 0 
L 1638 2222 
L -13 4666 
z
" transform="scale(0.015625)"/>
      </defs>
      <use xlink:href="#DejaVuSans-2f"/>
      <use xlink:href="#DejaVuSans-44" transform="translate(55.71875 0)"/>
      <use xlink:href="#DejaVuSans-46" transform="translate(117 0)"/>
      <use xlink:href="#DejaVuSans-3c" transform="translate(171.984375 0)"/>
     </g>
    </g>
   </g>
   <g id="line2d_26">
    <path d="M 56.88098 110.093645 
L 56.908101 110.093645 
L 56.962582 118.21479 
L 57.070723 134.45708 
L 57.131051 142.578225 
L 57.283121 142.578225 
L 57.300814 134.45708 
L 57.52135 142.578225 
L 57.663182 142.578225 
L 57.833792 158.820514 
L 58.134621 175.062804 
L 58.200225 191.305093 
L 59.729851 191.305093 
L 59.896432 183.183949 
L 59.939164 191.305093 
L 64.960545 191.305093 
L 65.283424 183.183949 
L 65.393352 191.305093 
L 82.885387 191.305093 
L 83.079748 183.183949 
L 84.872639 191.305093 
L 84.887461 183.183949 
L 85.030633 175.062804 
L 85.035287 166.941659 
L 85.357372 175.062804 
L 85.584282 175.062804 
L 85.703888 191.305093 
L 85.764694 183.183949 
L 85.954876 183.183949 
L 86.093329 191.305093 
L 89.984643 191.305093 
L 90.37435 175.062804 
L 90.375651 166.941659 
L 90.87417 166.941659 
L 90.91283 183.183949 
L 91.684793 183.183949 
L 91.853677 175.062804 
L 92.197888 191.305093 
L 109.199079 191.305093 
L 109.304751 183.183949 
L 109.424431 183.183949 
L 109.563492 191.305093 
L 109.79844 191.305093 
L 109.839915 183.183949 
L 110.255782 183.183949 
L 110.605631 175.062804 
L 110.663966 183.183949 
L 110.839194 183.183949 
L 110.868766 191.305093 
L 119.62653 191.305093 
L 119.804919 183.183949 
L 121.904778 183.183949 
L 123.751907 191.305093 
L 131.518499 191.305093 
L 131.704732 183.183949 
L 131.992241 183.183949 
L 132.099999 191.305093 
L 136.435029 191.305093 
L 136.518744 183.183949 
L 136.540606 191.305093 
L 146.531515 191.305093 
L 146.792315 175.062804 
L 146.813142 183.183949 
L 146.842145 175.062804 
L 146.955237 166.941659 
L 146.960577 175.062804 
L 147.545218 175.062804 
L 148.162293 183.183949 
L 148.407583 183.183949 
L 148.722793 175.062804 
L 148.835658 175.062804 
L 149.907392 191.305093 
L 150.367487 191.305093 
L 150.419359 175.062804 
L 150.520218 175.062804 
L 150.673025 183.183949 
L 150.806722 183.183949 
L 151.34954 191.305093 
L 156.467153 191.305093 
L 156.895367 183.183949 
L 157.13562 150.699369 
L 157.417215 150.699369 
L 157.537303 166.941659 
L 157.587163 166.941659 
L 157.688047 158.820514 
L 157.775011 158.820514 
L 157.884801 175.062804 
L 157.912997 175.062804 
L 158.001648 183.183949 
L 158.353368 183.183949 
L 158.44699 191.305093 
L 158.84662 191.305093 
L 158.947964 183.183949 
L 159.11412 183.183949 
L 159.218213 175.062804 
L 159.364172 175.062804 
L 159.419644 183.183949 
L 159.47413 175.062804 
L 159.580332 175.062804 
L 159.684601 166.941659 
L 159.844619 166.941659 
L 159.969518 183.183949 
L 160.103701 183.183949 
L 160.226764 175.062804 
L 160.375846 175.062804 
L 160.503812 158.820514 
L 160.68092 158.820514 
L 160.749647 150.699369 
L 160.788776 158.820514 
L 160.873735 158.820514 
L 160.924225 150.699369 
L 160.97675 158.820514 
L 160.999027 158.820514 
L 161.109232 150.699369 
L 161.123347 150.699369 
L 161.228761 166.941659 
L 161.539639 166.941659 
L 161.644126 175.062804 
L 161.719809 175.062804 
L 161.825997 183.183949 
L 161.944287 183.183949 
L 161.990929 175.062804 
L 162.041582 183.183949 
L 162.17471 183.183949 
L 162.275576 191.305093 
L 162.574717 191.305093 
L 162.717041 183.183949 
L 162.863399 183.183949 
L 163.010676 166.941659 
L 163.214646 166.941659 
L 163.332334 183.183949 
L 163.418565 183.183949 
L 163.615355 166.941659 
L 163.643997 175.062804 
L 163.720072 166.941659 
L 163.83266 166.941659 
L 163.932098 175.062804 
L 164.105208 175.062804 
L 164.142918 183.183949 
L 164.15383 166.941659 
L 164.191116 166.941659 
L 164.216247 166.941659 
L 164.331604 175.062804 
L 164.501416 175.062804 
L 164.615856 183.183949 
L 164.667577 183.183949 
L 164.718585 175.062804 
L 164.775249 183.183949 
L 165.304458 183.183949 
L 165.412199 175.062804 
L 165.625981 175.062804 
L 165.734867 166.941659 
L 165.887702 166.941659 
L 165.980763 158.820514 
L 165.994072 166.941659 
L 166.07875 166.941659 
L 166.157246 175.062804 
L 166.165419 166.941659 
L 166.229291 166.941659 
L 166.282023 175.062804 
L 166.337626 166.941659 
L 166.36645 166.941659 
L 166.444521 175.062804 
L 166.473837 166.941659 
L 166.580547 166.941659 
L 166.688068 158.820514 
L 166.735282 158.820514 
L 166.852913 150.699369 
L 167.035396 150.699369 
L 167.153605 166.941659 
L 167.226063 166.941659 
L 167.33407 175.062804 
L 167.392064 175.062804 
L 167.481869 183.183949 
L 168.249348 183.183949 
L 168.298346 191.305093 
L 168.358115 183.183949 
L 168.392449 183.183949 
L 168.503056 175.062804 
L 169.768514 175.062804 
L 169.875259 166.941659 
L 170.440492 166.941659 
L 170.55871 175.062804 
L 170.705984 175.062804 
L 170.824089 166.941659 
L 170.863961 166.941659 
L 170.956643 175.062804 
L 171.012317 175.062804 
L 171.154644 183.183949 
L 171.355395 183.183949 
L 171.489591 175.062804 
L 171.583524 175.062804 
L 171.706564 183.183949 
L 172.090597 183.183949 
L 172.184931 191.305093 
L 172.27364 183.183949 
L 173.030722 183.183949 
L 173.155859 158.820514 
L 173.193189 158.820514 
L 173.307587 166.941659 
L 173.43817 175.062804 
L 173.523907 175.062804 
L 173.634893 166.941659 
L 173.84347 166.941659 
L 173.988605 158.820514 
L 174.303196 158.820514 
L 174.424192 166.941659 
L 174.47253 166.941659 
L 174.644804 142.578225 
L 174.779651 142.578225 
L 174.889001 158.820514 
L 175.003773 158.820514 
L 175.1119 166.941659 
L 175.154141 166.941659 
L 175.242596 175.062804 
L 175.514241 175.062804 
L 175.523932 183.183949 
L 176.168375 183.183949 
L 176.282162 175.062804 
L 176.535645 175.062804 
L 176.653123 183.183949 
L 176.691949 183.183949 
L 176.754854 175.062804 
L 176.842375 183.183949 
L 176.864955 175.062804 
L 177.007204 175.062804 
L 177.112451 166.941659 
L 177.254654 166.941659 
L 177.329804 150.699369 
L 177.379157 158.820514 
L 177.440649 158.820514 
L 177.544918 166.941659 
L 177.564092 166.941659 
L 177.66508 158.820514 
L 177.668164 166.941659 
L 177.711389 166.941659 
L 177.814585 175.062804 
L 177.837544 175.062804 
L 177.954973 158.820514 
L 178.018112 158.820514 
L 178.132417 150.699369 
L 178.147762 158.820514 
L 178.228038 142.578225 
L 178.231363 142.578225 
L 178.424723 142.578225 
L 178.491058 150.699369 
L 178.501515 142.578225 
L 178.516771 126.335935 
L 178.561441 150.699369 
L 178.591548 150.699369 
L 178.650458 150.699369 
L 178.793742 166.941659 
L 178.905703 166.941659 
L 178.967048 183.183949 
L 179.005453 175.062804 
L 179.039002 175.062804 
L 179.161207 183.183949 
L 179.171212 183.183949 
L 179.29256 166.941659 
L 179.353825 166.941659 
L 179.455426 175.062804 
L 179.52406 175.062804 
L 179.643475 191.305093 
L 180.066224 191.305093 
L 180.148995 183.183949 
L 180.237485 191.305093 
L 180.387044 183.183949 
L 180.483664 183.183949 
L 180.554084 191.305093 
L 180.658128 183.183949 
L 180.75057 191.305093 
L 180.805105 191.305093 
L 180.948543 183.183949 
L 181.820987 183.183949 
L 182.194147 175.062804 
L 182.530425 175.062804 
L 182.542548 166.941659 
L 182.617998 175.062804 
L 182.795613 166.941659 
L 182.984028 166.941659 
L 183.065043 175.062804 
L 183.084769 166.941659 
L 183.300571 166.941659 
L 183.414265 183.183949 
L 183.44608 183.183949 
L 183.560066 166.941659 
L 183.643644 166.941659 
L 183.735945 158.820514 
L 184.000326 175.062804 
L 184.071644 158.820514 
L 184.103054 175.062804 
L 184.137496 175.062804 
L 184.257639 183.183949 
L 184.386039 175.062804 
L 184.481319 175.062804 
L 184.59792 166.941659 
L 184.631813 166.941659 
L 184.740107 175.062804 
L 184.835774 150.699369 
L 184.946201 150.699369 
L 185.03289 166.941659 
L 185.045959 158.820514 
L 185.121326 166.941659 
L 185.360202 166.941659 
L 185.472562 175.062804 
L 185.549029 175.062804 
L 185.675935 166.941659 
L 185.822034 166.941659 
L 185.938468 150.699369 
L 185.977814 142.578225 
L 186.024891 150.699369 
L 186.071377 150.699369 
L 186.2478 158.820514 
L 186.352148 158.820514 
L 186.469432 175.062804 
L 186.559844 183.183949 
L 186.994178 183.183949 
L 187.015105 175.062804 
L 187.04645 183.183949 
L 187.626344 183.183949 
L 187.792018 175.062804 
L 187.816831 183.183949 
L 187.972198 175.062804 
L 188.205901 175.062804 
L 188.226022 183.183949 
L 188.832705 183.183949 
L 188.882765 175.062804 
L 189.076489 183.183949 
L 189.299859 175.062804 
L 189.478411 175.062804 
L 189.520308 183.183949 
L 189.748955 183.183949 
L 189.968964 158.820514 
L 190.047589 158.820514 
L 190.113383 166.941659 
L 190.608326 166.941659 
L 190.684981 175.062804 
L 190.96023 175.062804 
L 191.027517 183.183949 
L 191.159977 183.183949 
L 191.321682 191.305093 
L 192.644549 191.305093 
L 192.907872 183.183949 
L 192.99241 175.062804 
L 193.005841 183.183949 
L 193.158495 175.062804 
L 193.304542 175.062804 
L 193.402249 183.183949 
L 193.612923 183.183949 
L 193.778615 175.062804 
L 194.007452 175.062804 
L 194.092766 166.941659 
L 194.09903 175.062804 
L 194.215918 175.062804 
L 194.331752 191.305093 
L 194.427565 191.305093 
L 194.735618 183.183949 
L 194.891908 175.062804 
L 195.632303 175.062804 
L 195.700154 158.820514 
L 195.782459 158.820514 
L 195.876514 175.062804 
L 195.877778 166.941659 
L 195.935555 166.941659 
L 195.957205 175.062804 
L 196.041193 166.941659 
L 196.187552 166.941659 
L 196.344408 175.062804 
L 196.91059 175.062804 
L 196.983044 158.820514 
L 197.114889 158.820514 
L 197.247553 142.578225 
L 197.379898 142.578225 
L 197.523161 166.941659 
L 197.534972 166.941659 
L 197.612608 183.183949 
L 197.662282 175.062804 
L 197.747785 175.062804 
L 197.817502 166.941659 
L 198.082055 175.062804 
L 198.198493 150.699369 
L 198.304113 150.699369 
L 198.374949 166.941659 
L 198.388518 158.820514 
L 198.584692 142.578225 
L 198.686394 142.578225 
L 198.71193 134.45708 
L 198.78675 142.578225 
L 198.898686 150.699369 
L 198.95175 150.699369 
L 199.057138 175.062804 
L 199.230868 175.062804 
L 199.318746 183.183949 
L 199.41597 166.941659 
L 199.682496 166.941659 
L 199.804868 175.062804 
L 200.072458 175.062804 
L 200.129615 166.941659 
L 200.174471 175.062804 
L 200.232052 175.062804 
L 200.34651 183.183949 
L 200.425425 175.062804 
L 200.490779 183.183949 
L 200.59986 183.183949 
L 200.648693 175.062804 
L 200.778237 175.062804 
L 200.937073 191.305093 
L 201.531933 191.305093 
L 201.648727 183.183949 
L 201.860319 183.183949 
L 201.933404 191.305093 
L 201.946107 183.183949 
L 202.11757 183.183949 
L 202.132364 166.941659 
L 202.425984 166.941659 
L 202.499295 158.820514 
L 202.657294 158.820514 
L 202.719002 142.578225 
L 202.905948 142.578225 
L 202.980178 166.941659 
L 203.333018 166.941659 
L 203.407678 158.820514 
L 203.655501 183.183949 
L 203.666105 175.062804 
L 203.725274 183.183949 
L 204.167712 183.183949 
L 204.19777 175.062804 
L 204.61001 175.062804 
L 204.838199 166.941659 
L 204.943552 175.062804 
L 205.0863 183.183949 
L 205.289444 166.941659 
L 205.574255 158.820514 
L 205.704267 158.820514 
L 205.827003 134.45708 
L 205.870472 134.45708 
L 205.984444 166.941659 
L 206.104415 158.820514 
L 206.224896 166.941659 
L 206.347542 175.062804 
L 206.570213 175.062804 
L 206.627762 166.941659 
L 206.7768 175.062804 
L 206.84705 166.941659 
L 206.928025 166.941659 
L 207.016555 175.062804 
L 207.445517 175.062804 
L 207.535374 191.305093 
L 207.759219 191.305093 
L 207.85932 183.183949 
L 207.979625 175.062804 
L 207.992656 183.183949 
L 208.056724 175.062804 
L 208.136909 175.062804 
L 208.32098 166.941659 
L 208.428468 158.820514 
L 208.489942 158.820514 
L 208.831507 191.305093 
L 209.064064 183.183949 
L 209.206379 183.183949 
L 209.360118 175.062804 
L 209.638745 183.183949 
L 209.728686 183.183949 
L 210.626611 191.305093 
L 227.700891 191.305093 
L 227.808968 183.183949 
L 228.638302 183.183949 
L 229.388372 191.305093 
L 231.051793 191.305093 
L 231.682713 175.062804 
L 231.94697 191.305093 
L 232.099978 183.183949 
L 232.241421 175.062804 
L 232.595444 175.062804 
L 232.682575 183.183949 
L 232.983913 191.305093 
L 238.548041 191.305093 
L 238.833299 166.941659 
L 239.044183 175.062804 
L 239.339042 166.941659 
L 239.853535 166.941659 
L 240.01002 191.305093 
L 240.587851 191.305093 
L 240.621573 183.183949 
L 241.115391 183.183949 
L 242.377586 191.305093 
L 247.776657 191.305093 
L 247.91043 183.183949 
L 247.944214 191.305093 
L 260.775513 191.305093 
L 261.222534 183.183949 
L 261.317998 191.305093 
L 263.433764 191.305093 
L 264.068422 183.183949 
L 265.152878 183.183949 
L 265.932743 191.305093 
L 270.328097 191.305093 
L 270.381152 183.183949 
L 270.513695 191.305093 
L 288.338812 191.305093 
L 288.364976 183.183949 
L 288.477444 191.305093 
L 288.61633 191.305093 
L 288.703717 183.183949 
L 289.066699 183.183949 
L 289.318893 191.305093 
L 301.770311 191.305093 
L 301.933674 175.062804 
L 302.219245 166.941659 
L 302.335372 158.820514 
L 302.336909 166.941659 
L 302.414066 158.820514 
L 302.567832 158.820514 
L 302.575408 166.941659 
L 302.697311 175.062804 
L 303.580572 191.305093 
L 304.834186 191.305093 
L 305.14043 183.183949 
L 305.28869 183.183949 
L 305.373849 191.305093 
L 312.422447 191.305093 
L 312.422447 191.305093 
" clip-path="url(#paa1867d48a)" style="fill: none; stroke: #000000; stroke-width: 1.5; stroke-linecap: square"/>
   </g>
   <g id="patch_8">
    <path d="M 44.103906 195.365666 
L 44.103906 106.033073 
" style="fill: none; stroke: #000000; stroke-width: 0.8; stroke-linejoin: miter; stroke-linecap: square"/>
   </g>
   <g id="patch_9">
    <path d="M 325.19952 195.365666 
L 325.19952 106.033073 
" style="fill: none; stroke: #000000; stroke-width: 0.8; stroke-linejoin: miter; stroke-linecap: square"/>
   </g>
   <g id="patch_10">
    <path d="M 44.103906 195.365666 
L 325.19952 195.365666 
" style="fill: none; stroke: #000000; stroke-width: 0.8; stroke-linejoin: miter; stroke-linecap: square"/>
   </g>
   <g id="patch_11">
    <path d="M 44.103906 106.033073 
L 325.19952 106.033073 
" style="fill: none; stroke: #000000; stroke-width: 0.8; stroke-linejoin: miter; stroke-linecap: square"/>
   </g>
  </g>
  <g id="axes_3">
   <g id="patch_12">
    <path d="M 44.103906 294.198739 
L 325.19952 294.198739 
L 325.19952 204.866146 
L 44.103906 204.866146 
z
" style="fill: #ffffff"/>
   </g>
   <g id="matplotlib.axis_5">
    <g id="xtick_19">
     <g id="line2d_27">
      <g>
       <use xlink:href="#m9be871834e" x="56.88098" y="294.198739" style="stroke: #000000; stroke-width: 0.8"/>
      </g>
     </g>
     <g id="text_9">
      <!-- 0 -->
      <g transform="translate(53.69973 308.796395) scale(0.1 -0.1)">
       <use xlink:href="#DejaVuSans-13"/>
      </g>
     </g>
    </g>
    <g id="xtick_20">
     <g id="line2d_28">
      <g>
       <use xlink:href="#m9be871834e" x="88.786266" y="294.198739" style="stroke: #000000; stroke-width: 0.8"/>
      </g>
     </g>
     <g id="text_10">
      <!-- 100 -->
      <g transform="translate(79.242516 308.796395) scale(0.1 -0.1)">
       <use xlink:href="#DejaVuSans-14"/>
       <use xlink:href="#DejaVuSans-13" transform="translate(63.625 0)"/>
       <use xlink:href="#DejaVuSans-13" transform="translate(127.25 0)"/>
      </g>
     </g>
    </g>
    <g id="xtick_21">
     <g id="line2d_29">
      <g>
       <use xlink:href="#m9be871834e" x="120.691552" y="294.198739" style="stroke: #000000; stroke-width: 0.8"/>
      </g>
     </g>
     <g id="text_11">
      <!-- 200 -->
      <g transform="translate(111.147802 308.796395) scale(0.1 -0.1)">
       <defs>
        <path id="DejaVuSans-15" d="M 1228 531 
L 3431 531 
L 3431 0 
L 469 0 
L 469 531 
Q 828 903 1448 1529 
Q 2069 2156 2228 2338 
Q 2531 2678 2651 2914 
Q 2772 3150 2772 3378 
Q 2772 3750 2511 3984 
Q 2250 4219 1831 4219 
Q 1534 4219 1204 4116 
Q 875 4013 500 3803 
L 500 4441 
Q 881 4594 1212 4672 
Q 1544 4750 1819 4750 
Q 2544 4750 2975 4387 
Q 3406 4025 3406 3419 
Q 3406 3131 3298 2873 
Q 3191 2616 2906 2266 
Q 2828 2175 2409 1742 
Q 1991 1309 1228 531 
z
" transform="scale(0.015625)"/>
       </defs>
       <use xlink:href="#DejaVuSans-15"/>
       <use xlink:href="#DejaVuSans-13" transform="translate(63.625 0)"/>
       <use xlink:href="#DejaVuSans-13" transform="translate(127.25 0)"/>
      </g>
     </g>
    </g>
    <g id="xtick_22">
     <g id="line2d_30">
      <g>
       <use xlink:href="#m9be871834e" x="152.596838" y="294.198739" style="stroke: #000000; stroke-width: 0.8"/>
      </g>
     </g>
     <g id="text_12">
      <!-- 300 -->
      <g transform="translate(143.053088 308.796395) scale(0.1 -0.1)">
       <defs>
        <path id="DejaVuSans-16" d="M 2597 2516 
Q 3050 2419 3304 2112 
Q 3559 1806 3559 1356 
Q 3559 666 3084 287 
Q 2609 -91 1734 -91 
Q 1441 -91 1130 -33 
Q 819 25 488 141 
L 488 750 
Q 750 597 1062 519 
Q 1375 441 1716 441 
Q 2309 441 2620 675 
Q 2931 909 2931 1356 
Q 2931 1769 2642 2001 
Q 2353 2234 1838 2234 
L 1294 2234 
L 1294 2753 
L 1863 2753 
Q 2328 2753 2575 2939 
Q 2822 3125 2822 3475 
Q 2822 3834 2567 4026 
Q 2313 4219 1838 4219 
Q 1578 4219 1281 4162 
Q 984 4106 628 3988 
L 628 4550 
Q 988 4650 1302 4700 
Q 1616 4750 1894 4750 
Q 2613 4750 3031 4423 
Q 3450 4097 3450 3541 
Q 3450 3153 3228 2886 
Q 3006 2619 2597 2516 
z
" transform="scale(0.015625)"/>
       </defs>
       <use xlink:href="#DejaVuSans-16"/>
       <use xlink:href="#DejaVuSans-13" transform="translate(63.625 0)"/>
       <use xlink:href="#DejaVuSans-13" transform="translate(127.25 0)"/>
      </g>
     </g>
    </g>
    <g id="xtick_23">
     <g id="line2d_31">
      <g>
       <use xlink:href="#m9be871834e" x="184.502124" y="294.198739" style="stroke: #000000; stroke-width: 0.8"/>
      </g>
     </g>
     <g id="text_13">
      <!-- 400 -->
      <g transform="translate(174.958374 308.796395) scale(0.1 -0.1)">
       <defs>
        <path id="DejaVuSans-17" d="M 2419 4116 
L 825 1625 
L 2419 1625 
L 2419 4116 
z
M 2253 4666 
L 3047 4666 
L 3047 1625 
L 3713 1625 
L 3713 1100 
L 3047 1100 
L 3047 0 
L 2419 0 
L 2419 1100 
L 313 1100 
L 313 1709 
L 2253 4666 
z
" transform="scale(0.015625)"/>
       </defs>
       <use xlink:href="#DejaVuSans-17"/>
       <use xlink:href="#DejaVuSans-13" transform="translate(63.625 0)"/>
       <use xlink:href="#DejaVuSans-13" transform="translate(127.25 0)"/>
      </g>
     </g>
    </g>
    <g id="xtick_24">
     <g id="line2d_32">
      <g>
       <use xlink:href="#m9be871834e" x="216.40741" y="294.198739" style="stroke: #000000; stroke-width: 0.8"/>
      </g>
     </g>
     <g id="text_14">
      <!-- 500 -->
      <g transform="translate(206.86366 308.796395) scale(0.1 -0.1)">
       <use xlink:href="#DejaVuSans-18"/>
       <use xlink:href="#DejaVuSans-13" transform="translate(63.625 0)"/>
       <use xlink:href="#DejaVuSans-13" transform="translate(127.25 0)"/>
      </g>
     </g>
    </g>
    <g id="xtick_25">
     <g id="line2d_33">
      <g>
       <use xlink:href="#m9be871834e" x="248.312696" y="294.198739" style="stroke: #000000; stroke-width: 0.8"/>
      </g>
     </g>
     <g id="text_15">
      <!-- 600 -->
      <g transform="translate(238.768946 308.796395) scale(0.1 -0.1)">
       <defs>
        <path id="DejaVuSans-19" d="M 2113 2584 
Q 1688 2584 1439 2293 
Q 1191 2003 1191 1497 
Q 1191 994 1439 701 
Q 1688 409 2113 409 
Q 2538 409 2786 701 
Q 3034 994 3034 1497 
Q 3034 2003 2786 2293 
Q 2538 2584 2113 2584 
z
M 3366 4563 
L 3366 3988 
Q 3128 4100 2886 4159 
Q 2644 4219 2406 4219 
Q 1781 4219 1451 3797 
Q 1122 3375 1075 2522 
Q 1259 2794 1537 2939 
Q 1816 3084 2150 3084 
Q 2853 3084 3261 2657 
Q 3669 2231 3669 1497 
Q 3669 778 3244 343 
Q 2819 -91 2113 -91 
Q 1303 -91 875 529 
Q 447 1150 447 2328 
Q 447 3434 972 4092 
Q 1497 4750 2381 4750 
Q 2619 4750 2861 4703 
Q 3103 4656 3366 4563 
z
" transform="scale(0.015625)"/>
       </defs>
       <use xlink:href="#DejaVuSans-19"/>
       <use xlink:href="#DejaVuSans-13" transform="translate(63.625 0)"/>
       <use xlink:href="#DejaVuSans-13" transform="translate(127.25 0)"/>
      </g>
     </g>
    </g>
    <g id="xtick_26">
     <g id="line2d_34">
      <g>
       <use xlink:href="#m9be871834e" x="280.217982" y="294.198739" style="stroke: #000000; stroke-width: 0.8"/>
      </g>
     </g>
     <g id="text_16">
      <!-- 700 -->
      <g transform="translate(270.674232 308.796395) scale(0.1 -0.1)">
       <defs>
        <path id="DejaVuSans-1a" d="M 525 4666 
L 3525 4666 
L 3525 4397 
L 1831 0 
L 1172 0 
L 2766 4134 
L 525 4134 
L 525 4666 
z
" transform="scale(0.015625)"/>
       </defs>
       <use xlink:href="#DejaVuSans-1a"/>
       <use xlink:href="#DejaVuSans-13" transform="translate(63.625 0)"/>
       <use xlink:href="#DejaVuSans-13" transform="translate(127.25 0)"/>
      </g>
     </g>
    </g>
    <g id="xtick_27">
     <g id="line2d_35">
      <g>
       <use xlink:href="#m9be871834e" x="312.123268" y="294.198739" style="stroke: #000000; stroke-width: 0.8"/>
      </g>
     </g>
     <g id="text_17">
      <!-- 800 -->
      <g transform="translate(302.579518 308.796395) scale(0.1 -0.1)">
       <defs>
        <path id="DejaVuSans-1b" d="M 2034 2216 
Q 1584 2216 1326 1975 
Q 1069 1734 1069 1313 
Q 1069 891 1326 650 
Q 1584 409 2034 409 
Q 2484 409 2743 651 
Q 3003 894 3003 1313 
Q 3003 1734 2745 1975 
Q 2488 2216 2034 2216 
z
M 1403 2484 
Q 997 2584 770 2862 
Q 544 3141 544 3541 
Q 544 4100 942 4425 
Q 1341 4750 2034 4750 
Q 2731 4750 3128 4425 
Q 3525 4100 3525 3541 
Q 3525 3141 3298 2862 
Q 3072 2584 2669 2484 
Q 3125 2378 3379 2068 
Q 3634 1759 3634 1313 
Q 3634 634 3220 271 
Q 2806 -91 2034 -91 
Q 1263 -91 848 271 
Q 434 634 434 1313 
Q 434 1759 690 2068 
Q 947 2378 1403 2484 
z
M 1172 3481 
Q 1172 3119 1398 2916 
Q 1625 2713 2034 2713 
Q 2441 2713 2670 2916 
Q 2900 3119 2900 3481 
Q 2900 3844 2670 4047 
Q 2441 4250 2034 4250 
Q 1625 4250 1398 4047 
Q 1172 3844 1172 3481 
z
" transform="scale(0.015625)"/>
       </defs>
       <use xlink:href="#DejaVuSans-1b"/>
       <use xlink:href="#DejaVuSans-13" transform="translate(63.625 0)"/>
       <use xlink:href="#DejaVuSans-13" transform="translate(127.25 0)"/>
      </g>
     </g>
    </g>
    <g id="text_18">
     <!-- Time -->
     <g transform="translate(172.415776 322.797176) scale(0.1 -0.1)">
      <defs>
       <path id="DejaVuSans-37" d="M -19 4666 
L 3928 4666 
L 3928 4134 
L 2272 4134 
L 2272 0 
L 1638 0 
L 1638 4134 
L -19 4134 
L -19 4666 
z
" transform="scale(0.015625)"/>
       <path id="DejaVuSans-4c" d="M 603 3500 
L 1178 3500 
L 1178 0 
L 603 0 
L 603 3500 
z
M 603 4863 
L 1178 4863 
L 1178 4134 
L 603 4134 
L 603 4863 
z
" transform="scale(0.015625)"/>
       <path id="DejaVuSans-50" d="M 3328 2828 
Q 3544 3216 3844 3400 
Q 4144 3584 4550 3584 
Q 5097 3584 5394 3201 
Q 5691 2819 5691 2113 
L 5691 0 
L 5113 0 
L 5113 2094 
Q 5113 2597 4934 2840 
Q 4756 3084 4391 3084 
Q 3944 3084 3684 2787 
Q 3425 2491 3425 1978 
L 3425 0 
L 2847 0 
L 2847 2094 
Q 2847 2600 2669 2842 
Q 2491 3084 2119 3084 
Q 1678 3084 1418 2786 
Q 1159 2488 1159 1978 
L 1159 0 
L 581 0 
L 581 3500 
L 1159 3500 
L 1159 2956 
Q 1356 3278 1631 3431 
Q 1906 3584 2284 3584 
Q 2666 3584 2933 3390 
Q 3200 3197 3328 2828 
z
" transform="scale(0.015625)"/>
      </defs>
      <use xlink:href="#DejaVuSans-37"/>
      <use xlink:href="#DejaVuSans-4c" transform="translate(58 0)"/>
      <use xlink:href="#DejaVuSans-50" transform="translate(85.78125 0)"/>
      <use xlink:href="#DejaVuSans-48" transform="translate(183.1875 0)"/>
     </g>
    </g>
   </g>
   <g id="matplotlib.axis_6">
    <g id="ytick_7">
     <g id="line2d_36">
      <g>
       <use xlink:href="#mf94ea3c3c6" x="44.103906" y="290.138166" style="stroke: #000000; stroke-width: 0.8"/>
      </g>
     </g>
     <g id="text_19">
      <!-- 0.0 -->
      <g transform="translate(21.200781 293.936994) scale(0.1 -0.1)">
       <defs>
        <path id="DejaVuSans-11" d="M 684 794 
L 1344 794 
L 1344 0 
L 684 0 
L 684 794 
z
" transform="scale(0.015625)"/>
       </defs>
       <use xlink:href="#DejaVuSans-13"/>
       <use xlink:href="#DejaVuSans-11" transform="translate(63.625 0)"/>
       <use xlink:href="#DejaVuSans-13" transform="translate(95.40625 0)"/>
      </g>
     </g>
    </g>
    <g id="ytick_8">
     <g id="line2d_37">
      <g>
       <use xlink:href="#mf94ea3c3c6" x="44.103906" y="249.532442" style="stroke: #000000; stroke-width: 0.8"/>
      </g>
     </g>
     <g id="text_20">
      <!-- 0.5 -->
      <g transform="translate(21.200781 253.33127) scale(0.1 -0.1)">
       <use xlink:href="#DejaVuSans-13"/>
       <use xlink:href="#DejaVuSans-11" transform="translate(63.625 0)"/>
       <use xlink:href="#DejaVuSans-18" transform="translate(95.40625 0)"/>
      </g>
     </g>
    </g>
    <g id="ytick_9">
     <g id="line2d_38">
      <g>
       <use xlink:href="#mf94ea3c3c6" x="44.103906" y="208.926718" style="stroke: #000000; stroke-width: 0.8"/>
      </g>
     </g>
     <g id="text_21">
      <!-- 1.0 -->
      <g transform="translate(21.200781 212.725546) scale(0.1 -0.1)">
       <use xlink:href="#DejaVuSans-14"/>
       <use xlink:href="#DejaVuSans-11" transform="translate(63.625 0)"/>
       <use xlink:href="#DejaVuSans-13" transform="translate(95.40625 0)"/>
      </g>
     </g>
    </g>
    <g id="text_22">
     <!-- Free lac operon -->
     <g transform="translate(14.798438 288.006661) rotate(-90) scale(0.1 -0.1)">
      <defs>
       <path id="DejaVuSans-29" d="M 628 4666 
L 3309 4666 
L 3309 4134 
L 1259 4134 
L 1259 2759 
L 3109 2759 
L 3109 2228 
L 1259 2228 
L 1259 0 
L 628 0 
L 628 4666 
z
" transform="scale(0.015625)"/>
       <path id="DejaVuSans-53" d="M 1159 525 
L 1159 -1331 
L 581 -1331 
L 581 3500 
L 1159 3500 
L 1159 2969 
Q 1341 3281 1617 3432 
Q 1894 3584 2278 3584 
Q 2916 3584 3314 3078 
Q 3713 2572 3713 1747 
Q 3713 922 3314 415 
Q 2916 -91 2278 -91 
Q 1894 -91 1617 61 
Q 1341 213 1159 525 
z
M 3116 1747 
Q 3116 2381 2855 2742 
Q 2594 3103 2138 3103 
Q 1681 3103 1420 2742 
Q 1159 2381 1159 1747 
Q 1159 1113 1420 752 
Q 1681 391 2138 391 
Q 2594 391 2855 752 
Q 3116 1113 3116 1747 
z
" transform="scale(0.015625)"/>
       <path id="DejaVuSans-51" d="M 3513 2113 
L 3513 0 
L 2938 0 
L 2938 2094 
Q 2938 2591 2744 2837 
Q 2550 3084 2163 3084 
Q 1697 3084 1428 2787 
Q 1159 2491 1159 1978 
L 1159 0 
L 581 0 
L 581 3500 
L 1159 3500 
L 1159 2956 
Q 1366 3272 1645 3428 
Q 1925 3584 2291 3584 
Q 2894 3584 3203 3211 
Q 3513 2838 3513 2113 
z
" transform="scale(0.015625)"/>
      </defs>
      <use xlink:href="#DejaVuSans-29"/>
      <use xlink:href="#DejaVuSans-55" transform="translate(50.234375 0)"/>
      <use xlink:href="#DejaVuSans-48" transform="translate(89.140625 0)"/>
      <use xlink:href="#DejaVuSans-48" transform="translate(150.671875 0)"/>
      <use xlink:href="#DejaVuSans-3" transform="translate(212.203125 0)"/>
      <use xlink:href="#DejaVuSans-4f" transform="translate(243.984375 0)"/>
      <use xlink:href="#DejaVuSans-44" transform="translate(271.765625 0)"/>
      <use xlink:href="#DejaVuSans-46" transform="translate(333.046875 0)"/>
      <use xlink:href="#DejaVuSans-3" transform="translate(388.03125 0)"/>
      <use xlink:href="#DejaVuSans-52" transform="translate(419.8125 0)"/>
      <use xlink:href="#DejaVuSans-53" transform="translate(481 0)"/>
      <use xlink:href="#DejaVuSans-48" transform="translate(544.484375 0)"/>
      <use xlink:href="#DejaVuSans-55" transform="translate(606.015625 0)"/>
      <use xlink:href="#DejaVuSans-52" transform="translate(644.921875 0)"/>
      <use xlink:href="#DejaVuSans-51" transform="translate(706.109375 0)"/>
     </g>
    </g>
   </g>
   <g id="line2d_39">
    <path d="M 56.88098 208.926718 
L 56.962582 290.138166 
L 57.131051 290.138166 
L 57.300814 208.926718 
L 57.419108 208.926718 
L 57.52135 290.138166 
L 58.738939 290.138166 
L 59.729851 208.926718 
L 59.916395 208.926718 
L 59.939164 290.138166 
L 62.363225 290.138166 
L 64.960545 208.926718 
L 65.255759 208.926718 
L 65.393352 290.138166 
L 65.51936 290.138166 
L 72.188978 208.926718 
L 72.358951 290.138166 
L 80.206999 208.926718 
L 80.256089 290.138166 
L 82.885387 208.926718 
L 83.025528 208.926718 
L 83.079748 290.138166 
L 84.821957 290.138166 
L 84.887461 208.926718 
L 85.764694 208.926718 
L 85.954876 290.138166 
L 86.988827 290.138166 
L 89.984643 208.926718 
L 90.525228 208.926718 
L 90.554538 290.138166 
L 90.91283 290.138166 
L 91.795168 208.926718 
L 91.853677 290.138166 
L 92.197888 290.138166 
L 109.291035 208.926718 
L 109.304751 290.138166 
L 109.563492 290.138166 
L 109.839915 208.926718 
L 110.127576 290.138166 
L 110.255782 208.926718 
L 110.663966 208.926718 
L 110.868766 290.138166 
L 111.161719 290.138166 
L 115.328282 208.926718 
L 115.989606 290.138166 
L 117.63338 208.926718 
L 117.948944 290.138166 
L 118.622078 208.926718 
L 118.709495 290.138166 
L 119.71992 208.926718 
L 119.804919 290.138166 
L 123.751907 290.138166 
L 129.7771 208.926718 
L 129.883159 290.138166 
L 131.627268 208.926718 
L 132.078536 208.926718 
L 132.099999 290.138166 
L 133.942229 290.138166 
L 136.540606 208.926718 
L 136.553927 290.138166 
L 139.438021 208.926718 
L 139.480797 290.138166 
L 146.531515 208.926718 
L 147.476834 208.926718 
L 147.545218 290.138166 
L 148.162293 290.138166 
L 148.407583 208.926718 
L 148.722793 208.926718 
L 148.835658 290.138166 
L 149.907392 290.138166 
L 150.419359 208.926718 
L 150.520218 290.138166 
L 151.642489 290.138166 
L 151.653822 208.926718 
L 151.815529 290.138166 
L 156.128546 208.926718 
L 156.217573 290.138166 
L 156.467153 208.926718 
L 189.968964 208.926718 
L 190.113383 290.138166 
L 191.859512 290.138166 
L 192.165696 208.926718 
L 207.422935 208.926718 
L 207.535374 290.138166 
L 207.688393 290.138166 
L 207.85932 208.926718 
L 209.638745 208.926718 
L 209.728686 290.138166 
L 215.102947 290.138166 
L 217.583523 208.926718 
L 217.666331 290.138166 
L 222.741931 208.926718 
L 222.91408 290.138166 
L 226.131812 290.138166 
L 227.780525 208.926718 
L 227.808968 290.138166 
L 229.388372 290.138166 
L 231.051793 208.926718 
L 232.241421 208.926718 
L 232.289622 290.138166 
L 233.52835 290.138166 
L 238.651859 208.926718 
L 239.339042 208.926718 
L 239.607706 290.138166 
L 240.185384 290.138166 
L 240.621573 208.926718 
L 240.770708 290.138166 
L 242.978834 290.138166 
L 244.65429 208.926718 
L 244.70897 290.138166 
L 247.850272 208.926718 
L 247.944214 290.138166 
L 248.572208 290.138166 
L 252.558596 208.926718 
L 252.771117 290.138166 
L 253.090582 208.926718 
L 253.155152 290.138166 
L 260.775513 208.926718 
L 261.312053 208.926718 
L 261.317998 290.138166 
L 261.832037 290.138166 
L 263.433764 208.926718 
L 263.983146 208.926718 
L 264.068422 290.138166 
L 265.089538 290.138166 
L 265.147618 208.926718 
L 265.152878 290.138166 
L 265.932743 290.138166 
L 270.381152 208.926718 
L 270.474618 208.926718 
L 270.513695 290.138166 
L 271.700499 290.138166 
L 288.364976 208.926718 
L 288.470465 208.926718 
L 288.477444 290.138166 
L 288.703717 208.926718 
L 289.066699 290.138166 
L 289.318893 290.138166 
L 295.284395 208.926718 
L 295.305452 290.138166 
L 301.831076 208.926718 
L 302.461839 208.926718 
L 302.575408 290.138166 
L 303.580572 290.138166 
L 304.834186 208.926718 
L 305.045632 208.926718 
L 305.14043 290.138166 
L 305.297231 208.926718 
L 305.373849 290.138166 
L 305.999282 208.926718 
L 306.31934 290.138166 
L 312.422447 208.926718 
L 312.422447 208.926718 
" clip-path="url(#p27312197c7)" style="fill: none; stroke: #000000; stroke-width: 1.5; stroke-linecap: square"/>
   </g>
   <g id="patch_13">
    <path d="M 44.103906 294.198739 
L 44.103906 204.866146 
" style="fill: none; stroke: #000000; stroke-width: 0.8; stroke-linejoin: miter; stroke-linecap: square"/>
   </g>
   <g id="patch_14">
    <path d="M 325.19952 294.198739 
L 325.19952 204.866146 
" style="fill: none; stroke: #000000; stroke-width: 0.8; stroke-linejoin: miter; stroke-linecap: square"/>
   </g>
   <g id="patch_15">
    <path d="M 44.103906 294.198739 
L 325.19952 294.198739 
" style="fill: none; stroke: #000000; stroke-width: 0.8; stroke-linejoin: miter; stroke-linecap: square"/>
   </g>
   <g id="patch_16">
    <path d="M 44.103906 204.866146 
L 325.19952 204.866146 
" style="fill: none; stroke: #000000; stroke-width: 0.8; stroke-linejoin: miter; stroke-linecap: square"/>
   </g>
  </g>
 </g>
 <defs>
  <clipPath id="p327048270f">
   <rect x="44.103906" y="7.2" width="281.095614" height="89.332593"/>
  </clipPath>
  <clipPath id="paa1867d48a">
   <rect x="44.103906" y="106.033073" width="281.095614" height="89.332593"/>
  </clipPath>
  <clipPath id="p27312197c7">
   <rect x="44.103906" y="204.866146" width="281.095614" height="89.332593"/>
  </clipPath>
 </defs>
</svg>
