<?xml version="1.0" encoding="utf-8" standalone="no"?>
<!DOCTYPE svg PUBLIC "-//W3C//DTD SVG 1.1//EN"
  "http://www.w3.org/Graphics/SVG/1.1/DTD/svg11.dtd">
<svg xmlns:xlink="http://www.w3.org/1999/xlink" width="332.39952pt" height="332.39952pt" viewBox="0 0 332.39952 332.39952" xmlns="http://www.w3.org/2000/svg" version="1.1">
 <metadata>
  <rdf:RDF xmlns:dc="http://purl.org/dc/elements/1.1/" xmlns:cc="http://creativecommons.org/ns#" xmlns:rdf="http://www.w3.org/1999/02/22-rdf-syntax-ns#">
   <cc:Work>
    <dc:type rdf:resource="http://purl.org/dc/dcmitype/StillImage"/>
    <dc:date>2026-07-15T15:08:01.783132</dc:date>
    <dc:format>image/svg+xml</dc:format>
    <dc:creator>
     <cc:Agent>
      <dc:title>Matplotlib v3.11.0, https://matplotlib.org/</dc:title>
     </cc:Agent>
    </dc:creator>
   </cc:Work>
  </rdf:RDF>
 </metadata>
 <defs>
  <style type="text/css">*{stroke-linejoin: round; stroke-linecap: butt}</style>
 </defs>
 <g id="figure_1">
  <g id="patch_1">
   <path d="M 0 332.39952 
L 332.39952 332.39952 
L 332.39952 0 
L 0 0 
z
" style="fill: #ffffff"/>
  </g>
  <g id="axes_1">
   <g id="patch_2">
    <path d="M 44.103906 96.532593 
L 325.19952 96.532593 
L 325.19952 7.2 
L 44.103906 7.2 
z
" style="fill: #ffffff"/>
   </g>
   <g id="matplotlib.axis_1">
    <g id="xtick_1">
     <g id="line2d_1">
      <defs>
       <path id="mad5a020872" d="M 0 0 
L 0 3.5 
" style="stroke: #000000; stroke-width: 0.8"/>
      </defs>
      <g>
       <use xlink:href="#mad5a020872" x="56.88098" y="96.532593" style="stroke: #000000; stroke-width: 0.8"/>
      </g>
     </g>
    </g>
    <g id="xtick_2">
     <g id="line2d_2">
      <g>
       <use xlink:href="#mad5a020872" x="88.794003" y="96.532593" style="stroke: #000000; stroke-width: 0.8"/>
      </g>
     </g>
    </g>
    <g id="xtick_3">
     <g id="line2d_3">
      <g>
       <use xlink:href="#mad5a020872" x="120.707027" y="96.532593" style="stroke: #000000; stroke-width: 0.8"/>
      </g>
     </g>
    </g>
    <g id="xtick_4">
     <g id="line2d_4">
      <g>
       <use xlink:href="#mad5a020872" x="152.620051" y="96.532593" style="stroke: #000000; stroke-width: 0.8"/>
      </g>
     </g>
    </g>
    <g id="xtick_5">
     <g id="line2d_5">
      <g>
       <use xlink:href="#mad5a020872" x="184.533075" y="96.532593" style="stroke: #000000; stroke-width: 0.8"/>
      </g>
     </g>
    </g>
    <g id="xtick_6">
     <g id="line2d_6">
      <g>
       <use xlink:href="#mad5a020872" x="216.446098" y="96.532593" style="stroke: #000000; stroke-width: 0.8"/>
      </g>
     </g>
    </g>
    <g id="xtick_7">
     <g id="line2d_7">
      <g>
       <use xlink:href="#mad5a020872" x="248.359122" y="96.532593" style="stroke: #000000; stroke-width: 0.8"/>
      </g>
     </g>
    </g>
    <g id="xtick_8">
     <g id="line2d_8">
      <g>
       <use xlink:href="#mad5a020872" x="280.272146" y="96.532593" style="stroke: #000000; stroke-width: 0.8"/>
      </g>
     </g>
    </g>
    <g id="xtick_9">
     <g id="line2d_9">
      <g>
       <use xlink:href="#mad5a020872" x="312.18517" y="96.532593" style="stroke: #000000; stroke-width: 0.8"/>
      </g>
     </g>
    </g>
   </g>
   <g id="matplotlib.axis_2">
    <g id="ytick_1">
     <g id="line2d_10">
      <defs>
       <path id="mce4fdcb9b5" d="M 0 0 
L -3.5 0 
" style="stroke: #000000; stroke-width: 0.8"/>
      </defs>
      <g>
       <use xlink:href="#mce4fdcb9b5" x="44.103906" y="92.472021" style="stroke: #000000; stroke-width: 0.8"/>
      </g>
     </g>
     <g id="text_1">
      <!-- 0 -->
      <g transform="translate(30.741406 96.270849) scale(0.1 -0.1)">
       <defs>
        <path id="DejaVuSans-13" d="M 2034 4250 
Q 1547 4250 1301 3770 
Q 1056 3291 1056 2328 
Q 1056 1369 1301 889 
Q 1547 409 2034 409 
Q 2525 409 2770 889 
Q 3016 1369 3016 2328 
Q 3016 3291 2770 3770 
Q 2525 4250 2034 4250 
z
M 2034 4750 
Q 2819 4750 3233 4129 
Q 3647 3509 3647 2328 
Q 3647 1150 3233 529 
Q 2819 -91 2034 -91 
Q 1250 -91 836 529 
Q 422 1150 422 2328 
Q 422 3509 836 4129 
Q 1250 4750 2034 4750 
z
" transform="scale(0.015625)"/>
       </defs>
       <use xlink:href="#DejaVuSans-13"/>
      </g>
     </g>
    </g>
    <g id="ytick_2">
     <g id="line2d_11">
      <g>
       <use xlink:href="#mce4fdcb9b5" x="44.103906" y="51.866296" style="stroke: #000000; stroke-width: 0.8"/>
      </g>
     </g>
     <g id="text_2">
      <!-- 5 -->
      <g transform="translate(30.741406 55.665125) scale(0.1 -0.1)">
       <defs>
        <path id="DejaVuSans-18" d="M 691 4666 
L 3169 4666 
L 3169 4134 
L 1269 4134 
L 1269 2991 
Q 1406 3038 1543 3061 
Q 1681 3084 1819 3084 
Q 2600 3084 3056 2656 
Q 3513 2228 3513 1497 
Q 3513 744 3044 326 
Q 2575 -91 1722 -91 
Q 1428 -91 1123 -41 
Q 819 9 494 109 
L 494 744 
Q 775 591 1075 516 
Q 1375 441 1709 441 
Q 2250 441 2565 725 
Q 2881 1009 2881 1497 
Q 2881 1984 2565 2268 
Q 2250 2553 1709 2553 
Q 1456 2553 1204 2497 
Q 953 2441 691 2322 
L 691 4666 
z
" transform="scale(0.015625)"/>
       </defs>
       <use xlink:href="#DejaVuSans-18"/>
      </g>
     </g>
    </g>
    <g id="ytick_3">
     <g id="line2d_12">
      <g>
       <use xlink:href="#mce4fdcb9b5" x="44.103906" y="11.260572" style="stroke: #000000; stroke-width: 0.8"/>
      </g>
     </g>
     <g id="text_3">
      <!-- 10 -->
      <g transform="translate(24.378906 15.059401) scale(0.1 -0.1)">
       <defs>
        <path id="DejaVuSans-14" d="M 794 531 
L 1825 531 
L 1825 4091 
L 703 3866 
L 703 4441 
L 1819 4666 
L 2450 4666 
L 2450 531 
L 3481 531 
L 3481 0 
L 794 0 
L 794 531 
z
" transform="scale(0.015625)"/>
       </defs>
       <use xlink:href="#DejaVuSans-14"/>
       <use xlink:href="#DejaVuSans-13" transform="translate(63.625 0)"/>
      </g>
     </g>
    </g>
    <g id="text_4">
     <!-- Extracellular lactose -->
     <g transform="translate(17.976563 102.838171) rotate(-90) scale(0.1 -0.1)">
      <defs>
       <path id="DejaVuSans-28" d="M 628 4666 
L 3578 4666 
L 3578 4134 
L 1259 4134 
L 1259 2753 
L 3481 2753 
L 3481 2222 
L 1259 2222 
L 1259 531 
L 3634 531 
L 3634 0 
L 628 0 
L 628 4666 
z
" transform="scale(0.015625)"/>
       <path id="DejaVuSans-5b" d="M 3513 3500 
L 2247 1797 
L 3578 0 
L 2900 0 
L 1881 1375 
L 863 0 
L 184 0 
L 1544 1831 
L 300 3500 
L 978 3500 
L 1906 2253 
L 2834 3500 
L 3513 3500 
z
" transform="scale(0.015625)"/>
       <path id="DejaVuSans-57" d="M 1172 4494 
L 1172 3500 
L 2356 3500 
L 2356 3053 
L 1172 3053 
L 1172 1153 
Q 1172 725 1289 603 
Q 1406 481 1766 481 
L 2356 481 
L 2356 0 
L 1766 0 
Q 1100 0 847 248 
Q 594 497 594 1153 
L 594 3053 
L 172 3053 
L 172 3500 
L 594 3500 
L 594 4494 
L 1172 4494 
z
" transform="scale(0.015625)"/>
       <path id="DejaVuSans-55" d="M 2631 2963 
Q 2534 3019 2420 3045 
Q 2306 3072 2169 3072 
Q 1681 3072 1420 2755 
Q 1159 2438 1159 1844 
L 1159 0 
L 581 0 
L 581 3500 
L 1159 3500 
L 1159 2956 
Q 1341 3275 1631 3429 
Q 1922 3584 2338 3584 
Q 2397 3584 2469 3576 
Q 2541 3569 2628 3553 
L 2631 2963 
z
" transform="scale(0.015625)"/>
       <path id="DejaVuSans-44" d="M 2194 1759 
Q 1497 1759 1228 1600 
Q 959 1441 959 1056 
Q 959 750 1161 570 
Q 1363 391 1709 391 
Q 2188 391 2477 730 
Q 2766 1069 2766 1631 
L 2766 1759 
L 2194 1759 
z
M 3341 1997 
L 3341 0 
L 2766 0 
L 2766 531 
Q 2569 213 2275 61 
Q 1981 -91 1556 -91 
Q 1019 -91 701 211 
Q 384 513 384 1019 
Q 384 1609 779 1909 
Q 1175 2209 1959 2209 
L 2766 2209 
L 2766 2266 
Q 2766 2663 2505 2880 
Q 2244 3097 1772 3097 
Q 1472 3097 1187 3025 
Q 903 2953 641 2809 
L 641 3341 
Q 956 3463 1253 3523 
Q 1550 3584 1831 3584 
Q 2591 3584 2966 3190 
Q 3341 2797 3341 1997 
z
" transform="scale(0.015625)"/>
       <path id="DejaVuSans-46" d="M 3122 3366 
L 3122 2828 
Q 2878 2963 2633 3030 
Q 2388 3097 2138 3097 
Q 1578 3097 1268 2742 
Q 959 2388 959 1747 
Q 959 1106 1268 751 
Q 1578 397 2138 397 
Q 2388 397 2633 464 
Q 2878 531 3122 666 
L 3122 134 
Q 2881 22 2623 -34 
Q 2366 -91 2075 -91 
Q 1284 -91 818 406 
Q 353 903 353 1747 
Q 353 2603 823 3093 
Q 1294 3584 2113 3584 
Q 2378 3584 2631 3529 
Q 2884 3475 3122 3366 
z
" transform="scale(0.015625)"/>
       <path id="DejaVuSans-48" d="M 3597 1894 
L 3597 1613 
L 953 1613 
Q 991 1019 1311 708 
Q 1631 397 2203 397 
Q 2534 397 2845 478 
Q 3156 559 3463 722 
L 3463 178 
Q 3153 47 2828 -22 
Q 2503 -91 2169 -91 
Q 1331 -91 842 396 
Q 353 884 353 1716 
Q 353 2575 817 3079 
Q 1281 3584 2069 3584 
Q 2775 3584 3186 3129 
Q 3597 2675 3597 1894 
z
M 3022 2063 
Q 3016 2534 2758 2815 
Q 2500 3097 2075 3097 
Q 1594 3097 1305 2825 
Q 1016 2553 972 2059 
L 3022 2063 
z
" transform="scale(0.015625)"/>
       <path id="DejaVuSans-4f" d="M 603 4863 
L 1178 4863 
L 1178 0 
L 603 0 
L 603 4863 
z
" transform="scale(0.015625)"/>
       <path id="DejaVuSans-58" d="M 544 1381 
L 544 3500 
L 1119 3500 
L 1119 1403 
Q 1119 906 1312 657 
Q 1506 409 1894 409 
Q 2359 409 2629 706 
Q 2900 1003 2900 1516 
L 2900 3500 
L 3475 3500 
L 3475 0 
L 2900 0 
L 2900 538 
Q 2691 219 2414 64 
Q 2138 -91 1772 -91 
Q 1169 -91 856 284 
Q 544 659 544 1381 
z
M 1991 3584 
L 1991 3584 
z
" transform="scale(0.015625)"/>
       <path id="DejaVuSans-3" transform="scale(0.015625)"/>
       <path id="DejaVuSans-52" d="M 1959 3097 
Q 1497 3097 1228 2736 
Q 959 2375 959 1747 
Q 959 1119 1226 758 
Q 1494 397 1959 397 
Q 2419 397 2687 759 
Q 2956 1122 2956 1747 
Q 2956 2369 2687 2733 
Q 2419 3097 1959 3097 
z
M 1959 3584 
Q 2709 3584 3137 3096 
Q 3566 2609 3566 1747 
Q 3566 888 3137 398 
Q 2709 -91 1959 -91 
Q 1206 -91 779 398 
Q 353 888 353 1747 
Q 353 2609 779 3096 
Q 1206 3584 1959 3584 
z
" transform="scale(0.015625)"/>
       <path id="DejaVuSans-56" d="M 2834 3397 
L 2834 2853 
Q 2591 2978 2328 3040 
Q 2066 3103 1784 3103 
Q 1356 3103 1142 2972 
Q 928 2841 928 2578 
Q 928 2378 1081 2264 
Q 1234 2150 1697 2047 
L 1894 2003 
Q 2506 1872 2764 1633 
Q 3022 1394 3022 966 
Q 3022 478 2636 193 
Q 2250 -91 1575 -91 
Q 1294 -91 989 -36 
Q 684 19 347 128 
L 347 722 
Q 666 556 975 473 
Q 1284 391 1588 391 
Q 1994 391 2212 530 
Q 2431 669 2431 922 
Q 2431 1156 2273 1281 
Q 2116 1406 1581 1522 
L 1381 1569 
Q 847 1681 609 1914 
Q 372 2147 372 2553 
Q 372 3047 722 3315 
Q 1072 3584 1716 3584 
Q 2034 3584 2315 3537 
Q 2597 3491 2834 3397 
z
" transform="scale(0.015625)"/>
      </defs>
      <use xlink:href="#DejaVuSans-28"/>
      <use xlink:href="#DejaVuSans-5b" transform="translate(63.1875 0)"/>
      <use xlink:href="#DejaVuSans-57" transform="translate(122.375 0)"/>
      <use xlink:href="#DejaVuSans-55" transform="translate(161.578125 0)"/>
      <use xlink:href="#DejaVuSans-44" transform="translate(202.6875 0)"/>
      <use xlink:href="#DejaVuSans-46" transform="translate(263.96875 0)"/>
      <use xlink:href="#DejaVuSans-48" transform="translate(318.953125 0)"/>
      <use xlink:href="#DejaVuSans-4f" transform="translate(380.484375 0)"/>
      <use xlink:href="#DejaVuSans-4f" transform="translate(408.265625 0)"/>
      <use xlink:href="#DejaVuSans-58" transform="translate(436.046875 0)"/>
      <use xlink:href="#DejaVuSans-4f" transform="translate(499.421875 0)"/>
      <use xlink:href="#DejaVuSans-44" transform="translate(527.203125 0)"/>
      <use xlink:href="#DejaVuSans-55" transform="translate(588.484375 0)"/>
      <use xlink:href="#DejaVuSans-3" transform="translate(629.59375 0)"/>
      <use xlink:href="#DejaVuSans-4f" transform="translate(661.375 0)"/>
      <use xlink:href="#DejaVuSans-44" transform="translate(689.15625 0)"/>
      <use xlink:href="#DejaVuSans-46" transform="translate(750.4375 0)"/>
      <use xlink:href="#DejaVuSans-57" transform="translate(805.421875 0)"/>
      <use xlink:href="#DejaVuSans-52" transform="translate(844.625 0)"/>
      <use xlink:href="#DejaVuSans-56" transform="translate(905.8125 0)"/>
      <use xlink:href="#DejaVuSans-48" transform="translate(957.90625 0)"/>
     </g>
    </g>
   </g>
   <g id="line2d_13">
    <path d="M 56.88098 92.472021 
L 156.152616 92.472021 
L 156.241664 11.260572 
L 156.909283 11.341784 
L 157.026905 11.66663 
L 157.071695 11.747841 
L 157.217808 13.209647 
L 157.336084 14.833876 
L 157.349905 14.915088 
L 157.493338 16.620528 
L 157.516874 16.701739 
L 158.026171 20.193832 
L 158.303247 20.599889 
L 158.362507 20.6811 
L 158.471622 20.762312 
L 158.921967 20.843523 
L 159.018774 21.249581 
L 159.259438 21.655638 
L 159.359843 22.061695 
L 159.480339 22.142906 
L 159.583026 22.630175 
L 159.613005 22.711387 
L 159.721913 23.604713 
L 159.819089 24.498038 
L 160.157985 25.878633 
L 160.203946 25.959845 
L 160.439973 27.340439 
L 160.638352 28.802245 
L 160.657161 28.883457 
L 160.936486 31.238589 
L 160.963995 31.3198 
L 161.069585 32.050703 
L 161.169899 32.131915 
L 161.281309 32.619183 
L 161.331492 32.700395 
L 161.449009 33.512509 
L 161.475866 33.593721 
L 161.586006 34.080989 
L 161.674614 34.162201 
L 161.840906 34.893104 
L 162.003694 34.974315 
L 162.154505 35.380372 
L 162.336999 35.624007 
L 162.881024 35.705218 
L 163.005535 36.111276 
L 163.339341 36.679756 
L 163.434298 36.760967 
L 163.578854 37.329447 
L 163.61803 37.410659 
L 163.675226 37.49187 
L 163.970892 37.573082 
L 164.044335 37.654293 
L 165.84218 37.735504 
L 166.369473 38.466408 
L 166.637961 38.62883 
L 166.855902 38.710042 
L 166.972744 39.440945 
L 168.278664 39.522156 
L 168.357337 39.603368 
L 168.495314 39.684579 
L 168.821968 40.983962 
L 168.912879 41.065174 
L 168.9421 41.308808 
L 169.097231 41.471231 
L 169.212803 42.039711 
L 169.334125 42.283346 
L 169.4182 42.364557 
L 169.537105 42.689403 
L 169.791788 43.826363 
L 170.001355 45.125746 
L 170.08878 45.206958 
L 170.429158 46.343918 
L 170.564666 46.425129 
L 170.706965 47.074821 
L 170.746789 47.156032 
L 170.96575 48.374204 
L 171.093487 49.105107 
L 171.209507 49.348742 
L 171.781928 50.729336 
L 172.108406 50.810548 
L 172.417968 51.622662 
L 172.628355 52.759622 
L 172.660796 52.840834 
L 172.760162 53.409314 
L 172.814747 53.490525 
L 172.951493 53.977794 
L 173.012894 54.059006 
L 173.200293 55.683235 
L 173.22606 55.764446 
L 173.37432 57.469886 
L 173.601574 59.418961 
L 173.744393 60.149864 
L 173.790205 60.231076 
L 173.895909 60.718344 
L 173.958759 60.799556 
L 174.067108 61.286824 
L 174.172409 61.368036 
L 174.304137 61.692882 
L 175.245149 61.774093 
L 175.449293 62.342573 
L 175.559688 62.586208 
L 175.687347 62.667419 
L 175.845738 63.154688 
L 175.861045 63.235899 
L 175.986903 63.723168 
L 176.011896 63.804379 
L 176.151793 64.129225 
L 176.362812 64.454071 
L 176.424534 64.535282 
L 176.551808 65.428608 
L 176.5732 65.50982 
L 177.37317 68.839489 
L 177.49587 69.326758 
L 177.509548 69.407969 
L 177.632402 69.976449 
L 177.837246 70.707352 
L 177.913019 70.788564 
L 178.024079 71.11341 
L 178.219491 71.763101 
L 179.334701 71.844313 
L 179.482804 72.006736 
L 179.542936 72.087947 
L 179.638317 72.494004 
L 179.967674 72.981273 
L 180.139115 73.062484 
L 180.198994 73.306119 
L 180.367263 73.38733 
L 180.51402 73.549753 
L 181.210108 73.630965 
L 181.318238 73.793387 
L 181.353826 73.874599 
L 181.424229 73.95581 
L 181.51464 74.037022 
L 181.592989 74.118233 
L 183.06397 74.199445 
L 183.185963 74.52429 
L 183.224055 74.605502 
L 183.391857 74.849136 
L 183.457802 74.930348 
L 183.701746 75.255194 
L 183.937252 75.580039 
L 184.030294 75.904885 
L 184.09209 75.986097 
L 184.251069 76.310942 
L 184.619781 76.960634 
L 184.741921 77.610326 
L 184.850609 77.691537 
L 184.98102 77.85396 
L 187.039907 77.935171 
L 187.127393 78.097594 
L 187.284694 78.178806 
L 187.613714 78.42244 
L 187.674892 78.503651 
L 187.940177 78.584863 
L 188.028852 78.828497 
L 188.207775 78.909709 
L 188.309319 79.072132 
L 188.406616 79.153343 
L 188.923725 80.209092 
L 188.998699 80.290303 
L 189.088694 80.615149 
L 189.183516 80.696361 
L 189.346258 80.777572 
L 189.397129 80.939995 
L 189.613991 81.021206 
L 189.708774 81.102418 
L 190.065284 81.183629 
L 190.195724 81.427264 
L 190.39616 81.508475 
L 190.508752 81.752109 
L 190.658949 81.995744 
L 190.890927 82.076955 
L 191.39372 82.726647 
L 191.528093 82.807858 
L 191.861422 82.88907 
L 191.977734 83.051493 
L 192.124235 83.132704 
L 192.600438 83.213915 
L 192.759962 83.376338 
L 193.050027 83.45755 
L 193.195716 83.701184 
L 193.292774 83.782396 
L 193.381881 83.863607 
L 193.548469 83.944818 
L 193.768522 84.269664 
L 194.150415 84.756933 
L 194.318093 84.838144 
L 194.52322 85.16299 
L 194.638525 85.244202 
L 194.765845 85.569047 
L 195.072949 85.650259 
L 195.312698 85.893893 
L 195.611124 85.975105 
L 197.376614 86.462373 
L 197.53787 86.543585 
L 197.892291 86.787219 
L 198.303265 86.868431 
L 198.468465 87.030853 
L 198.545348 87.112065 
L 198.628663 87.193276 
L 198.901224 87.518122 
L 199.371996 87.599334 
L 199.477686 87.761757 
L 200.162367 87.842968 
L 200.311479 87.924179 
L 200.636242 88.005391 
L 200.895824 88.249025 
L 201.267002 88.330237 
L 201.373152 88.411448 
L 201.524719 88.49266 
L 202.557794 88.573871 
L 202.830986 88.736294 
L 204.028448 88.817505 
L 204.120151 88.898717 
L 216.497118 88.979928 
L 216.679476 89.06114 
L 219.050096 89.142351 
L 219.575048 89.223563 
L 224.606422 89.385985 
L 243.478948 89.467197 
L 243.488753 89.548408 
L 287.932936 89.62962 
L 288.209919 90.035677 
L 288.431238 90.116889 
L 289.394476 90.1981 
L 290.007372 90.279311 
L 291.074096 90.360523 
L 291.236622 90.441734 
L 292.383104 90.522946 
L 292.537973 90.604157 
L 293.397673 90.685369 
L 293.669869 90.929003 
L 295.352782 91.010214 
L 295.461501 91.091426 
L 295.548062 91.172637 
L 298.614402 91.253849 
L 299.223916 91.33506 
L 302.187204 91.416272 
L 302.377118 91.497483 
L 312.422447 91.497483 
L 312.422447 91.497483 
" clip-path="url(#p874f96777d)" style="fill: none; stroke: #000000; stroke-width: 1.5; stroke-linecap: square"/>
   </g>
   <g id="patch_3">
    <path d="M 44.103906 96.532593 
L 44.103906 7.2 
" style="fill: none; stroke: #000000; stroke-width: 0.8; stroke-linejoin: miter; stroke-linecap: square"/>
   </g>
   <g id="patch_4">
    <path d="M 325.19952 96.532593 
L 325.19952 7.2 
" style="fill: none; stroke: #000000; stroke-width: 0.8; stroke-linejoin: miter; stroke-linecap: square"/>
   </g>
   <g id="patch_5">
    <path d="M 44.103906 96.532593 
L 325.19952 96.532593 
" style="fill: none; stroke: #000000; stroke-width: 0.8; stroke-linejoin: miter; stroke-linecap: square"/>
   </g>
   <g id="patch_6">
    <path d="M 44.103906 7.2 
L 325.19952 7.2 
" style="fill: none; stroke: #000000; stroke-width: 0.8; stroke-linejoin: miter; stroke-linecap: square"/>
   </g>
  </g>
  <g id="axes_2">
   <g id="patch_7">
    <path d="M 44.103906 195.365666 
L 325.19952 195.365666 
L 325.19952 106.033073 
L 44.103906 106.033073 
z
" style="fill: #ffffff"/>
   </g>
   <g id="matplotlib.axis_3">
    <g id="xtick_10">
     <g id="line2d_14">
      <g>
       <use xlink:href="#mad5a020872" x="56.88098" y="195.365666" style="stroke: #000000; stroke-width: 0.8"/>
      </g>
     </g>
    </g>
    <g id="xtick_11">
     <g id="line2d_15">
      <g>
       <use xlink:href="#mad5a020872" x="88.794003" y="195.365666" style="stroke: #000000; stroke-width: 0.8"/>
      </g>
     </g>
    </g>
    <g id="xtick_12">
     <g id="line2d_16">
      <g>
       <use xlink:href="#mad5a020872" x="120.707027" y="195.365666" style="stroke: #000000; stroke-width: 0.8"/>
      </g>
     </g>
    </g>
    <g id="xtick_13">
     <g id="line2d_17">
      <g>
       <use xlink:href="#mad5a020872" x="152.620051" y="195.365666" style="stroke: #000000; stroke-width: 0.8"/>
      </g>
     </g>
    </g>
    <g id="xtick_14">
     <g id="line2d_18">
      <g>
       <use xlink:href="#mad5a020872" x="184.533075" y="195.365666" style="stroke: #000000; stroke-width: 0.8"/>
      </g>
     </g>
    </g>
    <g id="xtick_15">
     <g id="line2d_19">
      <g>
       <use xlink:href="#mad5a020872" x="216.446098" y="195.365666" style="stroke: #000000; stroke-width: 0.8"/>
      </g>
     </g>
    </g>
    <g id="xtick_16">
     <g id="line2d_20">
      <g>
       <use xlink:href="#mad5a020872" x="248.359122" y="195.365666" style="stroke: #000000; stroke-width: 0.8"/>
      </g>
     </g>
    </g>
    <g id="xtick_17">
     <g id="line2d_21">
      <g>
       <use xlink:href="#mad5a020872" x="280.272146" y="195.365666" style="stroke: #000000; stroke-width: 0.8"/>
      </g>
     </g>
    </g>
    <g id="xtick_18">
     <g id="line2d_22">
      <g>
       <use xlink:href="#mad5a020872" x="312.18517" y="195.365666" style="stroke: #000000; stroke-width: 0.8"/>
      </g>
     </g>
    </g>
   </g>
   <g id="matplotlib.axis_4">
    <g id="ytick_4">
     <g id="line2d_23">
      <g>
       <use xlink:href="#mce4fdcb9b5" x="44.103906" y="191.305093" style="stroke: #000000; stroke-width: 0.8"/>
      </g>
     </g>
     <g id="text_5">
      <!-- 0 -->
      <g transform="translate(30.741406 195.103922) scale(0.1 -0.1)">
       <use xlink:href="#DejaVuSans-13"/>
      </g>
     </g>
    </g>
    <g id="ytick_5">
     <g id="line2d_24">
      <g>
       <use xlink:href="#mce4fdcb9b5" x="44.103906" y="150.699369" style="stroke: #000000; stroke-width: 0.8"/>
      </g>
     </g>
     <g id="text_6">
      <!-- 5 -->
      <g transform="translate(30.741406 154.498197) scale(0.1 -0.1)">
       <use xlink:href="#DejaVuSans-18"/>
      </g>
     </g>
    </g>
    <g id="ytick_6">
     <g id="line2d_25">
      <g>
       <use xlink:href="#mce4fdcb9b5" x="44.103906" y="110.093645" style="stroke: #000000; stroke-width: 0.8"/>
      </g>
     </g>
     <g id="text_7">
      <!-- 10 -->
      <g transform="translate(24.378906 113.892473) scale(0.1 -0.1)">
       <use xlink:href="#DejaVuSans-14"/>
       <use xlink:href="#DejaVuSans-13" transform="translate(63.625 0)"/>
      </g>
     </g>
    </g>
    <g id="text_8">
     <!-- LacY -->
     <g transform="translate(17.976563 162.352494) rotate(-90) scale(0.1 -0.1)">
      <defs>
       <path id="DejaVuSans-2f" d="M 628 4666 
L 1259 4666 
L 1259 531 
L 3531 531 
L 3531 0 
L 628 0 
L 628 4666 
z
" transform="scale(0.015625)"/>
       <path id="DejaVuSans-3c" d="M -13 4666 
L 666 4666 
L 1959 2747 
L 3244 4666 
L 3922 4666 
L 2272 2222 
L 2272 0 
L 1638 0 
L 1638 2222 
L -13 4666 
z
" transform="scale(0.015625)"/>
      </defs>
      <use xlink:href="#DejaVuSans-2f"/>
      <use xlink:href="#DejaVuSans-44" transform="translate(55.71875 0)"/>
      <use xlink:href="#DejaVuSans-46" transform="translate(117 0)"/>
      <use xlink:href="#DejaVuSans-3c" transform="translate(171.984375 0)"/>
     </g>
    </g>
   </g>
   <g id="line2d_26">
    <path d="M 56.88098 110.093645 
L 56.908107 110.093645 
L 56.962602 118.21479 
L 57.070769 134.45708 
L 57.131112 142.578225 
L 57.283219 142.578225 
L 57.300916 134.45708 
L 57.521505 142.578225 
L 57.663371 142.578225 
L 57.834023 158.820514 
L 58.134925 175.062804 
L 58.200545 191.305093 
L 59.730542 191.305093 
L 59.897164 183.183949 
L 59.939906 191.305093 
L 64.962504 191.305093 
L 65.285462 183.183949 
L 65.395416 191.305093 
L 82.891693 191.305093 
L 83.086102 183.183949 
L 84.879427 191.305093 
L 84.894253 183.183949 
L 85.03746 175.062804 
L 85.042115 166.941659 
L 85.364278 175.062804 
L 85.591244 175.062804 
L 85.710878 191.305093 
L 85.771699 183.183949 
L 85.961927 183.183949 
L 86.100413 191.305093 
L 89.992671 191.305093 
L 90.382473 175.062804 
L 90.383774 166.941659 
L 90.882414 166.941659 
L 90.921083 183.183949 
L 91.693233 183.183949 
L 91.862159 175.062804 
L 92.206453 191.305093 
L 109.211767 191.305093 
L 109.317465 183.183949 
L 109.437174 183.183949 
L 109.576268 191.305093 
L 109.811273 191.305093 
L 109.852759 183.183949 
L 110.268726 183.183949 
L 110.61866 175.062804 
L 110.677009 183.183949 
L 110.85228 183.183949 
L 110.881859 191.305093 
L 119.641747 191.305093 
L 119.82018 183.183949 
L 121.920548 183.183949 
L 123.768124 191.305093 
L 131.536601 191.305093 
L 131.722878 183.183949 
L 132.010458 183.183949 
L 132.118241 191.305093 
L 136.454322 191.305093 
L 136.538058 183.183949 
L 136.559925 191.305093 
L 146.553257 191.305093 
L 146.81412 175.062804 
L 146.834953 183.183949 
L 146.863963 175.062804 
L 146.977082 166.941659 
L 146.982423 175.062804 
L 147.567206 175.062804 
L 148.18443 183.183949 
L 148.42978 183.183949 
L 148.745067 175.062804 
L 148.857959 175.062804 
L 149.929952 191.305093 
L 150.390159 191.305093 
L 150.442044 175.062804 
L 150.542927 175.062804 
L 150.695771 183.183949 
L 150.829501 183.183949 
L 151.37245 191.305093 
L 156.491304 191.305093 
L 156.919622 183.183949 
L 157.159934 150.699369 
L 157.441597 150.699369 
L 157.561714 166.941659 
L 157.611586 166.941659 
L 157.712495 158.820514 
L 157.79948 158.820514 
L 157.909297 175.062804 
L 157.937499 175.062804 
L 158.026171 183.183949 
L 158.377977 183.183949 
L 158.471622 191.305093 
L 158.871349 191.305093 
L 158.972717 183.183949 
L 159.138913 183.183949 
L 159.243031 175.062804 
L 159.389026 175.062804 
L 159.444512 183.183949 
L 159.499011 175.062804 
L 159.605239 175.062804 
L 159.709533 166.941659 
L 159.86959 166.941659 
L 159.994519 183.183949 
L 160.128735 183.183949 
L 160.251827 175.062804 
L 160.400945 175.062804 
L 160.528943 158.820514 
L 160.706094 158.820514 
L 160.774837 150.699369 
L 160.813976 158.820514 
L 160.901425 158.820514 
L 160.951986 150.699369 
L 161.006107 158.820514 
L 161.163849 158.820514 
L 161.272967 175.062804 
L 161.301919 175.062804 
L 161.332449 183.183949 
L 161.34083 166.941659 
L 161.408846 166.941659 
L 161.643972 166.941659 
L 161.756048 175.062804 
L 161.828217 175.062804 
L 161.892178 183.183949 
L 162.124919 183.183949 
L 162.242084 175.062804 
L 162.267936 175.062804 
L 162.431076 191.305093 
L 162.784146 191.305093 
L 162.930489 183.183949 
L 163.079496 183.183949 
L 163.193933 175.062804 
L 163.230915 175.062804 
L 163.339341 183.183949 
L 163.665005 183.183949 
L 163.774633 191.305093 
L 163.916435 191.305093 
L 164.036891 183.183949 
L 164.138412 191.305093 
L 164.719861 191.305093 
L 164.733621 183.183949 
L 164.818085 191.305093 
L 165.190531 191.305093 
L 165.194555 183.183949 
L 165.242243 191.305093 
L 165.626826 191.305093 
L 165.911515 183.183949 
L 166.477374 183.183949 
L 166.51064 191.305093 
L 166.805235 191.305093 
L 166.883201 175.062804 
L 166.919025 183.183949 
L 167.090473 183.183949 
L 167.201344 191.305093 
L 168.149935 191.305093 
L 168.445711 175.062804 
L 168.453515 183.183949 
L 168.555299 175.062804 
L 168.637239 166.941659 
L 168.657759 175.062804 
L 168.725437 175.062804 
L 168.834721 183.183949 
L 168.90656 183.183949 
L 168.9421 175.062804 
L 169.628652 175.062804 
L 169.740767 166.941659 
L 169.842579 166.941659 
L 169.928145 158.820514 
L 169.95286 166.941659 
L 170.075301 166.941659 
L 170.191098 175.062804 
L 170.268696 175.062804 
L 170.377717 183.183949 
L 170.569934 183.183949 
L 170.694615 166.941659 
L 171.007187 166.941659 
L 171.017607 175.062804 
L 171.110041 166.941659 
L 171.290782 166.941659 
L 171.402824 158.820514 
L 171.491975 158.820514 
L 171.584426 175.062804 
L 171.623478 175.062804 
L 171.709955 191.305093 
L 172.017675 191.305093 
L 172.154088 183.183949 
L 172.261483 183.183949 
L 172.393503 166.941659 
L 172.398995 166.941659 
L 172.522489 158.820514 
L 172.782745 158.820514 
L 172.822159 150.699369 
L 172.88931 158.820514 
L 172.951493 158.820514 
L 173.083479 134.45708 
L 173.087483 142.578225 
L 173.479544 142.578225 
L 173.564034 134.45708 
L 173.586184 142.578225 
L 173.601005 142.578225 
L 173.712063 134.45708 
L 173.716219 134.45708 
L 173.82957 142.578225 
L 173.83835 142.578225 
L 173.965587 166.941659 
L 174.200127 166.941659 
L 174.311581 183.183949 
L 174.400726 183.183949 
L 174.490563 191.305093 
L 175.209279 191.305093 
L 175.332724 175.062804 
L 175.473814 175.062804 
L 175.581124 166.941659 
L 175.916929 166.941659 
L 175.919244 158.820514 
L 176.021046 166.941659 
L 176.092598 166.941659 
L 176.223203 175.062804 
L 176.337018 175.062804 
L 176.397402 150.699369 
L 176.497081 158.820514 
L 176.522226 158.820514 
L 176.617452 150.699369 
L 176.629847 158.820514 
L 176.719374 158.820514 
L 176.785601 134.45708 
L 176.836608 142.578225 
L 176.858742 142.578225 
L 176.967949 150.699369 
L 177.089909 150.699369 
L 177.158055 142.578225 
L 177.20084 150.699369 
L 177.393514 150.699369 
L 177.514354 158.820514 
L 177.670006 158.820514 
L 177.779924 166.941659 
L 178.129118 166.941659 
L 178.219491 175.062804 
L 178.364997 183.183949 
L 178.398926 183.183949 
L 178.47901 191.305093 
L 178.933883 191.305093 
L 179.07551 183.183949 
L 179.099413 191.305093 
L 179.136948 183.183949 
L 179.457357 183.183949 
L 179.57942 175.062804 
L 179.778155 175.062804 
L 179.933352 183.183949 
L 180.011638 183.183949 
L 180.122935 175.062804 
L 180.139869 183.183949 
L 180.198994 175.062804 
L 180.286835 166.941659 
L 180.427884 183.183949 
L 180.569725 175.062804 
L 180.663973 175.062804 
L 180.755653 191.305093 
L 181.139339 191.305093 
L 181.255249 175.062804 
L 181.361459 166.941659 
L 181.423273 166.941659 
L 181.522904 175.062804 
L 181.573374 175.062804 
L 181.70743 191.305093 
L 182.254937 191.305093 
L 182.359224 183.183949 
L 182.463706 191.305093 
L 182.577342 183.183949 
L 182.680775 191.305093 
L 182.898471 191.305093 
L 183.111898 175.062804 
L 183.391857 175.062804 
L 183.517735 166.941659 
L 183.684705 166.941659 
L 183.810362 150.699369 
L 183.88755 150.699369 
L 183.972526 158.820514 
L 183.993743 150.699369 
L 184.005578 158.820514 
L 184.09209 150.699369 
L 184.203185 150.699369 
L 184.318272 158.820514 
L 184.440744 158.820514 
L 184.52132 166.941659 
L 184.547054 158.820514 
L 184.674642 150.699369 
L 184.803124 150.699369 
L 184.953461 175.062804 
L 185.011838 175.062804 
L 185.131104 183.183949 
L 185.399726 183.183949 
L 185.446779 191.305093 
L 185.451785 183.183949 
L 185.592998 183.183949 
L 185.751075 191.305093 
L 186.937831 191.305093 
L 187.127393 175.062804 
L 187.491208 175.062804 
L 187.51434 183.183949 
L 187.569572 166.941659 
L 188.274844 166.941659 
L 188.406616 158.820514 
L 188.638063 158.820514 
L 188.7729 150.699369 
L 188.859453 150.699369 
L 188.977017 158.820514 
L 188.981049 150.699369 
L 189.009393 166.941659 
L 189.068133 166.941659 
L 189.300283 166.941659 
L 189.397129 175.062804 
L 189.469471 175.062804 
L 189.611203 158.820514 
L 189.630435 158.820514 
L 189.708774 166.941659 
L 189.787567 158.820514 
L 189.883104 166.941659 
L 190.020186 158.820514 
L 190.13453 175.062804 
L 190.195724 175.062804 
L 190.277093 150.699369 
L 190.395273 150.699369 
L 190.46177 166.941659 
L 190.774779 166.941659 
L 190.824709 175.062804 
L 190.874265 166.941659 
L 190.969629 166.941659 
L 190.993812 175.062804 
L 191.036811 166.941659 
L 191.120583 166.941659 
L 191.226594 158.820514 
L 191.306964 158.820514 
L 191.415434 175.062804 
L 191.629536 175.062804 
L 191.799751 166.941659 
L 191.804779 166.941659 
L 191.825297 158.820514 
L 191.899361 166.941659 
L 191.977734 183.183949 
L 192.507209 183.183949 
L 192.630405 175.062804 
L 192.778996 175.062804 
L 192.985635 158.820514 
L 193.079667 166.941659 
L 193.169543 158.820514 
L 193.170979 166.941659 
L 193.280347 166.941659 
L 193.381881 158.820514 
L 193.605472 158.820514 
L 193.727878 142.578225 
L 193.818326 142.578225 
L 193.945554 158.820514 
L 194.082925 166.941659 
L 194.095977 166.941659 
L 194.101995 175.062804 
L 194.150415 166.941659 
L 194.30101 175.062804 
L 194.410421 150.699369 
L 194.495476 150.699369 
L 194.558276 166.941659 
L 194.569913 158.820514 
L 194.703902 150.699369 
L 194.818163 158.820514 
L 194.875218 158.820514 
L 194.905846 150.699369 
L 195.072949 158.820514 
L 195.190015 158.820514 
L 195.293932 175.062804 
L 195.46613 175.062804 
L 195.542347 183.183949 
L 195.611124 175.062804 
L 195.907847 175.062804 
L 195.982146 183.183949 
L 196.168074 183.183949 
L 196.272597 175.062804 
L 196.296907 175.062804 
L 196.346675 166.941659 
L 196.385503 175.062804 
L 196.437218 175.062804 
L 196.514349 183.183949 
L 196.661532 175.062804 
L 196.826079 175.062804 
L 196.978074 191.305093 
L 197.506952 191.305093 
L 197.613936 183.183949 
L 197.81117 183.183949 
L 197.880138 191.305093 
L 197.892291 183.183949 
L 198.053125 183.183949 
L 198.166176 166.941659 
L 198.476405 166.941659 
L 198.598497 158.820514 
L 198.678027 158.820514 
L 198.75402 166.941659 
L 199.051185 166.941659 
L 199.057305 175.062804 
L 199.129372 166.941659 
L 199.177261 166.941659 
L 199.193333 175.062804 
L 199.286628 166.941659 
L 199.311203 166.941659 
L 199.425149 175.062804 
L 199.545739 183.183949 
L 199.623027 183.183949 
L 199.750281 175.062804 
L 199.981398 175.062804 
L 200.155598 166.941659 
L 200.23643 175.062804 
L 200.311479 175.062804 
L 200.437683 158.820514 
L 200.682491 150.699369 
L 200.732024 150.699369 
L 200.793251 134.45708 
L 200.861286 134.45708 
L 200.961321 126.335935 
L 200.964021 134.45708 
L 200.975443 134.45708 
L 201.039861 118.21479 
L 201.097466 126.335935 
L 201.262064 142.578225 
L 201.316191 134.45708 
L 201.373152 142.578225 
L 201.419157 142.578225 
L 201.524719 150.699369 
L 201.671802 166.941659 
L 201.833625 183.183949 
L 201.902176 183.183949 
L 202.02194 166.941659 
L 202.111064 175.062804 
L 202.317561 175.062804 
L 202.323696 183.183949 
L 202.503648 183.183949 
L 202.632767 175.062804 
L 202.801246 175.062804 
L 202.830986 183.183949 
L 203.136459 183.183949 
L 203.340388 166.941659 
L 203.425522 150.699369 
L 203.547727 158.820514 
L 203.674094 158.820514 
L 203.922866 175.062804 
L 204.517916 175.062804 
L 204.818639 191.305093 
L 213.784719 191.305093 
L 214.403472 175.062804 
L 214.655638 191.305093 
L 214.808683 183.183949 
L 214.943859 175.062804 
L 214.983507 175.062804 
L 214.989275 183.183949 
L 215.145645 183.183949 
L 215.176159 191.305093 
L 215.97639 191.305093 
L 216.092302 183.183949 
L 216.257507 191.305093 
L 216.497118 183.183949 
L 216.654888 183.183949 
L 216.679476 191.305093 
L 216.865968 191.305093 
L 216.910584 183.183949 
L 217.18082 183.183949 
L 217.208605 191.305093 
L 217.709885 183.183949 
L 218.663892 183.183949 
L 218.714201 191.305093 
L 218.734119 183.183949 
L 218.787577 183.183949 
L 218.853881 175.062804 
L 218.882983 183.183949 
L 221.685274 183.183949 
L 221.998379 191.305093 
L 224.025025 191.305093 
L 224.213469 183.183949 
L 224.331438 191.305093 
L 234.819372 191.305093 
L 234.969274 183.183949 
L 235.223889 183.183949 
L 235.923908 191.305093 
L 243.403557 191.305093 
L 243.488753 183.183949 
L 243.678131 191.305093 
L 254.144158 191.305093 
L 254.991853 183.183949 
L 255.15145 175.062804 
L 255.228711 183.183949 
L 255.521075 183.183949 
L 255.66763 191.305093 
L 257.786578 191.305093 
L 258.097462 183.183949 
L 258.627522 183.183949 
L 258.92351 191.305093 
L 270.68208 191.305093 
L 270.86236 183.183949 
L 270.942369 166.941659 
L 271.101134 166.941659 
L 271.210292 175.062804 
L 272.001121 191.305093 
L 273.255039 191.305093 
L 273.546749 183.183949 
L 273.557733 191.305093 
L 287.427431 191.305093 
L 287.656691 166.941659 
L 287.869342 191.305093 
L 288.11512 166.941659 
L 288.209919 175.062804 
L 288.319069 175.062804 
L 288.431238 183.183949 
L 289.809171 183.183949 
L 290.007372 191.305093 
L 290.329961 191.305093 
L 290.603163 175.062804 
L 290.780777 166.941659 
L 290.89604 183.183949 
L 291.048821 175.062804 
L 291.136103 183.183949 
L 291.297371 183.183949 
L 291.466134 175.062804 
L 291.52306 175.062804 
L 291.839345 183.183949 
L 291.987066 175.062804 
L 292.060609 183.183949 
L 292.175992 183.183949 
L 292.256891 191.305093 
L 292.758637 158.820514 
L 292.881432 166.941659 
L 292.951161 158.820514 
L 293.127178 166.941659 
L 293.234999 166.941659 
L 293.307848 158.820514 
L 293.388406 166.941659 
L 293.397673 158.820514 
L 293.481073 158.820514 
L 293.560962 150.699369 
L 293.566112 158.820514 
L 293.669869 158.820514 
L 293.743419 150.699369 
L 293.933328 166.941659 
L 293.977338 166.941659 
L 294.149088 183.183949 
L 294.2377 183.183949 
L 294.514219 175.062804 
L 294.577893 191.305093 
L 294.624324 183.183949 
L 294.892737 183.183949 
L 295.01626 166.941659 
L 295.08416 158.820514 
L 295.24152 166.941659 
L 295.353938 166.941659 
L 295.461501 175.062804 
L 295.632617 175.062804 
L 295.784821 183.183949 
L 295.904252 183.183949 
L 296.075175 191.305093 
L 296.933171 191.305093 
L 297.134131 183.183949 
L 297.330323 175.062804 
L 297.353806 183.183949 
L 297.555245 191.305093 
L 297.767215 191.305093 
L 298.14066 183.183949 
L 298.296945 166.941659 
L 298.341483 166.941659 
L 298.528846 150.699369 
L 298.614402 158.820514 
L 298.897017 158.820514 
L 298.941344 150.699369 
L 299.005899 158.820514 
L 299.223916 158.820514 
L 299.487512 166.941659 
L 299.694499 183.183949 
L 299.733381 175.062804 
L 299.923339 175.062804 
L 299.986929 166.941659 
L 300.013232 175.062804 
L 300.348251 175.062804 
L 300.396008 183.183949 
L 300.627988 183.183949 
L 300.703817 191.305093 
L 300.96569 183.183949 
L 300.984668 191.305093 
L 301.358193 183.183949 
L 301.385152 191.305093 
L 301.670764 191.305093 
L 301.91551 183.183949 
L 301.933154 191.305093 
L 301.993238 183.183949 
L 302.187204 166.941659 
L 302.332892 166.941659 
L 302.415766 175.062804 
L 302.582515 183.183949 
L 302.835206 175.062804 
L 302.968851 183.183949 
L 303.158124 183.183949 
L 303.298428 175.062804 
L 303.341127 183.183949 
L 303.574555 175.062804 
L 303.869128 183.183949 
L 304.018741 175.062804 
L 304.238666 183.183949 
L 304.453036 191.305093 
L 312.422447 191.305093 
L 312.422447 191.305093 
" clip-path="url(#p964e116866)" style="fill: none; stroke: #000000; stroke-width: 1.5; stroke-linecap: square"/>
   </g>
   <g id="patch_8">
    <path d="M 44.103906 195.365666 
L 44.103906 106.033073 
" style="fill: none; stroke: #000000; stroke-width: 0.8; stroke-linejoin: miter; stroke-linecap: square"/>
   </g>
   <g id="patch_9">
    <path d="M 325.19952 195.365666 
L 325.19952 106.033073 
" style="fill: none; stroke: #000000; stroke-width: 0.8; stroke-linejoin: miter; stroke-linecap: square"/>
   </g>
   <g id="patch_10">
    <path d="M 44.103906 195.365666 
L 325.19952 195.365666 
" style="fill: none; stroke: #000000; stroke-width: 0.8; stroke-linejoin: miter; stroke-linecap: square"/>
   </g>
   <g id="patch_11">
    <path d="M 44.103906 106.033073 
L 325.19952 106.033073 
" style="fill: none; stroke: #000000; stroke-width: 0.8; stroke-linejoin: miter; stroke-linecap: square"/>
   </g>
  </g>
  <g id="axes_3">
   <g id="patch_12">
    <path d="M 44.103906 294.198739 
L 325.19952 294.198739 
L 325.19952 204.866146 
L 44.103906 204.866146 
z
" style="fill: #ffffff"/>
   </g>
   <g id="matplotlib.axis_5">
    <g id="xtick_19">
     <g id="line2d_27">
      <g>
       <use xlink:href="#mad5a020872" x="56.88098" y="294.198739" style="stroke: #000000; stroke-width: 0.8"/>
      </g>
     </g>
     <g id="text_9">
      <!-- 0 -->
      <g transform="translate(53.69973 308.796395) scale(0.1 -0.1)">
       <use xlink:href="#DejaVuSans-13"/>
      </g>
     </g>
    </g>
    <g id="xtick_20">
     <g id="line2d_28">
      <g>
       <use xlink:href="#mad5a020872" x="88.794003" y="294.198739" style="stroke: #000000; stroke-width: 0.8"/>
      </g>
     </g>
     <g id="text_10">
      <!-- 100 -->
      <g transform="translate(79.250253 308.796395) scale(0.1 -0.1)">
       <use xlink:href="#DejaVuSans-14"/>
       <use xlink:href="#DejaVuSans-13" transform="translate(63.625 0)"/>
       <use xlink:href="#DejaVuSans-13" transform="translate(127.25 0)"/>
      </g>
     </g>
    </g>
    <g id="xtick_21">
     <g id="line2d_29">
      <g>
       <use xlink:href="#mad5a020872" x="120.707027" y="294.198739" style="stroke: #000000; stroke-width: 0.8"/>
      </g>
     </g>
     <g id="text_11">
      <!-- 200 -->
      <g transform="translate(111.163277 308.796395) scale(0.1 -0.1)">
       <defs>
        <path id="DejaVuSans-15" d="M 1228 531 
L 3431 531 
L 3431 0 
L 469 0 
L 469 531 
Q 828 903 1448 1529 
Q 2069 2156 2228 2338 
Q 2531 2678 2651 2914 
Q 2772 3150 2772 3378 
Q 2772 3750 2511 3984 
Q 2250 4219 1831 4219 
Q 1534 4219 1204 4116 
Q 875 4013 500 3803 
L 500 4441 
Q 881 4594 1212 4672 
Q 1544 4750 1819 4750 
Q 2544 4750 2975 4387 
Q 3406 4025 3406 3419 
Q 3406 3131 3298 2873 
Q 3191 2616 2906 2266 
Q 2828 2175 2409 1742 
Q 1991 1309 1228 531 
z
" transform="scale(0.015625)"/>
       </defs>
       <use xlink:href="#DejaVuSans-15"/>
       <use xlink:href="#DejaVuSans-13" transform="translate(63.625 0)"/>
       <use xlink:href="#DejaVuSans-13" transform="translate(127.25 0)"/>
      </g>
     </g>
    </g>
    <g id="xtick_22">
     <g id="line2d_30">
      <g>
       <use xlink:href="#mad5a020872" x="152.620051" y="294.198739" style="stroke: #000000; stroke-width: 0.8"/>
      </g>
     </g>
     <g id="text_12">
      <!-- 300 -->
      <g transform="translate(143.076301 308.796395) scale(0.1 -0.1)">
       <defs>
        <path id="DejaVuSans-16" d="M 2597 2516 
Q 3050 2419 3304 2112 
Q 3559 1806 3559 1356 
Q 3559 666 3084 287 
Q 2609 -91 1734 -91 
Q 1441 -91 1130 -33 
Q 819 25 488 141 
L 488 750 
Q 750 597 1062 519 
Q 1375 441 1716 441 
Q 2309 441 2620 675 
Q 2931 909 2931 1356 
Q 2931 1769 2642 2001 
Q 2353 2234 1838 2234 
L 1294 2234 
L 1294 2753 
L 1863 2753 
Q 2328 2753 2575 2939 
Q 2822 3125 2822 3475 
Q 2822 3834 2567 4026 
Q 2313 4219 1838 4219 
Q 1578 4219 1281 4162 
Q 984 4106 628 3988 
L 628 4550 
Q 988 4650 1302 4700 
Q 1616 4750 1894 4750 
Q 2613 4750 3031 4423 
Q 3450 4097 3450 3541 
Q 3450 3153 3228 2886 
Q 3006 2619 2597 2516 
z
" transform="scale(0.015625)"/>
       </defs>
       <use xlink:href="#DejaVuSans-16"/>
       <use xlink:href="#DejaVuSans-13" transform="translate(63.625 0)"/>
       <use xlink:href="#DejaVuSans-13" transform="translate(127.25 0)"/>
      </g>
     </g>
    </g>
    <g id="xtick_23">
     <g id="line2d_31">
      <g>
       <use xlink:href="#mad5a020872" x="184.533075" y="294.198739" style="stroke: #000000; stroke-width: 0.8"/>
      </g>
     </g>
     <g id="text_13">
      <!-- 400 -->
      <g transform="translate(174.989325 308.796395) scale(0.1 -0.1)">
       <defs>
        <path id="DejaVuSans-17" d="M 2419 4116 
L 825 1625 
L 2419 1625 
L 2419 4116 
z
M 2253 4666 
L 3047 4666 
L 3047 1625 
L 3713 1625 
L 3713 1100 
L 3047 1100 
L 3047 0 
L 2419 0 
L 2419 1100 
L 313 1100 
L 313 1709 
L 2253 4666 
z
" transform="scale(0.015625)"/>
       </defs>
       <use xlink:href="#DejaVuSans-17"/>
       <use xlink:href="#DejaVuSans-13" transform="translate(63.625 0)"/>
       <use xlink:href="#DejaVuSans-13" transform="translate(127.25 0)"/>
      </g>
     </g>
    </g>
    <g id="xtick_24">
     <g id="line2d_32">
      <g>
       <use xlink:href="#mad5a020872" x="216.446098" y="294.198739" style="stroke: #000000; stroke-width: 0.8"/>
      </g>
     </g>
     <g id="text_14">
      <!-- 500 -->
      <g transform="translate(206.902348 308.796395) scale(0.1 -0.1)">
       <use xlink:href="#DejaVuSans-18"/>
       <use xlink:href="#DejaVuSans-13" transform="translate(63.625 0)"/>
       <use xlink:href="#DejaVuSans-13" transform="translate(127.25 0)"/>
      </g>
     </g>
    </g>
    <g id="xtick_25">
     <g id="line2d_33">
      <g>
       <use xlink:href="#mad5a020872" x="248.359122" y="294.198739" style="stroke: #000000; stroke-width: 0.8"/>
      </g>
     </g>
     <g id="text_15">
      <!-- 600 -->
      <g transform="translate(238.815372 308.796395) scale(0.1 -0.1)">
       <defs>
        <path id="DejaVuSans-19" d="M 2113 2584 
Q 1688 2584 1439 2293 
Q 1191 2003 1191 1497 
Q 1191 994 1439 701 
Q 1688 409 2113 409 
Q 2538 409 2786 701 
Q 3034 994 3034 1497 
Q 3034 2003 2786 2293 
Q 2538 2584 2113 2584 
z
M 3366 4563 
L 3366 3988 
Q 3128 4100 2886 4159 
Q 2644 4219 2406 4219 
Q 1781 4219 1451 3797 
Q 1122 3375 1075 2522 
Q 1259 2794 1537 2939 
Q 1816 3084 2150 3084 
Q 2853 3084 3261 2657 
Q 3669 2231 3669 1497 
Q 3669 778 3244 343 
Q 2819 -91 2113 -91 
Q 1303 -91 875 529 
Q 447 1150 447 2328 
Q 447 3434 972 4092 
Q 1497 4750 2381 4750 
Q 2619 4750 2861 4703 
Q 3103 4656 3366 4563 
z
" transform="scale(0.015625)"/>
       </defs>
       <use xlink:href="#DejaVuSans-19"/>
       <use xlink:href="#DejaVuSans-13" transform="translate(63.625 0)"/>
       <use xlink:href="#DejaVuSans-13" transform="translate(127.25 0)"/>
      </g>
     </g>
    </g>
    <g id="xtick_26">
     <g id="line2d_34">
      <g>
       <use xlink:href="#mad5a020872" x="280.272146" y="294.198739" style="stroke: #000000; stroke-width: 0.8"/>
      </g>
     </g>
     <g id="text_16">
      <!-- 700 -->
      <g transform="translate(270.728396 308.796395) scale(0.1 -0.1)">
       <defs>
        <path id="DejaVuSans-1a" d="M 525 4666 
L 3525 4666 
L 3525 4397 
L 1831 0 
L 1172 0 
L 2766 4134 
L 525 4134 
L 525 4666 
z
" transform="scale(0.015625)"/>
       </defs>
       <use xlink:href="#DejaVuSans-1a"/>
       <use xlink:href="#DejaVuSans-13" transform="translate(63.625 0)"/>
       <use xlink:href="#DejaVuSans-13" transform="translate(127.25 0)"/>
      </g>
     </g>
    </g>
    <g id="xtick_27">
     <g id="line2d_35">
      <g>
       <use xlink:href="#mad5a020872" x="312.18517" y="294.198739" style="stroke: #000000; stroke-width: 0.8"/>
      </g>
     </g>
     <g id="text_17">
      <!-- 800 -->
      <g transform="translate(302.64142 308.796395) scale(0.1 -0.1)">
       <defs>
        <path id="DejaVuSans-1b" d="M 2034 2216 
Q 1584 2216 1326 1975 
Q 1069 1734 1069 1313 
Q 1069 891 1326 650 
Q 1584 409 2034 409 
Q 2484 409 2743 651 
Q 3003 894 3003 1313 
Q 3003 1734 2745 1975 
Q 2488 2216 2034 2216 
z
M 1403 2484 
Q 997 2584 770 2862 
Q 544 3141 544 3541 
Q 544 4100 942 4425 
Q 1341 4750 2034 4750 
Q 2731 4750 3128 4425 
Q 3525 4100 3525 3541 
Q 3525 3141 3298 2862 
Q 3072 2584 2669 2484 
Q 3125 2378 3379 2068 
Q 3634 1759 3634 1313 
Q 3634 634 3220 271 
Q 2806 -91 2034 -91 
Q 1263 -91 848 271 
Q 434 634 434 1313 
Q 434 1759 690 2068 
Q 947 2378 1403 2484 
z
M 1172 3481 
Q 1172 3119 1398 2916 
Q 1625 2713 2034 2713 
Q 2441 2713 2670 2916 
Q 2900 3119 2900 3481 
Q 2900 3844 2670 4047 
Q 2441 4250 2034 4250 
Q 1625 4250 1398 4047 
Q 1172 3844 1172 3481 
z
" transform="scale(0.015625)"/>
       </defs>
       <use xlink:href="#DejaVuSans-1b"/>
       <use xlink:href="#DejaVuSans-13" transform="translate(63.625 0)"/>
       <use xlink:href="#DejaVuSans-13" transform="translate(127.25 0)"/>
      </g>
     </g>
    </g>
    <g id="text_18">
     <!-- Time -->
     <g transform="translate(172.415776 322.797176) scale(0.1 -0.1)">
      <defs>
       <path id="DejaVuSans-37" d="M -19 4666 
L 3928 4666 
L 3928 4134 
L 2272 4134 
L 2272 0 
L 1638 0 
L 1638 4134 
L -19 4134 
L -19 4666 
z
" transform="scale(0.015625)"/>
       <path id="DejaVuSans-4c" d="M 603 3500 
L 1178 3500 
L 1178 0 
L 603 0 
L 603 3500 
z
M 603 4863 
L 1178 4863 
L 1178 4134 
L 603 4134 
L 603 4863 
z
" transform="scale(0.015625)"/>
       <path id="DejaVuSans-50" d="M 3328 2828 
Q 3544 3216 3844 3400 
Q 4144 3584 4550 3584 
Q 5097 3584 5394 3201 
Q 5691 2819 5691 2113 
L 5691 0 
L 5113 0 
L 5113 2094 
Q 5113 2597 4934 2840 
Q 4756 3084 4391 3084 
Q 3944 3084 3684 2787 
Q 3425 2491 3425 1978 
L 3425 0 
L 2847 0 
L 2847 2094 
Q 2847 2600 2669 2842 
Q 2491 3084 2119 3084 
Q 1678 3084 1418 2786 
Q 1159 2488 1159 1978 
L 1159 0 
L 581 0 
L 581 3500 
L 1159 3500 
L 1159 2956 
Q 1356 3278 1631 3431 
Q 1906 3584 2284 3584 
Q 2666 3584 2933 3390 
Q 3200 3197 3328 2828 
z
" transform="scale(0.015625)"/>
      </defs>
      <use xlink:href="#DejaVuSans-37"/>
      <use xlink:href="#DejaVuSans-4c" transform="translate(58 0)"/>
      <use xlink:href="#DejaVuSans-50" transform="translate(85.78125 0)"/>
      <use xlink:href="#DejaVuSans-48" transform="translate(183.1875 0)"/>
     </g>
    </g>
   </g>
   <g id="matplotlib.axis_6">
    <g id="ytick_7">
     <g id="line2d_36">
      <g>
       <use xlink:href="#mce4fdcb9b5" x="44.103906" y="290.138166" style="stroke: #000000; stroke-width: 0.8"/>
      </g>
     </g>
     <g id="text_19">
      <!-- 0.0 -->
      <g transform="translate(21.200781 293.936994) scale(0.1 -0.1)">
       <defs>
        <path id="DejaVuSans-11" d="M 684 794 
L 1344 794 
L 1344 0 
L 684 0 
L 684 794 
z
" transform="scale(0.015625)"/>
       </defs>
       <use xlink:href="#DejaVuSans-13"/>
       <use xlink:href="#DejaVuSans-11" transform="translate(63.625 0)"/>
       <use xlink:href="#DejaVuSans-13" transform="translate(95.40625 0)"/>
      </g>
     </g>
    </g>
    <g id="ytick_8">
     <g id="line2d_37">
      <g>
       <use xlink:href="#mce4fdcb9b5" x="44.103906" y="249.532442" style="stroke: #000000; stroke-width: 0.8"/>
      </g>
     </g>
     <g id="text_20">
      <!-- 0.5 -->
      <g transform="translate(21.200781 253.33127) scale(0.1 -0.1)">
       <use xlink:href="#DejaVuSans-13"/>
       <use xlink:href="#DejaVuSans-11" transform="translate(63.625 0)"/>
       <use xlink:href="#DejaVuSans-18" transform="translate(95.40625 0)"/>
      </g>
     </g>
    </g>
    <g id="ytick_9">
     <g id="line2d_38">
      <g>
       <use xlink:href="#mce4fdcb9b5" x="44.103906" y="208.926718" style="stroke: #000000; stroke-width: 0.8"/>
      </g>
     </g>
     <g id="text_21">
      <!-- 1.0 -->
      <g transform="translate(21.200781 212.725546) scale(0.1 -0.1)">
       <use xlink:href="#DejaVuSans-14"/>
       <use xlink:href="#DejaVuSans-11" transform="translate(63.625 0)"/>
       <use xlink:href="#DejaVuSans-13" transform="translate(95.40625 0)"/>
      </g>
     </g>
    </g>
    <g id="text_22">
     <!-- Free lac operon -->
     <g transform="translate(14.798438 288.006661) rotate(-90) scale(0.1 -0.1)">
      <defs>
       <path id="DejaVuSans-29" d="M 628 4666 
L 3309 4666 
L 3309 4134 
L 1259 4134 
L 1259 2759 
L 3109 2759 
L 3109 2228 
L 1259 2228 
L 1259 0 
L 628 0 
L 628 4666 
z
" transform="scale(0.015625)"/>
       <path id="DejaVuSans-53" d="M 1159 525 
L 1159 -1331 
L 581 -1331 
L 581 3500 
L 1159 3500 
L 1159 2969 
Q 1341 3281 1617 3432 
Q 1894 3584 2278 3584 
Q 2916 3584 3314 3078 
Q 3713 2572 3713 1747 
Q 3713 922 3314 415 
Q 2916 -91 2278 -91 
Q 1894 -91 1617 61 
Q 1341 213 1159 525 
z
M 3116 1747 
Q 3116 2381 2855 2742 
Q 2594 3103 2138 3103 
Q 1681 3103 1420 2742 
Q 1159 2381 1159 1747 
Q 1159 1113 1420 752 
Q 1681 391 2138 391 
Q 2594 391 2855 752 
Q 3116 1113 3116 1747 
z
" transform="scale(0.015625)"/>
       <path id="DejaVuSans-51" d="M 3513 2113 
L 3513 0 
L 2938 0 
L 2938 2094 
Q 2938 2591 2744 2837 
Q 2550 3084 2163 3084 
Q 1697 3084 1428 2787 
Q 1159 2491 1159 1978 
L 1159 0 
L 581 0 
L 581 3500 
L 1159 3500 
L 1159 2956 
Q 1366 3272 1645 3428 
Q 1925 3584 2291 3584 
Q 2894 3584 3203 3211 
Q 3513 2838 3513 2113 
z
" transform="scale(0.015625)"/>
      </defs>
      <use xlink:href="#DejaVuSans-29"/>
      <use xlink:href="#DejaVuSans-55" transform="translate(50.234375 0)"/>
      <use xlink:href="#DejaVuSans-48" transform="translate(89.140625 0)"/>
      <use xlink:href="#DejaVuSans-48" transform="translate(150.671875 0)"/>
      <use xlink:href="#DejaVuSans-3" transform="translate(212.203125 0)"/>
      <use xlink:href="#DejaVuSans-4f" transform="translate(243.984375 0)"/>
      <use xlink:href="#DejaVuSans-44" transform="translate(271.765625 0)"/>
      <use xlink:href="#DejaVuSans-46" transform="translate(333.046875 0)"/>
      <use xlink:href="#DejaVuSans-3" transform="translate(388.03125 0)"/>
      <use xlink:href="#DejaVuSans-52" transform="translate(419.8125 0)"/>
      <use xlink:href="#DejaVuSans-53" transform="translate(481 0)"/>
      <use xlink:href="#DejaVuSans-48" transform="translate(544.484375 0)"/>
      <use xlink:href="#DejaVuSans-55" transform="translate(606.015625 0)"/>
      <use xlink:href="#DejaVuSans-52" transform="translate(644.921875 0)"/>
      <use xlink:href="#DejaVuSans-51" transform="translate(706.109375 0)"/>
     </g>
    </g>
   </g>
   <g id="line2d_39">
    <path d="M 56.88098 208.926718 
L 56.962602 290.138166 
L 57.131112 290.138166 
L 57.300916 208.926718 
L 57.419239 208.926718 
L 57.521505 290.138166 
L 58.739389 290.138166 
L 59.730542 208.926718 
L 59.917131 208.926718 
L 59.939906 290.138166 
L 62.364554 290.138166 
L 64.962504 208.926718 
L 65.25779 208.926718 
L 65.395416 290.138166 
L 65.521455 290.138166 
L 72.19269 208.926718 
L 72.362704 290.138166 
L 80.212656 208.926718 
L 80.261758 290.138166 
L 82.891693 208.926718 
L 83.031868 208.926718 
L 83.086102 290.138166 
L 84.828733 290.138166 
L 84.894253 208.926718 
L 85.771699 208.926718 
L 85.961927 290.138166 
L 86.996129 290.138166 
L 89.992671 208.926718 
L 90.533387 208.926718 
L 90.562705 290.138166 
L 90.921083 290.138166 
L 91.803635 208.926718 
L 91.862159 290.138166 
L 92.206453 290.138166 
L 109.303745 208.926718 
L 109.317465 290.138166 
L 109.576268 290.138166 
L 109.852759 208.926718 
L 110.140489 290.138166 
L 110.268726 208.926718 
L 110.677009 208.926718 
L 110.881859 290.138166 
L 111.174883 290.138166 
L 115.342457 208.926718 
L 116.003942 290.138166 
L 117.648113 208.926718 
L 117.963754 290.138166 
L 118.637052 208.926718 
L 118.72449 290.138166 
L 119.73516 208.926718 
L 119.82018 290.138166 
L 123.768124 290.138166 
L 129.794779 208.926718 
L 129.900864 290.138166 
L 131.645395 208.926718 
L 132.096773 208.926718 
L 132.118241 290.138166 
L 133.960918 290.138166 
L 136.559925 208.926718 
L 136.573249 290.138166 
L 139.458043 208.926718 
L 139.500829 290.138166 
L 146.553257 208.926718 
L 147.498805 208.926718 
L 147.567206 290.138166 
L 148.18443 290.138166 
L 148.42978 208.926718 
L 148.745067 208.926718 
L 148.857959 290.138166 
L 149.929952 290.138166 
L 150.442044 208.926718 
L 150.542927 290.138166 
L 151.665471 290.138166 
L 151.676807 208.926718 
L 151.838552 290.138166 
L 156.152616 208.926718 
L 156.241664 290.138166 
L 156.491304 208.926718 
L 203.503753 208.926718 
L 203.547727 290.138166 
L 212.120894 290.138166 
L 213.784719 208.926718 
L 214.943859 208.926718 
L 214.989275 290.138166 
L 215.702542 290.138166 
L 215.97639 208.926718 
L 217.709885 208.926718 
L 218.109298 290.138166 
L 218.568685 290.138166 
L 218.734119 208.926718 
L 218.882983 208.926718 
L 219.050096 290.138166 
L 221.998379 290.138166 
L 223.47104 208.926718 
L 223.56882 290.138166 
L 224.025025 208.926718 
L 224.331438 208.926718 
L 224.501496 290.138166 
L 224.554753 208.926718 
L 224.606422 290.138166 
L 225.87679 290.138166 
L 234.819372 208.926718 
L 234.964876 208.926718 
L 234.969274 290.138166 
L 236.692605 290.138166 
L 243.464467 208.926718 
L 243.488753 290.138166 
L 243.94371 290.138166 
L 246.972747 208.926718 
L 247.021605 290.138166 
L 254.144158 208.926718 
L 255.111387 208.926718 
L 255.115523 290.138166 
L 255.174244 208.926718 
L 255.228711 208.926718 
L 255.521075 290.138166 
L 255.66763 290.138166 
L 257.786578 208.926718 
L 258.084926 208.926718 
L 258.097462 290.138166 
L 258.92351 290.138166 
L 270.291982 208.926718 
L 270.426943 290.138166 
L 270.68208 208.926718 
L 270.989444 208.926718 
L 271.101134 290.138166 
L 272.001121 290.138166 
L 273.255039 208.926718 
L 273.466536 208.926718 
L 273.557733 290.138166 
L 273.77471 208.926718 
L 273.851346 290.138166 
L 274.476931 208.926718 
L 274.797067 290.138166 
L 280.901654 208.926718 
L 281.142888 290.138166 
L 285.599801 208.926718 
L 285.620308 290.138166 
L 287.500071 208.926718 
L 288.09988 208.926718 
L 288.209919 290.138166 
L 289.681796 290.138166 
L 289.809171 208.926718 
L 295.35422 208.926718 
L 295.548062 290.138166 
L 296.075175 290.138166 
L 297.036791 208.926718 
L 304.154449 208.926718 
L 304.238666 290.138166 
L 304.965867 290.138166 
L 305.13923 208.926718 
L 305.172735 290.138166 
L 312.422447 208.926718 
L 312.422447 208.926718 
" clip-path="url(#p134d0dc046)" style="fill: none; stroke: #000000; stroke-width: 1.5; stroke-linecap: square"/>
   </g>
   <g id="patch_13">
    <path d="M 44.103906 294.198739 
L 44.103906 204.866146 
" style="fill: none; stroke: #000000; stroke-width: 0.8; stroke-linejoin: miter; stroke-linecap: square"/>
   </g>
   <g id="patch_14">
    <path d="M 325.19952 294.198739 
L 325.19952 204.866146 
" style="fill: none; stroke: #000000; stroke-width: 0.8; stroke-linejoin: miter; stroke-linecap: square"/>
   </g>
   <g id="patch_15">
    <path d="M 44.103906 294.198739 
L 325.19952 294.198739 
" style="fill: none; stroke: #000000; stroke-width: 0.8; stroke-linejoin: miter; stroke-linecap: square"/>
   </g>
   <g id="patch_16">
    <path d="M 44.103906 204.866146 
L 325.19952 204.866146 
" style="fill: none; stroke: #000000; stroke-width: 0.8; stroke-linejoin: miter; stroke-linecap: square"/>
   </g>
  </g>
 </g>
 <defs>
  <clipPath id="p874f96777d">
   <rect x="44.103906" y="7.2" width="281.095614" height="89.332593"/>
  </clipPath>
  <clipPath id="p964e116866">
   <rect x="44.103906" y="106.033073" width="281.095614" height="89.332593"/>
  </clipPath>
  <clipPath id="p134d0dc046">
   <rect x="44.103906" y="204.866146" width="281.095614" height="89.332593"/>
  </clipPath>
 </defs>
</svg>
