<?xml version="1.0" encoding="utf-8" standalone="no"?>
<!DOCTYPE svg PUBLIC "-//W3C//DTD SVG 1.1//EN"
  "http://www.w3.org/Graphics/SVG/1.1/DTD/svg11.dtd">
<svg xmlns:xlink="http://www.w3.org/1999/xlink" width="422.023263pt" height="311.512781pt" viewBox="0 0 422.023263 311.512781" xmlns="http://www.w3.org/2000/svg" version="1.1">
 <metadata>
  <rdf:RDF xmlns:dc="http://purl.org/dc/elements/1.1/" xmlns:cc="http://creativecommons.org/ns#" xmlns:rdf="http://www.w3.org/1999/02/22-rdf-syntax-ns#">
   <cc:Work>
    <dc:type rdf:resource="http://purl.org/dc/dcmitype/StillImage"/>
    <dc:date>2026-06-12T14:20:44.269589</dc:date>
    <dc:format>image/svg+xml</dc:format>
    <dc:creator>
     <cc:Agent>
      <dc:title>Matplotlib v3.11.0, https://matplotlib.org/</dc:title>
     </cc:Agent>
    </dc:creator>
   </cc:Work>
  </rdf:RDF>
 </metadata>
 <defs>
  <style type="text/css">*{stroke-linejoin: round; stroke-linecap: butt}</style>
 </defs>
 <g id="figure_1">
  <g id="patch_1">
   <path d="M 0 311.512781 
L 422.023263 311.512781 
L 422.023263 0 
L 0 0 
z
" style="fill: #ffffff"/>
  </g>
  <g id="axes_1">
   <g id="patch_2">
    <path d="M 47.288281 273.312 
L 404.408281 273.312 
L 404.408281 7.2 
L 47.288281 7.2 
z
" style="fill: #ffffff"/>
   </g>
   <g id="matplotlib.axis_1">
    <g id="xtick_1">
     <g id="line2d_1">
      <defs>
       <path id="m08d62a02bd" d="M 0 0 
L 0 3.5 
" style="stroke: #000000; stroke-width: 0.8"/>
      </defs>
      <g>
       <use xlink:href="#m08d62a02bd" x="47.288281" y="273.312" style="stroke: #000000; stroke-width: 0.8"/>
      </g>
     </g>
     <g id="text_1">
      <!-- 0.00 -->
      <g transform="translate(36.155469 287.909656) scale(0.1 -0.1)">
       <defs>
        <path id="DejaVuSans-13" d="M 2034 4250 
Q 1547 4250 1301 3770 
Q 1056 3291 1056 2328 
Q 1056 1369 1301 889 
Q 1547 409 2034 409 
Q 2525 409 2770 889 
Q 3016 1369 3016 2328 
Q 3016 3291 2770 3770 
Q 2525 4250 2034 4250 
z
M 2034 4750 
Q 2819 4750 3233 4129 
Q 3647 3509 3647 2328 
Q 3647 1150 3233 529 
Q 2819 -91 2034 -91 
Q 1250 -91 836 529 
Q 422 1150 422 2328 
Q 422 3509 836 4129 
Q 1250 4750 2034 4750 
z
" transform="scale(0.015625)"/>
        <path id="DejaVuSans-11" d="M 684 794 
L 1344 794 
L 1344 0 
L 684 0 
L 684 794 
z
" transform="scale(0.015625)"/>
       </defs>
       <use xlink:href="#DejaVuSans-13"/>
       <use xlink:href="#DejaVuSans-11" transform="translate(63.625 0)"/>
       <use xlink:href="#DejaVuSans-13" transform="translate(95.40625 0)"/>
       <use xlink:href="#DejaVuSans-13" transform="translate(159.03125 0)"/>
      </g>
     </g>
    </g>
    <g id="xtick_2">
     <g id="line2d_2">
      <g>
       <use xlink:href="#m08d62a02bd" x="91.838552" y="273.312" style="stroke: #000000; stroke-width: 0.8"/>
      </g>
     </g>
     <g id="text_2">
      <!-- 0.25 -->
      <g transform="translate(80.70574 287.909656) scale(0.1 -0.1)">
       <defs>
        <path id="DejaVuSans-15" d="M 1228 531 
L 3431 531 
L 3431 0 
L 469 0 
L 469 531 
Q 828 903 1448 1529 
Q 2069 2156 2228 2338 
Q 2531 2678 2651 2914 
Q 2772 3150 2772 3378 
Q 2772 3750 2511 3984 
Q 2250 4219 1831 4219 
Q 1534 4219 1204 4116 
Q 875 4013 500 3803 
L 500 4441 
Q 881 4594 1212 4672 
Q 1544 4750 1819 4750 
Q 2544 4750 2975 4387 
Q 3406 4025 3406 3419 
Q 3406 3131 3298 2873 
Q 3191 2616 2906 2266 
Q 2828 2175 2409 1742 
Q 1991 1309 1228 531 
z
" transform="scale(0.015625)"/>
        <path id="DejaVuSans-18" d="M 691 4666 
L 3169 4666 
L 3169 4134 
L 1269 4134 
L 1269 2991 
Q 1406 3038 1543 3061 
Q 1681 3084 1819 3084 
Q 2600 3084 3056 2656 
Q 3513 2228 3513 1497 
Q 3513 744 3044 326 
Q 2575 -91 1722 -91 
Q 1428 -91 1123 -41 
Q 819 9 494 109 
L 494 744 
Q 775 591 1075 516 
Q 1375 441 1709 441 
Q 2250 441 2565 725 
Q 2881 1009 2881 1497 
Q 2881 1984 2565 2268 
Q 2250 2553 1709 2553 
Q 1456 2553 1204 2497 
Q 953 2441 691 2322 
L 691 4666 
z
" transform="scale(0.015625)"/>
       </defs>
       <use xlink:href="#DejaVuSans-13"/>
       <use xlink:href="#DejaVuSans-11" transform="translate(63.625 0)"/>
       <use xlink:href="#DejaVuSans-15" transform="translate(95.40625 0)"/>
       <use xlink:href="#DejaVuSans-18" transform="translate(159.03125 0)"/>
      </g>
     </g>
    </g>
    <g id="xtick_3">
     <g id="line2d_3">
      <g>
       <use xlink:href="#m08d62a02bd" x="136.388823" y="273.312" style="stroke: #000000; stroke-width: 0.8"/>
      </g>
     </g>
     <g id="text_3">
      <!-- 0.50 -->
      <g transform="translate(125.256011 287.909656) scale(0.1 -0.1)">
       <use xlink:href="#DejaVuSans-13"/>
       <use xlink:href="#DejaVuSans-11" transform="translate(63.625 0)"/>
       <use xlink:href="#DejaVuSans-18" transform="translate(95.40625 0)"/>
       <use xlink:href="#DejaVuSans-13" transform="translate(159.03125 0)"/>
      </g>
     </g>
    </g>
    <g id="xtick_4">
     <g id="line2d_4">
      <g>
       <use xlink:href="#m08d62a02bd" x="180.939095" y="273.312" style="stroke: #000000; stroke-width: 0.8"/>
      </g>
     </g>
     <g id="text_4">
      <!-- 0.75 -->
      <g transform="translate(169.806282 287.909656) scale(0.1 -0.1)">
       <defs>
        <path id="DejaVuSans-1a" d="M 525 4666 
L 3525 4666 
L 3525 4397 
L 1831 0 
L 1172 0 
L 2766 4134 
L 525 4134 
L 525 4666 
z
" transform="scale(0.015625)"/>
       </defs>
       <use xlink:href="#DejaVuSans-13"/>
       <use xlink:href="#DejaVuSans-11" transform="translate(63.625 0)"/>
       <use xlink:href="#DejaVuSans-1a" transform="translate(95.40625 0)"/>
       <use xlink:href="#DejaVuSans-18" transform="translate(159.03125 0)"/>
      </g>
     </g>
    </g>
    <g id="xtick_5">
     <g id="line2d_5">
      <g>
       <use xlink:href="#m08d62a02bd" x="225.489366" y="273.312" style="stroke: #000000; stroke-width: 0.8"/>
      </g>
     </g>
     <g id="text_5">
      <!-- 1.00 -->
      <g transform="translate(214.356553 287.909656) scale(0.1 -0.1)">
       <defs>
        <path id="DejaVuSans-14" d="M 794 531 
L 1825 531 
L 1825 4091 
L 703 3866 
L 703 4441 
L 1819 4666 
L 2450 4666 
L 2450 531 
L 3481 531 
L 3481 0 
L 794 0 
L 794 531 
z
" transform="scale(0.015625)"/>
       </defs>
       <use xlink:href="#DejaVuSans-14"/>
       <use xlink:href="#DejaVuSans-11" transform="translate(63.625 0)"/>
       <use xlink:href="#DejaVuSans-13" transform="translate(95.40625 0)"/>
       <use xlink:href="#DejaVuSans-13" transform="translate(159.03125 0)"/>
      </g>
     </g>
    </g>
    <g id="xtick_6">
     <g id="line2d_6">
      <g>
       <use xlink:href="#m08d62a02bd" x="270.039637" y="273.312" style="stroke: #000000; stroke-width: 0.8"/>
      </g>
     </g>
     <g id="text_6">
      <!-- 1.25 -->
      <g transform="translate(258.906824 287.909656) scale(0.1 -0.1)">
       <use xlink:href="#DejaVuSans-14"/>
       <use xlink:href="#DejaVuSans-11" transform="translate(63.625 0)"/>
       <use xlink:href="#DejaVuSans-15" transform="translate(95.40625 0)"/>
       <use xlink:href="#DejaVuSans-18" transform="translate(159.03125 0)"/>
      </g>
     </g>
    </g>
    <g id="xtick_7">
     <g id="line2d_7">
      <g>
       <use xlink:href="#m08d62a02bd" x="314.589908" y="273.312" style="stroke: #000000; stroke-width: 0.8"/>
      </g>
     </g>
     <g id="text_7">
      <!-- 1.50 -->
      <g transform="translate(303.457095 287.909656) scale(0.1 -0.1)">
       <use xlink:href="#DejaVuSans-14"/>
       <use xlink:href="#DejaVuSans-11" transform="translate(63.625 0)"/>
       <use xlink:href="#DejaVuSans-18" transform="translate(95.40625 0)"/>
       <use xlink:href="#DejaVuSans-13" transform="translate(159.03125 0)"/>
      </g>
     </g>
    </g>
    <g id="xtick_8">
     <g id="line2d_8">
      <g>
       <use xlink:href="#m08d62a02bd" x="359.140179" y="273.312" style="stroke: #000000; stroke-width: 0.8"/>
      </g>
     </g>
     <g id="text_8">
      <!-- 1.75 -->
      <g transform="translate(348.007367 287.909656) scale(0.1 -0.1)">
       <use xlink:href="#DejaVuSans-14"/>
       <use xlink:href="#DejaVuSans-11" transform="translate(63.625 0)"/>
       <use xlink:href="#DejaVuSans-1a" transform="translate(95.40625 0)"/>
       <use xlink:href="#DejaVuSans-18" transform="translate(159.03125 0)"/>
      </g>
     </g>
    </g>
    <g id="xtick_9">
     <g id="line2d_9">
      <g>
       <use xlink:href="#m08d62a02bd" x="403.69045" y="273.312" style="stroke: #000000; stroke-width: 0.8"/>
      </g>
     </g>
     <g id="text_9">
      <!-- 2.00 -->
      <g transform="translate(392.557638 287.909656) scale(0.1 -0.1)">
       <use xlink:href="#DejaVuSans-15"/>
       <use xlink:href="#DejaVuSans-11" transform="translate(63.625 0)"/>
       <use xlink:href="#DejaVuSans-13" transform="translate(95.40625 0)"/>
       <use xlink:href="#DejaVuSans-13" transform="translate(159.03125 0)"/>
      </g>
     </g>
    </g>
    <g id="text_10">
     <!-- Time -->
     <g transform="translate(213.612344 301.910437) scale(0.1 -0.1)">
      <defs>
       <path id="DejaVuSans-37" d="M -19 4666 
L 3928 4666 
L 3928 4134 
L 2272 4134 
L 2272 0 
L 1638 0 
L 1638 4134 
L -19 4134 
L -19 4666 
z
" transform="scale(0.015625)"/>
       <path id="DejaVuSans-4c" d="M 603 3500 
L 1178 3500 
L 1178 0 
L 603 0 
L 603 3500 
z
M 603 4863 
L 1178 4863 
L 1178 4134 
L 603 4134 
L 603 4863 
z
" transform="scale(0.015625)"/>
       <path id="DejaVuSans-50" d="M 3328 2828 
Q 3544 3216 3844 3400 
Q 4144 3584 4550 3584 
Q 5097 3584 5394 3201 
Q 5691 2819 5691 2113 
L 5691 0 
L 5113 0 
L 5113 2094 
Q 5113 2597 4934 2840 
Q 4756 3084 4391 3084 
Q 3944 3084 3684 2787 
Q 3425 2491 3425 1978 
L 3425 0 
L 2847 0 
L 2847 2094 
Q 2847 2600 2669 2842 
Q 2491 3084 2119 3084 
Q 1678 3084 1418 2786 
Q 1159 2488 1159 1978 
L 1159 0 
L 581 0 
L 581 3500 
L 1159 3500 
L 1159 2956 
Q 1356 3278 1631 3431 
Q 1906 3584 2284 3584 
Q 2666 3584 2933 3390 
Q 3200 3197 3328 2828 
z
" transform="scale(0.015625)"/>
       <path id="DejaVuSans-48" d="M 3597 1894 
L 3597 1613 
L 953 1613 
Q 991 1019 1311 708 
Q 1631 397 2203 397 
Q 2534 397 2845 478 
Q 3156 559 3463 722 
L 3463 178 
Q 3153 47 2828 -22 
Q 2503 -91 2169 -91 
Q 1331 -91 842 396 
Q 353 884 353 1716 
Q 353 2575 817 3079 
Q 1281 3584 2069 3584 
Q 2775 3584 3186 3129 
Q 3597 2675 3597 1894 
z
M 3022 2063 
Q 3016 2534 2758 2815 
Q 2500 3097 2075 3097 
Q 1594 3097 1305 2825 
Q 1016 2553 972 2059 
L 3022 2063 
z
" transform="scale(0.015625)"/>
      </defs>
      <use xlink:href="#DejaVuSans-37"/>
      <use xlink:href="#DejaVuSans-4c" transform="translate(58 0)"/>
      <use xlink:href="#DejaVuSans-50" transform="translate(85.78125 0)"/>
      <use xlink:href="#DejaVuSans-48" transform="translate(183.1875 0)"/>
     </g>
    </g>
   </g>
   <g id="matplotlib.axis_2">
    <g id="ytick_1">
     <g id="line2d_10">
      <defs>
       <path id="mdeb48053e6" d="M 0 0 
L -3.5 0 
" style="stroke: #000000; stroke-width: 0.8"/>
      </defs>
      <g>
       <use xlink:href="#mdeb48053e6" x="47.288281" y="273.312" style="stroke: #000000; stroke-width: 0.8"/>
      </g>
     </g>
     <g id="text_11">
      <!-- 0 -->
      <g transform="translate(33.925781 277.110828) scale(0.1 -0.1)">
       <use xlink:href="#DejaVuSans-13"/>
      </g>
     </g>
    </g>
    <g id="ytick_2">
     <g id="line2d_11">
      <g>
       <use xlink:href="#mdeb48053e6" x="47.288281" y="236.093538" style="stroke: #000000; stroke-width: 0.8"/>
      </g>
     </g>
     <g id="text_12">
      <!-- 20 -->
      <g transform="translate(27.563281 239.892367) scale(0.1 -0.1)">
       <use xlink:href="#DejaVuSans-15"/>
       <use xlink:href="#DejaVuSans-13" transform="translate(63.625 0)"/>
      </g>
     </g>
    </g>
    <g id="ytick_3">
     <g id="line2d_12">
      <g>
       <use xlink:href="#mdeb48053e6" x="47.288281" y="198.875077" style="stroke: #000000; stroke-width: 0.8"/>
      </g>
     </g>
     <g id="text_13">
      <!-- 40 -->
      <g transform="translate(27.563281 202.673905) scale(0.1 -0.1)">
       <defs>
        <path id="DejaVuSans-17" d="M 2419 4116 
L 825 1625 
L 2419 1625 
L 2419 4116 
z
M 2253 4666 
L 3047 4666 
L 3047 1625 
L 3713 1625 
L 3713 1100 
L 3047 1100 
L 3047 0 
L 2419 0 
L 2419 1100 
L 313 1100 
L 313 1709 
L 2253 4666 
z
" transform="scale(0.015625)"/>
       </defs>
       <use xlink:href="#DejaVuSans-17"/>
       <use xlink:href="#DejaVuSans-13" transform="translate(63.625 0)"/>
      </g>
     </g>
    </g>
    <g id="ytick_4">
     <g id="line2d_13">
      <g>
       <use xlink:href="#mdeb48053e6" x="47.288281" y="161.656615" style="stroke: #000000; stroke-width: 0.8"/>
      </g>
     </g>
     <g id="text_14">
      <!-- 60 -->
      <g transform="translate(27.563281 165.455444) scale(0.1 -0.1)">
       <defs>
        <path id="DejaVuSans-19" d="M 2113 2584 
Q 1688 2584 1439 2293 
Q 1191 2003 1191 1497 
Q 1191 994 1439 701 
Q 1688 409 2113 409 
Q 2538 409 2786 701 
Q 3034 994 3034 1497 
Q 3034 2003 2786 2293 
Q 2538 2584 2113 2584 
z
M 3366 4563 
L 3366 3988 
Q 3128 4100 2886 4159 
Q 2644 4219 2406 4219 
Q 1781 4219 1451 3797 
Q 1122 3375 1075 2522 
Q 1259 2794 1537 2939 
Q 1816 3084 2150 3084 
Q 2853 3084 3261 2657 
Q 3669 2231 3669 1497 
Q 3669 778 3244 343 
Q 2819 -91 2113 -91 
Q 1303 -91 875 529 
Q 447 1150 447 2328 
Q 447 3434 972 4092 
Q 1497 4750 2381 4750 
Q 2619 4750 2861 4703 
Q 3103 4656 3366 4563 
z
" transform="scale(0.015625)"/>
       </defs>
       <use xlink:href="#DejaVuSans-19"/>
       <use xlink:href="#DejaVuSans-13" transform="translate(63.625 0)"/>
      </g>
     </g>
    </g>
    <g id="ytick_5">
     <g id="line2d_14">
      <g>
       <use xlink:href="#mdeb48053e6" x="47.288281" y="124.438154" style="stroke: #000000; stroke-width: 0.8"/>
      </g>
     </g>
     <g id="text_15">
      <!-- 80 -->
      <g transform="translate(27.563281 128.236982) scale(0.1 -0.1)">
       <defs>
        <path id="DejaVuSans-1b" d="M 2034 2216 
Q 1584 2216 1326 1975 
Q 1069 1734 1069 1313 
Q 1069 891 1326 650 
Q 1584 409 2034 409 
Q 2484 409 2743 651 
Q 3003 894 3003 1313 
Q 3003 1734 2745 1975 
Q 2488 2216 2034 2216 
z
M 1403 2484 
Q 997 2584 770 2862 
Q 544 3141 544 3541 
Q 544 4100 942 4425 
Q 1341 4750 2034 4750 
Q 2731 4750 3128 4425 
Q 3525 4100 3525 3541 
Q 3525 3141 3298 2862 
Q 3072 2584 2669 2484 
Q 3125 2378 3379 2068 
Q 3634 1759 3634 1313 
Q 3634 634 3220 271 
Q 2806 -91 2034 -91 
Q 1263 -91 848 271 
Q 434 634 434 1313 
Q 434 1759 690 2068 
Q 947 2378 1403 2484 
z
M 1172 3481 
Q 1172 3119 1398 2916 
Q 1625 2713 2034 2713 
Q 2441 2713 2670 2916 
Q 2900 3119 2900 3481 
Q 2900 3844 2670 4047 
Q 2441 4250 2034 4250 
Q 1625 4250 1398 4047 
Q 1172 3844 1172 3481 
z
" transform="scale(0.015625)"/>
       </defs>
       <use xlink:href="#DejaVuSans-1b"/>
       <use xlink:href="#DejaVuSans-13" transform="translate(63.625 0)"/>
      </g>
     </g>
    </g>
    <g id="ytick_6">
     <g id="line2d_15">
      <g>
       <use xlink:href="#mdeb48053e6" x="47.288281" y="87.219692" style="stroke: #000000; stroke-width: 0.8"/>
      </g>
     </g>
     <g id="text_16">
      <!-- 100 -->
      <g transform="translate(21.200781 91.01852) scale(0.1 -0.1)">
       <use xlink:href="#DejaVuSans-14"/>
       <use xlink:href="#DejaVuSans-13" transform="translate(63.625 0)"/>
       <use xlink:href="#DejaVuSans-13" transform="translate(127.25 0)"/>
      </g>
     </g>
    </g>
    <g id="ytick_7">
     <g id="line2d_16">
      <g>
       <use xlink:href="#mdeb48053e6" x="47.288281" y="50.001231" style="stroke: #000000; stroke-width: 0.8"/>
      </g>
     </g>
     <g id="text_17">
      <!-- 120 -->
      <g transform="translate(21.200781 53.800059) scale(0.1 -0.1)">
       <use xlink:href="#DejaVuSans-14"/>
       <use xlink:href="#DejaVuSans-15" transform="translate(63.625 0)"/>
       <use xlink:href="#DejaVuSans-13" transform="translate(127.25 0)"/>
      </g>
     </g>
    </g>
    <g id="ytick_8">
     <g id="line2d_17">
      <g>
       <use xlink:href="#mdeb48053e6" x="47.288281" y="12.782769" style="stroke: #000000; stroke-width: 0.8"/>
      </g>
     </g>
     <g id="text_18">
      <!-- 140 -->
      <g transform="translate(21.200781 16.581597) scale(0.1 -0.1)">
       <use xlink:href="#DejaVuSans-14"/>
       <use xlink:href="#DejaVuSans-17" transform="translate(63.625 0)"/>
       <use xlink:href="#DejaVuSans-13" transform="translate(127.25 0)"/>
      </g>
     </g>
    </g>
    <g id="text_19">
     <!-- Observable -->
     <g transform="translate(14.798438 168.766156) rotate(-90) scale(0.1 -0.1)">
      <defs>
       <path id="DejaVuSans-32" d="M 2522 4238 
Q 1834 4238 1429 3725 
Q 1025 3213 1025 2328 
Q 1025 1447 1429 934 
Q 1834 422 2522 422 
Q 3209 422 3611 934 
Q 4013 1447 4013 2328 
Q 4013 3213 3611 3725 
Q 3209 4238 2522 4238 
z
M 2522 4750 
Q 3503 4750 4090 4092 
Q 4678 3434 4678 2328 
Q 4678 1225 4090 567 
Q 3503 -91 2522 -91 
Q 1538 -91 948 565 
Q 359 1222 359 2328 
Q 359 3434 948 4092 
Q 1538 4750 2522 4750 
z
" transform="scale(0.015625)"/>
       <path id="DejaVuSans-45" d="M 3116 1747 
Q 3116 2381 2855 2742 
Q 2594 3103 2138 3103 
Q 1681 3103 1420 2742 
Q 1159 2381 1159 1747 
Q 1159 1113 1420 752 
Q 1681 391 2138 391 
Q 2594 391 2855 752 
Q 3116 1113 3116 1747 
z
M 1159 2969 
Q 1341 3281 1617 3432 
Q 1894 3584 2278 3584 
Q 2916 3584 3314 3078 
Q 3713 2572 3713 1747 
Q 3713 922 3314 415 
Q 2916 -91 2278 -91 
Q 1894 -91 1617 61 
Q 1341 213 1159 525 
L 1159 0 
L 581 0 
L 581 4863 
L 1159 4863 
L 1159 2969 
z
" transform="scale(0.015625)"/>
       <path id="DejaVuSans-56" d="M 2834 3397 
L 2834 2853 
Q 2591 2978 2328 3040 
Q 2066 3103 1784 3103 
Q 1356 3103 1142 2972 
Q 928 2841 928 2578 
Q 928 2378 1081 2264 
Q 1234 2150 1697 2047 
L 1894 2003 
Q 2506 1872 2764 1633 
Q 3022 1394 3022 966 
Q 3022 478 2636 193 
Q 2250 -91 1575 -91 
Q 1294 -91 989 -36 
Q 684 19 347 128 
L 347 722 
Q 666 556 975 473 
Q 1284 391 1588 391 
Q 1994 391 2212 530 
Q 2431 669 2431 922 
Q 2431 1156 2273 1281 
Q 2116 1406 1581 1522 
L 1381 1569 
Q 847 1681 609 1914 
Q 372 2147 372 2553 
Q 372 3047 722 3315 
Q 1072 3584 1716 3584 
Q 2034 3584 2315 3537 
Q 2597 3491 2834 3397 
z
" transform="scale(0.015625)"/>
       <path id="DejaVuSans-55" d="M 2631 2963 
Q 2534 3019 2420 3045 
Q 2306 3072 2169 3072 
Q 1681 3072 1420 2755 
Q 1159 2438 1159 1844 
L 1159 0 
L 581 0 
L 581 3500 
L 1159 3500 
L 1159 2956 
Q 1341 3275 1631 3429 
Q 1922 3584 2338 3584 
Q 2397 3584 2469 3576 
Q 2541 3569 2628 3553 
L 2631 2963 
z
" transform="scale(0.015625)"/>
       <path id="DejaVuSans-59" d="M 191 3500 
L 800 3500 
L 1894 563 
L 2988 3500 
L 3597 3500 
L 2284 0 
L 1503 0 
L 191 3500 
z
" transform="scale(0.015625)"/>
       <path id="DejaVuSans-44" d="M 2194 1759 
Q 1497 1759 1228 1600 
Q 959 1441 959 1056 
Q 959 750 1161 570 
Q 1363 391 1709 391 
Q 2188 391 2477 730 
Q 2766 1069 2766 1631 
L 2766 1759 
L 2194 1759 
z
M 3341 1997 
L 3341 0 
L 2766 0 
L 2766 531 
Q 2569 213 2275 61 
Q 1981 -91 1556 -91 
Q 1019 -91 701 211 
Q 384 513 384 1019 
Q 384 1609 779 1909 
Q 1175 2209 1959 2209 
L 2766 2209 
L 2766 2266 
Q 2766 2663 2505 2880 
Q 2244 3097 1772 3097 
Q 1472 3097 1187 3025 
Q 903 2953 641 2809 
L 641 3341 
Q 956 3463 1253 3523 
Q 1550 3584 1831 3584 
Q 2591 3584 2966 3190 
Q 3341 2797 3341 1997 
z
" transform="scale(0.015625)"/>
       <path id="DejaVuSans-4f" d="M 603 4863 
L 1178 4863 
L 1178 0 
L 603 0 
L 603 4863 
z
" transform="scale(0.015625)"/>
      </defs>
      <use xlink:href="#DejaVuSans-32"/>
      <use xlink:href="#DejaVuSans-45" transform="translate(78.71875 0)"/>
      <use xlink:href="#DejaVuSans-56" transform="translate(142.203125 0)"/>
      <use xlink:href="#DejaVuSans-48" transform="translate(194.296875 0)"/>
      <use xlink:href="#DejaVuSans-55" transform="translate(255.828125 0)"/>
      <use xlink:href="#DejaVuSans-59" transform="translate(296.9375 0)"/>
      <use xlink:href="#DejaVuSans-44" transform="translate(356.125 0)"/>
      <use xlink:href="#DejaVuSans-45" transform="translate(417.40625 0)"/>
      <use xlink:href="#DejaVuSans-4f" transform="translate(480.890625 0)"/>
      <use xlink:href="#DejaVuSans-48" transform="translate(508.671875 0)"/>
     </g>
    </g>
   </g>
   <g id="line2d_18">
    <path d="M 47.288281 273.312 
L 47.741861 237.954462 
L 47.836645 232.371692 
L 47.945356 217.484308 
L 48.110132 215.623385 
L 48.384332 202.596923 
L 48.511832 198.875077 
L 48.623299 193.292308 
L 48.948446 191.431385 
L 49.059115 183.987692 
L 49.418643 182.126769 
L 49.656906 180.265846 
L 49.764387 174.683077 
L 49.823358 170.961231 
L 50.002098 169.100308 
L 50.06421 167.239385 
L 50.292111 165.378462 
L 50.422943 161.656615 
L 50.747128 157.934769 
L 50.749643 154.212923 
L 51.026074 152.352 
L 51.076836 150.491077 
L 51.383629 152.352 
L 51.406458 148.630154 
L 51.630247 146.769231 
L 52.088022 137.464615 
L 53.272024 135.603692 
L 53.441819 131.881846 
L 53.631495 128.16 
L 53.654844 126.299077 
L 53.743942 128.16 
L 54.36654 126.299077 
L 54.549198 122.577231 
L 55.654412 120.716308 
L 55.93529 118.855385 
L 56.724569 116.994462 
L 56.778006 115.133538 
L 57.094696 113.272615 
L 57.919929 111.411692 
L 60.805635 109.550769 
L 61.201368 107.689846 
L 62.879964 105.828923 
L 63.077841 103.968 
L 63.645574 102.107077 
L 63.973903 103.968 
L 64.580434 105.828923 
L 65.330033 103.968 
L 72.830737 105.828923 
L 76.088673 107.689846 
L 77.691178 105.828923 
L 78.845766 102.107077 
L 79.389943 103.968 
L 79.709214 105.828923 
L 80.278506 103.968 
L 83.546185 105.828923 
L 84.307206 107.689846 
L 84.449918 105.828923 
L 87.699214 107.689846 
L 88.362218 109.550769 
L 88.407432 107.689846 
L 89.000472 109.550769 
L 89.13205 111.411692 
L 89.190176 109.550769 
L 89.884511 111.411692 
L 90.071167 109.550769 
L 91.768602 107.689846 
L 92.534596 109.550769 
L 92.95198 107.689846 
L 93.579743 109.550769 
L 93.755241 111.411692 
L 93.945074 109.550769 
L 94.800591 107.689846 
L 95.123098 109.550769 
L 95.180943 107.689846 
L 100.673245 109.550769 
L 100.731685 107.689846 
L 100.99318 109.550769 
L 102.627323 111.411692 
L 102.948423 109.550769 
L 104.326587 111.411692 
L 104.98504 113.272615 
L 105.655662 111.411692 
L 106.83822 109.550769 
L 107.674557 111.411692 
L 107.861895 107.689846 
L 108.131686 109.550769 
L 109.956413 105.828923 
L 110.585247 107.689846 
L 112.173338 105.828923 
L 112.690038 103.968 
L 112.693718 105.828923 
L 113.644435 103.968 
L 115.044991 105.828923 
L 115.568404 103.968 
L 115.64945 105.828923 
L 117.846635 107.689846 
L 119.373528 109.550769 
L 119.49664 107.689846 
L 119.809376 109.550769 
L 121.030849 111.411692 
L 122.626228 109.550769 
L 122.846717 107.689846 
L 124.132019 109.550769 
L 124.532596 107.689846 
L 124.675064 109.550769 
L 126.210946 111.411692 
L 127.36981 113.272615 
L 127.385671 115.133538 
L 127.61776 116.994462 
L 128.46719 118.855385 
L 130.076088 115.133538 
L 131.258555 116.994462 
L 131.390417 118.855385 
L 131.685861 116.994462 
L 132.517343 115.133538 
L 132.53111 113.272615 
L 132.782542 115.133538 
L 134.741542 113.272615 
L 135.389749 111.411692 
L 138.154111 109.550769 
L 140.305411 107.689846 
L 146.372776 103.968 
L 146.491653 102.107077 
L 147.981185 100.246154 
L 149.150704 102.107077 
L 149.706384 103.968 
L 150.010982 105.828923 
L 150.01257 107.689846 
L 150.668663 109.550769 
L 151.709144 111.411692 
L 152.02441 109.550769 
L 152.862687 107.689846 
L 153.182392 109.550769 
L 154.159493 107.689846 
L 154.47349 105.828923 
L 154.956353 103.968 
L 155.097411 102.107077 
L 158.318156 103.968 
L 160.733239 105.828923 
L 161.069038 107.689846 
L 161.069382 105.828923 
L 161.59641 107.689846 
L 162.498751 105.828923 
L 163.046187 103.968 
L 163.710202 105.828923 
L 165.201235 103.968 
L 165.293037 105.828923 
L 166.233031 103.968 
L 168.000618 105.828923 
L 169.048413 103.968 
L 169.278475 102.107077 
L 169.59927 103.968 
L 171.562977 102.107077 
L 172.17433 103.968 
L 172.398337 105.828923 
L 173.037952 103.968 
L 174.143712 102.107077 
L 175.731712 103.968 
L 175.848482 102.107077 
L 176.06946 103.968 
L 176.825492 102.107077 
L 177.152895 103.968 
L 177.78453 105.828923 
L 178.817486 107.689846 
L 179.585436 109.550769 
L 181.290884 107.689846 
L 182.368895 105.828923 
L 184.033959 107.689846 
L 185.964513 109.550769 
L 186.458972 107.689846 
L 186.699975 109.550769 
L 187.81499 107.689846 
L 188.651265 105.828923 
L 188.726906 103.968 
L 189.0554 102.107077 
L 189.942819 100.246154 
L 190.272873 102.107077 
L 191.672896 100.246154 
L 192.329946 102.107077 
L 192.943903 100.246154 
L 193.627812 102.107077 
L 194.62992 103.968 
L 196.643011 105.828923 
L 197.091937 103.968 
L 197.541059 105.828923 
L 199.342179 107.689846 
L 199.802991 109.550769 
L 200.409757 107.689846 
L 200.621182 105.828923 
L 201.158046 103.968 
L 201.582484 105.828923 
L 202.06836 103.968 
L 202.721038 102.107077 
L 203.833128 100.246154 
L 204.461737 102.107077 
L 204.493123 103.968 
L 205.001608 98.385231 
L 206.964909 100.246154 
L 208.714751 102.107077 
L 209.046839 100.246154 
L 209.071403 102.107077 
L 219.68563 100.246154 
L 222.208576 103.968 
L 225.304299 102.107077 
L 225.32782 100.246154 
L 225.497146 102.107077 
L 225.824908 89.080615 
L 226.034407 87.219692 
L 226.590214 76.054154 
L 226.755525 74.193231 
L 226.765686 76.054154 
L 226.85378 74.193231 
L 226.965715 72.332308 
L 227.091702 74.193231 
L 227.283433 66.749538 
L 227.796923 61.166769 
L 227.857134 59.305846 
L 228.110271 57.444923 
L 228.205144 53.723077 
L 228.393633 51.862154 
L 228.395316 53.723077 
L 228.409282 51.862154 
L 228.869123 44.418462 
L 229.309356 40.696615 
L 229.489217 38.835692 
L 230.166685 35.113846 
L 230.317875 31.392 
L 230.575956 33.252923 
L 230.639968 31.392 
L 230.862563 29.531077 
L 232.222729 27.670154 
L 232.534238 22.087385 
L 232.912351 20.226462 
L 234.87743 18.365538 
L 235.573579 16.504615 
L 236.855397 14.643692 
L 238.268233 16.504615 
L 238.668705 14.643692 
L 238.808379 12.782769 
L 240.910629 14.643692 
L 242.094036 12.782769 
L 242.151186 14.643692 
L 242.188951 12.782769 
L 242.80334 10.921846 
L 246.899109 9.060923 
L 248.149807 10.921846 
L 249.405388 9.060923 
L 250.044959 10.921846 
L 250.514294 12.782769 
L 253.935978 10.921846 
L 254.714838 12.782769 
L 255.715302 14.643692 
L 255.874947 12.782769 
L 256.676903 10.921846 
L 256.830168 9.060923 
L 256.832486 10.921846 
L 257.555675 9.060923 
L 257.78343 10.921846 
L 260.683871 16.504615 
L 261.367794 18.365538 
L 261.690202 16.504615 
L 262.349348 18.365538 
L 263.369831 16.504615 
L 263.48448 14.643692 
L 264.431779 16.504615 
L 264.64697 14.643692 
L 265.446769 16.504615 
L 267.25345 14.643692 
L 267.720072 12.782769 
L 267.750275 14.643692 
L 268.016947 12.782769 
L 268.088057 14.643692 
L 269.326991 16.504615 
L 271.230066 18.365538 
L 271.879744 16.504615 
L 271.905692 18.365538 
L 272.275968 20.226462 
L 273.605931 18.365538 
L 274.118563 20.226462 
L 274.4818 18.365538 
L 274.730845 16.504615 
L 275.431686 18.365538 
L 275.847222 22.087385 
L 276.678668 20.226462 
L 277.004287 18.365538 
L 277.231691 20.226462 
L 277.509625 18.365538 
L 280.091114 20.226462 
L 280.51095 18.365538 
L 280.63193 16.504615 
L 281.524455 18.365538 
L 282.355522 16.504615 
L 282.859019 18.365538 
L 283.194725 20.226462 
L 283.26421 22.087385 
L 283.728879 20.226462 
L 283.821428 18.365538 
L 284.289365 16.504615 
L 287.361112 18.365538 
L 287.721515 16.504615 
L 288.849265 14.643692 
L 289.713477 16.504615 
L 289.915321 18.365538 
L 292.20068 16.504615 
L 292.707051 14.643692 
L 294.454352 16.504615 
L 295.790648 18.365538 
L 296.266649 22.087385 
L 296.617479 23.948308 
L 296.769387 22.087385 
L 297.207047 23.948308 
L 297.897252 20.226462 
L 298.681985 16.504615 
L 298.814093 18.365538 
L 299.308024 16.504615 
L 300.25216 14.643692 
L 301.187946 16.504615 
L 302.242096 14.643692 
L 302.988977 16.504615 
L 305.487451 14.643692 
L 305.513305 16.504615 
L 306.077001 18.365538 
L 307.284218 16.504615 
L 307.75591 14.643692 
L 309.424106 10.921846 
L 309.932956 12.782769 
L 310.239861 14.643692 
L 310.959078 16.504615 
L 312.167845 18.365538 
L 312.446241 16.504615 
L 313.247764 18.365538 
L 314.446674 16.504615 
L 314.49146 18.365538 
L 315.969138 20.226462 
L 316.706334 18.365538 
L 316.766684 20.226462 
L 317.87253 18.365538 
L 318.562141 20.226462 
L 318.587413 22.087385 
L 318.843742 18.365538 
L 319.329744 20.226462 
L 319.429746 18.365538 
L 320.621655 20.226462 
L 320.769546 22.087385 
L 321.003269 18.365538 
L 321.008767 20.226462 
L 322.251212 22.087385 
L 322.336326 20.226462 
L 322.563899 18.365538 
L 323.15715 16.504615 
L 323.339024 18.365538 
L 323.468404 16.504615 
L 323.885543 14.643692 
L 324.467062 16.504615 
L 327.575339 14.643692 
L 330.189543 16.504615 
L 330.392305 18.365538 
L 331.066513 20.226462 
L 331.093505 22.087385 
L 331.433386 23.948308 
L 331.587436 25.809231 
L 332.444436 22.087385 
L 333.496851 25.809231 
L 333.914706 27.670154 
L 334.320904 25.809231 
L 334.566369 23.948308 
L 335.168648 22.087385 
L 335.341758 23.948308 
L 335.430012 22.087385 
L 336.159578 25.809231 
L 337.70461 22.087385 
L 338.517612 23.948308 
L 338.706583 22.087385 
L 340.337102 20.226462 
L 342.160022 22.087385 
L 342.797655 23.948308 
L 344.360092 25.809231 
L 344.552377 27.670154 
L 344.557855 25.809231 
L 344.813998 23.948308 
L 345.323828 22.087385 
L 346.179351 23.948308 
L 346.23175 22.087385 
L 346.244295 23.948308 
L 346.620886 25.809231 
L 346.726546 23.948308 
L 347.519975 25.809231 
L 347.671914 23.948308 
L 347.740711 25.809231 
L 347.893968 23.948308 
L 347.940686 25.809231 
L 348.002252 23.948308 
L 348.509502 25.809231 
L 349.741831 23.948308 
L 350.361348 22.087385 
L 350.987374 18.365538 
L 352.749955 16.504615 
L 353.042456 14.643692 
L 355.10335 16.504615 
L 355.169476 18.365538 
L 355.627374 20.226462 
L 355.865808 18.365538 
L 355.988385 16.504615 
L 357.178979 14.643692 
L 357.923987 16.504615 
L 358.498515 14.643692 
L 359.557783 12.782769 
L 359.706431 16.504615 
L 359.853119 14.643692 
L 361.249859 12.782769 
L 361.368397 14.643692 
L 361.370343 16.504615 
L 361.469105 14.643692 
L 361.666877 12.782769 
L 362.470211 10.921846 
L 362.482229 12.782769 
L 362.837667 9.060923 
L 366.225268 14.643692 
L 366.304411 16.504615 
L 368.142035 14.643692 
L 369.18993 16.504615 
L 369.655652 14.643692 
L 371.934545 12.782769 
L 372.418636 10.921846 
L 373.348711 12.782769 
L 375.134158 10.921846 
L 375.201779 12.782769 
L 375.252224 10.921846 
L 376.05702 12.782769 
L 376.34906 14.643692 
L 376.867357 12.782769 
L 377.557849 10.921846 
L 378.529063 12.782769 
L 379.310507 14.643692 
L 380.185043 12.782769 
L 380.631042 10.921846 
L 380.963281 12.782769 
L 381.362627 10.921846 
L 381.8093 12.782769 
L 382.15745 10.921846 
L 384.215396 9.060923 
L 385.757297 7.2 
L 385.851549 9.060923 
L 387.296264 10.921846 
L 388.005066 12.782769 
L 388.30203 10.921846 
L 388.652279 12.782769 
L 389.682453 14.643692 
L 390.557531 16.504615 
L 391.728387 12.782769 
L 392.522315 10.921846 
L 392.614252 12.782769 
L 392.954447 14.643692 
L 393.539461 16.504615 
L 394.718199 18.365538 
L 395.711755 20.226462 
L 396.264166 18.365538 
L 397.805235 20.226462 
L 397.972283 18.365538 
L 398.678687 16.504615 
L 398.941091 14.643692 
L 400.338712 16.504615 
L 400.662339 14.643692 
L 401.349689 12.782769 
L 402.36756 10.921846 
L 402.804585 9.060923 
L 403.204343 10.921846 
L 404.408281 12.782769 
L 404.408281 12.782769 
" clip-path="url(#pe7595bf1e1)" style="fill: none; stroke: #1f77b4; stroke-width: 1.5; stroke-linecap: square"/>
   </g>
   <g id="line2d_19">
    <path d="M 225.539945 167.239385 
L 226.211962 185.848615 
L 226.358336 187.709538 
L 226.368694 185.848615 
L 226.53122 189.570462 
L 226.755525 193.292308 
L 226.765686 191.431385 
L 226.85378 193.292308 
L 226.965715 195.153231 
L 227.091702 193.292308 
L 227.283433 200.736 
L 227.796923 206.318769 
L 227.857134 208.179692 
L 228.110271 210.040615 
L 228.205144 213.762462 
L 228.393633 215.623385 
L 228.395316 213.762462 
L 228.409282 215.623385 
L 228.869123 223.067077 
L 229.309356 226.788923 
L 229.489217 228.649846 
L 230.166685 232.371692 
L 230.317875 236.093538 
L 230.575956 234.232615 
L 230.639968 236.093538 
L 230.862563 237.954462 
L 232.222729 239.815385 
L 232.534238 245.398154 
L 232.912351 247.259077 
L 234.87743 249.12 
L 235.573579 250.980923 
L 236.855397 252.841846 
L 238.268233 250.980923 
L 238.668705 252.841846 
L 238.808379 254.702769 
L 240.910629 252.841846 
L 242.094036 254.702769 
L 242.151186 252.841846 
L 242.188951 254.702769 
L 242.80334 256.563692 
L 246.899109 258.424615 
L 248.149807 256.563692 
L 249.405388 258.424615 
L 250.044959 256.563692 
L 250.514294 254.702769 
L 253.935978 256.563692 
L 254.714838 254.702769 
L 255.715302 252.841846 
L 255.874947 254.702769 
L 256.676903 256.563692 
L 256.830168 258.424615 
L 256.832486 256.563692 
L 257.555675 258.424615 
L 257.78343 256.563692 
L 260.683871 250.980923 
L 261.367794 249.12 
L 261.690202 250.980923 
L 262.349348 249.12 
L 263.369831 250.980923 
L 263.48448 252.841846 
L 264.431779 250.980923 
L 264.64697 252.841846 
L 265.446769 250.980923 
L 267.25345 252.841846 
L 267.720072 254.702769 
L 267.750275 252.841846 
L 268.016947 254.702769 
L 268.088057 252.841846 
L 269.326991 250.980923 
L 271.230066 249.12 
L 271.879744 250.980923 
L 271.905692 249.12 
L 272.275968 247.259077 
L 273.605931 249.12 
L 274.118563 247.259077 
L 274.4818 249.12 
L 274.730845 250.980923 
L 275.431686 249.12 
L 275.847222 245.398154 
L 276.678668 247.259077 
L 277.004287 249.12 
L 277.231691 247.259077 
L 277.509625 249.12 
L 280.091114 247.259077 
L 280.51095 249.12 
L 280.63193 250.980923 
L 281.524455 249.12 
L 282.355522 250.980923 
L 282.859019 249.12 
L 283.194725 247.259077 
L 283.26421 245.398154 
L 283.728879 247.259077 
L 283.821428 249.12 
L 284.289365 250.980923 
L 287.361112 249.12 
L 287.721515 250.980923 
L 288.849265 252.841846 
L 289.713477 250.980923 
L 289.915321 249.12 
L 292.20068 250.980923 
L 292.707051 252.841846 
L 294.454352 250.980923 
L 295.790648 249.12 
L 296.266649 245.398154 
L 296.617479 243.537231 
L 296.769387 245.398154 
L 297.207047 243.537231 
L 297.897252 247.259077 
L 298.681985 250.980923 
L 298.814093 249.12 
L 299.308024 250.980923 
L 300.25216 252.841846 
L 301.187946 250.980923 
L 302.242096 252.841846 
L 302.988977 250.980923 
L 305.487451 252.841846 
L 305.513305 250.980923 
L 306.077001 249.12 
L 307.284218 250.980923 
L 307.75591 252.841846 
L 309.424106 256.563692 
L 309.932956 254.702769 
L 310.239861 252.841846 
L 310.959078 250.980923 
L 312.167845 249.12 
L 312.446241 250.980923 
L 313.247764 249.12 
L 314.446674 250.980923 
L 314.49146 249.12 
L 315.969138 247.259077 
L 316.706334 249.12 
L 316.766684 247.259077 
L 317.87253 249.12 
L 318.562141 247.259077 
L 318.587413 245.398154 
L 318.843742 249.12 
L 319.329744 247.259077 
L 319.429746 249.12 
L 320.621655 247.259077 
L 320.769546 245.398154 
L 321.003269 249.12 
L 321.008767 247.259077 
L 322.251212 245.398154 
L 322.336326 247.259077 
L 322.563899 249.12 
L 323.15715 250.980923 
L 323.339024 249.12 
L 323.468404 250.980923 
L 323.885543 252.841846 
L 324.467062 250.980923 
L 327.575339 252.841846 
L 330.189543 250.980923 
L 330.392305 249.12 
L 331.066513 247.259077 
L 331.093505 245.398154 
L 331.433386 243.537231 
L 331.587436 241.676308 
L 332.444436 245.398154 
L 333.496851 241.676308 
L 333.914706 239.815385 
L 334.320904 241.676308 
L 334.566369 243.537231 
L 335.168648 245.398154 
L 335.341758 243.537231 
L 335.430012 245.398154 
L 336.159578 241.676308 
L 337.70461 245.398154 
L 338.517612 243.537231 
L 338.706583 245.398154 
L 340.337102 247.259077 
L 342.160022 245.398154 
L 342.797655 243.537231 
L 344.360092 241.676308 
L 344.552377 239.815385 
L 344.557855 241.676308 
L 344.813998 243.537231 
L 345.323828 245.398154 
L 346.179351 243.537231 
L 346.23175 245.398154 
L 346.244295 243.537231 
L 346.620886 241.676308 
L 346.726546 243.537231 
L 347.519975 241.676308 
L 347.671914 243.537231 
L 347.740711 241.676308 
L 347.893968 243.537231 
L 347.940686 241.676308 
L 348.002252 243.537231 
L 348.509502 241.676308 
L 349.741831 243.537231 
L 350.361348 245.398154 
L 350.987374 249.12 
L 352.749955 250.980923 
L 353.042456 252.841846 
L 355.10335 250.980923 
L 355.169476 249.12 
L 355.627374 247.259077 
L 355.865808 249.12 
L 355.988385 250.980923 
L 357.178979 252.841846 
L 357.923987 250.980923 
L 358.498515 252.841846 
L 359.557783 254.702769 
L 359.706431 250.980923 
L 359.853119 252.841846 
L 361.249859 254.702769 
L 361.368397 252.841846 
L 361.370343 250.980923 
L 361.469105 252.841846 
L 361.666877 254.702769 
L 362.470211 256.563692 
L 362.482229 254.702769 
L 362.837667 258.424615 
L 366.225268 252.841846 
L 366.304411 250.980923 
L 368.142035 252.841846 
L 369.18993 250.980923 
L 369.655652 252.841846 
L 371.934545 254.702769 
L 372.418636 256.563692 
L 373.348711 254.702769 
L 375.134158 256.563692 
L 375.201779 254.702769 
L 375.252224 256.563692 
L 376.05702 254.702769 
L 376.34906 252.841846 
L 376.867357 254.702769 
L 377.557849 256.563692 
L 378.529063 254.702769 
L 379.310507 252.841846 
L 380.185043 254.702769 
L 380.631042 256.563692 
L 380.963281 254.702769 
L 381.362627 256.563692 
L 381.8093 254.702769 
L 382.15745 256.563692 
L 384.215396 258.424615 
L 385.757297 260.285538 
L 385.851549 258.424615 
L 387.296264 256.563692 
L 388.005066 254.702769 
L 388.30203 256.563692 
L 388.652279 254.702769 
L 389.682453 252.841846 
L 390.557531 250.980923 
L 391.728387 254.702769 
L 392.522315 256.563692 
L 392.614252 254.702769 
L 392.954447 252.841846 
L 393.539461 250.980923 
L 394.718199 249.12 
L 395.711755 247.259077 
L 396.264166 249.12 
L 397.805235 247.259077 
L 397.972283 249.12 
L 398.678687 250.980923 
L 398.941091 252.841846 
L 400.338712 250.980923 
L 400.662339 252.841846 
L 401.349689 254.702769 
L 402.36756 256.563692 
L 402.804585 258.424615 
L 403.204343 256.563692 
L 404.408281 254.702769 
L 404.408281 254.702769 
" clip-path="url(#pe7595bf1e1)" style="fill: none; stroke: #ff7f0e; stroke-width: 1.5; stroke-linecap: square"/>
   </g>
   <g id="line2d_20">
    <path d="M 225.497146 273.312 
L 225.497146 7.2 
" clip-path="url(#pe7595bf1e1)" style="fill: none; stroke-dasharray: 1.5,2.475; stroke-dashoffset: 0; stroke: #000000; stroke-width: 1.5"/>
   </g>
   <g id="line2d_21">
    <path d="M 238.808379 273.312 
L 238.808379 7.2 
" clip-path="url(#pe7595bf1e1)" style="fill: none; stroke-dasharray: 1.5,2.475; stroke-dashoffset: 0; stroke: #000000; stroke-width: 1.5"/>
   </g>
   <g id="line2d_22">
    <path d="M 403.69045 273.312 
L 403.69045 7.2 
" clip-path="url(#pe7595bf1e1)" style="fill: none; stroke-dasharray: 1.5,2.475; stroke-dashoffset: 0; stroke: #000000; stroke-width: 1.5"/>
   </g>
   <g id="patch_3">
    <path d="M 47.288281 273.312 
L 47.288281 7.2 
" style="fill: none; stroke: #000000; stroke-width: 0.8; stroke-linejoin: miter; stroke-linecap: square"/>
   </g>
   <g id="patch_4">
    <path d="M 404.408281 273.312 
L 404.408281 7.2 
" style="fill: none; stroke: #000000; stroke-width: 0.8; stroke-linejoin: miter; stroke-linecap: square"/>
   </g>
   <g id="patch_5">
    <path d="M 47.288281 273.312 
L 404.408281 273.312 
" style="fill: none; stroke: #000000; stroke-width: 0.8; stroke-linejoin: miter; stroke-linecap: square"/>
   </g>
   <g id="patch_6">
    <path d="M 47.288281 7.2 
L 404.408281 7.2 
" style="fill: none; stroke: #000000; stroke-width: 0.8; stroke-linejoin: miter; stroke-linecap: square"/>
   </g>
   <g id="legend_1">
    <g id="patch_7">
     <path d="M 54.288281 45.201562 
L 99.989844 45.201562 
Q 101.989844 45.201562 101.989844 43.201562 
L 101.989844 14.2 
Q 101.989844 12.2 99.989844 12.2 
L 54.288281 12.2 
Q 52.288281 12.2 52.288281 14.2 
L 52.288281 43.201562 
Q 52.288281 45.201562 54.288281 45.201562 
z
" style="fill: #ffffff; opacity: 0.8; stroke: #cccccc; stroke-linejoin: miter"/>
    </g>
    <g id="line2d_23">
     <path d="M 56.288281 20.298437 
L 66.288281 20.298437 
L 76.288281 20.298437 
" style="fill: none; stroke: #1f77b4; stroke-width: 1.5; stroke-linecap: square"/>
    </g>
    <g id="text_20">
     <!-- AB -->
     <g transform="translate(84.288281 23.798437) scale(0.1 -0.1)">
      <defs>
       <path id="DejaVuSans-24" d="M 2188 4044 
L 1331 1722 
L 3047 1722 
L 2188 4044 
z
M 1831 4666 
L 2547 4666 
L 4325 0 
L 3669 0 
L 3244 1197 
L 1141 1197 
L 716 0 
L 50 0 
L 1831 4666 
z
" transform="scale(0.015625)"/>
       <path id="DejaVuSans-25" d="M 1259 2228 
L 1259 519 
L 2272 519 
Q 2781 519 3026 730 
Q 3272 941 3272 1375 
Q 3272 1813 3026 2020 
Q 2781 2228 2272 2228 
L 1259 2228 
z
M 1259 4147 
L 1259 2741 
L 2194 2741 
Q 2656 2741 2882 2914 
Q 3109 3088 3109 3444 
Q 3109 3797 2882 3972 
Q 2656 4147 2194 4147 
L 1259 4147 
z
M 628 4666 
L 2241 4666 
Q 2963 4666 3353 4366 
Q 3744 4066 3744 3513 
Q 3744 3084 3544 2831 
Q 3344 2578 2956 2516 
Q 3422 2416 3680 2098 
Q 3938 1781 3938 1306 
Q 3938 681 3513 340 
Q 3088 0 2303 0 
L 628 0 
L 628 4666 
z
" transform="scale(0.015625)"/>
      </defs>
      <use xlink:href="#DejaVuSans-24"/>
      <use xlink:href="#DejaVuSans-25" transform="translate(68.40625 0)"/>
     </g>
    </g>
    <g id="line2d_24">
     <path d="M 56.288281 35.299219 
L 66.288281 35.299219 
L 76.288281 35.299219 
" style="fill: none; stroke: #ff7f0e; stroke-width: 1.5; stroke-linecap: square"/>
    </g>
    <g id="text_21">
     <!-- A -->
     <g transform="translate(84.288281 38.799219) scale(0.1 -0.1)">
      <use xlink:href="#DejaVuSans-24"/>
     </g>
    </g>
   </g>
  </g>
 </g>
 <defs>
  <clipPath id="pe7595bf1e1">
   <rect x="47.288281" y="7.2" width="357.12" height="266.112"/>
  </clipPath>
 </defs>
</svg>
