<?xml version="1.0" encoding="utf-8" standalone="no"?>
<!DOCTYPE svg PUBLIC "-//W3C//DTD SVG 1.1//EN"
  "http://www.w3.org/Graphics/SVG/1.1/DTD/svg11.dtd">
<svg xmlns:xlink="http://www.w3.org/1999/xlink" width="332.39952pt" height="332.39952pt" viewBox="0 0 332.39952 332.39952" xmlns="http://www.w3.org/2000/svg" version="1.1">
 <metadata>
  <rdf:RDF xmlns:dc="http://purl.org/dc/elements/1.1/" xmlns:cc="http://creativecommons.org/ns#" xmlns:rdf="http://www.w3.org/1999/02/22-rdf-syntax-ns#">
   <cc:Work>
    <dc:type rdf:resource="http://purl.org/dc/dcmitype/StillImage"/>
    <dc:date>2026-07-15T14:45:22.256735</dc:date>
    <dc:format>image/svg+xml</dc:format>
    <dc:creator>
     <cc:Agent>
      <dc:title>Matplotlib v3.11.0, https://matplotlib.org/</dc:title>
     </cc:Agent>
    </dc:creator>
   </cc:Work>
  </rdf:RDF>
 </metadata>
 <defs>
  <style type="text/css">*{stroke-linejoin: round; stroke-linecap: butt}</style>
 </defs>
 <g id="figure_1">
  <g id="patch_1">
   <path d="M 0 332.39952 
L 332.39952 332.39952 
L 332.39952 0 
L 0 0 
z
" style="fill: #ffffff"/>
  </g>
  <g id="axes_1">
   <g id="patch_2">
    <path d="M 44.103906 96.532593 
L 325.19952 96.532593 
L 325.19952 7.2 
L 44.103906 7.2 
z
" style="fill: #ffffff"/>
   </g>
   <g id="matplotlib.axis_1">
    <g id="xtick_1">
     <g id="line2d_1">
      <defs>
       <path id="m40ba495b84" d="M 0 0 
L 0 3.5 
" style="stroke: #000000; stroke-width: 0.8"/>
      </defs>
      <g>
       <use xlink:href="#m40ba495b84" x="56.88098" y="96.532593" style="stroke: #000000; stroke-width: 0.8"/>
      </g>
     </g>
    </g>
    <g id="xtick_2">
     <g id="line2d_2">
      <g>
       <use xlink:href="#m40ba495b84" x="88.72937" y="96.532593" style="stroke: #000000; stroke-width: 0.8"/>
      </g>
     </g>
    </g>
    <g id="xtick_3">
     <g id="line2d_3">
      <g>
       <use xlink:href="#m40ba495b84" x="120.577761" y="96.532593" style="stroke: #000000; stroke-width: 0.8"/>
      </g>
     </g>
    </g>
    <g id="xtick_4">
     <g id="line2d_4">
      <g>
       <use xlink:href="#m40ba495b84" x="152.426152" y="96.532593" style="stroke: #000000; stroke-width: 0.8"/>
      </g>
     </g>
    </g>
    <g id="xtick_5">
     <g id="line2d_5">
      <g>
       <use xlink:href="#m40ba495b84" x="184.274542" y="96.532593" style="stroke: #000000; stroke-width: 0.8"/>
      </g>
     </g>
    </g>
    <g id="xtick_6">
     <g id="line2d_6">
      <g>
       <use xlink:href="#m40ba495b84" x="216.122933" y="96.532593" style="stroke: #000000; stroke-width: 0.8"/>
      </g>
     </g>
    </g>
    <g id="xtick_7">
     <g id="line2d_7">
      <g>
       <use xlink:href="#m40ba495b84" x="247.971324" y="96.532593" style="stroke: #000000; stroke-width: 0.8"/>
      </g>
     </g>
    </g>
    <g id="xtick_8">
     <g id="line2d_8">
      <g>
       <use xlink:href="#m40ba495b84" x="279.819714" y="96.532593" style="stroke: #000000; stroke-width: 0.8"/>
      </g>
     </g>
    </g>
    <g id="xtick_9">
     <g id="line2d_9">
      <g>
       <use xlink:href="#m40ba495b84" x="311.668105" y="96.532593" style="stroke: #000000; stroke-width: 0.8"/>
      </g>
     </g>
    </g>
   </g>
   <g id="matplotlib.axis_2">
    <g id="ytick_1">
     <g id="line2d_10">
      <defs>
       <path id="m2c21fffa64" d="M 0 0 
L -3.5 0 
" style="stroke: #000000; stroke-width: 0.8"/>
      </defs>
      <g>
       <use xlink:href="#m2c21fffa64" x="44.103906" y="92.472021" style="stroke: #000000; stroke-width: 0.8"/>
      </g>
     </g>
     <g id="text_1">
      <!-- 0 -->
      <g transform="translate(30.741406 96.270849) scale(0.1 -0.1)">
       <defs>
        <path id="DejaVuSans-13" d="M 2034 4250 
Q 1547 4250 1301 3770 
Q 1056 3291 1056 2328 
Q 1056 1369 1301 889 
Q 1547 409 2034 409 
Q 2525 409 2770 889 
Q 3016 1369 3016 2328 
Q 3016 3291 2770 3770 
Q 2525 4250 2034 4250 
z
M 2034 4750 
Q 2819 4750 3233 4129 
Q 3647 3509 3647 2328 
Q 3647 1150 3233 529 
Q 2819 -91 2034 -91 
Q 1250 -91 836 529 
Q 422 1150 422 2328 
Q 422 3509 836 4129 
Q 1250 4750 2034 4750 
z
" transform="scale(0.015625)"/>
       </defs>
       <use xlink:href="#DejaVuSans-13"/>
      </g>
     </g>
    </g>
    <g id="ytick_2">
     <g id="line2d_11">
      <g>
       <use xlink:href="#m2c21fffa64" x="44.103906" y="51.866296" style="stroke: #000000; stroke-width: 0.8"/>
      </g>
     </g>
     <g id="text_2">
      <!-- 5 -->
      <g transform="translate(30.741406 55.665125) scale(0.1 -0.1)">
       <defs>
        <path id="DejaVuSans-18" d="M 691 4666 
L 3169 4666 
L 3169 4134 
L 1269 4134 
L 1269 2991 
Q 1406 3038 1543 3061 
Q 1681 3084 1819 3084 
Q 2600 3084 3056 2656 
Q 3513 2228 3513 1497 
Q 3513 744 3044 326 
Q 2575 -91 1722 -91 
Q 1428 -91 1123 -41 
Q 819 9 494 109 
L 494 744 
Q 775 591 1075 516 
Q 1375 441 1709 441 
Q 2250 441 2565 725 
Q 2881 1009 2881 1497 
Q 2881 1984 2565 2268 
Q 2250 2553 1709 2553 
Q 1456 2553 1204 2497 
Q 953 2441 691 2322 
L 691 4666 
z
" transform="scale(0.015625)"/>
       </defs>
       <use xlink:href="#DejaVuSans-18"/>
      </g>
     </g>
    </g>
    <g id="ytick_3">
     <g id="line2d_12">
      <g>
       <use xlink:href="#m2c21fffa64" x="44.103906" y="11.260572" style="stroke: #000000; stroke-width: 0.8"/>
      </g>
     </g>
     <g id="text_3">
      <!-- 10 -->
      <g transform="translate(24.378906 15.059401) scale(0.1 -0.1)">
       <defs>
        <path id="DejaVuSans-14" d="M 794 531 
L 1825 531 
L 1825 4091 
L 703 3866 
L 703 4441 
L 1819 4666 
L 2450 4666 
L 2450 531 
L 3481 531 
L 3481 0 
L 794 0 
L 794 531 
z
" transform="scale(0.015625)"/>
       </defs>
       <use xlink:href="#DejaVuSans-14"/>
       <use xlink:href="#DejaVuSans-13" transform="translate(63.625 0)"/>
      </g>
     </g>
    </g>
    <g id="text_4">
     <!-- Extracellular lactose -->
     <g transform="translate(17.976563 102.838171) rotate(-90) scale(0.1 -0.1)">
      <defs>
       <path id="DejaVuSans-28" d="M 628 4666 
L 3578 4666 
L 3578 4134 
L 1259 4134 
L 1259 2753 
L 3481 2753 
L 3481 2222 
L 1259 2222 
L 1259 531 
L 3634 531 
L 3634 0 
L 628 0 
L 628 4666 
z
" transform="scale(0.015625)"/>
       <path id="DejaVuSans-5b" d="M 3513 3500 
L 2247 1797 
L 3578 0 
L 2900 0 
L 1881 1375 
L 863 0 
L 184 0 
L 1544 1831 
L 300 3500 
L 978 3500 
L 1906 2253 
L 2834 3500 
L 3513 3500 
z
" transform="scale(0.015625)"/>
       <path id="DejaVuSans-57" d="M 1172 4494 
L 1172 3500 
L 2356 3500 
L 2356 3053 
L 1172 3053 
L 1172 1153 
Q 1172 725 1289 603 
Q 1406 481 1766 481 
L 2356 481 
L 2356 0 
L 1766 0 
Q 1100 0 847 248 
Q 594 497 594 1153 
L 594 3053 
L 172 3053 
L 172 3500 
L 594 3500 
L 594 4494 
L 1172 4494 
z
" transform="scale(0.015625)"/>
       <path id="DejaVuSans-55" d="M 2631 2963 
Q 2534 3019 2420 3045 
Q 2306 3072 2169 3072 
Q 1681 3072 1420 2755 
Q 1159 2438 1159 1844 
L 1159 0 
L 581 0 
L 581 3500 
L 1159 3500 
L 1159 2956 
Q 1341 3275 1631 3429 
Q 1922 3584 2338 3584 
Q 2397 3584 2469 3576 
Q 2541 3569 2628 3553 
L 2631 2963 
z
" transform="scale(0.015625)"/>
       <path id="DejaVuSans-44" d="M 2194 1759 
Q 1497 1759 1228 1600 
Q 959 1441 959 1056 
Q 959 750 1161 570 
Q 1363 391 1709 391 
Q 2188 391 2477 730 
Q 2766 1069 2766 1631 
L 2766 1759 
L 2194 1759 
z
M 3341 1997 
L 3341 0 
L 2766 0 
L 2766 531 
Q 2569 213 2275 61 
Q 1981 -91 1556 -91 
Q 1019 -91 701 211 
Q 384 513 384 1019 
Q 384 1609 779 1909 
Q 1175 2209 1959 2209 
L 2766 2209 
L 2766 2266 
Q 2766 2663 2505 2880 
Q 2244 3097 1772 3097 
Q 1472 3097 1187 3025 
Q 903 2953 641 2809 
L 641 3341 
Q 956 3463 1253 3523 
Q 1550 3584 1831 3584 
Q 2591 3584 2966 3190 
Q 3341 2797 3341 1997 
z
" transform="scale(0.015625)"/>
       <path id="DejaVuSans-46" d="M 3122 3366 
L 3122 2828 
Q 2878 2963 2633 3030 
Q 2388 3097 2138 3097 
Q 1578 3097 1268 2742 
Q 959 2388 959 1747 
Q 959 1106 1268 751 
Q 1578 397 2138 397 
Q 2388 397 2633 464 
Q 2878 531 3122 666 
L 3122 134 
Q 2881 22 2623 -34 
Q 2366 -91 2075 -91 
Q 1284 -91 818 406 
Q 353 903 353 1747 
Q 353 2603 823 3093 
Q 1294 3584 2113 3584 
Q 2378 3584 2631 3529 
Q 2884 3475 3122 3366 
z
" transform="scale(0.015625)"/>
       <path id="DejaVuSans-48" d="M 3597 1894 
L 3597 1613 
L 953 1613 
Q 991 1019 1311 708 
Q 1631 397 2203 397 
Q 2534 397 2845 478 
Q 3156 559 3463 722 
L 3463 178 
Q 3153 47 2828 -22 
Q 2503 -91 2169 -91 
Q 1331 -91 842 396 
Q 353 884 353 1716 
Q 353 2575 817 3079 
Q 1281 3584 2069 3584 
Q 2775 3584 3186 3129 
Q 3597 2675 3597 1894 
z
M 3022 2063 
Q 3016 2534 2758 2815 
Q 2500 3097 2075 3097 
Q 1594 3097 1305 2825 
Q 1016 2553 972 2059 
L 3022 2063 
z
" transform="scale(0.015625)"/>
       <path id="DejaVuSans-4f" d="M 603 4863 
L 1178 4863 
L 1178 0 
L 603 0 
L 603 4863 
z
" transform="scale(0.015625)"/>
       <path id="DejaVuSans-58" d="M 544 1381 
L 544 3500 
L 1119 3500 
L 1119 1403 
Q 1119 906 1312 657 
Q 1506 409 1894 409 
Q 2359 409 2629 706 
Q 2900 1003 2900 1516 
L 2900 3500 
L 3475 3500 
L 3475 0 
L 2900 0 
L 2900 538 
Q 2691 219 2414 64 
Q 2138 -91 1772 -91 
Q 1169 -91 856 284 
Q 544 659 544 1381 
z
M 1991 3584 
L 1991 3584 
z
" transform="scale(0.015625)"/>
       <path id="DejaVuSans-3" transform="scale(0.015625)"/>
       <path id="DejaVuSans-52" d="M 1959 3097 
Q 1497 3097 1228 2736 
Q 959 2375 959 1747 
Q 959 1119 1226 758 
Q 1494 397 1959 397 
Q 2419 397 2687 759 
Q 2956 1122 2956 1747 
Q 2956 2369 2687 2733 
Q 2419 3097 1959 3097 
z
M 1959 3584 
Q 2709 3584 3137 3096 
Q 3566 2609 3566 1747 
Q 3566 888 3137 398 
Q 2709 -91 1959 -91 
Q 1206 -91 779 398 
Q 353 888 353 1747 
Q 353 2609 779 3096 
Q 1206 3584 1959 3584 
z
" transform="scale(0.015625)"/>
       <path id="DejaVuSans-56" d="M 2834 3397 
L 2834 2853 
Q 2591 2978 2328 3040 
Q 2066 3103 1784 3103 
Q 1356 3103 1142 2972 
Q 928 2841 928 2578 
Q 928 2378 1081 2264 
Q 1234 2150 1697 2047 
L 1894 2003 
Q 2506 1872 2764 1633 
Q 3022 1394 3022 966 
Q 3022 478 2636 193 
Q 2250 -91 1575 -91 
Q 1294 -91 989 -36 
Q 684 19 347 128 
L 347 722 
Q 666 556 975 473 
Q 1284 391 1588 391 
Q 1994 391 2212 530 
Q 2431 669 2431 922 
Q 2431 1156 2273 1281 
Q 2116 1406 1581 1522 
L 1381 1569 
Q 847 1681 609 1914 
Q 372 2147 372 2553 
Q 372 3047 722 3315 
Q 1072 3584 1716 3584 
Q 2034 3584 2315 3537 
Q 2597 3491 2834 3397 
z
" transform="scale(0.015625)"/>
      </defs>
      <use xlink:href="#DejaVuSans-28"/>
      <use xlink:href="#DejaVuSans-5b" transform="translate(63.1875 0)"/>
      <use xlink:href="#DejaVuSans-57" transform="translate(122.375 0)"/>
      <use xlink:href="#DejaVuSans-55" transform="translate(161.578125 0)"/>
      <use xlink:href="#DejaVuSans-44" transform="translate(202.6875 0)"/>
      <use xlink:href="#DejaVuSans-46" transform="translate(263.96875 0)"/>
      <use xlink:href="#DejaVuSans-48" transform="translate(318.953125 0)"/>
      <use xlink:href="#DejaVuSans-4f" transform="translate(380.484375 0)"/>
      <use xlink:href="#DejaVuSans-4f" transform="translate(408.265625 0)"/>
      <use xlink:href="#DejaVuSans-58" transform="translate(436.046875 0)"/>
      <use xlink:href="#DejaVuSans-4f" transform="translate(499.421875 0)"/>
      <use xlink:href="#DejaVuSans-44" transform="translate(527.203125 0)"/>
      <use xlink:href="#DejaVuSans-55" transform="translate(588.484375 0)"/>
      <use xlink:href="#DejaVuSans-3" transform="translate(629.59375 0)"/>
      <use xlink:href="#DejaVuSans-4f" transform="translate(661.375 0)"/>
      <use xlink:href="#DejaVuSans-44" transform="translate(689.15625 0)"/>
      <use xlink:href="#DejaVuSans-46" transform="translate(750.4375 0)"/>
      <use xlink:href="#DejaVuSans-57" transform="translate(805.421875 0)"/>
      <use xlink:href="#DejaVuSans-52" transform="translate(844.625 0)"/>
      <use xlink:href="#DejaVuSans-56" transform="translate(905.8125 0)"/>
      <use xlink:href="#DejaVuSans-48" transform="translate(957.90625 0)"/>
     </g>
    </g>
   </g>
   <g id="line2d_13">
    <path d="M 56.88098 92.472021 
L 155.951562 92.472021 
L 156.04043 11.260572 
L 156.706697 11.341784 
L 156.824081 11.66663 
L 156.86878 11.747841 
L 157.014597 13.209647 
L 157.132634 14.833876 
L 157.146426 14.915088 
L 157.289569 16.620528 
L 157.313057 16.701739 
L 157.821323 20.193832 
L 158.097838 20.599889 
L 158.156978 20.6811 
L 158.265872 20.762312 
L 158.715305 20.843523 
L 158.811915 21.249581 
L 159.052092 21.655638 
L 159.152294 22.061695 
L 159.272546 22.142906 
L 159.375025 22.630175 
L 159.404943 22.711387 
L 159.513631 23.604713 
L 159.61061 24.498038 
L 159.958252 25.878633 
L 159.97329 25.959845 
L 160.276193 28.233765 
L 160.410882 29.533148 
L 160.416501 29.61436 
L 160.548967 30.913743 
L 160.892691 32.781606 
L 160.922542 32.862818 
L 161.196727 34.405835 
L 161.276688 34.487047 
L 161.439895 35.21795 
L 161.588083 35.299161 
L 161.745686 35.78643 
L 161.899004 35.948853 
L 162.358107 36.030064 
L 162.509403 36.517333 
L 162.534088 36.598544 
L 162.694319 37.085813 
L 162.807223 37.573082 
L 163.050164 38.547619 
L 163.384397 39.522156 
L 163.51793 40.009425 
L 163.557289 40.090636 
L 163.775977 40.659117 
L 163.901936 41.552443 
L 164.109081 41.633654 
L 164.246561 41.796077 
L 164.278783 41.877288 
L 164.456203 42.283346 
L 164.622923 42.364557 
L 164.716865 42.608191 
L 164.860189 42.933037 
L 164.915498 43.014249 
L 164.943191 43.09546 
L 165.128298 43.176672 
L 165.245626 43.66394 
L 165.264974 43.745152 
L 165.378713 43.988786 
L 165.460051 44.069997 
L 165.575395 44.476055 
L 165.786844 44.8009 
L 165.859469 44.882112 
L 166.076569 46.019072 
L 166.28148 46.668764 
L 166.464245 46.749975 
L 166.708078 47.237244 
L 166.751301 47.318455 
L 167.101506 48.13057 
L 167.165026 48.211781 
L 167.33354 48.617839 
L 167.481214 48.69905 
L 167.575594 49.105107 
L 167.65099 49.511164 
L 167.861407 50.485702 
L 167.908002 50.566913 
L 168.057512 50.891759 
L 168.156107 50.972971 
L 168.267288 51.216605 
L 168.631635 51.703874 
L 168.719048 51.785085 
L 168.840181 51.947508 
L 169.095164 52.434777 
L 169.239247 52.922045 
L 169.359611 53.246891 
L 169.408413 53.328103 
L 169.678327 54.708697 
L 169.707741 54.789909 
L 169.816723 55.4396 
L 169.84322 55.520812 
L 169.977388 56.00808 
L 170.090056 56.414138 
L 170.20265 56.982618 
L 170.276474 57.388675 
L 170.862018 61.04319 
L 171.028783 61.61167 
L 171.121531 61.692882 
L 171.205857 61.774093 
L 171.430822 61.855305 
L 171.528355 62.261362 
L 171.747844 62.342573 
L 171.889605 62.911053 
L 172.068081 62.992265 
L 172.183437 63.317111 
L 172.285186 63.398322 
L 172.39156 63.479534 
L 172.450975 63.560745 
L 172.65361 63.641956 
L 173.444397 63.723168 
L 173.839745 64.616494 
L 173.976926 64.697705 
L 174.092768 65.022551 
L 174.199359 65.103762 
L 174.300306 65.753454 
L 174.381619 65.834666 
L 174.551872 66.403146 
L 174.572692 66.484357 
L 174.727138 66.971626 
L 174.746469 67.052837 
L 174.912687 67.946163 
L 174.920136 68.027375 
L 175.085492 68.433432 
L 175.185306 68.514643 
L 175.277205 68.677066 
L 175.339248 68.758278 
L 175.441319 69.001912 
L 175.978506 70.301295 
L 176.189491 71.275833 
L 176.230737 71.357044 
L 176.386144 72.006736 
L 176.422566 72.087947 
L 176.835212 74.118233 
L 176.856593 74.199445 
L 177.045386 74.686713 
L 177.210988 74.767925 
L 177.323139 75.092771 
L 177.510765 75.173982 
L 177.671277 75.742462 
L 177.856948 76.392154 
L 177.872582 76.473365 
L 177.981214 76.717 
L 178.015763 76.798211 
L 178.150118 76.879422 
L 178.255692 76.960634 
L 178.389638 77.041845 
L 178.968925 77.123057 
L 179.037262 77.28548 
L 179.393619 77.366691 
L 179.518939 77.447903 
L 179.613989 77.529114 
L 179.71794 77.610326 
L 180.045186 77.691537 
L 180.222654 77.85396 
L 180.426695 77.935171 
L 181.058629 78.341229 
L 181.377765 78.42244 
L 181.87008 78.909709 
L 181.984793 78.99092 
L 182.169863 79.072132 
L 182.624426 79.234554 
L 183.250013 79.315766 
L 183.408392 79.965458 
L 183.719838 80.046669 
L 183.801521 80.12788 
L 184.198972 80.209092 
L 184.310651 80.452726 
L 184.451378 80.533938 
L 184.749636 80.858783 
L 184.814811 81.021206 
L 184.936838 81.102418 
L 185.174931 81.427264 
L 185.276694 81.589686 
L 185.457045 81.670898 
L 185.582636 81.833321 
L 185.752675 81.914532 
L 185.994533 82.483012 
L 186.2212 82.807858 
L 186.374471 82.88907 
L 186.585111 83.295127 
L 186.886704 83.376338 
L 187.014239 83.45755 
L 188.065863 83.538761 
L 188.375522 83.782396 
L 188.507137 83.863607 
L 188.786749 84.107241 
L 188.892168 84.432087 
L 189.347561 84.513299 
L 189.42898 84.756933 
L 189.605752 84.838144 
L 189.73511 85.000567 
L 189.839659 85.081779 
L 189.943848 85.244202 
L 190.111136 85.325413 
L 190.338301 85.406625 
L 190.495705 85.650259 
L 190.935626 85.73147 
L 191.105941 85.893893 
L 191.433159 85.975105 
L 191.478106 86.056316 
L 192.238077 86.137528 
L 192.267173 86.218739 
L 193.047446 86.29995 
L 193.160599 86.381162 
L 193.560346 86.462373 
L 193.909355 86.543585 
L 194.050093 86.624796 
L 194.109081 86.706008 
L 194.222464 86.868431 
L 194.751755 86.949642 
L 194.84748 87.112065 
L 194.907392 87.193276 
L 195.105475 87.274488 
L 195.221967 87.436911 
L 195.827317 87.518122 
L 196.005329 87.599334 
L 197.142067 87.680545 
L 197.873094 88.005391 
L 197.950913 88.086602 
L 198.440977 88.167814 
L 198.762276 88.249025 
L 199.460545 88.330237 
L 199.630234 88.573871 
L 200.49789 88.655082 
L 202.069246 89.142351 
L 203.131402 89.223563 
L 203.25003 89.304774 
L 204.068172 89.385985 
L 204.281705 89.467197 
L 204.946481 89.548408 
L 204.965817 89.62962 
L 206.258661 89.710831 
L 206.421298 89.792043 
L 208.107603 89.873254 
L 208.221165 89.954466 
L 209.180667 90.035677 
L 209.748823 90.116889 
L 220.258944 90.1981 
L 220.632939 90.279311 
L 221.618779 90.360523 
L 221.718003 90.441734 
L 246.010941 90.522946 
L 247.726478 90.604157 
L 301.595322 90.685369 
L 301.765684 90.847792 
L 312.422447 90.847792 
L 312.422447 90.847792 
" clip-path="url(#pf42d867f30)" style="fill: none; stroke: #000000; stroke-width: 1.5; stroke-linecap: square"/>
   </g>
   <g id="patch_3">
    <path d="M 44.103906 96.532593 
L 44.103906 7.2 
" style="fill: none; stroke: #000000; stroke-width: 0.8; stroke-linejoin: miter; stroke-linecap: square"/>
   </g>
   <g id="patch_4">
    <path d="M 325.19952 96.532593 
L 325.19952 7.2 
" style="fill: none; stroke: #000000; stroke-width: 0.8; stroke-linejoin: miter; stroke-linecap: square"/>
   </g>
   <g id="patch_5">
    <path d="M 44.103906 96.532593 
L 325.19952 96.532593 
" style="fill: none; stroke: #000000; stroke-width: 0.8; stroke-linejoin: miter; stroke-linecap: square"/>
   </g>
   <g id="patch_6">
    <path d="M 44.103906 7.2 
L 325.19952 7.2 
" style="fill: none; stroke: #000000; stroke-width: 0.8; stroke-linejoin: miter; stroke-linecap: square"/>
   </g>
  </g>
  <g id="axes_2">
   <g id="patch_7">
    <path d="M 44.103906 195.365666 
L 325.19952 195.365666 
L 325.19952 106.033073 
L 44.103906 106.033073 
z
" style="fill: #ffffff"/>
   </g>
   <g id="matplotlib.axis_3">
    <g id="xtick_10">
     <g id="line2d_14">
      <g>
       <use xlink:href="#m40ba495b84" x="56.88098" y="195.365666" style="stroke: #000000; stroke-width: 0.8"/>
      </g>
     </g>
    </g>
    <g id="xtick_11">
     <g id="line2d_15">
      <g>
       <use xlink:href="#m40ba495b84" x="88.72937" y="195.365666" style="stroke: #000000; stroke-width: 0.8"/>
      </g>
     </g>
    </g>
    <g id="xtick_12">
     <g id="line2d_16">
      <g>
       <use xlink:href="#m40ba495b84" x="120.577761" y="195.365666" style="stroke: #000000; stroke-width: 0.8"/>
      </g>
     </g>
    </g>
    <g id="xtick_13">
     <g id="line2d_17">
      <g>
       <use xlink:href="#m40ba495b84" x="152.426152" y="195.365666" style="stroke: #000000; stroke-width: 0.8"/>
      </g>
     </g>
    </g>
    <g id="xtick_14">
     <g id="line2d_18">
      <g>
       <use xlink:href="#m40ba495b84" x="184.274542" y="195.365666" style="stroke: #000000; stroke-width: 0.8"/>
      </g>
     </g>
    </g>
    <g id="xtick_15">
     <g id="line2d_19">
      <g>
       <use xlink:href="#m40ba495b84" x="216.122933" y="195.365666" style="stroke: #000000; stroke-width: 0.8"/>
      </g>
     </g>
    </g>
    <g id="xtick_16">
     <g id="line2d_20">
      <g>
       <use xlink:href="#m40ba495b84" x="247.971324" y="195.365666" style="stroke: #000000; stroke-width: 0.8"/>
      </g>
     </g>
    </g>
    <g id="xtick_17">
     <g id="line2d_21">
      <g>
       <use xlink:href="#m40ba495b84" x="279.819714" y="195.365666" style="stroke: #000000; stroke-width: 0.8"/>
      </g>
     </g>
    </g>
    <g id="xtick_18">
     <g id="line2d_22">
      <g>
       <use xlink:href="#m40ba495b84" x="311.668105" y="195.365666" style="stroke: #000000; stroke-width: 0.8"/>
      </g>
     </g>
    </g>
   </g>
   <g id="matplotlib.axis_4">
    <g id="ytick_4">
     <g id="line2d_23">
      <g>
       <use xlink:href="#m2c21fffa64" x="44.103906" y="191.305093" style="stroke: #000000; stroke-width: 0.8"/>
      </g>
     </g>
     <g id="text_5">
      <!-- 0 -->
      <g transform="translate(30.741406 195.103922) scale(0.1 -0.1)">
       <use xlink:href="#DejaVuSans-13"/>
      </g>
     </g>
    </g>
    <g id="ytick_5">
     <g id="line2d_24">
      <g>
       <use xlink:href="#m2c21fffa64" x="44.103906" y="150.699369" style="stroke: #000000; stroke-width: 0.8"/>
      </g>
     </g>
     <g id="text_6">
      <!-- 5 -->
      <g transform="translate(30.741406 154.498197) scale(0.1 -0.1)">
       <use xlink:href="#DejaVuSans-18"/>
      </g>
     </g>
    </g>
    <g id="ytick_6">
     <g id="line2d_25">
      <g>
       <use xlink:href="#m2c21fffa64" x="44.103906" y="110.093645" style="stroke: #000000; stroke-width: 0.8"/>
      </g>
     </g>
     <g id="text_7">
      <!-- 10 -->
      <g transform="translate(24.378906 113.892473) scale(0.1 -0.1)">
       <use xlink:href="#DejaVuSans-14"/>
       <use xlink:href="#DejaVuSans-13" transform="translate(63.625 0)"/>
      </g>
     </g>
    </g>
    <g id="text_8">
     <!-- LacY -->
     <g transform="translate(17.976563 162.352494) rotate(-90) scale(0.1 -0.1)">
      <defs>
       <path id="DejaVuSans-2f" d="M 628 4666 
L 1259 4666 
L 1259 531 
L 3531 531 
L 3531 0 
L 628 0 
L 628 4666 
z
" transform="scale(0.015625)"/>
       <path id="DejaVuSans-3c" d="M -13 4666 
L 666 4666 
L 1959 2747 
L 3244 4666 
L 3922 4666 
L 2272 2222 
L 2272 0 
L 1638 0 
L 1638 2222 
L -13 4666 
z
" transform="scale(0.015625)"/>
      </defs>
      <use xlink:href="#DejaVuSans-2f"/>
      <use xlink:href="#DejaVuSans-44" transform="translate(55.71875 0)"/>
      <use xlink:href="#DejaVuSans-46" transform="translate(117 0)"/>
      <use xlink:href="#DejaVuSans-3c" transform="translate(171.984375 0)"/>
     </g>
    </g>
   </g>
   <g id="line2d_26">
    <path d="M 56.88098 110.093645 
L 56.908052 110.093645 
L 56.962437 118.21479 
L 57.070384 134.45708 
L 57.130605 142.578225 
L 57.282404 142.578225 
L 57.300065 134.45708 
L 57.520208 142.578225 
L 57.661787 142.578225 
L 57.832093 158.820514 
L 58.132385 175.062804 
L 58.197872 191.305093 
L 59.724771 191.305093 
L 59.891055 183.183949 
L 59.93371 191.305093 
L 64.946137 191.305093 
L 65.26844 183.183949 
L 65.378172 191.305093 
L 82.839014 191.305093 
L 83.033029 183.183949 
L 84.822722 191.305093 
L 84.837518 183.183949 
L 84.980435 175.062804 
L 84.98508 166.941659 
L 85.306591 175.062804 
L 85.533097 175.062804 
L 85.652489 191.305093 
L 85.713187 183.183949 
L 85.90303 183.183949 
L 86.041236 191.305093 
L 89.92561 191.305093 
L 90.314623 175.062804 
L 90.315921 166.941659 
L 90.813552 166.941659 
L 90.852142 183.183949 
L 91.622728 183.183949 
L 91.791312 175.062804 
L 92.134909 191.305093 
L 109.105782 191.305093 
L 109.211266 183.183949 
L 109.330732 183.183949 
L 109.469545 191.305093 
L 109.704074 191.305093 
L 109.745476 183.183949 
L 110.160601 183.183949 
L 110.509826 175.062804 
L 110.568057 183.183949 
L 110.742973 183.183949 
L 110.772492 191.305093 
L 119.514638 191.305093 
L 119.69271 183.183949 
L 121.788824 183.183949 
L 123.632659 191.305093 
L 131.385401 191.305093 
L 131.571302 183.183949 
L 131.858299 183.183949 
L 131.965864 191.305093 
L 136.293163 191.305093 
L 136.376729 183.183949 
L 136.398552 191.305093 
L 146.371645 191.305093 
L 146.631979 175.062804 
L 146.65277 183.183949 
L 146.681721 175.062804 
L 146.794611 166.941659 
L 146.799941 175.062804 
L 147.38354 175.062804 
L 147.999515 183.183949 
L 148.244368 183.183949 
L 148.559016 175.062804 
L 148.671679 175.062804 
L 149.741501 191.305093 
L 150.200776 191.305093 
L 150.252556 175.062804 
L 150.353235 175.062804 
L 150.505769 183.183949 
L 150.639228 183.183949 
L 151.181078 191.305093 
L 156.289565 191.305093 
L 156.717015 183.183949 
L 156.95684 150.699369 
L 157.237932 150.699369 
L 157.357806 166.941659 
L 157.407577 166.941659 
L 157.508282 158.820514 
L 157.595091 158.820514 
L 157.704685 175.062804 
L 157.732831 175.062804 
L 157.821323 183.183949 
L 158.172417 183.183949 
L 158.265872 191.305093 
L 158.664789 191.305093 
L 158.765952 183.183949 
L 158.931811 183.183949 
L 159.035719 175.062804 
L 159.181418 175.062804 
L 159.236792 183.183949 
L 159.29118 175.062804 
L 159.397193 175.062804 
L 159.501275 166.941659 
L 159.661008 166.941659 
L 159.785684 183.183949 
L 159.919629 183.183949 
L 160.054611 166.941659 
L 160.138139 166.941659 
L 160.250928 150.699369 
L 160.47527 150.699369 
L 160.587286 158.820514 
L 160.597241 158.820514 
L 160.647467 150.699369 
L 160.699649 158.820514 
L 160.721768 158.820514 
L 160.827177 150.699369 
L 160.834223 150.699369 
L 160.940537 166.941659 
L 161.24911 166.941659 
L 161.352587 175.062804 
L 161.42761 175.062804 
L 161.532517 183.183949 
L 161.649322 183.183949 
L 161.695574 175.062804 
L 161.745686 183.183949 
L 161.877348 183.183949 
L 161.991536 191.305093 
L 162.26658 191.305093 
L 162.40576 183.183949 
L 162.549877 183.183949 
L 162.694319 166.941659 
L 162.883205 166.941659 
L 163.000041 183.183949 
L 163.085563 183.183949 
L 163.247357 166.941659 
L 163.273981 175.062804 
L 163.313481 175.062804 
L 163.427104 166.941659 
L 163.506902 166.941659 
L 163.613446 175.062804 
L 163.785234 175.062804 
L 163.799642 166.941659 
L 163.889054 175.062804 
L 163.901936 175.062804 
L 164.00792 183.183949 
L 164.151373 175.062804 
L 164.433124 175.062804 
L 164.500243 191.305093 
L 164.622923 183.183949 
L 165.15531 183.183949 
L 165.264974 175.062804 
L 165.546129 175.062804 
L 165.682512 183.183949 
L 165.786844 183.183949 
L 165.916836 175.062804 
L 166.324602 175.062804 
L 166.464245 183.183949 
L 166.993607 183.183949 
L 167.040771 175.062804 
L 167.101506 183.183949 
L 167.405552 183.183949 
L 167.544285 175.062804 
L 167.795686 175.062804 
L 167.908002 166.941659 
L 168.121037 166.941659 
L 168.207144 175.062804 
L 168.426828 175.062804 
L 168.54003 183.183949 
L 168.547935 191.305093 
L 168.631635 183.183949 
L 169.189923 183.183949 
L 169.314828 166.941659 
L 169.386213 166.941659 
L 169.507677 158.820514 
L 169.578741 158.820514 
L 169.690958 150.699369 
L 169.840736 150.699369 
L 169.950514 166.941659 
L 170.075751 158.820514 
L 170.10472 158.820514 
L 170.20265 166.941659 
L 170.373438 166.941659 
L 170.489321 158.820514 
L 170.518507 158.820514 
L 170.628117 150.699369 
L 170.837028 150.699369 
L 170.951856 158.820514 
L 170.961281 158.820514 
L 171.079295 166.941659 
L 171.092835 166.941659 
L 171.205857 183.183949 
L 171.347719 183.183949 
L 171.456328 166.941659 
L 171.514214 166.941659 
L 171.641659 183.183949 
L 171.783689 183.183949 
L 171.908156 166.941659 
L 171.951559 166.941659 
L 172.060269 175.062804 
L 172.110963 175.062804 
L 172.183437 183.183949 
L 172.326489 183.183949 
L 172.387795 175.062804 
L 172.428375 183.183949 
L 172.52244 183.183949 
L 172.65361 191.305093 
L 173.296448 191.305093 
L 173.412428 183.183949 
L 173.472523 183.183949 
L 173.567333 175.062804 
L 174.122372 175.062804 
L 174.300306 158.820514 
L 174.460239 158.820514 
L 174.581405 166.941659 
L 174.629796 166.941659 
L 174.771553 150.699369 
L 174.874258 150.699369 
L 174.977898 142.578225 
L 174.979858 150.699369 
L 175.085492 158.820514 
L 175.200814 158.820514 
L 175.309659 166.941659 
L 175.352195 166.941659 
L 175.441319 175.062804 
L 175.668417 175.062804 
L 175.701168 158.820514 
L 175.772225 166.941659 
L 175.892525 166.941659 
L 175.995699 158.820514 
L 176.0275 158.820514 
L 176.145411 150.699369 
L 176.210263 150.699369 
L 176.336322 158.820514 
L 176.451752 150.699369 
L 176.851642 150.699369 
L 176.854811 142.578225 
L 176.915246 166.941659 
L 176.951402 166.941659 
L 176.990688 166.941659 
L 177.045386 158.820514 
L 177.099171 166.941659 
L 177.283154 166.941659 
L 177.398779 175.062804 
L 177.568375 175.062804 
L 177.691034 158.820514 
L 177.770152 158.820514 
L 177.787591 150.699369 
L 177.87477 158.820514 
L 177.926538 158.820514 
L 178.037683 175.062804 
L 178.251981 175.062804 
L 178.322701 191.305093 
L 178.333317 183.183949 
L 178.462303 175.062804 
L 178.557184 175.062804 
L 178.560349 183.183949 
L 178.636322 175.062804 
L 178.718417 175.062804 
L 178.730861 166.941659 
L 178.788581 183.183949 
L 178.799381 183.183949 
L 178.856344 183.183949 
L 178.979574 166.941659 
L 179.037262 166.941659 
L 179.206029 175.062804 
L 179.26851 175.062804 
L 179.391669 183.183949 
L 179.458607 158.820514 
L 179.472737 166.941659 
L 179.559994 166.941659 
L 179.771281 183.183949 
L 179.803538 183.183949 
L 179.851125 191.305093 
L 179.934371 191.305093 
L 180.076719 183.183949 
L 180.254209 183.183949 
L 180.287082 191.305093 
L 180.330095 183.183949 
L 181.058629 183.183949 
L 181.377765 175.062804 
L 181.478132 175.062804 
L 181.531953 183.183949 
L 181.580131 175.062804 
L 181.694693 166.941659 
L 181.70925 166.941659 
L 181.771606 158.820514 
L 181.795189 166.941659 
L 181.984793 166.941659 
L 182.123051 183.183949 
L 182.545986 183.183949 
L 182.624426 191.305093 
L 183.006755 191.305093 
L 183.335294 175.062804 
L 183.531267 175.062804 
L 183.651741 166.941659 
L 183.801521 183.183949 
L 183.857595 183.183949 
L 183.894609 166.941659 
L 183.977716 175.062804 
L 184.037463 175.062804 
L 184.242839 150.699369 
L 184.339996 158.820514 
L 185.087905 158.820514 
L 185.18868 150.699369 
L 185.37738 150.699369 
L 185.37926 158.820514 
L 185.473694 150.699369 
L 185.498935 150.699369 
L 185.665116 158.820514 
L 185.670989 150.699369 
L 185.773158 158.820514 
L 186.036319 158.820514 
L 186.166239 150.699369 
L 186.273218 150.699369 
L 186.401817 158.820514 
L 186.405494 150.699369 
L 186.453371 166.941659 
L 186.585111 166.941659 
L 186.672645 175.062804 
L 186.679609 166.941659 
L 186.779641 166.941659 
L 186.902529 175.062804 
L 187.125562 175.062804 
L 187.144245 183.183949 
L 187.69761 183.183949 
L 187.828145 175.062804 
L 187.900378 175.062804 
L 187.98789 166.941659 
L 188.065863 175.062804 
L 188.250888 175.062804 
L 188.319859 166.941659 
L 188.347113 175.062804 
L 188.432239 175.062804 
L 188.507137 158.820514 
L 188.67119 158.820514 
L 188.770421 166.941659 
L 189.222786 166.941659 
L 189.303908 175.062804 
L 189.477524 158.820514 
L 189.569915 166.941659 
L 189.696413 158.820514 
L 189.73049 158.820514 
L 189.771886 150.699369 
L 189.814146 166.941659 
L 190.111136 166.941659 
L 190.295719 150.699369 
L 190.410879 175.062804 
L 190.849841 175.062804 
L 190.963941 166.941659 
L 191.105941 166.941659 
L 191.257464 150.699369 
L 191.478106 175.062804 
L 191.636294 175.062804 
L 191.729464 191.305093 
L 191.861923 183.183949 
L 192.478749 183.183949 
L 192.820431 166.941659 
L 192.843602 158.820514 
L 192.900931 175.062804 
L 193.335757 175.062804 
L 193.445245 183.183949 
L 193.477223 183.183949 
L 193.683014 166.941659 
L 193.778454 175.062804 
L 193.784281 166.941659 
L 193.887608 166.941659 
L 193.950544 158.820514 
L 194.152615 175.062804 
L 194.262034 166.941659 
L 194.449416 166.941659 
L 194.604601 183.183949 
L 194.756273 166.941659 
L 194.817744 166.941659 
L 194.907392 158.820514 
L 195.268123 158.820514 
L 195.463918 166.941659 
L 195.479729 175.062804 
L 195.88765 175.062804 
L 196.005329 191.305093 
L 196.133728 183.183949 
L 196.195326 191.305093 
L 196.387343 191.305093 
L 196.722447 183.183949 
L 196.855871 183.183949 
L 196.958558 191.305093 
L 197.142067 166.941659 
L 197.847446 166.941659 
L 197.950913 175.062804 
L 198.085302 183.183949 
L 198.181103 175.062804 
L 198.256963 183.183949 
L 198.387165 183.183949 
L 198.440977 175.062804 
L 198.692677 175.062804 
L 198.762276 191.305093 
L 199.065342 191.305093 
L 199.111074 183.183949 
L 199.24237 183.183949 
L 199.417512 191.305093 
L 199.529769 183.183949 
L 199.720508 183.183949 
L 199.767451 191.305093 
L 199.973354 191.305093 
L 200.109979 175.062804 
L 200.738413 175.062804 
L 200.873697 150.699369 
L 201.006684 158.820514 
L 201.105387 150.699369 
L 201.180667 166.941659 
L 201.551064 166.941659 
L 201.630791 158.820514 
L 201.911291 183.183949 
L 201.997043 183.183949 
L 202.057297 191.305093 
L 202.069246 183.183949 
L 202.17717 183.183949 
L 202.393774 175.062804 
L 202.520894 183.183949 
L 202.853957 183.183949 
L 203.038368 175.062804 
L 203.194009 183.183949 
L 203.25003 183.183949 
L 203.440977 191.305093 
L 203.723372 175.062804 
L 204.068172 166.941659 
L 204.216156 166.941659 
L 204.281705 142.578225 
L 204.315235 150.699369 
L 204.461381 150.699369 
L 204.582979 166.941659 
L 204.608151 166.941659 
L 204.746099 150.699369 
L 204.769483 158.820514 
L 204.855735 158.820514 
L 204.965817 166.941659 
L 205.172305 166.941659 
L 205.268465 158.820514 
L 205.277694 166.941659 
L 205.446439 166.941659 
L 205.537433 175.062804 
L 205.643251 175.062804 
L 205.961348 183.183949 
L 206.157443 183.183949 
L 206.226585 175.062804 
L 206.258661 183.183949 
L 206.421298 183.183949 
L 206.514588 175.062804 
L 206.580339 183.183949 
L 206.811647 191.305093 
L 207.627033 183.183949 
L 207.64014 175.062804 
L 207.825956 175.062804 
L 207.961713 166.941659 
L 208.480799 191.305093 
L 208.631989 175.062804 
L 208.839383 175.062804 
L 208.961573 166.941659 
L 209.134335 175.062804 
L 209.180667 183.183949 
L 210.558288 183.183949 
L 210.986671 175.062804 
L 211.172335 175.062804 
L 211.298178 191.305093 
L 211.365307 183.183949 
L 211.589888 175.062804 
L 212.156596 191.305093 
L 212.267145 183.183949 
L 212.597594 183.183949 
L 212.848311 191.305093 
L 213.172586 183.183949 
L 213.298608 175.062804 
L 213.304566 183.183949 
L 213.456868 183.183949 
L 213.486356 191.305093 
L 219.960037 191.305093 
L 220.258944 183.183949 
L 220.45104 183.183949 
L 220.480456 175.062804 
L 220.603439 175.062804 
L 220.632939 166.941659 
L 220.844734 175.062804 
L 221.140769 166.941659 
L 221.659101 166.941659 
L 221.816339 191.305093 
L 222.393139 191.305093 
L 222.426802 183.183949 
L 222.921931 183.183949 
L 224.191278 191.305093 
L 229.580721 191.305093 
L 229.714441 183.183949 
L 229.748417 191.305093 
L 242.556834 191.305093 
L 243.003058 183.183949 
L 243.098627 191.305093 
L 245.210621 191.305093 
L 245.84441 183.183949 
L 246.938624 183.183949 
L 247.726478 191.305093 
L 252.113994 191.305093 
L 252.166954 183.183949 
L 252.299549 191.305093 
L 270.09288 191.305093 
L 270.118997 183.183949 
L 270.231591 191.305093 
L 270.370229 191.305093 
L 270.457591 183.183949 
L 270.821511 183.183949 
L 271.076288 191.305093 
L 283.505502 191.305093 
L 283.669046 175.062804 
L 283.955547 166.941659 
L 284.072198 158.820514 
L 284.073744 166.941659 
L 284.151255 158.820514 
L 284.30585 158.820514 
L 284.313499 166.941659 
L 284.436493 175.062804 
L 285.327683 191.305093 
L 286.579061 191.305093 
L 286.885105 183.183949 
L 287.034883 183.183949 
L 287.119921 191.305093 
L 300.668511 191.305093 
L 300.906549 166.941659 
L 301.127785 191.305093 
L 301.26302 175.062804 
L 301.296321 183.183949 
L 301.383747 183.183949 
L 301.453601 175.062804 
L 301.650962 183.183949 
L 301.875368 166.941659 
L 301.975148 183.183949 
L 302.078938 175.062804 
L 302.33697 175.062804 
L 302.35481 166.941659 
L 302.444147 175.062804 
L 302.961825 175.062804 
L 303.101506 183.183949 
L 303.320724 183.183949 
L 303.479055 191.305093 
L 309.049486 191.305093 
L 309.140625 183.183949 
L 309.295956 183.183949 
L 309.383658 191.305093 
L 312.422447 191.305093 
L 312.422447 191.305093 
" clip-path="url(#p80e7268539)" style="fill: none; stroke: #000000; stroke-width: 1.5; stroke-linecap: square"/>
   </g>
   <g id="patch_8">
    <path d="M 44.103906 195.365666 
L 44.103906 106.033073 
" style="fill: none; stroke: #000000; stroke-width: 0.8; stroke-linejoin: miter; stroke-linecap: square"/>
   </g>
   <g id="patch_9">
    <path d="M 325.19952 195.365666 
L 325.19952 106.033073 
" style="fill: none; stroke: #000000; stroke-width: 0.8; stroke-linejoin: miter; stroke-linecap: square"/>
   </g>
   <g id="patch_10">
    <path d="M 44.103906 195.365666 
L 325.19952 195.365666 
" style="fill: none; stroke: #000000; stroke-width: 0.8; stroke-linejoin: miter; stroke-linecap: square"/>
   </g>
   <g id="patch_11">
    <path d="M 44.103906 106.033073 
L 325.19952 106.033073 
" style="fill: none; stroke: #000000; stroke-width: 0.8; stroke-linejoin: miter; stroke-linecap: square"/>
   </g>
  </g>
  <g id="axes_3">
   <g id="patch_12">
    <path d="M 44.103906 294.198739 
L 325.19952 294.198739 
L 325.19952 204.866146 
L 44.103906 204.866146 
z
" style="fill: #ffffff"/>
   </g>
   <g id="matplotlib.axis_5">
    <g id="xtick_19">
     <g id="line2d_27">
      <g>
       <use xlink:href="#m40ba495b84" x="56.88098" y="294.198739" style="stroke: #000000; stroke-width: 0.8"/>
      </g>
     </g>
     <g id="text_9">
      <!-- 0 -->
      <g transform="translate(53.69973 308.796395) scale(0.1 -0.1)">
       <use xlink:href="#DejaVuSans-13"/>
      </g>
     </g>
    </g>
    <g id="xtick_20">
     <g id="line2d_28">
      <g>
       <use xlink:href="#m40ba495b84" x="88.72937" y="294.198739" style="stroke: #000000; stroke-width: 0.8"/>
      </g>
     </g>
     <g id="text_10">
      <!-- 100 -->
      <g transform="translate(79.18562 308.796395) scale(0.1 -0.1)">
       <use xlink:href="#DejaVuSans-14"/>
       <use xlink:href="#DejaVuSans-13" transform="translate(63.625 0)"/>
       <use xlink:href="#DejaVuSans-13" transform="translate(127.25 0)"/>
      </g>
     </g>
    </g>
    <g id="xtick_21">
     <g id="line2d_29">
      <g>
       <use xlink:href="#m40ba495b84" x="120.577761" y="294.198739" style="stroke: #000000; stroke-width: 0.8"/>
      </g>
     </g>
     <g id="text_11">
      <!-- 200 -->
      <g transform="translate(111.034011 308.796395) scale(0.1 -0.1)">
       <defs>
        <path id="DejaVuSans-15" d="M 1228 531 
L 3431 531 
L 3431 0 
L 469 0 
L 469 531 
Q 828 903 1448 1529 
Q 2069 2156 2228 2338 
Q 2531 2678 2651 2914 
Q 2772 3150 2772 3378 
Q 2772 3750 2511 3984 
Q 2250 4219 1831 4219 
Q 1534 4219 1204 4116 
Q 875 4013 500 3803 
L 500 4441 
Q 881 4594 1212 4672 
Q 1544 4750 1819 4750 
Q 2544 4750 2975 4387 
Q 3406 4025 3406 3419 
Q 3406 3131 3298 2873 
Q 3191 2616 2906 2266 
Q 2828 2175 2409 1742 
Q 1991 1309 1228 531 
z
" transform="scale(0.015625)"/>
       </defs>
       <use xlink:href="#DejaVuSans-15"/>
       <use xlink:href="#DejaVuSans-13" transform="translate(63.625 0)"/>
       <use xlink:href="#DejaVuSans-13" transform="translate(127.25 0)"/>
      </g>
     </g>
    </g>
    <g id="xtick_22">
     <g id="line2d_30">
      <g>
       <use xlink:href="#m40ba495b84" x="152.426152" y="294.198739" style="stroke: #000000; stroke-width: 0.8"/>
      </g>
     </g>
     <g id="text_12">
      <!-- 300 -->
      <g transform="translate(142.882402 308.796395) scale(0.1 -0.1)">
       <defs>
        <path id="DejaVuSans-16" d="M 2597 2516 
Q 3050 2419 3304 2112 
Q 3559 1806 3559 1356 
Q 3559 666 3084 287 
Q 2609 -91 1734 -91 
Q 1441 -91 1130 -33 
Q 819 25 488 141 
L 488 750 
Q 750 597 1062 519 
Q 1375 441 1716 441 
Q 2309 441 2620 675 
Q 2931 909 2931 1356 
Q 2931 1769 2642 2001 
Q 2353 2234 1838 2234 
L 1294 2234 
L 1294 2753 
L 1863 2753 
Q 2328 2753 2575 2939 
Q 2822 3125 2822 3475 
Q 2822 3834 2567 4026 
Q 2313 4219 1838 4219 
Q 1578 4219 1281 4162 
Q 984 4106 628 3988 
L 628 4550 
Q 988 4650 1302 4700 
Q 1616 4750 1894 4750 
Q 2613 4750 3031 4423 
Q 3450 4097 3450 3541 
Q 3450 3153 3228 2886 
Q 3006 2619 2597 2516 
z
" transform="scale(0.015625)"/>
       </defs>
       <use xlink:href="#DejaVuSans-16"/>
       <use xlink:href="#DejaVuSans-13" transform="translate(63.625 0)"/>
       <use xlink:href="#DejaVuSans-13" transform="translate(127.25 0)"/>
      </g>
     </g>
    </g>
    <g id="xtick_23">
     <g id="line2d_31">
      <g>
       <use xlink:href="#m40ba495b84" x="184.274542" y="294.198739" style="stroke: #000000; stroke-width: 0.8"/>
      </g>
     </g>
     <g id="text_13">
      <!-- 400 -->
      <g transform="translate(174.730792 308.796395) scale(0.1 -0.1)">
       <defs>
        <path id="DejaVuSans-17" d="M 2419 4116 
L 825 1625 
L 2419 1625 
L 2419 4116 
z
M 2253 4666 
L 3047 4666 
L 3047 1625 
L 3713 1625 
L 3713 1100 
L 3047 1100 
L 3047 0 
L 2419 0 
L 2419 1100 
L 313 1100 
L 313 1709 
L 2253 4666 
z
" transform="scale(0.015625)"/>
       </defs>
       <use xlink:href="#DejaVuSans-17"/>
       <use xlink:href="#DejaVuSans-13" transform="translate(63.625 0)"/>
       <use xlink:href="#DejaVuSans-13" transform="translate(127.25 0)"/>
      </g>
     </g>
    </g>
    <g id="xtick_24">
     <g id="line2d_32">
      <g>
       <use xlink:href="#m40ba495b84" x="216.122933" y="294.198739" style="stroke: #000000; stroke-width: 0.8"/>
      </g>
     </g>
     <g id="text_14">
      <!-- 500 -->
      <g transform="translate(206.579183 308.796395) scale(0.1 -0.1)">
       <use xlink:href="#DejaVuSans-18"/>
       <use xlink:href="#DejaVuSans-13" transform="translate(63.625 0)"/>
       <use xlink:href="#DejaVuSans-13" transform="translate(127.25 0)"/>
      </g>
     </g>
    </g>
    <g id="xtick_25">
     <g id="line2d_33">
      <g>
       <use xlink:href="#m40ba495b84" x="247.971324" y="294.198739" style="stroke: #000000; stroke-width: 0.8"/>
      </g>
     </g>
     <g id="text_15">
      <!-- 600 -->
      <g transform="translate(238.427574 308.796395) scale(0.1 -0.1)">
       <defs>
        <path id="DejaVuSans-19" d="M 2113 2584 
Q 1688 2584 1439 2293 
Q 1191 2003 1191 1497 
Q 1191 994 1439 701 
Q 1688 409 2113 409 
Q 2538 409 2786 701 
Q 3034 994 3034 1497 
Q 3034 2003 2786 2293 
Q 2538 2584 2113 2584 
z
M 3366 4563 
L 3366 3988 
Q 3128 4100 2886 4159 
Q 2644 4219 2406 4219 
Q 1781 4219 1451 3797 
Q 1122 3375 1075 2522 
Q 1259 2794 1537 2939 
Q 1816 3084 2150 3084 
Q 2853 3084 3261 2657 
Q 3669 2231 3669 1497 
Q 3669 778 3244 343 
Q 2819 -91 2113 -91 
Q 1303 -91 875 529 
Q 447 1150 447 2328 
Q 447 3434 972 4092 
Q 1497 4750 2381 4750 
Q 2619 4750 2861 4703 
Q 3103 4656 3366 4563 
z
" transform="scale(0.015625)"/>
       </defs>
       <use xlink:href="#DejaVuSans-19"/>
       <use xlink:href="#DejaVuSans-13" transform="translate(63.625 0)"/>
       <use xlink:href="#DejaVuSans-13" transform="translate(127.25 0)"/>
      </g>
     </g>
    </g>
    <g id="xtick_26">
     <g id="line2d_34">
      <g>
       <use xlink:href="#m40ba495b84" x="279.819714" y="294.198739" style="stroke: #000000; stroke-width: 0.8"/>
      </g>
     </g>
     <g id="text_16">
      <!-- 700 -->
      <g transform="translate(270.275964 308.796395) scale(0.1 -0.1)">
       <defs>
        <path id="DejaVuSans-1a" d="M 525 4666 
L 3525 4666 
L 3525 4397 
L 1831 0 
L 1172 0 
L 2766 4134 
L 525 4134 
L 525 4666 
z
" transform="scale(0.015625)"/>
       </defs>
       <use xlink:href="#DejaVuSans-1a"/>
       <use xlink:href="#DejaVuSans-13" transform="translate(63.625 0)"/>
       <use xlink:href="#DejaVuSans-13" transform="translate(127.25 0)"/>
      </g>
     </g>
    </g>
    <g id="xtick_27">
     <g id="line2d_35">
      <g>
       <use xlink:href="#m40ba495b84" x="311.668105" y="294.198739" style="stroke: #000000; stroke-width: 0.8"/>
      </g>
     </g>
     <g id="text_17">
      <!-- 800 -->
      <g transform="translate(302.124355 308.796395) scale(0.1 -0.1)">
       <defs>
        <path id="DejaVuSans-1b" d="M 2034 2216 
Q 1584 2216 1326 1975 
Q 1069 1734 1069 1313 
Q 1069 891 1326 650 
Q 1584 409 2034 409 
Q 2484 409 2743 651 
Q 3003 894 3003 1313 
Q 3003 1734 2745 1975 
Q 2488 2216 2034 2216 
z
M 1403 2484 
Q 997 2584 770 2862 
Q 544 3141 544 3541 
Q 544 4100 942 4425 
Q 1341 4750 2034 4750 
Q 2731 4750 3128 4425 
Q 3525 4100 3525 3541 
Q 3525 3141 3298 2862 
Q 3072 2584 2669 2484 
Q 3125 2378 3379 2068 
Q 3634 1759 3634 1313 
Q 3634 634 3220 271 
Q 2806 -91 2034 -91 
Q 1263 -91 848 271 
Q 434 634 434 1313 
Q 434 1759 690 2068 
Q 947 2378 1403 2484 
z
M 1172 3481 
Q 1172 3119 1398 2916 
Q 1625 2713 2034 2713 
Q 2441 2713 2670 2916 
Q 2900 3119 2900 3481 
Q 2900 3844 2670 4047 
Q 2441 4250 2034 4250 
Q 1625 4250 1398 4047 
Q 1172 3844 1172 3481 
z
" transform="scale(0.015625)"/>
       </defs>
       <use xlink:href="#DejaVuSans-1b"/>
       <use xlink:href="#DejaVuSans-13" transform="translate(63.625 0)"/>
       <use xlink:href="#DejaVuSans-13" transform="translate(127.25 0)"/>
      </g>
     </g>
    </g>
    <g id="text_18">
     <!-- Time -->
     <g transform="translate(172.415776 322.797176) scale(0.1 -0.1)">
      <defs>
       <path id="DejaVuSans-37" d="M -19 4666 
L 3928 4666 
L 3928 4134 
L 2272 4134 
L 2272 0 
L 1638 0 
L 1638 4134 
L -19 4134 
L -19 4666 
z
" transform="scale(0.015625)"/>
       <path id="DejaVuSans-4c" d="M 603 3500 
L 1178 3500 
L 1178 0 
L 603 0 
L 603 3500 
z
M 603 4863 
L 1178 4863 
L 1178 4134 
L 603 4134 
L 603 4863 
z
" transform="scale(0.015625)"/>
       <path id="DejaVuSans-50" d="M 3328 2828 
Q 3544 3216 3844 3400 
Q 4144 3584 4550 3584 
Q 5097 3584 5394 3201 
Q 5691 2819 5691 2113 
L 5691 0 
L 5113 0 
L 5113 2094 
Q 5113 2597 4934 2840 
Q 4756 3084 4391 3084 
Q 3944 3084 3684 2787 
Q 3425 2491 3425 1978 
L 3425 0 
L 2847 0 
L 2847 2094 
Q 2847 2600 2669 2842 
Q 2491 3084 2119 3084 
Q 1678 3084 1418 2786 
Q 1159 2488 1159 1978 
L 1159 0 
L 581 0 
L 581 3500 
L 1159 3500 
L 1159 2956 
Q 1356 3278 1631 3431 
Q 1906 3584 2284 3584 
Q 2666 3584 2933 3390 
Q 3200 3197 3328 2828 
z
" transform="scale(0.015625)"/>
      </defs>
      <use xlink:href="#DejaVuSans-37"/>
      <use xlink:href="#DejaVuSans-4c" transform="translate(58 0)"/>
      <use xlink:href="#DejaVuSans-50" transform="translate(85.78125 0)"/>
      <use xlink:href="#DejaVuSans-48" transform="translate(183.1875 0)"/>
     </g>
    </g>
   </g>
   <g id="matplotlib.axis_6">
    <g id="ytick_7">
     <g id="line2d_36">
      <g>
       <use xlink:href="#m2c21fffa64" x="44.103906" y="290.138166" style="stroke: #000000; stroke-width: 0.8"/>
      </g>
     </g>
     <g id="text_19">
      <!-- 0.0 -->
      <g transform="translate(21.200781 293.936994) scale(0.1 -0.1)">
       <defs>
        <path id="DejaVuSans-11" d="M 684 794 
L 1344 794 
L 1344 0 
L 684 0 
L 684 794 
z
" transform="scale(0.015625)"/>
       </defs>
       <use xlink:href="#DejaVuSans-13"/>
       <use xlink:href="#DejaVuSans-11" transform="translate(63.625 0)"/>
       <use xlink:href="#DejaVuSans-13" transform="translate(95.40625 0)"/>
      </g>
     </g>
    </g>
    <g id="ytick_8">
     <g id="line2d_37">
      <g>
       <use xlink:href="#m2c21fffa64" x="44.103906" y="249.532442" style="stroke: #000000; stroke-width: 0.8"/>
      </g>
     </g>
     <g id="text_20">
      <!-- 0.5 -->
      <g transform="translate(21.200781 253.33127) scale(0.1 -0.1)">
       <use xlink:href="#DejaVuSans-13"/>
       <use xlink:href="#DejaVuSans-11" transform="translate(63.625 0)"/>
       <use xlink:href="#DejaVuSans-18" transform="translate(95.40625 0)"/>
      </g>
     </g>
    </g>
    <g id="ytick_9">
     <g id="line2d_38">
      <g>
       <use xlink:href="#m2c21fffa64" x="44.103906" y="208.926718" style="stroke: #000000; stroke-width: 0.8"/>
      </g>
     </g>
     <g id="text_21">
      <!-- 1.0 -->
      <g transform="translate(21.200781 212.725546) scale(0.1 -0.1)">
       <use xlink:href="#DejaVuSans-14"/>
       <use xlink:href="#DejaVuSans-11" transform="translate(63.625 0)"/>
       <use xlink:href="#DejaVuSans-13" transform="translate(95.40625 0)"/>
      </g>
     </g>
    </g>
    <g id="text_22">
     <!-- Free lac operon -->
     <g transform="translate(14.798438 288.006661) rotate(-90) scale(0.1 -0.1)">
      <defs>
       <path id="DejaVuSans-29" d="M 628 4666 
L 3309 4666 
L 3309 4134 
L 1259 4134 
L 1259 2759 
L 3109 2759 
L 3109 2228 
L 1259 2228 
L 1259 0 
L 628 0 
L 628 4666 
z
" transform="scale(0.015625)"/>
       <path id="DejaVuSans-53" d="M 1159 525 
L 1159 -1331 
L 581 -1331 
L 581 3500 
L 1159 3500 
L 1159 2969 
Q 1341 3281 1617 3432 
Q 1894 3584 2278 3584 
Q 2916 3584 3314 3078 
Q 3713 2572 3713 1747 
Q 3713 922 3314 415 
Q 2916 -91 2278 -91 
Q 1894 -91 1617 61 
Q 1341 213 1159 525 
z
M 3116 1747 
Q 3116 2381 2855 2742 
Q 2594 3103 2138 3103 
Q 1681 3103 1420 2742 
Q 1159 2381 1159 1747 
Q 1159 1113 1420 752 
Q 1681 391 2138 391 
Q 2594 391 2855 752 
Q 3116 1113 3116 1747 
z
" transform="scale(0.015625)"/>
       <path id="DejaVuSans-51" d="M 3513 2113 
L 3513 0 
L 2938 0 
L 2938 2094 
Q 2938 2591 2744 2837 
Q 2550 3084 2163 3084 
Q 1697 3084 1428 2787 
Q 1159 2491 1159 1978 
L 1159 0 
L 581 0 
L 581 3500 
L 1159 3500 
L 1159 2956 
Q 1366 3272 1645 3428 
Q 1925 3584 2291 3584 
Q 2894 3584 3203 3211 
Q 3513 2838 3513 2113 
z
" transform="scale(0.015625)"/>
      </defs>
      <use xlink:href="#DejaVuSans-29"/>
      <use xlink:href="#DejaVuSans-55" transform="translate(50.234375 0)"/>
      <use xlink:href="#DejaVuSans-48" transform="translate(89.140625 0)"/>
      <use xlink:href="#DejaVuSans-48" transform="translate(150.671875 0)"/>
      <use xlink:href="#DejaVuSans-3" transform="translate(212.203125 0)"/>
      <use xlink:href="#DejaVuSans-4f" transform="translate(243.984375 0)"/>
      <use xlink:href="#DejaVuSans-44" transform="translate(271.765625 0)"/>
      <use xlink:href="#DejaVuSans-46" transform="translate(333.046875 0)"/>
      <use xlink:href="#DejaVuSans-3" transform="translate(388.03125 0)"/>
      <use xlink:href="#DejaVuSans-52" transform="translate(419.8125 0)"/>
      <use xlink:href="#DejaVuSans-53" transform="translate(481 0)"/>
      <use xlink:href="#DejaVuSans-48" transform="translate(544.484375 0)"/>
      <use xlink:href="#DejaVuSans-55" transform="translate(606.015625 0)"/>
      <use xlink:href="#DejaVuSans-52" transform="translate(644.921875 0)"/>
      <use xlink:href="#DejaVuSans-51" transform="translate(706.109375 0)"/>
     </g>
    </g>
   </g>
   <g id="line2d_39">
    <path d="M 56.88098 208.926718 
L 56.962437 290.138166 
L 57.130605 290.138166 
L 57.300065 208.926718 
L 57.418149 208.926718 
L 57.520208 290.138166 
L 58.735626 290.138166 
L 59.724771 208.926718 
L 59.910982 208.926718 
L 59.93371 290.138166 
L 62.353448 290.138166 
L 64.946137 208.926718 
L 65.240825 208.926718 
L 65.378172 290.138166 
L 65.503956 290.138166 
L 72.16168 208.926718 
L 72.331349 290.138166 
L 80.165403 208.926718 
L 80.214405 290.138166 
L 82.839014 208.926718 
L 82.978905 208.926718 
L 83.033029 290.138166 
L 84.772131 290.138166 
L 84.837518 208.926718 
L 85.713187 208.926718 
L 85.90303 290.138166 
L 86.935137 290.138166 
L 89.92561 208.926718 
L 90.465231 208.926718 
L 90.49449 290.138166 
L 90.852142 290.138166 
L 91.732907 208.926718 
L 91.791312 290.138166 
L 92.134909 290.138166 
L 109.197574 208.926718 
L 109.211266 290.138166 
L 109.469545 290.138166 
L 109.745476 208.926718 
L 110.032623 290.138166 
L 110.160601 208.926718 
L 110.568057 208.926718 
L 110.772492 290.138166 
L 111.064922 290.138166 
L 115.224056 208.926718 
L 115.8842 290.138166 
L 117.525042 208.926718 
L 117.840044 290.138166 
L 118.511978 208.926718 
L 118.599239 290.138166 
L 119.607862 208.926718 
L 119.69271 290.138166 
L 123.632659 290.138166 
L 129.647108 208.926718 
L 129.752977 290.138166 
L 131.493976 208.926718 
L 131.944439 208.926718 
L 131.965864 290.138166 
L 133.804809 290.138166 
L 136.398552 208.926718 
L 136.411849 290.138166 
L 139.2908 208.926718 
L 139.3335 290.138166 
L 146.371645 208.926718 
L 147.315278 208.926718 
L 147.38354 290.138166 
L 147.999515 290.138166 
L 148.244368 208.926718 
L 148.559016 208.926718 
L 148.671679 290.138166 
L 149.741501 290.138166 
L 150.252556 208.926718 
L 150.353235 290.138166 
L 151.473505 290.138166 
L 151.484818 208.926718 
L 151.646236 290.138166 
L 155.951562 208.926718 
L 156.04043 290.138166 
L 156.289565 208.926718 
L 213.270162 208.926718 
L 213.304566 290.138166 
L 214.304978 290.138166 
L 219.960037 208.926718 
L 221.140769 208.926718 
L 221.410821 290.138166 
L 221.99139 290.138166 
L 222.426802 208.926718 
L 222.576129 290.138166 
L 224.791454 290.138166 
L 226.463923 208.926718 
L 226.518505 290.138166 
L 229.654205 208.926718 
L 229.748417 290.138166 
L 230.375291 290.138166 
L 234.35457 208.926718 
L 234.566713 290.138166 
L 234.885608 208.926718 
L 234.950062 290.138166 
L 242.556834 208.926718 
L 243.092693 208.926718 
L 243.098627 290.138166 
L 243.61175 290.138166 
L 245.210621 208.926718 
L 245.759023 208.926718 
L 245.84441 290.138166 
L 246.874679 290.138166 
L 246.933355 208.926718 
L 246.938624 290.138166 
L 247.726478 290.138166 
L 252.166954 208.926718 
L 252.260542 208.926718 
L 252.299549 290.138166 
L 253.484237 290.138166 
L 270.118997 208.926718 
L 270.224624 208.926718 
L 270.231591 290.138166 
L 270.457591 208.926718 
L 270.821511 290.138166 
L 271.076288 290.138166 
L 277.031153 208.926718 
L 277.052172 290.138166 
L 283.566255 208.926718 
L 284.199266 208.926718 
L 284.313499 290.138166 
L 285.327683 290.138166 
L 286.579061 208.926718 
L 286.79013 208.926718 
L 286.885105 290.138166 
L 287.04344 208.926718 
L 287.119921 290.138166 
L 287.744239 208.926718 
L 288.063727 290.138166 
L 294.15595 208.926718 
L 294.396696 290.138166 
L 298.844583 208.926718 
L 298.865048 290.138166 
L 300.741501 208.926718 
L 302.599804 208.926718 
L 302.713054 290.138166 
L 303.479055 290.138166 
L 305.345577 208.926718 
L 305.382611 290.138166 
L 305.406507 208.926718 
L 305.718475 290.138166 
L 309.140625 208.926718 
L 309.383658 290.138166 
L 309.724666 208.926718 
L 309.747807 290.138166 
L 310.3915 290.138166 
L 312.422447 208.926718 
L 312.422447 208.926718 
" clip-path="url(#p6e71bb4c81)" style="fill: none; stroke: #000000; stroke-width: 1.5; stroke-linecap: square"/>
   </g>
   <g id="patch_13">
    <path d="M 44.103906 294.198739 
L 44.103906 204.866146 
" style="fill: none; stroke: #000000; stroke-width: 0.8; stroke-linejoin: miter; stroke-linecap: square"/>
   </g>
   <g id="patch_14">
    <path d="M 325.19952 294.198739 
L 325.19952 204.866146 
" style="fill: none; stroke: #000000; stroke-width: 0.8; stroke-linejoin: miter; stroke-linecap: square"/>
   </g>
   <g id="patch_15">
    <path d="M 44.103906 294.198739 
L 325.19952 294.198739 
" style="fill: none; stroke: #000000; stroke-width: 0.8; stroke-linejoin: miter; stroke-linecap: square"/>
   </g>
   <g id="patch_16">
    <path d="M 44.103906 204.866146 
L 325.19952 204.866146 
" style="fill: none; stroke: #000000; stroke-width: 0.8; stroke-linejoin: miter; stroke-linecap: square"/>
   </g>
  </g>
 </g>
 <defs>
  <clipPath id="pf42d867f30">
   <rect x="44.103906" y="7.2" width="281.095614" height="89.332593"/>
  </clipPath>
  <clipPath id="p80e7268539">
   <rect x="44.103906" y="106.033073" width="281.095614" height="89.332593"/>
  </clipPath>
  <clipPath id="p6e71bb4c81">
   <rect x="44.103906" y="204.866146" width="281.095614" height="89.332593"/>
  </clipPath>
 </defs>
</svg>
