<?xml version="1.0" encoding="utf-8" standalone="no"?>
<!DOCTYPE svg PUBLIC "-//W3C//DTD SVG 1.1//EN"
  "http://www.w3.org/Graphics/SVG/1.1/DTD/svg11.dtd">
<svg xmlns:xlink="http://www.w3.org/1999/xlink" width="332.39952pt" height="338.705099pt" viewBox="0 0 332.39952 338.705099" xmlns="http://www.w3.org/2000/svg" version="1.1">
 <metadata>
  <rdf:RDF xmlns:dc="http://purl.org/dc/elements/1.1/" xmlns:cc="http://creativecommons.org/ns#" xmlns:rdf="http://www.w3.org/1999/02/22-rdf-syntax-ns#">
   <cc:Work>
    <dc:type rdf:resource="http://purl.org/dc/dcmitype/StillImage"/>
    <dc:date>2026-07-21T19:00:46.118363</dc:date>
    <dc:format>image/svg+xml</dc:format>
    <dc:creator>
     <cc:Agent>
      <dc:title>Matplotlib v3.11.1, https://matplotlib.org/</dc:title>
     </cc:Agent>
    </dc:creator>
   </cc:Work>
  </rdf:RDF>
 </metadata>
 <defs>
  <style type="text/css">*{stroke-linejoin: round; stroke-linecap: butt}</style>
 </defs>
 <g id="figure_1">
  <g id="patch_1">
   <path d="M 0 338.705099 
L 332.39952 338.705099 
L 332.39952 0 
L 0 0 
z
" style="fill: #ffffff"/>
  </g>
  <g id="axes_1">
   <g id="patch_2">
    <path d="M 44.103906 102.838171 
L 325.19952 102.838171 
L 325.19952 13.505579 
L 44.103906 13.505579 
z
" style="fill: #ffffff"/>
   </g>
   <g id="matplotlib.axis_1">
    <g id="xtick_1">
     <g id="line2d_1">
      <defs>
       <path id="m6b51fbde34" d="M 0 0 
L 0 3.5 
" style="stroke: #000000; stroke-width: 0.8"/>
      </defs>
      <g>
       <use xlink:href="#m6b51fbde34" x="56.88098" y="102.838171" style="stroke: #000000; stroke-width: 0.8"/>
      </g>
     </g>
    </g>
    <g id="xtick_2">
     <g id="line2d_2">
      <g>
       <use xlink:href="#m6b51fbde34" x="88.69109" y="102.838171" style="stroke: #000000; stroke-width: 0.8"/>
      </g>
     </g>
    </g>
    <g id="xtick_3">
     <g id="line2d_3">
      <g>
       <use xlink:href="#m6b51fbde34" x="120.501201" y="102.838171" style="stroke: #000000; stroke-width: 0.8"/>
      </g>
     </g>
    </g>
    <g id="xtick_4">
     <g id="line2d_4">
      <g>
       <use xlink:href="#m6b51fbde34" x="152.311312" y="102.838171" style="stroke: #000000; stroke-width: 0.8"/>
      </g>
     </g>
    </g>
    <g id="xtick_5">
     <g id="line2d_5">
      <g>
       <use xlink:href="#m6b51fbde34" x="184.121423" y="102.838171" style="stroke: #000000; stroke-width: 0.8"/>
      </g>
     </g>
    </g>
    <g id="xtick_6">
     <g id="line2d_6">
      <g>
       <use xlink:href="#m6b51fbde34" x="215.931533" y="102.838171" style="stroke: #000000; stroke-width: 0.8"/>
      </g>
     </g>
    </g>
    <g id="xtick_7">
     <g id="line2d_7">
      <g>
       <use xlink:href="#m6b51fbde34" x="247.741644" y="102.838171" style="stroke: #000000; stroke-width: 0.8"/>
      </g>
     </g>
    </g>
    <g id="xtick_8">
     <g id="line2d_8">
      <g>
       <use xlink:href="#m6b51fbde34" x="279.551755" y="102.838171" style="stroke: #000000; stroke-width: 0.8"/>
      </g>
     </g>
    </g>
    <g id="xtick_9">
     <g id="line2d_9">
      <g>
       <use xlink:href="#m6b51fbde34" x="311.361866" y="102.838171" style="stroke: #000000; stroke-width: 0.8"/>
      </g>
     </g>
    </g>
   </g>
   <g id="matplotlib.axis_2">
    <g id="ytick_1">
     <g id="line2d_10">
      <defs>
       <path id="m1147ee157c" d="M 0 0 
L -3.5 0 
" style="stroke: #000000; stroke-width: 0.8"/>
      </defs>
      <g>
       <use xlink:href="#m1147ee157c" x="44.103906" y="98.777599" style="stroke: #000000; stroke-width: 0.8"/>
      </g>
     </g>
     <g id="text_1">
      <!-- 0 -->
      <g transform="translate(30.741406 102.576427) scale(0.1 -0.1)">
       <defs>
        <path id="DejaVuSans-13" d="M 2034 4250 
Q 1547 4250 1301 3770 
Q 1056 3291 1056 2328 
Q 1056 1369 1301 889 
Q 1547 409 2034 409 
Q 2525 409 2770 889 
Q 3016 1369 3016 2328 
Q 3016 3291 2770 3770 
Q 2525 4250 2034 4250 
z
M 2034 4750 
Q 2819 4750 3233 4129 
Q 3647 3509 3647 2328 
Q 3647 1150 3233 529 
Q 2819 -91 2034 -91 
Q 1250 -91 836 529 
Q 422 1150 422 2328 
Q 422 3509 836 4129 
Q 1250 4750 2034 4750 
z
" transform="scale(0.015625)"/>
       </defs>
       <use xlink:href="#DejaVuSans-13"/>
      </g>
     </g>
    </g>
    <g id="ytick_2">
     <g id="line2d_11">
      <g>
       <use xlink:href="#m1147ee157c" x="44.103906" y="58.171875" style="stroke: #000000; stroke-width: 0.8"/>
      </g>
     </g>
     <g id="text_2">
      <!-- 5 -->
      <g transform="translate(30.741406 61.970703) scale(0.1 -0.1)">
       <defs>
        <path id="DejaVuSans-18" d="M 691 4666 
L 3169 4666 
L 3169 4134 
L 1269 4134 
L 1269 2991 
Q 1406 3038 1543 3061 
Q 1681 3084 1819 3084 
Q 2600 3084 3056 2656 
Q 3513 2228 3513 1497 
Q 3513 744 3044 326 
Q 2575 -91 1722 -91 
Q 1428 -91 1123 -41 
Q 819 9 494 109 
L 494 744 
Q 775 591 1075 516 
Q 1375 441 1709 441 
Q 2250 441 2565 725 
Q 2881 1009 2881 1497 
Q 2881 1984 2565 2268 
Q 2250 2553 1709 2553 
Q 1456 2553 1204 2497 
Q 953 2441 691 2322 
L 691 4666 
z
" transform="scale(0.015625)"/>
       </defs>
       <use xlink:href="#DejaVuSans-18"/>
      </g>
     </g>
    </g>
    <g id="ytick_3">
     <g id="line2d_12">
      <g>
       <use xlink:href="#m1147ee157c" x="44.103906" y="17.566151" style="stroke: #000000; stroke-width: 0.8"/>
      </g>
     </g>
     <g id="text_3">
      <!-- 10 -->
      <g transform="translate(24.378906 21.364979) scale(0.1 -0.1)">
       <defs>
        <path id="DejaVuSans-14" d="M 794 531 
L 1825 531 
L 1825 4091 
L 703 3866 
L 703 4441 
L 1819 4666 
L 2450 4666 
L 2450 531 
L 3481 531 
L 3481 0 
L 794 0 
L 794 531 
z
" transform="scale(0.015625)"/>
       </defs>
       <use xlink:href="#DejaVuSans-14"/>
       <use xlink:href="#DejaVuSans-13" transform="translate(63.625 0)"/>
      </g>
     </g>
    </g>
    <g id="text_4">
     <!-- Extracellular lactose -->
     <g transform="translate(17.976563 109.14375) rotate(-90) scale(0.1 -0.1)">
      <defs>
       <path id="DejaVuSans-28" d="M 628 4666 
L 3578 4666 
L 3578 4134 
L 1259 4134 
L 1259 2753 
L 3481 2753 
L 3481 2222 
L 1259 2222 
L 1259 531 
L 3634 531 
L 3634 0 
L 628 0 
L 628 4666 
z
" transform="scale(0.015625)"/>
       <path id="DejaVuSans-5b" d="M 3513 3500 
L 2247 1797 
L 3578 0 
L 2900 0 
L 1881 1375 
L 863 0 
L 184 0 
L 1544 1831 
L 300 3500 
L 978 3500 
L 1906 2253 
L 2834 3500 
L 3513 3500 
z
" transform="scale(0.015625)"/>
       <path id="DejaVuSans-57" d="M 1172 4494 
L 1172 3500 
L 2356 3500 
L 2356 3053 
L 1172 3053 
L 1172 1153 
Q 1172 725 1289 603 
Q 1406 481 1766 481 
L 2356 481 
L 2356 0 
L 1766 0 
Q 1100 0 847 248 
Q 594 497 594 1153 
L 594 3053 
L 172 3053 
L 172 3500 
L 594 3500 
L 594 4494 
L 1172 4494 
z
" transform="scale(0.015625)"/>
       <path id="DejaVuSans-55" d="M 2631 2963 
Q 2534 3019 2420 3045 
Q 2306 3072 2169 3072 
Q 1681 3072 1420 2755 
Q 1159 2438 1159 1844 
L 1159 0 
L 581 0 
L 581 3500 
L 1159 3500 
L 1159 2956 
Q 1341 3275 1631 3429 
Q 1922 3584 2338 3584 
Q 2397 3584 2469 3576 
Q 2541 3569 2628 3553 
L 2631 2963 
z
" transform="scale(0.015625)"/>
       <path id="DejaVuSans-44" d="M 2194 1759 
Q 1497 1759 1228 1600 
Q 959 1441 959 1056 
Q 959 750 1161 570 
Q 1363 391 1709 391 
Q 2188 391 2477 730 
Q 2766 1069 2766 1631 
L 2766 1759 
L 2194 1759 
z
M 3341 1997 
L 3341 0 
L 2766 0 
L 2766 531 
Q 2569 213 2275 61 
Q 1981 -91 1556 -91 
Q 1019 -91 701 211 
Q 384 513 384 1019 
Q 384 1609 779 1909 
Q 1175 2209 1959 2209 
L 2766 2209 
L 2766 2266 
Q 2766 2663 2505 2880 
Q 2244 3097 1772 3097 
Q 1472 3097 1187 3025 
Q 903 2953 641 2809 
L 641 3341 
Q 956 3463 1253 3523 
Q 1550 3584 1831 3584 
Q 2591 3584 2966 3190 
Q 3341 2797 3341 1997 
z
" transform="scale(0.015625)"/>
       <path id="DejaVuSans-46" d="M 3122 3366 
L 3122 2828 
Q 2878 2963 2633 3030 
Q 2388 3097 2138 3097 
Q 1578 3097 1268 2742 
Q 959 2388 959 1747 
Q 959 1106 1268 751 
Q 1578 397 2138 397 
Q 2388 397 2633 464 
Q 2878 531 3122 666 
L 3122 134 
Q 2881 22 2623 -34 
Q 2366 -91 2075 -91 
Q 1284 -91 818 406 
Q 353 903 353 1747 
Q 353 2603 823 3093 
Q 1294 3584 2113 3584 
Q 2378 3584 2631 3529 
Q 2884 3475 3122 3366 
z
" transform="scale(0.015625)"/>
       <path id="DejaVuSans-48" d="M 3597 1894 
L 3597 1613 
L 953 1613 
Q 991 1019 1311 708 
Q 1631 397 2203 397 
Q 2534 397 2845 478 
Q 3156 559 3463 722 
L 3463 178 
Q 3153 47 2828 -22 
Q 2503 -91 2169 -91 
Q 1331 -91 842 396 
Q 353 884 353 1716 
Q 353 2575 817 3079 
Q 1281 3584 2069 3584 
Q 2775 3584 3186 3129 
Q 3597 2675 3597 1894 
z
M 3022 2063 
Q 3016 2534 2758 2815 
Q 2500 3097 2075 3097 
Q 1594 3097 1305 2825 
Q 1016 2553 972 2059 
L 3022 2063 
z
" transform="scale(0.015625)"/>
       <path id="DejaVuSans-4f" d="M 603 4863 
L 1178 4863 
L 1178 0 
L 603 0 
L 603 4863 
z
" transform="scale(0.015625)"/>
       <path id="DejaVuSans-58" d="M 544 1381 
L 544 3500 
L 1119 3500 
L 1119 1403 
Q 1119 906 1312 657 
Q 1506 409 1894 409 
Q 2359 409 2629 706 
Q 2900 1003 2900 1516 
L 2900 3500 
L 3475 3500 
L 3475 0 
L 2900 0 
L 2900 538 
Q 2691 219 2414 64 
Q 2138 -91 1772 -91 
Q 1169 -91 856 284 
Q 544 659 544 1381 
z
M 1991 3584 
L 1991 3584 
z
" transform="scale(0.015625)"/>
       <path id="DejaVuSans-3" transform="scale(0.015625)"/>
       <path id="DejaVuSans-52" d="M 1959 3097 
Q 1497 3097 1228 2736 
Q 959 2375 959 1747 
Q 959 1119 1226 758 
Q 1494 397 1959 397 
Q 2419 397 2687 759 
Q 2956 1122 2956 1747 
Q 2956 2369 2687 2733 
Q 2419 3097 1959 3097 
z
M 1959 3584 
Q 2709 3584 3137 3096 
Q 3566 2609 3566 1747 
Q 3566 888 3137 398 
Q 2709 -91 1959 -91 
Q 1206 -91 779 398 
Q 353 888 353 1747 
Q 353 2609 779 3096 
Q 1206 3584 1959 3584 
z
" transform="scale(0.015625)"/>
       <path id="DejaVuSans-56" d="M 2834 3397 
L 2834 2853 
Q 2591 2978 2328 3040 
Q 2066 3103 1784 3103 
Q 1356 3103 1142 2972 
Q 928 2841 928 2578 
Q 928 2378 1081 2264 
Q 1234 2150 1697 2047 
L 1894 2003 
Q 2506 1872 2764 1633 
Q 3022 1394 3022 966 
Q 3022 478 2636 193 
Q 2250 -91 1575 -91 
Q 1294 -91 989 -36 
Q 684 19 347 128 
L 347 722 
Q 666 556 975 473 
Q 1284 391 1588 391 
Q 1994 391 2212 530 
Q 2431 669 2431 922 
Q 2431 1156 2273 1281 
Q 2116 1406 1581 1522 
L 1381 1569 
Q 847 1681 609 1914 
Q 372 2147 372 2553 
Q 372 3047 722 3315 
Q 1072 3584 1716 3584 
Q 2034 3584 2315 3537 
Q 2597 3491 2834 3397 
z
" transform="scale(0.015625)"/>
      </defs>
      <use xlink:href="#DejaVuSans-28"/>
      <use xlink:href="#DejaVuSans-5b" transform="translate(63.1875 0)"/>
      <use xlink:href="#DejaVuSans-57" transform="translate(122.375 0)"/>
      <use xlink:href="#DejaVuSans-55" transform="translate(161.578125 0)"/>
      <use xlink:href="#DejaVuSans-44" transform="translate(202.6875 0)"/>
      <use xlink:href="#DejaVuSans-46" transform="translate(263.96875 0)"/>
      <use xlink:href="#DejaVuSans-48" transform="translate(318.953125 0)"/>
      <use xlink:href="#DejaVuSans-4f" transform="translate(380.484375 0)"/>
      <use xlink:href="#DejaVuSans-4f" transform="translate(408.265625 0)"/>
      <use xlink:href="#DejaVuSans-58" transform="translate(436.046875 0)"/>
      <use xlink:href="#DejaVuSans-4f" transform="translate(499.421875 0)"/>
      <use xlink:href="#DejaVuSans-44" transform="translate(527.203125 0)"/>
      <use xlink:href="#DejaVuSans-55" transform="translate(588.484375 0)"/>
      <use xlink:href="#DejaVuSans-3" transform="translate(629.59375 0)"/>
      <use xlink:href="#DejaVuSans-4f" transform="translate(661.375 0)"/>
      <use xlink:href="#DejaVuSans-44" transform="translate(689.15625 0)"/>
      <use xlink:href="#DejaVuSans-46" transform="translate(750.4375 0)"/>
      <use xlink:href="#DejaVuSans-57" transform="translate(805.421875 0)"/>
      <use xlink:href="#DejaVuSans-52" transform="translate(844.625 0)"/>
      <use xlink:href="#DejaVuSans-56" transform="translate(905.8125 0)"/>
      <use xlink:href="#DejaVuSans-48" transform="translate(957.90625 0)"/>
     </g>
    </g>
   </g>
   <g id="line2d_13">
    <path d="M 56.88098 98.777599 
L 155.832485 98.777599 
L 155.921246 17.566151 
L 156.586713 17.647362 
L 156.703955 17.972208 
L 156.748601 18.05342 
L 156.894243 19.515226 
L 157.012137 21.139455 
L 157.025913 21.220666 
L 157.168884 22.926107 
L 157.192344 23.007318 
L 157.697828 26.418199 
L 158.099289 27.06789 
L 158.601072 27.149102 
L 158.697566 27.555159 
L 158.937454 27.961216 
L 159.037536 28.367274 
L 159.157643 28.448485 
L 159.259999 28.935754 
L 159.289881 29.016965 
L 159.398438 29.910291 
L 159.495301 30.803617 
L 159.833104 32.184212 
L 159.878916 32.265423 
L 160.136104 33.727229 
L 160.25412 34.701766 
L 160.399445 36.00115 
L 160.410713 36.082361 
L 160.53443 37.13811 
L 160.568314 37.219321 
L 160.718191 38.193859 
L 160.748178 38.27507 
L 160.858945 38.599916 
L 160.894768 38.681127 
L 161.033061 39.087185 
L 161.087247 39.574453 
L 161.204397 40.142934 
L 161.226484 40.224145 
L 161.329108 40.467779 
L 161.373072 40.548991 
L 161.887209 42.254431 
L 162.391818 42.335643 
L 162.535322 42.822911 
L 162.558991 42.904123 
L 162.727348 43.31018 
L 162.938543 43.391391 
L 163.082534 43.959872 
L 163.229963 44.284717 
L 163.253129 44.365929 
L 163.355968 44.609563 
L 163.943151 45.908946 
L 164.054848 46.152581 
L 164.231406 46.233792 
L 164.646844 47.695598 
L 164.783686 47.77681 
L 164.918391 47.939233 
L 164.963381 48.020444 
L 165.155375 48.751347 
L 165.202102 48.832558 
L 165.287272 49.076193 
L 165.438226 49.401039 
L 165.478278 49.48225 
L 165.529578 49.563462 
L 165.766995 49.644673 
L 165.881087 50.05073 
L 166.02929 50.456787 
L 166.114413 50.537999 
L 166.235286 50.944056 
L 166.460767 51.268902 
L 166.539578 51.350113 
L 166.85562 53.217977 
L 166.885929 53.299188 
L 166.998108 53.624034 
L 167.047087 53.705245 
L 167.259894 54.192514 
L 167.339181 54.273725 
L 167.612466 54.923417 
L 167.887497 56.466435 
L 167.943115 56.547646 
L 168.059085 57.034915 
L 168.224132 57.359761 
L 168.369313 57.440972 
L 168.463341 57.603395 
L 168.554534 57.684606 
L 168.660234 57.847029 
L 168.788369 58.009452 
L 168.93503 58.090664 
L 169.003013 58.171875 
L 169.411377 58.253086 
L 169.824975 58.659144 
L 170.35064 58.740355 
L 171.146829 60.770641 
L 171.271233 61.095487 
L 171.348166 61.339121 
L 172.266613 66.942711 
L 172.654127 67.023923 
L 172.775792 67.511192 
L 172.842609 67.592403 
L 173.028753 68.404517 
L 173.826098 70.516015 
L 173.88677 70.597227 
L 173.986697 70.840861 
L 174.116875 70.922072 
L 174.22013 71.165707 
L 174.478459 71.246918 
L 174.585423 71.490552 
L 174.952897 71.571764 
L 175.022231 71.652975 
L 175.550628 71.734187 
L 175.664916 71.977821 
L 175.692085 72.059033 
L 175.828936 72.627513 
L 176.067968 72.708724 
L 176.150283 72.871147 
L 176.484534 73.277204 
L 176.703867 73.358416 
L 176.806784 73.845684 
L 176.94249 73.926896 
L 177.176332 74.820222 
L 177.197249 74.901433 
L 177.307893 75.632336 
L 177.3354 75.713548 
L 177.448856 76.119605 
L 177.945273 78.799583 
L 177.978937 78.880794 
L 178.105805 79.124429 
L 178.376954 79.20564 
L 178.611241 79.449274 
L 178.795864 79.530486 
L 178.939951 80.098966 
L 179.017083 80.180177 
L 179.164006 80.423812 
L 179.208301 80.505023 
L 179.381289 80.829869 
L 179.448965 80.91108 
L 179.554036 80.992292 
L 179.735036 81.073503 
L 179.982157 81.398349 
L 180.595925 81.479561 
L 180.67874 81.560772 
L 180.78573 81.641984 
L 180.87675 81.723195 
L 182.385176 81.804406 
L 182.946782 82.860155 
L 183.081358 82.941367 
L 183.344091 83.266212 
L 183.45434 83.591058 
L 183.492977 83.67227 
L 183.657355 83.997115 
L 184.049249 84.646807 
L 184.162819 85.296499 
L 184.290299 85.37771 
L 184.422907 85.540133 
L 184.931072 85.621344 
L 185.045684 85.702556 
L 186.642319 85.783767 
L 186.704326 85.864979 
L 186.899314 85.94619 
L 187.316999 86.189825 
L 187.427723 86.352247 
L 187.622458 86.433459 
L 187.700223 86.595882 
L 187.844985 86.677093 
L 187.957971 86.920728 
L 188.340015 87.732842 
L 188.508737 87.814054 
L 188.736763 88.301322 
L 188.99982 88.382534 
L 189.106547 88.463745 
L 190.171616 88.544957 
L 190.816867 88.951014 
L 191.032133 89.194648 
L 191.137151 89.600705 
L 191.393845 89.681917 
L 191.627129 90.006763 
L 191.738798 90.087974 
L 191.864495 90.250397 
L 191.975272 90.331608 
L 192.096389 90.494031 
L 192.377133 90.656454 
L 192.57414 90.737666 
L 192.72494 90.818877 
L 192.944825 90.900089 
L 193.592893 90.9813 
L 193.7465 91.143723 
L 194.152399 91.224934 
L 194.208965 91.306146 
L 195.099961 91.387357 
L 195.222271 91.54978 
L 196.638564 91.630992 
L 197.479655 91.955837 
L 197.999547 92.037049 
L 198.16672 92.199472 
L 199.18245 92.280683 
L 199.269771 92.361895 
L 199.783148 92.443106 
L 200.01198 92.524318 
L 200.507679 92.605529 
L 200.666704 92.767952 
L 201.183125 92.849163 
L 201.188749 92.930375 
L 201.990845 93.255221 
L 212.782123 93.336432 
L 213.127481 93.580066 
L 214.678531 93.904912 
L 238.561014 93.986124 
L 239.231425 94.067335 
L 243.423916 94.148547 
L 243.55342 94.473392 
L 244.157444 94.554604 
L 244.312543 94.635815 
L 244.7868 94.717027 
L 245.089638 94.960661 
L 245.543959 95.041872 
L 245.67034 95.123084 
L 245.83033 95.204295 
L 246.995747 95.285507 
L 247.07391 95.366718 
L 247.949008 95.44793 
L 248.476795 95.529141 
L 249.784109 95.610353 
L 249.913213 95.691564 
L 250.769545 95.772775 
L 250.95052 95.853987 
L 253.929182 95.935198 
L 254.258122 96.01641 
L 259.688189 96.422467 
L 259.746631 96.58489 
L 260.342466 96.747313 
L 262.009234 96.828524 
L 262.366096 96.909736 
L 263.031926 96.990947 
L 263.264974 97.397004 
L 263.74952 97.478216 
L 263.869015 97.559427 
L 264.760276 97.640639 
L 264.815367 97.72185 
L 267.204192 97.803062 
L 267.276237 97.884273 
L 267.591513 97.965485 
L 275.955786 98.046696 
L 276.062162 98.127907 
L 280.996707 98.209119 
L 281.596738 98.29033 
L 312.422447 98.29033 
L 312.422447 98.29033 
" clip-path="url(#p4c2b39653b)" style="fill: none; stroke: #000000; stroke-width: 1.5; stroke-linecap: square"/>
   </g>
   <g id="patch_3">
    <path d="M 44.103906 102.838171 
L 44.103906 13.505579 
" style="fill: none; stroke: #000000; stroke-width: 0.8; stroke-linejoin: miter; stroke-linecap: square"/>
   </g>
   <g id="patch_4">
    <path d="M 325.19952 102.838171 
L 325.19952 13.505579 
" style="fill: none; stroke: #000000; stroke-width: 0.8; stroke-linejoin: miter; stroke-linecap: square"/>
   </g>
   <g id="patch_5">
    <path d="M 44.103906 102.838171 
L 325.19952 102.838171 
" style="fill: none; stroke: #000000; stroke-width: 0.8; stroke-linejoin: miter; stroke-linecap: square"/>
   </g>
   <g id="patch_6">
    <path d="M 44.103906 13.505579 
L 325.19952 13.505579 
" style="fill: none; stroke: #000000; stroke-width: 0.8; stroke-linejoin: miter; stroke-linecap: square"/>
   </g>
  </g>
  <g id="axes_2">
   <g id="patch_7">
    <path d="M 44.103906 201.671244 
L 325.19952 201.671244 
L 325.19952 112.338651 
L 44.103906 112.338651 
z
" style="fill: #ffffff"/>
   </g>
   <g id="matplotlib.axis_3">
    <g id="xtick_10">
     <g id="line2d_14">
      <g>
       <use xlink:href="#m6b51fbde34" x="56.88098" y="201.671244" style="stroke: #000000; stroke-width: 0.8"/>
      </g>
     </g>
    </g>
    <g id="xtick_11">
     <g id="line2d_15">
      <g>
       <use xlink:href="#m6b51fbde34" x="88.69109" y="201.671244" style="stroke: #000000; stroke-width: 0.8"/>
      </g>
     </g>
    </g>
    <g id="xtick_12">
     <g id="line2d_16">
      <g>
       <use xlink:href="#m6b51fbde34" x="120.501201" y="201.671244" style="stroke: #000000; stroke-width: 0.8"/>
      </g>
     </g>
    </g>
    <g id="xtick_13">
     <g id="line2d_17">
      <g>
       <use xlink:href="#m6b51fbde34" x="152.311312" y="201.671244" style="stroke: #000000; stroke-width: 0.8"/>
      </g>
     </g>
    </g>
    <g id="xtick_14">
     <g id="line2d_18">
      <g>
       <use xlink:href="#m6b51fbde34" x="184.121423" y="201.671244" style="stroke: #000000; stroke-width: 0.8"/>
      </g>
     </g>
    </g>
    <g id="xtick_15">
     <g id="line2d_19">
      <g>
       <use xlink:href="#m6b51fbde34" x="215.931533" y="201.671244" style="stroke: #000000; stroke-width: 0.8"/>
      </g>
     </g>
    </g>
    <g id="xtick_16">
     <g id="line2d_20">
      <g>
       <use xlink:href="#m6b51fbde34" x="247.741644" y="201.671244" style="stroke: #000000; stroke-width: 0.8"/>
      </g>
     </g>
    </g>
    <g id="xtick_17">
     <g id="line2d_21">
      <g>
       <use xlink:href="#m6b51fbde34" x="279.551755" y="201.671244" style="stroke: #000000; stroke-width: 0.8"/>
      </g>
     </g>
    </g>
    <g id="xtick_18">
     <g id="line2d_22">
      <g>
       <use xlink:href="#m6b51fbde34" x="311.361866" y="201.671244" style="stroke: #000000; stroke-width: 0.8"/>
      </g>
     </g>
    </g>
   </g>
   <g id="matplotlib.axis_4">
    <g id="ytick_4">
     <g id="line2d_23">
      <g>
       <use xlink:href="#m1147ee157c" x="44.103906" y="197.610672" style="stroke: #000000; stroke-width: 0.8"/>
      </g>
     </g>
     <g id="text_5">
      <!-- 0 -->
      <g transform="translate(30.741406 201.4095) scale(0.1 -0.1)">
       <use xlink:href="#DejaVuSans-13"/>
      </g>
     </g>
    </g>
    <g id="ytick_5">
     <g id="line2d_24">
      <g>
       <use xlink:href="#m1147ee157c" x="44.103906" y="157.004948" style="stroke: #000000; stroke-width: 0.8"/>
      </g>
     </g>
     <g id="text_6">
      <!-- 5 -->
      <g transform="translate(30.741406 160.803776) scale(0.1 -0.1)">
       <use xlink:href="#DejaVuSans-18"/>
      </g>
     </g>
    </g>
    <g id="ytick_6">
     <g id="line2d_25">
      <g>
       <use xlink:href="#m1147ee157c" x="44.103906" y="116.399224" style="stroke: #000000; stroke-width: 0.8"/>
      </g>
     </g>
     <g id="text_7">
      <!-- 10 -->
      <g transform="translate(24.378906 120.198052) scale(0.1 -0.1)">
       <use xlink:href="#DejaVuSans-14"/>
       <use xlink:href="#DejaVuSans-13" transform="translate(63.625 0)"/>
      </g>
     </g>
    </g>
    <g id="text_8">
     <!-- LacY -->
     <g transform="translate(17.976563 168.658073) rotate(-90) scale(0.1 -0.1)">
      <defs>
       <path id="DejaVuSans-2f" d="M 628 4666 
L 1259 4666 
L 1259 531 
L 3531 531 
L 3531 0 
L 628 0 
L 628 4666 
z
" transform="scale(0.015625)"/>
       <path id="DejaVuSans-3c" d="M -13 4666 
L 666 4666 
L 1959 2747 
L 3244 4666 
L 3922 4666 
L 2272 2222 
L 2272 0 
L 1638 0 
L 1638 2222 
L -13 4666 
z
" transform="scale(0.015625)"/>
      </defs>
      <use xlink:href="#DejaVuSans-2f"/>
      <use xlink:href="#DejaVuSans-44" transform="translate(55.71875 0)"/>
      <use xlink:href="#DejaVuSans-46" transform="translate(117 0)"/>
      <use xlink:href="#DejaVuSans-3c" transform="translate(171.984375 0)"/>
     </g>
    </g>
   </g>
   <g id="line2d_26">
    <path d="M 56.88098 116.399224 
L 56.90802 116.399224 
L 56.962339 124.520369 
L 57.070157 140.762658 
L 57.130305 148.883803 
L 57.281922 148.883803 
L 57.299561 140.762658 
L 57.51944 148.883803 
L 57.660848 148.883803 
L 57.830949 165.126093 
L 58.130881 181.368382 
L 58.196289 197.610672 
L 59.721353 197.610672 
L 59.887437 189.489527 
L 59.930041 197.610672 
L 64.936443 197.610672 
L 65.258359 189.489527 
L 65.367959 197.610672 
L 82.807814 197.610672 
L 83.001596 189.489527 
L 84.789138 197.610672 
L 84.803916 189.489527 
L 84.946661 181.368382 
L 84.951301 173.247238 
L 85.272426 181.368382 
L 85.498659 181.368382 
L 85.617907 197.610672 
L 85.678532 189.489527 
L 85.868147 189.489527 
L 86.006187 197.610672 
L 89.885893 197.610672 
L 90.274438 181.368382 
L 90.275734 173.247238 
L 90.772767 173.247238 
L 90.811311 189.489527 
L 91.580971 189.489527 
L 91.749352 181.368382 
L 92.092535 197.610672 
L 109.043011 197.610672 
L 109.148368 189.489527 
L 109.267691 189.489527 
L 109.406337 197.610672 
L 109.640584 197.610672 
L 109.681935 189.489527 
L 110.096562 189.489527 
L 110.445367 181.368382 
L 110.503528 189.489527 
L 110.678234 189.489527 
L 110.707718 197.610672 
L 119.439356 197.610672 
L 119.617214 189.489527 
L 121.710809 189.489527 
L 123.552427 197.610672 
L 131.295851 197.610672 
L 131.481529 189.489527 
L 131.76818 189.489527 
L 131.875616 197.610672 
L 136.197715 197.610672 
L 136.28118 189.489527 
L 136.302977 197.610672 
L 146.264083 197.610672 
L 146.524104 181.368382 
L 146.54487 189.489527 
L 146.573786 181.368382 
L 146.68654 173.247238 
L 146.691864 181.368382 
L 147.274762 181.368382 
L 147.889995 189.489527 
L 148.134554 189.489527 
L 148.448824 181.368382 
L 148.561352 181.368382 
L 149.629889 197.610672 
L 150.088611 197.610672 
L 150.140329 181.368382 
L 150.240886 181.368382 
L 150.393238 189.489527 
L 150.526536 189.489527 
L 151.067735 197.610672 
L 156.170082 197.610672 
L 156.597018 189.489527 
L 156.836555 157.004948 
L 157.117309 157.004948 
L 157.237039 173.247238 
L 157.28675 173.247238 
L 157.387334 165.126093 
L 157.474038 165.126093 
L 157.585803 181.368382 
L 157.603591 181.368382 
L 157.697828 189.489527 
L 158.058836 189.489527 
L 158.152179 197.610672 
L 158.550617 197.610672 
L 158.669174 189.489527 
L 158.817318 189.489527 
L 158.921101 181.368382 
L 159.066624 181.368382 
L 159.121932 189.489527 
L 159.176255 181.368382 
L 159.28214 181.368382 
L 159.386098 173.247238 
L 159.545639 173.247238 
L 159.670165 189.489527 
L 159.803948 189.489527 
L 159.926644 181.368382 
L 160.075281 181.368382 
L 160.202865 165.126093 
L 160.379445 165.126093 
L 160.447967 157.004948 
L 160.49036 165.126093 
L 160.574146 165.126093 
L 160.624544 157.004948 
L 160.676991 165.126093 
L 160.845138 165.126093 
L 160.953904 181.368382 
L 160.982762 181.368382 
L 161.013194 189.489527 
L 161.021548 173.247238 
L 161.089344 173.247238 
L 161.323713 173.247238 
L 161.435427 181.368382 
L 161.721854 181.368382 
L 161.821641 189.489527 
L 161.921199 189.489527 
L 162.031585 197.610672 
L 162.30384 197.610672 
L 162.452202 189.489527 
L 162.575375 189.489527 
L 162.690247 181.368382 
L 162.727348 181.368382 
L 162.836154 189.489527 
L 163.078955 189.489527 
L 163.131811 181.368382 
L 163.184817 189.489527 
L 163.525075 189.489527 
L 163.613431 181.368382 
L 163.629097 189.489527 
L 163.709789 189.489527 
L 163.818638 181.368382 
L 163.998247 181.368382 
L 164.079264 189.489527 
L 164.171933 189.489527 
L 164.332468 181.368382 
L 164.398333 181.368382 
L 164.530471 189.489527 
L 164.616549 189.489527 
L 164.705191 181.368382 
L 164.937681 181.368382 
L 165.055675 173.247238 
L 165.092898 173.247238 
L 165.202102 189.489527 
L 165.795826 189.489527 
L 165.910949 181.368382 
L 166.204548 181.368382 
L 166.338688 189.489527 
L 166.460767 189.489527 
L 166.720105 165.126093 
L 166.727229 165.126093 
L 166.84066 173.247238 
L 166.859234 173.247238 
L 166.969062 181.368382 
L 167.033095 181.368382 
L 167.139723 189.489527 
L 167.492578 189.489527 
L 167.663983 173.247238 
L 167.874809 173.247238 
L 167.992941 181.368382 
L 168.325255 181.368382 
L 168.401445 189.489527 
L 168.434244 181.368382 
L 168.621006 181.368382 
L 168.727786 189.489527 
L 168.879073 189.489527 
L 168.991906 197.610672 
L 169.267469 197.610672 
L 169.468893 189.489527 
L 169.620311 189.489527 
L 169.674106 197.610672 
L 169.725611 189.489527 
L 169.824975 189.489527 
L 169.921868 197.610672 
L 169.988232 197.610672 
L 170.084617 189.489527 
L 170.183459 197.610672 
L 170.269137 189.489527 
L 170.502742 189.489527 
L 170.624114 181.368382 
L 171.039111 181.368382 
L 171.150987 165.126093 
L 171.366987 165.126093 
L 171.441143 157.004948 
L 171.463454 165.126093 
L 171.481914 165.126093 
L 171.593468 157.004948 
L 171.891456 157.004948 
L 171.948413 148.883803 
L 171.979582 157.004948 
L 172.081292 157.004948 
L 172.1993 173.247238 
L 172.266613 173.247238 
L 172.434359 189.489527 
L 172.626628 189.489527 
L 172.800134 165.126093 
L 172.87556 173.247238 
L 172.90092 165.126093 
L 172.925967 165.126093 
L 172.991908 157.004948 
L 173.028753 165.126093 
L 173.100012 165.126093 
L 173.212401 173.247238 
L 173.243828 173.247238 
L 173.292353 165.126093 
L 173.337851 173.247238 
L 173.371112 173.247238 
L 173.389017 181.368382 
L 173.475096 173.247238 
L 173.730235 173.247238 
L 173.826098 181.368382 
L 174.0677 181.368382 
L 174.177229 189.489527 
L 174.243153 189.489527 
L 174.27197 173.247238 
L 174.348297 189.489527 
L 174.99005 189.489527 
L 175.080331 197.610672 
L 175.38882 197.610672 
L 175.552705 189.489527 
L 175.606801 189.489527 
L 175.747349 165.126093 
L 175.810832 165.126093 
L 175.920998 173.247238 
L 176.138006 173.247238 
L 176.249698 181.368382 
L 176.35898 181.368382 
L 176.471149 189.489527 
L 176.569219 189.489527 
L 176.691957 181.368382 
L 176.786305 181.368382 
L 176.892154 173.247238 
L 177.04079 173.247238 
L 177.143799 157.004948 
L 177.176332 157.004948 
L 177.248965 148.883803 
L 177.286868 157.004948 
L 177.307893 157.004948 
L 177.428729 165.126093 
L 177.438602 165.126093 
L 177.54367 157.004948 
L 177.622717 157.004948 
L 177.730887 148.883803 
L 177.896153 148.883803 
L 178.002985 173.247238 
L 178.105805 173.247238 
L 178.215418 189.489527 
L 178.452524 181.368382 
L 178.552734 189.489527 
L 178.802783 189.489527 
L 178.939951 181.368382 
L 179.274911 181.368382 
L 179.336332 173.247238 
L 179.38549 181.368382 
L 179.400428 189.489527 
L 179.474347 181.368382 
L 179.597315 181.368382 
L 179.735036 189.489527 
L 179.817862 189.489527 
L 179.915724 181.368382 
L 179.982157 181.368382 
L 180.208078 189.489527 
L 180.298375 181.368382 
L 180.312607 189.489527 
L 180.394075 197.610672 
L 180.39874 189.489527 
L 180.452943 189.489527 
L 180.604908 181.368382 
L 180.85501 181.368382 
L 181.007383 197.610672 
L 181.640146 197.610672 
L 181.751265 181.368382 
L 182.015455 197.610672 
L 182.24432 197.610672 
L 182.469447 181.368382 
L 182.758611 181.368382 
L 182.888204 173.247238 
L 183.063311 173.247238 
L 183.181629 165.126093 
L 183.299651 165.126093 
L 183.391061 157.004948 
L 183.403283 165.126093 
L 183.525272 157.004948 
L 183.607645 157.004948 
L 183.728256 165.126093 
L 183.855807 165.126093 
L 183.939659 173.247238 
L 183.966537 165.126093 
L 184.095411 157.004948 
L 184.240932 157.004948 
L 184.39628 181.368382 
L 184.422907 181.368382 
L 184.526746 189.489527 
L 184.577196 189.489527 
L 184.695104 181.368382 
L 184.812664 181.368382 
L 184.931072 189.489527 
L 184.982934 189.489527 
L 185.045684 197.610672 
L 186.48571 197.610672 
L 186.704326 181.368382 
L 187.199086 181.368382 
L 187.332138 165.126093 
L 187.538806 165.126093 
L 187.540944 173.247238 
L 187.62361 165.126093 
L 187.820961 165.126093 
L 187.929113 157.004948 
L 188.398541 157.004948 
L 188.539229 165.126093 
L 188.544098 157.004948 
L 188.579 173.247238 
L 188.597251 173.247238 
L 188.707441 173.247238 
L 188.784193 181.368382 
L 188.791244 173.247238 
L 188.891276 173.247238 
L 189.015983 181.368382 
L 189.24324 181.368382 
L 189.262753 189.489527 
L 189.721927 189.489527 
L 189.770047 181.368382 
L 189.956919 189.489527 
L 190.171616 181.368382 
L 190.34302 181.368382 
L 190.383465 189.489527 
L 190.603616 189.489527 
L 190.816867 165.126093 
L 191.339468 165.126093 
L 191.438678 173.247238 
L 191.543929 173.247238 
L 191.576083 181.368382 
L 191.627129 173.247238 
L 191.706697 173.247238 
L 191.821457 165.126093 
L 191.859407 165.126093 
L 191.902293 157.004948 
L 191.946589 173.247238 
L 192.203925 173.247238 
L 192.303854 181.368382 
L 192.473234 173.247238 
L 192.501553 173.247238 
L 192.524815 165.126093 
L 192.607399 173.247238 
L 192.72494 189.489527 
L 193.307666 189.489527 
L 193.431224 181.368382 
L 193.493953 189.489527 
L 193.51138 181.368382 
L 193.733071 181.368382 
L 193.78685 173.247238 
L 193.787317 181.368382 
L 193.93194 181.368382 
L 193.943028 173.247238 
L 193.988677 181.368382 
L 194.148419 181.368382 
L 194.208965 189.489527 
L 194.414502 189.489527 
L 194.537323 197.610672 
L 194.706668 189.489527 
L 195.892544 189.489527 
L 196.019597 181.368382 
L 196.125331 189.489527 
L 196.366068 189.489527 
L 196.372099 197.610672 
L 196.460626 189.489527 
L 196.638564 181.368382 
L 196.817532 181.368382 
L 196.898219 189.489527 
L 196.960689 189.489527 
L 197.10664 173.247238 
L 197.145143 173.247238 
L 197.293951 181.368382 
L 197.393347 181.368382 
L 197.417742 173.247238 
L 197.479655 181.368382 
L 197.807803 189.489527 
L 197.934232 173.247238 
L 198.16672 173.247238 
L 198.318737 189.489527 
L 198.757587 189.489527 
L 198.797543 197.610672 
L 198.974114 197.610672 
L 199.269771 189.489527 
L 199.579181 189.489527 
L 199.783148 181.368382 
L 199.934455 181.368382 
L 200.01198 173.247238 
L 200.204405 181.368382 
L 200.220244 189.489527 
L 200.507679 181.368382 
L 200.666704 181.368382 
L 200.793803 189.489527 
L 200.82052 181.368382 
L 200.822544 189.489527 
L 200.925858 189.489527 
L 201.094003 173.247238 
L 201.129189 181.368382 
L 201.188749 173.247238 
L 201.336201 173.247238 
L 201.364977 165.126093 
L 201.43942 173.247238 
L 201.57436 173.247238 
L 201.669143 181.368382 
L 201.782863 181.368382 
L 201.852717 173.247238 
L 201.990845 181.368382 
L 202.231298 181.368382 
L 202.480781 197.610672 
L 207.697947 197.610672 
L 207.853768 189.489527 
L 208.175278 197.610672 
L 212.167832 197.610672 
L 212.657324 189.489527 
L 214.604397 189.489527 
L 214.678531 197.610672 
L 237.269713 197.610672 
L 237.396118 181.368382 
L 237.542538 189.489527 
L 238.941625 189.489527 
L 239.025977 197.610672 
L 243.207673 197.610672 
L 243.407248 181.368382 
L 243.430951 189.489527 
L 243.496963 173.247238 
L 243.499013 173.247238 
L 243.590162 173.247238 
L 243.694448 181.368382 
L 243.930689 181.368382 
L 243.963771 173.247238 
L 243.965525 181.368382 
L 244.089779 173.247238 
L 244.312543 189.489527 
L 244.363796 189.489527 
L 244.538617 173.247238 
L 244.843514 165.126093 
L 244.899728 165.126093 
L 244.970613 148.883803 
L 245.049745 148.883803 
L 245.142091 140.762658 
L 245.166469 140.762658 
L 245.183174 157.004948 
L 245.266404 140.762658 
L 245.407874 157.004948 
L 245.537805 157.004948 
L 245.637501 148.883803 
L 245.719123 148.883803 
L 245.83033 157.004948 
L 245.987375 173.247238 
L 246.080883 189.489527 
L 246.126016 181.368382 
L 246.178671 181.368382 
L 246.236513 189.489527 
L 246.329386 181.368382 
L 246.338552 189.489527 
L 246.40726 189.489527 
L 246.420308 173.247238 
L 246.513659 181.368382 
L 246.7307 181.368382 
L 246.819088 173.247238 
L 246.88437 173.247238 
L 247.234697 197.610672 
L 247.393548 181.368382 
L 247.640642 181.368382 
L 247.751643 173.247238 
L 247.907061 181.368382 
L 247.949008 189.489527 
L 249.165713 189.489527 
L 249.276991 181.368382 
L 249.654857 173.247238 
L 249.806565 181.368382 
L 249.913213 173.247238 
L 250.024819 181.368382 
L 250.178428 189.489527 
L 250.273024 189.489527 
L 250.407594 181.368382 
L 250.534079 197.610672 
L 250.624022 189.489527 
L 250.933026 189.489527 
L 251.058619 173.247238 
L 251.215871 181.368382 
L 251.288403 181.368382 
L 251.370657 189.489527 
L 251.581099 197.610672 
L 251.640512 189.489527 
L 251.988144 189.489527 
L 252.025759 197.610672 
L 252.653497 189.489527 
L 253.621631 189.489527 
L 253.658575 197.610672 
L 253.712216 189.489527 
L 253.768476 181.368382 
L 253.784487 189.489527 
L 255.892676 189.489527 
L 256.036589 197.610672 
L 257.025907 197.610672 
L 257.338968 189.489527 
L 257.496686 197.610672 
L 257.777935 189.489527 
L 258.501229 189.489527 
L 258.601222 173.247238 
L 258.635713 165.126093 
L 258.820138 173.247238 
L 258.908611 165.126093 
L 259.021226 165.126093 
L 259.038316 157.004948 
L 259.129873 165.126093 
L 259.140494 165.126093 
L 259.188882 173.247238 
L 259.33772 165.126093 
L 259.620844 165.126093 
L 259.746631 173.247238 
L 259.948278 173.247238 
L 259.973185 165.126093 
L 260.027671 173.247238 
L 260.082308 173.247238 
L 260.132617 181.368382 
L 260.342466 181.368382 
L 260.421598 173.247238 
L 260.427067 181.368382 
L 260.519221 181.368382 
L 260.521682 189.489527 
L 260.731487 181.368382 
L 260.901191 181.368382 
L 260.957201 189.489527 
L 261.330716 189.489527 
L 261.496379 197.610672 
L 261.592524 189.489527 
L 261.757869 189.489527 
L 261.888525 181.368382 
L 261.947168 189.489527 
L 261.997424 181.368382 
L 262.178072 181.368382 
L 262.366096 173.247238 
L 262.443642 173.247238 
L 262.50484 181.368382 
L 262.738466 181.368382 
L 262.797959 173.247238 
L 262.835265 181.368382 
L 263.003987 165.126093 
L 263.113153 148.883803 
L 263.23281 148.883803 
L 263.301542 173.247238 
L 263.369003 165.126093 
L 263.556275 165.126093 
L 263.568761 157.004948 
L 263.636548 165.126093 
L 263.777364 165.126093 
L 263.907313 173.247238 
L 263.973234 173.247238 
L 264.00753 181.368382 
L 264.190968 165.126093 
L 264.292894 181.368382 
L 264.417009 173.247238 
L 264.491348 181.368382 
L 264.625292 181.368382 
L 264.764216 173.247238 
L 264.815367 181.368382 
L 265.123931 189.489527 
L 265.264039 181.368382 
L 265.444312 189.489527 
L 265.519537 197.610672 
L 265.733906 189.489527 
L 265.795157 189.489527 
L 266.17074 181.368382 
L 266.215122 173.247238 
L 266.241163 181.368382 
L 266.373571 189.489527 
L 266.465297 181.368382 
L 266.700651 181.368382 
L 266.849365 189.489527 
L 266.959058 181.368382 
L 267.070742 189.489527 
L 267.206673 165.126093 
L 267.400852 165.126093 
L 267.479903 157.004948 
L 267.591513 165.126093 
L 267.7754 173.247238 
L 267.836161 165.126093 
L 268.019202 165.126093 
L 268.135225 173.247238 
L 268.201075 189.489527 
L 268.247357 181.368382 
L 268.446322 181.368382 
L 268.522643 189.489527 
L 268.533542 181.368382 
L 268.654409 181.368382 
L 268.751042 173.247238 
L 268.943566 181.368382 
L 269.028905 181.368382 
L 269.032884 173.247238 
L 269.315034 173.247238 
L 269.748224 189.489527 
L 269.769271 197.610672 
L 272.260876 197.610672 
L 272.374724 189.489527 
L 272.562473 189.489527 
L 272.646179 181.368382 
L 272.805887 173.247238 
L 272.826753 181.368382 
L 272.997077 189.489527 
L 273.162432 189.489527 
L 273.431273 181.368382 
L 273.574145 165.126093 
L 273.616269 165.126093 
L 273.727125 157.004948 
L 273.728872 165.126093 
L 273.791496 157.004948 
L 273.875268 165.126093 
L 274.148063 157.004948 
L 274.210811 173.247238 
L 274.220293 165.126093 
L 274.296676 173.247238 
L 274.557278 173.247238 
L 274.878216 181.368382 
L 275.062478 181.368382 
L 275.134196 189.489527 
L 275.183371 181.368382 
L 275.414347 181.368382 
L 275.495339 173.247238 
L 275.52717 181.368382 
L 275.697392 173.247238 
L 275.842119 173.247238 
L 275.903126 165.126093 
L 275.989274 173.247238 
L 276.062162 165.126093 
L 276.143142 165.126093 
L 276.162088 181.368382 
L 276.330425 181.368382 
L 276.371311 189.489527 
L 276.71237 189.489527 
L 276.900366 197.610672 
L 278.377325 197.610672 
L 278.453012 189.489527 
L 278.691808 173.247238 
L 278.867145 173.247238 
L 278.971907 181.368382 
L 279.042379 181.368382 
L 279.155776 189.489527 
L 279.428998 181.368382 
L 279.571593 189.489527 
L 279.772722 181.368382 
L 279.900034 189.489527 
L 279.955157 189.489527 
L 280.151435 181.368382 
L 280.244472 173.247238 
L 280.450414 181.368382 
L 280.733678 181.368382 
L 280.996707 189.489527 
L 281.570555 189.489527 
L 281.596738 197.610672 
L 291.379231 197.610672 
L 291.382278 189.489527 
L 291.411533 197.610672 
L 291.689704 189.489527 
L 291.891144 197.610672 
L 292.463817 197.610672 
L 292.678583 181.368382 
L 292.697054 181.368382 
L 292.739817 189.489527 
L 292.840043 197.610672 
L 299.430731 197.610672 
L 299.589303 189.489527 
L 299.606455 197.610672 
L 312.422447 197.610672 
L 312.422447 197.610672 
" clip-path="url(#p885ef09076)" style="fill: none; stroke: #000000; stroke-width: 1.5; stroke-linecap: square"/>
   </g>
   <g id="patch_8">
    <path d="M 44.103906 201.671244 
L 44.103906 112.338651 
" style="fill: none; stroke: #000000; stroke-width: 0.8; stroke-linejoin: miter; stroke-linecap: square"/>
   </g>
   <g id="patch_9">
    <path d="M 325.19952 201.671244 
L 325.19952 112.338651 
" style="fill: none; stroke: #000000; stroke-width: 0.8; stroke-linejoin: miter; stroke-linecap: square"/>
   </g>
   <g id="patch_10">
    <path d="M 44.103906 201.671244 
L 325.19952 201.671244 
" style="fill: none; stroke: #000000; stroke-width: 0.8; stroke-linejoin: miter; stroke-linecap: square"/>
   </g>
   <g id="patch_11">
    <path d="M 44.103906 112.338651 
L 325.19952 112.338651 
" style="fill: none; stroke: #000000; stroke-width: 0.8; stroke-linejoin: miter; stroke-linecap: square"/>
   </g>
  </g>
  <g id="axes_3">
   <g id="patch_12">
    <path d="M 44.103906 300.504317 
L 325.19952 300.504317 
L 325.19952 211.171724 
L 44.103906 211.171724 
z
" style="fill: #ffffff"/>
   </g>
   <g id="matplotlib.axis_5">
    <g id="xtick_19">
     <g id="line2d_27">
      <g>
       <use xlink:href="#m6b51fbde34" x="56.88098" y="300.504317" style="stroke: #000000; stroke-width: 0.8"/>
      </g>
     </g>
     <g id="text_9">
      <!-- 0 -->
      <g transform="translate(53.69973 315.101974) scale(0.1 -0.1)">
       <use xlink:href="#DejaVuSans-13"/>
      </g>
     </g>
    </g>
    <g id="xtick_20">
     <g id="line2d_28">
      <g>
       <use xlink:href="#m6b51fbde34" x="88.69109" y="300.504317" style="stroke: #000000; stroke-width: 0.8"/>
      </g>
     </g>
     <g id="text_10">
      <!-- 100 -->
      <g transform="translate(79.14734 315.101974) scale(0.1 -0.1)">
       <use xlink:href="#DejaVuSans-14"/>
       <use xlink:href="#DejaVuSans-13" transform="translate(63.625 0)"/>
       <use xlink:href="#DejaVuSans-13" transform="translate(127.25 0)"/>
      </g>
     </g>
    </g>
    <g id="xtick_21">
     <g id="line2d_29">
      <g>
       <use xlink:href="#m6b51fbde34" x="120.501201" y="300.504317" style="stroke: #000000; stroke-width: 0.8"/>
      </g>
     </g>
     <g id="text_11">
      <!-- 200 -->
      <g transform="translate(110.957451 315.101974) scale(0.1 -0.1)">
       <defs>
        <path id="DejaVuSans-15" d="M 1228 531 
L 3431 531 
L 3431 0 
L 469 0 
L 469 531 
Q 828 903 1448 1529 
Q 2069 2156 2228 2338 
Q 2531 2678 2651 2914 
Q 2772 3150 2772 3378 
Q 2772 3750 2511 3984 
Q 2250 4219 1831 4219 
Q 1534 4219 1204 4116 
Q 875 4013 500 3803 
L 500 4441 
Q 881 4594 1212 4672 
Q 1544 4750 1819 4750 
Q 2544 4750 2975 4387 
Q 3406 4025 3406 3419 
Q 3406 3131 3298 2873 
Q 3191 2616 2906 2266 
Q 2828 2175 2409 1742 
Q 1991 1309 1228 531 
z
" transform="scale(0.015625)"/>
       </defs>
       <use xlink:href="#DejaVuSans-15"/>
       <use xlink:href="#DejaVuSans-13" transform="translate(63.625 0)"/>
       <use xlink:href="#DejaVuSans-13" transform="translate(127.25 0)"/>
      </g>
     </g>
    </g>
    <g id="xtick_22">
     <g id="line2d_30">
      <g>
       <use xlink:href="#m6b51fbde34" x="152.311312" y="300.504317" style="stroke: #000000; stroke-width: 0.8"/>
      </g>
     </g>
     <g id="text_12">
      <!-- 300 -->
      <g transform="translate(142.767562 315.101974) scale(0.1 -0.1)">
       <defs>
        <path id="DejaVuSans-16" d="M 2597 2516 
Q 3050 2419 3304 2112 
Q 3559 1806 3559 1356 
Q 3559 666 3084 287 
Q 2609 -91 1734 -91 
Q 1441 -91 1130 -33 
Q 819 25 488 141 
L 488 750 
Q 750 597 1062 519 
Q 1375 441 1716 441 
Q 2309 441 2620 675 
Q 2931 909 2931 1356 
Q 2931 1769 2642 2001 
Q 2353 2234 1838 2234 
L 1294 2234 
L 1294 2753 
L 1863 2753 
Q 2328 2753 2575 2939 
Q 2822 3125 2822 3475 
Q 2822 3834 2567 4026 
Q 2313 4219 1838 4219 
Q 1578 4219 1281 4162 
Q 984 4106 628 3988 
L 628 4550 
Q 988 4650 1302 4700 
Q 1616 4750 1894 4750 
Q 2613 4750 3031 4423 
Q 3450 4097 3450 3541 
Q 3450 3153 3228 2886 
Q 3006 2619 2597 2516 
z
" transform="scale(0.015625)"/>
       </defs>
       <use xlink:href="#DejaVuSans-16"/>
       <use xlink:href="#DejaVuSans-13" transform="translate(63.625 0)"/>
       <use xlink:href="#DejaVuSans-13" transform="translate(127.25 0)"/>
      </g>
     </g>
    </g>
    <g id="xtick_23">
     <g id="line2d_31">
      <g>
       <use xlink:href="#m6b51fbde34" x="184.121423" y="300.504317" style="stroke: #000000; stroke-width: 0.8"/>
      </g>
     </g>
     <g id="text_13">
      <!-- 400 -->
      <g transform="translate(174.577673 315.101974) scale(0.1 -0.1)">
       <defs>
        <path id="DejaVuSans-17" d="M 2419 4116 
L 825 1625 
L 2419 1625 
L 2419 4116 
z
M 2253 4666 
L 3047 4666 
L 3047 1625 
L 3713 1625 
L 3713 1100 
L 3047 1100 
L 3047 0 
L 2419 0 
L 2419 1100 
L 313 1100 
L 313 1709 
L 2253 4666 
z
" transform="scale(0.015625)"/>
       </defs>
       <use xlink:href="#DejaVuSans-17"/>
       <use xlink:href="#DejaVuSans-13" transform="translate(63.625 0)"/>
       <use xlink:href="#DejaVuSans-13" transform="translate(127.25 0)"/>
      </g>
     </g>
    </g>
    <g id="xtick_24">
     <g id="line2d_32">
      <g>
       <use xlink:href="#m6b51fbde34" x="215.931533" y="300.504317" style="stroke: #000000; stroke-width: 0.8"/>
      </g>
     </g>
     <g id="text_14">
      <!-- 500 -->
      <g transform="translate(206.387783 315.101974) scale(0.1 -0.1)">
       <use xlink:href="#DejaVuSans-18"/>
       <use xlink:href="#DejaVuSans-13" transform="translate(63.625 0)"/>
       <use xlink:href="#DejaVuSans-13" transform="translate(127.25 0)"/>
      </g>
     </g>
    </g>
    <g id="xtick_25">
     <g id="line2d_33">
      <g>
       <use xlink:href="#m6b51fbde34" x="247.741644" y="300.504317" style="stroke: #000000; stroke-width: 0.8"/>
      </g>
     </g>
     <g id="text_15">
      <!-- 600 -->
      <g transform="translate(238.197894 315.101974) scale(0.1 -0.1)">
       <defs>
        <path id="DejaVuSans-19" d="M 2113 2584 
Q 1688 2584 1439 2293 
Q 1191 2003 1191 1497 
Q 1191 994 1439 701 
Q 1688 409 2113 409 
Q 2538 409 2786 701 
Q 3034 994 3034 1497 
Q 3034 2003 2786 2293 
Q 2538 2584 2113 2584 
z
M 3366 4563 
L 3366 3988 
Q 3128 4100 2886 4159 
Q 2644 4219 2406 4219 
Q 1781 4219 1451 3797 
Q 1122 3375 1075 2522 
Q 1259 2794 1537 2939 
Q 1816 3084 2150 3084 
Q 2853 3084 3261 2657 
Q 3669 2231 3669 1497 
Q 3669 778 3244 343 
Q 2819 -91 2113 -91 
Q 1303 -91 875 529 
Q 447 1150 447 2328 
Q 447 3434 972 4092 
Q 1497 4750 2381 4750 
Q 2619 4750 2861 4703 
Q 3103 4656 3366 4563 
z
" transform="scale(0.015625)"/>
       </defs>
       <use xlink:href="#DejaVuSans-19"/>
       <use xlink:href="#DejaVuSans-13" transform="translate(63.625 0)"/>
       <use xlink:href="#DejaVuSans-13" transform="translate(127.25 0)"/>
      </g>
     </g>
    </g>
    <g id="xtick_26">
     <g id="line2d_34">
      <g>
       <use xlink:href="#m6b51fbde34" x="279.551755" y="300.504317" style="stroke: #000000; stroke-width: 0.8"/>
      </g>
     </g>
     <g id="text_16">
      <!-- 700 -->
      <g transform="translate(270.008005 315.101974) scale(0.1 -0.1)">
       <defs>
        <path id="DejaVuSans-1a" d="M 525 4666 
L 3525 4666 
L 3525 4397 
L 1831 0 
L 1172 0 
L 2766 4134 
L 525 4134 
L 525 4666 
z
" transform="scale(0.015625)"/>
       </defs>
       <use xlink:href="#DejaVuSans-1a"/>
       <use xlink:href="#DejaVuSans-13" transform="translate(63.625 0)"/>
       <use xlink:href="#DejaVuSans-13" transform="translate(127.25 0)"/>
      </g>
     </g>
    </g>
    <g id="xtick_27">
     <g id="line2d_35">
      <g>
       <use xlink:href="#m6b51fbde34" x="311.361866" y="300.504317" style="stroke: #000000; stroke-width: 0.8"/>
      </g>
     </g>
     <g id="text_17">
      <!-- 800 -->
      <g transform="translate(301.818116 315.101974) scale(0.1 -0.1)">
       <defs>
        <path id="DejaVuSans-1b" d="M 2034 2216 
Q 1584 2216 1326 1975 
Q 1069 1734 1069 1313 
Q 1069 891 1326 650 
Q 1584 409 2034 409 
Q 2484 409 2743 651 
Q 3003 894 3003 1313 
Q 3003 1734 2745 1975 
Q 2488 2216 2034 2216 
z
M 1403 2484 
Q 997 2584 770 2862 
Q 544 3141 544 3541 
Q 544 4100 942 4425 
Q 1341 4750 2034 4750 
Q 2731 4750 3128 4425 
Q 3525 4100 3525 3541 
Q 3525 3141 3298 2862 
Q 3072 2584 2669 2484 
Q 3125 2378 3379 2068 
Q 3634 1759 3634 1313 
Q 3634 634 3220 271 
Q 2806 -91 2034 -91 
Q 1263 -91 848 271 
Q 434 634 434 1313 
Q 434 1759 690 2068 
Q 947 2378 1403 2484 
z
M 1172 3481 
Q 1172 3119 1398 2916 
Q 1625 2713 2034 2713 
Q 2441 2713 2670 2916 
Q 2900 3119 2900 3481 
Q 2900 3844 2670 4047 
Q 2441 4250 2034 4250 
Q 1625 4250 1398 4047 
Q 1172 3844 1172 3481 
z
" transform="scale(0.015625)"/>
       </defs>
       <use xlink:href="#DejaVuSans-1b"/>
       <use xlink:href="#DejaVuSans-13" transform="translate(63.625 0)"/>
       <use xlink:href="#DejaVuSans-13" transform="translate(127.25 0)"/>
      </g>
     </g>
    </g>
    <g id="text_18">
     <!-- Time -->
     <g transform="translate(172.415776 329.102755) scale(0.1 -0.1)">
      <defs>
       <path id="DejaVuSans-37" d="M -19 4666 
L 3928 4666 
L 3928 4134 
L 2272 4134 
L 2272 0 
L 1638 0 
L 1638 4134 
L -19 4134 
L -19 4666 
z
" transform="scale(0.015625)"/>
       <path id="DejaVuSans-4c" d="M 603 3500 
L 1178 3500 
L 1178 0 
L 603 0 
L 603 3500 
z
M 603 4863 
L 1178 4863 
L 1178 4134 
L 603 4134 
L 603 4863 
z
" transform="scale(0.015625)"/>
       <path id="DejaVuSans-50" d="M 3328 2828 
Q 3544 3216 3844 3400 
Q 4144 3584 4550 3584 
Q 5097 3584 5394 3201 
Q 5691 2819 5691 2113 
L 5691 0 
L 5113 0 
L 5113 2094 
Q 5113 2597 4934 2840 
Q 4756 3084 4391 3084 
Q 3944 3084 3684 2787 
Q 3425 2491 3425 1978 
L 3425 0 
L 2847 0 
L 2847 2094 
Q 2847 2600 2669 2842 
Q 2491 3084 2119 3084 
Q 1678 3084 1418 2786 
Q 1159 2488 1159 1978 
L 1159 0 
L 581 0 
L 581 3500 
L 1159 3500 
L 1159 2956 
Q 1356 3278 1631 3431 
Q 1906 3584 2284 3584 
Q 2666 3584 2933 3390 
Q 3200 3197 3328 2828 
z
" transform="scale(0.015625)"/>
      </defs>
      <use xlink:href="#DejaVuSans-37"/>
      <use xlink:href="#DejaVuSans-4c" transform="translate(58 0)"/>
      <use xlink:href="#DejaVuSans-50" transform="translate(85.78125 0)"/>
      <use xlink:href="#DejaVuSans-48" transform="translate(183.1875 0)"/>
     </g>
    </g>
   </g>
   <g id="matplotlib.axis_6">
    <g id="ytick_7">
     <g id="line2d_36">
      <g>
       <use xlink:href="#m1147ee157c" x="44.103906" y="296.443745" style="stroke: #000000; stroke-width: 0.8"/>
      </g>
     </g>
     <g id="text_19">
      <!-- 0.0 -->
      <g transform="translate(21.200781 300.242573) scale(0.1 -0.1)">
       <defs>
        <path id="DejaVuSans-11" d="M 684 794 
L 1344 794 
L 1344 0 
L 684 0 
L 684 794 
z
" transform="scale(0.015625)"/>
       </defs>
       <use xlink:href="#DejaVuSans-13"/>
       <use xlink:href="#DejaVuSans-11" transform="translate(63.625 0)"/>
       <use xlink:href="#DejaVuSans-13" transform="translate(95.40625 0)"/>
      </g>
     </g>
    </g>
    <g id="ytick_8">
     <g id="line2d_37">
      <g>
       <use xlink:href="#m1147ee157c" x="44.103906" y="255.838021" style="stroke: #000000; stroke-width: 0.8"/>
      </g>
     </g>
     <g id="text_20">
      <!-- 0.5 -->
      <g transform="translate(21.200781 259.636849) scale(0.1 -0.1)">
       <use xlink:href="#DejaVuSans-13"/>
       <use xlink:href="#DejaVuSans-11" transform="translate(63.625 0)"/>
       <use xlink:href="#DejaVuSans-18" transform="translate(95.40625 0)"/>
      </g>
     </g>
    </g>
    <g id="ytick_9">
     <g id="line2d_38">
      <g>
       <use xlink:href="#m1147ee157c" x="44.103906" y="215.232297" style="stroke: #000000; stroke-width: 0.8"/>
      </g>
     </g>
     <g id="text_21">
      <!-- 1.0 -->
      <g transform="translate(21.200781 219.031125) scale(0.1 -0.1)">
       <use xlink:href="#DejaVuSans-14"/>
       <use xlink:href="#DejaVuSans-11" transform="translate(63.625 0)"/>
       <use xlink:href="#DejaVuSans-13" transform="translate(95.40625 0)"/>
      </g>
     </g>
    </g>
    <g id="text_22">
     <!-- Free lac operon -->
     <g transform="translate(14.798438 294.31224) rotate(-90) scale(0.1 -0.1)">
      <defs>
       <path id="DejaVuSans-29" d="M 628 4666 
L 3309 4666 
L 3309 4134 
L 1259 4134 
L 1259 2759 
L 3109 2759 
L 3109 2228 
L 1259 2228 
L 1259 0 
L 628 0 
L 628 4666 
z
" transform="scale(0.015625)"/>
       <path id="DejaVuSans-53" d="M 1159 525 
L 1159 -1331 
L 581 -1331 
L 581 3500 
L 1159 3500 
L 1159 2969 
Q 1341 3281 1617 3432 
Q 1894 3584 2278 3584 
Q 2916 3584 3314 3078 
Q 3713 2572 3713 1747 
Q 3713 922 3314 415 
Q 2916 -91 2278 -91 
Q 1894 -91 1617 61 
Q 1341 213 1159 525 
z
M 3116 1747 
Q 3116 2381 2855 2742 
Q 2594 3103 2138 3103 
Q 1681 3103 1420 2742 
Q 1159 2381 1159 1747 
Q 1159 1113 1420 752 
Q 1681 391 2138 391 
Q 2594 391 2855 752 
Q 3116 1113 3116 1747 
z
" transform="scale(0.015625)"/>
       <path id="DejaVuSans-51" d="M 3513 2113 
L 3513 0 
L 2938 0 
L 2938 2094 
Q 2938 2591 2744 2837 
Q 2550 3084 2163 3084 
Q 1697 3084 1428 2787 
Q 1159 2491 1159 1978 
L 1159 0 
L 581 0 
L 581 3500 
L 1159 3500 
L 1159 2956 
Q 1366 3272 1645 3428 
Q 1925 3584 2291 3584 
Q 2894 3584 3203 3211 
Q 3513 2838 3513 2113 
z
" transform="scale(0.015625)"/>
      </defs>
      <use xlink:href="#DejaVuSans-29"/>
      <use xlink:href="#DejaVuSans-55" transform="translate(50.234375 0)"/>
      <use xlink:href="#DejaVuSans-48" transform="translate(89.140625 0)"/>
      <use xlink:href="#DejaVuSans-48" transform="translate(150.671875 0)"/>
      <use xlink:href="#DejaVuSans-3" transform="translate(212.203125 0)"/>
      <use xlink:href="#DejaVuSans-4f" transform="translate(243.984375 0)"/>
      <use xlink:href="#DejaVuSans-44" transform="translate(271.765625 0)"/>
      <use xlink:href="#DejaVuSans-46" transform="translate(333.046875 0)"/>
      <use xlink:href="#DejaVuSans-3" transform="translate(388.03125 0)"/>
      <use xlink:href="#DejaVuSans-52" transform="translate(419.8125 0)"/>
      <use xlink:href="#DejaVuSans-53" transform="translate(481 0)"/>
      <use xlink:href="#DejaVuSans-48" transform="translate(544.484375 0)"/>
      <use xlink:href="#DejaVuSans-55" transform="translate(606.015625 0)"/>
      <use xlink:href="#DejaVuSans-52" transform="translate(644.921875 0)"/>
      <use xlink:href="#DejaVuSans-51" transform="translate(706.109375 0)"/>
     </g>
    </g>
   </g>
   <g id="line2d_39">
    <path d="M 56.88098 215.232297 
L 56.962339 296.443745 
L 57.130305 296.443745 
L 57.299561 215.232297 
L 57.417503 215.232297 
L 57.51944 296.443745 
L 58.733396 296.443745 
L 59.721353 215.232297 
L 59.90734 215.232297 
L 59.930041 296.443745 
L 62.346871 296.443745 
L 64.936443 215.232297 
L 65.230777 215.232297 
L 65.367959 296.443745 
L 65.493591 296.443745 
L 72.143313 215.232297 
L 72.312779 296.443745 
L 80.137416 215.232297 
L 80.18636 296.443745 
L 82.807814 215.232297 
L 82.947537 215.232297 
L 83.001596 296.443745 
L 84.738607 296.443745 
L 84.803916 215.232297 
L 85.678532 215.232297 
L 85.868147 296.443745 
L 86.899014 296.443745 
L 89.885893 215.232297 
L 90.424865 215.232297 
L 90.454088 296.443745 
L 90.811311 296.443745 
L 91.691017 215.232297 
L 91.749352 296.443745 
L 92.092535 296.443745 
L 109.134693 215.232297 
L 109.148368 296.443745 
L 109.406337 296.443745 
L 109.681935 215.232297 
L 109.968738 296.443745 
L 110.096562 215.232297 
L 110.503528 215.232297 
L 110.707718 296.443745 
L 110.999796 296.443745 
L 115.153931 215.232297 
L 115.813282 296.443745 
L 117.452152 215.232297 
L 117.766775 296.443745 
L 118.437901 215.232297 
L 118.525057 296.443745 
L 119.532468 215.232297 
L 119.617214 296.443745 
L 123.552427 296.443745 
L 129.559647 215.232297 
L 129.665389 296.443745 
L 131.404296 215.232297 
L 131.854217 215.232297 
L 131.875616 296.443745 
L 133.712351 296.443745 
L 136.302977 215.232297 
L 136.316258 296.443745 
L 139.191748 215.232297 
L 139.234397 296.443745 
L 146.264083 215.232297 
L 147.206581 215.232297 
L 147.274762 296.443745 
L 147.889995 296.443745 
L 148.134554 215.232297 
L 148.448824 215.232297 
L 148.561352 296.443745 
L 149.629889 296.443745 
L 150.140329 215.232297 
L 150.240886 296.443745 
L 151.359811 296.443745 
L 151.371109 215.232297 
L 151.532333 296.443745 
L 155.832485 215.232297 
L 155.921246 296.443745 
L 156.170082 215.232297 
L 197.927698 215.232297 
L 198.027574 296.443745 
L 198.797543 296.443745 
L 198.974114 215.232297 
L 201.911294 215.232297 
L 202.037123 296.443745 
L 205.00053 296.443745 
L 205.163366 215.232297 
L 205.260316 296.443745 
L 207.697947 215.232297 
L 207.850871 215.232297 
L 207.853768 296.443745 
L 208.121739 296.443745 
L 208.149502 215.232297 
L 208.175278 296.443745 
L 211.101237 296.443745 
L 211.832609 215.232297 
L 211.865103 296.443745 
L 212.167832 215.232297 
L 212.620274 215.232297 
L 212.657324 296.443745 
L 214.678531 296.443745 
L 218.558945 215.232297 
L 218.565539 296.443745 
L 218.956753 215.232297 
L 219.102645 296.443745 
L 230.990687 215.232297 
L 231.11908 296.443745 
L 237.350326 215.232297 
L 237.47822 296.443745 
L 237.542538 296.443745 
L 238.561014 215.232297 
L 239.025977 215.232297 
L 239.231425 296.443745 
L 243.258377 215.232297 
L 253.312465 215.232297 
L 253.388569 296.443745 
L 253.530346 296.443745 
L 253.712216 215.232297 
L 253.784487 215.232297 
L 253.929182 296.443745 
L 256.036589 296.443745 
L 257.025907 215.232297 
L 269.305517 215.232297 
L 269.315034 296.443745 
L 271.094228 296.443745 
L 272.313636 215.232297 
L 276.062162 215.232297 
L 276.162088 296.443745 
L 276.900366 296.443745 
L 278.453012 215.232297 
L 280.894796 215.232297 
L 280.996707 296.443745 
L 281.596738 296.443745 
L 282.264672 215.232297 
L 282.625989 296.443745 
L 291.411533 215.232297 
L 291.836661 215.232297 
L 291.891144 296.443745 
L 292.524734 215.232297 
L 292.678583 215.232297 
L 292.739817 296.443745 
L 293.115678 296.443745 
L 293.130282 215.232297 
L 293.193164 296.443745 
L 293.475441 296.443745 
L 294.973141 215.232297 
L 294.993647 296.443745 
L 299.538759 215.232297 
L 299.606455 296.443745 
L 299.883569 296.443745 
L 301.548491 215.232297 
L 301.894096 296.443745 
L 312.422447 215.232297 
L 312.422447 215.232297 
" clip-path="url(#pf969b8e6ce)" style="fill: none; stroke: #000000; stroke-width: 1.5; stroke-linecap: square"/>
   </g>
   <g id="patch_13">
    <path d="M 44.103906 300.504317 
L 44.103906 211.171724 
" style="fill: none; stroke: #000000; stroke-width: 0.8; stroke-linejoin: miter; stroke-linecap: square"/>
   </g>
   <g id="patch_14">
    <path d="M 325.19952 300.504317 
L 325.19952 211.171724 
" style="fill: none; stroke: #000000; stroke-width: 0.8; stroke-linejoin: miter; stroke-linecap: square"/>
   </g>
   <g id="patch_15">
    <path d="M 44.103906 300.504317 
L 325.19952 300.504317 
" style="fill: none; stroke: #000000; stroke-width: 0.8; stroke-linejoin: miter; stroke-linecap: square"/>
   </g>
   <g id="patch_16">
    <path d="M 44.103906 211.171724 
L 325.19952 211.171724 
" style="fill: none; stroke: #000000; stroke-width: 0.8; stroke-linejoin: miter; stroke-linecap: square"/>
   </g>
  </g>
 </g>
 <defs>
  <clipPath id="p4c2b39653b">
   <rect x="44.103906" y="13.505579" width="281.095614" height="89.332593"/>
  </clipPath>
  <clipPath id="p885ef09076">
   <rect x="44.103906" y="112.338651" width="281.095614" height="89.332593"/>
  </clipPath>
  <clipPath id="pf969b8e6ce">
   <rect x="44.103906" y="211.171724" width="281.095614" height="89.332593"/>
  </clipPath>
 </defs>
</svg>
