<?xml version="1.0" encoding="utf-8" standalone="no"?>
<!DOCTYPE svg PUBLIC "-//W3C//DTD SVG 1.1//EN"
  "http://www.w3.org/Graphics/SVG/1.1/DTD/svg11.dtd">
<svg xmlns:xlink="http://www.w3.org/1999/xlink" width="332.39952pt" height="332.39952pt" viewBox="0 0 332.39952 332.39952" xmlns="http://www.w3.org/2000/svg" version="1.1">
 <metadata>
  <rdf:RDF xmlns:dc="http://purl.org/dc/elements/1.1/" xmlns:cc="http://creativecommons.org/ns#" xmlns:rdf="http://www.w3.org/1999/02/22-rdf-syntax-ns#">
   <cc:Work>
    <dc:type rdf:resource="http://purl.org/dc/dcmitype/StillImage"/>
    <dc:date>2026-07-13T03:38:09.090444</dc:date>
    <dc:format>image/svg+xml</dc:format>
    <dc:creator>
     <cc:Agent>
      <dc:title>Matplotlib v3.11.0, https://matplotlib.org/</dc:title>
     </cc:Agent>
    </dc:creator>
   </cc:Work>
  </rdf:RDF>
 </metadata>
 <defs>
  <style type="text/css">*{stroke-linejoin: round; stroke-linecap: butt}</style>
 </defs>
 <g id="figure_1">
  <g id="patch_1">
   <path d="M 0 332.39952 
L 332.39952 332.39952 
L 332.39952 0 
L 0 0 
z
" style="fill: #ffffff"/>
  </g>
  <g id="axes_1">
   <g id="patch_2">
    <path d="M 44.103906 96.532593 
L 325.19952 96.532593 
L 325.19952 7.2 
L 44.103906 7.2 
z
" style="fill: #ffffff"/>
   </g>
   <g id="matplotlib.axis_1">
    <g id="xtick_1">
     <g id="line2d_1">
      <defs>
       <path id="m0d432bdc26" d="M 0 0 
L 0 3.5 
" style="stroke: #000000; stroke-width: 0.8"/>
      </defs>
      <g>
       <use xlink:href="#m0d432bdc26" x="56.88098" y="96.532593" style="stroke: #000000; stroke-width: 0.8"/>
      </g>
     </g>
    </g>
    <g id="xtick_2">
     <g id="line2d_2">
      <g>
       <use xlink:href="#m0d432bdc26" x="117.803957" y="96.532593" style="stroke: #000000; stroke-width: 0.8"/>
      </g>
     </g>
    </g>
    <g id="xtick_3">
     <g id="line2d_3">
      <g>
       <use xlink:href="#m0d432bdc26" x="178.726935" y="96.532593" style="stroke: #000000; stroke-width: 0.8"/>
      </g>
     </g>
    </g>
    <g id="xtick_4">
     <g id="line2d_4">
      <g>
       <use xlink:href="#m0d432bdc26" x="239.649913" y="96.532593" style="stroke: #000000; stroke-width: 0.8"/>
      </g>
     </g>
    </g>
    <g id="xtick_5">
     <g id="line2d_5">
      <g>
       <use xlink:href="#m0d432bdc26" x="300.57289" y="96.532593" style="stroke: #000000; stroke-width: 0.8"/>
      </g>
     </g>
    </g>
   </g>
   <g id="matplotlib.axis_2">
    <g id="ytick_1">
     <g id="line2d_6">
      <defs>
       <path id="me777f090e3" d="M 0 0 
L -3.5 0 
" style="stroke: #000000; stroke-width: 0.8"/>
      </defs>
      <g>
       <use xlink:href="#me777f090e3" x="44.103906" y="92.472021" style="stroke: #000000; stroke-width: 0.8"/>
      </g>
     </g>
     <g id="text_1">
      <!-- 0 -->
      <g transform="translate(30.741406 96.270849) scale(0.1 -0.1)">
       <defs>
        <path id="DejaVuSans-13" d="M 2034 4250 
Q 1547 4250 1301 3770 
Q 1056 3291 1056 2328 
Q 1056 1369 1301 889 
Q 1547 409 2034 409 
Q 2525 409 2770 889 
Q 3016 1369 3016 2328 
Q 3016 3291 2770 3770 
Q 2525 4250 2034 4250 
z
M 2034 4750 
Q 2819 4750 3233 4129 
Q 3647 3509 3647 2328 
Q 3647 1150 3233 529 
Q 2819 -91 2034 -91 
Q 1250 -91 836 529 
Q 422 1150 422 2328 
Q 422 3509 836 4129 
Q 1250 4750 2034 4750 
z
" transform="scale(0.015625)"/>
       </defs>
       <use xlink:href="#DejaVuSans-13"/>
      </g>
     </g>
    </g>
    <g id="ytick_2">
     <g id="line2d_7">
      <g>
       <use xlink:href="#me777f090e3" x="44.103906" y="51.866296" style="stroke: #000000; stroke-width: 0.8"/>
      </g>
     </g>
     <g id="text_2">
      <!-- 5 -->
      <g transform="translate(30.741406 55.665125) scale(0.1 -0.1)">
       <defs>
        <path id="DejaVuSans-18" d="M 691 4666 
L 3169 4666 
L 3169 4134 
L 1269 4134 
L 1269 2991 
Q 1406 3038 1543 3061 
Q 1681 3084 1819 3084 
Q 2600 3084 3056 2656 
Q 3513 2228 3513 1497 
Q 3513 744 3044 326 
Q 2575 -91 1722 -91 
Q 1428 -91 1123 -41 
Q 819 9 494 109 
L 494 744 
Q 775 591 1075 516 
Q 1375 441 1709 441 
Q 2250 441 2565 725 
Q 2881 1009 2881 1497 
Q 2881 1984 2565 2268 
Q 2250 2553 1709 2553 
Q 1456 2553 1204 2497 
Q 953 2441 691 2322 
L 691 4666 
z
" transform="scale(0.015625)"/>
       </defs>
       <use xlink:href="#DejaVuSans-18"/>
      </g>
     </g>
    </g>
    <g id="ytick_3">
     <g id="line2d_8">
      <g>
       <use xlink:href="#me777f090e3" x="44.103906" y="11.260572" style="stroke: #000000; stroke-width: 0.8"/>
      </g>
     </g>
     <g id="text_3">
      <!-- 10 -->
      <g transform="translate(24.378906 15.059401) scale(0.1 -0.1)">
       <defs>
        <path id="DejaVuSans-14" d="M 794 531 
L 1825 531 
L 1825 4091 
L 703 3866 
L 703 4441 
L 1819 4666 
L 2450 4666 
L 2450 531 
L 3481 531 
L 3481 0 
L 794 0 
L 794 531 
z
" transform="scale(0.015625)"/>
       </defs>
       <use xlink:href="#DejaVuSans-14"/>
       <use xlink:href="#DejaVuSans-13" transform="translate(63.625 0)"/>
      </g>
     </g>
    </g>
    <g id="text_4">
     <!-- Extracellular lactose -->
     <g transform="translate(17.976563 102.838171) rotate(-90) scale(0.1 -0.1)">
      <defs>
       <path id="DejaVuSans-28" d="M 628 4666 
L 3578 4666 
L 3578 4134 
L 1259 4134 
L 1259 2753 
L 3481 2753 
L 3481 2222 
L 1259 2222 
L 1259 531 
L 3634 531 
L 3634 0 
L 628 0 
L 628 4666 
z
" transform="scale(0.015625)"/>
       <path id="DejaVuSans-5b" d="M 3513 3500 
L 2247 1797 
L 3578 0 
L 2900 0 
L 1881 1375 
L 863 0 
L 184 0 
L 1544 1831 
L 300 3500 
L 978 3500 
L 1906 2253 
L 2834 3500 
L 3513 3500 
z
" transform="scale(0.015625)"/>
       <path id="DejaVuSans-57" d="M 1172 4494 
L 1172 3500 
L 2356 3500 
L 2356 3053 
L 1172 3053 
L 1172 1153 
Q 1172 725 1289 603 
Q 1406 481 1766 481 
L 2356 481 
L 2356 0 
L 1766 0 
Q 1100 0 847 248 
Q 594 497 594 1153 
L 594 3053 
L 172 3053 
L 172 3500 
L 594 3500 
L 594 4494 
L 1172 4494 
z
" transform="scale(0.015625)"/>
       <path id="DejaVuSans-55" d="M 2631 2963 
Q 2534 3019 2420 3045 
Q 2306 3072 2169 3072 
Q 1681 3072 1420 2755 
Q 1159 2438 1159 1844 
L 1159 0 
L 581 0 
L 581 3500 
L 1159 3500 
L 1159 2956 
Q 1341 3275 1631 3429 
Q 1922 3584 2338 3584 
Q 2397 3584 2469 3576 
Q 2541 3569 2628 3553 
L 2631 2963 
z
" transform="scale(0.015625)"/>
       <path id="DejaVuSans-44" d="M 2194 1759 
Q 1497 1759 1228 1600 
Q 959 1441 959 1056 
Q 959 750 1161 570 
Q 1363 391 1709 391 
Q 2188 391 2477 730 
Q 2766 1069 2766 1631 
L 2766 1759 
L 2194 1759 
z
M 3341 1997 
L 3341 0 
L 2766 0 
L 2766 531 
Q 2569 213 2275 61 
Q 1981 -91 1556 -91 
Q 1019 -91 701 211 
Q 384 513 384 1019 
Q 384 1609 779 1909 
Q 1175 2209 1959 2209 
L 2766 2209 
L 2766 2266 
Q 2766 2663 2505 2880 
Q 2244 3097 1772 3097 
Q 1472 3097 1187 3025 
Q 903 2953 641 2809 
L 641 3341 
Q 956 3463 1253 3523 
Q 1550 3584 1831 3584 
Q 2591 3584 2966 3190 
Q 3341 2797 3341 1997 
z
" transform="scale(0.015625)"/>
       <path id="DejaVuSans-46" d="M 3122 3366 
L 3122 2828 
Q 2878 2963 2633 3030 
Q 2388 3097 2138 3097 
Q 1578 3097 1268 2742 
Q 959 2388 959 1747 
Q 959 1106 1268 751 
Q 1578 397 2138 397 
Q 2388 397 2633 464 
Q 2878 531 3122 666 
L 3122 134 
Q 2881 22 2623 -34 
Q 2366 -91 2075 -91 
Q 1284 -91 818 406 
Q 353 903 353 1747 
Q 353 2603 823 3093 
Q 1294 3584 2113 3584 
Q 2378 3584 2631 3529 
Q 2884 3475 3122 3366 
z
" transform="scale(0.015625)"/>
       <path id="DejaVuSans-48" d="M 3597 1894 
L 3597 1613 
L 953 1613 
Q 991 1019 1311 708 
Q 1631 397 2203 397 
Q 2534 397 2845 478 
Q 3156 559 3463 722 
L 3463 178 
Q 3153 47 2828 -22 
Q 2503 -91 2169 -91 
Q 1331 -91 842 396 
Q 353 884 353 1716 
Q 353 2575 817 3079 
Q 1281 3584 2069 3584 
Q 2775 3584 3186 3129 
Q 3597 2675 3597 1894 
z
M 3022 2063 
Q 3016 2534 2758 2815 
Q 2500 3097 2075 3097 
Q 1594 3097 1305 2825 
Q 1016 2553 972 2059 
L 3022 2063 
z
" transform="scale(0.015625)"/>
       <path id="DejaVuSans-4f" d="M 603 4863 
L 1178 4863 
L 1178 0 
L 603 0 
L 603 4863 
z
" transform="scale(0.015625)"/>
       <path id="DejaVuSans-58" d="M 544 1381 
L 544 3500 
L 1119 3500 
L 1119 1403 
Q 1119 906 1312 657 
Q 1506 409 1894 409 
Q 2359 409 2629 706 
Q 2900 1003 2900 1516 
L 2900 3500 
L 3475 3500 
L 3475 0 
L 2900 0 
L 2900 538 
Q 2691 219 2414 64 
Q 2138 -91 1772 -91 
Q 1169 -91 856 284 
Q 544 659 544 1381 
z
M 1991 3584 
L 1991 3584 
z
" transform="scale(0.015625)"/>
       <path id="DejaVuSans-3" transform="scale(0.015625)"/>
       <path id="DejaVuSans-52" d="M 1959 3097 
Q 1497 3097 1228 2736 
Q 959 2375 959 1747 
Q 959 1119 1226 758 
Q 1494 397 1959 397 
Q 2419 397 2687 759 
Q 2956 1122 2956 1747 
Q 2956 2369 2687 2733 
Q 2419 3097 1959 3097 
z
M 1959 3584 
Q 2709 3584 3137 3096 
Q 3566 2609 3566 1747 
Q 3566 888 3137 398 
Q 2709 -91 1959 -91 
Q 1206 -91 779 398 
Q 353 888 353 1747 
Q 353 2609 779 3096 
Q 1206 3584 1959 3584 
z
" transform="scale(0.015625)"/>
       <path id="DejaVuSans-56" d="M 2834 3397 
L 2834 2853 
Q 2591 2978 2328 3040 
Q 2066 3103 1784 3103 
Q 1356 3103 1142 2972 
Q 928 2841 928 2578 
Q 928 2378 1081 2264 
Q 1234 2150 1697 2047 
L 1894 2003 
Q 2506 1872 2764 1633 
Q 3022 1394 3022 966 
Q 3022 478 2636 193 
Q 2250 -91 1575 -91 
Q 1294 -91 989 -36 
Q 684 19 347 128 
L 347 722 
Q 666 556 975 473 
Q 1284 391 1588 391 
Q 1994 391 2212 530 
Q 2431 669 2431 922 
Q 2431 1156 2273 1281 
Q 2116 1406 1581 1522 
L 1381 1569 
Q 847 1681 609 1914 
Q 372 2147 372 2553 
Q 372 3047 722 3315 
Q 1072 3584 1716 3584 
Q 2034 3584 2315 3537 
Q 2597 3491 2834 3397 
z
" transform="scale(0.015625)"/>
      </defs>
      <use xlink:href="#DejaVuSans-28"/>
      <use xlink:href="#DejaVuSans-5b" transform="translate(63.1875 0)"/>
      <use xlink:href="#DejaVuSans-57" transform="translate(122.375 0)"/>
      <use xlink:href="#DejaVuSans-55" transform="translate(161.578125 0)"/>
      <use xlink:href="#DejaVuSans-44" transform="translate(202.6875 0)"/>
      <use xlink:href="#DejaVuSans-46" transform="translate(263.96875 0)"/>
      <use xlink:href="#DejaVuSans-48" transform="translate(318.953125 0)"/>
      <use xlink:href="#DejaVuSans-4f" transform="translate(380.484375 0)"/>
      <use xlink:href="#DejaVuSans-4f" transform="translate(408.265625 0)"/>
      <use xlink:href="#DejaVuSans-58" transform="translate(436.046875 0)"/>
      <use xlink:href="#DejaVuSans-4f" transform="translate(499.421875 0)"/>
      <use xlink:href="#DejaVuSans-44" transform="translate(527.203125 0)"/>
      <use xlink:href="#DejaVuSans-55" transform="translate(588.484375 0)"/>
      <use xlink:href="#DejaVuSans-3" transform="translate(629.59375 0)"/>
      <use xlink:href="#DejaVuSans-4f" transform="translate(661.375 0)"/>
      <use xlink:href="#DejaVuSans-44" transform="translate(689.15625 0)"/>
      <use xlink:href="#DejaVuSans-46" transform="translate(750.4375 0)"/>
      <use xlink:href="#DejaVuSans-57" transform="translate(805.421875 0)"/>
      <use xlink:href="#DejaVuSans-52" transform="translate(844.625 0)"/>
      <use xlink:href="#DejaVuSans-56" transform="translate(905.8125 0)"/>
      <use xlink:href="#DejaVuSans-48" transform="translate(957.90625 0)"/>
     </g>
    </g>
   </g>
   <g id="line2d_9">
    <path d="M 56.88098 92.472021 
L 151.637336 92.472021 
L 151.722334 11.260572 
L 152.359587 11.341784 
L 152.471859 11.66663 
L 152.514612 11.747841 
L 152.654079 13.209647 
L 152.77142 14.915088 
L 152.78999 14.996299 
L 152.917151 16.701739 
L 152.936408 16.782951 
L 153.395781 20.762312 
L 153.457589 20.843523 
L 153.572563 21.005946 
L 153.652598 21.087158 
L 153.75775 21.736849 
L 153.826084 21.818061 
L 154.031837 23.361078 
L 154.041648 23.44229 
L 154.34126 25.553787 
L 154.359798 25.634999 
L 154.549125 26.609536 
L 154.878654 28.721034 
L 155.014738 29.695571 
L 155.019786 29.776783 
L 155.145173 31.076166 
L 155.1707 31.157377 
L 155.315462 32.131915 
L 155.337751 32.213126 
L 155.449121 32.862818 
L 155.483472 32.944029 
L 155.731342 34.568258 
L 155.759023 34.649469 
L 156.253132 38.06035 
L 156.285557 38.141562 
L 156.411724 39.034888 
L 156.443602 39.116099 
L 156.57032 39.197311 
L 156.617626 39.278522 
L 156.736269 39.603368 
L 156.816423 39.684579 
L 156.929314 39.928214 
L 157.118308 40.415482 
L 157.161686 40.496694 
L 157.375226 41.714865 
L 157.596452 41.796077 
L 157.731905 41.877288 
L 157.925405 41.9585 
L 158.022793 42.364557 
L 158.329115 43.09546 
L 158.436397 43.176672 
L 158.537796 43.826363 
L 158.749717 44.719689 
L 160.622651 55.845657 
L 160.698539 55.926869 
L 160.84111 56.820195 
L 160.870804 56.901406 
L 160.981164 57.713521 
L 161.253479 59.500173 
L 161.273255 59.581384 
L 161.448174 60.312287 
L 161.826996 61.692882 
L 161.838029 61.774093 
L 161.985264 62.18015 
L 162.023328 62.261362 
L 162.144225 62.829842 
L 162.213005 62.911053 
L 162.343472 63.235899 
L 163.349604 63.317111 
L 163.556313 63.885591 
L 163.660817 64.048014 
L 163.746111 64.129225 
L 163.890368 64.454071 
L 163.907213 64.535282 
L 164.079504 65.266185 
L 164.162496 65.347397 
L 164.298074 65.672243 
L 164.512147 65.997088 
L 164.582512 66.0783 
L 164.691935 66.565569 
L 164.753867 66.64678 
L 164.910811 67.21526 
L 165.039181 67.296472 
L 165.146503 67.621317 
L 166.240098 72.81885 
L 166.469757 73.712176 
L 166.639849 73.793387 
L 167.378769 75.742462 
L 167.432579 75.823674 
L 167.576231 76.067308 
L 169.604251 76.148519 
L 169.708111 76.229731 
L 169.88446 76.310942 
L 169.970482 76.473365 
L 170.166302 76.554577 
L 170.650292 76.798211 
L 171.106441 76.879422 
L 171.203399 77.204268 
L 171.317074 77.28548 
L 171.452279 77.447903 
L 171.525667 77.529114 
L 172.110863 78.097594 
L 172.234098 78.666074 
L 172.432555 78.747286 
L 172.558864 78.828497 
L 173.579605 78.909709 
L 173.667445 78.99092 
L 173.779872 79.072132 
L 174.298852 79.640612 
L 174.431589 79.721823 
L 174.691635 79.965458 
L 174.870937 80.12788 
L 175.003784 80.209092 
L 175.286037 80.615149 
L 175.372877 80.696361 
L 175.892915 81.833321 
L 175.910686 81.914532 
L 176.027607 82.239378 
L 176.225061 82.320589 
L 176.308316 82.401801 
L 176.874761 82.483012 
L 177.439343 83.132704 
L 177.728746 83.45755 
L 177.815458 83.538761 
L 177.919385 83.782396 
L 178.06529 83.863607 
L 178.180512 84.02603 
L 178.280966 84.107241 
L 178.391233 84.269664 
L 178.663781 84.432087 
L 178.753575 84.513299 
L 178.88469 84.59451 
L 179.027793 84.675721 
L 179.455492 84.756933 
L 179.916256 84.919356 
L 180.704459 85.000567 
L 180.964337 85.16299 
L 181.761017 85.244202 
L 181.882873 85.325413 
L 182.456396 85.487836 
L 182.88725 85.569047 
L 183.02003 85.893893 
L 183.293235 85.975105 
L 183.402953 86.29995 
L 183.511975 86.381162 
L 183.604874 86.543585 
L 183.786528 86.624796 
L 183.923095 86.787219 
L 184.364347 86.868431 
L 185.094891 87.193276 
L 185.162988 87.274488 
L 185.583455 87.355699 
L 185.873453 87.436911 
L 186.545093 87.518122 
L 186.926682 87.761757 
L 187.513879 87.842968 
L 187.811957 88.005391 
L 187.903542 88.086602 
L 188.01985 88.330237 
L 188.35504 88.411448 
L 188.464065 88.573871 
L 189.266533 88.655082 
L 189.402028 88.736294 
L 189.703006 88.817505 
L 189.959969 89.06114 
L 190.330888 89.142351 
L 190.445411 89.223563 
L 190.617792 89.304774 
L 191.08117 89.385985 
L 191.165227 89.467197 
L 192.717459 89.548408 
L 192.85097 89.62962 
L 194.395921 89.710831 
L 194.673621 89.873254 
L 195.245092 89.954466 
L 195.358812 90.035677 
L 196.932189 90.116889 
L 197.043309 90.1981 
L 198.007041 90.279311 
L 198.183325 90.441734 
L 199.242371 90.522946 
L 199.633126 90.685369 
L 200.136922 90.76658 
L 200.181856 90.847792 
L 200.483291 90.929003 
L 204.278135 91.010214 
L 204.395232 91.091426 
L 204.604895 91.172637 
L 204.693156 91.253849 
L 211.742928 91.33506 
L 212.036167 91.497483 
L 214.34401 91.578695 
L 214.548683 91.659906 
L 215.821579 91.741117 
L 216.175308 91.822329 
L 243.434914 91.90354 
L 243.505863 91.984752 
L 248.865902 92.065963 
L 249.848728 92.228386 
L 312.422447 92.228386 
L 312.422447 92.228386 
" clip-path="url(#p1e7dfa7c97)" style="fill: none; stroke: #000000; stroke-width: 1.5; stroke-linecap: square"/>
   </g>
   <g id="patch_3">
    <path d="M 44.103906 96.532593 
L 44.103906 7.2 
" style="fill: none; stroke: #000000; stroke-width: 0.8; stroke-linejoin: miter; stroke-linecap: square"/>
   </g>
   <g id="patch_4">
    <path d="M 325.19952 96.532593 
L 325.19952 7.2 
" style="fill: none; stroke: #000000; stroke-width: 0.8; stroke-linejoin: miter; stroke-linecap: square"/>
   </g>
   <g id="patch_5">
    <path d="M 44.103906 96.532593 
L 325.19952 96.532593 
" style="fill: none; stroke: #000000; stroke-width: 0.8; stroke-linejoin: miter; stroke-linecap: square"/>
   </g>
   <g id="patch_6">
    <path d="M 44.103906 7.2 
L 325.19952 7.2 
" style="fill: none; stroke: #000000; stroke-width: 0.8; stroke-linejoin: miter; stroke-linecap: square"/>
   </g>
  </g>
  <g id="axes_2">
   <g id="patch_7">
    <path d="M 44.103906 195.365666 
L 325.19952 195.365666 
L 325.19952 106.033073 
L 44.103906 106.033073 
z
" style="fill: #ffffff"/>
   </g>
   <g id="matplotlib.axis_3">
    <g id="xtick_6">
     <g id="line2d_10">
      <g>
       <use xlink:href="#m0d432bdc26" x="56.88098" y="195.365666" style="stroke: #000000; stroke-width: 0.8"/>
      </g>
     </g>
    </g>
    <g id="xtick_7">
     <g id="line2d_11">
      <g>
       <use xlink:href="#m0d432bdc26" x="117.803957" y="195.365666" style="stroke: #000000; stroke-width: 0.8"/>
      </g>
     </g>
    </g>
    <g id="xtick_8">
     <g id="line2d_12">
      <g>
       <use xlink:href="#m0d432bdc26" x="178.726935" y="195.365666" style="stroke: #000000; stroke-width: 0.8"/>
      </g>
     </g>
    </g>
    <g id="xtick_9">
     <g id="line2d_13">
      <g>
       <use xlink:href="#m0d432bdc26" x="239.649913" y="195.365666" style="stroke: #000000; stroke-width: 0.8"/>
      </g>
     </g>
    </g>
    <g id="xtick_10">
     <g id="line2d_14">
      <g>
       <use xlink:href="#m0d432bdc26" x="300.57289" y="195.365666" style="stroke: #000000; stroke-width: 0.8"/>
      </g>
     </g>
    </g>
   </g>
   <g id="matplotlib.axis_4">
    <g id="ytick_4">
     <g id="line2d_15">
      <g>
       <use xlink:href="#me777f090e3" x="44.103906" y="191.305093" style="stroke: #000000; stroke-width: 0.8"/>
      </g>
     </g>
     <g id="text_5">
      <!-- 0 -->
      <g transform="translate(30.741406 195.103922) scale(0.1 -0.1)">
       <use xlink:href="#DejaVuSans-13"/>
      </g>
     </g>
    </g>
    <g id="ytick_5">
     <g id="line2d_16">
      <g>
       <use xlink:href="#me777f090e3" x="44.103906" y="150.699369" style="stroke: #000000; stroke-width: 0.8"/>
      </g>
     </g>
     <g id="text_6">
      <!-- 5 -->
      <g transform="translate(30.741406 154.498197) scale(0.1 -0.1)">
       <use xlink:href="#DejaVuSans-18"/>
      </g>
     </g>
    </g>
    <g id="ytick_6">
     <g id="line2d_17">
      <g>
       <use xlink:href="#me777f090e3" x="44.103906" y="110.093645" style="stroke: #000000; stroke-width: 0.8"/>
      </g>
     </g>
     <g id="text_7">
      <!-- 10 -->
      <g transform="translate(24.378906 113.892473) scale(0.1 -0.1)">
       <use xlink:href="#DejaVuSans-14"/>
       <use xlink:href="#DejaVuSans-13" transform="translate(63.625 0)"/>
      </g>
     </g>
    </g>
    <g id="text_8">
     <!-- LacY -->
     <g transform="translate(17.976563 162.352494) rotate(-90) scale(0.1 -0.1)">
      <defs>
       <path id="DejaVuSans-2f" d="M 628 4666 
L 1259 4666 
L 1259 531 
L 3531 531 
L 3531 0 
L 628 0 
L 628 4666 
z
" transform="scale(0.015625)"/>
       <path id="DejaVuSans-3c" d="M -13 4666 
L 666 4666 
L 1959 2747 
L 3244 4666 
L 3922 4666 
L 2272 2222 
L 2272 0 
L 1638 0 
L 1638 2222 
L -13 4666 
z
" transform="scale(0.015625)"/>
      </defs>
      <use xlink:href="#DejaVuSans-2f"/>
      <use xlink:href="#DejaVuSans-44" transform="translate(55.71875 0)"/>
      <use xlink:href="#DejaVuSans-46" transform="translate(117 0)"/>
      <use xlink:href="#DejaVuSans-3c" transform="translate(171.984375 0)"/>
     </g>
    </g>
   </g>
   <g id="line2d_18">
    <path d="M 56.88098 110.093645 
L 56.906873 110.093645 
L 57.033446 126.335935 
L 57.119735 142.578225 
L 57.264923 142.578225 
L 57.281815 134.45708 
L 57.492372 142.578225 
L 57.627785 142.578225 
L 57.790675 158.820514 
L 58.07789 175.062804 
L 58.140526 191.305093 
L 59.600932 191.305093 
L 59.759975 183.183949 
L 59.800773 191.305093 
L 64.594923 191.305093 
L 64.903192 183.183949 
L 65.008145 191.305093 
L 81.70862 191.305093 
L 81.894186 183.183949 
L 83.605943 191.305093 
L 83.620095 183.183949 
L 83.756788 175.062804 
L 83.761231 166.941659 
L 84.068741 175.062804 
L 84.285383 175.062804 
L 84.399576 191.305093 
L 84.457631 183.183949 
L 84.639206 183.183949 
L 84.771394 191.305093 
L 88.486616 191.305093 
L 88.858688 175.062804 
L 88.85993 166.941659 
L 89.33589 166.941659 
L 89.3728 183.183949 
L 90.10983 183.183949 
L 90.271072 175.062804 
L 90.599706 191.305093 
L 106.831548 191.305093 
L 106.932439 183.183949 
L 107.046703 183.183949 
L 107.179471 191.305093 
L 107.403787 191.305093 
L 107.443385 183.183949 
L 107.840433 183.183949 
L 108.174451 175.062804 
L 108.230146 183.183949 
L 108.397445 183.183949 
L 108.425678 191.305093 
L 116.78713 191.305093 
L 116.957447 183.183949 
L 118.962282 183.183949 
L 120.725823 191.305093 
L 128.140957 191.305093 
L 128.318763 183.183949 
L 128.593261 183.183949 
L 128.696142 191.305093 
L 132.835001 191.305093 
L 132.914928 183.183949 
L 132.9358 191.305093 
L 142.474595 191.305093 
L 142.723593 175.062804 
L 142.743478 183.183949 
L 142.771169 175.062804 
L 142.879143 166.941659 
L 142.88424 175.062804 
L 143.442425 175.062804 
L 144.031576 183.183949 
L 144.265766 183.183949 
L 144.566712 175.062804 
L 144.67447 175.062804 
L 145.697704 191.305093 
L 146.136979 191.305093 
L 146.186504 175.062804 
L 146.282798 175.062804 
L 146.42869 183.183949 
L 146.556337 183.183949 
L 147.074592 191.305093 
L 151.960619 191.305093 
L 152.369455 183.183949 
L 152.607641 150.699369 
L 152.861413 150.699369 
L 152.926512 166.941659 
L 152.969202 150.699369 
L 153.121559 150.699369 
L 153.226996 175.062804 
L 153.46562 175.062804 
L 153.572563 183.183949 
L 153.642958 183.183949 
L 153.722693 175.062804 
L 153.75775 175.062804 
L 153.909104 158.820514 
L 154.016926 158.820514 
L 154.129341 166.941659 
L 154.24125 166.941659 
L 154.359798 183.183949 
L 154.407128 183.183949 
L 154.524835 175.062804 
L 154.64612 175.062804 
L 154.753008 166.941659 
L 154.797202 166.941659 
L 154.915485 158.820514 
L 154.997768 158.820514 
L 155.114984 150.699369 
L 155.226543 150.699369 
L 155.256983 166.941659 
L 155.33423 150.699369 
L 155.338177 150.699369 
L 155.40683 142.578225 
L 155.414464 158.820514 
L 155.727706 158.820514 
L 155.752866 166.941659 
L 155.787303 150.699369 
L 155.835758 158.820514 
L 155.913024 158.820514 
L 155.991289 175.062804 
L 156.019204 166.941659 
L 156.171035 166.941659 
L 156.211636 158.820514 
L 156.280923 166.941659 
L 156.368044 166.941659 
L 156.477901 183.183949 
L 156.50261 183.183949 
L 156.6524 175.062804 
L 156.766558 183.183949 
L 157.04017 183.183949 
L 157.161686 175.062804 
L 157.168627 175.062804 
L 157.2557 166.941659 
L 157.277053 175.062804 
L 157.375226 175.062804 
L 157.501662 183.183949 
L 157.871945 183.183949 
L 157.974926 175.062804 
L 157.980304 183.183949 
L 157.984606 191.305093 
L 158.080866 183.183949 
L 158.302263 183.183949 
L 158.433618 166.941659 
L 158.640785 166.941659 
L 158.749717 158.820514 
L 158.909384 158.820514 
L 159.035752 175.062804 
L 159.126583 158.820514 
L 159.15162 166.941659 
L 159.210406 166.941659 
L 159.230895 158.820514 
L 159.317905 166.941659 
L 159.407675 166.941659 
L 159.506024 158.820514 
L 159.652199 158.820514 
L 159.754535 142.578225 
L 159.928539 142.578225 
L 160.036861 158.820514 
L 160.115275 166.941659 
L 160.145484 158.820514 
L 160.183998 158.820514 
L 160.260241 150.699369 
L 160.290872 158.820514 
L 160.336313 158.820514 
L 160.449504 150.699369 
L 160.52312 150.699369 
L 160.564129 142.578225 
L 160.622651 150.699369 
L 160.776098 150.699369 
L 160.891879 158.820514 
L 161.362335 158.820514 
L 161.374125 150.699369 
L 161.473344 158.820514 
L 161.684125 158.820514 
L 161.775986 166.941659 
L 161.904798 158.820514 
L 161.993179 166.941659 
L 162.030823 166.941659 
L 162.140716 158.820514 
L 162.25811 183.183949 
L 162.440404 183.183949 
L 162.533407 191.305093 
L 163.311988 191.305093 
L 163.439032 175.062804 
L 163.708001 175.062804 
L 163.791351 166.941659 
L 164.053995 166.941659 
L 164.056626 158.820514 
L 164.162496 166.941659 
L 164.23805 166.941659 
L 164.370804 175.062804 
L 164.485571 175.062804 
L 164.614611 166.941659 
L 164.753488 166.941659 
L 164.862864 158.820514 
L 164.866188 158.820514 
L 164.910811 175.062804 
L 164.960499 166.941659 
L 164.988844 166.941659 
L 165.10479 158.820514 
L 165.173851 158.820514 
L 165.174562 166.941659 
L 165.265647 158.820514 
L 165.351443 158.820514 
L 165.430436 166.941659 
L 165.450855 150.699369 
L 165.458567 150.699369 
L 165.519053 150.699369 
L 165.619254 158.820514 
L 165.755302 158.820514 
L 165.797708 142.578225 
L 165.872639 150.699369 
L 165.897804 150.699369 
L 166.011486 142.578225 
L 166.047908 142.578225 
L 166.079247 134.45708 
L 166.157751 142.578225 
L 166.284892 142.578225 
L 166.38958 158.820514 
L 166.469757 158.820514 
L 166.539615 175.062804 
L 166.691799 166.941659 
L 166.721189 175.062804 
L 166.800662 166.941659 
L 167.19106 166.941659 
L 167.233708 158.820514 
L 167.274134 175.062804 
L 167.297136 175.062804 
L 167.378769 158.820514 
L 167.401848 166.941659 
L 167.430602 166.941659 
L 167.529371 175.062804 
L 167.664106 175.062804 
L 167.711695 166.941659 
L 167.761744 175.062804 
L 167.787071 175.062804 
L 167.796461 166.941659 
L 167.83891 183.183949 
L 167.883759 183.183949 
L 168.065078 183.183949 
L 168.176551 175.062804 
L 168.17809 175.062804 
L 168.296688 183.183949 
L 168.388824 175.062804 
L 168.40586 183.183949 
L 168.449427 183.183949 
L 168.550307 191.305093 
L 169.095417 191.305093 
L 169.180575 183.183949 
L 169.197525 191.305093 
L 169.539043 191.305093 
L 169.637898 183.183949 
L 169.725707 191.305093 
L 169.777774 191.305093 
L 169.906063 183.183949 
L 171.056866 183.183949 
L 171.230739 158.820514 
L 171.425523 158.820514 
L 171.525667 175.062804 
L 171.797851 175.062804 
L 171.885332 183.183949 
L 172.014641 183.183949 
L 172.13437 166.941659 
L 172.370482 166.941659 
L 172.507309 183.183949 
L 172.568592 175.062804 
L 172.615152 183.183949 
L 172.65784 183.183949 
L 172.775569 191.305093 
L 173.451051 191.305093 
L 173.552588 183.183949 
L 173.620497 175.062804 
L 173.747758 183.183949 
L 173.847251 166.941659 
L 174.594945 166.941659 
L 174.613164 175.062804 
L 174.653608 158.820514 
L 174.679432 158.820514 
L 175.256214 158.820514 
L 175.372877 150.699369 
L 175.582233 150.699369 
L 175.705125 142.578225 
L 175.784006 142.578225 
L 175.971596 158.820514 
L 176.015253 158.820514 
L 176.074088 166.941659 
L 176.115212 158.820514 
L 176.153551 158.820514 
L 176.234649 166.941659 
L 176.294621 166.941659 
L 176.36299 150.699369 
L 176.372204 158.820514 
L 176.471967 166.941659 
L 176.654232 166.941659 
L 176.675888 158.820514 
L 176.724185 166.941659 
L 176.771211 166.941659 
L 176.874761 158.820514 
L 177.042545 158.820514 
L 177.137901 166.941659 
L 177.198719 150.699369 
L 177.326651 150.699369 
L 177.422856 158.820514 
L 177.724394 158.820514 
L 177.832155 166.941659 
L 177.89966 158.820514 
L 177.919385 166.941659 
L 178.035844 166.941659 
L 178.141295 158.820514 
L 178.175858 158.820514 
L 178.214855 150.699369 
L 178.254864 166.941659 
L 178.280966 166.941659 
L 178.457324 166.941659 
L 178.488796 158.820514 
L 178.541936 166.941659 
L 178.576071 166.941659 
L 178.579357 175.062804 
L 178.684021 166.941659 
L 178.689058 166.941659 
L 178.709669 158.820514 
L 178.783637 166.941659 
L 178.88469 183.183949 
L 179.342314 183.183949 
L 179.354198 175.062804 
L 179.411171 183.183949 
L 179.630456 183.183949 
L 179.698404 175.062804 
L 179.698907 183.183949 
L 179.858009 183.183949 
L 179.916256 175.062804 
L 179.973524 175.062804 
L 180.100959 183.183949 
L 180.40656 183.183949 
L 180.412009 191.305093 
L 180.534861 183.183949 
L 180.964337 183.183949 
L 181.20246 175.062804 
L 181.537188 175.062804 
L 181.603926 166.941659 
L 181.616071 175.062804 
L 182.058533 175.062804 
L 182.187338 183.183949 
L 182.209852 183.183949 
L 182.374531 175.062804 
L 182.390531 175.062804 
L 182.506705 183.183949 
L 182.63901 166.941659 
L 182.680305 166.941659 
L 182.910766 175.062804 
L 183.02003 150.699369 
L 183.142644 150.699369 
L 183.216339 166.941659 
L 183.231707 158.820514 
L 183.402953 150.699369 
L 183.578879 150.699369 
L 183.604874 142.578225 
L 183.685202 150.699369 
L 183.837057 150.699369 
L 183.938152 175.062804 
L 184.157826 175.062804 
L 184.263707 183.183949 
L 184.364347 166.941659 
L 184.980436 166.941659 
L 185.106102 175.062804 
L 185.162988 175.062804 
L 185.277452 183.183949 
L 185.358524 175.062804 
L 185.42378 183.183949 
L 185.535175 183.183949 
L 185.583455 175.062804 
L 185.712036 175.062804 
L 185.873453 191.305093 
L 186.507483 191.305093 
L 186.628312 183.183949 
L 186.840824 183.183949 
L 186.91387 191.305093 
L 186.926682 183.183949 
L 187.098152 183.183949 
L 187.113108 166.941659 
L 187.224544 175.062804 
L 187.434973 175.062804 
L 187.513879 166.941659 
L 187.6151 166.941659 
L 187.619399 175.062804 
L 187.698683 150.699369 
L 187.811957 150.699369 
L 187.889017 142.578225 
L 187.916925 150.699369 
L 188.099331 150.699369 
L 188.202301 166.941659 
L 188.254452 158.820514 
L 188.311221 166.941659 
L 188.313668 166.941659 
L 188.464065 183.183949 
L 189.06418 183.183949 
L 189.210673 158.820514 
L 189.369117 166.941659 
L 189.402028 166.941659 
L 189.516654 150.699369 
L 189.746916 142.578225 
L 189.794065 142.578225 
L 189.853049 126.335935 
L 189.918865 126.335935 
L 190.016188 118.21479 
L 190.018824 126.335935 
L 190.0299 134.45708 
L 190.097264 118.21479 
L 190.1105 126.335935 
L 190.157198 126.335935 
L 190.325732 142.578225 
L 190.349831 134.45708 
L 190.389046 150.699369 
L 190.409846 150.699369 
L 190.498317 150.699369 
L 190.557597 158.820514 
L 190.617792 158.820514 
L 190.904633 175.062804 
L 190.915333 166.941659 
L 190.962281 175.062804 
L 191.087567 166.941659 
L 191.153966 183.183949 
L 191.165227 166.941659 
L 191.248596 166.941659 
L 191.426887 175.062804 
L 191.433039 183.183949 
L 191.610251 183.183949 
L 191.739039 175.062804 
L 191.958265 175.062804 
L 192.017119 183.183949 
L 192.324744 183.183949 
L 192.360665 191.305093 
L 192.412433 183.183949 
L 192.64346 166.941659 
L 192.762925 158.820514 
L 192.85097 166.941659 
L 193.057461 166.941659 
L 193.090564 175.062804 
L 193.662972 175.062804 
L 193.933835 183.183949 
L 194.136256 175.062804 
L 194.202856 166.941659 
L 194.476033 158.820514 
L 194.588773 158.820514 
L 194.666497 150.699369 
L 194.673621 158.820514 
L 194.754884 158.820514 
L 194.940748 175.062804 
L 195.053547 166.941659 
L 195.16258 183.183949 
L 195.263106 166.941659 
L 195.295617 175.062804 
L 195.462672 158.820514 
L 195.548012 166.941659 
L 195.656775 158.820514 
L 195.773513 166.941659 
L 195.986847 166.941659 
L 196.292528 183.183949 
L 196.903698 175.062804 
L 197.033463 166.941659 
L 197.123895 175.062804 
L 197.350403 175.062804 
L 197.923239 166.941659 
L 198.103133 158.820514 
L 198.226152 166.941659 
L 198.360005 175.062804 
L 198.776758 175.062804 
L 198.866944 183.183949 
L 198.873008 175.062804 
L 198.986988 158.820514 
L 199.160097 166.941659 
L 199.242371 158.820514 
L 199.546871 158.820514 
L 199.633126 175.062804 
L 199.658751 166.941659 
L 199.798639 158.820514 
L 200.068865 158.820514 
L 200.181856 166.941659 
L 200.372798 166.941659 
L 200.667051 183.183949 
L 201.162548 175.062804 
L 201.238775 166.941659 
L 201.244104 175.062804 
L 201.332805 175.062804 
L 201.335175 183.183949 
L 201.7036 166.941659 
L 201.784241 166.941659 
L 202.02307 175.062804 
L 202.340957 191.305093 
L 202.986143 191.305093 
L 203.052438 183.183949 
L 203.375798 183.183949 
L 203.669135 175.062804 
L 203.730258 175.062804 
L 203.738151 166.941659 
L 203.786954 183.183949 
L 203.795923 183.183949 
L 203.985761 175.062804 
L 204.076501 183.183949 
L 204.236087 175.062804 
L 204.336593 158.820514 
L 204.363367 166.941659 
L 204.428857 166.941659 
L 204.477936 158.820514 
L 204.882064 183.183949 
L 205.32306 183.183949 
L 206.542518 191.305093 
L 206.993251 191.305093 
L 207.622116 183.183949 
L 207.703065 191.305093 
L 208.046752 191.305093 
L 208.262565 183.183949 
L 208.609405 183.183949 
L 208.615212 191.305093 
L 211.599038 191.305093 
L 211.880494 175.062804 
L 211.936977 175.062804 
L 212.036167 183.183949 
L 212.246638 183.183949 
L 212.835666 191.305093 
L 213.126333 183.183949 
L 213.224407 175.062804 
L 213.371143 191.305093 
L 213.622531 191.305093 
L 213.789429 183.183949 
L 213.906545 183.183949 
L 213.973665 191.305093 
L 214.450824 183.183949 
L 214.464807 183.183949 
L 214.517907 175.062804 
L 214.548683 183.183949 
L 214.70953 183.183949 
L 214.816131 175.062804 
L 214.967613 183.183949 
L 215.298254 183.183949 
L 215.446365 175.062804 
L 215.582293 183.183949 
L 215.741768 158.820514 
L 215.962519 158.820514 
L 216.051426 150.699369 
L 216.343184 175.062804 
L 216.387917 175.062804 
L 216.45831 166.941659 
L 216.669868 166.941659 
L 216.736182 158.820514 
L 216.90675 150.699369 
L 216.978307 175.062804 
L 217.012212 166.941659 
L 217.236557 175.062804 
L 217.348866 166.941659 
L 217.431324 158.820514 
L 217.626286 175.062804 
L 217.789176 166.941659 
L 217.792049 158.820514 
L 218.004782 158.820514 
L 218.143788 166.941659 
L 218.266801 166.941659 
L 218.275692 175.062804 
L 218.536401 183.183949 
L 218.790307 183.183949 
L 218.991107 191.305093 
L 220.219563 191.305093 
L 220.45378 183.183949 
L 220.659987 175.062804 
L 220.684439 183.183949 
L 220.891895 191.305093 
L 221.106125 191.305093 
L 221.49229 183.183949 
L 221.653649 166.941659 
L 221.766559 158.820514 
L 221.864109 175.062804 
L 222.072599 175.062804 
L 222.080316 183.183949 
L 222.303152 191.305093 
L 242.823258 191.305093 
L 243.165572 183.183949 
L 243.362733 166.941659 
L 243.505863 175.062804 
L 243.639889 166.941659 
L 243.761664 166.941659 
L 243.9297 183.183949 
L 244.162708 191.305093 
L 246.521948 191.305093 
L 246.67722 183.183949 
L 246.883811 183.183949 
L 246.946563 191.305093 
L 248.399931 191.305093 
L 248.654843 183.183949 
L 248.764349 183.183949 
L 248.865902 175.062804 
L 249.387981 175.062804 
L 249.604557 183.183949 
L 249.73001 191.305093 
L 251.49534 191.305093 
L 251.775228 175.062804 
L 251.870745 183.183949 
L 252.164385 158.820514 
L 252.225352 166.941659 
L 252.44976 175.062804 
L 252.55486 166.941659 
L 252.837755 183.183949 
L 253.032585 183.183949 
L 253.134111 191.305093 
L 260.531535 191.305093 
L 260.574397 183.183949 
L 260.794181 175.062804 
L 260.961917 183.183949 
L 261.331999 183.183949 
L 261.528947 166.941659 
L 261.638251 191.305093 
L 262.656746 191.305093 
L 262.869194 183.183949 
L 263.028475 191.305093 
L 271.319436 191.305093 
L 271.823536 183.183949 
L 271.967367 166.941659 
L 271.998614 166.941659 
L 272.095064 175.062804 
L 272.488918 183.183949 
L 273.236618 183.183949 
L 273.890747 191.305093 
L 288.079245 191.305093 
L 288.266076 175.062804 
L 288.402737 183.183949 
L 288.653892 183.183949 
L 288.816908 191.305093 
L 312.422447 191.305093 
L 312.422447 191.305093 
" clip-path="url(#p94c7512197)" style="fill: none; stroke: #000000; stroke-width: 1.5; stroke-linecap: square"/>
   </g>
   <g id="patch_8">
    <path d="M 44.103906 195.365666 
L 44.103906 106.033073 
" style="fill: none; stroke: #000000; stroke-width: 0.8; stroke-linejoin: miter; stroke-linecap: square"/>
   </g>
   <g id="patch_9">
    <path d="M 325.19952 195.365666 
L 325.19952 106.033073 
" style="fill: none; stroke: #000000; stroke-width: 0.8; stroke-linejoin: miter; stroke-linecap: square"/>
   </g>
   <g id="patch_10">
    <path d="M 44.103906 195.365666 
L 325.19952 195.365666 
" style="fill: none; stroke: #000000; stroke-width: 0.8; stroke-linejoin: miter; stroke-linecap: square"/>
   </g>
   <g id="patch_11">
    <path d="M 44.103906 106.033073 
L 325.19952 106.033073 
" style="fill: none; stroke: #000000; stroke-width: 0.8; stroke-linejoin: miter; stroke-linecap: square"/>
   </g>
  </g>
  <g id="axes_3">
   <g id="patch_12">
    <path d="M 44.103906 294.198739 
L 325.19952 294.198739 
L 325.19952 204.866146 
L 44.103906 204.866146 
z
" style="fill: #ffffff"/>
   </g>
   <g id="matplotlib.axis_5">
    <g id="xtick_11">
     <g id="line2d_19">
      <g>
       <use xlink:href="#m0d432bdc26" x="56.88098" y="294.198739" style="stroke: #000000; stroke-width: 0.8"/>
      </g>
     </g>
     <g id="text_9">
      <!-- 0 -->
      <g transform="translate(53.69973 308.796395) scale(0.1 -0.1)">
       <use xlink:href="#DejaVuSans-13"/>
      </g>
     </g>
    </g>
    <g id="xtick_12">
     <g id="line2d_20">
      <g>
       <use xlink:href="#m0d432bdc26" x="117.803957" y="294.198739" style="stroke: #000000; stroke-width: 0.8"/>
      </g>
     </g>
     <g id="text_10">
      <!-- 200 -->
      <g transform="translate(108.260207 308.796395) scale(0.1 -0.1)">
       <defs>
        <path id="DejaVuSans-15" d="M 1228 531 
L 3431 531 
L 3431 0 
L 469 0 
L 469 531 
Q 828 903 1448 1529 
Q 2069 2156 2228 2338 
Q 2531 2678 2651 2914 
Q 2772 3150 2772 3378 
Q 2772 3750 2511 3984 
Q 2250 4219 1831 4219 
Q 1534 4219 1204 4116 
Q 875 4013 500 3803 
L 500 4441 
Q 881 4594 1212 4672 
Q 1544 4750 1819 4750 
Q 2544 4750 2975 4387 
Q 3406 4025 3406 3419 
Q 3406 3131 3298 2873 
Q 3191 2616 2906 2266 
Q 2828 2175 2409 1742 
Q 1991 1309 1228 531 
z
" transform="scale(0.015625)"/>
       </defs>
       <use xlink:href="#DejaVuSans-15"/>
       <use xlink:href="#DejaVuSans-13" transform="translate(63.625 0)"/>
       <use xlink:href="#DejaVuSans-13" transform="translate(127.25 0)"/>
      </g>
     </g>
    </g>
    <g id="xtick_13">
     <g id="line2d_21">
      <g>
       <use xlink:href="#m0d432bdc26" x="178.726935" y="294.198739" style="stroke: #000000; stroke-width: 0.8"/>
      </g>
     </g>
     <g id="text_11">
      <!-- 400 -->
      <g transform="translate(169.183185 308.796395) scale(0.1 -0.1)">
       <defs>
        <path id="DejaVuSans-17" d="M 2419 4116 
L 825 1625 
L 2419 1625 
L 2419 4116 
z
M 2253 4666 
L 3047 4666 
L 3047 1625 
L 3713 1625 
L 3713 1100 
L 3047 1100 
L 3047 0 
L 2419 0 
L 2419 1100 
L 313 1100 
L 313 1709 
L 2253 4666 
z
" transform="scale(0.015625)"/>
       </defs>
       <use xlink:href="#DejaVuSans-17"/>
       <use xlink:href="#DejaVuSans-13" transform="translate(63.625 0)"/>
       <use xlink:href="#DejaVuSans-13" transform="translate(127.25 0)"/>
      </g>
     </g>
    </g>
    <g id="xtick_14">
     <g id="line2d_22">
      <g>
       <use xlink:href="#m0d432bdc26" x="239.649913" y="294.198739" style="stroke: #000000; stroke-width: 0.8"/>
      </g>
     </g>
     <g id="text_12">
      <!-- 600 -->
      <g transform="translate(230.106163 308.796395) scale(0.1 -0.1)">
       <defs>
        <path id="DejaVuSans-19" d="M 2113 2584 
Q 1688 2584 1439 2293 
Q 1191 2003 1191 1497 
Q 1191 994 1439 701 
Q 1688 409 2113 409 
Q 2538 409 2786 701 
Q 3034 994 3034 1497 
Q 3034 2003 2786 2293 
Q 2538 2584 2113 2584 
z
M 3366 4563 
L 3366 3988 
Q 3128 4100 2886 4159 
Q 2644 4219 2406 4219 
Q 1781 4219 1451 3797 
Q 1122 3375 1075 2522 
Q 1259 2794 1537 2939 
Q 1816 3084 2150 3084 
Q 2853 3084 3261 2657 
Q 3669 2231 3669 1497 
Q 3669 778 3244 343 
Q 2819 -91 2113 -91 
Q 1303 -91 875 529 
Q 447 1150 447 2328 
Q 447 3434 972 4092 
Q 1497 4750 2381 4750 
Q 2619 4750 2861 4703 
Q 3103 4656 3366 4563 
z
" transform="scale(0.015625)"/>
       </defs>
       <use xlink:href="#DejaVuSans-19"/>
       <use xlink:href="#DejaVuSans-13" transform="translate(63.625 0)"/>
       <use xlink:href="#DejaVuSans-13" transform="translate(127.25 0)"/>
      </g>
     </g>
    </g>
    <g id="xtick_15">
     <g id="line2d_23">
      <g>
       <use xlink:href="#m0d432bdc26" x="300.57289" y="294.198739" style="stroke: #000000; stroke-width: 0.8"/>
      </g>
     </g>
     <g id="text_13">
      <!-- 800 -->
      <g transform="translate(291.02914 308.796395) scale(0.1 -0.1)">
       <defs>
        <path id="DejaVuSans-1b" d="M 2034 2216 
Q 1584 2216 1326 1975 
Q 1069 1734 1069 1313 
Q 1069 891 1326 650 
Q 1584 409 2034 409 
Q 2484 409 2743 651 
Q 3003 894 3003 1313 
Q 3003 1734 2745 1975 
Q 2488 2216 2034 2216 
z
M 1403 2484 
Q 997 2584 770 2862 
Q 544 3141 544 3541 
Q 544 4100 942 4425 
Q 1341 4750 2034 4750 
Q 2731 4750 3128 4425 
Q 3525 4100 3525 3541 
Q 3525 3141 3298 2862 
Q 3072 2584 2669 2484 
Q 3125 2378 3379 2068 
Q 3634 1759 3634 1313 
Q 3634 634 3220 271 
Q 2806 -91 2034 -91 
Q 1263 -91 848 271 
Q 434 634 434 1313 
Q 434 1759 690 2068 
Q 947 2378 1403 2484 
z
M 1172 3481 
Q 1172 3119 1398 2916 
Q 1625 2713 2034 2713 
Q 2441 2713 2670 2916 
Q 2900 3119 2900 3481 
Q 2900 3844 2670 4047 
Q 2441 4250 2034 4250 
Q 1625 4250 1398 4047 
Q 1172 3844 1172 3481 
z
" transform="scale(0.015625)"/>
       </defs>
       <use xlink:href="#DejaVuSans-1b"/>
       <use xlink:href="#DejaVuSans-13" transform="translate(63.625 0)"/>
       <use xlink:href="#DejaVuSans-13" transform="translate(127.25 0)"/>
      </g>
     </g>
    </g>
    <g id="text_14">
     <!-- Time -->
     <g transform="translate(172.415776 322.797176) scale(0.1 -0.1)">
      <defs>
       <path id="DejaVuSans-37" d="M -19 4666 
L 3928 4666 
L 3928 4134 
L 2272 4134 
L 2272 0 
L 1638 0 
L 1638 4134 
L -19 4134 
L -19 4666 
z
" transform="scale(0.015625)"/>
       <path id="DejaVuSans-4c" d="M 603 3500 
L 1178 3500 
L 1178 0 
L 603 0 
L 603 3500 
z
M 603 4863 
L 1178 4863 
L 1178 4134 
L 603 4134 
L 603 4863 
z
" transform="scale(0.015625)"/>
       <path id="DejaVuSans-50" d="M 3328 2828 
Q 3544 3216 3844 3400 
Q 4144 3584 4550 3584 
Q 5097 3584 5394 3201 
Q 5691 2819 5691 2113 
L 5691 0 
L 5113 0 
L 5113 2094 
Q 5113 2597 4934 2840 
Q 4756 3084 4391 3084 
Q 3944 3084 3684 2787 
Q 3425 2491 3425 1978 
L 3425 0 
L 2847 0 
L 2847 2094 
Q 2847 2600 2669 2842 
Q 2491 3084 2119 3084 
Q 1678 3084 1418 2786 
Q 1159 2488 1159 1978 
L 1159 0 
L 581 0 
L 581 3500 
L 1159 3500 
L 1159 2956 
Q 1356 3278 1631 3431 
Q 1906 3584 2284 3584 
Q 2666 3584 2933 3390 
Q 3200 3197 3328 2828 
z
" transform="scale(0.015625)"/>
      </defs>
      <use xlink:href="#DejaVuSans-37"/>
      <use xlink:href="#DejaVuSans-4c" transform="translate(58 0)"/>
      <use xlink:href="#DejaVuSans-50" transform="translate(85.78125 0)"/>
      <use xlink:href="#DejaVuSans-48" transform="translate(183.1875 0)"/>
     </g>
    </g>
   </g>
   <g id="matplotlib.axis_6">
    <g id="ytick_7">
     <g id="line2d_24">
      <g>
       <use xlink:href="#me777f090e3" x="44.103906" y="290.138166" style="stroke: #000000; stroke-width: 0.8"/>
      </g>
     </g>
     <g id="text_15">
      <!-- 0.0 -->
      <g transform="translate(21.200781 293.936994) scale(0.1 -0.1)">
       <defs>
        <path id="DejaVuSans-11" d="M 684 794 
L 1344 794 
L 1344 0 
L 684 0 
L 684 794 
z
" transform="scale(0.015625)"/>
       </defs>
       <use xlink:href="#DejaVuSans-13"/>
       <use xlink:href="#DejaVuSans-11" transform="translate(63.625 0)"/>
       <use xlink:href="#DejaVuSans-13" transform="translate(95.40625 0)"/>
      </g>
     </g>
    </g>
    <g id="ytick_8">
     <g id="line2d_25">
      <g>
       <use xlink:href="#me777f090e3" x="44.103906" y="249.532442" style="stroke: #000000; stroke-width: 0.8"/>
      </g>
     </g>
     <g id="text_16">
      <!-- 0.5 -->
      <g transform="translate(21.200781 253.33127) scale(0.1 -0.1)">
       <use xlink:href="#DejaVuSans-13"/>
       <use xlink:href="#DejaVuSans-11" transform="translate(63.625 0)"/>
       <use xlink:href="#DejaVuSans-18" transform="translate(95.40625 0)"/>
      </g>
     </g>
    </g>
    <g id="ytick_9">
     <g id="line2d_26">
      <g>
       <use xlink:href="#me777f090e3" x="44.103906" y="208.926718" style="stroke: #000000; stroke-width: 0.8"/>
      </g>
     </g>
     <g id="text_17">
      <!-- 1.0 -->
      <g transform="translate(21.200781 212.725546) scale(0.1 -0.1)">
       <use xlink:href="#DejaVuSans-14"/>
       <use xlink:href="#DejaVuSans-11" transform="translate(63.625 0)"/>
       <use xlink:href="#DejaVuSans-13" transform="translate(95.40625 0)"/>
      </g>
     </g>
    </g>
    <g id="text_18">
     <!-- Free lac operon -->
     <g transform="translate(14.798438 288.006661) rotate(-90) scale(0.1 -0.1)">
      <defs>
       <path id="DejaVuSans-29" d="M 628 4666 
L 3309 4666 
L 3309 4134 
L 1259 4134 
L 1259 2759 
L 3109 2759 
L 3109 2228 
L 1259 2228 
L 1259 0 
L 628 0 
L 628 4666 
z
" transform="scale(0.015625)"/>
       <path id="DejaVuSans-53" d="M 1159 525 
L 1159 -1331 
L 581 -1331 
L 581 3500 
L 1159 3500 
L 1159 2969 
Q 1341 3281 1617 3432 
Q 1894 3584 2278 3584 
Q 2916 3584 3314 3078 
Q 3713 2572 3713 1747 
Q 3713 922 3314 415 
Q 2916 -91 2278 -91 
Q 1894 -91 1617 61 
Q 1341 213 1159 525 
z
M 3116 1747 
Q 3116 2381 2855 2742 
Q 2594 3103 2138 3103 
Q 1681 3103 1420 2742 
Q 1159 2381 1159 1747 
Q 1159 1113 1420 752 
Q 1681 391 2138 391 
Q 2594 391 2855 752 
Q 3116 1113 3116 1747 
z
" transform="scale(0.015625)"/>
       <path id="DejaVuSans-51" d="M 3513 2113 
L 3513 0 
L 2938 0 
L 2938 2094 
Q 2938 2591 2744 2837 
Q 2550 3084 2163 3084 
Q 1697 3084 1428 2787 
Q 1159 2491 1159 1978 
L 1159 0 
L 581 0 
L 581 3500 
L 1159 3500 
L 1159 2956 
Q 1366 3272 1645 3428 
Q 1925 3584 2291 3584 
Q 2894 3584 3203 3211 
Q 3513 2838 3513 2113 
z
" transform="scale(0.015625)"/>
      </defs>
      <use xlink:href="#DejaVuSans-29"/>
      <use xlink:href="#DejaVuSans-55" transform="translate(50.234375 0)"/>
      <use xlink:href="#DejaVuSans-48" transform="translate(89.140625 0)"/>
      <use xlink:href="#DejaVuSans-48" transform="translate(150.671875 0)"/>
      <use xlink:href="#DejaVuSans-3" transform="translate(212.203125 0)"/>
      <use xlink:href="#DejaVuSans-4f" transform="translate(243.984375 0)"/>
      <use xlink:href="#DejaVuSans-44" transform="translate(271.765625 0)"/>
      <use xlink:href="#DejaVuSans-46" transform="translate(333.046875 0)"/>
      <use xlink:href="#DejaVuSans-3" transform="translate(388.03125 0)"/>
      <use xlink:href="#DejaVuSans-52" transform="translate(419.8125 0)"/>
      <use xlink:href="#DejaVuSans-53" transform="translate(481 0)"/>
      <use xlink:href="#DejaVuSans-48" transform="translate(544.484375 0)"/>
      <use xlink:href="#DejaVuSans-55" transform="translate(606.015625 0)"/>
      <use xlink:href="#DejaVuSans-52" transform="translate(644.921875 0)"/>
      <use xlink:href="#DejaVuSans-51" transform="translate(706.109375 0)"/>
     </g>
    </g>
   </g>
   <g id="line2d_27">
    <path d="M 56.88098 208.926718 
L 56.958889 290.138166 
L 57.119735 290.138166 
L 57.281815 208.926718 
L 57.394756 208.926718 
L 57.492372 290.138166 
L 58.654861 290.138166 
L 59.600932 208.926718 
L 59.779034 208.926718 
L 59.800773 290.138166 
L 62.115139 290.138166 
L 64.594923 208.926718 
L 64.876779 208.926718 
L 65.008145 290.138166 
L 65.128451 290.138166 
L 71.496251 208.926718 
L 71.658532 290.138166 
L 79.151436 208.926718 
L 79.198304 290.138166 
L 81.70862 208.926718 
L 81.842419 208.926718 
L 81.894186 290.138166 
L 83.557555 290.138166 
L 83.620095 208.926718 
L 84.457631 208.926718 
L 84.639206 290.138166 
L 85.626369 290.138166 
L 88.486616 208.926718 
L 89.002738 208.926718 
L 89.030722 290.138166 
L 89.3728 290.138166 
L 90.21521 208.926718 
L 90.271072 290.138166 
L 90.599706 290.138166 
L 106.919343 208.926718 
L 106.932439 290.138166 
L 107.179471 290.138166 
L 107.443385 208.926718 
L 107.718029 290.138166 
L 107.840433 208.926718 
L 108.230146 208.926718 
L 108.425678 290.138166 
L 108.705374 290.138166 
L 112.68339 208.926718 
L 113.314787 290.138166 
L 114.884175 208.926718 
L 115.185459 290.138166 
L 115.828133 208.926718 
L 115.911594 290.138166 
L 116.876295 208.926718 
L 116.957447 290.138166 
L 120.725823 290.138166 
L 126.478361 208.926718 
L 126.57962 290.138166 
L 128.244804 208.926718 
L 128.675651 208.926718 
L 128.696142 290.138166 
L 130.455007 290.138166 
L 132.9358 208.926718 
L 132.948519 290.138166 
L 135.7021 208.926718 
L 135.74294 290.138166 
L 142.474595 208.926718 
L 143.377135 208.926718 
L 143.442425 290.138166 
L 144.031576 290.138166 
L 144.265766 208.926718 
L 144.566712 208.926718 
L 144.67447 290.138166 
L 145.697704 290.138166 
L 146.186504 208.926718 
L 146.282798 290.138166 
L 147.354285 290.138166 
L 147.365104 208.926718 
L 147.519493 290.138166 
L 151.637336 208.926718 
L 151.722334 290.138166 
L 151.960619 208.926718 
L 202.279888 208.926718 
L 202.391632 290.138166 
L 203.052438 208.926718 
L 204.666829 208.926718 
L 204.796293 290.138166 
L 206.542518 290.138166 
L 206.858191 208.926718 
L 208.608267 208.926718 
L 208.615212 290.138166 
L 211.70181 208.926718 
L 217.996992 208.926718 
L 218.004782 290.138166 
L 218.991107 290.138166 
L 220.219563 208.926718 
L 221.864109 208.926718 
L 222.080316 290.138166 
L 229.085532 290.138166 
L 242.823258 208.926718 
L 243.639889 208.926718 
L 243.848071 290.138166 
L 244.417654 290.138166 
L 246.61028 208.926718 
L 246.67722 208.926718 
L 246.946563 290.138166 
L 247.368624 208.926718 
L 247.671679 290.138166 
L 248.399931 208.926718 
L 248.775403 208.926718 
L 248.865902 290.138166 
L 249.848728 290.138166 
L 251.49534 208.926718 
L 252.660408 208.926718 
L 252.722183 290.138166 
L 253.134111 290.138166 
L 260.054077 208.926718 
L 260.473184 290.138166 
L 260.574397 208.926718 
L 260.917577 208.926718 
L 260.961917 290.138166 
L 261.381575 208.926718 
L 261.512747 208.926718 
L 261.638251 290.138166 
L 261.819716 290.138166 
L 261.827344 208.926718 
L 261.877524 290.138166 
L 262.264 290.138166 
L 262.656746 208.926718 
L 262.937477 208.926718 
L 263.028475 290.138166 
L 264.620666 208.926718 
L 264.700382 290.138166 
L 271.319436 208.926718 
L 271.967367 208.926718 
L 272.095064 290.138166 
L 273.890747 290.138166 
L 279.277155 208.926718 
L 279.822184 290.138166 
L 288.079245 208.926718 
L 288.341122 208.926718 
L 288.402737 290.138166 
L 288.750287 290.138166 
L 288.816908 208.926718 
L 288.91597 290.138166 
L 289.203104 290.138166 
L 298.817676 208.926718 
L 298.992224 290.138166 
L 299.915041 208.926718 
L 300.00685 290.138166 
L 312.422447 208.926718 
L 312.422447 208.926718 
" clip-path="url(#p1e2dca0bee)" style="fill: none; stroke: #000000; stroke-width: 1.5; stroke-linecap: square"/>
   </g>
   <g id="patch_13">
    <path d="M 44.103906 294.198739 
L 44.103906 204.866146 
" style="fill: none; stroke: #000000; stroke-width: 0.8; stroke-linejoin: miter; stroke-linecap: square"/>
   </g>
   <g id="patch_14">
    <path d="M 325.19952 294.198739 
L 325.19952 204.866146 
" style="fill: none; stroke: #000000; stroke-width: 0.8; stroke-linejoin: miter; stroke-linecap: square"/>
   </g>
   <g id="patch_15">
    <path d="M 44.103906 294.198739 
L 325.19952 294.198739 
" style="fill: none; stroke: #000000; stroke-width: 0.8; stroke-linejoin: miter; stroke-linecap: square"/>
   </g>
   <g id="patch_16">
    <path d="M 44.103906 204.866146 
L 325.19952 204.866146 
" style="fill: none; stroke: #000000; stroke-width: 0.8; stroke-linejoin: miter; stroke-linecap: square"/>
   </g>
  </g>
 </g>
 <defs>
  <clipPath id="p1e7dfa7c97">
   <rect x="44.103906" y="7.2" width="281.095614" height="89.332593"/>
  </clipPath>
  <clipPath id="p94c7512197">
   <rect x="44.103906" y="106.033073" width="281.095614" height="89.332593"/>
  </clipPath>
  <clipPath id="p1e2dca0bee">
   <rect x="44.103906" y="204.866146" width="281.095614" height="89.332593"/>
  </clipPath>
 </defs>
</svg>
