<?xml version="1.0" encoding="utf-8" standalone="no"?>
<!DOCTYPE svg PUBLIC "-//W3C//DTD SVG 1.1//EN"
  "http://www.w3.org/Graphics/SVG/1.1/DTD/svg11.dtd">
<svg xmlns:xlink="http://www.w3.org/1999/xlink" width="332.39952pt" height="332.39952pt" viewBox="0 0 332.39952 332.39952" xmlns="http://www.w3.org/2000/svg" version="1.1">
 <metadata>
  <rdf:RDF xmlns:dc="http://purl.org/dc/elements/1.1/" xmlns:cc="http://creativecommons.org/ns#" xmlns:rdf="http://www.w3.org/1999/02/22-rdf-syntax-ns#">
   <cc:Work>
    <dc:type rdf:resource="http://purl.org/dc/dcmitype/StillImage"/>
    <dc:date>2026-07-13T13:50:06.585830</dc:date>
    <dc:format>image/svg+xml</dc:format>
    <dc:creator>
     <cc:Agent>
      <dc:title>Matplotlib v3.11.0, https://matplotlib.org/</dc:title>
     </cc:Agent>
    </dc:creator>
   </cc:Work>
  </rdf:RDF>
 </metadata>
 <defs>
  <style type="text/css">*{stroke-linejoin: round; stroke-linecap: butt}</style>
 </defs>
 <g id="figure_1">
  <g id="patch_1">
   <path d="M 0 332.39952 
L 332.39952 332.39952 
L 332.39952 0 
L 0 0 
z
" style="fill: #ffffff"/>
  </g>
  <g id="axes_1">
   <g id="patch_2">
    <path d="M 44.103906 96.532593 
L 325.19952 96.532593 
L 325.19952 7.2 
L 44.103906 7.2 
z
" style="fill: #ffffff"/>
   </g>
   <g id="matplotlib.axis_1">
    <g id="xtick_1">
     <g id="line2d_1">
      <defs>
       <path id="m75bdbd2816" d="M 0 0 
L 0 3.5 
" style="stroke: #000000; stroke-width: 0.8"/>
      </defs>
      <g>
       <use xlink:href="#m75bdbd2816" x="56.88098" y="96.532593" style="stroke: #000000; stroke-width: 0.8"/>
      </g>
     </g>
    </g>
    <g id="xtick_2">
     <g id="line2d_2">
      <g>
       <use xlink:href="#m75bdbd2816" x="118.730302" y="96.532593" style="stroke: #000000; stroke-width: 0.8"/>
      </g>
     </g>
    </g>
    <g id="xtick_3">
     <g id="line2d_3">
      <g>
       <use xlink:href="#m75bdbd2816" x="180.579623" y="96.532593" style="stroke: #000000; stroke-width: 0.8"/>
      </g>
     </g>
    </g>
    <g id="xtick_4">
     <g id="line2d_4">
      <g>
       <use xlink:href="#m75bdbd2816" x="242.428945" y="96.532593" style="stroke: #000000; stroke-width: 0.8"/>
      </g>
     </g>
    </g>
    <g id="xtick_5">
     <g id="line2d_5">
      <g>
       <use xlink:href="#m75bdbd2816" x="304.278267" y="96.532593" style="stroke: #000000; stroke-width: 0.8"/>
      </g>
     </g>
    </g>
   </g>
   <g id="matplotlib.axis_2">
    <g id="ytick_1">
     <g id="line2d_6">
      <defs>
       <path id="ma6efa5b0b7" d="M 0 0 
L -3.5 0 
" style="stroke: #000000; stroke-width: 0.8"/>
      </defs>
      <g>
       <use xlink:href="#ma6efa5b0b7" x="44.103906" y="92.472021" style="stroke: #000000; stroke-width: 0.8"/>
      </g>
     </g>
     <g id="text_1">
      <!-- 0 -->
      <g transform="translate(30.741406 96.270849) scale(0.1 -0.1)">
       <defs>
        <path id="DejaVuSans-13" d="M 2034 4250 
Q 1547 4250 1301 3770 
Q 1056 3291 1056 2328 
Q 1056 1369 1301 889 
Q 1547 409 2034 409 
Q 2525 409 2770 889 
Q 3016 1369 3016 2328 
Q 3016 3291 2770 3770 
Q 2525 4250 2034 4250 
z
M 2034 4750 
Q 2819 4750 3233 4129 
Q 3647 3509 3647 2328 
Q 3647 1150 3233 529 
Q 2819 -91 2034 -91 
Q 1250 -91 836 529 
Q 422 1150 422 2328 
Q 422 3509 836 4129 
Q 1250 4750 2034 4750 
z
" transform="scale(0.015625)"/>
       </defs>
       <use xlink:href="#DejaVuSans-13"/>
      </g>
     </g>
    </g>
    <g id="ytick_2">
     <g id="line2d_7">
      <g>
       <use xlink:href="#ma6efa5b0b7" x="44.103906" y="51.866296" style="stroke: #000000; stroke-width: 0.8"/>
      </g>
     </g>
     <g id="text_2">
      <!-- 5 -->
      <g transform="translate(30.741406 55.665125) scale(0.1 -0.1)">
       <defs>
        <path id="DejaVuSans-18" d="M 691 4666 
L 3169 4666 
L 3169 4134 
L 1269 4134 
L 1269 2991 
Q 1406 3038 1543 3061 
Q 1681 3084 1819 3084 
Q 2600 3084 3056 2656 
Q 3513 2228 3513 1497 
Q 3513 744 3044 326 
Q 2575 -91 1722 -91 
Q 1428 -91 1123 -41 
Q 819 9 494 109 
L 494 744 
Q 775 591 1075 516 
Q 1375 441 1709 441 
Q 2250 441 2565 725 
Q 2881 1009 2881 1497 
Q 2881 1984 2565 2268 
Q 2250 2553 1709 2553 
Q 1456 2553 1204 2497 
Q 953 2441 691 2322 
L 691 4666 
z
" transform="scale(0.015625)"/>
       </defs>
       <use xlink:href="#DejaVuSans-18"/>
      </g>
     </g>
    </g>
    <g id="ytick_3">
     <g id="line2d_8">
      <g>
       <use xlink:href="#ma6efa5b0b7" x="44.103906" y="11.260572" style="stroke: #000000; stroke-width: 0.8"/>
      </g>
     </g>
     <g id="text_3">
      <!-- 10 -->
      <g transform="translate(24.378906 15.059401) scale(0.1 -0.1)">
       <defs>
        <path id="DejaVuSans-14" d="M 794 531 
L 1825 531 
L 1825 4091 
L 703 3866 
L 703 4441 
L 1819 4666 
L 2450 4666 
L 2450 531 
L 3481 531 
L 3481 0 
L 794 0 
L 794 531 
z
" transform="scale(0.015625)"/>
       </defs>
       <use xlink:href="#DejaVuSans-14"/>
       <use xlink:href="#DejaVuSans-13" transform="translate(63.625 0)"/>
      </g>
     </g>
    </g>
    <g id="text_4">
     <!-- Extracellular lactose -->
     <g transform="translate(17.976563 102.838171) rotate(-90) scale(0.1 -0.1)">
      <defs>
       <path id="DejaVuSans-28" d="M 628 4666 
L 3578 4666 
L 3578 4134 
L 1259 4134 
L 1259 2753 
L 3481 2753 
L 3481 2222 
L 1259 2222 
L 1259 531 
L 3634 531 
L 3634 0 
L 628 0 
L 628 4666 
z
" transform="scale(0.015625)"/>
       <path id="DejaVuSans-5b" d="M 3513 3500 
L 2247 1797 
L 3578 0 
L 2900 0 
L 1881 1375 
L 863 0 
L 184 0 
L 1544 1831 
L 300 3500 
L 978 3500 
L 1906 2253 
L 2834 3500 
L 3513 3500 
z
" transform="scale(0.015625)"/>
       <path id="DejaVuSans-57" d="M 1172 4494 
L 1172 3500 
L 2356 3500 
L 2356 3053 
L 1172 3053 
L 1172 1153 
Q 1172 725 1289 603 
Q 1406 481 1766 481 
L 2356 481 
L 2356 0 
L 1766 0 
Q 1100 0 847 248 
Q 594 497 594 1153 
L 594 3053 
L 172 3053 
L 172 3500 
L 594 3500 
L 594 4494 
L 1172 4494 
z
" transform="scale(0.015625)"/>
       <path id="DejaVuSans-55" d="M 2631 2963 
Q 2534 3019 2420 3045 
Q 2306 3072 2169 3072 
Q 1681 3072 1420 2755 
Q 1159 2438 1159 1844 
L 1159 0 
L 581 0 
L 581 3500 
L 1159 3500 
L 1159 2956 
Q 1341 3275 1631 3429 
Q 1922 3584 2338 3584 
Q 2397 3584 2469 3576 
Q 2541 3569 2628 3553 
L 2631 2963 
z
" transform="scale(0.015625)"/>
       <path id="DejaVuSans-44" d="M 2194 1759 
Q 1497 1759 1228 1600 
Q 959 1441 959 1056 
Q 959 750 1161 570 
Q 1363 391 1709 391 
Q 2188 391 2477 730 
Q 2766 1069 2766 1631 
L 2766 1759 
L 2194 1759 
z
M 3341 1997 
L 3341 0 
L 2766 0 
L 2766 531 
Q 2569 213 2275 61 
Q 1981 -91 1556 -91 
Q 1019 -91 701 211 
Q 384 513 384 1019 
Q 384 1609 779 1909 
Q 1175 2209 1959 2209 
L 2766 2209 
L 2766 2266 
Q 2766 2663 2505 2880 
Q 2244 3097 1772 3097 
Q 1472 3097 1187 3025 
Q 903 2953 641 2809 
L 641 3341 
Q 956 3463 1253 3523 
Q 1550 3584 1831 3584 
Q 2591 3584 2966 3190 
Q 3341 2797 3341 1997 
z
" transform="scale(0.015625)"/>
       <path id="DejaVuSans-46" d="M 3122 3366 
L 3122 2828 
Q 2878 2963 2633 3030 
Q 2388 3097 2138 3097 
Q 1578 3097 1268 2742 
Q 959 2388 959 1747 
Q 959 1106 1268 751 
Q 1578 397 2138 397 
Q 2388 397 2633 464 
Q 2878 531 3122 666 
L 3122 134 
Q 2881 22 2623 -34 
Q 2366 -91 2075 -91 
Q 1284 -91 818 406 
Q 353 903 353 1747 
Q 353 2603 823 3093 
Q 1294 3584 2113 3584 
Q 2378 3584 2631 3529 
Q 2884 3475 3122 3366 
z
" transform="scale(0.015625)"/>
       <path id="DejaVuSans-48" d="M 3597 1894 
L 3597 1613 
L 953 1613 
Q 991 1019 1311 708 
Q 1631 397 2203 397 
Q 2534 397 2845 478 
Q 3156 559 3463 722 
L 3463 178 
Q 3153 47 2828 -22 
Q 2503 -91 2169 -91 
Q 1331 -91 842 396 
Q 353 884 353 1716 
Q 353 2575 817 3079 
Q 1281 3584 2069 3584 
Q 2775 3584 3186 3129 
Q 3597 2675 3597 1894 
z
M 3022 2063 
Q 3016 2534 2758 2815 
Q 2500 3097 2075 3097 
Q 1594 3097 1305 2825 
Q 1016 2553 972 2059 
L 3022 2063 
z
" transform="scale(0.015625)"/>
       <path id="DejaVuSans-4f" d="M 603 4863 
L 1178 4863 
L 1178 0 
L 603 0 
L 603 4863 
z
" transform="scale(0.015625)"/>
       <path id="DejaVuSans-58" d="M 544 1381 
L 544 3500 
L 1119 3500 
L 1119 1403 
Q 1119 906 1312 657 
Q 1506 409 1894 409 
Q 2359 409 2629 706 
Q 2900 1003 2900 1516 
L 2900 3500 
L 3475 3500 
L 3475 0 
L 2900 0 
L 2900 538 
Q 2691 219 2414 64 
Q 2138 -91 1772 -91 
Q 1169 -91 856 284 
Q 544 659 544 1381 
z
M 1991 3584 
L 1991 3584 
z
" transform="scale(0.015625)"/>
       <path id="DejaVuSans-3" transform="scale(0.015625)"/>
       <path id="DejaVuSans-52" d="M 1959 3097 
Q 1497 3097 1228 2736 
Q 959 2375 959 1747 
Q 959 1119 1226 758 
Q 1494 397 1959 397 
Q 2419 397 2687 759 
Q 2956 1122 2956 1747 
Q 2956 2369 2687 2733 
Q 2419 3097 1959 3097 
z
M 1959 3584 
Q 2709 3584 3137 3096 
Q 3566 2609 3566 1747 
Q 3566 888 3137 398 
Q 2709 -91 1959 -91 
Q 1206 -91 779 398 
Q 353 888 353 1747 
Q 353 2609 779 3096 
Q 1206 3584 1959 3584 
z
" transform="scale(0.015625)"/>
       <path id="DejaVuSans-56" d="M 2834 3397 
L 2834 2853 
Q 2591 2978 2328 3040 
Q 2066 3103 1784 3103 
Q 1356 3103 1142 2972 
Q 928 2841 928 2578 
Q 928 2378 1081 2264 
Q 1234 2150 1697 2047 
L 1894 2003 
Q 2506 1872 2764 1633 
Q 3022 1394 3022 966 
Q 3022 478 2636 193 
Q 2250 -91 1575 -91 
Q 1294 -91 989 -36 
Q 684 19 347 128 
L 347 722 
Q 666 556 975 473 
Q 1284 391 1588 391 
Q 1994 391 2212 530 
Q 2431 669 2431 922 
Q 2431 1156 2273 1281 
Q 2116 1406 1581 1522 
L 1381 1569 
Q 847 1681 609 1914 
Q 372 2147 372 2553 
Q 372 3047 722 3315 
Q 1072 3584 1716 3584 
Q 2034 3584 2315 3537 
Q 2597 3491 2834 3397 
z
" transform="scale(0.015625)"/>
      </defs>
      <use xlink:href="#DejaVuSans-28"/>
      <use xlink:href="#DejaVuSans-5b" transform="translate(63.1875 0)"/>
      <use xlink:href="#DejaVuSans-57" transform="translate(122.375 0)"/>
      <use xlink:href="#DejaVuSans-55" transform="translate(161.578125 0)"/>
      <use xlink:href="#DejaVuSans-44" transform="translate(202.6875 0)"/>
      <use xlink:href="#DejaVuSans-46" transform="translate(263.96875 0)"/>
      <use xlink:href="#DejaVuSans-48" transform="translate(318.953125 0)"/>
      <use xlink:href="#DejaVuSans-4f" transform="translate(380.484375 0)"/>
      <use xlink:href="#DejaVuSans-4f" transform="translate(408.265625 0)"/>
      <use xlink:href="#DejaVuSans-58" transform="translate(436.046875 0)"/>
      <use xlink:href="#DejaVuSans-4f" transform="translate(499.421875 0)"/>
      <use xlink:href="#DejaVuSans-44" transform="translate(527.203125 0)"/>
      <use xlink:href="#DejaVuSans-55" transform="translate(588.484375 0)"/>
      <use xlink:href="#DejaVuSans-3" transform="translate(629.59375 0)"/>
      <use xlink:href="#DejaVuSans-4f" transform="translate(661.375 0)"/>
      <use xlink:href="#DejaVuSans-44" transform="translate(689.15625 0)"/>
      <use xlink:href="#DejaVuSans-46" transform="translate(750.4375 0)"/>
      <use xlink:href="#DejaVuSans-57" transform="translate(805.421875 0)"/>
      <use xlink:href="#DejaVuSans-52" transform="translate(844.625 0)"/>
      <use xlink:href="#DejaVuSans-56" transform="translate(905.8125 0)"/>
      <use xlink:href="#DejaVuSans-48" transform="translate(957.90625 0)"/>
     </g>
    </g>
   </g>
   <g id="line2d_9">
    <path d="M 56.88098 92.472021 
L 153.078122 92.472021 
L 153.164413 11.260572 
L 153.811355 11.341784 
L 153.925335 11.66663 
L 153.968737 11.747841 
L 154.110325 13.209647 
L 154.228063 14.915088 
L 154.251907 14.996299 
L 154.377321 16.620528 
L 154.400129 16.701739 
L 154.893653 20.193832 
L 155.162147 20.599889 
L 155.219572 20.6811 
L 155.325308 20.762312 
L 155.761705 20.843523 
L 155.855514 21.249581 
L 156.088724 21.655638 
L 156.18602 22.061695 
L 156.302784 22.142906 
L 156.424567 22.630175 
L 156.431341 22.711387 
L 156.555424 23.685924 
L 156.713811 24.985307 
L 156.770099 25.066519 
L 156.893066 25.553787 
L 156.923345 25.634999 
L 157.023112 26.041056 
L 157.520974 29.776783 
L 157.641248 30.832531 
L 157.674189 30.913743 
L 157.819893 31.88828 
L 157.849045 31.969492 
L 157.956729 32.294337 
L 157.991555 32.375549 
L 158.115434 32.700395 
L 158.157667 33.106452 
L 158.321316 33.999778 
L 158.387878 34.080989 
L 158.578342 34.893104 
L 158.736088 34.974315 
L 158.882229 35.380372 
L 159.05907 35.624007 
L 159.598261 35.705218 
L 159.75076 36.192487 
L 159.775651 36.273698 
L 159.938873 36.679756 
L 160.143742 36.760967 
L 160.283449 37.329447 
L 160.436988 37.654293 
L 160.590462 38.06035 
L 160.730614 38.141562 
L 161.254026 39.440945 
L 161.538652 39.603368 
L 161.734855 39.684579 
L 161.849584 40.334271 
L 162.102028 40.983962 
L 162.233623 41.065174 
L 162.418465 41.796077 
L 162.463494 41.877288 
L 162.569119 42.202134 
L 162.752909 42.608191 
L 163.006959 42.689403 
L 163.116836 43.09546 
L 163.259725 43.501517 
L 163.341718 43.582729 
L 163.458115 43.988786 
L 163.675316 44.313632 
L 163.751204 44.394843 
L 164.059798 46.262707 
L 164.085531 46.343918 
L 164.197989 46.668764 
L 164.415801 47.237244 
L 164.522257 47.318455 
L 164.78521 47.968147 
L 165.05934 49.592376 
L 165.106601 49.673587 
L 165.216641 50.079645 
L 165.375739 50.40449 
L 165.515492 50.485702 
L 165.627165 50.648125 
L 165.91923 51.054182 
L 166.060558 51.135393 
L 166.173004 51.216605 
L 166.518519 51.297816 
L 166.915684 51.703874 
L 167.162379 51.785085 
L 167.319284 51.947508 
L 167.529973 52.028719 
L 167.696526 52.434777 
L 167.740025 52.515988 
L 168.598584 56.820195 
L 168.714289 57.875944 
L 169.300522 60.880767 
L 169.342998 60.961979 
L 169.462197 61.61167 
L 169.545377 61.692882 
L 169.704854 62.261362 
L 169.782846 62.342573 
L 170.351432 63.641956 
L 170.399258 63.723168 
L 170.496721 64.048014 
L 170.549112 64.129225 
L 170.665399 64.616494 
L 171.299617 67.458894 
L 171.343267 67.540106 
L 171.462949 67.702529 
L 171.560014 67.78374 
L 171.670958 68.271009 
L 171.717223 68.35222 
L 173.263318 72.737639 
L 173.393425 72.81885 
L 173.495945 73.143696 
L 173.667959 73.224907 
L 174.164371 74.118233 
L 174.327295 74.199445 
L 174.571223 74.52429 
L 174.673164 74.605502 
L 174.818291 74.767925 
L 175.506304 74.849136 
L 175.614175 75.011559 
L 175.649707 75.092771 
L 175.719606 75.173982 
L 175.809061 75.255194 
L 175.918707 75.336405 
L 177.302933 75.417616 
L 177.423155 75.742462 
L 177.460892 75.823674 
L 177.626895 76.067308 
L 177.701045 76.148519 
L 177.946207 76.473365 
L 178.199049 76.798211 
L 178.299912 77.041845 
L 178.547398 77.610326 
L 178.670234 77.691537 
L 179.098706 78.99092 
L 179.299721 79.072132 
L 179.419804 79.153343 
L 179.46865 79.234554 
L 179.579571 79.478189 
L 179.72178 79.5594 
L 180.393938 80.209092 
L 180.639081 80.452726 
L 180.723535 80.533938 
L 180.899099 80.777572 
L 180.957186 80.858783 
L 181.617834 81.995744 
L 181.718759 82.076955 
L 181.815252 82.239378 
L 182.154583 82.320589 
L 182.617661 83.051493 
L 182.731166 83.295127 
L 183.003242 83.376338 
L 183.083364 83.45755 
L 183.381186 83.944818 
L 183.515899 84.02603 
L 183.578584 84.107241 
L 183.753278 84.188453 
L 183.930442 84.432087 
L 184.333745 84.513299 
L 184.476657 84.675721 
L 184.708021 84.756933 
L 184.804738 84.838144 
L 185.160592 84.919356 
L 185.225057 85.000567 
L 185.668899 85.081779 
L 185.774882 85.16299 
L 185.978837 85.244202 
L 186.362469 85.406625 
L 186.84834 85.487836 
L 186.998136 85.893893 
L 187.191114 85.975105 
L 187.281035 86.29995 
L 187.396136 86.381162 
L 187.583151 86.462373 
L 187.710271 86.543585 
L 187.836135 86.706008 
L 188.235313 86.787219 
L 188.95817 87.193276 
L 189.105903 87.274488 
L 189.340428 87.355699 
L 189.57725 87.599334 
L 190.172844 87.680545 
L 190.253578 87.761757 
L 190.439592 87.842968 
L 190.586254 88.086602 
L 190.718641 88.167814 
L 190.830072 88.330237 
L 191.198696 88.411448 
L 191.338724 88.49266 
L 191.602654 88.573871 
L 191.842082 88.817505 
L 192.33559 88.898717 
L 192.44057 88.979928 
L 193.011318 89.06114 
L 193.112704 89.142351 
L 193.831745 89.223563 
L 194.037124 89.304774 
L 195.242059 89.385985 
L 195.511377 89.467197 
L 196.407953 89.548408 
L 196.485981 89.62962 
L 197.265358 89.710831 
L 197.427329 89.792043 
L 199.484307 89.873254 
L 199.782787 90.116889 
L 200.493349 90.1981 
L 200.518756 90.279311 
L 201.516154 90.360523 
L 201.62765 90.441734 
L 202.289674 90.522946 
L 202.334757 90.604157 
L 202.636119 90.685369 
L 206.742733 90.76658 
L 206.857033 90.929003 
L 217.766991 91.010214 
L 217.768853 91.091426 
L 218.733885 91.172637 
L 219.472045 91.253849 
L 221.693387 91.33506 
L 221.794169 91.416272 
L 221.969952 91.497483 
L 229.968734 91.578695 
L 230.189131 91.741117 
L 261.581764 91.822329 
L 261.79377 91.90354 
L 262.773278 92.065963 
L 312.422447 92.065963 
L 312.422447 92.065963 
" clip-path="url(#p26fd2fe6dd)" style="fill: none; stroke: #000000; stroke-width: 1.5; stroke-linecap: square"/>
   </g>
   <g id="patch_3">
    <path d="M 44.103906 96.532593 
L 44.103906 7.2 
" style="fill: none; stroke: #000000; stroke-width: 0.8; stroke-linejoin: miter; stroke-linecap: square"/>
   </g>
   <g id="patch_4">
    <path d="M 325.19952 96.532593 
L 325.19952 7.2 
" style="fill: none; stroke: #000000; stroke-width: 0.8; stroke-linejoin: miter; stroke-linecap: square"/>
   </g>
   <g id="patch_5">
    <path d="M 44.103906 96.532593 
L 325.19952 96.532593 
" style="fill: none; stroke: #000000; stroke-width: 0.8; stroke-linejoin: miter; stroke-linecap: square"/>
   </g>
   <g id="patch_6">
    <path d="M 44.103906 7.2 
L 325.19952 7.2 
" style="fill: none; stroke: #000000; stroke-width: 0.8; stroke-linejoin: miter; stroke-linecap: square"/>
   </g>
  </g>
  <g id="axes_2">
   <g id="patch_7">
    <path d="M 44.103906 195.365666 
L 325.19952 195.365666 
L 325.19952 106.033073 
L 44.103906 106.033073 
z
" style="fill: #ffffff"/>
   </g>
   <g id="matplotlib.axis_3">
    <g id="xtick_6">
     <g id="line2d_10">
      <g>
       <use xlink:href="#m75bdbd2816" x="56.88098" y="195.365666" style="stroke: #000000; stroke-width: 0.8"/>
      </g>
     </g>
    </g>
    <g id="xtick_7">
     <g id="line2d_11">
      <g>
       <use xlink:href="#m75bdbd2816" x="118.730302" y="195.365666" style="stroke: #000000; stroke-width: 0.8"/>
      </g>
     </g>
    </g>
    <g id="xtick_8">
     <g id="line2d_12">
      <g>
       <use xlink:href="#m75bdbd2816" x="180.579623" y="195.365666" style="stroke: #000000; stroke-width: 0.8"/>
      </g>
     </g>
    </g>
    <g id="xtick_9">
     <g id="line2d_13">
      <g>
       <use xlink:href="#m75bdbd2816" x="242.428945" y="195.365666" style="stroke: #000000; stroke-width: 0.8"/>
      </g>
     </g>
    </g>
    <g id="xtick_10">
     <g id="line2d_14">
      <g>
       <use xlink:href="#m75bdbd2816" x="304.278267" y="195.365666" style="stroke: #000000; stroke-width: 0.8"/>
      </g>
     </g>
    </g>
   </g>
   <g id="matplotlib.axis_4">
    <g id="ytick_4">
     <g id="line2d_15">
      <g>
       <use xlink:href="#ma6efa5b0b7" x="44.103906" y="191.305093" style="stroke: #000000; stroke-width: 0.8"/>
      </g>
     </g>
     <g id="text_5">
      <!-- 0 -->
      <g transform="translate(30.741406 195.103922) scale(0.1 -0.1)">
       <use xlink:href="#DejaVuSans-13"/>
      </g>
     </g>
    </g>
    <g id="ytick_5">
     <g id="line2d_16">
      <g>
       <use xlink:href="#ma6efa5b0b7" x="44.103906" y="150.699369" style="stroke: #000000; stroke-width: 0.8"/>
      </g>
     </g>
     <g id="text_6">
      <!-- 5 -->
      <g transform="translate(30.741406 154.498197) scale(0.1 -0.1)">
       <use xlink:href="#DejaVuSans-18"/>
      </g>
     </g>
    </g>
    <g id="ytick_6">
     <g id="line2d_17">
      <g>
       <use xlink:href="#ma6efa5b0b7" x="44.103906" y="110.093645" style="stroke: #000000; stroke-width: 0.8"/>
      </g>
     </g>
     <g id="text_7">
      <!-- 10 -->
      <g transform="translate(24.378906 113.892473) scale(0.1 -0.1)">
       <use xlink:href="#DejaVuSans-14"/>
       <use xlink:href="#DejaVuSans-13" transform="translate(63.625 0)"/>
      </g>
     </g>
    </g>
    <g id="text_8">
     <!-- LacY -->
     <g transform="translate(17.976563 162.352494) rotate(-90) scale(0.1 -0.1)">
      <defs>
       <path id="DejaVuSans-2f" d="M 628 4666 
L 1259 4666 
L 1259 531 
L 3531 531 
L 3531 0 
L 628 0 
L 628 4666 
z
" transform="scale(0.015625)"/>
       <path id="DejaVuSans-3c" d="M -13 4666 
L 666 4666 
L 1959 2747 
L 3244 4666 
L 3922 4666 
L 2272 2222 
L 2272 0 
L 1638 0 
L 1638 2222 
L -13 4666 
z
" transform="scale(0.015625)"/>
      </defs>
      <use xlink:href="#DejaVuSans-2f"/>
      <use xlink:href="#DejaVuSans-44" transform="translate(55.71875 0)"/>
      <use xlink:href="#DejaVuSans-46" transform="translate(117 0)"/>
      <use xlink:href="#DejaVuSans-3c" transform="translate(171.984375 0)"/>
     </g>
    </g>
   </g>
   <g id="line2d_18">
    <path d="M 56.88098 110.093645 
L 56.907267 110.093645 
L 57.035764 126.335935 
L 57.123365 142.578225 
L 57.270761 142.578225 
L 57.28791 134.45708 
L 57.501668 142.578225 
L 57.63914 142.578225 
L 57.804507 158.820514 
L 58.09609 175.062804 
L 58.159677 191.305093 
L 59.642289 191.305093 
L 59.803751 183.183949 
L 59.845169 191.305093 
L 64.712215 191.305093 
L 65.025171 183.183949 
L 65.13172 191.305093 
L 82.086128 191.305093 
L 82.274516 183.183949 
L 84.012301 191.305093 
L 84.026667 183.183949 
L 84.165439 175.062804 
L 84.16995 166.941659 
L 84.482136 175.062804 
L 84.702072 175.062804 
L 84.818001 191.305093 
L 84.876938 183.183949 
L 85.061275 183.183949 
L 85.195472 191.305093 
L 88.967185 191.305093 
L 89.344915 175.062804 
L 89.346175 166.941659 
L 89.829372 166.941659 
L 89.866844 183.183949 
L 90.61508 183.183949 
L 90.778774 175.062804 
L 91.112405 191.305093 
L 107.591055 191.305093 
L 107.69348 183.183949 
L 107.809481 183.183949 
L 107.944268 191.305093 
L 108.171995 191.305093 
L 108.212195 183.183949 
L 108.61528 183.183949 
L 108.954377 175.062804 
L 109.010918 183.183949 
L 109.180761 183.183949 
L 109.209424 191.305093 
L 117.698013 191.305093 
L 117.87092 183.183949 
L 119.906239 183.183949 
L 121.696595 191.305093 
L 129.224477 191.305093 
L 129.404986 183.183949 
L 129.683659 183.183949 
L 129.788104 191.305093 
L 133.989895 191.305093 
L 134.071037 183.183949 
L 134.092227 191.305093 
L 143.776061 191.305093 
L 144.028844 175.062804 
L 144.049032 183.183949 
L 144.077143 175.062804 
L 144.186759 166.941659 
L 144.191935 175.062804 
L 144.758607 175.062804 
L 145.356716 183.183949 
L 145.594467 183.183949 
L 145.899989 175.062804 
L 146.009385 175.062804 
L 147.048178 191.305093 
L 147.494132 191.305093 
L 147.54441 175.062804 
L 147.642168 175.062804 
L 147.790279 183.183949 
L 147.919867 183.183949 
L 148.446001 191.305093 
L 153.406321 191.305093 
L 153.821374 183.183949 
L 154.063182 150.699369 
L 154.327183 150.699369 
L 154.44689 166.941659 
L 154.491907 166.941659 
L 154.605455 158.820514 
L 154.673982 158.820514 
L 154.780398 175.062804 
L 154.807727 175.062804 
L 154.893653 183.183949 
L 155.234563 183.183949 
L 155.325308 191.305093 
L 155.712655 191.305093 
L 155.827912 183.183949 
L 155.971932 183.183949 
L 156.08562 175.062804 
L 156.214299 175.062804 
L 156.268067 183.183949 
L 156.324527 175.062804 
L 156.423816 175.062804 
L 156.53297 166.941659 
L 156.679979 166.941659 
L 156.805188 183.183949 
L 156.931099 183.183949 
L 157.050379 175.062804 
L 157.194879 175.062804 
L 157.332651 158.820514 
L 157.490577 158.820514 
L 157.557191 150.699369 
L 157.598404 158.820514 
L 157.679858 158.820514 
L 157.728853 150.699369 
L 157.789959 158.820514 
L 157.943306 158.820514 
L 158.049045 175.062804 
L 158.0771 175.062804 
L 158.093844 183.183949 
L 158.102915 166.941659 
L 158.176004 166.941659 
L 158.397391 166.941659 
L 158.497135 175.062804 
L 158.566046 175.062804 
L 158.67617 183.183949 
L 158.853559 183.183949 
L 158.987505 175.062804 
L 158.992147 175.062804 
L 159.150235 191.305093 
L 159.503598 191.305093 
L 159.646456 183.183949 
L 159.791548 183.183949 
L 159.902908 175.062804 
L 159.938873 175.062804 
L 160.044433 183.183949 
L 160.279975 183.183949 
L 160.331257 175.062804 
L 160.389438 183.183949 
L 160.712972 183.183949 
L 160.79463 175.062804 
L 160.823687 183.183949 
L 160.894646 183.183949 
L 161.000465 175.062804 
L 161.175075 175.062804 
L 161.254026 183.183949 
L 161.40987 183.183949 
L 161.498644 191.305093 
L 161.700288 191.305093 
L 161.823531 183.183949 
L 161.830387 183.183949 
L 161.91481 166.941659 
L 161.941067 175.062804 
L 162.208951 175.062804 
L 162.328576 166.941659 
L 162.358227 166.941659 
L 162.463494 183.183949 
L 163.034727 183.183949 
L 163.145602 175.062804 
L 163.428528 175.062804 
L 163.567836 183.183949 
L 163.675316 183.183949 
L 163.932368 158.820514 
L 164.041887 166.941659 
L 164.059798 166.941659 
L 164.165672 175.062804 
L 164.227337 175.062804 
L 164.339913 183.183949 
L 164.669708 183.183949 
L 164.834974 166.941659 
L 165.038631 166.941659 
L 165.15275 175.062804 
L 165.47306 175.062804 
L 165.546422 183.183949 
L 165.577996 175.062804 
L 165.757928 175.062804 
L 165.860928 183.183949 
L 166.006568 183.183949 
L 166.115521 191.305093 
L 166.380598 191.305093 
L 166.573804 183.183949 
L 166.719523 183.183949 
L 166.771094 191.305093 
L 166.830524 183.183949 
L 166.944307 183.183949 
L 166.991149 191.305093 
L 167.021454 183.183949 
L 167.306557 183.183949 
L 167.366725 191.305093 
L 167.56039 183.183949 
L 167.649359 183.183949 
L 167.761455 175.062804 
L 167.843224 175.062804 
L 167.955232 158.820514 
L 168.228927 158.820514 
L 168.317322 150.699369 
L 168.338032 158.820514 
L 168.354935 158.820514 
L 168.465107 150.699369 
L 168.807119 150.699369 
L 168.908071 142.578225 
L 168.915106 150.699369 
L 168.948735 150.699369 
L 168.990395 142.578225 
L 169.057168 150.699369 
L 169.100606 150.699369 
L 169.117494 158.820514 
L 169.208607 150.699369 
L 169.24127 142.578225 
L 169.248631 158.820514 
L 169.309748 158.820514 
L 169.353494 158.820514 
L 169.365817 150.699369 
L 169.416142 166.941659 
L 169.458126 166.941659 
L 169.552678 175.062804 
L 169.684029 175.062804 
L 169.81178 158.820514 
L 169.919558 175.062804 
L 170.070495 175.062804 
L 170.183918 166.941659 
L 170.533817 166.941659 
L 170.665399 150.699369 
L 170.740779 150.699369 
L 170.74199 142.578225 
L 170.85144 150.699369 
L 170.854186 150.699369 
L 170.963373 142.578225 
L 171.083583 142.578225 
L 171.167429 158.820514 
L 171.247978 158.820514 
L 171.353398 175.062804 
L 171.604198 175.062804 
L 171.717223 158.820514 
L 171.790942 158.820514 
L 171.901098 166.941659 
L 172.145957 166.941659 
L 172.214456 175.062804 
L 172.253028 166.941659 
L 173.030849 166.941659 
L 173.062884 158.820514 
L 173.108425 175.062804 
L 173.135411 175.062804 
L 173.15094 175.062804 
L 173.242946 158.820514 
L 173.263318 166.941659 
L 173.4593 166.941659 
L 173.565329 175.062804 
L 173.98342 175.062804 
L 174.06482 191.305093 
L 174.068026 183.183949 
L 174.376533 183.183949 
L 174.486337 175.062804 
L 174.506253 175.062804 
L 174.593274 166.941659 
L 174.732887 183.183949 
L 174.873692 175.062804 
L 174.967046 175.062804 
L 175.057673 191.305093 
L 175.435767 191.305093 
L 175.551168 175.062804 
L 175.657286 166.941659 
L 175.718657 166.941659 
L 175.817233 175.062804 
L 175.867209 175.062804 
L 175.979751 191.305093 
L 176.511962 191.305093 
L 176.614201 183.183949 
L 176.717583 191.305093 
L 176.828159 183.183949 
L 176.928789 191.305093 
L 177.139743 191.305093 
L 177.350236 175.062804 
L 177.645799 175.062804 
L 177.765876 166.941659 
L 177.928895 166.941659 
L 178.04268 158.820514 
L 178.156196 158.820514 
L 178.265448 142.578225 
L 178.425251 142.578225 
L 178.528425 150.699369 
L 178.639205 150.699369 
L 178.733231 158.820514 
L 178.867835 150.699369 
L 179.01972 150.699369 
L 179.154237 166.941659 
L 179.162012 158.820514 
L 179.245951 175.062804 
L 179.381019 158.820514 
L 179.419804 158.820514 
L 179.454283 150.699369 
L 179.517878 158.820514 
L 179.604072 166.941659 
L 179.952061 166.941659 
L 180.007098 175.062804 
L 180.057316 166.941659 
L 180.348722 166.941659 
L 180.462523 158.820514 
L 180.630659 150.699369 
L 180.676353 158.820514 
L 180.723535 142.578225 
L 180.745283 142.578225 
L 180.915392 158.820514 
L 181.152948 158.820514 
L 181.288747 142.578225 
L 181.315585 142.578225 
L 181.477013 158.820514 
L 181.518736 158.820514 
L 181.617834 166.941659 
L 181.803722 166.941659 
L 181.923939 150.699369 
L 182.08143 150.699369 
L 182.218639 142.578225 
L 182.27617 142.578225 
L 182.347086 150.699369 
L 182.364537 134.45708 
L 182.492063 134.45708 
L 182.58226 150.699369 
L 182.801167 150.699369 
L 182.890273 166.941659 
L 182.91498 158.820514 
L 182.98076 158.820514 
L 183.083364 166.941659 
L 183.116414 166.941659 
L 183.247284 150.699369 
L 183.277202 150.699369 
L 183.381186 166.941659 
L 183.57557 166.941659 
L 183.685712 175.062804 
L 183.78564 166.941659 
L 183.78907 175.062804 
L 184.178071 175.062804 
L 184.279564 166.941659 
L 184.356955 175.062804 
L 184.476657 175.062804 
L 184.63049 158.820514 
L 184.729349 175.062804 
L 184.804738 175.062804 
L 184.938187 183.183949 
L 185.136863 183.183949 
L 185.225057 175.062804 
L 185.651915 175.062804 
L 185.774882 166.941659 
L 186.107459 166.941659 
L 186.217905 175.062804 
L 186.263359 166.941659 
L 186.320414 175.062804 
L 186.362469 175.062804 
L 186.47334 183.183949 
L 186.607857 166.941659 
L 186.647604 166.941659 
L 186.872119 175.062804 
L 186.983743 150.699369 
L 187.06986 150.699369 
L 187.13341 166.941659 
L 187.145274 158.820514 
L 187.281035 150.699369 
L 187.396136 158.820514 
L 187.454439 158.820514 
L 187.485493 150.699369 
L 187.653993 158.820514 
L 187.772314 158.820514 
L 187.876919 175.062804 
L 187.894374 175.062804 
L 187.895959 183.183949 
L 187.999892 175.062804 
L 188.075576 175.062804 
L 188.158937 183.183949 
L 188.235313 166.941659 
L 188.457463 166.941659 
L 188.478306 175.062804 
L 188.543873 158.820514 
L 188.650292 158.820514 
L 188.683046 150.699369 
L 188.736961 158.820514 
L 188.799148 158.820514 
L 188.835822 150.699369 
L 188.870239 158.820514 
L 188.938057 158.820514 
L 189.055364 150.699369 
L 189.076523 150.699369 
L 189.200267 166.941659 
L 189.26688 158.820514 
L 189.296642 166.941659 
L 189.325101 175.062804 
L 189.384764 166.941659 
L 189.419493 166.941659 
L 189.471157 158.820514 
L 189.497062 175.062804 
L 189.500405 175.062804 
L 189.612706 183.183949 
L 189.617126 183.183949 
L 189.733481 175.062804 
L 190.156978 175.062804 
L 190.253578 150.699369 
L 190.355854 150.699369 
L 190.468558 134.45708 
L 190.565434 134.45708 
L 190.675101 158.820514 
L 190.77611 166.941659 
L 190.803714 166.941659 
L 190.836227 158.820514 
L 190.901248 166.941659 
L 191.056775 166.941659 
L 191.058099 175.062804 
L 191.147631 166.941659 
L 191.369009 166.941659 
L 191.563706 150.699369 
L 191.694264 150.699369 
L 191.811983 134.45708 
L 191.833707 134.45708 
L 191.928885 158.820514 
L 192.036259 150.699369 
L 192.315686 150.699369 
L 192.44057 166.941659 
L 192.85328 166.941659 
L 193.011318 175.062804 
L 193.049665 175.062804 
L 193.06475 166.941659 
L 193.112704 175.062804 
L 193.240642 166.941659 
L 193.308464 183.183949 
L 193.320012 166.941659 
L 193.404777 166.941659 
L 193.586104 175.062804 
L 193.592409 183.183949 
L 193.776019 183.183949 
L 193.908789 175.062804 
L 194.132937 175.062804 
L 194.193318 183.183949 
L 194.513185 183.183949 
L 194.550721 191.305093 
L 194.606779 183.183949 
L 194.782637 175.062804 
L 194.96737 158.820514 
L 195.034257 166.941659 
L 195.056714 158.820514 
L 195.217243 158.820514 
L 195.242059 166.941659 
L 195.511377 166.941659 
L 195.860026 183.183949 
L 196.420055 158.820514 
L 196.476369 158.820514 
L 196.485981 166.941659 
L 196.599401 166.941659 
L 196.805616 183.183949 
L 196.931351 175.062804 
L 197.050482 191.305093 
L 197.13358 183.183949 
L 197.411889 183.183949 
L 197.527417 166.941659 
L 197.67572 175.062804 
L 197.743863 175.062804 
L 197.818639 191.305093 
L 198.027157 191.305093 
L 198.077925 183.183949 
L 198.384631 183.183949 
L 198.417119 191.305093 
L 199.484307 175.062804 
L 199.584207 175.062804 
L 199.671668 166.941659 
L 199.676775 175.062804 
L 200.21501 175.062804 
L 200.319361 183.183949 
L 200.434157 175.062804 
L 200.935232 175.062804 
L 201.025039 183.183949 
L 201.031117 175.062804 
L 201.144864 158.820514 
L 201.317193 166.941659 
L 201.399284 158.820514 
L 201.702392 158.820514 
L 201.78813 175.062804 
L 201.813722 166.941659 
L 201.953156 158.820514 
L 202.222166 158.820514 
L 202.334757 166.941659 
L 202.525698 166.941659 
L 202.820958 183.183949 
L 203.317192 175.062804 
L 203.393227 166.941659 
L 203.398533 175.062804 
L 203.487211 175.062804 
L 203.489576 183.183949 
L 203.689395 175.062804 
L 203.852457 175.062804 
L 203.899318 183.183949 
L 204.252679 183.183949 
L 204.330449 191.305093 
L 205.340225 191.305093 
L 205.406973 183.183949 
L 205.73012 183.183949 
L 206.024717 175.062804 
L 206.086239 175.062804 
L 206.094156 166.941659 
L 206.143061 183.183949 
L 206.15211 175.062804 
L 206.272528 166.941659 
L 206.330518 175.062804 
L 206.45162 158.820514 
L 206.532946 150.699369 
L 206.556058 158.820514 
L 206.752471 158.820514 
L 206.857033 175.062804 
L 206.992975 175.062804 
L 207.082235 183.183949 
L 207.556979 183.183949 
L 208.170125 191.305093 
L 217.145245 191.305093 
L 217.245504 183.183949 
L 217.443002 183.183949 
L 217.768853 158.820514 
L 217.883595 158.820514 
L 218.044597 175.062804 
L 218.604145 175.062804 
L 218.733885 183.183949 
L 219.050331 183.183949 
L 219.204657 191.305093 
L 219.279733 183.183949 
L 219.472045 191.305093 
L 219.613399 183.183949 
L 219.70713 191.305093 
L 220.039301 191.305093 
L 220.10835 183.183949 
L 220.350732 175.062804 
L 220.400304 183.183949 
L 220.75169 175.062804 
L 220.793553 166.941659 
L 220.818094 175.062804 
L 220.942881 175.062804 
L 221.027156 166.941659 
L 221.24499 175.062804 
L 221.38391 175.062804 
L 221.481548 166.941659 
L 221.582919 175.062804 
L 221.696919 166.941659 
L 221.788439 158.820514 
L 221.794169 166.941659 
L 221.909729 166.941659 
L 221.969952 158.820514 
L 222.094415 166.941659 
L 222.305193 175.062804 
L 222.374924 166.941659 
L 222.587223 166.941659 
L 222.714213 175.062804 
L 222.747189 175.062804 
L 222.829456 191.305093 
L 222.895761 183.183949 
L 223.181954 183.183949 
L 223.419518 166.941659 
L 223.678904 183.183949 
L 224.432634 183.183949 
L 224.434442 191.305093 
L 229.712642 191.305093 
L 229.871244 183.183949 
L 229.877165 175.062804 
L 229.968734 183.183949 
L 230.345494 183.183949 
L 230.385157 175.062804 
L 230.551891 183.183949 
L 230.713344 183.183949 
L 230.976162 175.062804 
L 231.157827 150.699369 
L 231.219891 150.699369 
L 231.311424 166.941659 
L 231.504785 166.941659 
L 231.511073 175.062804 
L 231.672947 191.305093 
L 250.309841 191.305093 
L 250.470976 183.183949 
L 250.873557 183.183949 
L 251.381115 191.305093 
L 253.648742 191.305093 
L 253.710169 183.183949 
L 253.883942 175.062804 
L 253.891608 183.183949 
L 254.055702 183.183949 
L 254.225197 191.305093 
L 259.420681 191.305093 
L 259.577873 183.183949 
L 259.78598 183.183949 
L 259.847812 191.305093 
L 261.323278 191.305093 
L 261.581764 183.183949 
L 261.692074 183.183949 
L 261.79377 175.062804 
L 262.308489 175.062804 
L 262.52561 183.183949 
L 262.652754 191.305093 
L 264.444926 191.305093 
L 264.728053 175.062804 
L 264.824076 183.183949 
L 265.11953 158.820514 
L 265.180669 166.941659 
L 265.405798 175.062804 
L 265.51131 166.941659 
L 265.794379 183.183949 
L 265.989696 183.183949 
L 266.089594 191.305093 
L 273.599497 191.305093 
L 273.643011 183.183949 
L 273.864674 175.062804 
L 274.033484 183.183949 
L 274.404639 183.183949 
L 274.602966 166.941659 
L 274.712811 191.305093 
L 275.746793 191.305093 
L 275.962471 183.183949 
L 276.123719 191.305093 
L 284.540746 191.305093 
L 285.052511 183.183949 
L 285.197197 166.941659 
L 285.228549 166.941659 
L 285.324658 175.062804 
L 285.718577 183.183949 
L 286.470172 183.183949 
L 287.122707 191.305093 
L 301.526944 191.305093 
L 301.716296 175.062804 
L 301.853939 183.183949 
L 302.105823 183.183949 
L 302.269615 191.305093 
L 312.422447 191.305093 
L 312.422447 191.305093 
" clip-path="url(#pd2c81e1d3a)" style="fill: none; stroke: #000000; stroke-width: 1.5; stroke-linecap: square"/>
   </g>
   <g id="patch_8">
    <path d="M 44.103906 195.365666 
L 44.103906 106.033073 
" style="fill: none; stroke: #000000; stroke-width: 0.8; stroke-linejoin: miter; stroke-linecap: square"/>
   </g>
   <g id="patch_9">
    <path d="M 325.19952 195.365666 
L 325.19952 106.033073 
" style="fill: none; stroke: #000000; stroke-width: 0.8; stroke-linejoin: miter; stroke-linecap: square"/>
   </g>
   <g id="patch_10">
    <path d="M 44.103906 195.365666 
L 325.19952 195.365666 
" style="fill: none; stroke: #000000; stroke-width: 0.8; stroke-linejoin: miter; stroke-linecap: square"/>
   </g>
   <g id="patch_11">
    <path d="M 44.103906 106.033073 
L 325.19952 106.033073 
" style="fill: none; stroke: #000000; stroke-width: 0.8; stroke-linejoin: miter; stroke-linecap: square"/>
   </g>
  </g>
  <g id="axes_3">
   <g id="patch_12">
    <path d="M 44.103906 294.198739 
L 325.19952 294.198739 
L 325.19952 204.866146 
L 44.103906 204.866146 
z
" style="fill: #ffffff"/>
   </g>
   <g id="matplotlib.axis_5">
    <g id="xtick_11">
     <g id="line2d_19">
      <g>
       <use xlink:href="#m75bdbd2816" x="56.88098" y="294.198739" style="stroke: #000000; stroke-width: 0.8"/>
      </g>
     </g>
     <g id="text_9">
      <!-- 0 -->
      <g transform="translate(53.69973 308.796395) scale(0.1 -0.1)">
       <use xlink:href="#DejaVuSans-13"/>
      </g>
     </g>
    </g>
    <g id="xtick_12">
     <g id="line2d_20">
      <g>
       <use xlink:href="#m75bdbd2816" x="118.730302" y="294.198739" style="stroke: #000000; stroke-width: 0.8"/>
      </g>
     </g>
     <g id="text_10">
      <!-- 200 -->
      <g transform="translate(109.186552 308.796395) scale(0.1 -0.1)">
       <defs>
        <path id="DejaVuSans-15" d="M 1228 531 
L 3431 531 
L 3431 0 
L 469 0 
L 469 531 
Q 828 903 1448 1529 
Q 2069 2156 2228 2338 
Q 2531 2678 2651 2914 
Q 2772 3150 2772 3378 
Q 2772 3750 2511 3984 
Q 2250 4219 1831 4219 
Q 1534 4219 1204 4116 
Q 875 4013 500 3803 
L 500 4441 
Q 881 4594 1212 4672 
Q 1544 4750 1819 4750 
Q 2544 4750 2975 4387 
Q 3406 4025 3406 3419 
Q 3406 3131 3298 2873 
Q 3191 2616 2906 2266 
Q 2828 2175 2409 1742 
Q 1991 1309 1228 531 
z
" transform="scale(0.015625)"/>
       </defs>
       <use xlink:href="#DejaVuSans-15"/>
       <use xlink:href="#DejaVuSans-13" transform="translate(63.625 0)"/>
       <use xlink:href="#DejaVuSans-13" transform="translate(127.25 0)"/>
      </g>
     </g>
    </g>
    <g id="xtick_13">
     <g id="line2d_21">
      <g>
       <use xlink:href="#m75bdbd2816" x="180.579623" y="294.198739" style="stroke: #000000; stroke-width: 0.8"/>
      </g>
     </g>
     <g id="text_11">
      <!-- 400 -->
      <g transform="translate(171.035873 308.796395) scale(0.1 -0.1)">
       <defs>
        <path id="DejaVuSans-17" d="M 2419 4116 
L 825 1625 
L 2419 1625 
L 2419 4116 
z
M 2253 4666 
L 3047 4666 
L 3047 1625 
L 3713 1625 
L 3713 1100 
L 3047 1100 
L 3047 0 
L 2419 0 
L 2419 1100 
L 313 1100 
L 313 1709 
L 2253 4666 
z
" transform="scale(0.015625)"/>
       </defs>
       <use xlink:href="#DejaVuSans-17"/>
       <use xlink:href="#DejaVuSans-13" transform="translate(63.625 0)"/>
       <use xlink:href="#DejaVuSans-13" transform="translate(127.25 0)"/>
      </g>
     </g>
    </g>
    <g id="xtick_14">
     <g id="line2d_22">
      <g>
       <use xlink:href="#m75bdbd2816" x="242.428945" y="294.198739" style="stroke: #000000; stroke-width: 0.8"/>
      </g>
     </g>
     <g id="text_12">
      <!-- 600 -->
      <g transform="translate(232.885195 308.796395) scale(0.1 -0.1)">
       <defs>
        <path id="DejaVuSans-19" d="M 2113 2584 
Q 1688 2584 1439 2293 
Q 1191 2003 1191 1497 
Q 1191 994 1439 701 
Q 1688 409 2113 409 
Q 2538 409 2786 701 
Q 3034 994 3034 1497 
Q 3034 2003 2786 2293 
Q 2538 2584 2113 2584 
z
M 3366 4563 
L 3366 3988 
Q 3128 4100 2886 4159 
Q 2644 4219 2406 4219 
Q 1781 4219 1451 3797 
Q 1122 3375 1075 2522 
Q 1259 2794 1537 2939 
Q 1816 3084 2150 3084 
Q 2853 3084 3261 2657 
Q 3669 2231 3669 1497 
Q 3669 778 3244 343 
Q 2819 -91 2113 -91 
Q 1303 -91 875 529 
Q 447 1150 447 2328 
Q 447 3434 972 4092 
Q 1497 4750 2381 4750 
Q 2619 4750 2861 4703 
Q 3103 4656 3366 4563 
z
" transform="scale(0.015625)"/>
       </defs>
       <use xlink:href="#DejaVuSans-19"/>
       <use xlink:href="#DejaVuSans-13" transform="translate(63.625 0)"/>
       <use xlink:href="#DejaVuSans-13" transform="translate(127.25 0)"/>
      </g>
     </g>
    </g>
    <g id="xtick_15">
     <g id="line2d_23">
      <g>
       <use xlink:href="#m75bdbd2816" x="304.278267" y="294.198739" style="stroke: #000000; stroke-width: 0.8"/>
      </g>
     </g>
     <g id="text_13">
      <!-- 800 -->
      <g transform="translate(294.734517 308.796395) scale(0.1 -0.1)">
       <defs>
        <path id="DejaVuSans-1b" d="M 2034 2216 
Q 1584 2216 1326 1975 
Q 1069 1734 1069 1313 
Q 1069 891 1326 650 
Q 1584 409 2034 409 
Q 2484 409 2743 651 
Q 3003 894 3003 1313 
Q 3003 1734 2745 1975 
Q 2488 2216 2034 2216 
z
M 1403 2484 
Q 997 2584 770 2862 
Q 544 3141 544 3541 
Q 544 4100 942 4425 
Q 1341 4750 2034 4750 
Q 2731 4750 3128 4425 
Q 3525 4100 3525 3541 
Q 3525 3141 3298 2862 
Q 3072 2584 2669 2484 
Q 3125 2378 3379 2068 
Q 3634 1759 3634 1313 
Q 3634 634 3220 271 
Q 2806 -91 2034 -91 
Q 1263 -91 848 271 
Q 434 634 434 1313 
Q 434 1759 690 2068 
Q 947 2378 1403 2484 
z
M 1172 3481 
Q 1172 3119 1398 2916 
Q 1625 2713 2034 2713 
Q 2441 2713 2670 2916 
Q 2900 3119 2900 3481 
Q 2900 3844 2670 4047 
Q 2441 4250 2034 4250 
Q 1625 4250 1398 4047 
Q 1172 3844 1172 3481 
z
" transform="scale(0.015625)"/>
       </defs>
       <use xlink:href="#DejaVuSans-1b"/>
       <use xlink:href="#DejaVuSans-13" transform="translate(63.625 0)"/>
       <use xlink:href="#DejaVuSans-13" transform="translate(127.25 0)"/>
      </g>
     </g>
    </g>
    <g id="text_14">
     <!-- Time -->
     <g transform="translate(172.415776 322.797176) scale(0.1 -0.1)">
      <defs>
       <path id="DejaVuSans-37" d="M -19 4666 
L 3928 4666 
L 3928 4134 
L 2272 4134 
L 2272 0 
L 1638 0 
L 1638 4134 
L -19 4134 
L -19 4666 
z
" transform="scale(0.015625)"/>
       <path id="DejaVuSans-4c" d="M 603 3500 
L 1178 3500 
L 1178 0 
L 603 0 
L 603 3500 
z
M 603 4863 
L 1178 4863 
L 1178 4134 
L 603 4134 
L 603 4863 
z
" transform="scale(0.015625)"/>
       <path id="DejaVuSans-50" d="M 3328 2828 
Q 3544 3216 3844 3400 
Q 4144 3584 4550 3584 
Q 5097 3584 5394 3201 
Q 5691 2819 5691 2113 
L 5691 0 
L 5113 0 
L 5113 2094 
Q 5113 2597 4934 2840 
Q 4756 3084 4391 3084 
Q 3944 3084 3684 2787 
Q 3425 2491 3425 1978 
L 3425 0 
L 2847 0 
L 2847 2094 
Q 2847 2600 2669 2842 
Q 2491 3084 2119 3084 
Q 1678 3084 1418 2786 
Q 1159 2488 1159 1978 
L 1159 0 
L 581 0 
L 581 3500 
L 1159 3500 
L 1159 2956 
Q 1356 3278 1631 3431 
Q 1906 3584 2284 3584 
Q 2666 3584 2933 3390 
Q 3200 3197 3328 2828 
z
" transform="scale(0.015625)"/>
      </defs>
      <use xlink:href="#DejaVuSans-37"/>
      <use xlink:href="#DejaVuSans-4c" transform="translate(58 0)"/>
      <use xlink:href="#DejaVuSans-50" transform="translate(85.78125 0)"/>
      <use xlink:href="#DejaVuSans-48" transform="translate(183.1875 0)"/>
     </g>
    </g>
   </g>
   <g id="matplotlib.axis_6">
    <g id="ytick_7">
     <g id="line2d_24">
      <g>
       <use xlink:href="#ma6efa5b0b7" x="44.103906" y="290.138166" style="stroke: #000000; stroke-width: 0.8"/>
      </g>
     </g>
     <g id="text_15">
      <!-- 0.0 -->
      <g transform="translate(21.200781 293.936994) scale(0.1 -0.1)">
       <defs>
        <path id="DejaVuSans-11" d="M 684 794 
L 1344 794 
L 1344 0 
L 684 0 
L 684 794 
z
" transform="scale(0.015625)"/>
       </defs>
       <use xlink:href="#DejaVuSans-13"/>
       <use xlink:href="#DejaVuSans-11" transform="translate(63.625 0)"/>
       <use xlink:href="#DejaVuSans-13" transform="translate(95.40625 0)"/>
      </g>
     </g>
    </g>
    <g id="ytick_8">
     <g id="line2d_25">
      <g>
       <use xlink:href="#ma6efa5b0b7" x="44.103906" y="249.532442" style="stroke: #000000; stroke-width: 0.8"/>
      </g>
     </g>
     <g id="text_16">
      <!-- 0.5 -->
      <g transform="translate(21.200781 253.33127) scale(0.1 -0.1)">
       <use xlink:href="#DejaVuSans-13"/>
       <use xlink:href="#DejaVuSans-11" transform="translate(63.625 0)"/>
       <use xlink:href="#DejaVuSans-18" transform="translate(95.40625 0)"/>
      </g>
     </g>
    </g>
    <g id="ytick_9">
     <g id="line2d_26">
      <g>
       <use xlink:href="#ma6efa5b0b7" x="44.103906" y="208.926718" style="stroke: #000000; stroke-width: 0.8"/>
      </g>
     </g>
     <g id="text_17">
      <!-- 1.0 -->
      <g transform="translate(21.200781 212.725546) scale(0.1 -0.1)">
       <use xlink:href="#DejaVuSans-14"/>
       <use xlink:href="#DejaVuSans-11" transform="translate(63.625 0)"/>
       <use xlink:href="#DejaVuSans-13" transform="translate(95.40625 0)"/>
      </g>
     </g>
    </g>
    <g id="text_18">
     <!-- Free lac operon -->
     <g transform="translate(14.798438 288.006661) rotate(-90) scale(0.1 -0.1)">
      <defs>
       <path id="DejaVuSans-29" d="M 628 4666 
L 3309 4666 
L 3309 4134 
L 1259 4134 
L 1259 2759 
L 3109 2759 
L 3109 2228 
L 1259 2228 
L 1259 0 
L 628 0 
L 628 4666 
z
" transform="scale(0.015625)"/>
       <path id="DejaVuSans-53" d="M 1159 525 
L 1159 -1331 
L 581 -1331 
L 581 3500 
L 1159 3500 
L 1159 2969 
Q 1341 3281 1617 3432 
Q 1894 3584 2278 3584 
Q 2916 3584 3314 3078 
Q 3713 2572 3713 1747 
Q 3713 922 3314 415 
Q 2916 -91 2278 -91 
Q 1894 -91 1617 61 
Q 1341 213 1159 525 
z
M 3116 1747 
Q 3116 2381 2855 2742 
Q 2594 3103 2138 3103 
Q 1681 3103 1420 2742 
Q 1159 2381 1159 1747 
Q 1159 1113 1420 752 
Q 1681 391 2138 391 
Q 2594 391 2855 752 
Q 3116 1113 3116 1747 
z
" transform="scale(0.015625)"/>
       <path id="DejaVuSans-51" d="M 3513 2113 
L 3513 0 
L 2938 0 
L 2938 2094 
Q 2938 2591 2744 2837 
Q 2550 3084 2163 3084 
Q 1697 3084 1428 2787 
Q 1159 2491 1159 1978 
L 1159 0 
L 581 0 
L 581 3500 
L 1159 3500 
L 1159 2956 
Q 1366 3272 1645 3428 
Q 1925 3584 2291 3584 
Q 2894 3584 3203 3211 
Q 3513 2838 3513 2113 
z
" transform="scale(0.015625)"/>
      </defs>
      <use xlink:href="#DejaVuSans-29"/>
      <use xlink:href="#DejaVuSans-55" transform="translate(50.234375 0)"/>
      <use xlink:href="#DejaVuSans-48" transform="translate(89.140625 0)"/>
      <use xlink:href="#DejaVuSans-48" transform="translate(150.671875 0)"/>
      <use xlink:href="#DejaVuSans-3" transform="translate(212.203125 0)"/>
      <use xlink:href="#DejaVuSans-4f" transform="translate(243.984375 0)"/>
      <use xlink:href="#DejaVuSans-44" transform="translate(271.765625 0)"/>
      <use xlink:href="#DejaVuSans-46" transform="translate(333.046875 0)"/>
      <use xlink:href="#DejaVuSans-3" transform="translate(388.03125 0)"/>
      <use xlink:href="#DejaVuSans-52" transform="translate(419.8125 0)"/>
      <use xlink:href="#DejaVuSans-53" transform="translate(481 0)"/>
      <use xlink:href="#DejaVuSans-48" transform="translate(544.484375 0)"/>
      <use xlink:href="#DejaVuSans-55" transform="translate(606.015625 0)"/>
      <use xlink:href="#DejaVuSans-52" transform="translate(644.921875 0)"/>
      <use xlink:href="#DejaVuSans-51" transform="translate(706.109375 0)"/>
     </g>
    </g>
   </g>
   <g id="line2d_27">
    <path d="M 56.88098 208.926718 
L 56.960074 290.138166 
L 57.123365 290.138166 
L 57.28791 208.926718 
L 57.402569 208.926718 
L 57.501668 290.138166 
L 58.681833 290.138166 
L 59.642289 208.926718 
L 59.8231 208.926718 
L 59.845169 290.138166 
L 62.194725 290.138166 
L 64.712215 208.926718 
L 64.998356 208.926718 
L 65.13172 290.138166 
L 65.253855 290.138166 
L 71.718479 208.926718 
L 71.883227 290.138166 
L 79.490062 208.926718 
L 79.537643 290.138166 
L 82.086128 208.926718 
L 82.221962 208.926718 
L 82.274516 290.138166 
L 83.963177 290.138166 
L 84.026667 208.926718 
L 84.876938 208.926718 
L 85.061275 290.138166 
L 86.063447 290.138166 
L 88.967185 208.926718 
L 89.491155 208.926718 
L 89.519564 290.138166 
L 89.866844 290.138166 
L 90.722063 208.926718 
L 90.778774 290.138166 
L 91.112405 290.138166 
L 107.680185 208.926718 
L 107.69348 290.138166 
L 107.944268 290.138166 
L 108.212195 208.926718 
L 108.491015 290.138166 
L 108.61528 208.926718 
L 109.010918 208.926718 
L 109.209424 290.138166 
L 109.493373 290.138166 
L 113.531875 208.926718 
L 114.172873 290.138166 
L 115.766124 208.926718 
L 116.071989 290.138166 
L 116.724434 208.926718 
L 116.809164 290.138166 
L 117.788534 208.926718 
L 117.87092 290.138166 
L 121.696595 290.138166 
L 127.536601 208.926718 
L 127.6394 290.138166 
L 129.329903 208.926718 
L 129.767301 208.926718 
L 129.788104 290.138166 
L 131.573713 290.138166 
L 134.092227 208.926718 
L 134.105138 290.138166 
L 136.900588 208.926718 
L 136.94205 290.138166 
L 143.776061 208.926718 
L 144.692324 208.926718 
L 144.758607 290.138166 
L 145.356716 290.138166 
L 145.594467 208.926718 
L 145.899989 208.926718 
L 146.009385 290.138166 
L 147.048178 290.138166 
L 147.54441 208.926718 
L 147.642168 290.138166 
L 148.729947 290.138166 
L 148.740931 208.926718 
L 148.897667 290.138166 
L 153.078122 208.926718 
L 153.164413 290.138166 
L 153.406321 208.926718 
L 204.62323 208.926718 
L 204.736673 290.138166 
L 205.406973 208.926718 
L 206.725649 208.926718 
L 206.827687 290.138166 
L 210.295394 290.138166 
L 216.643386 208.926718 
L 216.761576 290.138166 
L 217.245504 208.926718 
L 217.747502 208.926718 
L 217.768853 290.138166 
L 218.308725 290.138166 
L 218.407077 208.926718 
L 218.418495 290.138166 
L 219.191188 290.138166 
L 219.279733 208.926718 
L 223.362774 208.926718 
L 223.419518 290.138166 
L 224.434442 290.138166 
L 225.281964 208.926718 
L 225.309722 290.138166 
L 229.712642 208.926718 
L 231.311424 208.926718 
L 231.511073 290.138166 
L 243.359467 290.138166 
L 250.309841 208.926718 
L 250.427671 208.926718 
L 250.470976 290.138166 
L 251.381115 290.138166 
L 253.710169 208.926718 
L 253.891608 208.926718 
L 254.055702 290.138166 
L 254.462758 290.138166 
L 257.206745 208.926718 
L 257.284391 290.138166 
L 259.510357 208.926718 
L 259.577873 208.926718 
L 259.847812 290.138166 
L 260.27629 208.926718 
L 260.583954 290.138166 
L 261.323278 208.926718 
L 261.703233 208.926718 
L 261.79377 290.138166 
L 262.773278 290.138166 
L 264.444926 208.926718 
L 265.61708 208.926718 
L 265.679183 290.138166 
L 266.089594 290.138166 
L 273.114779 208.926718 
L 273.540259 290.138166 
L 273.643011 208.926718 
L 273.988724 208.926718 
L 274.033484 290.138166 
L 274.454685 208.926718 
L 274.586694 208.926718 
L 274.712811 290.138166 
L 274.897036 290.138166 
L 274.90478 208.926718 
L 274.955723 290.138166 
L 275.348075 290.138166 
L 275.746793 208.926718 
L 276.031337 208.926718 
L 276.123719 290.138166 
L 277.74012 208.926718 
L 277.821049 290.138166 
L 284.540746 208.926718 
L 285.197197 208.926718 
L 285.324658 290.138166 
L 287.122707 290.138166 
L 292.591017 208.926718 
L 293.144332 290.138166 
L 301.526944 208.926718 
L 301.79174 208.926718 
L 301.853939 290.138166 
L 302.201981 290.138166 
L 302.269615 208.926718 
L 302.370183 290.138166 
L 302.661683 290.138166 
L 312.422447 208.926718 
L 312.422447 208.926718 
" clip-path="url(#pa75ea7b046)" style="fill: none; stroke: #000000; stroke-width: 1.5; stroke-linecap: square"/>
   </g>
   <g id="patch_13">
    <path d="M 44.103906 294.198739 
L 44.103906 204.866146 
" style="fill: none; stroke: #000000; stroke-width: 0.8; stroke-linejoin: miter; stroke-linecap: square"/>
   </g>
   <g id="patch_14">
    <path d="M 325.19952 294.198739 
L 325.19952 204.866146 
" style="fill: none; stroke: #000000; stroke-width: 0.8; stroke-linejoin: miter; stroke-linecap: square"/>
   </g>
   <g id="patch_15">
    <path d="M 44.103906 294.198739 
L 325.19952 294.198739 
" style="fill: none; stroke: #000000; stroke-width: 0.8; stroke-linejoin: miter; stroke-linecap: square"/>
   </g>
   <g id="patch_16">
    <path d="M 44.103906 204.866146 
L 325.19952 204.866146 
" style="fill: none; stroke: #000000; stroke-width: 0.8; stroke-linejoin: miter; stroke-linecap: square"/>
   </g>
  </g>
 </g>
 <defs>
  <clipPath id="p26fd2fe6dd">
   <rect x="44.103906" y="7.2" width="281.095614" height="89.332593"/>
  </clipPath>
  <clipPath id="pd2c81e1d3a">
   <rect x="44.103906" y="106.033073" width="281.095614" height="89.332593"/>
  </clipPath>
  <clipPath id="pa75ea7b046">
   <rect x="44.103906" y="204.866146" width="281.095614" height="89.332593"/>
  </clipPath>
 </defs>
</svg>
