<?xml version="1.0" encoding="utf-8" standalone="no"?>
<!DOCTYPE svg PUBLIC "-//W3C//DTD SVG 1.1//EN"
  "http://www.w3.org/Graphics/SVG/1.1/DTD/svg11.dtd">
<svg xmlns:xlink="http://www.w3.org/1999/xlink" width="332.39952pt" height="338.705099pt" viewBox="0 0 332.39952 338.705099" xmlns="http://www.w3.org/2000/svg" version="1.1">
 <metadata>
  <rdf:RDF xmlns:dc="http://purl.org/dc/elements/1.1/" xmlns:cc="http://creativecommons.org/ns#" xmlns:rdf="http://www.w3.org/1999/02/22-rdf-syntax-ns#">
   <cc:Work>
    <dc:type rdf:resource="http://purl.org/dc/dcmitype/StillImage"/>
    <dc:date>2026-07-20T14:52:29.575406</dc:date>
    <dc:format>image/svg+xml</dc:format>
    <dc:creator>
     <cc:Agent>
      <dc:title>Matplotlib v3.11.1, https://matplotlib.org/</dc:title>
     </cc:Agent>
    </dc:creator>
   </cc:Work>
  </rdf:RDF>
 </metadata>
 <defs>
  <style type="text/css">*{stroke-linejoin: round; stroke-linecap: butt}</style>
 </defs>
 <g id="figure_1">
  <g id="patch_1">
   <path d="M 0 338.705099 
L 332.39952 338.705099 
L 332.39952 0 
L 0 0 
z
" style="fill: #ffffff"/>
  </g>
  <g id="axes_1">
   <g id="patch_2">
    <path d="M 44.103906 102.838171 
L 325.19952 102.838171 
L 325.19952 13.505579 
L 44.103906 13.505579 
z
" style="fill: #ffffff"/>
   </g>
   <g id="matplotlib.axis_1">
    <g id="xtick_1">
     <g id="line2d_1">
      <defs>
       <path id="mac12a7b500" d="M 0 0 
L 0 3.5 
" style="stroke: #000000; stroke-width: 0.8"/>
      </defs>
      <g>
       <use xlink:href="#mac12a7b500" x="56.88098" y="102.838171" style="stroke: #000000; stroke-width: 0.8"/>
      </g>
     </g>
    </g>
    <g id="xtick_2">
     <g id="line2d_2">
      <g>
       <use xlink:href="#mac12a7b500" x="88.797002" y="102.838171" style="stroke: #000000; stroke-width: 0.8"/>
      </g>
     </g>
    </g>
    <g id="xtick_3">
     <g id="line2d_3">
      <g>
       <use xlink:href="#mac12a7b500" x="120.713025" y="102.838171" style="stroke: #000000; stroke-width: 0.8"/>
      </g>
     </g>
    </g>
    <g id="xtick_4">
     <g id="line2d_4">
      <g>
       <use xlink:href="#mac12a7b500" x="152.629048" y="102.838171" style="stroke: #000000; stroke-width: 0.8"/>
      </g>
     </g>
    </g>
    <g id="xtick_5">
     <g id="line2d_5">
      <g>
       <use xlink:href="#mac12a7b500" x="184.545071" y="102.838171" style="stroke: #000000; stroke-width: 0.8"/>
      </g>
     </g>
    </g>
    <g id="xtick_6">
     <g id="line2d_6">
      <g>
       <use xlink:href="#mac12a7b500" x="216.461094" y="102.838171" style="stroke: #000000; stroke-width: 0.8"/>
      </g>
     </g>
    </g>
    <g id="xtick_7">
     <g id="line2d_7">
      <g>
       <use xlink:href="#mac12a7b500" x="248.377117" y="102.838171" style="stroke: #000000; stroke-width: 0.8"/>
      </g>
     </g>
    </g>
    <g id="xtick_8">
     <g id="line2d_8">
      <g>
       <use xlink:href="#mac12a7b500" x="280.29314" y="102.838171" style="stroke: #000000; stroke-width: 0.8"/>
      </g>
     </g>
    </g>
    <g id="xtick_9">
     <g id="line2d_9">
      <g>
       <use xlink:href="#mac12a7b500" x="312.209162" y="102.838171" style="stroke: #000000; stroke-width: 0.8"/>
      </g>
     </g>
    </g>
   </g>
   <g id="matplotlib.axis_2">
    <g id="ytick_1">
     <g id="line2d_10">
      <defs>
       <path id="mc2b8f5281f" d="M 0 0 
L -3.5 0 
" style="stroke: #000000; stroke-width: 0.8"/>
      </defs>
      <g>
       <use xlink:href="#mc2b8f5281f" x="44.103906" y="98.777599" style="stroke: #000000; stroke-width: 0.8"/>
      </g>
     </g>
     <g id="text_1">
      <!-- 0 -->
      <g transform="translate(30.741406 102.576427) scale(0.1 -0.1)">
       <defs>
        <path id="DejaVuSans-13" d="M 2034 4250 
Q 1547 4250 1301 3770 
Q 1056 3291 1056 2328 
Q 1056 1369 1301 889 
Q 1547 409 2034 409 
Q 2525 409 2770 889 
Q 3016 1369 3016 2328 
Q 3016 3291 2770 3770 
Q 2525 4250 2034 4250 
z
M 2034 4750 
Q 2819 4750 3233 4129 
Q 3647 3509 3647 2328 
Q 3647 1150 3233 529 
Q 2819 -91 2034 -91 
Q 1250 -91 836 529 
Q 422 1150 422 2328 
Q 422 3509 836 4129 
Q 1250 4750 2034 4750 
z
" transform="scale(0.015625)"/>
       </defs>
       <use xlink:href="#DejaVuSans-13"/>
      </g>
     </g>
    </g>
    <g id="ytick_2">
     <g id="line2d_11">
      <g>
       <use xlink:href="#mc2b8f5281f" x="44.103906" y="58.171875" style="stroke: #000000; stroke-width: 0.8"/>
      </g>
     </g>
     <g id="text_2">
      <!-- 5 -->
      <g transform="translate(30.741406 61.970703) scale(0.1 -0.1)">
       <defs>
        <path id="DejaVuSans-18" d="M 691 4666 
L 3169 4666 
L 3169 4134 
L 1269 4134 
L 1269 2991 
Q 1406 3038 1543 3061 
Q 1681 3084 1819 3084 
Q 2600 3084 3056 2656 
Q 3513 2228 3513 1497 
Q 3513 744 3044 326 
Q 2575 -91 1722 -91 
Q 1428 -91 1123 -41 
Q 819 9 494 109 
L 494 744 
Q 775 591 1075 516 
Q 1375 441 1709 441 
Q 2250 441 2565 725 
Q 2881 1009 2881 1497 
Q 2881 1984 2565 2268 
Q 2250 2553 1709 2553 
Q 1456 2553 1204 2497 
Q 953 2441 691 2322 
L 691 4666 
z
" transform="scale(0.015625)"/>
       </defs>
       <use xlink:href="#DejaVuSans-18"/>
      </g>
     </g>
    </g>
    <g id="ytick_3">
     <g id="line2d_12">
      <g>
       <use xlink:href="#mc2b8f5281f" x="44.103906" y="17.566151" style="stroke: #000000; stroke-width: 0.8"/>
      </g>
     </g>
     <g id="text_3">
      <!-- 10 -->
      <g transform="translate(24.378906 21.364979) scale(0.1 -0.1)">
       <defs>
        <path id="DejaVuSans-14" d="M 794 531 
L 1825 531 
L 1825 4091 
L 703 3866 
L 703 4441 
L 1819 4666 
L 2450 4666 
L 2450 531 
L 3481 531 
L 3481 0 
L 794 0 
L 794 531 
z
" transform="scale(0.015625)"/>
       </defs>
       <use xlink:href="#DejaVuSans-14"/>
       <use xlink:href="#DejaVuSans-13" transform="translate(63.625 0)"/>
      </g>
     </g>
    </g>
    <g id="text_4">
     <!-- Extracellular lactose -->
     <g transform="translate(17.976563 109.14375) rotate(-90) scale(0.1 -0.1)">
      <defs>
       <path id="DejaVuSans-28" d="M 628 4666 
L 3578 4666 
L 3578 4134 
L 1259 4134 
L 1259 2753 
L 3481 2753 
L 3481 2222 
L 1259 2222 
L 1259 531 
L 3634 531 
L 3634 0 
L 628 0 
L 628 4666 
z
" transform="scale(0.015625)"/>
       <path id="DejaVuSans-5b" d="M 3513 3500 
L 2247 1797 
L 3578 0 
L 2900 0 
L 1881 1375 
L 863 0 
L 184 0 
L 1544 1831 
L 300 3500 
L 978 3500 
L 1906 2253 
L 2834 3500 
L 3513 3500 
z
" transform="scale(0.015625)"/>
       <path id="DejaVuSans-57" d="M 1172 4494 
L 1172 3500 
L 2356 3500 
L 2356 3053 
L 1172 3053 
L 1172 1153 
Q 1172 725 1289 603 
Q 1406 481 1766 481 
L 2356 481 
L 2356 0 
L 1766 0 
Q 1100 0 847 248 
Q 594 497 594 1153 
L 594 3053 
L 172 3053 
L 172 3500 
L 594 3500 
L 594 4494 
L 1172 4494 
z
" transform="scale(0.015625)"/>
       <path id="DejaVuSans-55" d="M 2631 2963 
Q 2534 3019 2420 3045 
Q 2306 3072 2169 3072 
Q 1681 3072 1420 2755 
Q 1159 2438 1159 1844 
L 1159 0 
L 581 0 
L 581 3500 
L 1159 3500 
L 1159 2956 
Q 1341 3275 1631 3429 
Q 1922 3584 2338 3584 
Q 2397 3584 2469 3576 
Q 2541 3569 2628 3553 
L 2631 2963 
z
" transform="scale(0.015625)"/>
       <path id="DejaVuSans-44" d="M 2194 1759 
Q 1497 1759 1228 1600 
Q 959 1441 959 1056 
Q 959 750 1161 570 
Q 1363 391 1709 391 
Q 2188 391 2477 730 
Q 2766 1069 2766 1631 
L 2766 1759 
L 2194 1759 
z
M 3341 1997 
L 3341 0 
L 2766 0 
L 2766 531 
Q 2569 213 2275 61 
Q 1981 -91 1556 -91 
Q 1019 -91 701 211 
Q 384 513 384 1019 
Q 384 1609 779 1909 
Q 1175 2209 1959 2209 
L 2766 2209 
L 2766 2266 
Q 2766 2663 2505 2880 
Q 2244 3097 1772 3097 
Q 1472 3097 1187 3025 
Q 903 2953 641 2809 
L 641 3341 
Q 956 3463 1253 3523 
Q 1550 3584 1831 3584 
Q 2591 3584 2966 3190 
Q 3341 2797 3341 1997 
z
" transform="scale(0.015625)"/>
       <path id="DejaVuSans-46" d="M 3122 3366 
L 3122 2828 
Q 2878 2963 2633 3030 
Q 2388 3097 2138 3097 
Q 1578 3097 1268 2742 
Q 959 2388 959 1747 
Q 959 1106 1268 751 
Q 1578 397 2138 397 
Q 2388 397 2633 464 
Q 2878 531 3122 666 
L 3122 134 
Q 2881 22 2623 -34 
Q 2366 -91 2075 -91 
Q 1284 -91 818 406 
Q 353 903 353 1747 
Q 353 2603 823 3093 
Q 1294 3584 2113 3584 
Q 2378 3584 2631 3529 
Q 2884 3475 3122 3366 
z
" transform="scale(0.015625)"/>
       <path id="DejaVuSans-48" d="M 3597 1894 
L 3597 1613 
L 953 1613 
Q 991 1019 1311 708 
Q 1631 397 2203 397 
Q 2534 397 2845 478 
Q 3156 559 3463 722 
L 3463 178 
Q 3153 47 2828 -22 
Q 2503 -91 2169 -91 
Q 1331 -91 842 396 
Q 353 884 353 1716 
Q 353 2575 817 3079 
Q 1281 3584 2069 3584 
Q 2775 3584 3186 3129 
Q 3597 2675 3597 1894 
z
M 3022 2063 
Q 3016 2534 2758 2815 
Q 2500 3097 2075 3097 
Q 1594 3097 1305 2825 
Q 1016 2553 972 2059 
L 3022 2063 
z
" transform="scale(0.015625)"/>
       <path id="DejaVuSans-4f" d="M 603 4863 
L 1178 4863 
L 1178 0 
L 603 0 
L 603 4863 
z
" transform="scale(0.015625)"/>
       <path id="DejaVuSans-58" d="M 544 1381 
L 544 3500 
L 1119 3500 
L 1119 1403 
Q 1119 906 1312 657 
Q 1506 409 1894 409 
Q 2359 409 2629 706 
Q 2900 1003 2900 1516 
L 2900 3500 
L 3475 3500 
L 3475 0 
L 2900 0 
L 2900 538 
Q 2691 219 2414 64 
Q 2138 -91 1772 -91 
Q 1169 -91 856 284 
Q 544 659 544 1381 
z
M 1991 3584 
L 1991 3584 
z
" transform="scale(0.015625)"/>
       <path id="DejaVuSans-3" transform="scale(0.015625)"/>
       <path id="DejaVuSans-52" d="M 1959 3097 
Q 1497 3097 1228 2736 
Q 959 2375 959 1747 
Q 959 1119 1226 758 
Q 1494 397 1959 397 
Q 2419 397 2687 759 
Q 2956 1122 2956 1747 
Q 2956 2369 2687 2733 
Q 2419 3097 1959 3097 
z
M 1959 3584 
Q 2709 3584 3137 3096 
Q 3566 2609 3566 1747 
Q 3566 888 3137 398 
Q 2709 -91 1959 -91 
Q 1206 -91 779 398 
Q 353 888 353 1747 
Q 353 2609 779 3096 
Q 1206 3584 1959 3584 
z
" transform="scale(0.015625)"/>
       <path id="DejaVuSans-56" d="M 2834 3397 
L 2834 2853 
Q 2591 2978 2328 3040 
Q 2066 3103 1784 3103 
Q 1356 3103 1142 2972 
Q 928 2841 928 2578 
Q 928 2378 1081 2264 
Q 1234 2150 1697 2047 
L 1894 2003 
Q 2506 1872 2764 1633 
Q 3022 1394 3022 966 
Q 3022 478 2636 193 
Q 2250 -91 1575 -91 
Q 1294 -91 989 -36 
Q 684 19 347 128 
L 347 722 
Q 666 556 975 473 
Q 1284 391 1588 391 
Q 1994 391 2212 530 
Q 2431 669 2431 922 
Q 2431 1156 2273 1281 
Q 2116 1406 1581 1522 
L 1381 1569 
Q 847 1681 609 1914 
Q 372 2147 372 2553 
Q 372 3047 722 3315 
Q 1072 3584 1716 3584 
Q 2034 3584 2315 3537 
Q 2597 3491 2834 3397 
z
" transform="scale(0.015625)"/>
      </defs>
      <use xlink:href="#DejaVuSans-28"/>
      <use xlink:href="#DejaVuSans-5b" transform="translate(63.1875 0)"/>
      <use xlink:href="#DejaVuSans-57" transform="translate(122.375 0)"/>
      <use xlink:href="#DejaVuSans-55" transform="translate(161.578125 0)"/>
      <use xlink:href="#DejaVuSans-44" transform="translate(202.6875 0)"/>
      <use xlink:href="#DejaVuSans-46" transform="translate(263.96875 0)"/>
      <use xlink:href="#DejaVuSans-48" transform="translate(318.953125 0)"/>
      <use xlink:href="#DejaVuSans-4f" transform="translate(380.484375 0)"/>
      <use xlink:href="#DejaVuSans-4f" transform="translate(408.265625 0)"/>
      <use xlink:href="#DejaVuSans-58" transform="translate(436.046875 0)"/>
      <use xlink:href="#DejaVuSans-4f" transform="translate(499.421875 0)"/>
      <use xlink:href="#DejaVuSans-44" transform="translate(527.203125 0)"/>
      <use xlink:href="#DejaVuSans-55" transform="translate(588.484375 0)"/>
      <use xlink:href="#DejaVuSans-3" transform="translate(629.59375 0)"/>
      <use xlink:href="#DejaVuSans-4f" transform="translate(661.375 0)"/>
      <use xlink:href="#DejaVuSans-44" transform="translate(689.15625 0)"/>
      <use xlink:href="#DejaVuSans-46" transform="translate(750.4375 0)"/>
      <use xlink:href="#DejaVuSans-57" transform="translate(805.421875 0)"/>
      <use xlink:href="#DejaVuSans-52" transform="translate(844.625 0)"/>
      <use xlink:href="#DejaVuSans-56" transform="translate(905.8125 0)"/>
      <use xlink:href="#DejaVuSans-48" transform="translate(957.90625 0)"/>
     </g>
    </g>
   </g>
   <g id="line2d_13">
    <path d="M 56.88098 98.777599 
L 156.161945 98.777599 
L 156.251002 17.566151 
L 156.918684 17.647362 
L 157.036317 17.972208 
L 157.081111 18.05342 
L 157.227238 19.515226 
L 157.345525 21.139455 
L 157.359346 21.220666 
L 157.502793 22.926107 
L 157.526332 23.007318 
L 158.035677 26.49941 
L 158.312778 26.905467 
L 158.372044 26.986679 
L 158.48117 27.06789 
L 158.931557 27.149102 
L 159.028372 27.555159 
L 159.269059 27.961216 
L 159.369474 28.367274 
L 159.486373 28.448485 
L 159.586561 28.935754 
L 159.61866 29.016965 
L 159.746297 30.153925 
L 159.76586 30.235137 
L 159.878406 31.128463 
L 160.026533 31.778154 
L 160.069089 31.859366 
L 160.71662 35.757515 
L 160.826732 36.894476 
L 161.072904 38.356282 
L 161.17569 38.437493 
L 161.287111 38.924762 
L 161.337298 39.005973 
L 161.454827 39.818088 
L 161.481686 39.899299 
L 161.618019 40.386568 
L 161.669138 40.467779 
L 161.827424 41.198682 
L 161.989577 41.279894 
L 162.139802 41.685951 
L 162.321718 41.929585 
L 162.864885 42.010797 
L 162.988786 42.416854 
L 163.32115 42.985334 
L 163.422477 43.066546 
L 163.567047 43.635026 
L 163.606226 43.716237 
L 163.663427 43.797449 
L 163.959121 43.87866 
L 164.070872 44.041083 
L 165.838185 44.122294 
L 166.032272 44.609563 
L 166.140024 44.853198 
L 166.27628 44.934409 
L 166.59501 45.421678 
L 166.703772 46.233792 
L 166.868326 46.315004 
L 166.982938 46.396215 
L 167.081201 46.477426 
L 167.306236 47.045907 
L 167.355121 47.127118 
L 167.443658 47.614387 
L 168.296414 50.781633 
L 168.482177 52.568285 
L 168.649492 53.217977 
L 168.884178 54.273725 
L 168.926453 54.354937 
L 169.188466 55.329474 
L 169.300195 55.979166 
L 169.329424 56.060377 
L 169.444549 56.385223 
L 169.615594 56.710069 
L 169.759827 56.79128 
L 169.854352 56.953703 
L 169.948358 57.034915 
L 170.057457 57.278549 
L 170.185836 57.440972 
L 170.424578 57.603395 
L 170.764223 57.684606 
L 171.076623 58.496721 
L 171.288622 59.633681 
L 171.321278 59.714893 
L 171.421344 60.283373 
L 171.476384 60.364584 
L 171.614434 60.851853 
L 171.676559 60.933064 
L 171.866982 62.557293 
L 171.892898 62.638505 
L 172.041884 64.343945 
L 172.893516 68.729363 
L 173.042507 68.810575 
L 173.125049 68.891786 
L 173.601635 69.297843 
L 173.705301 69.379055 
L 173.82757 69.866324 
L 173.964712 69.947535 
L 174.098239 70.272381 
L 174.658967 72.627513 
L 174.756551 73.277204 
L 174.997949 73.845684 
L 175.065043 73.926896 
L 175.176699 74.251742 
L 175.404786 74.901433 
L 175.43177 74.982645 
L 175.848182 76.282028 
L 176.210391 77.581411 
L 176.23103 77.662623 
L 176.374735 78.63716 
L 176.411921 78.718371 
L 176.600336 79.530486 
L 176.734433 79.611697 
L 176.871487 79.855332 
L 176.963002 80.017755 
L 177.028789 80.098966 
L 177.653226 81.641984 
L 177.847177 81.723195 
L 177.97414 81.804406 
L 178.505982 81.885618 
L 178.61598 81.966829 
L 178.678938 82.048041 
L 178.78901 82.129252 
L 178.895995 82.291675 
L 179.096093 82.372887 
L 179.231903 82.535309 
L 179.436013 82.616521 
L 179.544716 82.778944 
L 179.671912 82.941367 
L 179.913739 83.022578 
L 180.183712 83.266212 
L 183.797243 83.347424 
L 183.882385 83.428635 
L 184.159445 83.509847 
L 184.480977 84.24075 
L 184.601095 84.484384 
L 184.781309 84.565596 
L 184.882859 84.646807 
L 185.394706 84.728019 
L 185.588459 85.052864 
L 185.762789 85.134076 
L 186.392905 85.540133 
L 186.413682 85.621344 
L 187.620667 86.271036 
L 187.713786 86.433459 
L 188.121499 87.326785 
L 188.363402 87.407996 
L 188.622682 87.895265 
L 188.934291 87.976476 
L 189.046371 88.057688 
L 189.871906 88.138899 
L 190.296365 88.382534 
L 190.440861 88.463745 
L 190.83061 88.544957 
L 190.894131 88.626168 
L 191.136597 88.951014 
L 191.234264 89.113437 
L 191.517337 89.194648 
L 191.576281 89.27586 
L 191.944903 89.519494 
L 192.141804 89.600705 
L 192.329461 89.763128 
L 192.742515 89.84434 
L 192.869304 89.925551 
L 193.044175 90.006763 
L 193.153103 90.250397 
L 193.289557 90.331608 
L 193.651 90.41282 
L 193.793481 90.575243 
L 194.077522 90.656454 
L 194.233535 90.900089 
L 194.335506 90.9813 
L 194.429077 91.062511 
L 194.612268 91.143723 
L 194.750173 91.306146 
L 194.80566 91.387357 
L 195.120638 91.793415 
L 195.645632 91.874626 
L 195.754412 92.11826 
L 195.936907 92.199472 
L 196.014483 92.443106 
L 196.136343 92.524318 
L 196.335313 92.605529 
L 196.483325 92.68674 
L 196.623876 92.849163 
L 196.821851 92.930375 
L 196.923557 93.011586 
L 197.278199 93.255221 
L 197.463958 93.417643 
L 197.704352 93.498855 
L 197.94672 93.580066 
L 198.610772 93.661278 
L 198.724422 93.823701 
L 199.285035 93.904912 
L 199.341281 94.067335 
L 199.488052 94.148547 
L 199.706458 94.473392 
L 200.142352 94.554604 
L 200.233869 94.717027 
L 200.788618 94.798238 
L 200.924168 94.87945 
L 201.224093 94.960661 
L 201.47644 95.204295 
L 201.900922 95.285507 
L 202.032349 95.366718 
L 202.224777 95.44793 
L 202.743863 95.529141 
L 202.832809 95.610353 
L 204.491818 95.691564 
L 204.632308 95.772775 
L 205.871998 95.853987 
L 206.115021 96.01641 
L 206.92131 96.097621 
L 207.088966 96.178833 
L 209.337655 96.260044 
L 209.443144 96.341256 
L 210.336523 96.422467 
L 210.453509 96.503679 
L 211.639872 96.58489 
L 211.653766 96.666101 
L 222.929804 96.747313 
L 223.837103 96.828524 
L 253.332334 96.909736 
L 253.477715 96.990947 
L 254.166672 97.072159 
L 254.279598 97.15337 
L 255.129822 97.234582 
L 255.18043 97.315793 
L 257.806964 97.397004 
L 257.917326 97.478216 
L 293.854535 97.559427 
L 294.589638 97.803062 
L 312.422447 97.803062 
L 312.422447 97.803062 
" clip-path="url(#p76da83228b)" style="fill: none; stroke: #000000; stroke-width: 1.5; stroke-linecap: square"/>
   </g>
   <g id="patch_3">
    <path d="M 44.103906 102.838171 
L 44.103906 13.505579 
" style="fill: none; stroke: #000000; stroke-width: 0.8; stroke-linejoin: miter; stroke-linecap: square"/>
   </g>
   <g id="patch_4">
    <path d="M 325.19952 102.838171 
L 325.19952 13.505579 
" style="fill: none; stroke: #000000; stroke-width: 0.8; stroke-linejoin: miter; stroke-linecap: square"/>
   </g>
   <g id="patch_5">
    <path d="M 44.103906 102.838171 
L 325.19952 102.838171 
" style="fill: none; stroke: #000000; stroke-width: 0.8; stroke-linejoin: miter; stroke-linecap: square"/>
   </g>
   <g id="patch_6">
    <path d="M 44.103906 13.505579 
L 325.19952 13.505579 
" style="fill: none; stroke: #000000; stroke-width: 0.8; stroke-linejoin: miter; stroke-linecap: square"/>
   </g>
  </g>
  <g id="axes_2">
   <g id="patch_7">
    <path d="M 44.103906 201.671244 
L 325.19952 201.671244 
L 325.19952 112.338651 
L 44.103906 112.338651 
z
" style="fill: #ffffff"/>
   </g>
   <g id="matplotlib.axis_3">
    <g id="xtick_10">
     <g id="line2d_14">
      <g>
       <use xlink:href="#mac12a7b500" x="56.88098" y="201.671244" style="stroke: #000000; stroke-width: 0.8"/>
      </g>
     </g>
    </g>
    <g id="xtick_11">
     <g id="line2d_15">
      <g>
       <use xlink:href="#mac12a7b500" x="88.797002" y="201.671244" style="stroke: #000000; stroke-width: 0.8"/>
      </g>
     </g>
    </g>
    <g id="xtick_12">
     <g id="line2d_16">
      <g>
       <use xlink:href="#mac12a7b500" x="120.713025" y="201.671244" style="stroke: #000000; stroke-width: 0.8"/>
      </g>
     </g>
    </g>
    <g id="xtick_13">
     <g id="line2d_17">
      <g>
       <use xlink:href="#mac12a7b500" x="152.629048" y="201.671244" style="stroke: #000000; stroke-width: 0.8"/>
      </g>
     </g>
    </g>
    <g id="xtick_14">
     <g id="line2d_18">
      <g>
       <use xlink:href="#mac12a7b500" x="184.545071" y="201.671244" style="stroke: #000000; stroke-width: 0.8"/>
      </g>
     </g>
    </g>
    <g id="xtick_15">
     <g id="line2d_19">
      <g>
       <use xlink:href="#mac12a7b500" x="216.461094" y="201.671244" style="stroke: #000000; stroke-width: 0.8"/>
      </g>
     </g>
    </g>
    <g id="xtick_16">
     <g id="line2d_20">
      <g>
       <use xlink:href="#mac12a7b500" x="248.377117" y="201.671244" style="stroke: #000000; stroke-width: 0.8"/>
      </g>
     </g>
    </g>
    <g id="xtick_17">
     <g id="line2d_21">
      <g>
       <use xlink:href="#mac12a7b500" x="280.29314" y="201.671244" style="stroke: #000000; stroke-width: 0.8"/>
      </g>
     </g>
    </g>
    <g id="xtick_18">
     <g id="line2d_22">
      <g>
       <use xlink:href="#mac12a7b500" x="312.209162" y="201.671244" style="stroke: #000000; stroke-width: 0.8"/>
      </g>
     </g>
    </g>
   </g>
   <g id="matplotlib.axis_4">
    <g id="ytick_4">
     <g id="line2d_23">
      <g>
       <use xlink:href="#mc2b8f5281f" x="44.103906" y="197.610672" style="stroke: #000000; stroke-width: 0.8"/>
      </g>
     </g>
     <g id="text_5">
      <!-- 0 -->
      <g transform="translate(30.741406 201.4095) scale(0.1 -0.1)">
       <use xlink:href="#DejaVuSans-13"/>
      </g>
     </g>
    </g>
    <g id="ytick_5">
     <g id="line2d_24">
      <g>
       <use xlink:href="#mc2b8f5281f" x="44.103906" y="157.004948" style="stroke: #000000; stroke-width: 0.8"/>
      </g>
     </g>
     <g id="text_6">
      <!-- 5 -->
      <g transform="translate(30.741406 160.803776) scale(0.1 -0.1)">
       <use xlink:href="#DejaVuSans-18"/>
      </g>
     </g>
    </g>
    <g id="ytick_6">
     <g id="line2d_25">
      <g>
       <use xlink:href="#mc2b8f5281f" x="44.103906" y="116.399224" style="stroke: #000000; stroke-width: 0.8"/>
      </g>
     </g>
     <g id="text_7">
      <!-- 10 -->
      <g transform="translate(24.378906 120.198052) scale(0.1 -0.1)">
       <use xlink:href="#DejaVuSans-14"/>
       <use xlink:href="#DejaVuSans-13" transform="translate(63.625 0)"/>
      </g>
     </g>
    </g>
    <g id="text_8">
     <!-- LacY -->
     <g transform="translate(17.976563 168.658073) rotate(-90) scale(0.1 -0.1)">
      <defs>
       <path id="DejaVuSans-2f" d="M 628 4666 
L 1259 4666 
L 1259 531 
L 3531 531 
L 3531 0 
L 628 0 
L 628 4666 
z
" transform="scale(0.015625)"/>
       <path id="DejaVuSans-3c" d="M -13 4666 
L 666 4666 
L 1959 2747 
L 3244 4666 
L 3922 4666 
L 2272 2222 
L 2272 0 
L 1638 0 
L 1638 2222 
L -13 4666 
z
" transform="scale(0.015625)"/>
      </defs>
      <use xlink:href="#DejaVuSans-2f"/>
      <use xlink:href="#DejaVuSans-44" transform="translate(55.71875 0)"/>
      <use xlink:href="#DejaVuSans-46" transform="translate(117 0)"/>
      <use xlink:href="#DejaVuSans-3c" transform="translate(171.984375 0)"/>
     </g>
    </g>
   </g>
   <g id="line2d_26">
    <path d="M 56.88098 116.399224 
L 56.90811 116.399224 
L 56.96261 124.520369 
L 57.070786 140.762658 
L 57.131135 148.883803 
L 57.283257 148.883803 
L 57.300955 140.762658 
L 57.521565 148.883803 
L 57.663445 148.883803 
L 57.834112 165.126093 
L 58.135043 181.368382 
L 58.200669 197.610672 
L 59.73081 197.610672 
L 59.897447 189.489527 
L 59.940193 197.610672 
L 64.963264 197.610672 
L 65.286252 189.489527 
L 65.396216 197.610672 
L 82.894138 197.610672 
L 83.088565 189.489527 
L 84.882059 197.610672 
L 84.896885 189.489527 
L 85.040106 181.368382 
L 85.044761 173.247238 
L 85.366955 181.368382 
L 85.593942 181.368382 
L 85.713587 197.610672 
L 85.774414 189.489527 
L 85.96466 189.489527 
L 86.103159 197.610672 
L 89.995783 197.610672 
L 90.385621 181.368382 
L 90.386923 173.247238 
L 90.88561 173.247238 
L 90.924282 189.489527 
L 91.696505 189.489527 
L 91.865446 181.368382 
L 92.209773 197.610672 
L 109.216685 197.610672 
L 109.322393 189.489527 
L 109.442113 189.489527 
L 109.581221 197.610672 
L 109.816247 197.610672 
L 109.857737 189.489527 
L 110.273743 189.489527 
L 110.62371 181.368382 
L 110.682065 189.489527 
L 110.857352 189.489527 
L 110.886934 197.610672 
L 119.647645 197.610672 
L 119.826095 189.489527 
L 121.92666 189.489527 
L 123.77441 197.610672 
L 131.543616 197.610672 
L 131.729912 189.489527 
L 132.017518 189.489527 
L 132.125311 197.610672 
L 136.4618 197.610672 
L 136.545544 189.489527 
L 136.567413 197.610672 
L 146.561685 197.610672 
L 146.822572 181.368382 
L 146.843407 189.489527 
L 146.872419 181.368382 
L 146.985549 173.247238 
L 146.99089 181.368382 
L 147.575729 181.368382 
L 148.193011 189.489527 
L 148.438384 189.489527 
L 148.7537 181.368382 
L 148.866603 181.368382 
L 149.938697 197.610672 
L 150.398947 197.610672 
L 150.450837 181.368382 
L 150.551729 181.368382 
L 150.704588 189.489527 
L 150.83833 189.489527 
L 151.38133 197.610672 
L 156.500666 197.610672 
L 156.929024 189.489527 
L 157.169358 157.004948 
L 157.451047 157.004948 
L 157.571175 173.247238 
L 157.621052 173.247238 
L 157.72197 165.126093 
L 157.808964 165.126093 
L 157.918791 181.368382 
L 157.946996 181.368382 
L 158.035677 189.489527 
L 158.387516 189.489527 
L 158.48117 197.610672 
L 158.880934 197.610672 
L 158.982311 189.489527 
L 159.148523 189.489527 
L 159.252651 181.368382 
L 159.398659 181.368382 
L 159.454151 189.489527 
L 159.501463 181.368382 
L 159.610374 181.368382 
L 159.719594 173.247238 
L 159.871128 173.247238 
L 159.995813 189.489527 
L 160.12967 189.489527 
L 160.252522 181.368382 
L 160.401377 181.368382 
L 160.539866 165.126093 
L 160.702397 165.126093 
L 160.771147 157.004948 
L 160.810289 165.126093 
L 160.897746 165.126093 
L 160.948312 157.004948 
L 161.000934 165.126093 
L 161.16964 165.126093 
L 161.278768 181.368382 
L 161.307723 181.368382 
L 161.338256 189.489527 
L 161.346637 173.247238 
L 161.414659 173.247238 
L 161.641169 173.247238 
L 161.743822 181.368382 
L 161.814775 181.368382 
L 161.878503 189.489527 
L 162.110315 189.489527 
L 162.227126 181.368382 
L 162.252911 181.368382 
L 162.415035 197.610672 
L 162.768793 197.610672 
L 162.914086 189.489527 
L 163.062391 189.489527 
L 163.176362 181.368382 
L 163.213215 181.368382 
L 163.32115 189.489527 
L 163.653205 189.489527 
L 163.762844 197.610672 
L 163.904659 197.610672 
L 164.032364 189.489527 
L 164.063465 189.489527 
L 164.164118 197.610672 
L 164.738094 197.610672 
L 164.751623 189.489527 
L 164.834824 197.610672 
L 165.200616 197.610672 
L 165.204558 189.489527 
L 165.25191 197.610672 
L 165.628326 197.610672 
L 165.896373 189.489527 
L 166.014032 181.368382 
L 166.082865 181.368382 
L 166.167174 189.489527 
L 166.612192 189.489527 
L 166.633961 181.368382 
L 166.703772 189.489527 
L 166.872003 189.489527 
L 166.946531 197.610672 
L 166.982938 189.489527 
L 167.001836 189.489527 
L 167.151902 173.247238 
L 167.21763 173.247238 
L 167.312637 181.368382 
L 167.407448 181.368382 
L 167.509089 189.489527 
L 167.675213 189.489527 
L 167.749763 173.247238 
L 168.215125 173.247238 
L 168.337724 157.004948 
L 168.455086 157.004948 
L 168.56821 173.247238 
L 168.813806 173.247238 
L 168.926453 181.368382 
L 169.042279 181.368382 
L 169.162545 173.247238 
L 169.263382 173.247238 
L 169.375195 181.368382 
L 169.716035 181.368382 
L 169.791749 189.489527 
L 169.824343 181.368382 
L 170.016689 181.368382 
L 170.117211 189.489527 
L 170.253546 189.489527 
L 170.361841 197.610672 
L 170.672367 197.610672 
L 170.807426 189.489527 
L 170.918774 189.489527 
L 171.035513 173.247238 
L 171.057502 173.247238 
L 171.175944 165.126093 
L 171.444112 165.126093 
L 171.483862 157.004948 
L 171.551616 165.126093 
L 171.614434 165.126093 
L 171.74778 140.762658 
L 171.862189 148.883803 
L 172.14767 148.883803 
L 172.241814 140.762658 
L 172.258474 148.883803 
L 172.281121 148.883803 
L 172.316397 140.762658 
L 172.378591 157.004948 
L 172.386273 157.004948 
L 172.421449 157.004948 
L 172.437614 165.126093 
L 172.530129 157.004948 
L 172.563557 148.883803 
L 172.63158 157.004948 
L 172.673665 157.004948 
L 172.762882 173.247238 
L 172.851716 173.247238 
L 172.969804 189.489527 
L 173.695466 189.489527 
L 173.81006 181.368382 
L 173.82757 181.368382 
L 174.00262 173.247238 
L 174.163517 173.247238 
L 174.260373 157.004948 
L 174.280796 165.126093 
L 174.423096 165.126093 
L 174.424411 157.004948 
L 174.523619 165.126093 
L 174.588367 165.126093 
L 174.703514 157.004948 
L 174.709518 157.004948 
L 174.797305 148.883803 
L 174.808721 165.126093 
L 174.887587 165.126093 
L 174.969831 157.004948 
L 174.997949 165.126093 
L 175.073894 165.126093 
L 175.176699 173.247238 
L 175.464847 173.247238 
L 175.517411 181.368382 
L 175.575563 173.247238 
L 175.708072 173.247238 
L 175.848182 157.004948 
L 175.868532 157.004948 
L 175.990712 165.126093 
L 176.184098 165.126093 
L 176.345742 148.883803 
L 176.469746 148.883803 
L 176.57847 173.247238 
L 176.61918 173.247238 
L 176.734433 165.126093 
L 176.861284 165.126093 
L 176.963002 173.247238 
L 177.295491 173.247238 
L 177.401618 181.368382 
L 177.45166 181.368382 
L 177.54226 173.247238 
L 177.550069 181.368382 
L 177.586149 181.368382 
L 177.598474 189.489527 
L 177.653226 181.368382 
L 177.753568 181.368382 
L 177.89901 189.489527 
L 177.97414 189.489527 
L 178.064739 181.368382 
L 178.177164 181.368382 
L 178.27617 189.489527 
L 178.562073 189.489527 
L 178.684714 165.126093 
L 178.731517 165.126093 
L 178.839293 173.247238 
L 178.961314 189.489527 
L 178.984646 189.489527 
L 179.041465 165.126093 
L 179.096093 173.247238 
L 179.129947 173.247238 
L 179.312801 189.489527 
L 179.352135 189.489527 
L 179.454411 181.368382 
L 179.56214 189.489527 
L 179.609473 189.489527 
L 179.636415 197.610672 
L 179.712423 189.489527 
L 180.06523 189.489527 
L 180.150432 181.368382 
L 180.153313 189.489527 
L 180.716369 189.489527 
L 180.822832 197.610672 
L 183.441394 197.610672 
L 183.882385 189.489527 
L 184.093729 181.368382 
L 184.207627 189.489527 
L 184.402953 173.247238 
L 184.512867 173.247238 
L 184.601095 165.126093 
L 184.781309 173.247238 
L 184.799075 173.247238 
L 184.882859 189.489527 
L 184.969941 173.247238 
L 185.004833 181.368382 
L 185.090712 189.489527 
L 185.184226 189.489527 
L 185.319296 173.247238 
L 185.370355 173.247238 
L 185.41527 165.126093 
L 185.470248 173.247238 
L 185.493015 173.247238 
L 185.60214 181.368382 
L 186.076423 181.368382 
L 186.148873 189.489527 
L 186.172032 181.368382 
L 186.608445 181.368382 
L 186.723532 189.489527 
L 186.888816 189.489527 
L 186.927667 181.368382 
L 187.261825 181.368382 
L 187.362822 173.247238 
L 187.593312 173.247238 
L 187.713786 165.126093 
L 188.234651 165.126093 
L 188.39931 173.247238 
L 188.40508 165.126093 
L 188.444871 181.368382 
L 188.465397 181.368382 
L 188.590074 181.368382 
L 188.677658 189.489527 
L 188.686028 181.368382 
L 188.799931 181.368382 
L 188.880035 189.489527 
L 188.970123 189.489527 
L 189.05149 173.247238 
L 189.178844 181.368382 
L 189.28635 181.368382 
L 189.298836 189.489527 
L 189.460052 189.489527 
L 189.499132 181.368382 
L 189.656874 189.489527 
L 190.129739 189.489527 
L 190.21841 181.368382 
L 190.296365 189.489527 
L 190.440861 189.489527 
L 190.569187 181.368382 
L 191.024734 181.368382 
L 191.168351 173.247238 
L 191.416548 173.247238 
L 191.523897 181.368382 
L 191.544674 181.368382 
L 191.649632 173.247238 
L 191.651986 181.368382 
L 191.751399 181.368382 
L 191.904366 189.489527 
L 192.032229 181.368382 
L 192.076663 181.368382 
L 192.132816 173.247238 
L 192.141804 181.368382 
L 192.189804 181.368382 
L 192.260325 189.489527 
L 192.370202 189.489527 
L 192.405141 181.368382 
L 192.478928 189.489527 
L 192.637493 189.489527 
L 192.797895 181.368382 
L 192.869304 181.368382 
L 193.078596 165.126093 
L 193.153103 181.368382 
L 193.586915 181.368382 
L 193.59884 173.247238 
L 193.673564 181.368382 
L 193.793481 181.368382 
L 193.958701 165.126093 
L 194.006339 165.126093 
L 194.110171 173.247238 
L 194.205858 165.126093 
L 194.207379 173.247238 
L 194.322532 173.247238 
L 194.429077 165.126093 
L 194.67308 165.126093 
L 194.80566 148.883803 
L 194.902197 148.883803 
L 195.027863 165.126093 
L 195.039557 165.126093 
L 195.155167 181.368382 
L 195.259633 181.368382 
L 195.270003 189.489527 
L 195.363434 181.368382 
L 195.632132 189.489527 
L 195.754412 157.004948 
L 195.836466 157.004948 
L 195.962034 165.126093 
L 196.014483 157.004948 
L 196.071061 165.126093 
L 196.198904 165.126093 
L 196.232027 157.004948 
L 196.508133 173.247238 
L 196.606879 173.247238 
L 196.721233 181.368382 
L 196.867887 157.004948 
L 196.923557 165.126093 
L 197.140299 165.126093 
L 197.162474 173.247238 
L 197.232845 165.126093 
L 197.381807 165.126093 
L 197.534024 181.368382 
L 197.684656 173.247238 
L 197.815975 173.247238 
L 197.94672 189.489527 
L 198.116144 189.489527 
L 198.22625 181.368382 
L 198.328794 197.610672 
L 198.352782 189.489527 
L 198.703726 189.489527 
L 198.712556 197.610672 
L 198.809193 189.489527 
L 198.883074 189.489527 
L 198.896032 173.247238 
L 199.157422 173.247238 
L 199.269141 165.126093 
L 199.341281 157.004948 
L 199.52989 157.004948 
L 199.591305 165.126093 
L 199.820897 165.126093 
L 199.876441 173.247238 
L 199.940891 173.247238 
L 199.957598 181.368382 
L 200.022714 173.247238 
L 200.079484 173.247238 
L 200.194181 181.368382 
L 200.279119 181.368382 
L 200.422568 173.247238 
L 200.627236 173.247238 
L 200.782439 165.126093 
L 200.891644 173.247238 
L 200.924168 173.247238 
L 201.037452 157.004948 
L 201.268132 148.883803 
L 201.316127 148.883803 
L 201.375861 132.641513 
L 201.4424 132.641513 
L 201.520038 124.520369 
L 201.543403 140.762658 
L 201.641172 148.883803 
L 201.697025 148.883803 
L 201.765844 157.004948 
L 201.894845 157.004948 
L 201.961436 148.883803 
L 201.993705 157.004948 
L 202.08986 157.004948 
L 202.158622 165.126093 
L 202.361917 165.126093 
L 202.55265 181.368382 
L 202.568261 173.247238 
L 202.617938 181.368382 
L 202.750613 173.247238 
L 202.820849 189.489527 
L 202.832809 173.247238 
L 202.920688 173.247238 
L 203.108817 181.368382 
L 203.115354 189.489527 
L 203.30541 189.489527 
L 203.443006 181.368382 
L 203.675169 181.368382 
L 203.737818 189.489527 
L 204.069084 189.489527 
L 204.107986 197.610672 
L 204.165841 189.489527 
L 204.347967 181.368382 
L 204.539569 165.126093 
L 204.608998 173.247238 
L 204.632308 165.126093 
L 204.799046 165.126093 
L 204.824841 173.247238 
L 205.104258 173.247238 
L 205.466114 189.489527 
L 206.046683 165.126093 
L 206.105048 165.126093 
L 206.115021 173.247238 
L 206.232599 173.247238 
L 206.446197 189.489527 
L 206.57615 181.368382 
L 206.699178 197.610672 
L 206.784961 189.489527 
L 207.072977 189.489527 
L 207.192715 173.247238 
L 207.346264 181.368382 
L 207.416789 181.368382 
L 207.494277 197.610672 
L 207.70948 197.610672 
L 207.76193 189.489527 
L 208.079557 189.489527 
L 208.113225 197.610672 
L 209.216993 181.368382 
L 209.398679 181.368382 
L 209.519123 189.489527 
L 209.595905 181.368382 
L 209.771059 181.368382 
L 210.369042 173.247238 
L 210.40456 173.247238 
L 210.453509 165.126093 
L 210.648339 181.368382 
L 211.4817 181.368382 
L 211.653766 189.489527 
L 211.954694 189.489527 
L 213.099624 197.610672 
L 214.485833 197.610672 
L 214.55797 189.489527 
L 214.711906 189.489527 
L 214.869076 197.610672 
L 219.065095 197.610672 
L 219.246538 189.489527 
L 219.780944 189.489527 
L 219.94933 181.368382 
L 220.029695 189.489527 
L 220.333782 189.489527 
L 220.499319 197.610672 
L 222.618466 197.610672 
L 222.929804 189.489527 
L 223.502322 189.489527 
L 223.837103 197.610672 
L 235.596778 197.610672 
L 235.777074 189.489527 
L 235.860983 173.247238 
L 236.029807 173.247238 
L 236.151751 181.368382 
L 237.035309 197.610672 
L 238.289345 197.610672 
L 238.595693 189.489527 
L 238.744002 189.489527 
L 238.829189 197.610672 
L 252.406551 197.610672 
L 252.644284 173.247238 
L 252.865203 197.610672 
L 253.000518 181.368382 
L 253.033788 189.489527 
L 253.12121 189.489527 
L 253.190996 181.368382 
L 253.44294 197.610672 
L 253.601989 173.247238 
L 253.617004 181.368382 
L 253.680693 181.368382 
L 253.756062 173.247238 
L 253.958681 173.247238 
L 253.972292 165.126093 
L 254.044443 173.247238 
L 254.192877 173.247238 
L 254.279598 181.368382 
L 254.345018 173.247238 
L 254.361064 181.368382 
L 254.406685 181.368382 
L 254.505049 173.247238 
L 254.614291 189.489527 
L 254.752656 181.368382 
L 254.832847 189.489527 
L 254.980374 189.489527 
L 255.134122 181.368382 
L 255.18043 189.489527 
L 255.472259 189.489527 
L 255.568498 181.368382 
L 255.713507 197.610672 
L 256.006588 197.610672 
L 256.07035 189.489527 
L 256.336625 189.489527 
L 256.741167 181.368382 
L 256.78752 173.247238 
L 256.814446 181.368382 
L 256.95356 181.368382 
L 257.046334 173.247238 
L 257.175898 181.368382 
L 257.289094 181.368382 
L 257.447513 189.489527 
L 257.568277 181.368382 
L 257.686325 189.489527 
L 257.811076 181.368382 
L 257.912136 181.368382 
L 257.993531 189.489527 
L 258.174867 189.489527 
L 258.254343 197.610672 
L 269.016765 197.610672 
L 269.126127 189.489527 
L 269.365011 189.489527 
L 270.601641 197.610672 
L 270.738483 197.610672 
L 270.897114 189.489527 
L 271.141429 189.489527 
L 271.228941 197.610672 
L 278.027835 197.610672 
L 278.113598 189.489527 
L 278.142025 197.610672 
L 278.195327 189.489527 
L 278.296186 173.247238 
L 278.354553 173.247238 
L 278.63327 189.489527 
L 278.934388 197.610672 
L 288.113583 197.610672 
L 288.192043 189.489527 
L 288.552684 189.489527 
L 288.983437 197.610672 
L 289.173491 197.610672 
L 289.44698 189.489527 
L 289.915935 189.489527 
L 290.165814 197.610672 
L 293.485605 197.610672 
L 293.733398 189.489527 
L 294.057021 189.489527 
L 294.145214 181.368382 
L 294.58578 181.368382 
L 294.589638 189.489527 
L 294.756218 189.489527 
L 295.41578 197.610672 
L 312.422447 197.610672 
L 312.422447 197.610672 
" clip-path="url(#pc82e25127e)" style="fill: none; stroke: #000000; stroke-width: 1.5; stroke-linecap: square"/>
   </g>
   <g id="patch_8">
    <path d="M 44.103906 201.671244 
L 44.103906 112.338651 
" style="fill: none; stroke: #000000; stroke-width: 0.8; stroke-linejoin: miter; stroke-linecap: square"/>
   </g>
   <g id="patch_9">
    <path d="M 325.19952 201.671244 
L 325.19952 112.338651 
" style="fill: none; stroke: #000000; stroke-width: 0.8; stroke-linejoin: miter; stroke-linecap: square"/>
   </g>
   <g id="patch_10">
    <path d="M 44.103906 201.671244 
L 325.19952 201.671244 
" style="fill: none; stroke: #000000; stroke-width: 0.8; stroke-linejoin: miter; stroke-linecap: square"/>
   </g>
   <g id="patch_11">
    <path d="M 44.103906 112.338651 
L 325.19952 112.338651 
" style="fill: none; stroke: #000000; stroke-width: 0.8; stroke-linejoin: miter; stroke-linecap: square"/>
   </g>
  </g>
  <g id="axes_3">
   <g id="patch_12">
    <path d="M 44.103906 300.504317 
L 325.19952 300.504317 
L 325.19952 211.171724 
L 44.103906 211.171724 
z
" style="fill: #ffffff"/>
   </g>
   <g id="matplotlib.axis_5">
    <g id="xtick_19">
     <g id="line2d_27">
      <g>
       <use xlink:href="#mac12a7b500" x="56.88098" y="300.504317" style="stroke: #000000; stroke-width: 0.8"/>
      </g>
     </g>
     <g id="text_9">
      <!-- 0 -->
      <g transform="translate(53.69973 315.101974) scale(0.1 -0.1)">
       <use xlink:href="#DejaVuSans-13"/>
      </g>
     </g>
    </g>
    <g id="xtick_20">
     <g id="line2d_28">
      <g>
       <use xlink:href="#mac12a7b500" x="88.797002" y="300.504317" style="stroke: #000000; stroke-width: 0.8"/>
      </g>
     </g>
     <g id="text_10">
      <!-- 100 -->
      <g transform="translate(79.253252 315.101974) scale(0.1 -0.1)">
       <use xlink:href="#DejaVuSans-14"/>
       <use xlink:href="#DejaVuSans-13" transform="translate(63.625 0)"/>
       <use xlink:href="#DejaVuSans-13" transform="translate(127.25 0)"/>
      </g>
     </g>
    </g>
    <g id="xtick_21">
     <g id="line2d_29">
      <g>
       <use xlink:href="#mac12a7b500" x="120.713025" y="300.504317" style="stroke: #000000; stroke-width: 0.8"/>
      </g>
     </g>
     <g id="text_11">
      <!-- 200 -->
      <g transform="translate(111.169275 315.101974) scale(0.1 -0.1)">
       <defs>
        <path id="DejaVuSans-15" d="M 1228 531 
L 3431 531 
L 3431 0 
L 469 0 
L 469 531 
Q 828 903 1448 1529 
Q 2069 2156 2228 2338 
Q 2531 2678 2651 2914 
Q 2772 3150 2772 3378 
Q 2772 3750 2511 3984 
Q 2250 4219 1831 4219 
Q 1534 4219 1204 4116 
Q 875 4013 500 3803 
L 500 4441 
Q 881 4594 1212 4672 
Q 1544 4750 1819 4750 
Q 2544 4750 2975 4387 
Q 3406 4025 3406 3419 
Q 3406 3131 3298 2873 
Q 3191 2616 2906 2266 
Q 2828 2175 2409 1742 
Q 1991 1309 1228 531 
z
" transform="scale(0.015625)"/>
       </defs>
       <use xlink:href="#DejaVuSans-15"/>
       <use xlink:href="#DejaVuSans-13" transform="translate(63.625 0)"/>
       <use xlink:href="#DejaVuSans-13" transform="translate(127.25 0)"/>
      </g>
     </g>
    </g>
    <g id="xtick_22">
     <g id="line2d_30">
      <g>
       <use xlink:href="#mac12a7b500" x="152.629048" y="300.504317" style="stroke: #000000; stroke-width: 0.8"/>
      </g>
     </g>
     <g id="text_12">
      <!-- 300 -->
      <g transform="translate(143.085298 315.101974) scale(0.1 -0.1)">
       <defs>
        <path id="DejaVuSans-16" d="M 2597 2516 
Q 3050 2419 3304 2112 
Q 3559 1806 3559 1356 
Q 3559 666 3084 287 
Q 2609 -91 1734 -91 
Q 1441 -91 1130 -33 
Q 819 25 488 141 
L 488 750 
Q 750 597 1062 519 
Q 1375 441 1716 441 
Q 2309 441 2620 675 
Q 2931 909 2931 1356 
Q 2931 1769 2642 2001 
Q 2353 2234 1838 2234 
L 1294 2234 
L 1294 2753 
L 1863 2753 
Q 2328 2753 2575 2939 
Q 2822 3125 2822 3475 
Q 2822 3834 2567 4026 
Q 2313 4219 1838 4219 
Q 1578 4219 1281 4162 
Q 984 4106 628 3988 
L 628 4550 
Q 988 4650 1302 4700 
Q 1616 4750 1894 4750 
Q 2613 4750 3031 4423 
Q 3450 4097 3450 3541 
Q 3450 3153 3228 2886 
Q 3006 2619 2597 2516 
z
" transform="scale(0.015625)"/>
       </defs>
       <use xlink:href="#DejaVuSans-16"/>
       <use xlink:href="#DejaVuSans-13" transform="translate(63.625 0)"/>
       <use xlink:href="#DejaVuSans-13" transform="translate(127.25 0)"/>
      </g>
     </g>
    </g>
    <g id="xtick_23">
     <g id="line2d_31">
      <g>
       <use xlink:href="#mac12a7b500" x="184.545071" y="300.504317" style="stroke: #000000; stroke-width: 0.8"/>
      </g>
     </g>
     <g id="text_13">
      <!-- 400 -->
      <g transform="translate(175.001321 315.101974) scale(0.1 -0.1)">
       <defs>
        <path id="DejaVuSans-17" d="M 2419 4116 
L 825 1625 
L 2419 1625 
L 2419 4116 
z
M 2253 4666 
L 3047 4666 
L 3047 1625 
L 3713 1625 
L 3713 1100 
L 3047 1100 
L 3047 0 
L 2419 0 
L 2419 1100 
L 313 1100 
L 313 1709 
L 2253 4666 
z
" transform="scale(0.015625)"/>
       </defs>
       <use xlink:href="#DejaVuSans-17"/>
       <use xlink:href="#DejaVuSans-13" transform="translate(63.625 0)"/>
       <use xlink:href="#DejaVuSans-13" transform="translate(127.25 0)"/>
      </g>
     </g>
    </g>
    <g id="xtick_24">
     <g id="line2d_32">
      <g>
       <use xlink:href="#mac12a7b500" x="216.461094" y="300.504317" style="stroke: #000000; stroke-width: 0.8"/>
      </g>
     </g>
     <g id="text_14">
      <!-- 500 -->
      <g transform="translate(206.917344 315.101974) scale(0.1 -0.1)">
       <use xlink:href="#DejaVuSans-18"/>
       <use xlink:href="#DejaVuSans-13" transform="translate(63.625 0)"/>
       <use xlink:href="#DejaVuSans-13" transform="translate(127.25 0)"/>
      </g>
     </g>
    </g>
    <g id="xtick_25">
     <g id="line2d_33">
      <g>
       <use xlink:href="#mac12a7b500" x="248.377117" y="300.504317" style="stroke: #000000; stroke-width: 0.8"/>
      </g>
     </g>
     <g id="text_15">
      <!-- 600 -->
      <g transform="translate(238.833367 315.101974) scale(0.1 -0.1)">
       <defs>
        <path id="DejaVuSans-19" d="M 2113 2584 
Q 1688 2584 1439 2293 
Q 1191 2003 1191 1497 
Q 1191 994 1439 701 
Q 1688 409 2113 409 
Q 2538 409 2786 701 
Q 3034 994 3034 1497 
Q 3034 2003 2786 2293 
Q 2538 2584 2113 2584 
z
M 3366 4563 
L 3366 3988 
Q 3128 4100 2886 4159 
Q 2644 4219 2406 4219 
Q 1781 4219 1451 3797 
Q 1122 3375 1075 2522 
Q 1259 2794 1537 2939 
Q 1816 3084 2150 3084 
Q 2853 3084 3261 2657 
Q 3669 2231 3669 1497 
Q 3669 778 3244 343 
Q 2819 -91 2113 -91 
Q 1303 -91 875 529 
Q 447 1150 447 2328 
Q 447 3434 972 4092 
Q 1497 4750 2381 4750 
Q 2619 4750 2861 4703 
Q 3103 4656 3366 4563 
z
" transform="scale(0.015625)"/>
       </defs>
       <use xlink:href="#DejaVuSans-19"/>
       <use xlink:href="#DejaVuSans-13" transform="translate(63.625 0)"/>
       <use xlink:href="#DejaVuSans-13" transform="translate(127.25 0)"/>
      </g>
     </g>
    </g>
    <g id="xtick_26">
     <g id="line2d_34">
      <g>
       <use xlink:href="#mac12a7b500" x="280.29314" y="300.504317" style="stroke: #000000; stroke-width: 0.8"/>
      </g>
     </g>
     <g id="text_16">
      <!-- 700 -->
      <g transform="translate(270.74939 315.101974) scale(0.1 -0.1)">
       <defs>
        <path id="DejaVuSans-1a" d="M 525 4666 
L 3525 4666 
L 3525 4397 
L 1831 0 
L 1172 0 
L 2766 4134 
L 525 4134 
L 525 4666 
z
" transform="scale(0.015625)"/>
       </defs>
       <use xlink:href="#DejaVuSans-1a"/>
       <use xlink:href="#DejaVuSans-13" transform="translate(63.625 0)"/>
       <use xlink:href="#DejaVuSans-13" transform="translate(127.25 0)"/>
      </g>
     </g>
    </g>
    <g id="xtick_27">
     <g id="line2d_35">
      <g>
       <use xlink:href="#mac12a7b500" x="312.209162" y="300.504317" style="stroke: #000000; stroke-width: 0.8"/>
      </g>
     </g>
     <g id="text_17">
      <!-- 800 -->
      <g transform="translate(302.665412 315.101974) scale(0.1 -0.1)">
       <defs>
        <path id="DejaVuSans-1b" d="M 2034 2216 
Q 1584 2216 1326 1975 
Q 1069 1734 1069 1313 
Q 1069 891 1326 650 
Q 1584 409 2034 409 
Q 2484 409 2743 651 
Q 3003 894 3003 1313 
Q 3003 1734 2745 1975 
Q 2488 2216 2034 2216 
z
M 1403 2484 
Q 997 2584 770 2862 
Q 544 3141 544 3541 
Q 544 4100 942 4425 
Q 1341 4750 2034 4750 
Q 2731 4750 3128 4425 
Q 3525 4100 3525 3541 
Q 3525 3141 3298 2862 
Q 3072 2584 2669 2484 
Q 3125 2378 3379 2068 
Q 3634 1759 3634 1313 
Q 3634 634 3220 271 
Q 2806 -91 2034 -91 
Q 1263 -91 848 271 
Q 434 634 434 1313 
Q 434 1759 690 2068 
Q 947 2378 1403 2484 
z
M 1172 3481 
Q 1172 3119 1398 2916 
Q 1625 2713 2034 2713 
Q 2441 2713 2670 2916 
Q 2900 3119 2900 3481 
Q 2900 3844 2670 4047 
Q 2441 4250 2034 4250 
Q 1625 4250 1398 4047 
Q 1172 3844 1172 3481 
z
" transform="scale(0.015625)"/>
       </defs>
       <use xlink:href="#DejaVuSans-1b"/>
       <use xlink:href="#DejaVuSans-13" transform="translate(63.625 0)"/>
       <use xlink:href="#DejaVuSans-13" transform="translate(127.25 0)"/>
      </g>
     </g>
    </g>
    <g id="text_18">
     <!-- Time -->
     <g transform="translate(172.415776 329.102755) scale(0.1 -0.1)">
      <defs>
       <path id="DejaVuSans-37" d="M -19 4666 
L 3928 4666 
L 3928 4134 
L 2272 4134 
L 2272 0 
L 1638 0 
L 1638 4134 
L -19 4134 
L -19 4666 
z
" transform="scale(0.015625)"/>
       <path id="DejaVuSans-4c" d="M 603 3500 
L 1178 3500 
L 1178 0 
L 603 0 
L 603 3500 
z
M 603 4863 
L 1178 4863 
L 1178 4134 
L 603 4134 
L 603 4863 
z
" transform="scale(0.015625)"/>
       <path id="DejaVuSans-50" d="M 3328 2828 
Q 3544 3216 3844 3400 
Q 4144 3584 4550 3584 
Q 5097 3584 5394 3201 
Q 5691 2819 5691 2113 
L 5691 0 
L 5113 0 
L 5113 2094 
Q 5113 2597 4934 2840 
Q 4756 3084 4391 3084 
Q 3944 3084 3684 2787 
Q 3425 2491 3425 1978 
L 3425 0 
L 2847 0 
L 2847 2094 
Q 2847 2600 2669 2842 
Q 2491 3084 2119 3084 
Q 1678 3084 1418 2786 
Q 1159 2488 1159 1978 
L 1159 0 
L 581 0 
L 581 3500 
L 1159 3500 
L 1159 2956 
Q 1356 3278 1631 3431 
Q 1906 3584 2284 3584 
Q 2666 3584 2933 3390 
Q 3200 3197 3328 2828 
z
" transform="scale(0.015625)"/>
      </defs>
      <use xlink:href="#DejaVuSans-37"/>
      <use xlink:href="#DejaVuSans-4c" transform="translate(58 0)"/>
      <use xlink:href="#DejaVuSans-50" transform="translate(85.78125 0)"/>
      <use xlink:href="#DejaVuSans-48" transform="translate(183.1875 0)"/>
     </g>
    </g>
   </g>
   <g id="matplotlib.axis_6">
    <g id="ytick_7">
     <g id="line2d_36">
      <g>
       <use xlink:href="#mc2b8f5281f" x="44.103906" y="296.443745" style="stroke: #000000; stroke-width: 0.8"/>
      </g>
     </g>
     <g id="text_19">
      <!-- 0.0 -->
      <g transform="translate(21.200781 300.242573) scale(0.1 -0.1)">
       <defs>
        <path id="DejaVuSans-11" d="M 684 794 
L 1344 794 
L 1344 0 
L 684 0 
L 684 794 
z
" transform="scale(0.015625)"/>
       </defs>
       <use xlink:href="#DejaVuSans-13"/>
       <use xlink:href="#DejaVuSans-11" transform="translate(63.625 0)"/>
       <use xlink:href="#DejaVuSans-13" transform="translate(95.40625 0)"/>
      </g>
     </g>
    </g>
    <g id="ytick_8">
     <g id="line2d_37">
      <g>
       <use xlink:href="#mc2b8f5281f" x="44.103906" y="255.838021" style="stroke: #000000; stroke-width: 0.8"/>
      </g>
     </g>
     <g id="text_20">
      <!-- 0.5 -->
      <g transform="translate(21.200781 259.636849) scale(0.1 -0.1)">
       <use xlink:href="#DejaVuSans-13"/>
       <use xlink:href="#DejaVuSans-11" transform="translate(63.625 0)"/>
       <use xlink:href="#DejaVuSans-18" transform="translate(95.40625 0)"/>
      </g>
     </g>
    </g>
    <g id="ytick_9">
     <g id="line2d_38">
      <g>
       <use xlink:href="#mc2b8f5281f" x="44.103906" y="215.232297" style="stroke: #000000; stroke-width: 0.8"/>
      </g>
     </g>
     <g id="text_21">
      <!-- 1.0 -->
      <g transform="translate(21.200781 219.031125) scale(0.1 -0.1)">
       <use xlink:href="#DejaVuSans-14"/>
       <use xlink:href="#DejaVuSans-11" transform="translate(63.625 0)"/>
       <use xlink:href="#DejaVuSans-13" transform="translate(95.40625 0)"/>
      </g>
     </g>
    </g>
    <g id="text_22">
     <!-- Free lac operon -->
     <g transform="translate(14.798438 294.31224) rotate(-90) scale(0.1 -0.1)">
      <defs>
       <path id="DejaVuSans-29" d="M 628 4666 
L 3309 4666 
L 3309 4134 
L 1259 4134 
L 1259 2759 
L 3109 2759 
L 3109 2228 
L 1259 2228 
L 1259 0 
L 628 0 
L 628 4666 
z
" transform="scale(0.015625)"/>
       <path id="DejaVuSans-53" d="M 1159 525 
L 1159 -1331 
L 581 -1331 
L 581 3500 
L 1159 3500 
L 1159 2969 
Q 1341 3281 1617 3432 
Q 1894 3584 2278 3584 
Q 2916 3584 3314 3078 
Q 3713 2572 3713 1747 
Q 3713 922 3314 415 
Q 2916 -91 2278 -91 
Q 1894 -91 1617 61 
Q 1341 213 1159 525 
z
M 3116 1747 
Q 3116 2381 2855 2742 
Q 2594 3103 2138 3103 
Q 1681 3103 1420 2742 
Q 1159 2381 1159 1747 
Q 1159 1113 1420 752 
Q 1681 391 2138 391 
Q 2594 391 2855 752 
Q 3116 1113 3116 1747 
z
" transform="scale(0.015625)"/>
       <path id="DejaVuSans-51" d="M 3513 2113 
L 3513 0 
L 2938 0 
L 2938 2094 
Q 2938 2591 2744 2837 
Q 2550 3084 2163 3084 
Q 1697 3084 1428 2787 
Q 1159 2491 1159 1978 
L 1159 0 
L 581 0 
L 581 3500 
L 1159 3500 
L 1159 2956 
Q 1366 3272 1645 3428 
Q 1925 3584 2291 3584 
Q 2894 3584 3203 3211 
Q 3513 2838 3513 2113 
z
" transform="scale(0.015625)"/>
      </defs>
      <use xlink:href="#DejaVuSans-29"/>
      <use xlink:href="#DejaVuSans-55" transform="translate(50.234375 0)"/>
      <use xlink:href="#DejaVuSans-48" transform="translate(89.140625 0)"/>
      <use xlink:href="#DejaVuSans-48" transform="translate(150.671875 0)"/>
      <use xlink:href="#DejaVuSans-3" transform="translate(212.203125 0)"/>
      <use xlink:href="#DejaVuSans-4f" transform="translate(243.984375 0)"/>
      <use xlink:href="#DejaVuSans-44" transform="translate(271.765625 0)"/>
      <use xlink:href="#DejaVuSans-46" transform="translate(333.046875 0)"/>
      <use xlink:href="#DejaVuSans-3" transform="translate(388.03125 0)"/>
      <use xlink:href="#DejaVuSans-52" transform="translate(419.8125 0)"/>
      <use xlink:href="#DejaVuSans-53" transform="translate(481 0)"/>
      <use xlink:href="#DejaVuSans-48" transform="translate(544.484375 0)"/>
      <use xlink:href="#DejaVuSans-55" transform="translate(606.015625 0)"/>
      <use xlink:href="#DejaVuSans-52" transform="translate(644.921875 0)"/>
      <use xlink:href="#DejaVuSans-51" transform="translate(706.109375 0)"/>
     </g>
    </g>
   </g>
   <g id="line2d_39">
    <path d="M 56.88098 215.232297 
L 56.96261 296.443745 
L 57.131135 296.443745 
L 57.300955 215.232297 
L 57.419289 215.232297 
L 57.521565 296.443745 
L 58.739564 296.443745 
L 59.73081 215.232297 
L 59.917416 215.232297 
L 59.940193 296.443745 
L 62.365069 296.443745 
L 64.963264 215.232297 
L 65.258577 215.232297 
L 65.396216 296.443745 
L 65.522267 296.443745 
L 72.194129 215.232297 
L 72.364159 296.443745 
L 80.214849 215.232297 
L 80.263955 296.443745 
L 82.894138 215.232297 
L 83.034326 215.232297 
L 83.088565 296.443745 
L 84.83136 296.443745 
L 84.896885 215.232297 
L 85.774414 215.232297 
L 85.96466 296.443745 
L 86.998959 296.443745 
L 89.995783 215.232297 
L 90.53655 215.232297 
L 90.56587 296.443745 
L 90.924282 296.443745 
L 91.806917 215.232297 
L 91.865446 296.443745 
L 92.209773 296.443745 
L 109.308672 215.232297 
L 109.322393 296.443745 
L 109.581221 296.443745 
L 109.857737 215.232297 
L 110.145494 296.443745 
L 110.273743 215.232297 
L 110.682065 215.232297 
L 110.886934 296.443745 
L 111.179985 296.443745 
L 115.347951 215.232297 
L 116.009498 296.443745 
L 117.653824 215.232297 
L 117.969494 296.443745 
L 118.642855 215.232297 
L 118.730302 296.443745 
L 119.741067 215.232297 
L 119.826095 296.443745 
L 123.77441 296.443745 
L 129.801631 215.232297 
L 129.907726 296.443745 
L 131.652422 215.232297 
L 132.103841 215.232297 
L 132.125311 296.443745 
L 133.968162 296.443745 
L 136.567413 215.232297 
L 136.580738 296.443745 
L 139.465803 215.232297 
L 139.508594 296.443745 
L 146.561685 215.232297 
L 147.507321 215.232297 
L 147.575729 296.443745 
L 148.193011 296.443745 
L 148.438384 215.232297 
L 148.7537 215.232297 
L 148.866603 296.443745 
L 149.938697 296.443745 
L 150.450837 215.232297 
L 150.551729 296.443745 
L 151.674379 296.443745 
L 151.685715 215.232297 
L 151.847476 296.443745 
L 156.161945 215.232297 
L 156.251002 296.443745 
L 156.500666 215.232297 
L 180.841767 215.232297 
L 180.9172 296.443745 
L 183.335275 296.443745 
L 183.441394 215.232297 
L 210.422653 215.232297 
L 210.538786 296.443745 
L 213.099624 296.443745 
L 214.55797 215.232297 
L 214.795352 296.443745 
L 214.865072 215.232297 
L 214.869076 296.443745 
L 218.003646 296.443745 
L 219.065095 215.232297 
L 219.905271 215.232297 
L 219.909635 296.443745 
L 219.973379 215.232297 
L 220.029695 215.232297 
L 220.333782 296.443745 
L 220.499319 296.443745 
L 222.618466 215.232297 
L 222.916841 215.232297 
L 222.929804 296.443745 
L 223.837103 296.443745 
L 235.206643 215.232297 
L 235.341616 296.443745 
L 235.596778 215.232297 
L 235.910777 215.232297 
L 236.029807 296.443745 
L 237.035309 296.443745 
L 238.289345 215.232297 
L 238.500862 215.232297 
L 238.595693 296.443745 
L 238.752546 215.232297 
L 238.829189 296.443745 
L 239.454833 215.232297 
L 239.775 296.443745 
L 245.88016 215.232297 
L 246.121417 296.443745 
L 250.578749 215.232297 
L 250.599258 296.443745 
L 252.479652 215.232297 
L 257.917326 215.232297 
L 257.993531 296.443745 
L 260.679442 296.443745 
L 269.114252 215.232297 
L 269.126127 296.443745 
L 270.601641 296.443745 
L 270.738483 215.232297 
L 270.897114 215.232297 
L 271.228941 296.443745 
L 271.60396 296.443745 
L 271.937727 215.232297 
L 272.002736 296.443745 
L 278.113598 215.232297 
L 278.296186 215.232297 
L 278.464102 296.443745 
L 278.934388 296.443745 
L 288.173912 215.232297 
L 288.192043 296.443745 
L 288.983437 296.443745 
L 289.173491 215.232297 
L 289.372896 215.232297 
L 289.44698 296.443745 
L 290.165814 296.443745 
L 292.560586 215.232297 
L 292.752873 296.443745 
L 293.485605 215.232297 
L 294.120192 215.232297 
L 294.25374 296.443745 
L 295.41578 296.443745 
L 309.265187 215.232297 
L 309.275052 296.443745 
L 312.422447 215.232297 
L 312.422447 215.232297 
" clip-path="url(#pfd8b686125)" style="fill: none; stroke: #000000; stroke-width: 1.5; stroke-linecap: square"/>
   </g>
   <g id="patch_13">
    <path d="M 44.103906 300.504317 
L 44.103906 211.171724 
" style="fill: none; stroke: #000000; stroke-width: 0.8; stroke-linejoin: miter; stroke-linecap: square"/>
   </g>
   <g id="patch_14">
    <path d="M 325.19952 300.504317 
L 325.19952 211.171724 
" style="fill: none; stroke: #000000; stroke-width: 0.8; stroke-linejoin: miter; stroke-linecap: square"/>
   </g>
   <g id="patch_15">
    <path d="M 44.103906 300.504317 
L 325.19952 300.504317 
" style="fill: none; stroke: #000000; stroke-width: 0.8; stroke-linejoin: miter; stroke-linecap: square"/>
   </g>
   <g id="patch_16">
    <path d="M 44.103906 211.171724 
L 325.19952 211.171724 
" style="fill: none; stroke: #000000; stroke-width: 0.8; stroke-linejoin: miter; stroke-linecap: square"/>
   </g>
  </g>
 </g>
 <defs>
  <clipPath id="p76da83228b">
   <rect x="44.103906" y="13.505579" width="281.095614" height="89.332593"/>
  </clipPath>
  <clipPath id="pc82e25127e">
   <rect x="44.103906" y="112.338651" width="281.095614" height="89.332593"/>
  </clipPath>
  <clipPath id="pfd8b686125">
   <rect x="44.103906" y="211.171724" width="281.095614" height="89.332593"/>
  </clipPath>
 </defs>
</svg>
