<?xml version="1.0" encoding="UTF-8" standalone="no"?>
<svg
   viewBox="0 0 40 40"
   version="1.1"
   id="svg6"
   width="40"
   height="40"
   xmlns="http://www.w3.org/2000/svg"
   xmlns:svg="http://www.w3.org/2000/svg">
  <defs
     id="defs10" />
  <circle
     style="fill:#89c7e8;fill-opacity:1;stroke-width:1.12376"
     id="path11314"
     cx="20"
     cy="20"
     r="20" />
  <path
     d="m 32.061879,30.364439 q -1.303986,0.517091 -2.51804,0.809372 -1.214063,0.292272 -2.383151,0.292272 -0.74192,0 -1.326473,-0.06743 -0.584544,-0.04496 -1.214054,-0.404682 -0.584544,-0.31476 -1.191576,-1.011713 -0.607023,-0.696963 -1.25902,-1.866051 -1.079157,-1.933495 -2.270733,-4.18175 -1.169097,-2.270742 -2.068392,-3.889477 l -2.203289,2.450595 v 8.543362 H 11.445397 V 13.570005 q 0,-0.764407 -0.337239,-1.393917 Q 10.793403,11.524091 10.208857,11.1194 9.7816887,10.849615 9.1971427,10.737206 8.6125966,10.602309 7.9381211,10.557343 V 9.0959738 L 15.312393,8.6013609 15.627151,8.9161203 V 20.269794 q 1.798598,-2.248255 3.799547,-4.721329 2.023426,-2.473083 3.732102,-4.361612 1.371429,-1.5288133 2.270733,-2.0908793 0.921782,-0.5620568 2.045914,-0.5620568 1.236532,0 1.978461,0.7644067 0.741919,0.7643974 0.741919,2.0459044 0,0.944269 -0.719441,1.686189 -0.696954,0.719441 -1.843564,0.719441 -0.62951,0 -1.573779,-0.292272 -0.921782,-0.314751 -1.66371,-0.651988 -0.944261,0.651988 -1.77612,1.686188 -0.831851,1.034192 -2.00094,2.315699 1.641224,2.990174 2.832799,5.170985 1.214054,2.180802 2.293221,3.889478 1.056679,1.641223 2.09087,2.450595 1.034201,0.786885 2.180811,0.786885 0.449647,0 1.124123,-0.06743 0.674475,-0.06743 0.921782,-0.112409 z"
     id="path4"
     style="stroke-width:0.906383" />
</svg>
