<?xml version="1.0" encoding="utf-8" standalone="no"?>
<!DOCTYPE svg PUBLIC "-//W3C//DTD SVG 1.1//EN"
  "http://www.w3.org/Graphics/SVG/1.1/DTD/svg11.dtd">
<svg xmlns:xlink="http://www.w3.org/1999/xlink" width="421.386793pt" height="310.86825pt" viewBox="0 0 421.386793 310.86825" xmlns="http://www.w3.org/2000/svg" version="1.1">
 <metadata>
  <rdf:RDF xmlns:dc="http://purl.org/dc/elements/1.1/" xmlns:cc="http://creativecommons.org/ns#" xmlns:rdf="http://www.w3.org/1999/02/22-rdf-syntax-ns#">
   <cc:Work>
    <dc:type rdf:resource="http://purl.org/dc/dcmitype/StillImage"/>
    <dc:date>2026-05-15T18:58:52.862658</dc:date>
    <dc:format>image/svg+xml</dc:format>
    <dc:creator>
     <cc:Agent>
      <dc:title>Matplotlib v3.10.9, https://matplotlib.org/</dc:title>
     </cc:Agent>
    </dc:creator>
   </cc:Work>
  </rdf:RDF>
 </metadata>
 <defs>
  <style type="text/css">*{stroke-linejoin: round; stroke-linecap: butt}</style>
 </defs>
 <g id="figure_1">
  <g id="patch_1">
   <path d="M 0 310.86825 
L 421.386793 310.86825 
L 421.386793 0 
L 0 0 
z
" style="fill: #ffffff"/>
  </g>
  <g id="axes_1">
   <g id="patch_2">
    <path d="M 46.965625 273.312 
L 404.085625 273.312 
L 404.085625 7.2 
L 46.965625 7.2 
z
" style="fill: #ffffff"/>
   </g>
   <g id="matplotlib.axis_1">
    <g id="xtick_1">
     <g id="line2d_1">
      <defs>
       <path id="mde9c51584e" d="M 0 0 
L 0 3.5 
" style="stroke: #000000; stroke-width: 0.8"/>
      </defs>
      <g>
       <use xlink:href="#mde9c51584e" x="46.965625" y="273.312" style="stroke: #000000; stroke-width: 0.8"/>
      </g>
     </g>
     <g id="text_1">
      <!-- 0.00 -->
      <g transform="translate(35.832813 287.910437) scale(0.1 -0.1)">
       <defs>
        <path id="DejaVuSans-30" d="M 2034 4250 
Q 1547 4250 1301 3770 
Q 1056 3291 1056 2328 
Q 1056 1369 1301 889 
Q 1547 409 2034 409 
Q 2525 409 2770 889 
Q 3016 1369 3016 2328 
Q 3016 3291 2770 3770 
Q 2525 4250 2034 4250 
z
M 2034 4750 
Q 2819 4750 3233 4129 
Q 3647 3509 3647 2328 
Q 3647 1150 3233 529 
Q 2819 -91 2034 -91 
Q 1250 -91 836 529 
Q 422 1150 422 2328 
Q 422 3509 836 4129 
Q 1250 4750 2034 4750 
z
" transform="scale(0.015625)"/>
        <path id="DejaVuSans-2e" d="M 684 794 
L 1344 794 
L 1344 0 
L 684 0 
L 684 794 
z
" transform="scale(0.015625)"/>
       </defs>
       <use xlink:href="#DejaVuSans-30"/>
       <use xlink:href="#DejaVuSans-2e" transform="translate(63.623047 0)"/>
       <use xlink:href="#DejaVuSans-30" transform="translate(95.410156 0)"/>
       <use xlink:href="#DejaVuSans-30" transform="translate(159.033203 0)"/>
      </g>
     </g>
    </g>
    <g id="xtick_2">
     <g id="line2d_2">
      <g>
       <use xlink:href="#mde9c51584e" x="91.476669" y="273.312" style="stroke: #000000; stroke-width: 0.8"/>
      </g>
     </g>
     <g id="text_2">
      <!-- 0.25 -->
      <g transform="translate(80.343857 287.910437) scale(0.1 -0.1)">
       <defs>
        <path id="DejaVuSans-32" d="M 1228 531 
L 3431 531 
L 3431 0 
L 469 0 
L 469 531 
Q 828 903 1448 1529 
Q 2069 2156 2228 2338 
Q 2531 2678 2651 2914 
Q 2772 3150 2772 3378 
Q 2772 3750 2511 3984 
Q 2250 4219 1831 4219 
Q 1534 4219 1204 4116 
Q 875 4013 500 3803 
L 500 4441 
Q 881 4594 1212 4672 
Q 1544 4750 1819 4750 
Q 2544 4750 2975 4387 
Q 3406 4025 3406 3419 
Q 3406 3131 3298 2873 
Q 3191 2616 2906 2266 
Q 2828 2175 2409 1742 
Q 1991 1309 1228 531 
z
" transform="scale(0.015625)"/>
        <path id="DejaVuSans-35" d="M 691 4666 
L 3169 4666 
L 3169 4134 
L 1269 4134 
L 1269 2991 
Q 1406 3038 1543 3061 
Q 1681 3084 1819 3084 
Q 2600 3084 3056 2656 
Q 3513 2228 3513 1497 
Q 3513 744 3044 326 
Q 2575 -91 1722 -91 
Q 1428 -91 1123 -41 
Q 819 9 494 109 
L 494 744 
Q 775 591 1075 516 
Q 1375 441 1709 441 
Q 2250 441 2565 725 
Q 2881 1009 2881 1497 
Q 2881 1984 2565 2268 
Q 2250 2553 1709 2553 
Q 1456 2553 1204 2497 
Q 953 2441 691 2322 
L 691 4666 
z
" transform="scale(0.015625)"/>
       </defs>
       <use xlink:href="#DejaVuSans-30"/>
       <use xlink:href="#DejaVuSans-2e" transform="translate(63.623047 0)"/>
       <use xlink:href="#DejaVuSans-32" transform="translate(95.410156 0)"/>
       <use xlink:href="#DejaVuSans-35" transform="translate(159.033203 0)"/>
      </g>
     </g>
    </g>
    <g id="xtick_3">
     <g id="line2d_3">
      <g>
       <use xlink:href="#mde9c51584e" x="135.987714" y="273.312" style="stroke: #000000; stroke-width: 0.8"/>
      </g>
     </g>
     <g id="text_3">
      <!-- 0.50 -->
      <g transform="translate(124.854901 287.910437) scale(0.1 -0.1)">
       <use xlink:href="#DejaVuSans-30"/>
       <use xlink:href="#DejaVuSans-2e" transform="translate(63.623047 0)"/>
       <use xlink:href="#DejaVuSans-35" transform="translate(95.410156 0)"/>
       <use xlink:href="#DejaVuSans-30" transform="translate(159.033203 0)"/>
      </g>
     </g>
    </g>
    <g id="xtick_4">
     <g id="line2d_4">
      <g>
       <use xlink:href="#mde9c51584e" x="180.498758" y="273.312" style="stroke: #000000; stroke-width: 0.8"/>
      </g>
     </g>
     <g id="text_4">
      <!-- 0.75 -->
      <g transform="translate(169.365946 287.910437) scale(0.1 -0.1)">
       <defs>
        <path id="DejaVuSans-37" d="M 525 4666 
L 3525 4666 
L 3525 4397 
L 1831 0 
L 1172 0 
L 2766 4134 
L 525 4134 
L 525 4666 
z
" transform="scale(0.015625)"/>
       </defs>
       <use xlink:href="#DejaVuSans-30"/>
       <use xlink:href="#DejaVuSans-2e" transform="translate(63.623047 0)"/>
       <use xlink:href="#DejaVuSans-37" transform="translate(95.410156 0)"/>
       <use xlink:href="#DejaVuSans-35" transform="translate(159.033203 0)"/>
      </g>
     </g>
    </g>
    <g id="xtick_5">
     <g id="line2d_5">
      <g>
       <use xlink:href="#mde9c51584e" x="225.009803" y="273.312" style="stroke: #000000; stroke-width: 0.8"/>
      </g>
     </g>
     <g id="text_5">
      <!-- 1.00 -->
      <g transform="translate(213.87699 287.910437) scale(0.1 -0.1)">
       <defs>
        <path id="DejaVuSans-31" d="M 794 531 
L 1825 531 
L 1825 4091 
L 703 3866 
L 703 4441 
L 1819 4666 
L 2450 4666 
L 2450 531 
L 3481 531 
L 3481 0 
L 794 0 
L 794 531 
z
" transform="scale(0.015625)"/>
       </defs>
       <use xlink:href="#DejaVuSans-31"/>
       <use xlink:href="#DejaVuSans-2e" transform="translate(63.623047 0)"/>
       <use xlink:href="#DejaVuSans-30" transform="translate(95.410156 0)"/>
       <use xlink:href="#DejaVuSans-30" transform="translate(159.033203 0)"/>
      </g>
     </g>
    </g>
    <g id="xtick_6">
     <g id="line2d_6">
      <g>
       <use xlink:href="#mde9c51584e" x="269.520847" y="273.312" style="stroke: #000000; stroke-width: 0.8"/>
      </g>
     </g>
     <g id="text_6">
      <!-- 1.25 -->
      <g transform="translate(258.388035 287.910437) scale(0.1 -0.1)">
       <use xlink:href="#DejaVuSans-31"/>
       <use xlink:href="#DejaVuSans-2e" transform="translate(63.623047 0)"/>
       <use xlink:href="#DejaVuSans-32" transform="translate(95.410156 0)"/>
       <use xlink:href="#DejaVuSans-35" transform="translate(159.033203 0)"/>
      </g>
     </g>
    </g>
    <g id="xtick_7">
     <g id="line2d_7">
      <g>
       <use xlink:href="#mde9c51584e" x="314.031892" y="273.312" style="stroke: #000000; stroke-width: 0.8"/>
      </g>
     </g>
     <g id="text_7">
      <!-- 1.50 -->
      <g transform="translate(302.899079 287.910437) scale(0.1 -0.1)">
       <use xlink:href="#DejaVuSans-31"/>
       <use xlink:href="#DejaVuSans-2e" transform="translate(63.623047 0)"/>
       <use xlink:href="#DejaVuSans-35" transform="translate(95.410156 0)"/>
       <use xlink:href="#DejaVuSans-30" transform="translate(159.033203 0)"/>
      </g>
     </g>
    </g>
    <g id="xtick_8">
     <g id="line2d_8">
      <g>
       <use xlink:href="#mde9c51584e" x="358.542936" y="273.312" style="stroke: #000000; stroke-width: 0.8"/>
      </g>
     </g>
     <g id="text_8">
      <!-- 1.75 -->
      <g transform="translate(347.410124 287.910437) scale(0.1 -0.1)">
       <use xlink:href="#DejaVuSans-31"/>
       <use xlink:href="#DejaVuSans-2e" transform="translate(63.623047 0)"/>
       <use xlink:href="#DejaVuSans-37" transform="translate(95.410156 0)"/>
       <use xlink:href="#DejaVuSans-35" transform="translate(159.033203 0)"/>
      </g>
     </g>
    </g>
    <g id="xtick_9">
     <g id="line2d_9">
      <g>
       <use xlink:href="#mde9c51584e" x="403.053981" y="273.312" style="stroke: #000000; stroke-width: 0.8"/>
      </g>
     </g>
     <g id="text_9">
      <!-- 2.00 -->
      <g transform="translate(391.921168 287.910437) scale(0.1 -0.1)">
       <use xlink:href="#DejaVuSans-32"/>
       <use xlink:href="#DejaVuSans-2e" transform="translate(63.623047 0)"/>
       <use xlink:href="#DejaVuSans-30" transform="translate(95.410156 0)"/>
       <use xlink:href="#DejaVuSans-30" transform="translate(159.033203 0)"/>
      </g>
     </g>
    </g>
    <g id="text_10">
     <!-- Time -->
     <g transform="translate(213.292031 301.588562) scale(0.1 -0.1)">
      <defs>
       <path id="DejaVuSans-54" d="M -19 4666 
L 3928 4666 
L 3928 4134 
L 2272 4134 
L 2272 0 
L 1638 0 
L 1638 4134 
L -19 4134 
L -19 4666 
z
" transform="scale(0.015625)"/>
       <path id="DejaVuSans-69" d="M 603 3500 
L 1178 3500 
L 1178 0 
L 603 0 
L 603 3500 
z
M 603 4863 
L 1178 4863 
L 1178 4134 
L 603 4134 
L 603 4863 
z
" transform="scale(0.015625)"/>
       <path id="DejaVuSans-6d" d="M 3328 2828 
Q 3544 3216 3844 3400 
Q 4144 3584 4550 3584 
Q 5097 3584 5394 3201 
Q 5691 2819 5691 2113 
L 5691 0 
L 5113 0 
L 5113 2094 
Q 5113 2597 4934 2840 
Q 4756 3084 4391 3084 
Q 3944 3084 3684 2787 
Q 3425 2491 3425 1978 
L 3425 0 
L 2847 0 
L 2847 2094 
Q 2847 2600 2669 2842 
Q 2491 3084 2119 3084 
Q 1678 3084 1418 2786 
Q 1159 2488 1159 1978 
L 1159 0 
L 581 0 
L 581 3500 
L 1159 3500 
L 1159 2956 
Q 1356 3278 1631 3431 
Q 1906 3584 2284 3584 
Q 2666 3584 2933 3390 
Q 3200 3197 3328 2828 
z
" transform="scale(0.015625)"/>
       <path id="DejaVuSans-65" d="M 3597 1894 
L 3597 1613 
L 953 1613 
Q 991 1019 1311 708 
Q 1631 397 2203 397 
Q 2534 397 2845 478 
Q 3156 559 3463 722 
L 3463 178 
Q 3153 47 2828 -22 
Q 2503 -91 2169 -91 
Q 1331 -91 842 396 
Q 353 884 353 1716 
Q 353 2575 817 3079 
Q 1281 3584 2069 3584 
Q 2775 3584 3186 3129 
Q 3597 2675 3597 1894 
z
M 3022 2063 
Q 3016 2534 2758 2815 
Q 2500 3097 2075 3097 
Q 1594 3097 1305 2825 
Q 1016 2553 972 2059 
L 3022 2063 
z
" transform="scale(0.015625)"/>
      </defs>
      <use xlink:href="#DejaVuSans-54"/>
      <use xlink:href="#DejaVuSans-69" transform="translate(57.958984 0)"/>
      <use xlink:href="#DejaVuSans-6d" transform="translate(85.742188 0)"/>
      <use xlink:href="#DejaVuSans-65" transform="translate(183.154297 0)"/>
     </g>
    </g>
   </g>
   <g id="matplotlib.axis_2">
    <g id="ytick_1">
     <g id="line2d_10">
      <defs>
       <path id="m45a6fe700d" d="M 0 0 
L -3.5 0 
" style="stroke: #000000; stroke-width: 0.8"/>
      </defs>
      <g>
       <use xlink:href="#m45a6fe700d" x="46.965625" y="273.312" style="stroke: #000000; stroke-width: 0.8"/>
      </g>
     </g>
     <g id="text_11">
      <!-- 0 -->
      <g transform="translate(33.603125 277.111219) scale(0.1 -0.1)">
       <use xlink:href="#DejaVuSans-30"/>
      </g>
     </g>
    </g>
    <g id="ytick_2">
     <g id="line2d_11">
      <g>
       <use xlink:href="#m45a6fe700d" x="46.965625" y="236.352" style="stroke: #000000; stroke-width: 0.8"/>
      </g>
     </g>
     <g id="text_12">
      <!-- 20 -->
      <g transform="translate(27.240625 240.151219) scale(0.1 -0.1)">
       <use xlink:href="#DejaVuSans-32"/>
       <use xlink:href="#DejaVuSans-30" transform="translate(63.623047 0)"/>
      </g>
     </g>
    </g>
    <g id="ytick_3">
     <g id="line2d_12">
      <g>
       <use xlink:href="#m45a6fe700d" x="46.965625" y="199.392" style="stroke: #000000; stroke-width: 0.8"/>
      </g>
     </g>
     <g id="text_13">
      <!-- 40 -->
      <g transform="translate(27.240625 203.191219) scale(0.1 -0.1)">
       <defs>
        <path id="DejaVuSans-34" d="M 2419 4116 
L 825 1625 
L 2419 1625 
L 2419 4116 
z
M 2253 4666 
L 3047 4666 
L 3047 1625 
L 3713 1625 
L 3713 1100 
L 3047 1100 
L 3047 0 
L 2419 0 
L 2419 1100 
L 313 1100 
L 313 1709 
L 2253 4666 
z
" transform="scale(0.015625)"/>
       </defs>
       <use xlink:href="#DejaVuSans-34"/>
       <use xlink:href="#DejaVuSans-30" transform="translate(63.623047 0)"/>
      </g>
     </g>
    </g>
    <g id="ytick_4">
     <g id="line2d_13">
      <g>
       <use xlink:href="#m45a6fe700d" x="46.965625" y="162.432" style="stroke: #000000; stroke-width: 0.8"/>
      </g>
     </g>
     <g id="text_14">
      <!-- 60 -->
      <g transform="translate(27.240625 166.231219) scale(0.1 -0.1)">
       <defs>
        <path id="DejaVuSans-36" d="M 2113 2584 
Q 1688 2584 1439 2293 
Q 1191 2003 1191 1497 
Q 1191 994 1439 701 
Q 1688 409 2113 409 
Q 2538 409 2786 701 
Q 3034 994 3034 1497 
Q 3034 2003 2786 2293 
Q 2538 2584 2113 2584 
z
M 3366 4563 
L 3366 3988 
Q 3128 4100 2886 4159 
Q 2644 4219 2406 4219 
Q 1781 4219 1451 3797 
Q 1122 3375 1075 2522 
Q 1259 2794 1537 2939 
Q 1816 3084 2150 3084 
Q 2853 3084 3261 2657 
Q 3669 2231 3669 1497 
Q 3669 778 3244 343 
Q 2819 -91 2113 -91 
Q 1303 -91 875 529 
Q 447 1150 447 2328 
Q 447 3434 972 4092 
Q 1497 4750 2381 4750 
Q 2619 4750 2861 4703 
Q 3103 4656 3366 4563 
z
" transform="scale(0.015625)"/>
       </defs>
       <use xlink:href="#DejaVuSans-36"/>
       <use xlink:href="#DejaVuSans-30" transform="translate(63.623047 0)"/>
      </g>
     </g>
    </g>
    <g id="ytick_5">
     <g id="line2d_14">
      <g>
       <use xlink:href="#m45a6fe700d" x="46.965625" y="125.472" style="stroke: #000000; stroke-width: 0.8"/>
      </g>
     </g>
     <g id="text_15">
      <!-- 80 -->
      <g transform="translate(27.240625 129.271219) scale(0.1 -0.1)">
       <defs>
        <path id="DejaVuSans-38" d="M 2034 2216 
Q 1584 2216 1326 1975 
Q 1069 1734 1069 1313 
Q 1069 891 1326 650 
Q 1584 409 2034 409 
Q 2484 409 2743 651 
Q 3003 894 3003 1313 
Q 3003 1734 2745 1975 
Q 2488 2216 2034 2216 
z
M 1403 2484 
Q 997 2584 770 2862 
Q 544 3141 544 3541 
Q 544 4100 942 4425 
Q 1341 4750 2034 4750 
Q 2731 4750 3128 4425 
Q 3525 4100 3525 3541 
Q 3525 3141 3298 2862 
Q 3072 2584 2669 2484 
Q 3125 2378 3379 2068 
Q 3634 1759 3634 1313 
Q 3634 634 3220 271 
Q 2806 -91 2034 -91 
Q 1263 -91 848 271 
Q 434 634 434 1313 
Q 434 1759 690 2068 
Q 947 2378 1403 2484 
z
M 1172 3481 
Q 1172 3119 1398 2916 
Q 1625 2713 2034 2713 
Q 2441 2713 2670 2916 
Q 2900 3119 2900 3481 
Q 2900 3844 2670 4047 
Q 2441 4250 2034 4250 
Q 1625 4250 1398 4047 
Q 1172 3844 1172 3481 
z
" transform="scale(0.015625)"/>
       </defs>
       <use xlink:href="#DejaVuSans-38"/>
       <use xlink:href="#DejaVuSans-30" transform="translate(63.623047 0)"/>
      </g>
     </g>
    </g>
    <g id="ytick_6">
     <g id="line2d_15">
      <g>
       <use xlink:href="#m45a6fe700d" x="46.965625" y="88.512" style="stroke: #000000; stroke-width: 0.8"/>
      </g>
     </g>
     <g id="text_16">
      <!-- 100 -->
      <g transform="translate(20.878125 92.311219) scale(0.1 -0.1)">
       <use xlink:href="#DejaVuSans-31"/>
       <use xlink:href="#DejaVuSans-30" transform="translate(63.623047 0)"/>
       <use xlink:href="#DejaVuSans-30" transform="translate(127.246094 0)"/>
      </g>
     </g>
    </g>
    <g id="ytick_7">
     <g id="line2d_16">
      <g>
       <use xlink:href="#m45a6fe700d" x="46.965625" y="51.552" style="stroke: #000000; stroke-width: 0.8"/>
      </g>
     </g>
     <g id="text_17">
      <!-- 120 -->
      <g transform="translate(20.878125 55.351219) scale(0.1 -0.1)">
       <use xlink:href="#DejaVuSans-31"/>
       <use xlink:href="#DejaVuSans-32" transform="translate(63.623047 0)"/>
       <use xlink:href="#DejaVuSans-30" transform="translate(127.246094 0)"/>
      </g>
     </g>
    </g>
    <g id="ytick_8">
     <g id="line2d_17">
      <g>
       <use xlink:href="#m45a6fe700d" x="46.965625" y="14.592" style="stroke: #000000; stroke-width: 0.8"/>
      </g>
     </g>
     <g id="text_18">
      <!-- 140 -->
      <g transform="translate(20.878125 18.391219) scale(0.1 -0.1)">
       <use xlink:href="#DejaVuSans-31"/>
       <use xlink:href="#DejaVuSans-34" transform="translate(63.623047 0)"/>
       <use xlink:href="#DejaVuSans-30" transform="translate(127.246094 0)"/>
      </g>
     </g>
    </g>
    <g id="text_19">
     <!-- Observable -->
     <g transform="translate(14.798438 168.766156) rotate(-90) scale(0.1 -0.1)">
      <defs>
       <path id="DejaVuSans-4f" d="M 2522 4238 
Q 1834 4238 1429 3725 
Q 1025 3213 1025 2328 
Q 1025 1447 1429 934 
Q 1834 422 2522 422 
Q 3209 422 3611 934 
Q 4013 1447 4013 2328 
Q 4013 3213 3611 3725 
Q 3209 4238 2522 4238 
z
M 2522 4750 
Q 3503 4750 4090 4092 
Q 4678 3434 4678 2328 
Q 4678 1225 4090 567 
Q 3503 -91 2522 -91 
Q 1538 -91 948 565 
Q 359 1222 359 2328 
Q 359 3434 948 4092 
Q 1538 4750 2522 4750 
z
" transform="scale(0.015625)"/>
       <path id="DejaVuSans-62" d="M 3116 1747 
Q 3116 2381 2855 2742 
Q 2594 3103 2138 3103 
Q 1681 3103 1420 2742 
Q 1159 2381 1159 1747 
Q 1159 1113 1420 752 
Q 1681 391 2138 391 
Q 2594 391 2855 752 
Q 3116 1113 3116 1747 
z
M 1159 2969 
Q 1341 3281 1617 3432 
Q 1894 3584 2278 3584 
Q 2916 3584 3314 3078 
Q 3713 2572 3713 1747 
Q 3713 922 3314 415 
Q 2916 -91 2278 -91 
Q 1894 -91 1617 61 
Q 1341 213 1159 525 
L 1159 0 
L 581 0 
L 581 4863 
L 1159 4863 
L 1159 2969 
z
" transform="scale(0.015625)"/>
       <path id="DejaVuSans-73" d="M 2834 3397 
L 2834 2853 
Q 2591 2978 2328 3040 
Q 2066 3103 1784 3103 
Q 1356 3103 1142 2972 
Q 928 2841 928 2578 
Q 928 2378 1081 2264 
Q 1234 2150 1697 2047 
L 1894 2003 
Q 2506 1872 2764 1633 
Q 3022 1394 3022 966 
Q 3022 478 2636 193 
Q 2250 -91 1575 -91 
Q 1294 -91 989 -36 
Q 684 19 347 128 
L 347 722 
Q 666 556 975 473 
Q 1284 391 1588 391 
Q 1994 391 2212 530 
Q 2431 669 2431 922 
Q 2431 1156 2273 1281 
Q 2116 1406 1581 1522 
L 1381 1569 
Q 847 1681 609 1914 
Q 372 2147 372 2553 
Q 372 3047 722 3315 
Q 1072 3584 1716 3584 
Q 2034 3584 2315 3537 
Q 2597 3491 2834 3397 
z
" transform="scale(0.015625)"/>
       <path id="DejaVuSans-72" d="M 2631 2963 
Q 2534 3019 2420 3045 
Q 2306 3072 2169 3072 
Q 1681 3072 1420 2755 
Q 1159 2438 1159 1844 
L 1159 0 
L 581 0 
L 581 3500 
L 1159 3500 
L 1159 2956 
Q 1341 3275 1631 3429 
Q 1922 3584 2338 3584 
Q 2397 3584 2469 3576 
Q 2541 3569 2628 3553 
L 2631 2963 
z
" transform="scale(0.015625)"/>
       <path id="DejaVuSans-76" d="M 191 3500 
L 800 3500 
L 1894 563 
L 2988 3500 
L 3597 3500 
L 2284 0 
L 1503 0 
L 191 3500 
z
" transform="scale(0.015625)"/>
       <path id="DejaVuSans-61" d="M 2194 1759 
Q 1497 1759 1228 1600 
Q 959 1441 959 1056 
Q 959 750 1161 570 
Q 1363 391 1709 391 
Q 2188 391 2477 730 
Q 2766 1069 2766 1631 
L 2766 1759 
L 2194 1759 
z
M 3341 1997 
L 3341 0 
L 2766 0 
L 2766 531 
Q 2569 213 2275 61 
Q 1981 -91 1556 -91 
Q 1019 -91 701 211 
Q 384 513 384 1019 
Q 384 1609 779 1909 
Q 1175 2209 1959 2209 
L 2766 2209 
L 2766 2266 
Q 2766 2663 2505 2880 
Q 2244 3097 1772 3097 
Q 1472 3097 1187 3025 
Q 903 2953 641 2809 
L 641 3341 
Q 956 3463 1253 3523 
Q 1550 3584 1831 3584 
Q 2591 3584 2966 3190 
Q 3341 2797 3341 1997 
z
" transform="scale(0.015625)"/>
       <path id="DejaVuSans-6c" d="M 603 4863 
L 1178 4863 
L 1178 0 
L 603 0 
L 603 4863 
z
" transform="scale(0.015625)"/>
      </defs>
      <use xlink:href="#DejaVuSans-4f"/>
      <use xlink:href="#DejaVuSans-62" transform="translate(78.710938 0)"/>
      <use xlink:href="#DejaVuSans-73" transform="translate(142.1875 0)"/>
      <use xlink:href="#DejaVuSans-65" transform="translate(194.287109 0)"/>
      <use xlink:href="#DejaVuSans-72" transform="translate(255.810547 0)"/>
      <use xlink:href="#DejaVuSans-76" transform="translate(296.923828 0)"/>
      <use xlink:href="#DejaVuSans-61" transform="translate(356.103516 0)"/>
      <use xlink:href="#DejaVuSans-62" transform="translate(417.382812 0)"/>
      <use xlink:href="#DejaVuSans-6c" transform="translate(480.859375 0)"/>
      <use xlink:href="#DejaVuSans-65" transform="translate(508.642578 0)"/>
     </g>
    </g>
   </g>
   <g id="line2d_18">
    <path d="M 46.965625 273.312 
L 47.069122 265.92 
L 47.151418 260.376 
L 48.15318 195.696 
L 48.385122 193.848 
L 48.617516 186.456 
L 48.809601 184.608 
L 48.845708 180.912 
L 48.989094 179.064 
L 49.045429 173.52 
L 49.290326 171.672 
L 49.554851 166.128 
L 49.570729 164.28 
L 49.832596 160.584 
L 50.28334 153.192 
L 50.458705 151.344 
L 50.461212 149.496 
L 51.070776 143.952 
L 51.162061 140.256 
L 51.622921 138.408 
L 51.968261 134.712 
L 51.991176 131.016 
L 52.224317 129.168 
L 52.537444 131.016 
L 52.846696 129.168 
L 52.858229 131.016 
L 53.547334 129.168 
L 54.553033 127.32 
L 54.693775 129.168 
L 54.703963 127.32 
L 57.098267 123.624 
L 57.419006 127.32 
L 57.43094 125.472 
L 57.897266 123.624 
L 57.966775 121.776 
L 59.093845 123.624 
L 59.999534 121.776 
L 60.325453 119.928 
L 60.475315 116.232 
L 61.133332 118.08 
L 61.318813 116.232 
L 61.344119 114.384 
L 62.317438 110.688 
L 62.58709 112.536 
L 64.090361 110.688 
L 64.10524 108.84 
L 64.342216 106.992 
L 67.13474 105.144 
L 69.514891 106.992 
L 71.165151 108.84 
L 71.696696 106.992 
L 72.820896 108.84 
L 73.730101 106.992 
L 73.809102 105.144 
L 76.576413 103.296 
L 77.066215 101.448 
L 77.383058 103.296 
L 77.537784 101.448 
L 80.470195 99.6 
L 81.483238 101.448 
L 85.600272 103.296 
L 85.607598 105.144 
L 86.363753 106.992 
L 86.934877 105.144 
L 89.932377 101.448 
L 90.463861 103.296 
L 91.452158 101.448 
L 92.01343 99.6 
L 94.335795 101.448 
L 94.40603 105.144 
L 94.955842 103.296 
L 96.461155 106.992 
L 97.516949 108.84 
L 98.138919 106.992 
L 99.454022 105.144 
L 101.02128 106.992 
L 101.096093 105.144 
L 105.120242 106.992 
L 105.681499 105.144 
L 105.930632 106.992 
L 105.95519 108.84 
L 110.69798 106.992 
L 110.794304 105.144 
L 110.905325 106.992 
L 113.199078 108.84 
L 115.476861 106.992 
L 119.816141 108.84 
L 120.183679 106.992 
L 120.240381 108.84 
L 121.1047 110.688 
L 122.657276 108.84 
L 122.684823 110.688 
L 122.837754 108.84 
L 127.453075 106.992 
L 127.573636 108.84 
L 128.414264 106.992 
L 129.118158 110.688 
L 131.048221 108.84 
L 133.501662 106.992 
L 134.716674 105.144 
L 135.065143 106.992 
L 135.851747 108.84 
L 136.572128 106.992 
L 136.732727 108.84 
L 137.23238 106.992 
L 138.251977 105.144 
L 138.686428 106.992 
L 138.969942 105.144 
L 140.351523 103.296 
L 140.606833 105.144 
L 140.696728 103.296 
L 142.591469 105.144 
L 143.582263 103.296 
L 143.806151 101.448 
L 144.252511 99.6 
L 144.902608 101.448 
L 146.026925 103.296 
L 147.710029 105.144 
L 147.802895 106.992 
L 148.085025 108.84 
L 148.228114 106.992 
L 149.574482 108.84 
L 156.60264 106.992 
L 157.978462 108.84 
L 158.533307 110.688 
L 159.24773 106.992 
L 159.301239 105.144 
L 160.776497 106.992 
L 163.593332 105.144 
L 167.444116 106.992 
L 167.622338 105.144 
L 168.925303 103.296 
L 169.496613 101.448 
L 169.918889 99.6 
L 171.148757 101.448 
L 171.928719 103.296 
L 174.470655 101.448 
L 174.528331 103.296 
L 177.673541 105.144 
L 177.977897 103.296 
L 180.333904 101.448 
L 181.360563 103.296 
L 182.503235 101.448 
L 183.258609 103.296 
L 183.392347 101.448 
L 186.624422 99.6 
L 187.138534 101.448 
L 188.532367 103.296 
L 189.46283 105.144 
L 189.996209 106.992 
L 191.086192 105.144 
L 192.940743 106.992 
L 194.6071 105.144 
L 195.870357 103.296 
L 196.087096 105.144 
L 200.162825 106.992 
L 200.36733 105.144 
L 201.98248 103.296 
L 201.984175 105.144 
L 203.404569 103.296 
L 204.318265 105.144 
L 204.697153 106.992 
L 206.377233 108.84 
L 206.607692 105.144 
L 206.994336 103.296 
L 207.260521 101.448 
L 207.939178 99.6 
L 211.742111 101.448 
L 213.247113 99.6 
L 214.328558 101.448 
L 216.355805 99.6 
L 219.709303 101.448 
L 220.170501 103.296 
L 220.730994 101.448 
L 221.073551 103.296 
L 222.02977 105.144 
L 223.440474 103.296 
L 225.828328 101.448 
L 225.960159 95.904 
L 226.450136 79.272 
L 226.676265 77.424 
L 226.910872 73.728 
L 227.35311 71.88 
L 227.404192 70.032 
L 228.268279 66.336 
L 228.282991 64.488 
L 228.815932 60.792 
L 228.838225 58.944 
L 228.865625 60.792 
L 229.062989 58.944 
L 229.438894 57.096 
L 229.524914 53.4 
L 230.22387 51.552 
L 230.244471 49.704 
L 230.493731 46.008 
L 230.557 44.16 
L 230.925227 40.464 
L 231.246588 42.312 
L 231.426392 38.616 
L 231.54156 36.768 
L 231.651996 38.616 
L 231.92794 34.92 
L 231.967077 31.224 
L 232.244676 33.072 
L 232.320504 31.224 
L 232.613462 33.072 
L 233.590172 27.528 
L 233.836739 31.224 
L 234.347781 33.072 
L 234.385331 34.92 
L 235.181793 33.072 
L 235.545654 34.92 
L 236.029417 33.072 
L 236.048983 31.224 
L 236.30213 29.376 
L 238.874856 27.528 
L 239.140068 25.68 
L 239.244179 23.832 
L 239.880367 25.68 
L 240.034022 23.832 
L 240.039488 25.68 
L 240.134897 23.832 
L 241.975554 21.984 
L 244.135783 20.136 
L 245.352687 21.984 
L 245.614745 20.136 
L 246.048841 18.288 
L 246.911355 16.44 
L 247.416492 18.288 
L 247.530566 16.44 
L 248.175599 14.592 
L 249.022088 12.744 
L 250.114694 9.048 
L 251.915178 7.2 
L 252.22985 9.048 
L 252.842875 10.896 
L 253.200519 12.744 
L 253.214381 14.592 
L 253.728682 12.744 
L 254.392392 10.896 
L 256.418487 9.048 
L 256.517103 10.896 
L 257.904242 12.744 
L 258.465897 10.896 
L 259.535719 12.744 
L 261.472999 10.896 
L 262.397166 9.048 
L 262.533923 10.896 
L 263.343514 12.744 
L 263.442665 10.896 
L 264.095701 12.744 
L 264.515231 14.592 
L 265.97656 16.44 
L 265.998013 14.592 
L 266.813562 12.744 
L 268.315605 16.44 
L 268.445698 14.592 
L 269.076452 18.288 
L 270.213064 20.136 
L 270.609019 21.984 
L 270.65641 20.136 
L 271.193406 18.288 
L 271.403589 20.136 
L 271.912963 12.744 
L 274.400502 16.44 
L 274.924818 14.592 
L 276.693079 16.44 
L 277.626086 18.288 
L 277.844707 20.136 
L 277.940691 21.984 
L 278.321944 23.832 
L 278.435704 21.984 
L 278.871566 20.136 
L 279.438077 18.288 
L 280.272291 16.44 
L 280.663658 14.592 
L 281.105246 18.288 
L 281.504127 20.136 
L 282.280128 21.984 
L 282.988496 20.136 
L 283.477435 21.984 
L 284.377425 20.136 
L 284.666633 16.44 
L 284.696546 18.288 
L 284.793748 16.44 
L 284.937767 18.288 
L 285.373382 20.136 
L 285.641341 18.288 
L 287.160145 16.44 
L 287.329737 18.288 
L 287.740852 16.44 
L 288.837673 14.592 
L 290.102839 16.44 
L 290.173628 14.592 
L 291.314062 16.44 
L 294.050359 18.288 
L 294.095096 20.136 
L 294.16649 18.288 
L 294.503258 21.984 
L 294.918815 20.136 
L 294.97546 21.984 
L 295.685081 20.136 
L 296.025555 18.288 
L 297.61087 21.984 
L 298.429136 20.136 
L 299.718391 18.288 
L 300.684538 16.44 
L 301.30544 18.288 
L 301.329257 16.44 
L 301.47196 14.592 
L 302.126954 16.44 
L 302.492781 18.288 
L 303.705264 16.44 
L 304.421849 20.136 
L 305.553291 21.984 
L 305.930377 20.136 
L 306.222352 21.984 
L 306.802284 20.136 
L 306.843959 21.984 
L 308.457783 23.832 
L 308.792397 21.984 
L 308.897893 20.136 
L 309.141804 18.288 
L 310.131459 20.136 
L 310.650845 21.984 
L 312.058679 23.832 
L 313.849738 25.68 
L 314.183846 27.528 
L 315.515664 25.68 
L 315.821707 23.832 
L 316.937765 20.136 
L 317.011021 21.984 
L 317.031013 20.136 
L 317.360304 23.832 
L 318.182429 21.984 
L 318.517042 23.832 
L 319.034107 21.984 
L 319.820065 23.832 
L 320.16942 20.136 
L 321.069982 18.288 
L 321.940813 20.136 
L 322.26547 21.984 
L 322.372618 23.832 
L 323.222623 21.984 
L 323.863136 20.136 
L 323.977655 18.288 
L 324.232826 21.984 
L 324.285733 20.136 
L 324.338701 21.984 
L 324.536877 20.136 
L 326.41694 21.984 
L 326.702576 23.832 
L 329.492582 21.984 
L 329.797297 23.832 
L 329.894794 27.528 
L 330.216176 25.68 
L 330.831354 23.832 
L 331.757906 25.68 
L 332.021088 21.984 
L 332.385929 20.136 
L 333.86065 21.984 
L 333.974582 23.832 
L 334.485117 25.68 
L 334.727628 23.832 
L 335.309156 21.984 
L 335.441531 23.832 
L 336.004953 21.984 
L 336.163315 20.136 
L 336.454076 21.984 
L 337.532106 20.136 
L 337.638528 18.288 
L 337.974969 20.136 
L 338.724259 18.288 
L 339.287189 16.44 
L 341.019232 14.592 
L 341.14005 16.44 
L 341.325266 14.592 
L 341.578804 16.44 
L 342.09694 14.592 
L 343.479981 16.44 
L 343.812203 14.592 
L 344.266617 16.44 
L 344.992881 18.288 
L 345.008715 16.44 
L 345.018897 18.288 
L 345.14093 16.44 
L 345.43479 18.288 
L 345.828574 21.984 
L 346.038218 23.832 
L 346.895386 25.68 
L 347.32594 27.528 
L 348.96327 25.68 
L 349.101169 21.984 
L 351.076945 18.288 
L 351.347879 20.136 
L 351.508509 23.832 
L 352.665628 25.68 
L 352.687886 23.832 
L 354.18394 21.984 
L 354.34908 20.136 
L 355.408843 21.984 
L 356.143641 23.832 
L 356.902106 21.984 
L 358.145696 23.832 
L 358.578706 21.984 
L 358.617919 20.136 
L 358.924034 18.288 
L 358.99534 21.984 
L 360.898108 20.136 
L 361.072539 18.288 
L 361.391754 20.136 
L 361.456074 21.984 
L 361.472657 20.136 
L 363.256509 18.288 
L 365.028951 20.136 
L 366.257286 18.288 
L 366.29203 16.44 
L 367.076428 14.592 
L 368.709148 12.744 
L 368.828668 14.592 
L 372.617627 16.44 
L 372.637182 14.592 
L 372.867642 16.44 
L 372.958869 18.288 
L 373.051914 16.44 
L 374.365742 18.288 
L 375.435873 16.44 
L 378.95702 14.592 
L 380.652857 16.44 
L 380.914196 14.592 
L 381.251239 16.44 
L 382.378424 14.592 
L 383.352532 16.44 
L 383.417278 18.288 
L 384.028243 20.136 
L 387.04674 18.288 
L 388.279856 20.136 
L 388.350682 21.984 
L 388.648173 20.136 
L 388.74029 18.288 
L 390.278162 16.44 
L 391.714353 18.288 
L 393.000941 20.136 
L 393.295984 21.984 
L 393.423531 23.832 
L 394.119058 25.68 
L 394.164423 23.832 
L 394.814909 21.984 
L 395.018668 18.288 
L 395.17876 20.136 
L 395.651816 18.288 
L 395.853101 16.44 
L 396.734402 14.592 
L 397.081619 12.744 
L 397.110714 14.592 
L 397.487 12.744 
L 397.521409 10.896 
L 397.904247 12.744 
L 399.003269 14.592 
L 401.26434 12.744 
L 401.416079 10.896 
L 402.209662 9.048 
L 404.085625 10.896 
L 404.085625 10.896 
" clip-path="url(#p08a91c45ac)" style="fill: none; stroke: #1f77b4; stroke-width: 1.5; stroke-linecap: square"/>
   </g>
   <g id="line2d_19">
    <path d="M 225.847132 169.824 
L 226.073351 177.216 
L 226.305636 180.912 
L 226.378441 188.304 
L 226.450136 190.152 
L 226.676265 192 
L 226.910872 195.696 
L 227.35311 197.544 
L 227.404192 199.392 
L 228.268279 203.088 
L 228.282991 204.936 
L 228.815932 208.632 
L 228.838225 210.48 
L 228.865625 208.632 
L 229.062989 210.48 
L 229.438894 212.328 
L 229.524914 216.024 
L 230.22387 217.872 
L 230.244471 219.72 
L 230.493731 223.416 
L 230.557 225.264 
L 230.925227 228.96 
L 231.246588 227.112 
L 231.426392 230.808 
L 231.54156 232.656 
L 231.651996 230.808 
L 231.92794 234.504 
L 231.967077 238.2 
L 232.244676 236.352 
L 232.320504 238.2 
L 232.613462 236.352 
L 233.590172 241.896 
L 233.836739 238.2 
L 234.347781 236.352 
L 234.385331 234.504 
L 235.181793 236.352 
L 235.545654 234.504 
L 236.029417 236.352 
L 236.048983 238.2 
L 236.30213 240.048 
L 238.874856 241.896 
L 239.140068 243.744 
L 239.244179 245.592 
L 239.880367 243.744 
L 240.034022 245.592 
L 240.039488 243.744 
L 240.134897 245.592 
L 241.975554 247.44 
L 244.135783 249.288 
L 245.352687 247.44 
L 245.614745 249.288 
L 246.048841 251.136 
L 246.911355 252.984 
L 247.416492 251.136 
L 247.530566 252.984 
L 248.175599 254.832 
L 249.022088 256.68 
L 250.114694 260.376 
L 251.915178 262.224 
L 252.22985 260.376 
L 252.842875 258.528 
L 253.200519 256.68 
L 253.214381 254.832 
L 253.728682 256.68 
L 254.392392 258.528 
L 256.418487 260.376 
L 256.517103 258.528 
L 257.904242 256.68 
L 258.465897 258.528 
L 259.535719 256.68 
L 261.472999 258.528 
L 262.397166 260.376 
L 262.533923 258.528 
L 263.343514 256.68 
L 263.442665 258.528 
L 264.095701 256.68 
L 264.515231 254.832 
L 265.97656 252.984 
L 265.998013 254.832 
L 266.813562 256.68 
L 268.315605 252.984 
L 268.445698 254.832 
L 269.076452 251.136 
L 270.213064 249.288 
L 270.609019 247.44 
L 270.65641 249.288 
L 271.193406 251.136 
L 271.403589 249.288 
L 271.912963 256.68 
L 274.400502 252.984 
L 274.924818 254.832 
L 276.693079 252.984 
L 277.626086 251.136 
L 277.844707 249.288 
L 277.940691 247.44 
L 278.321944 245.592 
L 278.435704 247.44 
L 278.871566 249.288 
L 279.438077 251.136 
L 280.272291 252.984 
L 280.663658 254.832 
L 281.105246 251.136 
L 281.504127 249.288 
L 282.280128 247.44 
L 282.988496 249.288 
L 283.477435 247.44 
L 284.377425 249.288 
L 284.666633 252.984 
L 284.696546 251.136 
L 284.793748 252.984 
L 284.937767 251.136 
L 285.373382 249.288 
L 285.641341 251.136 
L 287.160145 252.984 
L 287.329737 251.136 
L 287.740852 252.984 
L 288.837673 254.832 
L 290.102839 252.984 
L 290.173628 254.832 
L 291.314062 252.984 
L 294.050359 251.136 
L 294.095096 249.288 
L 294.16649 251.136 
L 294.503258 247.44 
L 294.918815 249.288 
L 294.97546 247.44 
L 295.685081 249.288 
L 296.025555 251.136 
L 297.61087 247.44 
L 298.429136 249.288 
L 299.718391 251.136 
L 300.684538 252.984 
L 301.30544 251.136 
L 301.329257 252.984 
L 301.47196 254.832 
L 302.126954 252.984 
L 302.492781 251.136 
L 303.705264 252.984 
L 304.421849 249.288 
L 305.553291 247.44 
L 305.930377 249.288 
L 306.222352 247.44 
L 306.802284 249.288 
L 306.843959 247.44 
L 308.457783 245.592 
L 308.792397 247.44 
L 308.897893 249.288 
L 309.141804 251.136 
L 310.131459 249.288 
L 310.650845 247.44 
L 312.058679 245.592 
L 313.849738 243.744 
L 314.183846 241.896 
L 315.515664 243.744 
L 315.821707 245.592 
L 316.937765 249.288 
L 317.011021 247.44 
L 317.031013 249.288 
L 317.360304 245.592 
L 318.182429 247.44 
L 318.517042 245.592 
L 319.034107 247.44 
L 319.820065 245.592 
L 320.16942 249.288 
L 321.069982 251.136 
L 321.940813 249.288 
L 322.26547 247.44 
L 322.372618 245.592 
L 323.222623 247.44 
L 323.863136 249.288 
L 323.977655 251.136 
L 324.232826 247.44 
L 324.285733 249.288 
L 324.338701 247.44 
L 324.536877 249.288 
L 326.41694 247.44 
L 326.702576 245.592 
L 329.492582 247.44 
L 329.797297 245.592 
L 329.894794 241.896 
L 330.216176 243.744 
L 330.831354 245.592 
L 331.757906 243.744 
L 332.021088 247.44 
L 332.385929 249.288 
L 333.86065 247.44 
L 333.974582 245.592 
L 334.485117 243.744 
L 334.727628 245.592 
L 335.309156 247.44 
L 335.441531 245.592 
L 336.004953 247.44 
L 336.163315 249.288 
L 336.454076 247.44 
L 337.532106 249.288 
L 337.638528 251.136 
L 337.974969 249.288 
L 338.724259 251.136 
L 339.287189 252.984 
L 341.019232 254.832 
L 341.14005 252.984 
L 341.325266 254.832 
L 341.578804 252.984 
L 342.09694 254.832 
L 343.479981 252.984 
L 343.812203 254.832 
L 344.266617 252.984 
L 344.992881 251.136 
L 345.008715 252.984 
L 345.018897 251.136 
L 345.14093 252.984 
L 345.43479 251.136 
L 345.828574 247.44 
L 346.038218 245.592 
L 346.895386 243.744 
L 347.32594 241.896 
L 348.96327 243.744 
L 349.101169 247.44 
L 351.076945 251.136 
L 351.347879 249.288 
L 351.508509 245.592 
L 352.665628 243.744 
L 352.687886 245.592 
L 354.18394 247.44 
L 354.34908 249.288 
L 355.408843 247.44 
L 356.143641 245.592 
L 356.902106 247.44 
L 358.145696 245.592 
L 358.578706 247.44 
L 358.617919 249.288 
L 358.924034 251.136 
L 358.99534 247.44 
L 360.898108 249.288 
L 361.072539 251.136 
L 361.391754 249.288 
L 361.456074 247.44 
L 361.472657 249.288 
L 363.256509 251.136 
L 365.028951 249.288 
L 366.257286 251.136 
L 366.29203 252.984 
L 367.076428 254.832 
L 368.709148 256.68 
L 368.828668 254.832 
L 372.617627 252.984 
L 372.637182 254.832 
L 372.867642 252.984 
L 372.958869 251.136 
L 373.051914 252.984 
L 374.365742 251.136 
L 375.435873 252.984 
L 378.95702 254.832 
L 380.652857 252.984 
L 380.914196 254.832 
L 381.251239 252.984 
L 382.378424 254.832 
L 383.352532 252.984 
L 383.417278 251.136 
L 384.028243 249.288 
L 387.04674 251.136 
L 388.279856 249.288 
L 388.350682 247.44 
L 388.648173 249.288 
L 388.74029 251.136 
L 390.278162 252.984 
L 391.714353 251.136 
L 393.000941 249.288 
L 393.295984 247.44 
L 393.423531 245.592 
L 394.119058 243.744 
L 394.164423 245.592 
L 394.814909 247.44 
L 395.018668 251.136 
L 395.17876 249.288 
L 395.651816 251.136 
L 395.853101 252.984 
L 396.734402 254.832 
L 397.081619 256.68 
L 397.110714 254.832 
L 397.487 256.68 
L 397.521409 258.528 
L 397.904247 256.68 
L 399.003269 254.832 
L 401.26434 256.68 
L 401.416079 258.528 
L 402.209662 260.376 
L 404.085625 258.528 
L 404.085625 258.528 
" clip-path="url(#p08a91c45ac)" style="fill: none; stroke: #ff7f0e; stroke-width: 1.5; stroke-linecap: square"/>
   </g>
   <g id="line2d_20">
    <path d="M 225.828328 273.312 
L 225.828328 7.2 
" clip-path="url(#p08a91c45ac)" style="fill: none; stroke-dasharray: 1.5,2.475; stroke-dashoffset: 0; stroke: #000000; stroke-width: 1.5"/>
   </g>
   <g id="line2d_21">
    <path d="M 248.175599 273.312 
L 248.175599 7.2 
" clip-path="url(#p08a91c45ac)" style="fill: none; stroke-dasharray: 1.5,2.475; stroke-dashoffset: 0; stroke: #000000; stroke-width: 1.5"/>
   </g>
   <g id="line2d_22">
    <path d="M 403.053981 273.312 
L 403.053981 7.2 
" clip-path="url(#p08a91c45ac)" style="fill: none; stroke-dasharray: 1.5,2.475; stroke-dashoffset: 0; stroke: #000000; stroke-width: 1.5"/>
   </g>
   <g id="patch_3">
    <path d="M 46.965625 273.312 
L 46.965625 7.2 
" style="fill: none; stroke: #000000; stroke-width: 0.8; stroke-linejoin: miter; stroke-linecap: square"/>
   </g>
   <g id="patch_4">
    <path d="M 404.085625 273.312 
L 404.085625 7.2 
" style="fill: none; stroke: #000000; stroke-width: 0.8; stroke-linejoin: miter; stroke-linecap: square"/>
   </g>
   <g id="patch_5">
    <path d="M 46.965625 273.312 
L 404.085625 273.312 
" style="fill: none; stroke: #000000; stroke-width: 0.8; stroke-linejoin: miter; stroke-linecap: square"/>
   </g>
   <g id="patch_6">
    <path d="M 46.965625 7.2 
L 404.085625 7.2 
" style="fill: none; stroke: #000000; stroke-width: 0.8; stroke-linejoin: miter; stroke-linecap: square"/>
   </g>
   <g id="legend_1">
    <g id="patch_7">
     <path d="M 53.965625 44.55625 
L 99.667188 44.55625 
Q 101.667188 44.55625 101.667188 42.55625 
L 101.667188 14.2 
Q 101.667188 12.2 99.667188 12.2 
L 53.965625 12.2 
Q 51.965625 12.2 51.965625 14.2 
L 51.965625 42.55625 
Q 51.965625 44.55625 53.965625 44.55625 
z
" style="fill: #ffffff; opacity: 0.8; stroke: #cccccc; stroke-linejoin: miter"/>
    </g>
    <g id="line2d_23">
     <path d="M 55.965625 20.298437 
L 65.965625 20.298437 
L 75.965625 20.298437 
" style="fill: none; stroke: #1f77b4; stroke-width: 1.5; stroke-linecap: square"/>
    </g>
    <g id="text_20">
     <!-- AB -->
     <g transform="translate(83.965625 23.798437) scale(0.1 -0.1)">
      <defs>
       <path id="DejaVuSans-41" d="M 2188 4044 
L 1331 1722 
L 3047 1722 
L 2188 4044 
z
M 1831 4666 
L 2547 4666 
L 4325 0 
L 3669 0 
L 3244 1197 
L 1141 1197 
L 716 0 
L 50 0 
L 1831 4666 
z
" transform="scale(0.015625)"/>
       <path id="DejaVuSans-42" d="M 1259 2228 
L 1259 519 
L 2272 519 
Q 2781 519 3026 730 
Q 3272 941 3272 1375 
Q 3272 1813 3026 2020 
Q 2781 2228 2272 2228 
L 1259 2228 
z
M 1259 4147 
L 1259 2741 
L 2194 2741 
Q 2656 2741 2882 2914 
Q 3109 3088 3109 3444 
Q 3109 3797 2882 3972 
Q 2656 4147 2194 4147 
L 1259 4147 
z
M 628 4666 
L 2241 4666 
Q 2963 4666 3353 4366 
Q 3744 4066 3744 3513 
Q 3744 3084 3544 2831 
Q 3344 2578 2956 2516 
Q 3422 2416 3680 2098 
Q 3938 1781 3938 1306 
Q 3938 681 3513 340 
Q 3088 0 2303 0 
L 628 0 
L 628 4666 
z
" transform="scale(0.015625)"/>
      </defs>
      <use xlink:href="#DejaVuSans-41"/>
      <use xlink:href="#DejaVuSans-42" transform="translate(68.408203 0)"/>
     </g>
    </g>
    <g id="line2d_24">
     <path d="M 55.965625 34.976562 
L 65.965625 34.976562 
L 75.965625 34.976562 
" style="fill: none; stroke: #ff7f0e; stroke-width: 1.5; stroke-linecap: square"/>
    </g>
    <g id="text_21">
     <!-- A -->
     <g transform="translate(83.965625 38.476562) scale(0.1 -0.1)">
      <use xlink:href="#DejaVuSans-41"/>
     </g>
    </g>
   </g>
  </g>
 </g>
 <defs>
  <clipPath id="p08a91c45ac">
   <rect x="46.965625" y="7.2" width="357.12" height="266.112"/>
  </clipPath>
 </defs>
</svg>
