<?xml version="1.0" encoding="utf-8" standalone="no"?>
<!DOCTYPE svg PUBLIC "-//W3C//DTD SVG 1.1//EN"
  "http://www.w3.org/Graphics/SVG/1.1/DTD/svg11.dtd">
<svg xmlns:xlink="http://www.w3.org/1999/xlink" width="332.39952pt" height="332.39952pt" viewBox="0 0 332.39952 332.39952" xmlns="http://www.w3.org/2000/svg" version="1.1">
 <metadata>
  <rdf:RDF xmlns:dc="http://purl.org/dc/elements/1.1/" xmlns:cc="http://creativecommons.org/ns#" xmlns:rdf="http://www.w3.org/1999/02/22-rdf-syntax-ns#">
   <cc:Work>
    <dc:type rdf:resource="http://purl.org/dc/dcmitype/StillImage"/>
    <dc:date>2026-07-16T15:25:06.677649</dc:date>
    <dc:format>image/svg+xml</dc:format>
    <dc:creator>
     <cc:Agent>
      <dc:title>Matplotlib v3.11.0, https://matplotlib.org/</dc:title>
     </cc:Agent>
    </dc:creator>
   </cc:Work>
  </rdf:RDF>
 </metadata>
 <defs>
  <style type="text/css">*{stroke-linejoin: round; stroke-linecap: butt}</style>
 </defs>
 <g id="figure_1">
  <g id="patch_1">
   <path d="M 0 332.39952 
L 332.39952 332.39952 
L 332.39952 0 
L 0 0 
z
" style="fill: #ffffff"/>
  </g>
  <g id="axes_1">
   <g id="patch_2">
    <path d="M 44.103906 96.532593 
L 325.19952 96.532593 
L 325.19952 7.2 
L 44.103906 7.2 
z
" style="fill: #ffffff"/>
   </g>
   <g id="matplotlib.axis_1">
    <g id="xtick_1">
     <g id="line2d_1">
      <defs>
       <path id="ma2c8f79017" d="M 0 0 
L 0 3.5 
" style="stroke: #000000; stroke-width: 0.8"/>
      </defs>
      <g>
       <use xlink:href="#ma2c8f79017" x="56.88098" y="96.532593" style="stroke: #000000; stroke-width: 0.8"/>
      </g>
     </g>
    </g>
    <g id="xtick_2">
     <g id="line2d_2">
      <g>
       <use xlink:href="#ma2c8f79017" x="88.813548" y="96.532593" style="stroke: #000000; stroke-width: 0.8"/>
      </g>
     </g>
    </g>
    <g id="xtick_3">
     <g id="line2d_3">
      <g>
       <use xlink:href="#ma2c8f79017" x="120.746116" y="96.532593" style="stroke: #000000; stroke-width: 0.8"/>
      </g>
     </g>
    </g>
    <g id="xtick_4">
     <g id="line2d_4">
      <g>
       <use xlink:href="#ma2c8f79017" x="152.678684" y="96.532593" style="stroke: #000000; stroke-width: 0.8"/>
      </g>
     </g>
    </g>
    <g id="xtick_5">
     <g id="line2d_5">
      <g>
       <use xlink:href="#ma2c8f79017" x="184.611253" y="96.532593" style="stroke: #000000; stroke-width: 0.8"/>
      </g>
     </g>
    </g>
    <g id="xtick_6">
     <g id="line2d_6">
      <g>
       <use xlink:href="#ma2c8f79017" x="216.543821" y="96.532593" style="stroke: #000000; stroke-width: 0.8"/>
      </g>
     </g>
    </g>
    <g id="xtick_7">
     <g id="line2d_7">
      <g>
       <use xlink:href="#ma2c8f79017" x="248.476389" y="96.532593" style="stroke: #000000; stroke-width: 0.8"/>
      </g>
     </g>
    </g>
    <g id="xtick_8">
     <g id="line2d_8">
      <g>
       <use xlink:href="#ma2c8f79017" x="280.408958" y="96.532593" style="stroke: #000000; stroke-width: 0.8"/>
      </g>
     </g>
    </g>
    <g id="xtick_9">
     <g id="line2d_9">
      <g>
       <use xlink:href="#ma2c8f79017" x="312.341526" y="96.532593" style="stroke: #000000; stroke-width: 0.8"/>
      </g>
     </g>
    </g>
   </g>
   <g id="matplotlib.axis_2">
    <g id="ytick_1">
     <g id="line2d_10">
      <defs>
       <path id="mab546e6d80" d="M 0 0 
L -3.5 0 
" style="stroke: #000000; stroke-width: 0.8"/>
      </defs>
      <g>
       <use xlink:href="#mab546e6d80" x="44.103906" y="92.472021" style="stroke: #000000; stroke-width: 0.8"/>
      </g>
     </g>
     <g id="text_1">
      <!-- 0 -->
      <g transform="translate(30.741406 96.270849) scale(0.1 -0.1)">
       <defs>
        <path id="DejaVuSans-13" d="M 2034 4250 
Q 1547 4250 1301 3770 
Q 1056 3291 1056 2328 
Q 1056 1369 1301 889 
Q 1547 409 2034 409 
Q 2525 409 2770 889 
Q 3016 1369 3016 2328 
Q 3016 3291 2770 3770 
Q 2525 4250 2034 4250 
z
M 2034 4750 
Q 2819 4750 3233 4129 
Q 3647 3509 3647 2328 
Q 3647 1150 3233 529 
Q 2819 -91 2034 -91 
Q 1250 -91 836 529 
Q 422 1150 422 2328 
Q 422 3509 836 4129 
Q 1250 4750 2034 4750 
z
" transform="scale(0.015625)"/>
       </defs>
       <use xlink:href="#DejaVuSans-13"/>
      </g>
     </g>
    </g>
    <g id="ytick_2">
     <g id="line2d_11">
      <g>
       <use xlink:href="#mab546e6d80" x="44.103906" y="51.866296" style="stroke: #000000; stroke-width: 0.8"/>
      </g>
     </g>
     <g id="text_2">
      <!-- 5 -->
      <g transform="translate(30.741406 55.665125) scale(0.1 -0.1)">
       <defs>
        <path id="DejaVuSans-18" d="M 691 4666 
L 3169 4666 
L 3169 4134 
L 1269 4134 
L 1269 2991 
Q 1406 3038 1543 3061 
Q 1681 3084 1819 3084 
Q 2600 3084 3056 2656 
Q 3513 2228 3513 1497 
Q 3513 744 3044 326 
Q 2575 -91 1722 -91 
Q 1428 -91 1123 -41 
Q 819 9 494 109 
L 494 744 
Q 775 591 1075 516 
Q 1375 441 1709 441 
Q 2250 441 2565 725 
Q 2881 1009 2881 1497 
Q 2881 1984 2565 2268 
Q 2250 2553 1709 2553 
Q 1456 2553 1204 2497 
Q 953 2441 691 2322 
L 691 4666 
z
" transform="scale(0.015625)"/>
       </defs>
       <use xlink:href="#DejaVuSans-18"/>
      </g>
     </g>
    </g>
    <g id="ytick_3">
     <g id="line2d_12">
      <g>
       <use xlink:href="#mab546e6d80" x="44.103906" y="11.260572" style="stroke: #000000; stroke-width: 0.8"/>
      </g>
     </g>
     <g id="text_3">
      <!-- 10 -->
      <g transform="translate(24.378906 15.059401) scale(0.1 -0.1)">
       <defs>
        <path id="DejaVuSans-14" d="M 794 531 
L 1825 531 
L 1825 4091 
L 703 3866 
L 703 4441 
L 1819 4666 
L 2450 4666 
L 2450 531 
L 3481 531 
L 3481 0 
L 794 0 
L 794 531 
z
" transform="scale(0.015625)"/>
       </defs>
       <use xlink:href="#DejaVuSans-14"/>
       <use xlink:href="#DejaVuSans-13" transform="translate(63.625 0)"/>
      </g>
     </g>
    </g>
    <g id="text_4">
     <!-- Extracellular lactose -->
     <g transform="translate(17.976563 102.838171) rotate(-90) scale(0.1 -0.1)">
      <defs>
       <path id="DejaVuSans-28" d="M 628 4666 
L 3578 4666 
L 3578 4134 
L 1259 4134 
L 1259 2753 
L 3481 2753 
L 3481 2222 
L 1259 2222 
L 1259 531 
L 3634 531 
L 3634 0 
L 628 0 
L 628 4666 
z
" transform="scale(0.015625)"/>
       <path id="DejaVuSans-5b" d="M 3513 3500 
L 2247 1797 
L 3578 0 
L 2900 0 
L 1881 1375 
L 863 0 
L 184 0 
L 1544 1831 
L 300 3500 
L 978 3500 
L 1906 2253 
L 2834 3500 
L 3513 3500 
z
" transform="scale(0.015625)"/>
       <path id="DejaVuSans-57" d="M 1172 4494 
L 1172 3500 
L 2356 3500 
L 2356 3053 
L 1172 3053 
L 1172 1153 
Q 1172 725 1289 603 
Q 1406 481 1766 481 
L 2356 481 
L 2356 0 
L 1766 0 
Q 1100 0 847 248 
Q 594 497 594 1153 
L 594 3053 
L 172 3053 
L 172 3500 
L 594 3500 
L 594 4494 
L 1172 4494 
z
" transform="scale(0.015625)"/>
       <path id="DejaVuSans-55" d="M 2631 2963 
Q 2534 3019 2420 3045 
Q 2306 3072 2169 3072 
Q 1681 3072 1420 2755 
Q 1159 2438 1159 1844 
L 1159 0 
L 581 0 
L 581 3500 
L 1159 3500 
L 1159 2956 
Q 1341 3275 1631 3429 
Q 1922 3584 2338 3584 
Q 2397 3584 2469 3576 
Q 2541 3569 2628 3553 
L 2631 2963 
z
" transform="scale(0.015625)"/>
       <path id="DejaVuSans-44" d="M 2194 1759 
Q 1497 1759 1228 1600 
Q 959 1441 959 1056 
Q 959 750 1161 570 
Q 1363 391 1709 391 
Q 2188 391 2477 730 
Q 2766 1069 2766 1631 
L 2766 1759 
L 2194 1759 
z
M 3341 1997 
L 3341 0 
L 2766 0 
L 2766 531 
Q 2569 213 2275 61 
Q 1981 -91 1556 -91 
Q 1019 -91 701 211 
Q 384 513 384 1019 
Q 384 1609 779 1909 
Q 1175 2209 1959 2209 
L 2766 2209 
L 2766 2266 
Q 2766 2663 2505 2880 
Q 2244 3097 1772 3097 
Q 1472 3097 1187 3025 
Q 903 2953 641 2809 
L 641 3341 
Q 956 3463 1253 3523 
Q 1550 3584 1831 3584 
Q 2591 3584 2966 3190 
Q 3341 2797 3341 1997 
z
" transform="scale(0.015625)"/>
       <path id="DejaVuSans-46" d="M 3122 3366 
L 3122 2828 
Q 2878 2963 2633 3030 
Q 2388 3097 2138 3097 
Q 1578 3097 1268 2742 
Q 959 2388 959 1747 
Q 959 1106 1268 751 
Q 1578 397 2138 397 
Q 2388 397 2633 464 
Q 2878 531 3122 666 
L 3122 134 
Q 2881 22 2623 -34 
Q 2366 -91 2075 -91 
Q 1284 -91 818 406 
Q 353 903 353 1747 
Q 353 2603 823 3093 
Q 1294 3584 2113 3584 
Q 2378 3584 2631 3529 
Q 2884 3475 3122 3366 
z
" transform="scale(0.015625)"/>
       <path id="DejaVuSans-48" d="M 3597 1894 
L 3597 1613 
L 953 1613 
Q 991 1019 1311 708 
Q 1631 397 2203 397 
Q 2534 397 2845 478 
Q 3156 559 3463 722 
L 3463 178 
Q 3153 47 2828 -22 
Q 2503 -91 2169 -91 
Q 1331 -91 842 396 
Q 353 884 353 1716 
Q 353 2575 817 3079 
Q 1281 3584 2069 3584 
Q 2775 3584 3186 3129 
Q 3597 2675 3597 1894 
z
M 3022 2063 
Q 3016 2534 2758 2815 
Q 2500 3097 2075 3097 
Q 1594 3097 1305 2825 
Q 1016 2553 972 2059 
L 3022 2063 
z
" transform="scale(0.015625)"/>
       <path id="DejaVuSans-4f" d="M 603 4863 
L 1178 4863 
L 1178 0 
L 603 0 
L 603 4863 
z
" transform="scale(0.015625)"/>
       <path id="DejaVuSans-58" d="M 544 1381 
L 544 3500 
L 1119 3500 
L 1119 1403 
Q 1119 906 1312 657 
Q 1506 409 1894 409 
Q 2359 409 2629 706 
Q 2900 1003 2900 1516 
L 2900 3500 
L 3475 3500 
L 3475 0 
L 2900 0 
L 2900 538 
Q 2691 219 2414 64 
Q 2138 -91 1772 -91 
Q 1169 -91 856 284 
Q 544 659 544 1381 
z
M 1991 3584 
L 1991 3584 
z
" transform="scale(0.015625)"/>
       <path id="DejaVuSans-3" transform="scale(0.015625)"/>
       <path id="DejaVuSans-52" d="M 1959 3097 
Q 1497 3097 1228 2736 
Q 959 2375 959 1747 
Q 959 1119 1226 758 
Q 1494 397 1959 397 
Q 2419 397 2687 759 
Q 2956 1122 2956 1747 
Q 2956 2369 2687 2733 
Q 2419 3097 1959 3097 
z
M 1959 3584 
Q 2709 3584 3137 3096 
Q 3566 2609 3566 1747 
Q 3566 888 3137 398 
Q 2709 -91 1959 -91 
Q 1206 -91 779 398 
Q 353 888 353 1747 
Q 353 2609 779 3096 
Q 1206 3584 1959 3584 
z
" transform="scale(0.015625)"/>
       <path id="DejaVuSans-56" d="M 2834 3397 
L 2834 2853 
Q 2591 2978 2328 3040 
Q 2066 3103 1784 3103 
Q 1356 3103 1142 2972 
Q 928 2841 928 2578 
Q 928 2378 1081 2264 
Q 1234 2150 1697 2047 
L 1894 2003 
Q 2506 1872 2764 1633 
Q 3022 1394 3022 966 
Q 3022 478 2636 193 
Q 2250 -91 1575 -91 
Q 1294 -91 989 -36 
Q 684 19 347 128 
L 347 722 
Q 666 556 975 473 
Q 1284 391 1588 391 
Q 1994 391 2212 530 
Q 2431 669 2431 922 
Q 2431 1156 2273 1281 
Q 2116 1406 1581 1522 
L 1381 1569 
Q 847 1681 609 1914 
Q 372 2147 372 2553 
Q 372 3047 722 3315 
Q 1072 3584 1716 3584 
Q 2034 3584 2315 3537 
Q 2597 3491 2834 3397 
z
" transform="scale(0.015625)"/>
      </defs>
      <use xlink:href="#DejaVuSans-28"/>
      <use xlink:href="#DejaVuSans-5b" transform="translate(63.1875 0)"/>
      <use xlink:href="#DejaVuSans-57" transform="translate(122.375 0)"/>
      <use xlink:href="#DejaVuSans-55" transform="translate(161.578125 0)"/>
      <use xlink:href="#DejaVuSans-44" transform="translate(202.6875 0)"/>
      <use xlink:href="#DejaVuSans-46" transform="translate(263.96875 0)"/>
      <use xlink:href="#DejaVuSans-48" transform="translate(318.953125 0)"/>
      <use xlink:href="#DejaVuSans-4f" transform="translate(380.484375 0)"/>
      <use xlink:href="#DejaVuSans-4f" transform="translate(408.265625 0)"/>
      <use xlink:href="#DejaVuSans-58" transform="translate(436.046875 0)"/>
      <use xlink:href="#DejaVuSans-4f" transform="translate(499.421875 0)"/>
      <use xlink:href="#DejaVuSans-44" transform="translate(527.203125 0)"/>
      <use xlink:href="#DejaVuSans-55" transform="translate(588.484375 0)"/>
      <use xlink:href="#DejaVuSans-3" transform="translate(629.59375 0)"/>
      <use xlink:href="#DejaVuSans-4f" transform="translate(661.375 0)"/>
      <use xlink:href="#DejaVuSans-44" transform="translate(689.15625 0)"/>
      <use xlink:href="#DejaVuSans-46" transform="translate(750.4375 0)"/>
      <use xlink:href="#DejaVuSans-57" transform="translate(805.421875 0)"/>
      <use xlink:href="#DejaVuSans-52" transform="translate(844.625 0)"/>
      <use xlink:href="#DejaVuSans-56" transform="translate(905.8125 0)"/>
      <use xlink:href="#DejaVuSans-48" transform="translate(957.90625 0)"/>
     </g>
    </g>
   </g>
   <g id="line2d_13">
    <path d="M 56.88098 92.472021 
L 156.213413 92.472021 
L 156.302516 11.260572 
L 156.970544 11.341784 
L 157.088238 11.66663 
L 157.133055 11.747841 
L 157.279258 13.209647 
L 157.397606 14.833876 
L 157.411435 14.915088 
L 157.554956 16.620528 
L 157.578507 16.701739 
L 158.088116 20.193832 
L 158.365361 20.599889 
L 158.424658 20.6811 
L 158.53384 20.762312 
L 158.933161 20.843523 
L 159.034821 21.168369 
L 159.292409 21.574426 
L 159.392816 21.980484 
L 159.51333 22.061695 
L 159.61603 22.548964 
L 159.646012 22.630175 
L 159.754931 23.523501 
L 159.852113 24.416827 
L 160.191096 25.797422 
L 160.232453 25.878633 
L 160.489946 27.340439 
L 160.606425 28.314977 
L 160.620175 28.396188 
L 160.937327 30.994954 
L 161.476221 33.268875 
L 161.603919 33.918566 
L 161.707247 33.999778 
L 161.912661 34.974315 
L 161.97771 35.055527 
L 162.17597 35.78643 
L 162.748212 35.867641 
L 162.892137 36.35491 
L 162.915875 36.436121 
L 163.084648 36.842179 
L 163.296425 36.92339 
L 163.440828 37.49187 
L 163.588701 37.816716 
L 163.611935 37.897927 
L 163.715089 38.141562 
L 164.303852 39.440945 
L 164.411656 39.684579 
L 164.587596 39.765791 
L 165.002468 41.227597 
L 165.428575 41.308808 
L 165.706178 42.120923 
L 165.792623 42.364557 
L 165.945741 42.689403 
L 165.986922 42.770614 
L 166.040054 42.851826 
L 166.282807 42.933037 
L 166.398436 43.339094 
L 166.548167 43.745152 
L 166.634232 43.826363 
L 166.725372 44.23242 
L 166.789784 44.313632 
L 166.964415 44.557266 
L 167.039851 44.638478 
L 167.32069 46.343918 
L 167.753026 47.56209 
L 167.82496 47.643301 
L 168.092997 48.374204 
L 168.23001 48.861473 
L 168.49558 50.566913 
L 168.56366 50.648125 
L 168.717052 51.216605 
L 168.770364 51.297816 
L 169.050789 52.109931 
L 169.106543 52.191142 
L 169.428872 52.922045 
L 169.589963 53.328103 
L 169.673994 53.409314 
L 169.847751 54.059006 
L 170.273493 55.358389 
L 170.406572 55.4396 
L 170.519715 55.602023 
L 170.704556 56.089292 
L 170.735717 56.170503 
L 170.844758 56.414138 
L 170.8735 56.495349 
L 170.957898 56.820195 
L 171.661897 59.743807 
L 171.711739 59.825018 
L 171.926395 61.04319 
L 172.002114 61.124402 
L 172.096849 61.286824 
L 172.196588 61.368036 
L 172.300285 61.449247 
L 172.582838 61.530459 
L 172.692016 61.855305 
L 172.817381 61.936516 
L 172.94367 62.017727 
L 173.09613 62.098939 
L 173.187434 62.261362 
L 173.38229 62.342573 
L 173.488219 62.423785 
L 174.1838 62.504996 
L 174.298784 62.667419 
L 174.495607 62.748631 
L 174.598324 63.154688 
L 174.698107 63.235899 
L 174.792529 63.398322 
L 174.955016 63.479534 
L 175.176715 64.616494 
L 175.290596 64.697705 
L 175.422772 65.022551 
L 175.586281 65.834666 
L 175.69609 66.159511 
L 175.865801 66.727991 
L 175.886325 66.809203 
L 176.032146 67.21526 
L 176.091601 67.296472 
L 176.217983 67.864952 
L 176.293813 67.946163 
L 176.441355 68.433432 
L 176.647226 68.514643 
L 176.740308 68.677066 
L 176.942346 68.758278 
L 177.62234 69.895238 
L 177.676374 69.976449 
L 178.049594 70.463718 
L 178.246177 70.54493 
L 178.349314 70.950987 
L 178.430801 71.032198 
L 178.788743 71.68189 
L 178.969694 71.763101 
L 179.090264 72.169158 
L 179.424949 73.224907 
L 179.664025 73.306119 
L 179.919806 74.280656 
L 179.955462 74.361868 
L 180.094606 74.52429 
L 180.199161 74.605502 
L 180.352919 74.849136 
L 180.496098 74.930348 
L 180.62313 75.255194 
L 180.697176 75.336405 
L 181.140145 76.717 
L 181.470589 76.798211 
L 181.59247 76.879422 
L 181.716385 76.960634 
L 181.871849 77.28548 
L 182.632869 77.366691 
L 182.655469 77.447903 
L 183.042572 77.529114 
L 183.163307 77.610326 
L 184.520707 77.691537 
L 184.720594 77.935171 
L 185.147964 78.016383 
L 185.243421 78.178806 
L 185.454093 78.260017 
L 185.548064 78.341229 
L 186.27495 79.153343 
L 186.394733 79.315766 
L 186.433464 79.396977 
L 186.57562 79.721823 
L 187.365452 80.615149 
L 188.42967 80.696361 
L 188.518778 80.858783 
L 188.593588 80.939995 
L 189.014555 81.508475 
L 189.126412 81.589686 
L 189.611942 81.995744 
L 189.827314 82.401801 
L 189.932034 82.483012 
L 190.389665 83.295127 
L 190.546946 83.376338 
L 190.762328 83.782396 
L 191.203613 83.863607 
L 191.312219 83.944818 
L 193.109086 84.02603 
L 193.214894 84.188453 
L 193.761123 84.269664 
L 193.836671 84.350876 
L 194.036915 84.432087 
L 194.503024 84.756933 
L 194.685217 84.838144 
L 194.963182 84.919356 
L 195.37141 85.000567 
L 195.467385 85.081779 
L 195.593127 85.244202 
L 195.999738 85.406625 
L 196.037069 85.487836 
L 196.147223 85.569047 
L 196.309776 85.650259 
L 196.597977 85.73147 
L 196.861985 86.056316 
L 197.183958 86.137528 
L 197.669867 86.462373 
L 198.097518 86.543585 
L 198.222821 86.624796 
L 202.708106 86.706008 
L 202.830435 86.949642 
L 203.090343 87.030853 
L 203.266671 87.112065 
L 203.47915 87.193276 
L 203.567969 87.355699 
L 203.795372 87.436911 
L 203.987978 87.518122 
L 204.427437 87.599334 
L 204.572318 87.761757 
L 205.032067 87.842968 
L 205.636952 88.167814 
L 205.775409 88.330237 
L 206.134791 88.411448 
L 206.399659 88.49266 
L 207.131439 88.573871 
L 207.563668 88.817505 
L 208.365521 88.898717 
L 209.354513 89.304774 
L 209.445685 89.385985 
L 209.552938 89.548408 
L 210.104604 89.62962 
L 210.271119 89.710831 
L 210.650974 89.792043 
L 210.82662 89.873254 
L 211.509457 89.954466 
L 211.528671 90.035677 
L 215.640674 90.116889 
L 215.769723 90.1981 
L 217.633581 90.279311 
L 217.876697 90.441734 
L 225.349854 90.522946 
L 225.73024 90.604157 
L 226.74896 90.685369 
L 226.852705 90.76658 
L 251.269361 90.847792 
L 253.073945 90.929003 
L 307.192802 91.010214 
L 307.251139 91.091426 
L 308.006447 91.172637 
L 308.112731 91.253849 
L 308.395813 91.33506 
L 308.532189 91.416272 
L 309.768718 91.497483 
L 309.940798 91.578695 
L 310.984723 91.659906 
L 311.281399 91.741117 
L 312.422447 91.741117 
L 312.422447 91.741117 
" clip-path="url(#paa4f878c77)" style="fill: none; stroke: #000000; stroke-width: 1.5; stroke-linecap: square"/>
   </g>
   <g id="patch_3">
    <path d="M 44.103906 96.532593 
L 44.103906 7.2 
" style="fill: none; stroke: #000000; stroke-width: 0.8; stroke-linejoin: miter; stroke-linecap: square"/>
   </g>
   <g id="patch_4">
    <path d="M 325.19952 96.532593 
L 325.19952 7.2 
" style="fill: none; stroke: #000000; stroke-width: 0.8; stroke-linejoin: miter; stroke-linecap: square"/>
   </g>
   <g id="patch_5">
    <path d="M 44.103906 96.532593 
L 325.19952 96.532593 
" style="fill: none; stroke: #000000; stroke-width: 0.8; stroke-linejoin: miter; stroke-linecap: square"/>
   </g>
   <g id="patch_6">
    <path d="M 44.103906 7.2 
L 325.19952 7.2 
" style="fill: none; stroke: #000000; stroke-width: 0.8; stroke-linejoin: miter; stroke-linecap: square"/>
   </g>
  </g>
  <g id="axes_2">
   <g id="patch_7">
    <path d="M 44.103906 195.365666 
L 325.19952 195.365666 
L 325.19952 106.033073 
L 44.103906 106.033073 
z
" style="fill: #ffffff"/>
   </g>
   <g id="matplotlib.axis_3">
    <g id="xtick_10">
     <g id="line2d_14">
      <g>
       <use xlink:href="#ma2c8f79017" x="56.88098" y="195.365666" style="stroke: #000000; stroke-width: 0.8"/>
      </g>
     </g>
    </g>
    <g id="xtick_11">
     <g id="line2d_15">
      <g>
       <use xlink:href="#ma2c8f79017" x="88.813548" y="195.365666" style="stroke: #000000; stroke-width: 0.8"/>
      </g>
     </g>
    </g>
    <g id="xtick_12">
     <g id="line2d_16">
      <g>
       <use xlink:href="#ma2c8f79017" x="120.746116" y="195.365666" style="stroke: #000000; stroke-width: 0.8"/>
      </g>
     </g>
    </g>
    <g id="xtick_13">
     <g id="line2d_17">
      <g>
       <use xlink:href="#ma2c8f79017" x="152.678684" y="195.365666" style="stroke: #000000; stroke-width: 0.8"/>
      </g>
     </g>
    </g>
    <g id="xtick_14">
     <g id="line2d_18">
      <g>
       <use xlink:href="#ma2c8f79017" x="184.611253" y="195.365666" style="stroke: #000000; stroke-width: 0.8"/>
      </g>
     </g>
    </g>
    <g id="xtick_15">
     <g id="line2d_19">
      <g>
       <use xlink:href="#ma2c8f79017" x="216.543821" y="195.365666" style="stroke: #000000; stroke-width: 0.8"/>
      </g>
     </g>
    </g>
    <g id="xtick_16">
     <g id="line2d_20">
      <g>
       <use xlink:href="#ma2c8f79017" x="248.476389" y="195.365666" style="stroke: #000000; stroke-width: 0.8"/>
      </g>
     </g>
    </g>
    <g id="xtick_17">
     <g id="line2d_21">
      <g>
       <use xlink:href="#ma2c8f79017" x="280.408958" y="195.365666" style="stroke: #000000; stroke-width: 0.8"/>
      </g>
     </g>
    </g>
    <g id="xtick_18">
     <g id="line2d_22">
      <g>
       <use xlink:href="#ma2c8f79017" x="312.341526" y="195.365666" style="stroke: #000000; stroke-width: 0.8"/>
      </g>
     </g>
    </g>
   </g>
   <g id="matplotlib.axis_4">
    <g id="ytick_4">
     <g id="line2d_23">
      <g>
       <use xlink:href="#mab546e6d80" x="44.103906" y="191.305093" style="stroke: #000000; stroke-width: 0.8"/>
      </g>
     </g>
     <g id="text_5">
      <!-- 0 -->
      <g transform="translate(30.741406 195.103922) scale(0.1 -0.1)">
       <use xlink:href="#DejaVuSans-13"/>
      </g>
     </g>
    </g>
    <g id="ytick_5">
     <g id="line2d_24">
      <g>
       <use xlink:href="#mab546e6d80" x="44.103906" y="150.699369" style="stroke: #000000; stroke-width: 0.8"/>
      </g>
     </g>
     <g id="text_6">
      <!-- 5 -->
      <g transform="translate(30.741406 154.498197) scale(0.1 -0.1)">
       <use xlink:href="#DejaVuSans-18"/>
      </g>
     </g>
    </g>
    <g id="ytick_6">
     <g id="line2d_25">
      <g>
       <use xlink:href="#mab546e6d80" x="44.103906" y="110.093645" style="stroke: #000000; stroke-width: 0.8"/>
      </g>
     </g>
     <g id="text_7">
      <!-- 10 -->
      <g transform="translate(24.378906 113.892473) scale(0.1 -0.1)">
       <use xlink:href="#DejaVuSans-14"/>
       <use xlink:href="#DejaVuSans-13" transform="translate(63.625 0)"/>
      </g>
     </g>
    </g>
    <g id="text_8">
     <!-- LacY -->
     <g transform="translate(17.976563 162.352494) rotate(-90) scale(0.1 -0.1)">
      <defs>
       <path id="DejaVuSans-2f" d="M 628 4666 
L 1259 4666 
L 1259 531 
L 3531 531 
L 3531 0 
L 628 0 
L 628 4666 
z
" transform="scale(0.015625)"/>
       <path id="DejaVuSans-3c" d="M -13 4666 
L 666 4666 
L 1959 2747 
L 3244 4666 
L 3922 4666 
L 2272 2222 
L 2272 0 
L 1638 0 
L 1638 2222 
L -13 4666 
z
" transform="scale(0.015625)"/>
      </defs>
      <use xlink:href="#DejaVuSans-2f"/>
      <use xlink:href="#DejaVuSans-44" transform="translate(55.71875 0)"/>
      <use xlink:href="#DejaVuSans-46" transform="translate(117 0)"/>
      <use xlink:href="#DejaVuSans-3c" transform="translate(171.984375 0)"/>
     </g>
    </g>
   </g>
   <g id="line2d_26">
    <path d="M 56.88098 110.093645 
L 56.908124 110.093645 
L 56.962652 118.21479 
L 57.070885 134.45708 
L 57.131265 142.578225 
L 57.283465 142.578225 
L 57.301173 134.45708 
L 57.521898 142.578225 
L 57.66385 142.578225 
L 57.834607 158.820514 
L 58.135693 175.062804 
L 58.201353 191.305093 
L 59.732287 191.305093 
L 59.899011 183.183949 
L 59.941779 191.305093 
L 64.967454 191.305093 
L 65.290609 183.183949 
L 65.400631 191.305093 
L 82.907623 191.305093 
L 83.102151 183.183949 
L 84.896574 191.305093 
L 84.911409 183.183949 
L 85.054704 175.062804 
L 85.059362 166.941659 
L 85.381722 175.062804 
L 85.608827 175.062804 
L 85.728534 191.305093 
L 85.789392 183.183949 
L 85.979737 183.183949 
L 86.118308 191.305093 
L 90.01295 191.305093 
L 90.40299 175.062804 
L 90.404292 166.941659 
L 90.903238 166.941659 
L 90.941931 183.183949 
L 91.714553 183.183949 
L 91.883582 175.062804 
L 92.228087 191.305093 
L 109.243816 191.305093 
L 109.349579 183.183949 
L 109.469361 183.183949 
L 109.608541 191.305093 
L 109.843689 191.305093 
L 109.8852 183.183949 
L 110.301423 183.183949 
L 110.651571 175.062804 
L 110.709956 183.183949 
L 110.885334 183.183949 
L 110.914931 191.305093 
L 119.680183 191.305093 
L 119.858726 183.183949 
L 121.96038 183.183949 
L 123.809088 191.305093 
L 131.582322 191.305093 
L 131.768714 183.183949 
L 132.056469 183.183949 
L 132.164319 191.305093 
L 136.503056 191.305093 
L 136.586842 183.183949 
L 136.608723 191.305093 
L 146.608175 191.305093 
L 146.869198 175.062804 
L 146.890044 183.183949 
L 146.919071 175.062804 
L 147.03226 166.941659 
L 147.037604 175.062804 
L 147.622745 175.062804 
L 148.240348 183.183949 
L 148.485848 183.183949 
L 148.801327 175.062804 
L 148.914289 175.062804 
L 149.986939 191.305093 
L 150.447427 191.305093 
L 150.499344 175.062804 
L 150.600289 175.062804 
L 150.753226 183.183949 
L 150.887038 183.183949 
L 151.43032 191.305093 
L 156.552309 191.305093 
L 156.980889 183.183949 
L 157.221348 150.699369 
L 157.503183 150.699369 
L 157.623374 166.941659 
L 157.673277 166.941659 
L 157.774247 158.820514 
L 157.861286 158.820514 
L 157.971169 175.062804 
L 157.99939 175.062804 
L 158.088116 183.183949 
L 158.440137 183.183949 
L 158.53384 191.305093 
L 158.882839 191.305093 
L 158.98412 183.183949 
L 159.165719 183.183949 
L 159.276003 175.062804 
L 159.422001 175.062804 
L 159.477499 183.183949 
L 159.532005 175.062804 
L 159.638246 175.062804 
L 159.742549 166.941659 
L 159.902619 166.941659 
L 160.027584 183.183949 
L 160.161841 183.183949 
L 160.280231 175.062804 
L 160.429026 175.062804 
L 160.567429 158.820514 
L 160.729878 158.820514 
L 160.798588 150.699369 
L 160.837708 158.820514 
L 160.925107 158.820514 
L 160.975641 150.699369 
L 161.028226 158.820514 
L 161.196787 158.820514 
L 161.305838 175.062804 
L 161.334776 175.062804 
L 161.365296 183.183949 
L 161.373676 166.941659 
L 161.441652 166.941659 
L 161.676628 166.941659 
L 161.788633 175.062804 
L 162.075864 175.062804 
L 162.17597 183.183949 
L 162.275835 183.183949 
L 162.386644 191.305093 
L 162.659948 191.305093 
L 162.808771 183.183949 
L 162.932306 183.183949 
L 163.047458 175.062804 
L 163.084648 175.062804 
L 163.193761 183.183949 
L 163.437238 183.183949 
L 163.490244 175.062804 
L 163.543416 183.183949 
L 163.884711 183.183949 
L 163.973296 175.062804 
L 163.989005 183.183949 
L 164.069946 183.183949 
L 164.179038 175.062804 
L 164.359086 175.062804 
L 164.435991 183.183949 
L 164.528324 183.183949 
L 164.6885 175.062804 
L 164.75426 175.062804 
L 164.886248 183.183949 
L 164.972171 183.183949 
L 164.975409 175.062804 
L 165.067937 183.183949 
L 165.350161 183.183949 
L 165.460306 175.062804 
L 165.590843 166.941659 
L 165.706178 183.183949 
L 166.31213 183.183949 
L 166.428627 175.062804 
L 166.725372 175.062804 
L 166.861656 183.183949 
L 166.964415 183.183949 
L 167.224203 158.820514 
L 167.32069 166.941659 
L 167.363156 166.941659 
L 167.483284 175.062804 
L 167.543433 175.062804 
L 167.651476 183.183949 
L 167.967187 183.183949 
L 168.135814 166.941659 
L 168.347372 166.941659 
L 168.357313 175.062804 
L 168.443599 166.941659 
L 168.688005 166.941659 
L 168.791413 158.820514 
L 168.829817 158.820514 
L 168.927591 166.941659 
L 168.968507 166.941659 
L 169.081321 183.183949 
L 169.402035 183.183949 
L 169.516816 166.941659 
L 169.589963 166.941659 
L 169.728555 175.062804 
L 169.748078 175.062804 
L 169.867429 166.941659 
L 170.15393 166.941659 
L 170.253154 175.062804 
L 170.974549 175.062804 
L 171.086998 166.941659 
L 171.569412 166.941659 
L 171.634311 158.820514 
L 171.676023 166.941659 
L 171.991481 166.941659 
L 172.096849 175.062804 
L 172.159931 175.062804 
L 172.300285 183.183949 
L 172.496275 183.183949 
L 172.62799 175.062804 
L 172.720724 175.062804 
L 172.841219 183.183949 
L 173.185737 183.183949 
L 173.28111 191.305093 
L 173.330371 191.305093 
L 173.442055 175.062804 
L 173.488219 183.183949 
L 173.597809 183.183949 
L 173.611243 191.305093 
L 174.040217 191.305093 
L 174.1838 183.183949 
L 174.478914 183.183949 
L 174.565809 150.699369 
L 174.613995 158.820514 
L 174.651222 158.820514 
L 174.765182 166.941659 
L 174.895055 175.062804 
L 174.98036 175.062804 
L 175.090932 166.941659 
L 175.299112 166.941659 
L 175.422772 158.820514 
L 175.774606 158.820514 
L 175.894057 166.941659 
L 176.476713 166.941659 
L 176.481977 158.820514 
L 176.50106 175.062804 
L 176.573667 175.062804 
L 176.740308 175.062804 
L 176.808793 166.941659 
L 176.849987 175.062804 
L 177.421562 175.062804 
L 177.432574 183.183949 
L 177.583895 183.183949 
L 177.732292 175.062804 
L 177.84863 183.183949 
L 178.049594 183.183949 
L 178.249976 175.062804 
L 178.63698 175.062804 
L 178.788743 183.183949 
L 178.866711 183.183949 
L 179.044048 166.941659 
L 179.410298 166.941659 
L 179.528201 175.062804 
L 179.676303 175.062804 
L 179.822098 158.820514 
L 179.924122 158.820514 
L 180.008265 175.062804 
L 180.094606 183.183949 
L 180.277313 166.941659 
L 180.319148 166.941659 
L 180.352919 183.183949 
L 180.413893 166.941659 
L 180.548908 166.941659 
L 180.569271 175.062804 
L 180.637632 166.941659 
L 180.770177 158.820514 
L 180.955959 158.820514 
L 181.197852 191.305093 
L 181.410437 191.305093 
L 181.500841 175.062804 
L 181.674176 166.941659 
L 181.732819 166.941659 
L 181.793084 175.062804 
L 181.921588 166.941659 
L 182.018307 166.941659 
L 182.104426 175.062804 
L 182.200324 175.062804 
L 182.309556 191.305093 
L 182.391849 191.305093 
L 182.489266 183.183949 
L 182.519136 183.183949 
L 182.655469 175.062804 
L 182.800213 183.183949 
L 182.989684 183.183949 
L 183.092848 175.062804 
L 183.138162 175.062804 
L 183.262784 191.305093 
L 184.118334 191.305093 
L 184.331064 175.062804 
L 184.3868 183.183949 
L 184.41384 175.062804 
L 184.502683 175.062804 
L 184.608335 183.183949 
L 184.697782 183.183949 
L 184.760341 191.305093 
L 185.064182 183.183949 
L 185.849994 183.183949 
L 185.974406 158.820514 
L 186.039626 158.820514 
L 186.160848 142.578225 
L 186.222381 142.578225 
L 186.295576 150.699369 
L 186.320246 142.578225 
L 186.334962 142.578225 
L 186.389081 126.335935 
L 186.433464 142.578225 
L 186.534626 142.578225 
L 186.640345 150.699369 
L 186.737025 150.699369 
L 186.859754 175.062804 
L 187.170504 175.062804 
L 187.32249 183.183949 
L 187.576232 183.183949 
L 187.693921 175.062804 
L 187.840901 183.183949 
L 187.862676 183.183949 
L 187.872245 191.305093 
L 187.946258 183.183949 
L 188.027666 175.062804 
L 188.166461 183.183949 
L 188.313503 166.941659 
L 188.369496 166.941659 
L 188.484923 158.820514 
L 188.571718 166.941659 
L 188.575388 158.820514 
L 188.689935 150.699369 
L 188.905694 150.699369 
L 189.014555 158.820514 
L 189.26942 158.820514 
L 189.285462 166.941659 
L 189.33974 150.699369 
L 189.349179 150.699369 
L 189.405864 142.578225 
L 189.705619 142.578225 
L 189.911066 158.820514 
L 190.200631 158.820514 
L 190.33349 150.699369 
L 190.442933 150.699369 
L 190.574999 158.820514 
L 190.57876 150.699369 
L 190.627696 166.941659 
L 190.762328 166.941659 
L 190.859773 175.062804 
L 191.044309 175.062804 
L 191.068869 183.183949 
L 191.15161 175.062804 
L 191.451898 175.062804 
L 191.47143 183.183949 
L 192.052298 183.183949 
L 192.099752 175.062804 
L 192.287647 183.183949 
L 192.410171 183.183949 
L 192.522503 191.305093 
L 192.583039 191.305093 
L 193.027456 183.183949 
L 193.138499 175.062804 
L 193.275062 183.183949 
L 193.35025 183.183949 
L 193.483101 175.062804 
L 193.759147 175.062804 
L 193.836671 183.183949 
L 193.983059 183.183949 
L 194.122984 175.062804 
L 194.200808 175.062804 
L 194.277865 166.941659 
L 194.497015 166.941659 
L 194.581635 183.183949 
L 194.685217 175.062804 
L 194.80586 175.062804 
L 194.845811 183.183949 
L 195.053404 183.183949 
L 195.192629 175.062804 
L 195.237842 175.062804 
L 195.314486 166.941659 
L 195.402883 150.699369 
L 195.467385 158.820514 
L 195.54011 158.820514 
L 195.705126 175.062804 
L 195.87262 158.820514 
L 195.875706 166.941659 
L 195.976592 158.820514 
L 195.99582 150.699369 
L 196.06443 166.941659 
L 196.084712 166.941659 
L 196.147223 175.062804 
L 196.243572 175.062804 
L 196.309776 166.941659 
L 196.764825 166.941659 
L 196.861985 142.578225 
L 197.097175 175.062804 
L 198.214526 175.062804 
L 198.317629 183.183949 
L 198.347302 191.305093 
L 201.450303 191.305093 
L 201.65074 183.183949 
L 201.679653 191.305093 
L 201.951195 183.183949 
L 202.069561 191.305093 
L 202.422996 166.941659 
L 202.731836 175.062804 
L 202.812694 175.062804 
L 202.830435 183.183949 
L 202.868093 166.941659 
L 202.879677 166.941659 
L 203.138028 166.941659 
L 203.275787 183.183949 
L 203.435869 166.941659 
L 203.921273 166.941659 
L 203.987978 158.820514 
L 204.165193 166.941659 
L 204.179262 175.062804 
L 204.455497 166.941659 
L 204.572318 166.941659 
L 204.683961 175.062804 
L 204.709301 175.062804 
L 204.712024 183.183949 
L 204.905256 166.941659 
L 205.032067 158.820514 
L 205.657555 158.820514 
L 205.775409 175.062804 
L 205.873259 183.183949 
L 205.986748 175.062804 
L 206.243054 175.062804 
L 206.423731 191.305093 
L 206.814416 183.183949 
L 206.95439 175.062804 
L 207.089896 191.305093 
L 207.126669 183.183949 
L 207.544599 183.183949 
L 207.591845 191.305093 
L 207.798292 191.305093 
L 207.930089 166.941659 
L 208.052506 175.062804 
L 208.280018 175.062804 
L 208.365521 166.941659 
L 208.532666 166.941659 
L 208.630256 142.578225 
L 208.74055 150.699369 
L 208.822268 142.578225 
L 208.850007 150.699369 
L 208.859646 150.699369 
L 208.881065 158.820514 
L 209.159056 158.820514 
L 209.217481 150.699369 
L 209.264718 158.820514 
L 209.324877 158.820514 
L 209.44743 166.941659 
L 209.579027 166.941659 
L 209.597032 158.820514 
L 209.690071 166.941659 
L 209.92086 166.941659 
L 210.038365 158.820514 
L 210.228842 175.062804 
L 210.271119 175.062804 
L 210.419441 158.820514 
L 210.705401 150.699369 
L 210.782305 150.699369 
L 210.82662 142.578225 
L 210.863187 150.699369 
L 211.02341 150.699369 
L 211.081035 158.820514 
L 211.106537 150.699369 
L 211.143971 150.699369 
L 211.170968 166.941659 
L 211.308394 150.699369 
L 211.33199 158.820514 
L 211.41847 158.820514 
L 211.528671 166.941659 
L 211.734549 166.941659 
L 211.784618 158.820514 
L 212.006624 175.062804 
L 212.116225 166.941659 
L 212.117316 175.062804 
L 212.271832 183.183949 
L 212.836176 183.183949 
L 212.900081 175.062804 
L 212.927035 183.183949 
L 212.987334 183.183949 
L 213.127425 166.941659 
L 213.169816 175.062804 
L 213.216727 183.183949 
L 213.231256 166.941659 
L 213.334307 166.941659 
L 213.561406 175.062804 
L 213.569639 183.183949 
L 213.817571 183.183949 
L 213.997647 175.062804 
L 214.178387 183.183949 
L 214.335802 183.183949 
L 214.443418 191.305093 
L 215.196492 191.305093 
L 215.268848 183.183949 
L 215.479609 175.062804 
L 215.692528 158.820514 
L 215.79591 166.941659 
L 216.043873 166.941659 
L 216.084554 175.062804 
L 216.574587 175.062804 
L 216.789238 183.183949 
L 217.247584 175.062804 
L 217.808249 150.699369 
L 217.866706 150.699369 
L 217.876697 158.820514 
L 217.992952 158.820514 
L 218.202946 175.062804 
L 218.328439 166.941659 
L 218.447748 183.183949 
L 218.487055 183.183949 
L 218.594988 175.062804 
L 218.713505 175.062804 
L 218.734934 183.183949 
L 218.993539 191.305093 
L 225.050157 191.305093 
L 225.349854 183.183949 
L 225.54465 183.183949 
L 225.574509 175.062804 
L 225.700028 175.062804 
L 225.73024 166.941659 
L 225.94792 175.062804 
L 226.251761 166.941659 
L 226.791535 166.941659 
L 226.95348 191.305093 
L 227.531804 191.305093 
L 227.565556 183.183949 
L 228.071031 183.183949 
L 229.382892 191.305093 
L 234.78658 191.305093 
L 234.921408 183.183949 
L 234.956522 191.305093 
L 247.798793 191.305093 
L 248.246196 183.183949 
L 248.343142 191.305093 
L 250.460717 191.305093 
L 251.097252 183.183949 
L 252.244012 183.183949 
L 253.073945 191.305093 
L 257.473057 191.305093 
L 257.526157 183.183949 
L 257.66028 191.305093 
L 275.500639 191.305093 
L 275.526825 183.183949 
L 275.641045 191.305093 
L 275.780049 191.305093 
L 275.868175 183.183949 
L 276.239586 183.183949 
L 276.507972 191.305093 
L 288.970036 191.305093 
L 289.135941 175.062804 
L 289.429122 166.941659 
L 289.549107 158.820514 
L 289.550704 166.941659 
L 289.630461 158.820514 
L 289.790052 158.820514 
L 289.798087 166.941659 
L 289.926948 175.062804 
L 290.860784 191.305093 
L 292.11547 191.305093 
L 292.423739 183.183949 
L 292.581516 183.183949 
L 292.666907 191.305093 
L 306.251306 191.305093 
L 306.493295 166.941659 
L 306.718323 191.305093 
L 306.85476 175.062804 
L 306.888563 183.183949 
L 306.976985 183.183949 
L 307.047906 175.062804 
L 307.251139 191.305093 
L 307.394895 175.062804 
L 307.502622 158.820514 
L 307.535644 166.941659 
L 307.572145 166.941659 
L 307.63705 158.820514 
L 307.818755 158.820514 
L 307.830832 150.699369 
L 307.896834 158.820514 
L 308.03125 158.820514 
L 308.112731 166.941659 
L 308.173938 158.820514 
L 308.188977 166.941659 
L 308.291899 166.941659 
L 308.379002 150.699369 
L 308.434332 158.820514 
L 308.532189 158.820514 
L 308.631251 150.699369 
L 308.667369 158.820514 
L 309.214367 191.305093 
L 309.429739 183.183949 
L 309.491411 183.183949 
L 309.869734 175.062804 
L 309.914501 166.941659 
L 309.940798 175.062804 
L 310.074317 183.183949 
L 310.166754 175.062804 
L 310.404145 175.062804 
L 310.554304 183.183949 
L 310.664812 175.062804 
L 310.777498 183.183949 
L 310.914615 158.820514 
L 311.110696 158.820514 
L 311.178054 142.578225 
L 311.281399 150.699369 
L 311.449331 158.820514 
L 311.504792 150.699369 
L 311.668327 158.820514 
L 311.721768 150.699369 
L 311.856105 142.578225 
L 311.914154 166.941659 
L 311.939812 158.820514 
L 312.238235 175.062804 
L 312.330621 166.941659 
L 312.422447 175.062804 
L 312.422447 175.062804 
" clip-path="url(#p8892c235fe)" style="fill: none; stroke: #000000; stroke-width: 1.5; stroke-linecap: square"/>
   </g>
   <g id="patch_8">
    <path d="M 44.103906 195.365666 
L 44.103906 106.033073 
" style="fill: none; stroke: #000000; stroke-width: 0.8; stroke-linejoin: miter; stroke-linecap: square"/>
   </g>
   <g id="patch_9">
    <path d="M 325.19952 195.365666 
L 325.19952 106.033073 
" style="fill: none; stroke: #000000; stroke-width: 0.8; stroke-linejoin: miter; stroke-linecap: square"/>
   </g>
   <g id="patch_10">
    <path d="M 44.103906 195.365666 
L 325.19952 195.365666 
" style="fill: none; stroke: #000000; stroke-width: 0.8; stroke-linejoin: miter; stroke-linecap: square"/>
   </g>
   <g id="patch_11">
    <path d="M 44.103906 106.033073 
L 325.19952 106.033073 
" style="fill: none; stroke: #000000; stroke-width: 0.8; stroke-linejoin: miter; stroke-linecap: square"/>
   </g>
  </g>
  <g id="axes_3">
   <g id="patch_12">
    <path d="M 44.103906 294.198739 
L 325.19952 294.198739 
L 325.19952 204.866146 
L 44.103906 204.866146 
z
" style="fill: #ffffff"/>
   </g>
   <g id="matplotlib.axis_5">
    <g id="xtick_19">
     <g id="line2d_27">
      <g>
       <use xlink:href="#ma2c8f79017" x="56.88098" y="294.198739" style="stroke: #000000; stroke-width: 0.8"/>
      </g>
     </g>
     <g id="text_9">
      <!-- 0 -->
      <g transform="translate(53.69973 308.796395) scale(0.1 -0.1)">
       <use xlink:href="#DejaVuSans-13"/>
      </g>
     </g>
    </g>
    <g id="xtick_20">
     <g id="line2d_28">
      <g>
       <use xlink:href="#ma2c8f79017" x="88.813548" y="294.198739" style="stroke: #000000; stroke-width: 0.8"/>
      </g>
     </g>
     <g id="text_10">
      <!-- 100 -->
      <g transform="translate(79.269798 308.796395) scale(0.1 -0.1)">
       <use xlink:href="#DejaVuSans-14"/>
       <use xlink:href="#DejaVuSans-13" transform="translate(63.625 0)"/>
       <use xlink:href="#DejaVuSans-13" transform="translate(127.25 0)"/>
      </g>
     </g>
    </g>
    <g id="xtick_21">
     <g id="line2d_29">
      <g>
       <use xlink:href="#ma2c8f79017" x="120.746116" y="294.198739" style="stroke: #000000; stroke-width: 0.8"/>
      </g>
     </g>
     <g id="text_11">
      <!-- 200 -->
      <g transform="translate(111.202366 308.796395) scale(0.1 -0.1)">
       <defs>
        <path id="DejaVuSans-15" d="M 1228 531 
L 3431 531 
L 3431 0 
L 469 0 
L 469 531 
Q 828 903 1448 1529 
Q 2069 2156 2228 2338 
Q 2531 2678 2651 2914 
Q 2772 3150 2772 3378 
Q 2772 3750 2511 3984 
Q 2250 4219 1831 4219 
Q 1534 4219 1204 4116 
Q 875 4013 500 3803 
L 500 4441 
Q 881 4594 1212 4672 
Q 1544 4750 1819 4750 
Q 2544 4750 2975 4387 
Q 3406 4025 3406 3419 
Q 3406 3131 3298 2873 
Q 3191 2616 2906 2266 
Q 2828 2175 2409 1742 
Q 1991 1309 1228 531 
z
" transform="scale(0.015625)"/>
       </defs>
       <use xlink:href="#DejaVuSans-15"/>
       <use xlink:href="#DejaVuSans-13" transform="translate(63.625 0)"/>
       <use xlink:href="#DejaVuSans-13" transform="translate(127.25 0)"/>
      </g>
     </g>
    </g>
    <g id="xtick_22">
     <g id="line2d_30">
      <g>
       <use xlink:href="#ma2c8f79017" x="152.678684" y="294.198739" style="stroke: #000000; stroke-width: 0.8"/>
      </g>
     </g>
     <g id="text_12">
      <!-- 300 -->
      <g transform="translate(143.134934 308.796395) scale(0.1 -0.1)">
       <defs>
        <path id="DejaVuSans-16" d="M 2597 2516 
Q 3050 2419 3304 2112 
Q 3559 1806 3559 1356 
Q 3559 666 3084 287 
Q 2609 -91 1734 -91 
Q 1441 -91 1130 -33 
Q 819 25 488 141 
L 488 750 
Q 750 597 1062 519 
Q 1375 441 1716 441 
Q 2309 441 2620 675 
Q 2931 909 2931 1356 
Q 2931 1769 2642 2001 
Q 2353 2234 1838 2234 
L 1294 2234 
L 1294 2753 
L 1863 2753 
Q 2328 2753 2575 2939 
Q 2822 3125 2822 3475 
Q 2822 3834 2567 4026 
Q 2313 4219 1838 4219 
Q 1578 4219 1281 4162 
Q 984 4106 628 3988 
L 628 4550 
Q 988 4650 1302 4700 
Q 1616 4750 1894 4750 
Q 2613 4750 3031 4423 
Q 3450 4097 3450 3541 
Q 3450 3153 3228 2886 
Q 3006 2619 2597 2516 
z
" transform="scale(0.015625)"/>
       </defs>
       <use xlink:href="#DejaVuSans-16"/>
       <use xlink:href="#DejaVuSans-13" transform="translate(63.625 0)"/>
       <use xlink:href="#DejaVuSans-13" transform="translate(127.25 0)"/>
      </g>
     </g>
    </g>
    <g id="xtick_23">
     <g id="line2d_31">
      <g>
       <use xlink:href="#ma2c8f79017" x="184.611253" y="294.198739" style="stroke: #000000; stroke-width: 0.8"/>
      </g>
     </g>
     <g id="text_13">
      <!-- 400 -->
      <g transform="translate(175.067503 308.796395) scale(0.1 -0.1)">
       <defs>
        <path id="DejaVuSans-17" d="M 2419 4116 
L 825 1625 
L 2419 1625 
L 2419 4116 
z
M 2253 4666 
L 3047 4666 
L 3047 1625 
L 3713 1625 
L 3713 1100 
L 3047 1100 
L 3047 0 
L 2419 0 
L 2419 1100 
L 313 1100 
L 313 1709 
L 2253 4666 
z
" transform="scale(0.015625)"/>
       </defs>
       <use xlink:href="#DejaVuSans-17"/>
       <use xlink:href="#DejaVuSans-13" transform="translate(63.625 0)"/>
       <use xlink:href="#DejaVuSans-13" transform="translate(127.25 0)"/>
      </g>
     </g>
    </g>
    <g id="xtick_24">
     <g id="line2d_32">
      <g>
       <use xlink:href="#ma2c8f79017" x="216.543821" y="294.198739" style="stroke: #000000; stroke-width: 0.8"/>
      </g>
     </g>
     <g id="text_14">
      <!-- 500 -->
      <g transform="translate(207.000071 308.796395) scale(0.1 -0.1)">
       <use xlink:href="#DejaVuSans-18"/>
       <use xlink:href="#DejaVuSans-13" transform="translate(63.625 0)"/>
       <use xlink:href="#DejaVuSans-13" transform="translate(127.25 0)"/>
      </g>
     </g>
    </g>
    <g id="xtick_25">
     <g id="line2d_33">
      <g>
       <use xlink:href="#ma2c8f79017" x="248.476389" y="294.198739" style="stroke: #000000; stroke-width: 0.8"/>
      </g>
     </g>
     <g id="text_15">
      <!-- 600 -->
      <g transform="translate(238.932639 308.796395) scale(0.1 -0.1)">
       <defs>
        <path id="DejaVuSans-19" d="M 2113 2584 
Q 1688 2584 1439 2293 
Q 1191 2003 1191 1497 
Q 1191 994 1439 701 
Q 1688 409 2113 409 
Q 2538 409 2786 701 
Q 3034 994 3034 1497 
Q 3034 2003 2786 2293 
Q 2538 2584 2113 2584 
z
M 3366 4563 
L 3366 3988 
Q 3128 4100 2886 4159 
Q 2644 4219 2406 4219 
Q 1781 4219 1451 3797 
Q 1122 3375 1075 2522 
Q 1259 2794 1537 2939 
Q 1816 3084 2150 3084 
Q 2853 3084 3261 2657 
Q 3669 2231 3669 1497 
Q 3669 778 3244 343 
Q 2819 -91 2113 -91 
Q 1303 -91 875 529 
Q 447 1150 447 2328 
Q 447 3434 972 4092 
Q 1497 4750 2381 4750 
Q 2619 4750 2861 4703 
Q 3103 4656 3366 4563 
z
" transform="scale(0.015625)"/>
       </defs>
       <use xlink:href="#DejaVuSans-19"/>
       <use xlink:href="#DejaVuSans-13" transform="translate(63.625 0)"/>
       <use xlink:href="#DejaVuSans-13" transform="translate(127.25 0)"/>
      </g>
     </g>
    </g>
    <g id="xtick_26">
     <g id="line2d_34">
      <g>
       <use xlink:href="#ma2c8f79017" x="280.408958" y="294.198739" style="stroke: #000000; stroke-width: 0.8"/>
      </g>
     </g>
     <g id="text_16">
      <!-- 700 -->
      <g transform="translate(270.865208 308.796395) scale(0.1 -0.1)">
       <defs>
        <path id="DejaVuSans-1a" d="M 525 4666 
L 3525 4666 
L 3525 4397 
L 1831 0 
L 1172 0 
L 2766 4134 
L 525 4134 
L 525 4666 
z
" transform="scale(0.015625)"/>
       </defs>
       <use xlink:href="#DejaVuSans-1a"/>
       <use xlink:href="#DejaVuSans-13" transform="translate(63.625 0)"/>
       <use xlink:href="#DejaVuSans-13" transform="translate(127.25 0)"/>
      </g>
     </g>
    </g>
    <g id="xtick_27">
     <g id="line2d_35">
      <g>
       <use xlink:href="#ma2c8f79017" x="312.341526" y="294.198739" style="stroke: #000000; stroke-width: 0.8"/>
      </g>
     </g>
     <g id="text_17">
      <!-- 800 -->
      <g transform="translate(302.797776 308.796395) scale(0.1 -0.1)">
       <defs>
        <path id="DejaVuSans-1b" d="M 2034 2216 
Q 1584 2216 1326 1975 
Q 1069 1734 1069 1313 
Q 1069 891 1326 650 
Q 1584 409 2034 409 
Q 2484 409 2743 651 
Q 3003 894 3003 1313 
Q 3003 1734 2745 1975 
Q 2488 2216 2034 2216 
z
M 1403 2484 
Q 997 2584 770 2862 
Q 544 3141 544 3541 
Q 544 4100 942 4425 
Q 1341 4750 2034 4750 
Q 2731 4750 3128 4425 
Q 3525 4100 3525 3541 
Q 3525 3141 3298 2862 
Q 3072 2584 2669 2484 
Q 3125 2378 3379 2068 
Q 3634 1759 3634 1313 
Q 3634 634 3220 271 
Q 2806 -91 2034 -91 
Q 1263 -91 848 271 
Q 434 634 434 1313 
Q 434 1759 690 2068 
Q 947 2378 1403 2484 
z
M 1172 3481 
Q 1172 3119 1398 2916 
Q 1625 2713 2034 2713 
Q 2441 2713 2670 2916 
Q 2900 3119 2900 3481 
Q 2900 3844 2670 4047 
Q 2441 4250 2034 4250 
Q 1625 4250 1398 4047 
Q 1172 3844 1172 3481 
z
" transform="scale(0.015625)"/>
       </defs>
       <use xlink:href="#DejaVuSans-1b"/>
       <use xlink:href="#DejaVuSans-13" transform="translate(63.625 0)"/>
       <use xlink:href="#DejaVuSans-13" transform="translate(127.25 0)"/>
      </g>
     </g>
    </g>
    <g id="text_18">
     <!-- Time -->
     <g transform="translate(172.415776 322.797176) scale(0.1 -0.1)">
      <defs>
       <path id="DejaVuSans-37" d="M -19 4666 
L 3928 4666 
L 3928 4134 
L 2272 4134 
L 2272 0 
L 1638 0 
L 1638 4134 
L -19 4134 
L -19 4666 
z
" transform="scale(0.015625)"/>
       <path id="DejaVuSans-4c" d="M 603 3500 
L 1178 3500 
L 1178 0 
L 603 0 
L 603 3500 
z
M 603 4863 
L 1178 4863 
L 1178 4134 
L 603 4134 
L 603 4863 
z
" transform="scale(0.015625)"/>
       <path id="DejaVuSans-50" d="M 3328 2828 
Q 3544 3216 3844 3400 
Q 4144 3584 4550 3584 
Q 5097 3584 5394 3201 
Q 5691 2819 5691 2113 
L 5691 0 
L 5113 0 
L 5113 2094 
Q 5113 2597 4934 2840 
Q 4756 3084 4391 3084 
Q 3944 3084 3684 2787 
Q 3425 2491 3425 1978 
L 3425 0 
L 2847 0 
L 2847 2094 
Q 2847 2600 2669 2842 
Q 2491 3084 2119 3084 
Q 1678 3084 1418 2786 
Q 1159 2488 1159 1978 
L 1159 0 
L 581 0 
L 581 3500 
L 1159 3500 
L 1159 2956 
Q 1356 3278 1631 3431 
Q 1906 3584 2284 3584 
Q 2666 3584 2933 3390 
Q 3200 3197 3328 2828 
z
" transform="scale(0.015625)"/>
      </defs>
      <use xlink:href="#DejaVuSans-37"/>
      <use xlink:href="#DejaVuSans-4c" transform="translate(58 0)"/>
      <use xlink:href="#DejaVuSans-50" transform="translate(85.78125 0)"/>
      <use xlink:href="#DejaVuSans-48" transform="translate(183.1875 0)"/>
     </g>
    </g>
   </g>
   <g id="matplotlib.axis_6">
    <g id="ytick_7">
     <g id="line2d_36">
      <g>
       <use xlink:href="#mab546e6d80" x="44.103906" y="290.138166" style="stroke: #000000; stroke-width: 0.8"/>
      </g>
     </g>
     <g id="text_19">
      <!-- 0.0 -->
      <g transform="translate(21.200781 293.936994) scale(0.1 -0.1)">
       <defs>
        <path id="DejaVuSans-11" d="M 684 794 
L 1344 794 
L 1344 0 
L 684 0 
L 684 794 
z
" transform="scale(0.015625)"/>
       </defs>
       <use xlink:href="#DejaVuSans-13"/>
       <use xlink:href="#DejaVuSans-11" transform="translate(63.625 0)"/>
       <use xlink:href="#DejaVuSans-13" transform="translate(95.40625 0)"/>
      </g>
     </g>
    </g>
    <g id="ytick_8">
     <g id="line2d_37">
      <g>
       <use xlink:href="#mab546e6d80" x="44.103906" y="249.532442" style="stroke: #000000; stroke-width: 0.8"/>
      </g>
     </g>
     <g id="text_20">
      <!-- 0.5 -->
      <g transform="translate(21.200781 253.33127) scale(0.1 -0.1)">
       <use xlink:href="#DejaVuSans-13"/>
       <use xlink:href="#DejaVuSans-11" transform="translate(63.625 0)"/>
       <use xlink:href="#DejaVuSans-18" transform="translate(95.40625 0)"/>
      </g>
     </g>
    </g>
    <g id="ytick_9">
     <g id="line2d_38">
      <g>
       <use xlink:href="#mab546e6d80" x="44.103906" y="208.926718" style="stroke: #000000; stroke-width: 0.8"/>
      </g>
     </g>
     <g id="text_21">
      <!-- 1.0 -->
      <g transform="translate(21.200781 212.725546) scale(0.1 -0.1)">
       <use xlink:href="#DejaVuSans-14"/>
       <use xlink:href="#DejaVuSans-11" transform="translate(63.625 0)"/>
       <use xlink:href="#DejaVuSans-13" transform="translate(95.40625 0)"/>
      </g>
     </g>
    </g>
    <g id="text_22">
     <!-- Free lac operon -->
     <g transform="translate(14.798438 288.006661) rotate(-90) scale(0.1 -0.1)">
      <defs>
       <path id="DejaVuSans-29" d="M 628 4666 
L 3309 4666 
L 3309 4134 
L 1259 4134 
L 1259 2759 
L 3109 2759 
L 3109 2228 
L 1259 2228 
L 1259 0 
L 628 0 
L 628 4666 
z
" transform="scale(0.015625)"/>
       <path id="DejaVuSans-53" d="M 1159 525 
L 1159 -1331 
L 581 -1331 
L 581 3500 
L 1159 3500 
L 1159 2969 
Q 1341 3281 1617 3432 
Q 1894 3584 2278 3584 
Q 2916 3584 3314 3078 
Q 3713 2572 3713 1747 
Q 3713 922 3314 415 
Q 2916 -91 2278 -91 
Q 1894 -91 1617 61 
Q 1341 213 1159 525 
z
M 3116 1747 
Q 3116 2381 2855 2742 
Q 2594 3103 2138 3103 
Q 1681 3103 1420 2742 
Q 1159 2381 1159 1747 
Q 1159 1113 1420 752 
Q 1681 391 2138 391 
Q 2594 391 2855 752 
Q 3116 1113 3116 1747 
z
" transform="scale(0.015625)"/>
       <path id="DejaVuSans-51" d="M 3513 2113 
L 3513 0 
L 2938 0 
L 2938 2094 
Q 2938 2591 2744 2837 
Q 2550 3084 2163 3084 
Q 1697 3084 1428 2787 
Q 1159 2491 1159 1978 
L 1159 0 
L 581 0 
L 581 3500 
L 1159 3500 
L 1159 2956 
Q 1366 3272 1645 3428 
Q 1925 3584 2291 3584 
Q 2894 3584 3203 3211 
Q 3513 2838 3513 2113 
z
" transform="scale(0.015625)"/>
      </defs>
      <use xlink:href="#DejaVuSans-29"/>
      <use xlink:href="#DejaVuSans-55" transform="translate(50.234375 0)"/>
      <use xlink:href="#DejaVuSans-48" transform="translate(89.140625 0)"/>
      <use xlink:href="#DejaVuSans-48" transform="translate(150.671875 0)"/>
      <use xlink:href="#DejaVuSans-3" transform="translate(212.203125 0)"/>
      <use xlink:href="#DejaVuSans-4f" transform="translate(243.984375 0)"/>
      <use xlink:href="#DejaVuSans-44" transform="translate(271.765625 0)"/>
      <use xlink:href="#DejaVuSans-46" transform="translate(333.046875 0)"/>
      <use xlink:href="#DejaVuSans-3" transform="translate(388.03125 0)"/>
      <use xlink:href="#DejaVuSans-52" transform="translate(419.8125 0)"/>
      <use xlink:href="#DejaVuSans-53" transform="translate(481 0)"/>
      <use xlink:href="#DejaVuSans-48" transform="translate(544.484375 0)"/>
      <use xlink:href="#DejaVuSans-55" transform="translate(606.015625 0)"/>
      <use xlink:href="#DejaVuSans-52" transform="translate(644.921875 0)"/>
      <use xlink:href="#DejaVuSans-51" transform="translate(706.109375 0)"/>
     </g>
    </g>
   </g>
   <g id="line2d_39">
    <path d="M 56.88098 208.926718 
L 56.962652 290.138166 
L 57.131265 290.138166 
L 57.301173 208.926718 
L 57.419568 208.926718 
L 57.521898 290.138166 
L 58.740528 290.138166 
L 59.732287 208.926718 
L 59.91899 208.926718 
L 59.941779 290.138166 
L 62.367912 290.138166 
L 64.967454 208.926718 
L 65.26292 208.926718 
L 65.400631 290.138166 
L 65.526747 290.138166 
L 72.202068 208.926718 
L 72.372186 290.138166 
L 80.226945 208.926718 
L 80.276077 290.138166 
L 82.907623 208.926718 
L 83.047884 208.926718 
L 83.102151 290.138166 
L 84.845849 290.138166 
L 84.911409 208.926718 
L 85.789392 208.926718 
L 85.979737 290.138166 
L 87.014572 290.138166 
L 90.01295 208.926718 
L 90.553997 208.926718 
L 90.583332 290.138166 
L 90.941931 290.138166 
L 91.825023 208.926718 
L 91.883582 290.138166 
L 92.228087 290.138166 
L 109.335851 208.926718 
L 109.349579 290.138166 
L 109.608541 290.138166 
L 109.8852 208.926718 
L 110.173107 290.138166 
L 110.301423 208.926718 
L 110.709956 208.926718 
L 110.914931 290.138166 
L 111.208134 290.138166 
L 115.378261 208.926718 
L 116.04015 290.138166 
L 117.685329 208.926718 
L 118.001163 290.138166 
L 118.674873 208.926718 
L 118.762365 290.138166 
L 119.773654 208.926718 
L 119.858726 290.138166 
L 123.809088 290.138166 
L 129.839434 208.926718 
L 129.945583 290.138166 
L 131.691184 208.926718 
L 132.142837 208.926718 
L 132.164319 290.138166 
L 134.008124 290.138166 
L 136.608723 208.926718 
L 136.622055 290.138166 
L 139.508615 208.926718 
L 139.551428 290.138166 
L 146.608175 208.926718 
L 147.554302 208.926718 
L 147.622745 290.138166 
L 148.240348 290.138166 
L 148.485848 208.926718 
L 148.801327 208.926718 
L 148.914289 290.138166 
L 149.986939 290.138166 
L 150.499344 208.926718 
L 150.600289 290.138166 
L 151.72352 290.138166 
L 151.734863 208.926718 
L 151.896707 290.138166 
L 156.213413 208.926718 
L 156.302516 290.138166 
L 156.552309 208.926718 
L 175.956314 208.926718 
L 176.049268 290.138166 
L 176.306897 290.138166 
L 176.380538 208.926718 
L 196.979333 208.926718 
L 197.013609 290.138166 
L 201.078834 290.138166 
L 201.450303 208.926718 
L 218.557904 208.926718 
L 218.594988 290.138166 
L 219.38015 290.138166 
L 225.050157 208.926718 
L 226.251761 208.926718 
L 226.530281 290.138166 
L 227.128993 290.138166 
L 227.565556 208.926718 
L 227.717143 290.138166 
L 229.984655 290.138166 
L 231.661544 208.926718 
L 231.71627 290.138166 
L 234.860258 208.926718 
L 234.956522 290.138166 
L 235.585053 290.138166 
L 239.57485 208.926718 
L 239.787553 290.138166 
L 240.107291 208.926718 
L 240.171916 290.138166 
L 247.798793 208.926718 
L 248.337192 208.926718 
L 248.343142 290.138166 
L 248.85762 290.138166 
L 250.460717 208.926718 
L 251.010569 208.926718 
L 251.097252 290.138166 
L 252.176841 290.138166 
L 252.23865 208.926718 
L 252.244012 290.138166 
L 253.073945 290.138166 
L 257.526157 208.926718 
L 257.621169 208.926718 
L 257.66028 290.138166 
L 258.848099 290.138166 
L 275.526825 208.926718 
L 275.634059 208.926718 
L 275.641045 290.138166 
L 275.868175 208.926718 
L 276.239586 290.138166 
L 276.507972 290.138166 
L 282.478575 208.926718 
L 282.49965 290.138166 
L 289.031345 208.926718 
L 289.679936 208.926718 
L 289.798087 290.138166 
L 290.860784 290.138166 
L 292.11547 208.926718 
L 292.327097 208.926718 
L 292.423739 290.138166 
L 292.590224 208.926718 
L 292.666907 290.138166 
L 293.292875 208.926718 
L 293.613207 290.138166 
L 299.721532 208.926718 
L 299.962914 290.138166 
L 304.422557 208.926718 
L 304.443077 290.138166 
L 306.324664 208.926718 
L 312.422447 208.926718 
L 312.422447 208.926718 
" clip-path="url(#pc9f2e9052f)" style="fill: none; stroke: #000000; stroke-width: 1.5; stroke-linecap: square"/>
   </g>
   <g id="patch_13">
    <path d="M 44.103906 294.198739 
L 44.103906 204.866146 
" style="fill: none; stroke: #000000; stroke-width: 0.8; stroke-linejoin: miter; stroke-linecap: square"/>
   </g>
   <g id="patch_14">
    <path d="M 325.19952 294.198739 
L 325.19952 204.866146 
" style="fill: none; stroke: #000000; stroke-width: 0.8; stroke-linejoin: miter; stroke-linecap: square"/>
   </g>
   <g id="patch_15">
    <path d="M 44.103906 294.198739 
L 325.19952 294.198739 
" style="fill: none; stroke: #000000; stroke-width: 0.8; stroke-linejoin: miter; stroke-linecap: square"/>
   </g>
   <g id="patch_16">
    <path d="M 44.103906 204.866146 
L 325.19952 204.866146 
" style="fill: none; stroke: #000000; stroke-width: 0.8; stroke-linejoin: miter; stroke-linecap: square"/>
   </g>
  </g>
 </g>
 <defs>
  <clipPath id="paa4f878c77">
   <rect x="44.103906" y="7.2" width="281.095614" height="89.332593"/>
  </clipPath>
  <clipPath id="p8892c235fe">
   <rect x="44.103906" y="106.033073" width="281.095614" height="89.332593"/>
  </clipPath>
  <clipPath id="pc9f2e9052f">
   <rect x="44.103906" y="204.866146" width="281.095614" height="89.332593"/>
  </clipPath>
 </defs>
</svg>
