<?xml version="1.0" encoding="utf-8" standalone="no"?>
<!DOCTYPE svg PUBLIC "-//W3C//DTD SVG 1.1//EN"
  "http://www.w3.org/Graphics/SVG/1.1/DTD/svg11.dtd">
<svg xmlns:xlink="http://www.w3.org/1999/xlink" width="332.39952pt" height="332.39952pt" viewBox="0 0 332.39952 332.39952" xmlns="http://www.w3.org/2000/svg" version="1.1">
 <metadata>
  <rdf:RDF xmlns:dc="http://purl.org/dc/elements/1.1/" xmlns:cc="http://creativecommons.org/ns#" xmlns:rdf="http://www.w3.org/1999/02/22-rdf-syntax-ns#">
   <cc:Work>
    <dc:type rdf:resource="http://purl.org/dc/dcmitype/StillImage"/>
    <dc:date>2026-06-18T15:51:35.858160</dc:date>
    <dc:format>image/svg+xml</dc:format>
    <dc:creator>
     <cc:Agent>
      <dc:title>Matplotlib v3.11.0, https://matplotlib.org/</dc:title>
     </cc:Agent>
    </dc:creator>
   </cc:Work>
  </rdf:RDF>
 </metadata>
 <defs>
  <style type="text/css">*{stroke-linejoin: round; stroke-linecap: butt}</style>
 </defs>
 <g id="figure_1">
  <g id="patch_1">
   <path d="M 0 332.39952 
L 332.39952 332.39952 
L 332.39952 0 
L 0 0 
z
" style="fill: #ffffff"/>
  </g>
  <g id="axes_1">
   <g id="patch_2">
    <path d="M 44.103906 96.532593 
L 325.19952 96.532593 
L 325.19952 7.2 
L 44.103906 7.2 
z
" style="fill: #ffffff"/>
   </g>
   <g id="matplotlib.axis_1">
    <g id="xtick_1">
     <g id="line2d_1">
      <defs>
       <path id="m8dd57679a0" d="M 0 0 
L 0 3.5 
" style="stroke: #000000; stroke-width: 0.8"/>
      </defs>
      <g>
       <use xlink:href="#m8dd57679a0" x="56.88098" y="96.532593" style="stroke: #000000; stroke-width: 0.8"/>
      </g>
     </g>
    </g>
    <g id="xtick_2">
     <g id="line2d_2">
      <g>
       <use xlink:href="#m8dd57679a0" x="88.419654" y="96.532593" style="stroke: #000000; stroke-width: 0.8"/>
      </g>
     </g>
    </g>
    <g id="xtick_3">
     <g id="line2d_3">
      <g>
       <use xlink:href="#m8dd57679a0" x="119.958329" y="96.532593" style="stroke: #000000; stroke-width: 0.8"/>
      </g>
     </g>
    </g>
    <g id="xtick_4">
     <g id="line2d_4">
      <g>
       <use xlink:href="#m8dd57679a0" x="151.497004" y="96.532593" style="stroke: #000000; stroke-width: 0.8"/>
      </g>
     </g>
    </g>
    <g id="xtick_5">
     <g id="line2d_5">
      <g>
       <use xlink:href="#m8dd57679a0" x="183.035678" y="96.532593" style="stroke: #000000; stroke-width: 0.8"/>
      </g>
     </g>
    </g>
    <g id="xtick_6">
     <g id="line2d_6">
      <g>
       <use xlink:href="#m8dd57679a0" x="214.574353" y="96.532593" style="stroke: #000000; stroke-width: 0.8"/>
      </g>
     </g>
    </g>
    <g id="xtick_7">
     <g id="line2d_7">
      <g>
       <use xlink:href="#m8dd57679a0" x="246.113028" y="96.532593" style="stroke: #000000; stroke-width: 0.8"/>
      </g>
     </g>
    </g>
    <g id="xtick_8">
     <g id="line2d_8">
      <g>
       <use xlink:href="#m8dd57679a0" x="277.651703" y="96.532593" style="stroke: #000000; stroke-width: 0.8"/>
      </g>
     </g>
    </g>
    <g id="xtick_9">
     <g id="line2d_9">
      <g>
       <use xlink:href="#m8dd57679a0" x="309.190377" y="96.532593" style="stroke: #000000; stroke-width: 0.8"/>
      </g>
     </g>
    </g>
   </g>
   <g id="matplotlib.axis_2">
    <g id="ytick_1">
     <g id="line2d_10">
      <defs>
       <path id="ma653edf1ed" d="M 0 0 
L -3.5 0 
" style="stroke: #000000; stroke-width: 0.8"/>
      </defs>
      <g>
       <use xlink:href="#ma653edf1ed" x="44.103906" y="92.472021" style="stroke: #000000; stroke-width: 0.8"/>
      </g>
     </g>
     <g id="text_1">
      <!-- 0 -->
      <g transform="translate(30.741406 96.270849) scale(0.1 -0.1)">
       <defs>
        <path id="DejaVuSans-13" d="M 2034 4250 
Q 1547 4250 1301 3770 
Q 1056 3291 1056 2328 
Q 1056 1369 1301 889 
Q 1547 409 2034 409 
Q 2525 409 2770 889 
Q 3016 1369 3016 2328 
Q 3016 3291 2770 3770 
Q 2525 4250 2034 4250 
z
M 2034 4750 
Q 2819 4750 3233 4129 
Q 3647 3509 3647 2328 
Q 3647 1150 3233 529 
Q 2819 -91 2034 -91 
Q 1250 -91 836 529 
Q 422 1150 422 2328 
Q 422 3509 836 4129 
Q 1250 4750 2034 4750 
z
" transform="scale(0.015625)"/>
       </defs>
       <use xlink:href="#DejaVuSans-13"/>
      </g>
     </g>
    </g>
    <g id="ytick_2">
     <g id="line2d_11">
      <g>
       <use xlink:href="#ma653edf1ed" x="44.103906" y="51.866296" style="stroke: #000000; stroke-width: 0.8"/>
      </g>
     </g>
     <g id="text_2">
      <!-- 5 -->
      <g transform="translate(30.741406 55.665125) scale(0.1 -0.1)">
       <defs>
        <path id="DejaVuSans-18" d="M 691 4666 
L 3169 4666 
L 3169 4134 
L 1269 4134 
L 1269 2991 
Q 1406 3038 1543 3061 
Q 1681 3084 1819 3084 
Q 2600 3084 3056 2656 
Q 3513 2228 3513 1497 
Q 3513 744 3044 326 
Q 2575 -91 1722 -91 
Q 1428 -91 1123 -41 
Q 819 9 494 109 
L 494 744 
Q 775 591 1075 516 
Q 1375 441 1709 441 
Q 2250 441 2565 725 
Q 2881 1009 2881 1497 
Q 2881 1984 2565 2268 
Q 2250 2553 1709 2553 
Q 1456 2553 1204 2497 
Q 953 2441 691 2322 
L 691 4666 
z
" transform="scale(0.015625)"/>
       </defs>
       <use xlink:href="#DejaVuSans-18"/>
      </g>
     </g>
    </g>
    <g id="ytick_3">
     <g id="line2d_12">
      <g>
       <use xlink:href="#ma653edf1ed" x="44.103906" y="11.260572" style="stroke: #000000; stroke-width: 0.8"/>
      </g>
     </g>
     <g id="text_3">
      <!-- 10 -->
      <g transform="translate(24.378906 15.059401) scale(0.1 -0.1)">
       <defs>
        <path id="DejaVuSans-14" d="M 794 531 
L 1825 531 
L 1825 4091 
L 703 3866 
L 703 4441 
L 1819 4666 
L 2450 4666 
L 2450 531 
L 3481 531 
L 3481 0 
L 794 0 
L 794 531 
z
" transform="scale(0.015625)"/>
       </defs>
       <use xlink:href="#DejaVuSans-14"/>
       <use xlink:href="#DejaVuSans-13" transform="translate(63.625 0)"/>
      </g>
     </g>
    </g>
    <g id="text_4">
     <!-- Extracellular lactose -->
     <g transform="translate(17.976563 102.838171) rotate(-90) scale(0.1 -0.1)">
      <defs>
       <path id="DejaVuSans-28" d="M 628 4666 
L 3578 4666 
L 3578 4134 
L 1259 4134 
L 1259 2753 
L 3481 2753 
L 3481 2222 
L 1259 2222 
L 1259 531 
L 3634 531 
L 3634 0 
L 628 0 
L 628 4666 
z
" transform="scale(0.015625)"/>
       <path id="DejaVuSans-5b" d="M 3513 3500 
L 2247 1797 
L 3578 0 
L 2900 0 
L 1881 1375 
L 863 0 
L 184 0 
L 1544 1831 
L 300 3500 
L 978 3500 
L 1906 2253 
L 2834 3500 
L 3513 3500 
z
" transform="scale(0.015625)"/>
       <path id="DejaVuSans-57" d="M 1172 4494 
L 1172 3500 
L 2356 3500 
L 2356 3053 
L 1172 3053 
L 1172 1153 
Q 1172 725 1289 603 
Q 1406 481 1766 481 
L 2356 481 
L 2356 0 
L 1766 0 
Q 1100 0 847 248 
Q 594 497 594 1153 
L 594 3053 
L 172 3053 
L 172 3500 
L 594 3500 
L 594 4494 
L 1172 4494 
z
" transform="scale(0.015625)"/>
       <path id="DejaVuSans-55" d="M 2631 2963 
Q 2534 3019 2420 3045 
Q 2306 3072 2169 3072 
Q 1681 3072 1420 2755 
Q 1159 2438 1159 1844 
L 1159 0 
L 581 0 
L 581 3500 
L 1159 3500 
L 1159 2956 
Q 1341 3275 1631 3429 
Q 1922 3584 2338 3584 
Q 2397 3584 2469 3576 
Q 2541 3569 2628 3553 
L 2631 2963 
z
" transform="scale(0.015625)"/>
       <path id="DejaVuSans-44" d="M 2194 1759 
Q 1497 1759 1228 1600 
Q 959 1441 959 1056 
Q 959 750 1161 570 
Q 1363 391 1709 391 
Q 2188 391 2477 730 
Q 2766 1069 2766 1631 
L 2766 1759 
L 2194 1759 
z
M 3341 1997 
L 3341 0 
L 2766 0 
L 2766 531 
Q 2569 213 2275 61 
Q 1981 -91 1556 -91 
Q 1019 -91 701 211 
Q 384 513 384 1019 
Q 384 1609 779 1909 
Q 1175 2209 1959 2209 
L 2766 2209 
L 2766 2266 
Q 2766 2663 2505 2880 
Q 2244 3097 1772 3097 
Q 1472 3097 1187 3025 
Q 903 2953 641 2809 
L 641 3341 
Q 956 3463 1253 3523 
Q 1550 3584 1831 3584 
Q 2591 3584 2966 3190 
Q 3341 2797 3341 1997 
z
" transform="scale(0.015625)"/>
       <path id="DejaVuSans-46" d="M 3122 3366 
L 3122 2828 
Q 2878 2963 2633 3030 
Q 2388 3097 2138 3097 
Q 1578 3097 1268 2742 
Q 959 2388 959 1747 
Q 959 1106 1268 751 
Q 1578 397 2138 397 
Q 2388 397 2633 464 
Q 2878 531 3122 666 
L 3122 134 
Q 2881 22 2623 -34 
Q 2366 -91 2075 -91 
Q 1284 -91 818 406 
Q 353 903 353 1747 
Q 353 2603 823 3093 
Q 1294 3584 2113 3584 
Q 2378 3584 2631 3529 
Q 2884 3475 3122 3366 
z
" transform="scale(0.015625)"/>
       <path id="DejaVuSans-48" d="M 3597 1894 
L 3597 1613 
L 953 1613 
Q 991 1019 1311 708 
Q 1631 397 2203 397 
Q 2534 397 2845 478 
Q 3156 559 3463 722 
L 3463 178 
Q 3153 47 2828 -22 
Q 2503 -91 2169 -91 
Q 1331 -91 842 396 
Q 353 884 353 1716 
Q 353 2575 817 3079 
Q 1281 3584 2069 3584 
Q 2775 3584 3186 3129 
Q 3597 2675 3597 1894 
z
M 3022 2063 
Q 3016 2534 2758 2815 
Q 2500 3097 2075 3097 
Q 1594 3097 1305 2825 
Q 1016 2553 972 2059 
L 3022 2063 
z
" transform="scale(0.015625)"/>
       <path id="DejaVuSans-4f" d="M 603 4863 
L 1178 4863 
L 1178 0 
L 603 0 
L 603 4863 
z
" transform="scale(0.015625)"/>
       <path id="DejaVuSans-58" d="M 544 1381 
L 544 3500 
L 1119 3500 
L 1119 1403 
Q 1119 906 1312 657 
Q 1506 409 1894 409 
Q 2359 409 2629 706 
Q 2900 1003 2900 1516 
L 2900 3500 
L 3475 3500 
L 3475 0 
L 2900 0 
L 2900 538 
Q 2691 219 2414 64 
Q 2138 -91 1772 -91 
Q 1169 -91 856 284 
Q 544 659 544 1381 
z
M 1991 3584 
L 1991 3584 
z
" transform="scale(0.015625)"/>
       <path id="DejaVuSans-3" transform="scale(0.015625)"/>
       <path id="DejaVuSans-52" d="M 1959 3097 
Q 1497 3097 1228 2736 
Q 959 2375 959 1747 
Q 959 1119 1226 758 
Q 1494 397 1959 397 
Q 2419 397 2687 759 
Q 2956 1122 2956 1747 
Q 2956 2369 2687 2733 
Q 2419 3097 1959 3097 
z
M 1959 3584 
Q 2709 3584 3137 3096 
Q 3566 2609 3566 1747 
Q 3566 888 3137 398 
Q 2709 -91 1959 -91 
Q 1206 -91 779 398 
Q 353 888 353 1747 
Q 353 2609 779 3096 
Q 1206 3584 1959 3584 
z
" transform="scale(0.015625)"/>
       <path id="DejaVuSans-56" d="M 2834 3397 
L 2834 2853 
Q 2591 2978 2328 3040 
Q 2066 3103 1784 3103 
Q 1356 3103 1142 2972 
Q 928 2841 928 2578 
Q 928 2378 1081 2264 
Q 1234 2150 1697 2047 
L 1894 2003 
Q 2506 1872 2764 1633 
Q 3022 1394 3022 966 
Q 3022 478 2636 193 
Q 2250 -91 1575 -91 
Q 1294 -91 989 -36 
Q 684 19 347 128 
L 347 722 
Q 666 556 975 473 
Q 1284 391 1588 391 
Q 1994 391 2212 530 
Q 2431 669 2431 922 
Q 2431 1156 2273 1281 
Q 2116 1406 1581 1522 
L 1381 1569 
Q 847 1681 609 1914 
Q 372 2147 372 2553 
Q 372 3047 722 3315 
Q 1072 3584 1716 3584 
Q 2034 3584 2315 3537 
Q 2597 3491 2834 3397 
z
" transform="scale(0.015625)"/>
      </defs>
      <use xlink:href="#DejaVuSans-28"/>
      <use xlink:href="#DejaVuSans-5b" transform="translate(63.1875 0)"/>
      <use xlink:href="#DejaVuSans-57" transform="translate(122.375 0)"/>
      <use xlink:href="#DejaVuSans-55" transform="translate(161.578125 0)"/>
      <use xlink:href="#DejaVuSans-44" transform="translate(202.6875 0)"/>
      <use xlink:href="#DejaVuSans-46" transform="translate(263.96875 0)"/>
      <use xlink:href="#DejaVuSans-48" transform="translate(318.953125 0)"/>
      <use xlink:href="#DejaVuSans-4f" transform="translate(380.484375 0)"/>
      <use xlink:href="#DejaVuSans-4f" transform="translate(408.265625 0)"/>
      <use xlink:href="#DejaVuSans-58" transform="translate(436.046875 0)"/>
      <use xlink:href="#DejaVuSans-4f" transform="translate(499.421875 0)"/>
      <use xlink:href="#DejaVuSans-44" transform="translate(527.203125 0)"/>
      <use xlink:href="#DejaVuSans-55" transform="translate(588.484375 0)"/>
      <use xlink:href="#DejaVuSans-3" transform="translate(629.59375 0)"/>
      <use xlink:href="#DejaVuSans-4f" transform="translate(661.375 0)"/>
      <use xlink:href="#DejaVuSans-44" transform="translate(689.15625 0)"/>
      <use xlink:href="#DejaVuSans-46" transform="translate(750.4375 0)"/>
      <use xlink:href="#DejaVuSans-57" transform="translate(805.421875 0)"/>
      <use xlink:href="#DejaVuSans-52" transform="translate(844.625 0)"/>
      <use xlink:href="#DejaVuSans-56" transform="translate(905.8125 0)"/>
      <use xlink:href="#DejaVuSans-48" transform="translate(957.90625 0)"/>
     </g>
    </g>
   </g>
   <g id="line2d_13">
    <path d="M 56.88098 92.472021 
L 154.988131 92.472021 
L 155.076135 11.260572 
L 155.735922 11.341784 
L 155.852165 11.66663 
L 155.896429 11.747841 
L 156.040828 13.209647 
L 156.15926 14.833876 
L 156.30562 16.620528 
L 156.336386 16.701739 
L 156.839709 20.193832 
L 157.113534 20.599889 
L 157.172099 20.6811 
L 157.279935 20.762312 
L 157.724997 20.843523 
L 157.820668 21.249581 
L 158.058509 21.655638 
L 158.157737 22.061695 
L 158.276819 22.142906 
L 158.378302 22.630175 
L 158.407928 22.711387 
L 158.515559 23.604713 
L 158.611595 24.498038 
L 158.946516 25.878633 
L 158.991937 25.959845 
L 159.246931 27.421651 
L 159.36614 28.477399 
L 159.379733 28.558611 
L 159.693319 31.157377 
L 160.226214 33.431298 
L 160.352478 34.080989 
L 160.454687 34.162201 
L 160.657793 35.136738 
L 160.722112 35.21795 
L 160.918085 35.948853 
L 161.483396 36.030064 
L 161.625676 36.517333 
L 161.649143 36.598544 
L 161.816063 37.004601 
L 162.025456 37.085813 
L 162.168219 37.654293 
L 162.31439 37.979139 
L 162.337358 38.06035 
L 162.452192 38.303985 
L 162.530108 38.385196 
L 163.220745 40.659117 
L 163.349541 41.227597 
L 163.471826 41.308808 
L 163.61748 41.552443 
L 163.710094 41.633654 
L 163.845931 41.796077 
L 163.896657 41.877288 
L 164.144246 42.689403 
L 164.161351 42.770614 
L 164.332143 43.014249 
L 164.51852 43.09546 
L 164.636034 43.582729 
L 164.655371 43.66394 
L 164.768955 43.907575 
L 164.848166 43.988786 
L 164.963112 44.394843 
L 165.174432 44.719689 
L 165.246955 44.8009 
L 165.506624 46.343918 
L 165.608599 46.425129 
L 165.978856 47.56209 
L 166.120899 48.13057 
L 166.316043 48.455416 
L 166.423951 48.536627 
L 166.527681 48.617839 
L 166.654712 48.69905 
L 166.75836 48.942684 
L 166.78616 49.023896 
L 166.889427 49.673587 
L 167.285757 50.323279 
L 167.392919 50.40449 
L 167.503935 50.485702 
L 168.148248 50.566913 
L 168.213979 50.729336 
L 168.354886 50.810548 
L 168.466977 50.891759 
L 168.729685 50.972971 
L 168.876595 51.216605 
L 169.037602 51.297816 
L 169.223386 51.703874 
L 169.322944 52.353565 
L 169.430412 52.434777 
L 169.535341 52.678411 
L 169.655183 52.759622 
L 169.874354 53.246891 
L 169.990709 53.652948 
L 170.05496 53.73416 
L 170.162926 54.059006 
L 170.213101 54.140217 
L 170.385842 54.87112 
L 170.733924 56.657772 
L 170.853236 58.282001 
L 170.872412 58.363212 
L 171.086783 60.393499 
L 171.094367 60.47471 
L 171.242169 61.04319 
L 171.402842 61.449247 
L 171.443391 61.530459 
L 171.614152 62.017727 
L 171.698719 62.667419 
L 171.778561 62.748631 
L 171.863958 62.829842 
L 171.968058 62.992265 
L 173.238276 63.073476 
L 173.444379 63.479534 
L 173.587227 63.804379 
L 173.755236 63.885591 
L 173.913431 64.372859 
L 173.938586 64.454071 
L 174.03605 65.022551 
L 174.112878 65.103762 
L 174.356552 66.240723 
L 174.418177 66.321934 
L 174.530459 66.890414 
L 174.594784 66.971626 
L 174.77919 67.78374 
L 175.047389 67.864952 
L 175.158705 68.027375 
L 175.671437 69.407969 
L 175.705894 69.489181 
L 176.024528 70.950987 
L 176.057113 71.032198 
L 176.185446 71.844313 
L 176.200004 71.925524 
L 176.402886 73.062484 
L 176.417242 73.143696 
L 176.61929 74.037022 
L 176.759069 74.118233 
L 176.939434 74.361868 
L 177.036536 74.52429 
L 177.143284 74.605502 
L 177.656868 75.498828 
L 177.825638 75.580039 
L 178.006718 75.823674 
L 178.181286 75.904885 
L 178.332528 76.067308 
L 179.048888 76.148519 
L 179.162417 76.310942 
L 179.199852 76.392154 
L 179.301044 76.473365 
L 179.324655 76.554577 
L 179.438306 76.635788 
L 180.649873 76.717 
L 180.927814 77.28548 
L 181.100195 77.691537 
L 181.174732 77.772748 
L 181.348333 77.85396 
L 181.541708 78.42244 
L 181.59705 78.503651 
L 181.736229 78.828497 
L 182.138203 79.5594 
L 182.286001 79.965458 
L 182.40323 80.046669 
L 182.536927 80.209092 
L 184.450748 80.290303 
L 184.525159 80.452726 
L 184.645148 80.533938 
L 185.188188 80.858783 
L 185.285382 81.102418 
L 185.445701 81.346052 
L 185.559977 81.427264 
L 186.054609 82.239378 
L 186.226666 82.320589 
L 186.329402 82.564224 
L 186.454159 82.645435 
L 186.609492 82.726647 
L 189.383169 82.807858 
L 189.494103 82.970281 
L 190.100174 83.538761 
L 190.207769 83.701184 
L 190.606772 83.782396 
L 190.877783 83.863607 
L 191.310454 83.944818 
L 191.403737 84.107241 
L 191.598945 84.188453 
L 191.891208 84.269664 
L 192.047535 84.350876 
L 192.201456 84.59451 
L 192.470267 84.675721 
L 192.583171 84.838144 
L 192.999045 84.919356 
L 193.055128 85.000567 
L 193.938521 85.081779 
L 194.059787 85.244202 
L 195.463996 85.325413 
L 196.29791 85.650259 
L 196.813365 85.73147 
L 196.979112 85.893893 
L 197.986175 85.975105 
L 198.072751 86.056316 
L 198.581746 86.137528 
L 198.808626 86.218739 
L 199.300095 86.29995 
L 199.457764 86.462373 
L 199.969778 86.543585 
L 199.975353 86.624796 
L 201.051103 87.112065 
L 201.604574 87.193276 
L 201.784066 87.436911 
L 202.360803 87.518122 
L 202.525851 87.680545 
L 202.597785 87.761757 
L 202.813154 87.842968 
L 202.999363 88.086602 
L 203.265492 88.167814 
L 203.357949 88.330237 
L 204.140864 88.411448 
L 204.3141 88.49266 
L 205.109426 88.573871 
L 205.404643 88.655082 
L 206.104146 88.736294 
L 206.12423 88.817505 
L 208.095947 88.898717 
L 208.348595 89.06114 
L 209.216226 89.142351 
L 209.739509 89.223563 
L 211.035668 89.304774 
L 211.172394 89.385985 
L 212.091414 89.467197 
L 212.291752 89.548408 
L 213.874326 89.62962 
L 214.403245 89.792043 
L 214.527204 89.873254 
L 215.675154 89.954466 
L 215.837956 90.116889 
L 217.049787 90.1981 
L 217.359699 90.360523 
L 219.878572 90.441734 
L 220.128656 90.522946 
L 221.547222 90.604157 
L 222.443428 90.685369 
L 224.173432 90.76658 
L 224.26039 90.847792 
L 224.391264 90.929003 
L 224.515092 91.010214 
L 225.25224 91.091426 
L 225.64144 91.172637 
L 226.705234 91.253849 
L 228.057519 91.33506 
L 249.872938 91.416272 
L 250.173152 91.497483 
L 267.210421 91.578695 
L 267.41075 91.659906 
L 270.656019 91.741117 
L 270.761487 91.822329 
L 312.422447 91.90354 
L 312.422447 91.90354 
" clip-path="url(#p9c3a60ab9d)" style="fill: none; stroke: #000000; stroke-width: 1.5; stroke-linecap: square"/>
   </g>
   <g id="patch_3">
    <path d="M 44.103906 96.532593 
L 44.103906 7.2 
" style="fill: none; stroke: #000000; stroke-width: 0.8; stroke-linejoin: miter; stroke-linecap: square"/>
   </g>
   <g id="patch_4">
    <path d="M 325.19952 96.532593 
L 325.19952 7.2 
" style="fill: none; stroke: #000000; stroke-width: 0.8; stroke-linejoin: miter; stroke-linecap: square"/>
   </g>
   <g id="patch_5">
    <path d="M 44.103906 96.532593 
L 325.19952 96.532593 
" style="fill: none; stroke: #000000; stroke-width: 0.8; stroke-linejoin: miter; stroke-linecap: square"/>
   </g>
   <g id="patch_6">
    <path d="M 44.103906 7.2 
L 325.19952 7.2 
" style="fill: none; stroke: #000000; stroke-width: 0.8; stroke-linejoin: miter; stroke-linecap: square"/>
   </g>
  </g>
  <g id="axes_2">
   <g id="patch_7">
    <path d="M 44.103906 195.365666 
L 325.19952 195.365666 
L 325.19952 106.033073 
L 44.103906 106.033073 
z
" style="fill: #ffffff"/>
   </g>
   <g id="matplotlib.axis_3">
    <g id="xtick_10">
     <g id="line2d_14">
      <g>
       <use xlink:href="#m8dd57679a0" x="56.88098" y="195.365666" style="stroke: #000000; stroke-width: 0.8"/>
      </g>
     </g>
    </g>
    <g id="xtick_11">
     <g id="line2d_15">
      <g>
       <use xlink:href="#m8dd57679a0" x="88.419654" y="195.365666" style="stroke: #000000; stroke-width: 0.8"/>
      </g>
     </g>
    </g>
    <g id="xtick_12">
     <g id="line2d_16">
      <g>
       <use xlink:href="#m8dd57679a0" x="119.958329" y="195.365666" style="stroke: #000000; stroke-width: 0.8"/>
      </g>
     </g>
    </g>
    <g id="xtick_13">
     <g id="line2d_17">
      <g>
       <use xlink:href="#m8dd57679a0" x="151.497004" y="195.365666" style="stroke: #000000; stroke-width: 0.8"/>
      </g>
     </g>
    </g>
    <g id="xtick_14">
     <g id="line2d_18">
      <g>
       <use xlink:href="#m8dd57679a0" x="183.035678" y="195.365666" style="stroke: #000000; stroke-width: 0.8"/>
      </g>
     </g>
    </g>
    <g id="xtick_15">
     <g id="line2d_19">
      <g>
       <use xlink:href="#m8dd57679a0" x="214.574353" y="195.365666" style="stroke: #000000; stroke-width: 0.8"/>
      </g>
     </g>
    </g>
    <g id="xtick_16">
     <g id="line2d_20">
      <g>
       <use xlink:href="#m8dd57679a0" x="246.113028" y="195.365666" style="stroke: #000000; stroke-width: 0.8"/>
      </g>
     </g>
    </g>
    <g id="xtick_17">
     <g id="line2d_21">
      <g>
       <use xlink:href="#m8dd57679a0" x="277.651703" y="195.365666" style="stroke: #000000; stroke-width: 0.8"/>
      </g>
     </g>
    </g>
    <g id="xtick_18">
     <g id="line2d_22">
      <g>
       <use xlink:href="#m8dd57679a0" x="309.190377" y="195.365666" style="stroke: #000000; stroke-width: 0.8"/>
      </g>
     </g>
    </g>
   </g>
   <g id="matplotlib.axis_4">
    <g id="ytick_4">
     <g id="line2d_23">
      <g>
       <use xlink:href="#ma653edf1ed" x="44.103906" y="191.305093" style="stroke: #000000; stroke-width: 0.8"/>
      </g>
     </g>
     <g id="text_5">
      <!-- 0 -->
      <g transform="translate(30.741406 195.103922) scale(0.1 -0.1)">
       <use xlink:href="#DejaVuSans-13"/>
      </g>
     </g>
    </g>
    <g id="ytick_5">
     <g id="line2d_24">
      <g>
       <use xlink:href="#ma653edf1ed" x="44.103906" y="150.699369" style="stroke: #000000; stroke-width: 0.8"/>
      </g>
     </g>
     <g id="text_6">
      <!-- 5 -->
      <g transform="translate(30.741406 154.498197) scale(0.1 -0.1)">
       <use xlink:href="#DejaVuSans-18"/>
      </g>
     </g>
    </g>
    <g id="ytick_6">
     <g id="line2d_25">
      <g>
       <use xlink:href="#ma653edf1ed" x="44.103906" y="110.093645" style="stroke: #000000; stroke-width: 0.8"/>
      </g>
     </g>
     <g id="text_7">
      <!-- 10 -->
      <g transform="translate(24.378906 113.892473) scale(0.1 -0.1)">
       <use xlink:href="#DejaVuSans-14"/>
       <use xlink:href="#DejaVuSans-13" transform="translate(63.625 0)"/>
      </g>
     </g>
    </g>
    <g id="text_8">
     <!-- LacY -->
     <g transform="translate(17.976563 162.352494) rotate(-90) scale(0.1 -0.1)">
      <defs>
       <path id="DejaVuSans-2f" d="M 628 4666 
L 1259 4666 
L 1259 531 
L 3531 531 
L 3531 0 
L 628 0 
L 628 4666 
z
" transform="scale(0.015625)"/>
       <path id="DejaVuSans-3c" d="M -13 4666 
L 666 4666 
L 1959 2747 
L 3244 4666 
L 3922 4666 
L 2272 2222 
L 2272 0 
L 1638 0 
L 1638 2222 
L -13 4666 
z
" transform="scale(0.015625)"/>
      </defs>
      <use xlink:href="#DejaVuSans-2f"/>
      <use xlink:href="#DejaVuSans-44" transform="translate(55.71875 0)"/>
      <use xlink:href="#DejaVuSans-46" transform="translate(117 0)"/>
      <use xlink:href="#DejaVuSans-3c" transform="translate(171.984375 0)"/>
     </g>
    </g>
   </g>
   <g id="line2d_26">
    <path d="M 56.88098 110.093645 
L 56.907789 110.093645 
L 57.038838 126.335935 
L 57.128177 142.578225 
L 57.278501 142.578225 
L 57.29599 134.45708 
L 57.513992 142.578225 
L 57.654194 142.578225 
L 57.822843 158.820514 
L 58.120216 175.062804 
L 58.185066 191.305093 
L 59.697116 191.305093 
L 59.861783 183.183949 
L 59.904023 191.305093 
L 64.867706 191.305093 
L 65.186875 183.183949 
L 65.295539 191.305093 
L 82.58658 191.305093 
L 82.778708 183.183949 
L 84.550997 191.305093 
L 84.565649 183.183949 
L 84.707176 175.062804 
L 84.711777 166.941659 
L 85.030161 175.062804 
L 85.254464 175.062804 
L 85.372695 191.305093 
L 85.432802 183.183949 
L 85.620799 183.183949 
L 85.757661 191.305093 
L 89.604261 191.305093 
L 89.989491 175.062804 
L 89.990777 166.941659 
L 90.483568 166.941659 
L 90.521783 183.183949 
L 91.284875 183.183949 
L 91.451819 175.062804 
L 91.792075 191.305093 
L 108.597912 191.305093 
L 108.70237 183.183949 
L 108.820674 183.183949 
L 108.958137 191.305093 
L 109.190385 191.305093 
L 109.231384 183.183949 
L 109.642472 183.183949 
L 109.988302 175.062804 
L 110.045966 183.183949 
L 110.219181 183.183949 
L 110.248414 191.305093 
L 118.905545 191.305093 
L 119.081885 183.183949 
L 121.157615 183.183949 
L 122.983519 191.305093 
L 130.660868 191.305093 
L 130.844961 183.183949 
L 131.129167 183.183949 
L 131.235686 191.305093 
L 135.520904 191.305093 
L 135.603657 183.183949 
L 135.625268 191.305093 
L 145.501376 191.305093 
L 145.759178 175.062804 
L 145.779767 183.183949 
L 145.808436 175.062804 
L 145.920229 166.941659 
L 145.925507 175.062804 
L 146.50343 175.062804 
L 147.113414 183.183949 
L 147.355886 183.183949 
L 147.667475 175.062804 
L 147.779042 175.062804 
L 148.838461 191.305093 
L 149.293269 191.305093 
L 149.344546 175.062804 
L 149.444245 175.062804 
L 149.595296 183.183949 
L 149.727457 183.183949 
L 150.264038 191.305093 
L 155.322846 191.305093 
L 155.74614 183.183949 
L 155.983633 150.699369 
L 156.261991 150.699369 
L 156.3807 166.941659 
L 156.429987 166.941659 
L 156.529712 158.820514 
L 156.615677 158.820514 
L 156.724205 175.062804 
L 156.752077 175.062804 
L 156.839709 183.183949 
L 157.187388 183.183949 
L 157.279935 191.305093 
L 157.674972 191.305093 
L 157.792518 183.183949 
L 157.939398 183.183949 
L 158.042295 175.062804 
L 158.186577 175.062804 
L 158.241412 183.183949 
L 158.295272 175.062804 
L 158.400254 175.062804 
L 158.511575 166.941659 
L 158.661503 166.941659 
L 158.784967 183.183949 
L 158.917609 183.183949 
L 159.039257 175.062804 
L 159.186626 175.062804 
L 159.313122 158.820514 
L 159.488195 158.820514 
L 159.556132 150.699369 
L 159.598164 158.820514 
L 159.681235 158.820514 
L 159.731203 150.699369 
L 159.783202 158.820514 
L 159.949914 158.820514 
L 160.057752 175.062804 
L 160.086364 175.062804 
L 160.116536 183.183949 
L 160.124819 166.941659 
L 160.192037 166.941659 
L 160.424405 166.941659 
L 160.535166 175.062804 
L 160.819149 175.062804 
L 160.918085 183.183949 
L 161.016793 183.183949 
L 161.126237 191.305093 
L 161.39617 191.305093 
L 161.543266 183.183949 
L 161.665387 183.183949 
L 161.779279 175.062804 
L 161.816063 175.062804 
L 161.923941 183.183949 
L 162.16467 183.183949 
L 162.217075 175.062804 
L 162.269628 183.183949 
L 162.503008 183.183949 
L 162.604151 175.062804 
L 162.620565 183.183949 
L 162.649709 166.941659 
L 162.704659 175.062804 
L 162.955243 175.062804 
L 163.007126 183.183949 
L 163.066259 175.062804 
L 163.1717 175.062804 
L 163.225929 166.941659 
L 163.268457 175.062804 
L 163.351212 175.062804 
L 163.381269 183.183949 
L 163.428813 175.062804 
L 163.664122 175.062804 
L 163.727146 183.183949 
L 163.918746 183.183949 
L 163.920625 191.305093 
L 164.02425 183.183949 
L 164.545653 183.183949 
L 164.655371 175.062804 
L 164.933939 175.062804 
L 165.070116 183.183949 
L 165.174432 183.183949 
L 165.381011 166.941659 
L 165.475156 166.941659 
L 165.570328 175.062804 
L 166.147609 175.062804 
L 166.273567 183.183949 
L 166.753581 183.183949 
L 166.861782 175.062804 
L 166.946245 175.062804 
L 167.045947 183.183949 
L 167.447497 183.183949 
L 167.503935 191.305093 
L 167.626763 191.305093 
L 167.71086 183.183949 
L 167.731563 191.305093 
L 167.857525 191.305093 
L 167.929408 183.183949 
L 168.455554 183.183949 
L 168.466977 191.305093 
L 168.705536 183.183949 
L 168.756372 183.183949 
L 168.876595 191.305093 
L 168.971951 191.305093 
L 169.170025 175.062804 
L 169.617368 175.062804 
L 169.710538 183.183949 
L 169.725693 175.062804 
L 170.205674 175.062804 
L 170.326641 158.820514 
L 170.566764 158.820514 
L 170.737921 134.45708 
L 170.894534 134.45708 
L 170.980284 126.335935 
L 171.00292 134.45708 
L 171.077483 134.45708 
L 171.188335 150.699369 
L 171.216759 150.699369 
L 171.355716 166.941659 
L 171.396402 166.941659 
L 171.504694 158.820514 
L 171.517892 158.820514 
L 171.569292 166.941659 
L 171.614152 158.820514 
L 171.665507 158.820514 
L 171.774319 166.941659 
L 171.871551 175.062804 
L 171.897782 175.062804 
L 171.968058 191.305093 
L 172.305641 191.305093 
L 172.422849 183.183949 
L 172.502058 183.183949 
L 172.609352 191.305093 
L 173.196374 191.305093 
L 173.31873 183.183949 
L 173.331706 183.183949 
L 173.444379 175.062804 
L 173.664943 175.062804 
L 173.768222 166.941659 
L 174.008534 166.941659 
L 174.112878 158.820514 
L 174.756797 158.820514 
L 174.865699 175.062804 
L 175.070751 175.062804 
L 175.185127 166.941659 
L 175.271072 166.941659 
L 175.337971 175.062804 
L 175.364102 166.941659 
L 175.47872 166.941659 
L 175.482493 175.062804 
L 175.58057 166.941659 
L 175.590022 166.941659 
L 175.683451 158.820514 
L 175.699349 166.941659 
L 175.759783 166.941659 
L 175.883882 142.578225 
L 175.936824 142.578225 
L 176.053983 150.699369 
L 176.161316 142.578225 
L 176.224172 142.578225 
L 176.256757 134.45708 
L 176.329515 142.578225 
L 176.480287 142.578225 
L 176.582818 166.941659 
L 176.625734 166.941659 
L 176.684642 158.820514 
L 176.718395 166.941659 
L 176.926216 166.941659 
L 177.036536 175.062804 
L 177.471133 175.062804 
L 177.554448 191.305093 
L 177.557718 183.183949 
L 177.876768 183.183949 
L 177.985832 175.062804 
L 178.006718 175.062804 
L 178.097602 166.941659 
L 178.243269 183.183949 
L 178.390635 175.062804 
L 178.488112 175.062804 
L 178.582512 191.305093 
L 178.974751 191.305093 
L 179.095897 175.062804 
L 179.230871 166.941659 
L 179.333127 175.062804 
L 179.385004 175.062804 
L 179.500942 191.305093 
L 180.052959 191.305093 
L 180.160486 183.183949 
L 180.269923 191.305093 
L 180.546589 175.062804 
L 180.591732 183.183949 
L 180.649873 175.062804 
L 180.99073 175.062804 
L 181.118084 166.941659 
L 181.127871 166.941659 
L 181.233279 150.699369 
L 181.434546 150.699369 
L 181.541708 142.578225 
L 181.694726 142.578225 
L 181.81444 150.699369 
L 181.903315 150.699369 
L 182.002721 166.941659 
L 182.214091 166.941659 
L 182.286001 158.820514 
L 182.353095 158.820514 
L 182.49698 175.062804 
L 182.50535 166.941659 
L 182.539093 183.183949 
L 182.575481 183.183949 
L 182.970814 183.183949 
L 183.019476 191.305093 
L 183.024532 183.183949 
L 183.171947 183.183949 
L 183.331674 191.305093 
L 184.351672 191.305093 
L 184.428566 166.941659 
L 184.482915 175.062804 
L 184.857522 175.062804 
L 185.069645 150.699369 
L 185.315198 150.699369 
L 185.536754 166.941659 
L 185.851667 166.941659 
L 185.994731 158.820514 
L 186.111828 158.820514 
L 186.257829 166.941659 
L 186.262907 158.820514 
L 186.329402 175.062804 
L 186.499105 175.062804 
L 186.609492 183.183949 
L 186.837372 183.183949 
L 186.869894 191.305093 
L 186.995124 191.305093 
L 187.108172 175.062804 
L 187.325017 175.062804 
L 187.344074 183.183949 
L 187.472407 191.305093 
L 187.54302 175.062804 
L 187.549234 183.183949 
L 187.700873 191.305093 
L 188.764166 191.305093 
L 189.299472 183.183949 
L 189.413044 175.062804 
L 189.494103 183.183949 
L 189.603091 183.183949 
L 189.696848 158.820514 
L 189.857793 158.820514 
L 189.901015 166.941659 
L 190.424046 166.941659 
L 190.505516 183.183949 
L 190.606772 175.062804 
L 190.723219 175.062804 
L 190.762443 183.183949 
L 191.14588 183.183949 
L 191.240706 175.062804 
L 191.356148 158.820514 
L 191.399324 166.941659 
L 191.493343 175.062804 
L 191.519589 175.062804 
L 191.597403 166.941659 
L 191.598945 175.062804 
L 191.745993 175.062804 
L 191.774269 183.183949 
L 191.832579 175.062804 
L 192.047535 158.820514 
L 192.07408 158.820514 
L 192.137077 175.062804 
L 192.201456 175.062804 
L 192.410078 158.820514 
L 192.568429 158.820514 
L 192.637078 175.062804 
L 192.780467 175.062804 
L 192.79146 166.941659 
L 192.83672 175.062804 
L 192.995099 175.062804 
L 193.055128 183.183949 
L 193.258912 183.183949 
L 193.380684 191.305093 
L 193.548584 183.183949 
L 194.724341 183.183949 
L 194.85031 175.062804 
L 194.955141 183.183949 
L 195.193824 183.183949 
L 195.199804 191.305093 
L 195.287576 183.183949 
L 195.463996 175.062804 
L 195.641436 175.062804 
L 195.721434 183.183949 
L 195.783372 183.183949 
L 195.928078 166.941659 
L 195.966252 166.941659 
L 196.11379 175.062804 
L 196.212337 175.062804 
L 196.236524 166.941659 
L 196.29791 175.062804 
L 196.623258 183.183949 
L 196.748608 166.941659 
L 196.979112 166.941659 
L 197.129831 183.183949 
L 197.564937 183.183949 
L 197.604552 191.305093 
L 197.779616 191.305093 
L 198.072751 183.183949 
L 198.37952 183.183949 
L 198.581746 175.062804 
L 198.731763 175.062804 
L 198.808626 166.941659 
L 198.999409 175.062804 
L 199.015112 183.183949 
L 199.324745 175.062804 
L 199.457764 175.062804 
L 199.583777 183.183949 
L 199.610266 175.062804 
L 199.612274 183.183949 
L 199.714706 183.183949 
L 199.881416 166.941659 
L 199.916302 175.062804 
L 199.975353 166.941659 
L 200.121547 166.941659 
L 200.150078 158.820514 
L 200.223885 166.941659 
L 200.357674 166.941659 
L 200.451648 175.062804 
L 200.564398 175.062804 
L 200.633656 166.941659 
L 200.788321 175.062804 
L 200.814974 175.062804 
L 200.95894 166.941659 
L 200.967742 166.941659 
L 201.109256 183.183949 
L 201.313882 183.183949 
L 201.44143 175.062804 
L 201.565787 191.305093 
L 201.604574 183.183949 
L 201.635659 183.183949 
L 201.765905 175.062804 
L 201.846745 191.305093 
L 201.926925 191.305093 
L 201.945457 175.062804 
L 202.282012 175.062804 
L 202.360803 166.941659 
L 202.532898 166.941659 
L 202.597785 150.699369 
L 202.783849 150.699369 
L 202.858472 158.820514 
L 202.870587 150.699369 
L 203.016431 150.699369 
L 203.102569 166.941659 
L 203.154915 158.820514 
L 203.205491 166.941659 
L 203.311808 175.062804 
L 203.416273 183.183949 
L 203.4905 183.183949 
L 203.511714 175.062804 
L 203.614596 183.183949 
L 203.874595 183.183949 
L 203.876937 191.305093 
L 204.140864 183.183949 
L 204.231024 183.183949 
L 204.374032 191.305093 
L 204.500668 191.305093 
L 205.109426 183.183949 
L 205.321464 183.183949 
L 205.404643 158.820514 
L 205.443948 166.941659 
L 205.555193 166.941659 
L 205.609198 158.820514 
L 205.661581 166.941659 
L 205.726683 166.941659 
L 205.758583 175.062804 
L 205.901228 158.820514 
L 205.924564 166.941659 
L 206.011993 166.941659 
L 206.12423 175.062804 
L 206.334627 175.062804 
L 206.387022 166.941659 
L 206.528525 175.062804 
L 206.629048 175.062804 
L 206.630308 183.183949 
L 206.818 183.183949 
L 206.953727 175.062804 
L 207.143453 175.062804 
L 207.260768 183.183949 
L 207.393508 183.183949 
L 207.443641 175.062804 
L 207.466679 183.183949 
L 207.518343 183.183949 
L 207.610424 175.062804 
L 207.619512 183.183949 
L 207.687634 183.183949 
L 207.700571 166.941659 
L 207.793124 175.062804 
L 208.008314 175.062804 
L 208.095947 166.941659 
L 208.160673 166.941659 
L 208.50801 191.305093 
L 208.665506 175.062804 
L 208.910491 175.062804 
L 209.020545 166.941659 
L 209.174637 175.062804 
L 209.216226 183.183949 
L 210.422548 183.183949 
L 210.532877 175.062804 
L 210.907519 166.941659 
L 211.057933 175.062804 
L 211.16367 166.941659 
L 211.274324 175.062804 
L 211.426622 183.183949 
L 211.638589 183.183949 
L 211.794206 191.305093 
L 211.918933 183.183949 
L 212.16921 183.183949 
L 212.291752 191.305093 
L 212.454291 175.062804 
L 212.633302 183.183949 
L 212.842639 175.062804 
L 212.867063 183.183949 
L 213.048346 183.183949 
L 213.091973 175.062804 
L 213.36061 175.062804 
L 213.388259 183.183949 
L 213.874326 175.062804 
L 214.427865 175.062804 
L 214.527204 191.305093 
L 214.613878 191.305093 
L 214.673488 183.183949 
L 214.975762 175.062804 
L 215.090789 175.062804 
L 215.598133 166.941659 
L 215.764496 158.820514 
L 215.916042 175.062804 
L 216.015051 183.183949 
L 216.168901 175.062804 
L 216.55177 175.062804 
L 216.632556 183.183949 
L 216.63784 175.062804 
L 216.742584 166.941659 
L 216.949862 175.062804 
L 217.049787 166.941659 
L 217.176357 166.941659 
L 217.295184 158.820514 
L 217.359699 175.062804 
L 217.530549 166.941659 
L 217.846857 166.941659 
L 218.070932 183.183949 
L 218.695378 183.183949 
L 218.78411 175.062804 
L 218.960353 175.062804 
L 219.220647 166.941659 
L 219.52025 166.941659 
L 219.593334 158.820514 
L 219.59848 166.941659 
L 219.684342 166.941659 
L 219.686615 175.062804 
L 219.878572 166.941659 
L 220.035304 166.941659 
L 220.128656 175.062804 
L 220.468746 175.062804 
L 220.53723 191.305093 
L 220.566735 183.183949 
L 220.697336 183.183949 
L 220.775389 175.062804 
L 220.810517 183.183949 
L 222.249306 183.183949 
L 222.443428 191.305093 
L 223.472684 191.305093 
L 223.819905 183.183949 
L 223.894937 175.062804 
L 223.938966 183.183949 
L 224.102143 175.062804 
L 224.341168 142.578225 
L 224.431062 158.820514 
L 224.496524 158.820514 
L 224.602095 175.062804 
L 225.64144 175.062804 
L 225.829436 183.183949 
L 226.069227 175.062804 
L 226.475719 175.062804 
L 226.705234 183.183949 
L 227.602209 183.183949 
L 228.057519 191.305093 
L 231.83859 191.305093 
L 231.97672 183.183949 
L 232.229884 183.183949 
L 233.886386 191.305093 
L 240.335265 191.305093 
L 240.476265 183.183949 
L 240.590294 191.305093 
L 240.764874 175.062804 
L 241.099772 183.183949 
L 241.60662 191.305093 
L 243.542812 191.305093 
L 243.84837 183.183949 
L 244.164434 183.183949 
L 244.927433 191.305093 
L 249.11091 191.305093 
L 249.462189 183.183949 
L 250.042621 183.183949 
L 250.173152 191.305093 
L 250.39685 183.183949 
L 250.407488 191.305093 
L 255.223971 191.305093 
L 255.662617 175.062804 
L 255.879622 175.062804 
L 256.591483 183.183949 
L 256.711144 191.305093 
L 258.182211 191.305093 
L 258.33426 175.062804 
L 258.687244 183.183949 
L 258.760004 183.183949 
L 258.942892 191.305093 
L 266.297477 191.305093 
L 266.299054 183.183949 
L 266.766146 183.183949 
L 267.029827 166.941659 
L 267.210421 175.062804 
L 267.278803 175.062804 
L 267.41075 183.183949 
L 267.51346 183.183949 
L 267.553686 175.062804 
L 267.722557 183.183949 
L 267.8865 183.183949 
L 268.153048 175.062804 
L 268.2947 158.820514 
L 268.336465 158.820514 
L 268.446375 150.699369 
L 268.448108 158.820514 
L 268.510197 150.699369 
L 268.593254 158.820514 
L 268.863722 150.699369 
L 268.925934 166.941659 
L 268.935335 158.820514 
L 269.011066 166.941659 
L 269.269444 166.941659 
L 269.587644 175.062804 
L 269.770334 175.062804 
L 269.84144 183.183949 
L 269.890195 175.062804 
L 270.1192 175.062804 
L 270.199501 166.941659 
L 270.231061 175.062804 
L 270.39983 166.941659 
L 270.543322 166.941659 
L 270.603809 158.820514 
L 270.689221 166.941659 
L 270.761487 158.820514 
L 270.841777 158.820514 
L 270.860561 175.062804 
L 271.027461 175.062804 
L 271.067999 183.183949 
L 271.406147 183.183949 
L 271.592539 191.305093 
L 273.056895 191.305093 
L 273.131936 183.183949 
L 273.368695 166.941659 
L 273.542536 166.941659 
L 273.646403 175.062804 
L 273.716274 175.062804 
L 273.778322 183.183949 
L 273.90897 183.183949 
L 274.135814 175.062804 
L 274.295204 183.183949 
L 274.437349 175.062804 
L 274.481033 183.183949 
L 274.717119 175.062804 
L 275.015061 183.183949 
L 275.165795 175.062804 
L 275.388181 183.183949 
L 275.60909 191.305093 
L 283.97936 191.305093 
L 284.023737 183.183949 
L 284.248328 175.062804 
L 284.419012 183.183949 
L 284.793003 183.183949 
L 284.993647 166.941659 
L 285.104555 191.305093 
L 286.159066 191.305093 
L 286.379027 183.183949 
L 286.543019 191.305093 
L 295.127168 191.305093 
L 295.649093 183.183949 
L 295.795318 166.941659 
L 295.826925 166.941659 
L 295.923166 175.062804 
L 296.31904 183.183949 
L 297.078088 183.183949 
L 297.732212 191.305093 
L 312.422447 191.305093 
L 312.422447 191.305093 
" clip-path="url(#p28d2602cc1)" style="fill: none; stroke: #000000; stroke-width: 1.5; stroke-linecap: square"/>
   </g>
   <g id="patch_8">
    <path d="M 44.103906 195.365666 
L 44.103906 106.033073 
" style="fill: none; stroke: #000000; stroke-width: 0.8; stroke-linejoin: miter; stroke-linecap: square"/>
   </g>
   <g id="patch_9">
    <path d="M 325.19952 195.365666 
L 325.19952 106.033073 
" style="fill: none; stroke: #000000; stroke-width: 0.8; stroke-linejoin: miter; stroke-linecap: square"/>
   </g>
   <g id="patch_10">
    <path d="M 44.103906 195.365666 
L 325.19952 195.365666 
" style="fill: none; stroke: #000000; stroke-width: 0.8; stroke-linejoin: miter; stroke-linecap: square"/>
   </g>
   <g id="patch_11">
    <path d="M 44.103906 106.033073 
L 325.19952 106.033073 
" style="fill: none; stroke: #000000; stroke-width: 0.8; stroke-linejoin: miter; stroke-linecap: square"/>
   </g>
  </g>
  <g id="axes_3">
   <g id="patch_12">
    <path d="M 44.103906 294.198739 
L 325.19952 294.198739 
L 325.19952 204.866146 
L 44.103906 204.866146 
z
" style="fill: #ffffff"/>
   </g>
   <g id="matplotlib.axis_5">
    <g id="xtick_19">
     <g id="line2d_27">
      <g>
       <use xlink:href="#m8dd57679a0" x="56.88098" y="294.198739" style="stroke: #000000; stroke-width: 0.8"/>
      </g>
     </g>
     <g id="text_9">
      <!-- 0 -->
      <g transform="translate(53.69973 308.796395) scale(0.1 -0.1)">
       <use xlink:href="#DejaVuSans-13"/>
      </g>
     </g>
    </g>
    <g id="xtick_20">
     <g id="line2d_28">
      <g>
       <use xlink:href="#m8dd57679a0" x="88.419654" y="294.198739" style="stroke: #000000; stroke-width: 0.8"/>
      </g>
     </g>
     <g id="text_10">
      <!-- 100 -->
      <g transform="translate(78.875904 308.796395) scale(0.1 -0.1)">
       <use xlink:href="#DejaVuSans-14"/>
       <use xlink:href="#DejaVuSans-13" transform="translate(63.625 0)"/>
       <use xlink:href="#DejaVuSans-13" transform="translate(127.25 0)"/>
      </g>
     </g>
    </g>
    <g id="xtick_21">
     <g id="line2d_29">
      <g>
       <use xlink:href="#m8dd57679a0" x="119.958329" y="294.198739" style="stroke: #000000; stroke-width: 0.8"/>
      </g>
     </g>
     <g id="text_11">
      <!-- 200 -->
      <g transform="translate(110.414579 308.796395) scale(0.1 -0.1)">
       <defs>
        <path id="DejaVuSans-15" d="M 1228 531 
L 3431 531 
L 3431 0 
L 469 0 
L 469 531 
Q 828 903 1448 1529 
Q 2069 2156 2228 2338 
Q 2531 2678 2651 2914 
Q 2772 3150 2772 3378 
Q 2772 3750 2511 3984 
Q 2250 4219 1831 4219 
Q 1534 4219 1204 4116 
Q 875 4013 500 3803 
L 500 4441 
Q 881 4594 1212 4672 
Q 1544 4750 1819 4750 
Q 2544 4750 2975 4387 
Q 3406 4025 3406 3419 
Q 3406 3131 3298 2873 
Q 3191 2616 2906 2266 
Q 2828 2175 2409 1742 
Q 1991 1309 1228 531 
z
" transform="scale(0.015625)"/>
       </defs>
       <use xlink:href="#DejaVuSans-15"/>
       <use xlink:href="#DejaVuSans-13" transform="translate(63.625 0)"/>
       <use xlink:href="#DejaVuSans-13" transform="translate(127.25 0)"/>
      </g>
     </g>
    </g>
    <g id="xtick_22">
     <g id="line2d_30">
      <g>
       <use xlink:href="#m8dd57679a0" x="151.497004" y="294.198739" style="stroke: #000000; stroke-width: 0.8"/>
      </g>
     </g>
     <g id="text_12">
      <!-- 300 -->
      <g transform="translate(141.953254 308.796395) scale(0.1 -0.1)">
       <defs>
        <path id="DejaVuSans-16" d="M 2597 2516 
Q 3050 2419 3304 2112 
Q 3559 1806 3559 1356 
Q 3559 666 3084 287 
Q 2609 -91 1734 -91 
Q 1441 -91 1130 -33 
Q 819 25 488 141 
L 488 750 
Q 750 597 1062 519 
Q 1375 441 1716 441 
Q 2309 441 2620 675 
Q 2931 909 2931 1356 
Q 2931 1769 2642 2001 
Q 2353 2234 1838 2234 
L 1294 2234 
L 1294 2753 
L 1863 2753 
Q 2328 2753 2575 2939 
Q 2822 3125 2822 3475 
Q 2822 3834 2567 4026 
Q 2313 4219 1838 4219 
Q 1578 4219 1281 4162 
Q 984 4106 628 3988 
L 628 4550 
Q 988 4650 1302 4700 
Q 1616 4750 1894 4750 
Q 2613 4750 3031 4423 
Q 3450 4097 3450 3541 
Q 3450 3153 3228 2886 
Q 3006 2619 2597 2516 
z
" transform="scale(0.015625)"/>
       </defs>
       <use xlink:href="#DejaVuSans-16"/>
       <use xlink:href="#DejaVuSans-13" transform="translate(63.625 0)"/>
       <use xlink:href="#DejaVuSans-13" transform="translate(127.25 0)"/>
      </g>
     </g>
    </g>
    <g id="xtick_23">
     <g id="line2d_31">
      <g>
       <use xlink:href="#m8dd57679a0" x="183.035678" y="294.198739" style="stroke: #000000; stroke-width: 0.8"/>
      </g>
     </g>
     <g id="text_13">
      <!-- 400 -->
      <g transform="translate(173.491928 308.796395) scale(0.1 -0.1)">
       <defs>
        <path id="DejaVuSans-17" d="M 2419 4116 
L 825 1625 
L 2419 1625 
L 2419 4116 
z
M 2253 4666 
L 3047 4666 
L 3047 1625 
L 3713 1625 
L 3713 1100 
L 3047 1100 
L 3047 0 
L 2419 0 
L 2419 1100 
L 313 1100 
L 313 1709 
L 2253 4666 
z
" transform="scale(0.015625)"/>
       </defs>
       <use xlink:href="#DejaVuSans-17"/>
       <use xlink:href="#DejaVuSans-13" transform="translate(63.625 0)"/>
       <use xlink:href="#DejaVuSans-13" transform="translate(127.25 0)"/>
      </g>
     </g>
    </g>
    <g id="xtick_24">
     <g id="line2d_32">
      <g>
       <use xlink:href="#m8dd57679a0" x="214.574353" y="294.198739" style="stroke: #000000; stroke-width: 0.8"/>
      </g>
     </g>
     <g id="text_14">
      <!-- 500 -->
      <g transform="translate(205.030603 308.796395) scale(0.1 -0.1)">
       <use xlink:href="#DejaVuSans-18"/>
       <use xlink:href="#DejaVuSans-13" transform="translate(63.625 0)"/>
       <use xlink:href="#DejaVuSans-13" transform="translate(127.25 0)"/>
      </g>
     </g>
    </g>
    <g id="xtick_25">
     <g id="line2d_33">
      <g>
       <use xlink:href="#m8dd57679a0" x="246.113028" y="294.198739" style="stroke: #000000; stroke-width: 0.8"/>
      </g>
     </g>
     <g id="text_15">
      <!-- 600 -->
      <g transform="translate(236.569278 308.796395) scale(0.1 -0.1)">
       <defs>
        <path id="DejaVuSans-19" d="M 2113 2584 
Q 1688 2584 1439 2293 
Q 1191 2003 1191 1497 
Q 1191 994 1439 701 
Q 1688 409 2113 409 
Q 2538 409 2786 701 
Q 3034 994 3034 1497 
Q 3034 2003 2786 2293 
Q 2538 2584 2113 2584 
z
M 3366 4563 
L 3366 3988 
Q 3128 4100 2886 4159 
Q 2644 4219 2406 4219 
Q 1781 4219 1451 3797 
Q 1122 3375 1075 2522 
Q 1259 2794 1537 2939 
Q 1816 3084 2150 3084 
Q 2853 3084 3261 2657 
Q 3669 2231 3669 1497 
Q 3669 778 3244 343 
Q 2819 -91 2113 -91 
Q 1303 -91 875 529 
Q 447 1150 447 2328 
Q 447 3434 972 4092 
Q 1497 4750 2381 4750 
Q 2619 4750 2861 4703 
Q 3103 4656 3366 4563 
z
" transform="scale(0.015625)"/>
       </defs>
       <use xlink:href="#DejaVuSans-19"/>
       <use xlink:href="#DejaVuSans-13" transform="translate(63.625 0)"/>
       <use xlink:href="#DejaVuSans-13" transform="translate(127.25 0)"/>
      </g>
     </g>
    </g>
    <g id="xtick_26">
     <g id="line2d_34">
      <g>
       <use xlink:href="#m8dd57679a0" x="277.651703" y="294.198739" style="stroke: #000000; stroke-width: 0.8"/>
      </g>
     </g>
     <g id="text_16">
      <!-- 700 -->
      <g transform="translate(268.107953 308.796395) scale(0.1 -0.1)">
       <defs>
        <path id="DejaVuSans-1a" d="M 525 4666 
L 3525 4666 
L 3525 4397 
L 1831 0 
L 1172 0 
L 2766 4134 
L 525 4134 
L 525 4666 
z
" transform="scale(0.015625)"/>
       </defs>
       <use xlink:href="#DejaVuSans-1a"/>
       <use xlink:href="#DejaVuSans-13" transform="translate(63.625 0)"/>
       <use xlink:href="#DejaVuSans-13" transform="translate(127.25 0)"/>
      </g>
     </g>
    </g>
    <g id="xtick_27">
     <g id="line2d_35">
      <g>
       <use xlink:href="#m8dd57679a0" x="309.190377" y="294.198739" style="stroke: #000000; stroke-width: 0.8"/>
      </g>
     </g>
     <g id="text_17">
      <!-- 800 -->
      <g transform="translate(299.646627 308.796395) scale(0.1 -0.1)">
       <defs>
        <path id="DejaVuSans-1b" d="M 2034 2216 
Q 1584 2216 1326 1975 
Q 1069 1734 1069 1313 
Q 1069 891 1326 650 
Q 1584 409 2034 409 
Q 2484 409 2743 651 
Q 3003 894 3003 1313 
Q 3003 1734 2745 1975 
Q 2488 2216 2034 2216 
z
M 1403 2484 
Q 997 2584 770 2862 
Q 544 3141 544 3541 
Q 544 4100 942 4425 
Q 1341 4750 2034 4750 
Q 2731 4750 3128 4425 
Q 3525 4100 3525 3541 
Q 3525 3141 3298 2862 
Q 3072 2584 2669 2484 
Q 3125 2378 3379 2068 
Q 3634 1759 3634 1313 
Q 3634 634 3220 271 
Q 2806 -91 2034 -91 
Q 1263 -91 848 271 
Q 434 634 434 1313 
Q 434 1759 690 2068 
Q 947 2378 1403 2484 
z
M 1172 3481 
Q 1172 3119 1398 2916 
Q 1625 2713 2034 2713 
Q 2441 2713 2670 2916 
Q 2900 3119 2900 3481 
Q 2900 3844 2670 4047 
Q 2441 4250 2034 4250 
Q 1625 4250 1398 4047 
Q 1172 3844 1172 3481 
z
" transform="scale(0.015625)"/>
       </defs>
       <use xlink:href="#DejaVuSans-1b"/>
       <use xlink:href="#DejaVuSans-13" transform="translate(63.625 0)"/>
       <use xlink:href="#DejaVuSans-13" transform="translate(127.25 0)"/>
      </g>
     </g>
    </g>
    <g id="text_18">
     <!-- Time -->
     <g transform="translate(172.415776 322.797176) scale(0.1 -0.1)">
      <defs>
       <path id="DejaVuSans-37" d="M -19 4666 
L 3928 4666 
L 3928 4134 
L 2272 4134 
L 2272 0 
L 1638 0 
L 1638 4134 
L -19 4134 
L -19 4666 
z
" transform="scale(0.015625)"/>
       <path id="DejaVuSans-4c" d="M 603 3500 
L 1178 3500 
L 1178 0 
L 603 0 
L 603 3500 
z
M 603 4863 
L 1178 4863 
L 1178 4134 
L 603 4134 
L 603 4863 
z
" transform="scale(0.015625)"/>
       <path id="DejaVuSans-50" d="M 3328 2828 
Q 3544 3216 3844 3400 
Q 4144 3584 4550 3584 
Q 5097 3584 5394 3201 
Q 5691 2819 5691 2113 
L 5691 0 
L 5113 0 
L 5113 2094 
Q 5113 2597 4934 2840 
Q 4756 3084 4391 3084 
Q 3944 3084 3684 2787 
Q 3425 2491 3425 1978 
L 3425 0 
L 2847 0 
L 2847 2094 
Q 2847 2600 2669 2842 
Q 2491 3084 2119 3084 
Q 1678 3084 1418 2786 
Q 1159 2488 1159 1978 
L 1159 0 
L 581 0 
L 581 3500 
L 1159 3500 
L 1159 2956 
Q 1356 3278 1631 3431 
Q 1906 3584 2284 3584 
Q 2666 3584 2933 3390 
Q 3200 3197 3328 2828 
z
" transform="scale(0.015625)"/>
      </defs>
      <use xlink:href="#DejaVuSans-37"/>
      <use xlink:href="#DejaVuSans-4c" transform="translate(58 0)"/>
      <use xlink:href="#DejaVuSans-50" transform="translate(85.78125 0)"/>
      <use xlink:href="#DejaVuSans-48" transform="translate(183.1875 0)"/>
     </g>
    </g>
   </g>
   <g id="matplotlib.axis_6">
    <g id="ytick_7">
     <g id="line2d_36">
      <g>
       <use xlink:href="#ma653edf1ed" x="44.103906" y="290.138166" style="stroke: #000000; stroke-width: 0.8"/>
      </g>
     </g>
     <g id="text_19">
      <!-- 0.0 -->
      <g transform="translate(21.200781 293.936994) scale(0.1 -0.1)">
       <defs>
        <path id="DejaVuSans-11" d="M 684 794 
L 1344 794 
L 1344 0 
L 684 0 
L 684 794 
z
" transform="scale(0.015625)"/>
       </defs>
       <use xlink:href="#DejaVuSans-13"/>
       <use xlink:href="#DejaVuSans-11" transform="translate(63.625 0)"/>
       <use xlink:href="#DejaVuSans-13" transform="translate(95.40625 0)"/>
      </g>
     </g>
    </g>
    <g id="ytick_8">
     <g id="line2d_37">
      <g>
       <use xlink:href="#ma653edf1ed" x="44.103906" y="249.532442" style="stroke: #000000; stroke-width: 0.8"/>
      </g>
     </g>
     <g id="text_20">
      <!-- 0.5 -->
      <g transform="translate(21.200781 253.33127) scale(0.1 -0.1)">
       <use xlink:href="#DejaVuSans-13"/>
       <use xlink:href="#DejaVuSans-11" transform="translate(63.625 0)"/>
       <use xlink:href="#DejaVuSans-18" transform="translate(95.40625 0)"/>
      </g>
     </g>
    </g>
    <g id="ytick_9">
     <g id="line2d_38">
      <g>
       <use xlink:href="#ma653edf1ed" x="44.103906" y="208.926718" style="stroke: #000000; stroke-width: 0.8"/>
      </g>
     </g>
     <g id="text_21">
      <!-- 1.0 -->
      <g transform="translate(21.200781 212.725546) scale(0.1 -0.1)">
       <use xlink:href="#DejaVuSans-14"/>
       <use xlink:href="#DejaVuSans-11" transform="translate(63.625 0)"/>
       <use xlink:href="#DejaVuSans-13" transform="translate(95.40625 0)"/>
      </g>
     </g>
    </g>
    <g id="text_22">
     <!-- Free lac operon -->
     <g transform="translate(14.798438 288.006661) rotate(-90) scale(0.1 -0.1)">
      <defs>
       <path id="DejaVuSans-29" d="M 628 4666 
L 3309 4666 
L 3309 4134 
L 1259 4134 
L 1259 2759 
L 3109 2759 
L 3109 2228 
L 1259 2228 
L 1259 0 
L 628 0 
L 628 4666 
z
" transform="scale(0.015625)"/>
       <path id="DejaVuSans-53" d="M 1159 525 
L 1159 -1331 
L 581 -1331 
L 581 3500 
L 1159 3500 
L 1159 2969 
Q 1341 3281 1617 3432 
Q 1894 3584 2278 3584 
Q 2916 3584 3314 3078 
Q 3713 2572 3713 1747 
Q 3713 922 3314 415 
Q 2916 -91 2278 -91 
Q 1894 -91 1617 61 
Q 1341 213 1159 525 
z
M 3116 1747 
Q 3116 2381 2855 2742 
Q 2594 3103 2138 3103 
Q 1681 3103 1420 2742 
Q 1159 2381 1159 1747 
Q 1159 1113 1420 752 
Q 1681 391 2138 391 
Q 2594 391 2855 752 
Q 3116 1113 3116 1747 
z
" transform="scale(0.015625)"/>
       <path id="DejaVuSans-51" d="M 3513 2113 
L 3513 0 
L 2938 0 
L 2938 2094 
Q 2938 2591 2744 2837 
Q 2550 3084 2163 3084 
Q 1697 3084 1428 2787 
Q 1159 2491 1159 1978 
L 1159 0 
L 581 0 
L 581 3500 
L 1159 3500 
L 1159 2956 
Q 1366 3272 1645 3428 
Q 1925 3584 2291 3584 
Q 2894 3584 3203 3211 
Q 3513 2838 3513 2113 
z
" transform="scale(0.015625)"/>
      </defs>
      <use xlink:href="#DejaVuSans-29"/>
      <use xlink:href="#DejaVuSans-55" transform="translate(50.234375 0)"/>
      <use xlink:href="#DejaVuSans-48" transform="translate(89.140625 0)"/>
      <use xlink:href="#DejaVuSans-48" transform="translate(150.671875 0)"/>
      <use xlink:href="#DejaVuSans-3" transform="translate(212.203125 0)"/>
      <use xlink:href="#DejaVuSans-4f" transform="translate(243.984375 0)"/>
      <use xlink:href="#DejaVuSans-44" transform="translate(271.765625 0)"/>
      <use xlink:href="#DejaVuSans-46" transform="translate(333.046875 0)"/>
      <use xlink:href="#DejaVuSans-3" transform="translate(388.03125 0)"/>
      <use xlink:href="#DejaVuSans-52" transform="translate(419.8125 0)"/>
      <use xlink:href="#DejaVuSans-53" transform="translate(481 0)"/>
      <use xlink:href="#DejaVuSans-48" transform="translate(544.484375 0)"/>
      <use xlink:href="#DejaVuSans-55" transform="translate(606.015625 0)"/>
      <use xlink:href="#DejaVuSans-52" transform="translate(644.921875 0)"/>
      <use xlink:href="#DejaVuSans-51" transform="translate(706.109375 0)"/>
     </g>
    </g>
   </g>
   <g id="line2d_39">
    <path d="M 56.88098 208.926718 
L 56.961644 290.138166 
L 57.128177 290.138166 
L 57.29599 208.926718 
L 57.412925 208.926718 
L 57.513992 290.138166 
L 58.71759 290.138166 
L 59.697116 208.926718 
L 59.881516 208.926718 
L 59.904023 290.138166 
L 62.30023 290.138166 
L 64.867706 208.926718 
L 65.159528 208.926718 
L 65.295539 290.138166 
L 65.4201 290.138166 
L 72.01308 208.926718 
L 72.181099 290.138166 
L 79.938969 208.926718 
L 79.987494 290.138166 
L 82.58658 208.926718 
L 82.725111 208.926718 
L 82.778708 290.138166 
L 84.500898 290.138166 
L 84.565649 208.926718 
L 85.432802 208.926718 
L 85.620799 290.138166 
L 86.64287 290.138166 
L 89.604261 208.926718 
L 90.138635 208.926718 
L 90.167608 290.138166 
L 90.521783 290.138166 
L 91.393983 208.926718 
L 91.451819 290.138166 
L 91.792075 290.138166 
L 108.688811 208.926718 
L 108.70237 290.138166 
L 108.958137 290.138166 
L 109.231384 208.926718 
L 109.51574 290.138166 
L 109.642472 208.926718 
L 110.045966 208.926718 
L 110.248414 290.138166 
L 110.538 290.138166 
L 114.656687 208.926718 
L 115.310412 290.138166 
L 116.935297 208.926718 
L 117.247235 290.138166 
L 117.912635 208.926718 
L 117.999047 290.138166 
L 118.997862 208.926718 
L 119.081885 290.138166 
L 122.983519 290.138166 
L 128.939479 208.926718 
L 129.044319 290.138166 
L 130.768387 208.926718 
L 131.21447 208.926718 
L 131.235686 290.138166 
L 133.056748 290.138166 
L 135.625268 208.926718 
L 135.638436 290.138166 
L 138.48939 208.926718 
L 138.531674 290.138166 
L 145.501376 208.926718 
L 146.435832 208.926718 
L 146.50343 290.138166 
L 147.113414 290.138166 
L 147.355886 208.926718 
L 147.667475 208.926718 
L 147.779042 290.138166 
L 148.838461 290.138166 
L 149.344546 208.926718 
L 149.444245 290.138166 
L 150.553622 290.138166 
L 150.564824 208.926718 
L 150.724672 290.138166 
L 154.988131 208.926718 
L 155.076135 290.138166 
L 155.322846 208.926718 
L 165.35686 208.926718 
L 165.465827 290.138166 
L 166.347719 290.138166 
L 166.435129 208.926718 
L 196.742129 208.926718 
L 196.841152 290.138166 
L 197.604552 290.138166 
L 197.779616 208.926718 
L 217.928759 208.926718 
L 217.973694 290.138166 
L 218.070932 290.138166 
L 218.78411 208.926718 
L 220.69999 208.926718 
L 220.810517 290.138166 
L 221.424849 208.926718 
L 221.547222 290.138166 
L 223.028802 290.138166 
L 223.472684 208.926718 
L 224.323544 208.926718 
L 224.431062 290.138166 
L 225.412489 290.138166 
L 225.482419 208.926718 
L 226.065831 208.926718 
L 226.069227 290.138166 
L 227.345683 290.138166 
L 227.586891 208.926718 
L 227.602209 290.138166 
L 229.063117 290.138166 
L 231.83859 208.926718 
L 231.97147 208.926718 
L 231.97672 290.138166 
L 233.886386 290.138166 
L 238.099634 208.926718 
L 238.22707 290.138166 
L 240.335265 208.926718 
L 240.739829 208.926718 
L 240.764874 290.138166 
L 241.60662 290.138166 
L 241.949452 208.926718 
L 241.985164 290.138166 
L 242.236376 290.138166 
L 243.542812 208.926718 
L 243.834248 208.926718 
L 243.84837 290.138166 
L 244.927433 290.138166 
L 249.11091 208.926718 
L 249.364515 208.926718 
L 249.462189 290.138166 
L 250.159335 290.138166 
L 250.173152 208.926718 
L 250.407488 208.926718 
L 250.573066 290.138166 
L 251.078311 208.926718 
L 251.110319 290.138166 
L 251.328991 290.138166 
L 251.479749 208.926718 
L 251.528835 290.138166 
L 255.223971 208.926718 
L 255.708057 208.926718 
L 255.717973 290.138166 
L 256.572702 290.138166 
L 256.591483 208.926718 
L 256.711144 208.926718 
L 257.092598 290.138166 
L 258.182211 208.926718 
L 258.303958 208.926718 
L 258.33426 290.138166 
L 258.942892 290.138166 
L 259.22386 208.926718 
L 259.445556 290.138166 
L 262.894659 208.926718 
L 263.115496 290.138166 
L 263.932368 208.926718 
L 264.016486 290.138166 
L 265.952581 208.926718 
L 266.202183 290.138166 
L 266.299054 208.926718 
L 266.687512 290.138166 
L 266.766146 208.926718 
L 270.761487 208.926718 
L 270.860561 290.138166 
L 271.592539 290.138166 
L 273.131936 208.926718 
L 275.303596 208.926718 
L 275.388181 290.138166 
L 276.115905 290.138166 
L 276.287235 208.926718 
L 276.320346 290.138166 
L 283.485017 208.926718 
L 283.918945 290.138166 
L 284.023737 208.926718 
L 284.373619 208.926718 
L 284.419012 290.138166 
L 284.843757 208.926718 
L 284.977226 208.926718 
L 285.104555 290.138166 
L 285.292437 290.138166 
L 285.300335 208.926718 
L 285.35229 290.138166 
L 285.752432 290.138166 
L 286.159066 208.926718 
L 286.448803 208.926718 
L 286.543019 290.138166 
L 288.191513 208.926718 
L 288.274049 290.138166 
L 295.127168 208.926718 
L 295.795318 208.926718 
L 295.923166 290.138166 
L 297.732212 290.138166 
L 303.309095 208.926718 
L 303.873397 290.138166 
L 312.422447 208.926718 
L 312.422447 208.926718 
" clip-path="url(#p1bdade67ef)" style="fill: none; stroke: #000000; stroke-width: 1.5; stroke-linecap: square"/>
   </g>
   <g id="patch_13">
    <path d="M 44.103906 294.198739 
L 44.103906 204.866146 
" style="fill: none; stroke: #000000; stroke-width: 0.8; stroke-linejoin: miter; stroke-linecap: square"/>
   </g>
   <g id="patch_14">
    <path d="M 325.19952 294.198739 
L 325.19952 204.866146 
" style="fill: none; stroke: #000000; stroke-width: 0.8; stroke-linejoin: miter; stroke-linecap: square"/>
   </g>
   <g id="patch_15">
    <path d="M 44.103906 294.198739 
L 325.19952 294.198739 
" style="fill: none; stroke: #000000; stroke-width: 0.8; stroke-linejoin: miter; stroke-linecap: square"/>
   </g>
   <g id="patch_16">
    <path d="M 44.103906 204.866146 
L 325.19952 204.866146 
" style="fill: none; stroke: #000000; stroke-width: 0.8; stroke-linejoin: miter; stroke-linecap: square"/>
   </g>
  </g>
 </g>
 <defs>
  <clipPath id="p9c3a60ab9d">
   <rect x="44.103906" y="7.2" width="281.095614" height="89.332593"/>
  </clipPath>
  <clipPath id="p28d2602cc1">
   <rect x="44.103906" y="106.033073" width="281.095614" height="89.332593"/>
  </clipPath>
  <clipPath id="p1bdade67ef">
   <rect x="44.103906" y="204.866146" width="281.095614" height="89.332593"/>
  </clipPath>
 </defs>
</svg>
