<?xml version="1.0" encoding="utf-8" standalone="no"?>
<!DOCTYPE svg PUBLIC "-//W3C//DTD SVG 1.1//EN"
  "http://www.w3.org/Graphics/SVG/1.1/DTD/svg11.dtd">
<svg xmlns:xlink="http://www.w3.org/1999/xlink" width="332.39952pt" height="332.39952pt" viewBox="0 0 332.39952 332.39952" xmlns="http://www.w3.org/2000/svg" version="1.1">
 <metadata>
  <rdf:RDF xmlns:dc="http://purl.org/dc/elements/1.1/" xmlns:cc="http://creativecommons.org/ns#" xmlns:rdf="http://www.w3.org/1999/02/22-rdf-syntax-ns#">
   <cc:Work>
    <dc:type rdf:resource="http://purl.org/dc/dcmitype/StillImage"/>
    <dc:date>2026-05-26T20:50:05.390738</dc:date>
    <dc:format>image/svg+xml</dc:format>
    <dc:creator>
     <cc:Agent>
      <dc:title>Matplotlib v3.10.9, https://matplotlib.org/</dc:title>
     </cc:Agent>
    </dc:creator>
   </cc:Work>
  </rdf:RDF>
 </metadata>
 <defs>
  <style type="text/css">*{stroke-linejoin: round; stroke-linecap: butt}</style>
 </defs>
 <g id="figure_1">
  <g id="patch_1">
   <path d="M 0 332.39952 
L 332.39952 332.39952 
L 332.39952 0 
L 0 0 
z
" style="fill: #ffffff"/>
  </g>
  <g id="axes_1">
   <g id="patch_2">
    <path d="M 43.78125 96.747437 
L 325.19952 96.747437 
L 325.19952 7.2 
L 43.78125 7.2 
z
" style="fill: #ffffff"/>
   </g>
   <g id="matplotlib.axis_1">
    <g id="xtick_1">
     <g id="line2d_1">
      <defs>
       <path id="m5dd5ae3ecc" d="M 0 0 
L 0 3.5 
" style="stroke: #000000; stroke-width: 0.8"/>
      </defs>
      <g>
       <use xlink:href="#m5dd5ae3ecc" x="56.57299" y="96.747437" style="stroke: #000000; stroke-width: 0.8"/>
      </g>
     </g>
    </g>
    <g id="xtick_2">
     <g id="line2d_2">
      <g>
       <use xlink:href="#m5dd5ae3ecc" x="88.540748" y="96.747437" style="stroke: #000000; stroke-width: 0.8"/>
      </g>
     </g>
    </g>
    <g id="xtick_3">
     <g id="line2d_3">
      <g>
       <use xlink:href="#m5dd5ae3ecc" x="120.508507" y="96.747437" style="stroke: #000000; stroke-width: 0.8"/>
      </g>
     </g>
    </g>
    <g id="xtick_4">
     <g id="line2d_4">
      <g>
       <use xlink:href="#m5dd5ae3ecc" x="152.476265" y="96.747437" style="stroke: #000000; stroke-width: 0.8"/>
      </g>
     </g>
    </g>
    <g id="xtick_5">
     <g id="line2d_5">
      <g>
       <use xlink:href="#m5dd5ae3ecc" x="184.444024" y="96.747437" style="stroke: #000000; stroke-width: 0.8"/>
      </g>
     </g>
    </g>
    <g id="xtick_6">
     <g id="line2d_6">
      <g>
       <use xlink:href="#m5dd5ae3ecc" x="216.411782" y="96.747437" style="stroke: #000000; stroke-width: 0.8"/>
      </g>
     </g>
    </g>
    <g id="xtick_7">
     <g id="line2d_7">
      <g>
       <use xlink:href="#m5dd5ae3ecc" x="248.379541" y="96.747437" style="stroke: #000000; stroke-width: 0.8"/>
      </g>
     </g>
    </g>
    <g id="xtick_8">
     <g id="line2d_8">
      <g>
       <use xlink:href="#m5dd5ae3ecc" x="280.3473" y="96.747437" style="stroke: #000000; stroke-width: 0.8"/>
      </g>
     </g>
    </g>
    <g id="xtick_9">
     <g id="line2d_9">
      <g>
       <use xlink:href="#m5dd5ae3ecc" x="312.315058" y="96.747437" style="stroke: #000000; stroke-width: 0.8"/>
      </g>
     </g>
    </g>
   </g>
   <g id="matplotlib.axis_2">
    <g id="ytick_1">
     <g id="line2d_10">
      <defs>
       <path id="m01dfefb4f4" d="M 0 0 
L -3.5 0 
" style="stroke: #000000; stroke-width: 0.8"/>
      </defs>
      <g>
       <use xlink:href="#m01dfefb4f4" x="43.78125" y="92.677099" style="stroke: #000000; stroke-width: 0.8"/>
      </g>
     </g>
     <g id="text_1">
      <!-- 0 -->
      <g transform="translate(30.41875 96.476317) scale(0.1 -0.1)">
       <defs>
        <path id="DejaVuSans-30" d="M 2034 4250 
Q 1547 4250 1301 3770 
Q 1056 3291 1056 2328 
Q 1056 1369 1301 889 
Q 1547 409 2034 409 
Q 2525 409 2770 889 
Q 3016 1369 3016 2328 
Q 3016 3291 2770 3770 
Q 2525 4250 2034 4250 
z
M 2034 4750 
Q 2819 4750 3233 4129 
Q 3647 3509 3647 2328 
Q 3647 1150 3233 529 
Q 2819 -91 2034 -91 
Q 1250 -91 836 529 
Q 422 1150 422 2328 
Q 422 3509 836 4129 
Q 1250 4750 2034 4750 
z
" transform="scale(0.015625)"/>
       </defs>
       <use xlink:href="#DejaVuSans-30"/>
      </g>
     </g>
    </g>
    <g id="ytick_2">
     <g id="line2d_11">
      <g>
       <use xlink:href="#m01dfefb4f4" x="43.78125" y="51.973718" style="stroke: #000000; stroke-width: 0.8"/>
      </g>
     </g>
     <g id="text_2">
      <!-- 5 -->
      <g transform="translate(30.41875 55.772937) scale(0.1 -0.1)">
       <defs>
        <path id="DejaVuSans-35" d="M 691 4666 
L 3169 4666 
L 3169 4134 
L 1269 4134 
L 1269 2991 
Q 1406 3038 1543 3061 
Q 1681 3084 1819 3084 
Q 2600 3084 3056 2656 
Q 3513 2228 3513 1497 
Q 3513 744 3044 326 
Q 2575 -91 1722 -91 
Q 1428 -91 1123 -41 
Q 819 9 494 109 
L 494 744 
Q 775 591 1075 516 
Q 1375 441 1709 441 
Q 2250 441 2565 725 
Q 2881 1009 2881 1497 
Q 2881 1984 2565 2268 
Q 2250 2553 1709 2553 
Q 1456 2553 1204 2497 
Q 953 2441 691 2322 
L 691 4666 
z
" transform="scale(0.015625)"/>
       </defs>
       <use xlink:href="#DejaVuSans-35"/>
      </g>
     </g>
    </g>
    <g id="ytick_3">
     <g id="line2d_12">
      <g>
       <use xlink:href="#m01dfefb4f4" x="43.78125" y="11.270338" style="stroke: #000000; stroke-width: 0.8"/>
      </g>
     </g>
     <g id="text_3">
      <!-- 10 -->
      <g transform="translate(24.05625 15.069557) scale(0.1 -0.1)">
       <defs>
        <path id="DejaVuSans-31" d="M 794 531 
L 1825 531 
L 1825 4091 
L 703 3866 
L 703 4441 
L 1819 4666 
L 2450 4666 
L 2450 531 
L 3481 531 
L 3481 0 
L 794 0 
L 794 531 
z
" transform="scale(0.015625)"/>
       </defs>
       <use xlink:href="#DejaVuSans-31"/>
       <use xlink:href="#DejaVuSans-30" transform="translate(63.623047 0)"/>
      </g>
     </g>
    </g>
    <g id="text_4">
     <!-- Extracellular lactose -->
     <g transform="translate(17.976562 102.945593) rotate(-90) scale(0.1 -0.1)">
      <defs>
       <path id="DejaVuSans-45" d="M 628 4666 
L 3578 4666 
L 3578 4134 
L 1259 4134 
L 1259 2753 
L 3481 2753 
L 3481 2222 
L 1259 2222 
L 1259 531 
L 3634 531 
L 3634 0 
L 628 0 
L 628 4666 
z
" transform="scale(0.015625)"/>
       <path id="DejaVuSans-78" d="M 3513 3500 
L 2247 1797 
L 3578 0 
L 2900 0 
L 1881 1375 
L 863 0 
L 184 0 
L 1544 1831 
L 300 3500 
L 978 3500 
L 1906 2253 
L 2834 3500 
L 3513 3500 
z
" transform="scale(0.015625)"/>
       <path id="DejaVuSans-74" d="M 1172 4494 
L 1172 3500 
L 2356 3500 
L 2356 3053 
L 1172 3053 
L 1172 1153 
Q 1172 725 1289 603 
Q 1406 481 1766 481 
L 2356 481 
L 2356 0 
L 1766 0 
Q 1100 0 847 248 
Q 594 497 594 1153 
L 594 3053 
L 172 3053 
L 172 3500 
L 594 3500 
L 594 4494 
L 1172 4494 
z
" transform="scale(0.015625)"/>
       <path id="DejaVuSans-72" d="M 2631 2963 
Q 2534 3019 2420 3045 
Q 2306 3072 2169 3072 
Q 1681 3072 1420 2755 
Q 1159 2438 1159 1844 
L 1159 0 
L 581 0 
L 581 3500 
L 1159 3500 
L 1159 2956 
Q 1341 3275 1631 3429 
Q 1922 3584 2338 3584 
Q 2397 3584 2469 3576 
Q 2541 3569 2628 3553 
L 2631 2963 
z
" transform="scale(0.015625)"/>
       <path id="DejaVuSans-61" d="M 2194 1759 
Q 1497 1759 1228 1600 
Q 959 1441 959 1056 
Q 959 750 1161 570 
Q 1363 391 1709 391 
Q 2188 391 2477 730 
Q 2766 1069 2766 1631 
L 2766 1759 
L 2194 1759 
z
M 3341 1997 
L 3341 0 
L 2766 0 
L 2766 531 
Q 2569 213 2275 61 
Q 1981 -91 1556 -91 
Q 1019 -91 701 211 
Q 384 513 384 1019 
Q 384 1609 779 1909 
Q 1175 2209 1959 2209 
L 2766 2209 
L 2766 2266 
Q 2766 2663 2505 2880 
Q 2244 3097 1772 3097 
Q 1472 3097 1187 3025 
Q 903 2953 641 2809 
L 641 3341 
Q 956 3463 1253 3523 
Q 1550 3584 1831 3584 
Q 2591 3584 2966 3190 
Q 3341 2797 3341 1997 
z
" transform="scale(0.015625)"/>
       <path id="DejaVuSans-63" d="M 3122 3366 
L 3122 2828 
Q 2878 2963 2633 3030 
Q 2388 3097 2138 3097 
Q 1578 3097 1268 2742 
Q 959 2388 959 1747 
Q 959 1106 1268 751 
Q 1578 397 2138 397 
Q 2388 397 2633 464 
Q 2878 531 3122 666 
L 3122 134 
Q 2881 22 2623 -34 
Q 2366 -91 2075 -91 
Q 1284 -91 818 406 
Q 353 903 353 1747 
Q 353 2603 823 3093 
Q 1294 3584 2113 3584 
Q 2378 3584 2631 3529 
Q 2884 3475 3122 3366 
z
" transform="scale(0.015625)"/>
       <path id="DejaVuSans-65" d="M 3597 1894 
L 3597 1613 
L 953 1613 
Q 991 1019 1311 708 
Q 1631 397 2203 397 
Q 2534 397 2845 478 
Q 3156 559 3463 722 
L 3463 178 
Q 3153 47 2828 -22 
Q 2503 -91 2169 -91 
Q 1331 -91 842 396 
Q 353 884 353 1716 
Q 353 2575 817 3079 
Q 1281 3584 2069 3584 
Q 2775 3584 3186 3129 
Q 3597 2675 3597 1894 
z
M 3022 2063 
Q 3016 2534 2758 2815 
Q 2500 3097 2075 3097 
Q 1594 3097 1305 2825 
Q 1016 2553 972 2059 
L 3022 2063 
z
" transform="scale(0.015625)"/>
       <path id="DejaVuSans-6c" d="M 603 4863 
L 1178 4863 
L 1178 0 
L 603 0 
L 603 4863 
z
" transform="scale(0.015625)"/>
       <path id="DejaVuSans-75" d="M 544 1381 
L 544 3500 
L 1119 3500 
L 1119 1403 
Q 1119 906 1312 657 
Q 1506 409 1894 409 
Q 2359 409 2629 706 
Q 2900 1003 2900 1516 
L 2900 3500 
L 3475 3500 
L 3475 0 
L 2900 0 
L 2900 538 
Q 2691 219 2414 64 
Q 2138 -91 1772 -91 
Q 1169 -91 856 284 
Q 544 659 544 1381 
z
M 1991 3584 
L 1991 3584 
z
" transform="scale(0.015625)"/>
       <path id="DejaVuSans-20" transform="scale(0.015625)"/>
       <path id="DejaVuSans-6f" d="M 1959 3097 
Q 1497 3097 1228 2736 
Q 959 2375 959 1747 
Q 959 1119 1226 758 
Q 1494 397 1959 397 
Q 2419 397 2687 759 
Q 2956 1122 2956 1747 
Q 2956 2369 2687 2733 
Q 2419 3097 1959 3097 
z
M 1959 3584 
Q 2709 3584 3137 3096 
Q 3566 2609 3566 1747 
Q 3566 888 3137 398 
Q 2709 -91 1959 -91 
Q 1206 -91 779 398 
Q 353 888 353 1747 
Q 353 2609 779 3096 
Q 1206 3584 1959 3584 
z
" transform="scale(0.015625)"/>
       <path id="DejaVuSans-73" d="M 2834 3397 
L 2834 2853 
Q 2591 2978 2328 3040 
Q 2066 3103 1784 3103 
Q 1356 3103 1142 2972 
Q 928 2841 928 2578 
Q 928 2378 1081 2264 
Q 1234 2150 1697 2047 
L 1894 2003 
Q 2506 1872 2764 1633 
Q 3022 1394 3022 966 
Q 3022 478 2636 193 
Q 2250 -91 1575 -91 
Q 1294 -91 989 -36 
Q 684 19 347 128 
L 347 722 
Q 666 556 975 473 
Q 1284 391 1588 391 
Q 1994 391 2212 530 
Q 2431 669 2431 922 
Q 2431 1156 2273 1281 
Q 2116 1406 1581 1522 
L 1381 1569 
Q 847 1681 609 1914 
Q 372 2147 372 2553 
Q 372 3047 722 3315 
Q 1072 3584 1716 3584 
Q 2034 3584 2315 3537 
Q 2597 3491 2834 3397 
z
" transform="scale(0.015625)"/>
      </defs>
      <use xlink:href="#DejaVuSans-45"/>
      <use xlink:href="#DejaVuSans-78" transform="translate(63.183594 0)"/>
      <use xlink:href="#DejaVuSans-74" transform="translate(122.363281 0)"/>
      <use xlink:href="#DejaVuSans-72" transform="translate(161.572266 0)"/>
      <use xlink:href="#DejaVuSans-61" transform="translate(202.685547 0)"/>
      <use xlink:href="#DejaVuSans-63" transform="translate(263.964844 0)"/>
      <use xlink:href="#DejaVuSans-65" transform="translate(318.945312 0)"/>
      <use xlink:href="#DejaVuSans-6c" transform="translate(380.46875 0)"/>
      <use xlink:href="#DejaVuSans-6c" transform="translate(408.251953 0)"/>
      <use xlink:href="#DejaVuSans-75" transform="translate(436.035156 0)"/>
      <use xlink:href="#DejaVuSans-6c" transform="translate(499.414062 0)"/>
      <use xlink:href="#DejaVuSans-61" transform="translate(527.197266 0)"/>
      <use xlink:href="#DejaVuSans-72" transform="translate(588.476562 0)"/>
      <use xlink:href="#DejaVuSans-20" transform="translate(629.589844 0)"/>
      <use xlink:href="#DejaVuSans-6c" transform="translate(661.376953 0)"/>
      <use xlink:href="#DejaVuSans-61" transform="translate(689.160156 0)"/>
      <use xlink:href="#DejaVuSans-63" transform="translate(750.439453 0)"/>
      <use xlink:href="#DejaVuSans-74" transform="translate(805.419922 0)"/>
      <use xlink:href="#DejaVuSans-6f" transform="translate(844.628906 0)"/>
      <use xlink:href="#DejaVuSans-73" transform="translate(905.810547 0)"/>
      <use xlink:href="#DejaVuSans-65" transform="translate(957.910156 0)"/>
     </g>
    </g>
   </g>
   <g id="line2d_13">
    <path d="M 56.57299 92.677099 
L 156.014889 92.677099 
L 156.10409 11.270338 
L 156.772854 11.351745 
L 156.890678 11.677372 
L 156.935545 11.758779 
L 157.081909 13.2241 
L 157.199489 14.770829 
L 157.346777 16.480371 
L 157.498861 18.108506 
L 157.522523 18.189913 
L 157.635697 19.166794 
L 157.763498 20.143675 
L 157.812369 20.225082 
L 158.568258 23.074318 
L 158.707394 24.051199 
L 159.106543 25.190894 
L 159.398817 25.272301 
L 159.584516 26.411996 
L 159.604527 26.493402 
L 159.718646 26.900436 
L 159.737388 26.981843 
L 159.856894 27.55169 
L 159.944897 27.633097 
L 160.22348 28.772792 
L 160.755882 30.645147 
L 160.938877 31.133588 
L 161.195601 31.703435 
L 161.213068 31.784842 
L 161.325203 32.191876 
L 161.722029 33.982824 
L 162.179376 35.529553 
L 162.77177 35.610959 
L 162.927555 36.506434 
L 162.965116 36.587841 
L 163.133882 36.750654 
L 163.22789 36.832061 
L 163.373965 37.483315 
L 163.385597 37.564722 
L 163.490592 37.727535 
L 163.535748 37.808942 
L 163.640158 38.053162 
L 164.234325 39.35567 
L 164.345377 39.599891 
L 164.467264 39.681297 
L 164.710255 39.844111 
L 164.917903 39.925518 
L 165.030009 40.332552 
L 165.2335 40.820992 
L 165.386526 40.902399 
L 165.53076 41.228026 
L 165.602698 41.309433 
L 165.858532 42.530534 
L 165.887372 42.611941 
L 166.058681 42.856161 
L 166.303335 42.937568 
L 166.419513 43.344602 
L 166.569798 43.751636 
L 166.656205 43.833042 
L 166.747713 44.240076 
L 166.812448 44.321483 
L 167.009558 44.565703 
L 167.105054 44.64711 
L 167.297305 45.216957 
L 167.53297 45.542584 
L 169.106819 45.623991 
L 169.221099 46.438059 
L 169.250832 46.519465 
L 170.124446 51.403871 
L 170.371647 51.729498 
L 170.726048 51.810905 
L 170.994337 52.136532 
L 171.715262 52.217939 
L 172.055938 52.462159 
L 172.167065 52.543566 
L 172.262395 52.624972 
L 172.361082 52.706379 
L 172.646618 53.032006 
L 173.83298 53.113413 
L 173.963441 53.276227 
L 174.289951 53.357633 
L 174.469684 53.927481 
L 174.508404 54.008887 
L 174.617968 54.334514 
L 174.652074 54.415921 
L 174.727626 54.660141 
L 175.19456 57.672192 
L 175.288451 58.242039 
L 175.457106 59.300327 
L 175.534078 59.381734 
L 175.630539 59.625954 
L 175.725375 59.707361 
L 175.833947 60.114394 
L 175.95807 60.277208 
L 175.978034 60.358615 
L 176.119481 60.847055 
L 176.248796 60.928462 
L 176.370381 61.172682 
L 177.040514 61.254089 
L 177.483268 62.149563 
L 177.635078 62.800817 
L 177.76214 62.882224 
L 177.921761 63.370665 
L 177.947124 63.452072 
L 178.053488 63.940512 
L 178.154252 64.021919 
L 178.353127 64.591766 
L 178.375011 64.673173 
L 178.552352 65.405834 
L 178.693594 66.138495 
L 178.789472 66.545528 
L 178.923015 66.626935 
L 179.042314 66.952562 
L 179.099253 67.033969 
L 179.191225 67.278189 
L 179.404561 68.01085 
L 179.506853 68.092257 
L 179.833617 68.987731 
L 179.866228 69.069138 
L 179.984838 69.638985 
L 180.021796 69.720392 
L 180.172344 70.371646 
L 180.208096 70.453053 
L 180.695134 73.058069 
L 180.774787 73.139476 
L 180.85418 73.220883 
L 181.036721 73.465103 
L 181.140719 73.627917 
L 181.25521 73.709323 
L 181.385486 74.197764 
L 181.500467 74.686205 
L 181.563757 74.767611 
L 181.654687 75.256052 
L 181.70862 75.337459 
L 181.808522 75.500272 
L 181.929394 75.581679 
L 182.052203 75.663086 
L 183.563224 75.744492 
L 183.675023 75.907306 
L 184.971179 75.988713 
L 185.260654 76.477153 
L 185.384759 76.55856 
L 185.544688 76.965594 
L 185.867998 77.047001 
L 186.063161 77.535441 
L 186.1554 77.616848 
L 186.443645 78.186695 
L 186.626424 78.268102 
L 187.139371 79.489203 
L 187.426706 79.57061 
L 187.544286 79.733424 
L 187.77529 80.140458 
L 187.974345 80.384678 
L 188.040137 80.466085 
L 188.231484 80.628898 
L 188.375874 80.710305 
L 188.485712 80.954525 
L 188.638082 81.035932 
L 189.24329 81.849999 
L 189.338428 81.931406 
L 189.439878 82.175627 
L 189.591459 82.257033 
L 189.704182 82.33844 
L 189.818586 82.501254 
L 190.552749 82.58266 
L 191.174716 83.152508 
L 191.283906 83.478135 
L 191.691749 83.559541 
L 191.809541 83.803762 
L 191.927292 83.885168 
L 192.048274 84.047982 
L 192.144769 84.129389 
L 192.243284 84.292202 
L 192.453802 84.455016 
L 192.620404 84.536423 
L 192.836242 84.780643 
L 193.415258 84.86205 
L 193.961206 85.024863 
L 195.012127 85.10627 
L 195.134641 85.269083 
L 195.882476 85.35049 
L 196.056763 85.431897 
L 196.836911 85.513304 
L 196.976118 85.59471 
L 197.226157 85.676117 
L 197.408775 85.757524 
L 197.84043 85.838931 
L 197.916791 86.001744 
L 198.160139 86.083151 
L 198.253994 86.245965 
L 198.448598 86.490185 
L 198.674973 86.571592 
L 198.842302 86.652998 
L 198.994454 86.815812 
L 199.215369 86.897219 
L 199.323085 86.978625 
L 199.929852 87.304252 
L 200.067571 87.467066 
L 200.425283 87.548473 
L 200.682338 87.629879 
L 200.917099 87.711286 
L 201.184048 87.955507 
L 201.717604 88.036913 
L 201.862467 88.199727 
L 201.928541 88.281134 
L 202.061552 88.36254 
L 202.330541 88.688167 
L 202.497668 88.769574 
L 202.591383 88.932388 
L 203.416769 89.013794 
L 203.557784 89.095201 
L 203.997348 89.176608 
L 204.277733 89.420828 
L 204.815698 89.502235 
L 204.931357 89.583642 
L 206.284404 89.665048 
L 206.370748 89.746455 
L 206.82784 89.827862 
L 206.902336 89.909269 
L 207.864366 89.990676 
L 208.44936 90.072082 
L 210.025963 90.153489 
L 211.008792 90.234896 
L 225.802058 90.316303 
L 225.83288 90.397709 
L 237.34936 90.479116 
L 237.93327 90.560523 
L 243.35447 90.723336 
L 273.731584 90.804743 
L 274.657005 90.88615 
L 304.23512 90.967557 
L 304.406709 91.13037 
L 312.40778 91.13037 
L 312.40778 91.13037 
" clip-path="url(#pc7a8055daa)" style="fill: none; stroke: #000000; stroke-width: 1.5; stroke-linecap: square"/>
   </g>
   <g id="patch_3">
    <path d="M 43.78125 96.747437 
L 43.78125 7.2 
" style="fill: none; stroke: #000000; stroke-width: 0.8; stroke-linejoin: miter; stroke-linecap: square"/>
   </g>
   <g id="patch_4">
    <path d="M 325.19952 96.747437 
L 325.19952 7.2 
" style="fill: none; stroke: #000000; stroke-width: 0.8; stroke-linejoin: miter; stroke-linecap: square"/>
   </g>
   <g id="patch_5">
    <path d="M 43.78125 96.747437 
L 325.19952 96.747437 
" style="fill: none; stroke: #000000; stroke-width: 0.8; stroke-linejoin: miter; stroke-linecap: square"/>
   </g>
   <g id="patch_6">
    <path d="M 43.78125 7.2 
L 325.19952 7.2 
" style="fill: none; stroke: #000000; stroke-width: 0.8; stroke-linejoin: miter; stroke-linecap: square"/>
   </g>
  </g>
  <g id="axes_2">
   <g id="patch_7">
    <path d="M 43.78125 195.795353 
L 325.19952 195.795353 
L 325.19952 106.247917 
L 43.78125 106.247917 
z
" style="fill: #ffffff"/>
   </g>
   <g id="matplotlib.axis_3">
    <g id="xtick_10">
     <g id="line2d_14">
      <g>
       <use xlink:href="#m5dd5ae3ecc" x="56.57299" y="195.795353" style="stroke: #000000; stroke-width: 0.8"/>
      </g>
     </g>
    </g>
    <g id="xtick_11">
     <g id="line2d_15">
      <g>
       <use xlink:href="#m5dd5ae3ecc" x="88.540748" y="195.795353" style="stroke: #000000; stroke-width: 0.8"/>
      </g>
     </g>
    </g>
    <g id="xtick_12">
     <g id="line2d_16">
      <g>
       <use xlink:href="#m5dd5ae3ecc" x="120.508507" y="195.795353" style="stroke: #000000; stroke-width: 0.8"/>
      </g>
     </g>
    </g>
    <g id="xtick_13">
     <g id="line2d_17">
      <g>
       <use xlink:href="#m5dd5ae3ecc" x="152.476265" y="195.795353" style="stroke: #000000; stroke-width: 0.8"/>
      </g>
     </g>
    </g>
    <g id="xtick_14">
     <g id="line2d_18">
      <g>
       <use xlink:href="#m5dd5ae3ecc" x="184.444024" y="195.795353" style="stroke: #000000; stroke-width: 0.8"/>
      </g>
     </g>
    </g>
    <g id="xtick_15">
     <g id="line2d_19">
      <g>
       <use xlink:href="#m5dd5ae3ecc" x="216.411782" y="195.795353" style="stroke: #000000; stroke-width: 0.8"/>
      </g>
     </g>
    </g>
    <g id="xtick_16">
     <g id="line2d_20">
      <g>
       <use xlink:href="#m5dd5ae3ecc" x="248.379541" y="195.795353" style="stroke: #000000; stroke-width: 0.8"/>
      </g>
     </g>
    </g>
    <g id="xtick_17">
     <g id="line2d_21">
      <g>
       <use xlink:href="#m5dd5ae3ecc" x="280.3473" y="195.795353" style="stroke: #000000; stroke-width: 0.8"/>
      </g>
     </g>
    </g>
    <g id="xtick_18">
     <g id="line2d_22">
      <g>
       <use xlink:href="#m5dd5ae3ecc" x="312.315058" y="195.795353" style="stroke: #000000; stroke-width: 0.8"/>
      </g>
     </g>
    </g>
   </g>
   <g id="matplotlib.axis_4">
    <g id="ytick_4">
     <g id="line2d_23">
      <g>
       <use xlink:href="#m01dfefb4f4" x="43.78125" y="191.725015" style="stroke: #000000; stroke-width: 0.8"/>
      </g>
     </g>
     <g id="text_5">
      <!-- 0 -->
      <g transform="translate(30.41875 195.524234) scale(0.1 -0.1)">
       <use xlink:href="#DejaVuSans-30"/>
      </g>
     </g>
    </g>
    <g id="ytick_5">
     <g id="line2d_24">
      <g>
       <use xlink:href="#m01dfefb4f4" x="43.78125" y="151.021635" style="stroke: #000000; stroke-width: 0.8"/>
      </g>
     </g>
     <g id="text_6">
      <!-- 5 -->
      <g transform="translate(30.41875 154.820854) scale(0.1 -0.1)">
       <use xlink:href="#DejaVuSans-35"/>
      </g>
     </g>
    </g>
    <g id="ytick_6">
     <g id="line2d_25">
      <g>
       <use xlink:href="#m01dfefb4f4" x="43.78125" y="110.318255" style="stroke: #000000; stroke-width: 0.8"/>
      </g>
     </g>
     <g id="text_7">
      <!-- 10 -->
      <g transform="translate(24.05625 114.117473) scale(0.1 -0.1)">
       <use xlink:href="#DejaVuSans-31"/>
       <use xlink:href="#DejaVuSans-30" transform="translate(63.623047 0)"/>
      </g>
     </g>
    </g>
    <g id="text_8">
     <!-- LacY -->
     <g transform="translate(17.976563 162.67476) rotate(-90) scale(0.1 -0.1)">
      <defs>
       <path id="DejaVuSans-4c" d="M 628 4666 
L 1259 4666 
L 1259 531 
L 3531 531 
L 3531 0 
L 628 0 
L 628 4666 
z
" transform="scale(0.015625)"/>
       <path id="DejaVuSans-59" d="M -13 4666 
L 666 4666 
L 1959 2747 
L 3244 4666 
L 3922 4666 
L 2272 2222 
L 2272 0 
L 1638 0 
L 1638 2222 
L -13 4666 
z
" transform="scale(0.015625)"/>
      </defs>
      <use xlink:href="#DejaVuSans-4c"/>
      <use xlink:href="#DejaVuSans-61" transform="translate(55.712891 0)"/>
      <use xlink:href="#DejaVuSans-63" transform="translate(116.992188 0)"/>
      <use xlink:href="#DejaVuSans-59" transform="translate(171.972656 0)"/>
     </g>
    </g>
   </g>
   <g id="line2d_26">
    <path d="M 56.57299 110.318255 
L 56.600164 110.318255 
L 56.654752 118.458931 
L 56.763104 134.740283 
L 56.823551 142.880959 
L 56.975919 142.880959 
L 56.993646 134.740283 
L 57.214614 142.880959 
L 57.356723 142.880959 
L 57.527667 159.162311 
L 57.829086 175.443663 
L 57.894818 191.725015 
L 59.427439 191.725015 
L 59.594347 183.584339 
L 59.637162 191.725015 
L 64.668375 191.725015 
L 64.991887 183.584339 
L 65.102029 191.725015 
L 82.628315 191.725015 
L 82.823057 183.584339 
L 84.619458 191.725015 
L 84.634309 183.584339 
L 84.777762 175.443663 
L 84.782425 167.302987 
L 85.105141 175.443663 
L 85.332495 175.443663 
L 85.452335 191.725015 
L 85.51326 183.584339 
L 85.703814 183.584339 
L 85.842538 191.725015 
L 89.741472 191.725015 
L 90.131942 175.443663 
L 90.133246 167.302987 
L 90.632741 167.302987 
L 90.671476 183.584339 
L 91.444951 183.584339 
L 91.614166 175.443663 
L 91.95905 191.725015 
L 108.993531 191.725015 
L 109.09941 183.584339 
L 109.219324 183.584339 
L 109.358657 191.725015 
L 109.594065 191.725015 
L 109.635622 183.584339 
L 110.052303 183.584339 
L 110.402837 175.443663 
L 110.461286 183.584339 
L 110.636858 183.584339 
L 110.666488 191.725015 
L 119.441399 191.725015 
L 119.620138 183.584339 
L 121.724109 183.584339 
L 123.574854 191.725015 
L 131.356654 191.725015 
L 131.543252 183.584339 
L 131.831324 183.584339 
L 131.939292 191.725015 
L 136.282811 191.725015 
L 136.36669 183.584339 
L 136.388594 191.725015 
L 146.399066 191.725015 
L 146.660376 175.443663 
L 146.681245 183.584339 
L 146.710305 175.443663 
L 146.823618 167.302987 
L 146.828968 175.443663 
L 147.414754 175.443663 
L 148.033037 183.584339 
L 148.278808 183.584339 
L 148.594635 175.443663 
L 148.707721 175.443663 
L 149.781553 191.725015 
L 150.242549 191.725015 
L 150.294523 175.443663 
L 150.395579 175.443663 
L 150.548685 183.584339 
L 150.682644 183.584339 
L 151.226525 191.725015 
L 156.354159 191.725015 
L 156.783211 183.584339 
L 157.023935 151.021635 
L 157.307772 151.021635 
L 157.42578 167.302987 
L 157.458737 167.302987 
L 157.571621 159.162311 
L 157.69962 159.162311 
L 157.812369 175.443663 
L 158.035989 175.443663 
L 158.150733 183.584339 
L 158.283665 167.302987 
L 158.334531 167.302987 
L 158.37254 159.162311 
L 158.433937 167.302987 
L 158.608347 167.302987 
L 158.707394 175.443663 
L 158.945145 175.443663 
L 159.057782 191.725015 
L 159.357072 191.725015 
L 159.471999 175.443663 
L 160.463502 175.443663 
L 160.574493 183.584339 
L 160.598311 183.584339 
L 160.730107 175.443663 
L 161.060198 175.443663 
L 161.198112 159.162311 
L 161.20714 159.162311 
L 161.317846 175.443663 
L 161.344264 175.443663 
L 161.447747 167.302987 
L 161.673498 167.302987 
L 161.785379 175.443663 
L 161.842103 175.443663 
L 161.844578 167.302987 
L 161.944488 175.443663 
L 162.029416 175.443663 
L 162.122322 183.584339 
L 162.209937 183.584339 
L 162.318418 191.725015 
L 162.680475 191.725015 
L 162.889556 175.443663 
L 163.032347 175.443663 
L 163.133882 183.584339 
L 163.359216 183.584339 
L 163.412633 175.443663 
L 163.466359 183.584339 
L 163.797758 183.584339 
L 163.893991 175.443663 
L 163.9979 183.584339 
L 164.002568 175.443663 
L 164.29011 175.443663 
L 164.372593 183.584339 
L 164.555429 183.584339 
L 164.668008 191.725015 
L 164.881439 191.725015 
L 165.000596 183.584339 
L 165.30188 183.584339 
L 165.404768 175.443663 
L 165.579558 175.443663 
L 165.698209 167.302987 
L 165.72949 167.302987 
L 165.841971 183.584339 
L 166.33283 183.584339 
L 166.449825 175.443663 
L 166.747713 175.443663 
L 166.884599 183.584339 
L 167.403322 183.584339 
L 167.53297 191.725015 
L 167.820238 191.725015 
L 167.849137 183.584339 
L 167.885675 191.725015 
L 168.790453 191.725015 
L 169.002294 183.584339 
L 169.228856 159.162311 
L 169.339304 167.302987 
L 169.359305 167.302987 
L 169.469907 159.162311 
L 169.731276 159.162311 
L 169.825651 151.021635 
L 169.905568 151.021635 
L 169.970392 167.302987 
L 170.01685 159.162311 
L 170.070599 159.162311 
L 170.165723 175.443663 
L 170.205981 175.443663 
L 170.295719 191.725015 
L 170.627795 191.725015 
L 170.726048 183.584339 
L 170.882522 183.584339 
L 170.934467 191.725015 
L 170.984041 183.584339 
L 171.101302 183.584339 
L 171.143976 175.443663 
L 171.188724 183.584339 
L 171.233153 183.584339 
L 171.320415 191.725015 
L 171.570495 191.725015 
L 171.715262 183.584339 
L 171.912765 183.584339 
L 172.083024 191.725015 
L 172.176049 183.584339 
L 172.262395 191.725015 
L 172.401652 183.584339 
L 172.607829 183.584339 
L 172.745301 191.725015 
L 172.8153 191.725015 
L 172.834894 183.584339 
L 172.893421 191.725015 
L 173.680355 191.725015 
L 173.804648 183.584339 
L 174.113546 183.584339 
L 174.159746 175.443663 
L 174.35141 175.443663 
L 174.477478 167.302987 
L 174.597939 175.443663 
L 174.724755 175.443663 
L 174.836996 159.162311 
L 175.016744 159.162311 
L 175.127952 151.021635 
L 175.303088 151.021635 
L 175.418251 159.162311 
L 175.468012 159.162311 
L 175.630539 175.443663 
L 175.681184 175.443663 
L 175.795748 159.162311 
L 175.911714 175.443663 
L 176.342728 175.443663 
L 176.432856 191.725015 
L 176.92725 191.725015 
L 177.091812 167.302987 
L 177.14018 175.443663 
L 177.166574 167.302987 
L 177.205663 167.302987 
L 177.30491 175.443663 
L 177.421678 175.443663 
L 177.528791 167.302987 
L 178.433585 167.302987 
L 178.58055 151.021635 
L 178.651696 151.021635 
L 178.756448 142.880959 
L 178.758513 151.021635 
L 178.865855 159.162311 
L 178.97696 159.162311 
L 179.072765 167.302987 
L 179.616091 167.302987 
L 179.667506 175.443663 
L 179.727197 167.302987 
L 179.867448 167.302987 
L 180.00342 151.021635 
L 180.123371 159.162311 
L 180.236856 151.021635 
L 180.315728 151.021635 
L 180.423851 142.880959 
L 180.588722 142.880959 
L 180.695134 167.302987 
L 180.733402 167.302987 
L 180.786005 159.162311 
L 180.837886 167.302987 
L 181.022739 167.302987 
L 181.140719 175.443663 
L 181.314065 175.443663 
L 181.427708 159.162311 
L 181.497505 159.162311 
L 181.515247 151.021635 
L 181.601619 159.162311 
L 181.647884 159.162311 
L 181.743845 175.443663 
L 181.949873 175.443663 
L 182.052203 183.584339 
L 182.159158 183.584339 
L 182.40934 191.725015 
L 183.249415 191.725015 
L 183.275829 175.443663 
L 183.406255 175.443663 
L 183.535912 183.584339 
L 183.657792 175.443663 
L 183.789555 191.725015 
L 184.411257 191.725015 
L 184.521165 175.443663 
L 184.696454 183.584339 
L 184.8241 183.584339 
L 184.850053 191.725015 
L 184.899741 183.584339 
L 185.025029 175.443663 
L 185.107223 183.584339 
L 185.132547 175.443663 
L 185.397203 175.443663 
L 185.522398 167.302987 
L 185.725254 167.302987 
L 185.735485 159.162311 
L 185.965172 159.162311 
L 186.063161 151.021635 
L 186.31252 151.021635 
L 186.368648 159.162311 
L 186.585712 159.162311 
L 186.681293 167.302987 
L 186.846408 151.021635 
L 186.860375 151.021635 
L 186.971354 142.880959 
L 187.11333 167.302987 
L 187.139371 167.302987 
L 187.22227 175.443663 
L 187.236549 167.302987 
L 187.276487 167.302987 
L 187.385103 142.880959 
L 187.440646 151.021635 
L 187.457774 159.162311 
L 187.544286 151.021635 
L 187.717929 151.021635 
L 187.802842 159.162311 
L 187.965181 159.162311 
L 188.040137 167.302987 
L 188.097595 167.302987 
L 188.219974 159.162311 
L 188.315253 159.162311 
L 188.405871 151.021635 
L 188.43167 151.021635 
L 188.638082 167.302987 
L 189.24329 167.302987 
L 189.324312 151.021635 
L 189.348175 159.162311 
L 189.486772 175.443663 
L 189.539496 175.443663 
L 189.645158 167.302987 
L 189.901428 167.302987 
L 190.006307 175.443663 
L 190.295095 175.443663 
L 190.385043 167.302987 
L 190.436292 167.302987 
L 190.49667 159.162311 
L 190.535379 167.302987 
L 190.683822 167.302987 
L 190.737499 159.162311 
L 190.783281 167.302987 
L 190.846056 167.302987 
L 190.909194 159.162311 
L 191.158414 159.162311 
L 191.283906 167.302987 
L 191.57968 167.302987 
L 191.652588 175.443663 
L 191.809541 159.162311 
L 191.893671 167.302987 
L 191.917258 159.162311 
L 192.043947 159.162311 
L 192.08193 151.021635 
L 192.120695 167.302987 
L 192.144769 167.302987 
L 192.515651 167.302987 
L 192.545078 175.443663 
L 192.620404 167.302987 
L 192.655941 167.302987 
L 192.747802 183.584339 
L 193.16379 183.584339 
L 193.295243 175.443663 
L 193.415258 183.584339 
L 194.09176 183.584339 
L 194.192752 175.443663 
L 194.196672 183.584339 
L 194.453993 183.584339 
L 194.574354 191.725015 
L 194.737992 183.584339 
L 195.850874 183.584339 
L 195.975954 175.443663 
L 196.079833 183.584339 
L 196.315726 183.584339 
L 196.321607 191.725015 
L 196.406705 183.584339 
L 196.58083 175.443663 
L 196.75721 175.443663 
L 196.836911 183.584339 
L 196.897999 183.584339 
L 197.041748 167.302987 
L 197.079708 167.302987 
L 197.226157 175.443663 
L 197.323559 175.443663 
L 197.347567 167.302987 
L 197.408775 175.443663 
L 197.730618 183.584339 
L 197.854202 159.162311 
L 198.004461 159.162311 
L 198.08443 175.443663 
L 198.100966 167.302987 
L 198.224816 167.302987 
L 198.308838 159.162311 
L 198.448598 167.302987 
L 198.525867 167.302987 
L 198.565302 159.162311 
L 198.770176 167.302987 
L 198.975869 167.302987 
L 199.103126 175.443663 
L 199.264277 151.021635 
L 199.323085 159.162311 
L 199.561187 159.162311 
L 199.692514 167.302987 
L 199.95123 167.302987 
L 200.067571 175.443663 
L 200.157994 183.584339 
L 200.263954 175.443663 
L 200.388465 175.443663 
L 200.534551 167.302987 
L 200.543497 167.302987 
L 200.680958 183.584339 
L 200.682338 175.443663 
L 200.723323 175.443663 
L 200.812731 167.302987 
L 200.89426 183.584339 
L 200.917099 175.443663 
L 201.164679 175.443663 
L 201.272508 183.584339 
L 201.351963 183.584339 
L 201.366109 167.302987 
L 201.646849 167.302987 
L 201.717604 159.162311 
L 201.869005 159.162311 
L 201.928541 142.880959 
L 202.098388 142.880959 
L 202.139798 151.021635 
L 202.149883 142.880959 
L 202.272026 142.880959 
L 202.384716 159.162311 
L 202.544615 175.443663 
L 202.650155 183.584339 
L 203.170573 183.584339 
L 203.416769 175.443663 
L 203.60288 175.443663 
L 203.758881 159.162311 
L 204.051835 151.021635 
L 204.111461 151.021635 
L 204.18239 134.740283 
L 204.260954 134.740283 
L 204.352515 126.599607 
L 204.497907 151.021635 
L 204.565416 151.021635 
L 204.649689 159.162311 
L 204.808047 159.162311 
L 204.812897 151.021635 
L 204.90148 167.302987 
L 205.063048 167.302987 
L 205.150159 175.443663 
L 205.68109 175.443663 
L 205.769965 191.725015 
L 205.994249 191.725015 
L 206.094331 183.584339 
L 206.213946 175.443663 
L 206.226927 183.584339 
L 206.290848 175.443663 
L 206.370748 175.443663 
L 206.553911 167.302987 
L 206.660527 159.162311 
L 206.721248 159.162311 
L 207.06125 191.725015 
L 207.294004 183.584339 
L 207.435994 183.584339 
L 207.588474 175.443663 
L 207.864366 183.584339 
L 210.555376 183.584339 
L 210.87778 191.725015 
L 213.781644 191.725015 
L 214.177348 183.584339 
L 214.44898 191.725015 
L 224.541974 191.725015 
L 224.627115 183.584339 
L 224.749529 183.584339 
L 224.945462 191.725015 
L 225.137097 183.584339 
L 225.179105 175.443663 
L 225.355579 183.584339 
L 225.83288 183.584339 
L 225.956403 191.725015 
L 234.804862 191.725015 
L 234.853137 183.584339 
L 235.024001 191.725015 
L 235.0693 183.584339 
L 235.351553 183.584339 
L 235.380788 191.725015 
L 235.886858 183.584339 
L 236.944341 183.584339 
L 236.997283 191.725015 
L 237.017235 183.584339 
L 237.073077 183.584339 
L 237.142853 175.443663 
L 237.1735 183.584339 
L 240.370932 183.584339 
L 240.736848 191.725015 
L 242.76697 191.725015 
L 242.955737 183.584339 
L 243.079015 191.725015 
L 253.584936 191.725015 
L 253.735286 183.584339 
L 253.965903 191.725015 
L 269.346496 191.725015 
L 269.674681 183.584339 
L 269.810605 183.584339 
L 269.849407 191.725015 
L 270.03133 183.584339 
L 270.568991 183.584339 
L 270.739379 175.443663 
L 270.820467 183.584339 
L 271.127278 183.584339 
L 271.297079 191.725015 
L 273.419661 191.725015 
L 273.731584 183.584339 
L 274.313503 183.584339 
L 274.657005 191.725015 
L 286.435742 191.725015 
L 286.616331 183.584339 
L 286.701126 167.302987 
L 286.872194 167.302987 
L 286.996991 175.443663 
L 287.901271 191.725015 
L 289.157339 191.725015 
L 289.46488 183.584339 
L 289.617053 183.584339 
L 289.702441 191.725015 
L 303.301811 191.725015 
L 303.541561 167.302987 
L 303.764419 191.725015 
L 303.900371 175.443663 
L 303.9339 183.584339 
L 304.021843 183.584339 
L 304.092178 175.443663 
L 304.291127 183.584339 
L 304.517267 167.302987 
L 304.6178 183.584339 
L 304.722327 175.443663 
L 304.982565 175.443663 
L 305.000569 167.302987 
L 305.090793 175.443663 
L 305.613704 175.443663 
L 305.755257 183.584339 
L 305.976879 183.584339 
L 306.13759 191.725015 
L 311.728899 191.725015 
L 311.820379 183.584339 
L 311.976781 183.584339 
L 312.065495 191.725015 
L 312.40778 191.725015 
L 312.40778 191.725015 
" clip-path="url(#p8e4c801c6e)" style="fill: none; stroke: #000000; stroke-width: 1.5; stroke-linecap: square"/>
   </g>
   <g id="patch_8">
    <path d="M 43.78125 195.795353 
L 43.78125 106.247917 
" style="fill: none; stroke: #000000; stroke-width: 0.8; stroke-linejoin: miter; stroke-linecap: square"/>
   </g>
   <g id="patch_9">
    <path d="M 325.19952 195.795353 
L 325.19952 106.247917 
" style="fill: none; stroke: #000000; stroke-width: 0.8; stroke-linejoin: miter; stroke-linecap: square"/>
   </g>
   <g id="patch_10">
    <path d="M 43.78125 195.795353 
L 325.19952 195.795353 
" style="fill: none; stroke: #000000; stroke-width: 0.8; stroke-linejoin: miter; stroke-linecap: square"/>
   </g>
   <g id="patch_11">
    <path d="M 43.78125 106.247917 
L 325.19952 106.247917 
" style="fill: none; stroke: #000000; stroke-width: 0.8; stroke-linejoin: miter; stroke-linecap: square"/>
   </g>
  </g>
  <g id="axes_3">
   <g id="patch_12">
    <path d="M 43.78125 294.84327 
L 325.19952 294.84327 
L 325.19952 205.295833 
L 43.78125 205.295833 
z
" style="fill: #ffffff"/>
   </g>
   <g id="matplotlib.axis_5">
    <g id="xtick_19">
     <g id="line2d_27">
      <g>
       <use xlink:href="#m5dd5ae3ecc" x="56.57299" y="294.84327" style="stroke: #000000; stroke-width: 0.8"/>
      </g>
     </g>
     <g id="text_9">
      <!-- 0 -->
      <g transform="translate(53.39174 309.441707) scale(0.1 -0.1)">
       <use xlink:href="#DejaVuSans-30"/>
      </g>
     </g>
    </g>
    <g id="xtick_20">
     <g id="line2d_28">
      <g>
       <use xlink:href="#m5dd5ae3ecc" x="88.540748" y="294.84327" style="stroke: #000000; stroke-width: 0.8"/>
      </g>
     </g>
     <g id="text_10">
      <!-- 100 -->
      <g transform="translate(78.996998 309.441707) scale(0.1 -0.1)">
       <use xlink:href="#DejaVuSans-31"/>
       <use xlink:href="#DejaVuSans-30" transform="translate(63.623047 0)"/>
       <use xlink:href="#DejaVuSans-30" transform="translate(127.246094 0)"/>
      </g>
     </g>
    </g>
    <g id="xtick_21">
     <g id="line2d_29">
      <g>
       <use xlink:href="#m5dd5ae3ecc" x="120.508507" y="294.84327" style="stroke: #000000; stroke-width: 0.8"/>
      </g>
     </g>
     <g id="text_11">
      <!-- 200 -->
      <g transform="translate(110.964757 309.441707) scale(0.1 -0.1)">
       <defs>
        <path id="DejaVuSans-32" d="M 1228 531 
L 3431 531 
L 3431 0 
L 469 0 
L 469 531 
Q 828 903 1448 1529 
Q 2069 2156 2228 2338 
Q 2531 2678 2651 2914 
Q 2772 3150 2772 3378 
Q 2772 3750 2511 3984 
Q 2250 4219 1831 4219 
Q 1534 4219 1204 4116 
Q 875 4013 500 3803 
L 500 4441 
Q 881 4594 1212 4672 
Q 1544 4750 1819 4750 
Q 2544 4750 2975 4387 
Q 3406 4025 3406 3419 
Q 3406 3131 3298 2873 
Q 3191 2616 2906 2266 
Q 2828 2175 2409 1742 
Q 1991 1309 1228 531 
z
" transform="scale(0.015625)"/>
       </defs>
       <use xlink:href="#DejaVuSans-32"/>
       <use xlink:href="#DejaVuSans-30" transform="translate(63.623047 0)"/>
       <use xlink:href="#DejaVuSans-30" transform="translate(127.246094 0)"/>
      </g>
     </g>
    </g>
    <g id="xtick_22">
     <g id="line2d_30">
      <g>
       <use xlink:href="#m5dd5ae3ecc" x="152.476265" y="294.84327" style="stroke: #000000; stroke-width: 0.8"/>
      </g>
     </g>
     <g id="text_12">
      <!-- 300 -->
      <g transform="translate(142.932515 309.441707) scale(0.1 -0.1)">
       <defs>
        <path id="DejaVuSans-33" d="M 2597 2516 
Q 3050 2419 3304 2112 
Q 3559 1806 3559 1356 
Q 3559 666 3084 287 
Q 2609 -91 1734 -91 
Q 1441 -91 1130 -33 
Q 819 25 488 141 
L 488 750 
Q 750 597 1062 519 
Q 1375 441 1716 441 
Q 2309 441 2620 675 
Q 2931 909 2931 1356 
Q 2931 1769 2642 2001 
Q 2353 2234 1838 2234 
L 1294 2234 
L 1294 2753 
L 1863 2753 
Q 2328 2753 2575 2939 
Q 2822 3125 2822 3475 
Q 2822 3834 2567 4026 
Q 2313 4219 1838 4219 
Q 1578 4219 1281 4162 
Q 984 4106 628 3988 
L 628 4550 
Q 988 4650 1302 4700 
Q 1616 4750 1894 4750 
Q 2613 4750 3031 4423 
Q 3450 4097 3450 3541 
Q 3450 3153 3228 2886 
Q 3006 2619 2597 2516 
z
" transform="scale(0.015625)"/>
       </defs>
       <use xlink:href="#DejaVuSans-33"/>
       <use xlink:href="#DejaVuSans-30" transform="translate(63.623047 0)"/>
       <use xlink:href="#DejaVuSans-30" transform="translate(127.246094 0)"/>
      </g>
     </g>
    </g>
    <g id="xtick_23">
     <g id="line2d_31">
      <g>
       <use xlink:href="#m5dd5ae3ecc" x="184.444024" y="294.84327" style="stroke: #000000; stroke-width: 0.8"/>
      </g>
     </g>
     <g id="text_13">
      <!-- 400 -->
      <g transform="translate(174.900274 309.441707) scale(0.1 -0.1)">
       <defs>
        <path id="DejaVuSans-34" d="M 2419 4116 
L 825 1625 
L 2419 1625 
L 2419 4116 
z
M 2253 4666 
L 3047 4666 
L 3047 1625 
L 3713 1625 
L 3713 1100 
L 3047 1100 
L 3047 0 
L 2419 0 
L 2419 1100 
L 313 1100 
L 313 1709 
L 2253 4666 
z
" transform="scale(0.015625)"/>
       </defs>
       <use xlink:href="#DejaVuSans-34"/>
       <use xlink:href="#DejaVuSans-30" transform="translate(63.623047 0)"/>
       <use xlink:href="#DejaVuSans-30" transform="translate(127.246094 0)"/>
      </g>
     </g>
    </g>
    <g id="xtick_24">
     <g id="line2d_32">
      <g>
       <use xlink:href="#m5dd5ae3ecc" x="216.411782" y="294.84327" style="stroke: #000000; stroke-width: 0.8"/>
      </g>
     </g>
     <g id="text_14">
      <!-- 500 -->
      <g transform="translate(206.868032 309.441707) scale(0.1 -0.1)">
       <use xlink:href="#DejaVuSans-35"/>
       <use xlink:href="#DejaVuSans-30" transform="translate(63.623047 0)"/>
       <use xlink:href="#DejaVuSans-30" transform="translate(127.246094 0)"/>
      </g>
     </g>
    </g>
    <g id="xtick_25">
     <g id="line2d_33">
      <g>
       <use xlink:href="#m5dd5ae3ecc" x="248.379541" y="294.84327" style="stroke: #000000; stroke-width: 0.8"/>
      </g>
     </g>
     <g id="text_15">
      <!-- 600 -->
      <g transform="translate(238.835791 309.441707) scale(0.1 -0.1)">
       <defs>
        <path id="DejaVuSans-36" d="M 2113 2584 
Q 1688 2584 1439 2293 
Q 1191 2003 1191 1497 
Q 1191 994 1439 701 
Q 1688 409 2113 409 
Q 2538 409 2786 701 
Q 3034 994 3034 1497 
Q 3034 2003 2786 2293 
Q 2538 2584 2113 2584 
z
M 3366 4563 
L 3366 3988 
Q 3128 4100 2886 4159 
Q 2644 4219 2406 4219 
Q 1781 4219 1451 3797 
Q 1122 3375 1075 2522 
Q 1259 2794 1537 2939 
Q 1816 3084 2150 3084 
Q 2853 3084 3261 2657 
Q 3669 2231 3669 1497 
Q 3669 778 3244 343 
Q 2819 -91 2113 -91 
Q 1303 -91 875 529 
Q 447 1150 447 2328 
Q 447 3434 972 4092 
Q 1497 4750 2381 4750 
Q 2619 4750 2861 4703 
Q 3103 4656 3366 4563 
z
" transform="scale(0.015625)"/>
       </defs>
       <use xlink:href="#DejaVuSans-36"/>
       <use xlink:href="#DejaVuSans-30" transform="translate(63.623047 0)"/>
       <use xlink:href="#DejaVuSans-30" transform="translate(127.246094 0)"/>
      </g>
     </g>
    </g>
    <g id="xtick_26">
     <g id="line2d_34">
      <g>
       <use xlink:href="#m5dd5ae3ecc" x="280.3473" y="294.84327" style="stroke: #000000; stroke-width: 0.8"/>
      </g>
     </g>
     <g id="text_16">
      <!-- 700 -->
      <g transform="translate(270.80355 309.441707) scale(0.1 -0.1)">
       <defs>
        <path id="DejaVuSans-37" d="M 525 4666 
L 3525 4666 
L 3525 4397 
L 1831 0 
L 1172 0 
L 2766 4134 
L 525 4134 
L 525 4666 
z
" transform="scale(0.015625)"/>
       </defs>
       <use xlink:href="#DejaVuSans-37"/>
       <use xlink:href="#DejaVuSans-30" transform="translate(63.623047 0)"/>
       <use xlink:href="#DejaVuSans-30" transform="translate(127.246094 0)"/>
      </g>
     </g>
    </g>
    <g id="xtick_27">
     <g id="line2d_35">
      <g>
       <use xlink:href="#m5dd5ae3ecc" x="312.315058" y="294.84327" style="stroke: #000000; stroke-width: 0.8"/>
      </g>
     </g>
     <g id="text_17">
      <!-- 800 -->
      <g transform="translate(302.771308 309.441707) scale(0.1 -0.1)">
       <defs>
        <path id="DejaVuSans-38" d="M 2034 2216 
Q 1584 2216 1326 1975 
Q 1069 1734 1069 1313 
Q 1069 891 1326 650 
Q 1584 409 2034 409 
Q 2484 409 2743 651 
Q 3003 894 3003 1313 
Q 3003 1734 2745 1975 
Q 2488 2216 2034 2216 
z
M 1403 2484 
Q 997 2584 770 2862 
Q 544 3141 544 3541 
Q 544 4100 942 4425 
Q 1341 4750 2034 4750 
Q 2731 4750 3128 4425 
Q 3525 4100 3525 3541 
Q 3525 3141 3298 2862 
Q 3072 2584 2669 2484 
Q 3125 2378 3379 2068 
Q 3634 1759 3634 1313 
Q 3634 634 3220 271 
Q 2806 -91 2034 -91 
Q 1263 -91 848 271 
Q 434 634 434 1313 
Q 434 1759 690 2068 
Q 947 2378 1403 2484 
z
M 1172 3481 
Q 1172 3119 1398 2916 
Q 1625 2713 2034 2713 
Q 2441 2713 2670 2916 
Q 2900 3119 2900 3481 
Q 2900 3844 2670 4047 
Q 2441 4250 2034 4250 
Q 1625 4250 1398 4047 
Q 1172 3844 1172 3481 
z
" transform="scale(0.015625)"/>
       </defs>
       <use xlink:href="#DejaVuSans-38"/>
       <use xlink:href="#DejaVuSans-30" transform="translate(63.623047 0)"/>
       <use xlink:href="#DejaVuSans-30" transform="translate(127.246094 0)"/>
      </g>
     </g>
    </g>
    <g id="text_18">
     <!-- Time -->
     <g transform="translate(172.256791 323.119832) scale(0.1 -0.1)">
      <defs>
       <path id="DejaVuSans-54" d="M -19 4666 
L 3928 4666 
L 3928 4134 
L 2272 4134 
L 2272 0 
L 1638 0 
L 1638 4134 
L -19 4134 
L -19 4666 
z
" transform="scale(0.015625)"/>
       <path id="DejaVuSans-69" d="M 603 3500 
L 1178 3500 
L 1178 0 
L 603 0 
L 603 3500 
z
M 603 4863 
L 1178 4863 
L 1178 4134 
L 603 4134 
L 603 4863 
z
" transform="scale(0.015625)"/>
       <path id="DejaVuSans-6d" d="M 3328 2828 
Q 3544 3216 3844 3400 
Q 4144 3584 4550 3584 
Q 5097 3584 5394 3201 
Q 5691 2819 5691 2113 
L 5691 0 
L 5113 0 
L 5113 2094 
Q 5113 2597 4934 2840 
Q 4756 3084 4391 3084 
Q 3944 3084 3684 2787 
Q 3425 2491 3425 1978 
L 3425 0 
L 2847 0 
L 2847 2094 
Q 2847 2600 2669 2842 
Q 2491 3084 2119 3084 
Q 1678 3084 1418 2786 
Q 1159 2488 1159 1978 
L 1159 0 
L 581 0 
L 581 3500 
L 1159 3500 
L 1159 2956 
Q 1356 3278 1631 3431 
Q 1906 3584 2284 3584 
Q 2666 3584 2933 3390 
Q 3200 3197 3328 2828 
z
" transform="scale(0.015625)"/>
      </defs>
      <use xlink:href="#DejaVuSans-54"/>
      <use xlink:href="#DejaVuSans-69" transform="translate(57.958984 0)"/>
      <use xlink:href="#DejaVuSans-6d" transform="translate(85.742188 0)"/>
      <use xlink:href="#DejaVuSans-65" transform="translate(183.154297 0)"/>
     </g>
    </g>
   </g>
   <g id="matplotlib.axis_6">
    <g id="ytick_7">
     <g id="line2d_36">
      <g>
       <use xlink:href="#m01dfefb4f4" x="43.78125" y="290.772932" style="stroke: #000000; stroke-width: 0.8"/>
      </g>
     </g>
     <g id="text_19">
      <!-- 0.0 -->
      <g transform="translate(20.878125 294.572151) scale(0.1 -0.1)">
       <defs>
        <path id="DejaVuSans-2e" d="M 684 794 
L 1344 794 
L 1344 0 
L 684 0 
L 684 794 
z
" transform="scale(0.015625)"/>
       </defs>
       <use xlink:href="#DejaVuSans-30"/>
       <use xlink:href="#DejaVuSans-2e" transform="translate(63.623047 0)"/>
       <use xlink:href="#DejaVuSans-30" transform="translate(95.410156 0)"/>
      </g>
     </g>
    </g>
    <g id="ytick_8">
     <g id="line2d_37">
      <g>
       <use xlink:href="#m01dfefb4f4" x="43.78125" y="250.069552" style="stroke: #000000; stroke-width: 0.8"/>
      </g>
     </g>
     <g id="text_20">
      <!-- 0.5 -->
      <g transform="translate(20.878125 253.86877) scale(0.1 -0.1)">
       <use xlink:href="#DejaVuSans-30"/>
       <use xlink:href="#DejaVuSans-2e" transform="translate(63.623047 0)"/>
       <use xlink:href="#DejaVuSans-35" transform="translate(95.410156 0)"/>
      </g>
     </g>
    </g>
    <g id="ytick_9">
     <g id="line2d_38">
      <g>
       <use xlink:href="#m01dfefb4f4" x="43.78125" y="209.366171" style="stroke: #000000; stroke-width: 0.8"/>
      </g>
     </g>
     <g id="text_21">
      <!-- 1.0 -->
      <g transform="translate(20.878125 213.16539) scale(0.1 -0.1)">
       <use xlink:href="#DejaVuSans-31"/>
       <use xlink:href="#DejaVuSans-2e" transform="translate(63.623047 0)"/>
       <use xlink:href="#DejaVuSans-30" transform="translate(95.410156 0)"/>
      </g>
     </g>
    </g>
    <g id="text_22">
     <!-- Free lac operon -->
     <g transform="translate(14.798438 288.540645) rotate(-90) scale(0.1 -0.1)">
      <defs>
       <path id="DejaVuSans-46" d="M 628 4666 
L 3309 4666 
L 3309 4134 
L 1259 4134 
L 1259 2759 
L 3109 2759 
L 3109 2228 
L 1259 2228 
L 1259 0 
L 628 0 
L 628 4666 
z
" transform="scale(0.015625)"/>
       <path id="DejaVuSans-70" d="M 1159 525 
L 1159 -1331 
L 581 -1331 
L 581 3500 
L 1159 3500 
L 1159 2969 
Q 1341 3281 1617 3432 
Q 1894 3584 2278 3584 
Q 2916 3584 3314 3078 
Q 3713 2572 3713 1747 
Q 3713 922 3314 415 
Q 2916 -91 2278 -91 
Q 1894 -91 1617 61 
Q 1341 213 1159 525 
z
M 3116 1747 
Q 3116 2381 2855 2742 
Q 2594 3103 2138 3103 
Q 1681 3103 1420 2742 
Q 1159 2381 1159 1747 
Q 1159 1113 1420 752 
Q 1681 391 2138 391 
Q 2594 391 2855 752 
Q 3116 1113 3116 1747 
z
" transform="scale(0.015625)"/>
       <path id="DejaVuSans-6e" d="M 3513 2113 
L 3513 0 
L 2938 0 
L 2938 2094 
Q 2938 2591 2744 2837 
Q 2550 3084 2163 3084 
Q 1697 3084 1428 2787 
Q 1159 2491 1159 1978 
L 1159 0 
L 581 0 
L 581 3500 
L 1159 3500 
L 1159 2956 
Q 1366 3272 1645 3428 
Q 1925 3584 2291 3584 
Q 2894 3584 3203 3211 
Q 3513 2838 3513 2113 
z
" transform="scale(0.015625)"/>
      </defs>
      <use xlink:href="#DejaVuSans-46"/>
      <use xlink:href="#DejaVuSans-72" transform="translate(50.269531 0)"/>
      <use xlink:href="#DejaVuSans-65" transform="translate(89.132812 0)"/>
      <use xlink:href="#DejaVuSans-65" transform="translate(150.65625 0)"/>
      <use xlink:href="#DejaVuSans-20" transform="translate(212.179688 0)"/>
      <use xlink:href="#DejaVuSans-6c" transform="translate(243.966797 0)"/>
      <use xlink:href="#DejaVuSans-61" transform="translate(271.75 0)"/>
      <use xlink:href="#DejaVuSans-63" transform="translate(333.029297 0)"/>
      <use xlink:href="#DejaVuSans-20" transform="translate(388.009766 0)"/>
      <use xlink:href="#DejaVuSans-6f" transform="translate(419.796875 0)"/>
      <use xlink:href="#DejaVuSans-70" transform="translate(480.978516 0)"/>
      <use xlink:href="#DejaVuSans-65" transform="translate(544.455078 0)"/>
      <use xlink:href="#DejaVuSans-72" transform="translate(605.978516 0)"/>
      <use xlink:href="#DejaVuSans-6f" transform="translate(644.841797 0)"/>
      <use xlink:href="#DejaVuSans-6e" transform="translate(706.023438 0)"/>
     </g>
    </g>
   </g>
   <g id="line2d_39">
    <path d="M 56.57299 209.366171 
L 56.654752 290.772932 
L 56.823551 290.772932 
L 56.993646 209.366171 
L 57.112172 209.366171 
L 57.214614 290.772932 
L 58.434587 290.772932 
L 59.427439 209.366171 
L 59.614348 209.366171 
L 59.637162 290.772932 
L 62.065969 290.772932 
L 64.668375 209.366171 
L 64.964167 209.366171 
L 65.102029 290.772932 
L 65.228285 290.772932 
L 71.910962 209.366171 
L 72.081267 290.772932 
L 79.944683 209.366171 
L 79.993869 290.772932 
L 82.628315 209.366171 
L 82.76873 209.366171 
L 82.823057 290.772932 
L 84.568677 290.772932 
L 84.634309 209.366171 
L 85.51326 209.366171 
L 85.703814 290.772932 
L 86.73979 290.772932 
L 89.741472 209.366171 
L 90.283115 209.366171 
L 90.312483 290.772932 
L 90.671476 290.772932 
L 91.555542 209.366171 
L 91.614166 290.772932 
L 91.95905 290.772932 
L 109.085667 209.366171 
L 109.09941 290.772932 
L 109.358657 290.772932 
L 109.635622 209.366171 
L 109.923846 290.772932 
L 110.052303 209.366171 
L 110.461286 209.366171 
L 110.666488 290.772932 
L 110.960014 290.772932 
L 115.134736 209.366171 
L 115.797355 290.772932 
L 117.444346 209.366171 
L 117.760529 290.772932 
L 118.434981 209.366171 
L 118.522569 290.772932 
L 119.534973 209.366171 
L 119.620138 290.772932 
L 123.574854 290.772932 
L 129.611845 209.366171 
L 129.718112 290.772932 
L 131.465636 209.366171 
L 131.917787 209.366171 
L 131.939292 290.772932 
L 133.78513 290.772932 
L 136.388594 209.366171 
L 136.401941 290.772932 
L 139.291682 209.366171 
L 139.334543 290.772932 
L 146.399066 209.366171 
L 147.346236 209.366171 
L 147.414754 290.772932 
L 148.033037 290.772932 
L 148.278808 209.366171 
L 148.594635 209.366171 
L 148.707721 290.772932 
L 149.781553 290.772932 
L 150.294523 209.366171 
L 150.395579 290.772932 
L 151.520048 290.772932 
L 151.531403 209.366171 
L 151.693426 290.772932 
L 156.014889 209.366171 
L 156.10409 290.772932 
L 156.354159 209.366171 
L 205.658604 209.366171 
L 205.769965 290.772932 
L 205.923284 290.772932 
L 206.094331 209.366171 
L 209.140966 209.366171 
L 209.267774 290.772932 
L 211.806685 290.772932 
L 212.750015 209.366171 
L 213.026529 290.772932 
L 213.781644 209.366171 
L 214.382313 209.366171 
L 214.44898 290.772932 
L 215.521625 290.772932 
L 224.627115 209.366171 
L 225.295783 209.366171 
L 225.355579 290.772932 
L 226.472426 290.772932 
L 232.472962 209.366171 
L 232.724438 290.772932 
L 234.853137 209.366171 
L 235.886858 209.366171 
L 236.307105 290.772932 
L 236.833623 290.772932 
L 237.017235 209.366171 
L 237.1735 209.366171 
L 237.34936 290.772932 
L 240.736848 290.772932 
L 242.212034 209.366171 
L 242.309982 290.772932 
L 242.76697 209.366171 
L 243.079015 209.366171 
L 243.249365 290.772932 
L 243.302713 209.366171 
L 243.35447 290.772932 
L 244.627017 290.772932 
L 253.584936 209.366171 
L 253.73069 209.366171 
L 253.735286 290.772932 
L 254.233381 290.772932 
L 265.242526 209.366171 
L 265.381371 290.772932 
L 267.621252 209.366171 
L 267.957376 290.772932 
L 269.177666 209.366171 
L 269.202107 290.772932 
L 269.346496 209.366171 
L 270.694432 209.366171 
L 270.698847 290.772932 
L 270.76371 209.366171 
L 270.820467 209.366171 
L 271.127278 290.772932 
L 271.297079 290.772932 
L 273.419661 209.366171 
L 273.71852 209.366171 
L 273.731584 290.772932 
L 274.657005 290.772932 
L 286.044975 209.366171 
L 286.180167 290.772932 
L 286.435742 209.366171 
L 286.75153 209.366171 
L 286.872194 290.772932 
L 287.901271 290.772932 
L 289.157339 209.366171 
L 289.369199 209.366171 
L 289.46488 290.772932 
L 289.625674 209.366171 
L 289.702441 290.772932 
L 290.329099 209.366171 
L 290.649785 290.772932 
L 296.764841 209.366171 
L 297.006489 290.772932 
L 301.471047 209.366171 
L 301.491589 290.772932 
L 303.375118 209.366171 
L 305.247782 209.366171 
L 305.362066 290.772932 
L 306.13759 290.772932 
L 308.011108 209.366171 
L 308.048281 290.772932 
L 308.072267 209.366171 
L 308.385404 290.772932 
L 311.820379 209.366171 
L 312.065495 290.772932 
L 312.40778 209.366171 
L 312.40778 209.366171 
" clip-path="url(#pfad5da1d0d)" style="fill: none; stroke: #000000; stroke-width: 1.5; stroke-linecap: square"/>
   </g>
   <g id="patch_13">
    <path d="M 43.78125 294.84327 
L 43.78125 205.295833 
" style="fill: none; stroke: #000000; stroke-width: 0.8; stroke-linejoin: miter; stroke-linecap: square"/>
   </g>
   <g id="patch_14">
    <path d="M 325.19952 294.84327 
L 325.19952 205.295833 
" style="fill: none; stroke: #000000; stroke-width: 0.8; stroke-linejoin: miter; stroke-linecap: square"/>
   </g>
   <g id="patch_15">
    <path d="M 43.78125 294.84327 
L 325.19952 294.84327 
" style="fill: none; stroke: #000000; stroke-width: 0.8; stroke-linejoin: miter; stroke-linecap: square"/>
   </g>
   <g id="patch_16">
    <path d="M 43.78125 205.295833 
L 325.19952 205.295833 
" style="fill: none; stroke: #000000; stroke-width: 0.8; stroke-linejoin: miter; stroke-linecap: square"/>
   </g>
  </g>
 </g>
 <defs>
  <clipPath id="pc7a8055daa">
   <rect x="43.78125" y="7.2" width="281.41827" height="89.547437"/>
  </clipPath>
  <clipPath id="p8e4c801c6e">
   <rect x="43.78125" y="106.247917" width="281.41827" height="89.547437"/>
  </clipPath>
  <clipPath id="pfad5da1d0d">
   <rect x="43.78125" y="205.295833" width="281.41827" height="89.547437"/>
  </clipPath>
 </defs>
</svg>
