<?xml version="1.0" encoding="utf-8" standalone="no"?>
<!DOCTYPE svg PUBLIC "-//W3C//DTD SVG 1.1//EN"
  "http://www.w3.org/Graphics/SVG/1.1/DTD/svg11.dtd">
<svg xmlns:xlink="http://www.w3.org/1999/xlink" width="421.190696pt" height="310.86825pt" viewBox="0 0 421.190696 310.86825" xmlns="http://www.w3.org/2000/svg" version="1.1">
 <metadata>
  <rdf:RDF xmlns:dc="http://purl.org/dc/elements/1.1/" xmlns:cc="http://creativecommons.org/ns#" xmlns:rdf="http://www.w3.org/1999/02/22-rdf-syntax-ns#">
   <cc:Work>
    <dc:type rdf:resource="http://purl.org/dc/dcmitype/StillImage"/>
    <dc:date>2026-05-22T20:44:19.677494</dc:date>
    <dc:format>image/svg+xml</dc:format>
    <dc:creator>
     <cc:Agent>
      <dc:title>Matplotlib v3.10.9, https://matplotlib.org/</dc:title>
     </cc:Agent>
    </dc:creator>
   </cc:Work>
  </rdf:RDF>
 </metadata>
 <defs>
  <style type="text/css">*{stroke-linejoin: round; stroke-linecap: butt}</style>
 </defs>
 <g id="figure_1">
  <g id="patch_1">
   <path d="M 0 310.86825 
L 421.190696 310.86825 
L 421.190696 0 
L 0 0 
z
" style="fill: #ffffff"/>
  </g>
  <g id="axes_1">
   <g id="patch_2">
    <path d="M 46.965625 273.312 
L 404.085625 273.312 
L 404.085625 7.2 
L 46.965625 7.2 
z
" style="fill: #ffffff"/>
   </g>
   <g id="matplotlib.axis_1">
    <g id="xtick_1">
     <g id="line2d_1">
      <defs>
       <path id="m4c84184264" d="M 0 0 
L 0 3.5 
" style="stroke: #000000; stroke-width: 0.8"/>
      </defs>
      <g>
       <use xlink:href="#m4c84184264" x="46.965625" y="273.312" style="stroke: #000000; stroke-width: 0.8"/>
      </g>
     </g>
     <g id="text_1">
      <!-- 0.00 -->
      <g transform="translate(35.832813 287.910437) scale(0.1 -0.1)">
       <defs>
        <path id="DejaVuSans-30" d="M 2034 4250 
Q 1547 4250 1301 3770 
Q 1056 3291 1056 2328 
Q 1056 1369 1301 889 
Q 1547 409 2034 409 
Q 2525 409 2770 889 
Q 3016 1369 3016 2328 
Q 3016 3291 2770 3770 
Q 2525 4250 2034 4250 
z
M 2034 4750 
Q 2819 4750 3233 4129 
Q 3647 3509 3647 2328 
Q 3647 1150 3233 529 
Q 2819 -91 2034 -91 
Q 1250 -91 836 529 
Q 422 1150 422 2328 
Q 422 3509 836 4129 
Q 1250 4750 2034 4750 
z
" transform="scale(0.015625)"/>
        <path id="DejaVuSans-2e" d="M 684 794 
L 1344 794 
L 1344 0 
L 684 0 
L 684 794 
z
" transform="scale(0.015625)"/>
       </defs>
       <use xlink:href="#DejaVuSans-30"/>
       <use xlink:href="#DejaVuSans-2e" transform="translate(63.623047 0)"/>
       <use xlink:href="#DejaVuSans-30" transform="translate(95.410156 0)"/>
       <use xlink:href="#DejaVuSans-30" transform="translate(159.033203 0)"/>
      </g>
     </g>
    </g>
    <g id="xtick_2">
     <g id="line2d_2">
      <g>
       <use xlink:href="#m4c84184264" x="91.452157" y="273.312" style="stroke: #000000; stroke-width: 0.8"/>
      </g>
     </g>
     <g id="text_2">
      <!-- 0.25 -->
      <g transform="translate(80.319345 287.910437) scale(0.1 -0.1)">
       <defs>
        <path id="DejaVuSans-32" d="M 1228 531 
L 3431 531 
L 3431 0 
L 469 0 
L 469 531 
Q 828 903 1448 1529 
Q 2069 2156 2228 2338 
Q 2531 2678 2651 2914 
Q 2772 3150 2772 3378 
Q 2772 3750 2511 3984 
Q 2250 4219 1831 4219 
Q 1534 4219 1204 4116 
Q 875 4013 500 3803 
L 500 4441 
Q 881 4594 1212 4672 
Q 1544 4750 1819 4750 
Q 2544 4750 2975 4387 
Q 3406 4025 3406 3419 
Q 3406 3131 3298 2873 
Q 3191 2616 2906 2266 
Q 2828 2175 2409 1742 
Q 1991 1309 1228 531 
z
" transform="scale(0.015625)"/>
        <path id="DejaVuSans-35" d="M 691 4666 
L 3169 4666 
L 3169 4134 
L 1269 4134 
L 1269 2991 
Q 1406 3038 1543 3061 
Q 1681 3084 1819 3084 
Q 2600 3084 3056 2656 
Q 3513 2228 3513 1497 
Q 3513 744 3044 326 
Q 2575 -91 1722 -91 
Q 1428 -91 1123 -41 
Q 819 9 494 109 
L 494 744 
Q 775 591 1075 516 
Q 1375 441 1709 441 
Q 2250 441 2565 725 
Q 2881 1009 2881 1497 
Q 2881 1984 2565 2268 
Q 2250 2553 1709 2553 
Q 1456 2553 1204 2497 
Q 953 2441 691 2322 
L 691 4666 
z
" transform="scale(0.015625)"/>
       </defs>
       <use xlink:href="#DejaVuSans-30"/>
       <use xlink:href="#DejaVuSans-2e" transform="translate(63.623047 0)"/>
       <use xlink:href="#DejaVuSans-32" transform="translate(95.410156 0)"/>
       <use xlink:href="#DejaVuSans-35" transform="translate(159.033203 0)"/>
      </g>
     </g>
    </g>
    <g id="xtick_3">
     <g id="line2d_3">
      <g>
       <use xlink:href="#m4c84184264" x="135.93869" y="273.312" style="stroke: #000000; stroke-width: 0.8"/>
      </g>
     </g>
     <g id="text_3">
      <!-- 0.50 -->
      <g transform="translate(124.805877 287.910437) scale(0.1 -0.1)">
       <use xlink:href="#DejaVuSans-30"/>
       <use xlink:href="#DejaVuSans-2e" transform="translate(63.623047 0)"/>
       <use xlink:href="#DejaVuSans-35" transform="translate(95.410156 0)"/>
       <use xlink:href="#DejaVuSans-30" transform="translate(159.033203 0)"/>
      </g>
     </g>
    </g>
    <g id="xtick_4">
     <g id="line2d_4">
      <g>
       <use xlink:href="#m4c84184264" x="180.425222" y="273.312" style="stroke: #000000; stroke-width: 0.8"/>
      </g>
     </g>
     <g id="text_4">
      <!-- 0.75 -->
      <g transform="translate(169.29241 287.910437) scale(0.1 -0.1)">
       <defs>
        <path id="DejaVuSans-37" d="M 525 4666 
L 3525 4666 
L 3525 4397 
L 1831 0 
L 1172 0 
L 2766 4134 
L 525 4134 
L 525 4666 
z
" transform="scale(0.015625)"/>
       </defs>
       <use xlink:href="#DejaVuSans-30"/>
       <use xlink:href="#DejaVuSans-2e" transform="translate(63.623047 0)"/>
       <use xlink:href="#DejaVuSans-37" transform="translate(95.410156 0)"/>
       <use xlink:href="#DejaVuSans-35" transform="translate(159.033203 0)"/>
      </g>
     </g>
    </g>
    <g id="xtick_5">
     <g id="line2d_5">
      <g>
       <use xlink:href="#m4c84184264" x="224.911754" y="273.312" style="stroke: #000000; stroke-width: 0.8"/>
      </g>
     </g>
     <g id="text_5">
      <!-- 1.00 -->
      <g transform="translate(213.778942 287.910437) scale(0.1 -0.1)">
       <defs>
        <path id="DejaVuSans-31" d="M 794 531 
L 1825 531 
L 1825 4091 
L 703 3866 
L 703 4441 
L 1819 4666 
L 2450 4666 
L 2450 531 
L 3481 531 
L 3481 0 
L 794 0 
L 794 531 
z
" transform="scale(0.015625)"/>
       </defs>
       <use xlink:href="#DejaVuSans-31"/>
       <use xlink:href="#DejaVuSans-2e" transform="translate(63.623047 0)"/>
       <use xlink:href="#DejaVuSans-30" transform="translate(95.410156 0)"/>
       <use xlink:href="#DejaVuSans-30" transform="translate(159.033203 0)"/>
      </g>
     </g>
    </g>
    <g id="xtick_6">
     <g id="line2d_6">
      <g>
       <use xlink:href="#m4c84184264" x="269.398287" y="273.312" style="stroke: #000000; stroke-width: 0.8"/>
      </g>
     </g>
     <g id="text_6">
      <!-- 1.25 -->
      <g transform="translate(258.265474 287.910437) scale(0.1 -0.1)">
       <use xlink:href="#DejaVuSans-31"/>
       <use xlink:href="#DejaVuSans-2e" transform="translate(63.623047 0)"/>
       <use xlink:href="#DejaVuSans-32" transform="translate(95.410156 0)"/>
       <use xlink:href="#DejaVuSans-35" transform="translate(159.033203 0)"/>
      </g>
     </g>
    </g>
    <g id="xtick_7">
     <g id="line2d_7">
      <g>
       <use xlink:href="#m4c84184264" x="313.884819" y="273.312" style="stroke: #000000; stroke-width: 0.8"/>
      </g>
     </g>
     <g id="text_7">
      <!-- 1.50 -->
      <g transform="translate(302.752007 287.910437) scale(0.1 -0.1)">
       <use xlink:href="#DejaVuSans-31"/>
       <use xlink:href="#DejaVuSans-2e" transform="translate(63.623047 0)"/>
       <use xlink:href="#DejaVuSans-35" transform="translate(95.410156 0)"/>
       <use xlink:href="#DejaVuSans-30" transform="translate(159.033203 0)"/>
      </g>
     </g>
    </g>
    <g id="xtick_8">
     <g id="line2d_8">
      <g>
       <use xlink:href="#m4c84184264" x="358.371351" y="273.312" style="stroke: #000000; stroke-width: 0.8"/>
      </g>
     </g>
     <g id="text_8">
      <!-- 1.75 -->
      <g transform="translate(347.238539 287.910437) scale(0.1 -0.1)">
       <use xlink:href="#DejaVuSans-31"/>
       <use xlink:href="#DejaVuSans-2e" transform="translate(63.623047 0)"/>
       <use xlink:href="#DejaVuSans-37" transform="translate(95.410156 0)"/>
       <use xlink:href="#DejaVuSans-35" transform="translate(159.033203 0)"/>
      </g>
     </g>
    </g>
    <g id="xtick_9">
     <g id="line2d_9">
      <g>
       <use xlink:href="#m4c84184264" x="402.857884" y="273.312" style="stroke: #000000; stroke-width: 0.8"/>
      </g>
     </g>
     <g id="text_9">
      <!-- 2.00 -->
      <g transform="translate(391.725071 287.910437) scale(0.1 -0.1)">
       <use xlink:href="#DejaVuSans-32"/>
       <use xlink:href="#DejaVuSans-2e" transform="translate(63.623047 0)"/>
       <use xlink:href="#DejaVuSans-30" transform="translate(95.410156 0)"/>
       <use xlink:href="#DejaVuSans-30" transform="translate(159.033203 0)"/>
      </g>
     </g>
    </g>
    <g id="text_10">
     <!-- Time -->
     <g transform="translate(213.292031 301.588562) scale(0.1 -0.1)">
      <defs>
       <path id="DejaVuSans-54" d="M -19 4666 
L 3928 4666 
L 3928 4134 
L 2272 4134 
L 2272 0 
L 1638 0 
L 1638 4134 
L -19 4134 
L -19 4666 
z
" transform="scale(0.015625)"/>
       <path id="DejaVuSans-69" d="M 603 3500 
L 1178 3500 
L 1178 0 
L 603 0 
L 603 3500 
z
M 603 4863 
L 1178 4863 
L 1178 4134 
L 603 4134 
L 603 4863 
z
" transform="scale(0.015625)"/>
       <path id="DejaVuSans-6d" d="M 3328 2828 
Q 3544 3216 3844 3400 
Q 4144 3584 4550 3584 
Q 5097 3584 5394 3201 
Q 5691 2819 5691 2113 
L 5691 0 
L 5113 0 
L 5113 2094 
Q 5113 2597 4934 2840 
Q 4756 3084 4391 3084 
Q 3944 3084 3684 2787 
Q 3425 2491 3425 1978 
L 3425 0 
L 2847 0 
L 2847 2094 
Q 2847 2600 2669 2842 
Q 2491 3084 2119 3084 
Q 1678 3084 1418 2786 
Q 1159 2488 1159 1978 
L 1159 0 
L 581 0 
L 581 3500 
L 1159 3500 
L 1159 2956 
Q 1356 3278 1631 3431 
Q 1906 3584 2284 3584 
Q 2666 3584 2933 3390 
Q 3200 3197 3328 2828 
z
" transform="scale(0.015625)"/>
       <path id="DejaVuSans-65" d="M 3597 1894 
L 3597 1613 
L 953 1613 
Q 991 1019 1311 708 
Q 1631 397 2203 397 
Q 2534 397 2845 478 
Q 3156 559 3463 722 
L 3463 178 
Q 3153 47 2828 -22 
Q 2503 -91 2169 -91 
Q 1331 -91 842 396 
Q 353 884 353 1716 
Q 353 2575 817 3079 
Q 1281 3584 2069 3584 
Q 2775 3584 3186 3129 
Q 3597 2675 3597 1894 
z
M 3022 2063 
Q 3016 2534 2758 2815 
Q 2500 3097 2075 3097 
Q 1594 3097 1305 2825 
Q 1016 2553 972 2059 
L 3022 2063 
z
" transform="scale(0.015625)"/>
      </defs>
      <use xlink:href="#DejaVuSans-54"/>
      <use xlink:href="#DejaVuSans-69" transform="translate(57.958984 0)"/>
      <use xlink:href="#DejaVuSans-6d" transform="translate(85.742188 0)"/>
      <use xlink:href="#DejaVuSans-65" transform="translate(183.154297 0)"/>
     </g>
    </g>
   </g>
   <g id="matplotlib.axis_2">
    <g id="ytick_1">
     <g id="line2d_10">
      <defs>
       <path id="m2398263927" d="M 0 0 
L -3.5 0 
" style="stroke: #000000; stroke-width: 0.8"/>
      </defs>
      <g>
       <use xlink:href="#m2398263927" x="46.965625" y="273.312" style="stroke: #000000; stroke-width: 0.8"/>
      </g>
     </g>
     <g id="text_11">
      <!-- 0 -->
      <g transform="translate(33.603125 277.111219) scale(0.1 -0.1)">
       <use xlink:href="#DejaVuSans-30"/>
      </g>
     </g>
    </g>
    <g id="ytick_2">
     <g id="line2d_11">
      <g>
       <use xlink:href="#m2398263927" x="46.965625" y="236.606897" style="stroke: #000000; stroke-width: 0.8"/>
      </g>
     </g>
     <g id="text_12">
      <!-- 20 -->
      <g transform="translate(27.240625 240.406115) scale(0.1 -0.1)">
       <use xlink:href="#DejaVuSans-32"/>
       <use xlink:href="#DejaVuSans-30" transform="translate(63.623047 0)"/>
      </g>
     </g>
    </g>
    <g id="ytick_3">
     <g id="line2d_12">
      <g>
       <use xlink:href="#m2398263927" x="46.965625" y="199.901793" style="stroke: #000000; stroke-width: 0.8"/>
      </g>
     </g>
     <g id="text_13">
      <!-- 40 -->
      <g transform="translate(27.240625 203.701012) scale(0.1 -0.1)">
       <defs>
        <path id="DejaVuSans-34" d="M 2419 4116 
L 825 1625 
L 2419 1625 
L 2419 4116 
z
M 2253 4666 
L 3047 4666 
L 3047 1625 
L 3713 1625 
L 3713 1100 
L 3047 1100 
L 3047 0 
L 2419 0 
L 2419 1100 
L 313 1100 
L 313 1709 
L 2253 4666 
z
" transform="scale(0.015625)"/>
       </defs>
       <use xlink:href="#DejaVuSans-34"/>
       <use xlink:href="#DejaVuSans-30" transform="translate(63.623047 0)"/>
      </g>
     </g>
    </g>
    <g id="ytick_4">
     <g id="line2d_13">
      <g>
       <use xlink:href="#m2398263927" x="46.965625" y="163.19669" style="stroke: #000000; stroke-width: 0.8"/>
      </g>
     </g>
     <g id="text_14">
      <!-- 60 -->
      <g transform="translate(27.240625 166.995908) scale(0.1 -0.1)">
       <defs>
        <path id="DejaVuSans-36" d="M 2113 2584 
Q 1688 2584 1439 2293 
Q 1191 2003 1191 1497 
Q 1191 994 1439 701 
Q 1688 409 2113 409 
Q 2538 409 2786 701 
Q 3034 994 3034 1497 
Q 3034 2003 2786 2293 
Q 2538 2584 2113 2584 
z
M 3366 4563 
L 3366 3988 
Q 3128 4100 2886 4159 
Q 2644 4219 2406 4219 
Q 1781 4219 1451 3797 
Q 1122 3375 1075 2522 
Q 1259 2794 1537 2939 
Q 1816 3084 2150 3084 
Q 2853 3084 3261 2657 
Q 3669 2231 3669 1497 
Q 3669 778 3244 343 
Q 2819 -91 2113 -91 
Q 1303 -91 875 529 
Q 447 1150 447 2328 
Q 447 3434 972 4092 
Q 1497 4750 2381 4750 
Q 2619 4750 2861 4703 
Q 3103 4656 3366 4563 
z
" transform="scale(0.015625)"/>
       </defs>
       <use xlink:href="#DejaVuSans-36"/>
       <use xlink:href="#DejaVuSans-30" transform="translate(63.623047 0)"/>
      </g>
     </g>
    </g>
    <g id="ytick_5">
     <g id="line2d_14">
      <g>
       <use xlink:href="#m2398263927" x="46.965625" y="126.491586" style="stroke: #000000; stroke-width: 0.8"/>
      </g>
     </g>
     <g id="text_15">
      <!-- 80 -->
      <g transform="translate(27.240625 130.290805) scale(0.1 -0.1)">
       <defs>
        <path id="DejaVuSans-38" d="M 2034 2216 
Q 1584 2216 1326 1975 
Q 1069 1734 1069 1313 
Q 1069 891 1326 650 
Q 1584 409 2034 409 
Q 2484 409 2743 651 
Q 3003 894 3003 1313 
Q 3003 1734 2745 1975 
Q 2488 2216 2034 2216 
z
M 1403 2484 
Q 997 2584 770 2862 
Q 544 3141 544 3541 
Q 544 4100 942 4425 
Q 1341 4750 2034 4750 
Q 2731 4750 3128 4425 
Q 3525 4100 3525 3541 
Q 3525 3141 3298 2862 
Q 3072 2584 2669 2484 
Q 3125 2378 3379 2068 
Q 3634 1759 3634 1313 
Q 3634 634 3220 271 
Q 2806 -91 2034 -91 
Q 1263 -91 848 271 
Q 434 634 434 1313 
Q 434 1759 690 2068 
Q 947 2378 1403 2484 
z
M 1172 3481 
Q 1172 3119 1398 2916 
Q 1625 2713 2034 2713 
Q 2441 2713 2670 2916 
Q 2900 3119 2900 3481 
Q 2900 3844 2670 4047 
Q 2441 4250 2034 4250 
Q 1625 4250 1398 4047 
Q 1172 3844 1172 3481 
z
" transform="scale(0.015625)"/>
       </defs>
       <use xlink:href="#DejaVuSans-38"/>
       <use xlink:href="#DejaVuSans-30" transform="translate(63.623047 0)"/>
      </g>
     </g>
    </g>
    <g id="ytick_6">
     <g id="line2d_15">
      <g>
       <use xlink:href="#m2398263927" x="46.965625" y="89.786483" style="stroke: #000000; stroke-width: 0.8"/>
      </g>
     </g>
     <g id="text_16">
      <!-- 100 -->
      <g transform="translate(20.878125 93.585702) scale(0.1 -0.1)">
       <use xlink:href="#DejaVuSans-31"/>
       <use xlink:href="#DejaVuSans-30" transform="translate(63.623047 0)"/>
       <use xlink:href="#DejaVuSans-30" transform="translate(127.246094 0)"/>
      </g>
     </g>
    </g>
    <g id="ytick_7">
     <g id="line2d_16">
      <g>
       <use xlink:href="#m2398263927" x="46.965625" y="53.081379" style="stroke: #000000; stroke-width: 0.8"/>
      </g>
     </g>
     <g id="text_17">
      <!-- 120 -->
      <g transform="translate(20.878125 56.880598) scale(0.1 -0.1)">
       <use xlink:href="#DejaVuSans-31"/>
       <use xlink:href="#DejaVuSans-32" transform="translate(63.623047 0)"/>
       <use xlink:href="#DejaVuSans-30" transform="translate(127.246094 0)"/>
      </g>
     </g>
    </g>
    <g id="ytick_8">
     <g id="line2d_17">
      <g>
       <use xlink:href="#m2398263927" x="46.965625" y="16.376276" style="stroke: #000000; stroke-width: 0.8"/>
      </g>
     </g>
     <g id="text_18">
      <!-- 140 -->
      <g transform="translate(20.878125 20.175495) scale(0.1 -0.1)">
       <use xlink:href="#DejaVuSans-31"/>
       <use xlink:href="#DejaVuSans-34" transform="translate(63.623047 0)"/>
       <use xlink:href="#DejaVuSans-30" transform="translate(127.246094 0)"/>
      </g>
     </g>
    </g>
    <g id="text_19">
     <!-- Observable -->
     <g transform="translate(14.798438 168.766156) rotate(-90) scale(0.1 -0.1)">
      <defs>
       <path id="DejaVuSans-4f" d="M 2522 4238 
Q 1834 4238 1429 3725 
Q 1025 3213 1025 2328 
Q 1025 1447 1429 934 
Q 1834 422 2522 422 
Q 3209 422 3611 934 
Q 4013 1447 4013 2328 
Q 4013 3213 3611 3725 
Q 3209 4238 2522 4238 
z
M 2522 4750 
Q 3503 4750 4090 4092 
Q 4678 3434 4678 2328 
Q 4678 1225 4090 567 
Q 3503 -91 2522 -91 
Q 1538 -91 948 565 
Q 359 1222 359 2328 
Q 359 3434 948 4092 
Q 1538 4750 2522 4750 
z
" transform="scale(0.015625)"/>
       <path id="DejaVuSans-62" d="M 3116 1747 
Q 3116 2381 2855 2742 
Q 2594 3103 2138 3103 
Q 1681 3103 1420 2742 
Q 1159 2381 1159 1747 
Q 1159 1113 1420 752 
Q 1681 391 2138 391 
Q 2594 391 2855 752 
Q 3116 1113 3116 1747 
z
M 1159 2969 
Q 1341 3281 1617 3432 
Q 1894 3584 2278 3584 
Q 2916 3584 3314 3078 
Q 3713 2572 3713 1747 
Q 3713 922 3314 415 
Q 2916 -91 2278 -91 
Q 1894 -91 1617 61 
Q 1341 213 1159 525 
L 1159 0 
L 581 0 
L 581 4863 
L 1159 4863 
L 1159 2969 
z
" transform="scale(0.015625)"/>
       <path id="DejaVuSans-73" d="M 2834 3397 
L 2834 2853 
Q 2591 2978 2328 3040 
Q 2066 3103 1784 3103 
Q 1356 3103 1142 2972 
Q 928 2841 928 2578 
Q 928 2378 1081 2264 
Q 1234 2150 1697 2047 
L 1894 2003 
Q 2506 1872 2764 1633 
Q 3022 1394 3022 966 
Q 3022 478 2636 193 
Q 2250 -91 1575 -91 
Q 1294 -91 989 -36 
Q 684 19 347 128 
L 347 722 
Q 666 556 975 473 
Q 1284 391 1588 391 
Q 1994 391 2212 530 
Q 2431 669 2431 922 
Q 2431 1156 2273 1281 
Q 2116 1406 1581 1522 
L 1381 1569 
Q 847 1681 609 1914 
Q 372 2147 372 2553 
Q 372 3047 722 3315 
Q 1072 3584 1716 3584 
Q 2034 3584 2315 3537 
Q 2597 3491 2834 3397 
z
" transform="scale(0.015625)"/>
       <path id="DejaVuSans-72" d="M 2631 2963 
Q 2534 3019 2420 3045 
Q 2306 3072 2169 3072 
Q 1681 3072 1420 2755 
Q 1159 2438 1159 1844 
L 1159 0 
L 581 0 
L 581 3500 
L 1159 3500 
L 1159 2956 
Q 1341 3275 1631 3429 
Q 1922 3584 2338 3584 
Q 2397 3584 2469 3576 
Q 2541 3569 2628 3553 
L 2631 2963 
z
" transform="scale(0.015625)"/>
       <path id="DejaVuSans-76" d="M 191 3500 
L 800 3500 
L 1894 563 
L 2988 3500 
L 3597 3500 
L 2284 0 
L 1503 0 
L 191 3500 
z
" transform="scale(0.015625)"/>
       <path id="DejaVuSans-61" d="M 2194 1759 
Q 1497 1759 1228 1600 
Q 959 1441 959 1056 
Q 959 750 1161 570 
Q 1363 391 1709 391 
Q 2188 391 2477 730 
Q 2766 1069 2766 1631 
L 2766 1759 
L 2194 1759 
z
M 3341 1997 
L 3341 0 
L 2766 0 
L 2766 531 
Q 2569 213 2275 61 
Q 1981 -91 1556 -91 
Q 1019 -91 701 211 
Q 384 513 384 1019 
Q 384 1609 779 1909 
Q 1175 2209 1959 2209 
L 2766 2209 
L 2766 2266 
Q 2766 2663 2505 2880 
Q 2244 3097 1772 3097 
Q 1472 3097 1187 3025 
Q 903 2953 641 2809 
L 641 3341 
Q 956 3463 1253 3523 
Q 1550 3584 1831 3584 
Q 2591 3584 2966 3190 
Q 3341 2797 3341 1997 
z
" transform="scale(0.015625)"/>
       <path id="DejaVuSans-6c" d="M 603 4863 
L 1178 4863 
L 1178 0 
L 603 0 
L 603 4863 
z
" transform="scale(0.015625)"/>
      </defs>
      <use xlink:href="#DejaVuSans-4f"/>
      <use xlink:href="#DejaVuSans-62" transform="translate(78.710938 0)"/>
      <use xlink:href="#DejaVuSans-73" transform="translate(142.1875 0)"/>
      <use xlink:href="#DejaVuSans-65" transform="translate(194.287109 0)"/>
      <use xlink:href="#DejaVuSans-72" transform="translate(255.810547 0)"/>
      <use xlink:href="#DejaVuSans-76" transform="translate(296.923828 0)"/>
      <use xlink:href="#DejaVuSans-61" transform="translate(356.103516 0)"/>
      <use xlink:href="#DejaVuSans-62" transform="translate(417.382812 0)"/>
      <use xlink:href="#DejaVuSans-6c" transform="translate(480.859375 0)"/>
      <use xlink:href="#DejaVuSans-65" transform="translate(508.642578 0)"/>
     </g>
    </g>
   </g>
   <g id="line2d_18">
    <path d="M 46.965625 273.312 
L 47.107676 256.794703 
L 47.91423 203.572303 
L 48.231881 198.066538 
L 48.276506 192.560772 
L 48.480135 190.725517 
L 48.58734 181.549241 
L 48.927491 174.208221 
L 49.376364 170.53771 
L 49.526775 168.702455 
L 49.601707 163.19669 
L 50.463921 154.020414 
L 50.803527 152.185159 
L 51.263063 139.338372 
L 52.084372 137.503117 
L 52.575132 135.667862 
L 52.591017 133.832607 
L 52.997898 131.997352 
L 53.1289 130.162097 
L 54.276908 128.326841 
L 54.287553 126.491586 
L 54.483133 128.326841 
L 54.602984 126.491586 
L 54.9074 124.656331 
L 55.335304 122.821076 
L 55.378009 120.985821 
L 55.546352 122.821076 
L 55.820904 120.985821 
L 56.1315 122.821076 
L 56.293579 120.985821 
L 57.301973 119.150566 
L 57.45482 120.985821 
L 57.460306 119.150566 
L 58.989145 117.31531 
L 59.175296 119.150566 
L 59.752577 117.31531 
L 60.048979 113.6448 
L 61.017279 109.97429 
L 62.022985 111.809545 
L 62.554454 109.97429 
L 62.701688 108.139034 
L 64.500535 109.97429 
L 66.688286 108.139034 
L 66.71823 109.97429 
L 67.750843 108.139034 
L 67.920789 109.97429 
L 68.355237 108.139034 
L 68.589969 106.303779 
L 69.287816 104.468524 
L 70.823265 102.633269 
L 71.345823 104.468524 
L 72.251947 102.633269 
L 73.67572 100.798014 
L 73.990086 102.633269 
L 75.883435 104.468524 
L 76.910255 106.303779 
L 78.325091 108.139034 
L 78.821687 106.303779 
L 80.825875 108.139034 
L 81.085887 111.809545 
L 83.369072 113.6448 
L 83.695184 115.480055 
L 84.416721 117.31531 
L 85.246483 115.480055 
L 85.631675 113.6448 
L 85.895672 115.480055 
L 86.078228 119.150566 
L 86.50422 117.31531 
L 87.480182 115.480055 
L 87.494401 113.6448 
L 87.923723 111.809545 
L 88.475656 113.6448 
L 90.271334 115.480055 
L 90.68666 113.6448 
L 92.440728 111.809545 
L 92.855558 109.97429 
L 94.726844 111.809545 
L 95.651942 113.6448 
L 95.937112 111.809545 
L 97.13855 113.6448 
L 98.801783 111.809545 
L 98.900818 113.6448 
L 98.902903 111.809545 
L 99.285143 109.97429 
L 100.455414 108.139034 
L 100.482036 109.97429 
L 100.707573 108.139034 
L 102.27596 106.303779 
L 103.269539 108.139034 
L 103.345409 109.97429 
L 103.678486 111.809545 
L 103.681899 109.97429 
L 104.567966 111.809545 
L 106.561608 109.97429 
L 106.943209 108.139034 
L 108.508875 106.303779 
L 109.789048 104.468524 
L 110.812071 106.303779 
L 111.314408 108.139034 
L 111.698751 109.97429 
L 112.241726 108.139034 
L 116.099471 106.303779 
L 116.604123 108.139034 
L 116.702772 106.303779 
L 118.626201 104.468524 
L 119.595172 102.633269 
L 119.719902 104.468524 
L 120.547801 106.303779 
L 120.866162 104.468524 
L 121.229665 106.303779 
L 121.241083 108.139034 
L 122.58923 109.97429 
L 123.251818 111.809545 
L 123.703907 113.6448 
L 124.322399 115.480055 
L 124.650653 117.31531 
L 125.848005 115.480055 
L 127.669677 113.6448 
L 128.883337 111.809545 
L 129.258509 113.6448 
L 130.798715 111.809545 
L 130.874334 113.6448 
L 131.609258 111.809545 
L 132.106378 109.97429 
L 133.11905 108.139034 
L 133.550657 106.303779 
L 134.268986 104.468524 
L 137.154816 102.633269 
L 139.302698 100.798014 
L 139.846931 102.633269 
L 140.732205 104.468524 
L 143.699163 102.633269 
L 143.755736 100.798014 
L 143.862921 102.633269 
L 144.400336 100.798014 
L 145.991113 102.633269 
L 147.03291 100.798014 
L 148.933282 102.633269 
L 151.796616 104.468524 
L 154.868149 102.633269 
L 155.9673 100.798014 
L 156.572796 102.633269 
L 157.784165 104.468524 
L 159.617528 106.303779 
L 159.937532 108.139034 
L 162.639743 109.97429 
L 164.437874 108.139034 
L 164.90375 109.97429 
L 165.80613 111.809545 
L 167.417987 108.139034 
L 173.847083 106.303779 
L 174.879137 108.139034 
L 175.798244 106.303779 
L 175.858721 108.139034 
L 176.621039 106.303779 
L 176.975892 104.468524 
L 177.139153 106.303779 
L 177.2248 104.468524 
L 179.206146 106.303779 
L 179.672129 104.468524 
L 180.619589 102.633269 
L 182.785535 104.468524 
L 183.423402 106.303779 
L 184.674018 108.139034 
L 184.98201 106.303779 
L 187.643867 104.468524 
L 188.11542 106.303779 
L 189.57552 104.468524 
L 193.451654 106.303779 
L 193.45937 108.139034 
L 194.490096 109.97429 
L 194.751619 108.139034 
L 195.203046 106.303779 
L 196.085203 108.139034 
L 196.470572 106.303779 
L 196.660594 108.139034 
L 196.885606 106.303779 
L 197.079553 108.139034 
L 197.494272 109.97429 
L 198.488828 108.139034 
L 198.782938 106.303779 
L 200.593679 108.139034 
L 200.657846 109.97429 
L 201.986171 111.809545 
L 204.568136 109.97429 
L 207.289122 111.809545 
L 208.227113 109.97429 
L 208.935483 108.139034 
L 209.217062 109.97429 
L 209.665441 111.809545 
L 210.80369 109.97429 
L 211.410623 108.139034 
L 212.723185 106.303779 
L 213.240024 108.139034 
L 213.568386 109.97429 
L 216.30891 106.303779 
L 219.982867 104.468524 
L 220.07586 106.303779 
L 221.061949 108.139034 
L 221.663672 109.97429 
L 222.098915 108.139034 
L 223.486506 109.97429 
L 224.033953 111.809545 
L 224.54823 109.97429 
L 225.275334 108.139034 
L 225.400316 100.798014 
L 225.526063 98.962759 
L 225.586467 95.292248 
L 225.730937 91.621738 
L 225.975184 82.445462 
L 226.215953 80.610207 
L 226.291425 75.104441 
L 226.473538 73.269186 
L 226.793188 71.433931 
L 227.239731 69.598676 
L 227.422165 64.09291 
L 227.597356 62.257655 
L 228.072227 60.4224 
L 228.137779 58.587145 
L 228.415168 56.75189 
L 228.854182 43.905103 
L 228.944021 42.069848 
L 229.607518 40.234593 
L 229.84729 38.399338 
L 229.974601 36.564083 
L 231.142635 34.728828 
L 231.789826 31.058317 
L 231.913747 29.223062 
L 232.438943 27.387807 
L 232.572932 25.552552 
L 233.00293 27.387807 
L 233.096494 29.223062 
L 234.344747 27.387807 
L 234.692504 29.223062 
L 235.656125 27.387807 
L 235.808958 25.552552 
L 236.085094 23.717297 
L 237.621054 21.882041 
L 237.88299 20.046786 
L 238.468181 21.882041 
L 239.33228 20.046786 
L 239.769625 21.882041 
L 240.084244 23.717297 
L 240.585296 21.882041 
L 240.61616 23.717297 
L 240.893495 25.552552 
L 241.144373 23.717297 
L 241.391322 20.046786 
L 242.647098 21.882041 
L 242.914672 20.046786 
L 243.879483 18.211531 
L 244.680348 16.376276 
L 245.133739 12.705766 
L 246.437173 10.87051 
L 247.629502 12.705766 
L 248.531878 14.541021 
L 249.73976 12.705766 
L 249.766433 14.541021 
L 250.657448 16.376276 
L 251.204386 14.541021 
L 252.517013 16.376276 
L 255.471646 14.541021 
L 256.830097 16.376276 
L 257.248328 14.541021 
L 260.358363 12.705766 
L 261.162151 14.541021 
L 261.500606 16.376276 
L 263.608981 14.541021 
L 263.780059 12.705766 
L 264.388863 14.541021 
L 267.287353 16.376276 
L 267.596925 18.211531 
L 270.71663 16.376276 
L 271.109543 18.211531 
L 272.758025 16.376276 
L 273.17212 18.211531 
L 273.899208 20.046786 
L 275.012115 18.211531 
L 275.023479 16.376276 
L 275.39589 14.541021 
L 276.74172 16.376276 
L 277.540719 18.211531 
L 278.063895 20.046786 
L 280.294585 18.211531 
L 281.13324 20.046786 
L 282.305932 21.882041 
L 282.518768 20.046786 
L 284.29819 18.211531 
L 284.475626 16.376276 
L 285.025634 18.211531 
L 285.026008 20.046786 
L 286.060658 21.882041 
L 288.255132 20.046786 
L 289.758616 16.376276 
L 290.08603 14.541021 
L 290.11353 16.376276 
L 290.222285 14.541021 
L 290.954659 16.376276 
L 291.950297 14.541021 
L 294.39401 12.705766 
L 295.613082 14.541021 
L 296.227145 16.376276 
L 298.048113 18.211531 
L 298.544688 20.046786 
L 298.760303 18.211531 
L 298.817352 20.046786 
L 299.850702 21.882041 
L 300.386376 23.717297 
L 300.522468 25.552552 
L 300.808983 23.717297 
L 302.156547 25.552552 
L 302.416333 27.387807 
L 302.524216 29.223062 
L 302.581822 27.387807 
L 302.863345 29.223062 
L 303.687706 27.387807 
L 304.033519 25.552552 
L 304.661661 27.387807 
L 304.97133 25.552552 
L 305.168336 27.387807 
L 305.454897 25.552552 
L 305.916643 23.717297 
L 306.074221 25.552552 
L 306.513765 27.387807 
L 306.5221 25.552552 
L 307.708341 27.387807 
L 307.763322 25.552552 
L 307.792034 27.387807 
L 308.822347 25.552552 
L 310.318946 23.717297 
L 310.448619 21.882041 
L 310.497134 23.717297 
L 311.608753 21.882041 
L 311.614021 23.717297 
L 311.889334 21.882041 
L 312.092417 18.211531 
L 312.447667 16.376276 
L 314.908908 14.541021 
L 315.873676 16.376276 
L 316.268904 18.211531 
L 317.813496 16.376276 
L 318.085266 18.211531 
L 320.330513 20.046786 
L 320.35492 18.211531 
L 322.257467 16.376276 
L 323.187772 14.541021 
L 323.743143 16.376276 
L 326.98123 18.211531 
L 327.158932 21.882041 
L 327.445826 23.717297 
L 327.458317 25.552552 
L 328.82215 23.717297 
L 329.227969 21.882041 
L 329.812723 23.717297 
L 329.919605 20.046786 
L 329.959602 18.211531 
L 330.451534 16.376276 
L 331.045507 18.211531 
L 332.364061 20.046786 
L 332.386274 18.211531 
L 332.639294 20.046786 
L 333.118307 18.211531 
L 333.246959 16.376276 
L 333.5918 18.211531 
L 334.031216 16.376276 
L 334.521465 18.211531 
L 335.136244 16.376276 
L 336.292541 18.211531 
L 336.686074 20.046786 
L 338.332638 21.882041 
L 338.547129 20.046786 
L 340.499122 18.211531 
L 341.108471 16.376276 
L 341.896998 18.211531 
L 342.370282 20.046786 
L 342.407726 18.211531 
L 343.304053 20.046786 
L 344.911821 18.211531 
L 344.977102 14.541021 
L 345.305164 12.705766 
L 347.898082 14.541021 
L 348.325862 12.705766 
L 348.749399 16.376276 
L 348.953181 14.541021 
L 349.296737 12.705766 
L 350.311698 14.541021 
L 351.039206 12.705766 
L 351.506917 10.87051 
L 352.859469 9.035255 
L 353.326696 7.2 
L 356.311545 9.035255 
L 356.803347 10.87051 
L 356.867246 12.705766 
L 357.22694 16.376276 
L 359.328139 12.705766 
L 360.034322 14.541021 
L 360.334974 12.705766 
L 360.688443 14.541021 
L 362.211218 16.376276 
L 362.809595 14.541021 
L 363.442154 16.376276 
L 363.578187 14.541021 
L 364.025508 16.376276 
L 364.926915 18.211531 
L 365.325304 16.376276 
L 366.2222 18.211531 
L 366.422325 20.046786 
L 366.905253 21.882041 
L 367.71997 20.046786 
L 368.034334 21.882041 
L 369.542191 20.046786 
L 369.545814 18.211531 
L 370.15997 20.046786 
L 372.630942 21.882041 
L 373.111099 20.046786 
L 373.452508 18.211531 
L 374.24538 16.376276 
L 374.601275 14.541021 
L 376.277062 16.376276 
L 376.560915 18.211531 
L 377.157894 20.046786 
L 377.24562 21.882041 
L 377.709756 23.717297 
L 378.28249 21.882041 
L 378.526599 20.046786 
L 379.873908 21.882041 
L 380.076052 20.046786 
L 382.717269 18.211531 
L 383.29721 16.376276 
L 383.890347 18.211531 
L 384.888885 16.376276 
L 385.392881 18.211531 
L 386.35327 20.046786 
L 387.067731 18.211531 
L 387.419396 16.376276 
L 390.369625 14.541021 
L 391.389147 16.376276 
L 392.376948 14.541021 
L 392.825588 16.376276 
L 393.036808 18.211531 
L 393.905299 20.046786 
L 396.440256 14.541021 
L 397.837452 12.705766 
L 400.648852 10.87051 
L 402.136601 9.035255 
L 402.494324 10.87051 
L 402.586791 12.705766 
L 404.085625 10.87051 
L 404.085625 10.87051 
" clip-path="url(#p08f308bbf4)" style="fill: none; stroke: #1f77b4; stroke-width: 1.5; stroke-linecap: square"/>
   </g>
   <g id="line2d_19">
    <path d="M 225.28438 165.031945 
L 225.526063 172.372966 
L 225.586467 176.043476 
L 225.730937 179.713986 
L 225.975184 188.890262 
L 226.215953 190.725517 
L 226.291425 196.231283 
L 226.473538 198.066538 
L 226.793188 199.901793 
L 227.239731 201.737048 
L 227.422165 207.242814 
L 227.597356 209.078069 
L 228.072227 210.913324 
L 228.137779 212.748579 
L 228.415168 214.583834 
L 228.854182 227.430621 
L 228.944021 229.265876 
L 229.607518 231.101131 
L 229.84729 232.936386 
L 229.974601 234.771641 
L 231.142635 236.606897 
L 231.789826 240.277407 
L 231.913747 242.112662 
L 232.438943 243.947917 
L 232.572932 245.783172 
L 233.00293 243.947917 
L 233.096494 242.112662 
L 234.344747 243.947917 
L 234.692504 242.112662 
L 235.656125 243.947917 
L 235.808958 245.783172 
L 236.085094 247.618428 
L 237.621054 249.453683 
L 237.88299 251.288938 
L 238.468181 249.453683 
L 239.33228 251.288938 
L 239.769625 249.453683 
L 240.084244 247.618428 
L 240.585296 249.453683 
L 240.61616 247.618428 
L 240.893495 245.783172 
L 241.144373 247.618428 
L 241.391322 251.288938 
L 242.647098 249.453683 
L 242.914672 251.288938 
L 243.879483 253.124193 
L 244.680348 254.959448 
L 245.133739 258.629959 
L 246.437173 260.465214 
L 247.629502 258.629959 
L 248.531878 256.794703 
L 249.73976 258.629959 
L 249.766433 256.794703 
L 250.657448 254.959448 
L 251.204386 256.794703 
L 252.517013 254.959448 
L 255.471646 256.794703 
L 256.830097 254.959448 
L 257.248328 256.794703 
L 260.358363 258.629959 
L 261.162151 256.794703 
L 261.500606 254.959448 
L 263.608981 256.794703 
L 263.780059 258.629959 
L 264.388863 256.794703 
L 267.287353 254.959448 
L 267.596925 253.124193 
L 270.71663 254.959448 
L 271.109543 253.124193 
L 272.758025 254.959448 
L 273.17212 253.124193 
L 273.899208 251.288938 
L 275.012115 253.124193 
L 275.023479 254.959448 
L 275.39589 256.794703 
L 276.74172 254.959448 
L 277.540719 253.124193 
L 278.063895 251.288938 
L 280.294585 253.124193 
L 281.13324 251.288938 
L 282.305932 249.453683 
L 282.518768 251.288938 
L 284.29819 253.124193 
L 284.475626 254.959448 
L 285.025634 253.124193 
L 285.026008 251.288938 
L 286.060658 249.453683 
L 288.255132 251.288938 
L 289.758616 254.959448 
L 290.08603 256.794703 
L 290.11353 254.959448 
L 290.222285 256.794703 
L 290.954659 254.959448 
L 291.950297 256.794703 
L 294.39401 258.629959 
L 295.613082 256.794703 
L 296.227145 254.959448 
L 298.048113 253.124193 
L 298.544688 251.288938 
L 298.760303 253.124193 
L 298.817352 251.288938 
L 299.850702 249.453683 
L 300.386376 247.618428 
L 300.522468 245.783172 
L 300.808983 247.618428 
L 302.156547 245.783172 
L 302.416333 243.947917 
L 302.524216 242.112662 
L 302.581822 243.947917 
L 302.863345 242.112662 
L 303.687706 243.947917 
L 304.033519 245.783172 
L 304.661661 243.947917 
L 304.97133 245.783172 
L 305.168336 243.947917 
L 305.454897 245.783172 
L 305.916643 247.618428 
L 306.074221 245.783172 
L 306.513765 243.947917 
L 306.5221 245.783172 
L 307.708341 243.947917 
L 307.763322 245.783172 
L 307.792034 243.947917 
L 308.822347 245.783172 
L 310.318946 247.618428 
L 310.448619 249.453683 
L 310.497134 247.618428 
L 311.608753 249.453683 
L 311.614021 247.618428 
L 311.889334 249.453683 
L 312.092417 253.124193 
L 312.447667 254.959448 
L 314.908908 256.794703 
L 315.873676 254.959448 
L 316.268904 253.124193 
L 317.813496 254.959448 
L 318.085266 253.124193 
L 320.330513 251.288938 
L 320.35492 253.124193 
L 322.257467 254.959448 
L 323.187772 256.794703 
L 323.743143 254.959448 
L 326.98123 253.124193 
L 327.158932 249.453683 
L 327.445826 247.618428 
L 327.458317 245.783172 
L 328.82215 247.618428 
L 329.227969 249.453683 
L 329.812723 247.618428 
L 329.919605 251.288938 
L 329.959602 253.124193 
L 330.451534 254.959448 
L 331.045507 253.124193 
L 332.364061 251.288938 
L 332.386274 253.124193 
L 332.639294 251.288938 
L 333.118307 253.124193 
L 333.246959 254.959448 
L 333.5918 253.124193 
L 334.031216 254.959448 
L 334.521465 253.124193 
L 335.136244 254.959448 
L 336.292541 253.124193 
L 336.686074 251.288938 
L 338.332638 249.453683 
L 338.547129 251.288938 
L 340.499122 253.124193 
L 341.108471 254.959448 
L 341.896998 253.124193 
L 342.370282 251.288938 
L 342.407726 253.124193 
L 343.304053 251.288938 
L 344.911821 253.124193 
L 344.977102 256.794703 
L 345.305164 258.629959 
L 347.898082 256.794703 
L 348.325862 258.629959 
L 348.749399 254.959448 
L 348.953181 256.794703 
L 349.296737 258.629959 
L 350.311698 256.794703 
L 351.039206 258.629959 
L 351.506917 260.465214 
L 352.859469 262.300469 
L 353.326696 264.135724 
L 356.311545 262.300469 
L 356.803347 260.465214 
L 356.867246 258.629959 
L 357.22694 254.959448 
L 359.328139 258.629959 
L 360.034322 256.794703 
L 360.334974 258.629959 
L 360.688443 256.794703 
L 362.211218 254.959448 
L 362.809595 256.794703 
L 363.442154 254.959448 
L 363.578187 256.794703 
L 364.025508 254.959448 
L 364.926915 253.124193 
L 365.325304 254.959448 
L 366.2222 253.124193 
L 366.422325 251.288938 
L 366.905253 249.453683 
L 367.71997 251.288938 
L 368.034334 249.453683 
L 369.542191 251.288938 
L 369.545814 253.124193 
L 370.15997 251.288938 
L 372.630942 249.453683 
L 373.111099 251.288938 
L 373.452508 253.124193 
L 374.24538 254.959448 
L 374.601275 256.794703 
L 376.277062 254.959448 
L 376.560915 253.124193 
L 377.157894 251.288938 
L 377.24562 249.453683 
L 377.709756 247.618428 
L 378.28249 249.453683 
L 378.526599 251.288938 
L 379.873908 249.453683 
L 380.076052 251.288938 
L 382.717269 253.124193 
L 383.29721 254.959448 
L 383.890347 253.124193 
L 384.888885 254.959448 
L 385.392881 253.124193 
L 386.35327 251.288938 
L 387.067731 253.124193 
L 387.419396 254.959448 
L 390.369625 256.794703 
L 391.389147 254.959448 
L 392.376948 256.794703 
L 392.825588 254.959448 
L 393.036808 253.124193 
L 393.905299 251.288938 
L 396.440256 256.794703 
L 397.837452 258.629959 
L 400.648852 260.465214 
L 402.136601 262.300469 
L 402.494324 260.465214 
L 402.586791 258.629959 
L 404.085625 260.465214 
L 404.085625 260.465214 
" clip-path="url(#p08f308bbf4)" style="fill: none; stroke: #ff7f0e; stroke-width: 1.5; stroke-linecap: square"/>
   </g>
   <g id="line2d_20">
    <path d="M 225.275334 273.312 
L 225.275334 7.2 
" clip-path="url(#p08f308bbf4)" style="fill: none; stroke-dasharray: 1.5,2.475; stroke-dashoffset: 0; stroke: #000000; stroke-width: 1.5"/>
   </g>
   <g id="line2d_21">
    <path d="M 244.680348 273.312 
L 244.680348 7.2 
" clip-path="url(#p08f308bbf4)" style="fill: none; stroke-dasharray: 1.5,2.475; stroke-dashoffset: 0; stroke: #000000; stroke-width: 1.5"/>
   </g>
   <g id="line2d_22">
    <path d="M 402.857884 273.312 
L 402.857884 7.2 
" clip-path="url(#p08f308bbf4)" style="fill: none; stroke-dasharray: 1.5,2.475; stroke-dashoffset: 0; stroke: #000000; stroke-width: 1.5"/>
   </g>
   <g id="patch_3">
    <path d="M 46.965625 273.312 
L 46.965625 7.2 
" style="fill: none; stroke: #000000; stroke-width: 0.8; stroke-linejoin: miter; stroke-linecap: square"/>
   </g>
   <g id="patch_4">
    <path d="M 404.085625 273.312 
L 404.085625 7.2 
" style="fill: none; stroke: #000000; stroke-width: 0.8; stroke-linejoin: miter; stroke-linecap: square"/>
   </g>
   <g id="patch_5">
    <path d="M 46.965625 273.312 
L 404.085625 273.312 
" style="fill: none; stroke: #000000; stroke-width: 0.8; stroke-linejoin: miter; stroke-linecap: square"/>
   </g>
   <g id="patch_6">
    <path d="M 46.965625 7.2 
L 404.085625 7.2 
" style="fill: none; stroke: #000000; stroke-width: 0.8; stroke-linejoin: miter; stroke-linecap: square"/>
   </g>
   <g id="legend_1">
    <g id="patch_7">
     <path d="M 53.965625 44.55625 
L 99.667188 44.55625 
Q 101.667188 44.55625 101.667188 42.55625 
L 101.667188 14.2 
Q 101.667188 12.2 99.667188 12.2 
L 53.965625 12.2 
Q 51.965625 12.2 51.965625 14.2 
L 51.965625 42.55625 
Q 51.965625 44.55625 53.965625 44.55625 
z
" style="fill: #ffffff; opacity: 0.8; stroke: #cccccc; stroke-linejoin: miter"/>
    </g>
    <g id="line2d_23">
     <path d="M 55.965625 20.298437 
L 65.965625 20.298437 
L 75.965625 20.298437 
" style="fill: none; stroke: #1f77b4; stroke-width: 1.5; stroke-linecap: square"/>
    </g>
    <g id="text_20">
     <!-- AB -->
     <g transform="translate(83.965625 23.798437) scale(0.1 -0.1)">
      <defs>
       <path id="DejaVuSans-41" d="M 2188 4044 
L 1331 1722 
L 3047 1722 
L 2188 4044 
z
M 1831 4666 
L 2547 4666 
L 4325 0 
L 3669 0 
L 3244 1197 
L 1141 1197 
L 716 0 
L 50 0 
L 1831 4666 
z
" transform="scale(0.015625)"/>
       <path id="DejaVuSans-42" d="M 1259 2228 
L 1259 519 
L 2272 519 
Q 2781 519 3026 730 
Q 3272 941 3272 1375 
Q 3272 1813 3026 2020 
Q 2781 2228 2272 2228 
L 1259 2228 
z
M 1259 4147 
L 1259 2741 
L 2194 2741 
Q 2656 2741 2882 2914 
Q 3109 3088 3109 3444 
Q 3109 3797 2882 3972 
Q 2656 4147 2194 4147 
L 1259 4147 
z
M 628 4666 
L 2241 4666 
Q 2963 4666 3353 4366 
Q 3744 4066 3744 3513 
Q 3744 3084 3544 2831 
Q 3344 2578 2956 2516 
Q 3422 2416 3680 2098 
Q 3938 1781 3938 1306 
Q 3938 681 3513 340 
Q 3088 0 2303 0 
L 628 0 
L 628 4666 
z
" transform="scale(0.015625)"/>
      </defs>
      <use xlink:href="#DejaVuSans-41"/>
      <use xlink:href="#DejaVuSans-42" transform="translate(68.408203 0)"/>
     </g>
    </g>
    <g id="line2d_24">
     <path d="M 55.965625 34.976562 
L 65.965625 34.976562 
L 75.965625 34.976562 
" style="fill: none; stroke: #ff7f0e; stroke-width: 1.5; stroke-linecap: square"/>
    </g>
    <g id="text_21">
     <!-- A -->
     <g transform="translate(83.965625 38.476562) scale(0.1 -0.1)">
      <use xlink:href="#DejaVuSans-41"/>
     </g>
    </g>
   </g>
  </g>
 </g>
 <defs>
  <clipPath id="p08f308bbf4">
   <rect x="46.965625" y="7.2" width="357.12" height="266.112"/>
  </clipPath>
 </defs>
</svg>
