<?xml version="1.0" encoding="utf-8" standalone="no"?>
<!DOCTYPE svg PUBLIC "-//W3C//DTD SVG 1.1//EN"
  "http://www.w3.org/Graphics/SVG/1.1/DTD/svg11.dtd">
<svg xmlns:xlink="http://www.w3.org/1999/xlink" width="420.247993pt" height="310.86825pt" viewBox="0 0 420.247993 310.86825" xmlns="http://www.w3.org/2000/svg" version="1.1">
 <metadata>
  <rdf:RDF xmlns:dc="http://purl.org/dc/elements/1.1/" xmlns:cc="http://creativecommons.org/ns#" xmlns:rdf="http://www.w3.org/1999/02/22-rdf-syntax-ns#">
   <cc:Work>
    <dc:type rdf:resource="http://purl.org/dc/dcmitype/StillImage"/>
    <dc:date>2026-05-15T19:01:51.456824</dc:date>
    <dc:format>image/svg+xml</dc:format>
    <dc:creator>
     <cc:Agent>
      <dc:title>Matplotlib v3.10.9, https://matplotlib.org/</dc:title>
     </cc:Agent>
    </dc:creator>
   </cc:Work>
  </rdf:RDF>
 </metadata>
 <defs>
  <style type="text/css">*{stroke-linejoin: round; stroke-linecap: butt}</style>
 </defs>
 <g id="figure_1">
  <g id="patch_1">
   <path d="M 0 310.86825 
L 420.247993 310.86825 
L 420.247993 0 
L 0 0 
z
" style="fill: #ffffff"/>
  </g>
  <g id="axes_1">
   <g id="patch_2">
    <path d="M 46.965625 273.312 
L 404.085625 273.312 
L 404.085625 7.2 
L 46.965625 7.2 
z
" style="fill: #ffffff"/>
   </g>
   <g id="matplotlib.axis_1">
    <g id="xtick_1">
     <g id="line2d_1">
      <defs>
       <path id="md722be67de" d="M 0 0 
L 0 3.5 
" style="stroke: #000000; stroke-width: 0.8"/>
      </defs>
      <g>
       <use xlink:href="#md722be67de" x="46.965625" y="273.312" style="stroke: #000000; stroke-width: 0.8"/>
      </g>
     </g>
     <g id="text_1">
      <!-- 0.00 -->
      <g transform="translate(35.832813 287.910437) scale(0.1 -0.1)">
       <defs>
        <path id="DejaVuSans-30" d="M 2034 4250 
Q 1547 4250 1301 3770 
Q 1056 3291 1056 2328 
Q 1056 1369 1301 889 
Q 1547 409 2034 409 
Q 2525 409 2770 889 
Q 3016 1369 3016 2328 
Q 3016 3291 2770 3770 
Q 2525 4250 2034 4250 
z
M 2034 4750 
Q 2819 4750 3233 4129 
Q 3647 3509 3647 2328 
Q 3647 1150 3233 529 
Q 2819 -91 2034 -91 
Q 1250 -91 836 529 
Q 422 1150 422 2328 
Q 422 3509 836 4129 
Q 1250 4750 2034 4750 
z
" transform="scale(0.015625)"/>
        <path id="DejaVuSans-2e" d="M 684 794 
L 1344 794 
L 1344 0 
L 684 0 
L 684 794 
z
" transform="scale(0.015625)"/>
       </defs>
       <use xlink:href="#DejaVuSans-30"/>
       <use xlink:href="#DejaVuSans-2e" transform="translate(63.623047 0)"/>
       <use xlink:href="#DejaVuSans-30" transform="translate(95.410156 0)"/>
       <use xlink:href="#DejaVuSans-30" transform="translate(159.033203 0)"/>
      </g>
     </g>
    </g>
    <g id="xtick_2">
     <g id="line2d_2">
      <g>
       <use xlink:href="#md722be67de" x="91.334319" y="273.312" style="stroke: #000000; stroke-width: 0.8"/>
      </g>
     </g>
     <g id="text_2">
      <!-- 0.25 -->
      <g transform="translate(80.201507 287.910437) scale(0.1 -0.1)">
       <defs>
        <path id="DejaVuSans-32" d="M 1228 531 
L 3431 531 
L 3431 0 
L 469 0 
L 469 531 
Q 828 903 1448 1529 
Q 2069 2156 2228 2338 
Q 2531 2678 2651 2914 
Q 2772 3150 2772 3378 
Q 2772 3750 2511 3984 
Q 2250 4219 1831 4219 
Q 1534 4219 1204 4116 
Q 875 4013 500 3803 
L 500 4441 
Q 881 4594 1212 4672 
Q 1544 4750 1819 4750 
Q 2544 4750 2975 4387 
Q 3406 4025 3406 3419 
Q 3406 3131 3298 2873 
Q 3191 2616 2906 2266 
Q 2828 2175 2409 1742 
Q 1991 1309 1228 531 
z
" transform="scale(0.015625)"/>
        <path id="DejaVuSans-35" d="M 691 4666 
L 3169 4666 
L 3169 4134 
L 1269 4134 
L 1269 2991 
Q 1406 3038 1543 3061 
Q 1681 3084 1819 3084 
Q 2600 3084 3056 2656 
Q 3513 2228 3513 1497 
Q 3513 744 3044 326 
Q 2575 -91 1722 -91 
Q 1428 -91 1123 -41 
Q 819 9 494 109 
L 494 744 
Q 775 591 1075 516 
Q 1375 441 1709 441 
Q 2250 441 2565 725 
Q 2881 1009 2881 1497 
Q 2881 1984 2565 2268 
Q 2250 2553 1709 2553 
Q 1456 2553 1204 2497 
Q 953 2441 691 2322 
L 691 4666 
z
" transform="scale(0.015625)"/>
       </defs>
       <use xlink:href="#DejaVuSans-30"/>
       <use xlink:href="#DejaVuSans-2e" transform="translate(63.623047 0)"/>
       <use xlink:href="#DejaVuSans-32" transform="translate(95.410156 0)"/>
       <use xlink:href="#DejaVuSans-35" transform="translate(159.033203 0)"/>
      </g>
     </g>
    </g>
    <g id="xtick_3">
     <g id="line2d_3">
      <g>
       <use xlink:href="#md722be67de" x="135.703014" y="273.312" style="stroke: #000000; stroke-width: 0.8"/>
      </g>
     </g>
     <g id="text_3">
      <!-- 0.50 -->
      <g transform="translate(124.570201 287.910437) scale(0.1 -0.1)">
       <use xlink:href="#DejaVuSans-30"/>
       <use xlink:href="#DejaVuSans-2e" transform="translate(63.623047 0)"/>
       <use xlink:href="#DejaVuSans-35" transform="translate(95.410156 0)"/>
       <use xlink:href="#DejaVuSans-30" transform="translate(159.033203 0)"/>
      </g>
     </g>
    </g>
    <g id="xtick_4">
     <g id="line2d_4">
      <g>
       <use xlink:href="#md722be67de" x="180.071708" y="273.312" style="stroke: #000000; stroke-width: 0.8"/>
      </g>
     </g>
     <g id="text_4">
      <!-- 0.75 -->
      <g transform="translate(168.938896 287.910437) scale(0.1 -0.1)">
       <defs>
        <path id="DejaVuSans-37" d="M 525 4666 
L 3525 4666 
L 3525 4397 
L 1831 0 
L 1172 0 
L 2766 4134 
L 525 4134 
L 525 4666 
z
" transform="scale(0.015625)"/>
       </defs>
       <use xlink:href="#DejaVuSans-30"/>
       <use xlink:href="#DejaVuSans-2e" transform="translate(63.623047 0)"/>
       <use xlink:href="#DejaVuSans-37" transform="translate(95.410156 0)"/>
       <use xlink:href="#DejaVuSans-35" transform="translate(159.033203 0)"/>
      </g>
     </g>
    </g>
    <g id="xtick_5">
     <g id="line2d_5">
      <g>
       <use xlink:href="#md722be67de" x="224.440403" y="273.312" style="stroke: #000000; stroke-width: 0.8"/>
      </g>
     </g>
     <g id="text_5">
      <!-- 1.00 -->
      <g transform="translate(213.30759 287.910437) scale(0.1 -0.1)">
       <defs>
        <path id="DejaVuSans-31" d="M 794 531 
L 1825 531 
L 1825 4091 
L 703 3866 
L 703 4441 
L 1819 4666 
L 2450 4666 
L 2450 531 
L 3481 531 
L 3481 0 
L 794 0 
L 794 531 
z
" transform="scale(0.015625)"/>
       </defs>
       <use xlink:href="#DejaVuSans-31"/>
       <use xlink:href="#DejaVuSans-2e" transform="translate(63.623047 0)"/>
       <use xlink:href="#DejaVuSans-30" transform="translate(95.410156 0)"/>
       <use xlink:href="#DejaVuSans-30" transform="translate(159.033203 0)"/>
      </g>
     </g>
    </g>
    <g id="xtick_6">
     <g id="line2d_6">
      <g>
       <use xlink:href="#md722be67de" x="268.809097" y="273.312" style="stroke: #000000; stroke-width: 0.8"/>
      </g>
     </g>
     <g id="text_6">
      <!-- 1.25 -->
      <g transform="translate(257.676285 287.910437) scale(0.1 -0.1)">
       <use xlink:href="#DejaVuSans-31"/>
       <use xlink:href="#DejaVuSans-2e" transform="translate(63.623047 0)"/>
       <use xlink:href="#DejaVuSans-32" transform="translate(95.410156 0)"/>
       <use xlink:href="#DejaVuSans-35" transform="translate(159.033203 0)"/>
      </g>
     </g>
    </g>
    <g id="xtick_7">
     <g id="line2d_7">
      <g>
       <use xlink:href="#md722be67de" x="313.177792" y="273.312" style="stroke: #000000; stroke-width: 0.8"/>
      </g>
     </g>
     <g id="text_7">
      <!-- 1.50 -->
      <g transform="translate(302.044979 287.910437) scale(0.1 -0.1)">
       <use xlink:href="#DejaVuSans-31"/>
       <use xlink:href="#DejaVuSans-2e" transform="translate(63.623047 0)"/>
       <use xlink:href="#DejaVuSans-35" transform="translate(95.410156 0)"/>
       <use xlink:href="#DejaVuSans-30" transform="translate(159.033203 0)"/>
      </g>
     </g>
    </g>
    <g id="xtick_8">
     <g id="line2d_8">
      <g>
       <use xlink:href="#md722be67de" x="357.546486" y="273.312" style="stroke: #000000; stroke-width: 0.8"/>
      </g>
     </g>
     <g id="text_8">
      <!-- 1.75 -->
      <g transform="translate(346.413674 287.910437) scale(0.1 -0.1)">
       <use xlink:href="#DejaVuSans-31"/>
       <use xlink:href="#DejaVuSans-2e" transform="translate(63.623047 0)"/>
       <use xlink:href="#DejaVuSans-37" transform="translate(95.410156 0)"/>
       <use xlink:href="#DejaVuSans-35" transform="translate(159.033203 0)"/>
      </g>
     </g>
    </g>
    <g id="xtick_9">
     <g id="line2d_9">
      <g>
       <use xlink:href="#md722be67de" x="401.91518" y="273.312" style="stroke: #000000; stroke-width: 0.8"/>
      </g>
     </g>
     <g id="text_9">
      <!-- 2.00 -->
      <g transform="translate(390.782368 287.910437) scale(0.1 -0.1)">
       <use xlink:href="#DejaVuSans-32"/>
       <use xlink:href="#DejaVuSans-2e" transform="translate(63.623047 0)"/>
       <use xlink:href="#DejaVuSans-30" transform="translate(95.410156 0)"/>
       <use xlink:href="#DejaVuSans-30" transform="translate(159.033203 0)"/>
      </g>
     </g>
    </g>
    <g id="text_10">
     <!-- Time -->
     <g transform="translate(213.292031 301.588562) scale(0.1 -0.1)">
      <defs>
       <path id="DejaVuSans-54" d="M -19 4666 
L 3928 4666 
L 3928 4134 
L 2272 4134 
L 2272 0 
L 1638 0 
L 1638 4134 
L -19 4134 
L -19 4666 
z
" transform="scale(0.015625)"/>
       <path id="DejaVuSans-69" d="M 603 3500 
L 1178 3500 
L 1178 0 
L 603 0 
L 603 3500 
z
M 603 4863 
L 1178 4863 
L 1178 4134 
L 603 4134 
L 603 4863 
z
" transform="scale(0.015625)"/>
       <path id="DejaVuSans-6d" d="M 3328 2828 
Q 3544 3216 3844 3400 
Q 4144 3584 4550 3584 
Q 5097 3584 5394 3201 
Q 5691 2819 5691 2113 
L 5691 0 
L 5113 0 
L 5113 2094 
Q 5113 2597 4934 2840 
Q 4756 3084 4391 3084 
Q 3944 3084 3684 2787 
Q 3425 2491 3425 1978 
L 3425 0 
L 2847 0 
L 2847 2094 
Q 2847 2600 2669 2842 
Q 2491 3084 2119 3084 
Q 1678 3084 1418 2786 
Q 1159 2488 1159 1978 
L 1159 0 
L 581 0 
L 581 3500 
L 1159 3500 
L 1159 2956 
Q 1356 3278 1631 3431 
Q 1906 3584 2284 3584 
Q 2666 3584 2933 3390 
Q 3200 3197 3328 2828 
z
" transform="scale(0.015625)"/>
       <path id="DejaVuSans-65" d="M 3597 1894 
L 3597 1613 
L 953 1613 
Q 991 1019 1311 708 
Q 1631 397 2203 397 
Q 2534 397 2845 478 
Q 3156 559 3463 722 
L 3463 178 
Q 3153 47 2828 -22 
Q 2503 -91 2169 -91 
Q 1331 -91 842 396 
Q 353 884 353 1716 
Q 353 2575 817 3079 
Q 1281 3584 2069 3584 
Q 2775 3584 3186 3129 
Q 3597 2675 3597 1894 
z
M 3022 2063 
Q 3016 2534 2758 2815 
Q 2500 3097 2075 3097 
Q 1594 3097 1305 2825 
Q 1016 2553 972 2059 
L 3022 2063 
z
" transform="scale(0.015625)"/>
      </defs>
      <use xlink:href="#DejaVuSans-54"/>
      <use xlink:href="#DejaVuSans-69" transform="translate(57.958984 0)"/>
      <use xlink:href="#DejaVuSans-6d" transform="translate(85.742188 0)"/>
      <use xlink:href="#DejaVuSans-65" transform="translate(183.154297 0)"/>
     </g>
    </g>
   </g>
   <g id="matplotlib.axis_2">
    <g id="ytick_1">
     <g id="line2d_10">
      <defs>
       <path id="m0f622b51fe" d="M 0 0 
L -3.5 0 
" style="stroke: #000000; stroke-width: 0.8"/>
      </defs>
      <g>
       <use xlink:href="#m0f622b51fe" x="46.965625" y="273.312" style="stroke: #000000; stroke-width: 0.8"/>
      </g>
     </g>
     <g id="text_11">
      <!-- 0 -->
      <g transform="translate(33.603125 277.111219) scale(0.1 -0.1)">
       <use xlink:href="#DejaVuSans-30"/>
      </g>
     </g>
    </g>
    <g id="ytick_2">
     <g id="line2d_11">
      <g>
       <use xlink:href="#m0f622b51fe" x="46.965625" y="236.352" style="stroke: #000000; stroke-width: 0.8"/>
      </g>
     </g>
     <g id="text_12">
      <!-- 20 -->
      <g transform="translate(27.240625 240.151219) scale(0.1 -0.1)">
       <use xlink:href="#DejaVuSans-32"/>
       <use xlink:href="#DejaVuSans-30" transform="translate(63.623047 0)"/>
      </g>
     </g>
    </g>
    <g id="ytick_3">
     <g id="line2d_12">
      <g>
       <use xlink:href="#m0f622b51fe" x="46.965625" y="199.392" style="stroke: #000000; stroke-width: 0.8"/>
      </g>
     </g>
     <g id="text_13">
      <!-- 40 -->
      <g transform="translate(27.240625 203.191219) scale(0.1 -0.1)">
       <defs>
        <path id="DejaVuSans-34" d="M 2419 4116 
L 825 1625 
L 2419 1625 
L 2419 4116 
z
M 2253 4666 
L 3047 4666 
L 3047 1625 
L 3713 1625 
L 3713 1100 
L 3047 1100 
L 3047 0 
L 2419 0 
L 2419 1100 
L 313 1100 
L 313 1709 
L 2253 4666 
z
" transform="scale(0.015625)"/>
       </defs>
       <use xlink:href="#DejaVuSans-34"/>
       <use xlink:href="#DejaVuSans-30" transform="translate(63.623047 0)"/>
      </g>
     </g>
    </g>
    <g id="ytick_4">
     <g id="line2d_13">
      <g>
       <use xlink:href="#m0f622b51fe" x="46.965625" y="162.432" style="stroke: #000000; stroke-width: 0.8"/>
      </g>
     </g>
     <g id="text_14">
      <!-- 60 -->
      <g transform="translate(27.240625 166.231219) scale(0.1 -0.1)">
       <defs>
        <path id="DejaVuSans-36" d="M 2113 2584 
Q 1688 2584 1439 2293 
Q 1191 2003 1191 1497 
Q 1191 994 1439 701 
Q 1688 409 2113 409 
Q 2538 409 2786 701 
Q 3034 994 3034 1497 
Q 3034 2003 2786 2293 
Q 2538 2584 2113 2584 
z
M 3366 4563 
L 3366 3988 
Q 3128 4100 2886 4159 
Q 2644 4219 2406 4219 
Q 1781 4219 1451 3797 
Q 1122 3375 1075 2522 
Q 1259 2794 1537 2939 
Q 1816 3084 2150 3084 
Q 2853 3084 3261 2657 
Q 3669 2231 3669 1497 
Q 3669 778 3244 343 
Q 2819 -91 2113 -91 
Q 1303 -91 875 529 
Q 447 1150 447 2328 
Q 447 3434 972 4092 
Q 1497 4750 2381 4750 
Q 2619 4750 2861 4703 
Q 3103 4656 3366 4563 
z
" transform="scale(0.015625)"/>
       </defs>
       <use xlink:href="#DejaVuSans-36"/>
       <use xlink:href="#DejaVuSans-30" transform="translate(63.623047 0)"/>
      </g>
     </g>
    </g>
    <g id="ytick_5">
     <g id="line2d_14">
      <g>
       <use xlink:href="#m0f622b51fe" x="46.965625" y="125.472" style="stroke: #000000; stroke-width: 0.8"/>
      </g>
     </g>
     <g id="text_15">
      <!-- 80 -->
      <g transform="translate(27.240625 129.271219) scale(0.1 -0.1)">
       <defs>
        <path id="DejaVuSans-38" d="M 2034 2216 
Q 1584 2216 1326 1975 
Q 1069 1734 1069 1313 
Q 1069 891 1326 650 
Q 1584 409 2034 409 
Q 2484 409 2743 651 
Q 3003 894 3003 1313 
Q 3003 1734 2745 1975 
Q 2488 2216 2034 2216 
z
M 1403 2484 
Q 997 2584 770 2862 
Q 544 3141 544 3541 
Q 544 4100 942 4425 
Q 1341 4750 2034 4750 
Q 2731 4750 3128 4425 
Q 3525 4100 3525 3541 
Q 3525 3141 3298 2862 
Q 3072 2584 2669 2484 
Q 3125 2378 3379 2068 
Q 3634 1759 3634 1313 
Q 3634 634 3220 271 
Q 2806 -91 2034 -91 
Q 1263 -91 848 271 
Q 434 634 434 1313 
Q 434 1759 690 2068 
Q 947 2378 1403 2484 
z
M 1172 3481 
Q 1172 3119 1398 2916 
Q 1625 2713 2034 2713 
Q 2441 2713 2670 2916 
Q 2900 3119 2900 3481 
Q 2900 3844 2670 4047 
Q 2441 4250 2034 4250 
Q 1625 4250 1398 4047 
Q 1172 3844 1172 3481 
z
" transform="scale(0.015625)"/>
       </defs>
       <use xlink:href="#DejaVuSans-38"/>
       <use xlink:href="#DejaVuSans-30" transform="translate(63.623047 0)"/>
      </g>
     </g>
    </g>
    <g id="ytick_6">
     <g id="line2d_15">
      <g>
       <use xlink:href="#m0f622b51fe" x="46.965625" y="88.512" style="stroke: #000000; stroke-width: 0.8"/>
      </g>
     </g>
     <g id="text_16">
      <!-- 100 -->
      <g transform="translate(20.878125 92.311219) scale(0.1 -0.1)">
       <use xlink:href="#DejaVuSans-31"/>
       <use xlink:href="#DejaVuSans-30" transform="translate(63.623047 0)"/>
       <use xlink:href="#DejaVuSans-30" transform="translate(127.246094 0)"/>
      </g>
     </g>
    </g>
    <g id="ytick_7">
     <g id="line2d_16">
      <g>
       <use xlink:href="#m0f622b51fe" x="46.965625" y="51.552" style="stroke: #000000; stroke-width: 0.8"/>
      </g>
     </g>
     <g id="text_17">
      <!-- 120 -->
      <g transform="translate(20.878125 55.351219) scale(0.1 -0.1)">
       <use xlink:href="#DejaVuSans-31"/>
       <use xlink:href="#DejaVuSans-32" transform="translate(63.623047 0)"/>
       <use xlink:href="#DejaVuSans-30" transform="translate(127.246094 0)"/>
      </g>
     </g>
    </g>
    <g id="ytick_8">
     <g id="line2d_17">
      <g>
       <use xlink:href="#m0f622b51fe" x="46.965625" y="14.592" style="stroke: #000000; stroke-width: 0.8"/>
      </g>
     </g>
     <g id="text_18">
      <!-- 140 -->
      <g transform="translate(20.878125 18.391219) scale(0.1 -0.1)">
       <use xlink:href="#DejaVuSans-31"/>
       <use xlink:href="#DejaVuSans-34" transform="translate(63.623047 0)"/>
       <use xlink:href="#DejaVuSans-30" transform="translate(127.246094 0)"/>
      </g>
     </g>
    </g>
    <g id="text_19">
     <!-- Observable -->
     <g transform="translate(14.798438 168.766156) rotate(-90) scale(0.1 -0.1)">
      <defs>
       <path id="DejaVuSans-4f" d="M 2522 4238 
Q 1834 4238 1429 3725 
Q 1025 3213 1025 2328 
Q 1025 1447 1429 934 
Q 1834 422 2522 422 
Q 3209 422 3611 934 
Q 4013 1447 4013 2328 
Q 4013 3213 3611 3725 
Q 3209 4238 2522 4238 
z
M 2522 4750 
Q 3503 4750 4090 4092 
Q 4678 3434 4678 2328 
Q 4678 1225 4090 567 
Q 3503 -91 2522 -91 
Q 1538 -91 948 565 
Q 359 1222 359 2328 
Q 359 3434 948 4092 
Q 1538 4750 2522 4750 
z
" transform="scale(0.015625)"/>
       <path id="DejaVuSans-62" d="M 3116 1747 
Q 3116 2381 2855 2742 
Q 2594 3103 2138 3103 
Q 1681 3103 1420 2742 
Q 1159 2381 1159 1747 
Q 1159 1113 1420 752 
Q 1681 391 2138 391 
Q 2594 391 2855 752 
Q 3116 1113 3116 1747 
z
M 1159 2969 
Q 1341 3281 1617 3432 
Q 1894 3584 2278 3584 
Q 2916 3584 3314 3078 
Q 3713 2572 3713 1747 
Q 3713 922 3314 415 
Q 2916 -91 2278 -91 
Q 1894 -91 1617 61 
Q 1341 213 1159 525 
L 1159 0 
L 581 0 
L 581 4863 
L 1159 4863 
L 1159 2969 
z
" transform="scale(0.015625)"/>
       <path id="DejaVuSans-73" d="M 2834 3397 
L 2834 2853 
Q 2591 2978 2328 3040 
Q 2066 3103 1784 3103 
Q 1356 3103 1142 2972 
Q 928 2841 928 2578 
Q 928 2378 1081 2264 
Q 1234 2150 1697 2047 
L 1894 2003 
Q 2506 1872 2764 1633 
Q 3022 1394 3022 966 
Q 3022 478 2636 193 
Q 2250 -91 1575 -91 
Q 1294 -91 989 -36 
Q 684 19 347 128 
L 347 722 
Q 666 556 975 473 
Q 1284 391 1588 391 
Q 1994 391 2212 530 
Q 2431 669 2431 922 
Q 2431 1156 2273 1281 
Q 2116 1406 1581 1522 
L 1381 1569 
Q 847 1681 609 1914 
Q 372 2147 372 2553 
Q 372 3047 722 3315 
Q 1072 3584 1716 3584 
Q 2034 3584 2315 3537 
Q 2597 3491 2834 3397 
z
" transform="scale(0.015625)"/>
       <path id="DejaVuSans-72" d="M 2631 2963 
Q 2534 3019 2420 3045 
Q 2306 3072 2169 3072 
Q 1681 3072 1420 2755 
Q 1159 2438 1159 1844 
L 1159 0 
L 581 0 
L 581 3500 
L 1159 3500 
L 1159 2956 
Q 1341 3275 1631 3429 
Q 1922 3584 2338 3584 
Q 2397 3584 2469 3576 
Q 2541 3569 2628 3553 
L 2631 2963 
z
" transform="scale(0.015625)"/>
       <path id="DejaVuSans-76" d="M 191 3500 
L 800 3500 
L 1894 563 
L 2988 3500 
L 3597 3500 
L 2284 0 
L 1503 0 
L 191 3500 
z
" transform="scale(0.015625)"/>
       <path id="DejaVuSans-61" d="M 2194 1759 
Q 1497 1759 1228 1600 
Q 959 1441 959 1056 
Q 959 750 1161 570 
Q 1363 391 1709 391 
Q 2188 391 2477 730 
Q 2766 1069 2766 1631 
L 2766 1759 
L 2194 1759 
z
M 3341 1997 
L 3341 0 
L 2766 0 
L 2766 531 
Q 2569 213 2275 61 
Q 1981 -91 1556 -91 
Q 1019 -91 701 211 
Q 384 513 384 1019 
Q 384 1609 779 1909 
Q 1175 2209 1959 2209 
L 2766 2209 
L 2766 2266 
Q 2766 2663 2505 2880 
Q 2244 3097 1772 3097 
Q 1472 3097 1187 3025 
Q 903 2953 641 2809 
L 641 3341 
Q 956 3463 1253 3523 
Q 1550 3584 1831 3584 
Q 2591 3584 2966 3190 
Q 3341 2797 3341 1997 
z
" transform="scale(0.015625)"/>
       <path id="DejaVuSans-6c" d="M 603 4863 
L 1178 4863 
L 1178 0 
L 603 0 
L 603 4863 
z
" transform="scale(0.015625)"/>
      </defs>
      <use xlink:href="#DejaVuSans-4f"/>
      <use xlink:href="#DejaVuSans-62" transform="translate(78.710938 0)"/>
      <use xlink:href="#DejaVuSans-73" transform="translate(142.1875 0)"/>
      <use xlink:href="#DejaVuSans-65" transform="translate(194.287109 0)"/>
      <use xlink:href="#DejaVuSans-72" transform="translate(255.810547 0)"/>
      <use xlink:href="#DejaVuSans-76" transform="translate(296.923828 0)"/>
      <use xlink:href="#DejaVuSans-61" transform="translate(356.103516 0)"/>
      <use xlink:href="#DejaVuSans-62" transform="translate(417.382812 0)"/>
      <use xlink:href="#DejaVuSans-6c" transform="translate(480.859375 0)"/>
      <use xlink:href="#DejaVuSans-65" transform="translate(508.642578 0)"/>
     </g>
    </g>
   </g>
   <g id="line2d_18">
    <path d="M 46.965625 273.312 
L 47.11651 260.376 
L 47.246319 243.744 
L 47.501866 221.568 
L 47.590579 216.024 
L 47.729364 210.48 
L 47.967126 203.088 
L 48.080965 197.544 
L 49.124348 162.432 
L 49.850463 158.736 
L 50.047846 155.04 
L 50.322849 151.344 
L 50.808055 147.648 
L 51.106629 143.952 
L 51.691715 142.104 
L 52.119038 140.256 
L 52.328859 138.408 
L 52.470286 132.864 
L 52.541644 131.016 
L 53.034117 132.864 
L 53.068742 131.016 
L 53.727917 129.168 
L 54.226103 131.016 
L 54.235007 129.168 
L 55.010039 127.32 
L 55.175967 125.472 
L 55.683242 123.624 
L 55.893278 119.928 
L 56.964017 118.08 
L 57.727113 116.232 
L 58.303316 118.08 
L 59.24977 119.928 
L 59.306006 118.08 
L 60.04582 116.232 
L 60.625066 114.384 
L 60.976044 110.688 
L 61.483127 112.536 
L 62.839445 110.688 
L 62.86102 112.536 
L 63.085209 114.384 
L 65.192334 112.536 
L 65.897497 110.688 
L 66.255648 112.536 
L 70.168266 114.384 
L 70.666467 108.84 
L 70.786354 110.688 
L 72.167761 112.536 
L 72.559733 114.384 
L 72.653446 116.232 
L 75.687971 114.384 
L 75.798972 112.536 
L 76.884572 116.232 
L 77.403443 114.384 
L 77.672587 112.536 
L 77.799037 114.384 
L 80.472732 112.536 
L 82.139304 110.688 
L 83.025077 108.84 
L 83.379415 110.688 
L 84.913933 112.536 
L 86.354365 110.688 
L 86.915843 108.84 
L 87.940293 106.992 
L 88.427442 105.144 
L 88.977548 108.84 
L 89.965625 106.992 
L 89.997205 105.144 
L 93.200176 106.992 
L 93.835819 108.84 
L 94.436596 106.992 
L 95.259253 108.84 
L 96.213391 110.688 
L 96.658047 108.84 
L 97.050577 110.688 
L 97.262347 108.84 
L 97.908086 106.992 
L 102.225357 108.84 
L 102.437222 110.688 
L 102.907549 108.84 
L 103.649091 110.688 
L 104.188083 106.992 
L 108.036125 105.144 
L 108.290548 103.296 
L 108.701581 101.448 
L 110.652217 103.296 
L 110.879675 101.448 
L 111.221838 103.296 
L 111.869012 101.448 
L 112.214096 99.6 
L 115.067802 101.448 
L 116.451868 103.296 
L 117.783755 101.448 
L 119.811651 105.144 
L 120.746067 106.992 
L 121.417631 103.296 
L 121.52731 101.448 
L 124.934177 99.6 
L 125.743535 101.448 
L 126.202876 99.6 
L 126.372072 97.752 
L 129.702754 99.6 
L 130.848151 101.448 
L 131.584294 99.6 
L 132.276084 101.448 
L 132.979734 99.6 
L 134.305329 101.448 
L 134.305821 103.296 
L 134.884204 105.144 
L 134.962514 106.992 
L 135.470307 108.84 
L 136.264686 110.688 
L 136.915567 108.84 
L 137.682434 110.688 
L 139.151728 108.84 
L 139.778616 110.688 
L 139.905158 108.84 
L 140.594475 106.992 
L 140.807608 105.144 
L 143.611163 106.992 
L 144.155677 105.144 
L 145.850176 103.296 
L 145.869818 105.144 
L 148.097219 103.296 
L 148.445043 101.448 
L 148.899989 103.296 
L 150.471087 101.448 
L 150.941874 99.6 
L 153.08262 103.296 
L 153.614886 106.992 
L 155.068324 105.144 
L 155.399448 103.296 
L 156.271683 105.144 
L 157.705847 106.992 
L 158.777113 105.144 
L 159.616374 106.992 
L 161.768769 108.84 
L 164.7044 110.688 
L 164.750433 112.536 
L 164.991854 114.384 
L 165.105242 112.536 
L 165.902705 114.384 
L 166.257989 112.536 
L 167.308903 114.384 
L 168.143518 112.536 
L 168.343525 114.384 
L 169.08606 112.536 
L 169.134668 110.688 
L 173.085739 108.84 
L 174.170747 105.144 
L 174.770008 103.296 
L 174.847679 101.448 
L 179.863618 99.6 
L 180.138534 101.448 
L 182.053565 99.6 
L 189.223765 101.448 
L 193.190914 103.296 
L 193.194644 101.448 
L 195.711322 103.296 
L 197.484835 101.448 
L 200.040842 99.6 
L 200.463348 101.448 
L 201.235527 103.296 
L 202.39296 105.144 
L 204.816346 103.296 
L 205.868039 105.144 
L 206.325708 106.992 
L 206.456392 108.84 
L 208.735434 106.992 
L 208.826987 105.144 
L 209.321893 103.296 
L 209.618901 99.6 
L 209.875104 101.448 
L 210.640448 103.296 
L 211.523577 101.448 
L 214.507146 99.6 
L 216.016185 101.448 
L 216.282762 103.296 
L 216.802926 101.448 
L 218.734744 99.6 
L 219.058909 101.448 
L 219.703473 99.6 
L 223.592678 101.448 
L 224.072393 103.296 
L 225.261354 105.144 
L 225.633013 99.6 
L 225.903716 97.752 
L 226.066661 92.208 
L 226.146611 94.056 
L 226.240956 90.36 
L 226.502735 88.512 
L 226.846959 71.88 
L 227.099451 60.792 
L 227.526701 58.944 
L 227.552677 57.096 
L 227.771495 58.944 
L 228.012363 55.248 
L 228.150059 53.4 
L 228.465561 55.248 
L 229.06118 51.552 
L 229.541619 44.16 
L 229.870436 42.312 
L 230.347771 40.464 
L 230.44972 38.616 
L 231.330737 36.768 
L 231.470195 34.92 
L 231.548417 36.768 
L 231.60414 34.92 
L 232.12685 36.768 
L 232.569985 33.072 
L 232.864973 34.92 
L 233.385967 33.072 
L 233.714358 31.224 
L 233.81239 29.376 
L 234.363585 27.528 
L 234.377164 29.376 
L 234.629851 27.528 
L 234.646932 25.68 
L 234.920804 23.832 
L 235.000874 25.68 
L 236.225001 23.832 
L 236.459053 25.68 
L 236.992696 23.832 
L 237.144474 25.68 
L 237.166188 27.528 
L 237.236086 25.68 
L 237.7042 23.832 
L 238.01585 21.984 
L 238.57745 20.136 
L 238.699027 21.984 
L 238.998966 23.832 
L 240.129868 25.68 
L 240.17843 23.832 
L 241.777671 21.984 
L 241.949838 20.136 
L 242.50043 21.984 
L 242.744629 23.832 
L 242.811436 21.984 
L 243.059037 20.136 
L 243.73322 21.984 
L 245.607987 25.68 
L 246.560745 23.832 
L 247.912152 25.68 
L 248.176156 27.528 
L 248.764973 25.68 
L 249.049441 23.832 
L 250.76224 21.984 
L 251.326943 23.832 
L 251.659515 21.984 
L 253.111587 25.68 
L 253.805611 23.832 
L 254.026179 25.68 
L 254.706546 23.832 
L 254.951465 21.984 
L 255.000772 20.136 
L 255.354335 18.288 
L 256.741308 20.136 
L 256.947994 18.288 
L 258.454541 20.136 
L 260.223316 21.984 
L 260.511565 20.136 
L 260.67299 21.984 
L 260.779289 20.136 
L 261.145452 21.984 
L 261.738576 20.136 
L 261.946219 21.984 
L 262.363691 20.136 
L 262.78288 21.984 
L 262.997288 23.832 
L 263.380799 21.984 
L 264.021155 23.832 
L 264.551896 21.984 
L 264.804864 20.136 
L 265.688255 21.984 
L 266.086289 23.832 
L 266.363651 25.68 
L 266.953895 23.832 
L 267.674215 21.984 
L 267.69348 20.136 
L 267.778852 21.984 
L 267.905486 20.136 
L 268.291153 21.984 
L 268.436566 20.136 
L 268.50947 21.984 
L 268.727493 20.136 
L 273.386819 18.288 
L 274.069683 20.136 
L 275.115559 18.288 
L 276.358699 16.44 
L 277.303883 14.592 
L 277.505371 12.744 
L 278.986133 14.592 
L 279.708381 16.44 
L 279.780822 20.136 
L 279.790664 18.288 
L 280.046196 16.44 
L 280.934095 14.592 
L 281.181956 12.744 
L 282.16258 14.592 
L 282.290448 12.744 
L 282.608681 14.592 
L 282.741653 12.744 
L 285.135737 14.592 
L 285.476661 16.44 
L 288.226104 14.592 
L 289.80632 12.744 
L 290.58501 10.896 
L 290.792612 12.744 
L 291.56412 16.44 
L 291.616772 18.288 
L 292.118153 16.44 
L 292.191425 14.592 
L 292.958247 12.744 
L 294.699437 14.592 
L 294.938486 18.288 
L 295.587684 20.136 
L 297.022294 18.288 
L 297.516234 20.136 
L 297.766637 18.288 
L 297.888977 20.136 
L 298.081234 18.288 
L 299.545487 23.832 
L 299.592808 21.984 
L 300.190172 20.136 
L 300.517812 21.984 
L 301.34735 23.832 
L 301.827289 21.984 
L 302.991917 20.136 
L 303.309274 21.984 
L 303.86373 23.832 
L 304.562571 25.68 
L 304.909484 23.832 
L 305.108893 25.68 
L 305.588392 23.832 
L 305.945512 21.984 
L 306.546378 20.136 
L 306.687813 21.984 
L 307.096026 23.832 
L 308.605162 21.984 
L 309.101014 20.136 
L 309.387031 18.288 
L 310.059662 16.44 
L 313.596142 14.592 
L 316.216 16.44 
L 316.533085 20.136 
L 317.02633 18.288 
L 317.602823 21.984 
L 318.042089 20.136 
L 318.575861 21.984 
L 319.950156 23.832 
L 320.186578 25.68 
L 320.268584 21.984 
L 320.599108 20.136 
L 320.858868 21.984 
L 321.519621 23.832 
L 321.55574 21.984 
L 322.152494 20.136 
L 322.311783 18.288 
L 323.07647 20.136 
L 323.099903 18.288 
L 323.354364 16.44 
L 326.338079 14.592 
L 327.2625 16.44 
L 327.550569 18.288 
L 328.065756 14.592 
L 328.234882 16.44 
L 330.252539 14.592 
L 330.877461 12.744 
L 334.802319 14.592 
L 335.29007 16.44 
L 335.596275 14.592 
L 335.641751 12.744 
L 335.881237 14.592 
L 335.910245 16.44 
L 336.447601 18.288 
L 338.050533 20.136 
L 338.06824 21.984 
L 338.101091 20.136 
L 338.407051 18.288 
L 340.427466 16.44 
L 340.787811 18.288 
L 340.99392 20.136 
L 341.015628 21.984 
L 341.420096 20.136 
L 341.990428 18.288 
L 342.180803 14.592 
L 342.243586 16.44 
L 342.818207 18.288 
L 343.007617 16.44 
L 343.381966 18.288 
L 344.677529 20.136 
L 344.779642 16.44 
L 345.167551 14.592 
L 345.21671 16.44 
L 345.804607 18.288 
L 346.082758 20.136 
L 346.469966 18.288 
L 346.615605 16.44 
L 347.120434 14.592 
L 347.622551 16.44 
L 350.038587 18.288 
L 351.173242 20.136 
L 351.999875 21.984 
L 352.228545 23.832 
L 352.817184 25.68 
L 353.349315 23.832 
L 354.915955 21.984 
L 356.423549 23.832 
L 357.317829 25.68 
L 357.660212 23.832 
L 357.675935 21.984 
L 358.172526 23.832 
L 358.354078 21.984 
L 358.358849 20.136 
L 358.93821 23.832 
L 359.282472 25.68 
L 359.369434 27.528 
L 359.531098 25.68 
L 359.639961 27.528 
L 359.715781 25.68 
L 359.992983 27.528 
L 360.350599 25.68 
L 360.736826 27.528 
L 361.628469 25.68 
L 361.748856 23.832 
L 363.843663 21.984 
L 363.972139 23.832 
L 365.056126 21.984 
L 366.004286 23.832 
L 366.21766 21.984 
L 366.277641 23.832 
L 367.253377 25.68 
L 367.726991 27.528 
L 368.537663 25.68 
L 368.603153 27.528 
L 371.384322 29.376 
L 372.558645 25.68 
L 372.601728 23.832 
L 373.432869 20.136 
L 373.548792 23.832 
L 373.564128 21.984 
L 374.862316 23.832 
L 375.246905 21.984 
L 376.356242 20.136 
L 376.66125 18.288 
L 377.307587 16.44 
L 378.233422 18.288 
L 379.202351 16.44 
L 379.772094 18.288 
L 380.489159 16.44 
L 381.679825 14.592 
L 384.598536 12.744 
L 385.390803 14.592 
L 385.416604 16.44 
L 385.893794 18.288 
L 386.724509 16.44 
L 387.49768 18.288 
L 389.435567 16.44 
L 389.825439 14.592 
L 391.871139 12.744 
L 392.572076 10.896 
L 393.194336 12.744 
L 393.293392 10.896 
L 394.07974 12.744 
L 394.524395 10.896 
L 395.39699 9.048 
L 395.676997 7.2 
L 396.164535 9.048 
L 396.956984 10.896 
L 404.085625 12.744 
L 404.085625 12.744 
" clip-path="url(#p7391142e8b)" style="fill: none; stroke: #1f77b4; stroke-width: 1.5; stroke-linecap: square"/>
   </g>
   <g id="line2d_19">
    <path d="M 225.389682 166.128 
L 225.430653 167.976 
L 225.943276 173.52 
L 226.066661 177.216 
L 226.146611 175.368 
L 226.240956 179.064 
L 226.502735 180.912 
L 226.846959 197.544 
L 227.099451 208.632 
L 227.526701 210.48 
L 227.552677 212.328 
L 227.771495 210.48 
L 228.012363 214.176 
L 228.150059 216.024 
L 228.465561 214.176 
L 229.06118 217.872 
L 229.541619 225.264 
L 229.870436 227.112 
L 230.347771 228.96 
L 230.44972 230.808 
L 231.330737 232.656 
L 231.470195 234.504 
L 231.548417 232.656 
L 231.60414 234.504 
L 232.12685 232.656 
L 232.569985 236.352 
L 232.864973 234.504 
L 233.385967 236.352 
L 233.714358 238.2 
L 233.81239 240.048 
L 234.363585 241.896 
L 234.377164 240.048 
L 234.629851 241.896 
L 234.646932 243.744 
L 234.920804 245.592 
L 235.000874 243.744 
L 236.225001 245.592 
L 236.459053 243.744 
L 236.992696 245.592 
L 237.144474 243.744 
L 237.166188 241.896 
L 237.236086 243.744 
L 237.7042 245.592 
L 238.01585 247.44 
L 238.57745 249.288 
L 238.699027 247.44 
L 238.998966 245.592 
L 240.129868 243.744 
L 240.17843 245.592 
L 241.777671 247.44 
L 241.949838 249.288 
L 242.50043 247.44 
L 242.744629 245.592 
L 242.811436 247.44 
L 243.059037 249.288 
L 243.73322 247.44 
L 245.607987 243.744 
L 246.560745 245.592 
L 247.912152 243.744 
L 248.176156 241.896 
L 248.764973 243.744 
L 249.049441 245.592 
L 250.76224 247.44 
L 251.326943 245.592 
L 251.659515 247.44 
L 253.111587 243.744 
L 253.805611 245.592 
L 254.026179 243.744 
L 254.706546 245.592 
L 254.951465 247.44 
L 255.000772 249.288 
L 255.354335 251.136 
L 256.741308 249.288 
L 256.947994 251.136 
L 258.454541 249.288 
L 260.223316 247.44 
L 260.511565 249.288 
L 260.67299 247.44 
L 260.779289 249.288 
L 261.145452 247.44 
L 261.738576 249.288 
L 261.946219 247.44 
L 262.363691 249.288 
L 262.78288 247.44 
L 262.997288 245.592 
L 263.380799 247.44 
L 264.021155 245.592 
L 264.551896 247.44 
L 264.804864 249.288 
L 265.688255 247.44 
L 266.086289 245.592 
L 266.363651 243.744 
L 266.953895 245.592 
L 267.674215 247.44 
L 267.69348 249.288 
L 267.778852 247.44 
L 267.905486 249.288 
L 268.291153 247.44 
L 268.436566 249.288 
L 268.50947 247.44 
L 268.727493 249.288 
L 273.386819 251.136 
L 274.069683 249.288 
L 275.115559 251.136 
L 276.358699 252.984 
L 277.303883 254.832 
L 277.505371 256.68 
L 278.986133 254.832 
L 279.708381 252.984 
L 279.780822 249.288 
L 279.790664 251.136 
L 280.046196 252.984 
L 280.934095 254.832 
L 281.181956 256.68 
L 282.16258 254.832 
L 282.290448 256.68 
L 282.608681 254.832 
L 282.741653 256.68 
L 285.135737 254.832 
L 285.476661 252.984 
L 288.226104 254.832 
L 289.80632 256.68 
L 290.58501 258.528 
L 290.792612 256.68 
L 291.56412 252.984 
L 291.616772 251.136 
L 292.118153 252.984 
L 292.191425 254.832 
L 292.958247 256.68 
L 294.699437 254.832 
L 294.938486 251.136 
L 295.587684 249.288 
L 297.022294 251.136 
L 297.516234 249.288 
L 297.766637 251.136 
L 297.888977 249.288 
L 298.081234 251.136 
L 299.545487 245.592 
L 299.592808 247.44 
L 300.190172 249.288 
L 300.517812 247.44 
L 301.34735 245.592 
L 301.827289 247.44 
L 302.991917 249.288 
L 303.309274 247.44 
L 303.86373 245.592 
L 304.562571 243.744 
L 304.909484 245.592 
L 305.108893 243.744 
L 305.588392 245.592 
L 305.945512 247.44 
L 306.546378 249.288 
L 306.687813 247.44 
L 307.096026 245.592 
L 308.605162 247.44 
L 309.101014 249.288 
L 309.387031 251.136 
L 310.059662 252.984 
L 313.596142 254.832 
L 316.216 252.984 
L 316.533085 249.288 
L 317.02633 251.136 
L 317.602823 247.44 
L 318.042089 249.288 
L 318.575861 247.44 
L 319.950156 245.592 
L 320.186578 243.744 
L 320.268584 247.44 
L 320.599108 249.288 
L 320.858868 247.44 
L 321.519621 245.592 
L 321.55574 247.44 
L 322.152494 249.288 
L 322.311783 251.136 
L 323.07647 249.288 
L 323.099903 251.136 
L 323.354364 252.984 
L 326.338079 254.832 
L 327.2625 252.984 
L 327.550569 251.136 
L 328.065756 254.832 
L 328.234882 252.984 
L 330.252539 254.832 
L 330.877461 256.68 
L 334.802319 254.832 
L 335.29007 252.984 
L 335.596275 254.832 
L 335.641751 256.68 
L 335.881237 254.832 
L 335.910245 252.984 
L 336.447601 251.136 
L 338.050533 249.288 
L 338.06824 247.44 
L 338.101091 249.288 
L 338.407051 251.136 
L 340.427466 252.984 
L 340.787811 251.136 
L 340.99392 249.288 
L 341.015628 247.44 
L 341.420096 249.288 
L 341.990428 251.136 
L 342.180803 254.832 
L 342.243586 252.984 
L 342.818207 251.136 
L 343.007617 252.984 
L 343.381966 251.136 
L 344.677529 249.288 
L 344.779642 252.984 
L 345.167551 254.832 
L 345.21671 252.984 
L 345.804607 251.136 
L 346.082758 249.288 
L 346.469966 251.136 
L 346.615605 252.984 
L 347.120434 254.832 
L 347.622551 252.984 
L 350.038587 251.136 
L 351.173242 249.288 
L 351.999875 247.44 
L 352.228545 245.592 
L 352.817184 243.744 
L 353.349315 245.592 
L 354.915955 247.44 
L 356.423549 245.592 
L 357.317829 243.744 
L 357.660212 245.592 
L 357.675935 247.44 
L 358.172526 245.592 
L 358.354078 247.44 
L 358.358849 249.288 
L 358.93821 245.592 
L 359.282472 243.744 
L 359.369434 241.896 
L 359.531098 243.744 
L 359.639961 241.896 
L 359.715781 243.744 
L 359.992983 241.896 
L 360.350599 243.744 
L 360.736826 241.896 
L 361.628469 243.744 
L 361.748856 245.592 
L 363.843663 247.44 
L 363.972139 245.592 
L 365.056126 247.44 
L 366.004286 245.592 
L 366.21766 247.44 
L 366.277641 245.592 
L 367.253377 243.744 
L 367.726991 241.896 
L 368.537663 243.744 
L 368.603153 241.896 
L 371.384322 240.048 
L 372.558645 243.744 
L 372.601728 245.592 
L 373.432869 249.288 
L 373.548792 245.592 
L 373.564128 247.44 
L 374.862316 245.592 
L 375.246905 247.44 
L 376.356242 249.288 
L 376.66125 251.136 
L 377.307587 252.984 
L 378.233422 251.136 
L 379.202351 252.984 
L 379.772094 251.136 
L 380.489159 252.984 
L 381.679825 254.832 
L 384.598536 256.68 
L 385.390803 254.832 
L 385.416604 252.984 
L 385.893794 251.136 
L 386.724509 252.984 
L 387.49768 251.136 
L 389.435567 252.984 
L 389.825439 254.832 
L 391.871139 256.68 
L 392.572076 258.528 
L 393.194336 256.68 
L 393.293392 258.528 
L 394.07974 256.68 
L 394.524395 258.528 
L 395.39699 260.376 
L 395.676997 262.224 
L 396.164535 260.376 
L 396.956984 258.528 
L 404.085625 256.68 
L 404.085625 256.68 
" clip-path="url(#p7391142e8b)" style="fill: none; stroke: #ff7f0e; stroke-width: 1.5; stroke-linecap: square"/>
   </g>
   <g id="line2d_20">
    <path d="M 225.261354 273.312 
L 225.261354 7.2 
" clip-path="url(#p7391142e8b)" style="fill: none; stroke-dasharray: 1.5,2.475; stroke-dashoffset: 0; stroke: #000000; stroke-width: 1.5"/>
   </g>
   <g id="line2d_21">
    <path d="M 277.303883 273.312 
L 277.303883 7.2 
" clip-path="url(#p7391142e8b)" style="fill: none; stroke-dasharray: 1.5,2.475; stroke-dashoffset: 0; stroke: #000000; stroke-width: 1.5"/>
   </g>
   <g id="line2d_22">
    <path d="M 401.91518 273.312 
L 401.91518 7.2 
" clip-path="url(#p7391142e8b)" style="fill: none; stroke-dasharray: 1.5,2.475; stroke-dashoffset: 0; stroke: #000000; stroke-width: 1.5"/>
   </g>
   <g id="patch_3">
    <path d="M 46.965625 273.312 
L 46.965625 7.2 
" style="fill: none; stroke: #000000; stroke-width: 0.8; stroke-linejoin: miter; stroke-linecap: square"/>
   </g>
   <g id="patch_4">
    <path d="M 404.085625 273.312 
L 404.085625 7.2 
" style="fill: none; stroke: #000000; stroke-width: 0.8; stroke-linejoin: miter; stroke-linecap: square"/>
   </g>
   <g id="patch_5">
    <path d="M 46.965625 273.312 
L 404.085625 273.312 
" style="fill: none; stroke: #000000; stroke-width: 0.8; stroke-linejoin: miter; stroke-linecap: square"/>
   </g>
   <g id="patch_6">
    <path d="M 46.965625 7.2 
L 404.085625 7.2 
" style="fill: none; stroke: #000000; stroke-width: 0.8; stroke-linejoin: miter; stroke-linecap: square"/>
   </g>
   <g id="legend_1">
    <g id="patch_7">
     <path d="M 53.965625 44.55625 
L 99.667188 44.55625 
Q 101.667188 44.55625 101.667188 42.55625 
L 101.667188 14.2 
Q 101.667188 12.2 99.667188 12.2 
L 53.965625 12.2 
Q 51.965625 12.2 51.965625 14.2 
L 51.965625 42.55625 
Q 51.965625 44.55625 53.965625 44.55625 
z
" style="fill: #ffffff; opacity: 0.8; stroke: #cccccc; stroke-linejoin: miter"/>
    </g>
    <g id="line2d_23">
     <path d="M 55.965625 20.298437 
L 65.965625 20.298437 
L 75.965625 20.298437 
" style="fill: none; stroke: #1f77b4; stroke-width: 1.5; stroke-linecap: square"/>
    </g>
    <g id="text_20">
     <!-- AB -->
     <g transform="translate(83.965625 23.798437) scale(0.1 -0.1)">
      <defs>
       <path id="DejaVuSans-41" d="M 2188 4044 
L 1331 1722 
L 3047 1722 
L 2188 4044 
z
M 1831 4666 
L 2547 4666 
L 4325 0 
L 3669 0 
L 3244 1197 
L 1141 1197 
L 716 0 
L 50 0 
L 1831 4666 
z
" transform="scale(0.015625)"/>
       <path id="DejaVuSans-42" d="M 1259 2228 
L 1259 519 
L 2272 519 
Q 2781 519 3026 730 
Q 3272 941 3272 1375 
Q 3272 1813 3026 2020 
Q 2781 2228 2272 2228 
L 1259 2228 
z
M 1259 4147 
L 1259 2741 
L 2194 2741 
Q 2656 2741 2882 2914 
Q 3109 3088 3109 3444 
Q 3109 3797 2882 3972 
Q 2656 4147 2194 4147 
L 1259 4147 
z
M 628 4666 
L 2241 4666 
Q 2963 4666 3353 4366 
Q 3744 4066 3744 3513 
Q 3744 3084 3544 2831 
Q 3344 2578 2956 2516 
Q 3422 2416 3680 2098 
Q 3938 1781 3938 1306 
Q 3938 681 3513 340 
Q 3088 0 2303 0 
L 628 0 
L 628 4666 
z
" transform="scale(0.015625)"/>
      </defs>
      <use xlink:href="#DejaVuSans-41"/>
      <use xlink:href="#DejaVuSans-42" transform="translate(68.408203 0)"/>
     </g>
    </g>
    <g id="line2d_24">
     <path d="M 55.965625 34.976562 
L 65.965625 34.976562 
L 75.965625 34.976562 
" style="fill: none; stroke: #ff7f0e; stroke-width: 1.5; stroke-linecap: square"/>
    </g>
    <g id="text_21">
     <!-- A -->
     <g transform="translate(83.965625 38.476562) scale(0.1 -0.1)">
      <use xlink:href="#DejaVuSans-41"/>
     </g>
    </g>
   </g>
  </g>
 </g>
 <defs>
  <clipPath id="p7391142e8b">
   <rect x="46.965625" y="7.2" width="357.12" height="266.112"/>
  </clipPath>
 </defs>
</svg>
