<?xml version="1.0" encoding="utf-8" standalone="no"?>
<!DOCTYPE svg PUBLIC "-//W3C//DTD SVG 1.1//EN"
  "http://www.w3.org/Graphics/SVG/1.1/DTD/svg11.dtd">
<svg xmlns:xlink="http://www.w3.org/1999/xlink" width="332.39952pt" height="332.39952pt" viewBox="0 0 332.39952 332.39952" xmlns="http://www.w3.org/2000/svg" version="1.1">
 <metadata>
  <rdf:RDF xmlns:dc="http://purl.org/dc/elements/1.1/" xmlns:cc="http://creativecommons.org/ns#" xmlns:rdf="http://www.w3.org/1999/02/22-rdf-syntax-ns#">
   <cc:Work>
    <dc:type rdf:resource="http://purl.org/dc/dcmitype/StillImage"/>
    <dc:date>2026-07-01T15:18:03.309702</dc:date>
    <dc:format>image/svg+xml</dc:format>
    <dc:creator>
     <cc:Agent>
      <dc:title>Matplotlib v3.11.0, https://matplotlib.org/</dc:title>
     </cc:Agent>
    </dc:creator>
   </cc:Work>
  </rdf:RDF>
 </metadata>
 <defs>
  <style type="text/css">*{stroke-linejoin: round; stroke-linecap: butt}</style>
 </defs>
 <g id="figure_1">
  <g id="patch_1">
   <path d="M 0 332.39952 
L 332.39952 332.39952 
L 332.39952 0 
L 0 0 
z
" style="fill: #ffffff"/>
  </g>
  <g id="axes_1">
   <g id="patch_2">
    <path d="M 44.103906 96.532593 
L 325.19952 96.532593 
L 325.19952 7.2 
L 44.103906 7.2 
z
" style="fill: #ffffff"/>
   </g>
   <g id="matplotlib.axis_1">
    <g id="xtick_1">
     <g id="line2d_1">
      <defs>
       <path id="me86d085332" d="M 0 0 
L 0 3.5 
" style="stroke: #000000; stroke-width: 0.8"/>
      </defs>
      <g>
       <use xlink:href="#me86d085332" x="56.88098" y="96.532593" style="stroke: #000000; stroke-width: 0.8"/>
      </g>
     </g>
    </g>
    <g id="xtick_2">
     <g id="line2d_2">
      <g>
       <use xlink:href="#me86d085332" x="88.450435" y="96.532593" style="stroke: #000000; stroke-width: 0.8"/>
      </g>
     </g>
    </g>
    <g id="xtick_3">
     <g id="line2d_3">
      <g>
       <use xlink:href="#me86d085332" x="120.01989" y="96.532593" style="stroke: #000000; stroke-width: 0.8"/>
      </g>
     </g>
    </g>
    <g id="xtick_4">
     <g id="line2d_4">
      <g>
       <use xlink:href="#me86d085332" x="151.589345" y="96.532593" style="stroke: #000000; stroke-width: 0.8"/>
      </g>
     </g>
    </g>
    <g id="xtick_5">
     <g id="line2d_5">
      <g>
       <use xlink:href="#me86d085332" x="183.1588" y="96.532593" style="stroke: #000000; stroke-width: 0.8"/>
      </g>
     </g>
    </g>
    <g id="xtick_6">
     <g id="line2d_6">
      <g>
       <use xlink:href="#me86d085332" x="214.728255" y="96.532593" style="stroke: #000000; stroke-width: 0.8"/>
      </g>
     </g>
    </g>
    <g id="xtick_7">
     <g id="line2d_7">
      <g>
       <use xlink:href="#me86d085332" x="246.29771" y="96.532593" style="stroke: #000000; stroke-width: 0.8"/>
      </g>
     </g>
    </g>
    <g id="xtick_8">
     <g id="line2d_8">
      <g>
       <use xlink:href="#me86d085332" x="277.867165" y="96.532593" style="stroke: #000000; stroke-width: 0.8"/>
      </g>
     </g>
    </g>
    <g id="xtick_9">
     <g id="line2d_9">
      <g>
       <use xlink:href="#me86d085332" x="309.43662" y="96.532593" style="stroke: #000000; stroke-width: 0.8"/>
      </g>
     </g>
    </g>
   </g>
   <g id="matplotlib.axis_2">
    <g id="ytick_1">
     <g id="line2d_10">
      <defs>
       <path id="mc921427cd1" d="M 0 0 
L -3.5 0 
" style="stroke: #000000; stroke-width: 0.8"/>
      </defs>
      <g>
       <use xlink:href="#mc921427cd1" x="44.103906" y="92.472021" style="stroke: #000000; stroke-width: 0.8"/>
      </g>
     </g>
     <g id="text_1">
      <!-- 0 -->
      <g transform="translate(30.741406 96.270849) scale(0.1 -0.1)">
       <defs>
        <path id="DejaVuSans-13" d="M 2034 4250 
Q 1547 4250 1301 3770 
Q 1056 3291 1056 2328 
Q 1056 1369 1301 889 
Q 1547 409 2034 409 
Q 2525 409 2770 889 
Q 3016 1369 3016 2328 
Q 3016 3291 2770 3770 
Q 2525 4250 2034 4250 
z
M 2034 4750 
Q 2819 4750 3233 4129 
Q 3647 3509 3647 2328 
Q 3647 1150 3233 529 
Q 2819 -91 2034 -91 
Q 1250 -91 836 529 
Q 422 1150 422 2328 
Q 422 3509 836 4129 
Q 1250 4750 2034 4750 
z
" transform="scale(0.015625)"/>
       </defs>
       <use xlink:href="#DejaVuSans-13"/>
      </g>
     </g>
    </g>
    <g id="ytick_2">
     <g id="line2d_11">
      <g>
       <use xlink:href="#mc921427cd1" x="44.103906" y="51.866296" style="stroke: #000000; stroke-width: 0.8"/>
      </g>
     </g>
     <g id="text_2">
      <!-- 5 -->
      <g transform="translate(30.741406 55.665125) scale(0.1 -0.1)">
       <defs>
        <path id="DejaVuSans-18" d="M 691 4666 
L 3169 4666 
L 3169 4134 
L 1269 4134 
L 1269 2991 
Q 1406 3038 1543 3061 
Q 1681 3084 1819 3084 
Q 2600 3084 3056 2656 
Q 3513 2228 3513 1497 
Q 3513 744 3044 326 
Q 2575 -91 1722 -91 
Q 1428 -91 1123 -41 
Q 819 9 494 109 
L 494 744 
Q 775 591 1075 516 
Q 1375 441 1709 441 
Q 2250 441 2565 725 
Q 2881 1009 2881 1497 
Q 2881 1984 2565 2268 
Q 2250 2553 1709 2553 
Q 1456 2553 1204 2497 
Q 953 2441 691 2322 
L 691 4666 
z
" transform="scale(0.015625)"/>
       </defs>
       <use xlink:href="#DejaVuSans-18"/>
      </g>
     </g>
    </g>
    <g id="ytick_3">
     <g id="line2d_12">
      <g>
       <use xlink:href="#mc921427cd1" x="44.103906" y="11.260572" style="stroke: #000000; stroke-width: 0.8"/>
      </g>
     </g>
     <g id="text_3">
      <!-- 10 -->
      <g transform="translate(24.378906 15.059401) scale(0.1 -0.1)">
       <defs>
        <path id="DejaVuSans-14" d="M 794 531 
L 1825 531 
L 1825 4091 
L 703 3866 
L 703 4441 
L 1819 4666 
L 2450 4666 
L 2450 531 
L 3481 531 
L 3481 0 
L 794 0 
L 794 531 
z
" transform="scale(0.015625)"/>
       </defs>
       <use xlink:href="#DejaVuSans-14"/>
       <use xlink:href="#DejaVuSans-13" transform="translate(63.625 0)"/>
      </g>
     </g>
    </g>
    <g id="text_4">
     <!-- Extracellular lactose -->
     <g transform="translate(17.976563 102.838171) rotate(-90) scale(0.1 -0.1)">
      <defs>
       <path id="DejaVuSans-28" d="M 628 4666 
L 3578 4666 
L 3578 4134 
L 1259 4134 
L 1259 2753 
L 3481 2753 
L 3481 2222 
L 1259 2222 
L 1259 531 
L 3634 531 
L 3634 0 
L 628 0 
L 628 4666 
z
" transform="scale(0.015625)"/>
       <path id="DejaVuSans-5b" d="M 3513 3500 
L 2247 1797 
L 3578 0 
L 2900 0 
L 1881 1375 
L 863 0 
L 184 0 
L 1544 1831 
L 300 3500 
L 978 3500 
L 1906 2253 
L 2834 3500 
L 3513 3500 
z
" transform="scale(0.015625)"/>
       <path id="DejaVuSans-57" d="M 1172 4494 
L 1172 3500 
L 2356 3500 
L 2356 3053 
L 1172 3053 
L 1172 1153 
Q 1172 725 1289 603 
Q 1406 481 1766 481 
L 2356 481 
L 2356 0 
L 1766 0 
Q 1100 0 847 248 
Q 594 497 594 1153 
L 594 3053 
L 172 3053 
L 172 3500 
L 594 3500 
L 594 4494 
L 1172 4494 
z
" transform="scale(0.015625)"/>
       <path id="DejaVuSans-55" d="M 2631 2963 
Q 2534 3019 2420 3045 
Q 2306 3072 2169 3072 
Q 1681 3072 1420 2755 
Q 1159 2438 1159 1844 
L 1159 0 
L 581 0 
L 581 3500 
L 1159 3500 
L 1159 2956 
Q 1341 3275 1631 3429 
Q 1922 3584 2338 3584 
Q 2397 3584 2469 3576 
Q 2541 3569 2628 3553 
L 2631 2963 
z
" transform="scale(0.015625)"/>
       <path id="DejaVuSans-44" d="M 2194 1759 
Q 1497 1759 1228 1600 
Q 959 1441 959 1056 
Q 959 750 1161 570 
Q 1363 391 1709 391 
Q 2188 391 2477 730 
Q 2766 1069 2766 1631 
L 2766 1759 
L 2194 1759 
z
M 3341 1997 
L 3341 0 
L 2766 0 
L 2766 531 
Q 2569 213 2275 61 
Q 1981 -91 1556 -91 
Q 1019 -91 701 211 
Q 384 513 384 1019 
Q 384 1609 779 1909 
Q 1175 2209 1959 2209 
L 2766 2209 
L 2766 2266 
Q 2766 2663 2505 2880 
Q 2244 3097 1772 3097 
Q 1472 3097 1187 3025 
Q 903 2953 641 2809 
L 641 3341 
Q 956 3463 1253 3523 
Q 1550 3584 1831 3584 
Q 2591 3584 2966 3190 
Q 3341 2797 3341 1997 
z
" transform="scale(0.015625)"/>
       <path id="DejaVuSans-46" d="M 3122 3366 
L 3122 2828 
Q 2878 2963 2633 3030 
Q 2388 3097 2138 3097 
Q 1578 3097 1268 2742 
Q 959 2388 959 1747 
Q 959 1106 1268 751 
Q 1578 397 2138 397 
Q 2388 397 2633 464 
Q 2878 531 3122 666 
L 3122 134 
Q 2881 22 2623 -34 
Q 2366 -91 2075 -91 
Q 1284 -91 818 406 
Q 353 903 353 1747 
Q 353 2603 823 3093 
Q 1294 3584 2113 3584 
Q 2378 3584 2631 3529 
Q 2884 3475 3122 3366 
z
" transform="scale(0.015625)"/>
       <path id="DejaVuSans-48" d="M 3597 1894 
L 3597 1613 
L 953 1613 
Q 991 1019 1311 708 
Q 1631 397 2203 397 
Q 2534 397 2845 478 
Q 3156 559 3463 722 
L 3463 178 
Q 3153 47 2828 -22 
Q 2503 -91 2169 -91 
Q 1331 -91 842 396 
Q 353 884 353 1716 
Q 353 2575 817 3079 
Q 1281 3584 2069 3584 
Q 2775 3584 3186 3129 
Q 3597 2675 3597 1894 
z
M 3022 2063 
Q 3016 2534 2758 2815 
Q 2500 3097 2075 3097 
Q 1594 3097 1305 2825 
Q 1016 2553 972 2059 
L 3022 2063 
z
" transform="scale(0.015625)"/>
       <path id="DejaVuSans-4f" d="M 603 4863 
L 1178 4863 
L 1178 0 
L 603 0 
L 603 4863 
z
" transform="scale(0.015625)"/>
       <path id="DejaVuSans-58" d="M 544 1381 
L 544 3500 
L 1119 3500 
L 1119 1403 
Q 1119 906 1312 657 
Q 1506 409 1894 409 
Q 2359 409 2629 706 
Q 2900 1003 2900 1516 
L 2900 3500 
L 3475 3500 
L 3475 0 
L 2900 0 
L 2900 538 
Q 2691 219 2414 64 
Q 2138 -91 1772 -91 
Q 1169 -91 856 284 
Q 544 659 544 1381 
z
M 1991 3584 
L 1991 3584 
z
" transform="scale(0.015625)"/>
       <path id="DejaVuSans-3" transform="scale(0.015625)"/>
       <path id="DejaVuSans-52" d="M 1959 3097 
Q 1497 3097 1228 2736 
Q 959 2375 959 1747 
Q 959 1119 1226 758 
Q 1494 397 1959 397 
Q 2419 397 2687 759 
Q 2956 1122 2956 1747 
Q 2956 2369 2687 2733 
Q 2419 3097 1959 3097 
z
M 1959 3584 
Q 2709 3584 3137 3096 
Q 3566 2609 3566 1747 
Q 3566 888 3137 398 
Q 2709 -91 1959 -91 
Q 1206 -91 779 398 
Q 353 888 353 1747 
Q 353 2609 779 3096 
Q 1206 3584 1959 3584 
z
" transform="scale(0.015625)"/>
       <path id="DejaVuSans-56" d="M 2834 3397 
L 2834 2853 
Q 2591 2978 2328 3040 
Q 2066 3103 1784 3103 
Q 1356 3103 1142 2972 
Q 928 2841 928 2578 
Q 928 2378 1081 2264 
Q 1234 2150 1697 2047 
L 1894 2003 
Q 2506 1872 2764 1633 
Q 3022 1394 3022 966 
Q 3022 478 2636 193 
Q 2250 -91 1575 -91 
Q 1294 -91 989 -36 
Q 684 19 347 128 
L 347 722 
Q 666 556 975 473 
Q 1284 391 1588 391 
Q 1994 391 2212 530 
Q 2431 669 2431 922 
Q 2431 1156 2273 1281 
Q 2116 1406 1581 1522 
L 1381 1569 
Q 847 1681 609 1914 
Q 372 2147 372 2553 
Q 372 3047 722 3315 
Q 1072 3584 1716 3584 
Q 2034 3584 2315 3537 
Q 2597 3491 2834 3397 
z
" transform="scale(0.015625)"/>
      </defs>
      <use xlink:href="#DejaVuSans-28"/>
      <use xlink:href="#DejaVuSans-5b" transform="translate(63.1875 0)"/>
      <use xlink:href="#DejaVuSans-57" transform="translate(122.375 0)"/>
      <use xlink:href="#DejaVuSans-55" transform="translate(161.578125 0)"/>
      <use xlink:href="#DejaVuSans-44" transform="translate(202.6875 0)"/>
      <use xlink:href="#DejaVuSans-46" transform="translate(263.96875 0)"/>
      <use xlink:href="#DejaVuSans-48" transform="translate(318.953125 0)"/>
      <use xlink:href="#DejaVuSans-4f" transform="translate(380.484375 0)"/>
      <use xlink:href="#DejaVuSans-4f" transform="translate(408.265625 0)"/>
      <use xlink:href="#DejaVuSans-58" transform="translate(436.046875 0)"/>
      <use xlink:href="#DejaVuSans-4f" transform="translate(499.421875 0)"/>
      <use xlink:href="#DejaVuSans-44" transform="translate(527.203125 0)"/>
      <use xlink:href="#DejaVuSans-55" transform="translate(588.484375 0)"/>
      <use xlink:href="#DejaVuSans-3" transform="translate(629.59375 0)"/>
      <use xlink:href="#DejaVuSans-4f" transform="translate(661.375 0)"/>
      <use xlink:href="#DejaVuSans-44" transform="translate(689.15625 0)"/>
      <use xlink:href="#DejaVuSans-46" transform="translate(750.4375 0)"/>
      <use xlink:href="#DejaVuSans-57" transform="translate(805.421875 0)"/>
      <use xlink:href="#DejaVuSans-52" transform="translate(844.625 0)"/>
      <use xlink:href="#DejaVuSans-56" transform="translate(905.8125 0)"/>
      <use xlink:href="#DejaVuSans-48" transform="translate(957.90625 0)"/>
     </g>
    </g>
   </g>
   <g id="line2d_13">
    <path d="M 56.88098 92.472021 
L 155.083879 92.472021 
L 155.171969 11.260572 
L 155.8324 11.341784 
L 155.948756 11.66663 
L 155.993064 11.747841 
L 156.137604 13.209647 
L 156.256151 14.833876 
L 156.402654 16.620528 
L 156.43345 16.701739 
L 156.937264 20.193832 
L 157.211357 20.599889 
L 157.269979 20.6811 
L 157.377919 20.762312 
L 157.823416 20.843523 
L 157.91918 21.249581 
L 158.16982 21.655638 
L 158.350069 21.980484 
L 158.372268 22.061695 
L 158.474049 22.548964 
L 158.503756 22.630175 
L 158.611623 23.523501 
L 158.707874 24.416827 
L 159.043883 25.797422 
L 159.089434 25.878633 
L 159.477861 27.908919 
L 159.583278 28.639822 
L 159.900761 30.507686 
L 160.186864 31.3198 
L 160.221757 31.401012 
L 160.340806 31.644646 
L 160.387562 31.725857 
L 160.478584 31.88828 
L 160.544994 31.969492 
L 160.656893 32.375549 
L 160.7785 32.45676 
L 160.851024 32.700395 
L 160.970459 33.187663 
L 161.121915 33.756144 
L 161.246163 33.837355 
L 161.440412 34.324624 
L 161.560105 34.405835 
L 161.636153 34.487047 
L 161.702412 34.568258 
L 161.872746 35.136738 
L 161.989266 35.21795 
L 162.475655 35.299161 
L 162.581715 35.380372 
L 162.763831 35.461584 
L 163.106422 36.598544 
L 163.165983 36.679756 
L 163.308695 37.573082 
L 163.667796 37.654293 
L 163.862882 37.735504 
L 164.229662 37.816716 
L 164.347532 37.979139 
L 165.21366 38.06035 
L 165.660286 38.62883 
L 165.761766 38.710042 
L 166.134016 39.116099 
L 166.24113 39.765791 
L 166.275576 39.847002 
L 166.398937 40.171848 
L 166.575575 40.253059 
L 166.736687 40.334271 
L 166.825593 40.577905 
L 167.445075 40.659117 
L 167.554164 40.983962 
L 167.890972 41.065174 
L 168.003044 41.308808 
L 168.162071 42.039711 
L 168.248823 42.120923 
L 168.390986 42.933037 
L 168.410789 43.014249 
L 169.001615 47.318455 
L 169.202935 48.861473 
L 169.428865 50.810548 
L 169.481407 50.891759 
L 169.581735 51.460239 
L 169.617424 51.541451 
L 169.748551 52.109931 
L 169.808975 52.191142 
L 169.927693 52.597199 
L 170.35187 54.546274 
L 170.448647 54.952331 
L 170.481287 55.033543 
L 170.640982 55.520812 
L 170.748134 55.602023 
L 170.909887 56.332926 
L 170.962103 56.414138 
L 171.41524 59.175327 
L 172.766798 63.641956 
L 172.795163 63.723168 
L 172.969344 64.129225 
L 173.823791 67.296472 
L 173.868697 67.377683 
L 174.13078 68.433432 
L 174.274415 68.514643 
L 174.39374 68.758278 
L 174.451004 68.839489 
L 174.545706 69.083123 
L 174.715086 69.164335 
L 174.822013 69.651604 
L 175.099585 69.732815 
L 175.192007 69.895238 
L 175.227494 69.976449 
L 175.390414 70.382507 
L 175.436867 70.463718 
L 175.521455 70.707352 
L 175.592905 70.788564 
L 175.734476 70.869775 
L 175.829754 70.950987 
L 175.960152 71.11341 
L 176.30627 71.844313 
L 176.387223 71.925524 
L 176.551325 72.494004 
L 176.636191 72.575216 
L 176.767898 73.224907 
L 176.993619 73.793387 
L 177.111923 73.874599 
L 177.207871 73.95581 
L 177.39009 74.199445 
L 177.489332 74.361868 
L 177.611543 74.443079 
L 178.242443 75.498828 
L 178.305301 75.580039 
L 178.416298 75.742462 
L 178.452076 75.823674 
L 178.809835 75.904885 
L 178.888061 75.986097 
L 180.407848 76.067308 
L 180.442632 76.148519 
L 180.932633 76.229731 
L 181.04653 76.392154 
L 181.375553 76.473365 
L 181.453736 76.554577 
L 181.550733 76.635788 
L 181.675968 76.717 
L 181.839965 76.798211 
L 182.030255 76.879422 
L 182.312718 77.447903 
L 182.487437 77.85396 
L 182.56298 77.935171 
L 182.739738 78.016383 
L 182.933673 78.584863 
L 183.000929 78.666074 
L 183.11719 78.828497 
L 183.15618 78.909709 
L 183.566199 79.5594 
L 183.681348 80.12788 
L 183.832126 80.209092 
L 183.940534 80.290303 
L 184.074781 80.371515 
L 184.453655 80.452726 
L 184.558791 80.533938 
L 186.027731 80.615149 
L 186.083246 80.696361 
L 186.249023 80.777572 
L 186.913419 81.102418 
L 187.018573 81.346052 
L 187.142367 81.427264 
L 187.234772 81.589686 
L 187.358425 81.670898 
L 187.828864 82.401801 
L 187.933157 82.483012 
L 188.147075 82.970281 
L 188.326093 83.051493 
L 188.432009 83.213915 
L 189.243874 83.295127 
L 189.742218 83.701184 
L 189.847339 83.944818 
L 190.28688 84.513299 
L 190.400531 84.59451 
L 190.549505 84.756933 
L 190.63841 84.838144 
L 190.826865 85.081779 
L 191.121189 85.244202 
L 191.231373 85.325413 
L 191.376686 85.406625 
L 191.536818 85.487836 
L 192.071849 85.569047 
L 192.247236 85.73147 
L 192.546907 85.812682 
L 192.65406 85.975105 
L 192.854866 86.056316 
L 193.172862 86.29995 
L 193.892528 86.381162 
L 193.944071 86.462373 
L 194.308843 86.543585 
L 194.473059 86.624796 
L 195.262677 86.706008 
L 195.414666 87.030853 
L 195.75993 87.112065 
L 195.869415 87.436911 
L 196.332844 87.518122 
L 196.893253 87.924179 
L 197.421302 88.005391 
L 197.727835 88.249025 
L 198.372659 88.330237 
L 198.832525 88.411448 
L 208.08674 88.49266 
L 209.789876 88.736294 
L 209.875958 88.898717 
L 210.075845 88.979928 
L 210.311273 89.06114 
L 211.051607 89.142351 
L 211.608378 89.223563 
L 219.186387 89.304774 
L 219.311622 89.548408 
L 226.856071 89.62962 
L 226.919885 89.710831 
L 227.144941 89.792043 
L 227.846791 89.873254 
L 227.870348 89.954466 
L 228.37462 90.035677 
L 228.582819 90.116889 
L 229.404175 90.1981 
L 229.525655 90.360523 
L 231.335581 90.441734 
L 231.464165 90.522946 
L 250.038641 90.604157 
L 250.07128 90.685369 
L 261.519381 90.76658 
L 262.125313 90.847792 
L 268.936053 91.010214 
L 312.422447 91.010214 
L 312.422447 91.010214 
" clip-path="url(#p2ffd06b3c1)" style="fill: none; stroke: #000000; stroke-width: 1.5; stroke-linecap: square"/>
   </g>
   <g id="patch_3">
    <path d="M 44.103906 96.532593 
L 44.103906 7.2 
" style="fill: none; stroke: #000000; stroke-width: 0.8; stroke-linejoin: miter; stroke-linecap: square"/>
   </g>
   <g id="patch_4">
    <path d="M 325.19952 96.532593 
L 325.19952 7.2 
" style="fill: none; stroke: #000000; stroke-width: 0.8; stroke-linejoin: miter; stroke-linecap: square"/>
   </g>
   <g id="patch_5">
    <path d="M 44.103906 96.532593 
L 325.19952 96.532593 
" style="fill: none; stroke: #000000; stroke-width: 0.8; stroke-linejoin: miter; stroke-linecap: square"/>
   </g>
   <g id="patch_6">
    <path d="M 44.103906 7.2 
L 325.19952 7.2 
" style="fill: none; stroke: #000000; stroke-width: 0.8; stroke-linejoin: miter; stroke-linecap: square"/>
   </g>
  </g>
  <g id="axes_2">
   <g id="patch_7">
    <path d="M 44.103906 195.365666 
L 325.19952 195.365666 
L 325.19952 106.033073 
L 44.103906 106.033073 
z
" style="fill: #ffffff"/>
   </g>
   <g id="matplotlib.axis_3">
    <g id="xtick_10">
     <g id="line2d_14">
      <g>
       <use xlink:href="#me86d085332" x="56.88098" y="195.365666" style="stroke: #000000; stroke-width: 0.8"/>
      </g>
     </g>
    </g>
    <g id="xtick_11">
     <g id="line2d_15">
      <g>
       <use xlink:href="#me86d085332" x="88.450435" y="195.365666" style="stroke: #000000; stroke-width: 0.8"/>
      </g>
     </g>
    </g>
    <g id="xtick_12">
     <g id="line2d_16">
      <g>
       <use xlink:href="#me86d085332" x="120.01989" y="195.365666" style="stroke: #000000; stroke-width: 0.8"/>
      </g>
     </g>
    </g>
    <g id="xtick_13">
     <g id="line2d_17">
      <g>
       <use xlink:href="#me86d085332" x="151.589345" y="195.365666" style="stroke: #000000; stroke-width: 0.8"/>
      </g>
     </g>
    </g>
    <g id="xtick_14">
     <g id="line2d_18">
      <g>
       <use xlink:href="#me86d085332" x="183.1588" y="195.365666" style="stroke: #000000; stroke-width: 0.8"/>
      </g>
     </g>
    </g>
    <g id="xtick_15">
     <g id="line2d_19">
      <g>
       <use xlink:href="#me86d085332" x="214.728255" y="195.365666" style="stroke: #000000; stroke-width: 0.8"/>
      </g>
     </g>
    </g>
    <g id="xtick_16">
     <g id="line2d_20">
      <g>
       <use xlink:href="#me86d085332" x="246.29771" y="195.365666" style="stroke: #000000; stroke-width: 0.8"/>
      </g>
     </g>
    </g>
    <g id="xtick_17">
     <g id="line2d_21">
      <g>
       <use xlink:href="#me86d085332" x="277.867165" y="195.365666" style="stroke: #000000; stroke-width: 0.8"/>
      </g>
     </g>
    </g>
    <g id="xtick_18">
     <g id="line2d_22">
      <g>
       <use xlink:href="#me86d085332" x="309.43662" y="195.365666" style="stroke: #000000; stroke-width: 0.8"/>
      </g>
     </g>
    </g>
   </g>
   <g id="matplotlib.axis_4">
    <g id="ytick_4">
     <g id="line2d_23">
      <g>
       <use xlink:href="#mc921427cd1" x="44.103906" y="191.305093" style="stroke: #000000; stroke-width: 0.8"/>
      </g>
     </g>
     <g id="text_5">
      <!-- 0 -->
      <g transform="translate(30.741406 195.103922) scale(0.1 -0.1)">
       <use xlink:href="#DejaVuSans-13"/>
      </g>
     </g>
    </g>
    <g id="ytick_5">
     <g id="line2d_24">
      <g>
       <use xlink:href="#mc921427cd1" x="44.103906" y="150.699369" style="stroke: #000000; stroke-width: 0.8"/>
      </g>
     </g>
     <g id="text_6">
      <!-- 5 -->
      <g transform="translate(30.741406 154.498197) scale(0.1 -0.1)">
       <use xlink:href="#DejaVuSans-18"/>
      </g>
     </g>
    </g>
    <g id="ytick_6">
     <g id="line2d_25">
      <g>
       <use xlink:href="#mc921427cd1" x="44.103906" y="110.093645" style="stroke: #000000; stroke-width: 0.8"/>
      </g>
     </g>
     <g id="text_7">
      <!-- 10 -->
      <g transform="translate(24.378906 113.892473) scale(0.1 -0.1)">
       <use xlink:href="#DejaVuSans-14"/>
       <use xlink:href="#DejaVuSans-13" transform="translate(63.625 0)"/>
      </g>
     </g>
    </g>
    <g id="text_8">
     <!-- LacY -->
     <g transform="translate(17.976563 162.352494) rotate(-90) scale(0.1 -0.1)">
      <defs>
       <path id="DejaVuSans-2f" d="M 628 4666 
L 1259 4666 
L 1259 531 
L 3531 531 
L 3531 0 
L 628 0 
L 628 4666 
z
" transform="scale(0.015625)"/>
       <path id="DejaVuSans-3c" d="M -13 4666 
L 666 4666 
L 1959 2747 
L 3244 4666 
L 3922 4666 
L 2272 2222 
L 2272 0 
L 1638 0 
L 1638 2222 
L -13 4666 
z
" transform="scale(0.015625)"/>
      </defs>
      <use xlink:href="#DejaVuSans-2f"/>
      <use xlink:href="#DejaVuSans-44" transform="translate(55.71875 0)"/>
      <use xlink:href="#DejaVuSans-46" transform="translate(117 0)"/>
      <use xlink:href="#DejaVuSans-3c" transform="translate(171.984375 0)"/>
     </g>
    </g>
   </g>
   <g id="line2d_26">
    <path d="M 56.88098 110.093645 
L 56.907815 110.093645 
L 57.038992 126.335935 
L 57.128419 142.578225 
L 57.278889 142.578225 
L 57.296395 134.45708 
L 57.514609 142.578225 
L 57.654948 142.578225 
L 57.823763 158.820514 
L 58.121425 175.062804 
L 58.186339 191.305093 
L 59.699864 191.305093 
L 59.864692 183.183949 
L 59.906974 191.305093 
L 64.8755 191.305093 
L 65.194981 183.183949 
L 65.303752 191.305093 
L 82.611668 191.305093 
L 82.803983 183.183949 
L 84.578002 191.305093 
L 84.592668 183.183949 
L 84.734334 175.062804 
L 84.738938 166.941659 
L 85.057633 175.062804 
L 85.282155 175.062804 
L 85.400501 191.305093 
L 85.460668 183.183949 
L 85.648848 183.183949 
L 85.785843 191.305093 
L 89.636198 191.305093 
L 90.021803 175.062804 
L 90.02309 166.941659 
L 90.516362 166.941659 
L 90.554615 183.183949 
L 91.318452 183.183949 
L 91.485559 175.062804 
L 91.826146 191.305093 
L 108.648385 191.305093 
L 108.752945 183.183949 
L 108.871365 183.183949 
L 109.008962 191.305093 
L 109.241437 191.305093 
L 109.282476 183.183949 
L 109.693965 183.183949 
L 110.040132 175.062804 
L 110.097853 183.183949 
L 110.271237 183.183949 
L 110.300498 191.305093 
L 118.966078 191.305093 
L 119.14259 183.183949 
L 121.220346 183.183949 
L 123.048032 191.305093 
L 130.732874 191.305093 
L 130.917147 183.183949 
L 131.20163 183.183949 
L 131.308253 191.305093 
L 135.597653 191.305093 
L 135.680487 183.183949 
L 135.702119 191.305093 
L 145.587865 191.305093 
L 145.845919 175.062804 
L 145.866528 183.183949 
L 145.895225 175.062804 
L 146.007127 166.941659 
L 146.01241 175.062804 
L 146.590898 175.062804 
L 147.201477 183.183949 
L 147.444186 183.183949 
L 147.756078 175.062804 
L 147.867755 175.062804 
L 148.928207 191.305093 
L 149.38346 191.305093 
L 149.434786 175.062804 
L 149.534583 175.062804 
L 149.685781 183.183949 
L 149.818071 183.183949 
L 150.355176 191.305093 
L 155.418921 191.305093 
L 155.842628 183.183949 
L 156.080353 150.699369 
L 156.358983 150.699369 
L 156.477807 166.941659 
L 156.527142 166.941659 
L 156.626964 158.820514 
L 156.713013 158.820514 
L 156.821648 175.062804 
L 156.849547 175.062804 
L 156.937264 183.183949 
L 157.285283 183.183949 
L 157.377919 191.305093 
L 157.773343 191.305093 
L 157.891003 183.183949 
L 158.038026 183.183949 
L 158.153207 175.062804 
L 158.2817 175.062804 
L 158.336755 183.183949 
L 158.390774 175.062804 
L 158.496064 175.062804 
L 158.60763 166.941659 
L 158.757891 166.941659 
L 158.881729 183.183949 
L 159.014871 183.183949 
L 159.136889 175.062804 
L 159.284676 175.062804 
L 159.402338 166.941659 
L 159.80261 166.941659 
L 159.919322 175.062804 
L 160.224631 175.062804 
L 160.293219 183.183949 
L 160.326673 175.062804 
L 160.534093 175.062804 
L 160.646437 183.183949 
L 160.697226 183.183949 
L 160.717291 191.305093 
L 160.7785 183.183949 
L 160.831675 183.183949 
L 160.945983 175.062804 
L 161.200659 175.062804 
L 161.304363 183.183949 
L 161.500887 183.183949 
L 161.504672 191.305093 
L 161.579228 183.183949 
L 161.741813 183.183949 
L 161.799916 175.062804 
L 161.848607 183.183949 
L 161.916222 183.183949 
L 162.011965 191.305093 
L 162.456591 191.305093 
L 162.481529 183.183949 
L 162.556848 191.305093 
L 162.691233 191.305093 
L 162.832779 175.062804 
L 163.317586 175.062804 
L 163.430636 183.183949 
L 163.499097 191.305093 
L 163.55611 191.305093 
L 163.667593 175.062804 
L 163.667796 183.183949 
L 163.857701 183.183949 
L 163.945261 191.305093 
L 164.186656 191.305093 
L 164.280301 183.183949 
L 164.392789 191.305093 
L 164.982299 191.305093 
L 165.284192 183.183949 
L 165.616507 183.183949 
L 165.660286 191.305093 
L 165.724851 183.183949 
L 166.219162 183.183949 
L 166.24113 175.062804 
L 166.311547 183.183949 
L 166.462515 183.183949 
L 166.538433 191.305093 
L 166.573398 183.183949 
L 167.009501 183.183949 
L 167.079441 191.305093 
L 167.154631 191.305093 
L 167.339419 183.183949 
L 167.547325 183.183949 
L 167.623705 191.305093 
L 167.690217 191.305093 
L 167.890972 183.183949 
L 167.992567 183.183949 
L 168.098596 175.062804 
L 168.117801 175.062804 
L 168.242067 166.941659 
L 168.486271 166.941659 
L 168.594251 150.699369 
L 168.636239 150.699369 
L 168.736893 142.578225 
L 168.779866 142.578225 
L 168.892893 150.699369 
L 168.991184 150.699369 
L 169.048808 142.578225 
L 169.100251 150.699369 
L 169.273686 150.699369 
L 169.312427 158.820514 
L 169.369584 150.699369 
L 169.599301 150.699369 
L 169.706342 158.820514 
L 169.713639 158.820514 
L 169.812638 175.062804 
L 169.979356 175.062804 
L 170.094647 158.820514 
L 170.103178 158.820514 
L 170.206164 166.941659 
L 170.212718 158.820514 
L 170.515757 158.820514 
L 170.618046 166.941659 
L 171.061546 166.941659 
L 171.16173 158.820514 
L 171.581074 158.820514 
L 171.689036 166.941659 
L 171.771138 166.941659 
L 171.888241 158.820514 
L 171.980956 158.820514 
L 172.102812 166.941659 
L 172.207268 166.941659 
L 172.316655 158.820514 
L 172.340054 158.820514 
L 172.450574 142.578225 
L 172.569018 166.941659 
L 172.724531 166.941659 
L 172.795163 175.062804 
L 172.850093 175.062804 
L 172.87097 183.183949 
L 172.893533 166.941659 
L 172.929085 166.941659 
L 172.968276 166.941659 
L 173.070403 158.820514 
L 173.437653 158.820514 
L 173.460078 150.699369 
L 173.545697 158.820514 
L 173.609674 158.820514 
L 173.664397 166.941659 
L 173.708393 158.820514 
L 173.997589 158.820514 
L 174.09357 150.699369 
L 174.107436 158.820514 
L 174.32312 158.820514 
L 174.423841 166.941659 
L 174.463104 166.941659 
L 174.545706 175.062804 
L 174.813179 175.062804 
L 174.822013 183.183949 
L 175.028871 183.183949 
L 175.148714 175.062804 
L 175.581322 175.062804 
L 175.691912 183.183949 
L 175.726187 183.183949 
L 175.782637 175.062804 
L 175.829754 183.183949 
L 175.861486 183.183949 
L 175.960152 175.062804 
L 176.380259 175.062804 
L 176.485091 158.820514 
L 176.492212 166.941659 
L 176.647898 166.941659 
L 176.784124 158.820514 
L 176.831203 158.820514 
L 176.93577 175.062804 
L 176.993619 175.062804 
L 177.111923 166.941659 
L 177.128091 166.941659 
L 177.157684 175.062804 
L 177.207871 166.941659 
L 177.3769 166.941659 
L 177.489332 175.062804 
L 177.94718 175.062804 
L 178.021625 183.183949 
L 178.135413 183.183949 
L 178.242443 175.062804 
L 178.361386 175.062804 
L 178.452076 183.183949 
L 178.779175 183.183949 
L 178.806248 175.062804 
L 178.849036 191.305093 
L 179.085731 191.305093 
L 179.135565 183.183949 
L 179.357975 183.183949 
L 179.364823 191.305093 
L 180.143587 191.305093 
L 180.246468 183.183949 
L 181.152046 183.183949 
L 181.239518 175.062804 
L 181.261674 183.183949 
L 181.263925 183.183949 
L 181.431535 158.820514 
L 181.450571 166.941659 
L 181.550733 175.062804 
L 181.59597 175.062804 
L 181.779438 183.183949 
L 181.814629 183.183949 
L 181.92354 175.062804 
L 181.970398 183.183949 
L 182.030255 175.062804 
L 182.376697 175.062804 
L 182.492033 166.941659 
L 182.515421 166.941659 
L 182.622492 150.699369 
L 182.82735 150.699369 
L 182.904039 142.578225 
L 182.933673 150.699369 
L 183.105393 150.699369 
L 183.223201 158.820514 
L 183.36005 158.820514 
L 183.445664 166.941659 
L 183.582778 158.820514 
L 183.646093 158.820514 
L 183.714884 150.699369 
L 183.781248 150.699369 
L 183.940534 175.062804 
L 183.968156 175.062804 
L 184.074781 183.183949 
L 184.126969 183.183949 
L 184.249584 175.062804 
L 184.345683 175.062804 
L 184.453655 183.183949 
L 184.50391 183.183949 
L 184.663961 191.305093 
L 185.879931 191.305093 
L 186.083246 175.062804 
L 186.475337 175.062804 
L 186.500762 183.183949 
L 186.560529 175.062804 
L 186.67845 158.820514 
L 187.071181 158.820514 
L 187.203356 166.941659 
L 187.317953 158.820514 
L 187.587201 158.820514 
L 187.719834 150.699369 
L 187.828864 150.699369 
L 187.961391 158.820514 
L 187.965969 150.699369 
L 188.064544 158.820514 
L 188.119408 158.820514 
L 188.190885 166.941659 
L 188.19733 158.820514 
L 188.290964 158.820514 
L 188.36493 166.941659 
L 188.500755 166.941659 
L 188.507559 158.820514 
L 188.600825 175.062804 
L 188.923326 175.062804 
L 188.955794 166.941659 
L 189.0233 175.062804 
L 189.092264 175.062804 
L 189.243874 166.941659 
L 189.395998 166.941659 
L 189.459016 158.820514 
L 189.48706 166.941659 
L 189.576513 166.941659 
L 189.742916 150.699369 
L 190.112314 150.699369 
L 190.210816 158.820514 
L 190.284346 158.820514 
L 190.312588 166.941659 
L 190.359194 158.820514 
L 190.434027 166.941659 
L 190.466217 158.820514 
L 190.587887 158.820514 
L 190.631674 150.699369 
L 190.676684 166.941659 
L 190.900284 166.941659 
L 190.934751 158.820514 
L 190.992625 166.941659 
L 191.030236 166.941659 
L 191.033951 175.062804 
L 191.129679 166.941659 
L 191.158186 166.941659 
L 191.181639 158.820514 
L 191.264766 166.941659 
L 191.376686 183.183949 
L 191.963735 183.183949 
L 192.071849 175.062804 
L 192.268128 175.062804 
L 192.472725 158.820514 
L 192.491205 166.941659 
L 192.579101 158.820514 
L 192.65406 158.820514 
L 192.854866 175.062804 
L 193.596026 175.062804 
L 193.627437 166.941659 
L 193.690734 175.062804 
L 193.888243 175.062804 
L 193.944071 183.183949 
L 194.096074 175.062804 
L 194.239286 175.062804 
L 194.362003 183.183949 
L 194.385917 183.183949 
L 194.456624 175.062804 
L 194.473059 183.183949 
L 194.72597 183.183949 
L 194.844167 175.062804 
L 194.936156 175.062804 
L 195.009373 166.941659 
L 195.292515 175.062804 
L 195.383644 150.699369 
L 195.572523 150.699369 
L 195.667103 166.941659 
L 195.685916 158.820514 
L 195.869415 134.45708 
L 195.937277 142.578225 
L 196.047693 142.578225 
L 196.19163 150.699369 
L 196.202771 158.820514 
L 196.544952 158.820514 
L 196.644916 175.062804 
L 196.833666 175.062804 
L 196.930627 183.183949 
L 197.041708 166.941659 
L 197.727835 166.941659 
L 197.85545 175.062804 
L 197.929818 175.062804 
L 198.056786 183.183949 
L 198.14551 175.062804 
L 198.311243 183.183949 
L 198.95983 183.183949 
L 198.971778 191.305093 
L 202.951585 191.305093 
L 203.06601 183.183949 
L 203.385998 191.305093 
L 206.433244 191.305093 
L 206.448266 183.183949 
L 206.74983 183.183949 
L 206.949124 191.305093 
L 207.823086 191.305093 
L 207.882785 183.183949 
L 211.400679 183.183949 
L 211.430384 191.305093 
L 212.798598 191.305093 
L 212.889356 183.183949 
L 214.471311 183.183949 
L 214.652275 191.305093 
L 218.730144 191.305093 
L 218.927453 183.183949 
L 218.95714 191.305093 
L 219.139924 175.062804 
L 219.268711 166.941659 
L 219.387169 183.183949 
L 219.487334 183.183949 
L 219.733415 191.305093 
L 225.431386 191.305093 
L 225.58118 175.062804 
L 225.583871 183.183949 
L 225.786977 175.062804 
L 225.95619 183.183949 
L 226.014841 183.183949 
L 226.227246 191.305093 
L 226.547913 175.062804 
L 226.919885 166.941659 
L 227.075719 166.941659 
L 227.144941 142.578225 
L 227.180091 150.699369 
L 227.315299 150.699369 
L 227.441072 175.062804 
L 227.610396 158.820514 
L 227.63746 166.941659 
L 227.738715 166.941659 
L 227.870348 175.062804 
L 228.101995 175.062804 
L 228.161089 166.941659 
L 228.239417 166.941659 
L 228.289982 175.062804 
L 228.310117 166.941659 
L 228.471448 166.941659 
L 228.582819 175.062804 
L 228.709433 166.941659 
L 229.027154 183.183949 
L 229.208317 166.941659 
L 229.224262 175.062804 
L 229.262766 175.062804 
L 229.409658 166.941659 
L 229.525655 175.062804 
L 229.672219 175.062804 
L 229.679464 183.183949 
L 229.887729 183.183949 
L 230.040705 175.062804 
L 230.181737 183.183949 
L 230.402561 183.183949 
L 230.906901 191.305093 
L 230.972932 183.183949 
L 231.176394 175.062804 
L 231.387249 158.820514 
L 231.53901 166.941659 
L 231.635523 166.941659 
L 231.728686 158.820514 
L 232.598663 183.183949 
L 232.917425 183.183949 
L 233.093817 191.305093 
L 237.168949 191.305093 
L 237.410133 183.183949 
L 237.481223 191.305093 
L 240.211911 191.305093 
L 240.235966 183.183949 
L 240.416046 175.062804 
L 240.569758 183.183949 
L 240.89737 183.183949 
L 241.515979 191.305093 
L 249.16864 191.305093 
L 249.357888 183.183949 
L 249.40014 175.062804 
L 249.578597 183.183949 
L 250.07128 183.183949 
L 250.197285 191.305093 
L 258.935496 191.305093 
L 258.983169 183.183949 
L 259.155049 191.305093 
L 259.200054 183.183949 
L 259.483984 183.183949 
L 259.513491 191.305093 
L 260.015023 183.183949 
L 261.111167 183.183949 
L 261.164607 191.305093 
L 261.184311 183.183949 
L 261.240488 183.183949 
L 261.310919 175.062804 
L 261.341868 183.183949 
L 264.702904 183.183949 
L 265.092057 191.305093 
L 267.096884 191.305093 
L 267.2833 183.183949 
L 267.407338 191.305093 
L 277.782361 191.305093 
L 277.930923 183.183949 
L 278.169342 191.305093 
L 293.3583 191.305093 
L 293.682396 183.183949 
L 293.819159 183.183949 
L 293.858336 191.305093 
L 294.038555 183.183949 
L 294.589013 191.305093 
L 297.850641 191.305093 
L 298.089582 183.183949 
L 298.191919 191.305093 
L 312.422447 191.305093 
L 312.422447 191.305093 
" clip-path="url(#pa0d937f9b8)" style="fill: none; stroke: #000000; stroke-width: 1.5; stroke-linecap: square"/>
   </g>
   <g id="patch_8">
    <path d="M 44.103906 195.365666 
L 44.103906 106.033073 
" style="fill: none; stroke: #000000; stroke-width: 0.8; stroke-linejoin: miter; stroke-linecap: square"/>
   </g>
   <g id="patch_9">
    <path d="M 325.19952 195.365666 
L 325.19952 106.033073 
" style="fill: none; stroke: #000000; stroke-width: 0.8; stroke-linejoin: miter; stroke-linecap: square"/>
   </g>
   <g id="patch_10">
    <path d="M 44.103906 195.365666 
L 325.19952 195.365666 
" style="fill: none; stroke: #000000; stroke-width: 0.8; stroke-linejoin: miter; stroke-linecap: square"/>
   </g>
   <g id="patch_11">
    <path d="M 44.103906 106.033073 
L 325.19952 106.033073 
" style="fill: none; stroke: #000000; stroke-width: 0.8; stroke-linejoin: miter; stroke-linecap: square"/>
   </g>
  </g>
  <g id="axes_3">
   <g id="patch_12">
    <path d="M 44.103906 294.198739 
L 325.19952 294.198739 
L 325.19952 204.866146 
L 44.103906 204.866146 
z
" style="fill: #ffffff"/>
   </g>
   <g id="matplotlib.axis_5">
    <g id="xtick_19">
     <g id="line2d_27">
      <g>
       <use xlink:href="#me86d085332" x="56.88098" y="294.198739" style="stroke: #000000; stroke-width: 0.8"/>
      </g>
     </g>
     <g id="text_9">
      <!-- 0 -->
      <g transform="translate(53.69973 308.796395) scale(0.1 -0.1)">
       <use xlink:href="#DejaVuSans-13"/>
      </g>
     </g>
    </g>
    <g id="xtick_20">
     <g id="line2d_28">
      <g>
       <use xlink:href="#me86d085332" x="88.450435" y="294.198739" style="stroke: #000000; stroke-width: 0.8"/>
      </g>
     </g>
     <g id="text_10">
      <!-- 100 -->
      <g transform="translate(78.906685 308.796395) scale(0.1 -0.1)">
       <use xlink:href="#DejaVuSans-14"/>
       <use xlink:href="#DejaVuSans-13" transform="translate(63.625 0)"/>
       <use xlink:href="#DejaVuSans-13" transform="translate(127.25 0)"/>
      </g>
     </g>
    </g>
    <g id="xtick_21">
     <g id="line2d_29">
      <g>
       <use xlink:href="#me86d085332" x="120.01989" y="294.198739" style="stroke: #000000; stroke-width: 0.8"/>
      </g>
     </g>
     <g id="text_11">
      <!-- 200 -->
      <g transform="translate(110.47614 308.796395) scale(0.1 -0.1)">
       <defs>
        <path id="DejaVuSans-15" d="M 1228 531 
L 3431 531 
L 3431 0 
L 469 0 
L 469 531 
Q 828 903 1448 1529 
Q 2069 2156 2228 2338 
Q 2531 2678 2651 2914 
Q 2772 3150 2772 3378 
Q 2772 3750 2511 3984 
Q 2250 4219 1831 4219 
Q 1534 4219 1204 4116 
Q 875 4013 500 3803 
L 500 4441 
Q 881 4594 1212 4672 
Q 1544 4750 1819 4750 
Q 2544 4750 2975 4387 
Q 3406 4025 3406 3419 
Q 3406 3131 3298 2873 
Q 3191 2616 2906 2266 
Q 2828 2175 2409 1742 
Q 1991 1309 1228 531 
z
" transform="scale(0.015625)"/>
       </defs>
       <use xlink:href="#DejaVuSans-15"/>
       <use xlink:href="#DejaVuSans-13" transform="translate(63.625 0)"/>
       <use xlink:href="#DejaVuSans-13" transform="translate(127.25 0)"/>
      </g>
     </g>
    </g>
    <g id="xtick_22">
     <g id="line2d_30">
      <g>
       <use xlink:href="#me86d085332" x="151.589345" y="294.198739" style="stroke: #000000; stroke-width: 0.8"/>
      </g>
     </g>
     <g id="text_12">
      <!-- 300 -->
      <g transform="translate(142.045595 308.796395) scale(0.1 -0.1)">
       <defs>
        <path id="DejaVuSans-16" d="M 2597 2516 
Q 3050 2419 3304 2112 
Q 3559 1806 3559 1356 
Q 3559 666 3084 287 
Q 2609 -91 1734 -91 
Q 1441 -91 1130 -33 
Q 819 25 488 141 
L 488 750 
Q 750 597 1062 519 
Q 1375 441 1716 441 
Q 2309 441 2620 675 
Q 2931 909 2931 1356 
Q 2931 1769 2642 2001 
Q 2353 2234 1838 2234 
L 1294 2234 
L 1294 2753 
L 1863 2753 
Q 2328 2753 2575 2939 
Q 2822 3125 2822 3475 
Q 2822 3834 2567 4026 
Q 2313 4219 1838 4219 
Q 1578 4219 1281 4162 
Q 984 4106 628 3988 
L 628 4550 
Q 988 4650 1302 4700 
Q 1616 4750 1894 4750 
Q 2613 4750 3031 4423 
Q 3450 4097 3450 3541 
Q 3450 3153 3228 2886 
Q 3006 2619 2597 2516 
z
" transform="scale(0.015625)"/>
       </defs>
       <use xlink:href="#DejaVuSans-16"/>
       <use xlink:href="#DejaVuSans-13" transform="translate(63.625 0)"/>
       <use xlink:href="#DejaVuSans-13" transform="translate(127.25 0)"/>
      </g>
     </g>
    </g>
    <g id="xtick_23">
     <g id="line2d_31">
      <g>
       <use xlink:href="#me86d085332" x="183.1588" y="294.198739" style="stroke: #000000; stroke-width: 0.8"/>
      </g>
     </g>
     <g id="text_13">
      <!-- 400 -->
      <g transform="translate(173.61505 308.796395) scale(0.1 -0.1)">
       <defs>
        <path id="DejaVuSans-17" d="M 2419 4116 
L 825 1625 
L 2419 1625 
L 2419 4116 
z
M 2253 4666 
L 3047 4666 
L 3047 1625 
L 3713 1625 
L 3713 1100 
L 3047 1100 
L 3047 0 
L 2419 0 
L 2419 1100 
L 313 1100 
L 313 1709 
L 2253 4666 
z
" transform="scale(0.015625)"/>
       </defs>
       <use xlink:href="#DejaVuSans-17"/>
       <use xlink:href="#DejaVuSans-13" transform="translate(63.625 0)"/>
       <use xlink:href="#DejaVuSans-13" transform="translate(127.25 0)"/>
      </g>
     </g>
    </g>
    <g id="xtick_24">
     <g id="line2d_32">
      <g>
       <use xlink:href="#me86d085332" x="214.728255" y="294.198739" style="stroke: #000000; stroke-width: 0.8"/>
      </g>
     </g>
     <g id="text_14">
      <!-- 500 -->
      <g transform="translate(205.184505 308.796395) scale(0.1 -0.1)">
       <use xlink:href="#DejaVuSans-18"/>
       <use xlink:href="#DejaVuSans-13" transform="translate(63.625 0)"/>
       <use xlink:href="#DejaVuSans-13" transform="translate(127.25 0)"/>
      </g>
     </g>
    </g>
    <g id="xtick_25">
     <g id="line2d_33">
      <g>
       <use xlink:href="#me86d085332" x="246.29771" y="294.198739" style="stroke: #000000; stroke-width: 0.8"/>
      </g>
     </g>
     <g id="text_15">
      <!-- 600 -->
      <g transform="translate(236.75396 308.796395) scale(0.1 -0.1)">
       <defs>
        <path id="DejaVuSans-19" d="M 2113 2584 
Q 1688 2584 1439 2293 
Q 1191 2003 1191 1497 
Q 1191 994 1439 701 
Q 1688 409 2113 409 
Q 2538 409 2786 701 
Q 3034 994 3034 1497 
Q 3034 2003 2786 2293 
Q 2538 2584 2113 2584 
z
M 3366 4563 
L 3366 3988 
Q 3128 4100 2886 4159 
Q 2644 4219 2406 4219 
Q 1781 4219 1451 3797 
Q 1122 3375 1075 2522 
Q 1259 2794 1537 2939 
Q 1816 3084 2150 3084 
Q 2853 3084 3261 2657 
Q 3669 2231 3669 1497 
Q 3669 778 3244 343 
Q 2819 -91 2113 -91 
Q 1303 -91 875 529 
Q 447 1150 447 2328 
Q 447 3434 972 4092 
Q 1497 4750 2381 4750 
Q 2619 4750 2861 4703 
Q 3103 4656 3366 4563 
z
" transform="scale(0.015625)"/>
       </defs>
       <use xlink:href="#DejaVuSans-19"/>
       <use xlink:href="#DejaVuSans-13" transform="translate(63.625 0)"/>
       <use xlink:href="#DejaVuSans-13" transform="translate(127.25 0)"/>
      </g>
     </g>
    </g>
    <g id="xtick_26">
     <g id="line2d_34">
      <g>
       <use xlink:href="#me86d085332" x="277.867165" y="294.198739" style="stroke: #000000; stroke-width: 0.8"/>
      </g>
     </g>
     <g id="text_16">
      <!-- 700 -->
      <g transform="translate(268.323415 308.796395) scale(0.1 -0.1)">
       <defs>
        <path id="DejaVuSans-1a" d="M 525 4666 
L 3525 4666 
L 3525 4397 
L 1831 0 
L 1172 0 
L 2766 4134 
L 525 4134 
L 525 4666 
z
" transform="scale(0.015625)"/>
       </defs>
       <use xlink:href="#DejaVuSans-1a"/>
       <use xlink:href="#DejaVuSans-13" transform="translate(63.625 0)"/>
       <use xlink:href="#DejaVuSans-13" transform="translate(127.25 0)"/>
      </g>
     </g>
    </g>
    <g id="xtick_27">
     <g id="line2d_35">
      <g>
       <use xlink:href="#me86d085332" x="309.43662" y="294.198739" style="stroke: #000000; stroke-width: 0.8"/>
      </g>
     </g>
     <g id="text_17">
      <!-- 800 -->
      <g transform="translate(299.89287 308.796395) scale(0.1 -0.1)">
       <defs>
        <path id="DejaVuSans-1b" d="M 2034 2216 
Q 1584 2216 1326 1975 
Q 1069 1734 1069 1313 
Q 1069 891 1326 650 
Q 1584 409 2034 409 
Q 2484 409 2743 651 
Q 3003 894 3003 1313 
Q 3003 1734 2745 1975 
Q 2488 2216 2034 2216 
z
M 1403 2484 
Q 997 2584 770 2862 
Q 544 3141 544 3541 
Q 544 4100 942 4425 
Q 1341 4750 2034 4750 
Q 2731 4750 3128 4425 
Q 3525 4100 3525 3541 
Q 3525 3141 3298 2862 
Q 3072 2584 2669 2484 
Q 3125 2378 3379 2068 
Q 3634 1759 3634 1313 
Q 3634 634 3220 271 
Q 2806 -91 2034 -91 
Q 1263 -91 848 271 
Q 434 634 434 1313 
Q 434 1759 690 2068 
Q 947 2378 1403 2484 
z
M 1172 3481 
Q 1172 3119 1398 2916 
Q 1625 2713 2034 2713 
Q 2441 2713 2670 2916 
Q 2900 3119 2900 3481 
Q 2900 3844 2670 4047 
Q 2441 4250 2034 4250 
Q 1625 4250 1398 4047 
Q 1172 3844 1172 3481 
z
" transform="scale(0.015625)"/>
       </defs>
       <use xlink:href="#DejaVuSans-1b"/>
       <use xlink:href="#DejaVuSans-13" transform="translate(63.625 0)"/>
       <use xlink:href="#DejaVuSans-13" transform="translate(127.25 0)"/>
      </g>
     </g>
    </g>
    <g id="text_18">
     <!-- Time -->
     <g transform="translate(172.415776 322.797176) scale(0.1 -0.1)">
      <defs>
       <path id="DejaVuSans-37" d="M -19 4666 
L 3928 4666 
L 3928 4134 
L 2272 4134 
L 2272 0 
L 1638 0 
L 1638 4134 
L -19 4134 
L -19 4666 
z
" transform="scale(0.015625)"/>
       <path id="DejaVuSans-4c" d="M 603 3500 
L 1178 3500 
L 1178 0 
L 603 0 
L 603 3500 
z
M 603 4863 
L 1178 4863 
L 1178 4134 
L 603 4134 
L 603 4863 
z
" transform="scale(0.015625)"/>
       <path id="DejaVuSans-50" d="M 3328 2828 
Q 3544 3216 3844 3400 
Q 4144 3584 4550 3584 
Q 5097 3584 5394 3201 
Q 5691 2819 5691 2113 
L 5691 0 
L 5113 0 
L 5113 2094 
Q 5113 2597 4934 2840 
Q 4756 3084 4391 3084 
Q 3944 3084 3684 2787 
Q 3425 2491 3425 1978 
L 3425 0 
L 2847 0 
L 2847 2094 
Q 2847 2600 2669 2842 
Q 2491 3084 2119 3084 
Q 1678 3084 1418 2786 
Q 1159 2488 1159 1978 
L 1159 0 
L 581 0 
L 581 3500 
L 1159 3500 
L 1159 2956 
Q 1356 3278 1631 3431 
Q 1906 3584 2284 3584 
Q 2666 3584 2933 3390 
Q 3200 3197 3328 2828 
z
" transform="scale(0.015625)"/>
      </defs>
      <use xlink:href="#DejaVuSans-37"/>
      <use xlink:href="#DejaVuSans-4c" transform="translate(58 0)"/>
      <use xlink:href="#DejaVuSans-50" transform="translate(85.78125 0)"/>
      <use xlink:href="#DejaVuSans-48" transform="translate(183.1875 0)"/>
     </g>
    </g>
   </g>
   <g id="matplotlib.axis_6">
    <g id="ytick_7">
     <g id="line2d_36">
      <g>
       <use xlink:href="#mc921427cd1" x="44.103906" y="290.138166" style="stroke: #000000; stroke-width: 0.8"/>
      </g>
     </g>
     <g id="text_19">
      <!-- 0.0 -->
      <g transform="translate(21.200781 293.936994) scale(0.1 -0.1)">
       <defs>
        <path id="DejaVuSans-11" d="M 684 794 
L 1344 794 
L 1344 0 
L 684 0 
L 684 794 
z
" transform="scale(0.015625)"/>
       </defs>
       <use xlink:href="#DejaVuSans-13"/>
       <use xlink:href="#DejaVuSans-11" transform="translate(63.625 0)"/>
       <use xlink:href="#DejaVuSans-13" transform="translate(95.40625 0)"/>
      </g>
     </g>
    </g>
    <g id="ytick_8">
     <g id="line2d_37">
      <g>
       <use xlink:href="#mc921427cd1" x="44.103906" y="249.532442" style="stroke: #000000; stroke-width: 0.8"/>
      </g>
     </g>
     <g id="text_20">
      <!-- 0.5 -->
      <g transform="translate(21.200781 253.33127) scale(0.1 -0.1)">
       <use xlink:href="#DejaVuSans-13"/>
       <use xlink:href="#DejaVuSans-11" transform="translate(63.625 0)"/>
       <use xlink:href="#DejaVuSans-18" transform="translate(95.40625 0)"/>
      </g>
     </g>
    </g>
    <g id="ytick_9">
     <g id="line2d_38">
      <g>
       <use xlink:href="#mc921427cd1" x="44.103906" y="208.926718" style="stroke: #000000; stroke-width: 0.8"/>
      </g>
     </g>
     <g id="text_21">
      <!-- 1.0 -->
      <g transform="translate(21.200781 212.725546) scale(0.1 -0.1)">
       <use xlink:href="#DejaVuSans-14"/>
       <use xlink:href="#DejaVuSans-11" transform="translate(63.625 0)"/>
       <use xlink:href="#DejaVuSans-13" transform="translate(95.40625 0)"/>
      </g>
     </g>
    </g>
    <g id="text_22">
     <!-- Free lac operon -->
     <g transform="translate(14.798438 288.006661) rotate(-90) scale(0.1 -0.1)">
      <defs>
       <path id="DejaVuSans-29" d="M 628 4666 
L 3309 4666 
L 3309 4134 
L 1259 4134 
L 1259 2759 
L 3109 2759 
L 3109 2228 
L 1259 2228 
L 1259 0 
L 628 0 
L 628 4666 
z
" transform="scale(0.015625)"/>
       <path id="DejaVuSans-53" d="M 1159 525 
L 1159 -1331 
L 581 -1331 
L 581 3500 
L 1159 3500 
L 1159 2969 
Q 1341 3281 1617 3432 
Q 1894 3584 2278 3584 
Q 2916 3584 3314 3078 
Q 3713 2572 3713 1747 
Q 3713 922 3314 415 
Q 2916 -91 2278 -91 
Q 1894 -91 1617 61 
Q 1341 213 1159 525 
z
M 3116 1747 
Q 3116 2381 2855 2742 
Q 2594 3103 2138 3103 
Q 1681 3103 1420 2742 
Q 1159 2381 1159 1747 
Q 1159 1113 1420 752 
Q 1681 391 2138 391 
Q 2594 391 2855 752 
Q 3116 1113 3116 1747 
z
" transform="scale(0.015625)"/>
       <path id="DejaVuSans-51" d="M 3513 2113 
L 3513 0 
L 2938 0 
L 2938 2094 
Q 2938 2591 2744 2837 
Q 2550 3084 2163 3084 
Q 1697 3084 1428 2787 
Q 1159 2491 1159 1978 
L 1159 0 
L 581 0 
L 581 3500 
L 1159 3500 
L 1159 2956 
Q 1366 3272 1645 3428 
Q 1925 3584 2291 3584 
Q 2894 3584 3203 3211 
Q 3513 2838 3513 2113 
z
" transform="scale(0.015625)"/>
      </defs>
      <use xlink:href="#DejaVuSans-29"/>
      <use xlink:href="#DejaVuSans-55" transform="translate(50.234375 0)"/>
      <use xlink:href="#DejaVuSans-48" transform="translate(89.140625 0)"/>
      <use xlink:href="#DejaVuSans-48" transform="translate(150.671875 0)"/>
      <use xlink:href="#DejaVuSans-3" transform="translate(212.203125 0)"/>
      <use xlink:href="#DejaVuSans-4f" transform="translate(243.984375 0)"/>
      <use xlink:href="#DejaVuSans-44" transform="translate(271.765625 0)"/>
      <use xlink:href="#DejaVuSans-46" transform="translate(333.046875 0)"/>
      <use xlink:href="#DejaVuSans-3" transform="translate(388.03125 0)"/>
      <use xlink:href="#DejaVuSans-52" transform="translate(419.8125 0)"/>
      <use xlink:href="#DejaVuSans-53" transform="translate(481 0)"/>
      <use xlink:href="#DejaVuSans-48" transform="translate(544.484375 0)"/>
      <use xlink:href="#DejaVuSans-55" transform="translate(606.015625 0)"/>
      <use xlink:href="#DejaVuSans-52" transform="translate(644.921875 0)"/>
      <use xlink:href="#DejaVuSans-51" transform="translate(706.109375 0)"/>
     </g>
    </g>
   </g>
   <g id="line2d_39">
    <path d="M 56.88098 208.926718 
L 56.961723 290.138166 
L 57.128419 290.138166 
L 57.296395 208.926718 
L 57.413444 208.926718 
L 57.514609 290.138166 
L 58.719382 290.138166 
L 59.699864 208.926718 
L 59.884444 208.926718 
L 59.906974 290.138166 
L 62.305519 290.138166 
L 64.8755 208.926718 
L 65.167607 208.926718 
L 65.303752 290.138166 
L 65.428434 290.138166 
L 72.027848 208.926718 
L 72.196031 290.138166 
L 79.961472 208.926718 
L 80.010045 290.138166 
L 82.611668 208.926718 
L 82.750333 208.926718 
L 82.803983 290.138166 
L 84.527854 290.138166 
L 84.592668 208.926718 
L 85.460668 208.926718 
L 85.648848 290.138166 
L 86.671916 290.138166 
L 89.636198 208.926718 
L 90.171093 208.926718 
L 90.200095 290.138166 
L 90.554615 290.138166 
L 91.427666 208.926718 
L 91.485559 290.138166 
L 91.826146 290.138166 
L 108.739373 208.926718 
L 108.752945 290.138166 
L 109.008962 290.138166 
L 109.282476 208.926718 
L 109.567109 290.138166 
L 109.693965 208.926718 
L 110.097853 208.926718 
L 110.300498 290.138166 
L 110.590366 290.138166 
L 114.713073 208.926718 
L 115.367436 290.138166 
L 116.993907 208.926718 
L 117.30615 290.138166 
L 117.972199 208.926718 
L 118.058696 290.138166 
L 119.058486 208.926718 
L 119.14259 290.138166 
L 123.048032 290.138166 
L 129.009805 208.926718 
L 129.114747 290.138166 
L 130.840498 208.926718 
L 131.287016 208.926718 
L 131.308253 290.138166 
L 133.131092 290.138166 
L 135.702119 208.926718 
L 135.715299 290.138166 
L 138.569036 208.926718 
L 138.611362 290.138166 
L 145.587865 208.926718 
L 146.523233 208.926718 
L 146.590898 290.138166 
L 147.201477 290.138166 
L 147.444186 208.926718 
L 147.756078 208.926718 
L 147.867755 290.138166 
L 148.928207 290.138166 
L 149.434786 208.926718 
L 149.534583 290.138166 
L 150.645042 290.138166 
L 150.656255 208.926718 
L 150.816259 290.138166 
L 155.083879 208.926718 
L 155.171969 290.138166 
L 155.418921 208.926718 
L 198.217378 208.926718 
L 198.311243 290.138166 
L 201.144999 290.138166 
L 201.266202 208.926718 
L 201.338792 290.138166 
L 202.951585 208.926718 
L 203.063603 208.926718 
L 203.06601 290.138166 
L 203.342295 290.138166 
L 203.366404 208.926718 
L 203.385998 290.138166 
L 205.788281 290.138166 
L 206.448266 208.926718 
L 206.704848 208.926718 
L 206.74983 290.138166 
L 206.949124 290.138166 
L 207.83956 208.926718 
L 207.882785 290.138166 
L 212.518143 290.138166 
L 212.889356 208.926718 
L 213.30412 290.138166 
L 214.652275 290.138166 
L 218.730144 208.926718 
L 219.213647 208.926718 
L 219.311622 290.138166 
L 220.619062 290.138166 
L 225.522956 208.926718 
L 231.6577 208.926718 
L 231.728686 290.138166 
L 234.528724 290.138166 
L 237.168949 208.926718 
L 237.451172 208.926718 
L 237.481223 290.138166 
L 240.235966 208.926718 
L 240.535751 208.926718 
L 240.569758 290.138166 
L 243.75088 290.138166 
L 249.16864 208.926718 
L 249.518451 208.926718 
L 249.578597 290.138166 
L 250.706878 290.138166 
L 256.632651 208.926718 
L 256.880993 290.138166 
L 258.983169 208.926718 
L 260.015023 208.926718 
L 260.439188 290.138166 
L 260.99373 290.138166 
L 261.184311 208.926718 
L 261.341868 208.926718 
L 261.519381 290.138166 
L 265.092057 290.138166 
L 266.548863 208.926718 
L 266.645591 290.138166 
L 267.096884 208.926718 
L 267.407338 208.926718 
L 267.575566 290.138166 
L 267.628249 208.926718 
L 267.679361 290.138166 
L 268.936053 290.138166 
L 277.782361 208.926718 
L 277.926299 208.926718 
L 277.930923 290.138166 
L 278.433487 290.138166 
L 289.305463 208.926718 
L 289.442579 290.138166 
L 291.654552 208.926718 
L 291.986487 290.138166 
L 293.191573 208.926718 
L 293.21571 290.138166 
L 293.3583 208.926718 
L 294.008157 208.926718 
L 294.038555 290.138166 
L 297.332877 290.138166 
L 297.850641 208.926718 
L 298.019735 208.926718 
L 298.025164 290.138166 
L 298.119504 208.926718 
L 298.191919 208.926718 
L 298.605499 290.138166 
L 299.997285 208.926718 
L 300.102091 290.138166 
L 306.004801 208.926718 
L 306.025636 290.138166 
L 312.422447 208.926718 
L 312.422447 208.926718 
" clip-path="url(#pdc0f2c8df5)" style="fill: none; stroke: #000000; stroke-width: 1.5; stroke-linecap: square"/>
   </g>
   <g id="patch_13">
    <path d="M 44.103906 294.198739 
L 44.103906 204.866146 
" style="fill: none; stroke: #000000; stroke-width: 0.8; stroke-linejoin: miter; stroke-linecap: square"/>
   </g>
   <g id="patch_14">
    <path d="M 325.19952 294.198739 
L 325.19952 204.866146 
" style="fill: none; stroke: #000000; stroke-width: 0.8; stroke-linejoin: miter; stroke-linecap: square"/>
   </g>
   <g id="patch_15">
    <path d="M 44.103906 294.198739 
L 325.19952 294.198739 
" style="fill: none; stroke: #000000; stroke-width: 0.8; stroke-linejoin: miter; stroke-linecap: square"/>
   </g>
   <g id="patch_16">
    <path d="M 44.103906 204.866146 
L 325.19952 204.866146 
" style="fill: none; stroke: #000000; stroke-width: 0.8; stroke-linejoin: miter; stroke-linecap: square"/>
   </g>
  </g>
 </g>
 <defs>
  <clipPath id="p2ffd06b3c1">
   <rect x="44.103906" y="7.2" width="281.095614" height="89.332593"/>
  </clipPath>
  <clipPath id="pa0d937f9b8">
   <rect x="44.103906" y="106.033073" width="281.095614" height="89.332593"/>
  </clipPath>
  <clipPath id="pdc0f2c8df5">
   <rect x="44.103906" y="204.866146" width="281.095614" height="89.332593"/>
  </clipPath>
 </defs>
</svg>
