<?xml version="1.0" encoding="utf-8" standalone="no"?>
<!DOCTYPE svg PUBLIC "-//W3C//DTD SVG 1.1//EN"
  "http://www.w3.org/Graphics/SVG/1.1/DTD/svg11.dtd">
<svg xmlns:xlink="http://www.w3.org/1999/xlink" width="332.39952pt" height="338.705099pt" viewBox="0 0 332.39952 338.705099" xmlns="http://www.w3.org/2000/svg" version="1.1">
 <metadata>
  <rdf:RDF xmlns:dc="http://purl.org/dc/elements/1.1/" xmlns:cc="http://creativecommons.org/ns#" xmlns:rdf="http://www.w3.org/1999/02/22-rdf-syntax-ns#">
   <cc:Work>
    <dc:type rdf:resource="http://purl.org/dc/dcmitype/StillImage"/>
    <dc:date>2026-07-22T14:52:03.640490</dc:date>
    <dc:format>image/svg+xml</dc:format>
    <dc:creator>
     <cc:Agent>
      <dc:title>Matplotlib v3.11.1, https://matplotlib.org/</dc:title>
     </cc:Agent>
    </dc:creator>
   </cc:Work>
  </rdf:RDF>
 </metadata>
 <defs>
  <style type="text/css">*{stroke-linejoin: round; stroke-linecap: butt}</style>
 </defs>
 <g id="figure_1">
  <g id="patch_1">
   <path d="M 0 338.705099 
L 332.39952 338.705099 
L 332.39952 0 
L 0 0 
z
" style="fill: #ffffff"/>
  </g>
  <g id="axes_1">
   <g id="patch_2">
    <path d="M 44.103906 102.838171 
L 325.19952 102.838171 
L 325.19952 13.505579 
L 44.103906 13.505579 
z
" style="fill: #ffffff"/>
   </g>
   <g id="matplotlib.axis_1">
    <g id="xtick_1">
     <g id="line2d_1">
      <defs>
       <path id="m87abb26899" d="M 0 0 
L 0 3.5 
" style="stroke: #000000; stroke-width: 0.8"/>
      </defs>
      <g>
       <use xlink:href="#m87abb26899" x="56.88098" y="102.838171" style="stroke: #000000; stroke-width: 0.8"/>
      </g>
     </g>
    </g>
    <g id="xtick_2">
     <g id="line2d_2">
      <g>
       <use xlink:href="#m87abb26899" x="88.503754" y="102.838171" style="stroke: #000000; stroke-width: 0.8"/>
      </g>
     </g>
    </g>
    <g id="xtick_3">
     <g id="line2d_3">
      <g>
       <use xlink:href="#m87abb26899" x="120.126529" y="102.838171" style="stroke: #000000; stroke-width: 0.8"/>
      </g>
     </g>
    </g>
    <g id="xtick_4">
     <g id="line2d_4">
      <g>
       <use xlink:href="#m87abb26899" x="151.749303" y="102.838171" style="stroke: #000000; stroke-width: 0.8"/>
      </g>
     </g>
    </g>
    <g id="xtick_5">
     <g id="line2d_5">
      <g>
       <use xlink:href="#m87abb26899" x="183.372078" y="102.838171" style="stroke: #000000; stroke-width: 0.8"/>
      </g>
     </g>
    </g>
    <g id="xtick_6">
     <g id="line2d_6">
      <g>
       <use xlink:href="#m87abb26899" x="214.994853" y="102.838171" style="stroke: #000000; stroke-width: 0.8"/>
      </g>
     </g>
    </g>
    <g id="xtick_7">
     <g id="line2d_7">
      <g>
       <use xlink:href="#m87abb26899" x="246.617627" y="102.838171" style="stroke: #000000; stroke-width: 0.8"/>
      </g>
     </g>
    </g>
    <g id="xtick_8">
     <g id="line2d_8">
      <g>
       <use xlink:href="#m87abb26899" x="278.240402" y="102.838171" style="stroke: #000000; stroke-width: 0.8"/>
      </g>
     </g>
    </g>
    <g id="xtick_9">
     <g id="line2d_9">
      <g>
       <use xlink:href="#m87abb26899" x="309.863176" y="102.838171" style="stroke: #000000; stroke-width: 0.8"/>
      </g>
     </g>
    </g>
   </g>
   <g id="matplotlib.axis_2">
    <g id="ytick_1">
     <g id="line2d_10">
      <defs>
       <path id="me0438d47d2" d="M 0 0 
L -3.5 0 
" style="stroke: #000000; stroke-width: 0.8"/>
      </defs>
      <g>
       <use xlink:href="#me0438d47d2" x="44.103906" y="98.777599" style="stroke: #000000; stroke-width: 0.8"/>
      </g>
     </g>
     <g id="text_1">
      <!-- 0 -->
      <g transform="translate(30.741406 102.576427) scale(0.1 -0.1)">
       <defs>
        <path id="DejaVuSans-13" d="M 2034 4250 
Q 1547 4250 1301 3770 
Q 1056 3291 1056 2328 
Q 1056 1369 1301 889 
Q 1547 409 2034 409 
Q 2525 409 2770 889 
Q 3016 1369 3016 2328 
Q 3016 3291 2770 3770 
Q 2525 4250 2034 4250 
z
M 2034 4750 
Q 2819 4750 3233 4129 
Q 3647 3509 3647 2328 
Q 3647 1150 3233 529 
Q 2819 -91 2034 -91 
Q 1250 -91 836 529 
Q 422 1150 422 2328 
Q 422 3509 836 4129 
Q 1250 4750 2034 4750 
z
" transform="scale(0.015625)"/>
       </defs>
       <use xlink:href="#DejaVuSans-13"/>
      </g>
     </g>
    </g>
    <g id="ytick_2">
     <g id="line2d_11">
      <g>
       <use xlink:href="#me0438d47d2" x="44.103906" y="58.171875" style="stroke: #000000; stroke-width: 0.8"/>
      </g>
     </g>
     <g id="text_2">
      <!-- 5 -->
      <g transform="translate(30.741406 61.970703) scale(0.1 -0.1)">
       <defs>
        <path id="DejaVuSans-18" d="M 691 4666 
L 3169 4666 
L 3169 4134 
L 1269 4134 
L 1269 2991 
Q 1406 3038 1543 3061 
Q 1681 3084 1819 3084 
Q 2600 3084 3056 2656 
Q 3513 2228 3513 1497 
Q 3513 744 3044 326 
Q 2575 -91 1722 -91 
Q 1428 -91 1123 -41 
Q 819 9 494 109 
L 494 744 
Q 775 591 1075 516 
Q 1375 441 1709 441 
Q 2250 441 2565 725 
Q 2881 1009 2881 1497 
Q 2881 1984 2565 2268 
Q 2250 2553 1709 2553 
Q 1456 2553 1204 2497 
Q 953 2441 691 2322 
L 691 4666 
z
" transform="scale(0.015625)"/>
       </defs>
       <use xlink:href="#DejaVuSans-18"/>
      </g>
     </g>
    </g>
    <g id="ytick_3">
     <g id="line2d_12">
      <g>
       <use xlink:href="#me0438d47d2" x="44.103906" y="17.566151" style="stroke: #000000; stroke-width: 0.8"/>
      </g>
     </g>
     <g id="text_3">
      <!-- 10 -->
      <g transform="translate(24.378906 21.364979) scale(0.1 -0.1)">
       <defs>
        <path id="DejaVuSans-14" d="M 794 531 
L 1825 531 
L 1825 4091 
L 703 3866 
L 703 4441 
L 1819 4666 
L 2450 4666 
L 2450 531 
L 3481 531 
L 3481 0 
L 794 0 
L 794 531 
z
" transform="scale(0.015625)"/>
       </defs>
       <use xlink:href="#DejaVuSans-14"/>
       <use xlink:href="#DejaVuSans-13" transform="translate(63.625 0)"/>
      </g>
     </g>
    </g>
    <g id="text_4">
     <!-- Extracellular lactose -->
     <g transform="translate(17.976563 109.14375) rotate(-90) scale(0.1 -0.1)">
      <defs>
       <path id="DejaVuSans-28" d="M 628 4666 
L 3578 4666 
L 3578 4134 
L 1259 4134 
L 1259 2753 
L 3481 2753 
L 3481 2222 
L 1259 2222 
L 1259 531 
L 3634 531 
L 3634 0 
L 628 0 
L 628 4666 
z
" transform="scale(0.015625)"/>
       <path id="DejaVuSans-5b" d="M 3513 3500 
L 2247 1797 
L 3578 0 
L 2900 0 
L 1881 1375 
L 863 0 
L 184 0 
L 1544 1831 
L 300 3500 
L 978 3500 
L 1906 2253 
L 2834 3500 
L 3513 3500 
z
" transform="scale(0.015625)"/>
       <path id="DejaVuSans-57" d="M 1172 4494 
L 1172 3500 
L 2356 3500 
L 2356 3053 
L 1172 3053 
L 1172 1153 
Q 1172 725 1289 603 
Q 1406 481 1766 481 
L 2356 481 
L 2356 0 
L 1766 0 
Q 1100 0 847 248 
Q 594 497 594 1153 
L 594 3053 
L 172 3053 
L 172 3500 
L 594 3500 
L 594 4494 
L 1172 4494 
z
" transform="scale(0.015625)"/>
       <path id="DejaVuSans-55" d="M 2631 2963 
Q 2534 3019 2420 3045 
Q 2306 3072 2169 3072 
Q 1681 3072 1420 2755 
Q 1159 2438 1159 1844 
L 1159 0 
L 581 0 
L 581 3500 
L 1159 3500 
L 1159 2956 
Q 1341 3275 1631 3429 
Q 1922 3584 2338 3584 
Q 2397 3584 2469 3576 
Q 2541 3569 2628 3553 
L 2631 2963 
z
" transform="scale(0.015625)"/>
       <path id="DejaVuSans-44" d="M 2194 1759 
Q 1497 1759 1228 1600 
Q 959 1441 959 1056 
Q 959 750 1161 570 
Q 1363 391 1709 391 
Q 2188 391 2477 730 
Q 2766 1069 2766 1631 
L 2766 1759 
L 2194 1759 
z
M 3341 1997 
L 3341 0 
L 2766 0 
L 2766 531 
Q 2569 213 2275 61 
Q 1981 -91 1556 -91 
Q 1019 -91 701 211 
Q 384 513 384 1019 
Q 384 1609 779 1909 
Q 1175 2209 1959 2209 
L 2766 2209 
L 2766 2266 
Q 2766 2663 2505 2880 
Q 2244 3097 1772 3097 
Q 1472 3097 1187 3025 
Q 903 2953 641 2809 
L 641 3341 
Q 956 3463 1253 3523 
Q 1550 3584 1831 3584 
Q 2591 3584 2966 3190 
Q 3341 2797 3341 1997 
z
" transform="scale(0.015625)"/>
       <path id="DejaVuSans-46" d="M 3122 3366 
L 3122 2828 
Q 2878 2963 2633 3030 
Q 2388 3097 2138 3097 
Q 1578 3097 1268 2742 
Q 959 2388 959 1747 
Q 959 1106 1268 751 
Q 1578 397 2138 397 
Q 2388 397 2633 464 
Q 2878 531 3122 666 
L 3122 134 
Q 2881 22 2623 -34 
Q 2366 -91 2075 -91 
Q 1284 -91 818 406 
Q 353 903 353 1747 
Q 353 2603 823 3093 
Q 1294 3584 2113 3584 
Q 2378 3584 2631 3529 
Q 2884 3475 3122 3366 
z
" transform="scale(0.015625)"/>
       <path id="DejaVuSans-48" d="M 3597 1894 
L 3597 1613 
L 953 1613 
Q 991 1019 1311 708 
Q 1631 397 2203 397 
Q 2534 397 2845 478 
Q 3156 559 3463 722 
L 3463 178 
Q 3153 47 2828 -22 
Q 2503 -91 2169 -91 
Q 1331 -91 842 396 
Q 353 884 353 1716 
Q 353 2575 817 3079 
Q 1281 3584 2069 3584 
Q 2775 3584 3186 3129 
Q 3597 2675 3597 1894 
z
M 3022 2063 
Q 3016 2534 2758 2815 
Q 2500 3097 2075 3097 
Q 1594 3097 1305 2825 
Q 1016 2553 972 2059 
L 3022 2063 
z
" transform="scale(0.015625)"/>
       <path id="DejaVuSans-4f" d="M 603 4863 
L 1178 4863 
L 1178 0 
L 603 0 
L 603 4863 
z
" transform="scale(0.015625)"/>
       <path id="DejaVuSans-58" d="M 544 1381 
L 544 3500 
L 1119 3500 
L 1119 1403 
Q 1119 906 1312 657 
Q 1506 409 1894 409 
Q 2359 409 2629 706 
Q 2900 1003 2900 1516 
L 2900 3500 
L 3475 3500 
L 3475 0 
L 2900 0 
L 2900 538 
Q 2691 219 2414 64 
Q 2138 -91 1772 -91 
Q 1169 -91 856 284 
Q 544 659 544 1381 
z
M 1991 3584 
L 1991 3584 
z
" transform="scale(0.015625)"/>
       <path id="DejaVuSans-3" transform="scale(0.015625)"/>
       <path id="DejaVuSans-52" d="M 1959 3097 
Q 1497 3097 1228 2736 
Q 959 2375 959 1747 
Q 959 1119 1226 758 
Q 1494 397 1959 397 
Q 2419 397 2687 759 
Q 2956 1122 2956 1747 
Q 2956 2369 2687 2733 
Q 2419 3097 1959 3097 
z
M 1959 3584 
Q 2709 3584 3137 3096 
Q 3566 2609 3566 1747 
Q 3566 888 3137 398 
Q 2709 -91 1959 -91 
Q 1206 -91 779 398 
Q 353 888 353 1747 
Q 353 2609 779 3096 
Q 1206 3584 1959 3584 
z
" transform="scale(0.015625)"/>
       <path id="DejaVuSans-56" d="M 2834 3397 
L 2834 2853 
Q 2591 2978 2328 3040 
Q 2066 3103 1784 3103 
Q 1356 3103 1142 2972 
Q 928 2841 928 2578 
Q 928 2378 1081 2264 
Q 1234 2150 1697 2047 
L 1894 2003 
Q 2506 1872 2764 1633 
Q 3022 1394 3022 966 
Q 3022 478 2636 193 
Q 2250 -91 1575 -91 
Q 1294 -91 989 -36 
Q 684 19 347 128 
L 347 722 
Q 666 556 975 473 
Q 1284 391 1588 391 
Q 1994 391 2212 530 
Q 2431 669 2431 922 
Q 2431 1156 2273 1281 
Q 2116 1406 1581 1522 
L 1381 1569 
Q 847 1681 609 1914 
Q 372 2147 372 2553 
Q 372 3047 722 3315 
Q 1072 3584 1716 3584 
Q 2034 3584 2315 3537 
Q 2597 3491 2834 3397 
z
" transform="scale(0.015625)"/>
      </defs>
      <use xlink:href="#DejaVuSans-28"/>
      <use xlink:href="#DejaVuSans-5b" transform="translate(63.1875 0)"/>
      <use xlink:href="#DejaVuSans-57" transform="translate(122.375 0)"/>
      <use xlink:href="#DejaVuSans-55" transform="translate(161.578125 0)"/>
      <use xlink:href="#DejaVuSans-44" transform="translate(202.6875 0)"/>
      <use xlink:href="#DejaVuSans-46" transform="translate(263.96875 0)"/>
      <use xlink:href="#DejaVuSans-48" transform="translate(318.953125 0)"/>
      <use xlink:href="#DejaVuSans-4f" transform="translate(380.484375 0)"/>
      <use xlink:href="#DejaVuSans-4f" transform="translate(408.265625 0)"/>
      <use xlink:href="#DejaVuSans-58" transform="translate(436.046875 0)"/>
      <use xlink:href="#DejaVuSans-4f" transform="translate(499.421875 0)"/>
      <use xlink:href="#DejaVuSans-44" transform="translate(527.203125 0)"/>
      <use xlink:href="#DejaVuSans-55" transform="translate(588.484375 0)"/>
      <use xlink:href="#DejaVuSans-3" transform="translate(629.59375 0)"/>
      <use xlink:href="#DejaVuSans-4f" transform="translate(661.375 0)"/>
      <use xlink:href="#DejaVuSans-44" transform="translate(689.15625 0)"/>
      <use xlink:href="#DejaVuSans-46" transform="translate(750.4375 0)"/>
      <use xlink:href="#DejaVuSans-57" transform="translate(805.421875 0)"/>
      <use xlink:href="#DejaVuSans-52" transform="translate(844.625 0)"/>
      <use xlink:href="#DejaVuSans-56" transform="translate(905.8125 0)"/>
      <use xlink:href="#DejaVuSans-48" transform="translate(957.90625 0)"/>
     </g>
    </g>
   </g>
   <g id="line2d_13">
    <path d="M 56.88098 98.777599 
L 155.24974 98.777599 
L 155.337978 17.566151 
L 155.999525 17.647362 
L 156.116078 17.972208 
L 156.16046 18.05342 
L 156.305244 19.515226 
L 156.42327 21.139455 
L 156.448682 21.220666 
L 156.579343 22.926107 
L 156.601195 23.007318 
L 156.89133 25.768507 
L 156.897669 25.849719 
L 157.019022 26.49941 
L 157.094927 26.580622 
L 157.221423 27.149102 
L 157.238337 27.230313 
L 157.360026 27.392736 
L 157.400183 27.473948 
L 157.528421 28.204851 
L 157.863294 31.047251 
L 157.873286 31.128463 
L 158.022235 32.346635 
L 158.033653 32.427846 
L 158.230214 33.564806 
L 158.272351 33.646018 
L 158.408908 34.458132 
L 158.453791 34.539344 
L 158.768212 37.13811 
L 158.780482 37.219321 
L 158.885825 37.869013 
L 159.125524 38.924762 
L 159.216006 39.005973 
L 159.322556 39.655665 
L 159.380056 40.142934 
L 159.503077 40.873837 
L 159.52396 40.955048 
L 159.63195 41.198682 
L 159.65729 41.279894 
L 160.127253 43.066546 
L 160.50021 43.147757 
L 160.703831 43.797449 
L 160.865398 43.959872 
L 160.954274 44.041083 
L 161.08507 44.44714 
L 161.199109 44.690775 
L 162.030158 44.771986 
L 162.175535 45.259255 
L 162.253847 45.340466 
L 162.406914 45.827735 
L 162.448834 45.908946 
L 162.5618 46.233792 
L 162.637938 46.315004 
L 162.773285 46.883484 
L 162.879905 47.614387 
L 163.114571 48.020444 
L 163.234296 48.101655 
L 163.425842 48.670136 
L 163.628065 48.994981 
L 163.685138 49.076193 
L 163.798693 49.157404 
L 163.842313 49.238616 
L 163.888236 49.319827 
L 164.101639 49.401039 
L 164.219093 49.888307 
L 164.266815 49.969519 
L 164.459954 50.456787 
L 164.641838 51.106479 
L 164.648082 51.18769 
L 164.85084 52.974342 
L 164.910804 53.055554 
L 165.205312 54.51736 
L 165.279449 54.598571 
L 165.414098 55.08584 
L 165.513315 55.167051 
L 165.627496 55.65432 
L 165.75439 56.141589 
L 165.781057 56.2228 
L 166.081016 57.116126 
L 167.492691 57.197338 
L 167.865757 57.684606 
L 167.990764 58.171875 
L 168.10262 58.983989 
L 168.13249 59.065201 
L 168.359468 60.527007 
L 168.368992 60.608218 
L 168.51624 61.501544 
L 168.583905 61.582756 
L 168.656286 61.988813 
L 168.773347 63.369408 
L 168.795867 63.450619 
L 168.948225 65.237271 
L 168.960757 65.318482 
L 169.176625 67.186346 
L 169.198698 67.267557 
L 169.326951 67.836037 
L 169.345081 67.917249 
L 169.522332 68.972998 
L 169.579345 69.054209 
L 169.722376 69.703901 
L 169.785036 69.785112 
L 169.892475 70.191169 
L 171.002981 74.414165 
L 171.090099 74.495376 
L 171.207508 74.73901 
L 171.283862 74.820222 
L 171.361428 75.063856 
L 171.577446 75.145068 
L 171.683372 75.226279 
L 171.760777 75.307491 
L 171.850517 75.551125 
L 171.885151 75.632336 
L 171.99167 75.875971 
L 172.161667 75.957182 
L 172.277667 76.038394 
L 172.712333 76.119605 
L 173.054306 76.688085 
L 173.184759 77.094142 
L 173.290967 77.175354 
L 173.408037 77.5002 
L 173.45233 77.581411 
L 173.618846 77.987468 
L 173.781949 78.149891 
L 174.641686 78.231103 
L 174.765846 78.312314 
L 174.977846 78.393526 
L 175.118183 78.962006 
L 175.189727 79.043217 
L 175.348268 79.286852 
L 175.38886 79.368063 
L 175.5484 79.530486 
L 176.054496 79.611697 
L 176.355265 79.936543 
L 177.219656 80.017755 
L 177.324252 80.098966 
L 177.429205 80.180177 
L 177.533629 80.3426 
L 177.94154 80.423812 
L 178.023059 80.586235 
L 178.729524 80.667446 
L 178.862659 80.829869 
L 179.191785 80.91108 
L 179.277455 81.073503 
L 179.457335 81.154715 
L 179.541328 81.235926 
L 179.965467 81.560772 
L 180.454628 81.641984 
L 180.590875 81.885618 
L 180.614939 81.966829 
L 180.741495 82.210464 
L 180.84441 82.291675 
L 180.936444 82.372887 
L 181.81518 83.185001 
L 181.953346 83.67227 
L 182.095714 83.834693 
L 182.28428 83.915904 
L 182.423989 83.997115 
L 184.075178 84.078327 
L 185.317712 84.80923 
L 185.431673 85.052864 
L 185.565815 85.134076 
L 185.653697 85.296499 
L 185.794393 85.37771 
L 185.897108 85.783767 
L 186.263501 86.271036 
L 186.450077 86.352247 
L 186.701694 86.839516 
L 187.005687 86.920728 
L 187.135625 87.001939 
L 189.770672 87.083151 
L 190.176762 87.489208 
L 190.270339 87.814054 
L 190.435012 87.895265 
L 190.473022 87.976476 
L 191.655252 88.788591 
L 191.808742 88.869802 
L 191.896044 89.113437 
L 192.002725 89.194648 
L 192.190719 89.27586 
L 192.323259 89.438283 
L 192.461856 89.519494 
L 193.284889 89.600705 
L 193.863544 89.84434 
L 195.122407 90.250397 
L 195.501125 90.331608 
L 195.780245 90.737666 
L 195.934407 90.818877 
L 196.078648 90.900089 
L 196.210439 90.9813 
L 196.351736 91.224934 
L 196.698882 91.306146 
L 196.945069 91.54978 
L 197.262658 91.630992 
L 197.267364 91.712203 
L 197.642463 92.037049 
L 197.752133 92.11826 
L 198.003932 92.280683 
L 198.282356 92.361895 
L 198.469355 92.605529 
L 198.963768 92.68674 
L 199.084356 92.849163 
L 199.141386 93.011586 
L 199.237253 93.092798 
L 199.4322 93.417643 
L 199.832555 93.498855 
L 199.935374 93.661278 
L 200.255425 93.742489 
L 200.672476 93.904912 
L 201.817471 93.986124 
L 202.037004 94.148547 
L 202.669197 94.229758 
L 202.78115 94.310969 
L 203.311319 94.392181 
L 203.381855 94.473392 
L 203.755755 94.554604 
L 203.903006 94.717027 
L 204.365057 94.798238 
L 204.534558 94.87945 
L 205.095944 94.960661 
L 205.219407 95.041872 
L 206.037053 95.123084 
L 206.228508 95.204295 
L 208.537323 95.285507 
L 208.685512 95.366718 
L 210.043219 95.44793 
L 210.213497 95.610353 
L 211.547013 95.691564 
L 211.869241 95.853987 
L 212.532389 95.935198 
L 213.009822 96.097621 
L 214.76194 96.178833 
L 214.864313 96.260044 
L 215.187229 96.341256 
L 215.951157 96.422467 
L 216.16694 96.828524 
L 216.48756 96.909736 
L 216.836206 97.072159 
L 216.947665 97.15337 
L 216.949535 97.234582 
L 217.633759 97.315793 
L 217.697622 97.397004 
L 220.211262 97.478216 
L 220.312038 97.559427 
L 220.547917 97.640639 
L 222.491202 97.72185 
L 222.609537 97.803062 
L 226.163959 97.884273 
L 226.268683 97.965485 
L 268.105217 98.046696 
L 268.247963 98.127907 
L 312.422447 98.209119 
L 312.422447 98.209119 
" clip-path="url(#p4b6f98870c)" style="fill: none; stroke: #000000; stroke-width: 1.5; stroke-linecap: square"/>
   </g>
   <g id="patch_3">
    <path d="M 44.103906 102.838171 
L 44.103906 13.505579 
" style="fill: none; stroke: #000000; stroke-width: 0.8; stroke-linejoin: miter; stroke-linecap: square"/>
   </g>
   <g id="patch_4">
    <path d="M 325.19952 102.838171 
L 325.19952 13.505579 
" style="fill: none; stroke: #000000; stroke-width: 0.8; stroke-linejoin: miter; stroke-linecap: square"/>
   </g>
   <g id="patch_5">
    <path d="M 44.103906 102.838171 
L 325.19952 102.838171 
" style="fill: none; stroke: #000000; stroke-width: 0.8; stroke-linejoin: miter; stroke-linecap: square"/>
   </g>
   <g id="patch_6">
    <path d="M 44.103906 13.505579 
L 325.19952 13.505579 
" style="fill: none; stroke: #000000; stroke-width: 0.8; stroke-linejoin: miter; stroke-linecap: square"/>
   </g>
  </g>
  <g id="axes_2">
   <g id="patch_7">
    <path d="M 44.103906 201.671244 
L 325.19952 201.671244 
L 325.19952 112.338651 
L 44.103906 112.338651 
z
" style="fill: #ffffff"/>
   </g>
   <g id="matplotlib.axis_3">
    <g id="xtick_10">
     <g id="line2d_14">
      <g>
       <use xlink:href="#m87abb26899" x="56.88098" y="201.671244" style="stroke: #000000; stroke-width: 0.8"/>
      </g>
     </g>
    </g>
    <g id="xtick_11">
     <g id="line2d_15">
      <g>
       <use xlink:href="#m87abb26899" x="88.503754" y="201.671244" style="stroke: #000000; stroke-width: 0.8"/>
      </g>
     </g>
    </g>
    <g id="xtick_12">
     <g id="line2d_16">
      <g>
       <use xlink:href="#m87abb26899" x="120.126529" y="201.671244" style="stroke: #000000; stroke-width: 0.8"/>
      </g>
     </g>
    </g>
    <g id="xtick_13">
     <g id="line2d_17">
      <g>
       <use xlink:href="#m87abb26899" x="151.749303" y="201.671244" style="stroke: #000000; stroke-width: 0.8"/>
      </g>
     </g>
    </g>
    <g id="xtick_14">
     <g id="line2d_18">
      <g>
       <use xlink:href="#m87abb26899" x="183.372078" y="201.671244" style="stroke: #000000; stroke-width: 0.8"/>
      </g>
     </g>
    </g>
    <g id="xtick_15">
     <g id="line2d_19">
      <g>
       <use xlink:href="#m87abb26899" x="214.994853" y="201.671244" style="stroke: #000000; stroke-width: 0.8"/>
      </g>
     </g>
    </g>
    <g id="xtick_16">
     <g id="line2d_20">
      <g>
       <use xlink:href="#m87abb26899" x="246.617627" y="201.671244" style="stroke: #000000; stroke-width: 0.8"/>
      </g>
     </g>
    </g>
    <g id="xtick_17">
     <g id="line2d_21">
      <g>
       <use xlink:href="#m87abb26899" x="278.240402" y="201.671244" style="stroke: #000000; stroke-width: 0.8"/>
      </g>
     </g>
    </g>
    <g id="xtick_18">
     <g id="line2d_22">
      <g>
       <use xlink:href="#m87abb26899" x="309.863176" y="201.671244" style="stroke: #000000; stroke-width: 0.8"/>
      </g>
     </g>
    </g>
   </g>
   <g id="matplotlib.axis_4">
    <g id="ytick_4">
     <g id="line2d_23">
      <g>
       <use xlink:href="#me0438d47d2" x="44.103906" y="197.610672" style="stroke: #000000; stroke-width: 0.8"/>
      </g>
     </g>
     <g id="text_5">
      <!-- 0 -->
      <g transform="translate(30.741406 201.4095) scale(0.1 -0.1)">
       <use xlink:href="#DejaVuSans-13"/>
      </g>
     </g>
    </g>
    <g id="ytick_5">
     <g id="line2d_24">
      <g>
       <use xlink:href="#me0438d47d2" x="44.103906" y="157.004948" style="stroke: #000000; stroke-width: 0.8"/>
      </g>
     </g>
     <g id="text_6">
      <!-- 5 -->
      <g transform="translate(30.741406 160.803776) scale(0.1 -0.1)">
       <use xlink:href="#DejaVuSans-18"/>
      </g>
     </g>
    </g>
    <g id="ytick_6">
     <g id="line2d_25">
      <g>
       <use xlink:href="#me0438d47d2" x="44.103906" y="116.399224" style="stroke: #000000; stroke-width: 0.8"/>
      </g>
     </g>
     <g id="text_7">
      <!-- 10 -->
      <g transform="translate(24.378906 120.198052) scale(0.1 -0.1)">
       <use xlink:href="#DejaVuSans-14"/>
       <use xlink:href="#DejaVuSans-13" transform="translate(63.625 0)"/>
      </g>
     </g>
    </g>
    <g id="text_8">
     <!-- LacY -->
     <g transform="translate(17.976563 168.658073) rotate(-90) scale(0.1 -0.1)">
      <defs>
       <path id="DejaVuSans-2f" d="M 628 4666 
L 1259 4666 
L 1259 531 
L 3531 531 
L 3531 0 
L 628 0 
L 628 4666 
z
" transform="scale(0.015625)"/>
       <path id="DejaVuSans-3c" d="M -13 4666 
L 666 4666 
L 1959 2747 
L 3244 4666 
L 3922 4666 
L 2272 2222 
L 2272 0 
L 1638 0 
L 1638 2222 
L -13 4666 
z
" transform="scale(0.015625)"/>
      </defs>
      <use xlink:href="#DejaVuSans-2f"/>
      <use xlink:href="#DejaVuSans-44" transform="translate(55.71875 0)"/>
      <use xlink:href="#DejaVuSans-46" transform="translate(117 0)"/>
      <use xlink:href="#DejaVuSans-3c" transform="translate(171.984375 0)"/>
     </g>
    </g>
   </g>
   <g id="line2d_26">
    <path d="M 56.88098 116.399224 
L 56.907861 116.399224 
L 56.96186 124.520369 
L 57.069042 140.762658 
L 57.128837 148.883803 
L 57.279561 148.883803 
L 57.297096 140.762658 
L 57.51568 148.883803 
L 57.656255 148.883803 
L 57.825355 165.126093 
L 58.12352 181.368382 
L 58.188543 197.610672 
L 59.704625 197.610672 
L 59.869732 189.489527 
L 59.912085 197.610672 
L 64.889003 197.610672 
L 65.209023 189.489527 
L 65.317977 197.610672 
L 82.655126 197.610672 
L 82.847766 189.489527 
L 84.624781 197.610672 
L 84.639472 189.489527 
L 84.781377 181.368382 
L 84.785989 173.247238 
L 85.105223 181.368382 
L 85.330123 181.368382 
L 85.44867 197.610672 
L 85.508938 189.489527 
L 85.697435 189.489527 
L 85.834662 197.610672 
L 89.69152 197.610672 
L 90.077777 181.368382 
L 90.079066 173.247238 
L 90.573171 173.247238 
L 90.611488 189.489527 
L 91.376616 189.489527 
L 91.544005 181.368382 
L 91.885167 197.610672 
L 108.735818 197.610672 
L 108.840555 189.489527 
L 108.959175 189.489527 
L 109.097004 197.610672 
L 109.329872 197.610672 
L 109.37098 189.489527 
L 109.783164 189.489527 
L 110.129916 181.368382 
L 110.187734 189.489527 
L 110.361411 189.489527 
L 110.390721 197.610672 
L 119.070937 197.610672 
L 119.247747 189.489527 
L 121.329013 189.489527 
L 123.159785 197.610672 
L 130.857607 197.610672 
L 131.042191 189.489527 
L 131.327154 189.489527 
L 131.433958 197.610672 
L 135.730602 197.610672 
L 135.813576 189.489527 
L 135.835244 197.610672 
L 145.737687 197.610672 
L 145.996177 181.368382 
L 146.016821 189.489527 
L 146.045567 181.368382 
L 146.157657 173.247238 
L 146.162949 181.368382 
L 146.742414 181.368382 
L 147.354025 189.489527 
L 147.597144 189.489527 
L 147.909563 181.368382 
L 148.021428 181.368382 
L 149.083671 197.610672 
L 149.539693 197.610672 
L 149.591106 181.368382 
L 149.691071 181.368382 
L 149.842525 189.489527 
L 149.975038 189.489527 
L 150.51305 197.610672 
L 155.585348 197.610672 
L 156.00977 189.489527 
L 156.247896 157.004948 
L 156.528671 157.004948 
L 156.645404 173.247238 
L 156.678006 173.247238 
L 156.789672 165.126093 
L 156.91629 165.126093 
L 157.027822 181.368382 
L 157.246913 181.368382 
L 157.360026 189.489527 
L 157.491222 173.247238 
L 157.541442 173.247238 
L 157.659096 165.126093 
L 157.700861 165.126093 
L 157.745679 157.004948 
L 157.809512 165.126093 
L 157.920891 165.126093 
L 158.039738 181.368382 
L 158.279103 181.368382 
L 158.388792 173.247238 
L 158.434136 173.247238 
L 158.553737 165.126093 
L 158.732694 165.126093 
L 158.833659 173.247238 
L 159.10548 173.247238 
L 159.212028 157.004948 
L 159.221222 165.126093 
L 159.290243 165.126093 
L 159.399342 173.247238 
L 159.612786 173.247238 
L 159.717394 181.368382 
L 160.076213 181.368382 
L 160.225964 197.610672 
L 160.39824 197.610672 
L 160.531216 189.489527 
L 160.632665 189.489527 
L 160.768598 181.368382 
L 160.865398 189.489527 
L 161.189117 189.489527 
L 161.308619 197.610672 
L 161.515422 197.610672 
L 161.688021 189.489527 
L 161.697413 197.610672 
L 162.012663 181.368382 
L 162.016603 173.247238 
L 162.102096 189.489527 
L 162.117932 189.489527 
L 162.175535 189.489527 
L 162.212087 173.247238 
L 162.283015 181.368382 
L 162.517487 181.368382 
L 162.569335 189.489527 
L 162.628464 181.368382 
L 162.733986 181.368382 
L 162.788305 173.247238 
L 162.830895 181.368382 
L 162.913744 181.368382 
L 162.943832 189.489527 
L 162.991407 181.368382 
L 163.390238 181.368382 
L 163.500383 189.489527 
L 163.557151 189.489527 
L 163.628065 197.610672 
L 163.661609 189.489527 
L 164.12611 189.489527 
L 164.236522 181.368382 
L 164.423249 181.368382 
L 164.531645 173.247238 
L 164.579056 173.247238 
L 164.697275 157.004948 
L 164.798024 157.004948 
L 164.910804 173.247238 
L 165.026183 173.247238 
L 165.135272 181.368382 
L 165.205312 181.368382 
L 165.315052 189.489527 
L 165.334423 189.489527 
L 165.414098 181.368382 
L 166.099843 181.368382 
L 166.181082 189.489527 
L 166.249155 189.489527 
L 166.351973 197.610672 
L 167.313972 197.610672 
L 167.577236 189.489527 
L 167.690442 197.610672 
L 167.812698 181.368382 
L 167.908084 181.368382 
L 168.047602 165.126093 
L 168.10262 165.126093 
L 168.225446 157.004948 
L 168.406014 157.004948 
L 168.472313 148.883803 
L 168.51624 157.004948 
L 168.574553 157.004948 
L 168.674294 132.641513 
L 168.703386 140.762658 
L 169.027619 140.762658 
L 169.140131 148.883803 
L 169.161406 148.883803 
L 169.272504 140.762658 
L 169.276664 140.762658 
L 169.396471 165.126093 
L 169.440881 165.126093 
L 169.530897 140.762658 
L 169.558666 157.004948 
L 169.612966 157.004948 
L 169.722376 165.126093 
L 169.758853 157.004948 
L 169.816774 165.126093 
L 169.829663 173.247238 
L 169.92588 165.126093 
L 170.187391 165.126093 
L 170.263534 157.004948 
L 170.290462 165.126093 
L 170.317875 165.126093 
L 170.428889 157.004948 
L 170.441235 157.004948 
L 170.480778 165.126093 
L 170.546414 157.004948 
L 170.804234 157.004948 
L 170.897965 165.126093 
L 170.97653 165.126093 
L 171.063271 173.247238 
L 171.10145 173.247238 
L 171.209231 181.368382 
L 171.577768 181.368382 
L 171.713075 189.489527 
L 171.762259 189.489527 
L 171.850517 181.368382 
L 171.99167 181.368382 
L 172.108682 189.489527 
L 172.177182 189.489527 
L 172.337675 197.610672 
L 172.595088 197.610672 
L 172.712333 181.368382 
L 173.570844 181.368382 
L 173.667997 189.489527 
L 173.695882 189.489527 
L 173.764054 197.610672 
L 173.797675 189.489527 
L 173.831512 181.368382 
L 173.901314 189.489527 
L 174.025599 189.489527 
L 174.155967 197.610672 
L 174.43558 197.610672 
L 174.605706 189.489527 
L 174.63325 197.610672 
L 174.670912 181.368382 
L 174.8634 181.368382 
L 174.95662 189.489527 
L 174.973849 181.368382 
L 175.266922 181.368382 
L 175.348268 189.489527 
L 175.3728 181.368382 
L 175.446471 181.368382 
L 175.5484 197.610672 
L 175.810594 197.610672 
L 176.008111 173.247238 
L 176.175636 189.489527 
L 176.586512 189.489527 
L 176.684826 181.368382 
L 176.797914 189.489527 
L 176.935164 197.610672 
L 177.133652 197.610672 
L 177.2315 189.489527 
L 177.272355 189.489527 
L 177.434848 181.368382 
L 177.53228 181.368382 
L 177.634728 189.489527 
L 177.806765 189.489527 
L 177.919509 181.368382 
L 177.996799 181.368382 
L 177.998508 173.247238 
L 178.023059 189.489527 
L 178.141 197.610672 
L 178.219873 189.489527 
L 178.231481 197.610672 
L 178.378862 197.610672 
L 178.638656 181.368382 
L 178.729524 189.489527 
L 178.806526 189.489527 
L 178.862659 197.610672 
L 179.120655 189.489527 
L 180.213134 189.489527 
L 180.235752 181.368382 
L 180.434451 181.368382 
L 180.54552 165.126093 
L 180.547646 173.247238 
L 180.590875 173.247238 
L 180.706919 165.126093 
L 180.741495 165.126093 
L 180.867617 181.368382 
L 181.042919 181.368382 
L 181.126827 189.489527 
L 181.206923 189.489527 
L 181.3335 181.368382 
L 181.500989 181.368382 
L 181.588727 189.489527 
L 181.717197 189.489527 
L 181.836404 173.247238 
L 182.095714 173.247238 
L 182.225393 189.489527 
L 182.268979 189.489527 
L 182.278672 181.368382 
L 182.322515 197.610672 
L 182.368741 197.610672 
L 183.167299 197.610672 
L 183.272433 189.489527 
L 183.332101 189.489527 
L 183.401763 197.610672 
L 183.661297 197.610672 
L 184.226107 181.368382 
L 184.39345 181.368382 
L 184.467 189.489527 
L 184.491299 181.368382 
L 184.527703 181.368382 
L 184.643057 189.489527 
L 184.940532 189.489527 
L 185.097463 173.247238 
L 186.04563 173.247238 
L 186.175419 165.126093 
L 186.327066 165.126093 
L 186.484487 173.247238 
L 186.490009 165.126093 
L 186.52818 181.368382 
L 186.548204 181.368382 
L 186.669724 181.368382 
L 186.755631 189.489527 
L 186.763828 181.368382 
L 186.874728 181.368382 
L 186.95271 189.489527 
L 187.31389 189.489527 
L 187.342265 197.610672 
L 187.545098 197.610672 
L 187.608394 189.489527 
L 187.749597 189.489527 
L 187.766065 197.610672 
L 188.42558 197.610672 
L 188.761297 189.489527 
L 189.056638 189.489527 
L 189.114445 197.610672 
L 189.589092 197.610672 
L 189.872204 189.489527 
L 189.883272 189.489527 
L 189.955229 173.247238 
L 190.017934 165.126093 
L 190.141319 165.126093 
L 190.16947 157.004948 
L 190.248746 165.126093 
L 190.376268 165.126093 
L 190.473022 181.368382 
L 190.608356 181.368382 
L 190.701248 173.247238 
L 190.80185 181.368382 
L 190.924993 173.247238 
L 191.024324 173.247238 
L 191.133192 189.489527 
L 191.226279 189.489527 
L 191.319665 181.368382 
L 191.321484 189.489527 
L 191.459052 189.489527 
L 191.592467 181.368382 
L 191.655252 181.368382 
L 191.836532 165.126093 
L 191.838912 173.247238 
L 191.849812 173.247238 
L 191.953762 181.368382 
L 192.151243 165.126093 
L 192.273042 173.247238 
L 192.316503 173.247238 
L 192.388028 165.126093 
L 192.398061 173.247238 
L 192.624686 189.489527 
L 192.967754 189.489527 
L 192.973398 197.610672 
L 193.109162 189.489527 
L 194.115175 189.489527 
L 194.221655 181.368382 
L 194.310091 189.489527 
L 194.56143 189.489527 
L 194.706643 181.368382 
L 194.840253 181.368382 
L 194.927895 189.489527 
L 195.017352 189.489527 
L 195.205243 181.368382 
L 195.248537 181.368382 
L 195.36456 189.489527 
L 195.496454 173.247238 
L 195.537486 173.247238 
L 195.727602 181.368382 
L 195.739676 181.368382 
L 195.854023 173.247238 
L 195.964909 173.247238 
L 196.078648 189.489527 
L 196.102563 181.368382 
L 196.28464 157.004948 
L 196.360015 165.126093 
L 196.449411 165.126093 
L 196.57372 173.247238 
L 196.583457 181.368382 
L 196.776491 173.247238 
L 196.854998 173.247238 
L 196.945069 189.489527 
L 197.184543 173.247238 
L 197.215206 181.368382 
L 197.267364 173.247238 
L 197.39813 173.247238 
L 197.519263 165.126093 
L 197.626309 165.126093 
L 197.752133 173.247238 
L 197.827554 173.247238 
L 197.955731 165.126093 
L 197.978853 165.126093 
L 198.120963 181.368382 
L 198.196159 173.247238 
L 198.229636 181.368382 
L 198.263768 189.489527 
L 198.332423 181.368382 
L 198.370742 181.368382 
L 198.455901 173.247238 
L 198.466259 181.368382 
L 198.575685 189.489527 
L 198.662946 189.489527 
L 198.762774 173.247238 
L 198.903245 173.247238 
L 198.963768 165.126093 
L 199.090123 165.126093 
L 199.214562 157.004948 
L 199.274996 157.004948 
L 199.330781 165.126093 
L 199.53492 165.126093 
L 199.650313 181.368382 
L 199.765271 181.368382 
L 199.783036 189.489527 
L 199.863851 181.368382 
L 200.033364 181.368382 
L 200.136988 173.247238 
L 200.421557 173.247238 
L 200.535313 181.368382 
L 200.594293 181.368382 
L 200.672476 189.489527 
L 201.778973 189.489527 
L 201.905362 173.247238 
L 202.036037 173.247238 
L 202.096206 165.126093 
L 202.110056 173.247238 
L 202.156712 173.247238 
L 202.183938 165.126093 
L 202.227446 181.368382 
L 202.253654 181.368382 
L 202.496246 165.126093 
L 202.64655 165.126093 
L 202.756655 181.368382 
L 202.823927 173.247238 
L 203.016949 173.247238 
L 203.24612 181.368382 
L 203.324859 181.368382 
L 203.335679 173.247238 
L 203.381855 181.368382 
L 203.647853 157.004948 
L 203.733055 165.126093 
L 203.755755 157.004948 
L 203.794251 157.004948 
L 204.052081 181.368382 
L 204.288146 157.004948 
L 204.349805 157.004948 
L 204.43021 165.126093 
L 204.9711 165.126093 
L 205.11563 181.368382 
L 205.21127 173.247238 
L 205.219407 181.368382 
L 205.314646 181.368382 
L 205.45356 189.489527 
L 205.62844 189.489527 
L 205.774088 197.610672 
L 205.887496 189.489527 
L 206.103011 189.489527 
L 206.206479 197.610672 
L 206.348001 181.368382 
L 206.514169 189.489527 
L 206.696602 181.368382 
L 206.718017 189.489527 
L 206.875067 189.489527 
L 206.912416 181.368382 
L 207.143679 181.368382 
L 207.166914 189.489527 
L 207.487568 189.489527 
L 207.615774 197.610672 
L 208.386226 189.489527 
L 208.610871 189.489527 
L 208.685512 197.610672 
L 208.812973 189.489527 
L 208.860059 197.610672 
L 209.255118 189.489527 
L 209.380082 189.489527 
L 209.960452 181.368382 
L 210.135797 173.247238 
L 210.296859 189.489527 
L 210.406917 197.610672 
L 210.586529 189.489527 
L 211.008015 189.489527 
L 211.098695 197.610672 
L 211.105099 189.489527 
L 211.219542 181.368382 
L 211.439105 189.489527 
L 211.547013 181.368382 
L 211.681084 181.368382 
L 211.802239 173.247238 
L 211.869241 189.489527 
L 212.056948 181.368382 
L 212.390263 181.368382 
L 212.472486 189.489527 
L 212.495669 181.368382 
L 212.723064 181.368382 
L 212.884917 189.489527 
L 213.165989 189.489527 
L 213.611249 181.368382 
L 213.680541 173.247238 
L 213.685412 181.368382 
L 213.767357 181.368382 
L 213.769512 189.489527 
L 213.953366 181.368382 
L 214.101965 181.368382 
L 214.106543 189.489527 
L 214.174416 181.368382 
L 214.396556 181.368382 
L 214.433757 189.489527 
L 214.600086 197.610672 
L 215.130985 173.247238 
L 215.257422 173.247238 
L 215.313513 181.368382 
L 215.476862 181.368382 
L 215.545073 173.247238 
L 215.585523 181.368382 
L 215.736045 189.489527 
L 216.042191 165.126093 
L 216.145186 165.126093 
L 216.16694 157.004948 
L 216.223696 165.126093 
L 216.750276 165.126093 
L 216.916262 173.247238 
L 216.948626 173.247238 
L 216.949535 181.368382 
L 217.147285 173.247238 
L 217.413533 173.247238 
L 217.470498 181.368382 
L 217.567802 173.247238 
L 217.697622 181.368382 
L 218.024619 189.489527 
L 218.124054 181.368382 
L 218.272675 197.610672 
L 218.584204 197.610672 
L 218.650889 189.489527 
L 218.888729 181.368382 
L 218.937706 189.489527 
L 219.285196 181.368382 
L 219.326768 173.247238 
L 219.351115 181.368382 
L 219.474935 181.368382 
L 219.558512 173.247238 
L 219.77392 181.368382 
L 219.91063 181.368382 
L 220.006132 173.247238 
L 220.106004 181.368382 
L 220.214741 173.247238 
L 220.30629 165.126093 
L 220.312038 173.247238 
L 220.428085 173.247238 
L 220.487771 165.126093 
L 220.61134 173.247238 
L 220.820002 181.368382 
L 220.888993 173.247238 
L 221.098384 173.247238 
L 221.212501 181.368382 
L 221.244825 181.368382 
L 221.325322 197.610672 
L 221.389734 189.489527 
L 221.670798 189.489527 
L 221.929239 165.126093 
L 222.123411 181.368382 
L 222.285923 173.247238 
L 222.288777 165.126093 
L 222.55456 165.126093 
L 222.680606 181.368382 
L 222.727561 173.247238 
L 222.790197 181.368382 
L 222.911462 181.368382 
L 222.969325 173.247238 
L 223.073435 173.247238 
L 223.093828 181.368382 
L 223.260846 189.489527 
L 223.423809 189.489527 
L 223.68813 181.368382 
L 223.827903 165.126093 
L 223.869233 165.126093 
L 224.040193 157.004948 
L 224.122023 165.126093 
L 224.388991 157.004948 
L 224.450485 173.247238 
L 224.459787 165.126093 
L 224.534642 173.247238 
L 224.790619 173.247238 
L 225.105442 181.368382 
L 225.28675 181.368382 
L 225.357212 189.489527 
L 225.405749 181.368382 
L 225.632866 181.368382 
L 225.712277 173.247238 
L 225.74345 181.368382 
L 225.910679 173.247238 
L 226.052428 173.247238 
L 226.112379 165.126093 
L 226.196837 173.247238 
L 226.268683 165.126093 
L 226.348254 165.126093 
L 226.366811 181.368382 
L 226.532394 181.368382 
L 226.572184 189.489527 
L 226.906018 189.489527 
L 227.088235 197.610672 
L 228.556496 197.610672 
L 228.631177 189.489527 
L 228.865465 173.247238 
L 229.037812 173.247238 
L 229.140822 181.368382 
L 229.209749 181.368382 
L 229.271382 189.489527 
L 229.401667 189.489527 
L 229.626575 181.368382 
L 229.784171 189.489527 
L 229.925275 181.368382 
L 229.968467 189.489527 
L 230.202988 181.368382 
L 230.498947 189.489527 
L 230.648917 181.368382 
L 230.869845 189.489527 
L 231.08762 197.610672 
L 239.480209 197.610672 
L 239.524705 189.489527 
L 239.748438 181.368382 
L 239.918121 189.489527 
L 240.288672 189.489527 
L 240.488252 173.247238 
L 240.598357 197.610672 
L 241.65568 197.610672 
L 241.876228 189.489527 
L 242.040204 197.610672 
L 250.647243 197.610672 
L 251.17056 189.489527 
L 251.315862 173.247238 
L 251.347193 173.247238 
L 251.441972 181.368382 
L 251.833191 189.489527 
L 252.586917 189.489527 
L 253.231771 197.610672 
L 267.961179 197.610672 
L 268.32876 181.368382 
L 268.403495 197.610672 
L 293.039835 197.610672 
L 293.137204 189.489527 
L 293.138847 197.610672 
L 297.143444 197.610672 
L 297.500205 189.489527 
L 297.647789 181.368382 
L 297.772582 189.489527 
L 298.108441 189.489527 
L 298.407381 197.610672 
L 300.691683 197.610672 
L 300.922667 189.489527 
L 300.923536 181.368382 
L 301.228469 173.247238 
L 301.280201 173.247238 
L 301.568574 189.489527 
L 301.933205 189.489527 
L 302.171237 197.610672 
L 304.833509 197.610672 
L 304.960392 189.489527 
L 305.151636 197.610672 
L 305.223972 197.610672 
L 305.388806 181.368382 
L 305.519583 181.368382 
L 305.741503 189.489527 
L 305.905023 189.489527 
L 306.388492 197.610672 
L 306.556903 197.610672 
L 306.64649 189.489527 
L 306.758972 197.610672 
L 308.415685 197.610672 
L 308.42918 189.489527 
L 308.431827 197.610672 
L 308.92201 189.489527 
L 308.956038 197.610672 
L 312.422447 197.610672 
L 312.422447 197.610672 
" clip-path="url(#p43542afd6e)" style="fill: none; stroke: #000000; stroke-width: 1.5; stroke-linecap: square"/>
   </g>
   <g id="patch_8">
    <path d="M 44.103906 201.671244 
L 44.103906 112.338651 
" style="fill: none; stroke: #000000; stroke-width: 0.8; stroke-linejoin: miter; stroke-linecap: square"/>
   </g>
   <g id="patch_9">
    <path d="M 325.19952 201.671244 
L 325.19952 112.338651 
" style="fill: none; stroke: #000000; stroke-width: 0.8; stroke-linejoin: miter; stroke-linecap: square"/>
   </g>
   <g id="patch_10">
    <path d="M 44.103906 201.671244 
L 325.19952 201.671244 
" style="fill: none; stroke: #000000; stroke-width: 0.8; stroke-linejoin: miter; stroke-linecap: square"/>
   </g>
   <g id="patch_11">
    <path d="M 44.103906 112.338651 
L 325.19952 112.338651 
" style="fill: none; stroke: #000000; stroke-width: 0.8; stroke-linejoin: miter; stroke-linecap: square"/>
   </g>
  </g>
  <g id="axes_3">
   <g id="patch_12">
    <path d="M 44.103906 300.504317 
L 325.19952 300.504317 
L 325.19952 211.171724 
L 44.103906 211.171724 
z
" style="fill: #ffffff"/>
   </g>
   <g id="matplotlib.axis_5">
    <g id="xtick_19">
     <g id="line2d_27">
      <g>
       <use xlink:href="#m87abb26899" x="56.88098" y="300.504317" style="stroke: #000000; stroke-width: 0.8"/>
      </g>
     </g>
     <g id="text_9">
      <!-- 0 -->
      <g transform="translate(53.69973 315.101974) scale(0.1 -0.1)">
       <use xlink:href="#DejaVuSans-13"/>
      </g>
     </g>
    </g>
    <g id="xtick_20">
     <g id="line2d_28">
      <g>
       <use xlink:href="#m87abb26899" x="88.503754" y="300.504317" style="stroke: #000000; stroke-width: 0.8"/>
      </g>
     </g>
     <g id="text_10">
      <!-- 100 -->
      <g transform="translate(78.960004 315.101974) scale(0.1 -0.1)">
       <use xlink:href="#DejaVuSans-14"/>
       <use xlink:href="#DejaVuSans-13" transform="translate(63.625 0)"/>
       <use xlink:href="#DejaVuSans-13" transform="translate(127.25 0)"/>
      </g>
     </g>
    </g>
    <g id="xtick_21">
     <g id="line2d_29">
      <g>
       <use xlink:href="#m87abb26899" x="120.126529" y="300.504317" style="stroke: #000000; stroke-width: 0.8"/>
      </g>
     </g>
     <g id="text_11">
      <!-- 200 -->
      <g transform="translate(110.582779 315.101974) scale(0.1 -0.1)">
       <defs>
        <path id="DejaVuSans-15" d="M 1228 531 
L 3431 531 
L 3431 0 
L 469 0 
L 469 531 
Q 828 903 1448 1529 
Q 2069 2156 2228 2338 
Q 2531 2678 2651 2914 
Q 2772 3150 2772 3378 
Q 2772 3750 2511 3984 
Q 2250 4219 1831 4219 
Q 1534 4219 1204 4116 
Q 875 4013 500 3803 
L 500 4441 
Q 881 4594 1212 4672 
Q 1544 4750 1819 4750 
Q 2544 4750 2975 4387 
Q 3406 4025 3406 3419 
Q 3406 3131 3298 2873 
Q 3191 2616 2906 2266 
Q 2828 2175 2409 1742 
Q 1991 1309 1228 531 
z
" transform="scale(0.015625)"/>
       </defs>
       <use xlink:href="#DejaVuSans-15"/>
       <use xlink:href="#DejaVuSans-13" transform="translate(63.625 0)"/>
       <use xlink:href="#DejaVuSans-13" transform="translate(127.25 0)"/>
      </g>
     </g>
    </g>
    <g id="xtick_22">
     <g id="line2d_30">
      <g>
       <use xlink:href="#m87abb26899" x="151.749303" y="300.504317" style="stroke: #000000; stroke-width: 0.8"/>
      </g>
     </g>
     <g id="text_12">
      <!-- 300 -->
      <g transform="translate(142.205553 315.101974) scale(0.1 -0.1)">
       <defs>
        <path id="DejaVuSans-16" d="M 2597 2516 
Q 3050 2419 3304 2112 
Q 3559 1806 3559 1356 
Q 3559 666 3084 287 
Q 2609 -91 1734 -91 
Q 1441 -91 1130 -33 
Q 819 25 488 141 
L 488 750 
Q 750 597 1062 519 
Q 1375 441 1716 441 
Q 2309 441 2620 675 
Q 2931 909 2931 1356 
Q 2931 1769 2642 2001 
Q 2353 2234 1838 2234 
L 1294 2234 
L 1294 2753 
L 1863 2753 
Q 2328 2753 2575 2939 
Q 2822 3125 2822 3475 
Q 2822 3834 2567 4026 
Q 2313 4219 1838 4219 
Q 1578 4219 1281 4162 
Q 984 4106 628 3988 
L 628 4550 
Q 988 4650 1302 4700 
Q 1616 4750 1894 4750 
Q 2613 4750 3031 4423 
Q 3450 4097 3450 3541 
Q 3450 3153 3228 2886 
Q 3006 2619 2597 2516 
z
" transform="scale(0.015625)"/>
       </defs>
       <use xlink:href="#DejaVuSans-16"/>
       <use xlink:href="#DejaVuSans-13" transform="translate(63.625 0)"/>
       <use xlink:href="#DejaVuSans-13" transform="translate(127.25 0)"/>
      </g>
     </g>
    </g>
    <g id="xtick_23">
     <g id="line2d_31">
      <g>
       <use xlink:href="#m87abb26899" x="183.372078" y="300.504317" style="stroke: #000000; stroke-width: 0.8"/>
      </g>
     </g>
     <g id="text_13">
      <!-- 400 -->
      <g transform="translate(173.828328 315.101974) scale(0.1 -0.1)">
       <defs>
        <path id="DejaVuSans-17" d="M 2419 4116 
L 825 1625 
L 2419 1625 
L 2419 4116 
z
M 2253 4666 
L 3047 4666 
L 3047 1625 
L 3713 1625 
L 3713 1100 
L 3047 1100 
L 3047 0 
L 2419 0 
L 2419 1100 
L 313 1100 
L 313 1709 
L 2253 4666 
z
" transform="scale(0.015625)"/>
       </defs>
       <use xlink:href="#DejaVuSans-17"/>
       <use xlink:href="#DejaVuSans-13" transform="translate(63.625 0)"/>
       <use xlink:href="#DejaVuSans-13" transform="translate(127.25 0)"/>
      </g>
     </g>
    </g>
    <g id="xtick_24">
     <g id="line2d_32">
      <g>
       <use xlink:href="#m87abb26899" x="214.994853" y="300.504317" style="stroke: #000000; stroke-width: 0.8"/>
      </g>
     </g>
     <g id="text_14">
      <!-- 500 -->
      <g transform="translate(205.451103 315.101974) scale(0.1 -0.1)">
       <use xlink:href="#DejaVuSans-18"/>
       <use xlink:href="#DejaVuSans-13" transform="translate(63.625 0)"/>
       <use xlink:href="#DejaVuSans-13" transform="translate(127.25 0)"/>
      </g>
     </g>
    </g>
    <g id="xtick_25">
     <g id="line2d_33">
      <g>
       <use xlink:href="#m87abb26899" x="246.617627" y="300.504317" style="stroke: #000000; stroke-width: 0.8"/>
      </g>
     </g>
     <g id="text_15">
      <!-- 600 -->
      <g transform="translate(237.073877 315.101974) scale(0.1 -0.1)">
       <defs>
        <path id="DejaVuSans-19" d="M 2113 2584 
Q 1688 2584 1439 2293 
Q 1191 2003 1191 1497 
Q 1191 994 1439 701 
Q 1688 409 2113 409 
Q 2538 409 2786 701 
Q 3034 994 3034 1497 
Q 3034 2003 2786 2293 
Q 2538 2584 2113 2584 
z
M 3366 4563 
L 3366 3988 
Q 3128 4100 2886 4159 
Q 2644 4219 2406 4219 
Q 1781 4219 1451 3797 
Q 1122 3375 1075 2522 
Q 1259 2794 1537 2939 
Q 1816 3084 2150 3084 
Q 2853 3084 3261 2657 
Q 3669 2231 3669 1497 
Q 3669 778 3244 343 
Q 2819 -91 2113 -91 
Q 1303 -91 875 529 
Q 447 1150 447 2328 
Q 447 3434 972 4092 
Q 1497 4750 2381 4750 
Q 2619 4750 2861 4703 
Q 3103 4656 3366 4563 
z
" transform="scale(0.015625)"/>
       </defs>
       <use xlink:href="#DejaVuSans-19"/>
       <use xlink:href="#DejaVuSans-13" transform="translate(63.625 0)"/>
       <use xlink:href="#DejaVuSans-13" transform="translate(127.25 0)"/>
      </g>
     </g>
    </g>
    <g id="xtick_26">
     <g id="line2d_34">
      <g>
       <use xlink:href="#m87abb26899" x="278.240402" y="300.504317" style="stroke: #000000; stroke-width: 0.8"/>
      </g>
     </g>
     <g id="text_16">
      <!-- 700 -->
      <g transform="translate(268.696652 315.101974) scale(0.1 -0.1)">
       <defs>
        <path id="DejaVuSans-1a" d="M 525 4666 
L 3525 4666 
L 3525 4397 
L 1831 0 
L 1172 0 
L 2766 4134 
L 525 4134 
L 525 4666 
z
" transform="scale(0.015625)"/>
       </defs>
       <use xlink:href="#DejaVuSans-1a"/>
       <use xlink:href="#DejaVuSans-13" transform="translate(63.625 0)"/>
       <use xlink:href="#DejaVuSans-13" transform="translate(127.25 0)"/>
      </g>
     </g>
    </g>
    <g id="xtick_27">
     <g id="line2d_35">
      <g>
       <use xlink:href="#m87abb26899" x="309.863176" y="300.504317" style="stroke: #000000; stroke-width: 0.8"/>
      </g>
     </g>
     <g id="text_17">
      <!-- 800 -->
      <g transform="translate(300.319426 315.101974) scale(0.1 -0.1)">
       <defs>
        <path id="DejaVuSans-1b" d="M 2034 2216 
Q 1584 2216 1326 1975 
Q 1069 1734 1069 1313 
Q 1069 891 1326 650 
Q 1584 409 2034 409 
Q 2484 409 2743 651 
Q 3003 894 3003 1313 
Q 3003 1734 2745 1975 
Q 2488 2216 2034 2216 
z
M 1403 2484 
Q 997 2584 770 2862 
Q 544 3141 544 3541 
Q 544 4100 942 4425 
Q 1341 4750 2034 4750 
Q 2731 4750 3128 4425 
Q 3525 4100 3525 3541 
Q 3525 3141 3298 2862 
Q 3072 2584 2669 2484 
Q 3125 2378 3379 2068 
Q 3634 1759 3634 1313 
Q 3634 634 3220 271 
Q 2806 -91 2034 -91 
Q 1263 -91 848 271 
Q 434 634 434 1313 
Q 434 1759 690 2068 
Q 947 2378 1403 2484 
z
M 1172 3481 
Q 1172 3119 1398 2916 
Q 1625 2713 2034 2713 
Q 2441 2713 2670 2916 
Q 2900 3119 2900 3481 
Q 2900 3844 2670 4047 
Q 2441 4250 2034 4250 
Q 1625 4250 1398 4047 
Q 1172 3844 1172 3481 
z
" transform="scale(0.015625)"/>
       </defs>
       <use xlink:href="#DejaVuSans-1b"/>
       <use xlink:href="#DejaVuSans-13" transform="translate(63.625 0)"/>
       <use xlink:href="#DejaVuSans-13" transform="translate(127.25 0)"/>
      </g>
     </g>
    </g>
    <g id="text_18">
     <!-- Time -->
     <g transform="translate(172.415776 329.102755) scale(0.1 -0.1)">
      <defs>
       <path id="DejaVuSans-37" d="M -19 4666 
L 3928 4666 
L 3928 4134 
L 2272 4134 
L 2272 0 
L 1638 0 
L 1638 4134 
L -19 4134 
L -19 4666 
z
" transform="scale(0.015625)"/>
       <path id="DejaVuSans-4c" d="M 603 3500 
L 1178 3500 
L 1178 0 
L 603 0 
L 603 3500 
z
M 603 4863 
L 1178 4863 
L 1178 4134 
L 603 4134 
L 603 4863 
z
" transform="scale(0.015625)"/>
       <path id="DejaVuSans-50" d="M 3328 2828 
Q 3544 3216 3844 3400 
Q 4144 3584 4550 3584 
Q 5097 3584 5394 3201 
Q 5691 2819 5691 2113 
L 5691 0 
L 5113 0 
L 5113 2094 
Q 5113 2597 4934 2840 
Q 4756 3084 4391 3084 
Q 3944 3084 3684 2787 
Q 3425 2491 3425 1978 
L 3425 0 
L 2847 0 
L 2847 2094 
Q 2847 2600 2669 2842 
Q 2491 3084 2119 3084 
Q 1678 3084 1418 2786 
Q 1159 2488 1159 1978 
L 1159 0 
L 581 0 
L 581 3500 
L 1159 3500 
L 1159 2956 
Q 1356 3278 1631 3431 
Q 1906 3584 2284 3584 
Q 2666 3584 2933 3390 
Q 3200 3197 3328 2828 
z
" transform="scale(0.015625)"/>
      </defs>
      <use xlink:href="#DejaVuSans-37"/>
      <use xlink:href="#DejaVuSans-4c" transform="translate(58 0)"/>
      <use xlink:href="#DejaVuSans-50" transform="translate(85.78125 0)"/>
      <use xlink:href="#DejaVuSans-48" transform="translate(183.1875 0)"/>
     </g>
    </g>
   </g>
   <g id="matplotlib.axis_6">
    <g id="ytick_7">
     <g id="line2d_36">
      <g>
       <use xlink:href="#me0438d47d2" x="44.103906" y="296.443745" style="stroke: #000000; stroke-width: 0.8"/>
      </g>
     </g>
     <g id="text_19">
      <!-- 0.0 -->
      <g transform="translate(21.200781 300.242573) scale(0.1 -0.1)">
       <defs>
        <path id="DejaVuSans-11" d="M 684 794 
L 1344 794 
L 1344 0 
L 684 0 
L 684 794 
z
" transform="scale(0.015625)"/>
       </defs>
       <use xlink:href="#DejaVuSans-13"/>
       <use xlink:href="#DejaVuSans-11" transform="translate(63.625 0)"/>
       <use xlink:href="#DejaVuSans-13" transform="translate(95.40625 0)"/>
      </g>
     </g>
    </g>
    <g id="ytick_8">
     <g id="line2d_37">
      <g>
       <use xlink:href="#me0438d47d2" x="44.103906" y="255.838021" style="stroke: #000000; stroke-width: 0.8"/>
      </g>
     </g>
     <g id="text_20">
      <!-- 0.5 -->
      <g transform="translate(21.200781 259.636849) scale(0.1 -0.1)">
       <use xlink:href="#DejaVuSans-13"/>
       <use xlink:href="#DejaVuSans-11" transform="translate(63.625 0)"/>
       <use xlink:href="#DejaVuSans-18" transform="translate(95.40625 0)"/>
      </g>
     </g>
    </g>
    <g id="ytick_9">
     <g id="line2d_38">
      <g>
       <use xlink:href="#me0438d47d2" x="44.103906" y="215.232297" style="stroke: #000000; stroke-width: 0.8"/>
      </g>
     </g>
     <g id="text_21">
      <!-- 1.0 -->
      <g transform="translate(21.200781 219.031125) scale(0.1 -0.1)">
       <use xlink:href="#DejaVuSans-14"/>
       <use xlink:href="#DejaVuSans-11" transform="translate(63.625 0)"/>
       <use xlink:href="#DejaVuSans-13" transform="translate(95.40625 0)"/>
      </g>
     </g>
    </g>
    <g id="text_22">
     <!-- Free lac operon -->
     <g transform="translate(14.798438 294.31224) rotate(-90) scale(0.1 -0.1)">
      <defs>
       <path id="DejaVuSans-29" d="M 628 4666 
L 3309 4666 
L 3309 4134 
L 1259 4134 
L 1259 2759 
L 3109 2759 
L 3109 2228 
L 1259 2228 
L 1259 0 
L 628 0 
L 628 4666 
z
" transform="scale(0.015625)"/>
       <path id="DejaVuSans-53" d="M 1159 525 
L 1159 -1331 
L 581 -1331 
L 581 3500 
L 1159 3500 
L 1159 2969 
Q 1341 3281 1617 3432 
Q 1894 3584 2278 3584 
Q 2916 3584 3314 3078 
Q 3713 2572 3713 1747 
Q 3713 922 3314 415 
Q 2916 -91 2278 -91 
Q 1894 -91 1617 61 
Q 1341 213 1159 525 
z
M 3116 1747 
Q 3116 2381 2855 2742 
Q 2594 3103 2138 3103 
Q 1681 3103 1420 2742 
Q 1159 2381 1159 1747 
Q 1159 1113 1420 752 
Q 1681 391 2138 391 
Q 2594 391 2855 752 
Q 3116 1113 3116 1747 
z
" transform="scale(0.015625)"/>
       <path id="DejaVuSans-51" d="M 3513 2113 
L 3513 0 
L 2938 0 
L 2938 2094 
Q 2938 2591 2744 2837 
Q 2550 3084 2163 3084 
Q 1697 3084 1428 2787 
Q 1159 2491 1159 1978 
L 1159 0 
L 581 0 
L 581 3500 
L 1159 3500 
L 1159 2956 
Q 1366 3272 1645 3428 
Q 1925 3584 2291 3584 
Q 2894 3584 3203 3211 
Q 3513 2838 3513 2113 
z
" transform="scale(0.015625)"/>
      </defs>
      <use xlink:href="#DejaVuSans-29"/>
      <use xlink:href="#DejaVuSans-55" transform="translate(50.234375 0)"/>
      <use xlink:href="#DejaVuSans-48" transform="translate(89.140625 0)"/>
      <use xlink:href="#DejaVuSans-48" transform="translate(150.671875 0)"/>
      <use xlink:href="#DejaVuSans-3" transform="translate(212.203125 0)"/>
      <use xlink:href="#DejaVuSans-4f" transform="translate(243.984375 0)"/>
      <use xlink:href="#DejaVuSans-44" transform="translate(271.765625 0)"/>
      <use xlink:href="#DejaVuSans-46" transform="translate(333.046875 0)"/>
      <use xlink:href="#DejaVuSans-3" transform="translate(388.03125 0)"/>
      <use xlink:href="#DejaVuSans-52" transform="translate(419.8125 0)"/>
      <use xlink:href="#DejaVuSans-53" transform="translate(481 0)"/>
      <use xlink:href="#DejaVuSans-48" transform="translate(544.484375 0)"/>
      <use xlink:href="#DejaVuSans-55" transform="translate(606.015625 0)"/>
      <use xlink:href="#DejaVuSans-52" transform="translate(644.921875 0)"/>
      <use xlink:href="#DejaVuSans-51" transform="translate(706.109375 0)"/>
     </g>
    </g>
   </g>
   <g id="line2d_39">
    <path d="M 56.88098 215.232297 
L 56.96186 296.443745 
L 57.128837 296.443745 
L 57.297096 215.232297 
L 57.414343 215.232297 
L 57.51568 296.443745 
L 58.722487 296.443745 
L 59.704625 215.232297 
L 59.889517 215.232297 
L 59.912085 296.443745 
L 62.314681 296.443745 
L 64.889003 215.232297 
L 65.181603 215.232297 
L 65.317977 296.443745 
L 65.44287 296.443745 
L 72.05343 215.232297 
L 72.221898 296.443745 
L 80.000454 215.232297 
L 80.049109 296.443745 
L 82.655126 215.232297 
L 82.794026 215.232297 
L 82.847766 296.443745 
L 84.574548 296.443745 
L 84.639472 215.232297 
L 85.508938 215.232297 
L 85.697435 296.443745 
L 86.722232 296.443745 
L 89.69152 215.232297 
L 90.227318 215.232297 
L 90.256369 296.443745 
L 90.611488 296.443745 
L 91.486014 215.232297 
L 91.544005 296.443745 
L 91.885167 296.443745 
L 108.82696 215.232297 
L 108.840555 296.443745 
L 109.097004 296.443745 
L 109.37098 215.232297 
L 109.656094 296.443745 
L 109.783164 215.232297 
L 110.187734 215.232297 
L 110.390721 296.443745 
L 110.68108 296.443745 
L 114.810749 215.232297 
L 115.466218 296.443745 
L 117.095436 215.232297 
L 117.408206 296.443745 
L 118.07538 215.232297 
L 118.162023 296.443745 
L 119.163501 215.232297 
L 119.247747 296.443745 
L 123.159785 296.443745 
L 129.131628 215.232297 
L 129.236747 296.443745 
L 130.965413 215.232297 
L 131.412684 215.232297 
L 131.433958 296.443745 
L 133.259876 296.443745 
L 135.835244 215.232297 
L 135.848447 296.443745 
L 138.707004 215.232297 
L 138.749401 296.443745 
L 145.737687 215.232297 
L 146.674635 215.232297 
L 146.742414 296.443745 
L 147.354025 296.443745 
L 147.597144 215.232297 
L 147.909563 215.232297 
L 148.021428 296.443745 
L 149.083671 296.443745 
L 149.591106 215.232297 
L 149.691071 296.443745 
L 150.803406 296.443745 
L 150.814638 215.232297 
L 150.974912 296.443745 
L 155.24974 215.232297 
L 155.337978 296.443745 
L 155.585348 215.232297 
L 200.136988 215.232297 
L 200.255425 296.443745 
L 201.545651 296.443745 
L 201.817471 215.232297 
L 226.268683 215.232297 
L 226.366811 296.443745 
L 227.088235 296.443745 
L 228.631177 215.232297 
L 230.785583 215.232297 
L 230.869845 296.443745 
L 231.595787 296.443745 
L 231.767573 215.232297 
L 231.800773 296.443745 
L 238.984549 215.232297 
L 239.419633 296.443745 
L 239.524705 215.232297 
L 239.87286 215.232297 
L 239.918121 296.443745 
L 240.339278 215.232297 
L 240.471959 215.232297 
L 240.598357 296.443745 
L 240.78674 296.443745 
L 240.794659 215.232297 
L 240.846752 296.443745 
L 241.247961 296.443745 
L 241.65568 215.232297 
L 241.945737 215.232297 
L 242.040204 296.443745 
L 243.693094 215.232297 
L 243.77585 296.443745 
L 250.647243 215.232297 
L 251.315862 215.232297 
L 251.441972 296.443745 
L 253.231771 296.443745 
L 258.823526 215.232297 
L 259.389333 296.443745 
L 267.961179 215.232297 
L 268.216428 215.232297 
L 268.32876 296.443745 
L 268.935299 296.443745 
L 278.916409 215.232297 
L 279.097611 296.443745 
L 280.055608 215.232297 
L 280.150918 296.443745 
L 293.138847 215.232297 
L 293.270361 296.443745 
L 293.611504 296.443745 
L 297.143444 215.232297 
L 297.765454 215.232297 
L 297.772582 296.443745 
L 299.290435 296.443745 
L 300.691683 215.232297 
L 301.13279 215.232297 
L 301.228469 296.443745 
L 302.171237 296.443745 
L 304.833509 215.232297 
L 305.046303 215.232297 
L 305.151636 296.443745 
L 305.284913 215.232297 
L 305.388806 296.443745 
L 306.388492 296.443745 
L 306.64649 215.232297 
L 306.679478 215.232297 
L 306.758972 296.443745 
L 307.508985 296.443745 
L 308.313182 215.232297 
L 308.399327 296.443745 
L 308.415685 215.232297 
L 308.915158 215.232297 
L 308.956038 296.443745 
L 309.583386 296.443745 
L 312.422447 215.232297 
L 312.422447 215.232297 
" clip-path="url(#p2cf6cc60af)" style="fill: none; stroke: #000000; stroke-width: 1.5; stroke-linecap: square"/>
   </g>
   <g id="patch_13">
    <path d="M 44.103906 300.504317 
L 44.103906 211.171724 
" style="fill: none; stroke: #000000; stroke-width: 0.8; stroke-linejoin: miter; stroke-linecap: square"/>
   </g>
   <g id="patch_14">
    <path d="M 325.19952 300.504317 
L 325.19952 211.171724 
" style="fill: none; stroke: #000000; stroke-width: 0.8; stroke-linejoin: miter; stroke-linecap: square"/>
   </g>
   <g id="patch_15">
    <path d="M 44.103906 300.504317 
L 325.19952 300.504317 
" style="fill: none; stroke: #000000; stroke-width: 0.8; stroke-linejoin: miter; stroke-linecap: square"/>
   </g>
   <g id="patch_16">
    <path d="M 44.103906 211.171724 
L 325.19952 211.171724 
" style="fill: none; stroke: #000000; stroke-width: 0.8; stroke-linejoin: miter; stroke-linecap: square"/>
   </g>
  </g>
 </g>
 <defs>
  <clipPath id="p4b6f98870c">
   <rect x="44.103906" y="13.505579" width="281.095614" height="89.332593"/>
  </clipPath>
  <clipPath id="p43542afd6e">
   <rect x="44.103906" y="112.338651" width="281.095614" height="89.332593"/>
  </clipPath>
  <clipPath id="p2cf6cc60af">
   <rect x="44.103906" y="211.171724" width="281.095614" height="89.332593"/>
  </clipPath>
 </defs>
</svg>
