<?xml version="1.0" encoding="utf-8" standalone="no"?>
<!DOCTYPE svg PUBLIC "-//W3C//DTD SVG 1.1//EN"
  "http://www.w3.org/Graphics/SVG/1.1/DTD/svg11.dtd">
<svg xmlns:xlink="http://www.w3.org/1999/xlink" width="332.39952pt" height="332.39952pt" viewBox="0 0 332.39952 332.39952" xmlns="http://www.w3.org/2000/svg" version="1.1">
 <metadata>
  <rdf:RDF xmlns:dc="http://purl.org/dc/elements/1.1/" xmlns:cc="http://creativecommons.org/ns#" xmlns:rdf="http://www.w3.org/1999/02/22-rdf-syntax-ns#">
   <cc:Work>
    <dc:type rdf:resource="http://purl.org/dc/dcmitype/StillImage"/>
    <dc:date>2026-05-28T02:02:17.632214</dc:date>
    <dc:format>image/svg+xml</dc:format>
    <dc:creator>
     <cc:Agent>
      <dc:title>Matplotlib v3.10.9, https://matplotlib.org/</dc:title>
     </cc:Agent>
    </dc:creator>
   </cc:Work>
  </rdf:RDF>
 </metadata>
 <defs>
  <style type="text/css">*{stroke-linejoin: round; stroke-linecap: butt}</style>
 </defs>
 <g id="figure_1">
  <g id="patch_1">
   <path d="M 0 332.39952 
L 332.39952 332.39952 
L 332.39952 0 
L 0 0 
z
" style="fill: #ffffff"/>
  </g>
  <g id="axes_1">
   <g id="patch_2">
    <path d="M 43.78125 96.747437 
L 325.19952 96.747437 
L 325.19952 7.2 
L 43.78125 7.2 
z
" style="fill: #ffffff"/>
   </g>
   <g id="matplotlib.axis_1">
    <g id="xtick_1">
     <g id="line2d_1">
      <defs>
       <path id="m2509396536" d="M 0 0 
L 0 3.5 
" style="stroke: #000000; stroke-width: 0.8"/>
      </defs>
      <g>
       <use xlink:href="#m2509396536" x="56.57299" y="96.747437" style="stroke: #000000; stroke-width: 0.8"/>
      </g>
     </g>
    </g>
    <g id="xtick_2">
     <g id="line2d_2">
      <g>
       <use xlink:href="#m2509396536" x="88.548335" y="96.747437" style="stroke: #000000; stroke-width: 0.8"/>
      </g>
     </g>
    </g>
    <g id="xtick_3">
     <g id="line2d_3">
      <g>
       <use xlink:href="#m2509396536" x="120.523681" y="96.747437" style="stroke: #000000; stroke-width: 0.8"/>
      </g>
     </g>
    </g>
    <g id="xtick_4">
     <g id="line2d_4">
      <g>
       <use xlink:href="#m2509396536" x="152.499027" y="96.747437" style="stroke: #000000; stroke-width: 0.8"/>
      </g>
     </g>
    </g>
    <g id="xtick_5">
     <g id="line2d_5">
      <g>
       <use xlink:href="#m2509396536" x="184.474373" y="96.747437" style="stroke: #000000; stroke-width: 0.8"/>
      </g>
     </g>
    </g>
    <g id="xtick_6">
     <g id="line2d_6">
      <g>
       <use xlink:href="#m2509396536" x="216.449719" y="96.747437" style="stroke: #000000; stroke-width: 0.8"/>
      </g>
     </g>
    </g>
    <g id="xtick_7">
     <g id="line2d_7">
      <g>
       <use xlink:href="#m2509396536" x="248.425064" y="96.747437" style="stroke: #000000; stroke-width: 0.8"/>
      </g>
     </g>
    </g>
    <g id="xtick_8">
     <g id="line2d_8">
      <g>
       <use xlink:href="#m2509396536" x="280.40041" y="96.747437" style="stroke: #000000; stroke-width: 0.8"/>
      </g>
     </g>
    </g>
    <g id="xtick_9">
     <g id="line2d_9">
      <g>
       <use xlink:href="#m2509396536" x="312.375756" y="96.747437" style="stroke: #000000; stroke-width: 0.8"/>
      </g>
     </g>
    </g>
   </g>
   <g id="matplotlib.axis_2">
    <g id="ytick_1">
     <g id="line2d_10">
      <defs>
       <path id="mb5716e15d8" d="M 0 0 
L -3.5 0 
" style="stroke: #000000; stroke-width: 0.8"/>
      </defs>
      <g>
       <use xlink:href="#mb5716e15d8" x="43.78125" y="92.677099" style="stroke: #000000; stroke-width: 0.8"/>
      </g>
     </g>
     <g id="text_1">
      <!-- 0 -->
      <g transform="translate(30.41875 96.476317) scale(0.1 -0.1)">
       <defs>
        <path id="DejaVuSans-30" d="M 2034 4250 
Q 1547 4250 1301 3770 
Q 1056 3291 1056 2328 
Q 1056 1369 1301 889 
Q 1547 409 2034 409 
Q 2525 409 2770 889 
Q 3016 1369 3016 2328 
Q 3016 3291 2770 3770 
Q 2525 4250 2034 4250 
z
M 2034 4750 
Q 2819 4750 3233 4129 
Q 3647 3509 3647 2328 
Q 3647 1150 3233 529 
Q 2819 -91 2034 -91 
Q 1250 -91 836 529 
Q 422 1150 422 2328 
Q 422 3509 836 4129 
Q 1250 4750 2034 4750 
z
" transform="scale(0.015625)"/>
       </defs>
       <use xlink:href="#DejaVuSans-30"/>
      </g>
     </g>
    </g>
    <g id="ytick_2">
     <g id="line2d_11">
      <g>
       <use xlink:href="#mb5716e15d8" x="43.78125" y="51.973718" style="stroke: #000000; stroke-width: 0.8"/>
      </g>
     </g>
     <g id="text_2">
      <!-- 5 -->
      <g transform="translate(30.41875 55.772937) scale(0.1 -0.1)">
       <defs>
        <path id="DejaVuSans-35" d="M 691 4666 
L 3169 4666 
L 3169 4134 
L 1269 4134 
L 1269 2991 
Q 1406 3038 1543 3061 
Q 1681 3084 1819 3084 
Q 2600 3084 3056 2656 
Q 3513 2228 3513 1497 
Q 3513 744 3044 326 
Q 2575 -91 1722 -91 
Q 1428 -91 1123 -41 
Q 819 9 494 109 
L 494 744 
Q 775 591 1075 516 
Q 1375 441 1709 441 
Q 2250 441 2565 725 
Q 2881 1009 2881 1497 
Q 2881 1984 2565 2268 
Q 2250 2553 1709 2553 
Q 1456 2553 1204 2497 
Q 953 2441 691 2322 
L 691 4666 
z
" transform="scale(0.015625)"/>
       </defs>
       <use xlink:href="#DejaVuSans-35"/>
      </g>
     </g>
    </g>
    <g id="ytick_3">
     <g id="line2d_12">
      <g>
       <use xlink:href="#mb5716e15d8" x="43.78125" y="11.270338" style="stroke: #000000; stroke-width: 0.8"/>
      </g>
     </g>
     <g id="text_3">
      <!-- 10 -->
      <g transform="translate(24.05625 15.069557) scale(0.1 -0.1)">
       <defs>
        <path id="DejaVuSans-31" d="M 794 531 
L 1825 531 
L 1825 4091 
L 703 3866 
L 703 4441 
L 1819 4666 
L 2450 4666 
L 2450 531 
L 3481 531 
L 3481 0 
L 794 0 
L 794 531 
z
" transform="scale(0.015625)"/>
       </defs>
       <use xlink:href="#DejaVuSans-31"/>
       <use xlink:href="#DejaVuSans-30" transform="translate(63.623047 0)"/>
      </g>
     </g>
    </g>
    <g id="text_4">
     <!-- Extracellular lactose -->
     <g transform="translate(17.976562 102.945593) rotate(-90) scale(0.1 -0.1)">
      <defs>
       <path id="DejaVuSans-45" d="M 628 4666 
L 3578 4666 
L 3578 4134 
L 1259 4134 
L 1259 2753 
L 3481 2753 
L 3481 2222 
L 1259 2222 
L 1259 531 
L 3634 531 
L 3634 0 
L 628 0 
L 628 4666 
z
" transform="scale(0.015625)"/>
       <path id="DejaVuSans-78" d="M 3513 3500 
L 2247 1797 
L 3578 0 
L 2900 0 
L 1881 1375 
L 863 0 
L 184 0 
L 1544 1831 
L 300 3500 
L 978 3500 
L 1906 2253 
L 2834 3500 
L 3513 3500 
z
" transform="scale(0.015625)"/>
       <path id="DejaVuSans-74" d="M 1172 4494 
L 1172 3500 
L 2356 3500 
L 2356 3053 
L 1172 3053 
L 1172 1153 
Q 1172 725 1289 603 
Q 1406 481 1766 481 
L 2356 481 
L 2356 0 
L 1766 0 
Q 1100 0 847 248 
Q 594 497 594 1153 
L 594 3053 
L 172 3053 
L 172 3500 
L 594 3500 
L 594 4494 
L 1172 4494 
z
" transform="scale(0.015625)"/>
       <path id="DejaVuSans-72" d="M 2631 2963 
Q 2534 3019 2420 3045 
Q 2306 3072 2169 3072 
Q 1681 3072 1420 2755 
Q 1159 2438 1159 1844 
L 1159 0 
L 581 0 
L 581 3500 
L 1159 3500 
L 1159 2956 
Q 1341 3275 1631 3429 
Q 1922 3584 2338 3584 
Q 2397 3584 2469 3576 
Q 2541 3569 2628 3553 
L 2631 2963 
z
" transform="scale(0.015625)"/>
       <path id="DejaVuSans-61" d="M 2194 1759 
Q 1497 1759 1228 1600 
Q 959 1441 959 1056 
Q 959 750 1161 570 
Q 1363 391 1709 391 
Q 2188 391 2477 730 
Q 2766 1069 2766 1631 
L 2766 1759 
L 2194 1759 
z
M 3341 1997 
L 3341 0 
L 2766 0 
L 2766 531 
Q 2569 213 2275 61 
Q 1981 -91 1556 -91 
Q 1019 -91 701 211 
Q 384 513 384 1019 
Q 384 1609 779 1909 
Q 1175 2209 1959 2209 
L 2766 2209 
L 2766 2266 
Q 2766 2663 2505 2880 
Q 2244 3097 1772 3097 
Q 1472 3097 1187 3025 
Q 903 2953 641 2809 
L 641 3341 
Q 956 3463 1253 3523 
Q 1550 3584 1831 3584 
Q 2591 3584 2966 3190 
Q 3341 2797 3341 1997 
z
" transform="scale(0.015625)"/>
       <path id="DejaVuSans-63" d="M 3122 3366 
L 3122 2828 
Q 2878 2963 2633 3030 
Q 2388 3097 2138 3097 
Q 1578 3097 1268 2742 
Q 959 2388 959 1747 
Q 959 1106 1268 751 
Q 1578 397 2138 397 
Q 2388 397 2633 464 
Q 2878 531 3122 666 
L 3122 134 
Q 2881 22 2623 -34 
Q 2366 -91 2075 -91 
Q 1284 -91 818 406 
Q 353 903 353 1747 
Q 353 2603 823 3093 
Q 1294 3584 2113 3584 
Q 2378 3584 2631 3529 
Q 2884 3475 3122 3366 
z
" transform="scale(0.015625)"/>
       <path id="DejaVuSans-65" d="M 3597 1894 
L 3597 1613 
L 953 1613 
Q 991 1019 1311 708 
Q 1631 397 2203 397 
Q 2534 397 2845 478 
Q 3156 559 3463 722 
L 3463 178 
Q 3153 47 2828 -22 
Q 2503 -91 2169 -91 
Q 1331 -91 842 396 
Q 353 884 353 1716 
Q 353 2575 817 3079 
Q 1281 3584 2069 3584 
Q 2775 3584 3186 3129 
Q 3597 2675 3597 1894 
z
M 3022 2063 
Q 3016 2534 2758 2815 
Q 2500 3097 2075 3097 
Q 1594 3097 1305 2825 
Q 1016 2553 972 2059 
L 3022 2063 
z
" transform="scale(0.015625)"/>
       <path id="DejaVuSans-6c" d="M 603 4863 
L 1178 4863 
L 1178 0 
L 603 0 
L 603 4863 
z
" transform="scale(0.015625)"/>
       <path id="DejaVuSans-75" d="M 544 1381 
L 544 3500 
L 1119 3500 
L 1119 1403 
Q 1119 906 1312 657 
Q 1506 409 1894 409 
Q 2359 409 2629 706 
Q 2900 1003 2900 1516 
L 2900 3500 
L 3475 3500 
L 3475 0 
L 2900 0 
L 2900 538 
Q 2691 219 2414 64 
Q 2138 -91 1772 -91 
Q 1169 -91 856 284 
Q 544 659 544 1381 
z
M 1991 3584 
L 1991 3584 
z
" transform="scale(0.015625)"/>
       <path id="DejaVuSans-20" transform="scale(0.015625)"/>
       <path id="DejaVuSans-6f" d="M 1959 3097 
Q 1497 3097 1228 2736 
Q 959 2375 959 1747 
Q 959 1119 1226 758 
Q 1494 397 1959 397 
Q 2419 397 2687 759 
Q 2956 1122 2956 1747 
Q 2956 2369 2687 2733 
Q 2419 3097 1959 3097 
z
M 1959 3584 
Q 2709 3584 3137 3096 
Q 3566 2609 3566 1747 
Q 3566 888 3137 398 
Q 2709 -91 1959 -91 
Q 1206 -91 779 398 
Q 353 888 353 1747 
Q 353 2609 779 3096 
Q 1206 3584 1959 3584 
z
" transform="scale(0.015625)"/>
       <path id="DejaVuSans-73" d="M 2834 3397 
L 2834 2853 
Q 2591 2978 2328 3040 
Q 2066 3103 1784 3103 
Q 1356 3103 1142 2972 
Q 928 2841 928 2578 
Q 928 2378 1081 2264 
Q 1234 2150 1697 2047 
L 1894 2003 
Q 2506 1872 2764 1633 
Q 3022 1394 3022 966 
Q 3022 478 2636 193 
Q 2250 -91 1575 -91 
Q 1294 -91 989 -36 
Q 684 19 347 128 
L 347 722 
Q 666 556 975 473 
Q 1284 391 1588 391 
Q 1994 391 2212 530 
Q 2431 669 2431 922 
Q 2431 1156 2273 1281 
Q 2116 1406 1581 1522 
L 1381 1569 
Q 847 1681 609 1914 
Q 372 2147 372 2553 
Q 372 3047 722 3315 
Q 1072 3584 1716 3584 
Q 2034 3584 2315 3537 
Q 2597 3491 2834 3397 
z
" transform="scale(0.015625)"/>
      </defs>
      <use xlink:href="#DejaVuSans-45"/>
      <use xlink:href="#DejaVuSans-78" transform="translate(63.183594 0)"/>
      <use xlink:href="#DejaVuSans-74" transform="translate(122.363281 0)"/>
      <use xlink:href="#DejaVuSans-72" transform="translate(161.572266 0)"/>
      <use xlink:href="#DejaVuSans-61" transform="translate(202.685547 0)"/>
      <use xlink:href="#DejaVuSans-63" transform="translate(263.964844 0)"/>
      <use xlink:href="#DejaVuSans-65" transform="translate(318.945312 0)"/>
      <use xlink:href="#DejaVuSans-6c" transform="translate(380.46875 0)"/>
      <use xlink:href="#DejaVuSans-6c" transform="translate(408.251953 0)"/>
      <use xlink:href="#DejaVuSans-75" transform="translate(436.035156 0)"/>
      <use xlink:href="#DejaVuSans-6c" transform="translate(499.414062 0)"/>
      <use xlink:href="#DejaVuSans-61" transform="translate(527.197266 0)"/>
      <use xlink:href="#DejaVuSans-72" transform="translate(588.476562 0)"/>
      <use xlink:href="#DejaVuSans-20" transform="translate(629.589844 0)"/>
      <use xlink:href="#DejaVuSans-6c" transform="translate(661.376953 0)"/>
      <use xlink:href="#DejaVuSans-61" transform="translate(689.160156 0)"/>
      <use xlink:href="#DejaVuSans-63" transform="translate(750.439453 0)"/>
      <use xlink:href="#DejaVuSans-74" transform="translate(805.419922 0)"/>
      <use xlink:href="#DejaVuSans-6f" transform="translate(844.628906 0)"/>
      <use xlink:href="#DejaVuSans-73" transform="translate(905.810547 0)"/>
      <use xlink:href="#DejaVuSans-65" transform="translate(957.910156 0)"/>
     </g>
    </g>
   </g>
   <g id="line2d_13">
    <path d="M 56.57299 92.677099 
L 156.038491 92.677099 
L 156.127713 11.270338 
L 156.796636 11.351745 
L 156.914488 11.677372 
L 156.959365 11.758779 
L 157.105763 13.2241 
L 157.22427 14.852235 
L 157.238118 14.933642 
L 157.381831 16.643184 
L 157.405413 16.724591 
L 157.913523 20.143675 
L 158.31707 20.794929 
L 158.790383 20.876336 
L 158.892179 21.201963 
L 159.150113 21.608997 
L 159.250654 22.01603 
L 159.371329 22.097437 
L 159.487125 22.585878 
L 159.494902 22.667285 
L 159.603967 23.562759 
L 159.701279 24.458233 
L 160.040716 25.842148 
L 160.086745 25.923555 
L 160.267456 26.737623 
L 160.285253 26.819029 
L 160.40334 27.470283 
L 160.718397 29.749673 
L 161.342628 31.622028 
L 161.419023 31.703435 
L 161.529996 31.784842 
L 161.663083 31.866248 
L 161.743221 32.191876 
L 162.669758 34.227045 
L 162.781899 34.715485 
L 162.815597 34.796892 
L 162.959167 35.366739 
L 163.093344 35.692366 
L 163.780899 35.773773 
L 163.970539 36.506434 
L 164.163167 36.913468 
L 164.356126 37.157688 
L 164.465342 37.646128 
L 164.512854 37.727535 
L 164.619652 37.808942 
L 165.579516 37.890349 
L 165.933583 38.134569 
L 166.055048 38.378789 
L 166.471672 38.460196 
L 166.925218 39.030043 
L 167.020911 39.11145 
L 167.396268 39.518484 
L 167.50433 40.169738 
L 167.539177 40.251145 
L 167.663792 40.576772 
L 167.841995 40.658179 
L 168.003858 40.739585 
L 168.093537 40.983806 
L 168.714455 41.065212 
L 168.824473 41.390839 
L 169.122576 41.472246 
L 169.235034 41.716466 
L 169.39553 42.449127 
L 169.483202 42.530534 
L 169.626925 43.344602 
L 169.646945 43.426008 
L 170.225124 47.577753 
L 170.360934 49.043075 
L 170.393756 49.124482 
L 170.534096 50.67121 
L 170.762927 51.729498 
L 170.802599 51.810905 
L 170.90751 52.217939 
L 171.311123 53.276227 
L 171.479261 53.357633 
L 171.607371 53.601854 
L 171.84427 54.253108 
L 172.02907 54.904362 
L 172.076599 54.985768 
L 172.235089 55.311396 
L 172.349021 55.392802 
L 172.539504 55.718429 
L 172.648104 56.125463 
L 172.677686 56.20687 
L 172.844802 56.69531 
L 172.927447 56.776717 
L 173.023133 57.265158 
L 173.117942 57.346565 
L 173.318373 58.323446 
L 173.370872 58.404852 
L 173.482238 58.893293 
L 173.518061 58.9747 
L 173.608137 59.137513 
L 173.762344 59.544547 
L 173.881105 60.114394 
L 173.923353 60.195801 
L 174.091548 60.521428 
L 174.569139 60.602835 
L 174.755123 60.928462 
L 175.072307 61.009869 
L 175.19278 61.254089 
L 175.213388 61.335496 
L 175.312433 61.579716 
L 175.439187 61.661123 
L 175.585125 61.98675 
L 175.741014 62.068157 
L 175.941671 62.393784 
L 176.112614 62.47519 
L 176.222211 62.638004 
L 176.298939 62.719411 
L 176.555598 63.696292 
L 176.659599 63.940512 
L 176.744253 64.021919 
L 176.952372 65.24302 
L 177.554191 68.173664 
L 177.618543 68.25507 
L 177.73649 68.662104 
L 177.7933 68.743511 
L 179.230021 73.79073 
L 179.269382 73.872137 
L 179.431334 74.03495 
L 180.175208 74.116357 
L 180.280787 74.197764 
L 180.452195 74.279171 
L 180.605632 74.849018 
L 180.686785 74.930425 
L 180.829258 75.174645 
L 180.97812 75.256052 
L 181.059601 75.337459 
L 181.622218 75.418865 
L 181.909309 75.825899 
L 182.578475 75.907306 
L 182.659235 76.070119 
L 184.035511 76.151526 
L 184.215287 76.232933 
L 184.468669 76.31434 
L 184.578497 76.477153 
L 184.738578 76.55856 
L 184.830429 76.721374 
L 185.028912 76.80278 
L 185.119184 76.884187 
L 185.588835 77.209814 
L 186.069173 77.291221 
L 186.196307 77.454034 
L 186.24542 77.535441 
L 186.332983 77.861068 
L 186.451775 77.942475 
L 186.534574 78.023882 
L 187.341657 78.756543 
L 187.474648 79.407797 
L 187.804116 79.489203 
L 187.927946 79.57061 
L 188.254647 79.652017 
L 188.431415 79.896237 
L 188.576448 79.977644 
L 188.67571 80.140458 
L 188.768996 80.221864 
L 188.831805 80.384678 
L 188.95031 80.466085 
L 189.180241 80.791712 
L 189.279057 80.954525 
L 189.446636 81.035932 
L 189.513776 81.198745 
L 189.64105 81.280152 
L 189.742197 81.524372 
L 190.052528 82.33844 
L 190.186048 82.419847 
L 190.363921 82.908287 
L 190.557214 82.989694 
L 190.642766 83.071101 
L 190.88561 83.152508 
L 191.008514 83.233914 
L 191.185436 83.315321 
L 191.290858 83.478135 
L 191.471762 83.722355 
L 191.573732 84.129389 
L 191.775875 84.210796 
L 191.888194 84.455016 
L 192.012894 84.536423 
L 192.153149 84.699236 
L 192.216953 84.780643 
L 192.316367 84.943456 
L 192.518744 85.10627 
L 192.686897 85.187677 
L 192.850389 85.269083 
L 194.01792 85.35049 
L 194.591856 85.513304 
L 196.504948 85.59471 
L 196.642463 85.757524 
L 197.264102 85.838931 
L 197.364784 85.920338 
L 197.792555 86.001744 
L 198.811157 86.245965 
L 199.091371 86.327371 
L 199.192648 86.490185 
L 199.452489 86.571592 
L 199.562553 86.897219 
L 199.672788 86.978625 
L 199.766676 87.141439 
L 200.033633 87.222846 
L 200.145867 87.385659 
L 200.681505 87.467066 
L 201.212005 87.711286 
L 201.608353 87.955507 
L 201.791299 88.036913 
L 202.039309 88.11832 
L 202.736256 88.199727 
L 202.892778 88.281134 
L 203.040747 88.36254 
L 203.105387 88.443947 
L 204.003257 88.525354 
L 204.48382 88.850981 
L 204.592296 89.013794 
L 204.797121 89.095201 
L 204.902898 89.258015 
L 205.349382 89.339421 
L 205.491238 89.420828 
L 205.809954 89.502235 
L 206.064697 89.746455 
L 206.912626 89.827862 
L 207.10467 89.909269 
L 208.929696 89.990676 
L 208.995124 90.072082 
L 252.155768 90.153489 
L 253.000664 90.234896 
L 253.745085 90.316303 
L 259.076078 90.479116 
L 289.436942 90.560523 
L 290.337837 90.64193 
L 312.40778 90.64193 
L 312.40778 90.64193 
" clip-path="url(#p3acb720b27)" style="fill: none; stroke: #000000; stroke-width: 1.5; stroke-linecap: square"/>
   </g>
   <g id="patch_3">
    <path d="M 43.78125 96.747437 
L 43.78125 7.2 
" style="fill: none; stroke: #000000; stroke-width: 0.8; stroke-linejoin: miter; stroke-linecap: square"/>
   </g>
   <g id="patch_4">
    <path d="M 325.19952 96.747437 
L 325.19952 7.2 
" style="fill: none; stroke: #000000; stroke-width: 0.8; stroke-linejoin: miter; stroke-linecap: square"/>
   </g>
   <g id="patch_5">
    <path d="M 43.78125 96.747437 
L 325.19952 96.747437 
" style="fill: none; stroke: #000000; stroke-width: 0.8; stroke-linejoin: miter; stroke-linecap: square"/>
   </g>
   <g id="patch_6">
    <path d="M 43.78125 7.2 
L 325.19952 7.2 
" style="fill: none; stroke: #000000; stroke-width: 0.8; stroke-linejoin: miter; stroke-linecap: square"/>
   </g>
  </g>
  <g id="axes_2">
   <g id="patch_7">
    <path d="M 43.78125 195.795353 
L 325.19952 195.795353 
L 325.19952 106.247917 
L 43.78125 106.247917 
z
" style="fill: #ffffff"/>
   </g>
   <g id="matplotlib.axis_3">
    <g id="xtick_10">
     <g id="line2d_14">
      <g>
       <use xlink:href="#m2509396536" x="56.57299" y="195.795353" style="stroke: #000000; stroke-width: 0.8"/>
      </g>
     </g>
    </g>
    <g id="xtick_11">
     <g id="line2d_15">
      <g>
       <use xlink:href="#m2509396536" x="88.548335" y="195.795353" style="stroke: #000000; stroke-width: 0.8"/>
      </g>
     </g>
    </g>
    <g id="xtick_12">
     <g id="line2d_16">
      <g>
       <use xlink:href="#m2509396536" x="120.523681" y="195.795353" style="stroke: #000000; stroke-width: 0.8"/>
      </g>
     </g>
    </g>
    <g id="xtick_13">
     <g id="line2d_17">
      <g>
       <use xlink:href="#m2509396536" x="152.499027" y="195.795353" style="stroke: #000000; stroke-width: 0.8"/>
      </g>
     </g>
    </g>
    <g id="xtick_14">
     <g id="line2d_18">
      <g>
       <use xlink:href="#m2509396536" x="184.474373" y="195.795353" style="stroke: #000000; stroke-width: 0.8"/>
      </g>
     </g>
    </g>
    <g id="xtick_15">
     <g id="line2d_19">
      <g>
       <use xlink:href="#m2509396536" x="216.449719" y="195.795353" style="stroke: #000000; stroke-width: 0.8"/>
      </g>
     </g>
    </g>
    <g id="xtick_16">
     <g id="line2d_20">
      <g>
       <use xlink:href="#m2509396536" x="248.425064" y="195.795353" style="stroke: #000000; stroke-width: 0.8"/>
      </g>
     </g>
    </g>
    <g id="xtick_17">
     <g id="line2d_21">
      <g>
       <use xlink:href="#m2509396536" x="280.40041" y="195.795353" style="stroke: #000000; stroke-width: 0.8"/>
      </g>
     </g>
    </g>
    <g id="xtick_18">
     <g id="line2d_22">
      <g>
       <use xlink:href="#m2509396536" x="312.375756" y="195.795353" style="stroke: #000000; stroke-width: 0.8"/>
      </g>
     </g>
    </g>
   </g>
   <g id="matplotlib.axis_4">
    <g id="ytick_4">
     <g id="line2d_23">
      <g>
       <use xlink:href="#mb5716e15d8" x="43.78125" y="191.725015" style="stroke: #000000; stroke-width: 0.8"/>
      </g>
     </g>
     <g id="text_5">
      <!-- 0 -->
      <g transform="translate(30.41875 195.524234) scale(0.1 -0.1)">
       <use xlink:href="#DejaVuSans-30"/>
      </g>
     </g>
    </g>
    <g id="ytick_5">
     <g id="line2d_24">
      <g>
       <use xlink:href="#mb5716e15d8" x="43.78125" y="151.021635" style="stroke: #000000; stroke-width: 0.8"/>
      </g>
     </g>
     <g id="text_6">
      <!-- 5 -->
      <g transform="translate(30.41875 154.820854) scale(0.1 -0.1)">
       <use xlink:href="#DejaVuSans-35"/>
      </g>
     </g>
    </g>
    <g id="ytick_6">
     <g id="line2d_25">
      <g>
       <use xlink:href="#mb5716e15d8" x="43.78125" y="110.318255" style="stroke: #000000; stroke-width: 0.8"/>
      </g>
     </g>
     <g id="text_7">
      <!-- 10 -->
      <g transform="translate(24.05625 114.117473) scale(0.1 -0.1)">
       <use xlink:href="#DejaVuSans-31"/>
       <use xlink:href="#DejaVuSans-30" transform="translate(63.623047 0)"/>
      </g>
     </g>
    </g>
    <g id="text_8">
     <!-- LacY -->
     <g transform="translate(17.976563 162.67476) rotate(-90) scale(0.1 -0.1)">
      <defs>
       <path id="DejaVuSans-4c" d="M 628 4666 
L 1259 4666 
L 1259 531 
L 3531 531 
L 3531 0 
L 628 0 
L 628 4666 
z
" transform="scale(0.015625)"/>
       <path id="DejaVuSans-59" d="M -13 4666 
L 666 4666 
L 1959 2747 
L 3244 4666 
L 3922 4666 
L 2272 2222 
L 2272 0 
L 1638 0 
L 1638 2222 
L -13 4666 
z
" transform="scale(0.015625)"/>
      </defs>
      <use xlink:href="#DejaVuSans-4c"/>
      <use xlink:href="#DejaVuSans-61" transform="translate(55.712891 0)"/>
      <use xlink:href="#DejaVuSans-63" transform="translate(116.992188 0)"/>
      <use xlink:href="#DejaVuSans-59" transform="translate(171.972656 0)"/>
     </g>
    </g>
   </g>
   <g id="line2d_26">
    <path d="M 56.57299 110.318255 
L 56.60017 110.318255 
L 56.654771 118.458931 
L 56.763149 134.740283 
L 56.82361 142.880959 
L 56.976014 142.880959 
L 56.993746 134.740283 
L 57.214766 142.880959 
L 57.356909 142.880959 
L 57.527894 159.162311 
L 57.829384 175.443663 
L 57.895132 191.725015 
L 59.428117 191.725015 
L 59.595064 183.584339 
L 59.637889 191.725015 
L 64.670296 191.725015 
L 64.993885 183.584339 
L 65.104054 191.725015 
L 82.634499 191.725015 
L 82.829287 183.584339 
L 84.626115 191.725015 
L 84.640969 183.584339 
L 84.784456 175.443663 
L 84.78912 167.302987 
L 85.111913 175.443663 
L 85.339321 175.443663 
L 85.459189 191.725015 
L 85.520129 183.584339 
L 85.710728 183.584339 
L 85.849485 191.725015 
L 89.749344 191.725015 
L 90.139907 175.443663 
L 90.141211 167.302987 
L 90.640825 167.302987 
L 90.679569 183.584339 
L 91.453227 183.584339 
L 91.622483 175.443663 
L 91.967449 191.725015 
L 109.005972 191.725015 
L 109.111877 183.584339 
L 109.231819 183.584339 
L 109.371186 191.725015 
L 109.606649 191.725015 
L 109.648216 183.584339 
L 110.064996 183.584339 
L 110.415613 175.443663 
L 110.474076 183.584339 
L 110.649689 183.584339 
L 110.679326 191.725015 
L 119.45632 191.725015 
L 119.635102 183.584339 
L 121.739572 183.584339 
L 123.590756 191.725015 
L 131.374403 191.725015 
L 131.561045 183.584339 
L 131.849186 183.584339 
L 131.95718 191.725015 
L 136.301729 191.725015 
L 136.385628 183.584339 
L 136.407538 191.725015 
L 146.420386 191.725015 
L 146.681758 175.443663 
L 146.702631 183.584339 
L 146.731698 175.443663 
L 146.845038 167.302987 
L 146.850389 175.443663 
L 147.436315 175.443663 
L 148.054744 183.584339 
L 148.300574 183.584339 
L 148.616476 175.443663 
L 148.729588 175.443663 
L 149.803675 191.725015 
L 150.264781 191.725015 
L 150.316767 175.443663 
L 150.417847 175.443663 
L 150.570989 183.584339 
L 150.70498 183.584339 
L 151.24899 191.725015 
L 156.377841 191.725015 
L 156.806995 183.584339 
L 157.047776 151.021635 
L 157.329989 151.021635 
L 157.45034 167.302987 
L 157.50031 167.302987 
L 157.601416 159.162311 
L 157.688571 159.162311 
L 157.79216 175.443663 
L 157.818796 175.443663 
L 157.913523 183.584339 
L 158.276406 183.584339 
L 158.370234 191.725015 
L 158.73515 191.725015 
L 158.841411 183.584339 
L 159.023253 183.584339 
L 159.133684 175.443663 
L 159.279878 175.443663 
L 159.335451 183.584339 
L 159.385769 175.443663 
L 159.487125 175.443663 
L 159.591568 167.302987 
L 159.751853 167.302987 
L 159.876985 183.584339 
L 160.011422 183.584339 
L 160.130181 175.443663 
L 160.267456 175.443663 
L 160.384527 167.302987 
L 160.77537 167.302987 
L 160.892618 175.443663 
L 161.204992 175.443663 
L 161.318344 183.584339 
L 162.292472 183.584339 
L 162.397856 175.443663 
L 162.427324 175.443663 
L 162.530233 167.302987 
L 162.541127 167.302987 
L 162.635185 175.443663 
L 162.785015 175.443663 
L 162.820602 183.584339 
L 162.870896 175.443663 
L 162.938773 175.443663 
L 162.985927 167.302987 
L 163.037717 175.443663 
L 163.071071 175.443663 
L 163.211864 191.725015 
L 163.638155 191.725015 
L 163.789997 183.584339 
L 163.883739 183.584339 
L 164.001247 175.443663 
L 164.125611 175.443663 
L 164.163167 183.584339 
L 164.309647 183.584339 
L 164.380381 175.443663 
L 164.401733 183.584339 
L 164.517566 183.584339 
L 164.619652 191.725015 
L 164.793359 191.725015 
L 164.856531 183.584339 
L 164.895519 191.725015 
L 164.93814 191.725015 
L 164.990468 183.584339 
L 165.010717 191.725015 
L 165.356899 191.725015 
L 165.579516 183.584339 
L 165.779045 183.584339 
L 165.785206 175.443663 
L 165.858405 183.584339 
L 165.921719 183.584339 
L 165.937045 175.443663 
L 166.030929 183.584339 
L 166.093406 183.584339 
L 166.246237 191.725015 
L 166.459095 191.725015 
L 166.54335 183.584339 
L 166.880855 183.584339 
L 166.925218 191.725015 
L 166.990051 183.584339 
L 167.482107 183.584339 
L 167.50433 175.443663 
L 167.575522 183.584339 
L 167.728005 183.584339 
L 167.804549 191.725015 
L 167.813339 183.584339 
L 168.279018 183.584339 
L 168.348572 191.725015 
L 168.423073 191.725015 
L 168.607991 183.584339 
L 168.817598 183.584339 
L 168.925604 191.725015 
L 169.122576 183.584339 
L 169.224489 183.584339 
L 169.331455 175.443663 
L 169.350832 175.443663 
L 169.476377 167.302987 
L 169.723252 167.302987 
L 169.832538 151.021635 
L 169.875066 151.021635 
L 169.977061 142.880959 
L 170.020608 142.880959 
L 170.127625 151.021635 
L 170.147144 151.021635 
L 170.196281 134.740283 
L 170.256464 142.880959 
L 170.49727 142.880959 
L 170.59718 151.021635 
L 170.709771 151.021635 
L 170.750744 159.162311 
L 170.817612 151.021635 
L 170.833287 151.021635 
L 170.942517 175.443663 
L 170.961332 175.443663 
L 171.08276 183.584339 
L 171.264013 183.584339 
L 171.366678 175.443663 
L 171.578197 175.443663 
L 171.65707 183.584339 
L 171.687981 175.443663 
L 171.767423 175.443663 
L 171.868359 167.302987 
L 172.121839 167.302987 
L 172.235089 175.443663 
L 173.318373 175.443663 
L 173.45859 167.302987 
L 173.547653 167.302987 
L 173.66395 175.443663 
L 174.030967 175.443663 
L 174.149971 183.584339 
L 174.240308 183.584339 
L 174.317522 191.725015 
L 174.349732 183.584339 
L 174.367595 183.584339 
L 174.40479 191.725015 
L 174.433233 183.584339 
L 174.493736 183.584339 
L 174.64047 175.443663 
L 174.755123 175.443663 
L 174.853189 183.584339 
L 175.217793 183.584339 
L 175.312433 175.443663 
L 175.565022 175.443663 
L 175.642029 183.584339 
L 176.010405 183.584339 
L 176.084523 175.443663 
L 176.116365 183.584339 
L 176.265946 183.584339 
L 176.465797 159.162311 
L 176.683781 159.162311 
L 176.854451 142.880959 
L 177.022387 142.880959 
L 177.13254 151.021635 
L 177.161796 151.021635 
L 177.2535 142.880959 
L 177.450538 142.880959 
L 177.547774 159.162311 
L 177.554191 151.021635 
L 177.629349 151.021635 
L 177.73649 167.302987 
L 177.761323 167.302987 
L 177.876286 159.162311 
L 177.907432 159.162311 
L 177.931917 151.021635 
L 178.01309 159.162311 
L 178.083164 159.162311 
L 178.115409 151.021635 
L 178.177623 159.162311 
L 178.289477 159.162311 
L 178.390294 151.021635 
L 178.519599 159.162311 
L 178.705752 159.162311 
L 178.822061 167.302987 
L 179.22906 167.302987 
L 179.304323 183.584339 
L 179.33027 175.443663 
L 179.471787 183.584339 
L 179.616754 183.584339 
L 179.736588 191.725015 
L 179.987545 191.725015 
L 180.141707 183.584339 
L 180.167744 191.725015 
L 180.208144 175.443663 
L 180.774904 175.443663 
L 180.899408 183.584339 
L 181.011747 175.443663 
L 181.116405 191.725015 
L 181.376832 191.725015 
L 181.574248 167.302987 
L 181.732755 175.443663 
L 181.909309 175.443663 
L 182.052052 183.584339 
L 182.131918 175.443663 
L 182.151155 183.584339 
L 182.250092 183.584339 
L 182.265123 175.443663 
L 182.340474 183.584339 
L 182.409387 183.584339 
L 182.590923 167.302987 
L 182.658194 167.302987 
L 182.76239 183.584339 
L 182.981068 183.584339 
L 183.062893 191.725015 
L 183.82019 191.725015 
L 183.950687 175.443663 
L 184.124359 183.584339 
L 184.254114 183.584339 
L 184.286393 191.725015 
L 184.350819 183.584339 
L 184.490871 175.443663 
L 184.605851 183.584339 
L 185.845596 183.584339 
L 185.883949 167.302987 
L 186.047196 167.302987 
L 186.102324 159.162311 
L 186.193983 159.162311 
L 186.291007 151.021635 
L 186.304526 159.162311 
L 186.363932 151.021635 
L 186.383124 167.302987 
L 186.471364 167.302987 
L 186.534574 175.443663 
L 186.643656 175.443663 
L 186.724726 183.584339 
L 186.804799 183.584339 
L 186.923859 175.443663 
L 187.194321 175.443663 
L 187.334439 167.302987 
L 187.446476 167.302987 
L 187.522111 159.162311 
L 187.59784 159.162311 
L 187.730093 175.443663 
L 187.799922 159.162311 
L 187.830531 175.443663 
L 187.864451 175.443663 
L 187.982018 183.584339 
L 188.107347 167.302987 
L 188.156274 167.302987 
L 188.199546 151.021635 
L 188.278781 159.162311 
L 189.096186 159.162311 
L 189.193536 151.021635 
L 189.376308 151.021635 
L 189.378104 159.162311 
L 189.484589 151.021635 
L 189.619677 151.021635 
L 189.742197 142.880959 
L 190.100106 142.880959 
L 190.209571 151.021635 
L 190.21329 142.880959 
L 190.24011 159.162311 
L 190.314104 159.162311 
L 190.340358 159.162311 
L 190.401226 167.302987 
L 190.443877 159.162311 
L 190.483614 159.162311 
L 190.567034 167.302987 
L 190.628738 167.302987 
L 190.76784 151.021635 
L 190.902269 151.021635 
L 190.939638 159.162311 
L 191.008514 151.021635 
L 191.136613 151.021635 
L 191.153777 159.162311 
L 191.241049 151.021635 
L 191.256711 151.021635 
L 191.290858 134.740283 
L 191.39511 134.740283 
L 191.485176 142.880959 
L 191.70566 142.880959 
L 191.804457 159.162311 
L 191.864597 159.162311 
L 191.959167 167.302987 
L 191.98662 167.302987 
L 192.118725 151.021635 
L 192.153149 151.021635 
L 192.267303 167.302987 
L 192.515192 167.302987 
L 192.627803 183.584339 
L 192.747806 183.584339 
L 192.850389 191.725015 
L 193.875045 191.725015 
L 194.01792 183.584339 
L 194.729856 183.584339 
L 194.944152 191.725015 
L 195.819253 191.725015 
L 196.043232 183.584339 
L 196.863601 183.584339 
L 196.873612 175.443663 
L 197.330686 175.443663 
L 197.413202 167.302987 
L 197.428159 175.443663 
L 197.6082 175.443663 
L 197.664975 183.584339 
L 198.214208 183.584339 
L 198.293886 175.443663 
L 198.32021 183.584339 
L 198.472045 175.443663 
L 198.549932 183.584339 
L 198.661228 175.443663 
L 198.748188 175.443663 
L 198.811157 167.302987 
L 199.050992 183.584339 
L 199.063708 175.443663 
L 199.179137 151.021635 
L 199.344559 151.021635 
L 199.379177 159.162311 
L 199.392209 151.021635 
L 199.562553 142.880959 
L 199.766676 142.880959 
L 199.888268 159.162311 
L 199.985933 151.021635 
L 200.088263 151.021635 
L 200.198292 175.443663 
L 200.444049 175.443663 
L 200.565286 183.584339 
L 200.681505 167.302987 
L 201.012667 167.302987 
L 201.133512 159.162311 
L 201.344218 159.162311 
L 201.455646 175.443663 
L 201.547606 183.584339 
L 201.654821 175.443663 
L 201.89419 175.443663 
L 202.060969 191.725015 
L 202.354376 191.725015 
L 202.39859 183.584339 
L 202.526077 183.584339 
L 202.694958 191.725015 
L 202.826175 183.584339 
L 203.195352 183.584339 
L 203.242247 191.725015 
L 203.44897 191.725015 
L 203.579503 167.302987 
L 203.697971 175.443663 
L 203.919701 175.443663 
L 204.003257 167.302987 
L 204.212578 167.302987 
L 204.251467 142.880959 
L 204.362732 151.021635 
L 204.445414 142.880959 
L 204.460874 151.021635 
L 204.485695 151.021635 
L 204.592296 142.880959 
L 204.605372 142.880959 
L 204.670374 151.021635 
L 204.710385 142.880959 
L 204.857378 159.162311 
L 204.902898 159.162311 
L 204.985738 167.302987 
L 205.187803 167.302987 
L 205.290494 159.162311 
L 205.41983 167.302987 
L 205.491238 167.302987 
L 205.61189 151.021635 
L 205.856845 142.880959 
L 205.906895 142.880959 
L 206.015795 126.599607 
L 206.055667 126.599607 
L 206.157704 159.162311 
L 206.261163 151.021635 
L 206.365372 159.162311 
L 206.469266 167.302987 
L 206.648587 167.302987 
L 206.668051 175.443663 
L 206.715656 159.162311 
L 206.854011 167.302987 
L 207.000425 167.302987 
L 207.10467 175.443663 
L 207.307794 175.443663 
L 207.450259 183.584339 
L 207.614082 183.584339 
L 207.67226 175.443663 
L 207.694992 183.584339 
L 207.745006 183.584339 
L 207.878368 167.302987 
L 207.918917 175.443663 
L 207.963818 183.584339 
L 207.97778 167.302987 
L 208.077857 175.443663 
L 208.311247 183.584339 
L 208.319898 191.725015 
L 208.588851 191.725015 
L 208.782519 183.584339 
L 208.995124 183.584339 
L 209.154572 191.725015 
L 220.009373 191.725015 
L 220.347601 183.584339 
L 220.391036 191.725015 
L 228.315443 191.725015 
L 228.767519 183.584339 
L 228.917279 183.584339 
L 229.098455 191.725015 
L 236.142379 191.725015 
L 236.512224 183.584339 
L 236.616003 191.725015 
L 242.147596 191.725015 
L 242.185361 183.584339 
L 242.423793 175.443663 
L 242.613241 183.584339 
L 242.948522 183.584339 
L 243.583909 191.725015 
L 247.908417 191.725015 
L 248.182788 183.584339 
L 248.298258 175.443663 
L 248.468677 191.725015 
L 249.97904 191.725015 
L 250.095178 183.584339 
L 250.26619 191.725015 
L 250.506269 183.584339 
L 250.66852 183.584339 
L 250.693867 191.725015 
L 250.880723 191.725015 
L 250.925899 183.584339 
L 251.20566 183.584339 
L 251.234589 191.725015 
L 251.739909 183.584339 
L 252.773608 183.584339 
L 252.825995 191.725015 
L 252.845952 183.584339 
L 252.9013 183.584339 
L 252.970344 175.443663 
L 253.000664 183.584339 
L 256.105584 183.584339 
L 256.458966 191.725015 
L 258.48957 191.725015 
L 258.678382 183.584339 
L 258.800557 191.725015 
L 269.308972 191.725015 
L 269.459316 183.584339 
L 269.684936 191.725015 
L 285.069179 191.725015 
L 285.397442 183.584339 
L 285.532152 183.584339 
L 285.570542 191.725015 
L 285.752231 183.584339 
L 286.286443 183.584339 
L 286.454293 175.443663 
L 286.534515 183.584339 
L 286.838064 183.584339 
L 287.00198 191.725015 
L 289.125066 191.725015 
L 289.436942 183.584339 
L 290.006381 183.584339 
L 290.337837 191.725015 
L 302.11937 191.725015 
L 302.300002 183.584339 
L 302.383696 167.302987 
L 302.551866 167.302987 
L 302.672751 175.443663 
L 303.548613 191.725015 
L 304.80498 191.725015 
L 305.111553 183.584339 
L 305.25839 183.584339 
L 305.343705 191.725015 
L 312.40778 191.725015 
L 312.40778 191.725015 
" clip-path="url(#pf3dc6f82d5)" style="fill: none; stroke: #000000; stroke-width: 1.5; stroke-linecap: square"/>
   </g>
   <g id="patch_8">
    <path d="M 43.78125 195.795353 
L 43.78125 106.247917 
" style="fill: none; stroke: #000000; stroke-width: 0.8; stroke-linejoin: miter; stroke-linecap: square"/>
   </g>
   <g id="patch_9">
    <path d="M 325.19952 195.795353 
L 325.19952 106.247917 
" style="fill: none; stroke: #000000; stroke-width: 0.8; stroke-linejoin: miter; stroke-linecap: square"/>
   </g>
   <g id="patch_10">
    <path d="M 43.78125 195.795353 
L 325.19952 195.795353 
" style="fill: none; stroke: #000000; stroke-width: 0.8; stroke-linejoin: miter; stroke-linecap: square"/>
   </g>
   <g id="patch_11">
    <path d="M 43.78125 106.247917 
L 325.19952 106.247917 
" style="fill: none; stroke: #000000; stroke-width: 0.8; stroke-linejoin: miter; stroke-linecap: square"/>
   </g>
  </g>
  <g id="axes_3">
   <g id="patch_12">
    <path d="M 43.78125 294.84327 
L 325.19952 294.84327 
L 325.19952 205.295833 
L 43.78125 205.295833 
z
" style="fill: #ffffff"/>
   </g>
   <g id="matplotlib.axis_5">
    <g id="xtick_19">
     <g id="line2d_27">
      <g>
       <use xlink:href="#m2509396536" x="56.57299" y="294.84327" style="stroke: #000000; stroke-width: 0.8"/>
      </g>
     </g>
     <g id="text_9">
      <!-- 0 -->
      <g transform="translate(53.39174 309.441707) scale(0.1 -0.1)">
       <use xlink:href="#DejaVuSans-30"/>
      </g>
     </g>
    </g>
    <g id="xtick_20">
     <g id="line2d_28">
      <g>
       <use xlink:href="#m2509396536" x="88.548335" y="294.84327" style="stroke: #000000; stroke-width: 0.8"/>
      </g>
     </g>
     <g id="text_10">
      <!-- 100 -->
      <g transform="translate(79.004585 309.441707) scale(0.1 -0.1)">
       <use xlink:href="#DejaVuSans-31"/>
       <use xlink:href="#DejaVuSans-30" transform="translate(63.623047 0)"/>
       <use xlink:href="#DejaVuSans-30" transform="translate(127.246094 0)"/>
      </g>
     </g>
    </g>
    <g id="xtick_21">
     <g id="line2d_29">
      <g>
       <use xlink:href="#m2509396536" x="120.523681" y="294.84327" style="stroke: #000000; stroke-width: 0.8"/>
      </g>
     </g>
     <g id="text_11">
      <!-- 200 -->
      <g transform="translate(110.979931 309.441707) scale(0.1 -0.1)">
       <defs>
        <path id="DejaVuSans-32" d="M 1228 531 
L 3431 531 
L 3431 0 
L 469 0 
L 469 531 
Q 828 903 1448 1529 
Q 2069 2156 2228 2338 
Q 2531 2678 2651 2914 
Q 2772 3150 2772 3378 
Q 2772 3750 2511 3984 
Q 2250 4219 1831 4219 
Q 1534 4219 1204 4116 
Q 875 4013 500 3803 
L 500 4441 
Q 881 4594 1212 4672 
Q 1544 4750 1819 4750 
Q 2544 4750 2975 4387 
Q 3406 4025 3406 3419 
Q 3406 3131 3298 2873 
Q 3191 2616 2906 2266 
Q 2828 2175 2409 1742 
Q 1991 1309 1228 531 
z
" transform="scale(0.015625)"/>
       </defs>
       <use xlink:href="#DejaVuSans-32"/>
       <use xlink:href="#DejaVuSans-30" transform="translate(63.623047 0)"/>
       <use xlink:href="#DejaVuSans-30" transform="translate(127.246094 0)"/>
      </g>
     </g>
    </g>
    <g id="xtick_22">
     <g id="line2d_30">
      <g>
       <use xlink:href="#m2509396536" x="152.499027" y="294.84327" style="stroke: #000000; stroke-width: 0.8"/>
      </g>
     </g>
     <g id="text_12">
      <!-- 300 -->
      <g transform="translate(142.955277 309.441707) scale(0.1 -0.1)">
       <defs>
        <path id="DejaVuSans-33" d="M 2597 2516 
Q 3050 2419 3304 2112 
Q 3559 1806 3559 1356 
Q 3559 666 3084 287 
Q 2609 -91 1734 -91 
Q 1441 -91 1130 -33 
Q 819 25 488 141 
L 488 750 
Q 750 597 1062 519 
Q 1375 441 1716 441 
Q 2309 441 2620 675 
Q 2931 909 2931 1356 
Q 2931 1769 2642 2001 
Q 2353 2234 1838 2234 
L 1294 2234 
L 1294 2753 
L 1863 2753 
Q 2328 2753 2575 2939 
Q 2822 3125 2822 3475 
Q 2822 3834 2567 4026 
Q 2313 4219 1838 4219 
Q 1578 4219 1281 4162 
Q 984 4106 628 3988 
L 628 4550 
Q 988 4650 1302 4700 
Q 1616 4750 1894 4750 
Q 2613 4750 3031 4423 
Q 3450 4097 3450 3541 
Q 3450 3153 3228 2886 
Q 3006 2619 2597 2516 
z
" transform="scale(0.015625)"/>
       </defs>
       <use xlink:href="#DejaVuSans-33"/>
       <use xlink:href="#DejaVuSans-30" transform="translate(63.623047 0)"/>
       <use xlink:href="#DejaVuSans-30" transform="translate(127.246094 0)"/>
      </g>
     </g>
    </g>
    <g id="xtick_23">
     <g id="line2d_31">
      <g>
       <use xlink:href="#m2509396536" x="184.474373" y="294.84327" style="stroke: #000000; stroke-width: 0.8"/>
      </g>
     </g>
     <g id="text_13">
      <!-- 400 -->
      <g transform="translate(174.930623 309.441707) scale(0.1 -0.1)">
       <defs>
        <path id="DejaVuSans-34" d="M 2419 4116 
L 825 1625 
L 2419 1625 
L 2419 4116 
z
M 2253 4666 
L 3047 4666 
L 3047 1625 
L 3713 1625 
L 3713 1100 
L 3047 1100 
L 3047 0 
L 2419 0 
L 2419 1100 
L 313 1100 
L 313 1709 
L 2253 4666 
z
" transform="scale(0.015625)"/>
       </defs>
       <use xlink:href="#DejaVuSans-34"/>
       <use xlink:href="#DejaVuSans-30" transform="translate(63.623047 0)"/>
       <use xlink:href="#DejaVuSans-30" transform="translate(127.246094 0)"/>
      </g>
     </g>
    </g>
    <g id="xtick_24">
     <g id="line2d_32">
      <g>
       <use xlink:href="#m2509396536" x="216.449719" y="294.84327" style="stroke: #000000; stroke-width: 0.8"/>
      </g>
     </g>
     <g id="text_14">
      <!-- 500 -->
      <g transform="translate(206.905969 309.441707) scale(0.1 -0.1)">
       <use xlink:href="#DejaVuSans-35"/>
       <use xlink:href="#DejaVuSans-30" transform="translate(63.623047 0)"/>
       <use xlink:href="#DejaVuSans-30" transform="translate(127.246094 0)"/>
      </g>
     </g>
    </g>
    <g id="xtick_25">
     <g id="line2d_33">
      <g>
       <use xlink:href="#m2509396536" x="248.425064" y="294.84327" style="stroke: #000000; stroke-width: 0.8"/>
      </g>
     </g>
     <g id="text_15">
      <!-- 600 -->
      <g transform="translate(238.881314 309.441707) scale(0.1 -0.1)">
       <defs>
        <path id="DejaVuSans-36" d="M 2113 2584 
Q 1688 2584 1439 2293 
Q 1191 2003 1191 1497 
Q 1191 994 1439 701 
Q 1688 409 2113 409 
Q 2538 409 2786 701 
Q 3034 994 3034 1497 
Q 3034 2003 2786 2293 
Q 2538 2584 2113 2584 
z
M 3366 4563 
L 3366 3988 
Q 3128 4100 2886 4159 
Q 2644 4219 2406 4219 
Q 1781 4219 1451 3797 
Q 1122 3375 1075 2522 
Q 1259 2794 1537 2939 
Q 1816 3084 2150 3084 
Q 2853 3084 3261 2657 
Q 3669 2231 3669 1497 
Q 3669 778 3244 343 
Q 2819 -91 2113 -91 
Q 1303 -91 875 529 
Q 447 1150 447 2328 
Q 447 3434 972 4092 
Q 1497 4750 2381 4750 
Q 2619 4750 2861 4703 
Q 3103 4656 3366 4563 
z
" transform="scale(0.015625)"/>
       </defs>
       <use xlink:href="#DejaVuSans-36"/>
       <use xlink:href="#DejaVuSans-30" transform="translate(63.623047 0)"/>
       <use xlink:href="#DejaVuSans-30" transform="translate(127.246094 0)"/>
      </g>
     </g>
    </g>
    <g id="xtick_26">
     <g id="line2d_34">
      <g>
       <use xlink:href="#m2509396536" x="280.40041" y="294.84327" style="stroke: #000000; stroke-width: 0.8"/>
      </g>
     </g>
     <g id="text_16">
      <!-- 700 -->
      <g transform="translate(270.85666 309.441707) scale(0.1 -0.1)">
       <defs>
        <path id="DejaVuSans-37" d="M 525 4666 
L 3525 4666 
L 3525 4397 
L 1831 0 
L 1172 0 
L 2766 4134 
L 525 4134 
L 525 4666 
z
" transform="scale(0.015625)"/>
       </defs>
       <use xlink:href="#DejaVuSans-37"/>
       <use xlink:href="#DejaVuSans-30" transform="translate(63.623047 0)"/>
       <use xlink:href="#DejaVuSans-30" transform="translate(127.246094 0)"/>
      </g>
     </g>
    </g>
    <g id="xtick_27">
     <g id="line2d_35">
      <g>
       <use xlink:href="#m2509396536" x="312.375756" y="294.84327" style="stroke: #000000; stroke-width: 0.8"/>
      </g>
     </g>
     <g id="text_17">
      <!-- 800 -->
      <g transform="translate(302.832006 309.441707) scale(0.1 -0.1)">
       <defs>
        <path id="DejaVuSans-38" d="M 2034 2216 
Q 1584 2216 1326 1975 
Q 1069 1734 1069 1313 
Q 1069 891 1326 650 
Q 1584 409 2034 409 
Q 2484 409 2743 651 
Q 3003 894 3003 1313 
Q 3003 1734 2745 1975 
Q 2488 2216 2034 2216 
z
M 1403 2484 
Q 997 2584 770 2862 
Q 544 3141 544 3541 
Q 544 4100 942 4425 
Q 1341 4750 2034 4750 
Q 2731 4750 3128 4425 
Q 3525 4100 3525 3541 
Q 3525 3141 3298 2862 
Q 3072 2584 2669 2484 
Q 3125 2378 3379 2068 
Q 3634 1759 3634 1313 
Q 3634 634 3220 271 
Q 2806 -91 2034 -91 
Q 1263 -91 848 271 
Q 434 634 434 1313 
Q 434 1759 690 2068 
Q 947 2378 1403 2484 
z
M 1172 3481 
Q 1172 3119 1398 2916 
Q 1625 2713 2034 2713 
Q 2441 2713 2670 2916 
Q 2900 3119 2900 3481 
Q 2900 3844 2670 4047 
Q 2441 4250 2034 4250 
Q 1625 4250 1398 4047 
Q 1172 3844 1172 3481 
z
" transform="scale(0.015625)"/>
       </defs>
       <use xlink:href="#DejaVuSans-38"/>
       <use xlink:href="#DejaVuSans-30" transform="translate(63.623047 0)"/>
       <use xlink:href="#DejaVuSans-30" transform="translate(127.246094 0)"/>
      </g>
     </g>
    </g>
    <g id="text_18">
     <!-- Time -->
     <g transform="translate(172.256791 323.119832) scale(0.1 -0.1)">
      <defs>
       <path id="DejaVuSans-54" d="M -19 4666 
L 3928 4666 
L 3928 4134 
L 2272 4134 
L 2272 0 
L 1638 0 
L 1638 4134 
L -19 4134 
L -19 4666 
z
" transform="scale(0.015625)"/>
       <path id="DejaVuSans-69" d="M 603 3500 
L 1178 3500 
L 1178 0 
L 603 0 
L 603 3500 
z
M 603 4863 
L 1178 4863 
L 1178 4134 
L 603 4134 
L 603 4863 
z
" transform="scale(0.015625)"/>
       <path id="DejaVuSans-6d" d="M 3328 2828 
Q 3544 3216 3844 3400 
Q 4144 3584 4550 3584 
Q 5097 3584 5394 3201 
Q 5691 2819 5691 2113 
L 5691 0 
L 5113 0 
L 5113 2094 
Q 5113 2597 4934 2840 
Q 4756 3084 4391 3084 
Q 3944 3084 3684 2787 
Q 3425 2491 3425 1978 
L 3425 0 
L 2847 0 
L 2847 2094 
Q 2847 2600 2669 2842 
Q 2491 3084 2119 3084 
Q 1678 3084 1418 2786 
Q 1159 2488 1159 1978 
L 1159 0 
L 581 0 
L 581 3500 
L 1159 3500 
L 1159 2956 
Q 1356 3278 1631 3431 
Q 1906 3584 2284 3584 
Q 2666 3584 2933 3390 
Q 3200 3197 3328 2828 
z
" transform="scale(0.015625)"/>
      </defs>
      <use xlink:href="#DejaVuSans-54"/>
      <use xlink:href="#DejaVuSans-69" transform="translate(57.958984 0)"/>
      <use xlink:href="#DejaVuSans-6d" transform="translate(85.742188 0)"/>
      <use xlink:href="#DejaVuSans-65" transform="translate(183.154297 0)"/>
     </g>
    </g>
   </g>
   <g id="matplotlib.axis_6">
    <g id="ytick_7">
     <g id="line2d_36">
      <g>
       <use xlink:href="#mb5716e15d8" x="43.78125" y="290.772932" style="stroke: #000000; stroke-width: 0.8"/>
      </g>
     </g>
     <g id="text_19">
      <!-- 0.0 -->
      <g transform="translate(20.878125 294.572151) scale(0.1 -0.1)">
       <defs>
        <path id="DejaVuSans-2e" d="M 684 794 
L 1344 794 
L 1344 0 
L 684 0 
L 684 794 
z
" transform="scale(0.015625)"/>
       </defs>
       <use xlink:href="#DejaVuSans-30"/>
       <use xlink:href="#DejaVuSans-2e" transform="translate(63.623047 0)"/>
       <use xlink:href="#DejaVuSans-30" transform="translate(95.410156 0)"/>
      </g>
     </g>
    </g>
    <g id="ytick_8">
     <g id="line2d_37">
      <g>
       <use xlink:href="#mb5716e15d8" x="43.78125" y="250.069552" style="stroke: #000000; stroke-width: 0.8"/>
      </g>
     </g>
     <g id="text_20">
      <!-- 0.5 -->
      <g transform="translate(20.878125 253.86877) scale(0.1 -0.1)">
       <use xlink:href="#DejaVuSans-30"/>
       <use xlink:href="#DejaVuSans-2e" transform="translate(63.623047 0)"/>
       <use xlink:href="#DejaVuSans-35" transform="translate(95.410156 0)"/>
      </g>
     </g>
    </g>
    <g id="ytick_9">
     <g id="line2d_38">
      <g>
       <use xlink:href="#mb5716e15d8" x="43.78125" y="209.366171" style="stroke: #000000; stroke-width: 0.8"/>
      </g>
     </g>
     <g id="text_21">
      <!-- 1.0 -->
      <g transform="translate(20.878125 213.16539) scale(0.1 -0.1)">
       <use xlink:href="#DejaVuSans-31"/>
       <use xlink:href="#DejaVuSans-2e" transform="translate(63.623047 0)"/>
       <use xlink:href="#DejaVuSans-30" transform="translate(95.410156 0)"/>
      </g>
     </g>
    </g>
    <g id="text_22">
     <!-- Free lac operon -->
     <g transform="translate(14.798438 288.540645) rotate(-90) scale(0.1 -0.1)">
      <defs>
       <path id="DejaVuSans-46" d="M 628 4666 
L 3309 4666 
L 3309 4134 
L 1259 4134 
L 1259 2759 
L 3109 2759 
L 3109 2228 
L 1259 2228 
L 1259 0 
L 628 0 
L 628 4666 
z
" transform="scale(0.015625)"/>
       <path id="DejaVuSans-70" d="M 1159 525 
L 1159 -1331 
L 581 -1331 
L 581 3500 
L 1159 3500 
L 1159 2969 
Q 1341 3281 1617 3432 
Q 1894 3584 2278 3584 
Q 2916 3584 3314 3078 
Q 3713 2572 3713 1747 
Q 3713 922 3314 415 
Q 2916 -91 2278 -91 
Q 1894 -91 1617 61 
Q 1341 213 1159 525 
z
M 3116 1747 
Q 3116 2381 2855 2742 
Q 2594 3103 2138 3103 
Q 1681 3103 1420 2742 
Q 1159 2381 1159 1747 
Q 1159 1113 1420 752 
Q 1681 391 2138 391 
Q 2594 391 2855 752 
Q 3116 1113 3116 1747 
z
" transform="scale(0.015625)"/>
       <path id="DejaVuSans-6e" d="M 3513 2113 
L 3513 0 
L 2938 0 
L 2938 2094 
Q 2938 2591 2744 2837 
Q 2550 3084 2163 3084 
Q 1697 3084 1428 2787 
Q 1159 2491 1159 1978 
L 1159 0 
L 581 0 
L 581 3500 
L 1159 3500 
L 1159 2956 
Q 1366 3272 1645 3428 
Q 1925 3584 2291 3584 
Q 2894 3584 3203 3211 
Q 3513 2838 3513 2113 
z
" transform="scale(0.015625)"/>
      </defs>
      <use xlink:href="#DejaVuSans-46"/>
      <use xlink:href="#DejaVuSans-72" transform="translate(50.269531 0)"/>
      <use xlink:href="#DejaVuSans-65" transform="translate(89.132812 0)"/>
      <use xlink:href="#DejaVuSans-65" transform="translate(150.65625 0)"/>
      <use xlink:href="#DejaVuSans-20" transform="translate(212.179688 0)"/>
      <use xlink:href="#DejaVuSans-6c" transform="translate(243.966797 0)"/>
      <use xlink:href="#DejaVuSans-61" transform="translate(271.75 0)"/>
      <use xlink:href="#DejaVuSans-63" transform="translate(333.029297 0)"/>
      <use xlink:href="#DejaVuSans-20" transform="translate(388.009766 0)"/>
      <use xlink:href="#DejaVuSans-6f" transform="translate(419.796875 0)"/>
      <use xlink:href="#DejaVuSans-70" transform="translate(480.978516 0)"/>
      <use xlink:href="#DejaVuSans-65" transform="translate(544.455078 0)"/>
      <use xlink:href="#DejaVuSans-72" transform="translate(605.978516 0)"/>
      <use xlink:href="#DejaVuSans-6f" transform="translate(644.841797 0)"/>
      <use xlink:href="#DejaVuSans-6e" transform="translate(706.023438 0)"/>
     </g>
    </g>
   </g>
   <g id="line2d_39">
    <path d="M 56.57299 209.366171 
L 56.654771 290.772932 
L 56.82361 290.772932 
L 56.993746 209.366171 
L 57.1123 209.366171 
L 57.214766 290.772932 
L 58.435029 290.772932 
L 59.428117 209.366171 
L 59.61507 209.366171 
L 59.637889 290.772932 
L 62.067273 290.772932 
L 64.670296 209.366171 
L 64.966159 209.366171 
L 65.104054 290.772932 
L 65.230339 290.772932 
L 71.914602 209.366171 
L 72.084948 290.772932 
L 79.95023 209.366171 
L 79.999427 290.772932 
L 82.634499 209.366171 
L 82.774947 209.366171 
L 82.829287 290.772932 
L 84.575322 290.772932 
L 84.640969 209.366171 
L 85.520129 209.366171 
L 85.710728 290.772932 
L 86.74695 290.772932 
L 89.749344 209.366171 
L 90.291116 209.366171 
L 90.320491 290.772932 
L 90.679569 290.772932 
L 91.563845 209.366171 
L 91.622483 290.772932 
L 91.967449 290.772932 
L 109.09813 209.366171 
L 109.111877 290.772932 
L 109.371186 290.772932 
L 109.648216 209.366171 
L 109.936508 290.772932 
L 110.064996 209.366171 
L 110.474076 209.366171 
L 110.679326 290.772932 
L 110.972922 290.772932 
L 115.148635 209.366171 
L 115.811411 290.772932 
L 117.458794 209.366171 
L 117.775051 290.772932 
L 118.449663 209.366171 
L 118.537272 290.772932 
L 119.549916 209.366171 
L 119.635102 290.772932 
L 123.590756 290.772932 
L 129.629181 209.366171 
L 129.735472 290.772932 
L 131.483411 209.366171 
L 131.935669 209.366171 
L 131.95718 290.772932 
L 133.803455 290.772932 
L 136.407538 209.366171 
L 136.420888 290.772932 
L 139.311315 209.366171 
L 139.354185 290.772932 
L 146.420386 209.366171 
L 147.36778 209.366171 
L 147.436315 290.772932 
L 148.054744 290.772932 
L 148.300574 209.366171 
L 148.616476 209.366171 
L 148.729588 290.772932 
L 149.803675 290.772932 
L 150.316767 209.366171 
L 150.417847 290.772932 
L 151.542583 290.772932 
L 151.553941 209.366171 
L 151.716002 290.772932 
L 156.038491 209.366171 
L 156.127713 290.772932 
L 156.377841 209.366171 
L 209.136073 209.366171 
L 209.154572 290.772932 
L 210.212439 290.772932 
L 212.418438 209.366171 
L 212.475136 290.772932 
L 212.782993 290.772932 
L 214.633989 209.366171 
L 214.776332 290.772932 
L 216.277676 209.366171 
L 216.338512 290.772932 
L 220.009373 209.366171 
L 220.391036 209.366171 
L 220.611335 290.772932 
L 222.426128 290.772932 
L 228.315443 209.366171 
L 228.767519 209.366171 
L 228.917279 290.772932 
L 230.794037 290.772932 
L 236.142379 209.366171 
L 236.568826 209.366171 
L 236.616003 290.772932 
L 242.185361 209.366171 
L 242.5696 209.366171 
L 242.613241 290.772932 
L 243.867778 290.772932 
L 247.908417 209.366171 
L 248.468677 209.366171 
L 248.548584 290.772932 
L 249.078669 290.772932 
L 249.546434 209.366171 
L 249.704657 290.772932 
L 249.97904 209.366171 
L 251.739909 209.366171 
L 252.155768 290.772932 
L 252.666555 290.772932 
L 252.845952 209.366171 
L 253.000664 209.366171 
L 253.174681 290.772932 
L 256.458966 290.772932 
L 257.934502 209.366171 
L 258.032474 290.772932 
L 258.48957 209.366171 
L 258.800557 209.366171 
L 258.970948 290.772932 
L 259.024309 209.366171 
L 259.076078 290.772932 
L 260.348927 290.772932 
L 269.308972 209.366171 
L 269.454761 209.366171 
L 269.459316 290.772932 
L 269.952477 290.772932 
L 280.964235 209.366171 
L 281.103114 290.772932 
L 283.343526 209.366171 
L 283.679729 290.772932 
L 284.900309 209.366171 
L 284.924756 290.772932 
L 285.069179 209.366171 
L 286.41055 209.366171 
L 286.4149 290.772932 
L 286.478267 209.366171 
L 286.534515 209.366171 
L 286.838064 290.772932 
L 287.00198 290.772932 
L 289.125066 209.366171 
L 289.423996 209.366171 
L 289.436942 290.772932 
L 290.337837 290.772932 
L 301.72851 209.366171 
L 301.863734 290.772932 
L 302.11937 209.366171 
L 302.433323 209.366171 
L 302.551866 290.772932 
L 303.548613 290.772932 
L 304.80498 209.366171 
L 305.01689 209.366171 
L 305.111553 290.772932 
L 305.266919 209.366171 
L 305.343705 290.772932 
L 305.970511 209.366171 
L 306.291273 290.772932 
L 312.40778 209.366171 
L 312.40778 209.366171 
" clip-path="url(#p93b281531a)" style="fill: none; stroke: #000000; stroke-width: 1.5; stroke-linecap: square"/>
   </g>
   <g id="patch_13">
    <path d="M 43.78125 294.84327 
L 43.78125 205.295833 
" style="fill: none; stroke: #000000; stroke-width: 0.8; stroke-linejoin: miter; stroke-linecap: square"/>
   </g>
   <g id="patch_14">
    <path d="M 325.19952 294.84327 
L 325.19952 205.295833 
" style="fill: none; stroke: #000000; stroke-width: 0.8; stroke-linejoin: miter; stroke-linecap: square"/>
   </g>
   <g id="patch_15">
    <path d="M 43.78125 294.84327 
L 325.19952 294.84327 
" style="fill: none; stroke: #000000; stroke-width: 0.8; stroke-linejoin: miter; stroke-linecap: square"/>
   </g>
   <g id="patch_16">
    <path d="M 43.78125 205.295833 
L 325.19952 205.295833 
" style="fill: none; stroke: #000000; stroke-width: 0.8; stroke-linejoin: miter; stroke-linecap: square"/>
   </g>
  </g>
 </g>
 <defs>
  <clipPath id="p3acb720b27">
   <rect x="43.78125" y="7.2" width="281.41827" height="89.547437"/>
  </clipPath>
  <clipPath id="pf3dc6f82d5">
   <rect x="43.78125" y="106.247917" width="281.41827" height="89.547437"/>
  </clipPath>
  <clipPath id="p93b281531a">
   <rect x="43.78125" y="205.295833" width="281.41827" height="89.547437"/>
  </clipPath>
 </defs>
</svg>
