<?xml version="1.0" encoding="utf-8" standalone="no"?>
<!DOCTYPE svg PUBLIC "-//W3C//DTD SVG 1.1//EN"
  "http://www.w3.org/Graphics/SVG/1.1/DTD/svg11.dtd">
<svg xmlns:xlink="http://www.w3.org/1999/xlink" width="332.39952pt" height="332.39952pt" viewBox="0 0 332.39952 332.39952" xmlns="http://www.w3.org/2000/svg" version="1.1">
 <metadata>
  <rdf:RDF xmlns:dc="http://purl.org/dc/elements/1.1/" xmlns:cc="http://creativecommons.org/ns#" xmlns:rdf="http://www.w3.org/1999/02/22-rdf-syntax-ns#">
   <cc:Work>
    <dc:type rdf:resource="http://purl.org/dc/dcmitype/StillImage"/>
    <dc:date>2026-05-14T16:41:50.136424</dc:date>
    <dc:format>image/svg+xml</dc:format>
    <dc:creator>
     <cc:Agent>
      <dc:title>Matplotlib v3.10.9, https://matplotlib.org/</dc:title>
     </cc:Agent>
    </dc:creator>
   </cc:Work>
  </rdf:RDF>
 </metadata>
 <defs>
  <style type="text/css">*{stroke-linejoin: round; stroke-linecap: butt}</style>
 </defs>
 <g id="figure_1">
  <g id="patch_1">
   <path d="M 0 332.39952 
L 332.39952 332.39952 
L 332.39952 0 
L 0 0 
z
" style="fill: #ffffff"/>
  </g>
  <g id="axes_1">
   <g id="patch_2">
    <path d="M 43.78125 96.747437 
L 325.19952 96.747437 
L 325.19952 7.2 
L 43.78125 7.2 
z
" style="fill: #ffffff"/>
   </g>
   <g id="matplotlib.axis_1">
    <g id="xtick_1">
     <g id="line2d_1">
      <defs>
       <path id="m438cc12e52" d="M 0 0 
L 0 3.5 
" style="stroke: #000000; stroke-width: 0.8"/>
      </defs>
      <g>
       <use xlink:href="#m438cc12e52" x="56.57299" y="96.747437" style="stroke: #000000; stroke-width: 0.8"/>
      </g>
     </g>
    </g>
    <g id="xtick_2">
     <g id="line2d_2">
      <g>
       <use xlink:href="#m438cc12e52" x="118.926728" y="96.747437" style="stroke: #000000; stroke-width: 0.8"/>
      </g>
     </g>
    </g>
    <g id="xtick_3">
     <g id="line2d_3">
      <g>
       <use xlink:href="#m438cc12e52" x="181.280467" y="96.747437" style="stroke: #000000; stroke-width: 0.8"/>
      </g>
     </g>
    </g>
    <g id="xtick_4">
     <g id="line2d_4">
      <g>
       <use xlink:href="#m438cc12e52" x="243.634205" y="96.747437" style="stroke: #000000; stroke-width: 0.8"/>
      </g>
     </g>
    </g>
    <g id="xtick_5">
     <g id="line2d_5">
      <g>
       <use xlink:href="#m438cc12e52" x="305.987944" y="96.747437" style="stroke: #000000; stroke-width: 0.8"/>
      </g>
     </g>
    </g>
   </g>
   <g id="matplotlib.axis_2">
    <g id="ytick_1">
     <g id="line2d_6">
      <defs>
       <path id="mbf17b6d75f" d="M 0 0 
L -3.5 0 
" style="stroke: #000000; stroke-width: 0.8"/>
      </defs>
      <g>
       <use xlink:href="#mbf17b6d75f" x="43.78125" y="92.677099" style="stroke: #000000; stroke-width: 0.8"/>
      </g>
     </g>
     <g id="text_1">
      <!-- 0 -->
      <g transform="translate(30.41875 96.476317) scale(0.1 -0.1)">
       <defs>
        <path id="DejaVuSans-30" d="M 2034 4250 
Q 1547 4250 1301 3770 
Q 1056 3291 1056 2328 
Q 1056 1369 1301 889 
Q 1547 409 2034 409 
Q 2525 409 2770 889 
Q 3016 1369 3016 2328 
Q 3016 3291 2770 3770 
Q 2525 4250 2034 4250 
z
M 2034 4750 
Q 2819 4750 3233 4129 
Q 3647 3509 3647 2328 
Q 3647 1150 3233 529 
Q 2819 -91 2034 -91 
Q 1250 -91 836 529 
Q 422 1150 422 2328 
Q 422 3509 836 4129 
Q 1250 4750 2034 4750 
z
" transform="scale(0.015625)"/>
       </defs>
       <use xlink:href="#DejaVuSans-30"/>
      </g>
     </g>
    </g>
    <g id="ytick_2">
     <g id="line2d_7">
      <g>
       <use xlink:href="#mbf17b6d75f" x="43.78125" y="51.973718" style="stroke: #000000; stroke-width: 0.8"/>
      </g>
     </g>
     <g id="text_2">
      <!-- 5 -->
      <g transform="translate(30.41875 55.772937) scale(0.1 -0.1)">
       <defs>
        <path id="DejaVuSans-35" d="M 691 4666 
L 3169 4666 
L 3169 4134 
L 1269 4134 
L 1269 2991 
Q 1406 3038 1543 3061 
Q 1681 3084 1819 3084 
Q 2600 3084 3056 2656 
Q 3513 2228 3513 1497 
Q 3513 744 3044 326 
Q 2575 -91 1722 -91 
Q 1428 -91 1123 -41 
Q 819 9 494 109 
L 494 744 
Q 775 591 1075 516 
Q 1375 441 1709 441 
Q 2250 441 2565 725 
Q 2881 1009 2881 1497 
Q 2881 1984 2565 2268 
Q 2250 2553 1709 2553 
Q 1456 2553 1204 2497 
Q 953 2441 691 2322 
L 691 4666 
z
" transform="scale(0.015625)"/>
       </defs>
       <use xlink:href="#DejaVuSans-35"/>
      </g>
     </g>
    </g>
    <g id="ytick_3">
     <g id="line2d_8">
      <g>
       <use xlink:href="#mbf17b6d75f" x="43.78125" y="11.270338" style="stroke: #000000; stroke-width: 0.8"/>
      </g>
     </g>
     <g id="text_3">
      <!-- 10 -->
      <g transform="translate(24.05625 15.069557) scale(0.1 -0.1)">
       <defs>
        <path id="DejaVuSans-31" d="M 794 531 
L 1825 531 
L 1825 4091 
L 703 3866 
L 703 4441 
L 1819 4666 
L 2450 4666 
L 2450 531 
L 3481 531 
L 3481 0 
L 794 0 
L 794 531 
z
" transform="scale(0.015625)"/>
       </defs>
       <use xlink:href="#DejaVuSans-31"/>
       <use xlink:href="#DejaVuSans-30" transform="translate(63.623047 0)"/>
      </g>
     </g>
    </g>
    <g id="text_4">
     <!-- Extracellular lactose -->
     <g transform="translate(17.976562 102.945593) rotate(-90) scale(0.1 -0.1)">
      <defs>
       <path id="DejaVuSans-45" d="M 628 4666 
L 3578 4666 
L 3578 4134 
L 1259 4134 
L 1259 2753 
L 3481 2753 
L 3481 2222 
L 1259 2222 
L 1259 531 
L 3634 531 
L 3634 0 
L 628 0 
L 628 4666 
z
" transform="scale(0.015625)"/>
       <path id="DejaVuSans-78" d="M 3513 3500 
L 2247 1797 
L 3578 0 
L 2900 0 
L 1881 1375 
L 863 0 
L 184 0 
L 1544 1831 
L 300 3500 
L 978 3500 
L 1906 2253 
L 2834 3500 
L 3513 3500 
z
" transform="scale(0.015625)"/>
       <path id="DejaVuSans-74" d="M 1172 4494 
L 1172 3500 
L 2356 3500 
L 2356 3053 
L 1172 3053 
L 1172 1153 
Q 1172 725 1289 603 
Q 1406 481 1766 481 
L 2356 481 
L 2356 0 
L 1766 0 
Q 1100 0 847 248 
Q 594 497 594 1153 
L 594 3053 
L 172 3053 
L 172 3500 
L 594 3500 
L 594 4494 
L 1172 4494 
z
" transform="scale(0.015625)"/>
       <path id="DejaVuSans-72" d="M 2631 2963 
Q 2534 3019 2420 3045 
Q 2306 3072 2169 3072 
Q 1681 3072 1420 2755 
Q 1159 2438 1159 1844 
L 1159 0 
L 581 0 
L 581 3500 
L 1159 3500 
L 1159 2956 
Q 1341 3275 1631 3429 
Q 1922 3584 2338 3584 
Q 2397 3584 2469 3576 
Q 2541 3569 2628 3553 
L 2631 2963 
z
" transform="scale(0.015625)"/>
       <path id="DejaVuSans-61" d="M 2194 1759 
Q 1497 1759 1228 1600 
Q 959 1441 959 1056 
Q 959 750 1161 570 
Q 1363 391 1709 391 
Q 2188 391 2477 730 
Q 2766 1069 2766 1631 
L 2766 1759 
L 2194 1759 
z
M 3341 1997 
L 3341 0 
L 2766 0 
L 2766 531 
Q 2569 213 2275 61 
Q 1981 -91 1556 -91 
Q 1019 -91 701 211 
Q 384 513 384 1019 
Q 384 1609 779 1909 
Q 1175 2209 1959 2209 
L 2766 2209 
L 2766 2266 
Q 2766 2663 2505 2880 
Q 2244 3097 1772 3097 
Q 1472 3097 1187 3025 
Q 903 2953 641 2809 
L 641 3341 
Q 956 3463 1253 3523 
Q 1550 3584 1831 3584 
Q 2591 3584 2966 3190 
Q 3341 2797 3341 1997 
z
" transform="scale(0.015625)"/>
       <path id="DejaVuSans-63" d="M 3122 3366 
L 3122 2828 
Q 2878 2963 2633 3030 
Q 2388 3097 2138 3097 
Q 1578 3097 1268 2742 
Q 959 2388 959 1747 
Q 959 1106 1268 751 
Q 1578 397 2138 397 
Q 2388 397 2633 464 
Q 2878 531 3122 666 
L 3122 134 
Q 2881 22 2623 -34 
Q 2366 -91 2075 -91 
Q 1284 -91 818 406 
Q 353 903 353 1747 
Q 353 2603 823 3093 
Q 1294 3584 2113 3584 
Q 2378 3584 2631 3529 
Q 2884 3475 3122 3366 
z
" transform="scale(0.015625)"/>
       <path id="DejaVuSans-65" d="M 3597 1894 
L 3597 1613 
L 953 1613 
Q 991 1019 1311 708 
Q 1631 397 2203 397 
Q 2534 397 2845 478 
Q 3156 559 3463 722 
L 3463 178 
Q 3153 47 2828 -22 
Q 2503 -91 2169 -91 
Q 1331 -91 842 396 
Q 353 884 353 1716 
Q 353 2575 817 3079 
Q 1281 3584 2069 3584 
Q 2775 3584 3186 3129 
Q 3597 2675 3597 1894 
z
M 3022 2063 
Q 3016 2534 2758 2815 
Q 2500 3097 2075 3097 
Q 1594 3097 1305 2825 
Q 1016 2553 972 2059 
L 3022 2063 
z
" transform="scale(0.015625)"/>
       <path id="DejaVuSans-6c" d="M 603 4863 
L 1178 4863 
L 1178 0 
L 603 0 
L 603 4863 
z
" transform="scale(0.015625)"/>
       <path id="DejaVuSans-75" d="M 544 1381 
L 544 3500 
L 1119 3500 
L 1119 1403 
Q 1119 906 1312 657 
Q 1506 409 1894 409 
Q 2359 409 2629 706 
Q 2900 1003 2900 1516 
L 2900 3500 
L 3475 3500 
L 3475 0 
L 2900 0 
L 2900 538 
Q 2691 219 2414 64 
Q 2138 -91 1772 -91 
Q 1169 -91 856 284 
Q 544 659 544 1381 
z
M 1991 3584 
L 1991 3584 
z
" transform="scale(0.015625)"/>
       <path id="DejaVuSans-20" transform="scale(0.015625)"/>
       <path id="DejaVuSans-6f" d="M 1959 3097 
Q 1497 3097 1228 2736 
Q 959 2375 959 1747 
Q 959 1119 1226 758 
Q 1494 397 1959 397 
Q 2419 397 2687 759 
Q 2956 1122 2956 1747 
Q 2956 2369 2687 2733 
Q 2419 3097 1959 3097 
z
M 1959 3584 
Q 2709 3584 3137 3096 
Q 3566 2609 3566 1747 
Q 3566 888 3137 398 
Q 2709 -91 1959 -91 
Q 1206 -91 779 398 
Q 353 888 353 1747 
Q 353 2609 779 3096 
Q 1206 3584 1959 3584 
z
" transform="scale(0.015625)"/>
       <path id="DejaVuSans-73" d="M 2834 3397 
L 2834 2853 
Q 2591 2978 2328 3040 
Q 2066 3103 1784 3103 
Q 1356 3103 1142 2972 
Q 928 2841 928 2578 
Q 928 2378 1081 2264 
Q 1234 2150 1697 2047 
L 1894 2003 
Q 2506 1872 2764 1633 
Q 3022 1394 3022 966 
Q 3022 478 2636 193 
Q 2250 -91 1575 -91 
Q 1294 -91 989 -36 
Q 684 19 347 128 
L 347 722 
Q 666 556 975 473 
Q 1284 391 1588 391 
Q 1994 391 2212 530 
Q 2431 669 2431 922 
Q 2431 1156 2273 1281 
Q 2116 1406 1581 1522 
L 1381 1569 
Q 847 1681 609 1914 
Q 372 2147 372 2553 
Q 372 3047 722 3315 
Q 1072 3584 1716 3584 
Q 2034 3584 2315 3537 
Q 2597 3491 2834 3397 
z
" transform="scale(0.015625)"/>
      </defs>
      <use xlink:href="#DejaVuSans-45"/>
      <use xlink:href="#DejaVuSans-78" transform="translate(63.183594 0)"/>
      <use xlink:href="#DejaVuSans-74" transform="translate(122.363281 0)"/>
      <use xlink:href="#DejaVuSans-72" transform="translate(161.572266 0)"/>
      <use xlink:href="#DejaVuSans-61" transform="translate(202.685547 0)"/>
      <use xlink:href="#DejaVuSans-63" transform="translate(263.964844 0)"/>
      <use xlink:href="#DejaVuSans-65" transform="translate(318.945312 0)"/>
      <use xlink:href="#DejaVuSans-6c" transform="translate(380.46875 0)"/>
      <use xlink:href="#DejaVuSans-6c" transform="translate(408.251953 0)"/>
      <use xlink:href="#DejaVuSans-75" transform="translate(436.035156 0)"/>
      <use xlink:href="#DejaVuSans-6c" transform="translate(499.414062 0)"/>
      <use xlink:href="#DejaVuSans-61" transform="translate(527.197266 0)"/>
      <use xlink:href="#DejaVuSans-72" transform="translate(588.476562 0)"/>
      <use xlink:href="#DejaVuSans-20" transform="translate(629.589844 0)"/>
      <use xlink:href="#DejaVuSans-6c" transform="translate(661.376953 0)"/>
      <use xlink:href="#DejaVuSans-61" transform="translate(689.160156 0)"/>
      <use xlink:href="#DejaVuSans-63" transform="translate(750.439453 0)"/>
      <use xlink:href="#DejaVuSans-74" transform="translate(805.419922 0)"/>
      <use xlink:href="#DejaVuSans-6f" transform="translate(844.628906 0)"/>
      <use xlink:href="#DejaVuSans-73" transform="translate(905.810547 0)"/>
      <use xlink:href="#DejaVuSans-65" transform="translate(957.910156 0)"/>
     </g>
    </g>
   </g>
   <g id="line2d_9">
    <path d="M 56.57299 92.677099 
L 153.809025 92.677099 
L 153.932454 11.270338 
L 154.071861 11.514558 
L 154.611248 14.363795 
L 155.051242 14.445202 
L 155.302478 14.770829 
L 155.400262 14.852235 
L 155.809722 14.933642 
L 156.426661 16.887405 
L 160.753451 16.968811 
L 160.778908 17.131625 
L 160.941649 17.294438 
L 161.998634 21.120556 
L 162.054599 21.201963 
L 162.174048 21.690403 
L 162.524629 23.318539 
L 162.865777 26.737623 
L 163.02462 28.284351 
L 163.053951 28.365758 
L 163.156736 28.854198 
L 163.204556 28.935605 
L 163.327467 29.505452 
L 163.357023 29.586859 
L 163.517651 30.0753 
L 163.790236 30.807961 
L 163.807071 30.889367 
L 163.938235 31.214994 
L 164.080762 31.296401 
L 164.161188 31.784842 
L 164.584375 32.680316 
L 164.756763 33.494384 
L 164.777698 33.57579 
L 164.887256 33.982824 
L 165.037764 34.064231 
L 165.175625 34.308451 
L 165.327935 34.715485 
L 165.462155 35.448146 
L 165.494525 35.529553 
L 165.65494 35.936586 
L 165.733362 36.017993 
L 165.880266 36.180807 
L 165.934702 36.262214 
L 166.012611 36.34362 
L 166.295334 36.425027 
L 166.431658 37.401908 
L 166.50555 37.483315 
L 166.61807 37.971756 
L 166.694469 38.053162 
L 166.912823 38.541603 
L 166.9657 38.62301 
L 167.079858 38.86723 
L 167.20596 38.948637 
L 167.384165 39.762704 
L 167.509332 40.169738 
L 167.529891 40.251145 
L 167.791615 41.553653 
L 167.886858 41.63506 
L 168.361426 42.693348 
L 168.912307 42.774754 
L 169.0832 43.181788 
L 169.210942 43.263195 
L 169.291189 43.507415 
L 169.403713 43.588822 
L 169.507461 44.077263 
L 170.427718 46.275245 
L 170.537748 46.438059 
L 170.591323 46.519465 
L 170.756579 47.577753 
L 170.823608 47.65916 
L 170.951797 48.310414 
L 171.298722 49.694329 
L 171.457983 49.775736 
L 171.562726 50.019956 
L 171.901493 50.752617 
L 172.088289 51.322464 
L 172.164819 51.403871 
L 172.297926 51.648091 
L 172.41557 51.729498 
L 172.514687 52.136532 
L 172.561009 52.217939 
L 172.680481 52.869193 
L 172.875608 53.357633 
L 172.990705 53.43904 
L 173.170489 53.764667 
L 173.281753 53.846074 
L 173.387185 54.334514 
L 173.4492 54.415921 
L 173.666777 54.904362 
L 173.842888 54.985768 
L 173.977519 55.229989 
L 174.11992 55.392802 
L 174.234167 55.474209 
L 174.43813 56.20687 
L 174.457909 56.288277 
L 174.575032 56.939531 
L 174.601072 57.020937 
L 174.804385 57.590785 
L 174.938678 57.997819 
L 175.019032 58.079225 
L 175.430124 59.544547 
L 175.475973 59.625954 
L 175.649889 60.277208 
L 175.67417 60.358615 
L 175.802741 61.091276 
L 176.015474 62.068157 
L 176.055524 62.149563 
L 176.772404 64.266139 
L 177.396519 64.347546 
L 177.502845 64.75458 
L 177.641619 64.835987 
L 177.7692 64.9988 
L 177.808268 65.080207 
L 178.079086 66.382715 
L 178.178287 66.464122 
L 178.291638 66.789749 
L 178.580151 66.871156 
L 179.4049 68.662104 
L 179.542589 69.476172 
L 179.832013 70.127426 
L 180.483658 70.208833 
L 180.619881 70.453053 
L 180.660998 70.53446 
L 180.852453 70.860087 
L 181.001947 70.941494 
L 181.084945 71.0229 
L 181.289932 71.348527 
L 181.510882 71.429934 
L 181.649574 71.511341 
L 181.724891 71.592748 
L 181.843915 71.836968 
L 182.518608 71.918375 
L 182.707274 72.244002 
L 182.754645 72.325408 
L 182.971876 72.813849 
L 183.062032 72.895256 
L 183.199917 73.220883 
L 183.520916 73.30229 
L 183.619106 73.627917 
L 183.925898 74.441984 
L 184.087177 74.523391 
L 184.179851 74.767611 
L 184.326802 74.849018 
L 185.25962 77.047001 
L 185.431603 77.128407 
L 185.666017 77.454034 
L 186.681557 77.535441 
L 186.786723 77.698255 
L 186.841887 77.779661 
L 186.941528 77.942475 
L 187.217642 78.023882 
L 187.322431 78.186695 
L 187.448268 78.268102 
L 187.489043 78.349509 
L 187.668885 78.593729 
L 187.710571 78.675136 
L 187.816038 78.756543 
L 188.282067 79.244983 
L 188.501687 79.32639 
L 188.635895 79.489203 
L 189.039409 79.57061 
L 189.117688 79.733424 
L 189.297979 79.81483 
L 189.419538 79.896237 
L 189.820734 80.466085 
L 190.113808 80.547491 
L 190.233872 80.873118 
L 190.244307 80.954525 
L 190.366499 81.035932 
L 190.485885 81.117339 
L 190.596211 81.280152 
L 190.857013 81.361559 
L 191.013236 81.768593 
L 191.164524 81.849999 
L 191.270386 81.931406 
L 191.430004 82.257033 
L 191.62712 82.33844 
L 192.156657 83.233914 
L 192.346641 83.315321 
L 192.56282 83.559541 
L 192.642558 83.640948 
L 192.744695 83.722355 
L 192.853565 83.803762 
L 192.930418 83.885168 
L 193.167856 83.966575 
L 193.306524 84.129389 
L 193.442957 84.210796 
L 193.599424 84.536423 
L 193.70947 84.86205 
L 194.106023 85.35049 
L 194.493308 85.431897 
L 194.604656 85.513304 
L 194.855682 85.59471 
L 194.975602 85.676117 
L 196.234043 85.757524 
L 196.256493 85.838931 
L 196.425147 85.920338 
L 196.643416 86.245965 
L 196.75024 86.652998 
L 196.802883 86.734405 
L 196.959858 86.815812 
L 197.550014 86.897219 
L 197.692857 87.060032 
L 198.047222 87.141439 
L 198.279728 87.222846 
L 198.763876 87.304252 
L 198.863847 87.385659 
L 199.575846 87.467066 
L 199.644016 87.629879 
L 207.962803 87.711286 
L 208.127275 87.8741 
L 208.759645 87.955507 
L 208.852595 88.11832 
L 210.967361 88.199727 
L 211.054494 88.281134 
L 212.285189 88.36254 
L 212.40866 88.525354 
L 214.458117 88.606761 
L 214.569485 88.688167 
L 215.122209 88.769574 
L 215.283858 89.013794 
L 216.046892 89.095201 
L 216.124933 89.176608 
L 217.021179 89.258015 
L 217.13438 89.420828 
L 218.412743 89.502235 
L 218.558831 89.665048 
L 218.792473 89.746455 
L 218.942647 89.909269 
L 220.730671 89.990676 
L 220.942023 90.234896 
L 221.699466 90.316303 
L 221.81866 90.397709 
L 226.690197 90.479116 
L 227.296337 90.560523 
L 230.368243 90.64193 
L 231.669276 90.967557 
L 232.105305 91.048963 
L 232.162604 91.13037 
L 244.656839 91.211777 
L 247.758597 91.37459 
L 273.983588 91.455997 
L 274.047598 91.537404 
L 294.474189 91.618811 
L 294.525689 91.700218 
L 297.371697 91.781624 
L 297.42331 91.863031 
L 312.40778 91.863031 
L 312.40778 91.863031 
" clip-path="url(#p478509c127)" style="fill: none; stroke: #000000; stroke-width: 1.5; stroke-linecap: square"/>
   </g>
   <g id="patch_3">
    <path d="M 43.78125 96.747437 
L 43.78125 7.2 
" style="fill: none; stroke: #000000; stroke-width: 0.8; stroke-linejoin: miter; stroke-linecap: square"/>
   </g>
   <g id="patch_4">
    <path d="M 325.19952 96.747437 
L 325.19952 7.2 
" style="fill: none; stroke: #000000; stroke-width: 0.8; stroke-linejoin: miter; stroke-linecap: square"/>
   </g>
   <g id="patch_5">
    <path d="M 43.78125 96.747437 
L 325.19952 96.747437 
" style="fill: none; stroke: #000000; stroke-width: 0.8; stroke-linejoin: miter; stroke-linecap: square"/>
   </g>
   <g id="patch_6">
    <path d="M 43.78125 7.2 
L 325.19952 7.2 
" style="fill: none; stroke: #000000; stroke-width: 0.8; stroke-linejoin: miter; stroke-linecap: square"/>
   </g>
  </g>
  <g id="axes_2">
   <g id="patch_7">
    <path d="M 43.78125 195.795353 
L 325.19952 195.795353 
L 325.19952 106.247917 
L 43.78125 106.247917 
z
" style="fill: #ffffff"/>
   </g>
   <g id="matplotlib.axis_3">
    <g id="xtick_6">
     <g id="line2d_10">
      <g>
       <use xlink:href="#m438cc12e52" x="56.57299" y="195.795353" style="stroke: #000000; stroke-width: 0.8"/>
      </g>
     </g>
    </g>
    <g id="xtick_7">
     <g id="line2d_11">
      <g>
       <use xlink:href="#m438cc12e52" x="118.926728" y="195.795353" style="stroke: #000000; stroke-width: 0.8"/>
      </g>
     </g>
    </g>
    <g id="xtick_8">
     <g id="line2d_12">
      <g>
       <use xlink:href="#m438cc12e52" x="181.280467" y="195.795353" style="stroke: #000000; stroke-width: 0.8"/>
      </g>
     </g>
    </g>
    <g id="xtick_9">
     <g id="line2d_13">
      <g>
       <use xlink:href="#m438cc12e52" x="243.634205" y="195.795353" style="stroke: #000000; stroke-width: 0.8"/>
      </g>
     </g>
    </g>
    <g id="xtick_10">
     <g id="line2d_14">
      <g>
       <use xlink:href="#m438cc12e52" x="305.987944" y="195.795353" style="stroke: #000000; stroke-width: 0.8"/>
      </g>
     </g>
    </g>
   </g>
   <g id="matplotlib.axis_4">
    <g id="ytick_4">
     <g id="line2d_15">
      <g>
       <use xlink:href="#mbf17b6d75f" x="43.78125" y="191.725015" style="stroke: #000000; stroke-width: 0.8"/>
      </g>
     </g>
     <g id="text_5">
      <!-- 0 -->
      <g transform="translate(30.41875 195.524234) scale(0.1 -0.1)">
       <use xlink:href="#DejaVuSans-30"/>
      </g>
     </g>
    </g>
    <g id="ytick_5">
     <g id="line2d_16">
      <g>
       <use xlink:href="#mbf17b6d75f" x="43.78125" y="151.021635" style="stroke: #000000; stroke-width: 0.8"/>
      </g>
     </g>
     <g id="text_6">
      <!-- 5 -->
      <g transform="translate(30.41875 154.820854) scale(0.1 -0.1)">
       <use xlink:href="#DejaVuSans-35"/>
      </g>
     </g>
    </g>
    <g id="ytick_6">
     <g id="line2d_17">
      <g>
       <use xlink:href="#mbf17b6d75f" x="43.78125" y="110.318255" style="stroke: #000000; stroke-width: 0.8"/>
      </g>
     </g>
     <g id="text_7">
      <!-- 10 -->
      <g transform="translate(24.05625 114.117473) scale(0.1 -0.1)">
       <use xlink:href="#DejaVuSans-31"/>
       <use xlink:href="#DejaVuSans-30" transform="translate(63.623047 0)"/>
      </g>
     </g>
    </g>
    <g id="text_8">
     <!-- LacY -->
     <g transform="translate(17.976563 162.67476) rotate(-90) scale(0.1 -0.1)">
      <defs>
       <path id="DejaVuSans-4c" d="M 628 4666 
L 1259 4666 
L 1259 531 
L 3531 531 
L 3531 0 
L 628 0 
L 628 4666 
z
" transform="scale(0.015625)"/>
       <path id="DejaVuSans-59" d="M -13 4666 
L 666 4666 
L 1959 2747 
L 3244 4666 
L 3922 4666 
L 2272 2222 
L 2272 0 
L 1638 0 
L 1638 2222 
L -13 4666 
z
" transform="scale(0.015625)"/>
      </defs>
      <use xlink:href="#DejaVuSans-4c"/>
      <use xlink:href="#DejaVuSans-61" transform="translate(55.712891 0)"/>
      <use xlink:href="#DejaVuSans-63" transform="translate(116.992188 0)"/>
      <use xlink:href="#DejaVuSans-59" transform="translate(171.972656 0)"/>
     </g>
    </g>
   </g>
   <g id="line2d_18">
    <path d="M 56.57299 110.318255 
L 56.831193 126.599607 
L 57.023583 142.880959 
L 57.137368 159.162311 
L 57.290773 159.162311 
L 57.3231 175.443663 
L 57.687929 191.725015 
L 58.797215 191.725015 
L 58.831494 183.584339 
L 58.869039 191.725015 
L 58.996054 183.584339 
L 59.5518 183.584339 
L 59.706175 191.725015 
L 62.338787 191.725015 
L 62.50179 183.584339 
L 63.379728 183.584339 
L 63.517243 175.443663 
L 63.599926 183.584339 
L 63.912328 151.021635 
L 63.955969 159.162311 
L 64.014803 151.021635 
L 64.089268 142.880959 
L 64.294372 134.740283 
L 64.399298 134.740283 
L 64.550507 159.162311 
L 65.011527 175.443663 
L 65.016975 183.584339 
L 65.537938 183.584339 
L 65.681709 175.443663 
L 65.827577 183.584339 
L 65.837497 191.725015 
L 65.847309 183.584339 
L 66.290107 175.443663 
L 66.543997 175.443663 
L 66.829276 159.162311 
L 66.925387 167.302987 
L 67.10072 167.302987 
L 67.127816 175.443663 
L 67.397554 175.443663 
L 67.610568 183.584339 
L 67.879565 183.584339 
L 68.622026 191.725015 
L 71.434415 191.725015 
L 71.4691 183.584339 
L 71.58546 183.584339 
L 71.644408 191.725015 
L 71.89586 183.584339 
L 72.229292 191.725015 
L 85.892078 191.725015 
L 85.934321 183.584339 
L 86.080314 183.584339 
L 86.547685 191.725015 
L 90.457754 191.725015 
L 90.670996 183.584339 
L 90.688262 191.725015 
L 95.40406 191.725015 
L 95.563069 175.443663 
L 95.728536 175.443663 
L 95.80049 183.584339 
L 99.041917 191.725015 
L 112.263618 191.725015 
L 112.427925 183.584339 
L 112.854524 183.584339 
L 112.932716 191.725015 
L 113.736612 191.725015 
L 113.774858 183.584339 
L 114.388064 183.584339 
L 114.677322 191.725015 
L 122.606102 191.725015 
L 122.801762 183.584339 
L 123.321915 183.584339 
L 123.52533 191.725015 
L 135.64259 191.725015 
L 135.846413 175.443663 
L 135.949645 167.302987 
L 136.05137 175.443663 
L 136.389384 167.302987 
L 136.657474 175.443663 
L 136.816125 183.584339 
L 136.976571 191.725015 
L 138.219929 191.725015 
L 138.615088 183.584339 
L 138.735205 175.443663 
L 138.93945 175.443663 
L 139.292003 167.302987 
L 139.494711 167.302987 
L 139.656766 183.584339 
L 139.846775 175.443663 
L 139.925246 183.584339 
L 140.11591 183.584339 
L 140.912807 191.725015 
L 142.231309 191.725015 
L 142.466453 183.584339 
L 142.530276 175.443663 
L 142.720552 175.443663 
L 143.029992 183.584339 
L 143.164537 191.725015 
L 145.093139 191.725015 
L 145.147743 175.443663 
L 145.441269 167.302987 
L 145.502295 151.021635 
L 145.554412 159.162311 
L 145.631199 167.302987 
L 145.840631 183.584339 
L 146.23849 191.725015 
L 147.203046 191.725015 
L 147.368949 183.584339 
L 147.506639 183.584339 
L 147.632344 191.725015 
L 153.92243 191.725015 
L 154.036387 183.584339 
L 154.106114 183.584339 
L 154.215871 175.443663 
L 154.443302 175.443663 
L 154.50682 191.725015 
L 154.557004 183.584339 
L 154.591065 183.584339 
L 154.711639 191.725015 
L 154.961608 191.725015 
L 155.051242 183.584339 
L 155.333431 183.584339 
L 155.437993 191.725015 
L 155.659981 191.725015 
L 155.749511 183.584339 
L 155.857751 183.584339 
L 155.940362 175.443663 
L 156.003872 175.443663 
L 156.113664 183.584339 
L 156.411275 183.584339 
L 156.51512 191.725015 
L 160.74208 191.725015 
L 160.778908 183.584339 
L 161.095318 183.584339 
L 161.217704 175.443663 
L 161.707779 175.443663 
L 161.795854 183.584339 
L 162.141926 183.584339 
L 162.247639 175.443663 
L 162.350932 175.443663 
L 162.466212 167.302987 
L 162.579503 167.302987 
L 162.692457 159.162311 
L 162.888226 159.162311 
L 163.006537 175.443663 
L 163.122582 175.443663 
L 163.238107 183.584339 
L 163.327467 183.584339 
L 163.390377 175.443663 
L 163.416115 183.584339 
L 163.536084 183.584339 
L 163.621864 167.302987 
L 163.65989 175.443663 
L 163.843515 175.443663 
L 163.938235 183.584339 
L 164.016132 183.584339 
L 164.15155 175.443663 
L 164.254352 183.584339 
L 164.583742 183.584339 
L 164.692946 175.443663 
L 165.031946 175.443663 
L 165.130707 183.584339 
L 165.244796 183.584339 
L 165.364811 175.443663 
L 165.387765 175.443663 
L 165.494525 183.584339 
L 165.692724 183.584339 
L 165.775884 175.443663 
L 165.802952 183.584339 
L 165.960828 183.584339 
L 166.062643 191.725015 
L 166.068317 183.584339 
L 166.285517 183.584339 
L 166.353815 167.302987 
L 166.403714 175.443663 
L 166.508303 175.443663 
L 166.564676 183.584339 
L 166.61807 175.443663 
L 166.782581 175.443663 
L 166.897055 183.584339 
L 166.912823 183.584339 
L 166.993339 175.443663 
L 167.001426 183.584339 
L 167.124634 183.584339 
L 167.234719 175.443663 
L 167.250962 175.443663 
L 167.354031 167.302987 
L 167.491069 167.302987 
L 167.59256 175.443663 
L 167.601822 167.302987 
L 167.685137 167.302987 
L 167.791615 175.443663 
L 167.81941 175.443663 
L 167.977798 183.584339 
L 168.343945 183.584339 
L 168.455201 191.725015 
L 168.721561 191.725015 
L 168.943336 183.584339 
L 169.111694 183.584339 
L 169.148296 175.443663 
L 169.218653 183.584339 
L 169.607626 183.584339 
L 169.654916 175.443663 
L 169.697046 183.584339 
L 170.091707 183.584339 
L 170.14631 175.443663 
L 170.201122 183.584339 
L 170.362047 183.584339 
L 170.457917 175.443663 
L 170.463391 183.584339 
L 170.537748 183.584339 
L 170.694529 167.302987 
L 170.712191 167.302987 
L 170.825771 159.162311 
L 170.842967 159.162311 
L 170.951797 167.302987 
L 170.965599 167.302987 
L 171.022316 159.162311 
L 171.075212 167.302987 
L 171.082029 167.302987 
L 171.18594 175.443663 
L 171.274512 175.443663 
L 171.351717 191.725015 
L 171.401357 191.725015 
L 171.494959 183.584339 
L 171.634677 183.584339 
L 171.757064 175.443663 
L 171.855188 175.443663 
L 171.980752 159.162311 
L 171.990598 159.162311 
L 172.099646 167.302987 
L 172.139295 167.302987 
L 172.231014 175.443663 
L 172.416776 175.443663 
L 172.451132 183.584339 
L 172.514687 175.443663 
L 172.629239 175.443663 
L 172.735018 183.584339 
L 172.815326 183.584339 
L 172.925283 175.443663 
L 173.547526 175.443663 
L 173.641359 183.584339 
L 173.760144 183.584339 
L 173.917735 167.302987 
L 173.957427 167.302987 
L 174.058342 175.443663 
L 174.302089 175.443663 
L 174.417235 167.302987 
L 174.43813 167.302987 
L 174.555134 159.162311 
L 174.701724 159.162311 
L 174.792257 167.302987 
L 174.812082 159.162311 
L 174.862037 159.162311 
L 174.971815 167.302987 
L 174.986389 167.302987 
L 175.088904 183.584339 
L 175.113593 183.584339 
L 175.231025 167.302987 
L 175.514068 167.302987 
L 175.581972 151.021635 
L 175.62481 159.162311 
L 175.631693 159.162311 
L 175.693309 151.021635 
L 175.741843 159.162311 
L 176.249817 159.162311 
L 176.307851 134.740283 
L 176.363745 151.021635 
L 176.41803 151.021635 
L 176.53377 167.302987 
L 176.591741 167.302987 
L 176.726377 183.584339 
L 176.815133 183.584339 
L 176.944632 191.725015 
L 177.225937 191.725015 
L 177.351339 175.443663 
L 177.36034 183.584339 
L 177.387368 183.584339 
L 177.480396 175.443663 
L 177.862923 175.443663 
L 178.02245 159.162311 
L 178.059249 159.162311 
L 178.175622 175.443663 
L 178.260798 167.302987 
L 178.26101 175.443663 
L 178.359035 175.443663 
L 178.446212 183.584339 
L 178.738441 183.584339 
L 178.758208 167.302987 
L 178.846269 175.443663 
L 178.864915 175.443663 
L 178.906323 191.725015 
L 178.967499 175.443663 
L 179.066198 175.443663 
L 179.139625 167.302987 
L 179.334279 151.021635 
L 179.461668 151.021635 
L 179.588121 167.302987 
L 179.826938 167.302987 
L 179.940593 183.584339 
L 179.964539 183.584339 
L 180.062555 191.725015 
L 180.188864 191.725015 
L 180.255327 183.584339 
L 180.316689 191.725015 
L 180.526004 183.584339 
L 180.545851 183.584339 
L 180.660998 175.443663 
L 180.7541 175.443663 
L 180.879358 183.584339 
L 181.026852 183.584339 
L 181.119896 175.443663 
L 181.193073 175.443663 
L 181.289932 167.302987 
L 181.481103 167.302987 
L 181.610329 183.584339 
L 181.649574 183.584339 
L 181.731097 175.443663 
L 181.796239 175.443663 
L 181.866774 191.725015 
L 181.97786 183.584339 
L 182.081255 191.725015 
L 182.205097 191.725015 
L 182.210855 183.584339 
L 182.289368 191.725015 
L 182.415046 191.725015 
L 182.558288 183.584339 
L 182.612865 183.584339 
L 182.738932 175.443663 
L 182.85216 175.443663 
L 182.918019 167.302987 
L 182.955647 175.443663 
L 183.077224 175.443663 
L 183.17212 167.302987 
L 183.177905 183.584339 
L 183.397549 183.584339 
L 183.543712 159.162311 
L 183.679707 151.021635 
L 183.755267 151.021635 
L 183.807332 134.740283 
L 183.856909 151.021635 
L 183.995891 167.302987 
L 184.017834 167.302987 
L 184.163219 175.443663 
L 184.290658 175.443663 
L 184.304251 183.584339 
L 184.378268 175.443663 
L 184.501429 159.162311 
L 184.600299 167.302987 
L 184.612263 159.162311 
L 184.737705 159.162311 
L 184.901141 175.443663 
L 184.936099 175.443663 
L 185.000011 167.302987 
L 185.043185 175.443663 
L 185.096335 175.443663 
L 185.12435 183.584339 
L 185.204464 175.443663 
L 185.25962 175.443663 
L 185.39562 183.584339 
L 185.502149 167.302987 
L 185.522048 167.302987 
L 185.62518 183.584339 
L 185.751868 183.584339 
L 185.870031 191.725015 
L 185.910619 191.725015 
L 186.027085 183.584339 
L 186.048008 191.725015 
L 186.136099 183.584339 
L 186.221962 191.725015 
L 186.501767 191.725015 
L 186.786723 175.443663 
L 186.991483 175.443663 
L 187.097677 167.302987 
L 187.15138 167.302987 
L 187.222658 151.021635 
L 187.253035 159.162311 
L 187.345018 159.162311 
L 187.352477 151.021635 
L 187.448268 159.162311 
L 187.555053 159.162311 
L 187.668885 151.021635 
L 187.722109 151.021635 
L 187.784904 167.302987 
L 187.816038 151.021635 
L 187.975331 151.021635 
L 188.075866 167.302987 
L 188.097106 159.162311 
L 188.282067 183.584339 
L 188.464476 183.584339 
L 188.586432 175.443663 
L 188.635895 175.443663 
L 188.745345 167.302987 
L 188.829752 175.443663 
L 188.859267 167.302987 
L 188.882862 175.443663 
L 188.929965 183.584339 
L 188.980138 175.443663 
L 189.117688 175.443663 
L 189.275399 183.584339 
L 189.419538 167.302987 
L 189.535391 167.302987 
L 189.628956 159.162311 
L 189.820089 159.162311 
L 189.871412 175.443663 
L 190.116584 175.443663 
L 190.264178 167.302987 
L 190.305144 167.302987 
L 190.404557 159.162311 
L 190.41297 167.302987 
L 190.621725 167.302987 
L 190.726317 175.443663 
L 190.806528 175.443663 
L 190.916994 159.162311 
L 190.967516 159.162311 
L 191.040723 167.302987 
L 191.096129 167.302987 
L 191.197122 151.021635 
L 191.214464 159.162311 
L 191.36626 167.302987 
L 191.430004 167.302987 
L 191.572007 159.162311 
L 191.674157 159.162311 
L 191.725409 175.443663 
L 191.801937 167.302987 
L 191.950021 167.302987 
L 192.057628 159.162311 
L 192.156657 159.162311 
L 192.381268 175.443663 
L 192.481262 167.302987 
L 192.549027 167.302987 
L 192.56282 159.162311 
L 192.650313 167.302987 
L 192.79922 167.302987 
L 192.911122 151.021635 
L 193.001813 159.162311 
L 193.11743 159.162311 
L 193.1476 151.021635 
L 193.202654 159.162311 
L 193.299751 167.302987 
L 193.306524 159.162311 
L 193.4168 142.880959 
L 193.442957 151.021635 
L 193.655921 151.021635 
L 193.766797 159.162311 
L 193.868782 159.162311 
L 193.952062 151.021635 
L 193.960378 159.162311 
L 194.174243 159.162311 
L 194.44232 183.584339 
L 194.589802 183.584339 
L 194.689873 167.302987 
L 194.701107 175.443663 
L 194.742146 183.584339 
L 194.810161 175.443663 
L 194.938302 175.443663 
L 194.951563 183.584339 
L 194.975602 175.443663 
L 195.304649 175.443663 
L 195.458687 191.725015 
L 195.807294 191.725015 
L 195.962822 183.584339 
L 196.101854 183.584339 
L 196.256493 175.443663 
L 196.503595 175.443663 
L 196.64378 159.162311 
L 196.840508 159.162311 
L 196.959858 175.443663 
L 197.01031 175.443663 
L 197.091559 183.584339 
L 197.244964 175.443663 
L 197.358255 183.584339 
L 197.404833 191.725015 
L 197.425454 183.584339 
L 197.669715 183.584339 
L 197.692857 191.725015 
L 197.77602 183.584339 
L 197.798295 183.584339 
L 197.910564 167.302987 
L 198.279728 167.302987 
L 198.549888 183.584339 
L 198.676412 175.443663 
L 199.060889 175.443663 
L 199.286783 183.584339 
L 200.09262 183.584339 
L 200.139039 191.725015 
L 206.421387 191.725015 
L 206.808747 183.584339 
L 206.927436 183.584339 
L 207.140555 175.443663 
L 207.203859 183.584339 
L 207.279748 175.443663 
L 207.312695 183.584339 
L 207.488491 191.725015 
L 207.841602 191.725015 
L 208.056387 183.584339 
L 208.127275 183.584339 
L 208.401284 175.443663 
L 208.489728 175.443663 
L 208.606501 167.302987 
L 208.666329 175.443663 
L 208.771554 167.302987 
L 208.776864 175.443663 
L 208.851376 175.443663 
L 208.892838 183.584339 
L 208.993453 183.584339 
L 209.158732 167.302987 
L 209.196927 175.443663 
L 209.216894 167.302987 
L 209.472538 167.302987 
L 209.621063 183.584339 
L 209.676163 175.443663 
L 209.960412 191.725015 
L 209.973777 183.584339 
L 210.018214 191.725015 
L 210.301785 191.725015 
L 210.6673 183.584339 
L 210.829713 183.584339 
L 210.924823 167.302987 
L 211.127552 191.725015 
L 211.138597 191.725015 
L 211.24092 183.584339 
L 211.365524 191.725015 
L 211.569021 191.725015 
L 211.714381 183.584339 
L 211.781141 191.725015 
L 212.029787 191.725015 
L 212.285189 183.584339 
L 212.32394 183.584339 
L 212.40866 175.443663 
L 212.580976 175.443663 
L 212.693948 159.162311 
L 212.864078 167.302987 
L 212.924558 167.302987 
L 213.016024 183.584339 
L 213.160161 183.584339 
L 213.410723 191.725015 
L 213.822883 183.584339 
L 214.243432 183.584339 
L 214.446127 175.443663 
L 214.569485 191.725015 
L 214.608795 191.725015 
L 214.966169 175.443663 
L 215.09017 175.443663 
L 215.17527 183.584339 
L 215.188121 175.443663 
L 215.220198 175.443663 
L 215.276453 167.302987 
L 215.283858 175.443663 
L 215.70221 175.443663 
L 215.779426 183.584339 
L 216.009214 175.443663 
L 216.209333 151.021635 
L 216.212899 159.162311 
L 216.355616 159.162311 
L 216.371811 167.302987 
L 216.783683 167.302987 
L 216.842118 175.443663 
L 217.13438 159.162311 
L 217.391463 183.584339 
L 217.553592 183.584339 
L 217.739285 191.725015 
L 217.803281 183.584339 
L 217.96425 183.584339 
L 218.160664 191.725015 
L 218.394448 183.584339 
L 218.494232 175.443663 
L 218.730386 175.443663 
L 218.893872 167.302987 
L 218.942647 167.302987 
L 219.035055 183.584339 
L 219.261695 183.584339 
L 219.484028 175.443663 
L 219.524473 167.302987 
L 219.550691 175.443663 
L 219.653075 175.443663 
L 219.666855 183.584339 
L 220.025828 183.584339 
L 220.266652 167.302987 
L 220.412216 183.584339 
L 220.413698 175.443663 
L 220.783626 167.302987 
L 220.827773 167.302987 
L 220.898478 183.584339 
L 220.942023 175.443663 
L 221.093648 175.443663 
L 221.161872 183.584339 
L 221.299186 175.443663 
L 221.385244 183.584339 
L 221.467134 175.443663 
L 221.683676 183.584339 
L 221.747083 175.443663 
L 221.90553 191.725015 
L 225.36156 191.725015 
L 225.379518 183.584339 
L 225.652785 183.584339 
L 225.717729 175.443663 
L 225.76132 183.584339 
L 225.801547 183.584339 
L 225.814329 191.725015 
L 225.923026 183.584339 
L 226.064964 183.584339 
L 226.247597 191.725015 
L 226.563743 183.584339 
L 226.967447 183.584339 
L 227.296337 175.443663 
L 227.474439 191.725015 
L 227.595621 183.584339 
L 228.019561 183.584339 
L 228.040659 191.725015 
L 228.175033 191.725015 
L 228.238071 183.584339 
L 228.68777 183.584339 
L 228.758742 191.725015 
L 229.349081 183.584339 
L 229.7401 191.725015 
L 229.802631 183.584339 
L 229.981116 183.584339 
L 230.188015 167.302987 
L 230.243957 175.443663 
L 230.73617 175.443663 
L 230.795143 167.302987 
L 230.871648 167.302987 
L 231.009102 159.162311 
L 231.021995 167.302987 
L 231.101654 159.162311 
L 231.176599 151.021635 
L 231.308604 151.021635 
L 231.488383 159.162311 
L 231.669276 167.302987 
L 231.902766 167.302987 
L 232.162604 142.880959 
L 232.457533 159.162311 
L 232.516647 151.021635 
L 233.194976 191.725015 
L 243.65939 191.725015 
L 243.876387 183.584339 
L 243.979025 175.443663 
L 244.064513 183.584339 
L 245.606319 183.584339 
L 245.761295 191.725015 
L 246.445291 191.725015 
L 246.777163 159.162311 
L 246.85829 151.021635 
L 246.985794 151.021635 
L 247.167458 175.443663 
L 247.758597 183.584339 
L 248.525927 183.584339 
L 248.700752 191.725015 
L 254.570231 191.725015 
L 254.907316 183.584339 
L 254.943414 191.725015 
L 256.505045 191.725015 
L 256.912537 183.584339 
L 257.071557 183.584339 
L 257.782568 191.725015 
L 264.141458 191.725015 
L 264.529943 183.584339 
L 264.647079 191.725015 
L 273.89907 191.725015 
L 274.047598 183.584339 
L 274.511308 191.725015 
L 291.907966 191.725015 
L 292.028766 175.443663 
L 292.182914 167.302987 
L 292.243485 151.021635 
L 292.285875 159.162311 
L 292.317221 167.302987 
L 292.46731 167.302987 
L 292.664842 175.443663 
L 292.805581 175.443663 
L 292.921445 183.584339 
L 293.113833 175.443663 
L 293.145086 183.584339 
L 293.275713 183.584339 
L 293.558195 191.725015 
L 293.62241 183.584339 
L 293.883934 175.443663 
L 293.98719 167.302987 
L 294.101195 175.443663 
L 294.137497 167.302987 
L 294.202272 175.443663 
L 294.238441 175.443663 
L 294.350242 159.162311 
L 294.447818 151.021635 
L 294.479569 151.021635 
L 294.525689 159.162311 
L 294.952324 175.443663 
L 295.247934 175.443663 
L 295.285554 191.725015 
L 297.345303 191.725015 
L 297.42331 183.584339 
L 297.613926 183.584339 
L 298.422204 191.725015 
L 312.40778 191.725015 
L 312.40778 191.725015 
" clip-path="url(#p7c125638f5)" style="fill: none; stroke: #000000; stroke-width: 1.5; stroke-linecap: square"/>
   </g>
   <g id="patch_8">
    <path d="M 43.78125 195.795353 
L 43.78125 106.247917 
" style="fill: none; stroke: #000000; stroke-width: 0.8; stroke-linejoin: miter; stroke-linecap: square"/>
   </g>
   <g id="patch_9">
    <path d="M 325.19952 195.795353 
L 325.19952 106.247917 
" style="fill: none; stroke: #000000; stroke-width: 0.8; stroke-linejoin: miter; stroke-linecap: square"/>
   </g>
   <g id="patch_10">
    <path d="M 43.78125 195.795353 
L 325.19952 195.795353 
" style="fill: none; stroke: #000000; stroke-width: 0.8; stroke-linejoin: miter; stroke-linecap: square"/>
   </g>
   <g id="patch_11">
    <path d="M 43.78125 106.247917 
L 325.19952 106.247917 
" style="fill: none; stroke: #000000; stroke-width: 0.8; stroke-linejoin: miter; stroke-linecap: square"/>
   </g>
  </g>
  <g id="axes_3">
   <g id="patch_12">
    <path d="M 43.78125 294.84327 
L 325.19952 294.84327 
L 325.19952 205.295833 
L 43.78125 205.295833 
z
" style="fill: #ffffff"/>
   </g>
   <g id="matplotlib.axis_5">
    <g id="xtick_11">
     <g id="line2d_19">
      <g>
       <use xlink:href="#m438cc12e52" x="56.57299" y="294.84327" style="stroke: #000000; stroke-width: 0.8"/>
      </g>
     </g>
     <g id="text_9">
      <!-- 0 -->
      <g transform="translate(53.39174 309.441707) scale(0.1 -0.1)">
       <use xlink:href="#DejaVuSans-30"/>
      </g>
     </g>
    </g>
    <g id="xtick_12">
     <g id="line2d_20">
      <g>
       <use xlink:href="#m438cc12e52" x="118.926728" y="294.84327" style="stroke: #000000; stroke-width: 0.8"/>
      </g>
     </g>
     <g id="text_10">
      <!-- 200 -->
      <g transform="translate(109.382978 309.441707) scale(0.1 -0.1)">
       <defs>
        <path id="DejaVuSans-32" d="M 1228 531 
L 3431 531 
L 3431 0 
L 469 0 
L 469 531 
Q 828 903 1448 1529 
Q 2069 2156 2228 2338 
Q 2531 2678 2651 2914 
Q 2772 3150 2772 3378 
Q 2772 3750 2511 3984 
Q 2250 4219 1831 4219 
Q 1534 4219 1204 4116 
Q 875 4013 500 3803 
L 500 4441 
Q 881 4594 1212 4672 
Q 1544 4750 1819 4750 
Q 2544 4750 2975 4387 
Q 3406 4025 3406 3419 
Q 3406 3131 3298 2873 
Q 3191 2616 2906 2266 
Q 2828 2175 2409 1742 
Q 1991 1309 1228 531 
z
" transform="scale(0.015625)"/>
       </defs>
       <use xlink:href="#DejaVuSans-32"/>
       <use xlink:href="#DejaVuSans-30" transform="translate(63.623047 0)"/>
       <use xlink:href="#DejaVuSans-30" transform="translate(127.246094 0)"/>
      </g>
     </g>
    </g>
    <g id="xtick_13">
     <g id="line2d_21">
      <g>
       <use xlink:href="#m438cc12e52" x="181.280467" y="294.84327" style="stroke: #000000; stroke-width: 0.8"/>
      </g>
     </g>
     <g id="text_11">
      <!-- 400 -->
      <g transform="translate(171.736717 309.441707) scale(0.1 -0.1)">
       <defs>
        <path id="DejaVuSans-34" d="M 2419 4116 
L 825 1625 
L 2419 1625 
L 2419 4116 
z
M 2253 4666 
L 3047 4666 
L 3047 1625 
L 3713 1625 
L 3713 1100 
L 3047 1100 
L 3047 0 
L 2419 0 
L 2419 1100 
L 313 1100 
L 313 1709 
L 2253 4666 
z
" transform="scale(0.015625)"/>
       </defs>
       <use xlink:href="#DejaVuSans-34"/>
       <use xlink:href="#DejaVuSans-30" transform="translate(63.623047 0)"/>
       <use xlink:href="#DejaVuSans-30" transform="translate(127.246094 0)"/>
      </g>
     </g>
    </g>
    <g id="xtick_14">
     <g id="line2d_22">
      <g>
       <use xlink:href="#m438cc12e52" x="243.634205" y="294.84327" style="stroke: #000000; stroke-width: 0.8"/>
      </g>
     </g>
     <g id="text_12">
      <!-- 600 -->
      <g transform="translate(234.090455 309.441707) scale(0.1 -0.1)">
       <defs>
        <path id="DejaVuSans-36" d="M 2113 2584 
Q 1688 2584 1439 2293 
Q 1191 2003 1191 1497 
Q 1191 994 1439 701 
Q 1688 409 2113 409 
Q 2538 409 2786 701 
Q 3034 994 3034 1497 
Q 3034 2003 2786 2293 
Q 2538 2584 2113 2584 
z
M 3366 4563 
L 3366 3988 
Q 3128 4100 2886 4159 
Q 2644 4219 2406 4219 
Q 1781 4219 1451 3797 
Q 1122 3375 1075 2522 
Q 1259 2794 1537 2939 
Q 1816 3084 2150 3084 
Q 2853 3084 3261 2657 
Q 3669 2231 3669 1497 
Q 3669 778 3244 343 
Q 2819 -91 2113 -91 
Q 1303 -91 875 529 
Q 447 1150 447 2328 
Q 447 3434 972 4092 
Q 1497 4750 2381 4750 
Q 2619 4750 2861 4703 
Q 3103 4656 3366 4563 
z
" transform="scale(0.015625)"/>
       </defs>
       <use xlink:href="#DejaVuSans-36"/>
       <use xlink:href="#DejaVuSans-30" transform="translate(63.623047 0)"/>
       <use xlink:href="#DejaVuSans-30" transform="translate(127.246094 0)"/>
      </g>
     </g>
    </g>
    <g id="xtick_15">
     <g id="line2d_23">
      <g>
       <use xlink:href="#m438cc12e52" x="305.987944" y="294.84327" style="stroke: #000000; stroke-width: 0.8"/>
      </g>
     </g>
     <g id="text_13">
      <!-- 800 -->
      <g transform="translate(296.444194 309.441707) scale(0.1 -0.1)">
       <defs>
        <path id="DejaVuSans-38" d="M 2034 2216 
Q 1584 2216 1326 1975 
Q 1069 1734 1069 1313 
Q 1069 891 1326 650 
Q 1584 409 2034 409 
Q 2484 409 2743 651 
Q 3003 894 3003 1313 
Q 3003 1734 2745 1975 
Q 2488 2216 2034 2216 
z
M 1403 2484 
Q 997 2584 770 2862 
Q 544 3141 544 3541 
Q 544 4100 942 4425 
Q 1341 4750 2034 4750 
Q 2731 4750 3128 4425 
Q 3525 4100 3525 3541 
Q 3525 3141 3298 2862 
Q 3072 2584 2669 2484 
Q 3125 2378 3379 2068 
Q 3634 1759 3634 1313 
Q 3634 634 3220 271 
Q 2806 -91 2034 -91 
Q 1263 -91 848 271 
Q 434 634 434 1313 
Q 434 1759 690 2068 
Q 947 2378 1403 2484 
z
M 1172 3481 
Q 1172 3119 1398 2916 
Q 1625 2713 2034 2713 
Q 2441 2713 2670 2916 
Q 2900 3119 2900 3481 
Q 2900 3844 2670 4047 
Q 2441 4250 2034 4250 
Q 1625 4250 1398 4047 
Q 1172 3844 1172 3481 
z
" transform="scale(0.015625)"/>
       </defs>
       <use xlink:href="#DejaVuSans-38"/>
       <use xlink:href="#DejaVuSans-30" transform="translate(63.623047 0)"/>
       <use xlink:href="#DejaVuSans-30" transform="translate(127.246094 0)"/>
      </g>
     </g>
    </g>
    <g id="text_14">
     <!-- Time -->
     <g transform="translate(172.256791 323.119832) scale(0.1 -0.1)">
      <defs>
       <path id="DejaVuSans-54" d="M -19 4666 
L 3928 4666 
L 3928 4134 
L 2272 4134 
L 2272 0 
L 1638 0 
L 1638 4134 
L -19 4134 
L -19 4666 
z
" transform="scale(0.015625)"/>
       <path id="DejaVuSans-69" d="M 603 3500 
L 1178 3500 
L 1178 0 
L 603 0 
L 603 3500 
z
M 603 4863 
L 1178 4863 
L 1178 4134 
L 603 4134 
L 603 4863 
z
" transform="scale(0.015625)"/>
       <path id="DejaVuSans-6d" d="M 3328 2828 
Q 3544 3216 3844 3400 
Q 4144 3584 4550 3584 
Q 5097 3584 5394 3201 
Q 5691 2819 5691 2113 
L 5691 0 
L 5113 0 
L 5113 2094 
Q 5113 2597 4934 2840 
Q 4756 3084 4391 3084 
Q 3944 3084 3684 2787 
Q 3425 2491 3425 1978 
L 3425 0 
L 2847 0 
L 2847 2094 
Q 2847 2600 2669 2842 
Q 2491 3084 2119 3084 
Q 1678 3084 1418 2786 
Q 1159 2488 1159 1978 
L 1159 0 
L 581 0 
L 581 3500 
L 1159 3500 
L 1159 2956 
Q 1356 3278 1631 3431 
Q 1906 3584 2284 3584 
Q 2666 3584 2933 3390 
Q 3200 3197 3328 2828 
z
" transform="scale(0.015625)"/>
      </defs>
      <use xlink:href="#DejaVuSans-54"/>
      <use xlink:href="#DejaVuSans-69" transform="translate(57.958984 0)"/>
      <use xlink:href="#DejaVuSans-6d" transform="translate(85.742188 0)"/>
      <use xlink:href="#DejaVuSans-65" transform="translate(183.154297 0)"/>
     </g>
    </g>
   </g>
   <g id="matplotlib.axis_6">
    <g id="ytick_7">
     <g id="line2d_24">
      <g>
       <use xlink:href="#mbf17b6d75f" x="43.78125" y="290.772932" style="stroke: #000000; stroke-width: 0.8"/>
      </g>
     </g>
     <g id="text_15">
      <!-- 0.0 -->
      <g transform="translate(20.878125 294.572151) scale(0.1 -0.1)">
       <defs>
        <path id="DejaVuSans-2e" d="M 684 794 
L 1344 794 
L 1344 0 
L 684 0 
L 684 794 
z
" transform="scale(0.015625)"/>
       </defs>
       <use xlink:href="#DejaVuSans-30"/>
       <use xlink:href="#DejaVuSans-2e" transform="translate(63.623047 0)"/>
       <use xlink:href="#DejaVuSans-30" transform="translate(95.410156 0)"/>
      </g>
     </g>
    </g>
    <g id="ytick_8">
     <g id="line2d_25">
      <g>
       <use xlink:href="#mbf17b6d75f" x="43.78125" y="250.069552" style="stroke: #000000; stroke-width: 0.8"/>
      </g>
     </g>
     <g id="text_16">
      <!-- 0.5 -->
      <g transform="translate(20.878125 253.86877) scale(0.1 -0.1)">
       <use xlink:href="#DejaVuSans-30"/>
       <use xlink:href="#DejaVuSans-2e" transform="translate(63.623047 0)"/>
       <use xlink:href="#DejaVuSans-35" transform="translate(95.410156 0)"/>
      </g>
     </g>
    </g>
    <g id="ytick_9">
     <g id="line2d_26">
      <g>
       <use xlink:href="#mbf17b6d75f" x="43.78125" y="209.366171" style="stroke: #000000; stroke-width: 0.8"/>
      </g>
     </g>
     <g id="text_17">
      <!-- 1.0 -->
      <g transform="translate(20.878125 213.16539) scale(0.1 -0.1)">
       <use xlink:href="#DejaVuSans-31"/>
       <use xlink:href="#DejaVuSans-2e" transform="translate(63.623047 0)"/>
       <use xlink:href="#DejaVuSans-30" transform="translate(95.410156 0)"/>
      </g>
     </g>
    </g>
    <g id="text_18">
     <!-- Free lac operon -->
     <g transform="translate(14.798438 288.540645) rotate(-90) scale(0.1 -0.1)">
      <defs>
       <path id="DejaVuSans-46" d="M 628 4666 
L 3309 4666 
L 3309 4134 
L 1259 4134 
L 1259 2759 
L 3109 2759 
L 3109 2228 
L 1259 2228 
L 1259 0 
L 628 0 
L 628 4666 
z
" transform="scale(0.015625)"/>
       <path id="DejaVuSans-70" d="M 1159 525 
L 1159 -1331 
L 581 -1331 
L 581 3500 
L 1159 3500 
L 1159 2969 
Q 1341 3281 1617 3432 
Q 1894 3584 2278 3584 
Q 2916 3584 3314 3078 
Q 3713 2572 3713 1747 
Q 3713 922 3314 415 
Q 2916 -91 2278 -91 
Q 1894 -91 1617 61 
Q 1341 213 1159 525 
z
M 3116 1747 
Q 3116 2381 2855 2742 
Q 2594 3103 2138 3103 
Q 1681 3103 1420 2742 
Q 1159 2381 1159 1747 
Q 1159 1113 1420 752 
Q 1681 391 2138 391 
Q 2594 391 2855 752 
Q 3116 1113 3116 1747 
z
" transform="scale(0.015625)"/>
       <path id="DejaVuSans-6e" d="M 3513 2113 
L 3513 0 
L 2938 0 
L 2938 2094 
Q 2938 2591 2744 2837 
Q 2550 3084 2163 3084 
Q 1697 3084 1428 2787 
Q 1159 2491 1159 1978 
L 1159 0 
L 581 0 
L 581 3500 
L 1159 3500 
L 1159 2956 
Q 1366 3272 1645 3428 
Q 1925 3584 2291 3584 
Q 2894 3584 3203 3211 
Q 3513 2838 3513 2113 
z
" transform="scale(0.015625)"/>
      </defs>
      <use xlink:href="#DejaVuSans-46"/>
      <use xlink:href="#DejaVuSans-72" transform="translate(50.269531 0)"/>
      <use xlink:href="#DejaVuSans-65" transform="translate(89.132812 0)"/>
      <use xlink:href="#DejaVuSans-65" transform="translate(150.65625 0)"/>
      <use xlink:href="#DejaVuSans-20" transform="translate(212.179688 0)"/>
      <use xlink:href="#DejaVuSans-6c" transform="translate(243.966797 0)"/>
      <use xlink:href="#DejaVuSans-61" transform="translate(271.75 0)"/>
      <use xlink:href="#DejaVuSans-63" transform="translate(333.029297 0)"/>
      <use xlink:href="#DejaVuSans-20" transform="translate(388.009766 0)"/>
      <use xlink:href="#DejaVuSans-6f" transform="translate(419.796875 0)"/>
      <use xlink:href="#DejaVuSans-70" transform="translate(480.978516 0)"/>
      <use xlink:href="#DejaVuSans-65" transform="translate(544.455078 0)"/>
      <use xlink:href="#DejaVuSans-72" transform="translate(605.978516 0)"/>
      <use xlink:href="#DejaVuSans-6f" transform="translate(644.841797 0)"/>
      <use xlink:href="#DejaVuSans-6e" transform="translate(706.023438 0)"/>
     </g>
    </g>
   </g>
   <g id="line2d_27">
    <path d="M 56.57299 209.366171 
L 57.036419 209.366171 
L 57.137368 290.772932 
L 58.44044 290.772932 
L 58.672185 209.366171 
L 58.996054 209.366171 
L 59.306534 290.772932 
L 59.706175 290.772932 
L 62.338787 209.366171 
L 62.828939 209.366171 
L 62.951615 290.772932 
L 63.379728 209.366171 
L 64.294372 209.366171 
L 64.481123 290.772932 
L 65.016975 290.772932 
L 65.381118 209.366171 
L 67.06931 209.366171 
L 67.127816 290.772932 
L 68.622026 290.772932 
L 71.4691 209.366171 
L 72.140909 209.366171 
L 72.229292 290.772932 
L 73.148487 209.366171 
L 73.413615 290.772932 
L 85.934321 209.366171 
L 86.080314 290.772932 
L 88.573646 290.772932 
L 90.457754 209.366171 
L 90.62186 209.366171 
L 90.688262 290.772932 
L 91.311425 290.772932 
L 95.452464 209.366171 
L 95.569373 209.366171 
L 95.80049 290.772932 
L 99.041917 290.772932 
L 99.23987 209.366171 
L 99.28469 290.772932 
L 111.074695 209.366171 
L 111.088523 290.772932 
L 112.263618 209.366171 
L 112.427925 209.366171 
L 112.932716 290.772932 
L 113.774858 209.366171 
L 113.951281 290.772932 
L 114.677322 290.772932 
L 122.606102 209.366171 
L 122.801762 209.366171 
L 122.951461 290.772932 
L 123.52533 290.772932 
L 130.434181 209.366171 
L 130.952203 290.772932 
L 135.745586 209.366171 
L 136.897804 209.366171 
L 136.976571 290.772932 
L 138.219929 209.366171 
L 139.925246 209.366171 
L 140.11591 290.772932 
L 140.912807 290.772932 
L 142.231309 209.366171 
L 142.469242 209.366171 
L 142.530276 290.772932 
L 143.164537 290.772932 
L 144.300416 209.366171 
L 144.317747 290.772932 
L 145.147743 209.366171 
L 145.501581 209.366171 
L 145.573821 290.772932 
L 146.906633 290.772932 
L 147.203046 209.366171 
L 147.368949 209.366171 
L 147.506639 290.772932 
L 147.957787 290.772932 
L 153.809025 209.366171 
L 153.840705 290.772932 
L 153.932454 209.366171 
L 155.876801 209.366171 
L 155.983189 290.772932 
L 160.673412 290.772932 
L 160.778908 209.366171 
L 198.634053 209.366171 
L 198.676412 290.772932 
L 206.209951 290.772932 
L 206.421387 209.366171 
L 222.165821 209.366171 
L 222.188433 290.772932 
L 224.271885 290.772932 
L 225.379518 209.366171 
L 231.125588 209.366171 
L 231.249061 290.772932 
L 231.669276 290.772932 
L 231.996749 209.366171 
L 233.424834 209.366171 
L 233.431934 290.772932 
L 234.435108 290.772932 
L 243.65939 209.366171 
L 244.064513 209.366171 
L 244.194716 290.772932 
L 245.761295 290.772932 
L 246.548756 209.366171 
L 246.963282 209.366171 
L 247.085767 290.772932 
L 247.758597 290.772932 
L 248.200673 209.366171 
L 248.525927 290.772932 
L 248.700752 290.772932 
L 251.22143 209.366171 
L 251.249708 290.772932 
L 254.570231 209.366171 
L 254.928345 209.366171 
L 254.943414 290.772932 
L 255.165513 290.772932 
L 256.505045 209.366171 
L 256.912537 209.366171 
L 257.071557 290.772932 
L 257.782568 290.772932 
L 259.131989 209.366171 
L 259.385588 290.772932 
L 264.141458 209.366171 
L 264.647079 209.366171 
L 264.747541 290.772932 
L 265.797443 209.366171 
L 266.356219 290.772932 
L 268.093853 209.366171 
L 268.403067 290.772932 
L 273.958591 209.366171 
L 274.047598 290.772932 
L 274.930865 290.772932 
L 279.91865 209.366171 
L 279.933367 290.772932 
L 290.322797 209.366171 
L 290.34802 290.772932 
L 291.950373 209.366171 
L 292.195933 209.366171 
L 292.317221 290.772932 
L 292.88916 290.772932 
L 292.921445 209.366171 
L 294.447818 209.366171 
L 294.525689 290.772932 
L 296.996538 290.772932 
L 297.394148 209.366171 
L 297.42331 290.772932 
L 298.422204 290.772932 
L 302.041775 209.366171 
L 302.079203 290.772932 
L 312.40778 209.366171 
L 312.40778 209.366171 
" clip-path="url(#p77a3392055)" style="fill: none; stroke: #000000; stroke-width: 1.5; stroke-linecap: square"/>
   </g>
   <g id="patch_13">
    <path d="M 43.78125 294.84327 
L 43.78125 205.295833 
" style="fill: none; stroke: #000000; stroke-width: 0.8; stroke-linejoin: miter; stroke-linecap: square"/>
   </g>
   <g id="patch_14">
    <path d="M 325.19952 294.84327 
L 325.19952 205.295833 
" style="fill: none; stroke: #000000; stroke-width: 0.8; stroke-linejoin: miter; stroke-linecap: square"/>
   </g>
   <g id="patch_15">
    <path d="M 43.78125 294.84327 
L 325.19952 294.84327 
" style="fill: none; stroke: #000000; stroke-width: 0.8; stroke-linejoin: miter; stroke-linecap: square"/>
   </g>
   <g id="patch_16">
    <path d="M 43.78125 205.295833 
L 325.19952 205.295833 
" style="fill: none; stroke: #000000; stroke-width: 0.8; stroke-linejoin: miter; stroke-linecap: square"/>
   </g>
  </g>
 </g>
 <defs>
  <clipPath id="p478509c127">
   <rect x="43.78125" y="7.2" width="281.41827" height="89.547437"/>
  </clipPath>
  <clipPath id="p7c125638f5">
   <rect x="43.78125" y="106.247917" width="281.41827" height="89.547437"/>
  </clipPath>
  <clipPath id="p77a3392055">
   <rect x="43.78125" y="205.295833" width="281.41827" height="89.547437"/>
  </clipPath>
 </defs>
</svg>
