<?xml version="1.0" encoding="utf-8" standalone="no"?>
<!DOCTYPE svg PUBLIC "-//W3C//DTD SVG 1.1//EN"
  "http://www.w3.org/Graphics/SVG/1.1/DTD/svg11.dtd">
<svg xmlns:xlink="http://www.w3.org/1999/xlink" width="469.19952pt" height="353.99952pt" viewBox="0 0 469.19952 353.99952" xmlns="http://www.w3.org/2000/svg" version="1.1">
 <metadata>
  <rdf:RDF xmlns:dc="http://purl.org/dc/elements/1.1/" xmlns:cc="http://creativecommons.org/ns#" xmlns:rdf="http://www.w3.org/1999/02/22-rdf-syntax-ns#">
   <cc:Work>
    <dc:type rdf:resource="http://purl.org/dc/dcmitype/StillImage"/>
    <dc:date>2026-06-12T15:03:03.001844</dc:date>
    <dc:format>image/svg+xml</dc:format>
    <dc:creator>
     <cc:Agent>
      <dc:title>Matplotlib v3.11.0, https://matplotlib.org/</dc:title>
     </cc:Agent>
    </dc:creator>
   </cc:Work>
  </rdf:RDF>
 </metadata>
 <defs>
  <style type="text/css">*{stroke-linejoin: round; stroke-linecap: butt}</style>
 </defs>
 <g id="figure_1">
  <g id="patch_1">
   <path d="M 0 353.99952 
L 469.19952 353.99952 
L 469.19952 0 
L 0 0 
z
" style="fill: #ffffff"/>
  </g>
  <g id="axes_1">
   <g id="patch_2">
    <path d="M 40.925 315.798739 
L 461.99952 315.798739 
L 461.99952 7.2 
L 40.925 7.2 
z
" style="fill: #ffffff"/>
   </g>
   <g id="matplotlib.axis_1">
    <g id="xtick_1">
     <g id="line2d_1">
      <defs>
       <path id="m5e0a45f962" d="M 0 0 
L 0 3.5 
" style="stroke: #000000; stroke-width: 0.8"/>
      </defs>
      <g>
       <use xlink:href="#m5e0a45f962" x="60.064751" y="315.798739" style="stroke: #000000; stroke-width: 0.8"/>
      </g>
     </g>
     <g id="text_1">
      <!-- 0 -->
      <g transform="translate(56.883501 330.396395) scale(0.1 -0.1)">
       <defs>
        <path id="DejaVuSans-13" d="M 2034 4250 
Q 1547 4250 1301 3770 
Q 1056 3291 1056 2328 
Q 1056 1369 1301 889 
Q 1547 409 2034 409 
Q 2525 409 2770 889 
Q 3016 1369 3016 2328 
Q 3016 3291 2770 3770 
Q 2525 4250 2034 4250 
z
M 2034 4750 
Q 2819 4750 3233 4129 
Q 3647 3509 3647 2328 
Q 3647 1150 3233 529 
Q 2819 -91 2034 -91 
Q 1250 -91 836 529 
Q 422 1150 422 2328 
Q 422 3509 836 4129 
Q 1250 4750 2034 4750 
z
" transform="scale(0.015625)"/>
       </defs>
       <use xlink:href="#DejaVuSans-13"/>
      </g>
     </g>
    </g>
    <g id="xtick_2">
     <g id="line2d_2">
      <g>
       <use xlink:href="#m5e0a45f962" x="136.618128" y="315.798739" style="stroke: #000000; stroke-width: 0.8"/>
      </g>
     </g>
     <g id="text_2">
      <!-- 200 -->
      <g transform="translate(127.074378 330.396395) scale(0.1 -0.1)">
       <defs>
        <path id="DejaVuSans-15" d="M 1228 531 
L 3431 531 
L 3431 0 
L 469 0 
L 469 531 
Q 828 903 1448 1529 
Q 2069 2156 2228 2338 
Q 2531 2678 2651 2914 
Q 2772 3150 2772 3378 
Q 2772 3750 2511 3984 
Q 2250 4219 1831 4219 
Q 1534 4219 1204 4116 
Q 875 4013 500 3803 
L 500 4441 
Q 881 4594 1212 4672 
Q 1544 4750 1819 4750 
Q 2544 4750 2975 4387 
Q 3406 4025 3406 3419 
Q 3406 3131 3298 2873 
Q 3191 2616 2906 2266 
Q 2828 2175 2409 1742 
Q 1991 1309 1228 531 
z
" transform="scale(0.015625)"/>
       </defs>
       <use xlink:href="#DejaVuSans-15"/>
       <use xlink:href="#DejaVuSans-13" transform="translate(63.625 0)"/>
       <use xlink:href="#DejaVuSans-13" transform="translate(127.25 0)"/>
      </g>
     </g>
    </g>
    <g id="xtick_3">
     <g id="line2d_3">
      <g>
       <use xlink:href="#m5e0a45f962" x="213.171505" y="315.798739" style="stroke: #000000; stroke-width: 0.8"/>
      </g>
     </g>
     <g id="text_3">
      <!-- 400 -->
      <g transform="translate(203.627755 330.396395) scale(0.1 -0.1)">
       <defs>
        <path id="DejaVuSans-17" d="M 2419 4116 
L 825 1625 
L 2419 1625 
L 2419 4116 
z
M 2253 4666 
L 3047 4666 
L 3047 1625 
L 3713 1625 
L 3713 1100 
L 3047 1100 
L 3047 0 
L 2419 0 
L 2419 1100 
L 313 1100 
L 313 1709 
L 2253 4666 
z
" transform="scale(0.015625)"/>
       </defs>
       <use xlink:href="#DejaVuSans-17"/>
       <use xlink:href="#DejaVuSans-13" transform="translate(63.625 0)"/>
       <use xlink:href="#DejaVuSans-13" transform="translate(127.25 0)"/>
      </g>
     </g>
    </g>
    <g id="xtick_4">
     <g id="line2d_4">
      <g>
       <use xlink:href="#m5e0a45f962" x="289.724882" y="315.798739" style="stroke: #000000; stroke-width: 0.8"/>
      </g>
     </g>
     <g id="text_4">
      <!-- 600 -->
      <g transform="translate(280.181132 330.396395) scale(0.1 -0.1)">
       <defs>
        <path id="DejaVuSans-19" d="M 2113 2584 
Q 1688 2584 1439 2293 
Q 1191 2003 1191 1497 
Q 1191 994 1439 701 
Q 1688 409 2113 409 
Q 2538 409 2786 701 
Q 3034 994 3034 1497 
Q 3034 2003 2786 2293 
Q 2538 2584 2113 2584 
z
M 3366 4563 
L 3366 3988 
Q 3128 4100 2886 4159 
Q 2644 4219 2406 4219 
Q 1781 4219 1451 3797 
Q 1122 3375 1075 2522 
Q 1259 2794 1537 2939 
Q 1816 3084 2150 3084 
Q 2853 3084 3261 2657 
Q 3669 2231 3669 1497 
Q 3669 778 3244 343 
Q 2819 -91 2113 -91 
Q 1303 -91 875 529 
Q 447 1150 447 2328 
Q 447 3434 972 4092 
Q 1497 4750 2381 4750 
Q 2619 4750 2861 4703 
Q 3103 4656 3366 4563 
z
" transform="scale(0.015625)"/>
       </defs>
       <use xlink:href="#DejaVuSans-19"/>
       <use xlink:href="#DejaVuSans-13" transform="translate(63.625 0)"/>
       <use xlink:href="#DejaVuSans-13" transform="translate(127.25 0)"/>
      </g>
     </g>
    </g>
    <g id="xtick_5">
     <g id="line2d_5">
      <g>
       <use xlink:href="#m5e0a45f962" x="366.278258" y="315.798739" style="stroke: #000000; stroke-width: 0.8"/>
      </g>
     </g>
     <g id="text_5">
      <!-- 800 -->
      <g transform="translate(356.734508 330.396395) scale(0.1 -0.1)">
       <defs>
        <path id="DejaVuSans-1b" d="M 2034 2216 
Q 1584 2216 1326 1975 
Q 1069 1734 1069 1313 
Q 1069 891 1326 650 
Q 1584 409 2034 409 
Q 2484 409 2743 651 
Q 3003 894 3003 1313 
Q 3003 1734 2745 1975 
Q 2488 2216 2034 2216 
z
M 1403 2484 
Q 997 2584 770 2862 
Q 544 3141 544 3541 
Q 544 4100 942 4425 
Q 1341 4750 2034 4750 
Q 2731 4750 3128 4425 
Q 3525 4100 3525 3541 
Q 3525 3141 3298 2862 
Q 3072 2584 2669 2484 
Q 3125 2378 3379 2068 
Q 3634 1759 3634 1313 
Q 3634 634 3220 271 
Q 2806 -91 2034 -91 
Q 1263 -91 848 271 
Q 434 634 434 1313 
Q 434 1759 690 2068 
Q 947 2378 1403 2484 
z
M 1172 3481 
Q 1172 3119 1398 2916 
Q 1625 2713 2034 2713 
Q 2441 2713 2670 2916 
Q 2900 3119 2900 3481 
Q 2900 3844 2670 4047 
Q 2441 4250 2034 4250 
Q 1625 4250 1398 4047 
Q 1172 3844 1172 3481 
z
" transform="scale(0.015625)"/>
       </defs>
       <use xlink:href="#DejaVuSans-1b"/>
       <use xlink:href="#DejaVuSans-13" transform="translate(63.625 0)"/>
       <use xlink:href="#DejaVuSans-13" transform="translate(127.25 0)"/>
      </g>
     </g>
    </g>
    <g id="xtick_6">
     <g id="line2d_6">
      <g>
       <use xlink:href="#m5e0a45f962" x="442.831635" y="315.798739" style="stroke: #000000; stroke-width: 0.8"/>
      </g>
     </g>
     <g id="text_6">
      <!-- 1000 -->
      <g transform="translate(430.106635 330.396395) scale(0.1 -0.1)">
       <defs>
        <path id="DejaVuSans-14" d="M 794 531 
L 1825 531 
L 1825 4091 
L 703 3866 
L 703 4441 
L 1819 4666 
L 2450 4666 
L 2450 531 
L 3481 531 
L 3481 0 
L 794 0 
L 794 531 
z
" transform="scale(0.015625)"/>
       </defs>
       <use xlink:href="#DejaVuSans-14"/>
       <use xlink:href="#DejaVuSans-13" transform="translate(63.625 0)"/>
       <use xlink:href="#DejaVuSans-13" transform="translate(127.25 0)"/>
       <use xlink:href="#DejaVuSans-13" transform="translate(190.875 0)"/>
      </g>
     </g>
    </g>
    <g id="text_7">
     <!-- Time -->
     <g transform="translate(239.226323 344.397176) scale(0.1 -0.1)">
      <defs>
       <path id="DejaVuSans-37" d="M -19 4666 
L 3928 4666 
L 3928 4134 
L 2272 4134 
L 2272 0 
L 1638 0 
L 1638 4134 
L -19 4134 
L -19 4666 
z
" transform="scale(0.015625)"/>
       <path id="DejaVuSans-4c" d="M 603 3500 
L 1178 3500 
L 1178 0 
L 603 0 
L 603 3500 
z
M 603 4863 
L 1178 4863 
L 1178 4134 
L 603 4134 
L 603 4863 
z
" transform="scale(0.015625)"/>
       <path id="DejaVuSans-50" d="M 3328 2828 
Q 3544 3216 3844 3400 
Q 4144 3584 4550 3584 
Q 5097 3584 5394 3201 
Q 5691 2819 5691 2113 
L 5691 0 
L 5113 0 
L 5113 2094 
Q 5113 2597 4934 2840 
Q 4756 3084 4391 3084 
Q 3944 3084 3684 2787 
Q 3425 2491 3425 1978 
L 3425 0 
L 2847 0 
L 2847 2094 
Q 2847 2600 2669 2842 
Q 2491 3084 2119 3084 
Q 1678 3084 1418 2786 
Q 1159 2488 1159 1978 
L 1159 0 
L 581 0 
L 581 3500 
L 1159 3500 
L 1159 2956 
Q 1356 3278 1631 3431 
Q 1906 3584 2284 3584 
Q 2666 3584 2933 3390 
Q 3200 3197 3328 2828 
z
" transform="scale(0.015625)"/>
       <path id="DejaVuSans-48" d="M 3597 1894 
L 3597 1613 
L 953 1613 
Q 991 1019 1311 708 
Q 1631 397 2203 397 
Q 2534 397 2845 478 
Q 3156 559 3463 722 
L 3463 178 
Q 3153 47 2828 -22 
Q 2503 -91 2169 -91 
Q 1331 -91 842 396 
Q 353 884 353 1716 
Q 353 2575 817 3079 
Q 1281 3584 2069 3584 
Q 2775 3584 3186 3129 
Q 3597 2675 3597 1894 
z
M 3022 2063 
Q 3016 2534 2758 2815 
Q 2500 3097 2075 3097 
Q 1594 3097 1305 2825 
Q 1016 2553 972 2059 
L 3022 2063 
z
" transform="scale(0.015625)"/>
      </defs>
      <use xlink:href="#DejaVuSans-37"/>
      <use xlink:href="#DejaVuSans-4c" transform="translate(58 0)"/>
      <use xlink:href="#DejaVuSans-50" transform="translate(85.78125 0)"/>
      <use xlink:href="#DejaVuSans-48" transform="translate(183.1875 0)"/>
     </g>
    </g>
   </g>
   <g id="matplotlib.axis_2">
    <g id="ytick_1">
     <g id="line2d_7">
      <defs>
       <path id="mb735e879c5" d="M 0 0 
L -3.5 0 
" style="stroke: #000000; stroke-width: 0.8"/>
      </defs>
      <g>
       <use xlink:href="#mb735e879c5" x="40.925" y="279.327979" style="stroke: #000000; stroke-width: 0.8"/>
      </g>
     </g>
     <g id="text_8">
      <!-- 10 -->
      <g transform="translate(21.2 283.126807) scale(0.1 -0.1)">
       <use xlink:href="#DejaVuSans-14"/>
       <use xlink:href="#DejaVuSans-13" transform="translate(63.625 0)"/>
      </g>
     </g>
    </g>
    <g id="ytick_2">
     <g id="line2d_8">
      <g>
       <use xlink:href="#mb735e879c5" x="40.925" y="223.219117" style="stroke: #000000; stroke-width: 0.8"/>
      </g>
     </g>
     <g id="text_9">
      <!-- 15 -->
      <g transform="translate(21.2 227.017945) scale(0.1 -0.1)">
       <defs>
        <path id="DejaVuSans-18" d="M 691 4666 
L 3169 4666 
L 3169 4134 
L 1269 4134 
L 1269 2991 
Q 1406 3038 1543 3061 
Q 1681 3084 1819 3084 
Q 2600 3084 3056 2656 
Q 3513 2228 3513 1497 
Q 3513 744 3044 326 
Q 2575 -91 1722 -91 
Q 1428 -91 1123 -41 
Q 819 9 494 109 
L 494 744 
Q 775 591 1075 516 
Q 1375 441 1709 441 
Q 2250 441 2565 725 
Q 2881 1009 2881 1497 
Q 2881 1984 2565 2268 
Q 2250 2553 1709 2553 
Q 1456 2553 1204 2497 
Q 953 2441 691 2322 
L 691 4666 
z
" transform="scale(0.015625)"/>
       </defs>
       <use xlink:href="#DejaVuSans-14"/>
       <use xlink:href="#DejaVuSans-18" transform="translate(63.625 0)"/>
      </g>
     </g>
    </g>
    <g id="ytick_3">
     <g id="line2d_9">
      <g>
       <use xlink:href="#mb735e879c5" x="40.925" y="167.110256" style="stroke: #000000; stroke-width: 0.8"/>
      </g>
     </g>
     <g id="text_10">
      <!-- 20 -->
      <g transform="translate(21.2 170.909084) scale(0.1 -0.1)">
       <use xlink:href="#DejaVuSans-15"/>
       <use xlink:href="#DejaVuSans-13" transform="translate(63.625 0)"/>
      </g>
     </g>
    </g>
    <g id="ytick_4">
     <g id="line2d_10">
      <g>
       <use xlink:href="#mb735e879c5" x="40.925" y="111.001394" style="stroke: #000000; stroke-width: 0.8"/>
      </g>
     </g>
     <g id="text_11">
      <!-- 25 -->
      <g transform="translate(21.2 114.800222) scale(0.1 -0.1)">
       <use xlink:href="#DejaVuSans-15"/>
       <use xlink:href="#DejaVuSans-18" transform="translate(63.625 0)"/>
      </g>
     </g>
    </g>
    <g id="ytick_5">
     <g id="line2d_11">
      <g>
       <use xlink:href="#mb735e879c5" x="40.925" y="54.892532" style="stroke: #000000; stroke-width: 0.8"/>
      </g>
     </g>
     <g id="text_12">
      <!-- 30 -->
      <g transform="translate(21.2 58.69136) scale(0.1 -0.1)">
       <defs>
        <path id="DejaVuSans-16" d="M 2597 2516 
Q 3050 2419 3304 2112 
Q 3559 1806 3559 1356 
Q 3559 666 3084 287 
Q 2609 -91 1734 -91 
Q 1441 -91 1130 -33 
Q 819 25 488 141 
L 488 750 
Q 750 597 1062 519 
Q 1375 441 1716 441 
Q 2309 441 2620 675 
Q 2931 909 2931 1356 
Q 2931 1769 2642 2001 
Q 2353 2234 1838 2234 
L 1294 2234 
L 1294 2753 
L 1863 2753 
Q 2328 2753 2575 2939 
Q 2822 3125 2822 3475 
Q 2822 3834 2567 4026 
Q 2313 4219 1838 4219 
Q 1578 4219 1281 4162 
Q 984 4106 628 3988 
L 628 4550 
Q 988 4650 1302 4700 
Q 1616 4750 1894 4750 
Q 2613 4750 3031 4423 
Q 3450 4097 3450 3541 
Q 3450 3153 3228 2886 
Q 3006 2619 2597 2516 
z
" transform="scale(0.015625)"/>
       </defs>
       <use xlink:href="#DejaVuSans-16"/>
       <use xlink:href="#DejaVuSans-13" transform="translate(63.625 0)"/>
      </g>
     </g>
    </g>
    <g id="text_13">
     <!-- C -->
     <g transform="translate(14.797656 164.990776) rotate(-90) scale(0.1 -0.1)">
      <defs>
       <path id="DejaVuSans-26" d="M 4122 4306 
L 4122 3641 
Q 3803 3938 3442 4084 
Q 3081 4231 2675 4231 
Q 1875 4231 1450 3742 
Q 1025 3253 1025 2328 
Q 1025 1406 1450 917 
Q 1875 428 2675 428 
Q 3081 428 3442 575 
Q 3803 722 4122 1019 
L 4122 359 
Q 3791 134 3420 21 
Q 3050 -91 2638 -91 
Q 1578 -91 968 557 
Q 359 1206 359 2328 
Q 359 3453 968 4101 
Q 1578 4750 2638 4750 
Q 3056 4750 3426 4639 
Q 3797 4528 4122 4306 
z
" transform="scale(0.015625)"/>
      </defs>
      <use xlink:href="#DejaVuSans-26"/>
     </g>
    </g>
   </g>
   <g id="line2d_12">
    <path d="M 60.064751 279.327979 
L 61.679391 279.327979 
L 61.946758 290.549751 
L 64.56286 290.549751 
L 64.628114 301.771523 
L 68.597726 301.771523 
L 69.086768 290.549751 
L 69.40895 290.549751 
L 69.479294 279.327979 
L 69.835529 279.327979 
L 70.084229 268.106206 
L 70.812212 268.106206 
L 70.817197 279.327979 
L 71.501361 268.106206 
L 72.105801 268.106206 
L 72.189402 256.884434 
L 73.910742 256.884434 
L 74.083238 245.662662 
L 76.638943 245.662662 
L 76.785401 234.440889 
L 77.39147 234.440889 
L 78.254844 245.662662 
L 78.897032 245.662662 
L 78.947767 256.884434 
L 79.091182 256.884434 
L 79.428377 268.106206 
L 79.709921 268.106206 
L 79.958095 256.884434 
L 80.087447 268.106206 
L 80.590474 268.106206 
L 80.778 279.327979 
L 80.910335 268.106206 
L 80.987708 268.106206 
L 81.112718 256.884434 
L 81.503535 268.106206 
L 81.593575 279.327979 
L 82.219985 268.106206 
L 82.474745 268.106206 
L 82.773973 279.327979 
L 83.224596 279.327979 
L 83.626477 290.549751 
L 86.937992 290.549751 
L 86.976017 279.327979 
L 87.454372 290.549751 
L 87.855146 279.327979 
L 87.86155 268.106206 
L 87.971153 279.327979 
L 88.448339 268.106206 
L 92.595673 268.106206 
L 92.791662 256.884434 
L 93.733345 256.884434 
L 94.44335 245.662662 
L 95.440173 245.662662 
L 95.611725 234.440889 
L 97.176261 234.440889 
L 97.22141 245.662662 
L 97.421865 245.662662 
L 97.565028 234.440889 
L 98.065173 256.884434 
L 100.637357 256.884434 
L 100.732096 245.662662 
L 101.188372 234.440889 
L 101.33233 234.440889 
L 101.809639 245.662662 
L 101.945494 234.440889 
L 105.329669 234.440889 
L 105.561716 223.219117 
L 106.256039 223.219117 
L 106.287339 211.997345 
L 106.551074 211.997345 
L 106.593425 200.775572 
L 106.92939 200.775572 
L 107.02295 189.5538 
L 107.530872 189.5538 
L 107.558668 178.332028 
L 108.08162 178.332028 
L 108.148185 189.5538 
L 108.331781 189.5538 
L 108.857197 178.332028 
L 108.890291 189.5538 
L 109.192157 178.332028 
L 109.634301 178.332028 
L 109.727715 167.110256 
L 109.993516 167.110256 
L 110.0932 178.332028 
L 111.002346 178.332028 
L 111.136163 189.5538 
L 118.326669 189.5538 
L 118.784037 200.775572 
L 119.43067 200.775572 
L 119.786014 189.5538 
L 120.048208 200.775572 
L 121.396462 200.775572 
L 121.480892 189.5538 
L 122.210471 200.775572 
L 122.484379 200.775572 
L 122.630111 189.5538 
L 123.451998 189.5538 
L 123.720678 178.332028 
L 123.823481 167.110256 
L 123.916435 178.332028 
L 124.402214 178.332028 
L 124.509744 189.5538 
L 125.468842 189.5538 
L 125.674909 200.775572 
L 125.825011 189.5538 
L 125.860918 200.775572 
L 128.860817 200.775572 
L 128.934919 189.5538 
L 129.06478 200.775572 
L 129.323554 189.5538 
L 129.390868 200.775572 
L 130.190006 200.775572 
L 130.439771 189.5538 
L 131.39927 189.5538 
L 131.615373 178.332028 
L 132.549412 178.332028 
L 132.712259 189.5538 
L 132.819159 178.332028 
L 133.108122 167.110256 
L 133.671335 178.332028 
L 134.473381 178.332028 
L 135.226278 189.5538 
L 136.302972 189.5538 
L 136.424861 178.332028 
L 136.731914 167.110256 
L 136.801242 167.110256 
L 136.95224 178.332028 
L 139.454713 178.332028 
L 139.658447 189.5538 
L 139.759265 178.332028 
L 140.498083 178.332028 
L 140.791694 189.5538 
L 141.586325 189.5538 
L 141.645508 178.332028 
L 142.200936 178.332028 
L 142.653211 167.110256 
L 142.890653 167.110256 
L 143.890621 178.332028 
L 144.272836 189.5538 
L 145.295379 178.332028 
L 145.67703 178.332028 
L 146.271091 189.5538 
L 146.592965 200.775572 
L 148.654209 200.775572 
L 149.387293 189.5538 
L 149.414356 178.332028 
L 149.630877 189.5538 
L 150.830507 189.5538 
L 150.874788 200.775572 
L 150.933496 189.5538 
L 153.795784 189.5538 
L 153.897506 200.775572 
L 155.439625 200.775572 
L 155.727566 189.5538 
L 156.010047 178.332028 
L 156.283064 189.5538 
L 156.780849 189.5538 
L 157.072693 167.110256 
L 157.518935 178.332028 
L 160.266221 178.332028 
L 160.362197 167.110256 
L 160.790868 155.888483 
L 160.917134 167.110256 
L 161.21581 167.110256 
L 161.43256 155.888483 
L 162.555232 155.888483 
L 162.864221 144.666711 
L 163.294643 144.666711 
L 163.526898 133.444939 
L 163.859308 133.444939 
L 164.235179 122.223166 
L 164.405382 133.444939 
L 165.140884 133.444939 
L 165.160856 144.666711 
L 165.671986 144.666711 
L 165.875493 133.444939 
L 167.040295 133.444939 
L 167.737914 111.001394 
L 168.428308 122.223166 
L 169.281475 111.001394 
L 169.494366 111.001394 
L 169.619146 99.779622 
L 171.462909 99.779622 
L 171.485511 111.001394 
L 171.515744 99.779622 
L 172.115283 111.001394 
L 174.064895 111.001394 
L 174.898454 122.223166 
L 175.089586 122.223166 
L 176.057732 111.001394 
L 178.543559 111.001394 
L 178.642134 122.223166 
L 178.734411 122.223166 
L 178.769285 111.001394 
L 182.121333 111.001394 
L 182.423845 122.223166 
L 182.474499 122.223166 
L 183.147195 99.779622 
L 183.275466 99.779622 
L 183.322693 88.557849 
L 183.485378 77.336077 
L 183.762455 88.557849 
L 183.780666 77.336077 
L 183.964761 77.336077 
L 183.977562 88.557849 
L 184.19589 99.779622 
L 185.491 99.779622 
L 185.684693 111.001394 
L 185.892369 99.779622 
L 188.617588 99.779622 
L 188.879897 111.001394 
L 188.915636 99.779622 
L 189.420962 99.779622 
L 189.683021 111.001394 
L 189.790947 99.779622 
L 190.253098 99.779622 
L 190.649117 122.223166 
L 191.834449 122.223166 
L 192.411184 111.001394 
L 192.781386 111.001394 
L 192.835995 99.779622 
L 193.042943 88.557849 
L 193.261675 88.557849 
L 193.443528 77.336077 
L 193.98609 77.336077 
L 194.140694 66.114305 
L 194.257006 77.336077 
L 194.682439 77.336077 
L 194.84837 88.557849 
L 194.949812 77.336077 
L 195.067605 88.557849 
L 195.80024 99.779622 
L 196.749852 99.779622 
L 197.303617 122.223166 
L 197.866707 122.223166 
L 198.055121 111.001394 
L 199.80088 111.001394 
L 199.956993 122.223166 
L 201.60874 122.223166 
L 201.964142 144.666711 
L 202.314602 133.444939 
L 202.725215 133.444939 
L 202.819645 144.666711 
L 204.210936 144.666711 
L 204.262359 155.888483 
L 204.887657 155.888483 
L 205.004118 144.666711 
L 206.403533 144.666711 
L 206.474285 133.444939 
L 206.689906 122.223166 
L 207.585208 122.223166 
L 208.214602 133.444939 
L 208.552522 133.444939 
L 208.65087 122.223166 
L 209.005588 122.223166 
L 209.261814 111.001394 
L 209.518731 111.001394 
L 209.686966 122.223166 
L 209.990527 122.223166 
L 211.032526 111.001394 
L 212.013564 99.779622 
L 212.241757 99.779622 
L 212.476716 111.001394 
L 213.498467 111.001394 
L 213.646585 122.223166 
L 215.481467 122.223166 
L 216.151621 133.444939 
L 216.374783 133.444939 
L 217.028638 144.666711 
L 217.074328 167.110256 
L 217.786198 155.888483 
L 218.60946 155.888483 
L 219.135821 167.110256 
L 219.822602 167.110256 
L 219.97889 155.888483 
L 223.161341 155.888483 
L 223.607801 144.666711 
L 223.753976 133.444939 
L 224.181584 133.444939 
L 224.202086 144.666711 
L 225.15059 144.666711 
L 225.228177 133.444939 
L 227.565972 133.444939 
L 227.881483 122.223166 
L 228.299317 122.223166 
L 228.738483 133.444939 
L 229.366969 133.444939 
L 229.440763 122.223166 
L 229.645352 122.223166 
L 229.761041 111.001394 
L 230.115456 111.001394 
L 230.218769 99.779622 
L 230.366697 111.001394 
L 230.449682 99.779622 
L 230.85177 111.001394 
L 231.055851 122.223166 
L 231.267149 122.223166 
L 231.525754 133.444939 
L 232.038068 133.444939 
L 232.116274 122.223166 
L 232.361783 133.444939 
L 232.41758 122.223166 
L 232.804934 122.223166 
L 232.9167 144.666711 
L 234.138954 144.666711 
L 234.3412 133.444939 
L 234.676089 133.444939 
L 234.699748 144.666711 
L 235.750457 144.666711 
L 235.879243 133.444939 
L 236.113883 133.444939 
L 236.60995 144.666711 
L 237.272537 144.666711 
L 237.493328 122.223166 
L 237.828992 122.223166 
L 237.92075 133.444939 
L 237.925726 122.223166 
L 239.207494 122.223166 
L 239.893178 144.666711 
L 240.614061 144.666711 
L 241.201504 155.888483 
L 242.017022 155.888483 
L 242.112735 167.110256 
L 242.338413 155.888483 
L 242.679787 155.888483 
L 242.754456 144.666711 
L 242.897389 155.888483 
L 243.015159 155.888483 
L 243.065445 167.110256 
L 244.832607 167.110256 
L 244.868669 178.332028 
L 246.56208 178.332028 
L 246.58834 189.5538 
L 247.29289 200.775572 
L 248.12455 200.775572 
L 248.416324 189.5538 
L 249.780085 189.5538 
L 249.927648 178.332028 
L 251.706592 178.332028 
L 251.795057 167.110256 
L 252.262324 155.888483 
L 253.682165 155.888483 
L 253.803118 167.110256 
L 255.720757 167.110256 
L 255.743657 155.888483 
L 255.893437 155.888483 
L 256.08975 144.666711 
L 256.153868 144.666711 
L 256.551708 133.444939 
L 256.990188 133.444939 
L 257.07538 111.001394 
L 257.502351 111.001394 
L 257.92196 99.779622 
L 258.515775 99.779622 
L 259.022467 88.557849 
L 263.435545 88.557849 
L 263.818825 77.336077 
L 263.899345 88.557849 
L 264.085202 88.557849 
L 265.256186 77.336077 
L 265.321699 66.114305 
L 265.657497 66.114305 
L 265.851336 54.892532 
L 265.926137 66.114305 
L 266.832301 54.892532 
L 267.57147 66.114305 
L 268.218608 66.114305 
L 268.587338 77.336077 
L 270.931496 77.336077 
L 271.018231 88.557849 
L 273.007851 88.557849 
L 273.186653 99.779622 
L 273.252106 88.557849 
L 273.653481 88.557849 
L 274.067665 99.779622 
L 274.53733 99.779622 
L 274.571339 88.557849 
L 275.581921 88.557849 
L 276.13709 111.001394 
L 276.353315 111.001394 
L 276.609816 99.779622 
L 278.071279 99.779622 
L 278.276813 111.001394 
L 278.722814 111.001394 
L 279.020449 122.223166 
L 279.61671 122.223166 
L 279.633683 111.001394 
L 279.844136 111.001394 
L 279.891133 99.779622 
L 280.731946 99.779622 
L 280.92564 77.336077 
L 281.251063 77.336077 
L 281.289538 88.557849 
L 281.449619 77.336077 
L 281.744043 77.336077 
L 281.811354 88.557849 
L 282.179466 88.557849 
L 282.19374 77.336077 
L 284.206593 77.336077 
L 284.354881 88.557849 
L 284.59113 88.557849 
L 284.669473 77.336077 
L 284.830413 77.336077 
L 284.87717 88.557849 
L 286.540093 88.557849 
L 286.559065 99.779622 
L 287.003508 88.557849 
L 289.480553 88.557849 
L 289.624304 77.336077 
L 289.682728 88.557849 
L 289.768822 77.336077 
L 289.968857 66.114305 
L 290.096079 54.892532 
L 290.125397 66.114305 
L 290.614877 66.114305 
L 290.672259 54.892532 
L 291.324494 54.892532 
L 291.492497 43.67076 
L 291.877721 32.448988 
L 293.022809 21.227215 
L 293.335409 21.227215 
L 293.397253 32.448988 
L 293.886761 32.448988 
L 294.253421 43.67076 
L 295.203784 43.67076 
L 295.633286 54.892532 
L 295.711601 77.336077 
L 297.079473 77.336077 
L 297.146817 88.557849 
L 297.758428 88.557849 
L 298.268433 77.336077 
L 298.671398 88.557849 
L 299.482569 88.557849 
L 300.862009 66.114305 
L 300.908086 77.336077 
L 301.194613 88.557849 
L 301.621465 88.557849 
L 301.754672 66.114305 
L 302.636455 77.336077 
L 302.785054 88.557849 
L 304.800434 88.557849 
L 304.842782 77.336077 
L 305.034844 99.779622 
L 305.226421 99.779622 
L 305.627097 111.001394 
L 308.994656 111.001394 
L 309.115222 122.223166 
L 310.879492 122.223166 
L 311.013466 133.444939 
L 311.23428 133.444939 
L 311.372583 144.666711 
L 311.693886 133.444939 
L 311.948365 133.444939 
L 312.818152 144.666711 
L 313.165726 144.666711 
L 313.312746 178.332028 
L 313.942849 178.332028 
L 314.239899 167.110256 
L 314.41294 167.110256 
L 314.591546 155.888483 
L 315.185277 167.110256 
L 315.699553 167.110256 
L 315.899052 155.888483 
L 315.998579 167.110256 
L 317.452427 167.110256 
L 317.739503 155.888483 
L 318.585136 155.888483 
L 318.814006 133.444939 
L 318.831106 133.444939 
L 318.871999 122.223166 
L 319.072493 122.223166 
L 319.439156 111.001394 
L 320.171893 99.779622 
L 320.489232 88.557849 
L 321.145113 88.557849 
L 321.23398 99.779622 
L 322.321446 99.779622 
L 322.354328 111.001394 
L 322.424538 99.779622 
L 322.9762 99.779622 
L 323.540403 88.557849 
L 324.885729 88.557849 
L 325.084906 77.336077 
L 325.760376 77.336077 
L 326.294819 88.557849 
L 326.827031 77.336077 
L 327.096433 77.336077 
L 327.874125 122.223166 
L 329.280252 122.223166 
L 329.329334 111.001394 
L 329.574765 99.779622 
L 331.591663 99.779622 
L 332.207755 111.001394 
L 332.326743 122.223166 
L 336.361483 122.223166 
L 336.951507 111.001394 
L 338.855905 111.001394 
L 338.974678 88.557849 
L 338.987802 99.779622 
L 339.306351 99.779622 
L 339.580016 111.001394 
L 339.665365 122.223166 
L 339.762339 122.223166 
L 339.901534 133.444939 
L 342.294389 133.444939 
L 342.357702 122.223166 
L 342.576546 111.001394 
L 344.121097 111.001394 
L 344.619869 122.223166 
L 346.278694 122.223166 
L 346.426429 133.444939 
L 346.851861 133.444939 
L 346.934179 122.223166 
L 347.08374 111.001394 
L 347.437612 111.001394 
L 347.540731 99.779622 
L 349.698431 99.779622 
L 350.072322 88.557849 
L 350.392169 88.557849 
L 350.428136 77.336077 
L 350.8909 77.336077 
L 351.132407 66.114305 
L 351.680553 66.114305 
L 351.903777 43.67076 
L 352.242907 43.67076 
L 352.506056 54.892532 
L 352.756806 54.892532 
L 352.852175 43.67076 
L 353.798663 32.448988 
L 354.980927 32.448988 
L 355.065733 43.67076 
L 355.92831 43.67076 
L 356.016969 32.448988 
L 356.025821 43.67076 
L 356.055172 54.892532 
L 356.422935 66.114305 
L 357.271715 66.114305 
L 357.397668 77.336077 
L 358.425314 77.336077 
L 358.85456 88.557849 
L 359.151881 77.336077 
L 360.780951 77.336077 
L 361.012572 66.114305 
L 361.554559 66.114305 
L 361.613893 54.892532 
L 361.806829 66.114305 
L 362.270439 77.336077 
L 362.587015 77.336077 
L 362.680778 88.557849 
L 363.409606 88.557849 
L 364.00031 77.336077 
L 364.121848 66.114305 
L 364.340737 66.114305 
L 364.539371 77.336077 
L 364.590184 88.557849 
L 364.807704 88.557849 
L 365.222705 99.779622 
L 367.818511 99.779622 
L 368.049467 88.557849 
L 368.070521 99.779622 
L 368.1021 88.557849 
L 370.262723 88.557849 
L 370.732396 99.779622 
L 370.85853 99.779622 
L 370.910992 88.557849 
L 371.445257 99.779622 
L 372.203389 111.001394 
L 373.457354 111.001394 
L 373.495426 99.779622 
L 377.193339 99.779622 
L 377.255345 88.557849 
L 378.41041 88.557849 
L 379.197441 77.336077 
L 379.975491 77.336077 
L 379.987011 88.557849 
L 380.0825 77.336077 
L 380.273064 88.557849 
L 381.312171 88.557849 
L 381.418285 99.779622 
L 382.308216 99.779622 
L 382.399999 54.892532 
L 382.6788 54.892532 
L 383.93691 66.114305 
L 383.984952 77.336077 
L 384.222471 66.114305 
L 386.694824 66.114305 
L 387.060436 54.892532 
L 387.581899 54.892532 
L 387.63202 43.67076 
L 388.729308 43.67076 
L 388.829668 32.448988 
L 389.164837 43.67076 
L 389.437768 32.448988 
L 390.222705 32.448988 
L 390.266542 21.227215 
L 391.046402 32.448988 
L 391.928343 32.448988 
L 391.991172 43.67076 
L 392.971229 43.67076 
L 393.049237 54.892532 
L 393.41495 66.114305 
L 393.887947 54.892532 
L 394.092588 43.67076 
L 395.781148 43.67076 
L 397.071216 32.448988 
L 397.142865 32.448988 
L 397.24427 43.67076 
L 397.263069 54.892532 
L 397.47452 54.892532 
L 398.177781 43.67076 
L 399.568232 43.67076 
L 400.075633 21.227215 
L 400.29872 21.227215 
L 400.480185 32.448988 
L 401.139304 43.67076 
L 401.33651 54.892532 
L 402.071695 54.892532 
L 402.088086 66.114305 
L 403.588709 66.114305 
L 403.811518 77.336077 
L 404.052559 77.336077 
L 404.147964 66.114305 
L 404.281833 66.114305 
L 404.468786 54.892532 
L 405.934495 54.892532 
L 406.253579 66.114305 
L 406.395102 66.114305 
L 406.544278 54.892532 
L 406.697756 54.892532 
L 406.947197 66.114305 
L 407.117763 66.114305 
L 407.848611 54.892532 
L 408.225617 54.892532 
L 408.600625 66.114305 
L 408.69596 77.336077 
L 408.863177 88.557849 
L 409.065705 88.557849 
L 409.112277 77.336077 
L 409.605623 77.336077 
L 409.820807 88.557849 
L 409.991691 88.557849 
L 409.991717 99.779622 
L 410.640281 99.779622 
L 410.687014 88.557849 
L 410.833061 88.557849 
L 410.909575 77.336077 
L 411.629488 88.557849 
L 412.012272 88.557849 
L 412.245524 99.779622 
L 412.528311 99.779622 
L 412.980526 111.001394 
L 413.157175 99.779622 
L 413.278946 111.001394 
L 415.314572 111.001394 
L 415.355711 122.223166 
L 415.539225 122.223166 
L 415.594291 133.444939 
L 416.871484 133.444939 
L 418.154797 122.223166 
L 418.169183 111.001394 
L 418.502851 99.779622 
L 418.615748 99.779622 
L 418.962557 88.557849 
L 419.144734 88.557849 
L 419.182416 99.779622 
L 419.433629 99.779622 
L 419.518055 111.001394 
L 422.239391 111.001394 
L 422.838005 122.223166 
L 422.859258 111.001394 
L 423.308697 111.001394 
L 423.435259 99.779622 
L 423.523675 99.779622 
L 423.561122 111.001394 
L 423.69688 111.001394 
L 423.721506 122.223166 
L 424.341487 122.223166 
L 424.405974 133.444939 
L 424.537243 133.444939 
L 424.615381 144.666711 
L 426.492894 144.666711 
L 426.759749 122.223166 
L 427.079344 111.001394 
L 427.129455 99.779622 
L 427.648118 99.779622 
L 427.664315 88.557849 
L 427.956853 111.001394 
L 430.859632 111.001394 
L 430.998751 144.666711 
L 431.172887 144.666711 
L 431.758276 133.444939 
L 432.761619 133.444939 
L 433.015021 144.666711 
L 433.019572 155.888483 
L 433.268761 155.888483 
L 433.290336 144.666711 
L 433.805032 144.666711 
L 433.991962 155.888483 
L 435.451864 155.888483 
L 435.49098 167.110256 
L 435.746914 167.110256 
L 435.867674 144.666711 
L 436.152364 144.666711 
L 436.557785 155.888483 
L 436.651478 144.666711 
L 436.851468 144.666711 
L 437.037243 133.444939 
L 437.830946 133.444939 
L 438.171449 144.666711 
L 438.318635 144.666711 
L 438.818355 155.888483 
L 438.967968 144.666711 
L 440.033253 144.666711 
L 440.062314 133.444939 
L 441.173924 122.223166 
L 441.192112 133.444939 
L 442.327685 144.666711 
L 442.859769 144.666711 
L 442.859769 144.666711 
" clip-path="url(#peefb8b0652)" style="fill: none; stroke: #000000; stroke-width: 1.5; stroke-linecap: square"/>
   </g>
   <g id="patch_3">
    <path d="M 40.925 315.798739 
L 40.925 7.2 
" style="fill: none; stroke: #000000; stroke-width: 0.8; stroke-linejoin: miter; stroke-linecap: square"/>
   </g>
   <g id="patch_4">
    <path d="M 461.99952 315.798739 
L 461.99952 7.2 
" style="fill: none; stroke: #000000; stroke-width: 0.8; stroke-linejoin: miter; stroke-linecap: square"/>
   </g>
   <g id="patch_5">
    <path d="M 40.925 315.798739 
L 461.99952 315.798739 
" style="fill: none; stroke: #000000; stroke-width: 0.8; stroke-linejoin: miter; stroke-linecap: square"/>
   </g>
   <g id="patch_6">
    <path d="M 40.925 7.2 
L 461.99952 7.2 
" style="fill: none; stroke: #000000; stroke-width: 0.8; stroke-linejoin: miter; stroke-linecap: square"/>
   </g>
  </g>
 </g>
 <defs>
  <clipPath id="peefb8b0652">
   <rect x="40.925" y="7.2" width="421.07452" height="308.598739"/>
  </clipPath>
 </defs>
</svg>
