<?xml version="1.0" encoding="utf-8" standalone="no"?>
<!DOCTYPE svg PUBLIC "-//W3C//DTD SVG 1.1//EN"
  "http://www.w3.org/Graphics/SVG/1.1/DTD/svg11.dtd">
<svg xmlns:xlink="http://www.w3.org/1999/xlink" width="332.39952pt" height="332.39952pt" viewBox="0 0 332.39952 332.39952" xmlns="http://www.w3.org/2000/svg" version="1.1">
 <metadata>
  <rdf:RDF xmlns:dc="http://purl.org/dc/elements/1.1/" xmlns:cc="http://creativecommons.org/ns#" xmlns:rdf="http://www.w3.org/1999/02/22-rdf-syntax-ns#">
   <cc:Work>
    <dc:type rdf:resource="http://purl.org/dc/dcmitype/StillImage"/>
    <dc:date>2026-07-10T15:18:34.327329</dc:date>
    <dc:format>image/svg+xml</dc:format>
    <dc:creator>
     <cc:Agent>
      <dc:title>Matplotlib v3.11.0, https://matplotlib.org/</dc:title>
     </cc:Agent>
    </dc:creator>
   </cc:Work>
  </rdf:RDF>
 </metadata>
 <defs>
  <style type="text/css">*{stroke-linejoin: round; stroke-linecap: butt}</style>
 </defs>
 <g id="figure_1">
  <g id="patch_1">
   <path d="M 0 332.39952 
L 332.39952 332.39952 
L 332.39952 0 
L 0 0 
z
" style="fill: #ffffff"/>
  </g>
  <g id="axes_1">
   <g id="patch_2">
    <path d="M 44.103906 96.532593 
L 325.19952 96.532593 
L 325.19952 7.2 
L 44.103906 7.2 
z
" style="fill: #ffffff"/>
   </g>
   <g id="matplotlib.axis_1">
    <g id="xtick_1">
     <g id="line2d_1">
      <defs>
       <path id="m8fb4bd8a59" d="M 0 0 
L 0 3.5 
" style="stroke: #000000; stroke-width: 0.8"/>
      </defs>
      <g>
       <use xlink:href="#m8fb4bd8a59" x="56.88098" y="96.532593" style="stroke: #000000; stroke-width: 0.8"/>
      </g>
     </g>
    </g>
    <g id="xtick_2">
     <g id="line2d_2">
      <g>
       <use xlink:href="#m8fb4bd8a59" x="88.809633" y="96.532593" style="stroke: #000000; stroke-width: 0.8"/>
      </g>
     </g>
    </g>
    <g id="xtick_3">
     <g id="line2d_3">
      <g>
       <use xlink:href="#m8fb4bd8a59" x="120.738287" y="96.532593" style="stroke: #000000; stroke-width: 0.8"/>
      </g>
     </g>
    </g>
    <g id="xtick_4">
     <g id="line2d_4">
      <g>
       <use xlink:href="#m8fb4bd8a59" x="152.666941" y="96.532593" style="stroke: #000000; stroke-width: 0.8"/>
      </g>
     </g>
    </g>
    <g id="xtick_5">
     <g id="line2d_5">
      <g>
       <use xlink:href="#m8fb4bd8a59" x="184.595595" y="96.532593" style="stroke: #000000; stroke-width: 0.8"/>
      </g>
     </g>
    </g>
    <g id="xtick_6">
     <g id="line2d_6">
      <g>
       <use xlink:href="#m8fb4bd8a59" x="216.524249" y="96.532593" style="stroke: #000000; stroke-width: 0.8"/>
      </g>
     </g>
    </g>
    <g id="xtick_7">
     <g id="line2d_7">
      <g>
       <use xlink:href="#m8fb4bd8a59" x="248.452903" y="96.532593" style="stroke: #000000; stroke-width: 0.8"/>
      </g>
     </g>
    </g>
    <g id="xtick_8">
     <g id="line2d_8">
      <g>
       <use xlink:href="#m8fb4bd8a59" x="280.381557" y="96.532593" style="stroke: #000000; stroke-width: 0.8"/>
      </g>
     </g>
    </g>
    <g id="xtick_9">
     <g id="line2d_9">
      <g>
       <use xlink:href="#m8fb4bd8a59" x="312.310211" y="96.532593" style="stroke: #000000; stroke-width: 0.8"/>
      </g>
     </g>
    </g>
   </g>
   <g id="matplotlib.axis_2">
    <g id="ytick_1">
     <g id="line2d_10">
      <defs>
       <path id="m6def12e529" d="M 0 0 
L -3.5 0 
" style="stroke: #000000; stroke-width: 0.8"/>
      </defs>
      <g>
       <use xlink:href="#m6def12e529" x="44.103906" y="92.472021" style="stroke: #000000; stroke-width: 0.8"/>
      </g>
     </g>
     <g id="text_1">
      <!-- 0 -->
      <g transform="translate(30.741406 96.270849) scale(0.1 -0.1)">
       <defs>
        <path id="DejaVuSans-13" d="M 2034 4250 
Q 1547 4250 1301 3770 
Q 1056 3291 1056 2328 
Q 1056 1369 1301 889 
Q 1547 409 2034 409 
Q 2525 409 2770 889 
Q 3016 1369 3016 2328 
Q 3016 3291 2770 3770 
Q 2525 4250 2034 4250 
z
M 2034 4750 
Q 2819 4750 3233 4129 
Q 3647 3509 3647 2328 
Q 3647 1150 3233 529 
Q 2819 -91 2034 -91 
Q 1250 -91 836 529 
Q 422 1150 422 2328 
Q 422 3509 836 4129 
Q 1250 4750 2034 4750 
z
" transform="scale(0.015625)"/>
       </defs>
       <use xlink:href="#DejaVuSans-13"/>
      </g>
     </g>
    </g>
    <g id="ytick_2">
     <g id="line2d_11">
      <g>
       <use xlink:href="#m6def12e529" x="44.103906" y="51.866296" style="stroke: #000000; stroke-width: 0.8"/>
      </g>
     </g>
     <g id="text_2">
      <!-- 5 -->
      <g transform="translate(30.741406 55.665125) scale(0.1 -0.1)">
       <defs>
        <path id="DejaVuSans-18" d="M 691 4666 
L 3169 4666 
L 3169 4134 
L 1269 4134 
L 1269 2991 
Q 1406 3038 1543 3061 
Q 1681 3084 1819 3084 
Q 2600 3084 3056 2656 
Q 3513 2228 3513 1497 
Q 3513 744 3044 326 
Q 2575 -91 1722 -91 
Q 1428 -91 1123 -41 
Q 819 9 494 109 
L 494 744 
Q 775 591 1075 516 
Q 1375 441 1709 441 
Q 2250 441 2565 725 
Q 2881 1009 2881 1497 
Q 2881 1984 2565 2268 
Q 2250 2553 1709 2553 
Q 1456 2553 1204 2497 
Q 953 2441 691 2322 
L 691 4666 
z
" transform="scale(0.015625)"/>
       </defs>
       <use xlink:href="#DejaVuSans-18"/>
      </g>
     </g>
    </g>
    <g id="ytick_3">
     <g id="line2d_12">
      <g>
       <use xlink:href="#m6def12e529" x="44.103906" y="11.260572" style="stroke: #000000; stroke-width: 0.8"/>
      </g>
     </g>
     <g id="text_3">
      <!-- 10 -->
      <g transform="translate(24.378906 15.059401) scale(0.1 -0.1)">
       <defs>
        <path id="DejaVuSans-14" d="M 794 531 
L 1825 531 
L 1825 4091 
L 703 3866 
L 703 4441 
L 1819 4666 
L 2450 4666 
L 2450 531 
L 3481 531 
L 3481 0 
L 794 0 
L 794 531 
z
" transform="scale(0.015625)"/>
       </defs>
       <use xlink:href="#DejaVuSans-14"/>
       <use xlink:href="#DejaVuSans-13" transform="translate(63.625 0)"/>
      </g>
     </g>
    </g>
    <g id="text_4">
     <!-- Extracellular lactose -->
     <g transform="translate(17.976563 102.838171) rotate(-90) scale(0.1 -0.1)">
      <defs>
       <path id="DejaVuSans-28" d="M 628 4666 
L 3578 4666 
L 3578 4134 
L 1259 4134 
L 1259 2753 
L 3481 2753 
L 3481 2222 
L 1259 2222 
L 1259 531 
L 3634 531 
L 3634 0 
L 628 0 
L 628 4666 
z
" transform="scale(0.015625)"/>
       <path id="DejaVuSans-5b" d="M 3513 3500 
L 2247 1797 
L 3578 0 
L 2900 0 
L 1881 1375 
L 863 0 
L 184 0 
L 1544 1831 
L 300 3500 
L 978 3500 
L 1906 2253 
L 2834 3500 
L 3513 3500 
z
" transform="scale(0.015625)"/>
       <path id="DejaVuSans-57" d="M 1172 4494 
L 1172 3500 
L 2356 3500 
L 2356 3053 
L 1172 3053 
L 1172 1153 
Q 1172 725 1289 603 
Q 1406 481 1766 481 
L 2356 481 
L 2356 0 
L 1766 0 
Q 1100 0 847 248 
Q 594 497 594 1153 
L 594 3053 
L 172 3053 
L 172 3500 
L 594 3500 
L 594 4494 
L 1172 4494 
z
" transform="scale(0.015625)"/>
       <path id="DejaVuSans-55" d="M 2631 2963 
Q 2534 3019 2420 3045 
Q 2306 3072 2169 3072 
Q 1681 3072 1420 2755 
Q 1159 2438 1159 1844 
L 1159 0 
L 581 0 
L 581 3500 
L 1159 3500 
L 1159 2956 
Q 1341 3275 1631 3429 
Q 1922 3584 2338 3584 
Q 2397 3584 2469 3576 
Q 2541 3569 2628 3553 
L 2631 2963 
z
" transform="scale(0.015625)"/>
       <path id="DejaVuSans-44" d="M 2194 1759 
Q 1497 1759 1228 1600 
Q 959 1441 959 1056 
Q 959 750 1161 570 
Q 1363 391 1709 391 
Q 2188 391 2477 730 
Q 2766 1069 2766 1631 
L 2766 1759 
L 2194 1759 
z
M 3341 1997 
L 3341 0 
L 2766 0 
L 2766 531 
Q 2569 213 2275 61 
Q 1981 -91 1556 -91 
Q 1019 -91 701 211 
Q 384 513 384 1019 
Q 384 1609 779 1909 
Q 1175 2209 1959 2209 
L 2766 2209 
L 2766 2266 
Q 2766 2663 2505 2880 
Q 2244 3097 1772 3097 
Q 1472 3097 1187 3025 
Q 903 2953 641 2809 
L 641 3341 
Q 956 3463 1253 3523 
Q 1550 3584 1831 3584 
Q 2591 3584 2966 3190 
Q 3341 2797 3341 1997 
z
" transform="scale(0.015625)"/>
       <path id="DejaVuSans-46" d="M 3122 3366 
L 3122 2828 
Q 2878 2963 2633 3030 
Q 2388 3097 2138 3097 
Q 1578 3097 1268 2742 
Q 959 2388 959 1747 
Q 959 1106 1268 751 
Q 1578 397 2138 397 
Q 2388 397 2633 464 
Q 2878 531 3122 666 
L 3122 134 
Q 2881 22 2623 -34 
Q 2366 -91 2075 -91 
Q 1284 -91 818 406 
Q 353 903 353 1747 
Q 353 2603 823 3093 
Q 1294 3584 2113 3584 
Q 2378 3584 2631 3529 
Q 2884 3475 3122 3366 
z
" transform="scale(0.015625)"/>
       <path id="DejaVuSans-48" d="M 3597 1894 
L 3597 1613 
L 953 1613 
Q 991 1019 1311 708 
Q 1631 397 2203 397 
Q 2534 397 2845 478 
Q 3156 559 3463 722 
L 3463 178 
Q 3153 47 2828 -22 
Q 2503 -91 2169 -91 
Q 1331 -91 842 396 
Q 353 884 353 1716 
Q 353 2575 817 3079 
Q 1281 3584 2069 3584 
Q 2775 3584 3186 3129 
Q 3597 2675 3597 1894 
z
M 3022 2063 
Q 3016 2534 2758 2815 
Q 2500 3097 2075 3097 
Q 1594 3097 1305 2825 
Q 1016 2553 972 2059 
L 3022 2063 
z
" transform="scale(0.015625)"/>
       <path id="DejaVuSans-4f" d="M 603 4863 
L 1178 4863 
L 1178 0 
L 603 0 
L 603 4863 
z
" transform="scale(0.015625)"/>
       <path id="DejaVuSans-58" d="M 544 1381 
L 544 3500 
L 1119 3500 
L 1119 1403 
Q 1119 906 1312 657 
Q 1506 409 1894 409 
Q 2359 409 2629 706 
Q 2900 1003 2900 1516 
L 2900 3500 
L 3475 3500 
L 3475 0 
L 2900 0 
L 2900 538 
Q 2691 219 2414 64 
Q 2138 -91 1772 -91 
Q 1169 -91 856 284 
Q 544 659 544 1381 
z
M 1991 3584 
L 1991 3584 
z
" transform="scale(0.015625)"/>
       <path id="DejaVuSans-3" transform="scale(0.015625)"/>
       <path id="DejaVuSans-52" d="M 1959 3097 
Q 1497 3097 1228 2736 
Q 959 2375 959 1747 
Q 959 1119 1226 758 
Q 1494 397 1959 397 
Q 2419 397 2687 759 
Q 2956 1122 2956 1747 
Q 2956 2369 2687 2733 
Q 2419 3097 1959 3097 
z
M 1959 3584 
Q 2709 3584 3137 3096 
Q 3566 2609 3566 1747 
Q 3566 888 3137 398 
Q 2709 -91 1959 -91 
Q 1206 -91 779 398 
Q 353 888 353 1747 
Q 353 2609 779 3096 
Q 1206 3584 1959 3584 
z
" transform="scale(0.015625)"/>
       <path id="DejaVuSans-56" d="M 2834 3397 
L 2834 2853 
Q 2591 2978 2328 3040 
Q 2066 3103 1784 3103 
Q 1356 3103 1142 2972 
Q 928 2841 928 2578 
Q 928 2378 1081 2264 
Q 1234 2150 1697 2047 
L 1894 2003 
Q 2506 1872 2764 1633 
Q 3022 1394 3022 966 
Q 3022 478 2636 193 
Q 2250 -91 1575 -91 
Q 1294 -91 989 -36 
Q 684 19 347 128 
L 347 722 
Q 666 556 975 473 
Q 1284 391 1588 391 
Q 1994 391 2212 530 
Q 2431 669 2431 922 
Q 2431 1156 2273 1281 
Q 2116 1406 1581 1522 
L 1381 1569 
Q 847 1681 609 1914 
Q 372 2147 372 2553 
Q 372 3047 722 3315 
Q 1072 3584 1716 3584 
Q 2034 3584 2315 3537 
Q 2597 3491 2834 3397 
z
" transform="scale(0.015625)"/>
      </defs>
      <use xlink:href="#DejaVuSans-28"/>
      <use xlink:href="#DejaVuSans-5b" transform="translate(63.1875 0)"/>
      <use xlink:href="#DejaVuSans-57" transform="translate(122.375 0)"/>
      <use xlink:href="#DejaVuSans-55" transform="translate(161.578125 0)"/>
      <use xlink:href="#DejaVuSans-44" transform="translate(202.6875 0)"/>
      <use xlink:href="#DejaVuSans-46" transform="translate(263.96875 0)"/>
      <use xlink:href="#DejaVuSans-48" transform="translate(318.953125 0)"/>
      <use xlink:href="#DejaVuSans-4f" transform="translate(380.484375 0)"/>
      <use xlink:href="#DejaVuSans-4f" transform="translate(408.265625 0)"/>
      <use xlink:href="#DejaVuSans-58" transform="translate(436.046875 0)"/>
      <use xlink:href="#DejaVuSans-4f" transform="translate(499.421875 0)"/>
      <use xlink:href="#DejaVuSans-44" transform="translate(527.203125 0)"/>
      <use xlink:href="#DejaVuSans-55" transform="translate(588.484375 0)"/>
      <use xlink:href="#DejaVuSans-3" transform="translate(629.59375 0)"/>
      <use xlink:href="#DejaVuSans-4f" transform="translate(661.375 0)"/>
      <use xlink:href="#DejaVuSans-44" transform="translate(689.15625 0)"/>
      <use xlink:href="#DejaVuSans-46" transform="translate(750.4375 0)"/>
      <use xlink:href="#DejaVuSans-57" transform="translate(805.421875 0)"/>
      <use xlink:href="#DejaVuSans-52" transform="translate(844.625 0)"/>
      <use xlink:href="#DejaVuSans-56" transform="translate(905.8125 0)"/>
      <use xlink:href="#DejaVuSans-48" transform="translate(957.90625 0)"/>
     </g>
    </g>
   </g>
   <g id="line2d_13">
    <path d="M 56.88098 92.472021 
L 156.201236 92.472021 
L 156.290328 11.260572 
L 156.958274 11.341784 
L 157.075954 11.66663 
L 157.120766 11.747841 
L 157.266951 13.209647 
L 157.385284 14.833876 
L 157.399112 14.915088 
L 157.542615 16.620528 
L 157.566163 16.701739 
L 158.07571 20.193832 
L 158.352921 20.599889 
L 158.41221 20.6811 
L 158.521379 20.762312 
L 158.971944 20.843523 
L 159.068798 21.249581 
L 159.30958 21.655638 
L 159.410035 22.061695 
L 159.530589 22.142906 
L 159.633327 22.630175 
L 159.66332 22.711387 
L 159.772282 23.604713 
L 159.869505 24.498038 
L 160.208567 25.878633 
L 160.25455 25.959845 
L 160.490693 27.340439 
L 160.68917 28.802245 
L 160.707988 28.883457 
L 160.98745 31.238589 
L 161.014972 31.3198 
L 161.124636 32.050703 
L 161.224998 32.131915 
L 161.336463 32.619183 
L 161.386671 32.700395 
L 161.504246 33.512509 
L 161.531116 33.593721 
L 161.641309 34.080989 
L 161.729961 34.162201 
L 161.935578 35.136738 
L 162.000692 35.21795 
L 162.199088 35.948853 
L 162.77139 36.030064 
L 162.915429 36.517333 
L 162.939186 36.598544 
L 163.10817 37.004601 
L 163.20751 37.085813 
L 163.464933 38.06035 
L 163.592589 38.141562 
L 163.704596 38.222773 
L 163.969528 38.303985 
L 164.081638 38.547619 
L 164.536589 38.62883 
L 164.814315 39.278522 
L 165.102918 39.765791 
L 165.242448 40.659117 
L 165.36874 40.740328 
L 165.519302 40.983962 
L 165.616154 41.065174 
L 165.700776 41.146385 
L 165.781726 41.227597 
L 165.924122 41.796077 
L 165.992403 41.877288 
L 166.136259 42.283346 
L 166.22791 42.364557 
L 166.256857 42.445768 
L 166.450345 42.52698 
L 166.561773 42.933037 
L 166.707269 43.339094 
L 166.790627 43.420306 
L 166.908911 43.826363 
L 167.12848 44.151209 
L 167.205283 44.23242 
L 167.514333 46.100284 
L 167.539218 46.181495 
L 167.653976 46.668764 
L 167.936702 47.805724 
L 168.195197 48.617839 
L 168.210122 48.69905 
L 168.432479 50.079645 
L 168.552753 50.160856 
L 168.889912 50.648125 
L 168.962461 50.729336 
L 169.054861 50.810548 
L 169.215904 51.054182 
L 169.446688 51.216605 
L 169.765815 51.297816 
L 169.97302 51.785085 
L 170.095648 52.109931 
L 170.114732 52.191142 
L 170.326393 53.328103 
L 170.359007 53.409314 
L 170.458929 53.977794 
L 170.513881 54.059006 
L 170.651646 54.546274 
L 170.713628 54.627486 
L 170.902488 56.251715 
L 170.928414 56.332926 
L 171.07746 58.038367 
L 171.929428 62.423785 
L 172.078478 62.504996 
L 172.161053 62.586208 
L 172.78496 63.479534 
L 172.89215 63.560745 
L 172.955482 63.641956 
L 173.089062 63.966802 
L 173.663968 66.321934 
L 173.766578 66.971626 
L 173.935259 67.377683 
L 174.052894 67.458894 
L 174.318707 67.946163 
L 174.401106 68.027375 
L 174.580176 68.433432 
L 174.671877 68.514643 
L 174.960918 69.164335 
L 175.075136 69.651604 
L 175.091349 69.732815 
L 175.252919 70.626141 
L 175.295225 70.707352 
L 175.665258 72.737639 
L 175.702371 72.81885 
L 175.839048 72.981273 
L 176.229681 73.062484 
L 176.401133 73.224907 
L 176.659356 73.306119 
L 176.805177 73.95581 
L 176.871268 74.037022 
L 177.000635 74.280656 
L 177.040159 74.361868 
L 177.20326 74.686713 
L 177.231394 74.767925 
L 177.337039 74.930348 
L 177.400047 75.011559 
L 177.510928 75.173982 
L 178.032408 75.255194 
L 178.111945 75.336405 
L 178.58615 75.417616 
L 178.685348 75.580039 
L 180.216957 75.661251 
L 180.342218 75.986097 
L 180.38165 76.067308 
L 180.476903 76.148519 
L 180.684601 76.554577 
L 180.786268 76.635788 
L 180.87748 76.717 
L 181.1403 77.041845 
L 181.245639 77.28548 
L 181.380828 77.366691 
L 181.459933 77.447903 
L 182.09278 78.178806 
L 182.210694 78.828497 
L 182.378107 78.909709 
L 182.500434 78.99092 
L 182.632118 79.072132 
L 184.139468 79.153343 
L 184.774198 79.5594 
L 184.795116 79.640612 
L 186.006331 80.290303 
L 186.099765 80.452726 
L 186.508881 81.346052 
L 186.751711 81.427264 
L 187.011039 81.914532 
L 187.32146 81.995744 
L 187.408728 82.076955 
L 189.431267 82.158167 
L 189.540536 82.320589 
L 190.170444 82.970281 
L 190.313616 83.051493 
L 190.630891 83.132704 
L 191.730006 83.782396 
L 192.284028 83.863607 
L 192.414644 83.944818 
L 193.44739 84.02603 
L 193.760821 84.269664 
L 195.931712 84.350876 
L 197.049767 84.756933 
L 197.509006 84.838144 
L 197.934398 85.000567 
L 201.164662 85.081779 
L 201.370706 85.325413 
L 201.855927 85.406625 
L 201.985587 85.73147 
L 202.075958 85.812682 
L 202.147852 85.893893 
L 202.451311 85.975105 
L 202.607619 86.137528 
L 203.112572 86.218739 
L 203.118049 86.29995 
L 204.189195 86.787219 
L 204.770125 86.868431 
L 205.159316 87.112065 
L 206.039932 87.193276 
L 206.220059 87.355699 
L 206.302119 87.518122 
L 206.43536 87.599334 
L 206.724801 87.924179 
L 207.786394 88.005391 
L 208.151829 88.086602 
L 208.683153 88.167814 
L 208.774754 88.330237 
L 208.88959 88.411448 
L 209.07969 88.49266 
L 209.404382 88.573871 
L 209.558648 88.736294 
L 210.171619 88.817505 
L 210.257601 88.898717 
L 211.161486 88.979928 
L 211.195801 89.06114 
L 211.846975 89.142351 
L 212.003209 89.223563 
L 213.04116 89.304774 
L 213.261786 89.467197 
L 214.129187 89.548408 
L 214.305759 89.62962 
L 216.606095 89.710831 
L 216.873443 89.873254 
L 217.825483 89.954466 
L 217.98472 90.116889 
L 219.156603 90.1981 
L 219.535197 90.360523 
L 222.103814 90.441734 
L 222.350407 90.522946 
L 223.336274 90.604157 
L 223.688307 90.685369 
L 224.788612 90.76658 
L 224.922351 90.847792 
L 225.8653 90.929003 
L 226.722506 91.091426 
L 227.435297 91.172637 
L 227.501596 91.253849 
L 230.72085 91.33506 
L 230.742107 91.416272 
L 238.143538 91.497483 
L 238.19986 91.578695 
L 312.422447 91.659906 
L 312.422447 91.659906 
" clip-path="url(#p235159675b)" style="fill: none; stroke: #000000; stroke-width: 1.5; stroke-linecap: square"/>
   </g>
   <g id="patch_3">
    <path d="M 44.103906 96.532593 
L 44.103906 7.2 
" style="fill: none; stroke: #000000; stroke-width: 0.8; stroke-linejoin: miter; stroke-linecap: square"/>
   </g>
   <g id="patch_4">
    <path d="M 325.19952 96.532593 
L 325.19952 7.2 
" style="fill: none; stroke: #000000; stroke-width: 0.8; stroke-linejoin: miter; stroke-linecap: square"/>
   </g>
   <g id="patch_5">
    <path d="M 44.103906 96.532593 
L 325.19952 96.532593 
" style="fill: none; stroke: #000000; stroke-width: 0.8; stroke-linejoin: miter; stroke-linecap: square"/>
   </g>
   <g id="patch_6">
    <path d="M 44.103906 7.2 
L 325.19952 7.2 
" style="fill: none; stroke: #000000; stroke-width: 0.8; stroke-linejoin: miter; stroke-linecap: square"/>
   </g>
  </g>
  <g id="axes_2">
   <g id="patch_7">
    <path d="M 44.103906 195.365666 
L 325.19952 195.365666 
L 325.19952 106.033073 
L 44.103906 106.033073 
z
" style="fill: #ffffff"/>
   </g>
   <g id="matplotlib.axis_3">
    <g id="xtick_10">
     <g id="line2d_14">
      <g>
       <use xlink:href="#m8fb4bd8a59" x="56.88098" y="195.365666" style="stroke: #000000; stroke-width: 0.8"/>
      </g>
     </g>
    </g>
    <g id="xtick_11">
     <g id="line2d_15">
      <g>
       <use xlink:href="#m8fb4bd8a59" x="88.809633" y="195.365666" style="stroke: #000000; stroke-width: 0.8"/>
      </g>
     </g>
    </g>
    <g id="xtick_12">
     <g id="line2d_16">
      <g>
       <use xlink:href="#m8fb4bd8a59" x="120.738287" y="195.365666" style="stroke: #000000; stroke-width: 0.8"/>
      </g>
     </g>
    </g>
    <g id="xtick_13">
     <g id="line2d_17">
      <g>
       <use xlink:href="#m8fb4bd8a59" x="152.666941" y="195.365666" style="stroke: #000000; stroke-width: 0.8"/>
      </g>
     </g>
    </g>
    <g id="xtick_14">
     <g id="line2d_18">
      <g>
       <use xlink:href="#m8fb4bd8a59" x="184.595595" y="195.365666" style="stroke: #000000; stroke-width: 0.8"/>
      </g>
     </g>
    </g>
    <g id="xtick_15">
     <g id="line2d_19">
      <g>
       <use xlink:href="#m8fb4bd8a59" x="216.524249" y="195.365666" style="stroke: #000000; stroke-width: 0.8"/>
      </g>
     </g>
    </g>
    <g id="xtick_16">
     <g id="line2d_20">
      <g>
       <use xlink:href="#m8fb4bd8a59" x="248.452903" y="195.365666" style="stroke: #000000; stroke-width: 0.8"/>
      </g>
     </g>
    </g>
    <g id="xtick_17">
     <g id="line2d_21">
      <g>
       <use xlink:href="#m8fb4bd8a59" x="280.381557" y="195.365666" style="stroke: #000000; stroke-width: 0.8"/>
      </g>
     </g>
    </g>
    <g id="xtick_18">
     <g id="line2d_22">
      <g>
       <use xlink:href="#m8fb4bd8a59" x="312.310211" y="195.365666" style="stroke: #000000; stroke-width: 0.8"/>
      </g>
     </g>
    </g>
   </g>
   <g id="matplotlib.axis_4">
    <g id="ytick_4">
     <g id="line2d_23">
      <g>
       <use xlink:href="#m6def12e529" x="44.103906" y="191.305093" style="stroke: #000000; stroke-width: 0.8"/>
      </g>
     </g>
     <g id="text_5">
      <!-- 0 -->
      <g transform="translate(30.741406 195.103922) scale(0.1 -0.1)">
       <use xlink:href="#DejaVuSans-13"/>
      </g>
     </g>
    </g>
    <g id="ytick_5">
     <g id="line2d_24">
      <g>
       <use xlink:href="#m6def12e529" x="44.103906" y="150.699369" style="stroke: #000000; stroke-width: 0.8"/>
      </g>
     </g>
     <g id="text_6">
      <!-- 5 -->
      <g transform="translate(30.741406 154.498197) scale(0.1 -0.1)">
       <use xlink:href="#DejaVuSans-18"/>
      </g>
     </g>
    </g>
    <g id="ytick_6">
     <g id="line2d_25">
      <g>
       <use xlink:href="#m6def12e529" x="44.103906" y="110.093645" style="stroke: #000000; stroke-width: 0.8"/>
      </g>
     </g>
     <g id="text_7">
      <!-- 10 -->
      <g transform="translate(24.378906 113.892473) scale(0.1 -0.1)">
       <use xlink:href="#DejaVuSans-14"/>
       <use xlink:href="#DejaVuSans-13" transform="translate(63.625 0)"/>
      </g>
     </g>
    </g>
    <g id="text_8">
     <!-- LacY -->
     <g transform="translate(17.976563 162.352494) rotate(-90) scale(0.1 -0.1)">
      <defs>
       <path id="DejaVuSans-2f" d="M 628 4666 
L 1259 4666 
L 1259 531 
L 3531 531 
L 3531 0 
L 628 0 
L 628 4666 
z
" transform="scale(0.015625)"/>
       <path id="DejaVuSans-3c" d="M -13 4666 
L 666 4666 
L 1959 2747 
L 3244 4666 
L 3922 4666 
L 2272 2222 
L 2272 0 
L 1638 0 
L 1638 2222 
L -13 4666 
z
" transform="scale(0.015625)"/>
      </defs>
      <use xlink:href="#DejaVuSans-2f"/>
      <use xlink:href="#DejaVuSans-44" transform="translate(55.71875 0)"/>
      <use xlink:href="#DejaVuSans-46" transform="translate(117 0)"/>
      <use xlink:href="#DejaVuSans-3c" transform="translate(171.984375 0)"/>
     </g>
    </g>
   </g>
   <g id="line2d_26">
    <path d="M 56.88098 110.093645 
L 56.908121 110.093645 
L 56.962642 118.21479 
L 57.070862 134.45708 
L 57.131234 142.578225 
L 57.283416 142.578225 
L 57.301121 134.45708 
L 57.521819 142.578225 
L 57.663754 142.578225 
L 57.83449 158.820514 
L 58.135539 175.062804 
L 58.201191 191.305093 
L 59.731938 191.305093 
L 59.898641 183.183949 
L 59.941404 191.305093 
L 64.966462 191.305093 
L 65.289578 183.183949 
L 65.399586 191.305093 
L 82.904433 191.305093 
L 83.098936 183.183949 
L 84.89314 191.305093 
L 84.907973 183.183949 
L 85.05125 175.062804 
L 85.055907 166.941659 
L 85.378229 175.062804 
L 85.605305 175.062804 
L 85.724998 191.305093 
L 85.785849 183.183949 
L 85.97617 183.183949 
L 86.114724 191.305093 
L 90.008888 191.305093 
L 90.398881 175.062804 
L 90.400183 166.941659 
L 90.899067 166.941659 
L 90.937755 183.183949 
L 91.710283 183.183949 
L 91.879292 175.062804 
L 92.223754 191.305093 
L 109.237397 191.305093 
L 109.343147 183.183949 
L 109.462914 183.183949 
L 109.602077 191.305093 
L 109.837197 191.305093 
L 109.878703 183.183949 
L 110.294874 183.183949 
L 110.64498 175.062804 
L 110.703357 183.183949 
L 110.878714 183.183949 
L 110.908308 191.305093 
L 119.672485 191.305093 
L 119.851006 183.183949 
L 121.952403 183.183949 
L 123.800884 191.305093 
L 131.573165 191.305093 
L 131.759534 183.183949 
L 132.047254 183.183949 
L 132.15509 191.305093 
L 136.493295 191.305093 
L 136.577072 183.183949 
L 136.59895 191.305093 
L 146.597176 191.305093 
L 146.858167 175.062804 
L 146.87901 183.183949 
L 146.908034 175.062804 
L 147.021209 166.941659 
L 147.026552 175.062804 
L 147.611622 175.062804 
L 148.229148 183.183949 
L 148.474619 183.183949 
L 148.79006 175.062804 
L 148.903007 175.062804 
L 149.975525 191.305093 
L 150.435958 191.305093 
L 150.487868 175.062804 
L 150.5888 175.062804 
L 150.741719 183.183949 
L 150.875514 183.183949 
L 151.41873 191.305093 
L 156.540091 191.305093 
L 156.968618 183.183949 
L 157.209048 150.699369 
L 157.490848 150.699369 
L 157.611024 166.941659 
L 157.660921 166.941659 
L 157.761879 158.820514 
L 157.848907 158.820514 
L 157.958777 175.062804 
L 157.986994 175.062804 
L 158.07571 183.183949 
L 158.427688 183.183949 
L 158.521379 191.305093 
L 158.921301 191.305093 
L 159.022719 183.183949 
L 159.188996 183.183949 
L 159.293166 175.062804 
L 159.439232 175.062804 
L 159.494745 183.183949 
L 159.549271 175.062804 
L 159.655551 175.062804 
L 159.759896 166.941659 
L 159.920031 166.941659 
L 160.045021 183.183949 
L 160.179303 183.183949 
L 160.302456 175.062804 
L 160.451647 175.062804 
L 160.579707 158.820514 
L 160.756945 158.820514 
L 160.825722 150.699369 
L 160.86488 158.820514 
L 160.952371 158.820514 
L 161.002957 150.699369 
L 161.0556 158.820514 
L 161.218946 158.820514 
L 161.328117 175.062804 
L 161.357083 175.062804 
L 161.387628 183.183949 
L 161.396014 166.941659 
L 161.464062 166.941659 
L 161.699304 166.941659 
L 161.811435 175.062804 
L 162.098929 175.062804 
L 162.199088 183.183949 
L 162.299017 183.183949 
L 162.409814 191.305093 
L 162.683085 191.305093 
L 162.831999 183.183949 
L 162.955631 183.183949 
L 163.070931 175.062804 
L 163.387609 175.062804 
L 163.48678 183.183949 
L 163.511345 183.183949 
L 163.542374 191.305093 
L 163.61287 183.183949 
L 163.627527 183.183949 
L 163.65026 175.062804 
L 163.654124 191.305093 
L 163.704596 191.305093 
L 163.901368 191.305093 
L 163.972503 175.062804 
L 164.024509 183.183949 
L 164.069779 183.183949 
L 164.182104 191.305093 
L 164.399647 191.305093 
L 164.532208 183.183949 
L 164.636851 175.062804 
L 164.738637 175.062804 
L 164.814315 183.183949 
L 164.99939 183.183949 
L 165.120612 166.941659 
L 165.161492 175.062804 
L 165.244163 175.062804 
L 165.275048 183.183949 
L 165.324079 175.062804 
L 165.567731 175.062804 
L 165.634 183.183949 
L 165.75916 183.183949 
L 165.823462 175.062804 
L 165.862621 183.183949 
L 166.478408 183.183949 
L 166.59102 175.062804 
L 166.878867 175.062804 
L 167.019947 183.183949 
L 167.12848 183.183949 
L 167.390409 158.820514 
L 167.496828 166.941659 
L 167.514333 166.941659 
L 167.565333 175.062804 
L 167.625239 166.941659 
L 167.645425 166.941659 
L 167.757533 175.062804 
L 168.218831 175.062804 
L 168.312846 166.941659 
L 168.324776 175.062804 
L 168.73735 175.062804 
L 168.80968 183.183949 
L 168.840758 175.062804 
L 169.034229 175.062804 
L 169.143657 183.183949 
L 169.285207 183.183949 
L 169.399712 191.305093 
L 169.639161 191.305093 
L 169.819531 183.183949 
L 169.957347 183.183949 
L 170.0737 166.941659 
L 170.095648 166.941659 
L 170.213902 158.820514 
L 170.481658 158.820514 
L 170.521347 150.699369 
L 170.58897 158.820514 
L 170.651646 158.820514 
L 170.784756 134.45708 
L 170.898945 142.578225 
L 171.183288 142.578225 
L 171.277469 134.45708 
L 171.294135 142.578225 
L 171.316792 142.578225 
L 171.352081 134.45708 
L 171.4143 150.699369 
L 171.421986 150.699369 
L 171.457175 150.699369 
L 171.473347 158.820514 
L 171.565898 150.699369 
L 171.599339 142.578225 
L 171.667389 150.699369 
L 171.709491 150.699369 
L 171.798744 166.941659 
L 171.887612 166.941659 
L 172.005747 183.183949 
L 172.68613 183.183949 
L 172.800769 175.062804 
L 172.818286 175.062804 
L 172.993405 166.941659 
L 173.154366 166.941659 
L 173.251261 150.699369 
L 173.271692 158.820514 
L 173.414048 158.820514 
L 173.415363 150.699369 
L 173.523344 158.820514 
L 173.588298 158.820514 
L 173.694066 150.699369 
L 173.828972 150.699369 
L 173.935259 166.941659 
L 173.993693 166.941659 
L 174.04569 158.820514 
L 174.079529 166.941659 
L 174.170949 166.941659 
L 174.276568 175.062804 
L 174.721494 175.062804 
L 174.774397 183.183949 
L 174.804773 175.062804 
L 174.93317 158.820514 
L 175.064812 158.820514 
L 175.116555 150.699369 
L 175.16566 158.820514 
L 175.222095 158.820514 
L 175.33962 150.699369 
L 175.437792 150.699369 
L 175.445873 142.578225 
L 175.544272 150.699369 
L 175.6816 150.699369 
L 175.786933 175.062804 
L 175.813587 175.062804 
L 175.915594 183.183949 
L 175.949188 183.183949 
L 175.970861 175.062804 
L 176.057652 183.183949 
L 176.082583 183.183949 
L 176.30101 175.062804 
L 176.401133 183.183949 
L 176.643352 183.183949 
L 176.765001 175.062804 
L 177.05428 175.062804 
L 177.165265 166.941659 
L 177.20326 166.941659 
L 177.215413 175.062804 
L 177.311971 166.941659 
L 177.429379 166.941659 
L 177.548097 183.183949 
L 178.304248 183.183949 
L 178.317984 175.062804 
L 178.42882 175.062804 
L 178.43054 183.183949 
L 178.564654 183.183949 
L 178.668431 175.062804 
L 178.796551 191.305093 
L 179.381402 191.305093 
L 179.489119 183.183949 
L 179.597846 191.305093 
L 179.714481 183.183949 
L 179.820607 191.305093 
L 180.044208 191.305093 
L 180.266283 175.062804 
L 180.554974 175.062804 
L 180.684601 166.941659 
L 180.85946 166.941659 
L 180.977775 158.820514 
L 181.095814 158.820514 
L 181.19772 150.699369 
L 181.312722 166.941659 
L 181.54731 166.941659 
L 181.673678 175.062804 
L 181.777287 166.941659 
L 181.883782 166.941659 
L 181.963299 175.062804 
L 181.989327 166.941659 
L 182.012301 166.941659 
L 182.120952 158.820514 
L 182.322508 158.820514 
L 182.485299 183.183949 
L 182.494907 175.062804 
L 182.537169 191.305093 
L 182.581407 191.305093 
L 183.292025 191.305093 
L 183.409096 183.183949 
L 183.466055 183.183949 
L 183.533504 191.305093 
L 183.767225 191.305093 
L 184.289093 175.062804 
L 184.455715 175.062804 
L 184.528591 183.183949 
L 184.5519 175.062804 
L 184.991681 175.062804 
L 185.107581 183.183949 
L 185.273849 183.183949 
L 185.312957 175.062804 
L 185.646775 175.062804 
L 185.747994 166.941659 
L 185.978929 166.941659 
L 186.099765 158.820514 
L 186.622509 158.820514 
L 186.787695 166.941659 
L 186.793479 158.820514 
L 186.833411 175.062804 
L 186.85392 175.062804 
L 186.978488 175.062804 
L 187.065787 183.183949 
L 187.074115 175.062804 
L 187.187909 175.062804 
L 187.267549 183.183949 
L 187.468908 166.941659 
L 187.578791 183.183949 
L 187.774854 183.183949 
L 187.790887 191.305093 
L 188.832505 191.305093 
L 189.350092 183.183949 
L 189.460434 175.062804 
L 189.540536 183.183949 
L 189.646546 183.183949 
L 189.73887 158.820514 
L 189.895673 158.820514 
L 189.938559 166.941659 
L 190.452182 166.941659 
L 190.531504 183.183949 
L 190.630891 175.062804 
L 190.744579 175.062804 
L 190.778956 183.183949 
L 190.836302 175.062804 
L 190.955919 175.062804 
L 191.023912 166.941659 
L 191.207953 166.941659 
L 191.331946 183.183949 
L 191.437258 183.183949 
L 191.47055 175.062804 
L 191.539808 183.183949 
L 191.542177 191.305093 
L 191.812157 183.183949 
L 191.91941 183.183949 
L 192.002938 175.062804 
L 192.007141 183.183949 
L 192.167713 183.183949 
L 192.205936 175.062804 
L 192.269801 183.183949 
L 193.376804 183.183949 
L 193.400354 175.062804 
L 193.44739 183.183949 
L 193.760821 183.183949 
L 193.858885 175.062804 
L 193.859526 183.183949 
L 194.083517 183.183949 
L 194.108755 191.305093 
L 194.584479 191.305093 
L 194.662234 183.183949 
L 194.838578 191.305093 
L 195.329362 183.183949 
L 195.470126 191.305093 
L 195.693778 183.183949 
L 196.491345 183.183949 
L 196.501039 175.062804 
L 196.940111 175.062804 
L 196.970341 166.941659 
L 197.032248 175.062804 
L 197.155688 183.183949 
L 197.341104 183.183949 
L 197.509006 175.062804 
L 197.657762 175.062804 
L 197.757123 183.183949 
L 197.831878 183.183949 
L 197.908975 175.062804 
L 197.934398 183.183949 
L 198.125144 175.062804 
L 198.21762 183.183949 
L 198.283224 183.183949 
L 198.301904 191.305093 
L 201.11408 191.305093 
L 201.227216 175.062804 
L 201.336921 166.941659 
L 201.526807 166.941659 
L 201.686995 183.183949 
L 201.91131 158.820514 
L 201.978328 158.820514 
L 201.985587 150.699369 
L 202.075958 158.820514 
L 202.147852 158.820514 
L 202.481011 175.062804 
L 202.607619 175.062804 
L 202.731988 183.183949 
L 202.758201 175.062804 
L 202.76018 183.183949 
L 202.861323 183.183949 
L 203.024997 166.941659 
L 203.059522 175.062804 
L 203.118049 166.941659 
L 203.263189 166.941659 
L 203.291659 158.820514 
L 203.365302 166.941659 
L 203.497546 166.941659 
L 203.590308 175.062804 
L 203.700993 183.183949 
L 203.779129 175.062804 
L 203.842633 183.183949 
L 203.976319 183.183949 
L 204.016974 175.062804 
L 204.228883 175.062804 
L 204.285966 183.183949 
L 204.486049 183.183949 
L 204.610991 175.062804 
L 204.732436 191.305093 
L 204.770125 183.183949 
L 205.071245 183.183949 
L 205.146103 191.305093 
L 205.159316 183.183949 
L 205.91873 183.183949 
L 206.039932 166.941659 
L 206.228479 166.941659 
L 206.302119 158.820514 
L 206.487239 158.820514 
L 206.567018 166.941659 
L 206.883841 166.941659 
L 206.8905 175.062804 
L 206.969509 166.941659 
L 207.020808 166.941659 
L 207.141092 175.062804 
L 207.172792 175.062804 
L 207.253394 183.183949 
L 207.331227 183.183949 
L 207.385403 191.305093 
L 207.396184 183.183949 
L 207.493918 183.183949 
L 207.697457 166.941659 
L 207.786394 175.062804 
L 208.00831 175.062804 
L 208.010257 183.183949 
L 208.225044 175.062804 
L 208.382142 175.062804 
L 208.517102 158.820514 
L 208.774754 150.699369 
L 208.825922 150.699369 
L 208.88959 134.45708 
L 208.96048 134.45708 
L 209.064906 126.335935 
L 209.06773 134.45708 
L 209.07969 142.578225 
L 209.152845 126.335935 
L 209.166997 134.45708 
L 209.217299 134.45708 
L 209.278918 142.578225 
L 209.387687 142.578225 
L 209.505608 150.699369 
L 209.55821 150.699369 
L 209.61829 158.820514 
L 209.678073 158.820514 
L 209.987844 175.062804 
L 210.003045 166.941659 
L 210.051011 175.062804 
L 210.178087 166.941659 
L 210.246075 183.183949 
L 210.257601 166.941659 
L 210.52128 166.941659 
L 210.521879 175.062804 
L 210.597751 166.941659 
L 210.656521 166.941659 
L 210.840863 175.062804 
L 211.134716 175.062804 
L 211.195801 183.183949 
L 211.687979 158.820514 
L 212.003209 175.062804 
L 212.828835 175.062804 
L 213.04116 158.820514 
L 213.100107 158.820514 
L 213.261786 183.183949 
L 213.639003 183.183949 
L 213.772277 175.062804 
L 213.897885 191.305093 
L 213.986617 183.183949 
L 214.288774 183.183949 
L 214.412477 166.941659 
L 214.568709 175.062804 
L 214.640677 175.062804 
L 214.721369 191.305093 
L 214.954598 191.305093 
L 215.011599 183.183949 
L 215.349066 183.183949 
L 215.385304 191.305093 
L 215.970376 183.183949 
L 216.085177 183.183949 
L 216.713848 175.062804 
L 216.77373 166.941659 
L 216.802406 175.062804 
L 216.837251 175.062804 
L 216.873443 183.183949 
L 217.154075 175.062804 
L 217.266304 175.062804 
L 217.750739 166.941659 
L 217.913142 158.820514 
L 218.060589 175.062804 
L 218.156027 183.183949 
L 218.303255 175.062804 
L 218.673486 175.062804 
L 218.75092 183.183949 
L 218.755911 175.062804 
L 218.857297 166.941659 
L 219.059423 175.062804 
L 219.156603 166.941659 
L 219.511495 166.941659 
L 219.616663 183.183949 
L 219.649691 175.062804 
L 219.818555 166.941659 
L 220.132911 166.941659 
L 220.350603 183.183949 
L 220.938636 183.183949 
L 221.024814 175.062804 
L 221.198383 175.062804 
L 221.45562 166.941659 
L 221.75105 166.941659 
L 221.823064 158.820514 
L 221.828169 166.941659 
L 221.913048 166.941659 
L 221.915288 175.062804 
L 222.103814 166.941659 
L 222.258252 166.941659 
L 222.350407 175.062804 
L 222.683149 175.062804 
L 222.683795 183.183949 
L 222.843082 191.305093 
L 222.932692 183.183949 
L 223.092995 183.183949 
L 223.218623 175.062804 
L 223.275604 183.183949 
L 223.324597 175.062804 
L 223.502229 175.062804 
L 223.688307 166.941659 
L 223.767467 166.941659 
L 223.864636 191.305093 
L 224.233279 183.183949 
L 224.312138 183.183949 
L 224.53262 150.699369 
L 224.64445 158.820514 
L 224.732076 150.699369 
L 224.737402 158.820514 
L 224.832875 166.941659 
L 224.908079 166.941659 
L 225.033055 175.062804 
L 226.221847 175.062804 
L 226.322536 183.183949 
L 226.4301 175.062804 
L 226.498895 175.062804 
L 226.533531 166.941659 
L 226.722506 158.820514 
L 226.845009 175.062804 
L 227.003707 166.941659 
L 227.095339 175.062804 
L 227.262654 175.062804 
L 227.365955 166.941659 
L 227.501596 183.183949 
L 227.883704 191.305093 
L 228.089481 183.183949 
L 228.186256 191.305093 
L 228.462566 191.305093 
L 228.646221 183.183949 
L 228.796371 183.183949 
L 228.868205 191.305093 
L 229.274032 183.183949 
L 229.402772 183.183949 
L 229.459176 175.062804 
L 229.491592 183.183949 
L 229.663127 183.183949 
L 229.775642 175.062804 
L 229.935307 183.183949 
L 230.289805 183.183949 
L 230.449851 175.062804 
L 230.593251 183.183949 
L 230.72085 175.062804 
L 231.535007 175.062804 
L 231.68361 166.941659 
L 231.79442 175.062804 
L 232.120226 166.941659 
L 232.235876 183.183949 
L 232.415188 191.305093 
L 235.412657 191.305093 
L 235.585811 183.183949 
L 235.599552 191.305093 
L 235.671813 183.183949 
L 235.877529 183.183949 
L 235.972755 191.305093 
L 235.989487 183.183949 
L 236.236275 166.941659 
L 236.444532 183.183949 
L 236.623111 175.062804 
L 236.626174 166.941659 
L 236.848455 166.941659 
L 237.221363 191.305093 
L 237.51411 175.062804 
L 237.636549 175.062804 
L 237.694971 166.941659 
L 237.800088 166.941659 
L 237.813513 158.820514 
L 237.88886 166.941659 
L 238.041868 166.941659 
L 238.064149 150.699369 
L 238.166323 158.820514 
L 238.19986 158.820514 
L 238.353388 142.578225 
L 238.428085 150.699369 
L 238.669039 150.699369 
L 238.713739 134.45708 
L 238.754845 142.578225 
L 238.888044 142.578225 
L 239.126505 158.820514 
L 239.263994 166.941659 
L 239.334837 166.941659 
L 239.386521 158.820514 
L 239.40901 166.941659 
L 239.52632 175.062804 
L 239.673978 166.941659 
L 239.842695 191.305093 
L 239.902079 183.183949 
L 240.017836 191.305093 
L 240.097356 191.305093 
L 240.653213 175.062804 
L 240.675532 183.183949 
L 240.895185 183.183949 
L 241.057527 175.062804 
L 241.071612 183.183949 
L 241.160159 175.062804 
L 241.643691 175.062804 
L 241.74985 183.183949 
L 241.942639 191.305093 
L 243.668559 191.305093 
L 243.957807 175.062804 
L 244.054129 183.183949 
L 244.35128 158.820514 
L 244.400793 150.699369 
L 244.916519 183.183949 
L 245.096548 183.183949 
L 245.110883 191.305093 
L 252.976338 191.305093 
L 253.021264 183.183949 
L 253.245708 175.062804 
L 253.415589 183.183949 
L 253.785348 183.183949 
L 253.985271 166.941659 
L 254.095355 191.305093 
L 255.162905 191.305093 
L 255.385586 183.183949 
L 255.550697 191.305093 
L 264.240989 191.305093 
L 264.769369 183.183949 
L 264.914774 166.941659 
L 264.946052 166.941659 
L 265.040074 175.062804 
L 265.429474 183.183949 
L 266.183219 183.183949 
L 266.823557 191.305093 
L 281.695439 191.305093 
L 282.065218 175.062804 
L 282.139504 191.305093 
L 307.014145 191.305093 
L 307.112456 183.183949 
L 307.114104 191.305093 
L 311.157437 191.305093 
L 311.517649 183.183949 
L 311.665699 175.062804 
L 311.790528 183.183949 
L 312.125645 183.183949 
L 312.422447 191.305093 
L 312.422447 191.305093 
" clip-path="url(#p760bbb47a7)" style="fill: none; stroke: #000000; stroke-width: 1.5; stroke-linecap: square"/>
   </g>
   <g id="patch_8">
    <path d="M 44.103906 195.365666 
L 44.103906 106.033073 
" style="fill: none; stroke: #000000; stroke-width: 0.8; stroke-linejoin: miter; stroke-linecap: square"/>
   </g>
   <g id="patch_9">
    <path d="M 325.19952 195.365666 
L 325.19952 106.033073 
" style="fill: none; stroke: #000000; stroke-width: 0.8; stroke-linejoin: miter; stroke-linecap: square"/>
   </g>
   <g id="patch_10">
    <path d="M 44.103906 195.365666 
L 325.19952 195.365666 
" style="fill: none; stroke: #000000; stroke-width: 0.8; stroke-linejoin: miter; stroke-linecap: square"/>
   </g>
   <g id="patch_11">
    <path d="M 44.103906 106.033073 
L 325.19952 106.033073 
" style="fill: none; stroke: #000000; stroke-width: 0.8; stroke-linejoin: miter; stroke-linecap: square"/>
   </g>
  </g>
  <g id="axes_3">
   <g id="patch_12">
    <path d="M 44.103906 294.198739 
L 325.19952 294.198739 
L 325.19952 204.866146 
L 44.103906 204.866146 
z
" style="fill: #ffffff"/>
   </g>
   <g id="matplotlib.axis_5">
    <g id="xtick_19">
     <g id="line2d_27">
      <g>
       <use xlink:href="#m8fb4bd8a59" x="56.88098" y="294.198739" style="stroke: #000000; stroke-width: 0.8"/>
      </g>
     </g>
     <g id="text_9">
      <!-- 0 -->
      <g transform="translate(53.69973 308.796395) scale(0.1 -0.1)">
       <use xlink:href="#DejaVuSans-13"/>
      </g>
     </g>
    </g>
    <g id="xtick_20">
     <g id="line2d_28">
      <g>
       <use xlink:href="#m8fb4bd8a59" x="88.809633" y="294.198739" style="stroke: #000000; stroke-width: 0.8"/>
      </g>
     </g>
     <g id="text_10">
      <!-- 100 -->
      <g transform="translate(79.265883 308.796395) scale(0.1 -0.1)">
       <use xlink:href="#DejaVuSans-14"/>
       <use xlink:href="#DejaVuSans-13" transform="translate(63.625 0)"/>
       <use xlink:href="#DejaVuSans-13" transform="translate(127.25 0)"/>
      </g>
     </g>
    </g>
    <g id="xtick_21">
     <g id="line2d_29">
      <g>
       <use xlink:href="#m8fb4bd8a59" x="120.738287" y="294.198739" style="stroke: #000000; stroke-width: 0.8"/>
      </g>
     </g>
     <g id="text_11">
      <!-- 200 -->
      <g transform="translate(111.194537 308.796395) scale(0.1 -0.1)">
       <defs>
        <path id="DejaVuSans-15" d="M 1228 531 
L 3431 531 
L 3431 0 
L 469 0 
L 469 531 
Q 828 903 1448 1529 
Q 2069 2156 2228 2338 
Q 2531 2678 2651 2914 
Q 2772 3150 2772 3378 
Q 2772 3750 2511 3984 
Q 2250 4219 1831 4219 
Q 1534 4219 1204 4116 
Q 875 4013 500 3803 
L 500 4441 
Q 881 4594 1212 4672 
Q 1544 4750 1819 4750 
Q 2544 4750 2975 4387 
Q 3406 4025 3406 3419 
Q 3406 3131 3298 2873 
Q 3191 2616 2906 2266 
Q 2828 2175 2409 1742 
Q 1991 1309 1228 531 
z
" transform="scale(0.015625)"/>
       </defs>
       <use xlink:href="#DejaVuSans-15"/>
       <use xlink:href="#DejaVuSans-13" transform="translate(63.625 0)"/>
       <use xlink:href="#DejaVuSans-13" transform="translate(127.25 0)"/>
      </g>
     </g>
    </g>
    <g id="xtick_22">
     <g id="line2d_30">
      <g>
       <use xlink:href="#m8fb4bd8a59" x="152.666941" y="294.198739" style="stroke: #000000; stroke-width: 0.8"/>
      </g>
     </g>
     <g id="text_12">
      <!-- 300 -->
      <g transform="translate(143.123191 308.796395) scale(0.1 -0.1)">
       <defs>
        <path id="DejaVuSans-16" d="M 2597 2516 
Q 3050 2419 3304 2112 
Q 3559 1806 3559 1356 
Q 3559 666 3084 287 
Q 2609 -91 1734 -91 
Q 1441 -91 1130 -33 
Q 819 25 488 141 
L 488 750 
Q 750 597 1062 519 
Q 1375 441 1716 441 
Q 2309 441 2620 675 
Q 2931 909 2931 1356 
Q 2931 1769 2642 2001 
Q 2353 2234 1838 2234 
L 1294 2234 
L 1294 2753 
L 1863 2753 
Q 2328 2753 2575 2939 
Q 2822 3125 2822 3475 
Q 2822 3834 2567 4026 
Q 2313 4219 1838 4219 
Q 1578 4219 1281 4162 
Q 984 4106 628 3988 
L 628 4550 
Q 988 4650 1302 4700 
Q 1616 4750 1894 4750 
Q 2613 4750 3031 4423 
Q 3450 4097 3450 3541 
Q 3450 3153 3228 2886 
Q 3006 2619 2597 2516 
z
" transform="scale(0.015625)"/>
       </defs>
       <use xlink:href="#DejaVuSans-16"/>
       <use xlink:href="#DejaVuSans-13" transform="translate(63.625 0)"/>
       <use xlink:href="#DejaVuSans-13" transform="translate(127.25 0)"/>
      </g>
     </g>
    </g>
    <g id="xtick_23">
     <g id="line2d_31">
      <g>
       <use xlink:href="#m8fb4bd8a59" x="184.595595" y="294.198739" style="stroke: #000000; stroke-width: 0.8"/>
      </g>
     </g>
     <g id="text_13">
      <!-- 400 -->
      <g transform="translate(175.051845 308.796395) scale(0.1 -0.1)">
       <defs>
        <path id="DejaVuSans-17" d="M 2419 4116 
L 825 1625 
L 2419 1625 
L 2419 4116 
z
M 2253 4666 
L 3047 4666 
L 3047 1625 
L 3713 1625 
L 3713 1100 
L 3047 1100 
L 3047 0 
L 2419 0 
L 2419 1100 
L 313 1100 
L 313 1709 
L 2253 4666 
z
" transform="scale(0.015625)"/>
       </defs>
       <use xlink:href="#DejaVuSans-17"/>
       <use xlink:href="#DejaVuSans-13" transform="translate(63.625 0)"/>
       <use xlink:href="#DejaVuSans-13" transform="translate(127.25 0)"/>
      </g>
     </g>
    </g>
    <g id="xtick_24">
     <g id="line2d_32">
      <g>
       <use xlink:href="#m8fb4bd8a59" x="216.524249" y="294.198739" style="stroke: #000000; stroke-width: 0.8"/>
      </g>
     </g>
     <g id="text_14">
      <!-- 500 -->
      <g transform="translate(206.980499 308.796395) scale(0.1 -0.1)">
       <use xlink:href="#DejaVuSans-18"/>
       <use xlink:href="#DejaVuSans-13" transform="translate(63.625 0)"/>
       <use xlink:href="#DejaVuSans-13" transform="translate(127.25 0)"/>
      </g>
     </g>
    </g>
    <g id="xtick_25">
     <g id="line2d_33">
      <g>
       <use xlink:href="#m8fb4bd8a59" x="248.452903" y="294.198739" style="stroke: #000000; stroke-width: 0.8"/>
      </g>
     </g>
     <g id="text_15">
      <!-- 600 -->
      <g transform="translate(238.909153 308.796395) scale(0.1 -0.1)">
       <defs>
        <path id="DejaVuSans-19" d="M 2113 2584 
Q 1688 2584 1439 2293 
Q 1191 2003 1191 1497 
Q 1191 994 1439 701 
Q 1688 409 2113 409 
Q 2538 409 2786 701 
Q 3034 994 3034 1497 
Q 3034 2003 2786 2293 
Q 2538 2584 2113 2584 
z
M 3366 4563 
L 3366 3988 
Q 3128 4100 2886 4159 
Q 2644 4219 2406 4219 
Q 1781 4219 1451 3797 
Q 1122 3375 1075 2522 
Q 1259 2794 1537 2939 
Q 1816 3084 2150 3084 
Q 2853 3084 3261 2657 
Q 3669 2231 3669 1497 
Q 3669 778 3244 343 
Q 2819 -91 2113 -91 
Q 1303 -91 875 529 
Q 447 1150 447 2328 
Q 447 3434 972 4092 
Q 1497 4750 2381 4750 
Q 2619 4750 2861 4703 
Q 3103 4656 3366 4563 
z
" transform="scale(0.015625)"/>
       </defs>
       <use xlink:href="#DejaVuSans-19"/>
       <use xlink:href="#DejaVuSans-13" transform="translate(63.625 0)"/>
       <use xlink:href="#DejaVuSans-13" transform="translate(127.25 0)"/>
      </g>
     </g>
    </g>
    <g id="xtick_26">
     <g id="line2d_34">
      <g>
       <use xlink:href="#m8fb4bd8a59" x="280.381557" y="294.198739" style="stroke: #000000; stroke-width: 0.8"/>
      </g>
     </g>
     <g id="text_16">
      <!-- 700 -->
      <g transform="translate(270.837807 308.796395) scale(0.1 -0.1)">
       <defs>
        <path id="DejaVuSans-1a" d="M 525 4666 
L 3525 4666 
L 3525 4397 
L 1831 0 
L 1172 0 
L 2766 4134 
L 525 4134 
L 525 4666 
z
" transform="scale(0.015625)"/>
       </defs>
       <use xlink:href="#DejaVuSans-1a"/>
       <use xlink:href="#DejaVuSans-13" transform="translate(63.625 0)"/>
       <use xlink:href="#DejaVuSans-13" transform="translate(127.25 0)"/>
      </g>
     </g>
    </g>
    <g id="xtick_27">
     <g id="line2d_35">
      <g>
       <use xlink:href="#m8fb4bd8a59" x="312.310211" y="294.198739" style="stroke: #000000; stroke-width: 0.8"/>
      </g>
     </g>
     <g id="text_17">
      <!-- 800 -->
      <g transform="translate(302.766461 308.796395) scale(0.1 -0.1)">
       <defs>
        <path id="DejaVuSans-1b" d="M 2034 2216 
Q 1584 2216 1326 1975 
Q 1069 1734 1069 1313 
Q 1069 891 1326 650 
Q 1584 409 2034 409 
Q 2484 409 2743 651 
Q 3003 894 3003 1313 
Q 3003 1734 2745 1975 
Q 2488 2216 2034 2216 
z
M 1403 2484 
Q 997 2584 770 2862 
Q 544 3141 544 3541 
Q 544 4100 942 4425 
Q 1341 4750 2034 4750 
Q 2731 4750 3128 4425 
Q 3525 4100 3525 3541 
Q 3525 3141 3298 2862 
Q 3072 2584 2669 2484 
Q 3125 2378 3379 2068 
Q 3634 1759 3634 1313 
Q 3634 634 3220 271 
Q 2806 -91 2034 -91 
Q 1263 -91 848 271 
Q 434 634 434 1313 
Q 434 1759 690 2068 
Q 947 2378 1403 2484 
z
M 1172 3481 
Q 1172 3119 1398 2916 
Q 1625 2713 2034 2713 
Q 2441 2713 2670 2916 
Q 2900 3119 2900 3481 
Q 2900 3844 2670 4047 
Q 2441 4250 2034 4250 
Q 1625 4250 1398 4047 
Q 1172 3844 1172 3481 
z
" transform="scale(0.015625)"/>
       </defs>
       <use xlink:href="#DejaVuSans-1b"/>
       <use xlink:href="#DejaVuSans-13" transform="translate(63.625 0)"/>
       <use xlink:href="#DejaVuSans-13" transform="translate(127.25 0)"/>
      </g>
     </g>
    </g>
    <g id="text_18">
     <!-- Time -->
     <g transform="translate(172.415776 322.797176) scale(0.1 -0.1)">
      <defs>
       <path id="DejaVuSans-37" d="M -19 4666 
L 3928 4666 
L 3928 4134 
L 2272 4134 
L 2272 0 
L 1638 0 
L 1638 4134 
L -19 4134 
L -19 4666 
z
" transform="scale(0.015625)"/>
       <path id="DejaVuSans-4c" d="M 603 3500 
L 1178 3500 
L 1178 0 
L 603 0 
L 603 3500 
z
M 603 4863 
L 1178 4863 
L 1178 4134 
L 603 4134 
L 603 4863 
z
" transform="scale(0.015625)"/>
       <path id="DejaVuSans-50" d="M 3328 2828 
Q 3544 3216 3844 3400 
Q 4144 3584 4550 3584 
Q 5097 3584 5394 3201 
Q 5691 2819 5691 2113 
L 5691 0 
L 5113 0 
L 5113 2094 
Q 5113 2597 4934 2840 
Q 4756 3084 4391 3084 
Q 3944 3084 3684 2787 
Q 3425 2491 3425 1978 
L 3425 0 
L 2847 0 
L 2847 2094 
Q 2847 2600 2669 2842 
Q 2491 3084 2119 3084 
Q 1678 3084 1418 2786 
Q 1159 2488 1159 1978 
L 1159 0 
L 581 0 
L 581 3500 
L 1159 3500 
L 1159 2956 
Q 1356 3278 1631 3431 
Q 1906 3584 2284 3584 
Q 2666 3584 2933 3390 
Q 3200 3197 3328 2828 
z
" transform="scale(0.015625)"/>
      </defs>
      <use xlink:href="#DejaVuSans-37"/>
      <use xlink:href="#DejaVuSans-4c" transform="translate(58 0)"/>
      <use xlink:href="#DejaVuSans-50" transform="translate(85.78125 0)"/>
      <use xlink:href="#DejaVuSans-48" transform="translate(183.1875 0)"/>
     </g>
    </g>
   </g>
   <g id="matplotlib.axis_6">
    <g id="ytick_7">
     <g id="line2d_36">
      <g>
       <use xlink:href="#m6def12e529" x="44.103906" y="290.138166" style="stroke: #000000; stroke-width: 0.8"/>
      </g>
     </g>
     <g id="text_19">
      <!-- 0.0 -->
      <g transform="translate(21.200781 293.936994) scale(0.1 -0.1)">
       <defs>
        <path id="DejaVuSans-11" d="M 684 794 
L 1344 794 
L 1344 0 
L 684 0 
L 684 794 
z
" transform="scale(0.015625)"/>
       </defs>
       <use xlink:href="#DejaVuSans-13"/>
       <use xlink:href="#DejaVuSans-11" transform="translate(63.625 0)"/>
       <use xlink:href="#DejaVuSans-13" transform="translate(95.40625 0)"/>
      </g>
     </g>
    </g>
    <g id="ytick_8">
     <g id="line2d_37">
      <g>
       <use xlink:href="#m6def12e529" x="44.103906" y="249.532442" style="stroke: #000000; stroke-width: 0.8"/>
      </g>
     </g>
     <g id="text_20">
      <!-- 0.5 -->
      <g transform="translate(21.200781 253.33127) scale(0.1 -0.1)">
       <use xlink:href="#DejaVuSans-13"/>
       <use xlink:href="#DejaVuSans-11" transform="translate(63.625 0)"/>
       <use xlink:href="#DejaVuSans-18" transform="translate(95.40625 0)"/>
      </g>
     </g>
    </g>
    <g id="ytick_9">
     <g id="line2d_38">
      <g>
       <use xlink:href="#m6def12e529" x="44.103906" y="208.926718" style="stroke: #000000; stroke-width: 0.8"/>
      </g>
     </g>
     <g id="text_21">
      <!-- 1.0 -->
      <g transform="translate(21.200781 212.725546) scale(0.1 -0.1)">
       <use xlink:href="#DejaVuSans-14"/>
       <use xlink:href="#DejaVuSans-11" transform="translate(63.625 0)"/>
       <use xlink:href="#DejaVuSans-13" transform="translate(95.40625 0)"/>
      </g>
     </g>
    </g>
    <g id="text_22">
     <!-- Free lac operon -->
     <g transform="translate(14.798438 288.006661) rotate(-90) scale(0.1 -0.1)">
      <defs>
       <path id="DejaVuSans-29" d="M 628 4666 
L 3309 4666 
L 3309 4134 
L 1259 4134 
L 1259 2759 
L 3109 2759 
L 3109 2228 
L 1259 2228 
L 1259 0 
L 628 0 
L 628 4666 
z
" transform="scale(0.015625)"/>
       <path id="DejaVuSans-53" d="M 1159 525 
L 1159 -1331 
L 581 -1331 
L 581 3500 
L 1159 3500 
L 1159 2969 
Q 1341 3281 1617 3432 
Q 1894 3584 2278 3584 
Q 2916 3584 3314 3078 
Q 3713 2572 3713 1747 
Q 3713 922 3314 415 
Q 2916 -91 2278 -91 
Q 1894 -91 1617 61 
Q 1341 213 1159 525 
z
M 3116 1747 
Q 3116 2381 2855 2742 
Q 2594 3103 2138 3103 
Q 1681 3103 1420 2742 
Q 1159 2381 1159 1747 
Q 1159 1113 1420 752 
Q 1681 391 2138 391 
Q 2594 391 2855 752 
Q 3116 1113 3116 1747 
z
" transform="scale(0.015625)"/>
       <path id="DejaVuSans-51" d="M 3513 2113 
L 3513 0 
L 2938 0 
L 2938 2094 
Q 2938 2591 2744 2837 
Q 2550 3084 2163 3084 
Q 1697 3084 1428 2787 
Q 1159 2491 1159 1978 
L 1159 0 
L 581 0 
L 581 3500 
L 1159 3500 
L 1159 2956 
Q 1366 3272 1645 3428 
Q 1925 3584 2291 3584 
Q 2894 3584 3203 3211 
Q 3513 2838 3513 2113 
z
" transform="scale(0.015625)"/>
      </defs>
      <use xlink:href="#DejaVuSans-29"/>
      <use xlink:href="#DejaVuSans-55" transform="translate(50.234375 0)"/>
      <use xlink:href="#DejaVuSans-48" transform="translate(89.140625 0)"/>
      <use xlink:href="#DejaVuSans-48" transform="translate(150.671875 0)"/>
      <use xlink:href="#DejaVuSans-3" transform="translate(212.203125 0)"/>
      <use xlink:href="#DejaVuSans-4f" transform="translate(243.984375 0)"/>
      <use xlink:href="#DejaVuSans-44" transform="translate(271.765625 0)"/>
      <use xlink:href="#DejaVuSans-46" transform="translate(333.046875 0)"/>
      <use xlink:href="#DejaVuSans-3" transform="translate(388.03125 0)"/>
      <use xlink:href="#DejaVuSans-52" transform="translate(419.8125 0)"/>
      <use xlink:href="#DejaVuSans-53" transform="translate(481 0)"/>
      <use xlink:href="#DejaVuSans-48" transform="translate(544.484375 0)"/>
      <use xlink:href="#DejaVuSans-55" transform="translate(606.015625 0)"/>
      <use xlink:href="#DejaVuSans-52" transform="translate(644.921875 0)"/>
      <use xlink:href="#DejaVuSans-51" transform="translate(706.109375 0)"/>
     </g>
    </g>
   </g>
   <g id="line2d_39">
    <path d="M 56.88098 208.926718 
L 56.962642 290.138166 
L 57.131234 290.138166 
L 57.301121 208.926718 
L 57.419502 208.926718 
L 57.521819 290.138166 
L 58.7403 290.138166 
L 59.731938 208.926718 
L 59.918618 208.926718 
L 59.941404 290.138166 
L 62.36724 290.138166 
L 64.966462 208.926718 
L 65.261893 208.926718 
L 65.399586 290.138166 
L 65.525687 290.138166 
L 72.20019 208.926718 
L 72.370287 290.138166 
L 80.224083 208.926718 
L 80.273209 290.138166 
L 82.904433 208.926718 
L 83.044676 208.926718 
L 83.098936 290.138166 
L 84.842421 290.138166 
L 84.907973 208.926718 
L 85.785849 208.926718 
L 85.97617 290.138166 
L 87.010879 290.138166 
L 90.008888 208.926718 
L 90.549869 208.926718 
L 90.579201 290.138166 
L 90.937755 290.138166 
L 91.82074 208.926718 
L 91.879292 290.138166 
L 92.223754 290.138166 
L 109.32942 208.926718 
L 109.343147 290.138166 
L 109.602077 290.138166 
L 109.878703 208.926718 
L 110.166574 290.138166 
L 110.294874 208.926718 
L 110.703357 208.926718 
L 110.908308 290.138166 
L 111.201475 290.138166 
L 115.37109 208.926718 
L 116.032898 290.138166 
L 117.677875 208.926718 
L 117.993671 290.138166 
L 118.667298 208.926718 
L 118.754779 290.138166 
L 119.765944 208.926718 
L 119.851006 290.138166 
L 123.800884 290.138166 
L 129.83049 208.926718 
L 129.936627 290.138166 
L 131.682013 208.926718 
L 132.133611 208.926718 
L 132.15509 290.138166 
L 133.99867 290.138166 
L 136.59895 208.926718 
L 136.61228 290.138166 
L 139.498486 208.926718 
L 139.541294 290.138166 
L 146.597176 208.926718 
L 147.543187 208.926718 
L 147.611622 290.138166 
L 148.229148 290.138166 
L 148.474619 208.926718 
L 148.79006 208.926718 
L 148.903007 290.138166 
L 149.975525 290.138166 
L 150.487868 208.926718 
L 150.5888 290.138166 
L 151.711894 290.138166 
L 151.723235 208.926718 
L 151.88506 290.138166 
L 156.201236 208.926718 
L 156.290328 290.138166 
L 156.540091 208.926718 
L 198.170824 208.926718 
L 198.301904 290.138166 
L 200.954666 290.138166 
L 201.164662 208.926718 
L 220.213952 208.926718 
L 220.257185 290.138166 
L 220.350603 290.138166 
L 221.024814 208.926718 
L 224.713006 208.926718 
L 224.832875 290.138166 
L 226.119334 290.138166 
L 226.221847 208.926718 
L 230.740174 208.926718 
L 230.742107 290.138166 
L 230.936211 290.138166 
L 231.400289 208.926718 
L 232.412275 208.926718 
L 232.415188 290.138166 
L 232.811923 290.138166 
L 235.412657 208.926718 
L 241.160159 208.926718 
L 241.294602 290.138166 
L 241.450857 208.926718 
L 241.667767 208.926718 
L 241.74985 290.138166 
L 241.942639 290.138166 
L 243.668559 208.926718 
L 244.74144 208.926718 
L 244.803735 290.138166 
L 245.22262 290.138166 
L 252.475883 208.926718 
L 252.915176 290.138166 
L 253.021264 208.926718 
L 253.370143 208.926718 
L 253.415589 290.138166 
L 253.83616 208.926718 
L 253.968989 208.926718 
L 254.095355 290.138166 
L 254.28556 290.138166 
L 254.293556 208.926718 
L 254.346152 290.138166 
L 254.751242 290.138166 
L 255.162905 208.926718 
L 255.455316 208.926718 
L 255.550697 290.138166 
L 257.219575 208.926718 
L 257.303131 290.138166 
L 264.240989 208.926718 
L 264.914774 208.926718 
L 265.040074 290.138166 
L 266.823557 290.138166 
L 272.4694 208.926718 
L 273.040679 290.138166 
L 281.695439 208.926718 
L 281.952592 208.926718 
L 282.065218 290.138166 
L 282.676452 290.138166 
L 292.754107 208.926718 
L 292.937062 290.138166 
L 293.904325 208.926718 
L 294.000557 290.138166 
L 307.114104 208.926718 
L 307.246891 290.138166 
L 307.591333 290.138166 
L 311.157437 208.926718 
L 311.783371 208.926718 
L 311.790528 290.138166 
L 312.422447 290.138166 
L 312.422447 290.138166 
" clip-path="url(#p7614d3b652)" style="fill: none; stroke: #000000; stroke-width: 1.5; stroke-linecap: square"/>
   </g>
   <g id="patch_13">
    <path d="M 44.103906 294.198739 
L 44.103906 204.866146 
" style="fill: none; stroke: #000000; stroke-width: 0.8; stroke-linejoin: miter; stroke-linecap: square"/>
   </g>
   <g id="patch_14">
    <path d="M 325.19952 294.198739 
L 325.19952 204.866146 
" style="fill: none; stroke: #000000; stroke-width: 0.8; stroke-linejoin: miter; stroke-linecap: square"/>
   </g>
   <g id="patch_15">
    <path d="M 44.103906 294.198739 
L 325.19952 294.198739 
" style="fill: none; stroke: #000000; stroke-width: 0.8; stroke-linejoin: miter; stroke-linecap: square"/>
   </g>
   <g id="patch_16">
    <path d="M 44.103906 204.866146 
L 325.19952 204.866146 
" style="fill: none; stroke: #000000; stroke-width: 0.8; stroke-linejoin: miter; stroke-linecap: square"/>
   </g>
  </g>
 </g>
 <defs>
  <clipPath id="p235159675b">
   <rect x="44.103906" y="7.2" width="281.095614" height="89.332593"/>
  </clipPath>
  <clipPath id="p760bbb47a7">
   <rect x="44.103906" y="106.033073" width="281.095614" height="89.332593"/>
  </clipPath>
  <clipPath id="p7614d3b652">
   <rect x="44.103906" y="204.866146" width="281.095614" height="89.332593"/>
  </clipPath>
 </defs>
</svg>
