<?xml version="1.0" encoding="utf-8" standalone="no"?>
<!DOCTYPE svg PUBLIC "-//W3C//DTD SVG 1.1//EN"
  "http://www.w3.org/Graphics/SVG/1.1/DTD/svg11.dtd">
<svg xmlns:xlink="http://www.w3.org/1999/xlink" width="422.057755pt" height="310.86825pt" viewBox="0 0 422.057755 310.86825" xmlns="http://www.w3.org/2000/svg" version="1.1">
 <metadata>
  <rdf:RDF xmlns:dc="http://purl.org/dc/elements/1.1/" xmlns:cc="http://creativecommons.org/ns#" xmlns:rdf="http://www.w3.org/1999/02/22-rdf-syntax-ns#">
   <cc:Work>
    <dc:type rdf:resource="http://purl.org/dc/dcmitype/StillImage"/>
    <dc:date>2026-05-14T16:22:19.483130</dc:date>
    <dc:format>image/svg+xml</dc:format>
    <dc:creator>
     <cc:Agent>
      <dc:title>Matplotlib v3.10.9, https://matplotlib.org/</dc:title>
     </cc:Agent>
    </dc:creator>
   </cc:Work>
  </rdf:RDF>
 </metadata>
 <defs>
  <style type="text/css">*{stroke-linejoin: round; stroke-linecap: butt}</style>
 </defs>
 <g id="figure_1">
  <g id="patch_1">
   <path d="M 0 310.86825 
L 422.057755 310.86825 
L 422.057755 0 
L 0 0 
z
" style="fill: #ffffff"/>
  </g>
  <g id="axes_1">
   <g id="patch_2">
    <path d="M 46.965625 273.312 
L 404.085625 273.312 
L 404.085625 7.2 
L 46.965625 7.2 
z
" style="fill: #ffffff"/>
   </g>
   <g id="matplotlib.axis_1">
    <g id="xtick_1">
     <g id="line2d_1">
      <defs>
       <path id="m97d02928a5" d="M 0 0 
L 0 3.5 
" style="stroke: #000000; stroke-width: 0.8"/>
      </defs>
      <g>
       <use xlink:href="#m97d02928a5" x="46.965625" y="273.312" style="stroke: #000000; stroke-width: 0.8"/>
      </g>
     </g>
     <g id="text_1">
      <!-- 0.00 -->
      <g transform="translate(35.832813 287.910437) scale(0.1 -0.1)">
       <defs>
        <path id="DejaVuSans-30" d="M 2034 4250 
Q 1547 4250 1301 3770 
Q 1056 3291 1056 2328 
Q 1056 1369 1301 889 
Q 1547 409 2034 409 
Q 2525 409 2770 889 
Q 3016 1369 3016 2328 
Q 3016 3291 2770 3770 
Q 2525 4250 2034 4250 
z
M 2034 4750 
Q 2819 4750 3233 4129 
Q 3647 3509 3647 2328 
Q 3647 1150 3233 529 
Q 2819 -91 2034 -91 
Q 1250 -91 836 529 
Q 422 1150 422 2328 
Q 422 3509 836 4129 
Q 1250 4750 2034 4750 
z
" transform="scale(0.015625)"/>
        <path id="DejaVuSans-2e" d="M 684 794 
L 1344 794 
L 1344 0 
L 684 0 
L 684 794 
z
" transform="scale(0.015625)"/>
       </defs>
       <use xlink:href="#DejaVuSans-30"/>
       <use xlink:href="#DejaVuSans-2e" transform="translate(63.623047 0)"/>
       <use xlink:href="#DejaVuSans-30" transform="translate(95.410156 0)"/>
       <use xlink:href="#DejaVuSans-30" transform="translate(159.033203 0)"/>
      </g>
     </g>
    </g>
    <g id="xtick_2">
     <g id="line2d_2">
      <g>
       <use xlink:href="#m97d02928a5" x="91.56054" y="273.312" style="stroke: #000000; stroke-width: 0.8"/>
      </g>
     </g>
     <g id="text_2">
      <!-- 0.25 -->
      <g transform="translate(80.427727 287.910437) scale(0.1 -0.1)">
       <defs>
        <path id="DejaVuSans-32" d="M 1228 531 
L 3431 531 
L 3431 0 
L 469 0 
L 469 531 
Q 828 903 1448 1529 
Q 2069 2156 2228 2338 
Q 2531 2678 2651 2914 
Q 2772 3150 2772 3378 
Q 2772 3750 2511 3984 
Q 2250 4219 1831 4219 
Q 1534 4219 1204 4116 
Q 875 4013 500 3803 
L 500 4441 
Q 881 4594 1212 4672 
Q 1544 4750 1819 4750 
Q 2544 4750 2975 4387 
Q 3406 4025 3406 3419 
Q 3406 3131 3298 2873 
Q 3191 2616 2906 2266 
Q 2828 2175 2409 1742 
Q 1991 1309 1228 531 
z
" transform="scale(0.015625)"/>
        <path id="DejaVuSans-35" d="M 691 4666 
L 3169 4666 
L 3169 4134 
L 1269 4134 
L 1269 2991 
Q 1406 3038 1543 3061 
Q 1681 3084 1819 3084 
Q 2600 3084 3056 2656 
Q 3513 2228 3513 1497 
Q 3513 744 3044 326 
Q 2575 -91 1722 -91 
Q 1428 -91 1123 -41 
Q 819 9 494 109 
L 494 744 
Q 775 591 1075 516 
Q 1375 441 1709 441 
Q 2250 441 2565 725 
Q 2881 1009 2881 1497 
Q 2881 1984 2565 2268 
Q 2250 2553 1709 2553 
Q 1456 2553 1204 2497 
Q 953 2441 691 2322 
L 691 4666 
z
" transform="scale(0.015625)"/>
       </defs>
       <use xlink:href="#DejaVuSans-30"/>
       <use xlink:href="#DejaVuSans-2e" transform="translate(63.623047 0)"/>
       <use xlink:href="#DejaVuSans-32" transform="translate(95.410156 0)"/>
       <use xlink:href="#DejaVuSans-35" transform="translate(159.033203 0)"/>
      </g>
     </g>
    </g>
    <g id="xtick_3">
     <g id="line2d_3">
      <g>
       <use xlink:href="#m97d02928a5" x="136.155454" y="273.312" style="stroke: #000000; stroke-width: 0.8"/>
      </g>
     </g>
     <g id="text_3">
      <!-- 0.50 -->
      <g transform="translate(125.022642 287.910437) scale(0.1 -0.1)">
       <use xlink:href="#DejaVuSans-30"/>
       <use xlink:href="#DejaVuSans-2e" transform="translate(63.623047 0)"/>
       <use xlink:href="#DejaVuSans-35" transform="translate(95.410156 0)"/>
       <use xlink:href="#DejaVuSans-30" transform="translate(159.033203 0)"/>
      </g>
     </g>
    </g>
    <g id="xtick_4">
     <g id="line2d_4">
      <g>
       <use xlink:href="#m97d02928a5" x="180.750369" y="273.312" style="stroke: #000000; stroke-width: 0.8"/>
      </g>
     </g>
     <g id="text_4">
      <!-- 0.75 -->
      <g transform="translate(169.617556 287.910437) scale(0.1 -0.1)">
       <defs>
        <path id="DejaVuSans-37" d="M 525 4666 
L 3525 4666 
L 3525 4397 
L 1831 0 
L 1172 0 
L 2766 4134 
L 525 4134 
L 525 4666 
z
" transform="scale(0.015625)"/>
       </defs>
       <use xlink:href="#DejaVuSans-30"/>
       <use xlink:href="#DejaVuSans-2e" transform="translate(63.623047 0)"/>
       <use xlink:href="#DejaVuSans-37" transform="translate(95.410156 0)"/>
       <use xlink:href="#DejaVuSans-35" transform="translate(159.033203 0)"/>
      </g>
     </g>
    </g>
    <g id="xtick_5">
     <g id="line2d_5">
      <g>
       <use xlink:href="#m97d02928a5" x="225.345284" y="273.312" style="stroke: #000000; stroke-width: 0.8"/>
      </g>
     </g>
     <g id="text_5">
      <!-- 1.00 -->
      <g transform="translate(214.212471 287.910437) scale(0.1 -0.1)">
       <defs>
        <path id="DejaVuSans-31" d="M 794 531 
L 1825 531 
L 1825 4091 
L 703 3866 
L 703 4441 
L 1819 4666 
L 2450 4666 
L 2450 531 
L 3481 531 
L 3481 0 
L 794 0 
L 794 531 
z
" transform="scale(0.015625)"/>
       </defs>
       <use xlink:href="#DejaVuSans-31"/>
       <use xlink:href="#DejaVuSans-2e" transform="translate(63.623047 0)"/>
       <use xlink:href="#DejaVuSans-30" transform="translate(95.410156 0)"/>
       <use xlink:href="#DejaVuSans-30" transform="translate(159.033203 0)"/>
      </g>
     </g>
    </g>
    <g id="xtick_6">
     <g id="line2d_6">
      <g>
       <use xlink:href="#m97d02928a5" x="269.940198" y="273.312" style="stroke: #000000; stroke-width: 0.8"/>
      </g>
     </g>
     <g id="text_6">
      <!-- 1.25 -->
      <g transform="translate(258.807386 287.910437) scale(0.1 -0.1)">
       <use xlink:href="#DejaVuSans-31"/>
       <use xlink:href="#DejaVuSans-2e" transform="translate(63.623047 0)"/>
       <use xlink:href="#DejaVuSans-32" transform="translate(95.410156 0)"/>
       <use xlink:href="#DejaVuSans-35" transform="translate(159.033203 0)"/>
      </g>
     </g>
    </g>
    <g id="xtick_7">
     <g id="line2d_7">
      <g>
       <use xlink:href="#m97d02928a5" x="314.535113" y="273.312" style="stroke: #000000; stroke-width: 0.8"/>
      </g>
     </g>
     <g id="text_7">
      <!-- 1.50 -->
      <g transform="translate(303.4023 287.910437) scale(0.1 -0.1)">
       <use xlink:href="#DejaVuSans-31"/>
       <use xlink:href="#DejaVuSans-2e" transform="translate(63.623047 0)"/>
       <use xlink:href="#DejaVuSans-35" transform="translate(95.410156 0)"/>
       <use xlink:href="#DejaVuSans-30" transform="translate(159.033203 0)"/>
      </g>
     </g>
    </g>
    <g id="xtick_8">
     <g id="line2d_8">
      <g>
       <use xlink:href="#m97d02928a5" x="359.130028" y="273.312" style="stroke: #000000; stroke-width: 0.8"/>
      </g>
     </g>
     <g id="text_8">
      <!-- 1.75 -->
      <g transform="translate(347.997215 287.910437) scale(0.1 -0.1)">
       <use xlink:href="#DejaVuSans-31"/>
       <use xlink:href="#DejaVuSans-2e" transform="translate(63.623047 0)"/>
       <use xlink:href="#DejaVuSans-37" transform="translate(95.410156 0)"/>
       <use xlink:href="#DejaVuSans-35" transform="translate(159.033203 0)"/>
      </g>
     </g>
    </g>
    <g id="xtick_9">
     <g id="line2d_9">
      <g>
       <use xlink:href="#m97d02928a5" x="403.724942" y="273.312" style="stroke: #000000; stroke-width: 0.8"/>
      </g>
     </g>
     <g id="text_9">
      <!-- 2.00 -->
      <g transform="translate(392.59213 287.910437) scale(0.1 -0.1)">
       <use xlink:href="#DejaVuSans-32"/>
       <use xlink:href="#DejaVuSans-2e" transform="translate(63.623047 0)"/>
       <use xlink:href="#DejaVuSans-30" transform="translate(95.410156 0)"/>
       <use xlink:href="#DejaVuSans-30" transform="translate(159.033203 0)"/>
      </g>
     </g>
    </g>
    <g id="text_10">
     <!-- Time -->
     <g transform="translate(213.292031 301.588562) scale(0.1 -0.1)">
      <defs>
       <path id="DejaVuSans-54" d="M -19 4666 
L 3928 4666 
L 3928 4134 
L 2272 4134 
L 2272 0 
L 1638 0 
L 1638 4134 
L -19 4134 
L -19 4666 
z
" transform="scale(0.015625)"/>
       <path id="DejaVuSans-69" d="M 603 3500 
L 1178 3500 
L 1178 0 
L 603 0 
L 603 3500 
z
M 603 4863 
L 1178 4863 
L 1178 4134 
L 603 4134 
L 603 4863 
z
" transform="scale(0.015625)"/>
       <path id="DejaVuSans-6d" d="M 3328 2828 
Q 3544 3216 3844 3400 
Q 4144 3584 4550 3584 
Q 5097 3584 5394 3201 
Q 5691 2819 5691 2113 
L 5691 0 
L 5113 0 
L 5113 2094 
Q 5113 2597 4934 2840 
Q 4756 3084 4391 3084 
Q 3944 3084 3684 2787 
Q 3425 2491 3425 1978 
L 3425 0 
L 2847 0 
L 2847 2094 
Q 2847 2600 2669 2842 
Q 2491 3084 2119 3084 
Q 1678 3084 1418 2786 
Q 1159 2488 1159 1978 
L 1159 0 
L 581 0 
L 581 3500 
L 1159 3500 
L 1159 2956 
Q 1356 3278 1631 3431 
Q 1906 3584 2284 3584 
Q 2666 3584 2933 3390 
Q 3200 3197 3328 2828 
z
" transform="scale(0.015625)"/>
       <path id="DejaVuSans-65" d="M 3597 1894 
L 3597 1613 
L 953 1613 
Q 991 1019 1311 708 
Q 1631 397 2203 397 
Q 2534 397 2845 478 
Q 3156 559 3463 722 
L 3463 178 
Q 3153 47 2828 -22 
Q 2503 -91 2169 -91 
Q 1331 -91 842 396 
Q 353 884 353 1716 
Q 353 2575 817 3079 
Q 1281 3584 2069 3584 
Q 2775 3584 3186 3129 
Q 3597 2675 3597 1894 
z
M 3022 2063 
Q 3016 2534 2758 2815 
Q 2500 3097 2075 3097 
Q 1594 3097 1305 2825 
Q 1016 2553 972 2059 
L 3022 2063 
z
" transform="scale(0.015625)"/>
      </defs>
      <use xlink:href="#DejaVuSans-54"/>
      <use xlink:href="#DejaVuSans-69" transform="translate(57.958984 0)"/>
      <use xlink:href="#DejaVuSans-6d" transform="translate(85.742188 0)"/>
      <use xlink:href="#DejaVuSans-65" transform="translate(183.154297 0)"/>
     </g>
    </g>
   </g>
   <g id="matplotlib.axis_2">
    <g id="ytick_1">
     <g id="line2d_10">
      <defs>
       <path id="m0af532fdd6" d="M 0 0 
L -3.5 0 
" style="stroke: #000000; stroke-width: 0.8"/>
      </defs>
      <g>
       <use xlink:href="#m0af532fdd6" x="46.965625" y="273.312" style="stroke: #000000; stroke-width: 0.8"/>
      </g>
     </g>
     <g id="text_11">
      <!-- 0 -->
      <g transform="translate(33.603125 277.111219) scale(0.1 -0.1)">
       <use xlink:href="#DejaVuSans-30"/>
      </g>
     </g>
    </g>
    <g id="ytick_2">
     <g id="line2d_11">
      <g>
       <use xlink:href="#m0af532fdd6" x="46.965625" y="236.093538" style="stroke: #000000; stroke-width: 0.8"/>
      </g>
     </g>
     <g id="text_12">
      <!-- 20 -->
      <g transform="translate(27.240625 239.892757) scale(0.1 -0.1)">
       <use xlink:href="#DejaVuSans-32"/>
       <use xlink:href="#DejaVuSans-30" transform="translate(63.623047 0)"/>
      </g>
     </g>
    </g>
    <g id="ytick_3">
     <g id="line2d_12">
      <g>
       <use xlink:href="#m0af532fdd6" x="46.965625" y="198.875077" style="stroke: #000000; stroke-width: 0.8"/>
      </g>
     </g>
     <g id="text_13">
      <!-- 40 -->
      <g transform="translate(27.240625 202.674296) scale(0.1 -0.1)">
       <defs>
        <path id="DejaVuSans-34" d="M 2419 4116 
L 825 1625 
L 2419 1625 
L 2419 4116 
z
M 2253 4666 
L 3047 4666 
L 3047 1625 
L 3713 1625 
L 3713 1100 
L 3047 1100 
L 3047 0 
L 2419 0 
L 2419 1100 
L 313 1100 
L 313 1709 
L 2253 4666 
z
" transform="scale(0.015625)"/>
       </defs>
       <use xlink:href="#DejaVuSans-34"/>
       <use xlink:href="#DejaVuSans-30" transform="translate(63.623047 0)"/>
      </g>
     </g>
    </g>
    <g id="ytick_4">
     <g id="line2d_13">
      <g>
       <use xlink:href="#m0af532fdd6" x="46.965625" y="161.656615" style="stroke: #000000; stroke-width: 0.8"/>
      </g>
     </g>
     <g id="text_14">
      <!-- 60 -->
      <g transform="translate(27.240625 165.455834) scale(0.1 -0.1)">
       <defs>
        <path id="DejaVuSans-36" d="M 2113 2584 
Q 1688 2584 1439 2293 
Q 1191 2003 1191 1497 
Q 1191 994 1439 701 
Q 1688 409 2113 409 
Q 2538 409 2786 701 
Q 3034 994 3034 1497 
Q 3034 2003 2786 2293 
Q 2538 2584 2113 2584 
z
M 3366 4563 
L 3366 3988 
Q 3128 4100 2886 4159 
Q 2644 4219 2406 4219 
Q 1781 4219 1451 3797 
Q 1122 3375 1075 2522 
Q 1259 2794 1537 2939 
Q 1816 3084 2150 3084 
Q 2853 3084 3261 2657 
Q 3669 2231 3669 1497 
Q 3669 778 3244 343 
Q 2819 -91 2113 -91 
Q 1303 -91 875 529 
Q 447 1150 447 2328 
Q 447 3434 972 4092 
Q 1497 4750 2381 4750 
Q 2619 4750 2861 4703 
Q 3103 4656 3366 4563 
z
" transform="scale(0.015625)"/>
       </defs>
       <use xlink:href="#DejaVuSans-36"/>
       <use xlink:href="#DejaVuSans-30" transform="translate(63.623047 0)"/>
      </g>
     </g>
    </g>
    <g id="ytick_5">
     <g id="line2d_14">
      <g>
       <use xlink:href="#m0af532fdd6" x="46.965625" y="124.438154" style="stroke: #000000; stroke-width: 0.8"/>
      </g>
     </g>
     <g id="text_15">
      <!-- 80 -->
      <g transform="translate(27.240625 128.237373) scale(0.1 -0.1)">
       <defs>
        <path id="DejaVuSans-38" d="M 2034 2216 
Q 1584 2216 1326 1975 
Q 1069 1734 1069 1313 
Q 1069 891 1326 650 
Q 1584 409 2034 409 
Q 2484 409 2743 651 
Q 3003 894 3003 1313 
Q 3003 1734 2745 1975 
Q 2488 2216 2034 2216 
z
M 1403 2484 
Q 997 2584 770 2862 
Q 544 3141 544 3541 
Q 544 4100 942 4425 
Q 1341 4750 2034 4750 
Q 2731 4750 3128 4425 
Q 3525 4100 3525 3541 
Q 3525 3141 3298 2862 
Q 3072 2584 2669 2484 
Q 3125 2378 3379 2068 
Q 3634 1759 3634 1313 
Q 3634 634 3220 271 
Q 2806 -91 2034 -91 
Q 1263 -91 848 271 
Q 434 634 434 1313 
Q 434 1759 690 2068 
Q 947 2378 1403 2484 
z
M 1172 3481 
Q 1172 3119 1398 2916 
Q 1625 2713 2034 2713 
Q 2441 2713 2670 2916 
Q 2900 3119 2900 3481 
Q 2900 3844 2670 4047 
Q 2441 4250 2034 4250 
Q 1625 4250 1398 4047 
Q 1172 3844 1172 3481 
z
" transform="scale(0.015625)"/>
       </defs>
       <use xlink:href="#DejaVuSans-38"/>
       <use xlink:href="#DejaVuSans-30" transform="translate(63.623047 0)"/>
      </g>
     </g>
    </g>
    <g id="ytick_6">
     <g id="line2d_15">
      <g>
       <use xlink:href="#m0af532fdd6" x="46.965625" y="87.219692" style="stroke: #000000; stroke-width: 0.8"/>
      </g>
     </g>
     <g id="text_16">
      <!-- 100 -->
      <g transform="translate(20.878125 91.018911) scale(0.1 -0.1)">
       <use xlink:href="#DejaVuSans-31"/>
       <use xlink:href="#DejaVuSans-30" transform="translate(63.623047 0)"/>
       <use xlink:href="#DejaVuSans-30" transform="translate(127.246094 0)"/>
      </g>
     </g>
    </g>
    <g id="ytick_7">
     <g id="line2d_16">
      <g>
       <use xlink:href="#m0af532fdd6" x="46.965625" y="50.001231" style="stroke: #000000; stroke-width: 0.8"/>
      </g>
     </g>
     <g id="text_17">
      <!-- 120 -->
      <g transform="translate(20.878125 53.80045) scale(0.1 -0.1)">
       <use xlink:href="#DejaVuSans-31"/>
       <use xlink:href="#DejaVuSans-32" transform="translate(63.623047 0)"/>
       <use xlink:href="#DejaVuSans-30" transform="translate(127.246094 0)"/>
      </g>
     </g>
    </g>
    <g id="ytick_8">
     <g id="line2d_17">
      <g>
       <use xlink:href="#m0af532fdd6" x="46.965625" y="12.782769" style="stroke: #000000; stroke-width: 0.8"/>
      </g>
     </g>
     <g id="text_18">
      <!-- 140 -->
      <g transform="translate(20.878125 16.581988) scale(0.1 -0.1)">
       <use xlink:href="#DejaVuSans-31"/>
       <use xlink:href="#DejaVuSans-34" transform="translate(63.623047 0)"/>
       <use xlink:href="#DejaVuSans-30" transform="translate(127.246094 0)"/>
      </g>
     </g>
    </g>
    <g id="text_19">
     <!-- Observable -->
     <g transform="translate(14.798438 168.766156) rotate(-90) scale(0.1 -0.1)">
      <defs>
       <path id="DejaVuSans-4f" d="M 2522 4238 
Q 1834 4238 1429 3725 
Q 1025 3213 1025 2328 
Q 1025 1447 1429 934 
Q 1834 422 2522 422 
Q 3209 422 3611 934 
Q 4013 1447 4013 2328 
Q 4013 3213 3611 3725 
Q 3209 4238 2522 4238 
z
M 2522 4750 
Q 3503 4750 4090 4092 
Q 4678 3434 4678 2328 
Q 4678 1225 4090 567 
Q 3503 -91 2522 -91 
Q 1538 -91 948 565 
Q 359 1222 359 2328 
Q 359 3434 948 4092 
Q 1538 4750 2522 4750 
z
" transform="scale(0.015625)"/>
       <path id="DejaVuSans-62" d="M 3116 1747 
Q 3116 2381 2855 2742 
Q 2594 3103 2138 3103 
Q 1681 3103 1420 2742 
Q 1159 2381 1159 1747 
Q 1159 1113 1420 752 
Q 1681 391 2138 391 
Q 2594 391 2855 752 
Q 3116 1113 3116 1747 
z
M 1159 2969 
Q 1341 3281 1617 3432 
Q 1894 3584 2278 3584 
Q 2916 3584 3314 3078 
Q 3713 2572 3713 1747 
Q 3713 922 3314 415 
Q 2916 -91 2278 -91 
Q 1894 -91 1617 61 
Q 1341 213 1159 525 
L 1159 0 
L 581 0 
L 581 4863 
L 1159 4863 
L 1159 2969 
z
" transform="scale(0.015625)"/>
       <path id="DejaVuSans-73" d="M 2834 3397 
L 2834 2853 
Q 2591 2978 2328 3040 
Q 2066 3103 1784 3103 
Q 1356 3103 1142 2972 
Q 928 2841 928 2578 
Q 928 2378 1081 2264 
Q 1234 2150 1697 2047 
L 1894 2003 
Q 2506 1872 2764 1633 
Q 3022 1394 3022 966 
Q 3022 478 2636 193 
Q 2250 -91 1575 -91 
Q 1294 -91 989 -36 
Q 684 19 347 128 
L 347 722 
Q 666 556 975 473 
Q 1284 391 1588 391 
Q 1994 391 2212 530 
Q 2431 669 2431 922 
Q 2431 1156 2273 1281 
Q 2116 1406 1581 1522 
L 1381 1569 
Q 847 1681 609 1914 
Q 372 2147 372 2553 
Q 372 3047 722 3315 
Q 1072 3584 1716 3584 
Q 2034 3584 2315 3537 
Q 2597 3491 2834 3397 
z
" transform="scale(0.015625)"/>
       <path id="DejaVuSans-72" d="M 2631 2963 
Q 2534 3019 2420 3045 
Q 2306 3072 2169 3072 
Q 1681 3072 1420 2755 
Q 1159 2438 1159 1844 
L 1159 0 
L 581 0 
L 581 3500 
L 1159 3500 
L 1159 2956 
Q 1341 3275 1631 3429 
Q 1922 3584 2338 3584 
Q 2397 3584 2469 3576 
Q 2541 3569 2628 3553 
L 2631 2963 
z
" transform="scale(0.015625)"/>
       <path id="DejaVuSans-76" d="M 191 3500 
L 800 3500 
L 1894 563 
L 2988 3500 
L 3597 3500 
L 2284 0 
L 1503 0 
L 191 3500 
z
" transform="scale(0.015625)"/>
       <path id="DejaVuSans-61" d="M 2194 1759 
Q 1497 1759 1228 1600 
Q 959 1441 959 1056 
Q 959 750 1161 570 
Q 1363 391 1709 391 
Q 2188 391 2477 730 
Q 2766 1069 2766 1631 
L 2766 1759 
L 2194 1759 
z
M 3341 1997 
L 3341 0 
L 2766 0 
L 2766 531 
Q 2569 213 2275 61 
Q 1981 -91 1556 -91 
Q 1019 -91 701 211 
Q 384 513 384 1019 
Q 384 1609 779 1909 
Q 1175 2209 1959 2209 
L 2766 2209 
L 2766 2266 
Q 2766 2663 2505 2880 
Q 2244 3097 1772 3097 
Q 1472 3097 1187 3025 
Q 903 2953 641 2809 
L 641 3341 
Q 956 3463 1253 3523 
Q 1550 3584 1831 3584 
Q 2591 3584 2966 3190 
Q 3341 2797 3341 1997 
z
" transform="scale(0.015625)"/>
       <path id="DejaVuSans-6c" d="M 603 4863 
L 1178 4863 
L 1178 0 
L 603 0 
L 603 4863 
z
" transform="scale(0.015625)"/>
      </defs>
      <use xlink:href="#DejaVuSans-4f"/>
      <use xlink:href="#DejaVuSans-62" transform="translate(78.710938 0)"/>
      <use xlink:href="#DejaVuSans-73" transform="translate(142.1875 0)"/>
      <use xlink:href="#DejaVuSans-65" transform="translate(194.287109 0)"/>
      <use xlink:href="#DejaVuSans-72" transform="translate(255.810547 0)"/>
      <use xlink:href="#DejaVuSans-76" transform="translate(296.923828 0)"/>
      <use xlink:href="#DejaVuSans-61" transform="translate(356.103516 0)"/>
      <use xlink:href="#DejaVuSans-62" transform="translate(417.382812 0)"/>
      <use xlink:href="#DejaVuSans-6c" transform="translate(480.859375 0)"/>
      <use xlink:href="#DejaVuSans-65" transform="translate(508.642578 0)"/>
     </g>
    </g>
   </g>
   <g id="line2d_18">
    <path d="M 46.965625 273.312 
L 47.067689 252.841846 
L 47.145502 243.537231 
L 47.459632 224.928 
L 47.556712 221.206154 
L 47.644564 211.901538 
L 47.755681 206.318769 
L 47.84971 198.875077 
L 47.916515 193.292308 
L 48.08767 187.709538 
L 48.281427 182.126769 
L 48.479449 169.100308 
L 48.749779 163.517538 
L 49.001234 156.073846 
L 49.180735 154.212923 
L 49.231148 150.491077 
L 49.584966 144.908308 
L 49.919671 146.769231 
L 50.097143 143.047385 
L 50.101449 144.908308 
L 50.334263 143.047385 
L 50.427892 141.186462 
L 50.798748 139.325538 
L 51.301769 133.742769 
L 51.804081 131.881846 
L 51.970316 130.020923 
L 51.976484 128.16 
L 52.218917 126.299077 
L 52.226604 124.438154 
L 52.509819 122.577231 
L 53.019693 120.716308 
L 53.573851 122.577231 
L 53.653989 120.716308 
L 54.057064 116.994462 
L 55.902538 118.855385 
L 56.243617 116.994462 
L 56.857577 115.133538 
L 60.246234 116.994462 
L 60.903949 115.133538 
L 63.125675 113.272615 
L 63.481879 111.411692 
L 64.665731 109.550769 
L 64.796471 107.689846 
L 66.343305 105.828923 
L 66.840788 107.689846 
L 67.131696 105.828923 
L 67.360318 107.689846 
L 68.459889 109.550769 
L 68.848666 107.689846 
L 69.067446 109.550769 
L 71.706727 107.689846 
L 72.96546 105.828923 
L 73.704331 103.968 
L 73.961827 105.828923 
L 73.96684 107.689846 
L 75.08951 111.411692 
L 75.139848 109.550769 
L 75.475242 111.411692 
L 76.682626 113.272615 
L 77.51612 115.133538 
L 78.468492 113.272615 
L 79.826272 111.411692 
L 79.846269 109.550769 
L 80.730592 111.411692 
L 80.896753 109.550769 
L 81.404126 107.689846 
L 84.032126 105.828923 
L 84.187744 107.689846 
L 85.347464 109.550769 
L 85.832077 107.689846 
L 85.893177 105.828923 
L 88.440806 103.968 
L 89.274996 100.246154 
L 89.564609 102.107077 
L 90.844387 100.246154 
L 92.763965 102.107077 
L 93.279125 100.246154 
L 95.944451 98.385231 
L 95.962644 100.246154 
L 96.976932 98.385231 
L 97.437276 100.246154 
L 99.145463 102.107077 
L 99.552751 103.968 
L 100.705142 102.107077 
L 101.14505 103.968 
L 101.268742 105.828923 
L 101.756578 107.689846 
L 102.764578 105.828923 
L 103.360024 107.689846 
L 104.069989 105.828923 
L 106.580308 107.689846 
L 107.095836 109.550769 
L 107.583578 107.689846 
L 110.005767 105.828923 
L 110.276029 107.689846 
L 110.682184 109.550769 
L 112.582509 107.689846 
L 113.445592 105.828923 
L 113.62071 103.968 
L 113.808761 105.828923 
L 114.131551 107.689846 
L 115.405034 109.550769 
L 116.197363 107.689846 
L 119.419035 105.828923 
L 119.856132 107.689846 
L 120.315764 111.411692 
L 120.583091 109.550769 
L 121.931251 111.411692 
L 123.137427 113.272615 
L 123.197532 111.411692 
L 123.484699 109.550769 
L 124.211269 105.828923 
L 124.373363 107.689846 
L 124.813147 109.550769 
L 124.861272 107.689846 
L 125.329237 103.968 
L 127.875225 102.107077 
L 128.324573 100.246154 
L 129.126588 102.107077 
L 129.78812 103.968 
L 131.04766 105.828923 
L 131.957393 103.968 
L 132.299541 105.828923 
L 136.751116 103.968 
L 137.043566 102.107077 
L 138.377564 103.968 
L 141.473783 105.828923 
L 141.701942 107.689846 
L 144.79218 105.828923 
L 145.202226 109.550769 
L 146.285529 107.689846 
L 148.079321 105.828923 
L 148.646467 103.968 
L 148.756139 105.828923 
L 149.63853 107.689846 
L 153.085675 105.828923 
L 153.576482 103.968 
L 154.032879 105.828923 
L 154.60672 103.968 
L 154.909887 102.107077 
L 155.669701 100.246154 
L 156.824902 98.385231 
L 158.337384 96.524308 
L 159.427476 94.663385 
L 160.660524 98.385231 
L 162.263231 100.246154 
L 164.079926 102.107077 
L 164.201114 100.246154 
L 164.344538 102.107077 
L 165.553751 103.968 
L 167.002162 105.828923 
L 167.279396 107.689846 
L 168.143446 111.411692 
L 168.465527 109.550769 
L 169.212253 107.689846 
L 170.177657 105.828923 
L 170.280332 107.689846 
L 171.105001 109.550769 
L 171.330144 107.689846 
L 173.205691 105.828923 
L 173.312395 103.968 
L 175.815091 102.107077 
L 176.814209 103.968 
L 178.600463 102.107077 
L 179.823576 100.246154 
L 180.458528 102.107077 
L 186.002039 103.968 
L 186.656647 105.828923 
L 187.887796 103.968 
L 189.665781 102.107077 
L 190.931702 100.246154 
L 193.603454 102.107077 
L 195.843343 100.246154 
L 198.101086 103.968 
L 198.295796 102.107077 
L 199.88863 103.968 
L 202.468007 107.689846 
L 202.528633 105.828923 
L 202.924364 107.689846 
L 203.086949 109.550769 
L 203.216459 107.689846 
L 203.455166 109.550769 
L 203.973147 107.689846 
L 204.881082 109.550769 
L 205.038407 107.689846 
L 205.313069 109.550769 
L 205.417917 107.689846 
L 209.904365 105.828923 
L 215.434967 107.689846 
L 215.757653 109.550769 
L 215.828205 111.411692 
L 215.972369 109.550769 
L 218.30601 107.689846 
L 221.037046 109.550769 
L 222.194577 107.689846 
L 223.292581 109.550769 
L 223.594393 107.689846 
L 224.050722 105.828923 
L 226.383494 103.968 
L 227.091611 85.358769 
L 227.358962 83.497846 
L 227.430388 79.776 
L 227.466752 81.636923 
L 227.663742 79.776 
L 227.71637 77.915077 
L 227.917126 76.054154 
L 227.921092 74.193231 
L 228.158073 70.471385 
L 228.464038 63.027692 
L 228.556501 59.305846 
L 228.601735 61.166769 
L 228.850109 59.305846 
L 229.002922 53.723077 
L 229.173231 46.279385 
L 229.240599 44.418462 
L 229.731152 38.835692 
L 229.984205 40.696615 
L 230.081546 38.835692 
L 230.35846 36.974769 
L 230.727524 38.835692 
L 230.815429 40.696615 
L 230.819111 38.835692 
L 230.830983 36.974769 
L 231.516558 35.113846 
L 231.604515 33.252923 
L 232.861343 31.392 
L 233.275831 29.531077 
L 233.82672 27.670154 
L 233.844828 29.531077 
L 234.182287 23.948308 
L 234.678559 22.087385 
L 234.960774 20.226462 
L 235.998868 22.087385 
L 236.03887 20.226462 
L 239.525274 22.087385 
L 239.541261 23.948308 
L 240.215849 20.226462 
L 240.90302 22.087385 
L 241.640471 20.226462 
L 242.912336 18.365538 
L 243.590449 16.504615 
L 243.820213 18.365538 
L 244.270565 16.504615 
L 244.421683 18.365538 
L 245.059922 16.504615 
L 245.344847 18.365538 
L 246.32854 16.504615 
L 246.332095 18.365538 
L 246.545548 20.226462 
L 248.50835 18.365538 
L 248.685222 20.226462 
L 249.447594 18.365538 
L 250.097364 20.226462 
L 251.112646 18.365538 
L 253.623507 16.504615 
L 254.07911 14.643692 
L 254.60123 10.921846 
L 255.350446 12.782769 
L 256.539536 9.060923 
L 256.722012 10.921846 
L 256.811736 9.060923 
L 257.162071 10.921846 
L 258.287062 9.060923 
L 258.581644 10.921846 
L 258.661703 9.060923 
L 260.542546 10.921846 
L 261.252208 12.782769 
L 261.695401 10.921846 
L 262.371927 12.782769 
L 262.453928 14.643692 
L 262.87319 16.504615 
L 264.01723 14.643692 
L 264.985301 12.782769 
L 265.36674 10.921846 
L 266.469434 12.782769 
L 267.077645 14.643692 
L 267.274899 12.782769 
L 267.622269 14.643692 
L 268.021572 12.782769 
L 269.246609 10.921846 
L 269.329996 12.782769 
L 270.357545 10.921846 
L 270.593993 12.782769 
L 271.442683 10.921846 
L 271.631292 7.2 
L 275.149151 9.060923 
L 275.745262 7.2 
L 276.926681 9.060923 
L 278.110253 7.2 
L 278.296236 9.060923 
L 279.049304 10.921846 
L 279.459306 12.782769 
L 280.004299 14.643692 
L 281.333896 16.504615 
L 281.653525 14.643692 
L 281.677179 16.504615 
L 282.401127 14.643692 
L 283.592731 12.782769 
L 283.716158 16.504615 
L 283.931803 14.643692 
L 283.994253 16.504615 
L 284.375375 18.365538 
L 284.390226 16.504615 
L 285.171032 18.365538 
L 288.288266 20.226462 
L 288.296265 22.087385 
L 288.529697 20.226462 
L 289.21821 18.365538 
L 289.226145 16.504615 
L 289.5752 14.643692 
L 291.626587 16.504615 
L 292.137602 18.365538 
L 293.882694 20.226462 
L 294.814866 22.087385 
L 295.027194 23.948308 
L 295.167034 22.087385 
L 295.266284 23.948308 
L 295.881084 25.809231 
L 296.291947 23.948308 
L 296.368042 22.087385 
L 296.547792 23.948308 
L 297.127019 25.809231 
L 297.24551 23.948308 
L 298.04105 22.087385 
L 298.213332 23.948308 
L 298.35053 22.087385 
L 299.452434 20.226462 
L 300.119697 18.365538 
L 300.272677 16.504615 
L 301.120667 14.643692 
L 302.001831 10.921846 
L 302.068976 9.060923 
L 302.542757 10.921846 
L 302.908144 7.2 
L 303.161205 9.060923 
L 303.233955 7.2 
L 304.403037 9.060923 
L 305.27866 12.782769 
L 305.383015 10.921846 
L 305.818819 9.060923 
L 306.304118 10.921846 
L 307.012041 9.060923 
L 307.143129 10.921846 
L 307.42779 12.782769 
L 308.417484 14.643692 
L 309.994197 16.504615 
L 310.218429 18.365538 
L 310.246515 16.504615 
L 310.591899 14.643692 
L 310.632794 12.782769 
L 311.506089 10.921846 
L 311.583593 12.782769 
L 311.698675 10.921846 
L 312.010558 14.643692 
L 312.568115 12.782769 
L 312.696218 10.921846 
L 312.980922 12.782769 
L 313.346682 10.921846 
L 316.006373 14.643692 
L 316.19037 16.504615 
L 316.292401 14.643692 
L 316.719623 16.504615 
L 317.48778 18.365538 
L 317.773295 14.643692 
L 318.102934 16.504615 
L 319.846882 14.643692 
L 319.948003 12.782769 
L 320.599254 10.921846 
L 322.279833 12.782769 
L 324.265643 14.643692 
L 324.544896 12.782769 
L 324.925941 14.643692 
L 325.526789 16.504615 
L 325.568174 18.365538 
L 326.335295 16.504615 
L 326.909164 14.643692 
L 327.513753 16.504615 
L 327.747516 14.643692 
L 327.950666 16.504615 
L 329.557321 18.365538 
L 329.768305 16.504615 
L 330.270586 18.365538 
L 330.895825 22.087385 
L 331.154828 20.226462 
L 331.218629 18.365538 
L 332.326102 16.504615 
L 332.503001 18.365538 
L 332.545715 20.226462 
L 334.842425 18.365538 
L 334.891109 16.504615 
L 335.241373 14.643692 
L 335.639167 16.504615 
L 337.686867 18.365538 
L 338.078368 23.948308 
L 338.331012 18.365538 
L 338.439223 22.087385 
L 339.104236 23.948308 
L 340.005937 25.809231 
L 340.395594 27.670154 
L 341.467789 25.809231 
L 341.671612 27.670154 
L 342.889303 23.948308 
L 343.202116 25.809231 
L 343.343472 23.948308 
L 343.828175 22.087385 
L 344.032377 23.948308 
L 344.404754 22.087385 
L 344.599652 18.365538 
L 344.779838 20.226462 
L 344.830597 22.087385 
L 346.265079 23.948308 
L 346.783276 25.809231 
L 347.171609 22.087385 
L 347.661201 20.226462 
L 348.475902 18.365538 
L 349.602001 16.504615 
L 351.283995 18.365538 
L 351.45969 22.087385 
L 351.55717 20.226462 
L 352.480348 18.365538 
L 352.608866 16.504615 
L 352.916205 18.365538 
L 353.258114 16.504615 
L 353.345815 14.643692 
L 354.592979 12.782769 
L 357.769616 14.643692 
L 358.555951 16.504615 
L 359.162005 18.365538 
L 359.343986 16.504615 
L 360.833893 18.365538 
L 362.0269 20.226462 
L 362.317253 22.087385 
L 362.632877 20.226462 
L 362.871876 22.087385 
L 363.550245 20.226462 
L 363.742251 23.948308 
L 363.845471 22.087385 
L 364.197632 20.226462 
L 365.189351 18.365538 
L 365.590826 16.504615 
L 366.131208 18.365538 
L 366.549182 20.226462 
L 369.009094 16.504615 
L 370.27114 18.365538 
L 371.364361 14.643692 
L 372.02077 12.782769 
L 372.311601 18.365538 
L 373.148797 16.504615 
L 378.116953 14.643692 
L 379.194812 12.782769 
L 379.464566 14.643692 
L 380.474073 18.365538 
L 381.26831 20.226462 
L 381.761699 18.365538 
L 382.520829 16.504615 
L 382.752729 14.643692 
L 383.263538 16.504615 
L 383.388322 18.365538 
L 383.464442 16.504615 
L 385.256186 18.365538 
L 385.337927 16.504615 
L 386.776864 14.643692 
L 387.294925 16.504615 
L 387.364368 20.226462 
L 387.381357 18.365538 
L 388.987748 16.504615 
L 389.613979 12.782769 
L 390.072583 14.643692 
L 390.097846 12.782769 
L 390.912813 14.643692 
L 390.920909 16.504615 
L 392.734336 18.365538 
L 392.931704 20.226462 
L 393.368196 18.365538 
L 393.712102 12.782769 
L 393.960457 14.643692 
L 394.086812 12.782769 
L 394.114412 14.643692 
L 397.392796 12.782769 
L 397.52947 10.921846 
L 398.488398 14.643692 
L 398.53238 16.504615 
L 398.628873 14.643692 
L 398.701723 16.504615 
L 399.18056 18.365538 
L 399.527511 16.504615 
L 399.541323 14.643692 
L 400.890059 16.504615 
L 401.572821 14.643692 
L 401.756859 16.504615 
L 401.836592 14.643692 
L 402.716633 12.782769 
L 402.753902 14.643692 
L 404.085625 12.782769 
L 404.085625 12.782769 
" clip-path="url(#p022b4fc619)" style="fill: none; stroke: #1f77b4; stroke-width: 1.5; stroke-linecap: square"/>
   </g>
   <g id="line2d_19">
    <path d="M 226.454497 165.378462 
L 226.796399 174.683077 
L 226.927231 180.265846 
L 227.380069 185.848615 
L 227.430388 187.709538 
L 227.466752 185.848615 
L 227.663742 187.709538 
L 227.71637 189.570462 
L 227.917126 191.431385 
L 227.921092 193.292308 
L 228.158073 197.014154 
L 228.464038 204.457846 
L 228.556501 208.179692 
L 228.601735 206.318769 
L 228.850109 208.179692 
L 229.002922 213.762462 
L 229.173231 221.206154 
L 229.240599 223.067077 
L 229.731152 228.649846 
L 229.984205 226.788923 
L 230.081546 228.649846 
L 230.35846 230.510769 
L 230.727524 228.649846 
L 230.815429 226.788923 
L 230.819111 228.649846 
L 230.830983 230.510769 
L 231.516558 232.371692 
L 231.604515 234.232615 
L 232.861343 236.093538 
L 233.275831 237.954462 
L 233.82672 239.815385 
L 233.844828 237.954462 
L 234.182287 243.537231 
L 234.678559 245.398154 
L 234.960774 247.259077 
L 235.998868 245.398154 
L 236.03887 247.259077 
L 239.525274 245.398154 
L 239.541261 243.537231 
L 240.215849 247.259077 
L 240.90302 245.398154 
L 241.640471 247.259077 
L 242.912336 249.12 
L 243.590449 250.980923 
L 243.820213 249.12 
L 244.270565 250.980923 
L 244.421683 249.12 
L 245.059922 250.980923 
L 245.344847 249.12 
L 246.32854 250.980923 
L 246.332095 249.12 
L 246.545548 247.259077 
L 248.50835 249.12 
L 248.685222 247.259077 
L 249.447594 249.12 
L 250.097364 247.259077 
L 251.112646 249.12 
L 253.623507 250.980923 
L 254.07911 252.841846 
L 254.60123 256.563692 
L 255.350446 254.702769 
L 256.539536 258.424615 
L 256.722012 256.563692 
L 256.811736 258.424615 
L 257.162071 256.563692 
L 258.287062 258.424615 
L 258.581644 256.563692 
L 258.661703 258.424615 
L 260.542546 256.563692 
L 261.252208 254.702769 
L 261.695401 256.563692 
L 262.371927 254.702769 
L 262.453928 252.841846 
L 262.87319 250.980923 
L 264.01723 252.841846 
L 264.985301 254.702769 
L 265.36674 256.563692 
L 266.469434 254.702769 
L 267.077645 252.841846 
L 267.274899 254.702769 
L 267.622269 252.841846 
L 268.021572 254.702769 
L 269.246609 256.563692 
L 269.329996 254.702769 
L 270.357545 256.563692 
L 270.593993 254.702769 
L 271.442683 256.563692 
L 271.631292 260.285538 
L 275.149151 258.424615 
L 275.745262 260.285538 
L 276.926681 258.424615 
L 278.110253 260.285538 
L 278.296236 258.424615 
L 279.049304 256.563692 
L 279.459306 254.702769 
L 280.004299 252.841846 
L 281.333896 250.980923 
L 281.653525 252.841846 
L 281.677179 250.980923 
L 282.401127 252.841846 
L 283.592731 254.702769 
L 283.716158 250.980923 
L 283.931803 252.841846 
L 283.994253 250.980923 
L 284.375375 249.12 
L 284.390226 250.980923 
L 285.171032 249.12 
L 288.288266 247.259077 
L 288.296265 245.398154 
L 288.529697 247.259077 
L 289.21821 249.12 
L 289.226145 250.980923 
L 289.5752 252.841846 
L 291.626587 250.980923 
L 292.137602 249.12 
L 293.882694 247.259077 
L 294.814866 245.398154 
L 295.027194 243.537231 
L 295.167034 245.398154 
L 295.266284 243.537231 
L 295.881084 241.676308 
L 296.291947 243.537231 
L 296.368042 245.398154 
L 296.547792 243.537231 
L 297.127019 241.676308 
L 297.24551 243.537231 
L 298.04105 245.398154 
L 298.213332 243.537231 
L 298.35053 245.398154 
L 299.452434 247.259077 
L 300.119697 249.12 
L 300.272677 250.980923 
L 301.120667 252.841846 
L 302.001831 256.563692 
L 302.068976 258.424615 
L 302.542757 256.563692 
L 302.908144 260.285538 
L 303.161205 258.424615 
L 303.233955 260.285538 
L 304.403037 258.424615 
L 305.27866 254.702769 
L 305.383015 256.563692 
L 305.818819 258.424615 
L 306.304118 256.563692 
L 307.012041 258.424615 
L 307.143129 256.563692 
L 307.42779 254.702769 
L 308.417484 252.841846 
L 309.994197 250.980923 
L 310.218429 249.12 
L 310.246515 250.980923 
L 310.591899 252.841846 
L 310.632794 254.702769 
L 311.506089 256.563692 
L 311.583593 254.702769 
L 311.698675 256.563692 
L 312.010558 252.841846 
L 312.568115 254.702769 
L 312.696218 256.563692 
L 312.980922 254.702769 
L 313.346682 256.563692 
L 316.006373 252.841846 
L 316.19037 250.980923 
L 316.292401 252.841846 
L 316.719623 250.980923 
L 317.48778 249.12 
L 317.773295 252.841846 
L 318.102934 250.980923 
L 319.846882 252.841846 
L 319.948003 254.702769 
L 320.599254 256.563692 
L 322.279833 254.702769 
L 324.265643 252.841846 
L 324.544896 254.702769 
L 324.925941 252.841846 
L 325.526789 250.980923 
L 325.568174 249.12 
L 326.335295 250.980923 
L 326.909164 252.841846 
L 327.513753 250.980923 
L 327.747516 252.841846 
L 327.950666 250.980923 
L 329.557321 249.12 
L 329.768305 250.980923 
L 330.270586 249.12 
L 330.895825 245.398154 
L 331.154828 247.259077 
L 331.218629 249.12 
L 332.326102 250.980923 
L 332.503001 249.12 
L 332.545715 247.259077 
L 334.842425 249.12 
L 334.891109 250.980923 
L 335.241373 252.841846 
L 335.639167 250.980923 
L 337.686867 249.12 
L 338.078368 243.537231 
L 338.331012 249.12 
L 338.439223 245.398154 
L 339.104236 243.537231 
L 340.005937 241.676308 
L 340.395594 239.815385 
L 341.467789 241.676308 
L 341.671612 239.815385 
L 342.889303 243.537231 
L 343.202116 241.676308 
L 343.343472 243.537231 
L 343.828175 245.398154 
L 344.032377 243.537231 
L 344.404754 245.398154 
L 344.599652 249.12 
L 344.779838 247.259077 
L 344.830597 245.398154 
L 346.265079 243.537231 
L 346.783276 241.676308 
L 347.171609 245.398154 
L 347.661201 247.259077 
L 348.475902 249.12 
L 349.602001 250.980923 
L 351.283995 249.12 
L 351.45969 245.398154 
L 351.55717 247.259077 
L 352.480348 249.12 
L 352.608866 250.980923 
L 352.916205 249.12 
L 353.258114 250.980923 
L 353.345815 252.841846 
L 354.592979 254.702769 
L 357.769616 252.841846 
L 358.555951 250.980923 
L 359.162005 249.12 
L 359.343986 250.980923 
L 360.833893 249.12 
L 362.0269 247.259077 
L 362.317253 245.398154 
L 362.632877 247.259077 
L 362.871876 245.398154 
L 363.550245 247.259077 
L 363.742251 243.537231 
L 363.845471 245.398154 
L 364.197632 247.259077 
L 365.189351 249.12 
L 365.590826 250.980923 
L 366.131208 249.12 
L 366.549182 247.259077 
L 369.009094 250.980923 
L 370.27114 249.12 
L 371.364361 252.841846 
L 372.02077 254.702769 
L 372.311601 249.12 
L 373.148797 250.980923 
L 378.116953 252.841846 
L 379.194812 254.702769 
L 379.464566 252.841846 
L 380.474073 249.12 
L 381.26831 247.259077 
L 381.761699 249.12 
L 382.520829 250.980923 
L 382.752729 252.841846 
L 383.263538 250.980923 
L 383.388322 249.12 
L 383.464442 250.980923 
L 385.256186 249.12 
L 385.337927 250.980923 
L 386.776864 252.841846 
L 387.294925 250.980923 
L 387.364368 247.259077 
L 387.381357 249.12 
L 388.987748 250.980923 
L 389.613979 254.702769 
L 390.072583 252.841846 
L 390.097846 254.702769 
L 390.912813 252.841846 
L 390.920909 250.980923 
L 392.734336 249.12 
L 392.931704 247.259077 
L 393.368196 249.12 
L 393.712102 254.702769 
L 393.960457 252.841846 
L 394.086812 254.702769 
L 394.114412 252.841846 
L 397.392796 254.702769 
L 397.52947 256.563692 
L 398.488398 252.841846 
L 398.53238 250.980923 
L 398.628873 252.841846 
L 398.701723 250.980923 
L 399.18056 249.12 
L 399.527511 250.980923 
L 399.541323 252.841846 
L 400.890059 250.980923 
L 401.572821 252.841846 
L 401.756859 250.980923 
L 401.836592 252.841846 
L 402.716633 254.702769 
L 402.753902 252.841846 
L 404.085625 254.702769 
L 404.085625 254.702769 
" clip-path="url(#p022b4fc619)" style="fill: none; stroke: #ff7f0e; stroke-width: 1.5; stroke-linecap: square"/>
   </g>
   <g id="line2d_20">
    <path d="M 226.383494 273.312 
L 226.383494 7.2 
" clip-path="url(#p022b4fc619)" style="fill: none; stroke-dasharray: 1.5,2.475; stroke-dashoffset: 0; stroke: #000000; stroke-width: 1.5"/>
   </g>
   <g id="line2d_21">
    <path d="M 254.358713 273.312 
L 254.358713 7.2 
" clip-path="url(#p022b4fc619)" style="fill: none; stroke-dasharray: 1.5,2.475; stroke-dashoffset: 0; stroke: #000000; stroke-width: 1.5"/>
   </g>
   <g id="line2d_22">
    <path d="M 403.724942 273.312 
L 403.724942 7.2 
" clip-path="url(#p022b4fc619)" style="fill: none; stroke-dasharray: 1.5,2.475; stroke-dashoffset: 0; stroke: #000000; stroke-width: 1.5"/>
   </g>
   <g id="patch_3">
    <path d="M 46.965625 273.312 
L 46.965625 7.2 
" style="fill: none; stroke: #000000; stroke-width: 0.8; stroke-linejoin: miter; stroke-linecap: square"/>
   </g>
   <g id="patch_4">
    <path d="M 404.085625 273.312 
L 404.085625 7.2 
" style="fill: none; stroke: #000000; stroke-width: 0.8; stroke-linejoin: miter; stroke-linecap: square"/>
   </g>
   <g id="patch_5">
    <path d="M 46.965625 273.312 
L 404.085625 273.312 
" style="fill: none; stroke: #000000; stroke-width: 0.8; stroke-linejoin: miter; stroke-linecap: square"/>
   </g>
   <g id="patch_6">
    <path d="M 46.965625 7.2 
L 404.085625 7.2 
" style="fill: none; stroke: #000000; stroke-width: 0.8; stroke-linejoin: miter; stroke-linecap: square"/>
   </g>
   <g id="legend_1">
    <g id="patch_7">
     <path d="M 53.965625 44.55625 
L 99.667188 44.55625 
Q 101.667188 44.55625 101.667188 42.55625 
L 101.667188 14.2 
Q 101.667188 12.2 99.667188 12.2 
L 53.965625 12.2 
Q 51.965625 12.2 51.965625 14.2 
L 51.965625 42.55625 
Q 51.965625 44.55625 53.965625 44.55625 
z
" style="fill: #ffffff; opacity: 0.8; stroke: #cccccc; stroke-linejoin: miter"/>
    </g>
    <g id="line2d_23">
     <path d="M 55.965625 20.298437 
L 65.965625 20.298437 
L 75.965625 20.298437 
" style="fill: none; stroke: #1f77b4; stroke-width: 1.5; stroke-linecap: square"/>
    </g>
    <g id="text_20">
     <!-- AB -->
     <g transform="translate(83.965625 23.798437) scale(0.1 -0.1)">
      <defs>
       <path id="DejaVuSans-41" d="M 2188 4044 
L 1331 1722 
L 3047 1722 
L 2188 4044 
z
M 1831 4666 
L 2547 4666 
L 4325 0 
L 3669 0 
L 3244 1197 
L 1141 1197 
L 716 0 
L 50 0 
L 1831 4666 
z
" transform="scale(0.015625)"/>
       <path id="DejaVuSans-42" d="M 1259 2228 
L 1259 519 
L 2272 519 
Q 2781 519 3026 730 
Q 3272 941 3272 1375 
Q 3272 1813 3026 2020 
Q 2781 2228 2272 2228 
L 1259 2228 
z
M 1259 4147 
L 1259 2741 
L 2194 2741 
Q 2656 2741 2882 2914 
Q 3109 3088 3109 3444 
Q 3109 3797 2882 3972 
Q 2656 4147 2194 4147 
L 1259 4147 
z
M 628 4666 
L 2241 4666 
Q 2963 4666 3353 4366 
Q 3744 4066 3744 3513 
Q 3744 3084 3544 2831 
Q 3344 2578 2956 2516 
Q 3422 2416 3680 2098 
Q 3938 1781 3938 1306 
Q 3938 681 3513 340 
Q 3088 0 2303 0 
L 628 0 
L 628 4666 
z
" transform="scale(0.015625)"/>
      </defs>
      <use xlink:href="#DejaVuSans-41"/>
      <use xlink:href="#DejaVuSans-42" transform="translate(68.408203 0)"/>
     </g>
    </g>
    <g id="line2d_24">
     <path d="M 55.965625 34.976562 
L 65.965625 34.976562 
L 75.965625 34.976562 
" style="fill: none; stroke: #ff7f0e; stroke-width: 1.5; stroke-linecap: square"/>
    </g>
    <g id="text_21">
     <!-- A -->
     <g transform="translate(83.965625 38.476562) scale(0.1 -0.1)">
      <use xlink:href="#DejaVuSans-41"/>
     </g>
    </g>
   </g>
  </g>
 </g>
 <defs>
  <clipPath id="p022b4fc619">
   <rect x="46.965625" y="7.2" width="357.12" height="266.112"/>
  </clipPath>
 </defs>
</svg>
