<?xml version="1.0" encoding="utf-8" standalone="no"?>
<!DOCTYPE svg PUBLIC "-//W3C//DTD SVG 1.1//EN"
  "http://www.w3.org/Graphics/SVG/1.1/DTD/svg11.dtd">
<svg xmlns:xlink="http://www.w3.org/1999/xlink" width="332.39952pt" height="332.39952pt" viewBox="0 0 332.39952 332.39952" xmlns="http://www.w3.org/2000/svg" version="1.1">
 <metadata>
  <rdf:RDF xmlns:dc="http://purl.org/dc/elements/1.1/" xmlns:cc="http://creativecommons.org/ns#" xmlns:rdf="http://www.w3.org/1999/02/22-rdf-syntax-ns#">
   <cc:Work>
    <dc:type rdf:resource="http://purl.org/dc/dcmitype/StillImage"/>
    <dc:date>2026-06-12T14:12:41.104462</dc:date>
    <dc:format>image/svg+xml</dc:format>
    <dc:creator>
     <cc:Agent>
      <dc:title>Matplotlib v3.11.0, https://matplotlib.org/</dc:title>
     </cc:Agent>
    </dc:creator>
   </cc:Work>
  </rdf:RDF>
 </metadata>
 <defs>
  <style type="text/css">*{stroke-linejoin: round; stroke-linecap: butt}</style>
 </defs>
 <g id="figure_1">
  <g id="patch_1">
   <path d="M 0 332.39952 
L 332.39952 332.39952 
L 332.39952 0 
L 0 0 
z
" style="fill: #ffffff"/>
  </g>
  <g id="axes_1">
   <g id="patch_2">
    <path d="M 44.103906 96.532593 
L 325.19952 96.532593 
L 325.19952 7.2 
L 44.103906 7.2 
z
" style="fill: #ffffff"/>
   </g>
   <g id="matplotlib.axis_1">
    <g id="xtick_1">
     <g id="line2d_1">
      <defs>
       <path id="mdf532ad194" d="M 0 0 
L 0 3.5 
" style="stroke: #000000; stroke-width: 0.8"/>
      </defs>
      <g>
       <use xlink:href="#mdf532ad194" x="56.88098" y="96.532593" style="stroke: #000000; stroke-width: 0.8"/>
      </g>
     </g>
    </g>
    <g id="xtick_2">
     <g id="line2d_2">
      <g>
       <use xlink:href="#mdf532ad194" x="88.687183" y="96.532593" style="stroke: #000000; stroke-width: 0.8"/>
      </g>
     </g>
    </g>
    <g id="xtick_3">
     <g id="line2d_3">
      <g>
       <use xlink:href="#mdf532ad194" x="120.493386" y="96.532593" style="stroke: #000000; stroke-width: 0.8"/>
      </g>
     </g>
    </g>
    <g id="xtick_4">
     <g id="line2d_4">
      <g>
       <use xlink:href="#mdf532ad194" x="152.299589" y="96.532593" style="stroke: #000000; stroke-width: 0.8"/>
      </g>
     </g>
    </g>
    <g id="xtick_5">
     <g id="line2d_5">
      <g>
       <use xlink:href="#mdf532ad194" x="184.105793" y="96.532593" style="stroke: #000000; stroke-width: 0.8"/>
      </g>
     </g>
    </g>
    <g id="xtick_6">
     <g id="line2d_6">
      <g>
       <use xlink:href="#mdf532ad194" x="215.911996" y="96.532593" style="stroke: #000000; stroke-width: 0.8"/>
      </g>
     </g>
    </g>
    <g id="xtick_7">
     <g id="line2d_7">
      <g>
       <use xlink:href="#mdf532ad194" x="247.718199" y="96.532593" style="stroke: #000000; stroke-width: 0.8"/>
      </g>
     </g>
    </g>
    <g id="xtick_8">
     <g id="line2d_8">
      <g>
       <use xlink:href="#mdf532ad194" x="279.524402" y="96.532593" style="stroke: #000000; stroke-width: 0.8"/>
      </g>
     </g>
    </g>
    <g id="xtick_9">
     <g id="line2d_9">
      <g>
       <use xlink:href="#mdf532ad194" x="311.330606" y="96.532593" style="stroke: #000000; stroke-width: 0.8"/>
      </g>
     </g>
    </g>
   </g>
   <g id="matplotlib.axis_2">
    <g id="ytick_1">
     <g id="line2d_10">
      <defs>
       <path id="ma359cba898" d="M 0 0 
L -3.5 0 
" style="stroke: #000000; stroke-width: 0.8"/>
      </defs>
      <g>
       <use xlink:href="#ma359cba898" x="44.103906" y="92.472021" style="stroke: #000000; stroke-width: 0.8"/>
      </g>
     </g>
     <g id="text_1">
      <!-- 0 -->
      <g transform="translate(30.741406 96.270849) scale(0.1 -0.1)">
       <defs>
        <path id="DejaVuSans-13" d="M 2034 4250 
Q 1547 4250 1301 3770 
Q 1056 3291 1056 2328 
Q 1056 1369 1301 889 
Q 1547 409 2034 409 
Q 2525 409 2770 889 
Q 3016 1369 3016 2328 
Q 3016 3291 2770 3770 
Q 2525 4250 2034 4250 
z
M 2034 4750 
Q 2819 4750 3233 4129 
Q 3647 3509 3647 2328 
Q 3647 1150 3233 529 
Q 2819 -91 2034 -91 
Q 1250 -91 836 529 
Q 422 1150 422 2328 
Q 422 3509 836 4129 
Q 1250 4750 2034 4750 
z
" transform="scale(0.015625)"/>
       </defs>
       <use xlink:href="#DejaVuSans-13"/>
      </g>
     </g>
    </g>
    <g id="ytick_2">
     <g id="line2d_11">
      <g>
       <use xlink:href="#ma359cba898" x="44.103906" y="51.866296" style="stroke: #000000; stroke-width: 0.8"/>
      </g>
     </g>
     <g id="text_2">
      <!-- 5 -->
      <g transform="translate(30.741406 55.665125) scale(0.1 -0.1)">
       <defs>
        <path id="DejaVuSans-18" d="M 691 4666 
L 3169 4666 
L 3169 4134 
L 1269 4134 
L 1269 2991 
Q 1406 3038 1543 3061 
Q 1681 3084 1819 3084 
Q 2600 3084 3056 2656 
Q 3513 2228 3513 1497 
Q 3513 744 3044 326 
Q 2575 -91 1722 -91 
Q 1428 -91 1123 -41 
Q 819 9 494 109 
L 494 744 
Q 775 591 1075 516 
Q 1375 441 1709 441 
Q 2250 441 2565 725 
Q 2881 1009 2881 1497 
Q 2881 1984 2565 2268 
Q 2250 2553 1709 2553 
Q 1456 2553 1204 2497 
Q 953 2441 691 2322 
L 691 4666 
z
" transform="scale(0.015625)"/>
       </defs>
       <use xlink:href="#DejaVuSans-18"/>
      </g>
     </g>
    </g>
    <g id="ytick_3">
     <g id="line2d_12">
      <g>
       <use xlink:href="#ma359cba898" x="44.103906" y="11.260572" style="stroke: #000000; stroke-width: 0.8"/>
      </g>
     </g>
     <g id="text_3">
      <!-- 10 -->
      <g transform="translate(24.378906 15.059401) scale(0.1 -0.1)">
       <defs>
        <path id="DejaVuSans-14" d="M 794 531 
L 1825 531 
L 1825 4091 
L 703 3866 
L 703 4441 
L 1819 4666 
L 2450 4666 
L 2450 531 
L 3481 531 
L 3481 0 
L 794 0 
L 794 531 
z
" transform="scale(0.015625)"/>
       </defs>
       <use xlink:href="#DejaVuSans-14"/>
       <use xlink:href="#DejaVuSans-13" transform="translate(63.625 0)"/>
      </g>
     </g>
    </g>
    <g id="text_4">
     <!-- Extracellular lactose -->
     <g transform="translate(17.976563 102.838171) rotate(-90) scale(0.1 -0.1)">
      <defs>
       <path id="DejaVuSans-28" d="M 628 4666 
L 3578 4666 
L 3578 4134 
L 1259 4134 
L 1259 2753 
L 3481 2753 
L 3481 2222 
L 1259 2222 
L 1259 531 
L 3634 531 
L 3634 0 
L 628 0 
L 628 4666 
z
" transform="scale(0.015625)"/>
       <path id="DejaVuSans-5b" d="M 3513 3500 
L 2247 1797 
L 3578 0 
L 2900 0 
L 1881 1375 
L 863 0 
L 184 0 
L 1544 1831 
L 300 3500 
L 978 3500 
L 1906 2253 
L 2834 3500 
L 3513 3500 
z
" transform="scale(0.015625)"/>
       <path id="DejaVuSans-57" d="M 1172 4494 
L 1172 3500 
L 2356 3500 
L 2356 3053 
L 1172 3053 
L 1172 1153 
Q 1172 725 1289 603 
Q 1406 481 1766 481 
L 2356 481 
L 2356 0 
L 1766 0 
Q 1100 0 847 248 
Q 594 497 594 1153 
L 594 3053 
L 172 3053 
L 172 3500 
L 594 3500 
L 594 4494 
L 1172 4494 
z
" transform="scale(0.015625)"/>
       <path id="DejaVuSans-55" d="M 2631 2963 
Q 2534 3019 2420 3045 
Q 2306 3072 2169 3072 
Q 1681 3072 1420 2755 
Q 1159 2438 1159 1844 
L 1159 0 
L 581 0 
L 581 3500 
L 1159 3500 
L 1159 2956 
Q 1341 3275 1631 3429 
Q 1922 3584 2338 3584 
Q 2397 3584 2469 3576 
Q 2541 3569 2628 3553 
L 2631 2963 
z
" transform="scale(0.015625)"/>
       <path id="DejaVuSans-44" d="M 2194 1759 
Q 1497 1759 1228 1600 
Q 959 1441 959 1056 
Q 959 750 1161 570 
Q 1363 391 1709 391 
Q 2188 391 2477 730 
Q 2766 1069 2766 1631 
L 2766 1759 
L 2194 1759 
z
M 3341 1997 
L 3341 0 
L 2766 0 
L 2766 531 
Q 2569 213 2275 61 
Q 1981 -91 1556 -91 
Q 1019 -91 701 211 
Q 384 513 384 1019 
Q 384 1609 779 1909 
Q 1175 2209 1959 2209 
L 2766 2209 
L 2766 2266 
Q 2766 2663 2505 2880 
Q 2244 3097 1772 3097 
Q 1472 3097 1187 3025 
Q 903 2953 641 2809 
L 641 3341 
Q 956 3463 1253 3523 
Q 1550 3584 1831 3584 
Q 2591 3584 2966 3190 
Q 3341 2797 3341 1997 
z
" transform="scale(0.015625)"/>
       <path id="DejaVuSans-46" d="M 3122 3366 
L 3122 2828 
Q 2878 2963 2633 3030 
Q 2388 3097 2138 3097 
Q 1578 3097 1268 2742 
Q 959 2388 959 1747 
Q 959 1106 1268 751 
Q 1578 397 2138 397 
Q 2388 397 2633 464 
Q 2878 531 3122 666 
L 3122 134 
Q 2881 22 2623 -34 
Q 2366 -91 2075 -91 
Q 1284 -91 818 406 
Q 353 903 353 1747 
Q 353 2603 823 3093 
Q 1294 3584 2113 3584 
Q 2378 3584 2631 3529 
Q 2884 3475 3122 3366 
z
" transform="scale(0.015625)"/>
       <path id="DejaVuSans-48" d="M 3597 1894 
L 3597 1613 
L 953 1613 
Q 991 1019 1311 708 
Q 1631 397 2203 397 
Q 2534 397 2845 478 
Q 3156 559 3463 722 
L 3463 178 
Q 3153 47 2828 -22 
Q 2503 -91 2169 -91 
Q 1331 -91 842 396 
Q 353 884 353 1716 
Q 353 2575 817 3079 
Q 1281 3584 2069 3584 
Q 2775 3584 3186 3129 
Q 3597 2675 3597 1894 
z
M 3022 2063 
Q 3016 2534 2758 2815 
Q 2500 3097 2075 3097 
Q 1594 3097 1305 2825 
Q 1016 2553 972 2059 
L 3022 2063 
z
" transform="scale(0.015625)"/>
       <path id="DejaVuSans-4f" d="M 603 4863 
L 1178 4863 
L 1178 0 
L 603 0 
L 603 4863 
z
" transform="scale(0.015625)"/>
       <path id="DejaVuSans-58" d="M 544 1381 
L 544 3500 
L 1119 3500 
L 1119 1403 
Q 1119 906 1312 657 
Q 1506 409 1894 409 
Q 2359 409 2629 706 
Q 2900 1003 2900 1516 
L 2900 3500 
L 3475 3500 
L 3475 0 
L 2900 0 
L 2900 538 
Q 2691 219 2414 64 
Q 2138 -91 1772 -91 
Q 1169 -91 856 284 
Q 544 659 544 1381 
z
M 1991 3584 
L 1991 3584 
z
" transform="scale(0.015625)"/>
       <path id="DejaVuSans-3" transform="scale(0.015625)"/>
       <path id="DejaVuSans-52" d="M 1959 3097 
Q 1497 3097 1228 2736 
Q 959 2375 959 1747 
Q 959 1119 1226 758 
Q 1494 397 1959 397 
Q 2419 397 2687 759 
Q 2956 1122 2956 1747 
Q 2956 2369 2687 2733 
Q 2419 3097 1959 3097 
z
M 1959 3584 
Q 2709 3584 3137 3096 
Q 3566 2609 3566 1747 
Q 3566 888 3137 398 
Q 2709 -91 1959 -91 
Q 1206 -91 779 398 
Q 353 888 353 1747 
Q 353 2609 779 3096 
Q 1206 3584 1959 3584 
z
" transform="scale(0.015625)"/>
       <path id="DejaVuSans-56" d="M 2834 3397 
L 2834 2853 
Q 2591 2978 2328 3040 
Q 2066 3103 1784 3103 
Q 1356 3103 1142 2972 
Q 928 2841 928 2578 
Q 928 2378 1081 2264 
Q 1234 2150 1697 2047 
L 1894 2003 
Q 2506 1872 2764 1633 
Q 3022 1394 3022 966 
Q 3022 478 2636 193 
Q 2250 -91 1575 -91 
Q 1294 -91 989 -36 
Q 684 19 347 128 
L 347 722 
Q 666 556 975 473 
Q 1284 391 1588 391 
Q 1994 391 2212 530 
Q 2431 669 2431 922 
Q 2431 1156 2273 1281 
Q 2116 1406 1581 1522 
L 1381 1569 
Q 847 1681 609 1914 
Q 372 2147 372 2553 
Q 372 3047 722 3315 
Q 1072 3584 1716 3584 
Q 2034 3584 2315 3537 
Q 2597 3491 2834 3397 
z
" transform="scale(0.015625)"/>
      </defs>
      <use xlink:href="#DejaVuSans-28"/>
      <use xlink:href="#DejaVuSans-5b" transform="translate(63.1875 0)"/>
      <use xlink:href="#DejaVuSans-57" transform="translate(122.375 0)"/>
      <use xlink:href="#DejaVuSans-55" transform="translate(161.578125 0)"/>
      <use xlink:href="#DejaVuSans-44" transform="translate(202.6875 0)"/>
      <use xlink:href="#DejaVuSans-46" transform="translate(263.96875 0)"/>
      <use xlink:href="#DejaVuSans-48" transform="translate(318.953125 0)"/>
      <use xlink:href="#DejaVuSans-4f" transform="translate(380.484375 0)"/>
      <use xlink:href="#DejaVuSans-4f" transform="translate(408.265625 0)"/>
      <use xlink:href="#DejaVuSans-58" transform="translate(436.046875 0)"/>
      <use xlink:href="#DejaVuSans-4f" transform="translate(499.421875 0)"/>
      <use xlink:href="#DejaVuSans-44" transform="translate(527.203125 0)"/>
      <use xlink:href="#DejaVuSans-55" transform="translate(588.484375 0)"/>
      <use xlink:href="#DejaVuSans-3" transform="translate(629.59375 0)"/>
      <use xlink:href="#DejaVuSans-4f" transform="translate(661.375 0)"/>
      <use xlink:href="#DejaVuSans-44" transform="translate(689.15625 0)"/>
      <use xlink:href="#DejaVuSans-46" transform="translate(750.4375 0)"/>
      <use xlink:href="#DejaVuSans-57" transform="translate(805.421875 0)"/>
      <use xlink:href="#DejaVuSans-52" transform="translate(844.625 0)"/>
      <use xlink:href="#DejaVuSans-56" transform="translate(905.8125 0)"/>
      <use xlink:href="#DejaVuSans-48" transform="translate(957.90625 0)"/>
     </g>
    </g>
   </g>
   <g id="line2d_13">
    <path d="M 56.88098 92.472021 
L 155.82033 92.472021 
L 155.90908 11.260572 
L 156.574465 11.341784 
L 156.691693 11.66663 
L 156.736333 11.747841 
L 156.881957 13.209647 
L 156.999837 14.833876 
L 157.013611 14.915088 
L 157.156565 16.620528 
L 157.180022 16.701739 
L 157.685046 20.11262 
L 157.820279 20.193832 
L 157.93302 20.599889 
L 158.044677 20.6811 
L 158.153427 20.762312 
L 158.602265 20.843523 
L 158.698747 21.249581 
L 158.938606 21.655638 
L 159.038675 22.061695 
L 159.121416 22.142906 
L 159.24918 22.955021 
L 159.604774 24.741673 
L 159.879729 24.822884 
L 160.46589 27.746496 
L 160.575728 28.477399 
L 160.599973 28.558611 
L 160.922236 30.670109 
L 160.935356 30.75132 
L 161.06697 31.807069 
L 161.09419 31.88828 
L 161.206594 32.537972 
L 161.235539 32.619183 
L 161.547549 35.542795 
L 161.559632 35.624007 
L 161.719439 36.598544 
L 161.943778 37.897927 
L 162.035257 37.979139 
L 162.165623 38.791253 
L 162.20641 38.872465 
L 162.319788 39.034888 
L 162.669496 39.116099 
L 162.767994 39.197311 
L 162.835595 39.278522 
L 162.952067 39.684579 
L 162.978339 39.765791 
L 163.096724 40.009425 
L 163.24873 40.659117 
L 163.379956 41.227597 
L 163.634873 41.308808 
L 163.772276 41.552443 
L 163.844388 41.633654 
L 164.050652 42.283346 
L 164.132595 42.364557 
L 164.248432 42.851826 
L 164.558095 42.933037 
L 164.805428 43.826363 
L 164.879728 43.907575 
L 164.99533 44.394843 
L 165.033067 44.476055 
L 165.249282 45.775438 
L 165.378175 46.425129 
L 165.498806 46.506341 
L 165.823135 47.805724 
L 166.166242 48.942684 
L 166.367768 50.323279 
L 166.413378 50.40449 
L 166.569562 50.810548 
L 166.595801 50.891759 
L 166.708784 51.379028 
L 166.749232 51.460239 
L 166.88984 51.947508 
L 166.985739 52.028719 
L 168.994116 56.089292 
L 169.098478 56.57656 
L 169.177015 56.657772 
L 169.533661 58.688058 
L 169.551115 58.76927 
L 169.676245 59.662595 
L 169.686859 59.743807 
L 169.848372 60.312287 
L 169.953428 60.393499 
L 170.046508 60.47471 
L 170.283913 60.555921 
L 170.379044 60.961979 
L 170.592 61.04319 
L 170.735937 61.61167 
L 170.900862 61.692882 
L 171.012617 62.017727 
L 171.111613 62.098939 
L 171.222196 62.261362 
L 171.282291 62.342573 
L 171.588783 63.235899 
L 171.757984 63.885591 
L 171.842712 63.966802 
L 171.958074 64.454071 
L 171.969521 64.535282 
L 172.090147 65.103762 
L 172.496544 66.890414 
L 172.520502 66.971626 
L 172.653449 67.621317 
L 172.769425 67.702529 
L 172.873222 67.946163 
L 172.922491 68.027375 
L 173.035907 68.433432 
L 173.076192 68.514643 
L 173.222002 68.920701 
L 173.242899 69.001912 
L 173.863183 70.707352 
L 173.901855 70.788564 
L 174.025344 71.438255 
L 174.074723 71.519467 
L 174.210797 72.25037 
L 174.268209 72.331581 
L 174.38537 73.062484 
L 174.599478 73.630965 
L 174.705364 73.712176 
L 174.883735 73.95581 
L 174.980013 74.118233 
L 175.124344 74.199445 
L 175.264542 74.930348 
L 175.298557 75.011559 
L 175.444912 75.417616 
L 175.570964 75.742462 
L 175.713767 75.823674 
L 175.835006 75.986097 
L 176.336297 76.067308 
L 176.430313 76.148519 
L 176.55804 76.229731 
L 176.636661 76.310942 
L 176.737246 76.392154 
L 176.85803 76.473365 
L 177.098781 76.554577 
L 177.236404 76.717 
L 177.610211 76.798211 
L 177.783495 76.960634 
L 177.982967 77.041845 
L 178.510656 77.447903 
L 178.967259 77.529114 
L 179.429177 77.85396 
L 180.195485 77.935171 
L 180.341373 78.178806 
L 180.510694 78.260017 
L 180.68052 78.503651 
L 180.733662 78.584863 
L 180.864679 79.234554 
L 181.043069 79.315766 
L 181.162875 79.396977 
L 182.147495 79.478189 
L 182.27997 79.5594 
L 183.101614 79.640612 
L 183.209813 79.721823 
L 183.446739 79.884246 
L 183.825709 79.965458 
L 184.381151 80.209092 
L 184.551164 80.371515 
L 184.833608 80.777572 
L 184.972686 80.858783 
L 185.099123 81.346052 
L 185.22844 81.427264 
L 185.37342 81.670898 
L 185.526061 81.752109 
L 185.735041 82.239378 
L 185.910147 82.320589 
L 186.014007 82.483012 
L 186.79178 82.564224 
L 187.303984 82.970281 
L 187.405427 83.213915 
L 187.471574 83.295127 
L 187.62843 83.538761 
L 188.025279 83.619973 
L 188.079924 83.701184 
L 188.224959 83.782396 
L 188.365174 83.944818 
L 188.479766 84.02603 
L 188.593235 84.188453 
L 189.097248 84.269664 
L 189.204071 84.432087 
L 189.892643 84.513299 
L 190.171233 84.838144 
L 190.527961 84.919356 
L 190.79684 85.081779 
L 190.82933 85.16299 
L 190.88816 85.244202 
L 191.383551 85.325413 
L 191.485214 85.406625 
L 191.919677 85.487836 
L 192.344967 85.650259 
L 193.011539 85.73147 
L 193.154376 86.056316 
L 193.238185 86.137528 
L 193.342057 86.218739 
L 193.411239 86.29995 
L 193.541685 86.543585 
L 193.888262 86.624796 
L 194.285702 86.949642 
L 194.41446 87.030853 
L 194.783831 87.274488 
L 194.977228 87.436911 
L 195.315046 87.518122 
L 195.551619 87.599334 
L 196.029618 87.680545 
L 196.394652 87.924179 
L 196.9218 88.005391 
L 197.065596 88.167814 
L 197.131295 88.249025 
L 197.358553 88.330237 
L 197.373302 88.411448 
L 197.643713 88.49266 
L 197.896896 88.573871 
L 198.007408 88.736294 
L 198.742834 88.817505 
L 198.894651 88.898717 
L 199.216335 88.979928 
L 199.515731 89.223563 
L 200.079561 89.304774 
L 200.193354 89.385985 
L 201.020769 89.467197 
L 201.092587 89.548408 
L 201.789153 89.62962 
L 202.004907 89.710831 
L 203.507885 89.792043 
L 203.942872 89.873254 
L 205.118274 89.954466 
L 205.225872 90.035677 
L 205.833487 90.116889 
L 205.954862 90.1981 
L 241.32802 90.279311 
L 241.357803 90.360523 
L 274.895234 90.441734 
L 275.039987 90.522946 
L 275.44241 90.604157 
L 275.573532 90.685369 
L 312.422447 90.76658 
L 312.422447 90.76658 
" clip-path="url(#p46a643f5f1)" style="fill: none; stroke: #000000; stroke-width: 1.5; stroke-linecap: square"/>
   </g>
   <g id="patch_3">
    <path d="M 44.103906 96.532593 
L 44.103906 7.2 
" style="fill: none; stroke: #000000; stroke-width: 0.8; stroke-linejoin: miter; stroke-linecap: square"/>
   </g>
   <g id="patch_4">
    <path d="M 325.19952 96.532593 
L 325.19952 7.2 
" style="fill: none; stroke: #000000; stroke-width: 0.8; stroke-linejoin: miter; stroke-linecap: square"/>
   </g>
   <g id="patch_5">
    <path d="M 44.103906 96.532593 
L 325.19952 96.532593 
" style="fill: none; stroke: #000000; stroke-width: 0.8; stroke-linejoin: miter; stroke-linecap: square"/>
   </g>
   <g id="patch_6">
    <path d="M 44.103906 7.2 
L 325.19952 7.2 
" style="fill: none; stroke: #000000; stroke-width: 0.8; stroke-linejoin: miter; stroke-linecap: square"/>
   </g>
  </g>
  <g id="axes_2">
   <g id="patch_7">
    <path d="M 44.103906 195.365666 
L 325.19952 195.365666 
L 325.19952 106.033073 
L 44.103906 106.033073 
z
" style="fill: #ffffff"/>
   </g>
   <g id="matplotlib.axis_3">
    <g id="xtick_10">
     <g id="line2d_14">
      <g>
       <use xlink:href="#mdf532ad194" x="56.88098" y="195.365666" style="stroke: #000000; stroke-width: 0.8"/>
      </g>
     </g>
    </g>
    <g id="xtick_11">
     <g id="line2d_15">
      <g>
       <use xlink:href="#mdf532ad194" x="88.687183" y="195.365666" style="stroke: #000000; stroke-width: 0.8"/>
      </g>
     </g>
    </g>
    <g id="xtick_12">
     <g id="line2d_16">
      <g>
       <use xlink:href="#mdf532ad194" x="120.493386" y="195.365666" style="stroke: #000000; stroke-width: 0.8"/>
      </g>
     </g>
    </g>
    <g id="xtick_13">
     <g id="line2d_17">
      <g>
       <use xlink:href="#mdf532ad194" x="152.299589" y="195.365666" style="stroke: #000000; stroke-width: 0.8"/>
      </g>
     </g>
    </g>
    <g id="xtick_14">
     <g id="line2d_18">
      <g>
       <use xlink:href="#mdf532ad194" x="184.105793" y="195.365666" style="stroke: #000000; stroke-width: 0.8"/>
      </g>
     </g>
    </g>
    <g id="xtick_15">
     <g id="line2d_19">
      <g>
       <use xlink:href="#mdf532ad194" x="215.911996" y="195.365666" style="stroke: #000000; stroke-width: 0.8"/>
      </g>
     </g>
    </g>
    <g id="xtick_16">
     <g id="line2d_20">
      <g>
       <use xlink:href="#mdf532ad194" x="247.718199" y="195.365666" style="stroke: #000000; stroke-width: 0.8"/>
      </g>
     </g>
    </g>
    <g id="xtick_17">
     <g id="line2d_21">
      <g>
       <use xlink:href="#mdf532ad194" x="279.524402" y="195.365666" style="stroke: #000000; stroke-width: 0.8"/>
      </g>
     </g>
    </g>
    <g id="xtick_18">
     <g id="line2d_22">
      <g>
       <use xlink:href="#mdf532ad194" x="311.330606" y="195.365666" style="stroke: #000000; stroke-width: 0.8"/>
      </g>
     </g>
    </g>
   </g>
   <g id="matplotlib.axis_4">
    <g id="ytick_4">
     <g id="line2d_23">
      <g>
       <use xlink:href="#ma359cba898" x="44.103906" y="191.305093" style="stroke: #000000; stroke-width: 0.8"/>
      </g>
     </g>
     <g id="text_5">
      <!-- 0 -->
      <g transform="translate(30.741406 195.103922) scale(0.1 -0.1)">
       <use xlink:href="#DejaVuSans-13"/>
      </g>
     </g>
    </g>
    <g id="ytick_5">
     <g id="line2d_24">
      <g>
       <use xlink:href="#ma359cba898" x="44.103906" y="150.699369" style="stroke: #000000; stroke-width: 0.8"/>
      </g>
     </g>
     <g id="text_6">
      <!-- 5 -->
      <g transform="translate(30.741406 154.498197) scale(0.1 -0.1)">
       <use xlink:href="#DejaVuSans-18"/>
      </g>
     </g>
    </g>
    <g id="ytick_6">
     <g id="line2d_25">
      <g>
       <use xlink:href="#ma359cba898" x="44.103906" y="110.093645" style="stroke: #000000; stroke-width: 0.8"/>
      </g>
     </g>
     <g id="text_7">
      <!-- 10 -->
      <g transform="translate(24.378906 113.892473) scale(0.1 -0.1)">
       <use xlink:href="#DejaVuSans-14"/>
       <use xlink:href="#DejaVuSans-13" transform="translate(63.625 0)"/>
      </g>
     </g>
    </g>
    <g id="text_8">
     <!-- LacY -->
     <g transform="translate(17.976563 162.352494) rotate(-90) scale(0.1 -0.1)">
      <defs>
       <path id="DejaVuSans-2f" d="M 628 4666 
L 1259 4666 
L 1259 531 
L 3531 531 
L 3531 0 
L 628 0 
L 628 4666 
z
" transform="scale(0.015625)"/>
       <path id="DejaVuSans-3c" d="M -13 4666 
L 666 4666 
L 1959 2747 
L 3244 4666 
L 3922 4666 
L 2272 2222 
L 2272 0 
L 1638 0 
L 1638 2222 
L -13 4666 
z
" transform="scale(0.015625)"/>
      </defs>
      <use xlink:href="#DejaVuSans-2f"/>
      <use xlink:href="#DejaVuSans-44" transform="translate(55.71875 0)"/>
      <use xlink:href="#DejaVuSans-46" transform="translate(117 0)"/>
      <use xlink:href="#DejaVuSans-3c" transform="translate(171.984375 0)"/>
     </g>
    </g>
   </g>
   <g id="line2d_26">
    <path d="M 56.88098 110.093645 
L 56.908016 110.093645 
L 56.962329 118.21479 
L 57.070133 134.45708 
L 57.130274 142.578225 
L 57.281873 142.578225 
L 57.29951 134.45708 
L 57.519361 142.578225 
L 57.660752 142.578225 
L 57.830833 158.820514 
L 58.130728 175.062804 
L 58.196128 191.305093 
L 59.721004 191.305093 
L 59.887068 183.183949 
L 59.929667 191.305093 
L 64.935453 191.305093 
L 65.25733 183.183949 
L 65.366916 191.305093 
L 82.804629 191.305093 
L 82.998387 183.183949 
L 84.78571 191.305093 
L 84.800486 183.183949 
L 84.943214 175.062804 
L 84.947853 166.941659 
L 85.268938 175.062804 
L 85.495143 175.062804 
L 85.614377 191.305093 
L 85.674995 183.183949 
L 85.864586 183.183949 
L 86.002609 191.305093 
L 89.881838 191.305093 
L 90.270336 175.062804 
L 90.271632 166.941659 
L 90.768604 166.941659 
L 90.807143 183.183949 
L 91.576708 183.183949 
L 91.745069 175.062804 
L 92.08821 191.305093 
L 109.036603 191.305093 
L 109.141948 183.183949 
L 109.261255 183.183949 
L 109.399885 191.305093 
L 109.634103 191.305093 
L 109.67545 183.183949 
L 110.090025 183.183949 
L 110.438787 175.062804 
L 110.496941 183.183949 
L 110.671625 183.183949 
L 110.701106 191.305093 
L 119.431672 191.305093 
L 119.609507 183.183949 
L 121.702845 183.183949 
L 123.544237 191.305093 
L 131.28671 191.305093 
L 131.472365 183.183949 
L 131.758981 183.183949 
L 131.866404 191.305093 
L 136.187971 191.305093 
L 136.271427 183.183949 
L 136.293221 191.305093 
L 146.253103 191.305093 
L 146.513092 175.062804 
L 146.533856 183.183949 
L 146.562768 175.062804 
L 146.675509 166.941659 
L 146.680832 175.062804 
L 147.263658 175.062804 
L 147.878816 183.183949 
L 148.123345 183.183949 
L 148.437576 175.062804 
L 148.55009 175.062804 
L 149.618495 191.305093 
L 150.077162 191.305093 
L 150.128873 175.062804 
L 150.229418 175.062804 
L 150.381751 183.183949 
L 150.515033 183.183949 
L 151.056165 191.305093 
L 156.157885 191.305093 
L 156.584769 183.183949 
L 156.824277 150.699369 
L 157.104996 150.699369 
L 157.224711 166.941659 
L 157.274417 166.941659 
L 157.374988 158.820514 
L 157.45814 158.820514 
L 157.566452 175.062804 
L 157.603437 175.062804 
L 157.699131 183.183949 
L 158.060096 183.183949 
L 158.153427 191.305093 
L 158.551816 191.305093 
L 158.670359 183.183949 
L 158.818484 183.183949 
L 158.922254 175.062804 
L 159.088796 175.062804 
L 159.195742 166.941659 
L 159.211957 166.941659 
L 159.317329 175.062804 
L 159.555584 175.062804 
L 159.681432 191.305093 
L 159.847019 191.305093 
L 159.991189 175.062804 
L 160.345805 175.062804 
L 160.455636 166.941659 
L 160.795391 166.941659 
L 160.911339 158.820514 
L 160.931231 158.820514 
L 161.035948 150.699369 
L 161.055766 150.699369 
L 161.162182 142.578225 
L 161.166408 150.699369 
L 161.206594 150.699369 
L 161.230715 142.578225 
L 161.305265 150.699369 
L 161.414267 150.699369 
L 161.441958 134.45708 
L 161.519795 150.699369 
L 161.600924 150.699369 
L 161.70938 175.062804 
L 161.741402 175.062804 
L 161.859133 166.941659 
L 161.925761 166.941659 
L 162.037823 175.062804 
L 162.109727 175.062804 
L 162.144376 166.941659 
L 162.20641 183.183949 
L 162.215343 183.183949 
L 162.278346 183.183949 
L 162.319788 191.305093 
L 162.539331 191.305093 
L 162.646664 183.183949 
L 162.870212 183.183949 
L 162.983626 166.941659 
L 162.999732 166.941659 
L 163.096724 175.062804 
L 163.271729 175.062804 
L 163.398644 183.183949 
L 163.480796 183.183949 
L 163.483897 175.062804 
L 163.579927 183.183949 
L 163.719752 175.062804 
L 163.976268 175.062804 
L 163.998796 166.941659 
L 164.003546 183.183949 
L 164.050652 183.183949 
L 164.571722 183.183949 
L 164.678626 175.062804 
L 164.884286 175.062804 
L 164.99533 166.941659 
L 165.147311 166.941659 
L 165.239885 158.820514 
L 165.253126 166.941659 
L 165.337398 166.941659 
L 165.415538 175.062804 
L 165.448403 166.941659 
L 165.487217 166.941659 
L 165.539691 175.062804 
L 165.59501 166.941659 
L 165.623678 166.941659 
L 165.733883 175.062804 
L 166.057512 175.062804 
L 166.176514 166.941659 
L 166.276368 166.941659 
L 166.324639 175.062804 
L 166.375787 166.941659 
L 166.569562 166.941659 
L 166.671011 158.820514 
L 166.728522 158.820514 
L 166.822372 166.941659 
L 166.861469 166.941659 
L 166.964086 183.183949 
L 167.172341 183.183949 
L 167.267068 175.062804 
L 167.463473 175.062804 
L 167.575177 191.305093 
L 167.79244 175.062804 
L 169.084525 175.062804 
L 169.144554 183.183949 
L 169.186903 175.062804 
L 169.279417 175.062804 
L 169.399052 158.820514 
L 169.550449 158.820514 
L 169.659934 150.699369 
L 169.663462 150.699369 
L 169.771944 158.820514 
L 169.781058 158.820514 
L 169.902347 175.062804 
L 169.99454 175.062804 
L 170.046508 183.183949 
L 170.203797 183.183949 
L 170.308768 166.941659 
L 170.365241 166.941659 
L 170.489266 183.183949 
L 170.626443 183.183949 
L 170.747019 166.941659 
L 170.788795 166.941659 
L 170.900862 175.062804 
L 170.942286 175.062804 
L 171.012617 183.183949 
L 171.151823 183.183949 
L 171.282291 166.941659 
L 171.321068 166.941659 
L 171.356537 175.062804 
L 171.421813 166.941659 
L 171.514427 166.941659 
L 171.624334 158.820514 
L 172.019124 158.820514 
L 172.126218 150.699369 
L 172.16263 150.699369 
L 172.282247 158.820514 
L 172.353382 158.820514 
L 172.467128 150.699369 
L 172.613983 150.699369 
L 172.653449 166.941659 
L 172.724055 158.820514 
L 172.812272 158.820514 
L 172.922491 166.941659 
L 172.958219 166.941659 
L 173.069956 158.820514 
L 173.122968 158.820514 
L 173.230204 166.941659 
L 173.237807 166.941659 
L 173.26757 158.820514 
L 173.347512 166.941659 
L 173.729416 166.941659 
L 173.808374 175.062804 
L 173.817018 166.941659 
L 173.904587 166.941659 
L 174.011971 158.820514 
L 174.088336 158.820514 
L 174.210797 150.699369 
L 174.425043 150.699369 
L 174.428323 142.578225 
L 174.491897 166.941659 
L 174.526164 166.941659 
L 174.573458 166.941659 
L 174.631712 158.820514 
L 174.66517 166.941659 
L 174.870641 166.941659 
L 174.980013 175.062804 
L 175.112954 175.062804 
L 175.230402 158.820514 
L 175.306844 158.820514 
L 175.323612 150.699369 
L 175.406484 158.820514 
L 175.459996 158.820514 
L 175.545624 175.062804 
L 175.570964 166.941659 
L 175.645685 158.820514 
L 175.674677 166.941659 
L 175.711232 166.941659 
L 175.81302 175.062804 
L 175.995604 175.062804 
L 176.093787 183.183949 
L 176.395318 183.183949 
L 176.513263 166.941659 
L 176.635592 166.941659 
L 176.746488 175.062804 
L 176.80231 175.062804 
L 176.896534 183.183949 
L 176.972218 183.183949 
L 177.037482 158.820514 
L 177.05128 166.941659 
L 177.136356 166.941659 
L 177.341931 183.183949 
L 177.373343 183.183949 
L 177.420001 191.305093 
L 177.501679 191.305093 
L 177.640889 183.183949 
L 177.814202 183.183949 
L 177.846181 191.305093 
L 177.888109 183.183949 
L 178.653918 183.183949 
L 178.967259 175.062804 
L 179.065742 175.062804 
L 179.166557 183.183949 
L 179.275904 183.183949 
L 179.396017 191.305093 
L 179.592987 191.305093 
L 179.768386 183.183949 
L 179.877835 183.183949 
L 180.042544 175.062804 
L 180.077042 183.183949 
L 180.146708 175.062804 
L 180.208859 175.062804 
L 180.31666 166.941659 
L 180.466565 166.941659 
L 180.568438 175.062804 
L 180.68052 166.941659 
L 180.836839 166.941659 
L 180.911517 158.820514 
L 180.986018 158.820514 
L 181.152984 183.183949 
L 181.162875 175.062804 
L 181.207195 191.305093 
L 181.252851 191.305093 
L 182.021489 191.305093 
L 182.120918 183.183949 
L 182.208795 183.183949 
L 182.27997 191.305093 
L 182.534798 191.305093 
L 183.104041 175.062804 
L 183.27537 175.062804 
L 183.433597 183.183949 
L 184.119609 183.183949 
L 184.291244 158.820514 
L 184.673631 158.820514 
L 184.80278 166.941659 
L 184.923618 158.820514 
L 185.189413 158.820514 
L 185.318791 150.699369 
L 185.425099 150.699369 
L 185.553444 158.820514 
L 185.557875 150.699369 
L 185.654195 158.820514 
L 185.707815 158.820514 
L 185.777943 166.941659 
L 185.784229 158.820514 
L 185.875687 158.820514 
L 185.948211 166.941659 
L 186.080683 166.941659 
L 186.087202 158.820514 
L 186.17675 175.062804 
L 186.180947 175.062804 
L 186.486018 175.062804 
L 186.516939 166.941659 
L 186.581462 175.062804 
L 186.647393 175.062804 
L 186.79178 166.941659 
L 186.936693 166.941659 
L 186.997147 158.820514 
L 187.024267 166.941659 
L 187.120448 166.941659 
L 187.165622 150.699369 
L 187.302882 150.699369 
L 187.405427 158.820514 
L 187.727125 158.820514 
L 187.835014 175.062804 
L 187.860104 175.062804 
L 187.99232 166.941659 
L 188.024782 175.062804 
L 188.079924 166.941659 
L 188.185572 175.062804 
L 188.32323 166.941659 
L 188.360211 166.941659 
L 188.405123 158.820514 
L 188.451871 175.062804 
L 188.84297 175.062804 
L 189.007354 166.941659 
L 189.034978 166.941659 
L 189.05761 158.820514 
L 189.138262 166.941659 
L 189.249198 183.183949 
L 189.659528 183.183949 
L 189.777755 175.062804 
L 189.838465 183.183949 
L 189.855209 175.062804 
L 190.071833 175.062804 
L 190.171233 150.699369 
L 190.348304 166.941659 
L 190.461724 166.941659 
L 190.59668 175.062804 
L 191.45056 175.062804 
L 191.480015 166.941659 
L 191.556353 175.062804 
L 191.724404 175.062804 
L 191.776219 183.183949 
L 191.919677 175.062804 
L 192.056067 175.062804 
L 192.173213 183.183949 
L 192.196009 183.183949 
L 192.262631 175.062804 
L 192.278347 183.183949 
L 192.513073 183.183949 
L 192.622468 175.062804 
L 192.707705 175.062804 
L 192.77692 166.941659 
L 193.039431 175.062804 
L 193.154376 150.699369 
L 193.258576 150.699369 
L 193.328609 166.941659 
L 193.342057 158.820514 
L 193.419914 158.820514 
L 193.473653 150.699369 
L 193.59886 158.820514 
L 193.66404 158.820514 
L 193.698306 150.699369 
L 193.982682 166.941659 
L 194.085084 166.941659 
L 194.204642 175.062804 
L 194.357328 150.699369 
L 194.41446 158.820514 
L 194.641417 158.820514 
L 194.664396 166.941659 
L 194.737043 158.820514 
L 194.8912 158.820514 
L 194.977228 166.941659 
L 195.069997 175.062804 
L 195.131846 166.941659 
L 195.180506 175.062804 
L 195.272441 175.062804 
L 195.315046 166.941659 
L 195.423419 166.941659 
L 195.551619 183.183949 
L 195.730337 183.183949 
L 195.930511 191.305093 
L 195.997481 191.305093 
L 196.108369 183.183949 
L 196.311716 183.183949 
L 196.382341 191.305093 
L 196.394652 183.183949 
L 196.559967 183.183949 
L 196.573871 166.941659 
L 196.851553 166.941659 
L 196.9218 158.820514 
L 197.072091 158.820514 
L 197.131295 142.578225 
L 197.293065 142.578225 
L 197.373302 150.699369 
L 197.591955 150.699369 
L 197.702526 158.820514 
L 197.804355 166.941659 
L 197.831071 166.941659 
L 197.952174 175.062804 
L 198.078307 183.183949 
L 198.161262 183.183949 
L 198.185027 175.062804 
L 198.546367 175.062804 
L 198.735484 166.941659 
L 198.843002 175.062804 
L 198.865387 175.062804 
L 198.95151 166.941659 
L 199.216335 158.820514 
L 199.339172 158.820514 
L 199.414517 142.578225 
L 199.498015 142.578225 
L 199.540003 134.45708 
L 199.595355 142.578225 
L 199.647616 158.820514 
L 199.712472 150.699369 
L 199.748172 142.578225 
L 199.766571 150.699369 
L 199.832993 150.699369 
L 199.915834 158.820514 
L 200.072057 158.820514 
L 200.07681 150.699369 
L 200.163997 166.941659 
L 200.322188 166.941659 
L 200.407766 175.062804 
L 200.700967 175.062804 
L 200.822935 183.183949 
L 200.91595 183.183949 
L 201.024997 166.941659 
L 201.046192 175.062804 
L 201.092587 175.062804 
L 201.168752 166.941659 
L 201.200947 175.062804 
L 201.23972 183.183949 
L 201.251806 166.941659 
L 201.341002 166.941659 
L 201.532532 175.062804 
L 201.53917 183.183949 
L 201.730833 183.183949 
L 201.87028 175.062804 
L 202.004907 183.183949 
L 202.127515 183.183949 
L 202.207361 191.305093 
L 202.717774 191.305093 
L 202.77543 183.183949 
L 202.959486 175.062804 
L 203.154296 158.820514 
L 203.248898 166.941659 
L 203.471935 166.941659 
L 203.507885 175.062804 
L 204.129438 175.062804 
L 204.425283 183.183949 
L 204.648064 175.062804 
L 204.720355 166.941659 
L 205.014663 158.820514 
L 205.134915 158.820514 
L 205.218284 150.699369 
L 205.225872 158.820514 
L 205.312401 158.820514 
L 205.510935 175.062804 
L 205.630918 166.941659 
L 205.746317 183.183949 
L 205.852573 166.941659 
L 205.887026 175.062804 
L 206.066037 158.820514 
L 206.157604 166.941659 
L 206.27427 158.820514 
L 206.39959 166.941659 
L 206.63006 166.941659 
L 206.854225 175.062804 
L 206.963787 183.183949 
L 207.522625 175.062804 
L 207.729221 175.062804 
L 207.887186 191.305093 
L 210.297275 191.305093 
L 210.605842 183.183949 
L 211.125313 183.183949 
L 211.387816 191.305093 
L 214.239355 191.305093 
L 214.427168 183.183949 
L 214.548697 191.305093 
L 225.001525 191.305093 
L 225.151073 183.183949 
L 225.3755 191.305093 
L 240.678364 191.305093 
L 241.00489 183.183949 
L 241.138887 183.183949 
L 241.177075 191.305093 
L 241.357803 183.183949 
L 241.889188 183.183949 
L 242.056151 175.062804 
L 242.135948 183.183949 
L 242.437891 183.183949 
L 242.60094 191.305093 
L 244.712796 191.305093 
L 245.023022 183.183949 
L 245.589448 183.183949 
L 245.919152 191.305093 
L 257.638363 191.305093 
L 257.818039 183.183949 
L 257.901291 166.941659 
L 258.068572 166.941659 
L 258.188816 175.062804 
L 259.060045 191.305093 
L 260.309766 191.305093 
L 260.614718 183.183949 
L 260.760778 183.183949 
L 260.845641 191.305093 
L 274.376284 191.305093 
L 274.612399 166.941659 
L 274.831782 191.305093 
L 274.966425 175.062804 
L 274.99948 183.183949 
L 275.086413 183.183949 
L 275.155743 175.062804 
L 275.351178 183.183949 
L 275.573532 166.941659 
L 275.672434 183.183949 
L 275.7754 175.062804 
L 276.030659 175.062804 
L 276.048285 166.941659 
L 276.136424 175.062804 
L 276.646994 175.062804 
L 276.783883 183.183949 
L 276.999727 183.183949 
L 277.154411 191.305093 
L 282.717464 191.305093 
L 282.808481 183.183949 
L 282.962643 183.183949 
L 283.048902 191.305093 
L 292.077931 191.305093 
L 292.696035 183.183949 
L 293.008203 166.941659 
L 293.049696 175.062804 
L 293.103769 166.941659 
L 293.125213 166.941659 
L 293.315691 175.062804 
L 293.38322 183.183949 
L 293.768241 191.305093 
L 304.264854 191.305093 
L 304.549558 183.183949 
L 304.68099 191.305093 
L 312.422447 191.305093 
L 312.422447 191.305093 
" clip-path="url(#p08191c230b)" style="fill: none; stroke: #000000; stroke-width: 1.5; stroke-linecap: square"/>
   </g>
   <g id="patch_8">
    <path d="M 44.103906 195.365666 
L 44.103906 106.033073 
" style="fill: none; stroke: #000000; stroke-width: 0.8; stroke-linejoin: miter; stroke-linecap: square"/>
   </g>
   <g id="patch_9">
    <path d="M 325.19952 195.365666 
L 325.19952 106.033073 
" style="fill: none; stroke: #000000; stroke-width: 0.8; stroke-linejoin: miter; stroke-linecap: square"/>
   </g>
   <g id="patch_10">
    <path d="M 44.103906 195.365666 
L 325.19952 195.365666 
" style="fill: none; stroke: #000000; stroke-width: 0.8; stroke-linejoin: miter; stroke-linecap: square"/>
   </g>
   <g id="patch_11">
    <path d="M 44.103906 106.033073 
L 325.19952 106.033073 
" style="fill: none; stroke: #000000; stroke-width: 0.8; stroke-linejoin: miter; stroke-linecap: square"/>
   </g>
  </g>
  <g id="axes_3">
   <g id="patch_12">
    <path d="M 44.103906 294.198739 
L 325.19952 294.198739 
L 325.19952 204.866146 
L 44.103906 204.866146 
z
" style="fill: #ffffff"/>
   </g>
   <g id="matplotlib.axis_5">
    <g id="xtick_19">
     <g id="line2d_27">
      <g>
       <use xlink:href="#mdf532ad194" x="56.88098" y="294.198739" style="stroke: #000000; stroke-width: 0.8"/>
      </g>
     </g>
     <g id="text_9">
      <!-- 0 -->
      <g transform="translate(53.69973 308.796395) scale(0.1 -0.1)">
       <use xlink:href="#DejaVuSans-13"/>
      </g>
     </g>
    </g>
    <g id="xtick_20">
     <g id="line2d_28">
      <g>
       <use xlink:href="#mdf532ad194" x="88.687183" y="294.198739" style="stroke: #000000; stroke-width: 0.8"/>
      </g>
     </g>
     <g id="text_10">
      <!-- 100 -->
      <g transform="translate(79.143433 308.796395) scale(0.1 -0.1)">
       <use xlink:href="#DejaVuSans-14"/>
       <use xlink:href="#DejaVuSans-13" transform="translate(63.625 0)"/>
       <use xlink:href="#DejaVuSans-13" transform="translate(127.25 0)"/>
      </g>
     </g>
    </g>
    <g id="xtick_21">
     <g id="line2d_29">
      <g>
       <use xlink:href="#mdf532ad194" x="120.493386" y="294.198739" style="stroke: #000000; stroke-width: 0.8"/>
      </g>
     </g>
     <g id="text_11">
      <!-- 200 -->
      <g transform="translate(110.949636 308.796395) scale(0.1 -0.1)">
       <defs>
        <path id="DejaVuSans-15" d="M 1228 531 
L 3431 531 
L 3431 0 
L 469 0 
L 469 531 
Q 828 903 1448 1529 
Q 2069 2156 2228 2338 
Q 2531 2678 2651 2914 
Q 2772 3150 2772 3378 
Q 2772 3750 2511 3984 
Q 2250 4219 1831 4219 
Q 1534 4219 1204 4116 
Q 875 4013 500 3803 
L 500 4441 
Q 881 4594 1212 4672 
Q 1544 4750 1819 4750 
Q 2544 4750 2975 4387 
Q 3406 4025 3406 3419 
Q 3406 3131 3298 2873 
Q 3191 2616 2906 2266 
Q 2828 2175 2409 1742 
Q 1991 1309 1228 531 
z
" transform="scale(0.015625)"/>
       </defs>
       <use xlink:href="#DejaVuSans-15"/>
       <use xlink:href="#DejaVuSans-13" transform="translate(63.625 0)"/>
       <use xlink:href="#DejaVuSans-13" transform="translate(127.25 0)"/>
      </g>
     </g>
    </g>
    <g id="xtick_22">
     <g id="line2d_30">
      <g>
       <use xlink:href="#mdf532ad194" x="152.299589" y="294.198739" style="stroke: #000000; stroke-width: 0.8"/>
      </g>
     </g>
     <g id="text_12">
      <!-- 300 -->
      <g transform="translate(142.755839 308.796395) scale(0.1 -0.1)">
       <defs>
        <path id="DejaVuSans-16" d="M 2597 2516 
Q 3050 2419 3304 2112 
Q 3559 1806 3559 1356 
Q 3559 666 3084 287 
Q 2609 -91 1734 -91 
Q 1441 -91 1130 -33 
Q 819 25 488 141 
L 488 750 
Q 750 597 1062 519 
Q 1375 441 1716 441 
Q 2309 441 2620 675 
Q 2931 909 2931 1356 
Q 2931 1769 2642 2001 
Q 2353 2234 1838 2234 
L 1294 2234 
L 1294 2753 
L 1863 2753 
Q 2328 2753 2575 2939 
Q 2822 3125 2822 3475 
Q 2822 3834 2567 4026 
Q 2313 4219 1838 4219 
Q 1578 4219 1281 4162 
Q 984 4106 628 3988 
L 628 4550 
Q 988 4650 1302 4700 
Q 1616 4750 1894 4750 
Q 2613 4750 3031 4423 
Q 3450 4097 3450 3541 
Q 3450 3153 3228 2886 
Q 3006 2619 2597 2516 
z
" transform="scale(0.015625)"/>
       </defs>
       <use xlink:href="#DejaVuSans-16"/>
       <use xlink:href="#DejaVuSans-13" transform="translate(63.625 0)"/>
       <use xlink:href="#DejaVuSans-13" transform="translate(127.25 0)"/>
      </g>
     </g>
    </g>
    <g id="xtick_23">
     <g id="line2d_31">
      <g>
       <use xlink:href="#mdf532ad194" x="184.105793" y="294.198739" style="stroke: #000000; stroke-width: 0.8"/>
      </g>
     </g>
     <g id="text_13">
      <!-- 400 -->
      <g transform="translate(174.562043 308.796395) scale(0.1 -0.1)">
       <defs>
        <path id="DejaVuSans-17" d="M 2419 4116 
L 825 1625 
L 2419 1625 
L 2419 4116 
z
M 2253 4666 
L 3047 4666 
L 3047 1625 
L 3713 1625 
L 3713 1100 
L 3047 1100 
L 3047 0 
L 2419 0 
L 2419 1100 
L 313 1100 
L 313 1709 
L 2253 4666 
z
" transform="scale(0.015625)"/>
       </defs>
       <use xlink:href="#DejaVuSans-17"/>
       <use xlink:href="#DejaVuSans-13" transform="translate(63.625 0)"/>
       <use xlink:href="#DejaVuSans-13" transform="translate(127.25 0)"/>
      </g>
     </g>
    </g>
    <g id="xtick_24">
     <g id="line2d_32">
      <g>
       <use xlink:href="#mdf532ad194" x="215.911996" y="294.198739" style="stroke: #000000; stroke-width: 0.8"/>
      </g>
     </g>
     <g id="text_14">
      <!-- 500 -->
      <g transform="translate(206.368246 308.796395) scale(0.1 -0.1)">
       <use xlink:href="#DejaVuSans-18"/>
       <use xlink:href="#DejaVuSans-13" transform="translate(63.625 0)"/>
       <use xlink:href="#DejaVuSans-13" transform="translate(127.25 0)"/>
      </g>
     </g>
    </g>
    <g id="xtick_25">
     <g id="line2d_33">
      <g>
       <use xlink:href="#mdf532ad194" x="247.718199" y="294.198739" style="stroke: #000000; stroke-width: 0.8"/>
      </g>
     </g>
     <g id="text_15">
      <!-- 600 -->
      <g transform="translate(238.174449 308.796395) scale(0.1 -0.1)">
       <defs>
        <path id="DejaVuSans-19" d="M 2113 2584 
Q 1688 2584 1439 2293 
Q 1191 2003 1191 1497 
Q 1191 994 1439 701 
Q 1688 409 2113 409 
Q 2538 409 2786 701 
Q 3034 994 3034 1497 
Q 3034 2003 2786 2293 
Q 2538 2584 2113 2584 
z
M 3366 4563 
L 3366 3988 
Q 3128 4100 2886 4159 
Q 2644 4219 2406 4219 
Q 1781 4219 1451 3797 
Q 1122 3375 1075 2522 
Q 1259 2794 1537 2939 
Q 1816 3084 2150 3084 
Q 2853 3084 3261 2657 
Q 3669 2231 3669 1497 
Q 3669 778 3244 343 
Q 2819 -91 2113 -91 
Q 1303 -91 875 529 
Q 447 1150 447 2328 
Q 447 3434 972 4092 
Q 1497 4750 2381 4750 
Q 2619 4750 2861 4703 
Q 3103 4656 3366 4563 
z
" transform="scale(0.015625)"/>
       </defs>
       <use xlink:href="#DejaVuSans-19"/>
       <use xlink:href="#DejaVuSans-13" transform="translate(63.625 0)"/>
       <use xlink:href="#DejaVuSans-13" transform="translate(127.25 0)"/>
      </g>
     </g>
    </g>
    <g id="xtick_26">
     <g id="line2d_34">
      <g>
       <use xlink:href="#mdf532ad194" x="279.524402" y="294.198739" style="stroke: #000000; stroke-width: 0.8"/>
      </g>
     </g>
     <g id="text_16">
      <!-- 700 -->
      <g transform="translate(269.980652 308.796395) scale(0.1 -0.1)">
       <defs>
        <path id="DejaVuSans-1a" d="M 525 4666 
L 3525 4666 
L 3525 4397 
L 1831 0 
L 1172 0 
L 2766 4134 
L 525 4134 
L 525 4666 
z
" transform="scale(0.015625)"/>
       </defs>
       <use xlink:href="#DejaVuSans-1a"/>
       <use xlink:href="#DejaVuSans-13" transform="translate(63.625 0)"/>
       <use xlink:href="#DejaVuSans-13" transform="translate(127.25 0)"/>
      </g>
     </g>
    </g>
    <g id="xtick_27">
     <g id="line2d_35">
      <g>
       <use xlink:href="#mdf532ad194" x="311.330606" y="294.198739" style="stroke: #000000; stroke-width: 0.8"/>
      </g>
     </g>
     <g id="text_17">
      <!-- 800 -->
      <g transform="translate(301.786856 308.796395) scale(0.1 -0.1)">
       <defs>
        <path id="DejaVuSans-1b" d="M 2034 2216 
Q 1584 2216 1326 1975 
Q 1069 1734 1069 1313 
Q 1069 891 1326 650 
Q 1584 409 2034 409 
Q 2484 409 2743 651 
Q 3003 894 3003 1313 
Q 3003 1734 2745 1975 
Q 2488 2216 2034 2216 
z
M 1403 2484 
Q 997 2584 770 2862 
Q 544 3141 544 3541 
Q 544 4100 942 4425 
Q 1341 4750 2034 4750 
Q 2731 4750 3128 4425 
Q 3525 4100 3525 3541 
Q 3525 3141 3298 2862 
Q 3072 2584 2669 2484 
Q 3125 2378 3379 2068 
Q 3634 1759 3634 1313 
Q 3634 634 3220 271 
Q 2806 -91 2034 -91 
Q 1263 -91 848 271 
Q 434 634 434 1313 
Q 434 1759 690 2068 
Q 947 2378 1403 2484 
z
M 1172 3481 
Q 1172 3119 1398 2916 
Q 1625 2713 2034 2713 
Q 2441 2713 2670 2916 
Q 2900 3119 2900 3481 
Q 2900 3844 2670 4047 
Q 2441 4250 2034 4250 
Q 1625 4250 1398 4047 
Q 1172 3844 1172 3481 
z
" transform="scale(0.015625)"/>
       </defs>
       <use xlink:href="#DejaVuSans-1b"/>
       <use xlink:href="#DejaVuSans-13" transform="translate(63.625 0)"/>
       <use xlink:href="#DejaVuSans-13" transform="translate(127.25 0)"/>
      </g>
     </g>
    </g>
    <g id="text_18">
     <!-- Time -->
     <g transform="translate(172.415776 322.797176) scale(0.1 -0.1)">
      <defs>
       <path id="DejaVuSans-37" d="M -19 4666 
L 3928 4666 
L 3928 4134 
L 2272 4134 
L 2272 0 
L 1638 0 
L 1638 4134 
L -19 4134 
L -19 4666 
z
" transform="scale(0.015625)"/>
       <path id="DejaVuSans-4c" d="M 603 3500 
L 1178 3500 
L 1178 0 
L 603 0 
L 603 3500 
z
M 603 4863 
L 1178 4863 
L 1178 4134 
L 603 4134 
L 603 4863 
z
" transform="scale(0.015625)"/>
       <path id="DejaVuSans-50" d="M 3328 2828 
Q 3544 3216 3844 3400 
Q 4144 3584 4550 3584 
Q 5097 3584 5394 3201 
Q 5691 2819 5691 2113 
L 5691 0 
L 5113 0 
L 5113 2094 
Q 5113 2597 4934 2840 
Q 4756 3084 4391 3084 
Q 3944 3084 3684 2787 
Q 3425 2491 3425 1978 
L 3425 0 
L 2847 0 
L 2847 2094 
Q 2847 2600 2669 2842 
Q 2491 3084 2119 3084 
Q 1678 3084 1418 2786 
Q 1159 2488 1159 1978 
L 1159 0 
L 581 0 
L 581 3500 
L 1159 3500 
L 1159 2956 
Q 1356 3278 1631 3431 
Q 1906 3584 2284 3584 
Q 2666 3584 2933 3390 
Q 3200 3197 3328 2828 
z
" transform="scale(0.015625)"/>
      </defs>
      <use xlink:href="#DejaVuSans-37"/>
      <use xlink:href="#DejaVuSans-4c" transform="translate(58 0)"/>
      <use xlink:href="#DejaVuSans-50" transform="translate(85.78125 0)"/>
      <use xlink:href="#DejaVuSans-48" transform="translate(183.1875 0)"/>
     </g>
    </g>
   </g>
   <g id="matplotlib.axis_6">
    <g id="ytick_7">
     <g id="line2d_36">
      <g>
       <use xlink:href="#ma359cba898" x="44.103906" y="290.138166" style="stroke: #000000; stroke-width: 0.8"/>
      </g>
     </g>
     <g id="text_19">
      <!-- 0.0 -->
      <g transform="translate(21.200781 293.936994) scale(0.1 -0.1)">
       <defs>
        <path id="DejaVuSans-11" d="M 684 794 
L 1344 794 
L 1344 0 
L 684 0 
L 684 794 
z
" transform="scale(0.015625)"/>
       </defs>
       <use xlink:href="#DejaVuSans-13"/>
       <use xlink:href="#DejaVuSans-11" transform="translate(63.625 0)"/>
       <use xlink:href="#DejaVuSans-13" transform="translate(95.40625 0)"/>
      </g>
     </g>
    </g>
    <g id="ytick_8">
     <g id="line2d_37">
      <g>
       <use xlink:href="#ma359cba898" x="44.103906" y="249.532442" style="stroke: #000000; stroke-width: 0.8"/>
      </g>
     </g>
     <g id="text_20">
      <!-- 0.5 -->
      <g transform="translate(21.200781 253.33127) scale(0.1 -0.1)">
       <use xlink:href="#DejaVuSans-13"/>
       <use xlink:href="#DejaVuSans-11" transform="translate(63.625 0)"/>
       <use xlink:href="#DejaVuSans-18" transform="translate(95.40625 0)"/>
      </g>
     </g>
    </g>
    <g id="ytick_9">
     <g id="line2d_38">
      <g>
       <use xlink:href="#ma359cba898" x="44.103906" y="208.926718" style="stroke: #000000; stroke-width: 0.8"/>
      </g>
     </g>
     <g id="text_21">
      <!-- 1.0 -->
      <g transform="translate(21.200781 212.725546) scale(0.1 -0.1)">
       <use xlink:href="#DejaVuSans-14"/>
       <use xlink:href="#DejaVuSans-11" transform="translate(63.625 0)"/>
       <use xlink:href="#DejaVuSans-13" transform="translate(95.40625 0)"/>
      </g>
     </g>
    </g>
    <g id="text_22">
     <!-- Free lac operon -->
     <g transform="translate(14.798438 288.006661) rotate(-90) scale(0.1 -0.1)">
      <defs>
       <path id="DejaVuSans-29" d="M 628 4666 
L 3309 4666 
L 3309 4134 
L 1259 4134 
L 1259 2759 
L 3109 2759 
L 3109 2228 
L 1259 2228 
L 1259 0 
L 628 0 
L 628 4666 
z
" transform="scale(0.015625)"/>
       <path id="DejaVuSans-53" d="M 1159 525 
L 1159 -1331 
L 581 -1331 
L 581 3500 
L 1159 3500 
L 1159 2969 
Q 1341 3281 1617 3432 
Q 1894 3584 2278 3584 
Q 2916 3584 3314 3078 
Q 3713 2572 3713 1747 
Q 3713 922 3314 415 
Q 2916 -91 2278 -91 
Q 1894 -91 1617 61 
Q 1341 213 1159 525 
z
M 3116 1747 
Q 3116 2381 2855 2742 
Q 2594 3103 2138 3103 
Q 1681 3103 1420 2742 
Q 1159 2381 1159 1747 
Q 1159 1113 1420 752 
Q 1681 391 2138 391 
Q 2594 391 2855 752 
Q 3116 1113 3116 1747 
z
" transform="scale(0.015625)"/>
       <path id="DejaVuSans-51" d="M 3513 2113 
L 3513 0 
L 2938 0 
L 2938 2094 
Q 2938 2591 2744 2837 
Q 2550 3084 2163 3084 
Q 1697 3084 1428 2787 
Q 1159 2491 1159 1978 
L 1159 0 
L 581 0 
L 581 3500 
L 1159 3500 
L 1159 2956 
Q 1366 3272 1645 3428 
Q 1925 3584 2291 3584 
Q 2894 3584 3203 3211 
Q 3513 2838 3513 2113 
z
" transform="scale(0.015625)"/>
      </defs>
      <use xlink:href="#DejaVuSans-29"/>
      <use xlink:href="#DejaVuSans-55" transform="translate(50.234375 0)"/>
      <use xlink:href="#DejaVuSans-48" transform="translate(89.140625 0)"/>
      <use xlink:href="#DejaVuSans-48" transform="translate(150.671875 0)"/>
      <use xlink:href="#DejaVuSans-3" transform="translate(212.203125 0)"/>
      <use xlink:href="#DejaVuSans-4f" transform="translate(243.984375 0)"/>
      <use xlink:href="#DejaVuSans-44" transform="translate(271.765625 0)"/>
      <use xlink:href="#DejaVuSans-46" transform="translate(333.046875 0)"/>
      <use xlink:href="#DejaVuSans-3" transform="translate(388.03125 0)"/>
      <use xlink:href="#DejaVuSans-52" transform="translate(419.8125 0)"/>
      <use xlink:href="#DejaVuSans-53" transform="translate(481 0)"/>
      <use xlink:href="#DejaVuSans-48" transform="translate(544.484375 0)"/>
      <use xlink:href="#DejaVuSans-55" transform="translate(606.015625 0)"/>
      <use xlink:href="#DejaVuSans-52" transform="translate(644.921875 0)"/>
      <use xlink:href="#DejaVuSans-51" transform="translate(706.109375 0)"/>
     </g>
    </g>
   </g>
   <g id="line2d_39">
    <path d="M 56.88098 208.926718 
L 56.962329 290.138166 
L 57.130274 290.138166 
L 57.29951 208.926718 
L 57.417437 208.926718 
L 57.519361 290.138166 
L 58.733169 290.138166 
L 59.721004 208.926718 
L 59.906968 208.926718 
L 59.929667 290.138166 
L 62.346199 290.138166 
L 64.935453 208.926718 
L 65.229751 208.926718 
L 65.366916 290.138166 
L 65.492533 290.138166 
L 72.141438 208.926718 
L 72.310883 290.138166 
L 80.134559 208.926718 
L 80.183497 290.138166 
L 82.804629 208.926718 
L 82.944335 208.926718 
L 82.998387 290.138166 
L 84.735185 290.138166 
L 84.800486 208.926718 
L 85.674995 208.926718 
L 85.864586 290.138166 
L 86.895326 290.138166 
L 89.881838 208.926718 
L 90.420745 208.926718 
L 90.449964 290.138166 
L 90.807143 290.138166 
L 91.686741 208.926718 
L 91.745069 290.138166 
L 92.08821 290.138166 
L 109.128274 208.926718 
L 109.141948 290.138166 
L 109.399885 290.138166 
L 109.67545 208.926718 
L 109.962217 290.138166 
L 110.090025 208.926718 
L 110.496941 208.926718 
L 110.701106 290.138166 
L 110.993148 290.138166 
L 115.146773 208.926718 
L 115.806043 290.138166 
L 117.444711 208.926718 
L 117.759295 290.138166 
L 118.43034 208.926718 
L 118.517485 290.138166 
L 119.524772 208.926718 
L 119.609507 290.138166 
L 123.544237 290.138166 
L 129.550719 208.926718 
L 129.656449 290.138166 
L 131.395141 208.926718 
L 131.845007 208.926718 
L 131.866404 290.138166 
L 133.702913 290.138166 
L 136.293221 208.926718 
L 136.3065 290.138166 
L 139.181637 208.926718 
L 139.224281 290.138166 
L 146.253103 208.926718 
L 147.195486 208.926718 
L 147.263658 290.138166 
L 147.878816 290.138166 
L 148.123345 208.926718 
L 148.437576 208.926718 
L 148.55009 290.138166 
L 149.618495 290.138166 
L 150.128873 208.926718 
L 150.229418 290.138166 
L 151.348205 290.138166 
L 151.359502 208.926718 
L 151.520707 290.138166 
L 155.82033 208.926718 
L 155.90908 290.138166 
L 156.157885 208.926718 
L 207.887186 208.926718 
L 208.12952 290.138166 
L 210.297275 208.926718 
L 210.605842 208.926718 
L 211.125313 290.138166 
L 211.387816 290.138166 
L 211.666191 208.926718 
L 211.709799 290.138166 
L 212.219492 290.138166 
L 213.687223 208.926718 
L 213.784676 290.138166 
L 214.239355 208.926718 
L 214.548697 208.926718 
L 214.718186 290.138166 
L 214.771265 208.926718 
L 214.82276 290.138166 
L 216.088876 290.138166 
L 225.001525 208.926718 
L 225.146542 208.926718 
L 225.151073 290.138166 
L 225.641626 290.138166 
L 236.595134 208.926718 
L 236.733278 290.138166 
L 238.961839 208.926718 
L 239.296264 290.138166 
L 240.510387 208.926718 
L 240.534705 290.138166 
L 240.678364 208.926718 
L 242.012639 208.926718 
L 242.016966 290.138166 
L 242.079998 208.926718 
L 242.135948 208.926718 
L 242.437891 290.138166 
L 242.60094 290.138166 
L 244.712796 208.926718 
L 245.010144 208.926718 
L 245.023022 290.138166 
L 245.919152 290.138166 
L 257.24957 208.926718 
L 257.384079 290.138166 
L 257.638363 208.926718 
L 257.950655 208.926718 
L 258.068572 290.138166 
L 259.060045 290.138166 
L 260.309766 208.926718 
L 260.520556 208.926718 
L 260.614718 290.138166 
L 260.769262 208.926718 
L 260.845641 290.138166 
L 261.469132 208.926718 
L 261.788197 290.138166 
L 267.87235 208.926718 
L 268.112777 290.138166 
L 272.554772 208.926718 
L 272.57521 290.138166 
L 274.449092 208.926718 
L 276.290409 208.926718 
L 276.402317 290.138166 
L 277.154411 290.138166 
L 279.018461 208.926718 
L 279.055446 290.138166 
L 279.07931 208.926718 
L 279.390865 290.138166 
L 282.808481 208.926718 
L 283.048902 290.138166 
L 283.389458 208.926718 
L 283.412568 290.138166 
L 284.055409 290.138166 
L 286.083665 208.926718 
L 286.223616 290.138166 
L 288.903755 208.926718 
L 288.912066 290.138166 
L 292.077931 208.926718 
L 293.103769 208.926718 
L 293.125213 290.138166 
L 293.768241 290.138166 
L 294.005937 208.926718 
L 294.120568 290.138166 
L 294.411886 290.138166 
L 300.290058 208.926718 
L 300.312417 290.138166 
L 304.264854 208.926718 
L 304.885595 208.926718 
L 305.040244 290.138166 
L 309.440047 208.926718 
L 309.462029 290.138166 
L 312.422447 208.926718 
L 312.422447 208.926718 
" clip-path="url(#p90948f82ce)" style="fill: none; stroke: #000000; stroke-width: 1.5; stroke-linecap: square"/>
   </g>
   <g id="patch_13">
    <path d="M 44.103906 294.198739 
L 44.103906 204.866146 
" style="fill: none; stroke: #000000; stroke-width: 0.8; stroke-linejoin: miter; stroke-linecap: square"/>
   </g>
   <g id="patch_14">
    <path d="M 325.19952 294.198739 
L 325.19952 204.866146 
" style="fill: none; stroke: #000000; stroke-width: 0.8; stroke-linejoin: miter; stroke-linecap: square"/>
   </g>
   <g id="patch_15">
    <path d="M 44.103906 294.198739 
L 325.19952 294.198739 
" style="fill: none; stroke: #000000; stroke-width: 0.8; stroke-linejoin: miter; stroke-linecap: square"/>
   </g>
   <g id="patch_16">
    <path d="M 44.103906 204.866146 
L 325.19952 204.866146 
" style="fill: none; stroke: #000000; stroke-width: 0.8; stroke-linejoin: miter; stroke-linecap: square"/>
   </g>
  </g>
 </g>
 <defs>
  <clipPath id="p46a643f5f1">
   <rect x="44.103906" y="7.2" width="281.095614" height="89.332593"/>
  </clipPath>
  <clipPath id="p08191c230b">
   <rect x="44.103906" y="106.033073" width="281.095614" height="89.332593"/>
  </clipPath>
  <clipPath id="p90948f82ce">
   <rect x="44.103906" y="204.866146" width="281.095614" height="89.332593"/>
  </clipPath>
 </defs>
</svg>
