<?xml version="1.0" encoding="utf-8" standalone="no"?>
<!DOCTYPE svg PUBLIC "-//W3C//DTD SVG 1.1//EN"
  "http://www.w3.org/Graphics/SVG/1.1/DTD/svg11.dtd">
<svg xmlns:xlink="http://www.w3.org/1999/xlink" width="332.39952pt" height="332.39952pt" viewBox="0 0 332.39952 332.39952" xmlns="http://www.w3.org/2000/svg" version="1.1">
 <metadata>
  <rdf:RDF xmlns:dc="http://purl.org/dc/elements/1.1/" xmlns:cc="http://creativecommons.org/ns#" xmlns:rdf="http://www.w3.org/1999/02/22-rdf-syntax-ns#">
   <cc:Work>
    <dc:type rdf:resource="http://purl.org/dc/dcmitype/StillImage"/>
    <dc:date>2026-06-12T14:18:09.353337</dc:date>
    <dc:format>image/svg+xml</dc:format>
    <dc:creator>
     <cc:Agent>
      <dc:title>Matplotlib v3.11.0, https://matplotlib.org/</dc:title>
     </cc:Agent>
    </dc:creator>
   </cc:Work>
  </rdf:RDF>
 </metadata>
 <defs>
  <style type="text/css">*{stroke-linejoin: round; stroke-linecap: butt}</style>
 </defs>
 <g id="figure_1">
  <g id="patch_1">
   <path d="M 0 332.39952 
L 332.39952 332.39952 
L 332.39952 0 
L 0 0 
z
" style="fill: #ffffff"/>
  </g>
  <g id="axes_1">
   <g id="patch_2">
    <path d="M 44.103906 96.532593 
L 325.19952 96.532593 
L 325.19952 7.2 
L 44.103906 7.2 
z
" style="fill: #ffffff"/>
   </g>
   <g id="matplotlib.axis_1">
    <g id="xtick_1">
     <g id="line2d_1">
      <defs>
       <path id="mdd1982a16e" d="M 0 0 
L 0 3.5 
" style="stroke: #000000; stroke-width: 0.8"/>
      </defs>
      <g>
       <use xlink:href="#mdd1982a16e" x="56.88098" y="96.532593" style="stroke: #000000; stroke-width: 0.8"/>
      </g>
     </g>
    </g>
    <g id="xtick_2">
     <g id="line2d_2">
      <g>
       <use xlink:href="#mdd1982a16e" x="88.615957" y="96.532593" style="stroke: #000000; stroke-width: 0.8"/>
      </g>
     </g>
    </g>
    <g id="xtick_3">
     <g id="line2d_3">
      <g>
       <use xlink:href="#mdd1982a16e" x="120.350935" y="96.532593" style="stroke: #000000; stroke-width: 0.8"/>
      </g>
     </g>
    </g>
    <g id="xtick_4">
     <g id="line2d_4">
      <g>
       <use xlink:href="#mdd1982a16e" x="152.085912" y="96.532593" style="stroke: #000000; stroke-width: 0.8"/>
      </g>
     </g>
    </g>
    <g id="xtick_5">
     <g id="line2d_5">
      <g>
       <use xlink:href="#mdd1982a16e" x="183.82089" y="96.532593" style="stroke: #000000; stroke-width: 0.8"/>
      </g>
     </g>
    </g>
    <g id="xtick_6">
     <g id="line2d_6">
      <g>
       <use xlink:href="#mdd1982a16e" x="215.555867" y="96.532593" style="stroke: #000000; stroke-width: 0.8"/>
      </g>
     </g>
    </g>
    <g id="xtick_7">
     <g id="line2d_7">
      <g>
       <use xlink:href="#mdd1982a16e" x="247.290845" y="96.532593" style="stroke: #000000; stroke-width: 0.8"/>
      </g>
     </g>
    </g>
    <g id="xtick_8">
     <g id="line2d_8">
      <g>
       <use xlink:href="#mdd1982a16e" x="279.025822" y="96.532593" style="stroke: #000000; stroke-width: 0.8"/>
      </g>
     </g>
    </g>
    <g id="xtick_9">
     <g id="line2d_9">
      <g>
       <use xlink:href="#mdd1982a16e" x="310.7608" y="96.532593" style="stroke: #000000; stroke-width: 0.8"/>
      </g>
     </g>
    </g>
   </g>
   <g id="matplotlib.axis_2">
    <g id="ytick_1">
     <g id="line2d_10">
      <defs>
       <path id="mbc2933df64" d="M 0 0 
L -3.5 0 
" style="stroke: #000000; stroke-width: 0.8"/>
      </defs>
      <g>
       <use xlink:href="#mbc2933df64" x="44.103906" y="92.472021" style="stroke: #000000; stroke-width: 0.8"/>
      </g>
     </g>
     <g id="text_1">
      <!-- 0 -->
      <g transform="translate(30.741406 96.270849) scale(0.1 -0.1)">
       <defs>
        <path id="DejaVuSans-13" d="M 2034 4250 
Q 1547 4250 1301 3770 
Q 1056 3291 1056 2328 
Q 1056 1369 1301 889 
Q 1547 409 2034 409 
Q 2525 409 2770 889 
Q 3016 1369 3016 2328 
Q 3016 3291 2770 3770 
Q 2525 4250 2034 4250 
z
M 2034 4750 
Q 2819 4750 3233 4129 
Q 3647 3509 3647 2328 
Q 3647 1150 3233 529 
Q 2819 -91 2034 -91 
Q 1250 -91 836 529 
Q 422 1150 422 2328 
Q 422 3509 836 4129 
Q 1250 4750 2034 4750 
z
" transform="scale(0.015625)"/>
       </defs>
       <use xlink:href="#DejaVuSans-13"/>
      </g>
     </g>
    </g>
    <g id="ytick_2">
     <g id="line2d_11">
      <g>
       <use xlink:href="#mbc2933df64" x="44.103906" y="51.866296" style="stroke: #000000; stroke-width: 0.8"/>
      </g>
     </g>
     <g id="text_2">
      <!-- 5 -->
      <g transform="translate(30.741406 55.665125) scale(0.1 -0.1)">
       <defs>
        <path id="DejaVuSans-18" d="M 691 4666 
L 3169 4666 
L 3169 4134 
L 1269 4134 
L 1269 2991 
Q 1406 3038 1543 3061 
Q 1681 3084 1819 3084 
Q 2600 3084 3056 2656 
Q 3513 2228 3513 1497 
Q 3513 744 3044 326 
Q 2575 -91 1722 -91 
Q 1428 -91 1123 -41 
Q 819 9 494 109 
L 494 744 
Q 775 591 1075 516 
Q 1375 441 1709 441 
Q 2250 441 2565 725 
Q 2881 1009 2881 1497 
Q 2881 1984 2565 2268 
Q 2250 2553 1709 2553 
Q 1456 2553 1204 2497 
Q 953 2441 691 2322 
L 691 4666 
z
" transform="scale(0.015625)"/>
       </defs>
       <use xlink:href="#DejaVuSans-18"/>
      </g>
     </g>
    </g>
    <g id="ytick_3">
     <g id="line2d_12">
      <g>
       <use xlink:href="#mbc2933df64" x="44.103906" y="11.260572" style="stroke: #000000; stroke-width: 0.8"/>
      </g>
     </g>
     <g id="text_3">
      <!-- 10 -->
      <g transform="translate(24.378906 15.059401) scale(0.1 -0.1)">
       <defs>
        <path id="DejaVuSans-14" d="M 794 531 
L 1825 531 
L 1825 4091 
L 703 3866 
L 703 4441 
L 1819 4666 
L 2450 4666 
L 2450 531 
L 3481 531 
L 3481 0 
L 794 0 
L 794 531 
z
" transform="scale(0.015625)"/>
       </defs>
       <use xlink:href="#DejaVuSans-14"/>
       <use xlink:href="#DejaVuSans-13" transform="translate(63.625 0)"/>
      </g>
     </g>
    </g>
    <g id="text_4">
     <!-- Extracellular lactose -->
     <g transform="translate(17.976563 102.838171) rotate(-90) scale(0.1 -0.1)">
      <defs>
       <path id="DejaVuSans-28" d="M 628 4666 
L 3578 4666 
L 3578 4134 
L 1259 4134 
L 1259 2753 
L 3481 2753 
L 3481 2222 
L 1259 2222 
L 1259 531 
L 3634 531 
L 3634 0 
L 628 0 
L 628 4666 
z
" transform="scale(0.015625)"/>
       <path id="DejaVuSans-5b" d="M 3513 3500 
L 2247 1797 
L 3578 0 
L 2900 0 
L 1881 1375 
L 863 0 
L 184 0 
L 1544 1831 
L 300 3500 
L 978 3500 
L 1906 2253 
L 2834 3500 
L 3513 3500 
z
" transform="scale(0.015625)"/>
       <path id="DejaVuSans-57" d="M 1172 4494 
L 1172 3500 
L 2356 3500 
L 2356 3053 
L 1172 3053 
L 1172 1153 
Q 1172 725 1289 603 
Q 1406 481 1766 481 
L 2356 481 
L 2356 0 
L 1766 0 
Q 1100 0 847 248 
Q 594 497 594 1153 
L 594 3053 
L 172 3053 
L 172 3500 
L 594 3500 
L 594 4494 
L 1172 4494 
z
" transform="scale(0.015625)"/>
       <path id="DejaVuSans-55" d="M 2631 2963 
Q 2534 3019 2420 3045 
Q 2306 3072 2169 3072 
Q 1681 3072 1420 2755 
Q 1159 2438 1159 1844 
L 1159 0 
L 581 0 
L 581 3500 
L 1159 3500 
L 1159 2956 
Q 1341 3275 1631 3429 
Q 1922 3584 2338 3584 
Q 2397 3584 2469 3576 
Q 2541 3569 2628 3553 
L 2631 2963 
z
" transform="scale(0.015625)"/>
       <path id="DejaVuSans-44" d="M 2194 1759 
Q 1497 1759 1228 1600 
Q 959 1441 959 1056 
Q 959 750 1161 570 
Q 1363 391 1709 391 
Q 2188 391 2477 730 
Q 2766 1069 2766 1631 
L 2766 1759 
L 2194 1759 
z
M 3341 1997 
L 3341 0 
L 2766 0 
L 2766 531 
Q 2569 213 2275 61 
Q 1981 -91 1556 -91 
Q 1019 -91 701 211 
Q 384 513 384 1019 
Q 384 1609 779 1909 
Q 1175 2209 1959 2209 
L 2766 2209 
L 2766 2266 
Q 2766 2663 2505 2880 
Q 2244 3097 1772 3097 
Q 1472 3097 1187 3025 
Q 903 2953 641 2809 
L 641 3341 
Q 956 3463 1253 3523 
Q 1550 3584 1831 3584 
Q 2591 3584 2966 3190 
Q 3341 2797 3341 1997 
z
" transform="scale(0.015625)"/>
       <path id="DejaVuSans-46" d="M 3122 3366 
L 3122 2828 
Q 2878 2963 2633 3030 
Q 2388 3097 2138 3097 
Q 1578 3097 1268 2742 
Q 959 2388 959 1747 
Q 959 1106 1268 751 
Q 1578 397 2138 397 
Q 2388 397 2633 464 
Q 2878 531 3122 666 
L 3122 134 
Q 2881 22 2623 -34 
Q 2366 -91 2075 -91 
Q 1284 -91 818 406 
Q 353 903 353 1747 
Q 353 2603 823 3093 
Q 1294 3584 2113 3584 
Q 2378 3584 2631 3529 
Q 2884 3475 3122 3366 
z
" transform="scale(0.015625)"/>
       <path id="DejaVuSans-48" d="M 3597 1894 
L 3597 1613 
L 953 1613 
Q 991 1019 1311 708 
Q 1631 397 2203 397 
Q 2534 397 2845 478 
Q 3156 559 3463 722 
L 3463 178 
Q 3153 47 2828 -22 
Q 2503 -91 2169 -91 
Q 1331 -91 842 396 
Q 353 884 353 1716 
Q 353 2575 817 3079 
Q 1281 3584 2069 3584 
Q 2775 3584 3186 3129 
Q 3597 2675 3597 1894 
z
M 3022 2063 
Q 3016 2534 2758 2815 
Q 2500 3097 2075 3097 
Q 1594 3097 1305 2825 
Q 1016 2553 972 2059 
L 3022 2063 
z
" transform="scale(0.015625)"/>
       <path id="DejaVuSans-4f" d="M 603 4863 
L 1178 4863 
L 1178 0 
L 603 0 
L 603 4863 
z
" transform="scale(0.015625)"/>
       <path id="DejaVuSans-58" d="M 544 1381 
L 544 3500 
L 1119 3500 
L 1119 1403 
Q 1119 906 1312 657 
Q 1506 409 1894 409 
Q 2359 409 2629 706 
Q 2900 1003 2900 1516 
L 2900 3500 
L 3475 3500 
L 3475 0 
L 2900 0 
L 2900 538 
Q 2691 219 2414 64 
Q 2138 -91 1772 -91 
Q 1169 -91 856 284 
Q 544 659 544 1381 
z
M 1991 3584 
L 1991 3584 
z
" transform="scale(0.015625)"/>
       <path id="DejaVuSans-3" transform="scale(0.015625)"/>
       <path id="DejaVuSans-52" d="M 1959 3097 
Q 1497 3097 1228 2736 
Q 959 2375 959 1747 
Q 959 1119 1226 758 
Q 1494 397 1959 397 
Q 2419 397 2687 759 
Q 2956 1122 2956 1747 
Q 2956 2369 2687 2733 
Q 2419 3097 1959 3097 
z
M 1959 3584 
Q 2709 3584 3137 3096 
Q 3566 2609 3566 1747 
Q 3566 888 3137 398 
Q 2709 -91 1959 -91 
Q 1206 -91 779 398 
Q 353 888 353 1747 
Q 353 2609 779 3096 
Q 1206 3584 1959 3584 
z
" transform="scale(0.015625)"/>
       <path id="DejaVuSans-56" d="M 2834 3397 
L 2834 2853 
Q 2591 2978 2328 3040 
Q 2066 3103 1784 3103 
Q 1356 3103 1142 2972 
Q 928 2841 928 2578 
Q 928 2378 1081 2264 
Q 1234 2150 1697 2047 
L 1894 2003 
Q 2506 1872 2764 1633 
Q 3022 1394 3022 966 
Q 3022 478 2636 193 
Q 2250 -91 1575 -91 
Q 1294 -91 989 -36 
Q 684 19 347 128 
L 347 722 
Q 666 556 975 473 
Q 1284 391 1588 391 
Q 1994 391 2212 530 
Q 2431 669 2431 922 
Q 2431 1156 2273 1281 
Q 2116 1406 1581 1522 
L 1381 1569 
Q 847 1681 609 1914 
Q 372 2147 372 2553 
Q 372 3047 722 3315 
Q 1072 3584 1716 3584 
Q 2034 3584 2315 3537 
Q 2597 3491 2834 3397 
z
" transform="scale(0.015625)"/>
      </defs>
      <use xlink:href="#DejaVuSans-28"/>
      <use xlink:href="#DejaVuSans-5b" transform="translate(63.1875 0)"/>
      <use xlink:href="#DejaVuSans-57" transform="translate(122.375 0)"/>
      <use xlink:href="#DejaVuSans-55" transform="translate(161.578125 0)"/>
      <use xlink:href="#DejaVuSans-44" transform="translate(202.6875 0)"/>
      <use xlink:href="#DejaVuSans-46" transform="translate(263.96875 0)"/>
      <use xlink:href="#DejaVuSans-48" transform="translate(318.953125 0)"/>
      <use xlink:href="#DejaVuSans-4f" transform="translate(380.484375 0)"/>
      <use xlink:href="#DejaVuSans-4f" transform="translate(408.265625 0)"/>
      <use xlink:href="#DejaVuSans-58" transform="translate(436.046875 0)"/>
      <use xlink:href="#DejaVuSans-4f" transform="translate(499.421875 0)"/>
      <use xlink:href="#DejaVuSans-44" transform="translate(527.203125 0)"/>
      <use xlink:href="#DejaVuSans-55" transform="translate(588.484375 0)"/>
      <use xlink:href="#DejaVuSans-3" transform="translate(629.59375 0)"/>
      <use xlink:href="#DejaVuSans-4f" transform="translate(661.375 0)"/>
      <use xlink:href="#DejaVuSans-44" transform="translate(689.15625 0)"/>
      <use xlink:href="#DejaVuSans-46" transform="translate(750.4375 0)"/>
      <use xlink:href="#DejaVuSans-57" transform="translate(805.421875 0)"/>
      <use xlink:href="#DejaVuSans-52" transform="translate(844.625 0)"/>
      <use xlink:href="#DejaVuSans-56" transform="translate(905.8125 0)"/>
      <use xlink:href="#DejaVuSans-48" transform="translate(957.90625 0)"/>
     </g>
    </g>
   </g>
   <g id="line2d_13">
    <path d="M 56.88098 92.472021 
L 155.598769 92.472021 
L 155.68732 11.260572 
L 156.351215 11.341784 
L 156.46818 11.66663 
L 156.51272 11.747841 
L 156.658018 13.209647 
L 156.775634 14.833876 
L 156.789378 14.915088 
L 156.932011 16.620528 
L 156.955415 16.701739 
L 157.461871 20.193832 
L 157.737401 20.599889 
L 157.796331 20.6811 
L 157.904837 20.762312 
L 158.35267 20.843523 
L 158.448936 21.249581 
L 158.688257 21.655638 
L 158.788103 22.061695 
L 158.907926 22.142906 
L 159.010041 22.630175 
L 159.039851 22.711387 
L 159.148153 23.604713 
L 159.244786 24.498038 
L 159.581791 25.878633 
L 159.627496 25.959845 
L 159.884076 27.421651 
L 160.004028 28.477399 
L 160.017705 28.558611 
L 160.333242 31.157377 
L 160.869455 33.431298 
L 160.996505 34.080989 
L 161.09935 34.162201 
L 161.30372 35.136738 
L 161.368439 35.21795 
L 161.565632 35.948853 
L 162.134462 36.030064 
L 162.277627 36.517333 
L 162.30124 36.598544 
L 162.469199 37.004601 
L 162.679896 37.085813 
L 162.823547 37.654293 
L 162.970628 37.979139 
L 162.993739 38.06035 
L 163.096335 38.303985 
L 163.682131 39.603368 
L 163.793564 39.847002 
L 163.969705 39.928214 
L 164.384162 41.39002 
L 164.52068 41.471231 
L 164.655067 41.633654 
L 164.699952 41.714865 
L 164.891492 42.445768 
L 164.938109 42.52698 
L 165.023077 42.770614 
L 165.173675 43.09546 
L 165.213632 43.176672 
L 165.264811 43.257883 
L 165.501667 43.339094 
L 165.61549 43.745152 
L 165.763343 44.151209 
L 165.848264 44.23242 
L 165.968852 44.638478 
L 166.193801 44.963323 
L 166.272426 45.044535 
L 166.587721 46.912398 
L 166.617958 46.99361 
L 166.729872 47.318455 
L 166.778736 47.399667 
L 166.99104 47.886936 
L 167.07014 47.968147 
L 167.342779 48.617839 
L 167.617161 50.160856 
L 167.672648 50.242067 
L 167.788343 50.729336 
L 167.953 51.054182 
L 168.097839 51.135393 
L 168.191644 51.297816 
L 168.282622 51.379028 
L 168.388073 51.541451 
L 168.515905 51.703874 
L 168.66222 51.785085 
L 168.730042 51.866296 
L 169.137442 51.947508 
L 169.550063 52.353565 
L 170.074486 52.434777 
L 170.893584 54.546274 
L 170.984896 54.708697 
L 171.061547 54.952331 
L 171.977038 60.555921 
L 172.363355 60.637133 
L 172.481527 61.124402 
L 172.575395 61.205613 
L 172.683679 61.286824 
L 172.790338 61.368036 
L 173.05044 61.936516 
L 173.067456 62.017727 
L 173.337674 62.423785 
L 173.42128 62.504996 
L 173.533302 62.748631 
L 174.06689 63.885591 
L 174.183127 63.966802 
L 174.397233 65.103762 
L 174.473967 65.184974 
L 174.716472 66.321934 
L 174.773067 66.403146 
L 174.898742 67.052837 
L 174.905725 67.134049 
L 175.017013 67.621317 
L 175.190927 67.702529 
L 175.294457 67.946163 
L 175.344343 68.027375 
L 175.461676 68.271009 
L 175.548099 68.35222 
L 175.609624 68.839489 
L 175.700885 68.920701 
L 175.86466 69.570392 
L 175.981751 69.651604 
L 176.099321 70.138872 
L 176.303676 70.707352 
L 176.371979 70.788564 
L 176.499055 71.438255 
L 176.767936 72.494004 
L 176.791951 72.575216 
L 176.936206 73.306119 
L 177.081236 73.549753 
L 177.227801 73.630965 
L 177.373123 73.874599 
L 177.470144 74.037022 
L 177.539985 74.118233 
L 177.698806 74.849136 
L 177.819589 75.255194 
L 177.839861 75.336405 
L 177.97401 75.580039 
L 178.002871 75.661251 
L 178.114457 75.823674 
L 178.182185 75.904885 
L 178.302554 76.067308 
L 178.798909 76.148519 
L 178.913147 76.229731 
L 178.978002 76.310942 
L 179.08201 76.392154 
L 179.098366 76.473365 
L 179.199504 76.554577 
L 179.406349 76.635788 
L 179.534703 76.798211 
L 179.759448 76.879422 
L 179.87094 77.041845 
L 180.003467 77.204268 
L 180.254104 77.28548 
L 180.547739 77.610326 
L 180.737418 77.691537 
L 181.640696 78.666074 
L 181.71227 78.747286 
L 181.984003 79.478189 
L 182.19109 79.5594 
L 182.314682 79.640612 
L 182.964514 79.721823 
L 183.087816 79.803035 
L 184.002412 79.884246 
L 184.117635 79.965458 
L 184.240904 80.209092 
L 184.379279 80.290303 
L 184.650313 80.533938 
L 184.826662 80.696361 
L 184.97718 80.777572 
L 185.272975 81.183629 
L 185.364129 81.264841 
L 185.868334 82.320589 
L 185.890291 82.401801 
L 186.015994 82.726647 
L 186.214762 82.807858 
L 186.316539 82.970281 
L 186.76281 83.051493 
L 187.287457 83.701184 
L 187.513505 84.02603 
L 187.730584 84.107241 
L 188.559693 84.756933 
L 188.792351 84.838144 
L 188.917534 85.000567 
L 189.234559 85.081779 
L 189.385792 85.244202 
L 190.870806 86.137528 
L 191.279581 86.218739 
L 191.391359 86.462373 
L 191.604103 86.543585 
L 191.696158 86.787219 
L 191.807615 86.868431 
L 191.988171 86.949642 
L 192.127442 87.030853 
L 192.256141 87.193276 
L 192.376242 87.274488 
L 192.479802 87.355699 
L 192.852895 87.436911 
L 193.077302 87.599334 
L 193.414131 87.680545 
L 193.768234 87.842968 
L 194.409028 87.924179 
L 194.769528 88.167814 
L 195.293595 88.249025 
L 195.437404 88.411448 
L 195.499134 88.49266 
L 195.72925 88.573871 
L 195.873849 88.817505 
L 196.093877 88.898717 
L 196.207493 89.06114 
L 196.76134 89.142351 
L 196.914322 89.223563 
L 197.345197 89.304774 
L 197.565261 89.385985 
L 198.276712 89.467197 
L 198.296959 89.548408 
L 199.365742 89.62962 
L 199.56617 89.792043 
L 200.451264 89.873254 
L 200.711254 89.954466 
L 203.054833 90.035677 
L 203.434374 90.116889 
L 217.159217 90.1981 
L 217.211973 90.279311 
L 227.817165 90.360523 
L 229.12267 90.522946 
L 231.671095 90.604157 
L 231.931647 90.685369 
L 265.075042 90.76658 
L 266.010916 90.847792 
L 295.4098 90.929003 
L 295.581318 91.091426 
L 297.402853 91.172637 
L 297.573193 91.253849 
L 299.473273 91.33506 
L 299.684466 91.416272 
L 300.992222 91.497483 
L 301.322165 91.578695 
L 302.953433 91.659906 
L 303.051972 91.741117 
L 312.422447 91.741117 
L 312.422447 91.741117 
" clip-path="url(#p17d75f370f)" style="fill: none; stroke: #000000; stroke-width: 1.5; stroke-linecap: square"/>
   </g>
   <g id="patch_3">
    <path d="M 44.103906 96.532593 
L 44.103906 7.2 
" style="fill: none; stroke: #000000; stroke-width: 0.8; stroke-linejoin: miter; stroke-linecap: square"/>
   </g>
   <g id="patch_4">
    <path d="M 325.19952 96.532593 
L 325.19952 7.2 
" style="fill: none; stroke: #000000; stroke-width: 0.8; stroke-linejoin: miter; stroke-linecap: square"/>
   </g>
   <g id="patch_5">
    <path d="M 44.103906 96.532593 
L 325.19952 96.532593 
" style="fill: none; stroke: #000000; stroke-width: 0.8; stroke-linejoin: miter; stroke-linecap: square"/>
   </g>
   <g id="patch_6">
    <path d="M 44.103906 7.2 
L 325.19952 7.2 
" style="fill: none; stroke: #000000; stroke-width: 0.8; stroke-linejoin: miter; stroke-linecap: square"/>
   </g>
  </g>
  <g id="axes_2">
   <g id="patch_7">
    <path d="M 44.103906 195.365666 
L 325.19952 195.365666 
L 325.19952 106.033073 
L 44.103906 106.033073 
z
" style="fill: #ffffff"/>
   </g>
   <g id="matplotlib.axis_3">
    <g id="xtick_10">
     <g id="line2d_14">
      <g>
       <use xlink:href="#mdd1982a16e" x="56.88098" y="195.365666" style="stroke: #000000; stroke-width: 0.8"/>
      </g>
     </g>
    </g>
    <g id="xtick_11">
     <g id="line2d_15">
      <g>
       <use xlink:href="#mdd1982a16e" x="88.615957" y="195.365666" style="stroke: #000000; stroke-width: 0.8"/>
      </g>
     </g>
    </g>
    <g id="xtick_12">
     <g id="line2d_16">
      <g>
       <use xlink:href="#mdd1982a16e" x="120.350935" y="195.365666" style="stroke: #000000; stroke-width: 0.8"/>
      </g>
     </g>
    </g>
    <g id="xtick_13">
     <g id="line2d_17">
      <g>
       <use xlink:href="#mdd1982a16e" x="152.085912" y="195.365666" style="stroke: #000000; stroke-width: 0.8"/>
      </g>
     </g>
    </g>
    <g id="xtick_14">
     <g id="line2d_18">
      <g>
       <use xlink:href="#mdd1982a16e" x="183.82089" y="195.365666" style="stroke: #000000; stroke-width: 0.8"/>
      </g>
     </g>
    </g>
    <g id="xtick_15">
     <g id="line2d_19">
      <g>
       <use xlink:href="#mdd1982a16e" x="215.555867" y="195.365666" style="stroke: #000000; stroke-width: 0.8"/>
      </g>
     </g>
    </g>
    <g id="xtick_16">
     <g id="line2d_20">
      <g>
       <use xlink:href="#mdd1982a16e" x="247.290845" y="195.365666" style="stroke: #000000; stroke-width: 0.8"/>
      </g>
     </g>
    </g>
    <g id="xtick_17">
     <g id="line2d_21">
      <g>
       <use xlink:href="#mdd1982a16e" x="279.025822" y="195.365666" style="stroke: #000000; stroke-width: 0.8"/>
      </g>
     </g>
    </g>
    <g id="xtick_18">
     <g id="line2d_22">
      <g>
       <use xlink:href="#mdd1982a16e" x="310.7608" y="195.365666" style="stroke: #000000; stroke-width: 0.8"/>
      </g>
     </g>
    </g>
   </g>
   <g id="matplotlib.axis_4">
    <g id="ytick_4">
     <g id="line2d_23">
      <g>
       <use xlink:href="#mbc2933df64" x="44.103906" y="191.305093" style="stroke: #000000; stroke-width: 0.8"/>
      </g>
     </g>
     <g id="text_5">
      <!-- 0 -->
      <g transform="translate(30.741406 195.103922) scale(0.1 -0.1)">
       <use xlink:href="#DejaVuSans-13"/>
      </g>
     </g>
    </g>
    <g id="ytick_5">
     <g id="line2d_24">
      <g>
       <use xlink:href="#mbc2933df64" x="44.103906" y="150.699369" style="stroke: #000000; stroke-width: 0.8"/>
      </g>
     </g>
     <g id="text_6">
      <!-- 5 -->
      <g transform="translate(30.741406 154.498197) scale(0.1 -0.1)">
       <use xlink:href="#DejaVuSans-18"/>
      </g>
     </g>
    </g>
    <g id="ytick_6">
     <g id="line2d_25">
      <g>
       <use xlink:href="#mbc2933df64" x="44.103906" y="110.093645" style="stroke: #000000; stroke-width: 0.8"/>
      </g>
     </g>
     <g id="text_7">
      <!-- 10 -->
      <g transform="translate(24.378906 113.892473) scale(0.1 -0.1)">
       <use xlink:href="#DejaVuSans-14"/>
       <use xlink:href="#DejaVuSans-13" transform="translate(63.625 0)"/>
      </g>
     </g>
    </g>
    <g id="text_8">
     <!-- LacY -->
     <g transform="translate(17.976563 162.352494) rotate(-90) scale(0.1 -0.1)">
      <defs>
       <path id="DejaVuSans-2f" d="M 628 4666 
L 1259 4666 
L 1259 531 
L 3531 531 
L 3531 0 
L 628 0 
L 628 4666 
z
" transform="scale(0.015625)"/>
       <path id="DejaVuSans-3c" d="M -13 4666 
L 666 4666 
L 1959 2747 
L 3244 4666 
L 3922 4666 
L 2272 2222 
L 2272 0 
L 1638 0 
L 1638 2222 
L -13 4666 
z
" transform="scale(0.015625)"/>
      </defs>
      <use xlink:href="#DejaVuSans-2f"/>
      <use xlink:href="#DejaVuSans-44" transform="translate(55.71875 0)"/>
      <use xlink:href="#DejaVuSans-46" transform="translate(117 0)"/>
      <use xlink:href="#DejaVuSans-3c" transform="translate(171.984375 0)"/>
     </g>
    </g>
   </g>
   <g id="line2d_26">
    <path d="M 56.88098 110.093645 
L 56.907956 110.093645 
L 56.962147 118.21479 
L 57.06971 134.45708 
L 57.129716 142.578225 
L 57.280975 142.578225 
L 57.298573 134.45708 
L 57.517932 142.578225 
L 57.659006 142.578225 
L 57.828706 158.820514 
L 58.127929 175.062804 
L 58.193183 191.305093 
L 59.714644 191.305093 
L 59.880336 183.183949 
L 59.92284 191.305093 
L 64.917417 191.305093 
L 65.238572 183.183949 
L 65.347913 191.305093 
L 82.746577 191.305093 
L 82.939901 183.183949 
L 84.723221 191.305093 
L 84.737964 183.183949 
L 84.880372 175.062804 
L 84.885001 166.941659 
L 85.205367 175.062804 
L 85.431066 175.062804 
L 85.550033 191.305093 
L 85.610514 183.183949 
L 85.799681 183.183949 
L 85.937395 191.305093 
L 89.807937 191.305093 
L 90.195565 175.062804 
L 90.196858 166.941659 
L 90.692717 166.941659 
L 90.73117 183.183949 
L 91.499012 183.183949 
L 91.666995 175.062804 
L 92.009368 191.305093 
L 108.919808 191.305093 
L 109.024916 183.183949 
L 109.143957 183.183949 
L 109.282276 191.305093 
L 109.515969 191.305093 
L 109.557223 183.183949 
L 109.97087 183.183949 
L 110.318852 175.062804 
L 110.376875 183.183949 
L 110.551168 183.183949 
L 110.580583 191.305093 
L 119.291598 191.305093 
L 119.469035 183.183949 
L 121.557685 183.183949 
L 123.394954 191.305093 
L 131.120089 191.305093 
L 131.305327 183.183949 
L 131.591302 183.183949 
L 131.698484 191.305093 
L 136.010374 191.305093 
L 136.093642 183.183949 
L 136.115387 191.305093 
L 146.052966 191.305093 
L 146.312373 175.062804 
L 146.33309 183.183949 
L 146.361938 175.062804 
L 146.474426 166.941659 
L 146.479737 175.062804 
L 147.061258 175.062804 
L 147.675039 183.183949 
L 147.91902 183.183949 
L 148.232547 175.062804 
L 148.34481 175.062804 
L 149.410822 191.305093 
L 149.868461 191.305093 
L 149.920057 175.062804 
L 150.020377 175.062804 
L 150.172368 183.183949 
L 150.305352 183.183949 
L 150.845272 191.305093 
L 155.935568 191.305093 
L 156.361496 183.183949 
L 156.600467 150.699369 
L 156.880558 150.699369 
L 157.000005 166.941659 
L 157.049599 166.941659 
L 157.149945 158.820514 
L 157.236445 158.820514 
L 157.345649 175.062804 
L 157.373694 175.062804 
L 157.461871 183.183949 
L 157.811715 183.183949 
L 157.904837 191.305093 
L 158.302333 191.305093 
L 158.420611 183.183949 
L 158.568405 183.183949 
L 158.671942 175.062804 
L 158.817122 175.062804 
L 158.872299 183.183949 
L 158.926494 175.062804 
L 159.032129 175.062804 
L 159.135841 166.941659 
L 159.295005 166.941659 
L 159.419237 183.183949 
L 159.552705 183.183949 
L 159.67511 175.062804 
L 159.823396 175.062804 
L 159.950679 158.820514 
L 160.126842 158.820514 
L 160.195202 150.699369 
L 160.237495 158.820514 
L 160.321083 158.820514 
L 160.371363 150.699369 
L 160.423686 158.820514 
L 160.591435 158.820514 
L 160.699944 175.062804 
L 160.728734 175.062804 
L 160.759094 183.183949 
L 160.767428 166.941659 
L 160.835065 166.941659 
L 161.068879 166.941659 
L 161.18033 175.062804 
L 161.46608 175.062804 
L 161.565632 183.183949 
L 161.664955 183.183949 
L 161.77508 191.305093 
L 162.046692 191.305093 
L 162.194704 183.183949 
L 162.317585 183.183949 
L 162.432186 175.062804 
L 162.469199 175.062804 
L 162.577749 183.183949 
L 162.819976 183.183949 
L 162.872707 175.062804 
L 162.925588 183.183949 
L 163.265043 183.183949 
L 163.35319 175.062804 
L 163.368819 183.183949 
L 163.449321 183.183949 
L 163.557912 175.062804 
L 163.737097 175.062804 
L 163.817922 183.183949 
L 163.910373 183.183949 
L 164.070528 175.062804 
L 164.136238 175.062804 
L 164.268064 183.183949 
L 164.353939 183.183949 
L 164.442371 175.062804 
L 164.674312 175.062804 
L 164.792027 166.941659 
L 164.829162 166.941659 
L 164.938109 183.183949 
L 165.53043 183.183949 
L 165.645282 175.062804 
L 165.938186 175.062804 
L 166.07201 183.183949 
L 166.193801 183.183949 
L 166.459633 158.820514 
L 166.572796 166.941659 
L 166.591326 166.941659 
L 166.700895 175.062804 
L 166.764777 175.062804 
L 166.871153 183.183949 
L 167.223175 183.183949 
L 167.394175 166.941659 
L 167.604503 166.941659 
L 167.722356 175.062804 
L 168.053885 175.062804 
L 168.129895 183.183949 
L 168.162617 175.062804 
L 168.348937 175.062804 
L 168.455465 183.183949 
L 168.606394 183.183949 
L 168.718961 191.305093 
L 168.993874 191.305093 
L 169.194821 183.183949 
L 169.345882 183.183949 
L 169.399549 191.305093 
L 169.450933 183.183949 
L 169.550063 183.183949 
L 169.681491 191.305093 
L 169.712934 191.305093 
L 169.809091 183.183949 
L 169.9077 191.305093 
L 169.993175 183.183949 
L 170.226229 183.183949 
L 170.347314 175.062804 
L 170.751912 175.062804 
L 170.865067 158.820514 
L 171.080303 158.820514 
L 171.154199 150.699369 
L 171.176434 158.820514 
L 171.194832 158.820514 
L 171.305999 150.699369 
L 171.603048 150.699369 
L 171.659825 142.578225 
L 171.690894 150.699369 
L 171.79228 150.699369 
L 171.909931 166.941659 
L 171.977038 166.941659 
L 172.144262 183.183949 
L 172.335941 183.183949 
L 172.492766 166.941659 
L 172.522217 166.941659 
L 172.646219 183.183949 
L 172.783329 183.183949 
L 172.903962 166.941659 
L 172.945799 166.941659 
L 173.057965 175.062804 
L 173.099408 175.062804 
L 173.169696 183.183949 
L 173.308781 183.183949 
L 173.439274 166.941659 
L 173.478096 166.941659 
L 173.593953 175.062804 
L 174.05908 175.062804 
L 174.183127 158.820514 
L 174.37459 158.820514 
L 174.397233 150.699369 
L 174.48387 158.820514 
L 174.547188 158.820514 
L 174.548668 150.699369 
L 174.646672 158.820514 
L 175.014237 158.820514 
L 175.059798 175.062804 
L 175.110381 166.941659 
L 175.139372 166.941659 
L 175.2332 158.820514 
L 175.240093 166.941659 
L 175.354363 166.941659 
L 175.461676 175.062804 
L 175.599371 158.820514 
L 175.797222 158.820514 
L 175.922445 166.941659 
L 176.215811 166.941659 
L 176.295 175.062804 
L 176.303676 166.941659 
L 176.391488 166.941659 
L 176.499055 158.820514 
L 176.575526 158.820514 
L 176.645588 150.699369 
L 176.65164 158.820514 
L 176.839185 158.820514 
L 176.916985 150.699369 
L 176.947608 158.820514 
L 177.071497 183.183949 
L 177.193839 158.820514 
L 177.362359 158.820514 
L 177.470144 166.941659 
L 177.672814 166.941659 
L 177.794074 150.699369 
L 177.937728 166.941659 
L 177.97401 166.941659 
L 178.014944 175.062804 
L 178.04012 166.941659 
L 178.114457 158.820514 
L 178.143309 166.941659 
L 178.179665 166.941659 
L 178.280746 175.062804 
L 178.462 175.062804 
L 178.559211 183.183949 
L 178.857274 183.183949 
L 178.983878 158.820514 
L 179.031484 158.820514 
L 179.141131 166.941659 
L 179.267633 183.183949 
L 179.291986 183.183949 
L 179.350489 158.820514 
L 179.406349 166.941659 
L 179.441163 166.941659 
L 179.630884 183.183949 
L 179.671991 183.183949 
L 179.778269 175.062804 
L 179.88915 183.183949 
L 179.938278 183.183949 
L 179.966436 191.305093 
L 180.045037 183.183949 
L 180.3937 183.183949 
L 180.481297 175.062804 
L 180.547739 175.062804 
L 180.803303 166.941659 
L 180.878906 175.062804 
L 180.909062 166.941659 
L 180.997665 166.941659 
L 181.124007 158.820514 
L 181.231011 158.820514 
L 181.293067 166.941659 
L 181.51561 166.941659 
L 181.610036 175.062804 
L 181.679504 175.062804 
L 181.789456 166.941659 
L 182.118264 166.941659 
L 182.297883 183.183949 
L 182.314682 183.183949 
L 182.322038 191.305093 
L 182.37511 183.183949 
L 182.437691 175.062804 
L 182.468897 183.183949 
L 183.020942 183.183949 
L 183.087816 191.305093 
L 183.315239 191.305093 
L 183.530701 183.183949 
L 183.678587 183.183949 
L 183.894128 175.062804 
L 184.00739 175.062804 
L 184.117635 166.941659 
L 184.549627 166.941659 
L 184.568626 175.062804 
L 184.610501 158.820514 
L 184.637555 158.820514 
L 185.24173 158.820514 
L 185.364129 150.699369 
L 185.571094 150.699369 
L 185.658024 142.578225 
L 185.671302 150.699369 
L 185.752919 150.699369 
L 185.863993 158.820514 
L 185.868334 150.699369 
L 185.963227 158.820514 
L 186.015994 158.820514 
L 186.084814 166.941659 
L 186.090954 158.820514 
L 186.180932 158.820514 
L 186.25205 166.941659 
L 186.304879 166.941659 
L 186.362362 150.699369 
L 186.415917 158.820514 
L 186.570701 158.820514 
L 186.590095 150.699369 
L 186.677181 158.820514 
L 186.76281 150.699369 
L 186.915953 150.699369 
L 187.003618 158.820514 
L 187.023876 150.699369 
L 187.061204 142.578225 
L 187.180991 142.578225 
L 187.287457 158.820514 
L 187.599384 158.820514 
L 187.65797 175.062804 
L 187.71176 166.941659 
L 187.815712 166.941659 
L 187.842938 175.062804 
L 187.890988 166.941659 
L 188.029416 175.062804 
L 188.066361 175.062804 
L 188.171687 158.820514 
L 188.209178 158.820514 
L 188.33248 175.062804 
L 188.356601 175.062804 
L 188.377358 166.941659 
L 188.427482 175.062804 
L 188.521683 175.062804 
L 188.728824 150.699369 
L 188.746935 150.699369 
L 188.761255 142.578225 
L 188.813464 158.820514 
L 188.829017 158.820514 
L 188.952881 166.941659 
L 189.122984 166.941659 
L 189.16645 175.062804 
L 189.204818 166.941659 
L 189.385373 166.941659 
L 189.385792 175.062804 
L 189.512628 175.062804 
L 189.620378 158.820514 
L 189.693968 158.820514 
L 189.793875 166.941659 
L 190.084291 166.941659 
L 190.149198 158.820514 
L 190.309298 158.820514 
L 190.328382 150.699369 
L 190.374794 158.820514 
L 190.473609 158.820514 
L 190.562401 166.941659 
L 190.68849 166.941659 
L 190.770995 175.062804 
L 190.783911 166.941659 
L 190.806972 166.941659 
L 190.904505 175.062804 
L 190.92328 175.062804 
L 190.929641 183.183949 
L 191.033794 175.062804 
L 191.08698 166.941659 
L 191.277687 175.062804 
L 191.391359 142.578225 
L 191.48309 142.578225 
L 191.542251 158.820514 
L 191.606769 150.699369 
L 191.642816 150.699369 
L 191.75677 142.578225 
L 191.863675 142.578225 
L 191.891809 134.45708 
L 192.149988 150.699369 
L 192.231075 150.699369 
L 192.309766 166.941659 
L 192.377139 166.941659 
L 192.503174 183.183949 
L 192.578289 166.941659 
L 192.803987 166.941659 
L 192.924271 175.062804 
L 193.100946 175.062804 
L 193.149975 166.941659 
L 193.188396 175.062804 
L 193.233723 175.062804 
L 193.408412 183.183949 
L 193.514329 183.183949 
L 193.56069 175.062804 
L 193.68174 175.062804 
L 193.828135 191.305093 
L 194.377812 191.305093 
L 194.486723 183.183949 
L 194.687596 183.183949 
L 194.757398 191.305093 
L 194.769528 183.183949 
L 194.932977 183.183949 
L 194.946733 166.941659 
L 195.223388 166.941659 
L 195.293595 158.820514 
L 195.462099 158.820514 
L 195.499134 150.699369 
L 195.625979 150.699369 
L 195.710807 142.578225 
L 195.72925 150.699369 
L 195.756086 150.699369 
L 195.873849 142.578225 
L 195.88819 142.578225 
L 195.982997 158.820514 
L 196.13769 175.062804 
L 196.207493 175.062804 
L 196.251635 166.941659 
L 196.339907 175.062804 
L 196.555703 175.062804 
L 196.55759 183.183949 
L 196.799765 175.062804 
L 196.996267 175.062804 
L 197.345197 166.941659 
L 197.500316 166.941659 
L 197.565261 142.578225 
L 197.59847 150.699369 
L 197.743779 150.699369 
L 197.891426 175.062804 
L 198.06815 166.941659 
L 198.296959 166.941659 
L 198.510827 158.820514 
L 198.529537 175.062804 
L 198.574814 166.941659 
L 198.723057 175.062804 
L 198.792932 166.941659 
L 198.873474 166.941659 
L 198.961532 175.062804 
L 199.416259 175.062804 
L 199.478975 166.941659 
L 199.505805 175.062804 
L 199.56617 175.062804 
L 199.655949 166.941659 
L 199.667327 175.062804 
L 199.695452 175.062804 
L 199.740458 183.183949 
L 199.754427 166.941659 
L 199.854741 175.062804 
L 200.088411 183.183949 
L 200.097051 191.305093 
L 200.363981 191.305093 
L 200.556845 183.183949 
L 200.928781 183.183949 
L 201.423786 191.305093 
L 201.490164 183.183949 
L 201.68999 175.062804 
L 201.895141 158.820514 
L 202.04267 166.941659 
L 202.137229 166.941659 
L 202.228105 158.820514 
L 203.054833 183.183949 
L 204.365675 183.183949 
L 204.600217 191.305093 
L 207.545119 191.305093 
L 207.5693 183.183949 
L 207.748671 175.062804 
L 207.901208 183.183949 
L 208.223885 183.183949 
L 208.82893 191.305093 
L 216.521716 191.305093 
L 216.711955 183.183949 
L 216.753911 175.062804 
L 216.930478 183.183949 
L 217.411225 183.183949 
L 217.535166 191.305093 
L 226.319193 191.305093 
L 226.367117 183.183949 
L 226.537778 191.305093 
L 226.582836 183.183949 
L 226.864753 183.183949 
L 226.893985 191.305093 
L 227.396955 183.183949 
L 228.46342 183.183949 
L 228.516359 191.305093 
L 228.536166 183.183949 
L 228.591942 183.183949 
L 228.661713 175.062804 
L 228.692363 183.183949 
L 231.931647 183.183949 
L 232.303758 191.305093 
L 234.319097 191.305093 
L 234.506489 183.183949 
L 234.629629 191.305093 
L 245.05905 191.305093 
L 245.208333 183.183949 
L 245.44074 191.305093 
L 260.709335 191.305093 
L 261.03513 183.183949 
L 261.170903 183.183949 
L 261.209705 191.305093 
L 261.39049 183.183949 
L 261.926629 183.183949 
L 262.097537 175.062804 
L 262.178632 183.183949 
L 262.485457 183.183949 
L 262.658183 191.305093 
L 264.765309 191.305093 
L 265.075042 183.183949 
L 265.66139 183.183949 
L 266.010916 191.305093 
L 277.703883 191.305093 
L 277.883157 183.183949 
L 277.968092 166.941659 
L 278.139917 166.941659 
L 278.266558 175.062804 
L 279.184267 191.305093 
L 280.431189 191.305093 
L 280.737194 183.183949 
L 280.892035 183.183949 
L 280.976865 191.305093 
L 294.477208 191.305093 
L 294.716862 166.941659 
L 294.939691 191.305093 
L 295.075073 175.062804 
L 295.108563 183.183949 
L 295.196246 183.183949 
L 295.266507 175.062804 
L 295.465714 183.183949 
L 295.692002 166.941659 
L 295.792566 183.183949 
L 295.897031 175.062804 
L 296.15787 175.062804 
L 296.175939 166.941659 
L 296.266624 175.062804 
L 296.511735 166.941659 
L 296.643804 166.941659 
L 296.83684 183.183949 
L 296.982143 175.062804 
L 297.089469 166.941659 
L 297.214073 183.183949 
L 297.375932 175.062804 
L 297.467757 183.183949 
L 297.637438 183.183949 
L 297.818222 175.062804 
L 297.878048 175.062804 
L 298.209544 183.183949 
L 298.310511 175.062804 
L 298.461496 191.305093 
L 298.723393 191.305093 
L 298.896847 183.183949 
L 299.018232 183.183949 
L 299.087444 191.305093 
L 299.583581 183.183949 
L 299.59809 183.183949 
L 299.652865 175.062804 
L 299.684466 183.183949 
L 299.850613 183.183949 
L 299.960136 175.062804 
L 300.115364 183.183949 
L 300.456018 183.183949 
L 300.60804 175.062804 
L 300.746962 183.183949 
L 300.907409 158.820514 
L 301.135517 158.820514 
L 301.218118 142.578225 
L 301.322165 150.699369 
L 301.618583 175.062804 
L 301.717614 183.183949 
L 301.785412 183.183949 
L 301.797265 191.305093 
L 301.856029 183.183949 
L 302.09087 183.183949 
L 302.123951 191.305093 
L 302.187046 183.183949 
L 302.299637 175.062804 
L 302.38227 166.941659 
L 302.578032 183.183949 
L 302.740068 175.062804 
L 302.74295 166.941659 
L 302.963983 158.820514 
L 303.186995 183.183949 
L 303.423498 166.941659 
L 303.692324 191.305093 
L 303.84409 191.305093 
L 304.085476 183.183949 
L 304.110906 175.062804 
L 304.183427 183.183949 
L 304.939314 183.183949 
L 305.537024 191.305093 
L 312.422447 191.305093 
L 312.422447 191.305093 
" clip-path="url(#p2759e3981a)" style="fill: none; stroke: #000000; stroke-width: 1.5; stroke-linecap: square"/>
   </g>
   <g id="patch_8">
    <path d="M 44.103906 195.365666 
L 44.103906 106.033073 
" style="fill: none; stroke: #000000; stroke-width: 0.8; stroke-linejoin: miter; stroke-linecap: square"/>
   </g>
   <g id="patch_9">
    <path d="M 325.19952 195.365666 
L 325.19952 106.033073 
" style="fill: none; stroke: #000000; stroke-width: 0.8; stroke-linejoin: miter; stroke-linecap: square"/>
   </g>
   <g id="patch_10">
    <path d="M 44.103906 195.365666 
L 325.19952 195.365666 
" style="fill: none; stroke: #000000; stroke-width: 0.8; stroke-linejoin: miter; stroke-linecap: square"/>
   </g>
   <g id="patch_11">
    <path d="M 44.103906 106.033073 
L 325.19952 106.033073 
" style="fill: none; stroke: #000000; stroke-width: 0.8; stroke-linejoin: miter; stroke-linecap: square"/>
   </g>
  </g>
  <g id="axes_3">
   <g id="patch_12">
    <path d="M 44.103906 294.198739 
L 325.19952 294.198739 
L 325.19952 204.866146 
L 44.103906 204.866146 
z
" style="fill: #ffffff"/>
   </g>
   <g id="matplotlib.axis_5">
    <g id="xtick_19">
     <g id="line2d_27">
      <g>
       <use xlink:href="#mdd1982a16e" x="56.88098" y="294.198739" style="stroke: #000000; stroke-width: 0.8"/>
      </g>
     </g>
     <g id="text_9">
      <!-- 0 -->
      <g transform="translate(53.69973 308.796395) scale(0.1 -0.1)">
       <use xlink:href="#DejaVuSans-13"/>
      </g>
     </g>
    </g>
    <g id="xtick_20">
     <g id="line2d_28">
      <g>
       <use xlink:href="#mdd1982a16e" x="88.615957" y="294.198739" style="stroke: #000000; stroke-width: 0.8"/>
      </g>
     </g>
     <g id="text_10">
      <!-- 100 -->
      <g transform="translate(79.072207 308.796395) scale(0.1 -0.1)">
       <use xlink:href="#DejaVuSans-14"/>
       <use xlink:href="#DejaVuSans-13" transform="translate(63.625 0)"/>
       <use xlink:href="#DejaVuSans-13" transform="translate(127.25 0)"/>
      </g>
     </g>
    </g>
    <g id="xtick_21">
     <g id="line2d_29">
      <g>
       <use xlink:href="#mdd1982a16e" x="120.350935" y="294.198739" style="stroke: #000000; stroke-width: 0.8"/>
      </g>
     </g>
     <g id="text_11">
      <!-- 200 -->
      <g transform="translate(110.807185 308.796395) scale(0.1 -0.1)">
       <defs>
        <path id="DejaVuSans-15" d="M 1228 531 
L 3431 531 
L 3431 0 
L 469 0 
L 469 531 
Q 828 903 1448 1529 
Q 2069 2156 2228 2338 
Q 2531 2678 2651 2914 
Q 2772 3150 2772 3378 
Q 2772 3750 2511 3984 
Q 2250 4219 1831 4219 
Q 1534 4219 1204 4116 
Q 875 4013 500 3803 
L 500 4441 
Q 881 4594 1212 4672 
Q 1544 4750 1819 4750 
Q 2544 4750 2975 4387 
Q 3406 4025 3406 3419 
Q 3406 3131 3298 2873 
Q 3191 2616 2906 2266 
Q 2828 2175 2409 1742 
Q 1991 1309 1228 531 
z
" transform="scale(0.015625)"/>
       </defs>
       <use xlink:href="#DejaVuSans-15"/>
       <use xlink:href="#DejaVuSans-13" transform="translate(63.625 0)"/>
       <use xlink:href="#DejaVuSans-13" transform="translate(127.25 0)"/>
      </g>
     </g>
    </g>
    <g id="xtick_22">
     <g id="line2d_30">
      <g>
       <use xlink:href="#mdd1982a16e" x="152.085912" y="294.198739" style="stroke: #000000; stroke-width: 0.8"/>
      </g>
     </g>
     <g id="text_12">
      <!-- 300 -->
      <g transform="translate(142.542162 308.796395) scale(0.1 -0.1)">
       <defs>
        <path id="DejaVuSans-16" d="M 2597 2516 
Q 3050 2419 3304 2112 
Q 3559 1806 3559 1356 
Q 3559 666 3084 287 
Q 2609 -91 1734 -91 
Q 1441 -91 1130 -33 
Q 819 25 488 141 
L 488 750 
Q 750 597 1062 519 
Q 1375 441 1716 441 
Q 2309 441 2620 675 
Q 2931 909 2931 1356 
Q 2931 1769 2642 2001 
Q 2353 2234 1838 2234 
L 1294 2234 
L 1294 2753 
L 1863 2753 
Q 2328 2753 2575 2939 
Q 2822 3125 2822 3475 
Q 2822 3834 2567 4026 
Q 2313 4219 1838 4219 
Q 1578 4219 1281 4162 
Q 984 4106 628 3988 
L 628 4550 
Q 988 4650 1302 4700 
Q 1616 4750 1894 4750 
Q 2613 4750 3031 4423 
Q 3450 4097 3450 3541 
Q 3450 3153 3228 2886 
Q 3006 2619 2597 2516 
z
" transform="scale(0.015625)"/>
       </defs>
       <use xlink:href="#DejaVuSans-16"/>
       <use xlink:href="#DejaVuSans-13" transform="translate(63.625 0)"/>
       <use xlink:href="#DejaVuSans-13" transform="translate(127.25 0)"/>
      </g>
     </g>
    </g>
    <g id="xtick_23">
     <g id="line2d_31">
      <g>
       <use xlink:href="#mdd1982a16e" x="183.82089" y="294.198739" style="stroke: #000000; stroke-width: 0.8"/>
      </g>
     </g>
     <g id="text_13">
      <!-- 400 -->
      <g transform="translate(174.27714 308.796395) scale(0.1 -0.1)">
       <defs>
        <path id="DejaVuSans-17" d="M 2419 4116 
L 825 1625 
L 2419 1625 
L 2419 4116 
z
M 2253 4666 
L 3047 4666 
L 3047 1625 
L 3713 1625 
L 3713 1100 
L 3047 1100 
L 3047 0 
L 2419 0 
L 2419 1100 
L 313 1100 
L 313 1709 
L 2253 4666 
z
" transform="scale(0.015625)"/>
       </defs>
       <use xlink:href="#DejaVuSans-17"/>
       <use xlink:href="#DejaVuSans-13" transform="translate(63.625 0)"/>
       <use xlink:href="#DejaVuSans-13" transform="translate(127.25 0)"/>
      </g>
     </g>
    </g>
    <g id="xtick_24">
     <g id="line2d_32">
      <g>
       <use xlink:href="#mdd1982a16e" x="215.555867" y="294.198739" style="stroke: #000000; stroke-width: 0.8"/>
      </g>
     </g>
     <g id="text_14">
      <!-- 500 -->
      <g transform="translate(206.012117 308.796395) scale(0.1 -0.1)">
       <use xlink:href="#DejaVuSans-18"/>
       <use xlink:href="#DejaVuSans-13" transform="translate(63.625 0)"/>
       <use xlink:href="#DejaVuSans-13" transform="translate(127.25 0)"/>
      </g>
     </g>
    </g>
    <g id="xtick_25">
     <g id="line2d_33">
      <g>
       <use xlink:href="#mdd1982a16e" x="247.290845" y="294.198739" style="stroke: #000000; stroke-width: 0.8"/>
      </g>
     </g>
     <g id="text_15">
      <!-- 600 -->
      <g transform="translate(237.747095 308.796395) scale(0.1 -0.1)">
       <defs>
        <path id="DejaVuSans-19" d="M 2113 2584 
Q 1688 2584 1439 2293 
Q 1191 2003 1191 1497 
Q 1191 994 1439 701 
Q 1688 409 2113 409 
Q 2538 409 2786 701 
Q 3034 994 3034 1497 
Q 3034 2003 2786 2293 
Q 2538 2584 2113 2584 
z
M 3366 4563 
L 3366 3988 
Q 3128 4100 2886 4159 
Q 2644 4219 2406 4219 
Q 1781 4219 1451 3797 
Q 1122 3375 1075 2522 
Q 1259 2794 1537 2939 
Q 1816 3084 2150 3084 
Q 2853 3084 3261 2657 
Q 3669 2231 3669 1497 
Q 3669 778 3244 343 
Q 2819 -91 2113 -91 
Q 1303 -91 875 529 
Q 447 1150 447 2328 
Q 447 3434 972 4092 
Q 1497 4750 2381 4750 
Q 2619 4750 2861 4703 
Q 3103 4656 3366 4563 
z
" transform="scale(0.015625)"/>
       </defs>
       <use xlink:href="#DejaVuSans-19"/>
       <use xlink:href="#DejaVuSans-13" transform="translate(63.625 0)"/>
       <use xlink:href="#DejaVuSans-13" transform="translate(127.25 0)"/>
      </g>
     </g>
    </g>
    <g id="xtick_26">
     <g id="line2d_34">
      <g>
       <use xlink:href="#mdd1982a16e" x="279.025822" y="294.198739" style="stroke: #000000; stroke-width: 0.8"/>
      </g>
     </g>
     <g id="text_16">
      <!-- 700 -->
      <g transform="translate(269.482072 308.796395) scale(0.1 -0.1)">
       <defs>
        <path id="DejaVuSans-1a" d="M 525 4666 
L 3525 4666 
L 3525 4397 
L 1831 0 
L 1172 0 
L 2766 4134 
L 525 4134 
L 525 4666 
z
" transform="scale(0.015625)"/>
       </defs>
       <use xlink:href="#DejaVuSans-1a"/>
       <use xlink:href="#DejaVuSans-13" transform="translate(63.625 0)"/>
       <use xlink:href="#DejaVuSans-13" transform="translate(127.25 0)"/>
      </g>
     </g>
    </g>
    <g id="xtick_27">
     <g id="line2d_35">
      <g>
       <use xlink:href="#mdd1982a16e" x="310.7608" y="294.198739" style="stroke: #000000; stroke-width: 0.8"/>
      </g>
     </g>
     <g id="text_17">
      <!-- 800 -->
      <g transform="translate(301.21705 308.796395) scale(0.1 -0.1)">
       <defs>
        <path id="DejaVuSans-1b" d="M 2034 2216 
Q 1584 2216 1326 1975 
Q 1069 1734 1069 1313 
Q 1069 891 1326 650 
Q 1584 409 2034 409 
Q 2484 409 2743 651 
Q 3003 894 3003 1313 
Q 3003 1734 2745 1975 
Q 2488 2216 2034 2216 
z
M 1403 2484 
Q 997 2584 770 2862 
Q 544 3141 544 3541 
Q 544 4100 942 4425 
Q 1341 4750 2034 4750 
Q 2731 4750 3128 4425 
Q 3525 4100 3525 3541 
Q 3525 3141 3298 2862 
Q 3072 2584 2669 2484 
Q 3125 2378 3379 2068 
Q 3634 1759 3634 1313 
Q 3634 634 3220 271 
Q 2806 -91 2034 -91 
Q 1263 -91 848 271 
Q 434 634 434 1313 
Q 434 1759 690 2068 
Q 947 2378 1403 2484 
z
M 1172 3481 
Q 1172 3119 1398 2916 
Q 1625 2713 2034 2713 
Q 2441 2713 2670 2916 
Q 2900 3119 2900 3481 
Q 2900 3844 2670 4047 
Q 2441 4250 2034 4250 
Q 1625 4250 1398 4047 
Q 1172 3844 1172 3481 
z
" transform="scale(0.015625)"/>
       </defs>
       <use xlink:href="#DejaVuSans-1b"/>
       <use xlink:href="#DejaVuSans-13" transform="translate(63.625 0)"/>
       <use xlink:href="#DejaVuSans-13" transform="translate(127.25 0)"/>
      </g>
     </g>
    </g>
    <g id="text_18">
     <!-- Time -->
     <g transform="translate(172.415776 322.797176) scale(0.1 -0.1)">
      <defs>
       <path id="DejaVuSans-37" d="M -19 4666 
L 3928 4666 
L 3928 4134 
L 2272 4134 
L 2272 0 
L 1638 0 
L 1638 4134 
L -19 4134 
L -19 4666 
z
" transform="scale(0.015625)"/>
       <path id="DejaVuSans-4c" d="M 603 3500 
L 1178 3500 
L 1178 0 
L 603 0 
L 603 3500 
z
M 603 4863 
L 1178 4863 
L 1178 4134 
L 603 4134 
L 603 4863 
z
" transform="scale(0.015625)"/>
       <path id="DejaVuSans-50" d="M 3328 2828 
Q 3544 3216 3844 3400 
Q 4144 3584 4550 3584 
Q 5097 3584 5394 3201 
Q 5691 2819 5691 2113 
L 5691 0 
L 5113 0 
L 5113 2094 
Q 5113 2597 4934 2840 
Q 4756 3084 4391 3084 
Q 3944 3084 3684 2787 
Q 3425 2491 3425 1978 
L 3425 0 
L 2847 0 
L 2847 2094 
Q 2847 2600 2669 2842 
Q 2491 3084 2119 3084 
Q 1678 3084 1418 2786 
Q 1159 2488 1159 1978 
L 1159 0 
L 581 0 
L 581 3500 
L 1159 3500 
L 1159 2956 
Q 1356 3278 1631 3431 
Q 1906 3584 2284 3584 
Q 2666 3584 2933 3390 
Q 3200 3197 3328 2828 
z
" transform="scale(0.015625)"/>
      </defs>
      <use xlink:href="#DejaVuSans-37"/>
      <use xlink:href="#DejaVuSans-4c" transform="translate(58 0)"/>
      <use xlink:href="#DejaVuSans-50" transform="translate(85.78125 0)"/>
      <use xlink:href="#DejaVuSans-48" transform="translate(183.1875 0)"/>
     </g>
    </g>
   </g>
   <g id="matplotlib.axis_6">
    <g id="ytick_7">
     <g id="line2d_36">
      <g>
       <use xlink:href="#mbc2933df64" x="44.103906" y="290.138166" style="stroke: #000000; stroke-width: 0.8"/>
      </g>
     </g>
     <g id="text_19">
      <!-- 0.0 -->
      <g transform="translate(21.200781 293.936994) scale(0.1 -0.1)">
       <defs>
        <path id="DejaVuSans-11" d="M 684 794 
L 1344 794 
L 1344 0 
L 684 0 
L 684 794 
z
" transform="scale(0.015625)"/>
       </defs>
       <use xlink:href="#DejaVuSans-13"/>
       <use xlink:href="#DejaVuSans-11" transform="translate(63.625 0)"/>
       <use xlink:href="#DejaVuSans-13" transform="translate(95.40625 0)"/>
      </g>
     </g>
    </g>
    <g id="ytick_8">
     <g id="line2d_37">
      <g>
       <use xlink:href="#mbc2933df64" x="44.103906" y="249.532442" style="stroke: #000000; stroke-width: 0.8"/>
      </g>
     </g>
     <g id="text_20">
      <!-- 0.5 -->
      <g transform="translate(21.200781 253.33127) scale(0.1 -0.1)">
       <use xlink:href="#DejaVuSans-13"/>
       <use xlink:href="#DejaVuSans-11" transform="translate(63.625 0)"/>
       <use xlink:href="#DejaVuSans-18" transform="translate(95.40625 0)"/>
      </g>
     </g>
    </g>
    <g id="ytick_9">
     <g id="line2d_38">
      <g>
       <use xlink:href="#mbc2933df64" x="44.103906" y="208.926718" style="stroke: #000000; stroke-width: 0.8"/>
      </g>
     </g>
     <g id="text_21">
      <!-- 1.0 -->
      <g transform="translate(21.200781 212.725546) scale(0.1 -0.1)">
       <use xlink:href="#DejaVuSans-14"/>
       <use xlink:href="#DejaVuSans-11" transform="translate(63.625 0)"/>
       <use xlink:href="#DejaVuSans-13" transform="translate(95.40625 0)"/>
      </g>
     </g>
    </g>
    <g id="text_22">
     <!-- Free lac operon -->
     <g transform="translate(14.798438 288.006661) rotate(-90) scale(0.1 -0.1)">
      <defs>
       <path id="DejaVuSans-29" d="M 628 4666 
L 3309 4666 
L 3309 4134 
L 1259 4134 
L 1259 2759 
L 3109 2759 
L 3109 2228 
L 1259 2228 
L 1259 0 
L 628 0 
L 628 4666 
z
" transform="scale(0.015625)"/>
       <path id="DejaVuSans-53" d="M 1159 525 
L 1159 -1331 
L 581 -1331 
L 581 3500 
L 1159 3500 
L 1159 2969 
Q 1341 3281 1617 3432 
Q 1894 3584 2278 3584 
Q 2916 3584 3314 3078 
Q 3713 2572 3713 1747 
Q 3713 922 3314 415 
Q 2916 -91 2278 -91 
Q 1894 -91 1617 61 
Q 1341 213 1159 525 
z
M 3116 1747 
Q 3116 2381 2855 2742 
Q 2594 3103 2138 3103 
Q 1681 3103 1420 2742 
Q 1159 2381 1159 1747 
Q 1159 1113 1420 752 
Q 1681 391 2138 391 
Q 2594 391 2855 752 
Q 3116 1113 3116 1747 
z
" transform="scale(0.015625)"/>
       <path id="DejaVuSans-51" d="M 3513 2113 
L 3513 0 
L 2938 0 
L 2938 2094 
Q 2938 2591 2744 2837 
Q 2550 3084 2163 3084 
Q 1697 3084 1428 2787 
Q 1159 2491 1159 1978 
L 1159 0 
L 581 0 
L 581 3500 
L 1159 3500 
L 1159 2956 
Q 1366 3272 1645 3428 
Q 1925 3584 2291 3584 
Q 2894 3584 3203 3211 
Q 3513 2838 3513 2113 
z
" transform="scale(0.015625)"/>
      </defs>
      <use xlink:href="#DejaVuSans-29"/>
      <use xlink:href="#DejaVuSans-55" transform="translate(50.234375 0)"/>
      <use xlink:href="#DejaVuSans-48" transform="translate(89.140625 0)"/>
      <use xlink:href="#DejaVuSans-48" transform="translate(150.671875 0)"/>
      <use xlink:href="#DejaVuSans-3" transform="translate(212.203125 0)"/>
      <use xlink:href="#DejaVuSans-4f" transform="translate(243.984375 0)"/>
      <use xlink:href="#DejaVuSans-44" transform="translate(271.765625 0)"/>
      <use xlink:href="#DejaVuSans-46" transform="translate(333.046875 0)"/>
      <use xlink:href="#DejaVuSans-3" transform="translate(388.03125 0)"/>
      <use xlink:href="#DejaVuSans-52" transform="translate(419.8125 0)"/>
      <use xlink:href="#DejaVuSans-53" transform="translate(481 0)"/>
      <use xlink:href="#DejaVuSans-48" transform="translate(544.484375 0)"/>
      <use xlink:href="#DejaVuSans-55" transform="translate(606.015625 0)"/>
      <use xlink:href="#DejaVuSans-52" transform="translate(644.921875 0)"/>
      <use xlink:href="#DejaVuSans-51" transform="translate(706.109375 0)"/>
     </g>
    </g>
   </g>
   <g id="line2d_39">
    <path d="M 56.88098 208.926718 
L 56.962147 290.138166 
L 57.129716 290.138166 
L 57.298573 208.926718 
L 57.416236 208.926718 
L 57.517932 290.138166 
L 58.729021 290.138166 
L 59.714644 208.926718 
L 59.900192 208.926718 
L 59.92284 290.138166 
L 62.333961 290.138166 
L 64.917417 208.926718 
L 65.211055 208.926718 
L 65.347913 290.138166 
L 65.473249 290.138166 
L 72.107265 208.926718 
L 72.27633 290.138166 
L 80.082486 208.926718 
L 80.131314 290.138166 
L 82.746577 208.926718 
L 82.885969 208.926718 
L 82.939901 290.138166 
L 84.67281 290.138166 
L 84.737964 208.926718 
L 85.610514 208.926718 
L 85.799681 290.138166 
L 86.828113 290.138166 
L 89.807937 208.926718 
L 90.345637 208.926718 
L 90.374791 290.138166 
L 90.73117 290.138166 
L 91.608798 208.926718 
L 91.666995 290.138166 
L 92.009368 290.138166 
L 109.011273 208.926718 
L 109.024916 290.138166 
L 109.282276 290.138166 
L 109.557223 208.926718 
L 109.843349 290.138166 
L 109.97087 208.926718 
L 110.376875 208.926718 
L 110.580583 290.138166 
L 110.871971 290.138166 
L 115.016294 208.926718 
L 115.674088 290.138166 
L 117.309087 208.926718 
L 117.622967 290.138166 
L 118.292508 208.926718 
L 118.379458 290.138166 
L 119.38449 208.926718 
L 119.469035 290.138166 
L 123.394954 290.138166 
L 129.387985 208.926718 
L 129.493478 290.138166 
L 131.228277 208.926718 
L 131.677135 208.926718 
L 131.698484 290.138166 
L 133.530881 290.138166 
L 136.115387 208.926718 
L 136.128637 290.138166 
L 138.997336 208.926718 
L 139.039884 290.138166 
L 146.052966 208.926718 
L 146.993238 208.926718 
L 147.061258 290.138166 
L 147.675039 290.138166 
L 147.91902 208.926718 
L 148.232547 208.926718 
L 148.34481 290.138166 
L 149.410822 290.138166 
L 149.920057 208.926718 
L 150.020377 290.138166 
L 151.136658 290.138166 
L 151.14793 208.926718 
L 151.308774 290.138166 
L 155.598769 208.926718 
L 155.68732 290.138166 
L 155.935568 208.926718 
L 202.158914 208.926718 
L 202.228105 290.138166 
L 204.800114 290.138166 
L 207.5693 208.926718 
L 207.867303 208.926718 
L 207.901208 290.138166 
L 211.075549 290.138166 
L 216.521716 208.926718 
L 216.870756 208.926718 
L 216.930478 290.138166 
L 218.047432 290.138166 
L 224.004274 208.926718 
L 224.253918 290.138166 
L 226.367117 208.926718 
L 227.396955 208.926718 
L 227.817165 290.138166 
L 228.350922 290.138166 
L 228.536166 208.926718 
L 228.692363 208.926718 
L 228.868211 290.138166 
L 232.303758 290.138166 
L 233.768202 208.926718 
L 233.865437 290.138166 
L 234.319097 208.926718 
L 234.629629 208.926718 
L 234.798739 290.138166 
L 234.851699 208.926718 
L 234.903079 290.138166 
L 236.166359 290.138166 
L 245.05905 208.926718 
L 245.203742 208.926718 
L 245.208333 290.138166 
L 245.706269 290.138166 
L 256.635248 208.926718 
L 256.773083 290.138166 
L 258.996654 208.926718 
L 259.33033 290.138166 
L 260.541734 208.926718 
L 260.565997 290.138166 
L 260.709335 208.926718 
L 262.052076 208.926718 
L 262.056504 290.138166 
L 262.121938 208.926718 
L 262.178632 208.926718 
L 262.485457 290.138166 
L 262.658183 290.138166 
L 264.765309 208.926718 
L 265.061992 208.926718 
L 265.075042 290.138166 
L 266.010916 290.138166 
L 277.315961 208.926718 
L 277.450169 290.138166 
L 277.703883 208.926718 
L 278.018665 208.926718 
L 278.139917 290.138166 
L 279.184267 290.138166 
L 280.431189 208.926718 
L 280.641507 208.926718 
L 280.737194 290.138166 
L 280.900657 208.926718 
L 280.976865 290.138166 
L 281.59896 208.926718 
L 281.91731 290.138166 
L 287.987838 208.926718 
L 288.227727 290.138166 
L 292.659775 208.926718 
L 292.680167 290.138166 
L 294.550068 208.926718 
L 304.168044 208.926718 
L 304.183427 290.138166 
L 305.537024 290.138166 
L 312.422447 208.926718 
L 312.422447 208.926718 
" clip-path="url(#pd05922e675)" style="fill: none; stroke: #000000; stroke-width: 1.5; stroke-linecap: square"/>
   </g>
   <g id="patch_13">
    <path d="M 44.103906 294.198739 
L 44.103906 204.866146 
" style="fill: none; stroke: #000000; stroke-width: 0.8; stroke-linejoin: miter; stroke-linecap: square"/>
   </g>
   <g id="patch_14">
    <path d="M 325.19952 294.198739 
L 325.19952 204.866146 
" style="fill: none; stroke: #000000; stroke-width: 0.8; stroke-linejoin: miter; stroke-linecap: square"/>
   </g>
   <g id="patch_15">
    <path d="M 44.103906 294.198739 
L 325.19952 294.198739 
" style="fill: none; stroke: #000000; stroke-width: 0.8; stroke-linejoin: miter; stroke-linecap: square"/>
   </g>
   <g id="patch_16">
    <path d="M 44.103906 204.866146 
L 325.19952 204.866146 
" style="fill: none; stroke: #000000; stroke-width: 0.8; stroke-linejoin: miter; stroke-linecap: square"/>
   </g>
  </g>
 </g>
 <defs>
  <clipPath id="p17d75f370f">
   <rect x="44.103906" y="7.2" width="281.095614" height="89.332593"/>
  </clipPath>
  <clipPath id="p2759e3981a">
   <rect x="44.103906" y="106.033073" width="281.095614" height="89.332593"/>
  </clipPath>
  <clipPath id="pd05922e675">
   <rect x="44.103906" y="204.866146" width="281.095614" height="89.332593"/>
  </clipPath>
 </defs>
</svg>
