<?xml version="1.0" encoding="utf-8" standalone="no"?>
<!DOCTYPE svg PUBLIC "-//W3C//DTD SVG 1.1//EN"
  "http://www.w3.org/Graphics/SVG/1.1/DTD/svg11.dtd">
<svg xmlns:xlink="http://www.w3.org/1999/xlink" width="332.39952pt" height="338.705099pt" viewBox="0 0 332.39952 338.705099" xmlns="http://www.w3.org/2000/svg" version="1.1">
 <metadata>
  <rdf:RDF xmlns:dc="http://purl.org/dc/elements/1.1/" xmlns:cc="http://creativecommons.org/ns#" xmlns:rdf="http://www.w3.org/1999/02/22-rdf-syntax-ns#">
   <cc:Work>
    <dc:type rdf:resource="http://purl.org/dc/dcmitype/StillImage"/>
    <dc:date>2026-07-21T19:31:47.895214</dc:date>
    <dc:format>image/svg+xml</dc:format>
    <dc:creator>
     <cc:Agent>
      <dc:title>Matplotlib v3.11.1, https://matplotlib.org/</dc:title>
     </cc:Agent>
    </dc:creator>
   </cc:Work>
  </rdf:RDF>
 </metadata>
 <defs>
  <style type="text/css">*{stroke-linejoin: round; stroke-linecap: butt}</style>
 </defs>
 <g id="figure_1">
  <g id="patch_1">
   <path d="M 0 338.705099 
L 332.39952 338.705099 
L 332.39952 0 
L 0 0 
z
" style="fill: #ffffff"/>
  </g>
  <g id="axes_1">
   <g id="patch_2">
    <path d="M 44.103906 102.838171 
L 325.19952 102.838171 
L 325.19952 13.505579 
L 44.103906 13.505579 
z
" style="fill: #ffffff"/>
   </g>
   <g id="matplotlib.axis_1">
    <g id="xtick_1">
     <g id="line2d_1">
      <defs>
       <path id="m2c54d00970" d="M 0 0 
L 0 3.5 
" style="stroke: #000000; stroke-width: 0.8"/>
      </defs>
      <g>
       <use xlink:href="#m2c54d00970" x="56.88098" y="102.838171" style="stroke: #000000; stroke-width: 0.8"/>
      </g>
     </g>
    </g>
    <g id="xtick_2">
     <g id="line2d_2">
      <g>
       <use xlink:href="#m2c54d00970" x="88.695172" y="102.838171" style="stroke: #000000; stroke-width: 0.8"/>
      </g>
     </g>
    </g>
    <g id="xtick_3">
     <g id="line2d_3">
      <g>
       <use xlink:href="#m2c54d00970" x="120.509364" y="102.838171" style="stroke: #000000; stroke-width: 0.8"/>
      </g>
     </g>
    </g>
    <g id="xtick_4">
     <g id="line2d_4">
      <g>
       <use xlink:href="#m2c54d00970" x="152.323556" y="102.838171" style="stroke: #000000; stroke-width: 0.8"/>
      </g>
     </g>
    </g>
    <g id="xtick_5">
     <g id="line2d_5">
      <g>
       <use xlink:href="#m2c54d00970" x="184.137748" y="102.838171" style="stroke: #000000; stroke-width: 0.8"/>
      </g>
     </g>
    </g>
    <g id="xtick_6">
     <g id="line2d_6">
      <g>
       <use xlink:href="#m2c54d00970" x="215.95194" y="102.838171" style="stroke: #000000; stroke-width: 0.8"/>
      </g>
     </g>
    </g>
    <g id="xtick_7">
     <g id="line2d_7">
      <g>
       <use xlink:href="#m2c54d00970" x="247.766132" y="102.838171" style="stroke: #000000; stroke-width: 0.8"/>
      </g>
     </g>
    </g>
    <g id="xtick_8">
     <g id="line2d_8">
      <g>
       <use xlink:href="#m2c54d00970" x="279.580324" y="102.838171" style="stroke: #000000; stroke-width: 0.8"/>
      </g>
     </g>
    </g>
    <g id="xtick_9">
     <g id="line2d_9">
      <g>
       <use xlink:href="#m2c54d00970" x="311.394516" y="102.838171" style="stroke: #000000; stroke-width: 0.8"/>
      </g>
     </g>
    </g>
   </g>
   <g id="matplotlib.axis_2">
    <g id="ytick_1">
     <g id="line2d_10">
      <defs>
       <path id="me27cd8281a" d="M 0 0 
L -3.5 0 
" style="stroke: #000000; stroke-width: 0.8"/>
      </defs>
      <g>
       <use xlink:href="#me27cd8281a" x="44.103906" y="98.777599" style="stroke: #000000; stroke-width: 0.8"/>
      </g>
     </g>
     <g id="text_1">
      <!-- 0 -->
      <g transform="translate(30.741406 102.576427) scale(0.1 -0.1)">
       <defs>
        <path id="DejaVuSans-13" d="M 2034 4250 
Q 1547 4250 1301 3770 
Q 1056 3291 1056 2328 
Q 1056 1369 1301 889 
Q 1547 409 2034 409 
Q 2525 409 2770 889 
Q 3016 1369 3016 2328 
Q 3016 3291 2770 3770 
Q 2525 4250 2034 4250 
z
M 2034 4750 
Q 2819 4750 3233 4129 
Q 3647 3509 3647 2328 
Q 3647 1150 3233 529 
Q 2819 -91 2034 -91 
Q 1250 -91 836 529 
Q 422 1150 422 2328 
Q 422 3509 836 4129 
Q 1250 4750 2034 4750 
z
" transform="scale(0.015625)"/>
       </defs>
       <use xlink:href="#DejaVuSans-13"/>
      </g>
     </g>
    </g>
    <g id="ytick_2">
     <g id="line2d_11">
      <g>
       <use xlink:href="#me27cd8281a" x="44.103906" y="58.171875" style="stroke: #000000; stroke-width: 0.8"/>
      </g>
     </g>
     <g id="text_2">
      <!-- 5 -->
      <g transform="translate(30.741406 61.970703) scale(0.1 -0.1)">
       <defs>
        <path id="DejaVuSans-18" d="M 691 4666 
L 3169 4666 
L 3169 4134 
L 1269 4134 
L 1269 2991 
Q 1406 3038 1543 3061 
Q 1681 3084 1819 3084 
Q 2600 3084 3056 2656 
Q 3513 2228 3513 1497 
Q 3513 744 3044 326 
Q 2575 -91 1722 -91 
Q 1428 -91 1123 -41 
Q 819 9 494 109 
L 494 744 
Q 775 591 1075 516 
Q 1375 441 1709 441 
Q 2250 441 2565 725 
Q 2881 1009 2881 1497 
Q 2881 1984 2565 2268 
Q 2250 2553 1709 2553 
Q 1456 2553 1204 2497 
Q 953 2441 691 2322 
L 691 4666 
z
" transform="scale(0.015625)"/>
       </defs>
       <use xlink:href="#DejaVuSans-18"/>
      </g>
     </g>
    </g>
    <g id="ytick_3">
     <g id="line2d_12">
      <g>
       <use xlink:href="#me27cd8281a" x="44.103906" y="17.566151" style="stroke: #000000; stroke-width: 0.8"/>
      </g>
     </g>
     <g id="text_3">
      <!-- 10 -->
      <g transform="translate(24.378906 21.364979) scale(0.1 -0.1)">
       <defs>
        <path id="DejaVuSans-14" d="M 794 531 
L 1825 531 
L 1825 4091 
L 703 3866 
L 703 4441 
L 1819 4666 
L 2450 4666 
L 2450 531 
L 3481 531 
L 3481 0 
L 794 0 
L 794 531 
z
" transform="scale(0.015625)"/>
       </defs>
       <use xlink:href="#DejaVuSans-14"/>
       <use xlink:href="#DejaVuSans-13" transform="translate(63.625 0)"/>
      </g>
     </g>
    </g>
    <g id="text_4">
     <!-- Extracellular lactose -->
     <g transform="translate(17.976563 109.14375) rotate(-90) scale(0.1 -0.1)">
      <defs>
       <path id="DejaVuSans-28" d="M 628 4666 
L 3578 4666 
L 3578 4134 
L 1259 4134 
L 1259 2753 
L 3481 2753 
L 3481 2222 
L 1259 2222 
L 1259 531 
L 3634 531 
L 3634 0 
L 628 0 
L 628 4666 
z
" transform="scale(0.015625)"/>
       <path id="DejaVuSans-5b" d="M 3513 3500 
L 2247 1797 
L 3578 0 
L 2900 0 
L 1881 1375 
L 863 0 
L 184 0 
L 1544 1831 
L 300 3500 
L 978 3500 
L 1906 2253 
L 2834 3500 
L 3513 3500 
z
" transform="scale(0.015625)"/>
       <path id="DejaVuSans-57" d="M 1172 4494 
L 1172 3500 
L 2356 3500 
L 2356 3053 
L 1172 3053 
L 1172 1153 
Q 1172 725 1289 603 
Q 1406 481 1766 481 
L 2356 481 
L 2356 0 
L 1766 0 
Q 1100 0 847 248 
Q 594 497 594 1153 
L 594 3053 
L 172 3053 
L 172 3500 
L 594 3500 
L 594 4494 
L 1172 4494 
z
" transform="scale(0.015625)"/>
       <path id="DejaVuSans-55" d="M 2631 2963 
Q 2534 3019 2420 3045 
Q 2306 3072 2169 3072 
Q 1681 3072 1420 2755 
Q 1159 2438 1159 1844 
L 1159 0 
L 581 0 
L 581 3500 
L 1159 3500 
L 1159 2956 
Q 1341 3275 1631 3429 
Q 1922 3584 2338 3584 
Q 2397 3584 2469 3576 
Q 2541 3569 2628 3553 
L 2631 2963 
z
" transform="scale(0.015625)"/>
       <path id="DejaVuSans-44" d="M 2194 1759 
Q 1497 1759 1228 1600 
Q 959 1441 959 1056 
Q 959 750 1161 570 
Q 1363 391 1709 391 
Q 2188 391 2477 730 
Q 2766 1069 2766 1631 
L 2766 1759 
L 2194 1759 
z
M 3341 1997 
L 3341 0 
L 2766 0 
L 2766 531 
Q 2569 213 2275 61 
Q 1981 -91 1556 -91 
Q 1019 -91 701 211 
Q 384 513 384 1019 
Q 384 1609 779 1909 
Q 1175 2209 1959 2209 
L 2766 2209 
L 2766 2266 
Q 2766 2663 2505 2880 
Q 2244 3097 1772 3097 
Q 1472 3097 1187 3025 
Q 903 2953 641 2809 
L 641 3341 
Q 956 3463 1253 3523 
Q 1550 3584 1831 3584 
Q 2591 3584 2966 3190 
Q 3341 2797 3341 1997 
z
" transform="scale(0.015625)"/>
       <path id="DejaVuSans-46" d="M 3122 3366 
L 3122 2828 
Q 2878 2963 2633 3030 
Q 2388 3097 2138 3097 
Q 1578 3097 1268 2742 
Q 959 2388 959 1747 
Q 959 1106 1268 751 
Q 1578 397 2138 397 
Q 2388 397 2633 464 
Q 2878 531 3122 666 
L 3122 134 
Q 2881 22 2623 -34 
Q 2366 -91 2075 -91 
Q 1284 -91 818 406 
Q 353 903 353 1747 
Q 353 2603 823 3093 
Q 1294 3584 2113 3584 
Q 2378 3584 2631 3529 
Q 2884 3475 3122 3366 
z
" transform="scale(0.015625)"/>
       <path id="DejaVuSans-48" d="M 3597 1894 
L 3597 1613 
L 953 1613 
Q 991 1019 1311 708 
Q 1631 397 2203 397 
Q 2534 397 2845 478 
Q 3156 559 3463 722 
L 3463 178 
Q 3153 47 2828 -22 
Q 2503 -91 2169 -91 
Q 1331 -91 842 396 
Q 353 884 353 1716 
Q 353 2575 817 3079 
Q 1281 3584 2069 3584 
Q 2775 3584 3186 3129 
Q 3597 2675 3597 1894 
z
M 3022 2063 
Q 3016 2534 2758 2815 
Q 2500 3097 2075 3097 
Q 1594 3097 1305 2825 
Q 1016 2553 972 2059 
L 3022 2063 
z
" transform="scale(0.015625)"/>
       <path id="DejaVuSans-4f" d="M 603 4863 
L 1178 4863 
L 1178 0 
L 603 0 
L 603 4863 
z
" transform="scale(0.015625)"/>
       <path id="DejaVuSans-58" d="M 544 1381 
L 544 3500 
L 1119 3500 
L 1119 1403 
Q 1119 906 1312 657 
Q 1506 409 1894 409 
Q 2359 409 2629 706 
Q 2900 1003 2900 1516 
L 2900 3500 
L 3475 3500 
L 3475 0 
L 2900 0 
L 2900 538 
Q 2691 219 2414 64 
Q 2138 -91 1772 -91 
Q 1169 -91 856 284 
Q 544 659 544 1381 
z
M 1991 3584 
L 1991 3584 
z
" transform="scale(0.015625)"/>
       <path id="DejaVuSans-3" transform="scale(0.015625)"/>
       <path id="DejaVuSans-52" d="M 1959 3097 
Q 1497 3097 1228 2736 
Q 959 2375 959 1747 
Q 959 1119 1226 758 
Q 1494 397 1959 397 
Q 2419 397 2687 759 
Q 2956 1122 2956 1747 
Q 2956 2369 2687 2733 
Q 2419 3097 1959 3097 
z
M 1959 3584 
Q 2709 3584 3137 3096 
Q 3566 2609 3566 1747 
Q 3566 888 3137 398 
Q 2709 -91 1959 -91 
Q 1206 -91 779 398 
Q 353 888 353 1747 
Q 353 2609 779 3096 
Q 1206 3584 1959 3584 
z
" transform="scale(0.015625)"/>
       <path id="DejaVuSans-56" d="M 2834 3397 
L 2834 2853 
Q 2591 2978 2328 3040 
Q 2066 3103 1784 3103 
Q 1356 3103 1142 2972 
Q 928 2841 928 2578 
Q 928 2378 1081 2264 
Q 1234 2150 1697 2047 
L 1894 2003 
Q 2506 1872 2764 1633 
Q 3022 1394 3022 966 
Q 3022 478 2636 193 
Q 2250 -91 1575 -91 
Q 1294 -91 989 -36 
Q 684 19 347 128 
L 347 722 
Q 666 556 975 473 
Q 1284 391 1588 391 
Q 1994 391 2212 530 
Q 2431 669 2431 922 
Q 2431 1156 2273 1281 
Q 2116 1406 1581 1522 
L 1381 1569 
Q 847 1681 609 1914 
Q 372 2147 372 2553 
Q 372 3047 722 3315 
Q 1072 3584 1716 3584 
Q 2034 3584 2315 3537 
Q 2597 3491 2834 3397 
z
" transform="scale(0.015625)"/>
      </defs>
      <use xlink:href="#DejaVuSans-28"/>
      <use xlink:href="#DejaVuSans-5b" transform="translate(63.1875 0)"/>
      <use xlink:href="#DejaVuSans-57" transform="translate(122.375 0)"/>
      <use xlink:href="#DejaVuSans-55" transform="translate(161.578125 0)"/>
      <use xlink:href="#DejaVuSans-44" transform="translate(202.6875 0)"/>
      <use xlink:href="#DejaVuSans-46" transform="translate(263.96875 0)"/>
      <use xlink:href="#DejaVuSans-48" transform="translate(318.953125 0)"/>
      <use xlink:href="#DejaVuSans-4f" transform="translate(380.484375 0)"/>
      <use xlink:href="#DejaVuSans-4f" transform="translate(408.265625 0)"/>
      <use xlink:href="#DejaVuSans-58" transform="translate(436.046875 0)"/>
      <use xlink:href="#DejaVuSans-4f" transform="translate(499.421875 0)"/>
      <use xlink:href="#DejaVuSans-44" transform="translate(527.203125 0)"/>
      <use xlink:href="#DejaVuSans-55" transform="translate(588.484375 0)"/>
      <use xlink:href="#DejaVuSans-3" transform="translate(629.59375 0)"/>
      <use xlink:href="#DejaVuSans-4f" transform="translate(661.375 0)"/>
      <use xlink:href="#DejaVuSans-44" transform="translate(689.15625 0)"/>
      <use xlink:href="#DejaVuSans-46" transform="translate(750.4375 0)"/>
      <use xlink:href="#DejaVuSans-57" transform="translate(805.421875 0)"/>
      <use xlink:href="#DejaVuSans-52" transform="translate(844.625 0)"/>
      <use xlink:href="#DejaVuSans-56" transform="translate(905.8125 0)"/>
      <use xlink:href="#DejaVuSans-48" transform="translate(957.90625 0)"/>
     </g>
    </g>
   </g>
   <g id="line2d_13">
    <path d="M 56.88098 98.777599 
L 155.845181 98.777599 
L 155.933953 17.566151 
L 156.599505 17.647362 
L 156.716763 17.972208 
L 156.761414 18.05342 
L 156.907075 19.515226 
L 157.024984 21.139455 
L 157.038762 21.220666 
L 157.181751 22.926107 
L 157.205214 23.007318 
L 157.712934 26.49941 
L 157.983593 26.905467 
L 158.04267 26.986679 
L 158.151447 27.06789 
L 158.600398 27.149102 
L 158.696904 27.555159 
L 158.936823 27.961216 
L 159.036917 28.367274 
L 159.11674 28.448485 
L 159.232258 29.016965 
L 159.239205 29.098177 
L 159.347459 29.991503 
L 159.444036 30.884828 
L 159.780241 32.265423 
L 159.825866 32.346635 
L 160.082094 33.808441 
L 160.200201 34.945401 
L 160.477753 37.381744 
L 160.49042 37.462956 
L 160.621548 38.437493 
L 160.654179 38.518705 
L 160.757673 39.005973 
L 161.329446 41.523528 
L 161.477476 41.60474 
L 161.634909 42.092008 
L 161.788063 42.254431 
L 162.246673 42.335643 
L 162.397807 42.822911 
L 162.422465 42.904123 
L 162.582524 43.391391 
L 162.695307 43.87866 
L 162.971005 45.01562 
L 163.072284 45.096832 
L 163.685129 47.695598 
L 163.802693 48.101655 
L 163.895262 48.182867 
L 164.049561 48.426501 
L 164.143715 48.507713 
L 164.236899 48.91377 
L 164.318685 48.994981 
L 164.444597 49.48225 
L 164.742979 49.563462 
L 164.984979 50.375576 
L 165.064128 50.456787 
L 165.18821 51.025268 
L 165.215129 51.106479 
L 165.431565 52.405862 
L 165.560508 53.055554 
L 165.681181 53.136765 
L 166.073818 54.760994 
L 166.099052 54.842206 
L 166.186437 55.248263 
L 166.285529 55.329474 
L 166.393386 56.060377 
L 166.406355 56.141589 
L 166.588457 57.034915 
L 166.642802 57.116126 
L 167.629055 59.55247 
L 167.661216 59.633681 
L 167.789028 59.796104 
L 167.941593 59.877315 
L 168.081088 60.445796 
L 168.136978 60.527007 
L 168.231809 60.770641 
L 168.277611 60.851853 
L 168.398218 61.095487 
L 168.458411 61.176699 
L 168.601652 61.582756 
L 168.792658 61.663967 
L 168.957904 62.232447 
L 168.997916 62.313659 
L 169.104696 62.557293 
L 169.149821 62.638505 
L 169.300419 63.450619 
L 169.609894 65.074848 
L 169.629534 65.15606 
L 169.898572 66.942711 
L 169.956276 67.023923 
L 170.100012 67.186346 
L 170.401711 67.267557 
L 170.63313 67.836037 
L 170.819656 67.917249 
L 171.083494 68.485729 
L 171.10078 68.56694 
L 171.374709 68.972998 
L 171.467272 69.054209 
L 171.746519 69.216632 
L 171.782735 69.297843 
L 173.511475 74.901433 
L 173.603413 74.982645 
L 173.659803 75.469913 
L 173.759645 75.551125 
L 173.939542 76.363239 
L 173.947603 76.444451 
L 174.054164 77.094142 
L 174.075107 77.175354 
L 174.188495 77.743834 
L 174.324394 78.718371 
L 174.436129 79.368063 
L 174.47136 79.449274 
L 174.661773 80.423812 
L 174.752439 80.505023 
L 174.881208 80.829869 
L 174.994468 80.91108 
L 175.023297 80.992292 
L 175.603886 82.535309 
L 175.659477 82.616521 
L 175.79407 82.778944 
L 176.272287 82.860155 
L 176.346641 82.941367 
L 176.757683 83.022578 
L 176.887933 83.185001 
L 176.974509 83.266212 
L 177.251528 83.915904 
L 177.28382 83.997115 
L 177.506333 84.321961 
L 177.534672 84.403173 
L 178.142491 85.37771 
L 178.231613 85.458922 
L 178.340253 85.783767 
L 178.457542 86.108613 
L 178.596783 86.189825 
L 178.715865 86.271036 
L 178.82856 86.352247 
L 179.722605 86.433459 
L 179.815058 86.595882 
L 179.913723 86.677093 
L 179.975174 86.839516 
L 180.083946 86.920728 
L 181.034045 87.895265 
L 181.170472 88.057688 
L 181.356911 88.301322 
L 181.614135 88.382534 
L 181.758841 88.626168 
L 182.525538 88.707379 
L 182.589494 88.869802 
L 183.707193 88.951014 
L 184.003849 89.194648 
L 184.130834 89.27586 
L 184.398865 89.519494 
L 184.510722 89.84434 
L 184.887309 89.925551 
L 184.927825 90.006763 
L 185.667179 90.575243 
L 186.174956 90.656454 
L 186.279693 90.818877 
L 186.946462 90.900089 
L 187.180318 91.143723 
L 187.439149 91.224934 
L 187.548491 91.306146 
L 187.801225 91.387357 
L 188.194784 91.630992 
L 188.91316 91.955837 
L 189.50732 92.037049 
L 189.662344 92.11826 
L 189.909543 92.199472 
L 190.041409 92.443106 
L 190.125524 92.524318 
L 190.229771 92.605529 
L 190.299181 92.68674 
L 190.430046 92.930375 
L 190.777756 93.011586 
L 191.176403 93.336432 
L 191.305549 93.417643 
L 191.655622 93.661278 
L 191.879821 93.823701 
L 192.291099 93.904912 
L 192.575834 93.986124 
L 193.203239 94.067335 
L 193.579725 94.310969 
L 194.123698 94.392181 
L 194.271659 94.554604 
L 194.338784 94.635815 
L 194.517716 94.717027 
L 194.663298 94.960661 
L 194.888788 95.041872 
L 195.002259 95.204295 
L 195.50717 95.285507 
L 195.650788 95.366718 
L 195.996245 95.44793 
L 196.197776 95.610353 
L 196.370261 95.691564 
L 199.851564 95.772775 
L 200.191717 96.01641 
L 201.564534 96.097621 
L 201.686355 96.178833 
L 203.71027 96.260044 
L 204.434501 96.341256 
L 226.261554 96.422467 
L 226.894798 96.58489 
L 229.615041 96.666101 
L 235.010199 96.828524 
L 265.241387 96.909736 
L 266.162363 96.990947 
L 295.598391 97.072159 
L 295.769155 97.234582 
L 312.422447 97.234582 
L 312.422447 97.234582 
" clip-path="url(#p26c9236d43)" style="fill: none; stroke: #000000; stroke-width: 1.5; stroke-linecap: square"/>
   </g>
   <g id="patch_3">
    <path d="M 44.103906 102.838171 
L 44.103906 13.505579 
" style="fill: none; stroke: #000000; stroke-width: 0.8; stroke-linejoin: miter; stroke-linecap: square"/>
   </g>
   <g id="patch_4">
    <path d="M 325.19952 102.838171 
L 325.19952 13.505579 
" style="fill: none; stroke: #000000; stroke-width: 0.8; stroke-linejoin: miter; stroke-linecap: square"/>
   </g>
   <g id="patch_5">
    <path d="M 44.103906 102.838171 
L 325.19952 102.838171 
" style="fill: none; stroke: #000000; stroke-width: 0.8; stroke-linejoin: miter; stroke-linecap: square"/>
   </g>
   <g id="patch_6">
    <path d="M 44.103906 13.505579 
L 325.19952 13.505579 
" style="fill: none; stroke: #000000; stroke-width: 0.8; stroke-linejoin: miter; stroke-linecap: square"/>
   </g>
  </g>
  <g id="axes_2">
   <g id="patch_7">
    <path d="M 44.103906 201.671244 
L 325.19952 201.671244 
L 325.19952 112.338651 
L 44.103906 112.338651 
z
" style="fill: #ffffff"/>
   </g>
   <g id="matplotlib.axis_3">
    <g id="xtick_10">
     <g id="line2d_14">
      <g>
       <use xlink:href="#m2c54d00970" x="56.88098" y="201.671244" style="stroke: #000000; stroke-width: 0.8"/>
      </g>
     </g>
    </g>
    <g id="xtick_11">
     <g id="line2d_15">
      <g>
       <use xlink:href="#m2c54d00970" x="88.695172" y="201.671244" style="stroke: #000000; stroke-width: 0.8"/>
      </g>
     </g>
    </g>
    <g id="xtick_12">
     <g id="line2d_16">
      <g>
       <use xlink:href="#m2c54d00970" x="120.509364" y="201.671244" style="stroke: #000000; stroke-width: 0.8"/>
      </g>
     </g>
    </g>
    <g id="xtick_13">
     <g id="line2d_17">
      <g>
       <use xlink:href="#m2c54d00970" x="152.323556" y="201.671244" style="stroke: #000000; stroke-width: 0.8"/>
      </g>
     </g>
    </g>
    <g id="xtick_14">
     <g id="line2d_18">
      <g>
       <use xlink:href="#m2c54d00970" x="184.137748" y="201.671244" style="stroke: #000000; stroke-width: 0.8"/>
      </g>
     </g>
    </g>
    <g id="xtick_15">
     <g id="line2d_19">
      <g>
       <use xlink:href="#m2c54d00970" x="215.95194" y="201.671244" style="stroke: #000000; stroke-width: 0.8"/>
      </g>
     </g>
    </g>
    <g id="xtick_16">
     <g id="line2d_20">
      <g>
       <use xlink:href="#m2c54d00970" x="247.766132" y="201.671244" style="stroke: #000000; stroke-width: 0.8"/>
      </g>
     </g>
    </g>
    <g id="xtick_17">
     <g id="line2d_21">
      <g>
       <use xlink:href="#m2c54d00970" x="279.580324" y="201.671244" style="stroke: #000000; stroke-width: 0.8"/>
      </g>
     </g>
    </g>
    <g id="xtick_18">
     <g id="line2d_22">
      <g>
       <use xlink:href="#m2c54d00970" x="311.394516" y="201.671244" style="stroke: #000000; stroke-width: 0.8"/>
      </g>
     </g>
    </g>
   </g>
   <g id="matplotlib.axis_4">
    <g id="ytick_4">
     <g id="line2d_23">
      <g>
       <use xlink:href="#me27cd8281a" x="44.103906" y="197.610672" style="stroke: #000000; stroke-width: 0.8"/>
      </g>
     </g>
     <g id="text_5">
      <!-- 0 -->
      <g transform="translate(30.741406 201.4095) scale(0.1 -0.1)">
       <use xlink:href="#DejaVuSans-13"/>
      </g>
     </g>
    </g>
    <g id="ytick_5">
     <g id="line2d_24">
      <g>
       <use xlink:href="#me27cd8281a" x="44.103906" y="157.004948" style="stroke: #000000; stroke-width: 0.8"/>
      </g>
     </g>
     <g id="text_6">
      <!-- 5 -->
      <g transform="translate(30.741406 160.803776) scale(0.1 -0.1)">
       <use xlink:href="#DejaVuSans-18"/>
      </g>
     </g>
    </g>
    <g id="ytick_6">
     <g id="line2d_25">
      <g>
       <use xlink:href="#me27cd8281a" x="44.103906" y="116.399224" style="stroke: #000000; stroke-width: 0.8"/>
      </g>
     </g>
     <g id="text_7">
      <!-- 10 -->
      <g transform="translate(24.378906 120.198052) scale(0.1 -0.1)">
       <use xlink:href="#DejaVuSans-14"/>
       <use xlink:href="#DejaVuSans-13" transform="translate(63.625 0)"/>
      </g>
     </g>
    </g>
    <g id="text_8">
     <!-- LacY -->
     <g transform="translate(17.976563 168.658073) rotate(-90) scale(0.1 -0.1)">
      <defs>
       <path id="DejaVuSans-2f" d="M 628 4666 
L 1259 4666 
L 1259 531 
L 3531 531 
L 3531 0 
L 628 0 
L 628 4666 
z
" transform="scale(0.015625)"/>
       <path id="DejaVuSans-3c" d="M -13 4666 
L 666 4666 
L 1959 2747 
L 3244 4666 
L 3922 4666 
L 2272 2222 
L 2272 0 
L 1638 0 
L 1638 2222 
L -13 4666 
z
" transform="scale(0.015625)"/>
      </defs>
      <use xlink:href="#DejaVuSans-2f"/>
      <use xlink:href="#DejaVuSans-44" transform="translate(55.71875 0)"/>
      <use xlink:href="#DejaVuSans-46" transform="translate(117 0)"/>
      <use xlink:href="#DejaVuSans-3c" transform="translate(171.984375 0)"/>
     </g>
    </g>
   </g>
   <g id="line2d_26">
    <path d="M 56.88098 116.399224 
L 56.908023 116.399224 
L 56.962349 124.520369 
L 57.070181 140.762658 
L 57.130337 148.883803 
L 57.281973 148.883803 
L 57.299615 140.762658 
L 57.519522 148.883803 
L 57.660948 148.883803 
L 57.831071 165.126093 
L 58.131042 181.368382 
L 58.196458 197.610672 
L 59.721717 197.610672 
L 59.887823 189.489527 
L 59.930432 197.610672 
L 64.937477 197.610672 
L 65.259434 189.489527 
L 65.369048 197.610672 
L 82.811141 197.610672 
L 83.004947 189.489527 
L 84.792719 197.610672 
L 84.807498 189.489527 
L 84.950262 181.368382 
L 84.954902 173.247238 
L 85.276068 181.368382 
L 85.502331 181.368382 
L 85.621594 197.610672 
L 85.682227 189.489527 
L 85.871866 189.489527 
L 86.009924 197.610672 
L 89.890127 197.610672 
L 90.278722 181.368382 
L 90.280019 173.247238 
L 90.777115 173.247238 
L 90.815664 189.489527 
L 91.585423 189.489527 
L 91.753825 181.368382 
L 92.097053 197.610672 
L 109.049703 197.610672 
L 109.155074 189.489527 
L 109.274412 189.489527 
L 109.413076 197.610672 
L 109.647353 197.610672 
L 109.68871 189.489527 
L 110.103389 189.489527 
L 110.45224 181.368382 
L 110.510408 189.489527 
L 110.685136 189.489527 
L 110.714624 197.610672 
L 119.447382 197.610672 
L 119.625263 189.489527 
L 121.719126 189.489527 
L 123.560981 197.610672 
L 131.305399 197.610672 
L 131.4911 189.489527 
L 131.777789 189.489527 
L 131.885238 197.610672 
L 136.207891 197.610672 
L 136.291367 189.489527 
L 136.313167 197.610672 
L 146.275551 197.610672 
L 146.535605 181.368382 
L 146.556374 189.489527 
L 146.585294 181.368382 
L 146.698063 173.247238 
L 146.703387 181.368382 
L 147.286359 181.368382 
L 147.901672 189.489527 
L 148.146262 189.489527 
L 148.460572 181.368382 
L 148.573115 181.368382 
L 149.641788 197.610672 
L 150.10057 197.610672 
L 150.152294 181.368382 
L 150.252865 181.368382 
L 150.405235 189.489527 
L 150.538551 189.489527 
L 151.079819 197.610672 
L 156.182821 197.610672 
L 156.609812 189.489527 
L 156.849379 157.004948 
L 157.13017 157.004948 
L 157.249915 173.247238 
L 157.299633 173.247238 
L 157.400229 165.126093 
L 157.486945 165.126093 
L 157.596421 181.368382 
L 157.624537 181.368382 
L 157.712934 189.489527 
L 158.058092 189.489527 
L 158.151447 197.610672 
L 158.549936 197.610672 
L 158.668509 189.489527 
L 158.816671 189.489527 
L 158.920467 181.368382 
L 159.087051 181.368382 
L 159.124463 173.247238 
L 159.184016 181.368382 
L 159.231488 181.368382 
L 159.335152 173.247238 
L 159.494234 173.247238 
L 159.618228 189.489527 
L 159.751247 189.489527 
L 159.873401 181.368382 
L 160.021439 181.368382 
L 160.170296 157.004948 
L 160.365857 157.004948 
L 160.477753 165.126093 
L 160.487698 165.126093 
L 160.53787 157.004948 
L 160.589996 165.126093 
L 160.612091 165.126093 
L 160.717387 157.004948 
L 160.724425 157.004948 
L 160.830625 173.247238 
L 161.138867 173.247238 
L 161.242233 181.368382 
L 161.317175 181.368382 
L 161.421969 189.489527 
L 161.538649 189.489527 
L 161.584852 181.368382 
L 161.634909 189.489527 
L 161.76643 189.489527 
L 161.880495 197.610672 
L 162.155244 197.610672 
L 162.294274 189.489527 
L 162.438237 189.489527 
L 162.582524 173.247238 
L 162.775619 173.247238 
L 162.889481 189.489527 
L 162.971005 189.489527 
L 163.123022 173.247238 
L 163.155531 181.368382 
L 163.187821 181.368382 
L 163.301112 173.247238 
L 163.380698 173.247238 
L 163.482027 181.368382 
L 163.645936 181.368382 
L 163.658402 165.126093 
L 163.748534 173.247238 
L 163.871167 181.368382 
L 164.162607 181.368382 
L 164.185133 173.247238 
L 164.189885 189.489527 
L 164.236899 189.489527 
L 164.756557 189.489527 
L 164.863402 181.368382 
L 165.068975 181.368382 
L 165.177361 173.247238 
L 165.329465 173.247238 
L 165.422155 165.126093 
L 165.435412 173.247238 
L 165.519736 173.247238 
L 165.597862 181.368382 
L 165.630741 173.247238 
L 165.669583 173.247238 
L 165.722053 181.368382 
L 165.77741 173.247238 
L 165.804607 173.247238 
L 165.914225 181.368382 
L 166.234407 181.368382 
L 166.35329 173.247238 
L 166.453075 173.247238 
L 166.501275 181.368382 
L 166.552391 173.247238 
L 166.766659 173.247238 
L 166.877362 165.126093 
L 166.938757 165.126093 
L 167.036133 173.247238 
L 167.076269 173.247238 
L 167.178884 189.489527 
L 167.386647 189.489527 
L 167.481333 181.368382 
L 167.677627 181.368382 
L 167.789028 197.610672 
L 168.005731 181.368382 
L 169.104696 181.368382 
L 169.228499 173.247238 
L 169.490848 173.247238 
L 169.61957 165.126093 
L 169.653275 165.126093 
L 169.700009 148.883803 
L 169.766475 157.004948 
L 169.808736 157.004948 
L 169.927511 173.247238 
L 169.995391 173.247238 
L 170.165307 189.489527 
L 170.362061 189.489527 
L 170.529387 173.247238 
L 170.547681 173.247238 
L 170.673169 189.489527 
L 170.812507 189.489527 
L 170.934723 173.247238 
L 170.977173 173.247238 
L 171.091138 181.368382 
L 171.133183 181.368382 
L 171.204463 189.489527 
L 171.345378 189.489527 
L 171.405439 181.368382 
L 171.445213 189.489527 
L 171.746519 189.489527 
L 171.874863 173.247238 
L 171.884756 173.247238 
L 171.981668 165.126093 
L 172.440167 165.126093 
L 172.442554 173.247238 
L 172.537766 165.126093 
L 172.636562 165.126093 
L 172.63815 157.004948 
L 172.732494 165.126093 
L 173.055675 165.126093 
L 173.133677 157.004948 
L 173.146816 173.247238 
L 173.162034 173.247238 
L 173.237678 173.247238 
L 173.326951 165.126093 
L 173.333476 173.247238 
L 173.449229 173.247238 
L 173.47737 181.368382 
L 173.536329 165.126093 
L 173.548859 165.126093 
L 173.82265 165.126093 
L 173.931442 157.004948 
L 173.980336 157.004948 
L 174.054164 140.762658 
L 174.091092 148.883803 
L 174.150573 148.883803 
L 174.262782 140.762658 
L 174.294001 140.762658 
L 174.325179 132.641513 
L 174.404791 140.762658 
L 174.528355 140.762658 
L 174.639037 165.126093 
L 174.692186 165.126093 
L 174.714753 173.247238 
L 174.752439 165.126093 
L 174.869554 165.126093 
L 174.96302 173.247238 
L 175.23539 173.247238 
L 175.301593 165.126093 
L 175.337798 173.247238 
L 175.377837 173.247238 
L 175.455431 165.126093 
L 175.462419 173.247238 
L 175.493896 173.247238 
L 175.519692 181.368382 
L 175.587328 165.126093 
L 175.603886 165.126093 
L 175.745945 181.368382 
L 175.933234 181.368382 
L 176.050144 189.489527 
L 176.170851 189.489527 
L 176.280337 173.247238 
L 176.345631 173.247238 
L 176.453173 181.368382 
L 176.573377 173.247238 
L 176.663285 173.247238 
L 176.772964 181.368382 
L 176.790212 181.368382 
L 176.887933 165.126093 
L 176.92992 165.126093 
L 177.038223 181.368382 
L 177.072042 181.368382 
L 177.192686 173.247238 
L 177.2397 173.247238 
L 177.347411 165.126093 
L 177.430592 165.126093 
L 177.534672 157.004948 
L 177.576539 157.004948 
L 177.638681 140.762658 
L 177.6708 148.883803 
L 177.696112 148.883803 
L 177.79165 157.004948 
L 177.827216 157.004948 
L 177.907075 173.247238 
L 177.919352 165.126093 
L 178.079549 165.126093 
L 178.19178 173.247238 
L 178.303117 173.247238 
L 178.416316 165.126093 
L 178.609235 165.126093 
L 178.66234 181.368382 
L 178.715865 173.247238 
L 178.735775 173.247238 
L 178.82856 189.489527 
L 179.092947 189.489527 
L 179.130736 197.610672 
L 179.194259 189.489527 
L 179.409013 189.489527 
L 179.596773 181.368382 
L 179.815058 173.247238 
L 180.228259 173.247238 
L 180.345048 165.126093 
L 180.543736 165.126093 
L 180.634085 173.247238 
L 180.720037 157.004948 
L 180.774838 165.126093 
L 180.831274 165.126093 
L 180.98132 173.247238 
L 181.54965 173.247238 
L 181.662977 181.368382 
L 181.758841 189.489527 
L 182.282528 189.489527 
L 182.426933 181.368382 
L 182.449414 189.489527 
L 182.532246 181.368382 
L 182.804733 181.368382 
L 182.822753 189.489527 
L 183.356225 189.489527 
L 183.480948 181.368382 
L 183.54986 181.368382 
L 183.632988 173.247238 
L 183.707193 181.368382 
L 183.88365 181.368382 
L 183.949791 173.247238 
L 183.9762 181.368382 
L 184.058479 181.368382 
L 184.130834 165.126093 
L 184.286795 165.126093 
L 184.398865 173.247238 
L 184.768436 173.247238 
L 184.845731 181.368382 
L 184.927825 173.247238 
L 185.020326 173.247238 
L 185.052304 181.368382 
L 185.10688 173.247238 
L 185.210707 181.368382 
L 185.346894 173.247238 
L 185.383495 173.247238 
L 185.427956 165.126093 
L 185.474101 181.368382 
L 185.591023 181.368382 
L 185.613648 173.247238 
L 185.667179 189.489527 
L 185.891636 181.368382 
L 185.933742 181.368382 
L 185.990912 173.247238 
L 185.99407 181.368382 
L 186.106281 181.368382 
L 186.131359 173.247238 
L 186.216386 181.368382 
L 186.323842 189.489527 
L 186.888622 189.489527 
L 186.990722 181.368382 
L 187.180318 181.368382 
L 187.353487 165.126093 
L 187.400851 181.368382 
L 187.463714 173.247238 
L 187.548491 173.247238 
L 187.685936 181.368382 
L 188.108621 181.368382 
L 188.194784 173.247238 
L 188.405726 173.247238 
L 188.429618 165.126093 
L 188.489525 173.247238 
L 188.618999 173.247238 
L 188.654868 181.368382 
L 188.926033 181.368382 
L 189.056847 189.489527 
L 189.079687 189.489527 
L 189.146461 181.368382 
L 189.162208 189.489527 
L 189.397573 189.489527 
L 189.50732 181.368382 
L 189.592891 181.368382 
L 189.662344 173.247238 
L 189.925987 181.368382 
L 190.041409 157.004948 
L 190.145997 157.004948 
L 190.216272 173.247238 
L 190.229771 165.126093 
L 190.307887 165.126093 
L 190.361784 157.004948 
L 190.487386 165.126093 
L 190.552841 165.126093 
L 190.587229 157.004948 
L 190.872453 173.247238 
L 190.975179 173.247238 
L 191.095092 181.368382 
L 191.248248 157.004948 
L 191.305549 165.126093 
L 191.718246 165.126093 
L 191.822992 181.368382 
L 191.879821 181.368382 
L 191.992383 189.489527 
L 192.070404 181.368382 
L 192.134778 189.489527 
L 192.242696 189.489527 
L 192.291099 181.368382 
L 192.418776 181.368382 
L 192.575834 197.610672 
L 193.168995 197.610672 
L 193.284776 189.489527 
L 193.49451 189.489527 
L 193.56707 197.610672 
L 193.579725 189.489527 
L 193.749771 189.489527 
L 193.764297 173.247238 
L 194.051746 173.247238 
L 194.123698 165.126093 
L 194.278275 165.126093 
L 194.338784 148.883803 
L 194.504704 148.883803 
L 194.544793 157.004948 
L 194.554935 148.883803 
L 194.677732 148.883803 
L 194.791985 165.126093 
L 194.921166 173.247238 
L 195.024938 173.247238 
L 195.135499 165.126093 
L 195.344593 165.126093 
L 195.500919 157.004948 
L 195.618057 165.126093 
L 195.650788 165.126093 
L 195.765406 148.883803 
L 196.312367 148.883803 
L 196.537839 181.368382 
L 196.954692 181.368382 
L 197.221634 189.489527 
L 198.056221 189.489527 
L 198.103018 197.610672 
L 198.216995 189.489527 
L 198.426062 197.610672 
L 198.548723 181.368382 
L 198.617448 189.489527 
L 198.743599 181.368382 
L 198.903503 189.489527 
L 199.039552 189.489527 
L 199.326316 197.610672 
L 199.464131 197.610672 
L 199.570554 189.489527 
L 199.672683 197.610672 
L 199.822595 181.368382 
L 199.96112 189.489527 
L 199.971027 189.489527 
L 200.062084 173.247238 
L 200.191717 173.247238 
L 200.197503 181.368382 
L 200.358868 181.368382 
L 200.477351 173.247238 
L 200.771253 189.489527 
L 201.119606 189.489527 
L 201.160992 197.610672 
L 201.222782 189.489527 
L 201.414302 181.368382 
L 201.613893 165.126093 
L 201.752456 173.247238 
L 201.833938 181.368382 
L 201.853223 173.247238 
L 201.915777 173.247238 
L 202.389198 189.489527 
L 204.021463 189.489527 
L 204.248849 197.610672 
L 206.269073 197.610672 
L 206.286965 189.489527 
L 206.430166 181.368382 
L 206.556801 189.489527 
L 206.861799 189.489527 
L 207.422863 197.610672 
L 215.51895 197.610672 
L 215.58793 189.489527 
L 215.854997 197.610672 
L 224.51598 197.610672 
L 225.115517 181.368382 
L 225.136497 189.489527 
L 225.283659 189.489527 
L 225.31902 181.368382 
L 225.54484 181.368382 
L 225.567433 189.489527 
L 225.936785 181.368382 
L 226.609399 181.368382 
L 226.685918 189.489527 
L 226.894798 197.610672 
L 228.818289 197.610672 
L 228.858921 189.489527 
L 232.040994 189.489527 
L 232.405152 197.610672 
L 234.425521 197.610672 
L 234.613382 189.489527 
L 234.736067 197.610672 
L 245.19152 197.610672 
L 245.341148 189.489527 
L 245.570657 197.610672 
L 260.877365 197.610672 
L 261.203973 189.489527 
L 261.339245 189.489527 
L 261.37786 197.610672 
L 261.558909 189.489527 
L 262.093987 189.489527 
L 262.263556 181.368382 
L 262.344255 189.489527 
L 262.649593 189.489527 
L 262.818578 197.610672 
L 264.930963 197.610672 
L 265.241387 189.489527 
L 265.820512 189.489527 
L 266.162363 197.610672 
L 277.884518 197.610672 
L 278.064239 189.489527 
L 278.148626 173.247238 
L 278.318873 173.247238 
L 278.44307 181.368382 
L 279.343006 197.610672 
L 280.593041 197.610672 
L 280.899104 189.489527 
L 281.050546 189.489527 
L 281.135524 197.610672 
L 294.669566 197.610672 
L 294.908164 173.247238 
L 295.129951 197.610672 
L 295.26525 181.368382 
L 295.298618 189.489527 
L 295.386139 189.489527 
L 295.456135 181.368382 
L 295.654129 189.489527 
L 295.879182 173.247238 
L 295.979232 189.489527 
L 296.083257 181.368382 
L 296.342245 181.368382 
L 296.360163 173.247238 
L 296.449954 181.368382 
L 296.970353 181.368382 
L 297.111226 189.489527 
L 297.331783 189.489527 
L 297.491722 197.610672 
L 303.056172 197.610672 
L 303.147212 189.489527 
L 303.302863 189.489527 
L 303.39115 197.610672 
L 312.422447 197.610672 
L 312.422447 197.610672 
" clip-path="url(#p4aa0e830b1)" style="fill: none; stroke: #000000; stroke-width: 1.5; stroke-linecap: square"/>
   </g>
   <g id="patch_8">
    <path d="M 44.103906 201.671244 
L 44.103906 112.338651 
" style="fill: none; stroke: #000000; stroke-width: 0.8; stroke-linejoin: miter; stroke-linecap: square"/>
   </g>
   <g id="patch_9">
    <path d="M 325.19952 201.671244 
L 325.19952 112.338651 
" style="fill: none; stroke: #000000; stroke-width: 0.8; stroke-linejoin: miter; stroke-linecap: square"/>
   </g>
   <g id="patch_10">
    <path d="M 44.103906 201.671244 
L 325.19952 201.671244 
" style="fill: none; stroke: #000000; stroke-width: 0.8; stroke-linejoin: miter; stroke-linecap: square"/>
   </g>
   <g id="patch_11">
    <path d="M 44.103906 112.338651 
L 325.19952 112.338651 
" style="fill: none; stroke: #000000; stroke-width: 0.8; stroke-linejoin: miter; stroke-linecap: square"/>
   </g>
  </g>
  <g id="axes_3">
   <g id="patch_12">
    <path d="M 44.103906 300.504317 
L 325.19952 300.504317 
L 325.19952 211.171724 
L 44.103906 211.171724 
z
" style="fill: #ffffff"/>
   </g>
   <g id="matplotlib.axis_5">
    <g id="xtick_19">
     <g id="line2d_27">
      <g>
       <use xlink:href="#m2c54d00970" x="56.88098" y="300.504317" style="stroke: #000000; stroke-width: 0.8"/>
      </g>
     </g>
     <g id="text_9">
      <!-- 0 -->
      <g transform="translate(53.69973 315.101974) scale(0.1 -0.1)">
       <use xlink:href="#DejaVuSans-13"/>
      </g>
     </g>
    </g>
    <g id="xtick_20">
     <g id="line2d_28">
      <g>
       <use xlink:href="#m2c54d00970" x="88.695172" y="300.504317" style="stroke: #000000; stroke-width: 0.8"/>
      </g>
     </g>
     <g id="text_10">
      <!-- 100 -->
      <g transform="translate(79.151422 315.101974) scale(0.1 -0.1)">
       <use xlink:href="#DejaVuSans-14"/>
       <use xlink:href="#DejaVuSans-13" transform="translate(63.625 0)"/>
       <use xlink:href="#DejaVuSans-13" transform="translate(127.25 0)"/>
      </g>
     </g>
    </g>
    <g id="xtick_21">
     <g id="line2d_29">
      <g>
       <use xlink:href="#m2c54d00970" x="120.509364" y="300.504317" style="stroke: #000000; stroke-width: 0.8"/>
      </g>
     </g>
     <g id="text_11">
      <!-- 200 -->
      <g transform="translate(110.965614 315.101974) scale(0.1 -0.1)">
       <defs>
        <path id="DejaVuSans-15" d="M 1228 531 
L 3431 531 
L 3431 0 
L 469 0 
L 469 531 
Q 828 903 1448 1529 
Q 2069 2156 2228 2338 
Q 2531 2678 2651 2914 
Q 2772 3150 2772 3378 
Q 2772 3750 2511 3984 
Q 2250 4219 1831 4219 
Q 1534 4219 1204 4116 
Q 875 4013 500 3803 
L 500 4441 
Q 881 4594 1212 4672 
Q 1544 4750 1819 4750 
Q 2544 4750 2975 4387 
Q 3406 4025 3406 3419 
Q 3406 3131 3298 2873 
Q 3191 2616 2906 2266 
Q 2828 2175 2409 1742 
Q 1991 1309 1228 531 
z
" transform="scale(0.015625)"/>
       </defs>
       <use xlink:href="#DejaVuSans-15"/>
       <use xlink:href="#DejaVuSans-13" transform="translate(63.625 0)"/>
       <use xlink:href="#DejaVuSans-13" transform="translate(127.25 0)"/>
      </g>
     </g>
    </g>
    <g id="xtick_22">
     <g id="line2d_30">
      <g>
       <use xlink:href="#m2c54d00970" x="152.323556" y="300.504317" style="stroke: #000000; stroke-width: 0.8"/>
      </g>
     </g>
     <g id="text_12">
      <!-- 300 -->
      <g transform="translate(142.779806 315.101974) scale(0.1 -0.1)">
       <defs>
        <path id="DejaVuSans-16" d="M 2597 2516 
Q 3050 2419 3304 2112 
Q 3559 1806 3559 1356 
Q 3559 666 3084 287 
Q 2609 -91 1734 -91 
Q 1441 -91 1130 -33 
Q 819 25 488 141 
L 488 750 
Q 750 597 1062 519 
Q 1375 441 1716 441 
Q 2309 441 2620 675 
Q 2931 909 2931 1356 
Q 2931 1769 2642 2001 
Q 2353 2234 1838 2234 
L 1294 2234 
L 1294 2753 
L 1863 2753 
Q 2328 2753 2575 2939 
Q 2822 3125 2822 3475 
Q 2822 3834 2567 4026 
Q 2313 4219 1838 4219 
Q 1578 4219 1281 4162 
Q 984 4106 628 3988 
L 628 4550 
Q 988 4650 1302 4700 
Q 1616 4750 1894 4750 
Q 2613 4750 3031 4423 
Q 3450 4097 3450 3541 
Q 3450 3153 3228 2886 
Q 3006 2619 2597 2516 
z
" transform="scale(0.015625)"/>
       </defs>
       <use xlink:href="#DejaVuSans-16"/>
       <use xlink:href="#DejaVuSans-13" transform="translate(63.625 0)"/>
       <use xlink:href="#DejaVuSans-13" transform="translate(127.25 0)"/>
      </g>
     </g>
    </g>
    <g id="xtick_23">
     <g id="line2d_31">
      <g>
       <use xlink:href="#m2c54d00970" x="184.137748" y="300.504317" style="stroke: #000000; stroke-width: 0.8"/>
      </g>
     </g>
     <g id="text_13">
      <!-- 400 -->
      <g transform="translate(174.593998 315.101974) scale(0.1 -0.1)">
       <defs>
        <path id="DejaVuSans-17" d="M 2419 4116 
L 825 1625 
L 2419 1625 
L 2419 4116 
z
M 2253 4666 
L 3047 4666 
L 3047 1625 
L 3713 1625 
L 3713 1100 
L 3047 1100 
L 3047 0 
L 2419 0 
L 2419 1100 
L 313 1100 
L 313 1709 
L 2253 4666 
z
" transform="scale(0.015625)"/>
       </defs>
       <use xlink:href="#DejaVuSans-17"/>
       <use xlink:href="#DejaVuSans-13" transform="translate(63.625 0)"/>
       <use xlink:href="#DejaVuSans-13" transform="translate(127.25 0)"/>
      </g>
     </g>
    </g>
    <g id="xtick_24">
     <g id="line2d_32">
      <g>
       <use xlink:href="#m2c54d00970" x="215.95194" y="300.504317" style="stroke: #000000; stroke-width: 0.8"/>
      </g>
     </g>
     <g id="text_14">
      <!-- 500 -->
      <g transform="translate(206.40819 315.101974) scale(0.1 -0.1)">
       <use xlink:href="#DejaVuSans-18"/>
       <use xlink:href="#DejaVuSans-13" transform="translate(63.625 0)"/>
       <use xlink:href="#DejaVuSans-13" transform="translate(127.25 0)"/>
      </g>
     </g>
    </g>
    <g id="xtick_25">
     <g id="line2d_33">
      <g>
       <use xlink:href="#m2c54d00970" x="247.766132" y="300.504317" style="stroke: #000000; stroke-width: 0.8"/>
      </g>
     </g>
     <g id="text_15">
      <!-- 600 -->
      <g transform="translate(238.222382 315.101974) scale(0.1 -0.1)">
       <defs>
        <path id="DejaVuSans-19" d="M 2113 2584 
Q 1688 2584 1439 2293 
Q 1191 2003 1191 1497 
Q 1191 994 1439 701 
Q 1688 409 2113 409 
Q 2538 409 2786 701 
Q 3034 994 3034 1497 
Q 3034 2003 2786 2293 
Q 2538 2584 2113 2584 
z
M 3366 4563 
L 3366 3988 
Q 3128 4100 2886 4159 
Q 2644 4219 2406 4219 
Q 1781 4219 1451 3797 
Q 1122 3375 1075 2522 
Q 1259 2794 1537 2939 
Q 1816 3084 2150 3084 
Q 2853 3084 3261 2657 
Q 3669 2231 3669 1497 
Q 3669 778 3244 343 
Q 2819 -91 2113 -91 
Q 1303 -91 875 529 
Q 447 1150 447 2328 
Q 447 3434 972 4092 
Q 1497 4750 2381 4750 
Q 2619 4750 2861 4703 
Q 3103 4656 3366 4563 
z
" transform="scale(0.015625)"/>
       </defs>
       <use xlink:href="#DejaVuSans-19"/>
       <use xlink:href="#DejaVuSans-13" transform="translate(63.625 0)"/>
       <use xlink:href="#DejaVuSans-13" transform="translate(127.25 0)"/>
      </g>
     </g>
    </g>
    <g id="xtick_26">
     <g id="line2d_34">
      <g>
       <use xlink:href="#m2c54d00970" x="279.580324" y="300.504317" style="stroke: #000000; stroke-width: 0.8"/>
      </g>
     </g>
     <g id="text_16">
      <!-- 700 -->
      <g transform="translate(270.036574 315.101974) scale(0.1 -0.1)">
       <defs>
        <path id="DejaVuSans-1a" d="M 525 4666 
L 3525 4666 
L 3525 4397 
L 1831 0 
L 1172 0 
L 2766 4134 
L 525 4134 
L 525 4666 
z
" transform="scale(0.015625)"/>
       </defs>
       <use xlink:href="#DejaVuSans-1a"/>
       <use xlink:href="#DejaVuSans-13" transform="translate(63.625 0)"/>
       <use xlink:href="#DejaVuSans-13" transform="translate(127.25 0)"/>
      </g>
     </g>
    </g>
    <g id="xtick_27">
     <g id="line2d_35">
      <g>
       <use xlink:href="#m2c54d00970" x="311.394516" y="300.504317" style="stroke: #000000; stroke-width: 0.8"/>
      </g>
     </g>
     <g id="text_17">
      <!-- 800 -->
      <g transform="translate(301.850766 315.101974) scale(0.1 -0.1)">
       <defs>
        <path id="DejaVuSans-1b" d="M 2034 2216 
Q 1584 2216 1326 1975 
Q 1069 1734 1069 1313 
Q 1069 891 1326 650 
Q 1584 409 2034 409 
Q 2484 409 2743 651 
Q 3003 894 3003 1313 
Q 3003 1734 2745 1975 
Q 2488 2216 2034 2216 
z
M 1403 2484 
Q 997 2584 770 2862 
Q 544 3141 544 3541 
Q 544 4100 942 4425 
Q 1341 4750 2034 4750 
Q 2731 4750 3128 4425 
Q 3525 4100 3525 3541 
Q 3525 3141 3298 2862 
Q 3072 2584 2669 2484 
Q 3125 2378 3379 2068 
Q 3634 1759 3634 1313 
Q 3634 634 3220 271 
Q 2806 -91 2034 -91 
Q 1263 -91 848 271 
Q 434 634 434 1313 
Q 434 1759 690 2068 
Q 947 2378 1403 2484 
z
M 1172 3481 
Q 1172 3119 1398 2916 
Q 1625 2713 2034 2713 
Q 2441 2713 2670 2916 
Q 2900 3119 2900 3481 
Q 2900 3844 2670 4047 
Q 2441 4250 2034 4250 
Q 1625 4250 1398 4047 
Q 1172 3844 1172 3481 
z
" transform="scale(0.015625)"/>
       </defs>
       <use xlink:href="#DejaVuSans-1b"/>
       <use xlink:href="#DejaVuSans-13" transform="translate(63.625 0)"/>
       <use xlink:href="#DejaVuSans-13" transform="translate(127.25 0)"/>
      </g>
     </g>
    </g>
    <g id="text_18">
     <!-- Time -->
     <g transform="translate(172.415776 329.102755) scale(0.1 -0.1)">
      <defs>
       <path id="DejaVuSans-37" d="M -19 4666 
L 3928 4666 
L 3928 4134 
L 2272 4134 
L 2272 0 
L 1638 0 
L 1638 4134 
L -19 4134 
L -19 4666 
z
" transform="scale(0.015625)"/>
       <path id="DejaVuSans-4c" d="M 603 3500 
L 1178 3500 
L 1178 0 
L 603 0 
L 603 3500 
z
M 603 4863 
L 1178 4863 
L 1178 4134 
L 603 4134 
L 603 4863 
z
" transform="scale(0.015625)"/>
       <path id="DejaVuSans-50" d="M 3328 2828 
Q 3544 3216 3844 3400 
Q 4144 3584 4550 3584 
Q 5097 3584 5394 3201 
Q 5691 2819 5691 2113 
L 5691 0 
L 5113 0 
L 5113 2094 
Q 5113 2597 4934 2840 
Q 4756 3084 4391 3084 
Q 3944 3084 3684 2787 
Q 3425 2491 3425 1978 
L 3425 0 
L 2847 0 
L 2847 2094 
Q 2847 2600 2669 2842 
Q 2491 3084 2119 3084 
Q 1678 3084 1418 2786 
Q 1159 2488 1159 1978 
L 1159 0 
L 581 0 
L 581 3500 
L 1159 3500 
L 1159 2956 
Q 1356 3278 1631 3431 
Q 1906 3584 2284 3584 
Q 2666 3584 2933 3390 
Q 3200 3197 3328 2828 
z
" transform="scale(0.015625)"/>
      </defs>
      <use xlink:href="#DejaVuSans-37"/>
      <use xlink:href="#DejaVuSans-4c" transform="translate(58 0)"/>
      <use xlink:href="#DejaVuSans-50" transform="translate(85.78125 0)"/>
      <use xlink:href="#DejaVuSans-48" transform="translate(183.1875 0)"/>
     </g>
    </g>
   </g>
   <g id="matplotlib.axis_6">
    <g id="ytick_7">
     <g id="line2d_36">
      <g>
       <use xlink:href="#me27cd8281a" x="44.103906" y="296.443745" style="stroke: #000000; stroke-width: 0.8"/>
      </g>
     </g>
     <g id="text_19">
      <!-- 0.0 -->
      <g transform="translate(21.200781 300.242573) scale(0.1 -0.1)">
       <defs>
        <path id="DejaVuSans-11" d="M 684 794 
L 1344 794 
L 1344 0 
L 684 0 
L 684 794 
z
" transform="scale(0.015625)"/>
       </defs>
       <use xlink:href="#DejaVuSans-13"/>
       <use xlink:href="#DejaVuSans-11" transform="translate(63.625 0)"/>
       <use xlink:href="#DejaVuSans-13" transform="translate(95.40625 0)"/>
      </g>
     </g>
    </g>
    <g id="ytick_8">
     <g id="line2d_37">
      <g>
       <use xlink:href="#me27cd8281a" x="44.103906" y="255.838021" style="stroke: #000000; stroke-width: 0.8"/>
      </g>
     </g>
     <g id="text_20">
      <!-- 0.5 -->
      <g transform="translate(21.200781 259.636849) scale(0.1 -0.1)">
       <use xlink:href="#DejaVuSans-13"/>
       <use xlink:href="#DejaVuSans-11" transform="translate(63.625 0)"/>
       <use xlink:href="#DejaVuSans-18" transform="translate(95.40625 0)"/>
      </g>
     </g>
    </g>
    <g id="ytick_9">
     <g id="line2d_38">
      <g>
       <use xlink:href="#me27cd8281a" x="44.103906" y="215.232297" style="stroke: #000000; stroke-width: 0.8"/>
      </g>
     </g>
     <g id="text_21">
      <!-- 1.0 -->
      <g transform="translate(21.200781 219.031125) scale(0.1 -0.1)">
       <use xlink:href="#DejaVuSans-14"/>
       <use xlink:href="#DejaVuSans-11" transform="translate(63.625 0)"/>
       <use xlink:href="#DejaVuSans-13" transform="translate(95.40625 0)"/>
      </g>
     </g>
    </g>
    <g id="text_22">
     <!-- Free lac operon -->
     <g transform="translate(14.798438 294.31224) rotate(-90) scale(0.1 -0.1)">
      <defs>
       <path id="DejaVuSans-29" d="M 628 4666 
L 3309 4666 
L 3309 4134 
L 1259 4134 
L 1259 2759 
L 3109 2759 
L 3109 2228 
L 1259 2228 
L 1259 0 
L 628 0 
L 628 4666 
z
" transform="scale(0.015625)"/>
       <path id="DejaVuSans-53" d="M 1159 525 
L 1159 -1331 
L 581 -1331 
L 581 3500 
L 1159 3500 
L 1159 2969 
Q 1341 3281 1617 3432 
Q 1894 3584 2278 3584 
Q 2916 3584 3314 3078 
Q 3713 2572 3713 1747 
Q 3713 922 3314 415 
Q 2916 -91 2278 -91 
Q 1894 -91 1617 61 
Q 1341 213 1159 525 
z
M 3116 1747 
Q 3116 2381 2855 2742 
Q 2594 3103 2138 3103 
Q 1681 3103 1420 2742 
Q 1159 2381 1159 1747 
Q 1159 1113 1420 752 
Q 1681 391 2138 391 
Q 2594 391 2855 752 
Q 3116 1113 3116 1747 
z
" transform="scale(0.015625)"/>
       <path id="DejaVuSans-51" d="M 3513 2113 
L 3513 0 
L 2938 0 
L 2938 2094 
Q 2938 2591 2744 2837 
Q 2550 3084 2163 3084 
Q 1697 3084 1428 2787 
Q 1159 2491 1159 1978 
L 1159 0 
L 581 0 
L 581 3500 
L 1159 3500 
L 1159 2956 
Q 1366 3272 1645 3428 
Q 1925 3584 2291 3584 
Q 2894 3584 3203 3211 
Q 3513 2838 3513 2113 
z
" transform="scale(0.015625)"/>
      </defs>
      <use xlink:href="#DejaVuSans-29"/>
      <use xlink:href="#DejaVuSans-55" transform="translate(50.234375 0)"/>
      <use xlink:href="#DejaVuSans-48" transform="translate(89.140625 0)"/>
      <use xlink:href="#DejaVuSans-48" transform="translate(150.671875 0)"/>
      <use xlink:href="#DejaVuSans-3" transform="translate(212.203125 0)"/>
      <use xlink:href="#DejaVuSans-4f" transform="translate(243.984375 0)"/>
      <use xlink:href="#DejaVuSans-44" transform="translate(271.765625 0)"/>
      <use xlink:href="#DejaVuSans-46" transform="translate(333.046875 0)"/>
      <use xlink:href="#DejaVuSans-3" transform="translate(388.03125 0)"/>
      <use xlink:href="#DejaVuSans-52" transform="translate(419.8125 0)"/>
      <use xlink:href="#DejaVuSans-53" transform="translate(481 0)"/>
      <use xlink:href="#DejaVuSans-48" transform="translate(544.484375 0)"/>
      <use xlink:href="#DejaVuSans-55" transform="translate(606.015625 0)"/>
      <use xlink:href="#DejaVuSans-52" transform="translate(644.921875 0)"/>
      <use xlink:href="#DejaVuSans-51" transform="translate(706.109375 0)"/>
     </g>
    </g>
   </g>
   <g id="line2d_39">
    <path d="M 56.88098 215.232297 
L 56.962349 296.443745 
L 57.130337 296.443745 
L 57.299615 215.232297 
L 57.417572 215.232297 
L 57.519522 296.443745 
L 58.733634 296.443745 
L 59.721717 215.232297 
L 59.907728 215.232297 
L 59.930432 296.443745 
L 62.347572 296.443745 
L 64.937477 215.232297 
L 65.231848 215.232297 
L 65.369048 296.443745 
L 65.494696 296.443745 
L 72.145271 215.232297 
L 72.314759 296.443745 
L 80.1404 215.232297 
L 80.18935 296.443745 
L 82.811141 215.232297 
L 82.950881 215.232297 
L 83.004947 296.443745 
L 84.742182 296.443745 
L 84.807498 215.232297 
L 85.682227 215.232297 
L 85.871866 296.443745 
L 86.902865 296.443745 
L 89.890127 215.232297 
L 90.429169 215.232297 
L 90.458396 296.443745 
L 90.815664 296.443745 
L 91.695483 215.232297 
L 91.753825 296.443745 
L 92.097053 296.443745 
L 109.141397 215.232297 
L 109.155074 296.443745 
L 109.413076 296.443745 
L 109.68871 215.232297 
L 109.975549 296.443745 
L 110.103389 215.232297 
L 110.510408 215.232297 
L 110.714624 296.443745 
L 111.00674 296.443745 
L 115.161407 215.232297 
L 115.820843 296.443745 
L 117.459923 215.232297 
L 117.774586 296.443745 
L 118.445799 215.232297 
L 118.532966 296.443745 
L 119.540507 215.232297 
L 119.625263 296.443745 
L 123.560981 296.443745 
L 129.568972 215.232297 
L 129.674728 296.443745 
L 131.413857 215.232297 
L 131.863836 215.232297 
L 131.885238 296.443745 
L 133.722209 296.443745 
L 136.313167 215.232297 
L 136.32645 296.443745 
L 139.202309 215.232297 
L 139.244963 296.443745 
L 146.275551 215.232297 
L 147.21817 215.232297 
L 147.286359 296.443745 
L 147.901672 296.443745 
L 148.146262 215.232297 
L 148.460572 215.232297 
L 148.573115 296.443745 
L 149.641788 296.443745 
L 150.152294 215.232297 
L 150.252865 296.443745 
L 151.371932 296.443745 
L 151.383233 215.232297 
L 151.544477 296.443745 
L 155.845181 215.232297 
L 155.933953 296.443745 
L 156.182821 215.232297 
L 195.91456 215.232297 
L 195.996245 296.443745 
L 197.647749 296.443745 
L 197.732614 215.232297 
L 201.853223 215.232297 
L 201.915777 296.443745 
L 204.434501 296.443745 
L 206.286965 215.232297 
L 206.529157 215.232297 
L 206.556801 296.443745 
L 211.704663 296.443745 
L 215.58793 215.232297 
L 215.749791 215.232297 
L 215.854997 296.443745 
L 219.019475 215.232297 
L 219.042745 296.443745 
L 222.191263 215.232297 
L 222.204913 296.443745 
L 224.51598 215.232297 
L 225.936785 215.232297 
L 226.261554 296.443745 
L 226.894798 296.443745 
L 228.858921 215.232297 
L 229.033936 296.443745 
L 232.405152 296.443745 
L 233.873251 215.232297 
L 233.970729 296.443745 
L 234.425521 215.232297 
L 234.736067 215.232297 
L 234.905599 296.443745 
L 234.958691 215.232297 
L 235.010199 296.443745 
L 236.276633 296.443745 
L 245.19152 215.232297 
L 245.336574 215.232297 
L 245.341148 296.443745 
L 245.83685 296.443745 
L 256.793109 215.232297 
L 256.931288 296.443745 
L 259.160409 215.232297 
L 259.494917 296.443745 
L 260.709345 215.232297 
L 260.733669 296.443745 
L 260.877365 215.232297 
L 262.218826 215.232297 
L 262.22322 296.443745 
L 262.287771 215.232297 
L 262.344255 215.232297 
L 262.649593 296.443745 
L 262.818578 296.443745 
L 264.930963 215.232297 
L 265.228387 215.232297 
L 265.241387 296.443745 
L 266.162363 296.443745 
L 277.495628 215.232297 
L 277.63017 296.443745 
L 277.884518 215.232297 
L 278.198788 215.232297 
L 278.318873 296.443745 
L 279.343006 296.443745 
L 280.593041 215.232297 
L 280.803883 215.232297 
L 280.899104 296.443745 
L 281.059126 215.232297 
L 281.135524 296.443745 
L 281.759172 215.232297 
L 282.078317 296.443745 
L 288.163998 215.232297 
L 288.404485 296.443745 
L 292.847596 215.232297 
L 292.868039 296.443745 
L 294.74252 215.232297 
L 296.606188 215.232297 
L 296.719923 296.443745 
L 297.491722 296.443745 
L 299.35624 215.232297 
L 299.393234 296.443745 
L 299.417105 215.232297 
L 299.728738 296.443745 
L 303.147212 215.232297 
L 303.39115 296.443745 
L 303.731792 215.232297 
L 303.754908 296.443745 
L 304.39791 296.443745 
L 306.426676 215.232297 
L 306.566662 296.443745 
L 309.247473 215.232297 
L 309.255787 296.443745 
L 312.422447 215.232297 
L 312.422447 215.232297 
" clip-path="url(#p17831f997d)" style="fill: none; stroke: #000000; stroke-width: 1.5; stroke-linecap: square"/>
   </g>
   <g id="patch_13">
    <path d="M 44.103906 300.504317 
L 44.103906 211.171724 
" style="fill: none; stroke: #000000; stroke-width: 0.8; stroke-linejoin: miter; stroke-linecap: square"/>
   </g>
   <g id="patch_14">
    <path d="M 325.19952 300.504317 
L 325.19952 211.171724 
" style="fill: none; stroke: #000000; stroke-width: 0.8; stroke-linejoin: miter; stroke-linecap: square"/>
   </g>
   <g id="patch_15">
    <path d="M 44.103906 300.504317 
L 325.19952 300.504317 
" style="fill: none; stroke: #000000; stroke-width: 0.8; stroke-linejoin: miter; stroke-linecap: square"/>
   </g>
   <g id="patch_16">
    <path d="M 44.103906 211.171724 
L 325.19952 211.171724 
" style="fill: none; stroke: #000000; stroke-width: 0.8; stroke-linejoin: miter; stroke-linecap: square"/>
   </g>
  </g>
 </g>
 <defs>
  <clipPath id="p26c9236d43">
   <rect x="44.103906" y="13.505579" width="281.095614" height="89.332593"/>
  </clipPath>
  <clipPath id="p4aa0e830b1">
   <rect x="44.103906" y="112.338651" width="281.095614" height="89.332593"/>
  </clipPath>
  <clipPath id="p17831f997d">
   <rect x="44.103906" y="211.171724" width="281.095614" height="89.332593"/>
  </clipPath>
 </defs>
</svg>
