<?xml version="1.0" encoding="utf-8" standalone="no"?>
<!DOCTYPE svg PUBLIC "-//W3C//DTD SVG 1.1//EN"
  "http://www.w3.org/Graphics/SVG/1.1/DTD/svg11.dtd">
<svg xmlns:xlink="http://www.w3.org/1999/xlink" width="332.39952pt" height="332.39952pt" viewBox="0 0 332.39952 332.39952" xmlns="http://www.w3.org/2000/svg" version="1.1">
 <metadata>
  <rdf:RDF xmlns:dc="http://purl.org/dc/elements/1.1/" xmlns:cc="http://creativecommons.org/ns#" xmlns:rdf="http://www.w3.org/1999/02/22-rdf-syntax-ns#">
   <cc:Work>
    <dc:type rdf:resource="http://purl.org/dc/dcmitype/StillImage"/>
    <dc:date>2026-07-11T17:22:55.325631</dc:date>
    <dc:format>image/svg+xml</dc:format>
    <dc:creator>
     <cc:Agent>
      <dc:title>Matplotlib v3.11.0, https://matplotlib.org/</dc:title>
     </cc:Agent>
    </dc:creator>
   </cc:Work>
  </rdf:RDF>
 </metadata>
 <defs>
  <style type="text/css">*{stroke-linejoin: round; stroke-linecap: butt}</style>
 </defs>
 <g id="figure_1">
  <g id="patch_1">
   <path d="M 0 332.39952 
L 332.39952 332.39952 
L 332.39952 0 
L 0 0 
z
" style="fill: #ffffff"/>
  </g>
  <g id="axes_1">
   <g id="patch_2">
    <path d="M 44.103906 96.532593 
L 325.19952 96.532593 
L 325.19952 7.2 
L 44.103906 7.2 
z
" style="fill: #ffffff"/>
   </g>
   <g id="matplotlib.axis_1">
    <g id="xtick_1">
     <g id="line2d_1">
      <defs>
       <path id="m0a57f4d2ff" d="M 0 0 
L 0 3.5 
" style="stroke: #000000; stroke-width: 0.8"/>
      </defs>
      <g>
       <use xlink:href="#m0a57f4d2ff" x="56.88098" y="96.532593" style="stroke: #000000; stroke-width: 0.8"/>
      </g>
     </g>
    </g>
    <g id="xtick_2">
     <g id="line2d_2">
      <g>
       <use xlink:href="#m0a57f4d2ff" x="88.205901" y="96.532593" style="stroke: #000000; stroke-width: 0.8"/>
      </g>
     </g>
    </g>
    <g id="xtick_3">
     <g id="line2d_3">
      <g>
       <use xlink:href="#m0a57f4d2ff" x="119.530823" y="96.532593" style="stroke: #000000; stroke-width: 0.8"/>
      </g>
     </g>
    </g>
    <g id="xtick_4">
     <g id="line2d_4">
      <g>
       <use xlink:href="#m0a57f4d2ff" x="150.855745" y="96.532593" style="stroke: #000000; stroke-width: 0.8"/>
      </g>
     </g>
    </g>
    <g id="xtick_5">
     <g id="line2d_5">
      <g>
       <use xlink:href="#m0a57f4d2ff" x="182.180667" y="96.532593" style="stroke: #000000; stroke-width: 0.8"/>
      </g>
     </g>
    </g>
    <g id="xtick_6">
     <g id="line2d_6">
      <g>
       <use xlink:href="#m0a57f4d2ff" x="213.505589" y="96.532593" style="stroke: #000000; stroke-width: 0.8"/>
      </g>
     </g>
    </g>
    <g id="xtick_7">
     <g id="line2d_7">
      <g>
       <use xlink:href="#m0a57f4d2ff" x="244.830511" y="96.532593" style="stroke: #000000; stroke-width: 0.8"/>
      </g>
     </g>
    </g>
    <g id="xtick_8">
     <g id="line2d_8">
      <g>
       <use xlink:href="#m0a57f4d2ff" x="276.155433" y="96.532593" style="stroke: #000000; stroke-width: 0.8"/>
      </g>
     </g>
    </g>
    <g id="xtick_9">
     <g id="line2d_9">
      <g>
       <use xlink:href="#m0a57f4d2ff" x="307.480354" y="96.532593" style="stroke: #000000; stroke-width: 0.8"/>
      </g>
     </g>
    </g>
   </g>
   <g id="matplotlib.axis_2">
    <g id="ytick_1">
     <g id="line2d_10">
      <defs>
       <path id="m588ec80c05" d="M 0 0 
L -3.5 0 
" style="stroke: #000000; stroke-width: 0.8"/>
      </defs>
      <g>
       <use xlink:href="#m588ec80c05" x="44.103906" y="92.472021" style="stroke: #000000; stroke-width: 0.8"/>
      </g>
     </g>
     <g id="text_1">
      <!-- 0 -->
      <g transform="translate(30.741406 96.270849) scale(0.1 -0.1)">
       <defs>
        <path id="DejaVuSans-13" d="M 2034 4250 
Q 1547 4250 1301 3770 
Q 1056 3291 1056 2328 
Q 1056 1369 1301 889 
Q 1547 409 2034 409 
Q 2525 409 2770 889 
Q 3016 1369 3016 2328 
Q 3016 3291 2770 3770 
Q 2525 4250 2034 4250 
z
M 2034 4750 
Q 2819 4750 3233 4129 
Q 3647 3509 3647 2328 
Q 3647 1150 3233 529 
Q 2819 -91 2034 -91 
Q 1250 -91 836 529 
Q 422 1150 422 2328 
Q 422 3509 836 4129 
Q 1250 4750 2034 4750 
z
" transform="scale(0.015625)"/>
       </defs>
       <use xlink:href="#DejaVuSans-13"/>
      </g>
     </g>
    </g>
    <g id="ytick_2">
     <g id="line2d_11">
      <g>
       <use xlink:href="#m588ec80c05" x="44.103906" y="51.866296" style="stroke: #000000; stroke-width: 0.8"/>
      </g>
     </g>
     <g id="text_2">
      <!-- 5 -->
      <g transform="translate(30.741406 55.665125) scale(0.1 -0.1)">
       <defs>
        <path id="DejaVuSans-18" d="M 691 4666 
L 3169 4666 
L 3169 4134 
L 1269 4134 
L 1269 2991 
Q 1406 3038 1543 3061 
Q 1681 3084 1819 3084 
Q 2600 3084 3056 2656 
Q 3513 2228 3513 1497 
Q 3513 744 3044 326 
Q 2575 -91 1722 -91 
Q 1428 -91 1123 -41 
Q 819 9 494 109 
L 494 744 
Q 775 591 1075 516 
Q 1375 441 1709 441 
Q 2250 441 2565 725 
Q 2881 1009 2881 1497 
Q 2881 1984 2565 2268 
Q 2250 2553 1709 2553 
Q 1456 2553 1204 2497 
Q 953 2441 691 2322 
L 691 4666 
z
" transform="scale(0.015625)"/>
       </defs>
       <use xlink:href="#DejaVuSans-18"/>
      </g>
     </g>
    </g>
    <g id="ytick_3">
     <g id="line2d_12">
      <g>
       <use xlink:href="#m588ec80c05" x="44.103906" y="11.260572" style="stroke: #000000; stroke-width: 0.8"/>
      </g>
     </g>
     <g id="text_3">
      <!-- 10 -->
      <g transform="translate(24.378906 15.059401) scale(0.1 -0.1)">
       <defs>
        <path id="DejaVuSans-14" d="M 794 531 
L 1825 531 
L 1825 4091 
L 703 3866 
L 703 4441 
L 1819 4666 
L 2450 4666 
L 2450 531 
L 3481 531 
L 3481 0 
L 794 0 
L 794 531 
z
" transform="scale(0.015625)"/>
       </defs>
       <use xlink:href="#DejaVuSans-14"/>
       <use xlink:href="#DejaVuSans-13" transform="translate(63.625 0)"/>
      </g>
     </g>
    </g>
    <g id="text_4">
     <!-- Extracellular lactose -->
     <g transform="translate(17.976563 102.838171) rotate(-90) scale(0.1 -0.1)">
      <defs>
       <path id="DejaVuSans-28" d="M 628 4666 
L 3578 4666 
L 3578 4134 
L 1259 4134 
L 1259 2753 
L 3481 2753 
L 3481 2222 
L 1259 2222 
L 1259 531 
L 3634 531 
L 3634 0 
L 628 0 
L 628 4666 
z
" transform="scale(0.015625)"/>
       <path id="DejaVuSans-5b" d="M 3513 3500 
L 2247 1797 
L 3578 0 
L 2900 0 
L 1881 1375 
L 863 0 
L 184 0 
L 1544 1831 
L 300 3500 
L 978 3500 
L 1906 2253 
L 2834 3500 
L 3513 3500 
z
" transform="scale(0.015625)"/>
       <path id="DejaVuSans-57" d="M 1172 4494 
L 1172 3500 
L 2356 3500 
L 2356 3053 
L 1172 3053 
L 1172 1153 
Q 1172 725 1289 603 
Q 1406 481 1766 481 
L 2356 481 
L 2356 0 
L 1766 0 
Q 1100 0 847 248 
Q 594 497 594 1153 
L 594 3053 
L 172 3053 
L 172 3500 
L 594 3500 
L 594 4494 
L 1172 4494 
z
" transform="scale(0.015625)"/>
       <path id="DejaVuSans-55" d="M 2631 2963 
Q 2534 3019 2420 3045 
Q 2306 3072 2169 3072 
Q 1681 3072 1420 2755 
Q 1159 2438 1159 1844 
L 1159 0 
L 581 0 
L 581 3500 
L 1159 3500 
L 1159 2956 
Q 1341 3275 1631 3429 
Q 1922 3584 2338 3584 
Q 2397 3584 2469 3576 
Q 2541 3569 2628 3553 
L 2631 2963 
z
" transform="scale(0.015625)"/>
       <path id="DejaVuSans-44" d="M 2194 1759 
Q 1497 1759 1228 1600 
Q 959 1441 959 1056 
Q 959 750 1161 570 
Q 1363 391 1709 391 
Q 2188 391 2477 730 
Q 2766 1069 2766 1631 
L 2766 1759 
L 2194 1759 
z
M 3341 1997 
L 3341 0 
L 2766 0 
L 2766 531 
Q 2569 213 2275 61 
Q 1981 -91 1556 -91 
Q 1019 -91 701 211 
Q 384 513 384 1019 
Q 384 1609 779 1909 
Q 1175 2209 1959 2209 
L 2766 2209 
L 2766 2266 
Q 2766 2663 2505 2880 
Q 2244 3097 1772 3097 
Q 1472 3097 1187 3025 
Q 903 2953 641 2809 
L 641 3341 
Q 956 3463 1253 3523 
Q 1550 3584 1831 3584 
Q 2591 3584 2966 3190 
Q 3341 2797 3341 1997 
z
" transform="scale(0.015625)"/>
       <path id="DejaVuSans-46" d="M 3122 3366 
L 3122 2828 
Q 2878 2963 2633 3030 
Q 2388 3097 2138 3097 
Q 1578 3097 1268 2742 
Q 959 2388 959 1747 
Q 959 1106 1268 751 
Q 1578 397 2138 397 
Q 2388 397 2633 464 
Q 2878 531 3122 666 
L 3122 134 
Q 2881 22 2623 -34 
Q 2366 -91 2075 -91 
Q 1284 -91 818 406 
Q 353 903 353 1747 
Q 353 2603 823 3093 
Q 1294 3584 2113 3584 
Q 2378 3584 2631 3529 
Q 2884 3475 3122 3366 
z
" transform="scale(0.015625)"/>
       <path id="DejaVuSans-48" d="M 3597 1894 
L 3597 1613 
L 953 1613 
Q 991 1019 1311 708 
Q 1631 397 2203 397 
Q 2534 397 2845 478 
Q 3156 559 3463 722 
L 3463 178 
Q 3153 47 2828 -22 
Q 2503 -91 2169 -91 
Q 1331 -91 842 396 
Q 353 884 353 1716 
Q 353 2575 817 3079 
Q 1281 3584 2069 3584 
Q 2775 3584 3186 3129 
Q 3597 2675 3597 1894 
z
M 3022 2063 
Q 3016 2534 2758 2815 
Q 2500 3097 2075 3097 
Q 1594 3097 1305 2825 
Q 1016 2553 972 2059 
L 3022 2063 
z
" transform="scale(0.015625)"/>
       <path id="DejaVuSans-4f" d="M 603 4863 
L 1178 4863 
L 1178 0 
L 603 0 
L 603 4863 
z
" transform="scale(0.015625)"/>
       <path id="DejaVuSans-58" d="M 544 1381 
L 544 3500 
L 1119 3500 
L 1119 1403 
Q 1119 906 1312 657 
Q 1506 409 1894 409 
Q 2359 409 2629 706 
Q 2900 1003 2900 1516 
L 2900 3500 
L 3475 3500 
L 3475 0 
L 2900 0 
L 2900 538 
Q 2691 219 2414 64 
Q 2138 -91 1772 -91 
Q 1169 -91 856 284 
Q 544 659 544 1381 
z
M 1991 3584 
L 1991 3584 
z
" transform="scale(0.015625)"/>
       <path id="DejaVuSans-3" transform="scale(0.015625)"/>
       <path id="DejaVuSans-52" d="M 1959 3097 
Q 1497 3097 1228 2736 
Q 959 2375 959 1747 
Q 959 1119 1226 758 
Q 1494 397 1959 397 
Q 2419 397 2687 759 
Q 2956 1122 2956 1747 
Q 2956 2369 2687 2733 
Q 2419 3097 1959 3097 
z
M 1959 3584 
Q 2709 3584 3137 3096 
Q 3566 2609 3566 1747 
Q 3566 888 3137 398 
Q 2709 -91 1959 -91 
Q 1206 -91 779 398 
Q 353 888 353 1747 
Q 353 2609 779 3096 
Q 1206 3584 1959 3584 
z
" transform="scale(0.015625)"/>
       <path id="DejaVuSans-56" d="M 2834 3397 
L 2834 2853 
Q 2591 2978 2328 3040 
Q 2066 3103 1784 3103 
Q 1356 3103 1142 2972 
Q 928 2841 928 2578 
Q 928 2378 1081 2264 
Q 1234 2150 1697 2047 
L 1894 2003 
Q 2506 1872 2764 1633 
Q 3022 1394 3022 966 
Q 3022 478 2636 193 
Q 2250 -91 1575 -91 
Q 1294 -91 989 -36 
Q 684 19 347 128 
L 347 722 
Q 666 556 975 473 
Q 1284 391 1588 391 
Q 1994 391 2212 530 
Q 2431 669 2431 922 
Q 2431 1156 2273 1281 
Q 2116 1406 1581 1522 
L 1381 1569 
Q 847 1681 609 1914 
Q 372 2147 372 2553 
Q 372 3047 722 3315 
Q 1072 3584 1716 3584 
Q 2034 3584 2315 3537 
Q 2597 3491 2834 3397 
z
" transform="scale(0.015625)"/>
      </defs>
      <use xlink:href="#DejaVuSans-28"/>
      <use xlink:href="#DejaVuSans-5b" transform="translate(63.1875 0)"/>
      <use xlink:href="#DejaVuSans-57" transform="translate(122.375 0)"/>
      <use xlink:href="#DejaVuSans-55" transform="translate(161.578125 0)"/>
      <use xlink:href="#DejaVuSans-44" transform="translate(202.6875 0)"/>
      <use xlink:href="#DejaVuSans-46" transform="translate(263.96875 0)"/>
      <use xlink:href="#DejaVuSans-48" transform="translate(318.953125 0)"/>
      <use xlink:href="#DejaVuSans-4f" transform="translate(380.484375 0)"/>
      <use xlink:href="#DejaVuSans-4f" transform="translate(408.265625 0)"/>
      <use xlink:href="#DejaVuSans-58" transform="translate(436.046875 0)"/>
      <use xlink:href="#DejaVuSans-4f" transform="translate(499.421875 0)"/>
      <use xlink:href="#DejaVuSans-44" transform="translate(527.203125 0)"/>
      <use xlink:href="#DejaVuSans-55" transform="translate(588.484375 0)"/>
      <use xlink:href="#DejaVuSans-3" transform="translate(629.59375 0)"/>
      <use xlink:href="#DejaVuSans-4f" transform="translate(661.375 0)"/>
      <use xlink:href="#DejaVuSans-44" transform="translate(689.15625 0)"/>
      <use xlink:href="#DejaVuSans-46" transform="translate(750.4375 0)"/>
      <use xlink:href="#DejaVuSans-57" transform="translate(805.421875 0)"/>
      <use xlink:href="#DejaVuSans-52" transform="translate(844.625 0)"/>
      <use xlink:href="#DejaVuSans-56" transform="translate(905.8125 0)"/>
      <use xlink:href="#DejaVuSans-48" transform="translate(957.90625 0)"/>
     </g>
    </g>
   </g>
   <g id="line2d_13">
    <path d="M 56.88098 92.472021 
L 154.323211 92.472021 
L 154.410618 11.260572 
L 155.065934 11.341784 
L 155.181389 11.66663 
L 155.225354 11.747841 
L 155.368774 13.209647 
L 155.486403 14.833876 
L 155.626907 16.620528 
L 155.65576 16.701739 
L 155.943162 19.462929 
L 155.949441 19.54414 
L 156.072433 20.193832 
L 156.138669 20.275043 
L 156.264257 20.843523 
L 156.281057 20.924735 
L 156.40201 21.087158 
L 156.441916 21.168369 
L 156.569186 21.899272 
L 156.705248 22.467752 
L 156.753403 22.548964 
L 156.872123 23.361078 
L 156.886415 23.44229 
L 157.231122 25.228941 
L 157.37523 25.310153 
L 157.515216 26.28469 
L 157.824877 28.152554 
L 157.943063 29.04588 
L 158.441167 32.537972 
L 158.453703 32.619183 
L 158.563265 33.268875 
L 158.619269 33.756144 
L 158.742101 34.405835 
L 158.763216 34.487047 
L 158.86911 34.730681 
L 158.893678 34.811892 
L 159.305978 36.35491 
L 159.699866 36.436121 
L 159.88368 36.92339 
L 159.90546 37.004601 
L 160.136252 38.222773 
L 160.250777 38.62883 
L 160.279025 38.710042 
L 160.347719 38.872465 
L 160.466343 38.953676 
L 160.56985 39.359733 
L 161.26248 41.633654 
L 161.320608 41.714865 
L 161.44848 41.796077 
L 161.475399 41.877288 
L 161.679683 42.52698 
L 161.760767 42.608191 
L 161.885606 43.09546 
L 162.182659 43.176672 
L 162.429086 44.069997 
L 162.507277 44.151209 
L 162.629761 44.719689 
L 162.65634 44.8009 
L 162.873738 46.181495 
L 163.034027 46.749975 
L 163.116258 46.831187 
L 164.027884 51.622662 
L 164.099191 51.703874 
L 164.370181 52.191142 
L 164.378227 52.272354 
L 164.494648 52.515988 
L 164.548964 52.597199 
L 164.712429 53.16568 
L 164.824592 53.246891 
L 164.998897 53.896583 
L 165.037294 53.977794 
L 165.151192 54.627486 
L 165.202244 54.708697 
L 165.320138 55.114754 
L 165.348172 55.195966 
L 165.464693 55.520812 
L 165.496911 55.602023 
L 165.59589 55.683235 
L 165.763289 56.00808 
L 165.878695 56.332926 
L 166.116779 57.145041 
L 166.16584 57.226252 
L 166.789458 59.581384 
L 166.892523 59.662595 
L 167.085018 60.47471 
L 167.127619 60.555921 
L 167.297742 60.880767 
L 167.942117 60.961979 
L 168.057789 61.04319 
L 168.102062 61.124402 
L 168.265829 61.368036 
L 168.567806 61.449247 
L 168.693313 61.855305 
L 169.546093 61.936516 
L 169.694276 62.017727 
L 170.32252 62.098939 
L 170.45364 62.261362 
L 170.929204 62.911053 
L 171.165883 63.804379 
L 171.242856 63.885591 
L 171.41311 64.697705 
L 171.422815 64.778917 
L 172.62817 70.463718 
L 172.752381 71.11341 
L 172.804536 71.194621 
L 173.044425 72.087947 
L 173.098034 72.169158 
L 173.651478 73.793387 
L 174.487573 73.874599 
L 174.612929 73.95581 
L 174.760259 74.037022 
L 174.866205 74.605502 
L 174.933947 74.686713 
L 175.057369 74.930348 
L 175.651281 75.011559 
L 175.794918 75.092771 
L 175.90948 75.173982 
L 176.138242 75.580039 
L 176.839667 75.661251 
L 176.907776 75.742462 
L 176.997151 75.823674 
L 177.11733 75.904885 
L 177.332337 75.986097 
L 177.4215 76.148519 
L 177.604018 76.310942 
L 177.701787 76.392154 
L 177.800711 76.554577 
L 177.88947 76.635788 
L 177.988499 76.798211 
L 178.808553 77.772748 
L 178.899054 77.85396 
L 179.134558 78.097594 
L 179.298712 78.178806 
L 179.767548 78.584863 
L 179.892796 79.234554 
L 180.101778 79.315766 
L 180.223361 79.396977 
L 180.565831 79.478189 
L 180.673211 79.640612 
L 180.860931 79.721823 
L 181.136915 80.12788 
L 181.349613 80.371515 
L 181.411661 80.452726 
L 181.476863 80.615149 
L 181.702333 80.696361 
L 181.979854 81.102418 
L 182.082569 81.589686 
L 182.292532 81.995744 
L 182.459169 82.076955 
L 182.636256 82.483012 
L 182.883074 82.564224 
L 182.981933 82.645435 
L 183.709119 82.726647 
L 184.169145 83.132704 
L 184.280826 83.376338 
L 184.575479 83.701184 
L 184.687763 83.782396 
L 185.33239 84.513299 
L 185.5223 84.59451 
L 185.732445 84.838144 
L 186.294602 84.919356 
L 186.82362 85.081779 
L 188.503308 85.16299 
L 188.630235 85.325413 
L 189.415853 85.406625 
L 189.60482 85.487836 
L 190.388109 85.569047 
L 190.530932 85.650259 
L 190.802885 85.73147 
L 190.989787 85.812682 
L 191.685137 85.893893 
L 191.790655 86.056316 
L 192.039421 86.137528 
L 192.144999 86.462373 
L 192.251032 86.543585 
L 192.341266 86.706008 
L 192.597891 86.787219 
L 192.740927 86.949642 
L 193.361002 87.030853 
L 194.873443 87.112065 
L 200.690519 87.193276 
L 200.791556 87.436911 
L 200.913402 87.518122 
L 200.987378 87.680545 
L 201.633368 87.761757 
L 201.795978 87.924179 
L 201.869792 88.005391 
L 202.062737 88.086602 
L 202.095201 88.167814 
L 202.525863 88.573871 
L 202.617564 88.655082 
L 203.147848 88.736294 
L 203.300231 88.817505 
L 203.945269 88.898717 
L 204.233185 88.979928 
L 204.7859 89.06114 
L 204.930878 89.142351 
L 206.165263 89.223563 
L 206.247379 89.385985 
L 208.959146 89.467197 
L 209.124254 89.548408 
L 210.708703 89.62962 
L 211.000656 89.792043 
L 213.178664 89.873254 
L 213.362446 89.954466 
L 215.792797 90.035677 
L 216.351599 90.116889 
L 221.574151 90.279311 
L 251.317433 90.360523 
L 252.200002 90.441734 
L 281.132252 90.522946 
L 281.274803 90.604157 
L 281.947604 90.685369 
L 282.058175 90.76658 
L 282.538176 90.847792 
L 282.68083 90.929003 
L 284.202365 91.010214 
L 284.373619 91.091426 
L 285.426224 91.172637 
L 285.670334 91.253849 
L 287.462769 91.33506 
L 287.863637 91.416272 
L 293.455431 91.497483 
L 293.642681 91.578695 
L 312.422447 91.578695 
L 312.422447 91.578695 
" clip-path="url(#p70082cec45)" style="fill: none; stroke: #000000; stroke-width: 1.5; stroke-linecap: square"/>
   </g>
   <g id="patch_3">
    <path d="M 44.103906 96.532593 
L 44.103906 7.2 
" style="fill: none; stroke: #000000; stroke-width: 0.8; stroke-linejoin: miter; stroke-linecap: square"/>
   </g>
   <g id="patch_4">
    <path d="M 325.19952 96.532593 
L 325.19952 7.2 
" style="fill: none; stroke: #000000; stroke-width: 0.8; stroke-linejoin: miter; stroke-linecap: square"/>
   </g>
   <g id="patch_5">
    <path d="M 44.103906 96.532593 
L 325.19952 96.532593 
" style="fill: none; stroke: #000000; stroke-width: 0.8; stroke-linejoin: miter; stroke-linecap: square"/>
   </g>
   <g id="patch_6">
    <path d="M 44.103906 7.2 
L 325.19952 7.2 
" style="fill: none; stroke: #000000; stroke-width: 0.8; stroke-linejoin: miter; stroke-linecap: square"/>
   </g>
  </g>
  <g id="axes_2">
   <g id="patch_7">
    <path d="M 44.103906 195.365666 
L 325.19952 195.365666 
L 325.19952 106.033073 
L 44.103906 106.033073 
z
" style="fill: #ffffff"/>
   </g>
   <g id="matplotlib.axis_3">
    <g id="xtick_10">
     <g id="line2d_14">
      <g>
       <use xlink:href="#m0a57f4d2ff" x="56.88098" y="195.365666" style="stroke: #000000; stroke-width: 0.8"/>
      </g>
     </g>
    </g>
    <g id="xtick_11">
     <g id="line2d_15">
      <g>
       <use xlink:href="#m0a57f4d2ff" x="88.205901" y="195.365666" style="stroke: #000000; stroke-width: 0.8"/>
      </g>
     </g>
    </g>
    <g id="xtick_12">
     <g id="line2d_16">
      <g>
       <use xlink:href="#m0a57f4d2ff" x="119.530823" y="195.365666" style="stroke: #000000; stroke-width: 0.8"/>
      </g>
     </g>
    </g>
    <g id="xtick_13">
     <g id="line2d_17">
      <g>
       <use xlink:href="#m0a57f4d2ff" x="150.855745" y="195.365666" style="stroke: #000000; stroke-width: 0.8"/>
      </g>
     </g>
    </g>
    <g id="xtick_14">
     <g id="line2d_18">
      <g>
       <use xlink:href="#m0a57f4d2ff" x="182.180667" y="195.365666" style="stroke: #000000; stroke-width: 0.8"/>
      </g>
     </g>
    </g>
    <g id="xtick_15">
     <g id="line2d_19">
      <g>
       <use xlink:href="#m0a57f4d2ff" x="213.505589" y="195.365666" style="stroke: #000000; stroke-width: 0.8"/>
      </g>
     </g>
    </g>
    <g id="xtick_16">
     <g id="line2d_20">
      <g>
       <use xlink:href="#m0a57f4d2ff" x="244.830511" y="195.365666" style="stroke: #000000; stroke-width: 0.8"/>
      </g>
     </g>
    </g>
    <g id="xtick_17">
     <g id="line2d_21">
      <g>
       <use xlink:href="#m0a57f4d2ff" x="276.155433" y="195.365666" style="stroke: #000000; stroke-width: 0.8"/>
      </g>
     </g>
    </g>
    <g id="xtick_18">
     <g id="line2d_22">
      <g>
       <use xlink:href="#m0a57f4d2ff" x="307.480354" y="195.365666" style="stroke: #000000; stroke-width: 0.8"/>
      </g>
     </g>
    </g>
   </g>
   <g id="matplotlib.axis_4">
    <g id="ytick_4">
     <g id="line2d_23">
      <g>
       <use xlink:href="#m588ec80c05" x="44.103906" y="191.305093" style="stroke: #000000; stroke-width: 0.8"/>
      </g>
     </g>
     <g id="text_5">
      <!-- 0 -->
      <g transform="translate(30.741406 195.103922) scale(0.1 -0.1)">
       <use xlink:href="#DejaVuSans-13"/>
      </g>
     </g>
    </g>
    <g id="ytick_5">
     <g id="line2d_24">
      <g>
       <use xlink:href="#m588ec80c05" x="44.103906" y="150.699369" style="stroke: #000000; stroke-width: 0.8"/>
      </g>
     </g>
     <g id="text_6">
      <!-- 5 -->
      <g transform="translate(30.741406 154.498197) scale(0.1 -0.1)">
       <use xlink:href="#DejaVuSans-18"/>
      </g>
     </g>
    </g>
    <g id="ytick_6">
     <g id="line2d_25">
      <g>
       <use xlink:href="#m588ec80c05" x="44.103906" y="110.093645" style="stroke: #000000; stroke-width: 0.8"/>
      </g>
     </g>
     <g id="text_7">
      <!-- 10 -->
      <g transform="translate(24.378906 113.892473) scale(0.1 -0.1)">
       <use xlink:href="#DejaVuSans-14"/>
       <use xlink:href="#DejaVuSans-13" transform="translate(63.625 0)"/>
      </g>
     </g>
    </g>
    <g id="text_8">
     <!-- LacY -->
     <g transform="translate(17.976563 162.352494) rotate(-90) scale(0.1 -0.1)">
      <defs>
       <path id="DejaVuSans-2f" d="M 628 4666 
L 1259 4666 
L 1259 531 
L 3531 531 
L 3531 0 
L 628 0 
L 628 4666 
z
" transform="scale(0.015625)"/>
       <path id="DejaVuSans-3c" d="M -13 4666 
L 666 4666 
L 1959 2747 
L 3244 4666 
L 3922 4666 
L 2272 2222 
L 2272 0 
L 1638 0 
L 1638 2222 
L -13 4666 
z
" transform="scale(0.015625)"/>
      </defs>
      <use xlink:href="#DejaVuSans-2f"/>
      <use xlink:href="#DejaVuSans-44" transform="translate(55.71875 0)"/>
      <use xlink:href="#DejaVuSans-46" transform="translate(117 0)"/>
      <use xlink:href="#DejaVuSans-3c" transform="translate(171.984375 0)"/>
     </g>
    </g>
   </g>
   <g id="line2d_26">
    <path d="M 56.88098 110.093645 
L 56.907607 110.093645 
L 57.037768 126.335935 
L 57.126502 142.578225 
L 57.275806 142.578225 
L 57.293177 134.45708 
L 57.509701 142.578225 
L 57.648953 142.578225 
L 57.81646 158.820514 
L 58.111817 175.062804 
L 58.176227 191.305093 
L 59.678029 191.305093 
L 59.841581 183.183949 
L 59.883535 191.305093 
L 64.813576 191.305093 
L 65.130582 183.183949 
L 65.23851 191.305093 
L 82.412361 191.305093 
L 82.603187 183.183949 
L 84.363464 191.305093 
L 84.378017 183.183949 
L 84.518585 175.062804 
L 84.523154 166.941659 
L 84.83938 175.062804 
L 85.062163 175.062804 
L 85.179593 191.305093 
L 85.239293 183.183949 
L 85.426015 183.183949 
L 85.56195 191.305093 
L 89.38248 191.305093 
L 89.765098 175.062804 
L 89.766375 166.941659 
L 90.255827 166.941659 
L 90.293783 183.183949 
L 91.051704 183.183949 
L 91.217516 175.062804 
L 91.555465 191.305093 
L 108.247401 191.305093 
L 108.351151 183.183949 
L 108.468654 183.183949 
L 108.605185 191.305093 
L 108.835859 191.305093 
L 108.87658 183.183949 
L 109.284882 183.183949 
L 109.628368 175.062804 
L 109.685641 183.183949 
L 109.857682 183.183949 
L 109.886717 191.305093 
L 118.485174 191.305093 
L 118.660319 183.183949 
L 120.721981 183.183949 
L 122.53551 191.305093 
L 130.160826 191.305093 
L 130.343671 183.183949 
L 130.625951 183.183949 
L 130.731748 191.305093 
L 134.987923 191.305093 
L 135.070116 183.183949 
L 135.09158 191.305093 
L 144.900752 191.305093 
L 145.156807 175.062804 
L 145.177257 183.183949 
L 145.205732 175.062804 
L 145.316766 166.941659 
L 145.322009 175.062804 
L 145.896016 175.062804 
L 146.501866 183.183949 
L 146.742694 183.183949 
L 147.052171 175.062804 
L 147.162982 175.062804 
L 148.215221 191.305093 
L 148.666947 191.305093 
L 148.717875 175.062804 
L 148.816899 175.062804 
L 148.966927 183.183949 
L 149.098192 183.183949 
L 149.631136 191.305093 
L 154.655658 191.305093 
L 155.076083 183.183949 
L 155.311966 150.699369 
L 155.585222 150.699369 
L 155.705189 166.941659 
L 155.731847 166.941659 
L 155.845557 158.820514 
L 155.967887 158.820514 
L 156.074176 175.062804 
L 156.289573 175.062804 
L 156.40201 183.183949 
L 156.532269 166.941659 
L 156.582112 166.941659 
L 156.619358 158.820514 
L 156.679519 166.941659 
L 156.851142 166.941659 
L 156.954066 175.062804 
L 157.188035 175.062804 
L 157.29105 191.305093 
L 157.334362 191.305093 
L 157.474092 175.062804 
L 157.632719 175.062804 
L 157.740555 166.941659 
L 157.756493 166.941659 
L 157.883866 158.820514 
L 158.000462 158.820514 
L 158.110408 150.699369 
L 158.239712 150.699369 
L 158.346026 158.820514 
L 158.448823 150.699369 
L 158.456804 158.820514 
L 158.531821 158.820514 
L 158.638082 166.941659 
L 158.850516 166.941659 
L 158.951878 175.062804 
L 159.281827 175.062804 
L 159.431647 191.305093 
L 159.601895 191.305093 
L 159.736361 183.183949 
L 159.830093 183.183949 
L 159.970453 166.941659 
L 160.159083 166.941659 
L 160.279025 183.183949 
L 160.347719 183.183949 
L 160.506834 166.941659 
L 160.520663 175.062804 
L 160.537566 175.062804 
L 160.647963 166.941659 
L 160.714603 166.941659 
L 160.812303 175.062804 
L 160.971453 175.062804 
L 160.983771 166.941659 
L 161.075098 175.062804 
L 161.111711 175.062804 
L 161.200118 183.183949 
L 161.339576 175.062804 
L 161.606058 175.062804 
L 161.628368 166.941659 
L 161.633065 183.183949 
L 161.700584 183.183949 
L 162.196192 183.183949 
L 162.302041 175.062804 
L 162.512065 175.062804 
L 162.619049 166.941659 
L 162.769228 166.941659 
L 162.860662 158.820514 
L 162.873738 166.941659 
L 162.956922 166.941659 
L 163.034027 175.062804 
L 163.066473 166.941659 
L 163.104809 166.941659 
L 163.156613 175.062804 
L 163.215643 166.941659 
L 163.239562 166.941659 
L 163.316258 175.062804 
L 163.345057 166.941659 
L 163.449889 166.941659 
L 163.557248 158.820514 
L 163.968916 158.820514 
L 164.068769 166.941659 
L 164.179799 166.941659 
L 164.257904 183.183949 
L 164.309515 183.183949 
L 164.356706 175.062804 
L 164.417652 183.183949 
L 164.675386 183.183949 
L 164.782592 166.941659 
L 165.443248 166.941659 
L 165.55439 175.062804 
L 166.541786 175.062804 
L 166.700045 166.941659 
L 166.789458 166.941659 
L 166.903226 175.062804 
L 167.236227 175.062804 
L 167.357203 183.183949 
L 167.467155 183.183949 
L 167.637798 191.305093 
L 167.681595 191.305093 
L 167.749382 183.183949 
L 167.994836 183.183949 
L 168.051293 175.062804 
L 168.102062 183.183949 
L 168.204848 183.183949 
L 168.249125 175.062804 
L 168.315808 183.183949 
L 168.357121 183.183949 
L 168.467473 191.305093 
L 168.665397 183.183949 
L 168.813714 183.183949 
L 168.884541 191.305093 
L 169.50593 191.305093 
L 169.622583 183.183949 
L 169.694276 191.305093 
L 169.777364 191.305093 
L 169.83029 183.183949 
L 169.935336 183.183949 
L 170.037181 191.305093 
L 170.138247 191.305093 
L 170.286398 183.183949 
L 170.396269 183.183949 
L 170.528742 175.062804 
L 170.63165 183.183949 
L 170.714925 175.062804 
L 170.737339 183.183949 
L 170.746086 183.183949 
L 170.876045 175.062804 
L 170.888866 175.062804 
L 170.99444 166.941659 
L 171.183101 166.941659 
L 171.318353 158.820514 
L 171.65775 158.820514 
L 171.81199 134.45708 
L 171.987383 134.45708 
L 172.083941 150.699369 
L 172.084582 142.578225 
L 172.224864 134.45708 
L 172.336478 142.578225 
L 172.374585 142.578225 
L 172.448152 150.699369 
L 172.483623 142.578225 
L 172.659922 142.578225 
L 172.777168 158.820514 
L 173.038078 158.820514 
L 173.152283 166.941659 
L 173.551961 166.941659 
L 173.625976 183.183949 
L 173.651478 175.062804 
L 173.790731 183.183949 
L 173.933936 183.183949 
L 174.052575 191.305093 
L 174.301535 191.305093 
L 174.454418 183.183949 
L 174.480157 191.305093 
L 174.520081 175.062804 
L 175.009137 175.062804 
L 175.163176 183.183949 
L 175.274355 183.183949 
L 175.274669 175.062804 
L 175.321486 191.305093 
L 175.38006 191.305093 
L 175.600028 191.305093 
L 175.794918 166.941659 
L 175.950879 175.062804 
L 176.138242 175.062804 
L 176.366057 183.183949 
L 176.425394 175.062804 
L 176.438716 183.183949 
L 176.600628 191.305093 
L 176.696387 183.183949 
L 176.72561 183.183949 
L 176.907776 166.941659 
L 177.024857 175.062804 
L 177.092677 166.941659 
L 177.11733 175.062804 
L 177.187694 175.062804 
L 177.26645 158.820514 
L 177.345288 166.941659 
L 177.366469 166.941659 
L 177.522571 175.062804 
L 177.576255 175.062804 
L 177.604018 183.183949 
L 177.670566 175.062804 
L 177.722083 175.062804 
L 177.800711 183.183949 
L 177.824796 175.062804 
L 178.290959 175.062804 
L 178.409819 166.941659 
L 178.487291 166.941659 
L 178.497384 158.820514 
L 178.707624 158.820514 
L 178.812783 150.699369 
L 178.940878 166.941659 
L 178.979366 166.941659 
L 179.037647 175.062804 
L 179.134558 175.062804 
L 179.259633 183.183949 
L 179.505188 183.183949 
L 179.569999 175.062804 
L 179.602038 183.183949 
L 179.624525 183.183949 
L 179.834983 158.820514 
L 179.948615 158.820514 
L 180.175331 175.062804 
L 180.233933 158.820514 
L 180.26129 175.062804 
L 180.380518 175.062804 
L 180.512637 158.820514 
L 180.610685 166.941659 
L 180.639409 166.941659 
L 180.726777 175.062804 
L 180.743396 166.941659 
L 180.787884 166.941659 
L 180.947599 158.820514 
L 181.391668 158.820514 
L 181.476863 150.699369 
L 181.670703 150.699369 
L 181.672334 158.820514 
L 181.767089 150.699369 
L 181.793581 150.699369 
L 181.888397 158.820514 
L 182.016953 150.699369 
L 182.37343 150.699369 
L 182.527544 158.820514 
L 182.636256 158.820514 
L 182.708953 166.941659 
L 182.71464 158.820514 
L 182.798844 158.820514 
L 182.89474 166.941659 
L 183.06401 166.941659 
L 183.167722 175.062804 
L 183.453417 175.062804 
L 183.54261 166.941659 
L 183.593463 166.941659 
L 183.653425 158.820514 
L 183.691878 166.941659 
L 183.839182 166.941659 
L 183.892418 158.820514 
L 183.937676 166.941659 
L 183.980292 166.941659 
L 184.040937 150.699369 
L 184.16811 150.699369 
L 184.264277 158.820514 
L 184.571841 158.820514 
L 184.664828 166.941659 
L 184.768383 158.820514 
L 184.845596 158.820514 
L 184.951097 150.699369 
L 184.979491 150.699369 
L 185.013121 142.578225 
L 185.047042 158.820514 
L 185.081595 158.820514 
L 185.234673 158.820514 
L 185.33239 175.062804 
L 185.448686 175.062804 
L 185.557089 166.941659 
L 185.646643 183.183949 
L 186.050309 183.183949 
L 186.178114 175.062804 
L 186.294602 183.183949 
L 186.949724 183.183949 
L 187.142637 191.305093 
L 187.897538 191.305093 
L 188.08704 183.183949 
L 189.382376 183.183949 
L 189.512932 175.062804 
L 189.60482 183.183949 
L 189.848695 183.183949 
L 189.854841 191.305093 
L 189.946169 183.183949 
L 190.126703 175.062804 
L 190.307088 175.062804 
L 190.388109 183.183949 
L 190.451545 183.183949 
L 190.59874 166.941659 
L 190.637579 166.941659 
L 190.802885 183.183949 
L 190.972619 183.183949 
L 190.989787 191.305093 
L 191.18465 183.183949 
L 191.481464 191.305093 
L 191.629374 191.305093 
L 191.790655 150.699369 
L 191.936083 150.699369 
L 191.969314 158.820514 
L 191.981843 150.699369 
L 192.144999 142.578225 
L 192.341266 142.578225 
L 192.458032 158.820514 
L 192.551918 150.699369 
L 192.65069 150.699369 
L 192.756802 175.062804 
L 193.048554 175.062804 
L 193.202472 183.183949 
L 194.140977 183.183949 
L 194.218705 191.305093 
L 198.745124 191.305093 
L 199.282658 183.183949 
L 199.409171 175.062804 
L 199.498718 191.305093 
L 199.801314 191.305093 
L 199.895772 183.183949 
L 200.201449 183.183949 
L 200.280645 175.062804 
L 200.33519 183.183949 
L 200.351058 175.062804 
L 200.52602 166.941659 
L 200.61208 158.820514 
L 200.791556 175.062804 
L 200.851873 175.062804 
L 200.940943 166.941659 
L 201.116154 191.305093 
L 201.213895 191.305093 
L 201.245478 166.941659 
L 201.354403 175.062804 
L 201.558387 175.062804 
L 201.633368 166.941659 
L 201.802265 166.941659 
L 201.996915 142.578225 
L 202.048897 142.578225 
L 202.075352 150.699369 
L 202.095201 142.578225 
L 202.366891 142.578225 
L 202.491271 158.820514 
L 202.530258 158.820514 
L 202.671426 166.941659 
L 202.686729 158.820514 
L 202.766826 166.941659 
L 202.962689 166.941659 
L 202.964382 175.062804 
L 203.082522 166.941659 
L 203.248866 175.062804 
L 203.835778 175.062804 
L 203.945269 158.820514 
L 204.06264 158.820514 
L 204.118818 150.699369 
L 204.173641 158.820514 
L 204.197923 150.699369 
L 204.238173 166.941659 
L 204.260713 166.941659 
L 204.384415 150.699369 
L 204.405645 158.820514 
L 204.483936 158.820514 
L 204.583242 166.941659 
L 204.756995 166.941659 
L 204.775781 175.062804 
L 204.82159 166.941659 
L 204.879228 166.941659 
L 204.915742 175.062804 
L 204.981826 166.941659 
L 205.057975 166.941659 
L 205.142684 175.062804 
L 205.655626 175.062804 
L 205.741068 191.305093 
L 205.960842 191.305093 
L 206.058599 183.183949 
L 206.174473 175.062804 
L 206.186941 183.183949 
L 206.247379 175.062804 
L 206.372808 183.183949 
L 206.931629 183.183949 
L 207.100982 175.062804 
L 207.363143 175.062804 
L 207.441781 183.183949 
L 207.969865 191.305093 
L 208.561809 191.305093 
L 209.045022 175.062804 
L 209.244258 158.820514 
L 209.370727 158.820514 
L 209.400531 166.941659 
L 209.759532 166.941659 
L 209.90939 175.062804 
L 210.204643 183.183949 
L 210.431197 175.062804 
L 210.503207 166.941659 
L 210.793212 158.820514 
L 210.911361 158.820514 
L 210.99322 150.699369 
L 211.000656 158.820514 
L 211.085688 158.820514 
L 211.28109 175.062804 
L 211.399893 166.941659 
L 211.514168 183.183949 
L 211.844404 183.183949 
L 211.876675 191.305093 
L 212.66216 191.305093 
L 212.775936 183.183949 
L 212.943469 191.305093 
L 213.178664 183.183949 
L 213.337615 183.183949 
L 213.362446 191.305093 
L 213.545502 191.305093 
L 213.589758 183.183949 
L 213.863829 183.183949 
L 213.89217 191.305093 
L 214.387211 183.183949 
L 215.399883 183.183949 
L 215.451204 191.305093 
L 215.470755 183.183949 
L 215.524977 183.183949 
L 215.592616 175.062804 
L 215.62232 183.183949 
L 218.664082 183.183949 
L 219.010275 191.305093 
L 220.999574 191.305093 
L 221.184545 183.183949 
L 221.304235 191.305093 
L 231.598894 191.305093 
L 231.746179 183.183949 
L 231.967211 191.305093 
L 247.038516 191.305093 
L 247.360102 183.183949 
L 247.492071 183.183949 
L 247.529681 191.305093 
L 247.707674 183.183949 
L 248.231018 183.183949 
L 248.395455 175.062804 
L 248.474045 183.183949 
L 248.771419 183.183949 
L 248.932001 191.305093 
L 251.0119 191.305093 
L 251.317433 183.183949 
L 251.875288 183.183949 
L 252.200002 191.305093 
L 263.741882 191.305093 
L 263.918839 183.183949 
L 264.000831 166.941659 
L 264.165581 166.941659 
L 264.284006 175.062804 
L 265.142052 191.305093 
L 266.372862 191.305093 
L 266.6732 183.183949 
L 266.81705 183.183949 
L 266.900629 191.305093 
L 280.22653 191.305093 
L 280.459072 166.941659 
L 280.675135 191.305093 
L 280.807741 175.062804 
L 280.840295 183.183949 
L 280.925914 183.183949 
L 280.994195 175.062804 
L 281.240672 191.305093 
L 281.396377 166.941659 
L 281.411051 175.062804 
L 281.4733 175.062804 
L 281.546919 166.941659 
L 281.744678 166.941659 
L 281.757954 158.820514 
L 281.828307 166.941659 
L 281.973252 166.941659 
L 282.058175 175.062804 
L 282.122215 166.941659 
L 282.13791 175.062804 
L 282.182578 175.062804 
L 282.278173 166.941659 
L 282.383159 183.183949 
L 282.515291 175.062804 
L 282.592283 183.183949 
L 282.733536 183.183949 
L 282.880358 175.062804 
L 282.925156 183.183949 
L 283.206572 183.183949 
L 283.350507 175.062804 
L 283.423069 183.183949 
L 283.534901 183.183949 
L 283.613124 191.305093 
L 283.768207 183.183949 
L 283.917969 183.183949 
L 284.303203 175.062804 
L 284.34772 166.941659 
L 284.373619 175.062804 
L 284.507012 175.062804 
L 284.596178 166.941659 
L 284.828729 175.062804 
L 284.979558 183.183949 
L 285.093647 175.062804 
L 285.206492 183.183949 
L 285.322466 175.062804 
L 285.4202 166.941659 
L 285.426224 175.062804 
L 285.548406 175.062804 
L 285.611139 158.820514 
L 285.670334 166.941659 
L 285.73282 166.941659 
L 285.938349 175.062804 
L 286.006292 166.941659 
L 286.212341 166.941659 
L 286.264066 175.062804 
L 286.436008 175.062804 
L 286.513302 191.305093 
L 286.574069 183.183949 
L 286.810199 183.183949 
L 286.843595 191.305093 
L 286.908989 183.183949 
L 287.02077 175.062804 
L 287.102725 166.941659 
L 287.296817 183.183949 
L 287.459916 175.062804 
L 287.462769 166.941659 
L 287.670868 166.941659 
L 288.012467 191.305093 
L 288.274877 175.062804 
L 288.387972 175.062804 
L 288.442275 166.941659 
L 288.539306 166.941659 
L 288.558281 175.062804 
L 288.712208 183.183949 
L 288.860237 183.183949 
L 289.094982 175.062804 
L 289.226396 158.820514 
L 289.265797 158.820514 
L 289.426223 150.699369 
L 289.503904 158.820514 
L 289.756561 150.699369 
L 289.814988 166.941659 
L 289.823757 158.820514 
L 289.894881 166.941659 
L 290.137359 166.941659 
L 290.434148 175.062804 
L 290.672019 183.183949 
L 290.716756 175.062804 
L 290.832986 175.062804 
L 290.929032 183.183949 
L 291.005091 175.062804 
L 291.03515 183.183949 
L 291.198615 183.183949 
L 291.392702 175.062804 
L 291.499378 191.305093 
L 291.620226 191.305093 
L 291.691727 183.183949 
L 291.824192 191.305093 
L 291.919939 191.305093 
L 292.254962 183.183949 
L 292.27367 191.305093 
L 292.640311 183.183949 
L 292.666868 191.305093 
L 292.947216 191.305093 
L 293.187452 183.183949 
L 293.204846 191.305093 
L 293.264004 183.183949 
L 293.455431 166.941659 
L 293.599122 166.941659 
L 293.680832 175.062804 
L 293.845325 183.183949 
L 294.094658 175.062804 
L 294.226709 183.183949 
L 294.540084 183.183949 
L 294.608162 191.305093 
L 294.893255 183.183949 
L 295.000519 175.062804 
L 295.237351 183.183949 
L 295.37814 183.183949 
L 295.590716 175.062804 
L 295.761331 183.183949 
L 295.948045 166.941659 
L 296.03893 191.305093 
L 296.549894 175.062804 
L 296.724593 183.183949 
L 297.069224 183.183949 
L 297.168651 191.305093 
L 301.561187 191.305093 
L 301.647917 183.183949 
L 302.009025 191.305093 
L 312.422447 191.305093 
L 312.422447 191.305093 
" clip-path="url(#p701cf4955d)" style="fill: none; stroke: #000000; stroke-width: 1.5; stroke-linecap: square"/>
   </g>
   <g id="patch_8">
    <path d="M 44.103906 195.365666 
L 44.103906 106.033073 
" style="fill: none; stroke: #000000; stroke-width: 0.8; stroke-linejoin: miter; stroke-linecap: square"/>
   </g>
   <g id="patch_9">
    <path d="M 325.19952 195.365666 
L 325.19952 106.033073 
" style="fill: none; stroke: #000000; stroke-width: 0.8; stroke-linejoin: miter; stroke-linecap: square"/>
   </g>
   <g id="patch_10">
    <path d="M 44.103906 195.365666 
L 325.19952 195.365666 
" style="fill: none; stroke: #000000; stroke-width: 0.8; stroke-linejoin: miter; stroke-linecap: square"/>
   </g>
   <g id="patch_11">
    <path d="M 44.103906 106.033073 
L 325.19952 106.033073 
" style="fill: none; stroke: #000000; stroke-width: 0.8; stroke-linejoin: miter; stroke-linecap: square"/>
   </g>
  </g>
  <g id="axes_3">
   <g id="patch_12">
    <path d="M 44.103906 294.198739 
L 325.19952 294.198739 
L 325.19952 204.866146 
L 44.103906 204.866146 
z
" style="fill: #ffffff"/>
   </g>
   <g id="matplotlib.axis_5">
    <g id="xtick_19">
     <g id="line2d_27">
      <g>
       <use xlink:href="#m0a57f4d2ff" x="56.88098" y="294.198739" style="stroke: #000000; stroke-width: 0.8"/>
      </g>
     </g>
     <g id="text_9">
      <!-- 0 -->
      <g transform="translate(53.69973 308.796395) scale(0.1 -0.1)">
       <use xlink:href="#DejaVuSans-13"/>
      </g>
     </g>
    </g>
    <g id="xtick_20">
     <g id="line2d_28">
      <g>
       <use xlink:href="#m0a57f4d2ff" x="88.205901" y="294.198739" style="stroke: #000000; stroke-width: 0.8"/>
      </g>
     </g>
     <g id="text_10">
      <!-- 100 -->
      <g transform="translate(78.662151 308.796395) scale(0.1 -0.1)">
       <use xlink:href="#DejaVuSans-14"/>
       <use xlink:href="#DejaVuSans-13" transform="translate(63.625 0)"/>
       <use xlink:href="#DejaVuSans-13" transform="translate(127.25 0)"/>
      </g>
     </g>
    </g>
    <g id="xtick_21">
     <g id="line2d_29">
      <g>
       <use xlink:href="#m0a57f4d2ff" x="119.530823" y="294.198739" style="stroke: #000000; stroke-width: 0.8"/>
      </g>
     </g>
     <g id="text_11">
      <!-- 200 -->
      <g transform="translate(109.987073 308.796395) scale(0.1 -0.1)">
       <defs>
        <path id="DejaVuSans-15" d="M 1228 531 
L 3431 531 
L 3431 0 
L 469 0 
L 469 531 
Q 828 903 1448 1529 
Q 2069 2156 2228 2338 
Q 2531 2678 2651 2914 
Q 2772 3150 2772 3378 
Q 2772 3750 2511 3984 
Q 2250 4219 1831 4219 
Q 1534 4219 1204 4116 
Q 875 4013 500 3803 
L 500 4441 
Q 881 4594 1212 4672 
Q 1544 4750 1819 4750 
Q 2544 4750 2975 4387 
Q 3406 4025 3406 3419 
Q 3406 3131 3298 2873 
Q 3191 2616 2906 2266 
Q 2828 2175 2409 1742 
Q 1991 1309 1228 531 
z
" transform="scale(0.015625)"/>
       </defs>
       <use xlink:href="#DejaVuSans-15"/>
       <use xlink:href="#DejaVuSans-13" transform="translate(63.625 0)"/>
       <use xlink:href="#DejaVuSans-13" transform="translate(127.25 0)"/>
      </g>
     </g>
    </g>
    <g id="xtick_22">
     <g id="line2d_30">
      <g>
       <use xlink:href="#m0a57f4d2ff" x="150.855745" y="294.198739" style="stroke: #000000; stroke-width: 0.8"/>
      </g>
     </g>
     <g id="text_12">
      <!-- 300 -->
      <g transform="translate(141.311995 308.796395) scale(0.1 -0.1)">
       <defs>
        <path id="DejaVuSans-16" d="M 2597 2516 
Q 3050 2419 3304 2112 
Q 3559 1806 3559 1356 
Q 3559 666 3084 287 
Q 2609 -91 1734 -91 
Q 1441 -91 1130 -33 
Q 819 25 488 141 
L 488 750 
Q 750 597 1062 519 
Q 1375 441 1716 441 
Q 2309 441 2620 675 
Q 2931 909 2931 1356 
Q 2931 1769 2642 2001 
Q 2353 2234 1838 2234 
L 1294 2234 
L 1294 2753 
L 1863 2753 
Q 2328 2753 2575 2939 
Q 2822 3125 2822 3475 
Q 2822 3834 2567 4026 
Q 2313 4219 1838 4219 
Q 1578 4219 1281 4162 
Q 984 4106 628 3988 
L 628 4550 
Q 988 4650 1302 4700 
Q 1616 4750 1894 4750 
Q 2613 4750 3031 4423 
Q 3450 4097 3450 3541 
Q 3450 3153 3228 2886 
Q 3006 2619 2597 2516 
z
" transform="scale(0.015625)"/>
       </defs>
       <use xlink:href="#DejaVuSans-16"/>
       <use xlink:href="#DejaVuSans-13" transform="translate(63.625 0)"/>
       <use xlink:href="#DejaVuSans-13" transform="translate(127.25 0)"/>
      </g>
     </g>
    </g>
    <g id="xtick_23">
     <g id="line2d_31">
      <g>
       <use xlink:href="#m0a57f4d2ff" x="182.180667" y="294.198739" style="stroke: #000000; stroke-width: 0.8"/>
      </g>
     </g>
     <g id="text_13">
      <!-- 400 -->
      <g transform="translate(172.636917 308.796395) scale(0.1 -0.1)">
       <defs>
        <path id="DejaVuSans-17" d="M 2419 4116 
L 825 1625 
L 2419 1625 
L 2419 4116 
z
M 2253 4666 
L 3047 4666 
L 3047 1625 
L 3713 1625 
L 3713 1100 
L 3047 1100 
L 3047 0 
L 2419 0 
L 2419 1100 
L 313 1100 
L 313 1709 
L 2253 4666 
z
" transform="scale(0.015625)"/>
       </defs>
       <use xlink:href="#DejaVuSans-17"/>
       <use xlink:href="#DejaVuSans-13" transform="translate(63.625 0)"/>
       <use xlink:href="#DejaVuSans-13" transform="translate(127.25 0)"/>
      </g>
     </g>
    </g>
    <g id="xtick_24">
     <g id="line2d_32">
      <g>
       <use xlink:href="#m0a57f4d2ff" x="213.505589" y="294.198739" style="stroke: #000000; stroke-width: 0.8"/>
      </g>
     </g>
     <g id="text_14">
      <!-- 500 -->
      <g transform="translate(203.961839 308.796395) scale(0.1 -0.1)">
       <use xlink:href="#DejaVuSans-18"/>
       <use xlink:href="#DejaVuSans-13" transform="translate(63.625 0)"/>
       <use xlink:href="#DejaVuSans-13" transform="translate(127.25 0)"/>
      </g>
     </g>
    </g>
    <g id="xtick_25">
     <g id="line2d_33">
      <g>
       <use xlink:href="#m0a57f4d2ff" x="244.830511" y="294.198739" style="stroke: #000000; stroke-width: 0.8"/>
      </g>
     </g>
     <g id="text_15">
      <!-- 600 -->
      <g transform="translate(235.286761 308.796395) scale(0.1 -0.1)">
       <defs>
        <path id="DejaVuSans-19" d="M 2113 2584 
Q 1688 2584 1439 2293 
Q 1191 2003 1191 1497 
Q 1191 994 1439 701 
Q 1688 409 2113 409 
Q 2538 409 2786 701 
Q 3034 994 3034 1497 
Q 3034 2003 2786 2293 
Q 2538 2584 2113 2584 
z
M 3366 4563 
L 3366 3988 
Q 3128 4100 2886 4159 
Q 2644 4219 2406 4219 
Q 1781 4219 1451 3797 
Q 1122 3375 1075 2522 
Q 1259 2794 1537 2939 
Q 1816 3084 2150 3084 
Q 2853 3084 3261 2657 
Q 3669 2231 3669 1497 
Q 3669 778 3244 343 
Q 2819 -91 2113 -91 
Q 1303 -91 875 529 
Q 447 1150 447 2328 
Q 447 3434 972 4092 
Q 1497 4750 2381 4750 
Q 2619 4750 2861 4703 
Q 3103 4656 3366 4563 
z
" transform="scale(0.015625)"/>
       </defs>
       <use xlink:href="#DejaVuSans-19"/>
       <use xlink:href="#DejaVuSans-13" transform="translate(63.625 0)"/>
       <use xlink:href="#DejaVuSans-13" transform="translate(127.25 0)"/>
      </g>
     </g>
    </g>
    <g id="xtick_26">
     <g id="line2d_34">
      <g>
       <use xlink:href="#m0a57f4d2ff" x="276.155433" y="294.198739" style="stroke: #000000; stroke-width: 0.8"/>
      </g>
     </g>
     <g id="text_16">
      <!-- 700 -->
      <g transform="translate(266.611683 308.796395) scale(0.1 -0.1)">
       <defs>
        <path id="DejaVuSans-1a" d="M 525 4666 
L 3525 4666 
L 3525 4397 
L 1831 0 
L 1172 0 
L 2766 4134 
L 525 4134 
L 525 4666 
z
" transform="scale(0.015625)"/>
       </defs>
       <use xlink:href="#DejaVuSans-1a"/>
       <use xlink:href="#DejaVuSans-13" transform="translate(63.625 0)"/>
       <use xlink:href="#DejaVuSans-13" transform="translate(127.25 0)"/>
      </g>
     </g>
    </g>
    <g id="xtick_27">
     <g id="line2d_35">
      <g>
       <use xlink:href="#m0a57f4d2ff" x="307.480354" y="294.198739" style="stroke: #000000; stroke-width: 0.8"/>
      </g>
     </g>
     <g id="text_17">
      <!-- 800 -->
      <g transform="translate(297.936604 308.796395) scale(0.1 -0.1)">
       <defs>
        <path id="DejaVuSans-1b" d="M 2034 2216 
Q 1584 2216 1326 1975 
Q 1069 1734 1069 1313 
Q 1069 891 1326 650 
Q 1584 409 2034 409 
Q 2484 409 2743 651 
Q 3003 894 3003 1313 
Q 3003 1734 2745 1975 
Q 2488 2216 2034 2216 
z
M 1403 2484 
Q 997 2584 770 2862 
Q 544 3141 544 3541 
Q 544 4100 942 4425 
Q 1341 4750 2034 4750 
Q 2731 4750 3128 4425 
Q 3525 4100 3525 3541 
Q 3525 3141 3298 2862 
Q 3072 2584 2669 2484 
Q 3125 2378 3379 2068 
Q 3634 1759 3634 1313 
Q 3634 634 3220 271 
Q 2806 -91 2034 -91 
Q 1263 -91 848 271 
Q 434 634 434 1313 
Q 434 1759 690 2068 
Q 947 2378 1403 2484 
z
M 1172 3481 
Q 1172 3119 1398 2916 
Q 1625 2713 2034 2713 
Q 2441 2713 2670 2916 
Q 2900 3119 2900 3481 
Q 2900 3844 2670 4047 
Q 2441 4250 2034 4250 
Q 1625 4250 1398 4047 
Q 1172 3844 1172 3481 
z
" transform="scale(0.015625)"/>
       </defs>
       <use xlink:href="#DejaVuSans-1b"/>
       <use xlink:href="#DejaVuSans-13" transform="translate(63.625 0)"/>
       <use xlink:href="#DejaVuSans-13" transform="translate(127.25 0)"/>
      </g>
     </g>
    </g>
    <g id="text_18">
     <!-- Time -->
     <g transform="translate(172.415776 322.797176) scale(0.1 -0.1)">
      <defs>
       <path id="DejaVuSans-37" d="M -19 4666 
L 3928 4666 
L 3928 4134 
L 2272 4134 
L 2272 0 
L 1638 0 
L 1638 4134 
L -19 4134 
L -19 4666 
z
" transform="scale(0.015625)"/>
       <path id="DejaVuSans-4c" d="M 603 3500 
L 1178 3500 
L 1178 0 
L 603 0 
L 603 3500 
z
M 603 4863 
L 1178 4863 
L 1178 4134 
L 603 4134 
L 603 4863 
z
" transform="scale(0.015625)"/>
       <path id="DejaVuSans-50" d="M 3328 2828 
Q 3544 3216 3844 3400 
Q 4144 3584 4550 3584 
Q 5097 3584 5394 3201 
Q 5691 2819 5691 2113 
L 5691 0 
L 5113 0 
L 5113 2094 
Q 5113 2597 4934 2840 
Q 4756 3084 4391 3084 
Q 3944 3084 3684 2787 
Q 3425 2491 3425 1978 
L 3425 0 
L 2847 0 
L 2847 2094 
Q 2847 2600 2669 2842 
Q 2491 3084 2119 3084 
Q 1678 3084 1418 2786 
Q 1159 2488 1159 1978 
L 1159 0 
L 581 0 
L 581 3500 
L 1159 3500 
L 1159 2956 
Q 1356 3278 1631 3431 
Q 1906 3584 2284 3584 
Q 2666 3584 2933 3390 
Q 3200 3197 3328 2828 
z
" transform="scale(0.015625)"/>
      </defs>
      <use xlink:href="#DejaVuSans-37"/>
      <use xlink:href="#DejaVuSans-4c" transform="translate(58 0)"/>
      <use xlink:href="#DejaVuSans-50" transform="translate(85.78125 0)"/>
      <use xlink:href="#DejaVuSans-48" transform="translate(183.1875 0)"/>
     </g>
    </g>
   </g>
   <g id="matplotlib.axis_6">
    <g id="ytick_7">
     <g id="line2d_36">
      <g>
       <use xlink:href="#m588ec80c05" x="44.103906" y="290.138166" style="stroke: #000000; stroke-width: 0.8"/>
      </g>
     </g>
     <g id="text_19">
      <!-- 0.0 -->
      <g transform="translate(21.200781 293.936994) scale(0.1 -0.1)">
       <defs>
        <path id="DejaVuSans-11" d="M 684 794 
L 1344 794 
L 1344 0 
L 684 0 
L 684 794 
z
" transform="scale(0.015625)"/>
       </defs>
       <use xlink:href="#DejaVuSans-13"/>
       <use xlink:href="#DejaVuSans-11" transform="translate(63.625 0)"/>
       <use xlink:href="#DejaVuSans-13" transform="translate(95.40625 0)"/>
      </g>
     </g>
    </g>
    <g id="ytick_8">
     <g id="line2d_37">
      <g>
       <use xlink:href="#m588ec80c05" x="44.103906" y="249.532442" style="stroke: #000000; stroke-width: 0.8"/>
      </g>
     </g>
     <g id="text_20">
      <!-- 0.5 -->
      <g transform="translate(21.200781 253.33127) scale(0.1 -0.1)">
       <use xlink:href="#DejaVuSans-13"/>
       <use xlink:href="#DejaVuSans-11" transform="translate(63.625 0)"/>
       <use xlink:href="#DejaVuSans-18" transform="translate(95.40625 0)"/>
      </g>
     </g>
    </g>
    <g id="ytick_9">
     <g id="line2d_38">
      <g>
       <use xlink:href="#m588ec80c05" x="44.103906" y="208.926718" style="stroke: #000000; stroke-width: 0.8"/>
      </g>
     </g>
     <g id="text_21">
      <!-- 1.0 -->
      <g transform="translate(21.200781 212.725546) scale(0.1 -0.1)">
       <use xlink:href="#DejaVuSans-14"/>
       <use xlink:href="#DejaVuSans-11" transform="translate(63.625 0)"/>
       <use xlink:href="#DejaVuSans-13" transform="translate(95.40625 0)"/>
      </g>
     </g>
    </g>
    <g id="text_22">
     <!-- Free lac operon -->
     <g transform="translate(14.798438 288.006661) rotate(-90) scale(0.1 -0.1)">
      <defs>
       <path id="DejaVuSans-29" d="M 628 4666 
L 3309 4666 
L 3309 4134 
L 1259 4134 
L 1259 2759 
L 3109 2759 
L 3109 2228 
L 1259 2228 
L 1259 0 
L 628 0 
L 628 4666 
z
" transform="scale(0.015625)"/>
       <path id="DejaVuSans-53" d="M 1159 525 
L 1159 -1331 
L 581 -1331 
L 581 3500 
L 1159 3500 
L 1159 2969 
Q 1341 3281 1617 3432 
Q 1894 3584 2278 3584 
Q 2916 3584 3314 3078 
Q 3713 2572 3713 1747 
Q 3713 922 3314 415 
Q 2916 -91 2278 -91 
Q 1894 -91 1617 61 
Q 1341 213 1159 525 
z
M 3116 1747 
Q 3116 2381 2855 2742 
Q 2594 3103 2138 3103 
Q 1681 3103 1420 2742 
Q 1159 2381 1159 1747 
Q 1159 1113 1420 752 
Q 1681 391 2138 391 
Q 2594 391 2855 752 
Q 3116 1113 3116 1747 
z
" transform="scale(0.015625)"/>
       <path id="DejaVuSans-51" d="M 3513 2113 
L 3513 0 
L 2938 0 
L 2938 2094 
Q 2938 2591 2744 2837 
Q 2550 3084 2163 3084 
Q 1697 3084 1428 2787 
Q 1159 2491 1159 1978 
L 1159 0 
L 581 0 
L 581 3500 
L 1159 3500 
L 1159 2956 
Q 1366 3272 1645 3428 
Q 1925 3584 2291 3584 
Q 2894 3584 3203 3211 
Q 3513 2838 3513 2113 
z
" transform="scale(0.015625)"/>
      </defs>
      <use xlink:href="#DejaVuSans-29"/>
      <use xlink:href="#DejaVuSans-55" transform="translate(50.234375 0)"/>
      <use xlink:href="#DejaVuSans-48" transform="translate(89.140625 0)"/>
      <use xlink:href="#DejaVuSans-48" transform="translate(150.671875 0)"/>
      <use xlink:href="#DejaVuSans-3" transform="translate(212.203125 0)"/>
      <use xlink:href="#DejaVuSans-4f" transform="translate(243.984375 0)"/>
      <use xlink:href="#DejaVuSans-44" transform="translate(271.765625 0)"/>
      <use xlink:href="#DejaVuSans-46" transform="translate(333.046875 0)"/>
      <use xlink:href="#DejaVuSans-3" transform="translate(388.03125 0)"/>
      <use xlink:href="#DejaVuSans-52" transform="translate(419.8125 0)"/>
      <use xlink:href="#DejaVuSans-53" transform="translate(481 0)"/>
      <use xlink:href="#DejaVuSans-48" transform="translate(544.484375 0)"/>
      <use xlink:href="#DejaVuSans-55" transform="translate(606.015625 0)"/>
      <use xlink:href="#DejaVuSans-52" transform="translate(644.921875 0)"/>
      <use xlink:href="#DejaVuSans-51" transform="translate(706.109375 0)"/>
     </g>
    </g>
   </g>
   <g id="line2d_39">
    <path d="M 56.88098 208.926718 
L 56.961098 290.138166 
L 57.126502 290.138166 
L 57.293177 208.926718 
L 57.409319 208.926718 
L 57.509701 290.138166 
L 58.705142 290.138166 
L 59.678029 208.926718 
L 59.86118 208.926718 
L 59.883535 290.138166 
L 62.263501 290.138166 
L 64.813576 208.926718 
L 65.10342 208.926718 
L 65.23851 290.138166 
L 65.362226 290.138166 
L 71.910522 208.926718 
L 72.077403 290.138166 
L 79.782694 208.926718 
L 79.83089 290.138166 
L 82.412361 208.926718 
L 82.549952 208.926718 
L 82.603187 290.138166 
L 84.313704 290.138166 
L 84.378017 208.926718 
L 85.239293 208.926718 
L 85.426015 290.138166 
L 86.441159 290.138166 
L 89.38248 208.926718 
L 89.913232 208.926718 
L 89.942009 290.138166 
L 90.293783 290.138166 
L 91.160071 208.926718 
L 91.217516 290.138166 
L 91.555465 290.138166 
L 108.337684 208.926718 
L 108.351151 290.138166 
L 108.605185 290.138166 
L 108.87658 208.926718 
L 109.159008 290.138166 
L 109.284882 208.926718 
L 109.685641 208.926718 
L 109.886717 290.138166 
L 110.17434 290.138166 
L 114.265113 208.926718 
L 114.914407 290.138166 
L 116.52828 208.926718 
L 116.838104 290.138166 
L 117.498994 208.926718 
L 117.584821 290.138166 
L 118.576866 208.926718 
L 118.660319 290.138166 
L 122.53551 290.138166 
L 128.451104 208.926718 
L 128.555233 290.138166 
L 130.267616 208.926718 
L 130.710675 208.926718 
L 130.731748 290.138166 
L 132.540468 290.138166 
L 135.09158 208.926718 
L 135.104658 290.138166 
L 137.93629 208.926718 
L 137.978288 290.138166 
L 144.900752 208.926718 
L 145.828875 208.926718 
L 145.896016 290.138166 
L 146.501866 290.138166 
L 146.742694 208.926718 
L 147.052171 208.926718 
L 147.162982 290.138166 
L 148.215221 290.138166 
L 148.717875 208.926718 
L 148.816899 290.138166 
L 149.918757 290.138166 
L 149.929883 208.926718 
L 150.088648 290.138166 
L 154.323211 208.926718 
L 154.410618 290.138166 
L 154.655658 208.926718 
L 192.880389 208.926718 
L 192.902703 290.138166 
L 198.286935 290.138166 
L 198.603973 208.926718 
L 203.533592 208.926718 
L 203.53428 290.138166 
L 203.645674 290.138166 
L 203.867932 208.926718 
L 205.633795 208.926718 
L 205.741068 290.138166 
L 205.891304 290.138166 
L 206.058599 208.926718 
L 207.263123 208.926718 
L 207.363143 290.138166 
L 207.969865 290.138166 
L 208.395742 208.926718 
L 211.650984 208.926718 
L 211.682123 290.138166 
L 212.393358 290.138166 
L 212.66216 208.926718 
L 214.387211 208.926718 
L 214.794611 290.138166 
L 215.295008 290.138166 
L 215.470755 208.926718 
L 215.62232 208.926718 
L 215.792797 290.138166 
L 219.010275 290.138166 
L 220.455797 208.926718 
L 220.551775 290.138166 
L 220.999574 208.926718 
L 221.304235 208.926718 
L 221.471159 290.138166 
L 221.523435 208.926718 
L 221.574151 290.138166 
L 222.821109 290.138166 
L 231.598894 208.926718 
L 231.741717 208.926718 
L 231.746179 290.138166 
L 232.229309 290.138166 
L 243.017072 208.926718 
L 243.153126 290.138166 
L 245.347965 208.926718 
L 245.67733 290.138166 
L 246.873081 208.926718 
L 246.897031 290.138166 
L 247.038516 208.926718 
L 248.352601 208.926718 
L 248.356863 290.138166 
L 248.418941 208.926718 
L 248.474045 208.926718 
L 248.771419 290.138166 
L 248.932001 290.138166 
L 251.0119 208.926718 
L 251.304749 208.926718 
L 251.317433 290.138166 
L 252.200002 290.138166 
L 263.358972 208.926718 
L 263.491446 290.138166 
L 263.741882 208.926718 
L 264.049449 208.926718 
L 264.165581 290.138166 
L 265.142052 290.138166 
L 266.372862 208.926718 
L 266.580462 208.926718 
L 266.6732 290.138166 
L 266.825405 208.926718 
L 266.900629 290.138166 
L 267.514685 208.926718 
L 267.828922 290.138166 
L 273.821011 208.926718 
L 274.0578 290.138166 
L 278.43258 208.926718 
L 278.452709 290.138166 
L 280.298236 208.926718 
L 296.937518 208.926718 
L 297.168651 290.138166 
L 297.681233 290.138166 
L 297.814273 208.926718 
L 297.892974 290.138166 
L 297.941999 290.138166 
L 299.580377 208.926718 
L 299.729664 290.138166 
L 299.815955 208.926718 
L 299.893359 290.138166 
L 301.63493 208.926718 
L 301.647917 290.138166 
L 302.363625 290.138166 
L 303.88668 208.926718 
L 303.896477 290.138166 
L 305.533799 208.926718 
L 305.615775 290.138166 
L 312.422447 208.926718 
L 312.422447 208.926718 
" clip-path="url(#p22fe83652d)" style="fill: none; stroke: #000000; stroke-width: 1.5; stroke-linecap: square"/>
   </g>
   <g id="patch_13">
    <path d="M 44.103906 294.198739 
L 44.103906 204.866146 
" style="fill: none; stroke: #000000; stroke-width: 0.8; stroke-linejoin: miter; stroke-linecap: square"/>
   </g>
   <g id="patch_14">
    <path d="M 325.19952 294.198739 
L 325.19952 204.866146 
" style="fill: none; stroke: #000000; stroke-width: 0.8; stroke-linejoin: miter; stroke-linecap: square"/>
   </g>
   <g id="patch_15">
    <path d="M 44.103906 294.198739 
L 325.19952 294.198739 
" style="fill: none; stroke: #000000; stroke-width: 0.8; stroke-linejoin: miter; stroke-linecap: square"/>
   </g>
   <g id="patch_16">
    <path d="M 44.103906 204.866146 
L 325.19952 204.866146 
" style="fill: none; stroke: #000000; stroke-width: 0.8; stroke-linejoin: miter; stroke-linecap: square"/>
   </g>
  </g>
 </g>
 <defs>
  <clipPath id="p70082cec45">
   <rect x="44.103906" y="7.2" width="281.095614" height="89.332593"/>
  </clipPath>
  <clipPath id="p701cf4955d">
   <rect x="44.103906" y="106.033073" width="281.095614" height="89.332593"/>
  </clipPath>
  <clipPath id="p22fe83652d">
   <rect x="44.103906" y="204.866146" width="281.095614" height="89.332593"/>
  </clipPath>
 </defs>
</svg>
