<?xml version="1.0" encoding="utf-8" standalone="no"?>
<!DOCTYPE svg PUBLIC "-//W3C//DTD SVG 1.1//EN"
  "http://www.w3.org/Graphics/SVG/1.1/DTD/svg11.dtd">
<svg xmlns:xlink="http://www.w3.org/1999/xlink" width="332.39952pt" height="332.39952pt" viewBox="0 0 332.39952 332.39952" xmlns="http://www.w3.org/2000/svg" version="1.1">
 <metadata>
  <rdf:RDF xmlns:dc="http://purl.org/dc/elements/1.1/" xmlns:cc="http://creativecommons.org/ns#" xmlns:rdf="http://www.w3.org/1999/02/22-rdf-syntax-ns#">
   <cc:Work>
    <dc:type rdf:resource="http://purl.org/dc/dcmitype/StillImage"/>
    <dc:date>2026-07-10T15:52:56.010625</dc:date>
    <dc:format>image/svg+xml</dc:format>
    <dc:creator>
     <cc:Agent>
      <dc:title>Matplotlib v3.11.0, https://matplotlib.org/</dc:title>
     </cc:Agent>
    </dc:creator>
   </cc:Work>
  </rdf:RDF>
 </metadata>
 <defs>
  <style type="text/css">*{stroke-linejoin: round; stroke-linecap: butt}</style>
 </defs>
 <g id="figure_1">
  <g id="patch_1">
   <path d="M 0 332.39952 
L 332.39952 332.39952 
L 332.39952 0 
L 0 0 
z
" style="fill: #ffffff"/>
  </g>
  <g id="axes_1">
   <g id="patch_2">
    <path d="M 44.103906 96.532593 
L 325.19952 96.532593 
L 325.19952 7.2 
L 44.103906 7.2 
z
" style="fill: #ffffff"/>
   </g>
   <g id="matplotlib.axis_1">
    <g id="xtick_1">
     <g id="line2d_1">
      <defs>
       <path id="m2d979ba667" d="M 0 0 
L 0 3.5 
" style="stroke: #000000; stroke-width: 0.8"/>
      </defs>
      <g>
       <use xlink:href="#m2d979ba667" x="56.88098" y="96.532593" style="stroke: #000000; stroke-width: 0.8"/>
      </g>
     </g>
    </g>
    <g id="xtick_2">
     <g id="line2d_2">
      <g>
       <use xlink:href="#m2d979ba667" x="88.648875" y="96.532593" style="stroke: #000000; stroke-width: 0.8"/>
      </g>
     </g>
    </g>
    <g id="xtick_3">
     <g id="line2d_3">
      <g>
       <use xlink:href="#m2d979ba667" x="120.41677" y="96.532593" style="stroke: #000000; stroke-width: 0.8"/>
      </g>
     </g>
    </g>
    <g id="xtick_4">
     <g id="line2d_4">
      <g>
       <use xlink:href="#m2d979ba667" x="152.184665" y="96.532593" style="stroke: #000000; stroke-width: 0.8"/>
      </g>
     </g>
    </g>
    <g id="xtick_5">
     <g id="line2d_5">
      <g>
       <use xlink:href="#m2d979ba667" x="183.952561" y="96.532593" style="stroke: #000000; stroke-width: 0.8"/>
      </g>
     </g>
    </g>
    <g id="xtick_6">
     <g id="line2d_6">
      <g>
       <use xlink:href="#m2d979ba667" x="215.720456" y="96.532593" style="stroke: #000000; stroke-width: 0.8"/>
      </g>
     </g>
    </g>
    <g id="xtick_7">
     <g id="line2d_7">
      <g>
       <use xlink:href="#m2d979ba667" x="247.488351" y="96.532593" style="stroke: #000000; stroke-width: 0.8"/>
      </g>
     </g>
    </g>
    <g id="xtick_8">
     <g id="line2d_8">
      <g>
       <use xlink:href="#m2d979ba667" x="279.256247" y="96.532593" style="stroke: #000000; stroke-width: 0.8"/>
      </g>
     </g>
    </g>
    <g id="xtick_9">
     <g id="line2d_9">
      <g>
       <use xlink:href="#m2d979ba667" x="311.024142" y="96.532593" style="stroke: #000000; stroke-width: 0.8"/>
      </g>
     </g>
    </g>
   </g>
   <g id="matplotlib.axis_2">
    <g id="ytick_1">
     <g id="line2d_10">
      <defs>
       <path id="madce795e62" d="M 0 0 
L -3.5 0 
" style="stroke: #000000; stroke-width: 0.8"/>
      </defs>
      <g>
       <use xlink:href="#madce795e62" x="44.103906" y="92.472021" style="stroke: #000000; stroke-width: 0.8"/>
      </g>
     </g>
     <g id="text_1">
      <!-- 0 -->
      <g transform="translate(30.741406 96.270849) scale(0.1 -0.1)">
       <defs>
        <path id="DejaVuSans-13" d="M 2034 4250 
Q 1547 4250 1301 3770 
Q 1056 3291 1056 2328 
Q 1056 1369 1301 889 
Q 1547 409 2034 409 
Q 2525 409 2770 889 
Q 3016 1369 3016 2328 
Q 3016 3291 2770 3770 
Q 2525 4250 2034 4250 
z
M 2034 4750 
Q 2819 4750 3233 4129 
Q 3647 3509 3647 2328 
Q 3647 1150 3233 529 
Q 2819 -91 2034 -91 
Q 1250 -91 836 529 
Q 422 1150 422 2328 
Q 422 3509 836 4129 
Q 1250 4750 2034 4750 
z
" transform="scale(0.015625)"/>
       </defs>
       <use xlink:href="#DejaVuSans-13"/>
      </g>
     </g>
    </g>
    <g id="ytick_2">
     <g id="line2d_11">
      <g>
       <use xlink:href="#madce795e62" x="44.103906" y="51.866296" style="stroke: #000000; stroke-width: 0.8"/>
      </g>
     </g>
     <g id="text_2">
      <!-- 5 -->
      <g transform="translate(30.741406 55.665125) scale(0.1 -0.1)">
       <defs>
        <path id="DejaVuSans-18" d="M 691 4666 
L 3169 4666 
L 3169 4134 
L 1269 4134 
L 1269 2991 
Q 1406 3038 1543 3061 
Q 1681 3084 1819 3084 
Q 2600 3084 3056 2656 
Q 3513 2228 3513 1497 
Q 3513 744 3044 326 
Q 2575 -91 1722 -91 
Q 1428 -91 1123 -41 
Q 819 9 494 109 
L 494 744 
Q 775 591 1075 516 
Q 1375 441 1709 441 
Q 2250 441 2565 725 
Q 2881 1009 2881 1497 
Q 2881 1984 2565 2268 
Q 2250 2553 1709 2553 
Q 1456 2553 1204 2497 
Q 953 2441 691 2322 
L 691 4666 
z
" transform="scale(0.015625)"/>
       </defs>
       <use xlink:href="#DejaVuSans-18"/>
      </g>
     </g>
    </g>
    <g id="ytick_3">
     <g id="line2d_12">
      <g>
       <use xlink:href="#madce795e62" x="44.103906" y="11.260572" style="stroke: #000000; stroke-width: 0.8"/>
      </g>
     </g>
     <g id="text_3">
      <!-- 10 -->
      <g transform="translate(24.378906 15.059401) scale(0.1 -0.1)">
       <defs>
        <path id="DejaVuSans-14" d="M 794 531 
L 1825 531 
L 1825 4091 
L 703 3866 
L 703 4441 
L 1819 4666 
L 2450 4666 
L 2450 531 
L 3481 531 
L 3481 0 
L 794 0 
L 794 531 
z
" transform="scale(0.015625)"/>
       </defs>
       <use xlink:href="#DejaVuSans-14"/>
       <use xlink:href="#DejaVuSans-13" transform="translate(63.625 0)"/>
      </g>
     </g>
    </g>
    <g id="text_4">
     <!-- Extracellular lactose -->
     <g transform="translate(17.976563 102.838171) rotate(-90) scale(0.1 -0.1)">
      <defs>
       <path id="DejaVuSans-28" d="M 628 4666 
L 3578 4666 
L 3578 4134 
L 1259 4134 
L 1259 2753 
L 3481 2753 
L 3481 2222 
L 1259 2222 
L 1259 531 
L 3634 531 
L 3634 0 
L 628 0 
L 628 4666 
z
" transform="scale(0.015625)"/>
       <path id="DejaVuSans-5b" d="M 3513 3500 
L 2247 1797 
L 3578 0 
L 2900 0 
L 1881 1375 
L 863 0 
L 184 0 
L 1544 1831 
L 300 3500 
L 978 3500 
L 1906 2253 
L 2834 3500 
L 3513 3500 
z
" transform="scale(0.015625)"/>
       <path id="DejaVuSans-57" d="M 1172 4494 
L 1172 3500 
L 2356 3500 
L 2356 3053 
L 1172 3053 
L 1172 1153 
Q 1172 725 1289 603 
Q 1406 481 1766 481 
L 2356 481 
L 2356 0 
L 1766 0 
Q 1100 0 847 248 
Q 594 497 594 1153 
L 594 3053 
L 172 3053 
L 172 3500 
L 594 3500 
L 594 4494 
L 1172 4494 
z
" transform="scale(0.015625)"/>
       <path id="DejaVuSans-55" d="M 2631 2963 
Q 2534 3019 2420 3045 
Q 2306 3072 2169 3072 
Q 1681 3072 1420 2755 
Q 1159 2438 1159 1844 
L 1159 0 
L 581 0 
L 581 3500 
L 1159 3500 
L 1159 2956 
Q 1341 3275 1631 3429 
Q 1922 3584 2338 3584 
Q 2397 3584 2469 3576 
Q 2541 3569 2628 3553 
L 2631 2963 
z
" transform="scale(0.015625)"/>
       <path id="DejaVuSans-44" d="M 2194 1759 
Q 1497 1759 1228 1600 
Q 959 1441 959 1056 
Q 959 750 1161 570 
Q 1363 391 1709 391 
Q 2188 391 2477 730 
Q 2766 1069 2766 1631 
L 2766 1759 
L 2194 1759 
z
M 3341 1997 
L 3341 0 
L 2766 0 
L 2766 531 
Q 2569 213 2275 61 
Q 1981 -91 1556 -91 
Q 1019 -91 701 211 
Q 384 513 384 1019 
Q 384 1609 779 1909 
Q 1175 2209 1959 2209 
L 2766 2209 
L 2766 2266 
Q 2766 2663 2505 2880 
Q 2244 3097 1772 3097 
Q 1472 3097 1187 3025 
Q 903 2953 641 2809 
L 641 3341 
Q 956 3463 1253 3523 
Q 1550 3584 1831 3584 
Q 2591 3584 2966 3190 
Q 3341 2797 3341 1997 
z
" transform="scale(0.015625)"/>
       <path id="DejaVuSans-46" d="M 3122 3366 
L 3122 2828 
Q 2878 2963 2633 3030 
Q 2388 3097 2138 3097 
Q 1578 3097 1268 2742 
Q 959 2388 959 1747 
Q 959 1106 1268 751 
Q 1578 397 2138 397 
Q 2388 397 2633 464 
Q 2878 531 3122 666 
L 3122 134 
Q 2881 22 2623 -34 
Q 2366 -91 2075 -91 
Q 1284 -91 818 406 
Q 353 903 353 1747 
Q 353 2603 823 3093 
Q 1294 3584 2113 3584 
Q 2378 3584 2631 3529 
Q 2884 3475 3122 3366 
z
" transform="scale(0.015625)"/>
       <path id="DejaVuSans-48" d="M 3597 1894 
L 3597 1613 
L 953 1613 
Q 991 1019 1311 708 
Q 1631 397 2203 397 
Q 2534 397 2845 478 
Q 3156 559 3463 722 
L 3463 178 
Q 3153 47 2828 -22 
Q 2503 -91 2169 -91 
Q 1331 -91 842 396 
Q 353 884 353 1716 
Q 353 2575 817 3079 
Q 1281 3584 2069 3584 
Q 2775 3584 3186 3129 
Q 3597 2675 3597 1894 
z
M 3022 2063 
Q 3016 2534 2758 2815 
Q 2500 3097 2075 3097 
Q 1594 3097 1305 2825 
Q 1016 2553 972 2059 
L 3022 2063 
z
" transform="scale(0.015625)"/>
       <path id="DejaVuSans-4f" d="M 603 4863 
L 1178 4863 
L 1178 0 
L 603 0 
L 603 4863 
z
" transform="scale(0.015625)"/>
       <path id="DejaVuSans-58" d="M 544 1381 
L 544 3500 
L 1119 3500 
L 1119 1403 
Q 1119 906 1312 657 
Q 1506 409 1894 409 
Q 2359 409 2629 706 
Q 2900 1003 2900 1516 
L 2900 3500 
L 3475 3500 
L 3475 0 
L 2900 0 
L 2900 538 
Q 2691 219 2414 64 
Q 2138 -91 1772 -91 
Q 1169 -91 856 284 
Q 544 659 544 1381 
z
M 1991 3584 
L 1991 3584 
z
" transform="scale(0.015625)"/>
       <path id="DejaVuSans-3" transform="scale(0.015625)"/>
       <path id="DejaVuSans-52" d="M 1959 3097 
Q 1497 3097 1228 2736 
Q 959 2375 959 1747 
Q 959 1119 1226 758 
Q 1494 397 1959 397 
Q 2419 397 2687 759 
Q 2956 1122 2956 1747 
Q 2956 2369 2687 2733 
Q 2419 3097 1959 3097 
z
M 1959 3584 
Q 2709 3584 3137 3096 
Q 3566 2609 3566 1747 
Q 3566 888 3137 398 
Q 2709 -91 1959 -91 
Q 1206 -91 779 398 
Q 353 888 353 1747 
Q 353 2609 779 3096 
Q 1206 3584 1959 3584 
z
" transform="scale(0.015625)"/>
       <path id="DejaVuSans-56" d="M 2834 3397 
L 2834 2853 
Q 2591 2978 2328 3040 
Q 2066 3103 1784 3103 
Q 1356 3103 1142 2972 
Q 928 2841 928 2578 
Q 928 2378 1081 2264 
Q 1234 2150 1697 2047 
L 1894 2003 
Q 2506 1872 2764 1633 
Q 3022 1394 3022 966 
Q 3022 478 2636 193 
Q 2250 -91 1575 -91 
Q 1294 -91 989 -36 
Q 684 19 347 128 
L 347 722 
Q 666 556 975 473 
Q 1284 391 1588 391 
Q 1994 391 2212 530 
Q 2431 669 2431 922 
Q 2431 1156 2273 1281 
Q 2116 1406 1581 1522 
L 1381 1569 
Q 847 1681 609 1914 
Q 372 2147 372 2553 
Q 372 3047 722 3315 
Q 1072 3584 1716 3584 
Q 2034 3584 2315 3537 
Q 2597 3491 2834 3397 
z
" transform="scale(0.015625)"/>
      </defs>
      <use xlink:href="#DejaVuSans-28"/>
      <use xlink:href="#DejaVuSans-5b" transform="translate(63.1875 0)"/>
      <use xlink:href="#DejaVuSans-57" transform="translate(122.375 0)"/>
      <use xlink:href="#DejaVuSans-55" transform="translate(161.578125 0)"/>
      <use xlink:href="#DejaVuSans-44" transform="translate(202.6875 0)"/>
      <use xlink:href="#DejaVuSans-46" transform="translate(263.96875 0)"/>
      <use xlink:href="#DejaVuSans-48" transform="translate(318.953125 0)"/>
      <use xlink:href="#DejaVuSans-4f" transform="translate(380.484375 0)"/>
      <use xlink:href="#DejaVuSans-4f" transform="translate(408.265625 0)"/>
      <use xlink:href="#DejaVuSans-58" transform="translate(436.046875 0)"/>
      <use xlink:href="#DejaVuSans-4f" transform="translate(499.421875 0)"/>
      <use xlink:href="#DejaVuSans-44" transform="translate(527.203125 0)"/>
      <use xlink:href="#DejaVuSans-55" transform="translate(588.484375 0)"/>
      <use xlink:href="#DejaVuSans-3" transform="translate(629.59375 0)"/>
      <use xlink:href="#DejaVuSans-4f" transform="translate(661.375 0)"/>
      <use xlink:href="#DejaVuSans-44" transform="translate(689.15625 0)"/>
      <use xlink:href="#DejaVuSans-46" transform="translate(750.4375 0)"/>
      <use xlink:href="#DejaVuSans-57" transform="translate(805.421875 0)"/>
      <use xlink:href="#DejaVuSans-52" transform="translate(844.625 0)"/>
      <use xlink:href="#DejaVuSans-56" transform="translate(905.8125 0)"/>
      <use xlink:href="#DejaVuSans-48" transform="translate(957.90625 0)"/>
     </g>
    </g>
   </g>
   <g id="line2d_13">
    <path d="M 56.88098 92.472021 
L 155.701166 92.472021 
L 155.789809 11.260572 
L 156.454392 11.341784 
L 156.571479 11.66663 
L 156.616066 11.747841 
L 156.761514 13.209647 
L 156.879252 14.833876 
L 156.89301 14.915088 
L 157.035791 16.620528 
L 157.05922 16.701739 
L 157.566201 20.193832 
L 157.842016 20.599889 
L 157.901007 20.6811 
L 158.009626 20.762312 
L 158.457923 20.843523 
L 158.554289 21.249581 
L 158.793859 21.655638 
L 158.893808 22.061695 
L 159.013756 22.142906 
L 159.115976 22.630175 
L 159.145818 22.711387 
L 159.254231 23.604713 
L 159.350965 24.498038 
L 159.68832 25.878633 
L 159.734072 25.959845 
L 159.990918 27.421651 
L 160.110994 28.477399 
L 160.124686 28.558611 
L 160.44055 31.157377 
L 161.012305 33.593721 
L 161.144789 34.080989 
L 161.195813 34.162201 
L 161.353778 34.893104 
L 161.515825 34.974315 
L 161.66595 35.380372 
L 161.847614 35.624007 
L 162.401507 35.705218 
L 162.526076 36.111276 
L 162.859844 36.679756 
L 162.961862 36.760967 
L 163.105378 37.329447 
L 163.121827 37.410659 
L 163.235116 37.573082 
L 163.363861 37.654293 
L 163.468681 37.816716 
L 163.605232 37.897927 
L 163.897428 38.547619 
L 164.091855 38.791253 
L 164.202927 39.034888 
L 164.308116 39.116099 
L 164.479251 39.928214 
L 164.642153 40.82154 
L 164.774241 41.227597 
L 164.833805 41.714865 
L 165.007946 42.770614 
L 165.13811 42.851826 
L 165.239834 43.339094 
L 165.363301 43.582729 
L 165.444034 43.66394 
L 165.55291 43.988786 
L 166.311843 46.181495 
L 166.6186 46.262707 
L 166.775566 46.506341 
L 166.88325 46.587552 
L 167.049116 46.668764 
L 167.192791 46.99361 
L 167.280298 47.074821 
L 167.493379 47.399667 
L 167.626288 47.480878 
L 168.539804 50.079645 
L 168.621339 50.160856 
L 168.718712 50.242067 
L 168.819374 50.323279 
L 168.912448 50.485702 
L 169.084353 50.729336 
L 169.345168 50.891759 
L 169.747978 50.972971 
L 169.934571 51.379028 
L 170.053507 51.703874 
L 170.287543 52.109931 
L 170.450933 52.678411 
L 170.66393 53.409314 
L 170.722588 53.490525 
L 170.867447 53.896583 
L 170.931332 53.977794 
L 171.164388 54.465063 
L 171.245882 54.546274 
L 171.471574 55.520812 
L 171.530357 56.00808 
L 172.220725 60.312287 
L 172.260626 60.393499 
L 172.386579 60.880767 
L 172.542565 61.286824 
L 172.614596 61.936516 
L 172.726973 62.261362 
L 172.926038 62.748631 
L 173.066409 62.829842 
L 173.169242 62.992265 
L 173.186749 63.073476 
L 173.468077 64.048014 
L 173.590483 64.129225 
L 173.729189 64.454071 
L 173.763674 64.535282 
L 173.941728 65.266185 
L 174.031977 65.347397 
L 174.141994 65.753454 
L 174.15519 65.834666 
L 174.300516 66.403146 
L 174.308358 66.484357 
L 174.457857 67.296472 
L 174.487136 67.377683 
L 174.688923 67.621317 
L 174.817155 67.702529 
L 174.896363 67.864952 
L 175.031419 67.946163 
L 175.153461 68.189798 
L 175.357251 68.271009 
L 175.468168 68.758278 
L 175.805357 68.839489 
L 175.911205 69.001912 
L 175.940227 69.083123 
L 176.107593 69.407969 
L 176.160993 69.489181 
L 176.274855 69.976449 
L 176.31337 70.057661 
L 176.457458 70.54493 
L 176.497567 70.626141 
L 176.614681 70.950987 
L 176.968754 71.925524 
L 177.101084 72.006736 
L 177.211636 72.331581 
L 177.287385 72.412793 
L 177.429958 72.737639 
L 177.697237 72.981273 
L 177.83804 73.062484 
L 177.954549 73.143696 
L 178.175524 73.224907 
L 178.399604 73.468542 
L 178.493454 73.549753 
L 179.117261 75.173982 
L 179.233592 75.255194 
L 179.431903 75.498828 
L 180.141697 75.580039 
L 180.253952 75.742462 
L 180.291004 75.823674 
L 180.363686 75.904885 
L 180.45646 75.986097 
L 180.570123 76.067308 
L 181.894725 76.148519 
L 182.113759 76.635788 
L 182.428216 76.717 
L 182.814958 77.041845 
L 184.163402 77.123057 
L 184.364039 77.366691 
L 184.406932 77.447903 
L 184.531787 77.529114 
L 184.850514 77.610326 
L 185.011696 77.691537 
L 185.585052 78.016383 
L 185.710012 78.097594 
L 185.937395 78.178806 
L 186.19792 78.828497 
L 186.299207 78.99092 
L 186.486116 79.072132 
L 186.590777 79.153343 
L 187.121114 79.234554 
L 187.316099 79.5594 
L 187.463959 79.640612 
L 187.546904 79.803035 
L 187.700696 79.965458 
L 187.925616 80.046669 
L 188.451941 80.371515 
L 188.546501 80.615149 
L 188.691071 80.858783 
L 188.827827 80.939995 
L 188.952723 81.427264 
L 189.063324 81.508475 
L 189.198656 81.752109 
L 189.436449 81.833321 
L 189.623228 82.076955 
L 189.74877 82.239378 
L 190.129233 82.320589 
L 190.182239 82.483012 
L 190.393227 82.564224 
L 190.473416 82.645435 
L 190.957242 82.726647 
L 191.083885 82.970281 
L 191.172957 83.051493 
L 191.365163 83.295127 
L 191.4677 83.619973 
L 191.568487 83.701184 
L 191.79586 83.782396 
L 192.745799 84.513299 
L 192.890558 84.59451 
L 193.049371 84.756933 
L 193.356279 84.838144 
L 193.51052 85.000567 
L 193.872153 85.16299 
L 194.547551 85.244202 
L 194.642617 85.325413 
L 195.200729 85.406625 
L 195.330673 85.487836 
L 196.227378 85.569047 
L 196.358085 85.73147 
L 196.697643 85.812682 
L 196.805596 85.975105 
L 197.072299 86.056316 
L 197.185368 86.381162 
L 197.322926 86.462373 
L 197.536487 86.543585 
L 197.731022 86.624796 
L 197.8958 86.787219 
L 198.125655 86.868431 
L 198.574884 87.193276 
L 198.680091 87.355699 
L 198.92641 87.436911 
L 199.179759 87.518122 
L 199.814587 87.599334 
L 200.139017 87.842968 
L 200.496905 87.924179 
L 201.055215 88.167814 
L 201.128622 88.330237 
L 201.493083 88.411448 
L 201.522238 88.49266 
L 202.120062 88.573871 
L 202.306298 88.655082 
L 202.420796 88.817505 
L 203.301946 88.898717 
L 203.397205 88.979928 
L 204.016546 89.06114 
L 204.326712 89.304774 
L 204.854227 89.385985 
L 204.980536 89.467197 
L 205.125421 89.548408 
L 206.390157 89.62962 
L 206.609541 89.710831 
L 208.096648 89.792043 
L 208.543238 89.873254 
L 209.752939 89.954466 
L 209.862066 90.035677 
L 212.082036 90.116889 
L 212.269787 90.1981 
L 214.766251 90.279311 
L 215.346511 90.360523 
L 220.733817 90.522946 
L 250.921013 90.604157 
L 251.840648 90.685369 
L 281.23384 90.76658 
L 281.378827 90.847792 
L 282.071585 90.929003 
L 282.184524 91.010214 
L 283.036504 91.091426 
L 283.087192 91.172637 
L 286.062975 91.253849 
L 286.06776 91.33506 
L 287.202212 91.416272 
L 288.87942 91.497483 
L 289.906331 91.578695 
L 290.024877 91.659906 
L 290.312032 91.741117 
L 290.417612 91.822329 
L 309.470808 91.90354 
L 309.689749 91.984752 
L 310.705217 92.147175 
L 312.422447 92.147175 
L 312.422447 92.147175 
" clip-path="url(#p371fc3e932)" style="fill: none; stroke: #000000; stroke-width: 1.5; stroke-linecap: square"/>
   </g>
   <g id="patch_3">
    <path d="M 44.103906 96.532593 
L 44.103906 7.2 
" style="fill: none; stroke: #000000; stroke-width: 0.8; stroke-linejoin: miter; stroke-linecap: square"/>
   </g>
   <g id="patch_4">
    <path d="M 325.19952 96.532593 
L 325.19952 7.2 
" style="fill: none; stroke: #000000; stroke-width: 0.8; stroke-linejoin: miter; stroke-linecap: square"/>
   </g>
   <g id="patch_5">
    <path d="M 44.103906 96.532593 
L 325.19952 96.532593 
" style="fill: none; stroke: #000000; stroke-width: 0.8; stroke-linejoin: miter; stroke-linecap: square"/>
   </g>
   <g id="patch_6">
    <path d="M 44.103906 7.2 
L 325.19952 7.2 
" style="fill: none; stroke: #000000; stroke-width: 0.8; stroke-linejoin: miter; stroke-linecap: square"/>
   </g>
  </g>
  <g id="axes_2">
   <g id="patch_7">
    <path d="M 44.103906 195.365666 
L 325.19952 195.365666 
L 325.19952 106.033073 
L 44.103906 106.033073 
z
" style="fill: #ffffff"/>
   </g>
   <g id="matplotlib.axis_3">
    <g id="xtick_10">
     <g id="line2d_14">
      <g>
       <use xlink:href="#m2d979ba667" x="56.88098" y="195.365666" style="stroke: #000000; stroke-width: 0.8"/>
      </g>
     </g>
    </g>
    <g id="xtick_11">
     <g id="line2d_15">
      <g>
       <use xlink:href="#m2d979ba667" x="88.648875" y="195.365666" style="stroke: #000000; stroke-width: 0.8"/>
      </g>
     </g>
    </g>
    <g id="xtick_12">
     <g id="line2d_16">
      <g>
       <use xlink:href="#m2d979ba667" x="120.41677" y="195.365666" style="stroke: #000000; stroke-width: 0.8"/>
      </g>
     </g>
    </g>
    <g id="xtick_13">
     <g id="line2d_17">
      <g>
       <use xlink:href="#m2d979ba667" x="152.184665" y="195.365666" style="stroke: #000000; stroke-width: 0.8"/>
      </g>
     </g>
    </g>
    <g id="xtick_14">
     <g id="line2d_18">
      <g>
       <use xlink:href="#m2d979ba667" x="183.952561" y="195.365666" style="stroke: #000000; stroke-width: 0.8"/>
      </g>
     </g>
    </g>
    <g id="xtick_15">
     <g id="line2d_19">
      <g>
       <use xlink:href="#m2d979ba667" x="215.720456" y="195.365666" style="stroke: #000000; stroke-width: 0.8"/>
      </g>
     </g>
    </g>
    <g id="xtick_16">
     <g id="line2d_20">
      <g>
       <use xlink:href="#m2d979ba667" x="247.488351" y="195.365666" style="stroke: #000000; stroke-width: 0.8"/>
      </g>
     </g>
    </g>
    <g id="xtick_17">
     <g id="line2d_21">
      <g>
       <use xlink:href="#m2d979ba667" x="279.256247" y="195.365666" style="stroke: #000000; stroke-width: 0.8"/>
      </g>
     </g>
    </g>
    <g id="xtick_18">
     <g id="line2d_22">
      <g>
       <use xlink:href="#m2d979ba667" x="311.024142" y="195.365666" style="stroke: #000000; stroke-width: 0.8"/>
      </g>
     </g>
    </g>
   </g>
   <g id="matplotlib.axis_4">
    <g id="ytick_4">
     <g id="line2d_23">
      <g>
       <use xlink:href="#madce795e62" x="44.103906" y="191.305093" style="stroke: #000000; stroke-width: 0.8"/>
      </g>
     </g>
     <g id="text_5">
      <!-- 0 -->
      <g transform="translate(30.741406 195.103922) scale(0.1 -0.1)">
       <use xlink:href="#DejaVuSans-13"/>
      </g>
     </g>
    </g>
    <g id="ytick_5">
     <g id="line2d_24">
      <g>
       <use xlink:href="#madce795e62" x="44.103906" y="150.699369" style="stroke: #000000; stroke-width: 0.8"/>
      </g>
     </g>
     <g id="text_6">
      <!-- 5 -->
      <g transform="translate(30.741406 154.498197) scale(0.1 -0.1)">
       <use xlink:href="#DejaVuSans-18"/>
      </g>
     </g>
    </g>
    <g id="ytick_6">
     <g id="line2d_25">
      <g>
       <use xlink:href="#madce795e62" x="44.103906" y="110.093645" style="stroke: #000000; stroke-width: 0.8"/>
      </g>
     </g>
     <g id="text_7">
      <!-- 10 -->
      <g transform="translate(24.378906 113.892473) scale(0.1 -0.1)">
       <use xlink:href="#DejaVuSans-14"/>
       <use xlink:href="#DejaVuSans-13" transform="translate(63.625 0)"/>
      </g>
     </g>
    </g>
    <g id="text_8">
     <!-- LacY -->
     <g transform="translate(17.976563 162.352494) rotate(-90) scale(0.1 -0.1)">
      <defs>
       <path id="DejaVuSans-2f" d="M 628 4666 
L 1259 4666 
L 1259 531 
L 3531 531 
L 3531 0 
L 628 0 
L 628 4666 
z
" transform="scale(0.015625)"/>
       <path id="DejaVuSans-3c" d="M -13 4666 
L 666 4666 
L 1959 2747 
L 3244 4666 
L 3922 4666 
L 2272 2222 
L 2272 0 
L 1638 0 
L 1638 2222 
L -13 4666 
z
" transform="scale(0.015625)"/>
      </defs>
      <use xlink:href="#DejaVuSans-2f"/>
      <use xlink:href="#DejaVuSans-44" transform="translate(55.71875 0)"/>
      <use xlink:href="#DejaVuSans-46" transform="translate(117 0)"/>
      <use xlink:href="#DejaVuSans-3c" transform="translate(171.984375 0)"/>
     </g>
    </g>
   </g>
   <g id="line2d_26">
    <path d="M 56.88098 110.093645 
L 56.907984 110.093645 
L 56.962231 118.21479 
L 57.069905 134.45708 
L 57.129974 142.578225 
L 57.28139 142.578225 
L 57.299006 134.45708 
L 57.518592 142.578225 
L 57.659813 142.578225 
L 57.829689 158.820514 
L 58.129223 175.062804 
L 58.194544 191.305093 
L 59.717583 191.305093 
L 59.883447 183.183949 
L 59.925995 191.305093 
L 64.925753 191.305093 
L 65.247241 183.183949 
L 65.356696 191.305093 
L 82.773406 191.305093 
L 82.966931 183.183949 
L 84.752101 191.305093 
L 84.766859 183.183949 
L 84.909415 175.062804 
L 84.914049 166.941659 
L 85.234747 175.062804 
L 85.46068 175.062804 
L 85.57977 191.305093 
L 85.640315 183.183949 
L 85.829678 183.183949 
L 85.967534 191.305093 
L 89.842092 191.305093 
L 90.230121 175.062804 
L 90.231416 166.941659 
L 90.727789 166.941659 
L 90.766282 183.183949 
L 91.53492 183.183949 
L 91.703078 175.062804 
L 92.045806 191.305093 
L 108.973786 191.305093 
L 109.079004 183.183949 
L 109.198168 183.183949 
L 109.33663 191.305093 
L 109.570566 191.305093 
L 109.611863 183.183949 
L 110.025939 183.183949 
L 110.374281 175.062804 
L 110.432365 183.183949 
L 110.606839 183.183949 
L 110.636284 191.305093 
L 119.356334 191.305093 
L 119.533956 183.183949 
L 121.624772 183.183949 
L 123.463947 191.305093 
L 131.197095 191.305093 
L 131.382525 183.183949 
L 131.668797 183.183949 
L 131.77609 191.305093 
L 136.092453 191.305093 
L 136.175807 183.183949 
L 136.197575 191.305093 
L 146.145461 191.305093 
L 146.405138 175.062804 
L 146.425876 183.183949 
L 146.454754 175.062804 
L 146.567359 166.941659 
L 146.572675 175.062804 
L 147.154799 175.062804 
L 147.769217 183.183949 
L 148.013451 183.183949 
L 148.327304 175.062804 
L 148.439682 175.062804 
L 149.506801 191.305093 
L 149.964915 191.305093 
L 150.016563 175.062804 
L 150.116988 175.062804 
L 150.269137 183.183949 
L 150.402258 183.183949 
L 150.942739 191.305093 
L 156.038314 191.305093 
L 156.464684 183.183949 
L 156.703903 150.699369 
L 156.984285 150.699369 
L 157.103856 166.941659 
L 157.153501 166.941659 
L 157.253951 158.820514 
L 157.34054 158.820514 
L 157.449858 175.062804 
L 157.477932 175.062804 
L 157.566201 183.183949 
L 157.916407 183.183949 
L 158.009626 191.305093 
L 158.407535 191.305093 
L 158.525935 183.183949 
L 158.673882 183.183949 
L 158.777527 175.062804 
L 158.922858 175.062804 
L 158.978092 183.183949 
L 159.032343 175.062804 
L 159.138088 175.062804 
L 159.241907 166.941659 
L 159.401236 166.941659 
L 159.525597 183.183949 
L 159.659203 183.183949 
L 159.781736 175.062804 
L 159.930175 175.062804 
L 160.05759 158.820514 
L 160.233936 158.820514 
L 160.302367 150.699369 
L 160.344704 158.820514 
L 160.428379 158.820514 
L 160.47871 150.699369 
L 160.531087 158.820514 
L 160.699011 158.820514 
L 160.809879 175.062804 
L 160.828837 175.062804 
L 160.856068 183.183949 
L 160.865386 166.941659 
L 160.934061 166.941659 
L 161.167892 166.941659 
L 161.270356 175.062804 
L 161.341146 175.062804 
L 161.454273 183.183949 
L 161.636499 183.183949 
L 161.753131 175.062804 
L 161.778866 175.062804 
L 161.941264 191.305093 
L 162.304263 191.305093 
L 162.451016 183.183949 
L 162.600064 183.183949 
L 162.714461 175.062804 
L 162.751406 175.062804 
L 162.859844 183.183949 
L 163.10181 183.183949 
L 163.12409 175.062804 
L 163.203272 183.183949 
L 163.281817 183.183949 
L 163.313237 191.305093 
L 163.384235 183.183949 
L 163.398961 183.183949 
L 163.425463 175.062804 
L 163.468681 183.183949 
L 163.578646 183.183949 
L 163.671921 166.941659 
L 163.692019 175.062804 
L 163.705977 175.062804 
L 163.814219 183.183949 
L 164.065981 183.183949 
L 164.143335 175.062804 
L 164.162988 183.183949 
L 164.3543 183.183949 
L 164.548697 158.820514 
L 164.570476 166.941659 
L 164.626689 166.941659 
L 164.735798 158.820514 
L 164.828816 158.820514 
L 164.942385 175.062804 
L 165.96541 175.062804 
L 166.091624 183.183949 
L 166.311843 183.183949 
L 166.436325 191.305093 
L 166.534455 191.305093 
L 166.67907 183.183949 
L 166.81974 183.183949 
L 166.925113 191.305093 
L 166.984198 191.305093 
L 167.104584 183.183949 
L 167.145344 183.183949 
L 167.249667 191.305093 
L 167.333338 183.183949 
L 167.746621 183.183949 
L 167.887059 175.062804 
L 168.566301 175.062804 
L 168.650247 183.183949 
L 168.785102 175.062804 
L 168.891962 175.062804 
L 169.004626 183.183949 
L 169.162455 183.183949 
L 169.243798 191.305093 
L 169.585997 191.305093 
L 169.808401 183.183949 
L 169.960728 183.183949 
L 170.053507 175.062804 
L 171.001732 175.062804 
L 171.025881 183.183949 
L 171.102243 166.941659 
L 171.105656 166.941659 
L 171.278965 166.941659 
L 171.365822 158.820514 
L 171.38767 166.941659 
L 171.416026 166.941659 
L 171.530357 158.820514 
L 171.866981 158.820514 
L 171.967225 150.699369 
L 172.080379 150.699369 
L 172.094868 158.820514 
L 172.132285 142.578225 
L 172.180569 150.699369 
L 172.208965 150.699369 
L 172.277962 142.578225 
L 172.315235 150.699369 
L 172.444139 150.699369 
L 172.518397 158.820514 
L 172.542565 150.699369 
L 172.590574 150.699369 
L 172.697302 158.820514 
L 172.741443 158.820514 
L 172.860247 175.062804 
L 172.882962 175.062804 
L 172.926038 183.183949 
L 172.950759 175.062804 
L 173.138666 175.062804 
L 173.160732 183.183949 
L 173.184684 166.941659 
L 173.222859 166.941659 
L 173.919284 166.941659 
L 174.029895 158.820514 
L 174.076309 158.820514 
L 174.077776 150.699369 
L 174.175044 158.820514 
L 174.546215 158.820514 
L 174.647321 175.062804 
L 175.049273 175.062804 
L 175.153461 183.183949 
L 175.16572 183.183949 
L 175.275377 175.062804 
L 175.462101 175.062804 
L 175.472251 183.183949 
L 175.718607 183.183949 
L 175.841119 175.062804 
L 175.888971 175.062804 
L 175.911205 166.941659 
L 175.987155 175.062804 
L 176.162706 175.062804 
L 176.322552 158.820514 
L 176.345606 158.820514 
L 176.473804 166.941659 
L 176.740493 166.941659 
L 176.857908 175.062804 
L 177.423866 175.062804 
L 177.530281 183.183949 
L 177.57331 183.183949 
L 177.655023 191.305093 
L 177.677622 183.183949 
L 177.697237 183.183949 
L 177.741207 166.941659 
L 177.83804 175.062804 
L 177.858466 175.062804 
L 177.986591 183.183949 
L 178.258875 175.062804 
L 178.308338 183.183949 
L 178.353638 175.062804 
L 178.864142 175.062804 
L 178.972861 166.941659 
L 178.989251 166.941659 
L 179.020474 142.578225 
L 179.09278 166.941659 
L 179.198619 166.941659 
L 179.343386 183.183949 
L 179.489497 175.062804 
L 179.586363 175.062804 
L 179.680126 191.305093 
L 180.06853 191.305093 
L 180.188214 175.062804 
L 180.298885 166.941659 
L 180.362699 166.941659 
L 180.464932 175.062804 
L 180.516781 175.062804 
L 180.633045 191.305093 
L 181.189074 191.305093 
L 181.296767 183.183949 
L 181.405884 191.305093 
L 181.522133 183.183949 
L 181.6279 191.305093 
L 181.814746 191.305093 
L 181.920424 175.062804 
L 182.055087 175.062804 
L 182.153817 183.183949 
L 182.809851 183.183949 
L 182.880578 191.305093 
L 183.74937 191.305093 
L 183.862833 183.183949 
L 184.302324 183.183949 
L 184.419939 175.062804 
L 184.531787 183.183949 
L 184.661788 175.062804 
L 184.706025 183.183949 
L 185.336721 183.183949 
L 185.367734 175.062804 
L 185.705561 175.062804 
L 185.77256 183.183949 
L 185.821905 183.183949 
L 185.937395 175.062804 
L 186.10207 175.062804 
L 186.25353 158.820514 
L 186.299207 158.820514 
L 186.486116 166.941659 
L 186.504622 166.941659 
L 186.590777 183.183949 
L 186.680445 166.941659 
L 186.716645 175.062804 
L 186.804903 183.183949 
L 186.902074 183.183949 
L 187.042685 166.941659 
L 187.095743 166.941659 
L 187.142505 158.820514 
L 187.198805 166.941659 
L 187.222241 166.941659 
L 187.299339 175.062804 
L 187.316099 166.941659 
L 187.398713 158.820514 
L 187.54566 158.820514 
L 187.656539 166.941659 
L 187.677385 166.941659 
L 187.700696 175.062804 
L 188.130118 175.062804 
L 188.335989 150.699369 
L 188.5753 150.699369 
L 188.691071 158.820514 
L 189.310294 158.820514 
L 189.508683 175.062804 
L 189.550007 166.941659 
L 189.706054 166.941659 
L 189.832391 175.062804 
L 190.040529 175.062804 
L 190.061099 183.183949 
L 190.13429 175.062804 
L 190.257426 175.062804 
L 190.393227 158.820514 
L 190.407113 158.820514 
L 190.473416 166.941659 
L 190.552737 166.941659 
L 190.576472 158.820514 
L 190.628992 166.941659 
L 190.680402 166.941659 
L 190.793594 158.820514 
L 190.976463 158.820514 
L 191.090561 166.941659 
L 191.172957 150.699369 
L 191.351578 150.699369 
L 191.4677 158.820514 
L 191.657294 158.820514 
L 191.719109 175.062804 
L 191.763427 166.941659 
L 191.885518 166.941659 
L 191.913971 175.062804 
L 191.96365 166.941659 
L 192.064109 175.062804 
L 192.187998 166.941659 
L 192.221374 166.941659 
L 192.264503 158.820514 
L 192.309146 175.062804 
L 192.417617 175.062804 
L 192.489892 166.941659 
L 192.491327 175.062804 
L 192.590398 175.062804 
L 192.743025 158.820514 
L 192.745799 166.941659 
L 192.836349 158.820514 
L 192.853534 150.699369 
L 192.915899 166.941659 
L 192.925803 166.941659 
L 192.934851 166.941659 
L 193.049371 175.062804 
L 193.196959 166.941659 
L 193.24078 166.941659 
L 193.28575 175.062804 
L 193.325509 166.941659 
L 193.510087 166.941659 
L 193.51052 175.062804 
L 193.642928 175.062804 
L 193.746766 166.941659 
L 193.872153 175.062804 
L 194.014891 175.062804 
L 194.098791 191.305093 
L 194.216235 183.183949 
L 194.642617 183.183949 
L 194.878349 175.062804 
L 195.181643 175.062804 
L 195.26501 166.941659 
L 195.269591 175.062804 
L 195.316262 175.062804 
L 195.412324 183.183949 
L 195.698949 183.183949 
L 195.843039 191.305093 
L 196.140001 166.941659 
L 196.264735 175.062804 
L 196.358085 175.062804 
L 196.367319 183.183949 
L 196.447489 175.062804 
L 196.662351 183.183949 
L 196.782924 150.699369 
L 196.917735 150.699369 
L 196.993579 166.941659 
L 197.009241 158.820514 
L 197.178785 150.699369 
L 197.391554 150.699369 
L 197.427348 142.578225 
L 197.731022 158.820514 
L 197.781502 158.820514 
L 197.8958 175.062804 
L 198.125655 150.699369 
L 198.589676 150.699369 
L 198.752056 175.062804 
L 198.906262 166.941659 
L 199.041721 166.941659 
L 199.179759 191.305093 
L 199.780457 191.305093 
L 199.895733 183.183949 
L 200.258394 183.183949 
L 200.337424 175.062804 
L 200.764057 175.062804 
L 201.04194 158.820514 
L 201.367587 158.820514 
L 201.464914 175.062804 
L 201.770267 175.062804 
L 202.001438 166.941659 
L 202.007521 175.062804 
L 202.077546 166.941659 
L 202.120062 166.941659 
L 202.13386 175.062804 
L 202.208638 166.941659 
L 202.236829 166.941659 
L 202.363335 175.062804 
L 202.494861 183.183949 
L 202.584388 183.183949 
L 202.610087 175.062804 
L 202.730058 183.183949 
L 203.044349 183.183949 
L 203.301946 175.062804 
L 203.397205 175.062804 
L 203.537716 183.183949 
L 203.737397 166.941659 
L 204.016546 158.820514 
L 204.14416 158.820514 
L 204.222036 142.578225 
L 204.308427 142.578225 
L 204.409252 134.45708 
L 204.435905 134.45708 
L 204.454264 150.699369 
L 204.545655 134.45708 
L 204.687159 150.699369 
L 204.833331 150.699369 
L 204.949005 158.820514 
L 205.048081 158.820514 
L 205.125421 166.941659 
L 205.277641 166.941659 
L 205.463797 183.183949 
L 205.505388 175.062804 
L 205.544781 183.183949 
L 205.576358 183.183949 
L 205.696629 166.941659 
L 205.755959 166.941659 
L 205.828047 183.183949 
L 205.840378 166.941659 
L 205.930861 166.941659 
L 206.125675 175.062804 
L 206.132467 183.183949 
L 206.329789 183.183949 
L 206.473162 175.062804 
L 206.609541 183.183949 
L 206.818226 183.183949 
L 207.285484 191.305093 
L 207.347184 183.183949 
L 207.537727 175.062804 
L 207.735999 158.820514 
L 207.832146 166.941659 
L 208.059818 166.941659 
L 208.096648 175.062804 
L 208.735709 175.062804 
L 209.041248 183.183949 
L 209.274257 175.062804 
L 209.348559 166.941659 
L 209.648297 158.820514 
L 209.76986 158.820514 
L 209.854409 150.699369 
L 209.862066 158.820514 
L 209.949451 158.820514 
L 210.150469 175.062804 
L 210.271931 166.941659 
L 210.388398 183.183949 
L 210.726653 183.183949 
L 210.760087 191.305093 
L 211.556678 191.305093 
L 211.672064 183.183949 
L 211.843516 191.305093 
L 212.082036 183.183949 
L 212.244405 183.183949 
L 212.269787 191.305093 
L 212.455431 191.305093 
L 212.500446 183.183949 
L 212.780935 183.183949 
L 212.809987 191.305093 
L 213.312893 183.183949 
L 214.363765 183.183949 
L 214.416376 191.305093 
L 214.436204 183.183949 
L 214.491696 183.183949 
L 214.561035 175.062804 
L 214.591491 183.183949 
L 217.768933 183.183949 
L 218.132561 191.305093 
L 220.149991 191.305093 
L 220.337578 183.183949 
L 220.460084 191.305093 
L 230.900323 191.305093 
L 231.049732 183.183949 
L 231.278908 191.305093 
L 246.563341 191.305093 
L 246.889474 183.183949 
L 247.024549 183.183949 
L 247.063108 191.305093 
L 247.243893 183.183949 
L 247.778193 183.183949 
L 247.947515 175.062804 
L 248.028096 183.183949 
L 248.33299 183.183949 
L 248.501729 191.305093 
L 250.61104 191.305093 
L 250.921013 183.183949 
L 251.499294 183.183949 
L 251.840648 191.305093 
L 263.545745 191.305093 
L 263.725205 183.183949 
L 263.809469 166.941659 
L 263.979468 166.941659 
L 264.103484 175.062804 
L 265.00211 191.305093 
L 266.250326 191.305093 
L 266.555944 183.183949 
L 266.707166 183.183949 
L 266.79202 191.305093 
L 280.306367 191.305093 
L 280.544618 166.941659 
L 280.766082 191.305093 
L 280.901184 175.062804 
L 280.934503 183.183949 
L 281.021896 183.183949 
L 281.091791 175.062804 
L 281.344213 191.305093 
L 281.50334 166.941659 
L 281.518416 175.062804 
L 281.582342 175.062804 
L 281.658093 166.941659 
L 281.862055 166.941659 
L 281.875772 158.820514 
L 281.948546 166.941659 
L 282.097815 166.941659 
L 282.184524 175.062804 
L 282.249987 166.941659 
L 282.266066 175.062804 
L 282.311698 175.062804 
L 282.410343 166.941659 
L 282.520282 183.183949 
L 282.658774 175.062804 
L 282.73905 183.183949 
L 282.886633 183.183949 
L 283.040827 175.062804 
L 283.087192 183.183949 
L 283.378704 183.183949 
L 283.475216 175.062804 
L 283.620694 191.305093 
L 283.912415 191.305093 
L 283.97588 183.183949 
L 284.207784 183.183949 
L 284.276599 191.305093 
L 284.772613 183.183949 
L 284.787098 183.183949 
L 284.841572 175.062804 
L 284.872904 183.183949 
L 285.038287 183.183949 
L 285.146923 175.062804 
L 285.300632 183.183949 
L 285.639143 183.183949 
L 285.789838 175.062804 
L 285.927166 183.183949 
L 286.046782 175.062804 
L 286.06776 175.062804 
L 286.198256 166.941659 
L 286.314852 175.062804 
L 286.360022 175.062804 
L 286.433019 158.820514 
L 286.57237 166.941659 
L 286.995814 183.183949 
L 288.002616 183.183949 
L 288.305246 191.305093 
L 288.87942 191.305093 
L 289.116779 175.062804 
L 289.233447 166.941659 
L 289.319018 158.820514 
L 289.521377 175.062804 
L 289.692408 166.941659 
L 289.695385 158.820514 
L 289.971459 158.820514 
L 290.091326 166.941659 
L 290.171568 166.941659 
L 290.31255 158.820514 
L 290.347501 166.941659 
L 290.417612 158.820514 
L 290.590463 166.941659 
L 290.717566 150.699369 
L 290.796782 142.578225 
L 291.065109 166.941659 
L 291.267109 175.062804 
L 292.055606 175.062804 
L 292.312109 191.305093 
L 296.553327 191.305093 
L 297.200064 183.183949 
L 297.666738 175.062804 
L 297.952682 191.305093 
L 301.316694 191.305093 
L 301.379796 183.183949 
L 301.558888 175.062804 
L 301.566802 183.183949 
L 301.735881 183.183949 
L 301.911486 191.305093 
L 307.248637 191.305093 
L 307.410342 183.183949 
L 307.624955 183.183949 
L 307.68942 191.305093 
L 309.205119 191.305093 
L 309.470808 183.183949 
L 309.584567 183.183949 
L 309.689749 175.062804 
L 310.226241 175.062804 
L 310.450685 183.183949 
L 310.581407 191.305093 
L 312.422447 191.305093 
L 312.422447 191.305093 
" clip-path="url(#pe0874b7cd4)" style="fill: none; stroke: #000000; stroke-width: 1.5; stroke-linecap: square"/>
   </g>
   <g id="patch_8">
    <path d="M 44.103906 195.365666 
L 44.103906 106.033073 
" style="fill: none; stroke: #000000; stroke-width: 0.8; stroke-linejoin: miter; stroke-linecap: square"/>
   </g>
   <g id="patch_9">
    <path d="M 325.19952 195.365666 
L 325.19952 106.033073 
" style="fill: none; stroke: #000000; stroke-width: 0.8; stroke-linejoin: miter; stroke-linecap: square"/>
   </g>
   <g id="patch_10">
    <path d="M 44.103906 195.365666 
L 325.19952 195.365666 
" style="fill: none; stroke: #000000; stroke-width: 0.8; stroke-linejoin: miter; stroke-linecap: square"/>
   </g>
   <g id="patch_11">
    <path d="M 44.103906 106.033073 
L 325.19952 106.033073 
" style="fill: none; stroke: #000000; stroke-width: 0.8; stroke-linejoin: miter; stroke-linecap: square"/>
   </g>
  </g>
  <g id="axes_3">
   <g id="patch_12">
    <path d="M 44.103906 294.198739 
L 325.19952 294.198739 
L 325.19952 204.866146 
L 44.103906 204.866146 
z
" style="fill: #ffffff"/>
   </g>
   <g id="matplotlib.axis_5">
    <g id="xtick_19">
     <g id="line2d_27">
      <g>
       <use xlink:href="#m2d979ba667" x="56.88098" y="294.198739" style="stroke: #000000; stroke-width: 0.8"/>
      </g>
     </g>
     <g id="text_9">
      <!-- 0 -->
      <g transform="translate(53.69973 308.796395) scale(0.1 -0.1)">
       <use xlink:href="#DejaVuSans-13"/>
      </g>
     </g>
    </g>
    <g id="xtick_20">
     <g id="line2d_28">
      <g>
       <use xlink:href="#m2d979ba667" x="88.648875" y="294.198739" style="stroke: #000000; stroke-width: 0.8"/>
      </g>
     </g>
     <g id="text_10">
      <!-- 100 -->
      <g transform="translate(79.105125 308.796395) scale(0.1 -0.1)">
       <use xlink:href="#DejaVuSans-14"/>
       <use xlink:href="#DejaVuSans-13" transform="translate(63.625 0)"/>
       <use xlink:href="#DejaVuSans-13" transform="translate(127.25 0)"/>
      </g>
     </g>
    </g>
    <g id="xtick_21">
     <g id="line2d_29">
      <g>
       <use xlink:href="#m2d979ba667" x="120.41677" y="294.198739" style="stroke: #000000; stroke-width: 0.8"/>
      </g>
     </g>
     <g id="text_11">
      <!-- 200 -->
      <g transform="translate(110.87302 308.796395) scale(0.1 -0.1)">
       <defs>
        <path id="DejaVuSans-15" d="M 1228 531 
L 3431 531 
L 3431 0 
L 469 0 
L 469 531 
Q 828 903 1448 1529 
Q 2069 2156 2228 2338 
Q 2531 2678 2651 2914 
Q 2772 3150 2772 3378 
Q 2772 3750 2511 3984 
Q 2250 4219 1831 4219 
Q 1534 4219 1204 4116 
Q 875 4013 500 3803 
L 500 4441 
Q 881 4594 1212 4672 
Q 1544 4750 1819 4750 
Q 2544 4750 2975 4387 
Q 3406 4025 3406 3419 
Q 3406 3131 3298 2873 
Q 3191 2616 2906 2266 
Q 2828 2175 2409 1742 
Q 1991 1309 1228 531 
z
" transform="scale(0.015625)"/>
       </defs>
       <use xlink:href="#DejaVuSans-15"/>
       <use xlink:href="#DejaVuSans-13" transform="translate(63.625 0)"/>
       <use xlink:href="#DejaVuSans-13" transform="translate(127.25 0)"/>
      </g>
     </g>
    </g>
    <g id="xtick_22">
     <g id="line2d_30">
      <g>
       <use xlink:href="#m2d979ba667" x="152.184665" y="294.198739" style="stroke: #000000; stroke-width: 0.8"/>
      </g>
     </g>
     <g id="text_12">
      <!-- 300 -->
      <g transform="translate(142.640915 308.796395) scale(0.1 -0.1)">
       <defs>
        <path id="DejaVuSans-16" d="M 2597 2516 
Q 3050 2419 3304 2112 
Q 3559 1806 3559 1356 
Q 3559 666 3084 287 
Q 2609 -91 1734 -91 
Q 1441 -91 1130 -33 
Q 819 25 488 141 
L 488 750 
Q 750 597 1062 519 
Q 1375 441 1716 441 
Q 2309 441 2620 675 
Q 2931 909 2931 1356 
Q 2931 1769 2642 2001 
Q 2353 2234 1838 2234 
L 1294 2234 
L 1294 2753 
L 1863 2753 
Q 2328 2753 2575 2939 
Q 2822 3125 2822 3475 
Q 2822 3834 2567 4026 
Q 2313 4219 1838 4219 
Q 1578 4219 1281 4162 
Q 984 4106 628 3988 
L 628 4550 
Q 988 4650 1302 4700 
Q 1616 4750 1894 4750 
Q 2613 4750 3031 4423 
Q 3450 4097 3450 3541 
Q 3450 3153 3228 2886 
Q 3006 2619 2597 2516 
z
" transform="scale(0.015625)"/>
       </defs>
       <use xlink:href="#DejaVuSans-16"/>
       <use xlink:href="#DejaVuSans-13" transform="translate(63.625 0)"/>
       <use xlink:href="#DejaVuSans-13" transform="translate(127.25 0)"/>
      </g>
     </g>
    </g>
    <g id="xtick_23">
     <g id="line2d_31">
      <g>
       <use xlink:href="#m2d979ba667" x="183.952561" y="294.198739" style="stroke: #000000; stroke-width: 0.8"/>
      </g>
     </g>
     <g id="text_13">
      <!-- 400 -->
      <g transform="translate(174.408811 308.796395) scale(0.1 -0.1)">
       <defs>
        <path id="DejaVuSans-17" d="M 2419 4116 
L 825 1625 
L 2419 1625 
L 2419 4116 
z
M 2253 4666 
L 3047 4666 
L 3047 1625 
L 3713 1625 
L 3713 1100 
L 3047 1100 
L 3047 0 
L 2419 0 
L 2419 1100 
L 313 1100 
L 313 1709 
L 2253 4666 
z
" transform="scale(0.015625)"/>
       </defs>
       <use xlink:href="#DejaVuSans-17"/>
       <use xlink:href="#DejaVuSans-13" transform="translate(63.625 0)"/>
       <use xlink:href="#DejaVuSans-13" transform="translate(127.25 0)"/>
      </g>
     </g>
    </g>
    <g id="xtick_24">
     <g id="line2d_32">
      <g>
       <use xlink:href="#m2d979ba667" x="215.720456" y="294.198739" style="stroke: #000000; stroke-width: 0.8"/>
      </g>
     </g>
     <g id="text_14">
      <!-- 500 -->
      <g transform="translate(206.176706 308.796395) scale(0.1 -0.1)">
       <use xlink:href="#DejaVuSans-18"/>
       <use xlink:href="#DejaVuSans-13" transform="translate(63.625 0)"/>
       <use xlink:href="#DejaVuSans-13" transform="translate(127.25 0)"/>
      </g>
     </g>
    </g>
    <g id="xtick_25">
     <g id="line2d_33">
      <g>
       <use xlink:href="#m2d979ba667" x="247.488351" y="294.198739" style="stroke: #000000; stroke-width: 0.8"/>
      </g>
     </g>
     <g id="text_15">
      <!-- 600 -->
      <g transform="translate(237.944601 308.796395) scale(0.1 -0.1)">
       <defs>
        <path id="DejaVuSans-19" d="M 2113 2584 
Q 1688 2584 1439 2293 
Q 1191 2003 1191 1497 
Q 1191 994 1439 701 
Q 1688 409 2113 409 
Q 2538 409 2786 701 
Q 3034 994 3034 1497 
Q 3034 2003 2786 2293 
Q 2538 2584 2113 2584 
z
M 3366 4563 
L 3366 3988 
Q 3128 4100 2886 4159 
Q 2644 4219 2406 4219 
Q 1781 4219 1451 3797 
Q 1122 3375 1075 2522 
Q 1259 2794 1537 2939 
Q 1816 3084 2150 3084 
Q 2853 3084 3261 2657 
Q 3669 2231 3669 1497 
Q 3669 778 3244 343 
Q 2819 -91 2113 -91 
Q 1303 -91 875 529 
Q 447 1150 447 2328 
Q 447 3434 972 4092 
Q 1497 4750 2381 4750 
Q 2619 4750 2861 4703 
Q 3103 4656 3366 4563 
z
" transform="scale(0.015625)"/>
       </defs>
       <use xlink:href="#DejaVuSans-19"/>
       <use xlink:href="#DejaVuSans-13" transform="translate(63.625 0)"/>
       <use xlink:href="#DejaVuSans-13" transform="translate(127.25 0)"/>
      </g>
     </g>
    </g>
    <g id="xtick_26">
     <g id="line2d_34">
      <g>
       <use xlink:href="#m2d979ba667" x="279.256247" y="294.198739" style="stroke: #000000; stroke-width: 0.8"/>
      </g>
     </g>
     <g id="text_16">
      <!-- 700 -->
      <g transform="translate(269.712497 308.796395) scale(0.1 -0.1)">
       <defs>
        <path id="DejaVuSans-1a" d="M 525 4666 
L 3525 4666 
L 3525 4397 
L 1831 0 
L 1172 0 
L 2766 4134 
L 525 4134 
L 525 4666 
z
" transform="scale(0.015625)"/>
       </defs>
       <use xlink:href="#DejaVuSans-1a"/>
       <use xlink:href="#DejaVuSans-13" transform="translate(63.625 0)"/>
       <use xlink:href="#DejaVuSans-13" transform="translate(127.25 0)"/>
      </g>
     </g>
    </g>
    <g id="xtick_27">
     <g id="line2d_35">
      <g>
       <use xlink:href="#m2d979ba667" x="311.024142" y="294.198739" style="stroke: #000000; stroke-width: 0.8"/>
      </g>
     </g>
     <g id="text_17">
      <!-- 800 -->
      <g transform="translate(301.480392 308.796395) scale(0.1 -0.1)">
       <defs>
        <path id="DejaVuSans-1b" d="M 2034 2216 
Q 1584 2216 1326 1975 
Q 1069 1734 1069 1313 
Q 1069 891 1326 650 
Q 1584 409 2034 409 
Q 2484 409 2743 651 
Q 3003 894 3003 1313 
Q 3003 1734 2745 1975 
Q 2488 2216 2034 2216 
z
M 1403 2484 
Q 997 2584 770 2862 
Q 544 3141 544 3541 
Q 544 4100 942 4425 
Q 1341 4750 2034 4750 
Q 2731 4750 3128 4425 
Q 3525 4100 3525 3541 
Q 3525 3141 3298 2862 
Q 3072 2584 2669 2484 
Q 3125 2378 3379 2068 
Q 3634 1759 3634 1313 
Q 3634 634 3220 271 
Q 2806 -91 2034 -91 
Q 1263 -91 848 271 
Q 434 634 434 1313 
Q 434 1759 690 2068 
Q 947 2378 1403 2484 
z
M 1172 3481 
Q 1172 3119 1398 2916 
Q 1625 2713 2034 2713 
Q 2441 2713 2670 2916 
Q 2900 3119 2900 3481 
Q 2900 3844 2670 4047 
Q 2441 4250 2034 4250 
Q 1625 4250 1398 4047 
Q 1172 3844 1172 3481 
z
" transform="scale(0.015625)"/>
       </defs>
       <use xlink:href="#DejaVuSans-1b"/>
       <use xlink:href="#DejaVuSans-13" transform="translate(63.625 0)"/>
       <use xlink:href="#DejaVuSans-13" transform="translate(127.25 0)"/>
      </g>
     </g>
    </g>
    <g id="text_18">
     <!-- Time -->
     <g transform="translate(172.415776 322.797176) scale(0.1 -0.1)">
      <defs>
       <path id="DejaVuSans-37" d="M -19 4666 
L 3928 4666 
L 3928 4134 
L 2272 4134 
L 2272 0 
L 1638 0 
L 1638 4134 
L -19 4134 
L -19 4666 
z
" transform="scale(0.015625)"/>
       <path id="DejaVuSans-4c" d="M 603 3500 
L 1178 3500 
L 1178 0 
L 603 0 
L 603 3500 
z
M 603 4863 
L 1178 4863 
L 1178 4134 
L 603 4134 
L 603 4863 
z
" transform="scale(0.015625)"/>
       <path id="DejaVuSans-50" d="M 3328 2828 
Q 3544 3216 3844 3400 
Q 4144 3584 4550 3584 
Q 5097 3584 5394 3201 
Q 5691 2819 5691 2113 
L 5691 0 
L 5113 0 
L 5113 2094 
Q 5113 2597 4934 2840 
Q 4756 3084 4391 3084 
Q 3944 3084 3684 2787 
Q 3425 2491 3425 1978 
L 3425 0 
L 2847 0 
L 2847 2094 
Q 2847 2600 2669 2842 
Q 2491 3084 2119 3084 
Q 1678 3084 1418 2786 
Q 1159 2488 1159 1978 
L 1159 0 
L 581 0 
L 581 3500 
L 1159 3500 
L 1159 2956 
Q 1356 3278 1631 3431 
Q 1906 3584 2284 3584 
Q 2666 3584 2933 3390 
Q 3200 3197 3328 2828 
z
" transform="scale(0.015625)"/>
      </defs>
      <use xlink:href="#DejaVuSans-37"/>
      <use xlink:href="#DejaVuSans-4c" transform="translate(58 0)"/>
      <use xlink:href="#DejaVuSans-50" transform="translate(85.78125 0)"/>
      <use xlink:href="#DejaVuSans-48" transform="translate(183.1875 0)"/>
     </g>
    </g>
   </g>
   <g id="matplotlib.axis_6">
    <g id="ytick_7">
     <g id="line2d_36">
      <g>
       <use xlink:href="#madce795e62" x="44.103906" y="290.138166" style="stroke: #000000; stroke-width: 0.8"/>
      </g>
     </g>
     <g id="text_19">
      <!-- 0.0 -->
      <g transform="translate(21.200781 293.936994) scale(0.1 -0.1)">
       <defs>
        <path id="DejaVuSans-11" d="M 684 794 
L 1344 794 
L 1344 0 
L 684 0 
L 684 794 
z
" transform="scale(0.015625)"/>
       </defs>
       <use xlink:href="#DejaVuSans-13"/>
       <use xlink:href="#DejaVuSans-11" transform="translate(63.625 0)"/>
       <use xlink:href="#DejaVuSans-13" transform="translate(95.40625 0)"/>
      </g>
     </g>
    </g>
    <g id="ytick_8">
     <g id="line2d_37">
      <g>
       <use xlink:href="#madce795e62" x="44.103906" y="249.532442" style="stroke: #000000; stroke-width: 0.8"/>
      </g>
     </g>
     <g id="text_20">
      <!-- 0.5 -->
      <g transform="translate(21.200781 253.33127) scale(0.1 -0.1)">
       <use xlink:href="#DejaVuSans-13"/>
       <use xlink:href="#DejaVuSans-11" transform="translate(63.625 0)"/>
       <use xlink:href="#DejaVuSans-18" transform="translate(95.40625 0)"/>
      </g>
     </g>
    </g>
    <g id="ytick_9">
     <g id="line2d_38">
      <g>
       <use xlink:href="#madce795e62" x="44.103906" y="208.926718" style="stroke: #000000; stroke-width: 0.8"/>
      </g>
     </g>
     <g id="text_21">
      <!-- 1.0 -->
      <g transform="translate(21.200781 212.725546) scale(0.1 -0.1)">
       <use xlink:href="#DejaVuSans-14"/>
       <use xlink:href="#DejaVuSans-11" transform="translate(63.625 0)"/>
       <use xlink:href="#DejaVuSans-13" transform="translate(95.40625 0)"/>
      </g>
     </g>
    </g>
    <g id="text_22">
     <!-- Free lac operon -->
     <g transform="translate(14.798438 288.006661) rotate(-90) scale(0.1 -0.1)">
      <defs>
       <path id="DejaVuSans-29" d="M 628 4666 
L 3309 4666 
L 3309 4134 
L 1259 4134 
L 1259 2759 
L 3109 2759 
L 3109 2228 
L 1259 2228 
L 1259 0 
L 628 0 
L 628 4666 
z
" transform="scale(0.015625)"/>
       <path id="DejaVuSans-53" d="M 1159 525 
L 1159 -1331 
L 581 -1331 
L 581 3500 
L 1159 3500 
L 1159 2969 
Q 1341 3281 1617 3432 
Q 1894 3584 2278 3584 
Q 2916 3584 3314 3078 
Q 3713 2572 3713 1747 
Q 3713 922 3314 415 
Q 2916 -91 2278 -91 
Q 1894 -91 1617 61 
Q 1341 213 1159 525 
z
M 3116 1747 
Q 3116 2381 2855 2742 
Q 2594 3103 2138 3103 
Q 1681 3103 1420 2742 
Q 1159 2381 1159 1747 
Q 1159 1113 1420 752 
Q 1681 391 2138 391 
Q 2594 391 2855 752 
Q 3116 1113 3116 1747 
z
" transform="scale(0.015625)"/>
       <path id="DejaVuSans-51" d="M 3513 2113 
L 3513 0 
L 2938 0 
L 2938 2094 
Q 2938 2591 2744 2837 
Q 2550 3084 2163 3084 
Q 1697 3084 1428 2787 
Q 1159 2491 1159 1978 
L 1159 0 
L 581 0 
L 581 3500 
L 1159 3500 
L 1159 2956 
Q 1366 3272 1645 3428 
Q 1925 3584 2291 3584 
Q 2894 3584 3203 3211 
Q 3513 2838 3513 2113 
z
" transform="scale(0.015625)"/>
      </defs>
      <use xlink:href="#DejaVuSans-29"/>
      <use xlink:href="#DejaVuSans-55" transform="translate(50.234375 0)"/>
      <use xlink:href="#DejaVuSans-48" transform="translate(89.140625 0)"/>
      <use xlink:href="#DejaVuSans-48" transform="translate(150.671875 0)"/>
      <use xlink:href="#DejaVuSans-3" transform="translate(212.203125 0)"/>
      <use xlink:href="#DejaVuSans-4f" transform="translate(243.984375 0)"/>
      <use xlink:href="#DejaVuSans-44" transform="translate(271.765625 0)"/>
      <use xlink:href="#DejaVuSans-46" transform="translate(333.046875 0)"/>
      <use xlink:href="#DejaVuSans-3" transform="translate(388.03125 0)"/>
      <use xlink:href="#DejaVuSans-52" transform="translate(419.8125 0)"/>
      <use xlink:href="#DejaVuSans-53" transform="translate(481 0)"/>
      <use xlink:href="#DejaVuSans-48" transform="translate(544.484375 0)"/>
      <use xlink:href="#DejaVuSans-55" transform="translate(606.015625 0)"/>
      <use xlink:href="#DejaVuSans-52" transform="translate(644.921875 0)"/>
      <use xlink:href="#DejaVuSans-51" transform="translate(706.109375 0)"/>
     </g>
    </g>
   </g>
   <g id="line2d_39">
    <path d="M 56.88098 208.926718 
L 56.962231 290.138166 
L 57.129974 290.138166 
L 57.299006 208.926718 
L 57.416791 208.926718 
L 57.518592 290.138166 
L 58.730938 290.138166 
L 59.717583 208.926718 
L 59.903324 208.926718 
L 59.925995 290.138166 
L 62.339617 290.138166 
L 64.925753 208.926718 
L 65.219696 208.926718 
L 65.356696 290.138166 
L 65.482162 290.138166 
L 72.123058 208.926718 
L 72.292299 290.138166 
L 80.106552 208.926718 
L 80.155431 290.138166 
L 82.773406 208.926718 
L 82.912944 208.926718 
L 82.966931 290.138166 
L 84.701637 290.138166 
L 84.766859 208.926718 
L 85.640315 208.926718 
L 85.829678 290.138166 
L 86.859177 290.138166 
L 89.842092 208.926718 
L 90.380349 208.926718 
L 90.409533 290.138166 
L 90.766282 290.138166 
L 91.64482 208.926718 
L 91.703078 290.138166 
L 92.045806 290.138166 
L 109.065346 208.926718 
L 109.079004 290.138166 
L 109.33663 290.138166 
L 109.611863 208.926718 
L 109.898285 290.138166 
L 110.025939 208.926718 
L 110.432365 208.926718 
L 110.636284 290.138166 
L 110.927975 290.138166 
L 115.076596 208.926718 
L 115.735072 290.138166 
L 117.371767 208.926718 
L 117.685972 290.138166 
L 118.356208 208.926718 
L 118.443249 290.138166 
L 119.449323 208.926718 
L 119.533956 290.138166 
L 123.463947 290.138166 
L 129.463195 208.926718 
L 129.568797 290.138166 
L 131.305395 208.926718 
L 131.754719 208.926718 
L 131.77609 290.138166 
L 133.610388 290.138166 
L 136.197575 208.926718 
L 136.210839 290.138166 
L 139.082513 208.926718 
L 139.125105 290.138166 
L 146.145461 208.926718 
L 147.086709 208.926718 
L 147.154799 290.138166 
L 147.769217 290.138166 
L 148.013451 208.926718 
L 148.327304 208.926718 
L 148.439682 290.138166 
L 149.506801 290.138166 
L 150.016563 208.926718 
L 150.116988 290.138166 
L 151.234427 290.138166 
L 151.245711 208.926718 
L 151.406721 290.138166 
L 155.701166 208.926718 
L 155.789809 290.138166 
L 156.038314 208.926718 
L 210.527739 208.926718 
L 210.559464 290.138166 
L 211.284076 290.138166 
L 211.556678 208.926718 
L 213.312893 208.926718 
L 213.730513 290.138166 
L 214.253739 290.138166 
L 214.436204 208.926718 
L 214.591491 208.926718 
L 214.766251 290.138166 
L 218.132561 290.138166 
L 219.598524 208.926718 
L 219.69586 290.138166 
L 220.149991 208.926718 
L 220.460084 208.926718 
L 220.629369 290.138166 
L 220.682384 208.926718 
L 220.733817 290.138166 
L 221.998408 290.138166 
L 230.900323 208.926718 
L 231.045165 208.926718 
L 231.049732 290.138166 
L 231.544713 290.138166 
L 242.485028 208.926718 
L 242.623006 290.138166 
L 244.848883 208.926718 
L 245.182905 290.138166 
L 246.395566 208.926718 
L 246.419854 290.138166 
L 246.563341 208.926718 
L 247.90285 208.926718 
L 247.907237 290.138166 
L 247.971695 208.926718 
L 248.028096 208.926718 
L 248.33299 290.138166 
L 248.501729 290.138166 
L 250.61104 208.926718 
L 250.908031 208.926718 
L 250.921013 290.138166 
L 251.840648 290.138166 
L 263.15742 208.926718 
L 263.291767 290.138166 
L 263.545745 208.926718 
L 263.859558 208.926718 
L 263.979468 290.138166 
L 265.00211 290.138166 
L 266.250326 208.926718 
L 266.460862 208.926718 
L 266.555944 290.138166 
L 266.715732 208.926718 
L 266.79202 290.138166 
L 267.41476 208.926718 
L 267.733441 290.138166 
L 273.810266 208.926718 
L 274.050403 290.138166 
L 278.487048 208.926718 
L 278.507462 290.138166 
L 280.379215 208.926718 
L 286.993695 208.926718 
L 286.995814 290.138166 
L 288.305246 290.138166 
L 288.736631 208.926718 
L 290.780409 208.926718 
L 290.852444 290.138166 
L 292.312109 290.138166 
L 296.553327 208.926718 
L 297.90701 208.926718 
L 297.952682 290.138166 
L 298.987234 290.138166 
L 301.379796 208.926718 
L 301.566802 208.926718 
L 301.735881 290.138166 
L 302.155525 290.138166 
L 304.974333 208.926718 
L 305.054097 290.138166 
L 307.340758 208.926718 
L 307.410342 208.926718 
L 307.68942 290.138166 
L 308.129583 208.926718 
L 308.445635 290.138166 
L 309.205119 208.926718 
L 309.596062 208.926718 
L 309.689749 290.138166 
L 310.705217 290.138166 
L 312.422447 208.926718 
L 312.422447 208.926718 
" clip-path="url(#p67650b5756)" style="fill: none; stroke: #000000; stroke-width: 1.5; stroke-linecap: square"/>
   </g>
   <g id="patch_13">
    <path d="M 44.103906 294.198739 
L 44.103906 204.866146 
" style="fill: none; stroke: #000000; stroke-width: 0.8; stroke-linejoin: miter; stroke-linecap: square"/>
   </g>
   <g id="patch_14">
    <path d="M 325.19952 294.198739 
L 325.19952 204.866146 
" style="fill: none; stroke: #000000; stroke-width: 0.8; stroke-linejoin: miter; stroke-linecap: square"/>
   </g>
   <g id="patch_15">
    <path d="M 44.103906 294.198739 
L 325.19952 294.198739 
" style="fill: none; stroke: #000000; stroke-width: 0.8; stroke-linejoin: miter; stroke-linecap: square"/>
   </g>
   <g id="patch_16">
    <path d="M 44.103906 204.866146 
L 325.19952 204.866146 
" style="fill: none; stroke: #000000; stroke-width: 0.8; stroke-linejoin: miter; stroke-linecap: square"/>
   </g>
  </g>
 </g>
 <defs>
  <clipPath id="p371fc3e932">
   <rect x="44.103906" y="7.2" width="281.095614" height="89.332593"/>
  </clipPath>
  <clipPath id="pe0874b7cd4">
   <rect x="44.103906" y="106.033073" width="281.095614" height="89.332593"/>
  </clipPath>
  <clipPath id="p67650b5756">
   <rect x="44.103906" y="204.866146" width="281.095614" height="89.332593"/>
  </clipPath>
 </defs>
</svg>
