<?xml version="1.0" encoding="utf-8" standalone="no"?>
<!DOCTYPE svg PUBLIC "-//W3C//DTD SVG 1.1//EN"
  "http://www.w3.org/Graphics/SVG/1.1/DTD/svg11.dtd">
<svg xmlns:xlink="http://www.w3.org/1999/xlink" width="332.39952pt" height="338.705099pt" viewBox="0 0 332.39952 338.705099" xmlns="http://www.w3.org/2000/svg" version="1.1">
 <metadata>
  <rdf:RDF xmlns:dc="http://purl.org/dc/elements/1.1/" xmlns:cc="http://creativecommons.org/ns#" xmlns:rdf="http://www.w3.org/1999/02/22-rdf-syntax-ns#">
   <cc:Work>
    <dc:type rdf:resource="http://purl.org/dc/dcmitype/StillImage"/>
    <dc:date>2026-07-22T15:53:03.214144</dc:date>
    <dc:format>image/svg+xml</dc:format>
    <dc:creator>
     <cc:Agent>
      <dc:title>Matplotlib v3.11.1, https://matplotlib.org/</dc:title>
     </cc:Agent>
    </dc:creator>
   </cc:Work>
  </rdf:RDF>
 </metadata>
 <defs>
  <style type="text/css">*{stroke-linejoin: round; stroke-linecap: butt}</style>
 </defs>
 <g id="figure_1">
  <g id="patch_1">
   <path d="M 0 338.705099 
L 332.39952 338.705099 
L 332.39952 0 
L 0 0 
z
" style="fill: #ffffff"/>
  </g>
  <g id="axes_1">
   <g id="patch_2">
    <path d="M 44.103906 102.838171 
L 325.19952 102.838171 
L 325.19952 13.505579 
L 44.103906 13.505579 
z
" style="fill: #ffffff"/>
   </g>
   <g id="matplotlib.axis_1">
    <g id="xtick_1">
     <g id="line2d_1">
      <defs>
       <path id="m8280f19913" d="M 0 0 
L 0 3.5 
" style="stroke: #000000; stroke-width: 0.8"/>
      </defs>
      <g>
       <use xlink:href="#m8280f19913" x="56.88098" y="102.838171" style="stroke: #000000; stroke-width: 0.8"/>
      </g>
     </g>
    </g>
    <g id="xtick_2">
     <g id="line2d_2">
      <g>
       <use xlink:href="#m8280f19913" x="88.691774" y="102.838171" style="stroke: #000000; stroke-width: 0.8"/>
      </g>
     </g>
    </g>
    <g id="xtick_3">
     <g id="line2d_3">
      <g>
       <use xlink:href="#m8280f19913" x="120.502569" y="102.838171" style="stroke: #000000; stroke-width: 0.8"/>
      </g>
     </g>
    </g>
    <g id="xtick_4">
     <g id="line2d_4">
      <g>
       <use xlink:href="#m8280f19913" x="152.313363" y="102.838171" style="stroke: #000000; stroke-width: 0.8"/>
      </g>
     </g>
    </g>
    <g id="xtick_5">
     <g id="line2d_5">
      <g>
       <use xlink:href="#m8280f19913" x="184.124158" y="102.838171" style="stroke: #000000; stroke-width: 0.8"/>
      </g>
     </g>
    </g>
    <g id="xtick_6">
     <g id="line2d_6">
      <g>
       <use xlink:href="#m8280f19913" x="215.934952" y="102.838171" style="stroke: #000000; stroke-width: 0.8"/>
      </g>
     </g>
    </g>
    <g id="xtick_7">
     <g id="line2d_7">
      <g>
       <use xlink:href="#m8280f19913" x="247.745747" y="102.838171" style="stroke: #000000; stroke-width: 0.8"/>
      </g>
     </g>
    </g>
    <g id="xtick_8">
     <g id="line2d_8">
      <g>
       <use xlink:href="#m8280f19913" x="279.556541" y="102.838171" style="stroke: #000000; stroke-width: 0.8"/>
      </g>
     </g>
    </g>
    <g id="xtick_9">
     <g id="line2d_9">
      <g>
       <use xlink:href="#m8280f19913" x="311.367336" y="102.838171" style="stroke: #000000; stroke-width: 0.8"/>
      </g>
     </g>
    </g>
   </g>
   <g id="matplotlib.axis_2">
    <g id="ytick_1">
     <g id="line2d_10">
      <defs>
       <path id="m0b1e40afe0" d="M 0 0 
L -3.5 0 
" style="stroke: #000000; stroke-width: 0.8"/>
      </defs>
      <g>
       <use xlink:href="#m0b1e40afe0" x="44.103906" y="98.777599" style="stroke: #000000; stroke-width: 0.8"/>
      </g>
     </g>
     <g id="text_1">
      <!-- 0 -->
      <g transform="translate(30.741406 102.576427) scale(0.1 -0.1)">
       <defs>
        <path id="DejaVuSans-13" d="M 2034 4250 
Q 1547 4250 1301 3770 
Q 1056 3291 1056 2328 
Q 1056 1369 1301 889 
Q 1547 409 2034 409 
Q 2525 409 2770 889 
Q 3016 1369 3016 2328 
Q 3016 3291 2770 3770 
Q 2525 4250 2034 4250 
z
M 2034 4750 
Q 2819 4750 3233 4129 
Q 3647 3509 3647 2328 
Q 3647 1150 3233 529 
Q 2819 -91 2034 -91 
Q 1250 -91 836 529 
Q 422 1150 422 2328 
Q 422 3509 836 4129 
Q 1250 4750 2034 4750 
z
" transform="scale(0.015625)"/>
       </defs>
       <use xlink:href="#DejaVuSans-13"/>
      </g>
     </g>
    </g>
    <g id="ytick_2">
     <g id="line2d_11">
      <g>
       <use xlink:href="#m0b1e40afe0" x="44.103906" y="58.171875" style="stroke: #000000; stroke-width: 0.8"/>
      </g>
     </g>
     <g id="text_2">
      <!-- 5 -->
      <g transform="translate(30.741406 61.970703) scale(0.1 -0.1)">
       <defs>
        <path id="DejaVuSans-18" d="M 691 4666 
L 3169 4666 
L 3169 4134 
L 1269 4134 
L 1269 2991 
Q 1406 3038 1543 3061 
Q 1681 3084 1819 3084 
Q 2600 3084 3056 2656 
Q 3513 2228 3513 1497 
Q 3513 744 3044 326 
Q 2575 -91 1722 -91 
Q 1428 -91 1123 -41 
Q 819 9 494 109 
L 494 744 
Q 775 591 1075 516 
Q 1375 441 1709 441 
Q 2250 441 2565 725 
Q 2881 1009 2881 1497 
Q 2881 1984 2565 2268 
Q 2250 2553 1709 2553 
Q 1456 2553 1204 2497 
Q 953 2441 691 2322 
L 691 4666 
z
" transform="scale(0.015625)"/>
       </defs>
       <use xlink:href="#DejaVuSans-18"/>
      </g>
     </g>
    </g>
    <g id="ytick_3">
     <g id="line2d_12">
      <g>
       <use xlink:href="#m0b1e40afe0" x="44.103906" y="17.566151" style="stroke: #000000; stroke-width: 0.8"/>
      </g>
     </g>
     <g id="text_3">
      <!-- 10 -->
      <g transform="translate(24.378906 21.364979) scale(0.1 -0.1)">
       <defs>
        <path id="DejaVuSans-14" d="M 794 531 
L 1825 531 
L 1825 4091 
L 703 3866 
L 703 4441 
L 1819 4666 
L 2450 4666 
L 2450 531 
L 3481 531 
L 3481 0 
L 794 0 
L 794 531 
z
" transform="scale(0.015625)"/>
       </defs>
       <use xlink:href="#DejaVuSans-14"/>
       <use xlink:href="#DejaVuSans-13" transform="translate(63.625 0)"/>
      </g>
     </g>
    </g>
    <g id="text_4">
     <!-- Extracellular lactose -->
     <g transform="translate(17.976563 109.14375) rotate(-90) scale(0.1 -0.1)">
      <defs>
       <path id="DejaVuSans-28" d="M 628 4666 
L 3578 4666 
L 3578 4134 
L 1259 4134 
L 1259 2753 
L 3481 2753 
L 3481 2222 
L 1259 2222 
L 1259 531 
L 3634 531 
L 3634 0 
L 628 0 
L 628 4666 
z
" transform="scale(0.015625)"/>
       <path id="DejaVuSans-5b" d="M 3513 3500 
L 2247 1797 
L 3578 0 
L 2900 0 
L 1881 1375 
L 863 0 
L 184 0 
L 1544 1831 
L 300 3500 
L 978 3500 
L 1906 2253 
L 2834 3500 
L 3513 3500 
z
" transform="scale(0.015625)"/>
       <path id="DejaVuSans-57" d="M 1172 4494 
L 1172 3500 
L 2356 3500 
L 2356 3053 
L 1172 3053 
L 1172 1153 
Q 1172 725 1289 603 
Q 1406 481 1766 481 
L 2356 481 
L 2356 0 
L 1766 0 
Q 1100 0 847 248 
Q 594 497 594 1153 
L 594 3053 
L 172 3053 
L 172 3500 
L 594 3500 
L 594 4494 
L 1172 4494 
z
" transform="scale(0.015625)"/>
       <path id="DejaVuSans-55" d="M 2631 2963 
Q 2534 3019 2420 3045 
Q 2306 3072 2169 3072 
Q 1681 3072 1420 2755 
Q 1159 2438 1159 1844 
L 1159 0 
L 581 0 
L 581 3500 
L 1159 3500 
L 1159 2956 
Q 1341 3275 1631 3429 
Q 1922 3584 2338 3584 
Q 2397 3584 2469 3576 
Q 2541 3569 2628 3553 
L 2631 2963 
z
" transform="scale(0.015625)"/>
       <path id="DejaVuSans-44" d="M 2194 1759 
Q 1497 1759 1228 1600 
Q 959 1441 959 1056 
Q 959 750 1161 570 
Q 1363 391 1709 391 
Q 2188 391 2477 730 
Q 2766 1069 2766 1631 
L 2766 1759 
L 2194 1759 
z
M 3341 1997 
L 3341 0 
L 2766 0 
L 2766 531 
Q 2569 213 2275 61 
Q 1981 -91 1556 -91 
Q 1019 -91 701 211 
Q 384 513 384 1019 
Q 384 1609 779 1909 
Q 1175 2209 1959 2209 
L 2766 2209 
L 2766 2266 
Q 2766 2663 2505 2880 
Q 2244 3097 1772 3097 
Q 1472 3097 1187 3025 
Q 903 2953 641 2809 
L 641 3341 
Q 956 3463 1253 3523 
Q 1550 3584 1831 3584 
Q 2591 3584 2966 3190 
Q 3341 2797 3341 1997 
z
" transform="scale(0.015625)"/>
       <path id="DejaVuSans-46" d="M 3122 3366 
L 3122 2828 
Q 2878 2963 2633 3030 
Q 2388 3097 2138 3097 
Q 1578 3097 1268 2742 
Q 959 2388 959 1747 
Q 959 1106 1268 751 
Q 1578 397 2138 397 
Q 2388 397 2633 464 
Q 2878 531 3122 666 
L 3122 134 
Q 2881 22 2623 -34 
Q 2366 -91 2075 -91 
Q 1284 -91 818 406 
Q 353 903 353 1747 
Q 353 2603 823 3093 
Q 1294 3584 2113 3584 
Q 2378 3584 2631 3529 
Q 2884 3475 3122 3366 
z
" transform="scale(0.015625)"/>
       <path id="DejaVuSans-48" d="M 3597 1894 
L 3597 1613 
L 953 1613 
Q 991 1019 1311 708 
Q 1631 397 2203 397 
Q 2534 397 2845 478 
Q 3156 559 3463 722 
L 3463 178 
Q 3153 47 2828 -22 
Q 2503 -91 2169 -91 
Q 1331 -91 842 396 
Q 353 884 353 1716 
Q 353 2575 817 3079 
Q 1281 3584 2069 3584 
Q 2775 3584 3186 3129 
Q 3597 2675 3597 1894 
z
M 3022 2063 
Q 3016 2534 2758 2815 
Q 2500 3097 2075 3097 
Q 1594 3097 1305 2825 
Q 1016 2553 972 2059 
L 3022 2063 
z
" transform="scale(0.015625)"/>
       <path id="DejaVuSans-4f" d="M 603 4863 
L 1178 4863 
L 1178 0 
L 603 0 
L 603 4863 
z
" transform="scale(0.015625)"/>
       <path id="DejaVuSans-58" d="M 544 1381 
L 544 3500 
L 1119 3500 
L 1119 1403 
Q 1119 906 1312 657 
Q 1506 409 1894 409 
Q 2359 409 2629 706 
Q 2900 1003 2900 1516 
L 2900 3500 
L 3475 3500 
L 3475 0 
L 2900 0 
L 2900 538 
Q 2691 219 2414 64 
Q 2138 -91 1772 -91 
Q 1169 -91 856 284 
Q 544 659 544 1381 
z
M 1991 3584 
L 1991 3584 
z
" transform="scale(0.015625)"/>
       <path id="DejaVuSans-3" transform="scale(0.015625)"/>
       <path id="DejaVuSans-52" d="M 1959 3097 
Q 1497 3097 1228 2736 
Q 959 2375 959 1747 
Q 959 1119 1226 758 
Q 1494 397 1959 397 
Q 2419 397 2687 759 
Q 2956 1122 2956 1747 
Q 2956 2369 2687 2733 
Q 2419 3097 1959 3097 
z
M 1959 3584 
Q 2709 3584 3137 3096 
Q 3566 2609 3566 1747 
Q 3566 888 3137 398 
Q 2709 -91 1959 -91 
Q 1206 -91 779 398 
Q 353 888 353 1747 
Q 353 2609 779 3096 
Q 1206 3584 1959 3584 
z
" transform="scale(0.015625)"/>
       <path id="DejaVuSans-56" d="M 2834 3397 
L 2834 2853 
Q 2591 2978 2328 3040 
Q 2066 3103 1784 3103 
Q 1356 3103 1142 2972 
Q 928 2841 928 2578 
Q 928 2378 1081 2264 
Q 1234 2150 1697 2047 
L 1894 2003 
Q 2506 1872 2764 1633 
Q 3022 1394 3022 966 
Q 3022 478 2636 193 
Q 2250 -91 1575 -91 
Q 1294 -91 989 -36 
Q 684 19 347 128 
L 347 722 
Q 666 556 975 473 
Q 1284 391 1588 391 
Q 1994 391 2212 530 
Q 2431 669 2431 922 
Q 2431 1156 2273 1281 
Q 2116 1406 1581 1522 
L 1381 1569 
Q 847 1681 609 1914 
Q 372 2147 372 2553 
Q 372 3047 722 3315 
Q 1072 3584 1716 3584 
Q 2034 3584 2315 3537 
Q 2597 3491 2834 3397 
z
" transform="scale(0.015625)"/>
      </defs>
      <use xlink:href="#DejaVuSans-28"/>
      <use xlink:href="#DejaVuSans-5b" transform="translate(63.1875 0)"/>
      <use xlink:href="#DejaVuSans-57" transform="translate(122.375 0)"/>
      <use xlink:href="#DejaVuSans-55" transform="translate(161.578125 0)"/>
      <use xlink:href="#DejaVuSans-44" transform="translate(202.6875 0)"/>
      <use xlink:href="#DejaVuSans-46" transform="translate(263.96875 0)"/>
      <use xlink:href="#DejaVuSans-48" transform="translate(318.953125 0)"/>
      <use xlink:href="#DejaVuSans-4f" transform="translate(380.484375 0)"/>
      <use xlink:href="#DejaVuSans-4f" transform="translate(408.265625 0)"/>
      <use xlink:href="#DejaVuSans-58" transform="translate(436.046875 0)"/>
      <use xlink:href="#DejaVuSans-4f" transform="translate(499.421875 0)"/>
      <use xlink:href="#DejaVuSans-44" transform="translate(527.203125 0)"/>
      <use xlink:href="#DejaVuSans-55" transform="translate(588.484375 0)"/>
      <use xlink:href="#DejaVuSans-3" transform="translate(629.59375 0)"/>
      <use xlink:href="#DejaVuSans-4f" transform="translate(661.375 0)"/>
      <use xlink:href="#DejaVuSans-44" transform="translate(689.15625 0)"/>
      <use xlink:href="#DejaVuSans-46" transform="translate(750.4375 0)"/>
      <use xlink:href="#DejaVuSans-57" transform="translate(805.421875 0)"/>
      <use xlink:href="#DejaVuSans-52" transform="translate(844.625 0)"/>
      <use xlink:href="#DejaVuSans-56" transform="translate(905.8125 0)"/>
      <use xlink:href="#DejaVuSans-48" transform="translate(957.90625 0)"/>
     </g>
    </g>
   </g>
   <g id="line2d_13">
    <path d="M 56.88098 98.777599 
L 155.834612 98.777599 
L 155.923375 17.566151 
L 156.588856 17.647362 
L 156.706101 17.972208 
L 156.750747 18.05342 
L 156.896392 19.515226 
L 157.014763 21.220666 
L 157.038324 21.301878 
L 157.166314 22.926107 
L 157.463866 26.174564 
L 157.484007 26.255776 
L 157.645815 27.06789 
L 157.735495 27.149102 
L 157.855562 27.311525 
L 157.939142 27.392736 
L 158.048952 28.042428 
L 158.120312 28.123639 
L 158.321518 29.504234 
L 158.327218 29.585445 
L 158.442891 30.559983 
L 158.949391 33.23996 
L 158.970127 33.321172 
L 159.088641 34.133286 
L 159.154769 34.214498 
L 159.542114 37.70659 
L 159.775242 38.84355 
L 159.873873 39.41203 
L 159.956436 40.061722 
L 160.066282 40.792625 
L 160.126742 40.873837 
L 160.365689 42.660488 
L 160.406266 42.7417 
L 160.516287 43.797449 
L 160.817659 45.340466 
L 160.850872 45.421678 
L 160.934373 45.584101 
L 161.045049 45.665312 
L 161.162842 45.990158 
L 161.233578 46.071369 
L 161.340175 46.233792 
L 161.544132 46.883484 
L 161.613566 46.964695 
L 161.860887 47.77681 
L 162.821968 47.858021 
L 163.010145 48.751347 
L 163.13567 48.832558 
L 163.172787 48.91377 
L 163.305283 48.994981 
L 163.405356 49.48225 
L 163.527118 49.725884 
L 163.606507 49.807096 
L 163.713627 50.131942 
L 164.437928 52.324651 
L 164.716813 52.405862 
L 164.878995 52.730708 
L 165.117535 52.811919 
L 165.202688 53.055554 
L 165.465508 53.136765 
L 166.053595 54.111303 
L 166.438432 55.897954 
L 167.003567 57.847029 
L 167.115146 58.496721 
L 167.15467 58.577932 
L 167.426176 60.202161 
L 167.434288 60.283373 
L 167.592222 61.095487 
L 167.632376 61.176699 
L 167.801493 63.206985 
L 167.82232 63.288196 
L 167.977556 65.318482 
L 168.001781 65.399694 
L 168.196762 67.186346 
L 168.275048 67.267557 
L 168.376735 67.754826 
L 168.445707 67.836037 
L 168.554738 68.485729 
L 168.615492 68.56694 
L 168.747599 68.891786 
L 168.861455 68.972998 
L 169.107759 69.216632 
L 169.274137 69.297843 
L 169.379908 69.622689 
L 169.615879 70.028746 
L 169.652017 70.109958 
L 169.763184 70.434804 
L 169.775835 70.516015 
L 169.901703 71.32813 
L 169.916852 71.409341 
L 170.071369 72.140244 
L 170.121747 72.221456 
L 170.247077 73.114781 
L 170.279695 73.195993 
L 170.474049 73.60205 
L 170.517852 73.683262 
L 170.770173 74.17053 
L 170.800693 74.251742 
L 170.866248 74.495376 
L 171.037694 74.576588 
L 172.14743 76.769297 
L 172.273567 77.175354 
L 172.310406 77.256565 
L 172.42775 78.06868 
L 172.460482 78.149891 
L 172.6112 78.474737 
L 172.731182 78.555948 
L 172.887529 78.799583 
L 173.002937 78.962006 
L 173.231368 79.855332 
L 173.273178 79.936543 
L 173.436898 80.505023 
L 173.55193 80.586235 
L 173.601617 80.829869 
L 173.791724 80.91108 
L 173.889065 80.992292 
L 174.383693 81.073503 
L 174.496143 81.154715 
L 174.783955 81.235926 
L 174.910199 81.398349 
L 174.995971 81.479561 
L 175.124985 81.641984 
L 175.24711 81.723195 
L 175.349333 81.804406 
L 175.441461 81.885618 
L 175.655127 82.291675 
L 176.143125 82.860155 
L 176.176386 82.941367 
L 176.294812 83.266212 
L 176.400569 83.428635 
L 176.47635 83.509847 
L 177.15837 84.403173 
L 177.270535 84.646807 
L 177.372488 84.728019 
L 177.493991 84.890441 
L 177.687238 84.971653 
L 177.799055 85.215287 
L 177.91375 85.296499 
L 178.196368 85.702556 
L 178.33505 85.864979 
L 179.235179 86.839516 
L 179.382979 87.083151 
L 179.606746 87.407996 
L 179.908573 87.489208 
L 179.949687 87.651631 
L 180.590978 87.732842 
L 180.710864 87.976476 
L 180.809577 88.057688 
L 180.930091 88.138899 
L 181.126965 88.220111 
L 181.224303 88.463745 
L 181.369599 88.707379 
L 181.476503 89.113437 
L 181.67197 89.194648 
L 182.370426 89.925551 
L 182.412289 90.006763 
L 182.574912 90.250397 
L 182.638834 90.331608 
L 182.771077 90.575243 
L 182.88311 90.656454 
L 183.00844 90.818877 
L 183.117419 90.900089 
L 183.227436 91.062511 
L 183.365911 91.143723 
L 183.500344 91.224934 
L 183.633481 91.306146 
L 183.976513 91.468569 
L 184.629199 91.54978 
L 184.796877 91.793415 
L 184.93755 91.874626 
L 185.078963 92.199472 
L 185.418998 92.280683 
L 185.755183 92.68674 
L 186.280823 92.767952 
L 186.544975 92.930375 
L 186.833966 93.011586 
L 187.062538 93.174009 
L 187.59937 93.255221 
L 187.880677 93.498855 
L 188.373115 93.580066 
L 188.506694 93.742489 
L 188.568641 93.823701 
L 188.749736 93.904912 
L 188.904605 94.148547 
L 189.092727 94.229758 
L 189.181294 94.392181 
L 189.598129 94.473392 
L 189.712897 94.554604 
L 190.017869 94.635815 
L 190.297261 94.87945 
L 190.752929 94.960661 
L 190.878816 95.041872 
L 191.065373 95.123084 
L 191.558269 95.204295 
L 191.628862 95.366718 
L 192.533765 95.44793 
L 192.628841 95.529141 
L 199.526017 95.610353 
L 199.994026 95.691564 
L 216.966225 95.772775 
L 217.0142 95.853987 
L 227.598928 95.935198 
L 228.4126 96.01641 
L 229.133732 96.097621 
L 234.324805 96.260044 
L 264.499674 96.341256 
L 265.365205 96.422467 
L 294.681277 96.503679 
L 294.825489 96.58489 
L 295.495285 96.666101 
L 295.606515 96.747313 
L 302.773542 96.828524 
L 302.893153 96.909736 
L 312.422447 96.909736 
L 312.422447 96.909736 
" clip-path="url(#p9956d9969d)" style="fill: none; stroke: #000000; stroke-width: 1.5; stroke-linecap: square"/>
   </g>
   <g id="patch_3">
    <path d="M 44.103906 102.838171 
L 44.103906 13.505579 
" style="fill: none; stroke: #000000; stroke-width: 0.8; stroke-linejoin: miter; stroke-linecap: square"/>
   </g>
   <g id="patch_4">
    <path d="M 325.19952 102.838171 
L 325.19952 13.505579 
" style="fill: none; stroke: #000000; stroke-width: 0.8; stroke-linejoin: miter; stroke-linecap: square"/>
   </g>
   <g id="patch_5">
    <path d="M 44.103906 102.838171 
L 325.19952 102.838171 
" style="fill: none; stroke: #000000; stroke-width: 0.8; stroke-linejoin: miter; stroke-linecap: square"/>
   </g>
   <g id="patch_6">
    <path d="M 44.103906 13.505579 
L 325.19952 13.505579 
" style="fill: none; stroke: #000000; stroke-width: 0.8; stroke-linejoin: miter; stroke-linecap: square"/>
   </g>
  </g>
  <g id="axes_2">
   <g id="patch_7">
    <path d="M 44.103906 201.671244 
L 325.19952 201.671244 
L 325.19952 112.338651 
L 44.103906 112.338651 
z
" style="fill: #ffffff"/>
   </g>
   <g id="matplotlib.axis_3">
    <g id="xtick_10">
     <g id="line2d_14">
      <g>
       <use xlink:href="#m8280f19913" x="56.88098" y="201.671244" style="stroke: #000000; stroke-width: 0.8"/>
      </g>
     </g>
    </g>
    <g id="xtick_11">
     <g id="line2d_15">
      <g>
       <use xlink:href="#m8280f19913" x="88.691774" y="201.671244" style="stroke: #000000; stroke-width: 0.8"/>
      </g>
     </g>
    </g>
    <g id="xtick_12">
     <g id="line2d_16">
      <g>
       <use xlink:href="#m8280f19913" x="120.502569" y="201.671244" style="stroke: #000000; stroke-width: 0.8"/>
      </g>
     </g>
    </g>
    <g id="xtick_13">
     <g id="line2d_17">
      <g>
       <use xlink:href="#m8280f19913" x="152.313363" y="201.671244" style="stroke: #000000; stroke-width: 0.8"/>
      </g>
     </g>
    </g>
    <g id="xtick_14">
     <g id="line2d_18">
      <g>
       <use xlink:href="#m8280f19913" x="184.124158" y="201.671244" style="stroke: #000000; stroke-width: 0.8"/>
      </g>
     </g>
    </g>
    <g id="xtick_15">
     <g id="line2d_19">
      <g>
       <use xlink:href="#m8280f19913" x="215.934952" y="201.671244" style="stroke: #000000; stroke-width: 0.8"/>
      </g>
     </g>
    </g>
    <g id="xtick_16">
     <g id="line2d_20">
      <g>
       <use xlink:href="#m8280f19913" x="247.745747" y="201.671244" style="stroke: #000000; stroke-width: 0.8"/>
      </g>
     </g>
    </g>
    <g id="xtick_17">
     <g id="line2d_21">
      <g>
       <use xlink:href="#m8280f19913" x="279.556541" y="201.671244" style="stroke: #000000; stroke-width: 0.8"/>
      </g>
     </g>
    </g>
    <g id="xtick_18">
     <g id="line2d_22">
      <g>
       <use xlink:href="#m8280f19913" x="311.367336" y="201.671244" style="stroke: #000000; stroke-width: 0.8"/>
      </g>
     </g>
    </g>
   </g>
   <g id="matplotlib.axis_4">
    <g id="ytick_4">
     <g id="line2d_23">
      <g>
       <use xlink:href="#m0b1e40afe0" x="44.103906" y="197.610672" style="stroke: #000000; stroke-width: 0.8"/>
      </g>
     </g>
     <g id="text_5">
      <!-- 0 -->
      <g transform="translate(30.741406 201.4095) scale(0.1 -0.1)">
       <use xlink:href="#DejaVuSans-13"/>
      </g>
     </g>
    </g>
    <g id="ytick_5">
     <g id="line2d_24">
      <g>
       <use xlink:href="#m0b1e40afe0" x="44.103906" y="157.004948" style="stroke: #000000; stroke-width: 0.8"/>
      </g>
     </g>
     <g id="text_6">
      <!-- 5 -->
      <g transform="translate(30.741406 160.803776) scale(0.1 -0.1)">
       <use xlink:href="#DejaVuSans-18"/>
      </g>
     </g>
    </g>
    <g id="ytick_6">
     <g id="line2d_25">
      <g>
       <use xlink:href="#m0b1e40afe0" x="44.103906" y="116.399224" style="stroke: #000000; stroke-width: 0.8"/>
      </g>
     </g>
     <g id="text_7">
      <!-- 10 -->
      <g transform="translate(24.378906 120.198052) scale(0.1 -0.1)">
       <use xlink:href="#DejaVuSans-14"/>
       <use xlink:href="#DejaVuSans-13" transform="translate(63.625 0)"/>
      </g>
     </g>
    </g>
    <g id="text_8">
     <!-- LacY -->
     <g transform="translate(17.976563 168.658073) rotate(-90) scale(0.1 -0.1)">
      <defs>
       <path id="DejaVuSans-2f" d="M 628 4666 
L 1259 4666 
L 1259 531 
L 3531 531 
L 3531 0 
L 628 0 
L 628 4666 
z
" transform="scale(0.015625)"/>
       <path id="DejaVuSans-3c" d="M -13 4666 
L 666 4666 
L 1959 2747 
L 3244 4666 
L 3922 4666 
L 2272 2222 
L 2272 0 
L 1638 0 
L 1638 2222 
L -13 4666 
z
" transform="scale(0.015625)"/>
      </defs>
      <use xlink:href="#DejaVuSans-2f"/>
      <use xlink:href="#DejaVuSans-44" transform="translate(55.71875 0)"/>
      <use xlink:href="#DejaVuSans-46" transform="translate(117 0)"/>
      <use xlink:href="#DejaVuSans-3c" transform="translate(171.984375 0)"/>
     </g>
    </g>
   </g>
   <g id="line2d_26">
    <path d="M 56.88098 116.399224 
L 56.90802 116.399224 
L 56.96234 124.520369 
L 57.070161 140.762658 
L 57.13031 148.883803 
L 57.28193 148.883803 
L 57.29957 140.762658 
L 57.519453 148.883803 
L 57.660865 148.883803 
L 57.83097 165.126093 
L 58.130908 181.368382 
L 58.196318 197.610672 
L 59.721414 197.610672 
L 59.887502 189.489527 
L 59.930107 197.610672 
L 64.936616 197.610672 
L 65.258539 189.489527 
L 65.368141 197.610672 
L 82.808371 197.610672 
L 83.002157 189.489527 
L 84.789738 197.610672 
L 84.804516 189.489527 
L 84.947265 181.368382 
L 84.951904 173.247238 
L 85.273036 181.368382 
L 85.499274 181.368382 
L 85.618525 197.610672 
L 85.679151 189.489527 
L 85.86877 189.489527 
L 86.006813 197.610672 
L 89.886602 197.610672 
L 90.275155 181.368382 
L 90.276452 173.247238 
L 90.773495 173.247238 
L 90.81204 189.489527 
L 91.581717 189.489527 
L 91.750101 181.368382 
L 92.093292 197.610672 
L 109.044132 197.610672 
L 109.149492 189.489527 
L 109.268817 189.489527 
L 109.407466 197.610672 
L 109.641718 197.610672 
L 109.68307 189.489527 
L 110.097705 189.489527 
L 110.446519 181.368382 
L 110.504681 189.489527 
L 110.67939 189.489527 
L 110.708875 197.610672 
L 119.440701 197.610672 
L 119.618562 189.489527 
L 121.712202 189.489527 
L 123.55386 197.610672 
L 131.297451 197.610672 
L 131.483132 189.489527 
L 131.76979 189.489527 
L 131.877228 197.610672 
L 136.199419 197.610672 
L 136.282887 189.489527 
L 136.304684 197.610672 
L 146.266004 197.610672 
L 146.526031 181.368382 
L 146.546797 189.489527 
L 146.575714 181.368382 
L 146.688471 173.247238 
L 146.693794 181.368382 
L 147.276705 181.368382 
L 147.891952 189.489527 
L 148.136516 189.489527 
L 148.450792 181.368382 
L 148.563323 181.368382 
L 149.631882 197.610672 
L 150.090615 197.610672 
L 150.142333 181.368382 
L 150.242893 181.368382 
L 150.395248 189.489527 
L 150.528549 189.489527 
L 151.069759 197.610672 
L 156.172216 197.610672 
L 156.599161 189.489527 
L 156.838703 157.004948 
L 157.112911 157.004948 
L 157.180893 173.247238 
L 157.22255 165.126093 
L 157.3336 157.004948 
L 157.38458 157.004948 
L 157.494687 181.368382 
L 157.743882 181.368382 
L 157.855562 189.489527 
L 157.929074 189.489527 
L 158.012342 181.368382 
L 158.048952 181.368382 
L 158.207009 165.126093 
L 158.321518 165.126093 
L 158.43436 173.247238 
L 158.554214 173.247238 
L 158.678013 189.489527 
L 158.727439 189.489527 
L 158.832907 181.368382 
L 158.977017 181.368382 
L 159.088641 173.247238 
L 159.134791 173.247238 
L 159.256341 165.126093 
L 159.344242 165.126093 
L 159.463454 157.004948 
L 159.583151 157.004948 
L 159.614939 173.247238 
L 159.693501 157.004948 
L 159.699729 157.004948 
L 159.771424 148.883803 
L 159.777541 157.004948 
L 159.873873 165.126093 
L 160.106513 165.126093 
L 160.132788 173.247238 
L 160.16875 157.004948 
L 160.20731 165.126093 
L 160.30004 165.126093 
L 160.381772 181.368382 
L 160.410923 173.247238 
L 160.569479 173.247238 
L 160.611879 165.126093 
L 160.676215 173.247238 
L 160.775215 173.247238 
L 160.886604 189.489527 
L 160.934373 189.489527 
L 161.078364 181.368382 
L 161.201155 189.489527 
L 161.258294 189.489527 
L 161.370387 173.247238 
L 161.40404 173.247238 
L 161.491908 181.368382 
L 161.653213 181.368382 
L 161.779567 189.489527 
L 161.869394 189.489527 
L 162.012629 197.610672 
L 162.621427 197.610672 
L 162.739677 189.489527 
L 162.860963 181.368382 
L 162.971464 189.489527 
L 163.152147 189.489527 
L 163.172787 181.368382 
L 164.109413 181.368382 
L 164.229321 189.489527 
L 164.437928 189.489527 
L 164.597365 197.610672 
L 164.640933 197.610672 
L 164.769979 189.489527 
L 164.898405 189.489527 
L 164.999783 197.610672 
L 165.055892 197.610672 
L 165.19972 189.489527 
L 165.257535 197.610672 
L 165.363921 197.610672 
L 165.465508 189.489527 
L 165.90006 189.489527 
L 166.039494 181.368382 
L 166.233673 181.368382 
L 166.339367 173.247238 
L 166.515335 173.247238 
L 166.622168 165.126093 
L 166.706927 165.126093 
L 166.814707 173.247238 
L 166.821723 173.247238 
L 166.882137 189.489527 
L 166.934197 181.368382 
L 166.965342 181.368382 
L 167.085013 165.126093 
L 167.136231 165.126093 
L 167.250815 157.004948 
L 167.469433 157.004948 
L 167.499719 148.883803 
L 167.575631 157.004948 
L 167.585363 157.004948 
L 167.684651 132.641513 
L 167.705239 140.762658 
L 167.720256 140.762658 
L 167.831729 132.641513 
L 168.051886 132.641513 
L 168.163343 140.762658 
L 168.292056 157.004948 
L 168.328149 157.004948 
L 168.444225 165.126093 
L 168.452183 165.126093 
L 168.46857 157.004948 
L 168.554738 173.247238 
L 168.639662 173.247238 
L 168.756677 189.489527 
L 168.861455 181.368382 
L 168.908604 181.368382 
L 169.021565 189.489527 
L 169.201718 189.489527 
L 169.31704 181.368382 
L 169.439853 181.368382 
L 169.687056 165.126093 
L 169.763184 165.126093 
L 169.888991 148.883803 
L 169.933248 148.883803 
L 170.054287 157.004948 
L 170.238846 157.004948 
L 170.322983 148.883803 
L 170.335191 165.126093 
L 170.349272 165.126093 
L 170.511348 165.126093 
L 170.623101 173.247238 
L 170.677114 173.247238 
L 170.788395 181.368382 
L 171.082825 181.368382 
L 171.209234 189.489527 
L 171.294191 181.368382 
L 171.519019 181.368382 
L 171.598216 189.489527 
L 171.629556 181.368382 
L 171.676376 181.368382 
L 171.735941 189.489527 
L 171.760254 181.368382 
L 171.874635 173.247238 
L 172.08261 173.247238 
L 172.220566 165.126093 
L 172.43806 165.126093 
L 172.538569 181.368382 
L 172.56805 181.368382 
L 172.664673 165.126093 
L 172.681989 173.247238 
L 172.87603 173.247238 
L 172.906897 181.368382 
L 172.967378 173.247238 
L 173.494338 173.247238 
L 173.601617 181.368382 
L 173.774972 181.368382 
L 173.805018 173.247238 
L 173.828795 189.489527 
L 173.870624 189.489527 
L 174.638085 189.489527 
L 174.651135 181.368382 
L 174.756834 181.368382 
L 174.852015 173.247238 
L 174.927751 181.368382 
L 174.948746 173.247238 
L 175.043729 173.247238 
L 175.130422 165.126093 
L 175.32921 197.610672 
L 175.349333 189.489527 
L 175.463228 181.368382 
L 175.863328 181.368382 
L 175.958071 173.247238 
L 176.028224 173.247238 
L 176.152765 157.004948 
L 176.227648 157.004948 
L 176.33052 148.883803 
L 176.354444 148.883803 
L 176.47635 173.247238 
L 176.547856 173.247238 
L 176.645177 181.368382 
L 176.655045 173.247238 
L 176.839132 173.247238 
L 176.933556 181.368382 
L 177.099943 181.368382 
L 177.224379 173.247238 
L 177.252237 173.247238 
L 177.372488 165.126093 
L 177.381788 165.126093 
L 177.431614 181.368382 
L 177.493991 173.247238 
L 177.574872 173.247238 
L 177.73759 157.004948 
L 177.869076 165.126093 
L 178.087172 165.126093 
L 178.231002 173.247238 
L 178.472624 173.247238 
L 178.582732 165.126093 
L 178.77184 165.126093 
L 178.856342 173.247238 
L 178.936779 157.004948 
L 178.988969 165.126093 
L 179.043203 165.126093 
L 179.18561 173.247238 
L 179.651887 173.247238 
L 179.720035 165.126093 
L 179.909046 189.489527 
L 179.917032 181.368382 
L 179.925469 181.368382 
L 180.060698 189.489527 
L 180.40198 189.489527 
L 180.828102 157.004948 
L 180.897178 148.883803 
L 180.930091 157.004948 
L 180.960468 157.004948 
L 181.099257 148.883803 
L 181.138197 148.883803 
L 181.207426 157.004948 
L 181.224303 148.883803 
L 181.359258 148.883803 
L 181.476503 157.004948 
L 181.577709 157.004948 
L 181.619911 173.247238 
L 181.67197 165.126093 
L 181.734047 165.126093 
L 181.829038 173.247238 
L 181.86008 173.247238 
L 181.980269 157.004948 
L 182.008826 157.004948 
L 182.104434 173.247238 
L 182.234299 173.247238 
L 182.383605 148.883803 
L 182.407384 157.004948 
L 182.431413 157.004948 
L 182.457761 173.247238 
L 182.512876 165.126093 
L 182.649904 157.004948 
L 182.724216 157.004948 
L 182.828228 148.883803 
L 182.942844 157.004948 
L 183.109764 173.247238 
L 183.225047 173.247238 
L 183.335516 165.126093 
L 183.546835 165.126093 
L 183.633481 173.247238 
L 183.747985 173.247238 
L 183.846434 181.368382 
L 183.886092 173.247238 
L 183.896521 189.489527 
L 183.976513 189.489527 
L 184.146217 197.610672 
L 184.371149 181.368382 
L 184.595812 189.489527 
L 184.712021 148.883803 
L 184.796877 148.883803 
L 184.852657 165.126093 
L 184.91244 157.004948 
L 185.196113 157.004948 
L 185.227958 148.883803 
L 185.334202 165.126093 
L 185.418998 157.004948 
L 185.544606 157.004948 
L 185.655073 173.247238 
L 185.755183 173.247238 
L 185.882277 181.368382 
L 186.193654 181.368382 
L 186.280823 189.489527 
L 186.375745 189.489527 
L 186.544975 181.368382 
L 186.564547 189.489527 
L 186.639442 181.368382 
L 186.756013 181.368382 
L 186.899981 173.247238 
L 187.024121 173.247238 
L 187.146681 189.489527 
L 187.327492 189.489527 
L 187.511983 197.610672 
L 187.573409 197.610672 
L 187.660465 189.489527 
L 187.860101 189.489527 
L 187.86886 197.610672 
L 187.964854 189.489527 
L 188.038026 189.489527 
L 188.1498 173.247238 
L 188.307064 173.247238 
L 188.373115 165.126093 
L 188.512884 165.126093 
L 188.669732 148.883803 
L 188.732151 148.883803 
L 188.77532 157.004948 
L 188.84305 148.883803 
L 188.902343 148.883803 
L 188.968583 165.126093 
L 189.007771 157.004948 
L 189.152556 173.247238 
L 189.181294 173.247238 
L 189.215269 165.126093 
L 189.283467 173.247238 
L 189.447368 173.247238 
L 189.448768 181.368382 
L 189.544234 173.247238 
L 189.774109 173.247238 
L 190.072849 165.126093 
L 190.132684 165.126093 
L 190.203091 148.883803 
L 190.280776 148.883803 
L 190.370908 140.762658 
L 190.411793 157.004948 
L 190.461314 148.883803 
L 190.489467 140.762658 
L 190.557331 148.883803 
L 190.622475 157.004948 
L 190.735178 157.004948 
L 190.840489 165.126093 
L 190.935852 165.126093 
L 190.999537 173.247238 
L 191.373925 173.247238 
L 191.427191 181.368382 
L 191.5637 165.126093 
L 191.591505 173.247238 
L 191.741904 189.489527 
L 192.234438 189.489527 
L 192.382238 181.368382 
L 192.541904 181.368382 
L 192.628841 189.489527 
L 192.787626 189.489527 
L 192.923784 173.247238 
L 193.103068 173.247238 
L 193.223566 181.368382 
L 193.480286 189.489527 
L 194.334778 189.489527 
L 194.788965 197.610672 
L 198.747468 197.610672 
L 199.526017 189.489527 
L 199.723817 189.489527 
L 199.97113 197.610672 
L 208.703529 197.610672 
L 209.089129 189.489527 
L 210.437774 189.489527 
L 210.523787 197.610672 
L 216.348405 197.610672 
L 216.539099 189.489527 
L 216.580032 181.368382 
L 216.750978 189.489527 
L 217.203256 189.489527 
L 217.32176 197.610672 
L 226.126772 197.610672 
L 226.17481 189.489527 
L 226.341283 197.610672 
L 226.386052 189.489527 
L 226.661051 189.489527 
L 226.689427 197.610672 
L 227.191016 189.489527 
L 228.189504 189.489527 
L 228.240888 197.610672 
L 228.260742 189.489527 
L 228.315145 189.489527 
L 228.382867 181.368382 
L 228.4126 189.489527 
L 231.38652 189.489527 
L 231.72263 197.610672 
L 233.742784 197.610672 
L 233.930624 189.489527 
L 234.050702 197.610672 
L 244.505039 197.610672 
L 244.654554 189.489527 
L 244.872646 197.610672 
L 260.177718 197.610672 
L 260.504292 189.489527 
L 260.636689 189.489527 
L 260.674338 197.610672 
L 260.854732 189.489527 
L 261.381523 189.489527 
L 261.545236 181.368382 
L 261.623901 189.489527 
L 261.921574 189.489527 
L 262.077399 197.610672 
L 264.189559 197.610672 
L 264.499674 189.489527 
L 265.050274 189.489527 
L 265.365205 197.610672 
L 277.086108 197.610672 
L 277.26581 189.489527 
L 277.347633 173.247238 
L 277.511195 173.247238 
L 277.626598 181.368382 
L 278.462692 197.610672 
L 279.712594 197.610672 
L 280.016249 189.489527 
L 280.155765 189.489527 
L 280.240519 197.610672 
L 293.773115 197.610672 
L 294.006132 173.247238 
L 294.2225 197.610672 
L 294.35635 181.368382 
L 294.389013 189.489527 
L 294.475217 189.489527 
L 294.543711 181.368382 
L 294.790829 197.610672 
L 294.947358 173.247238 
L 294.962006 181.368382 
L 295.02419 181.368382 
L 295.097539 173.247238 
L 295.293992 173.247238 
L 295.307152 165.126093 
L 295.376775 173.247238 
L 295.521041 173.247238 
L 295.606515 181.368382 
L 295.67087 173.247238 
L 295.686597 181.368382 
L 296.093336 181.368382 
L 296.172493 189.489527 
L 296.918786 189.489527 
L 297.113839 197.610672 
L 298.046979 197.610672 
L 298.113857 189.489527 
L 298.319462 189.489527 
L 299.508297 197.610672 
L 302.27877 197.610672 
L 302.515796 189.489527 
L 303.28145 189.489527 
L 303.527197 197.610672 
L 312.422447 197.610672 
L 312.422447 197.610672 
" clip-path="url(#p4b1ca05259)" style="fill: none; stroke: #000000; stroke-width: 1.5; stroke-linecap: square"/>
   </g>
   <g id="patch_8">
    <path d="M 44.103906 201.671244 
L 44.103906 112.338651 
" style="fill: none; stroke: #000000; stroke-width: 0.8; stroke-linejoin: miter; stroke-linecap: square"/>
   </g>
   <g id="patch_9">
    <path d="M 325.19952 201.671244 
L 325.19952 112.338651 
" style="fill: none; stroke: #000000; stroke-width: 0.8; stroke-linejoin: miter; stroke-linecap: square"/>
   </g>
   <g id="patch_10">
    <path d="M 44.103906 201.671244 
L 325.19952 201.671244 
" style="fill: none; stroke: #000000; stroke-width: 0.8; stroke-linejoin: miter; stroke-linecap: square"/>
   </g>
   <g id="patch_11">
    <path d="M 44.103906 112.338651 
L 325.19952 112.338651 
" style="fill: none; stroke: #000000; stroke-width: 0.8; stroke-linejoin: miter; stroke-linecap: square"/>
   </g>
  </g>
  <g id="axes_3">
   <g id="patch_12">
    <path d="M 44.103906 300.504317 
L 325.19952 300.504317 
L 325.19952 211.171724 
L 44.103906 211.171724 
z
" style="fill: #ffffff"/>
   </g>
   <g id="matplotlib.axis_5">
    <g id="xtick_19">
     <g id="line2d_27">
      <g>
       <use xlink:href="#m8280f19913" x="56.88098" y="300.504317" style="stroke: #000000; stroke-width: 0.8"/>
      </g>
     </g>
     <g id="text_9">
      <!-- 0 -->
      <g transform="translate(53.69973 315.101974) scale(0.1 -0.1)">
       <use xlink:href="#DejaVuSans-13"/>
      </g>
     </g>
    </g>
    <g id="xtick_20">
     <g id="line2d_28">
      <g>
       <use xlink:href="#m8280f19913" x="88.691774" y="300.504317" style="stroke: #000000; stroke-width: 0.8"/>
      </g>
     </g>
     <g id="text_10">
      <!-- 100 -->
      <g transform="translate(79.148024 315.101974) scale(0.1 -0.1)">
       <use xlink:href="#DejaVuSans-14"/>
       <use xlink:href="#DejaVuSans-13" transform="translate(63.625 0)"/>
       <use xlink:href="#DejaVuSans-13" transform="translate(127.25 0)"/>
      </g>
     </g>
    </g>
    <g id="xtick_21">
     <g id="line2d_29">
      <g>
       <use xlink:href="#m8280f19913" x="120.502569" y="300.504317" style="stroke: #000000; stroke-width: 0.8"/>
      </g>
     </g>
     <g id="text_11">
      <!-- 200 -->
      <g transform="translate(110.958819 315.101974) scale(0.1 -0.1)">
       <defs>
        <path id="DejaVuSans-15" d="M 1228 531 
L 3431 531 
L 3431 0 
L 469 0 
L 469 531 
Q 828 903 1448 1529 
Q 2069 2156 2228 2338 
Q 2531 2678 2651 2914 
Q 2772 3150 2772 3378 
Q 2772 3750 2511 3984 
Q 2250 4219 1831 4219 
Q 1534 4219 1204 4116 
Q 875 4013 500 3803 
L 500 4441 
Q 881 4594 1212 4672 
Q 1544 4750 1819 4750 
Q 2544 4750 2975 4387 
Q 3406 4025 3406 3419 
Q 3406 3131 3298 2873 
Q 3191 2616 2906 2266 
Q 2828 2175 2409 1742 
Q 1991 1309 1228 531 
z
" transform="scale(0.015625)"/>
       </defs>
       <use xlink:href="#DejaVuSans-15"/>
       <use xlink:href="#DejaVuSans-13" transform="translate(63.625 0)"/>
       <use xlink:href="#DejaVuSans-13" transform="translate(127.25 0)"/>
      </g>
     </g>
    </g>
    <g id="xtick_22">
     <g id="line2d_30">
      <g>
       <use xlink:href="#m8280f19913" x="152.313363" y="300.504317" style="stroke: #000000; stroke-width: 0.8"/>
      </g>
     </g>
     <g id="text_12">
      <!-- 300 -->
      <g transform="translate(142.769613 315.101974) scale(0.1 -0.1)">
       <defs>
        <path id="DejaVuSans-16" d="M 2597 2516 
Q 3050 2419 3304 2112 
Q 3559 1806 3559 1356 
Q 3559 666 3084 287 
Q 2609 -91 1734 -91 
Q 1441 -91 1130 -33 
Q 819 25 488 141 
L 488 750 
Q 750 597 1062 519 
Q 1375 441 1716 441 
Q 2309 441 2620 675 
Q 2931 909 2931 1356 
Q 2931 1769 2642 2001 
Q 2353 2234 1838 2234 
L 1294 2234 
L 1294 2753 
L 1863 2753 
Q 2328 2753 2575 2939 
Q 2822 3125 2822 3475 
Q 2822 3834 2567 4026 
Q 2313 4219 1838 4219 
Q 1578 4219 1281 4162 
Q 984 4106 628 3988 
L 628 4550 
Q 988 4650 1302 4700 
Q 1616 4750 1894 4750 
Q 2613 4750 3031 4423 
Q 3450 4097 3450 3541 
Q 3450 3153 3228 2886 
Q 3006 2619 2597 2516 
z
" transform="scale(0.015625)"/>
       </defs>
       <use xlink:href="#DejaVuSans-16"/>
       <use xlink:href="#DejaVuSans-13" transform="translate(63.625 0)"/>
       <use xlink:href="#DejaVuSans-13" transform="translate(127.25 0)"/>
      </g>
     </g>
    </g>
    <g id="xtick_23">
     <g id="line2d_31">
      <g>
       <use xlink:href="#m8280f19913" x="184.124158" y="300.504317" style="stroke: #000000; stroke-width: 0.8"/>
      </g>
     </g>
     <g id="text_13">
      <!-- 400 -->
      <g transform="translate(174.580408 315.101974) scale(0.1 -0.1)">
       <defs>
        <path id="DejaVuSans-17" d="M 2419 4116 
L 825 1625 
L 2419 1625 
L 2419 4116 
z
M 2253 4666 
L 3047 4666 
L 3047 1625 
L 3713 1625 
L 3713 1100 
L 3047 1100 
L 3047 0 
L 2419 0 
L 2419 1100 
L 313 1100 
L 313 1709 
L 2253 4666 
z
" transform="scale(0.015625)"/>
       </defs>
       <use xlink:href="#DejaVuSans-17"/>
       <use xlink:href="#DejaVuSans-13" transform="translate(63.625 0)"/>
       <use xlink:href="#DejaVuSans-13" transform="translate(127.25 0)"/>
      </g>
     </g>
    </g>
    <g id="xtick_24">
     <g id="line2d_32">
      <g>
       <use xlink:href="#m8280f19913" x="215.934952" y="300.504317" style="stroke: #000000; stroke-width: 0.8"/>
      </g>
     </g>
     <g id="text_14">
      <!-- 500 -->
      <g transform="translate(206.391202 315.101974) scale(0.1 -0.1)">
       <use xlink:href="#DejaVuSans-18"/>
       <use xlink:href="#DejaVuSans-13" transform="translate(63.625 0)"/>
       <use xlink:href="#DejaVuSans-13" transform="translate(127.25 0)"/>
      </g>
     </g>
    </g>
    <g id="xtick_25">
     <g id="line2d_33">
      <g>
       <use xlink:href="#m8280f19913" x="247.745747" y="300.504317" style="stroke: #000000; stroke-width: 0.8"/>
      </g>
     </g>
     <g id="text_15">
      <!-- 600 -->
      <g transform="translate(238.201997 315.101974) scale(0.1 -0.1)">
       <defs>
        <path id="DejaVuSans-19" d="M 2113 2584 
Q 1688 2584 1439 2293 
Q 1191 2003 1191 1497 
Q 1191 994 1439 701 
Q 1688 409 2113 409 
Q 2538 409 2786 701 
Q 3034 994 3034 1497 
Q 3034 2003 2786 2293 
Q 2538 2584 2113 2584 
z
M 3366 4563 
L 3366 3988 
Q 3128 4100 2886 4159 
Q 2644 4219 2406 4219 
Q 1781 4219 1451 3797 
Q 1122 3375 1075 2522 
Q 1259 2794 1537 2939 
Q 1816 3084 2150 3084 
Q 2853 3084 3261 2657 
Q 3669 2231 3669 1497 
Q 3669 778 3244 343 
Q 2819 -91 2113 -91 
Q 1303 -91 875 529 
Q 447 1150 447 2328 
Q 447 3434 972 4092 
Q 1497 4750 2381 4750 
Q 2619 4750 2861 4703 
Q 3103 4656 3366 4563 
z
" transform="scale(0.015625)"/>
       </defs>
       <use xlink:href="#DejaVuSans-19"/>
       <use xlink:href="#DejaVuSans-13" transform="translate(63.625 0)"/>
       <use xlink:href="#DejaVuSans-13" transform="translate(127.25 0)"/>
      </g>
     </g>
    </g>
    <g id="xtick_26">
     <g id="line2d_34">
      <g>
       <use xlink:href="#m8280f19913" x="279.556541" y="300.504317" style="stroke: #000000; stroke-width: 0.8"/>
      </g>
     </g>
     <g id="text_16">
      <!-- 700 -->
      <g transform="translate(270.012791 315.101974) scale(0.1 -0.1)">
       <defs>
        <path id="DejaVuSans-1a" d="M 525 4666 
L 3525 4666 
L 3525 4397 
L 1831 0 
L 1172 0 
L 2766 4134 
L 525 4134 
L 525 4666 
z
" transform="scale(0.015625)"/>
       </defs>
       <use xlink:href="#DejaVuSans-1a"/>
       <use xlink:href="#DejaVuSans-13" transform="translate(63.625 0)"/>
       <use xlink:href="#DejaVuSans-13" transform="translate(127.25 0)"/>
      </g>
     </g>
    </g>
    <g id="xtick_27">
     <g id="line2d_35">
      <g>
       <use xlink:href="#m8280f19913" x="311.367336" y="300.504317" style="stroke: #000000; stroke-width: 0.8"/>
      </g>
     </g>
     <g id="text_17">
      <!-- 800 -->
      <g transform="translate(301.823586 315.101974) scale(0.1 -0.1)">
       <defs>
        <path id="DejaVuSans-1b" d="M 2034 2216 
Q 1584 2216 1326 1975 
Q 1069 1734 1069 1313 
Q 1069 891 1326 650 
Q 1584 409 2034 409 
Q 2484 409 2743 651 
Q 3003 894 3003 1313 
Q 3003 1734 2745 1975 
Q 2488 2216 2034 2216 
z
M 1403 2484 
Q 997 2584 770 2862 
Q 544 3141 544 3541 
Q 544 4100 942 4425 
Q 1341 4750 2034 4750 
Q 2731 4750 3128 4425 
Q 3525 4100 3525 3541 
Q 3525 3141 3298 2862 
Q 3072 2584 2669 2484 
Q 3125 2378 3379 2068 
Q 3634 1759 3634 1313 
Q 3634 634 3220 271 
Q 2806 -91 2034 -91 
Q 1263 -91 848 271 
Q 434 634 434 1313 
Q 434 1759 690 2068 
Q 947 2378 1403 2484 
z
M 1172 3481 
Q 1172 3119 1398 2916 
Q 1625 2713 2034 2713 
Q 2441 2713 2670 2916 
Q 2900 3119 2900 3481 
Q 2900 3844 2670 4047 
Q 2441 4250 2034 4250 
Q 1625 4250 1398 4047 
Q 1172 3844 1172 3481 
z
" transform="scale(0.015625)"/>
       </defs>
       <use xlink:href="#DejaVuSans-1b"/>
       <use xlink:href="#DejaVuSans-13" transform="translate(63.625 0)"/>
       <use xlink:href="#DejaVuSans-13" transform="translate(127.25 0)"/>
      </g>
     </g>
    </g>
    <g id="text_18">
     <!-- Time -->
     <g transform="translate(172.415776 329.102755) scale(0.1 -0.1)">
      <defs>
       <path id="DejaVuSans-37" d="M -19 4666 
L 3928 4666 
L 3928 4134 
L 2272 4134 
L 2272 0 
L 1638 0 
L 1638 4134 
L -19 4134 
L -19 4666 
z
" transform="scale(0.015625)"/>
       <path id="DejaVuSans-4c" d="M 603 3500 
L 1178 3500 
L 1178 0 
L 603 0 
L 603 3500 
z
M 603 4863 
L 1178 4863 
L 1178 4134 
L 603 4134 
L 603 4863 
z
" transform="scale(0.015625)"/>
       <path id="DejaVuSans-50" d="M 3328 2828 
Q 3544 3216 3844 3400 
Q 4144 3584 4550 3584 
Q 5097 3584 5394 3201 
Q 5691 2819 5691 2113 
L 5691 0 
L 5113 0 
L 5113 2094 
Q 5113 2597 4934 2840 
Q 4756 3084 4391 3084 
Q 3944 3084 3684 2787 
Q 3425 2491 3425 1978 
L 3425 0 
L 2847 0 
L 2847 2094 
Q 2847 2600 2669 2842 
Q 2491 3084 2119 3084 
Q 1678 3084 1418 2786 
Q 1159 2488 1159 1978 
L 1159 0 
L 581 0 
L 581 3500 
L 1159 3500 
L 1159 2956 
Q 1356 3278 1631 3431 
Q 1906 3584 2284 3584 
Q 2666 3584 2933 3390 
Q 3200 3197 3328 2828 
z
" transform="scale(0.015625)"/>
      </defs>
      <use xlink:href="#DejaVuSans-37"/>
      <use xlink:href="#DejaVuSans-4c" transform="translate(58 0)"/>
      <use xlink:href="#DejaVuSans-50" transform="translate(85.78125 0)"/>
      <use xlink:href="#DejaVuSans-48" transform="translate(183.1875 0)"/>
     </g>
    </g>
   </g>
   <g id="matplotlib.axis_6">
    <g id="ytick_7">
     <g id="line2d_36">
      <g>
       <use xlink:href="#m0b1e40afe0" x="44.103906" y="296.443745" style="stroke: #000000; stroke-width: 0.8"/>
      </g>
     </g>
     <g id="text_19">
      <!-- 0.0 -->
      <g transform="translate(21.200781 300.242573) scale(0.1 -0.1)">
       <defs>
        <path id="DejaVuSans-11" d="M 684 794 
L 1344 794 
L 1344 0 
L 684 0 
L 684 794 
z
" transform="scale(0.015625)"/>
       </defs>
       <use xlink:href="#DejaVuSans-13"/>
       <use xlink:href="#DejaVuSans-11" transform="translate(63.625 0)"/>
       <use xlink:href="#DejaVuSans-13" transform="translate(95.40625 0)"/>
      </g>
     </g>
    </g>
    <g id="ytick_8">
     <g id="line2d_37">
      <g>
       <use xlink:href="#m0b1e40afe0" x="44.103906" y="255.838021" style="stroke: #000000; stroke-width: 0.8"/>
      </g>
     </g>
     <g id="text_20">
      <!-- 0.5 -->
      <g transform="translate(21.200781 259.636849) scale(0.1 -0.1)">
       <use xlink:href="#DejaVuSans-13"/>
       <use xlink:href="#DejaVuSans-11" transform="translate(63.625 0)"/>
       <use xlink:href="#DejaVuSans-18" transform="translate(95.40625 0)"/>
      </g>
     </g>
    </g>
    <g id="ytick_9">
     <g id="line2d_38">
      <g>
       <use xlink:href="#m0b1e40afe0" x="44.103906" y="215.232297" style="stroke: #000000; stroke-width: 0.8"/>
      </g>
     </g>
     <g id="text_21">
      <!-- 1.0 -->
      <g transform="translate(21.200781 219.031125) scale(0.1 -0.1)">
       <use xlink:href="#DejaVuSans-14"/>
       <use xlink:href="#DejaVuSans-11" transform="translate(63.625 0)"/>
       <use xlink:href="#DejaVuSans-13" transform="translate(95.40625 0)"/>
      </g>
     </g>
    </g>
    <g id="text_22">
     <!-- Free lac operon -->
     <g transform="translate(14.798438 294.31224) rotate(-90) scale(0.1 -0.1)">
      <defs>
       <path id="DejaVuSans-29" d="M 628 4666 
L 3309 4666 
L 3309 4134 
L 1259 4134 
L 1259 2759 
L 3109 2759 
L 3109 2228 
L 1259 2228 
L 1259 0 
L 628 0 
L 628 4666 
z
" transform="scale(0.015625)"/>
       <path id="DejaVuSans-53" d="M 1159 525 
L 1159 -1331 
L 581 -1331 
L 581 3500 
L 1159 3500 
L 1159 2969 
Q 1341 3281 1617 3432 
Q 1894 3584 2278 3584 
Q 2916 3584 3314 3078 
Q 3713 2572 3713 1747 
Q 3713 922 3314 415 
Q 2916 -91 2278 -91 
Q 1894 -91 1617 61 
Q 1341 213 1159 525 
z
M 3116 1747 
Q 3116 2381 2855 2742 
Q 2594 3103 2138 3103 
Q 1681 3103 1420 2742 
Q 1159 2381 1159 1747 
Q 1159 1113 1420 752 
Q 1681 391 2138 391 
Q 2594 391 2855 752 
Q 3116 1113 3116 1747 
z
" transform="scale(0.015625)"/>
       <path id="DejaVuSans-51" d="M 3513 2113 
L 3513 0 
L 2938 0 
L 2938 2094 
Q 2938 2591 2744 2837 
Q 2550 3084 2163 3084 
Q 1697 3084 1428 2787 
Q 1159 2491 1159 1978 
L 1159 0 
L 581 0 
L 581 3500 
L 1159 3500 
L 1159 2956 
Q 1366 3272 1645 3428 
Q 1925 3584 2291 3584 
Q 2894 3584 3203 3211 
Q 3513 2838 3513 2113 
z
" transform="scale(0.015625)"/>
      </defs>
      <use xlink:href="#DejaVuSans-29"/>
      <use xlink:href="#DejaVuSans-55" transform="translate(50.234375 0)"/>
      <use xlink:href="#DejaVuSans-48" transform="translate(89.140625 0)"/>
      <use xlink:href="#DejaVuSans-48" transform="translate(150.671875 0)"/>
      <use xlink:href="#DejaVuSans-3" transform="translate(212.203125 0)"/>
      <use xlink:href="#DejaVuSans-4f" transform="translate(243.984375 0)"/>
      <use xlink:href="#DejaVuSans-44" transform="translate(271.765625 0)"/>
      <use xlink:href="#DejaVuSans-46" transform="translate(333.046875 0)"/>
      <use xlink:href="#DejaVuSans-3" transform="translate(388.03125 0)"/>
      <use xlink:href="#DejaVuSans-52" transform="translate(419.8125 0)"/>
      <use xlink:href="#DejaVuSans-53" transform="translate(481 0)"/>
      <use xlink:href="#DejaVuSans-48" transform="translate(544.484375 0)"/>
      <use xlink:href="#DejaVuSans-55" transform="translate(606.015625 0)"/>
      <use xlink:href="#DejaVuSans-52" transform="translate(644.921875 0)"/>
      <use xlink:href="#DejaVuSans-51" transform="translate(706.109375 0)"/>
     </g>
    </g>
   </g>
   <g id="line2d_39">
    <path d="M 56.88098 215.232297 
L 56.96234 296.443745 
L 57.13031 296.443745 
L 57.29957 215.232297 
L 57.417514 215.232297 
L 57.519453 296.443745 
L 58.733436 296.443745 
L 59.721414 215.232297 
L 59.907405 215.232297 
L 59.930107 296.443745 
L 62.346988 296.443745 
L 64.936616 215.232297 
L 65.230956 215.232297 
L 65.368141 296.443745 
L 65.493777 296.443745 
L 72.143641 215.232297 
L 72.313111 296.443745 
L 80.137916 215.232297 
L 80.18686 296.443745 
L 82.808371 215.232297 
L 82.948097 215.232297 
L 83.002157 296.443745 
L 84.739206 296.443745 
L 84.804516 215.232297 
L 85.679151 215.232297 
L 85.86877 296.443745 
L 86.899659 296.443745 
L 89.886602 215.232297 
L 90.425586 215.232297 
L 90.45481 296.443745 
L 90.81204 296.443745 
L 91.691765 215.232297 
L 91.750101 296.443745 
L 92.093292 296.443745 
L 109.135816 215.232297 
L 109.149492 296.443745 
L 109.407466 296.443745 
L 109.68307 215.232297 
L 109.969879 296.443745 
L 110.097705 215.232297 
L 110.504681 215.232297 
L 110.708875 296.443745 
L 111.000959 296.443745 
L 115.155183 215.232297 
L 115.814549 296.443745 
L 117.453454 215.232297 
L 117.768083 296.443745 
L 118.439224 215.232297 
L 118.526382 296.443745 
L 119.533815 215.232297 
L 119.618562 296.443745 
L 123.55386 296.443745 
L 129.561209 215.232297 
L 129.666954 296.443745 
L 131.405897 215.232297 
L 131.855829 215.232297 
L 131.877228 296.443745 
L 133.714003 296.443745 
L 136.304684 215.232297 
L 136.317965 296.443745 
L 139.193518 215.232297 
L 139.236167 296.443745 
L 146.266004 215.232297 
L 147.208522 215.232297 
L 147.276705 296.443745 
L 147.891952 296.443745 
L 148.136516 215.232297 
L 148.450792 215.232297 
L 148.563323 296.443745 
L 149.631882 296.443745 
L 150.142333 215.232297 
L 150.242893 296.443745 
L 151.361841 296.443745 
L 151.37314 215.232297 
L 151.534368 296.443745 
L 155.834612 215.232297 
L 155.923375 296.443745 
L 156.172216 215.232297 
L 193.480286 215.232297 
L 193.555445 296.443745 
L 197.037709 296.443745 
L 198.747468 215.232297 
L 199.97113 215.232297 
L 199.994026 296.443745 
L 200.828323 296.443745 
L 208.703529 215.232297 
L 209.040061 215.232297 
L 209.089129 296.443745 
L 210.889227 296.443745 
L 216.348405 215.232297 
L 216.692708 215.232297 
L 216.750978 296.443745 
L 217.835249 296.443745 
L 223.806322 215.232297 
L 224.056564 296.443745 
L 226.17481 215.232297 
L 227.191016 215.232297 
L 227.598928 296.443745 
L 228.087535 296.443745 
L 228.260742 215.232297 
L 228.4126 215.232297 
L 228.583283 296.443745 
L 231.72263 296.443745 
L 233.190573 215.232297 
L 233.28804 296.443745 
L 233.742784 215.232297 
L 234.050702 215.232297 
L 234.220216 296.443745 
L 234.273302 215.232297 
L 234.324805 296.443745 
L 235.591104 296.443745 
L 244.505039 215.232297 
L 244.650077 215.232297 
L 244.654554 296.443745 
L 245.13881 296.443745 
L 256.093899 215.232297 
L 256.232063 296.443745 
L 258.460946 215.232297 
L 258.795419 296.443745 
L 260.009717 215.232297 
L 260.034039 296.443745 
L 260.177718 215.232297 
L 261.503227 215.232297 
L 261.50747 296.443745 
L 261.568622 215.232297 
L 261.623901 215.232297 
L 261.921574 296.443745 
L 262.077399 296.443745 
L 264.189559 215.232297 
L 264.486951 215.232297 
L 264.499674 296.443745 
L 265.365205 296.443745 
L 276.697259 215.232297 
L 276.831787 296.443745 
L 277.086108 215.232297 
L 277.395995 215.232297 
L 277.511195 296.443745 
L 278.462692 296.443745 
L 279.712594 215.232297 
L 279.923414 215.232297 
L 280.016249 296.443745 
L 280.164128 215.232297 
L 280.240519 296.443745 
L 280.864099 215.232297 
L 281.18321 296.443745 
L 287.268241 215.232297 
L 287.508703 296.443745 
L 291.951339 215.232297 
L 291.97178 296.443745 
L 293.845765 215.232297 
L 295.757582 215.232297 
L 295.759616 296.443745 
L 296.524967 296.443745 
L 296.65767 215.232297 
L 296.668292 296.443745 
L 297.113839 296.443745 
L 298.110801 215.232297 
L 298.113857 296.443745 
L 300.924831 296.443745 
L 302.27877 215.232297 
L 302.860782 215.232297 
L 302.893153 296.443745 
L 303.527197 296.443745 
L 312.422447 215.232297 
L 312.422447 215.232297 
" clip-path="url(#p110651ce79)" style="fill: none; stroke: #000000; stroke-width: 1.5; stroke-linecap: square"/>
   </g>
   <g id="patch_13">
    <path d="M 44.103906 300.504317 
L 44.103906 211.171724 
" style="fill: none; stroke: #000000; stroke-width: 0.8; stroke-linejoin: miter; stroke-linecap: square"/>
   </g>
   <g id="patch_14">
    <path d="M 325.19952 300.504317 
L 325.19952 211.171724 
" style="fill: none; stroke: #000000; stroke-width: 0.8; stroke-linejoin: miter; stroke-linecap: square"/>
   </g>
   <g id="patch_15">
    <path d="M 44.103906 300.504317 
L 325.19952 300.504317 
" style="fill: none; stroke: #000000; stroke-width: 0.8; stroke-linejoin: miter; stroke-linecap: square"/>
   </g>
   <g id="patch_16">
    <path d="M 44.103906 211.171724 
L 325.19952 211.171724 
" style="fill: none; stroke: #000000; stroke-width: 0.8; stroke-linejoin: miter; stroke-linecap: square"/>
   </g>
  </g>
 </g>
 <defs>
  <clipPath id="p9956d9969d">
   <rect x="44.103906" y="13.505579" width="281.095614" height="89.332593"/>
  </clipPath>
  <clipPath id="p4b1ca05259">
   <rect x="44.103906" y="112.338651" width="281.095614" height="89.332593"/>
  </clipPath>
  <clipPath id="p110651ce79">
   <rect x="44.103906" y="211.171724" width="281.095614" height="89.332593"/>
  </clipPath>
 </defs>
</svg>
