<?xml version="1.0" encoding="UTF-8" standalone="no"?>
<!DOCTYPE svg PUBLIC "-//W3C//DTD SVG 1.1//EN"
 "http://www.w3.org/Graphics/SVG/1.1/DTD/svg11.dtd">
<!-- Generated by graphviz version 2.43.0 (0)
 -->
<!-- Title: %3 Pages: 1 -->
<svg width="218pt" height="188pt"
 viewBox="0.00 0.00 218.00 188.00" xmlns="http://www.w3.org/2000/svg" xmlns:xlink="http://www.w3.org/1999/xlink">
<g id="graph0" class="graph" transform="scale(1 1) rotate(0) translate(4 184)">
<title>%3</title>
<polygon fill="white" stroke="transparent" points="-4,4 -4,-184 214,-184 214,4 -4,4"/>
<!-- A -->
<g id="node1" class="node">
<title>A</title>
<polygon fill="none" stroke="black" points="167,-151 167,-172 184,-172 184,-151 167,-151"/>
<text text-anchor="start" x="170" y="-158.8" font-family="Times,serif" font-weight="bold" font-size="14.00">A</text>
<polygon fill="none" stroke="black" points="184,-151 184,-172 195,-172 195,-151 184,-151"/>
<text text-anchor="start" x="187" y="-157.8" font-family="Times,serif" font-size="14.00">i</text>
</g>
<!-- I -->
<g id="node2" class="node">
<title>I</title>
<polygon fill="none" stroke="black" points="169,-79 169,-100 182,-100 182,-79 169,-79"/>
<text text-anchor="start" x="172" y="-86.8" font-family="Times,serif" font-weight="bold" font-size="14.00">I</text>
<polygon fill="none" stroke="black" points="182,-79 182,-100 197,-100 197,-79 182,-79"/>
<text text-anchor="start" x="185" y="-85.8" font-family="Times,serif" font-size="14.00">o</text>
</g>
<!-- A&#45;&gt;I -->
<g id="edge8" class="edge">
<title>A:i&#45;&gt;I:o</title>
<path fill="none" stroke="black" d="M190,-150C181,-128.22 181,-122.78 190,-101"/>
</g>
<!-- A&#45;&gt;I -->
<g id="edge10" class="edge">
<title>A:i&#45;&gt;I:o</title>
<path fill="none" stroke="black" stroke-dasharray="5,2" d="M190.11,-149.75C198.93,-128.35 198.96,-122.78 190.21,-101.51"/>
</g>
<!-- sink -->
<g id="node7" class="node">
<title>sink</title>
<text text-anchor="middle" x="89" y="-86.3" font-family="Times,serif" font-size="14.00">∅</text>
</g>
<!-- A&#45;&gt;sink -->
<g id="edge3" class="edge">
<title>A&#45;&gt;sink</title>
<path fill="none" stroke="black" d="M158.26,-143.7C140.62,-130.28 116.8,-112.15 102.19,-101.04"/>
<polygon fill="black" stroke="black" points="104.15,-98.13 94.08,-94.86 99.91,-103.7 104.15,-98.13"/>
</g>
<!-- O -->
<g id="node4" class="node">
<title>O</title>
<polygon fill="none" stroke="black" points="165,-7 165,-28 184,-28 184,-7 165,-7"/>
<text text-anchor="start" x="168" y="-14.8" font-family="Times,serif" font-weight="bold" font-size="14.00">O</text>
<polygon fill="none" stroke="black" points="184,-7 184,-28 195,-28 195,-7 184,-7"/>
<text text-anchor="start" x="187" y="-13.8" font-family="Times,serif" font-size="14.00">i</text>
</g>
<!-- I&#45;&gt;O -->
<g id="edge7" class="edge">
<title>I:o&#45;&gt;O:i</title>
<path fill="none" stroke="black" d="M190,-78C181,-56.22 181,-50.78 190,-29"/>
</g>
<!-- I&#45;&gt;O -->
<g id="edge9" class="edge">
<title>I:o&#45;&gt;O:i</title>
<path fill="none" stroke="black" stroke-dasharray="5,2" d="M190.11,-77.75C198.93,-56.35 198.96,-50.78 190.21,-29.51"/>
</g>
<!-- L -->
<g id="node3" class="node">
<title>L</title>
<polygon fill="none" stroke="black" points="14,-151 14,-172 30,-172 30,-151 14,-151"/>
<text text-anchor="start" x="17" y="-158.8" font-family="Times,serif" font-weight="bold" font-size="14.00">L</text>
<polygon fill="none" stroke="black" points="30,-151 30,-172 128,-172 128,-151 30,-151"/>
<text text-anchor="start" x="33" y="-157.8" font-family="Times,serif" font-size="14.00">loc {out→in}</text>
</g>
<!-- L&#45;&gt;sink -->
<g id="edge4" class="edge">
<title>L&#45;&gt;sink</title>
<path fill="none" stroke="black" d="M75.45,-143.7C78.29,-132.64 81.96,-118.38 84.76,-107.49"/>
<polygon fill="black" stroke="black" points="88.2,-108.18 87.3,-97.62 81.42,-106.44 88.2,-108.18"/>
</g>
<!-- Y -->
<g id="node5" class="node">
<title>Y</title>
<polygon fill="none" stroke="black" points="19,-7 19,-28 35,-28 35,-7 19,-7"/>
<text text-anchor="start" x="22" y="-14.8" font-family="Times,serif" font-weight="bold" font-size="14.00">Y</text>
</g>
<!-- Y&#45;&gt;sink -->
<g id="edge5" class="edge">
<title>Y&#45;&gt;sink</title>
<path fill="none" stroke="black" d="M48.06,-36.12C59.56,-47.73 72.95,-62.95 81.42,-74.07"/>
<polygon fill="black" stroke="black" points="78.6,-76.14 87.23,-82.29 84.32,-72.1 78.6,-76.14"/>
</g>
<!-- Z -->
<g id="node6" class="node">
<title>Z</title>
<polygon fill="none" stroke="black" points="91,-7 91,-28 108,-28 108,-7 91,-7"/>
<text text-anchor="start" x="94" y="-14.8" font-family="Times,serif" font-weight="bold" font-size="14.00">Z</text>
</g>
<!-- Z&#45;&gt;sink -->
<g id="edge6" class="edge">
<title>Z&#45;&gt;sink</title>
<path fill="none" stroke="black" d="M102.45,-36.26C102.01,-47.38 99.92,-61.74 97.14,-72.67"/>
<polygon fill="black" stroke="black" points="93.7,-71.95 94.04,-82.54 100.38,-74.05 93.7,-71.95"/>
</g>
<!-- sink&#45;&gt;Y -->
<g id="edge1" class="edge">
<title>sink&#45;&gt;Y</title>
<path fill="none" stroke="black" d="M83.85,-86.34C74.47,-79.45 56.38,-60.43 42.94,-44.36"/>
<polygon fill="black" stroke="black" points="45.42,-41.86 36.41,-36.3 39.99,-46.27 45.42,-41.86"/>
</g>
<!-- sink&#45;&gt;Z -->
<g id="edge2" class="edge">
<title>sink&#45;&gt;Z</title>
<path fill="none" stroke="black" d="M85.78,-82.29C84.84,-73.97 86.13,-59.29 88.52,-46.16"/>
<polygon fill="black" stroke="black" points="92,-46.62 90.66,-36.12 85.16,-45.17 92,-46.62"/>
</g>
</g>
</svg>
