<?xml version="1.0" encoding="utf-8" standalone="no"?>
<!DOCTYPE svg PUBLIC "-//W3C//DTD SVG 1.1//EN"
  "http://www.w3.org/Graphics/SVG/1.1/DTD/svg11.dtd">
<svg xmlns:xlink="http://www.w3.org/1999/xlink" width="332.39952pt" height="332.39952pt" viewBox="0 0 332.39952 332.39952" xmlns="http://www.w3.org/2000/svg" version="1.1">
 <metadata>
  <rdf:RDF xmlns:dc="http://purl.org/dc/elements/1.1/" xmlns:cc="http://creativecommons.org/ns#" xmlns:rdf="http://www.w3.org/1999/02/22-rdf-syntax-ns#">
   <cc:Work>
    <dc:type rdf:resource="http://purl.org/dc/dcmitype/StillImage"/>
    <dc:date>2026-06-08T15:28:22.565009</dc:date>
    <dc:format>image/svg+xml</dc:format>
    <dc:creator>
     <cc:Agent>
      <dc:title>Matplotlib v3.10.9, https://matplotlib.org/</dc:title>
     </cc:Agent>
    </dc:creator>
   </cc:Work>
  </rdf:RDF>
 </metadata>
 <defs>
  <style type="text/css">*{stroke-linejoin: round; stroke-linecap: butt}</style>
 </defs>
 <g id="figure_1">
  <g id="patch_1">
   <path d="M 0 332.39952 
L 332.39952 332.39952 
L 332.39952 0 
L 0 0 
z
" style="fill: #ffffff"/>
  </g>
  <g id="axes_1">
   <g id="patch_2">
    <path d="M 43.78125 96.747437 
L 325.19952 96.747437 
L 325.19952 7.2 
L 43.78125 7.2 
z
" style="fill: #ffffff"/>
   </g>
   <g id="matplotlib.axis_1">
    <g id="xtick_1">
     <g id="line2d_1">
      <defs>
       <path id="mc79cc05e46" d="M 0 0 
L 0 3.5 
" style="stroke: #000000; stroke-width: 0.8"/>
      </defs>
      <g>
       <use xlink:href="#mc79cc05e46" x="56.57299" y="96.747437" style="stroke: #000000; stroke-width: 0.8"/>
      </g>
     </g>
    </g>
    <g id="xtick_2">
     <g id="line2d_2">
      <g>
       <use xlink:href="#mc79cc05e46" x="88.448153" y="96.747437" style="stroke: #000000; stroke-width: 0.8"/>
      </g>
     </g>
    </g>
    <g id="xtick_3">
     <g id="line2d_3">
      <g>
       <use xlink:href="#mc79cc05e46" x="120.323315" y="96.747437" style="stroke: #000000; stroke-width: 0.8"/>
      </g>
     </g>
    </g>
    <g id="xtick_4">
     <g id="line2d_4">
      <g>
       <use xlink:href="#mc79cc05e46" x="152.198478" y="96.747437" style="stroke: #000000; stroke-width: 0.8"/>
      </g>
     </g>
    </g>
    <g id="xtick_5">
     <g id="line2d_5">
      <g>
       <use xlink:href="#mc79cc05e46" x="184.073641" y="96.747437" style="stroke: #000000; stroke-width: 0.8"/>
      </g>
     </g>
    </g>
    <g id="xtick_6">
     <g id="line2d_6">
      <g>
       <use xlink:href="#mc79cc05e46" x="215.948804" y="96.747437" style="stroke: #000000; stroke-width: 0.8"/>
      </g>
     </g>
    </g>
    <g id="xtick_7">
     <g id="line2d_7">
      <g>
       <use xlink:href="#mc79cc05e46" x="247.823967" y="96.747437" style="stroke: #000000; stroke-width: 0.8"/>
      </g>
     </g>
    </g>
    <g id="xtick_8">
     <g id="line2d_8">
      <g>
       <use xlink:href="#mc79cc05e46" x="279.69913" y="96.747437" style="stroke: #000000; stroke-width: 0.8"/>
      </g>
     </g>
    </g>
    <g id="xtick_9">
     <g id="line2d_9">
      <g>
       <use xlink:href="#mc79cc05e46" x="311.574293" y="96.747437" style="stroke: #000000; stroke-width: 0.8"/>
      </g>
     </g>
    </g>
   </g>
   <g id="matplotlib.axis_2">
    <g id="ytick_1">
     <g id="line2d_10">
      <defs>
       <path id="m9ae1813111" d="M 0 0 
L -3.5 0 
" style="stroke: #000000; stroke-width: 0.8"/>
      </defs>
      <g>
       <use xlink:href="#m9ae1813111" x="43.78125" y="92.677099" style="stroke: #000000; stroke-width: 0.8"/>
      </g>
     </g>
     <g id="text_1">
      <!-- 0 -->
      <g transform="translate(30.41875 96.476317) scale(0.1 -0.1)">
       <defs>
        <path id="DejaVuSans-30" d="M 2034 4250 
Q 1547 4250 1301 3770 
Q 1056 3291 1056 2328 
Q 1056 1369 1301 889 
Q 1547 409 2034 409 
Q 2525 409 2770 889 
Q 3016 1369 3016 2328 
Q 3016 3291 2770 3770 
Q 2525 4250 2034 4250 
z
M 2034 4750 
Q 2819 4750 3233 4129 
Q 3647 3509 3647 2328 
Q 3647 1150 3233 529 
Q 2819 -91 2034 -91 
Q 1250 -91 836 529 
Q 422 1150 422 2328 
Q 422 3509 836 4129 
Q 1250 4750 2034 4750 
z
" transform="scale(0.015625)"/>
       </defs>
       <use xlink:href="#DejaVuSans-30"/>
      </g>
     </g>
    </g>
    <g id="ytick_2">
     <g id="line2d_11">
      <g>
       <use xlink:href="#m9ae1813111" x="43.78125" y="51.973718" style="stroke: #000000; stroke-width: 0.8"/>
      </g>
     </g>
     <g id="text_2">
      <!-- 5 -->
      <g transform="translate(30.41875 55.772937) scale(0.1 -0.1)">
       <defs>
        <path id="DejaVuSans-35" d="M 691 4666 
L 3169 4666 
L 3169 4134 
L 1269 4134 
L 1269 2991 
Q 1406 3038 1543 3061 
Q 1681 3084 1819 3084 
Q 2600 3084 3056 2656 
Q 3513 2228 3513 1497 
Q 3513 744 3044 326 
Q 2575 -91 1722 -91 
Q 1428 -91 1123 -41 
Q 819 9 494 109 
L 494 744 
Q 775 591 1075 516 
Q 1375 441 1709 441 
Q 2250 441 2565 725 
Q 2881 1009 2881 1497 
Q 2881 1984 2565 2268 
Q 2250 2553 1709 2553 
Q 1456 2553 1204 2497 
Q 953 2441 691 2322 
L 691 4666 
z
" transform="scale(0.015625)"/>
       </defs>
       <use xlink:href="#DejaVuSans-35"/>
      </g>
     </g>
    </g>
    <g id="ytick_3">
     <g id="line2d_12">
      <g>
       <use xlink:href="#m9ae1813111" x="43.78125" y="11.270338" style="stroke: #000000; stroke-width: 0.8"/>
      </g>
     </g>
     <g id="text_3">
      <!-- 10 -->
      <g transform="translate(24.05625 15.069557) scale(0.1 -0.1)">
       <defs>
        <path id="DejaVuSans-31" d="M 794 531 
L 1825 531 
L 1825 4091 
L 703 3866 
L 703 4441 
L 1819 4666 
L 2450 4666 
L 2450 531 
L 3481 531 
L 3481 0 
L 794 0 
L 794 531 
z
" transform="scale(0.015625)"/>
       </defs>
       <use xlink:href="#DejaVuSans-31"/>
       <use xlink:href="#DejaVuSans-30" transform="translate(63.623047 0)"/>
      </g>
     </g>
    </g>
    <g id="text_4">
     <!-- Extracellular lactose -->
     <g transform="translate(17.976562 102.945593) rotate(-90) scale(0.1 -0.1)">
      <defs>
       <path id="DejaVuSans-45" d="M 628 4666 
L 3578 4666 
L 3578 4134 
L 1259 4134 
L 1259 2753 
L 3481 2753 
L 3481 2222 
L 1259 2222 
L 1259 531 
L 3634 531 
L 3634 0 
L 628 0 
L 628 4666 
z
" transform="scale(0.015625)"/>
       <path id="DejaVuSans-78" d="M 3513 3500 
L 2247 1797 
L 3578 0 
L 2900 0 
L 1881 1375 
L 863 0 
L 184 0 
L 1544 1831 
L 300 3500 
L 978 3500 
L 1906 2253 
L 2834 3500 
L 3513 3500 
z
" transform="scale(0.015625)"/>
       <path id="DejaVuSans-74" d="M 1172 4494 
L 1172 3500 
L 2356 3500 
L 2356 3053 
L 1172 3053 
L 1172 1153 
Q 1172 725 1289 603 
Q 1406 481 1766 481 
L 2356 481 
L 2356 0 
L 1766 0 
Q 1100 0 847 248 
Q 594 497 594 1153 
L 594 3053 
L 172 3053 
L 172 3500 
L 594 3500 
L 594 4494 
L 1172 4494 
z
" transform="scale(0.015625)"/>
       <path id="DejaVuSans-72" d="M 2631 2963 
Q 2534 3019 2420 3045 
Q 2306 3072 2169 3072 
Q 1681 3072 1420 2755 
Q 1159 2438 1159 1844 
L 1159 0 
L 581 0 
L 581 3500 
L 1159 3500 
L 1159 2956 
Q 1341 3275 1631 3429 
Q 1922 3584 2338 3584 
Q 2397 3584 2469 3576 
Q 2541 3569 2628 3553 
L 2631 2963 
z
" transform="scale(0.015625)"/>
       <path id="DejaVuSans-61" d="M 2194 1759 
Q 1497 1759 1228 1600 
Q 959 1441 959 1056 
Q 959 750 1161 570 
Q 1363 391 1709 391 
Q 2188 391 2477 730 
Q 2766 1069 2766 1631 
L 2766 1759 
L 2194 1759 
z
M 3341 1997 
L 3341 0 
L 2766 0 
L 2766 531 
Q 2569 213 2275 61 
Q 1981 -91 1556 -91 
Q 1019 -91 701 211 
Q 384 513 384 1019 
Q 384 1609 779 1909 
Q 1175 2209 1959 2209 
L 2766 2209 
L 2766 2266 
Q 2766 2663 2505 2880 
Q 2244 3097 1772 3097 
Q 1472 3097 1187 3025 
Q 903 2953 641 2809 
L 641 3341 
Q 956 3463 1253 3523 
Q 1550 3584 1831 3584 
Q 2591 3584 2966 3190 
Q 3341 2797 3341 1997 
z
" transform="scale(0.015625)"/>
       <path id="DejaVuSans-63" d="M 3122 3366 
L 3122 2828 
Q 2878 2963 2633 3030 
Q 2388 3097 2138 3097 
Q 1578 3097 1268 2742 
Q 959 2388 959 1747 
Q 959 1106 1268 751 
Q 1578 397 2138 397 
Q 2388 397 2633 464 
Q 2878 531 3122 666 
L 3122 134 
Q 2881 22 2623 -34 
Q 2366 -91 2075 -91 
Q 1284 -91 818 406 
Q 353 903 353 1747 
Q 353 2603 823 3093 
Q 1294 3584 2113 3584 
Q 2378 3584 2631 3529 
Q 2884 3475 3122 3366 
z
" transform="scale(0.015625)"/>
       <path id="DejaVuSans-65" d="M 3597 1894 
L 3597 1613 
L 953 1613 
Q 991 1019 1311 708 
Q 1631 397 2203 397 
Q 2534 397 2845 478 
Q 3156 559 3463 722 
L 3463 178 
Q 3153 47 2828 -22 
Q 2503 -91 2169 -91 
Q 1331 -91 842 396 
Q 353 884 353 1716 
Q 353 2575 817 3079 
Q 1281 3584 2069 3584 
Q 2775 3584 3186 3129 
Q 3597 2675 3597 1894 
z
M 3022 2063 
Q 3016 2534 2758 2815 
Q 2500 3097 2075 3097 
Q 1594 3097 1305 2825 
Q 1016 2553 972 2059 
L 3022 2063 
z
" transform="scale(0.015625)"/>
       <path id="DejaVuSans-6c" d="M 603 4863 
L 1178 4863 
L 1178 0 
L 603 0 
L 603 4863 
z
" transform="scale(0.015625)"/>
       <path id="DejaVuSans-75" d="M 544 1381 
L 544 3500 
L 1119 3500 
L 1119 1403 
Q 1119 906 1312 657 
Q 1506 409 1894 409 
Q 2359 409 2629 706 
Q 2900 1003 2900 1516 
L 2900 3500 
L 3475 3500 
L 3475 0 
L 2900 0 
L 2900 538 
Q 2691 219 2414 64 
Q 2138 -91 1772 -91 
Q 1169 -91 856 284 
Q 544 659 544 1381 
z
M 1991 3584 
L 1991 3584 
z
" transform="scale(0.015625)"/>
       <path id="DejaVuSans-20" transform="scale(0.015625)"/>
       <path id="DejaVuSans-6f" d="M 1959 3097 
Q 1497 3097 1228 2736 
Q 959 2375 959 1747 
Q 959 1119 1226 758 
Q 1494 397 1959 397 
Q 2419 397 2687 759 
Q 2956 1122 2956 1747 
Q 2956 2369 2687 2733 
Q 2419 3097 1959 3097 
z
M 1959 3584 
Q 2709 3584 3137 3096 
Q 3566 2609 3566 1747 
Q 3566 888 3137 398 
Q 2709 -91 1959 -91 
Q 1206 -91 779 398 
Q 353 888 353 1747 
Q 353 2609 779 3096 
Q 1206 3584 1959 3584 
z
" transform="scale(0.015625)"/>
       <path id="DejaVuSans-73" d="M 2834 3397 
L 2834 2853 
Q 2591 2978 2328 3040 
Q 2066 3103 1784 3103 
Q 1356 3103 1142 2972 
Q 928 2841 928 2578 
Q 928 2378 1081 2264 
Q 1234 2150 1697 2047 
L 1894 2003 
Q 2506 1872 2764 1633 
Q 3022 1394 3022 966 
Q 3022 478 2636 193 
Q 2250 -91 1575 -91 
Q 1294 -91 989 -36 
Q 684 19 347 128 
L 347 722 
Q 666 556 975 473 
Q 1284 391 1588 391 
Q 1994 391 2212 530 
Q 2431 669 2431 922 
Q 2431 1156 2273 1281 
Q 2116 1406 1581 1522 
L 1381 1569 
Q 847 1681 609 1914 
Q 372 2147 372 2553 
Q 372 3047 722 3315 
Q 1072 3584 1716 3584 
Q 2034 3584 2315 3537 
Q 2597 3491 2834 3397 
z
" transform="scale(0.015625)"/>
      </defs>
      <use xlink:href="#DejaVuSans-45"/>
      <use xlink:href="#DejaVuSans-78" transform="translate(63.183594 0)"/>
      <use xlink:href="#DejaVuSans-74" transform="translate(122.363281 0)"/>
      <use xlink:href="#DejaVuSans-72" transform="translate(161.572266 0)"/>
      <use xlink:href="#DejaVuSans-61" transform="translate(202.685547 0)"/>
      <use xlink:href="#DejaVuSans-63" transform="translate(263.964844 0)"/>
      <use xlink:href="#DejaVuSans-65" transform="translate(318.945312 0)"/>
      <use xlink:href="#DejaVuSans-6c" transform="translate(380.46875 0)"/>
      <use xlink:href="#DejaVuSans-6c" transform="translate(408.251953 0)"/>
      <use xlink:href="#DejaVuSans-75" transform="translate(436.035156 0)"/>
      <use xlink:href="#DejaVuSans-6c" transform="translate(499.414062 0)"/>
      <use xlink:href="#DejaVuSans-61" transform="translate(527.197266 0)"/>
      <use xlink:href="#DejaVuSans-72" transform="translate(588.476562 0)"/>
      <use xlink:href="#DejaVuSans-20" transform="translate(629.589844 0)"/>
      <use xlink:href="#DejaVuSans-6c" transform="translate(661.376953 0)"/>
      <use xlink:href="#DejaVuSans-61" transform="translate(689.160156 0)"/>
      <use xlink:href="#DejaVuSans-63" transform="translate(750.439453 0)"/>
      <use xlink:href="#DejaVuSans-74" transform="translate(805.419922 0)"/>
      <use xlink:href="#DejaVuSans-6f" transform="translate(844.628906 0)"/>
      <use xlink:href="#DejaVuSans-73" transform="translate(905.810547 0)"/>
      <use xlink:href="#DejaVuSans-65" transform="translate(957.910156 0)"/>
     </g>
    </g>
   </g>
   <g id="line2d_13">
    <path d="M 56.57299 92.677099 
L 155.726852 92.677099 
L 155.815795 11.270338 
L 156.482622 11.351745 
L 156.600105 11.677372 
L 156.644842 11.758779 
L 156.790781 13.2241 
L 156.908917 14.852235 
L 156.922721 14.933642 
L 157.065984 16.643184 
L 157.089492 16.724591 
L 157.598185 20.225082 
L 157.999436 20.957743 
L 158.100742 21.039149 
L 158.26782 21.934624 
L 158.279108 22.01603 
L 158.394586 22.748691 
L 158.4054 22.830098 
L 158.534476 24.214013 
L 160.443165 34.634078 
L 160.469416 34.715485 
L 160.975192 36.506434 
L 161.322583 36.587841 
L 161.51991 37.157688 
L 161.536749 37.239095 
L 161.77533 38.460196 
L 161.894912 38.86723 
L 161.999684 39.11145 
L 162.108263 39.192857 
L 162.699334 41.553653 
L 162.794799 42.286314 
L 162.942662 42.367721 
L 163.098393 42.611941 
L 163.193433 42.693348 
L 163.287378 43.100381 
L 163.369767 43.181788 
L 163.486239 43.670229 
L 163.798179 43.751636 
L 164.047422 44.64711 
L 164.122303 44.728517 
L 164.238936 45.216957 
L 164.277042 45.298364 
L 164.495243 46.600872 
L 164.62885 47.252126 
L 164.733681 47.333533 
L 165.086006 48.880261 
L 165.131989 48.961668 
L 165.693942 51.322464 
L 166.685529 53.764667 
L 166.717878 53.846074 
L 166.846231 54.008887 
L 166.99935 54.090294 
L 167.139567 54.660141 
L 167.195729 54.741548 
L 167.291028 54.985768 
L 167.337072 55.067175 
L 167.458418 55.311396 
L 167.518955 55.392802 
L 167.663122 55.799836 
L 167.855424 55.881243 
L 168.011633 56.369683 
L 168.055079 56.45109 
L 168.183639 56.776717 
L 168.214778 56.858124 
L 168.357142 57.509378 
L 168.372698 57.590785 
L 168.644197 58.9747 
L 168.793069 59.544547 
L 169.489909 61.498309 
L 169.822292 61.579716 
L 169.930008 61.74253 
L 170.090438 62.068157 
L 170.349442 62.149563 
L 170.491505 62.393784 
L 170.747501 62.719411 
L 171.128589 62.800817 
L 171.326185 62.882224 
L 171.771237 62.963631 
L 171.866748 63.207851 
L 172.308572 63.777699 
L 172.476479 64.510359 
L 172.581485 64.75458 
L 172.693307 64.835987 
L 172.917184 66.057088 
L 172.93837 66.138495 
L 173.16598 67.441003 
L 173.195767 67.52241 
L 173.366077 68.662104 
L 173.486352 68.743511 
L 173.576991 68.987731 
L 173.841689 69.557579 
L 173.916014 69.638985 
L 174.087065 70.208833 
L 174.290133 70.941494 
L 174.407358 71.755561 
L 174.428894 71.836968 
L 174.546573 72.406815 
L 174.694251 73.383696 
L 174.811128 73.953544 
L 174.845571 74.03495 
L 175.051343 75.011832 
L 175.159485 75.093238 
L 175.29528 75.337459 
L 175.380343 75.500272 
L 175.441431 75.581679 
L 176.000938 77.128407 
L 176.167896 77.209814 
L 176.298681 77.291221 
L 176.857621 77.372628 
L 176.972563 77.454034 
L 177.039185 77.535441 
L 177.103196 77.616848 
L 177.18251 77.698255 
L 177.293626 77.779661 
L 177.655208 77.861068 
L 177.74435 77.942475 
L 178.067392 78.023882 
L 178.24348 78.186695 
L 178.445998 78.268102 
L 178.982053 78.675136 
L 179.448522 78.756543 
L 179.943083 79.244983 
L 180.067317 79.32639 
L 180.150809 79.407797 
L 180.560087 80.059051 
L 180.694644 80.547491 
L 180.885777 80.628898 
L 181.007462 80.710305 
L 181.127009 80.791712 
L 181.262832 80.954525 
L 181.44163 81.280152 
L 182.118169 82.012813 
L 182.192817 82.09422 
L 182.449575 82.33844 
L 182.550903 82.419847 
L 182.619678 82.58266 
L 182.756434 82.664067 
L 182.871521 82.826881 
L 183.224702 83.559541 
L 183.303306 83.640948 
L 183.496022 84.047982 
L 183.689355 84.129389 
L 183.798176 84.292202 
L 184.594057 84.373609 
L 185.092552 84.455016 
L 185.681706 84.536423 
L 185.775751 84.617829 
L 185.981485 84.699236 
L 186.324586 84.780643 
L 186.402023 84.86205 
L 190.442942 84.943456 
L 190.549656 85.10627 
L 190.751707 85.187677 
L 191.882953 85.431897 
L 195.378278 85.513304 
L 195.966546 85.676117 
L 251.85457 85.757524 
L 252.984486 86.083151 
L 256.493331 86.164558 
L 256.530779 86.245965 
L 273.330778 86.327371 
L 273.513797 86.490185 
L 273.844424 86.571592 
L 273.96334 86.734405 
L 274.281112 86.815812 
L 274.336097 86.897219 
L 274.540767 86.978625 
L 275.315515 87.060032 
L 275.499379 87.222846 
L 275.748901 87.304252 
L 275.839365 87.385659 
L 276.290362 87.467066 
L 276.618292 87.792693 
L 276.908105 87.8741 
L 277.432382 88.036913 
L 278.287349 88.11832 
L 278.448384 88.199727 
L 278.604266 88.281134 
L 278.670567 88.36254 
L 279.60123 88.443947 
L 279.781973 88.606761 
L 279.859328 88.688167 
L 280.094818 88.769574 
L 280.244515 89.013794 
L 280.482873 89.095201 
L 280.571719 89.258015 
L 281.953843 89.339421 
L 282.005505 89.420828 
L 282.211771 89.502235 
L 282.835472 89.583642 
L 282.853963 89.665048 
L 284.018114 89.746455 
L 284.129168 89.827862 
L 284.320833 89.909269 
L 284.42749 89.990676 
L 285.278265 90.072082 
L 285.34355 90.153489 
L 312.40778 90.153489 
L 312.40778 90.153489 
" clip-path="url(#p298d4f8f18)" style="fill: none; stroke: #000000; stroke-width: 1.5; stroke-linecap: square"/>
   </g>
   <g id="patch_3">
    <path d="M 43.78125 96.747437 
L 43.78125 7.2 
" style="fill: none; stroke: #000000; stroke-width: 0.8; stroke-linejoin: miter; stroke-linecap: square"/>
   </g>
   <g id="patch_4">
    <path d="M 325.19952 96.747437 
L 325.19952 7.2 
" style="fill: none; stroke: #000000; stroke-width: 0.8; stroke-linejoin: miter; stroke-linecap: square"/>
   </g>
   <g id="patch_5">
    <path d="M 43.78125 96.747437 
L 325.19952 96.747437 
" style="fill: none; stroke: #000000; stroke-width: 0.8; stroke-linejoin: miter; stroke-linecap: square"/>
   </g>
   <g id="patch_6">
    <path d="M 43.78125 7.2 
L 325.19952 7.2 
" style="fill: none; stroke: #000000; stroke-width: 0.8; stroke-linejoin: miter; stroke-linecap: square"/>
   </g>
  </g>
  <g id="axes_2">
   <g id="patch_7">
    <path d="M 43.78125 195.795353 
L 325.19952 195.795353 
L 325.19952 106.247917 
L 43.78125 106.247917 
z
" style="fill: #ffffff"/>
   </g>
   <g id="matplotlib.axis_3">
    <g id="xtick_10">
     <g id="line2d_14">
      <g>
       <use xlink:href="#mc79cc05e46" x="56.57299" y="195.795353" style="stroke: #000000; stroke-width: 0.8"/>
      </g>
     </g>
    </g>
    <g id="xtick_11">
     <g id="line2d_15">
      <g>
       <use xlink:href="#mc79cc05e46" x="88.448153" y="195.795353" style="stroke: #000000; stroke-width: 0.8"/>
      </g>
     </g>
    </g>
    <g id="xtick_12">
     <g id="line2d_16">
      <g>
       <use xlink:href="#mc79cc05e46" x="120.323315" y="195.795353" style="stroke: #000000; stroke-width: 0.8"/>
      </g>
     </g>
    </g>
    <g id="xtick_13">
     <g id="line2d_17">
      <g>
       <use xlink:href="#mc79cc05e46" x="152.198478" y="195.795353" style="stroke: #000000; stroke-width: 0.8"/>
      </g>
     </g>
    </g>
    <g id="xtick_14">
     <g id="line2d_18">
      <g>
       <use xlink:href="#mc79cc05e46" x="184.073641" y="195.795353" style="stroke: #000000; stroke-width: 0.8"/>
      </g>
     </g>
    </g>
    <g id="xtick_15">
     <g id="line2d_19">
      <g>
       <use xlink:href="#mc79cc05e46" x="215.948804" y="195.795353" style="stroke: #000000; stroke-width: 0.8"/>
      </g>
     </g>
    </g>
    <g id="xtick_16">
     <g id="line2d_20">
      <g>
       <use xlink:href="#mc79cc05e46" x="247.823967" y="195.795353" style="stroke: #000000; stroke-width: 0.8"/>
      </g>
     </g>
    </g>
    <g id="xtick_17">
     <g id="line2d_21">
      <g>
       <use xlink:href="#mc79cc05e46" x="279.69913" y="195.795353" style="stroke: #000000; stroke-width: 0.8"/>
      </g>
     </g>
    </g>
    <g id="xtick_18">
     <g id="line2d_22">
      <g>
       <use xlink:href="#mc79cc05e46" x="311.574293" y="195.795353" style="stroke: #000000; stroke-width: 0.8"/>
      </g>
     </g>
    </g>
   </g>
   <g id="matplotlib.axis_4">
    <g id="ytick_4">
     <g id="line2d_23">
      <g>
       <use xlink:href="#m9ae1813111" x="43.78125" y="191.725015" style="stroke: #000000; stroke-width: 0.8"/>
      </g>
     </g>
     <g id="text_5">
      <!-- 0 -->
      <g transform="translate(30.41875 195.524234) scale(0.1 -0.1)">
       <use xlink:href="#DejaVuSans-30"/>
      </g>
     </g>
    </g>
    <g id="ytick_5">
     <g id="line2d_24">
      <g>
       <use xlink:href="#m9ae1813111" x="43.78125" y="151.021635" style="stroke: #000000; stroke-width: 0.8"/>
      </g>
     </g>
     <g id="text_6">
      <!-- 5 -->
      <g transform="translate(30.41875 154.820854) scale(0.1 -0.1)">
       <use xlink:href="#DejaVuSans-35"/>
      </g>
     </g>
    </g>
    <g id="ytick_6">
     <g id="line2d_25">
      <g>
       <use xlink:href="#m9ae1813111" x="43.78125" y="110.318255" style="stroke: #000000; stroke-width: 0.8"/>
      </g>
     </g>
     <g id="text_7">
      <!-- 10 -->
      <g transform="translate(24.05625 114.117473) scale(0.1 -0.1)">
       <use xlink:href="#DejaVuSans-31"/>
       <use xlink:href="#DejaVuSans-30" transform="translate(63.623047 0)"/>
      </g>
     </g>
    </g>
    <g id="text_8">
     <!-- LacY -->
     <g transform="translate(17.976563 162.67476) rotate(-90) scale(0.1 -0.1)">
      <defs>
       <path id="DejaVuSans-4c" d="M 628 4666 
L 1259 4666 
L 1259 531 
L 3531 531 
L 3531 0 
L 628 0 
L 628 4666 
z
" transform="scale(0.015625)"/>
       <path id="DejaVuSans-59" d="M -13 4666 
L 666 4666 
L 1959 2747 
L 3244 4666 
L 3922 4666 
L 2272 2222 
L 2272 0 
L 1638 0 
L 1638 2222 
L -13 4666 
z
" transform="scale(0.015625)"/>
      </defs>
      <use xlink:href="#DejaVuSans-4c"/>
      <use xlink:href="#DejaVuSans-61" transform="translate(55.712891 0)"/>
      <use xlink:href="#DejaVuSans-63" transform="translate(116.992188 0)"/>
      <use xlink:href="#DejaVuSans-59" transform="translate(171.972656 0)"/>
     </g>
    </g>
   </g>
   <g id="line2d_26">
    <path d="M 56.57299 110.318255 
L 56.600085 110.318255 
L 56.654515 118.458931 
L 56.762553 134.740283 
L 56.822825 142.880959 
L 56.974752 142.880959 
L 56.992427 134.740283 
L 57.212755 142.880959 
L 57.354453 142.880959 
L 57.524902 159.162311 
L 57.825447 175.443663 
L 57.890989 191.725015 
L 59.419171 191.725015 
L 59.585595 183.584339 
L 59.628286 191.725015 
L 64.644927 191.725015 
L 64.967501 183.584339 
L 65.077325 191.725015 
L 82.552845 191.725015 
L 82.747023 183.584339 
L 84.538221 191.725015 
L 84.553029 183.584339 
L 84.696066 175.443663 
L 84.700715 167.302987 
L 85.022496 175.443663 
L 85.249192 175.443663 
L 85.368685 191.725015 
L 85.429434 183.584339 
L 85.619436 183.584339 
L 85.757758 191.725015 
L 89.645398 191.725015 
L 90.034738 175.443663 
L 90.036037 167.302987 
L 90.534086 167.302987 
L 90.572709 183.584339 
L 91.343943 183.584339 
L 91.512668 175.443663 
L 91.856554 191.725015 
L 108.841693 191.725015 
L 108.947266 183.584339 
L 109.066832 183.584339 
L 109.205762 191.725015 
L 109.440488 191.725015 
L 109.481924 183.584339 
L 109.897398 183.584339 
L 110.246917 175.443663 
L 110.305197 183.584339 
L 110.48026 183.584339 
L 110.509804 191.725015 
L 119.259299 191.725015 
L 119.43752 183.584339 
L 121.535397 183.584339 
L 123.380781 191.725015 
L 131.140041 191.725015 
L 131.326098 183.584339 
L 131.613336 183.584339 
L 131.720991 191.725015 
L 136.051929 191.725015 
L 136.135565 183.584339 
L 136.157406 191.725015 
L 146.138882 191.725015 
L 146.399436 175.443663 
L 146.420244 183.584339 
L 146.449219 175.443663 
L 146.562204 167.302987 
L 146.567539 175.443663 
L 147.151628 175.443663 
L 147.76812 183.584339 
L 148.013179 183.584339 
L 148.328092 175.443663 
L 148.44085 175.443663 
L 149.511572 191.725015 
L 149.971232 191.725015 
L 150.023056 175.443663 
L 150.123819 175.443663 
L 150.276482 183.584339 
L 150.410052 183.584339 
L 150.952358 191.725015 
L 156.065139 191.725015 
L 156.492949 183.584339 
L 156.732976 151.021635 
L 157.014304 151.021635 
L 157.134279 167.302987 
L 157.184092 167.302987 
L 157.284881 159.162311 
L 157.371763 159.162311 
L 157.481449 175.443663 
L 157.509618 175.443663 
L 157.598185 183.584339 
L 157.862672 183.584339 
L 157.914676 175.443663 
L 157.959636 183.584339 
L 158.10589 183.584339 
L 158.219704 167.302987 
L 158.244384 167.302987 
L 158.350261 159.162311 
L 158.461716 159.162311 
L 158.575044 167.302987 
L 158.690396 167.302987 
L 158.814069 183.584339 
L 158.863981 183.584339 
L 158.970363 175.443663 
L 159.087874 175.443663 
L 159.199334 167.302987 
L 159.567441 167.302987 
L 159.62992 159.162311 
L 159.677784 167.302987 
L 159.780328 167.302987 
L 159.892436 151.021635 
L 159.996818 151.021635 
L 160.108089 167.302987 
L 160.42334 167.302987 
L 160.531521 175.443663 
L 160.893387 175.443663 
L 161.035308 191.725015 
L 161.219418 191.725015 
L 161.353911 183.584339 
L 161.458015 183.584339 
L 161.603976 167.302987 
L 161.798895 167.302987 
L 161.913792 183.584339 
L 161.999684 183.584339 
L 162.162443 167.302987 
L 162.18922 175.443663 
L 162.228966 175.443663 
L 162.343423 167.302987 
L 162.423748 167.302987 
L 162.526149 175.443663 
L 162.691535 175.443663 
L 162.704091 159.162311 
L 162.794799 167.302987 
L 162.918344 175.443663 
L 163.212499 175.443663 
L 163.235225 167.302987 
L 163.240012 183.584339 
L 163.287378 183.584339 
L 163.811914 183.584339 
L 163.919676 175.443663 
L 164.126896 175.443663 
L 164.238936 167.302987 
L 164.392393 167.302987 
L 164.485766 159.162311 
L 164.499117 167.302987 
L 164.578854 167.302987 
L 164.653964 175.443663 
L 164.68519 167.302987 
L 164.722554 167.302987 
L 164.772689 175.443663 
L 164.831877 167.302987 
L 164.851794 167.302987 
L 164.96191 175.443663 
L 165.283643 175.443663 
L 165.403096 167.302987 
L 165.503352 167.302987 
L 165.551744 175.443663 
L 165.603087 167.302987 
L 165.818503 167.302987 
L 165.929932 159.162311 
L 165.991702 159.162311 
L 166.089644 167.302987 
L 166.13003 167.302987 
L 166.233105 183.584339 
L 166.44172 183.584339 
L 166.536902 175.443663 
L 166.73438 175.443663 
L 166.846231 191.725015 
L 167.063826 175.443663 
L 168.169369 175.443663 
L 168.276784 167.302987 
L 168.937177 167.302987 
L 169.054367 175.443663 
L 169.200395 175.443663 
L 169.322061 167.302987 
L 169.357585 167.302987 
L 169.449626 175.443663 
L 169.504849 175.443663 
L 169.645539 183.584339 
L 169.84252 183.584339 
L 169.974769 175.443663 
L 170.067731 175.443663 
L 170.18874 183.584339 
L 170.529341 183.584339 
L 170.619803 191.725015 
L 170.636737 183.584339 
L 171.219081 183.584339 
L 171.326185 191.725015 
L 171.462242 183.584339 
L 171.570919 191.725015 
L 171.670438 183.584339 
L 171.809443 175.443663 
L 171.946121 175.443663 
L 172.024253 183.584339 
L 172.052078 175.443663 
L 172.126352 175.443663 
L 172.158724 183.584339 
L 172.219006 175.443663 
L 172.306785 175.443663 
L 172.416508 167.302987 
L 172.62204 167.302987 
L 172.807068 151.021635 
L 172.820697 151.021635 
L 172.924554 142.880959 
L 172.989925 142.880959 
L 173.109656 151.021635 
L 173.133068 151.021635 
L 173.24624 142.880959 
L 173.382847 142.880959 
L 173.486672 159.162311 
L 173.487355 151.021635 
L 173.570429 151.021635 
L 173.657962 159.162311 
L 173.697825 159.162311 
L 173.803982 167.302987 
L 173.935895 167.302987 
L 174.036879 159.162311 
L 174.14043 159.162311 
L 174.231133 151.021635 
L 174.25985 151.021635 
L 174.3908 134.740283 
L 174.407358 134.740283 
L 174.507327 142.880959 
L 174.51539 134.740283 
L 174.69527 134.740283 
L 174.734365 142.880959 
L 174.806224 134.740283 
L 174.91295 134.740283 
L 175.022128 167.302987 
L 175.044547 167.302987 
L 175.100059 151.021635 
L 175.159485 159.162311 
L 175.285585 159.162311 
L 175.380343 167.302987 
L 175.857566 167.302987 
L 175.90662 159.162311 
L 175.953856 175.443663 
L 175.954262 175.443663 
L 176.056073 167.302987 
L 176.083912 167.302987 
L 176.230781 183.584339 
L 176.298681 183.584339 
L 176.393166 175.443663 
L 176.509981 175.443663 
L 176.61611 183.584339 
L 176.916418 183.584339 
L 177.046124 159.162311 
L 177.102327 159.162311 
L 177.210915 167.302987 
L 177.233928 167.302987 
L 177.362997 183.584339 
L 177.387798 183.584339 
L 177.428156 175.443663 
L 177.456439 183.584339 
L 177.598979 183.584339 
L 177.689865 175.443663 
L 177.703046 183.584339 
L 177.829224 183.584339 
L 177.876082 191.725015 
L 177.957936 191.725015 
L 178.098636 183.584339 
L 178.274748 183.584339 
L 178.30732 191.725015 
L 178.349939 183.584339 
L 179.128118 183.584339 
L 179.448522 175.443663 
L 179.5493 175.443663 
L 179.603276 183.584339 
L 179.651629 175.443663 
L 179.76668 167.302987 
L 179.78131 167.302987 
L 179.844051 159.162311 
L 179.867779 167.302987 
L 180.067317 167.302987 
L 180.134913 175.443663 
L 180.150809 167.302987 
L 180.340824 167.302987 
L 180.422617 175.443663 
L 180.449475 167.302987 
L 180.473375 167.302987 
L 180.580289 159.162311 
L 180.653488 159.162311 
L 180.736508 151.021635 
L 180.959239 167.302987 
L 181.007462 167.302987 
L 181.127009 159.162311 
L 181.21055 159.162311 
L 181.282148 151.021635 
L 181.302203 159.162311 
L 181.335142 159.162311 
L 181.361225 151.021635 
L 181.44163 159.162311 
L 181.742681 159.162311 
L 181.775245 151.021635 
L 181.844752 159.162311 
L 181.856829 159.162311 
L 181.894759 167.302987 
L 182.143334 167.302987 
L 182.268246 159.162311 
L 182.480443 159.162311 
L 182.58965 151.021635 
L 182.619678 151.021635 
L 182.755098 159.162311 
L 182.841565 142.880959 
L 183.042044 142.880959 
L 183.157473 134.740283 
L 183.224702 134.740283 
L 183.439208 159.162311 
L 183.47002 159.162311 
L 183.534034 167.302987 
L 183.539861 159.162311 
L 183.875349 159.162311 
L 183.969614 167.302987 
L 183.990775 167.302987 
L 184.120523 175.443663 
L 184.238102 175.443663 
L 184.391437 183.584339 
L 184.800721 183.584339 
L 184.848052 191.725015 
L 184.984423 191.725015 
L 185.092552 183.584339 
L 185.879183 183.584339 
L 185.981485 191.725015 
L 186.342826 183.584339 
L 186.360705 183.584339 
L 186.402023 191.725015 
L 186.643496 183.584339 
L 187.062388 183.584339 
L 187.22696 175.443663 
L 187.294117 191.725015 
L 189.707929 191.725015 
L 190.305929 183.584339 
L 190.443207 175.443663 
L 190.549656 167.302987 
L 190.659563 167.302987 
L 190.751707 183.584339 
L 191.857872 183.584339 
L 191.882953 191.725015 
L 194.558812 191.725015 
L 194.754742 175.443663 
L 195.55036 175.443663 
L 195.65126 183.584339 
L 196.385263 183.584339 
L 196.527723 191.725015 
L 202.016621 191.725015 
L 202.061499 175.443663 
L 202.228365 175.443663 
L 202.375315 191.725015 
L 203.490775 191.725015 
L 203.726283 183.584339 
L 203.769207 191.725015 
L 203.828202 183.584339 
L 204.447154 183.584339 
L 204.794968 191.725015 
L 251.536911 191.725015 
L 251.671008 167.302987 
L 251.813737 167.302987 
L 251.85457 175.443663 
L 252.278628 175.443663 
L 252.379835 183.584339 
L 252.899272 183.584339 
L 252.984486 191.725015 
L 256.282654 191.725015 
L 256.486978 175.443663 
L 256.530779 183.584339 
L 256.660228 183.584339 
L 256.684495 191.725015 
L 268.582488 191.725015 
L 268.802832 183.584339 
L 268.851742 191.725015 
L 273.083075 191.725015 
L 273.296846 183.584339 
L 273.367599 175.443663 
L 273.513797 175.443663 
L 273.639997 191.725015 
L 273.650633 183.584339 
L 273.785051 183.584339 
L 273.926593 175.443663 
L 274.540767 175.443663 
L 274.889241 183.584339 
L 275.20079 175.443663 
L 275.349575 175.443663 
L 275.458491 167.302987 
L 275.566139 175.443663 
L 275.58895 175.443663 
L 275.591354 183.584339 
L 275.756171 167.302987 
L 275.806645 159.162311 
L 275.839365 167.302987 
L 276.234277 167.302987 
L 276.364798 159.162311 
L 276.590973 159.162311 
L 276.70982 175.443663 
L 276.908105 183.584339 
L 277.06642 183.584339 
L 277.135127 175.443663 
L 277.303691 175.443663 
L 277.529882 191.725015 
L 277.960916 183.584339 
L 278.102631 175.443663 
L 278.242619 191.725015 
L 278.269814 183.584339 
L 278.763509 183.584339 
L 278.813076 191.725015 
L 279.028965 191.725015 
L 279.165926 167.302987 
L 279.28732 175.443663 
L 279.516219 175.443663 
L 279.60123 167.302987 
L 279.789447 167.302987 
L 279.859328 151.021635 
L 279.989518 151.021635 
L 280.07774 142.880959 
L 280.094818 151.021635 
L 280.122855 151.021635 
L 280.196018 142.880959 
L 280.259365 142.880959 
L 280.333338 159.162311 
L 280.379685 151.021635 
L 280.403766 159.162311 
L 280.52759 167.302987 
L 280.626603 175.443663 
L 280.692603 175.443663 
L 280.711415 167.302987 
L 280.806835 175.443663 
L 281.041774 175.443663 
L 281.043855 183.584339 
L 281.19291 175.443663 
L 281.43987 191.725015 
L 281.502277 191.725015 
L 281.71684 175.443663 
L 282.005505 167.302987 
L 282.158443 167.302987 
L 282.211771 159.162311 
L 282.254124 167.302987 
L 282.406234 167.302987 
L 282.48194 159.162311 
L 282.511247 167.302987 
L 282.64292 151.021635 
L 282.665457 159.162311 
L 282.748434 159.162311 
L 282.853963 167.302987 
L 283.035273 167.302987 
L 283.055183 175.443663 
L 283.14195 167.302987 
L 283.202946 175.443663 
L 283.218973 167.302987 
L 283.353251 167.302987 
L 283.441467 175.443663 
L 283.54149 175.443663 
L 283.840916 183.584339 
L 283.904296 183.584339 
L 284.209911 167.302987 
L 284.270864 167.302987 
L 284.280502 175.443663 
L 284.327231 167.302987 
L 284.42749 175.443663 
L 284.661165 183.584339 
L 284.669816 191.725015 
L 284.937926 191.725015 
L 285.131314 183.584339 
L 285.34355 183.584339 
L 285.502667 191.725015 
L 296.323459 191.725015 
L 296.660627 183.584339 
L 296.704056 191.725015 
L 304.603636 191.725015 
L 305.054295 183.584339 
L 305.204037 183.584339 
L 305.385926 191.725015 
L 312.40778 191.725015 
L 312.40778 191.725015 
" clip-path="url(#pabce3028ec)" style="fill: none; stroke: #000000; stroke-width: 1.5; stroke-linecap: square"/>
   </g>
   <g id="patch_8">
    <path d="M 43.78125 195.795353 
L 43.78125 106.247917 
" style="fill: none; stroke: #000000; stroke-width: 0.8; stroke-linejoin: miter; stroke-linecap: square"/>
   </g>
   <g id="patch_9">
    <path d="M 325.19952 195.795353 
L 325.19952 106.247917 
" style="fill: none; stroke: #000000; stroke-width: 0.8; stroke-linejoin: miter; stroke-linecap: square"/>
   </g>
   <g id="patch_10">
    <path d="M 43.78125 195.795353 
L 325.19952 195.795353 
" style="fill: none; stroke: #000000; stroke-width: 0.8; stroke-linejoin: miter; stroke-linecap: square"/>
   </g>
   <g id="patch_11">
    <path d="M 43.78125 106.247917 
L 325.19952 106.247917 
" style="fill: none; stroke: #000000; stroke-width: 0.8; stroke-linejoin: miter; stroke-linecap: square"/>
   </g>
  </g>
  <g id="axes_3">
   <g id="patch_12">
    <path d="M 43.78125 294.84327 
L 325.19952 294.84327 
L 325.19952 205.295833 
L 43.78125 205.295833 
z
" style="fill: #ffffff"/>
   </g>
   <g id="matplotlib.axis_5">
    <g id="xtick_19">
     <g id="line2d_27">
      <g>
       <use xlink:href="#mc79cc05e46" x="56.57299" y="294.84327" style="stroke: #000000; stroke-width: 0.8"/>
      </g>
     </g>
     <g id="text_9">
      <!-- 0 -->
      <g transform="translate(53.39174 309.441707) scale(0.1 -0.1)">
       <use xlink:href="#DejaVuSans-30"/>
      </g>
     </g>
    </g>
    <g id="xtick_20">
     <g id="line2d_28">
      <g>
       <use xlink:href="#mc79cc05e46" x="88.448153" y="294.84327" style="stroke: #000000; stroke-width: 0.8"/>
      </g>
     </g>
     <g id="text_10">
      <!-- 100 -->
      <g transform="translate(78.904403 309.441707) scale(0.1 -0.1)">
       <use xlink:href="#DejaVuSans-31"/>
       <use xlink:href="#DejaVuSans-30" transform="translate(63.623047 0)"/>
       <use xlink:href="#DejaVuSans-30" transform="translate(127.246094 0)"/>
      </g>
     </g>
    </g>
    <g id="xtick_21">
     <g id="line2d_29">
      <g>
       <use xlink:href="#mc79cc05e46" x="120.323315" y="294.84327" style="stroke: #000000; stroke-width: 0.8"/>
      </g>
     </g>
     <g id="text_11">
      <!-- 200 -->
      <g transform="translate(110.779565 309.441707) scale(0.1 -0.1)">
       <defs>
        <path id="DejaVuSans-32" d="M 1228 531 
L 3431 531 
L 3431 0 
L 469 0 
L 469 531 
Q 828 903 1448 1529 
Q 2069 2156 2228 2338 
Q 2531 2678 2651 2914 
Q 2772 3150 2772 3378 
Q 2772 3750 2511 3984 
Q 2250 4219 1831 4219 
Q 1534 4219 1204 4116 
Q 875 4013 500 3803 
L 500 4441 
Q 881 4594 1212 4672 
Q 1544 4750 1819 4750 
Q 2544 4750 2975 4387 
Q 3406 4025 3406 3419 
Q 3406 3131 3298 2873 
Q 3191 2616 2906 2266 
Q 2828 2175 2409 1742 
Q 1991 1309 1228 531 
z
" transform="scale(0.015625)"/>
       </defs>
       <use xlink:href="#DejaVuSans-32"/>
       <use xlink:href="#DejaVuSans-30" transform="translate(63.623047 0)"/>
       <use xlink:href="#DejaVuSans-30" transform="translate(127.246094 0)"/>
      </g>
     </g>
    </g>
    <g id="xtick_22">
     <g id="line2d_30">
      <g>
       <use xlink:href="#mc79cc05e46" x="152.198478" y="294.84327" style="stroke: #000000; stroke-width: 0.8"/>
      </g>
     </g>
     <g id="text_12">
      <!-- 300 -->
      <g transform="translate(142.654728 309.441707) scale(0.1 -0.1)">
       <defs>
        <path id="DejaVuSans-33" d="M 2597 2516 
Q 3050 2419 3304 2112 
Q 3559 1806 3559 1356 
Q 3559 666 3084 287 
Q 2609 -91 1734 -91 
Q 1441 -91 1130 -33 
Q 819 25 488 141 
L 488 750 
Q 750 597 1062 519 
Q 1375 441 1716 441 
Q 2309 441 2620 675 
Q 2931 909 2931 1356 
Q 2931 1769 2642 2001 
Q 2353 2234 1838 2234 
L 1294 2234 
L 1294 2753 
L 1863 2753 
Q 2328 2753 2575 2939 
Q 2822 3125 2822 3475 
Q 2822 3834 2567 4026 
Q 2313 4219 1838 4219 
Q 1578 4219 1281 4162 
Q 984 4106 628 3988 
L 628 4550 
Q 988 4650 1302 4700 
Q 1616 4750 1894 4750 
Q 2613 4750 3031 4423 
Q 3450 4097 3450 3541 
Q 3450 3153 3228 2886 
Q 3006 2619 2597 2516 
z
" transform="scale(0.015625)"/>
       </defs>
       <use xlink:href="#DejaVuSans-33"/>
       <use xlink:href="#DejaVuSans-30" transform="translate(63.623047 0)"/>
       <use xlink:href="#DejaVuSans-30" transform="translate(127.246094 0)"/>
      </g>
     </g>
    </g>
    <g id="xtick_23">
     <g id="line2d_31">
      <g>
       <use xlink:href="#mc79cc05e46" x="184.073641" y="294.84327" style="stroke: #000000; stroke-width: 0.8"/>
      </g>
     </g>
     <g id="text_13">
      <!-- 400 -->
      <g transform="translate(174.529891 309.441707) scale(0.1 -0.1)">
       <defs>
        <path id="DejaVuSans-34" d="M 2419 4116 
L 825 1625 
L 2419 1625 
L 2419 4116 
z
M 2253 4666 
L 3047 4666 
L 3047 1625 
L 3713 1625 
L 3713 1100 
L 3047 1100 
L 3047 0 
L 2419 0 
L 2419 1100 
L 313 1100 
L 313 1709 
L 2253 4666 
z
" transform="scale(0.015625)"/>
       </defs>
       <use xlink:href="#DejaVuSans-34"/>
       <use xlink:href="#DejaVuSans-30" transform="translate(63.623047 0)"/>
       <use xlink:href="#DejaVuSans-30" transform="translate(127.246094 0)"/>
      </g>
     </g>
    </g>
    <g id="xtick_24">
     <g id="line2d_32">
      <g>
       <use xlink:href="#mc79cc05e46" x="215.948804" y="294.84327" style="stroke: #000000; stroke-width: 0.8"/>
      </g>
     </g>
     <g id="text_14">
      <!-- 500 -->
      <g transform="translate(206.405054 309.441707) scale(0.1 -0.1)">
       <use xlink:href="#DejaVuSans-35"/>
       <use xlink:href="#DejaVuSans-30" transform="translate(63.623047 0)"/>
       <use xlink:href="#DejaVuSans-30" transform="translate(127.246094 0)"/>
      </g>
     </g>
    </g>
    <g id="xtick_25">
     <g id="line2d_33">
      <g>
       <use xlink:href="#mc79cc05e46" x="247.823967" y="294.84327" style="stroke: #000000; stroke-width: 0.8"/>
      </g>
     </g>
     <g id="text_15">
      <!-- 600 -->
      <g transform="translate(238.280217 309.441707) scale(0.1 -0.1)">
       <defs>
        <path id="DejaVuSans-36" d="M 2113 2584 
Q 1688 2584 1439 2293 
Q 1191 2003 1191 1497 
Q 1191 994 1439 701 
Q 1688 409 2113 409 
Q 2538 409 2786 701 
Q 3034 994 3034 1497 
Q 3034 2003 2786 2293 
Q 2538 2584 2113 2584 
z
M 3366 4563 
L 3366 3988 
Q 3128 4100 2886 4159 
Q 2644 4219 2406 4219 
Q 1781 4219 1451 3797 
Q 1122 3375 1075 2522 
Q 1259 2794 1537 2939 
Q 1816 3084 2150 3084 
Q 2853 3084 3261 2657 
Q 3669 2231 3669 1497 
Q 3669 778 3244 343 
Q 2819 -91 2113 -91 
Q 1303 -91 875 529 
Q 447 1150 447 2328 
Q 447 3434 972 4092 
Q 1497 4750 2381 4750 
Q 2619 4750 2861 4703 
Q 3103 4656 3366 4563 
z
" transform="scale(0.015625)"/>
       </defs>
       <use xlink:href="#DejaVuSans-36"/>
       <use xlink:href="#DejaVuSans-30" transform="translate(63.623047 0)"/>
       <use xlink:href="#DejaVuSans-30" transform="translate(127.246094 0)"/>
      </g>
     </g>
    </g>
    <g id="xtick_26">
     <g id="line2d_34">
      <g>
       <use xlink:href="#mc79cc05e46" x="279.69913" y="294.84327" style="stroke: #000000; stroke-width: 0.8"/>
      </g>
     </g>
     <g id="text_16">
      <!-- 700 -->
      <g transform="translate(270.15538 309.441707) scale(0.1 -0.1)">
       <defs>
        <path id="DejaVuSans-37" d="M 525 4666 
L 3525 4666 
L 3525 4397 
L 1831 0 
L 1172 0 
L 2766 4134 
L 525 4134 
L 525 4666 
z
" transform="scale(0.015625)"/>
       </defs>
       <use xlink:href="#DejaVuSans-37"/>
       <use xlink:href="#DejaVuSans-30" transform="translate(63.623047 0)"/>
       <use xlink:href="#DejaVuSans-30" transform="translate(127.246094 0)"/>
      </g>
     </g>
    </g>
    <g id="xtick_27">
     <g id="line2d_35">
      <g>
       <use xlink:href="#mc79cc05e46" x="311.574293" y="294.84327" style="stroke: #000000; stroke-width: 0.8"/>
      </g>
     </g>
     <g id="text_17">
      <!-- 800 -->
      <g transform="translate(302.030543 309.441707) scale(0.1 -0.1)">
       <defs>
        <path id="DejaVuSans-38" d="M 2034 2216 
Q 1584 2216 1326 1975 
Q 1069 1734 1069 1313 
Q 1069 891 1326 650 
Q 1584 409 2034 409 
Q 2484 409 2743 651 
Q 3003 894 3003 1313 
Q 3003 1734 2745 1975 
Q 2488 2216 2034 2216 
z
M 1403 2484 
Q 997 2584 770 2862 
Q 544 3141 544 3541 
Q 544 4100 942 4425 
Q 1341 4750 2034 4750 
Q 2731 4750 3128 4425 
Q 3525 4100 3525 3541 
Q 3525 3141 3298 2862 
Q 3072 2584 2669 2484 
Q 3125 2378 3379 2068 
Q 3634 1759 3634 1313 
Q 3634 634 3220 271 
Q 2806 -91 2034 -91 
Q 1263 -91 848 271 
Q 434 634 434 1313 
Q 434 1759 690 2068 
Q 947 2378 1403 2484 
z
M 1172 3481 
Q 1172 3119 1398 2916 
Q 1625 2713 2034 2713 
Q 2441 2713 2670 2916 
Q 2900 3119 2900 3481 
Q 2900 3844 2670 4047 
Q 2441 4250 2034 4250 
Q 1625 4250 1398 4047 
Q 1172 3844 1172 3481 
z
" transform="scale(0.015625)"/>
       </defs>
       <use xlink:href="#DejaVuSans-38"/>
       <use xlink:href="#DejaVuSans-30" transform="translate(63.623047 0)"/>
       <use xlink:href="#DejaVuSans-30" transform="translate(127.246094 0)"/>
      </g>
     </g>
    </g>
    <g id="text_18">
     <!-- Time -->
     <g transform="translate(172.256791 323.119832) scale(0.1 -0.1)">
      <defs>
       <path id="DejaVuSans-54" d="M -19 4666 
L 3928 4666 
L 3928 4134 
L 2272 4134 
L 2272 0 
L 1638 0 
L 1638 4134 
L -19 4134 
L -19 4666 
z
" transform="scale(0.015625)"/>
       <path id="DejaVuSans-69" d="M 603 3500 
L 1178 3500 
L 1178 0 
L 603 0 
L 603 3500 
z
M 603 4863 
L 1178 4863 
L 1178 4134 
L 603 4134 
L 603 4863 
z
" transform="scale(0.015625)"/>
       <path id="DejaVuSans-6d" d="M 3328 2828 
Q 3544 3216 3844 3400 
Q 4144 3584 4550 3584 
Q 5097 3584 5394 3201 
Q 5691 2819 5691 2113 
L 5691 0 
L 5113 0 
L 5113 2094 
Q 5113 2597 4934 2840 
Q 4756 3084 4391 3084 
Q 3944 3084 3684 2787 
Q 3425 2491 3425 1978 
L 3425 0 
L 2847 0 
L 2847 2094 
Q 2847 2600 2669 2842 
Q 2491 3084 2119 3084 
Q 1678 3084 1418 2786 
Q 1159 2488 1159 1978 
L 1159 0 
L 581 0 
L 581 3500 
L 1159 3500 
L 1159 2956 
Q 1356 3278 1631 3431 
Q 1906 3584 2284 3584 
Q 2666 3584 2933 3390 
Q 3200 3197 3328 2828 
z
" transform="scale(0.015625)"/>
      </defs>
      <use xlink:href="#DejaVuSans-54"/>
      <use xlink:href="#DejaVuSans-69" transform="translate(57.958984 0)"/>
      <use xlink:href="#DejaVuSans-6d" transform="translate(85.742188 0)"/>
      <use xlink:href="#DejaVuSans-65" transform="translate(183.154297 0)"/>
     </g>
    </g>
   </g>
   <g id="matplotlib.axis_6">
    <g id="ytick_7">
     <g id="line2d_36">
      <g>
       <use xlink:href="#m9ae1813111" x="43.78125" y="290.772932" style="stroke: #000000; stroke-width: 0.8"/>
      </g>
     </g>
     <g id="text_19">
      <!-- 0.0 -->
      <g transform="translate(20.878125 294.572151) scale(0.1 -0.1)">
       <defs>
        <path id="DejaVuSans-2e" d="M 684 794 
L 1344 794 
L 1344 0 
L 684 0 
L 684 794 
z
" transform="scale(0.015625)"/>
       </defs>
       <use xlink:href="#DejaVuSans-30"/>
       <use xlink:href="#DejaVuSans-2e" transform="translate(63.623047 0)"/>
       <use xlink:href="#DejaVuSans-30" transform="translate(95.410156 0)"/>
      </g>
     </g>
    </g>
    <g id="ytick_8">
     <g id="line2d_37">
      <g>
       <use xlink:href="#m9ae1813111" x="43.78125" y="250.069552" style="stroke: #000000; stroke-width: 0.8"/>
      </g>
     </g>
     <g id="text_20">
      <!-- 0.5 -->
      <g transform="translate(20.878125 253.86877) scale(0.1 -0.1)">
       <use xlink:href="#DejaVuSans-30"/>
       <use xlink:href="#DejaVuSans-2e" transform="translate(63.623047 0)"/>
       <use xlink:href="#DejaVuSans-35" transform="translate(95.410156 0)"/>
      </g>
     </g>
    </g>
    <g id="ytick_9">
     <g id="line2d_38">
      <g>
       <use xlink:href="#m9ae1813111" x="43.78125" y="209.366171" style="stroke: #000000; stroke-width: 0.8"/>
      </g>
     </g>
     <g id="text_21">
      <!-- 1.0 -->
      <g transform="translate(20.878125 213.16539) scale(0.1 -0.1)">
       <use xlink:href="#DejaVuSans-31"/>
       <use xlink:href="#DejaVuSans-2e" transform="translate(63.623047 0)"/>
       <use xlink:href="#DejaVuSans-30" transform="translate(95.410156 0)"/>
      </g>
     </g>
    </g>
    <g id="text_22">
     <!-- Free lac operon -->
     <g transform="translate(14.798438 288.540645) rotate(-90) scale(0.1 -0.1)">
      <defs>
       <path id="DejaVuSans-46" d="M 628 4666 
L 3309 4666 
L 3309 4134 
L 1259 4134 
L 1259 2759 
L 3109 2759 
L 3109 2228 
L 1259 2228 
L 1259 0 
L 628 0 
L 628 4666 
z
" transform="scale(0.015625)"/>
       <path id="DejaVuSans-70" d="M 1159 525 
L 1159 -1331 
L 581 -1331 
L 581 3500 
L 1159 3500 
L 1159 2969 
Q 1341 3281 1617 3432 
Q 1894 3584 2278 3584 
Q 2916 3584 3314 3078 
Q 3713 2572 3713 1747 
Q 3713 922 3314 415 
Q 2916 -91 2278 -91 
Q 1894 -91 1617 61 
Q 1341 213 1159 525 
z
M 3116 1747 
Q 3116 2381 2855 2742 
Q 2594 3103 2138 3103 
Q 1681 3103 1420 2742 
Q 1159 2381 1159 1747 
Q 1159 1113 1420 752 
Q 1681 391 2138 391 
Q 2594 391 2855 752 
Q 3116 1113 3116 1747 
z
" transform="scale(0.015625)"/>
       <path id="DejaVuSans-6e" d="M 3513 2113 
L 3513 0 
L 2938 0 
L 2938 2094 
Q 2938 2591 2744 2837 
Q 2550 3084 2163 3084 
Q 1697 3084 1428 2787 
Q 1159 2491 1159 1978 
L 1159 0 
L 581 0 
L 581 3500 
L 1159 3500 
L 1159 2956 
Q 1366 3272 1645 3428 
Q 1925 3584 2291 3584 
Q 2894 3584 3203 3211 
Q 3513 2838 3513 2113 
z
" transform="scale(0.015625)"/>
      </defs>
      <use xlink:href="#DejaVuSans-46"/>
      <use xlink:href="#DejaVuSans-72" transform="translate(50.269531 0)"/>
      <use xlink:href="#DejaVuSans-65" transform="translate(89.132812 0)"/>
      <use xlink:href="#DejaVuSans-65" transform="translate(150.65625 0)"/>
      <use xlink:href="#DejaVuSans-20" transform="translate(212.179688 0)"/>
      <use xlink:href="#DejaVuSans-6c" transform="translate(243.966797 0)"/>
      <use xlink:href="#DejaVuSans-61" transform="translate(271.75 0)"/>
      <use xlink:href="#DejaVuSans-63" transform="translate(333.029297 0)"/>
      <use xlink:href="#DejaVuSans-20" transform="translate(388.009766 0)"/>
      <use xlink:href="#DejaVuSans-6f" transform="translate(419.796875 0)"/>
      <use xlink:href="#DejaVuSans-70" transform="translate(480.978516 0)"/>
      <use xlink:href="#DejaVuSans-65" transform="translate(544.455078 0)"/>
      <use xlink:href="#DejaVuSans-72" transform="translate(605.978516 0)"/>
      <use xlink:href="#DejaVuSans-6f" transform="translate(644.841797 0)"/>
      <use xlink:href="#DejaVuSans-6e" transform="translate(706.023438 0)"/>
     </g>
    </g>
   </g>
   <g id="line2d_39">
    <path d="M 56.57299 209.366171 
L 56.654515 290.772932 
L 56.822825 290.772932 
L 56.992427 209.366171 
L 57.11061 209.366171 
L 57.212755 290.772932 
L 58.429195 290.772932 
L 59.419171 209.366171 
L 59.605539 209.366171 
L 59.628286 290.772932 
L 62.050059 290.772932 
L 64.644927 209.366171 
L 64.939862 209.366171 
L 65.077325 290.772932 
L 65.203214 290.772932 
L 71.866535 209.366171 
L 72.036347 290.772932 
L 79.876986 209.366171 
L 79.926029 290.772932 
L 82.552845 209.366171 
L 82.692853 209.366171 
L 82.747023 290.772932 
L 84.487587 290.772932 
L 84.553029 209.366171 
L 85.429434 209.366171 
L 85.619436 290.772932 
L 86.652411 290.772932 
L 89.645398 209.366171 
L 90.185473 209.366171 
L 90.214756 290.772932 
L 90.572709 290.772932 
L 91.454214 209.366171 
L 91.512668 290.772932 
L 91.856554 290.772932 
L 108.933562 209.366171 
L 108.947266 290.772932 
L 109.205762 290.772932 
L 109.481924 209.366171 
L 109.769313 290.772932 
L 109.897398 209.366171 
L 110.305197 209.366171 
L 110.509804 290.772932 
L 110.80248 290.772932 
L 114.96511 209.366171 
L 115.62581 290.772932 
L 117.268031 209.366171 
L 117.583297 290.772932 
L 118.255796 209.366171 
L 118.34313 290.772932 
L 119.352601 209.366171 
L 119.43752 290.772932 
L 123.380781 290.772932 
L 129.400286 209.366171 
L 129.506245 290.772932 
L 131.248707 209.366171 
L 131.699548 209.366171 
L 131.720991 290.772932 
L 133.561483 290.772932 
L 136.157406 209.366171 
L 136.170714 290.772932 
L 139.052085 209.366171 
L 139.094821 290.772932 
L 146.138882 209.366171 
L 147.083308 209.366171 
L 147.151628 290.772932 
L 147.76812 290.772932 
L 148.013179 209.366171 
L 148.328092 209.366171 
L 148.44085 290.772932 
L 149.511572 290.772932 
L 150.023056 209.366171 
L 150.123819 290.772932 
L 151.245031 290.772932 
L 151.256353 209.366171 
L 151.417907 290.772932 
L 155.726852 209.366171 
L 155.815795 290.772932 
L 156.065139 209.366171 
L 187.185325 209.366171 
L 187.294117 290.772932 
L 189.198529 290.772932 
L 189.707929 209.366171 
L 190.589161 209.366171 
L 190.659563 290.772932 
L 193.095553 290.772932 
L 193.335584 209.366171 
L 193.425012 290.772932 
L 193.580949 290.772932 
L 194.661209 209.366171 
L 194.754742 209.366171 
L 194.871319 290.772932 
L 195.966546 290.772932 
L 196.072707 209.366171 
L 196.385263 290.772932 
L 196.527723 290.772932 
L 202.061499 209.366171 
L 202.269951 290.772932 
L 203.411991 290.772932 
L 203.490775 209.366171 
L 203.90762 209.366171 
L 203.946024 290.772932 
L 204.794968 290.772932 
L 205.064073 209.366171 
L 205.276186 290.772932 
L 214.540059 209.366171 
L 214.888942 290.772932 
L 216.339457 209.366171 
L 216.411978 290.772932 
L 219.020116 209.366171 
L 219.21704 290.772932 
L 231.89267 209.366171 
L 231.911881 290.772932 
L 240.834726 209.366171 
L 241.344205 290.772932 
L 245.700129 209.366171 
L 245.769451 290.772932 
L 249.403676 209.366171 
L 249.41411 290.772932 
L 251.557776 209.366171 
L 251.81704 209.366171 
L 251.85457 290.772932 
L 252.984486 290.772932 
L 256.382598 209.366171 
L 256.530779 209.366171 
L 256.684495 290.772932 
L 257.045016 290.772932 
L 268.582488 209.366171 
L 268.770623 209.366171 
L 268.851742 290.772932 
L 269.52329 209.366171 
L 269.603105 290.772932 
L 270.175114 290.772932 
L 271.827709 209.366171 
L 271.852747 290.772932 
L 273.083075 209.366171 
L 285.484226 209.366171 
L 285.502667 290.772932 
L 286.55722 290.772932 
L 288.756307 209.366171 
L 288.812827 290.772932 
L 289.11972 290.772932 
L 290.964916 209.366171 
L 291.106814 290.772932 
L 292.603454 209.366171 
L 292.664098 290.772932 
L 296.323459 209.366171 
L 296.704056 209.366171 
L 296.923665 290.772932 
L 298.732772 290.772932 
L 304.603636 209.366171 
L 305.054295 209.366171 
L 305.204037 290.772932 
L 307.076195 290.772932 
L 312.40778 209.366171 
L 312.40778 209.366171 
" clip-path="url(#p1936cb00cb)" style="fill: none; stroke: #000000; stroke-width: 1.5; stroke-linecap: square"/>
   </g>
   <g id="patch_13">
    <path d="M 43.78125 294.84327 
L 43.78125 205.295833 
" style="fill: none; stroke: #000000; stroke-width: 0.8; stroke-linejoin: miter; stroke-linecap: square"/>
   </g>
   <g id="patch_14">
    <path d="M 325.19952 294.84327 
L 325.19952 205.295833 
" style="fill: none; stroke: #000000; stroke-width: 0.8; stroke-linejoin: miter; stroke-linecap: square"/>
   </g>
   <g id="patch_15">
    <path d="M 43.78125 294.84327 
L 325.19952 294.84327 
" style="fill: none; stroke: #000000; stroke-width: 0.8; stroke-linejoin: miter; stroke-linecap: square"/>
   </g>
   <g id="patch_16">
    <path d="M 43.78125 205.295833 
L 325.19952 205.295833 
" style="fill: none; stroke: #000000; stroke-width: 0.8; stroke-linejoin: miter; stroke-linecap: square"/>
   </g>
  </g>
 </g>
 <defs>
  <clipPath id="p298d4f8f18">
   <rect x="43.78125" y="7.2" width="281.41827" height="89.547437"/>
  </clipPath>
  <clipPath id="pabce3028ec">
   <rect x="43.78125" y="106.247917" width="281.41827" height="89.547437"/>
  </clipPath>
  <clipPath id="p1936cb00cb">
   <rect x="43.78125" y="205.295833" width="281.41827" height="89.547437"/>
  </clipPath>
 </defs>
</svg>
