<?xml version="1.0" encoding="utf-8" standalone="no"?>
<!DOCTYPE svg PUBLIC "-//W3C//DTD SVG 1.1//EN"
  "http://www.w3.org/Graphics/SVG/1.1/DTD/svg11.dtd">
<svg xmlns:xlink="http://www.w3.org/1999/xlink" width="332.39952pt" height="332.39952pt" viewBox="0 0 332.39952 332.39952" xmlns="http://www.w3.org/2000/svg" version="1.1">
 <metadata>
  <rdf:RDF xmlns:dc="http://purl.org/dc/elements/1.1/" xmlns:cc="http://creativecommons.org/ns#" xmlns:rdf="http://www.w3.org/1999/02/22-rdf-syntax-ns#">
   <cc:Work>
    <dc:type rdf:resource="http://purl.org/dc/dcmitype/StillImage"/>
    <dc:date>2026-05-26T15:35:36.542810</dc:date>
    <dc:format>image/svg+xml</dc:format>
    <dc:creator>
     <cc:Agent>
      <dc:title>Matplotlib v3.10.9, https://matplotlib.org/</dc:title>
     </cc:Agent>
    </dc:creator>
   </cc:Work>
  </rdf:RDF>
 </metadata>
 <defs>
  <style type="text/css">*{stroke-linejoin: round; stroke-linecap: butt}</style>
 </defs>
 <g id="figure_1">
  <g id="patch_1">
   <path d="M 0 332.39952 
L 332.39952 332.39952 
L 332.39952 0 
L 0 0 
z
" style="fill: #ffffff"/>
  </g>
  <g id="axes_1">
   <g id="patch_2">
    <path d="M 43.78125 96.747437 
L 325.19952 96.747437 
L 325.19952 7.2 
L 43.78125 7.2 
z
" style="fill: #ffffff"/>
   </g>
   <g id="matplotlib.axis_1">
    <g id="xtick_1">
     <g id="line2d_1">
      <defs>
       <path id="m1435344e93" d="M 0 0 
L 0 3.5 
" style="stroke: #000000; stroke-width: 0.8"/>
      </defs>
      <g>
       <use xlink:href="#m1435344e93" x="56.57299" y="96.747437" style="stroke: #000000; stroke-width: 0.8"/>
      </g>
     </g>
    </g>
    <g id="xtick_2">
     <g id="line2d_2">
      <g>
       <use xlink:href="#m1435344e93" x="88.522703" y="96.747437" style="stroke: #000000; stroke-width: 0.8"/>
      </g>
     </g>
    </g>
    <g id="xtick_3">
     <g id="line2d_3">
      <g>
       <use xlink:href="#m1435344e93" x="120.472416" y="96.747437" style="stroke: #000000; stroke-width: 0.8"/>
      </g>
     </g>
    </g>
    <g id="xtick_4">
     <g id="line2d_4">
      <g>
       <use xlink:href="#m1435344e93" x="152.422129" y="96.747437" style="stroke: #000000; stroke-width: 0.8"/>
      </g>
     </g>
    </g>
    <g id="xtick_5">
     <g id="line2d_5">
      <g>
       <use xlink:href="#m1435344e93" x="184.371842" y="96.747437" style="stroke: #000000; stroke-width: 0.8"/>
      </g>
     </g>
    </g>
    <g id="xtick_6">
     <g id="line2d_6">
      <g>
       <use xlink:href="#m1435344e93" x="216.321555" y="96.747437" style="stroke: #000000; stroke-width: 0.8"/>
      </g>
     </g>
    </g>
    <g id="xtick_7">
     <g id="line2d_7">
      <g>
       <use xlink:href="#m1435344e93" x="248.271268" y="96.747437" style="stroke: #000000; stroke-width: 0.8"/>
      </g>
     </g>
    </g>
    <g id="xtick_8">
     <g id="line2d_8">
      <g>
       <use xlink:href="#m1435344e93" x="280.220981" y="96.747437" style="stroke: #000000; stroke-width: 0.8"/>
      </g>
     </g>
    </g>
    <g id="xtick_9">
     <g id="line2d_9">
      <g>
       <use xlink:href="#m1435344e93" x="312.170694" y="96.747437" style="stroke: #000000; stroke-width: 0.8"/>
      </g>
     </g>
    </g>
   </g>
   <g id="matplotlib.axis_2">
    <g id="ytick_1">
     <g id="line2d_10">
      <defs>
       <path id="m4d081147f2" d="M 0 0 
L -3.5 0 
" style="stroke: #000000; stroke-width: 0.8"/>
      </defs>
      <g>
       <use xlink:href="#m4d081147f2" x="43.78125" y="92.677099" style="stroke: #000000; stroke-width: 0.8"/>
      </g>
     </g>
     <g id="text_1">
      <!-- 0 -->
      <g transform="translate(30.41875 96.476317) scale(0.1 -0.1)">
       <defs>
        <path id="DejaVuSans-30" d="M 2034 4250 
Q 1547 4250 1301 3770 
Q 1056 3291 1056 2328 
Q 1056 1369 1301 889 
Q 1547 409 2034 409 
Q 2525 409 2770 889 
Q 3016 1369 3016 2328 
Q 3016 3291 2770 3770 
Q 2525 4250 2034 4250 
z
M 2034 4750 
Q 2819 4750 3233 4129 
Q 3647 3509 3647 2328 
Q 3647 1150 3233 529 
Q 2819 -91 2034 -91 
Q 1250 -91 836 529 
Q 422 1150 422 2328 
Q 422 3509 836 4129 
Q 1250 4750 2034 4750 
z
" transform="scale(0.015625)"/>
       </defs>
       <use xlink:href="#DejaVuSans-30"/>
      </g>
     </g>
    </g>
    <g id="ytick_2">
     <g id="line2d_11">
      <g>
       <use xlink:href="#m4d081147f2" x="43.78125" y="51.973718" style="stroke: #000000; stroke-width: 0.8"/>
      </g>
     </g>
     <g id="text_2">
      <!-- 5 -->
      <g transform="translate(30.41875 55.772937) scale(0.1 -0.1)">
       <defs>
        <path id="DejaVuSans-35" d="M 691 4666 
L 3169 4666 
L 3169 4134 
L 1269 4134 
L 1269 2991 
Q 1406 3038 1543 3061 
Q 1681 3084 1819 3084 
Q 2600 3084 3056 2656 
Q 3513 2228 3513 1497 
Q 3513 744 3044 326 
Q 2575 -91 1722 -91 
Q 1428 -91 1123 -41 
Q 819 9 494 109 
L 494 744 
Q 775 591 1075 516 
Q 1375 441 1709 441 
Q 2250 441 2565 725 
Q 2881 1009 2881 1497 
Q 2881 1984 2565 2268 
Q 2250 2553 1709 2553 
Q 1456 2553 1204 2497 
Q 953 2441 691 2322 
L 691 4666 
z
" transform="scale(0.015625)"/>
       </defs>
       <use xlink:href="#DejaVuSans-35"/>
      </g>
     </g>
    </g>
    <g id="ytick_3">
     <g id="line2d_12">
      <g>
       <use xlink:href="#m4d081147f2" x="43.78125" y="11.270338" style="stroke: #000000; stroke-width: 0.8"/>
      </g>
     </g>
     <g id="text_3">
      <!-- 10 -->
      <g transform="translate(24.05625 15.069557) scale(0.1 -0.1)">
       <defs>
        <path id="DejaVuSans-31" d="M 794 531 
L 1825 531 
L 1825 4091 
L 703 3866 
L 703 4441 
L 1819 4666 
L 2450 4666 
L 2450 531 
L 3481 531 
L 3481 0 
L 794 0 
L 794 531 
z
" transform="scale(0.015625)"/>
       </defs>
       <use xlink:href="#DejaVuSans-31"/>
       <use xlink:href="#DejaVuSans-30" transform="translate(63.623047 0)"/>
      </g>
     </g>
    </g>
    <g id="text_4">
     <!-- Extracellular lactose -->
     <g transform="translate(17.976562 102.945593) rotate(-90) scale(0.1 -0.1)">
      <defs>
       <path id="DejaVuSans-45" d="M 628 4666 
L 3578 4666 
L 3578 4134 
L 1259 4134 
L 1259 2753 
L 3481 2753 
L 3481 2222 
L 1259 2222 
L 1259 531 
L 3634 531 
L 3634 0 
L 628 0 
L 628 4666 
z
" transform="scale(0.015625)"/>
       <path id="DejaVuSans-78" d="M 3513 3500 
L 2247 1797 
L 3578 0 
L 2900 0 
L 1881 1375 
L 863 0 
L 184 0 
L 1544 1831 
L 300 3500 
L 978 3500 
L 1906 2253 
L 2834 3500 
L 3513 3500 
z
" transform="scale(0.015625)"/>
       <path id="DejaVuSans-74" d="M 1172 4494 
L 1172 3500 
L 2356 3500 
L 2356 3053 
L 1172 3053 
L 1172 1153 
Q 1172 725 1289 603 
Q 1406 481 1766 481 
L 2356 481 
L 2356 0 
L 1766 0 
Q 1100 0 847 248 
Q 594 497 594 1153 
L 594 3053 
L 172 3053 
L 172 3500 
L 594 3500 
L 594 4494 
L 1172 4494 
z
" transform="scale(0.015625)"/>
       <path id="DejaVuSans-72" d="M 2631 2963 
Q 2534 3019 2420 3045 
Q 2306 3072 2169 3072 
Q 1681 3072 1420 2755 
Q 1159 2438 1159 1844 
L 1159 0 
L 581 0 
L 581 3500 
L 1159 3500 
L 1159 2956 
Q 1341 3275 1631 3429 
Q 1922 3584 2338 3584 
Q 2397 3584 2469 3576 
Q 2541 3569 2628 3553 
L 2631 2963 
z
" transform="scale(0.015625)"/>
       <path id="DejaVuSans-61" d="M 2194 1759 
Q 1497 1759 1228 1600 
Q 959 1441 959 1056 
Q 959 750 1161 570 
Q 1363 391 1709 391 
Q 2188 391 2477 730 
Q 2766 1069 2766 1631 
L 2766 1759 
L 2194 1759 
z
M 3341 1997 
L 3341 0 
L 2766 0 
L 2766 531 
Q 2569 213 2275 61 
Q 1981 -91 1556 -91 
Q 1019 -91 701 211 
Q 384 513 384 1019 
Q 384 1609 779 1909 
Q 1175 2209 1959 2209 
L 2766 2209 
L 2766 2266 
Q 2766 2663 2505 2880 
Q 2244 3097 1772 3097 
Q 1472 3097 1187 3025 
Q 903 2953 641 2809 
L 641 3341 
Q 956 3463 1253 3523 
Q 1550 3584 1831 3584 
Q 2591 3584 2966 3190 
Q 3341 2797 3341 1997 
z
" transform="scale(0.015625)"/>
       <path id="DejaVuSans-63" d="M 3122 3366 
L 3122 2828 
Q 2878 2963 2633 3030 
Q 2388 3097 2138 3097 
Q 1578 3097 1268 2742 
Q 959 2388 959 1747 
Q 959 1106 1268 751 
Q 1578 397 2138 397 
Q 2388 397 2633 464 
Q 2878 531 3122 666 
L 3122 134 
Q 2881 22 2623 -34 
Q 2366 -91 2075 -91 
Q 1284 -91 818 406 
Q 353 903 353 1747 
Q 353 2603 823 3093 
Q 1294 3584 2113 3584 
Q 2378 3584 2631 3529 
Q 2884 3475 3122 3366 
z
" transform="scale(0.015625)"/>
       <path id="DejaVuSans-65" d="M 3597 1894 
L 3597 1613 
L 953 1613 
Q 991 1019 1311 708 
Q 1631 397 2203 397 
Q 2534 397 2845 478 
Q 3156 559 3463 722 
L 3463 178 
Q 3153 47 2828 -22 
Q 2503 -91 2169 -91 
Q 1331 -91 842 396 
Q 353 884 353 1716 
Q 353 2575 817 3079 
Q 1281 3584 2069 3584 
Q 2775 3584 3186 3129 
Q 3597 2675 3597 1894 
z
M 3022 2063 
Q 3016 2534 2758 2815 
Q 2500 3097 2075 3097 
Q 1594 3097 1305 2825 
Q 1016 2553 972 2059 
L 3022 2063 
z
" transform="scale(0.015625)"/>
       <path id="DejaVuSans-6c" d="M 603 4863 
L 1178 4863 
L 1178 0 
L 603 0 
L 603 4863 
z
" transform="scale(0.015625)"/>
       <path id="DejaVuSans-75" d="M 544 1381 
L 544 3500 
L 1119 3500 
L 1119 1403 
Q 1119 906 1312 657 
Q 1506 409 1894 409 
Q 2359 409 2629 706 
Q 2900 1003 2900 1516 
L 2900 3500 
L 3475 3500 
L 3475 0 
L 2900 0 
L 2900 538 
Q 2691 219 2414 64 
Q 2138 -91 1772 -91 
Q 1169 -91 856 284 
Q 544 659 544 1381 
z
M 1991 3584 
L 1991 3584 
z
" transform="scale(0.015625)"/>
       <path id="DejaVuSans-20" transform="scale(0.015625)"/>
       <path id="DejaVuSans-6f" d="M 1959 3097 
Q 1497 3097 1228 2736 
Q 959 2375 959 1747 
Q 959 1119 1226 758 
Q 1494 397 1959 397 
Q 2419 397 2687 759 
Q 2956 1122 2956 1747 
Q 2956 2369 2687 2733 
Q 2419 3097 1959 3097 
z
M 1959 3584 
Q 2709 3584 3137 3096 
Q 3566 2609 3566 1747 
Q 3566 888 3137 398 
Q 2709 -91 1959 -91 
Q 1206 -91 779 398 
Q 353 888 353 1747 
Q 353 2609 779 3096 
Q 1206 3584 1959 3584 
z
" transform="scale(0.015625)"/>
       <path id="DejaVuSans-73" d="M 2834 3397 
L 2834 2853 
Q 2591 2978 2328 3040 
Q 2066 3103 1784 3103 
Q 1356 3103 1142 2972 
Q 928 2841 928 2578 
Q 928 2378 1081 2264 
Q 1234 2150 1697 2047 
L 1894 2003 
Q 2506 1872 2764 1633 
Q 3022 1394 3022 966 
Q 3022 478 2636 193 
Q 2250 -91 1575 -91 
Q 1294 -91 989 -36 
Q 684 19 347 128 
L 347 722 
Q 666 556 975 473 
Q 1284 391 1588 391 
Q 1994 391 2212 530 
Q 2431 669 2431 922 
Q 2431 1156 2273 1281 
Q 2116 1406 1581 1522 
L 1381 1569 
Q 847 1681 609 1914 
Q 372 2147 372 2553 
Q 372 3047 722 3315 
Q 1072 3584 1716 3584 
Q 2034 3584 2315 3537 
Q 2597 3491 2834 3397 
z
" transform="scale(0.015625)"/>
      </defs>
      <use xlink:href="#DejaVuSans-45"/>
      <use xlink:href="#DejaVuSans-78" transform="translate(63.183594 0)"/>
      <use xlink:href="#DejaVuSans-74" transform="translate(122.363281 0)"/>
      <use xlink:href="#DejaVuSans-72" transform="translate(161.572266 0)"/>
      <use xlink:href="#DejaVuSans-61" transform="translate(202.685547 0)"/>
      <use xlink:href="#DejaVuSans-63" transform="translate(263.964844 0)"/>
      <use xlink:href="#DejaVuSans-65" transform="translate(318.945312 0)"/>
      <use xlink:href="#DejaVuSans-6c" transform="translate(380.46875 0)"/>
      <use xlink:href="#DejaVuSans-6c" transform="translate(408.251953 0)"/>
      <use xlink:href="#DejaVuSans-75" transform="translate(436.035156 0)"/>
      <use xlink:href="#DejaVuSans-6c" transform="translate(499.414062 0)"/>
      <use xlink:href="#DejaVuSans-61" transform="translate(527.197266 0)"/>
      <use xlink:href="#DejaVuSans-72" transform="translate(588.476562 0)"/>
      <use xlink:href="#DejaVuSans-20" transform="translate(629.589844 0)"/>
      <use xlink:href="#DejaVuSans-6c" transform="translate(661.376953 0)"/>
      <use xlink:href="#DejaVuSans-61" transform="translate(689.160156 0)"/>
      <use xlink:href="#DejaVuSans-63" transform="translate(750.439453 0)"/>
      <use xlink:href="#DejaVuSans-74" transform="translate(805.419922 0)"/>
      <use xlink:href="#DejaVuSans-6f" transform="translate(844.628906 0)"/>
      <use xlink:href="#DejaVuSans-73" transform="translate(905.810547 0)"/>
      <use xlink:href="#DejaVuSans-65" transform="translate(957.910156 0)"/>
     </g>
    </g>
   </g>
   <g id="line2d_13">
    <path d="M 56.57299 92.677099 
L 155.958755 92.677099 
L 156.047906 11.270338 
L 156.716292 11.351745 
L 156.83405 11.677372 
L 156.878891 11.758779 
L 157.025172 13.2241 
L 157.143584 14.852235 
L 157.15742 14.933642 
L 157.301019 16.643184 
L 157.324582 16.724591 
L 157.832284 20.143675 
L 158.216358 20.794929 
L 158.715431 20.876336 
L 158.817146 21.201963 
L 159.074872 21.608997 
L 159.175334 22.01603 
L 159.295912 22.097437 
L 159.403111 22.504471 
L 159.435286 22.585878 
L 159.563144 23.725572 
L 159.582741 23.806979 
L 159.695486 24.702454 
L 159.84404 25.353708 
L 159.886743 25.435114 
L 160.528256 29.342639 
L 160.640683 30.482334 
L 160.865323 31.866248 
L 160.895422 31.947655 
L 161.006592 32.273282 
L 161.042551 32.354689 
L 161.181375 32.761723 
L 161.235768 33.250163 
L 161.353369 33.820011 
L 161.375541 33.901417 
L 161.478537 34.145638 
L 161.522665 34.227045 
L 162.003553 35.85518 
L 162.589194 35.936586 
L 162.714602 36.34362 
L 163.050683 36.913468 
L 163.153403 36.994874 
L 163.297883 37.564722 
L 163.445836 37.890349 
L 163.469082 37.971756 
L 163.581475 38.215976 
L 163.660346 38.297383 
L 164.322194 40.495365 
L 164.43277 41.390839 
L 164.491716 41.472246 
L 164.628494 41.716466 
L 164.649253 41.797873 
L 164.952965 43.426008 
L 165.069081 43.507415 
L 165.171864 43.995856 
L 165.296534 44.240076 
L 165.378116 44.321483 
L 165.488123 44.64711 
L 166.254438 46.845092 
L 166.563314 46.926499 
L 166.721817 47.170719 
L 166.830297 47.252126 
L 166.997238 47.333533 
L 167.142155 47.65916 
L 167.230217 47.740567 
L 167.44525 48.066194 
L 167.579588 48.147601 
L 168.502152 50.752617 
L 168.584538 50.834024 
L 168.682934 50.91543 
L 168.784742 50.996837 
L 168.878786 51.159651 
L 169.052301 51.403871 
L 169.314999 51.566685 
L 169.720354 51.648091 
L 169.9088 52.055125 
L 169.997837 52.136532 
L 170.746583 52.217939 
L 171.082873 53.19482 
L 171.389332 54.660141 
L 171.451118 54.904362 
L 171.60824 55.718429 
L 171.618919 55.799836 
L 171.688527 56.288277 
L 171.913384 57.753598 
L 171.935001 57.835005 
L 172.144575 58.9747 
L 172.230936 59.625954 
L 172.386543 60.440021 
L 172.529893 60.602835 
L 172.829814 60.684242 
L 173.064722 61.254089 
L 173.251472 61.335496 
L 173.515076 61.905343 
L 173.532347 61.98675 
L 173.806674 62.393784 
L 173.899305 62.47519 
L 174.178744 62.638004 
L 174.214902 62.719411 
L 175.498259 67.52241 
L 175.673559 67.929443 
L 175.743696 68.01085 
L 175.840197 68.173664 
L 176.5317 70.697273 
L 176.892183 71.999781 
L 176.950134 72.081188 
L 177.06252 72.569629 
L 177.142563 72.651036 
L 177.250121 72.976663 
L 177.279135 73.058069 
L 177.447269 73.54651 
L 177.742429 73.627917 
L 177.835514 73.709323 
L 178.494078 73.79073 
L 178.637958 73.953544 
L 178.91036 74.767611 
L 179.1107 74.849018 
L 179.190942 74.930425 
L 179.743164 75.011832 
L 180.038977 75.500272 
L 180.579079 75.581679 
L 180.690115 75.663086 
L 180.724352 75.744492 
L 180.792632 75.825899 
L 180.882251 75.907306 
L 180.968666 75.988713 
L 181.139771 76.070119 
L 181.229632 76.151526 
L 181.462499 76.232933 
L 181.605747 76.31434 
L 181.709704 76.395747 
L 181.79323 76.477153 
L 182.106467 76.55856 
L 182.191618 76.721374 
L 182.369062 76.80278 
L 182.452493 76.884187 
L 182.870501 77.209814 
L 183.357946 77.291221 
L 183.488114 77.454034 
L 183.558885 77.535441 
L 183.681106 77.779661 
L 183.851131 77.861068 
L 183.956051 77.942475 
L 184.211939 78.023882 
L 184.795496 78.837949 
L 184.923416 79.163576 
L 185.066446 79.244983 
L 185.182638 79.32639 
L 186.718863 79.407797 
L 186.819306 79.57061 
L 186.971785 79.652017 
L 187.074502 79.81483 
L 187.143243 79.896237 
L 187.217753 80.140458 
L 187.318591 80.221864 
L 187.905666 80.791712 
L 187.993701 80.954525 
L 188.162696 81.035932 
L 188.259688 81.198745 
L 188.763282 82.257033 
L 188.835717 82.33844 
L 188.922437 82.664067 
L 189.056504 82.745474 
L 189.174735 82.826881 
L 189.264595 82.908287 
L 189.969598 82.989694 
L 190.28968 83.233914 
L 190.420178 83.315321 
L 190.695389 83.559541 
L 190.809502 83.885168 
L 191.264077 83.966575 
L 192.030485 84.536423 
L 192.560714 84.617829 
L 192.669222 84.780643 
L 193.373961 84.86205 
L 193.657109 85.187677 
L 194.021915 85.269083 
L 194.29715 85.431897 
L 194.330315 85.513304 
L 194.390171 85.59471 
L 194.897926 85.676117 
L 195.002066 85.757524 
L 195.449023 85.838931 
L 195.887612 86.001744 
L 195.962918 86.083151 
L 196.155005 86.164558 
L 196.415622 86.245965 
L 196.527071 86.408778 
L 196.804187 86.490185 
L 196.921134 86.815812 
L 197.063041 86.897219 
L 197.171797 86.978625 
L 197.487627 87.060032 
L 197.659522 87.222846 
L 197.898244 87.304252 
L 198.365612 87.629879 
L 198.4747 87.792693 
L 198.729944 87.8741 
L 198.995566 87.955507 
L 199.675929 88.036913 
L 199.849112 88.281134 
L 200.382199 88.36254 
L 200.527999 88.525354 
L 200.59105 88.606761 
L 200.823834 88.688167 
L 200.969724 88.932388 
L 201.212735 89.013794 
L 201.306937 89.176608 
L 203.947347 89.258015 
L 204.286304 89.502235 
L 204.863419 89.583642 
L 205.002188 89.665048 
L 205.166302 89.746455 
L 206.04542 89.827862 
L 206.15154 89.909269 
L 210.077343 89.990676 
L 210.209447 90.072082 
L 212.878662 90.153489 
L 212.973179 90.234896 
L 214.291456 90.316303 
L 214.492847 90.397709 
L 216.665809 90.479116 
L 216.782082 90.560523 
L 239.821988 90.64193 
L 241.523082 90.723336 
L 295.537562 90.804743 
L 295.707883 90.967557 
L 312.40778 90.967557 
L 312.40778 90.967557 
" clip-path="url(#p1ae2419891)" style="fill: none; stroke: #000000; stroke-width: 1.5; stroke-linecap: square"/>
   </g>
   <g id="patch_3">
    <path d="M 43.78125 96.747437 
L 43.78125 7.2 
" style="fill: none; stroke: #000000; stroke-width: 0.8; stroke-linejoin: miter; stroke-linecap: square"/>
   </g>
   <g id="patch_4">
    <path d="M 325.19952 96.747437 
L 325.19952 7.2 
" style="fill: none; stroke: #000000; stroke-width: 0.8; stroke-linejoin: miter; stroke-linecap: square"/>
   </g>
   <g id="patch_5">
    <path d="M 43.78125 96.747437 
L 325.19952 96.747437 
" style="fill: none; stroke: #000000; stroke-width: 0.8; stroke-linejoin: miter; stroke-linecap: square"/>
   </g>
   <g id="patch_6">
    <path d="M 43.78125 7.2 
L 325.19952 7.2 
" style="fill: none; stroke: #000000; stroke-width: 0.8; stroke-linejoin: miter; stroke-linecap: square"/>
   </g>
  </g>
  <g id="axes_2">
   <g id="patch_7">
    <path d="M 43.78125 195.795353 
L 325.19952 195.795353 
L 325.19952 106.247917 
L 43.78125 106.247917 
z
" style="fill: #ffffff"/>
   </g>
   <g id="matplotlib.axis_3">
    <g id="xtick_10">
     <g id="line2d_14">
      <g>
       <use xlink:href="#m1435344e93" x="56.57299" y="195.795353" style="stroke: #000000; stroke-width: 0.8"/>
      </g>
     </g>
    </g>
    <g id="xtick_11">
     <g id="line2d_15">
      <g>
       <use xlink:href="#m1435344e93" x="88.522703" y="195.795353" style="stroke: #000000; stroke-width: 0.8"/>
      </g>
     </g>
    </g>
    <g id="xtick_12">
     <g id="line2d_16">
      <g>
       <use xlink:href="#m1435344e93" x="120.472416" y="195.795353" style="stroke: #000000; stroke-width: 0.8"/>
      </g>
     </g>
    </g>
    <g id="xtick_13">
     <g id="line2d_17">
      <g>
       <use xlink:href="#m1435344e93" x="152.422129" y="195.795353" style="stroke: #000000; stroke-width: 0.8"/>
      </g>
     </g>
    </g>
    <g id="xtick_14">
     <g id="line2d_18">
      <g>
       <use xlink:href="#m1435344e93" x="184.371842" y="195.795353" style="stroke: #000000; stroke-width: 0.8"/>
      </g>
     </g>
    </g>
    <g id="xtick_15">
     <g id="line2d_19">
      <g>
       <use xlink:href="#m1435344e93" x="216.321555" y="195.795353" style="stroke: #000000; stroke-width: 0.8"/>
      </g>
     </g>
    </g>
    <g id="xtick_16">
     <g id="line2d_20">
      <g>
       <use xlink:href="#m1435344e93" x="248.271268" y="195.795353" style="stroke: #000000; stroke-width: 0.8"/>
      </g>
     </g>
    </g>
    <g id="xtick_17">
     <g id="line2d_21">
      <g>
       <use xlink:href="#m1435344e93" x="280.220981" y="195.795353" style="stroke: #000000; stroke-width: 0.8"/>
      </g>
     </g>
    </g>
    <g id="xtick_18">
     <g id="line2d_22">
      <g>
       <use xlink:href="#m1435344e93" x="312.170694" y="195.795353" style="stroke: #000000; stroke-width: 0.8"/>
      </g>
     </g>
    </g>
   </g>
   <g id="matplotlib.axis_4">
    <g id="ytick_4">
     <g id="line2d_23">
      <g>
       <use xlink:href="#m4d081147f2" x="43.78125" y="191.725015" style="stroke: #000000; stroke-width: 0.8"/>
      </g>
     </g>
     <g id="text_5">
      <!-- 0 -->
      <g transform="translate(30.41875 195.524234) scale(0.1 -0.1)">
       <use xlink:href="#DejaVuSans-30"/>
      </g>
     </g>
    </g>
    <g id="ytick_5">
     <g id="line2d_24">
      <g>
       <use xlink:href="#m4d081147f2" x="43.78125" y="151.021635" style="stroke: #000000; stroke-width: 0.8"/>
      </g>
     </g>
     <g id="text_6">
      <!-- 5 -->
      <g transform="translate(30.41875 154.820854) scale(0.1 -0.1)">
       <use xlink:href="#DejaVuSans-35"/>
      </g>
     </g>
    </g>
    <g id="ytick_6">
     <g id="line2d_25">
      <g>
       <use xlink:href="#m4d081147f2" x="43.78125" y="110.318255" style="stroke: #000000; stroke-width: 0.8"/>
      </g>
     </g>
     <g id="text_7">
      <!-- 10 -->
      <g transform="translate(24.05625 114.117473) scale(0.1 -0.1)">
       <use xlink:href="#DejaVuSans-31"/>
       <use xlink:href="#DejaVuSans-30" transform="translate(63.623047 0)"/>
      </g>
     </g>
    </g>
    <g id="text_8">
     <!-- LacY -->
     <g transform="translate(17.976563 162.67476) rotate(-90) scale(0.1 -0.1)">
      <defs>
       <path id="DejaVuSans-4c" d="M 628 4666 
L 1259 4666 
L 1259 531 
L 3531 531 
L 3531 0 
L 628 0 
L 628 4666 
z
" transform="scale(0.015625)"/>
       <path id="DejaVuSans-59" d="M -13 4666 
L 666 4666 
L 1959 2747 
L 3244 4666 
L 3922 4666 
L 2272 2222 
L 2272 0 
L 1638 0 
L 1638 2222 
L -13 4666 
z
" transform="scale(0.015625)"/>
      </defs>
      <use xlink:href="#DejaVuSans-4c"/>
      <use xlink:href="#DejaVuSans-61" transform="translate(55.712891 0)"/>
      <use xlink:href="#DejaVuSans-63" transform="translate(116.992188 0)"/>
      <use xlink:href="#DejaVuSans-59" transform="translate(171.972656 0)"/>
     </g>
    </g>
   </g>
   <g id="line2d_26">
    <path d="M 56.57299 110.318255 
L 56.600148 110.318255 
L 56.654706 118.458931 
L 56.762997 134.740283 
L 56.823409 142.880959 
L 56.975691 142.880959 
L 56.993408 134.740283 
L 57.214252 142.880959 
L 57.356281 142.880959 
L 57.527128 159.162311 
L 57.828377 175.443663 
L 57.894072 191.725015 
L 59.425828 191.725015 
L 59.592641 183.584339 
L 59.635432 191.725015 
L 64.663805 191.725015 
L 64.987134 183.584339 
L 65.097215 191.725015 
L 82.613607 191.725015 
L 82.808239 183.584339 
L 84.603626 191.725015 
L 84.618469 183.584339 
L 84.761841 175.443663 
L 84.766501 167.302987 
L 85.089035 175.443663 
L 85.316261 175.443663 
L 85.436032 191.725015 
L 85.496924 183.584339 
L 85.68737 183.584339 
L 85.826016 191.725015 
L 89.722748 191.725015 
L 90.112999 175.443663 
L 90.114301 167.302987 
L 90.613515 167.302987 
L 90.652228 183.584339 
L 91.425266 183.584339 
L 91.594385 175.443663 
L 91.939075 191.725015 
L 108.96394 191.725015 
L 109.06976 183.584339 
L 109.189606 183.584339 
L 109.32886 191.725015 
L 109.564135 191.725015 
L 109.605668 183.584339 
L 110.022114 183.584339 
L 110.372451 175.443663 
L 110.430867 183.584339 
L 110.606339 183.584339 
L 110.635952 191.725015 
L 119.405911 191.725015 
L 119.584549 183.584339 
L 121.687332 183.584339 
L 123.537032 191.725015 
L 131.31444 191.725015 
L 131.500932 183.584339 
L 131.788841 183.584339 
L 131.896749 191.725015 
L 136.237815 191.725015 
L 136.321647 183.584339 
L 136.343539 191.725015 
L 146.348361 191.725015 
L 146.609523 175.443663 
L 146.63038 183.584339 
L 146.659423 175.443663 
L 146.772672 167.302987 
L 146.778019 175.443663 
L 147.363475 175.443663 
L 147.981409 183.584339 
L 148.227041 183.584339 
L 148.54269 175.443663 
L 148.655712 175.443663 
L 149.728938 191.725015 
L 150.189674 191.725015 
L 150.241618 175.443663 
L 150.342617 175.443663 
L 150.495637 183.584339 
L 150.62952 183.584339 
L 151.173094 191.725015 
L 156.297833 191.725015 
L 156.726643 183.584339 
L 156.967231 151.021635 
L 157.249218 151.021635 
L 157.369473 167.302987 
L 157.419403 167.302987 
L 157.520427 159.162311 
L 157.607513 159.162311 
L 157.711019 175.443663 
L 157.737633 175.443663 
L 157.832284 183.584339 
L 158.194877 183.584339 
L 158.301794 191.725015 
L 158.665083 191.725015 
L 158.766418 183.584339 
L 158.948114 183.584339 
L 159.058457 175.443663 
L 159.204534 175.443663 
L 159.260062 183.584339 
L 159.313113 175.443663 
L 159.426985 175.443663 
L 159.536394 167.302987 
L 159.688196 167.302987 
L 159.813228 183.584339 
L 159.947557 183.584339 
L 160.070734 175.443663 
L 160.219954 175.443663 
L 160.348024 159.162311 
L 160.525287 159.162311 
L 160.594072 151.021635 
L 160.633235 159.162311 
L 160.720732 159.162311 
L 160.771322 151.021635 
L 160.823967 159.162311 
L 160.992735 159.162311 
L 161.101912 175.443663 
L 161.130881 175.443663 
L 161.161432 183.584339 
L 161.169819 167.302987 
L 161.237873 167.302987 
L 161.473122 167.302987 
L 161.585257 175.443663 
L 161.865259 175.443663 
L 161.971974 183.584339 
L 162.076183 183.584339 
L 162.178462 191.725015 
L 162.49133 191.725015 
L 162.639042 183.584339 
L 162.789088 183.584339 
L 162.904302 175.443663 
L 162.941512 175.443663 
L 163.050683 183.584339 
L 163.294291 183.584339 
L 163.347326 175.443663 
L 163.400526 183.584339 
L 163.632926 183.584339 
L 163.735251 175.443663 
L 163.751858 183.584339 
L 163.781353 167.302987 
L 163.841382 175.443663 
L 164.070774 175.443663 
L 164.117575 183.584339 
L 164.180981 175.443663 
L 164.280056 175.443663 
L 164.391499 159.162311 
L 164.414431 159.162311 
L 164.538474 167.302987 
L 164.659798 167.302987 
L 164.756806 159.162311 
L 164.75989 167.302987 
L 164.871397 175.443663 
L 165.905019 175.443663 
L 166.032334 183.584339 
L 166.254438 183.584339 
L 166.37985 191.725015 
L 166.478542 191.725015 
L 166.624375 183.584339 
L 166.766412 183.584339 
L 166.872399 191.725015 
L 166.931823 191.725015 
L 167.053293 183.584339 
L 167.094428 183.584339 
L 167.199357 191.725015 
L 167.283721 183.584339 
L 167.700994 183.584339 
L 167.842813 175.443663 
L 168.528954 175.443663 
L 168.613736 183.584339 
L 168.750089 175.443663 
L 168.858108 175.443663 
L 168.964661 183.584339 
L 169.131158 183.584339 
L 169.213048 191.725015 
L 169.557206 191.725015 
L 169.781409 183.584339 
L 169.937275 183.584339 
L 169.997837 191.725015 
L 170.162645 183.584339 
L 170.271037 191.725015 
L 170.346652 191.725015 
L 170.452997 183.584339 
L 170.565058 191.725015 
L 170.660701 183.584339 
L 170.908487 183.584339 
L 171.050179 159.162311 
L 171.125612 159.162311 
L 171.244913 151.021635 
L 171.525886 151.021635 
L 171.618919 159.162311 
L 172.067384 159.162311 
L 172.118078 142.880959 
L 172.173328 151.021635 
L 172.23913 151.021635 
L 172.357813 167.302987 
L 172.425591 167.302987 
L 172.594948 183.584339 
L 172.790415 183.584339 
L 172.949445 167.302987 
L 172.979216 167.302987 
L 173.104804 183.584339 
L 173.244319 183.584339 
L 173.366498 167.302987 
L 173.408863 167.302987 
L 173.522713 175.443663 
L 173.564744 175.443663 
L 173.636132 183.584339 
L 173.777321 183.584339 
L 173.837375 175.443663 
L 173.877201 183.584339 
L 174.178744 183.584339 
L 174.3069 167.302987 
L 174.316777 167.302987 
L 174.413502 159.162311 
L 174.872404 159.162311 
L 174.874777 167.302987 
L 174.969507 159.162311 
L 175.067943 159.162311 
L 175.069523 151.021635 
L 175.168016 159.162311 
L 175.485231 159.162311 
L 175.562977 151.021635 
L 175.576083 167.302987 
L 175.591265 167.302987 
L 175.666648 167.302987 
L 175.755556 159.162311 
L 175.762054 167.302987 
L 175.877186 167.302987 
L 175.905229 175.443663 
L 175.96399 159.162311 
L 175.976461 159.162311 
L 176.248663 159.162311 
L 176.280596 151.021635 
L 176.342224 159.162311 
L 176.453102 159.162311 
L 176.552973 151.021635 
L 176.68105 159.162311 
L 176.865263 159.162311 
L 176.98052 167.302987 
L 177.383741 167.302987 
L 177.45823 183.584339 
L 177.483976 175.443663 
L 177.624189 183.584339 
L 177.767065 183.584339 
L 177.885393 191.725015 
L 178.133055 191.725015 
L 178.284876 183.584339 
L 178.310507 191.725015 
L 178.350368 175.443663 
L 178.91036 175.443663 
L 179.033361 183.584339 
L 179.143912 175.443663 
L 179.246755 191.725015 
L 179.502004 191.725015 
L 179.69607 167.302987 
L 179.851803 175.443663 
L 180.038977 175.443663 
L 180.267632 183.584339 
L 180.590263 183.584339 
L 180.791705 159.162311 
L 180.891204 175.443663 
L 181.017574 175.443663 
L 181.038627 183.584339 
L 181.114695 175.443663 
L 181.201739 175.443663 
L 181.203557 167.302987 
L 181.229632 183.584339 
L 181.400727 183.584339 
L 181.504435 175.443663 
L 181.605747 175.443663 
L 181.714351 183.584339 
L 181.738882 183.584339 
L 181.79323 191.725015 
L 182.036366 183.584339 
L 183.113437 183.584339 
L 183.135541 175.443663 
L 183.33725 175.443663 
L 183.398267 167.302987 
L 183.485836 167.302987 
L 183.48629 159.162311 
L 183.596214 167.302987 
L 183.625642 159.162311 
L 183.681106 167.302987 
L 183.741949 159.162311 
L 183.750929 167.302987 
L 183.875805 175.443663 
L 183.956051 183.584339 
L 184.211939 175.443663 
L 184.460429 175.443663 
L 184.55167 183.584339 
L 184.632738 183.584339 
L 184.74038 167.302987 
L 184.923416 167.302987 
L 185.046085 159.162311 
L 185.077562 159.162311 
L 185.182638 175.443663 
L 185.197079 175.443663 
L 185.292156 183.584339 
L 185.418018 191.725015 
L 186.353468 191.725015 
L 186.570504 183.584339 
L 186.718875 183.584339 
L 186.819306 159.162311 
L 187.177819 159.162311 
L 187.217753 167.302987 
L 187.475426 167.302987 
L 187.580224 159.162311 
L 188.134041 159.162311 
L 188.259688 151.021635 
L 188.484003 151.021635 
L 188.615936 142.880959 
L 188.700785 142.880959 
L 188.81453 151.021635 
L 188.818406 142.880959 
L 188.846096 159.162311 
L 188.902728 159.162311 
L 188.949494 159.162311 
L 189.012476 167.302987 
L 189.056504 159.162311 
L 189.097646 159.162311 
L 189.185131 167.302987 
L 189.249749 167.302987 
L 189.323672 151.021635 
L 189.333695 159.162311 
L 189.442192 167.302987 
L 189.52964 167.302987 
L 189.63269 175.443663 
L 189.661693 175.443663 
L 189.69051 167.302987 
L 189.751906 175.443663 
L 190.153036 175.443663 
L 190.224922 167.302987 
L 190.256146 175.443663 
L 190.346054 175.443663 
L 190.420178 159.162311 
L 190.580827 159.162311 
L 190.679172 167.302987 
L 191.073708 167.302987 
L 191.154073 175.443663 
L 191.224697 175.443663 
L 191.360532 167.302987 
L 191.393662 175.443663 
L 191.449861 167.302987 
L 191.55823 175.443663 
L 191.625208 167.302987 
L 191.736165 167.302987 
L 191.78214 159.162311 
L 191.83 175.443663 
L 191.951222 175.443663 
L 191.974888 167.302987 
L 192.030485 183.584339 
L 192.215033 175.443663 
L 192.309002 175.443663 
L 192.36869 167.302987 
L 192.371964 175.443663 
L 192.488903 175.443663 
L 192.515179 167.302987 
L 192.570494 175.443663 
L 192.603634 175.443663 
L 192.715204 183.584339 
L 193.134417 183.584339 
L 193.256171 175.443663 
L 193.318425 183.584339 
L 193.335629 175.443663 
L 193.556422 175.443663 
L 193.657109 151.021635 
L 193.821607 167.302987 
L 193.954032 167.302987 
L 194.09255 175.443663 
L 194.966545 175.443663 
L 194.996738 167.302987 
L 195.075071 175.443663 
L 195.247802 175.443663 
L 195.301417 183.584339 
L 195.449023 175.443663 
L 195.681752 175.443663 
L 195.832023 167.302987 
L 195.962918 175.443663 
L 196.060742 175.443663 
L 196.070431 183.584339 
L 196.155005 175.443663 
L 196.378756 183.584339 
L 196.476674 151.021635 
L 196.643712 151.021635 
L 196.72211 167.302987 
L 196.738498 159.162311 
L 196.914385 151.021635 
L 197.134673 151.021635 
L 197.171797 142.880959 
L 197.487627 159.162311 
L 197.540294 159.162311 
L 197.659522 175.443663 
L 197.898244 151.021635 
L 198.381062 151.021635 
L 198.549462 175.443663 
L 198.691254 167.302987 
L 198.850479 167.302987 
L 198.995566 191.725015 
L 199.639112 191.725015 
L 199.787028 175.443663 
L 199.829842 175.443663 
L 199.937009 183.584339 
L 200.015609 183.584339 
L 200.029679 167.302987 
L 200.31109 167.302987 
L 200.382199 159.162311 
L 200.553478 159.162311 
L 200.59105 151.021635 
L 200.719439 151.021635 
L 200.805208 142.880959 
L 200.823834 151.021635 
L 200.850939 151.021635 
L 200.969724 142.880959 
L 200.98419 142.880959 
L 201.09831 159.162311 
L 201.259898 175.443663 
L 201.365882 183.584339 
L 201.786035 183.584339 
L 201.847222 191.725015 
L 203.102785 191.725015 
L 203.546127 175.443663 
L 203.634733 167.302987 
L 203.947347 159.162311 
L 204.091128 159.162311 
L 204.175053 142.880959 
L 204.267044 142.880959 
L 204.373876 134.740283 
L 204.42259 159.162311 
L 204.489049 151.021635 
L 204.525555 142.880959 
L 204.54434 151.021635 
L 204.612193 151.021635 
L 204.696913 159.162311 
L 204.855726 159.162311 
L 204.860603 151.021635 
L 204.949526 167.302987 
L 205.080119 167.302987 
L 205.166302 175.443663 
L 205.727703 175.443663 
L 205.816349 183.584339 
L 206.0532 167.302987 
L 206.064569 175.443663 
L 206.092724 175.443663 
L 206.13759 183.584339 
L 206.15154 167.302987 
L 206.251538 175.443663 
L 206.48474 183.584339 
L 206.493384 191.725015 
L 206.762121 191.725015 
L 206.955634 183.584339 
L 207.328132 183.584339 
L 207.843296 191.725015 
L 209.660329 191.725015 
L 210.077343 183.584339 
L 210.161365 183.584339 
L 210.209447 191.725015 
L 210.262304 183.584339 
L 210.341697 183.584339 
L 210.620982 191.725015 
L 211.303343 191.725015 
L 211.756004 183.584339 
L 212.100823 191.725015 
L 212.376826 183.584339 
L 212.459219 175.443663 
L 212.780946 167.302987 
L 212.9612 167.302987 
L 212.973179 175.443663 
L 213.11699 175.443663 
L 213.508975 191.725015 
L 213.767629 183.584339 
L 213.853715 191.725015 
L 213.994305 191.725015 
L 214.117858 183.584339 
L 214.36967 183.584339 
L 214.492847 191.725015 
L 214.668912 167.302987 
L 214.779282 167.302987 
L 214.908531 175.443663 
L 215.079208 167.302987 
L 215.100005 175.443663 
L 215.245114 175.443663 
L 215.279997 167.302987 
L 215.503492 167.302987 
L 215.525807 175.443663 
L 215.812394 175.443663 
L 215.926438 183.584339 
L 216.516149 175.443663 
L 216.634558 175.443663 
L 216.72813 167.302987 
L 216.797024 183.584339 
L 218.112208 183.584339 
L 218.53721 191.725015 
L 223.341713 191.725015 
L 223.475673 183.584339 
L 223.509504 191.725015 
L 236.35867 191.725015 
L 236.806313 183.584339 
L 236.90191 191.725015 
L 239.020623 191.725015 
L 239.656165 183.584339 
L 240.74213 183.584339 
L 241.523082 191.725015 
L 245.924556 191.725015 
L 245.977684 183.584339 
L 246.110412 191.725015 
L 263.96035 191.725015 
L 263.98655 183.584339 
L 264.099176 191.725015 
L 264.238255 191.725015 
L 264.325764 183.584339 
L 264.68925 183.584339 
L 264.941796 191.725015 
L 277.410552 191.725015 
L 277.574143 175.443663 
L 277.860111 167.302987 
L 277.9764 159.162311 
L 277.977939 167.302987 
L 278.055203 159.162311 
L 278.209183 159.162311 
L 278.21677 167.302987 
L 278.338843 175.443663 
L 279.223333 191.725015 
L 280.478693 191.725015 
L 280.785364 183.584339 
L 280.93383 183.584339 
L 281.019107 191.725015 
L 294.610801 191.725015 
L 294.848785 167.302987 
L 295.069938 191.725015 
L 295.205395 175.443663 
L 295.2387 183.584339 
L 295.326215 183.584339 
L 295.396074 175.443663 
L 295.593222 183.584339 
L 295.817458 167.302987 
L 295.917179 183.584339 
L 296.020953 175.443663 
L 296.278579 175.443663 
L 296.29638 167.302987 
L 296.385455 175.443663 
L 296.901533 175.443663 
L 297.040337 183.584339 
L 297.258692 183.584339 
L 297.415782 191.725015 
L 303.003935 191.725015 
L 303.095363 183.584339 
L 303.250703 183.584339 
L 303.338013 191.725015 
L 312.40778 191.725015 
L 312.40778 191.725015 
" clip-path="url(#p00ea619280)" style="fill: none; stroke: #000000; stroke-width: 1.5; stroke-linecap: square"/>
   </g>
   <g id="patch_8">
    <path d="M 43.78125 195.795353 
L 43.78125 106.247917 
" style="fill: none; stroke: #000000; stroke-width: 0.8; stroke-linejoin: miter; stroke-linecap: square"/>
   </g>
   <g id="patch_9">
    <path d="M 325.19952 195.795353 
L 325.19952 106.247917 
" style="fill: none; stroke: #000000; stroke-width: 0.8; stroke-linejoin: miter; stroke-linecap: square"/>
   </g>
   <g id="patch_10">
    <path d="M 43.78125 195.795353 
L 325.19952 195.795353 
" style="fill: none; stroke: #000000; stroke-width: 0.8; stroke-linejoin: miter; stroke-linecap: square"/>
   </g>
   <g id="patch_11">
    <path d="M 43.78125 106.247917 
L 325.19952 106.247917 
" style="fill: none; stroke: #000000; stroke-width: 0.8; stroke-linejoin: miter; stroke-linecap: square"/>
   </g>
  </g>
  <g id="axes_3">
   <g id="patch_12">
    <path d="M 43.78125 294.84327 
L 325.19952 294.84327 
L 325.19952 205.295833 
L 43.78125 205.295833 
z
" style="fill: #ffffff"/>
   </g>
   <g id="matplotlib.axis_5">
    <g id="xtick_19">
     <g id="line2d_27">
      <g>
       <use xlink:href="#m1435344e93" x="56.57299" y="294.84327" style="stroke: #000000; stroke-width: 0.8"/>
      </g>
     </g>
     <g id="text_9">
      <!-- 0 -->
      <g transform="translate(53.39174 309.441707) scale(0.1 -0.1)">
       <use xlink:href="#DejaVuSans-30"/>
      </g>
     </g>
    </g>
    <g id="xtick_20">
     <g id="line2d_28">
      <g>
       <use xlink:href="#m1435344e93" x="88.522703" y="294.84327" style="stroke: #000000; stroke-width: 0.8"/>
      </g>
     </g>
     <g id="text_10">
      <!-- 100 -->
      <g transform="translate(78.978953 309.441707) scale(0.1 -0.1)">
       <use xlink:href="#DejaVuSans-31"/>
       <use xlink:href="#DejaVuSans-30" transform="translate(63.623047 0)"/>
       <use xlink:href="#DejaVuSans-30" transform="translate(127.246094 0)"/>
      </g>
     </g>
    </g>
    <g id="xtick_21">
     <g id="line2d_29">
      <g>
       <use xlink:href="#m1435344e93" x="120.472416" y="294.84327" style="stroke: #000000; stroke-width: 0.8"/>
      </g>
     </g>
     <g id="text_11">
      <!-- 200 -->
      <g transform="translate(110.928666 309.441707) scale(0.1 -0.1)">
       <defs>
        <path id="DejaVuSans-32" d="M 1228 531 
L 3431 531 
L 3431 0 
L 469 0 
L 469 531 
Q 828 903 1448 1529 
Q 2069 2156 2228 2338 
Q 2531 2678 2651 2914 
Q 2772 3150 2772 3378 
Q 2772 3750 2511 3984 
Q 2250 4219 1831 4219 
Q 1534 4219 1204 4116 
Q 875 4013 500 3803 
L 500 4441 
Q 881 4594 1212 4672 
Q 1544 4750 1819 4750 
Q 2544 4750 2975 4387 
Q 3406 4025 3406 3419 
Q 3406 3131 3298 2873 
Q 3191 2616 2906 2266 
Q 2828 2175 2409 1742 
Q 1991 1309 1228 531 
z
" transform="scale(0.015625)"/>
       </defs>
       <use xlink:href="#DejaVuSans-32"/>
       <use xlink:href="#DejaVuSans-30" transform="translate(63.623047 0)"/>
       <use xlink:href="#DejaVuSans-30" transform="translate(127.246094 0)"/>
      </g>
     </g>
    </g>
    <g id="xtick_22">
     <g id="line2d_30">
      <g>
       <use xlink:href="#m1435344e93" x="152.422129" y="294.84327" style="stroke: #000000; stroke-width: 0.8"/>
      </g>
     </g>
     <g id="text_12">
      <!-- 300 -->
      <g transform="translate(142.878379 309.441707) scale(0.1 -0.1)">
       <defs>
        <path id="DejaVuSans-33" d="M 2597 2516 
Q 3050 2419 3304 2112 
Q 3559 1806 3559 1356 
Q 3559 666 3084 287 
Q 2609 -91 1734 -91 
Q 1441 -91 1130 -33 
Q 819 25 488 141 
L 488 750 
Q 750 597 1062 519 
Q 1375 441 1716 441 
Q 2309 441 2620 675 
Q 2931 909 2931 1356 
Q 2931 1769 2642 2001 
Q 2353 2234 1838 2234 
L 1294 2234 
L 1294 2753 
L 1863 2753 
Q 2328 2753 2575 2939 
Q 2822 3125 2822 3475 
Q 2822 3834 2567 4026 
Q 2313 4219 1838 4219 
Q 1578 4219 1281 4162 
Q 984 4106 628 3988 
L 628 4550 
Q 988 4650 1302 4700 
Q 1616 4750 1894 4750 
Q 2613 4750 3031 4423 
Q 3450 4097 3450 3541 
Q 3450 3153 3228 2886 
Q 3006 2619 2597 2516 
z
" transform="scale(0.015625)"/>
       </defs>
       <use xlink:href="#DejaVuSans-33"/>
       <use xlink:href="#DejaVuSans-30" transform="translate(63.623047 0)"/>
       <use xlink:href="#DejaVuSans-30" transform="translate(127.246094 0)"/>
      </g>
     </g>
    </g>
    <g id="xtick_23">
     <g id="line2d_31">
      <g>
       <use xlink:href="#m1435344e93" x="184.371842" y="294.84327" style="stroke: #000000; stroke-width: 0.8"/>
      </g>
     </g>
     <g id="text_13">
      <!-- 400 -->
      <g transform="translate(174.828092 309.441707) scale(0.1 -0.1)">
       <defs>
        <path id="DejaVuSans-34" d="M 2419 4116 
L 825 1625 
L 2419 1625 
L 2419 4116 
z
M 2253 4666 
L 3047 4666 
L 3047 1625 
L 3713 1625 
L 3713 1100 
L 3047 1100 
L 3047 0 
L 2419 0 
L 2419 1100 
L 313 1100 
L 313 1709 
L 2253 4666 
z
" transform="scale(0.015625)"/>
       </defs>
       <use xlink:href="#DejaVuSans-34"/>
       <use xlink:href="#DejaVuSans-30" transform="translate(63.623047 0)"/>
       <use xlink:href="#DejaVuSans-30" transform="translate(127.246094 0)"/>
      </g>
     </g>
    </g>
    <g id="xtick_24">
     <g id="line2d_32">
      <g>
       <use xlink:href="#m1435344e93" x="216.321555" y="294.84327" style="stroke: #000000; stroke-width: 0.8"/>
      </g>
     </g>
     <g id="text_14">
      <!-- 500 -->
      <g transform="translate(206.777805 309.441707) scale(0.1 -0.1)">
       <use xlink:href="#DejaVuSans-35"/>
       <use xlink:href="#DejaVuSans-30" transform="translate(63.623047 0)"/>
       <use xlink:href="#DejaVuSans-30" transform="translate(127.246094 0)"/>
      </g>
     </g>
    </g>
    <g id="xtick_25">
     <g id="line2d_33">
      <g>
       <use xlink:href="#m1435344e93" x="248.271268" y="294.84327" style="stroke: #000000; stroke-width: 0.8"/>
      </g>
     </g>
     <g id="text_15">
      <!-- 600 -->
      <g transform="translate(238.727518 309.441707) scale(0.1 -0.1)">
       <defs>
        <path id="DejaVuSans-36" d="M 2113 2584 
Q 1688 2584 1439 2293 
Q 1191 2003 1191 1497 
Q 1191 994 1439 701 
Q 1688 409 2113 409 
Q 2538 409 2786 701 
Q 3034 994 3034 1497 
Q 3034 2003 2786 2293 
Q 2538 2584 2113 2584 
z
M 3366 4563 
L 3366 3988 
Q 3128 4100 2886 4159 
Q 2644 4219 2406 4219 
Q 1781 4219 1451 3797 
Q 1122 3375 1075 2522 
Q 1259 2794 1537 2939 
Q 1816 3084 2150 3084 
Q 2853 3084 3261 2657 
Q 3669 2231 3669 1497 
Q 3669 778 3244 343 
Q 2819 -91 2113 -91 
Q 1303 -91 875 529 
Q 447 1150 447 2328 
Q 447 3434 972 4092 
Q 1497 4750 2381 4750 
Q 2619 4750 2861 4703 
Q 3103 4656 3366 4563 
z
" transform="scale(0.015625)"/>
       </defs>
       <use xlink:href="#DejaVuSans-36"/>
       <use xlink:href="#DejaVuSans-30" transform="translate(63.623047 0)"/>
       <use xlink:href="#DejaVuSans-30" transform="translate(127.246094 0)"/>
      </g>
     </g>
    </g>
    <g id="xtick_26">
     <g id="line2d_34">
      <g>
       <use xlink:href="#m1435344e93" x="280.220981" y="294.84327" style="stroke: #000000; stroke-width: 0.8"/>
      </g>
     </g>
     <g id="text_16">
      <!-- 700 -->
      <g transform="translate(270.677231 309.441707) scale(0.1 -0.1)">
       <defs>
        <path id="DejaVuSans-37" d="M 525 4666 
L 3525 4666 
L 3525 4397 
L 1831 0 
L 1172 0 
L 2766 4134 
L 525 4134 
L 525 4666 
z
" transform="scale(0.015625)"/>
       </defs>
       <use xlink:href="#DejaVuSans-37"/>
       <use xlink:href="#DejaVuSans-30" transform="translate(63.623047 0)"/>
       <use xlink:href="#DejaVuSans-30" transform="translate(127.246094 0)"/>
      </g>
     </g>
    </g>
    <g id="xtick_27">
     <g id="line2d_35">
      <g>
       <use xlink:href="#m1435344e93" x="312.170694" y="294.84327" style="stroke: #000000; stroke-width: 0.8"/>
      </g>
     </g>
     <g id="text_17">
      <!-- 800 -->
      <g transform="translate(302.626944 309.441707) scale(0.1 -0.1)">
       <defs>
        <path id="DejaVuSans-38" d="M 2034 2216 
Q 1584 2216 1326 1975 
Q 1069 1734 1069 1313 
Q 1069 891 1326 650 
Q 1584 409 2034 409 
Q 2484 409 2743 651 
Q 3003 894 3003 1313 
Q 3003 1734 2745 1975 
Q 2488 2216 2034 2216 
z
M 1403 2484 
Q 997 2584 770 2862 
Q 544 3141 544 3541 
Q 544 4100 942 4425 
Q 1341 4750 2034 4750 
Q 2731 4750 3128 4425 
Q 3525 4100 3525 3541 
Q 3525 3141 3298 2862 
Q 3072 2584 2669 2484 
Q 3125 2378 3379 2068 
Q 3634 1759 3634 1313 
Q 3634 634 3220 271 
Q 2806 -91 2034 -91 
Q 1263 -91 848 271 
Q 434 634 434 1313 
Q 434 1759 690 2068 
Q 947 2378 1403 2484 
z
M 1172 3481 
Q 1172 3119 1398 2916 
Q 1625 2713 2034 2713 
Q 2441 2713 2670 2916 
Q 2900 3119 2900 3481 
Q 2900 3844 2670 4047 
Q 2441 4250 2034 4250 
Q 1625 4250 1398 4047 
Q 1172 3844 1172 3481 
z
" transform="scale(0.015625)"/>
       </defs>
       <use xlink:href="#DejaVuSans-38"/>
       <use xlink:href="#DejaVuSans-30" transform="translate(63.623047 0)"/>
       <use xlink:href="#DejaVuSans-30" transform="translate(127.246094 0)"/>
      </g>
     </g>
    </g>
    <g id="text_18">
     <!-- Time -->
     <g transform="translate(172.256791 323.119832) scale(0.1 -0.1)">
      <defs>
       <path id="DejaVuSans-54" d="M -19 4666 
L 3928 4666 
L 3928 4134 
L 2272 4134 
L 2272 0 
L 1638 0 
L 1638 4134 
L -19 4134 
L -19 4666 
z
" transform="scale(0.015625)"/>
       <path id="DejaVuSans-69" d="M 603 3500 
L 1178 3500 
L 1178 0 
L 603 0 
L 603 3500 
z
M 603 4863 
L 1178 4863 
L 1178 4134 
L 603 4134 
L 603 4863 
z
" transform="scale(0.015625)"/>
       <path id="DejaVuSans-6d" d="M 3328 2828 
Q 3544 3216 3844 3400 
Q 4144 3584 4550 3584 
Q 5097 3584 5394 3201 
Q 5691 2819 5691 2113 
L 5691 0 
L 5113 0 
L 5113 2094 
Q 5113 2597 4934 2840 
Q 4756 3084 4391 3084 
Q 3944 3084 3684 2787 
Q 3425 2491 3425 1978 
L 3425 0 
L 2847 0 
L 2847 2094 
Q 2847 2600 2669 2842 
Q 2491 3084 2119 3084 
Q 1678 3084 1418 2786 
Q 1159 2488 1159 1978 
L 1159 0 
L 581 0 
L 581 3500 
L 1159 3500 
L 1159 2956 
Q 1356 3278 1631 3431 
Q 1906 3584 2284 3584 
Q 2666 3584 2933 3390 
Q 3200 3197 3328 2828 
z
" transform="scale(0.015625)"/>
      </defs>
      <use xlink:href="#DejaVuSans-54"/>
      <use xlink:href="#DejaVuSans-69" transform="translate(57.958984 0)"/>
      <use xlink:href="#DejaVuSans-6d" transform="translate(85.742188 0)"/>
      <use xlink:href="#DejaVuSans-65" transform="translate(183.154297 0)"/>
     </g>
    </g>
   </g>
   <g id="matplotlib.axis_6">
    <g id="ytick_7">
     <g id="line2d_36">
      <g>
       <use xlink:href="#m4d081147f2" x="43.78125" y="290.772932" style="stroke: #000000; stroke-width: 0.8"/>
      </g>
     </g>
     <g id="text_19">
      <!-- 0.0 -->
      <g transform="translate(20.878125 294.572151) scale(0.1 -0.1)">
       <defs>
        <path id="DejaVuSans-2e" d="M 684 794 
L 1344 794 
L 1344 0 
L 684 0 
L 684 794 
z
" transform="scale(0.015625)"/>
       </defs>
       <use xlink:href="#DejaVuSans-30"/>
       <use xlink:href="#DejaVuSans-2e" transform="translate(63.623047 0)"/>
       <use xlink:href="#DejaVuSans-30" transform="translate(95.410156 0)"/>
      </g>
     </g>
    </g>
    <g id="ytick_8">
     <g id="line2d_37">
      <g>
       <use xlink:href="#m4d081147f2" x="43.78125" y="250.069552" style="stroke: #000000; stroke-width: 0.8"/>
      </g>
     </g>
     <g id="text_20">
      <!-- 0.5 -->
      <g transform="translate(20.878125 253.86877) scale(0.1 -0.1)">
       <use xlink:href="#DejaVuSans-30"/>
       <use xlink:href="#DejaVuSans-2e" transform="translate(63.623047 0)"/>
       <use xlink:href="#DejaVuSans-35" transform="translate(95.410156 0)"/>
      </g>
     </g>
    </g>
    <g id="ytick_9">
     <g id="line2d_38">
      <g>
       <use xlink:href="#m4d081147f2" x="43.78125" y="209.366171" style="stroke: #000000; stroke-width: 0.8"/>
      </g>
     </g>
     <g id="text_21">
      <!-- 1.0 -->
      <g transform="translate(20.878125 213.16539) scale(0.1 -0.1)">
       <use xlink:href="#DejaVuSans-31"/>
       <use xlink:href="#DejaVuSans-2e" transform="translate(63.623047 0)"/>
       <use xlink:href="#DejaVuSans-30" transform="translate(95.410156 0)"/>
      </g>
     </g>
    </g>
    <g id="text_22">
     <!-- Free lac operon -->
     <g transform="translate(14.798438 288.540645) rotate(-90) scale(0.1 -0.1)">
      <defs>
       <path id="DejaVuSans-46" d="M 628 4666 
L 3309 4666 
L 3309 4134 
L 1259 4134 
L 1259 2759 
L 3109 2759 
L 3109 2228 
L 1259 2228 
L 1259 0 
L 628 0 
L 628 4666 
z
" transform="scale(0.015625)"/>
       <path id="DejaVuSans-70" d="M 1159 525 
L 1159 -1331 
L 581 -1331 
L 581 3500 
L 1159 3500 
L 1159 2969 
Q 1341 3281 1617 3432 
Q 1894 3584 2278 3584 
Q 2916 3584 3314 3078 
Q 3713 2572 3713 1747 
Q 3713 922 3314 415 
Q 2916 -91 2278 -91 
Q 1894 -91 1617 61 
Q 1341 213 1159 525 
z
M 3116 1747 
Q 3116 2381 2855 2742 
Q 2594 3103 2138 3103 
Q 1681 3103 1420 2742 
Q 1159 2381 1159 1747 
Q 1159 1113 1420 752 
Q 1681 391 2138 391 
Q 2594 391 2855 752 
Q 3116 1113 3116 1747 
z
" transform="scale(0.015625)"/>
       <path id="DejaVuSans-6e" d="M 3513 2113 
L 3513 0 
L 2938 0 
L 2938 2094 
Q 2938 2591 2744 2837 
Q 2550 3084 2163 3084 
Q 1697 3084 1428 2787 
Q 1159 2491 1159 1978 
L 1159 0 
L 581 0 
L 581 3500 
L 1159 3500 
L 1159 2956 
Q 1366 3272 1645 3428 
Q 1925 3584 2291 3584 
Q 2894 3584 3203 3211 
Q 3513 2838 3513 2113 
z
" transform="scale(0.015625)"/>
      </defs>
      <use xlink:href="#DejaVuSans-46"/>
      <use xlink:href="#DejaVuSans-72" transform="translate(50.269531 0)"/>
      <use xlink:href="#DejaVuSans-65" transform="translate(89.132812 0)"/>
      <use xlink:href="#DejaVuSans-65" transform="translate(150.65625 0)"/>
      <use xlink:href="#DejaVuSans-20" transform="translate(212.179688 0)"/>
      <use xlink:href="#DejaVuSans-6c" transform="translate(243.966797 0)"/>
      <use xlink:href="#DejaVuSans-61" transform="translate(271.75 0)"/>
      <use xlink:href="#DejaVuSans-63" transform="translate(333.029297 0)"/>
      <use xlink:href="#DejaVuSans-20" transform="translate(388.009766 0)"/>
      <use xlink:href="#DejaVuSans-6f" transform="translate(419.796875 0)"/>
      <use xlink:href="#DejaVuSans-70" transform="translate(480.978516 0)"/>
      <use xlink:href="#DejaVuSans-65" transform="translate(544.455078 0)"/>
      <use xlink:href="#DejaVuSans-72" transform="translate(605.978516 0)"/>
      <use xlink:href="#DejaVuSans-6f" transform="translate(644.841797 0)"/>
      <use xlink:href="#DejaVuSans-6e" transform="translate(706.023438 0)"/>
     </g>
    </g>
   </g>
   <g id="line2d_39">
    <path d="M 56.57299 209.366171 
L 56.654706 290.772932 
L 56.823409 290.772932 
L 56.993408 209.366171 
L 57.111867 209.366171 
L 57.214252 290.772932 
L 58.433536 290.772932 
L 59.425828 209.366171 
L 59.612631 209.366171 
L 59.635432 290.772932 
L 62.062868 290.772932 
L 64.663805 209.366171 
L 64.959431 209.366171 
L 65.097215 290.772932 
L 65.223399 290.772932 
L 71.902304 209.366171 
L 72.072513 290.772932 
L 79.93149 209.366171 
L 79.980648 290.772932 
L 82.613607 209.366171 
L 82.753943 209.366171 
L 82.808239 290.772932 
L 84.552874 290.772932 
L 84.618469 209.366171 
L 85.496924 209.366171 
L 85.68737 290.772932 
L 86.722761 290.772932 
L 89.722748 209.366171 
L 90.264086 209.366171 
L 90.293437 290.772932 
L 90.652228 290.772932 
L 91.535795 209.366171 
L 91.594385 290.772932 
L 91.939075 290.772932 
L 109.056024 209.366171 
L 109.06976 290.772932 
L 109.32886 290.772932 
L 109.605668 209.366171 
L 109.89373 290.772932 
L 110.022114 209.366171 
L 110.430867 209.366171 
L 110.635952 290.772932 
L 110.929313 290.772932 
L 115.101678 209.366171 
L 115.763923 290.772932 
L 117.409985 209.366171 
L 117.725989 290.772932 
L 118.400061 209.366171 
L 118.487599 290.772932 
L 119.499431 209.366171 
L 119.584549 290.772932 
L 123.537032 290.772932 
L 129.570616 209.366171 
L 129.676822 290.772932 
L 131.42336 209.366171 
L 131.875256 209.366171 
L 131.896749 290.772932 
L 133.741544 290.772932 
L 136.343539 209.366171 
L 136.356879 290.772932 
L 139.244989 209.366171 
L 139.287824 290.772932 
L 146.348361 209.366171 
L 147.294995 209.366171 
L 147.363475 290.772932 
L 147.981409 290.772932 
L 148.227041 209.366171 
L 148.54269 209.366171 
L 148.655712 290.772932 
L 149.728938 290.772932 
L 150.241618 209.366171 
L 150.342617 290.772932 
L 151.466452 290.772932 
L 151.4778 209.366171 
L 151.639732 290.772932 
L 155.958755 209.366171 
L 156.047906 290.772932 
L 156.297833 209.366171 
L 201.603778 209.366171 
L 201.786035 290.772932 
L 202.699 290.772932 
L 203.102785 209.366171 
L 207.822611 209.366171 
L 207.843296 290.772932 
L 209.660329 209.366171 
L 216.926507 209.366171 
L 216.97235 290.772932 
L 218.53721 290.772932 
L 220.214999 209.366171 
L 220.269755 290.772932 
L 223.415431 209.366171 
L 223.509504 290.772932 
L 224.138373 290.772932 
L 228.130312 209.366171 
L 228.343129 290.772932 
L 228.663038 209.366171 
L 228.727698 290.772932 
L 236.35867 209.366171 
L 236.895957 209.366171 
L 236.90191 290.772932 
L 237.416665 290.772932 
L 239.020623 209.366171 
L 239.57077 209.366171 
L 239.656165 290.772932 
L 240.678702 290.772932 
L 240.736864 209.366171 
L 240.74213 290.772932 
L 241.523082 290.772932 
L 245.977684 209.366171 
L 246.071281 209.366171 
L 246.110412 290.772932 
L 247.298869 290.772932 
L 263.98655 209.366171 
L 264.092186 209.366171 
L 264.099176 290.772932 
L 264.325764 209.366171 
L 264.68925 290.772932 
L 264.941796 290.772932 
L 270.915605 209.366171 
L 270.936691 290.772932 
L 277.471401 209.366171 
L 278.103043 209.366171 
L 278.21677 290.772932 
L 279.223333 290.772932 
L 280.478693 209.366171 
L 280.690434 209.366171 
L 280.785364 290.772932 
L 280.942383 209.366171 
L 281.019107 290.772932 
L 281.645411 209.366171 
L 281.965916 290.772932 
L 288.07752 209.366171 
L 288.319032 290.772932 
L 292.781069 209.366171 
L 292.8016 290.772932 
L 294.68398 209.366171 
L 296.540868 209.366171 
L 296.653876 290.772932 
L 297.415782 290.772932 
L 299.288242 209.366171 
L 299.325394 290.772932 
L 299.349366 209.366171 
L 299.662327 290.772932 
L 303.095363 209.366171 
L 303.338013 290.772932 
L 303.680105 209.366171 
L 303.70332 290.772932 
L 304.349061 290.772932 
L 306.386469 209.366171 
L 306.527051 290.772932 
L 309.219282 209.366171 
L 309.227632 290.772932 
L 312.40778 209.366171 
L 312.40778 209.366171 
" clip-path="url(#pebe70705f9)" style="fill: none; stroke: #000000; stroke-width: 1.5; stroke-linecap: square"/>
   </g>
   <g id="patch_13">
    <path d="M 43.78125 294.84327 
L 43.78125 205.295833 
" style="fill: none; stroke: #000000; stroke-width: 0.8; stroke-linejoin: miter; stroke-linecap: square"/>
   </g>
   <g id="patch_14">
    <path d="M 325.19952 294.84327 
L 325.19952 205.295833 
" style="fill: none; stroke: #000000; stroke-width: 0.8; stroke-linejoin: miter; stroke-linecap: square"/>
   </g>
   <g id="patch_15">
    <path d="M 43.78125 294.84327 
L 325.19952 294.84327 
" style="fill: none; stroke: #000000; stroke-width: 0.8; stroke-linejoin: miter; stroke-linecap: square"/>
   </g>
   <g id="patch_16">
    <path d="M 43.78125 205.295833 
L 325.19952 205.295833 
" style="fill: none; stroke: #000000; stroke-width: 0.8; stroke-linejoin: miter; stroke-linecap: square"/>
   </g>
  </g>
 </g>
 <defs>
  <clipPath id="p1ae2419891">
   <rect x="43.78125" y="7.2" width="281.41827" height="89.547437"/>
  </clipPath>
  <clipPath id="p00ea619280">
   <rect x="43.78125" y="106.247917" width="281.41827" height="89.547437"/>
  </clipPath>
  <clipPath id="pebe70705f9">
   <rect x="43.78125" y="205.295833" width="281.41827" height="89.547437"/>
  </clipPath>
 </defs>
</svg>
