<?xml version="1.0" encoding="utf-8" standalone="no"?>
<!DOCTYPE svg PUBLIC "-//W3C//DTD SVG 1.1//EN"
  "http://www.w3.org/Graphics/SVG/1.1/DTD/svg11.dtd">
<svg xmlns:xlink="http://www.w3.org/1999/xlink" width="332.39952pt" height="332.39952pt" viewBox="0 0 332.39952 332.39952" xmlns="http://www.w3.org/2000/svg" version="1.1">
 <metadata>
  <rdf:RDF xmlns:dc="http://purl.org/dc/elements/1.1/" xmlns:cc="http://creativecommons.org/ns#" xmlns:rdf="http://www.w3.org/1999/02/22-rdf-syntax-ns#">
   <cc:Work>
    <dc:type rdf:resource="http://purl.org/dc/dcmitype/StillImage"/>
    <dc:date>2026-06-18T15:32:42.386959</dc:date>
    <dc:format>image/svg+xml</dc:format>
    <dc:creator>
     <cc:Agent>
      <dc:title>Matplotlib v3.11.0, https://matplotlib.org/</dc:title>
     </cc:Agent>
    </dc:creator>
   </cc:Work>
  </rdf:RDF>
 </metadata>
 <defs>
  <style type="text/css">*{stroke-linejoin: round; stroke-linecap: butt}</style>
 </defs>
 <g id="figure_1">
  <g id="patch_1">
   <path d="M 0 332.39952 
L 332.39952 332.39952 
L 332.39952 0 
L 0 0 
z
" style="fill: #ffffff"/>
  </g>
  <g id="axes_1">
   <g id="patch_2">
    <path d="M 44.103906 96.532593 
L 325.19952 96.532593 
L 325.19952 7.2 
L 44.103906 7.2 
z
" style="fill: #ffffff"/>
   </g>
   <g id="matplotlib.axis_1">
    <g id="xtick_1">
     <g id="line2d_1">
      <defs>
       <path id="mbf2cd77c01" d="M 0 0 
L 0 3.5 
" style="stroke: #000000; stroke-width: 0.8"/>
      </defs>
      <g>
       <use xlink:href="#mbf2cd77c01" x="56.88098" y="96.532593" style="stroke: #000000; stroke-width: 0.8"/>
      </g>
     </g>
    </g>
    <g id="xtick_2">
     <g id="line2d_2">
      <g>
       <use xlink:href="#mbf2cd77c01" x="88.547842" y="96.532593" style="stroke: #000000; stroke-width: 0.8"/>
      </g>
     </g>
    </g>
    <g id="xtick_3">
     <g id="line2d_3">
      <g>
       <use xlink:href="#mbf2cd77c01" x="120.214704" y="96.532593" style="stroke: #000000; stroke-width: 0.8"/>
      </g>
     </g>
    </g>
    <g id="xtick_4">
     <g id="line2d_4">
      <g>
       <use xlink:href="#mbf2cd77c01" x="151.881566" y="96.532593" style="stroke: #000000; stroke-width: 0.8"/>
      </g>
     </g>
    </g>
    <g id="xtick_5">
     <g id="line2d_5">
      <g>
       <use xlink:href="#mbf2cd77c01" x="183.548429" y="96.532593" style="stroke: #000000; stroke-width: 0.8"/>
      </g>
     </g>
    </g>
    <g id="xtick_6">
     <g id="line2d_6">
      <g>
       <use xlink:href="#mbf2cd77c01" x="215.215291" y="96.532593" style="stroke: #000000; stroke-width: 0.8"/>
      </g>
     </g>
    </g>
    <g id="xtick_7">
     <g id="line2d_7">
      <g>
       <use xlink:href="#mbf2cd77c01" x="246.882153" y="96.532593" style="stroke: #000000; stroke-width: 0.8"/>
      </g>
     </g>
    </g>
    <g id="xtick_8">
     <g id="line2d_8">
      <g>
       <use xlink:href="#mbf2cd77c01" x="278.549016" y="96.532593" style="stroke: #000000; stroke-width: 0.8"/>
      </g>
     </g>
    </g>
    <g id="xtick_9">
     <g id="line2d_9">
      <g>
       <use xlink:href="#mbf2cd77c01" x="310.215878" y="96.532593" style="stroke: #000000; stroke-width: 0.8"/>
      </g>
     </g>
    </g>
   </g>
   <g id="matplotlib.axis_2">
    <g id="ytick_1">
     <g id="line2d_10">
      <defs>
       <path id="m1efd6c4fd4" d="M 0 0 
L -3.5 0 
" style="stroke: #000000; stroke-width: 0.8"/>
      </defs>
      <g>
       <use xlink:href="#m1efd6c4fd4" x="44.103906" y="92.472021" style="stroke: #000000; stroke-width: 0.8"/>
      </g>
     </g>
     <g id="text_1">
      <!-- 0 -->
      <g transform="translate(30.741406 96.270849) scale(0.1 -0.1)">
       <defs>
        <path id="DejaVuSans-13" d="M 2034 4250 
Q 1547 4250 1301 3770 
Q 1056 3291 1056 2328 
Q 1056 1369 1301 889 
Q 1547 409 2034 409 
Q 2525 409 2770 889 
Q 3016 1369 3016 2328 
Q 3016 3291 2770 3770 
Q 2525 4250 2034 4250 
z
M 2034 4750 
Q 2819 4750 3233 4129 
Q 3647 3509 3647 2328 
Q 3647 1150 3233 529 
Q 2819 -91 2034 -91 
Q 1250 -91 836 529 
Q 422 1150 422 2328 
Q 422 3509 836 4129 
Q 1250 4750 2034 4750 
z
" transform="scale(0.015625)"/>
       </defs>
       <use xlink:href="#DejaVuSans-13"/>
      </g>
     </g>
    </g>
    <g id="ytick_2">
     <g id="line2d_11">
      <g>
       <use xlink:href="#m1efd6c4fd4" x="44.103906" y="51.866296" style="stroke: #000000; stroke-width: 0.8"/>
      </g>
     </g>
     <g id="text_2">
      <!-- 5 -->
      <g transform="translate(30.741406 55.665125) scale(0.1 -0.1)">
       <defs>
        <path id="DejaVuSans-18" d="M 691 4666 
L 3169 4666 
L 3169 4134 
L 1269 4134 
L 1269 2991 
Q 1406 3038 1543 3061 
Q 1681 3084 1819 3084 
Q 2600 3084 3056 2656 
Q 3513 2228 3513 1497 
Q 3513 744 3044 326 
Q 2575 -91 1722 -91 
Q 1428 -91 1123 -41 
Q 819 9 494 109 
L 494 744 
Q 775 591 1075 516 
Q 1375 441 1709 441 
Q 2250 441 2565 725 
Q 2881 1009 2881 1497 
Q 2881 1984 2565 2268 
Q 2250 2553 1709 2553 
Q 1456 2553 1204 2497 
Q 953 2441 691 2322 
L 691 4666 
z
" transform="scale(0.015625)"/>
       </defs>
       <use xlink:href="#DejaVuSans-18"/>
      </g>
     </g>
    </g>
    <g id="ytick_3">
     <g id="line2d_12">
      <g>
       <use xlink:href="#m1efd6c4fd4" x="44.103906" y="11.260572" style="stroke: #000000; stroke-width: 0.8"/>
      </g>
     </g>
     <g id="text_3">
      <!-- 10 -->
      <g transform="translate(24.378906 15.059401) scale(0.1 -0.1)">
       <defs>
        <path id="DejaVuSans-14" d="M 794 531 
L 1825 531 
L 1825 4091 
L 703 3866 
L 703 4441 
L 1819 4666 
L 2450 4666 
L 2450 531 
L 3481 531 
L 3481 0 
L 794 0 
L 794 531 
z
" transform="scale(0.015625)"/>
       </defs>
       <use xlink:href="#DejaVuSans-14"/>
       <use xlink:href="#DejaVuSans-13" transform="translate(63.625 0)"/>
      </g>
     </g>
    </g>
    <g id="text_4">
     <!-- Extracellular lactose -->
     <g transform="translate(17.976563 102.838171) rotate(-90) scale(0.1 -0.1)">
      <defs>
       <path id="DejaVuSans-28" d="M 628 4666 
L 3578 4666 
L 3578 4134 
L 1259 4134 
L 1259 2753 
L 3481 2753 
L 3481 2222 
L 1259 2222 
L 1259 531 
L 3634 531 
L 3634 0 
L 628 0 
L 628 4666 
z
" transform="scale(0.015625)"/>
       <path id="DejaVuSans-5b" d="M 3513 3500 
L 2247 1797 
L 3578 0 
L 2900 0 
L 1881 1375 
L 863 0 
L 184 0 
L 1544 1831 
L 300 3500 
L 978 3500 
L 1906 2253 
L 2834 3500 
L 3513 3500 
z
" transform="scale(0.015625)"/>
       <path id="DejaVuSans-57" d="M 1172 4494 
L 1172 3500 
L 2356 3500 
L 2356 3053 
L 1172 3053 
L 1172 1153 
Q 1172 725 1289 603 
Q 1406 481 1766 481 
L 2356 481 
L 2356 0 
L 1766 0 
Q 1100 0 847 248 
Q 594 497 594 1153 
L 594 3053 
L 172 3053 
L 172 3500 
L 594 3500 
L 594 4494 
L 1172 4494 
z
" transform="scale(0.015625)"/>
       <path id="DejaVuSans-55" d="M 2631 2963 
Q 2534 3019 2420 3045 
Q 2306 3072 2169 3072 
Q 1681 3072 1420 2755 
Q 1159 2438 1159 1844 
L 1159 0 
L 581 0 
L 581 3500 
L 1159 3500 
L 1159 2956 
Q 1341 3275 1631 3429 
Q 1922 3584 2338 3584 
Q 2397 3584 2469 3576 
Q 2541 3569 2628 3553 
L 2631 2963 
z
" transform="scale(0.015625)"/>
       <path id="DejaVuSans-44" d="M 2194 1759 
Q 1497 1759 1228 1600 
Q 959 1441 959 1056 
Q 959 750 1161 570 
Q 1363 391 1709 391 
Q 2188 391 2477 730 
Q 2766 1069 2766 1631 
L 2766 1759 
L 2194 1759 
z
M 3341 1997 
L 3341 0 
L 2766 0 
L 2766 531 
Q 2569 213 2275 61 
Q 1981 -91 1556 -91 
Q 1019 -91 701 211 
Q 384 513 384 1019 
Q 384 1609 779 1909 
Q 1175 2209 1959 2209 
L 2766 2209 
L 2766 2266 
Q 2766 2663 2505 2880 
Q 2244 3097 1772 3097 
Q 1472 3097 1187 3025 
Q 903 2953 641 2809 
L 641 3341 
Q 956 3463 1253 3523 
Q 1550 3584 1831 3584 
Q 2591 3584 2966 3190 
Q 3341 2797 3341 1997 
z
" transform="scale(0.015625)"/>
       <path id="DejaVuSans-46" d="M 3122 3366 
L 3122 2828 
Q 2878 2963 2633 3030 
Q 2388 3097 2138 3097 
Q 1578 3097 1268 2742 
Q 959 2388 959 1747 
Q 959 1106 1268 751 
Q 1578 397 2138 397 
Q 2388 397 2633 464 
Q 2878 531 3122 666 
L 3122 134 
Q 2881 22 2623 -34 
Q 2366 -91 2075 -91 
Q 1284 -91 818 406 
Q 353 903 353 1747 
Q 353 2603 823 3093 
Q 1294 3584 2113 3584 
Q 2378 3584 2631 3529 
Q 2884 3475 3122 3366 
z
" transform="scale(0.015625)"/>
       <path id="DejaVuSans-48" d="M 3597 1894 
L 3597 1613 
L 953 1613 
Q 991 1019 1311 708 
Q 1631 397 2203 397 
Q 2534 397 2845 478 
Q 3156 559 3463 722 
L 3463 178 
Q 3153 47 2828 -22 
Q 2503 -91 2169 -91 
Q 1331 -91 842 396 
Q 353 884 353 1716 
Q 353 2575 817 3079 
Q 1281 3584 2069 3584 
Q 2775 3584 3186 3129 
Q 3597 2675 3597 1894 
z
M 3022 2063 
Q 3016 2534 2758 2815 
Q 2500 3097 2075 3097 
Q 1594 3097 1305 2825 
Q 1016 2553 972 2059 
L 3022 2063 
z
" transform="scale(0.015625)"/>
       <path id="DejaVuSans-4f" d="M 603 4863 
L 1178 4863 
L 1178 0 
L 603 0 
L 603 4863 
z
" transform="scale(0.015625)"/>
       <path id="DejaVuSans-58" d="M 544 1381 
L 544 3500 
L 1119 3500 
L 1119 1403 
Q 1119 906 1312 657 
Q 1506 409 1894 409 
Q 2359 409 2629 706 
Q 2900 1003 2900 1516 
L 2900 3500 
L 3475 3500 
L 3475 0 
L 2900 0 
L 2900 538 
Q 2691 219 2414 64 
Q 2138 -91 1772 -91 
Q 1169 -91 856 284 
Q 544 659 544 1381 
z
M 1991 3584 
L 1991 3584 
z
" transform="scale(0.015625)"/>
       <path id="DejaVuSans-3" transform="scale(0.015625)"/>
       <path id="DejaVuSans-52" d="M 1959 3097 
Q 1497 3097 1228 2736 
Q 959 2375 959 1747 
Q 959 1119 1226 758 
Q 1494 397 1959 397 
Q 2419 397 2687 759 
Q 2956 1122 2956 1747 
Q 2956 2369 2687 2733 
Q 2419 3097 1959 3097 
z
M 1959 3584 
Q 2709 3584 3137 3096 
Q 3566 2609 3566 1747 
Q 3566 888 3137 398 
Q 2709 -91 1959 -91 
Q 1206 -91 779 398 
Q 353 888 353 1747 
Q 353 2609 779 3096 
Q 1206 3584 1959 3584 
z
" transform="scale(0.015625)"/>
       <path id="DejaVuSans-56" d="M 2834 3397 
L 2834 2853 
Q 2591 2978 2328 3040 
Q 2066 3103 1784 3103 
Q 1356 3103 1142 2972 
Q 928 2841 928 2578 
Q 928 2378 1081 2264 
Q 1234 2150 1697 2047 
L 1894 2003 
Q 2506 1872 2764 1633 
Q 3022 1394 3022 966 
Q 3022 478 2636 193 
Q 2250 -91 1575 -91 
Q 1294 -91 989 -36 
Q 684 19 347 128 
L 347 722 
Q 666 556 975 473 
Q 1284 391 1588 391 
Q 1994 391 2212 530 
Q 2431 669 2431 922 
Q 2431 1156 2273 1281 
Q 2116 1406 1581 1522 
L 1381 1569 
Q 847 1681 609 1914 
Q 372 2147 372 2553 
Q 372 3047 722 3315 
Q 1072 3584 1716 3584 
Q 2034 3584 2315 3537 
Q 2597 3491 2834 3397 
z
" transform="scale(0.015625)"/>
      </defs>
      <use xlink:href="#DejaVuSans-28"/>
      <use xlink:href="#DejaVuSans-5b" transform="translate(63.1875 0)"/>
      <use xlink:href="#DejaVuSans-57" transform="translate(122.375 0)"/>
      <use xlink:href="#DejaVuSans-55" transform="translate(161.578125 0)"/>
      <use xlink:href="#DejaVuSans-44" transform="translate(202.6875 0)"/>
      <use xlink:href="#DejaVuSans-46" transform="translate(263.96875 0)"/>
      <use xlink:href="#DejaVuSans-48" transform="translate(318.953125 0)"/>
      <use xlink:href="#DejaVuSans-4f" transform="translate(380.484375 0)"/>
      <use xlink:href="#DejaVuSans-4f" transform="translate(408.265625 0)"/>
      <use xlink:href="#DejaVuSans-58" transform="translate(436.046875 0)"/>
      <use xlink:href="#DejaVuSans-4f" transform="translate(499.421875 0)"/>
      <use xlink:href="#DejaVuSans-44" transform="translate(527.203125 0)"/>
      <use xlink:href="#DejaVuSans-55" transform="translate(588.484375 0)"/>
      <use xlink:href="#DejaVuSans-3" transform="translate(629.59375 0)"/>
      <use xlink:href="#DejaVuSans-4f" transform="translate(661.375 0)"/>
      <use xlink:href="#DejaVuSans-44" transform="translate(689.15625 0)"/>
      <use xlink:href="#DejaVuSans-46" transform="translate(750.4375 0)"/>
      <use xlink:href="#DejaVuSans-57" transform="translate(805.421875 0)"/>
      <use xlink:href="#DejaVuSans-52" transform="translate(844.625 0)"/>
      <use xlink:href="#DejaVuSans-56" transform="translate(905.8125 0)"/>
      <use xlink:href="#DejaVuSans-48" transform="translate(957.90625 0)"/>
     </g>
    </g>
   </g>
   <g id="line2d_13">
    <path d="M 56.88098 92.472021 
L 155.386883 92.472021 
L 155.475244 11.260572 
L 156.137714 11.341784 
L 156.254429 11.66663 
L 156.298873 11.747841 
L 156.443859 13.209647 
L 156.561223 14.833876 
L 156.574937 14.915088 
L 156.720677 16.701739 
L 156.739315 16.782951 
L 157.098947 20.11262 
L 157.145046 20.193832 
L 157.978361 23.523501 
L 158.101386 24.173193 
L 158.129861 24.254404 
L 158.235897 24.985307 
L 158.289895 25.066519 
L 158.418989 25.228941 
L 158.460302 25.310153 
L 158.601816 26.28469 
L 158.914858 28.152554 
L 159.034334 29.04588 
L 159.535721 32.537972 
L 159.550548 32.619183 
L 159.661306 33.268875 
L 159.717921 33.756144 
L 159.842094 34.405835 
L 159.86344 34.487047 
L 159.97049 34.730681 
L 159.995325 34.811892 
L 160.426779 36.35491 
L 160.8488 36.436121 
L 161.049534 37.004601 
L 161.065899 37.085813 
L 161.299376 38.303985 
L 161.415215 38.710042 
L 161.620437 38.791253 
L 161.746685 39.278522 
L 161.818499 39.359733 
L 162.29632 40.983962 
L 162.433959 41.633654 
L 162.550657 41.714865 
L 162.682206 41.877288 
L 162.736149 41.9585 
L 162.937987 42.445768 
L 163.264441 43.176672 
L 163.492894 43.257883 
L 163.593126 43.745152 
L 163.853557 44.476055 
L 163.891075 44.557266 
L 164.955044 49.83601 
L 165.122739 51.054182 
L 165.428088 51.947508 
L 165.506294 52.028719 
L 166.143049 53.16568 
L 166.266417 53.246891 
L 166.425655 53.490525 
L 166.597456 53.571737 
L 166.757478 54.140217 
L 166.954827 54.627486 
L 167.034035 54.708697 
L 167.275797 55.277177 
L 167.472772 55.358389 
L 167.631141 55.845657 
L 167.682664 55.926869 
L 167.818393 56.332926 
L 167.896973 56.657772 
L 168.494669 59.256538 
L 168.916038 60.555921 
L 169.072189 60.961979 
L 169.461786 61.04319 
L 169.571186 61.205613 
L 169.732776 61.530459 
L 170.007207 61.61167 
L 170.17822 61.855305 
L 170.400648 62.18015 
L 170.709207 62.261362 
L 170.892399 62.504996 
L 171.145485 62.586208 
L 171.38495 62.829842 
L 171.447274 62.911053 
L 171.616982 63.073476 
L 171.987828 63.154688 
L 172.773719 63.235899 
L 172.958302 63.966802 
L 173.24388 64.616494 
L 173.284537 64.697705 
L 173.398036 65.266185 
L 173.530856 66.240723 
L 173.54435 66.321934 
L 173.712491 67.21526 
L 173.736752 67.296472 
L 173.987228 68.677066 
L 174.019815 68.758278 
L 174.148253 69.245546 
L 174.670484 71.68189 
L 174.805999 72.412793 
L 174.951599 73.224907 
L 175.066624 73.630965 
L 175.111251 73.712176 
L 175.225317 74.52429 
L 175.265867 74.605502 
L 175.403684 74.767925 
L 175.483959 74.849136 
L 175.562828 74.930348 
L 175.734832 75.173982 
L 175.831229 75.336405 
L 175.937172 75.417616 
L 176.429224 76.310942 
L 176.687902 76.392154 
L 176.793479 76.473365 
L 176.901114 76.554577 
L 176.969226 76.635788 
L 177.089295 76.717 
L 177.929208 76.798211 
L 178.043593 76.960634 
L 178.234674 77.041845 
L 178.363184 77.204268 
L 179.562472 77.28548 
L 179.844014 77.85396 
L 180.026354 78.260017 
L 180.102382 78.341229 
L 180.284778 78.42244 
L 180.483501 78.99092 
L 180.556945 79.072132 
L 180.689031 79.234554 
L 180.733606 79.315766 
L 181.16777 79.884246 
L 181.285413 80.452726 
L 181.444319 80.533938 
L 181.56871 80.696361 
L 182.104368 80.777572 
L 182.226189 80.858783 
L 183.607076 80.939995 
L 183.71307 81.102418 
L 183.898467 81.183629 
L 184.746404 81.752109 
L 184.839847 81.914532 
L 184.984107 81.995744 
L 185.076971 82.401801 
L 185.360649 82.807858 
L 185.556697 82.88907 
L 185.772505 83.376338 
L 186.015924 83.45755 
L 186.152747 83.619973 
L 186.773941 83.701184 
L 187.297274 84.107241 
L 187.401861 84.350876 
L 187.469957 84.432087 
L 187.63102 84.675721 
L 187.887371 84.756933 
L 188.229735 85.081779 
L 188.493045 85.16299 
L 188.682282 85.325413 
L 189.218688 85.406625 
L 189.335055 85.487836 
L 189.465226 85.569047 
L 189.782361 85.650259 
L 189.946791 85.812682 
L 190.285971 85.893893 
L 190.330528 85.975105 
L 190.749427 86.056316 
L 191.016003 86.218739 
L 191.674102 86.29995 
L 191.822684 86.381162 
L 192.833739 86.462373 
L 193.263731 86.868431 
L 193.654894 86.949642 
L 193.767386 87.193276 
L 193.961968 87.274488 
L 194.106375 87.355699 
L 194.461541 87.436911 
L 194.599513 87.599334 
L 194.803876 87.680545 
L 194.912029 87.761757 
L 195.30111 88.005391 
L 195.504477 88.167814 
L 195.86243 88.249025 
L 196.112648 88.330237 
L 196.870758 88.411448 
L 196.93381 88.573871 
L 197.556305 88.655082 
L 197.705005 88.817505 
L 197.772554 88.898717 
L 197.979556 88.979928 
L 198.107462 89.223563 
L 198.536513 89.304774 
L 198.60665 89.385985 
L 199.438684 89.467197 
L 199.533355 89.548408 
L 199.888 89.62962 
L 200.048814 89.710831 
L 200.777879 89.792043 
L 200.799952 89.873254 
L 236.225618 89.954466 
L 238.596501 90.1981 
L 252.615054 90.279311 
L 252.646288 90.360523 
L 264.078684 90.441734 
L 264.666526 90.522946 
L 271.361168 90.685369 
L 300.207801 90.76658 
L 301.141666 90.847792 
L 312.422447 90.847792 
L 312.422447 90.847792 
" clip-path="url(#p3db0756d98)" style="fill: none; stroke: #000000; stroke-width: 1.5; stroke-linecap: square"/>
   </g>
   <g id="patch_3">
    <path d="M 44.103906 96.532593 
L 44.103906 7.2 
" style="fill: none; stroke: #000000; stroke-width: 0.8; stroke-linejoin: miter; stroke-linecap: square"/>
   </g>
   <g id="patch_4">
    <path d="M 325.19952 96.532593 
L 325.19952 7.2 
" style="fill: none; stroke: #000000; stroke-width: 0.8; stroke-linejoin: miter; stroke-linecap: square"/>
   </g>
   <g id="patch_5">
    <path d="M 44.103906 96.532593 
L 325.19952 96.532593 
" style="fill: none; stroke: #000000; stroke-width: 0.8; stroke-linejoin: miter; stroke-linecap: square"/>
   </g>
   <g id="patch_6">
    <path d="M 44.103906 7.2 
L 325.19952 7.2 
" style="fill: none; stroke: #000000; stroke-width: 0.8; stroke-linejoin: miter; stroke-linecap: square"/>
   </g>
  </g>
  <g id="axes_2">
   <g id="patch_7">
    <path d="M 44.103906 195.365666 
L 325.19952 195.365666 
L 325.19952 106.033073 
L 44.103906 106.033073 
z
" style="fill: #ffffff"/>
   </g>
   <g id="matplotlib.axis_3">
    <g id="xtick_10">
     <g id="line2d_14">
      <g>
       <use xlink:href="#mbf2cd77c01" x="56.88098" y="195.365666" style="stroke: #000000; stroke-width: 0.8"/>
      </g>
     </g>
    </g>
    <g id="xtick_11">
     <g id="line2d_15">
      <g>
       <use xlink:href="#mbf2cd77c01" x="88.547842" y="195.365666" style="stroke: #000000; stroke-width: 0.8"/>
      </g>
     </g>
    </g>
    <g id="xtick_12">
     <g id="line2d_16">
      <g>
       <use xlink:href="#mbf2cd77c01" x="120.214704" y="195.365666" style="stroke: #000000; stroke-width: 0.8"/>
      </g>
     </g>
    </g>
    <g id="xtick_13">
     <g id="line2d_17">
      <g>
       <use xlink:href="#mbf2cd77c01" x="151.881566" y="195.365666" style="stroke: #000000; stroke-width: 0.8"/>
      </g>
     </g>
    </g>
    <g id="xtick_14">
     <g id="line2d_18">
      <g>
       <use xlink:href="#mbf2cd77c01" x="183.548429" y="195.365666" style="stroke: #000000; stroke-width: 0.8"/>
      </g>
     </g>
    </g>
    <g id="xtick_15">
     <g id="line2d_19">
      <g>
       <use xlink:href="#mbf2cd77c01" x="215.215291" y="195.365666" style="stroke: #000000; stroke-width: 0.8"/>
      </g>
     </g>
    </g>
    <g id="xtick_16">
     <g id="line2d_20">
      <g>
       <use xlink:href="#mbf2cd77c01" x="246.882153" y="195.365666" style="stroke: #000000; stroke-width: 0.8"/>
      </g>
     </g>
    </g>
    <g id="xtick_17">
     <g id="line2d_21">
      <g>
       <use xlink:href="#mbf2cd77c01" x="278.549016" y="195.365666" style="stroke: #000000; stroke-width: 0.8"/>
      </g>
     </g>
    </g>
    <g id="xtick_18">
     <g id="line2d_22">
      <g>
       <use xlink:href="#mbf2cd77c01" x="310.215878" y="195.365666" style="stroke: #000000; stroke-width: 0.8"/>
      </g>
     </g>
    </g>
   </g>
   <g id="matplotlib.axis_4">
    <g id="ytick_4">
     <g id="line2d_23">
      <g>
       <use xlink:href="#m1efd6c4fd4" x="44.103906" y="191.305093" style="stroke: #000000; stroke-width: 0.8"/>
      </g>
     </g>
     <g id="text_5">
      <!-- 0 -->
      <g transform="translate(30.741406 195.103922) scale(0.1 -0.1)">
       <use xlink:href="#DejaVuSans-13"/>
      </g>
     </g>
    </g>
    <g id="ytick_5">
     <g id="line2d_24">
      <g>
       <use xlink:href="#m1efd6c4fd4" x="44.103906" y="150.699369" style="stroke: #000000; stroke-width: 0.8"/>
      </g>
     </g>
     <g id="text_6">
      <!-- 5 -->
      <g transform="translate(30.741406 154.498197) scale(0.1 -0.1)">
       <use xlink:href="#DejaVuSans-18"/>
      </g>
     </g>
    </g>
    <g id="ytick_6">
     <g id="line2d_25">
      <g>
       <use xlink:href="#m1efd6c4fd4" x="44.103906" y="110.093645" style="stroke: #000000; stroke-width: 0.8"/>
      </g>
     </g>
     <g id="text_7">
      <!-- 10 -->
      <g transform="translate(24.378906 113.892473) scale(0.1 -0.1)">
       <use xlink:href="#DejaVuSans-14"/>
       <use xlink:href="#DejaVuSans-13" transform="translate(63.625 0)"/>
      </g>
     </g>
    </g>
    <g id="text_8">
     <!-- LacY -->
     <g transform="translate(17.976563 162.352494) rotate(-90) scale(0.1 -0.1)">
      <defs>
       <path id="DejaVuSans-2f" d="M 628 4666 
L 1259 4666 
L 1259 531 
L 3531 531 
L 3531 0 
L 628 0 
L 628 4666 
z
" transform="scale(0.015625)"/>
       <path id="DejaVuSans-3c" d="M -13 4666 
L 666 4666 
L 1959 2747 
L 3244 4666 
L 3922 4666 
L 2272 2222 
L 2272 0 
L 1638 0 
L 1638 2222 
L -13 4666 
z
" transform="scale(0.015625)"/>
      </defs>
      <use xlink:href="#DejaVuSans-2f"/>
      <use xlink:href="#DejaVuSans-44" transform="translate(55.71875 0)"/>
      <use xlink:href="#DejaVuSans-46" transform="translate(117 0)"/>
      <use xlink:href="#DejaVuSans-3c" transform="translate(171.984375 0)"/>
     </g>
    </g>
   </g>
   <g id="line2d_26">
    <path d="M 56.88098 110.093645 
L 56.907898 110.093645 
L 56.961972 118.21479 
L 57.069305 134.45708 
L 57.129182 142.578225 
L 57.280116 142.578225 
L 57.297676 134.45708 
L 57.516565 142.578225 
L 57.657336 142.578225 
L 57.826672 158.820514 
L 58.125253 175.062804 
L 58.190366 191.305093 
L 59.708562 191.305093 
L 59.873898 183.183949 
L 59.916311 191.305093 
L 64.900167 191.305093 
L 65.220634 183.183949 
L 65.32974 191.305093 
L 82.691059 191.305093 
L 82.883968 183.183949 
L 84.663461 191.305093 
L 84.678172 183.183949 
L 84.820275 175.062804 
L 84.824894 166.941659 
L 85.144572 175.062804 
L 85.369787 175.062804 
L 85.488498 191.305093 
L 85.54885 183.183949 
L 85.737611 183.183949 
L 85.875029 191.305093 
L 89.737264 191.305093 
L 90.124059 175.062804 
L 90.12535 166.941659 
L 90.620144 166.941659 
L 90.658515 183.183949 
L 91.424709 183.183949 
L 91.592331 175.062804 
L 91.933969 191.305093 
L 108.808113 191.305093 
L 108.912996 183.183949 
L 109.031781 183.183949 
L 109.169803 191.305093 
L 109.402995 191.305093 
L 109.44416 183.183949 
L 109.856919 183.183949 
L 110.204154 175.062804 
L 110.262053 183.183949 
L 110.435972 183.183949 
L 110.465323 191.305093 
L 119.157641 191.305093 
L 119.334697 183.183949 
L 121.418865 183.183949 
L 123.25219 191.305093 
L 130.960744 191.305093 
L 131.145585 183.183949 
L 131.430946 183.183949 
L 131.537897 191.305093 
L 135.840533 191.305093 
L 135.923622 183.183949 
L 135.945321 191.305093 
L 145.861569 191.305093 
L 146.12042 175.062804 
L 146.141092 183.183949 
L 146.169878 175.062804 
L 146.282125 166.941659 
L 146.287424 175.062804 
L 146.867697 175.062804 
L 147.48016 183.183949 
L 147.723618 183.183949 
L 148.036472 175.062804 
L 148.148494 175.062804 
L 149.212218 191.305093 
L 149.668875 191.305093 
L 149.72036 175.062804 
L 149.820465 175.062804 
L 149.97213 183.183949 
L 150.104828 183.183949 
L 150.643589 191.305093 
L 155.722959 191.305093 
L 156.147973 183.183949 
L 156.386431 150.699369 
L 156.66267 150.699369 
L 156.783075 166.941659 
L 156.8089 166.941659 
L 156.919546 158.820514 
L 157.038468 158.820514 
L 157.145046 175.062804 
L 157.362795 175.062804 
L 157.476459 183.183949 
L 157.60814 166.941659 
L 157.658527 166.941659 
L 157.696179 158.820514 
L 157.756998 166.941659 
L 157.930493 166.941659 
L 158.034541 175.062804 
L 158.271064 175.062804 
L 158.375203 191.305093 
L 158.418989 191.305093 
L 158.560243 175.062804 
L 158.720602 175.062804 
L 158.829615 166.941659 
L 158.845727 166.941659 
L 158.97449 158.820514 
L 159.092359 158.820514 
L 159.203506 150.699369 
L 159.334221 150.699369 
L 159.441696 158.820514 
L 159.545614 150.699369 
L 159.55152 158.820514 
L 159.629519 158.820514 
L 159.73694 166.941659 
L 159.951693 166.941659 
L 160.054161 175.062804 
L 160.401721 175.062804 
L 160.548945 191.305093 
L 160.741416 191.305093 
L 160.864632 183.183949 
L 160.989661 183.183949 
L 161.13165 166.941659 
L 161.322471 166.941659 
L 161.437847 183.183949 
L 161.517886 183.183949 
L 161.694125 166.941659 
L 161.716274 175.062804 
L 161.729862 175.062804 
L 161.789796 183.183949 
L 161.818499 175.062804 
L 162.022373 175.062804 
L 162.066382 183.183949 
L 162.126302 175.062804 
L 162.300576 175.062804 
L 162.337901 183.183949 
L 162.348709 166.941659 
L 162.385672 166.941659 
L 162.410583 166.941659 
L 162.524801 175.062804 
L 162.69284 175.062804 
L 162.805927 183.183949 
L 162.85707 183.183949 
L 162.907559 175.062804 
L 162.963581 183.183949 
L 163.486484 183.183949 
L 163.593126 175.062804 
L 163.798253 175.062804 
L 163.90906 166.941659 
L 164.060753 166.941659 
L 164.153118 158.820514 
L 164.166328 166.941659 
L 164.250373 166.941659 
L 164.328282 175.062804 
L 164.361063 166.941659 
L 164.399789 166.941659 
L 164.452127 175.062804 
L 164.507315 166.941659 
L 164.535923 166.941659 
L 164.61341 175.062804 
L 164.642507 166.941659 
L 164.74842 166.941659 
L 164.855137 158.820514 
L 164.901999 158.820514 
L 165.018751 150.699369 
L 165.19987 150.699369 
L 165.317195 166.941659 
L 165.389113 166.941659 
L 165.496313 175.062804 
L 165.553872 175.062804 
L 165.643007 183.183949 
L 166.404751 183.183949 
L 166.453382 191.305093 
L 166.512704 183.183949 
L 166.546782 183.183949 
L 166.656562 175.062804 
L 167.912564 175.062804 
L 168.018511 166.941659 
L 168.57952 166.941659 
L 168.696855 175.062804 
L 168.828155 175.062804 
L 168.932214 166.941659 
L 168.991654 166.941659 
L 169.084768 175.062804 
L 169.140171 175.062804 
L 169.281963 183.183949 
L 169.482476 183.183949 
L 169.616331 175.062804 
L 169.709884 175.062804 
L 169.83268 183.183949 
L 170.216958 183.183949 
L 170.311911 191.305093 
L 170.400648 183.183949 
L 171.870496 183.183949 
L 171.987828 191.305093 
L 172.400995 191.305093 
L 172.500322 183.183949 
L 172.747603 183.183949 
L 172.895249 166.941659 
L 173.206089 166.941659 
L 173.387789 150.699369 
L 173.400355 150.699369 
L 173.517528 134.45708 
L 173.558916 134.45708 
L 173.654391 142.578225 
L 173.666429 134.45708 
L 173.709538 134.45708 
L 173.817262 126.335935 
L 173.84363 126.335935 
L 173.885711 118.21479 
L 173.893078 134.45708 
L 173.950349 134.45708 
L 174.019259 134.45708 
L 174.125304 150.699369 
L 174.274335 150.699369 
L 174.382379 158.820514 
L 174.434979 158.820514 
L 174.548035 150.699369 
L 174.674051 134.45708 
L 174.797807 142.578225 
L 174.972082 142.578225 
L 175.088053 150.699369 
L 175.2436 150.699369 
L 175.346084 175.062804 
L 175.416284 175.062804 
L 175.495176 158.820514 
L 175.525413 166.941659 
L 175.721628 166.941659 
L 175.831229 175.062804 
L 176.285279 175.062804 
L 176.373104 191.305093 
L 176.376567 183.183949 
L 176.639267 183.183949 
L 176.742373 175.062804 
L 176.75918 183.183949 
L 176.793479 166.941659 
L 176.814185 166.941659 
L 176.901114 158.820514 
L 177.018471 175.062804 
L 177.089295 175.062804 
L 177.169008 183.183949 
L 177.307748 183.183949 
L 177.405067 191.305093 
L 177.855064 191.305093 
L 177.976309 175.062804 
L 178.086966 166.941659 
L 178.152108 166.941659 
L 178.256114 175.062804 
L 178.308908 175.062804 
L 178.427206 191.305093 
L 178.957883 191.305093 
L 179.066472 183.183949 
L 179.177489 191.305093 
L 179.457682 175.062804 
L 179.503575 183.183949 
L 179.562472 175.062804 
L 179.924776 175.062804 
L 180.074886 158.820514 
L 180.156487 158.820514 
L 180.270574 150.699369 
L 180.373791 150.699369 
L 180.483501 142.578225 
L 180.50598 142.578225 
L 180.603771 150.699369 
L 180.651803 150.699369 
L 180.733606 166.941659 
L 180.949898 166.941659 
L 181.037445 175.062804 
L 181.193617 158.820514 
L 181.325044 158.820514 
L 181.453564 150.699369 
L 181.56871 183.183949 
L 181.728258 183.183949 
L 181.853533 175.062804 
L 181.97896 175.062804 
L 182.104368 183.183949 
L 182.160033 183.183949 
L 182.226189 191.305093 
L 183.316276 191.305093 
L 183.451195 175.062804 
L 184.10309 175.062804 
L 184.217927 158.820514 
L 184.50143 158.820514 
L 184.503733 166.941659 
L 184.59267 158.820514 
L 184.674193 158.820514 
L 184.808077 166.941659 
L 184.932498 158.820514 
L 185.206998 158.820514 
L 185.340991 150.699369 
L 185.451204 150.699369 
L 185.585216 158.820514 
L 185.589841 150.699369 
L 185.689316 158.820514 
L 185.744654 158.820514 
L 185.816585 166.941659 
L 185.823072 158.820514 
L 185.917527 158.820514 
L 186.030107 166.941659 
L 186.243425 166.941659 
L 186.350652 175.062804 
L 186.455931 175.062804 
L 186.488011 166.941659 
L 186.555338 175.062804 
L 186.623548 175.062804 
L 186.773941 166.941659 
L 186.925605 166.941659 
L 186.985803 158.820514 
L 187.035746 166.941659 
L 187.084229 166.941659 
L 187.151498 150.699369 
L 187.296129 150.699369 
L 187.401861 158.820514 
L 187.734092 158.820514 
L 187.801569 175.062804 
L 187.850045 166.941659 
L 187.86488 166.941659 
L 187.944932 158.820514 
L 187.966821 166.941659 
L 188.020786 166.941659 
L 188.180372 175.062804 
L 188.367097 175.062804 
L 188.48565 158.820514 
L 188.53011 166.941659 
L 188.629213 175.062804 
L 188.658071 175.062804 
L 188.682282 166.941659 
L 188.739496 183.183949 
L 188.921688 175.062804 
L 188.937539 183.183949 
L 188.995811 175.062804 
L 189.172857 158.820514 
L 189.295981 183.183949 
L 189.409994 183.183949 
L 189.465226 175.062804 
L 189.632309 175.062804 
L 189.69071 183.183949 
L 189.742402 175.062804 
L 189.899762 175.062804 
L 189.946791 166.941659 
L 189.947238 175.062804 
L 190.081868 175.062804 
L 190.091853 166.941659 
L 190.192345 175.062804 
L 190.509353 175.062804 
L 190.607619 183.183949 
L 191.016003 183.183949 
L 191.297578 175.062804 
L 191.651957 175.062804 
L 191.747279 166.941659 
L 191.752493 175.062804 
L 191.988387 175.062804 
L 192.037914 183.183949 
L 192.205791 183.183949 
L 192.330955 191.305093 
L 192.367579 191.305093 
L 192.702749 166.941659 
L 192.797645 175.062804 
L 192.803439 166.941659 
L 192.906178 166.941659 
L 192.968755 158.820514 
L 193.169674 175.062804 
L 193.263731 166.941659 
L 193.412094 166.941659 
L 193.545823 183.183949 
L 193.728396 158.820514 
L 194.054989 158.820514 
L 194.106375 150.699369 
L 194.252248 158.820514 
L 194.263576 166.941659 
L 194.485936 158.820514 
L 194.582834 158.820514 
L 194.693315 175.062804 
L 194.852962 150.699369 
L 194.912029 158.820514 
L 195.152891 158.820514 
L 195.176936 166.941659 
L 195.252442 158.820514 
L 195.413481 158.820514 
L 195.504477 166.941659 
L 195.603427 175.062804 
L 195.669214 166.941659 
L 195.818236 175.062804 
L 195.86243 166.941659 
L 195.976937 166.941659 
L 196.112648 183.183949 
L 196.297141 183.183949 
L 196.416987 175.062804 
L 196.529018 191.305093 
L 196.558331 183.183949 
L 196.93381 183.183949 
L 197.004726 191.305093 
L 197.017005 183.183949 
L 197.18334 183.183949 
L 197.197601 166.941659 
L 197.484154 166.941659 
L 197.556305 158.820514 
L 197.71163 158.820514 
L 197.772554 142.578225 
L 197.885911 142.578225 
L 197.963832 134.45708 
L 197.994052 142.578225 
L 198.197611 142.578225 
L 198.303558 166.941659 
L 198.35715 166.941659 
L 198.52911 183.183949 
L 198.762258 183.183949 
L 198.786395 175.062804 
L 198.902415 183.183949 
L 199.200342 183.183949 
L 199.940649 150.699369 
L 200.006495 150.699369 
L 200.048814 142.578225 
L 200.083847 150.699369 
L 200.237223 150.699369 
L 200.366453 175.062804 
L 200.395522 175.062804 
L 200.553771 158.820514 
L 200.579605 166.941659 
L 200.675756 166.941659 
L 200.799952 175.062804 
L 201.023136 175.062804 
L 201.08132 166.941659 
L 201.248399 175.062804 
L 201.321646 175.062804 
L 201.431911 166.941659 
L 201.433 175.062804 
L 201.588368 183.183949 
L 201.989807 183.183949 
L 202.074569 191.305093 
L 203.268206 191.305093 
L 203.451466 183.183949 
L 203.720111 191.305093 
L 204.61253 191.305093 
L 204.785492 175.062804 
L 204.888065 183.183949 
L 205.200737 183.183949 
L 205.231243 191.305093 
L 215.09898 191.305093 
L 215.567503 183.183949 
L 215.865322 183.183949 
L 216.122156 191.305093 
L 225.588152 191.305093 
L 225.660097 183.183949 
L 226.029195 191.305093 
L 234.469812 191.305093 
L 234.659249 175.062804 
L 234.821853 175.062804 
L 234.971939 166.941659 
L 235.590562 183.183949 
L 238.300557 183.183949 
L 238.596501 191.305093 
L 240.696577 191.305093 
L 241.088555 183.183949 
L 241.358869 191.305093 
L 251.356863 191.305093 
L 251.441202 183.183949 
L 251.563204 183.183949 
L 251.758688 191.305093 
L 251.94852 183.183949 
L 251.990386 175.062804 
L 252.166574 183.183949 
L 252.646288 183.183949 
L 252.769964 191.305093 
L 261.535137 191.305093 
L 261.582958 183.183949 
L 261.753252 191.305093 
L 261.798214 183.183949 
L 262.079526 183.183949 
L 262.108695 191.305093 
L 262.610585 183.183949 
L 263.674762 183.183949 
L 263.727587 191.305093 
L 263.747351 183.183949 
L 263.803008 183.183949 
L 263.872629 175.062804 
L 263.903213 183.183949 
L 267.135544 183.183949 
L 267.506857 191.305093 
L 269.51787 191.305093 
L 269.70486 183.183949 
L 269.827736 191.305093 
L 280.234771 191.305093 
L 280.383733 183.183949 
L 280.615641 191.305093 
L 295.851464 191.305093 
L 296.17656 183.183949 
L 296.312042 183.183949 
L 296.350761 191.305093 
L 296.531157 183.183949 
L 297.066146 183.183949 
L 297.236687 175.062804 
L 297.317608 183.183949 
L 297.623775 183.183949 
L 297.79613 191.305093 
L 299.898733 191.305093 
L 300.207801 183.183949 
L 300.792891 183.183949 
L 301.141666 191.305093 
L 312.422447 191.305093 
L 312.422447 191.305093 
" clip-path="url(#p1625cf7c70)" style="fill: none; stroke: #000000; stroke-width: 1.5; stroke-linecap: square"/>
   </g>
   <g id="patch_8">
    <path d="M 44.103906 195.365666 
L 44.103906 106.033073 
" style="fill: none; stroke: #000000; stroke-width: 0.8; stroke-linejoin: miter; stroke-linecap: square"/>
   </g>
   <g id="patch_9">
    <path d="M 325.19952 195.365666 
L 325.19952 106.033073 
" style="fill: none; stroke: #000000; stroke-width: 0.8; stroke-linejoin: miter; stroke-linecap: square"/>
   </g>
   <g id="patch_10">
    <path d="M 44.103906 195.365666 
L 325.19952 195.365666 
" style="fill: none; stroke: #000000; stroke-width: 0.8; stroke-linejoin: miter; stroke-linecap: square"/>
   </g>
   <g id="patch_11">
    <path d="M 44.103906 106.033073 
L 325.19952 106.033073 
" style="fill: none; stroke: #000000; stroke-width: 0.8; stroke-linejoin: miter; stroke-linecap: square"/>
   </g>
  </g>
  <g id="axes_3">
   <g id="patch_12">
    <path d="M 44.103906 294.198739 
L 325.19952 294.198739 
L 325.19952 204.866146 
L 44.103906 204.866146 
z
" style="fill: #ffffff"/>
   </g>
   <g id="matplotlib.axis_5">
    <g id="xtick_19">
     <g id="line2d_27">
      <g>
       <use xlink:href="#mbf2cd77c01" x="56.88098" y="294.198739" style="stroke: #000000; stroke-width: 0.8"/>
      </g>
     </g>
     <g id="text_9">
      <!-- 0 -->
      <g transform="translate(53.69973 308.796395) scale(0.1 -0.1)">
       <use xlink:href="#DejaVuSans-13"/>
      </g>
     </g>
    </g>
    <g id="xtick_20">
     <g id="line2d_28">
      <g>
       <use xlink:href="#mbf2cd77c01" x="88.547842" y="294.198739" style="stroke: #000000; stroke-width: 0.8"/>
      </g>
     </g>
     <g id="text_10">
      <!-- 100 -->
      <g transform="translate(79.004092 308.796395) scale(0.1 -0.1)">
       <use xlink:href="#DejaVuSans-14"/>
       <use xlink:href="#DejaVuSans-13" transform="translate(63.625 0)"/>
       <use xlink:href="#DejaVuSans-13" transform="translate(127.25 0)"/>
      </g>
     </g>
    </g>
    <g id="xtick_21">
     <g id="line2d_29">
      <g>
       <use xlink:href="#mbf2cd77c01" x="120.214704" y="294.198739" style="stroke: #000000; stroke-width: 0.8"/>
      </g>
     </g>
     <g id="text_11">
      <!-- 200 -->
      <g transform="translate(110.670954 308.796395) scale(0.1 -0.1)">
       <defs>
        <path id="DejaVuSans-15" d="M 1228 531 
L 3431 531 
L 3431 0 
L 469 0 
L 469 531 
Q 828 903 1448 1529 
Q 2069 2156 2228 2338 
Q 2531 2678 2651 2914 
Q 2772 3150 2772 3378 
Q 2772 3750 2511 3984 
Q 2250 4219 1831 4219 
Q 1534 4219 1204 4116 
Q 875 4013 500 3803 
L 500 4441 
Q 881 4594 1212 4672 
Q 1544 4750 1819 4750 
Q 2544 4750 2975 4387 
Q 3406 4025 3406 3419 
Q 3406 3131 3298 2873 
Q 3191 2616 2906 2266 
Q 2828 2175 2409 1742 
Q 1991 1309 1228 531 
z
" transform="scale(0.015625)"/>
       </defs>
       <use xlink:href="#DejaVuSans-15"/>
       <use xlink:href="#DejaVuSans-13" transform="translate(63.625 0)"/>
       <use xlink:href="#DejaVuSans-13" transform="translate(127.25 0)"/>
      </g>
     </g>
    </g>
    <g id="xtick_22">
     <g id="line2d_30">
      <g>
       <use xlink:href="#mbf2cd77c01" x="151.881566" y="294.198739" style="stroke: #000000; stroke-width: 0.8"/>
      </g>
     </g>
     <g id="text_12">
      <!-- 300 -->
      <g transform="translate(142.337816 308.796395) scale(0.1 -0.1)">
       <defs>
        <path id="DejaVuSans-16" d="M 2597 2516 
Q 3050 2419 3304 2112 
Q 3559 1806 3559 1356 
Q 3559 666 3084 287 
Q 2609 -91 1734 -91 
Q 1441 -91 1130 -33 
Q 819 25 488 141 
L 488 750 
Q 750 597 1062 519 
Q 1375 441 1716 441 
Q 2309 441 2620 675 
Q 2931 909 2931 1356 
Q 2931 1769 2642 2001 
Q 2353 2234 1838 2234 
L 1294 2234 
L 1294 2753 
L 1863 2753 
Q 2328 2753 2575 2939 
Q 2822 3125 2822 3475 
Q 2822 3834 2567 4026 
Q 2313 4219 1838 4219 
Q 1578 4219 1281 4162 
Q 984 4106 628 3988 
L 628 4550 
Q 988 4650 1302 4700 
Q 1616 4750 1894 4750 
Q 2613 4750 3031 4423 
Q 3450 4097 3450 3541 
Q 3450 3153 3228 2886 
Q 3006 2619 2597 2516 
z
" transform="scale(0.015625)"/>
       </defs>
       <use xlink:href="#DejaVuSans-16"/>
       <use xlink:href="#DejaVuSans-13" transform="translate(63.625 0)"/>
       <use xlink:href="#DejaVuSans-13" transform="translate(127.25 0)"/>
      </g>
     </g>
    </g>
    <g id="xtick_23">
     <g id="line2d_31">
      <g>
       <use xlink:href="#mbf2cd77c01" x="183.548429" y="294.198739" style="stroke: #000000; stroke-width: 0.8"/>
      </g>
     </g>
     <g id="text_13">
      <!-- 400 -->
      <g transform="translate(174.004679 308.796395) scale(0.1 -0.1)">
       <defs>
        <path id="DejaVuSans-17" d="M 2419 4116 
L 825 1625 
L 2419 1625 
L 2419 4116 
z
M 2253 4666 
L 3047 4666 
L 3047 1625 
L 3713 1625 
L 3713 1100 
L 3047 1100 
L 3047 0 
L 2419 0 
L 2419 1100 
L 313 1100 
L 313 1709 
L 2253 4666 
z
" transform="scale(0.015625)"/>
       </defs>
       <use xlink:href="#DejaVuSans-17"/>
       <use xlink:href="#DejaVuSans-13" transform="translate(63.625 0)"/>
       <use xlink:href="#DejaVuSans-13" transform="translate(127.25 0)"/>
      </g>
     </g>
    </g>
    <g id="xtick_24">
     <g id="line2d_32">
      <g>
       <use xlink:href="#mbf2cd77c01" x="215.215291" y="294.198739" style="stroke: #000000; stroke-width: 0.8"/>
      </g>
     </g>
     <g id="text_14">
      <!-- 500 -->
      <g transform="translate(205.671541 308.796395) scale(0.1 -0.1)">
       <use xlink:href="#DejaVuSans-18"/>
       <use xlink:href="#DejaVuSans-13" transform="translate(63.625 0)"/>
       <use xlink:href="#DejaVuSans-13" transform="translate(127.25 0)"/>
      </g>
     </g>
    </g>
    <g id="xtick_25">
     <g id="line2d_33">
      <g>
       <use xlink:href="#mbf2cd77c01" x="246.882153" y="294.198739" style="stroke: #000000; stroke-width: 0.8"/>
      </g>
     </g>
     <g id="text_15">
      <!-- 600 -->
      <g transform="translate(237.338403 308.796395) scale(0.1 -0.1)">
       <defs>
        <path id="DejaVuSans-19" d="M 2113 2584 
Q 1688 2584 1439 2293 
Q 1191 2003 1191 1497 
Q 1191 994 1439 701 
Q 1688 409 2113 409 
Q 2538 409 2786 701 
Q 3034 994 3034 1497 
Q 3034 2003 2786 2293 
Q 2538 2584 2113 2584 
z
M 3366 4563 
L 3366 3988 
Q 3128 4100 2886 4159 
Q 2644 4219 2406 4219 
Q 1781 4219 1451 3797 
Q 1122 3375 1075 2522 
Q 1259 2794 1537 2939 
Q 1816 3084 2150 3084 
Q 2853 3084 3261 2657 
Q 3669 2231 3669 1497 
Q 3669 778 3244 343 
Q 2819 -91 2113 -91 
Q 1303 -91 875 529 
Q 447 1150 447 2328 
Q 447 3434 972 4092 
Q 1497 4750 2381 4750 
Q 2619 4750 2861 4703 
Q 3103 4656 3366 4563 
z
" transform="scale(0.015625)"/>
       </defs>
       <use xlink:href="#DejaVuSans-19"/>
       <use xlink:href="#DejaVuSans-13" transform="translate(63.625 0)"/>
       <use xlink:href="#DejaVuSans-13" transform="translate(127.25 0)"/>
      </g>
     </g>
    </g>
    <g id="xtick_26">
     <g id="line2d_34">
      <g>
       <use xlink:href="#mbf2cd77c01" x="278.549016" y="294.198739" style="stroke: #000000; stroke-width: 0.8"/>
      </g>
     </g>
     <g id="text_16">
      <!-- 700 -->
      <g transform="translate(269.005266 308.796395) scale(0.1 -0.1)">
       <defs>
        <path id="DejaVuSans-1a" d="M 525 4666 
L 3525 4666 
L 3525 4397 
L 1831 0 
L 1172 0 
L 2766 4134 
L 525 4134 
L 525 4666 
z
" transform="scale(0.015625)"/>
       </defs>
       <use xlink:href="#DejaVuSans-1a"/>
       <use xlink:href="#DejaVuSans-13" transform="translate(63.625 0)"/>
       <use xlink:href="#DejaVuSans-13" transform="translate(127.25 0)"/>
      </g>
     </g>
    </g>
    <g id="xtick_27">
     <g id="line2d_35">
      <g>
       <use xlink:href="#mbf2cd77c01" x="310.215878" y="294.198739" style="stroke: #000000; stroke-width: 0.8"/>
      </g>
     </g>
     <g id="text_17">
      <!-- 800 -->
      <g transform="translate(300.672128 308.796395) scale(0.1 -0.1)">
       <defs>
        <path id="DejaVuSans-1b" d="M 2034 2216 
Q 1584 2216 1326 1975 
Q 1069 1734 1069 1313 
Q 1069 891 1326 650 
Q 1584 409 2034 409 
Q 2484 409 2743 651 
Q 3003 894 3003 1313 
Q 3003 1734 2745 1975 
Q 2488 2216 2034 2216 
z
M 1403 2484 
Q 997 2584 770 2862 
Q 544 3141 544 3541 
Q 544 4100 942 4425 
Q 1341 4750 2034 4750 
Q 2731 4750 3128 4425 
Q 3525 4100 3525 3541 
Q 3525 3141 3298 2862 
Q 3072 2584 2669 2484 
Q 3125 2378 3379 2068 
Q 3634 1759 3634 1313 
Q 3634 634 3220 271 
Q 2806 -91 2034 -91 
Q 1263 -91 848 271 
Q 434 634 434 1313 
Q 434 1759 690 2068 
Q 947 2378 1403 2484 
z
M 1172 3481 
Q 1172 3119 1398 2916 
Q 1625 2713 2034 2713 
Q 2441 2713 2670 2916 
Q 2900 3119 2900 3481 
Q 2900 3844 2670 4047 
Q 2441 4250 2034 4250 
Q 1625 4250 1398 4047 
Q 1172 3844 1172 3481 
z
" transform="scale(0.015625)"/>
       </defs>
       <use xlink:href="#DejaVuSans-1b"/>
       <use xlink:href="#DejaVuSans-13" transform="translate(63.625 0)"/>
       <use xlink:href="#DejaVuSans-13" transform="translate(127.25 0)"/>
      </g>
     </g>
    </g>
    <g id="text_18">
     <!-- Time -->
     <g transform="translate(172.415776 322.797176) scale(0.1 -0.1)">
      <defs>
       <path id="DejaVuSans-37" d="M -19 4666 
L 3928 4666 
L 3928 4134 
L 2272 4134 
L 2272 0 
L 1638 0 
L 1638 4134 
L -19 4134 
L -19 4666 
z
" transform="scale(0.015625)"/>
       <path id="DejaVuSans-4c" d="M 603 3500 
L 1178 3500 
L 1178 0 
L 603 0 
L 603 3500 
z
M 603 4863 
L 1178 4863 
L 1178 4134 
L 603 4134 
L 603 4863 
z
" transform="scale(0.015625)"/>
       <path id="DejaVuSans-50" d="M 3328 2828 
Q 3544 3216 3844 3400 
Q 4144 3584 4550 3584 
Q 5097 3584 5394 3201 
Q 5691 2819 5691 2113 
L 5691 0 
L 5113 0 
L 5113 2094 
Q 5113 2597 4934 2840 
Q 4756 3084 4391 3084 
Q 3944 3084 3684 2787 
Q 3425 2491 3425 1978 
L 3425 0 
L 2847 0 
L 2847 2094 
Q 2847 2600 2669 2842 
Q 2491 3084 2119 3084 
Q 1678 3084 1418 2786 
Q 1159 2488 1159 1978 
L 1159 0 
L 581 0 
L 581 3500 
L 1159 3500 
L 1159 2956 
Q 1356 3278 1631 3431 
Q 1906 3584 2284 3584 
Q 2666 3584 2933 3390 
Q 3200 3197 3328 2828 
z
" transform="scale(0.015625)"/>
      </defs>
      <use xlink:href="#DejaVuSans-37"/>
      <use xlink:href="#DejaVuSans-4c" transform="translate(58 0)"/>
      <use xlink:href="#DejaVuSans-50" transform="translate(85.78125 0)"/>
      <use xlink:href="#DejaVuSans-48" transform="translate(183.1875 0)"/>
     </g>
    </g>
   </g>
   <g id="matplotlib.axis_6">
    <g id="ytick_7">
     <g id="line2d_36">
      <g>
       <use xlink:href="#m1efd6c4fd4" x="44.103906" y="290.138166" style="stroke: #000000; stroke-width: 0.8"/>
      </g>
     </g>
     <g id="text_19">
      <!-- 0.0 -->
      <g transform="translate(21.200781 293.936994) scale(0.1 -0.1)">
       <defs>
        <path id="DejaVuSans-11" d="M 684 794 
L 1344 794 
L 1344 0 
L 684 0 
L 684 794 
z
" transform="scale(0.015625)"/>
       </defs>
       <use xlink:href="#DejaVuSans-13"/>
       <use xlink:href="#DejaVuSans-11" transform="translate(63.625 0)"/>
       <use xlink:href="#DejaVuSans-13" transform="translate(95.40625 0)"/>
      </g>
     </g>
    </g>
    <g id="ytick_8">
     <g id="line2d_37">
      <g>
       <use xlink:href="#m1efd6c4fd4" x="44.103906" y="249.532442" style="stroke: #000000; stroke-width: 0.8"/>
      </g>
     </g>
     <g id="text_20">
      <!-- 0.5 -->
      <g transform="translate(21.200781 253.33127) scale(0.1 -0.1)">
       <use xlink:href="#DejaVuSans-13"/>
       <use xlink:href="#DejaVuSans-11" transform="translate(63.625 0)"/>
       <use xlink:href="#DejaVuSans-18" transform="translate(95.40625 0)"/>
      </g>
     </g>
    </g>
    <g id="ytick_9">
     <g id="line2d_38">
      <g>
       <use xlink:href="#m1efd6c4fd4" x="44.103906" y="208.926718" style="stroke: #000000; stroke-width: 0.8"/>
      </g>
     </g>
     <g id="text_21">
      <!-- 1.0 -->
      <g transform="translate(21.200781 212.725546) scale(0.1 -0.1)">
       <use xlink:href="#DejaVuSans-14"/>
       <use xlink:href="#DejaVuSans-11" transform="translate(63.625 0)"/>
       <use xlink:href="#DejaVuSans-13" transform="translate(95.40625 0)"/>
      </g>
     </g>
    </g>
    <g id="text_22">
     <!-- Free lac operon -->
     <g transform="translate(14.798438 288.006661) rotate(-90) scale(0.1 -0.1)">
      <defs>
       <path id="DejaVuSans-29" d="M 628 4666 
L 3309 4666 
L 3309 4134 
L 1259 4134 
L 1259 2759 
L 3109 2759 
L 3109 2228 
L 1259 2228 
L 1259 0 
L 628 0 
L 628 4666 
z
" transform="scale(0.015625)"/>
       <path id="DejaVuSans-53" d="M 1159 525 
L 1159 -1331 
L 581 -1331 
L 581 3500 
L 1159 3500 
L 1159 2969 
Q 1341 3281 1617 3432 
Q 1894 3584 2278 3584 
Q 2916 3584 3314 3078 
Q 3713 2572 3713 1747 
Q 3713 922 3314 415 
Q 2916 -91 2278 -91 
Q 1894 -91 1617 61 
Q 1341 213 1159 525 
z
M 3116 1747 
Q 3116 2381 2855 2742 
Q 2594 3103 2138 3103 
Q 1681 3103 1420 2742 
Q 1159 2381 1159 1747 
Q 1159 1113 1420 752 
Q 1681 391 2138 391 
Q 2594 391 2855 752 
Q 3116 1113 3116 1747 
z
" transform="scale(0.015625)"/>
       <path id="DejaVuSans-51" d="M 3513 2113 
L 3513 0 
L 2938 0 
L 2938 2094 
Q 2938 2591 2744 2837 
Q 2550 3084 2163 3084 
Q 1697 3084 1428 2787 
Q 1159 2491 1159 1978 
L 1159 0 
L 581 0 
L 581 3500 
L 1159 3500 
L 1159 2956 
Q 1366 3272 1645 3428 
Q 1925 3584 2291 3584 
Q 2894 3584 3203 3211 
Q 3513 2838 3513 2113 
z
" transform="scale(0.015625)"/>
      </defs>
      <use xlink:href="#DejaVuSans-29"/>
      <use xlink:href="#DejaVuSans-55" transform="translate(50.234375 0)"/>
      <use xlink:href="#DejaVuSans-48" transform="translate(89.140625 0)"/>
      <use xlink:href="#DejaVuSans-48" transform="translate(150.671875 0)"/>
      <use xlink:href="#DejaVuSans-3" transform="translate(212.203125 0)"/>
      <use xlink:href="#DejaVuSans-4f" transform="translate(243.984375 0)"/>
      <use xlink:href="#DejaVuSans-44" transform="translate(271.765625 0)"/>
      <use xlink:href="#DejaVuSans-46" transform="translate(333.046875 0)"/>
      <use xlink:href="#DejaVuSans-3" transform="translate(388.03125 0)"/>
      <use xlink:href="#DejaVuSans-52" transform="translate(419.8125 0)"/>
      <use xlink:href="#DejaVuSans-53" transform="translate(481 0)"/>
      <use xlink:href="#DejaVuSans-48" transform="translate(544.484375 0)"/>
      <use xlink:href="#DejaVuSans-55" transform="translate(606.015625 0)"/>
      <use xlink:href="#DejaVuSans-52" transform="translate(644.921875 0)"/>
      <use xlink:href="#DejaVuSans-51" transform="translate(706.109375 0)"/>
     </g>
    </g>
   </g>
   <g id="line2d_39">
    <path d="M 56.88098 208.926718 
L 56.961972 290.138166 
L 57.129182 290.138166 
L 57.297676 208.926718 
L 57.415087 208.926718 
L 57.516565 290.138166 
L 58.725055 290.138166 
L 59.708562 208.926718 
L 59.893712 208.926718 
L 59.916311 290.138166 
L 62.322257 290.138166 
L 64.900167 208.926718 
L 65.193176 208.926718 
L 65.32974 290.138166 
L 65.454807 290.138166 
L 72.074583 208.926718 
L 72.243286 290.138166 
L 80.032687 208.926718 
L 80.08141 290.138166 
L 82.691059 208.926718 
L 82.830153 208.926718 
L 82.883968 290.138166 
L 84.613158 290.138166 
L 84.678172 208.926718 
L 85.54885 208.926718 
L 85.737611 290.138166 
L 86.763835 290.138166 
L 89.737264 208.926718 
L 90.273809 208.926718 
L 90.3029 290.138166 
L 90.658515 290.138166 
L 91.534259 208.926718 
L 91.592331 290.138166 
L 91.933969 290.138166 
L 108.899382 208.926718 
L 108.912996 290.138166 
L 109.169803 290.138166 
L 109.44416 208.926718 
L 109.729671 290.138166 
L 109.856919 208.926718 
L 110.262053 208.926718 
L 110.465323 290.138166 
L 110.756086 290.138166 
L 114.891514 208.926718 
L 115.547896 290.138166 
L 117.179385 208.926718 
L 117.492591 290.138166 
L 118.160696 208.926718 
L 118.247459 290.138166 
L 119.250334 208.926718 
L 119.334697 290.138166 
L 123.25219 290.138166 
L 129.232358 208.926718 
L 129.337624 290.138166 
L 131.068699 208.926718 
L 131.516595 208.926718 
L 131.537897 290.138166 
L 133.366361 290.138166 
L 135.945321 208.926718 
L 135.958542 290.138166 
L 138.821083 208.926718 
L 138.86354 290.138166 
L 145.861569 208.926718 
L 146.799823 208.926718 
L 146.867697 290.138166 
L 147.48016 290.138166 
L 147.723618 208.926718 
L 148.036472 208.926718 
L 148.148494 290.138166 
L 149.212218 290.138166 
L 149.72036 208.926718 
L 149.820465 290.138166 
L 150.93435 290.138166 
L 150.945598 208.926718 
L 151.106096 290.138166 
L 155.386883 208.926718 
L 155.475244 290.138166 
L 155.722959 208.926718 
L 170.914484 208.926718 
L 171.003489 290.138166 
L 171.958446 290.138166 
L 171.987828 208.926718 
L 202.210259 208.926718 
L 202.28828 290.138166 
L 203.057315 290.138166 
L 203.352404 208.926718 
L 203.451466 290.138166 
L 203.720111 290.138166 
L 204.711318 208.926718 
L 204.765966 208.926718 
L 204.875581 290.138166 
L 205.231243 290.138166 
L 211.623828 208.926718 
L 211.706569 290.138166 
L 215.09898 208.926718 
L 215.553012 208.926718 
L 215.567503 290.138166 
L 216.122156 290.138166 
L 225.634084 208.926718 
L 225.660097 290.138166 
L 226.49251 290.138166 
L 230.861943 208.926718 
L 230.948977 290.138166 
L 231.55875 208.926718 
L 231.650407 290.138166 
L 234.580559 208.926718 
L 234.861304 208.926718 
L 234.971939 290.138166 
L 238.740207 290.138166 
L 239.674657 208.926718 
L 239.948568 290.138166 
L 240.696577 208.926718 
L 241.292829 208.926718 
L 241.358869 290.138166 
L 242.421418 290.138166 
L 251.441202 208.926718 
L 252.106979 208.926718 
L 252.166574 290.138166 
L 253.28113 290.138166 
L 259.225186 208.926718 
L 259.474295 290.138166 
L 261.582958 208.926718 
L 262.610585 208.926718 
L 263.029893 290.138166 
L 263.562505 290.138166 
L 263.747351 208.926718 
L 263.903213 208.926718 
L 264.078684 290.138166 
L 267.506857 290.138166 
L 268.968157 208.926718 
L 269.065183 290.138166 
L 269.51787 208.926718 
L 269.827736 208.926718 
L 269.996482 290.138166 
L 270.049329 208.926718 
L 270.100598 290.138166 
L 271.361168 290.138166 
L 280.234771 208.926718 
L 280.379153 208.926718 
L 280.383733 290.138166 
L 280.880601 290.138166 
L 291.786123 208.926718 
L 291.923661 290.138166 
L 294.14246 208.926718 
L 294.475419 290.138166 
L 295.684223 208.926718 
L 295.708434 290.138166 
L 295.851464 208.926718 
L 297.191324 208.926718 
L 297.195742 290.138166 
L 297.261035 208.926718 
L 297.317608 208.926718 
L 297.623775 290.138166 
L 297.79613 290.138166 
L 299.898733 208.926718 
L 300.194779 208.926718 
L 300.207801 290.138166 
L 301.141666 290.138166 
L 312.422447 208.926718 
L 312.422447 208.926718 
" clip-path="url(#p4ea263543f)" style="fill: none; stroke: #000000; stroke-width: 1.5; stroke-linecap: square"/>
   </g>
   <g id="patch_13">
    <path d="M 44.103906 294.198739 
L 44.103906 204.866146 
" style="fill: none; stroke: #000000; stroke-width: 0.8; stroke-linejoin: miter; stroke-linecap: square"/>
   </g>
   <g id="patch_14">
    <path d="M 325.19952 294.198739 
L 325.19952 204.866146 
" style="fill: none; stroke: #000000; stroke-width: 0.8; stroke-linejoin: miter; stroke-linecap: square"/>
   </g>
   <g id="patch_15">
    <path d="M 44.103906 294.198739 
L 325.19952 294.198739 
" style="fill: none; stroke: #000000; stroke-width: 0.8; stroke-linejoin: miter; stroke-linecap: square"/>
   </g>
   <g id="patch_16">
    <path d="M 44.103906 204.866146 
L 325.19952 204.866146 
" style="fill: none; stroke: #000000; stroke-width: 0.8; stroke-linejoin: miter; stroke-linecap: square"/>
   </g>
  </g>
 </g>
 <defs>
  <clipPath id="p3db0756d98">
   <rect x="44.103906" y="7.2" width="281.095614" height="89.332593"/>
  </clipPath>
  <clipPath id="p1625cf7c70">
   <rect x="44.103906" y="106.033073" width="281.095614" height="89.332593"/>
  </clipPath>
  <clipPath id="p4ea263543f">
   <rect x="44.103906" y="204.866146" width="281.095614" height="89.332593"/>
  </clipPath>
 </defs>
</svg>
