<?xml version="1.0" encoding="utf-8" standalone="no"?>
<!DOCTYPE svg PUBLIC "-//W3C//DTD SVG 1.1//EN"
  "http://www.w3.org/Graphics/SVG/1.1/DTD/svg11.dtd">
<svg xmlns:xlink="http://www.w3.org/1999/xlink" width="332.39952pt" height="332.39952pt" viewBox="0 0 332.39952 332.39952" xmlns="http://www.w3.org/2000/svg" version="1.1">
 <metadata>
  <rdf:RDF xmlns:dc="http://purl.org/dc/elements/1.1/" xmlns:cc="http://creativecommons.org/ns#" xmlns:rdf="http://www.w3.org/1999/02/22-rdf-syntax-ns#">
   <cc:Work>
    <dc:type rdf:resource="http://purl.org/dc/dcmitype/StillImage"/>
    <dc:date>2026-07-15T14:36:30.787881</dc:date>
    <dc:format>image/svg+xml</dc:format>
    <dc:creator>
     <cc:Agent>
      <dc:title>Matplotlib v3.11.0, https://matplotlib.org/</dc:title>
     </cc:Agent>
    </dc:creator>
   </cc:Work>
  </rdf:RDF>
 </metadata>
 <defs>
  <style type="text/css">*{stroke-linejoin: round; stroke-linecap: butt}</style>
 </defs>
 <g id="figure_1">
  <g id="patch_1">
   <path d="M 0 332.39952 
L 332.39952 332.39952 
L 332.39952 0 
L 0 0 
z
" style="fill: #ffffff"/>
  </g>
  <g id="axes_1">
   <g id="patch_2">
    <path d="M 44.103906 96.532593 
L 325.19952 96.532593 
L 325.19952 7.2 
L 44.103906 7.2 
z
" style="fill: #ffffff"/>
   </g>
   <g id="matplotlib.axis_1">
    <g id="xtick_1">
     <g id="line2d_1">
      <defs>
       <path id="m99a8d42af4" d="M 0 0 
L 0 3.5 
" style="stroke: #000000; stroke-width: 0.8"/>
      </defs>
      <g>
       <use xlink:href="#m99a8d42af4" x="56.88098" y="96.532593" style="stroke: #000000; stroke-width: 0.8"/>
      </g>
     </g>
    </g>
    <g id="xtick_2">
     <g id="line2d_2">
      <g>
       <use xlink:href="#m99a8d42af4" x="88.583959" y="96.532593" style="stroke: #000000; stroke-width: 0.8"/>
      </g>
     </g>
    </g>
    <g id="xtick_3">
     <g id="line2d_3">
      <g>
       <use xlink:href="#m99a8d42af4" x="120.286939" y="96.532593" style="stroke: #000000; stroke-width: 0.8"/>
      </g>
     </g>
    </g>
    <g id="xtick_4">
     <g id="line2d_4">
      <g>
       <use xlink:href="#m99a8d42af4" x="151.989919" y="96.532593" style="stroke: #000000; stroke-width: 0.8"/>
      </g>
     </g>
    </g>
    <g id="xtick_5">
     <g id="line2d_5">
      <g>
       <use xlink:href="#m99a8d42af4" x="183.692899" y="96.532593" style="stroke: #000000; stroke-width: 0.8"/>
      </g>
     </g>
    </g>
    <g id="xtick_6">
     <g id="line2d_6">
      <g>
       <use xlink:href="#m99a8d42af4" x="215.395879" y="96.532593" style="stroke: #000000; stroke-width: 0.8"/>
      </g>
     </g>
    </g>
    <g id="xtick_7">
     <g id="line2d_7">
      <g>
       <use xlink:href="#m99a8d42af4" x="247.098859" y="96.532593" style="stroke: #000000; stroke-width: 0.8"/>
      </g>
     </g>
    </g>
    <g id="xtick_8">
     <g id="line2d_8">
      <g>
       <use xlink:href="#m99a8d42af4" x="278.801839" y="96.532593" style="stroke: #000000; stroke-width: 0.8"/>
      </g>
     </g>
    </g>
    <g id="xtick_9">
     <g id="line2d_9">
      <g>
       <use xlink:href="#m99a8d42af4" x="310.504819" y="96.532593" style="stroke: #000000; stroke-width: 0.8"/>
      </g>
     </g>
    </g>
   </g>
   <g id="matplotlib.axis_2">
    <g id="ytick_1">
     <g id="line2d_10">
      <defs>
       <path id="mf0011a7e7d" d="M 0 0 
L -3.5 0 
" style="stroke: #000000; stroke-width: 0.8"/>
      </defs>
      <g>
       <use xlink:href="#mf0011a7e7d" x="44.103906" y="92.472021" style="stroke: #000000; stroke-width: 0.8"/>
      </g>
     </g>
     <g id="text_1">
      <!-- 0 -->
      <g transform="translate(30.741406 96.270849) scale(0.1 -0.1)">
       <defs>
        <path id="DejaVuSans-13" d="M 2034 4250 
Q 1547 4250 1301 3770 
Q 1056 3291 1056 2328 
Q 1056 1369 1301 889 
Q 1547 409 2034 409 
Q 2525 409 2770 889 
Q 3016 1369 3016 2328 
Q 3016 3291 2770 3770 
Q 2525 4250 2034 4250 
z
M 2034 4750 
Q 2819 4750 3233 4129 
Q 3647 3509 3647 2328 
Q 3647 1150 3233 529 
Q 2819 -91 2034 -91 
Q 1250 -91 836 529 
Q 422 1150 422 2328 
Q 422 3509 836 4129 
Q 1250 4750 2034 4750 
z
" transform="scale(0.015625)"/>
       </defs>
       <use xlink:href="#DejaVuSans-13"/>
      </g>
     </g>
    </g>
    <g id="ytick_2">
     <g id="line2d_11">
      <g>
       <use xlink:href="#mf0011a7e7d" x="44.103906" y="51.866296" style="stroke: #000000; stroke-width: 0.8"/>
      </g>
     </g>
     <g id="text_2">
      <!-- 5 -->
      <g transform="translate(30.741406 55.665125) scale(0.1 -0.1)">
       <defs>
        <path id="DejaVuSans-18" d="M 691 4666 
L 3169 4666 
L 3169 4134 
L 1269 4134 
L 1269 2991 
Q 1406 3038 1543 3061 
Q 1681 3084 1819 3084 
Q 2600 3084 3056 2656 
Q 3513 2228 3513 1497 
Q 3513 744 3044 326 
Q 2575 -91 1722 -91 
Q 1428 -91 1123 -41 
Q 819 9 494 109 
L 494 744 
Q 775 591 1075 516 
Q 1375 441 1709 441 
Q 2250 441 2565 725 
Q 2881 1009 2881 1497 
Q 2881 1984 2565 2268 
Q 2250 2553 1709 2553 
Q 1456 2553 1204 2497 
Q 953 2441 691 2322 
L 691 4666 
z
" transform="scale(0.015625)"/>
       </defs>
       <use xlink:href="#DejaVuSans-18"/>
      </g>
     </g>
    </g>
    <g id="ytick_3">
     <g id="line2d_12">
      <g>
       <use xlink:href="#mf0011a7e7d" x="44.103906" y="11.260572" style="stroke: #000000; stroke-width: 0.8"/>
      </g>
     </g>
     <g id="text_3">
      <!-- 10 -->
      <g transform="translate(24.378906 15.059401) scale(0.1 -0.1)">
       <defs>
        <path id="DejaVuSans-14" d="M 794 531 
L 1825 531 
L 1825 4091 
L 703 3866 
L 703 4441 
L 1819 4666 
L 2450 4666 
L 2450 531 
L 3481 531 
L 3481 0 
L 794 0 
L 794 531 
z
" transform="scale(0.015625)"/>
       </defs>
       <use xlink:href="#DejaVuSans-14"/>
       <use xlink:href="#DejaVuSans-13" transform="translate(63.625 0)"/>
      </g>
     </g>
    </g>
    <g id="text_4">
     <!-- Extracellular lactose -->
     <g transform="translate(17.976563 102.838171) rotate(-90) scale(0.1 -0.1)">
      <defs>
       <path id="DejaVuSans-28" d="M 628 4666 
L 3578 4666 
L 3578 4134 
L 1259 4134 
L 1259 2753 
L 3481 2753 
L 3481 2222 
L 1259 2222 
L 1259 531 
L 3634 531 
L 3634 0 
L 628 0 
L 628 4666 
z
" transform="scale(0.015625)"/>
       <path id="DejaVuSans-5b" d="M 3513 3500 
L 2247 1797 
L 3578 0 
L 2900 0 
L 1881 1375 
L 863 0 
L 184 0 
L 1544 1831 
L 300 3500 
L 978 3500 
L 1906 2253 
L 2834 3500 
L 3513 3500 
z
" transform="scale(0.015625)"/>
       <path id="DejaVuSans-57" d="M 1172 4494 
L 1172 3500 
L 2356 3500 
L 2356 3053 
L 1172 3053 
L 1172 1153 
Q 1172 725 1289 603 
Q 1406 481 1766 481 
L 2356 481 
L 2356 0 
L 1766 0 
Q 1100 0 847 248 
Q 594 497 594 1153 
L 594 3053 
L 172 3053 
L 172 3500 
L 594 3500 
L 594 4494 
L 1172 4494 
z
" transform="scale(0.015625)"/>
       <path id="DejaVuSans-55" d="M 2631 2963 
Q 2534 3019 2420 3045 
Q 2306 3072 2169 3072 
Q 1681 3072 1420 2755 
Q 1159 2438 1159 1844 
L 1159 0 
L 581 0 
L 581 3500 
L 1159 3500 
L 1159 2956 
Q 1341 3275 1631 3429 
Q 1922 3584 2338 3584 
Q 2397 3584 2469 3576 
Q 2541 3569 2628 3553 
L 2631 2963 
z
" transform="scale(0.015625)"/>
       <path id="DejaVuSans-44" d="M 2194 1759 
Q 1497 1759 1228 1600 
Q 959 1441 959 1056 
Q 959 750 1161 570 
Q 1363 391 1709 391 
Q 2188 391 2477 730 
Q 2766 1069 2766 1631 
L 2766 1759 
L 2194 1759 
z
M 3341 1997 
L 3341 0 
L 2766 0 
L 2766 531 
Q 2569 213 2275 61 
Q 1981 -91 1556 -91 
Q 1019 -91 701 211 
Q 384 513 384 1019 
Q 384 1609 779 1909 
Q 1175 2209 1959 2209 
L 2766 2209 
L 2766 2266 
Q 2766 2663 2505 2880 
Q 2244 3097 1772 3097 
Q 1472 3097 1187 3025 
Q 903 2953 641 2809 
L 641 3341 
Q 956 3463 1253 3523 
Q 1550 3584 1831 3584 
Q 2591 3584 2966 3190 
Q 3341 2797 3341 1997 
z
" transform="scale(0.015625)"/>
       <path id="DejaVuSans-46" d="M 3122 3366 
L 3122 2828 
Q 2878 2963 2633 3030 
Q 2388 3097 2138 3097 
Q 1578 3097 1268 2742 
Q 959 2388 959 1747 
Q 959 1106 1268 751 
Q 1578 397 2138 397 
Q 2388 397 2633 464 
Q 2878 531 3122 666 
L 3122 134 
Q 2881 22 2623 -34 
Q 2366 -91 2075 -91 
Q 1284 -91 818 406 
Q 353 903 353 1747 
Q 353 2603 823 3093 
Q 1294 3584 2113 3584 
Q 2378 3584 2631 3529 
Q 2884 3475 3122 3366 
z
" transform="scale(0.015625)"/>
       <path id="DejaVuSans-48" d="M 3597 1894 
L 3597 1613 
L 953 1613 
Q 991 1019 1311 708 
Q 1631 397 2203 397 
Q 2534 397 2845 478 
Q 3156 559 3463 722 
L 3463 178 
Q 3153 47 2828 -22 
Q 2503 -91 2169 -91 
Q 1331 -91 842 396 
Q 353 884 353 1716 
Q 353 2575 817 3079 
Q 1281 3584 2069 3584 
Q 2775 3584 3186 3129 
Q 3597 2675 3597 1894 
z
M 3022 2063 
Q 3016 2534 2758 2815 
Q 2500 3097 2075 3097 
Q 1594 3097 1305 2825 
Q 1016 2553 972 2059 
L 3022 2063 
z
" transform="scale(0.015625)"/>
       <path id="DejaVuSans-4f" d="M 603 4863 
L 1178 4863 
L 1178 0 
L 603 0 
L 603 4863 
z
" transform="scale(0.015625)"/>
       <path id="DejaVuSans-58" d="M 544 1381 
L 544 3500 
L 1119 3500 
L 1119 1403 
Q 1119 906 1312 657 
Q 1506 409 1894 409 
Q 2359 409 2629 706 
Q 2900 1003 2900 1516 
L 2900 3500 
L 3475 3500 
L 3475 0 
L 2900 0 
L 2900 538 
Q 2691 219 2414 64 
Q 2138 -91 1772 -91 
Q 1169 -91 856 284 
Q 544 659 544 1381 
z
M 1991 3584 
L 1991 3584 
z
" transform="scale(0.015625)"/>
       <path id="DejaVuSans-3" transform="scale(0.015625)"/>
       <path id="DejaVuSans-52" d="M 1959 3097 
Q 1497 3097 1228 2736 
Q 959 2375 959 1747 
Q 959 1119 1226 758 
Q 1494 397 1959 397 
Q 2419 397 2687 759 
Q 2956 1122 2956 1747 
Q 2956 2369 2687 2733 
Q 2419 3097 1959 3097 
z
M 1959 3584 
Q 2709 3584 3137 3096 
Q 3566 2609 3566 1747 
Q 3566 888 3137 398 
Q 2709 -91 1959 -91 
Q 1206 -91 779 398 
Q 353 888 353 1747 
Q 353 2609 779 3096 
Q 1206 3584 1959 3584 
z
" transform="scale(0.015625)"/>
       <path id="DejaVuSans-56" d="M 2834 3397 
L 2834 2853 
Q 2591 2978 2328 3040 
Q 2066 3103 1784 3103 
Q 1356 3103 1142 2972 
Q 928 2841 928 2578 
Q 928 2378 1081 2264 
Q 1234 2150 1697 2047 
L 1894 2003 
Q 2506 1872 2764 1633 
Q 3022 1394 3022 966 
Q 3022 478 2636 193 
Q 2250 -91 1575 -91 
Q 1294 -91 989 -36 
Q 684 19 347 128 
L 347 722 
Q 666 556 975 473 
Q 1284 391 1588 391 
Q 1994 391 2212 530 
Q 2431 669 2431 922 
Q 2431 1156 2273 1281 
Q 2116 1406 1581 1522 
L 1381 1569 
Q 847 1681 609 1914 
Q 372 2147 372 2553 
Q 372 3047 722 3315 
Q 1072 3584 1716 3584 
Q 2034 3584 2315 3537 
Q 2597 3491 2834 3397 
z
" transform="scale(0.015625)"/>
      </defs>
      <use xlink:href="#DejaVuSans-28"/>
      <use xlink:href="#DejaVuSans-5b" transform="translate(63.1875 0)"/>
      <use xlink:href="#DejaVuSans-57" transform="translate(122.375 0)"/>
      <use xlink:href="#DejaVuSans-55" transform="translate(161.578125 0)"/>
      <use xlink:href="#DejaVuSans-44" transform="translate(202.6875 0)"/>
      <use xlink:href="#DejaVuSans-46" transform="translate(263.96875 0)"/>
      <use xlink:href="#DejaVuSans-48" transform="translate(318.953125 0)"/>
      <use xlink:href="#DejaVuSans-4f" transform="translate(380.484375 0)"/>
      <use xlink:href="#DejaVuSans-4f" transform="translate(408.265625 0)"/>
      <use xlink:href="#DejaVuSans-58" transform="translate(436.046875 0)"/>
      <use xlink:href="#DejaVuSans-4f" transform="translate(499.421875 0)"/>
      <use xlink:href="#DejaVuSans-44" transform="translate(527.203125 0)"/>
      <use xlink:href="#DejaVuSans-55" transform="translate(588.484375 0)"/>
      <use xlink:href="#DejaVuSans-3" transform="translate(629.59375 0)"/>
      <use xlink:href="#DejaVuSans-4f" transform="translate(661.375 0)"/>
      <use xlink:href="#DejaVuSans-44" transform="translate(689.15625 0)"/>
      <use xlink:href="#DejaVuSans-46" transform="translate(750.4375 0)"/>
      <use xlink:href="#DejaVuSans-57" transform="translate(805.421875 0)"/>
      <use xlink:href="#DejaVuSans-52" transform="translate(844.625 0)"/>
      <use xlink:href="#DejaVuSans-56" transform="translate(905.8125 0)"/>
      <use xlink:href="#DejaVuSans-48" transform="translate(957.90625 0)"/>
     </g>
    </g>
   </g>
   <g id="line2d_13">
    <path d="M 56.88098 92.472021 
L 155.499234 92.472021 
L 155.587696 11.260572 
L 156.250921 11.341784 
L 156.367769 11.66663 
L 156.412264 11.747841 
L 156.557415 13.209647 
L 156.674913 14.833876 
L 156.688642 14.915088 
L 156.831132 16.620528 
L 156.854513 16.701739 
L 157.360458 20.193832 
L 157.63571 20.599889 
L 157.69458 20.6811 
L 157.802977 20.762312 
L 158.219547 20.843523 
L 158.320476 21.168369 
L 158.576212 21.574426 
L 158.675898 21.980484 
L 158.795545 22.061695 
L 158.897506 22.548964 
L 158.927273 22.630175 
L 159.035409 23.523501 
L 159.131893 24.416827 
L 159.468438 25.797422 
L 159.514075 25.878633 
L 159.770273 27.340439 
L 159.890034 28.396188 
L 159.903691 28.477399 
L 160.218737 31.076166 
L 160.754082 33.350086 
L 160.880933 33.999778 
L 160.983597 34.080989 
L 161.187647 35.055527 
L 161.252264 35.136738 
L 161.449178 35.867641 
L 162.017371 35.948853 
L 162.160327 36.436121 
L 162.183905 36.517333 
L 162.351579 36.92339 
L 162.561948 37.004601 
L 162.705384 37.573082 
L 162.852255 37.897927 
L 162.875332 37.979139 
L 162.977785 38.222773 
L 163.517831 39.440945 
L 163.631219 39.765791 
L 163.804416 39.847002 
L 164.17528 41.308808 
L 164.488889 41.39002 
L 164.743991 42.202134 
L 164.830236 42.445768 
L 164.982955 42.770614 
L 165.024115 42.851826 
L 165.077253 42.933037 
L 165.320243 43.014249 
L 165.435612 43.420306 
L 165.584844 43.826363 
L 165.67066 43.907575 
L 165.761542 44.313632 
L 165.825824 44.394843 
L 166.021506 44.638478 
L 166.116316 44.719689 
L 166.307184 45.288169 
L 166.555482 45.613015 
L 168.10918 45.694226 
L 168.223031 46.506341 
L 168.252638 46.587552 
L 168.486283 48.211781 
L 168.549697 48.292993 
L 168.64824 49.26753 
L 168.748284 50.079645 
L 168.881004 50.648125 
L 168.939838 50.729336 
L 169.05141 51.216605 
L 169.090451 51.297816 
L 169.210952 51.541451 
L 169.233842 51.622662 
L 169.336772 51.703874 
L 169.730371 51.785085 
L 169.965964 52.109931 
L 170.686955 52.191142 
L 171.393155 54.059006 
L 171.538871 54.546274 
L 171.614998 54.789909 
L 172.52631 60.393499 
L 172.90952 60.47471 
L 173.029601 60.880767 
L 173.38904 60.961979 
L 173.508528 61.124402 
L 173.618465 61.449247 
L 173.735543 61.530459 
L 173.907847 61.936516 
L 174.03718 62.017727 
L 174.136984 62.18015 
L 174.194904 62.261362 
L 174.387636 62.423785 
L 174.565981 62.504996 
L 174.675772 62.586208 
L 174.708654 62.667419 
L 174.811536 62.992265 
L 175.006136 63.317111 
L 175.139762 63.398322 
L 175.313208 63.885591 
L 175.337718 63.966802 
L 175.419385 64.616494 
L 175.49835 64.697705 
L 175.703083 65.50982 
L 175.756235 65.591031 
L 175.886985 65.997088 
L 176.160029 67.052837 
L 176.296045 67.134049 
L 176.410847 67.377683 
L 176.478893 67.458894 
L 176.600774 67.78374 
L 176.676581 67.864952 
L 176.7392 68.35222 
L 176.84145 68.433432 
L 177.035138 69.326758 
L 177.05212 69.407969 
L 177.167334 70.382507 
L 177.203171 70.463718 
L 177.445748 72.087947 
L 177.537001 72.169158 
L 177.698896 73.143696 
L 177.715121 73.224907 
L 177.857572 73.549753 
L 177.942878 73.630965 
L 178.079424 73.874599 
L 178.193205 74.118233 
L 178.240051 74.199445 
L 178.371943 74.930348 
L 178.535117 75.417616 
L 178.567534 75.498828 
L 178.670028 75.823674 
L 178.751268 75.904885 
L 178.862533 75.986097 
L 180.476222 76.067308 
L 180.56211 76.148519 
L 180.709396 76.229731 
L 180.847726 76.310942 
L 180.912336 76.392154 
L 181.015686 76.635788 
L 181.078195 76.717 
L 181.174033 76.798211 
L 182.35951 77.772748 
L 182.728994 77.85396 
L 182.834424 78.016383 
L 183.045879 78.097594 
L 183.21759 78.909709 
L 183.347459 78.99092 
L 183.484491 79.153343 
L 183.734673 79.234554 
L 183.892536 79.5594 
L 184.274625 79.884246 
L 184.343606 79.965458 
L 184.560648 80.209092 
L 184.653653 80.290303 
L 184.799382 80.452726 
L 184.935822 80.533938 
L 185.069509 80.696361 
L 185.153733 80.777572 
L 185.387284 81.508475 
L 185.558016 81.670898 
L 185.650677 81.752109 
L 185.827987 82.158167 
L 186.118804 82.239378 
L 186.209828 82.320589 
L 186.951047 82.401801 
L 188.890868 83.213915 
L 188.99525 83.295127 
L 189.209931 83.45755 
L 189.547269 83.538761 
L 189.720532 83.701184 
L 189.944821 83.782396 
L 190.07965 83.944818 
L 190.186785 84.02603 
L 190.335807 84.107241 
L 190.552958 84.188453 
L 191.191528 84.269664 
L 191.343349 84.432087 
L 191.724731 84.513299 
L 191.769074 84.59451 
L 192.416504 84.675721 
L 192.51978 84.756933 
L 193.102345 84.838144 
L 193.226536 84.919356 
L 193.521781 85.000567 
L 194.120618 85.16299 
L 194.683458 85.244202 
L 194.793825 85.487836 
L 194.994803 85.569047 
L 195.115622 85.975105 
L 195.336584 86.056316 
L 195.743993 86.462373 
L 196.226906 86.543585 
L 196.53874 86.868431 
L 196.953361 86.949642 
L 197.189826 87.030853 
L 197.881448 87.112065 
L 198.138931 87.274488 
L 199.319656 87.355699 
L 199.486466 87.518122 
L 199.558961 87.599334 
L 199.77547 87.680545 
L 199.962764 87.924179 
L 200.222001 88.005391 
L 200.334169 88.167814 
L 201.190125 88.249025 
L 201.305784 88.330237 
L 201.522107 88.411448 
L 201.766333 88.655082 
L 202.11922 88.736294 
L 202.257115 88.898717 
L 203.362743 88.979928 
L 203.621792 89.142351 
L 204.397981 89.223563 
L 204.553997 89.304774 
L 205.98635 89.385985 
L 206.014028 89.467197 
L 217.06875 89.548408 
L 217.87328 89.62962 
L 218.587309 89.710831 
L 223.734209 89.873254 
L 253.799623 89.954466 
L 254.654909 90.035677 
L 283.856136 90.116889 
L 284.021756 90.279311 
L 284.826472 90.360523 
L 284.96084 90.441734 
L 285.500409 90.522946 
L 285.662696 90.604157 
L 287.0371 90.685369 
L 287.213864 90.76658 
L 288.337151 90.847792 
L 288.660179 91.010214 
L 292.558181 91.091426 
L 293.062548 91.253849 
L 312.422447 91.33506 
L 312.422447 91.33506 
" clip-path="url(#p1ebe97e64a)" style="fill: none; stroke: #000000; stroke-width: 1.5; stroke-linecap: square"/>
   </g>
   <g id="patch_3">
    <path d="M 44.103906 96.532593 
L 44.103906 7.2 
" style="fill: none; stroke: #000000; stroke-width: 0.8; stroke-linejoin: miter; stroke-linecap: square"/>
   </g>
   <g id="patch_4">
    <path d="M 325.19952 96.532593 
L 325.19952 7.2 
" style="fill: none; stroke: #000000; stroke-width: 0.8; stroke-linejoin: miter; stroke-linecap: square"/>
   </g>
   <g id="patch_5">
    <path d="M 44.103906 96.532593 
L 325.19952 96.532593 
" style="fill: none; stroke: #000000; stroke-width: 0.8; stroke-linejoin: miter; stroke-linecap: square"/>
   </g>
   <g id="patch_6">
    <path d="M 44.103906 7.2 
L 325.19952 7.2 
" style="fill: none; stroke: #000000; stroke-width: 0.8; stroke-linejoin: miter; stroke-linecap: square"/>
   </g>
  </g>
  <g id="axes_2">
   <g id="patch_7">
    <path d="M 44.103906 195.365666 
L 325.19952 195.365666 
L 325.19952 106.033073 
L 44.103906 106.033073 
z
" style="fill: #ffffff"/>
   </g>
   <g id="matplotlib.axis_3">
    <g id="xtick_10">
     <g id="line2d_14">
      <g>
       <use xlink:href="#m99a8d42af4" x="56.88098" y="195.365666" style="stroke: #000000; stroke-width: 0.8"/>
      </g>
     </g>
    </g>
    <g id="xtick_11">
     <g id="line2d_15">
      <g>
       <use xlink:href="#m99a8d42af4" x="88.583959" y="195.365666" style="stroke: #000000; stroke-width: 0.8"/>
      </g>
     </g>
    </g>
    <g id="xtick_12">
     <g id="line2d_16">
      <g>
       <use xlink:href="#m99a8d42af4" x="120.286939" y="195.365666" style="stroke: #000000; stroke-width: 0.8"/>
      </g>
     </g>
    </g>
    <g id="xtick_13">
     <g id="line2d_17">
      <g>
       <use xlink:href="#m99a8d42af4" x="151.989919" y="195.365666" style="stroke: #000000; stroke-width: 0.8"/>
      </g>
     </g>
    </g>
    <g id="xtick_14">
     <g id="line2d_18">
      <g>
       <use xlink:href="#m99a8d42af4" x="183.692899" y="195.365666" style="stroke: #000000; stroke-width: 0.8"/>
      </g>
     </g>
    </g>
    <g id="xtick_15">
     <g id="line2d_19">
      <g>
       <use xlink:href="#m99a8d42af4" x="215.395879" y="195.365666" style="stroke: #000000; stroke-width: 0.8"/>
      </g>
     </g>
    </g>
    <g id="xtick_16">
     <g id="line2d_20">
      <g>
       <use xlink:href="#m99a8d42af4" x="247.098859" y="195.365666" style="stroke: #000000; stroke-width: 0.8"/>
      </g>
     </g>
    </g>
    <g id="xtick_17">
     <g id="line2d_21">
      <g>
       <use xlink:href="#m99a8d42af4" x="278.801839" y="195.365666" style="stroke: #000000; stroke-width: 0.8"/>
      </g>
     </g>
    </g>
    <g id="xtick_18">
     <g id="line2d_22">
      <g>
       <use xlink:href="#m99a8d42af4" x="310.504819" y="195.365666" style="stroke: #000000; stroke-width: 0.8"/>
      </g>
     </g>
    </g>
   </g>
   <g id="matplotlib.axis_4">
    <g id="ytick_4">
     <g id="line2d_23">
      <g>
       <use xlink:href="#mf0011a7e7d" x="44.103906" y="191.305093" style="stroke: #000000; stroke-width: 0.8"/>
      </g>
     </g>
     <g id="text_5">
      <!-- 0 -->
      <g transform="translate(30.741406 195.103922) scale(0.1 -0.1)">
       <use xlink:href="#DejaVuSans-13"/>
      </g>
     </g>
    </g>
    <g id="ytick_5">
     <g id="line2d_24">
      <g>
       <use xlink:href="#mf0011a7e7d" x="44.103906" y="150.699369" style="stroke: #000000; stroke-width: 0.8"/>
      </g>
     </g>
     <g id="text_6">
      <!-- 5 -->
      <g transform="translate(30.741406 154.498197) scale(0.1 -0.1)">
       <use xlink:href="#DejaVuSans-18"/>
      </g>
     </g>
    </g>
    <g id="ytick_6">
     <g id="line2d_25">
      <g>
       <use xlink:href="#mf0011a7e7d" x="44.103906" y="110.093645" style="stroke: #000000; stroke-width: 0.8"/>
      </g>
     </g>
     <g id="text_7">
      <!-- 10 -->
      <g transform="translate(24.378906 113.892473) scale(0.1 -0.1)">
       <use xlink:href="#DejaVuSans-14"/>
       <use xlink:href="#DejaVuSans-13" transform="translate(63.625 0)"/>
      </g>
     </g>
    </g>
    <g id="text_8">
     <!-- LacY -->
     <g transform="translate(17.976563 162.352494) rotate(-90) scale(0.1 -0.1)">
      <defs>
       <path id="DejaVuSans-2f" d="M 628 4666 
L 1259 4666 
L 1259 531 
L 3531 531 
L 3531 0 
L 628 0 
L 628 4666 
z
" transform="scale(0.015625)"/>
       <path id="DejaVuSans-3c" d="M -13 4666 
L 666 4666 
L 1959 2747 
L 3244 4666 
L 3922 4666 
L 2272 2222 
L 2272 0 
L 1638 0 
L 1638 2222 
L -13 4666 
z
" transform="scale(0.015625)"/>
      </defs>
      <use xlink:href="#DejaVuSans-2f"/>
      <use xlink:href="#DejaVuSans-44" transform="translate(55.71875 0)"/>
      <use xlink:href="#DejaVuSans-46" transform="translate(117 0)"/>
      <use xlink:href="#DejaVuSans-3c" transform="translate(171.984375 0)"/>
     </g>
    </g>
   </g>
   <g id="line2d_26">
    <path d="M 56.88098 110.093645 
L 56.907929 110.093645 
L 56.962065 118.21479 
L 57.069519 134.45708 
L 57.129465 142.578225 
L 57.280572 142.578225 
L 57.298152 134.45708 
L 57.517289 142.578225 
L 57.658222 142.578225 
L 57.82775 158.820514 
L 58.126672 175.062804 
L 58.19186 191.305093 
L 59.711787 191.305093 
L 59.877312 183.183949 
L 59.919772 191.305093 
L 64.909314 191.305093 
L 65.230146 183.183949 
L 65.339376 191.305093 
L 82.720497 191.305093 
L 82.913626 183.183949 
L 84.695148 191.305093 
L 84.709876 183.183949 
L 84.852141 175.062804 
L 84.856765 166.941659 
L 85.176808 175.062804 
L 85.402279 175.062804 
L 85.521126 191.305093 
L 85.581547 183.183949 
L 85.770523 183.183949 
L 85.908098 191.305093 
L 89.774738 191.305093 
L 90.161974 175.062804 
L 90.163267 166.941659 
L 90.658625 166.941659 
L 90.69704 183.183949 
L 91.464107 183.183949 
L 91.631921 175.062804 
L 91.973949 191.305093 
L 108.867338 191.305093 
L 108.972341 183.183949 
L 109.091261 183.183949 
L 109.229441 191.305093 
L 109.462899 191.305093 
L 109.504111 183.183949 
L 109.917341 183.183949 
L 110.264972 175.062804 
L 110.322937 183.183949 
L 110.497054 183.183949 
L 110.526439 191.305093 
L 119.22867 191.305093 
L 119.405929 183.183949 
L 121.492473 183.183949 
L 123.327889 191.305093 
L 131.045235 191.305093 
L 131.230287 183.183949 
L 131.515973 183.183949 
L 131.623047 191.305093 
L 135.93059 191.305093 
L 136.013774 183.183949 
L 136.035497 191.305093 
L 145.963056 191.305093 
L 146.222202 175.062804 
L 146.242897 183.183949 
L 146.271716 175.062804 
L 146.384091 166.941659 
L 146.389397 175.062804 
L 146.970331 175.062804 
L 147.583493 183.183949 
L 147.827228 183.183949 
L 148.14044 175.062804 
L 148.252589 175.062804 
L 149.317526 191.305093 
L 149.774704 191.305093 
L 149.826248 175.062804 
L 149.926467 175.062804 
L 150.078305 183.183949 
L 150.211154 183.183949 
L 150.75053 191.305093 
L 155.835693 191.305093 
L 156.261192 183.183949 
L 156.499922 150.699369 
L 156.779731 150.699369 
L 156.899057 166.941659 
L 156.948601 166.941659 
L 157.048846 158.820514 
L 157.135259 158.820514 
L 157.244352 175.062804 
L 157.27237 175.062804 
L 157.360458 183.183949 
L 157.709949 183.183949 
L 157.802977 191.305093 
L 158.164784 191.305093 
L 158.27014 183.183949 
L 158.450433 183.183949 
L 158.559924 175.062804 
L 158.704873 175.062804 
L 158.759972 183.183949 
L 158.814086 175.062804 
L 158.919563 175.062804 
L 159.031406 166.941659 
L 159.182035 166.941659 
L 159.306102 183.183949 
L 159.439393 183.183949 
L 159.561619 175.062804 
L 159.709687 175.062804 
L 159.836767 158.820514 
L 160.012662 158.820514 
L 160.080916 150.699369 
L 160.123143 158.820514 
L 160.206597 158.820514 
L 160.256797 150.699369 
L 160.309036 158.820514 
L 160.4765 158.820514 
L 160.584834 175.062804 
L 160.613579 175.062804 
L 160.643894 183.183949 
L 160.652217 166.941659 
L 160.719745 166.941659 
L 160.953177 166.941659 
L 161.064446 175.062804 
L 161.34976 175.062804 
L 161.449178 183.183949 
L 161.548363 183.183949 
L 161.658377 191.305093 
L 161.929716 191.305093 
L 162.077523 183.183949 
L 162.200225 183.183949 
L 162.31463 175.062804 
L 162.351579 175.062804 
L 162.459963 183.183949 
L 162.701818 183.183949 
L 162.754469 175.062804 
L 162.807278 183.183949 
L 163.146255 183.183949 
L 163.234258 175.062804 
L 163.249862 183.183949 
L 163.320379 183.183949 
L 163.425254 175.062804 
L 163.587076 175.062804 
L 163.661687 183.183949 
L 163.748549 183.183949 
L 163.900669 175.062804 
L 163.963801 175.062804 
L 164.090304 183.183949 
L 164.17219 183.183949 
L 164.17528 175.062804 
L 164.261294 183.183949 
L 164.435668 183.183949 
L 164.562242 166.941659 
L 164.633306 166.941659 
L 164.743991 183.183949 
L 165.349526 183.183949 
L 165.465716 175.062804 
L 165.761542 175.062804 
L 165.897446 183.183949 
L 166.416105 183.183949 
L 166.511568 191.305093 
L 166.873648 191.305093 
L 166.90606 183.183949 
L 166.97023 191.305093 
L 167.789224 191.305093 
L 168.004563 183.183949 
L 168.230751 158.820514 
L 168.333955 166.941659 
L 168.355665 166.941659 
L 168.466754 158.820514 
L 168.732344 158.820514 
L 168.826252 150.699369 
L 168.905854 150.699369 
L 168.970507 166.941659 
L 169.016792 158.820514 
L 169.070328 158.820514 
L 169.165205 175.062804 
L 169.205382 175.062804 
L 169.295152 191.305093 
L 169.630999 191.305093 
L 169.730371 183.183949 
L 169.887463 183.183949 
L 169.965964 191.305093 
L 170.322096 191.305093 
L 170.4191 183.183949 
L 170.518988 191.305093 
L 170.605374 183.183949 
L 170.849594 183.183949 
L 170.975555 175.062804 
L 171.294569 175.062804 
L 171.415715 158.820514 
L 171.633638 158.820514 
L 171.707114 150.699369 
L 171.729226 158.820514 
L 171.747525 158.820514 
L 171.858084 150.699369 
L 172.153898 150.699369 
L 172.210449 142.578225 
L 172.241384 150.699369 
L 172.342333 150.699369 
L 172.459514 166.941659 
L 172.52631 166.941659 
L 172.692499 183.183949 
L 172.882371 183.183949 
L 173.009435 175.062804 
L 173.097959 175.062804 
L 173.200289 183.183949 
L 173.523168 183.183949 
L 173.618465 175.062804 
L 173.852683 175.062804 
L 173.921028 183.183949 
L 174.064821 183.183949 
L 174.194904 166.941659 
L 174.23456 166.941659 
L 174.357053 183.183949 
L 174.433779 191.305093 
L 174.439399 183.183949 
L 174.675772 183.183949 
L 174.811536 175.062804 
L 175.033288 175.062804 
L 175.139762 166.941659 
L 175.339768 166.941659 
L 175.419385 158.820514 
L 175.571604 158.820514 
L 175.683167 166.941659 
L 175.971352 166.941659 
L 176.102017 150.699369 
L 176.121699 150.699369 
L 176.205667 166.941659 
L 176.238918 166.941659 
L 176.342653 158.820514 
L 176.343411 166.941659 
L 176.492176 166.941659 
L 176.525974 175.062804 
L 176.600774 166.941659 
L 176.705163 166.941659 
L 176.819782 158.820514 
L 176.915615 158.820514 
L 177.026002 150.699369 
L 177.151184 134.45708 
L 177.270204 142.578225 
L 177.439416 142.578225 
L 177.555513 150.699369 
L 177.618709 150.699369 
L 177.698458 142.578225 
L 177.725287 150.699369 
L 177.834041 166.941659 
L 177.840236 158.820514 
L 177.885055 158.820514 
L 177.90644 175.062804 
L 177.942878 166.941659 
L 178.069269 166.941659 
L 178.096349 175.062804 
L 178.177589 166.941659 
L 178.237813 166.941659 
L 178.336802 158.820514 
L 178.421078 158.820514 
L 178.477933 166.941659 
L 178.531166 158.820514 
L 178.592984 158.820514 
L 178.595652 150.699369 
L 178.688811 158.820514 
L 178.797111 183.183949 
L 178.847505 175.062804 
L 178.999599 175.062804 
L 179.070615 183.183949 
L 179.176945 183.183949 
L 179.338421 191.305093 
L 180.116996 191.305093 
L 180.253238 183.183949 
L 180.474119 183.183949 
L 180.547052 158.820514 
L 180.56211 166.941659 
L 180.654392 166.941659 
L 180.82614 183.183949 
L 180.927616 166.941659 
L 180.952881 175.062804 
L 181.054381 175.062804 
L 181.174033 183.183949 
L 181.493043 183.183949 
L 181.580344 175.062804 
L 181.639475 175.062804 
L 181.756737 166.941659 
L 181.854665 166.941659 
L 181.931285 175.062804 
L 181.961672 166.941659 
L 182.126777 166.941659 
L 182.243101 175.062804 
L 182.35951 175.062804 
L 182.464416 191.305093 
L 182.549311 191.305093 
L 182.60521 183.183949 
L 182.819541 183.183949 
L 182.885828 175.062804 
L 182.918695 183.183949 
L 182.941822 183.183949 
L 183.187025 150.699369 
L 183.21759 150.699369 
L 183.44617 166.941659 
L 183.456853 158.820514 
L 183.484491 175.062804 
L 183.543356 175.062804 
L 183.677195 158.820514 
L 183.716285 158.820514 
L 183.751062 150.699369 
L 183.811365 158.820514 
L 183.892536 166.941659 
L 184.232978 166.941659 
L 184.285081 175.062804 
L 184.343606 166.941659 
L 184.608879 166.941659 
L 184.695815 150.699369 
L 184.876812 150.699369 
L 184.966894 142.578225 
L 185.069509 150.699369 
L 185.093266 142.578225 
L 185.168552 150.699369 
L 185.310364 150.699369 
L 185.366427 142.578225 
L 185.416384 150.699369 
L 185.558016 150.699369 
L 185.671276 158.820514 
L 185.67465 150.699369 
L 185.720524 166.941659 
L 185.776673 166.941659 
L 185.827987 166.941659 
L 185.889783 175.062804 
L 186.031994 175.062804 
L 186.193885 166.941659 
L 186.288394 166.941659 
L 186.386915 175.062804 
L 186.655617 175.062804 
L 186.68242 166.941659 
L 186.740063 175.062804 
L 186.866261 175.062804 
L 186.951047 183.183949 
L 187.532167 183.183949 
L 187.650873 175.062804 
L 188.043723 175.062804 
L 188.113043 183.183949 
L 188.450312 183.183949 
L 188.6152 175.062804 
L 188.786784 175.062804 
L 188.890868 183.183949 
L 189.057727 166.941659 
L 189.141399 175.062804 
L 189.209931 183.183949 
L 189.443383 166.941659 
L 189.497956 166.941659 
L 189.540445 158.820514 
L 189.586054 175.062804 
L 189.697816 175.062804 
L 189.772177 166.941659 
L 189.773649 175.062804 
L 189.87674 175.062804 
L 189.982705 166.941659 
L 190.115696 166.941659 
L 190.138468 158.820514 
L 190.219496 166.941659 
L 190.335807 183.183949 
L 190.910825 183.183949 
L 191.032663 175.062804 
L 191.094253 183.183949 
L 191.111455 175.062804 
L 191.330085 175.062804 
L 191.38318 166.941659 
L 191.383637 175.062804 
L 191.525816 175.062804 
L 191.6341 166.941659 
L 191.746633 175.062804 
L 191.924949 175.062804 
L 192.016965 191.305093 
L 192.16246 183.183949 
L 192.51978 183.183949 
L 192.780008 175.062804 
L 193.156277 175.062804 
L 193.226536 166.941659 
L 193.239294 175.062804 
L 193.708353 175.062804 
L 193.800558 183.183949 
L 193.895898 183.183949 
L 193.984559 175.062804 
L 193.98824 183.183949 
L 194.008197 183.183949 
L 194.143386 175.062804 
L 194.213459 183.183949 
L 194.313839 175.062804 
L 194.392752 175.062804 
L 194.451611 166.941659 
L 194.669893 183.183949 
L 194.681402 175.062804 
L 194.793825 142.578225 
L 194.911974 142.578225 
L 194.938203 150.699369 
L 194.994803 134.45708 
L 194.996947 134.45708 
L 195.058274 126.335935 
L 195.096691 134.45708 
L 195.180074 134.45708 
L 195.419928 150.699369 
L 195.493595 150.699369 
L 195.623315 175.062804 
L 195.743993 175.062804 
L 195.834665 183.183949 
L 195.918753 166.941659 
L 196.512665 166.941659 
L 196.586179 175.062804 
L 196.695348 183.183949 
L 196.833389 175.062804 
L 197.047537 175.062804 
L 197.189826 191.305093 
L 197.845231 191.305093 
L 197.964364 183.183949 
L 198.221715 183.183949 
L 198.272465 191.305093 
L 198.701911 191.305093 
L 198.76967 183.183949 
L 198.879044 191.305093 
L 198.898094 175.062804 
L 199.240081 175.062804 
L 199.319656 166.941659 
L 199.493573 166.941659 
L 199.558961 150.699369 
L 199.745994 150.699369 
L 199.821126 158.820514 
L 199.833318 150.699369 
L 199.979921 150.699369 
L 200.06667 166.941659 
L 200.119628 158.820514 
L 200.177378 166.941659 
L 200.179899 166.941659 
L 200.334169 183.183949 
L 200.494743 183.183949 
L 200.519853 175.062804 
L 200.636006 183.183949 
L 200.944123 183.183949 
L 201.206996 166.941659 
L 201.347802 150.699369 
L 201.563814 142.578225 
L 201.607144 142.578225 
L 201.721247 126.335935 
L 201.726697 126.335935 
L 201.820255 118.21479 
L 201.833369 134.45708 
L 201.897727 118.21479 
L 201.955422 126.335935 
L 202.114306 142.578225 
L 202.188002 134.45708 
L 202.214463 142.578225 
L 202.25678 142.578225 
L 202.348544 158.820514 
L 202.572503 183.183949 
L 202.648592 175.062804 
L 202.766895 158.820514 
L 202.771884 158.820514 
L 202.828282 175.062804 
L 203.316206 175.062804 
L 203.430805 166.941659 
L 203.789891 183.183949 
L 203.810284 183.183949 
L 203.943469 166.941659 
L 204.148772 166.941659 
L 204.238941 158.820514 
L 204.553997 175.062804 
L 205.409472 175.062804 
L 205.716997 166.941659 
L 205.830547 166.941659 
L 206.014028 183.183949 
L 206.139531 175.062804 
L 206.149206 183.183949 
L 206.420251 183.183949 
L 206.58955 191.305093 
L 213.176022 191.305093 
L 213.498959 183.183949 
L 213.510498 191.305093 
L 214.928769 191.305093 
L 215.043919 183.183949 
L 215.210958 191.305093 
L 215.448992 183.183949 
L 215.607953 183.183949 
L 215.632759 191.305093 
L 215.818023 191.305093 
L 215.862597 183.183949 
L 216.135848 183.183949 
L 216.16403 191.305093 
L 216.663641 183.183949 
L 217.651625 183.183949 
L 217.702654 191.305093 
L 217.722441 183.183949 
L 217.776498 183.183949 
L 217.843753 175.062804 
L 217.87328 183.183949 
L 220.809884 183.183949 
L 221.141214 191.305093 
L 223.154521 191.305093 
L 223.341725 183.183949 
L 223.461035 191.305093 
L 233.87994 191.305093 
L 234.028934 183.183949 
L 234.244757 191.305093 
L 249.497957 191.305093 
L 249.823423 183.183949 
L 249.954974 183.183949 
L 249.992363 191.305093 
L 250.172057 183.183949 
L 250.695911 183.183949 
L 250.858278 175.062804 
L 250.936397 183.183949 
L 251.232005 183.183949 
L 251.385596 191.305093 
L 253.490597 191.305093 
L 253.799623 183.183949 
L 254.344533 183.183949 
L 254.654909 191.305093 
L 266.336087 191.305093 
L 266.51518 183.183949 
L 266.596374 166.941659 
L 266.758476 166.941659 
L 266.872338 175.062804 
L 267.697258 191.305093 
L 268.942923 191.305093 
L 269.245221 183.183949 
L 269.38272 183.183949 
L 269.467156 191.305093 
L 282.953887 191.305093 
L 283.185352 166.941659 
L 283.400242 191.305093 
L 283.533439 175.062804 
L 283.565894 183.183949 
L 283.651623 183.183949 
L 283.719677 175.062804 
L 283.910453 183.183949 
L 284.127836 166.941659 
L 284.22461 183.183949 
L 284.32557 175.062804 
L 284.574138 175.062804 
L 284.59125 166.941659 
L 284.676524 175.062804 
L 284.96084 175.062804 
L 285.110972 166.941659 
L 285.206524 166.941659 
L 285.322364 183.183949 
L 285.475076 175.062804 
L 285.562317 183.183949 
L 285.723407 183.183949 
L 285.892445 175.062804 
L 285.949405 175.062804 
L 286.26564 183.183949 
L 286.450241 166.941659 
L 286.58108 183.183949 
L 286.675252 183.183949 
L 286.731407 191.305093 
L 287.140931 183.183949 
L 287.213864 175.062804 
L 287.346422 183.183949 
L 287.43851 175.062804 
L 287.674195 175.062804 
L 287.823274 183.183949 
L 287.937036 175.062804 
L 288.048911 183.183949 
L 288.164524 175.062804 
L 288.455909 175.062804 
L 288.561915 183.183949 
L 288.660179 183.183949 
L 288.857362 191.305093 
L 289.878466 191.305093 
L 289.925183 183.183949 
L 291.012889 183.183949 
L 291.304661 191.305093 
L 291.877662 191.305093 
L 292.112039 175.062804 
L 292.224445 158.820514 
L 292.287713 150.699369 
L 292.439528 166.941659 
L 292.555956 158.820514 
L 292.558181 150.699369 
L 292.802038 150.699369 
L 292.866614 166.941659 
L 292.907056 158.820514 
L 292.96296 166.941659 
L 293.061895 166.941659 
L 293.110124 158.820514 
L 293.367756 183.183949 
L 293.516397 183.183949 
L 293.751658 175.062804 
L 293.88268 158.820514 
L 293.922062 158.820514 
L 294.081618 150.699369 
L 294.158948 158.820514 
L 294.470261 158.820514 
L 294.554331 166.941659 
L 294.801617 166.941659 
L 295.104532 175.062804 
L 295.349402 183.183949 
L 295.395911 175.062804 
L 295.515274 175.062804 
L 295.614108 183.183949 
L 295.693179 175.062804 
L 295.724048 183.183949 
L 295.883551 183.183949 
L 295.88979 191.305093 
L 301.349568 191.305093 
L 301.45616 183.183949 
L 301.666217 183.183949 
L 301.725577 191.305093 
L 312.422447 191.305093 
L 312.422447 191.305093 
" clip-path="url(#p5fa4335dfc)" style="fill: none; stroke: #000000; stroke-width: 1.5; stroke-linecap: square"/>
   </g>
   <g id="patch_8">
    <path d="M 44.103906 195.365666 
L 44.103906 106.033073 
" style="fill: none; stroke: #000000; stroke-width: 0.8; stroke-linejoin: miter; stroke-linecap: square"/>
   </g>
   <g id="patch_9">
    <path d="M 325.19952 195.365666 
L 325.19952 106.033073 
" style="fill: none; stroke: #000000; stroke-width: 0.8; stroke-linejoin: miter; stroke-linecap: square"/>
   </g>
   <g id="patch_10">
    <path d="M 44.103906 195.365666 
L 325.19952 195.365666 
" style="fill: none; stroke: #000000; stroke-width: 0.8; stroke-linejoin: miter; stroke-linecap: square"/>
   </g>
   <g id="patch_11">
    <path d="M 44.103906 106.033073 
L 325.19952 106.033073 
" style="fill: none; stroke: #000000; stroke-width: 0.8; stroke-linejoin: miter; stroke-linecap: square"/>
   </g>
  </g>
  <g id="axes_3">
   <g id="patch_12">
    <path d="M 44.103906 294.198739 
L 325.19952 294.198739 
L 325.19952 204.866146 
L 44.103906 204.866146 
z
" style="fill: #ffffff"/>
   </g>
   <g id="matplotlib.axis_5">
    <g id="xtick_19">
     <g id="line2d_27">
      <g>
       <use xlink:href="#m99a8d42af4" x="56.88098" y="294.198739" style="stroke: #000000; stroke-width: 0.8"/>
      </g>
     </g>
     <g id="text_9">
      <!-- 0 -->
      <g transform="translate(53.69973 308.796395) scale(0.1 -0.1)">
       <use xlink:href="#DejaVuSans-13"/>
      </g>
     </g>
    </g>
    <g id="xtick_20">
     <g id="line2d_28">
      <g>
       <use xlink:href="#m99a8d42af4" x="88.583959" y="294.198739" style="stroke: #000000; stroke-width: 0.8"/>
      </g>
     </g>
     <g id="text_10">
      <!-- 100 -->
      <g transform="translate(79.040209 308.796395) scale(0.1 -0.1)">
       <use xlink:href="#DejaVuSans-14"/>
       <use xlink:href="#DejaVuSans-13" transform="translate(63.625 0)"/>
       <use xlink:href="#DejaVuSans-13" transform="translate(127.25 0)"/>
      </g>
     </g>
    </g>
    <g id="xtick_21">
     <g id="line2d_29">
      <g>
       <use xlink:href="#m99a8d42af4" x="120.286939" y="294.198739" style="stroke: #000000; stroke-width: 0.8"/>
      </g>
     </g>
     <g id="text_11">
      <!-- 200 -->
      <g transform="translate(110.743189 308.796395) scale(0.1 -0.1)">
       <defs>
        <path id="DejaVuSans-15" d="M 1228 531 
L 3431 531 
L 3431 0 
L 469 0 
L 469 531 
Q 828 903 1448 1529 
Q 2069 2156 2228 2338 
Q 2531 2678 2651 2914 
Q 2772 3150 2772 3378 
Q 2772 3750 2511 3984 
Q 2250 4219 1831 4219 
Q 1534 4219 1204 4116 
Q 875 4013 500 3803 
L 500 4441 
Q 881 4594 1212 4672 
Q 1544 4750 1819 4750 
Q 2544 4750 2975 4387 
Q 3406 4025 3406 3419 
Q 3406 3131 3298 2873 
Q 3191 2616 2906 2266 
Q 2828 2175 2409 1742 
Q 1991 1309 1228 531 
z
" transform="scale(0.015625)"/>
       </defs>
       <use xlink:href="#DejaVuSans-15"/>
       <use xlink:href="#DejaVuSans-13" transform="translate(63.625 0)"/>
       <use xlink:href="#DejaVuSans-13" transform="translate(127.25 0)"/>
      </g>
     </g>
    </g>
    <g id="xtick_22">
     <g id="line2d_30">
      <g>
       <use xlink:href="#m99a8d42af4" x="151.989919" y="294.198739" style="stroke: #000000; stroke-width: 0.8"/>
      </g>
     </g>
     <g id="text_12">
      <!-- 300 -->
      <g transform="translate(142.446169 308.796395) scale(0.1 -0.1)">
       <defs>
        <path id="DejaVuSans-16" d="M 2597 2516 
Q 3050 2419 3304 2112 
Q 3559 1806 3559 1356 
Q 3559 666 3084 287 
Q 2609 -91 1734 -91 
Q 1441 -91 1130 -33 
Q 819 25 488 141 
L 488 750 
Q 750 597 1062 519 
Q 1375 441 1716 441 
Q 2309 441 2620 675 
Q 2931 909 2931 1356 
Q 2931 1769 2642 2001 
Q 2353 2234 1838 2234 
L 1294 2234 
L 1294 2753 
L 1863 2753 
Q 2328 2753 2575 2939 
Q 2822 3125 2822 3475 
Q 2822 3834 2567 4026 
Q 2313 4219 1838 4219 
Q 1578 4219 1281 4162 
Q 984 4106 628 3988 
L 628 4550 
Q 988 4650 1302 4700 
Q 1616 4750 1894 4750 
Q 2613 4750 3031 4423 
Q 3450 4097 3450 3541 
Q 3450 3153 3228 2886 
Q 3006 2619 2597 2516 
z
" transform="scale(0.015625)"/>
       </defs>
       <use xlink:href="#DejaVuSans-16"/>
       <use xlink:href="#DejaVuSans-13" transform="translate(63.625 0)"/>
       <use xlink:href="#DejaVuSans-13" transform="translate(127.25 0)"/>
      </g>
     </g>
    </g>
    <g id="xtick_23">
     <g id="line2d_31">
      <g>
       <use xlink:href="#m99a8d42af4" x="183.692899" y="294.198739" style="stroke: #000000; stroke-width: 0.8"/>
      </g>
     </g>
     <g id="text_13">
      <!-- 400 -->
      <g transform="translate(174.149149 308.796395) scale(0.1 -0.1)">
       <defs>
        <path id="DejaVuSans-17" d="M 2419 4116 
L 825 1625 
L 2419 1625 
L 2419 4116 
z
M 2253 4666 
L 3047 4666 
L 3047 1625 
L 3713 1625 
L 3713 1100 
L 3047 1100 
L 3047 0 
L 2419 0 
L 2419 1100 
L 313 1100 
L 313 1709 
L 2253 4666 
z
" transform="scale(0.015625)"/>
       </defs>
       <use xlink:href="#DejaVuSans-17"/>
       <use xlink:href="#DejaVuSans-13" transform="translate(63.625 0)"/>
       <use xlink:href="#DejaVuSans-13" transform="translate(127.25 0)"/>
      </g>
     </g>
    </g>
    <g id="xtick_24">
     <g id="line2d_32">
      <g>
       <use xlink:href="#m99a8d42af4" x="215.395879" y="294.198739" style="stroke: #000000; stroke-width: 0.8"/>
      </g>
     </g>
     <g id="text_14">
      <!-- 500 -->
      <g transform="translate(205.852129 308.796395) scale(0.1 -0.1)">
       <use xlink:href="#DejaVuSans-18"/>
       <use xlink:href="#DejaVuSans-13" transform="translate(63.625 0)"/>
       <use xlink:href="#DejaVuSans-13" transform="translate(127.25 0)"/>
      </g>
     </g>
    </g>
    <g id="xtick_25">
     <g id="line2d_33">
      <g>
       <use xlink:href="#m99a8d42af4" x="247.098859" y="294.198739" style="stroke: #000000; stroke-width: 0.8"/>
      </g>
     </g>
     <g id="text_15">
      <!-- 600 -->
      <g transform="translate(237.555109 308.796395) scale(0.1 -0.1)">
       <defs>
        <path id="DejaVuSans-19" d="M 2113 2584 
Q 1688 2584 1439 2293 
Q 1191 2003 1191 1497 
Q 1191 994 1439 701 
Q 1688 409 2113 409 
Q 2538 409 2786 701 
Q 3034 994 3034 1497 
Q 3034 2003 2786 2293 
Q 2538 2584 2113 2584 
z
M 3366 4563 
L 3366 3988 
Q 3128 4100 2886 4159 
Q 2644 4219 2406 4219 
Q 1781 4219 1451 3797 
Q 1122 3375 1075 2522 
Q 1259 2794 1537 2939 
Q 1816 3084 2150 3084 
Q 2853 3084 3261 2657 
Q 3669 2231 3669 1497 
Q 3669 778 3244 343 
Q 2819 -91 2113 -91 
Q 1303 -91 875 529 
Q 447 1150 447 2328 
Q 447 3434 972 4092 
Q 1497 4750 2381 4750 
Q 2619 4750 2861 4703 
Q 3103 4656 3366 4563 
z
" transform="scale(0.015625)"/>
       </defs>
       <use xlink:href="#DejaVuSans-19"/>
       <use xlink:href="#DejaVuSans-13" transform="translate(63.625 0)"/>
       <use xlink:href="#DejaVuSans-13" transform="translate(127.25 0)"/>
      </g>
     </g>
    </g>
    <g id="xtick_26">
     <g id="line2d_34">
      <g>
       <use xlink:href="#m99a8d42af4" x="278.801839" y="294.198739" style="stroke: #000000; stroke-width: 0.8"/>
      </g>
     </g>
     <g id="text_16">
      <!-- 700 -->
      <g transform="translate(269.258089 308.796395) scale(0.1 -0.1)">
       <defs>
        <path id="DejaVuSans-1a" d="M 525 4666 
L 3525 4666 
L 3525 4397 
L 1831 0 
L 1172 0 
L 2766 4134 
L 525 4134 
L 525 4666 
z
" transform="scale(0.015625)"/>
       </defs>
       <use xlink:href="#DejaVuSans-1a"/>
       <use xlink:href="#DejaVuSans-13" transform="translate(63.625 0)"/>
       <use xlink:href="#DejaVuSans-13" transform="translate(127.25 0)"/>
      </g>
     </g>
    </g>
    <g id="xtick_27">
     <g id="line2d_35">
      <g>
       <use xlink:href="#m99a8d42af4" x="310.504819" y="294.198739" style="stroke: #000000; stroke-width: 0.8"/>
      </g>
     </g>
     <g id="text_17">
      <!-- 800 -->
      <g transform="translate(300.961069 308.796395) scale(0.1 -0.1)">
       <defs>
        <path id="DejaVuSans-1b" d="M 2034 2216 
Q 1584 2216 1326 1975 
Q 1069 1734 1069 1313 
Q 1069 891 1326 650 
Q 1584 409 2034 409 
Q 2484 409 2743 651 
Q 3003 894 3003 1313 
Q 3003 1734 2745 1975 
Q 2488 2216 2034 2216 
z
M 1403 2484 
Q 997 2584 770 2862 
Q 544 3141 544 3541 
Q 544 4100 942 4425 
Q 1341 4750 2034 4750 
Q 2731 4750 3128 4425 
Q 3525 4100 3525 3541 
Q 3525 3141 3298 2862 
Q 3072 2584 2669 2484 
Q 3125 2378 3379 2068 
Q 3634 1759 3634 1313 
Q 3634 634 3220 271 
Q 2806 -91 2034 -91 
Q 1263 -91 848 271 
Q 434 634 434 1313 
Q 434 1759 690 2068 
Q 947 2378 1403 2484 
z
M 1172 3481 
Q 1172 3119 1398 2916 
Q 1625 2713 2034 2713 
Q 2441 2713 2670 2916 
Q 2900 3119 2900 3481 
Q 2900 3844 2670 4047 
Q 2441 4250 2034 4250 
Q 1625 4250 1398 4047 
Q 1172 3844 1172 3481 
z
" transform="scale(0.015625)"/>
       </defs>
       <use xlink:href="#DejaVuSans-1b"/>
       <use xlink:href="#DejaVuSans-13" transform="translate(63.625 0)"/>
       <use xlink:href="#DejaVuSans-13" transform="translate(127.25 0)"/>
      </g>
     </g>
    </g>
    <g id="text_18">
     <!-- Time -->
     <g transform="translate(172.415776 322.797176) scale(0.1 -0.1)">
      <defs>
       <path id="DejaVuSans-37" d="M -19 4666 
L 3928 4666 
L 3928 4134 
L 2272 4134 
L 2272 0 
L 1638 0 
L 1638 4134 
L -19 4134 
L -19 4666 
z
" transform="scale(0.015625)"/>
       <path id="DejaVuSans-4c" d="M 603 3500 
L 1178 3500 
L 1178 0 
L 603 0 
L 603 3500 
z
M 603 4863 
L 1178 4863 
L 1178 4134 
L 603 4134 
L 603 4863 
z
" transform="scale(0.015625)"/>
       <path id="DejaVuSans-50" d="M 3328 2828 
Q 3544 3216 3844 3400 
Q 4144 3584 4550 3584 
Q 5097 3584 5394 3201 
Q 5691 2819 5691 2113 
L 5691 0 
L 5113 0 
L 5113 2094 
Q 5113 2597 4934 2840 
Q 4756 3084 4391 3084 
Q 3944 3084 3684 2787 
Q 3425 2491 3425 1978 
L 3425 0 
L 2847 0 
L 2847 2094 
Q 2847 2600 2669 2842 
Q 2491 3084 2119 3084 
Q 1678 3084 1418 2786 
Q 1159 2488 1159 1978 
L 1159 0 
L 581 0 
L 581 3500 
L 1159 3500 
L 1159 2956 
Q 1356 3278 1631 3431 
Q 1906 3584 2284 3584 
Q 2666 3584 2933 3390 
Q 3200 3197 3328 2828 
z
" transform="scale(0.015625)"/>
      </defs>
      <use xlink:href="#DejaVuSans-37"/>
      <use xlink:href="#DejaVuSans-4c" transform="translate(58 0)"/>
      <use xlink:href="#DejaVuSans-50" transform="translate(85.78125 0)"/>
      <use xlink:href="#DejaVuSans-48" transform="translate(183.1875 0)"/>
     </g>
    </g>
   </g>
   <g id="matplotlib.axis_6">
    <g id="ytick_7">
     <g id="line2d_36">
      <g>
       <use xlink:href="#mf0011a7e7d" x="44.103906" y="290.138166" style="stroke: #000000; stroke-width: 0.8"/>
      </g>
     </g>
     <g id="text_19">
      <!-- 0.0 -->
      <g transform="translate(21.200781 293.936994) scale(0.1 -0.1)">
       <defs>
        <path id="DejaVuSans-11" d="M 684 794 
L 1344 794 
L 1344 0 
L 684 0 
L 684 794 
z
" transform="scale(0.015625)"/>
       </defs>
       <use xlink:href="#DejaVuSans-13"/>
       <use xlink:href="#DejaVuSans-11" transform="translate(63.625 0)"/>
       <use xlink:href="#DejaVuSans-13" transform="translate(95.40625 0)"/>
      </g>
     </g>
    </g>
    <g id="ytick_8">
     <g id="line2d_37">
      <g>
       <use xlink:href="#mf0011a7e7d" x="44.103906" y="249.532442" style="stroke: #000000; stroke-width: 0.8"/>
      </g>
     </g>
     <g id="text_20">
      <!-- 0.5 -->
      <g transform="translate(21.200781 253.33127) scale(0.1 -0.1)">
       <use xlink:href="#DejaVuSans-13"/>
       <use xlink:href="#DejaVuSans-11" transform="translate(63.625 0)"/>
       <use xlink:href="#DejaVuSans-18" transform="translate(95.40625 0)"/>
      </g>
     </g>
    </g>
    <g id="ytick_9">
     <g id="line2d_38">
      <g>
       <use xlink:href="#mf0011a7e7d" x="44.103906" y="208.926718" style="stroke: #000000; stroke-width: 0.8"/>
      </g>
     </g>
     <g id="text_21">
      <!-- 1.0 -->
      <g transform="translate(21.200781 212.725546) scale(0.1 -0.1)">
       <use xlink:href="#DejaVuSans-14"/>
       <use xlink:href="#DejaVuSans-11" transform="translate(63.625 0)"/>
       <use xlink:href="#DejaVuSans-13" transform="translate(95.40625 0)"/>
      </g>
     </g>
    </g>
    <g id="text_22">
     <!-- Free lac operon -->
     <g transform="translate(14.798438 288.006661) rotate(-90) scale(0.1 -0.1)">
      <defs>
       <path id="DejaVuSans-29" d="M 628 4666 
L 3309 4666 
L 3309 4134 
L 1259 4134 
L 1259 2759 
L 3109 2759 
L 3109 2228 
L 1259 2228 
L 1259 0 
L 628 0 
L 628 4666 
z
" transform="scale(0.015625)"/>
       <path id="DejaVuSans-53" d="M 1159 525 
L 1159 -1331 
L 581 -1331 
L 581 3500 
L 1159 3500 
L 1159 2969 
Q 1341 3281 1617 3432 
Q 1894 3584 2278 3584 
Q 2916 3584 3314 3078 
Q 3713 2572 3713 1747 
Q 3713 922 3314 415 
Q 2916 -91 2278 -91 
Q 1894 -91 1617 61 
Q 1341 213 1159 525 
z
M 3116 1747 
Q 3116 2381 2855 2742 
Q 2594 3103 2138 3103 
Q 1681 3103 1420 2742 
Q 1159 2381 1159 1747 
Q 1159 1113 1420 752 
Q 1681 391 2138 391 
Q 2594 391 2855 752 
Q 3116 1113 3116 1747 
z
" transform="scale(0.015625)"/>
       <path id="DejaVuSans-51" d="M 3513 2113 
L 3513 0 
L 2938 0 
L 2938 2094 
Q 2938 2591 2744 2837 
Q 2550 3084 2163 3084 
Q 1697 3084 1428 2787 
Q 1159 2491 1159 1978 
L 1159 0 
L 581 0 
L 581 3500 
L 1159 3500 
L 1159 2956 
Q 1366 3272 1645 3428 
Q 1925 3584 2291 3584 
Q 2894 3584 3203 3211 
Q 3513 2838 3513 2113 
z
" transform="scale(0.015625)"/>
      </defs>
      <use xlink:href="#DejaVuSans-29"/>
      <use xlink:href="#DejaVuSans-55" transform="translate(50.234375 0)"/>
      <use xlink:href="#DejaVuSans-48" transform="translate(89.140625 0)"/>
      <use xlink:href="#DejaVuSans-48" transform="translate(150.671875 0)"/>
      <use xlink:href="#DejaVuSans-3" transform="translate(212.203125 0)"/>
      <use xlink:href="#DejaVuSans-4f" transform="translate(243.984375 0)"/>
      <use xlink:href="#DejaVuSans-44" transform="translate(271.765625 0)"/>
      <use xlink:href="#DejaVuSans-46" transform="translate(333.046875 0)"/>
      <use xlink:href="#DejaVuSans-3" transform="translate(388.03125 0)"/>
      <use xlink:href="#DejaVuSans-52" transform="translate(419.8125 0)"/>
      <use xlink:href="#DejaVuSans-53" transform="translate(481 0)"/>
      <use xlink:href="#DejaVuSans-48" transform="translate(544.484375 0)"/>
      <use xlink:href="#DejaVuSans-55" transform="translate(606.015625 0)"/>
      <use xlink:href="#DejaVuSans-52" transform="translate(644.921875 0)"/>
      <use xlink:href="#DejaVuSans-51" transform="translate(706.109375 0)"/>
     </g>
    </g>
   </g>
   <g id="line2d_39">
    <path d="M 56.88098 208.926718 
L 56.962065 290.138166 
L 57.129465 290.138166 
L 57.298152 208.926718 
L 57.415696 208.926718 
L 57.517289 290.138166 
L 58.727158 290.138166 
L 59.711787 208.926718 
L 59.897148 208.926718 
L 59.919772 290.138166 
L 62.328463 290.138166 
L 64.909314 208.926718 
L 65.202656 208.926718 
L 65.339376 290.138166 
L 65.464586 290.138166 
L 72.091912 208.926718 
L 72.260807 290.138166 
L 80.059093 208.926718 
L 80.107871 290.138166 
L 82.720497 208.926718 
L 82.859749 208.926718 
L 82.913626 290.138166 
L 84.644788 290.138166 
L 84.709876 208.926718 
L 85.581547 208.926718 
L 85.770523 290.138166 
L 86.797918 290.138166 
L 89.774738 208.926718 
L 90.311895 208.926718 
L 90.34102 290.138166 
L 90.69704 290.138166 
L 91.573783 208.926718 
L 91.631921 290.138166 
L 91.973949 290.138166 
L 108.958711 208.926718 
L 108.972341 290.138166 
L 109.229441 290.138166 
L 109.504111 208.926718 
L 109.789948 290.138166 
L 109.917341 208.926718 
L 110.322937 208.926718 
L 110.526439 290.138166 
L 110.817533 290.138166 
L 114.957678 208.926718 
L 115.614808 290.138166 
L 117.248159 208.926718 
L 117.561722 290.138166 
L 118.230588 208.926718 
L 118.317451 290.138166 
L 119.321469 208.926718 
L 119.405929 290.138166 
L 123.327889 290.138166 
L 129.314878 208.926718 
L 129.420264 290.138166 
L 131.153314 208.926718 
L 131.60172 208.926718 
L 131.623047 290.138166 
L 133.453597 290.138166 
L 136.035497 208.926718 
L 136.048734 290.138166 
L 138.91454 208.926718 
L 138.957045 290.138166 
L 145.963056 208.926718 
L 146.90238 208.926718 
L 146.970331 290.138166 
L 147.583493 290.138166 
L 147.827228 208.926718 
L 148.14044 208.926718 
L 148.252589 290.138166 
L 149.317526 290.138166 
L 149.826248 208.926718 
L 149.926467 290.138166 
L 151.041622 290.138166 
L 151.052883 208.926718 
L 151.213564 290.138166 
L 155.499234 208.926718 
L 155.587696 290.138166 
L 155.835693 208.926718 
L 206.401187 208.926718 
L 206.420251 290.138166 
L 211.801244 290.138166 
L 213.176022 208.926718 
L 213.442158 208.926718 
L 213.510498 290.138166 
L 214.036068 290.138166 
L 214.499848 208.926718 
L 214.656724 290.138166 
L 214.928769 208.926718 
L 216.663641 208.926718 
L 217.06875 290.138166 
L 217.55107 290.138166 
L 217.722441 208.926718 
L 217.87328 208.926718 
L 218.042788 290.138166 
L 221.141214 290.138166 
L 222.604182 208.926718 
L 222.701319 290.138166 
L 223.154521 208.926718 
L 223.461035 208.926718 
L 223.629974 290.138166 
L 223.682881 208.926718 
L 223.734209 290.138166 
L 224.996216 290.138166 
L 233.87994 208.926718 
L 234.024486 208.926718 
L 234.028934 290.138166 
L 234.510019 290.138166 
L 245.427978 208.926718 
L 245.565674 290.138166 
L 247.787003 208.926718 
L 248.120342 290.138166 
L 249.330525 208.926718 
L 249.354764 290.138166 
L 249.497957 208.926718 
L 250.816771 208.926718 
L 250.82098 290.138166 
L 250.881471 208.926718 
L 250.936397 208.926718 
L 251.232005 290.138166 
L 251.385596 290.138166 
L 253.490597 208.926718 
L 253.786981 208.926718 
L 253.799623 290.138166 
L 254.654909 290.138166 
L 265.948556 208.926718 
L 266.082628 290.138166 
L 266.336087 208.926718 
L 266.644328 208.926718 
L 266.758476 290.138166 
L 267.697258 290.138166 
L 268.942923 208.926718 
L 269.153028 208.926718 
L 269.245221 290.138166 
L 269.391025 208.926718 
L 269.467156 290.138166 
L 270.088624 208.926718 
L 270.406653 290.138166 
L 276.47106 208.926718 
L 276.710707 290.138166 
L 281.138286 208.926718 
L 281.158658 290.138166 
L 283.026251 208.926718 
L 288.26693 208.926718 
L 288.442229 290.138166 
L 289.803914 290.138166 
L 289.925183 208.926718 
L 290.048344 208.926718 
L 290.050442 290.138166 
L 291.304661 290.138166 
L 291.735164 208.926718 
L 295.88979 208.926718 
L 296.023257 290.138166 
L 297.809395 290.138166 
L 299.401415 208.926718 
L 299.510917 290.138166 
L 301.45616 208.926718 
L 301.725577 290.138166 
L 308.033706 208.926718 
L 308.071603 290.138166 
L 312.422447 208.926718 
L 312.422447 208.926718 
" clip-path="url(#p90a256c2f9)" style="fill: none; stroke: #000000; stroke-width: 1.5; stroke-linecap: square"/>
   </g>
   <g id="patch_13">
    <path d="M 44.103906 294.198739 
L 44.103906 204.866146 
" style="fill: none; stroke: #000000; stroke-width: 0.8; stroke-linejoin: miter; stroke-linecap: square"/>
   </g>
   <g id="patch_14">
    <path d="M 325.19952 294.198739 
L 325.19952 204.866146 
" style="fill: none; stroke: #000000; stroke-width: 0.8; stroke-linejoin: miter; stroke-linecap: square"/>
   </g>
   <g id="patch_15">
    <path d="M 44.103906 294.198739 
L 325.19952 294.198739 
" style="fill: none; stroke: #000000; stroke-width: 0.8; stroke-linejoin: miter; stroke-linecap: square"/>
   </g>
   <g id="patch_16">
    <path d="M 44.103906 204.866146 
L 325.19952 204.866146 
" style="fill: none; stroke: #000000; stroke-width: 0.8; stroke-linejoin: miter; stroke-linecap: square"/>
   </g>
  </g>
 </g>
 <defs>
  <clipPath id="p1ebe97e64a">
   <rect x="44.103906" y="7.2" width="281.095614" height="89.332593"/>
  </clipPath>
  <clipPath id="p5fa4335dfc">
   <rect x="44.103906" y="106.033073" width="281.095614" height="89.332593"/>
  </clipPath>
  <clipPath id="p90a256c2f9">
   <rect x="44.103906" y="204.866146" width="281.095614" height="89.332593"/>
  </clipPath>
 </defs>
</svg>
