<?xml version="1.0" encoding="utf-8" standalone="no"?>
<!DOCTYPE svg PUBLIC "-//W3C//DTD SVG 1.1//EN"
  "http://www.w3.org/Graphics/SVG/1.1/DTD/svg11.dtd">
<svg xmlns:xlink="http://www.w3.org/1999/xlink" width="332.39952pt" height="338.705099pt" viewBox="0 0 332.39952 338.705099" xmlns="http://www.w3.org/2000/svg" version="1.1">
 <metadata>
  <rdf:RDF xmlns:dc="http://purl.org/dc/elements/1.1/" xmlns:cc="http://creativecommons.org/ns#" xmlns:rdf="http://www.w3.org/1999/02/22-rdf-syntax-ns#">
   <cc:Work>
    <dc:type rdf:resource="http://purl.org/dc/dcmitype/StillImage"/>
    <dc:date>2026-07-21T19:53:46.771654</dc:date>
    <dc:format>image/svg+xml</dc:format>
    <dc:creator>
     <cc:Agent>
      <dc:title>Matplotlib v3.11.1, https://matplotlib.org/</dc:title>
     </cc:Agent>
    </dc:creator>
   </cc:Work>
  </rdf:RDF>
 </metadata>
 <defs>
  <style type="text/css">*{stroke-linejoin: round; stroke-linecap: butt}</style>
 </defs>
 <g id="figure_1">
  <g id="patch_1">
   <path d="M 0 338.705099 
L 332.39952 338.705099 
L 332.39952 0 
L 0 0 
z
" style="fill: #ffffff"/>
  </g>
  <g id="axes_1">
   <g id="patch_2">
    <path d="M 44.103906 102.838171 
L 325.19952 102.838171 
L 325.19952 13.505579 
L 44.103906 13.505579 
z
" style="fill: #ffffff"/>
   </g>
   <g id="matplotlib.axis_1">
    <g id="xtick_1">
     <g id="line2d_1">
      <defs>
       <path id="mf9ec5b912b" d="M 0 0 
L 0 3.5 
" style="stroke: #000000; stroke-width: 0.8"/>
      </defs>
      <g>
       <use xlink:href="#mf9ec5b912b" x="56.88098" y="102.838171" style="stroke: #000000; stroke-width: 0.8"/>
      </g>
     </g>
    </g>
    <g id="xtick_2">
     <g id="line2d_2">
      <g>
       <use xlink:href="#mf9ec5b912b" x="88.817076" y="102.838171" style="stroke: #000000; stroke-width: 0.8"/>
      </g>
     </g>
    </g>
    <g id="xtick_3">
     <g id="line2d_3">
      <g>
       <use xlink:href="#mf9ec5b912b" x="120.753173" y="102.838171" style="stroke: #000000; stroke-width: 0.8"/>
      </g>
     </g>
    </g>
    <g id="xtick_4">
     <g id="line2d_4">
      <g>
       <use xlink:href="#mf9ec5b912b" x="152.68927" y="102.838171" style="stroke: #000000; stroke-width: 0.8"/>
      </g>
     </g>
    </g>
    <g id="xtick_5">
     <g id="line2d_5">
      <g>
       <use xlink:href="#mf9ec5b912b" x="184.625366" y="102.838171" style="stroke: #000000; stroke-width: 0.8"/>
      </g>
     </g>
    </g>
    <g id="xtick_6">
     <g id="line2d_6">
      <g>
       <use xlink:href="#mf9ec5b912b" x="216.561463" y="102.838171" style="stroke: #000000; stroke-width: 0.8"/>
      </g>
     </g>
    </g>
    <g id="xtick_7">
     <g id="line2d_7">
      <g>
       <use xlink:href="#mf9ec5b912b" x="248.49756" y="102.838171" style="stroke: #000000; stroke-width: 0.8"/>
      </g>
     </g>
    </g>
    <g id="xtick_8">
     <g id="line2d_8">
      <g>
       <use xlink:href="#mf9ec5b912b" x="280.433656" y="102.838171" style="stroke: #000000; stroke-width: 0.8"/>
      </g>
     </g>
    </g>
    <g id="xtick_9">
     <g id="line2d_9">
      <g>
       <use xlink:href="#mf9ec5b912b" x="312.369753" y="102.838171" style="stroke: #000000; stroke-width: 0.8"/>
      </g>
     </g>
    </g>
   </g>
   <g id="matplotlib.axis_2">
    <g id="ytick_1">
     <g id="line2d_10">
      <defs>
       <path id="m9306f6a9db" d="M 0 0 
L -3.5 0 
" style="stroke: #000000; stroke-width: 0.8"/>
      </defs>
      <g>
       <use xlink:href="#m9306f6a9db" x="44.103906" y="98.777599" style="stroke: #000000; stroke-width: 0.8"/>
      </g>
     </g>
     <g id="text_1">
      <!-- 0 -->
      <g transform="translate(30.741406 102.576427) scale(0.1 -0.1)">
       <defs>
        <path id="DejaVuSans-13" d="M 2034 4250 
Q 1547 4250 1301 3770 
Q 1056 3291 1056 2328 
Q 1056 1369 1301 889 
Q 1547 409 2034 409 
Q 2525 409 2770 889 
Q 3016 1369 3016 2328 
Q 3016 3291 2770 3770 
Q 2525 4250 2034 4250 
z
M 2034 4750 
Q 2819 4750 3233 4129 
Q 3647 3509 3647 2328 
Q 3647 1150 3233 529 
Q 2819 -91 2034 -91 
Q 1250 -91 836 529 
Q 422 1150 422 2328 
Q 422 3509 836 4129 
Q 1250 4750 2034 4750 
z
" transform="scale(0.015625)"/>
       </defs>
       <use xlink:href="#DejaVuSans-13"/>
      </g>
     </g>
    </g>
    <g id="ytick_2">
     <g id="line2d_11">
      <g>
       <use xlink:href="#m9306f6a9db" x="44.103906" y="58.171875" style="stroke: #000000; stroke-width: 0.8"/>
      </g>
     </g>
     <g id="text_2">
      <!-- 5 -->
      <g transform="translate(30.741406 61.970703) scale(0.1 -0.1)">
       <defs>
        <path id="DejaVuSans-18" d="M 691 4666 
L 3169 4666 
L 3169 4134 
L 1269 4134 
L 1269 2991 
Q 1406 3038 1543 3061 
Q 1681 3084 1819 3084 
Q 2600 3084 3056 2656 
Q 3513 2228 3513 1497 
Q 3513 744 3044 326 
Q 2575 -91 1722 -91 
Q 1428 -91 1123 -41 
Q 819 9 494 109 
L 494 744 
Q 775 591 1075 516 
Q 1375 441 1709 441 
Q 2250 441 2565 725 
Q 2881 1009 2881 1497 
Q 2881 1984 2565 2268 
Q 2250 2553 1709 2553 
Q 1456 2553 1204 2497 
Q 953 2441 691 2322 
L 691 4666 
z
" transform="scale(0.015625)"/>
       </defs>
       <use xlink:href="#DejaVuSans-18"/>
      </g>
     </g>
    </g>
    <g id="ytick_3">
     <g id="line2d_12">
      <g>
       <use xlink:href="#m9306f6a9db" x="44.103906" y="17.566151" style="stroke: #000000; stroke-width: 0.8"/>
      </g>
     </g>
     <g id="text_3">
      <!-- 10 -->
      <g transform="translate(24.378906 21.364979) scale(0.1 -0.1)">
       <defs>
        <path id="DejaVuSans-14" d="M 794 531 
L 1825 531 
L 1825 4091 
L 703 3866 
L 703 4441 
L 1819 4666 
L 2450 4666 
L 2450 531 
L 3481 531 
L 3481 0 
L 794 0 
L 794 531 
z
" transform="scale(0.015625)"/>
       </defs>
       <use xlink:href="#DejaVuSans-14"/>
       <use xlink:href="#DejaVuSans-13" transform="translate(63.625 0)"/>
      </g>
     </g>
    </g>
    <g id="text_4">
     <!-- Extracellular lactose -->
     <g transform="translate(17.976563 109.14375) rotate(-90) scale(0.1 -0.1)">
      <defs>
       <path id="DejaVuSans-28" d="M 628 4666 
L 3578 4666 
L 3578 4134 
L 1259 4134 
L 1259 2753 
L 3481 2753 
L 3481 2222 
L 1259 2222 
L 1259 531 
L 3634 531 
L 3634 0 
L 628 0 
L 628 4666 
z
" transform="scale(0.015625)"/>
       <path id="DejaVuSans-5b" d="M 3513 3500 
L 2247 1797 
L 3578 0 
L 2900 0 
L 1881 1375 
L 863 0 
L 184 0 
L 1544 1831 
L 300 3500 
L 978 3500 
L 1906 2253 
L 2834 3500 
L 3513 3500 
z
" transform="scale(0.015625)"/>
       <path id="DejaVuSans-57" d="M 1172 4494 
L 1172 3500 
L 2356 3500 
L 2356 3053 
L 1172 3053 
L 1172 1153 
Q 1172 725 1289 603 
Q 1406 481 1766 481 
L 2356 481 
L 2356 0 
L 1766 0 
Q 1100 0 847 248 
Q 594 497 594 1153 
L 594 3053 
L 172 3053 
L 172 3500 
L 594 3500 
L 594 4494 
L 1172 4494 
z
" transform="scale(0.015625)"/>
       <path id="DejaVuSans-55" d="M 2631 2963 
Q 2534 3019 2420 3045 
Q 2306 3072 2169 3072 
Q 1681 3072 1420 2755 
Q 1159 2438 1159 1844 
L 1159 0 
L 581 0 
L 581 3500 
L 1159 3500 
L 1159 2956 
Q 1341 3275 1631 3429 
Q 1922 3584 2338 3584 
Q 2397 3584 2469 3576 
Q 2541 3569 2628 3553 
L 2631 2963 
z
" transform="scale(0.015625)"/>
       <path id="DejaVuSans-44" d="M 2194 1759 
Q 1497 1759 1228 1600 
Q 959 1441 959 1056 
Q 959 750 1161 570 
Q 1363 391 1709 391 
Q 2188 391 2477 730 
Q 2766 1069 2766 1631 
L 2766 1759 
L 2194 1759 
z
M 3341 1997 
L 3341 0 
L 2766 0 
L 2766 531 
Q 2569 213 2275 61 
Q 1981 -91 1556 -91 
Q 1019 -91 701 211 
Q 384 513 384 1019 
Q 384 1609 779 1909 
Q 1175 2209 1959 2209 
L 2766 2209 
L 2766 2266 
Q 2766 2663 2505 2880 
Q 2244 3097 1772 3097 
Q 1472 3097 1187 3025 
Q 903 2953 641 2809 
L 641 3341 
Q 956 3463 1253 3523 
Q 1550 3584 1831 3584 
Q 2591 3584 2966 3190 
Q 3341 2797 3341 1997 
z
" transform="scale(0.015625)"/>
       <path id="DejaVuSans-46" d="M 3122 3366 
L 3122 2828 
Q 2878 2963 2633 3030 
Q 2388 3097 2138 3097 
Q 1578 3097 1268 2742 
Q 959 2388 959 1747 
Q 959 1106 1268 751 
Q 1578 397 2138 397 
Q 2388 397 2633 464 
Q 2878 531 3122 666 
L 3122 134 
Q 2881 22 2623 -34 
Q 2366 -91 2075 -91 
Q 1284 -91 818 406 
Q 353 903 353 1747 
Q 353 2603 823 3093 
Q 1294 3584 2113 3584 
Q 2378 3584 2631 3529 
Q 2884 3475 3122 3366 
z
" transform="scale(0.015625)"/>
       <path id="DejaVuSans-48" d="M 3597 1894 
L 3597 1613 
L 953 1613 
Q 991 1019 1311 708 
Q 1631 397 2203 397 
Q 2534 397 2845 478 
Q 3156 559 3463 722 
L 3463 178 
Q 3153 47 2828 -22 
Q 2503 -91 2169 -91 
Q 1331 -91 842 396 
Q 353 884 353 1716 
Q 353 2575 817 3079 
Q 1281 3584 2069 3584 
Q 2775 3584 3186 3129 
Q 3597 2675 3597 1894 
z
M 3022 2063 
Q 3016 2534 2758 2815 
Q 2500 3097 2075 3097 
Q 1594 3097 1305 2825 
Q 1016 2553 972 2059 
L 3022 2063 
z
" transform="scale(0.015625)"/>
       <path id="DejaVuSans-4f" d="M 603 4863 
L 1178 4863 
L 1178 0 
L 603 0 
L 603 4863 
z
" transform="scale(0.015625)"/>
       <path id="DejaVuSans-58" d="M 544 1381 
L 544 3500 
L 1119 3500 
L 1119 1403 
Q 1119 906 1312 657 
Q 1506 409 1894 409 
Q 2359 409 2629 706 
Q 2900 1003 2900 1516 
L 2900 3500 
L 3475 3500 
L 3475 0 
L 2900 0 
L 2900 538 
Q 2691 219 2414 64 
Q 2138 -91 1772 -91 
Q 1169 -91 856 284 
Q 544 659 544 1381 
z
M 1991 3584 
L 1991 3584 
z
" transform="scale(0.015625)"/>
       <path id="DejaVuSans-3" transform="scale(0.015625)"/>
       <path id="DejaVuSans-52" d="M 1959 3097 
Q 1497 3097 1228 2736 
Q 959 2375 959 1747 
Q 959 1119 1226 758 
Q 1494 397 1959 397 
Q 2419 397 2687 759 
Q 2956 1122 2956 1747 
Q 2956 2369 2687 2733 
Q 2419 3097 1959 3097 
z
M 1959 3584 
Q 2709 3584 3137 3096 
Q 3566 2609 3566 1747 
Q 3566 888 3137 398 
Q 2709 -91 1959 -91 
Q 1206 -91 779 398 
Q 353 888 353 1747 
Q 353 2609 779 3096 
Q 1206 3584 1959 3584 
z
" transform="scale(0.015625)"/>
       <path id="DejaVuSans-56" d="M 2834 3397 
L 2834 2853 
Q 2591 2978 2328 3040 
Q 2066 3103 1784 3103 
Q 1356 3103 1142 2972 
Q 928 2841 928 2578 
Q 928 2378 1081 2264 
Q 1234 2150 1697 2047 
L 1894 2003 
Q 2506 1872 2764 1633 
Q 3022 1394 3022 966 
Q 3022 478 2636 193 
Q 2250 -91 1575 -91 
Q 1294 -91 989 -36 
Q 684 19 347 128 
L 347 722 
Q 666 556 975 473 
Q 1284 391 1588 391 
Q 1994 391 2212 530 
Q 2431 669 2431 922 
Q 2431 1156 2273 1281 
Q 2116 1406 1581 1522 
L 1381 1569 
Q 847 1681 609 1914 
Q 372 2147 372 2553 
Q 372 3047 722 3315 
Q 1072 3584 1716 3584 
Q 2034 3584 2315 3537 
Q 2597 3491 2834 3397 
z
" transform="scale(0.015625)"/>
      </defs>
      <use xlink:href="#DejaVuSans-28"/>
      <use xlink:href="#DejaVuSans-5b" transform="translate(63.1875 0)"/>
      <use xlink:href="#DejaVuSans-57" transform="translate(122.375 0)"/>
      <use xlink:href="#DejaVuSans-55" transform="translate(161.578125 0)"/>
      <use xlink:href="#DejaVuSans-44" transform="translate(202.6875 0)"/>
      <use xlink:href="#DejaVuSans-46" transform="translate(263.96875 0)"/>
      <use xlink:href="#DejaVuSans-48" transform="translate(318.953125 0)"/>
      <use xlink:href="#DejaVuSans-4f" transform="translate(380.484375 0)"/>
      <use xlink:href="#DejaVuSans-4f" transform="translate(408.265625 0)"/>
      <use xlink:href="#DejaVuSans-58" transform="translate(436.046875 0)"/>
      <use xlink:href="#DejaVuSans-4f" transform="translate(499.421875 0)"/>
      <use xlink:href="#DejaVuSans-44" transform="translate(527.203125 0)"/>
      <use xlink:href="#DejaVuSans-55" transform="translate(588.484375 0)"/>
      <use xlink:href="#DejaVuSans-3" transform="translate(629.59375 0)"/>
      <use xlink:href="#DejaVuSans-4f" transform="translate(661.375 0)"/>
      <use xlink:href="#DejaVuSans-44" transform="translate(689.15625 0)"/>
      <use xlink:href="#DejaVuSans-46" transform="translate(750.4375 0)"/>
      <use xlink:href="#DejaVuSans-57" transform="translate(805.421875 0)"/>
      <use xlink:href="#DejaVuSans-52" transform="translate(844.625 0)"/>
      <use xlink:href="#DejaVuSans-56" transform="translate(905.8125 0)"/>
      <use xlink:href="#DejaVuSans-48" transform="translate(957.90625 0)"/>
     </g>
    </g>
   </g>
   <g id="line2d_13">
    <path d="M 56.88098 98.777599 
L 156.224389 98.777599 
L 156.313501 17.566151 
L 156.981603 17.647362 
L 157.09931 17.972208 
L 157.144133 18.05342 
L 157.290351 19.515226 
L 157.408713 21.139455 
L 157.422543 21.220666 
L 157.56608 22.926107 
L 157.589633 23.007318 
L 158.099299 26.49941 
L 158.376575 26.905467 
L 158.435878 26.986679 
L 158.542576 27.06789 
L 158.956036 27.149102 
L 159.057707 27.473948 
L 159.315324 27.880005 
L 159.415743 28.286062 
L 159.536269 28.367274 
L 159.638981 28.854542 
L 159.668966 28.935754 
L 159.777897 29.82908 
L 159.87509 30.722406 
L 160.214111 32.103 
L 160.260083 32.184212 
L 160.496168 33.564806 
L 160.694582 35.026612 
L 160.713395 35.107824 
L 160.992764 37.462956 
L 161.020278 37.544167 
L 161.13286 38.27507 
L 161.235634 38.356282 
L 161.347059 38.84355 
L 161.397252 38.924762 
L 161.516886 39.736876 
L 161.536899 39.818088 
L 161.670005 40.305356 
L 161.721263 40.386568 
L 161.879984 41.117471 
L 162.042824 41.198682 
L 162.193682 41.60474 
L 162.376206 41.848374 
L 162.933 41.929585 
L 163.100527 42.579277 
L 163.179696 42.660488 
L 163.282581 42.904123 
L 163.462311 42.985334 
L 163.605815 43.553814 
L 163.753046 43.87866 
L 163.776148 43.959872 
L 163.878793 44.203506 
L 164.296504 45.178043 
L 164.435989 45.665312 
L 164.521971 45.746523 
L 164.702129 46.396215 
L 164.869623 47.451964 
L 164.900174 47.533175 
L 165.027339 47.858021 
L 165.090199 47.939233 
L 165.175739 48.670136 
L 165.30989 49.319827 
L 165.425081 49.725884 
L 165.448242 49.807096 
L 165.686935 50.781633 
L 165.719435 50.862845 
L 165.896244 52.405862 
L 166.055029 53.217977 
L 166.074205 53.299188 
L 166.186056 53.786457 
L 166.445456 54.842206 
L 166.816716 56.385223 
L 166.9137 56.953703 
L 166.978611 57.034915 
L 167.117057 57.440972 
L 167.252523 57.522183 
L 167.360546 57.847029 
L 168.141644 59.390047 
L 168.325513 59.471258 
L 168.462004 60.039738 
L 168.51681 60.12095 
L 168.609777 60.364584 
L 168.757756 60.445796 
L 168.887135 60.851853 
L 168.951982 60.933064 
L 169.085549 61.014276 
L 169.202201 61.25791 
L 169.432192 61.82639 
L 169.466855 61.907602 
L 169.726497 63.044562 
L 169.797781 63.125773 
L 170.007267 64.506368 
L 170.062265 64.587579 
L 170.50535 66.617866 
L 170.565062 66.699077 
L 170.73195 67.348769 
L 170.774913 67.42998 
L 170.89285 68.079672 
L 171.037616 68.485729 
L 171.12658 68.56694 
L 171.249698 68.810575 
L 171.803731 68.891786 
L 172.029351 69.541478 
L 172.135423 69.622689 
L 172.231197 69.703901 
L 172.379569 70.191169 
L 172.44343 70.272381 
L 172.519648 70.840861 
L 172.596383 70.922072 
L 172.838116 72.059033 
L 172.901402 72.140244 
L 173.019612 72.708724 
L 173.252445 73.520839 
L 173.348003 73.60205 
L 173.443544 73.764473 
L 173.497372 73.845684 
L 173.614822 74.17053 
L 173.829874 74.73901 
L 173.863381 74.820222 
L 173.988535 75.388702 
L 174.172076 76.363239 
L 174.573115 78.149891 
L 174.721645 78.231103 
L 174.834883 78.555948 
L 175.042921 79.286852 
L 175.281449 79.368063 
L 175.410762 79.449274 
L 175.578362 79.530486 
L 175.819145 79.77412 
L 176.008971 79.855332 
L 176.15665 80.423812 
L 176.235383 80.505023 
L 176.386419 80.748658 
L 176.431993 80.829869 
L 176.609435 81.154715 
L 176.679613 81.235926 
L 176.787953 81.317138 
L 176.97573 81.398349 
L 177.17069 81.560772 
L 178.103481 81.641984 
L 178.248359 81.885618 
L 179.594456 81.966829 
L 179.792865 82.048041 
L 180.014904 82.129252 
L 180.123347 82.291675 
L 180.2803 82.372887 
L 180.370804 82.535309 
L 180.565033 82.616521 
L 180.653931 82.697732 
L 181.113131 83.022578 
L 181.581692 83.10379 
L 181.706359 83.266212 
L 181.754756 83.347424 
L 181.841268 83.67227 
L 181.95812 83.753481 
L 182.03977 83.834693 
L 182.833609 84.565596 
L 182.965015 85.215287 
L 183.110604 85.296499 
L 183.226568 85.37771 
L 184.325902 85.458922 
L 184.41959 85.540133 
L 184.539204 85.621344 
L 185.091486 86.189825 
L 185.232373 86.271036 
L 185.509925 86.51467 
L 185.689099 86.677093 
L 185.841844 86.758305 
L 186.142592 87.164362 
L 186.234787 87.245573 
L 186.732371 88.301322 
L 186.803746 88.382534 
L 186.889487 88.707379 
L 187.022044 88.788591 
L 187.138586 88.869802 
L 187.227001 88.951014 
L 187.914495 89.032225 
L 188.213075 89.27586 
L 188.340838 89.357071 
L 188.610687 89.600705 
L 188.723175 89.925551 
L 189.152728 90.006763 
L 189.193507 90.087974 
L 189.920704 90.575243 
L 190.419963 90.656454 
L 190.556901 90.818877 
L 191.40357 90.900089 
L 191.649909 91.062511 
L 192.197463 91.143723 
L 192.233058 91.224934 
L 192.968563 91.306146 
L 193.071582 91.468569 
L 194.788767 91.54978 
L 194.935803 91.630992 
L 195.135225 91.712203 
L 195.351695 91.793415 
L 195.65342 91.874626 
L 195.906568 92.199472 
L 196.097378 92.280683 
L 196.200498 92.524318 
L 196.343218 92.605529 
L 196.575667 92.68674 
L 196.766116 92.767952 
L 196.921037 92.930375 
L 197.62881 93.011586 
L 198.262658 93.255221 
L 198.73678 93.498855 
L 198.909612 93.580066 
L 199.182106 93.661278 
L 199.714739 93.742489 
L 200.143354 93.986124 
L 200.934432 94.067335 
L 201.108379 94.229758 
L 201.183434 94.310969 
L 201.409051 94.392181 
L 201.602118 94.635815 
L 201.866532 94.717027 
L 201.99915 94.960661 
L 202.708028 95.041872 
L 202.827123 95.123084 
L 203.043647 95.204295 
L 203.276479 95.44793 
L 203.692423 95.529141 
L 203.803646 95.610353 
L 203.981067 95.691564 
L 205.074959 95.772775 
L 205.282044 95.853987 
L 208.139377 95.935198 
L 208.857381 96.01641 
L 230.719941 96.097621 
L 231.329414 96.260044 
L 234.039319 96.341256 
L 239.334623 96.503679 
L 269.650611 96.58489 
L 270.542471 96.666101 
L 300.022478 96.747313 
L 300.191574 96.909736 
L 301.016734 96.990947 
L 301.153394 97.072159 
L 301.705551 97.15337 
L 301.870731 97.234582 
L 302.686903 97.315793 
L 302.822604 97.397004 
L 303.841595 97.478216 
L 303.940648 97.559427 
L 304.165608 97.640639 
L 305.528066 97.72185 
L 306.240626 97.884273 
L 312.422447 97.965485 
L 312.422447 97.965485 
" clip-path="url(#pee19c8506d)" style="fill: none; stroke: #000000; stroke-width: 1.5; stroke-linecap: square"/>
   </g>
   <g id="patch_3">
    <path d="M 44.103906 102.838171 
L 44.103906 13.505579 
" style="fill: none; stroke: #000000; stroke-width: 0.8; stroke-linejoin: miter; stroke-linecap: square"/>
   </g>
   <g id="patch_4">
    <path d="M 325.19952 102.838171 
L 325.19952 13.505579 
" style="fill: none; stroke: #000000; stroke-width: 0.8; stroke-linejoin: miter; stroke-linecap: square"/>
   </g>
   <g id="patch_5">
    <path d="M 44.103906 102.838171 
L 325.19952 102.838171 
" style="fill: none; stroke: #000000; stroke-width: 0.8; stroke-linejoin: miter; stroke-linecap: square"/>
   </g>
   <g id="patch_6">
    <path d="M 44.103906 13.505579 
L 325.19952 13.505579 
" style="fill: none; stroke: #000000; stroke-width: 0.8; stroke-linejoin: miter; stroke-linecap: square"/>
   </g>
  </g>
  <g id="axes_2">
   <g id="patch_7">
    <path d="M 44.103906 201.671244 
L 325.19952 201.671244 
L 325.19952 112.338651 
L 44.103906 112.338651 
z
" style="fill: #ffffff"/>
   </g>
   <g id="matplotlib.axis_3">
    <g id="xtick_10">
     <g id="line2d_14">
      <g>
       <use xlink:href="#mf9ec5b912b" x="56.88098" y="201.671244" style="stroke: #000000; stroke-width: 0.8"/>
      </g>
     </g>
    </g>
    <g id="xtick_11">
     <g id="line2d_15">
      <g>
       <use xlink:href="#mf9ec5b912b" x="88.817076" y="201.671244" style="stroke: #000000; stroke-width: 0.8"/>
      </g>
     </g>
    </g>
    <g id="xtick_12">
     <g id="line2d_16">
      <g>
       <use xlink:href="#mf9ec5b912b" x="120.753173" y="201.671244" style="stroke: #000000; stroke-width: 0.8"/>
      </g>
     </g>
    </g>
    <g id="xtick_13">
     <g id="line2d_17">
      <g>
       <use xlink:href="#mf9ec5b912b" x="152.68927" y="201.671244" style="stroke: #000000; stroke-width: 0.8"/>
      </g>
     </g>
    </g>
    <g id="xtick_14">
     <g id="line2d_18">
      <g>
       <use xlink:href="#mf9ec5b912b" x="184.625366" y="201.671244" style="stroke: #000000; stroke-width: 0.8"/>
      </g>
     </g>
    </g>
    <g id="xtick_15">
     <g id="line2d_19">
      <g>
       <use xlink:href="#mf9ec5b912b" x="216.561463" y="201.671244" style="stroke: #000000; stroke-width: 0.8"/>
      </g>
     </g>
    </g>
    <g id="xtick_16">
     <g id="line2d_20">
      <g>
       <use xlink:href="#mf9ec5b912b" x="248.49756" y="201.671244" style="stroke: #000000; stroke-width: 0.8"/>
      </g>
     </g>
    </g>
    <g id="xtick_17">
     <g id="line2d_21">
      <g>
       <use xlink:href="#mf9ec5b912b" x="280.433656" y="201.671244" style="stroke: #000000; stroke-width: 0.8"/>
      </g>
     </g>
    </g>
    <g id="xtick_18">
     <g id="line2d_22">
      <g>
       <use xlink:href="#mf9ec5b912b" x="312.369753" y="201.671244" style="stroke: #000000; stroke-width: 0.8"/>
      </g>
     </g>
    </g>
   </g>
   <g id="matplotlib.axis_4">
    <g id="ytick_4">
     <g id="line2d_23">
      <g>
       <use xlink:href="#m9306f6a9db" x="44.103906" y="197.610672" style="stroke: #000000; stroke-width: 0.8"/>
      </g>
     </g>
     <g id="text_5">
      <!-- 0 -->
      <g transform="translate(30.741406 201.4095) scale(0.1 -0.1)">
       <use xlink:href="#DejaVuSans-13"/>
      </g>
     </g>
    </g>
    <g id="ytick_5">
     <g id="line2d_24">
      <g>
       <use xlink:href="#m9306f6a9db" x="44.103906" y="157.004948" style="stroke: #000000; stroke-width: 0.8"/>
      </g>
     </g>
     <g id="text_6">
      <!-- 5 -->
      <g transform="translate(30.741406 160.803776) scale(0.1 -0.1)">
       <use xlink:href="#DejaVuSans-18"/>
      </g>
     </g>
    </g>
    <g id="ytick_6">
     <g id="line2d_25">
      <g>
       <use xlink:href="#m9306f6a9db" x="44.103906" y="116.399224" style="stroke: #000000; stroke-width: 0.8"/>
      </g>
     </g>
     <g id="text_7">
      <!-- 10 -->
      <g transform="translate(24.378906 120.198052) scale(0.1 -0.1)">
       <use xlink:href="#DejaVuSans-14"/>
       <use xlink:href="#DejaVuSans-13" transform="translate(63.625 0)"/>
      </g>
     </g>
    </g>
    <g id="text_8">
     <!-- LacY -->
     <g transform="translate(17.976563 168.658073) rotate(-90) scale(0.1 -0.1)">
      <defs>
       <path id="DejaVuSans-2f" d="M 628 4666 
L 1259 4666 
L 1259 531 
L 3531 531 
L 3531 0 
L 628 0 
L 628 4666 
z
" transform="scale(0.015625)"/>
       <path id="DejaVuSans-3c" d="M -13 4666 
L 666 4666 
L 1959 2747 
L 3244 4666 
L 3922 4666 
L 2272 2222 
L 2272 0 
L 1638 0 
L 1638 2222 
L -13 4666 
z
" transform="scale(0.015625)"/>
      </defs>
      <use xlink:href="#DejaVuSans-2f"/>
      <use xlink:href="#DejaVuSans-44" transform="translate(55.71875 0)"/>
      <use xlink:href="#DejaVuSans-46" transform="translate(117 0)"/>
      <use xlink:href="#DejaVuSans-3c" transform="translate(171.984375 0)"/>
     </g>
    </g>
   </g>
   <g id="line2d_26">
    <path d="M 56.88098 116.399224 
L 56.908127 116.399224 
L 56.962661 124.520369 
L 57.070906 140.762658 
L 57.131292 148.883803 
L 57.28351 148.883803 
L 57.301219 140.762658 
L 57.521968 148.883803 
L 57.663937 148.883803 
L 57.834712 165.126093 
L 58.135832 181.368382 
L 58.201499 197.610672 
L 59.732602 197.610672 
L 59.899344 189.489527 
L 59.942117 197.610672 
L 64.968347 197.610672 
L 65.291538 189.489527 
L 65.401572 197.610672 
L 82.910499 197.610672 
L 83.105048 189.489527 
L 84.89967 197.610672 
L 84.914506 189.489527 
L 85.057817 181.368382 
L 85.062475 173.247238 
L 85.384872 181.368382 
L 85.612001 181.368382 
L 85.731722 197.610672 
L 85.792587 189.489527 
L 85.982952 189.489527 
L 86.121539 197.610672 
L 90.016611 197.610672 
L 90.406694 181.368382 
L 90.407996 173.247238 
L 90.906997 173.247238 
L 90.945694 189.489527 
L 91.718402 189.489527 
L 91.88745 181.368382 
L 92.231993 197.610672 
L 109.249602 197.610672 
L 109.355376 189.489527 
L 109.475171 189.489527 
L 109.614367 197.610672 
L 109.849541 197.610672 
L 109.891057 189.489527 
L 110.307325 189.489527 
L 110.657512 181.368382 
L 110.715903 189.489527 
L 110.891301 189.489527 
L 110.920902 197.610672 
L 119.687122 197.610672 
L 119.865684 189.489527 
L 121.967571 189.489527 
L 123.816483 197.610672 
L 131.590576 197.610672 
L 131.776989 189.489527 
L 132.064776 189.489527 
L 132.172637 197.610672 
L 136.511853 197.610672 
L 136.59565 189.489527 
L 136.617532 197.610672 
L 146.61809 197.610672 
L 146.879141 181.368382 
L 146.899989 189.489527 
L 146.92902 181.368382 
L 147.042221 173.247238 
L 147.047565 181.368382 
L 147.632772 181.368382 
L 148.250442 189.489527 
L 148.49597 189.489527 
L 148.811484 181.368382 
L 148.924458 181.368382 
L 149.997226 197.610672 
L 150.457766 197.610672 
L 150.509688 181.368382 
L 150.610644 181.368382 
L 150.763599 189.489527 
L 150.897425 189.489527 
L 151.440767 197.610672 
L 156.563322 197.610672 
L 156.991949 189.489527 
L 157.232435 157.004948 
L 157.514301 157.004948 
L 157.634505 173.247238 
L 157.684414 173.247238 
L 157.785395 165.126093 
L 157.872443 165.126093 
L 157.982339 181.368382 
L 158.010563 181.368382 
L 158.099299 189.489527 
L 158.451359 189.489527 
L 158.542576 197.610672 
L 158.905709 197.610672 
L 159.007001 189.489527 
L 159.18862 189.489527 
L 159.298916 181.368382 
L 159.44493 181.368382 
L 159.500435 189.489527 
L 159.554946 181.368382 
L 159.661199 181.368382 
L 159.765514 173.247238 
L 159.925601 173.247238 
L 160.05058 189.489527 
L 160.184852 189.489527 
L 160.307977 181.368382 
L 160.457133 181.368382 
L 160.585148 165.126093 
L 160.762336 165.126093 
L 160.831092 157.004948 
L 160.870238 165.126093 
L 160.957697 165.126093 
L 161.008267 157.004948 
L 161.060889 165.126093 
L 161.229585 165.126093 
L 161.338715 181.368382 
L 161.367672 181.368382 
L 161.39821 189.489527 
L 161.406593 173.247238 
L 161.474618 173.247238 
L 161.693211 173.247238 
L 161.796159 181.368382 
L 161.86729 181.368382 
L 161.931273 189.489527 
L 162.164086 189.489527 
L 162.281272 181.368382 
L 162.307129 181.368382 
L 162.470352 197.610672 
L 162.835273 197.610672 
L 162.982744 189.489527 
L 163.100527 189.489527 
L 163.214968 181.368382 
L 163.251949 181.368382 
L 163.360399 189.489527 
L 163.60224 189.489527 
L 163.655039 181.368382 
L 163.707984 189.489527 
L 164.04755 189.489527 
L 164.165878 181.368382 
L 164.171708 181.368382 
L 164.178917 173.247238 
L 164.27712 181.368382 
L 164.456405 181.368382 
L 164.502955 189.489527 
L 164.566009 181.368382 
L 164.664528 181.368382 
L 164.775479 165.126093 
L 164.797258 165.126093 
L 164.915896 173.247238 
L 165.027339 173.247238 
L 165.119803 165.126093 
L 165.123107 173.247238 
L 165.211778 189.489527 
L 165.233388 181.368382 
L 165.299214 181.368382 
L 165.410855 173.247238 
L 165.753317 173.247238 
L 165.87182 157.004948 
L 165.953882 157.004948 
L 166.063908 173.247238 
L 166.178038 173.247238 
L 166.288203 181.368382 
L 166.335049 181.368382 
L 166.352709 173.247238 
L 166.445456 181.368382 
L 166.66634 181.368382 
L 166.775704 173.247238 
L 167.083392 173.247238 
L 167.177056 181.368382 
L 167.197098 181.368382 
L 167.297646 173.247238 
L 167.299042 181.368382 
L 167.450015 181.368382 
L 167.560453 189.489527 
L 167.770383 189.489527 
L 167.862055 181.368382 
L 168.055329 181.368382 
L 168.170798 197.610672 
L 168.388222 181.368382 
L 169.496383 181.368382 
L 169.616979 173.247238 
L 170.196514 173.247238 
L 170.211926 157.004948 
L 170.307485 165.126093 
L 170.340001 165.126093 
L 170.405729 148.883803 
L 170.447318 157.004948 
L 170.472707 157.004948 
L 170.597906 165.126093 
L 170.625497 165.126093 
L 170.663568 157.004948 
L 170.73195 165.126093 
L 170.773593 165.126093 
L 170.794792 157.004948 
L 170.866112 173.247238 
L 170.951978 173.247238 
L 171.058399 189.489527 
L 171.168921 181.368382 
L 171.249698 181.368382 
L 171.337206 189.489527 
L 171.395904 189.489527 
L 171.488827 197.610672 
L 171.764872 197.610672 
L 171.899472 181.368382 
L 172.187349 181.368382 
L 172.313709 165.126093 
L 173.0357 165.126093 
L 173.135683 157.004948 
L 173.138007 165.126093 
L 173.252445 173.247238 
L 173.364082 173.247238 
L 173.443544 181.368382 
L 173.474467 173.247238 
L 173.719876 173.247238 
L 173.745294 165.126093 
L 173.829874 173.247238 
L 173.946576 157.004948 
L 173.974788 165.126093 
L 174.052177 157.004948 
L 174.191776 157.004948 
L 174.316897 165.126093 
L 174.450306 165.126093 
L 174.564843 173.247238 
L 174.953196 173.247238 
L 175.042921 181.368382 
L 175.190181 189.489527 
L 175.297508 173.247238 
L 175.410762 189.489527 
L 175.655997 181.368382 
L 175.758984 189.489527 
L 176.01613 189.489527 
L 176.15665 181.368382 
L 176.500457 181.368382 
L 176.563328 173.247238 
L 176.609435 181.368382 
L 176.613758 181.368382 
L 176.629188 189.489527 
L 176.705908 181.368382 
L 176.832791 181.368382 
L 176.97573 189.489527 
L 177.207087 189.489527 
L 177.475072 197.610672 
L 177.925161 197.610672 
L 178.000499 189.489527 
L 178.180516 173.247238 
L 178.247325 173.247238 
L 178.350983 189.489527 
L 178.568354 189.489527 
L 178.64994 197.610672 
L 179.384505 197.610672 
L 179.511404 181.368382 
L 179.704934 189.489527 
L 179.806615 189.489527 
L 179.837829 197.610672 
L 179.899877 189.489527 
L 180.036831 181.368382 
L 180.150304 189.489527 
L 181.363133 189.489527 
L 181.40044 173.247238 
L 181.560185 173.247238 
L 181.614251 165.126093 
L 181.70407 165.126093 
L 181.799795 157.004948 
L 181.813146 165.126093 
L 181.871781 157.004948 
L 181.890618 173.247238 
L 181.977347 173.247238 
L 182.03977 181.368382 
L 182.146851 181.368382 
L 182.226636 189.489527 
L 182.305057 189.489527 
L 182.429611 181.368382 
L 182.688749 181.368382 
L 182.826492 173.247238 
L 182.9371 173.247238 
L 183.011933 165.126093 
L 183.12169 165.126093 
L 183.226568 181.368382 
L 183.240973 181.368382 
L 183.335898 189.489527 
L 183.461644 197.610672 
L 184.187725 197.610672 
L 184.296874 189.489527 
L 184.369643 181.368382 
L 184.505044 189.489527 
L 184.611081 173.247238 
L 185.406806 173.247238 
L 185.42627 181.368382 
L 185.469513 165.126093 
L 185.497008 165.126093 
L 186.110875 165.126093 
L 186.234787 157.004948 
L 186.456616 157.004948 
L 186.587002 148.883803 
L 186.670784 148.883803 
L 186.782842 157.004948 
L 186.786658 148.883803 
L 186.813997 165.126093 
L 186.889487 165.126093 
L 186.916252 165.126093 
L 186.97851 173.247238 
L 187.022044 165.126093 
L 187.062679 165.126093 
L 187.148789 173.247238 
L 187.212429 173.247238 
L 187.285136 157.004948 
L 187.294968 165.126093 
L 187.401331 173.247238 
L 187.486752 173.247238 
L 187.587063 181.368382 
L 187.615276 181.368382 
L 187.643258 173.247238 
L 187.703202 181.368382 
L 188.092131 181.368382 
L 188.15871 173.247238 
L 188.185276 181.368382 
L 188.268038 181.368382 
L 188.340838 165.126093 
L 188.497958 165.126093 
L 188.594692 173.247238 
L 189.033051 173.247238 
L 189.110869 181.368382 
L 189.193507 173.247238 
L 189.286674 173.247238 
L 189.318839 181.368382 
L 189.373747 173.247238 
L 189.478275 181.368382 
L 189.615271 173.247238 
L 189.633481 173.247238 
L 189.677334 165.126093 
L 189.72456 181.368382 
L 189.844275 181.368382 
L 189.867568 173.247238 
L 189.922404 189.489527 
L 190.1537 181.368382 
L 190.196755 181.368382 
L 190.255544 173.247238 
L 190.258775 181.368382 
L 190.342894 181.368382 
L 190.43308 189.489527 
L 191.15841 189.489527 
L 191.325611 181.368382 
L 191.461876 189.489527 
L 191.706487 189.489527 
L 191.801096 181.368382 
L 191.80172 189.489527 
L 192.009016 189.489527 
L 192.082365 181.368382 
L 192.12697 181.368382 
L 192.145252 189.489527 
L 192.233058 181.368382 
L 192.354821 181.368382 
L 192.45047 197.610672 
L 192.602269 189.489527 
L 193.683132 189.489527 
L 193.803205 181.368382 
L 193.904709 197.610672 
L 194.23631 197.610672 
L 194.520963 181.368382 
L 194.705488 181.368382 
L 194.788767 189.489527 
L 194.854464 189.489527 
L 195.005225 173.247238 
L 195.085496 173.247238 
L 195.135225 181.368382 
L 195.243109 181.368382 
L 195.253831 189.489527 
L 195.351695 181.368382 
L 195.60391 189.489527 
L 195.733092 165.126093 
L 195.886775 165.126093 
L 195.96884 181.368382 
L 195.986086 173.247238 
L 196.114151 173.247238 
L 196.200498 165.126093 
L 196.343218 173.247238 
L 196.423208 173.247238 
L 196.463756 165.126093 
L 196.795625 181.368382 
L 196.921037 181.368382 
L 197.042672 189.489527 
L 197.068501 181.368382 
L 197.070458 189.489527 
L 197.306887 189.489527 
L 197.441101 197.610672 
L 197.618157 189.489527 
L 197.62881 181.368382 
L 198.027937 181.368382 
L 198.171309 173.247238 
L 198.416104 173.247238 
L 198.536321 181.368382 
L 198.630267 189.489527 
L 198.740611 181.368382 
L 198.870951 181.368382 
L 199.018013 173.247238 
L 199.03212 173.247238 
L 199.182106 189.489527 
L 199.402087 189.489527 
L 199.538056 181.368382 
L 199.672074 197.610672 
L 199.710003 189.489527 
L 200.124478 189.489527 
L 200.172294 197.610672 
L 200.383566 197.610672 
L 200.515926 173.247238 
L 200.632206 181.368382 
L 200.851986 181.368382 
L 200.934432 173.247238 
L 201.11569 173.247238 
L 201.183434 157.004948 
L 201.378213 157.004948 
L 201.45664 165.126093 
L 201.46916 157.004948 
L 201.619772 157.004948 
L 201.709751 173.247238 
L 201.765348 165.126093 
L 201.818815 173.247238 
L 201.937459 173.247238 
L 202.079693 181.368382 
L 202.159532 181.368382 
L 202.292216 173.247238 
L 202.508548 173.247238 
L 202.537657 165.126093 
L 202.539264 173.247238 
L 203.085336 140.762658 
L 203.131636 140.762658 
L 203.247229 124.520369 
L 203.268355 124.520369 
L 203.353497 148.883803 
L 203.430403 132.641513 
L 203.498088 140.762658 
L 203.562862 148.883803 
L 203.674941 148.883803 
L 203.767014 157.004948 
L 203.858129 157.004948 
L 203.919396 165.126093 
L 203.981067 165.126093 
L 204.29812 181.368382 
L 204.313447 173.247238 
L 204.362012 181.368382 
L 204.491377 173.247238 
L 204.552326 189.489527 
L 204.563896 173.247238 
L 204.650005 173.247238 
L 204.833706 181.368382 
L 204.840011 189.489527 
L 205.020598 189.489527 
L 205.152014 181.368382 
L 205.377857 181.368382 
L 205.437986 189.489527 
L 205.749963 189.489527 
L 205.786152 197.610672 
L 205.837233 189.489527 
L 206.072181 173.247238 
L 206.19553 165.126093 
L 206.374484 181.368382 
L 206.433093 173.247238 
L 206.861987 189.489527 
L 208.444621 189.489527 
L 208.671017 197.610672 
L 210.698982 197.610672 
L 210.716943 189.489527 
L 210.859655 181.368382 
L 210.985436 189.489527 
L 211.28588 189.489527 
L 211.835356 197.610672 
L 219.962466 197.610672 
L 220.03171 189.489527 
L 220.297854 197.610672 
L 228.992025 197.610672 
L 229.58953 181.368382 
L 229.610228 189.489527 
L 229.756411 189.489527 
L 229.79141 181.368382 
L 230.013735 181.368382 
L 230.035919 189.489527 
L 230.401053 181.368382 
L 231.054217 181.368382 
L 231.12895 189.489527 
L 231.329414 197.610672 
L 233.260275 197.610672 
L 233.300814 189.489527 
L 236.372158 189.489527 
L 236.721095 197.610672 
L 238.749207 197.610672 
L 238.937787 189.489527 
L 239.05944 197.610672 
L 249.554956 197.610672 
L 249.705101 189.489527 
L 249.928812 197.610672 
L 265.294171 197.610672 
L 265.622031 189.489527 
L 265.756165 189.489527 
L 265.794371 197.610672 
L 265.975745 189.489527 
L 266.508121 189.489527 
L 266.674929 181.368382 
L 266.754762 189.489527 
L 267.056843 189.489527 
L 267.218677 197.610672 
L 269.339156 197.610672 
L 269.650611 189.489527 
L 270.21527 189.489527 
L 270.542471 197.610672 
L 282.309542 197.610672 
L 282.489952 189.489527 
L 282.573177 173.247238 
L 282.740185 173.247238 
L 282.859664 181.368382 
L 283.725321 197.610672 
L 284.980145 197.610672 
L 285.286002 189.489527 
L 285.430953 189.489527 
L 285.516132 197.610672 
L 299.102033 197.610672 
L 299.338315 173.247238 
L 299.55782 197.610672 
L 299.692807 181.368382 
L 299.725897 189.489527 
L 299.812998 189.489527 
L 299.882397 181.368382 
L 300.077804 189.489527 
L 300.300197 173.247238 
L 300.399133 189.489527 
L 300.502178 181.368382 
L 300.757276 181.368382 
L 300.77488 173.247238 
L 300.862847 181.368382 
L 301.153394 181.368382 
L 301.306563 173.247238 
L 301.40433 173.247238 
L 301.523809 189.489527 
L 301.679568 181.368382 
L 301.768546 189.489527 
L 301.932632 189.489527 
L 302.105776 181.368382 
L 302.284976 181.368382 
L 302.376924 173.247238 
L 302.597359 189.489527 
L 302.925208 165.126093 
L 302.995667 165.126093 
L 303.027455 157.004948 
L 303.046354 165.126093 
L 303.331021 181.368382 
L 303.557883 181.368382 
L 303.64869 173.247238 
L 303.745148 181.368382 
L 303.756409 173.247238 
L 303.844955 173.247238 
L 303.934962 165.126093 
L 303.940648 173.247238 
L 304.055271 173.247238 
L 304.111381 157.004948 
L 304.165608 165.126093 
L 304.222088 165.126093 
L 304.70972 197.610672 
L 304.768857 189.489527 
L 305.003042 189.489527 
L 305.035967 197.610672 
L 305.099462 189.489527 
L 305.211247 181.368382 
L 305.293232 173.247238 
L 305.457899 181.368382 
L 305.524763 181.368382 
L 305.528066 173.247238 
L 305.827573 173.247238 
L 306.016361 189.489527 
L 306.109689 181.368382 
L 306.15505 189.489527 
L 306.397214 173.247238 
L 306.673191 197.610672 
L 306.832283 197.610672 
L 307.087983 189.489527 
L 307.216809 181.368382 
L 307.307636 181.368382 
L 307.538426 165.126093 
L 307.638676 173.247238 
L 307.974223 165.126093 
L 308.049898 181.368382 
L 308.061987 173.247238 
L 308.154075 181.368382 
L 308.477538 181.368382 
L 308.886707 189.489527 
L 309.239175 197.610672 
L 309.315698 189.489527 
L 309.484283 189.489527 
L 309.632178 197.610672 
L 309.762278 189.489527 
L 309.805876 197.610672 
L 310.254412 181.368382 
L 310.363673 197.610672 
L 310.486879 197.610672 
L 310.559776 189.489527 
L 310.695026 197.610672 
L 310.792641 197.610672 
L 311.134255 189.489527 
L 311.153411 197.610672 
L 311.527205 189.489527 
L 311.554376 197.610672 
L 311.840195 197.610672 
L 312.085118 189.489527 
L 312.102927 197.610672 
L 312.163427 189.489527 
L 312.359654 173.247238 
L 312.422447 173.247238 
L 312.422447 173.247238 
" clip-path="url(#pbe8bb0a578)" style="fill: none; stroke: #000000; stroke-width: 1.5; stroke-linecap: square"/>
   </g>
   <g id="patch_8">
    <path d="M 44.103906 201.671244 
L 44.103906 112.338651 
" style="fill: none; stroke: #000000; stroke-width: 0.8; stroke-linejoin: miter; stroke-linecap: square"/>
   </g>
   <g id="patch_9">
    <path d="M 325.19952 201.671244 
L 325.19952 112.338651 
" style="fill: none; stroke: #000000; stroke-width: 0.8; stroke-linejoin: miter; stroke-linecap: square"/>
   </g>
   <g id="patch_10">
    <path d="M 44.103906 201.671244 
L 325.19952 201.671244 
" style="fill: none; stroke: #000000; stroke-width: 0.8; stroke-linejoin: miter; stroke-linecap: square"/>
   </g>
   <g id="patch_11">
    <path d="M 44.103906 112.338651 
L 325.19952 112.338651 
" style="fill: none; stroke: #000000; stroke-width: 0.8; stroke-linejoin: miter; stroke-linecap: square"/>
   </g>
  </g>
  <g id="axes_3">
   <g id="patch_12">
    <path d="M 44.103906 300.504317 
L 325.19952 300.504317 
L 325.19952 211.171724 
L 44.103906 211.171724 
z
" style="fill: #ffffff"/>
   </g>
   <g id="matplotlib.axis_5">
    <g id="xtick_19">
     <g id="line2d_27">
      <g>
       <use xlink:href="#mf9ec5b912b" x="56.88098" y="300.504317" style="stroke: #000000; stroke-width: 0.8"/>
      </g>
     </g>
     <g id="text_9">
      <!-- 0 -->
      <g transform="translate(53.69973 315.101974) scale(0.1 -0.1)">
       <use xlink:href="#DejaVuSans-13"/>
      </g>
     </g>
    </g>
    <g id="xtick_20">
     <g id="line2d_28">
      <g>
       <use xlink:href="#mf9ec5b912b" x="88.817076" y="300.504317" style="stroke: #000000; stroke-width: 0.8"/>
      </g>
     </g>
     <g id="text_10">
      <!-- 100 -->
      <g transform="translate(79.273326 315.101974) scale(0.1 -0.1)">
       <use xlink:href="#DejaVuSans-14"/>
       <use xlink:href="#DejaVuSans-13" transform="translate(63.625 0)"/>
       <use xlink:href="#DejaVuSans-13" transform="translate(127.25 0)"/>
      </g>
     </g>
    </g>
    <g id="xtick_21">
     <g id="line2d_29">
      <g>
       <use xlink:href="#mf9ec5b912b" x="120.753173" y="300.504317" style="stroke: #000000; stroke-width: 0.8"/>
      </g>
     </g>
     <g id="text_11">
      <!-- 200 -->
      <g transform="translate(111.209423 315.101974) scale(0.1 -0.1)">
       <defs>
        <path id="DejaVuSans-15" d="M 1228 531 
L 3431 531 
L 3431 0 
L 469 0 
L 469 531 
Q 828 903 1448 1529 
Q 2069 2156 2228 2338 
Q 2531 2678 2651 2914 
Q 2772 3150 2772 3378 
Q 2772 3750 2511 3984 
Q 2250 4219 1831 4219 
Q 1534 4219 1204 4116 
Q 875 4013 500 3803 
L 500 4441 
Q 881 4594 1212 4672 
Q 1544 4750 1819 4750 
Q 2544 4750 2975 4387 
Q 3406 4025 3406 3419 
Q 3406 3131 3298 2873 
Q 3191 2616 2906 2266 
Q 2828 2175 2409 1742 
Q 1991 1309 1228 531 
z
" transform="scale(0.015625)"/>
       </defs>
       <use xlink:href="#DejaVuSans-15"/>
       <use xlink:href="#DejaVuSans-13" transform="translate(63.625 0)"/>
       <use xlink:href="#DejaVuSans-13" transform="translate(127.25 0)"/>
      </g>
     </g>
    </g>
    <g id="xtick_22">
     <g id="line2d_30">
      <g>
       <use xlink:href="#mf9ec5b912b" x="152.68927" y="300.504317" style="stroke: #000000; stroke-width: 0.8"/>
      </g>
     </g>
     <g id="text_12">
      <!-- 300 -->
      <g transform="translate(143.14552 315.101974) scale(0.1 -0.1)">
       <defs>
        <path id="DejaVuSans-16" d="M 2597 2516 
Q 3050 2419 3304 2112 
Q 3559 1806 3559 1356 
Q 3559 666 3084 287 
Q 2609 -91 1734 -91 
Q 1441 -91 1130 -33 
Q 819 25 488 141 
L 488 750 
Q 750 597 1062 519 
Q 1375 441 1716 441 
Q 2309 441 2620 675 
Q 2931 909 2931 1356 
Q 2931 1769 2642 2001 
Q 2353 2234 1838 2234 
L 1294 2234 
L 1294 2753 
L 1863 2753 
Q 2328 2753 2575 2939 
Q 2822 3125 2822 3475 
Q 2822 3834 2567 4026 
Q 2313 4219 1838 4219 
Q 1578 4219 1281 4162 
Q 984 4106 628 3988 
L 628 4550 
Q 988 4650 1302 4700 
Q 1616 4750 1894 4750 
Q 2613 4750 3031 4423 
Q 3450 4097 3450 3541 
Q 3450 3153 3228 2886 
Q 3006 2619 2597 2516 
z
" transform="scale(0.015625)"/>
       </defs>
       <use xlink:href="#DejaVuSans-16"/>
       <use xlink:href="#DejaVuSans-13" transform="translate(63.625 0)"/>
       <use xlink:href="#DejaVuSans-13" transform="translate(127.25 0)"/>
      </g>
     </g>
    </g>
    <g id="xtick_23">
     <g id="line2d_31">
      <g>
       <use xlink:href="#mf9ec5b912b" x="184.625366" y="300.504317" style="stroke: #000000; stroke-width: 0.8"/>
      </g>
     </g>
     <g id="text_13">
      <!-- 400 -->
      <g transform="translate(175.081616 315.101974) scale(0.1 -0.1)">
       <defs>
        <path id="DejaVuSans-17" d="M 2419 4116 
L 825 1625 
L 2419 1625 
L 2419 4116 
z
M 2253 4666 
L 3047 4666 
L 3047 1625 
L 3713 1625 
L 3713 1100 
L 3047 1100 
L 3047 0 
L 2419 0 
L 2419 1100 
L 313 1100 
L 313 1709 
L 2253 4666 
z
" transform="scale(0.015625)"/>
       </defs>
       <use xlink:href="#DejaVuSans-17"/>
       <use xlink:href="#DejaVuSans-13" transform="translate(63.625 0)"/>
       <use xlink:href="#DejaVuSans-13" transform="translate(127.25 0)"/>
      </g>
     </g>
    </g>
    <g id="xtick_24">
     <g id="line2d_32">
      <g>
       <use xlink:href="#mf9ec5b912b" x="216.561463" y="300.504317" style="stroke: #000000; stroke-width: 0.8"/>
      </g>
     </g>
     <g id="text_14">
      <!-- 500 -->
      <g transform="translate(207.017713 315.101974) scale(0.1 -0.1)">
       <use xlink:href="#DejaVuSans-18"/>
       <use xlink:href="#DejaVuSans-13" transform="translate(63.625 0)"/>
       <use xlink:href="#DejaVuSans-13" transform="translate(127.25 0)"/>
      </g>
     </g>
    </g>
    <g id="xtick_25">
     <g id="line2d_33">
      <g>
       <use xlink:href="#mf9ec5b912b" x="248.49756" y="300.504317" style="stroke: #000000; stroke-width: 0.8"/>
      </g>
     </g>
     <g id="text_15">
      <!-- 600 -->
      <g transform="translate(238.95381 315.101974) scale(0.1 -0.1)">
       <defs>
        <path id="DejaVuSans-19" d="M 2113 2584 
Q 1688 2584 1439 2293 
Q 1191 2003 1191 1497 
Q 1191 994 1439 701 
Q 1688 409 2113 409 
Q 2538 409 2786 701 
Q 3034 994 3034 1497 
Q 3034 2003 2786 2293 
Q 2538 2584 2113 2584 
z
M 3366 4563 
L 3366 3988 
Q 3128 4100 2886 4159 
Q 2644 4219 2406 4219 
Q 1781 4219 1451 3797 
Q 1122 3375 1075 2522 
Q 1259 2794 1537 2939 
Q 1816 3084 2150 3084 
Q 2853 3084 3261 2657 
Q 3669 2231 3669 1497 
Q 3669 778 3244 343 
Q 2819 -91 2113 -91 
Q 1303 -91 875 529 
Q 447 1150 447 2328 
Q 447 3434 972 4092 
Q 1497 4750 2381 4750 
Q 2619 4750 2861 4703 
Q 3103 4656 3366 4563 
z
" transform="scale(0.015625)"/>
       </defs>
       <use xlink:href="#DejaVuSans-19"/>
       <use xlink:href="#DejaVuSans-13" transform="translate(63.625 0)"/>
       <use xlink:href="#DejaVuSans-13" transform="translate(127.25 0)"/>
      </g>
     </g>
    </g>
    <g id="xtick_26">
     <g id="line2d_34">
      <g>
       <use xlink:href="#mf9ec5b912b" x="280.433656" y="300.504317" style="stroke: #000000; stroke-width: 0.8"/>
      </g>
     </g>
     <g id="text_16">
      <!-- 700 -->
      <g transform="translate(270.889906 315.101974) scale(0.1 -0.1)">
       <defs>
        <path id="DejaVuSans-1a" d="M 525 4666 
L 3525 4666 
L 3525 4397 
L 1831 0 
L 1172 0 
L 2766 4134 
L 525 4134 
L 525 4666 
z
" transform="scale(0.015625)"/>
       </defs>
       <use xlink:href="#DejaVuSans-1a"/>
       <use xlink:href="#DejaVuSans-13" transform="translate(63.625 0)"/>
       <use xlink:href="#DejaVuSans-13" transform="translate(127.25 0)"/>
      </g>
     </g>
    </g>
    <g id="xtick_27">
     <g id="line2d_35">
      <g>
       <use xlink:href="#mf9ec5b912b" x="312.369753" y="300.504317" style="stroke: #000000; stroke-width: 0.8"/>
      </g>
     </g>
     <g id="text_17">
      <!-- 800 -->
      <g transform="translate(302.826003 315.101974) scale(0.1 -0.1)">
       <defs>
        <path id="DejaVuSans-1b" d="M 2034 2216 
Q 1584 2216 1326 1975 
Q 1069 1734 1069 1313 
Q 1069 891 1326 650 
Q 1584 409 2034 409 
Q 2484 409 2743 651 
Q 3003 894 3003 1313 
Q 3003 1734 2745 1975 
Q 2488 2216 2034 2216 
z
M 1403 2484 
Q 997 2584 770 2862 
Q 544 3141 544 3541 
Q 544 4100 942 4425 
Q 1341 4750 2034 4750 
Q 2731 4750 3128 4425 
Q 3525 4100 3525 3541 
Q 3525 3141 3298 2862 
Q 3072 2584 2669 2484 
Q 3125 2378 3379 2068 
Q 3634 1759 3634 1313 
Q 3634 634 3220 271 
Q 2806 -91 2034 -91 
Q 1263 -91 848 271 
Q 434 634 434 1313 
Q 434 1759 690 2068 
Q 947 2378 1403 2484 
z
M 1172 3481 
Q 1172 3119 1398 2916 
Q 1625 2713 2034 2713 
Q 2441 2713 2670 2916 
Q 2900 3119 2900 3481 
Q 2900 3844 2670 4047 
Q 2441 4250 2034 4250 
Q 1625 4250 1398 4047 
Q 1172 3844 1172 3481 
z
" transform="scale(0.015625)"/>
       </defs>
       <use xlink:href="#DejaVuSans-1b"/>
       <use xlink:href="#DejaVuSans-13" transform="translate(63.625 0)"/>
       <use xlink:href="#DejaVuSans-13" transform="translate(127.25 0)"/>
      </g>
     </g>
    </g>
    <g id="text_18">
     <!-- Time -->
     <g transform="translate(172.415776 329.102755) scale(0.1 -0.1)">
      <defs>
       <path id="DejaVuSans-37" d="M -19 4666 
L 3928 4666 
L 3928 4134 
L 2272 4134 
L 2272 0 
L 1638 0 
L 1638 4134 
L -19 4134 
L -19 4666 
z
" transform="scale(0.015625)"/>
       <path id="DejaVuSans-4c" d="M 603 3500 
L 1178 3500 
L 1178 0 
L 603 0 
L 603 3500 
z
M 603 4863 
L 1178 4863 
L 1178 4134 
L 603 4134 
L 603 4863 
z
" transform="scale(0.015625)"/>
       <path id="DejaVuSans-50" d="M 3328 2828 
Q 3544 3216 3844 3400 
Q 4144 3584 4550 3584 
Q 5097 3584 5394 3201 
Q 5691 2819 5691 2113 
L 5691 0 
L 5113 0 
L 5113 2094 
Q 5113 2597 4934 2840 
Q 4756 3084 4391 3084 
Q 3944 3084 3684 2787 
Q 3425 2491 3425 1978 
L 3425 0 
L 2847 0 
L 2847 2094 
Q 2847 2600 2669 2842 
Q 2491 3084 2119 3084 
Q 1678 3084 1418 2786 
Q 1159 2488 1159 1978 
L 1159 0 
L 581 0 
L 581 3500 
L 1159 3500 
L 1159 2956 
Q 1356 3278 1631 3431 
Q 1906 3584 2284 3584 
Q 2666 3584 2933 3390 
Q 3200 3197 3328 2828 
z
" transform="scale(0.015625)"/>
      </defs>
      <use xlink:href="#DejaVuSans-37"/>
      <use xlink:href="#DejaVuSans-4c" transform="translate(58 0)"/>
      <use xlink:href="#DejaVuSans-50" transform="translate(85.78125 0)"/>
      <use xlink:href="#DejaVuSans-48" transform="translate(183.1875 0)"/>
     </g>
    </g>
   </g>
   <g id="matplotlib.axis_6">
    <g id="ytick_7">
     <g id="line2d_36">
      <g>
       <use xlink:href="#m9306f6a9db" x="44.103906" y="296.443745" style="stroke: #000000; stroke-width: 0.8"/>
      </g>
     </g>
     <g id="text_19">
      <!-- 0.0 -->
      <g transform="translate(21.200781 300.242573) scale(0.1 -0.1)">
       <defs>
        <path id="DejaVuSans-11" d="M 684 794 
L 1344 794 
L 1344 0 
L 684 0 
L 684 794 
z
" transform="scale(0.015625)"/>
       </defs>
       <use xlink:href="#DejaVuSans-13"/>
       <use xlink:href="#DejaVuSans-11" transform="translate(63.625 0)"/>
       <use xlink:href="#DejaVuSans-13" transform="translate(95.40625 0)"/>
      </g>
     </g>
    </g>
    <g id="ytick_8">
     <g id="line2d_37">
      <g>
       <use xlink:href="#m9306f6a9db" x="44.103906" y="255.838021" style="stroke: #000000; stroke-width: 0.8"/>
      </g>
     </g>
     <g id="text_20">
      <!-- 0.5 -->
      <g transform="translate(21.200781 259.636849) scale(0.1 -0.1)">
       <use xlink:href="#DejaVuSans-13"/>
       <use xlink:href="#DejaVuSans-11" transform="translate(63.625 0)"/>
       <use xlink:href="#DejaVuSans-18" transform="translate(95.40625 0)"/>
      </g>
     </g>
    </g>
    <g id="ytick_9">
     <g id="line2d_38">
      <g>
       <use xlink:href="#m9306f6a9db" x="44.103906" y="215.232297" style="stroke: #000000; stroke-width: 0.8"/>
      </g>
     </g>
     <g id="text_21">
      <!-- 1.0 -->
      <g transform="translate(21.200781 219.031125) scale(0.1 -0.1)">
       <use xlink:href="#DejaVuSans-14"/>
       <use xlink:href="#DejaVuSans-11" transform="translate(63.625 0)"/>
       <use xlink:href="#DejaVuSans-13" transform="translate(95.40625 0)"/>
      </g>
     </g>
    </g>
    <g id="text_22">
     <!-- Free lac operon -->
     <g transform="translate(14.798438 294.31224) rotate(-90) scale(0.1 -0.1)">
      <defs>
       <path id="DejaVuSans-29" d="M 628 4666 
L 3309 4666 
L 3309 4134 
L 1259 4134 
L 1259 2759 
L 3109 2759 
L 3109 2228 
L 1259 2228 
L 1259 0 
L 628 0 
L 628 4666 
z
" transform="scale(0.015625)"/>
       <path id="DejaVuSans-53" d="M 1159 525 
L 1159 -1331 
L 581 -1331 
L 581 3500 
L 1159 3500 
L 1159 2969 
Q 1341 3281 1617 3432 
Q 1894 3584 2278 3584 
Q 2916 3584 3314 3078 
Q 3713 2572 3713 1747 
Q 3713 922 3314 415 
Q 2916 -91 2278 -91 
Q 1894 -91 1617 61 
Q 1341 213 1159 525 
z
M 3116 1747 
Q 3116 2381 2855 2742 
Q 2594 3103 2138 3103 
Q 1681 3103 1420 2742 
Q 1159 2381 1159 1747 
Q 1159 1113 1420 752 
Q 1681 391 2138 391 
Q 2594 391 2855 752 
Q 3116 1113 3116 1747 
z
" transform="scale(0.015625)"/>
       <path id="DejaVuSans-51" d="M 3513 2113 
L 3513 0 
L 2938 0 
L 2938 2094 
Q 2938 2591 2744 2837 
Q 2550 3084 2163 3084 
Q 1697 3084 1428 2787 
Q 1159 2491 1159 1978 
L 1159 0 
L 581 0 
L 581 3500 
L 1159 3500 
L 1159 2956 
Q 1366 3272 1645 3428 
Q 1925 3584 2291 3584 
Q 2894 3584 3203 3211 
Q 3513 2838 3513 2113 
z
" transform="scale(0.015625)"/>
      </defs>
      <use xlink:href="#DejaVuSans-29"/>
      <use xlink:href="#DejaVuSans-55" transform="translate(50.234375 0)"/>
      <use xlink:href="#DejaVuSans-48" transform="translate(89.140625 0)"/>
      <use xlink:href="#DejaVuSans-48" transform="translate(150.671875 0)"/>
      <use xlink:href="#DejaVuSans-3" transform="translate(212.203125 0)"/>
      <use xlink:href="#DejaVuSans-4f" transform="translate(243.984375 0)"/>
      <use xlink:href="#DejaVuSans-44" transform="translate(271.765625 0)"/>
      <use xlink:href="#DejaVuSans-46" transform="translate(333.046875 0)"/>
      <use xlink:href="#DejaVuSans-3" transform="translate(388.03125 0)"/>
      <use xlink:href="#DejaVuSans-52" transform="translate(419.8125 0)"/>
      <use xlink:href="#DejaVuSans-53" transform="translate(481 0)"/>
      <use xlink:href="#DejaVuSans-48" transform="translate(544.484375 0)"/>
      <use xlink:href="#DejaVuSans-55" transform="translate(606.015625 0)"/>
      <use xlink:href="#DejaVuSans-52" transform="translate(644.921875 0)"/>
      <use xlink:href="#DejaVuSans-51" transform="translate(706.109375 0)"/>
     </g>
    </g>
   </g>
   <g id="line2d_39">
    <path d="M 56.88098 215.232297 
L 56.962661 296.443745 
L 57.131292 296.443745 
L 57.301219 215.232297 
L 57.419628 215.232297 
L 57.521968 296.443745 
L 58.740733 296.443745 
L 59.732602 215.232297 
L 59.919326 215.232297 
L 59.942117 296.443745 
L 62.368519 296.443745 
L 64.968347 215.232297 
L 65.263847 215.232297 
L 65.401572 296.443745 
L 65.527702 296.443745 
L 72.203761 215.232297 
L 72.373898 296.443745 
L 80.229525 215.232297 
L 80.278662 296.443745 
L 82.910499 215.232297 
L 83.050775 215.232297 
L 83.105048 296.443745 
L 84.848939 296.443745 
L 84.914506 215.232297 
L 85.792587 215.232297 
L 85.982952 296.443745 
L 87.017902 296.443745 
L 90.016611 215.232297 
L 90.557718 215.232297 
L 90.587056 296.443745 
L 90.945694 296.443745 
L 91.828884 215.232297 
L 91.88745 296.443745 
L 92.231993 296.443745 
L 109.341647 215.232297 
L 109.355376 296.443745 
L 109.614367 296.443745 
L 109.891057 215.232297 
L 110.178995 296.443745 
L 110.307325 215.232297 
L 110.715903 215.232297 
L 110.920902 296.443745 
L 111.214137 296.443745 
L 115.384724 215.232297 
L 116.046687 296.443745 
L 117.692048 215.232297 
L 118.007917 296.443745 
L 118.681701 215.232297 
L 118.769202 296.443745 
L 119.780603 215.232297 
L 119.865684 296.443745 
L 123.816483 296.443745 
L 129.847495 215.232297 
L 129.953656 296.443745 
L 131.69945 215.232297 
L 132.151153 215.232297 
L 132.172637 296.443745 
L 134.016647 296.443745 
L 136.617532 215.232297 
L 136.630866 296.443745 
L 139.517745 215.232297 
L 139.560563 296.443745 
L 146.61809 215.232297 
L 147.564321 215.232297 
L 147.632772 296.443745 
L 148.250442 296.443745 
L 148.49597 215.232297 
L 148.811484 215.232297 
L 148.924458 296.443745 
L 149.997226 296.443745 
L 150.509688 215.232297 
L 150.610644 296.443745 
L 151.734 296.443745 
L 151.745343 215.232297 
L 151.907206 296.443745 
L 156.224389 215.232297 
L 156.313501 296.443745 
L 156.563322 215.232297 
L 206.38782 215.232297 
L 206.433093 296.443745 
L 208.857381 296.443745 
L 210.716943 215.232297 
L 210.957869 215.232297 
L 210.985436 296.443745 
L 216.133563 296.443745 
L 220.03171 215.232297 
L 220.192245 215.232297 
L 220.297854 296.443745 
L 223.474458 215.232297 
L 223.497817 296.443745 
L 226.658399 215.232297 
L 226.672102 296.443745 
L 228.992025 215.232297 
L 230.401053 215.232297 
L 230.719941 296.443745 
L 231.329414 296.443745 
L 233.300814 215.232297 
L 233.473998 296.443745 
L 236.721095 296.443745 
L 238.194821 215.232297 
L 238.292671 296.443745 
L 238.749207 215.232297 
L 239.05944 215.232297 
L 239.229621 296.443745 
L 239.282917 215.232297 
L 239.334623 296.443745 
L 240.605909 296.443745 
L 249.554956 215.232297 
L 249.700566 215.232297 
L 249.705101 296.443745 
L 250.196025 296.443745 
L 261.194266 215.232297 
L 261.332974 296.443745 
L 263.570637 215.232297 
L 263.906427 296.443745 
L 265.125508 215.232297 
L 265.149926 296.443745 
L 265.294171 215.232297 
L 266.631628 215.232297 
L 266.635951 296.443745 
L 266.698755 215.232297 
L 266.754762 215.232297 
L 267.056843 296.443745 
L 267.218677 296.443745 
L 269.339156 215.232297 
L 269.637719 215.232297 
L 269.650611 296.443745 
L 270.542471 296.443745 
L 281.919161 215.232297 
L 282.05422 296.443745 
L 282.309542 215.232297 
L 282.622486 215.232297 
L 282.740185 296.443745 
L 283.725321 296.443745 
L 284.980145 215.232297 
L 285.191796 215.232297 
L 285.286002 296.443745 
L 285.439441 215.232297 
L 285.516132 296.443745 
L 286.142169 215.232297 
L 286.462537 296.443745 
L 292.571537 215.232297 
L 292.812946 296.443745 
L 297.273082 215.232297 
L 297.293603 296.443745 
L 299.175096 215.232297 
L 312.422447 215.232297 
L 312.422447 215.232297 
" clip-path="url(#p7d470001b5)" style="fill: none; stroke: #000000; stroke-width: 1.5; stroke-linecap: square"/>
   </g>
   <g id="patch_13">
    <path d="M 44.103906 300.504317 
L 44.103906 211.171724 
" style="fill: none; stroke: #000000; stroke-width: 0.8; stroke-linejoin: miter; stroke-linecap: square"/>
   </g>
   <g id="patch_14">
    <path d="M 325.19952 300.504317 
L 325.19952 211.171724 
" style="fill: none; stroke: #000000; stroke-width: 0.8; stroke-linejoin: miter; stroke-linecap: square"/>
   </g>
   <g id="patch_15">
    <path d="M 44.103906 300.504317 
L 325.19952 300.504317 
" style="fill: none; stroke: #000000; stroke-width: 0.8; stroke-linejoin: miter; stroke-linecap: square"/>
   </g>
   <g id="patch_16">
    <path d="M 44.103906 211.171724 
L 325.19952 211.171724 
" style="fill: none; stroke: #000000; stroke-width: 0.8; stroke-linejoin: miter; stroke-linecap: square"/>
   </g>
  </g>
 </g>
 <defs>
  <clipPath id="pee19c8506d">
   <rect x="44.103906" y="13.505579" width="281.095614" height="89.332593"/>
  </clipPath>
  <clipPath id="pbe8bb0a578">
   <rect x="44.103906" y="112.338651" width="281.095614" height="89.332593"/>
  </clipPath>
  <clipPath id="p7d470001b5">
   <rect x="44.103906" y="211.171724" width="281.095614" height="89.332593"/>
  </clipPath>
 </defs>
</svg>
