<?xml version="1.0" encoding="utf-8" standalone="no"?>
<!DOCTYPE svg PUBLIC "-//W3C//DTD SVG 1.1//EN"
  "http://www.w3.org/Graphics/SVG/1.1/DTD/svg11.dtd">
<svg xmlns:xlink="http://www.w3.org/1999/xlink" width="332.39952pt" height="332.39952pt" viewBox="0 0 332.39952 332.39952" xmlns="http://www.w3.org/2000/svg" version="1.1">
 <metadata>
  <rdf:RDF xmlns:dc="http://purl.org/dc/elements/1.1/" xmlns:cc="http://creativecommons.org/ns#" xmlns:rdf="http://www.w3.org/1999/02/22-rdf-syntax-ns#">
   <cc:Work>
    <dc:type rdf:resource="http://purl.org/dc/dcmitype/StillImage"/>
    <dc:date>2026-07-14T16:48:41.647716</dc:date>
    <dc:format>image/svg+xml</dc:format>
    <dc:creator>
     <cc:Agent>
      <dc:title>Matplotlib v3.11.0, https://matplotlib.org/</dc:title>
     </cc:Agent>
    </dc:creator>
   </cc:Work>
  </rdf:RDF>
 </metadata>
 <defs>
  <style type="text/css">*{stroke-linejoin: round; stroke-linecap: butt}</style>
 </defs>
 <g id="figure_1">
  <g id="patch_1">
   <path d="M 0 332.39952 
L 332.39952 332.39952 
L 332.39952 0 
L 0 0 
z
" style="fill: #ffffff"/>
  </g>
  <g id="axes_1">
   <g id="patch_2">
    <path d="M 44.103906 96.532593 
L 325.19952 96.532593 
L 325.19952 7.2 
L 44.103906 7.2 
z
" style="fill: #ffffff"/>
   </g>
   <g id="matplotlib.axis_1">
    <g id="xtick_1">
     <g id="line2d_1">
      <defs>
       <path id="m9abe865c3a" d="M 0 0 
L 0 3.5 
" style="stroke: #000000; stroke-width: 0.8"/>
      </defs>
      <g>
       <use xlink:href="#m9abe865c3a" x="56.88098" y="96.532593" style="stroke: #000000; stroke-width: 0.8"/>
      </g>
     </g>
    </g>
    <g id="xtick_2">
     <g id="line2d_2">
      <g>
       <use xlink:href="#m9abe865c3a" x="88.769339" y="96.532593" style="stroke: #000000; stroke-width: 0.8"/>
      </g>
     </g>
    </g>
    <g id="xtick_3">
     <g id="line2d_3">
      <g>
       <use xlink:href="#m9abe865c3a" x="120.657698" y="96.532593" style="stroke: #000000; stroke-width: 0.8"/>
      </g>
     </g>
    </g>
    <g id="xtick_4">
     <g id="line2d_4">
      <g>
       <use xlink:href="#m9abe865c3a" x="152.546058" y="96.532593" style="stroke: #000000; stroke-width: 0.8"/>
      </g>
     </g>
    </g>
    <g id="xtick_5">
     <g id="line2d_5">
      <g>
       <use xlink:href="#m9abe865c3a" x="184.434417" y="96.532593" style="stroke: #000000; stroke-width: 0.8"/>
      </g>
     </g>
    </g>
    <g id="xtick_6">
     <g id="line2d_6">
      <g>
       <use xlink:href="#m9abe865c3a" x="216.322777" y="96.532593" style="stroke: #000000; stroke-width: 0.8"/>
      </g>
     </g>
    </g>
    <g id="xtick_7">
     <g id="line2d_7">
      <g>
       <use xlink:href="#m9abe865c3a" x="248.211136" y="96.532593" style="stroke: #000000; stroke-width: 0.8"/>
      </g>
     </g>
    </g>
    <g id="xtick_8">
     <g id="line2d_8">
      <g>
       <use xlink:href="#m9abe865c3a" x="280.099496" y="96.532593" style="stroke: #000000; stroke-width: 0.8"/>
      </g>
     </g>
    </g>
    <g id="xtick_9">
     <g id="line2d_9">
      <g>
       <use xlink:href="#m9abe865c3a" x="311.987855" y="96.532593" style="stroke: #000000; stroke-width: 0.8"/>
      </g>
     </g>
    </g>
   </g>
   <g id="matplotlib.axis_2">
    <g id="ytick_1">
     <g id="line2d_10">
      <defs>
       <path id="m95a59dc645" d="M 0 0 
L -3.5 0 
" style="stroke: #000000; stroke-width: 0.8"/>
      </defs>
      <g>
       <use xlink:href="#m95a59dc645" x="44.103906" y="92.472021" style="stroke: #000000; stroke-width: 0.8"/>
      </g>
     </g>
     <g id="text_1">
      <!-- 0 -->
      <g transform="translate(30.741406 96.270849) scale(0.1 -0.1)">
       <defs>
        <path id="DejaVuSans-13" d="M 2034 4250 
Q 1547 4250 1301 3770 
Q 1056 3291 1056 2328 
Q 1056 1369 1301 889 
Q 1547 409 2034 409 
Q 2525 409 2770 889 
Q 3016 1369 3016 2328 
Q 3016 3291 2770 3770 
Q 2525 4250 2034 4250 
z
M 2034 4750 
Q 2819 4750 3233 4129 
Q 3647 3509 3647 2328 
Q 3647 1150 3233 529 
Q 2819 -91 2034 -91 
Q 1250 -91 836 529 
Q 422 1150 422 2328 
Q 422 3509 836 4129 
Q 1250 4750 2034 4750 
z
" transform="scale(0.015625)"/>
       </defs>
       <use xlink:href="#DejaVuSans-13"/>
      </g>
     </g>
    </g>
    <g id="ytick_2">
     <g id="line2d_11">
      <g>
       <use xlink:href="#m95a59dc645" x="44.103906" y="51.866296" style="stroke: #000000; stroke-width: 0.8"/>
      </g>
     </g>
     <g id="text_2">
      <!-- 5 -->
      <g transform="translate(30.741406 55.665125) scale(0.1 -0.1)">
       <defs>
        <path id="DejaVuSans-18" d="M 691 4666 
L 3169 4666 
L 3169 4134 
L 1269 4134 
L 1269 2991 
Q 1406 3038 1543 3061 
Q 1681 3084 1819 3084 
Q 2600 3084 3056 2656 
Q 3513 2228 3513 1497 
Q 3513 744 3044 326 
Q 2575 -91 1722 -91 
Q 1428 -91 1123 -41 
Q 819 9 494 109 
L 494 744 
Q 775 591 1075 516 
Q 1375 441 1709 441 
Q 2250 441 2565 725 
Q 2881 1009 2881 1497 
Q 2881 1984 2565 2268 
Q 2250 2553 1709 2553 
Q 1456 2553 1204 2497 
Q 953 2441 691 2322 
L 691 4666 
z
" transform="scale(0.015625)"/>
       </defs>
       <use xlink:href="#DejaVuSans-18"/>
      </g>
     </g>
    </g>
    <g id="ytick_3">
     <g id="line2d_12">
      <g>
       <use xlink:href="#m95a59dc645" x="44.103906" y="11.260572" style="stroke: #000000; stroke-width: 0.8"/>
      </g>
     </g>
     <g id="text_3">
      <!-- 10 -->
      <g transform="translate(24.378906 15.059401) scale(0.1 -0.1)">
       <defs>
        <path id="DejaVuSans-14" d="M 794 531 
L 1825 531 
L 1825 4091 
L 703 3866 
L 703 4441 
L 1819 4666 
L 2450 4666 
L 2450 531 
L 3481 531 
L 3481 0 
L 794 0 
L 794 531 
z
" transform="scale(0.015625)"/>
       </defs>
       <use xlink:href="#DejaVuSans-14"/>
       <use xlink:href="#DejaVuSans-13" transform="translate(63.625 0)"/>
      </g>
     </g>
    </g>
    <g id="text_4">
     <!-- Extracellular lactose -->
     <g transform="translate(17.976563 102.838171) rotate(-90) scale(0.1 -0.1)">
      <defs>
       <path id="DejaVuSans-28" d="M 628 4666 
L 3578 4666 
L 3578 4134 
L 1259 4134 
L 1259 2753 
L 3481 2753 
L 3481 2222 
L 1259 2222 
L 1259 531 
L 3634 531 
L 3634 0 
L 628 0 
L 628 4666 
z
" transform="scale(0.015625)"/>
       <path id="DejaVuSans-5b" d="M 3513 3500 
L 2247 1797 
L 3578 0 
L 2900 0 
L 1881 1375 
L 863 0 
L 184 0 
L 1544 1831 
L 300 3500 
L 978 3500 
L 1906 2253 
L 2834 3500 
L 3513 3500 
z
" transform="scale(0.015625)"/>
       <path id="DejaVuSans-57" d="M 1172 4494 
L 1172 3500 
L 2356 3500 
L 2356 3053 
L 1172 3053 
L 1172 1153 
Q 1172 725 1289 603 
Q 1406 481 1766 481 
L 2356 481 
L 2356 0 
L 1766 0 
Q 1100 0 847 248 
Q 594 497 594 1153 
L 594 3053 
L 172 3053 
L 172 3500 
L 594 3500 
L 594 4494 
L 1172 4494 
z
" transform="scale(0.015625)"/>
       <path id="DejaVuSans-55" d="M 2631 2963 
Q 2534 3019 2420 3045 
Q 2306 3072 2169 3072 
Q 1681 3072 1420 2755 
Q 1159 2438 1159 1844 
L 1159 0 
L 581 0 
L 581 3500 
L 1159 3500 
L 1159 2956 
Q 1341 3275 1631 3429 
Q 1922 3584 2338 3584 
Q 2397 3584 2469 3576 
Q 2541 3569 2628 3553 
L 2631 2963 
z
" transform="scale(0.015625)"/>
       <path id="DejaVuSans-44" d="M 2194 1759 
Q 1497 1759 1228 1600 
Q 959 1441 959 1056 
Q 959 750 1161 570 
Q 1363 391 1709 391 
Q 2188 391 2477 730 
Q 2766 1069 2766 1631 
L 2766 1759 
L 2194 1759 
z
M 3341 1997 
L 3341 0 
L 2766 0 
L 2766 531 
Q 2569 213 2275 61 
Q 1981 -91 1556 -91 
Q 1019 -91 701 211 
Q 384 513 384 1019 
Q 384 1609 779 1909 
Q 1175 2209 1959 2209 
L 2766 2209 
L 2766 2266 
Q 2766 2663 2505 2880 
Q 2244 3097 1772 3097 
Q 1472 3097 1187 3025 
Q 903 2953 641 2809 
L 641 3341 
Q 956 3463 1253 3523 
Q 1550 3584 1831 3584 
Q 2591 3584 2966 3190 
Q 3341 2797 3341 1997 
z
" transform="scale(0.015625)"/>
       <path id="DejaVuSans-46" d="M 3122 3366 
L 3122 2828 
Q 2878 2963 2633 3030 
Q 2388 3097 2138 3097 
Q 1578 3097 1268 2742 
Q 959 2388 959 1747 
Q 959 1106 1268 751 
Q 1578 397 2138 397 
Q 2388 397 2633 464 
Q 2878 531 3122 666 
L 3122 134 
Q 2881 22 2623 -34 
Q 2366 -91 2075 -91 
Q 1284 -91 818 406 
Q 353 903 353 1747 
Q 353 2603 823 3093 
Q 1294 3584 2113 3584 
Q 2378 3584 2631 3529 
Q 2884 3475 3122 3366 
z
" transform="scale(0.015625)"/>
       <path id="DejaVuSans-48" d="M 3597 1894 
L 3597 1613 
L 953 1613 
Q 991 1019 1311 708 
Q 1631 397 2203 397 
Q 2534 397 2845 478 
Q 3156 559 3463 722 
L 3463 178 
Q 3153 47 2828 -22 
Q 2503 -91 2169 -91 
Q 1331 -91 842 396 
Q 353 884 353 1716 
Q 353 2575 817 3079 
Q 1281 3584 2069 3584 
Q 2775 3584 3186 3129 
Q 3597 2675 3597 1894 
z
M 3022 2063 
Q 3016 2534 2758 2815 
Q 2500 3097 2075 3097 
Q 1594 3097 1305 2825 
Q 1016 2553 972 2059 
L 3022 2063 
z
" transform="scale(0.015625)"/>
       <path id="DejaVuSans-4f" d="M 603 4863 
L 1178 4863 
L 1178 0 
L 603 0 
L 603 4863 
z
" transform="scale(0.015625)"/>
       <path id="DejaVuSans-58" d="M 544 1381 
L 544 3500 
L 1119 3500 
L 1119 1403 
Q 1119 906 1312 657 
Q 1506 409 1894 409 
Q 2359 409 2629 706 
Q 2900 1003 2900 1516 
L 2900 3500 
L 3475 3500 
L 3475 0 
L 2900 0 
L 2900 538 
Q 2691 219 2414 64 
Q 2138 -91 1772 -91 
Q 1169 -91 856 284 
Q 544 659 544 1381 
z
M 1991 3584 
L 1991 3584 
z
" transform="scale(0.015625)"/>
       <path id="DejaVuSans-3" transform="scale(0.015625)"/>
       <path id="DejaVuSans-52" d="M 1959 3097 
Q 1497 3097 1228 2736 
Q 959 2375 959 1747 
Q 959 1119 1226 758 
Q 1494 397 1959 397 
Q 2419 397 2687 759 
Q 2956 1122 2956 1747 
Q 2956 2369 2687 2733 
Q 2419 3097 1959 3097 
z
M 1959 3584 
Q 2709 3584 3137 3096 
Q 3566 2609 3566 1747 
Q 3566 888 3137 398 
Q 2709 -91 1959 -91 
Q 1206 -91 779 398 
Q 353 888 353 1747 
Q 353 2609 779 3096 
Q 1206 3584 1959 3584 
z
" transform="scale(0.015625)"/>
       <path id="DejaVuSans-56" d="M 2834 3397 
L 2834 2853 
Q 2591 2978 2328 3040 
Q 2066 3103 1784 3103 
Q 1356 3103 1142 2972 
Q 928 2841 928 2578 
Q 928 2378 1081 2264 
Q 1234 2150 1697 2047 
L 1894 2003 
Q 2506 1872 2764 1633 
Q 3022 1394 3022 966 
Q 3022 478 2636 193 
Q 2250 -91 1575 -91 
Q 1294 -91 989 -36 
Q 684 19 347 128 
L 347 722 
Q 666 556 975 473 
Q 1284 391 1588 391 
Q 1994 391 2212 530 
Q 2431 669 2431 922 
Q 2431 1156 2273 1281 
Q 2116 1406 1581 1522 
L 1381 1569 
Q 847 1681 609 1914 
Q 372 2147 372 2553 
Q 372 3047 722 3315 
Q 1072 3584 1716 3584 
Q 2034 3584 2315 3537 
Q 2597 3491 2834 3397 
z
" transform="scale(0.015625)"/>
      </defs>
      <use xlink:href="#DejaVuSans-28"/>
      <use xlink:href="#DejaVuSans-5b" transform="translate(63.1875 0)"/>
      <use xlink:href="#DejaVuSans-57" transform="translate(122.375 0)"/>
      <use xlink:href="#DejaVuSans-55" transform="translate(161.578125 0)"/>
      <use xlink:href="#DejaVuSans-44" transform="translate(202.6875 0)"/>
      <use xlink:href="#DejaVuSans-46" transform="translate(263.96875 0)"/>
      <use xlink:href="#DejaVuSans-48" transform="translate(318.953125 0)"/>
      <use xlink:href="#DejaVuSans-4f" transform="translate(380.484375 0)"/>
      <use xlink:href="#DejaVuSans-4f" transform="translate(408.265625 0)"/>
      <use xlink:href="#DejaVuSans-58" transform="translate(436.046875 0)"/>
      <use xlink:href="#DejaVuSans-4f" transform="translate(499.421875 0)"/>
      <use xlink:href="#DejaVuSans-44" transform="translate(527.203125 0)"/>
      <use xlink:href="#DejaVuSans-55" transform="translate(588.484375 0)"/>
      <use xlink:href="#DejaVuSans-3" transform="translate(629.59375 0)"/>
      <use xlink:href="#DejaVuSans-4f" transform="translate(661.375 0)"/>
      <use xlink:href="#DejaVuSans-44" transform="translate(689.15625 0)"/>
      <use xlink:href="#DejaVuSans-46" transform="translate(750.4375 0)"/>
      <use xlink:href="#DejaVuSans-57" transform="translate(805.421875 0)"/>
      <use xlink:href="#DejaVuSans-52" transform="translate(844.625 0)"/>
      <use xlink:href="#DejaVuSans-56" transform="translate(905.8125 0)"/>
      <use xlink:href="#DejaVuSans-48" transform="translate(957.90625 0)"/>
     </g>
    </g>
   </g>
   <g id="line2d_13">
    <path d="M 56.88098 92.472021 
L 156.075893 92.472021 
L 156.164872 11.260572 
L 156.831975 11.341784 
L 156.949507 11.66663 
L 156.994262 11.747841 
L 157.140262 13.209647 
L 157.258446 14.833876 
L 157.272256 14.915088 
L 157.415579 16.620528 
L 157.439097 16.701739 
L 157.948 20.193832 
L 158.336037 20.843523 
L 158.407844 20.924735 
L 158.575247 21.818061 
L 158.586551 21.899272 
L 158.702183 22.630175 
L 158.713011 22.711387 
L 158.842257 24.091981 
L 159.91401 30.913743 
L 160.179744 32.45676 
L 160.26546 32.537972 
L 160.376721 33.187663 
L 160.418989 33.268875 
L 160.562366 34.243412 
L 160.912896 36.436121 
L 160.966963 36.517333 
L 161.078692 37.573082 
L 161.386268 39.116099 
L 161.422719 39.197311 
L 161.565317 39.359733 
L 161.654022 39.440945 
L 161.789486 39.603368 
L 161.938077 39.684579 
L 162.103043 40.009425 
L 162.200768 40.171848 
L 162.383616 40.740328 
L 162.494554 41.552443 
L 162.660173 41.714865 
L 162.761551 41.796077 
L 162.864595 41.877288 
L 163.113006 41.9585 
L 163.216862 42.364557 
L 163.530312 43.09546 
L 163.744041 43.176672 
L 163.855341 43.582729 
L 164.001054 43.907575 
L 164.082438 43.988786 
L 164.206171 44.557266 
L 164.232303 44.638478 
L 164.874508 46.912398 
L 164.96434 46.99361 
L 165.356165 48.455416 
L 165.509415 49.511164 
L 165.519656 49.592376 
L 165.684397 50.485702 
L 165.696752 50.566913 
L 165.849668 50.891759 
L 166.06657 51.297816 
L 166.102365 51.379028 
L 166.19736 51.460239 
L 166.355322 51.622662 
L 173.598869 51.703874 
L 173.640186 51.785085 
L 173.91452 51.866296 
L 174.36938 53.003257 
L 175.360965 53.084468 
L 175.47764 53.328103 
L 175.527121 53.409314 
L 175.996661 54.546274 
L 176.558611 58.200789 
L 176.580782 58.282001 
L 176.750212 59.581384 
L 176.82989 59.662595 
L 176.964435 59.987441 
L 177.073807 60.068653 
L 177.17779 60.47471 
L 177.40303 60.555921 
L 177.538109 61.124402 
L 177.789029 61.205613 
L 177.924967 61.368036 
L 178.254813 61.449247 
L 178.396851 61.61167 
L 178.536733 61.692882 
L 178.939996 62.098939 
L 178.978467 62.18015 
L 179.069745 62.342573 
L 179.272135 62.748631 
L 179.588224 62.829842 
L 179.702397 62.911053 
L 179.838642 62.992265 
L 179.946903 63.154688 
L 180.040584 63.235899 
L 180.15828 63.398322 
L 180.312745 63.479534 
L 180.42333 63.723168 
L 180.636913 63.885591 
L 183.21351 63.966802 
L 183.301515 64.210437 
L 183.440674 64.291648 
L 183.569665 64.860128 
L 183.730582 65.753454 
L 183.884271 66.0783 
L 184.004964 66.159511 
L 184.123326 66.403146 
L 184.568951 67.458894 
L 184.920165 68.758278 
L 185.049925 69.651604 
L 185.120333 69.732815 
L 185.249788 70.54493 
L 185.282903 70.626141 
L 185.376854 71.275833 
L 185.489007 71.357044 
L 185.666188 72.331581 
L 185.692448 72.412793 
L 185.872178 72.737639 
L 186.229863 72.81885 
L 186.369274 73.143696 
L 186.546641 73.224907 
L 187.45057 75.011559 
L 188.802944 75.092771 
L 188.894568 75.255194 
L 189.007336 75.336405 
L 189.103951 75.417616 
L 189.278174 75.498828 
L 189.367848 75.580039 
L 189.610606 75.661251 
L 189.753987 75.742462 
L 189.931504 75.823674 
L 190.014648 75.904885 
L 190.299407 75.986097 
L 190.37148 76.148519 
L 190.644881 76.229731 
L 191.030133 76.554577 
L 192.374255 76.635788 
L 192.459641 76.717 
L 192.834273 76.798211 
L 193.736581 77.610326 
L 193.854974 77.691537 
L 194.245934 78.584863 
L 194.5322 78.666074 
L 194.653606 78.747286 
L 194.926251 78.828497 
L 195.120257 79.153343 
L 195.267274 79.234554 
L 195.349672 79.396977 
L 195.738664 79.884246 
L 195.796308 79.965458 
L 195.871846 80.12788 
L 196.105698 80.209092 
L 196.212473 80.452726 
L 196.337809 80.533938 
L 196.427948 80.696361 
L 196.517734 80.777572 
L 197.015795 81.833321 
L 197.037381 81.914532 
L 197.161537 82.239378 
L 197.357964 82.320589 
L 197.45866 82.483012 
L 197.552466 82.564224 
L 197.644455 82.645435 
L 197.894916 82.726647 
L 197.987936 82.970281 
L 198.411892 83.701184 
L 198.476698 83.782396 
L 198.586377 84.02603 
L 198.700512 84.107241 
L 198.786671 84.188453 
L 198.883795 84.269664 
L 198.982189 84.432087 
L 199.182231 84.59451 
L 199.348551 84.675721 
L 199.511294 84.756933 
L 200.649175 84.838144 
L 201.213772 85.000567 
L 203.114707 85.081779 
L 203.25083 85.244202 
L 203.863952 85.325413 
L 203.966236 85.406625 
L 204.509548 85.487836 
L 204.943571 85.650259 
L 205.676636 85.73147 
L 205.793255 85.975105 
L 206.023424 86.056316 
L 206.120585 86.381162 
L 206.217123 86.462373 
L 206.294437 86.624796 
L 206.53542 86.706008 
L 206.687335 86.868431 
L 206.866309 86.949642 
L 206.971773 87.030853 
L 207.631961 87.355699 
L 207.691605 87.436911 
L 208.040344 87.518122 
L 208.28427 87.599334 
L 208.726234 87.680545 
L 209.092211 87.924179 
L 209.62072 88.005391 
L 209.764888 88.167814 
L 209.830756 88.249025 
L 210.058602 88.330237 
L 210.073389 88.411448 
L 210.344499 88.49266 
L 210.515007 88.573871 
L 210.621936 88.736294 
L 211.184561 88.817505 
L 211.308803 88.898717 
L 211.585599 88.979928 
L 211.817761 89.223563 
L 212.246288 89.304774 
L 212.362901 89.385985 
L 212.504058 89.467197 
L 213.038859 89.548408 
L 213.114651 89.62962 
L 214.153991 89.710831 
L 214.26885 89.792043 
L 225.567457 89.873254 
L 226.924192 89.954466 
L 243.318163 90.035677 
L 243.420695 90.116889 
L 250.538474 90.1981 
L 250.63583 90.279311 
L 274.930747 90.360523 
L 276.609171 90.441734 
L 312.422447 90.441734 
L 312.422447 90.441734 
" clip-path="url(#p4aac80fb95)" style="fill: none; stroke: #000000; stroke-width: 1.5; stroke-linecap: square"/>
   </g>
   <g id="patch_3">
    <path d="M 44.103906 96.532593 
L 44.103906 7.2 
" style="fill: none; stroke: #000000; stroke-width: 0.8; stroke-linejoin: miter; stroke-linecap: square"/>
   </g>
   <g id="patch_4">
    <path d="M 325.19952 96.532593 
L 325.19952 7.2 
" style="fill: none; stroke: #000000; stroke-width: 0.8; stroke-linejoin: miter; stroke-linecap: square"/>
   </g>
   <g id="patch_5">
    <path d="M 44.103906 96.532593 
L 325.19952 96.532593 
" style="fill: none; stroke: #000000; stroke-width: 0.8; stroke-linejoin: miter; stroke-linecap: square"/>
   </g>
   <g id="patch_6">
    <path d="M 44.103906 7.2 
L 325.19952 7.2 
" style="fill: none; stroke: #000000; stroke-width: 0.8; stroke-linejoin: miter; stroke-linecap: square"/>
   </g>
  </g>
  <g id="axes_2">
   <g id="patch_7">
    <path d="M 44.103906 195.365666 
L 325.19952 195.365666 
L 325.19952 106.033073 
L 44.103906 106.033073 
z
" style="fill: #ffffff"/>
   </g>
   <g id="matplotlib.axis_3">
    <g id="xtick_10">
     <g id="line2d_14">
      <g>
       <use xlink:href="#m9abe865c3a" x="56.88098" y="195.365666" style="stroke: #000000; stroke-width: 0.8"/>
      </g>
     </g>
    </g>
    <g id="xtick_11">
     <g id="line2d_15">
      <g>
       <use xlink:href="#m9abe865c3a" x="88.769339" y="195.365666" style="stroke: #000000; stroke-width: 0.8"/>
      </g>
     </g>
    </g>
    <g id="xtick_12">
     <g id="line2d_16">
      <g>
       <use xlink:href="#m9abe865c3a" x="120.657698" y="195.365666" style="stroke: #000000; stroke-width: 0.8"/>
      </g>
     </g>
    </g>
    <g id="xtick_13">
     <g id="line2d_17">
      <g>
       <use xlink:href="#m9abe865c3a" x="152.546058" y="195.365666" style="stroke: #000000; stroke-width: 0.8"/>
      </g>
     </g>
    </g>
    <g id="xtick_14">
     <g id="line2d_18">
      <g>
       <use xlink:href="#m9abe865c3a" x="184.434417" y="195.365666" style="stroke: #000000; stroke-width: 0.8"/>
      </g>
     </g>
    </g>
    <g id="xtick_15">
     <g id="line2d_19">
      <g>
       <use xlink:href="#m9abe865c3a" x="216.322777" y="195.365666" style="stroke: #000000; stroke-width: 0.8"/>
      </g>
     </g>
    </g>
    <g id="xtick_16">
     <g id="line2d_20">
      <g>
       <use xlink:href="#m9abe865c3a" x="248.211136" y="195.365666" style="stroke: #000000; stroke-width: 0.8"/>
      </g>
     </g>
    </g>
    <g id="xtick_17">
     <g id="line2d_21">
      <g>
       <use xlink:href="#m9abe865c3a" x="280.099496" y="195.365666" style="stroke: #000000; stroke-width: 0.8"/>
      </g>
     </g>
    </g>
    <g id="xtick_18">
     <g id="line2d_22">
      <g>
       <use xlink:href="#m9abe865c3a" x="311.987855" y="195.365666" style="stroke: #000000; stroke-width: 0.8"/>
      </g>
     </g>
    </g>
   </g>
   <g id="matplotlib.axis_4">
    <g id="ytick_4">
     <g id="line2d_23">
      <g>
       <use xlink:href="#m95a59dc645" x="44.103906" y="191.305093" style="stroke: #000000; stroke-width: 0.8"/>
      </g>
     </g>
     <g id="text_5">
      <!-- 0 -->
      <g transform="translate(30.741406 195.103922) scale(0.1 -0.1)">
       <use xlink:href="#DejaVuSans-13"/>
      </g>
     </g>
    </g>
    <g id="ytick_5">
     <g id="line2d_24">
      <g>
       <use xlink:href="#m95a59dc645" x="44.103906" y="150.699369" style="stroke: #000000; stroke-width: 0.8"/>
      </g>
     </g>
     <g id="text_6">
      <!-- 5 -->
      <g transform="translate(30.741406 154.498197) scale(0.1 -0.1)">
       <use xlink:href="#DejaVuSans-18"/>
      </g>
     </g>
    </g>
    <g id="ytick_6">
     <g id="line2d_25">
      <g>
       <use xlink:href="#m95a59dc645" x="44.103906" y="110.093645" style="stroke: #000000; stroke-width: 0.8"/>
      </g>
     </g>
     <g id="text_7">
      <!-- 10 -->
      <g transform="translate(24.378906 113.892473) scale(0.1 -0.1)">
       <use xlink:href="#DejaVuSans-14"/>
       <use xlink:href="#DejaVuSans-13" transform="translate(63.625 0)"/>
      </g>
     </g>
    </g>
    <g id="text_8">
     <!-- LacY -->
     <g transform="translate(17.976563 162.352494) rotate(-90) scale(0.1 -0.1)">
      <defs>
       <path id="DejaVuSans-2f" d="M 628 4666 
L 1259 4666 
L 1259 531 
L 3531 531 
L 3531 0 
L 628 0 
L 628 4666 
z
" transform="scale(0.015625)"/>
       <path id="DejaVuSans-3c" d="M -13 4666 
L 666 4666 
L 1959 2747 
L 3244 4666 
L 3922 4666 
L 2272 2222 
L 2272 0 
L 1638 0 
L 1638 2222 
L -13 4666 
z
" transform="scale(0.015625)"/>
      </defs>
      <use xlink:href="#DejaVuSans-2f"/>
      <use xlink:href="#DejaVuSans-44" transform="translate(55.71875 0)"/>
      <use xlink:href="#DejaVuSans-46" transform="translate(117 0)"/>
      <use xlink:href="#DejaVuSans-3c" transform="translate(171.984375 0)"/>
     </g>
    </g>
   </g>
   <g id="line2d_26">
    <path d="M 56.88098 110.093645 
L 56.908086 110.093645 
L 56.962539 118.21479 
L 57.070622 134.45708 
L 57.130918 142.578225 
L 57.282908 142.578225 
L 57.300591 134.45708 
L 57.52101 142.578225 
L 57.662767 142.578225 
L 57.833286 158.820514 
L 58.133956 175.062804 
L 58.199525 191.305093 
L 59.72834 191.305093 
L 59.894833 183.183949 
L 59.937541 191.305093 
L 64.956258 191.305093 
L 65.278966 183.183949 
L 65.388836 191.305093 
L 82.871591 191.305093 
L 83.065849 183.183949 
L 84.857788 191.305093 
L 84.872602 183.183949 
L 85.015699 175.062804 
L 85.02035 166.941659 
L 85.342265 175.062804 
L 85.569055 175.062804 
L 85.688596 191.305093 
L 85.74937 183.183949 
L 85.939451 183.183949 
L 86.077831 191.305093 
L 89.96708 191.305093 
L 90.356581 175.062804 
L 90.357881 166.941659 
L 90.856136 166.941659 
L 90.894775 183.183949 
L 91.666328 183.183949 
L 91.835123 175.062804 
L 92.179151 191.305093 
L 109.171322 191.305093 
L 109.276939 183.183949 
L 109.396555 183.183949 
L 109.535542 191.305093 
L 109.770365 191.305093 
L 109.811819 183.183949 
L 110.227465 183.183949 
L 110.577129 175.062804 
L 110.635432 183.183949 
L 110.810568 183.183949 
L 110.840124 191.305093 
L 119.593241 191.305093 
L 119.771536 183.183949 
L 121.870281 183.183949 
L 123.71643 191.305093 
L 131.478902 191.305093 
L 131.665036 183.183949 
L 131.952393 183.183949 
L 132.060093 191.305093 
L 136.392823 191.305093 
L 136.476494 183.183949 
L 136.498344 191.305093 
L 146.483953 191.305093 
L 146.744614 175.062804 
L 146.765431 183.183949 
L 146.794419 175.062804 
L 146.90745 166.941659 
L 146.912787 175.062804 
L 147.497118 175.062804 
L 148.113866 183.183949 
L 148.359026 183.183949 
L 148.674069 175.062804 
L 148.786874 175.062804 
L 149.858039 191.305093 
L 150.31789 191.305093 
L 150.369735 175.062804 
L 150.47054 175.062804 
L 150.623265 183.183949 
L 150.756892 183.183949 
L 151.299422 191.305093 
L 156.41432 191.305093 
L 156.842306 183.183949 
L 157.082433 150.699369 
L 157.363877 150.699369 
L 157.483902 166.941659 
L 157.533735 166.941659 
L 157.634566 158.820514 
L 157.721484 158.820514 
L 157.831216 175.062804 
L 157.859397 175.062804 
L 157.948 183.183949 
L 158.186077 183.183949 
L 158.221035 175.062804 
L 158.28105 183.183949 
L 158.413016 183.183949 
L 158.527053 166.941659 
L 158.551776 166.941659 
L 158.657796 158.820514 
L 158.769393 158.820514 
L 158.882885 166.941659 
L 159.004036 166.941659 
L 159.113358 183.183949 
L 159.186646 183.183949 
L 159.300044 175.062804 
L 159.416133 175.062804 
L 159.521766 166.941659 
L 159.53821 166.941659 
L 159.667902 158.820514 
L 159.783115 158.820514 
L 159.861793 150.699369 
L 159.893229 158.820514 
L 160.150772 158.820514 
L 160.260541 150.699369 
L 160.261689 158.820514 
L 160.269195 158.820514 
L 160.376721 166.941659 
L 160.602666 166.941659 
L 160.711605 158.820514 
L 160.72552 158.820514 
L 160.760747 150.699369 
L 160.836338 158.820514 
L 160.859134 158.820514 
L 160.942025 175.062804 
L 160.970699 166.941659 
L 161.132833 166.941659 
L 161.175989 158.820514 
L 161.241484 166.941659 
L 161.342212 166.941659 
L 161.450172 183.183949 
L 161.452365 175.062804 
L 161.46438 175.062804 
L 161.574313 183.183949 
L 161.582653 183.183949 
L 161.622774 175.062804 
L 161.692663 183.183949 
L 161.731602 183.183949 
L 161.847246 191.305093 
L 161.895187 191.305093 
L 162.003678 183.183949 
L 162.156424 183.183949 
L 162.28368 175.062804 
L 162.308518 175.062804 
L 162.402657 166.941659 
L 162.417919 175.062804 
L 162.531342 175.062804 
L 162.660173 183.183949 
L 163.055853 183.183949 
L 163.165631 175.062804 
L 163.175937 191.305093 
L 163.278669 183.183949 
L 163.737979 183.183949 
L 163.853895 175.062804 
L 164.087418 175.062804 
L 164.195632 166.941659 
L 164.467694 166.941659 
L 164.587548 175.062804 
L 164.712743 175.062804 
L 164.84432 183.183949 
L 165.106077 183.183949 
L 165.258671 166.941659 
L 165.308769 166.941659 
L 165.406869 158.820514 
L 165.556587 158.820514 
L 165.654148 166.941659 
L 165.893071 166.941659 
L 166.002447 175.062804 
L 166.176766 175.062804 
L 166.291208 191.305093 
L 173.446564 191.305093 
L 173.616248 183.183949 
L 173.640186 183.183949 
L 173.837563 191.305093 
L 174.056313 175.062804 
L 174.267242 175.062804 
L 174.36938 183.183949 
L 174.503586 191.305093 
L 175.205969 191.305093 
L 175.428918 183.183949 
L 175.47764 183.183949 
L 175.570596 175.062804 
L 175.64631 175.062804 
L 175.775191 166.941659 
L 175.895666 166.941659 
L 175.9169 158.820514 
L 175.996661 166.941659 
L 176.015855 166.941659 
L 176.125616 158.820514 
L 176.345733 158.820514 
L 176.45774 150.699369 
L 176.634293 150.699369 
L 176.750212 158.820514 
L 176.800347 158.820514 
L 176.964435 175.062804 
L 177.015719 175.062804 
L 177.133134 166.941659 
L 177.163543 166.941659 
L 177.293038 183.183949 
L 177.440448 183.183949 
L 177.557312 166.941659 
L 177.641222 183.183949 
L 177.843835 183.183949 
L 177.941731 191.305093 
L 178.1501 191.305093 
L 178.35385 175.062804 
L 178.396851 175.062804 
L 178.468315 166.941659 
L 178.502826 175.062804 
L 178.591891 175.062804 
L 178.703132 183.183949 
L 180.490802 183.183949 
L 180.557379 191.305093 
L 182.925291 191.305093 
L 183.112825 183.183949 
L 183.360842 183.183949 
L 183.690137 150.699369 
L 183.705922 150.699369 
L 183.771373 142.578225 
L 183.782826 158.820514 
L 183.801992 158.820514 
L 184.004815 158.820514 
L 184.066688 166.941659 
L 184.099545 158.820514 
L 184.159708 158.820514 
L 184.26689 166.941659 
L 184.62089 166.941659 
L 184.738213 158.820514 
L 184.813201 158.820514 
L 184.932378 142.578225 
L 184.953795 142.578225 
L 185.067073 158.820514 
L 185.130847 158.820514 
L 185.239754 150.699369 
L 185.369455 150.699369 
L 185.475095 158.820514 
L 185.527731 158.820514 
L 185.666188 150.699369 
L 185.690191 150.699369 
L 185.794523 175.062804 
L 185.862879 175.062804 
L 185.940358 166.941659 
L 185.966268 175.062804 
L 186.059842 183.183949 
L 186.31931 175.062804 
L 186.367027 183.183949 
L 186.411094 175.062804 
L 187.099119 175.062804 
L 187.16292 166.941659 
L 187.209897 175.062804 
L 187.214318 166.941659 
L 187.26987 175.062804 
L 187.359593 175.062804 
L 187.532111 191.305093 
L 187.75025 191.305093 
L 187.885595 183.183949 
L 188.107945 183.183949 
L 188.214536 175.062804 
L 188.346967 183.183949 
L 188.389999 183.183949 
L 188.502398 191.305093 
L 188.588667 183.183949 
L 188.696799 183.183949 
L 188.817376 175.062804 
L 189.080431 175.062804 
L 189.176982 183.183949 
L 189.290838 175.062804 
L 189.340023 175.062804 
L 189.341837 166.941659 
L 189.367848 183.183949 
L 189.483198 183.183949 
L 189.538694 175.062804 
L 189.701544 183.183949 
L 189.732182 183.183949 
L 189.828439 175.062804 
L 189.843105 183.183949 
L 189.960506 183.183949 
L 190.014648 191.305093 
L 190.256788 183.183949 
L 191.025049 183.183949 
L 191.096002 191.305093 
L 191.981217 191.305093 
L 192.15528 183.183949 
L 192.640893 183.183949 
L 192.834273 175.062804 
L 193.342514 175.062804 
L 193.443666 166.941659 
L 193.621115 166.941659 
L 193.736581 183.183949 
L 193.938946 166.941659 
L 194.051779 166.941659 
L 194.142134 158.820514 
L 194.329658 166.941659 
L 194.348268 166.941659 
L 194.435764 183.183949 
L 194.527051 166.941659 
L 194.563663 175.062804 
L 194.653606 183.183949 
L 194.793362 175.062804 
L 194.947405 158.820514 
L 195.055591 175.062804 
L 195.103572 175.062804 
L 195.202438 158.820514 
L 195.348441 158.820514 
L 195.458539 166.941659 
L 195.771567 166.941659 
L 195.871846 158.820514 
L 196.397233 158.820514 
L 196.517734 150.699369 
L 196.722422 150.699369 
L 196.808296 142.578225 
L 196.821416 150.699369 
L 196.902197 150.699369 
L 197.011533 158.820514 
L 197.015795 150.699369 
L 197.109449 158.820514 
L 197.161537 158.820514 
L 197.229642 166.941659 
L 197.2357 158.820514 
L 197.324491 158.820514 
L 197.394847 166.941659 
L 197.447149 166.941659 
L 197.563628 150.699369 
L 197.570086 158.820514 
L 197.598344 142.578225 
L 197.644455 142.578225 
L 197.713355 150.699369 
L 197.751478 142.578225 
L 197.90707 142.578225 
L 197.981025 150.699369 
L 197.987936 142.578225 
L 198.408616 142.578225 
L 198.504657 158.820514 
L 198.563276 158.820514 
L 198.584678 166.941659 
L 198.655851 158.820514 
L 198.696934 158.820514 
L 198.783451 166.941659 
L 198.786671 158.820514 
L 198.855672 158.820514 
L 198.943837 166.941659 
L 199.178733 166.941659 
L 199.289972 183.183949 
L 199.409053 183.183949 
L 199.511294 191.305093 
L 200.510813 191.305093 
L 200.649175 183.183949 
L 201.350204 183.183949 
L 201.562944 191.305093 
L 202.435664 191.305093 
L 202.659034 183.183949 
L 203.469844 183.183949 
L 203.479725 175.062804 
L 203.929631 175.062804 
L 203.96075 166.941659 
L 204.024195 175.062804 
L 204.14971 183.183949 
L 204.33871 183.183949 
L 204.509548 175.062804 
L 204.661401 175.062804 
L 204.762492 183.183949 
L 204.83899 183.183949 
L 204.917613 175.062804 
L 204.943571 183.183949 
L 205.092994 175.062804 
L 205.169422 183.183949 
L 205.279099 175.062804 
L 205.364557 175.062804 
L 205.42664 166.941659 
L 205.661864 183.183949 
L 205.674425 175.062804 
L 205.774304 142.578225 
L 205.781278 150.699369 
L 205.960718 150.699369 
L 206.072916 134.45708 
L 206.120585 134.45708 
L 206.273392 142.578225 
L 206.294437 142.578225 
L 206.559227 158.820514 
L 206.652863 158.820514 
L 206.759315 175.062804 
L 206.914128 150.699369 
L 206.971773 158.820514 
L 207.201857 158.820514 
L 207.32762 166.941659 
L 207.554689 166.941659 
L 207.603283 158.820514 
L 207.641329 166.941659 
L 207.691605 166.941659 
L 207.787325 175.062804 
L 207.851495 166.941659 
L 207.996779 175.062804 
L 208.040344 166.941659 
L 208.151731 166.941659 
L 208.28427 183.183949 
L 208.466337 183.183949 
L 208.583665 175.062804 
L 208.694014 191.305093 
L 208.726234 183.183949 
L 209.009061 183.183949 
L 209.079868 191.305093 
L 209.092211 183.183949 
L 209.257953 183.183949 
L 209.271893 166.941659 
L 209.550292 166.941659 
L 209.62072 158.820514 
L 209.7714 158.820514 
L 209.830756 142.578225 
L 209.992944 142.578225 
L 210.073389 150.699369 
L 210.292606 150.699369 
L 210.403463 158.820514 
L 210.42536 150.699369 
L 210.488483 166.941659 
L 210.507412 166.941659 
L 210.722895 166.941659 
L 210.832428 158.820514 
L 211.01399 158.820514 
L 211.131585 150.699369 
L 211.17891 150.699369 
L 211.279621 158.820514 
L 211.308803 158.820514 
L 211.411158 142.578225 
L 211.627107 134.45708 
L 211.673246 134.45708 
L 211.788578 118.21479 
L 211.809656 118.21479 
L 211.894534 142.578225 
L 212.035359 134.45708 
L 212.103661 142.578225 
L 212.227747 142.578225 
L 212.344418 158.820514 
L 212.428384 158.820514 
L 212.504058 166.941659 
L 212.872213 166.941659 
L 212.994031 158.820514 
L 213.044828 158.820514 
L 213.114651 175.062804 
L 213.241091 183.183949 
L 213.812016 183.183949 
L 213.987127 175.062804 
L 214.220423 175.062804 
L 214.26885 183.183949 
L 214.534289 191.305093 
L 214.68939 175.062804 
L 215.089614 175.062804 
L 215.288574 183.183949 
L 215.949962 191.305093 
L 222.161508 191.305093 
L 222.704465 183.183949 
L 222.881372 175.062804 
L 223.075702 183.183949 
L 223.205506 183.183949 
L 223.339136 191.305093 
L 225.40773 191.305093 
L 225.567457 183.183949 
L 226.167082 183.183949 
L 226.206518 191.305093 
L 242.322731 191.305093 
L 242.524213 183.183949 
L 242.689545 191.305093 
L 242.842472 183.183949 
L 242.983334 175.062804 
L 243.33426 175.062804 
L 243.420695 183.183949 
L 243.72028 191.305093 
L 249.281455 191.305093 
L 249.565785 166.941659 
L 249.775284 175.062804 
L 250.068303 166.941659 
L 250.577854 166.941659 
L 250.733236 191.305093 
L 251.31076 191.305093 
L 251.344465 183.183949 
L 251.835849 183.183949 
L 253.088098 191.305093 
L 258.484305 191.305093 
L 258.617822 183.183949 
L 258.651341 191.305093 
L 271.475832 191.305093 
L 271.922616 183.183949 
L 272.017755 191.305093 
L 274.132399 191.305093 
L 274.766459 183.183949 
L 275.838889 183.183949 
L 276.609171 191.305093 
L 281.002192 191.305093 
L 281.055219 183.183949 
L 281.187404 191.305093 
L 299.003065 191.305093 
L 299.029214 183.183949 
L 299.141299 191.305093 
L 299.280111 191.305093 
L 299.367322 183.183949 
L 299.72854 183.183949 
L 299.977635 191.305093 
L 312.422447 191.305093 
L 312.422447 191.305093 
" clip-path="url(#p5cd10a7aec)" style="fill: none; stroke: #000000; stroke-width: 1.5; stroke-linecap: square"/>
   </g>
   <g id="patch_8">
    <path d="M 44.103906 195.365666 
L 44.103906 106.033073 
" style="fill: none; stroke: #000000; stroke-width: 0.8; stroke-linejoin: miter; stroke-linecap: square"/>
   </g>
   <g id="patch_9">
    <path d="M 325.19952 195.365666 
L 325.19952 106.033073 
" style="fill: none; stroke: #000000; stroke-width: 0.8; stroke-linejoin: miter; stroke-linecap: square"/>
   </g>
   <g id="patch_10">
    <path d="M 44.103906 195.365666 
L 325.19952 195.365666 
" style="fill: none; stroke: #000000; stroke-width: 0.8; stroke-linejoin: miter; stroke-linecap: square"/>
   </g>
   <g id="patch_11">
    <path d="M 44.103906 106.033073 
L 325.19952 106.033073 
" style="fill: none; stroke: #000000; stroke-width: 0.8; stroke-linejoin: miter; stroke-linecap: square"/>
   </g>
  </g>
  <g id="axes_3">
   <g id="patch_12">
    <path d="M 44.103906 294.198739 
L 325.19952 294.198739 
L 325.19952 204.866146 
L 44.103906 204.866146 
z
" style="fill: #ffffff"/>
   </g>
   <g id="matplotlib.axis_5">
    <g id="xtick_19">
     <g id="line2d_27">
      <g>
       <use xlink:href="#m9abe865c3a" x="56.88098" y="294.198739" style="stroke: #000000; stroke-width: 0.8"/>
      </g>
     </g>
     <g id="text_9">
      <!-- 0 -->
      <g transform="translate(53.69973 308.796395) scale(0.1 -0.1)">
       <use xlink:href="#DejaVuSans-13"/>
      </g>
     </g>
    </g>
    <g id="xtick_20">
     <g id="line2d_28">
      <g>
       <use xlink:href="#m9abe865c3a" x="88.769339" y="294.198739" style="stroke: #000000; stroke-width: 0.8"/>
      </g>
     </g>
     <g id="text_10">
      <!-- 100 -->
      <g transform="translate(79.225589 308.796395) scale(0.1 -0.1)">
       <use xlink:href="#DejaVuSans-14"/>
       <use xlink:href="#DejaVuSans-13" transform="translate(63.625 0)"/>
       <use xlink:href="#DejaVuSans-13" transform="translate(127.25 0)"/>
      </g>
     </g>
    </g>
    <g id="xtick_21">
     <g id="line2d_29">
      <g>
       <use xlink:href="#m9abe865c3a" x="120.657698" y="294.198739" style="stroke: #000000; stroke-width: 0.8"/>
      </g>
     </g>
     <g id="text_11">
      <!-- 200 -->
      <g transform="translate(111.113948 308.796395) scale(0.1 -0.1)">
       <defs>
        <path id="DejaVuSans-15" d="M 1228 531 
L 3431 531 
L 3431 0 
L 469 0 
L 469 531 
Q 828 903 1448 1529 
Q 2069 2156 2228 2338 
Q 2531 2678 2651 2914 
Q 2772 3150 2772 3378 
Q 2772 3750 2511 3984 
Q 2250 4219 1831 4219 
Q 1534 4219 1204 4116 
Q 875 4013 500 3803 
L 500 4441 
Q 881 4594 1212 4672 
Q 1544 4750 1819 4750 
Q 2544 4750 2975 4387 
Q 3406 4025 3406 3419 
Q 3406 3131 3298 2873 
Q 3191 2616 2906 2266 
Q 2828 2175 2409 1742 
Q 1991 1309 1228 531 
z
" transform="scale(0.015625)"/>
       </defs>
       <use xlink:href="#DejaVuSans-15"/>
       <use xlink:href="#DejaVuSans-13" transform="translate(63.625 0)"/>
       <use xlink:href="#DejaVuSans-13" transform="translate(127.25 0)"/>
      </g>
     </g>
    </g>
    <g id="xtick_22">
     <g id="line2d_30">
      <g>
       <use xlink:href="#m9abe865c3a" x="152.546058" y="294.198739" style="stroke: #000000; stroke-width: 0.8"/>
      </g>
     </g>
     <g id="text_12">
      <!-- 300 -->
      <g transform="translate(143.002308 308.796395) scale(0.1 -0.1)">
       <defs>
        <path id="DejaVuSans-16" d="M 2597 2516 
Q 3050 2419 3304 2112 
Q 3559 1806 3559 1356 
Q 3559 666 3084 287 
Q 2609 -91 1734 -91 
Q 1441 -91 1130 -33 
Q 819 25 488 141 
L 488 750 
Q 750 597 1062 519 
Q 1375 441 1716 441 
Q 2309 441 2620 675 
Q 2931 909 2931 1356 
Q 2931 1769 2642 2001 
Q 2353 2234 1838 2234 
L 1294 2234 
L 1294 2753 
L 1863 2753 
Q 2328 2753 2575 2939 
Q 2822 3125 2822 3475 
Q 2822 3834 2567 4026 
Q 2313 4219 1838 4219 
Q 1578 4219 1281 4162 
Q 984 4106 628 3988 
L 628 4550 
Q 988 4650 1302 4700 
Q 1616 4750 1894 4750 
Q 2613 4750 3031 4423 
Q 3450 4097 3450 3541 
Q 3450 3153 3228 2886 
Q 3006 2619 2597 2516 
z
" transform="scale(0.015625)"/>
       </defs>
       <use xlink:href="#DejaVuSans-16"/>
       <use xlink:href="#DejaVuSans-13" transform="translate(63.625 0)"/>
       <use xlink:href="#DejaVuSans-13" transform="translate(127.25 0)"/>
      </g>
     </g>
    </g>
    <g id="xtick_23">
     <g id="line2d_31">
      <g>
       <use xlink:href="#m9abe865c3a" x="184.434417" y="294.198739" style="stroke: #000000; stroke-width: 0.8"/>
      </g>
     </g>
     <g id="text_13">
      <!-- 400 -->
      <g transform="translate(174.890667 308.796395) scale(0.1 -0.1)">
       <defs>
        <path id="DejaVuSans-17" d="M 2419 4116 
L 825 1625 
L 2419 1625 
L 2419 4116 
z
M 2253 4666 
L 3047 4666 
L 3047 1625 
L 3713 1625 
L 3713 1100 
L 3047 1100 
L 3047 0 
L 2419 0 
L 2419 1100 
L 313 1100 
L 313 1709 
L 2253 4666 
z
" transform="scale(0.015625)"/>
       </defs>
       <use xlink:href="#DejaVuSans-17"/>
       <use xlink:href="#DejaVuSans-13" transform="translate(63.625 0)"/>
       <use xlink:href="#DejaVuSans-13" transform="translate(127.25 0)"/>
      </g>
     </g>
    </g>
    <g id="xtick_24">
     <g id="line2d_32">
      <g>
       <use xlink:href="#m9abe865c3a" x="216.322777" y="294.198739" style="stroke: #000000; stroke-width: 0.8"/>
      </g>
     </g>
     <g id="text_14">
      <!-- 500 -->
      <g transform="translate(206.779027 308.796395) scale(0.1 -0.1)">
       <use xlink:href="#DejaVuSans-18"/>
       <use xlink:href="#DejaVuSans-13" transform="translate(63.625 0)"/>
       <use xlink:href="#DejaVuSans-13" transform="translate(127.25 0)"/>
      </g>
     </g>
    </g>
    <g id="xtick_25">
     <g id="line2d_33">
      <g>
       <use xlink:href="#m9abe865c3a" x="248.211136" y="294.198739" style="stroke: #000000; stroke-width: 0.8"/>
      </g>
     </g>
     <g id="text_15">
      <!-- 600 -->
      <g transform="translate(238.667386 308.796395) scale(0.1 -0.1)">
       <defs>
        <path id="DejaVuSans-19" d="M 2113 2584 
Q 1688 2584 1439 2293 
Q 1191 2003 1191 1497 
Q 1191 994 1439 701 
Q 1688 409 2113 409 
Q 2538 409 2786 701 
Q 3034 994 3034 1497 
Q 3034 2003 2786 2293 
Q 2538 2584 2113 2584 
z
M 3366 4563 
L 3366 3988 
Q 3128 4100 2886 4159 
Q 2644 4219 2406 4219 
Q 1781 4219 1451 3797 
Q 1122 3375 1075 2522 
Q 1259 2794 1537 2939 
Q 1816 3084 2150 3084 
Q 2853 3084 3261 2657 
Q 3669 2231 3669 1497 
Q 3669 778 3244 343 
Q 2819 -91 2113 -91 
Q 1303 -91 875 529 
Q 447 1150 447 2328 
Q 447 3434 972 4092 
Q 1497 4750 2381 4750 
Q 2619 4750 2861 4703 
Q 3103 4656 3366 4563 
z
" transform="scale(0.015625)"/>
       </defs>
       <use xlink:href="#DejaVuSans-19"/>
       <use xlink:href="#DejaVuSans-13" transform="translate(63.625 0)"/>
       <use xlink:href="#DejaVuSans-13" transform="translate(127.25 0)"/>
      </g>
     </g>
    </g>
    <g id="xtick_26">
     <g id="line2d_34">
      <g>
       <use xlink:href="#m9abe865c3a" x="280.099496" y="294.198739" style="stroke: #000000; stroke-width: 0.8"/>
      </g>
     </g>
     <g id="text_16">
      <!-- 700 -->
      <g transform="translate(270.555746 308.796395) scale(0.1 -0.1)">
       <defs>
        <path id="DejaVuSans-1a" d="M 525 4666 
L 3525 4666 
L 3525 4397 
L 1831 0 
L 1172 0 
L 2766 4134 
L 525 4134 
L 525 4666 
z
" transform="scale(0.015625)"/>
       </defs>
       <use xlink:href="#DejaVuSans-1a"/>
       <use xlink:href="#DejaVuSans-13" transform="translate(63.625 0)"/>
       <use xlink:href="#DejaVuSans-13" transform="translate(127.25 0)"/>
      </g>
     </g>
    </g>
    <g id="xtick_27">
     <g id="line2d_35">
      <g>
       <use xlink:href="#m9abe865c3a" x="311.987855" y="294.198739" style="stroke: #000000; stroke-width: 0.8"/>
      </g>
     </g>
     <g id="text_17">
      <!-- 800 -->
      <g transform="translate(302.444105 308.796395) scale(0.1 -0.1)">
       <defs>
        <path id="DejaVuSans-1b" d="M 2034 2216 
Q 1584 2216 1326 1975 
Q 1069 1734 1069 1313 
Q 1069 891 1326 650 
Q 1584 409 2034 409 
Q 2484 409 2743 651 
Q 3003 894 3003 1313 
Q 3003 1734 2745 1975 
Q 2488 2216 2034 2216 
z
M 1403 2484 
Q 997 2584 770 2862 
Q 544 3141 544 3541 
Q 544 4100 942 4425 
Q 1341 4750 2034 4750 
Q 2731 4750 3128 4425 
Q 3525 4100 3525 3541 
Q 3525 3141 3298 2862 
Q 3072 2584 2669 2484 
Q 3125 2378 3379 2068 
Q 3634 1759 3634 1313 
Q 3634 634 3220 271 
Q 2806 -91 2034 -91 
Q 1263 -91 848 271 
Q 434 634 434 1313 
Q 434 1759 690 2068 
Q 947 2378 1403 2484 
z
M 1172 3481 
Q 1172 3119 1398 2916 
Q 1625 2713 2034 2713 
Q 2441 2713 2670 2916 
Q 2900 3119 2900 3481 
Q 2900 3844 2670 4047 
Q 2441 4250 2034 4250 
Q 1625 4250 1398 4047 
Q 1172 3844 1172 3481 
z
" transform="scale(0.015625)"/>
       </defs>
       <use xlink:href="#DejaVuSans-1b"/>
       <use xlink:href="#DejaVuSans-13" transform="translate(63.625 0)"/>
       <use xlink:href="#DejaVuSans-13" transform="translate(127.25 0)"/>
      </g>
     </g>
    </g>
    <g id="text_18">
     <!-- Time -->
     <g transform="translate(172.415776 322.797176) scale(0.1 -0.1)">
      <defs>
       <path id="DejaVuSans-37" d="M -19 4666 
L 3928 4666 
L 3928 4134 
L 2272 4134 
L 2272 0 
L 1638 0 
L 1638 4134 
L -19 4134 
L -19 4666 
z
" transform="scale(0.015625)"/>
       <path id="DejaVuSans-4c" d="M 603 3500 
L 1178 3500 
L 1178 0 
L 603 0 
L 603 3500 
z
M 603 4863 
L 1178 4863 
L 1178 4134 
L 603 4134 
L 603 4863 
z
" transform="scale(0.015625)"/>
       <path id="DejaVuSans-50" d="M 3328 2828 
Q 3544 3216 3844 3400 
Q 4144 3584 4550 3584 
Q 5097 3584 5394 3201 
Q 5691 2819 5691 2113 
L 5691 0 
L 5113 0 
L 5113 2094 
Q 5113 2597 4934 2840 
Q 4756 3084 4391 3084 
Q 3944 3084 3684 2787 
Q 3425 2491 3425 1978 
L 3425 0 
L 2847 0 
L 2847 2094 
Q 2847 2600 2669 2842 
Q 2491 3084 2119 3084 
Q 1678 3084 1418 2786 
Q 1159 2488 1159 1978 
L 1159 0 
L 581 0 
L 581 3500 
L 1159 3500 
L 1159 2956 
Q 1356 3278 1631 3431 
Q 1906 3584 2284 3584 
Q 2666 3584 2933 3390 
Q 3200 3197 3328 2828 
z
" transform="scale(0.015625)"/>
      </defs>
      <use xlink:href="#DejaVuSans-37"/>
      <use xlink:href="#DejaVuSans-4c" transform="translate(58 0)"/>
      <use xlink:href="#DejaVuSans-50" transform="translate(85.78125 0)"/>
      <use xlink:href="#DejaVuSans-48" transform="translate(183.1875 0)"/>
     </g>
    </g>
   </g>
   <g id="matplotlib.axis_6">
    <g id="ytick_7">
     <g id="line2d_36">
      <g>
       <use xlink:href="#m95a59dc645" x="44.103906" y="290.138166" style="stroke: #000000; stroke-width: 0.8"/>
      </g>
     </g>
     <g id="text_19">
      <!-- 0.0 -->
      <g transform="translate(21.200781 293.936994) scale(0.1 -0.1)">
       <defs>
        <path id="DejaVuSans-11" d="M 684 794 
L 1344 794 
L 1344 0 
L 684 0 
L 684 794 
z
" transform="scale(0.015625)"/>
       </defs>
       <use xlink:href="#DejaVuSans-13"/>
       <use xlink:href="#DejaVuSans-11" transform="translate(63.625 0)"/>
       <use xlink:href="#DejaVuSans-13" transform="translate(95.40625 0)"/>
      </g>
     </g>
    </g>
    <g id="ytick_8">
     <g id="line2d_37">
      <g>
       <use xlink:href="#m95a59dc645" x="44.103906" y="249.532442" style="stroke: #000000; stroke-width: 0.8"/>
      </g>
     </g>
     <g id="text_20">
      <!-- 0.5 -->
      <g transform="translate(21.200781 253.33127) scale(0.1 -0.1)">
       <use xlink:href="#DejaVuSans-13"/>
       <use xlink:href="#DejaVuSans-11" transform="translate(63.625 0)"/>
       <use xlink:href="#DejaVuSans-18" transform="translate(95.40625 0)"/>
      </g>
     </g>
    </g>
    <g id="ytick_9">
     <g id="line2d_38">
      <g>
       <use xlink:href="#m95a59dc645" x="44.103906" y="208.926718" style="stroke: #000000; stroke-width: 0.8"/>
      </g>
     </g>
     <g id="text_21">
      <!-- 1.0 -->
      <g transform="translate(21.200781 212.725546) scale(0.1 -0.1)">
       <use xlink:href="#DejaVuSans-14"/>
       <use xlink:href="#DejaVuSans-11" transform="translate(63.625 0)"/>
       <use xlink:href="#DejaVuSans-13" transform="translate(95.40625 0)"/>
      </g>
     </g>
    </g>
    <g id="text_22">
     <!-- Free lac operon -->
     <g transform="translate(14.798438 288.006661) rotate(-90) scale(0.1 -0.1)">
      <defs>
       <path id="DejaVuSans-29" d="M 628 4666 
L 3309 4666 
L 3309 4134 
L 1259 4134 
L 1259 2759 
L 3109 2759 
L 3109 2228 
L 1259 2228 
L 1259 0 
L 628 0 
L 628 4666 
z
" transform="scale(0.015625)"/>
       <path id="DejaVuSans-53" d="M 1159 525 
L 1159 -1331 
L 581 -1331 
L 581 3500 
L 1159 3500 
L 1159 2969 
Q 1341 3281 1617 3432 
Q 1894 3584 2278 3584 
Q 2916 3584 3314 3078 
Q 3713 2572 3713 1747 
Q 3713 922 3314 415 
Q 2916 -91 2278 -91 
Q 1894 -91 1617 61 
Q 1341 213 1159 525 
z
M 3116 1747 
Q 3116 2381 2855 2742 
Q 2594 3103 2138 3103 
Q 1681 3103 1420 2742 
Q 1159 2381 1159 1747 
Q 1159 1113 1420 752 
Q 1681 391 2138 391 
Q 2594 391 2855 752 
Q 3116 1113 3116 1747 
z
" transform="scale(0.015625)"/>
       <path id="DejaVuSans-51" d="M 3513 2113 
L 3513 0 
L 2938 0 
L 2938 2094 
Q 2938 2591 2744 2837 
Q 2550 3084 2163 3084 
Q 1697 3084 1428 2787 
Q 1159 2491 1159 1978 
L 1159 0 
L 581 0 
L 581 3500 
L 1159 3500 
L 1159 2956 
Q 1366 3272 1645 3428 
Q 1925 3584 2291 3584 
Q 2894 3584 3203 3211 
Q 3513 2838 3513 2113 
z
" transform="scale(0.015625)"/>
      </defs>
      <use xlink:href="#DejaVuSans-29"/>
      <use xlink:href="#DejaVuSans-55" transform="translate(50.234375 0)"/>
      <use xlink:href="#DejaVuSans-48" transform="translate(89.140625 0)"/>
      <use xlink:href="#DejaVuSans-48" transform="translate(150.671875 0)"/>
      <use xlink:href="#DejaVuSans-3" transform="translate(212.203125 0)"/>
      <use xlink:href="#DejaVuSans-4f" transform="translate(243.984375 0)"/>
      <use xlink:href="#DejaVuSans-44" transform="translate(271.765625 0)"/>
      <use xlink:href="#DejaVuSans-46" transform="translate(333.046875 0)"/>
      <use xlink:href="#DejaVuSans-3" transform="translate(388.03125 0)"/>
      <use xlink:href="#DejaVuSans-52" transform="translate(419.8125 0)"/>
      <use xlink:href="#DejaVuSans-53" transform="translate(481 0)"/>
      <use xlink:href="#DejaVuSans-48" transform="translate(544.484375 0)"/>
      <use xlink:href="#DejaVuSans-55" transform="translate(606.015625 0)"/>
      <use xlink:href="#DejaVuSans-52" transform="translate(644.921875 0)"/>
      <use xlink:href="#DejaVuSans-51" transform="translate(706.109375 0)"/>
     </g>
    </g>
   </g>
   <g id="line2d_39">
    <path d="M 56.88098 208.926718 
L 56.962539 290.138166 
L 57.130918 290.138166 
L 57.300591 208.926718 
L 57.418823 208.926718 
L 57.52101 290.138166 
L 58.737953 290.138166 
L 59.72834 208.926718 
L 59.914784 208.926718 
L 59.937541 290.138166 
L 62.360316 290.138166 
L 64.956258 208.926718 
L 65.251316 208.926718 
L 65.388836 290.138166 
L 65.514777 290.138166 
L 72.180857 208.926718 
L 72.350739 290.138166 
L 80.194624 208.926718 
L 80.243688 290.138166 
L 82.871591 208.926718 
L 83.011657 208.926718 
L 83.065849 290.138166 
L 84.807134 290.138166 
L 84.872602 208.926718 
L 85.74937 208.926718 
L 85.939451 290.138166 
L 86.972854 290.138166 
L 89.96708 208.926718 
L 90.507379 208.926718 
L 90.536673 290.138166 
L 90.894775 290.138166 
L 91.776645 208.926718 
L 91.835123 290.138166 
L 92.179151 290.138166 
L 109.26323 208.926718 
L 109.276939 290.138166 
L 109.535542 290.138166 
L 109.811819 208.926718 
L 110.099327 290.138166 
L 110.227465 208.926718 
L 110.635432 208.926718 
L 110.840124 290.138166 
L 111.132921 290.138166 
L 115.297274 208.926718 
L 115.958248 290.138166 
L 117.601149 208.926718 
L 117.916546 290.138166 
L 118.589323 208.926718 
L 118.676693 290.138166 
L 119.686583 208.926718 
L 119.771536 290.138166 
L 123.71643 290.138166 
L 129.738427 208.926718 
L 129.844429 290.138166 
L 131.587613 208.926718 
L 132.038641 208.926718 
L 132.060093 290.138166 
L 133.901346 290.138166 
L 136.498344 208.926718 
L 136.511658 290.138166 
L 139.394222 208.926718 
L 139.436976 290.138166 
L 146.483953 208.926718 
L 147.42877 208.926718 
L 147.497118 290.138166 
L 148.113866 290.138166 
L 148.359026 208.926718 
L 148.674069 208.926718 
L 148.786874 290.138166 
L 149.858039 290.138166 
L 150.369735 208.926718 
L 150.47054 290.138166 
L 151.592216 290.138166 
L 151.603543 208.926718 
L 151.765163 290.138166 
L 156.075893 208.926718 
L 156.164872 290.138166 
L 156.41432 208.926718 
L 164.366461 208.926718 
L 164.45548 290.138166 
L 164.467694 208.926718 
L 165.336244 208.926718 
L 165.454342 290.138166 
L 172.562064 290.138166 
L 173.537451 208.926718 
L 173.981674 208.926718 
L 174.111192 290.138166 
L 174.682257 290.138166 
L 175.036903 208.926718 
L 178.521511 208.926718 
L 178.622499 290.138166 
L 182.235391 290.138166 
L 182.485046 208.926718 
L 192.097472 208.926718 
L 192.163347 290.138166 
L 192.413498 290.138166 
L 192.533227 208.926718 
L 214.780425 208.926718 
L 214.90176 290.138166 
L 216.669017 290.138166 
L 222.161508 208.926718 
L 223.075702 208.926718 
L 223.205506 290.138166 
L 224.261483 290.138166 
L 225.150448 208.926718 
L 225.534089 208.926718 
L 225.567457 290.138166 
L 226.924192 290.138166 
L 233.671239 208.926718 
L 233.754365 290.138166 
L 240.174254 208.926718 
L 240.624151 290.138166 
L 242.322731 208.926718 
L 242.983334 208.926718 
L 243.031282 290.138166 
L 244.264428 290.138166 
L 249.385218 208.926718 
L 250.068303 208.926718 
L 250.334982 290.138166 
L 250.908507 290.138166 
L 251.344465 208.926718 
L 251.493065 290.138166 
L 253.689028 290.138166 
L 255.363595 208.926718 
L 255.418245 290.138166 
L 258.557881 208.926718 
L 258.651341 290.138166 
L 259.279002 290.138166 
L 263.263275 208.926718 
L 263.475683 290.138166 
L 263.794978 208.926718 
L 263.859514 290.138166 
L 271.475832 208.926718 
L 272.011813 208.926718 
L 272.017755 290.138166 
L 272.531521 290.138166 
L 274.132399 208.926718 
L 274.681489 208.926718 
L 274.766459 290.138166 
L 275.776285 290.138166 
L 275.833651 208.926718 
L 275.838889 290.138166 
L 276.609171 290.138166 
L 281.055219 208.926718 
L 281.148348 208.926718 
L 281.187404 290.138166 
L 282.373579 290.138166 
L 299.029214 208.926718 
L 299.134323 208.926718 
L 299.141299 290.138166 
L 299.367322 208.926718 
L 299.72854 290.138166 
L 299.977635 290.138166 
L 305.939972 208.926718 
L 305.961018 290.138166 
L 312.422447 208.926718 
L 312.422447 208.926718 
" clip-path="url(#pad3d2753ca)" style="fill: none; stroke: #000000; stroke-width: 1.5; stroke-linecap: square"/>
   </g>
   <g id="patch_13">
    <path d="M 44.103906 294.198739 
L 44.103906 204.866146 
" style="fill: none; stroke: #000000; stroke-width: 0.8; stroke-linejoin: miter; stroke-linecap: square"/>
   </g>
   <g id="patch_14">
    <path d="M 325.19952 294.198739 
L 325.19952 204.866146 
" style="fill: none; stroke: #000000; stroke-width: 0.8; stroke-linejoin: miter; stroke-linecap: square"/>
   </g>
   <g id="patch_15">
    <path d="M 44.103906 294.198739 
L 325.19952 294.198739 
" style="fill: none; stroke: #000000; stroke-width: 0.8; stroke-linejoin: miter; stroke-linecap: square"/>
   </g>
   <g id="patch_16">
    <path d="M 44.103906 204.866146 
L 325.19952 204.866146 
" style="fill: none; stroke: #000000; stroke-width: 0.8; stroke-linejoin: miter; stroke-linecap: square"/>
   </g>
  </g>
 </g>
 <defs>
  <clipPath id="p4aac80fb95">
   <rect x="44.103906" y="7.2" width="281.095614" height="89.332593"/>
  </clipPath>
  <clipPath id="p5cd10a7aec">
   <rect x="44.103906" y="106.033073" width="281.095614" height="89.332593"/>
  </clipPath>
  <clipPath id="pad3d2753ca">
   <rect x="44.103906" y="204.866146" width="281.095614" height="89.332593"/>
  </clipPath>
 </defs>
</svg>
