<?xml version="1.0" encoding="utf-8" standalone="no"?>
<!DOCTYPE svg PUBLIC "-//W3C//DTD SVG 1.1//EN"
  "http://www.w3.org/Graphics/SVG/1.1/DTD/svg11.dtd">
<svg xmlns:xlink="http://www.w3.org/1999/xlink" width="332.39952pt" height="332.39952pt" viewBox="0 0 332.39952 332.39952" xmlns="http://www.w3.org/2000/svg" version="1.1">
 <metadata>
  <rdf:RDF xmlns:dc="http://purl.org/dc/elements/1.1/" xmlns:cc="http://creativecommons.org/ns#" xmlns:rdf="http://www.w3.org/1999/02/22-rdf-syntax-ns#">
   <cc:Work>
    <dc:type rdf:resource="http://purl.org/dc/dcmitype/StillImage"/>
    <dc:date>2026-07-10T15:32:00.577477</dc:date>
    <dc:format>image/svg+xml</dc:format>
    <dc:creator>
     <cc:Agent>
      <dc:title>Matplotlib v3.11.0, https://matplotlib.org/</dc:title>
     </cc:Agent>
    </dc:creator>
   </cc:Work>
  </rdf:RDF>
 </metadata>
 <defs>
  <style type="text/css">*{stroke-linejoin: round; stroke-linecap: butt}</style>
 </defs>
 <g id="figure_1">
  <g id="patch_1">
   <path d="M 0 332.39952 
L 332.39952 332.39952 
L 332.39952 0 
L 0 0 
z
" style="fill: #ffffff"/>
  </g>
  <g id="axes_1">
   <g id="patch_2">
    <path d="M 44.103906 96.532593 
L 325.19952 96.532593 
L 325.19952 7.2 
L 44.103906 7.2 
z
" style="fill: #ffffff"/>
   </g>
   <g id="matplotlib.axis_1">
    <g id="xtick_1">
     <g id="line2d_1">
      <defs>
       <path id="mea04909061" d="M 0 0 
L 0 3.5 
" style="stroke: #000000; stroke-width: 0.8"/>
      </defs>
      <g>
       <use xlink:href="#mea04909061" x="56.88098" y="96.532593" style="stroke: #000000; stroke-width: 0.8"/>
      </g>
     </g>
    </g>
    <g id="xtick_2">
     <g id="line2d_2">
      <g>
       <use xlink:href="#mea04909061" x="88.805548" y="96.532593" style="stroke: #000000; stroke-width: 0.8"/>
      </g>
     </g>
    </g>
    <g id="xtick_3">
     <g id="line2d_3">
      <g>
       <use xlink:href="#mea04909061" x="120.730116" y="96.532593" style="stroke: #000000; stroke-width: 0.8"/>
      </g>
     </g>
    </g>
    <g id="xtick_4">
     <g id="line2d_4">
      <g>
       <use xlink:href="#mea04909061" x="152.654685" y="96.532593" style="stroke: #000000; stroke-width: 0.8"/>
      </g>
     </g>
    </g>
    <g id="xtick_5">
     <g id="line2d_5">
      <g>
       <use xlink:href="#mea04909061" x="184.579253" y="96.532593" style="stroke: #000000; stroke-width: 0.8"/>
      </g>
     </g>
    </g>
    <g id="xtick_6">
     <g id="line2d_6">
      <g>
       <use xlink:href="#mea04909061" x="216.503821" y="96.532593" style="stroke: #000000; stroke-width: 0.8"/>
      </g>
     </g>
    </g>
    <g id="xtick_7">
     <g id="line2d_7">
      <g>
       <use xlink:href="#mea04909061" x="248.42839" y="96.532593" style="stroke: #000000; stroke-width: 0.8"/>
      </g>
     </g>
    </g>
    <g id="xtick_8">
     <g id="line2d_8">
      <g>
       <use xlink:href="#mea04909061" x="280.352958" y="96.532593" style="stroke: #000000; stroke-width: 0.8"/>
      </g>
     </g>
    </g>
    <g id="xtick_9">
     <g id="line2d_9">
      <g>
       <use xlink:href="#mea04909061" x="312.277527" y="96.532593" style="stroke: #000000; stroke-width: 0.8"/>
      </g>
     </g>
    </g>
   </g>
   <g id="matplotlib.axis_2">
    <g id="ytick_1">
     <g id="line2d_10">
      <defs>
       <path id="m7b976889de" d="M 0 0 
L -3.5 0 
" style="stroke: #000000; stroke-width: 0.8"/>
      </defs>
      <g>
       <use xlink:href="#m7b976889de" x="44.103906" y="92.472021" style="stroke: #000000; stroke-width: 0.8"/>
      </g>
     </g>
     <g id="text_1">
      <!-- 0 -->
      <g transform="translate(30.741406 96.270849) scale(0.1 -0.1)">
       <defs>
        <path id="DejaVuSans-13" d="M 2034 4250 
Q 1547 4250 1301 3770 
Q 1056 3291 1056 2328 
Q 1056 1369 1301 889 
Q 1547 409 2034 409 
Q 2525 409 2770 889 
Q 3016 1369 3016 2328 
Q 3016 3291 2770 3770 
Q 2525 4250 2034 4250 
z
M 2034 4750 
Q 2819 4750 3233 4129 
Q 3647 3509 3647 2328 
Q 3647 1150 3233 529 
Q 2819 -91 2034 -91 
Q 1250 -91 836 529 
Q 422 1150 422 2328 
Q 422 3509 836 4129 
Q 1250 4750 2034 4750 
z
" transform="scale(0.015625)"/>
       </defs>
       <use xlink:href="#DejaVuSans-13"/>
      </g>
     </g>
    </g>
    <g id="ytick_2">
     <g id="line2d_11">
      <g>
       <use xlink:href="#m7b976889de" x="44.103906" y="51.866296" style="stroke: #000000; stroke-width: 0.8"/>
      </g>
     </g>
     <g id="text_2">
      <!-- 5 -->
      <g transform="translate(30.741406 55.665125) scale(0.1 -0.1)">
       <defs>
        <path id="DejaVuSans-18" d="M 691 4666 
L 3169 4666 
L 3169 4134 
L 1269 4134 
L 1269 2991 
Q 1406 3038 1543 3061 
Q 1681 3084 1819 3084 
Q 2600 3084 3056 2656 
Q 3513 2228 3513 1497 
Q 3513 744 3044 326 
Q 2575 -91 1722 -91 
Q 1428 -91 1123 -41 
Q 819 9 494 109 
L 494 744 
Q 775 591 1075 516 
Q 1375 441 1709 441 
Q 2250 441 2565 725 
Q 2881 1009 2881 1497 
Q 2881 1984 2565 2268 
Q 2250 2553 1709 2553 
Q 1456 2553 1204 2497 
Q 953 2441 691 2322 
L 691 4666 
z
" transform="scale(0.015625)"/>
       </defs>
       <use xlink:href="#DejaVuSans-18"/>
      </g>
     </g>
    </g>
    <g id="ytick_3">
     <g id="line2d_12">
      <g>
       <use xlink:href="#m7b976889de" x="44.103906" y="11.260572" style="stroke: #000000; stroke-width: 0.8"/>
      </g>
     </g>
     <g id="text_3">
      <!-- 10 -->
      <g transform="translate(24.378906 15.059401) scale(0.1 -0.1)">
       <defs>
        <path id="DejaVuSans-14" d="M 794 531 
L 1825 531 
L 1825 4091 
L 703 3866 
L 703 4441 
L 1819 4666 
L 2450 4666 
L 2450 531 
L 3481 531 
L 3481 0 
L 794 0 
L 794 531 
z
" transform="scale(0.015625)"/>
       </defs>
       <use xlink:href="#DejaVuSans-14"/>
       <use xlink:href="#DejaVuSans-13" transform="translate(63.625 0)"/>
      </g>
     </g>
    </g>
    <g id="text_4">
     <!-- Extracellular lactose -->
     <g transform="translate(17.976563 102.838171) rotate(-90) scale(0.1 -0.1)">
      <defs>
       <path id="DejaVuSans-28" d="M 628 4666 
L 3578 4666 
L 3578 4134 
L 1259 4134 
L 1259 2753 
L 3481 2753 
L 3481 2222 
L 1259 2222 
L 1259 531 
L 3634 531 
L 3634 0 
L 628 0 
L 628 4666 
z
" transform="scale(0.015625)"/>
       <path id="DejaVuSans-5b" d="M 3513 3500 
L 2247 1797 
L 3578 0 
L 2900 0 
L 1881 1375 
L 863 0 
L 184 0 
L 1544 1831 
L 300 3500 
L 978 3500 
L 1906 2253 
L 2834 3500 
L 3513 3500 
z
" transform="scale(0.015625)"/>
       <path id="DejaVuSans-57" d="M 1172 4494 
L 1172 3500 
L 2356 3500 
L 2356 3053 
L 1172 3053 
L 1172 1153 
Q 1172 725 1289 603 
Q 1406 481 1766 481 
L 2356 481 
L 2356 0 
L 1766 0 
Q 1100 0 847 248 
Q 594 497 594 1153 
L 594 3053 
L 172 3053 
L 172 3500 
L 594 3500 
L 594 4494 
L 1172 4494 
z
" transform="scale(0.015625)"/>
       <path id="DejaVuSans-55" d="M 2631 2963 
Q 2534 3019 2420 3045 
Q 2306 3072 2169 3072 
Q 1681 3072 1420 2755 
Q 1159 2438 1159 1844 
L 1159 0 
L 581 0 
L 581 3500 
L 1159 3500 
L 1159 2956 
Q 1341 3275 1631 3429 
Q 1922 3584 2338 3584 
Q 2397 3584 2469 3576 
Q 2541 3569 2628 3553 
L 2631 2963 
z
" transform="scale(0.015625)"/>
       <path id="DejaVuSans-44" d="M 2194 1759 
Q 1497 1759 1228 1600 
Q 959 1441 959 1056 
Q 959 750 1161 570 
Q 1363 391 1709 391 
Q 2188 391 2477 730 
Q 2766 1069 2766 1631 
L 2766 1759 
L 2194 1759 
z
M 3341 1997 
L 3341 0 
L 2766 0 
L 2766 531 
Q 2569 213 2275 61 
Q 1981 -91 1556 -91 
Q 1019 -91 701 211 
Q 384 513 384 1019 
Q 384 1609 779 1909 
Q 1175 2209 1959 2209 
L 2766 2209 
L 2766 2266 
Q 2766 2663 2505 2880 
Q 2244 3097 1772 3097 
Q 1472 3097 1187 3025 
Q 903 2953 641 2809 
L 641 3341 
Q 956 3463 1253 3523 
Q 1550 3584 1831 3584 
Q 2591 3584 2966 3190 
Q 3341 2797 3341 1997 
z
" transform="scale(0.015625)"/>
       <path id="DejaVuSans-46" d="M 3122 3366 
L 3122 2828 
Q 2878 2963 2633 3030 
Q 2388 3097 2138 3097 
Q 1578 3097 1268 2742 
Q 959 2388 959 1747 
Q 959 1106 1268 751 
Q 1578 397 2138 397 
Q 2388 397 2633 464 
Q 2878 531 3122 666 
L 3122 134 
Q 2881 22 2623 -34 
Q 2366 -91 2075 -91 
Q 1284 -91 818 406 
Q 353 903 353 1747 
Q 353 2603 823 3093 
Q 1294 3584 2113 3584 
Q 2378 3584 2631 3529 
Q 2884 3475 3122 3366 
z
" transform="scale(0.015625)"/>
       <path id="DejaVuSans-48" d="M 3597 1894 
L 3597 1613 
L 953 1613 
Q 991 1019 1311 708 
Q 1631 397 2203 397 
Q 2534 397 2845 478 
Q 3156 559 3463 722 
L 3463 178 
Q 3153 47 2828 -22 
Q 2503 -91 2169 -91 
Q 1331 -91 842 396 
Q 353 884 353 1716 
Q 353 2575 817 3079 
Q 1281 3584 2069 3584 
Q 2775 3584 3186 3129 
Q 3597 2675 3597 1894 
z
M 3022 2063 
Q 3016 2534 2758 2815 
Q 2500 3097 2075 3097 
Q 1594 3097 1305 2825 
Q 1016 2553 972 2059 
L 3022 2063 
z
" transform="scale(0.015625)"/>
       <path id="DejaVuSans-4f" d="M 603 4863 
L 1178 4863 
L 1178 0 
L 603 0 
L 603 4863 
z
" transform="scale(0.015625)"/>
       <path id="DejaVuSans-58" d="M 544 1381 
L 544 3500 
L 1119 3500 
L 1119 1403 
Q 1119 906 1312 657 
Q 1506 409 1894 409 
Q 2359 409 2629 706 
Q 2900 1003 2900 1516 
L 2900 3500 
L 3475 3500 
L 3475 0 
L 2900 0 
L 2900 538 
Q 2691 219 2414 64 
Q 2138 -91 1772 -91 
Q 1169 -91 856 284 
Q 544 659 544 1381 
z
M 1991 3584 
L 1991 3584 
z
" transform="scale(0.015625)"/>
       <path id="DejaVuSans-3" transform="scale(0.015625)"/>
       <path id="DejaVuSans-52" d="M 1959 3097 
Q 1497 3097 1228 2736 
Q 959 2375 959 1747 
Q 959 1119 1226 758 
Q 1494 397 1959 397 
Q 2419 397 2687 759 
Q 2956 1122 2956 1747 
Q 2956 2369 2687 2733 
Q 2419 3097 1959 3097 
z
M 1959 3584 
Q 2709 3584 3137 3096 
Q 3566 2609 3566 1747 
Q 3566 888 3137 398 
Q 2709 -91 1959 -91 
Q 1206 -91 779 398 
Q 353 888 353 1747 
Q 353 2609 779 3096 
Q 1206 3584 1959 3584 
z
" transform="scale(0.015625)"/>
       <path id="DejaVuSans-56" d="M 2834 3397 
L 2834 2853 
Q 2591 2978 2328 3040 
Q 2066 3103 1784 3103 
Q 1356 3103 1142 2972 
Q 928 2841 928 2578 
Q 928 2378 1081 2264 
Q 1234 2150 1697 2047 
L 1894 2003 
Q 2506 1872 2764 1633 
Q 3022 1394 3022 966 
Q 3022 478 2636 193 
Q 2250 -91 1575 -91 
Q 1294 -91 989 -36 
Q 684 19 347 128 
L 347 722 
Q 666 556 975 473 
Q 1284 391 1588 391 
Q 1994 391 2212 530 
Q 2431 669 2431 922 
Q 2431 1156 2273 1281 
Q 2116 1406 1581 1522 
L 1381 1569 
Q 847 1681 609 1914 
Q 372 2147 372 2553 
Q 372 3047 722 3315 
Q 1072 3584 1716 3584 
Q 2034 3584 2315 3537 
Q 2597 3491 2834 3397 
z
" transform="scale(0.015625)"/>
      </defs>
      <use xlink:href="#DejaVuSans-28"/>
      <use xlink:href="#DejaVuSans-5b" transform="translate(63.1875 0)"/>
      <use xlink:href="#DejaVuSans-57" transform="translate(122.375 0)"/>
      <use xlink:href="#DejaVuSans-55" transform="translate(161.578125 0)"/>
      <use xlink:href="#DejaVuSans-44" transform="translate(202.6875 0)"/>
      <use xlink:href="#DejaVuSans-46" transform="translate(263.96875 0)"/>
      <use xlink:href="#DejaVuSans-48" transform="translate(318.953125 0)"/>
      <use xlink:href="#DejaVuSans-4f" transform="translate(380.484375 0)"/>
      <use xlink:href="#DejaVuSans-4f" transform="translate(408.265625 0)"/>
      <use xlink:href="#DejaVuSans-58" transform="translate(436.046875 0)"/>
      <use xlink:href="#DejaVuSans-4f" transform="translate(499.421875 0)"/>
      <use xlink:href="#DejaVuSans-44" transform="translate(527.203125 0)"/>
      <use xlink:href="#DejaVuSans-55" transform="translate(588.484375 0)"/>
      <use xlink:href="#DejaVuSans-3" transform="translate(629.59375 0)"/>
      <use xlink:href="#DejaVuSans-4f" transform="translate(661.375 0)"/>
      <use xlink:href="#DejaVuSans-44" transform="translate(689.15625 0)"/>
      <use xlink:href="#DejaVuSans-46" transform="translate(750.4375 0)"/>
      <use xlink:href="#DejaVuSans-57" transform="translate(805.421875 0)"/>
      <use xlink:href="#DejaVuSans-52" transform="translate(844.625 0)"/>
      <use xlink:href="#DejaVuSans-56" transform="translate(905.8125 0)"/>
      <use xlink:href="#DejaVuSans-48" transform="translate(957.90625 0)"/>
     </g>
    </g>
   </g>
   <g id="line2d_13">
    <path d="M 56.88098 92.472021 
L 156.188528 92.472021 
L 156.277608 11.260572 
L 156.945469 11.341784 
L 157.063134 11.66663 
L 157.10794 11.747841 
L 157.254106 13.209647 
L 157.371527 14.752665 
L 157.518616 16.458105 
L 157.670494 18.082334 
L 157.694125 18.163545 
L 157.807146 19.138083 
L 157.934774 20.11262 
L 157.98358 20.193832 
L 158.730271 23.036232 
L 158.946916 24.173193 
L 158.980205 24.254404 
L 159.093036 24.985307 
L 159.135522 25.066519 
L 159.265164 25.228941 
L 159.306652 25.310153 
L 159.449039 26.28469 
L 159.764024 28.152554 
L 159.883154 29.04588 
L 160.323602 32.213126 
L 160.342495 32.294337 
L 160.456046 32.862818 
L 161.393267 38.06035 
L 161.487244 38.141562 
L 161.62062 38.953676 
L 161.662306 39.034888 
L 161.786284 39.197311 
L 162.166062 39.278522 
L 162.269018 39.359733 
L 162.340398 39.440945 
L 162.389284 39.603368 
L 162.609356 39.928214 
L 162.737094 40.171848 
L 163.060029 40.983962 
L 163.204678 41.471231 
L 164.064083 43.09546 
L 164.199234 43.176672 
L 164.311978 43.826363 
L 164.589147 44.8009 
L 164.785488 46.019072 
L 164.802413 46.100284 
L 164.979633 46.668764 
L 165.191014 46.749975 
L 165.507897 47.399667 
L 165.537693 47.480878 
L 165.835664 48.13057 
L 165.970518 48.211781 
L 166.132752 48.536627 
L 166.325061 48.617839 
L 166.437949 48.780261 
L 166.469525 48.861473 
L 166.811902 50.323279 
L 166.872864 50.40449 
L 167.01356 50.729336 
L 167.107554 50.810548 
L 167.209291 51.054182 
L 167.45051 51.460239 
L 167.627375 51.541451 
L 167.745861 51.703874 
L 168.153736 52.678411 
L 168.191905 52.759622 
L 168.312586 53.084468 
L 168.457626 53.977794 
L 168.74193 55.520812 
L 169.099738 57.469886 
L 169.333568 59.418961 
L 169.499169 60.637133 
L 169.622275 61.286824 
L 169.803288 61.692882 
L 169.890691 61.774093 
L 169.977533 62.18015 
L 170.099408 62.261362 
L 170.26148 62.748631 
L 170.369801 62.829842 
L 170.516028 62.911053 
L 170.662595 62.992265 
L 171.017341 63.073476 
L 171.127098 63.154688 
L 171.365431 63.317111 
L 171.439622 63.398322 
L 172.755654 68.271009 
L 172.856036 68.433432 
L 172.946304 68.514643 
L 173.725107 71.032198 
L 173.851323 71.519467 
L 173.870193 71.600678 
L 173.983864 72.087947 
L 174.019059 72.169158 
L 174.247151 72.900062 
L 174.313335 72.981273 
L 174.449049 73.38733 
L 174.478188 73.468542 
L 174.646745 73.95581 
L 175.204517 74.037022 
L 175.339174 74.361868 
L 175.647514 74.443079 
L 175.796675 75.011559 
L 175.876149 75.092771 
L 176.029253 75.336405 
L 176.075475 75.417616 
L 176.252046 75.742462 
L 176.299491 75.823674 
L 176.430665 75.904885 
L 176.60184 76.148519 
L 177.48186 76.229731 
L 177.602002 76.392154 
L 177.641077 76.473365 
L 177.717001 76.554577 
L 178.988981 76.635788 
L 179.159656 76.717 
L 179.35695 76.798211 
L 179.645904 77.366691 
L 179.824175 77.772748 
L 179.901163 77.85396 
L 180.081521 77.935171 
L 180.283143 78.503651 
L 180.340097 78.584863 
L 180.483057 78.909709 
L 180.847712 79.5594 
L 180.964589 80.12788 
L 181.117771 80.209092 
L 181.228012 80.290303 
L 181.365142 80.371515 
L 181.794939 80.452726 
L 181.917061 80.533938 
L 183.306797 80.615149 
L 183.412686 80.777572 
L 183.598268 80.858783 
L 184.444068 81.427264 
L 184.537513 81.589686 
L 184.681484 81.670898 
L 184.77444 82.076955 
L 185.05776 82.483012 
L 185.299194 82.564224 
L 185.398255 82.807858 
L 185.570892 82.970281 
L 185.743255 83.051493 
L 185.796295 83.213915 
L 186.850386 83.295127 
L 187.629773 83.701184 
L 187.740555 83.944818 
L 188.033094 84.269664 
L 188.175539 84.350876 
L 188.438552 84.432087 
L 188.717675 84.513299 
L 188.82448 84.756933 
L 188.966948 84.919356 
L 189.242093 85.000567 
L 189.356145 85.16299 
L 189.512294 85.244202 
L 189.791036 85.325413 
L 190.048065 85.650259 
L 190.196469 85.73147 
L 190.325381 85.893893 
L 190.421061 85.975105 
L 190.510153 86.056316 
L 190.676657 86.137528 
L 190.792434 86.218739 
L 190.977684 86.29995 
L 191.578243 86.624796 
L 191.651657 86.706008 
L 191.744577 86.868431 
L 191.969137 86.949642 
L 192.066213 87.274488 
L 192.184 87.355699 
L 192.374516 87.436911 
L 192.528425 87.518122 
L 192.714526 87.680545 
L 192.997629 87.761757 
L 193.417586 88.005391 
L 193.673037 88.167814 
L 193.986761 88.249025 
L 194.176661 88.330237 
L 194.924412 88.411448 
L 194.987085 88.573871 
L 195.606051 88.655082 
L 196.425061 89.06114 
L 196.600861 89.142351 
L 196.694212 89.304774 
L 197.34908 89.385985 
L 197.508999 89.467197 
L 197.871085 89.548408 
L 198.04011 89.62962 
L 198.658789 89.710831 
L 198.675028 89.792043 
L 199.066468 89.873254 
L 199.264081 89.954466 
L 200.155692 90.035677 
L 200.277795 90.1981 
L 202.094569 90.279311 
L 202.223065 90.360523 
L 203.795164 90.441734 
L 204.065544 90.522946 
L 226.223237 90.604157 
L 226.378128 90.685369 
L 227.858699 90.76658 
L 228.002705 90.847792 
L 231.000242 90.929003 
L 237.924279 91.091426 
L 300.438434 91.172637 
L 300.581737 91.253849 
L 301.012178 91.33506 
L 311.308582 91.416272 
L 311.415483 91.497483 
L 312.422447 91.497483 
L 312.422447 91.497483 
" clip-path="url(#p278bec9196)" style="fill: none; stroke: #000000; stroke-width: 1.5; stroke-linecap: square"/>
   </g>
   <g id="patch_3">
    <path d="M 44.103906 96.532593 
L 44.103906 7.2 
" style="fill: none; stroke: #000000; stroke-width: 0.8; stroke-linejoin: miter; stroke-linecap: square"/>
   </g>
   <g id="patch_4">
    <path d="M 325.19952 96.532593 
L 325.19952 7.2 
" style="fill: none; stroke: #000000; stroke-width: 0.8; stroke-linejoin: miter; stroke-linecap: square"/>
   </g>
   <g id="patch_5">
    <path d="M 44.103906 96.532593 
L 325.19952 96.532593 
" style="fill: none; stroke: #000000; stroke-width: 0.8; stroke-linejoin: miter; stroke-linecap: square"/>
   </g>
   <g id="patch_6">
    <path d="M 44.103906 7.2 
L 325.19952 7.2 
" style="fill: none; stroke: #000000; stroke-width: 0.8; stroke-linejoin: miter; stroke-linecap: square"/>
   </g>
  </g>
  <g id="axes_2">
   <g id="patch_7">
    <path d="M 44.103906 195.365666 
L 325.19952 195.365666 
L 325.19952 106.033073 
L 44.103906 106.033073 
z
" style="fill: #ffffff"/>
   </g>
   <g id="matplotlib.axis_3">
    <g id="xtick_10">
     <g id="line2d_14">
      <g>
       <use xlink:href="#mea04909061" x="56.88098" y="195.365666" style="stroke: #000000; stroke-width: 0.8"/>
      </g>
     </g>
    </g>
    <g id="xtick_11">
     <g id="line2d_15">
      <g>
       <use xlink:href="#mea04909061" x="88.805548" y="195.365666" style="stroke: #000000; stroke-width: 0.8"/>
      </g>
     </g>
    </g>
    <g id="xtick_12">
     <g id="line2d_16">
      <g>
       <use xlink:href="#mea04909061" x="120.730116" y="195.365666" style="stroke: #000000; stroke-width: 0.8"/>
      </g>
     </g>
    </g>
    <g id="xtick_13">
     <g id="line2d_17">
      <g>
       <use xlink:href="#mea04909061" x="152.654685" y="195.365666" style="stroke: #000000; stroke-width: 0.8"/>
      </g>
     </g>
    </g>
    <g id="xtick_14">
     <g id="line2d_18">
      <g>
       <use xlink:href="#mea04909061" x="184.579253" y="195.365666" style="stroke: #000000; stroke-width: 0.8"/>
      </g>
     </g>
    </g>
    <g id="xtick_15">
     <g id="line2d_19">
      <g>
       <use xlink:href="#mea04909061" x="216.503821" y="195.365666" style="stroke: #000000; stroke-width: 0.8"/>
      </g>
     </g>
    </g>
    <g id="xtick_16">
     <g id="line2d_20">
      <g>
       <use xlink:href="#mea04909061" x="248.42839" y="195.365666" style="stroke: #000000; stroke-width: 0.8"/>
      </g>
     </g>
    </g>
    <g id="xtick_17">
     <g id="line2d_21">
      <g>
       <use xlink:href="#mea04909061" x="280.352958" y="195.365666" style="stroke: #000000; stroke-width: 0.8"/>
      </g>
     </g>
    </g>
    <g id="xtick_18">
     <g id="line2d_22">
      <g>
       <use xlink:href="#mea04909061" x="312.277527" y="195.365666" style="stroke: #000000; stroke-width: 0.8"/>
      </g>
     </g>
    </g>
   </g>
   <g id="matplotlib.axis_4">
    <g id="ytick_4">
     <g id="line2d_23">
      <g>
       <use xlink:href="#m7b976889de" x="44.103906" y="191.305093" style="stroke: #000000; stroke-width: 0.8"/>
      </g>
     </g>
     <g id="text_5">
      <!-- 0 -->
      <g transform="translate(30.741406 195.103922) scale(0.1 -0.1)">
       <use xlink:href="#DejaVuSans-13"/>
      </g>
     </g>
    </g>
    <g id="ytick_5">
     <g id="line2d_24">
      <g>
       <use xlink:href="#m7b976889de" x="44.103906" y="150.699369" style="stroke: #000000; stroke-width: 0.8"/>
      </g>
     </g>
     <g id="text_6">
      <!-- 5 -->
      <g transform="translate(30.741406 154.498197) scale(0.1 -0.1)">
       <use xlink:href="#DejaVuSans-18"/>
      </g>
     </g>
    </g>
    <g id="ytick_6">
     <g id="line2d_25">
      <g>
       <use xlink:href="#m7b976889de" x="44.103906" y="110.093645" style="stroke: #000000; stroke-width: 0.8"/>
      </g>
     </g>
     <g id="text_7">
      <!-- 10 -->
      <g transform="translate(24.378906 113.892473) scale(0.1 -0.1)">
       <use xlink:href="#DejaVuSans-14"/>
       <use xlink:href="#DejaVuSans-13" transform="translate(63.625 0)"/>
      </g>
     </g>
    </g>
    <g id="text_8">
     <!-- LacY -->
     <g transform="translate(17.976563 162.352494) rotate(-90) scale(0.1 -0.1)">
      <defs>
       <path id="DejaVuSans-2f" d="M 628 4666 
L 1259 4666 
L 1259 531 
L 3531 531 
L 3531 0 
L 628 0 
L 628 4666 
z
" transform="scale(0.015625)"/>
       <path id="DejaVuSans-3c" d="M -13 4666 
L 666 4666 
L 1959 2747 
L 3244 4666 
L 3922 4666 
L 2272 2222 
L 2272 0 
L 1638 0 
L 1638 2222 
L -13 4666 
z
" transform="scale(0.015625)"/>
      </defs>
      <use xlink:href="#DejaVuSans-2f"/>
      <use xlink:href="#DejaVuSans-44" transform="translate(55.71875 0)"/>
      <use xlink:href="#DejaVuSans-46" transform="translate(117 0)"/>
      <use xlink:href="#DejaVuSans-3c" transform="translate(171.984375 0)"/>
     </g>
    </g>
   </g>
   <g id="line2d_26">
    <path d="M 56.88098 110.093645 
L 56.908117 110.093645 
L 56.962631 118.21479 
L 57.070837 134.45708 
L 57.131202 142.578225 
L 57.283364 142.578225 
L 57.301068 134.45708 
L 57.521737 142.578225 
L 57.663654 142.578225 
L 57.834368 158.820514 
L 58.135379 175.062804 
L 58.201022 191.305093 
L 59.731573 191.305093 
L 59.898255 183.183949 
L 59.941012 191.305093 
L 64.965428 191.305093 
L 65.288502 183.183949 
L 65.398496 191.305093 
L 82.901103 191.305093 
L 83.095582 183.183949 
L 84.889556 191.305093 
L 84.904387 183.183949 
L 85.047646 175.062804 
L 85.052302 166.941659 
L 85.374582 175.062804 
L 85.60163 175.062804 
L 85.721307 191.305093 
L 85.78215 183.183949 
L 85.972447 183.183949 
L 86.110984 191.305093 
L 90.004649 191.305093 
L 90.394592 175.062804 
L 90.395894 166.941659 
L 90.894715 166.941659 
L 90.933398 183.183949 
L 91.705827 183.183949 
L 91.874813 175.062804 
L 92.219232 191.305093 
L 109.230698 191.305093 
L 109.336434 183.183949 
L 109.456186 183.183949 
L 109.595331 191.305093 
L 109.830421 191.305093 
L 109.871921 183.183949 
L 110.288039 183.183949 
L 110.6381 175.062804 
L 110.69647 183.183949 
L 110.871804 183.183949 
L 110.901394 191.305093 
L 119.664451 191.305093 
L 119.842948 183.183949 
L 121.944076 183.183949 
L 123.792321 191.305093 
L 131.563607 191.305093 
L 131.749953 183.183949 
L 132.037636 183.183949 
L 132.145458 191.305093 
L 136.483108 191.305093 
L 136.566874 183.183949 
L 136.588749 191.305093 
L 146.585697 191.305093 
L 146.846653 175.062804 
L 146.867494 183.183949 
L 146.896514 175.062804 
L 147.009674 166.941659 
L 147.015017 175.062804 
L 147.600012 175.062804 
L 148.21746 183.183949 
L 148.462899 183.183949 
L 148.778299 175.062804 
L 148.891232 175.062804 
L 149.963613 191.305093 
L 150.423987 191.305093 
L 150.47589 175.062804 
L 150.57681 175.062804 
L 150.729709 183.183949 
L 150.863487 183.183949 
L 151.406633 191.305093 
L 156.527339 191.305093 
L 156.955811 183.183949 
L 157.19621 150.699369 
L 157.479664 150.699369 
L 157.597512 166.941659 
L 157.630425 166.941659 
L 157.743156 158.820514 
L 157.870983 158.820514 
L 157.98358 175.062804 
L 158.206896 175.062804 
L 158.321485 183.183949 
L 158.454238 166.941659 
L 158.505035 166.941659 
L 158.542994 158.820514 
L 158.604307 166.941659 
L 158.779215 166.941659 
L 158.884109 175.062804 
L 159.11659 175.062804 
L 159.221228 191.305093 
L 159.265164 191.305093 
L 159.407217 175.062804 
L 159.568533 175.062804 
L 159.678231 166.941659 
L 159.694445 166.941659 
L 159.824067 158.820514 
L 160.261152 158.820514 
L 160.350156 150.699369 
L 160.416609 150.699369 
L 160.427506 142.578225 
L 160.498936 158.820514 
L 160.52411 158.820514 
L 160.703696 158.820514 
L 160.754206 150.699369 
L 160.809771 158.820514 
L 160.845769 158.820514 
L 160.953565 166.941659 
L 161.095314 166.941659 
L 161.146489 183.183949 
L 161.203085 166.941659 
L 161.374825 166.941659 
L 161.489884 175.062804 
L 161.563666 175.062804 
L 161.598946 166.941659 
L 161.662306 183.183949 
L 161.671465 183.183949 
L 161.738405 183.183949 
L 161.786284 191.305093 
L 162.029975 191.305093 
L 162.142175 183.183949 
L 162.683545 183.183949 
L 162.792994 175.062804 
L 162.846259 175.062804 
L 162.951118 183.183949 
L 162.997526 183.183949 
L 163.11604 166.941659 
L 163.139538 166.941659 
L 163.264608 175.062804 
L 163.597204 175.062804 
L 163.704267 183.183949 
L 163.759755 183.183949 
L 163.818828 191.305093 
L 163.85049 183.183949 
L 164.029049 183.183949 
L 164.064083 175.062804 
L 164.291424 166.941659 
L 164.785488 166.941659 
L 164.900574 175.062804 
L 164.911361 175.062804 
L 165.015057 183.183949 
L 165.810456 183.183949 
L 165.835664 191.305093 
L 165.909422 183.183949 
L 166.484084 183.183949 
L 166.582121 175.062804 
L 166.855919 175.062804 
L 166.963271 166.941659 
L 167.074348 166.941659 
L 167.155718 175.062804 
L 167.326258 175.062804 
L 167.394114 183.183949 
L 167.442396 183.183949 
L 167.45051 191.305093 
L 167.537573 183.183949 
L 168.029623 183.183949 
L 168.153736 166.941659 
L 168.224144 166.941659 
L 168.349471 158.820514 
L 168.414148 158.820514 
L 168.525394 150.699369 
L 168.673712 150.699369 
L 168.782188 166.941659 
L 168.921257 150.699369 
L 168.954438 158.820514 
L 169.026834 150.699369 
L 169.394115 150.699369 
L 169.494744 142.578225 
L 169.502076 150.699369 
L 169.591672 150.699369 
L 169.693223 158.820514 
L 169.742638 158.820514 
L 169.845338 166.941659 
L 169.851861 158.820514 
L 169.965452 158.820514 
L 170.086368 175.062804 
L 170.195658 175.062804 
L 170.238808 183.183949 
L 170.300348 175.062804 
L 170.36452 175.062804 
L 170.43307 183.183949 
L 170.572932 183.183949 
L 170.662595 191.305093 
L 170.808206 191.305093 
L 170.94636 183.183949 
L 171.091635 183.183949 
L 171.190912 175.062804 
L 171.294878 183.183949 
L 171.404097 183.183949 
L 171.531201 166.941659 
L 171.58228 166.941659 
L 171.695792 158.820514 
L 172.1165 158.820514 
L 172.118895 166.941659 
L 172.224584 158.820514 
L 172.2876 158.820514 
L 172.288998 150.699369 
L 172.390623 158.820514 
L 172.678241 158.820514 
L 172.756422 150.699369 
L 172.769582 166.941659 
L 172.849871 166.941659 
L 172.938748 158.820514 
L 172.946304 166.941659 
L 173.070596 166.941659 
L 173.098652 175.062804 
L 173.157527 158.820514 
L 173.170051 158.820514 
L 173.44358 158.820514 
L 173.47569 150.699369 
L 173.537604 158.820514 
L 173.648924 158.820514 
L 173.749331 150.699369 
L 173.877996 158.820514 
L 174.063134 158.820514 
L 174.178728 166.941659 
L 174.583142 166.941659 
L 174.657716 183.183949 
L 174.683454 175.062804 
L 174.823513 183.183949 
L 175.043694 183.183949 
L 175.291795 175.062804 
L 175.395649 183.183949 
L 175.654741 183.183949 
L 175.796675 175.062804 
L 176.144869 175.062804 
L 176.252046 166.941659 
L 176.288615 175.062804 
L 176.317344 166.941659 
L 176.400816 158.820514 
L 176.597394 183.183949 
L 176.91065 183.183949 
L 176.9466 191.305093 
L 177.401557 191.305093 
L 177.493036 183.183949 
L 177.64931 166.941659 
L 177.71597 166.941659 
L 177.818367 183.183949 
L 178.02866 183.183949 
L 178.104654 191.305093 
L 178.786436 191.305093 
L 178.906501 175.062804 
L 179.096517 183.183949 
L 179.133187 183.183949 
L 179.245964 175.062804 
L 179.294893 183.183949 
L 179.35695 175.062804 
L 179.711384 175.062804 
L 179.828857 166.941659 
L 179.852663 166.941659 
L 179.961876 150.699369 
L 180.170799 150.699369 
L 180.248743 142.578225 
L 180.275319 150.699369 
L 180.387119 142.578225 
L 180.440308 142.578225 
L 180.54573 150.699369 
L 180.655938 150.699369 
L 180.748133 158.820514 
L 180.928828 158.820514 
L 180.998632 150.699369 
L 181.066075 150.699369 
L 181.214578 175.062804 
L 181.215284 166.941659 
L 181.223228 166.941659 
L 181.335116 183.183949 
L 181.418583 183.183949 
L 181.543907 175.062804 
L 181.669264 175.062804 
L 181.794939 183.183949 
L 181.850693 183.183949 
L 181.917061 191.305093 
L 183.016019 191.305093 
L 183.151186 175.062804 
L 183.803079 175.062804 
L 183.917701 158.820514 
L 184.200159 158.820514 
L 184.202448 166.941659 
L 184.29087 158.820514 
L 184.372082 158.820514 
L 184.505744 166.941659 
L 184.630157 158.820514 
L 184.904405 158.820514 
L 185.038154 150.699369 
L 185.148128 150.699369 
L 185.266148 158.820514 
L 185.271968 150.699369 
L 185.335005 166.941659 
L 185.471482 166.941659 
L 185.562366 175.062804 
L 185.570892 166.941659 
L 185.696517 166.941659 
L 185.796295 175.062804 
L 185.869516 175.062804 
L 185.954236 166.941659 
L 185.969073 175.062804 
L 186.136239 183.183949 
L 186.631688 183.183949 
L 186.850386 175.062804 
L 187.027185 175.062804 
L 187.068646 183.183949 
L 187.291018 183.183949 
L 187.487033 150.699369 
L 187.628709 150.699369 
L 187.740555 158.820514 
L 188.028252 158.820514 
L 188.094209 175.062804 
L 188.141631 166.941659 
L 188.270921 166.941659 
L 188.305152 183.183949 
L 188.438552 183.183949 
L 188.788891 150.699369 
L 188.890835 166.941659 
L 189.037934 166.941659 
L 189.209251 150.699369 
L 189.318924 175.062804 
L 189.448157 175.062804 
L 189.512294 166.941659 
L 189.952859 166.941659 
L 190.048065 142.578225 
L 190.211086 158.820514 
L 190.29964 150.699369 
L 190.301074 158.820514 
L 190.408727 158.820514 
L 190.510153 150.699369 
L 190.731889 150.699369 
L 190.749661 142.578225 
L 190.792434 158.820514 
L 190.840984 158.820514 
L 191.095806 158.820514 
L 191.173494 166.941659 
L 191.185716 158.820514 
L 191.207946 158.820514 
L 191.318226 166.941659 
L 191.424049 166.941659 
L 191.436622 158.820514 
L 191.469843 166.941659 
L 191.623859 175.062804 
L 191.732614 142.578225 
L 191.873045 142.578225 
L 191.906587 150.699369 
L 191.918463 142.578225 
L 192.066213 134.45708 
L 192.184 142.578225 
L 192.243754 142.578225 
L 192.273388 134.45708 
L 192.752236 166.941659 
L 192.839093 166.941659 
L 192.922438 175.062804 
L 192.997629 158.820514 
L 193.229527 158.820514 
L 193.3576 166.941659 
L 193.555042 166.941659 
L 193.673037 175.062804 
L 193.778051 175.062804 
L 193.884147 166.941659 
L 193.949327 166.941659 
L 194.060212 158.820514 
L 194.176661 183.183949 
L 194.358531 183.183949 
L 194.477152 175.062804 
L 194.587572 191.305093 
L 194.616179 183.183949 
L 194.987085 183.183949 
L 195.057675 191.305093 
L 195.069891 183.183949 
L 195.235388 183.183949 
L 195.249483 166.941659 
L 195.534042 166.941659 
L 195.606051 158.820514 
L 195.75512 158.820514 
L 195.804333 134.45708 
L 195.965369 134.45708 
L 196.027222 158.820514 
L 196.307974 158.820514 
L 196.365408 150.699369 
L 196.411809 158.820514 
L 196.533602 175.062804 
L 196.552109 175.062804 
L 196.55921 166.941659 
L 196.653718 175.062804 
L 196.783795 175.062804 
L 196.803242 166.941659 
L 196.901661 175.062804 
L 197.149609 175.062804 
L 197.34157 166.941659 
L 197.42848 175.062804 
L 197.508999 175.062804 
L 197.649471 158.820514 
L 197.923204 150.699369 
L 197.997709 150.699369 
L 198.04011 142.578225 
L 198.075205 150.699369 
L 198.228941 150.699369 
L 198.283841 158.820514 
L 198.308034 150.699369 
L 198.343735 150.699369 
L 198.369355 158.820514 
L 198.444386 150.699369 
L 198.484997 142.578225 
L 198.505679 150.699369 
L 198.580682 150.699369 
L 198.675028 158.820514 
L 198.842769 158.820514 
L 198.860161 166.941659 
L 198.902463 158.820514 
L 198.957685 158.820514 
L 199.066468 166.941659 
L 199.157419 166.941659 
L 199.264081 175.062804 
L 199.624456 175.062804 
L 199.77788 183.183949 
L 199.959627 166.941659 
L 199.975649 175.062804 
L 200.014232 175.062804 
L 200.161189 166.941659 
L 200.277795 175.062804 
L 200.425186 175.062804 
L 200.432436 183.183949 
L 200.641676 183.183949 
L 200.79494 175.062804 
L 200.936745 183.183949 
L 201.158539 183.183949 
L 201.664461 191.305093 
L 201.731235 183.183949 
L 201.935384 175.062804 
L 202.146277 158.820514 
L 202.249022 166.941659 
L 202.494579 166.941659 
L 202.534796 175.062804 
L 203.015877 175.062804 
L 203.225876 183.183949 
L 205.157187 183.183949 
L 205.490832 191.305093 
L 208.390774 191.305093 
L 208.785942 183.183949 
L 209.061643 191.305093 
L 219.141002 191.305093 
L 219.226027 183.183949 
L 219.350926 183.183949 
L 219.551611 191.305093 
L 219.742987 183.183949 
L 219.785847 175.062804 
L 219.967036 183.183949 
L 220.205792 183.183949 
L 220.26206 191.305093 
L 225.754284 191.305093 
L 226.335855 175.062804 
L 226.378128 183.183949 
L 226.528579 183.183949 
L 226.564972 175.062804 
L 226.799627 175.062804 
L 226.82322 183.183949 
L 227.204148 175.062804 
L 227.921985 175.062804 
L 228.002705 183.183949 
L 228.23065 191.305093 
L 230.160814 191.305093 
L 230.202039 183.183949 
L 233.638006 183.183949 
L 234.036647 191.305093 
L 236.064026 191.305093 
L 236.252538 183.183949 
L 236.378368 191.305093 
L 246.870095 191.305093 
L 247.020343 183.183949 
L 247.263343 191.305093 
L 262.623156 191.305093 
L 262.950897 183.183949 
L 263.089636 183.183949 
L 263.129401 191.305093 
L 263.311744 183.183949 
L 263.872778 191.305093 
L 267.171094 191.305093 
L 267.413253 183.183949 
L 267.516837 191.305093 
L 281.907439 191.305093 
L 282.074286 175.062804 
L 282.370447 166.941659 
L 282.491974 158.820514 
L 282.493596 166.941659 
L 282.574393 158.820514 
L 282.736342 158.820514 
L 282.74457 166.941659 
L 282.87636 175.062804 
L 283.831516 191.305093 
L 285.085888 191.305093 
L 285.394805 183.183949 
L 285.55664 183.183949 
L 285.642074 191.305093 
L 299.223071 191.305093 
L 299.466706 166.941659 
L 299.69332 191.305093 
L 299.830154 175.062804 
L 299.864159 183.183949 
L 299.952947 183.183949 
L 300.0243 175.062804 
L 300.24115 183.183949 
L 300.877898 183.183949 
L 301.012178 191.305093 
L 305.102179 191.305093 
L 305.666413 183.183949 
L 307.171466 183.183949 
L 308.059618 191.305093 
L 310.999936 191.305093 
L 311.199391 175.062804 
L 311.310545 166.941659 
L 311.415483 166.941659 
L 311.599482 175.062804 
L 311.85631 175.062804 
L 311.918422 183.183949 
L 312.422447 183.183949 
L 312.422447 183.183949 
" clip-path="url(#p88904f842c)" style="fill: none; stroke: #000000; stroke-width: 1.5; stroke-linecap: square"/>
   </g>
   <g id="patch_8">
    <path d="M 44.103906 195.365666 
L 44.103906 106.033073 
" style="fill: none; stroke: #000000; stroke-width: 0.8; stroke-linejoin: miter; stroke-linecap: square"/>
   </g>
   <g id="patch_9">
    <path d="M 325.19952 195.365666 
L 325.19952 106.033073 
" style="fill: none; stroke: #000000; stroke-width: 0.8; stroke-linejoin: miter; stroke-linecap: square"/>
   </g>
   <g id="patch_10">
    <path d="M 44.103906 195.365666 
L 325.19952 195.365666 
" style="fill: none; stroke: #000000; stroke-width: 0.8; stroke-linejoin: miter; stroke-linecap: square"/>
   </g>
   <g id="patch_11">
    <path d="M 44.103906 106.033073 
L 325.19952 106.033073 
" style="fill: none; stroke: #000000; stroke-width: 0.8; stroke-linejoin: miter; stroke-linecap: square"/>
   </g>
  </g>
  <g id="axes_3">
   <g id="patch_12">
    <path d="M 44.103906 294.198739 
L 325.19952 294.198739 
L 325.19952 204.866146 
L 44.103906 204.866146 
z
" style="fill: #ffffff"/>
   </g>
   <g id="matplotlib.axis_5">
    <g id="xtick_19">
     <g id="line2d_27">
      <g>
       <use xlink:href="#mea04909061" x="56.88098" y="294.198739" style="stroke: #000000; stroke-width: 0.8"/>
      </g>
     </g>
     <g id="text_9">
      <!-- 0 -->
      <g transform="translate(53.69973 308.796395) scale(0.1 -0.1)">
       <use xlink:href="#DejaVuSans-13"/>
      </g>
     </g>
    </g>
    <g id="xtick_20">
     <g id="line2d_28">
      <g>
       <use xlink:href="#mea04909061" x="88.805548" y="294.198739" style="stroke: #000000; stroke-width: 0.8"/>
      </g>
     </g>
     <g id="text_10">
      <!-- 100 -->
      <g transform="translate(79.261798 308.796395) scale(0.1 -0.1)">
       <use xlink:href="#DejaVuSans-14"/>
       <use xlink:href="#DejaVuSans-13" transform="translate(63.625 0)"/>
       <use xlink:href="#DejaVuSans-13" transform="translate(127.25 0)"/>
      </g>
     </g>
    </g>
    <g id="xtick_21">
     <g id="line2d_29">
      <g>
       <use xlink:href="#mea04909061" x="120.730116" y="294.198739" style="stroke: #000000; stroke-width: 0.8"/>
      </g>
     </g>
     <g id="text_11">
      <!-- 200 -->
      <g transform="translate(111.186366 308.796395) scale(0.1 -0.1)">
       <defs>
        <path id="DejaVuSans-15" d="M 1228 531 
L 3431 531 
L 3431 0 
L 469 0 
L 469 531 
Q 828 903 1448 1529 
Q 2069 2156 2228 2338 
Q 2531 2678 2651 2914 
Q 2772 3150 2772 3378 
Q 2772 3750 2511 3984 
Q 2250 4219 1831 4219 
Q 1534 4219 1204 4116 
Q 875 4013 500 3803 
L 500 4441 
Q 881 4594 1212 4672 
Q 1544 4750 1819 4750 
Q 2544 4750 2975 4387 
Q 3406 4025 3406 3419 
Q 3406 3131 3298 2873 
Q 3191 2616 2906 2266 
Q 2828 2175 2409 1742 
Q 1991 1309 1228 531 
z
" transform="scale(0.015625)"/>
       </defs>
       <use xlink:href="#DejaVuSans-15"/>
       <use xlink:href="#DejaVuSans-13" transform="translate(63.625 0)"/>
       <use xlink:href="#DejaVuSans-13" transform="translate(127.25 0)"/>
      </g>
     </g>
    </g>
    <g id="xtick_22">
     <g id="line2d_30">
      <g>
       <use xlink:href="#mea04909061" x="152.654685" y="294.198739" style="stroke: #000000; stroke-width: 0.8"/>
      </g>
     </g>
     <g id="text_12">
      <!-- 300 -->
      <g transform="translate(143.110935 308.796395) scale(0.1 -0.1)">
       <defs>
        <path id="DejaVuSans-16" d="M 2597 2516 
Q 3050 2419 3304 2112 
Q 3559 1806 3559 1356 
Q 3559 666 3084 287 
Q 2609 -91 1734 -91 
Q 1441 -91 1130 -33 
Q 819 25 488 141 
L 488 750 
Q 750 597 1062 519 
Q 1375 441 1716 441 
Q 2309 441 2620 675 
Q 2931 909 2931 1356 
Q 2931 1769 2642 2001 
Q 2353 2234 1838 2234 
L 1294 2234 
L 1294 2753 
L 1863 2753 
Q 2328 2753 2575 2939 
Q 2822 3125 2822 3475 
Q 2822 3834 2567 4026 
Q 2313 4219 1838 4219 
Q 1578 4219 1281 4162 
Q 984 4106 628 3988 
L 628 4550 
Q 988 4650 1302 4700 
Q 1616 4750 1894 4750 
Q 2613 4750 3031 4423 
Q 3450 4097 3450 3541 
Q 3450 3153 3228 2886 
Q 3006 2619 2597 2516 
z
" transform="scale(0.015625)"/>
       </defs>
       <use xlink:href="#DejaVuSans-16"/>
       <use xlink:href="#DejaVuSans-13" transform="translate(63.625 0)"/>
       <use xlink:href="#DejaVuSans-13" transform="translate(127.25 0)"/>
      </g>
     </g>
    </g>
    <g id="xtick_23">
     <g id="line2d_31">
      <g>
       <use xlink:href="#mea04909061" x="184.579253" y="294.198739" style="stroke: #000000; stroke-width: 0.8"/>
      </g>
     </g>
     <g id="text_13">
      <!-- 400 -->
      <g transform="translate(175.035503 308.796395) scale(0.1 -0.1)">
       <defs>
        <path id="DejaVuSans-17" d="M 2419 4116 
L 825 1625 
L 2419 1625 
L 2419 4116 
z
M 2253 4666 
L 3047 4666 
L 3047 1625 
L 3713 1625 
L 3713 1100 
L 3047 1100 
L 3047 0 
L 2419 0 
L 2419 1100 
L 313 1100 
L 313 1709 
L 2253 4666 
z
" transform="scale(0.015625)"/>
       </defs>
       <use xlink:href="#DejaVuSans-17"/>
       <use xlink:href="#DejaVuSans-13" transform="translate(63.625 0)"/>
       <use xlink:href="#DejaVuSans-13" transform="translate(127.25 0)"/>
      </g>
     </g>
    </g>
    <g id="xtick_24">
     <g id="line2d_32">
      <g>
       <use xlink:href="#mea04909061" x="216.503821" y="294.198739" style="stroke: #000000; stroke-width: 0.8"/>
      </g>
     </g>
     <g id="text_14">
      <!-- 500 -->
      <g transform="translate(206.960071 308.796395) scale(0.1 -0.1)">
       <use xlink:href="#DejaVuSans-18"/>
       <use xlink:href="#DejaVuSans-13" transform="translate(63.625 0)"/>
       <use xlink:href="#DejaVuSans-13" transform="translate(127.25 0)"/>
      </g>
     </g>
    </g>
    <g id="xtick_25">
     <g id="line2d_33">
      <g>
       <use xlink:href="#mea04909061" x="248.42839" y="294.198739" style="stroke: #000000; stroke-width: 0.8"/>
      </g>
     </g>
     <g id="text_15">
      <!-- 600 -->
      <g transform="translate(238.88464 308.796395) scale(0.1 -0.1)">
       <defs>
        <path id="DejaVuSans-19" d="M 2113 2584 
Q 1688 2584 1439 2293 
Q 1191 2003 1191 1497 
Q 1191 994 1439 701 
Q 1688 409 2113 409 
Q 2538 409 2786 701 
Q 3034 994 3034 1497 
Q 3034 2003 2786 2293 
Q 2538 2584 2113 2584 
z
M 3366 4563 
L 3366 3988 
Q 3128 4100 2886 4159 
Q 2644 4219 2406 4219 
Q 1781 4219 1451 3797 
Q 1122 3375 1075 2522 
Q 1259 2794 1537 2939 
Q 1816 3084 2150 3084 
Q 2853 3084 3261 2657 
Q 3669 2231 3669 1497 
Q 3669 778 3244 343 
Q 2819 -91 2113 -91 
Q 1303 -91 875 529 
Q 447 1150 447 2328 
Q 447 3434 972 4092 
Q 1497 4750 2381 4750 
Q 2619 4750 2861 4703 
Q 3103 4656 3366 4563 
z
" transform="scale(0.015625)"/>
       </defs>
       <use xlink:href="#DejaVuSans-19"/>
       <use xlink:href="#DejaVuSans-13" transform="translate(63.625 0)"/>
       <use xlink:href="#DejaVuSans-13" transform="translate(127.25 0)"/>
      </g>
     </g>
    </g>
    <g id="xtick_26">
     <g id="line2d_34">
      <g>
       <use xlink:href="#mea04909061" x="280.352958" y="294.198739" style="stroke: #000000; stroke-width: 0.8"/>
      </g>
     </g>
     <g id="text_16">
      <!-- 700 -->
      <g transform="translate(270.809208 308.796395) scale(0.1 -0.1)">
       <defs>
        <path id="DejaVuSans-1a" d="M 525 4666 
L 3525 4666 
L 3525 4397 
L 1831 0 
L 1172 0 
L 2766 4134 
L 525 4134 
L 525 4666 
z
" transform="scale(0.015625)"/>
       </defs>
       <use xlink:href="#DejaVuSans-1a"/>
       <use xlink:href="#DejaVuSans-13" transform="translate(63.625 0)"/>
       <use xlink:href="#DejaVuSans-13" transform="translate(127.25 0)"/>
      </g>
     </g>
    </g>
    <g id="xtick_27">
     <g id="line2d_35">
      <g>
       <use xlink:href="#mea04909061" x="312.277527" y="294.198739" style="stroke: #000000; stroke-width: 0.8"/>
      </g>
     </g>
     <g id="text_17">
      <!-- 800 -->
      <g transform="translate(302.733777 308.796395) scale(0.1 -0.1)">
       <defs>
        <path id="DejaVuSans-1b" d="M 2034 2216 
Q 1584 2216 1326 1975 
Q 1069 1734 1069 1313 
Q 1069 891 1326 650 
Q 1584 409 2034 409 
Q 2484 409 2743 651 
Q 3003 894 3003 1313 
Q 3003 1734 2745 1975 
Q 2488 2216 2034 2216 
z
M 1403 2484 
Q 997 2584 770 2862 
Q 544 3141 544 3541 
Q 544 4100 942 4425 
Q 1341 4750 2034 4750 
Q 2731 4750 3128 4425 
Q 3525 4100 3525 3541 
Q 3525 3141 3298 2862 
Q 3072 2584 2669 2484 
Q 3125 2378 3379 2068 
Q 3634 1759 3634 1313 
Q 3634 634 3220 271 
Q 2806 -91 2034 -91 
Q 1263 -91 848 271 
Q 434 634 434 1313 
Q 434 1759 690 2068 
Q 947 2378 1403 2484 
z
M 1172 3481 
Q 1172 3119 1398 2916 
Q 1625 2713 2034 2713 
Q 2441 2713 2670 2916 
Q 2900 3119 2900 3481 
Q 2900 3844 2670 4047 
Q 2441 4250 2034 4250 
Q 1625 4250 1398 4047 
Q 1172 3844 1172 3481 
z
" transform="scale(0.015625)"/>
       </defs>
       <use xlink:href="#DejaVuSans-1b"/>
       <use xlink:href="#DejaVuSans-13" transform="translate(63.625 0)"/>
       <use xlink:href="#DejaVuSans-13" transform="translate(127.25 0)"/>
      </g>
     </g>
    </g>
    <g id="text_18">
     <!-- Time -->
     <g transform="translate(172.415776 322.797176) scale(0.1 -0.1)">
      <defs>
       <path id="DejaVuSans-37" d="M -19 4666 
L 3928 4666 
L 3928 4134 
L 2272 4134 
L 2272 0 
L 1638 0 
L 1638 4134 
L -19 4134 
L -19 4666 
z
" transform="scale(0.015625)"/>
       <path id="DejaVuSans-4c" d="M 603 3500 
L 1178 3500 
L 1178 0 
L 603 0 
L 603 3500 
z
M 603 4863 
L 1178 4863 
L 1178 4134 
L 603 4134 
L 603 4863 
z
" transform="scale(0.015625)"/>
       <path id="DejaVuSans-50" d="M 3328 2828 
Q 3544 3216 3844 3400 
Q 4144 3584 4550 3584 
Q 5097 3584 5394 3201 
Q 5691 2819 5691 2113 
L 5691 0 
L 5113 0 
L 5113 2094 
Q 5113 2597 4934 2840 
Q 4756 3084 4391 3084 
Q 3944 3084 3684 2787 
Q 3425 2491 3425 1978 
L 3425 0 
L 2847 0 
L 2847 2094 
Q 2847 2600 2669 2842 
Q 2491 3084 2119 3084 
Q 1678 3084 1418 2786 
Q 1159 2488 1159 1978 
L 1159 0 
L 581 0 
L 581 3500 
L 1159 3500 
L 1159 2956 
Q 1356 3278 1631 3431 
Q 1906 3584 2284 3584 
Q 2666 3584 2933 3390 
Q 3200 3197 3328 2828 
z
" transform="scale(0.015625)"/>
      </defs>
      <use xlink:href="#DejaVuSans-37"/>
      <use xlink:href="#DejaVuSans-4c" transform="translate(58 0)"/>
      <use xlink:href="#DejaVuSans-50" transform="translate(85.78125 0)"/>
      <use xlink:href="#DejaVuSans-48" transform="translate(183.1875 0)"/>
     </g>
    </g>
   </g>
   <g id="matplotlib.axis_6">
    <g id="ytick_7">
     <g id="line2d_36">
      <g>
       <use xlink:href="#m7b976889de" x="44.103906" y="290.138166" style="stroke: #000000; stroke-width: 0.8"/>
      </g>
     </g>
     <g id="text_19">
      <!-- 0.0 -->
      <g transform="translate(21.200781 293.936994) scale(0.1 -0.1)">
       <defs>
        <path id="DejaVuSans-11" d="M 684 794 
L 1344 794 
L 1344 0 
L 684 0 
L 684 794 
z
" transform="scale(0.015625)"/>
       </defs>
       <use xlink:href="#DejaVuSans-13"/>
       <use xlink:href="#DejaVuSans-11" transform="translate(63.625 0)"/>
       <use xlink:href="#DejaVuSans-13" transform="translate(95.40625 0)"/>
      </g>
     </g>
    </g>
    <g id="ytick_8">
     <g id="line2d_37">
      <g>
       <use xlink:href="#m7b976889de" x="44.103906" y="249.532442" style="stroke: #000000; stroke-width: 0.8"/>
      </g>
     </g>
     <g id="text_20">
      <!-- 0.5 -->
      <g transform="translate(21.200781 253.33127) scale(0.1 -0.1)">
       <use xlink:href="#DejaVuSans-13"/>
       <use xlink:href="#DejaVuSans-11" transform="translate(63.625 0)"/>
       <use xlink:href="#DejaVuSans-18" transform="translate(95.40625 0)"/>
      </g>
     </g>
    </g>
    <g id="ytick_9">
     <g id="line2d_38">
      <g>
       <use xlink:href="#m7b976889de" x="44.103906" y="208.926718" style="stroke: #000000; stroke-width: 0.8"/>
      </g>
     </g>
     <g id="text_21">
      <!-- 1.0 -->
      <g transform="translate(21.200781 212.725546) scale(0.1 -0.1)">
       <use xlink:href="#DejaVuSans-14"/>
       <use xlink:href="#DejaVuSans-11" transform="translate(63.625 0)"/>
       <use xlink:href="#DejaVuSans-13" transform="translate(95.40625 0)"/>
      </g>
     </g>
    </g>
    <g id="text_22">
     <!-- Free lac operon -->
     <g transform="translate(14.798438 288.006661) rotate(-90) scale(0.1 -0.1)">
      <defs>
       <path id="DejaVuSans-29" d="M 628 4666 
L 3309 4666 
L 3309 4134 
L 1259 4134 
L 1259 2759 
L 3109 2759 
L 3109 2228 
L 1259 2228 
L 1259 0 
L 628 0 
L 628 4666 
z
" transform="scale(0.015625)"/>
       <path id="DejaVuSans-53" d="M 1159 525 
L 1159 -1331 
L 581 -1331 
L 581 3500 
L 1159 3500 
L 1159 2969 
Q 1341 3281 1617 3432 
Q 1894 3584 2278 3584 
Q 2916 3584 3314 3078 
Q 3713 2572 3713 1747 
Q 3713 922 3314 415 
Q 2916 -91 2278 -91 
Q 1894 -91 1617 61 
Q 1341 213 1159 525 
z
M 3116 1747 
Q 3116 2381 2855 2742 
Q 2594 3103 2138 3103 
Q 1681 3103 1420 2742 
Q 1159 2381 1159 1747 
Q 1159 1113 1420 752 
Q 1681 391 2138 391 
Q 2594 391 2855 752 
Q 3116 1113 3116 1747 
z
" transform="scale(0.015625)"/>
       <path id="DejaVuSans-51" d="M 3513 2113 
L 3513 0 
L 2938 0 
L 2938 2094 
Q 2938 2591 2744 2837 
Q 2550 3084 2163 3084 
Q 1697 3084 1428 2787 
Q 1159 2491 1159 1978 
L 1159 0 
L 581 0 
L 581 3500 
L 1159 3500 
L 1159 2956 
Q 1366 3272 1645 3428 
Q 1925 3584 2291 3584 
Q 2894 3584 3203 3211 
Q 3513 2838 3513 2113 
z
" transform="scale(0.015625)"/>
      </defs>
      <use xlink:href="#DejaVuSans-29"/>
      <use xlink:href="#DejaVuSans-55" transform="translate(50.234375 0)"/>
      <use xlink:href="#DejaVuSans-48" transform="translate(89.140625 0)"/>
      <use xlink:href="#DejaVuSans-48" transform="translate(150.671875 0)"/>
      <use xlink:href="#DejaVuSans-3" transform="translate(212.203125 0)"/>
      <use xlink:href="#DejaVuSans-4f" transform="translate(243.984375 0)"/>
      <use xlink:href="#DejaVuSans-44" transform="translate(271.765625 0)"/>
      <use xlink:href="#DejaVuSans-46" transform="translate(333.046875 0)"/>
      <use xlink:href="#DejaVuSans-3" transform="translate(388.03125 0)"/>
      <use xlink:href="#DejaVuSans-52" transform="translate(419.8125 0)"/>
      <use xlink:href="#DejaVuSans-53" transform="translate(481 0)"/>
      <use xlink:href="#DejaVuSans-48" transform="translate(544.484375 0)"/>
      <use xlink:href="#DejaVuSans-55" transform="translate(606.015625 0)"/>
      <use xlink:href="#DejaVuSans-52" transform="translate(644.921875 0)"/>
      <use xlink:href="#DejaVuSans-51" transform="translate(706.109375 0)"/>
     </g>
    </g>
   </g>
   <g id="line2d_39">
    <path d="M 56.88098 208.926718 
L 56.962631 290.138166 
L 57.131202 290.138166 
L 57.301068 208.926718 
L 57.419433 208.926718 
L 57.521737 290.138166 
L 58.740062 290.138166 
L 59.731573 208.926718 
L 59.918229 208.926718 
L 59.941012 290.138166 
L 62.366538 290.138166 
L 64.965428 208.926718 
L 65.260821 208.926718 
L 65.398496 290.138166 
L 65.524581 290.138166 
L 72.198229 208.926718 
L 72.368305 290.138166 
L 80.221096 208.926718 
L 80.270216 290.138166 
L 82.901103 208.926718 
L 83.041328 208.926718 
L 83.095582 290.138166 
L 84.838843 290.138166 
L 84.904387 208.926718 
L 85.78215 208.926718 
L 85.972447 290.138166 
L 87.007023 290.138166 
L 90.004649 208.926718 
L 90.545561 208.926718 
L 90.574889 290.138166 
L 90.933398 290.138166 
L 91.816269 208.926718 
L 91.874813 290.138166 
L 92.219232 290.138166 
L 109.322709 208.926718 
L 109.336434 290.138166 
L 109.595331 290.138166 
L 109.871921 208.926718 
L 110.159756 290.138166 
L 110.288039 208.926718 
L 110.69647 208.926718 
L 110.901394 290.138166 
L 111.194524 290.138166 
L 115.363606 208.926718 
L 116.025329 290.138166 
L 117.670096 208.926718 
L 117.985851 290.138166 
L 118.659392 208.926718 
L 118.746862 290.138166 
L 119.757898 208.926718 
L 119.842948 290.138166 
L 123.792321 290.138166 
L 129.821156 208.926718 
L 129.927279 290.138166 
L 131.672442 208.926718 
L 132.123982 208.926718 
L 132.145458 290.138166 
L 133.988802 290.138166 
L 136.588749 208.926718 
L 136.602078 290.138166 
L 139.487915 208.926718 
L 139.530717 290.138166 
L 146.585697 208.926718 
L 147.531586 208.926718 
L 147.600012 290.138166 
L 148.21746 290.138166 
L 148.462899 208.926718 
L 148.778299 208.926718 
L 148.891232 290.138166 
L 149.963613 290.138166 
L 150.47589 208.926718 
L 150.57681 290.138166 
L 151.69976 290.138166 
L 151.711099 208.926718 
L 151.872903 290.138166 
L 156.188528 208.926718 
L 156.277608 290.138166 
L 156.527339 208.926718 
L 203.666225 208.926718 
L 203.795164 290.138166 
L 206.418483 290.138166 
L 207.360538 208.926718 
L 207.636678 290.138166 
L 208.390774 208.926718 
L 208.995066 208.926718 
L 209.061643 290.138166 
L 210.13284 290.138166 
L 219.226027 208.926718 
L 219.906025 208.926718 
L 219.967036 290.138166 
L 220.26206 290.138166 
L 223.421501 208.926718 
L 223.435198 290.138166 
L 225.754284 208.926718 
L 227.204148 208.926718 
L 227.543307 290.138166 
L 228.23065 290.138166 
L 230.202039 208.926718 
L 230.382214 290.138166 
L 234.036647 290.138166 
L 235.50984 208.926718 
L 235.607656 290.138166 
L 236.064026 208.926718 
L 236.378368 208.926718 
L 236.548488 290.138166 
L 236.601764 208.926718 
L 236.653451 290.138166 
L 237.924279 290.138166 
L 246.870095 208.926718 
L 247.015652 208.926718 
L 247.020343 290.138166 
L 247.530459 290.138166 
L 258.52473 208.926718 
L 258.663388 290.138166 
L 260.900243 208.926718 
L 261.235912 290.138166 
L 262.454553 208.926718 
L 262.478962 290.138166 
L 262.623156 208.926718 
L 263.280908 208.926718 
L 263.311744 290.138166 
L 266.647506 290.138166 
L 267.171094 208.926718 
L 267.34209 208.926718 
L 267.347598 290.138166 
L 267.443607 208.926718 
L 267.516837 208.926718 
L 267.935069 290.138166 
L 269.34251 208.926718 
L 269.448496 290.138166 
L 275.417604 208.926718 
L 275.438673 290.138166 
L 281.968933 208.926718 
L 282.624552 208.926718 
L 282.74457 290.138166 
L 283.831516 290.138166 
L 285.085888 208.926718 
L 285.297461 208.926718 
L 285.394805 290.138166 
L 285.56541 208.926718 
L 285.642074 290.138166 
L 286.267885 208.926718 
L 286.588138 290.138166 
L 292.694932 208.926718 
L 292.936254 290.138166 
L 297.39478 208.926718 
L 297.415294 290.138166 
L 299.296498 208.926718 
L 300.203878 208.926718 
L 300.24115 290.138166 
L 301.981035 290.138166 
L 305.102179 208.926718 
L 305.645341 208.926718 
L 305.666413 290.138166 
L 306.020282 290.138166 
L 306.905856 208.926718 
L 307.051813 290.138166 
L 308.059618 290.138166 
L 310.999936 208.926718 
L 311.287231 208.926718 
L 311.415483 290.138166 
L 311.918422 290.138166 
L 312.086532 208.926718 
L 312.105119 290.138166 
L 312.422447 290.138166 
L 312.422447 290.138166 
" clip-path="url(#p6b0582b333)" style="fill: none; stroke: #000000; stroke-width: 1.5; stroke-linecap: square"/>
   </g>
   <g id="patch_13">
    <path d="M 44.103906 294.198739 
L 44.103906 204.866146 
" style="fill: none; stroke: #000000; stroke-width: 0.8; stroke-linejoin: miter; stroke-linecap: square"/>
   </g>
   <g id="patch_14">
    <path d="M 325.19952 294.198739 
L 325.19952 204.866146 
" style="fill: none; stroke: #000000; stroke-width: 0.8; stroke-linejoin: miter; stroke-linecap: square"/>
   </g>
   <g id="patch_15">
    <path d="M 44.103906 294.198739 
L 325.19952 294.198739 
" style="fill: none; stroke: #000000; stroke-width: 0.8; stroke-linejoin: miter; stroke-linecap: square"/>
   </g>
   <g id="patch_16">
    <path d="M 44.103906 204.866146 
L 325.19952 204.866146 
" style="fill: none; stroke: #000000; stroke-width: 0.8; stroke-linejoin: miter; stroke-linecap: square"/>
   </g>
  </g>
 </g>
 <defs>
  <clipPath id="p278bec9196">
   <rect x="44.103906" y="7.2" width="281.095614" height="89.332593"/>
  </clipPath>
  <clipPath id="p88904f842c">
   <rect x="44.103906" y="106.033073" width="281.095614" height="89.332593"/>
  </clipPath>
  <clipPath id="p6b0582b333">
   <rect x="44.103906" y="204.866146" width="281.095614" height="89.332593"/>
  </clipPath>
 </defs>
</svg>
