<?xml version="1.0" encoding="utf-8" standalone="no"?>
<!DOCTYPE svg PUBLIC "-//W3C//DTD SVG 1.1//EN"
  "http://www.w3.org/Graphics/SVG/1.1/DTD/svg11.dtd">
<svg xmlns:xlink="http://www.w3.org/1999/xlink" width="332.39952pt" height="332.39952pt" viewBox="0 0 332.39952 332.39952" xmlns="http://www.w3.org/2000/svg" version="1.1">
 <metadata>
  <rdf:RDF xmlns:dc="http://purl.org/dc/elements/1.1/" xmlns:cc="http://creativecommons.org/ns#" xmlns:rdf="http://www.w3.org/1999/02/22-rdf-syntax-ns#">
   <cc:Work>
    <dc:type rdf:resource="http://purl.org/dc/dcmitype/StillImage"/>
    <dc:date>2026-05-26T20:10:23.945177</dc:date>
    <dc:format>image/svg+xml</dc:format>
    <dc:creator>
     <cc:Agent>
      <dc:title>Matplotlib v3.10.9, https://matplotlib.org/</dc:title>
     </cc:Agent>
    </dc:creator>
   </cc:Work>
  </rdf:RDF>
 </metadata>
 <defs>
  <style type="text/css">*{stroke-linejoin: round; stroke-linecap: butt}</style>
 </defs>
 <g id="figure_1">
  <g id="patch_1">
   <path d="M 0 332.39952 
L 332.39952 332.39952 
L 332.39952 0 
L 0 0 
z
" style="fill: #ffffff"/>
  </g>
  <g id="axes_1">
   <g id="patch_2">
    <path d="M 43.78125 96.747437 
L 325.19952 96.747437 
L 325.19952 7.2 
L 43.78125 7.2 
z
" style="fill: #ffffff"/>
   </g>
   <g id="matplotlib.axis_1">
    <g id="xtick_1">
     <g id="line2d_1">
      <defs>
       <path id="m8156cfcf16" d="M 0 0 
L 0 3.5 
" style="stroke: #000000; stroke-width: 0.8"/>
      </defs>
      <g>
       <use xlink:href="#m8156cfcf16" x="56.57299" y="96.747437" style="stroke: #000000; stroke-width: 0.8"/>
      </g>
     </g>
    </g>
    <g id="xtick_2">
     <g id="line2d_2">
      <g>
       <use xlink:href="#m8156cfcf16" x="88.551969" y="96.747437" style="stroke: #000000; stroke-width: 0.8"/>
      </g>
     </g>
    </g>
    <g id="xtick_3">
     <g id="line2d_3">
      <g>
       <use xlink:href="#m8156cfcf16" x="120.530949" y="96.747437" style="stroke: #000000; stroke-width: 0.8"/>
      </g>
     </g>
    </g>
    <g id="xtick_4">
     <g id="line2d_4">
      <g>
       <use xlink:href="#m8156cfcf16" x="152.509929" y="96.747437" style="stroke: #000000; stroke-width: 0.8"/>
      </g>
     </g>
    </g>
    <g id="xtick_5">
     <g id="line2d_5">
      <g>
       <use xlink:href="#m8156cfcf16" x="184.488908" y="96.747437" style="stroke: #000000; stroke-width: 0.8"/>
      </g>
     </g>
    </g>
    <g id="xtick_6">
     <g id="line2d_6">
      <g>
       <use xlink:href="#m8156cfcf16" x="216.467888" y="96.747437" style="stroke: #000000; stroke-width: 0.8"/>
      </g>
     </g>
    </g>
    <g id="xtick_7">
     <g id="line2d_7">
      <g>
       <use xlink:href="#m8156cfcf16" x="248.446868" y="96.747437" style="stroke: #000000; stroke-width: 0.8"/>
      </g>
     </g>
    </g>
    <g id="xtick_8">
     <g id="line2d_8">
      <g>
       <use xlink:href="#m8156cfcf16" x="280.425848" y="96.747437" style="stroke: #000000; stroke-width: 0.8"/>
      </g>
     </g>
    </g>
    <g id="xtick_9">
     <g id="line2d_9">
      <g>
       <use xlink:href="#m8156cfcf16" x="312.404827" y="96.747437" style="stroke: #000000; stroke-width: 0.8"/>
      </g>
     </g>
    </g>
   </g>
   <g id="matplotlib.axis_2">
    <g id="ytick_1">
     <g id="line2d_10">
      <defs>
       <path id="m656a81b73f" d="M 0 0 
L -3.5 0 
" style="stroke: #000000; stroke-width: 0.8"/>
      </defs>
      <g>
       <use xlink:href="#m656a81b73f" x="43.78125" y="92.677099" style="stroke: #000000; stroke-width: 0.8"/>
      </g>
     </g>
     <g id="text_1">
      <!-- 0 -->
      <g transform="translate(30.41875 96.476317) scale(0.1 -0.1)">
       <defs>
        <path id="DejaVuSans-30" d="M 2034 4250 
Q 1547 4250 1301 3770 
Q 1056 3291 1056 2328 
Q 1056 1369 1301 889 
Q 1547 409 2034 409 
Q 2525 409 2770 889 
Q 3016 1369 3016 2328 
Q 3016 3291 2770 3770 
Q 2525 4250 2034 4250 
z
M 2034 4750 
Q 2819 4750 3233 4129 
Q 3647 3509 3647 2328 
Q 3647 1150 3233 529 
Q 2819 -91 2034 -91 
Q 1250 -91 836 529 
Q 422 1150 422 2328 
Q 422 3509 836 4129 
Q 1250 4750 2034 4750 
z
" transform="scale(0.015625)"/>
       </defs>
       <use xlink:href="#DejaVuSans-30"/>
      </g>
     </g>
    </g>
    <g id="ytick_2">
     <g id="line2d_11">
      <g>
       <use xlink:href="#m656a81b73f" x="43.78125" y="51.973718" style="stroke: #000000; stroke-width: 0.8"/>
      </g>
     </g>
     <g id="text_2">
      <!-- 5 -->
      <g transform="translate(30.41875 55.772937) scale(0.1 -0.1)">
       <defs>
        <path id="DejaVuSans-35" d="M 691 4666 
L 3169 4666 
L 3169 4134 
L 1269 4134 
L 1269 2991 
Q 1406 3038 1543 3061 
Q 1681 3084 1819 3084 
Q 2600 3084 3056 2656 
Q 3513 2228 3513 1497 
Q 3513 744 3044 326 
Q 2575 -91 1722 -91 
Q 1428 -91 1123 -41 
Q 819 9 494 109 
L 494 744 
Q 775 591 1075 516 
Q 1375 441 1709 441 
Q 2250 441 2565 725 
Q 2881 1009 2881 1497 
Q 2881 1984 2565 2268 
Q 2250 2553 1709 2553 
Q 1456 2553 1204 2497 
Q 953 2441 691 2322 
L 691 4666 
z
" transform="scale(0.015625)"/>
       </defs>
       <use xlink:href="#DejaVuSans-35"/>
      </g>
     </g>
    </g>
    <g id="ytick_3">
     <g id="line2d_12">
      <g>
       <use xlink:href="#m656a81b73f" x="43.78125" y="11.270338" style="stroke: #000000; stroke-width: 0.8"/>
      </g>
     </g>
     <g id="text_3">
      <!-- 10 -->
      <g transform="translate(24.05625 15.069557) scale(0.1 -0.1)">
       <defs>
        <path id="DejaVuSans-31" d="M 794 531 
L 1825 531 
L 1825 4091 
L 703 3866 
L 703 4441 
L 1819 4666 
L 2450 4666 
L 2450 531 
L 3481 531 
L 3481 0 
L 794 0 
L 794 531 
z
" transform="scale(0.015625)"/>
       </defs>
       <use xlink:href="#DejaVuSans-31"/>
       <use xlink:href="#DejaVuSans-30" transform="translate(63.623047 0)"/>
      </g>
     </g>
    </g>
    <g id="text_4">
     <!-- Extracellular lactose -->
     <g transform="translate(17.976562 102.945593) rotate(-90) scale(0.1 -0.1)">
      <defs>
       <path id="DejaVuSans-45" d="M 628 4666 
L 3578 4666 
L 3578 4134 
L 1259 4134 
L 1259 2753 
L 3481 2753 
L 3481 2222 
L 1259 2222 
L 1259 531 
L 3634 531 
L 3634 0 
L 628 0 
L 628 4666 
z
" transform="scale(0.015625)"/>
       <path id="DejaVuSans-78" d="M 3513 3500 
L 2247 1797 
L 3578 0 
L 2900 0 
L 1881 1375 
L 863 0 
L 184 0 
L 1544 1831 
L 300 3500 
L 978 3500 
L 1906 2253 
L 2834 3500 
L 3513 3500 
z
" transform="scale(0.015625)"/>
       <path id="DejaVuSans-74" d="M 1172 4494 
L 1172 3500 
L 2356 3500 
L 2356 3053 
L 1172 3053 
L 1172 1153 
Q 1172 725 1289 603 
Q 1406 481 1766 481 
L 2356 481 
L 2356 0 
L 1766 0 
Q 1100 0 847 248 
Q 594 497 594 1153 
L 594 3053 
L 172 3053 
L 172 3500 
L 594 3500 
L 594 4494 
L 1172 4494 
z
" transform="scale(0.015625)"/>
       <path id="DejaVuSans-72" d="M 2631 2963 
Q 2534 3019 2420 3045 
Q 2306 3072 2169 3072 
Q 1681 3072 1420 2755 
Q 1159 2438 1159 1844 
L 1159 0 
L 581 0 
L 581 3500 
L 1159 3500 
L 1159 2956 
Q 1341 3275 1631 3429 
Q 1922 3584 2338 3584 
Q 2397 3584 2469 3576 
Q 2541 3569 2628 3553 
L 2631 2963 
z
" transform="scale(0.015625)"/>
       <path id="DejaVuSans-61" d="M 2194 1759 
Q 1497 1759 1228 1600 
Q 959 1441 959 1056 
Q 959 750 1161 570 
Q 1363 391 1709 391 
Q 2188 391 2477 730 
Q 2766 1069 2766 1631 
L 2766 1759 
L 2194 1759 
z
M 3341 1997 
L 3341 0 
L 2766 0 
L 2766 531 
Q 2569 213 2275 61 
Q 1981 -91 1556 -91 
Q 1019 -91 701 211 
Q 384 513 384 1019 
Q 384 1609 779 1909 
Q 1175 2209 1959 2209 
L 2766 2209 
L 2766 2266 
Q 2766 2663 2505 2880 
Q 2244 3097 1772 3097 
Q 1472 3097 1187 3025 
Q 903 2953 641 2809 
L 641 3341 
Q 956 3463 1253 3523 
Q 1550 3584 1831 3584 
Q 2591 3584 2966 3190 
Q 3341 2797 3341 1997 
z
" transform="scale(0.015625)"/>
       <path id="DejaVuSans-63" d="M 3122 3366 
L 3122 2828 
Q 2878 2963 2633 3030 
Q 2388 3097 2138 3097 
Q 1578 3097 1268 2742 
Q 959 2388 959 1747 
Q 959 1106 1268 751 
Q 1578 397 2138 397 
Q 2388 397 2633 464 
Q 2878 531 3122 666 
L 3122 134 
Q 2881 22 2623 -34 
Q 2366 -91 2075 -91 
Q 1284 -91 818 406 
Q 353 903 353 1747 
Q 353 2603 823 3093 
Q 1294 3584 2113 3584 
Q 2378 3584 2631 3529 
Q 2884 3475 3122 3366 
z
" transform="scale(0.015625)"/>
       <path id="DejaVuSans-65" d="M 3597 1894 
L 3597 1613 
L 953 1613 
Q 991 1019 1311 708 
Q 1631 397 2203 397 
Q 2534 397 2845 478 
Q 3156 559 3463 722 
L 3463 178 
Q 3153 47 2828 -22 
Q 2503 -91 2169 -91 
Q 1331 -91 842 396 
Q 353 884 353 1716 
Q 353 2575 817 3079 
Q 1281 3584 2069 3584 
Q 2775 3584 3186 3129 
Q 3597 2675 3597 1894 
z
M 3022 2063 
Q 3016 2534 2758 2815 
Q 2500 3097 2075 3097 
Q 1594 3097 1305 2825 
Q 1016 2553 972 2059 
L 3022 2063 
z
" transform="scale(0.015625)"/>
       <path id="DejaVuSans-6c" d="M 603 4863 
L 1178 4863 
L 1178 0 
L 603 0 
L 603 4863 
z
" transform="scale(0.015625)"/>
       <path id="DejaVuSans-75" d="M 544 1381 
L 544 3500 
L 1119 3500 
L 1119 1403 
Q 1119 906 1312 657 
Q 1506 409 1894 409 
Q 2359 409 2629 706 
Q 2900 1003 2900 1516 
L 2900 3500 
L 3475 3500 
L 3475 0 
L 2900 0 
L 2900 538 
Q 2691 219 2414 64 
Q 2138 -91 1772 -91 
Q 1169 -91 856 284 
Q 544 659 544 1381 
z
M 1991 3584 
L 1991 3584 
z
" transform="scale(0.015625)"/>
       <path id="DejaVuSans-20" transform="scale(0.015625)"/>
       <path id="DejaVuSans-6f" d="M 1959 3097 
Q 1497 3097 1228 2736 
Q 959 2375 959 1747 
Q 959 1119 1226 758 
Q 1494 397 1959 397 
Q 2419 397 2687 759 
Q 2956 1122 2956 1747 
Q 2956 2369 2687 2733 
Q 2419 3097 1959 3097 
z
M 1959 3584 
Q 2709 3584 3137 3096 
Q 3566 2609 3566 1747 
Q 3566 888 3137 398 
Q 2709 -91 1959 -91 
Q 1206 -91 779 398 
Q 353 888 353 1747 
Q 353 2609 779 3096 
Q 1206 3584 1959 3584 
z
" transform="scale(0.015625)"/>
       <path id="DejaVuSans-73" d="M 2834 3397 
L 2834 2853 
Q 2591 2978 2328 3040 
Q 2066 3103 1784 3103 
Q 1356 3103 1142 2972 
Q 928 2841 928 2578 
Q 928 2378 1081 2264 
Q 1234 2150 1697 2047 
L 1894 2003 
Q 2506 1872 2764 1633 
Q 3022 1394 3022 966 
Q 3022 478 2636 193 
Q 2250 -91 1575 -91 
Q 1294 -91 989 -36 
Q 684 19 347 128 
L 347 722 
Q 666 556 975 473 
Q 1284 391 1588 391 
Q 1994 391 2212 530 
Q 2431 669 2431 922 
Q 2431 1156 2273 1281 
Q 2116 1406 1581 1522 
L 1381 1569 
Q 847 1681 609 1914 
Q 372 2147 372 2553 
Q 372 3047 722 3315 
Q 1072 3584 1716 3584 
Q 2034 3584 2315 3537 
Q 2597 3491 2834 3397 
z
" transform="scale(0.015625)"/>
      </defs>
      <use xlink:href="#DejaVuSans-45"/>
      <use xlink:href="#DejaVuSans-78" transform="translate(63.183594 0)"/>
      <use xlink:href="#DejaVuSans-74" transform="translate(122.363281 0)"/>
      <use xlink:href="#DejaVuSans-72" transform="translate(161.572266 0)"/>
      <use xlink:href="#DejaVuSans-61" transform="translate(202.685547 0)"/>
      <use xlink:href="#DejaVuSans-63" transform="translate(263.964844 0)"/>
      <use xlink:href="#DejaVuSans-65" transform="translate(318.945312 0)"/>
      <use xlink:href="#DejaVuSans-6c" transform="translate(380.46875 0)"/>
      <use xlink:href="#DejaVuSans-6c" transform="translate(408.251953 0)"/>
      <use xlink:href="#DejaVuSans-75" transform="translate(436.035156 0)"/>
      <use xlink:href="#DejaVuSans-6c" transform="translate(499.414062 0)"/>
      <use xlink:href="#DejaVuSans-61" transform="translate(527.197266 0)"/>
      <use xlink:href="#DejaVuSans-72" transform="translate(588.476562 0)"/>
      <use xlink:href="#DejaVuSans-20" transform="translate(629.589844 0)"/>
      <use xlink:href="#DejaVuSans-6c" transform="translate(661.376953 0)"/>
      <use xlink:href="#DejaVuSans-61" transform="translate(689.160156 0)"/>
      <use xlink:href="#DejaVuSans-63" transform="translate(750.439453 0)"/>
      <use xlink:href="#DejaVuSans-74" transform="translate(805.419922 0)"/>
      <use xlink:href="#DejaVuSans-6f" transform="translate(844.628906 0)"/>
      <use xlink:href="#DejaVuSans-73" transform="translate(905.810547 0)"/>
      <use xlink:href="#DejaVuSans-65" transform="translate(957.910156 0)"/>
     </g>
    </g>
   </g>
   <g id="line2d_13">
    <path d="M 56.57299 92.677099 
L 156.049795 92.677099 
L 156.139027 11.270338 
L 156.808026 11.351745 
L 156.925891 11.677372 
L 156.970774 11.758779 
L 157.117189 13.2241 
L 157.23481 14.770829 
L 157.38215 16.480371 
L 157.534287 18.108506 
L 157.557958 18.189913 
L 157.671172 19.166794 
L 157.799017 20.143675 
L 157.847906 20.225082 
L 158.595871 23.074318 
L 158.812884 24.214013 
L 158.84623 24.29542 
L 158.953311 25.028081 
L 159.007841 25.109487 
L 159.133535 25.272301 
L 159.179928 25.353708 
L 159.322837 26.330589 
L 159.638964 28.202944 
L 159.759618 29.098419 
L 160.265947 32.598909 
L 160.280919 32.680316 
L 160.383507 33.33157 
L 160.438413 33.820011 
L 160.559099 34.471265 
L 160.580577 34.552672 
L 160.688173 34.796892 
L 160.71311 34.878299 
L 161.116996 36.34362 
L 161.546662 36.425027 
L 161.687523 36.913468 
L 161.819324 36.994874 
L 161.923102 37.239095 
L 162.507424 37.320501 
L 162.696883 37.564722 
L 162.8376 37.646128 
L 162.959937 37.890349 
L 163.407983 37.971756 
L 163.511979 38.215976 
L 164.069041 38.297383 
L 164.588627 39.274264 
L 164.681594 39.35567 
L 164.975922 40.658179 
L 164.992909 40.739585 
L 165.116584 41.065212 
L 165.187945 41.146619 
L 165.289145 41.87928 
L 165.3589 42.286314 
L 165.446231 42.611941 
L 165.584328 42.693348 
L 165.720638 43.507415 
L 165.7874 43.588822 
L 165.967032 44.484296 
L 166.176388 45.705398 
L 166.355813 46.275245 
L 166.57202 46.356652 
L 166.862086 46.926499 
L 166.907882 47.007906 
L 167.307432 47.90338 
L 167.409145 47.984787 
L 167.585675 48.229007 
L 167.794837 48.636041 
L 167.964867 49.124482 
L 168.316509 49.694329 
L 168.411013 49.938549 
L 168.541328 50.019956 
L 168.66316 50.101363 
L 174.108335 50.18277 
L 174.222462 50.42699 
L 174.313909 50.508397 
L 174.442947 50.752617 
L 174.692957 51.241057 
L 174.79418 51.729498 
L 174.9168 51.810905 
L 175.02335 52.055125 
L 175.114285 52.136532 
L 175.310421 52.706379 
L 175.498337 53.601854 
L 175.561395 53.68326 
L 175.677766 54.171701 
L 175.691351 54.253108 
L 175.822549 54.660141 
L 175.877254 54.741548 
L 175.977441 54.985768 
L 176.366603 57.590785 
L 176.481591 58.730479 
L 176.49491 58.811886 
L 177.042839 61.172682 
L 177.092221 61.254089 
L 177.258454 61.661123 
L 177.319768 61.74253 
L 177.445143 62.312377 
L 177.656957 62.393784 
L 177.779 62.556597 
L 178.621204 62.638004 
L 178.64917 62.719411 
L 178.946234 63.126445 
L 179.618994 65.812868 
L 179.730737 66.464122 
L 179.756078 66.545528 
L 179.886178 67.359596 
L 179.922683 67.441003 
L 180.113435 68.336477 
L 180.190446 68.417884 
L 180.31229 68.906325 
L 180.37645 68.987731 
L 180.5497 69.720392 
L 180.677839 70.208833 
L 180.720691 70.290239 
L 180.832722 71.0229 
L 180.869982 71.104307 
L 181.000772 71.836968 
L 181.246074 73.139476 
L 181.301521 73.220883 
L 181.428405 74.116357 
L 181.471137 74.197764 
L 181.616516 74.441984 
L 181.760824 74.523391 
L 181.905032 74.767611 
L 182.000878 74.930425 
L 182.069842 75.011832 
L 182.692757 76.477153 
L 183.026066 76.55856 
L 183.162874 76.639967 
L 184.545368 76.721374 
L 184.656724 76.884187 
L 185.956432 76.965594 
L 186.238607 77.535441 
L 186.413607 77.942475 
L 186.489303 78.023882 
L 186.665806 78.105288 
L 186.815267 78.349509 
L 186.855067 78.430916 
L 186.925177 78.512322 
L 187.060988 78.593729 
L 187.224888 78.756543 
L 187.391481 78.837949 
L 187.94611 79.244983 
L 188.076248 79.896237 
L 188.241244 79.977644 
L 188.354038 80.059051 
L 188.497813 80.140458 
L 188.840937 80.221864 
L 189.006023 80.466085 
L 189.122477 80.547491 
L 189.1993 80.710305 
L 189.278703 80.791712 
L 189.424687 81.035932 
L 190.170905 81.931406 
L 190.566853 82.664067 
L 190.655291 82.745474 
L 190.848393 83.152508 
L 191.071949 83.233914 
L 191.189546 83.396728 
L 191.954982 83.478135 
L 192.617107 84.047982 
L 192.725837 84.292202 
L 193.146837 84.373609 
L 193.264763 84.536423 
L 193.695925 84.617829 
L 193.783208 84.780643 
L 193.963115 84.86205 
L 194.330392 85.024863 
L 194.374865 85.10627 
L 194.509989 85.187677 
L 195.086802 85.269083 
L 195.253734 85.431897 
L 196.673676 85.513304 
L 197.360749 85.757524 
L 198.12906 85.838931 
L 198.481984 86.001744 
L 200.964336 86.083151 
L 201.101788 86.164558 
L 201.288174 86.245965 
L 201.56927 86.327371 
L 202.13557 86.408778 
L 202.248597 86.571592 
L 202.547425 86.652998 
L 202.670492 86.978625 
L 202.76592 87.060032 
L 202.8412 87.141439 
L 203.158789 87.222846 
L 203.298323 87.385659 
L 203.672473 87.467066 
L 203.751521 87.548473 
L 206.288836 88.281134 
L 206.39746 88.443947 
L 207.086348 88.525354 
L 207.574942 88.850981 
L 207.683888 89.013794 
L 207.882434 89.095201 
L 207.964786 89.258015 
L 208.48466 89.339421 
L 208.627525 89.420828 
L 209.077186 89.502235 
L 209.375055 89.746455 
L 210.230626 89.827862 
L 210.422691 89.909269 
L 211.411851 89.990676 
L 211.473842 90.072082 
L 212.354426 90.153489 
L 212.390507 90.234896 
L 213.086618 90.316303 
L 213.254548 90.397709 
L 214.651921 90.479116 
L 214.759482 90.560523 
L 215.363869 90.64193 
L 215.485089 90.723336 
L 218.906989 90.804743 
L 219.068397 90.88615 
L 220.389459 90.967557 
L 220.749366 91.13037 
L 224.731855 91.211777 
L 225.515767 91.293184 
L 226.344879 91.37459 
L 226.461756 91.537404 
L 230.677301 91.618811 
L 230.869772 91.700218 
L 237.413866 91.781624 
L 237.651212 91.944438 
L 255.138252 92.025845 
L 255.343738 92.107251 
L 287.799844 92.188658 
L 288.021418 92.270065 
L 289.053205 92.432878 
L 312.40778 92.432878 
L 312.40778 92.432878 
" clip-path="url(#pf1b9e6aa76)" style="fill: none; stroke: #000000; stroke-width: 1.5; stroke-linecap: square"/>
   </g>
   <g id="patch_3">
    <path d="M 43.78125 96.747437 
L 43.78125 7.2 
" style="fill: none; stroke: #000000; stroke-width: 0.8; stroke-linejoin: miter; stroke-linecap: square"/>
   </g>
   <g id="patch_4">
    <path d="M 325.19952 96.747437 
L 325.19952 7.2 
" style="fill: none; stroke: #000000; stroke-width: 0.8; stroke-linejoin: miter; stroke-linecap: square"/>
   </g>
   <g id="patch_5">
    <path d="M 43.78125 96.747437 
L 325.19952 96.747437 
" style="fill: none; stroke: #000000; stroke-width: 0.8; stroke-linejoin: miter; stroke-linecap: square"/>
   </g>
   <g id="patch_6">
    <path d="M 43.78125 7.2 
L 325.19952 7.2 
" style="fill: none; stroke: #000000; stroke-width: 0.8; stroke-linejoin: miter; stroke-linecap: square"/>
   </g>
  </g>
  <g id="axes_2">
   <g id="patch_7">
    <path d="M 43.78125 195.795353 
L 325.19952 195.795353 
L 325.19952 106.247917 
L 43.78125 106.247917 
z
" style="fill: #ffffff"/>
   </g>
   <g id="matplotlib.axis_3">
    <g id="xtick_10">
     <g id="line2d_14">
      <g>
       <use xlink:href="#m8156cfcf16" x="56.57299" y="195.795353" style="stroke: #000000; stroke-width: 0.8"/>
      </g>
     </g>
    </g>
    <g id="xtick_11">
     <g id="line2d_15">
      <g>
       <use xlink:href="#m8156cfcf16" x="88.551969" y="195.795353" style="stroke: #000000; stroke-width: 0.8"/>
      </g>
     </g>
    </g>
    <g id="xtick_12">
     <g id="line2d_16">
      <g>
       <use xlink:href="#m8156cfcf16" x="120.530949" y="195.795353" style="stroke: #000000; stroke-width: 0.8"/>
      </g>
     </g>
    </g>
    <g id="xtick_13">
     <g id="line2d_17">
      <g>
       <use xlink:href="#m8156cfcf16" x="152.509929" y="195.795353" style="stroke: #000000; stroke-width: 0.8"/>
      </g>
     </g>
    </g>
    <g id="xtick_14">
     <g id="line2d_18">
      <g>
       <use xlink:href="#m8156cfcf16" x="184.488908" y="195.795353" style="stroke: #000000; stroke-width: 0.8"/>
      </g>
     </g>
    </g>
    <g id="xtick_15">
     <g id="line2d_19">
      <g>
       <use xlink:href="#m8156cfcf16" x="216.467888" y="195.795353" style="stroke: #000000; stroke-width: 0.8"/>
      </g>
     </g>
    </g>
    <g id="xtick_16">
     <g id="line2d_20">
      <g>
       <use xlink:href="#m8156cfcf16" x="248.446868" y="195.795353" style="stroke: #000000; stroke-width: 0.8"/>
      </g>
     </g>
    </g>
    <g id="xtick_17">
     <g id="line2d_21">
      <g>
       <use xlink:href="#m8156cfcf16" x="280.425848" y="195.795353" style="stroke: #000000; stroke-width: 0.8"/>
      </g>
     </g>
    </g>
    <g id="xtick_18">
     <g id="line2d_22">
      <g>
       <use xlink:href="#m8156cfcf16" x="312.404827" y="195.795353" style="stroke: #000000; stroke-width: 0.8"/>
      </g>
     </g>
    </g>
   </g>
   <g id="matplotlib.axis_4">
    <g id="ytick_4">
     <g id="line2d_23">
      <g>
       <use xlink:href="#m656a81b73f" x="43.78125" y="191.725015" style="stroke: #000000; stroke-width: 0.8"/>
      </g>
     </g>
     <g id="text_5">
      <!-- 0 -->
      <g transform="translate(30.41875 195.524234) scale(0.1 -0.1)">
       <use xlink:href="#DejaVuSans-30"/>
      </g>
     </g>
    </g>
    <g id="ytick_5">
     <g id="line2d_24">
      <g>
       <use xlink:href="#m656a81b73f" x="43.78125" y="151.021635" style="stroke: #000000; stroke-width: 0.8"/>
      </g>
     </g>
     <g id="text_6">
      <!-- 5 -->
      <g transform="translate(30.41875 154.820854) scale(0.1 -0.1)">
       <use xlink:href="#DejaVuSans-35"/>
      </g>
     </g>
    </g>
    <g id="ytick_6">
     <g id="line2d_25">
      <g>
       <use xlink:href="#m656a81b73f" x="43.78125" y="110.318255" style="stroke: #000000; stroke-width: 0.8"/>
      </g>
     </g>
     <g id="text_7">
      <!-- 10 -->
      <g transform="translate(24.05625 114.117473) scale(0.1 -0.1)">
       <use xlink:href="#DejaVuSans-31"/>
       <use xlink:href="#DejaVuSans-30" transform="translate(63.623047 0)"/>
      </g>
     </g>
    </g>
    <g id="text_8">
     <!-- LacY -->
     <g transform="translate(17.976563 162.67476) rotate(-90) scale(0.1 -0.1)">
      <defs>
       <path id="DejaVuSans-4c" d="M 628 4666 
L 1259 4666 
L 1259 531 
L 3531 531 
L 3531 0 
L 628 0 
L 628 4666 
z
" transform="scale(0.015625)"/>
       <path id="DejaVuSans-59" d="M -13 4666 
L 666 4666 
L 1959 2747 
L 3244 4666 
L 3922 4666 
L 2272 2222 
L 2272 0 
L 1638 0 
L 1638 2222 
L -13 4666 
z
" transform="scale(0.015625)"/>
      </defs>
      <use xlink:href="#DejaVuSans-4c"/>
      <use xlink:href="#DejaVuSans-61" transform="translate(55.712891 0)"/>
      <use xlink:href="#DejaVuSans-63" transform="translate(116.992188 0)"/>
      <use xlink:href="#DejaVuSans-59" transform="translate(171.972656 0)"/>
     </g>
    </g>
   </g>
   <g id="line2d_26">
    <path d="M 56.57299 110.318255 
L 56.600173 110.318255 
L 56.654781 118.458931 
L 56.763171 134.740283 
L 56.823638 142.880959 
L 56.97606 142.880959 
L 56.993793 134.740283 
L 57.214839 142.880959 
L 57.356998 142.880959 
L 57.528002 159.162311 
L 57.829527 175.443663 
L 57.895282 191.725015 
L 59.428441 191.725015 
L 59.595407 183.584339 
L 59.638238 191.725015 
L 64.671217 191.725015 
L 64.994842 183.584339 
L 65.105023 191.725015 
L 82.637461 191.725015 
L 82.832271 183.584339 
L 84.629303 191.725015 
L 84.644159 183.584339 
L 84.787662 175.443663 
L 84.792327 167.302987 
L 85.115156 175.443663 
L 85.34259 175.443663 
L 85.462472 191.725015 
L 85.523418 183.584339 
L 85.71404 183.584339 
L 85.852812 191.725015 
L 89.753114 191.725015 
L 90.143722 175.443663 
L 90.145026 167.302987 
L 90.644697 167.302987 
L 90.683445 183.584339 
L 91.457191 183.584339 
L 91.626466 175.443663 
L 91.971471 191.725015 
L 109.011931 191.725015 
L 109.117848 183.584339 
L 109.237804 183.584339 
L 109.377186 191.725015 
L 109.612676 191.725015 
L 109.654248 183.584339 
L 110.071075 183.584339 
L 110.421732 175.443663 
L 110.480202 183.584339 
L 110.655835 183.584339 
L 110.685475 191.725015 
L 119.463467 191.725015 
L 119.642269 183.584339 
L 121.746978 183.584339 
L 123.598373 191.725015 
L 131.382904 191.725015 
L 131.569567 183.584339 
L 131.857741 183.584339 
L 131.965747 191.725015 
L 136.31079 191.725015 
L 136.394698 183.584339 
L 136.416611 191.725015 
L 146.430597 191.725015 
L 146.691998 175.443663 
L 146.712874 183.584339 
L 146.741944 175.443663 
L 146.855297 167.302987 
L 146.860649 175.443663 
L 147.446641 175.443663 
L 148.065141 183.584339 
L 148.310998 183.584339 
L 148.626936 175.443663 
L 148.740062 175.443663 
L 149.814271 191.725015 
L 150.275429 191.725015 
L 150.327421 175.443663 
L 150.428512 175.443663 
L 150.581672 183.584339 
L 150.715678 183.584339 
L 151.25975 191.725015 
L 156.389183 191.725015 
L 156.818386 183.584339 
L 157.059195 151.021635 
L 157.343132 151.021635 
L 157.46118 167.302987 
L 157.494149 167.302987 
L 157.607073 159.162311 
L 157.735117 159.162311 
L 157.847906 175.443663 
L 158.071603 175.443663 
L 158.186388 183.584339 
L 158.319367 167.302987 
L 158.370251 167.302987 
L 158.408274 159.162311 
L 158.469692 167.302987 
L 158.644897 167.302987 
L 158.749971 175.443663 
L 158.988825 175.443663 
L 159.093991 191.725015 
L 159.138207 191.725015 
L 159.280854 175.443663 
L 159.442793 175.443663 
L 159.552881 167.302987 
L 159.569152 167.302987 
L 159.699184 159.162311 
L 159.818215 159.162311 
L 159.926804 151.021635 
L 160.06246 151.021635 
L 160.170995 159.162311 
L 160.275938 151.021635 
L 160.281901 159.162311 
L 160.351475 159.162311 
L 160.456584 167.302987 
L 160.669295 167.302987 
L 160.772195 175.443663 
L 160.816406 175.443663 
L 160.839877 167.302987 
L 160.906434 175.443663 
L 161.166516 175.443663 
L 161.262312 191.725015 
L 161.470113 191.725015 
L 161.601879 183.584339 
L 161.923102 183.584339 
L 161.972442 191.725015 
L 162.46188 191.725015 
L 162.56493 183.584339 
L 162.611193 183.584339 
L 162.696883 191.725015 
L 162.737606 191.725015 
L 162.858174 183.584339 
L 162.953258 183.584339 
L 163.039211 191.725015 
L 163.310647 191.725015 
L 163.433794 183.584339 
L 163.481167 183.584339 
L 163.600614 191.725015 
L 163.927677 191.725015 
L 164.289195 175.443663 
L 164.377735 183.584339 
L 164.588627 183.584339 
L 164.713006 167.302987 
L 164.749032 175.443663 
L 164.836005 175.443663 
L 164.896788 183.584339 
L 164.919913 175.443663 
L 164.972583 175.443663 
L 165.086247 167.302987 
L 165.229189 167.302987 
L 165.329704 183.584339 
L 165.340221 175.443663 
L 165.446231 175.443663 
L 165.683383 167.302987 
L 166.159301 167.302987 
L 166.275632 175.443663 
L 166.286538 175.443663 
L 166.391844 183.584339 
L 167.154397 183.584339 
L 167.200261 175.443663 
L 167.259411 183.584339 
L 168.66316 183.584339 
L 168.692761 191.725015 
L 174.002567 191.725015 
L 174.147353 183.584339 
L 174.714878 183.584339 
L 174.79418 175.443663 
L 174.972371 175.443663 
L 175.085289 167.302987 
L 175.181292 175.443663 
L 175.303375 175.443663 
L 175.40591 167.302987 
L 175.580874 167.302987 
L 175.677766 159.162311 
L 175.691351 167.302987 
L 176.00108 167.302987 
L 176.091248 151.021635 
L 176.138143 159.162311 
L 176.166208 159.162311 
L 176.276805 151.021635 
L 176.424975 151.021635 
L 176.537246 142.880959 
L 176.657387 142.880959 
L 176.765619 159.162311 
L 176.844698 159.162311 
L 176.955847 175.443663 
L 177.067739 175.443663 
L 177.155015 159.162311 
L 177.202435 167.302987 
L 177.215407 167.302987 
L 177.337481 175.443663 
L 177.69996 175.443663 
L 177.800646 191.725015 
L 177.997109 191.725015 
L 178.09485 183.584339 
L 178.135405 183.584339 
L 178.238967 191.725015 
L 178.350212 191.725015 
L 178.596144 183.584339 
L 178.777683 183.584339 
L 178.87627 175.443663 
L 178.918087 175.443663 
L 179.044395 159.162311 
L 179.456193 159.162311 
L 179.524017 151.021635 
L 179.671452 151.021635 
L 179.802888 134.740283 
L 180.018646 134.740283 
L 180.113435 151.021635 
L 180.203356 151.021635 
L 180.31229 159.162311 
L 180.559893 159.162311 
L 180.657794 142.880959 
L 180.670955 151.021635 
L 180.713484 151.021635 
L 180.82824 134.740283 
L 180.832722 134.740283 
L 180.933424 151.021635 
L 180.985391 151.021635 
L 181.1041 142.880959 
L 181.193978 142.880959 
L 181.308675 151.021635 
L 181.450649 151.021635 
L 181.557756 175.443663 
L 181.616516 175.443663 
L 181.747962 159.162311 
L 181.894338 159.162311 
L 182.000878 167.302987 
L 182.349272 167.302987 
L 182.460757 175.443663 
L 182.513292 175.443663 
L 182.607882 167.302987 
L 182.616036 175.443663 
L 182.653843 175.443663 
L 182.717886 183.584339 
L 183.001748 183.584339 
L 183.02283 175.443663 
L 183.091463 183.584339 
L 183.278819 183.584339 
L 183.549474 191.725015 
L 184.23414 191.725015 
L 184.259926 175.443663 
L 184.389693 175.443663 
L 184.518656 183.584339 
L 184.639562 175.443663 
L 184.767535 191.725015 
L 185.350435 191.725015 
L 185.459552 183.584339 
L 185.570679 191.725015 
L 185.851551 175.443663 
L 185.897405 183.584339 
L 185.956432 175.443663 
L 186.302484 175.443663 
L 186.418218 167.302987 
L 186.441701 167.302987 
L 186.548799 151.021635 
L 186.719766 151.021635 
L 186.824378 159.162311 
L 186.862797 159.162311 
L 186.925177 167.302987 
L 186.988066 159.162311 
L 187.011806 167.302987 
L 187.202755 167.302987 
L 187.343556 183.584339 
L 187.647982 183.584339 
L 187.726604 175.443663 
L 187.729489 183.584339 
L 187.822007 183.584339 
L 187.989601 167.302987 
L 188.064019 167.302987 
L 188.17877 159.162311 
L 188.252532 159.162311 
L 188.354038 175.443663 
L 188.383404 175.443663 
L 188.465964 183.584339 
L 188.554566 183.584339 
L 188.685898 167.302987 
L 188.736928 167.302987 
L 188.782106 151.021635 
L 188.866094 159.162311 
L 188.940009 167.302987 
L 188.943117 159.162311 
L 189.04492 151.021635 
L 189.237008 151.021635 
L 189.332189 159.162311 
L 189.518097 159.162311 
L 189.55156 167.302987 
L 189.59803 151.021635 
L 189.829321 151.021635 
L 189.940019 142.880959 
L 190.136229 159.162311 
L 190.362661 159.162311 
L 190.492104 151.021635 
L 190.566853 151.021635 
L 190.678836 159.162311 
L 190.681939 151.021635 
L 190.723055 167.302987 
L 190.77399 167.302987 
L 190.833416 167.302987 
L 190.902054 175.443663 
L 190.908436 167.302987 
L 191.275807 167.302987 
L 191.384654 175.443663 
L 191.68496 175.443663 
L 191.779058 167.302987 
L 191.832725 167.302987 
L 191.896147 159.162311 
L 191.936774 167.302987 
L 192.092253 167.302987 
L 192.148222 159.162311 
L 192.195457 167.302987 
L 192.260713 167.302987 
L 192.327005 159.162311 
L 192.489893 159.162311 
L 192.598621 167.302987 
L 192.725837 175.443663 
L 192.76585 175.443663 
L 192.836275 167.302987 
L 193.028749 167.302987 
L 193.099853 183.584339 
L 193.242797 167.302987 
L 193.244481 175.443663 
L 193.261291 175.443663 
L 193.362934 183.584339 
L 193.438185 183.584339 
L 193.662886 167.302987 
L 193.696073 167.302987 
L 193.738985 159.162311 
L 193.783208 175.443663 
L 193.89023 175.443663 
L 193.911638 167.302987 
L 193.963115 175.443663 
L 194.060269 175.443663 
L 194.211536 159.162311 
L 194.309566 167.302987 
L 194.330392 159.162311 
L 194.403219 167.302987 
L 194.509989 183.584339 
L 194.824077 183.584339 
L 194.923746 175.443663 
L 195.086802 183.584339 
L 195.459758 183.584339 
L 195.579749 191.725015 
L 195.800716 191.725015 
L 195.870891 183.584339 
L 198.688113 183.584339 
L 198.930815 191.725015 
L 200.046791 191.725015 
L 200.770215 183.584339 
L 201.006064 167.302987 
L 201.017996 175.443663 
L 201.101788 167.302987 
L 201.288174 183.584339 
L 201.450679 183.584339 
L 201.486581 175.443663 
L 201.495318 183.584339 
L 201.56927 183.584339 
L 201.901886 191.725015 
L 202.073475 191.725015 
L 202.225163 151.021635 
L 202.248597 159.162311 
L 202.423369 159.162311 
L 202.462464 167.302987 
L 202.477114 159.162311 
L 202.646583 151.021635 
L 202.663505 151.021635 
L 202.76592 142.880959 
L 202.8412 142.880959 
L 203.184324 159.162311 
L 203.212765 159.162311 
L 203.298323 175.443663 
L 203.548222 175.443663 
L 203.622289 183.584339 
L 203.751521 175.443663 
L 204.133424 175.443663 
L 204.263958 183.584339 
L 205.106287 183.584339 
L 205.256866 175.443663 
L 205.377897 175.443663 
L 205.436702 167.302987 
L 205.576966 167.302987 
L 205.697213 175.443663 
L 205.705552 167.302987 
L 205.709645 175.443663 
L 205.869496 175.443663 
L 205.975356 167.302987 
L 206.075096 183.584339 
L 206.10508 175.443663 
L 206.329063 175.443663 
L 206.39746 191.725015 
L 206.544183 191.725015 
L 206.655309 167.302987 
L 206.775714 175.443663 
L 207.001784 175.443663 
L 207.086348 167.302987 
L 207.301176 167.302987 
L 207.340517 142.880959 
L 207.45284 151.021635 
L 207.536306 142.880959 
L 207.551857 151.021635 
L 207.576829 151.021635 
L 207.683888 142.880959 
L 207.697025 142.880959 
L 207.762512 151.021635 
L 207.803019 142.880959 
L 207.964786 167.302987 
L 208.008321 167.302987 
L 208.057142 159.162311 
L 208.144607 167.302987 
L 208.476308 167.302987 
L 208.578219 175.443663 
L 208.673439 175.443663 
L 208.832978 159.162311 
L 209.133098 151.021635 
L 209.193764 151.021635 
L 209.2664 134.740283 
L 209.364639 134.740283 
L 209.475618 159.162311 
L 209.579089 151.021635 
L 209.683309 159.162311 
L 209.787215 167.302987 
L 209.966557 167.302987 
L 209.986023 175.443663 
L 210.033633 159.162311 
L 210.172004 167.302987 
L 210.318435 167.302987 
L 210.422691 175.443663 
L 210.768528 175.443663 
L 210.915378 183.584339 
L 211.084873 175.443663 
L 211.158625 183.584339 
L 211.393136 167.302987 
L 211.416561 175.443663 
L 211.473842 167.302987 
L 211.572635 167.302987 
L 211.577769 175.443663 
L 211.716898 175.443663 
L 211.820008 167.302987 
L 212.012716 175.443663 
L 212.325616 175.443663 
L 212.390507 183.584339 
L 212.780731 167.302987 
L 212.813587 167.302987 
L 212.911979 159.162311 
L 213.254548 175.443663 
L 213.690856 175.443663 
L 213.977012 183.584339 
L 214.185946 175.443663 
L 214.256246 167.302987 
L 214.548207 159.162311 
L 214.668535 159.162311 
L 214.751852 151.021635 
L 214.759482 159.162311 
L 214.846099 159.162311 
L 215.0441 175.443663 
L 215.162831 167.302987 
L 215.277237 183.584339 
L 215.382919 167.302987 
L 215.417279 175.443663 
L 215.479579 175.443663 
L 215.522437 167.302987 
L 215.621707 167.302987 
L 215.7367 175.443663 
L 215.885389 167.302987 
L 215.903892 175.443663 
L 216.05508 175.443663 
L 216.194725 183.584339 
L 216.330552 183.584339 
L 216.477772 191.725015 
L 217.312555 183.584339 
L 217.548343 175.443663 
L 217.660066 183.584339 
L 217.679938 183.584339 
L 217.714964 191.725015 
L 218.210742 183.584339 
L 218.354041 175.443663 
L 218.661217 175.443663 
L 218.810495 167.302987 
L 218.873374 167.302987 
L 218.967416 175.443663 
L 219.068397 183.584339 
L 219.200701 183.584339 
L 219.397581 175.443663 
L 219.86744 175.443663 
L 219.970848 183.584339 
L 219.977907 175.443663 
L 220.10646 159.162311 
L 220.298325 167.302987 
L 220.389459 159.162311 
L 220.727023 159.162311 
L 220.823944 175.443663 
L 220.852914 167.302987 
L 221.00909 159.162311 
L 221.308588 159.162311 
L 221.502617 175.443663 
L 221.948303 175.443663 
L 221.990095 167.302987 
L 222.149495 175.443663 
L 222.587307 175.443663 
L 222.685307 167.302987 
L 222.691796 175.443663 
L 222.802626 175.443663 
L 222.805673 183.584339 
L 223.068706 175.443663 
L 223.718259 175.443663 
L 223.808998 191.725015 
L 223.948565 183.584339 
L 224.0198 183.584339 
L 224.037936 191.725015 
L 224.662064 191.725015 
L 224.731855 183.584339 
L 225.07313 183.584339 
L 225.382199 175.443663 
L 225.446552 175.443663 
L 225.454872 167.302987 
L 225.506331 183.584339 
L 225.515767 183.584339 
L 225.715667 175.443663 
L 225.811277 183.584339 
L 225.979341 175.443663 
L 226.085345 159.162311 
L 226.113599 167.302987 
L 226.182698 167.302987 
L 226.234555 159.162311 
L 226.461756 175.443663 
L 226.570712 175.443663 
L 226.661236 183.584339 
L 227.128631 183.584339 
L 228.42408 191.725015 
L 228.897267 191.725015 
L 229.548763 183.584339 
L 229.557926 183.584339 
L 229.643256 191.725015 
L 230.004065 191.725015 
L 230.230629 183.584339 
L 230.431581 183.584339 
L 230.636409 175.443663 
L 230.677301 167.302987 
L 230.984244 167.302987 
L 231.030781 175.443663 
L 231.368727 175.443663 
L 231.520912 183.584339 
L 231.911776 183.584339 
L 232.084555 191.725015 
L 232.190657 191.725015 
L 232.812119 183.584339 
L 233.010724 167.302987 
L 233.05083 175.443663 
L 233.259027 191.725015 
L 233.368661 183.584339 
L 233.811803 183.584339 
L 234.550834 191.725015 
L 236.249498 191.725015 
L 236.315732 183.584339 
L 236.505767 175.443663 
L 236.590979 167.302987 
L 236.810028 175.443663 
L 237.048271 183.584339 
L 237.651212 183.584339 
L 237.784271 191.725015 
L 238.011092 183.584339 
L 238.021942 191.725015 
L 242.905666 191.725015 
L 243.353036 175.443663 
L 243.57942 175.443663 
L 244.334989 183.584339 
L 244.457726 191.725015 
L 245.949331 191.725015 
L 246.104047 175.443663 
L 246.470522 183.584339 
L 246.546158 183.584339 
L 246.739662 191.725015 
L 254.196923 191.725015 
L 254.198521 183.584339 
L 254.680961 183.584339 
L 254.951878 167.302987 
L 255.138252 175.443663 
L 255.208725 175.443663 
L 255.343738 183.584339 
L 255.448734 183.584339 
L 255.490212 175.443663 
L 255.665059 183.584339 
L 255.833488 183.584339 
L 256.108337 175.443663 
L 256.255536 159.162311 
L 256.364283 151.021635 
L 256.365197 159.162311 
L 256.395934 159.162311 
L 256.459888 167.302987 
L 256.661585 167.302987 
L 256.668218 175.443663 
L 256.838273 191.725015 
L 276.110558 191.725015 
L 276.277479 183.584339 
L 276.700962 183.584339 
L 277.241729 191.725015 
L 279.586668 191.725015 
L 279.650189 183.584339 
L 279.83106 175.443663 
L 279.839065 183.584339 
L 280.009785 183.584339 
L 280.188081 191.725015 
L 285.560695 191.725015 
L 285.723703 183.584339 
L 285.940586 183.584339 
L 286.006463 191.725015 
L 287.532233 191.725015 
L 287.799844 183.584339 
L 287.914806 183.584339 
L 288.021418 175.443663 
L 288.569506 175.443663 
L 288.796871 183.584339 
L 288.928573 191.725015 
L 290.781845 191.725015 
L 291.075677 175.443663 
L 291.175952 183.584339 
L 291.484221 159.162311 
L 291.499302 167.302987 
L 291.548225 167.302987 
L 291.783812 175.443663 
L 291.894148 167.302987 
L 292.191135 183.584339 
L 292.395671 183.584339 
L 292.502255 191.725015 
L 300.268195 191.725015 
L 300.313192 183.584339 
L 300.543925 175.443663 
L 300.720016 183.584339 
L 301.108534 183.584339 
L 301.315294 167.302987 
L 301.430043 191.725015 
L 302.499276 191.725015 
L 302.722308 183.584339 
L 302.889523 191.725015 
L 311.593513 191.725015 
L 312.122725 183.584339 
L 312.273721 167.302987 
L 312.306525 167.302987 
L 312.40778 175.443663 
L 312.40778 175.443663 
" clip-path="url(#p00b7ea9ed5)" style="fill: none; stroke: #000000; stroke-width: 1.5; stroke-linecap: square"/>
   </g>
   <g id="patch_8">
    <path d="M 43.78125 195.795353 
L 43.78125 106.247917 
" style="fill: none; stroke: #000000; stroke-width: 0.8; stroke-linejoin: miter; stroke-linecap: square"/>
   </g>
   <g id="patch_9">
    <path d="M 325.19952 195.795353 
L 325.19952 106.247917 
" style="fill: none; stroke: #000000; stroke-width: 0.8; stroke-linejoin: miter; stroke-linecap: square"/>
   </g>
   <g id="patch_10">
    <path d="M 43.78125 195.795353 
L 325.19952 195.795353 
" style="fill: none; stroke: #000000; stroke-width: 0.8; stroke-linejoin: miter; stroke-linecap: square"/>
   </g>
   <g id="patch_11">
    <path d="M 43.78125 106.247917 
L 325.19952 106.247917 
" style="fill: none; stroke: #000000; stroke-width: 0.8; stroke-linejoin: miter; stroke-linecap: square"/>
   </g>
  </g>
  <g id="axes_3">
   <g id="patch_12">
    <path d="M 43.78125 294.84327 
L 325.19952 294.84327 
L 325.19952 205.295833 
L 43.78125 205.295833 
z
" style="fill: #ffffff"/>
   </g>
   <g id="matplotlib.axis_5">
    <g id="xtick_19">
     <g id="line2d_27">
      <g>
       <use xlink:href="#m8156cfcf16" x="56.57299" y="294.84327" style="stroke: #000000; stroke-width: 0.8"/>
      </g>
     </g>
     <g id="text_9">
      <!-- 0 -->
      <g transform="translate(53.39174 309.441707) scale(0.1 -0.1)">
       <use xlink:href="#DejaVuSans-30"/>
      </g>
     </g>
    </g>
    <g id="xtick_20">
     <g id="line2d_28">
      <g>
       <use xlink:href="#m8156cfcf16" x="88.551969" y="294.84327" style="stroke: #000000; stroke-width: 0.8"/>
      </g>
     </g>
     <g id="text_10">
      <!-- 100 -->
      <g transform="translate(79.008219 309.441707) scale(0.1 -0.1)">
       <use xlink:href="#DejaVuSans-31"/>
       <use xlink:href="#DejaVuSans-30" transform="translate(63.623047 0)"/>
       <use xlink:href="#DejaVuSans-30" transform="translate(127.246094 0)"/>
      </g>
     </g>
    </g>
    <g id="xtick_21">
     <g id="line2d_29">
      <g>
       <use xlink:href="#m8156cfcf16" x="120.530949" y="294.84327" style="stroke: #000000; stroke-width: 0.8"/>
      </g>
     </g>
     <g id="text_11">
      <!-- 200 -->
      <g transform="translate(110.987199 309.441707) scale(0.1 -0.1)">
       <defs>
        <path id="DejaVuSans-32" d="M 1228 531 
L 3431 531 
L 3431 0 
L 469 0 
L 469 531 
Q 828 903 1448 1529 
Q 2069 2156 2228 2338 
Q 2531 2678 2651 2914 
Q 2772 3150 2772 3378 
Q 2772 3750 2511 3984 
Q 2250 4219 1831 4219 
Q 1534 4219 1204 4116 
Q 875 4013 500 3803 
L 500 4441 
Q 881 4594 1212 4672 
Q 1544 4750 1819 4750 
Q 2544 4750 2975 4387 
Q 3406 4025 3406 3419 
Q 3406 3131 3298 2873 
Q 3191 2616 2906 2266 
Q 2828 2175 2409 1742 
Q 1991 1309 1228 531 
z
" transform="scale(0.015625)"/>
       </defs>
       <use xlink:href="#DejaVuSans-32"/>
       <use xlink:href="#DejaVuSans-30" transform="translate(63.623047 0)"/>
       <use xlink:href="#DejaVuSans-30" transform="translate(127.246094 0)"/>
      </g>
     </g>
    </g>
    <g id="xtick_22">
     <g id="line2d_30">
      <g>
       <use xlink:href="#m8156cfcf16" x="152.509929" y="294.84327" style="stroke: #000000; stroke-width: 0.8"/>
      </g>
     </g>
     <g id="text_12">
      <!-- 300 -->
      <g transform="translate(142.966179 309.441707) scale(0.1 -0.1)">
       <defs>
        <path id="DejaVuSans-33" d="M 2597 2516 
Q 3050 2419 3304 2112 
Q 3559 1806 3559 1356 
Q 3559 666 3084 287 
Q 2609 -91 1734 -91 
Q 1441 -91 1130 -33 
Q 819 25 488 141 
L 488 750 
Q 750 597 1062 519 
Q 1375 441 1716 441 
Q 2309 441 2620 675 
Q 2931 909 2931 1356 
Q 2931 1769 2642 2001 
Q 2353 2234 1838 2234 
L 1294 2234 
L 1294 2753 
L 1863 2753 
Q 2328 2753 2575 2939 
Q 2822 3125 2822 3475 
Q 2822 3834 2567 4026 
Q 2313 4219 1838 4219 
Q 1578 4219 1281 4162 
Q 984 4106 628 3988 
L 628 4550 
Q 988 4650 1302 4700 
Q 1616 4750 1894 4750 
Q 2613 4750 3031 4423 
Q 3450 4097 3450 3541 
Q 3450 3153 3228 2886 
Q 3006 2619 2597 2516 
z
" transform="scale(0.015625)"/>
       </defs>
       <use xlink:href="#DejaVuSans-33"/>
       <use xlink:href="#DejaVuSans-30" transform="translate(63.623047 0)"/>
       <use xlink:href="#DejaVuSans-30" transform="translate(127.246094 0)"/>
      </g>
     </g>
    </g>
    <g id="xtick_23">
     <g id="line2d_31">
      <g>
       <use xlink:href="#m8156cfcf16" x="184.488908" y="294.84327" style="stroke: #000000; stroke-width: 0.8"/>
      </g>
     </g>
     <g id="text_13">
      <!-- 400 -->
      <g transform="translate(174.945158 309.441707) scale(0.1 -0.1)">
       <defs>
        <path id="DejaVuSans-34" d="M 2419 4116 
L 825 1625 
L 2419 1625 
L 2419 4116 
z
M 2253 4666 
L 3047 4666 
L 3047 1625 
L 3713 1625 
L 3713 1100 
L 3047 1100 
L 3047 0 
L 2419 0 
L 2419 1100 
L 313 1100 
L 313 1709 
L 2253 4666 
z
" transform="scale(0.015625)"/>
       </defs>
       <use xlink:href="#DejaVuSans-34"/>
       <use xlink:href="#DejaVuSans-30" transform="translate(63.623047 0)"/>
       <use xlink:href="#DejaVuSans-30" transform="translate(127.246094 0)"/>
      </g>
     </g>
    </g>
    <g id="xtick_24">
     <g id="line2d_32">
      <g>
       <use xlink:href="#m8156cfcf16" x="216.467888" y="294.84327" style="stroke: #000000; stroke-width: 0.8"/>
      </g>
     </g>
     <g id="text_14">
      <!-- 500 -->
      <g transform="translate(206.924138 309.441707) scale(0.1 -0.1)">
       <use xlink:href="#DejaVuSans-35"/>
       <use xlink:href="#DejaVuSans-30" transform="translate(63.623047 0)"/>
       <use xlink:href="#DejaVuSans-30" transform="translate(127.246094 0)"/>
      </g>
     </g>
    </g>
    <g id="xtick_25">
     <g id="line2d_33">
      <g>
       <use xlink:href="#m8156cfcf16" x="248.446868" y="294.84327" style="stroke: #000000; stroke-width: 0.8"/>
      </g>
     </g>
     <g id="text_15">
      <!-- 600 -->
      <g transform="translate(238.903118 309.441707) scale(0.1 -0.1)">
       <defs>
        <path id="DejaVuSans-36" d="M 2113 2584 
Q 1688 2584 1439 2293 
Q 1191 2003 1191 1497 
Q 1191 994 1439 701 
Q 1688 409 2113 409 
Q 2538 409 2786 701 
Q 3034 994 3034 1497 
Q 3034 2003 2786 2293 
Q 2538 2584 2113 2584 
z
M 3366 4563 
L 3366 3988 
Q 3128 4100 2886 4159 
Q 2644 4219 2406 4219 
Q 1781 4219 1451 3797 
Q 1122 3375 1075 2522 
Q 1259 2794 1537 2939 
Q 1816 3084 2150 3084 
Q 2853 3084 3261 2657 
Q 3669 2231 3669 1497 
Q 3669 778 3244 343 
Q 2819 -91 2113 -91 
Q 1303 -91 875 529 
Q 447 1150 447 2328 
Q 447 3434 972 4092 
Q 1497 4750 2381 4750 
Q 2619 4750 2861 4703 
Q 3103 4656 3366 4563 
z
" transform="scale(0.015625)"/>
       </defs>
       <use xlink:href="#DejaVuSans-36"/>
       <use xlink:href="#DejaVuSans-30" transform="translate(63.623047 0)"/>
       <use xlink:href="#DejaVuSans-30" transform="translate(127.246094 0)"/>
      </g>
     </g>
    </g>
    <g id="xtick_26">
     <g id="line2d_34">
      <g>
       <use xlink:href="#m8156cfcf16" x="280.425848" y="294.84327" style="stroke: #000000; stroke-width: 0.8"/>
      </g>
     </g>
     <g id="text_16">
      <!-- 700 -->
      <g transform="translate(270.882098 309.441707) scale(0.1 -0.1)">
       <defs>
        <path id="DejaVuSans-37" d="M 525 4666 
L 3525 4666 
L 3525 4397 
L 1831 0 
L 1172 0 
L 2766 4134 
L 525 4134 
L 525 4666 
z
" transform="scale(0.015625)"/>
       </defs>
       <use xlink:href="#DejaVuSans-37"/>
       <use xlink:href="#DejaVuSans-30" transform="translate(63.623047 0)"/>
       <use xlink:href="#DejaVuSans-30" transform="translate(127.246094 0)"/>
      </g>
     </g>
    </g>
    <g id="xtick_27">
     <g id="line2d_35">
      <g>
       <use xlink:href="#m8156cfcf16" x="312.404827" y="294.84327" style="stroke: #000000; stroke-width: 0.8"/>
      </g>
     </g>
     <g id="text_17">
      <!-- 800 -->
      <g transform="translate(302.861077 309.441707) scale(0.1 -0.1)">
       <defs>
        <path id="DejaVuSans-38" d="M 2034 2216 
Q 1584 2216 1326 1975 
Q 1069 1734 1069 1313 
Q 1069 891 1326 650 
Q 1584 409 2034 409 
Q 2484 409 2743 651 
Q 3003 894 3003 1313 
Q 3003 1734 2745 1975 
Q 2488 2216 2034 2216 
z
M 1403 2484 
Q 997 2584 770 2862 
Q 544 3141 544 3541 
Q 544 4100 942 4425 
Q 1341 4750 2034 4750 
Q 2731 4750 3128 4425 
Q 3525 4100 3525 3541 
Q 3525 3141 3298 2862 
Q 3072 2584 2669 2484 
Q 3125 2378 3379 2068 
Q 3634 1759 3634 1313 
Q 3634 634 3220 271 
Q 2806 -91 2034 -91 
Q 1263 -91 848 271 
Q 434 634 434 1313 
Q 434 1759 690 2068 
Q 947 2378 1403 2484 
z
M 1172 3481 
Q 1172 3119 1398 2916 
Q 1625 2713 2034 2713 
Q 2441 2713 2670 2916 
Q 2900 3119 2900 3481 
Q 2900 3844 2670 4047 
Q 2441 4250 2034 4250 
Q 1625 4250 1398 4047 
Q 1172 3844 1172 3481 
z
" transform="scale(0.015625)"/>
       </defs>
       <use xlink:href="#DejaVuSans-38"/>
       <use xlink:href="#DejaVuSans-30" transform="translate(63.623047 0)"/>
       <use xlink:href="#DejaVuSans-30" transform="translate(127.246094 0)"/>
      </g>
     </g>
    </g>
    <g id="text_18">
     <!-- Time -->
     <g transform="translate(172.256791 323.119832) scale(0.1 -0.1)">
      <defs>
       <path id="DejaVuSans-54" d="M -19 4666 
L 3928 4666 
L 3928 4134 
L 2272 4134 
L 2272 0 
L 1638 0 
L 1638 4134 
L -19 4134 
L -19 4666 
z
" transform="scale(0.015625)"/>
       <path id="DejaVuSans-69" d="M 603 3500 
L 1178 3500 
L 1178 0 
L 603 0 
L 603 3500 
z
M 603 4863 
L 1178 4863 
L 1178 4134 
L 603 4134 
L 603 4863 
z
" transform="scale(0.015625)"/>
       <path id="DejaVuSans-6d" d="M 3328 2828 
Q 3544 3216 3844 3400 
Q 4144 3584 4550 3584 
Q 5097 3584 5394 3201 
Q 5691 2819 5691 2113 
L 5691 0 
L 5113 0 
L 5113 2094 
Q 5113 2597 4934 2840 
Q 4756 3084 4391 3084 
Q 3944 3084 3684 2787 
Q 3425 2491 3425 1978 
L 3425 0 
L 2847 0 
L 2847 2094 
Q 2847 2600 2669 2842 
Q 2491 3084 2119 3084 
Q 1678 3084 1418 2786 
Q 1159 2488 1159 1978 
L 1159 0 
L 581 0 
L 581 3500 
L 1159 3500 
L 1159 2956 
Q 1356 3278 1631 3431 
Q 1906 3584 2284 3584 
Q 2666 3584 2933 3390 
Q 3200 3197 3328 2828 
z
" transform="scale(0.015625)"/>
      </defs>
      <use xlink:href="#DejaVuSans-54"/>
      <use xlink:href="#DejaVuSans-69" transform="translate(57.958984 0)"/>
      <use xlink:href="#DejaVuSans-6d" transform="translate(85.742188 0)"/>
      <use xlink:href="#DejaVuSans-65" transform="translate(183.154297 0)"/>
     </g>
    </g>
   </g>
   <g id="matplotlib.axis_6">
    <g id="ytick_7">
     <g id="line2d_36">
      <g>
       <use xlink:href="#m656a81b73f" x="43.78125" y="290.772932" style="stroke: #000000; stroke-width: 0.8"/>
      </g>
     </g>
     <g id="text_19">
      <!-- 0.0 -->
      <g transform="translate(20.878125 294.572151) scale(0.1 -0.1)">
       <defs>
        <path id="DejaVuSans-2e" d="M 684 794 
L 1344 794 
L 1344 0 
L 684 0 
L 684 794 
z
" transform="scale(0.015625)"/>
       </defs>
       <use xlink:href="#DejaVuSans-30"/>
       <use xlink:href="#DejaVuSans-2e" transform="translate(63.623047 0)"/>
       <use xlink:href="#DejaVuSans-30" transform="translate(95.410156 0)"/>
      </g>
     </g>
    </g>
    <g id="ytick_8">
     <g id="line2d_37">
      <g>
       <use xlink:href="#m656a81b73f" x="43.78125" y="250.069552" style="stroke: #000000; stroke-width: 0.8"/>
      </g>
     </g>
     <g id="text_20">
      <!-- 0.5 -->
      <g transform="translate(20.878125 253.86877) scale(0.1 -0.1)">
       <use xlink:href="#DejaVuSans-30"/>
       <use xlink:href="#DejaVuSans-2e" transform="translate(63.623047 0)"/>
       <use xlink:href="#DejaVuSans-35" transform="translate(95.410156 0)"/>
      </g>
     </g>
    </g>
    <g id="ytick_9">
     <g id="line2d_38">
      <g>
       <use xlink:href="#m656a81b73f" x="43.78125" y="209.366171" style="stroke: #000000; stroke-width: 0.8"/>
      </g>
     </g>
     <g id="text_21">
      <!-- 1.0 -->
      <g transform="translate(20.878125 213.16539) scale(0.1 -0.1)">
       <use xlink:href="#DejaVuSans-31"/>
       <use xlink:href="#DejaVuSans-2e" transform="translate(63.623047 0)"/>
       <use xlink:href="#DejaVuSans-30" transform="translate(95.410156 0)"/>
      </g>
     </g>
    </g>
    <g id="text_22">
     <!-- Free lac operon -->
     <g transform="translate(14.798438 288.540645) rotate(-90) scale(0.1 -0.1)">
      <defs>
       <path id="DejaVuSans-46" d="M 628 4666 
L 3309 4666 
L 3309 4134 
L 1259 4134 
L 1259 2759 
L 3109 2759 
L 3109 2228 
L 1259 2228 
L 1259 0 
L 628 0 
L 628 4666 
z
" transform="scale(0.015625)"/>
       <path id="DejaVuSans-70" d="M 1159 525 
L 1159 -1331 
L 581 -1331 
L 581 3500 
L 1159 3500 
L 1159 2969 
Q 1341 3281 1617 3432 
Q 1894 3584 2278 3584 
Q 2916 3584 3314 3078 
Q 3713 2572 3713 1747 
Q 3713 922 3314 415 
Q 2916 -91 2278 -91 
Q 1894 -91 1617 61 
Q 1341 213 1159 525 
z
M 3116 1747 
Q 3116 2381 2855 2742 
Q 2594 3103 2138 3103 
Q 1681 3103 1420 2742 
Q 1159 2381 1159 1747 
Q 1159 1113 1420 752 
Q 1681 391 2138 391 
Q 2594 391 2855 752 
Q 3116 1113 3116 1747 
z
" transform="scale(0.015625)"/>
       <path id="DejaVuSans-6e" d="M 3513 2113 
L 3513 0 
L 2938 0 
L 2938 2094 
Q 2938 2591 2744 2837 
Q 2550 3084 2163 3084 
Q 1697 3084 1428 2787 
Q 1159 2491 1159 1978 
L 1159 0 
L 581 0 
L 581 3500 
L 1159 3500 
L 1159 2956 
Q 1366 3272 1645 3428 
Q 1925 3584 2291 3584 
Q 2894 3584 3203 3211 
Q 3513 2838 3513 2113 
z
" transform="scale(0.015625)"/>
      </defs>
      <use xlink:href="#DejaVuSans-46"/>
      <use xlink:href="#DejaVuSans-72" transform="translate(50.269531 0)"/>
      <use xlink:href="#DejaVuSans-65" transform="translate(89.132812 0)"/>
      <use xlink:href="#DejaVuSans-65" transform="translate(150.65625 0)"/>
      <use xlink:href="#DejaVuSans-20" transform="translate(212.179688 0)"/>
      <use xlink:href="#DejaVuSans-6c" transform="translate(243.966797 0)"/>
      <use xlink:href="#DejaVuSans-61" transform="translate(271.75 0)"/>
      <use xlink:href="#DejaVuSans-63" transform="translate(333.029297 0)"/>
      <use xlink:href="#DejaVuSans-20" transform="translate(388.009766 0)"/>
      <use xlink:href="#DejaVuSans-6f" transform="translate(419.796875 0)"/>
      <use xlink:href="#DejaVuSans-70" transform="translate(480.978516 0)"/>
      <use xlink:href="#DejaVuSans-65" transform="translate(544.455078 0)"/>
      <use xlink:href="#DejaVuSans-72" transform="translate(605.978516 0)"/>
      <use xlink:href="#DejaVuSans-6f" transform="translate(644.841797 0)"/>
      <use xlink:href="#DejaVuSans-6e" transform="translate(706.023438 0)"/>
     </g>
    </g>
   </g>
   <g id="line2d_39">
    <path d="M 56.57299 209.366171 
L 56.654781 290.772932 
L 56.823638 290.772932 
L 56.993793 209.366171 
L 57.112361 209.366171 
L 57.214839 290.772932 
L 58.43524 290.772932 
L 59.428441 209.366171 
L 59.615416 209.366171 
L 59.638238 290.772932 
L 62.067897 290.772932 
L 64.671217 209.366171 
L 64.967113 209.366171 
L 65.105023 290.772932 
L 65.231323 290.772932 
L 71.916346 209.366171 
L 72.086711 290.772932 
L 79.952887 209.366171 
L 80.00209 290.772932 
L 82.637461 209.366171 
L 82.777925 209.366171 
L 82.832271 290.772932 
L 84.578504 290.772932 
L 84.644159 209.366171 
L 85.523418 209.366171 
L 85.71404 290.772932 
L 86.750379 290.772932 
L 89.753114 209.366171 
L 90.294948 209.366171 
L 90.324326 290.772932 
L 90.683445 290.772932 
L 91.567822 209.366171 
L 91.626466 290.772932 
L 91.971471 290.772932 
L 109.104099 209.366171 
L 109.117848 290.772932 
L 109.377186 290.772932 
L 109.654248 209.366171 
L 109.942573 290.772932 
L 110.071075 209.366171 
L 110.480202 209.366171 
L 110.685475 290.772932 
L 110.979104 290.772932 
L 115.155292 209.366171 
L 115.818143 290.772932 
L 117.465713 209.366171 
L 117.782006 290.772932 
L 118.456696 209.366171 
L 118.544314 290.772932 
L 119.557073 209.366171 
L 119.642269 290.772932 
L 123.598373 290.772932 
L 129.637483 209.366171 
L 129.743787 290.772932 
L 131.491924 209.366171 
L 131.944234 209.366171 
L 131.965747 290.772932 
L 133.812233 290.772932 
L 136.416611 209.366171 
L 136.429962 290.772932 
L 139.320718 209.366171 
L 139.363593 290.772932 
L 146.430597 209.366171 
L 147.378098 209.366171 
L 147.446641 290.772932 
L 148.065141 290.772932 
L 148.310998 209.366171 
L 148.626936 209.366171 
L 148.740062 290.772932 
L 149.814271 290.772932 
L 150.327421 209.366171 
L 150.428512 290.772932 
L 151.553376 290.772932 
L 151.564735 209.366171 
L 151.726815 290.772932 
L 156.049795 209.366171 
L 156.139027 290.772932 
L 156.389183 209.366171 
L 167.377353 209.366171 
L 167.454174 290.772932 
L 172.944252 290.772932 
L 173.650165 209.366171 
L 186.693278 209.366171 
L 186.805442 290.772932 
L 186.925177 209.366171 
L 195.818728 209.366171 
L 195.870891 290.772932 
L 199.623157 290.772932 
L 200.046791 209.366171 
L 221.384855 209.366171 
L 221.502617 290.772932 
L 221.990095 209.366171 
L 223.948565 209.366171 
L 224.037936 290.772932 
L 224.731855 209.366171 
L 226.434049 209.366171 
L 226.570712 290.772932 
L 228.42408 290.772932 
L 228.755478 209.366171 
L 230.869772 209.366171 
L 231.030781 290.772932 
L 231.142435 209.366171 
L 231.157967 290.772932 
L 232.069361 290.772932 
L 232.190657 209.366171 
L 233.339127 209.366171 
L 233.368661 290.772932 
L 234.550834 290.772932 
L 235.188133 209.366171 
L 235.231586 290.772932 
L 235.456164 290.772932 
L 236.315732 209.366171 
L 236.948278 209.366171 
L 237.048271 290.772932 
L 237.770261 290.772932 
L 237.784271 209.366171 
L 238.021942 209.366171 
L 238.189831 290.772932 
L 238.702129 209.366171 
L 238.734585 290.772932 
L 238.95631 290.772932 
L 239.109172 209.366171 
L 239.158944 290.772932 
L 242.905666 209.366171 
L 243.399772 209.366171 
L 243.40999 290.772932 
L 244.315118 290.772932 
L 244.334989 209.366171 
L 244.457726 209.366171 
L 244.844505 290.772932 
L 245.949331 209.366171 
L 246.072881 209.366171 
L 246.104047 290.772932 
L 246.739662 290.772932 
L 247.024553 209.366171 
L 247.249343 290.772932 
L 250.746598 209.366171 
L 250.970519 290.772932 
L 251.798795 209.366171 
L 251.884088 290.772932 
L 253.847212 209.366171 
L 254.100299 290.772932 
L 254.198521 209.366171 
L 254.597763 290.772932 
L 254.680961 209.366171 
L 256.459888 209.366171 
L 256.668218 290.772932 
L 268.923223 290.772932 
L 276.110558 209.366171 
L 276.232405 209.366171 
L 276.277479 290.772932 
L 277.241729 290.772932 
L 279.650189 209.366171 
L 279.839065 209.366171 
L 280.009785 290.772932 
L 280.433741 290.772932 
L 283.271279 209.366171 
L 283.351573 290.772932 
L 285.653428 209.366171 
L 285.723703 209.366171 
L 286.006463 290.772932 
L 286.44955 209.366171 
L 286.767702 290.772932 
L 287.532233 209.366171 
L 287.92641 209.366171 
L 288.021418 290.772932 
L 289.053205 290.772932 
L 290.781845 209.366171 
L 292.004953 209.366171 
L 292.069806 290.772932 
L 292.502255 290.772932 
L 299.76695 209.366171 
L 300.206936 290.772932 
L 300.313192 209.366171 
L 300.673468 209.366171 
L 300.720016 290.772932 
L 301.16058 209.366171 
L 301.298286 209.366171 
L 301.351518 290.772932 
L 301.620548 290.772932 
L 301.628556 209.366171 
L 301.681236 290.772932 
L 302.086964 290.772932 
L 302.499276 209.366171 
L 302.793992 209.366171 
L 302.889523 290.772932 
L 304.561032 209.366171 
L 304.64472 290.772932 
L 311.593513 209.366171 
L 312.273721 209.366171 
L 312.40778 290.772932 
L 312.40778 290.772932 
" clip-path="url(#pb07a2f4637)" style="fill: none; stroke: #000000; stroke-width: 1.5; stroke-linecap: square"/>
   </g>
   <g id="patch_13">
    <path d="M 43.78125 294.84327 
L 43.78125 205.295833 
" style="fill: none; stroke: #000000; stroke-width: 0.8; stroke-linejoin: miter; stroke-linecap: square"/>
   </g>
   <g id="patch_14">
    <path d="M 325.19952 294.84327 
L 325.19952 205.295833 
" style="fill: none; stroke: #000000; stroke-width: 0.8; stroke-linejoin: miter; stroke-linecap: square"/>
   </g>
   <g id="patch_15">
    <path d="M 43.78125 294.84327 
L 325.19952 294.84327 
" style="fill: none; stroke: #000000; stroke-width: 0.8; stroke-linejoin: miter; stroke-linecap: square"/>
   </g>
   <g id="patch_16">
    <path d="M 43.78125 205.295833 
L 325.19952 205.295833 
" style="fill: none; stroke: #000000; stroke-width: 0.8; stroke-linejoin: miter; stroke-linecap: square"/>
   </g>
  </g>
 </g>
 <defs>
  <clipPath id="pf1b9e6aa76">
   <rect x="43.78125" y="7.2" width="281.41827" height="89.547437"/>
  </clipPath>
  <clipPath id="p00b7ea9ed5">
   <rect x="43.78125" y="106.247917" width="281.41827" height="89.547437"/>
  </clipPath>
  <clipPath id="pb07a2f4637">
   <rect x="43.78125" y="205.295833" width="281.41827" height="89.547437"/>
  </clipPath>
 </defs>
</svg>
