<?xml version="1.0" encoding="utf-8" standalone="no"?>
<!DOCTYPE svg PUBLIC "-//W3C//DTD SVG 1.1//EN"
  "http://www.w3.org/Graphics/SVG/1.1/DTD/svg11.dtd">
<svg xmlns:xlink="http://www.w3.org/1999/xlink" width="332.39952pt" height="332.39952pt" viewBox="0 0 332.39952 332.39952" xmlns="http://www.w3.org/2000/svg" version="1.1">
 <metadata>
  <rdf:RDF xmlns:dc="http://purl.org/dc/elements/1.1/" xmlns:cc="http://creativecommons.org/ns#" xmlns:rdf="http://www.w3.org/1999/02/22-rdf-syntax-ns#">
   <cc:Work>
    <dc:type rdf:resource="http://purl.org/dc/dcmitype/StillImage"/>
    <dc:date>2026-06-15T14:45:22.997643</dc:date>
    <dc:format>image/svg+xml</dc:format>
    <dc:creator>
     <cc:Agent>
      <dc:title>Matplotlib v3.11.0, https://matplotlib.org/</dc:title>
     </cc:Agent>
    </dc:creator>
   </cc:Work>
  </rdf:RDF>
 </metadata>
 <defs>
  <style type="text/css">*{stroke-linejoin: round; stroke-linecap: butt}</style>
 </defs>
 <g id="figure_1">
  <g id="patch_1">
   <path d="M 0 332.39952 
L 332.39952 332.39952 
L 332.39952 0 
L 0 0 
z
" style="fill: #ffffff"/>
  </g>
  <g id="axes_1">
   <g id="patch_2">
    <path d="M 44.103906 96.532593 
L 325.19952 96.532593 
L 325.19952 7.2 
L 44.103906 7.2 
z
" style="fill: #ffffff"/>
   </g>
   <g id="matplotlib.axis_1">
    <g id="xtick_1">
     <g id="line2d_1">
      <defs>
       <path id="mf36e15e163" d="M 0 0 
L 0 3.5 
" style="stroke: #000000; stroke-width: 0.8"/>
      </defs>
      <g>
       <use xlink:href="#mf36e15e163" x="56.88098" y="96.532593" style="stroke: #000000; stroke-width: 0.8"/>
      </g>
     </g>
    </g>
    <g id="xtick_2">
     <g id="line2d_2">
      <g>
       <use xlink:href="#mf36e15e163" x="88.294747" y="96.532593" style="stroke: #000000; stroke-width: 0.8"/>
      </g>
     </g>
    </g>
    <g id="xtick_3">
     <g id="line2d_3">
      <g>
       <use xlink:href="#mf36e15e163" x="119.708514" y="96.532593" style="stroke: #000000; stroke-width: 0.8"/>
      </g>
     </g>
    </g>
    <g id="xtick_4">
     <g id="line2d_4">
      <g>
       <use xlink:href="#mf36e15e163" x="151.122281" y="96.532593" style="stroke: #000000; stroke-width: 0.8"/>
      </g>
     </g>
    </g>
    <g id="xtick_5">
     <g id="line2d_5">
      <g>
       <use xlink:href="#mf36e15e163" x="182.536049" y="96.532593" style="stroke: #000000; stroke-width: 0.8"/>
      </g>
     </g>
    </g>
    <g id="xtick_6">
     <g id="line2d_6">
      <g>
       <use xlink:href="#mf36e15e163" x="213.949816" y="96.532593" style="stroke: #000000; stroke-width: 0.8"/>
      </g>
     </g>
    </g>
    <g id="xtick_7">
     <g id="line2d_7">
      <g>
       <use xlink:href="#mf36e15e163" x="245.363583" y="96.532593" style="stroke: #000000; stroke-width: 0.8"/>
      </g>
     </g>
    </g>
    <g id="xtick_8">
     <g id="line2d_8">
      <g>
       <use xlink:href="#mf36e15e163" x="276.777351" y="96.532593" style="stroke: #000000; stroke-width: 0.8"/>
      </g>
     </g>
    </g>
    <g id="xtick_9">
     <g id="line2d_9">
      <g>
       <use xlink:href="#mf36e15e163" x="308.191118" y="96.532593" style="stroke: #000000; stroke-width: 0.8"/>
      </g>
     </g>
    </g>
   </g>
   <g id="matplotlib.axis_2">
    <g id="ytick_1">
     <g id="line2d_10">
      <defs>
       <path id="mf363bf9140" d="M 0 0 
L -3.5 0 
" style="stroke: #000000; stroke-width: 0.8"/>
      </defs>
      <g>
       <use xlink:href="#mf363bf9140" x="44.103906" y="92.472021" style="stroke: #000000; stroke-width: 0.8"/>
      </g>
     </g>
     <g id="text_1">
      <!-- 0 -->
      <g transform="translate(30.741406 96.270849) scale(0.1 -0.1)">
       <defs>
        <path id="DejaVuSans-13" d="M 2034 4250 
Q 1547 4250 1301 3770 
Q 1056 3291 1056 2328 
Q 1056 1369 1301 889 
Q 1547 409 2034 409 
Q 2525 409 2770 889 
Q 3016 1369 3016 2328 
Q 3016 3291 2770 3770 
Q 2525 4250 2034 4250 
z
M 2034 4750 
Q 2819 4750 3233 4129 
Q 3647 3509 3647 2328 
Q 3647 1150 3233 529 
Q 2819 -91 2034 -91 
Q 1250 -91 836 529 
Q 422 1150 422 2328 
Q 422 3509 836 4129 
Q 1250 4750 2034 4750 
z
" transform="scale(0.015625)"/>
       </defs>
       <use xlink:href="#DejaVuSans-13"/>
      </g>
     </g>
    </g>
    <g id="ytick_2">
     <g id="line2d_11">
      <g>
       <use xlink:href="#mf363bf9140" x="44.103906" y="51.866296" style="stroke: #000000; stroke-width: 0.8"/>
      </g>
     </g>
     <g id="text_2">
      <!-- 5 -->
      <g transform="translate(30.741406 55.665125) scale(0.1 -0.1)">
       <defs>
        <path id="DejaVuSans-18" d="M 691 4666 
L 3169 4666 
L 3169 4134 
L 1269 4134 
L 1269 2991 
Q 1406 3038 1543 3061 
Q 1681 3084 1819 3084 
Q 2600 3084 3056 2656 
Q 3513 2228 3513 1497 
Q 3513 744 3044 326 
Q 2575 -91 1722 -91 
Q 1428 -91 1123 -41 
Q 819 9 494 109 
L 494 744 
Q 775 591 1075 516 
Q 1375 441 1709 441 
Q 2250 441 2565 725 
Q 2881 1009 2881 1497 
Q 2881 1984 2565 2268 
Q 2250 2553 1709 2553 
Q 1456 2553 1204 2497 
Q 953 2441 691 2322 
L 691 4666 
z
" transform="scale(0.015625)"/>
       </defs>
       <use xlink:href="#DejaVuSans-18"/>
      </g>
     </g>
    </g>
    <g id="ytick_3">
     <g id="line2d_12">
      <g>
       <use xlink:href="#mf363bf9140" x="44.103906" y="11.260572" style="stroke: #000000; stroke-width: 0.8"/>
      </g>
     </g>
     <g id="text_3">
      <!-- 10 -->
      <g transform="translate(24.378906 15.059401) scale(0.1 -0.1)">
       <defs>
        <path id="DejaVuSans-14" d="M 794 531 
L 1825 531 
L 1825 4091 
L 703 3866 
L 703 4441 
L 1819 4666 
L 2450 4666 
L 2450 531 
L 3481 531 
L 3481 0 
L 794 0 
L 794 531 
z
" transform="scale(0.015625)"/>
       </defs>
       <use xlink:href="#DejaVuSans-14"/>
       <use xlink:href="#DejaVuSans-13" transform="translate(63.625 0)"/>
      </g>
     </g>
    </g>
    <g id="text_4">
     <!-- Extracellular lactose -->
     <g transform="translate(17.976563 102.838171) rotate(-90) scale(0.1 -0.1)">
      <defs>
       <path id="DejaVuSans-28" d="M 628 4666 
L 3578 4666 
L 3578 4134 
L 1259 4134 
L 1259 2753 
L 3481 2753 
L 3481 2222 
L 1259 2222 
L 1259 531 
L 3634 531 
L 3634 0 
L 628 0 
L 628 4666 
z
" transform="scale(0.015625)"/>
       <path id="DejaVuSans-5b" d="M 3513 3500 
L 2247 1797 
L 3578 0 
L 2900 0 
L 1881 1375 
L 863 0 
L 184 0 
L 1544 1831 
L 300 3500 
L 978 3500 
L 1906 2253 
L 2834 3500 
L 3513 3500 
z
" transform="scale(0.015625)"/>
       <path id="DejaVuSans-57" d="M 1172 4494 
L 1172 3500 
L 2356 3500 
L 2356 3053 
L 1172 3053 
L 1172 1153 
Q 1172 725 1289 603 
Q 1406 481 1766 481 
L 2356 481 
L 2356 0 
L 1766 0 
Q 1100 0 847 248 
Q 594 497 594 1153 
L 594 3053 
L 172 3053 
L 172 3500 
L 594 3500 
L 594 4494 
L 1172 4494 
z
" transform="scale(0.015625)"/>
       <path id="DejaVuSans-55" d="M 2631 2963 
Q 2534 3019 2420 3045 
Q 2306 3072 2169 3072 
Q 1681 3072 1420 2755 
Q 1159 2438 1159 1844 
L 1159 0 
L 581 0 
L 581 3500 
L 1159 3500 
L 1159 2956 
Q 1341 3275 1631 3429 
Q 1922 3584 2338 3584 
Q 2397 3584 2469 3576 
Q 2541 3569 2628 3553 
L 2631 2963 
z
" transform="scale(0.015625)"/>
       <path id="DejaVuSans-44" d="M 2194 1759 
Q 1497 1759 1228 1600 
Q 959 1441 959 1056 
Q 959 750 1161 570 
Q 1363 391 1709 391 
Q 2188 391 2477 730 
Q 2766 1069 2766 1631 
L 2766 1759 
L 2194 1759 
z
M 3341 1997 
L 3341 0 
L 2766 0 
L 2766 531 
Q 2569 213 2275 61 
Q 1981 -91 1556 -91 
Q 1019 -91 701 211 
Q 384 513 384 1019 
Q 384 1609 779 1909 
Q 1175 2209 1959 2209 
L 2766 2209 
L 2766 2266 
Q 2766 2663 2505 2880 
Q 2244 3097 1772 3097 
Q 1472 3097 1187 3025 
Q 903 2953 641 2809 
L 641 3341 
Q 956 3463 1253 3523 
Q 1550 3584 1831 3584 
Q 2591 3584 2966 3190 
Q 3341 2797 3341 1997 
z
" transform="scale(0.015625)"/>
       <path id="DejaVuSans-46" d="M 3122 3366 
L 3122 2828 
Q 2878 2963 2633 3030 
Q 2388 3097 2138 3097 
Q 1578 3097 1268 2742 
Q 959 2388 959 1747 
Q 959 1106 1268 751 
Q 1578 397 2138 397 
Q 2388 397 2633 464 
Q 2878 531 3122 666 
L 3122 134 
Q 2881 22 2623 -34 
Q 2366 -91 2075 -91 
Q 1284 -91 818 406 
Q 353 903 353 1747 
Q 353 2603 823 3093 
Q 1294 3584 2113 3584 
Q 2378 3584 2631 3529 
Q 2884 3475 3122 3366 
z
" transform="scale(0.015625)"/>
       <path id="DejaVuSans-48" d="M 3597 1894 
L 3597 1613 
L 953 1613 
Q 991 1019 1311 708 
Q 1631 397 2203 397 
Q 2534 397 2845 478 
Q 3156 559 3463 722 
L 3463 178 
Q 3153 47 2828 -22 
Q 2503 -91 2169 -91 
Q 1331 -91 842 396 
Q 353 884 353 1716 
Q 353 2575 817 3079 
Q 1281 3584 2069 3584 
Q 2775 3584 3186 3129 
Q 3597 2675 3597 1894 
z
M 3022 2063 
Q 3016 2534 2758 2815 
Q 2500 3097 2075 3097 
Q 1594 3097 1305 2825 
Q 1016 2553 972 2059 
L 3022 2063 
z
" transform="scale(0.015625)"/>
       <path id="DejaVuSans-4f" d="M 603 4863 
L 1178 4863 
L 1178 0 
L 603 0 
L 603 4863 
z
" transform="scale(0.015625)"/>
       <path id="DejaVuSans-58" d="M 544 1381 
L 544 3500 
L 1119 3500 
L 1119 1403 
Q 1119 906 1312 657 
Q 1506 409 1894 409 
Q 2359 409 2629 706 
Q 2900 1003 2900 1516 
L 2900 3500 
L 3475 3500 
L 3475 0 
L 2900 0 
L 2900 538 
Q 2691 219 2414 64 
Q 2138 -91 1772 -91 
Q 1169 -91 856 284 
Q 544 659 544 1381 
z
M 1991 3584 
L 1991 3584 
z
" transform="scale(0.015625)"/>
       <path id="DejaVuSans-3" transform="scale(0.015625)"/>
       <path id="DejaVuSans-52" d="M 1959 3097 
Q 1497 3097 1228 2736 
Q 959 2375 959 1747 
Q 959 1119 1226 758 
Q 1494 397 1959 397 
Q 2419 397 2687 759 
Q 2956 1122 2956 1747 
Q 2956 2369 2687 2733 
Q 2419 3097 1959 3097 
z
M 1959 3584 
Q 2709 3584 3137 3096 
Q 3566 2609 3566 1747 
Q 3566 888 3137 398 
Q 2709 -91 1959 -91 
Q 1206 -91 779 398 
Q 353 888 353 1747 
Q 353 2609 779 3096 
Q 1206 3584 1959 3584 
z
" transform="scale(0.015625)"/>
       <path id="DejaVuSans-56" d="M 2834 3397 
L 2834 2853 
Q 2591 2978 2328 3040 
Q 2066 3103 1784 3103 
Q 1356 3103 1142 2972 
Q 928 2841 928 2578 
Q 928 2378 1081 2264 
Q 1234 2150 1697 2047 
L 1894 2003 
Q 2506 1872 2764 1633 
Q 3022 1394 3022 966 
Q 3022 478 2636 193 
Q 2250 -91 1575 -91 
Q 1294 -91 989 -36 
Q 684 19 347 128 
L 347 722 
Q 666 556 975 473 
Q 1284 391 1588 391 
Q 1994 391 2212 530 
Q 2431 669 2431 922 
Q 2431 1156 2273 1281 
Q 2116 1406 1581 1522 
L 1381 1569 
Q 847 1681 609 1914 
Q 372 2147 372 2553 
Q 372 3047 722 3315 
Q 1072 3584 1716 3584 
Q 2034 3584 2315 3537 
Q 2597 3491 2834 3397 
z
" transform="scale(0.015625)"/>
      </defs>
      <use xlink:href="#DejaVuSans-28"/>
      <use xlink:href="#DejaVuSans-5b" transform="translate(63.1875 0)"/>
      <use xlink:href="#DejaVuSans-57" transform="translate(122.375 0)"/>
      <use xlink:href="#DejaVuSans-55" transform="translate(161.578125 0)"/>
      <use xlink:href="#DejaVuSans-44" transform="translate(202.6875 0)"/>
      <use xlink:href="#DejaVuSans-46" transform="translate(263.96875 0)"/>
      <use xlink:href="#DejaVuSans-48" transform="translate(318.953125 0)"/>
      <use xlink:href="#DejaVuSans-4f" transform="translate(380.484375 0)"/>
      <use xlink:href="#DejaVuSans-4f" transform="translate(408.265625 0)"/>
      <use xlink:href="#DejaVuSans-58" transform="translate(436.046875 0)"/>
      <use xlink:href="#DejaVuSans-4f" transform="translate(499.421875 0)"/>
      <use xlink:href="#DejaVuSans-44" transform="translate(527.203125 0)"/>
      <use xlink:href="#DejaVuSans-55" transform="translate(588.484375 0)"/>
      <use xlink:href="#DejaVuSans-3" transform="translate(629.59375 0)"/>
      <use xlink:href="#DejaVuSans-4f" transform="translate(661.375 0)"/>
      <use xlink:href="#DejaVuSans-44" transform="translate(689.15625 0)"/>
      <use xlink:href="#DejaVuSans-46" transform="translate(750.4375 0)"/>
      <use xlink:href="#DejaVuSans-57" transform="translate(805.421875 0)"/>
      <use xlink:href="#DejaVuSans-52" transform="translate(844.625 0)"/>
      <use xlink:href="#DejaVuSans-56" transform="translate(905.8125 0)"/>
      <use xlink:href="#DejaVuSans-48" transform="translate(957.90625 0)"/>
     </g>
    </g>
   </g>
   <g id="line2d_13">
    <path d="M 56.88098 92.472021 
L 154.599582 92.472021 
L 154.687237 11.260572 
L 155.344412 11.341784 
L 155.460194 11.66663 
L 155.504283 11.747841 
L 155.64811 13.209647 
L 155.765356 14.833876 
L 155.7906 14.915088 
L 155.920397 16.620528 
L 155.942105 16.701739 
L 156.230322 19.462929 
L 156.236619 19.54414 
L 156.357171 20.193832 
L 156.434324 20.275043 
L 156.560268 20.843523 
L 156.577116 20.924735 
L 156.698412 21.087158 
L 156.738431 21.168369 
L 156.866062 21.899272 
L 157.00251 22.467752 
L 157.050802 22.548964 
L 157.168059 23.361078 
L 157.1815 23.44229 
L 157.479147 24.985307 
L 157.508444 25.066519 
L 157.589832 25.14773 
L 157.924957 25.228941 
L 158.115983 26.365902 
L 158.38001 27.502862 
L 158.560407 28.233765 
L 158.685851 28.558611 
L 158.722838 28.639822 
L 159.008772 29.857994 
L 159.06125 29.939205 
L 159.165299 30.264051 
L 159.223459 30.345263 
L 159.36884 30.832531 
L 159.418799 30.913743 
L 159.531599 31.401012 
L 159.584921 31.482223 
L 159.693071 31.644646 
L 159.707767 31.725857 
L 159.817959 32.131915 
L 160.207908 33.918566 
L 160.675692 35.461584 
L 160.706911 35.542795 
L 160.829735 36.842179 
L 160.859904 36.92339 
L 161.282631 38.466408 
L 161.51768 38.547619 
L 161.620833 38.791253 
L 161.704231 38.872465 
L 162.072594 39.684579 
L 162.154566 39.765791 
L 162.270819 39.928214 
L 162.31699 40.009425 
L 162.431131 40.82154 
L 162.636777 41.227597 
L 162.775666 41.308808 
L 162.999544 41.877288 
L 163.083312 41.9585 
L 163.207233 42.445768 
L 163.500337 42.52698 
L 163.743073 43.420306 
L 163.816002 43.501517 
L 163.929467 43.988786 
L 163.966481 44.069997 
L 164.182494 45.450592 
L 164.342148 46.019072 
L 164.423922 46.100284 
L 165.698757 53.084468 
L 165.75173 53.16568 
L 166.896692 58.200789 
L 167.064184 59.094115 
L 167.083384 59.175327 
L 167.607163 60.880767 
L 167.966702 60.961979 
L 168.066149 61.286824 
L 168.215851 61.449247 
L 168.405823 61.530459 
L 168.518974 61.936516 
L 168.819489 62.017727 
L 168.939956 62.18015 
L 169.334942 62.261362 
L 169.475353 62.504996 
L 169.524681 62.586208 
L 169.758299 63.398322 
L 169.921148 63.966802 
L 170.024598 64.048014 
L 170.250253 65.347397 
L 170.31752 65.428608 
L 170.591537 67.052837 
L 170.60681 67.134049 
L 170.704563 67.864952 
L 170.951886 68.514643 
L 171.020015 68.595855 
L 171.139023 68.920701 
L 171.330231 69.407969 
L 171.385172 69.489181 
L 172.120122 70.869775 
L 172.293514 70.950987 
L 172.419837 71.275833 
L 173.237777 73.874599 
L 173.337633 73.95581 
L 173.460203 74.280656 
L 173.556412 74.361868 
L 173.74127 75.011559 
L 173.865029 75.417616 
L 173.921988 75.498828 
L 174.040399 75.823674 
L 174.107721 75.904885 
L 174.21463 76.067308 
L 174.278687 76.148519 
L 174.397889 76.310942 
L 174.878264 76.392154 
L 175.000764 76.554577 
L 175.082684 76.635788 
L 175.189485 76.717 
L 175.38833 76.798211 
L 175.514149 76.960634 
L 175.652611 77.041845 
L 175.973831 77.85396 
L 176.709208 78.909709 
L 176.764139 78.99092 
L 177.141526 79.640612 
L 177.277948 80.12788 
L 177.392627 80.209092 
L 177.508938 80.371515 
L 179.297668 80.452726 
L 179.395561 80.533938 
L 179.662045 80.615149 
L 180.750889 81.589686 
L 180.90103 81.833321 
L 180.991287 81.914532 
L 181.127992 82.158167 
L 181.376704 82.239378 
L 181.413202 82.320589 
L 182.112095 82.401801 
L 182.342843 82.645435 
L 182.594664 82.726647 
L 182.647119 82.807858 
L 183.69337 82.88907 
L 183.800074 83.051493 
L 183.978796 83.132704 
L 184.194704 83.376338 
L 184.299831 83.782396 
L 184.586503 83.863607 
L 184.672308 83.944818 
L 184.922982 84.02603 
L 185.255352 84.188453 
L 185.748265 84.269664 
L 185.765138 84.350876 
L 187.472177 84.432087 
L 187.568237 84.513299 
L 187.955024 84.59451 
L 188.071175 84.756933 
L 188.80113 84.838144 
L 190.244025 85.569047 
L 190.308733 85.650259 
L 190.756556 85.73147 
L 190.881683 85.812682 
L 191.208112 85.893893 
L 191.861075 86.056316 
L 192.457388 86.137528 
L 192.584402 86.381162 
L 192.874821 86.462373 
L 192.994685 86.787219 
L 193.139546 86.868431 
L 193.252209 86.949642 
L 193.564185 87.030853 
L 193.701252 87.193276 
L 194.06879 87.274488 
L 194.146441 87.355699 
L 196.643241 88.086602 
L 196.716913 88.167814 
L 197.421063 88.249025 
L 197.875873 88.573871 
L 197.990321 88.736294 
L 198.186509 88.817505 
L 198.273058 88.979928 
L 199.773655 89.06114 
L 199.837869 89.142351 
L 200.073525 89.223563 
L 200.672473 89.304774 
L 200.690299 89.385985 
L 201.755915 89.467197 
L 201.952361 89.62962 
L 202.823665 89.710831 
L 203.079886 89.792043 
L 204.542974 89.873254 
L 204.836071 89.954466 
L 205.819972 90.035677 
L 205.903374 90.116889 
L 206.733852 90.1981 
L 206.912002 90.279311 
L 208.96299 90.360523 
L 209.108672 90.441734 
L 210.014046 90.522946 
L 210.032362 90.604157 
L 210.818518 90.685369 
L 210.925738 90.76658 
L 227.803266 90.847792 
L 227.948076 90.929003 
L 237.114993 91.010214 
L 237.738118 91.091426 
L 257.93783 91.172637 
L 258.324816 91.253849 
L 274.823943 91.33506 
L 275.021216 91.416272 
L 279.205075 91.497483 
L 279.413363 91.578695 
L 312.422447 91.659906 
L 312.422447 91.659906 
" clip-path="url(#p391b29a6c0)" style="fill: none; stroke: #000000; stroke-width: 1.5; stroke-linecap: square"/>
   </g>
   <g id="patch_3">
    <path d="M 44.103906 96.532593 
L 44.103906 7.2 
" style="fill: none; stroke: #000000; stroke-width: 0.8; stroke-linejoin: miter; stroke-linecap: square"/>
   </g>
   <g id="patch_4">
    <path d="M 325.19952 96.532593 
L 325.19952 7.2 
" style="fill: none; stroke: #000000; stroke-width: 0.8; stroke-linejoin: miter; stroke-linecap: square"/>
   </g>
   <g id="patch_5">
    <path d="M 44.103906 96.532593 
L 325.19952 96.532593 
" style="fill: none; stroke: #000000; stroke-width: 0.8; stroke-linejoin: miter; stroke-linecap: square"/>
   </g>
   <g id="patch_6">
    <path d="M 44.103906 7.2 
L 325.19952 7.2 
" style="fill: none; stroke: #000000; stroke-width: 0.8; stroke-linejoin: miter; stroke-linecap: square"/>
   </g>
  </g>
  <g id="axes_2">
   <g id="patch_7">
    <path d="M 44.103906 195.365666 
L 325.19952 195.365666 
L 325.19952 106.033073 
L 44.103906 106.033073 
z
" style="fill: #ffffff"/>
   </g>
   <g id="matplotlib.axis_3">
    <g id="xtick_10">
     <g id="line2d_14">
      <g>
       <use xlink:href="#mf36e15e163" x="56.88098" y="195.365666" style="stroke: #000000; stroke-width: 0.8"/>
      </g>
     </g>
    </g>
    <g id="xtick_11">
     <g id="line2d_15">
      <g>
       <use xlink:href="#mf36e15e163" x="88.294747" y="195.365666" style="stroke: #000000; stroke-width: 0.8"/>
      </g>
     </g>
    </g>
    <g id="xtick_12">
     <g id="line2d_16">
      <g>
       <use xlink:href="#mf36e15e163" x="119.708514" y="195.365666" style="stroke: #000000; stroke-width: 0.8"/>
      </g>
     </g>
    </g>
    <g id="xtick_13">
     <g id="line2d_17">
      <g>
       <use xlink:href="#mf36e15e163" x="151.122281" y="195.365666" style="stroke: #000000; stroke-width: 0.8"/>
      </g>
     </g>
    </g>
    <g id="xtick_14">
     <g id="line2d_18">
      <g>
       <use xlink:href="#mf36e15e163" x="182.536049" y="195.365666" style="stroke: #000000; stroke-width: 0.8"/>
      </g>
     </g>
    </g>
    <g id="xtick_15">
     <g id="line2d_19">
      <g>
       <use xlink:href="#mf36e15e163" x="213.949816" y="195.365666" style="stroke: #000000; stroke-width: 0.8"/>
      </g>
     </g>
    </g>
    <g id="xtick_16">
     <g id="line2d_20">
      <g>
       <use xlink:href="#mf36e15e163" x="245.363583" y="195.365666" style="stroke: #000000; stroke-width: 0.8"/>
      </g>
     </g>
    </g>
    <g id="xtick_17">
     <g id="line2d_21">
      <g>
       <use xlink:href="#mf36e15e163" x="276.777351" y="195.365666" style="stroke: #000000; stroke-width: 0.8"/>
      </g>
     </g>
    </g>
    <g id="xtick_18">
     <g id="line2d_22">
      <g>
       <use xlink:href="#mf36e15e163" x="308.191118" y="195.365666" style="stroke: #000000; stroke-width: 0.8"/>
      </g>
     </g>
    </g>
   </g>
   <g id="matplotlib.axis_4">
    <g id="ytick_4">
     <g id="line2d_23">
      <g>
       <use xlink:href="#mf363bf9140" x="44.103906" y="191.305093" style="stroke: #000000; stroke-width: 0.8"/>
      </g>
     </g>
     <g id="text_5">
      <!-- 0 -->
      <g transform="translate(30.741406 195.103922) scale(0.1 -0.1)">
       <use xlink:href="#DejaVuSans-13"/>
      </g>
     </g>
    </g>
    <g id="ytick_5">
     <g id="line2d_24">
      <g>
       <use xlink:href="#mf363bf9140" x="44.103906" y="150.699369" style="stroke: #000000; stroke-width: 0.8"/>
      </g>
     </g>
     <g id="text_6">
      <!-- 5 -->
      <g transform="translate(30.741406 154.498197) scale(0.1 -0.1)">
       <use xlink:href="#DejaVuSans-18"/>
      </g>
     </g>
    </g>
    <g id="ytick_6">
     <g id="line2d_25">
      <g>
       <use xlink:href="#mf363bf9140" x="44.103906" y="110.093645" style="stroke: #000000; stroke-width: 0.8"/>
      </g>
     </g>
     <g id="text_7">
      <!-- 10 -->
      <g transform="translate(24.378906 113.892473) scale(0.1 -0.1)">
       <use xlink:href="#DejaVuSans-14"/>
       <use xlink:href="#DejaVuSans-13" transform="translate(63.625 0)"/>
      </g>
     </g>
    </g>
    <g id="text_8">
     <!-- LacY -->
     <g transform="translate(17.976563 162.352494) rotate(-90) scale(0.1 -0.1)">
      <defs>
       <path id="DejaVuSans-2f" d="M 628 4666 
L 1259 4666 
L 1259 531 
L 3531 531 
L 3531 0 
L 628 0 
L 628 4666 
z
" transform="scale(0.015625)"/>
       <path id="DejaVuSans-3c" d="M -13 4666 
L 666 4666 
L 1959 2747 
L 3244 4666 
L 3922 4666 
L 2272 2222 
L 2272 0 
L 1638 0 
L 1638 2222 
L -13 4666 
z
" transform="scale(0.015625)"/>
      </defs>
      <use xlink:href="#DejaVuSans-2f"/>
      <use xlink:href="#DejaVuSans-44" transform="translate(55.71875 0)"/>
      <use xlink:href="#DejaVuSans-46" transform="translate(117 0)"/>
      <use xlink:href="#DejaVuSans-3c" transform="translate(171.984375 0)"/>
     </g>
    </g>
   </g>
   <g id="line2d_26">
    <path d="M 56.88098 110.093645 
L 56.907683 110.093645 
L 57.038212 126.335935 
L 57.127198 142.578225 
L 57.276926 142.578225 
L 57.294346 134.45708 
L 57.511485 142.578225 
L 57.651131 142.578225 
L 57.819113 158.820514 
L 58.115308 175.062804 
L 58.179901 191.305093 
L 59.685963 191.305093 
L 59.849978 183.183949 
L 59.892051 191.305093 
L 64.836075 191.305093 
L 65.15398 183.183949 
L 65.262214 191.305093 
L 82.484774 191.305093 
L 82.676141 183.183949 
L 84.441412 191.305093 
L 84.456005 183.183949 
L 84.596972 175.062804 
L 84.601554 166.941659 
L 84.918677 175.062804 
L 85.142092 175.062804 
L 85.259855 191.305093 
L 85.319724 183.183949 
L 85.506976 183.183949 
L 85.643296 191.305093 
L 89.474662 191.305093 
L 89.858366 175.062804 
L 89.859647 166.941659 
L 90.350486 166.941659 
L 90.38855 183.183949 
L 91.14862 183.183949 
L 91.314903 175.062804 
L 91.653811 191.305093 
L 108.393089 191.305093 
L 108.497134 183.183949 
L 108.614969 183.183949 
L 108.751888 191.305093 
L 108.983216 191.305093 
L 109.024053 183.183949 
L 109.433513 183.183949 
L 109.777973 175.062804 
L 109.835409 183.183949 
L 110.007938 183.183949 
L 110.037054 191.305093 
L 118.659899 191.305093 
L 118.835541 183.183949 
L 120.90305 183.183949 
L 122.721723 191.305093 
L 130.368667 191.305093 
L 130.55203 183.183949 
L 130.835111 183.183949 
L 130.941208 191.305093 
L 135.209454 191.305093 
L 135.29188 183.183949 
L 135.313405 191.305093 
L 145.150399 191.305093 
L 145.40718 175.062804 
L 145.427687 183.183949 
L 145.456243 175.062804 
L 145.567593 166.941659 
L 145.57285 175.062804 
L 146.148485 175.062804 
L 146.756053 183.183949 
L 146.997565 183.183949 
L 147.307919 175.062804 
L 147.419045 175.062804 
L 148.474268 191.305093 
L 148.927275 191.305093 
L 148.978348 175.062804 
L 149.077653 175.062804 
L 149.228106 183.183949 
L 149.359743 183.183949 
L 149.894199 191.305093 
L 154.932972 191.305093 
L 155.354589 183.183949 
L 155.591142 150.699369 
L 155.87006 150.699369 
L 155.986022 166.941659 
L 156.018408 166.941659 
L 156.129336 158.820514 
L 156.255117 158.820514 
L 156.365913 175.062804 
L 156.585656 175.062804 
L 156.698412 183.183949 
L 156.829041 166.941659 
L 156.879025 166.941659 
L 156.916376 158.820514 
L 156.976709 166.941659 
L 157.148186 166.941659 
L 157.245516 175.062804 
L 157.479147 175.062804 
L 157.589832 191.305093 
L 157.883935 191.305093 
L 157.996871 175.062804 
L 158.971191 175.062804 
L 159.080259 183.183949 
L 159.103664 183.183949 
L 159.237781 175.062804 
L 159.557547 175.062804 
L 159.693071 158.820514 
L 159.701942 158.820514 
L 159.810729 175.062804 
L 159.83669 175.062804 
L 159.93838 166.941659 
L 160.160218 166.941659 
L 160.27016 175.062804 
L 160.347712 175.062804 
L 160.350144 166.941659 
L 160.456035 175.062804 
L 160.525452 175.062804 
L 160.556393 183.183949 
L 160.622379 175.062804 
L 160.665656 183.183949 
L 160.714589 175.062804 
L 160.848926 158.820514 
L 160.89445 158.820514 
L 161.009492 166.941659 
L 161.068511 166.941659 
L 161.177192 183.183949 
L 161.224623 183.183949 
L 161.282631 191.305093 
L 161.464956 191.305093 
L 161.520077 175.062804 
L 161.567499 183.183949 
L 161.588634 183.183949 
L 161.704231 175.062804 
L 161.915747 175.062804 
L 161.991348 183.183949 
L 162.318897 183.183949 
L 162.431131 166.941659 
L 162.455689 166.941659 
L 162.56808 175.062804 
L 162.733171 175.062804 
L 162.844355 183.183949 
L 162.894713 183.183949 
L 162.944401 175.062804 
L 162.999544 183.183949 
L 163.513668 183.183949 
L 163.61856 175.062804 
L 163.820477 175.062804 
L 163.929467 166.941659 
L 164.078542 166.941659 
L 164.169482 158.820514 
L 164.182494 166.941659 
L 164.265336 166.941659 
L 164.342148 175.062804 
L 164.374439 166.941659 
L 164.412548 166.941659 
L 164.46408 175.062804 
L 164.522787 166.941659 
L 164.546546 166.941659 
L 164.622833 175.062804 
L 164.651514 166.941659 
L 164.755872 166.941659 
L 164.861042 158.820514 
L 164.90724 158.820514 
L 165.022357 150.699369 
L 165.211844 150.699369 
L 165.253326 158.820514 
L 165.32028 150.699369 
L 165.334915 150.699369 
L 165.445004 166.941659 
L 165.453425 175.062804 
L 165.540338 158.820514 
L 165.543477 158.820514 
L 166.164655 158.820514 
L 166.276492 166.941659 
L 166.902309 166.941659 
L 167.029522 158.820514 
L 167.136805 158.820514 
L 167.250484 166.941659 
L 167.456765 166.941659 
L 167.551322 175.062804 
L 167.607163 175.062804 
L 167.743255 183.183949 
L 167.880389 183.183949 
L 167.983711 175.062804 
L 168.087603 175.062804 
L 168.190235 183.183949 
L 168.382025 183.183949 
L 168.432964 175.062804 
L 168.492268 183.183949 
L 168.686157 183.183949 
L 168.861811 175.062804 
L 168.961408 191.305093 
L 169.156174 191.305093 
L 169.258403 183.183949 
L 169.345451 183.183949 
L 169.462696 166.941659 
L 169.475353 175.062804 
L 169.502371 175.062804 
L 169.611305 166.941659 
L 169.678681 166.941659 
L 169.774315 158.820514 
L 170.224886 158.820514 
L 170.335869 150.699369 
L 170.39289 150.699369 
L 170.523728 134.45708 
L 170.744683 134.45708 
L 170.837192 150.699369 
L 170.92478 150.699369 
L 171.030875 158.820514 
L 171.086772 158.820514 
L 171.197952 166.941659 
L 171.241551 166.941659 
L 171.263139 158.820514 
L 171.345965 166.941659 
L 171.424509 166.941659 
L 171.547521 175.062804 
L 171.973283 175.062804 
L 172.120122 183.183949 
L 172.18976 183.183949 
L 172.331357 175.062804 
L 172.577408 175.062804 
L 172.679179 158.820514 
L 172.820187 150.699369 
L 172.941271 150.699369 
L 173.049956 166.941659 
L 173.130024 166.941659 
L 173.185172 158.820514 
L 173.209377 175.062804 
L 173.237777 166.941659 
L 173.39693 166.941659 
L 173.516858 175.062804 
L 173.625663 175.062804 
L 173.759866 166.941659 
L 173.844135 166.941659 
L 173.865029 158.820514 
L 173.95066 166.941659 
L 174.079066 166.941659 
L 174.091481 175.062804 
L 174.189226 166.941659 
L 174.308374 166.941659 
L 174.335165 183.183949 
L 174.397889 175.062804 
L 174.546182 175.062804 
L 174.549289 183.183949 
L 174.624195 175.062804 
L 174.671839 175.062804 
L 174.680902 166.941659 
L 174.737132 183.183949 
L 174.74771 183.183949 
L 174.803382 183.183949 
L 174.935414 158.820514 
L 175.000764 158.820514 
L 175.280271 183.183949 
L 175.335577 158.820514 
L 175.38833 166.941659 
L 175.421984 166.941659 
L 175.544062 175.062804 
L 175.652611 166.941659 
L 176.035325 166.941659 
L 176.112325 158.820514 
L 176.161285 158.820514 
L 176.282594 142.578225 
L 176.341642 142.578225 
L 176.399685 134.45708 
L 176.432377 142.578225 
L 176.46552 142.578225 
L 176.563177 158.820514 
L 176.660196 158.820514 
L 176.750432 166.941659 
L 176.764139 158.820514 
L 176.939409 158.820514 
L 177.032897 166.941659 
L 177.061274 166.941659 
L 177.166357 158.820514 
L 177.225651 158.820514 
L 177.340142 150.699369 
L 177.34874 150.699369 
L 177.508938 183.183949 
L 177.90148 183.183949 
L 177.943468 191.305093 
L 177.947589 183.183949 
L 178.07622 183.183949 
L 178.217851 191.305093 
L 179.221882 191.305093 
L 179.297668 183.183949 
L 179.640358 183.183949 
L 179.764989 175.062804 
L 179.818004 175.062804 
L 179.928387 166.941659 
L 180.225892 166.941659 
L 180.228418 175.062804 
L 180.3259 166.941659 
L 180.418755 150.699369 
L 180.475898 158.820514 
L 180.534466 158.820514 
L 180.693771 166.941659 
L 180.952092 166.941659 
L 181.077254 158.820514 
L 181.177168 158.820514 
L 181.358607 183.183949 
L 181.384176 175.062804 
L 181.38634 175.062804 
L 181.50103 183.183949 
L 181.94445 183.183949 
L 182.181485 175.062804 
L 182.624564 175.062804 
L 182.647119 183.183949 
L 182.930085 183.183949 
L 182.977288 175.062804 
L 183.161765 183.183949 
L 183.373519 175.062804 
L 183.543939 175.062804 
L 183.584053 183.183949 
L 183.800074 183.183949 
L 183.978796 158.820514 
L 184.502625 158.820514 
L 184.608982 166.941659 
L 184.668483 166.941659 
L 184.719557 175.062804 
L 184.819077 175.062804 
L 185.030631 183.183949 
L 186.103524 183.183949 
L 186.308605 191.305093 
L 186.684343 191.305093 
L 186.773926 183.183949 
L 186.908259 191.305093 
L 187.357216 183.183949 
L 187.568237 183.183949 
L 187.693682 175.062804 
L 187.699311 183.183949 
L 187.848992 175.062804 
L 187.963266 166.941659 
L 187.998253 166.941659 
L 188.1129 183.183949 
L 189.082199 183.183949 
L 189.104277 175.062804 
L 189.143374 183.183949 
L 189.405252 183.183949 
L 189.608165 166.941659 
L 189.728129 175.062804 
L 189.793423 166.941659 
L 189.817542 175.062804 
L 189.932762 166.941659 
L 190.02262 158.820514 
L 190.160631 175.062804 
L 190.456046 175.062804 
L 190.462832 166.941659 
L 190.806574 166.941659 
L 190.831874 158.820514 
L 190.895677 175.062804 
L 191.418964 175.062804 
L 191.521718 183.183949 
L 191.600724 183.183949 
L 191.680668 175.062804 
L 191.707277 183.183949 
L 191.861075 175.062804 
L 191.939516 183.183949 
L 192.051795 175.062804 
L 192.139169 175.062804 
L 192.201881 166.941659 
L 192.442306 183.183949 
L 192.455136 175.062804 
L 192.561543 150.699369 
L 192.569887 158.820514 
L 192.754256 158.820514 
L 192.792306 166.941659 
L 192.806569 158.820514 
L 192.971359 150.699369 
L 193.214001 150.699369 
L 193.252209 142.578225 
L 193.589269 158.820514 
L 193.617207 158.820514 
L 193.701252 175.062804 
L 193.946735 175.062804 
L 194.019493 183.183949 
L 194.146441 175.062804 
L 194.521594 175.062804 
L 194.649821 183.183949 
L 195.477262 183.183949 
L 195.62518 175.062804 
L 195.744071 175.062804 
L 195.801837 166.941659 
L 195.939621 166.941659 
L 196.094666 183.183949 
L 196.110171 175.062804 
L 196.284117 166.941659 
L 196.371584 158.820514 
L 196.450855 183.183949 
L 196.535752 175.062804 
L 196.579564 175.062804 
L 196.701324 166.941659 
L 196.716913 183.183949 
L 196.868309 183.183949 
L 196.974966 191.305093 
L 196.976809 183.183949 
L 196.993806 175.062804 
L 197.340206 175.062804 
L 197.421063 166.941659 
L 197.621027 166.941659 
L 197.658606 142.578225 
L 197.766312 142.578225 
L 197.840295 134.45708 
L 197.875873 142.578225 
L 197.877598 142.578225 
L 197.990321 134.45708 
L 198.086673 150.699369 
L 198.230122 166.941659 
L 198.326446 175.062804 
L 198.390035 175.062804 
L 198.408152 166.941659 
L 198.500363 175.062804 
L 198.727323 175.062804 
L 198.729326 183.183949 
L 198.872484 175.062804 
L 199.108303 191.305093 
L 199.32112 191.305093 
L 199.452179 183.183949 
L 199.837869 175.062804 
L 199.995201 175.062804 
L 200.073525 158.820514 
L 200.221265 166.941659 
L 200.260079 166.941659 
L 200.331368 158.820514 
L 200.359585 166.941659 
L 200.486418 150.699369 
L 200.508225 158.820514 
L 200.588445 158.820514 
L 200.690299 166.941659 
L 200.866648 166.941659 
L 200.987654 175.062804 
L 201.025892 175.062804 
L 201.093137 166.941659 
L 201.17068 166.941659 
L 201.256282 175.062804 
L 201.805394 175.062804 
L 201.866735 166.941659 
L 201.893042 175.062804 
L 201.952361 175.062804 
L 202.040236 166.941659 
L 202.051414 175.062804 
L 202.079097 175.062804 
L 202.12321 183.183949 
L 202.136927 166.941659 
L 202.235247 175.062804 
L 202.464537 183.183949 
L 202.473036 191.305093 
L 202.737265 191.305093 
L 202.927532 183.183949 
L 203.293782 183.183949 
L 203.779966 191.305093 
L 203.845672 183.183949 
L 204.041971 175.062804 
L 204.242896 158.820514 
L 204.315671 166.941659 
L 204.340266 158.820514 
L 204.515625 158.820514 
L 204.542974 166.941659 
L 204.836071 166.941659 
L 204.969694 175.062804 
L 205.222044 183.183949 
L 205.402292 175.062804 
L 205.465166 166.941659 
L 205.731818 158.820514 
L 205.893011 158.820514 
L 205.903374 166.941659 
L 206.025461 166.941659 
L 206.246131 183.183949 
L 206.378826 175.062804 
L 206.503048 191.305093 
L 206.590532 183.183949 
L 206.89479 183.183949 
L 207.021131 166.941659 
L 207.085915 175.062804 
L 207.254617 166.941659 
L 207.274761 175.062804 
L 207.414538 175.062804 
L 207.448153 166.941659 
L 207.664245 166.941659 
L 207.685772 175.062804 
L 207.959885 175.062804 
L 208.013801 183.183949 
L 208.766961 183.183949 
L 208.796015 191.305093 
L 208.838216 183.183949 
L 208.882878 166.941659 
L 208.96299 175.062804 
L 209.108672 175.062804 
L 209.550176 166.941659 
L 209.62051 175.062804 
L 209.658874 166.941659 
L 209.783494 158.820514 
L 209.923463 166.941659 
L 210.032362 158.820514 
L 210.321512 158.820514 
L 210.379735 166.941659 
L 210.383227 158.820514 
L 210.46297 150.699369 
L 210.628136 158.820514 
L 210.706243 150.699369 
L 210.99727 150.699369 
L 211.077698 166.941659 
L 211.100988 158.820514 
L 211.232283 150.699369 
L 211.491212 158.820514 
L 211.654328 175.062804 
L 211.994444 175.062804 
L 212.032976 166.941659 
L 212.312414 166.941659 
L 212.3893 175.062804 
L 212.81484 175.062804 
L 212.823809 183.183949 
L 212.992818 191.305093 
L 212.998721 183.183949 
L 213.383074 166.941659 
L 213.473592 166.941659 
L 213.724313 175.062804 
L 213.910242 183.183949 
L 214.129388 191.305093 
L 214.349812 183.183949 
L 214.434874 191.305093 
L 227.282759 191.305093 
L 227.519987 166.941659 
L 227.740561 191.305093 
L 227.874572 175.062804 
L 227.907723 183.183949 
L 227.994519 183.183949 
L 228.064069 175.062804 
L 228.315334 191.305093 
L 228.473505 166.941659 
L 228.488545 175.062804 
L 228.552294 175.062804 
L 228.627939 166.941659 
L 228.831936 166.941659 
L 228.845672 158.820514 
L 228.918607 166.941659 
L 229.308959 166.941659 
L 229.401101 175.062804 
L 229.524157 175.062804 
L 229.595868 183.183949 
L 229.883532 191.305093 
L 236.236614 191.305093 
L 236.569878 175.062804 
L 236.615592 183.183949 
L 237.469414 183.183949 
L 237.633891 191.305093 
L 237.738118 191.305093 
L 238.348597 183.183949 
L 238.662868 166.941659 
L 238.705083 175.062804 
L 238.759725 166.941659 
L 238.781484 166.941659 
L 239.046475 175.062804 
L 239.409459 183.183949 
L 239.652036 183.183949 
L 239.798091 191.305093 
L 249.746366 191.305093 
L 250.027558 183.183949 
L 250.159422 191.305093 
L 257.805362 191.305093 
L 257.93783 183.183949 
L 258.14936 183.183949 
L 258.159894 191.305093 
L 262.957302 191.305093 
L 263.391705 175.062804 
L 263.601979 175.062804 
L 264.280687 183.183949 
L 264.398524 191.305093 
L 265.863766 191.305093 
L 266.014691 175.062804 
L 266.358258 183.183949 
L 266.428991 183.183949 
L 266.603868 191.305093 
L 273.929326 191.305093 
L 273.930896 183.183949 
L 274.387911 183.183949 
L 274.647151 166.941659 
L 274.823943 175.062804 
L 274.890972 175.062804 
L 275.021216 183.183949 
L 275.122697 183.183949 
L 275.162107 175.062804 
L 275.3269 183.183949 
L 275.488091 183.183949 
L 275.74923 175.062804 
L 275.886984 158.820514 
L 275.927776 158.820514 
L 276.096043 150.699369 
L 276.176631 158.820514 
L 276.439787 158.820514 
L 276.480308 142.578225 
L 276.548444 158.820514 
L 276.75541 158.820514 
L 277.004833 166.941659 
L 277.144364 166.941659 
L 277.196862 175.062804 
L 277.231249 166.941659 
L 277.403502 166.941659 
L 277.460239 158.820514 
L 277.484331 166.941659 
L 277.611782 175.062804 
L 277.818514 175.062804 
L 277.867763 183.183949 
L 278.033766 166.941659 
L 278.081356 175.062804 
L 278.189003 175.062804 
L 278.374516 166.941659 
L 278.397688 183.183949 
L 278.61934 175.062804 
L 278.638402 183.183949 
L 278.819607 183.183949 
L 278.944219 175.062804 
L 279.030584 183.183949 
L 279.27609 175.062804 
L 279.365203 175.062804 
L 279.459642 183.183949 
L 279.643541 183.183949 
L 279.907396 175.062804 
L 280.044356 183.183949 
L 280.23954 175.062804 
L 280.362944 183.183949 
L 280.416438 183.183949 
L 280.605986 175.062804 
L 280.695198 166.941659 
L 280.89166 175.062804 
L 281.162797 175.062804 
L 281.417054 183.183949 
L 281.957812 183.183949 
L 281.982191 191.305093 
L 291.642797 191.305093 
L 291.645806 183.183949 
L 291.674323 191.305093 
L 291.949029 183.183949 
L 292.146347 191.305093 
L 292.711884 191.305093 
L 292.940452 175.062804 
L 292.982553 191.305093 
L 299.593813 191.305093 
L 299.749765 183.183949 
L 299.766138 191.305093 
L 312.422447 191.305093 
L 312.422447 191.305093 
" clip-path="url(#p2500ef70a4)" style="fill: none; stroke: #000000; stroke-width: 1.5; stroke-linecap: square"/>
   </g>
   <g id="patch_8">
    <path d="M 44.103906 195.365666 
L 44.103906 106.033073 
" style="fill: none; stroke: #000000; stroke-width: 0.8; stroke-linejoin: miter; stroke-linecap: square"/>
   </g>
   <g id="patch_9">
    <path d="M 325.19952 195.365666 
L 325.19952 106.033073 
" style="fill: none; stroke: #000000; stroke-width: 0.8; stroke-linejoin: miter; stroke-linecap: square"/>
   </g>
   <g id="patch_10">
    <path d="M 44.103906 195.365666 
L 325.19952 195.365666 
" style="fill: none; stroke: #000000; stroke-width: 0.8; stroke-linejoin: miter; stroke-linecap: square"/>
   </g>
   <g id="patch_11">
    <path d="M 44.103906 106.033073 
L 325.19952 106.033073 
" style="fill: none; stroke: #000000; stroke-width: 0.8; stroke-linejoin: miter; stroke-linecap: square"/>
   </g>
  </g>
  <g id="axes_3">
   <g id="patch_12">
    <path d="M 44.103906 294.198739 
L 325.19952 294.198739 
L 325.19952 204.866146 
L 44.103906 204.866146 
z
" style="fill: #ffffff"/>
   </g>
   <g id="matplotlib.axis_5">
    <g id="xtick_19">
     <g id="line2d_27">
      <g>
       <use xlink:href="#mf36e15e163" x="56.88098" y="294.198739" style="stroke: #000000; stroke-width: 0.8"/>
      </g>
     </g>
     <g id="text_9">
      <!-- 0 -->
      <g transform="translate(53.69973 308.796395) scale(0.1 -0.1)">
       <use xlink:href="#DejaVuSans-13"/>
      </g>
     </g>
    </g>
    <g id="xtick_20">
     <g id="line2d_28">
      <g>
       <use xlink:href="#mf36e15e163" x="88.294747" y="294.198739" style="stroke: #000000; stroke-width: 0.8"/>
      </g>
     </g>
     <g id="text_10">
      <!-- 100 -->
      <g transform="translate(78.750997 308.796395) scale(0.1 -0.1)">
       <use xlink:href="#DejaVuSans-14"/>
       <use xlink:href="#DejaVuSans-13" transform="translate(63.625 0)"/>
       <use xlink:href="#DejaVuSans-13" transform="translate(127.25 0)"/>
      </g>
     </g>
    </g>
    <g id="xtick_21">
     <g id="line2d_29">
      <g>
       <use xlink:href="#mf36e15e163" x="119.708514" y="294.198739" style="stroke: #000000; stroke-width: 0.8"/>
      </g>
     </g>
     <g id="text_11">
      <!-- 200 -->
      <g transform="translate(110.164764 308.796395) scale(0.1 -0.1)">
       <defs>
        <path id="DejaVuSans-15" d="M 1228 531 
L 3431 531 
L 3431 0 
L 469 0 
L 469 531 
Q 828 903 1448 1529 
Q 2069 2156 2228 2338 
Q 2531 2678 2651 2914 
Q 2772 3150 2772 3378 
Q 2772 3750 2511 3984 
Q 2250 4219 1831 4219 
Q 1534 4219 1204 4116 
Q 875 4013 500 3803 
L 500 4441 
Q 881 4594 1212 4672 
Q 1544 4750 1819 4750 
Q 2544 4750 2975 4387 
Q 3406 4025 3406 3419 
Q 3406 3131 3298 2873 
Q 3191 2616 2906 2266 
Q 2828 2175 2409 1742 
Q 1991 1309 1228 531 
z
" transform="scale(0.015625)"/>
       </defs>
       <use xlink:href="#DejaVuSans-15"/>
       <use xlink:href="#DejaVuSans-13" transform="translate(63.625 0)"/>
       <use xlink:href="#DejaVuSans-13" transform="translate(127.25 0)"/>
      </g>
     </g>
    </g>
    <g id="xtick_22">
     <g id="line2d_30">
      <g>
       <use xlink:href="#mf36e15e163" x="151.122281" y="294.198739" style="stroke: #000000; stroke-width: 0.8"/>
      </g>
     </g>
     <g id="text_12">
      <!-- 300 -->
      <g transform="translate(141.578531 308.796395) scale(0.1 -0.1)">
       <defs>
        <path id="DejaVuSans-16" d="M 2597 2516 
Q 3050 2419 3304 2112 
Q 3559 1806 3559 1356 
Q 3559 666 3084 287 
Q 2609 -91 1734 -91 
Q 1441 -91 1130 -33 
Q 819 25 488 141 
L 488 750 
Q 750 597 1062 519 
Q 1375 441 1716 441 
Q 2309 441 2620 675 
Q 2931 909 2931 1356 
Q 2931 1769 2642 2001 
Q 2353 2234 1838 2234 
L 1294 2234 
L 1294 2753 
L 1863 2753 
Q 2328 2753 2575 2939 
Q 2822 3125 2822 3475 
Q 2822 3834 2567 4026 
Q 2313 4219 1838 4219 
Q 1578 4219 1281 4162 
Q 984 4106 628 3988 
L 628 4550 
Q 988 4650 1302 4700 
Q 1616 4750 1894 4750 
Q 2613 4750 3031 4423 
Q 3450 4097 3450 3541 
Q 3450 3153 3228 2886 
Q 3006 2619 2597 2516 
z
" transform="scale(0.015625)"/>
       </defs>
       <use xlink:href="#DejaVuSans-16"/>
       <use xlink:href="#DejaVuSans-13" transform="translate(63.625 0)"/>
       <use xlink:href="#DejaVuSans-13" transform="translate(127.25 0)"/>
      </g>
     </g>
    </g>
    <g id="xtick_23">
     <g id="line2d_31">
      <g>
       <use xlink:href="#mf36e15e163" x="182.536049" y="294.198739" style="stroke: #000000; stroke-width: 0.8"/>
      </g>
     </g>
     <g id="text_13">
      <!-- 400 -->
      <g transform="translate(172.992299 308.796395) scale(0.1 -0.1)">
       <defs>
        <path id="DejaVuSans-17" d="M 2419 4116 
L 825 1625 
L 2419 1625 
L 2419 4116 
z
M 2253 4666 
L 3047 4666 
L 3047 1625 
L 3713 1625 
L 3713 1100 
L 3047 1100 
L 3047 0 
L 2419 0 
L 2419 1100 
L 313 1100 
L 313 1709 
L 2253 4666 
z
" transform="scale(0.015625)"/>
       </defs>
       <use xlink:href="#DejaVuSans-17"/>
       <use xlink:href="#DejaVuSans-13" transform="translate(63.625 0)"/>
       <use xlink:href="#DejaVuSans-13" transform="translate(127.25 0)"/>
      </g>
     </g>
    </g>
    <g id="xtick_24">
     <g id="line2d_32">
      <g>
       <use xlink:href="#mf36e15e163" x="213.949816" y="294.198739" style="stroke: #000000; stroke-width: 0.8"/>
      </g>
     </g>
     <g id="text_14">
      <!-- 500 -->
      <g transform="translate(204.406066 308.796395) scale(0.1 -0.1)">
       <use xlink:href="#DejaVuSans-18"/>
       <use xlink:href="#DejaVuSans-13" transform="translate(63.625 0)"/>
       <use xlink:href="#DejaVuSans-13" transform="translate(127.25 0)"/>
      </g>
     </g>
    </g>
    <g id="xtick_25">
     <g id="line2d_33">
      <g>
       <use xlink:href="#mf36e15e163" x="245.363583" y="294.198739" style="stroke: #000000; stroke-width: 0.8"/>
      </g>
     </g>
     <g id="text_15">
      <!-- 600 -->
      <g transform="translate(235.819833 308.796395) scale(0.1 -0.1)">
       <defs>
        <path id="DejaVuSans-19" d="M 2113 2584 
Q 1688 2584 1439 2293 
Q 1191 2003 1191 1497 
Q 1191 994 1439 701 
Q 1688 409 2113 409 
Q 2538 409 2786 701 
Q 3034 994 3034 1497 
Q 3034 2003 2786 2293 
Q 2538 2584 2113 2584 
z
M 3366 4563 
L 3366 3988 
Q 3128 4100 2886 4159 
Q 2644 4219 2406 4219 
Q 1781 4219 1451 3797 
Q 1122 3375 1075 2522 
Q 1259 2794 1537 2939 
Q 1816 3084 2150 3084 
Q 2853 3084 3261 2657 
Q 3669 2231 3669 1497 
Q 3669 778 3244 343 
Q 2819 -91 2113 -91 
Q 1303 -91 875 529 
Q 447 1150 447 2328 
Q 447 3434 972 4092 
Q 1497 4750 2381 4750 
Q 2619 4750 2861 4703 
Q 3103 4656 3366 4563 
z
" transform="scale(0.015625)"/>
       </defs>
       <use xlink:href="#DejaVuSans-19"/>
       <use xlink:href="#DejaVuSans-13" transform="translate(63.625 0)"/>
       <use xlink:href="#DejaVuSans-13" transform="translate(127.25 0)"/>
      </g>
     </g>
    </g>
    <g id="xtick_26">
     <g id="line2d_34">
      <g>
       <use xlink:href="#mf36e15e163" x="276.777351" y="294.198739" style="stroke: #000000; stroke-width: 0.8"/>
      </g>
     </g>
     <g id="text_16">
      <!-- 700 -->
      <g transform="translate(267.233601 308.796395) scale(0.1 -0.1)">
       <defs>
        <path id="DejaVuSans-1a" d="M 525 4666 
L 3525 4666 
L 3525 4397 
L 1831 0 
L 1172 0 
L 2766 4134 
L 525 4134 
L 525 4666 
z
" transform="scale(0.015625)"/>
       </defs>
       <use xlink:href="#DejaVuSans-1a"/>
       <use xlink:href="#DejaVuSans-13" transform="translate(63.625 0)"/>
       <use xlink:href="#DejaVuSans-13" transform="translate(127.25 0)"/>
      </g>
     </g>
    </g>
    <g id="xtick_27">
     <g id="line2d_35">
      <g>
       <use xlink:href="#mf36e15e163" x="308.191118" y="294.198739" style="stroke: #000000; stroke-width: 0.8"/>
      </g>
     </g>
     <g id="text_17">
      <!-- 800 -->
      <g transform="translate(298.647368 308.796395) scale(0.1 -0.1)">
       <defs>
        <path id="DejaVuSans-1b" d="M 2034 2216 
Q 1584 2216 1326 1975 
Q 1069 1734 1069 1313 
Q 1069 891 1326 650 
Q 1584 409 2034 409 
Q 2484 409 2743 651 
Q 3003 894 3003 1313 
Q 3003 1734 2745 1975 
Q 2488 2216 2034 2216 
z
M 1403 2484 
Q 997 2584 770 2862 
Q 544 3141 544 3541 
Q 544 4100 942 4425 
Q 1341 4750 2034 4750 
Q 2731 4750 3128 4425 
Q 3525 4100 3525 3541 
Q 3525 3141 3298 2862 
Q 3072 2584 2669 2484 
Q 3125 2378 3379 2068 
Q 3634 1759 3634 1313 
Q 3634 634 3220 271 
Q 2806 -91 2034 -91 
Q 1263 -91 848 271 
Q 434 634 434 1313 
Q 434 1759 690 2068 
Q 947 2378 1403 2484 
z
M 1172 3481 
Q 1172 3119 1398 2916 
Q 1625 2713 2034 2713 
Q 2441 2713 2670 2916 
Q 2900 3119 2900 3481 
Q 2900 3844 2670 4047 
Q 2441 4250 2034 4250 
Q 1625 4250 1398 4047 
Q 1172 3844 1172 3481 
z
" transform="scale(0.015625)"/>
       </defs>
       <use xlink:href="#DejaVuSans-1b"/>
       <use xlink:href="#DejaVuSans-13" transform="translate(63.625 0)"/>
       <use xlink:href="#DejaVuSans-13" transform="translate(127.25 0)"/>
      </g>
     </g>
    </g>
    <g id="text_18">
     <!-- Time -->
     <g transform="translate(172.415776 322.797176) scale(0.1 -0.1)">
      <defs>
       <path id="DejaVuSans-37" d="M -19 4666 
L 3928 4666 
L 3928 4134 
L 2272 4134 
L 2272 0 
L 1638 0 
L 1638 4134 
L -19 4134 
L -19 4666 
z
" transform="scale(0.015625)"/>
       <path id="DejaVuSans-4c" d="M 603 3500 
L 1178 3500 
L 1178 0 
L 603 0 
L 603 3500 
z
M 603 4863 
L 1178 4863 
L 1178 4134 
L 603 4134 
L 603 4863 
z
" transform="scale(0.015625)"/>
       <path id="DejaVuSans-50" d="M 3328 2828 
Q 3544 3216 3844 3400 
Q 4144 3584 4550 3584 
Q 5097 3584 5394 3201 
Q 5691 2819 5691 2113 
L 5691 0 
L 5113 0 
L 5113 2094 
Q 5113 2597 4934 2840 
Q 4756 3084 4391 3084 
Q 3944 3084 3684 2787 
Q 3425 2491 3425 1978 
L 3425 0 
L 2847 0 
L 2847 2094 
Q 2847 2600 2669 2842 
Q 2491 3084 2119 3084 
Q 1678 3084 1418 2786 
Q 1159 2488 1159 1978 
L 1159 0 
L 581 0 
L 581 3500 
L 1159 3500 
L 1159 2956 
Q 1356 3278 1631 3431 
Q 1906 3584 2284 3584 
Q 2666 3584 2933 3390 
Q 3200 3197 3328 2828 
z
" transform="scale(0.015625)"/>
      </defs>
      <use xlink:href="#DejaVuSans-37"/>
      <use xlink:href="#DejaVuSans-4c" transform="translate(58 0)"/>
      <use xlink:href="#DejaVuSans-50" transform="translate(85.78125 0)"/>
      <use xlink:href="#DejaVuSans-48" transform="translate(183.1875 0)"/>
     </g>
    </g>
   </g>
   <g id="matplotlib.axis_6">
    <g id="ytick_7">
     <g id="line2d_36">
      <g>
       <use xlink:href="#mf363bf9140" x="44.103906" y="290.138166" style="stroke: #000000; stroke-width: 0.8"/>
      </g>
     </g>
     <g id="text_19">
      <!-- 0.0 -->
      <g transform="translate(21.200781 293.936994) scale(0.1 -0.1)">
       <defs>
        <path id="DejaVuSans-11" d="M 684 794 
L 1344 794 
L 1344 0 
L 684 0 
L 684 794 
z
" transform="scale(0.015625)"/>
       </defs>
       <use xlink:href="#DejaVuSans-13"/>
       <use xlink:href="#DejaVuSans-11" transform="translate(63.625 0)"/>
       <use xlink:href="#DejaVuSans-13" transform="translate(95.40625 0)"/>
      </g>
     </g>
    </g>
    <g id="ytick_8">
     <g id="line2d_37">
      <g>
       <use xlink:href="#mf363bf9140" x="44.103906" y="249.532442" style="stroke: #000000; stroke-width: 0.8"/>
      </g>
     </g>
     <g id="text_20">
      <!-- 0.5 -->
      <g transform="translate(21.200781 253.33127) scale(0.1 -0.1)">
       <use xlink:href="#DejaVuSans-13"/>
       <use xlink:href="#DejaVuSans-11" transform="translate(63.625 0)"/>
       <use xlink:href="#DejaVuSans-18" transform="translate(95.40625 0)"/>
      </g>
     </g>
    </g>
    <g id="ytick_9">
     <g id="line2d_38">
      <g>
       <use xlink:href="#mf363bf9140" x="44.103906" y="208.926718" style="stroke: #000000; stroke-width: 0.8"/>
      </g>
     </g>
     <g id="text_21">
      <!-- 1.0 -->
      <g transform="translate(21.200781 212.725546) scale(0.1 -0.1)">
       <use xlink:href="#DejaVuSans-14"/>
       <use xlink:href="#DejaVuSans-11" transform="translate(63.625 0)"/>
       <use xlink:href="#DejaVuSans-13" transform="translate(95.40625 0)"/>
      </g>
     </g>
    </g>
    <g id="text_22">
     <!-- Free lac operon -->
     <g transform="translate(14.798438 288.006661) rotate(-90) scale(0.1 -0.1)">
      <defs>
       <path id="DejaVuSans-29" d="M 628 4666 
L 3309 4666 
L 3309 4134 
L 1259 4134 
L 1259 2759 
L 3109 2759 
L 3109 2228 
L 1259 2228 
L 1259 0 
L 628 0 
L 628 4666 
z
" transform="scale(0.015625)"/>
       <path id="DejaVuSans-53" d="M 1159 525 
L 1159 -1331 
L 581 -1331 
L 581 3500 
L 1159 3500 
L 1159 2969 
Q 1341 3281 1617 3432 
Q 1894 3584 2278 3584 
Q 2916 3584 3314 3078 
Q 3713 2572 3713 1747 
Q 3713 922 3314 415 
Q 2916 -91 2278 -91 
Q 1894 -91 1617 61 
Q 1341 213 1159 525 
z
M 3116 1747 
Q 3116 2381 2855 2742 
Q 2594 3103 2138 3103 
Q 1681 3103 1420 2742 
Q 1159 2381 1159 1747 
Q 1159 1113 1420 752 
Q 1681 391 2138 391 
Q 2594 391 2855 752 
Q 3116 1113 3116 1747 
z
" transform="scale(0.015625)"/>
       <path id="DejaVuSans-51" d="M 3513 2113 
L 3513 0 
L 2938 0 
L 2938 2094 
Q 2938 2591 2744 2837 
Q 2550 3084 2163 3084 
Q 1697 3084 1428 2787 
Q 1159 2491 1159 1978 
L 1159 0 
L 581 0 
L 581 3500 
L 1159 3500 
L 1159 2956 
Q 1366 3272 1645 3428 
Q 1925 3584 2291 3584 
Q 2894 3584 3203 3211 
Q 3513 2838 3513 2113 
z
" transform="scale(0.015625)"/>
      </defs>
      <use xlink:href="#DejaVuSans-29"/>
      <use xlink:href="#DejaVuSans-55" transform="translate(50.234375 0)"/>
      <use xlink:href="#DejaVuSans-48" transform="translate(89.140625 0)"/>
      <use xlink:href="#DejaVuSans-48" transform="translate(150.671875 0)"/>
      <use xlink:href="#DejaVuSans-3" transform="translate(212.203125 0)"/>
      <use xlink:href="#DejaVuSans-4f" transform="translate(243.984375 0)"/>
      <use xlink:href="#DejaVuSans-44" transform="translate(271.765625 0)"/>
      <use xlink:href="#DejaVuSans-46" transform="translate(333.046875 0)"/>
      <use xlink:href="#DejaVuSans-3" transform="translate(388.03125 0)"/>
      <use xlink:href="#DejaVuSans-52" transform="translate(419.8125 0)"/>
      <use xlink:href="#DejaVuSans-53" transform="translate(481 0)"/>
      <use xlink:href="#DejaVuSans-48" transform="translate(544.484375 0)"/>
      <use xlink:href="#DejaVuSans-55" transform="translate(606.015625 0)"/>
      <use xlink:href="#DejaVuSans-52" transform="translate(644.921875 0)"/>
      <use xlink:href="#DejaVuSans-51" transform="translate(706.109375 0)"/>
     </g>
    </g>
   </g>
   <g id="line2d_39">
    <path d="M 56.88098 208.926718 
L 56.961325 290.138166 
L 57.127198 290.138166 
L 57.294346 208.926718 
L 57.410818 208.926718 
L 57.511485 290.138166 
L 58.710316 290.138166 
L 59.685963 208.926718 
L 59.869632 208.926718 
L 59.892051 290.138166 
L 62.278768 290.138166 
L 64.836075 208.926718 
L 65.126741 208.926718 
L 65.262214 290.138166 
L 65.386281 290.138166 
L 71.95315 208.926718 
L 72.120504 290.138166 
L 79.847649 208.926718 
L 79.895982 290.138166 
L 82.484774 208.926718 
L 82.622756 208.926718 
L 82.676141 290.138166 
L 84.391511 290.138166 
L 84.456005 208.926718 
L 85.319724 208.926718 
L 85.506976 290.138166 
L 86.524999 290.138166 
L 89.474662 208.926718 
L 90.006919 208.926718 
L 90.035778 290.138166 
L 90.38855 290.138166 
L 91.257295 208.926718 
L 91.314903 290.138166 
L 91.653811 290.138166 
L 108.483629 208.926718 
L 108.497134 290.138166 
L 108.751888 290.138166 
L 109.024053 208.926718 
L 109.307282 290.138166 
L 109.433513 208.926718 
L 109.835409 208.926718 
L 110.037054 290.138166 
L 110.325494 290.138166 
L 114.427869 208.926718 
L 115.079005 290.138166 
L 116.697455 208.926718 
L 117.008158 290.138166 
L 117.670922 208.926718 
L 117.756992 290.138166 
L 118.751851 208.926718 
L 118.835541 290.138166 
L 122.721723 290.138166 
L 128.654095 208.926718 
L 128.75852 290.138166 
L 130.47576 208.926718 
L 130.920075 208.926718 
L 130.941208 290.138166 
L 132.755058 290.138166 
L 135.313405 208.926718 
L 135.32652 290.138166 
L 138.166183 208.926718 
L 138.208301 290.138166 
L 145.150399 208.926718 
L 146.081154 208.926718 
L 146.148485 290.138166 
L 146.756053 290.138166 
L 146.997565 208.926718 
L 147.307919 208.926718 
L 147.419045 290.138166 
L 148.474268 290.138166 
L 148.978348 208.926718 
L 149.077653 290.138166 
L 150.182635 290.138166 
L 150.193794 208.926718 
L 150.353009 290.138166 
L 154.599582 208.926718 
L 154.687237 290.138166 
L 154.932972 208.926718 
L 184.635223 208.926718 
L 184.719557 290.138166 
L 186.308605 290.138166 
L 186.684343 208.926718 
L 208.013801 208.926718 
L 208.244795 290.138166 
L 208.677663 290.138166 
L 208.876508 208.926718 
L 211.557941 208.926718 
L 211.654328 290.138166 
L 212.032976 208.926718 
L 214.534859 208.926718 
L 214.849988 290.138166 
L 220.859072 208.926718 
L 221.096532 290.138166 
L 225.483721 208.926718 
L 225.503907 290.138166 
L 227.354881 208.926718 
L 229.041668 208.926718 
L 229.13369 290.138166 
L 229.883532 290.138166 
L 230.072264 208.926718 
L 230.082404 290.138166 
L 236.236614 208.926718 
L 236.457429 208.926718 
L 236.615592 290.138166 
L 236.72897 208.926718 
L 236.744476 290.138166 
L 237.618966 290.138166 
L 237.738118 208.926718 
L 238.759725 208.926718 
L 238.781484 290.138166 
L 239.409459 290.138166 
L 239.622881 208.926718 
L 239.727244 290.138166 
L 240.014968 290.138166 
L 245.820612 208.926718 
L 245.842696 290.138166 
L 249.746366 208.926718 
L 250.361502 208.926718 
L 250.514243 290.138166 
L 254.859759 208.926718 
L 254.88147 290.138166 
L 257.889838 208.926718 
L 257.925815 290.138166 
L 257.93783 208.926718 
L 258.159894 208.926718 
L 258.324816 290.138166 
L 258.82806 208.926718 
L 258.859942 290.138166 
L 259.077748 290.138166 
L 259.227908 208.926718 
L 259.2768 290.138166 
L 262.957302 208.926718 
L 263.436334 208.926718 
L 263.446055 290.138166 
L 264.262728 290.138166 
L 264.280687 208.926718 
L 264.398524 208.926718 
L 264.778467 290.138166 
L 265.974501 208.926718 
L 265.98493 208.926718 
L 266.014691 290.138166 
L 266.603868 290.138166 
L 266.883723 208.926718 
L 267.104541 290.138166 
L 270.539984 208.926718 
L 270.759947 290.138166 
L 271.573584 208.926718 
L 271.657369 290.138166 
L 273.585796 208.926718 
L 273.834409 290.138166 
L 273.930896 208.926718 
L 274.312721 290.138166 
L 274.387911 208.926718 
L 281.317955 208.926718 
L 281.417054 290.138166 
L 281.982191 290.138166 
L 282.641803 208.926718 
L 282.998617 290.138166 
L 291.674323 208.926718 
L 292.092542 208.926718 
L 292.146347 290.138166 
L 292.772043 208.926718 
L 292.922492 208.926718 
L 292.982553 290.138166 
L 293.357442 290.138166 
L 293.371865 208.926718 
L 293.433963 290.138166 
L 293.712723 290.138166 
L 295.191762 208.926718 
L 295.212013 290.138166 
L 299.700494 208.926718 
L 299.766138 290.138166 
L 300.039799 290.138166 
L 301.683977 208.926718 
L 302.025276 290.138166 
L 312.422447 208.926718 
L 312.422447 208.926718 
" clip-path="url(#p19aee26b12)" style="fill: none; stroke: #000000; stroke-width: 1.5; stroke-linecap: square"/>
   </g>
   <g id="patch_13">
    <path d="M 44.103906 294.198739 
L 44.103906 204.866146 
" style="fill: none; stroke: #000000; stroke-width: 0.8; stroke-linejoin: miter; stroke-linecap: square"/>
   </g>
   <g id="patch_14">
    <path d="M 325.19952 294.198739 
L 325.19952 204.866146 
" style="fill: none; stroke: #000000; stroke-width: 0.8; stroke-linejoin: miter; stroke-linecap: square"/>
   </g>
   <g id="patch_15">
    <path d="M 44.103906 294.198739 
L 325.19952 294.198739 
" style="fill: none; stroke: #000000; stroke-width: 0.8; stroke-linejoin: miter; stroke-linecap: square"/>
   </g>
   <g id="patch_16">
    <path d="M 44.103906 204.866146 
L 325.19952 204.866146 
" style="fill: none; stroke: #000000; stroke-width: 0.8; stroke-linejoin: miter; stroke-linecap: square"/>
   </g>
  </g>
 </g>
 <defs>
  <clipPath id="p391b29a6c0">
   <rect x="44.103906" y="7.2" width="281.095614" height="89.332593"/>
  </clipPath>
  <clipPath id="p2500ef70a4">
   <rect x="44.103906" y="106.033073" width="281.095614" height="89.332593"/>
  </clipPath>
  <clipPath id="p19aee26b12">
   <rect x="44.103906" y="204.866146" width="281.095614" height="89.332593"/>
  </clipPath>
 </defs>
</svg>
