<?xml version="1.0" encoding="utf-8" standalone="no"?>
<!DOCTYPE svg PUBLIC "-//W3C//DTD SVG 1.1//EN"
  "http://www.w3.org/Graphics/SVG/1.1/DTD/svg11.dtd">
<svg xmlns:xlink="http://www.w3.org/1999/xlink" width="422.096027pt" height="310.86825pt" viewBox="0 0 422.096027 310.86825" xmlns="http://www.w3.org/2000/svg" version="1.1">
 <metadata>
  <rdf:RDF xmlns:dc="http://purl.org/dc/elements/1.1/" xmlns:cc="http://creativecommons.org/ns#" xmlns:rdf="http://www.w3.org/1999/02/22-rdf-syntax-ns#">
   <cc:Work>
    <dc:type rdf:resource="http://purl.org/dc/dcmitype/StillImage"/>
    <dc:date>2026-05-18T20:33:28.755890</dc:date>
    <dc:format>image/svg+xml</dc:format>
    <dc:creator>
     <cc:Agent>
      <dc:title>Matplotlib v3.10.9, https://matplotlib.org/</dc:title>
     </cc:Agent>
    </dc:creator>
   </cc:Work>
  </rdf:RDF>
 </metadata>
 <defs>
  <style type="text/css">*{stroke-linejoin: round; stroke-linecap: butt}</style>
 </defs>
 <g id="figure_1">
  <g id="patch_1">
   <path d="M 0 310.86825 
L 422.096027 310.86825 
L 422.096027 0 
L 0 0 
z
" style="fill: #ffffff"/>
  </g>
  <g id="axes_1">
   <g id="patch_2">
    <path d="M 46.965625 273.312 
L 404.085625 273.312 
L 404.085625 7.2 
L 46.965625 7.2 
z
" style="fill: #ffffff"/>
   </g>
   <g id="matplotlib.axis_1">
    <g id="xtick_1">
     <g id="line2d_1">
      <defs>
       <path id="mf79aeef6e9" d="M 0 0 
L 0 3.5 
" style="stroke: #000000; stroke-width: 0.8"/>
      </defs>
      <g>
       <use xlink:href="#mf79aeef6e9" x="46.965625" y="273.312" style="stroke: #000000; stroke-width: 0.8"/>
      </g>
     </g>
     <g id="text_1">
      <!-- 0.00 -->
      <g transform="translate(35.832813 287.910437) scale(0.1 -0.1)">
       <defs>
        <path id="DejaVuSans-30" d="M 2034 4250 
Q 1547 4250 1301 3770 
Q 1056 3291 1056 2328 
Q 1056 1369 1301 889 
Q 1547 409 2034 409 
Q 2525 409 2770 889 
Q 3016 1369 3016 2328 
Q 3016 3291 2770 3770 
Q 2525 4250 2034 4250 
z
M 2034 4750 
Q 2819 4750 3233 4129 
Q 3647 3509 3647 2328 
Q 3647 1150 3233 529 
Q 2819 -91 2034 -91 
Q 1250 -91 836 529 
Q 422 1150 422 2328 
Q 422 3509 836 4129 
Q 1250 4750 2034 4750 
z
" transform="scale(0.015625)"/>
        <path id="DejaVuSans-2e" d="M 684 794 
L 1344 794 
L 1344 0 
L 684 0 
L 684 794 
z
" transform="scale(0.015625)"/>
       </defs>
       <use xlink:href="#DejaVuSans-30"/>
       <use xlink:href="#DejaVuSans-2e" transform="translate(63.623047 0)"/>
       <use xlink:href="#DejaVuSans-30" transform="translate(95.410156 0)"/>
       <use xlink:href="#DejaVuSans-30" transform="translate(159.033203 0)"/>
      </g>
     </g>
    </g>
    <g id="xtick_2">
     <g id="line2d_2">
      <g>
       <use xlink:href="#mf79aeef6e9" x="91.565324" y="273.312" style="stroke: #000000; stroke-width: 0.8"/>
      </g>
     </g>
     <g id="text_2">
      <!-- 0.25 -->
      <g transform="translate(80.432511 287.910437) scale(0.1 -0.1)">
       <defs>
        <path id="DejaVuSans-32" d="M 1228 531 
L 3431 531 
L 3431 0 
L 469 0 
L 469 531 
Q 828 903 1448 1529 
Q 2069 2156 2228 2338 
Q 2531 2678 2651 2914 
Q 2772 3150 2772 3378 
Q 2772 3750 2511 3984 
Q 2250 4219 1831 4219 
Q 1534 4219 1204 4116 
Q 875 4013 500 3803 
L 500 4441 
Q 881 4594 1212 4672 
Q 1544 4750 1819 4750 
Q 2544 4750 2975 4387 
Q 3406 4025 3406 3419 
Q 3406 3131 3298 2873 
Q 3191 2616 2906 2266 
Q 2828 2175 2409 1742 
Q 1991 1309 1228 531 
z
" transform="scale(0.015625)"/>
        <path id="DejaVuSans-35" d="M 691 4666 
L 3169 4666 
L 3169 4134 
L 1269 4134 
L 1269 2991 
Q 1406 3038 1543 3061 
Q 1681 3084 1819 3084 
Q 2600 3084 3056 2656 
Q 3513 2228 3513 1497 
Q 3513 744 3044 326 
Q 2575 -91 1722 -91 
Q 1428 -91 1123 -41 
Q 819 9 494 109 
L 494 744 
Q 775 591 1075 516 
Q 1375 441 1709 441 
Q 2250 441 2565 725 
Q 2881 1009 2881 1497 
Q 2881 1984 2565 2268 
Q 2250 2553 1709 2553 
Q 1456 2553 1204 2497 
Q 953 2441 691 2322 
L 691 4666 
z
" transform="scale(0.015625)"/>
       </defs>
       <use xlink:href="#DejaVuSans-30"/>
       <use xlink:href="#DejaVuSans-2e" transform="translate(63.623047 0)"/>
       <use xlink:href="#DejaVuSans-32" transform="translate(95.410156 0)"/>
       <use xlink:href="#DejaVuSans-35" transform="translate(159.033203 0)"/>
      </g>
     </g>
    </g>
    <g id="xtick_3">
     <g id="line2d_3">
      <g>
       <use xlink:href="#mf79aeef6e9" x="136.165022" y="273.312" style="stroke: #000000; stroke-width: 0.8"/>
      </g>
     </g>
     <g id="text_3">
      <!-- 0.50 -->
      <g transform="translate(125.03221 287.910437) scale(0.1 -0.1)">
       <use xlink:href="#DejaVuSans-30"/>
       <use xlink:href="#DejaVuSans-2e" transform="translate(63.623047 0)"/>
       <use xlink:href="#DejaVuSans-35" transform="translate(95.410156 0)"/>
       <use xlink:href="#DejaVuSans-30" transform="translate(159.033203 0)"/>
      </g>
     </g>
    </g>
    <g id="xtick_4">
     <g id="line2d_4">
      <g>
       <use xlink:href="#mf79aeef6e9" x="180.764721" y="273.312" style="stroke: #000000; stroke-width: 0.8"/>
      </g>
     </g>
     <g id="text_4">
      <!-- 0.75 -->
      <g transform="translate(169.631909 287.910437) scale(0.1 -0.1)">
       <defs>
        <path id="DejaVuSans-37" d="M 525 4666 
L 3525 4666 
L 3525 4397 
L 1831 0 
L 1172 0 
L 2766 4134 
L 525 4134 
L 525 4666 
z
" transform="scale(0.015625)"/>
       </defs>
       <use xlink:href="#DejaVuSans-30"/>
       <use xlink:href="#DejaVuSans-2e" transform="translate(63.623047 0)"/>
       <use xlink:href="#DejaVuSans-37" transform="translate(95.410156 0)"/>
       <use xlink:href="#DejaVuSans-35" transform="translate(159.033203 0)"/>
      </g>
     </g>
    </g>
    <g id="xtick_5">
     <g id="line2d_5">
      <g>
       <use xlink:href="#mf79aeef6e9" x="225.36442" y="273.312" style="stroke: #000000; stroke-width: 0.8"/>
      </g>
     </g>
     <g id="text_5">
      <!-- 1.00 -->
      <g transform="translate(214.231607 287.910437) scale(0.1 -0.1)">
       <defs>
        <path id="DejaVuSans-31" d="M 794 531 
L 1825 531 
L 1825 4091 
L 703 3866 
L 703 4441 
L 1819 4666 
L 2450 4666 
L 2450 531 
L 3481 531 
L 3481 0 
L 794 0 
L 794 531 
z
" transform="scale(0.015625)"/>
       </defs>
       <use xlink:href="#DejaVuSans-31"/>
       <use xlink:href="#DejaVuSans-2e" transform="translate(63.623047 0)"/>
       <use xlink:href="#DejaVuSans-30" transform="translate(95.410156 0)"/>
       <use xlink:href="#DejaVuSans-30" transform="translate(159.033203 0)"/>
      </g>
     </g>
    </g>
    <g id="xtick_6">
     <g id="line2d_6">
      <g>
       <use xlink:href="#mf79aeef6e9" x="269.964119" y="273.312" style="stroke: #000000; stroke-width: 0.8"/>
      </g>
     </g>
     <g id="text_6">
      <!-- 1.25 -->
      <g transform="translate(258.831306 287.910437) scale(0.1 -0.1)">
       <use xlink:href="#DejaVuSans-31"/>
       <use xlink:href="#DejaVuSans-2e" transform="translate(63.623047 0)"/>
       <use xlink:href="#DejaVuSans-32" transform="translate(95.410156 0)"/>
       <use xlink:href="#DejaVuSans-35" transform="translate(159.033203 0)"/>
      </g>
     </g>
    </g>
    <g id="xtick_7">
     <g id="line2d_7">
      <g>
       <use xlink:href="#mf79aeef6e9" x="314.563817" y="273.312" style="stroke: #000000; stroke-width: 0.8"/>
      </g>
     </g>
     <g id="text_7">
      <!-- 1.50 -->
      <g transform="translate(303.431005 287.910437) scale(0.1 -0.1)">
       <use xlink:href="#DejaVuSans-31"/>
       <use xlink:href="#DejaVuSans-2e" transform="translate(63.623047 0)"/>
       <use xlink:href="#DejaVuSans-35" transform="translate(95.410156 0)"/>
       <use xlink:href="#DejaVuSans-30" transform="translate(159.033203 0)"/>
      </g>
     </g>
    </g>
    <g id="xtick_8">
     <g id="line2d_8">
      <g>
       <use xlink:href="#mf79aeef6e9" x="359.163516" y="273.312" style="stroke: #000000; stroke-width: 0.8"/>
      </g>
     </g>
     <g id="text_8">
      <!-- 1.75 -->
      <g transform="translate(348.030704 287.910437) scale(0.1 -0.1)">
       <use xlink:href="#DejaVuSans-31"/>
       <use xlink:href="#DejaVuSans-2e" transform="translate(63.623047 0)"/>
       <use xlink:href="#DejaVuSans-37" transform="translate(95.410156 0)"/>
       <use xlink:href="#DejaVuSans-35" transform="translate(159.033203 0)"/>
      </g>
     </g>
    </g>
    <g id="xtick_9">
     <g id="line2d_9">
      <g>
       <use xlink:href="#mf79aeef6e9" x="403.763215" y="273.312" style="stroke: #000000; stroke-width: 0.8"/>
      </g>
     </g>
     <g id="text_9">
      <!-- 2.00 -->
      <g transform="translate(392.630402 287.910437) scale(0.1 -0.1)">
       <use xlink:href="#DejaVuSans-32"/>
       <use xlink:href="#DejaVuSans-2e" transform="translate(63.623047 0)"/>
       <use xlink:href="#DejaVuSans-30" transform="translate(95.410156 0)"/>
       <use xlink:href="#DejaVuSans-30" transform="translate(159.033203 0)"/>
      </g>
     </g>
    </g>
    <g id="text_10">
     <!-- Time -->
     <g transform="translate(213.292031 301.588562) scale(0.1 -0.1)">
      <defs>
       <path id="DejaVuSans-54" d="M -19 4666 
L 3928 4666 
L 3928 4134 
L 2272 4134 
L 2272 0 
L 1638 0 
L 1638 4134 
L -19 4134 
L -19 4666 
z
" transform="scale(0.015625)"/>
       <path id="DejaVuSans-69" d="M 603 3500 
L 1178 3500 
L 1178 0 
L 603 0 
L 603 3500 
z
M 603 4863 
L 1178 4863 
L 1178 4134 
L 603 4134 
L 603 4863 
z
" transform="scale(0.015625)"/>
       <path id="DejaVuSans-6d" d="M 3328 2828 
Q 3544 3216 3844 3400 
Q 4144 3584 4550 3584 
Q 5097 3584 5394 3201 
Q 5691 2819 5691 2113 
L 5691 0 
L 5113 0 
L 5113 2094 
Q 5113 2597 4934 2840 
Q 4756 3084 4391 3084 
Q 3944 3084 3684 2787 
Q 3425 2491 3425 1978 
L 3425 0 
L 2847 0 
L 2847 2094 
Q 2847 2600 2669 2842 
Q 2491 3084 2119 3084 
Q 1678 3084 1418 2786 
Q 1159 2488 1159 1978 
L 1159 0 
L 581 0 
L 581 3500 
L 1159 3500 
L 1159 2956 
Q 1356 3278 1631 3431 
Q 1906 3584 2284 3584 
Q 2666 3584 2933 3390 
Q 3200 3197 3328 2828 
z
" transform="scale(0.015625)"/>
       <path id="DejaVuSans-65" d="M 3597 1894 
L 3597 1613 
L 953 1613 
Q 991 1019 1311 708 
Q 1631 397 2203 397 
Q 2534 397 2845 478 
Q 3156 559 3463 722 
L 3463 178 
Q 3153 47 2828 -22 
Q 2503 -91 2169 -91 
Q 1331 -91 842 396 
Q 353 884 353 1716 
Q 353 2575 817 3079 
Q 1281 3584 2069 3584 
Q 2775 3584 3186 3129 
Q 3597 2675 3597 1894 
z
M 3022 2063 
Q 3016 2534 2758 2815 
Q 2500 3097 2075 3097 
Q 1594 3097 1305 2825 
Q 1016 2553 972 2059 
L 3022 2063 
z
" transform="scale(0.015625)"/>
      </defs>
      <use xlink:href="#DejaVuSans-54"/>
      <use xlink:href="#DejaVuSans-69" transform="translate(57.958984 0)"/>
      <use xlink:href="#DejaVuSans-6d" transform="translate(85.742188 0)"/>
      <use xlink:href="#DejaVuSans-65" transform="translate(183.154297 0)"/>
     </g>
    </g>
   </g>
   <g id="matplotlib.axis_2">
    <g id="ytick_1">
     <g id="line2d_10">
      <defs>
       <path id="m67e2a41321" d="M 0 0 
L -3.5 0 
" style="stroke: #000000; stroke-width: 0.8"/>
      </defs>
      <g>
       <use xlink:href="#m67e2a41321" x="46.965625" y="273.312" style="stroke: #000000; stroke-width: 0.8"/>
      </g>
     </g>
     <g id="text_11">
      <!-- 0 -->
      <g transform="translate(33.603125 277.111219) scale(0.1 -0.1)">
       <use xlink:href="#DejaVuSans-30"/>
      </g>
     </g>
    </g>
    <g id="ytick_2">
     <g id="line2d_11">
      <g>
       <use xlink:href="#m67e2a41321" x="46.965625" y="236.858301" style="stroke: #000000; stroke-width: 0.8"/>
      </g>
     </g>
     <g id="text_12">
      <!-- 20 -->
      <g transform="translate(27.240625 240.65752) scale(0.1 -0.1)">
       <use xlink:href="#DejaVuSans-32"/>
       <use xlink:href="#DejaVuSans-30" transform="translate(63.623047 0)"/>
      </g>
     </g>
    </g>
    <g id="ytick_3">
     <g id="line2d_12">
      <g>
       <use xlink:href="#m67e2a41321" x="46.965625" y="200.404603" style="stroke: #000000; stroke-width: 0.8"/>
      </g>
     </g>
     <g id="text_13">
      <!-- 40 -->
      <g transform="translate(27.240625 204.203821) scale(0.1 -0.1)">
       <defs>
        <path id="DejaVuSans-34" d="M 2419 4116 
L 825 1625 
L 2419 1625 
L 2419 4116 
z
M 2253 4666 
L 3047 4666 
L 3047 1625 
L 3713 1625 
L 3713 1100 
L 3047 1100 
L 3047 0 
L 2419 0 
L 2419 1100 
L 313 1100 
L 313 1709 
L 2253 4666 
z
" transform="scale(0.015625)"/>
       </defs>
       <use xlink:href="#DejaVuSans-34"/>
       <use xlink:href="#DejaVuSans-30" transform="translate(63.623047 0)"/>
      </g>
     </g>
    </g>
    <g id="ytick_4">
     <g id="line2d_13">
      <g>
       <use xlink:href="#m67e2a41321" x="46.965625" y="163.950904" style="stroke: #000000; stroke-width: 0.8"/>
      </g>
     </g>
     <g id="text_14">
      <!-- 60 -->
      <g transform="translate(27.240625 167.750123) scale(0.1 -0.1)">
       <defs>
        <path id="DejaVuSans-36" d="M 2113 2584 
Q 1688 2584 1439 2293 
Q 1191 2003 1191 1497 
Q 1191 994 1439 701 
Q 1688 409 2113 409 
Q 2538 409 2786 701 
Q 3034 994 3034 1497 
Q 3034 2003 2786 2293 
Q 2538 2584 2113 2584 
z
M 3366 4563 
L 3366 3988 
Q 3128 4100 2886 4159 
Q 2644 4219 2406 4219 
Q 1781 4219 1451 3797 
Q 1122 3375 1075 2522 
Q 1259 2794 1537 2939 
Q 1816 3084 2150 3084 
Q 2853 3084 3261 2657 
Q 3669 2231 3669 1497 
Q 3669 778 3244 343 
Q 2819 -91 2113 -91 
Q 1303 -91 875 529 
Q 447 1150 447 2328 
Q 447 3434 972 4092 
Q 1497 4750 2381 4750 
Q 2619 4750 2861 4703 
Q 3103 4656 3366 4563 
z
" transform="scale(0.015625)"/>
       </defs>
       <use xlink:href="#DejaVuSans-36"/>
       <use xlink:href="#DejaVuSans-30" transform="translate(63.623047 0)"/>
      </g>
     </g>
    </g>
    <g id="ytick_5">
     <g id="line2d_14">
      <g>
       <use xlink:href="#m67e2a41321" x="46.965625" y="127.497205" style="stroke: #000000; stroke-width: 0.8"/>
      </g>
     </g>
     <g id="text_15">
      <!-- 80 -->
      <g transform="translate(27.240625 131.296424) scale(0.1 -0.1)">
       <defs>
        <path id="DejaVuSans-38" d="M 2034 2216 
Q 1584 2216 1326 1975 
Q 1069 1734 1069 1313 
Q 1069 891 1326 650 
Q 1584 409 2034 409 
Q 2484 409 2743 651 
Q 3003 894 3003 1313 
Q 3003 1734 2745 1975 
Q 2488 2216 2034 2216 
z
M 1403 2484 
Q 997 2584 770 2862 
Q 544 3141 544 3541 
Q 544 4100 942 4425 
Q 1341 4750 2034 4750 
Q 2731 4750 3128 4425 
Q 3525 4100 3525 3541 
Q 3525 3141 3298 2862 
Q 3072 2584 2669 2484 
Q 3125 2378 3379 2068 
Q 3634 1759 3634 1313 
Q 3634 634 3220 271 
Q 2806 -91 2034 -91 
Q 1263 -91 848 271 
Q 434 634 434 1313 
Q 434 1759 690 2068 
Q 947 2378 1403 2484 
z
M 1172 3481 
Q 1172 3119 1398 2916 
Q 1625 2713 2034 2713 
Q 2441 2713 2670 2916 
Q 2900 3119 2900 3481 
Q 2900 3844 2670 4047 
Q 2441 4250 2034 4250 
Q 1625 4250 1398 4047 
Q 1172 3844 1172 3481 
z
" transform="scale(0.015625)"/>
       </defs>
       <use xlink:href="#DejaVuSans-38"/>
       <use xlink:href="#DejaVuSans-30" transform="translate(63.623047 0)"/>
      </g>
     </g>
    </g>
    <g id="ytick_6">
     <g id="line2d_15">
      <g>
       <use xlink:href="#m67e2a41321" x="46.965625" y="91.043507" style="stroke: #000000; stroke-width: 0.8"/>
      </g>
     </g>
     <g id="text_16">
      <!-- 100 -->
      <g transform="translate(20.878125 94.842726) scale(0.1 -0.1)">
       <use xlink:href="#DejaVuSans-31"/>
       <use xlink:href="#DejaVuSans-30" transform="translate(63.623047 0)"/>
       <use xlink:href="#DejaVuSans-30" transform="translate(127.246094 0)"/>
      </g>
     </g>
    </g>
    <g id="ytick_7">
     <g id="line2d_16">
      <g>
       <use xlink:href="#m67e2a41321" x="46.965625" y="54.589808" style="stroke: #000000; stroke-width: 0.8"/>
      </g>
     </g>
     <g id="text_17">
      <!-- 120 -->
      <g transform="translate(20.878125 58.389027) scale(0.1 -0.1)">
       <use xlink:href="#DejaVuSans-31"/>
       <use xlink:href="#DejaVuSans-32" transform="translate(63.623047 0)"/>
       <use xlink:href="#DejaVuSans-30" transform="translate(127.246094 0)"/>
      </g>
     </g>
    </g>
    <g id="ytick_8">
     <g id="line2d_17">
      <g>
       <use xlink:href="#m67e2a41321" x="46.965625" y="18.13611" style="stroke: #000000; stroke-width: 0.8"/>
      </g>
     </g>
     <g id="text_18">
      <!-- 140 -->
      <g transform="translate(20.878125 21.935328) scale(0.1 -0.1)">
       <use xlink:href="#DejaVuSans-31"/>
       <use xlink:href="#DejaVuSans-34" transform="translate(63.623047 0)"/>
       <use xlink:href="#DejaVuSans-30" transform="translate(127.246094 0)"/>
      </g>
     </g>
    </g>
    <g id="text_19">
     <!-- Observable -->
     <g transform="translate(14.798438 168.766156) rotate(-90) scale(0.1 -0.1)">
      <defs>
       <path id="DejaVuSans-4f" d="M 2522 4238 
Q 1834 4238 1429 3725 
Q 1025 3213 1025 2328 
Q 1025 1447 1429 934 
Q 1834 422 2522 422 
Q 3209 422 3611 934 
Q 4013 1447 4013 2328 
Q 4013 3213 3611 3725 
Q 3209 4238 2522 4238 
z
M 2522 4750 
Q 3503 4750 4090 4092 
Q 4678 3434 4678 2328 
Q 4678 1225 4090 567 
Q 3503 -91 2522 -91 
Q 1538 -91 948 565 
Q 359 1222 359 2328 
Q 359 3434 948 4092 
Q 1538 4750 2522 4750 
z
" transform="scale(0.015625)"/>
       <path id="DejaVuSans-62" d="M 3116 1747 
Q 3116 2381 2855 2742 
Q 2594 3103 2138 3103 
Q 1681 3103 1420 2742 
Q 1159 2381 1159 1747 
Q 1159 1113 1420 752 
Q 1681 391 2138 391 
Q 2594 391 2855 752 
Q 3116 1113 3116 1747 
z
M 1159 2969 
Q 1341 3281 1617 3432 
Q 1894 3584 2278 3584 
Q 2916 3584 3314 3078 
Q 3713 2572 3713 1747 
Q 3713 922 3314 415 
Q 2916 -91 2278 -91 
Q 1894 -91 1617 61 
Q 1341 213 1159 525 
L 1159 0 
L 581 0 
L 581 4863 
L 1159 4863 
L 1159 2969 
z
" transform="scale(0.015625)"/>
       <path id="DejaVuSans-73" d="M 2834 3397 
L 2834 2853 
Q 2591 2978 2328 3040 
Q 2066 3103 1784 3103 
Q 1356 3103 1142 2972 
Q 928 2841 928 2578 
Q 928 2378 1081 2264 
Q 1234 2150 1697 2047 
L 1894 2003 
Q 2506 1872 2764 1633 
Q 3022 1394 3022 966 
Q 3022 478 2636 193 
Q 2250 -91 1575 -91 
Q 1294 -91 989 -36 
Q 684 19 347 128 
L 347 722 
Q 666 556 975 473 
Q 1284 391 1588 391 
Q 1994 391 2212 530 
Q 2431 669 2431 922 
Q 2431 1156 2273 1281 
Q 2116 1406 1581 1522 
L 1381 1569 
Q 847 1681 609 1914 
Q 372 2147 372 2553 
Q 372 3047 722 3315 
Q 1072 3584 1716 3584 
Q 2034 3584 2315 3537 
Q 2597 3491 2834 3397 
z
" transform="scale(0.015625)"/>
       <path id="DejaVuSans-72" d="M 2631 2963 
Q 2534 3019 2420 3045 
Q 2306 3072 2169 3072 
Q 1681 3072 1420 2755 
Q 1159 2438 1159 1844 
L 1159 0 
L 581 0 
L 581 3500 
L 1159 3500 
L 1159 2956 
Q 1341 3275 1631 3429 
Q 1922 3584 2338 3584 
Q 2397 3584 2469 3576 
Q 2541 3569 2628 3553 
L 2631 2963 
z
" transform="scale(0.015625)"/>
       <path id="DejaVuSans-76" d="M 191 3500 
L 800 3500 
L 1894 563 
L 2988 3500 
L 3597 3500 
L 2284 0 
L 1503 0 
L 191 3500 
z
" transform="scale(0.015625)"/>
       <path id="DejaVuSans-61" d="M 2194 1759 
Q 1497 1759 1228 1600 
Q 959 1441 959 1056 
Q 959 750 1161 570 
Q 1363 391 1709 391 
Q 2188 391 2477 730 
Q 2766 1069 2766 1631 
L 2766 1759 
L 2194 1759 
z
M 3341 1997 
L 3341 0 
L 2766 0 
L 2766 531 
Q 2569 213 2275 61 
Q 1981 -91 1556 -91 
Q 1019 -91 701 211 
Q 384 513 384 1019 
Q 384 1609 779 1909 
Q 1175 2209 1959 2209 
L 2766 2209 
L 2766 2266 
Q 2766 2663 2505 2880 
Q 2244 3097 1772 3097 
Q 1472 3097 1187 3025 
Q 903 2953 641 2809 
L 641 3341 
Q 956 3463 1253 3523 
Q 1550 3584 1831 3584 
Q 2591 3584 2966 3190 
Q 3341 2797 3341 1997 
z
" transform="scale(0.015625)"/>
       <path id="DejaVuSans-6c" d="M 603 4863 
L 1178 4863 
L 1178 0 
L 603 0 
L 603 4863 
z
" transform="scale(0.015625)"/>
      </defs>
      <use xlink:href="#DejaVuSans-4f"/>
      <use xlink:href="#DejaVuSans-62" transform="translate(78.710938 0)"/>
      <use xlink:href="#DejaVuSans-73" transform="translate(142.1875 0)"/>
      <use xlink:href="#DejaVuSans-65" transform="translate(194.287109 0)"/>
      <use xlink:href="#DejaVuSans-72" transform="translate(255.810547 0)"/>
      <use xlink:href="#DejaVuSans-76" transform="translate(296.923828 0)"/>
      <use xlink:href="#DejaVuSans-61" transform="translate(356.103516 0)"/>
      <use xlink:href="#DejaVuSans-62" transform="translate(417.382812 0)"/>
      <use xlink:href="#DejaVuSans-6c" transform="translate(480.859375 0)"/>
      <use xlink:href="#DejaVuSans-65" transform="translate(508.642578 0)"/>
     </g>
    </g>
   </g>
   <g id="line2d_18">
    <path d="M 46.965625 273.312 
L 47.079771 260.553205 
L 47.345075 229.567562 
L 47.387588 222.276822 
L 47.487641 214.986082 
L 48.391667 174.887014 
L 48.659394 173.064329 
L 48.739843 171.241644 
L 49.031735 169.418959 
L 49.216987 162.128219 
L 49.648307 154.837479 
L 49.814153 153.014795 
L 49.841739 151.19211 
L 50.068232 149.369425 
L 50.127857 147.54674 
L 50.850358 143.90137 
L 50.912543 142.078685 
L 51.839261 140.256 
L 51.908606 136.61063 
L 52.356119 134.787945 
L 52.451584 136.61063 
L 52.492082 134.787945 
L 53.383465 132.96526 
L 53.698034 134.787945 
L 54.217568 131.142575 
L 54.95201 129.31989 
L 55.3979 131.142575 
L 55.751644 129.31989 
L 56.208206 125.674521 
L 56.641747 123.851836 
L 56.886256 125.674521 
L 57.714667 123.851836 
L 57.91827 120.206466 
L 58.368435 118.383781 
L 59.486954 116.561096 
L 59.580382 118.383781 
L 59.785165 116.561096 
L 60.182917 114.738411 
L 65.615004 112.915726 
L 66.517504 111.093041 
L 66.583315 109.270356 
L 67.323894 112.915726 
L 67.405087 114.738411 
L 68.199082 116.561096 
L 68.303481 114.738411 
L 68.746903 116.561096 
L 69.197843 114.738411 
L 70.169674 112.915726 
L 70.407395 114.738411 
L 70.582764 111.093041 
L 72.716246 109.270356 
L 74.058461 107.447671 
L 75.150287 109.270356 
L 75.313595 107.447671 
L 77.802628 105.624986 
L 78.591601 107.447671 
L 78.715725 105.624986 
L 79.231338 107.447671 
L 79.511744 105.624986 
L 80.394543 103.802301 
L 80.813971 105.624986 
L 84.219592 107.447671 
L 88.632672 109.270356 
L 89.120756 111.093041 
L 92.357423 109.270356 
L 92.692596 107.447671 
L 93.620537 109.270356 
L 94.879297 111.093041 
L 95.325011 112.915726 
L 96.235328 114.738411 
L 96.930072 116.561096 
L 97.027444 114.738411 
L 97.531627 116.561096 
L 97.989065 114.738411 
L 98.777468 112.915726 
L 101.357632 111.093041 
L 103.371078 109.270356 
L 103.463474 111.093041 
L 104.692861 109.270356 
L 104.962518 111.093041 
L 105.12574 109.270356 
L 106.927043 107.447671 
L 107.768634 105.624986 
L 109.037738 103.802301 
L 110.07161 105.624986 
L 111.806246 103.802301 
L 111.958913 101.979616 
L 113.364016 103.802301 
L 115.084289 101.979616 
L 118.549638 103.802301 
L 118.838259 107.447671 
L 120.644164 109.270356 
L 123.504882 111.093041 
L 124.598458 112.915726 
L 124.628672 111.093041 
L 124.67658 112.915726 
L 125.330436 111.093041 
L 126.12463 112.915726 
L 126.432051 111.093041 
L 128.865812 112.915726 
L 131.403455 111.093041 
L 131.786097 112.915726 
L 133.524261 114.738411 
L 134.434545 116.561096 
L 136.614487 118.383781 
L 137.021733 116.561096 
L 138.075092 118.383781 
L 139.104714 114.738411 
L 139.617562 116.561096 
L 140.42303 112.915726 
L 141.737749 114.738411 
L 142.248632 112.915726 
L 143.630142 114.738411 
L 143.864595 112.915726 
L 144.481375 114.738411 
L 144.596971 112.915726 
L 147.222134 111.093041 
L 150.176894 112.915726 
L 150.702635 109.270356 
L 151.532231 111.093041 
L 151.547772 109.270356 
L 152.8965 112.915726 
L 153.464038 114.738411 
L 154.11209 111.093041 
L 154.926995 109.270356 
L 156.314397 111.093041 
L 156.382936 109.270356 
L 156.80901 111.093041 
L 156.928289 109.270356 
L 158.931725 111.093041 
L 159.48666 109.270356 
L 160.721243 107.447671 
L 161.668562 105.624986 
L 165.191677 107.447671 
L 166.132679 109.270356 
L 168.356932 107.447671 
L 169.567741 109.270356 
L 169.845782 107.447671 
L 169.950447 109.270356 
L 169.973138 107.447671 
L 171.032288 109.270356 
L 172.690532 107.447671 
L 173.598005 109.270356 
L 173.683643 107.447671 
L 174.076643 105.624986 
L 174.941514 103.802301 
L 175.082694 101.979616 
L 176.069037 100.156932 
L 176.11326 101.979616 
L 178.762764 100.156932 
L 180.184092 101.979616 
L 180.455158 103.802301 
L 181.068912 105.624986 
L 181.882446 107.447671 
L 182.400138 109.270356 
L 183.318941 111.093041 
L 183.346962 109.270356 
L 185.526569 112.915726 
L 185.575341 111.093041 
L 186.006461 112.915726 
L 186.133288 111.093041 
L 186.777279 112.915726 
L 187.865212 114.738411 
L 188.53862 112.915726 
L 188.545727 111.093041 
L 190.751465 112.915726 
L 191.382717 114.738411 
L 191.99326 118.383781 
L 193.341487 120.206466 
L 193.814681 122.029151 
L 193.910431 120.206466 
L 195.26994 114.738411 
L 195.826112 116.561096 
L 195.861318 114.738411 
L 196.036072 116.561096 
L 196.362683 118.383781 
L 196.394532 116.561096 
L 196.563328 114.738411 
L 197.014716 116.561096 
L 197.491315 112.915726 
L 197.609629 114.738411 
L 198.355919 112.915726 
L 198.494188 111.093041 
L 198.763104 109.270356 
L 199.500883 111.093041 
L 199.545435 114.738411 
L 200.861466 112.915726 
L 201.270507 111.093041 
L 201.417414 112.915726 
L 202.678007 111.093041 
L 203.636643 109.270356 
L 204.390218 107.447671 
L 204.452858 105.624986 
L 204.955039 107.447671 
L 205.862955 105.624986 
L 206.12984 107.447671 
L 206.390025 111.093041 
L 207.004605 112.915726 
L 207.769261 114.738411 
L 207.828243 112.915726 
L 208.751792 109.270356 
L 209.925024 107.447671 
L 213.499239 105.624986 
L 214.638185 103.802301 
L 214.959814 105.624986 
L 215.152465 109.270356 
L 216.189731 107.447671 
L 216.572697 109.270356 
L 217.36113 111.093041 
L 218.426684 112.915726 
L 220.186324 111.093041 
L 220.24047 109.270356 
L 220.560515 111.093041 
L 221.437595 109.270356 
L 222.704037 111.093041 
L 224.22287 112.915726 
L 224.567451 114.738411 
L 225.256121 112.915726 
L 226.927752 111.093041 
L 227.278257 100.156932 
L 227.449411 94.688877 
L 227.499805 91.043507 
L 227.6705 87.398137 
L 228.135639 65.525918 
L 228.415913 61.880548 
L 228.535841 58.235178 
L 228.822407 52.767123 
L 229.392443 49.121753 
L 229.449167 47.299068 
L 229.770853 50.944438 
L 229.802353 49.121753 
L 229.950203 47.299068 
L 230.011889 43.653699 
L 230.59952 41.831014 
L 230.988739 40.008329 
L 231.533319 38.185644 
L 231.618474 40.008329 
L 231.699228 38.185644 
L 231.947606 36.362959 
L 232.045306 40.008329 
L 232.49225 38.185644 
L 233.0596 40.008329 
L 233.367732 38.185644 
L 233.391184 36.362959 
L 234.123822 32.717589 
L 234.261016 30.894904 
L 234.363771 32.717589 
L 234.637416 30.894904 
L 234.966403 25.426849 
L 235.266009 23.604164 
L 235.548578 25.426849 
L 235.618065 27.249534 
L 236.347873 29.072219 
L 236.437761 30.894904 
L 236.819205 29.072219 
L 236.918379 30.894904 
L 236.925207 29.072219 
L 237.529823 27.249534 
L 237.875644 29.072219 
L 238.015463 27.249534 
L 238.315975 25.426849 
L 238.384416 27.249534 
L 238.564263 23.604164 
L 239.324646 25.426849 
L 241.400052 27.249534 
L 241.674523 25.426849 
L 242.220222 23.604164 
L 242.308536 25.426849 
L 242.411657 23.604164 
L 243.299652 21.781479 
L 243.497458 19.958795 
L 244.379704 21.781479 
L 244.463107 23.604164 
L 245.197229 21.781479 
L 245.34027 19.958795 
L 246.479516 16.313425 
L 246.530551 18.13611 
L 246.772691 19.958795 
L 247.670749 21.781479 
L 248.77441 23.604164 
L 248.807371 25.426849 
L 249.643316 27.249534 
L 251.343389 25.426849 
L 251.722446 23.604164 
L 251.926156 21.781479 
L 252.658434 23.604164 
L 252.742423 25.426849 
L 253.65588 27.249534 
L 254.348098 25.426849 
L 254.493276 27.249534 
L 255.049525 25.426849 
L 256.024846 23.604164 
L 257.135033 25.426849 
L 257.473489 23.604164 
L 259.594883 25.426849 
L 259.791992 23.604164 
L 260.284686 25.426849 
L 260.394417 27.249534 
L 260.569676 25.426849 
L 261.02952 27.249534 
L 261.327131 25.426849 
L 261.475285 29.072219 
L 262.046773 30.894904 
L 262.072995 32.717589 
L 262.22567 30.894904 
L 262.605087 29.072219 
L 263.226593 27.249534 
L 263.693988 29.072219 
L 263.731451 30.894904 
L 264.812498 29.072219 
L 264.922129 30.894904 
L 265.202217 29.072219 
L 265.362636 27.249534 
L 265.479149 29.072219 
L 266.015685 27.249534 
L 266.296987 25.426849 
L 266.358216 27.249534 
L 267.138008 23.604164 
L 268.370815 25.426849 
L 269.437827 27.249534 
L 270.483577 25.426849 
L 271.252903 23.604164 
L 271.360132 25.426849 
L 271.666173 23.604164 
L 272.174144 21.781479 
L 273.311557 19.958795 
L 274.812881 16.313425 
L 275.041604 14.49074 
L 275.200771 16.313425 
L 278.13226 14.49074 
L 278.769267 16.313425 
L 279.755938 14.49074 
L 280.088094 10.84537 
L 280.666048 9.022685 
L 281.592326 7.2 
L 285.395527 9.022685 
L 287.078995 10.84537 
L 288.291874 12.668055 
L 288.621532 14.49074 
L 288.808219 16.313425 
L 289.161263 18.13611 
L 289.241547 19.958795 
L 289.788718 21.781479 
L 289.89817 19.958795 
L 289.992352 21.781479 
L 289.993124 19.958795 
L 290.389712 18.13611 
L 290.884308 19.958795 
L 290.939503 21.781479 
L 291.507087 23.604164 
L 291.989907 18.13611 
L 292.236428 19.958795 
L 292.679769 21.781479 
L 292.850127 19.958795 
L 293.428685 21.781479 
L 293.770914 23.604164 
L 293.817919 25.426849 
L 293.923223 23.604164 
L 294.174544 21.781479 
L 294.999246 19.958795 
L 295.508327 21.781479 
L 295.578776 23.604164 
L 297.026501 25.426849 
L 297.838591 27.249534 
L 298.042637 29.072219 
L 298.142769 27.249534 
L 298.204401 29.072219 
L 298.273239 27.249534 
L 298.713064 29.072219 
L 298.967742 30.894904 
L 299.363046 29.072219 
L 299.431544 27.249534 
L 299.707993 25.426849 
L 299.726442 27.249534 
L 300.221828 25.426849 
L 301.50572 23.604164 
L 302.083257 21.781479 
L 302.435987 19.958795 
L 303.077115 18.13611 
L 303.549121 16.313425 
L 303.578964 18.13611 
L 303.78257 16.313425 
L 304.630049 19.958795 
L 305.208744 21.781479 
L 305.517606 19.958795 
L 305.857137 21.781479 
L 305.969403 19.958795 
L 307.708732 16.313425 
L 308.096423 18.13611 
L 308.831657 16.313425 
L 309.588408 18.13611 
L 310.17046 19.958795 
L 310.230477 18.13611 
L 310.870701 19.958795 
L 312.54075 23.604164 
L 312.65163 25.426849 
L 312.65623 23.604164 
L 312.86955 25.426849 
L 314.188485 27.249534 
L 314.395828 29.072219 
L 314.440048 25.426849 
L 314.606942 27.249534 
L 315.52971 25.426849 
L 315.837876 27.249534 
L 315.943648 29.072219 
L 316.485364 27.249534 
L 316.625824 29.072219 
L 316.889232 25.426849 
L 317.127113 27.249534 
L 317.621355 25.426849 
L 318.03101 27.249534 
L 318.123835 25.426849 
L 318.346223 27.249534 
L 318.698455 25.426849 
L 319.451529 27.249534 
L 319.560535 29.072219 
L 320.694252 27.249534 
L 320.850211 29.072219 
L 320.880645 27.249534 
L 321.500548 29.072219 
L 321.954481 27.249534 
L 322.850802 29.072219 
L 322.969042 25.426849 
L 322.977953 27.249534 
L 323.409072 25.426849 
L 324.484444 23.604164 
L 325.237573 21.781479 
L 325.666262 19.958795 
L 326.05799 21.781479 
L 327.339152 23.604164 
L 327.470879 25.426849 
L 327.915582 23.604164 
L 328.133104 21.781479 
L 328.841203 19.958795 
L 328.941306 21.781479 
L 330.337521 25.426849 
L 330.433867 23.604164 
L 330.591622 25.426849 
L 331.172136 23.604164 
L 332.240028 25.426849 
L 332.583807 23.604164 
L 333.757832 25.426849 
L 333.869214 23.604164 
L 334.366576 25.426849 
L 334.3803 23.604164 
L 334.663762 19.958795 
L 337.273598 21.781479 
L 338.223017 18.13611 
L 340.011195 16.313425 
L 340.976696 14.49074 
L 341.277758 16.313425 
L 347.211522 18.13611 
L 348.278751 16.313425 
L 349.260361 18.13611 
L 349.785976 19.958795 
L 351.40331 21.781479 
L 351.505741 23.604164 
L 351.529545 21.781479 
L 352.286372 19.958795 
L 352.386009 21.781479 
L 352.818259 23.604164 
L 353.012772 25.426849 
L 354.39181 23.604164 
L 354.514399 25.426849 
L 355.133958 27.249534 
L 355.199868 29.072219 
L 355.440771 27.249534 
L 355.854837 25.426849 
L 356.642579 27.249534 
L 357.221532 29.072219 
L 357.365423 27.249534 
L 358.762612 29.072219 
L 359.347014 27.249534 
L 360.087313 23.604164 
L 360.373798 21.781479 
L 360.6805 23.604164 
L 360.700312 21.781479 
L 361.234361 23.604164 
L 361.66147 21.781479 
L 362.24061 23.604164 
L 362.421186 25.426849 
L 363.326043 27.249534 
L 363.56686 25.426849 
L 364.113906 30.894904 
L 364.236095 29.072219 
L 365.324668 27.249534 
L 366.08598 25.426849 
L 367.009525 23.604164 
L 369.265209 21.781479 
L 369.554653 23.604164 
L 370.223458 21.781479 
L 370.475351 23.604164 
L 371.111871 25.426849 
L 371.149542 27.249534 
L 371.496667 25.426849 
L 372.607007 23.604164 
L 372.71161 21.781479 
L 375.798762 19.958795 
L 375.822293 18.13611 
L 376.608832 19.958795 
L 378.033374 18.13611 
L 378.834429 16.313425 
L 379.827147 18.13611 
L 382.763657 19.958795 
L 382.978054 21.781479 
L 383.655423 23.604164 
L 383.667194 21.781479 
L 384.469536 23.604164 
L 384.990125 25.426849 
L 385.876039 27.249534 
L 385.944646 29.072219 
L 386.919379 27.249534 
L 387.620856 25.426849 
L 387.958452 27.249534 
L 388.05702 25.426849 
L 390.168991 23.604164 
L 390.545544 25.426849 
L 391.644989 23.604164 
L 392.563916 21.781479 
L 393.045569 19.958795 
L 393.155955 18.13611 
L 393.750697 21.781479 
L 394.669498 19.958795 
L 394.673506 18.13611 
L 396.99744 19.958795 
L 398.365562 18.13611 
L 399.302128 19.958795 
L 399.341211 21.781479 
L 400.896713 19.958795 
L 401.438233 18.13611 
L 402.584106 19.958795 
L 403.2262 18.13611 
L 403.2405 19.958795 
L 403.438001 21.781479 
L 403.598172 19.958795 
L 404.085625 21.781479 
L 404.085625 21.781479 
" clip-path="url(#p9dff30da3f)" style="fill: none; stroke: #1f77b4; stroke-width: 1.5; stroke-linecap: square"/>
   </g>
   <g id="line2d_19">
    <path d="M 226.972906 163.950904 
L 227.105968 165.773589 
L 227.221685 171.241644 
L 227.852929 194.936548 
L 228.008725 202.227288 
L 228.134218 205.872658 
L 228.135639 207.695342 
L 228.415913 211.340712 
L 228.535841 214.986082 
L 228.822407 220.454137 
L 229.392443 224.099507 
L 229.449167 225.922192 
L 229.770853 222.276822 
L 229.802353 224.099507 
L 229.950203 225.922192 
L 230.011889 229.567562 
L 230.59952 231.390247 
L 230.988739 233.212932 
L 231.533319 235.035616 
L 231.618474 233.212932 
L 231.699228 235.035616 
L 231.947606 236.858301 
L 232.045306 233.212932 
L 232.49225 235.035616 
L 233.0596 233.212932 
L 233.367732 235.035616 
L 233.391184 236.858301 
L 234.123822 240.503671 
L 234.261016 242.326356 
L 234.363771 240.503671 
L 234.637416 242.326356 
L 234.966403 247.794411 
L 235.266009 249.617096 
L 235.548578 247.794411 
L 235.618065 245.971726 
L 236.347873 244.149041 
L 236.437761 242.326356 
L 236.819205 244.149041 
L 236.918379 242.326356 
L 236.925207 244.149041 
L 237.529823 245.971726 
L 237.875644 244.149041 
L 238.015463 245.971726 
L 238.315975 247.794411 
L 238.384416 245.971726 
L 238.564263 249.617096 
L 239.324646 247.794411 
L 241.400052 245.971726 
L 241.674523 247.794411 
L 242.220222 249.617096 
L 242.308536 247.794411 
L 242.411657 249.617096 
L 243.299652 251.439781 
L 243.497458 253.262466 
L 244.379704 251.439781 
L 244.463107 249.617096 
L 245.197229 251.439781 
L 245.34027 253.262466 
L 246.479516 256.907836 
L 246.530551 255.085151 
L 246.772691 253.262466 
L 247.670749 251.439781 
L 248.77441 249.617096 
L 248.807371 247.794411 
L 249.643316 245.971726 
L 251.343389 247.794411 
L 251.722446 249.617096 
L 251.926156 251.439781 
L 252.658434 249.617096 
L 252.742423 247.794411 
L 253.65588 245.971726 
L 254.348098 247.794411 
L 254.493276 245.971726 
L 255.049525 247.794411 
L 256.024846 249.617096 
L 257.135033 247.794411 
L 257.473489 249.617096 
L 259.594883 247.794411 
L 259.791992 249.617096 
L 260.284686 247.794411 
L 260.394417 245.971726 
L 260.569676 247.794411 
L 261.02952 245.971726 
L 261.327131 247.794411 
L 261.475285 244.149041 
L 262.046773 242.326356 
L 262.072995 240.503671 
L 262.22567 242.326356 
L 262.605087 244.149041 
L 263.226593 245.971726 
L 263.693988 244.149041 
L 263.731451 242.326356 
L 264.812498 244.149041 
L 264.922129 242.326356 
L 265.202217 244.149041 
L 265.362636 245.971726 
L 265.479149 244.149041 
L 266.015685 245.971726 
L 266.296987 247.794411 
L 266.358216 245.971726 
L 267.138008 249.617096 
L 268.370815 247.794411 
L 269.437827 245.971726 
L 270.483577 247.794411 
L 271.252903 249.617096 
L 271.360132 247.794411 
L 271.666173 249.617096 
L 272.174144 251.439781 
L 273.311557 253.262466 
L 274.812881 256.907836 
L 275.041604 258.730521 
L 275.200771 256.907836 
L 278.13226 258.730521 
L 278.769267 256.907836 
L 279.755938 258.730521 
L 280.088094 262.37589 
L 280.666048 264.198575 
L 281.592326 266.02126 
L 285.395527 264.198575 
L 287.078995 262.37589 
L 288.291874 260.553205 
L 288.621532 258.730521 
L 288.808219 256.907836 
L 289.161263 255.085151 
L 289.241547 253.262466 
L 289.788718 251.439781 
L 289.89817 253.262466 
L 289.992352 251.439781 
L 289.993124 253.262466 
L 290.389712 255.085151 
L 290.884308 253.262466 
L 290.939503 251.439781 
L 291.507087 249.617096 
L 291.989907 255.085151 
L 292.236428 253.262466 
L 292.679769 251.439781 
L 292.850127 253.262466 
L 293.428685 251.439781 
L 293.770914 249.617096 
L 293.817919 247.794411 
L 293.923223 249.617096 
L 294.174544 251.439781 
L 294.999246 253.262466 
L 295.508327 251.439781 
L 295.578776 249.617096 
L 297.026501 247.794411 
L 297.838591 245.971726 
L 298.042637 244.149041 
L 298.142769 245.971726 
L 298.204401 244.149041 
L 298.273239 245.971726 
L 298.713064 244.149041 
L 298.967742 242.326356 
L 299.363046 244.149041 
L 299.431544 245.971726 
L 299.707993 247.794411 
L 299.726442 245.971726 
L 300.221828 247.794411 
L 301.50572 249.617096 
L 302.083257 251.439781 
L 302.435987 253.262466 
L 303.077115 255.085151 
L 303.549121 256.907836 
L 303.578964 255.085151 
L 303.78257 256.907836 
L 304.630049 253.262466 
L 305.208744 251.439781 
L 305.517606 253.262466 
L 305.857137 251.439781 
L 305.969403 253.262466 
L 307.708732 256.907836 
L 308.096423 255.085151 
L 308.831657 256.907836 
L 309.588408 255.085151 
L 310.17046 253.262466 
L 310.230477 255.085151 
L 310.870701 253.262466 
L 312.54075 249.617096 
L 312.65163 247.794411 
L 312.65623 249.617096 
L 312.86955 247.794411 
L 314.188485 245.971726 
L 314.395828 244.149041 
L 314.440048 247.794411 
L 314.606942 245.971726 
L 315.52971 247.794411 
L 315.837876 245.971726 
L 315.943648 244.149041 
L 316.485364 245.971726 
L 316.625824 244.149041 
L 316.889232 247.794411 
L 317.127113 245.971726 
L 317.621355 247.794411 
L 318.03101 245.971726 
L 318.123835 247.794411 
L 318.346223 245.971726 
L 318.698455 247.794411 
L 319.451529 245.971726 
L 319.560535 244.149041 
L 320.694252 245.971726 
L 320.850211 244.149041 
L 320.880645 245.971726 
L 321.500548 244.149041 
L 321.954481 245.971726 
L 322.850802 244.149041 
L 322.969042 247.794411 
L 322.977953 245.971726 
L 323.409072 247.794411 
L 324.484444 249.617096 
L 325.237573 251.439781 
L 325.666262 253.262466 
L 326.05799 251.439781 
L 327.339152 249.617096 
L 327.470879 247.794411 
L 327.915582 249.617096 
L 328.133104 251.439781 
L 328.841203 253.262466 
L 328.941306 251.439781 
L 330.337521 247.794411 
L 330.433867 249.617096 
L 330.591622 247.794411 
L 331.172136 249.617096 
L 332.240028 247.794411 
L 332.583807 249.617096 
L 333.757832 247.794411 
L 333.869214 249.617096 
L 334.366576 247.794411 
L 334.3803 249.617096 
L 334.663762 253.262466 
L 337.273598 251.439781 
L 338.223017 255.085151 
L 340.011195 256.907836 
L 340.976696 258.730521 
L 341.277758 256.907836 
L 347.211522 255.085151 
L 348.278751 256.907836 
L 349.260361 255.085151 
L 349.785976 253.262466 
L 351.40331 251.439781 
L 351.505741 249.617096 
L 351.529545 251.439781 
L 352.286372 253.262466 
L 352.386009 251.439781 
L 352.818259 249.617096 
L 353.012772 247.794411 
L 354.39181 249.617096 
L 354.514399 247.794411 
L 355.133958 245.971726 
L 355.199868 244.149041 
L 355.440771 245.971726 
L 355.854837 247.794411 
L 356.642579 245.971726 
L 357.221532 244.149041 
L 357.365423 245.971726 
L 358.762612 244.149041 
L 359.347014 245.971726 
L 360.087313 249.617096 
L 360.373798 251.439781 
L 360.6805 249.617096 
L 360.700312 251.439781 
L 361.234361 249.617096 
L 361.66147 251.439781 
L 362.24061 249.617096 
L 362.421186 247.794411 
L 363.326043 245.971726 
L 363.56686 247.794411 
L 364.113906 242.326356 
L 364.236095 244.149041 
L 365.324668 245.971726 
L 366.08598 247.794411 
L 367.009525 249.617096 
L 369.265209 251.439781 
L 369.554653 249.617096 
L 370.223458 251.439781 
L 370.475351 249.617096 
L 371.111871 247.794411 
L 371.149542 245.971726 
L 371.496667 247.794411 
L 372.607007 249.617096 
L 372.71161 251.439781 
L 375.798762 253.262466 
L 375.822293 255.085151 
L 376.608832 253.262466 
L 378.033374 255.085151 
L 378.834429 256.907836 
L 379.827147 255.085151 
L 382.763657 253.262466 
L 382.978054 251.439781 
L 383.655423 249.617096 
L 383.667194 251.439781 
L 384.469536 249.617096 
L 384.990125 247.794411 
L 385.876039 245.971726 
L 385.944646 244.149041 
L 386.919379 245.971726 
L 387.620856 247.794411 
L 387.958452 245.971726 
L 388.05702 247.794411 
L 390.168991 249.617096 
L 390.545544 247.794411 
L 391.644989 249.617096 
L 392.563916 251.439781 
L 393.045569 253.262466 
L 393.155955 255.085151 
L 393.750697 251.439781 
L 394.669498 253.262466 
L 394.673506 255.085151 
L 396.99744 253.262466 
L 398.365562 255.085151 
L 399.302128 253.262466 
L 399.341211 251.439781 
L 400.896713 253.262466 
L 401.438233 255.085151 
L 402.584106 253.262466 
L 403.2262 255.085151 
L 403.2405 253.262466 
L 403.438001 251.439781 
L 403.598172 253.262466 
L 404.085625 251.439781 
L 404.085625 251.439781 
" clip-path="url(#p9dff30da3f)" style="fill: none; stroke: #ff7f0e; stroke-width: 1.5; stroke-linecap: square"/>
   </g>
   <g id="line2d_20">
    <path d="M 226.927752 273.312 
L 226.927752 7.2 
" clip-path="url(#p9dff30da3f)" style="fill: none; stroke-dasharray: 1.5,2.475; stroke-dashoffset: 0; stroke: #000000; stroke-width: 1.5"/>
   </g>
   <g id="line2d_21">
    <path d="M 245.90771 273.312 
L 245.90771 7.2 
" clip-path="url(#p9dff30da3f)" style="fill: none; stroke-dasharray: 1.5,2.475; stroke-dashoffset: 0; stroke: #000000; stroke-width: 1.5"/>
   </g>
   <g id="line2d_22">
    <path d="M 403.763215 273.312 
L 403.763215 7.2 
" clip-path="url(#p9dff30da3f)" style="fill: none; stroke-dasharray: 1.5,2.475; stroke-dashoffset: 0; stroke: #000000; stroke-width: 1.5"/>
   </g>
   <g id="patch_3">
    <path d="M 46.965625 273.312 
L 46.965625 7.2 
" style="fill: none; stroke: #000000; stroke-width: 0.8; stroke-linejoin: miter; stroke-linecap: square"/>
   </g>
   <g id="patch_4">
    <path d="M 404.085625 273.312 
L 404.085625 7.2 
" style="fill: none; stroke: #000000; stroke-width: 0.8; stroke-linejoin: miter; stroke-linecap: square"/>
   </g>
   <g id="patch_5">
    <path d="M 46.965625 273.312 
L 404.085625 273.312 
" style="fill: none; stroke: #000000; stroke-width: 0.8; stroke-linejoin: miter; stroke-linecap: square"/>
   </g>
   <g id="patch_6">
    <path d="M 46.965625 7.2 
L 404.085625 7.2 
" style="fill: none; stroke: #000000; stroke-width: 0.8; stroke-linejoin: miter; stroke-linecap: square"/>
   </g>
   <g id="legend_1">
    <g id="patch_7">
     <path d="M 53.965625 44.55625 
L 99.667188 44.55625 
Q 101.667188 44.55625 101.667188 42.55625 
L 101.667188 14.2 
Q 101.667188 12.2 99.667188 12.2 
L 53.965625 12.2 
Q 51.965625 12.2 51.965625 14.2 
L 51.965625 42.55625 
Q 51.965625 44.55625 53.965625 44.55625 
z
" style="fill: #ffffff; opacity: 0.8; stroke: #cccccc; stroke-linejoin: miter"/>
    </g>
    <g id="line2d_23">
     <path d="M 55.965625 20.298437 
L 65.965625 20.298437 
L 75.965625 20.298437 
" style="fill: none; stroke: #1f77b4; stroke-width: 1.5; stroke-linecap: square"/>
    </g>
    <g id="text_20">
     <!-- AB -->
     <g transform="translate(83.965625 23.798437) scale(0.1 -0.1)">
      <defs>
       <path id="DejaVuSans-41" d="M 2188 4044 
L 1331 1722 
L 3047 1722 
L 2188 4044 
z
M 1831 4666 
L 2547 4666 
L 4325 0 
L 3669 0 
L 3244 1197 
L 1141 1197 
L 716 0 
L 50 0 
L 1831 4666 
z
" transform="scale(0.015625)"/>
       <path id="DejaVuSans-42" d="M 1259 2228 
L 1259 519 
L 2272 519 
Q 2781 519 3026 730 
Q 3272 941 3272 1375 
Q 3272 1813 3026 2020 
Q 2781 2228 2272 2228 
L 1259 2228 
z
M 1259 4147 
L 1259 2741 
L 2194 2741 
Q 2656 2741 2882 2914 
Q 3109 3088 3109 3444 
Q 3109 3797 2882 3972 
Q 2656 4147 2194 4147 
L 1259 4147 
z
M 628 4666 
L 2241 4666 
Q 2963 4666 3353 4366 
Q 3744 4066 3744 3513 
Q 3744 3084 3544 2831 
Q 3344 2578 2956 2516 
Q 3422 2416 3680 2098 
Q 3938 1781 3938 1306 
Q 3938 681 3513 340 
Q 3088 0 2303 0 
L 628 0 
L 628 4666 
z
" transform="scale(0.015625)"/>
      </defs>
      <use xlink:href="#DejaVuSans-41"/>
      <use xlink:href="#DejaVuSans-42" transform="translate(68.408203 0)"/>
     </g>
    </g>
    <g id="line2d_24">
     <path d="M 55.965625 34.976562 
L 65.965625 34.976562 
L 75.965625 34.976562 
" style="fill: none; stroke: #ff7f0e; stroke-width: 1.5; stroke-linecap: square"/>
    </g>
    <g id="text_21">
     <!-- A -->
     <g transform="translate(83.965625 38.476562) scale(0.1 -0.1)">
      <use xlink:href="#DejaVuSans-41"/>
     </g>
    </g>
   </g>
  </g>
 </g>
 <defs>
  <clipPath id="p9dff30da3f">
   <rect x="46.965625" y="7.2" width="357.12" height="266.112"/>
  </clipPath>
 </defs>
</svg>
