<?xml version="1.0" encoding="utf-8" standalone="no"?>
<!DOCTYPE svg PUBLIC "-//W3C//DTD SVG 1.1//EN"
  "http://www.w3.org/Graphics/SVG/1.1/DTD/svg11.dtd">
<svg xmlns:xlink="http://www.w3.org/1999/xlink" width="422.220708pt" height="310.919412pt" viewBox="0 0 422.220708 310.919412" xmlns="http://www.w3.org/2000/svg" version="1.1">
 <metadata>
  <rdf:RDF xmlns:dc="http://purl.org/dc/elements/1.1/" xmlns:cc="http://creativecommons.org/ns#" xmlns:rdf="http://www.w3.org/1999/02/22-rdf-syntax-ns#">
   <cc:Work>
    <dc:type rdf:resource="http://purl.org/dc/dcmitype/StillImage"/>
    <dc:date>2026-05-18T16:58:40.162222</dc:date>
    <dc:format>image/svg+xml</dc:format>
    <dc:creator>
     <cc:Agent>
      <dc:title>Matplotlib v3.10.9, https://matplotlib.org/</dc:title>
     </cc:Agent>
    </dc:creator>
   </cc:Work>
  </rdf:RDF>
 </metadata>
 <defs>
  <style type="text/css">*{stroke-linejoin: round; stroke-linecap: butt}</style>
 </defs>
 <g id="figure_1">
  <g id="patch_1">
   <path d="M 0 310.919412 
L 422.220708 310.919412 
L 422.220708 0 
L 0 0 
z
" style="fill: #ffffff"/>
  </g>
  <g id="axes_1">
   <g id="patch_2">
    <path d="M 46.965625 273.363162 
L 404.085625 273.363162 
L 404.085625 7.251162 
L 46.965625 7.251162 
z
" style="fill: #ffffff"/>
   </g>
   <g id="matplotlib.axis_1">
    <g id="xtick_1">
     <g id="line2d_1">
      <defs>
       <path id="m6faa76c480" d="M 0 0 
L 0 3.5 
" style="stroke: #000000; stroke-width: 0.8"/>
      </defs>
      <g>
       <use xlink:href="#m6faa76c480" x="46.965625" y="273.363162" style="stroke: #000000; stroke-width: 0.8"/>
      </g>
     </g>
     <g id="text_1">
      <!-- 0.00 -->
      <g transform="translate(35.832813 287.9616) scale(0.1 -0.1)">
       <defs>
        <path id="DejaVuSans-30" d="M 2034 4250 
Q 1547 4250 1301 3770 
Q 1056 3291 1056 2328 
Q 1056 1369 1301 889 
Q 1547 409 2034 409 
Q 2525 409 2770 889 
Q 3016 1369 3016 2328 
Q 3016 3291 2770 3770 
Q 2525 4250 2034 4250 
z
M 2034 4750 
Q 2819 4750 3233 4129 
Q 3647 3509 3647 2328 
Q 3647 1150 3233 529 
Q 2819 -91 2034 -91 
Q 1250 -91 836 529 
Q 422 1150 422 2328 
Q 422 3509 836 4129 
Q 1250 4750 2034 4750 
z
" transform="scale(0.015625)"/>
        <path id="DejaVuSans-2e" d="M 684 794 
L 1344 794 
L 1344 0 
L 684 0 
L 684 794 
z
" transform="scale(0.015625)"/>
       </defs>
       <use xlink:href="#DejaVuSans-30"/>
       <use xlink:href="#DejaVuSans-2e" transform="translate(63.623047 0)"/>
       <use xlink:href="#DejaVuSans-30" transform="translate(95.410156 0)"/>
       <use xlink:href="#DejaVuSans-30" transform="translate(159.033203 0)"/>
      </g>
     </g>
    </g>
    <g id="xtick_2">
     <g id="line2d_2">
      <g>
       <use xlink:href="#m6faa76c480" x="91.580909" y="273.363162" style="stroke: #000000; stroke-width: 0.8"/>
      </g>
     </g>
     <g id="text_2">
      <!-- 0.25 -->
      <g transform="translate(80.448096 287.9616) scale(0.1 -0.1)">
       <defs>
        <path id="DejaVuSans-32" d="M 1228 531 
L 3431 531 
L 3431 0 
L 469 0 
L 469 531 
Q 828 903 1448 1529 
Q 2069 2156 2228 2338 
Q 2531 2678 2651 2914 
Q 2772 3150 2772 3378 
Q 2772 3750 2511 3984 
Q 2250 4219 1831 4219 
Q 1534 4219 1204 4116 
Q 875 4013 500 3803 
L 500 4441 
Q 881 4594 1212 4672 
Q 1544 4750 1819 4750 
Q 2544 4750 2975 4387 
Q 3406 4025 3406 3419 
Q 3406 3131 3298 2873 
Q 3191 2616 2906 2266 
Q 2828 2175 2409 1742 
Q 1991 1309 1228 531 
z
" transform="scale(0.015625)"/>
        <path id="DejaVuSans-35" d="M 691 4666 
L 3169 4666 
L 3169 4134 
L 1269 4134 
L 1269 2991 
Q 1406 3038 1543 3061 
Q 1681 3084 1819 3084 
Q 2600 3084 3056 2656 
Q 3513 2228 3513 1497 
Q 3513 744 3044 326 
Q 2575 -91 1722 -91 
Q 1428 -91 1123 -41 
Q 819 9 494 109 
L 494 744 
Q 775 591 1075 516 
Q 1375 441 1709 441 
Q 2250 441 2565 725 
Q 2881 1009 2881 1497 
Q 2881 1984 2565 2268 
Q 2250 2553 1709 2553 
Q 1456 2553 1204 2497 
Q 953 2441 691 2322 
L 691 4666 
z
" transform="scale(0.015625)"/>
       </defs>
       <use xlink:href="#DejaVuSans-30"/>
       <use xlink:href="#DejaVuSans-2e" transform="translate(63.623047 0)"/>
       <use xlink:href="#DejaVuSans-32" transform="translate(95.410156 0)"/>
       <use xlink:href="#DejaVuSans-35" transform="translate(159.033203 0)"/>
      </g>
     </g>
    </g>
    <g id="xtick_3">
     <g id="line2d_3">
      <g>
       <use xlink:href="#m6faa76c480" x="136.196193" y="273.363162" style="stroke: #000000; stroke-width: 0.8"/>
      </g>
     </g>
     <g id="text_3">
      <!-- 0.50 -->
      <g transform="translate(125.06338 287.9616) scale(0.1 -0.1)">
       <use xlink:href="#DejaVuSans-30"/>
       <use xlink:href="#DejaVuSans-2e" transform="translate(63.623047 0)"/>
       <use xlink:href="#DejaVuSans-35" transform="translate(95.410156 0)"/>
       <use xlink:href="#DejaVuSans-30" transform="translate(159.033203 0)"/>
      </g>
     </g>
    </g>
    <g id="xtick_4">
     <g id="line2d_4">
      <g>
       <use xlink:href="#m6faa76c480" x="180.811476" y="273.363162" style="stroke: #000000; stroke-width: 0.8"/>
      </g>
     </g>
     <g id="text_4">
      <!-- 0.75 -->
      <g transform="translate(169.678664 287.9616) scale(0.1 -0.1)">
       <defs>
        <path id="DejaVuSans-37" d="M 525 4666 
L 3525 4666 
L 3525 4397 
L 1831 0 
L 1172 0 
L 2766 4134 
L 525 4134 
L 525 4666 
z
" transform="scale(0.015625)"/>
       </defs>
       <use xlink:href="#DejaVuSans-30"/>
       <use xlink:href="#DejaVuSans-2e" transform="translate(63.623047 0)"/>
       <use xlink:href="#DejaVuSans-37" transform="translate(95.410156 0)"/>
       <use xlink:href="#DejaVuSans-35" transform="translate(159.033203 0)"/>
      </g>
     </g>
    </g>
    <g id="xtick_5">
     <g id="line2d_5">
      <g>
       <use xlink:href="#m6faa76c480" x="225.42676" y="273.363162" style="stroke: #000000; stroke-width: 0.8"/>
      </g>
     </g>
     <g id="text_5">
      <!-- 1.00 -->
      <g transform="translate(214.293948 287.9616) scale(0.1 -0.1)">
       <defs>
        <path id="DejaVuSans-31" d="M 794 531 
L 1825 531 
L 1825 4091 
L 703 3866 
L 703 4441 
L 1819 4666 
L 2450 4666 
L 2450 531 
L 3481 531 
L 3481 0 
L 794 0 
L 794 531 
z
" transform="scale(0.015625)"/>
       </defs>
       <use xlink:href="#DejaVuSans-31"/>
       <use xlink:href="#DejaVuSans-2e" transform="translate(63.623047 0)"/>
       <use xlink:href="#DejaVuSans-30" transform="translate(95.410156 0)"/>
       <use xlink:href="#DejaVuSans-30" transform="translate(159.033203 0)"/>
      </g>
     </g>
    </g>
    <g id="xtick_6">
     <g id="line2d_6">
      <g>
       <use xlink:href="#m6faa76c480" x="270.042044" y="273.363162" style="stroke: #000000; stroke-width: 0.8"/>
      </g>
     </g>
     <g id="text_6">
      <!-- 1.25 -->
      <g transform="translate(258.909231 287.9616) scale(0.1 -0.1)">
       <use xlink:href="#DejaVuSans-31"/>
       <use xlink:href="#DejaVuSans-2e" transform="translate(63.623047 0)"/>
       <use xlink:href="#DejaVuSans-32" transform="translate(95.410156 0)"/>
       <use xlink:href="#DejaVuSans-35" transform="translate(159.033203 0)"/>
      </g>
     </g>
    </g>
    <g id="xtick_7">
     <g id="line2d_7">
      <g>
       <use xlink:href="#m6faa76c480" x="314.657328" y="273.363162" style="stroke: #000000; stroke-width: 0.8"/>
      </g>
     </g>
     <g id="text_7">
      <!-- 1.50 -->
      <g transform="translate(303.524515 287.9616) scale(0.1 -0.1)">
       <use xlink:href="#DejaVuSans-31"/>
       <use xlink:href="#DejaVuSans-2e" transform="translate(63.623047 0)"/>
       <use xlink:href="#DejaVuSans-35" transform="translate(95.410156 0)"/>
       <use xlink:href="#DejaVuSans-30" transform="translate(159.033203 0)"/>
      </g>
     </g>
    </g>
    <g id="xtick_8">
     <g id="line2d_8">
      <g>
       <use xlink:href="#m6faa76c480" x="359.272611" y="273.363162" style="stroke: #000000; stroke-width: 0.8"/>
      </g>
     </g>
     <g id="text_8">
      <!-- 1.75 -->
      <g transform="translate(348.139799 287.9616) scale(0.1 -0.1)">
       <use xlink:href="#DejaVuSans-31"/>
       <use xlink:href="#DejaVuSans-2e" transform="translate(63.623047 0)"/>
       <use xlink:href="#DejaVuSans-37" transform="translate(95.410156 0)"/>
       <use xlink:href="#DejaVuSans-35" transform="translate(159.033203 0)"/>
      </g>
     </g>
    </g>
    <g id="xtick_9">
     <g id="line2d_9">
      <g>
       <use xlink:href="#m6faa76c480" x="403.887895" y="273.363162" style="stroke: #000000; stroke-width: 0.8"/>
      </g>
     </g>
     <g id="text_9">
      <!-- 2.00 -->
      <g transform="translate(392.755083 287.9616) scale(0.1 -0.1)">
       <use xlink:href="#DejaVuSans-32"/>
       <use xlink:href="#DejaVuSans-2e" transform="translate(63.623047 0)"/>
       <use xlink:href="#DejaVuSans-30" transform="translate(95.410156 0)"/>
       <use xlink:href="#DejaVuSans-30" transform="translate(159.033203 0)"/>
      </g>
     </g>
    </g>
    <g id="text_10">
     <!-- Time -->
     <g transform="translate(213.292031 301.639725) scale(0.1 -0.1)">
      <defs>
       <path id="DejaVuSans-54" d="M -19 4666 
L 3928 4666 
L 3928 4134 
L 2272 4134 
L 2272 0 
L 1638 0 
L 1638 4134 
L -19 4134 
L -19 4666 
z
" transform="scale(0.015625)"/>
       <path id="DejaVuSans-69" d="M 603 3500 
L 1178 3500 
L 1178 0 
L 603 0 
L 603 3500 
z
M 603 4863 
L 1178 4863 
L 1178 4134 
L 603 4134 
L 603 4863 
z
" transform="scale(0.015625)"/>
       <path id="DejaVuSans-6d" d="M 3328 2828 
Q 3544 3216 3844 3400 
Q 4144 3584 4550 3584 
Q 5097 3584 5394 3201 
Q 5691 2819 5691 2113 
L 5691 0 
L 5113 0 
L 5113 2094 
Q 5113 2597 4934 2840 
Q 4756 3084 4391 3084 
Q 3944 3084 3684 2787 
Q 3425 2491 3425 1978 
L 3425 0 
L 2847 0 
L 2847 2094 
Q 2847 2600 2669 2842 
Q 2491 3084 2119 3084 
Q 1678 3084 1418 2786 
Q 1159 2488 1159 1978 
L 1159 0 
L 581 0 
L 581 3500 
L 1159 3500 
L 1159 2956 
Q 1356 3278 1631 3431 
Q 1906 3584 2284 3584 
Q 2666 3584 2933 3390 
Q 3200 3197 3328 2828 
z
" transform="scale(0.015625)"/>
       <path id="DejaVuSans-65" d="M 3597 1894 
L 3597 1613 
L 953 1613 
Q 991 1019 1311 708 
Q 1631 397 2203 397 
Q 2534 397 2845 478 
Q 3156 559 3463 722 
L 3463 178 
Q 3153 47 2828 -22 
Q 2503 -91 2169 -91 
Q 1331 -91 842 396 
Q 353 884 353 1716 
Q 353 2575 817 3079 
Q 1281 3584 2069 3584 
Q 2775 3584 3186 3129 
Q 3597 2675 3597 1894 
z
M 3022 2063 
Q 3016 2534 2758 2815 
Q 2500 3097 2075 3097 
Q 1594 3097 1305 2825 
Q 1016 2553 972 2059 
L 3022 2063 
z
" transform="scale(0.015625)"/>
      </defs>
      <use xlink:href="#DejaVuSans-54"/>
      <use xlink:href="#DejaVuSans-69" transform="translate(57.958984 0)"/>
      <use xlink:href="#DejaVuSans-6d" transform="translate(85.742188 0)"/>
      <use xlink:href="#DejaVuSans-65" transform="translate(183.154297 0)"/>
     </g>
    </g>
   </g>
   <g id="matplotlib.axis_2">
    <g id="ytick_1">
     <g id="line2d_10">
      <defs>
       <path id="m0bbb5a103e" d="M 0 0 
L -3.5 0 
" style="stroke: #000000; stroke-width: 0.8"/>
      </defs>
      <g>
       <use xlink:href="#m0bbb5a103e" x="46.965625" y="273.363162" style="stroke: #000000; stroke-width: 0.8"/>
      </g>
     </g>
     <g id="text_11">
      <!-- 0 -->
      <g transform="translate(33.603125 277.162381) scale(0.1 -0.1)">
       <use xlink:href="#DejaVuSans-30"/>
      </g>
     </g>
    </g>
    <g id="ytick_2">
     <g id="line2d_11">
      <g>
       <use xlink:href="#m0bbb5a103e" x="46.965625" y="235.882599" style="stroke: #000000; stroke-width: 0.8"/>
      </g>
     </g>
     <g id="text_12">
      <!-- 20 -->
      <g transform="translate(27.240625 239.681818) scale(0.1 -0.1)">
       <use xlink:href="#DejaVuSans-32"/>
       <use xlink:href="#DejaVuSans-30" transform="translate(63.623047 0)"/>
      </g>
     </g>
    </g>
    <g id="ytick_3">
     <g id="line2d_12">
      <g>
       <use xlink:href="#m0bbb5a103e" x="46.965625" y="198.402036" style="stroke: #000000; stroke-width: 0.8"/>
      </g>
     </g>
     <g id="text_13">
      <!-- 40 -->
      <g transform="translate(27.240625 202.201254) scale(0.1 -0.1)">
       <defs>
        <path id="DejaVuSans-34" d="M 2419 4116 
L 825 1625 
L 2419 1625 
L 2419 4116 
z
M 2253 4666 
L 3047 4666 
L 3047 1625 
L 3713 1625 
L 3713 1100 
L 3047 1100 
L 3047 0 
L 2419 0 
L 2419 1100 
L 313 1100 
L 313 1709 
L 2253 4666 
z
" transform="scale(0.015625)"/>
       </defs>
       <use xlink:href="#DejaVuSans-34"/>
       <use xlink:href="#DejaVuSans-30" transform="translate(63.623047 0)"/>
      </g>
     </g>
    </g>
    <g id="ytick_4">
     <g id="line2d_13">
      <g>
       <use xlink:href="#m0bbb5a103e" x="46.965625" y="160.921472" style="stroke: #000000; stroke-width: 0.8"/>
      </g>
     </g>
     <g id="text_14">
      <!-- 60 -->
      <g transform="translate(27.240625 164.720691) scale(0.1 -0.1)">
       <defs>
        <path id="DejaVuSans-36" d="M 2113 2584 
Q 1688 2584 1439 2293 
Q 1191 2003 1191 1497 
Q 1191 994 1439 701 
Q 1688 409 2113 409 
Q 2538 409 2786 701 
Q 3034 994 3034 1497 
Q 3034 2003 2786 2293 
Q 2538 2584 2113 2584 
z
M 3366 4563 
L 3366 3988 
Q 3128 4100 2886 4159 
Q 2644 4219 2406 4219 
Q 1781 4219 1451 3797 
Q 1122 3375 1075 2522 
Q 1259 2794 1537 2939 
Q 1816 3084 2150 3084 
Q 2853 3084 3261 2657 
Q 3669 2231 3669 1497 
Q 3669 778 3244 343 
Q 2819 -91 2113 -91 
Q 1303 -91 875 529 
Q 447 1150 447 2328 
Q 447 3434 972 4092 
Q 1497 4750 2381 4750 
Q 2619 4750 2861 4703 
Q 3103 4656 3366 4563 
z
" transform="scale(0.015625)"/>
       </defs>
       <use xlink:href="#DejaVuSans-36"/>
       <use xlink:href="#DejaVuSans-30" transform="translate(63.623047 0)"/>
      </g>
     </g>
    </g>
    <g id="ytick_5">
     <g id="line2d_14">
      <g>
       <use xlink:href="#m0bbb5a103e" x="46.965625" y="123.440909" style="stroke: #000000; stroke-width: 0.8"/>
      </g>
     </g>
     <g id="text_15">
      <!-- 80 -->
      <g transform="translate(27.240625 127.240128) scale(0.1 -0.1)">
       <defs>
        <path id="DejaVuSans-38" d="M 2034 2216 
Q 1584 2216 1326 1975 
Q 1069 1734 1069 1313 
Q 1069 891 1326 650 
Q 1584 409 2034 409 
Q 2484 409 2743 651 
Q 3003 894 3003 1313 
Q 3003 1734 2745 1975 
Q 2488 2216 2034 2216 
z
M 1403 2484 
Q 997 2584 770 2862 
Q 544 3141 544 3541 
Q 544 4100 942 4425 
Q 1341 4750 2034 4750 
Q 2731 4750 3128 4425 
Q 3525 4100 3525 3541 
Q 3525 3141 3298 2862 
Q 3072 2584 2669 2484 
Q 3125 2378 3379 2068 
Q 3634 1759 3634 1313 
Q 3634 634 3220 271 
Q 2806 -91 2034 -91 
Q 1263 -91 848 271 
Q 434 634 434 1313 
Q 434 1759 690 2068 
Q 947 2378 1403 2484 
z
M 1172 3481 
Q 1172 3119 1398 2916 
Q 1625 2713 2034 2713 
Q 2441 2713 2670 2916 
Q 2900 3119 2900 3481 
Q 2900 3844 2670 4047 
Q 2441 4250 2034 4250 
Q 1625 4250 1398 4047 
Q 1172 3844 1172 3481 
z
" transform="scale(0.015625)"/>
       </defs>
       <use xlink:href="#DejaVuSans-38"/>
       <use xlink:href="#DejaVuSans-30" transform="translate(63.623047 0)"/>
      </g>
     </g>
    </g>
    <g id="ytick_6">
     <g id="line2d_15">
      <g>
       <use xlink:href="#m0bbb5a103e" x="46.965625" y="85.960346" style="stroke: #000000; stroke-width: 0.8"/>
      </g>
     </g>
     <g id="text_16">
      <!-- 100 -->
      <g transform="translate(20.878125 89.759564) scale(0.1 -0.1)">
       <use xlink:href="#DejaVuSans-31"/>
       <use xlink:href="#DejaVuSans-30" transform="translate(63.623047 0)"/>
       <use xlink:href="#DejaVuSans-30" transform="translate(127.246094 0)"/>
      </g>
     </g>
    </g>
    <g id="ytick_7">
     <g id="line2d_16">
      <g>
       <use xlink:href="#m0bbb5a103e" x="46.965625" y="48.479782" style="stroke: #000000; stroke-width: 0.8"/>
      </g>
     </g>
     <g id="text_17">
      <!-- 120 -->
      <g transform="translate(20.878125 52.279001) scale(0.1 -0.1)">
       <use xlink:href="#DejaVuSans-31"/>
       <use xlink:href="#DejaVuSans-32" transform="translate(63.623047 0)"/>
       <use xlink:href="#DejaVuSans-30" transform="translate(127.246094 0)"/>
      </g>
     </g>
    </g>
    <g id="ytick_8">
     <g id="line2d_17">
      <g>
       <use xlink:href="#m0bbb5a103e" x="46.965625" y="10.999219" style="stroke: #000000; stroke-width: 0.8"/>
      </g>
     </g>
     <g id="text_18">
      <!-- 140 -->
      <g transform="translate(20.878125 14.798438) scale(0.1 -0.1)">
       <use xlink:href="#DejaVuSans-31"/>
       <use xlink:href="#DejaVuSans-34" transform="translate(63.623047 0)"/>
       <use xlink:href="#DejaVuSans-30" transform="translate(127.246094 0)"/>
      </g>
     </g>
    </g>
    <g id="text_19">
     <!-- Observable -->
     <g transform="translate(14.798438 168.817319) rotate(-90) scale(0.1 -0.1)">
      <defs>
       <path id="DejaVuSans-4f" d="M 2522 4238 
Q 1834 4238 1429 3725 
Q 1025 3213 1025 2328 
Q 1025 1447 1429 934 
Q 1834 422 2522 422 
Q 3209 422 3611 934 
Q 4013 1447 4013 2328 
Q 4013 3213 3611 3725 
Q 3209 4238 2522 4238 
z
M 2522 4750 
Q 3503 4750 4090 4092 
Q 4678 3434 4678 2328 
Q 4678 1225 4090 567 
Q 3503 -91 2522 -91 
Q 1538 -91 948 565 
Q 359 1222 359 2328 
Q 359 3434 948 4092 
Q 1538 4750 2522 4750 
z
" transform="scale(0.015625)"/>
       <path id="DejaVuSans-62" d="M 3116 1747 
Q 3116 2381 2855 2742 
Q 2594 3103 2138 3103 
Q 1681 3103 1420 2742 
Q 1159 2381 1159 1747 
Q 1159 1113 1420 752 
Q 1681 391 2138 391 
Q 2594 391 2855 752 
Q 3116 1113 3116 1747 
z
M 1159 2969 
Q 1341 3281 1617 3432 
Q 1894 3584 2278 3584 
Q 2916 3584 3314 3078 
Q 3713 2572 3713 1747 
Q 3713 922 3314 415 
Q 2916 -91 2278 -91 
Q 1894 -91 1617 61 
Q 1341 213 1159 525 
L 1159 0 
L 581 0 
L 581 4863 
L 1159 4863 
L 1159 2969 
z
" transform="scale(0.015625)"/>
       <path id="DejaVuSans-73" d="M 2834 3397 
L 2834 2853 
Q 2591 2978 2328 3040 
Q 2066 3103 1784 3103 
Q 1356 3103 1142 2972 
Q 928 2841 928 2578 
Q 928 2378 1081 2264 
Q 1234 2150 1697 2047 
L 1894 2003 
Q 2506 1872 2764 1633 
Q 3022 1394 3022 966 
Q 3022 478 2636 193 
Q 2250 -91 1575 -91 
Q 1294 -91 989 -36 
Q 684 19 347 128 
L 347 722 
Q 666 556 975 473 
Q 1284 391 1588 391 
Q 1994 391 2212 530 
Q 2431 669 2431 922 
Q 2431 1156 2273 1281 
Q 2116 1406 1581 1522 
L 1381 1569 
Q 847 1681 609 1914 
Q 372 2147 372 2553 
Q 372 3047 722 3315 
Q 1072 3584 1716 3584 
Q 2034 3584 2315 3537 
Q 2597 3491 2834 3397 
z
" transform="scale(0.015625)"/>
       <path id="DejaVuSans-72" d="M 2631 2963 
Q 2534 3019 2420 3045 
Q 2306 3072 2169 3072 
Q 1681 3072 1420 2755 
Q 1159 2438 1159 1844 
L 1159 0 
L 581 0 
L 581 3500 
L 1159 3500 
L 1159 2956 
Q 1341 3275 1631 3429 
Q 1922 3584 2338 3584 
Q 2397 3584 2469 3576 
Q 2541 3569 2628 3553 
L 2631 2963 
z
" transform="scale(0.015625)"/>
       <path id="DejaVuSans-76" d="M 191 3500 
L 800 3500 
L 1894 563 
L 2988 3500 
L 3597 3500 
L 2284 0 
L 1503 0 
L 191 3500 
z
" transform="scale(0.015625)"/>
       <path id="DejaVuSans-61" d="M 2194 1759 
Q 1497 1759 1228 1600 
Q 959 1441 959 1056 
Q 959 750 1161 570 
Q 1363 391 1709 391 
Q 2188 391 2477 730 
Q 2766 1069 2766 1631 
L 2766 1759 
L 2194 1759 
z
M 3341 1997 
L 3341 0 
L 2766 0 
L 2766 531 
Q 2569 213 2275 61 
Q 1981 -91 1556 -91 
Q 1019 -91 701 211 
Q 384 513 384 1019 
Q 384 1609 779 1909 
Q 1175 2209 1959 2209 
L 2766 2209 
L 2766 2266 
Q 2766 2663 2505 2880 
Q 2244 3097 1772 3097 
Q 1472 3097 1187 3025 
Q 903 2953 641 2809 
L 641 3341 
Q 956 3463 1253 3523 
Q 1550 3584 1831 3584 
Q 2591 3584 2966 3190 
Q 3341 2797 3341 1997 
z
" transform="scale(0.015625)"/>
       <path id="DejaVuSans-6c" d="M 603 4863 
L 1178 4863 
L 1178 0 
L 603 0 
L 603 4863 
z
" transform="scale(0.015625)"/>
      </defs>
      <use xlink:href="#DejaVuSans-4f"/>
      <use xlink:href="#DejaVuSans-62" transform="translate(78.710938 0)"/>
      <use xlink:href="#DejaVuSans-73" transform="translate(142.1875 0)"/>
      <use xlink:href="#DejaVuSans-65" transform="translate(194.287109 0)"/>
      <use xlink:href="#DejaVuSans-72" transform="translate(255.810547 0)"/>
      <use xlink:href="#DejaVuSans-76" transform="translate(296.923828 0)"/>
      <use xlink:href="#DejaVuSans-61" transform="translate(356.103516 0)"/>
      <use xlink:href="#DejaVuSans-62" transform="translate(417.382812 0)"/>
      <use xlink:href="#DejaVuSans-6c" transform="translate(480.859375 0)"/>
      <use xlink:href="#DejaVuSans-65" transform="translate(508.642578 0)"/>
     </g>
    </g>
   </g>
   <g id="line2d_18">
    <path d="M 46.965625 273.363162 
L 47.378479 247.126768 
L 47.633394 232.134543 
L 47.908838 215.268289 
L 48.416272 192.779951 
L 48.643637 189.031895 
L 48.686254 183.40981 
L 49.047858 179.661754 
L 49.656817 160.921472 
L 49.704938 159.047444 
L 49.908397 157.173416 
L 49.951852 155.299388 
L 50.991339 145.929247 
L 51.089203 142.181191 
L 51.41699 140.307162 
L 51.486311 136.559106 
L 51.79738 134.685078 
L 51.941203 136.559106 
L 52.103768 134.685078 
L 52.572571 132.81105 
L 52.706971 130.937022 
L 53.699697 132.81105 
L 53.799413 134.685078 
L 53.845219 132.81105 
L 54.962845 130.937022 
L 54.983221 129.062993 
L 55.856012 127.188965 
L 56.425524 129.062993 
L 57.267849 130.937022 
L 57.336173 127.188965 
L 57.934346 129.062993 
L 57.962098 127.188965 
L 58.317069 123.440909 
L 59.051174 119.692853 
L 59.960588 117.818824 
L 60.235855 115.944796 
L 60.257028 114.070768 
L 60.422947 112.19674 
L 60.575118 108.448684 
L 62.72936 104.700627 
L 63.283876 106.574655 
L 63.584224 108.448684 
L 63.778015 106.574655 
L 64.845128 104.700627 
L 72.033592 102.826599 
L 75.267053 106.574655 
L 80.007102 108.448684 
L 80.217819 110.322712 
L 81.81315 108.448684 
L 82.852184 110.322712 
L 83.262909 112.19674 
L 83.349446 110.322712 
L 84.256234 108.448684 
L 84.397047 110.322712 
L 86.220718 112.19674 
L 86.346648 108.448684 
L 87.472051 106.574655 
L 87.575767 104.700627 
L 88.03656 102.826599 
L 88.784019 104.700627 
L 89.904206 102.826599 
L 91.301239 100.952571 
L 91.321497 102.826599 
L 91.655878 104.700627 
L 92.457638 102.826599 
L 93.976426 100.952571 
L 95.121109 102.826599 
L 100.262696 100.952571 
L 101.181671 99.078543 
L 101.542617 95.330486 
L 102.295348 93.456458 
L 105.385229 91.58243 
L 107.077524 93.456458 
L 109.249031 95.330486 
L 109.694643 93.456458 
L 110.489016 95.330486 
L 110.940388 97.204515 
L 114.785638 95.330486 
L 116.691155 97.204515 
L 117.690914 99.078543 
L 120.463258 97.204515 
L 122.939008 99.078543 
L 123.364633 97.204515 
L 123.496488 99.078543 
L 123.913357 100.952571 
L 124.55848 102.826599 
L 125.247595 100.952571 
L 125.526818 102.826599 
L 126.683672 104.700627 
L 126.997983 106.574655 
L 127.4297 102.826599 
L 128.090253 104.700627 
L 134.1354 106.574655 
L 134.616075 104.700627 
L 135.65368 102.826599 
L 136.268084 100.952571 
L 136.990141 102.826599 
L 137.577954 100.952571 
L 139.690544 104.700627 
L 139.977907 106.574655 
L 140.383616 108.448684 
L 140.577011 106.574655 
L 142.361322 108.448684 
L 142.80895 110.322712 
L 143.588191 112.19674 
L 143.592766 110.322712 
L 144.303299 108.448684 
L 144.606436 106.574655 
L 144.653678 108.448684 
L 145.334164 110.322712 
L 145.844525 112.19674 
L 146.114864 110.322712 
L 147.407577 108.448684 
L 148.324619 110.322712 
L 148.981409 108.448684 
L 149.271498 110.322712 
L 149.745558 108.448684 
L 150.40172 106.574655 
L 151.577013 104.700627 
L 152.053482 108.448684 
L 152.330699 106.574655 
L 153.196622 108.448684 
L 155.344032 110.322712 
L 155.476661 112.19674 
L 155.582128 110.322712 
L 157.805281 108.448684 
L 158.410454 104.700627 
L 160.170703 100.952571 
L 160.53345 102.826599 
L 160.752308 104.700627 
L 160.778282 102.826599 
L 161.304102 104.700627 
L 162.195006 106.574655 
L 162.63157 108.448684 
L 162.777885 110.322712 
L 163.972902 108.448684 
L 164.348904 110.322712 
L 164.58886 112.19674 
L 166.811333 114.070768 
L 167.823369 112.19674 
L 168.160425 115.944796 
L 168.505197 114.070768 
L 168.550634 112.19674 
L 170.282995 110.322712 
L 174.272489 108.448684 
L 176.038371 106.574655 
L 176.817845 110.322712 
L 180.744307 112.19674 
L 181.246212 110.322712 
L 182.408806 108.448684 
L 186.884853 110.322712 
L 187.220712 106.574655 
L 188.014627 104.700627 
L 188.374473 106.574655 
L 189.072124 104.700627 
L 190.115172 102.826599 
L 190.184884 100.952571 
L 193.618245 102.826599 
L 194.070736 100.952571 
L 194.863182 99.078543 
L 197.819402 100.952571 
L 197.841294 99.078543 
L 199.232054 100.952571 
L 200.094832 99.078543 
L 201.677843 100.952571 
L 201.772606 102.826599 
L 202.493771 104.700627 
L 202.55436 106.574655 
L 202.983493 108.448684 
L 204.38921 110.322712 
L 204.513992 108.448684 
L 207.495311 110.322712 
L 207.587769 112.19674 
L 209.132776 114.070768 
L 209.246827 112.19674 
L 209.319702 114.070768 
L 209.708309 112.19674 
L 210.490511 110.322712 
L 210.888888 112.19674 
L 210.961364 110.322712 
L 211.246669 108.448684 
L 212.58786 110.322712 
L 213.486005 108.448684 
L 214.165542 110.322712 
L 214.968942 108.448684 
L 215.385165 106.574655 
L 216.761426 104.700627 
L 217.233062 106.574655 
L 217.91705 108.448684 
L 218.133662 106.574655 
L 219.381538 104.700627 
L 219.395673 106.574655 
L 220.042668 108.448684 
L 222.01441 106.574655 
L 222.356676 104.700627 
L 224.413063 100.952571 
L 224.549342 102.826599 
L 224.631349 100.952571 
L 225.47833 99.078543 
L 225.686452 93.456458 
L 225.889085 91.58243 
L 225.97246 82.212289 
L 226.10978 78.464233 
L 226.505284 69.094092 
L 226.609869 70.96812 
L 226.643837 69.094092 
L 227.123781 67.220064 
L 227.331797 63.472007 
L 227.476949 61.597979 
L 227.858755 59.723951 
L 228.076013 57.849923 
L 228.331707 48.479782 
L 229.156786 46.605754 
L 230.138306 40.983669 
L 231.06421 31.613529 
L 231.142479 27.865472 
L 231.915684 29.7395 
L 232.041508 25.991444 
L 232.503733 24.117416 
L 232.770248 22.243388 
L 233.501262 24.117416 
L 234.427996 22.243388 
L 234.448097 20.36936 
L 235.065424 18.495331 
L 235.370228 20.36936 
L 235.500333 22.243388 
L 236.286413 20.36936 
L 236.464756 18.495331 
L 236.902377 16.621303 
L 238.465898 14.747275 
L 239.414871 12.873247 
L 239.608832 10.999219 
L 239.855035 12.873247 
L 239.973095 14.747275 
L 240.675289 12.873247 
L 241.030452 14.747275 
L 241.159156 16.621303 
L 241.938636 18.495331 
L 241.9509 16.621303 
L 242.936359 18.495331 
L 243.431322 16.621303 
L 243.836725 18.495331 
L 244.810411 16.621303 
L 245.60452 14.747275 
L 247.104347 18.495331 
L 247.132872 16.621303 
L 248.00123 20.36936 
L 248.358992 18.495331 
L 249.282498 22.243388 
L 249.522674 24.117416 
L 249.878086 22.243388 
L 250.59422 24.117416 
L 250.953892 25.991444 
L 252.168956 24.117416 
L 253.107313 22.243388 
L 253.354605 18.495331 
L 254.525115 20.36936 
L 255.126743 18.495331 
L 256.431374 16.621303 
L 256.789438 14.747275 
L 257.969072 16.621303 
L 258.199579 14.747275 
L 258.291318 16.621303 
L 258.479144 14.747275 
L 258.957938 16.621303 
L 259.253165 18.495331 
L 259.700749 16.621303 
L 260.481658 18.495331 
L 261.112935 20.36936 
L 261.254125 18.495331 
L 261.675652 16.621303 
L 262.018117 18.495331 
L 262.882705 16.621303 
L 263.9149 18.495331 
L 263.965675 20.36936 
L 264.236958 18.495331 
L 264.555635 20.36936 
L 265.425599 22.243388 
L 265.992999 16.621303 
L 267.37208 14.747275 
L 267.620985 12.873247 
L 271.714482 14.747275 
L 272.269639 16.621303 
L 272.368518 18.495331 
L 272.62809 20.36936 
L 274.203194 18.495331 
L 275.002308 16.621303 
L 275.151789 18.495331 
L 275.187499 16.621303 
L 276.395074 18.495331 
L 276.898913 20.36936 
L 277.55545 22.243388 
L 277.665766 18.495331 
L 277.94528 16.621303 
L 278.641379 18.495331 
L 278.79037 22.243388 
L 278.85049 20.36936 
L 278.914708 22.243388 
L 279.334136 20.36936 
L 279.932832 18.495331 
L 280.339909 20.36936 
L 280.411923 18.495331 
L 280.817969 16.621303 
L 281.177936 18.495331 
L 282.070785 20.36936 
L 282.732315 22.243388 
L 282.787665 24.117416 
L 283.371501 25.991444 
L 283.639395 24.117416 
L 284.402923 22.243388 
L 284.442238 24.117416 
L 284.473167 22.243388 
L 284.757055 20.36936 
L 284.786552 22.243388 
L 286.260393 24.117416 
L 286.277542 22.243388 
L 286.457374 20.36936 
L 286.499714 18.495331 
L 286.541957 20.36936 
L 286.870437 18.495331 
L 287.006005 20.36936 
L 287.148644 16.621303 
L 287.470131 18.495331 
L 288.248093 16.621303 
L 291.62995 14.747275 
L 292.660196 12.873247 
L 293.394672 10.999219 
L 294.200778 12.873247 
L 294.428918 14.747275 
L 294.688215 12.873247 
L 295.293259 14.747275 
L 295.330317 16.621303 
L 295.467389 14.747275 
L 295.850472 12.873247 
L 295.924531 14.747275 
L 298.150735 12.873247 
L 298.939207 14.747275 
L 299.125373 16.621303 
L 299.626647 18.495331 
L 299.925717 16.621303 
L 300.248396 18.495331 
L 300.28318 20.36936 
L 300.493335 22.243388 
L 301.687701 24.117416 
L 301.883453 22.243388 
L 302.009571 24.117416 
L 302.322173 25.991444 
L 302.779296 24.117416 
L 303.415097 22.243388 
L 304.31341 20.36936 
L 304.382476 18.495331 
L 304.717985 20.36936 
L 304.861546 22.243388 
L 305.281467 20.36936 
L 305.42277 18.495331 
L 305.760544 20.36936 
L 305.815867 22.243388 
L 306.545779 20.36936 
L 306.940396 22.243388 
L 308.41626 24.117416 
L 309.110724 22.243388 
L 309.394486 24.117416 
L 310.536864 25.991444 
L 310.788458 27.865472 
L 310.839033 25.991444 
L 311.795155 24.117416 
L 312.492826 22.243388 
L 312.897597 18.495331 
L 313.775703 16.621303 
L 314.543706 18.495331 
L 315.356519 16.621303 
L 316.45248 14.747275 
L 316.759694 9.125191 
L 317.104165 12.873247 
L 317.482032 14.747275 
L 320.90678 16.621303 
L 321.040582 14.747275 
L 321.051468 12.873247 
L 321.44283 10.999219 
L 321.595572 12.873247 
L 322.423365 10.999219 
L 322.679662 9.125191 
L 322.831733 10.999219 
L 322.833756 9.125191 
L 326.660597 10.999219 
L 326.83689 12.873247 
L 326.897244 14.747275 
L 327.841077 12.873247 
L 329.040777 10.999219 
L 329.972643 12.873247 
L 330.061718 10.999219 
L 330.123473 12.873247 
L 330.66939 16.621303 
L 330.864743 14.747275 
L 331.254096 12.873247 
L 332.067137 14.747275 
L 333.529916 16.621303 
L 334.702039 18.495331 
L 335.132245 20.36936 
L 335.995721 16.621303 
L 336.222037 12.873247 
L 337.459667 14.747275 
L 339.233883 12.873247 
L 340.762809 14.747275 
L 341.009521 12.873247 
L 341.065366 10.999219 
L 341.875884 14.747275 
L 342.001324 16.621303 
L 342.072867 14.747275 
L 342.319799 12.873247 
L 343.001629 14.747275 
L 343.188064 12.873247 
L 344.513981 9.125191 
L 345.020461 10.999219 
L 345.418122 9.125191 
L 345.804723 10.999219 
L 346.762109 9.125191 
L 348.482734 10.999219 
L 348.799125 12.873247 
L 351.341817 10.999219 
L 353.603192 9.125191 
L 354.220552 10.999219 
L 355.465234 12.873247 
L 357.018356 16.621303 
L 357.097017 18.495331 
L 358.097167 20.36936 
L 359.5849 18.495331 
L 359.687848 16.621303 
L 361.728343 14.747275 
L 361.833604 12.873247 
L 362.099914 10.999219 
L 362.571459 12.873247 
L 364.019463 10.999219 
L 364.667581 9.125191 
L 366.283556 10.999219 
L 367.020759 12.873247 
L 367.787071 10.999219 
L 367.792902 12.873247 
L 368.340084 10.999219 
L 368.349482 9.125191 
L 368.506838 7.251162 
L 368.655263 9.125191 
L 369.596169 7.251162 
L 370.337513 9.125191 
L 370.702347 7.251162 
L 370.705167 9.125191 
L 371.604175 10.999219 
L 371.821105 12.873247 
L 372.991123 10.999219 
L 374.59804 9.125191 
L 376.201027 10.999219 
L 376.23044 12.873247 
L 378.052339 10.999219 
L 378.603991 14.747275 
L 379.827176 16.621303 
L 380.225881 14.747275 
L 380.764732 16.621303 
L 381.165168 14.747275 
L 382.494152 16.621303 
L 382.581573 14.747275 
L 383.886868 16.621303 
L 384.825922 18.495331 
L 385.424617 24.117416 
L 386.500821 22.243388 
L 387.303315 24.117416 
L 387.506694 22.243388 
L 387.620319 24.117416 
L 387.67436 22.243388 
L 388.537158 24.117416 
L 388.550487 22.243388 
L 389.381562 20.36936 
L 390.508348 18.495331 
L 391.98293 16.621303 
L 392.766586 18.495331 
L 393.883666 16.621303 
L 394.600668 18.495331 
L 395.121399 16.621303 
L 395.486936 14.747275 
L 396.016966 16.621303 
L 396.307583 18.495331 
L 396.349724 16.621303 
L 396.593166 18.495331 
L 397.559822 16.621303 
L 397.56656 18.495331 
L 398.324931 20.36936 
L 398.377864 18.495331 
L 398.732908 16.621303 
L 398.8751 18.495331 
L 399.306498 16.621303 
L 399.395372 14.747275 
L 400.682194 16.621303 
L 400.935972 14.747275 
L 401.350077 12.873247 
L 401.933323 14.747275 
L 403.54668 12.873247 
L 404.085625 14.747275 
L 404.085625 14.747275 
" clip-path="url(#p5617bfca8c)" style="fill: none; stroke: #1f77b4; stroke-width: 1.5; stroke-linecap: square"/>
   </g>
   <g id="line2d_19">
    <path d="M 225.535061 168.417585 
L 225.897297 175.913698 
L 225.97246 183.40981 
L 226.10978 187.157867 
L 226.505284 196.528007 
L 226.609869 194.653979 
L 226.643837 196.528007 
L 227.123781 198.402036 
L 227.331797 202.150092 
L 227.476949 204.02412 
L 227.858755 205.898148 
L 228.076013 207.772176 
L 228.331707 217.142317 
L 229.156786 219.016346 
L 230.138306 224.63843 
L 231.06421 234.008571 
L 231.142479 237.756627 
L 231.915684 235.882599 
L 232.041508 239.630655 
L 232.503733 241.504684 
L 232.770248 243.378712 
L 233.501262 241.504684 
L 234.427996 243.378712 
L 234.448097 245.25274 
L 235.065424 247.126768 
L 235.370228 245.25274 
L 235.500333 243.378712 
L 236.286413 245.25274 
L 236.464756 247.126768 
L 236.902377 249.000796 
L 238.465898 250.874824 
L 239.414871 252.748853 
L 239.608832 254.622881 
L 239.855035 252.748853 
L 239.973095 250.874824 
L 240.675289 252.748853 
L 241.030452 250.874824 
L 241.159156 249.000796 
L 241.938636 247.126768 
L 241.9509 249.000796 
L 242.936359 247.126768 
L 243.431322 249.000796 
L 243.836725 247.126768 
L 244.810411 249.000796 
L 245.60452 250.874824 
L 247.104347 247.126768 
L 247.132872 249.000796 
L 248.00123 245.25274 
L 248.358992 247.126768 
L 249.282498 243.378712 
L 249.522674 241.504684 
L 249.878086 243.378712 
L 250.59422 241.504684 
L 250.953892 239.630655 
L 252.168956 241.504684 
L 253.107313 243.378712 
L 253.354605 247.126768 
L 254.525115 245.25274 
L 255.126743 247.126768 
L 256.431374 249.000796 
L 256.789438 250.874824 
L 257.969072 249.000796 
L 258.199579 250.874824 
L 258.291318 249.000796 
L 258.479144 250.874824 
L 258.957938 249.000796 
L 259.253165 247.126768 
L 259.700749 249.000796 
L 260.481658 247.126768 
L 261.112935 245.25274 
L 261.254125 247.126768 
L 261.675652 249.000796 
L 262.018117 247.126768 
L 262.882705 249.000796 
L 263.9149 247.126768 
L 263.965675 245.25274 
L 264.236958 247.126768 
L 264.555635 245.25274 
L 265.425599 243.378712 
L 265.992999 249.000796 
L 267.37208 250.874824 
L 267.620985 252.748853 
L 271.714482 250.874824 
L 272.269639 249.000796 
L 272.368518 247.126768 
L 272.62809 245.25274 
L 274.203194 247.126768 
L 275.002308 249.000796 
L 275.151789 247.126768 
L 275.187499 249.000796 
L 276.395074 247.126768 
L 276.898913 245.25274 
L 277.55545 243.378712 
L 277.665766 247.126768 
L 277.94528 249.000796 
L 278.641379 247.126768 
L 278.79037 243.378712 
L 278.85049 245.25274 
L 278.914708 243.378712 
L 279.334136 245.25274 
L 279.932832 247.126768 
L 280.339909 245.25274 
L 280.411923 247.126768 
L 280.817969 249.000796 
L 281.177936 247.126768 
L 282.070785 245.25274 
L 282.732315 243.378712 
L 282.787665 241.504684 
L 283.371501 239.630655 
L 283.639395 241.504684 
L 284.402923 243.378712 
L 284.442238 241.504684 
L 284.473167 243.378712 
L 284.757055 245.25274 
L 284.786552 243.378712 
L 286.260393 241.504684 
L 286.277542 243.378712 
L 286.457374 245.25274 
L 286.499714 247.126768 
L 286.541957 245.25274 
L 286.870437 247.126768 
L 287.006005 245.25274 
L 287.148644 249.000796 
L 287.470131 247.126768 
L 288.248093 249.000796 
L 291.62995 250.874824 
L 292.660196 252.748853 
L 293.394672 254.622881 
L 294.200778 252.748853 
L 294.428918 250.874824 
L 294.688215 252.748853 
L 295.293259 250.874824 
L 295.330317 249.000796 
L 295.467389 250.874824 
L 295.850472 252.748853 
L 295.924531 250.874824 
L 298.150735 252.748853 
L 298.939207 250.874824 
L 299.125373 249.000796 
L 299.626647 247.126768 
L 299.925717 249.000796 
L 300.248396 247.126768 
L 300.28318 245.25274 
L 300.493335 243.378712 
L 301.687701 241.504684 
L 301.883453 243.378712 
L 302.009571 241.504684 
L 302.322173 239.630655 
L 302.779296 241.504684 
L 303.415097 243.378712 
L 304.31341 245.25274 
L 304.382476 247.126768 
L 304.717985 245.25274 
L 304.861546 243.378712 
L 305.281467 245.25274 
L 305.42277 247.126768 
L 305.760544 245.25274 
L 305.815867 243.378712 
L 306.545779 245.25274 
L 306.940396 243.378712 
L 308.41626 241.504684 
L 309.110724 243.378712 
L 309.394486 241.504684 
L 310.536864 239.630655 
L 310.788458 237.756627 
L 310.839033 239.630655 
L 311.795155 241.504684 
L 312.492826 243.378712 
L 312.897597 247.126768 
L 313.775703 249.000796 
L 314.543706 247.126768 
L 315.356519 249.000796 
L 316.45248 250.874824 
L 316.759694 256.496909 
L 317.104165 252.748853 
L 317.482032 250.874824 
L 320.90678 249.000796 
L 321.040582 250.874824 
L 321.051468 252.748853 
L 321.44283 254.622881 
L 321.595572 252.748853 
L 322.423365 254.622881 
L 322.679662 256.496909 
L 322.831733 254.622881 
L 322.833756 256.496909 
L 326.660597 254.622881 
L 326.83689 252.748853 
L 326.897244 250.874824 
L 327.841077 252.748853 
L 329.040777 254.622881 
L 329.972643 252.748853 
L 330.061718 254.622881 
L 330.123473 252.748853 
L 330.66939 249.000796 
L 330.864743 250.874824 
L 331.254096 252.748853 
L 332.067137 250.874824 
L 333.529916 249.000796 
L 334.702039 247.126768 
L 335.132245 245.25274 
L 335.995721 249.000796 
L 336.222037 252.748853 
L 337.459667 250.874824 
L 339.233883 252.748853 
L 340.762809 250.874824 
L 341.009521 252.748853 
L 341.065366 254.622881 
L 341.875884 250.874824 
L 342.001324 249.000796 
L 342.072867 250.874824 
L 342.319799 252.748853 
L 343.001629 250.874824 
L 343.188064 252.748853 
L 344.513981 256.496909 
L 345.020461 254.622881 
L 345.418122 256.496909 
L 345.804723 254.622881 
L 346.762109 256.496909 
L 348.482734 254.622881 
L 348.799125 252.748853 
L 351.341817 254.622881 
L 353.603192 256.496909 
L 354.220552 254.622881 
L 355.465234 252.748853 
L 357.018356 249.000796 
L 357.097017 247.126768 
L 358.097167 245.25274 
L 359.5849 247.126768 
L 359.687848 249.000796 
L 361.728343 250.874824 
L 361.833604 252.748853 
L 362.099914 254.622881 
L 362.571459 252.748853 
L 364.019463 254.622881 
L 364.667581 256.496909 
L 366.283556 254.622881 
L 367.020759 252.748853 
L 367.787071 254.622881 
L 367.792902 252.748853 
L 368.340084 254.622881 
L 368.349482 256.496909 
L 368.506838 258.370937 
L 368.655263 256.496909 
L 369.596169 258.370937 
L 370.337513 256.496909 
L 370.702347 258.370937 
L 370.705167 256.496909 
L 371.604175 254.622881 
L 371.821105 252.748853 
L 372.991123 254.622881 
L 374.59804 256.496909 
L 376.201027 254.622881 
L 376.23044 252.748853 
L 378.052339 254.622881 
L 378.603991 250.874824 
L 379.827176 249.000796 
L 380.225881 250.874824 
L 380.764732 249.000796 
L 381.165168 250.874824 
L 382.494152 249.000796 
L 382.581573 250.874824 
L 383.886868 249.000796 
L 384.825922 247.126768 
L 385.424617 241.504684 
L 386.500821 243.378712 
L 387.303315 241.504684 
L 387.506694 243.378712 
L 387.620319 241.504684 
L 387.67436 243.378712 
L 388.537158 241.504684 
L 388.550487 243.378712 
L 389.381562 245.25274 
L 390.508348 247.126768 
L 391.98293 249.000796 
L 392.766586 247.126768 
L 393.883666 249.000796 
L 394.600668 247.126768 
L 395.121399 249.000796 
L 395.486936 250.874824 
L 396.016966 249.000796 
L 396.307583 247.126768 
L 396.349724 249.000796 
L 396.593166 247.126768 
L 397.559822 249.000796 
L 397.56656 247.126768 
L 398.324931 245.25274 
L 398.377864 247.126768 
L 398.732908 249.000796 
L 398.8751 247.126768 
L 399.306498 249.000796 
L 399.395372 250.874824 
L 400.682194 249.000796 
L 400.935972 250.874824 
L 401.350077 252.748853 
L 401.933323 250.874824 
L 403.54668 252.748853 
L 404.085625 250.874824 
L 404.085625 250.874824 
" clip-path="url(#p5617bfca8c)" style="fill: none; stroke: #ff7f0e; stroke-width: 1.5; stroke-linecap: square"/>
   </g>
   <g id="line2d_20">
    <path d="M 225.47833 273.363162 
L 225.47833 7.251162 
" clip-path="url(#p5617bfca8c)" style="fill: none; stroke-dasharray: 1.5,2.475; stroke-dashoffset: 0; stroke: #000000; stroke-width: 1.5"/>
   </g>
   <g id="line2d_21">
    <path d="M 239.608832 273.363162 
L 239.608832 7.251162 
" clip-path="url(#p5617bfca8c)" style="fill: none; stroke-dasharray: 1.5,2.475; stroke-dashoffset: 0; stroke: #000000; stroke-width: 1.5"/>
   </g>
   <g id="line2d_22">
    <path d="M 403.887895 273.363162 
L 403.887895 7.251162 
" clip-path="url(#p5617bfca8c)" style="fill: none; stroke-dasharray: 1.5,2.475; stroke-dashoffset: 0; stroke: #000000; stroke-width: 1.5"/>
   </g>
   <g id="patch_3">
    <path d="M 46.965625 273.363162 
L 46.965625 7.251162 
" style="fill: none; stroke: #000000; stroke-width: 0.8; stroke-linejoin: miter; stroke-linecap: square"/>
   </g>
   <g id="patch_4">
    <path d="M 404.085625 273.363162 
L 404.085625 7.251162 
" style="fill: none; stroke: #000000; stroke-width: 0.8; stroke-linejoin: miter; stroke-linecap: square"/>
   </g>
   <g id="patch_5">
    <path d="M 46.965625 273.363162 
L 404.085625 273.363162 
" style="fill: none; stroke: #000000; stroke-width: 0.8; stroke-linejoin: miter; stroke-linecap: square"/>
   </g>
   <g id="patch_6">
    <path d="M 46.965625 7.251162 
L 404.085625 7.251162 
" style="fill: none; stroke: #000000; stroke-width: 0.8; stroke-linejoin: miter; stroke-linecap: square"/>
   </g>
   <g id="legend_1">
    <g id="patch_7">
     <path d="M 53.965625 44.607412 
L 99.667188 44.607412 
Q 101.667188 44.607412 101.667188 42.607412 
L 101.667188 14.251162 
Q 101.667188 12.251162 99.667188 12.251162 
L 53.965625 12.251162 
Q 51.965625 12.251162 51.965625 14.251162 
L 51.965625 42.607412 
Q 51.965625 44.607412 53.965625 44.607412 
z
" style="fill: #ffffff; opacity: 0.8; stroke: #cccccc; stroke-linejoin: miter"/>
    </g>
    <g id="line2d_23">
     <path d="M 55.965625 20.3496 
L 65.965625 20.3496 
L 75.965625 20.3496 
" style="fill: none; stroke: #1f77b4; stroke-width: 1.5; stroke-linecap: square"/>
    </g>
    <g id="text_20">
     <!-- AB -->
     <g transform="translate(83.965625 23.8496) scale(0.1 -0.1)">
      <defs>
       <path id="DejaVuSans-41" d="M 2188 4044 
L 1331 1722 
L 3047 1722 
L 2188 4044 
z
M 1831 4666 
L 2547 4666 
L 4325 0 
L 3669 0 
L 3244 1197 
L 1141 1197 
L 716 0 
L 50 0 
L 1831 4666 
z
" transform="scale(0.015625)"/>
       <path id="DejaVuSans-42" d="M 1259 2228 
L 1259 519 
L 2272 519 
Q 2781 519 3026 730 
Q 3272 941 3272 1375 
Q 3272 1813 3026 2020 
Q 2781 2228 2272 2228 
L 1259 2228 
z
M 1259 4147 
L 1259 2741 
L 2194 2741 
Q 2656 2741 2882 2914 
Q 3109 3088 3109 3444 
Q 3109 3797 2882 3972 
Q 2656 4147 2194 4147 
L 1259 4147 
z
M 628 4666 
L 2241 4666 
Q 2963 4666 3353 4366 
Q 3744 4066 3744 3513 
Q 3744 3084 3544 2831 
Q 3344 2578 2956 2516 
Q 3422 2416 3680 2098 
Q 3938 1781 3938 1306 
Q 3938 681 3513 340 
Q 3088 0 2303 0 
L 628 0 
L 628 4666 
z
" transform="scale(0.015625)"/>
      </defs>
      <use xlink:href="#DejaVuSans-41"/>
      <use xlink:href="#DejaVuSans-42" transform="translate(68.408203 0)"/>
     </g>
    </g>
    <g id="line2d_24">
     <path d="M 55.965625 35.027725 
L 65.965625 35.027725 
L 75.965625 35.027725 
" style="fill: none; stroke: #ff7f0e; stroke-width: 1.5; stroke-linecap: square"/>
    </g>
    <g id="text_21">
     <!-- A -->
     <g transform="translate(83.965625 38.527725) scale(0.1 -0.1)">
      <use xlink:href="#DejaVuSans-41"/>
     </g>
    </g>
   </g>
  </g>
 </g>
 <defs>
  <clipPath id="p5617bfca8c">
   <rect x="46.965625" y="7.251162" width="357.12" height="266.112"/>
  </clipPath>
 </defs>
</svg>
