<?xml version="1.0" encoding="utf-8" standalone="no"?>
<!DOCTYPE svg PUBLIC "-//W3C//DTD SVG 1.1//EN"
  "http://www.w3.org/Graphics/SVG/1.1/DTD/svg11.dtd">
<svg xmlns:xlink="http://www.w3.org/1999/xlink" width="332.39952pt" height="332.39952pt" viewBox="0 0 332.39952 332.39952" xmlns="http://www.w3.org/2000/svg" version="1.1">
 <metadata>
  <rdf:RDF xmlns:dc="http://purl.org/dc/elements/1.1/" xmlns:cc="http://creativecommons.org/ns#" xmlns:rdf="http://www.w3.org/1999/02/22-rdf-syntax-ns#">
   <cc:Work>
    <dc:type rdf:resource="http://purl.org/dc/dcmitype/StillImage"/>
    <dc:date>2026-07-10T14:29:43.880919</dc:date>
    <dc:format>image/svg+xml</dc:format>
    <dc:creator>
     <cc:Agent>
      <dc:title>Matplotlib v3.11.0, https://matplotlib.org/</dc:title>
     </cc:Agent>
    </dc:creator>
   </cc:Work>
  </rdf:RDF>
 </metadata>
 <defs>
  <style type="text/css">*{stroke-linejoin: round; stroke-linecap: butt}</style>
 </defs>
 <g id="figure_1">
  <g id="patch_1">
   <path d="M 0 332.39952 
L 332.39952 332.39952 
L 332.39952 0 
L 0 0 
z
" style="fill: #ffffff"/>
  </g>
  <g id="axes_1">
   <g id="patch_2">
    <path d="M 44.103906 96.532593 
L 325.19952 96.532593 
L 325.19952 7.2 
L 44.103906 7.2 
z
" style="fill: #ffffff"/>
   </g>
   <g id="matplotlib.axis_1">
    <g id="xtick_1">
     <g id="line2d_1">
      <defs>
       <path id="m44aa79f947" d="M 0 0 
L 0 3.5 
" style="stroke: #000000; stroke-width: 0.8"/>
      </defs>
      <g>
       <use xlink:href="#m44aa79f947" x="56.88098" y="96.532593" style="stroke: #000000; stroke-width: 0.8"/>
      </g>
     </g>
    </g>
    <g id="xtick_2">
     <g id="line2d_2">
      <g>
       <use xlink:href="#m44aa79f947" x="88.433274" y="96.532593" style="stroke: #000000; stroke-width: 0.8"/>
      </g>
     </g>
    </g>
    <g id="xtick_3">
     <g id="line2d_3">
      <g>
       <use xlink:href="#m44aa79f947" x="119.985568" y="96.532593" style="stroke: #000000; stroke-width: 0.8"/>
      </g>
     </g>
    </g>
    <g id="xtick_4">
     <g id="line2d_4">
      <g>
       <use xlink:href="#m44aa79f947" x="151.537863" y="96.532593" style="stroke: #000000; stroke-width: 0.8"/>
      </g>
     </g>
    </g>
    <g id="xtick_5">
     <g id="line2d_5">
      <g>
       <use xlink:href="#m44aa79f947" x="183.090157" y="96.532593" style="stroke: #000000; stroke-width: 0.8"/>
      </g>
     </g>
    </g>
    <g id="xtick_6">
     <g id="line2d_6">
      <g>
       <use xlink:href="#m44aa79f947" x="214.642452" y="96.532593" style="stroke: #000000; stroke-width: 0.8"/>
      </g>
     </g>
    </g>
    <g id="xtick_7">
     <g id="line2d_7">
      <g>
       <use xlink:href="#m44aa79f947" x="246.194746" y="96.532593" style="stroke: #000000; stroke-width: 0.8"/>
      </g>
     </g>
    </g>
    <g id="xtick_8">
     <g id="line2d_8">
      <g>
       <use xlink:href="#m44aa79f947" x="277.747041" y="96.532593" style="stroke: #000000; stroke-width: 0.8"/>
      </g>
     </g>
    </g>
    <g id="xtick_9">
     <g id="line2d_9">
      <g>
       <use xlink:href="#m44aa79f947" x="309.299335" y="96.532593" style="stroke: #000000; stroke-width: 0.8"/>
      </g>
     </g>
    </g>
   </g>
   <g id="matplotlib.axis_2">
    <g id="ytick_1">
     <g id="line2d_10">
      <defs>
       <path id="m70a1966446" d="M 0 0 
L -3.5 0 
" style="stroke: #000000; stroke-width: 0.8"/>
      </defs>
      <g>
       <use xlink:href="#m70a1966446" x="44.103906" y="92.472021" style="stroke: #000000; stroke-width: 0.8"/>
      </g>
     </g>
     <g id="text_1">
      <!-- 0 -->
      <g transform="translate(30.741406 96.270849) scale(0.1 -0.1)">
       <defs>
        <path id="DejaVuSans-13" d="M 2034 4250 
Q 1547 4250 1301 3770 
Q 1056 3291 1056 2328 
Q 1056 1369 1301 889 
Q 1547 409 2034 409 
Q 2525 409 2770 889 
Q 3016 1369 3016 2328 
Q 3016 3291 2770 3770 
Q 2525 4250 2034 4250 
z
M 2034 4750 
Q 2819 4750 3233 4129 
Q 3647 3509 3647 2328 
Q 3647 1150 3233 529 
Q 2819 -91 2034 -91 
Q 1250 -91 836 529 
Q 422 1150 422 2328 
Q 422 3509 836 4129 
Q 1250 4750 2034 4750 
z
" transform="scale(0.015625)"/>
       </defs>
       <use xlink:href="#DejaVuSans-13"/>
      </g>
     </g>
    </g>
    <g id="ytick_2">
     <g id="line2d_11">
      <g>
       <use xlink:href="#m70a1966446" x="44.103906" y="51.866296" style="stroke: #000000; stroke-width: 0.8"/>
      </g>
     </g>
     <g id="text_2">
      <!-- 5 -->
      <g transform="translate(30.741406 55.665125) scale(0.1 -0.1)">
       <defs>
        <path id="DejaVuSans-18" d="M 691 4666 
L 3169 4666 
L 3169 4134 
L 1269 4134 
L 1269 2991 
Q 1406 3038 1543 3061 
Q 1681 3084 1819 3084 
Q 2600 3084 3056 2656 
Q 3513 2228 3513 1497 
Q 3513 744 3044 326 
Q 2575 -91 1722 -91 
Q 1428 -91 1123 -41 
Q 819 9 494 109 
L 494 744 
Q 775 591 1075 516 
Q 1375 441 1709 441 
Q 2250 441 2565 725 
Q 2881 1009 2881 1497 
Q 2881 1984 2565 2268 
Q 2250 2553 1709 2553 
Q 1456 2553 1204 2497 
Q 953 2441 691 2322 
L 691 4666 
z
" transform="scale(0.015625)"/>
       </defs>
       <use xlink:href="#DejaVuSans-18"/>
      </g>
     </g>
    </g>
    <g id="ytick_3">
     <g id="line2d_12">
      <g>
       <use xlink:href="#m70a1966446" x="44.103906" y="11.260572" style="stroke: #000000; stroke-width: 0.8"/>
      </g>
     </g>
     <g id="text_3">
      <!-- 10 -->
      <g transform="translate(24.378906 15.059401) scale(0.1 -0.1)">
       <defs>
        <path id="DejaVuSans-14" d="M 794 531 
L 1825 531 
L 1825 4091 
L 703 3866 
L 703 4441 
L 1819 4666 
L 2450 4666 
L 2450 531 
L 3481 531 
L 3481 0 
L 794 0 
L 794 531 
z
" transform="scale(0.015625)"/>
       </defs>
       <use xlink:href="#DejaVuSans-14"/>
       <use xlink:href="#DejaVuSans-13" transform="translate(63.625 0)"/>
      </g>
     </g>
    </g>
    <g id="text_4">
     <!-- Extracellular lactose -->
     <g transform="translate(17.976563 102.838171) rotate(-90) scale(0.1 -0.1)">
      <defs>
       <path id="DejaVuSans-28" d="M 628 4666 
L 3578 4666 
L 3578 4134 
L 1259 4134 
L 1259 2753 
L 3481 2753 
L 3481 2222 
L 1259 2222 
L 1259 531 
L 3634 531 
L 3634 0 
L 628 0 
L 628 4666 
z
" transform="scale(0.015625)"/>
       <path id="DejaVuSans-5b" d="M 3513 3500 
L 2247 1797 
L 3578 0 
L 2900 0 
L 1881 1375 
L 863 0 
L 184 0 
L 1544 1831 
L 300 3500 
L 978 3500 
L 1906 2253 
L 2834 3500 
L 3513 3500 
z
" transform="scale(0.015625)"/>
       <path id="DejaVuSans-57" d="M 1172 4494 
L 1172 3500 
L 2356 3500 
L 2356 3053 
L 1172 3053 
L 1172 1153 
Q 1172 725 1289 603 
Q 1406 481 1766 481 
L 2356 481 
L 2356 0 
L 1766 0 
Q 1100 0 847 248 
Q 594 497 594 1153 
L 594 3053 
L 172 3053 
L 172 3500 
L 594 3500 
L 594 4494 
L 1172 4494 
z
" transform="scale(0.015625)"/>
       <path id="DejaVuSans-55" d="M 2631 2963 
Q 2534 3019 2420 3045 
Q 2306 3072 2169 3072 
Q 1681 3072 1420 2755 
Q 1159 2438 1159 1844 
L 1159 0 
L 581 0 
L 581 3500 
L 1159 3500 
L 1159 2956 
Q 1341 3275 1631 3429 
Q 1922 3584 2338 3584 
Q 2397 3584 2469 3576 
Q 2541 3569 2628 3553 
L 2631 2963 
z
" transform="scale(0.015625)"/>
       <path id="DejaVuSans-44" d="M 2194 1759 
Q 1497 1759 1228 1600 
Q 959 1441 959 1056 
Q 959 750 1161 570 
Q 1363 391 1709 391 
Q 2188 391 2477 730 
Q 2766 1069 2766 1631 
L 2766 1759 
L 2194 1759 
z
M 3341 1997 
L 3341 0 
L 2766 0 
L 2766 531 
Q 2569 213 2275 61 
Q 1981 -91 1556 -91 
Q 1019 -91 701 211 
Q 384 513 384 1019 
Q 384 1609 779 1909 
Q 1175 2209 1959 2209 
L 2766 2209 
L 2766 2266 
Q 2766 2663 2505 2880 
Q 2244 3097 1772 3097 
Q 1472 3097 1187 3025 
Q 903 2953 641 2809 
L 641 3341 
Q 956 3463 1253 3523 
Q 1550 3584 1831 3584 
Q 2591 3584 2966 3190 
Q 3341 2797 3341 1997 
z
" transform="scale(0.015625)"/>
       <path id="DejaVuSans-46" d="M 3122 3366 
L 3122 2828 
Q 2878 2963 2633 3030 
Q 2388 3097 2138 3097 
Q 1578 3097 1268 2742 
Q 959 2388 959 1747 
Q 959 1106 1268 751 
Q 1578 397 2138 397 
Q 2388 397 2633 464 
Q 2878 531 3122 666 
L 3122 134 
Q 2881 22 2623 -34 
Q 2366 -91 2075 -91 
Q 1284 -91 818 406 
Q 353 903 353 1747 
Q 353 2603 823 3093 
Q 1294 3584 2113 3584 
Q 2378 3584 2631 3529 
Q 2884 3475 3122 3366 
z
" transform="scale(0.015625)"/>
       <path id="DejaVuSans-48" d="M 3597 1894 
L 3597 1613 
L 953 1613 
Q 991 1019 1311 708 
Q 1631 397 2203 397 
Q 2534 397 2845 478 
Q 3156 559 3463 722 
L 3463 178 
Q 3153 47 2828 -22 
Q 2503 -91 2169 -91 
Q 1331 -91 842 396 
Q 353 884 353 1716 
Q 353 2575 817 3079 
Q 1281 3584 2069 3584 
Q 2775 3584 3186 3129 
Q 3597 2675 3597 1894 
z
M 3022 2063 
Q 3016 2534 2758 2815 
Q 2500 3097 2075 3097 
Q 1594 3097 1305 2825 
Q 1016 2553 972 2059 
L 3022 2063 
z
" transform="scale(0.015625)"/>
       <path id="DejaVuSans-4f" d="M 603 4863 
L 1178 4863 
L 1178 0 
L 603 0 
L 603 4863 
z
" transform="scale(0.015625)"/>
       <path id="DejaVuSans-58" d="M 544 1381 
L 544 3500 
L 1119 3500 
L 1119 1403 
Q 1119 906 1312 657 
Q 1506 409 1894 409 
Q 2359 409 2629 706 
Q 2900 1003 2900 1516 
L 2900 3500 
L 3475 3500 
L 3475 0 
L 2900 0 
L 2900 538 
Q 2691 219 2414 64 
Q 2138 -91 1772 -91 
Q 1169 -91 856 284 
Q 544 659 544 1381 
z
M 1991 3584 
L 1991 3584 
z
" transform="scale(0.015625)"/>
       <path id="DejaVuSans-3" transform="scale(0.015625)"/>
       <path id="DejaVuSans-52" d="M 1959 3097 
Q 1497 3097 1228 2736 
Q 959 2375 959 1747 
Q 959 1119 1226 758 
Q 1494 397 1959 397 
Q 2419 397 2687 759 
Q 2956 1122 2956 1747 
Q 2956 2369 2687 2733 
Q 2419 3097 1959 3097 
z
M 1959 3584 
Q 2709 3584 3137 3096 
Q 3566 2609 3566 1747 
Q 3566 888 3137 398 
Q 2709 -91 1959 -91 
Q 1206 -91 779 398 
Q 353 888 353 1747 
Q 353 2609 779 3096 
Q 1206 3584 1959 3584 
z
" transform="scale(0.015625)"/>
       <path id="DejaVuSans-56" d="M 2834 3397 
L 2834 2853 
Q 2591 2978 2328 3040 
Q 2066 3103 1784 3103 
Q 1356 3103 1142 2972 
Q 928 2841 928 2578 
Q 928 2378 1081 2264 
Q 1234 2150 1697 2047 
L 1894 2003 
Q 2506 1872 2764 1633 
Q 3022 1394 3022 966 
Q 3022 478 2636 193 
Q 2250 -91 1575 -91 
Q 1294 -91 989 -36 
Q 684 19 347 128 
L 347 722 
Q 666 556 975 473 
Q 1284 391 1588 391 
Q 1994 391 2212 530 
Q 2431 669 2431 922 
Q 2431 1156 2273 1281 
Q 2116 1406 1581 1522 
L 1381 1569 
Q 847 1681 609 1914 
Q 372 2147 372 2553 
Q 372 3047 722 3315 
Q 1072 3584 1716 3584 
Q 2034 3584 2315 3537 
Q 2597 3491 2834 3397 
z
" transform="scale(0.015625)"/>
      </defs>
      <use xlink:href="#DejaVuSans-28"/>
      <use xlink:href="#DejaVuSans-5b" transform="translate(63.1875 0)"/>
      <use xlink:href="#DejaVuSans-57" transform="translate(122.375 0)"/>
      <use xlink:href="#DejaVuSans-55" transform="translate(161.578125 0)"/>
      <use xlink:href="#DejaVuSans-44" transform="translate(202.6875 0)"/>
      <use xlink:href="#DejaVuSans-46" transform="translate(263.96875 0)"/>
      <use xlink:href="#DejaVuSans-48" transform="translate(318.953125 0)"/>
      <use xlink:href="#DejaVuSans-4f" transform="translate(380.484375 0)"/>
      <use xlink:href="#DejaVuSans-4f" transform="translate(408.265625 0)"/>
      <use xlink:href="#DejaVuSans-58" transform="translate(436.046875 0)"/>
      <use xlink:href="#DejaVuSans-4f" transform="translate(499.421875 0)"/>
      <use xlink:href="#DejaVuSans-44" transform="translate(527.203125 0)"/>
      <use xlink:href="#DejaVuSans-55" transform="translate(588.484375 0)"/>
      <use xlink:href="#DejaVuSans-3" transform="translate(629.59375 0)"/>
      <use xlink:href="#DejaVuSans-4f" transform="translate(661.375 0)"/>
      <use xlink:href="#DejaVuSans-44" transform="translate(689.15625 0)"/>
      <use xlink:href="#DejaVuSans-46" transform="translate(750.4375 0)"/>
      <use xlink:href="#DejaVuSans-57" transform="translate(805.421875 0)"/>
      <use xlink:href="#DejaVuSans-52" transform="translate(844.625 0)"/>
      <use xlink:href="#DejaVuSans-56" transform="translate(905.8125 0)"/>
      <use xlink:href="#DejaVuSans-48" transform="translate(957.90625 0)"/>
     </g>
    </g>
   </g>
   <g id="line2d_13">
    <path d="M 56.88098 92.472021 
L 155.030498 92.472021 
L 155.118539 11.260572 
L 155.778612 11.341784 
L 155.894905 11.66663 
L 155.939188 11.747841 
L 156.08365 13.209647 
L 156.202132 14.833876 
L 156.343656 16.620528 
L 156.372719 16.701739 
L 156.662207 19.462929 
L 156.668532 19.54414 
L 156.789615 20.193832 
L 156.867108 20.275043 
L 156.993608 20.843523 
L 157.010529 20.924735 
L 157.132361 21.087158 
L 157.172556 21.168369 
L 157.30075 21.899272 
L 157.450825 22.467752 
L 157.476077 22.548964 
L 157.587554 22.792598 
L 157.795116 23.44229 
L 157.935597 23.929558 
L 157.954841 24.01077 
L 158.258218 25.959845 
L 158.27742 26.041056 
L 158.58766 27.908919 
L 158.705079 28.802245 
L 159.076374 31.3198 
L 159.085364 31.401012 
L 159.257984 32.294337 
L 159.300994 32.375549 
L 159.415738 32.781606 
L 159.709291 34.405835 
L 159.864901 34.487047 
L 160.027141 34.974315 
L 160.122646 35.055527 
L 160.238678 35.21795 
L 160.2625 35.299161 
L 160.405266 35.624007 
L 160.47431 35.705218 
L 160.636925 35.867641 
L 165.741469 35.948853 
L 165.840338 36.273698 
L 165.877712 36.35491 
L 165.886397 36.436121 
L 178.029581 36.517333 
L 178.269097 37.004601 
L 178.351266 37.410659 
L 179.14943 40.740328 
L 179.207977 40.82154 
L 179.363149 40.983962 
L 179.872044 41.065174 
L 179.980569 41.471231 
L 179.996983 41.552443 
L 180.340403 42.445768 
L 180.583976 42.52698 
L 180.687452 42.770614 
L 180.880124 43.339094 
L 180.964314 43.420306 
L 181.055122 43.745152 
L 181.114851 43.826363 
L 181.347259 44.882112 
L 181.561246 46.181495 
L 181.648821 46.262707 
L 181.989437 47.399667 
L 182.125035 47.480878 
L 182.267318 48.13057 
L 182.307103 48.211781 
L 182.525595 49.429953 
L 182.653031 50.160856 
L 182.768933 50.40449 
L 183.371598 51.703874 
L 183.653088 51.785085 
L 183.869076 52.272354 
L 183.991177 52.597199 
L 184.010168 52.678411 
L 184.220757 53.815371 
L 184.253175 53.896583 
L 184.352536 54.465063 
L 184.407242 54.546274 
L 184.544541 55.033543 
L 184.606434 55.114754 
L 184.797211 56.738983 
L 184.822992 56.820195 
L 184.97106 58.525635 
L 185.818624 62.911053 
L 185.964237 62.992265 
L 186.069778 63.154688 
L 186.192378 63.235899 
L 186.314563 63.641956 
L 186.456972 64.372859 
L 186.553364 64.454071 
L 186.735465 65.428608 
L 186.800982 65.50982 
L 187.318528 67.864952 
L 187.407566 67.946163 
L 187.504858 68.189798 
L 187.550823 68.271009 
L 187.6686 68.595855 
L 187.883245 69.164335 
L 188.008576 69.245546 
L 188.109948 69.326758 
L 188.184492 69.407969 
L 188.294042 69.651604 
L 188.335102 69.732815 
L 188.441237 69.976449 
L 188.561693 70.057661 
L 188.604305 70.138872 
L 188.753372 70.463718 
L 188.792579 70.54493 
L 188.91123 70.869775 
L 189.024714 71.194621 
L 189.085907 71.275833 
L 189.227256 71.844313 
L 189.249701 71.925524 
L 189.392235 72.575216 
L 189.595349 73.143696 
L 189.714557 73.224907 
L 189.841257 73.549753 
L 189.909548 73.630965 
L 190.490927 75.417616 
L 190.683086 75.498828 
L 190.780919 75.580039 
L 191.280504 75.661251 
L 191.376775 75.742462 
L 191.505677 75.823674 
L 191.56864 75.904885 
L 191.647257 75.986097 
L 191.754004 76.067308 
L 191.997805 76.148519 
L 192.104904 76.229731 
L 193.568989 79.234554 
L 193.677362 79.640612 
L 193.775225 79.721823 
L 193.901451 79.803035 
L 194.170582 79.884246 
L 194.312285 79.965458 
L 194.914659 80.046669 
L 195.021487 80.290303 
L 195.140425 80.371515 
L 195.997132 81.346052 
L 196.145385 81.670898 
L 196.183921 81.752109 
L 196.334279 81.914532 
L 196.412268 81.995744 
L 196.589291 82.401801 
L 196.835909 82.483012 
L 196.934488 82.564224 
L 197.570357 82.645435 
L 198.024853 83.051493 
L 198.135827 83.295127 
L 198.428295 83.619973 
L 198.539077 83.701184 
L 199.004739 84.188453 
L 199.556667 84.269664 
L 199.680742 84.432087 
L 200.717445 84.513299 
L 200.885821 84.675721 
L 201.084798 84.756933 
L 201.114937 84.838144 
L 201.391843 84.919356 
L 201.811527 85.244202 
L 202.077638 85.325413 
L 202.175684 85.406625 
L 202.625078 85.569047 
L 203.022888 85.650259 
L 203.163361 85.975105 
L 203.281302 86.137528 
L 203.402257 86.218739 
L 203.535337 86.543585 
L 203.861992 86.624796 
L 204.128944 86.787219 
L 204.401284 86.868431 
L 204.88413 87.112065 
L 204.983946 87.193276 
L 205.148394 87.274488 
L 205.301125 87.355699 
L 205.544134 87.436911 
L 205.787902 87.680545 
L 206.406532 87.761757 
L 206.490012 87.842968 
L 206.682243 87.924179 
L 206.813396 88.167814 
L 206.969793 88.249025 
L 207.057238 88.411448 
L 207.466458 88.49266 
L 207.611453 88.573871 
L 207.885421 88.655082 
L 208.132753 88.898717 
L 208.851306 88.979928 
L 208.996193 89.06114 
L 209.613298 89.142351 
L 209.700917 89.223563 
L 211.334726 89.304774 
L 211.472866 89.385985 
L 212.691982 89.467197 
L 212.931141 89.62962 
L 213.726336 89.710831 
L 213.891594 89.792043 
L 215.990319 89.873254 
L 216.401056 90.116889 
L 217.095267 90.1981 
L 217.119229 90.279311 
L 219.06456 90.360523 
L 219.123806 90.441734 
L 219.514445 90.604157 
L 222.086744 90.685369 
L 222.847004 90.76658 
L 223.536292 90.847792 
L 223.597433 90.929003 
L 234.697616 91.010214 
L 234.699515 91.091426 
L 235.684133 91.172637 
L 236.437274 91.253849 
L 238.7037 91.33506 
L 238.806527 91.416272 
L 238.985878 91.497483 
L 241.075286 91.578695 
L 241.193027 91.659906 
L 241.478233 91.741117 
L 241.583096 91.822329 
L 260.506983 91.90354 
L 260.724439 91.984752 
L 261.733015 92.147175 
L 312.422447 92.147175 
L 312.422447 92.147175 
" clip-path="url(#pb1c0c1e0bd)" style="fill: none; stroke: #000000; stroke-width: 1.5; stroke-linecap: square"/>
   </g>
   <g id="patch_3">
    <path d="M 44.103906 96.532593 
L 44.103906 7.2 
" style="fill: none; stroke: #000000; stroke-width: 0.8; stroke-linejoin: miter; stroke-linecap: square"/>
   </g>
   <g id="patch_4">
    <path d="M 325.19952 96.532593 
L 325.19952 7.2 
" style="fill: none; stroke: #000000; stroke-width: 0.8; stroke-linejoin: miter; stroke-linecap: square"/>
   </g>
   <g id="patch_5">
    <path d="M 44.103906 96.532593 
L 325.19952 96.532593 
" style="fill: none; stroke: #000000; stroke-width: 0.8; stroke-linejoin: miter; stroke-linecap: square"/>
   </g>
   <g id="patch_6">
    <path d="M 44.103906 7.2 
L 325.19952 7.2 
" style="fill: none; stroke: #000000; stroke-width: 0.8; stroke-linejoin: miter; stroke-linecap: square"/>
   </g>
  </g>
  <g id="axes_2">
   <g id="patch_7">
    <path d="M 44.103906 195.365666 
L 325.19952 195.365666 
L 325.19952 106.033073 
L 44.103906 106.033073 
z
" style="fill: #ffffff"/>
   </g>
   <g id="matplotlib.axis_3">
    <g id="xtick_10">
     <g id="line2d_14">
      <g>
       <use xlink:href="#m44aa79f947" x="56.88098" y="195.365666" style="stroke: #000000; stroke-width: 0.8"/>
      </g>
     </g>
    </g>
    <g id="xtick_11">
     <g id="line2d_15">
      <g>
       <use xlink:href="#m44aa79f947" x="88.433274" y="195.365666" style="stroke: #000000; stroke-width: 0.8"/>
      </g>
     </g>
    </g>
    <g id="xtick_12">
     <g id="line2d_16">
      <g>
       <use xlink:href="#m44aa79f947" x="119.985568" y="195.365666" style="stroke: #000000; stroke-width: 0.8"/>
      </g>
     </g>
    </g>
    <g id="xtick_13">
     <g id="line2d_17">
      <g>
       <use xlink:href="#m44aa79f947" x="151.537863" y="195.365666" style="stroke: #000000; stroke-width: 0.8"/>
      </g>
     </g>
    </g>
    <g id="xtick_14">
     <g id="line2d_18">
      <g>
       <use xlink:href="#m44aa79f947" x="183.090157" y="195.365666" style="stroke: #000000; stroke-width: 0.8"/>
      </g>
     </g>
    </g>
    <g id="xtick_15">
     <g id="line2d_19">
      <g>
       <use xlink:href="#m44aa79f947" x="214.642452" y="195.365666" style="stroke: #000000; stroke-width: 0.8"/>
      </g>
     </g>
    </g>
    <g id="xtick_16">
     <g id="line2d_20">
      <g>
       <use xlink:href="#m44aa79f947" x="246.194746" y="195.365666" style="stroke: #000000; stroke-width: 0.8"/>
      </g>
     </g>
    </g>
    <g id="xtick_17">
     <g id="line2d_21">
      <g>
       <use xlink:href="#m44aa79f947" x="277.747041" y="195.365666" style="stroke: #000000; stroke-width: 0.8"/>
      </g>
     </g>
    </g>
    <g id="xtick_18">
     <g id="line2d_22">
      <g>
       <use xlink:href="#m44aa79f947" x="309.299335" y="195.365666" style="stroke: #000000; stroke-width: 0.8"/>
      </g>
     </g>
    </g>
   </g>
   <g id="matplotlib.axis_4">
    <g id="ytick_4">
     <g id="line2d_23">
      <g>
       <use xlink:href="#m70a1966446" x="44.103906" y="191.305093" style="stroke: #000000; stroke-width: 0.8"/>
      </g>
     </g>
     <g id="text_5">
      <!-- 0 -->
      <g transform="translate(30.741406 195.103922) scale(0.1 -0.1)">
       <use xlink:href="#DejaVuSans-13"/>
      </g>
     </g>
    </g>
    <g id="ytick_5">
     <g id="line2d_24">
      <g>
       <use xlink:href="#m70a1966446" x="44.103906" y="150.699369" style="stroke: #000000; stroke-width: 0.8"/>
      </g>
     </g>
     <g id="text_6">
      <!-- 5 -->
      <g transform="translate(30.741406 154.498197) scale(0.1 -0.1)">
       <use xlink:href="#DejaVuSans-18"/>
      </g>
     </g>
    </g>
    <g id="ytick_6">
     <g id="line2d_25">
      <g>
       <use xlink:href="#m70a1966446" x="44.103906" y="110.093645" style="stroke: #000000; stroke-width: 0.8"/>
      </g>
     </g>
     <g id="text_7">
      <!-- 10 -->
      <g transform="translate(24.378906 113.892473) scale(0.1 -0.1)">
       <use xlink:href="#DejaVuSans-14"/>
       <use xlink:href="#DejaVuSans-13" transform="translate(63.625 0)"/>
      </g>
     </g>
    </g>
    <g id="text_8">
     <!-- LacY -->
     <g transform="translate(17.976563 162.352494) rotate(-90) scale(0.1 -0.1)">
      <defs>
       <path id="DejaVuSans-2f" d="M 628 4666 
L 1259 4666 
L 1259 531 
L 3531 531 
L 3531 0 
L 628 0 
L 628 4666 
z
" transform="scale(0.015625)"/>
       <path id="DejaVuSans-3c" d="M -13 4666 
L 666 4666 
L 1959 2747 
L 3244 4666 
L 3922 4666 
L 2272 2222 
L 2272 0 
L 1638 0 
L 1638 2222 
L -13 4666 
z
" transform="scale(0.015625)"/>
      </defs>
      <use xlink:href="#DejaVuSans-2f"/>
      <use xlink:href="#DejaVuSans-44" transform="translate(55.71875 0)"/>
      <use xlink:href="#DejaVuSans-46" transform="translate(117 0)"/>
      <use xlink:href="#DejaVuSans-3c" transform="translate(171.984375 0)"/>
     </g>
    </g>
   </g>
   <g id="line2d_26">
    <path d="M 56.88098 110.093645 
L 56.907801 110.093645 
L 57.038906 126.335935 
L 57.128284 142.578225 
L 57.278672 142.578225 
L 57.296169 134.45708 
L 57.514265 142.578225 
L 57.654528 142.578225 
L 57.82325 158.820514 
L 58.120751 175.062804 
L 58.185629 191.305093 
L 59.698332 191.305093 
L 59.86307 183.183949 
L 59.905329 191.305093 
L 64.871155 191.305093 
L 65.190462 183.183949 
L 65.299173 191.305093 
L 82.597681 191.305093 
L 82.789892 183.183949 
L 84.562947 191.305093 
L 84.577604 183.183949 
L 84.719193 175.062804 
L 84.723795 166.941659 
L 85.042317 175.062804 
L 85.266717 175.062804 
L 85.384999 191.305093 
L 85.445132 183.183949 
L 85.63321 183.183949 
L 85.770131 191.305093 
L 89.618393 191.305093 
L 90.003788 175.062804 
L 90.005075 166.941659 
L 90.498079 166.941659 
L 90.536311 183.183949 
L 91.299733 183.183949 
L 91.466749 175.062804 
L 91.807151 191.305093 
L 108.620245 191.305093 
L 108.724749 183.183949 
L 108.843104 183.183949 
L 108.980627 191.305093 
L 109.212975 191.305093 
L 109.253991 183.183949 
L 109.665257 183.183949 
L 110.011236 175.062804 
L 110.068925 183.183949 
L 110.242215 183.183949 
L 110.27146 191.305093 
L 118.93233 191.305093 
L 119.108746 183.183949 
L 121.185372 183.183949 
L 123.012065 191.305093 
L 130.69273 191.305093 
L 130.876902 183.183949 
L 131.16123 183.183949 
L 131.267795 191.305093 
L 135.554864 191.305093 
L 135.637653 183.183949 
L 135.659273 191.305093 
L 145.539646 191.305093 
L 145.797559 175.062804 
L 145.818157 183.183949 
L 145.846839 175.062804 
L 145.958679 166.941659 
L 145.96396 175.062804 
L 146.542133 175.062804 
L 147.152381 183.183949 
L 147.394957 183.183949 
L 147.70668 175.062804 
L 147.818296 175.062804 
L 148.878172 191.305093 
L 149.333177 191.305093 
L 149.384475 175.062804 
L 149.484218 175.062804 
L 149.635334 183.183949 
L 149.767552 183.183949 
L 150.304365 191.305093 
L 155.365358 191.305093 
L 155.788834 183.183949 
L 156.02643 150.699369 
L 156.301669 150.699369 
L 156.416829 166.941659 
L 156.449358 166.941659 
L 156.560775 158.820514 
L 156.687111 158.820514 
L 156.798395 175.062804 
L 157.019108 175.062804 
L 157.132361 183.183949 
L 157.263565 166.941659 
L 157.31377 166.941659 
L 157.351286 158.820514 
L 157.411884 166.941659 
L 157.430664 166.941659 
L 157.513135 183.183949 
L 157.772366 183.183949 
L 157.870185 175.062804 
L 158.001622 175.062804 
L 158.044365 166.941659 
L 158.098416 175.062804 
L 158.395115 175.062804 
L 158.503159 166.941659 
L 158.519132 166.941659 
L 158.646841 158.820514 
L 159.295028 158.820514 
L 159.402569 166.941659 
L 159.61113 166.941659 
L 159.714091 183.183949 
L 160.53847 183.183949 
L 160.636925 191.305093 
L 165.457531 191.305093 
L 165.743103 183.183949 
L 165.884871 183.183949 
L 165.886397 191.305093 
L 177.92487 191.305093 
L 178.089329 175.062804 
L 178.368009 175.062804 
L 178.391926 183.183949 
L 178.416853 166.941659 
L 178.454814 166.941659 
L 178.483022 166.941659 
L 178.58866 158.820514 
L 178.619499 158.820514 
L 178.62262 175.062804 
L 178.721224 166.941659 
L 178.823255 166.941659 
L 178.947606 175.062804 
L 178.952505 175.062804 
L 179.04563 183.183949 
L 179.460224 183.183949 
L 179.52523 191.305093 
L 179.594244 191.305093 
L 179.769538 183.183949 
L 179.91605 183.183949 
L 180.047452 175.062804 
L 180.092127 175.062804 
L 180.205699 183.183949 
L 180.641036 183.183949 
L 180.788459 175.062804 
L 181.185562 175.062804 
L 181.301887 166.941659 
L 181.403015 166.941659 
L 181.488137 158.820514 
L 181.512808 166.941659 
L 181.6353 166.941659 
L 181.751275 175.062804 
L 181.829011 175.062804 
L 181.937989 183.183949 
L 182.130306 183.183949 
L 182.25497 166.941659 
L 182.566922 166.941659 
L 182.577309 175.062804 
L 182.669542 166.941659 
L 182.842347 166.941659 
L 182.94441 158.820514 
L 183.056138 158.820514 
L 183.154547 175.062804 
L 183.195838 175.062804 
L 183.28957 191.305093 
L 183.526382 191.305093 
L 183.706675 183.183949 
L 183.853408 183.183949 
L 183.985681 166.941659 
L 183.991177 166.941659 
L 184.11475 158.820514 
L 184.375161 158.820514 
L 184.414678 150.699369 
L 184.482038 158.820514 
L 184.544541 158.820514 
L 184.677281 134.45708 
L 184.791651 142.578225 
L 185.076246 142.578225 
L 185.16993 134.45708 
L 185.18649 142.578225 
L 185.209003 142.578225 
L 185.244064 134.45708 
L 185.305941 150.699369 
L 185.313587 150.699369 
L 185.348582 150.699369 
L 185.364654 158.820514 
L 185.456761 150.699369 
L 185.490033 142.578225 
L 185.557723 150.699369 
L 185.599654 150.699369 
L 185.688535 166.941659 
L 185.77709 166.941659 
L 185.894388 183.183949 
L 185.969886 183.183949 
L 186.058351 166.941659 
L 186.09367 175.062804 
L 186.172413 175.062804 
L 186.296786 158.820514 
L 186.73331 158.820514 
L 186.838238 150.699369 
L 186.875766 150.699369 
L 186.985338 158.820514 
L 187.11636 142.578225 
L 187.265315 142.578225 
L 187.35989 158.820514 
L 187.447932 158.820514 
L 187.552912 166.941659 
L 187.802481 166.941659 
L 187.914648 175.062804 
L 188.008886 175.062804 
L 188.138098 183.183949 
L 188.224871 175.062804 
L 188.453796 175.062804 
L 188.534723 183.183949 
L 188.561693 175.062804 
L 188.614934 175.062804 
L 188.675643 183.183949 
L 188.700328 175.062804 
L 188.813818 166.941659 
L 189.024714 166.941659 
L 189.117529 158.820514 
L 189.122833 166.941659 
L 189.156549 166.941659 
L 189.263565 158.820514 
L 189.293484 158.820514 
L 189.405659 150.699369 
L 189.523525 166.941659 
L 189.530113 166.941659 
L 189.576688 158.820514 
L 189.635872 166.941659 
L 189.769849 166.941659 
L 189.798466 175.062804 
L 189.853566 166.941659 
L 190.382557 166.941659 
L 190.490927 175.062804 
L 190.666164 175.062804 
L 190.696497 166.941659 
L 190.720414 183.183949 
L 190.762385 183.183949 
L 191.341173 183.183949 
L 191.461188 166.941659 
L 191.567785 158.820514 
L 191.56864 166.941659 
L 191.698225 166.941659 
L 191.796339 183.183949 
L 191.868495 183.183949 
L 191.927915 166.941659 
L 191.943593 175.062804 
L 192.041882 175.062804 
L 192.147439 183.183949 
L 192.150097 175.062804 
L 192.252052 166.941659 
L 192.532918 166.941659 
L 192.653739 158.820514 
L 192.763529 158.820514 
L 192.882142 142.578225 
L 192.940137 142.578225 
L 193.049884 134.45708 
L 193.17141 150.699369 
L 193.171779 150.699369 
L 193.252636 158.820514 
L 193.257714 150.699369 
L 193.403024 150.699369 
L 193.460254 158.820514 
L 193.496037 134.45708 
L 193.510006 134.45708 
L 193.677362 134.45708 
L 193.857177 175.062804 
L 194.08073 175.062804 
L 194.200066 183.183949 
L 194.666852 183.183949 
L 195.021487 166.941659 
L 195.266181 166.941659 
L 195.380902 158.820514 
L 195.519745 158.820514 
L 195.521297 166.941659 
L 195.613003 158.820514 
L 195.638282 158.820514 
L 195.812511 166.941659 
L 195.935576 166.941659 
L 196.044458 158.820514 
L 196.145385 158.820514 
L 196.262837 150.699369 
L 196.334279 150.699369 
L 196.48065 158.820514 
L 196.589291 158.820514 
L 196.661975 166.941659 
L 196.667658 158.820514 
L 196.751872 158.820514 
L 196.847521 166.941659 
L 197.016179 166.941659 
L 197.119248 175.062804 
L 197.31907 175.062804 
L 197.456663 166.941659 
L 197.515538 158.820514 
L 197.55341 166.941659 
L 197.69826 166.941659 
L 197.75091 158.820514 
L 197.795824 166.941659 
L 197.837894 166.941659 
L 197.898058 150.699369 
L 198.023825 150.699369 
L 198.135827 158.820514 
L 198.424699 158.820514 
L 198.516448 166.941659 
L 198.618977 158.820514 
L 198.727233 158.820514 
L 198.811947 166.941659 
L 198.815083 158.820514 
L 198.852235 158.820514 
L 198.93781 175.062804 
L 199.004739 175.062804 
L 199.025568 166.941659 
L 199.075507 183.183949 
L 199.281758 175.062804 
L 199.321286 175.062804 
L 199.374088 166.941659 
L 199.377041 175.062804 
L 199.504028 175.062804 
L 199.612356 183.183949 
L 199.628369 183.183949 
L 199.730763 191.305093 
L 200.411152 191.305093 
L 200.743665 175.062804 
L 200.849487 175.062804 
L 200.946053 150.699369 
L 201.114937 166.941659 
L 201.238251 166.941659 
L 201.300689 175.062804 
L 201.627749 175.062804 
L 201.699456 166.941659 
L 201.88749 166.941659 
L 201.908818 158.820514 
L 201.961666 166.941659 
L 202.311164 166.941659 
L 202.427297 175.062804 
L 202.562272 166.941659 
L 202.632279 183.183949 
L 202.675719 175.062804 
L 202.750456 175.062804 
L 202.813703 166.941659 
L 203.047645 175.062804 
L 203.163361 150.699369 
L 203.252367 150.699369 
L 203.318073 166.941659 
L 203.330382 158.820514 
L 203.470763 150.699369 
L 203.589577 158.820514 
L 203.650053 158.820514 
L 203.682183 150.699369 
L 204.048983 183.183949 
L 204.234904 175.062804 
L 204.321664 183.183949 
L 204.401284 166.941659 
L 204.63129 166.941659 
L 204.652782 175.062804 
L 204.720321 158.820514 
L 204.830131 158.820514 
L 204.86399 150.699369 
L 204.919617 158.820514 
L 204.983946 158.820514 
L 205.021909 150.699369 
L 205.057495 158.820514 
L 205.127587 158.820514 
L 205.248832 150.699369 
L 205.270722 150.699369 
L 205.398914 166.941659 
L 205.46787 158.820514 
L 205.498693 166.941659 
L 205.52822 175.062804 
L 205.589927 166.941659 
L 205.625702 166.941659 
L 205.678811 158.820514 
L 205.705418 175.062804 
L 205.70885 175.062804 
L 205.814017 183.183949 
L 205.829123 183.183949 
L 205.949985 175.062804 
L 206.390055 175.062804 
L 206.490012 150.699369 
L 206.595767 150.699369 
L 206.712031 134.45708 
L 206.81151 134.45708 
L 206.924681 158.820514 
L 207.028864 166.941659 
L 207.057238 166.941659 
L 207.090746 158.820514 
L 207.158096 166.941659 
L 207.319162 166.941659 
L 207.320537 175.062804 
L 207.413526 166.941659 
L 207.64294 166.941659 
L 207.845264 150.699369 
L 207.980121 150.699369 
L 208.08572 134.45708 
L 208.124079 134.45708 
L 208.22277 158.820514 
L 208.334213 150.699369 
L 208.400105 150.699369 
L 208.482358 158.820514 
L 208.635192 158.820514 
L 208.750417 166.941659 
L 209.224712 166.941659 
L 209.385957 175.062804 
L 209.425083 175.062804 
L 209.440474 166.941659 
L 209.489402 175.062804 
L 209.619936 166.941659 
L 209.689135 183.183949 
L 209.700917 166.941659 
L 209.787402 166.941659 
L 209.97241 175.062804 
L 209.978842 183.183949 
L 210.166179 183.183949 
L 210.301643 175.062804 
L 210.530341 175.062804 
L 210.591948 183.183949 
L 210.918306 183.183949 
L 210.956604 191.305093 
L 211.013799 183.183949 
L 211.193227 175.062804 
L 211.381709 158.820514 
L 211.449954 166.941659 
L 211.472866 158.820514 
L 211.636653 158.820514 
L 211.661973 166.941659 
L 211.936757 166.941659 
L 212.292481 183.183949 
L 212.863878 158.820514 
L 212.921334 158.820514 
L 212.931141 166.941659 
L 213.046863 166.941659 
L 213.257263 183.183949 
L 213.38555 175.062804 
L 213.507099 191.305093 
L 213.591883 183.183949 
L 213.875841 183.183949 
L 213.993714 166.941659 
L 214.145027 175.062804 
L 214.214553 175.062804 
L 214.290846 191.305093 
L 214.503596 191.305093 
L 214.555394 183.183949 
L 214.868326 183.183949 
L 214.901473 191.305093 
L 215.990319 175.062804 
L 216.092247 175.062804 
L 216.150152 166.941659 
L 216.196709 175.062804 
L 216.203816 175.062804 
L 216.318241 183.183949 
L 216.343246 183.183949 
L 216.401056 175.062804 
L 216.575644 175.062804 
L 216.656979 166.941659 
L 216.686275 175.062804 
L 216.73883 175.062804 
L 216.939586 191.305093 
L 217.119229 183.183949 
L 217.552051 183.183949 
L 217.645771 191.305093 
L 217.652161 183.183949 
L 217.770325 175.062804 
L 217.999567 183.183949 
L 218.110796 175.062804 
L 218.343938 175.062804 
L 218.386859 183.183949 
L 218.596443 175.062804 
L 218.965156 175.062804 
L 219.058527 183.183949 
L 219.06456 175.062804 
L 219.514445 175.062804 
L 219.784615 166.941659 
L 220.097706 166.941659 
L 220.174173 158.820514 
L 220.179517 166.941659 
L 220.268862 166.941659 
L 220.27124 175.062804 
L 220.4723 166.941659 
L 220.636288 166.941659 
L 220.733167 175.062804 
L 221.090788 175.062804 
L 221.179376 191.305093 
L 221.316176 183.183949 
L 221.385724 183.183949 
L 221.402841 191.305093 
L 222.018641 191.305093 
L 222.086744 183.183949 
L 222.41645 183.183949 
L 222.717025 175.062804 
L 222.779796 175.062804 
L 222.787874 166.941659 
L 222.837771 183.183949 
L 222.847004 175.062804 
L 222.969866 166.941659 
L 223.029033 175.062804 
L 223.152593 158.820514 
L 223.23557 150.699369 
L 223.25915 158.820514 
L 223.459549 158.820514 
L 223.566234 175.062804 
L 223.704935 175.062804 
L 223.796006 183.183949 
L 224.280386 183.183949 
L 224.905976 191.305093 
L 234.063251 191.305093 
L 234.165544 183.183949 
L 234.367051 183.183949 
L 234.699515 158.820514 
L 234.816586 158.820514 
L 234.980856 175.062804 
L 235.551761 175.062804 
L 235.684133 183.183949 
L 236.007002 183.183949 
L 236.16446 191.305093 
L 236.24106 183.183949 
L 236.437274 191.305093 
L 236.581497 183.183949 
L 236.677131 191.305093 
L 237.016044 191.305093 
L 237.086494 183.183949 
L 237.333796 175.062804 
L 237.384374 183.183949 
L 237.742891 175.062804 
L 237.785604 166.941659 
L 237.810642 175.062804 
L 237.937962 175.062804 
L 238.023947 166.941659 
L 238.246202 175.062804 
L 238.387942 175.062804 
L 238.487562 166.941659 
L 238.59099 175.062804 
L 238.707304 166.941659 
L 238.800681 158.820514 
L 238.806527 166.941659 
L 238.924433 166.941659 
L 238.985878 158.820514 
L 239.112868 166.941659 
L 239.327923 175.062804 
L 239.399069 166.941659 
L 239.615677 166.941659 
L 239.745245 175.062804 
L 239.778889 175.062804 
L 239.862826 191.305093 
L 239.930477 183.183949 
L 240.222479 183.183949 
L 240.491958 158.820514 
L 240.692944 175.062804 
L 240.862814 166.941659 
L 240.865772 158.820514 
L 241.139971 158.820514 
L 241.259025 166.941659 
L 241.338722 166.941659 
L 241.478748 158.820514 
L 241.513462 166.941659 
L 241.583096 158.820514 
L 241.754775 166.941659 
L 241.881015 150.699369 
L 241.959694 142.578225 
L 242.226199 166.941659 
L 242.426828 175.062804 
L 243.209974 175.062804 
L 243.464736 191.305093 
L 247.67717 191.305093 
L 248.319517 183.183949 
L 248.783024 175.062804 
L 249.067028 191.305093 
L 252.40821 191.305093 
L 252.470883 183.183949 
L 252.64876 175.062804 
L 252.65662 183.183949 
L 252.824552 183.183949 
L 252.998965 191.305093 
L 258.299894 191.305093 
L 258.460501 183.183949 
L 258.673657 183.183949 
L 258.737686 191.305093 
L 260.243098 191.305093 
L 260.506983 183.183949 
L 260.61997 183.183949 
L 260.724439 175.062804 
L 261.25729 175.062804 
L 261.48021 183.183949 
L 261.610045 191.305093 
L 263.43859 191.305093 
L 263.72798 175.062804 
L 263.826433 183.183949 
L 264.129229 158.820514 
L 264.191991 166.941659 
L 264.423054 175.062804 
L 264.531309 166.941659 
L 264.822212 183.183949 
L 265.022748 183.183949 
L 265.126267 191.305093 
L 272.788588 191.305093 
L 272.832985 183.183949 
L 273.05989 175.062804 
L 273.232876 183.183949 
L 273.613873 183.183949 
L 273.817046 166.941659 
L 273.929689 191.305093 
L 274.984655 191.305093 
L 275.204711 183.183949 
L 275.369463 191.305093 
L 283.957319 191.305093 
L 284.47947 183.183949 
L 284.627768 166.941659 
L 284.659945 166.941659 
L 284.758918 175.062804 
L 285.16383 183.183949 
L 285.934474 183.183949 
L 286.606087 191.305093 
L 301.302666 191.305093 
L 301.496024 175.062804 
L 301.637018 183.183949 
L 301.89558 183.183949 
L 302.063557 191.305093 
L 312.422447 191.305093 
L 312.422447 191.305093 
" clip-path="url(#p92b55949f1)" style="fill: none; stroke: #000000; stroke-width: 1.5; stroke-linecap: square"/>
   </g>
   <g id="patch_8">
    <path d="M 44.103906 195.365666 
L 44.103906 106.033073 
" style="fill: none; stroke: #000000; stroke-width: 0.8; stroke-linejoin: miter; stroke-linecap: square"/>
   </g>
   <g id="patch_9">
    <path d="M 325.19952 195.365666 
L 325.19952 106.033073 
" style="fill: none; stroke: #000000; stroke-width: 0.8; stroke-linejoin: miter; stroke-linecap: square"/>
   </g>
   <g id="patch_10">
    <path d="M 44.103906 195.365666 
L 325.19952 195.365666 
" style="fill: none; stroke: #000000; stroke-width: 0.8; stroke-linejoin: miter; stroke-linecap: square"/>
   </g>
   <g id="patch_11">
    <path d="M 44.103906 106.033073 
L 325.19952 106.033073 
" style="fill: none; stroke: #000000; stroke-width: 0.8; stroke-linejoin: miter; stroke-linecap: square"/>
   </g>
  </g>
  <g id="axes_3">
   <g id="patch_12">
    <path d="M 44.103906 294.198739 
L 325.19952 294.198739 
L 325.19952 204.866146 
L 44.103906 204.866146 
z
" style="fill: #ffffff"/>
   </g>
   <g id="matplotlib.axis_5">
    <g id="xtick_19">
     <g id="line2d_27">
      <g>
       <use xlink:href="#m44aa79f947" x="56.88098" y="294.198739" style="stroke: #000000; stroke-width: 0.8"/>
      </g>
     </g>
     <g id="text_9">
      <!-- 0 -->
      <g transform="translate(53.69973 308.796395) scale(0.1 -0.1)">
       <use xlink:href="#DejaVuSans-13"/>
      </g>
     </g>
    </g>
    <g id="xtick_20">
     <g id="line2d_28">
      <g>
       <use xlink:href="#m44aa79f947" x="88.433274" y="294.198739" style="stroke: #000000; stroke-width: 0.8"/>
      </g>
     </g>
     <g id="text_10">
      <!-- 100 -->
      <g transform="translate(78.889524 308.796395) scale(0.1 -0.1)">
       <use xlink:href="#DejaVuSans-14"/>
       <use xlink:href="#DejaVuSans-13" transform="translate(63.625 0)"/>
       <use xlink:href="#DejaVuSans-13" transform="translate(127.25 0)"/>
      </g>
     </g>
    </g>
    <g id="xtick_21">
     <g id="line2d_29">
      <g>
       <use xlink:href="#m44aa79f947" x="119.985568" y="294.198739" style="stroke: #000000; stroke-width: 0.8"/>
      </g>
     </g>
     <g id="text_11">
      <!-- 200 -->
      <g transform="translate(110.441818 308.796395) scale(0.1 -0.1)">
       <defs>
        <path id="DejaVuSans-15" d="M 1228 531 
L 3431 531 
L 3431 0 
L 469 0 
L 469 531 
Q 828 903 1448 1529 
Q 2069 2156 2228 2338 
Q 2531 2678 2651 2914 
Q 2772 3150 2772 3378 
Q 2772 3750 2511 3984 
Q 2250 4219 1831 4219 
Q 1534 4219 1204 4116 
Q 875 4013 500 3803 
L 500 4441 
Q 881 4594 1212 4672 
Q 1544 4750 1819 4750 
Q 2544 4750 2975 4387 
Q 3406 4025 3406 3419 
Q 3406 3131 3298 2873 
Q 3191 2616 2906 2266 
Q 2828 2175 2409 1742 
Q 1991 1309 1228 531 
z
" transform="scale(0.015625)"/>
       </defs>
       <use xlink:href="#DejaVuSans-15"/>
       <use xlink:href="#DejaVuSans-13" transform="translate(63.625 0)"/>
       <use xlink:href="#DejaVuSans-13" transform="translate(127.25 0)"/>
      </g>
     </g>
    </g>
    <g id="xtick_22">
     <g id="line2d_30">
      <g>
       <use xlink:href="#m44aa79f947" x="151.537863" y="294.198739" style="stroke: #000000; stroke-width: 0.8"/>
      </g>
     </g>
     <g id="text_12">
      <!-- 300 -->
      <g transform="translate(141.994113 308.796395) scale(0.1 -0.1)">
       <defs>
        <path id="DejaVuSans-16" d="M 2597 2516 
Q 3050 2419 3304 2112 
Q 3559 1806 3559 1356 
Q 3559 666 3084 287 
Q 2609 -91 1734 -91 
Q 1441 -91 1130 -33 
Q 819 25 488 141 
L 488 750 
Q 750 597 1062 519 
Q 1375 441 1716 441 
Q 2309 441 2620 675 
Q 2931 909 2931 1356 
Q 2931 1769 2642 2001 
Q 2353 2234 1838 2234 
L 1294 2234 
L 1294 2753 
L 1863 2753 
Q 2328 2753 2575 2939 
Q 2822 3125 2822 3475 
Q 2822 3834 2567 4026 
Q 2313 4219 1838 4219 
Q 1578 4219 1281 4162 
Q 984 4106 628 3988 
L 628 4550 
Q 988 4650 1302 4700 
Q 1616 4750 1894 4750 
Q 2613 4750 3031 4423 
Q 3450 4097 3450 3541 
Q 3450 3153 3228 2886 
Q 3006 2619 2597 2516 
z
" transform="scale(0.015625)"/>
       </defs>
       <use xlink:href="#DejaVuSans-16"/>
       <use xlink:href="#DejaVuSans-13" transform="translate(63.625 0)"/>
       <use xlink:href="#DejaVuSans-13" transform="translate(127.25 0)"/>
      </g>
     </g>
    </g>
    <g id="xtick_23">
     <g id="line2d_31">
      <g>
       <use xlink:href="#m44aa79f947" x="183.090157" y="294.198739" style="stroke: #000000; stroke-width: 0.8"/>
      </g>
     </g>
     <g id="text_13">
      <!-- 400 -->
      <g transform="translate(173.546407 308.796395) scale(0.1 -0.1)">
       <defs>
        <path id="DejaVuSans-17" d="M 2419 4116 
L 825 1625 
L 2419 1625 
L 2419 4116 
z
M 2253 4666 
L 3047 4666 
L 3047 1625 
L 3713 1625 
L 3713 1100 
L 3047 1100 
L 3047 0 
L 2419 0 
L 2419 1100 
L 313 1100 
L 313 1709 
L 2253 4666 
z
" transform="scale(0.015625)"/>
       </defs>
       <use xlink:href="#DejaVuSans-17"/>
       <use xlink:href="#DejaVuSans-13" transform="translate(63.625 0)"/>
       <use xlink:href="#DejaVuSans-13" transform="translate(127.25 0)"/>
      </g>
     </g>
    </g>
    <g id="xtick_24">
     <g id="line2d_32">
      <g>
       <use xlink:href="#m44aa79f947" x="214.642452" y="294.198739" style="stroke: #000000; stroke-width: 0.8"/>
      </g>
     </g>
     <g id="text_14">
      <!-- 500 -->
      <g transform="translate(205.098702 308.796395) scale(0.1 -0.1)">
       <use xlink:href="#DejaVuSans-18"/>
       <use xlink:href="#DejaVuSans-13" transform="translate(63.625 0)"/>
       <use xlink:href="#DejaVuSans-13" transform="translate(127.25 0)"/>
      </g>
     </g>
    </g>
    <g id="xtick_25">
     <g id="line2d_33">
      <g>
       <use xlink:href="#m44aa79f947" x="246.194746" y="294.198739" style="stroke: #000000; stroke-width: 0.8"/>
      </g>
     </g>
     <g id="text_15">
      <!-- 600 -->
      <g transform="translate(236.650996 308.796395) scale(0.1 -0.1)">
       <defs>
        <path id="DejaVuSans-19" d="M 2113 2584 
Q 1688 2584 1439 2293 
Q 1191 2003 1191 1497 
Q 1191 994 1439 701 
Q 1688 409 2113 409 
Q 2538 409 2786 701 
Q 3034 994 3034 1497 
Q 3034 2003 2786 2293 
Q 2538 2584 2113 2584 
z
M 3366 4563 
L 3366 3988 
Q 3128 4100 2886 4159 
Q 2644 4219 2406 4219 
Q 1781 4219 1451 3797 
Q 1122 3375 1075 2522 
Q 1259 2794 1537 2939 
Q 1816 3084 2150 3084 
Q 2853 3084 3261 2657 
Q 3669 2231 3669 1497 
Q 3669 778 3244 343 
Q 2819 -91 2113 -91 
Q 1303 -91 875 529 
Q 447 1150 447 2328 
Q 447 3434 972 4092 
Q 1497 4750 2381 4750 
Q 2619 4750 2861 4703 
Q 3103 4656 3366 4563 
z
" transform="scale(0.015625)"/>
       </defs>
       <use xlink:href="#DejaVuSans-19"/>
       <use xlink:href="#DejaVuSans-13" transform="translate(63.625 0)"/>
       <use xlink:href="#DejaVuSans-13" transform="translate(127.25 0)"/>
      </g>
     </g>
    </g>
    <g id="xtick_26">
     <g id="line2d_34">
      <g>
       <use xlink:href="#m44aa79f947" x="277.747041" y="294.198739" style="stroke: #000000; stroke-width: 0.8"/>
      </g>
     </g>
     <g id="text_16">
      <!-- 700 -->
      <g transform="translate(268.203291 308.796395) scale(0.1 -0.1)">
       <defs>
        <path id="DejaVuSans-1a" d="M 525 4666 
L 3525 4666 
L 3525 4397 
L 1831 0 
L 1172 0 
L 2766 4134 
L 525 4134 
L 525 4666 
z
" transform="scale(0.015625)"/>
       </defs>
       <use xlink:href="#DejaVuSans-1a"/>
       <use xlink:href="#DejaVuSans-13" transform="translate(63.625 0)"/>
       <use xlink:href="#DejaVuSans-13" transform="translate(127.25 0)"/>
      </g>
     </g>
    </g>
    <g id="xtick_27">
     <g id="line2d_35">
      <g>
       <use xlink:href="#m44aa79f947" x="309.299335" y="294.198739" style="stroke: #000000; stroke-width: 0.8"/>
      </g>
     </g>
     <g id="text_17">
      <!-- 800 -->
      <g transform="translate(299.755585 308.796395) scale(0.1 -0.1)">
       <defs>
        <path id="DejaVuSans-1b" d="M 2034 2216 
Q 1584 2216 1326 1975 
Q 1069 1734 1069 1313 
Q 1069 891 1326 650 
Q 1584 409 2034 409 
Q 2484 409 2743 651 
Q 3003 894 3003 1313 
Q 3003 1734 2745 1975 
Q 2488 2216 2034 2216 
z
M 1403 2484 
Q 997 2584 770 2862 
Q 544 3141 544 3541 
Q 544 4100 942 4425 
Q 1341 4750 2034 4750 
Q 2731 4750 3128 4425 
Q 3525 4100 3525 3541 
Q 3525 3141 3298 2862 
Q 3072 2584 2669 2484 
Q 3125 2378 3379 2068 
Q 3634 1759 3634 1313 
Q 3634 634 3220 271 
Q 2806 -91 2034 -91 
Q 1263 -91 848 271 
Q 434 634 434 1313 
Q 434 1759 690 2068 
Q 947 2378 1403 2484 
z
M 1172 3481 
Q 1172 3119 1398 2916 
Q 1625 2713 2034 2713 
Q 2441 2713 2670 2916 
Q 2900 3119 2900 3481 
Q 2900 3844 2670 4047 
Q 2441 4250 2034 4250 
Q 1625 4250 1398 4047 
Q 1172 3844 1172 3481 
z
" transform="scale(0.015625)"/>
       </defs>
       <use xlink:href="#DejaVuSans-1b"/>
       <use xlink:href="#DejaVuSans-13" transform="translate(63.625 0)"/>
       <use xlink:href="#DejaVuSans-13" transform="translate(127.25 0)"/>
      </g>
     </g>
    </g>
    <g id="text_18">
     <!-- Time -->
     <g transform="translate(172.415776 322.797176) scale(0.1 -0.1)">
      <defs>
       <path id="DejaVuSans-37" d="M -19 4666 
L 3928 4666 
L 3928 4134 
L 2272 4134 
L 2272 0 
L 1638 0 
L 1638 4134 
L -19 4134 
L -19 4666 
z
" transform="scale(0.015625)"/>
       <path id="DejaVuSans-4c" d="M 603 3500 
L 1178 3500 
L 1178 0 
L 603 0 
L 603 3500 
z
M 603 4863 
L 1178 4863 
L 1178 4134 
L 603 4134 
L 603 4863 
z
" transform="scale(0.015625)"/>
       <path id="DejaVuSans-50" d="M 3328 2828 
Q 3544 3216 3844 3400 
Q 4144 3584 4550 3584 
Q 5097 3584 5394 3201 
Q 5691 2819 5691 2113 
L 5691 0 
L 5113 0 
L 5113 2094 
Q 5113 2597 4934 2840 
Q 4756 3084 4391 3084 
Q 3944 3084 3684 2787 
Q 3425 2491 3425 1978 
L 3425 0 
L 2847 0 
L 2847 2094 
Q 2847 2600 2669 2842 
Q 2491 3084 2119 3084 
Q 1678 3084 1418 2786 
Q 1159 2488 1159 1978 
L 1159 0 
L 581 0 
L 581 3500 
L 1159 3500 
L 1159 2956 
Q 1356 3278 1631 3431 
Q 1906 3584 2284 3584 
Q 2666 3584 2933 3390 
Q 3200 3197 3328 2828 
z
" transform="scale(0.015625)"/>
      </defs>
      <use xlink:href="#DejaVuSans-37"/>
      <use xlink:href="#DejaVuSans-4c" transform="translate(58 0)"/>
      <use xlink:href="#DejaVuSans-50" transform="translate(85.78125 0)"/>
      <use xlink:href="#DejaVuSans-48" transform="translate(183.1875 0)"/>
     </g>
    </g>
   </g>
   <g id="matplotlib.axis_6">
    <g id="ytick_7">
     <g id="line2d_36">
      <g>
       <use xlink:href="#m70a1966446" x="44.103906" y="290.138166" style="stroke: #000000; stroke-width: 0.8"/>
      </g>
     </g>
     <g id="text_19">
      <!-- 0.0 -->
      <g transform="translate(21.200781 293.936994) scale(0.1 -0.1)">
       <defs>
        <path id="DejaVuSans-11" d="M 684 794 
L 1344 794 
L 1344 0 
L 684 0 
L 684 794 
z
" transform="scale(0.015625)"/>
       </defs>
       <use xlink:href="#DejaVuSans-13"/>
       <use xlink:href="#DejaVuSans-11" transform="translate(63.625 0)"/>
       <use xlink:href="#DejaVuSans-13" transform="translate(95.40625 0)"/>
      </g>
     </g>
    </g>
    <g id="ytick_8">
     <g id="line2d_37">
      <g>
       <use xlink:href="#m70a1966446" x="44.103906" y="249.532442" style="stroke: #000000; stroke-width: 0.8"/>
      </g>
     </g>
     <g id="text_20">
      <!-- 0.5 -->
      <g transform="translate(21.200781 253.33127) scale(0.1 -0.1)">
       <use xlink:href="#DejaVuSans-13"/>
       <use xlink:href="#DejaVuSans-11" transform="translate(63.625 0)"/>
       <use xlink:href="#DejaVuSans-18" transform="translate(95.40625 0)"/>
      </g>
     </g>
    </g>
    <g id="ytick_9">
     <g id="line2d_38">
      <g>
       <use xlink:href="#m70a1966446" x="44.103906" y="208.926718" style="stroke: #000000; stroke-width: 0.8"/>
      </g>
     </g>
     <g id="text_21">
      <!-- 1.0 -->
      <g transform="translate(21.200781 212.725546) scale(0.1 -0.1)">
       <use xlink:href="#DejaVuSans-14"/>
       <use xlink:href="#DejaVuSans-11" transform="translate(63.625 0)"/>
       <use xlink:href="#DejaVuSans-13" transform="translate(95.40625 0)"/>
      </g>
     </g>
    </g>
    <g id="text_22">
     <!-- Free lac operon -->
     <g transform="translate(14.798438 288.006661) rotate(-90) scale(0.1 -0.1)">
      <defs>
       <path id="DejaVuSans-29" d="M 628 4666 
L 3309 4666 
L 3309 4134 
L 1259 4134 
L 1259 2759 
L 3109 2759 
L 3109 2228 
L 1259 2228 
L 1259 0 
L 628 0 
L 628 4666 
z
" transform="scale(0.015625)"/>
       <path id="DejaVuSans-53" d="M 1159 525 
L 1159 -1331 
L 581 -1331 
L 581 3500 
L 1159 3500 
L 1159 2969 
Q 1341 3281 1617 3432 
Q 1894 3584 2278 3584 
Q 2916 3584 3314 3078 
Q 3713 2572 3713 1747 
Q 3713 922 3314 415 
Q 2916 -91 2278 -91 
Q 1894 -91 1617 61 
Q 1341 213 1159 525 
z
M 3116 1747 
Q 3116 2381 2855 2742 
Q 2594 3103 2138 3103 
Q 1681 3103 1420 2742 
Q 1159 2381 1159 1747 
Q 1159 1113 1420 752 
Q 1681 391 2138 391 
Q 2594 391 2855 752 
Q 3116 1113 3116 1747 
z
" transform="scale(0.015625)"/>
       <path id="DejaVuSans-51" d="M 3513 2113 
L 3513 0 
L 2938 0 
L 2938 2094 
Q 2938 2591 2744 2837 
Q 2550 3084 2163 3084 
Q 1697 3084 1428 2787 
Q 1159 2491 1159 1978 
L 1159 0 
L 581 0 
L 581 3500 
L 1159 3500 
L 1159 2956 
Q 1366 3272 1645 3428 
Q 1925 3584 2291 3584 
Q 2894 3584 3203 3211 
Q 3513 2838 3513 2113 
z
" transform="scale(0.015625)"/>
      </defs>
      <use xlink:href="#DejaVuSans-29"/>
      <use xlink:href="#DejaVuSans-55" transform="translate(50.234375 0)"/>
      <use xlink:href="#DejaVuSans-48" transform="translate(89.140625 0)"/>
      <use xlink:href="#DejaVuSans-48" transform="translate(150.671875 0)"/>
      <use xlink:href="#DejaVuSans-3" transform="translate(212.203125 0)"/>
      <use xlink:href="#DejaVuSans-4f" transform="translate(243.984375 0)"/>
      <use xlink:href="#DejaVuSans-44" transform="translate(271.765625 0)"/>
      <use xlink:href="#DejaVuSans-46" transform="translate(333.046875 0)"/>
      <use xlink:href="#DejaVuSans-3" transform="translate(388.03125 0)"/>
      <use xlink:href="#DejaVuSans-52" transform="translate(419.8125 0)"/>
      <use xlink:href="#DejaVuSans-53" transform="translate(481 0)"/>
      <use xlink:href="#DejaVuSans-48" transform="translate(544.484375 0)"/>
      <use xlink:href="#DejaVuSans-55" transform="translate(606.015625 0)"/>
      <use xlink:href="#DejaVuSans-52" transform="translate(644.921875 0)"/>
      <use xlink:href="#DejaVuSans-51" transform="translate(706.109375 0)"/>
     </g>
    </g>
   </g>
   <g id="line2d_39">
    <path d="M 56.88098 208.926718 
L 56.961679 290.138166 
L 57.128284 290.138166 
L 57.296169 208.926718 
L 57.413154 208.926718 
L 57.514265 290.138166 
L 58.718383 290.138166 
L 59.698332 208.926718 
L 59.882812 208.926718 
L 59.905329 290.138166 
L 62.30257 290.138166 
L 64.871155 208.926718 
L 65.163103 208.926718 
L 65.299173 290.138166 
L 65.423787 290.138166 
L 72.019614 208.926718 
L 72.187706 290.138166 
L 79.948926 208.926718 
L 79.997473 290.138166 
L 82.597681 208.926718 
L 82.736271 208.926718 
L 82.789892 290.138166 
L 84.512825 290.138166 
L 84.577604 208.926718 
L 85.445132 208.926718 
L 85.63321 290.138166 
L 86.655722 290.138166 
L 89.618393 208.926718 
L 90.152997 208.926718 
L 90.181983 290.138166 
L 90.536311 290.138166 
L 91.408887 208.926718 
L 91.466749 290.138166 
L 91.807151 290.138166 
L 108.711184 208.926718 
L 108.724749 290.138166 
L 108.980627 290.138166 
L 109.253991 208.926718 
L 109.53847 290.138166 
L 109.665257 208.926718 
L 110.068925 208.926718 
L 110.27146 290.138166 
L 110.561171 290.138166 
L 114.681637 208.926718 
L 115.335644 290.138166 
L 116.961231 208.926718 
L 117.273304 290.138166 
L 117.938991 208.926718 
L 118.025441 290.138166 
L 119.024687 208.926718 
L 119.108746 290.138166 
L 123.012065 290.138166 
L 128.970597 208.926718 
L 129.075482 290.138166 
L 130.800295 208.926718 
L 131.24657 208.926718 
L 131.267795 290.138166 
L 133.089644 290.138166 
L 135.659273 208.926718 
L 135.672446 290.138166 
L 138.524632 208.926718 
L 138.566935 290.138166 
L 145.539646 208.926718 
L 146.474505 208.926718 
L 146.542133 290.138166 
L 147.152381 290.138166 
L 147.394957 208.926718 
L 147.70668 208.926718 
L 147.818296 290.138166 
L 148.878172 290.138166 
L 149.384475 208.926718 
L 149.484218 290.138166 
L 150.594073 290.138166 
L 150.605281 208.926718 
L 150.765198 290.138166 
L 155.030498 208.926718 
L 155.118539 290.138166 
L 155.365358 208.926718 
L 158.759986 208.926718 
L 158.871436 290.138166 
L 163.417235 290.138166 
L 163.813185 208.926718 
L 165.741696 208.926718 
L 165.840338 290.138166 
L 169.450968 290.138166 
L 170.307963 208.926718 
L 170.328863 290.138166 
L 171.423153 290.138166 
L 174.386213 208.926718 
L 174.517458 290.138166 
L 175.010629 290.138166 
L 178.029581 208.926718 
L 221.316176 208.926718 
L 221.402841 290.138166 
L 222.086744 208.926718 
L 223.432183 208.926718 
L 223.536292 290.138166 
L 227.074379 290.138166 
L 233.551206 208.926718 
L 233.671795 290.138166 
L 234.165544 208.926718 
L 234.677732 208.926718 
L 234.699515 290.138166 
L 235.250345 290.138166 
L 235.350693 208.926718 
L 235.362342 290.138166 
L 236.150718 290.138166 
L 236.24106 208.926718 
L 241.943432 208.926718 
L 242.014978 290.138166 
L 243.464736 290.138166 
L 247.67717 208.926718 
L 249.021666 208.926718 
L 249.067028 290.138166 
L 250.094559 290.138166 
L 252.470883 208.926718 
L 252.65662 208.926718 
L 252.824552 290.138166 
L 253.241347 290.138166 
L 256.041025 208.926718 
L 256.120247 290.138166 
L 258.39139 208.926718 
L 258.460501 208.926718 
L 258.737686 290.138166 
L 259.17486 208.926718 
L 259.488768 290.138166 
L 260.243098 208.926718 
L 260.631387 208.926718 
L 260.724439 290.138166 
L 261.733015 290.138166 
L 263.43859 208.926718 
L 264.639927 208.926718 
L 264.7036 290.138166 
L 265.126267 290.138166 
L 272.294032 208.926718 
L 272.728147 290.138166 
L 272.832985 208.926718 
L 273.187078 208.926718 
L 273.232876 290.138166 
L 273.665079 208.926718 
L 273.800354 208.926718 
L 273.852574 290.138166 
L 274.117652 290.138166 
L 274.125554 208.926718 
L 274.177531 290.138166 
L 274.577845 290.138166 
L 274.984655 208.926718 
L 275.275206 208.926718 
L 275.369463 290.138166 
L 277.018669 208.926718 
L 277.101241 290.138166 
L 283.957319 208.926718 
L 284.627768 208.926718 
L 284.758918 290.138166 
L 286.606087 290.138166 
L 292.185379 208.926718 
L 292.749925 290.138166 
L 301.302666 208.926718 
L 301.573376 208.926718 
L 301.637018 290.138166 
L 301.994551 290.138166 
L 302.063557 208.926718 
L 302.166167 290.138166 
L 302.463583 290.138166 
L 312.422447 208.926718 
L 312.422447 208.926718 
" clip-path="url(#pe5176b8d9c)" style="fill: none; stroke: #000000; stroke-width: 1.5; stroke-linecap: square"/>
   </g>
   <g id="patch_13">
    <path d="M 44.103906 294.198739 
L 44.103906 204.866146 
" style="fill: none; stroke: #000000; stroke-width: 0.8; stroke-linejoin: miter; stroke-linecap: square"/>
   </g>
   <g id="patch_14">
    <path d="M 325.19952 294.198739 
L 325.19952 204.866146 
" style="fill: none; stroke: #000000; stroke-width: 0.8; stroke-linejoin: miter; stroke-linecap: square"/>
   </g>
   <g id="patch_15">
    <path d="M 44.103906 294.198739 
L 325.19952 294.198739 
" style="fill: none; stroke: #000000; stroke-width: 0.8; stroke-linejoin: miter; stroke-linecap: square"/>
   </g>
   <g id="patch_16">
    <path d="M 44.103906 204.866146 
L 325.19952 204.866146 
" style="fill: none; stroke: #000000; stroke-width: 0.8; stroke-linejoin: miter; stroke-linecap: square"/>
   </g>
  </g>
 </g>
 <defs>
  <clipPath id="pb1c0c1e0bd">
   <rect x="44.103906" y="7.2" width="281.095614" height="89.332593"/>
  </clipPath>
  <clipPath id="p92b55949f1">
   <rect x="44.103906" y="106.033073" width="281.095614" height="89.332593"/>
  </clipPath>
  <clipPath id="pe5176b8d9c">
   <rect x="44.103906" y="204.866146" width="281.095614" height="89.332593"/>
  </clipPath>
 </defs>
</svg>
