<?xml version="1.0" encoding="utf-8" standalone="no"?>
<!DOCTYPE svg PUBLIC "-//W3C//DTD SVG 1.1//EN"
  "http://www.w3.org/Graphics/SVG/1.1/DTD/svg11.dtd">
<svg xmlns:xlink="http://www.w3.org/1999/xlink" width="421.454946pt" height="310.86825pt" viewBox="0 0 421.454946 310.86825" xmlns="http://www.w3.org/2000/svg" version="1.1">
 <metadata>
  <rdf:RDF xmlns:dc="http://purl.org/dc/elements/1.1/" xmlns:cc="http://creativecommons.org/ns#" xmlns:rdf="http://www.w3.org/1999/02/22-rdf-syntax-ns#">
   <cc:Work>
    <dc:type rdf:resource="http://purl.org/dc/dcmitype/StillImage"/>
    <dc:date>2026-05-15T18:52:24.204001</dc:date>
    <dc:format>image/svg+xml</dc:format>
    <dc:creator>
     <cc:Agent>
      <dc:title>Matplotlib v3.10.9, https://matplotlib.org/</dc:title>
     </cc:Agent>
    </dc:creator>
   </cc:Work>
  </rdf:RDF>
 </metadata>
 <defs>
  <style type="text/css">*{stroke-linejoin: round; stroke-linecap: butt}</style>
 </defs>
 <g id="figure_1">
  <g id="patch_1">
   <path d="M 0 310.86825 
L 421.454946 310.86825 
L 421.454946 0 
L 0 0 
z
" style="fill: #ffffff"/>
  </g>
  <g id="axes_1">
   <g id="patch_2">
    <path d="M 46.965625 273.312 
L 404.085625 273.312 
L 404.085625 7.2 
L 46.965625 7.2 
z
" style="fill: #ffffff"/>
   </g>
   <g id="matplotlib.axis_1">
    <g id="xtick_1">
     <g id="line2d_1">
      <defs>
       <path id="m3db32b8e4c" d="M 0 0 
L 0 3.5 
" style="stroke: #000000; stroke-width: 0.8"/>
      </defs>
      <g>
       <use xlink:href="#m3db32b8e4c" x="46.965625" y="273.312" style="stroke: #000000; stroke-width: 0.8"/>
      </g>
     </g>
     <g id="text_1">
      <!-- 0.00 -->
      <g transform="translate(35.832813 287.910437) scale(0.1 -0.1)">
       <defs>
        <path id="DejaVuSans-30" d="M 2034 4250 
Q 1547 4250 1301 3770 
Q 1056 3291 1056 2328 
Q 1056 1369 1301 889 
Q 1547 409 2034 409 
Q 2525 409 2770 889 
Q 3016 1369 3016 2328 
Q 3016 3291 2770 3770 
Q 2525 4250 2034 4250 
z
M 2034 4750 
Q 2819 4750 3233 4129 
Q 3647 3509 3647 2328 
Q 3647 1150 3233 529 
Q 2819 -91 2034 -91 
Q 1250 -91 836 529 
Q 422 1150 422 2328 
Q 422 3509 836 4129 
Q 1250 4750 2034 4750 
z
" transform="scale(0.015625)"/>
        <path id="DejaVuSans-2e" d="M 684 794 
L 1344 794 
L 1344 0 
L 684 0 
L 684 794 
z
" transform="scale(0.015625)"/>
       </defs>
       <use xlink:href="#DejaVuSans-30"/>
       <use xlink:href="#DejaVuSans-2e" transform="translate(63.623047 0)"/>
       <use xlink:href="#DejaVuSans-30" transform="translate(95.410156 0)"/>
       <use xlink:href="#DejaVuSans-30" transform="translate(159.033203 0)"/>
      </g>
     </g>
    </g>
    <g id="xtick_2">
     <g id="line2d_2">
      <g>
       <use xlink:href="#m3db32b8e4c" x="91.485189" y="273.312" style="stroke: #000000; stroke-width: 0.8"/>
      </g>
     </g>
     <g id="text_2">
      <!-- 0.25 -->
      <g transform="translate(80.352376 287.910437) scale(0.1 -0.1)">
       <defs>
        <path id="DejaVuSans-32" d="M 1228 531 
L 3431 531 
L 3431 0 
L 469 0 
L 469 531 
Q 828 903 1448 1529 
Q 2069 2156 2228 2338 
Q 2531 2678 2651 2914 
Q 2772 3150 2772 3378 
Q 2772 3750 2511 3984 
Q 2250 4219 1831 4219 
Q 1534 4219 1204 4116 
Q 875 4013 500 3803 
L 500 4441 
Q 881 4594 1212 4672 
Q 1544 4750 1819 4750 
Q 2544 4750 2975 4387 
Q 3406 4025 3406 3419 
Q 3406 3131 3298 2873 
Q 3191 2616 2906 2266 
Q 2828 2175 2409 1742 
Q 1991 1309 1228 531 
z
" transform="scale(0.015625)"/>
        <path id="DejaVuSans-35" d="M 691 4666 
L 3169 4666 
L 3169 4134 
L 1269 4134 
L 1269 2991 
Q 1406 3038 1543 3061 
Q 1681 3084 1819 3084 
Q 2600 3084 3056 2656 
Q 3513 2228 3513 1497 
Q 3513 744 3044 326 
Q 2575 -91 1722 -91 
Q 1428 -91 1123 -41 
Q 819 9 494 109 
L 494 744 
Q 775 591 1075 516 
Q 1375 441 1709 441 
Q 2250 441 2565 725 
Q 2881 1009 2881 1497 
Q 2881 1984 2565 2268 
Q 2250 2553 1709 2553 
Q 1456 2553 1204 2497 
Q 953 2441 691 2322 
L 691 4666 
z
" transform="scale(0.015625)"/>
       </defs>
       <use xlink:href="#DejaVuSans-30"/>
       <use xlink:href="#DejaVuSans-2e" transform="translate(63.623047 0)"/>
       <use xlink:href="#DejaVuSans-32" transform="translate(95.410156 0)"/>
       <use xlink:href="#DejaVuSans-35" transform="translate(159.033203 0)"/>
      </g>
     </g>
    </g>
    <g id="xtick_3">
     <g id="line2d_3">
      <g>
       <use xlink:href="#m3db32b8e4c" x="136.004752" y="273.312" style="stroke: #000000; stroke-width: 0.8"/>
      </g>
     </g>
     <g id="text_3">
      <!-- 0.50 -->
      <g transform="translate(124.87194 287.910437) scale(0.1 -0.1)">
       <use xlink:href="#DejaVuSans-30"/>
       <use xlink:href="#DejaVuSans-2e" transform="translate(63.623047 0)"/>
       <use xlink:href="#DejaVuSans-35" transform="translate(95.410156 0)"/>
       <use xlink:href="#DejaVuSans-30" transform="translate(159.033203 0)"/>
      </g>
     </g>
    </g>
    <g id="xtick_4">
     <g id="line2d_4">
      <g>
       <use xlink:href="#m3db32b8e4c" x="180.524316" y="273.312" style="stroke: #000000; stroke-width: 0.8"/>
      </g>
     </g>
     <g id="text_4">
      <!-- 0.75 -->
      <g transform="translate(169.391503 287.910437) scale(0.1 -0.1)">
       <defs>
        <path id="DejaVuSans-37" d="M 525 4666 
L 3525 4666 
L 3525 4397 
L 1831 0 
L 1172 0 
L 2766 4134 
L 525 4134 
L 525 4666 
z
" transform="scale(0.015625)"/>
       </defs>
       <use xlink:href="#DejaVuSans-30"/>
       <use xlink:href="#DejaVuSans-2e" transform="translate(63.623047 0)"/>
       <use xlink:href="#DejaVuSans-37" transform="translate(95.410156 0)"/>
       <use xlink:href="#DejaVuSans-35" transform="translate(159.033203 0)"/>
      </g>
     </g>
    </g>
    <g id="xtick_5">
     <g id="line2d_5">
      <g>
       <use xlink:href="#m3db32b8e4c" x="225.043879" y="273.312" style="stroke: #000000; stroke-width: 0.8"/>
      </g>
     </g>
     <g id="text_5">
      <!-- 1.00 -->
      <g transform="translate(213.911067 287.910437) scale(0.1 -0.1)">
       <defs>
        <path id="DejaVuSans-31" d="M 794 531 
L 1825 531 
L 1825 4091 
L 703 3866 
L 703 4441 
L 1819 4666 
L 2450 4666 
L 2450 531 
L 3481 531 
L 3481 0 
L 794 0 
L 794 531 
z
" transform="scale(0.015625)"/>
       </defs>
       <use xlink:href="#DejaVuSans-31"/>
       <use xlink:href="#DejaVuSans-2e" transform="translate(63.623047 0)"/>
       <use xlink:href="#DejaVuSans-30" transform="translate(95.410156 0)"/>
       <use xlink:href="#DejaVuSans-30" transform="translate(159.033203 0)"/>
      </g>
     </g>
    </g>
    <g id="xtick_6">
     <g id="line2d_6">
      <g>
       <use xlink:href="#m3db32b8e4c" x="269.563443" y="273.312" style="stroke: #000000; stroke-width: 0.8"/>
      </g>
     </g>
     <g id="text_6">
      <!-- 1.25 -->
      <g transform="translate(258.430631 287.910437) scale(0.1 -0.1)">
       <use xlink:href="#DejaVuSans-31"/>
       <use xlink:href="#DejaVuSans-2e" transform="translate(63.623047 0)"/>
       <use xlink:href="#DejaVuSans-32" transform="translate(95.410156 0)"/>
       <use xlink:href="#DejaVuSans-35" transform="translate(159.033203 0)"/>
      </g>
     </g>
    </g>
    <g id="xtick_7">
     <g id="line2d_7">
      <g>
       <use xlink:href="#m3db32b8e4c" x="314.083007" y="273.312" style="stroke: #000000; stroke-width: 0.8"/>
      </g>
     </g>
     <g id="text_7">
      <!-- 1.50 -->
      <g transform="translate(302.950194 287.910437) scale(0.1 -0.1)">
       <use xlink:href="#DejaVuSans-31"/>
       <use xlink:href="#DejaVuSans-2e" transform="translate(63.623047 0)"/>
       <use xlink:href="#DejaVuSans-35" transform="translate(95.410156 0)"/>
       <use xlink:href="#DejaVuSans-30" transform="translate(159.033203 0)"/>
      </g>
     </g>
    </g>
    <g id="xtick_8">
     <g id="line2d_8">
      <g>
       <use xlink:href="#m3db32b8e4c" x="358.60257" y="273.312" style="stroke: #000000; stroke-width: 0.8"/>
      </g>
     </g>
     <g id="text_8">
      <!-- 1.75 -->
      <g transform="translate(347.469758 287.910437) scale(0.1 -0.1)">
       <use xlink:href="#DejaVuSans-31"/>
       <use xlink:href="#DejaVuSans-2e" transform="translate(63.623047 0)"/>
       <use xlink:href="#DejaVuSans-37" transform="translate(95.410156 0)"/>
       <use xlink:href="#DejaVuSans-35" transform="translate(159.033203 0)"/>
      </g>
     </g>
    </g>
    <g id="xtick_9">
     <g id="line2d_9">
      <g>
       <use xlink:href="#m3db32b8e4c" x="403.122134" y="273.312" style="stroke: #000000; stroke-width: 0.8"/>
      </g>
     </g>
     <g id="text_9">
      <!-- 2.00 -->
      <g transform="translate(391.989321 287.910437) scale(0.1 -0.1)">
       <use xlink:href="#DejaVuSans-32"/>
       <use xlink:href="#DejaVuSans-2e" transform="translate(63.623047 0)"/>
       <use xlink:href="#DejaVuSans-30" transform="translate(95.410156 0)"/>
       <use xlink:href="#DejaVuSans-30" transform="translate(159.033203 0)"/>
      </g>
     </g>
    </g>
    <g id="text_10">
     <!-- Time -->
     <g transform="translate(213.292031 301.588562) scale(0.1 -0.1)">
      <defs>
       <path id="DejaVuSans-54" d="M -19 4666 
L 3928 4666 
L 3928 4134 
L 2272 4134 
L 2272 0 
L 1638 0 
L 1638 4134 
L -19 4134 
L -19 4666 
z
" transform="scale(0.015625)"/>
       <path id="DejaVuSans-69" d="M 603 3500 
L 1178 3500 
L 1178 0 
L 603 0 
L 603 3500 
z
M 603 4863 
L 1178 4863 
L 1178 4134 
L 603 4134 
L 603 4863 
z
" transform="scale(0.015625)"/>
       <path id="DejaVuSans-6d" d="M 3328 2828 
Q 3544 3216 3844 3400 
Q 4144 3584 4550 3584 
Q 5097 3584 5394 3201 
Q 5691 2819 5691 2113 
L 5691 0 
L 5113 0 
L 5113 2094 
Q 5113 2597 4934 2840 
Q 4756 3084 4391 3084 
Q 3944 3084 3684 2787 
Q 3425 2491 3425 1978 
L 3425 0 
L 2847 0 
L 2847 2094 
Q 2847 2600 2669 2842 
Q 2491 3084 2119 3084 
Q 1678 3084 1418 2786 
Q 1159 2488 1159 1978 
L 1159 0 
L 581 0 
L 581 3500 
L 1159 3500 
L 1159 2956 
Q 1356 3278 1631 3431 
Q 1906 3584 2284 3584 
Q 2666 3584 2933 3390 
Q 3200 3197 3328 2828 
z
" transform="scale(0.015625)"/>
       <path id="DejaVuSans-65" d="M 3597 1894 
L 3597 1613 
L 953 1613 
Q 991 1019 1311 708 
Q 1631 397 2203 397 
Q 2534 397 2845 478 
Q 3156 559 3463 722 
L 3463 178 
Q 3153 47 2828 -22 
Q 2503 -91 2169 -91 
Q 1331 -91 842 396 
Q 353 884 353 1716 
Q 353 2575 817 3079 
Q 1281 3584 2069 3584 
Q 2775 3584 3186 3129 
Q 3597 2675 3597 1894 
z
M 3022 2063 
Q 3016 2534 2758 2815 
Q 2500 3097 2075 3097 
Q 1594 3097 1305 2825 
Q 1016 2553 972 2059 
L 3022 2063 
z
" transform="scale(0.015625)"/>
      </defs>
      <use xlink:href="#DejaVuSans-54"/>
      <use xlink:href="#DejaVuSans-69" transform="translate(57.958984 0)"/>
      <use xlink:href="#DejaVuSans-6d" transform="translate(85.742188 0)"/>
      <use xlink:href="#DejaVuSans-65" transform="translate(183.154297 0)"/>
     </g>
    </g>
   </g>
   <g id="matplotlib.axis_2">
    <g id="ytick_1">
     <g id="line2d_10">
      <defs>
       <path id="mbfaacecc77" d="M 0 0 
L -3.5 0 
" style="stroke: #000000; stroke-width: 0.8"/>
      </defs>
      <g>
       <use xlink:href="#mbfaacecc77" x="46.965625" y="273.312" style="stroke: #000000; stroke-width: 0.8"/>
      </g>
     </g>
     <g id="text_11">
      <!-- 0 -->
      <g transform="translate(33.603125 277.111219) scale(0.1 -0.1)">
       <use xlink:href="#DejaVuSans-30"/>
      </g>
     </g>
    </g>
    <g id="ytick_2">
     <g id="line2d_11">
      <g>
       <use xlink:href="#mbfaacecc77" x="46.965625" y="237.350919" style="stroke: #000000; stroke-width: 0.8"/>
      </g>
     </g>
     <g id="text_12">
      <!-- 20 -->
      <g transform="translate(27.240625 241.150138) scale(0.1 -0.1)">
       <use xlink:href="#DejaVuSans-32"/>
       <use xlink:href="#DejaVuSans-30" transform="translate(63.623047 0)"/>
      </g>
     </g>
    </g>
    <g id="ytick_3">
     <g id="line2d_12">
      <g>
       <use xlink:href="#mbfaacecc77" x="46.965625" y="201.389838" style="stroke: #000000; stroke-width: 0.8"/>
      </g>
     </g>
     <g id="text_13">
      <!-- 40 -->
      <g transform="translate(27.240625 205.189057) scale(0.1 -0.1)">
       <defs>
        <path id="DejaVuSans-34" d="M 2419 4116 
L 825 1625 
L 2419 1625 
L 2419 4116 
z
M 2253 4666 
L 3047 4666 
L 3047 1625 
L 3713 1625 
L 3713 1100 
L 3047 1100 
L 3047 0 
L 2419 0 
L 2419 1100 
L 313 1100 
L 313 1709 
L 2253 4666 
z
" transform="scale(0.015625)"/>
       </defs>
       <use xlink:href="#DejaVuSans-34"/>
       <use xlink:href="#DejaVuSans-30" transform="translate(63.623047 0)"/>
      </g>
     </g>
    </g>
    <g id="ytick_4">
     <g id="line2d_13">
      <g>
       <use xlink:href="#mbfaacecc77" x="46.965625" y="165.428757" style="stroke: #000000; stroke-width: 0.8"/>
      </g>
     </g>
     <g id="text_14">
      <!-- 60 -->
      <g transform="translate(27.240625 169.227976) scale(0.1 -0.1)">
       <defs>
        <path id="DejaVuSans-36" d="M 2113 2584 
Q 1688 2584 1439 2293 
Q 1191 2003 1191 1497 
Q 1191 994 1439 701 
Q 1688 409 2113 409 
Q 2538 409 2786 701 
Q 3034 994 3034 1497 
Q 3034 2003 2786 2293 
Q 2538 2584 2113 2584 
z
M 3366 4563 
L 3366 3988 
Q 3128 4100 2886 4159 
Q 2644 4219 2406 4219 
Q 1781 4219 1451 3797 
Q 1122 3375 1075 2522 
Q 1259 2794 1537 2939 
Q 1816 3084 2150 3084 
Q 2853 3084 3261 2657 
Q 3669 2231 3669 1497 
Q 3669 778 3244 343 
Q 2819 -91 2113 -91 
Q 1303 -91 875 529 
Q 447 1150 447 2328 
Q 447 3434 972 4092 
Q 1497 4750 2381 4750 
Q 2619 4750 2861 4703 
Q 3103 4656 3366 4563 
z
" transform="scale(0.015625)"/>
       </defs>
       <use xlink:href="#DejaVuSans-36"/>
       <use xlink:href="#DejaVuSans-30" transform="translate(63.623047 0)"/>
      </g>
     </g>
    </g>
    <g id="ytick_5">
     <g id="line2d_14">
      <g>
       <use xlink:href="#mbfaacecc77" x="46.965625" y="129.467676" style="stroke: #000000; stroke-width: 0.8"/>
      </g>
     </g>
     <g id="text_15">
      <!-- 80 -->
      <g transform="translate(27.240625 133.266894) scale(0.1 -0.1)">
       <defs>
        <path id="DejaVuSans-38" d="M 2034 2216 
Q 1584 2216 1326 1975 
Q 1069 1734 1069 1313 
Q 1069 891 1326 650 
Q 1584 409 2034 409 
Q 2484 409 2743 651 
Q 3003 894 3003 1313 
Q 3003 1734 2745 1975 
Q 2488 2216 2034 2216 
z
M 1403 2484 
Q 997 2584 770 2862 
Q 544 3141 544 3541 
Q 544 4100 942 4425 
Q 1341 4750 2034 4750 
Q 2731 4750 3128 4425 
Q 3525 4100 3525 3541 
Q 3525 3141 3298 2862 
Q 3072 2584 2669 2484 
Q 3125 2378 3379 2068 
Q 3634 1759 3634 1313 
Q 3634 634 3220 271 
Q 2806 -91 2034 -91 
Q 1263 -91 848 271 
Q 434 634 434 1313 
Q 434 1759 690 2068 
Q 947 2378 1403 2484 
z
M 1172 3481 
Q 1172 3119 1398 2916 
Q 1625 2713 2034 2713 
Q 2441 2713 2670 2916 
Q 2900 3119 2900 3481 
Q 2900 3844 2670 4047 
Q 2441 4250 2034 4250 
Q 1625 4250 1398 4047 
Q 1172 3844 1172 3481 
z
" transform="scale(0.015625)"/>
       </defs>
       <use xlink:href="#DejaVuSans-38"/>
       <use xlink:href="#DejaVuSans-30" transform="translate(63.623047 0)"/>
      </g>
     </g>
    </g>
    <g id="ytick_6">
     <g id="line2d_15">
      <g>
       <use xlink:href="#mbfaacecc77" x="46.965625" y="93.506595" style="stroke: #000000; stroke-width: 0.8"/>
      </g>
     </g>
     <g id="text_16">
      <!-- 100 -->
      <g transform="translate(20.878125 97.305813) scale(0.1 -0.1)">
       <use xlink:href="#DejaVuSans-31"/>
       <use xlink:href="#DejaVuSans-30" transform="translate(63.623047 0)"/>
       <use xlink:href="#DejaVuSans-30" transform="translate(127.246094 0)"/>
      </g>
     </g>
    </g>
    <g id="ytick_7">
     <g id="line2d_16">
      <g>
       <use xlink:href="#mbfaacecc77" x="46.965625" y="57.545514" style="stroke: #000000; stroke-width: 0.8"/>
      </g>
     </g>
     <g id="text_17">
      <!-- 120 -->
      <g transform="translate(20.878125 61.344732) scale(0.1 -0.1)">
       <use xlink:href="#DejaVuSans-31"/>
       <use xlink:href="#DejaVuSans-32" transform="translate(63.623047 0)"/>
       <use xlink:href="#DejaVuSans-30" transform="translate(127.246094 0)"/>
      </g>
     </g>
    </g>
    <g id="ytick_8">
     <g id="line2d_17">
      <g>
       <use xlink:href="#mbfaacecc77" x="46.965625" y="21.584432" style="stroke: #000000; stroke-width: 0.8"/>
      </g>
     </g>
     <g id="text_18">
      <!-- 140 -->
      <g transform="translate(20.878125 25.383651) scale(0.1 -0.1)">
       <use xlink:href="#DejaVuSans-31"/>
       <use xlink:href="#DejaVuSans-34" transform="translate(63.623047 0)"/>
       <use xlink:href="#DejaVuSans-30" transform="translate(127.246094 0)"/>
      </g>
     </g>
    </g>
    <g id="text_19">
     <!-- Observable -->
     <g transform="translate(14.798438 168.766156) rotate(-90) scale(0.1 -0.1)">
      <defs>
       <path id="DejaVuSans-4f" d="M 2522 4238 
Q 1834 4238 1429 3725 
Q 1025 3213 1025 2328 
Q 1025 1447 1429 934 
Q 1834 422 2522 422 
Q 3209 422 3611 934 
Q 4013 1447 4013 2328 
Q 4013 3213 3611 3725 
Q 3209 4238 2522 4238 
z
M 2522 4750 
Q 3503 4750 4090 4092 
Q 4678 3434 4678 2328 
Q 4678 1225 4090 567 
Q 3503 -91 2522 -91 
Q 1538 -91 948 565 
Q 359 1222 359 2328 
Q 359 3434 948 4092 
Q 1538 4750 2522 4750 
z
" transform="scale(0.015625)"/>
       <path id="DejaVuSans-62" d="M 3116 1747 
Q 3116 2381 2855 2742 
Q 2594 3103 2138 3103 
Q 1681 3103 1420 2742 
Q 1159 2381 1159 1747 
Q 1159 1113 1420 752 
Q 1681 391 2138 391 
Q 2594 391 2855 752 
Q 3116 1113 3116 1747 
z
M 1159 2969 
Q 1341 3281 1617 3432 
Q 1894 3584 2278 3584 
Q 2916 3584 3314 3078 
Q 3713 2572 3713 1747 
Q 3713 922 3314 415 
Q 2916 -91 2278 -91 
Q 1894 -91 1617 61 
Q 1341 213 1159 525 
L 1159 0 
L 581 0 
L 581 4863 
L 1159 4863 
L 1159 2969 
z
" transform="scale(0.015625)"/>
       <path id="DejaVuSans-73" d="M 2834 3397 
L 2834 2853 
Q 2591 2978 2328 3040 
Q 2066 3103 1784 3103 
Q 1356 3103 1142 2972 
Q 928 2841 928 2578 
Q 928 2378 1081 2264 
Q 1234 2150 1697 2047 
L 1894 2003 
Q 2506 1872 2764 1633 
Q 3022 1394 3022 966 
Q 3022 478 2636 193 
Q 2250 -91 1575 -91 
Q 1294 -91 989 -36 
Q 684 19 347 128 
L 347 722 
Q 666 556 975 473 
Q 1284 391 1588 391 
Q 1994 391 2212 530 
Q 2431 669 2431 922 
Q 2431 1156 2273 1281 
Q 2116 1406 1581 1522 
L 1381 1569 
Q 847 1681 609 1914 
Q 372 2147 372 2553 
Q 372 3047 722 3315 
Q 1072 3584 1716 3584 
Q 2034 3584 2315 3537 
Q 2597 3491 2834 3397 
z
" transform="scale(0.015625)"/>
       <path id="DejaVuSans-72" d="M 2631 2963 
Q 2534 3019 2420 3045 
Q 2306 3072 2169 3072 
Q 1681 3072 1420 2755 
Q 1159 2438 1159 1844 
L 1159 0 
L 581 0 
L 581 3500 
L 1159 3500 
L 1159 2956 
Q 1341 3275 1631 3429 
Q 1922 3584 2338 3584 
Q 2397 3584 2469 3576 
Q 2541 3569 2628 3553 
L 2631 2963 
z
" transform="scale(0.015625)"/>
       <path id="DejaVuSans-76" d="M 191 3500 
L 800 3500 
L 1894 563 
L 2988 3500 
L 3597 3500 
L 2284 0 
L 1503 0 
L 191 3500 
z
" transform="scale(0.015625)"/>
       <path id="DejaVuSans-61" d="M 2194 1759 
Q 1497 1759 1228 1600 
Q 959 1441 959 1056 
Q 959 750 1161 570 
Q 1363 391 1709 391 
Q 2188 391 2477 730 
Q 2766 1069 2766 1631 
L 2766 1759 
L 2194 1759 
z
M 3341 1997 
L 3341 0 
L 2766 0 
L 2766 531 
Q 2569 213 2275 61 
Q 1981 -91 1556 -91 
Q 1019 -91 701 211 
Q 384 513 384 1019 
Q 384 1609 779 1909 
Q 1175 2209 1959 2209 
L 2766 2209 
L 2766 2266 
Q 2766 2663 2505 2880 
Q 2244 3097 1772 3097 
Q 1472 3097 1187 3025 
Q 903 2953 641 2809 
L 641 3341 
Q 956 3463 1253 3523 
Q 1550 3584 1831 3584 
Q 2591 3584 2966 3190 
Q 3341 2797 3341 1997 
z
" transform="scale(0.015625)"/>
       <path id="DejaVuSans-6c" d="M 603 4863 
L 1178 4863 
L 1178 0 
L 603 0 
L 603 4863 
z
" transform="scale(0.015625)"/>
      </defs>
      <use xlink:href="#DejaVuSans-4f"/>
      <use xlink:href="#DejaVuSans-62" transform="translate(78.710938 0)"/>
      <use xlink:href="#DejaVuSans-73" transform="translate(142.1875 0)"/>
      <use xlink:href="#DejaVuSans-65" transform="translate(194.287109 0)"/>
      <use xlink:href="#DejaVuSans-72" transform="translate(255.810547 0)"/>
      <use xlink:href="#DejaVuSans-76" transform="translate(296.923828 0)"/>
      <use xlink:href="#DejaVuSans-61" transform="translate(356.103516 0)"/>
      <use xlink:href="#DejaVuSans-62" transform="translate(417.382812 0)"/>
      <use xlink:href="#DejaVuSans-6c" transform="translate(480.859375 0)"/>
      <use xlink:href="#DejaVuSans-65" transform="translate(508.642578 0)"/>
     </g>
    </g>
   </g>
   <g id="line2d_18">
    <path d="M 46.965625 273.312 
L 47.101287 266.119784 
L 47.153756 260.725622 
L 47.273424 257.129514 
L 47.872859 221.168432 
L 47.975905 217.572324 
L 48.128178 204.985946 
L 48.137273 203.187892 
L 48.290414 201.389838 
L 48.383969 197.79373 
L 48.617966 195.995676 
L 48.779119 190.601514 
L 48.942321 187.005405 
L 48.955437 185.207351 
L 49.240883 181.611243 
L 49.347005 172.620973 
L 49.575217 163.630703 
L 49.95269 156.438486 
L 49.992038 154.640432 
L 50.54717 152.842378 
L 50.551831 151.044324 
L 51.012978 143.852108 
L 51.755905 140.256 
L 51.88072 138.457946 
L 52.306896 136.659892 
L 53.421954 134.861838 
L 53.52301 133.063784 
L 54.212087 131.26573 
L 55.324838 129.467676 
L 55.381587 127.669622 
L 55.565446 125.871568 
L 56.480065 124.073514 
L 56.611231 122.275459 
L 56.666417 124.073514 
L 57.509696 122.275459 
L 57.656898 120.477405 
L 58.014951 122.275459 
L 58.616069 124.073514 
L 59.709021 125.871568 
L 60.186412 127.669622 
L 60.358242 125.871568 
L 60.38378 124.073514 
L 60.520794 122.275459 
L 60.83849 120.477405 
L 60.956317 118.679351 
L 63.722633 116.881297 
L 64.213024 118.679351 
L 64.2188 120.477405 
L 64.346677 118.679351 
L 65.108802 116.881297 
L 66.055541 118.679351 
L 67.015204 116.881297 
L 67.142107 115.083243 
L 67.836547 113.285189 
L 71.26429 115.083243 
L 71.690566 116.881297 
L 71.737024 115.083243 
L 72.219657 113.285189 
L 73.928906 111.487135 
L 77.546796 113.285189 
L 78.091647 115.083243 
L 78.17379 113.285189 
L 79.704875 111.487135 
L 80.09111 113.285189 
L 80.122312 115.083243 
L 80.919659 111.487135 
L 81.09594 109.689081 
L 82.088275 107.891027 
L 85.355254 106.092973 
L 86.549554 107.891027 
L 87.497409 109.689081 
L 90.639865 111.487135 
L 91.045498 113.285189 
L 91.614481 111.487135 
L 93.606608 113.285189 
L 93.894383 115.083243 
L 94.840416 113.285189 
L 95.116588 111.487135 
L 97.566567 115.083243 
L 97.576897 116.881297 
L 98.86619 118.679351 
L 99.401671 116.881297 
L 100.016452 113.285189 
L 100.089264 115.083243 
L 101.578316 113.285189 
L 102.76542 115.083243 
L 103.714249 113.285189 
L 106.221013 111.487135 
L 107.216955 113.285189 
L 109.320266 111.487135 
L 109.84166 113.285189 
L 110.071241 115.083243 
L 110.377044 113.285189 
L 110.463207 115.083243 
L 110.467513 113.285189 
L 111.759569 115.083243 
L 112.071752 116.881297 
L 112.725287 115.083243 
L 113.223648 113.285189 
L 113.310746 115.083243 
L 114.703147 113.285189 
L 114.93748 111.487135 
L 116.472692 109.689081 
L 117.289673 111.487135 
L 119.318912 113.285189 
L 119.815267 115.083243 
L 120.812446 113.285189 
L 120.835675 111.487135 
L 121.406552 113.285189 
L 121.52782 115.083243 
L 122.212316 116.881297 
L 122.465053 115.083243 
L 123.201507 113.285189 
L 124.982434 115.083243 
L 127.98304 116.881297 
L 128.119002 115.083243 
L 128.203713 116.881297 
L 128.849375 118.679351 
L 129.416745 116.881297 
L 129.855296 118.679351 
L 130.003565 120.477405 
L 130.613394 122.275459 
L 130.876443 120.477405 
L 130.970341 116.881297 
L 131.898359 115.083243 
L 132.011684 113.285189 
L 133.352149 115.083243 
L 134.17201 116.881297 
L 135.449969 113.285189 
L 135.816205 111.487135 
L 136.335883 109.689081 
L 137.897995 111.487135 
L 142.836519 109.689081 
L 143.871735 111.487135 
L 144.239358 113.285189 
L 145.073921 111.487135 
L 146.444701 113.285189 
L 146.678087 109.689081 
L 146.920374 107.891027 
L 149.094256 109.689081 
L 149.446826 111.487135 
L 150.813296 113.285189 
L 152.341111 115.083243 
L 152.513313 113.285189 
L 154.395351 116.881297 
L 154.959175 115.083243 
L 156.774456 113.285189 
L 157.145487 111.487135 
L 157.482959 113.285189 
L 157.949601 111.487135 
L 158.667789 113.285189 
L 158.831557 115.083243 
L 160.830101 118.679351 
L 160.855324 116.881297 
L 161.797411 118.679351 
L 161.971543 120.477405 
L 162.067578 118.679351 
L 163.069861 116.881297 
L 163.207036 118.679351 
L 164.657156 115.083243 
L 164.774449 116.881297 
L 165.457953 118.679351 
L 165.842049 120.477405 
L 165.867472 122.275459 
L 166.92759 118.679351 
L 167.316635 120.477405 
L 169.083001 118.679351 
L 170.415702 116.881297 
L 170.547125 118.679351 
L 171.794295 120.477405 
L 171.892681 118.679351 
L 172.192094 120.477405 
L 172.961941 122.275459 
L 172.973615 120.477405 
L 174.2112 118.679351 
L 174.334577 120.477405 
L 174.704259 118.679351 
L 174.748669 116.881297 
L 174.847091 118.679351 
L 174.923973 116.881297 
L 175.360333 115.083243 
L 175.859229 116.881297 
L 176.521127 118.679351 
L 177.46054 116.881297 
L 177.671736 115.083243 
L 177.752835 116.881297 
L 177.828494 113.285189 
L 178.76203 115.083243 
L 179.47953 113.285189 
L 179.819499 111.487135 
L 181.798466 113.285189 
L 182.590499 111.487135 
L 183.396122 113.285189 
L 183.711887 115.083243 
L 187.13769 113.285189 
L 188.765177 115.083243 
L 189.31368 113.285189 
L 190.037079 115.083243 
L 190.308772 113.285189 
L 191.135445 115.083243 
L 193.327777 113.285189 
L 193.537137 111.487135 
L 195.350314 113.285189 
L 196.718676 115.083243 
L 197.439834 111.487135 
L 201.049054 109.689081 
L 201.158296 107.891027 
L 202.543652 111.487135 
L 204.413082 113.285189 
L 204.65244 115.083243 
L 205.159586 116.881297 
L 205.529903 115.083243 
L 205.779905 113.285189 
L 206.629501 115.083243 
L 207.569629 113.285189 
L 207.622557 115.083243 
L 208.575444 113.285189 
L 210.439188 115.083243 
L 212.689857 111.487135 
L 213.616271 109.689081 
L 214.000761 107.891027 
L 215.602042 106.092973 
L 216.01594 107.891027 
L 216.968197 109.689081 
L 217.05473 107.891027 
L 217.349428 109.689081 
L 217.44142 107.891027 
L 218.192422 109.689081 
L 218.538394 111.487135 
L 218.54851 109.689081 
L 218.78358 107.891027 
L 220.88973 109.689081 
L 223.711282 111.487135 
L 224.738067 113.285189 
L 228.958668 111.487135 
L 229.100731 104.294919 
L 229.110553 102.496865 
L 229.256452 100.698811 
L 229.448709 91.708541 
L 229.979097 89.910486 
L 230.266863 82.71827 
L 230.472857 75.526054 
L 230.787998 73.728 
L 230.88787 70.131892 
L 231.04735 68.333838 
L 231.392123 66.535784 
L 231.960069 64.73773 
L 232.242339 55.747459 
L 232.889635 52.151351 
L 233.243721 44.959135 
L 233.327081 43.161081 
L 233.536147 41.363027 
L 233.857462 43.161081 
L 233.91962 41.363027 
L 234.16594 39.564973 
L 234.656537 41.363027 
L 234.797584 39.564973 
L 235.153851 41.363027 
L 235.2075 39.564973 
L 235.276421 41.363027 
L 235.310077 39.564973 
L 235.536066 37.766919 
L 236.669074 35.968865 
L 237.001827 34.170811 
L 237.927346 32.372757 
L 238.100764 34.170811 
L 238.439326 30.574703 
L 239.144156 28.776649 
L 239.324355 25.180541 
L 240.612267 26.978595 
L 241.291594 25.180541 
L 241.446432 26.978595 
L 244.296459 25.180541 
L 244.643721 28.776649 
L 245.05614 30.574703 
L 245.437496 28.776649 
L 245.480806 30.574703 
L 245.836514 32.372757 
L 246.685784 34.170811 
L 246.719264 35.968865 
L 247.041991 37.766919 
L 247.207188 35.968865 
L 247.754667 34.170811 
L 247.948539 32.372757 
L 248.026049 30.574703 
L 248.321592 28.776649 
L 249.426678 26.978595 
L 249.933551 28.776649 
L 250.13738 26.978595 
L 250.861462 30.574703 
L 251.365199 26.978595 
L 252.564131 25.180541 
L 252.746404 23.382486 
L 253.394891 21.584432 
L 254.051474 23.382486 
L 255.28553 21.584432 
L 257.354744 23.382486 
L 257.527219 21.584432 
L 258.572787 23.382486 
L 258.803203 21.584432 
L 259.457457 23.382486 
L 259.611019 21.584432 
L 261.082821 23.382486 
L 261.751198 25.180541 
L 262.340569 21.584432 
L 262.359168 23.382486 
L 266.931957 25.180541 
L 267.00299 23.382486 
L 267.993654 21.584432 
L 269.582526 23.382486 
L 269.898455 25.180541 
L 270.088294 23.382486 
L 271.303487 21.584432 
L 273.176331 19.786378 
L 273.494585 17.988324 
L 274.873802 16.19027 
L 276.411941 14.392216 
L 277.15774 16.19027 
L 277.211728 17.988324 
L 279.075051 21.584432 
L 279.59672 23.382486 
L 279.92171 25.180541 
L 280.176231 23.382486 
L 280.30825 21.584432 
L 281.005981 23.382486 
L 282.478424 21.584432 
L 284.723796 23.382486 
L 286.154737 21.584432 
L 287.372512 25.180541 
L 287.796851 26.978595 
L 288.048091 28.776649 
L 289.135466 30.574703 
L 289.537434 28.776649 
L 289.643427 25.180541 
L 290.241146 23.382486 
L 290.359682 21.584432 
L 291.002442 19.786378 
L 291.360484 17.988324 
L 292.372854 19.786378 
L 293.197194 21.584432 
L 295.581356 23.382486 
L 296.207877 25.180541 
L 296.293115 26.978595 
L 296.361011 25.180541 
L 296.437095 26.978595 
L 296.595876 25.180541 
L 297.399121 26.978595 
L 297.683595 25.180541 
L 298.596173 23.382486 
L 298.796814 25.180541 
L 298.919716 23.382486 
L 299.150025 25.180541 
L 299.708574 23.382486 
L 300.676232 21.584432 
L 301.588048 23.382486 
L 301.708291 25.180541 
L 301.776657 23.382486 
L 303.65697 25.180541 
L 303.912394 26.978595 
L 304.675347 25.180541 
L 304.726095 26.978595 
L 305.879307 25.180541 
L 306.2822 23.382486 
L 307.027218 21.584432 
L 308.604486 19.786378 
L 309.158807 21.584432 
L 310.562147 19.786378 
L 311.364127 17.988324 
L 312.072731 19.786378 
L 313.414086 21.584432 
L 313.6645 19.786378 
L 314.086771 17.988324 
L 314.957258 16.19027 
L 317.644126 17.988324 
L 319.695582 16.19027 
L 321.229089 17.988324 
L 322.562012 16.19027 
L 324.08834 14.392216 
L 326.618338 16.19027 
L 326.733647 14.392216 
L 327.244452 16.19027 
L 328.703431 14.392216 
L 329.267091 12.594162 
L 329.555053 10.796108 
L 332.697804 8.998054 
L 333.90105 7.2 
L 334.224978 8.998054 
L 335.337325 10.796108 
L 336.292186 12.594162 
L 336.36718 10.796108 
L 337.392977 14.392216 
L 340.186729 16.19027 
L 342.47257 21.584432 
L 343.003543 23.382486 
L 343.386173 25.180541 
L 343.79264 28.776649 
L 343.87707 26.978595 
L 344.597326 25.180541 
L 344.624091 23.382486 
L 344.823039 21.584432 
L 345.136594 19.786378 
L 345.647293 21.584432 
L 345.990603 19.786378 
L 346.143959 21.584432 
L 348.086818 23.382486 
L 348.463752 25.180541 
L 348.927526 23.382486 
L 350.654341 21.584432 
L 351.349524 23.382486 
L 352.208226 21.584432 
L 353.598653 19.786378 
L 354.5832 17.988324 
L 354.836778 19.786378 
L 354.891868 21.584432 
L 355.865032 19.786378 
L 356.313651 21.584432 
L 357.318992 19.786378 
L 357.51144 21.584432 
L 358.739059 23.382486 
L 358.759371 21.584432 
L 359.104246 19.786378 
L 360.393353 21.584432 
L 360.427052 23.382486 
L 361.259916 25.180541 
L 361.811629 23.382486 
L 361.891464 25.180541 
L 362.438643 23.382486 
L 362.624327 21.584432 
L 364.275981 23.382486 
L 364.915639 21.584432 
L 365.678154 19.786378 
L 367.455403 23.382486 
L 367.485754 25.180541 
L 367.63545 23.382486 
L 369.001209 25.180541 
L 369.030588 23.382486 
L 369.334944 25.180541 
L 369.397789 23.382486 
L 369.605921 25.180541 
L 371.41428 23.382486 
L 372.145318 25.180541 
L 373.32601 26.978595 
L 373.376304 28.776649 
L 374.240962 30.574703 
L 374.337874 28.776649 
L 374.803667 26.978595 
L 374.931636 28.776649 
L 375.972445 30.574703 
L 376.140168 28.776649 
L 376.820937 26.978595 
L 379.24796 23.382486 
L 379.336466 25.180541 
L 380.521791 30.574703 
L 380.690491 32.372757 
L 382.573274 34.170811 
L 382.710174 30.574703 
L 383.005595 28.776649 
L 383.504598 30.574703 
L 383.646724 28.776649 
L 384.037883 30.574703 
L 384.717749 28.776649 
L 384.968111 30.574703 
L 385.064697 32.372757 
L 386.051498 30.574703 
L 386.058775 32.372757 
L 386.262449 30.574703 
L 386.343454 32.372757 
L 387.398361 34.170811 
L 387.752784 35.968865 
L 388.034426 34.170811 
L 388.80734 32.372757 
L 389.019687 30.574703 
L 389.459416 28.776649 
L 389.567311 26.978595 
L 390.280216 25.180541 
L 390.553437 26.978595 
L 390.568234 25.180541 
L 391.383103 23.382486 
L 392.805216 25.180541 
L 393.343155 26.978595 
L 393.476031 28.776649 
L 393.797061 26.978595 
L 394.269164 25.180541 
L 395.719561 26.978595 
L 396.100766 23.382486 
L 396.557796 21.584432 
L 397.343519 23.382486 
L 397.358228 21.584432 
L 399.171662 23.382486 
L 400.650568 21.584432 
L 401.37792 23.382486 
L 401.510023 21.584432 
L 401.78832 19.786378 
L 402.319062 21.584432 
L 404.085625 23.382486 
L 404.085625 23.382486 
" clip-path="url(#pc727b22966)" style="fill: none; stroke: #1f77b4; stroke-width: 1.5; stroke-linecap: square"/>
   </g>
   <g id="line2d_19">
    <path d="M 229.016734 167.226811 
L 229.448709 185.207351 
L 229.979097 187.005405 
L 230.266863 194.197622 
L 230.472857 201.389838 
L 230.787998 203.187892 
L 230.88787 206.784 
L 231.04735 208.582054 
L 231.392123 210.380108 
L 231.960069 212.178162 
L 232.242339 221.168432 
L 232.889635 224.764541 
L 233.243721 231.956757 
L 233.327081 233.754811 
L 233.536147 235.552865 
L 233.857462 233.754811 
L 233.91962 235.552865 
L 234.16594 237.350919 
L 234.656537 235.552865 
L 234.797584 237.350919 
L 235.153851 235.552865 
L 235.2075 237.350919 
L 235.276421 235.552865 
L 235.310077 237.350919 
L 235.536066 239.148973 
L 236.669074 240.947027 
L 237.001827 242.745081 
L 237.927346 244.543135 
L 238.100764 242.745081 
L 238.439326 246.341189 
L 239.144156 248.139243 
L 239.324355 251.735351 
L 240.612267 249.937297 
L 241.291594 251.735351 
L 241.446432 249.937297 
L 244.296459 251.735351 
L 244.643721 248.139243 
L 245.05614 246.341189 
L 245.437496 248.139243 
L 245.480806 246.341189 
L 245.836514 244.543135 
L 246.685784 242.745081 
L 246.719264 240.947027 
L 247.041991 239.148973 
L 247.207188 240.947027 
L 247.754667 242.745081 
L 247.948539 244.543135 
L 248.026049 246.341189 
L 248.321592 248.139243 
L 249.426678 249.937297 
L 249.933551 248.139243 
L 250.13738 249.937297 
L 250.861462 246.341189 
L 251.365199 249.937297 
L 252.564131 251.735351 
L 252.746404 253.533405 
L 253.394891 255.331459 
L 254.051474 253.533405 
L 255.28553 255.331459 
L 257.354744 253.533405 
L 257.527219 255.331459 
L 258.572787 253.533405 
L 258.803203 255.331459 
L 259.457457 253.533405 
L 259.611019 255.331459 
L 261.082821 253.533405 
L 261.751198 251.735351 
L 262.340569 255.331459 
L 262.359168 253.533405 
L 266.931957 251.735351 
L 267.00299 253.533405 
L 267.993654 255.331459 
L 269.582526 253.533405 
L 269.898455 251.735351 
L 270.088294 253.533405 
L 271.303487 255.331459 
L 273.176331 257.129514 
L 273.494585 258.927568 
L 274.873802 260.725622 
L 276.411941 262.523676 
L 277.15774 260.725622 
L 277.211728 258.927568 
L 279.075051 255.331459 
L 279.59672 253.533405 
L 279.92171 251.735351 
L 280.176231 253.533405 
L 280.30825 255.331459 
L 281.005981 253.533405 
L 282.478424 255.331459 
L 284.723796 253.533405 
L 286.154737 255.331459 
L 287.372512 251.735351 
L 287.796851 249.937297 
L 288.048091 248.139243 
L 289.135466 246.341189 
L 289.537434 248.139243 
L 289.643427 251.735351 
L 290.241146 253.533405 
L 290.359682 255.331459 
L 291.002442 257.129514 
L 291.360484 258.927568 
L 292.372854 257.129514 
L 293.197194 255.331459 
L 295.581356 253.533405 
L 296.207877 251.735351 
L 296.293115 249.937297 
L 296.361011 251.735351 
L 296.437095 249.937297 
L 296.595876 251.735351 
L 297.399121 249.937297 
L 297.683595 251.735351 
L 298.596173 253.533405 
L 298.796814 251.735351 
L 298.919716 253.533405 
L 299.150025 251.735351 
L 299.708574 253.533405 
L 300.676232 255.331459 
L 301.588048 253.533405 
L 301.708291 251.735351 
L 301.776657 253.533405 
L 303.65697 251.735351 
L 303.912394 249.937297 
L 304.675347 251.735351 
L 304.726095 249.937297 
L 305.879307 251.735351 
L 306.2822 253.533405 
L 307.027218 255.331459 
L 308.604486 257.129514 
L 309.158807 255.331459 
L 310.562147 257.129514 
L 311.364127 258.927568 
L 312.072731 257.129514 
L 313.414086 255.331459 
L 313.6645 257.129514 
L 314.086771 258.927568 
L 314.957258 260.725622 
L 317.644126 258.927568 
L 319.695582 260.725622 
L 321.229089 258.927568 
L 322.562012 260.725622 
L 324.08834 262.523676 
L 326.618338 260.725622 
L 326.733647 262.523676 
L 327.244452 260.725622 
L 328.703431 262.523676 
L 329.267091 264.32173 
L 329.555053 266.119784 
L 332.697804 267.917838 
L 333.90105 269.715892 
L 334.224978 267.917838 
L 335.337325 266.119784 
L 336.292186 264.32173 
L 336.36718 266.119784 
L 337.392977 262.523676 
L 340.186729 260.725622 
L 342.47257 255.331459 
L 343.003543 253.533405 
L 343.386173 251.735351 
L 343.79264 248.139243 
L 343.87707 249.937297 
L 344.597326 251.735351 
L 344.624091 253.533405 
L 344.823039 255.331459 
L 345.136594 257.129514 
L 345.647293 255.331459 
L 345.990603 257.129514 
L 346.143959 255.331459 
L 348.086818 253.533405 
L 348.463752 251.735351 
L 348.927526 253.533405 
L 350.654341 255.331459 
L 351.349524 253.533405 
L 352.208226 255.331459 
L 353.598653 257.129514 
L 354.5832 258.927568 
L 354.836778 257.129514 
L 354.891868 255.331459 
L 355.865032 257.129514 
L 356.313651 255.331459 
L 357.318992 257.129514 
L 357.51144 255.331459 
L 358.739059 253.533405 
L 358.759371 255.331459 
L 359.104246 257.129514 
L 360.393353 255.331459 
L 360.427052 253.533405 
L 361.259916 251.735351 
L 361.811629 253.533405 
L 361.891464 251.735351 
L 362.438643 253.533405 
L 362.624327 255.331459 
L 364.275981 253.533405 
L 364.915639 255.331459 
L 365.678154 257.129514 
L 367.455403 253.533405 
L 367.485754 251.735351 
L 367.63545 253.533405 
L 369.001209 251.735351 
L 369.030588 253.533405 
L 369.334944 251.735351 
L 369.397789 253.533405 
L 369.605921 251.735351 
L 371.41428 253.533405 
L 372.145318 251.735351 
L 373.32601 249.937297 
L 373.376304 248.139243 
L 374.240962 246.341189 
L 374.337874 248.139243 
L 374.803667 249.937297 
L 374.931636 248.139243 
L 375.972445 246.341189 
L 376.140168 248.139243 
L 376.820937 249.937297 
L 379.24796 253.533405 
L 379.336466 251.735351 
L 380.521791 246.341189 
L 380.690491 244.543135 
L 382.573274 242.745081 
L 382.710174 246.341189 
L 383.005595 248.139243 
L 383.504598 246.341189 
L 383.646724 248.139243 
L 384.037883 246.341189 
L 384.717749 248.139243 
L 384.968111 246.341189 
L 385.064697 244.543135 
L 386.051498 246.341189 
L 386.058775 244.543135 
L 386.262449 246.341189 
L 386.343454 244.543135 
L 387.398361 242.745081 
L 387.752784 240.947027 
L 388.034426 242.745081 
L 388.80734 244.543135 
L 389.019687 246.341189 
L 389.459416 248.139243 
L 389.567311 249.937297 
L 390.280216 251.735351 
L 390.553437 249.937297 
L 390.568234 251.735351 
L 391.383103 253.533405 
L 392.805216 251.735351 
L 393.343155 249.937297 
L 393.476031 248.139243 
L 393.797061 249.937297 
L 394.269164 251.735351 
L 395.719561 249.937297 
L 396.100766 253.533405 
L 396.557796 255.331459 
L 397.343519 253.533405 
L 397.358228 255.331459 
L 399.171662 253.533405 
L 400.650568 255.331459 
L 401.37792 253.533405 
L 401.510023 255.331459 
L 401.78832 257.129514 
L 402.319062 255.331459 
L 404.085625 253.533405 
L 404.085625 253.533405 
" clip-path="url(#pc727b22966)" style="fill: none; stroke: #ff7f0e; stroke-width: 1.5; stroke-linecap: square"/>
   </g>
   <g id="line2d_20">
    <path d="M 228.958668 273.312 
L 228.958668 7.2 
" clip-path="url(#pc727b22966)" style="fill: none; stroke-dasharray: 1.5,2.475; stroke-dashoffset: 0; stroke: #000000; stroke-width: 1.5"/>
   </g>
   <g id="line2d_21">
    <path d="M 253.394891 273.312 
L 253.394891 7.2 
" clip-path="url(#pc727b22966)" style="fill: none; stroke-dasharray: 1.5,2.475; stroke-dashoffset: 0; stroke: #000000; stroke-width: 1.5"/>
   </g>
   <g id="line2d_22">
    <path d="M 403.122134 273.312 
L 403.122134 7.2 
" clip-path="url(#pc727b22966)" style="fill: none; stroke-dasharray: 1.5,2.475; stroke-dashoffset: 0; stroke: #000000; stroke-width: 1.5"/>
   </g>
   <g id="patch_3">
    <path d="M 46.965625 273.312 
L 46.965625 7.2 
" style="fill: none; stroke: #000000; stroke-width: 0.8; stroke-linejoin: miter; stroke-linecap: square"/>
   </g>
   <g id="patch_4">
    <path d="M 404.085625 273.312 
L 404.085625 7.2 
" style="fill: none; stroke: #000000; stroke-width: 0.8; stroke-linejoin: miter; stroke-linecap: square"/>
   </g>
   <g id="patch_5">
    <path d="M 46.965625 273.312 
L 404.085625 273.312 
" style="fill: none; stroke: #000000; stroke-width: 0.8; stroke-linejoin: miter; stroke-linecap: square"/>
   </g>
   <g id="patch_6">
    <path d="M 46.965625 7.2 
L 404.085625 7.2 
" style="fill: none; stroke: #000000; stroke-width: 0.8; stroke-linejoin: miter; stroke-linecap: square"/>
   </g>
   <g id="legend_1">
    <g id="patch_7">
     <path d="M 53.965625 44.55625 
L 99.667188 44.55625 
Q 101.667188 44.55625 101.667188 42.55625 
L 101.667188 14.2 
Q 101.667188 12.2 99.667188 12.2 
L 53.965625 12.2 
Q 51.965625 12.2 51.965625 14.2 
L 51.965625 42.55625 
Q 51.965625 44.55625 53.965625 44.55625 
z
" style="fill: #ffffff; opacity: 0.8; stroke: #cccccc; stroke-linejoin: miter"/>
    </g>
    <g id="line2d_23">
     <path d="M 55.965625 20.298437 
L 65.965625 20.298437 
L 75.965625 20.298437 
" style="fill: none; stroke: #1f77b4; stroke-width: 1.5; stroke-linecap: square"/>
    </g>
    <g id="text_20">
     <!-- AB -->
     <g transform="translate(83.965625 23.798437) scale(0.1 -0.1)">
      <defs>
       <path id="DejaVuSans-41" d="M 2188 4044 
L 1331 1722 
L 3047 1722 
L 2188 4044 
z
M 1831 4666 
L 2547 4666 
L 4325 0 
L 3669 0 
L 3244 1197 
L 1141 1197 
L 716 0 
L 50 0 
L 1831 4666 
z
" transform="scale(0.015625)"/>
       <path id="DejaVuSans-42" d="M 1259 2228 
L 1259 519 
L 2272 519 
Q 2781 519 3026 730 
Q 3272 941 3272 1375 
Q 3272 1813 3026 2020 
Q 2781 2228 2272 2228 
L 1259 2228 
z
M 1259 4147 
L 1259 2741 
L 2194 2741 
Q 2656 2741 2882 2914 
Q 3109 3088 3109 3444 
Q 3109 3797 2882 3972 
Q 2656 4147 2194 4147 
L 1259 4147 
z
M 628 4666 
L 2241 4666 
Q 2963 4666 3353 4366 
Q 3744 4066 3744 3513 
Q 3744 3084 3544 2831 
Q 3344 2578 2956 2516 
Q 3422 2416 3680 2098 
Q 3938 1781 3938 1306 
Q 3938 681 3513 340 
Q 3088 0 2303 0 
L 628 0 
L 628 4666 
z
" transform="scale(0.015625)"/>
      </defs>
      <use xlink:href="#DejaVuSans-41"/>
      <use xlink:href="#DejaVuSans-42" transform="translate(68.408203 0)"/>
     </g>
    </g>
    <g id="line2d_24">
     <path d="M 55.965625 34.976562 
L 65.965625 34.976562 
L 75.965625 34.976562 
" style="fill: none; stroke: #ff7f0e; stroke-width: 1.5; stroke-linecap: square"/>
    </g>
    <g id="text_21">
     <!-- A -->
     <g transform="translate(83.965625 38.476562) scale(0.1 -0.1)">
      <use xlink:href="#DejaVuSans-41"/>
     </g>
    </g>
   </g>
  </g>
 </g>
 <defs>
  <clipPath id="pc727b22966">
   <rect x="46.965625" y="7.2" width="357.12" height="266.112"/>
  </clipPath>
 </defs>
</svg>
