<?xml version="1.0" encoding="utf-8" standalone="no"?>
<!DOCTYPE svg PUBLIC "-//W3C//DTD SVG 1.1//EN"
  "http://www.w3.org/Graphics/SVG/1.1/DTD/svg11.dtd">
<svg xmlns:xlink="http://www.w3.org/1999/xlink" width="421.952862pt" height="310.86825pt" viewBox="0 0 421.952862 310.86825" xmlns="http://www.w3.org/2000/svg" version="1.1">
 <metadata>
  <rdf:RDF xmlns:dc="http://purl.org/dc/elements/1.1/" xmlns:cc="http://creativecommons.org/ns#" xmlns:rdf="http://www.w3.org/1999/02/22-rdf-syntax-ns#">
   <cc:Work>
    <dc:type rdf:resource="http://purl.org/dc/dcmitype/StillImage"/>
    <dc:date>2026-05-14T16:42:41.607980</dc:date>
    <dc:format>image/svg+xml</dc:format>
    <dc:creator>
     <cc:Agent>
      <dc:title>Matplotlib v3.10.9, https://matplotlib.org/</dc:title>
     </cc:Agent>
    </dc:creator>
   </cc:Work>
  </rdf:RDF>
 </metadata>
 <defs>
  <style type="text/css">*{stroke-linejoin: round; stroke-linecap: butt}</style>
 </defs>
 <g id="figure_1">
  <g id="patch_1">
   <path d="M 0 310.86825 
L 421.952862 310.86825 
L 421.952862 0 
L 0 0 
z
" style="fill: #ffffff"/>
  </g>
  <g id="axes_1">
   <g id="patch_2">
    <path d="M 46.965625 273.312 
L 404.085625 273.312 
L 404.085625 7.2 
L 46.965625 7.2 
z
" style="fill: #ffffff"/>
   </g>
   <g id="matplotlib.axis_1">
    <g id="xtick_1">
     <g id="line2d_1">
      <defs>
       <path id="m30f5e704c6" d="M 0 0 
L 0 3.5 
" style="stroke: #000000; stroke-width: 0.8"/>
      </defs>
      <g>
       <use xlink:href="#m30f5e704c6" x="46.965625" y="273.312" style="stroke: #000000; stroke-width: 0.8"/>
      </g>
     </g>
     <g id="text_1">
      <!-- 0.00 -->
      <g transform="translate(35.832813 287.910437) scale(0.1 -0.1)">
       <defs>
        <path id="DejaVuSans-30" d="M 2034 4250 
Q 1547 4250 1301 3770 
Q 1056 3291 1056 2328 
Q 1056 1369 1301 889 
Q 1547 409 2034 409 
Q 2525 409 2770 889 
Q 3016 1369 3016 2328 
Q 3016 3291 2770 3770 
Q 2525 4250 2034 4250 
z
M 2034 4750 
Q 2819 4750 3233 4129 
Q 3647 3509 3647 2328 
Q 3647 1150 3233 529 
Q 2819 -91 2034 -91 
Q 1250 -91 836 529 
Q 422 1150 422 2328 
Q 422 3509 836 4129 
Q 1250 4750 2034 4750 
z
" transform="scale(0.015625)"/>
        <path id="DejaVuSans-2e" d="M 684 794 
L 1344 794 
L 1344 0 
L 684 0 
L 684 794 
z
" transform="scale(0.015625)"/>
       </defs>
       <use xlink:href="#DejaVuSans-30"/>
       <use xlink:href="#DejaVuSans-2e" transform="translate(63.623047 0)"/>
       <use xlink:href="#DejaVuSans-30" transform="translate(95.410156 0)"/>
       <use xlink:href="#DejaVuSans-30" transform="translate(159.033203 0)"/>
      </g>
     </g>
    </g>
    <g id="xtick_2">
     <g id="line2d_2">
      <g>
       <use xlink:href="#m30f5e704c6" x="91.547428" y="273.312" style="stroke: #000000; stroke-width: 0.8"/>
      </g>
     </g>
     <g id="text_2">
      <!-- 0.25 -->
      <g transform="translate(80.414616 287.910437) scale(0.1 -0.1)">
       <defs>
        <path id="DejaVuSans-32" d="M 1228 531 
L 3431 531 
L 3431 0 
L 469 0 
L 469 531 
Q 828 903 1448 1529 
Q 2069 2156 2228 2338 
Q 2531 2678 2651 2914 
Q 2772 3150 2772 3378 
Q 2772 3750 2511 3984 
Q 2250 4219 1831 4219 
Q 1534 4219 1204 4116 
Q 875 4013 500 3803 
L 500 4441 
Q 881 4594 1212 4672 
Q 1544 4750 1819 4750 
Q 2544 4750 2975 4387 
Q 3406 4025 3406 3419 
Q 3406 3131 3298 2873 
Q 3191 2616 2906 2266 
Q 2828 2175 2409 1742 
Q 1991 1309 1228 531 
z
" transform="scale(0.015625)"/>
        <path id="DejaVuSans-35" d="M 691 4666 
L 3169 4666 
L 3169 4134 
L 1269 4134 
L 1269 2991 
Q 1406 3038 1543 3061 
Q 1681 3084 1819 3084 
Q 2600 3084 3056 2656 
Q 3513 2228 3513 1497 
Q 3513 744 3044 326 
Q 2575 -91 1722 -91 
Q 1428 -91 1123 -41 
Q 819 9 494 109 
L 494 744 
Q 775 591 1075 516 
Q 1375 441 1709 441 
Q 2250 441 2565 725 
Q 2881 1009 2881 1497 
Q 2881 1984 2565 2268 
Q 2250 2553 1709 2553 
Q 1456 2553 1204 2497 
Q 953 2441 691 2322 
L 691 4666 
z
" transform="scale(0.015625)"/>
       </defs>
       <use xlink:href="#DejaVuSans-30"/>
       <use xlink:href="#DejaVuSans-2e" transform="translate(63.623047 0)"/>
       <use xlink:href="#DejaVuSans-32" transform="translate(95.410156 0)"/>
       <use xlink:href="#DejaVuSans-35" transform="translate(159.033203 0)"/>
      </g>
     </g>
    </g>
    <g id="xtick_3">
     <g id="line2d_3">
      <g>
       <use xlink:href="#m30f5e704c6" x="136.129231" y="273.312" style="stroke: #000000; stroke-width: 0.8"/>
      </g>
     </g>
     <g id="text_3">
      <!-- 0.50 -->
      <g transform="translate(124.996419 287.910437) scale(0.1 -0.1)">
       <use xlink:href="#DejaVuSans-30"/>
       <use xlink:href="#DejaVuSans-2e" transform="translate(63.623047 0)"/>
       <use xlink:href="#DejaVuSans-35" transform="translate(95.410156 0)"/>
       <use xlink:href="#DejaVuSans-30" transform="translate(159.033203 0)"/>
      </g>
     </g>
    </g>
    <g id="xtick_4">
     <g id="line2d_4">
      <g>
       <use xlink:href="#m30f5e704c6" x="180.711034" y="273.312" style="stroke: #000000; stroke-width: 0.8"/>
      </g>
     </g>
     <g id="text_4">
      <!-- 0.75 -->
      <g transform="translate(169.578222 287.910437) scale(0.1 -0.1)">
       <defs>
        <path id="DejaVuSans-37" d="M 525 4666 
L 3525 4666 
L 3525 4397 
L 1831 0 
L 1172 0 
L 2766 4134 
L 525 4134 
L 525 4666 
z
" transform="scale(0.015625)"/>
       </defs>
       <use xlink:href="#DejaVuSans-30"/>
       <use xlink:href="#DejaVuSans-2e" transform="translate(63.623047 0)"/>
       <use xlink:href="#DejaVuSans-37" transform="translate(95.410156 0)"/>
       <use xlink:href="#DejaVuSans-35" transform="translate(159.033203 0)"/>
      </g>
     </g>
    </g>
    <g id="xtick_5">
     <g id="line2d_5">
      <g>
       <use xlink:href="#m30f5e704c6" x="225.292837" y="273.312" style="stroke: #000000; stroke-width: 0.8"/>
      </g>
     </g>
     <g id="text_5">
      <!-- 1.00 -->
      <g transform="translate(214.160025 287.910437) scale(0.1 -0.1)">
       <defs>
        <path id="DejaVuSans-31" d="M 794 531 
L 1825 531 
L 1825 4091 
L 703 3866 
L 703 4441 
L 1819 4666 
L 2450 4666 
L 2450 531 
L 3481 531 
L 3481 0 
L 794 0 
L 794 531 
z
" transform="scale(0.015625)"/>
       </defs>
       <use xlink:href="#DejaVuSans-31"/>
       <use xlink:href="#DejaVuSans-2e" transform="translate(63.623047 0)"/>
       <use xlink:href="#DejaVuSans-30" transform="translate(95.410156 0)"/>
       <use xlink:href="#DejaVuSans-30" transform="translate(159.033203 0)"/>
      </g>
     </g>
    </g>
    <g id="xtick_6">
     <g id="line2d_6">
      <g>
       <use xlink:href="#m30f5e704c6" x="269.87464" y="273.312" style="stroke: #000000; stroke-width: 0.8"/>
      </g>
     </g>
     <g id="text_6">
      <!-- 1.25 -->
      <g transform="translate(258.741828 287.910437) scale(0.1 -0.1)">
       <use xlink:href="#DejaVuSans-31"/>
       <use xlink:href="#DejaVuSans-2e" transform="translate(63.623047 0)"/>
       <use xlink:href="#DejaVuSans-32" transform="translate(95.410156 0)"/>
       <use xlink:href="#DejaVuSans-35" transform="translate(159.033203 0)"/>
      </g>
     </g>
    </g>
    <g id="xtick_7">
     <g id="line2d_7">
      <g>
       <use xlink:href="#m30f5e704c6" x="314.456443" y="273.312" style="stroke: #000000; stroke-width: 0.8"/>
      </g>
     </g>
     <g id="text_7">
      <!-- 1.50 -->
      <g transform="translate(303.323631 287.910437) scale(0.1 -0.1)">
       <use xlink:href="#DejaVuSans-31"/>
       <use xlink:href="#DejaVuSans-2e" transform="translate(63.623047 0)"/>
       <use xlink:href="#DejaVuSans-35" transform="translate(95.410156 0)"/>
       <use xlink:href="#DejaVuSans-30" transform="translate(159.033203 0)"/>
      </g>
     </g>
    </g>
    <g id="xtick_8">
     <g id="line2d_8">
      <g>
       <use xlink:href="#m30f5e704c6" x="359.038246" y="273.312" style="stroke: #000000; stroke-width: 0.8"/>
      </g>
     </g>
     <g id="text_8">
      <!-- 1.75 -->
      <g transform="translate(347.905434 287.910437) scale(0.1 -0.1)">
       <use xlink:href="#DejaVuSans-31"/>
       <use xlink:href="#DejaVuSans-2e" transform="translate(63.623047 0)"/>
       <use xlink:href="#DejaVuSans-37" transform="translate(95.410156 0)"/>
       <use xlink:href="#DejaVuSans-35" transform="translate(159.033203 0)"/>
      </g>
     </g>
    </g>
    <g id="xtick_9">
     <g id="line2d_9">
      <g>
       <use xlink:href="#m30f5e704c6" x="403.620049" y="273.312" style="stroke: #000000; stroke-width: 0.8"/>
      </g>
     </g>
     <g id="text_9">
      <!-- 2.00 -->
      <g transform="translate(392.487237 287.910437) scale(0.1 -0.1)">
       <use xlink:href="#DejaVuSans-32"/>
       <use xlink:href="#DejaVuSans-2e" transform="translate(63.623047 0)"/>
       <use xlink:href="#DejaVuSans-30" transform="translate(95.410156 0)"/>
       <use xlink:href="#DejaVuSans-30" transform="translate(159.033203 0)"/>
      </g>
     </g>
    </g>
    <g id="text_10">
     <!-- Time -->
     <g transform="translate(213.292031 301.588562) scale(0.1 -0.1)">
      <defs>
       <path id="DejaVuSans-54" d="M -19 4666 
L 3928 4666 
L 3928 4134 
L 2272 4134 
L 2272 0 
L 1638 0 
L 1638 4134 
L -19 4134 
L -19 4666 
z
" transform="scale(0.015625)"/>
       <path id="DejaVuSans-69" d="M 603 3500 
L 1178 3500 
L 1178 0 
L 603 0 
L 603 3500 
z
M 603 4863 
L 1178 4863 
L 1178 4134 
L 603 4134 
L 603 4863 
z
" transform="scale(0.015625)"/>
       <path id="DejaVuSans-6d" d="M 3328 2828 
Q 3544 3216 3844 3400 
Q 4144 3584 4550 3584 
Q 5097 3584 5394 3201 
Q 5691 2819 5691 2113 
L 5691 0 
L 5113 0 
L 5113 2094 
Q 5113 2597 4934 2840 
Q 4756 3084 4391 3084 
Q 3944 3084 3684 2787 
Q 3425 2491 3425 1978 
L 3425 0 
L 2847 0 
L 2847 2094 
Q 2847 2600 2669 2842 
Q 2491 3084 2119 3084 
Q 1678 3084 1418 2786 
Q 1159 2488 1159 1978 
L 1159 0 
L 581 0 
L 581 3500 
L 1159 3500 
L 1159 2956 
Q 1356 3278 1631 3431 
Q 1906 3584 2284 3584 
Q 2666 3584 2933 3390 
Q 3200 3197 3328 2828 
z
" transform="scale(0.015625)"/>
       <path id="DejaVuSans-65" d="M 3597 1894 
L 3597 1613 
L 953 1613 
Q 991 1019 1311 708 
Q 1631 397 2203 397 
Q 2534 397 2845 478 
Q 3156 559 3463 722 
L 3463 178 
Q 3153 47 2828 -22 
Q 2503 -91 2169 -91 
Q 1331 -91 842 396 
Q 353 884 353 1716 
Q 353 2575 817 3079 
Q 1281 3584 2069 3584 
Q 2775 3584 3186 3129 
Q 3597 2675 3597 1894 
z
M 3022 2063 
Q 3016 2534 2758 2815 
Q 2500 3097 2075 3097 
Q 1594 3097 1305 2825 
Q 1016 2553 972 2059 
L 3022 2063 
z
" transform="scale(0.015625)"/>
      </defs>
      <use xlink:href="#DejaVuSans-54"/>
      <use xlink:href="#DejaVuSans-69" transform="translate(57.958984 0)"/>
      <use xlink:href="#DejaVuSans-6d" transform="translate(85.742188 0)"/>
      <use xlink:href="#DejaVuSans-65" transform="translate(183.154297 0)"/>
     </g>
    </g>
   </g>
   <g id="matplotlib.axis_2">
    <g id="ytick_1">
     <g id="line2d_10">
      <defs>
       <path id="m9d51126247" d="M 0 0 
L -3.5 0 
" style="stroke: #000000; stroke-width: 0.8"/>
      </defs>
      <g>
       <use xlink:href="#m9d51126247" x="46.965625" y="273.312" style="stroke: #000000; stroke-width: 0.8"/>
      </g>
     </g>
     <g id="text_11">
      <!-- 0 -->
      <g transform="translate(33.603125 277.111219) scale(0.1 -0.1)">
       <use xlink:href="#DejaVuSans-30"/>
      </g>
     </g>
    </g>
    <g id="ytick_2">
     <g id="line2d_11">
      <g>
       <use xlink:href="#m9d51126247" x="46.965625" y="236.093538" style="stroke: #000000; stroke-width: 0.8"/>
      </g>
     </g>
     <g id="text_12">
      <!-- 20 -->
      <g transform="translate(27.240625 239.892757) scale(0.1 -0.1)">
       <use xlink:href="#DejaVuSans-32"/>
       <use xlink:href="#DejaVuSans-30" transform="translate(63.623047 0)"/>
      </g>
     </g>
    </g>
    <g id="ytick_3">
     <g id="line2d_12">
      <g>
       <use xlink:href="#m9d51126247" x="46.965625" y="198.875077" style="stroke: #000000; stroke-width: 0.8"/>
      </g>
     </g>
     <g id="text_13">
      <!-- 40 -->
      <g transform="translate(27.240625 202.674296) scale(0.1 -0.1)">
       <defs>
        <path id="DejaVuSans-34" d="M 2419 4116 
L 825 1625 
L 2419 1625 
L 2419 4116 
z
M 2253 4666 
L 3047 4666 
L 3047 1625 
L 3713 1625 
L 3713 1100 
L 3047 1100 
L 3047 0 
L 2419 0 
L 2419 1100 
L 313 1100 
L 313 1709 
L 2253 4666 
z
" transform="scale(0.015625)"/>
       </defs>
       <use xlink:href="#DejaVuSans-34"/>
       <use xlink:href="#DejaVuSans-30" transform="translate(63.623047 0)"/>
      </g>
     </g>
    </g>
    <g id="ytick_4">
     <g id="line2d_13">
      <g>
       <use xlink:href="#m9d51126247" x="46.965625" y="161.656615" style="stroke: #000000; stroke-width: 0.8"/>
      </g>
     </g>
     <g id="text_14">
      <!-- 60 -->
      <g transform="translate(27.240625 165.455834) scale(0.1 -0.1)">
       <defs>
        <path id="DejaVuSans-36" d="M 2113 2584 
Q 1688 2584 1439 2293 
Q 1191 2003 1191 1497 
Q 1191 994 1439 701 
Q 1688 409 2113 409 
Q 2538 409 2786 701 
Q 3034 994 3034 1497 
Q 3034 2003 2786 2293 
Q 2538 2584 2113 2584 
z
M 3366 4563 
L 3366 3988 
Q 3128 4100 2886 4159 
Q 2644 4219 2406 4219 
Q 1781 4219 1451 3797 
Q 1122 3375 1075 2522 
Q 1259 2794 1537 2939 
Q 1816 3084 2150 3084 
Q 2853 3084 3261 2657 
Q 3669 2231 3669 1497 
Q 3669 778 3244 343 
Q 2819 -91 2113 -91 
Q 1303 -91 875 529 
Q 447 1150 447 2328 
Q 447 3434 972 4092 
Q 1497 4750 2381 4750 
Q 2619 4750 2861 4703 
Q 3103 4656 3366 4563 
z
" transform="scale(0.015625)"/>
       </defs>
       <use xlink:href="#DejaVuSans-36"/>
       <use xlink:href="#DejaVuSans-30" transform="translate(63.623047 0)"/>
      </g>
     </g>
    </g>
    <g id="ytick_5">
     <g id="line2d_14">
      <g>
       <use xlink:href="#m9d51126247" x="46.965625" y="124.438154" style="stroke: #000000; stroke-width: 0.8"/>
      </g>
     </g>
     <g id="text_15">
      <!-- 80 -->
      <g transform="translate(27.240625 128.237373) scale(0.1 -0.1)">
       <defs>
        <path id="DejaVuSans-38" d="M 2034 2216 
Q 1584 2216 1326 1975 
Q 1069 1734 1069 1313 
Q 1069 891 1326 650 
Q 1584 409 2034 409 
Q 2484 409 2743 651 
Q 3003 894 3003 1313 
Q 3003 1734 2745 1975 
Q 2488 2216 2034 2216 
z
M 1403 2484 
Q 997 2584 770 2862 
Q 544 3141 544 3541 
Q 544 4100 942 4425 
Q 1341 4750 2034 4750 
Q 2731 4750 3128 4425 
Q 3525 4100 3525 3541 
Q 3525 3141 3298 2862 
Q 3072 2584 2669 2484 
Q 3125 2378 3379 2068 
Q 3634 1759 3634 1313 
Q 3634 634 3220 271 
Q 2806 -91 2034 -91 
Q 1263 -91 848 271 
Q 434 634 434 1313 
Q 434 1759 690 2068 
Q 947 2378 1403 2484 
z
M 1172 3481 
Q 1172 3119 1398 2916 
Q 1625 2713 2034 2713 
Q 2441 2713 2670 2916 
Q 2900 3119 2900 3481 
Q 2900 3844 2670 4047 
Q 2441 4250 2034 4250 
Q 1625 4250 1398 4047 
Q 1172 3844 1172 3481 
z
" transform="scale(0.015625)"/>
       </defs>
       <use xlink:href="#DejaVuSans-38"/>
       <use xlink:href="#DejaVuSans-30" transform="translate(63.623047 0)"/>
      </g>
     </g>
    </g>
    <g id="ytick_6">
     <g id="line2d_15">
      <g>
       <use xlink:href="#m9d51126247" x="46.965625" y="87.219692" style="stroke: #000000; stroke-width: 0.8"/>
      </g>
     </g>
     <g id="text_16">
      <!-- 100 -->
      <g transform="translate(20.878125 91.018911) scale(0.1 -0.1)">
       <use xlink:href="#DejaVuSans-31"/>
       <use xlink:href="#DejaVuSans-30" transform="translate(63.623047 0)"/>
       <use xlink:href="#DejaVuSans-30" transform="translate(127.246094 0)"/>
      </g>
     </g>
    </g>
    <g id="ytick_7">
     <g id="line2d_16">
      <g>
       <use xlink:href="#m9d51126247" x="46.965625" y="50.001231" style="stroke: #000000; stroke-width: 0.8"/>
      </g>
     </g>
     <g id="text_17">
      <!-- 120 -->
      <g transform="translate(20.878125 53.80045) scale(0.1 -0.1)">
       <use xlink:href="#DejaVuSans-31"/>
       <use xlink:href="#DejaVuSans-32" transform="translate(63.623047 0)"/>
       <use xlink:href="#DejaVuSans-30" transform="translate(127.246094 0)"/>
      </g>
     </g>
    </g>
    <g id="ytick_8">
     <g id="line2d_17">
      <g>
       <use xlink:href="#m9d51126247" x="46.965625" y="12.782769" style="stroke: #000000; stroke-width: 0.8"/>
      </g>
     </g>
     <g id="text_18">
      <!-- 140 -->
      <g transform="translate(20.878125 16.581988) scale(0.1 -0.1)">
       <use xlink:href="#DejaVuSans-31"/>
       <use xlink:href="#DejaVuSans-34" transform="translate(63.623047 0)"/>
       <use xlink:href="#DejaVuSans-30" transform="translate(127.246094 0)"/>
      </g>
     </g>
    </g>
    <g id="text_19">
     <!-- Observable -->
     <g transform="translate(14.798438 168.766156) rotate(-90) scale(0.1 -0.1)">
      <defs>
       <path id="DejaVuSans-4f" d="M 2522 4238 
Q 1834 4238 1429 3725 
Q 1025 3213 1025 2328 
Q 1025 1447 1429 934 
Q 1834 422 2522 422 
Q 3209 422 3611 934 
Q 4013 1447 4013 2328 
Q 4013 3213 3611 3725 
Q 3209 4238 2522 4238 
z
M 2522 4750 
Q 3503 4750 4090 4092 
Q 4678 3434 4678 2328 
Q 4678 1225 4090 567 
Q 3503 -91 2522 -91 
Q 1538 -91 948 565 
Q 359 1222 359 2328 
Q 359 3434 948 4092 
Q 1538 4750 2522 4750 
z
" transform="scale(0.015625)"/>
       <path id="DejaVuSans-62" d="M 3116 1747 
Q 3116 2381 2855 2742 
Q 2594 3103 2138 3103 
Q 1681 3103 1420 2742 
Q 1159 2381 1159 1747 
Q 1159 1113 1420 752 
Q 1681 391 2138 391 
Q 2594 391 2855 752 
Q 3116 1113 3116 1747 
z
M 1159 2969 
Q 1341 3281 1617 3432 
Q 1894 3584 2278 3584 
Q 2916 3584 3314 3078 
Q 3713 2572 3713 1747 
Q 3713 922 3314 415 
Q 2916 -91 2278 -91 
Q 1894 -91 1617 61 
Q 1341 213 1159 525 
L 1159 0 
L 581 0 
L 581 4863 
L 1159 4863 
L 1159 2969 
z
" transform="scale(0.015625)"/>
       <path id="DejaVuSans-73" d="M 2834 3397 
L 2834 2853 
Q 2591 2978 2328 3040 
Q 2066 3103 1784 3103 
Q 1356 3103 1142 2972 
Q 928 2841 928 2578 
Q 928 2378 1081 2264 
Q 1234 2150 1697 2047 
L 1894 2003 
Q 2506 1872 2764 1633 
Q 3022 1394 3022 966 
Q 3022 478 2636 193 
Q 2250 -91 1575 -91 
Q 1294 -91 989 -36 
Q 684 19 347 128 
L 347 722 
Q 666 556 975 473 
Q 1284 391 1588 391 
Q 1994 391 2212 530 
Q 2431 669 2431 922 
Q 2431 1156 2273 1281 
Q 2116 1406 1581 1522 
L 1381 1569 
Q 847 1681 609 1914 
Q 372 2147 372 2553 
Q 372 3047 722 3315 
Q 1072 3584 1716 3584 
Q 2034 3584 2315 3537 
Q 2597 3491 2834 3397 
z
" transform="scale(0.015625)"/>
       <path id="DejaVuSans-72" d="M 2631 2963 
Q 2534 3019 2420 3045 
Q 2306 3072 2169 3072 
Q 1681 3072 1420 2755 
Q 1159 2438 1159 1844 
L 1159 0 
L 581 0 
L 581 3500 
L 1159 3500 
L 1159 2956 
Q 1341 3275 1631 3429 
Q 1922 3584 2338 3584 
Q 2397 3584 2469 3576 
Q 2541 3569 2628 3553 
L 2631 2963 
z
" transform="scale(0.015625)"/>
       <path id="DejaVuSans-76" d="M 191 3500 
L 800 3500 
L 1894 563 
L 2988 3500 
L 3597 3500 
L 2284 0 
L 1503 0 
L 191 3500 
z
" transform="scale(0.015625)"/>
       <path id="DejaVuSans-61" d="M 2194 1759 
Q 1497 1759 1228 1600 
Q 959 1441 959 1056 
Q 959 750 1161 570 
Q 1363 391 1709 391 
Q 2188 391 2477 730 
Q 2766 1069 2766 1631 
L 2766 1759 
L 2194 1759 
z
M 3341 1997 
L 3341 0 
L 2766 0 
L 2766 531 
Q 2569 213 2275 61 
Q 1981 -91 1556 -91 
Q 1019 -91 701 211 
Q 384 513 384 1019 
Q 384 1609 779 1909 
Q 1175 2209 1959 2209 
L 2766 2209 
L 2766 2266 
Q 2766 2663 2505 2880 
Q 2244 3097 1772 3097 
Q 1472 3097 1187 3025 
Q 903 2953 641 2809 
L 641 3341 
Q 956 3463 1253 3523 
Q 1550 3584 1831 3584 
Q 2591 3584 2966 3190 
Q 3341 2797 3341 1997 
z
" transform="scale(0.015625)"/>
       <path id="DejaVuSans-6c" d="M 603 4863 
L 1178 4863 
L 1178 0 
L 603 0 
L 603 4863 
z
" transform="scale(0.015625)"/>
      </defs>
      <use xlink:href="#DejaVuSans-4f"/>
      <use xlink:href="#DejaVuSans-62" transform="translate(78.710938 0)"/>
      <use xlink:href="#DejaVuSans-73" transform="translate(142.1875 0)"/>
      <use xlink:href="#DejaVuSans-65" transform="translate(194.287109 0)"/>
      <use xlink:href="#DejaVuSans-72" transform="translate(255.810547 0)"/>
      <use xlink:href="#DejaVuSans-76" transform="translate(296.923828 0)"/>
      <use xlink:href="#DejaVuSans-61" transform="translate(356.103516 0)"/>
      <use xlink:href="#DejaVuSans-62" transform="translate(417.382812 0)"/>
      <use xlink:href="#DejaVuSans-6c" transform="translate(480.859375 0)"/>
      <use xlink:href="#DejaVuSans-65" transform="translate(508.642578 0)"/>
     </g>
    </g>
   </g>
   <g id="line2d_18">
    <path d="M 46.965625 273.312 
L 47.112 250.980923 
L 47.261159 237.954462 
L 47.841238 224.928 
L 47.94442 210.040615 
L 48.259619 193.292308 
L 48.460182 185.848615 
L 48.665835 182.126769 
L 48.918939 169.100308 
L 49.145975 167.239385 
L 49.230038 165.378462 
L 49.436159 163.517538 
L 49.525938 159.795692 
L 49.632491 156.073846 
L 50.081291 146.769231 
L 50.390019 144.908308 
L 50.710852 146.769231 
L 50.848717 148.630154 
L 50.981139 144.908308 
L 51.833321 133.742769 
L 52.076391 131.881846 
L 52.226448 133.742769 
L 52.810101 135.603692 
L 53.03731 133.742769 
L 53.236031 130.020923 
L 53.40928 128.16 
L 54.078687 126.299077 
L 54.114403 124.438154 
L 54.61079 120.716308 
L 54.620795 118.855385 
L 55.155191 120.716308 
L 55.631519 118.855385 
L 55.805216 115.133538 
L 56.294572 111.411692 
L 56.402795 109.550769 
L 56.525968 111.411692 
L 57.334403 109.550769 
L 57.614505 107.689846 
L 58.39091 105.828923 
L 61.841476 107.689846 
L 63.42816 105.828923 
L 64.542568 107.689846 
L 65.17005 109.550769 
L 66.62843 107.689846 
L 67.22075 105.828923 
L 67.544421 103.968 
L 67.642093 105.828923 
L 67.953897 103.968 
L 68.732165 102.107077 
L 73.634664 103.968 
L 75.558072 105.828923 
L 76.130294 103.968 
L 76.70954 105.828923 
L 78.896398 107.689846 
L 80.4286 105.828923 
L 82.908623 107.689846 
L 84.081218 105.828923 
L 84.201513 103.968 
L 84.469224 102.107077 
L 87.053382 100.246154 
L 89.493503 102.107077 
L 91.259651 103.968 
L 91.706965 105.828923 
L 91.836803 107.689846 
L 92.056018 105.828923 
L 93.60916 107.689846 
L 94.064823 109.550769 
L 94.89314 111.411692 
L 95.910976 109.550769 
L 96.48718 107.689846 
L 96.571487 109.550769 
L 96.979003 107.689846 
L 97.002172 105.828923 
L 99.572363 107.689846 
L 100.042239 109.550769 
L 101.063981 107.689846 
L 101.985591 109.550769 
L 101.997717 107.689846 
L 102.488097 105.828923 
L 102.660641 103.968 
L 104.616944 105.828923 
L 105.913342 107.689846 
L 105.926936 105.828923 
L 107.096816 103.968 
L 109.066698 105.828923 
L 109.815173 103.968 
L 110.766497 102.107077 
L 112.980387 103.968 
L 114.89992 102.107077 
L 119.231431 103.968 
L 121.807224 102.107077 
L 121.941874 103.968 
L 123.20155 105.828923 
L 124.649077 103.968 
L 125.189288 105.828923 
L 125.982082 103.968 
L 128.177297 105.828923 
L 128.844726 103.968 
L 129.592621 105.828923 
L 131.565896 107.689846 
L 132.312816 105.828923 
L 132.845041 103.968 
L 134.90307 102.107077 
L 137.475746 103.968 
L 137.494683 105.828923 
L 138.273261 107.689846 
L 138.77557 105.828923 
L 139.3077 109.550769 
L 140.237617 111.411692 
L 140.267559 109.550769 
L 140.579897 111.411692 
L 141.012366 109.550769 
L 142.13405 107.689846 
L 142.512947 105.828923 
L 143.445974 107.689846 
L 144.059173 109.550769 
L 144.209244 107.689846 
L 144.307537 109.550769 
L 145.602042 107.689846 
L 146.091031 103.968 
L 147.57621 102.107077 
L 150.461821 100.246154 
L 151.048045 102.107077 
L 151.917124 100.246154 
L 152.795345 102.107077 
L 153.294208 100.246154 
L 154.006102 98.385231 
L 154.569909 96.524308 
L 156.915584 98.385231 
L 157.022668 100.246154 
L 158.552551 102.107077 
L 161.008048 103.968 
L 163.41755 102.107077 
L 163.468069 103.968 
L 165.150192 105.828923 
L 165.621069 103.968 
L 166.305073 105.828923 
L 167.055092 103.968 
L 167.379676 105.828923 
L 169.0069 103.968 
L 169.101088 105.828923 
L 170.123395 103.968 
L 171.768776 102.107077 
L 172.137236 103.968 
L 173.812085 105.828923 
L 173.815204 107.689846 
L 175.20358 105.828923 
L 175.43838 107.689846 
L 175.795159 105.828923 
L 175.939102 103.968 
L 176.280508 102.107077 
L 178.922446 103.968 
L 179.706681 102.107077 
L 179.755019 100.246154 
L 181.598172 98.385231 
L 182.200792 100.246154 
L 185.095385 102.107077 
L 186.553239 105.828923 
L 186.982222 103.968 
L 187.065244 102.107077 
L 189.953604 100.246154 
L 190.247109 98.385231 
L 191.515663 96.524308 
L 191.979404 94.663385 
L 192.039705 96.524308 
L 193.804533 94.663385 
L 194.114948 96.524308 
L 198.868228 98.385231 
L 199.245605 96.524308 
L 200.704851 98.385231 
L 202.502451 96.524308 
L 202.7389 98.385231 
L 202.910721 96.524308 
L 204.312548 98.385231 
L 206.188765 96.524308 
L 210.378506 98.385231 
L 211.77956 100.246154 
L 212.526968 102.107077 
L 213.276308 100.246154 
L 214.46242 102.107077 
L 215.004223 100.246154 
L 217.120006 98.385231 
L 218.421122 100.246154 
L 220.095276 102.107077 
L 220.107912 100.246154 
L 220.903889 102.107077 
L 225.90545 100.246154 
L 225.979043 92.802462 
L 226.274995 90.941538 
L 226.434496 83.497846 
L 226.609915 81.636923 
L 226.656379 79.776 
L 226.84842 77.915077 
L 226.875482 76.054154 
L 227.551869 68.610462 
L 227.623703 66.749538 
L 227.666372 68.610462 
L 227.866978 64.888615 
L 227.881469 63.027692 
L 228.059681 61.166769 
L 228.096797 59.305846 
L 228.77434 57.444923 
L 228.905947 55.584 
L 228.963156 51.862154 
L 229.201054 50.001231 
L 229.333613 46.279385 
L 230.429125 44.418462 
L 230.517716 38.835692 
L 230.705293 40.696615 
L 230.713899 42.557538 
L 231.070757 38.835692 
L 231.176103 40.696615 
L 231.258584 38.835692 
L 231.542182 40.696615 
L 231.738668 38.835692 
L 231.813181 40.696615 
L 231.816406 38.835692 
L 232.119621 36.974769 
L 232.207964 35.113846 
L 232.324148 36.974769 
L 232.327801 38.835692 
L 232.57423 36.974769 
L 232.637043 33.252923 
L 233.656404 31.392 
L 235.04106 27.670154 
L 236.039978 25.809231 
L 236.114061 23.948308 
L 236.605155 22.087385 
L 237.616996 20.226462 
L 239.691578 22.087385 
L 239.88759 18.365538 
L 240.986886 16.504615 
L 241.188698 14.643692 
L 241.591182 12.782769 
L 242.280149 10.921846 
L 243.839925 14.643692 
L 243.861488 12.782769 
L 246.78896 14.643692 
L 246.984184 16.504615 
L 248.094738 18.365538 
L 248.117693 20.226462 
L 248.515384 18.365538 
L 248.666943 14.643692 
L 248.905564 12.782769 
L 249.928695 14.643692 
L 250.303827 12.782769 
L 251.086826 14.643692 
L 251.929331 12.782769 
L 253.576221 10.921846 
L 253.637134 12.782769 
L 254.027414 14.643692 
L 254.205864 12.782769 
L 254.325306 14.643692 
L 254.437355 12.782769 
L 255.291207 14.643692 
L 256.399341 18.365538 
L 257.276142 16.504615 
L 257.887883 14.643692 
L 257.912198 16.504615 
L 258.083803 18.365538 
L 258.596187 16.504615 
L 259.621116 18.365538 
L 259.655686 20.226462 
L 260.220799 22.087385 
L 260.430864 20.226462 
L 260.487198 18.365538 
L 261.126321 16.504615 
L 261.364438 14.643692 
L 263.105333 12.782769 
L 265.521933 14.643692 
L 265.651303 12.782769 
L 266.350147 10.921846 
L 267.249993 12.782769 
L 267.357436 14.643692 
L 267.827063 12.782769 
L 268.454428 10.921846 
L 271.531302 16.504615 
L 272.479772 20.226462 
L 272.768994 22.087385 
L 272.810279 20.226462 
L 273.675177 18.365538 
L 275.053586 20.226462 
L 275.49772 22.087385 
L 276.08346 20.226462 
L 276.170778 18.365538 
L 276.751266 16.504615 
L 277.841767 18.365538 
L 278.202493 16.504615 
L 279.5589 18.365538 
L 279.687682 20.226462 
L 280.027841 18.365538 
L 282.5009 16.504615 
L 283.281491 14.643692 
L 283.373296 16.504615 
L 283.568763 14.643692 
L 284.578234 10.921846 
L 284.659388 14.643692 
L 284.680331 12.782769 
L 284.716676 10.921846 
L 287.644398 9.060923 
L 289.138349 10.921846 
L 289.483603 12.782769 
L 290.419398 10.921846 
L 291.479658 12.782769 
L 291.55379 14.643692 
L 292.072048 16.504615 
L 292.6227 14.643692 
L 293.159305 16.504615 
L 293.492951 14.643692 
L 293.811258 16.504615 
L 293.961757 14.643692 
L 294.054807 16.504615 
L 294.474282 14.643692 
L 294.547194 12.782769 
L 295.125729 14.643692 
L 295.236074 16.504615 
L 295.42073 14.643692 
L 295.743323 12.782769 
L 296.268484 14.643692 
L 296.376074 12.782769 
L 297.167369 14.643692 
L 297.305384 16.504615 
L 298.583623 14.643692 
L 299.206022 12.782769 
L 300.074803 14.643692 
L 300.727567 16.504615 
L 300.916766 18.365538 
L 301.398589 16.504615 
L 301.602765 18.365538 
L 302.627725 16.504615 
L 303.061332 18.365538 
L 303.541102 16.504615 
L 304.258339 20.226462 
L 304.265116 22.087385 
L 304.669534 20.226462 
L 305.492214 18.365538 
L 305.889817 20.226462 
L 306.260443 18.365538 
L 306.996358 16.504615 
L 310.046888 14.643692 
L 310.668336 12.782769 
L 310.687924 10.921846 
L 312.967872 16.504615 
L 313.260892 14.643692 
L 314.223562 12.782769 
L 315.117982 14.643692 
L 315.853082 16.504615 
L 316.975782 14.643692 
L 317.106852 12.782769 
L 319.090423 16.504615 
L 320.18841 14.643692 
L 320.189184 16.504615 
L 321.491909 18.365538 
L 322.483711 20.226462 
L 323.998229 18.365538 
L 324.354585 16.504615 
L 325.766124 14.643692 
L 326.965443 16.504615 
L 327.585017 14.643692 
L 327.701593 16.504615 
L 328.769813 18.365538 
L 330.867452 20.226462 
L 330.892743 22.087385 
L 331.267248 23.948308 
L 331.422274 25.809231 
L 331.860211 27.670154 
L 332.225918 25.809231 
L 333.01855 27.670154 
L 333.308344 23.948308 
L 334.336893 20.226462 
L 334.620685 18.365538 
L 336.476165 20.226462 
L 336.494871 18.365538 
L 337.296616 16.504615 
L 337.959434 14.643692 
L 339.813545 16.504615 
L 340.966205 18.365538 
L 341.34328 16.504615 
L 342.557339 18.365538 
L 342.59951 20.226462 
L 343.039653 18.365538 
L 343.190565 20.226462 
L 343.28773 23.948308 
L 343.332073 22.087385 
L 343.674917 20.226462 
L 343.706154 18.365538 
L 345.176817 16.504615 
L 345.248552 14.643692 
L 347.220617 16.504615 
L 347.555326 18.365538 
L 350.119045 16.504615 
L 350.465658 14.643692 
L 350.677974 12.782769 
L 351.827792 14.643692 
L 352.843546 16.504615 
L 353.32185 22.087385 
L 353.355352 23.948308 
L 353.577429 20.226462 
L 354.606848 18.365538 
L 354.967068 20.226462 
L 355.002195 22.087385 
L 355.551312 20.226462 
L 355.891046 18.365538 
L 356.390417 16.504615 
L 356.850281 22.087385 
L 358.374857 20.226462 
L 361.262893 18.365538 
L 361.479538 14.643692 
L 361.724659 16.504615 
L 362.365941 14.643692 
L 362.633658 16.504615 
L 363.793935 14.643692 
L 365.198808 12.782769 
L 365.211288 10.921846 
L 365.413796 12.782769 
L 365.787966 10.921846 
L 366.692188 12.782769 
L 368.569705 14.643692 
L 368.695383 12.782769 
L 370.269668 14.643692 
L 370.897644 16.504615 
L 370.995895 14.643692 
L 372.053328 16.504615 
L 372.819494 14.643692 
L 373.365031 12.782769 
L 375.870946 10.921846 
L 376.806755 12.782769 
L 377.464018 14.643692 
L 379.342429 16.504615 
L 380.212681 14.643692 
L 380.371895 12.782769 
L 384.63565 10.921846 
L 384.788631 12.782769 
L 385.185029 14.643692 
L 385.84069 16.504615 
L 385.979946 14.643692 
L 386.765745 10.921846 
L 387.669022 12.782769 
L 388.472947 10.921846 
L 388.551276 12.782769 
L 388.955101 16.504615 
L 389.229736 14.643692 
L 390.13888 12.782769 
L 390.749102 14.643692 
L 392.54247 16.504615 
L 393.154906 14.643692 
L 393.611505 16.504615 
L 393.656477 18.365538 
L 394.56148 16.504615 
L 396.522455 14.643692 
L 396.927418 12.782769 
L 397.173666 14.643692 
L 397.316227 12.782769 
L 398.533271 10.921846 
L 398.847747 9.060923 
L 400.086517 7.2 
L 401.614453 9.060923 
L 402.160478 10.921846 
L 402.712597 9.060923 
L 403.497957 7.2 
L 404.085625 9.060923 
L 404.085625 9.060923 
" clip-path="url(#p5665e2bccf)" style="fill: none; stroke: #1f77b4; stroke-width: 1.5; stroke-linecap: square"/>
   </g>
   <g id="line2d_19">
    <path d="M 225.906874 169.100308 
L 225.979043 174.683077 
L 226.274995 176.544 
L 226.434496 183.987692 
L 226.609915 185.848615 
L 226.656379 187.709538 
L 226.84842 189.570462 
L 226.875482 191.431385 
L 227.551869 198.875077 
L 227.623703 200.736 
L 227.666372 198.875077 
L 227.866978 202.596923 
L 227.881469 204.457846 
L 228.059681 206.318769 
L 228.096797 208.179692 
L 228.77434 210.040615 
L 228.905947 211.901538 
L 228.963156 215.623385 
L 229.201054 217.484308 
L 229.333613 221.206154 
L 230.429125 223.067077 
L 230.517716 228.649846 
L 230.705293 226.788923 
L 230.713899 224.928 
L 231.070757 228.649846 
L 231.176103 226.788923 
L 231.258584 228.649846 
L 231.542182 226.788923 
L 231.738668 228.649846 
L 231.813181 226.788923 
L 231.816406 228.649846 
L 232.119621 230.510769 
L 232.207964 232.371692 
L 232.324148 230.510769 
L 232.327801 228.649846 
L 232.57423 230.510769 
L 232.637043 234.232615 
L 233.656404 236.093538 
L 235.04106 239.815385 
L 236.039978 241.676308 
L 236.114061 243.537231 
L 236.605155 245.398154 
L 237.616996 247.259077 
L 239.691578 245.398154 
L 239.88759 249.12 
L 240.986886 250.980923 
L 241.188698 252.841846 
L 241.591182 254.702769 
L 242.280149 256.563692 
L 243.839925 252.841846 
L 243.861488 254.702769 
L 246.78896 252.841846 
L 246.984184 250.980923 
L 248.094738 249.12 
L 248.117693 247.259077 
L 248.515384 249.12 
L 248.666943 252.841846 
L 248.905564 254.702769 
L 249.928695 252.841846 
L 250.303827 254.702769 
L 251.086826 252.841846 
L 251.929331 254.702769 
L 253.576221 256.563692 
L 253.637134 254.702769 
L 254.027414 252.841846 
L 254.205864 254.702769 
L 254.325306 252.841846 
L 254.437355 254.702769 
L 255.291207 252.841846 
L 256.399341 249.12 
L 257.276142 250.980923 
L 257.887883 252.841846 
L 257.912198 250.980923 
L 258.083803 249.12 
L 258.596187 250.980923 
L 259.621116 249.12 
L 259.655686 247.259077 
L 260.220799 245.398154 
L 260.430864 247.259077 
L 260.487198 249.12 
L 261.126321 250.980923 
L 261.364438 252.841846 
L 263.105333 254.702769 
L 265.521933 252.841846 
L 265.651303 254.702769 
L 266.350147 256.563692 
L 267.249993 254.702769 
L 267.357436 252.841846 
L 267.827063 254.702769 
L 268.454428 256.563692 
L 271.531302 250.980923 
L 272.479772 247.259077 
L 272.768994 245.398154 
L 272.810279 247.259077 
L 273.675177 249.12 
L 275.053586 247.259077 
L 275.49772 245.398154 
L 276.08346 247.259077 
L 276.170778 249.12 
L 276.751266 250.980923 
L 277.841767 249.12 
L 278.202493 250.980923 
L 279.5589 249.12 
L 279.687682 247.259077 
L 280.027841 249.12 
L 282.5009 250.980923 
L 283.281491 252.841846 
L 283.373296 250.980923 
L 283.568763 252.841846 
L 284.578234 256.563692 
L 284.659388 252.841846 
L 284.680331 254.702769 
L 284.716676 256.563692 
L 287.644398 258.424615 
L 289.138349 256.563692 
L 289.483603 254.702769 
L 290.419398 256.563692 
L 291.479658 254.702769 
L 291.55379 252.841846 
L 292.072048 250.980923 
L 292.6227 252.841846 
L 293.159305 250.980923 
L 293.492951 252.841846 
L 293.811258 250.980923 
L 293.961757 252.841846 
L 294.054807 250.980923 
L 294.474282 252.841846 
L 294.547194 254.702769 
L 295.125729 252.841846 
L 295.236074 250.980923 
L 295.42073 252.841846 
L 295.743323 254.702769 
L 296.268484 252.841846 
L 296.376074 254.702769 
L 297.167369 252.841846 
L 297.305384 250.980923 
L 298.583623 252.841846 
L 299.206022 254.702769 
L 300.074803 252.841846 
L 300.727567 250.980923 
L 300.916766 249.12 
L 301.398589 250.980923 
L 301.602765 249.12 
L 302.627725 250.980923 
L 303.061332 249.12 
L 303.541102 250.980923 
L 304.258339 247.259077 
L 304.265116 245.398154 
L 304.669534 247.259077 
L 305.492214 249.12 
L 305.889817 247.259077 
L 306.260443 249.12 
L 306.996358 250.980923 
L 310.046888 252.841846 
L 310.668336 254.702769 
L 310.687924 256.563692 
L 312.967872 250.980923 
L 313.260892 252.841846 
L 314.223562 254.702769 
L 315.117982 252.841846 
L 315.853082 250.980923 
L 316.975782 252.841846 
L 317.106852 254.702769 
L 319.090423 250.980923 
L 320.18841 252.841846 
L 320.189184 250.980923 
L 321.491909 249.12 
L 322.483711 247.259077 
L 323.998229 249.12 
L 324.354585 250.980923 
L 325.766124 252.841846 
L 326.965443 250.980923 
L 327.585017 252.841846 
L 327.701593 250.980923 
L 328.769813 249.12 
L 330.867452 247.259077 
L 330.892743 245.398154 
L 331.267248 243.537231 
L 331.422274 241.676308 
L 331.860211 239.815385 
L 332.225918 241.676308 
L 333.01855 239.815385 
L 333.308344 243.537231 
L 334.336893 247.259077 
L 334.620685 249.12 
L 336.476165 247.259077 
L 336.494871 249.12 
L 337.296616 250.980923 
L 337.959434 252.841846 
L 339.813545 250.980923 
L 340.966205 249.12 
L 341.34328 250.980923 
L 342.557339 249.12 
L 342.59951 247.259077 
L 343.039653 249.12 
L 343.190565 247.259077 
L 343.28773 243.537231 
L 343.332073 245.398154 
L 343.674917 247.259077 
L 343.706154 249.12 
L 345.176817 250.980923 
L 345.248552 252.841846 
L 347.220617 250.980923 
L 347.555326 249.12 
L 350.119045 250.980923 
L 350.465658 252.841846 
L 350.677974 254.702769 
L 351.827792 252.841846 
L 352.843546 250.980923 
L 353.32185 245.398154 
L 353.355352 243.537231 
L 353.577429 247.259077 
L 354.606848 249.12 
L 354.967068 247.259077 
L 355.002195 245.398154 
L 355.551312 247.259077 
L 355.891046 249.12 
L 356.390417 250.980923 
L 356.850281 245.398154 
L 358.374857 247.259077 
L 361.262893 249.12 
L 361.479538 252.841846 
L 361.724659 250.980923 
L 362.365941 252.841846 
L 362.633658 250.980923 
L 363.793935 252.841846 
L 365.198808 254.702769 
L 365.211288 256.563692 
L 365.413796 254.702769 
L 365.787966 256.563692 
L 366.692188 254.702769 
L 368.569705 252.841846 
L 368.695383 254.702769 
L 370.269668 252.841846 
L 370.897644 250.980923 
L 370.995895 252.841846 
L 372.053328 250.980923 
L 372.819494 252.841846 
L 373.365031 254.702769 
L 375.870946 256.563692 
L 376.806755 254.702769 
L 377.464018 252.841846 
L 379.342429 250.980923 
L 380.212681 252.841846 
L 380.371895 254.702769 
L 384.63565 256.563692 
L 384.788631 254.702769 
L 385.185029 252.841846 
L 385.84069 250.980923 
L 385.979946 252.841846 
L 386.765745 256.563692 
L 387.669022 254.702769 
L 388.472947 256.563692 
L 388.551276 254.702769 
L 388.955101 250.980923 
L 389.229736 252.841846 
L 390.13888 254.702769 
L 390.749102 252.841846 
L 392.54247 250.980923 
L 393.154906 252.841846 
L 393.611505 250.980923 
L 393.656477 249.12 
L 394.56148 250.980923 
L 396.522455 252.841846 
L 396.927418 254.702769 
L 397.173666 252.841846 
L 397.316227 254.702769 
L 398.533271 256.563692 
L 398.847747 258.424615 
L 400.086517 260.285538 
L 401.614453 258.424615 
L 402.160478 256.563692 
L 402.712597 258.424615 
L 403.497957 260.285538 
L 404.085625 258.424615 
L 404.085625 258.424615 
" clip-path="url(#p5665e2bccf)" style="fill: none; stroke: #ff7f0e; stroke-width: 1.5; stroke-linecap: square"/>
   </g>
   <g id="line2d_20">
    <path d="M 225.90545 273.312 
L 225.90545 7.2 
" clip-path="url(#p5665e2bccf)" style="fill: none; stroke-dasharray: 1.5,2.475; stroke-dashoffset: 0; stroke: #000000; stroke-width: 1.5"/>
   </g>
   <g id="line2d_21">
    <path d="M 241.591182 273.312 
L 241.591182 7.2 
" clip-path="url(#p5665e2bccf)" style="fill: none; stroke-dasharray: 1.5,2.475; stroke-dashoffset: 0; stroke: #000000; stroke-width: 1.5"/>
   </g>
   <g id="line2d_22">
    <path d="M 403.620049 273.312 
L 403.620049 7.2 
" clip-path="url(#p5665e2bccf)" style="fill: none; stroke-dasharray: 1.5,2.475; stroke-dashoffset: 0; stroke: #000000; stroke-width: 1.5"/>
   </g>
   <g id="patch_3">
    <path d="M 46.965625 273.312 
L 46.965625 7.2 
" style="fill: none; stroke: #000000; stroke-width: 0.8; stroke-linejoin: miter; stroke-linecap: square"/>
   </g>
   <g id="patch_4">
    <path d="M 404.085625 273.312 
L 404.085625 7.2 
" style="fill: none; stroke: #000000; stroke-width: 0.8; stroke-linejoin: miter; stroke-linecap: square"/>
   </g>
   <g id="patch_5">
    <path d="M 46.965625 273.312 
L 404.085625 273.312 
" style="fill: none; stroke: #000000; stroke-width: 0.8; stroke-linejoin: miter; stroke-linecap: square"/>
   </g>
   <g id="patch_6">
    <path d="M 46.965625 7.2 
L 404.085625 7.2 
" style="fill: none; stroke: #000000; stroke-width: 0.8; stroke-linejoin: miter; stroke-linecap: square"/>
   </g>
   <g id="legend_1">
    <g id="patch_7">
     <path d="M 53.965625 44.55625 
L 99.667188 44.55625 
Q 101.667188 44.55625 101.667188 42.55625 
L 101.667188 14.2 
Q 101.667188 12.2 99.667188 12.2 
L 53.965625 12.2 
Q 51.965625 12.2 51.965625 14.2 
L 51.965625 42.55625 
Q 51.965625 44.55625 53.965625 44.55625 
z
" style="fill: #ffffff; opacity: 0.8; stroke: #cccccc; stroke-linejoin: miter"/>
    </g>
    <g id="line2d_23">
     <path d="M 55.965625 20.298437 
L 65.965625 20.298437 
L 75.965625 20.298437 
" style="fill: none; stroke: #1f77b4; stroke-width: 1.5; stroke-linecap: square"/>
    </g>
    <g id="text_20">
     <!-- AB -->
     <g transform="translate(83.965625 23.798437) scale(0.1 -0.1)">
      <defs>
       <path id="DejaVuSans-41" d="M 2188 4044 
L 1331 1722 
L 3047 1722 
L 2188 4044 
z
M 1831 4666 
L 2547 4666 
L 4325 0 
L 3669 0 
L 3244 1197 
L 1141 1197 
L 716 0 
L 50 0 
L 1831 4666 
z
" transform="scale(0.015625)"/>
       <path id="DejaVuSans-42" d="M 1259 2228 
L 1259 519 
L 2272 519 
Q 2781 519 3026 730 
Q 3272 941 3272 1375 
Q 3272 1813 3026 2020 
Q 2781 2228 2272 2228 
L 1259 2228 
z
M 1259 4147 
L 1259 2741 
L 2194 2741 
Q 2656 2741 2882 2914 
Q 3109 3088 3109 3444 
Q 3109 3797 2882 3972 
Q 2656 4147 2194 4147 
L 1259 4147 
z
M 628 4666 
L 2241 4666 
Q 2963 4666 3353 4366 
Q 3744 4066 3744 3513 
Q 3744 3084 3544 2831 
Q 3344 2578 2956 2516 
Q 3422 2416 3680 2098 
Q 3938 1781 3938 1306 
Q 3938 681 3513 340 
Q 3088 0 2303 0 
L 628 0 
L 628 4666 
z
" transform="scale(0.015625)"/>
      </defs>
      <use xlink:href="#DejaVuSans-41"/>
      <use xlink:href="#DejaVuSans-42" transform="translate(68.408203 0)"/>
     </g>
    </g>
    <g id="line2d_24">
     <path d="M 55.965625 34.976562 
L 65.965625 34.976562 
L 75.965625 34.976562 
" style="fill: none; stroke: #ff7f0e; stroke-width: 1.5; stroke-linecap: square"/>
    </g>
    <g id="text_21">
     <!-- A -->
     <g transform="translate(83.965625 38.476562) scale(0.1 -0.1)">
      <use xlink:href="#DejaVuSans-41"/>
     </g>
    </g>
   </g>
  </g>
 </g>
 <defs>
  <clipPath id="p5665e2bccf">
   <rect x="46.965625" y="7.2" width="357.12" height="266.112"/>
  </clipPath>
 </defs>
</svg>
