<?xml version="1.0" encoding="utf-8" standalone="no"?>
<!DOCTYPE svg PUBLIC "-//W3C//DTD SVG 1.1//EN"
  "http://www.w3.org/Graphics/SVG/1.1/DTD/svg11.dtd">
<svg xmlns:xlink="http://www.w3.org/1999/xlink" width="332.39952pt" height="332.39952pt" viewBox="0 0 332.39952 332.39952" xmlns="http://www.w3.org/2000/svg" version="1.1">
 <metadata>
  <rdf:RDF xmlns:dc="http://purl.org/dc/elements/1.1/" xmlns:cc="http://creativecommons.org/ns#" xmlns:rdf="http://www.w3.org/1999/02/22-rdf-syntax-ns#">
   <cc:Work>
    <dc:type rdf:resource="http://purl.org/dc/dcmitype/StillImage"/>
    <dc:date>2026-06-12T15:20:57.638474</dc:date>
    <dc:format>image/svg+xml</dc:format>
    <dc:creator>
     <cc:Agent>
      <dc:title>Matplotlib v3.11.0, https://matplotlib.org/</dc:title>
     </cc:Agent>
    </dc:creator>
   </cc:Work>
  </rdf:RDF>
 </metadata>
 <defs>
  <style type="text/css">*{stroke-linejoin: round; stroke-linecap: butt}</style>
 </defs>
 <g id="figure_1">
  <g id="patch_1">
   <path d="M 0 332.39952 
L 332.39952 332.39952 
L 332.39952 0 
L 0 0 
z
" style="fill: #ffffff"/>
  </g>
  <g id="axes_1">
   <g id="patch_2">
    <path d="M 44.103906 96.532593 
L 325.19952 96.532593 
L 325.19952 7.2 
L 44.103906 7.2 
z
" style="fill: #ffffff"/>
   </g>
   <g id="matplotlib.axis_1">
    <g id="xtick_1">
     <g id="line2d_1">
      <defs>
       <path id="m4cad3ac791" d="M 0 0 
L 0 3.5 
" style="stroke: #000000; stroke-width: 0.8"/>
      </defs>
      <g>
       <use xlink:href="#m4cad3ac791" x="56.88098" y="96.532593" style="stroke: #000000; stroke-width: 0.8"/>
      </g>
     </g>
    </g>
    <g id="xtick_2">
     <g id="line2d_2">
      <g>
       <use xlink:href="#m4cad3ac791" x="88.378648" y="96.532593" style="stroke: #000000; stroke-width: 0.8"/>
      </g>
     </g>
    </g>
    <g id="xtick_3">
     <g id="line2d_3">
      <g>
       <use xlink:href="#m4cad3ac791" x="119.876316" y="96.532593" style="stroke: #000000; stroke-width: 0.8"/>
      </g>
     </g>
    </g>
    <g id="xtick_4">
     <g id="line2d_4">
      <g>
       <use xlink:href="#m4cad3ac791" x="151.373985" y="96.532593" style="stroke: #000000; stroke-width: 0.8"/>
      </g>
     </g>
    </g>
    <g id="xtick_5">
     <g id="line2d_5">
      <g>
       <use xlink:href="#m4cad3ac791" x="182.871653" y="96.532593" style="stroke: #000000; stroke-width: 0.8"/>
      </g>
     </g>
    </g>
    <g id="xtick_6">
     <g id="line2d_6">
      <g>
       <use xlink:href="#m4cad3ac791" x="214.369322" y="96.532593" style="stroke: #000000; stroke-width: 0.8"/>
      </g>
     </g>
    </g>
    <g id="xtick_7">
     <g id="line2d_7">
      <g>
       <use xlink:href="#m4cad3ac791" x="245.86699" y="96.532593" style="stroke: #000000; stroke-width: 0.8"/>
      </g>
     </g>
    </g>
    <g id="xtick_8">
     <g id="line2d_8">
      <g>
       <use xlink:href="#m4cad3ac791" x="277.364658" y="96.532593" style="stroke: #000000; stroke-width: 0.8"/>
      </g>
     </g>
    </g>
    <g id="xtick_9">
     <g id="line2d_9">
      <g>
       <use xlink:href="#m4cad3ac791" x="308.862327" y="96.532593" style="stroke: #000000; stroke-width: 0.8"/>
      </g>
     </g>
    </g>
   </g>
   <g id="matplotlib.axis_2">
    <g id="ytick_1">
     <g id="line2d_10">
      <defs>
       <path id="m367fbd8858" d="M 0 0 
L -3.5 0 
" style="stroke: #000000; stroke-width: 0.8"/>
      </defs>
      <g>
       <use xlink:href="#m367fbd8858" x="44.103906" y="92.472021" style="stroke: #000000; stroke-width: 0.8"/>
      </g>
     </g>
     <g id="text_1">
      <!-- 0 -->
      <g transform="translate(30.741406 96.270849) scale(0.1 -0.1)">
       <defs>
        <path id="DejaVuSans-13" d="M 2034 4250 
Q 1547 4250 1301 3770 
Q 1056 3291 1056 2328 
Q 1056 1369 1301 889 
Q 1547 409 2034 409 
Q 2525 409 2770 889 
Q 3016 1369 3016 2328 
Q 3016 3291 2770 3770 
Q 2525 4250 2034 4250 
z
M 2034 4750 
Q 2819 4750 3233 4129 
Q 3647 3509 3647 2328 
Q 3647 1150 3233 529 
Q 2819 -91 2034 -91 
Q 1250 -91 836 529 
Q 422 1150 422 2328 
Q 422 3509 836 4129 
Q 1250 4750 2034 4750 
z
" transform="scale(0.015625)"/>
       </defs>
       <use xlink:href="#DejaVuSans-13"/>
      </g>
     </g>
    </g>
    <g id="ytick_2">
     <g id="line2d_11">
      <g>
       <use xlink:href="#m367fbd8858" x="44.103906" y="51.866296" style="stroke: #000000; stroke-width: 0.8"/>
      </g>
     </g>
     <g id="text_2">
      <!-- 5 -->
      <g transform="translate(30.741406 55.665125) scale(0.1 -0.1)">
       <defs>
        <path id="DejaVuSans-18" d="M 691 4666 
L 3169 4666 
L 3169 4134 
L 1269 4134 
L 1269 2991 
Q 1406 3038 1543 3061 
Q 1681 3084 1819 3084 
Q 2600 3084 3056 2656 
Q 3513 2228 3513 1497 
Q 3513 744 3044 326 
Q 2575 -91 1722 -91 
Q 1428 -91 1123 -41 
Q 819 9 494 109 
L 494 744 
Q 775 591 1075 516 
Q 1375 441 1709 441 
Q 2250 441 2565 725 
Q 2881 1009 2881 1497 
Q 2881 1984 2565 2268 
Q 2250 2553 1709 2553 
Q 1456 2553 1204 2497 
Q 953 2441 691 2322 
L 691 4666 
z
" transform="scale(0.015625)"/>
       </defs>
       <use xlink:href="#DejaVuSans-18"/>
      </g>
     </g>
    </g>
    <g id="ytick_3">
     <g id="line2d_12">
      <g>
       <use xlink:href="#m367fbd8858" x="44.103906" y="11.260572" style="stroke: #000000; stroke-width: 0.8"/>
      </g>
     </g>
     <g id="text_3">
      <!-- 10 -->
      <g transform="translate(24.378906 15.059401) scale(0.1 -0.1)">
       <defs>
        <path id="DejaVuSans-14" d="M 794 531 
L 1825 531 
L 1825 4091 
L 703 3866 
L 703 4441 
L 1819 4666 
L 2450 4666 
L 2450 531 
L 3481 531 
L 3481 0 
L 794 0 
L 794 531 
z
" transform="scale(0.015625)"/>
       </defs>
       <use xlink:href="#DejaVuSans-14"/>
       <use xlink:href="#DejaVuSans-13" transform="translate(63.625 0)"/>
      </g>
     </g>
    </g>
    <g id="text_4">
     <!-- Extracellular lactose -->
     <g transform="translate(17.976563 102.838171) rotate(-90) scale(0.1 -0.1)">
      <defs>
       <path id="DejaVuSans-28" d="M 628 4666 
L 3578 4666 
L 3578 4134 
L 1259 4134 
L 1259 2753 
L 3481 2753 
L 3481 2222 
L 1259 2222 
L 1259 531 
L 3634 531 
L 3634 0 
L 628 0 
L 628 4666 
z
" transform="scale(0.015625)"/>
       <path id="DejaVuSans-5b" d="M 3513 3500 
L 2247 1797 
L 3578 0 
L 2900 0 
L 1881 1375 
L 863 0 
L 184 0 
L 1544 1831 
L 300 3500 
L 978 3500 
L 1906 2253 
L 2834 3500 
L 3513 3500 
z
" transform="scale(0.015625)"/>
       <path id="DejaVuSans-57" d="M 1172 4494 
L 1172 3500 
L 2356 3500 
L 2356 3053 
L 1172 3053 
L 1172 1153 
Q 1172 725 1289 603 
Q 1406 481 1766 481 
L 2356 481 
L 2356 0 
L 1766 0 
Q 1100 0 847 248 
Q 594 497 594 1153 
L 594 3053 
L 172 3053 
L 172 3500 
L 594 3500 
L 594 4494 
L 1172 4494 
z
" transform="scale(0.015625)"/>
       <path id="DejaVuSans-55" d="M 2631 2963 
Q 2534 3019 2420 3045 
Q 2306 3072 2169 3072 
Q 1681 3072 1420 2755 
Q 1159 2438 1159 1844 
L 1159 0 
L 581 0 
L 581 3500 
L 1159 3500 
L 1159 2956 
Q 1341 3275 1631 3429 
Q 1922 3584 2338 3584 
Q 2397 3584 2469 3576 
Q 2541 3569 2628 3553 
L 2631 2963 
z
" transform="scale(0.015625)"/>
       <path id="DejaVuSans-44" d="M 2194 1759 
Q 1497 1759 1228 1600 
Q 959 1441 959 1056 
Q 959 750 1161 570 
Q 1363 391 1709 391 
Q 2188 391 2477 730 
Q 2766 1069 2766 1631 
L 2766 1759 
L 2194 1759 
z
M 3341 1997 
L 3341 0 
L 2766 0 
L 2766 531 
Q 2569 213 2275 61 
Q 1981 -91 1556 -91 
Q 1019 -91 701 211 
Q 384 513 384 1019 
Q 384 1609 779 1909 
Q 1175 2209 1959 2209 
L 2766 2209 
L 2766 2266 
Q 2766 2663 2505 2880 
Q 2244 3097 1772 3097 
Q 1472 3097 1187 3025 
Q 903 2953 641 2809 
L 641 3341 
Q 956 3463 1253 3523 
Q 1550 3584 1831 3584 
Q 2591 3584 2966 3190 
Q 3341 2797 3341 1997 
z
" transform="scale(0.015625)"/>
       <path id="DejaVuSans-46" d="M 3122 3366 
L 3122 2828 
Q 2878 2963 2633 3030 
Q 2388 3097 2138 3097 
Q 1578 3097 1268 2742 
Q 959 2388 959 1747 
Q 959 1106 1268 751 
Q 1578 397 2138 397 
Q 2388 397 2633 464 
Q 2878 531 3122 666 
L 3122 134 
Q 2881 22 2623 -34 
Q 2366 -91 2075 -91 
Q 1284 -91 818 406 
Q 353 903 353 1747 
Q 353 2603 823 3093 
Q 1294 3584 2113 3584 
Q 2378 3584 2631 3529 
Q 2884 3475 3122 3366 
z
" transform="scale(0.015625)"/>
       <path id="DejaVuSans-48" d="M 3597 1894 
L 3597 1613 
L 953 1613 
Q 991 1019 1311 708 
Q 1631 397 2203 397 
Q 2534 397 2845 478 
Q 3156 559 3463 722 
L 3463 178 
Q 3153 47 2828 -22 
Q 2503 -91 2169 -91 
Q 1331 -91 842 396 
Q 353 884 353 1716 
Q 353 2575 817 3079 
Q 1281 3584 2069 3584 
Q 2775 3584 3186 3129 
Q 3597 2675 3597 1894 
z
M 3022 2063 
Q 3016 2534 2758 2815 
Q 2500 3097 2075 3097 
Q 1594 3097 1305 2825 
Q 1016 2553 972 2059 
L 3022 2063 
z
" transform="scale(0.015625)"/>
       <path id="DejaVuSans-4f" d="M 603 4863 
L 1178 4863 
L 1178 0 
L 603 0 
L 603 4863 
z
" transform="scale(0.015625)"/>
       <path id="DejaVuSans-58" d="M 544 1381 
L 544 3500 
L 1119 3500 
L 1119 1403 
Q 1119 906 1312 657 
Q 1506 409 1894 409 
Q 2359 409 2629 706 
Q 2900 1003 2900 1516 
L 2900 3500 
L 3475 3500 
L 3475 0 
L 2900 0 
L 2900 538 
Q 2691 219 2414 64 
Q 2138 -91 1772 -91 
Q 1169 -91 856 284 
Q 544 659 544 1381 
z
M 1991 3584 
L 1991 3584 
z
" transform="scale(0.015625)"/>
       <path id="DejaVuSans-3" transform="scale(0.015625)"/>
       <path id="DejaVuSans-52" d="M 1959 3097 
Q 1497 3097 1228 2736 
Q 959 2375 959 1747 
Q 959 1119 1226 758 
Q 1494 397 1959 397 
Q 2419 397 2687 759 
Q 2956 1122 2956 1747 
Q 2956 2369 2687 2733 
Q 2419 3097 1959 3097 
z
M 1959 3584 
Q 2709 3584 3137 3096 
Q 3566 2609 3566 1747 
Q 3566 888 3137 398 
Q 2709 -91 1959 -91 
Q 1206 -91 779 398 
Q 353 888 353 1747 
Q 353 2609 779 3096 
Q 1206 3584 1959 3584 
z
" transform="scale(0.015625)"/>
       <path id="DejaVuSans-56" d="M 2834 3397 
L 2834 2853 
Q 2591 2978 2328 3040 
Q 2066 3103 1784 3103 
Q 1356 3103 1142 2972 
Q 928 2841 928 2578 
Q 928 2378 1081 2264 
Q 1234 2150 1697 2047 
L 1894 2003 
Q 2506 1872 2764 1633 
Q 3022 1394 3022 966 
Q 3022 478 2636 193 
Q 2250 -91 1575 -91 
Q 1294 -91 989 -36 
Q 684 19 347 128 
L 347 722 
Q 666 556 975 473 
Q 1284 391 1588 391 
Q 1994 391 2212 530 
Q 2431 669 2431 922 
Q 2431 1156 2273 1281 
Q 2116 1406 1581 1522 
L 1381 1569 
Q 847 1681 609 1914 
Q 372 2147 372 2553 
Q 372 3047 722 3315 
Q 1072 3584 1716 3584 
Q 2034 3584 2315 3537 
Q 2597 3491 2834 3397 
z
" transform="scale(0.015625)"/>
      </defs>
      <use xlink:href="#DejaVuSans-28"/>
      <use xlink:href="#DejaVuSans-5b" transform="translate(63.1875 0)"/>
      <use xlink:href="#DejaVuSans-57" transform="translate(122.375 0)"/>
      <use xlink:href="#DejaVuSans-55" transform="translate(161.578125 0)"/>
      <use xlink:href="#DejaVuSans-44" transform="translate(202.6875 0)"/>
      <use xlink:href="#DejaVuSans-46" transform="translate(263.96875 0)"/>
      <use xlink:href="#DejaVuSans-48" transform="translate(318.953125 0)"/>
      <use xlink:href="#DejaVuSans-4f" transform="translate(380.484375 0)"/>
      <use xlink:href="#DejaVuSans-4f" transform="translate(408.265625 0)"/>
      <use xlink:href="#DejaVuSans-58" transform="translate(436.046875 0)"/>
      <use xlink:href="#DejaVuSans-4f" transform="translate(499.421875 0)"/>
      <use xlink:href="#DejaVuSans-44" transform="translate(527.203125 0)"/>
      <use xlink:href="#DejaVuSans-55" transform="translate(588.484375 0)"/>
      <use xlink:href="#DejaVuSans-3" transform="translate(629.59375 0)"/>
      <use xlink:href="#DejaVuSans-4f" transform="translate(661.375 0)"/>
      <use xlink:href="#DejaVuSans-44" transform="translate(689.15625 0)"/>
      <use xlink:href="#DejaVuSans-46" transform="translate(750.4375 0)"/>
      <use xlink:href="#DejaVuSans-57" transform="translate(805.421875 0)"/>
      <use xlink:href="#DejaVuSans-52" transform="translate(844.625 0)"/>
      <use xlink:href="#DejaVuSans-56" transform="translate(905.8125 0)"/>
      <use xlink:href="#DejaVuSans-48" transform="translate(957.90625 0)"/>
     </g>
    </g>
   </g>
   <g id="line2d_13">
    <path d="M 56.88098 92.472021 
L 154.860573 92.472021 
L 154.948462 11.260572 
L 155.607392 11.341784 
L 155.723483 11.66663 
L 155.76769 11.747841 
L 155.911901 13.209647 
L 156.02946 14.833876 
L 156.054771 14.915088 
L 156.184916 16.620528 
L 156.206681 16.701739 
L 156.495668 19.462929 
L 156.501982 19.54414 
L 156.622856 20.193832 
L 156.700215 20.275043 
L 156.826496 20.843523 
L 156.843388 20.924735 
L 156.965008 21.087158 
L 157.004985 21.168369 
L 157.132508 21.980484 
L 157.166513 22.061695 
L 157.374531 23.198655 
L 157.850269 25.228941 
L 157.934551 25.310153 
L 158.075034 26.28469 
L 158.385807 28.152554 
L 158.503344 29.04588 
L 158.937903 32.213126 
L 158.956543 32.294337 
L 159.068576 32.862818 
L 159.993264 38.06035 
L 160.085984 38.141562 
L 160.217576 38.953676 
L 160.258705 39.034888 
L 160.381026 39.197311 
L 160.755725 39.278522 
L 160.857304 39.359733 
L 160.92773 39.440945 
L 160.975962 39.603368 
L 161.193091 39.928214 
L 161.319121 40.171848 
L 161.637738 40.983962 
L 161.780452 41.471231 
L 162.628366 43.09546 
L 162.761709 43.176672 
L 162.872945 43.826363 
L 163.146408 44.8009 
L 163.340124 46.019072 
L 163.356822 46.100284 
L 163.531673 46.668764 
L 163.740227 46.749975 
L 164.130551 47.643301 
L 164.149766 47.724513 
L 164.351385 48.13057 
L 164.509307 48.211781 
L 164.669372 48.536627 
L 164.859109 48.617839 
L 164.970488 48.780261 
L 165.001642 48.861473 
L 165.33998 50.242067 
L 165.403846 50.323279 
L 165.549438 50.648125 
L 165.644987 50.729336 
L 165.752346 50.972971 
L 166.103575 51.460239 
L 166.188029 51.541451 
L 166.304276 51.703874 
L 166.904482 53.409314 
L 166.947586 53.490525 
L 167.169775 54.465063 
L 167.223023 54.546274 
L 167.342004 54.952331 
L 167.365397 55.033543 
L 167.691676 56.901406 
L 167.892789 59.175327 
L 167.902678 59.256538 
L 168.517378 62.911053 
L 168.645516 62.992265 
L 168.781419 63.317111 
L 168.888237 63.398322 
L 169.013808 63.641956 
L 169.519246 64.697705 
L 169.622187 64.778917 
L 170.062748 65.915877 
L 170.080426 65.997088 
L 170.216013 66.403146 
L 170.238605 66.484357 
L 170.455487 67.21526 
L 170.5199 67.296472 
L 170.621425 67.377683 
L 170.761412 67.458894 
L 170.85064 67.702529 
L 170.946695 67.78374 
L 171.059274 67.946163 
L 171.209027 68.027375 
L 171.311194 68.35222 
L 171.531117 68.433432 
L 171.929466 69.245546 
L 172.048226 69.489181 
L 172.115957 69.570392 
L 172.484312 70.54493 
L 172.597148 70.869775 
L 172.654967 70.950987 
L 172.792437 71.519467 
L 172.828002 71.600678 
L 172.930353 72.25037 
L 173.13632 72.737639 
L 173.172964 72.81885 
L 173.275267 72.981273 
L 173.47756 73.062484 
L 173.760175 73.306119 
L 173.952206 73.38733 
L 174.097761 74.037022 
L 174.174049 74.118233 
L 174.325797 74.361868 
L 174.497858 74.443079 
L 174.667865 74.767925 
L 175.046754 74.849136 
L 175.161737 75.011559 
L 175.949596 75.092771 
L 176.062712 75.255194 
L 176.099699 75.336405 
L 176.172155 75.417616 
L 176.265028 75.498828 
L 176.346086 75.580039 
L 176.502026 75.661251 
L 176.637215 75.823674 
L 176.8622 75.904885 
L 177.05763 76.554577 
L 177.155373 76.635788 
L 177.305886 77.041845 
L 177.514028 77.123057 
L 177.697712 77.691537 
L 177.750462 77.772748 
L 177.889393 78.016383 
L 178.234769 78.666074 
L 178.370347 79.315766 
L 178.469227 79.396977 
L 178.578897 79.478189 
L 178.739974 79.5594 
L 178.90782 79.803035 
L 179.141819 80.209092 
L 179.332175 80.452726 
L 179.376572 80.533938 
L 179.58542 80.777572 
L 179.637997 80.858783 
L 179.739105 81.102418 
L 179.835716 81.183629 
L 180.025044 81.914532 
L 180.169207 82.076955 
L 180.238032 82.158167 
L 180.405051 82.564224 
L 180.51316 82.645435 
L 180.597472 82.807858 
L 180.677108 82.88907 
L 180.775878 82.970281 
L 181.010592 83.051493 
L 181.122425 83.295127 
L 181.27769 83.538761 
L 181.380676 83.863607 
L 181.599123 83.944818 
L 182.123708 84.513299 
L 182.60879 84.59451 
L 182.758997 84.675721 
L 183.740752 84.756933 
L 184.246998 84.919356 
L 185.78018 85.000567 
L 185.90109 85.16299 
L 187.300531 85.244202 
L 188.024397 85.487836 
L 188.113245 85.569047 
L 188.287428 85.812682 
L 188.366711 85.893893 
L 188.481008 86.218739 
L 188.625322 86.29995 
L 188.754918 86.381162 
L 188.875426 86.543585 
L 189.024331 86.624796 
L 189.110233 86.706008 
L 189.267286 86.787219 
L 190.829418 87.599334 
L 190.929777 87.680545 
L 191.439766 87.761757 
L 191.578618 87.924179 
L 191.642384 88.005391 
L 191.770391 88.086602 
L 192.031739 88.411448 
L 192.191208 88.49266 
L 192.303145 88.655082 
L 192.816364 88.736294 
L 192.944057 88.817505 
L 193.275058 88.898717 
L 193.438013 88.979928 
L 194.03145 89.06114 
L 194.048496 89.142351 
L 195.240048 89.223563 
L 195.324896 89.304774 
L 196.270071 89.385985 
L 196.621468 89.548408 
L 197.548861 89.62962 
L 198.121033 89.710831 
L 198.798155 89.792043 
L 199.142472 89.873254 
L 203.542296 89.954466 
L 205.289438 90.1981 
L 205.485864 90.279311 
L 205.613157 90.360523 
L 206.761994 90.441734 
L 207.156893 90.604157 
L 209.778147 90.685369 
L 210.033351 90.76658 
L 211.062977 90.847792 
L 211.423021 90.929003 
L 212.629899 91.010214 
L 212.744155 91.172637 
L 219.705417 91.253849 
L 220.177093 91.497483 
L 222.563439 91.578695 
L 222.775075 91.659906 
L 224.09127 91.741117 
L 224.45703 91.822329 
L 260.596864 91.90354 
L 260.813943 91.984752 
L 261.820772 92.147175 
L 312.422447 92.147175 
L 312.422447 92.147175 
" clip-path="url(#p964df8f93f)" style="fill: none; stroke: #000000; stroke-width: 1.5; stroke-linecap: square"/>
   </g>
   <g id="patch_3">
    <path d="M 44.103906 96.532593 
L 44.103906 7.2 
" style="fill: none; stroke: #000000; stroke-width: 0.8; stroke-linejoin: miter; stroke-linecap: square"/>
   </g>
   <g id="patch_4">
    <path d="M 325.19952 96.532593 
L 325.19952 7.2 
" style="fill: none; stroke: #000000; stroke-width: 0.8; stroke-linejoin: miter; stroke-linecap: square"/>
   </g>
   <g id="patch_5">
    <path d="M 44.103906 96.532593 
L 325.19952 96.532593 
" style="fill: none; stroke: #000000; stroke-width: 0.8; stroke-linejoin: miter; stroke-linecap: square"/>
   </g>
   <g id="patch_6">
    <path d="M 44.103906 7.2 
L 325.19952 7.2 
" style="fill: none; stroke: #000000; stroke-width: 0.8; stroke-linejoin: miter; stroke-linecap: square"/>
   </g>
  </g>
  <g id="axes_2">
   <g id="patch_7">
    <path d="M 44.103906 195.365666 
L 325.19952 195.365666 
L 325.19952 106.033073 
L 44.103906 106.033073 
z
" style="fill: #ffffff"/>
   </g>
   <g id="matplotlib.axis_3">
    <g id="xtick_10">
     <g id="line2d_14">
      <g>
       <use xlink:href="#m4cad3ac791" x="56.88098" y="195.365666" style="stroke: #000000; stroke-width: 0.8"/>
      </g>
     </g>
    </g>
    <g id="xtick_11">
     <g id="line2d_15">
      <g>
       <use xlink:href="#m4cad3ac791" x="88.378648" y="195.365666" style="stroke: #000000; stroke-width: 0.8"/>
      </g>
     </g>
    </g>
    <g id="xtick_12">
     <g id="line2d_16">
      <g>
       <use xlink:href="#m4cad3ac791" x="119.876316" y="195.365666" style="stroke: #000000; stroke-width: 0.8"/>
      </g>
     </g>
    </g>
    <g id="xtick_13">
     <g id="line2d_17">
      <g>
       <use xlink:href="#m4cad3ac791" x="151.373985" y="195.365666" style="stroke: #000000; stroke-width: 0.8"/>
      </g>
     </g>
    </g>
    <g id="xtick_14">
     <g id="line2d_18">
      <g>
       <use xlink:href="#m4cad3ac791" x="182.871653" y="195.365666" style="stroke: #000000; stroke-width: 0.8"/>
      </g>
     </g>
    </g>
    <g id="xtick_15">
     <g id="line2d_19">
      <g>
       <use xlink:href="#m4cad3ac791" x="214.369322" y="195.365666" style="stroke: #000000; stroke-width: 0.8"/>
      </g>
     </g>
    </g>
    <g id="xtick_16">
     <g id="line2d_20">
      <g>
       <use xlink:href="#m4cad3ac791" x="245.86699" y="195.365666" style="stroke: #000000; stroke-width: 0.8"/>
      </g>
     </g>
    </g>
    <g id="xtick_17">
     <g id="line2d_21">
      <g>
       <use xlink:href="#m4cad3ac791" x="277.364658" y="195.365666" style="stroke: #000000; stroke-width: 0.8"/>
      </g>
     </g>
    </g>
    <g id="xtick_18">
     <g id="line2d_22">
      <g>
       <use xlink:href="#m4cad3ac791" x="308.862327" y="195.365666" style="stroke: #000000; stroke-width: 0.8"/>
      </g>
     </g>
    </g>
   </g>
   <g id="matplotlib.axis_4">
    <g id="ytick_4">
     <g id="line2d_23">
      <g>
       <use xlink:href="#m367fbd8858" x="44.103906" y="191.305093" style="stroke: #000000; stroke-width: 0.8"/>
      </g>
     </g>
     <g id="text_5">
      <!-- 0 -->
      <g transform="translate(30.741406 195.103922) scale(0.1 -0.1)">
       <use xlink:href="#DejaVuSans-13"/>
      </g>
     </g>
    </g>
    <g id="ytick_5">
     <g id="line2d_24">
      <g>
       <use xlink:href="#m367fbd8858" x="44.103906" y="150.699369" style="stroke: #000000; stroke-width: 0.8"/>
      </g>
     </g>
     <g id="text_6">
      <!-- 5 -->
      <g transform="translate(30.741406 154.498197) scale(0.1 -0.1)">
       <use xlink:href="#DejaVuSans-18"/>
      </g>
     </g>
    </g>
    <g id="ytick_6">
     <g id="line2d_25">
      <g>
       <use xlink:href="#m367fbd8858" x="44.103906" y="110.093645" style="stroke: #000000; stroke-width: 0.8"/>
      </g>
     </g>
     <g id="text_7">
      <!-- 10 -->
      <g transform="translate(24.378906 113.892473) scale(0.1 -0.1)">
       <use xlink:href="#DejaVuSans-14"/>
       <use xlink:href="#DejaVuSans-13" transform="translate(63.625 0)"/>
      </g>
     </g>
    </g>
    <g id="text_8">
     <!-- LacY -->
     <g transform="translate(17.976563 162.352494) rotate(-90) scale(0.1 -0.1)">
      <defs>
       <path id="DejaVuSans-2f" d="M 628 4666 
L 1259 4666 
L 1259 531 
L 3531 531 
L 3531 0 
L 628 0 
L 628 4666 
z
" transform="scale(0.015625)"/>
       <path id="DejaVuSans-3c" d="M -13 4666 
L 666 4666 
L 1959 2747 
L 3244 4666 
L 3922 4666 
L 2272 2222 
L 2272 0 
L 1638 0 
L 1638 2222 
L -13 4666 
z
" transform="scale(0.015625)"/>
      </defs>
      <use xlink:href="#DejaVuSans-2f"/>
      <use xlink:href="#DejaVuSans-44" transform="translate(55.71875 0)"/>
      <use xlink:href="#DejaVuSans-46" transform="translate(117 0)"/>
      <use xlink:href="#DejaVuSans-3c" transform="translate(171.984375 0)"/>
     </g>
    </g>
   </g>
   <g id="line2d_26">
    <path d="M 56.88098 110.093645 
L 56.907754 110.093645 
L 57.038632 126.335935 
L 57.127856 142.578225 
L 57.277984 142.578225 
L 57.29545 134.45708 
L 57.513169 142.578225 
L 57.653188 142.578225 
L 57.821619 158.820514 
L 58.118605 175.062804 
L 58.18337 191.305093 
L 59.693454 191.305093 
L 59.857907 183.183949 
L 59.900093 191.305093 
L 64.857321 191.305093 
L 65.176076 183.183949 
L 65.284599 191.305093 
L 82.553158 191.305093 
L 82.745036 183.183949 
L 84.515021 191.305093 
L 84.529654 183.183949 
L 84.670997 175.062804 
L 84.675591 166.941659 
L 84.993562 175.062804 
L 85.217573 175.062804 
L 85.33565 191.305093 
L 85.39568 183.183949 
L 85.583432 183.183949 
L 85.720116 191.305093 
L 89.561715 191.305093 
L 89.946443 175.062804 
L 89.947728 166.941659 
L 90.439878 166.941659 
L 90.478044 183.183949 
L 91.240144 183.183949 
L 91.406871 175.062804 
L 91.746684 191.305093 
L 108.53067 191.305093 
L 108.634992 183.183949 
L 108.753143 183.183949 
L 108.890427 191.305093 
L 109.122373 191.305093 
L 109.163319 183.183949 
L 109.573872 183.183949 
L 109.919252 175.062804 
L 109.976841 183.183949 
L 110.149831 183.183949 
L 110.179026 191.305093 
L 118.824901 191.305093 
L 119.001012 183.183949 
L 121.074043 183.183949 
L 122.897573 191.305093 
L 130.56494 191.305093 
L 130.748794 183.183949 
L 131.03263 183.183949 
L 131.139011 191.305093 
L 135.418657 191.305093 
L 135.501303 183.183949 
L 135.522885 191.305093 
L 145.386152 191.305093 
L 145.643619 175.062804 
L 145.664181 183.183949 
L 145.692814 175.062804 
L 145.80446 166.941659 
L 145.809732 175.062804 
L 146.386904 175.062804 
L 146.996095 183.183949 
L 147.238252 183.183949 
L 147.549435 175.062804 
L 147.660858 175.062804 
L 148.718899 191.305093 
L 149.173116 191.305093 
L 149.224325 175.062804 
L 149.323895 175.062804 
L 149.47475 183.183949 
L 149.606739 183.183949 
L 150.142622 191.305093 
L 155.194853 191.305093 
L 155.617596 183.183949 
L 155.85478 150.699369 
L 156.134444 150.699369 
L 156.250716 166.941659 
L 156.283188 166.941659 
L 156.394413 158.820514 
L 156.520529 158.820514 
L 156.631621 175.062804 
L 156.851952 175.062804 
L 156.965008 183.183949 
L 157.112513 166.941659 
L 157.13905 166.941659 
L 157.176433 158.820514 
L 157.236815 166.941659 
L 157.409057 166.941659 
L 157.512334 175.062804 
L 157.747031 175.062804 
L 157.850269 191.305093 
L 157.893618 191.305093 
L 158.033772 175.062804 
L 158.19293 175.062804 
L 158.301162 166.941659 
L 158.317159 166.941659 
L 158.445047 158.820514 
L 158.876288 158.820514 
L 158.964102 150.699369 
L 159.029666 150.699369 
L 159.040417 142.578225 
L 159.110892 158.820514 
L 159.13573 158.820514 
L 159.312914 158.820514 
L 159.362749 150.699369 
L 159.41757 158.820514 
L 159.453088 158.820514 
L 159.559442 166.941659 
L 159.699295 166.941659 
L 159.749786 183.183949 
L 159.805625 166.941659 
L 159.975068 166.941659 
L 160.088589 175.062804 
L 160.161384 175.062804 
L 160.196193 166.941659 
L 160.258705 183.183949 
L 160.267742 183.183949 
L 160.333786 183.183949 
L 160.381026 191.305093 
L 160.621457 191.305093 
L 160.732158 183.183949 
L 161.266289 183.183949 
L 161.374274 175.062804 
L 161.426826 175.062804 
L 161.530283 183.183949 
L 161.57607 183.183949 
L 161.693 166.941659 
L 161.716184 166.941659 
L 161.839581 175.062804 
L 162.16773 175.062804 
L 162.273361 183.183949 
L 162.328106 183.183949 
L 162.38639 191.305093 
L 162.439156 183.183949 
L 162.5938 183.183949 
L 162.628366 175.062804 
L 162.86488 166.941659 
L 163.340124 166.941659 
L 163.453671 175.062804 
L 163.464313 175.062804 
L 163.577959 183.183949 
L 164.351385 183.183949 
L 164.376257 191.305093 
L 164.449028 183.183949 
L 165.016006 183.183949 
L 165.112732 175.062804 
L 165.386034 175.062804 
L 165.498238 166.941659 
L 165.611079 166.941659 
L 165.694271 175.062804 
L 165.90666 175.062804 
L 166.015785 183.183949 
L 166.023402 191.305093 
L 166.103575 183.183949 
L 166.570517 183.183949 
L 166.653718 175.062804 
L 166.790173 158.820514 
L 166.904482 166.941659 
L 167.38421 166.941659 
L 167.479857 150.699369 
L 167.530043 150.699369 
L 167.597409 134.45708 
L 167.635829 142.578225 
L 167.647389 142.578225 
L 167.754614 134.45708 
L 167.854015 134.45708 
L 167.952143 126.335935 
L 168.020754 126.335935 
L 168.136207 142.578225 
L 168.200231 142.578225 
L 168.216236 150.699369 
L 168.297457 142.578225 
L 168.328739 134.45708 
L 168.335798 150.699369 
L 168.399746 150.699369 
L 168.448519 150.699369 
L 168.557337 175.062804 
L 168.67916 175.062804 
L 168.795995 183.183949 
L 168.834241 183.183949 
L 168.944066 158.820514 
L 168.972432 158.820514 
L 169.09923 175.062804 
L 169.243618 175.062804 
L 169.346176 166.941659 
L 169.429157 166.941659 
L 169.519246 175.062804 
L 169.574195 175.062804 
L 169.61376 158.820514 
L 169.681546 166.941659 
L 169.713187 166.941659 
L 169.809364 175.062804 
L 169.811177 158.820514 
L 169.813297 158.820514 
L 169.830327 158.820514 
L 169.982554 166.941659 
L 170.035902 166.941659 
L 170.139781 158.820514 
L 170.1424 166.941659 
L 170.190266 166.941659 
L 170.311521 175.062804 
L 170.643075 175.062804 
L 170.799618 166.941659 
L 170.810968 166.941659 
L 170.915099 175.062804 
L 170.9602 175.062804 
L 171.059274 183.183949 
L 171.120536 183.183949 
L 171.243476 175.062804 
L 171.263298 175.062804 
L 171.292719 183.183949 
L 171.311194 175.062804 
L 171.43501 183.183949 
L 171.583898 175.062804 
L 171.64837 175.062804 
L 171.666287 166.941659 
L 171.753363 175.062804 
L 171.77018 183.183949 
L 171.847681 175.062804 
L 172.252418 175.062804 
L 172.365782 166.941659 
L 172.597148 166.941659 
L 172.684259 150.699369 
L 172.734376 158.820514 
L 172.975585 158.820514 
L 173.084296 175.062804 
L 173.129531 175.062804 
L 173.236104 166.941659 
L 173.33057 183.183949 
L 173.874354 183.183949 
L 174.030894 175.062804 
L 174.192971 175.062804 
L 174.263456 183.183949 
L 174.371454 183.183949 
L 174.472857 175.062804 
L 174.584232 175.062804 
L 174.600175 183.183949 
L 174.667865 175.062804 
L 174.800236 175.062804 
L 174.945333 191.305093 
L 175.161737 175.062804 
L 175.336616 175.062804 
L 175.450844 191.305093 
L 175.874703 191.305093 
L 175.996894 175.062804 
L 176.107555 166.941659 
L 176.171171 166.941659 
L 176.273507 175.062804 
L 176.390928 175.062804 
L 176.410183 183.183949 
L 176.502026 175.062804 
L 176.560049 175.062804 
L 176.561355 166.941659 
L 176.650332 175.062804 
L 176.768033 183.183949 
L 176.87526 166.941659 
L 177.163408 166.941659 
L 177.28624 158.820514 
L 177.399145 158.820514 
L 177.514028 150.699369 
L 177.595064 150.699369 
L 177.697712 142.578225 
L 177.820831 142.578225 
L 177.947852 158.820514 
L 178.064418 158.820514 
L 178.135504 166.941659 
L 178.158309 158.820514 
L 178.177016 158.820514 
L 178.290105 134.45708 
L 178.370347 134.45708 
L 178.525171 166.941659 
L 178.568451 166.941659 
L 178.697436 142.578225 
L 178.81713 150.699369 
L 179.344001 150.699369 
L 179.429054 142.578225 
L 179.584043 142.578225 
L 179.58542 150.699369 
L 179.689172 142.578225 
L 179.769674 142.578225 
L 179.895421 134.45708 
L 180.169207 134.45708 
L 180.287471 142.578225 
L 180.356165 142.578225 
L 180.446324 150.699369 
L 180.484905 150.699369 
L 180.588022 158.820514 
L 180.686853 142.578225 
L 180.694263 150.699369 
L 180.731256 150.699369 
L 180.775878 142.578225 
L 180.825873 150.699369 
L 180.984616 150.699369 
L 181.098139 134.45708 
L 181.216194 134.45708 
L 181.326531 150.699369 
L 181.506604 150.699369 
L 181.548163 166.941659 
L 181.599123 158.820514 
L 181.660222 158.820514 
L 181.753677 166.941659 
L 181.924743 166.941659 
L 181.999424 150.699369 
L 182.031917 166.941659 
L 182.123708 166.941659 
L 182.167816 183.183949 
L 182.257606 175.062804 
L 182.408585 175.062804 
L 182.518279 183.183949 
L 182.665134 183.183949 
L 182.758997 191.305093 
L 183.622565 191.305093 
L 183.740752 183.183949 
L 184.366037 183.183949 
L 184.545689 191.305093 
L 185.223941 191.305093 
L 185.391622 183.183949 
L 186.56344 183.183949 
L 186.688872 175.062804 
L 186.793339 183.183949 
L 187.031159 183.183949 
L 187.037114 191.305093 
L 187.124772 183.183949 
L 187.300531 175.062804 
L 187.546808 175.062804 
L 187.672213 166.941659 
L 187.757424 175.062804 
L 187.763663 166.941659 
L 187.869739 166.941659 
L 187.893653 175.062804 
L 188.074915 183.183949 
L 188.245528 142.578225 
L 188.287428 150.699369 
L 188.344889 134.45708 
L 188.347066 134.45708 
L 188.474142 126.335935 
L 188.534984 126.335935 
L 188.776143 142.578225 
L 188.851924 142.578225 
L 188.988784 166.941659 
L 189.110233 166.941659 
L 189.260931 175.062804 
L 189.267286 166.941659 
L 189.48763 166.941659 
L 189.621514 175.062804 
L 189.820878 175.062804 
L 189.842785 183.183949 
L 189.926395 175.062804 
L 189.971753 175.062804 
L 190.055987 183.183949 
L 190.154617 175.062804 
L 190.244121 175.062804 
L 190.287279 166.941659 
L 190.397441 166.941659 
L 190.52401 183.183949 
L 190.525106 175.062804 
L 190.611902 175.062804 
L 190.651138 183.183949 
L 190.672689 175.062804 
L 190.911159 175.062804 
L 191.015191 183.183949 
L 191.090754 183.183949 
L 191.104115 166.941659 
L 191.371649 166.941659 
L 191.439766 158.820514 
L 191.584945 158.820514 
L 191.642384 142.578225 
L 191.806132 142.578225 
L 191.846337 150.699369 
L 191.91509 142.578225 
L 191.975073 142.578225 
L 192.083541 158.820514 
L 192.234374 175.062804 
L 192.303145 175.062804 
L 192.346486 166.941659 
L 192.432276 175.062804 
L 192.64504 175.062804 
L 192.848852 166.941659 
L 192.900718 166.941659 
L 192.983148 175.062804 
L 193.043596 166.941659 
L 193.328676 158.820514 
L 193.382787 158.820514 
L 193.438013 142.578225 
L 193.468528 150.699369 
L 193.601408 150.699369 
L 193.731873 166.941659 
L 193.852895 150.699369 
L 193.873869 158.820514 
L 193.950953 158.820514 
L 194.048496 166.941659 
L 194.220303 166.941659 
L 194.238649 175.062804 
L 194.283326 166.941659 
L 194.340163 166.941659 
L 194.456452 175.062804 
L 194.555633 175.062804 
L 194.711983 183.183949 
L 194.845415 175.062804 
L 195.034895 175.062804 
L 195.151356 183.183949 
L 195.257238 183.183949 
L 195.324896 175.062804 
L 195.469857 158.820514 
L 195.498392 166.941659 
L 195.657352 183.183949 
L 196.197878 183.183949 
L 196.362264 175.062804 
L 196.53102 175.062804 
L 196.621468 183.183949 
L 196.764996 183.183949 
L 196.787502 191.305093 
L 196.814266 183.183949 
L 196.893175 183.183949 
L 197.056445 175.062804 
L 197.214421 175.062804 
L 197.334342 166.941659 
L 197.503039 175.062804 
L 197.548861 183.183949 
L 198.380021 183.183949 
L 198.663818 175.062804 
L 198.946145 175.062804 
L 199.142472 191.305093 
L 199.1812 183.183949 
L 200.535963 183.183949 
L 200.619434 191.305093 
L 200.951124 183.183949 
L 201.16648 183.183949 
L 201.354358 175.062804 
L 201.395499 183.183949 
L 201.606186 191.305093 
L 201.718056 191.305093 
L 201.722737 183.183949 
L 201.797784 191.305093 
L 201.939475 183.183949 
L 201.994646 175.062804 
L 202.124108 175.062804 
L 202.27888 183.183949 
L 202.490967 175.062804 
L 202.51587 183.183949 
L 202.699323 183.183949 
L 202.743669 175.062804 
L 203.018421 175.062804 
L 203.046817 183.183949 
L 203.542296 175.062804 
L 204.103934 175.062804 
L 204.204189 191.305093 
L 204.290751 191.305093 
L 204.350602 183.183949 
L 204.657241 175.062804 
L 204.773428 175.062804 
L 205.289438 166.941659 
L 205.458848 158.820514 
L 205.613157 175.062804 
L 205.713551 183.183949 
L 205.868652 175.062804 
L 206.256485 175.062804 
L 206.338548 183.183949 
L 206.343883 175.062804 
L 206.450123 166.941659 
L 206.66075 175.062804 
L 206.761994 166.941659 
L 207.131892 166.941659 
L 207.243298 183.183949 
L 207.278626 175.062804 
L 207.456147 166.941659 
L 207.78365 166.941659 
L 208.022 183.183949 
L 208.712434 183.183949 
L 208.806218 175.062804 
L 208.990474 175.062804 
L 209.261829 166.941659 
L 209.412238 166.941659 
L 209.487072 158.820514 
L 209.49234 166.941659 
L 209.579992 166.941659 
L 209.582319 175.062804 
L 209.778147 166.941659 
L 209.938632 166.941659 
L 210.033351 175.062804 
L 210.380226 175.062804 
L 210.3809 183.183949 
L 210.5482 191.305093 
L 210.6434 183.183949 
L 210.809731 183.183949 
L 210.941679 175.062804 
L 211.000677 183.183949 
L 211.051103 175.062804 
L 211.233772 175.062804 
L 211.423021 166.941659 
L 211.5036 166.941659 
L 211.60426 191.305093 
L 211.98731 183.183949 
L 212.10955 183.183949 
L 212.274047 175.062804 
L 212.377492 158.820514 
L 212.405035 166.941659 
L 212.472416 166.941659 
L 212.52284 158.820514 
L 212.744155 175.062804 
L 212.850138 175.062804 
L 212.938359 183.183949 
L 213.390076 183.183949 
L 213.989934 191.305093 
L 218.938894 191.305093 
L 219.004775 183.183949 
L 219.232648 183.183949 
L 219.396716 191.305093 
L 219.843934 166.941659 
L 219.978739 175.062804 
L 220.074528 175.062804 
L 220.177093 183.183949 
L 220.394723 183.183949 
L 221.003787 191.305093 
L 221.304342 183.183949 
L 221.405752 175.062804 
L 221.557479 191.305093 
L 221.817418 191.305093 
L 221.989994 183.183949 
L 222.111093 183.183949 
L 222.180496 191.305093 
L 222.673886 183.183949 
L 222.688345 183.183949 
L 222.743252 175.062804 
L 222.775075 183.183949 
L 222.941393 183.183949 
L 223.05162 175.062804 
L 223.208255 183.183949 
L 223.550143 183.183949 
L 223.703292 175.062804 
L 223.843844 183.183949 
L 224.005879 158.820514 
L 224.237004 158.820514 
L 224.328935 150.699369 
L 224.45703 166.941659 
L 224.676872 175.062804 
L 224.749659 166.941659 
L 224.968414 166.941659 
L 225.036984 158.820514 
L 225.213353 150.699369 
L 225.287345 175.062804 
L 225.322403 166.941659 
L 225.55841 175.062804 
L 225.786324 158.820514 
L 225.983306 175.062804 
L 226.146233 166.941659 
L 226.149135 158.820514 
L 226.361838 158.820514 
L 226.501108 166.941659 
L 226.623487 166.941659 
L 226.632252 175.062804 
L 226.884549 183.183949 
L 227.120302 183.183949 
L 227.304337 191.305093 
L 228.151166 191.305093 
L 228.352746 183.183949 
L 228.554625 175.062804 
L 228.579055 183.183949 
L 228.784555 191.305093 
L 228.993766 191.305093 
L 229.362351 183.183949 
L 229.524673 166.941659 
L 229.623184 158.820514 
L 229.624035 166.941659 
L 229.652568 166.941659 
L 229.711077 175.062804 
L 229.894785 175.062804 
L 229.902451 183.183949 
L 230.117759 191.305093 
L 249.099979 191.305093 
L 249.264243 183.183949 
L 249.677788 183.183949 
L 250.202466 191.305093 
L 252.512111 191.305093 
L 252.574677 183.183949 
L 252.752245 175.062804 
L 252.760091 183.183949 
L 252.927733 183.183949 
L 253.101844 191.305093 
L 258.393596 191.305093 
L 258.553924 183.183949 
L 258.766712 183.183949 
L 258.830629 191.305093 
L 260.333435 191.305093 
L 260.596864 183.183949 
L 260.709655 183.183949 
L 260.813943 175.062804 
L 261.345871 175.062804 
L 261.568406 183.183949 
L 261.698016 191.305093 
L 263.523395 191.305093 
L 263.812284 175.062804 
L 263.910566 183.183949 
L 264.212838 158.820514 
L 264.275492 166.941659 
L 264.506154 175.062804 
L 264.614222 166.941659 
L 264.904622 183.183949 
L 265.10481 183.183949 
L 265.20815 191.305093 
L 272.857205 191.305093 
L 272.901525 183.183949 
L 273.128038 175.062804 
L 273.300724 183.183949 
L 273.681061 183.183949 
L 273.883883 166.941659 
L 273.996331 191.305093 
L 275.049471 191.305093 
L 275.269146 183.183949 
L 275.433612 191.305093 
L 284.0066 191.305093 
L 284.527847 183.183949 
L 284.675889 166.941659 
L 284.70801 166.941659 
L 284.806812 175.062804 
L 285.211023 183.183949 
L 285.980332 183.183949 
L 286.650783 191.305093 
L 301.321918 191.305093 
L 301.514941 175.062804 
L 301.65569 183.183949 
L 301.913805 183.183949 
L 302.081491 191.305093 
L 312.422447 191.305093 
L 312.422447 191.305093 
" clip-path="url(#p2efeaf46a9)" style="fill: none; stroke: #000000; stroke-width: 1.5; stroke-linecap: square"/>
   </g>
   <g id="patch_8">
    <path d="M 44.103906 195.365666 
L 44.103906 106.033073 
" style="fill: none; stroke: #000000; stroke-width: 0.8; stroke-linejoin: miter; stroke-linecap: square"/>
   </g>
   <g id="patch_9">
    <path d="M 325.19952 195.365666 
L 325.19952 106.033073 
" style="fill: none; stroke: #000000; stroke-width: 0.8; stroke-linejoin: miter; stroke-linecap: square"/>
   </g>
   <g id="patch_10">
    <path d="M 44.103906 195.365666 
L 325.19952 195.365666 
" style="fill: none; stroke: #000000; stroke-width: 0.8; stroke-linejoin: miter; stroke-linecap: square"/>
   </g>
   <g id="patch_11">
    <path d="M 44.103906 106.033073 
L 325.19952 106.033073 
" style="fill: none; stroke: #000000; stroke-width: 0.8; stroke-linejoin: miter; stroke-linecap: square"/>
   </g>
  </g>
  <g id="axes_3">
   <g id="patch_12">
    <path d="M 44.103906 294.198739 
L 325.19952 294.198739 
L 325.19952 204.866146 
L 44.103906 204.866146 
z
" style="fill: #ffffff"/>
   </g>
   <g id="matplotlib.axis_5">
    <g id="xtick_19">
     <g id="line2d_27">
      <g>
       <use xlink:href="#m4cad3ac791" x="56.88098" y="294.198739" style="stroke: #000000; stroke-width: 0.8"/>
      </g>
     </g>
     <g id="text_9">
      <!-- 0 -->
      <g transform="translate(53.69973 308.796395) scale(0.1 -0.1)">
       <use xlink:href="#DejaVuSans-13"/>
      </g>
     </g>
    </g>
    <g id="xtick_20">
     <g id="line2d_28">
      <g>
       <use xlink:href="#m4cad3ac791" x="88.378648" y="294.198739" style="stroke: #000000; stroke-width: 0.8"/>
      </g>
     </g>
     <g id="text_10">
      <!-- 100 -->
      <g transform="translate(78.834898 308.796395) scale(0.1 -0.1)">
       <use xlink:href="#DejaVuSans-14"/>
       <use xlink:href="#DejaVuSans-13" transform="translate(63.625 0)"/>
       <use xlink:href="#DejaVuSans-13" transform="translate(127.25 0)"/>
      </g>
     </g>
    </g>
    <g id="xtick_21">
     <g id="line2d_29">
      <g>
       <use xlink:href="#m4cad3ac791" x="119.876316" y="294.198739" style="stroke: #000000; stroke-width: 0.8"/>
      </g>
     </g>
     <g id="text_11">
      <!-- 200 -->
      <g transform="translate(110.332566 308.796395) scale(0.1 -0.1)">
       <defs>
        <path id="DejaVuSans-15" d="M 1228 531 
L 3431 531 
L 3431 0 
L 469 0 
L 469 531 
Q 828 903 1448 1529 
Q 2069 2156 2228 2338 
Q 2531 2678 2651 2914 
Q 2772 3150 2772 3378 
Q 2772 3750 2511 3984 
Q 2250 4219 1831 4219 
Q 1534 4219 1204 4116 
Q 875 4013 500 3803 
L 500 4441 
Q 881 4594 1212 4672 
Q 1544 4750 1819 4750 
Q 2544 4750 2975 4387 
Q 3406 4025 3406 3419 
Q 3406 3131 3298 2873 
Q 3191 2616 2906 2266 
Q 2828 2175 2409 1742 
Q 1991 1309 1228 531 
z
" transform="scale(0.015625)"/>
       </defs>
       <use xlink:href="#DejaVuSans-15"/>
       <use xlink:href="#DejaVuSans-13" transform="translate(63.625 0)"/>
       <use xlink:href="#DejaVuSans-13" transform="translate(127.25 0)"/>
      </g>
     </g>
    </g>
    <g id="xtick_22">
     <g id="line2d_30">
      <g>
       <use xlink:href="#m4cad3ac791" x="151.373985" y="294.198739" style="stroke: #000000; stroke-width: 0.8"/>
      </g>
     </g>
     <g id="text_12">
      <!-- 300 -->
      <g transform="translate(141.830235 308.796395) scale(0.1 -0.1)">
       <defs>
        <path id="DejaVuSans-16" d="M 2597 2516 
Q 3050 2419 3304 2112 
Q 3559 1806 3559 1356 
Q 3559 666 3084 287 
Q 2609 -91 1734 -91 
Q 1441 -91 1130 -33 
Q 819 25 488 141 
L 488 750 
Q 750 597 1062 519 
Q 1375 441 1716 441 
Q 2309 441 2620 675 
Q 2931 909 2931 1356 
Q 2931 1769 2642 2001 
Q 2353 2234 1838 2234 
L 1294 2234 
L 1294 2753 
L 1863 2753 
Q 2328 2753 2575 2939 
Q 2822 3125 2822 3475 
Q 2822 3834 2567 4026 
Q 2313 4219 1838 4219 
Q 1578 4219 1281 4162 
Q 984 4106 628 3988 
L 628 4550 
Q 988 4650 1302 4700 
Q 1616 4750 1894 4750 
Q 2613 4750 3031 4423 
Q 3450 4097 3450 3541 
Q 3450 3153 3228 2886 
Q 3006 2619 2597 2516 
z
" transform="scale(0.015625)"/>
       </defs>
       <use xlink:href="#DejaVuSans-16"/>
       <use xlink:href="#DejaVuSans-13" transform="translate(63.625 0)"/>
       <use xlink:href="#DejaVuSans-13" transform="translate(127.25 0)"/>
      </g>
     </g>
    </g>
    <g id="xtick_23">
     <g id="line2d_31">
      <g>
       <use xlink:href="#m4cad3ac791" x="182.871653" y="294.198739" style="stroke: #000000; stroke-width: 0.8"/>
      </g>
     </g>
     <g id="text_13">
      <!-- 400 -->
      <g transform="translate(173.327903 308.796395) scale(0.1 -0.1)">
       <defs>
        <path id="DejaVuSans-17" d="M 2419 4116 
L 825 1625 
L 2419 1625 
L 2419 4116 
z
M 2253 4666 
L 3047 4666 
L 3047 1625 
L 3713 1625 
L 3713 1100 
L 3047 1100 
L 3047 0 
L 2419 0 
L 2419 1100 
L 313 1100 
L 313 1709 
L 2253 4666 
z
" transform="scale(0.015625)"/>
       </defs>
       <use xlink:href="#DejaVuSans-17"/>
       <use xlink:href="#DejaVuSans-13" transform="translate(63.625 0)"/>
       <use xlink:href="#DejaVuSans-13" transform="translate(127.25 0)"/>
      </g>
     </g>
    </g>
    <g id="xtick_24">
     <g id="line2d_32">
      <g>
       <use xlink:href="#m4cad3ac791" x="214.369322" y="294.198739" style="stroke: #000000; stroke-width: 0.8"/>
      </g>
     </g>
     <g id="text_14">
      <!-- 500 -->
      <g transform="translate(204.825572 308.796395) scale(0.1 -0.1)">
       <use xlink:href="#DejaVuSans-18"/>
       <use xlink:href="#DejaVuSans-13" transform="translate(63.625 0)"/>
       <use xlink:href="#DejaVuSans-13" transform="translate(127.25 0)"/>
      </g>
     </g>
    </g>
    <g id="xtick_25">
     <g id="line2d_33">
      <g>
       <use xlink:href="#m4cad3ac791" x="245.86699" y="294.198739" style="stroke: #000000; stroke-width: 0.8"/>
      </g>
     </g>
     <g id="text_15">
      <!-- 600 -->
      <g transform="translate(236.32324 308.796395) scale(0.1 -0.1)">
       <defs>
        <path id="DejaVuSans-19" d="M 2113 2584 
Q 1688 2584 1439 2293 
Q 1191 2003 1191 1497 
Q 1191 994 1439 701 
Q 1688 409 2113 409 
Q 2538 409 2786 701 
Q 3034 994 3034 1497 
Q 3034 2003 2786 2293 
Q 2538 2584 2113 2584 
z
M 3366 4563 
L 3366 3988 
Q 3128 4100 2886 4159 
Q 2644 4219 2406 4219 
Q 1781 4219 1451 3797 
Q 1122 3375 1075 2522 
Q 1259 2794 1537 2939 
Q 1816 3084 2150 3084 
Q 2853 3084 3261 2657 
Q 3669 2231 3669 1497 
Q 3669 778 3244 343 
Q 2819 -91 2113 -91 
Q 1303 -91 875 529 
Q 447 1150 447 2328 
Q 447 3434 972 4092 
Q 1497 4750 2381 4750 
Q 2619 4750 2861 4703 
Q 3103 4656 3366 4563 
z
" transform="scale(0.015625)"/>
       </defs>
       <use xlink:href="#DejaVuSans-19"/>
       <use xlink:href="#DejaVuSans-13" transform="translate(63.625 0)"/>
       <use xlink:href="#DejaVuSans-13" transform="translate(127.25 0)"/>
      </g>
     </g>
    </g>
    <g id="xtick_26">
     <g id="line2d_34">
      <g>
       <use xlink:href="#m4cad3ac791" x="277.364658" y="294.198739" style="stroke: #000000; stroke-width: 0.8"/>
      </g>
     </g>
     <g id="text_16">
      <!-- 700 -->
      <g transform="translate(267.820908 308.796395) scale(0.1 -0.1)">
       <defs>
        <path id="DejaVuSans-1a" d="M 525 4666 
L 3525 4666 
L 3525 4397 
L 1831 0 
L 1172 0 
L 2766 4134 
L 525 4134 
L 525 4666 
z
" transform="scale(0.015625)"/>
       </defs>
       <use xlink:href="#DejaVuSans-1a"/>
       <use xlink:href="#DejaVuSans-13" transform="translate(63.625 0)"/>
       <use xlink:href="#DejaVuSans-13" transform="translate(127.25 0)"/>
      </g>
     </g>
    </g>
    <g id="xtick_27">
     <g id="line2d_35">
      <g>
       <use xlink:href="#m4cad3ac791" x="308.862327" y="294.198739" style="stroke: #000000; stroke-width: 0.8"/>
      </g>
     </g>
     <g id="text_17">
      <!-- 800 -->
      <g transform="translate(299.318577 308.796395) scale(0.1 -0.1)">
       <defs>
        <path id="DejaVuSans-1b" d="M 2034 2216 
Q 1584 2216 1326 1975 
Q 1069 1734 1069 1313 
Q 1069 891 1326 650 
Q 1584 409 2034 409 
Q 2484 409 2743 651 
Q 3003 894 3003 1313 
Q 3003 1734 2745 1975 
Q 2488 2216 2034 2216 
z
M 1403 2484 
Q 997 2584 770 2862 
Q 544 3141 544 3541 
Q 544 4100 942 4425 
Q 1341 4750 2034 4750 
Q 2731 4750 3128 4425 
Q 3525 4100 3525 3541 
Q 3525 3141 3298 2862 
Q 3072 2584 2669 2484 
Q 3125 2378 3379 2068 
Q 3634 1759 3634 1313 
Q 3634 634 3220 271 
Q 2806 -91 2034 -91 
Q 1263 -91 848 271 
Q 434 634 434 1313 
Q 434 1759 690 2068 
Q 947 2378 1403 2484 
z
M 1172 3481 
Q 1172 3119 1398 2916 
Q 1625 2713 2034 2713 
Q 2441 2713 2670 2916 
Q 2900 3119 2900 3481 
Q 2900 3844 2670 4047 
Q 2441 4250 2034 4250 
Q 1625 4250 1398 4047 
Q 1172 3844 1172 3481 
z
" transform="scale(0.015625)"/>
       </defs>
       <use xlink:href="#DejaVuSans-1b"/>
       <use xlink:href="#DejaVuSans-13" transform="translate(63.625 0)"/>
       <use xlink:href="#DejaVuSans-13" transform="translate(127.25 0)"/>
      </g>
     </g>
    </g>
    <g id="text_18">
     <!-- Time -->
     <g transform="translate(172.415776 322.797176) scale(0.1 -0.1)">
      <defs>
       <path id="DejaVuSans-37" d="M -19 4666 
L 3928 4666 
L 3928 4134 
L 2272 4134 
L 2272 0 
L 1638 0 
L 1638 4134 
L -19 4134 
L -19 4666 
z
" transform="scale(0.015625)"/>
       <path id="DejaVuSans-4c" d="M 603 3500 
L 1178 3500 
L 1178 0 
L 603 0 
L 603 3500 
z
M 603 4863 
L 1178 4863 
L 1178 4134 
L 603 4134 
L 603 4863 
z
" transform="scale(0.015625)"/>
       <path id="DejaVuSans-50" d="M 3328 2828 
Q 3544 3216 3844 3400 
Q 4144 3584 4550 3584 
Q 5097 3584 5394 3201 
Q 5691 2819 5691 2113 
L 5691 0 
L 5113 0 
L 5113 2094 
Q 5113 2597 4934 2840 
Q 4756 3084 4391 3084 
Q 3944 3084 3684 2787 
Q 3425 2491 3425 1978 
L 3425 0 
L 2847 0 
L 2847 2094 
Q 2847 2600 2669 2842 
Q 2491 3084 2119 3084 
Q 1678 3084 1418 2786 
Q 1159 2488 1159 1978 
L 1159 0 
L 581 0 
L 581 3500 
L 1159 3500 
L 1159 2956 
Q 1356 3278 1631 3431 
Q 1906 3584 2284 3584 
Q 2666 3584 2933 3390 
Q 3200 3197 3328 2828 
z
" transform="scale(0.015625)"/>
      </defs>
      <use xlink:href="#DejaVuSans-37"/>
      <use xlink:href="#DejaVuSans-4c" transform="translate(58 0)"/>
      <use xlink:href="#DejaVuSans-50" transform="translate(85.78125 0)"/>
      <use xlink:href="#DejaVuSans-48" transform="translate(183.1875 0)"/>
     </g>
    </g>
   </g>
   <g id="matplotlib.axis_6">
    <g id="ytick_7">
     <g id="line2d_36">
      <g>
       <use xlink:href="#m367fbd8858" x="44.103906" y="290.138166" style="stroke: #000000; stroke-width: 0.8"/>
      </g>
     </g>
     <g id="text_19">
      <!-- 0.0 -->
      <g transform="translate(21.200781 293.936994) scale(0.1 -0.1)">
       <defs>
        <path id="DejaVuSans-11" d="M 684 794 
L 1344 794 
L 1344 0 
L 684 0 
L 684 794 
z
" transform="scale(0.015625)"/>
       </defs>
       <use xlink:href="#DejaVuSans-13"/>
       <use xlink:href="#DejaVuSans-11" transform="translate(63.625 0)"/>
       <use xlink:href="#DejaVuSans-13" transform="translate(95.40625 0)"/>
      </g>
     </g>
    </g>
    <g id="ytick_8">
     <g id="line2d_37">
      <g>
       <use xlink:href="#m367fbd8858" x="44.103906" y="249.532442" style="stroke: #000000; stroke-width: 0.8"/>
      </g>
     </g>
     <g id="text_20">
      <!-- 0.5 -->
      <g transform="translate(21.200781 253.33127) scale(0.1 -0.1)">
       <use xlink:href="#DejaVuSans-13"/>
       <use xlink:href="#DejaVuSans-11" transform="translate(63.625 0)"/>
       <use xlink:href="#DejaVuSans-18" transform="translate(95.40625 0)"/>
      </g>
     </g>
    </g>
    <g id="ytick_9">
     <g id="line2d_38">
      <g>
       <use xlink:href="#m367fbd8858" x="44.103906" y="208.926718" style="stroke: #000000; stroke-width: 0.8"/>
      </g>
     </g>
     <g id="text_21">
      <!-- 1.0 -->
      <g transform="translate(21.200781 212.725546) scale(0.1 -0.1)">
       <use xlink:href="#DejaVuSans-14"/>
       <use xlink:href="#DejaVuSans-11" transform="translate(63.625 0)"/>
       <use xlink:href="#DejaVuSans-13" transform="translate(95.40625 0)"/>
      </g>
     </g>
    </g>
    <g id="text_22">
     <!-- Free lac operon -->
     <g transform="translate(14.798438 288.006661) rotate(-90) scale(0.1 -0.1)">
      <defs>
       <path id="DejaVuSans-29" d="M 628 4666 
L 3309 4666 
L 3309 4134 
L 1259 4134 
L 1259 2759 
L 3109 2759 
L 3109 2228 
L 1259 2228 
L 1259 0 
L 628 0 
L 628 4666 
z
" transform="scale(0.015625)"/>
       <path id="DejaVuSans-53" d="M 1159 525 
L 1159 -1331 
L 581 -1331 
L 581 3500 
L 1159 3500 
L 1159 2969 
Q 1341 3281 1617 3432 
Q 1894 3584 2278 3584 
Q 2916 3584 3314 3078 
Q 3713 2572 3713 1747 
Q 3713 922 3314 415 
Q 2916 -91 2278 -91 
Q 1894 -91 1617 61 
Q 1341 213 1159 525 
z
M 3116 1747 
Q 3116 2381 2855 2742 
Q 2594 3103 2138 3103 
Q 1681 3103 1420 2742 
Q 1159 2381 1159 1747 
Q 1159 1113 1420 752 
Q 1681 391 2138 391 
Q 2594 391 2855 752 
Q 3116 1113 3116 1747 
z
" transform="scale(0.015625)"/>
       <path id="DejaVuSans-51" d="M 3513 2113 
L 3513 0 
L 2938 0 
L 2938 2094 
Q 2938 2591 2744 2837 
Q 2550 3084 2163 3084 
Q 1697 3084 1428 2787 
Q 1159 2491 1159 1978 
L 1159 0 
L 581 0 
L 581 3500 
L 1159 3500 
L 1159 2956 
Q 1366 3272 1645 3428 
Q 1925 3584 2291 3584 
Q 2894 3584 3203 3211 
Q 3513 2838 3513 2113 
z
" transform="scale(0.015625)"/>
      </defs>
      <use xlink:href="#DejaVuSans-29"/>
      <use xlink:href="#DejaVuSans-55" transform="translate(50.234375 0)"/>
      <use xlink:href="#DejaVuSans-48" transform="translate(89.140625 0)"/>
      <use xlink:href="#DejaVuSans-48" transform="translate(150.671875 0)"/>
      <use xlink:href="#DejaVuSans-3" transform="translate(212.203125 0)"/>
      <use xlink:href="#DejaVuSans-4f" transform="translate(243.984375 0)"/>
      <use xlink:href="#DejaVuSans-44" transform="translate(271.765625 0)"/>
      <use xlink:href="#DejaVuSans-46" transform="translate(333.046875 0)"/>
      <use xlink:href="#DejaVuSans-3" transform="translate(388.03125 0)"/>
      <use xlink:href="#DejaVuSans-52" transform="translate(419.8125 0)"/>
      <use xlink:href="#DejaVuSans-53" transform="translate(481 0)"/>
      <use xlink:href="#DejaVuSans-48" transform="translate(544.484375 0)"/>
      <use xlink:href="#DejaVuSans-55" transform="translate(606.015625 0)"/>
      <use xlink:href="#DejaVuSans-52" transform="translate(644.921875 0)"/>
      <use xlink:href="#DejaVuSans-51" transform="translate(706.109375 0)"/>
     </g>
    </g>
   </g>
   <g id="line2d_39">
    <path d="M 56.88098 208.926718 
L 56.96154 290.138166 
L 57.127856 290.138166 
L 57.29545 208.926718 
L 57.412233 208.926718 
L 57.513169 290.138166 
L 58.715202 290.138166 
L 59.693454 208.926718 
L 59.877615 208.926718 
L 59.900093 290.138166 
L 62.293184 290.138166 
L 64.857321 208.926718 
L 65.148764 208.926718 
L 65.284599 290.138166 
L 65.408997 290.138166 
L 71.993405 208.926718 
L 72.161206 290.138166 
L 79.908989 208.926718 
L 79.957452 290.138166 
L 82.553158 208.926718 
L 82.691508 208.926718 
L 82.745036 290.138166 
L 84.464987 290.138166 
L 84.529654 208.926718 
L 85.39568 208.926718 
L 85.583432 290.138166 
L 86.604173 290.138166 
L 89.561715 208.926718 
L 90.095393 208.926718 
L 90.124329 290.138166 
L 90.478044 290.138166 
L 91.349109 208.926718 
L 91.406871 290.138166 
L 91.746684 290.138166 
L 108.621451 208.926718 
L 108.634992 290.138166 
L 108.890427 290.138166 
L 109.163319 208.926718 
L 109.447304 290.138166 
L 109.573872 208.926718 
L 109.976841 208.926718 
L 110.179026 290.138166 
L 110.468235 290.138166 
L 114.581567 208.926718 
L 115.234443 290.138166 
L 116.857215 208.926718 
L 117.168748 290.138166 
L 117.833282 208.926718 
L 117.919582 290.138166 
L 118.917098 208.926718 
L 119.001012 290.138166 
L 122.897573 290.138166 
L 128.845789 208.926718 
L 128.950493 290.138166 
L 130.672319 208.926718 
L 131.117822 208.926718 
L 131.139011 290.138166 
L 132.957705 290.138166 
L 135.522885 208.926718 
L 135.536036 290.138166 
L 138.383283 208.926718 
L 138.425513 290.138166 
L 145.386152 208.926718 
L 146.319393 208.926718 
L 146.386904 290.138166 
L 146.996095 290.138166 
L 147.238252 208.926718 
L 147.549435 208.926718 
L 147.660858 290.138166 
L 148.718899 290.138166 
L 149.224325 208.926718 
L 149.323895 290.138166 
L 150.431829 290.138166 
L 150.443017 208.926718 
L 150.602657 290.138166 
L 154.860573 208.926718 
L 154.948462 290.138166 
L 155.194853 208.926718 
L 207.869159 208.926718 
L 207.917591 290.138166 
L 208.022 290.138166 
L 208.712434 208.926718 
L 212.717 208.926718 
L 212.850138 290.138166 
L 215.433033 290.138166 
L 218.66584 208.926718 
L 218.743505 290.138166 
L 219.004775 208.926718 
L 226.354874 208.926718 
L 226.361838 290.138166 
L 227.304337 290.138166 
L 228.253444 208.926718 
L 229.711077 208.926718 
L 229.902451 290.138166 
L 242.02082 290.138166 
L 249.099979 208.926718 
L 249.219992 208.926718 
L 249.264243 290.138166 
L 250.202466 290.138166 
L 252.574677 208.926718 
L 252.760091 208.926718 
L 252.927733 290.138166 
L 253.343807 290.138166 
L 256.138637 208.926718 
L 256.217722 290.138166 
L 258.484933 208.926718 
L 258.553924 208.926718 
L 258.830629 290.138166 
L 259.267047 208.926718 
L 259.580411 290.138166 
L 260.333435 208.926718 
L 260.721052 208.926718 
L 260.813943 290.138166 
L 261.820772 290.138166 
L 263.523395 208.926718 
L 264.722652 208.926718 
L 264.786215 290.138166 
L 265.20815 290.138166 
L 272.363505 208.926718 
L 272.796869 290.138166 
L 272.901525 208.926718 
L 273.255006 208.926718 
L 273.300724 290.138166 
L 273.732179 208.926718 
L 273.86722 208.926718 
L 273.919349 290.138166 
L 274.183969 290.138166 
L 274.191857 208.926718 
L 274.243743 290.138166 
L 274.643365 290.138166 
L 275.049471 208.926718 
L 275.339519 208.926718 
L 275.433612 290.138166 
L 277.079963 208.926718 
L 277.162392 290.138166 
L 284.0066 208.926718 
L 284.675889 208.926718 
L 284.806812 290.138166 
L 286.650783 290.138166 
L 292.220416 208.926718 
L 292.783984 290.138166 
L 301.321918 208.926718 
L 301.592159 208.926718 
L 301.65569 290.138166 
L 302.012605 290.138166 
L 302.081491 208.926718 
L 302.183923 290.138166 
L 302.480824 290.138166 
L 312.422447 208.926718 
L 312.422447 208.926718 
" clip-path="url(#pdd5a6dfe1e)" style="fill: none; stroke: #000000; stroke-width: 1.5; stroke-linecap: square"/>
   </g>
   <g id="patch_13">
    <path d="M 44.103906 294.198739 
L 44.103906 204.866146 
" style="fill: none; stroke: #000000; stroke-width: 0.8; stroke-linejoin: miter; stroke-linecap: square"/>
   </g>
   <g id="patch_14">
    <path d="M 325.19952 294.198739 
L 325.19952 204.866146 
" style="fill: none; stroke: #000000; stroke-width: 0.8; stroke-linejoin: miter; stroke-linecap: square"/>
   </g>
   <g id="patch_15">
    <path d="M 44.103906 294.198739 
L 325.19952 294.198739 
" style="fill: none; stroke: #000000; stroke-width: 0.8; stroke-linejoin: miter; stroke-linecap: square"/>
   </g>
   <g id="patch_16">
    <path d="M 44.103906 204.866146 
L 325.19952 204.866146 
" style="fill: none; stroke: #000000; stroke-width: 0.8; stroke-linejoin: miter; stroke-linecap: square"/>
   </g>
  </g>
 </g>
 <defs>
  <clipPath id="p964df8f93f">
   <rect x="44.103906" y="7.2" width="281.095614" height="89.332593"/>
  </clipPath>
  <clipPath id="p2efeaf46a9">
   <rect x="44.103906" y="106.033073" width="281.095614" height="89.332593"/>
  </clipPath>
  <clipPath id="pdd5a6dfe1e">
   <rect x="44.103906" y="204.866146" width="281.095614" height="89.332593"/>
  </clipPath>
 </defs>
</svg>
