<?xml version="1.0" encoding="utf-8" standalone="no"?>
<!DOCTYPE svg PUBLIC "-//W3C//DTD SVG 1.1//EN"
  "http://www.w3.org/Graphics/SVG/1.1/DTD/svg11.dtd">
<svg xmlns:xlink="http://www.w3.org/1999/xlink" width="332.39952pt" height="338.705099pt" viewBox="0 0 332.39952 338.705099" xmlns="http://www.w3.org/2000/svg" version="1.1">
 <metadata>
  <rdf:RDF xmlns:dc="http://purl.org/dc/elements/1.1/" xmlns:cc="http://creativecommons.org/ns#" xmlns:rdf="http://www.w3.org/1999/02/22-rdf-syntax-ns#">
   <cc:Work>
    <dc:type rdf:resource="http://purl.org/dc/dcmitype/StillImage"/>
    <dc:date>2026-07-22T04:46:40.806014</dc:date>
    <dc:format>image/svg+xml</dc:format>
    <dc:creator>
     <cc:Agent>
      <dc:title>Matplotlib v3.11.1, https://matplotlib.org/</dc:title>
     </cc:Agent>
    </dc:creator>
   </cc:Work>
  </rdf:RDF>
 </metadata>
 <defs>
  <style type="text/css">*{stroke-linejoin: round; stroke-linecap: butt}</style>
 </defs>
 <g id="figure_1">
  <g id="patch_1">
   <path d="M 0 338.705099 
L 332.39952 338.705099 
L 332.39952 0 
L 0 0 
z
" style="fill: #ffffff"/>
  </g>
  <g id="axes_1">
   <g id="patch_2">
    <path d="M 44.103906 102.838171 
L 325.19952 102.838171 
L 325.19952 13.505579 
L 44.103906 13.505579 
z
" style="fill: #ffffff"/>
   </g>
   <g id="matplotlib.axis_1">
    <g id="xtick_1">
     <g id="line2d_1">
      <defs>
       <path id="mbb13033bbe" d="M 0 0 
L 0 3.5 
" style="stroke: #000000; stroke-width: 0.8"/>
      </defs>
      <g>
       <use xlink:href="#mbb13033bbe" x="56.88098" y="102.838171" style="stroke: #000000; stroke-width: 0.8"/>
      </g>
     </g>
    </g>
    <g id="xtick_2">
     <g id="line2d_2">
      <g>
       <use xlink:href="#mbb13033bbe" x="88.77488" y="102.838171" style="stroke: #000000; stroke-width: 0.8"/>
      </g>
     </g>
    </g>
    <g id="xtick_3">
     <g id="line2d_3">
      <g>
       <use xlink:href="#mbb13033bbe" x="120.66878" y="102.838171" style="stroke: #000000; stroke-width: 0.8"/>
      </g>
     </g>
    </g>
    <g id="xtick_4">
     <g id="line2d_4">
      <g>
       <use xlink:href="#mbb13033bbe" x="152.562681" y="102.838171" style="stroke: #000000; stroke-width: 0.8"/>
      </g>
     </g>
    </g>
    <g id="xtick_5">
     <g id="line2d_5">
      <g>
       <use xlink:href="#mbb13033bbe" x="184.456581" y="102.838171" style="stroke: #000000; stroke-width: 0.8"/>
      </g>
     </g>
    </g>
    <g id="xtick_6">
     <g id="line2d_6">
      <g>
       <use xlink:href="#mbb13033bbe" x="216.350481" y="102.838171" style="stroke: #000000; stroke-width: 0.8"/>
      </g>
     </g>
    </g>
    <g id="xtick_7">
     <g id="line2d_7">
      <g>
       <use xlink:href="#mbb13033bbe" x="248.244382" y="102.838171" style="stroke: #000000; stroke-width: 0.8"/>
      </g>
     </g>
    </g>
    <g id="xtick_8">
     <g id="line2d_8">
      <g>
       <use xlink:href="#mbb13033bbe" x="280.138282" y="102.838171" style="stroke: #000000; stroke-width: 0.8"/>
      </g>
     </g>
    </g>
    <g id="xtick_9">
     <g id="line2d_9">
      <g>
       <use xlink:href="#mbb13033bbe" x="312.032182" y="102.838171" style="stroke: #000000; stroke-width: 0.8"/>
      </g>
     </g>
    </g>
   </g>
   <g id="matplotlib.axis_2">
    <g id="ytick_1">
     <g id="line2d_10">
      <defs>
       <path id="me2e189b4bf" d="M 0 0 
L -3.5 0 
" style="stroke: #000000; stroke-width: 0.8"/>
      </defs>
      <g>
       <use xlink:href="#me2e189b4bf" x="44.103906" y="98.777599" style="stroke: #000000; stroke-width: 0.8"/>
      </g>
     </g>
     <g id="text_1">
      <!-- 0 -->
      <g transform="translate(30.741406 102.576427) scale(0.1 -0.1)">
       <defs>
        <path id="DejaVuSans-13" d="M 2034 4250 
Q 1547 4250 1301 3770 
Q 1056 3291 1056 2328 
Q 1056 1369 1301 889 
Q 1547 409 2034 409 
Q 2525 409 2770 889 
Q 3016 1369 3016 2328 
Q 3016 3291 2770 3770 
Q 2525 4250 2034 4250 
z
M 2034 4750 
Q 2819 4750 3233 4129 
Q 3647 3509 3647 2328 
Q 3647 1150 3233 529 
Q 2819 -91 2034 -91 
Q 1250 -91 836 529 
Q 422 1150 422 2328 
Q 422 3509 836 4129 
Q 1250 4750 2034 4750 
z
" transform="scale(0.015625)"/>
       </defs>
       <use xlink:href="#DejaVuSans-13"/>
      </g>
     </g>
    </g>
    <g id="ytick_2">
     <g id="line2d_11">
      <g>
       <use xlink:href="#me2e189b4bf" x="44.103906" y="58.171875" style="stroke: #000000; stroke-width: 0.8"/>
      </g>
     </g>
     <g id="text_2">
      <!-- 5 -->
      <g transform="translate(30.741406 61.970703) scale(0.1 -0.1)">
       <defs>
        <path id="DejaVuSans-18" d="M 691 4666 
L 3169 4666 
L 3169 4134 
L 1269 4134 
L 1269 2991 
Q 1406 3038 1543 3061 
Q 1681 3084 1819 3084 
Q 2600 3084 3056 2656 
Q 3513 2228 3513 1497 
Q 3513 744 3044 326 
Q 2575 -91 1722 -91 
Q 1428 -91 1123 -41 
Q 819 9 494 109 
L 494 744 
Q 775 591 1075 516 
Q 1375 441 1709 441 
Q 2250 441 2565 725 
Q 2881 1009 2881 1497 
Q 2881 1984 2565 2268 
Q 2250 2553 1709 2553 
Q 1456 2553 1204 2497 
Q 953 2441 691 2322 
L 691 4666 
z
" transform="scale(0.015625)"/>
       </defs>
       <use xlink:href="#DejaVuSans-18"/>
      </g>
     </g>
    </g>
    <g id="ytick_3">
     <g id="line2d_12">
      <g>
       <use xlink:href="#me2e189b4bf" x="44.103906" y="17.566151" style="stroke: #000000; stroke-width: 0.8"/>
      </g>
     </g>
     <g id="text_3">
      <!-- 10 -->
      <g transform="translate(24.378906 21.364979) scale(0.1 -0.1)">
       <defs>
        <path id="DejaVuSans-14" d="M 794 531 
L 1825 531 
L 1825 4091 
L 703 3866 
L 703 4441 
L 1819 4666 
L 2450 4666 
L 2450 531 
L 3481 531 
L 3481 0 
L 794 0 
L 794 531 
z
" transform="scale(0.015625)"/>
       </defs>
       <use xlink:href="#DejaVuSans-14"/>
       <use xlink:href="#DejaVuSans-13" transform="translate(63.625 0)"/>
      </g>
     </g>
    </g>
    <g id="text_4">
     <!-- Extracellular lactose -->
     <g transform="translate(17.976563 109.14375) rotate(-90) scale(0.1 -0.1)">
      <defs>
       <path id="DejaVuSans-28" d="M 628 4666 
L 3578 4666 
L 3578 4134 
L 1259 4134 
L 1259 2753 
L 3481 2753 
L 3481 2222 
L 1259 2222 
L 1259 531 
L 3634 531 
L 3634 0 
L 628 0 
L 628 4666 
z
" transform="scale(0.015625)"/>
       <path id="DejaVuSans-5b" d="M 3513 3500 
L 2247 1797 
L 3578 0 
L 2900 0 
L 1881 1375 
L 863 0 
L 184 0 
L 1544 1831 
L 300 3500 
L 978 3500 
L 1906 2253 
L 2834 3500 
L 3513 3500 
z
" transform="scale(0.015625)"/>
       <path id="DejaVuSans-57" d="M 1172 4494 
L 1172 3500 
L 2356 3500 
L 2356 3053 
L 1172 3053 
L 1172 1153 
Q 1172 725 1289 603 
Q 1406 481 1766 481 
L 2356 481 
L 2356 0 
L 1766 0 
Q 1100 0 847 248 
Q 594 497 594 1153 
L 594 3053 
L 172 3053 
L 172 3500 
L 594 3500 
L 594 4494 
L 1172 4494 
z
" transform="scale(0.015625)"/>
       <path id="DejaVuSans-55" d="M 2631 2963 
Q 2534 3019 2420 3045 
Q 2306 3072 2169 3072 
Q 1681 3072 1420 2755 
Q 1159 2438 1159 1844 
L 1159 0 
L 581 0 
L 581 3500 
L 1159 3500 
L 1159 2956 
Q 1341 3275 1631 3429 
Q 1922 3584 2338 3584 
Q 2397 3584 2469 3576 
Q 2541 3569 2628 3553 
L 2631 2963 
z
" transform="scale(0.015625)"/>
       <path id="DejaVuSans-44" d="M 2194 1759 
Q 1497 1759 1228 1600 
Q 959 1441 959 1056 
Q 959 750 1161 570 
Q 1363 391 1709 391 
Q 2188 391 2477 730 
Q 2766 1069 2766 1631 
L 2766 1759 
L 2194 1759 
z
M 3341 1997 
L 3341 0 
L 2766 0 
L 2766 531 
Q 2569 213 2275 61 
Q 1981 -91 1556 -91 
Q 1019 -91 701 211 
Q 384 513 384 1019 
Q 384 1609 779 1909 
Q 1175 2209 1959 2209 
L 2766 2209 
L 2766 2266 
Q 2766 2663 2505 2880 
Q 2244 3097 1772 3097 
Q 1472 3097 1187 3025 
Q 903 2953 641 2809 
L 641 3341 
Q 956 3463 1253 3523 
Q 1550 3584 1831 3584 
Q 2591 3584 2966 3190 
Q 3341 2797 3341 1997 
z
" transform="scale(0.015625)"/>
       <path id="DejaVuSans-46" d="M 3122 3366 
L 3122 2828 
Q 2878 2963 2633 3030 
Q 2388 3097 2138 3097 
Q 1578 3097 1268 2742 
Q 959 2388 959 1747 
Q 959 1106 1268 751 
Q 1578 397 2138 397 
Q 2388 397 2633 464 
Q 2878 531 3122 666 
L 3122 134 
Q 2881 22 2623 -34 
Q 2366 -91 2075 -91 
Q 1284 -91 818 406 
Q 353 903 353 1747 
Q 353 2603 823 3093 
Q 1294 3584 2113 3584 
Q 2378 3584 2631 3529 
Q 2884 3475 3122 3366 
z
" transform="scale(0.015625)"/>
       <path id="DejaVuSans-48" d="M 3597 1894 
L 3597 1613 
L 953 1613 
Q 991 1019 1311 708 
Q 1631 397 2203 397 
Q 2534 397 2845 478 
Q 3156 559 3463 722 
L 3463 178 
Q 3153 47 2828 -22 
Q 2503 -91 2169 -91 
Q 1331 -91 842 396 
Q 353 884 353 1716 
Q 353 2575 817 3079 
Q 1281 3584 2069 3584 
Q 2775 3584 3186 3129 
Q 3597 2675 3597 1894 
z
M 3022 2063 
Q 3016 2534 2758 2815 
Q 2500 3097 2075 3097 
Q 1594 3097 1305 2825 
Q 1016 2553 972 2059 
L 3022 2063 
z
" transform="scale(0.015625)"/>
       <path id="DejaVuSans-4f" d="M 603 4863 
L 1178 4863 
L 1178 0 
L 603 0 
L 603 4863 
z
" transform="scale(0.015625)"/>
       <path id="DejaVuSans-58" d="M 544 1381 
L 544 3500 
L 1119 3500 
L 1119 1403 
Q 1119 906 1312 657 
Q 1506 409 1894 409 
Q 2359 409 2629 706 
Q 2900 1003 2900 1516 
L 2900 3500 
L 3475 3500 
L 3475 0 
L 2900 0 
L 2900 538 
Q 2691 219 2414 64 
Q 2138 -91 1772 -91 
Q 1169 -91 856 284 
Q 544 659 544 1381 
z
M 1991 3584 
L 1991 3584 
z
" transform="scale(0.015625)"/>
       <path id="DejaVuSans-3" transform="scale(0.015625)"/>
       <path id="DejaVuSans-52" d="M 1959 3097 
Q 1497 3097 1228 2736 
Q 959 2375 959 1747 
Q 959 1119 1226 758 
Q 1494 397 1959 397 
Q 2419 397 2687 759 
Q 2956 1122 2956 1747 
Q 2956 2369 2687 2733 
Q 2419 3097 1959 3097 
z
M 1959 3584 
Q 2709 3584 3137 3096 
Q 3566 2609 3566 1747 
Q 3566 888 3137 398 
Q 2709 -91 1959 -91 
Q 1206 -91 779 398 
Q 353 888 353 1747 
Q 353 2609 779 3096 
Q 1206 3584 1959 3584 
z
" transform="scale(0.015625)"/>
       <path id="DejaVuSans-56" d="M 2834 3397 
L 2834 2853 
Q 2591 2978 2328 3040 
Q 2066 3103 1784 3103 
Q 1356 3103 1142 2972 
Q 928 2841 928 2578 
Q 928 2378 1081 2264 
Q 1234 2150 1697 2047 
L 1894 2003 
Q 2506 1872 2764 1633 
Q 3022 1394 3022 966 
Q 3022 478 2636 193 
Q 2250 -91 1575 -91 
Q 1294 -91 989 -36 
Q 684 19 347 128 
L 347 722 
Q 666 556 975 473 
Q 1284 391 1588 391 
Q 1994 391 2212 530 
Q 2431 669 2431 922 
Q 2431 1156 2273 1281 
Q 2116 1406 1581 1522 
L 1381 1569 
Q 847 1681 609 1914 
Q 372 2147 372 2553 
Q 372 3047 722 3315 
Q 1072 3584 1716 3584 
Q 2034 3584 2315 3537 
Q 2597 3491 2834 3397 
z
" transform="scale(0.015625)"/>
      </defs>
      <use xlink:href="#DejaVuSans-28"/>
      <use xlink:href="#DejaVuSans-5b" transform="translate(63.1875 0)"/>
      <use xlink:href="#DejaVuSans-57" transform="translate(122.375 0)"/>
      <use xlink:href="#DejaVuSans-55" transform="translate(161.578125 0)"/>
      <use xlink:href="#DejaVuSans-44" transform="translate(202.6875 0)"/>
      <use xlink:href="#DejaVuSans-46" transform="translate(263.96875 0)"/>
      <use xlink:href="#DejaVuSans-48" transform="translate(318.953125 0)"/>
      <use xlink:href="#DejaVuSans-4f" transform="translate(380.484375 0)"/>
      <use xlink:href="#DejaVuSans-4f" transform="translate(408.265625 0)"/>
      <use xlink:href="#DejaVuSans-58" transform="translate(436.046875 0)"/>
      <use xlink:href="#DejaVuSans-4f" transform="translate(499.421875 0)"/>
      <use xlink:href="#DejaVuSans-44" transform="translate(527.203125 0)"/>
      <use xlink:href="#DejaVuSans-55" transform="translate(588.484375 0)"/>
      <use xlink:href="#DejaVuSans-3" transform="translate(629.59375 0)"/>
      <use xlink:href="#DejaVuSans-4f" transform="translate(661.375 0)"/>
      <use xlink:href="#DejaVuSans-44" transform="translate(689.15625 0)"/>
      <use xlink:href="#DejaVuSans-46" transform="translate(750.4375 0)"/>
      <use xlink:href="#DejaVuSans-57" transform="translate(805.421875 0)"/>
      <use xlink:href="#DejaVuSans-52" transform="translate(844.625 0)"/>
      <use xlink:href="#DejaVuSans-56" transform="translate(905.8125 0)"/>
      <use xlink:href="#DejaVuSans-48" transform="translate(957.90625 0)"/>
     </g>
    </g>
   </g>
   <g id="line2d_13">
    <path d="M 56.88098 98.777599 
L 156.093129 98.777599 
L 156.182124 17.566151 
L 156.849343 17.647362 
L 156.966894 17.972208 
L 157.011657 18.05342 
L 157.157683 19.515226 
L 157.275888 21.139455 
L 157.2897 21.220666 
L 157.433048 22.926107 
L 157.456569 23.007318 
L 157.965562 26.49941 
L 158.242471 26.905467 
L 158.301696 26.986679 
L 158.410746 27.06789 
L 158.860821 27.149102 
L 158.957569 27.555159 
L 159.198089 27.961216 
L 159.298434 28.367274 
L 159.418858 28.448485 
L 159.521484 28.935754 
L 159.551444 29.016965 
L 159.660288 29.910291 
L 159.757405 30.803617 
L 160.096098 32.184212 
L 160.142031 32.265423 
L 160.377917 33.646018 
L 160.576177 35.107824 
L 160.594975 35.189035 
L 160.874132 37.544167 
L 160.901625 37.625379 
L 161.014129 38.356282 
L 161.116843 38.437493 
L 161.222891 38.924762 
L 161.272858 39.005973 
L 161.392151 39.818088 
L 161.412114 39.899299 
L 161.54486 40.386568 
L 161.595944 40.467779 
L 161.754119 41.198682 
L 161.91616 41.279894 
L 162.066281 41.685951 
L 162.248071 41.929585 
L 162.798823 42.010797 
L 162.923259 42.416854 
L 163.256866 42.985334 
L 163.358702 43.066546 
L 163.502086 43.635026 
L 163.649184 43.959872 
L 163.672266 44.041083 
L 163.774815 44.284717 
L 164.312334 45.502889 
L 164.419614 45.827735 
L 164.558703 45.908946 
L 165.14317 47.533175 
L 165.295423 47.614387 
L 165.435647 47.77681 
L 165.488283 47.858021 
L 165.744024 48.670136 
L 165.761622 48.751347 
L 165.938228 48.994981 
L 166.13185 49.076193 
L 166.243368 49.48225 
L 166.38898 49.888307 
L 166.468854 49.969519 
L 166.559356 50.294365 
L 166.624154 50.375576 
L 166.864779 50.700422 
L 166.876376 50.781633 
L 167.146095 52.405862 
L 168.401321 56.79128 
L 168.517728 56.872492 
L 168.629339 57.034915 
L 168.7024 57.116126 
L 168.814772 57.278549 
L 169.330743 57.359761 
L 169.626121 58.009452 
L 169.762929 58.171875 
L 169.803601 58.253086 
L 170.02079 58.821567 
L 170.080869 58.902778 
L 170.280451 59.877315 
L 170.353564 59.958527 
L 170.466377 60.608218 
L 170.560831 60.68943 
L 170.710457 61.582756 
L 170.726507 61.663967 
L 170.779514 62.070025 
L 171.038772 64.181522 
L 171.054019 64.262734 
L 171.272357 65.968174 
L 171.290204 66.049385 
L 171.428626 66.536654 
L 171.579229 66.617866 
L 171.765728 67.186346 
L 171.844347 67.267557 
L 171.960593 67.836037 
L 172.112816 67.917249 
L 172.235954 68.079672 
L 172.656334 68.160883 
L 172.875492 68.242095 
L 173.594826 68.323306 
L 173.767409 69.054209 
L 174.034688 69.13542 
L 174.252629 70.028746 
L 175.273457 73.358416 
L 175.337295 73.439627 
L 175.450469 73.683262 
L 175.659049 74.251742 
L 175.776129 74.414165 
L 175.932962 75.307491 
L 175.95455 75.388702 
L 176.156695 76.282028 
L 176.176578 76.363239 
L 176.301384 77.012931 
L 176.462625 77.743834 
L 176.525741 77.825045 
L 176.651735 78.555948 
L 176.84296 78.962006 
L 177.541796 79.043217 
L 177.645065 79.124429 
L 177.95954 79.20564 
L 178.105654 79.77412 
L 178.183758 79.855332 
L 178.319464 80.098966 
L 178.459549 80.180177 
L 178.536139 80.261389 
L 179.054066 80.3426 
L 179.335831 80.829869 
L 179.884582 80.91108 
L 179.991072 80.992292 
L 180.024062 81.073503 
L 180.090266 81.154715 
L 180.177187 81.235926 
L 180.260647 81.317138 
L 180.423094 81.398349 
L 180.509436 81.479561 
L 180.731884 81.560772 
L 180.868825 81.641984 
L 180.965984 81.723195 
L 181.046294 81.804406 
L 181.385415 81.885618 
L 181.468184 82.048041 
L 181.638615 82.129252 
L 181.719623 82.210464 
L 182.1234 82.535309 
L 182.547654 82.616521 
L 182.600157 82.697732 
L 182.836943 82.941367 
L 182.969076 83.266212 
L 183.340959 83.347424 
L 183.41001 83.428635 
L 183.622254 83.509847 
L 183.762533 83.753481 
L 183.965571 83.834693 
L 184.19657 84.078327 
L 184.273178 84.159538 
L 184.403186 84.728019 
L 184.861638 84.80923 
L 185.058327 85.052864 
L 185.787041 86.189825 
L 185.900414 86.271036 
L 186.111915 86.51467 
L 186.235957 86.677093 
L 186.336384 86.758305 
L 186.961533 88.138899 
L 187.10177 88.220111 
L 187.276499 88.626168 
L 187.410001 88.707379 
L 188.766201 88.788591 
L 189.065586 89.032225 
L 189.193472 89.113437 
L 189.462758 89.357071 
L 189.575164 89.681917 
L 190.01935 89.763128 
L 191.126625 90.575243 
L 191.169423 90.656454 
L 191.310429 90.737666 
L 191.465606 90.818877 
L 191.977866 90.900089 
L 192.147357 91.062511 
L 192.458917 91.143723 
L 192.491121 91.224934 
L 192.858858 91.306146 
L 193.064585 91.54978 
L 193.26908 91.630992 
L 193.416926 91.712203 
L 193.774552 91.793415 
L 194.227403 91.955837 
L 194.849965 92.037049 
L 194.991644 92.361895 
L 195.075119 92.443106 
L 195.178433 92.524318 
L 195.246844 92.605529 
L 195.376829 92.849163 
L 195.72177 92.930375 
L 196.205245 93.336432 
L 196.522071 93.417643 
L 196.717534 93.661278 
L 196.959691 93.742489 
L 197.167034 93.904912 
L 197.943484 93.986124 
L 198.094259 94.229758 
L 198.830804 94.310969 
L 198.892722 94.554604 
L 199.162112 94.635815 
L 199.173293 94.717027 
L 199.474413 94.798238 
L 199.652202 94.87945 
L 199.738452 95.041872 
L 200.291127 95.123084 
L 200.430426 95.204295 
L 200.740975 95.285507 
L 200.989536 95.529141 
L 201.489401 95.610353 
L 201.603508 95.691564 
L 202.433204 95.772775 
L 202.50522 95.853987 
L 203.203707 95.935198 
L 203.420055 96.01641 
L 204.927177 96.097621 
L 205.363364 96.178833 
L 206.542006 96.260044 
L 206.649902 96.341256 
L 207.259192 96.422467 
L 207.380902 96.503679 
L 208.299693 96.58489 
L 208.47776 96.747313 
L 209.497009 96.828524 
L 209.654879 96.909736 
L 209.833147 96.990947 
L 211.051285 97.072159 
L 211.410234 97.234582 
L 215.164529 97.315793 
L 215.287968 97.397004 
L 215.666488 97.478216 
L 217.132169 97.559427 
L 217.243554 97.72185 
L 218.61282 97.803062 
L 218.739952 97.884273 
L 219.843359 97.965485 
L 220.013222 98.046696 
L 221.040425 98.127907 
L 221.357975 98.209119 
L 310.805977 98.29033 
L 310.909509 98.371542 
L 312.422447 98.371542 
L 312.422447 98.371542 
" clip-path="url(#p3e9844182a)" style="fill: none; stroke: #000000; stroke-width: 1.5; stroke-linecap: square"/>
   </g>
   <g id="patch_3">
    <path d="M 44.103906 102.838171 
L 44.103906 13.505579 
" style="fill: none; stroke: #000000; stroke-width: 0.8; stroke-linejoin: miter; stroke-linecap: square"/>
   </g>
   <g id="patch_4">
    <path d="M 325.19952 102.838171 
L 325.19952 13.505579 
" style="fill: none; stroke: #000000; stroke-width: 0.8; stroke-linejoin: miter; stroke-linecap: square"/>
   </g>
   <g id="patch_5">
    <path d="M 44.103906 102.838171 
L 325.19952 102.838171 
" style="fill: none; stroke: #000000; stroke-width: 0.8; stroke-linejoin: miter; stroke-linecap: square"/>
   </g>
   <g id="patch_6">
    <path d="M 44.103906 13.505579 
L 325.19952 13.505579 
" style="fill: none; stroke: #000000; stroke-width: 0.8; stroke-linejoin: miter; stroke-linecap: square"/>
   </g>
  </g>
  <g id="axes_2">
   <g id="patch_7">
    <path d="M 44.103906 201.671244 
L 325.19952 201.671244 
L 325.19952 112.338651 
L 44.103906 112.338651 
z
" style="fill: #ffffff"/>
   </g>
   <g id="matplotlib.axis_3">
    <g id="xtick_10">
     <g id="line2d_14">
      <g>
       <use xlink:href="#mbb13033bbe" x="56.88098" y="201.671244" style="stroke: #000000; stroke-width: 0.8"/>
      </g>
     </g>
    </g>
    <g id="xtick_11">
     <g id="line2d_15">
      <g>
       <use xlink:href="#mbb13033bbe" x="88.77488" y="201.671244" style="stroke: #000000; stroke-width: 0.8"/>
      </g>
     </g>
    </g>
    <g id="xtick_12">
     <g id="line2d_16">
      <g>
       <use xlink:href="#mbb13033bbe" x="120.66878" y="201.671244" style="stroke: #000000; stroke-width: 0.8"/>
      </g>
     </g>
    </g>
    <g id="xtick_13">
     <g id="line2d_17">
      <g>
       <use xlink:href="#mbb13033bbe" x="152.562681" y="201.671244" style="stroke: #000000; stroke-width: 0.8"/>
      </g>
     </g>
    </g>
    <g id="xtick_14">
     <g id="line2d_18">
      <g>
       <use xlink:href="#mbb13033bbe" x="184.456581" y="201.671244" style="stroke: #000000; stroke-width: 0.8"/>
      </g>
     </g>
    </g>
    <g id="xtick_15">
     <g id="line2d_19">
      <g>
       <use xlink:href="#mbb13033bbe" x="216.350481" y="201.671244" style="stroke: #000000; stroke-width: 0.8"/>
      </g>
     </g>
    </g>
    <g id="xtick_16">
     <g id="line2d_20">
      <g>
       <use xlink:href="#mbb13033bbe" x="248.244382" y="201.671244" style="stroke: #000000; stroke-width: 0.8"/>
      </g>
     </g>
    </g>
    <g id="xtick_17">
     <g id="line2d_21">
      <g>
       <use xlink:href="#mbb13033bbe" x="280.138282" y="201.671244" style="stroke: #000000; stroke-width: 0.8"/>
      </g>
     </g>
    </g>
    <g id="xtick_18">
     <g id="line2d_22">
      <g>
       <use xlink:href="#mbb13033bbe" x="312.032182" y="201.671244" style="stroke: #000000; stroke-width: 0.8"/>
      </g>
     </g>
    </g>
   </g>
   <g id="matplotlib.axis_4">
    <g id="ytick_4">
     <g id="line2d_23">
      <g>
       <use xlink:href="#me2e189b4bf" x="44.103906" y="197.610672" style="stroke: #000000; stroke-width: 0.8"/>
      </g>
     </g>
     <g id="text_5">
      <!-- 0 -->
      <g transform="translate(30.741406 201.4095) scale(0.1 -0.1)">
       <use xlink:href="#DejaVuSans-13"/>
      </g>
     </g>
    </g>
    <g id="ytick_5">
     <g id="line2d_24">
      <g>
       <use xlink:href="#me2e189b4bf" x="44.103906" y="157.004948" style="stroke: #000000; stroke-width: 0.8"/>
      </g>
     </g>
     <g id="text_6">
      <!-- 5 -->
      <g transform="translate(30.741406 160.803776) scale(0.1 -0.1)">
       <use xlink:href="#DejaVuSans-18"/>
      </g>
     </g>
    </g>
    <g id="ytick_6">
     <g id="line2d_25">
      <g>
       <use xlink:href="#me2e189b4bf" x="44.103906" y="116.399224" style="stroke: #000000; stroke-width: 0.8"/>
      </g>
     </g>
     <g id="text_7">
      <!-- 10 -->
      <g transform="translate(24.378906 120.198052) scale(0.1 -0.1)">
       <use xlink:href="#DejaVuSans-14"/>
       <use xlink:href="#DejaVuSans-13" transform="translate(63.625 0)"/>
      </g>
     </g>
    </g>
    <g id="text_8">
     <!-- LacY -->
     <g transform="translate(17.976563 168.658073) rotate(-90) scale(0.1 -0.1)">
      <defs>
       <path id="DejaVuSans-2f" d="M 628 4666 
L 1259 4666 
L 1259 531 
L 3531 531 
L 3531 0 
L 628 0 
L 628 4666 
z
" transform="scale(0.015625)"/>
       <path id="DejaVuSans-3c" d="M -13 4666 
L 666 4666 
L 1959 2747 
L 3244 4666 
L 3922 4666 
L 2272 2222 
L 2272 0 
L 1638 0 
L 1638 2222 
L -13 4666 
z
" transform="scale(0.015625)"/>
      </defs>
      <use xlink:href="#DejaVuSans-2f"/>
      <use xlink:href="#DejaVuSans-44" transform="translate(55.71875 0)"/>
      <use xlink:href="#DejaVuSans-46" transform="translate(117 0)"/>
      <use xlink:href="#DejaVuSans-3c" transform="translate(171.984375 0)"/>
     </g>
    </g>
   </g>
   <g id="line2d_26">
    <path d="M 56.88098 116.399224 
L 56.908091 116.399224 
L 56.962553 124.520369 
L 57.070655 140.762658 
L 57.130962 148.883803 
L 57.282978 148.883803 
L 57.300664 140.762658 
L 57.521121 148.883803 
L 57.662902 148.883803 
L 57.833452 165.126093 
L 58.134174 181.368382 
L 58.199754 197.610672 
L 59.728834 197.610672 
L 59.895356 189.489527 
L 59.938073 197.610672 
L 64.957662 197.610672 
L 65.280426 189.489527 
L 65.390314 197.610672 
L 82.876107 197.610672 
L 83.070399 189.489527 
L 84.86265 197.610672 
L 84.877466 189.489527 
L 85.020588 181.368382 
L 85.02524 173.247238 
L 85.34721 181.368382 
L 85.574039 181.368382 
L 85.693602 197.610672 
L 85.754387 189.489527 
L 85.9445 189.489527 
L 86.082904 197.610672 
L 89.972829 197.610672 
L 90.362398 181.368382 
L 90.363698 173.247238 
L 90.86204 173.247238 
L 90.900685 189.489527 
L 91.672373 189.489527 
L 91.841197 181.368382 
L 92.185285 197.610672 
L 109.180408 197.610672 
L 109.286043 189.489527 
L 109.40568 189.489527 
L 109.544692 197.610672 
L 109.779555 197.610672 
L 109.821016 189.489527 
L 110.236734 189.489527 
L 110.586459 181.368382 
L 110.644773 189.489527 
L 110.819939 189.489527 
L 110.8495 197.610672 
L 119.604138 197.610672 
L 119.782464 189.489527 
L 121.881574 189.489527 
L 123.728043 197.610672 
L 131.491864 197.610672 
L 131.67803 189.489527 
L 131.965437 189.489527 
L 132.073156 197.610672 
L 136.406639 197.610672 
L 136.490325 189.489527 
L 136.512179 197.610672 
L 146.499523 197.610672 
L 146.760229 181.368382 
L 146.781049 189.489527 
L 146.810042 181.368382 
L 146.923093 173.247238 
L 146.928431 181.368382 
L 147.512864 181.368382 
L 148.129718 189.489527 
L 148.374921 189.489527 
L 148.690019 181.368382 
L 148.802843 181.368382 
L 149.874194 197.610672 
L 150.334125 197.610672 
L 150.385979 181.368382 
L 150.486802 181.368382 
L 150.639554 189.489527 
L 150.773203 189.489527 
L 151.315828 197.610672 
L 156.431614 197.610672 
L 156.859675 189.489527 
L 157.099843 157.004948 
L 157.381337 157.004948 
L 157.501382 173.247238 
L 157.551225 173.247238 
L 157.652073 165.126093 
L 157.739006 165.126093 
L 157.848757 181.368382 
L 157.876943 181.368382 
L 157.965562 189.489527 
L 158.317157 189.489527 
L 158.410746 197.610672 
L 158.810233 197.610672 
L 158.91154 189.489527 
L 159.077637 189.489527 
L 159.181693 181.368382 
L 159.327599 181.368382 
L 159.383052 189.489527 
L 159.437519 181.368382 
L 159.543683 181.368382 
L 159.647914 173.247238 
L 159.807875 173.247238 
L 159.93273 189.489527 
L 160.066865 189.489527 
L 160.189884 181.368382 
L 160.338913 181.368382 
L 160.466833 165.126093 
L 160.643878 165.126093 
L 160.71258 157.004948 
L 160.751696 165.126093 
L 160.839092 165.126093 
L 160.889623 157.004948 
L 160.942208 165.126093 
L 161.110798 165.126093 
L 161.222891 181.368382 
L 161.24343 181.368382 
L 161.273811 189.489527 
L 161.282159 173.247238 
L 161.35 173.247238 
L 161.567993 173.247238 
L 161.670575 181.368382 
L 161.741479 181.368382 
L 161.85462 189.489527 
L 162.036814 189.489527 
L 162.153544 181.368382 
L 162.179312 181.368382 
L 162.341323 197.610672 
L 162.702004 197.610672 
L 162.848258 189.489527 
L 162.997176 189.489527 
L 163.111545 181.368382 
L 163.148504 181.368382 
L 163.256866 189.489527 
L 163.498514 189.489527 
L 163.55127 181.368382 
L 163.604164 189.489527 
L 163.943416 189.489527 
L 164.061656 181.368382 
L 164.067483 181.368382 
L 164.074686 173.247238 
L 164.145093 181.368382 
L 164.381575 181.368382 
L 164.438367 189.489527 
L 164.781813 189.489527 
L 164.80307 173.247238 
L 164.891538 181.368382 
L 164.926083 181.368382 
L 164.956818 189.489527 
L 165.005565 181.368382 
L 165.247572 181.368382 
L 165.313088 189.489527 
L 165.511233 189.489527 
L 165.513176 197.610672 
L 165.620314 189.489527 
L 166.159925 189.489527 
L 166.272645 181.368382 
L 166.559356 181.368382 
L 166.696417 189.489527 
L 166.775475 189.489527 
L 167.004422 165.126093 
L 167.056338 165.126093 
L 167.167422 173.247238 
L 167.18575 173.247238 
L 167.239555 181.368382 
L 167.296021 173.247238 
L 167.325351 173.247238 
L 167.424732 181.368382 
L 167.94113 181.368382 
L 168.045313 173.247238 
L 168.155261 181.368382 
L 168.475448 181.368382 
L 168.548468 189.489527 
L 168.579854 181.368382 
L 168.774652 181.368382 
L 168.882619 197.610672 
L 168.98107 197.610672 
L 168.996233 189.489527 
L 169.090272 197.610672 
L 169.193636 197.610672 
L 169.413814 189.489527 
L 169.605824 189.489527 
L 169.726715 181.368382 
L 170.071477 181.368382 
L 170.169852 173.247238 
L 170.307436 173.247238 
L 170.384485 157.004948 
L 170.414913 165.126093 
L 170.497439 165.126093 
L 170.608396 157.004948 
L 170.637585 157.004948 
L 170.726507 165.126093 
L 170.882358 165.126093 
L 171.020617 157.004948 
L 171.148966 157.004948 
L 171.246646 148.883803 
L 171.259378 157.004948 
L 171.336692 157.004948 
L 171.455822 173.247238 
L 171.473589 173.247238 
L 171.543056 181.368382 
L 171.579229 173.247238 
L 171.591014 173.247238 
L 171.704747 165.126093 
L 171.808343 173.247238 
L 172.009963 173.247238 
L 172.121524 181.368382 
L 172.151181 181.368382 
L 172.235954 197.610672 
L 172.354314 197.610672 
L 172.49926 189.489527 
L 172.798893 189.489527 
L 172.875492 197.610672 
L 173.440897 197.610672 
L 173.559694 189.489527 
L 173.57032 189.489527 
L 173.680547 181.368382 
L 173.928043 181.368382 
L 174.034688 173.247238 
L 174.277806 173.247238 
L 174.381695 165.126093 
L 174.908499 165.126093 
L 175.001028 148.883803 
L 175.012731 165.126093 
L 175.203119 165.126093 
L 175.307394 173.247238 
L 175.351197 173.247238 
L 175.450469 181.368382 
L 175.514436 181.368382 
L 175.633574 173.247238 
L 175.672005 173.247238 
L 175.675955 181.368382 
L 175.776129 157.004948 
L 175.924536 157.004948 
L 175.993742 148.883803 
L 176.031644 157.004948 
L 176.05703 157.004948 
L 176.162335 165.126093 
L 176.27279 157.004948 
L 176.40367 157.004948 
L 176.517775 165.126093 
L 176.697326 165.126093 
L 176.809069 189.489527 
L 176.822094 189.489527 
L 176.850243 181.368382 
L 176.924469 189.489527 
L 177.023769 189.489527 
L 177.168909 197.610672 
L 177.368575 197.610672 
L 177.510768 189.489527 
L 177.534923 197.610672 
L 177.572723 189.489527 
L 177.939302 189.489527 
L 178.064721 181.368382 
L 178.267619 181.368382 
L 178.38615 189.489527 
L 178.491592 181.368382 
L 178.6184 197.610672 
L 178.825096 197.610672 
L 179.009247 173.247238 
L 179.157438 181.368382 
L 179.335831 181.368382 
L 179.557285 189.489527 
L 179.895181 189.489527 
L 180.089367 165.126093 
L 180.185889 181.368382 
L 180.307166 181.368382 
L 180.327176 189.489527 
L 180.399266 181.368382 
L 180.482874 181.368382 
L 180.4846 173.247238 
L 180.509436 189.489527 
L 180.672181 189.489527 
L 180.786673 181.368382 
L 180.868825 181.368382 
L 180.970438 189.489527 
L 180.994178 189.489527 
L 181.046294 197.610672 
L 181.253346 197.610672 
L 181.387675 189.489527 
L 182.306627 189.489527 
L 182.327197 181.368382 
L 182.938958 181.368382 
L 183.048072 189.489527 
L 183.283778 189.489527 
L 183.41001 181.368382 
L 183.651599 181.368382 
L 183.762533 173.247238 
L 183.905793 173.247238 
L 184.013337 189.489527 
L 184.125815 181.368382 
L 184.285572 181.368382 
L 184.434478 165.126093 
L 184.479226 165.126093 
L 184.726522 181.368382 
L 184.768365 181.368382 
L 184.948414 173.247238 
L 185.106432 173.247238 
L 185.212588 165.126093 
L 185.216418 173.247238 
L 185.285965 173.247238 
L 185.374056 181.368382 
L 185.377802 173.247238 
L 185.483449 165.126093 
L 185.655157 165.126093 
L 185.787041 173.247238 
L 186.06448 173.247238 
L 186.152307 157.004948 
L 186.314683 148.883803 
L 186.426018 148.883803 
L 186.523979 157.004948 
L 186.646038 148.883803 
L 187.012533 148.883803 
L 187.248001 173.247238 
L 187.315805 173.247238 
L 187.410001 189.489527 
L 187.576228 189.489527 
L 187.669869 197.610672 
L 187.682393 189.489527 
L 188.040095 189.489527 
L 188.06452 197.610672 
L 188.233514 197.610672 
L 188.347005 181.368382 
L 188.466053 181.368382 
L 188.494144 173.247238 
L 188.554069 181.368382 
L 188.944614 181.368382 
L 189.011184 173.247238 
L 189.037733 181.368382 
L 189.120723 181.368382 
L 189.193472 165.126093 
L 189.350104 165.126093 
L 189.446775 173.247238 
L 189.834337 173.247238 
L 189.912476 181.368382 
L 189.981091 181.368382 
L 190.113237 173.247238 
L 190.145723 181.368382 
L 190.200892 173.247238 
L 190.30652 181.368382 
L 190.444265 173.247238 
L 190.481264 173.247238 
L 190.526147 165.126093 
L 190.572882 181.368382 
L 190.912409 181.368382 
L 191.072971 173.247238 
L 191.100095 173.247238 
L 191.12227 165.126093 
L 191.201545 173.247238 
L 191.310429 189.489527 
L 191.875799 189.489527 
L 191.977866 181.368382 
L 192.167563 181.368382 
L 192.341067 165.126093 
L 192.388386 165.126093 
L 192.491121 173.247238 
L 192.60626 173.247238 
L 192.743568 181.368382 
L 193.064585 181.368382 
L 193.132308 173.247238 
L 193.341504 173.247238 
L 193.416926 181.368382 
L 193.582751 181.368382 
L 193.633487 189.489527 
L 193.774552 181.368382 
L 193.909639 181.368382 
L 194.025301 189.489527 
L 194.047781 189.489527 
L 194.113261 181.368382 
L 194.128787 189.489527 
L 194.358511 189.489527 
L 194.465755 181.368382 
L 194.549696 181.368382 
L 194.618294 173.247238 
L 194.877484 181.368382 
L 194.991644 157.004948 
L 195.095414 157.004948 
L 195.1651 173.247238 
L 195.178433 165.126093 
L 195.25547 165.126093 
L 195.309046 157.004948 
L 195.433789 165.126093 
L 195.498509 165.126093 
L 195.532588 157.004948 
L 195.815612 173.247238 
L 195.917312 173.247238 
L 196.035689 181.368382 
L 196.187105 157.004948 
L 196.244034 165.126093 
L 196.469133 165.126093 
L 196.491977 173.247238 
L 196.564235 165.126093 
L 196.717534 165.126093 
L 196.875289 181.368382 
L 197.030525 173.247238 
L 197.167034 173.247238 
L 197.306106 197.610672 
L 197.909187 197.610672 
L 197.99152 189.489527 
L 198.137841 189.489527 
L 198.20957 197.610672 
L 198.222082 189.489527 
L 198.390055 189.489527 
L 198.404274 173.247238 
L 198.686867 173.247238 
L 198.758005 165.126093 
L 198.813759 165.126093 
L 198.892722 157.004948 
L 199.082054 157.004948 
L 199.173293 165.126093 
L 199.410959 165.126093 
L 199.524044 173.247238 
L 199.604613 157.004948 
L 199.616171 165.126093 
L 199.738452 173.247238 
L 199.781061 173.247238 
L 199.828562 165.126093 
L 199.912745 173.247238 
L 200.123904 173.247238 
L 200.284729 165.126093 
L 200.396755 173.247238 
L 200.430426 173.247238 
L 200.548015 157.004948 
L 200.786562 148.883803 
L 200.835654 148.883803 
L 200.942073 132.641513 
L 200.980784 132.641513 
L 201.072978 157.004948 
L 201.157099 148.883803 
L 201.175548 157.004948 
L 201.242154 157.004948 
L 201.325222 165.126093 
L 201.481876 165.126093 
L 201.486642 157.004948 
L 201.57407 173.247238 
L 201.732697 173.247238 
L 201.818511 181.368382 
L 202.112521 181.368382 
L 202.234825 189.489527 
L 202.328096 189.489527 
L 202.437444 173.247238 
L 202.458698 181.368382 
L 202.50522 181.368382 
L 202.581595 173.247238 
L 202.613879 181.368382 
L 202.652758 189.489527 
L 202.664878 173.247238 
L 202.75432 173.247238 
L 202.946378 181.368382 
L 202.953035 189.489527 
L 203.145226 189.489527 
L 203.285057 181.368382 
L 203.420055 189.489527 
L 203.543001 189.489527 
L 203.623068 197.610672 
L 204.134888 197.610672 
L 204.192703 189.489527 
L 204.377266 181.368382 
L 204.572614 165.126093 
L 204.667477 173.247238 
L 204.891128 173.247238 
L 204.927177 181.368382 
L 205.550444 181.368382 
L 205.847105 189.489527 
L 206.0705 181.368382 
L 206.14299 173.247238 
L 206.438111 165.126093 
L 206.558694 165.126093 
L 206.642292 157.004948 
L 206.649902 165.126093 
L 206.736669 165.126093 
L 206.93575 181.368382 
L 207.056065 173.247238 
L 207.171782 189.489527 
L 207.278331 173.247238 
L 207.312879 181.368382 
L 207.492383 165.126093 
L 207.584203 173.247238 
L 207.70119 165.126093 
L 207.826856 173.247238 
L 207.968837 173.247238 
L 208.093946 165.126093 
L 208.134126 173.247238 
L 208.369243 173.247238 
L 208.47776 189.489527 
L 208.780707 181.368382 
L 208.89791 181.368382 
L 209.497009 173.247238 
L 209.617993 173.247238 
L 209.714831 181.368382 
L 209.723532 173.247238 
L 209.935091 189.489527 
L 210.633787 189.489527 
L 210.733693 173.247238 
L 210.769039 165.126093 
L 210.960393 173.247238 
L 211.051285 165.126093 
L 211.387951 165.126093 
L 211.484613 181.368382 
L 211.513506 173.247238 
L 211.669267 165.126093 
L 211.967969 165.126093 
L 212.161481 181.368382 
L 212.605981 181.368382 
L 212.647662 173.247238 
L 212.806638 181.368382 
L 212.944194 181.368382 
L 212.993568 189.489527 
L 213.41751 189.489527 
L 213.52885 181.368382 
L 213.639385 181.368382 
L 213.642425 189.489527 
L 213.904757 181.368382 
L 214.552583 181.368382 
L 214.553308 189.489527 
L 214.734427 197.610672 
L 214.838858 189.489527 
L 215.01648 189.489527 
L 215.159327 181.368382 
L 215.22219 189.489527 
L 215.287968 181.368382 
L 215.468728 181.368382 
L 215.666488 173.247238 
L 215.882508 197.610672 
L 216.166757 197.610672 
L 216.338746 189.489527 
L 216.41308 197.610672 
L 216.725636 189.489527 
L 217.022647 157.004948 
L 217.312041 181.368382 
L 217.39497 173.247238 
L 217.616909 173.247238 
L 217.631967 165.126093 
L 217.711383 173.247238 
L 217.923381 165.126093 
L 218.039461 165.126093 
L 218.202233 181.368382 
L 218.339938 165.126093 
L 218.442278 148.883803 
L 218.64396 165.126093 
L 218.739952 165.126093 
L 218.8322 157.004948 
L 218.863323 165.126093 
L 219.077269 165.126093 
L 219.182444 181.368382 
L 219.275286 181.368382 
L 219.338064 189.489527 
L 219.520666 181.368382 
L 219.573102 189.489527 
L 219.942961 181.368382 
L 219.987164 173.247238 
L 220.013222 181.368382 
L 220.144793 189.489527 
L 220.235905 181.368382 
L 220.469652 181.368382 
L 220.617044 189.489527 
L 220.724362 181.368382 
L 220.835215 189.489527 
L 220.97054 165.126093 
L 221.165806 165.126093 
L 221.245479 157.004948 
L 221.357975 165.126093 
L 221.542785 173.247238 
L 221.603875 165.126093 
L 221.785186 165.126093 
L 221.843245 157.004948 
L 221.990198 148.883803 
L 222.053177 173.247238 
L 222.081361 165.126093 
L 222.275164 173.247238 
L 222.386981 173.247238 
L 222.476187 165.126093 
L 222.679507 181.368382 
L 222.835318 173.247238 
L 222.838147 165.126093 
L 223.056885 157.004948 
L 223.29196 181.368382 
L 223.443581 181.368382 
L 223.49898 173.247238 
L 223.598029 173.247238 
L 223.6174 181.368382 
L 223.771202 189.489527 
L 223.914554 189.489527 
L 224.139178 181.368382 
L 224.163753 173.247238 
L 224.27415 181.368382 
L 224.308291 173.247238 
L 224.369521 181.368382 
L 224.655168 165.126093 
L 224.947147 157.004948 
L 225.024218 181.368382 
L 225.130139 189.489527 
L 225.505458 189.489527 
L 225.991395 197.610672 
L 226.417989 197.610672 
L 226.494411 189.489527 
L 226.665716 189.489527 
L 226.816546 197.610672 
L 226.946473 189.489527 
L 226.990776 197.610672 
L 227.44237 181.368382 
L 227.554083 197.610672 
L 227.677126 197.610672 
L 227.749927 189.489527 
L 227.886019 197.610672 
L 227.983505 197.610672 
L 228.324947 189.489527 
L 228.344501 197.610672 
L 228.717802 189.489527 
L 228.745429 197.610672 
L 229.030869 197.610672 
L 229.275469 189.489527 
L 229.293648 197.610672 
L 229.355023 189.489527 
L 229.556494 173.247238 
L 229.735454 173.247238 
L 229.848784 181.368382 
L 229.943512 189.489527 
L 230.154661 189.489527 
L 230.792657 197.610672 
L 239.400421 197.610672 
L 239.645444 173.247238 
L 239.876267 181.368382 
L 239.984485 173.247238 
L 240.274345 189.489527 
L 240.474531 189.489527 
L 240.575999 197.610672 
L 248.321278 197.610672 
L 248.366155 189.489527 
L 248.594018 181.368382 
L 248.767368 189.489527 
L 249.14785 189.489527 
L 249.35157 173.247238 
L 249.46429 197.610672 
L 250.530678 197.610672 
L 250.753116 189.489527 
L 250.919186 197.610672 
L 259.600019 197.610672 
L 260.127823 189.489527 
L 260.276366 173.247238 
L 260.308515 173.247238 
L 260.406729 181.368382 
L 260.810006 189.489527 
L 261.581362 189.489527 
L 262.248551 197.610672 
L 277.104245 197.610672 
L 277.299368 181.368382 
L 277.440768 189.489527 
L 277.698981 189.489527 
L 277.867052 197.610672 
L 302.58261 197.610672 
L 302.680814 189.489527 
L 302.682481 197.610672 
L 306.721414 197.610672 
L 307.081233 189.489527 
L 307.231055 181.368382 
L 307.358111 189.489527 
L 307.70093 189.489527 
L 308.007632 197.610672 
L 310.311519 197.610672 
L 310.544483 189.489527 
L 310.545366 181.368382 
L 310.856788 173.247238 
L 310.909509 173.247238 
L 311.205566 189.489527 
L 311.618204 197.610672 
L 312.422447 197.610672 
L 312.422447 197.610672 
" clip-path="url(#p01eeee4bd9)" style="fill: none; stroke: #000000; stroke-width: 1.5; stroke-linecap: square"/>
   </g>
   <g id="patch_8">
    <path d="M 44.103906 201.671244 
L 44.103906 112.338651 
" style="fill: none; stroke: #000000; stroke-width: 0.8; stroke-linejoin: miter; stroke-linecap: square"/>
   </g>
   <g id="patch_9">
    <path d="M 325.19952 201.671244 
L 325.19952 112.338651 
" style="fill: none; stroke: #000000; stroke-width: 0.8; stroke-linejoin: miter; stroke-linecap: square"/>
   </g>
   <g id="patch_10">
    <path d="M 44.103906 201.671244 
L 325.19952 201.671244 
" style="fill: none; stroke: #000000; stroke-width: 0.8; stroke-linejoin: miter; stroke-linecap: square"/>
   </g>
   <g id="patch_11">
    <path d="M 44.103906 112.338651 
L 325.19952 112.338651 
" style="fill: none; stroke: #000000; stroke-width: 0.8; stroke-linejoin: miter; stroke-linecap: square"/>
   </g>
  </g>
  <g id="axes_3">
   <g id="patch_12">
    <path d="M 44.103906 300.504317 
L 325.19952 300.504317 
L 325.19952 211.171724 
L 44.103906 211.171724 
z
" style="fill: #ffffff"/>
   </g>
   <g id="matplotlib.axis_5">
    <g id="xtick_19">
     <g id="line2d_27">
      <g>
       <use xlink:href="#mbb13033bbe" x="56.88098" y="300.504317" style="stroke: #000000; stroke-width: 0.8"/>
      </g>
     </g>
     <g id="text_9">
      <!-- 0 -->
      <g transform="translate(53.69973 315.101974) scale(0.1 -0.1)">
       <use xlink:href="#DejaVuSans-13"/>
      </g>
     </g>
    </g>
    <g id="xtick_20">
     <g id="line2d_28">
      <g>
       <use xlink:href="#mbb13033bbe" x="88.77488" y="300.504317" style="stroke: #000000; stroke-width: 0.8"/>
      </g>
     </g>
     <g id="text_10">
      <!-- 100 -->
      <g transform="translate(79.23113 315.101974) scale(0.1 -0.1)">
       <use xlink:href="#DejaVuSans-14"/>
       <use xlink:href="#DejaVuSans-13" transform="translate(63.625 0)"/>
       <use xlink:href="#DejaVuSans-13" transform="translate(127.25 0)"/>
      </g>
     </g>
    </g>
    <g id="xtick_21">
     <g id="line2d_29">
      <g>
       <use xlink:href="#mbb13033bbe" x="120.66878" y="300.504317" style="stroke: #000000; stroke-width: 0.8"/>
      </g>
     </g>
     <g id="text_11">
      <!-- 200 -->
      <g transform="translate(111.12503 315.101974) scale(0.1 -0.1)">
       <defs>
        <path id="DejaVuSans-15" d="M 1228 531 
L 3431 531 
L 3431 0 
L 469 0 
L 469 531 
Q 828 903 1448 1529 
Q 2069 2156 2228 2338 
Q 2531 2678 2651 2914 
Q 2772 3150 2772 3378 
Q 2772 3750 2511 3984 
Q 2250 4219 1831 4219 
Q 1534 4219 1204 4116 
Q 875 4013 500 3803 
L 500 4441 
Q 881 4594 1212 4672 
Q 1544 4750 1819 4750 
Q 2544 4750 2975 4387 
Q 3406 4025 3406 3419 
Q 3406 3131 3298 2873 
Q 3191 2616 2906 2266 
Q 2828 2175 2409 1742 
Q 1991 1309 1228 531 
z
" transform="scale(0.015625)"/>
       </defs>
       <use xlink:href="#DejaVuSans-15"/>
       <use xlink:href="#DejaVuSans-13" transform="translate(63.625 0)"/>
       <use xlink:href="#DejaVuSans-13" transform="translate(127.25 0)"/>
      </g>
     </g>
    </g>
    <g id="xtick_22">
     <g id="line2d_30">
      <g>
       <use xlink:href="#mbb13033bbe" x="152.562681" y="300.504317" style="stroke: #000000; stroke-width: 0.8"/>
      </g>
     </g>
     <g id="text_12">
      <!-- 300 -->
      <g transform="translate(143.018931 315.101974) scale(0.1 -0.1)">
       <defs>
        <path id="DejaVuSans-16" d="M 2597 2516 
Q 3050 2419 3304 2112 
Q 3559 1806 3559 1356 
Q 3559 666 3084 287 
Q 2609 -91 1734 -91 
Q 1441 -91 1130 -33 
Q 819 25 488 141 
L 488 750 
Q 750 597 1062 519 
Q 1375 441 1716 441 
Q 2309 441 2620 675 
Q 2931 909 2931 1356 
Q 2931 1769 2642 2001 
Q 2353 2234 1838 2234 
L 1294 2234 
L 1294 2753 
L 1863 2753 
Q 2328 2753 2575 2939 
Q 2822 3125 2822 3475 
Q 2822 3834 2567 4026 
Q 2313 4219 1838 4219 
Q 1578 4219 1281 4162 
Q 984 4106 628 3988 
L 628 4550 
Q 988 4650 1302 4700 
Q 1616 4750 1894 4750 
Q 2613 4750 3031 4423 
Q 3450 4097 3450 3541 
Q 3450 3153 3228 2886 
Q 3006 2619 2597 2516 
z
" transform="scale(0.015625)"/>
       </defs>
       <use xlink:href="#DejaVuSans-16"/>
       <use xlink:href="#DejaVuSans-13" transform="translate(63.625 0)"/>
       <use xlink:href="#DejaVuSans-13" transform="translate(127.25 0)"/>
      </g>
     </g>
    </g>
    <g id="xtick_23">
     <g id="line2d_31">
      <g>
       <use xlink:href="#mbb13033bbe" x="184.456581" y="300.504317" style="stroke: #000000; stroke-width: 0.8"/>
      </g>
     </g>
     <g id="text_13">
      <!-- 400 -->
      <g transform="translate(174.912831 315.101974) scale(0.1 -0.1)">
       <defs>
        <path id="DejaVuSans-17" d="M 2419 4116 
L 825 1625 
L 2419 1625 
L 2419 4116 
z
M 2253 4666 
L 3047 4666 
L 3047 1625 
L 3713 1625 
L 3713 1100 
L 3047 1100 
L 3047 0 
L 2419 0 
L 2419 1100 
L 313 1100 
L 313 1709 
L 2253 4666 
z
" transform="scale(0.015625)"/>
       </defs>
       <use xlink:href="#DejaVuSans-17"/>
       <use xlink:href="#DejaVuSans-13" transform="translate(63.625 0)"/>
       <use xlink:href="#DejaVuSans-13" transform="translate(127.25 0)"/>
      </g>
     </g>
    </g>
    <g id="xtick_24">
     <g id="line2d_32">
      <g>
       <use xlink:href="#mbb13033bbe" x="216.350481" y="300.504317" style="stroke: #000000; stroke-width: 0.8"/>
      </g>
     </g>
     <g id="text_14">
      <!-- 500 -->
      <g transform="translate(206.806731 315.101974) scale(0.1 -0.1)">
       <use xlink:href="#DejaVuSans-18"/>
       <use xlink:href="#DejaVuSans-13" transform="translate(63.625 0)"/>
       <use xlink:href="#DejaVuSans-13" transform="translate(127.25 0)"/>
      </g>
     </g>
    </g>
    <g id="xtick_25">
     <g id="line2d_33">
      <g>
       <use xlink:href="#mbb13033bbe" x="248.244382" y="300.504317" style="stroke: #000000; stroke-width: 0.8"/>
      </g>
     </g>
     <g id="text_15">
      <!-- 600 -->
      <g transform="translate(238.700632 315.101974) scale(0.1 -0.1)">
       <defs>
        <path id="DejaVuSans-19" d="M 2113 2584 
Q 1688 2584 1439 2293 
Q 1191 2003 1191 1497 
Q 1191 994 1439 701 
Q 1688 409 2113 409 
Q 2538 409 2786 701 
Q 3034 994 3034 1497 
Q 3034 2003 2786 2293 
Q 2538 2584 2113 2584 
z
M 3366 4563 
L 3366 3988 
Q 3128 4100 2886 4159 
Q 2644 4219 2406 4219 
Q 1781 4219 1451 3797 
Q 1122 3375 1075 2522 
Q 1259 2794 1537 2939 
Q 1816 3084 2150 3084 
Q 2853 3084 3261 2657 
Q 3669 2231 3669 1497 
Q 3669 778 3244 343 
Q 2819 -91 2113 -91 
Q 1303 -91 875 529 
Q 447 1150 447 2328 
Q 447 3434 972 4092 
Q 1497 4750 2381 4750 
Q 2619 4750 2861 4703 
Q 3103 4656 3366 4563 
z
" transform="scale(0.015625)"/>
       </defs>
       <use xlink:href="#DejaVuSans-19"/>
       <use xlink:href="#DejaVuSans-13" transform="translate(63.625 0)"/>
       <use xlink:href="#DejaVuSans-13" transform="translate(127.25 0)"/>
      </g>
     </g>
    </g>
    <g id="xtick_26">
     <g id="line2d_34">
      <g>
       <use xlink:href="#mbb13033bbe" x="280.138282" y="300.504317" style="stroke: #000000; stroke-width: 0.8"/>
      </g>
     </g>
     <g id="text_16">
      <!-- 700 -->
      <g transform="translate(270.594532 315.101974) scale(0.1 -0.1)">
       <defs>
        <path id="DejaVuSans-1a" d="M 525 4666 
L 3525 4666 
L 3525 4397 
L 1831 0 
L 1172 0 
L 2766 4134 
L 525 4134 
L 525 4666 
z
" transform="scale(0.015625)"/>
       </defs>
       <use xlink:href="#DejaVuSans-1a"/>
       <use xlink:href="#DejaVuSans-13" transform="translate(63.625 0)"/>
       <use xlink:href="#DejaVuSans-13" transform="translate(127.25 0)"/>
      </g>
     </g>
    </g>
    <g id="xtick_27">
     <g id="line2d_35">
      <g>
       <use xlink:href="#mbb13033bbe" x="312.032182" y="300.504317" style="stroke: #000000; stroke-width: 0.8"/>
      </g>
     </g>
     <g id="text_17">
      <!-- 800 -->
      <g transform="translate(302.488432 315.101974) scale(0.1 -0.1)">
       <defs>
        <path id="DejaVuSans-1b" d="M 2034 2216 
Q 1584 2216 1326 1975 
Q 1069 1734 1069 1313 
Q 1069 891 1326 650 
Q 1584 409 2034 409 
Q 2484 409 2743 651 
Q 3003 894 3003 1313 
Q 3003 1734 2745 1975 
Q 2488 2216 2034 2216 
z
M 1403 2484 
Q 997 2584 770 2862 
Q 544 3141 544 3541 
Q 544 4100 942 4425 
Q 1341 4750 2034 4750 
Q 2731 4750 3128 4425 
Q 3525 4100 3525 3541 
Q 3525 3141 3298 2862 
Q 3072 2584 2669 2484 
Q 3125 2378 3379 2068 
Q 3634 1759 3634 1313 
Q 3634 634 3220 271 
Q 2806 -91 2034 -91 
Q 1263 -91 848 271 
Q 434 634 434 1313 
Q 434 1759 690 2068 
Q 947 2378 1403 2484 
z
M 1172 3481 
Q 1172 3119 1398 2916 
Q 1625 2713 2034 2713 
Q 2441 2713 2670 2916 
Q 2900 3119 2900 3481 
Q 2900 3844 2670 4047 
Q 2441 4250 2034 4250 
Q 1625 4250 1398 4047 
Q 1172 3844 1172 3481 
z
" transform="scale(0.015625)"/>
       </defs>
       <use xlink:href="#DejaVuSans-1b"/>
       <use xlink:href="#DejaVuSans-13" transform="translate(63.625 0)"/>
       <use xlink:href="#DejaVuSans-13" transform="translate(127.25 0)"/>
      </g>
     </g>
    </g>
    <g id="text_18">
     <!-- Time -->
     <g transform="translate(172.415776 329.102755) scale(0.1 -0.1)">
      <defs>
       <path id="DejaVuSans-37" d="M -19 4666 
L 3928 4666 
L 3928 4134 
L 2272 4134 
L 2272 0 
L 1638 0 
L 1638 4134 
L -19 4134 
L -19 4666 
z
" transform="scale(0.015625)"/>
       <path id="DejaVuSans-4c" d="M 603 3500 
L 1178 3500 
L 1178 0 
L 603 0 
L 603 3500 
z
M 603 4863 
L 1178 4863 
L 1178 4134 
L 603 4134 
L 603 4863 
z
" transform="scale(0.015625)"/>
       <path id="DejaVuSans-50" d="M 3328 2828 
Q 3544 3216 3844 3400 
Q 4144 3584 4550 3584 
Q 5097 3584 5394 3201 
Q 5691 2819 5691 2113 
L 5691 0 
L 5113 0 
L 5113 2094 
Q 5113 2597 4934 2840 
Q 4756 3084 4391 3084 
Q 3944 3084 3684 2787 
Q 3425 2491 3425 1978 
L 3425 0 
L 2847 0 
L 2847 2094 
Q 2847 2600 2669 2842 
Q 2491 3084 2119 3084 
Q 1678 3084 1418 2786 
Q 1159 2488 1159 1978 
L 1159 0 
L 581 0 
L 581 3500 
L 1159 3500 
L 1159 2956 
Q 1356 3278 1631 3431 
Q 1906 3584 2284 3584 
Q 2666 3584 2933 3390 
Q 3200 3197 3328 2828 
z
" transform="scale(0.015625)"/>
      </defs>
      <use xlink:href="#DejaVuSans-37"/>
      <use xlink:href="#DejaVuSans-4c" transform="translate(58 0)"/>
      <use xlink:href="#DejaVuSans-50" transform="translate(85.78125 0)"/>
      <use xlink:href="#DejaVuSans-48" transform="translate(183.1875 0)"/>
     </g>
    </g>
   </g>
   <g id="matplotlib.axis_6">
    <g id="ytick_7">
     <g id="line2d_36">
      <g>
       <use xlink:href="#me2e189b4bf" x="44.103906" y="296.443745" style="stroke: #000000; stroke-width: 0.8"/>
      </g>
     </g>
     <g id="text_19">
      <!-- 0.0 -->
      <g transform="translate(21.200781 300.242573) scale(0.1 -0.1)">
       <defs>
        <path id="DejaVuSans-11" d="M 684 794 
L 1344 794 
L 1344 0 
L 684 0 
L 684 794 
z
" transform="scale(0.015625)"/>
       </defs>
       <use xlink:href="#DejaVuSans-13"/>
       <use xlink:href="#DejaVuSans-11" transform="translate(63.625 0)"/>
       <use xlink:href="#DejaVuSans-13" transform="translate(95.40625 0)"/>
      </g>
     </g>
    </g>
    <g id="ytick_8">
     <g id="line2d_37">
      <g>
       <use xlink:href="#me2e189b4bf" x="44.103906" y="255.838021" style="stroke: #000000; stroke-width: 0.8"/>
      </g>
     </g>
     <g id="text_20">
      <!-- 0.5 -->
      <g transform="translate(21.200781 259.636849) scale(0.1 -0.1)">
       <use xlink:href="#DejaVuSans-13"/>
       <use xlink:href="#DejaVuSans-11" transform="translate(63.625 0)"/>
       <use xlink:href="#DejaVuSans-18" transform="translate(95.40625 0)"/>
      </g>
     </g>
    </g>
    <g id="ytick_9">
     <g id="line2d_38">
      <g>
       <use xlink:href="#me2e189b4bf" x="44.103906" y="215.232297" style="stroke: #000000; stroke-width: 0.8"/>
      </g>
     </g>
     <g id="text_21">
      <!-- 1.0 -->
      <g transform="translate(21.200781 219.031125) scale(0.1 -0.1)">
       <use xlink:href="#DejaVuSans-14"/>
       <use xlink:href="#DejaVuSans-11" transform="translate(63.625 0)"/>
       <use xlink:href="#DejaVuSans-13" transform="translate(95.40625 0)"/>
      </g>
     </g>
    </g>
    <g id="text_22">
     <!-- Free lac operon -->
     <g transform="translate(14.798438 294.31224) rotate(-90) scale(0.1 -0.1)">
      <defs>
       <path id="DejaVuSans-29" d="M 628 4666 
L 3309 4666 
L 3309 4134 
L 1259 4134 
L 1259 2759 
L 3109 2759 
L 3109 2228 
L 1259 2228 
L 1259 0 
L 628 0 
L 628 4666 
z
" transform="scale(0.015625)"/>
       <path id="DejaVuSans-53" d="M 1159 525 
L 1159 -1331 
L 581 -1331 
L 581 3500 
L 1159 3500 
L 1159 2969 
Q 1341 3281 1617 3432 
Q 1894 3584 2278 3584 
Q 2916 3584 3314 3078 
Q 3713 2572 3713 1747 
Q 3713 922 3314 415 
Q 2916 -91 2278 -91 
Q 1894 -91 1617 61 
Q 1341 213 1159 525 
z
M 3116 1747 
Q 3116 2381 2855 2742 
Q 2594 3103 2138 3103 
Q 1681 3103 1420 2742 
Q 1159 2381 1159 1747 
Q 1159 1113 1420 752 
Q 1681 391 2138 391 
Q 2594 391 2855 752 
Q 3116 1113 3116 1747 
z
" transform="scale(0.015625)"/>
       <path id="DejaVuSans-51" d="M 3513 2113 
L 3513 0 
L 2938 0 
L 2938 2094 
Q 2938 2591 2744 2837 
Q 2550 3084 2163 3084 
Q 1697 3084 1428 2787 
Q 1159 2491 1159 1978 
L 1159 0 
L 581 0 
L 581 3500 
L 1159 3500 
L 1159 2956 
Q 1366 3272 1645 3428 
Q 1925 3584 2291 3584 
Q 2894 3584 3203 3211 
Q 3513 2838 3513 2113 
z
" transform="scale(0.015625)"/>
      </defs>
      <use xlink:href="#DejaVuSans-29"/>
      <use xlink:href="#DejaVuSans-55" transform="translate(50.234375 0)"/>
      <use xlink:href="#DejaVuSans-48" transform="translate(89.140625 0)"/>
      <use xlink:href="#DejaVuSans-48" transform="translate(150.671875 0)"/>
      <use xlink:href="#DejaVuSans-3" transform="translate(212.203125 0)"/>
      <use xlink:href="#DejaVuSans-4f" transform="translate(243.984375 0)"/>
      <use xlink:href="#DejaVuSans-44" transform="translate(271.765625 0)"/>
      <use xlink:href="#DejaVuSans-46" transform="translate(333.046875 0)"/>
      <use xlink:href="#DejaVuSans-3" transform="translate(388.03125 0)"/>
      <use xlink:href="#DejaVuSans-52" transform="translate(419.8125 0)"/>
      <use xlink:href="#DejaVuSans-53" transform="translate(481 0)"/>
      <use xlink:href="#DejaVuSans-48" transform="translate(544.484375 0)"/>
      <use xlink:href="#DejaVuSans-55" transform="translate(606.015625 0)"/>
      <use xlink:href="#DejaVuSans-52" transform="translate(644.921875 0)"/>
      <use xlink:href="#DejaVuSans-51" transform="translate(706.109375 0)"/>
     </g>
    </g>
   </g>
   <g id="line2d_39">
    <path d="M 56.88098 215.232297 
L 56.962553 296.443745 
L 57.130962 296.443745 
L 57.300664 215.232297 
L 57.418916 215.232297 
L 57.521121 296.443745 
L 58.738276 296.443745 
L 59.728834 215.232297 
L 59.915312 215.232297 
L 59.938073 296.443745 
L 62.361268 296.443745 
L 64.957662 215.232297 
L 65.25277 215.232297 
L 65.390314 296.443745 
L 65.516278 296.443745 
L 72.183515 215.232297 
L 72.353427 296.443745 
L 80.198675 215.232297 
L 80.247747 296.443745 
L 82.876107 215.232297 
L 83.016198 215.232297 
L 83.070399 296.443745 
L 84.811986 296.443745 
L 84.877466 215.232297 
L 85.754387 215.232297 
L 85.9445 296.443745 
L 86.978083 296.443745 
L 89.972829 215.232297 
L 90.513222 215.232297 
L 90.542521 296.443745 
L 90.900685 296.443745 
L 91.782709 215.232297 
L 91.841197 296.443745 
L 92.185285 296.443745 
L 109.272332 215.232297 
L 109.286043 296.443745 
L 109.544692 296.443745 
L 109.821016 215.232297 
L 110.108574 296.443745 
L 110.236734 215.232297 
L 110.644773 215.232297 
L 110.8495 296.443745 
L 111.142348 296.443745 
L 115.307425 215.232297 
L 115.968513 296.443745 
L 117.611699 215.232297 
L 117.927151 296.443745 
L 118.600045 215.232297 
L 118.687431 296.443745 
L 119.697496 215.232297 
L 119.782464 296.443745 
L 123.728043 296.443745 
L 129.751087 215.232297 
L 129.857107 296.443745 
L 131.600594 215.232297 
L 132.051701 215.232297 
L 132.073156 296.443745 
L 133.914729 296.443745 
L 136.512179 215.232297 
L 136.525495 296.443745 
L 139.408559 215.232297 
L 139.451321 296.443745 
L 146.499523 215.232297 
L 147.444503 215.232297 
L 147.512864 296.443745 
L 148.129718 296.443745 
L 148.374921 215.232297 
L 148.690019 215.232297 
L 148.802843 296.443745 
L 149.874194 296.443745 
L 150.385979 215.232297 
L 150.486802 296.443745 
L 151.608673 296.443745 
L 151.620002 215.232297 
L 151.78165 296.443745 
L 156.093129 215.232297 
L 156.182124 296.443745 
L 156.431614 215.232297 
L 166.914498 215.232297 
L 166.968114 296.443745 
L 167.004422 215.232297 
L 212.044032 215.232297 
L 212.161481 296.443745 
L 212.647662 215.232297 
L 229.748852 215.232297 
L 229.848784 296.443745 
L 232.82284 296.443745 
L 237.400507 215.232297 
L 237.499046 296.443745 
L 239.46315 215.232297 
L 240.092871 215.232297 
L 240.156609 296.443745 
L 240.575999 296.443745 
L 247.821367 215.232297 
L 248.260182 296.443745 
L 248.366155 215.232297 
L 248.721335 215.232297 
L 248.767368 296.443745 
L 249.19932 215.232297 
L 249.334876 215.232297 
L 249.387061 296.443745 
L 249.654288 296.443745 
L 249.662275 215.232297 
L 249.714815 296.443745 
L 250.119463 296.443745 
L 250.530678 215.232297 
L 250.823909 215.232297 
L 250.919186 296.443745 
L 252.586248 215.232297 
L 252.669713 296.443745 
L 259.600019 215.232297 
L 260.276366 215.232297 
L 260.406729 296.443745 
L 262.248551 296.443745 
L 267.888249 215.232297 
L 268.458906 296.443745 
L 277.104245 215.232297 
L 277.376799 215.232297 
L 277.440768 296.443745 
L 277.797299 296.443745 
L 277.867052 215.232297 
L 277.970772 296.443745 
L 278.271408 296.443745 
L 288.338093 215.232297 
L 288.520849 296.443745 
L 289.48706 215.232297 
L 289.583186 296.443745 
L 302.682481 215.232297 
L 302.815123 296.443745 
L 303.159191 296.443745 
L 306.721414 215.232297 
L 307.350882 215.232297 
L 307.358111 296.443745 
L 308.898257 296.443745 
L 310.311519 215.232297 
L 310.758463 215.232297 
L 310.856788 296.443745 
L 312.422447 296.443745 
L 312.422447 296.443745 
" clip-path="url(#p0d9033c2cb)" style="fill: none; stroke: #000000; stroke-width: 1.5; stroke-linecap: square"/>
   </g>
   <g id="patch_13">
    <path d="M 44.103906 300.504317 
L 44.103906 211.171724 
" style="fill: none; stroke: #000000; stroke-width: 0.8; stroke-linejoin: miter; stroke-linecap: square"/>
   </g>
   <g id="patch_14">
    <path d="M 325.19952 300.504317 
L 325.19952 211.171724 
" style="fill: none; stroke: #000000; stroke-width: 0.8; stroke-linejoin: miter; stroke-linecap: square"/>
   </g>
   <g id="patch_15">
    <path d="M 44.103906 300.504317 
L 325.19952 300.504317 
" style="fill: none; stroke: #000000; stroke-width: 0.8; stroke-linejoin: miter; stroke-linecap: square"/>
   </g>
   <g id="patch_16">
    <path d="M 44.103906 211.171724 
L 325.19952 211.171724 
" style="fill: none; stroke: #000000; stroke-width: 0.8; stroke-linejoin: miter; stroke-linecap: square"/>
   </g>
  </g>
 </g>
 <defs>
  <clipPath id="p3e9844182a">
   <rect x="44.103906" y="13.505579" width="281.095614" height="89.332593"/>
  </clipPath>
  <clipPath id="p01eeee4bd9">
   <rect x="44.103906" y="112.338651" width="281.095614" height="89.332593"/>
  </clipPath>
  <clipPath id="p0d9033c2cb">
   <rect x="44.103906" y="211.171724" width="281.095614" height="89.332593"/>
  </clipPath>
 </defs>
</svg>
