<?xml version="1.0" encoding="utf-8" standalone="no"?>
<!DOCTYPE svg PUBLIC "-//W3C//DTD SVG 1.1//EN"
  "http://www.w3.org/Graphics/SVG/1.1/DTD/svg11.dtd">
<svg xmlns:xlink="http://www.w3.org/1999/xlink" width="332.39952pt" height="332.39952pt" viewBox="0 0 332.39952 332.39952" xmlns="http://www.w3.org/2000/svg" version="1.1">
 <metadata>
  <rdf:RDF xmlns:dc="http://purl.org/dc/elements/1.1/" xmlns:cc="http://creativecommons.org/ns#" xmlns:rdf="http://www.w3.org/1999/02/22-rdf-syntax-ns#">
   <cc:Work>
    <dc:type rdf:resource="http://purl.org/dc/dcmitype/StillImage"/>
    <dc:date>2026-06-12T14:25:22.391507</dc:date>
    <dc:format>image/svg+xml</dc:format>
    <dc:creator>
     <cc:Agent>
      <dc:title>Matplotlib v3.11.0, https://matplotlib.org/</dc:title>
     </cc:Agent>
    </dc:creator>
   </cc:Work>
  </rdf:RDF>
 </metadata>
 <defs>
  <style type="text/css">*{stroke-linejoin: round; stroke-linecap: butt}</style>
 </defs>
 <g id="figure_1">
  <g id="patch_1">
   <path d="M 0 332.39952 
L 332.39952 332.39952 
L 332.39952 0 
L 0 0 
z
" style="fill: #ffffff"/>
  </g>
  <g id="axes_1">
   <g id="patch_2">
    <path d="M 44.103906 96.532593 
L 325.19952 96.532593 
L 325.19952 7.2 
L 44.103906 7.2 
z
" style="fill: #ffffff"/>
   </g>
   <g id="matplotlib.axis_1">
    <g id="xtick_1">
     <g id="line2d_1">
      <defs>
       <path id="m3d65c13386" d="M 0 0 
L 0 3.5 
" style="stroke: #000000; stroke-width: 0.8"/>
      </defs>
      <g>
       <use xlink:href="#m3d65c13386" x="56.88098" y="96.532593" style="stroke: #000000; stroke-width: 0.8"/>
      </g>
     </g>
    </g>
    <g id="xtick_2">
     <g id="line2d_2">
      <g>
       <use xlink:href="#m3d65c13386" x="88.590991" y="96.532593" style="stroke: #000000; stroke-width: 0.8"/>
      </g>
     </g>
    </g>
    <g id="xtick_3">
     <g id="line2d_3">
      <g>
       <use xlink:href="#m3d65c13386" x="120.301003" y="96.532593" style="stroke: #000000; stroke-width: 0.8"/>
      </g>
     </g>
    </g>
    <g id="xtick_4">
     <g id="line2d_4">
      <g>
       <use xlink:href="#m3d65c13386" x="152.011014" y="96.532593" style="stroke: #000000; stroke-width: 0.8"/>
      </g>
     </g>
    </g>
    <g id="xtick_5">
     <g id="line2d_5">
      <g>
       <use xlink:href="#m3d65c13386" x="183.721026" y="96.532593" style="stroke: #000000; stroke-width: 0.8"/>
      </g>
     </g>
    </g>
    <g id="xtick_6">
     <g id="line2d_6">
      <g>
       <use xlink:href="#m3d65c13386" x="215.431037" y="96.532593" style="stroke: #000000; stroke-width: 0.8"/>
      </g>
     </g>
    </g>
    <g id="xtick_7">
     <g id="line2d_7">
      <g>
       <use xlink:href="#m3d65c13386" x="247.141049" y="96.532593" style="stroke: #000000; stroke-width: 0.8"/>
      </g>
     </g>
    </g>
    <g id="xtick_8">
     <g id="line2d_8">
      <g>
       <use xlink:href="#m3d65c13386" x="278.85106" y="96.532593" style="stroke: #000000; stroke-width: 0.8"/>
      </g>
     </g>
    </g>
    <g id="xtick_9">
     <g id="line2d_9">
      <g>
       <use xlink:href="#m3d65c13386" x="310.561072" y="96.532593" style="stroke: #000000; stroke-width: 0.8"/>
      </g>
     </g>
    </g>
   </g>
   <g id="matplotlib.axis_2">
    <g id="ytick_1">
     <g id="line2d_10">
      <defs>
       <path id="m8e2535c8b7" d="M 0 0 
L -3.5 0 
" style="stroke: #000000; stroke-width: 0.8"/>
      </defs>
      <g>
       <use xlink:href="#m8e2535c8b7" x="44.103906" y="92.472021" style="stroke: #000000; stroke-width: 0.8"/>
      </g>
     </g>
     <g id="text_1">
      <!-- 0 -->
      <g transform="translate(30.741406 96.270849) scale(0.1 -0.1)">
       <defs>
        <path id="DejaVuSans-13" d="M 2034 4250 
Q 1547 4250 1301 3770 
Q 1056 3291 1056 2328 
Q 1056 1369 1301 889 
Q 1547 409 2034 409 
Q 2525 409 2770 889 
Q 3016 1369 3016 2328 
Q 3016 3291 2770 3770 
Q 2525 4250 2034 4250 
z
M 2034 4750 
Q 2819 4750 3233 4129 
Q 3647 3509 3647 2328 
Q 3647 1150 3233 529 
Q 2819 -91 2034 -91 
Q 1250 -91 836 529 
Q 422 1150 422 2328 
Q 422 3509 836 4129 
Q 1250 4750 2034 4750 
z
" transform="scale(0.015625)"/>
       </defs>
       <use xlink:href="#DejaVuSans-13"/>
      </g>
     </g>
    </g>
    <g id="ytick_2">
     <g id="line2d_11">
      <g>
       <use xlink:href="#m8e2535c8b7" x="44.103906" y="51.866296" style="stroke: #000000; stroke-width: 0.8"/>
      </g>
     </g>
     <g id="text_2">
      <!-- 5 -->
      <g transform="translate(30.741406 55.665125) scale(0.1 -0.1)">
       <defs>
        <path id="DejaVuSans-18" d="M 691 4666 
L 3169 4666 
L 3169 4134 
L 1269 4134 
L 1269 2991 
Q 1406 3038 1543 3061 
Q 1681 3084 1819 3084 
Q 2600 3084 3056 2656 
Q 3513 2228 3513 1497 
Q 3513 744 3044 326 
Q 2575 -91 1722 -91 
Q 1428 -91 1123 -41 
Q 819 9 494 109 
L 494 744 
Q 775 591 1075 516 
Q 1375 441 1709 441 
Q 2250 441 2565 725 
Q 2881 1009 2881 1497 
Q 2881 1984 2565 2268 
Q 2250 2553 1709 2553 
Q 1456 2553 1204 2497 
Q 953 2441 691 2322 
L 691 4666 
z
" transform="scale(0.015625)"/>
       </defs>
       <use xlink:href="#DejaVuSans-18"/>
      </g>
     </g>
    </g>
    <g id="ytick_3">
     <g id="line2d_12">
      <g>
       <use xlink:href="#m8e2535c8b7" x="44.103906" y="11.260572" style="stroke: #000000; stroke-width: 0.8"/>
      </g>
     </g>
     <g id="text_3">
      <!-- 10 -->
      <g transform="translate(24.378906 15.059401) scale(0.1 -0.1)">
       <defs>
        <path id="DejaVuSans-14" d="M 794 531 
L 1825 531 
L 1825 4091 
L 703 3866 
L 703 4441 
L 1819 4666 
L 2450 4666 
L 2450 531 
L 3481 531 
L 3481 0 
L 794 0 
L 794 531 
z
" transform="scale(0.015625)"/>
       </defs>
       <use xlink:href="#DejaVuSans-14"/>
       <use xlink:href="#DejaVuSans-13" transform="translate(63.625 0)"/>
      </g>
     </g>
    </g>
    <g id="text_4">
     <!-- Extracellular lactose -->
     <g transform="translate(17.976563 102.838171) rotate(-90) scale(0.1 -0.1)">
      <defs>
       <path id="DejaVuSans-28" d="M 628 4666 
L 3578 4666 
L 3578 4134 
L 1259 4134 
L 1259 2753 
L 3481 2753 
L 3481 2222 
L 1259 2222 
L 1259 531 
L 3634 531 
L 3634 0 
L 628 0 
L 628 4666 
z
" transform="scale(0.015625)"/>
       <path id="DejaVuSans-5b" d="M 3513 3500 
L 2247 1797 
L 3578 0 
L 2900 0 
L 1881 1375 
L 863 0 
L 184 0 
L 1544 1831 
L 300 3500 
L 978 3500 
L 1906 2253 
L 2834 3500 
L 3513 3500 
z
" transform="scale(0.015625)"/>
       <path id="DejaVuSans-57" d="M 1172 4494 
L 1172 3500 
L 2356 3500 
L 2356 3053 
L 1172 3053 
L 1172 1153 
Q 1172 725 1289 603 
Q 1406 481 1766 481 
L 2356 481 
L 2356 0 
L 1766 0 
Q 1100 0 847 248 
Q 594 497 594 1153 
L 594 3053 
L 172 3053 
L 172 3500 
L 594 3500 
L 594 4494 
L 1172 4494 
z
" transform="scale(0.015625)"/>
       <path id="DejaVuSans-55" d="M 2631 2963 
Q 2534 3019 2420 3045 
Q 2306 3072 2169 3072 
Q 1681 3072 1420 2755 
Q 1159 2438 1159 1844 
L 1159 0 
L 581 0 
L 581 3500 
L 1159 3500 
L 1159 2956 
Q 1341 3275 1631 3429 
Q 1922 3584 2338 3584 
Q 2397 3584 2469 3576 
Q 2541 3569 2628 3553 
L 2631 2963 
z
" transform="scale(0.015625)"/>
       <path id="DejaVuSans-44" d="M 2194 1759 
Q 1497 1759 1228 1600 
Q 959 1441 959 1056 
Q 959 750 1161 570 
Q 1363 391 1709 391 
Q 2188 391 2477 730 
Q 2766 1069 2766 1631 
L 2766 1759 
L 2194 1759 
z
M 3341 1997 
L 3341 0 
L 2766 0 
L 2766 531 
Q 2569 213 2275 61 
Q 1981 -91 1556 -91 
Q 1019 -91 701 211 
Q 384 513 384 1019 
Q 384 1609 779 1909 
Q 1175 2209 1959 2209 
L 2766 2209 
L 2766 2266 
Q 2766 2663 2505 2880 
Q 2244 3097 1772 3097 
Q 1472 3097 1187 3025 
Q 903 2953 641 2809 
L 641 3341 
Q 956 3463 1253 3523 
Q 1550 3584 1831 3584 
Q 2591 3584 2966 3190 
Q 3341 2797 3341 1997 
z
" transform="scale(0.015625)"/>
       <path id="DejaVuSans-46" d="M 3122 3366 
L 3122 2828 
Q 2878 2963 2633 3030 
Q 2388 3097 2138 3097 
Q 1578 3097 1268 2742 
Q 959 2388 959 1747 
Q 959 1106 1268 751 
Q 1578 397 2138 397 
Q 2388 397 2633 464 
Q 2878 531 3122 666 
L 3122 134 
Q 2881 22 2623 -34 
Q 2366 -91 2075 -91 
Q 1284 -91 818 406 
Q 353 903 353 1747 
Q 353 2603 823 3093 
Q 1294 3584 2113 3584 
Q 2378 3584 2631 3529 
Q 2884 3475 3122 3366 
z
" transform="scale(0.015625)"/>
       <path id="DejaVuSans-48" d="M 3597 1894 
L 3597 1613 
L 953 1613 
Q 991 1019 1311 708 
Q 1631 397 2203 397 
Q 2534 397 2845 478 
Q 3156 559 3463 722 
L 3463 178 
Q 3153 47 2828 -22 
Q 2503 -91 2169 -91 
Q 1331 -91 842 396 
Q 353 884 353 1716 
Q 353 2575 817 3079 
Q 1281 3584 2069 3584 
Q 2775 3584 3186 3129 
Q 3597 2675 3597 1894 
z
M 3022 2063 
Q 3016 2534 2758 2815 
Q 2500 3097 2075 3097 
Q 1594 3097 1305 2825 
Q 1016 2553 972 2059 
L 3022 2063 
z
" transform="scale(0.015625)"/>
       <path id="DejaVuSans-4f" d="M 603 4863 
L 1178 4863 
L 1178 0 
L 603 0 
L 603 4863 
z
" transform="scale(0.015625)"/>
       <path id="DejaVuSans-58" d="M 544 1381 
L 544 3500 
L 1119 3500 
L 1119 1403 
Q 1119 906 1312 657 
Q 1506 409 1894 409 
Q 2359 409 2629 706 
Q 2900 1003 2900 1516 
L 2900 3500 
L 3475 3500 
L 3475 0 
L 2900 0 
L 2900 538 
Q 2691 219 2414 64 
Q 2138 -91 1772 -91 
Q 1169 -91 856 284 
Q 544 659 544 1381 
z
M 1991 3584 
L 1991 3584 
z
" transform="scale(0.015625)"/>
       <path id="DejaVuSans-3" transform="scale(0.015625)"/>
       <path id="DejaVuSans-52" d="M 1959 3097 
Q 1497 3097 1228 2736 
Q 959 2375 959 1747 
Q 959 1119 1226 758 
Q 1494 397 1959 397 
Q 2419 397 2687 759 
Q 2956 1122 2956 1747 
Q 2956 2369 2687 2733 
Q 2419 3097 1959 3097 
z
M 1959 3584 
Q 2709 3584 3137 3096 
Q 3566 2609 3566 1747 
Q 3566 888 3137 398 
Q 2709 -91 1959 -91 
Q 1206 -91 779 398 
Q 353 888 353 1747 
Q 353 2609 779 3096 
Q 1206 3584 1959 3584 
z
" transform="scale(0.015625)"/>
       <path id="DejaVuSans-56" d="M 2834 3397 
L 2834 2853 
Q 2591 2978 2328 3040 
Q 2066 3103 1784 3103 
Q 1356 3103 1142 2972 
Q 928 2841 928 2578 
Q 928 2378 1081 2264 
Q 1234 2150 1697 2047 
L 1894 2003 
Q 2506 1872 2764 1633 
Q 3022 1394 3022 966 
Q 3022 478 2636 193 
Q 2250 -91 1575 -91 
Q 1294 -91 989 -36 
Q 684 19 347 128 
L 347 722 
Q 666 556 975 473 
Q 1284 391 1588 391 
Q 1994 391 2212 530 
Q 2431 669 2431 922 
Q 2431 1156 2273 1281 
Q 2116 1406 1581 1522 
L 1381 1569 
Q 847 1681 609 1914 
Q 372 2147 372 2553 
Q 372 3047 722 3315 
Q 1072 3584 1716 3584 
Q 2034 3584 2315 3537 
Q 2597 3491 2834 3397 
z
" transform="scale(0.015625)"/>
      </defs>
      <use xlink:href="#DejaVuSans-28"/>
      <use xlink:href="#DejaVuSans-5b" transform="translate(63.1875 0)"/>
      <use xlink:href="#DejaVuSans-57" transform="translate(122.375 0)"/>
      <use xlink:href="#DejaVuSans-55" transform="translate(161.578125 0)"/>
      <use xlink:href="#DejaVuSans-44" transform="translate(202.6875 0)"/>
      <use xlink:href="#DejaVuSans-46" transform="translate(263.96875 0)"/>
      <use xlink:href="#DejaVuSans-48" transform="translate(318.953125 0)"/>
      <use xlink:href="#DejaVuSans-4f" transform="translate(380.484375 0)"/>
      <use xlink:href="#DejaVuSans-4f" transform="translate(408.265625 0)"/>
      <use xlink:href="#DejaVuSans-58" transform="translate(436.046875 0)"/>
      <use xlink:href="#DejaVuSans-4f" transform="translate(499.421875 0)"/>
      <use xlink:href="#DejaVuSans-44" transform="translate(527.203125 0)"/>
      <use xlink:href="#DejaVuSans-55" transform="translate(588.484375 0)"/>
      <use xlink:href="#DejaVuSans-3" transform="translate(629.59375 0)"/>
      <use xlink:href="#DejaVuSans-4f" transform="translate(661.375 0)"/>
      <use xlink:href="#DejaVuSans-44" transform="translate(689.15625 0)"/>
      <use xlink:href="#DejaVuSans-46" transform="translate(750.4375 0)"/>
      <use xlink:href="#DejaVuSans-57" transform="translate(805.421875 0)"/>
      <use xlink:href="#DejaVuSans-52" transform="translate(844.625 0)"/>
      <use xlink:href="#DejaVuSans-56" transform="translate(905.8125 0)"/>
      <use xlink:href="#DejaVuSans-48" transform="translate(957.90625 0)"/>
     </g>
    </g>
   </g>
   <g id="line2d_13">
    <path d="M 56.88098 92.472021 
L 155.521107 92.472021 
L 155.609589 11.260572 
L 156.272961 11.341784 
L 156.389835 11.66663 
L 156.43434 11.747841 
L 156.579524 13.209647 
L 156.697047 14.833876 
L 156.710779 14.915088 
L 156.8533 16.620528 
L 156.876687 16.701739 
L 157.382744 20.193832 
L 157.658057 20.599889 
L 157.71694 20.6811 
L 157.825361 20.762312 
L 158.272842 20.843523 
L 158.369032 21.249581 
L 158.608165 21.655638 
L 158.707932 22.061695 
L 158.827661 22.142906 
L 158.929695 22.630175 
L 158.959483 22.711387 
L 159.067699 23.604713 
L 159.164256 24.498038 
L 159.500996 25.878633 
L 159.546665 25.959845 
L 159.803043 27.421651 
L 159.922901 28.477399 
L 159.936567 28.558611 
L 160.251856 31.157377 
L 160.787647 33.431298 
L 160.914597 34.080989 
L 161.017361 34.162201 
L 161.22157 35.136738 
L 161.286238 35.21795 
L 161.483276 35.948853 
L 162.051659 36.030064 
L 162.194712 36.517333 
L 162.218306 36.598544 
L 162.386133 37.004601 
L 162.596664 37.085813 
L 162.740202 37.654293 
L 162.894294 37.979139 
L 162.937652 38.06035 
L 163.042925 38.222773 
L 163.180042 38.303985 
L 163.474012 38.953676 
L 163.664303 39.197311 
L 163.751092 39.359733 
L 164.213637 39.440945 
L 164.428918 40.253059 
L 164.576714 40.82154 
L 164.740379 40.902751 
L 164.836996 40.983962 
L 164.94075 41.065174 
L 165.022315 41.146385 
L 165.128742 41.227597 
L 165.456192 42.364557 
L 165.513868 42.445768 
L 165.561795 42.52698 
L 165.775755 42.608191 
L 165.862869 42.770614 
L 166.176511 42.851826 
L 166.515289 43.420306 
L 166.576157 43.501517 
L 166.779746 44.394843 
L 166.945821 45.937861 
L 167.030334 46.019072 
L 167.475234 48.374204 
L 167.500924 48.455416 
L 167.601479 49.429953 
L 168.355577 51.947508 
L 168.425294 52.028719 
L 168.595042 52.515988 
L 168.612921 52.597199 
L 168.741317 52.678411 
L 168.863713 52.759622 
L 169.021845 53.003257 
L 169.211254 53.084468 
L 169.344413 53.409314 
L 169.399348 53.490525 
L 169.781409 54.627486 
L 170.211209 57.957155 
L 170.331693 58.931692 
L 170.53466 60.718344 
L 170.565417 60.799556 
L 170.692783 61.449247 
L 170.837177 61.774093 
L 171.008557 62.261362 
L 171.044869 62.342573 
L 171.236641 62.667419 
L 172.259408 62.748631 
L 172.406933 63.317111 
L 172.476053 63.398322 
L 172.621252 63.723168 
L 173.158674 65.184974 
L 173.278365 65.266185 
L 173.397742 65.834666 
L 173.44527 65.915877 
L 173.606951 66.484357 
L 173.741506 66.565569 
L 173.857989 66.809203 
L 173.88679 66.890414 
L 174.003981 67.296472 
L 174.016798 67.377683 
L 174.168538 67.946163 
L 174.373345 68.758278 
L 174.491498 69.489181 
L 174.528374 69.570392 
L 174.674966 70.220084 
L 174.873819 71.032198 
L 175.03925 71.357044 
L 175.077278 71.438255 
L 175.181102 71.925524 
L 175.425612 72.494004 
L 175.565411 72.575216 
L 175.743668 72.81885 
L 175.845478 72.981273 
L 175.957521 73.062484 
L 176.085155 73.549753 
L 176.203621 74.118233 
L 176.223955 74.199445 
L 176.406368 74.767925 
L 176.466894 74.849136 
L 176.590784 75.173982 
L 177.557799 75.255194 
L 177.702605 75.417616 
L 177.924586 75.498828 
L 178.080841 75.661251 
L 178.216103 75.742462 
L 178.425185 76.067308 
L 178.623906 76.148519 
L 179.251217 76.554577 
L 179.302788 76.635788 
L 180.343999 77.935171 
L 180.485013 78.42244 
L 180.687324 78.503651 
L 180.76762 78.584863 
L 181.260072 78.666074 
L 181.332012 78.747286 
L 181.436197 78.828497 
L 182.943498 78.909709 
L 182.997598 78.99092 
L 183.160067 79.072132 
L 184.415786 79.721823 
L 184.562648 80.046669 
L 184.743198 80.209092 
L 185.112366 80.290303 
L 185.248824 80.371515 
L 185.911159 80.452726 
L 186.016153 80.615149 
L 186.152028 80.696361 
L 187.024879 80.777572 
L 187.157041 80.858783 
L 188.1473 80.939995 
L 188.476893 81.183629 
L 188.644055 81.264841 
L 189.035384 81.508475 
L 189.149343 81.833321 
L 189.177632 81.914532 
L 189.287686 81.995744 
L 189.642319 82.076955 
L 189.64843 82.158167 
L 191.702312 82.239378 
L 191.898685 82.401801 
L 192.332203 82.483012 
L 192.464309 82.645435 
L 192.635937 82.726647 
L 192.752931 82.970281 
L 193.540384 83.051493 
L 193.860395 83.295127 
L 194.383602 83.376338 
L 194.446126 83.45755 
L 195.023832 83.538761 
L 196.093415 83.944818 
L 196.871648 84.02603 
L 197.012262 84.107241 
L 197.203696 84.188453 
L 197.327158 84.350876 
L 197.571244 84.432087 
L 197.664939 84.675721 
L 198.361316 84.756933 
L 198.469193 84.919356 
L 198.646409 85.081779 
L 198.773045 85.16299 
L 199.38059 85.244202 
L 199.547779 85.406625 
L 200.058538 85.487836 
L 200.097493 85.569047 
L 200.426262 85.812682 
L 200.593222 85.975105 
L 200.763204 86.056316 
L 200.953291 86.137528 
L 201.284048 86.218739 
L 201.574669 86.462373 
L 202.412724 86.543585 
L 202.578635 86.706008 
L 202.655454 86.868431 
L 202.780467 86.949642 
L 203.051456 87.274488 
L 203.503331 87.355699 
L 203.567968 87.518122 
L 204.110069 87.599334 
L 204.424218 87.761757 
L 204.54193 87.842968 
L 204.866545 88.167814 
L 205.352871 88.249025 
L 205.459432 88.330237 
L 205.954983 88.411448 
L 206.029805 88.49266 
L 206.639789 88.573871 
L 206.813462 88.655082 
L 207.946848 88.736294 
L 208.254675 88.817505 
L 208.913733 88.898717 
L 209.12531 89.06114 
L 209.951736 89.142351 
L 210.114473 89.223563 
L 212.189217 89.304774 
L 212.488484 89.548408 
L 212.961209 89.62962 
L 213.13908 89.710831 
L 214.076455 89.792043 
L 214.45368 89.954466 
L 216.535719 90.035677 
L 216.772445 90.116889 
L 217.729353 90.1981 
L 218.07119 90.279311 
L 218.955188 90.360523 
L 219.133366 90.685369 
L 219.707638 90.76658 
L 219.815533 90.847792 
L 220.18681 90.929003 
L 220.317776 91.010214 
L 221.744236 91.091426 
L 221.907803 91.172637 
L 222.907778 91.253849 
L 223.199788 91.33506 
L 242.480985 91.416272 
L 242.692814 91.497483 
L 243.654536 91.659906 
L 312.422447 91.741117 
L 312.422447 91.741117 
" clip-path="url(#p3812b0d726)" style="fill: none; stroke: #000000; stroke-width: 1.5; stroke-linecap: square"/>
   </g>
   <g id="patch_3">
    <path d="M 44.103906 96.532593 
L 44.103906 7.2 
" style="fill: none; stroke: #000000; stroke-width: 0.8; stroke-linejoin: miter; stroke-linecap: square"/>
   </g>
   <g id="patch_4">
    <path d="M 325.19952 96.532593 
L 325.19952 7.2 
" style="fill: none; stroke: #000000; stroke-width: 0.8; stroke-linejoin: miter; stroke-linecap: square"/>
   </g>
   <g id="patch_5">
    <path d="M 44.103906 96.532593 
L 325.19952 96.532593 
" style="fill: none; stroke: #000000; stroke-width: 0.8; stroke-linejoin: miter; stroke-linecap: square"/>
   </g>
   <g id="patch_6">
    <path d="M 44.103906 7.2 
L 325.19952 7.2 
" style="fill: none; stroke: #000000; stroke-width: 0.8; stroke-linejoin: miter; stroke-linecap: square"/>
   </g>
  </g>
  <g id="axes_2">
   <g id="patch_7">
    <path d="M 44.103906 195.365666 
L 325.19952 195.365666 
L 325.19952 106.033073 
L 44.103906 106.033073 
z
" style="fill: #ffffff"/>
   </g>
   <g id="matplotlib.axis_3">
    <g id="xtick_10">
     <g id="line2d_14">
      <g>
       <use xlink:href="#m3d65c13386" x="56.88098" y="195.365666" style="stroke: #000000; stroke-width: 0.8"/>
      </g>
     </g>
    </g>
    <g id="xtick_11">
     <g id="line2d_15">
      <g>
       <use xlink:href="#m3d65c13386" x="88.590991" y="195.365666" style="stroke: #000000; stroke-width: 0.8"/>
      </g>
     </g>
    </g>
    <g id="xtick_12">
     <g id="line2d_16">
      <g>
       <use xlink:href="#m3d65c13386" x="120.301003" y="195.365666" style="stroke: #000000; stroke-width: 0.8"/>
      </g>
     </g>
    </g>
    <g id="xtick_13">
     <g id="line2d_17">
      <g>
       <use xlink:href="#m3d65c13386" x="152.011014" y="195.365666" style="stroke: #000000; stroke-width: 0.8"/>
      </g>
     </g>
    </g>
    <g id="xtick_14">
     <g id="line2d_18">
      <g>
       <use xlink:href="#m3d65c13386" x="183.721026" y="195.365666" style="stroke: #000000; stroke-width: 0.8"/>
      </g>
     </g>
    </g>
    <g id="xtick_15">
     <g id="line2d_19">
      <g>
       <use xlink:href="#m3d65c13386" x="215.431037" y="195.365666" style="stroke: #000000; stroke-width: 0.8"/>
      </g>
     </g>
    </g>
    <g id="xtick_16">
     <g id="line2d_20">
      <g>
       <use xlink:href="#m3d65c13386" x="247.141049" y="195.365666" style="stroke: #000000; stroke-width: 0.8"/>
      </g>
     </g>
    </g>
    <g id="xtick_17">
     <g id="line2d_21">
      <g>
       <use xlink:href="#m3d65c13386" x="278.85106" y="195.365666" style="stroke: #000000; stroke-width: 0.8"/>
      </g>
     </g>
    </g>
    <g id="xtick_18">
     <g id="line2d_22">
      <g>
       <use xlink:href="#m3d65c13386" x="310.561072" y="195.365666" style="stroke: #000000; stroke-width: 0.8"/>
      </g>
     </g>
    </g>
   </g>
   <g id="matplotlib.axis_4">
    <g id="ytick_4">
     <g id="line2d_23">
      <g>
       <use xlink:href="#m8e2535c8b7" x="44.103906" y="191.305093" style="stroke: #000000; stroke-width: 0.8"/>
      </g>
     </g>
     <g id="text_5">
      <!-- 0 -->
      <g transform="translate(30.741406 195.103922) scale(0.1 -0.1)">
       <use xlink:href="#DejaVuSans-13"/>
      </g>
     </g>
    </g>
    <g id="ytick_5">
     <g id="line2d_24">
      <g>
       <use xlink:href="#m8e2535c8b7" x="44.103906" y="150.699369" style="stroke: #000000; stroke-width: 0.8"/>
      </g>
     </g>
     <g id="text_6">
      <!-- 5 -->
      <g transform="translate(30.741406 154.498197) scale(0.1 -0.1)">
       <use xlink:href="#DejaVuSans-18"/>
      </g>
     </g>
    </g>
    <g id="ytick_6">
     <g id="line2d_25">
      <g>
       <use xlink:href="#m8e2535c8b7" x="44.103906" y="110.093645" style="stroke: #000000; stroke-width: 0.8"/>
      </g>
     </g>
     <g id="text_7">
      <!-- 10 -->
      <g transform="translate(24.378906 113.892473) scale(0.1 -0.1)">
       <use xlink:href="#DejaVuSans-14"/>
       <use xlink:href="#DejaVuSans-13" transform="translate(63.625 0)"/>
      </g>
     </g>
    </g>
    <g id="text_8">
     <!-- LacY -->
     <g transform="translate(17.976563 162.352494) rotate(-90) scale(0.1 -0.1)">
      <defs>
       <path id="DejaVuSans-2f" d="M 628 4666 
L 1259 4666 
L 1259 531 
L 3531 531 
L 3531 0 
L 628 0 
L 628 4666 
z
" transform="scale(0.015625)"/>
       <path id="DejaVuSans-3c" d="M -13 4666 
L 666 4666 
L 1959 2747 
L 3244 4666 
L 3922 4666 
L 2272 2222 
L 2272 0 
L 1638 0 
L 1638 2222 
L -13 4666 
z
" transform="scale(0.015625)"/>
      </defs>
      <use xlink:href="#DejaVuSans-2f"/>
      <use xlink:href="#DejaVuSans-44" transform="translate(55.71875 0)"/>
      <use xlink:href="#DejaVuSans-46" transform="translate(117 0)"/>
      <use xlink:href="#DejaVuSans-3c" transform="translate(171.984375 0)"/>
     </g>
    </g>
   </g>
   <g id="line2d_26">
    <path d="M 56.88098 110.093645 
L 56.907935 110.093645 
L 56.962083 118.21479 
L 57.069561 134.45708 
L 57.12952 142.578225 
L 57.28066 142.578225 
L 57.298244 134.45708 
L 57.517431 142.578225 
L 57.658394 142.578225 
L 57.82796 158.820514 
L 58.126948 175.062804 
L 58.19215 191.305093 
L 59.712415 191.305093 
L 59.877977 183.183949 
L 59.920446 191.305093 
L 64.911094 191.305093 
L 65.231997 183.183949 
L 65.341252 191.305093 
L 82.726228 191.305093 
L 82.9194 183.183949 
L 84.701317 191.305093 
L 84.716049 183.183949 
L 84.858345 175.062804 
L 84.86297 166.941659 
L 85.183084 175.062804 
L 85.408605 175.062804 
L 85.527479 191.305093 
L 85.587913 183.183949 
L 85.776931 183.183949 
L 85.914536 191.305093 
L 89.782034 191.305093 
L 90.169356 175.062804 
L 90.170649 166.941659 
L 90.666117 166.941659 
L 90.70454 183.183949 
L 91.471778 183.183949 
L 91.639629 175.062804 
L 91.981733 191.305093 
L 108.878869 191.305093 
L 108.983895 183.183949 
L 109.102841 183.183949 
L 109.241052 191.305093 
L 109.474561 191.305093 
L 109.515783 183.183949 
L 109.929104 183.183949 
L 110.276812 175.062804 
L 110.33479 183.183949 
L 110.508946 183.183949 
L 110.538337 191.305093 
L 119.242499 191.305093 
L 119.419797 183.183949 
L 121.506804 183.183949 
L 123.342627 191.305093 
L 131.061685 191.305093 
L 131.246778 183.183949 
L 131.532527 183.183949 
L 131.639625 191.305093 
L 135.948123 191.305093 
L 136.031326 183.183949 
L 136.053054 191.305093 
L 145.982814 191.305093 
L 146.242017 175.062804 
L 146.262718 183.183949 
L 146.291543 175.062804 
L 146.403943 166.941659 
L 146.409249 175.062804 
L 146.990313 175.062804 
L 147.603611 183.183949 
L 147.8474 183.183949 
L 148.160681 175.062804 
L 148.272855 175.062804 
L 149.338029 191.305093 
L 149.795308 191.305093 
L 149.846863 175.062804 
L 149.947104 175.062804 
L 150.098976 183.183949 
L 150.231854 183.183949 
L 150.77135 191.305093 
L 155.857641 191.305093 
L 156.283234 183.183949 
L 156.522017 150.699369 
L 156.801888 150.699369 
L 156.921241 166.941659 
L 156.970796 166.941659 
L 157.071063 158.820514 
L 157.157495 158.820514 
L 157.266613 175.062804 
L 157.294636 175.062804 
L 157.382744 183.183949 
L 157.732312 183.183949 
L 157.825361 191.305093 
L 158.222545 191.305093 
L 158.34073 183.183949 
L 158.488407 183.183949 
L 158.591863 175.062804 
L 158.736929 175.062804 
L 158.792062 183.183949 
L 158.846215 175.062804 
L 158.951767 175.062804 
L 159.055397 166.941659 
L 159.214436 166.941659 
L 159.33857 183.183949 
L 159.471933 183.183949 
L 159.594242 175.062804 
L 159.742411 175.062804 
L 159.869594 158.820514 
L 160.045618 158.820514 
L 160.113925 150.699369 
L 160.156184 158.820514 
L 160.239707 158.820514 
L 160.289946 150.699369 
L 160.342228 158.820514 
L 160.509846 158.820514 
L 160.61827 175.062804 
L 160.647037 175.062804 
L 160.677373 183.183949 
L 160.685701 166.941659 
L 160.753284 166.941659 
L 160.986915 166.941659 
L 161.098277 175.062804 
L 161.383803 175.062804 
L 161.483276 183.183949 
L 161.582521 183.183949 
L 161.692559 191.305093 
L 161.963958 191.305093 
L 162.111853 183.183949 
L 162.234638 183.183949 
L 162.349149 175.062804 
L 162.386133 175.062804 
L 162.494597 183.183949 
L 162.736633 183.183949 
L 162.789323 175.062804 
L 162.842162 183.183949 
L 162.972902 183.183949 
L 162.999516 175.062804 
L 163.042925 183.183949 
L 163.153327 183.183949 
L 163.247038 166.941659 
L 163.267192 175.062804 
L 163.281205 175.062804 
L 163.390093 183.183949 
L 163.643907 183.183949 
L 163.693382 175.062804 
L 163.722009 191.305093 
L 163.729684 191.305093 
L 163.915023 191.305093 
L 164.213637 183.183949 
L 164.265309 183.183949 
L 164.41351 166.941659 
L 164.428918 175.062804 
L 164.540498 175.062804 
L 164.670088 183.183949 
L 165.777253 183.183949 
L 165.862869 191.305093 
L 166.092224 191.305093 
L 166.282161 175.062804 
L 166.639992 175.062804 
L 166.769384 158.820514 
L 166.833406 158.820514 
L 166.910631 150.699369 
L 166.93859 158.820514 
L 167.02052 158.820514 
L 167.12554 166.941659 
L 167.130286 158.820514 
L 167.148083 158.820514 
L 167.256021 166.941659 
L 167.370272 166.941659 
L 167.481365 158.820514 
L 167.63379 158.820514 
L 167.720056 166.941659 
L 167.731193 158.820514 
L 167.83852 158.820514 
L 167.873816 150.699369 
L 167.947493 158.820514 
L 168.043924 158.820514 
L 168.141533 166.941659 
L 168.18179 166.941659 
L 168.288771 183.183949 
L 169.001062 183.183949 
L 169.049421 191.305093 
L 169.108224 183.183949 
L 169.434174 183.183949 
L 169.593943 175.062804 
L 169.648547 175.062804 
L 169.76514 158.820514 
L 169.86381 158.820514 
L 169.993242 134.45708 
L 170.038712 142.578225 
L 170.10003 134.45708 
L 170.425998 134.45708 
L 170.525607 142.578225 
L 170.53466 134.45708 
L 170.578747 134.45708 
L 170.692783 142.578225 
L 170.701639 142.578225 
L 170.824658 166.941659 
L 171.066679 166.941659 
L 171.178533 183.183949 
L 171.268385 183.183949 
L 171.359229 191.305093 
L 172.088231 191.305093 
L 172.219999 175.062804 
L 172.355828 166.941659 
L 172.797272 166.941659 
L 172.799614 158.820514 
L 172.90255 166.941659 
L 172.974938 166.941659 
L 173.107897 175.062804 
L 173.223396 175.062804 
L 173.285092 150.699369 
L 173.384256 158.820514 
L 173.561382 158.820514 
L 173.606951 166.941659 
L 173.657851 158.820514 
L 173.687554 158.820514 
L 173.779371 150.699369 
L 173.785523 158.820514 
L 173.897348 158.820514 
L 173.931016 166.941659 
L 174.003981 158.820514 
L 174.217503 158.820514 
L 174.24841 150.699369 
L 174.308103 158.820514 
L 174.415702 158.820514 
L 174.50998 150.699369 
L 174.634006 158.820514 
L 174.793769 158.820514 
L 174.906404 166.941659 
L 175.262006 166.941659 
L 175.294906 158.820514 
L 175.341685 175.062804 
L 175.369431 175.062804 
L 175.425612 175.062804 
L 175.492171 158.820514 
L 175.525384 166.941659 
L 175.730004 166.941659 
L 175.845478 175.062804 
L 176.015149 175.062804 
L 176.126644 158.820514 
L 176.288968 158.820514 
L 176.338821 150.699369 
L 176.370371 158.820514 
L 176.486927 158.820514 
L 176.590784 166.941659 
L 176.863783 191.305093 
L 176.952329 191.305093 
L 177.041775 183.183949 
L 177.533318 183.183949 
L 177.646018 175.062804 
L 177.719635 183.183949 
L 177.741932 175.062804 
L 177.869039 175.062804 
L 177.972601 183.183949 
L 177.978999 175.062804 
L 178.063397 175.062804 
L 178.15513 166.941659 
L 178.164993 175.062804 
L 178.267846 175.062804 
L 178.378459 183.183949 
L 178.455761 183.183949 
L 178.487605 191.305093 
L 178.52941 183.183949 
L 178.975453 183.183949 
L 179.074705 175.062804 
L 179.140888 175.062804 
L 179.251217 166.941659 
L 179.37566 166.941659 
L 179.460578 175.062804 
L 179.477041 166.941659 
L 179.527254 166.941659 
L 179.586236 175.062804 
L 179.635601 166.941659 
L 179.843933 166.941659 
L 179.906482 175.062804 
L 180.125122 175.062804 
L 180.215522 183.183949 
L 180.372486 166.941659 
L 180.442563 166.941659 
L 180.528552 158.820514 
L 180.76762 175.062804 
L 180.832026 158.820514 
L 180.860199 175.062804 
L 180.891976 175.062804 
L 180.998332 183.183949 
L 181.112119 175.062804 
L 181.225402 175.062804 
L 181.332012 183.183949 
L 181.381685 183.183949 
L 181.543295 191.305093 
L 182.796386 191.305093 
L 182.997598 175.062804 
L 183.378416 175.062804 
L 183.402917 183.183949 
L 183.461652 166.941659 
L 183.781057 166.941659 
L 183.840148 175.062804 
L 183.907474 175.062804 
L 184.006633 166.941659 
L 184.184428 175.062804 
L 184.224903 166.941659 
L 184.415786 175.062804 
L 184.729363 175.062804 
L 184.839277 191.305093 
L 184.98703 183.183949 
L 185.563971 183.183949 
L 185.592118 191.305093 
L 185.713908 191.305093 
L 185.923841 175.062804 
L 186.016153 183.183949 
L 186.09402 183.183949 
L 186.152028 191.305093 
L 186.575838 191.305093 
L 186.899391 183.183949 
L 187.157041 183.183949 
L 187.274163 166.941659 
L 187.289315 175.062804 
L 187.465656 183.183949 
L 187.741516 183.183949 
L 187.788848 175.062804 
L 187.971032 183.183949 
L 188.104811 183.183949 
L 188.1473 175.062804 
L 188.33891 175.062804 
L 188.411202 166.941659 
L 188.442474 175.062804 
L 188.552248 175.062804 
L 188.644055 166.941659 
L 188.845205 166.941659 
L 188.909233 175.062804 
L 189.036837 175.062804 
L 189.177632 166.941659 
L 189.384708 166.941659 
L 189.489763 175.062804 
L 189.58194 175.062804 
L 189.64843 183.183949 
L 189.779579 183.183949 
L 189.934573 191.305093 
L 191.343408 191.305093 
L 191.612585 183.183949 
L 191.693269 166.941659 
L 191.702312 175.062804 
L 191.751657 175.062804 
L 191.824644 183.183949 
L 191.941098 183.183949 
L 191.978465 175.062804 
L 192.051718 183.183949 
L 192.223932 183.183949 
L 192.38882 175.062804 
L 192.532237 175.062804 
L 192.644673 166.941659 
L 192.709388 166.941659 
L 192.799611 183.183949 
L 193.305025 183.183949 
L 193.493188 175.062804 
L 193.608677 183.183949 
L 193.860395 183.183949 
L 194.048052 166.941659 
L 194.062011 175.062804 
L 194.252001 183.183949 
L 194.289293 183.183949 
L 194.379405 175.062804 
L 194.383602 183.183949 
L 194.446126 183.183949 
L 194.677074 175.062804 
L 194.76499 183.183949 
L 195.557914 183.183949 
L 195.56708 175.062804 
L 195.987538 175.062804 
L 196.093415 183.183949 
L 196.335081 183.183949 
L 196.341145 191.305093 
L 196.438218 183.183949 
L 196.61691 175.062804 
L 196.791306 175.062804 
L 196.871648 183.183949 
L 196.934396 183.183949 
L 197.012262 175.062804 
L 197.086003 175.062804 
L 197.110756 166.941659 
L 197.164138 175.062804 
L 197.318796 175.062804 
L 197.327158 183.183949 
L 197.400217 175.062804 
L 197.625981 175.062804 
L 197.642903 183.183949 
L 197.714166 175.062804 
L 197.961067 175.062804 
L 198.155366 191.305093 
L 198.366532 175.062804 
L 198.435885 175.062804 
L 198.528121 158.820514 
L 198.578397 166.941659 
L 198.773045 166.941659 
L 198.977737 175.062804 
L 198.995156 183.183949 
L 199.417073 183.183949 
L 199.516614 175.062804 
L 199.62964 191.305093 
L 200.035468 175.062804 
L 200.097493 166.941659 
L 200.288569 166.941659 
L 200.314186 175.062804 
L 200.380894 166.941659 
L 200.497254 158.820514 
L 200.616114 166.941659 
L 200.737137 166.941659 
L 200.851192 158.820514 
L 200.953291 175.062804 
L 201.085551 175.062804 
L 201.173785 166.941659 
L 201.25559 191.305093 
L 201.347411 183.183949 
L 201.553211 183.183949 
L 201.562279 191.305093 
L 201.661071 183.183949 
L 202.256449 183.183949 
L 202.575254 166.941659 
L 202.586583 166.941659 
L 202.655454 158.820514 
L 202.829439 158.820514 
L 202.905011 166.941659 
L 203.200616 166.941659 
L 203.206706 175.062804 
L 203.278819 166.941659 
L 203.32646 166.941659 
L 203.342455 175.062804 
L 203.435685 166.941659 
L 203.46014 166.941659 
L 203.567968 175.062804 
L 203.77489 175.062804 
L 203.891692 166.941659 
L 204.083281 166.941659 
L 204.231906 150.699369 
L 204.333065 158.820514 
L 204.424218 150.699369 
L 204.654518 150.699369 
L 204.721827 134.45708 
L 204.795598 134.45708 
L 204.922515 166.941659 
L 205.115518 150.699369 
L 205.332868 150.699369 
L 205.459432 166.941659 
L 205.795661 166.941659 
L 205.954983 175.062804 
L 205.970264 175.062804 
L 205.982056 166.941659 
L 206.029805 175.062804 
L 206.196013 158.820514 
L 206.436607 183.183949 
L 206.593501 183.183949 
L 206.706924 175.062804 
L 206.9143 183.183949 
L 207.27709 183.183949 
L 207.311542 191.305093 
L 207.362262 183.183949 
L 207.921493 158.820514 
L 207.946848 166.941659 
L 208.380276 166.941659 
L 208.577342 175.062804 
L 208.714308 175.062804 
L 208.913733 158.820514 
L 208.9698 158.820514 
L 209.23404 183.183949 
L 209.484649 183.183949 
L 209.61229 175.062804 
L 209.733913 191.305093 
L 209.81897 183.183949 
L 210.099011 183.183949 
L 210.214065 166.941659 
L 210.362801 175.062804 
L 210.431331 175.062804 
L 210.505888 191.305093 
L 210.719702 191.305093 
L 210.771385 183.183949 
L 211.078518 183.183949 
L 211.110894 191.305093 
L 212.189217 175.062804 
L 212.287958 175.062804 
L 212.375883 166.941659 
L 212.381036 175.062804 
L 212.923688 175.062804 
L 213.024919 183.183949 
L 213.033913 175.062804 
L 213.626922 175.062804 
L 213.71298 183.183949 
L 213.718818 175.062804 
L 213.828905 158.820514 
L 213.996395 166.941659 
L 214.076455 158.820514 
L 214.371012 158.820514 
L 214.45368 175.062804 
L 214.478449 166.941659 
L 214.613769 158.820514 
L 214.875697 166.941659 
L 215.048913 183.183949 
L 215.736726 183.183949 
L 215.956962 175.062804 
L 216.165762 175.062804 
L 216.249576 166.941659 
L 216.25521 175.062804 
L 216.354645 175.062804 
L 216.535719 166.941659 
L 216.6832 166.941659 
L 216.772445 175.062804 
L 217.092179 175.062804 
L 217.092798 183.183949 
L 217.247383 191.305093 
L 217.336379 183.183949 
L 217.492626 183.183949 
L 217.614545 175.062804 
L 217.670076 183.183949 
L 217.717968 175.062804 
L 217.890009 175.062804 
L 218.07119 166.941659 
L 218.147936 166.941659 
L 218.24152 191.305093 
L 218.60656 183.183949 
L 218.683413 183.183949 
L 218.913722 150.699369 
L 219.065018 150.699369 
L 219.133366 158.820514 
L 219.190819 150.699369 
L 219.203933 158.820514 
L 219.25926 175.062804 
L 219.327546 166.941659 
L 219.514876 166.941659 
L 219.527371 158.820514 
L 219.594631 166.941659 
L 219.732734 166.941659 
L 219.815533 175.062804 
L 219.94169 166.941659 
L 220.010008 166.941659 
L 220.047274 175.062804 
L 220.165671 166.941659 
L 220.23699 175.062804 
L 220.365243 175.062804 
L 220.497283 166.941659 
L 220.546523 175.062804 
L 220.844792 183.183949 
L 220.978254 175.062804 
L 221.221939 191.305093 
L 221.422523 183.183949 
L 221.481118 183.183949 
L 221.840395 175.062804 
L 221.882926 166.941659 
L 221.907803 175.062804 
L 222.034651 183.183949 
L 222.122872 175.062804 
L 222.351965 183.183949 
L 222.499354 183.183949 
L 222.603531 175.062804 
L 222.709999 183.183949 
L 222.840165 158.820514 
L 223.026619 158.820514 
L 223.101008 142.578225 
L 223.330032 166.941659 
L 223.363898 166.941659 
L 223.418061 158.820514 
L 223.579945 158.820514 
L 223.744429 183.183949 
L 223.783106 175.062804 
L 223.916726 175.062804 
L 224.022816 191.305093 
L 224.13841 183.183949 
L 224.325524 191.305093 
L 224.392649 191.305093 
L 224.60178 183.183949 
L 224.605164 175.062804 
L 225.163353 175.062804 
L 225.174593 183.183949 
L 225.555589 191.305093 
L 227.959361 191.305093 
L 228.200494 183.183949 
L 228.408153 175.062804 
L 228.432582 183.183949 
L 228.643004 191.305093 
L 228.866015 191.305093 
L 229.268007 183.183949 
L 229.429475 166.941659 
L 229.474997 166.941659 
L 229.66933 150.699369 
L 229.75752 158.820514 
L 230.118259 158.820514 
L 230.200032 166.941659 
L 230.439572 166.941659 
L 230.732022 175.062804 
L 231.011477 191.305093 
L 234.36936 191.305093 
L 234.432347 183.183949 
L 234.607686 175.062804 
L 234.615362 183.183949 
L 234.781122 183.183949 
L 234.947857 191.305093 
L 240.275283 191.305093 
L 240.435362 183.183949 
L 240.644696 183.183949 
L 240.703756 191.305093 
L 242.216693 191.305093 
L 242.480985 183.183949 
L 242.591945 183.183949 
L 242.692814 175.062804 
L 243.185229 175.062804 
L 243.401117 183.183949 
L 243.530952 191.305093 
L 245.368637 191.305093 
L 245.656404 175.062804 
L 245.752522 183.183949 
L 246.048914 158.820514 
L 246.098434 150.699369 
L 246.614278 183.183949 
L 246.794126 183.183949 
L 246.919453 191.305093 
L 254.620075 191.305093 
L 254.664694 183.183949 
L 254.88832 175.062804 
L 255.057751 183.183949 
L 255.427138 183.183949 
L 255.626477 166.941659 
L 255.736344 191.305093 
L 256.796584 191.305093 
L 257.01774 183.183949 
L 257.181943 191.305093 
L 265.812726 191.305093 
L 266.337487 183.183949 
L 266.482541 166.941659 
L 266.51378 166.941659 
L 266.607982 175.062804 
L 266.997478 183.183949 
L 267.749655 183.183949 
L 268.390904 191.305093 
L 283.160945 191.305093 
L 283.528864 175.062804 
L 283.603218 191.305093 
L 308.307522 191.305093 
L 308.405159 183.183949 
L 308.406802 191.305093 
L 312.422447 191.305093 
L 312.422447 191.305093 
" clip-path="url(#pcb9ddd6dd6)" style="fill: none; stroke: #000000; stroke-width: 1.5; stroke-linecap: square"/>
   </g>
   <g id="patch_8">
    <path d="M 44.103906 195.365666 
L 44.103906 106.033073 
" style="fill: none; stroke: #000000; stroke-width: 0.8; stroke-linejoin: miter; stroke-linecap: square"/>
   </g>
   <g id="patch_9">
    <path d="M 325.19952 195.365666 
L 325.19952 106.033073 
" style="fill: none; stroke: #000000; stroke-width: 0.8; stroke-linejoin: miter; stroke-linecap: square"/>
   </g>
   <g id="patch_10">
    <path d="M 44.103906 195.365666 
L 325.19952 195.365666 
" style="fill: none; stroke: #000000; stroke-width: 0.8; stroke-linejoin: miter; stroke-linecap: square"/>
   </g>
   <g id="patch_11">
    <path d="M 44.103906 106.033073 
L 325.19952 106.033073 
" style="fill: none; stroke: #000000; stroke-width: 0.8; stroke-linejoin: miter; stroke-linecap: square"/>
   </g>
  </g>
  <g id="axes_3">
   <g id="patch_12">
    <path d="M 44.103906 294.198739 
L 325.19952 294.198739 
L 325.19952 204.866146 
L 44.103906 204.866146 
z
" style="fill: #ffffff"/>
   </g>
   <g id="matplotlib.axis_5">
    <g id="xtick_19">
     <g id="line2d_27">
      <g>
       <use xlink:href="#m3d65c13386" x="56.88098" y="294.198739" style="stroke: #000000; stroke-width: 0.8"/>
      </g>
     </g>
     <g id="text_9">
      <!-- 0 -->
      <g transform="translate(53.69973 308.796395) scale(0.1 -0.1)">
       <use xlink:href="#DejaVuSans-13"/>
      </g>
     </g>
    </g>
    <g id="xtick_20">
     <g id="line2d_28">
      <g>
       <use xlink:href="#m3d65c13386" x="88.590991" y="294.198739" style="stroke: #000000; stroke-width: 0.8"/>
      </g>
     </g>
     <g id="text_10">
      <!-- 100 -->
      <g transform="translate(79.047241 308.796395) scale(0.1 -0.1)">
       <use xlink:href="#DejaVuSans-14"/>
       <use xlink:href="#DejaVuSans-13" transform="translate(63.625 0)"/>
       <use xlink:href="#DejaVuSans-13" transform="translate(127.25 0)"/>
      </g>
     </g>
    </g>
    <g id="xtick_21">
     <g id="line2d_29">
      <g>
       <use xlink:href="#m3d65c13386" x="120.301003" y="294.198739" style="stroke: #000000; stroke-width: 0.8"/>
      </g>
     </g>
     <g id="text_11">
      <!-- 200 -->
      <g transform="translate(110.757253 308.796395) scale(0.1 -0.1)">
       <defs>
        <path id="DejaVuSans-15" d="M 1228 531 
L 3431 531 
L 3431 0 
L 469 0 
L 469 531 
Q 828 903 1448 1529 
Q 2069 2156 2228 2338 
Q 2531 2678 2651 2914 
Q 2772 3150 2772 3378 
Q 2772 3750 2511 3984 
Q 2250 4219 1831 4219 
Q 1534 4219 1204 4116 
Q 875 4013 500 3803 
L 500 4441 
Q 881 4594 1212 4672 
Q 1544 4750 1819 4750 
Q 2544 4750 2975 4387 
Q 3406 4025 3406 3419 
Q 3406 3131 3298 2873 
Q 3191 2616 2906 2266 
Q 2828 2175 2409 1742 
Q 1991 1309 1228 531 
z
" transform="scale(0.015625)"/>
       </defs>
       <use xlink:href="#DejaVuSans-15"/>
       <use xlink:href="#DejaVuSans-13" transform="translate(63.625 0)"/>
       <use xlink:href="#DejaVuSans-13" transform="translate(127.25 0)"/>
      </g>
     </g>
    </g>
    <g id="xtick_22">
     <g id="line2d_30">
      <g>
       <use xlink:href="#m3d65c13386" x="152.011014" y="294.198739" style="stroke: #000000; stroke-width: 0.8"/>
      </g>
     </g>
     <g id="text_12">
      <!-- 300 -->
      <g transform="translate(142.467264 308.796395) scale(0.1 -0.1)">
       <defs>
        <path id="DejaVuSans-16" d="M 2597 2516 
Q 3050 2419 3304 2112 
Q 3559 1806 3559 1356 
Q 3559 666 3084 287 
Q 2609 -91 1734 -91 
Q 1441 -91 1130 -33 
Q 819 25 488 141 
L 488 750 
Q 750 597 1062 519 
Q 1375 441 1716 441 
Q 2309 441 2620 675 
Q 2931 909 2931 1356 
Q 2931 1769 2642 2001 
Q 2353 2234 1838 2234 
L 1294 2234 
L 1294 2753 
L 1863 2753 
Q 2328 2753 2575 2939 
Q 2822 3125 2822 3475 
Q 2822 3834 2567 4026 
Q 2313 4219 1838 4219 
Q 1578 4219 1281 4162 
Q 984 4106 628 3988 
L 628 4550 
Q 988 4650 1302 4700 
Q 1616 4750 1894 4750 
Q 2613 4750 3031 4423 
Q 3450 4097 3450 3541 
Q 3450 3153 3228 2886 
Q 3006 2619 2597 2516 
z
" transform="scale(0.015625)"/>
       </defs>
       <use xlink:href="#DejaVuSans-16"/>
       <use xlink:href="#DejaVuSans-13" transform="translate(63.625 0)"/>
       <use xlink:href="#DejaVuSans-13" transform="translate(127.25 0)"/>
      </g>
     </g>
    </g>
    <g id="xtick_23">
     <g id="line2d_31">
      <g>
       <use xlink:href="#m3d65c13386" x="183.721026" y="294.198739" style="stroke: #000000; stroke-width: 0.8"/>
      </g>
     </g>
     <g id="text_13">
      <!-- 400 -->
      <g transform="translate(174.177276 308.796395) scale(0.1 -0.1)">
       <defs>
        <path id="DejaVuSans-17" d="M 2419 4116 
L 825 1625 
L 2419 1625 
L 2419 4116 
z
M 2253 4666 
L 3047 4666 
L 3047 1625 
L 3713 1625 
L 3713 1100 
L 3047 1100 
L 3047 0 
L 2419 0 
L 2419 1100 
L 313 1100 
L 313 1709 
L 2253 4666 
z
" transform="scale(0.015625)"/>
       </defs>
       <use xlink:href="#DejaVuSans-17"/>
       <use xlink:href="#DejaVuSans-13" transform="translate(63.625 0)"/>
       <use xlink:href="#DejaVuSans-13" transform="translate(127.25 0)"/>
      </g>
     </g>
    </g>
    <g id="xtick_24">
     <g id="line2d_32">
      <g>
       <use xlink:href="#m3d65c13386" x="215.431037" y="294.198739" style="stroke: #000000; stroke-width: 0.8"/>
      </g>
     </g>
     <g id="text_14">
      <!-- 500 -->
      <g transform="translate(205.887287 308.796395) scale(0.1 -0.1)">
       <use xlink:href="#DejaVuSans-18"/>
       <use xlink:href="#DejaVuSans-13" transform="translate(63.625 0)"/>
       <use xlink:href="#DejaVuSans-13" transform="translate(127.25 0)"/>
      </g>
     </g>
    </g>
    <g id="xtick_25">
     <g id="line2d_33">
      <g>
       <use xlink:href="#m3d65c13386" x="247.141049" y="294.198739" style="stroke: #000000; stroke-width: 0.8"/>
      </g>
     </g>
     <g id="text_15">
      <!-- 600 -->
      <g transform="translate(237.597299 308.796395) scale(0.1 -0.1)">
       <defs>
        <path id="DejaVuSans-19" d="M 2113 2584 
Q 1688 2584 1439 2293 
Q 1191 2003 1191 1497 
Q 1191 994 1439 701 
Q 1688 409 2113 409 
Q 2538 409 2786 701 
Q 3034 994 3034 1497 
Q 3034 2003 2786 2293 
Q 2538 2584 2113 2584 
z
M 3366 4563 
L 3366 3988 
Q 3128 4100 2886 4159 
Q 2644 4219 2406 4219 
Q 1781 4219 1451 3797 
Q 1122 3375 1075 2522 
Q 1259 2794 1537 2939 
Q 1816 3084 2150 3084 
Q 2853 3084 3261 2657 
Q 3669 2231 3669 1497 
Q 3669 778 3244 343 
Q 2819 -91 2113 -91 
Q 1303 -91 875 529 
Q 447 1150 447 2328 
Q 447 3434 972 4092 
Q 1497 4750 2381 4750 
Q 2619 4750 2861 4703 
Q 3103 4656 3366 4563 
z
" transform="scale(0.015625)"/>
       </defs>
       <use xlink:href="#DejaVuSans-19"/>
       <use xlink:href="#DejaVuSans-13" transform="translate(63.625 0)"/>
       <use xlink:href="#DejaVuSans-13" transform="translate(127.25 0)"/>
      </g>
     </g>
    </g>
    <g id="xtick_26">
     <g id="line2d_34">
      <g>
       <use xlink:href="#m3d65c13386" x="278.85106" y="294.198739" style="stroke: #000000; stroke-width: 0.8"/>
      </g>
     </g>
     <g id="text_16">
      <!-- 700 -->
      <g transform="translate(269.30731 308.796395) scale(0.1 -0.1)">
       <defs>
        <path id="DejaVuSans-1a" d="M 525 4666 
L 3525 4666 
L 3525 4397 
L 1831 0 
L 1172 0 
L 2766 4134 
L 525 4134 
L 525 4666 
z
" transform="scale(0.015625)"/>
       </defs>
       <use xlink:href="#DejaVuSans-1a"/>
       <use xlink:href="#DejaVuSans-13" transform="translate(63.625 0)"/>
       <use xlink:href="#DejaVuSans-13" transform="translate(127.25 0)"/>
      </g>
     </g>
    </g>
    <g id="xtick_27">
     <g id="line2d_35">
      <g>
       <use xlink:href="#m3d65c13386" x="310.561072" y="294.198739" style="stroke: #000000; stroke-width: 0.8"/>
      </g>
     </g>
     <g id="text_17">
      <!-- 800 -->
      <g transform="translate(301.017322 308.796395) scale(0.1 -0.1)">
       <defs>
        <path id="DejaVuSans-1b" d="M 2034 2216 
Q 1584 2216 1326 1975 
Q 1069 1734 1069 1313 
Q 1069 891 1326 650 
Q 1584 409 2034 409 
Q 2484 409 2743 651 
Q 3003 894 3003 1313 
Q 3003 1734 2745 1975 
Q 2488 2216 2034 2216 
z
M 1403 2484 
Q 997 2584 770 2862 
Q 544 3141 544 3541 
Q 544 4100 942 4425 
Q 1341 4750 2034 4750 
Q 2731 4750 3128 4425 
Q 3525 4100 3525 3541 
Q 3525 3141 3298 2862 
Q 3072 2584 2669 2484 
Q 3125 2378 3379 2068 
Q 3634 1759 3634 1313 
Q 3634 634 3220 271 
Q 2806 -91 2034 -91 
Q 1263 -91 848 271 
Q 434 634 434 1313 
Q 434 1759 690 2068 
Q 947 2378 1403 2484 
z
M 1172 3481 
Q 1172 3119 1398 2916 
Q 1625 2713 2034 2713 
Q 2441 2713 2670 2916 
Q 2900 3119 2900 3481 
Q 2900 3844 2670 4047 
Q 2441 4250 2034 4250 
Q 1625 4250 1398 4047 
Q 1172 3844 1172 3481 
z
" transform="scale(0.015625)"/>
       </defs>
       <use xlink:href="#DejaVuSans-1b"/>
       <use xlink:href="#DejaVuSans-13" transform="translate(63.625 0)"/>
       <use xlink:href="#DejaVuSans-13" transform="translate(127.25 0)"/>
      </g>
     </g>
    </g>
    <g id="text_18">
     <!-- Time -->
     <g transform="translate(172.415776 322.797176) scale(0.1 -0.1)">
      <defs>
       <path id="DejaVuSans-37" d="M -19 4666 
L 3928 4666 
L 3928 4134 
L 2272 4134 
L 2272 0 
L 1638 0 
L 1638 4134 
L -19 4134 
L -19 4666 
z
" transform="scale(0.015625)"/>
       <path id="DejaVuSans-4c" d="M 603 3500 
L 1178 3500 
L 1178 0 
L 603 0 
L 603 3500 
z
M 603 4863 
L 1178 4863 
L 1178 4134 
L 603 4134 
L 603 4863 
z
" transform="scale(0.015625)"/>
       <path id="DejaVuSans-50" d="M 3328 2828 
Q 3544 3216 3844 3400 
Q 4144 3584 4550 3584 
Q 5097 3584 5394 3201 
Q 5691 2819 5691 2113 
L 5691 0 
L 5113 0 
L 5113 2094 
Q 5113 2597 4934 2840 
Q 4756 3084 4391 3084 
Q 3944 3084 3684 2787 
Q 3425 2491 3425 1978 
L 3425 0 
L 2847 0 
L 2847 2094 
Q 2847 2600 2669 2842 
Q 2491 3084 2119 3084 
Q 1678 3084 1418 2786 
Q 1159 2488 1159 1978 
L 1159 0 
L 581 0 
L 581 3500 
L 1159 3500 
L 1159 2956 
Q 1356 3278 1631 3431 
Q 1906 3584 2284 3584 
Q 2666 3584 2933 3390 
Q 3200 3197 3328 2828 
z
" transform="scale(0.015625)"/>
      </defs>
      <use xlink:href="#DejaVuSans-37"/>
      <use xlink:href="#DejaVuSans-4c" transform="translate(58 0)"/>
      <use xlink:href="#DejaVuSans-50" transform="translate(85.78125 0)"/>
      <use xlink:href="#DejaVuSans-48" transform="translate(183.1875 0)"/>
     </g>
    </g>
   </g>
   <g id="matplotlib.axis_6">
    <g id="ytick_7">
     <g id="line2d_36">
      <g>
       <use xlink:href="#m8e2535c8b7" x="44.103906" y="290.138166" style="stroke: #000000; stroke-width: 0.8"/>
      </g>
     </g>
     <g id="text_19">
      <!-- 0.0 -->
      <g transform="translate(21.200781 293.936994) scale(0.1 -0.1)">
       <defs>
        <path id="DejaVuSans-11" d="M 684 794 
L 1344 794 
L 1344 0 
L 684 0 
L 684 794 
z
" transform="scale(0.015625)"/>
       </defs>
       <use xlink:href="#DejaVuSans-13"/>
       <use xlink:href="#DejaVuSans-11" transform="translate(63.625 0)"/>
       <use xlink:href="#DejaVuSans-13" transform="translate(95.40625 0)"/>
      </g>
     </g>
    </g>
    <g id="ytick_8">
     <g id="line2d_37">
      <g>
       <use xlink:href="#m8e2535c8b7" x="44.103906" y="249.532442" style="stroke: #000000; stroke-width: 0.8"/>
      </g>
     </g>
     <g id="text_20">
      <!-- 0.5 -->
      <g transform="translate(21.200781 253.33127) scale(0.1 -0.1)">
       <use xlink:href="#DejaVuSans-13"/>
       <use xlink:href="#DejaVuSans-11" transform="translate(63.625 0)"/>
       <use xlink:href="#DejaVuSans-18" transform="translate(95.40625 0)"/>
      </g>
     </g>
    </g>
    <g id="ytick_9">
     <g id="line2d_38">
      <g>
       <use xlink:href="#m8e2535c8b7" x="44.103906" y="208.926718" style="stroke: #000000; stroke-width: 0.8"/>
      </g>
     </g>
     <g id="text_21">
      <!-- 1.0 -->
      <g transform="translate(21.200781 212.725546) scale(0.1 -0.1)">
       <use xlink:href="#DejaVuSans-14"/>
       <use xlink:href="#DejaVuSans-11" transform="translate(63.625 0)"/>
       <use xlink:href="#DejaVuSans-13" transform="translate(95.40625 0)"/>
      </g>
     </g>
    </g>
    <g id="text_22">
     <!-- Free lac operon -->
     <g transform="translate(14.798438 288.006661) rotate(-90) scale(0.1 -0.1)">
      <defs>
       <path id="DejaVuSans-29" d="M 628 4666 
L 3309 4666 
L 3309 4134 
L 1259 4134 
L 1259 2759 
L 3109 2759 
L 3109 2228 
L 1259 2228 
L 1259 0 
L 628 0 
L 628 4666 
z
" transform="scale(0.015625)"/>
       <path id="DejaVuSans-53" d="M 1159 525 
L 1159 -1331 
L 581 -1331 
L 581 3500 
L 1159 3500 
L 1159 2969 
Q 1341 3281 1617 3432 
Q 1894 3584 2278 3584 
Q 2916 3584 3314 3078 
Q 3713 2572 3713 1747 
Q 3713 922 3314 415 
Q 2916 -91 2278 -91 
Q 1894 -91 1617 61 
Q 1341 213 1159 525 
z
M 3116 1747 
Q 3116 2381 2855 2742 
Q 2594 3103 2138 3103 
Q 1681 3103 1420 2742 
Q 1159 2381 1159 1747 
Q 1159 1113 1420 752 
Q 1681 391 2138 391 
Q 2594 391 2855 752 
Q 3116 1113 3116 1747 
z
" transform="scale(0.015625)"/>
       <path id="DejaVuSans-51" d="M 3513 2113 
L 3513 0 
L 2938 0 
L 2938 2094 
Q 2938 2591 2744 2837 
Q 2550 3084 2163 3084 
Q 1697 3084 1428 2787 
Q 1159 2491 1159 1978 
L 1159 0 
L 581 0 
L 581 3500 
L 1159 3500 
L 1159 2956 
Q 1366 3272 1645 3428 
Q 1925 3584 2291 3584 
Q 2894 3584 3203 3211 
Q 3513 2838 3513 2113 
z
" transform="scale(0.015625)"/>
      </defs>
      <use xlink:href="#DejaVuSans-29"/>
      <use xlink:href="#DejaVuSans-55" transform="translate(50.234375 0)"/>
      <use xlink:href="#DejaVuSans-48" transform="translate(89.140625 0)"/>
      <use xlink:href="#DejaVuSans-48" transform="translate(150.671875 0)"/>
      <use xlink:href="#DejaVuSans-3" transform="translate(212.203125 0)"/>
      <use xlink:href="#DejaVuSans-4f" transform="translate(243.984375 0)"/>
      <use xlink:href="#DejaVuSans-44" transform="translate(271.765625 0)"/>
      <use xlink:href="#DejaVuSans-46" transform="translate(333.046875 0)"/>
      <use xlink:href="#DejaVuSans-3" transform="translate(388.03125 0)"/>
      <use xlink:href="#DejaVuSans-52" transform="translate(419.8125 0)"/>
      <use xlink:href="#DejaVuSans-53" transform="translate(481 0)"/>
      <use xlink:href="#DejaVuSans-48" transform="translate(544.484375 0)"/>
      <use xlink:href="#DejaVuSans-55" transform="translate(606.015625 0)"/>
      <use xlink:href="#DejaVuSans-52" transform="translate(644.921875 0)"/>
      <use xlink:href="#DejaVuSans-51" transform="translate(706.109375 0)"/>
     </g>
    </g>
   </g>
   <g id="line2d_39">
    <path d="M 56.88098 208.926718 
L 56.962083 290.138166 
L 57.12952 290.138166 
L 57.298244 208.926718 
L 57.415815 208.926718 
L 57.517431 290.138166 
L 58.727567 290.138166 
L 59.712415 208.926718 
L 59.897817 208.926718 
L 59.920446 290.138166 
L 62.329671 290.138166 
L 64.911094 208.926718 
L 65.204502 208.926718 
L 65.341252 290.138166 
L 65.466489 290.138166 
L 72.095286 208.926718 
L 72.264219 290.138166 
L 80.064233 208.926718 
L 80.113023 290.138166 
L 82.726228 208.926718 
L 82.865511 208.926718 
L 82.9194 290.138166 
L 84.650946 290.138166 
L 84.716049 208.926718 
L 85.587913 208.926718 
L 85.776931 290.138166 
L 86.804554 290.138166 
L 89.782034 208.926718 
L 90.31931 208.926718 
L 90.348441 290.138166 
L 90.70454 290.138166 
L 91.581478 208.926718 
L 91.639629 290.138166 
L 91.981733 290.138166 
L 108.970262 208.926718 
L 108.983895 290.138166 
L 109.241052 290.138166 
L 109.515783 208.926718 
L 109.801683 290.138166 
L 109.929104 208.926718 
L 110.33479 208.926718 
L 110.538337 290.138166 
L 110.829497 290.138166 
L 114.970559 208.926718 
L 115.627835 290.138166 
L 117.261548 208.926718 
L 117.575181 290.138166 
L 118.244195 208.926718 
L 118.331077 290.138166 
L 119.335318 208.926718 
L 119.419797 290.138166 
L 123.342627 290.138166 
L 129.330944 208.926718 
L 129.436353 290.138166 
L 131.169788 208.926718 
L 131.618293 208.926718 
L 131.639625 290.138166 
L 133.47058 290.138166 
L 136.053054 208.926718 
L 136.066293 290.138166 
L 138.932735 208.926718 
L 138.97525 290.138166 
L 145.982814 208.926718 
L 146.922347 208.926718 
L 146.990313 290.138166 
L 147.603611 290.138166 
L 147.8474 208.926718 
L 148.160681 208.926718 
L 148.272855 290.138166 
L 149.338029 290.138166 
L 149.846863 208.926718 
L 149.947104 290.138166 
L 151.062507 290.138166 
L 151.07377 208.926718 
L 151.234487 290.138166 
L 155.521107 208.926718 
L 155.609589 290.138166 
L 155.857641 208.926718 
L 189.541055 208.926718 
L 189.64843 290.138166 
L 190.504365 290.138166 
L 190.842438 208.926718 
L 214.944571 208.926718 
L 215.048913 290.138166 
L 215.523074 208.926718 
L 224.838182 208.926718 
L 224.845691 290.138166 
L 226.680555 290.138166 
L 227.959361 208.926718 
L 230.965888 208.926718 
L 231.011477 290.138166 
L 232.044144 290.138166 
L 234.432347 208.926718 
L 234.615362 208.926718 
L 234.781122 290.138166 
L 235.191451 290.138166 
L 238.005123 208.926718 
L 238.084741 290.138166 
L 240.367236 208.926718 
L 240.435362 208.926718 
L 240.703756 290.138166 
L 241.143116 208.926718 
L 241.458592 290.138166 
L 242.216693 208.926718 
L 242.60323 208.926718 
L 242.692814 290.138166 
L 243.654536 290.138166 
L 245.368637 208.926718 
L 246.439129 208.926718 
L 246.501293 290.138166 
L 246.919453 290.138166 
L 254.123047 208.926718 
L 254.559332 290.138166 
L 254.664694 208.926718 
L 255.012491 208.926718 
L 255.057751 290.138166 
L 255.477743 208.926718 
L 255.610223 208.926718 
L 255.736344 290.138166 
L 255.925246 290.138166 
L 255.933188 208.926718 
L 255.985424 290.138166 
L 256.38774 290.138166 
L 256.796584 208.926718 
L 257.087216 208.926718 
L 257.181943 290.138166 
L 258.839393 208.926718 
L 258.922378 290.138166 
L 265.812726 208.926718 
L 266.482541 208.926718 
L 266.607982 290.138166 
L 268.390904 290.138166 
L 273.998084 208.926718 
L 274.565452 290.138166 
L 283.160945 208.926718 
L 283.416617 208.926718 
L 283.528864 290.138166 
L 284.13649 290.138166 
L 294.145134 208.926718 
L 294.326836 290.138166 
L 295.287476 208.926718 
L 295.383048 290.138166 
L 308.406802 208.926718 
L 308.538679 290.138166 
L 308.880763 290.138166 
L 312.422447 208.926718 
L 312.422447 208.926718 
" clip-path="url(#pe2d2545d7f)" style="fill: none; stroke: #000000; stroke-width: 1.5; stroke-linecap: square"/>
   </g>
   <g id="patch_13">
    <path d="M 44.103906 294.198739 
L 44.103906 204.866146 
" style="fill: none; stroke: #000000; stroke-width: 0.8; stroke-linejoin: miter; stroke-linecap: square"/>
   </g>
   <g id="patch_14">
    <path d="M 325.19952 294.198739 
L 325.19952 204.866146 
" style="fill: none; stroke: #000000; stroke-width: 0.8; stroke-linejoin: miter; stroke-linecap: square"/>
   </g>
   <g id="patch_15">
    <path d="M 44.103906 294.198739 
L 325.19952 294.198739 
" style="fill: none; stroke: #000000; stroke-width: 0.8; stroke-linejoin: miter; stroke-linecap: square"/>
   </g>
   <g id="patch_16">
    <path d="M 44.103906 204.866146 
L 325.19952 204.866146 
" style="fill: none; stroke: #000000; stroke-width: 0.8; stroke-linejoin: miter; stroke-linecap: square"/>
   </g>
  </g>
 </g>
 <defs>
  <clipPath id="p3812b0d726">
   <rect x="44.103906" y="7.2" width="281.095614" height="89.332593"/>
  </clipPath>
  <clipPath id="pcb9ddd6dd6">
   <rect x="44.103906" y="106.033073" width="281.095614" height="89.332593"/>
  </clipPath>
  <clipPath id="pe2d2545d7f">
   <rect x="44.103906" y="204.866146" width="281.095614" height="89.332593"/>
  </clipPath>
 </defs>
</svg>
