<svg xmlns="http://www.w3.org/2000/svg" viewBox="0 0 812 812" role="img">
  <path fill="#020A0E" d="M 45 52 L 29 73 L 15 102 L 8 131 L 8 155 L 10 160 L 20 168 L 56 170 L 66 174 L 77 185 L 81 198 L 82 692 L 85 712 L 92 733 L 103 753 L 118 770 L 139 785 L 164 795 L 194 801 L 230 802 L 269 798 L 307 790 L 336 779 L 349 768 L 352 758 L 351 750 L 343 740 L 312 735 L 298 730 L 285 719 L 278 704 L 276 690 L 278 482 L 282 484 L 443 726 L 462 748 L 476 761 L 502 779 L 531 791 L 564 799 L 600 803 L 655 803 L 707 797 L 739 790 L 769 780 L 779 775 L 787 767 L 790 756 L 789 750 L 784 742 L 776 738 L 751 735 L 730 727 L 708 711 L 688 689 L 657 644 L 510 410 L 514 404 L 758 170 L 763 160 L 763 150 L 760 143 L 755 138 L 750 136 L 498 136 L 491 139 L 485 149 L 485 171 L 479 196 L 470 215 L 460 230 L 424 268 L 280 406 L 278 406 L 277 113 L 273 87 L 260 57 L 250 43 L 241 34 L 224 22 L 198 11 L 178 7 L 161 6 L 123 9 L 93 18 L 65 34 Z"/>
  <path fill="#2D6E9B" d="M 526 177 L 525 192 L 518 215 L 507 236 L 495 252 L 444 304 L 306 438 L 305 445 L 472 696 L 484 712 L 504 732 L 532 749 L 549 755 L 584 762 L 603 764 L 646 764 L 704 755 L 690 747 L 666 725 L 637 688 L 461 407 L 463 398 L 475 385 L 693 177 Z M 138 50 L 111 58 L 84 74 L 71 87 L 63 99 L 56 117 L 54 128 L 74 132 L 96 142 L 113 161 L 120 183 L 120 633 L 123 697 L 127 711 L 140 733 L 156 747 L 171 755 L 187 760 L 210 763 L 229 763 L 272 757 L 259 749 L 246 733 L 240 719 L 237 704 L 237 171 L 235 106 L 231 92 L 224 78 L 213 65 L 203 58 L 177 49 L 157 48 Z"/>
</svg>
